{
    "header": {
        "PPQ": 480,
        "timeSignature": [
            2,
            4
        ],
        "bpm": 70.60002965201245,
        "name": "Beethoven: Sonate Opus 90, 2. Satz"
    },
    "startTime": 0,
    "duration": 494.1924270000116,
    "tracks": [
        {
            "startTime": 0,
            "duration": 0,
            "length": 0,
            "notes": [],
            "controlChanges": {},
            "id": 0,
            "name": "Beethoven: Sonate Opus 90, 2. Satz"
        },
        {
            "startTime": 1.274787,
            "duration": 494.1924270000071,
            "length": 1864,
            "notes": [
                {
                    "name": "E4",
                    "midi": 64,
                    "time": 1.274787,
                    "velocity": 0.33858267716535434,
                    "duration": 0.21246450000000006
                },
                {
                    "name": "F#4",
                    "midi": 66,
                    "time": 1.4872515,
                    "velocity": 0.30708661417322836,
                    "duration": 0.21246450000000006
                },
                {
                    "name": "E4",
                    "midi": 64,
                    "time": 1.699716,
                    "velocity": 0.2677165354330709,
                    "duration": 0.21246450000000006
                },
                {
                    "name": "G#4",
                    "midi": 68,
                    "time": 1.699716,
                    "velocity": 0.3937007874015748,
                    "duration": 0.8498579999999998
                },
                {
                    "name": "B3",
                    "midi": 59,
                    "time": 1.9121805,
                    "velocity": 0.2047244094488189,
                    "duration": 0.21246450000000006
                },
                {
                    "name": "E4",
                    "midi": 64,
                    "time": 2.124645,
                    "velocity": 0.2440944881889764,
                    "duration": 0.21246449999999983
                },
                {
                    "name": "B3",
                    "midi": 59,
                    "time": 2.3371095,
                    "velocity": 0.2047244094488189,
                    "duration": 0.21246449999999983
                },
                {
                    "name": "G#4",
                    "midi": 68,
                    "time": 2.549574,
                    "velocity": 0.23622047244094488,
                    "duration": 0.21246449999999983
                },
                {
                    "name": "B4",
                    "midi": 71,
                    "time": 2.549574,
                    "velocity": 0.36220472440944884,
                    "duration": 0.42492899999999967
                },
                {
                    "name": "B3",
                    "midi": 59,
                    "time": 2.7620384999999996,
                    "velocity": 0.2125984251968504,
                    "duration": 0.21246449999999983
                },
                {
                    "name": "F#4",
                    "midi": 66,
                    "time": 2.9745029999999995,
                    "velocity": 0.2204724409448819,
                    "duration": 0.21246449999999983
                },
                {
                    "name": "A4",
                    "midi": 69,
                    "time": 2.9745029999999995,
                    "velocity": 0.33858267716535434,
                    "duration": 0.42492899999999967
                },
                {
                    "name": "B3",
                    "midi": 59,
                    "time": 3.1869674999999993,
                    "velocity": 0.2125984251968504,
                    "duration": 0.21246449999999983
                },
                {
                    "name": "E4",
                    "midi": 64,
                    "time": 3.399431999999999,
                    "velocity": 0.2677165354330709,
                    "duration": 0.21246449999999983
                },
                {
                    "name": "G#4",
                    "midi": 68,
                    "time": 3.399431999999999,
                    "velocity": 0.3937007874015748,
                    "duration": 0.42492899999999967
                },
                {
                    "name": "B3",
                    "midi": 59,
                    "time": 3.611896499999999,
                    "velocity": 0.2047244094488189,
                    "duration": 0.21246449999999983
                },
                {
                    "name": "D#4",
                    "midi": 63,
                    "time": 3.824360999999999,
                    "velocity": 0.2125984251968504,
                    "duration": 0.21246450000000028
                },
                {
                    "name": "F#4",
                    "midi": 66,
                    "time": 3.824360999999999,
                    "velocity": 0.3228346456692913,
                    "duration": 0.3718128750000007
                },
                {
                    "name": "B3",
                    "midi": 59,
                    "time": 4.036825499999999,
                    "velocity": 0.1968503937007874,
                    "duration": 0.15934837500000043
                },
                {
                    "name": "D#4",
                    "midi": 63,
                    "time": 4.249289999999999,
                    "velocity": 0.2125984251968504,
                    "duration": 0.21246450000000028
                },
                {
                    "name": "F#4",
                    "midi": 66,
                    "time": 4.249289999999999,
                    "velocity": 0.3228346456692913,
                    "duration": 0.42492900000000056
                },
                {
                    "name": "B3",
                    "midi": 59,
                    "time": 4.4617545,
                    "velocity": 0.2047244094488189,
                    "duration": 0.21246450000000028
                },
                {
                    "name": "E4",
                    "midi": 64,
                    "time": 4.674219,
                    "velocity": 0.2204724409448819,
                    "duration": 0.21246450000000028
                },
                {
                    "name": "G#4",
                    "midi": 68,
                    "time": 4.674219,
                    "velocity": 0.33858267716535434,
                    "duration": 0.42492900000000056
                },
                {
                    "name": "B3",
                    "midi": 59,
                    "time": 4.8866835,
                    "velocity": 0.2204724409448819,
                    "duration": 0.21246450000000028
                },
                {
                    "name": "E4",
                    "midi": 64,
                    "time": 5.0991480000000005,
                    "velocity": 0.23622047244094488,
                    "duration": 0.21246450000000028
                },
                {
                    "name": "A4",
                    "midi": 69,
                    "time": 5.0991480000000005,
                    "velocity": 0.36220472440944884,
                    "duration": 0.42492900000000056
                },
                {
                    "name": "B3",
                    "midi": 59,
                    "time": 5.311612500000001,
                    "velocity": 0.2204724409448819,
                    "duration": 0.21246450000000028
                },
                {
                    "name": "E4",
                    "midi": 64,
                    "time": 5.524077000000001,
                    "velocity": 0.28346456692913385,
                    "duration": 0.21246450000000028
                },
                {
                    "name": "C#5",
                    "midi": 73,
                    "time": 5.524077000000001,
                    "velocity": 0.4251968503937008,
                    "duration": 0.42492900000000056
                },
                {
                    "name": "B3",
                    "midi": 59,
                    "time": 5.736541500000001,
                    "velocity": 0.2440944881889764,
                    "duration": 0.21246450000000028
                },
                {
                    "name": "F#4",
                    "midi": 66,
                    "time": 5.949006000000002,
                    "velocity": 0.29133858267716534,
                    "duration": 0.21246450000000028
                },
                {
                    "name": "B4",
                    "midi": 71,
                    "time": 5.949006000000002,
                    "velocity": 0.3700787401574803,
                    "duration": 0.42492900000000056
                },
                {
                    "name": "B3",
                    "midi": 59,
                    "time": 6.161470500000002,
                    "velocity": 0.2047244094488189,
                    "duration": 0.21246450000000028
                },
                {
                    "name": "D#4",
                    "midi": 63,
                    "time": 6.373935000000002,
                    "velocity": 0.1968503937007874,
                    "duration": 0.21246450000000028
                },
                {
                    "name": "F#4",
                    "midi": 66,
                    "time": 6.373935000000002,
                    "velocity": 0.2992125984251969,
                    "duration": 0.42492900000000056
                },
                {
                    "name": "B3",
                    "midi": 59,
                    "time": 6.586399500000002,
                    "velocity": 0.2125984251968504,
                    "duration": 0.21246450000000028
                },
                {
                    "name": "B3",
                    "midi": 59,
                    "time": 6.798864000000003,
                    "velocity": 0.2755905511811024,
                    "duration": 0.8498580000000002
                },
                {
                    "name": "E4",
                    "midi": 64,
                    "time": 6.798864000000003,
                    "velocity": 0.2755905511811024,
                    "duration": 0.8498580000000002
                },
                {
                    "name": "G#4",
                    "midi": 68,
                    "time": 6.798864000000003,
                    "velocity": 0.33070866141732286,
                    "duration": 0.8498580000000002
                },
                {
                    "name": "E5",
                    "midi": 76,
                    "time": 8.073651000000003,
                    "velocity": 0.4251968503937008,
                    "duration": 0.2124644999999994
                },
                {
                    "name": "F#5",
                    "midi": 78,
                    "time": 8.286115500000003,
                    "velocity": 0.3779527559055118,
                    "duration": 0.2124644999999994
                },
                {
                    "name": "G#4",
                    "midi": 68,
                    "time": 8.498580000000002,
                    "velocity": 0.49606299212598426,
                    "duration": 0.8498579999999993
                },
                {
                    "name": "G#5",
                    "midi": 80,
                    "time": 8.498580000000002,
                    "velocity": 0.49606299212598426,
                    "duration": 0.8498579999999993
                },
                {
                    "name": "B4",
                    "midi": 71,
                    "time": 9.348438000000002,
                    "velocity": 0.44881889763779526,
                    "duration": 0.42492900000000056
                },
                {
                    "name": "B5",
                    "midi": 83,
                    "time": 9.348438000000002,
                    "velocity": 0.44881889763779526,
                    "duration": 0.42492900000000056
                },
                {
                    "name": "A4",
                    "midi": 69,
                    "time": 9.773367000000002,
                    "velocity": 0.4251968503937008,
                    "duration": 0.42492900000000056
                },
                {
                    "name": "A5",
                    "midi": 81,
                    "time": 9.773367000000002,
                    "velocity": 0.4251968503937008,
                    "duration": 0.42492900000000056
                },
                {
                    "name": "G#4",
                    "midi": 68,
                    "time": 10.198296000000003,
                    "velocity": 0.49606299212598426,
                    "duration": 0.42492900000000056
                },
                {
                    "name": "G#5",
                    "midi": 80,
                    "time": 10.198296000000003,
                    "velocity": 0.49606299212598426,
                    "duration": 0.42492900000000056
                },
                {
                    "name": "F#4",
                    "midi": 66,
                    "time": 10.623225000000003,
                    "velocity": 0.4015748031496063,
                    "duration": 0.3718128749999998
                },
                {
                    "name": "F#5",
                    "midi": 78,
                    "time": 10.623225000000003,
                    "velocity": 0.4015748031496063,
                    "duration": 0.3718128749999998
                },
                {
                    "name": "F#4",
                    "midi": 66,
                    "time": 11.048154000000004,
                    "velocity": 0.4015748031496063,
                    "duration": 0.42492900000000056
                },
                {
                    "name": "F#5",
                    "midi": 78,
                    "time": 11.048154000000004,
                    "velocity": 0.4015748031496063,
                    "duration": 0.42492900000000056
                },
                {
                    "name": "G#4",
                    "midi": 68,
                    "time": 11.473083000000004,
                    "velocity": 0.4566929133858268,
                    "duration": 0.42492900000000056
                },
                {
                    "name": "G#5",
                    "midi": 80,
                    "time": 11.473083000000004,
                    "velocity": 0.4566929133858268,
                    "duration": 0.42492900000000056
                },
                {
                    "name": "A4",
                    "midi": 69,
                    "time": 11.898012000000005,
                    "velocity": 0.44881889763779526,
                    "duration": 0.42492900000000056
                },
                {
                    "name": "A5",
                    "midi": 81,
                    "time": 11.898012000000005,
                    "velocity": 0.5433070866141733,
                    "duration": 0.42492900000000056
                },
                {
                    "name": "C#5",
                    "midi": 73,
                    "time": 12.322941000000005,
                    "velocity": 0.5433070866141733,
                    "duration": 0.42492900000000056
                },
                {
                    "name": "C#6",
                    "midi": 85,
                    "time": 12.322941000000005,
                    "velocity": 0.5433070866141733,
                    "duration": 0.42492900000000056
                },
                {
                    "name": "B4",
                    "midi": 71,
                    "time": 12.747870000000006,
                    "velocity": 0.4409448818897638,
                    "duration": 0.42492900000000056
                },
                {
                    "name": "B5",
                    "midi": 83,
                    "time": 12.747870000000006,
                    "velocity": 0.5275590551181102,
                    "duration": 0.42492900000000056
                },
                {
                    "name": "D#6",
                    "midi": 87,
                    "time": 13.172799000000007,
                    "velocity": 0.3858267716535433,
                    "duration": 0.42492900000000056
                },
                {
                    "name": "D#5",
                    "midi": 75,
                    "time": 13.172799000000007,
                    "velocity": 0.25196850393700787,
                    "duration": 0.42492900000000056
                },
                {
                    "name": "E6",
                    "midi": 88,
                    "time": 13.597728000000007,
                    "velocity": 0.44881889763779526,
                    "duration": 0.8498579999999993
                },
                {
                    "name": "E5",
                    "midi": 76,
                    "time": 13.597728000000007,
                    "velocity": 0.2755905511811024,
                    "duration": 0.8498579999999993
                },
                {
                    "name": "B4",
                    "midi": 71,
                    "time": 14.872515000000007,
                    "velocity": 0.3700787401574803,
                    "duration": 0.42492900000000056
                },
                {
                    "name": "A#4",
                    "midi": 70,
                    "time": 15.297444000000008,
                    "velocity": 0.4015748031496063,
                    "duration": 0.8498579999999993
                },
                {
                    "name": "E5",
                    "midi": 76,
                    "time": 16.147302000000007,
                    "velocity": 0.4409448818897638,
                    "duration": 0.8498580000000011
                },
                {
                    "name": "D#5",
                    "midi": 75,
                    "time": 16.997160000000008,
                    "velocity": 0.4015748031496063,
                    "duration": 1.274787
                },
                {
                    "name": "A4",
                    "midi": 69,
                    "time": 18.271947000000008,
                    "velocity": 0.3858267716535433,
                    "duration": 0.4249289999999988
                },
                {
                    "name": "G#4",
                    "midi": 68,
                    "time": 18.696876000000007,
                    "velocity": 0.47244094488188976,
                    "duration": 0.8498580000000011
                },
                {
                    "name": "D5",
                    "midi": 74,
                    "time": 19.546734000000008,
                    "velocity": 0.5039370078740157,
                    "duration": 0.8498580000000011
                },
                {
                    "name": "C#5",
                    "midi": 73,
                    "time": 20.39659200000001,
                    "velocity": 0.4409448818897638,
                    "duration": 1.274787
                },
                {
                    "name": "C#5",
                    "midi": 73,
                    "time": 21.67137900000001,
                    "velocity": 0.4409448818897638,
                    "duration": 0.4249289999999988
                },
                {
                    "name": "C5",
                    "midi": 72,
                    "time": 22.096308000000008,
                    "velocity": 0.4566929133858268,
                    "duration": 0.4249289999999988
                },
                {
                    "name": "C#5",
                    "midi": 73,
                    "time": 22.521237000000006,
                    "velocity": 0.4566929133858268,
                    "duration": 0.4249289999999988
                },
                {
                    "name": "A4",
                    "midi": 69,
                    "time": 22.946166000000005,
                    "velocity": 0.4330708661417323,
                    "duration": 0.31869675000000086
                },
                {
                    "name": "E4",
                    "midi": 64,
                    "time": 22.946166000000005,
                    "velocity": 0.36220472440944884,
                    "duration": 0.31869675000000086
                },
                {
                    "name": "C#4",
                    "midi": 61,
                    "time": 22.946166000000005,
                    "velocity": 0.36220472440944884,
                    "duration": 0.31869675000000086
                },
                {
                    "name": "G#4",
                    "midi": 68,
                    "time": 23.371095000000008,
                    "velocity": 0.4251968503937008,
                    "duration": 0.31869675000000086
                },
                {
                    "name": "E4",
                    "midi": 64,
                    "time": 23.371095000000008,
                    "velocity": 0.3464566929133858,
                    "duration": 0.31869675000000086
                },
                {
                    "name": "B3",
                    "midi": 59,
                    "time": 23.371095000000008,
                    "velocity": 0.3464566929133858,
                    "duration": 0.31869675000000086
                },
                {
                    "name": "G#4",
                    "midi": 68,
                    "time": 23.79602400000001,
                    "velocity": 0.5669291338582677,
                    "duration": 0.4249289999999988
                },
                {
                    "name": "E4",
                    "midi": 64,
                    "time": 23.79602400000001,
                    "velocity": 0.47244094488188976,
                    "duration": 0.8498579999999976
                },
                {
                    "name": "A#3",
                    "midi": 58,
                    "time": 23.79602400000001,
                    "velocity": 0.47244094488188976,
                    "duration": 0.8498579999999976
                },
                {
                    "name": "F#4",
                    "midi": 66,
                    "time": 24.22095300000001,
                    "velocity": 0.4566929133858268,
                    "duration": 0.8498579999999976
                },
                {
                    "name": "E4",
                    "midi": 64,
                    "time": 24.645882000000007,
                    "velocity": 0.4566929133858268,
                    "duration": 0.8498579999999976
                },
                {
                    "name": "A3",
                    "midi": 57,
                    "time": 24.645882000000007,
                    "velocity": 0.4566929133858268,
                    "duration": 0.8498579999999976
                },
                {
                    "name": "F#4",
                    "midi": 66,
                    "time": 25.070811000000006,
                    "velocity": 0.47244094488188976,
                    "duration": 0.4249289999999988
                },
                {
                    "name": "F#4",
                    "midi": 66,
                    "time": 25.495740000000005,
                    "velocity": 0.3858267716535433,
                    "duration": 0.4249289999999988
                },
                {
                    "name": "D#4",
                    "midi": 63,
                    "time": 25.495740000000005,
                    "velocity": 0.3228346456692913,
                    "duration": 0.4249289999999988
                },
                {
                    "name": "A3",
                    "midi": 57,
                    "time": 25.495740000000005,
                    "velocity": 0.3228346456692913,
                    "duration": 0.4249289999999988
                },
                {
                    "name": "B4",
                    "midi": 71,
                    "time": 25.920669000000004,
                    "velocity": 0.2992125984251969,
                    "duration": 0.4249289999999988
                },
                {
                    "name": "D#4",
                    "midi": 63,
                    "time": 25.920669000000004,
                    "velocity": 0.25196850393700787,
                    "duration": 0.8498579999999976
                },
                {
                    "name": "A#4",
                    "midi": 70,
                    "time": 26.345598000000003,
                    "velocity": 0.36220472440944884,
                    "duration": 0.4249289999999988
                },
                {
                    "name": "B4",
                    "midi": 71,
                    "time": 26.770527,
                    "velocity": 0.31496062992125984,
                    "duration": 0.4249289999999988
                },
                {
                    "name": "D#4",
                    "midi": 63,
                    "time": 26.770527,
                    "velocity": 0.2677165354330709,
                    "duration": 0.4249289999999988
                },
                {
                    "name": "E4",
                    "midi": 64,
                    "time": 27.195456,
                    "velocity": 0.4015748031496063,
                    "duration": 0.8498580000000011
                },
                {
                    "name": "B5",
                    "midi": 83,
                    "time": 28.470243,
                    "velocity": 0.3700787401574803,
                    "duration": 0.4249289999999988
                },
                {
                    "name": "B4",
                    "midi": 71,
                    "time": 28.470243,
                    "velocity": 0.3700787401574803,
                    "duration": 0.4249289999999988
                },
                {
                    "name": "A#5",
                    "midi": 82,
                    "time": 28.895172,
                    "velocity": 0.4015748031496063,
                    "duration": 0.8498580000000011
                },
                {
                    "name": "A#4",
                    "midi": 70,
                    "time": 28.895172,
                    "velocity": 0.4015748031496063,
                    "duration": 0.8498580000000011
                },
                {
                    "name": "E6",
                    "midi": 88,
                    "time": 29.74503,
                    "velocity": 0.4409448818897638,
                    "duration": 0.8498580000000011
                },
                {
                    "name": "E5",
                    "midi": 76,
                    "time": 29.74503,
                    "velocity": 0.4409448818897638,
                    "duration": 0.8498580000000011
                },
                {
                    "name": "D#6",
                    "midi": 87,
                    "time": 30.594888,
                    "velocity": 0.4015748031496063,
                    "duration": 1.274787
                },
                {
                    "name": "D#5",
                    "midi": 75,
                    "time": 30.594888,
                    "velocity": 0.4015748031496063,
                    "duration": 1.274787
                },
                {
                    "name": "A5",
                    "midi": 81,
                    "time": 31.869675,
                    "velocity": 0.4015748031496063,
                    "duration": 0.4249289999999988
                },
                {
                    "name": "A4",
                    "midi": 69,
                    "time": 31.869675,
                    "velocity": 0.4015748031496063,
                    "duration": 0.4249289999999988
                },
                {
                    "name": "G#5",
                    "midi": 80,
                    "time": 32.294604,
                    "velocity": 0.4881889763779528,
                    "duration": 0.8498579999999976
                },
                {
                    "name": "G#4",
                    "midi": 68,
                    "time": 32.294604,
                    "velocity": 0.4881889763779528,
                    "duration": 0.8498579999999976
                },
                {
                    "name": "D6",
                    "midi": 86,
                    "time": 33.144462,
                    "velocity": 0.4645669291338583,
                    "duration": 0.8498579999999976
                },
                {
                    "name": "D5",
                    "midi": 74,
                    "time": 33.144462,
                    "velocity": 0.4645669291338583,
                    "duration": 0.8498579999999976
                },
                {
                    "name": "C#6",
                    "midi": 85,
                    "time": 33.994319999999995,
                    "velocity": 0.4409448818897638,
                    "duration": 1.2747869999999963
                },
                {
                    "name": "C#5",
                    "midi": 73,
                    "time": 33.994319999999995,
                    "velocity": 0.4409448818897638,
                    "duration": 1.2747869999999963
                },
                {
                    "name": "C#6",
                    "midi": 85,
                    "time": 35.26910699999999,
                    "velocity": 0.3937007874015748,
                    "duration": 0.4249289999999988
                },
                {
                    "name": "C#5",
                    "midi": 73,
                    "time": 35.26910699999999,
                    "velocity": 0.3937007874015748,
                    "duration": 0.4249289999999988
                },
                {
                    "name": "C6",
                    "midi": 84,
                    "time": 35.69403599999999,
                    "velocity": 0.4645669291338583,
                    "duration": 0.4249289999999988
                },
                {
                    "name": "C5",
                    "midi": 72,
                    "time": 35.69403599999999,
                    "velocity": 0.4645669291338583,
                    "duration": 0.4249289999999988
                },
                {
                    "name": "C#6",
                    "midi": 85,
                    "time": 36.11896499999999,
                    "velocity": 0.47244094488188976,
                    "duration": 0.4249289999999988
                },
                {
                    "name": "C#5",
                    "midi": 73,
                    "time": 36.11896499999999,
                    "velocity": 0.47244094488188976,
                    "duration": 0.4249289999999988
                },
                {
                    "name": "A5",
                    "midi": 81,
                    "time": 36.54389399999999,
                    "velocity": 0.4566929133858268,
                    "duration": 0.31869675000000086
                },
                {
                    "name": "A4",
                    "midi": 69,
                    "time": 36.54389399999999,
                    "velocity": 0.4566929133858268,
                    "duration": 0.31869675000000086
                },
                {
                    "name": "G#5",
                    "midi": 80,
                    "time": 36.968822999999986,
                    "velocity": 0.44881889763779526,
                    "duration": 0.31869675000000086
                },
                {
                    "name": "G#4",
                    "midi": 68,
                    "time": 36.968822999999986,
                    "velocity": 0.44881889763779526,
                    "duration": 0.31869675000000086
                },
                {
                    "name": "G#5",
                    "midi": 80,
                    "time": 37.393751999999985,
                    "velocity": 0.5511811023622047,
                    "duration": 0.4249289999999988
                },
                {
                    "name": "G#4",
                    "midi": 68,
                    "time": 37.393751999999985,
                    "velocity": 0.5511811023622047,
                    "duration": 0.4249289999999988
                },
                {
                    "name": "F#5",
                    "midi": 78,
                    "time": 37.818680999999984,
                    "velocity": 0.5039370078740157,
                    "duration": 0.8410053125000019
                },
                {
                    "name": "F#4",
                    "midi": 66,
                    "time": 37.818680999999984,
                    "velocity": 0.5039370078740157,
                    "duration": 0.8410053125000019
                },
                {
                    "name": "F#5",
                    "midi": 78,
                    "time": 38.66853899999999,
                    "velocity": 0.41732283464566927,
                    "duration": 0.4036825499999992
                },
                {
                    "name": "F#4",
                    "midi": 66,
                    "time": 38.66853899999999,
                    "velocity": 0.41732283464566927,
                    "duration": 0.4036825499999992
                },
                {
                    "name": "F#5",
                    "midi": 78,
                    "time": 39.09346799999999,
                    "velocity": 0.3858267716535433,
                    "duration": 0.4249289999999988
                },
                {
                    "name": "F#4",
                    "midi": 66,
                    "time": 39.09346799999999,
                    "velocity": 0.3858267716535433,
                    "duration": 0.4249289999999988
                },
                {
                    "name": "B5",
                    "midi": 83,
                    "time": 39.518396999999986,
                    "velocity": 0.2992125984251969,
                    "duration": 0.4249289999999988
                },
                {
                    "name": "B4",
                    "midi": 71,
                    "time": 39.518396999999986,
                    "velocity": 0.2992125984251969,
                    "duration": 0.4249289999999988
                },
                {
                    "name": "A#5",
                    "midi": 82,
                    "time": 39.943325999999985,
                    "velocity": 0.36220472440944884,
                    "duration": 0.4249289999999988
                },
                {
                    "name": "A#4",
                    "midi": 70,
                    "time": 39.943325999999985,
                    "velocity": 0.36220472440944884,
                    "duration": 0.4249289999999988
                },
                {
                    "name": "B5",
                    "midi": 83,
                    "time": 40.368254999999984,
                    "velocity": 0.31496062992125984,
                    "duration": 0.4249289999999988
                },
                {
                    "name": "B4",
                    "midi": 71,
                    "time": 40.368254999999984,
                    "velocity": 0.31496062992125984,
                    "duration": 0.4249289999999988
                },
                {
                    "name": "E5",
                    "midi": 76,
                    "time": 40.79318399999998,
                    "velocity": 0.4015748031496063,
                    "duration": 0.8498579999999976
                },
                {
                    "name": "E4",
                    "midi": 64,
                    "time": 40.79318399999998,
                    "velocity": 0.4015748031496063,
                    "duration": 0.8498579999999976
                },
                {
                    "name": "E4",
                    "midi": 64,
                    "time": 42.06797099999998,
                    "velocity": 0.33858267716535434,
                    "duration": 0.21246450000000294
                },
                {
                    "name": "F#4",
                    "midi": 66,
                    "time": 42.28043549999998,
                    "velocity": 0.30708661417322836,
                    "duration": 0.21246450000000294
                },
                {
                    "name": "E4",
                    "midi": 64,
                    "time": 42.492899999999985,
                    "velocity": 0.2677165354330709,
                    "duration": 0.21246450000000294
                },
                {
                    "name": "G#4",
                    "midi": 68,
                    "time": 42.492899999999985,
                    "velocity": 0.3937007874015748,
                    "duration": 0.8498580000000118
                },
                {
                    "name": "B3",
                    "midi": 59,
                    "time": 42.70536449999999,
                    "velocity": 0.2047244094488189,
                    "duration": 0.21246450000000294
                },
                {
                    "name": "E4",
                    "midi": 64,
                    "time": 42.91782899999999,
                    "velocity": 0.2440944881889764,
                    "duration": 0.21246450000000294
                },
                {
                    "name": "B3",
                    "midi": 59,
                    "time": 43.13029349999999,
                    "velocity": 0.2047244094488189,
                    "duration": 0.21246450000000294
                },
                {
                    "name": "G#4",
                    "midi": 68,
                    "time": 43.342757999999996,
                    "velocity": 0.23622047244094488,
                    "duration": 0.21246450000000294
                },
                {
                    "name": "B4",
                    "midi": 71,
                    "time": 43.342757999999996,
                    "velocity": 0.36220472440944884,
                    "duration": 0.4249290000000059
                },
                {
                    "name": "B3",
                    "midi": 59,
                    "time": 43.5552225,
                    "velocity": 0.2125984251968504,
                    "duration": 0.21246450000000294
                },
                {
                    "name": "F#4",
                    "midi": 66,
                    "time": 43.767687,
                    "velocity": 0.2204724409448819,
                    "duration": 0.21246450000000294
                },
                {
                    "name": "A4",
                    "midi": 69,
                    "time": 43.767687,
                    "velocity": 0.33858267716535434,
                    "duration": 0.4249290000000059
                },
                {
                    "name": "B3",
                    "midi": 59,
                    "time": 43.980151500000005,
                    "velocity": 0.2125984251968504,
                    "duration": 0.21246450000000294
                },
                {
                    "name": "E4",
                    "midi": 64,
                    "time": 44.19261600000001,
                    "velocity": 0.2677165354330709,
                    "duration": 0.21246450000000294
                },
                {
                    "name": "G#4",
                    "midi": 68,
                    "time": 44.19261600000001,
                    "velocity": 0.3937007874015748,
                    "duration": 0.4249290000000059
                },
                {
                    "name": "B3",
                    "midi": 59,
                    "time": 44.40508050000001,
                    "velocity": 0.2047244094488189,
                    "duration": 0.21246450000000294
                },
                {
                    "name": "D#4",
                    "midi": 63,
                    "time": 44.617545000000014,
                    "velocity": 0.2125984251968504,
                    "duration": 0.21246450000000294
                },
                {
                    "name": "F#4",
                    "midi": 66,
                    "time": 44.617545000000014,
                    "velocity": 0.3228346456692913,
                    "duration": 0.3718128750000034
                },
                {
                    "name": "B3",
                    "midi": 59,
                    "time": 44.83000950000002,
                    "velocity": 0.1968503937007874,
                    "duration": 0.15934837500000043
                },
                {
                    "name": "D#4",
                    "midi": 63,
                    "time": 45.04247400000002,
                    "velocity": 0.2125984251968504,
                    "duration": 0.21246450000000294
                },
                {
                    "name": "F#4",
                    "midi": 66,
                    "time": 45.04247400000002,
                    "velocity": 0.3228346456692913,
                    "duration": 0.4249290000000059
                },
                {
                    "name": "B3",
                    "midi": 59,
                    "time": 45.25493850000002,
                    "velocity": 0.2047244094488189,
                    "duration": 0.21246450000000294
                },
                {
                    "name": "E4",
                    "midi": 64,
                    "time": 45.467403000000026,
                    "velocity": 0.2204724409448819,
                    "duration": 0.21246450000000294
                },
                {
                    "name": "G#4",
                    "midi": 68,
                    "time": 45.467403000000026,
                    "velocity": 0.33858267716535434,
                    "duration": 0.4249290000000059
                },
                {
                    "name": "B3",
                    "midi": 59,
                    "time": 45.67986750000003,
                    "velocity": 0.2204724409448819,
                    "duration": 0.21246450000000294
                },
                {
                    "name": "E4",
                    "midi": 64,
                    "time": 45.89233200000003,
                    "velocity": 0.23622047244094488,
                    "duration": 0.21246450000000294
                },
                {
                    "name": "A4",
                    "midi": 69,
                    "time": 45.89233200000003,
                    "velocity": 0.36220472440944884,
                    "duration": 0.4249290000000059
                },
                {
                    "name": "B3",
                    "midi": 59,
                    "time": 46.104796500000035,
                    "velocity": 0.2204724409448819,
                    "duration": 0.21246450000000294
                },
                {
                    "name": "E4",
                    "midi": 64,
                    "time": 46.31726100000004,
                    "velocity": 0.28346456692913385,
                    "duration": 0.21246450000000294
                },
                {
                    "name": "C#5",
                    "midi": 73,
                    "time": 46.31726100000004,
                    "velocity": 0.4251968503937008,
                    "duration": 0.4249290000000059
                },
                {
                    "name": "B3",
                    "midi": 59,
                    "time": 46.52972550000004,
                    "velocity": 0.2440944881889764,
                    "duration": 0.21246450000000294
                },
                {
                    "name": "F#4",
                    "midi": 66,
                    "time": 46.74219000000004,
                    "velocity": 0.29133858267716534,
                    "duration": 0.21246450000000294
                },
                {
                    "name": "B4",
                    "midi": 71,
                    "time": 46.74219000000004,
                    "velocity": 0.3700787401574803,
                    "duration": 0.4249290000000059
                },
                {
                    "name": "B3",
                    "midi": 59,
                    "time": 46.954654500000046,
                    "velocity": 0.2047244094488189,
                    "duration": 0.21246450000000294
                },
                {
                    "name": "D#4",
                    "midi": 63,
                    "time": 47.16711900000005,
                    "velocity": 0.1968503937007874,
                    "duration": 0.21246450000000294
                },
                {
                    "name": "F#4",
                    "midi": 66,
                    "time": 47.16711900000005,
                    "velocity": 0.2992125984251969,
                    "duration": 0.4249290000000059
                },
                {
                    "name": "B3",
                    "midi": 59,
                    "time": 47.37958350000005,
                    "velocity": 0.2125984251968504,
                    "duration": 0.21246450000000294
                },
                {
                    "name": "B3",
                    "midi": 59,
                    "time": 47.592048000000055,
                    "velocity": 0.2755905511811024,
                    "duration": 0.4249289999999988
                },
                {
                    "name": "E4",
                    "midi": 64,
                    "time": 47.592048000000055,
                    "velocity": 0.2755905511811024,
                    "duration": 0.4249289999999988
                },
                {
                    "name": "G#4",
                    "midi": 68,
                    "time": 47.592048000000055,
                    "velocity": 0.33070866141732286,
                    "duration": 0.4249289999999988
                },
                {
                    "name": "F#5",
                    "midi": 78,
                    "time": 48.38878987500006,
                    "velocity": 0.3779527559055118,
                    "duration": 0.05311612500000251
                },
                {
                    "name": "E5",
                    "midi": 76,
                    "time": 48.44190600000006,
                    "velocity": 0.4251968503937008,
                    "duration": 0.21246450000000294
                },
                {
                    "name": "D#5",
                    "midi": 75,
                    "time": 48.65437050000006,
                    "velocity": 0.3779527559055118,
                    "duration": 0.21246450000000294
                },
                {
                    "name": "E5",
                    "midi": 76,
                    "time": 48.866835000000066,
                    "velocity": 0.4409448818897638,
                    "duration": 0.21246450000000294
                },
                {
                    "name": "F#5",
                    "midi": 78,
                    "time": 49.07929950000007,
                    "velocity": 0.3937007874015748,
                    "duration": 0.15934837500000043
                },
                {
                    "name": "A5",
                    "midi": 81,
                    "time": 49.23864787500007,
                    "velocity": 0.3937007874015748,
                    "duration": 0.05311612500000251
                },
                {
                    "name": "G#5",
                    "midi": 80,
                    "time": 49.29176400000007,
                    "velocity": 0.47244094488188976,
                    "duration": 0.21246450000000294
                },
                {
                    "name": "F#5",
                    "midi": 78,
                    "time": 49.504228500000075,
                    "velocity": 0.4330708661417323,
                    "duration": 0.21246450000000294
                },
                {
                    "name": "G#5",
                    "midi": 80,
                    "time": 49.71669300000008,
                    "velocity": 0.3858267716535433,
                    "duration": 0.21246450000000294
                },
                {
                    "name": "A5",
                    "midi": 81,
                    "time": 49.92915750000008,
                    "velocity": 0.4330708661417323,
                    "duration": 0.21246450000000294
                },
                {
                    "name": "B4",
                    "midi": 71,
                    "time": 50.14162200000008,
                    "velocity": 0.4251968503937008,
                    "duration": 0.4249289999999988
                },
                {
                    "name": "B5",
                    "midi": 83,
                    "time": 50.14162200000008,
                    "velocity": 0.49606299212598426,
                    "duration": 0.4249289999999988
                },
                {
                    "name": "A5",
                    "midi": 81,
                    "time": 50.56655100000008,
                    "velocity": 0.5039370078740157,
                    "duration": 0.4249289999999988
                },
                {
                    "name": "A4",
                    "midi": 69,
                    "time": 50.56655100000008,
                    "velocity": 0.4251968503937008,
                    "duration": 0.4249289999999988
                },
                {
                    "name": "G#5",
                    "midi": 80,
                    "time": 50.99148000000008,
                    "velocity": 0.5511811023622047,
                    "duration": 0.4249289999999988
                },
                {
                    "name": "G#4",
                    "midi": 68,
                    "time": 50.99148000000008,
                    "velocity": 0.4645669291338583,
                    "duration": 0.4249289999999988
                },
                {
                    "name": "F#4",
                    "midi": 66,
                    "time": 51.41640900000008,
                    "velocity": 0.4409448818897638,
                    "duration": 0.4036825499999992
                },
                {
                    "name": "F#5",
                    "midi": 78,
                    "time": 51.41640900000008,
                    "velocity": 0.5275590551181102,
                    "duration": 0.4036825499999992
                },
                {
                    "name": "F#4",
                    "midi": 66,
                    "time": 51.84133800000008,
                    "velocity": 0.49606299212598426,
                    "duration": 0.4249289999999988
                },
                {
                    "name": "F#5",
                    "midi": 78,
                    "time": 51.84133800000008,
                    "velocity": 0.5905511811023622,
                    "duration": 0.4249289999999988
                },
                {
                    "name": "G#5",
                    "midi": 80,
                    "time": 52.26626700000008,
                    "velocity": 0.5354330708661418,
                    "duration": 0.4249289999999988
                },
                {
                    "name": "G#4",
                    "midi": 68,
                    "time": 52.26626700000008,
                    "velocity": 0.44881889763779526,
                    "duration": 0.4249289999999988
                },
                {
                    "name": "A4",
                    "midi": 69,
                    "time": 52.691196000000076,
                    "velocity": 0.5039370078740157,
                    "duration": 0.4249289999999988
                },
                {
                    "name": "A5",
                    "midi": 81,
                    "time": 52.691196000000076,
                    "velocity": 0.5984251968503937,
                    "duration": 0.4249289999999988
                },
                {
                    "name": "C#6",
                    "midi": 85,
                    "time": 53.116125000000075,
                    "velocity": 0.5433070866141733,
                    "duration": 0.4249289999999988
                },
                {
                    "name": "C#5",
                    "midi": 73,
                    "time": 53.116125000000075,
                    "velocity": 0.4566929133858268,
                    "duration": 0.4249289999999988
                },
                {
                    "name": "B5",
                    "midi": 83,
                    "time": 53.541054000000074,
                    "velocity": 0.6299212598425197,
                    "duration": 0.4249289999999988
                },
                {
                    "name": "B4",
                    "midi": 71,
                    "time": 53.541054000000074,
                    "velocity": 0.5275590551181102,
                    "duration": 0.4249289999999988
                },
                {
                    "name": "D#5",
                    "midi": 75,
                    "time": 53.96598300000007,
                    "velocity": 0.5511811023622047,
                    "duration": 0.31869675000000086
                },
                {
                    "name": "A5",
                    "midi": 81,
                    "time": 53.96598300000007,
                    "velocity": 0.5511811023622047,
                    "duration": 0.31869675000000086
                },
                {
                    "name": "D#6",
                    "midi": 87,
                    "time": 53.96598300000007,
                    "velocity": 0.6535433070866141,
                    "duration": 0.31869675000000086
                },
                {
                    "name": "E5",
                    "midi": 76,
                    "time": 54.39091200000007,
                    "velocity": 0.5748031496062992,
                    "duration": 0.8498579999999976
                },
                {
                    "name": "G#5",
                    "midi": 80,
                    "time": 54.39091200000007,
                    "velocity": 0.5748031496062992,
                    "duration": 0.8498579999999976
                },
                {
                    "name": "E6",
                    "midi": 88,
                    "time": 54.39091200000007,
                    "velocity": 0.6929133858267716,
                    "duration": 0.8498579999999976
                },
                {
                    "name": "E4",
                    "midi": 64,
                    "time": 55.66569900000007,
                    "velocity": 0.5748031496062992,
                    "duration": 0.21246450000000294
                },
                {
                    "name": "G#4",
                    "midi": 68,
                    "time": 55.66569900000007,
                    "velocity": 0.6850393700787402,
                    "duration": 0.21246450000000294
                },
                {
                    "name": "E4",
                    "midi": 64,
                    "time": 56.09062800000007,
                    "velocity": 0.6377952755905512,
                    "duration": 1.2747869999999963
                },
                {
                    "name": "G#4",
                    "midi": 68,
                    "time": 56.09062800000007,
                    "velocity": 0.7559055118110236,
                    "duration": 1.2747869999999963
                },
                {
                    "name": "E5",
                    "midi": 76,
                    "time": 57.36541500000007,
                    "velocity": 0.2677165354330709,
                    "duration": 0.21246450000000294
                },
                {
                    "name": "G#4",
                    "midi": 68,
                    "time": 57.36541500000007,
                    "velocity": 0.2204724409448819,
                    "duration": 0.21246450000000294
                },
                {
                    "name": "E4",
                    "midi": 64,
                    "time": 57.36541500000007,
                    "velocity": 0.2204724409448819,
                    "duration": 0.21246450000000294
                },
                {
                    "name": "D#5",
                    "midi": 75,
                    "time": 57.790344000000076,
                    "velocity": 0.30708661417322836,
                    "duration": 1.2747870000000034
                },
                {
                    "name": "G#4",
                    "midi": 68,
                    "time": 57.790344000000076,
                    "velocity": 0.25984251968503935,
                    "duration": 1.2747870000000034
                },
                {
                    "name": "F#4",
                    "midi": 66,
                    "time": 57.790344000000076,
                    "velocity": 0.25984251968503935,
                    "duration": 1.2747870000000034
                },
                {
                    "name": "D#4",
                    "midi": 63,
                    "time": 57.790344000000076,
                    "velocity": 0.25984251968503935,
                    "duration": 1.2747870000000034
                },
                {
                    "name": "D#4",
                    "midi": 63,
                    "time": 59.06513100000008,
                    "velocity": 0.5748031496062992,
                    "duration": 0.21246450000000294
                },
                {
                    "name": "F#4",
                    "midi": 66,
                    "time": 59.06513100000008,
                    "velocity": 0.5748031496062992,
                    "duration": 0.21246450000000294
                },
                {
                    "name": "G#4",
                    "midi": 68,
                    "time": 59.06513100000008,
                    "velocity": 0.6850393700787402,
                    "duration": 0.21246450000000294
                },
                {
                    "name": "F#4",
                    "midi": 66,
                    "time": 59.490060000000085,
                    "velocity": 0.6377952755905512,
                    "duration": 1.2747870000000034
                },
                {
                    "name": "D#4",
                    "midi": 63,
                    "time": 59.490060000000085,
                    "velocity": 0.6377952755905512,
                    "duration": 1.2747870000000034
                },
                {
                    "name": "G#4",
                    "midi": 68,
                    "time": 59.490060000000085,
                    "velocity": 0.7559055118110236,
                    "duration": 1.2747870000000034
                },
                {
                    "name": "D#4",
                    "midi": 63,
                    "time": 60.76484700000009,
                    "velocity": 0.2204724409448819,
                    "duration": 0.21246450000000294
                },
                {
                    "name": "D#5",
                    "midi": 75,
                    "time": 60.76484700000009,
                    "velocity": 0.2677165354330709,
                    "duration": 0.21246450000000294
                },
                {
                    "name": "G#4",
                    "midi": 68,
                    "time": 60.76484700000009,
                    "velocity": 0.2204724409448819,
                    "duration": 0.21246450000000294
                },
                {
                    "name": "F#4",
                    "midi": 66,
                    "time": 60.76484700000009,
                    "velocity": 0.2204724409448819,
                    "duration": 0.21246450000000294
                },
                {
                    "name": "E5",
                    "midi": 76,
                    "time": 61.189776000000094,
                    "velocity": 0.30708661417322836,
                    "duration": 1.2747870000000034
                },
                {
                    "name": "G#4",
                    "midi": 68,
                    "time": 61.189776000000094,
                    "velocity": 0.25984251968503935,
                    "duration": 1.2747870000000034
                },
                {
                    "name": "E4",
                    "midi": 64,
                    "time": 61.189776000000094,
                    "velocity": 0.25984251968503935,
                    "duration": 1.2747870000000034
                },
                {
                    "name": "E4",
                    "midi": 64,
                    "time": 62.4645630000001,
                    "velocity": 0.5748031496062992,
                    "duration": 0.21246450000000294
                },
                {
                    "name": "G#4",
                    "midi": 68,
                    "time": 62.4645630000001,
                    "velocity": 0.6850393700787402,
                    "duration": 0.21246450000000294
                },
                {
                    "name": "E4",
                    "midi": 64,
                    "time": 62.889492000000104,
                    "velocity": 0.6377952755905512,
                    "duration": 1.2747870000000034
                },
                {
                    "name": "G#4",
                    "midi": 68,
                    "time": 62.889492000000104,
                    "velocity": 0.7559055118110236,
                    "duration": 1.2747870000000034
                },
                {
                    "name": "E5",
                    "midi": 76,
                    "time": 64.1642790000001,
                    "velocity": 0.2677165354330709,
                    "duration": 0.21246449999999584
                },
                {
                    "name": "G#4",
                    "midi": 68,
                    "time": 64.1642790000001,
                    "velocity": 0.2204724409448819,
                    "duration": 0.21246449999999584
                },
                {
                    "name": "E4",
                    "midi": 64,
                    "time": 64.1642790000001,
                    "velocity": 0.2204724409448819,
                    "duration": 0.21246449999999584
                },
                {
                    "name": "E5",
                    "midi": 76,
                    "time": 64.5892080000001,
                    "velocity": 0.30708661417322836,
                    "duration": 1.2747870000000034
                },
                {
                    "name": "F#4",
                    "midi": 66,
                    "time": 64.5892080000001,
                    "velocity": 0.25984251968503935,
                    "duration": 1.2747870000000034
                },
                {
                    "name": "E4",
                    "midi": 64,
                    "time": 64.5892080000001,
                    "velocity": 0.25984251968503935,
                    "duration": 1.2747870000000034
                },
                {
                    "name": "C#4",
                    "midi": 61,
                    "time": 65.8639950000001,
                    "velocity": 0.5748031496062992,
                    "duration": 0.21246449999999584
                },
                {
                    "name": "E4",
                    "midi": 64,
                    "time": 65.8639950000001,
                    "velocity": 0.6850393700787402,
                    "duration": 0.21246449999999584
                },
                {
                    "name": "B3",
                    "midi": 59,
                    "time": 66.2889240000001,
                    "velocity": 0.6377952755905512,
                    "duration": 1.2747870000000034
                },
                {
                    "name": "E4",
                    "midi": 64,
                    "time": 66.2889240000001,
                    "velocity": 0.7559055118110236,
                    "duration": 1.2747870000000034
                },
                {
                    "name": "E4",
                    "midi": 64,
                    "time": 67.5637110000001,
                    "velocity": 0.5511811023622047,
                    "duration": 0.21246449999999584
                },
                {
                    "name": "E5",
                    "midi": 76,
                    "time": 67.5637110000001,
                    "velocity": 0.6692913385826772,
                    "duration": 0.21246449999999584
                },
                {
                    "name": "B4",
                    "midi": 71,
                    "time": 67.5637110000001,
                    "velocity": 0.5511811023622047,
                    "duration": 0.21246449999999584
                },
                {
                    "name": "E4",
                    "midi": 64,
                    "time": 67.98864000000009,
                    "velocity": 0.5196850393700787,
                    "duration": 1.2747870000000034
                },
                {
                    "name": "E5",
                    "midi": 76,
                    "time": 67.98864000000009,
                    "velocity": 0.6141732283464567,
                    "duration": 1.2747870000000034
                },
                {
                    "name": "C#5",
                    "midi": 73,
                    "time": 67.98864000000009,
                    "velocity": 0.5196850393700787,
                    "duration": 1.2747870000000034
                },
                {
                    "name": "A#4",
                    "midi": 70,
                    "time": 67.98864000000009,
                    "velocity": 0.5196850393700787,
                    "duration": 1.2747870000000034
                },
                {
                    "name": "E5",
                    "midi": 76,
                    "time": 69.6883560000001,
                    "velocity": 0.41732283464566927,
                    "duration": 1.2747870000000034
                },
                {
                    "name": "C#6",
                    "midi": 85,
                    "time": 69.6883560000001,
                    "velocity": 0.41732283464566927,
                    "duration": 1.2747870000000034
                },
                {
                    "name": "D#5",
                    "midi": 75,
                    "time": 70.9631430000001,
                    "velocity": 0.44881889763779526,
                    "duration": 0.3824361000000067
                },
                {
                    "name": "B5",
                    "midi": 83,
                    "time": 70.9631430000001,
                    "velocity": 0.44881889763779526,
                    "duration": 0.3824361000000067
                },
                {
                    "name": "B5",
                    "midi": 83,
                    "time": 71.38807200000011,
                    "velocity": 0.4881889763779528,
                    "duration": 0.4249290000000059
                },
                {
                    "name": "D#5",
                    "midi": 75,
                    "time": 71.38807200000011,
                    "velocity": 0.4881889763779528,
                    "duration": 0.4249290000000059
                },
                {
                    "name": "C#5",
                    "midi": 73,
                    "time": 71.81300100000011,
                    "velocity": 0.3779527559055118,
                    "duration": 0.3824361000000067
                },
                {
                    "name": "A#5",
                    "midi": 82,
                    "time": 71.81300100000011,
                    "velocity": 0.3779527559055118,
                    "duration": 0.3824361000000067
                },
                {
                    "name": "A#5",
                    "midi": 82,
                    "time": 72.23793000000012,
                    "velocity": 0.3700787401574803,
                    "duration": 0.4249290000000059
                },
                {
                    "name": "C#5",
                    "midi": 73,
                    "time": 72.23793000000012,
                    "velocity": 0.3700787401574803,
                    "duration": 0.4249290000000059
                },
                {
                    "name": "D#5",
                    "midi": 75,
                    "time": 72.66285900000013,
                    "velocity": 0.30708661417322836,
                    "duration": 0.4249290000000059
                },
                {
                    "name": "B5",
                    "midi": 83,
                    "time": 72.66285900000013,
                    "velocity": 0.30708661417322836,
                    "duration": 0.4249290000000059
                },
                {
                    "name": "E5",
                    "midi": 76,
                    "time": 73.08778800000013,
                    "velocity": 0.41732283464566927,
                    "duration": 1.2747870000000034
                },
                {
                    "name": "C#6",
                    "midi": 85,
                    "time": 73.08778800000013,
                    "velocity": 0.41732283464566927,
                    "duration": 1.2747870000000034
                },
                {
                    "name": "D#5",
                    "midi": 75,
                    "time": 74.36257500000013,
                    "velocity": 0.44881889763779526,
                    "duration": 0.3824361000000067
                },
                {
                    "name": "B5",
                    "midi": 83,
                    "time": 74.36257500000013,
                    "velocity": 0.44881889763779526,
                    "duration": 0.3824361000000067
                },
                {
                    "name": "A#5",
                    "midi": 82,
                    "time": 74.78750400000014,
                    "velocity": 0.4881889763779528,
                    "duration": 0.4249290000000059
                },
                {
                    "name": "C#5",
                    "midi": 73,
                    "time": 74.78750400000014,
                    "velocity": 0.4881889763779528,
                    "duration": 0.4249290000000059
                },
                {
                    "name": "C#6",
                    "midi": 85,
                    "time": 75.21243300000015,
                    "velocity": 0.3779527559055118,
                    "duration": 0.4249290000000059
                },
                {
                    "name": "E5",
                    "midi": 76,
                    "time": 75.21243300000015,
                    "velocity": 0.3779527559055118,
                    "duration": 0.4249290000000059
                },
                {
                    "name": "B5",
                    "midi": 83,
                    "time": 75.63736200000015,
                    "velocity": 0.3700787401574803,
                    "duration": 0.4249290000000059
                },
                {
                    "name": "D#5",
                    "midi": 75,
                    "time": 75.63736200000015,
                    "velocity": 0.3700787401574803,
                    "duration": 0.4249290000000059
                },
                {
                    "name": "C#5",
                    "midi": 73,
                    "time": 76.06229100000016,
                    "velocity": 0.30708661417322836,
                    "duration": 0.4249290000000059
                },
                {
                    "name": "A#5",
                    "midi": 82,
                    "time": 76.06229100000016,
                    "velocity": 0.30708661417322836,
                    "duration": 0.4249290000000059
                },
                {
                    "name": "B5",
                    "midi": 83,
                    "time": 76.48722000000016,
                    "velocity": 0.30708661417322836,
                    "duration": 0.4249290000000059
                },
                {
                    "name": "F#5",
                    "midi": 78,
                    "time": 76.48722000000016,
                    "velocity": 0.30708661417322836,
                    "duration": 0.4249290000000059
                },
                {
                    "name": "A#5",
                    "midi": 82,
                    "time": 76.91214900000017,
                    "velocity": 0.2677165354330709,
                    "duration": 0.4249290000000059
                },
                {
                    "name": "G#5",
                    "midi": 80,
                    "time": 77.33707800000018,
                    "velocity": 0.30708661417322836,
                    "duration": 0.4249290000000059
                },
                {
                    "name": "F#5",
                    "midi": 78,
                    "time": 77.76200700000018,
                    "velocity": 0.2755905511811024,
                    "duration": 0.4249290000000059
                },
                {
                    "name": "G#5",
                    "midi": 80,
                    "time": 78.18693600000019,
                    "velocity": 0.30708661417322836,
                    "duration": 0.4249290000000059
                },
                {
                    "name": "F#5",
                    "midi": 78,
                    "time": 78.6118650000002,
                    "velocity": 0.29133858267716534,
                    "duration": 0.4249290000000059
                },
                {
                    "name": "E5",
                    "midi": 76,
                    "time": 79.0367940000002,
                    "velocity": 0.30708661417322836,
                    "duration": 0.4249290000000059
                },
                {
                    "name": "D#5",
                    "midi": 75,
                    "time": 79.4617230000002,
                    "velocity": 0.2677165354330709,
                    "duration": 0.4072236250000003
                },
                {
                    "name": "D#5",
                    "midi": 75,
                    "time": 79.88665200000021,
                    "velocity": 0.30708661417322836,
                    "duration": 1.2747870000000034
                },
                {
                    "name": "E5",
                    "midi": 76,
                    "time": 81.16143900000021,
                    "velocity": 0.2992125984251969,
                    "duration": 0.21246449999999584
                },
                {
                    "name": "F#5",
                    "midi": 78,
                    "time": 81.37390350000021,
                    "velocity": 0.25984251968503935,
                    "duration": 0.21246449999999584
                },
                {
                    "name": "C#5",
                    "midi": 73,
                    "time": 81.5863680000002,
                    "velocity": 0.30708661417322836,
                    "duration": 0.4249290000000059
                },
                {
                    "name": "F#5",
                    "midi": 78,
                    "time": 82.01129700000021,
                    "velocity": 0.30708661417322836,
                    "duration": 0.21246449999999584
                },
                {
                    "name": "G#5",
                    "midi": 80,
                    "time": 82.22376150000021,
                    "velocity": 0.2677165354330709,
                    "duration": 0.21246449999999584
                },
                {
                    "name": "F#5",
                    "midi": 78,
                    "time": 82.4362260000002,
                    "velocity": 0.30708661417322836,
                    "duration": 0.21246449999999584
                },
                {
                    "name": "G#5",
                    "midi": 80,
                    "time": 82.6486905000002,
                    "velocity": 0.2755905511811024,
                    "duration": 0.21246449999999584
                },
                {
                    "name": "F#5",
                    "midi": 78,
                    "time": 82.8611550000002,
                    "velocity": 0.30708661417322836,
                    "duration": 0.21246449999999584
                },
                {
                    "name": "G#5",
                    "midi": 80,
                    "time": 83.07361950000019,
                    "velocity": 0.2755905511811024,
                    "duration": 0.21246449999999584
                },
                {
                    "name": "C#6",
                    "midi": 85,
                    "time": 83.28608400000019,
                    "velocity": 0.41732283464566927,
                    "duration": 1.274786999999975
                },
                {
                    "name": "E6",
                    "midi": 88,
                    "time": 83.28608400000019,
                    "velocity": 0.41732283464566927,
                    "duration": 1.274786999999975
                },
                {
                    "name": "F#5",
                    "midi": 78,
                    "time": 83.28608400000019,
                    "velocity": 0.30708661417322836,
                    "duration": 0.21246449999999584
                },
                {
                    "name": "G#5",
                    "midi": 80,
                    "time": 83.49854850000018,
                    "velocity": 0.2755905511811024,
                    "duration": 0.21246449999999584
                },
                {
                    "name": "F#5",
                    "midi": 78,
                    "time": 83.71101300000018,
                    "velocity": 0.30708661417322836,
                    "duration": 0.21246449999999584
                },
                {
                    "name": "G#5",
                    "midi": 80,
                    "time": 83.92347750000017,
                    "velocity": 0.2755905511811024,
                    "duration": 0.21246449999999584
                },
                {
                    "name": "F#5",
                    "midi": 78,
                    "time": 84.13594200000017,
                    "velocity": 0.30708661417322836,
                    "duration": 0.21246449999999584
                },
                {
                    "name": "G#5",
                    "midi": 80,
                    "time": 84.34840650000017,
                    "velocity": 0.29133858267716534,
                    "duration": 0.21246449999999584
                },
                {
                    "name": "D#6",
                    "midi": 87,
                    "time": 84.56087100000016,
                    "velocity": 0.44881889763779526,
                    "duration": 0.3824360999999925
                },
                {
                    "name": "B5",
                    "midi": 83,
                    "time": 84.56087100000016,
                    "velocity": 0.44881889763779526,
                    "duration": 0.3824360999999925
                },
                {
                    "name": "F#5",
                    "midi": 78,
                    "time": 84.56087100000016,
                    "velocity": 0.33858267716535434,
                    "duration": 0.21246449999999584
                },
                {
                    "name": "G#5",
                    "midi": 80,
                    "time": 84.77333550000016,
                    "velocity": 0.3228346456692913,
                    "duration": 0.21246449999999584
                },
                {
                    "name": "D#6",
                    "midi": 87,
                    "time": 84.98580000000015,
                    "velocity": 0.4881889763779528,
                    "duration": 0.4249289999999917
                },
                {
                    "name": "B5",
                    "midi": 83,
                    "time": 84.98580000000015,
                    "velocity": 0.4881889763779528,
                    "duration": 0.4249289999999917
                },
                {
                    "name": "F#5",
                    "midi": 78,
                    "time": 84.98580000000015,
                    "velocity": 0.3779527559055118,
                    "duration": 0.21246449999999584
                },
                {
                    "name": "G#5",
                    "midi": 80,
                    "time": 85.19826450000015,
                    "velocity": 0.33070866141732286,
                    "duration": 0.21246449999999584
                },
                {
                    "name": "A#5",
                    "midi": 82,
                    "time": 85.41072900000015,
                    "velocity": 0.3779527559055118,
                    "duration": 0.3824360999999925
                },
                {
                    "name": "C#6",
                    "midi": 85,
                    "time": 85.41072900000015,
                    "velocity": 0.3779527559055118,
                    "duration": 0.3824360999999925
                },
                {
                    "name": "F#5",
                    "midi": 78,
                    "time": 85.41072900000015,
                    "velocity": 0.36220472440944884,
                    "duration": 0.21246449999999584
                },
                {
                    "name": "G#5",
                    "midi": 80,
                    "time": 85.62319350000014,
                    "velocity": 0.31496062992125984,
                    "duration": 0.21246449999999584
                },
                {
                    "name": "C#6",
                    "midi": 85,
                    "time": 85.83565800000014,
                    "velocity": 0.3700787401574803,
                    "duration": 0.4249289999999917
                },
                {
                    "name": "F#5",
                    "midi": 78,
                    "time": 85.83565800000014,
                    "velocity": 0.3464566929133858,
                    "duration": 0.21246449999999584
                },
                {
                    "name": "A#5",
                    "midi": 82,
                    "time": 85.83565800000014,
                    "velocity": 0.3700787401574803,
                    "duration": 0.4249289999999917
                },
                {
                    "name": "G#5",
                    "midi": 80,
                    "time": 86.04812250000013,
                    "velocity": 0.2992125984251969,
                    "duration": 0.21246449999999584
                },
                {
                    "name": "D#6",
                    "midi": 87,
                    "time": 86.26058700000013,
                    "velocity": 0.30708661417322836,
                    "duration": 0.4249289999999917
                },
                {
                    "name": "B5",
                    "midi": 83,
                    "time": 86.26058700000013,
                    "velocity": 0.30708661417322836,
                    "duration": 0.4249289999999917
                },
                {
                    "name": "F#5",
                    "midi": 78,
                    "time": 86.26058700000013,
                    "velocity": 0.3228346456692913,
                    "duration": 0.21246449999999584
                },
                {
                    "name": "G#5",
                    "midi": 80,
                    "time": 86.47305150000012,
                    "velocity": 0.28346456692913385,
                    "duration": 0.21246449999999584
                },
                {
                    "name": "E6",
                    "midi": 88,
                    "time": 86.68551600000012,
                    "velocity": 0.41732283464566927,
                    "duration": 1.274786999999975
                },
                {
                    "name": "C#6",
                    "midi": 85,
                    "time": 86.68551600000012,
                    "velocity": 0.41732283464566927,
                    "duration": 1.274786999999975
                },
                {
                    "name": "F#5",
                    "midi": 78,
                    "time": 86.68551600000012,
                    "velocity": 0.30708661417322836,
                    "duration": 0.21246449999999584
                },
                {
                    "name": "G#5",
                    "midi": 80,
                    "time": 86.89798050000012,
                    "velocity": 0.28346456692913385,
                    "duration": 0.21246449999999584
                },
                {
                    "name": "F#5",
                    "midi": 78,
                    "time": 87.11044500000011,
                    "velocity": 0.3228346456692913,
                    "duration": 0.21246449999999584
                },
                {
                    "name": "G#5",
                    "midi": 80,
                    "time": 87.32290950000011,
                    "velocity": 0.2992125984251969,
                    "duration": 0.21246449999999584
                },
                {
                    "name": "F#5",
                    "midi": 78,
                    "time": 87.5353740000001,
                    "velocity": 0.33858267716535434,
                    "duration": 0.21246449999999584
                },
                {
                    "name": "G#5",
                    "midi": 80,
                    "time": 87.7478385000001,
                    "velocity": 0.31496062992125984,
                    "duration": 0.21246449999999584
                },
                {
                    "name": "F#5",
                    "midi": 78,
                    "time": 87.9603030000001,
                    "velocity": 0.36220472440944884,
                    "duration": 0.21246449999999584
                },
                {
                    "name": "D#6",
                    "midi": 87,
                    "time": 87.9603030000001,
                    "velocity": 0.44881889763779526,
                    "duration": 0.3824360999999925
                },
                {
                    "name": "B5",
                    "midi": 83,
                    "time": 87.9603030000001,
                    "velocity": 0.44881889763779526,
                    "duration": 0.3824360999999925
                },
                {
                    "name": "G#5",
                    "midi": 80,
                    "time": 88.17276750000009,
                    "velocity": 0.33070866141732286,
                    "duration": 0.21246449999999584
                },
                {
                    "name": "C#6",
                    "midi": 85,
                    "time": 88.38523200000009,
                    "velocity": 0.4881889763779528,
                    "duration": 0.4249289999999917
                },
                {
                    "name": "A#5",
                    "midi": 82,
                    "time": 88.38523200000009,
                    "velocity": 0.4881889763779528,
                    "duration": 0.21246449999999584
                },
                {
                    "name": "F#5",
                    "midi": 78,
                    "time": 88.59769650000008,
                    "velocity": 0.28346456692913385,
                    "duration": 0.21246449999999584
                },
                {
                    "name": "G#6",
                    "midi": 92,
                    "time": 88.81016100000008,
                    "velocity": 0.3779527559055118,
                    "duration": 0.4249289999999917
                },
                {
                    "name": "E6",
                    "midi": 88,
                    "time": 88.81016100000008,
                    "velocity": 0.3779527559055118,
                    "duration": 0.21246449999999584
                },
                {
                    "name": "F#5",
                    "midi": 78,
                    "time": 89.02262550000007,
                    "velocity": 0.28346456692913385,
                    "duration": 0.21246449999999584
                },
                {
                    "name": "F#6",
                    "midi": 90,
                    "time": 89.23509000000007,
                    "velocity": 0.3700787401574803,
                    "duration": 0.4249289999999917
                },
                {
                    "name": "D#6",
                    "midi": 87,
                    "time": 89.23509000000007,
                    "velocity": 0.3700787401574803,
                    "duration": 0.21246449999999584
                },
                {
                    "name": "F#5",
                    "midi": 78,
                    "time": 89.44755450000007,
                    "velocity": 0.28346456692913385,
                    "duration": 0.21246449999999584
                },
                {
                    "name": "C#6",
                    "midi": 85,
                    "time": 89.66001900000006,
                    "velocity": 0.30708661417322836,
                    "duration": 0.21246449999999584
                },
                {
                    "name": "E6",
                    "midi": 88,
                    "time": 89.66001900000006,
                    "velocity": 0.30708661417322836,
                    "duration": 0.4249289999999917
                },
                {
                    "name": "F#5",
                    "midi": 78,
                    "time": 89.87248350000006,
                    "velocity": 0.28346456692913385,
                    "duration": 0.21246449999999584
                },
                {
                    "name": "D#6",
                    "midi": 87,
                    "time": 90.08494800000005,
                    "velocity": 0.4881889763779528,
                    "duration": 0.4249289999999917
                },
                {
                    "name": "B5",
                    "midi": 83,
                    "time": 90.08494800000005,
                    "velocity": 0.4881889763779528,
                    "duration": 0.21246449999999584
                },
                {
                    "name": "F#5",
                    "midi": 78,
                    "time": 90.29741250000005,
                    "velocity": 0.2755905511811024,
                    "duration": 0.21246449999999584
                },
                {
                    "name": "F#6",
                    "midi": 90,
                    "time": 90.50987700000005,
                    "velocity": 0.3700787401574803,
                    "duration": 0.4249289999999917
                },
                {
                    "name": "D#6",
                    "midi": 87,
                    "time": 90.50987700000005,
                    "velocity": 0.3700787401574803,
                    "duration": 0.21246449999999584
                },
                {
                    "name": "F#5",
                    "midi": 78,
                    "time": 90.72234150000004,
                    "velocity": 0.2677165354330709,
                    "duration": 0.21246449999999584
                },
                {
                    "name": "E6",
                    "midi": 88,
                    "time": 90.93480600000004,
                    "velocity": 0.3543307086614173,
                    "duration": 0.4249289999999917
                },
                {
                    "name": "C#6",
                    "midi": 85,
                    "time": 90.93480600000004,
                    "velocity": 0.3543307086614173,
                    "duration": 0.21246449999999584
                },
                {
                    "name": "F#5",
                    "midi": 78,
                    "time": 91.14727050000003,
                    "velocity": 0.2677165354330709,
                    "duration": 0.21246449999999584
                },
                {
                    "name": "B5",
                    "midi": 83,
                    "time": 91.35973500000003,
                    "velocity": 0.28346456692913385,
                    "duration": 0.21246449999999584
                },
                {
                    "name": "D#6",
                    "midi": 87,
                    "time": 91.35973500000003,
                    "velocity": 0.28346456692913385,
                    "duration": 0.4249289999999917
                },
                {
                    "name": "F#5",
                    "midi": 78,
                    "time": 91.57219950000002,
                    "velocity": 0.25984251968503935,
                    "duration": 0.21246449999999584
                },
                {
                    "name": "C#6",
                    "midi": 85,
                    "time": 91.78466400000002,
                    "velocity": 0.44881889763779526,
                    "duration": 0.4249289999999917
                },
                {
                    "name": "A#5",
                    "midi": 82,
                    "time": 91.78466400000002,
                    "velocity": 0.44881889763779526,
                    "duration": 0.21246449999999584
                },
                {
                    "name": "F#5",
                    "midi": 78,
                    "time": 91.99712850000002,
                    "velocity": 0.25196850393700787,
                    "duration": 0.21246449999999584
                },
                {
                    "name": "E6",
                    "midi": 88,
                    "time": 92.20959300000001,
                    "velocity": 0.33858267716535434,
                    "duration": 0.4249289999999917
                },
                {
                    "name": "C#6",
                    "midi": 85,
                    "time": 92.20959300000001,
                    "velocity": 0.33858267716535434,
                    "duration": 0.21246449999999584
                },
                {
                    "name": "F#5",
                    "midi": 78,
                    "time": 92.42205750000001,
                    "velocity": 0.25196850393700787,
                    "duration": 0.21246449999999584
                },
                {
                    "name": "D#6",
                    "midi": 87,
                    "time": 92.634522,
                    "velocity": 0.3228346456692913,
                    "duration": 0.4249289999999917
                },
                {
                    "name": "B5",
                    "midi": 83,
                    "time": 92.634522,
                    "velocity": 0.3228346456692913,
                    "duration": 0.21246449999999584
                },
                {
                    "name": "F#5",
                    "midi": 78,
                    "time": 92.8469865,
                    "velocity": 0.2440944881889764,
                    "duration": 0.21246449999999584
                },
                {
                    "name": "A#5",
                    "midi": 82,
                    "time": 93.059451,
                    "velocity": 0.25984251968503935,
                    "duration": 0.21246449999999584
                },
                {
                    "name": "C#6",
                    "midi": 85,
                    "time": 93.059451,
                    "velocity": 0.25984251968503935,
                    "duration": 0.4249289999999917
                },
                {
                    "name": "F#5",
                    "midi": 78,
                    "time": 93.27191549999999,
                    "velocity": 0.23622047244094488,
                    "duration": 0.21246449999999584
                },
                {
                    "name": "B5",
                    "midi": 83,
                    "time": 93.48437999999999,
                    "velocity": 0.4094488188976378,
                    "duration": 0.4249289999999917
                },
                {
                    "name": "F#5",
                    "midi": 78,
                    "time": 93.69684449999998,
                    "velocity": 0.2283464566929134,
                    "duration": 0.21246449999999584
                },
                {
                    "name": "A5",
                    "midi": 81,
                    "time": 93.90930899999998,
                    "velocity": 0.30708661417322836,
                    "duration": 0.4249289999999917
                },
                {
                    "name": "C5",
                    "midi": 72,
                    "time": 94.12177349999997,
                    "velocity": 0.2283464566929134,
                    "duration": 0.21246449999999584
                },
                {
                    "name": "G#5",
                    "midi": 80,
                    "time": 94.33423799999997,
                    "velocity": 0.29133858267716534,
                    "duration": 0.4249289999999917
                },
                {
                    "name": "C5",
                    "midi": 72,
                    "time": 94.54670249999997,
                    "velocity": 0.2204724409448819,
                    "duration": 0.21246449999999584
                },
                {
                    "name": "G#5",
                    "midi": 80,
                    "time": 94.75916699999996,
                    "velocity": 0.23622047244094488,
                    "duration": 0.4249289999999917
                },
                {
                    "name": "C5",
                    "midi": 72,
                    "time": 94.97163149999996,
                    "velocity": 0.2125984251968504,
                    "duration": 0.21246449999999584
                },
                {
                    "name": "G#5",
                    "midi": 80,
                    "time": 95.18409599999995,
                    "velocity": 0.30708661417322836,
                    "duration": 0.21246449999999584
                },
                {
                    "name": "C5",
                    "midi": 72,
                    "time": 95.18409599999995,
                    "velocity": 0.30708661417322836,
                    "duration": 0.21246449999999584
                },
                {
                    "name": "G#4",
                    "midi": 68,
                    "time": 95.39656049999995,
                    "velocity": 0.25984251968503935,
                    "duration": 0.21246449999999584
                },
                {
                    "name": "A#4",
                    "midi": 70,
                    "time": 95.60902499999995,
                    "velocity": 0.2677165354330709,
                    "duration": 0.21246449999999584
                },
                {
                    "name": "C5",
                    "midi": 72,
                    "time": 95.82148949999994,
                    "velocity": 0.29133858267716534,
                    "duration": 0.15934837499999333
                },
                {
                    "name": "D#5",
                    "midi": 75,
                    "time": 95.98083787499993,
                    "velocity": 0.2755905511811024,
                    "duration": 0.05311612500000251
                },
                {
                    "name": "C#5",
                    "midi": 73,
                    "time": 96.03395399999994,
                    "velocity": 0.30708661417322836,
                    "duration": 0.21246449999999584
                },
                {
                    "name": "C5",
                    "midi": 72,
                    "time": 96.24641849999993,
                    "velocity": 0.25196850393700787,
                    "duration": 0.21246449999999584
                },
                {
                    "name": "C#5",
                    "midi": 73,
                    "time": 96.45888299999993,
                    "velocity": 0.2755905511811024,
                    "duration": 0.21246449999999584
                },
                {
                    "name": "D#5",
                    "midi": 75,
                    "time": 96.67134749999992,
                    "velocity": 0.25196850393700787,
                    "duration": 0.21246449999999584
                },
                {
                    "name": "E5",
                    "midi": 76,
                    "time": 96.88381199999992,
                    "velocity": 0.30708661417322836,
                    "duration": 0.21246449999999584
                },
                {
                    "name": "C5",
                    "midi": 72,
                    "time": 97.09627649999992,
                    "velocity": 0.25984251968503935,
                    "duration": 0.21246449999999584
                },
                {
                    "name": "C#5",
                    "midi": 73,
                    "time": 97.30874099999991,
                    "velocity": 0.2755905511811024,
                    "duration": 0.21246449999999584
                },
                {
                    "name": "D#5",
                    "midi": 75,
                    "time": 97.52120549999991,
                    "velocity": 0.25196850393700787,
                    "duration": 0.15934837499999333
                },
                {
                    "name": "F#5",
                    "midi": 78,
                    "time": 97.6805538749999,
                    "velocity": 0.25196850393700787,
                    "duration": 0.05311612500000251
                },
                {
                    "name": "E5",
                    "midi": 76,
                    "time": 97.7336699999999,
                    "velocity": 0.3228346456692913,
                    "duration": 0.21246449999999584
                },
                {
                    "name": "D#5",
                    "midi": 75,
                    "time": 97.9461344999999,
                    "velocity": 0.25984251968503935,
                    "duration": 0.21246449999999584
                },
                {
                    "name": "E5",
                    "midi": 76,
                    "time": 98.1585989999999,
                    "velocity": 0.2755905511811024,
                    "duration": 0.21246449999999584
                },
                {
                    "name": "F#5",
                    "midi": 78,
                    "time": 98.37106349999989,
                    "velocity": 0.25196850393700787,
                    "duration": 0.21246449999999584
                },
                {
                    "name": "G#5",
                    "midi": 80,
                    "time": 98.58352799999989,
                    "velocity": 0.33070866141732286,
                    "duration": 0.21246449999999584
                },
                {
                    "name": "F#5",
                    "midi": 78,
                    "time": 98.79599249999988,
                    "velocity": 0.2755905511811024,
                    "duration": 0.21246449999999584
                },
                {
                    "name": "E5",
                    "midi": 76,
                    "time": 99.00845699999988,
                    "velocity": 0.2755905511811024,
                    "duration": 0.21246449999999584
                },
                {
                    "name": "D#5",
                    "midi": 75,
                    "time": 99.22092149999987,
                    "velocity": 0.2677165354330709,
                    "duration": 0.21246449999999584
                },
                {
                    "name": "E5",
                    "midi": 76,
                    "time": 99.43338599999987,
                    "velocity": 0.3228346456692913,
                    "duration": 0.21246449999999584
                },
                {
                    "name": "D#5",
                    "midi": 75,
                    "time": 99.64585049999987,
                    "velocity": 0.2755905511811024,
                    "duration": 0.21246449999999584
                },
                {
                    "name": "C#5",
                    "midi": 73,
                    "time": 99.85831499999986,
                    "velocity": 0.2755905511811024,
                    "duration": 0.21246449999999584
                },
                {
                    "name": "G#5",
                    "midi": 80,
                    "time": 100.07077949999986,
                    "velocity": 0.2677165354330709,
                    "duration": 0.21246449999999584
                },
                {
                    "name": "D#5",
                    "midi": 75,
                    "time": 100.28324399999985,
                    "velocity": 0.31496062992125984,
                    "duration": 0.21246449999999584
                },
                {
                    "name": "C#5",
                    "midi": 73,
                    "time": 100.49570849999985,
                    "velocity": 0.2677165354330709,
                    "duration": 0.21246449999999584
                },
                {
                    "name": "B4",
                    "midi": 71,
                    "time": 100.70817299999985,
                    "velocity": 0.2755905511811024,
                    "duration": 0.21246449999999584
                },
                {
                    "name": "F#5",
                    "midi": 78,
                    "time": 100.92063749999984,
                    "velocity": 0.2755905511811024,
                    "duration": 0.21246449999999584
                },
                {
                    "name": "C#5",
                    "midi": 73,
                    "time": 101.13310199999984,
                    "velocity": 0.31496062992125984,
                    "duration": 0.21246449999999584
                },
                {
                    "name": "B4",
                    "midi": 71,
                    "time": 101.34556649999983,
                    "velocity": 0.25984251968503935,
                    "duration": 0.21246449999999584
                },
                {
                    "name": "A#4",
                    "midi": 70,
                    "time": 101.55803099999983,
                    "velocity": 0.2755905511811024,
                    "duration": 0.21246449999999584
                },
                {
                    "name": "F#5",
                    "midi": 78,
                    "time": 101.77049549999983,
                    "velocity": 0.25984251968503935,
                    "duration": 0.19475912500000447
                },
                {
                    "name": "F#5",
                    "midi": 78,
                    "time": 101.98295999999984,
                    "velocity": 0.33858267716535434,
                    "duration": 1.6997159999999951
                },
                {
                    "name": "D#5",
                    "midi": 75,
                    "time": 101.98295999999984,
                    "velocity": 0.33858267716535434,
                    "duration": 1.6997159999999951
                },
                {
                    "name": "F#4",
                    "midi": 66,
                    "time": 101.98295999999984,
                    "velocity": 0.28346456692913385,
                    "duration": 1.6997159999999951
                },
                {
                    "name": "E4",
                    "midi": 64,
                    "time": 103.68267599999983,
                    "velocity": 0.2204724409448819,
                    "duration": 0.8498579999999976
                },
                {
                    "name": "C#5",
                    "midi": 73,
                    "time": 103.68267599999983,
                    "velocity": 0.2677165354330709,
                    "duration": 0.8498579999999976
                },
                {
                    "name": "E5",
                    "midi": 76,
                    "time": 103.68267599999983,
                    "velocity": 0.2677165354330709,
                    "duration": 0.8498579999999976
                },
                {
                    "name": "D#4",
                    "midi": 63,
                    "time": 104.53253399999983,
                    "velocity": 0.1968503937007874,
                    "duration": 0.8498579999999976
                },
                {
                    "name": "B4",
                    "midi": 71,
                    "time": 104.53253399999983,
                    "velocity": 0.23622047244094488,
                    "duration": 0.8498579999999976
                },
                {
                    "name": "D#5",
                    "midi": 75,
                    "time": 104.53253399999983,
                    "velocity": 0.23622047244094488,
                    "duration": 0.8498579999999976
                },
                {
                    "name": "G#4",
                    "midi": 68,
                    "time": 105.38239199999983,
                    "velocity": 0.30708661417322836,
                    "duration": 0.8498579999999976
                },
                {
                    "name": "C#5",
                    "midi": 73,
                    "time": 105.38239199999983,
                    "velocity": 0.30708661417322836,
                    "duration": 0.8498579999999976
                },
                {
                    "name": "B4",
                    "midi": 71,
                    "time": 106.23224999999982,
                    "velocity": 0.2755905511811024,
                    "duration": 1.6997159999999951
                },
                {
                    "name": "G#4",
                    "midi": 68,
                    "time": 106.23224999999982,
                    "velocity": 0.2283464566929134,
                    "duration": 0.8498579999999976
                },
                {
                    "name": "F#4",
                    "midi": 66,
                    "time": 107.08210799999982,
                    "velocity": 0.25984251968503935,
                    "duration": 0.8498579999999976
                },
                {
                    "name": "A#4",
                    "midi": 70,
                    "time": 107.93196599999982,
                    "velocity": 0.3464566929133858,
                    "duration": 0.4249290000000059
                },
                {
                    "name": "F#4",
                    "midi": 66,
                    "time": 107.93196599999982,
                    "velocity": 0.29133858267716534,
                    "duration": 0.8498580000000118
                },
                {
                    "name": "F#5",
                    "midi": 78,
                    "time": 108.35689499999982,
                    "velocity": 0.33858267716535434,
                    "duration": 0.4249290000000059
                },
                {
                    "name": "F#4",
                    "midi": 66,
                    "time": 108.78182399999983,
                    "velocity": 0.44881889763779526,
                    "duration": 1.6997159999999951
                },
                {
                    "name": "A4",
                    "midi": 69,
                    "time": 108.78182399999983,
                    "velocity": 0.44881889763779526,
                    "duration": 1.6997159999999951
                },
                {
                    "name": "F#5",
                    "midi": 78,
                    "time": 108.78182399999983,
                    "velocity": 0.5275590551181102,
                    "duration": 1.6997159999999951
                },
                {
                    "name": "E4",
                    "midi": 64,
                    "time": 110.48153999999982,
                    "velocity": 0.4015748031496063,
                    "duration": 0.8498579999999976
                },
                {
                    "name": "A4",
                    "midi": 69,
                    "time": 110.48153999999982,
                    "velocity": 0.4015748031496063,
                    "duration": 0.8498579999999976
                },
                {
                    "name": "E5",
                    "midi": 76,
                    "time": 110.48153999999982,
                    "velocity": 0.49606299212598426,
                    "duration": 0.8498579999999976
                },
                {
                    "name": "D#4",
                    "midi": 63,
                    "time": 111.33139799999982,
                    "velocity": 0.4094488188976378,
                    "duration": 0.8498579999999976
                },
                {
                    "name": "A4",
                    "midi": 69,
                    "time": 111.33139799999982,
                    "velocity": 0.4094488188976378,
                    "duration": 0.8498579999999976
                },
                {
                    "name": "D#5",
                    "midi": 75,
                    "time": 111.33139799999982,
                    "velocity": 0.5039370078740157,
                    "duration": 0.8498579999999976
                },
                {
                    "name": "F#4",
                    "midi": 66,
                    "time": 111.33139799999982,
                    "velocity": 0.4094488188976378,
                    "duration": 0.8498579999999976
                },
                {
                    "name": "A4",
                    "midi": 69,
                    "time": 112.18125599999982,
                    "velocity": 0.5354330708661418,
                    "duration": 0.8498579999999976
                },
                {
                    "name": "C#5",
                    "midi": 73,
                    "time": 112.18125599999982,
                    "velocity": 0.6299212598425197,
                    "duration": 0.8498579999999976
                },
                {
                    "name": "F#4",
                    "midi": 66,
                    "time": 113.03111399999982,
                    "velocity": 0.5354330708661418,
                    "duration": 1.6997159999999951
                },
                {
                    "name": "B4",
                    "midi": 71,
                    "time": 113.03111399999982,
                    "velocity": 0.6377952755905512,
                    "duration": 1.6997159999999951
                },
                {
                    "name": "D#4",
                    "midi": 63,
                    "time": 113.03111399999982,
                    "velocity": 0.5354330708661418,
                    "duration": 1.6997159999999951
                },
                {
                    "name": "F#4",
                    "midi": 66,
                    "time": 114.73082999999981,
                    "velocity": 0.5275590551181102,
                    "duration": 0.8498579999999976
                },
                {
                    "name": "A4",
                    "midi": 69,
                    "time": 114.73082999999981,
                    "velocity": 0.6299212598425197,
                    "duration": 0.8498579999999976
                },
                {
                    "name": "D#4",
                    "midi": 63,
                    "time": 114.73082999999981,
                    "velocity": 0.5275590551181102,
                    "duration": 0.8498579999999976
                },
                {
                    "name": "A4",
                    "midi": 69,
                    "time": 115.58068799999981,
                    "velocity": 0.6456692913385826,
                    "duration": 0.21246449999999584
                },
                {
                    "name": "D#5",
                    "midi": 75,
                    "time": 115.7931524999998,
                    "velocity": 0.5905511811023622,
                    "duration": 0.21246449999999584
                },
                {
                    "name": "F#5",
                    "midi": 78,
                    "time": 116.0056169999998,
                    "velocity": 0.6299212598425197,
                    "duration": 0.21246449999999584
                },
                {
                    "name": "D#5",
                    "midi": 75,
                    "time": 116.2180814999998,
                    "velocity": 0.6062992125984252,
                    "duration": 0.21246449999999584
                },
                {
                    "name": "A5",
                    "midi": 81,
                    "time": 116.4305459999998,
                    "velocity": 0.5354330708661418,
                    "duration": 0.21246449999999584
                },
                {
                    "name": "D#6",
                    "midi": 87,
                    "time": 116.64301049999979,
                    "velocity": 0.4645669291338583,
                    "duration": 0.21246449999999584
                },
                {
                    "name": "F#6",
                    "midi": 90,
                    "time": 116.85547499999979,
                    "velocity": 0.3937007874015748,
                    "duration": 0.21246449999999584
                },
                {
                    "name": "D#6",
                    "midi": 87,
                    "time": 117.06793949999978,
                    "velocity": 0.3228346456692913,
                    "duration": 0.21246449999999584
                },
                {
                    "name": "A6",
                    "midi": 93,
                    "time": 117.28040399999978,
                    "velocity": 0.4251968503937008,
                    "duration": 0.8498579999999976
                },
                {
                    "name": "D#4",
                    "midi": 63,
                    "time": 118.34272649999977,
                    "velocity": 0.30708661417322836,
                    "duration": 0.21246449999999584
                },
                {
                    "name": "E4",
                    "midi": 64,
                    "time": 118.55519099999977,
                    "velocity": 0.30708661417322836,
                    "duration": 0.21246449999999584
                },
                {
                    "name": "F#4",
                    "midi": 66,
                    "time": 118.76765549999976,
                    "velocity": 0.3228346456692913,
                    "duration": 0.21246449999999584
                },
                {
                    "name": "E4",
                    "midi": 64,
                    "time": 118.98011999999976,
                    "velocity": 0.2677165354330709,
                    "duration": 0.21246449999999584
                },
                {
                    "name": "G#4",
                    "midi": 68,
                    "time": 118.98011999999976,
                    "velocity": 0.3937007874015748,
                    "duration": 0.8498579999999833
                },
                {
                    "name": "B3",
                    "midi": 59,
                    "time": 119.19258449999975,
                    "velocity": 0.2047244094488189,
                    "duration": 0.21246449999999584
                },
                {
                    "name": "E4",
                    "midi": 64,
                    "time": 119.40504899999975,
                    "velocity": 0.2440944881889764,
                    "duration": 0.21246449999999584
                },
                {
                    "name": "B3",
                    "midi": 59,
                    "time": 119.61751349999975,
                    "velocity": 0.2047244094488189,
                    "duration": 0.21246449999999584
                },
                {
                    "name": "G#4",
                    "midi": 68,
                    "time": 119.82997799999974,
                    "velocity": 0.23622047244094488,
                    "duration": 0.21246449999999584
                },
                {
                    "name": "B4",
                    "midi": 71,
                    "time": 119.82997799999974,
                    "velocity": 0.36220472440944884,
                    "duration": 0.4249289999999917
                },
                {
                    "name": "B3",
                    "midi": 59,
                    "time": 120.04244249999974,
                    "velocity": 0.2125984251968504,
                    "duration": 0.21246449999999584
                },
                {
                    "name": "F#4",
                    "midi": 66,
                    "time": 120.25490699999973,
                    "velocity": 0.2204724409448819,
                    "duration": 0.21246449999999584
                },
                {
                    "name": "A4",
                    "midi": 69,
                    "time": 120.25490699999973,
                    "velocity": 0.33858267716535434,
                    "duration": 0.4249289999999917
                },
                {
                    "name": "B3",
                    "midi": 59,
                    "time": 120.46737149999973,
                    "velocity": 0.2125984251968504,
                    "duration": 0.21246449999999584
                },
                {
                    "name": "E4",
                    "midi": 64,
                    "time": 120.67983599999972,
                    "velocity": 0.2677165354330709,
                    "duration": 0.21246449999999584
                },
                {
                    "name": "G#4",
                    "midi": 68,
                    "time": 120.67983599999972,
                    "velocity": 0.3937007874015748,
                    "duration": 0.4249289999999917
                },
                {
                    "name": "B3",
                    "midi": 59,
                    "time": 120.89230049999972,
                    "velocity": 0.2047244094488189,
                    "duration": 0.21246449999999584
                },
                {
                    "name": "D#4",
                    "midi": 63,
                    "time": 121.10476499999972,
                    "velocity": 0.2125984251968504,
                    "duration": 0.21246449999999584
                },
                {
                    "name": "F#4",
                    "midi": 66,
                    "time": 121.10476499999972,
                    "velocity": 0.3228346456692913,
                    "duration": 0.37181287499998916
                },
                {
                    "name": "B3",
                    "midi": 59,
                    "time": 121.31722949999971,
                    "velocity": 0.1968503937007874,
                    "duration": 0.15934837499999333
                },
                {
                    "name": "D#4",
                    "midi": 63,
                    "time": 121.52969399999971,
                    "velocity": 0.2125984251968504,
                    "duration": 0.21246449999999584
                },
                {
                    "name": "F#4",
                    "midi": 66,
                    "time": 121.52969399999971,
                    "velocity": 0.3228346456692913,
                    "duration": 0.4249289999999917
                },
                {
                    "name": "B3",
                    "midi": 59,
                    "time": 121.7421584999997,
                    "velocity": 0.2047244094488189,
                    "duration": 0.21246449999999584
                },
                {
                    "name": "E4",
                    "midi": 64,
                    "time": 121.9546229999997,
                    "velocity": 0.2204724409448819,
                    "duration": 0.21246449999999584
                },
                {
                    "name": "G#4",
                    "midi": 68,
                    "time": 121.9546229999997,
                    "velocity": 0.33858267716535434,
                    "duration": 0.4249289999999917
                },
                {
                    "name": "B3",
                    "midi": 59,
                    "time": 122.1670874999997,
                    "velocity": 0.2204724409448819,
                    "duration": 0.21246449999999584
                },
                {
                    "name": "E4",
                    "midi": 64,
                    "time": 122.37955199999969,
                    "velocity": 0.23622047244094488,
                    "duration": 0.21246449999999584
                },
                {
                    "name": "A4",
                    "midi": 69,
                    "time": 122.37955199999969,
                    "velocity": 0.36220472440944884,
                    "duration": 0.4249289999999917
                },
                {
                    "name": "B3",
                    "midi": 59,
                    "time": 122.59201649999969,
                    "velocity": 0.2204724409448819,
                    "duration": 0.21246449999999584
                },
                {
                    "name": "E4",
                    "midi": 64,
                    "time": 122.80448099999968,
                    "velocity": 0.28346456692913385,
                    "duration": 0.21246449999999584
                },
                {
                    "name": "C#5",
                    "midi": 73,
                    "time": 122.80448099999968,
                    "velocity": 0.4251968503937008,
                    "duration": 0.4249289999999917
                },
                {
                    "name": "B3",
                    "midi": 59,
                    "time": 123.01694549999968,
                    "velocity": 0.2440944881889764,
                    "duration": 0.21246449999999584
                },
                {
                    "name": "F#4",
                    "midi": 66,
                    "time": 123.22940999999967,
                    "velocity": 0.29133858267716534,
                    "duration": 0.21246449999999584
                },
                {
                    "name": "B4",
                    "midi": 71,
                    "time": 123.22940999999967,
                    "velocity": 0.3700787401574803,
                    "duration": 0.4249289999999917
                },
                {
                    "name": "B3",
                    "midi": 59,
                    "time": 123.44187449999967,
                    "velocity": 0.2047244094488189,
                    "duration": 0.21246449999999584
                },
                {
                    "name": "D#4",
                    "midi": 63,
                    "time": 123.65433899999967,
                    "velocity": 0.1968503937007874,
                    "duration": 0.21246449999999584
                },
                {
                    "name": "F#4",
                    "midi": 66,
                    "time": 123.65433899999967,
                    "velocity": 0.2992125984251969,
                    "duration": 0.4249289999999917
                },
                {
                    "name": "B3",
                    "midi": 59,
                    "time": 123.86680349999966,
                    "velocity": 0.2125984251968504,
                    "duration": 0.21246449999999584
                },
                {
                    "name": "B3",
                    "midi": 59,
                    "time": 124.07926799999966,
                    "velocity": 0.2755905511811024,
                    "duration": 0.8498579999999976
                },
                {
                    "name": "E4",
                    "midi": 64,
                    "time": 124.07926799999966,
                    "velocity": 0.2755905511811024,
                    "duration": 0.8498579999999976
                },
                {
                    "name": "G#4",
                    "midi": 68,
                    "time": 124.07926799999966,
                    "velocity": 0.33070866141732286,
                    "duration": 0.8498579999999976
                },
                {
                    "name": "E5",
                    "midi": 76,
                    "time": 125.35405499999966,
                    "velocity": 0.3700787401574803,
                    "duration": 0.21246449999999584
                },
                {
                    "name": "F#5",
                    "midi": 78,
                    "time": 125.56651949999966,
                    "velocity": 0.33070866141732286,
                    "duration": 0.21246449999999584
                },
                {
                    "name": "G#4",
                    "midi": 68,
                    "time": 125.77898399999965,
                    "velocity": 0.4330708661417323,
                    "duration": 0.8498579999999976
                },
                {
                    "name": "G#5",
                    "midi": 80,
                    "time": 125.77898399999965,
                    "velocity": 0.4330708661417323,
                    "duration": 0.8498579999999976
                },
                {
                    "name": "B4",
                    "midi": 71,
                    "time": 126.62884199999965,
                    "velocity": 0.3937007874015748,
                    "duration": 0.4249290000000059
                },
                {
                    "name": "B5",
                    "midi": 83,
                    "time": 126.62884199999965,
                    "velocity": 0.3937007874015748,
                    "duration": 0.4249290000000059
                },
                {
                    "name": "A4",
                    "midi": 69,
                    "time": 127.05377099999966,
                    "velocity": 0.3700787401574803,
                    "duration": 0.4249290000000059
                },
                {
                    "name": "A5",
                    "midi": 81,
                    "time": 127.05377099999966,
                    "velocity": 0.3700787401574803,
                    "duration": 0.4249290000000059
                },
                {
                    "name": "G#4",
                    "midi": 68,
                    "time": 127.47869999999966,
                    "velocity": 0.4330708661417323,
                    "duration": 0.4249290000000059
                },
                {
                    "name": "G#5",
                    "midi": 80,
                    "time": 127.47869999999966,
                    "velocity": 0.4330708661417323,
                    "duration": 0.4249290000000059
                },
                {
                    "name": "F#4",
                    "midi": 66,
                    "time": 127.90362899999967,
                    "velocity": 0.3543307086614173,
                    "duration": 0.3718128750000034
                },
                {
                    "name": "F#5",
                    "midi": 78,
                    "time": 127.90362899999967,
                    "velocity": 0.3543307086614173,
                    "duration": 0.3718128750000034
                },
                {
                    "name": "F#4",
                    "midi": 66,
                    "time": 128.32855799999967,
                    "velocity": 0.3543307086614173,
                    "duration": 0.4249289999999917
                },
                {
                    "name": "F#5",
                    "midi": 78,
                    "time": 128.32855799999967,
                    "velocity": 0.3543307086614173,
                    "duration": 0.4249289999999917
                },
                {
                    "name": "G#4",
                    "midi": 68,
                    "time": 128.75348699999967,
                    "velocity": 0.3858267716535433,
                    "duration": 0.4249289999999917
                },
                {
                    "name": "G#5",
                    "midi": 80,
                    "time": 128.75348699999967,
                    "velocity": 0.3858267716535433,
                    "duration": 0.4249289999999917
                },
                {
                    "name": "A4",
                    "midi": 69,
                    "time": 129.17841599999966,
                    "velocity": 0.3700787401574803,
                    "duration": 0.4249289999999917
                },
                {
                    "name": "A5",
                    "midi": 81,
                    "time": 129.17841599999966,
                    "velocity": 0.4409448818897638,
                    "duration": 0.4249289999999917
                },
                {
                    "name": "C#5",
                    "midi": 73,
                    "time": 129.60334499999965,
                    "velocity": 0.4015748031496063,
                    "duration": 0.4249289999999917
                },
                {
                    "name": "C#6",
                    "midi": 85,
                    "time": 129.60334499999965,
                    "velocity": 0.48031496062992124,
                    "duration": 0.4249289999999917
                },
                {
                    "name": "B4",
                    "midi": 71,
                    "time": 130.02827399999964,
                    "velocity": 0.3700787401574803,
                    "duration": 0.4249289999999917
                },
                {
                    "name": "B5",
                    "midi": 83,
                    "time": 130.02827399999964,
                    "velocity": 0.44881889763779526,
                    "duration": 0.4249289999999917
                },
                {
                    "name": "D#6",
                    "midi": 87,
                    "time": 130.45320299999963,
                    "velocity": 0.3858267716535433,
                    "duration": 0.4249289999999917
                },
                {
                    "name": "D#5",
                    "midi": 75,
                    "time": 130.45320299999963,
                    "velocity": 0.25196850393700787,
                    "duration": 0.4249289999999917
                },
                {
                    "name": "E6",
                    "midi": 88,
                    "time": 130.87813199999962,
                    "velocity": 0.44881889763779526,
                    "duration": 0.8498580000000118
                },
                {
                    "name": "E5",
                    "midi": 76,
                    "time": 130.87813199999962,
                    "velocity": 0.2755905511811024,
                    "duration": 0.8498580000000118
                },
                {
                    "name": "B4",
                    "midi": 71,
                    "time": 132.15291899999963,
                    "velocity": 0.3700787401574803,
                    "duration": 0.4249289999999917
                },
                {
                    "name": "A#4",
                    "midi": 70,
                    "time": 132.57784799999962,
                    "velocity": 0.4015748031496063,
                    "duration": 0.8498580000000118
                },
                {
                    "name": "E5",
                    "midi": 76,
                    "time": 133.42770599999963,
                    "velocity": 0.4409448818897638,
                    "duration": 0.8498580000000118
                },
                {
                    "name": "D#5",
                    "midi": 75,
                    "time": 134.27756399999964,
                    "velocity": 0.4015748031496063,
                    "duration": 1.2747870000000034
                },
                {
                    "name": "A4",
                    "midi": 69,
                    "time": 135.55235099999965,
                    "velocity": 0.3543307086614173,
                    "duration": 0.4249289999999917
                },
                {
                    "name": "G#4",
                    "midi": 68,
                    "time": 135.97727999999964,
                    "velocity": 0.4015748031496063,
                    "duration": 0.8498580000000118
                },
                {
                    "name": "D5",
                    "midi": 74,
                    "time": 136.82713799999965,
                    "velocity": 0.4251968503937008,
                    "duration": 0.8498580000000118
                },
                {
                    "name": "C#5",
                    "midi": 73,
                    "time": 137.67699599999966,
                    "velocity": 0.4015748031496063,
                    "duration": 1.2747870000000034
                },
                {
                    "name": "C#5",
                    "midi": 73,
                    "time": 138.95178299999966,
                    "velocity": 0.3779527559055118,
                    "duration": 0.4249289999999917
                },
                {
                    "name": "C5",
                    "midi": 72,
                    "time": 139.37671199999966,
                    "velocity": 0.44881889763779526,
                    "duration": 0.4249289999999917
                },
                {
                    "name": "C#5",
                    "midi": 73,
                    "time": 139.80164099999965,
                    "velocity": 0.4566929133858268,
                    "duration": 0.4249289999999917
                },
                {
                    "name": "A4",
                    "midi": 69,
                    "time": 140.22656999999964,
                    "velocity": 0.4330708661417323,
                    "duration": 0.31869674999998665
                },
                {
                    "name": "E4",
                    "midi": 64,
                    "time": 140.22656999999964,
                    "velocity": 0.36220472440944884,
                    "duration": 0.31869674999998665
                },
                {
                    "name": "C#4",
                    "midi": 61,
                    "time": 140.22656999999964,
                    "velocity": 0.36220472440944884,
                    "duration": 0.31869674999998665
                },
                {
                    "name": "G#4",
                    "midi": 68,
                    "time": 140.65149899999963,
                    "velocity": 0.4330708661417323,
                    "duration": 0.31869674999998665
                },
                {
                    "name": "E4",
                    "midi": 64,
                    "time": 140.65149899999963,
                    "velocity": 0.36220472440944884,
                    "duration": 0.31869674999998665
                },
                {
                    "name": "B3",
                    "midi": 59,
                    "time": 140.65149899999963,
                    "velocity": 0.36220472440944884,
                    "duration": 0.31869674999998665
                },
                {
                    "name": "G#4",
                    "midi": 68,
                    "time": 141.07642799999962,
                    "velocity": 0.5984251968503937,
                    "duration": 0.4249289999999917
                },
                {
                    "name": "E4",
                    "midi": 64,
                    "time": 141.07642799999962,
                    "velocity": 0.5039370078740157,
                    "duration": 0.8498579999999833
                },
                {
                    "name": "A#3",
                    "midi": 58,
                    "time": 141.07642799999962,
                    "velocity": 0.5039370078740157,
                    "duration": 0.8498579999999833
                },
                {
                    "name": "F#4",
                    "midi": 66,
                    "time": 141.50135699999962,
                    "velocity": 0.4881889763779528,
                    "duration": 0.8498579999999833
                },
                {
                    "name": "E4",
                    "midi": 64,
                    "time": 141.9262859999996,
                    "velocity": 0.49606299212598426,
                    "duration": 0.8498579999999833
                },
                {
                    "name": "A3",
                    "midi": 57,
                    "time": 141.9262859999996,
                    "velocity": 0.49606299212598426,
                    "duration": 0.8498579999999833
                },
                {
                    "name": "F#4",
                    "midi": 66,
                    "time": 142.3512149999996,
                    "velocity": 0.5275590551181102,
                    "duration": 0.4249289999999917
                },
                {
                    "name": "F#4",
                    "midi": 66,
                    "time": 142.7761439999996,
                    "velocity": 0.3858267716535433,
                    "duration": 0.4249289999999917
                },
                {
                    "name": "D#4",
                    "midi": 63,
                    "time": 142.7761439999996,
                    "velocity": 0.3228346456692913,
                    "duration": 0.4249289999999917
                },
                {
                    "name": "A3",
                    "midi": 57,
                    "time": 142.7761439999996,
                    "velocity": 0.3228346456692913,
                    "duration": 0.4249289999999917
                },
                {
                    "name": "B4",
                    "midi": 71,
                    "time": 143.20107299999958,
                    "velocity": 0.2992125984251969,
                    "duration": 0.4249289999999917
                },
                {
                    "name": "D#4",
                    "midi": 63,
                    "time": 143.20107299999958,
                    "velocity": 0.25196850393700787,
                    "duration": 0.8498579999999833
                },
                {
                    "name": "A#4",
                    "midi": 70,
                    "time": 143.62600199999957,
                    "velocity": 0.36220472440944884,
                    "duration": 0.4249289999999917
                },
                {
                    "name": "B4",
                    "midi": 71,
                    "time": 144.05093099999957,
                    "velocity": 0.31496062992125984,
                    "duration": 0.4249289999999917
                },
                {
                    "name": "D#4",
                    "midi": 63,
                    "time": 144.05093099999957,
                    "velocity": 0.2677165354330709,
                    "duration": 0.4249289999999917
                },
                {
                    "name": "E4",
                    "midi": 64,
                    "time": 144.47585999999956,
                    "velocity": 0.4015748031496063,
                    "duration": 0.8498580000000118
                },
                {
                    "name": "B5",
                    "midi": 83,
                    "time": 145.75064699999956,
                    "velocity": 0.3700787401574803,
                    "duration": 0.4249289999999917
                },
                {
                    "name": "B4",
                    "midi": 71,
                    "time": 145.75064699999956,
                    "velocity": 0.3700787401574803,
                    "duration": 0.4249289999999917
                },
                {
                    "name": "A#5",
                    "midi": 82,
                    "time": 146.17557599999955,
                    "velocity": 0.4015748031496063,
                    "duration": 0.8498580000000118
                },
                {
                    "name": "A#4",
                    "midi": 70,
                    "time": 146.17557599999955,
                    "velocity": 0.4015748031496063,
                    "duration": 0.8498580000000118
                },
                {
                    "name": "E6",
                    "midi": 88,
                    "time": 147.02543399999956,
                    "velocity": 0.4409448818897638,
                    "duration": 0.8498580000000118
                },
                {
                    "name": "E5",
                    "midi": 76,
                    "time": 147.02543399999956,
                    "velocity": 0.4409448818897638,
                    "duration": 0.8498580000000118
                },
                {
                    "name": "D#6",
                    "midi": 87,
                    "time": 147.87529199999958,
                    "velocity": 0.4015748031496063,
                    "duration": 1.2747870000000034
                },
                {
                    "name": "D#5",
                    "midi": 75,
                    "time": 147.87529199999958,
                    "velocity": 0.4015748031496063,
                    "duration": 1.2747870000000034
                },
                {
                    "name": "A5",
                    "midi": 81,
                    "time": 149.15007899999958,
                    "velocity": 0.3543307086614173,
                    "duration": 0.4249289999999917
                },
                {
                    "name": "A4",
                    "midi": 69,
                    "time": 149.15007899999958,
                    "velocity": 0.3543307086614173,
                    "duration": 0.4249289999999917
                },
                {
                    "name": "G#5",
                    "midi": 80,
                    "time": 149.57500799999957,
                    "velocity": 0.4015748031496063,
                    "duration": 0.8498580000000118
                },
                {
                    "name": "G#4",
                    "midi": 68,
                    "time": 149.57500799999957,
                    "velocity": 0.4015748031496063,
                    "duration": 0.8498580000000118
                },
                {
                    "name": "D6",
                    "midi": 86,
                    "time": 150.42486599999958,
                    "velocity": 0.4251968503937008,
                    "duration": 0.8498580000000118
                },
                {
                    "name": "D5",
                    "midi": 74,
                    "time": 150.42486599999958,
                    "velocity": 0.4251968503937008,
                    "duration": 0.8498580000000118
                },
                {
                    "name": "C#6",
                    "midi": 85,
                    "time": 151.2747239999996,
                    "velocity": 0.4015748031496063,
                    "duration": 1.2747870000000034
                },
                {
                    "name": "C#5",
                    "midi": 73,
                    "time": 151.2747239999996,
                    "velocity": 0.4015748031496063,
                    "duration": 1.2747870000000034
                },
                {
                    "name": "C#6",
                    "midi": 85,
                    "time": 152.5495109999996,
                    "velocity": 0.3937007874015748,
                    "duration": 0.4249289999999917
                },
                {
                    "name": "C#5",
                    "midi": 73,
                    "time": 152.5495109999996,
                    "velocity": 0.3937007874015748,
                    "duration": 0.4249289999999917
                },
                {
                    "name": "C6",
                    "midi": 84,
                    "time": 152.9744399999996,
                    "velocity": 0.4645669291338583,
                    "duration": 0.4249289999999917
                },
                {
                    "name": "C5",
                    "midi": 72,
                    "time": 152.9744399999996,
                    "velocity": 0.4645669291338583,
                    "duration": 0.4249289999999917
                },
                {
                    "name": "C#6",
                    "midi": 85,
                    "time": 153.39936899999958,
                    "velocity": 0.47244094488188976,
                    "duration": 0.4249289999999917
                },
                {
                    "name": "C#5",
                    "midi": 73,
                    "time": 153.39936899999958,
                    "velocity": 0.47244094488188976,
                    "duration": 0.4249289999999917
                },
                {
                    "name": "A5",
                    "midi": 81,
                    "time": 153.82429799999957,
                    "velocity": 0.4566929133858268,
                    "duration": 0.31869674999998665
                },
                {
                    "name": "A4",
                    "midi": 69,
                    "time": 153.82429799999957,
                    "velocity": 0.4566929133858268,
                    "duration": 0.31869674999998665
                },
                {
                    "name": "G#5",
                    "midi": 80,
                    "time": 154.24922699999956,
                    "velocity": 0.44881889763779526,
                    "duration": 0.31869674999998665
                },
                {
                    "name": "G#4",
                    "midi": 68,
                    "time": 154.24922699999956,
                    "velocity": 0.44881889763779526,
                    "duration": 0.31869674999998665
                },
                {
                    "name": "G#5",
                    "midi": 80,
                    "time": 154.67415599999956,
                    "velocity": 0.5590551181102362,
                    "duration": 0.4249289999999917
                },
                {
                    "name": "G#4",
                    "midi": 68,
                    "time": 154.67415599999956,
                    "velocity": 0.5590551181102362,
                    "duration": 0.4249289999999917
                },
                {
                    "name": "F#5",
                    "midi": 78,
                    "time": 155.09908499999955,
                    "velocity": 0.5118110236220472,
                    "duration": 0.8410053124999877
                },
                {
                    "name": "F#4",
                    "midi": 66,
                    "time": 155.09908499999955,
                    "velocity": 0.5118110236220472,
                    "duration": 0.8410053124999877
                },
                {
                    "name": "F#5",
                    "midi": 78,
                    "time": 155.94894299999953,
                    "velocity": 0.5433070866141733,
                    "duration": 0.4036825500000134
                },
                {
                    "name": "F#4",
                    "midi": 66,
                    "time": 155.94894299999953,
                    "velocity": 0.5433070866141733,
                    "duration": 0.4036825500000134
                },
                {
                    "name": "F#5",
                    "midi": 78,
                    "time": 156.37387199999955,
                    "velocity": 0.3858267716535433,
                    "duration": 0.4249289999999917
                },
                {
                    "name": "F#4",
                    "midi": 66,
                    "time": 156.37387199999955,
                    "velocity": 0.3858267716535433,
                    "duration": 0.4249289999999917
                },
                {
                    "name": "B5",
                    "midi": 83,
                    "time": 156.79880099999954,
                    "velocity": 0.2992125984251969,
                    "duration": 0.4249289999999917
                },
                {
                    "name": "B4",
                    "midi": 71,
                    "time": 156.79880099999954,
                    "velocity": 0.2992125984251969,
                    "duration": 0.4249289999999917
                },
                {
                    "name": "A#5",
                    "midi": 82,
                    "time": 157.22372999999953,
                    "velocity": 0.36220472440944884,
                    "duration": 0.4249289999999917
                },
                {
                    "name": "A#4",
                    "midi": 70,
                    "time": 157.22372999999953,
                    "velocity": 0.36220472440944884,
                    "duration": 0.4249289999999917
                },
                {
                    "name": "B5",
                    "midi": 83,
                    "time": 157.64865899999953,
                    "velocity": 0.31496062992125984,
                    "duration": 0.4249289999999917
                },
                {
                    "name": "B4",
                    "midi": 71,
                    "time": 157.64865899999953,
                    "velocity": 0.31496062992125984,
                    "duration": 0.4249289999999917
                },
                {
                    "name": "E5",
                    "midi": 76,
                    "time": 158.07358799999952,
                    "velocity": 0.4015748031496063,
                    "duration": 0.8498580000000118
                },
                {
                    "name": "E4",
                    "midi": 64,
                    "time": 158.07358799999952,
                    "velocity": 0.4015748031496063,
                    "duration": 0.8498580000000118
                },
                {
                    "name": "E4",
                    "midi": 64,
                    "time": 159.34837499999952,
                    "velocity": 0.33858267716535434,
                    "duration": 0.21246450000001005
                },
                {
                    "name": "F#4",
                    "midi": 66,
                    "time": 159.56083949999953,
                    "velocity": 0.30708661417322836,
                    "duration": 0.21246450000001005
                },
                {
                    "name": "E4",
                    "midi": 64,
                    "time": 159.77330399999954,
                    "velocity": 0.2677165354330709,
                    "duration": 0.21246450000001005
                },
                {
                    "name": "G#4",
                    "midi": 68,
                    "time": 159.77330399999954,
                    "velocity": 0.3937007874015748,
                    "duration": 0.8498580000000402
                },
                {
                    "name": "B3",
                    "midi": 59,
                    "time": 159.98576849999955,
                    "velocity": 0.2047244094488189,
                    "duration": 0.21246450000001005
                },
                {
                    "name": "E4",
                    "midi": 64,
                    "time": 160.19823299999956,
                    "velocity": 0.2440944881889764,
                    "duration": 0.21246450000001005
                },
                {
                    "name": "B3",
                    "midi": 59,
                    "time": 160.41069749999957,
                    "velocity": 0.2047244094488189,
                    "duration": 0.21246450000001005
                },
                {
                    "name": "G#4",
                    "midi": 68,
                    "time": 160.62316199999958,
                    "velocity": 0.23622047244094488,
                    "duration": 0.21246450000001005
                },
                {
                    "name": "B4",
                    "midi": 71,
                    "time": 160.62316199999958,
                    "velocity": 0.36220472440944884,
                    "duration": 0.4249290000000201
                },
                {
                    "name": "B3",
                    "midi": 59,
                    "time": 160.8356264999996,
                    "velocity": 0.2125984251968504,
                    "duration": 0.21246450000001005
                },
                {
                    "name": "F#4",
                    "midi": 66,
                    "time": 161.0480909999996,
                    "velocity": 0.2204724409448819,
                    "duration": 0.21246450000001005
                },
                {
                    "name": "A4",
                    "midi": 69,
                    "time": 161.0480909999996,
                    "velocity": 0.33858267716535434,
                    "duration": 0.4249290000000201
                },
                {
                    "name": "B3",
                    "midi": 59,
                    "time": 161.2605554999996,
                    "velocity": 0.2125984251968504,
                    "duration": 0.21246450000001005
                },
                {
                    "name": "E4",
                    "midi": 64,
                    "time": 161.47301999999962,
                    "velocity": 0.2677165354330709,
                    "duration": 0.21246450000001005
                },
                {
                    "name": "G#4",
                    "midi": 68,
                    "time": 161.47301999999962,
                    "velocity": 0.3937007874015748,
                    "duration": 0.4249290000000201
                },
                {
                    "name": "B3",
                    "midi": 59,
                    "time": 161.68548449999963,
                    "velocity": 0.2047244094488189,
                    "duration": 0.21246450000001005
                },
                {
                    "name": "D#4",
                    "midi": 63,
                    "time": 161.89794899999964,
                    "velocity": 0.2125984251968504,
                    "duration": 0.21246450000001005
                },
                {
                    "name": "F#4",
                    "midi": 66,
                    "time": 161.89794899999964,
                    "velocity": 0.3228346456692913,
                    "duration": 0.3718128750000176
                },
                {
                    "name": "B3",
                    "midi": 59,
                    "time": 162.11041349999965,
                    "velocity": 0.1968503937007874,
                    "duration": 0.15934837500000754
                },
                {
                    "name": "D#4",
                    "midi": 63,
                    "time": 162.32287799999966,
                    "velocity": 0.2125984251968504,
                    "duration": 0.21246450000001005
                },
                {
                    "name": "F#4",
                    "midi": 66,
                    "time": 162.32287799999966,
                    "velocity": 0.3228346456692913,
                    "duration": 0.4249290000000201
                },
                {
                    "name": "B3",
                    "midi": 59,
                    "time": 162.53534249999967,
                    "velocity": 0.2047244094488189,
                    "duration": 0.21246450000001005
                },
                {
                    "name": "E4",
                    "midi": 64,
                    "time": 162.74780699999968,
                    "velocity": 0.2204724409448819,
                    "duration": 0.21246450000001005
                },
                {
                    "name": "G#4",
                    "midi": 68,
                    "time": 162.74780699999968,
                    "velocity": 0.33858267716535434,
                    "duration": 0.4249290000000201
                },
                {
                    "name": "B3",
                    "midi": 59,
                    "time": 162.9602714999997,
                    "velocity": 0.2204724409448819,
                    "duration": 0.21246450000001005
                },
                {
                    "name": "E4",
                    "midi": 64,
                    "time": 163.1727359999997,
                    "velocity": 0.23622047244094488,
                    "duration": 0.21246450000001005
                },
                {
                    "name": "A4",
                    "midi": 69,
                    "time": 163.1727359999997,
                    "velocity": 0.36220472440944884,
                    "duration": 0.4249290000000201
                },
                {
                    "name": "B3",
                    "midi": 59,
                    "time": 163.3852004999997,
                    "velocity": 0.2204724409448819,
                    "duration": 0.21246450000001005
                },
                {
                    "name": "E4",
                    "midi": 64,
                    "time": 163.59766499999972,
                    "velocity": 0.28346456692913385,
                    "duration": 0.21246450000001005
                },
                {
                    "name": "C#5",
                    "midi": 73,
                    "time": 163.59766499999972,
                    "velocity": 0.4251968503937008,
                    "duration": 0.4249290000000201
                },
                {
                    "name": "B3",
                    "midi": 59,
                    "time": 163.81012949999973,
                    "velocity": 0.2440944881889764,
                    "duration": 0.21246450000001005
                },
                {
                    "name": "F#4",
                    "midi": 66,
                    "time": 164.02259399999974,
                    "velocity": 0.29133858267716534,
                    "duration": 0.21246450000001005
                },
                {
                    "name": "B4",
                    "midi": 71,
                    "time": 164.02259399999974,
                    "velocity": 0.3700787401574803,
                    "duration": 0.4249290000000201
                },
                {
                    "name": "B3",
                    "midi": 59,
                    "time": 164.23505849999975,
                    "velocity": 0.2047244094488189,
                    "duration": 0.21246450000001005
                },
                {
                    "name": "D#4",
                    "midi": 63,
                    "time": 164.44752299999976,
                    "velocity": 0.1968503937007874,
                    "duration": 0.21246450000001005
                },
                {
                    "name": "F#4",
                    "midi": 66,
                    "time": 164.44752299999976,
                    "velocity": 0.2992125984251969,
                    "duration": 0.4249290000000201
                },
                {
                    "name": "B3",
                    "midi": 59,
                    "time": 164.65998749999977,
                    "velocity": 0.2125984251968504,
                    "duration": 0.21246450000001005
                },
                {
                    "name": "B3",
                    "midi": 59,
                    "time": 164.87245199999978,
                    "velocity": 0.2755905511811024,
                    "duration": 0.4249289999999917
                },
                {
                    "name": "E4",
                    "midi": 64,
                    "time": 164.87245199999978,
                    "velocity": 0.2755905511811024,
                    "duration": 0.4249289999999917
                },
                {
                    "name": "G#4",
                    "midi": 68,
                    "time": 164.87245199999978,
                    "velocity": 0.33070866141732286,
                    "duration": 0.4249289999999917
                },
                {
                    "name": "F#5",
                    "midi": 78,
                    "time": 165.66919387499976,
                    "velocity": 0.33070866141732286,
                    "duration": 0.05311612500000251
                },
                {
                    "name": "E5",
                    "midi": 76,
                    "time": 165.72230999999977,
                    "velocity": 0.3700787401574803,
                    "duration": 0.21246450000001005
                },
                {
                    "name": "D#5",
                    "midi": 75,
                    "time": 165.93477449999978,
                    "velocity": 0.33070866141732286,
                    "duration": 0.21246450000001005
                },
                {
                    "name": "E5",
                    "midi": 76,
                    "time": 166.1472389999998,
                    "velocity": 0.3779527559055118,
                    "duration": 0.21246450000001005
                },
                {
                    "name": "F#5",
                    "midi": 78,
                    "time": 166.3597034999998,
                    "velocity": 0.3700787401574803,
                    "duration": 0.15934837500000754
                },
                {
                    "name": "A5",
                    "midi": 81,
                    "time": 166.5190518749998,
                    "velocity": 0.3937007874015748,
                    "duration": 0.05311612500000251
                },
                {
                    "name": "G#5",
                    "midi": 80,
                    "time": 166.5721679999998,
                    "velocity": 0.4094488188976378,
                    "duration": 0.21246450000001005
                },
                {
                    "name": "F#5",
                    "midi": 78,
                    "time": 166.78463249999982,
                    "velocity": 0.3700787401574803,
                    "duration": 0.21246450000001005
                },
                {
                    "name": "G#5",
                    "midi": 80,
                    "time": 166.99709699999983,
                    "velocity": 0.33070866141732286,
                    "duration": 0.21246450000001005
                },
                {
                    "name": "A5",
                    "midi": 81,
                    "time": 167.20956149999984,
                    "velocity": 0.3700787401574803,
                    "duration": 0.21246450000001005
                },
                {
                    "name": "B4",
                    "midi": 71,
                    "time": 167.42202599999985,
                    "velocity": 0.3543307086614173,
                    "duration": 0.4249289999999917
                },
                {
                    "name": "B5",
                    "midi": 83,
                    "time": 167.42202599999985,
                    "velocity": 0.41732283464566927,
                    "duration": 0.4249289999999917
                },
                {
                    "name": "A5",
                    "midi": 81,
                    "time": 167.84695499999984,
                    "velocity": 0.41732283464566927,
                    "duration": 0.4249289999999917
                },
                {
                    "name": "A4",
                    "midi": 69,
                    "time": 167.84695499999984,
                    "velocity": 0.3543307086614173,
                    "duration": 0.4249289999999917
                },
                {
                    "name": "G#5",
                    "midi": 80,
                    "time": 168.27188399999983,
                    "velocity": 0.4566929133858268,
                    "duration": 0.4249289999999917
                },
                {
                    "name": "G#4",
                    "midi": 68,
                    "time": 168.27188399999983,
                    "velocity": 0.3858267716535433,
                    "duration": 0.4249289999999917
                },
                {
                    "name": "F#4",
                    "midi": 66,
                    "time": 168.69681299999982,
                    "velocity": 0.36220472440944884,
                    "duration": 0.4036825500000134
                },
                {
                    "name": "F#5",
                    "midi": 78,
                    "time": 168.69681299999982,
                    "velocity": 0.4330708661417323,
                    "duration": 0.4036825500000134
                },
                {
                    "name": "F#4",
                    "midi": 66,
                    "time": 169.12174199999984,
                    "velocity": 0.4566929133858268,
                    "duration": 0.4249289999999917
                },
                {
                    "name": "F#5",
                    "midi": 78,
                    "time": 169.12174199999984,
                    "velocity": 0.5511811023622047,
                    "duration": 0.4249289999999917
                },
                {
                    "name": "G#5",
                    "midi": 80,
                    "time": 169.54667099999983,
                    "velocity": 0.5039370078740157,
                    "duration": 0.4249289999999917
                },
                {
                    "name": "G#4",
                    "midi": 68,
                    "time": 169.54667099999983,
                    "velocity": 0.4251968503937008,
                    "duration": 0.4249289999999917
                },
                {
                    "name": "A4",
                    "midi": 69,
                    "time": 169.97159999999982,
                    "velocity": 0.5118110236220472,
                    "duration": 0.4249289999999917
                },
                {
                    "name": "A5",
                    "midi": 81,
                    "time": 169.97159999999982,
                    "velocity": 0.6062992125984252,
                    "duration": 0.4249289999999917
                },
                {
                    "name": "C#6",
                    "midi": 85,
                    "time": 170.39652899999982,
                    "velocity": 0.5354330708661418,
                    "duration": 0.4249289999999917
                },
                {
                    "name": "C#5",
                    "midi": 73,
                    "time": 170.39652899999982,
                    "velocity": 0.44881889763779526,
                    "duration": 0.4249289999999917
                },
                {
                    "name": "B5",
                    "midi": 83,
                    "time": 170.8214579999998,
                    "velocity": 0.6299212598425197,
                    "duration": 0.4249289999999917
                },
                {
                    "name": "B4",
                    "midi": 71,
                    "time": 170.8214579999998,
                    "velocity": 0.5275590551181102,
                    "duration": 0.4249289999999917
                },
                {
                    "name": "D#5",
                    "midi": 75,
                    "time": 171.2463869999998,
                    "velocity": 0.5511811023622047,
                    "duration": 0.31869674999998665
                },
                {
                    "name": "A5",
                    "midi": 81,
                    "time": 171.2463869999998,
                    "velocity": 0.5511811023622047,
                    "duration": 0.31869674999998665
                },
                {
                    "name": "D#6",
                    "midi": 87,
                    "time": 171.2463869999998,
                    "velocity": 0.6535433070866141,
                    "duration": 0.31869674999998665
                },
                {
                    "name": "E5",
                    "midi": 76,
                    "time": 171.6713159999998,
                    "velocity": 0.5984251968503937,
                    "duration": 0.8498580000000118
                },
                {
                    "name": "G#5",
                    "midi": 80,
                    "time": 171.6713159999998,
                    "velocity": 0.5984251968503937,
                    "duration": 0.8498580000000118
                },
                {
                    "name": "E6",
                    "midi": 88,
                    "time": 171.6713159999998,
                    "velocity": 0.7165354330708661,
                    "duration": 0.8498580000000118
                },
                {
                    "name": "G#4",
                    "midi": 68,
                    "time": 172.9461029999998,
                    "velocity": 0.3228346456692913,
                    "duration": 0.4249289999999917
                },
                {
                    "name": "E4",
                    "midi": 64,
                    "time": 172.9461029999998,
                    "velocity": 0.2677165354330709,
                    "duration": 0.4249289999999917
                },
                {
                    "name": "A4",
                    "midi": 69,
                    "time": 173.3710319999998,
                    "velocity": 0.36220472440944884,
                    "duration": 0.4249289999999917
                },
                {
                    "name": "D#4",
                    "midi": 63,
                    "time": 173.3710319999998,
                    "velocity": 0.30708661417322836,
                    "duration": 0.8498579999999833
                },
                {
                    "name": "C#5",
                    "midi": 73,
                    "time": 173.79596099999978,
                    "velocity": 0.30708661417322836,
                    "duration": 0.4249289999999917
                },
                {
                    "name": "B4",
                    "midi": 71,
                    "time": 174.22088999999977,
                    "velocity": 0.3543307086614173,
                    "duration": 0.4249289999999917
                },
                {
                    "name": "E4",
                    "midi": 64,
                    "time": 174.22088999999977,
                    "velocity": 0.2992125984251969,
                    "duration": 0.4249289999999917
                },
                {
                    "name": "D#5",
                    "midi": 75,
                    "time": 174.64581899999976,
                    "velocity": 0.3779527559055118,
                    "duration": 0.31869674999998665
                },
                {
                    "name": "A4",
                    "midi": 69,
                    "time": 174.64581899999976,
                    "velocity": 0.31496062992125984,
                    "duration": 0.31869674999998665
                },
                {
                    "name": "E5",
                    "midi": 76,
                    "time": 175.07074799999975,
                    "velocity": 0.3543307086614173,
                    "duration": 0.4249289999999917
                },
                {
                    "name": "G#4",
                    "midi": 68,
                    "time": 175.07074799999975,
                    "velocity": 0.2992125984251969,
                    "duration": 0.4249289999999917
                },
                {
                    "name": "G4",
                    "midi": 67,
                    "time": 175.49567699999974,
                    "velocity": 0.2677165354330709,
                    "duration": 0.8498580000000118
                },
                {
                    "name": "G5",
                    "midi": 79,
                    "time": 176.34553499999976,
                    "velocity": 0.44881889763779526,
                    "duration": 0.4249289999999917
                },
                {
                    "name": "A5",
                    "midi": 81,
                    "time": 176.77046399999975,
                    "velocity": 0.5275590551181102,
                    "duration": 0.4249289999999917
                },
                {
                    "name": "C6",
                    "midi": 84,
                    "time": 177.19539299999974,
                    "velocity": 0.5118110236220472,
                    "duration": 0.4249289999999917
                },
                {
                    "name": "B5",
                    "midi": 83,
                    "time": 177.62032199999973,
                    "velocity": 0.5984251968503937,
                    "duration": 0.4249289999999917
                },
                {
                    "name": "D#6",
                    "midi": 87,
                    "time": 178.04525099999972,
                    "velocity": 0.7322834645669292,
                    "duration": 0.31869674999998665
                },
                {
                    "name": "A5",
                    "midi": 81,
                    "time": 178.04525099999972,
                    "velocity": 0.6220472440944882,
                    "duration": 0.31869674999998665
                },
                {
                    "name": "D#5",
                    "midi": 75,
                    "time": 178.04525099999972,
                    "velocity": 0.6220472440944882,
                    "duration": 0.31869674999998665
                },
                {
                    "name": "E5",
                    "midi": 76,
                    "time": 178.47017999999971,
                    "velocity": 0.6692913385826772,
                    "duration": 0.8498580000000118
                },
                {
                    "name": "G5",
                    "midi": 79,
                    "time": 178.47017999999971,
                    "velocity": 0.6692913385826772,
                    "duration": 0.8498580000000118
                },
                {
                    "name": "E6",
                    "midi": 88,
                    "time": 178.47017999999971,
                    "velocity": 0.7952755905511811,
                    "duration": 0.8498580000000118
                },
                {
                    "name": "G4",
                    "midi": 67,
                    "time": 179.74496699999972,
                    "velocity": 0.3700787401574803,
                    "duration": 0.4249289999999917
                },
                {
                    "name": "A4",
                    "midi": 69,
                    "time": 180.1698959999997,
                    "velocity": 0.41732283464566927,
                    "duration": 0.4249289999999917
                },
                {
                    "name": "C5",
                    "midi": 72,
                    "time": 180.5948249999997,
                    "velocity": 0.3779527559055118,
                    "duration": 0.4249289999999917
                },
                {
                    "name": "B4",
                    "midi": 71,
                    "time": 181.0197539999997,
                    "velocity": 0.3858267716535433,
                    "duration": 0.4249289999999917
                },
                {
                    "name": "A4",
                    "midi": 69,
                    "time": 181.44468299999969,
                    "velocity": 0.3228346456692913,
                    "duration": 0.21246450000001005
                },
                {
                    "name": "D#5",
                    "midi": 75,
                    "time": 181.44468299999969,
                    "velocity": 0.3858267716535433,
                    "duration": 0.21246450000001005
                },
                {
                    "name": "E5",
                    "midi": 76,
                    "time": 181.8696119999997,
                    "velocity": 0.44881889763779526,
                    "duration": 0.21246450000001005
                },
                {
                    "name": "G4",
                    "midi": 67,
                    "time": 181.8696119999997,
                    "velocity": 0.3700787401574803,
                    "duration": 0.21246450000001005
                },
                {
                    "name": "E5",
                    "midi": 76,
                    "time": 182.29454099999973,
                    "velocity": 0.5275590551181102,
                    "duration": 0.21246450000001005
                },
                {
                    "name": "G5",
                    "midi": 79,
                    "time": 182.29454099999973,
                    "velocity": 0.5275590551181102,
                    "duration": 0.21246450000001005
                },
                {
                    "name": "C6",
                    "midi": 84,
                    "time": 182.71946999999975,
                    "velocity": 0.5748031496062992,
                    "duration": 0.21246450000001005
                },
                {
                    "name": "E5",
                    "midi": 76,
                    "time": 182.71946999999975,
                    "velocity": 0.5748031496062992,
                    "duration": 0.21246450000001005
                },
                {
                    "name": "E5",
                    "midi": 76,
                    "time": 183.14439899999977,
                    "velocity": 0.5748031496062992,
                    "duration": 0.21246450000001005
                },
                {
                    "name": "C6",
                    "midi": 84,
                    "time": 183.14439899999977,
                    "velocity": 0.5748031496062992,
                    "duration": 0.21246450000001005
                },
                {
                    "name": "E5",
                    "midi": 76,
                    "time": 183.56932799999979,
                    "velocity": 0.6614173228346457,
                    "duration": 0.21246450000001005
                },
                {
                    "name": "C6",
                    "midi": 84,
                    "time": 183.56932799999979,
                    "velocity": 0.6614173228346457,
                    "duration": 0.21246450000001005
                },
                {
                    "name": "C6",
                    "midi": 84,
                    "time": 183.9942569999998,
                    "velocity": 0.6535433070866141,
                    "duration": 0.21246450000001005
                },
                {
                    "name": "A5",
                    "midi": 81,
                    "time": 183.9942569999998,
                    "velocity": 0.6535433070866141,
                    "duration": 0.21246450000001005
                },
                {
                    "name": "F6",
                    "midi": 89,
                    "time": 184.41918599999983,
                    "velocity": 0.6850393700787402,
                    "duration": 0.21246450000001005
                },
                {
                    "name": "D6",
                    "midi": 86,
                    "time": 184.41918599999983,
                    "velocity": 0.6850393700787402,
                    "duration": 0.21246450000001005
                },
                {
                    "name": "F6",
                    "midi": 89,
                    "time": 184.84411499999985,
                    "velocity": 0.6692913385826772,
                    "duration": 0.21246450000001005
                },
                {
                    "name": "D6",
                    "midi": 86,
                    "time": 184.84411499999985,
                    "velocity": 0.6692913385826772,
                    "duration": 0.21246450000001005
                },
                {
                    "name": "F6",
                    "midi": 89,
                    "time": 185.26904399999987,
                    "velocity": 0.7086614173228346,
                    "duration": 0.21246450000001005
                },
                {
                    "name": "D6",
                    "midi": 86,
                    "time": 185.26904399999987,
                    "velocity": 0.7086614173228346,
                    "duration": 0.21246450000001005
                },
                {
                    "name": "D6",
                    "midi": 86,
                    "time": 185.6939729999999,
                    "velocity": 0.6771653543307087,
                    "duration": 0.21246450000001005
                },
                {
                    "name": "F6",
                    "midi": 89,
                    "time": 185.6939729999999,
                    "velocity": 0.6771653543307087,
                    "duration": 0.21246450000001005
                },
                {
                    "name": "D6",
                    "midi": 86,
                    "time": 186.1189019999999,
                    "velocity": 0.6929133858267716,
                    "duration": 0.21246450000001005
                },
                {
                    "name": "F6",
                    "midi": 89,
                    "time": 186.1189019999999,
                    "velocity": 0.6929133858267716,
                    "duration": 0.21246450000001005
                },
                {
                    "name": "D6",
                    "midi": 86,
                    "time": 186.54383099999993,
                    "velocity": 0.7401574803149606,
                    "duration": 0.21246450000001005
                },
                {
                    "name": "F6",
                    "midi": 89,
                    "time": 186.54383099999993,
                    "velocity": 0.7401574803149606,
                    "duration": 0.21246450000001005
                },
                {
                    "name": "F6",
                    "midi": 89,
                    "time": 186.96875999999995,
                    "velocity": 0.8031496062992126,
                    "duration": 3.8243610000000103
                },
                {
                    "name": "D6",
                    "midi": 86,
                    "time": 186.96875999999995,
                    "velocity": 0.8031496062992126,
                    "duration": 3.8243610000000103
                },
                {
                    "name": "D6",
                    "midi": 86,
                    "time": 190.79312099999996,
                    "velocity": 0.4881889763779528,
                    "duration": 0.8498580000000118
                },
                {
                    "name": "F6",
                    "midi": 89,
                    "time": 190.79312099999996,
                    "velocity": 0.4881889763779528,
                    "duration": 0.8498580000000118
                },
                {
                    "name": "E6",
                    "midi": 88,
                    "time": 191.64297899999997,
                    "velocity": 0.4251968503937008,
                    "duration": 0.21246450000001005
                },
                {
                    "name": "C6",
                    "midi": 84,
                    "time": 191.64297899999997,
                    "velocity": 0.4251968503937008,
                    "duration": 0.21246450000001005
                },
                {
                    "name": "D6",
                    "midi": 86,
                    "time": 192.067908,
                    "velocity": 0.36220472440944884,
                    "duration": 0.21246450000001005
                },
                {
                    "name": "D5",
                    "midi": 74,
                    "time": 192.492837,
                    "velocity": 0.3228346456692913,
                    "duration": 0.21246450000001005
                },
                {
                    "name": "A5",
                    "midi": 81,
                    "time": 192.492837,
                    "velocity": 0.3858267716535433,
                    "duration": 0.21246450000001005
                },
                {
                    "name": "G5",
                    "midi": 79,
                    "time": 192.91776600000003,
                    "velocity": 0.33858267716535434,
                    "duration": 0.4249289999999917
                },
                {
                    "name": "E5",
                    "midi": 76,
                    "time": 192.91776600000003,
                    "velocity": 0.28346456692913385,
                    "duration": 0.4249289999999917
                },
                {
                    "name": "G5",
                    "midi": 79,
                    "time": 193.34269500000002,
                    "velocity": 0.33858267716535434,
                    "duration": 0.21246450000001005
                },
                {
                    "name": "D5",
                    "midi": 74,
                    "time": 193.34269500000002,
                    "velocity": 0.28346456692913385,
                    "duration": 0.21246450000001005
                },
                {
                    "name": "B4",
                    "midi": 71,
                    "time": 193.34269500000002,
                    "velocity": 0.28346456692913385,
                    "duration": 0.21246450000001005
                },
                {
                    "name": "G4",
                    "midi": 67,
                    "time": 193.55515950000003,
                    "velocity": 0.31496062992125984,
                    "duration": 0.21246450000001005
                },
                {
                    "name": "E5",
                    "midi": 76,
                    "time": 193.76762400000004,
                    "velocity": 0.33858267716535434,
                    "duration": 1.6997159999999951
                },
                {
                    "name": "C5",
                    "midi": 72,
                    "time": 193.76762400000004,
                    "velocity": 0.33858267716535434,
                    "duration": 1.6997159999999951
                },
                {
                    "name": "G4",
                    "midi": 67,
                    "time": 193.76762400000004,
                    "velocity": 0.28346456692913385,
                    "duration": 1.6997159999999951
                },
                {
                    "name": "F4",
                    "midi": 65,
                    "time": 195.46734000000004,
                    "velocity": 0.2204724409448819,
                    "duration": 0.8498580000000118
                },
                {
                    "name": "D5",
                    "midi": 74,
                    "time": 195.46734000000004,
                    "velocity": 0.2677165354330709,
                    "duration": 0.8498580000000118
                },
                {
                    "name": "F5",
                    "midi": 77,
                    "time": 195.46734000000004,
                    "velocity": 0.2677165354330709,
                    "duration": 0.8498580000000118
                },
                {
                    "name": "G4",
                    "midi": 67,
                    "time": 196.31719800000005,
                    "velocity": 0.1968503937007874,
                    "duration": 0.8498580000000118
                },
                {
                    "name": "C5",
                    "midi": 72,
                    "time": 196.31719800000005,
                    "velocity": 0.23622047244094488,
                    "duration": 0.8498580000000118
                },
                {
                    "name": "E5",
                    "midi": 76,
                    "time": 196.31719800000005,
                    "velocity": 0.23622047244094488,
                    "duration": 0.8498580000000118
                },
                {
                    "name": "A4",
                    "midi": 69,
                    "time": 197.16705600000006,
                    "velocity": 0.30708661417322836,
                    "duration": 0.8498580000000118
                },
                {
                    "name": "D5",
                    "midi": 74,
                    "time": 197.16705600000006,
                    "velocity": 0.30708661417322836,
                    "duration": 0.8498580000000118
                },
                {
                    "name": "C5",
                    "midi": 72,
                    "time": 198.01691400000007,
                    "velocity": 0.2755905511811024,
                    "duration": 1.6997160000000235
                },
                {
                    "name": "A4",
                    "midi": 69,
                    "time": 198.01691400000007,
                    "velocity": 0.2283464566929134,
                    "duration": 0.8498580000000118
                },
                {
                    "name": "G4",
                    "midi": 67,
                    "time": 198.86677200000008,
                    "velocity": 0.25984251968503935,
                    "duration": 0.8498580000000118
                },
                {
                    "name": "B4",
                    "midi": 71,
                    "time": 199.7166300000001,
                    "velocity": 0.4409448818897638,
                    "duration": 0.4249289999999917
                },
                {
                    "name": "G4",
                    "midi": 67,
                    "time": 199.7166300000001,
                    "velocity": 0.2677165354330709,
                    "duration": 0.8498579999999833
                },
                {
                    "name": "G5",
                    "midi": 79,
                    "time": 200.1415590000001,
                    "velocity": 0.47244094488188976,
                    "duration": 0.4249289999999917
                },
                {
                    "name": "G4",
                    "midi": 67,
                    "time": 200.56648800000008,
                    "velocity": 0.4015748031496063,
                    "duration": 1.6997159999999951
                },
                {
                    "name": "D#5",
                    "midi": 75,
                    "time": 200.56648800000008,
                    "velocity": 0.4015748031496063,
                    "duration": 1.6997159999999951
                },
                {
                    "name": "G5",
                    "midi": 79,
                    "time": 200.56648800000008,
                    "velocity": 0.47244094488188976,
                    "duration": 1.6997159999999951
                },
                {
                    "name": "F4",
                    "midi": 65,
                    "time": 202.26620400000007,
                    "velocity": 0.36220472440944884,
                    "duration": 0.8498580000000118
                },
                {
                    "name": "D5",
                    "midi": 74,
                    "time": 202.26620400000007,
                    "velocity": 0.36220472440944884,
                    "duration": 0.8498580000000118
                },
                {
                    "name": "F5",
                    "midi": 77,
                    "time": 202.26620400000007,
                    "velocity": 0.44881889763779526,
                    "duration": 0.8498580000000118
                },
                {
                    "name": "D#4",
                    "midi": 63,
                    "time": 203.11606200000008,
                    "velocity": 0.3700787401574803,
                    "duration": 0.8498580000000118
                },
                {
                    "name": "C5",
                    "midi": 72,
                    "time": 203.11606200000008,
                    "velocity": 0.3700787401574803,
                    "duration": 0.8498580000000118
                },
                {
                    "name": "D#5",
                    "midi": 75,
                    "time": 203.11606200000008,
                    "velocity": 0.4566929133858268,
                    "duration": 0.8498580000000118
                },
                {
                    "name": "G4",
                    "midi": 67,
                    "time": 203.11606200000008,
                    "velocity": 0.3700787401574803,
                    "duration": 0.8498580000000118
                },
                {
                    "name": "G#4",
                    "midi": 68,
                    "time": 203.9659200000001,
                    "velocity": 0.4881889763779528,
                    "duration": 0.8498580000000118
                },
                {
                    "name": "D5",
                    "midi": 74,
                    "time": 203.9659200000001,
                    "velocity": 0.5748031496062992,
                    "duration": 0.8498580000000118
                },
                {
                    "name": "A4",
                    "midi": 69,
                    "time": 204.8157780000001,
                    "velocity": 0.49606299212598426,
                    "duration": 0.8498580000000118
                },
                {
                    "name": "C5",
                    "midi": 72,
                    "time": 204.8157780000001,
                    "velocity": 0.5826771653543307,
                    "duration": 1.6997160000000235
                },
                {
                    "name": "G4",
                    "midi": 67,
                    "time": 205.66563600000012,
                    "velocity": 0.5039370078740157,
                    "duration": 0.8498580000000118
                },
                {
                    "name": "F#4",
                    "midi": 66,
                    "time": 206.51549400000013,
                    "velocity": 0.5984251968503937,
                    "duration": 0.4249289999999917
                },
                {
                    "name": "C5",
                    "midi": 72,
                    "time": 206.51549400000013,
                    "velocity": 0.5984251968503937,
                    "duration": 0.4249289999999917
                },
                {
                    "name": "G#5",
                    "midi": 80,
                    "time": 206.94042300000012,
                    "velocity": 0.6456692913385826,
                    "duration": 0.4249289999999917
                },
                {
                    "name": "G#5",
                    "midi": 80,
                    "time": 207.36535200000012,
                    "velocity": 0.33858267716535434,
                    "duration": 1.6997159999999951
                },
                {
                    "name": "E5",
                    "midi": 76,
                    "time": 207.36535200000012,
                    "velocity": 0.33858267716535434,
                    "duration": 1.6997159999999951
                },
                {
                    "name": "G#4",
                    "midi": 68,
                    "time": 207.36535200000012,
                    "velocity": 0.28346456692913385,
                    "duration": 1.6997159999999951
                },
                {
                    "name": "F#4",
                    "midi": 66,
                    "time": 209.0650680000001,
                    "velocity": 0.2204724409448819,
                    "duration": 0.8498580000000118
                },
                {
                    "name": "D#5",
                    "midi": 75,
                    "time": 209.0650680000001,
                    "velocity": 0.2677165354330709,
                    "duration": 0.8498580000000118
                },
                {
                    "name": "F#5",
                    "midi": 78,
                    "time": 209.0650680000001,
                    "velocity": 0.2677165354330709,
                    "duration": 0.8498580000000118
                },
                {
                    "name": "G#4",
                    "midi": 68,
                    "time": 209.91492600000012,
                    "velocity": 0.1968503937007874,
                    "duration": 0.8498580000000118
                },
                {
                    "name": "C#5",
                    "midi": 73,
                    "time": 209.91492600000012,
                    "velocity": 0.23622047244094488,
                    "duration": 0.8498580000000118
                },
                {
                    "name": "E5",
                    "midi": 76,
                    "time": 209.91492600000012,
                    "velocity": 0.23622047244094488,
                    "duration": 0.8498580000000118
                },
                {
                    "name": "A4",
                    "midi": 69,
                    "time": 210.76478400000013,
                    "velocity": 0.30708661417322836,
                    "duration": 0.8498580000000118
                },
                {
                    "name": "D#5",
                    "midi": 75,
                    "time": 210.76478400000013,
                    "velocity": 0.30708661417322836,
                    "duration": 0.8498580000000118
                },
                {
                    "name": "C#5",
                    "midi": 73,
                    "time": 211.61464200000015,
                    "velocity": 0.2755905511811024,
                    "duration": 1.6997160000000235
                },
                {
                    "name": "A#4",
                    "midi": 70,
                    "time": 211.61464200000015,
                    "velocity": 0.2283464566929134,
                    "duration": 0.8498580000000118
                },
                {
                    "name": "G#4",
                    "midi": 68,
                    "time": 212.46450000000016,
                    "velocity": 0.25984251968503935,
                    "duration": 0.8498580000000118
                },
                {
                    "name": "C5",
                    "midi": 72,
                    "time": 213.31435800000017,
                    "velocity": 0.4409448818897638,
                    "duration": 0.4249289999999917
                },
                {
                    "name": "G#4",
                    "midi": 68,
                    "time": 213.31435800000017,
                    "velocity": 0.2677165354330709,
                    "duration": 0.8498579999999833
                },
                {
                    "name": "G#5",
                    "midi": 80,
                    "time": 213.73928700000016,
                    "velocity": 0.47244094488188976,
                    "duration": 0.4249289999999917
                },
                {
                    "name": "G#4",
                    "midi": 68,
                    "time": 214.16421600000015,
                    "velocity": 0.4015748031496063,
                    "duration": 1.6997159999999951
                },
                {
                    "name": "F5",
                    "midi": 77,
                    "time": 214.16421600000015,
                    "velocity": 0.4015748031496063,
                    "duration": 1.6997159999999951
                },
                {
                    "name": "G#5",
                    "midi": 80,
                    "time": 214.16421600000015,
                    "velocity": 0.47244094488188976,
                    "duration": 1.6997159999999951
                },
                {
                    "name": "F#4",
                    "midi": 66,
                    "time": 215.86393200000015,
                    "velocity": 0.36220472440944884,
                    "duration": 0.8498580000000118
                },
                {
                    "name": "D#5",
                    "midi": 75,
                    "time": 215.86393200000015,
                    "velocity": 0.36220472440944884,
                    "duration": 0.8498580000000118
                },
                {
                    "name": "F#5",
                    "midi": 78,
                    "time": 215.86393200000015,
                    "velocity": 0.44881889763779526,
                    "duration": 0.8498580000000118
                },
                {
                    "name": "F4",
                    "midi": 65,
                    "time": 216.71379000000016,
                    "velocity": 0.3700787401574803,
                    "duration": 0.8498580000000118
                },
                {
                    "name": "C#5",
                    "midi": 73,
                    "time": 216.71379000000016,
                    "velocity": 0.3700787401574803,
                    "duration": 0.8498580000000118
                },
                {
                    "name": "F5",
                    "midi": 77,
                    "time": 216.71379000000016,
                    "velocity": 0.4566929133858268,
                    "duration": 0.8498580000000118
                },
                {
                    "name": "G#4",
                    "midi": 68,
                    "time": 216.71379000000016,
                    "velocity": 0.3700787401574803,
                    "duration": 0.8498580000000118
                },
                {
                    "name": "A4",
                    "midi": 69,
                    "time": 217.56364800000017,
                    "velocity": 0.4881889763779528,
                    "duration": 0.8498580000000118
                },
                {
                    "name": "D#5",
                    "midi": 75,
                    "time": 217.56364800000017,
                    "velocity": 0.5748031496062992,
                    "duration": 0.8498580000000118
                },
                {
                    "name": "A4",
                    "midi": 69,
                    "time": 218.41350600000018,
                    "velocity": 0.49606299212598426,
                    "duration": 1.6997160000000235
                },
                {
                    "name": "C#5",
                    "midi": 73,
                    "time": 218.41350600000018,
                    "velocity": 0.5826771653543307,
                    "duration": 0.8498580000000118
                },
                {
                    "name": "C5",
                    "midi": 72,
                    "time": 219.2633640000002,
                    "velocity": 0.5039370078740157,
                    "duration": 0.8498580000000118
                },
                {
                    "name": "C#5",
                    "midi": 73,
                    "time": 220.1132220000002,
                    "velocity": 0.6456692913385826,
                    "duration": 0.4249289999999917
                },
                {
                    "name": "A4",
                    "midi": 69,
                    "time": 220.1132220000002,
                    "velocity": 0.6456692913385826,
                    "duration": 0.4249289999999917
                },
                {
                    "name": "F#5",
                    "midi": 78,
                    "time": 220.5381510000002,
                    "velocity": 0.6850393700787402,
                    "duration": 0.4249289999999917
                },
                {
                    "name": "A5",
                    "midi": 81,
                    "time": 220.5381510000002,
                    "velocity": 0.6850393700787402,
                    "duration": 0.4249289999999917
                },
                {
                    "name": "A4",
                    "midi": 69,
                    "time": 220.9630800000002,
                    "velocity": 0.6929133858267716,
                    "duration": 3.3994319999999902
                },
                {
                    "name": "F#5",
                    "midi": 78,
                    "time": 220.9630800000002,
                    "velocity": 0.6929133858267716,
                    "duration": 3.3994319999999902
                },
                {
                    "name": "A5",
                    "midi": 81,
                    "time": 220.9630800000002,
                    "velocity": 0.7952755905511811,
                    "duration": 3.3994319999999902
                },
                {
                    "name": "D#5",
                    "midi": 75,
                    "time": 224.36251200000018,
                    "velocity": 0.6929133858267716,
                    "duration": 3.3994319999999902
                },
                {
                    "name": "F#5",
                    "midi": 78,
                    "time": 224.36251200000018,
                    "velocity": 0.6929133858267716,
                    "duration": 3.3994319999999902
                },
                {
                    "name": "A5",
                    "midi": 81,
                    "time": 224.36251200000018,
                    "velocity": 0.6929133858267716,
                    "duration": 3.3994319999999902
                },
                {
                    "name": "D#6",
                    "midi": 87,
                    "time": 224.36251200000018,
                    "velocity": 0.7952755905511811,
                    "duration": 3.3994319999999902
                },
                {
                    "name": "D#6",
                    "midi": 87,
                    "time": 227.76194400000017,
                    "velocity": 0.6929133858267716,
                    "duration": 3.3994319999999902
                },
                {
                    "name": "F#5",
                    "midi": 78,
                    "time": 227.76194400000017,
                    "velocity": 0.6929133858267716,
                    "duration": 3.3994319999999902
                },
                {
                    "name": "A5",
                    "midi": 81,
                    "time": 227.76194400000017,
                    "velocity": 0.6929133858267716,
                    "duration": 3.3994319999999902
                },
                {
                    "name": "F#6",
                    "midi": 90,
                    "time": 227.76194400000017,
                    "velocity": 0.7952755905511811,
                    "duration": 3.3994319999999902
                },
                {
                    "name": "F#5",
                    "midi": 78,
                    "time": 231.16137600000016,
                    "velocity": 0.5354330708661418,
                    "duration": 0.21246450000001005
                },
                {
                    "name": "A4",
                    "midi": 69,
                    "time": 231.58630500000018,
                    "velocity": 0.30708661417322836,
                    "duration": 0.21246450000001005
                },
                {
                    "name": "C5",
                    "midi": 72,
                    "time": 231.7987695000002,
                    "velocity": 0.25196850393700787,
                    "duration": 0.21246450000001005
                },
                {
                    "name": "B4",
                    "midi": 71,
                    "time": 232.0112340000002,
                    "velocity": 0.31496062992125984,
                    "duration": 0.21246450000001005
                },
                {
                    "name": "A#4",
                    "midi": 70,
                    "time": 232.2236985000002,
                    "velocity": 0.29133858267716534,
                    "duration": 0.21246450000001005
                },
                {
                    "name": "B4",
                    "midi": 71,
                    "time": 232.43616300000022,
                    "velocity": 0.3228346456692913,
                    "duration": 0.21246450000001005
                },
                {
                    "name": "G#4",
                    "midi": 68,
                    "time": 232.64862750000023,
                    "velocity": 0.2755905511811024,
                    "duration": 0.21246450000001005
                },
                {
                    "name": "F#5",
                    "midi": 78,
                    "time": 232.86109200000024,
                    "velocity": 0.5354330708661418,
                    "duration": 0.21246450000001005
                },
                {
                    "name": "A4",
                    "midi": 69,
                    "time": 233.28602100000026,
                    "velocity": 0.30708661417322836,
                    "duration": 0.21246450000001005
                },
                {
                    "name": "C5",
                    "midi": 72,
                    "time": 233.49848550000027,
                    "velocity": 0.25196850393700787,
                    "duration": 0.21246450000001005
                },
                {
                    "name": "B4",
                    "midi": 71,
                    "time": 233.71095000000028,
                    "velocity": 0.31496062992125984,
                    "duration": 0.21246450000001005
                },
                {
                    "name": "A#4",
                    "midi": 70,
                    "time": 233.9234145000003,
                    "velocity": 0.29133858267716534,
                    "duration": 0.21246450000001005
                },
                {
                    "name": "B4",
                    "midi": 71,
                    "time": 234.1358790000003,
                    "velocity": 0.3228346456692913,
                    "duration": 0.21246450000001005
                },
                {
                    "name": "G#4",
                    "midi": 68,
                    "time": 234.3483435000003,
                    "velocity": 0.2755905511811024,
                    "duration": 0.21246450000001005
                },
                {
                    "name": "F#5",
                    "midi": 78,
                    "time": 234.56080800000032,
                    "velocity": 0.5354330708661418,
                    "duration": 0.21246450000001005
                },
                {
                    "name": "A4",
                    "midi": 69,
                    "time": 234.98573700000034,
                    "velocity": 0.30708661417322836,
                    "duration": 0.21246450000001005
                },
                {
                    "name": "C5",
                    "midi": 72,
                    "time": 235.19820150000035,
                    "velocity": 0.25196850393700787,
                    "duration": 0.21246450000001005
                },
                {
                    "name": "B4",
                    "midi": 71,
                    "time": 235.41066600000036,
                    "velocity": 0.31496062992125984,
                    "duration": 0.21246450000001005
                },
                {
                    "name": "A#4",
                    "midi": 70,
                    "time": 235.62313050000037,
                    "velocity": 0.29133858267716534,
                    "duration": 0.21246450000001005
                },
                {
                    "name": "B4",
                    "midi": 71,
                    "time": 235.83559500000038,
                    "velocity": 0.3228346456692913,
                    "duration": 0.21246450000001005
                },
                {
                    "name": "A4",
                    "midi": 69,
                    "time": 236.0480595000004,
                    "velocity": 0.2755905511811024,
                    "duration": 0.21246450000001005
                },
                {
                    "name": "G#4",
                    "midi": 68,
                    "time": 236.2605240000004,
                    "velocity": 0.31496062992125984,
                    "duration": 0.21246450000001005
                },
                {
                    "name": "F#4",
                    "midi": 66,
                    "time": 236.4729885000004,
                    "velocity": 0.2440944881889764,
                    "duration": 0.21246450000001005
                },
                {
                    "name": "G#4",
                    "midi": 68,
                    "time": 236.68545300000042,
                    "velocity": 0.2755905511811024,
                    "duration": 0.21246450000001005
                },
                {
                    "name": "F#4",
                    "midi": 66,
                    "time": 236.89791750000043,
                    "velocity": 0.23622047244094488,
                    "duration": 0.21246450000001005
                },
                {
                    "name": "E4",
                    "midi": 64,
                    "time": 237.11038200000044,
                    "velocity": 0.29133858267716534,
                    "duration": 0.21246450000001005
                },
                {
                    "name": "D#4",
                    "midi": 63,
                    "time": 237.32284650000045,
                    "velocity": 0.2283464566929134,
                    "duration": 0.21246450000001005
                },
                {
                    "name": "E4",
                    "midi": 64,
                    "time": 237.53531100000046,
                    "velocity": 0.2283464566929134,
                    "duration": 0.21246450000001005
                },
                {
                    "name": "F#4",
                    "midi": 66,
                    "time": 237.74777550000047,
                    "velocity": 0.2283464566929134,
                    "duration": 0.21246450000001005
                },
                {
                    "name": "G#4",
                    "midi": 68,
                    "time": 237.96024000000048,
                    "velocity": 0.33070866141732286,
                    "duration": 0.8498580000000402
                },
                {
                    "name": "E4",
                    "midi": 64,
                    "time": 237.96024000000048,
                    "velocity": 0.2440944881889764,
                    "duration": 0.21246450000001005
                },
                {
                    "name": "B3",
                    "midi": 59,
                    "time": 238.1727045000005,
                    "velocity": 0.2047244094488189,
                    "duration": 0.21246450000001005
                },
                {
                    "name": "E4",
                    "midi": 64,
                    "time": 238.3851690000005,
                    "velocity": 0.2440944881889764,
                    "duration": 0.21246450000001005
                },
                {
                    "name": "B3",
                    "midi": 59,
                    "time": 238.5976335000005,
                    "velocity": 0.2047244094488189,
                    "duration": 0.21246450000001005
                },
                {
                    "name": "B4",
                    "midi": 71,
                    "time": 238.81009800000052,
                    "velocity": 0.3543307086614173,
                    "duration": 0.4249290000000201
                },
                {
                    "name": "G#4",
                    "midi": 68,
                    "time": 238.81009800000052,
                    "velocity": 0.3543307086614173,
                    "duration": 0.21246450000001005
                },
                {
                    "name": "B3",
                    "midi": 59,
                    "time": 239.02256250000053,
                    "velocity": 0.2125984251968504,
                    "duration": 0.21246450000001005
                },
                {
                    "name": "A4",
                    "midi": 69,
                    "time": 239.23502700000054,
                    "velocity": 0.31496062992125984,
                    "duration": 0.4249290000000201
                },
                {
                    "name": "F#4",
                    "midi": 66,
                    "time": 239.23502700000054,
                    "velocity": 0.31496062992125984,
                    "duration": 0.21246450000001005
                },
                {
                    "name": "B3",
                    "midi": 59,
                    "time": 239.44749150000055,
                    "velocity": 0.2125984251968504,
                    "duration": 0.21246450000001005
                },
                {
                    "name": "E4",
                    "midi": 64,
                    "time": 239.65995600000056,
                    "velocity": 0.2677165354330709,
                    "duration": 0.21246450000001005
                },
                {
                    "name": "G#4",
                    "midi": 68,
                    "time": 239.65995600000056,
                    "velocity": 0.3937007874015748,
                    "duration": 0.4249290000000201
                },
                {
                    "name": "B3",
                    "midi": 59,
                    "time": 239.87242050000057,
                    "velocity": 0.2047244094488189,
                    "duration": 0.21246450000001005
                },
                {
                    "name": "D#4",
                    "midi": 63,
                    "time": 240.08488500000058,
                    "velocity": 0.2125984251968504,
                    "duration": 0.21246450000001005
                },
                {
                    "name": "F#4",
                    "midi": 66,
                    "time": 240.08488500000058,
                    "velocity": 0.3228346456692913,
                    "duration": 0.3718128750000176
                },
                {
                    "name": "B3",
                    "midi": 59,
                    "time": 240.2973495000006,
                    "velocity": 0.1968503937007874,
                    "duration": 0.15934837500000754
                },
                {
                    "name": "D#4",
                    "midi": 63,
                    "time": 240.5098140000006,
                    "velocity": 0.2125984251968504,
                    "duration": 0.21246450000001005
                },
                {
                    "name": "F#4",
                    "midi": 66,
                    "time": 240.5098140000006,
                    "velocity": 0.3228346456692913,
                    "duration": 0.4249290000000201
                },
                {
                    "name": "B3",
                    "midi": 59,
                    "time": 240.7222785000006,
                    "velocity": 0.2047244094488189,
                    "duration": 0.21246450000001005
                },
                {
                    "name": "E4",
                    "midi": 64,
                    "time": 240.93474300000062,
                    "velocity": 0.2204724409448819,
                    "duration": 0.21246450000001005
                },
                {
                    "name": "G#4",
                    "midi": 68,
                    "time": 240.93474300000062,
                    "velocity": 0.33858267716535434,
                    "duration": 0.4249290000000201
                },
                {
                    "name": "B3",
                    "midi": 59,
                    "time": 241.14720750000063,
                    "velocity": 0.2204724409448819,
                    "duration": 0.21246450000001005
                },
                {
                    "name": "E4",
                    "midi": 64,
                    "time": 241.35967200000064,
                    "velocity": 0.23622047244094488,
                    "duration": 0.21246450000001005
                },
                {
                    "name": "A4",
                    "midi": 69,
                    "time": 241.35967200000064,
                    "velocity": 0.36220472440944884,
                    "duration": 0.4249290000000201
                },
                {
                    "name": "B3",
                    "midi": 59,
                    "time": 241.57213650000065,
                    "velocity": 0.2204724409448819,
                    "duration": 0.21246450000001005
                },
                {
                    "name": "E4",
                    "midi": 64,
                    "time": 241.78460100000066,
                    "velocity": 0.28346456692913385,
                    "duration": 0.21246450000001005
                },
                {
                    "name": "C#5",
                    "midi": 73,
                    "time": 241.78460100000066,
                    "velocity": 0.4251968503937008,
                    "duration": 0.4249290000000201
                },
                {
                    "name": "B3",
                    "midi": 59,
                    "time": 241.99706550000067,
                    "velocity": 0.2440944881889764,
                    "duration": 0.21246450000001005
                },
                {
                    "name": "F#4",
                    "midi": 66,
                    "time": 242.20953000000068,
                    "velocity": 0.29133858267716534,
                    "duration": 0.21246450000001005
                },
                {
                    "name": "B4",
                    "midi": 71,
                    "time": 242.20953000000068,
                    "velocity": 0.3700787401574803,
                    "duration": 0.4249290000000201
                },
                {
                    "name": "B3",
                    "midi": 59,
                    "time": 242.4219945000007,
                    "velocity": 0.2047244094488189,
                    "duration": 0.21246450000001005
                },
                {
                    "name": "D#4",
                    "midi": 63,
                    "time": 242.6344590000007,
                    "velocity": 0.1968503937007874,
                    "duration": 0.21246450000001005
                },
                {
                    "name": "F#4",
                    "midi": 66,
                    "time": 242.6344590000007,
                    "velocity": 0.2992125984251969,
                    "duration": 0.4249290000000201
                },
                {
                    "name": "B3",
                    "midi": 59,
                    "time": 242.8469235000007,
                    "velocity": 0.2125984251968504,
                    "duration": 0.21246450000001005
                },
                {
                    "name": "B3",
                    "midi": 59,
                    "time": 243.05938800000072,
                    "velocity": 0.2755905511811024,
                    "duration": 0.8498580000000118
                },
                {
                    "name": "E4",
                    "midi": 64,
                    "time": 243.05938800000072,
                    "velocity": 0.2755905511811024,
                    "duration": 0.8498580000000118
                },
                {
                    "name": "G#4",
                    "midi": 68,
                    "time": 243.05938800000072,
                    "velocity": 0.33070866141732286,
                    "duration": 0.8498580000000118
                },
                {
                    "name": "E5",
                    "midi": 76,
                    "time": 244.33417500000073,
                    "velocity": 0.3700787401574803,
                    "duration": 0.21246450000001005
                },
                {
                    "name": "F#5",
                    "midi": 78,
                    "time": 244.54663950000074,
                    "velocity": 0.33070866141732286,
                    "duration": 0.21246450000001005
                },
                {
                    "name": "G#4",
                    "midi": 68,
                    "time": 244.75910400000075,
                    "velocity": 0.4330708661417323,
                    "duration": 0.8498580000000118
                },
                {
                    "name": "G#5",
                    "midi": 80,
                    "time": 244.75910400000075,
                    "velocity": 0.4330708661417323,
                    "duration": 0.8498580000000118
                },
                {
                    "name": "B4",
                    "midi": 71,
                    "time": 245.60896200000076,
                    "velocity": 0.3937007874015748,
                    "duration": 0.4249289999999917
                },
                {
                    "name": "B5",
                    "midi": 83,
                    "time": 245.60896200000076,
                    "velocity": 0.3937007874015748,
                    "duration": 0.4249289999999917
                },
                {
                    "name": "A4",
                    "midi": 69,
                    "time": 246.03389100000075,
                    "velocity": 0.3700787401574803,
                    "duration": 0.4249289999999917
                },
                {
                    "name": "A5",
                    "midi": 81,
                    "time": 246.03389100000075,
                    "velocity": 0.3700787401574803,
                    "duration": 0.4249289999999917
                },
                {
                    "name": "G#4",
                    "midi": 68,
                    "time": 246.45882000000074,
                    "velocity": 0.4330708661417323,
                    "duration": 0.4249289999999917
                },
                {
                    "name": "G#5",
                    "midi": 80,
                    "time": 246.45882000000074,
                    "velocity": 0.4330708661417323,
                    "duration": 0.4249289999999917
                },
                {
                    "name": "F#4",
                    "midi": 66,
                    "time": 246.88374900000073,
                    "velocity": 0.3543307086614173,
                    "duration": 0.37181287499998916
                },
                {
                    "name": "F#5",
                    "midi": 78,
                    "time": 246.88374900000073,
                    "velocity": 0.3543307086614173,
                    "duration": 0.37181287499998916
                },
                {
                    "name": "F#4",
                    "midi": 66,
                    "time": 247.30867800000073,
                    "velocity": 0.3543307086614173,
                    "duration": 0.4249289999999917
                },
                {
                    "name": "F#5",
                    "midi": 78,
                    "time": 247.30867800000073,
                    "velocity": 0.3543307086614173,
                    "duration": 0.4249289999999917
                },
                {
                    "name": "G#4",
                    "midi": 68,
                    "time": 247.73360700000072,
                    "velocity": 0.3858267716535433,
                    "duration": 0.4249289999999917
                },
                {
                    "name": "G#5",
                    "midi": 80,
                    "time": 247.73360700000072,
                    "velocity": 0.3858267716535433,
                    "duration": 0.4249289999999917
                },
                {
                    "name": "A4",
                    "midi": 69,
                    "time": 248.1585360000007,
                    "velocity": 0.3700787401574803,
                    "duration": 0.4249289999999917
                },
                {
                    "name": "A5",
                    "midi": 81,
                    "time": 248.1585360000007,
                    "velocity": 0.4409448818897638,
                    "duration": 0.4249289999999917
                },
                {
                    "name": "C#5",
                    "midi": 73,
                    "time": 248.5834650000007,
                    "velocity": 0.3937007874015748,
                    "duration": 0.4249289999999917
                },
                {
                    "name": "C#6",
                    "midi": 85,
                    "time": 248.5834650000007,
                    "velocity": 0.47244094488188976,
                    "duration": 0.4249289999999917
                },
                {
                    "name": "B4",
                    "midi": 71,
                    "time": 249.0083940000007,
                    "velocity": 0.36220472440944884,
                    "duration": 0.4249289999999917
                },
                {
                    "name": "B5",
                    "midi": 83,
                    "time": 249.0083940000007,
                    "velocity": 0.4409448818897638,
                    "duration": 0.4249289999999917
                },
                {
                    "name": "D#6",
                    "midi": 87,
                    "time": 249.43332300000068,
                    "velocity": 0.3858267716535433,
                    "duration": 0.4249289999999917
                },
                {
                    "name": "D#5",
                    "midi": 75,
                    "time": 249.43332300000068,
                    "velocity": 0.25196850393700787,
                    "duration": 0.4249289999999917
                },
                {
                    "name": "E6",
                    "midi": 88,
                    "time": 249.85825200000068,
                    "velocity": 0.44881889763779526,
                    "duration": 0.8498580000000118
                },
                {
                    "name": "E5",
                    "midi": 76,
                    "time": 249.85825200000068,
                    "velocity": 0.2755905511811024,
                    "duration": 0.8498580000000118
                },
                {
                    "name": "B4",
                    "midi": 71,
                    "time": 251.13303900000068,
                    "velocity": 0.3700787401574803,
                    "duration": 0.4249289999999917
                },
                {
                    "name": "A#4",
                    "midi": 70,
                    "time": 251.55796800000067,
                    "velocity": 0.4015748031496063,
                    "duration": 0.8498580000000118
                },
                {
                    "name": "E5",
                    "midi": 76,
                    "time": 252.40782600000068,
                    "velocity": 0.4409448818897638,
                    "duration": 0.8498580000000118
                },
                {
                    "name": "D#5",
                    "midi": 75,
                    "time": 253.2576840000007,
                    "velocity": 0.4015748031496063,
                    "duration": 1.2747870000000034
                },
                {
                    "name": "A4",
                    "midi": 69,
                    "time": 254.5324710000007,
                    "velocity": 0.3543307086614173,
                    "duration": 0.4249289999999917
                },
                {
                    "name": "G#4",
                    "midi": 68,
                    "time": 254.9574000000007,
                    "velocity": 0.4015748031496063,
                    "duration": 0.8498580000000118
                },
                {
                    "name": "D5",
                    "midi": 74,
                    "time": 255.8072580000007,
                    "velocity": 0.4251968503937008,
                    "duration": 0.8498580000000118
                },
                {
                    "name": "C#5",
                    "midi": 73,
                    "time": 256.6571160000007,
                    "velocity": 0.4015748031496063,
                    "duration": 1.2747870000000034
                },
                {
                    "name": "C#5",
                    "midi": 73,
                    "time": 257.9319030000007,
                    "velocity": 0.3779527559055118,
                    "duration": 0.4249290000000201
                },
                {
                    "name": "C5",
                    "midi": 72,
                    "time": 258.35683200000074,
                    "velocity": 0.44881889763779526,
                    "duration": 0.4249290000000201
                },
                {
                    "name": "C#5",
                    "midi": 73,
                    "time": 258.78176100000076,
                    "velocity": 0.4566929133858268,
                    "duration": 0.4249290000000201
                },
                {
                    "name": "A4",
                    "midi": 69,
                    "time": 259.2066900000008,
                    "velocity": 0.4330708661417323,
                    "duration": 0.31869675000001507
                },
                {
                    "name": "E4",
                    "midi": 64,
                    "time": 259.2066900000008,
                    "velocity": 0.36220472440944884,
                    "duration": 0.31869675000001507
                },
                {
                    "name": "C#4",
                    "midi": 61,
                    "time": 259.2066900000008,
                    "velocity": 0.36220472440944884,
                    "duration": 0.31869675000001507
                },
                {
                    "name": "G#4",
                    "midi": 68,
                    "time": 259.6316190000008,
                    "velocity": 0.4330708661417323,
                    "duration": 0.31869675000001507
                },
                {
                    "name": "E4",
                    "midi": 64,
                    "time": 259.6316190000008,
                    "velocity": 0.36220472440944884,
                    "duration": 0.31869675000001507
                },
                {
                    "name": "B3",
                    "midi": 59,
                    "time": 259.6316190000008,
                    "velocity": 0.36220472440944884,
                    "duration": 0.31869675000001507
                },
                {
                    "name": "G#4",
                    "midi": 68,
                    "time": 260.0565480000008,
                    "velocity": 0.5984251968503937,
                    "duration": 0.4249290000000201
                },
                {
                    "name": "E4",
                    "midi": 64,
                    "time": 260.0565480000008,
                    "velocity": 0.5039370078740157,
                    "duration": 0.8498580000000402
                },
                {
                    "name": "A#3",
                    "midi": 58,
                    "time": 260.0565480000008,
                    "velocity": 0.5039370078740157,
                    "duration": 0.8498580000000402
                },
                {
                    "name": "F#4",
                    "midi": 66,
                    "time": 260.48147700000084,
                    "velocity": 0.4881889763779528,
                    "duration": 0.832152624999992
                },
                {
                    "name": "E4",
                    "midi": 64,
                    "time": 260.90640600000086,
                    "velocity": 0.49606299212598426,
                    "duration": 0.8498579999999265
                },
                {
                    "name": "A3",
                    "midi": 57,
                    "time": 260.90640600000086,
                    "velocity": 0.49606299212598426,
                    "duration": 0.8498579999999265
                },
                {
                    "name": "F#4",
                    "midi": 66,
                    "time": 261.3313350000008,
                    "velocity": 0.5275590551181102,
                    "duration": 0.4072236249999719
                },
                {
                    "name": "F#4",
                    "midi": 66,
                    "time": 261.7562640000008,
                    "velocity": 0.3858267716535433,
                    "duration": 0.4249290000000201
                },
                {
                    "name": "D#4",
                    "midi": 63,
                    "time": 261.7562640000008,
                    "velocity": 0.3228346456692913,
                    "duration": 0.4249290000000201
                },
                {
                    "name": "A3",
                    "midi": 57,
                    "time": 261.7562640000008,
                    "velocity": 0.3228346456692913,
                    "duration": 0.4249290000000201
                },
                {
                    "name": "B4",
                    "midi": 71,
                    "time": 262.1811930000008,
                    "velocity": 0.2992125984251969,
                    "duration": 0.4249290000000201
                },
                {
                    "name": "D#4",
                    "midi": 63,
                    "time": 262.1811930000008,
                    "velocity": 0.25196850393700787,
                    "duration": 0.8498580000000402
                },
                {
                    "name": "A#4",
                    "midi": 70,
                    "time": 262.6061220000008,
                    "velocity": 0.36220472440944884,
                    "duration": 0.4249290000000201
                },
                {
                    "name": "B4",
                    "midi": 71,
                    "time": 263.03105100000084,
                    "velocity": 0.31496062992125984,
                    "duration": 0.4249290000000201
                },
                {
                    "name": "D#4",
                    "midi": 63,
                    "time": 263.03105100000084,
                    "velocity": 0.2677165354330709,
                    "duration": 0.4249290000000201
                },
                {
                    "name": "E4",
                    "midi": 64,
                    "time": 263.45598000000086,
                    "velocity": 0.4015748031496063,
                    "duration": 0.8498579999999833
                },
                {
                    "name": "B5",
                    "midi": 83,
                    "time": 264.73076700000087,
                    "velocity": 0.3700787401574803,
                    "duration": 0.4249290000000201
                },
                {
                    "name": "B4",
                    "midi": 71,
                    "time": 264.73076700000087,
                    "velocity": 0.3700787401574803,
                    "duration": 0.4249290000000201
                },
                {
                    "name": "A#5",
                    "midi": 82,
                    "time": 265.1556960000009,
                    "velocity": 0.4015748031496063,
                    "duration": 0.8498579999999833
                },
                {
                    "name": "A#4",
                    "midi": 70,
                    "time": 265.1556960000009,
                    "velocity": 0.4015748031496063,
                    "duration": 0.8498579999999833
                },
                {
                    "name": "E6",
                    "midi": 88,
                    "time": 266.00555400000087,
                    "velocity": 0.48031496062992124,
                    "duration": 0.8498579999999833
                },
                {
                    "name": "E5",
                    "midi": 76,
                    "time": 266.00555400000087,
                    "velocity": 0.48031496062992124,
                    "duration": 0.8498579999999833
                },
                {
                    "name": "D#6",
                    "midi": 87,
                    "time": 266.85541200000085,
                    "velocity": 0.4409448818897638,
                    "duration": 1.2747870000000034
                },
                {
                    "name": "D#5",
                    "midi": 75,
                    "time": 266.85541200000085,
                    "velocity": 0.4409448818897638,
                    "duration": 1.2747870000000034
                },
                {
                    "name": "A5",
                    "midi": 81,
                    "time": 268.13019900000086,
                    "velocity": 0.3858267716535433,
                    "duration": 0.4249290000000201
                },
                {
                    "name": "A4",
                    "midi": 69,
                    "time": 268.13019900000086,
                    "velocity": 0.3858267716535433,
                    "duration": 0.4249290000000201
                },
                {
                    "name": "G#5",
                    "midi": 80,
                    "time": 268.5551280000009,
                    "velocity": 0.4409448818897638,
                    "duration": 0.8498579999999833
                },
                {
                    "name": "G#4",
                    "midi": 68,
                    "time": 268.5551280000009,
                    "velocity": 0.4409448818897638,
                    "duration": 0.8498579999999833
                },
                {
                    "name": "D6",
                    "midi": 86,
                    "time": 269.40498600000086,
                    "velocity": 0.4645669291338583,
                    "duration": 0.8498579999999833
                },
                {
                    "name": "D5",
                    "midi": 74,
                    "time": 269.40498600000086,
                    "velocity": 0.4645669291338583,
                    "duration": 0.8498579999999833
                },
                {
                    "name": "C#6",
                    "midi": 85,
                    "time": 270.25484400000084,
                    "velocity": 0.4409448818897638,
                    "duration": 1.2747870000000034
                },
                {
                    "name": "C#5",
                    "midi": 73,
                    "time": 270.25484400000084,
                    "velocity": 0.4409448818897638,
                    "duration": 1.2747870000000034
                },
                {
                    "name": "C#6",
                    "midi": 85,
                    "time": 271.52963100000085,
                    "velocity": 0.3779527559055118,
                    "duration": 0.4249290000000201
                },
                {
                    "name": "C#5",
                    "midi": 73,
                    "time": 271.52963100000085,
                    "velocity": 0.3779527559055118,
                    "duration": 0.4249290000000201
                },
                {
                    "name": "C6",
                    "midi": 84,
                    "time": 271.95456000000087,
                    "velocity": 0.44881889763779526,
                    "duration": 0.4249290000000201
                },
                {
                    "name": "C5",
                    "midi": 72,
                    "time": 271.95456000000087,
                    "velocity": 0.44881889763779526,
                    "duration": 0.4249290000000201
                },
                {
                    "name": "C#6",
                    "midi": 85,
                    "time": 272.3794890000009,
                    "velocity": 0.4566929133858268,
                    "duration": 0.4249290000000201
                },
                {
                    "name": "C#5",
                    "midi": 73,
                    "time": 272.3794890000009,
                    "velocity": 0.4566929133858268,
                    "duration": 0.4249290000000201
                },
                {
                    "name": "A5",
                    "midi": 81,
                    "time": 272.8044180000009,
                    "velocity": 0.4330708661417323,
                    "duration": 0.31869675000001507
                },
                {
                    "name": "A4",
                    "midi": 69,
                    "time": 272.8044180000009,
                    "velocity": 0.4330708661417323,
                    "duration": 0.31869675000001507
                },
                {
                    "name": "G#5",
                    "midi": 80,
                    "time": 273.2293470000009,
                    "velocity": 0.4330708661417323,
                    "duration": 0.31869675000001507
                },
                {
                    "name": "G#4",
                    "midi": 68,
                    "time": 273.2293470000009,
                    "velocity": 0.4330708661417323,
                    "duration": 0.31869675000001507
                },
                {
                    "name": "G#5",
                    "midi": 80,
                    "time": 273.65427600000095,
                    "velocity": 0.5669291338582677,
                    "duration": 0.4249290000000201
                },
                {
                    "name": "G#4",
                    "midi": 68,
                    "time": 273.65427600000095,
                    "velocity": 0.5669291338582677,
                    "duration": 0.4249290000000201
                },
                {
                    "name": "F#5",
                    "midi": 78,
                    "time": 274.07920500000097,
                    "velocity": 0.4881889763779528,
                    "duration": 0.8410053124999877
                },
                {
                    "name": "F#4",
                    "midi": 66,
                    "time": 274.07920500000097,
                    "velocity": 0.4881889763779528,
                    "duration": 0.8410053124999877
                },
                {
                    "name": "F#5",
                    "midi": 78,
                    "time": 274.92906300000095,
                    "velocity": 0.5275590551181102,
                    "duration": 0.403682549999985
                },
                {
                    "name": "F#4",
                    "midi": 66,
                    "time": 274.92906300000095,
                    "velocity": 0.5275590551181102,
                    "duration": 0.403682549999985
                },
                {
                    "name": "F#5",
                    "midi": 78,
                    "time": 275.3539920000009,
                    "velocity": 0.3858267716535433,
                    "duration": 0.4249290000000201
                },
                {
                    "name": "F#4",
                    "midi": 66,
                    "time": 275.3539920000009,
                    "velocity": 0.3858267716535433,
                    "duration": 0.4249290000000201
                },
                {
                    "name": "B5",
                    "midi": 83,
                    "time": 275.77892100000093,
                    "velocity": 0.2992125984251969,
                    "duration": 0.4249290000000201
                },
                {
                    "name": "B4",
                    "midi": 71,
                    "time": 275.77892100000093,
                    "velocity": 0.2992125984251969,
                    "duration": 0.4249290000000201
                },
                {
                    "name": "A#5",
                    "midi": 82,
                    "time": 276.20385000000095,
                    "velocity": 0.36220472440944884,
                    "duration": 0.4249290000000201
                },
                {
                    "name": "A#4",
                    "midi": 70,
                    "time": 276.20385000000095,
                    "velocity": 0.36220472440944884,
                    "duration": 0.4249290000000201
                },
                {
                    "name": "B5",
                    "midi": 83,
                    "time": 276.628779000001,
                    "velocity": 0.31496062992125984,
                    "duration": 0.4249290000000201
                },
                {
                    "name": "B4",
                    "midi": 71,
                    "time": 276.628779000001,
                    "velocity": 0.31496062992125984,
                    "duration": 0.4249290000000201
                },
                {
                    "name": "E5",
                    "midi": 76,
                    "time": 277.053708000001,
                    "velocity": 0.4015748031496063,
                    "duration": 0.8498579999999833
                },
                {
                    "name": "E4",
                    "midi": 64,
                    "time": 277.053708000001,
                    "velocity": 0.4015748031496063,
                    "duration": 0.8498579999999833
                },
                {
                    "name": "E4",
                    "midi": 64,
                    "time": 278.328495000001,
                    "velocity": 0.33858267716535434,
                    "duration": 0.21246450000001005
                },
                {
                    "name": "F#4",
                    "midi": 66,
                    "time": 278.540959500001,
                    "velocity": 0.30708661417322836,
                    "duration": 0.21246450000001005
                },
                {
                    "name": "E4",
                    "midi": 64,
                    "time": 278.753424000001,
                    "velocity": 0.2677165354330709,
                    "duration": 0.21246450000001005
                },
                {
                    "name": "G#4",
                    "midi": 68,
                    "time": 278.753424000001,
                    "velocity": 0.3937007874015748,
                    "duration": 0.8498580000000402
                },
                {
                    "name": "B3",
                    "midi": 59,
                    "time": 278.96588850000103,
                    "velocity": 0.2047244094488189,
                    "duration": 0.21246450000001005
                },
                {
                    "name": "E4",
                    "midi": 64,
                    "time": 279.17835300000104,
                    "velocity": 0.2440944881889764,
                    "duration": 0.21246450000001005
                },
                {
                    "name": "B3",
                    "midi": 59,
                    "time": 279.39081750000105,
                    "velocity": 0.2047244094488189,
                    "duration": 0.21246450000001005
                },
                {
                    "name": "G#4",
                    "midi": 68,
                    "time": 279.60328200000106,
                    "velocity": 0.23622047244094488,
                    "duration": 0.21246450000001005
                },
                {
                    "name": "B4",
                    "midi": 71,
                    "time": 279.60328200000106,
                    "velocity": 0.36220472440944884,
                    "duration": 0.4249290000000201
                },
                {
                    "name": "B3",
                    "midi": 59,
                    "time": 279.81574650000107,
                    "velocity": 0.2125984251968504,
                    "duration": 0.21246450000001005
                },
                {
                    "name": "F#4",
                    "midi": 66,
                    "time": 280.0282110000011,
                    "velocity": 0.2204724409448819,
                    "duration": 0.21246450000001005
                },
                {
                    "name": "A4",
                    "midi": 69,
                    "time": 280.0282110000011,
                    "velocity": 0.33858267716535434,
                    "duration": 0.4249290000000201
                },
                {
                    "name": "B3",
                    "midi": 59,
                    "time": 280.2406755000011,
                    "velocity": 0.2125984251968504,
                    "duration": 0.21246450000001005
                },
                {
                    "name": "E4",
                    "midi": 64,
                    "time": 280.4531400000011,
                    "velocity": 0.2677165354330709,
                    "duration": 0.21246450000001005
                },
                {
                    "name": "G#4",
                    "midi": 68,
                    "time": 280.4531400000011,
                    "velocity": 0.3937007874015748,
                    "duration": 0.4249290000000201
                },
                {
                    "name": "B3",
                    "midi": 59,
                    "time": 280.6656045000011,
                    "velocity": 0.2047244094488189,
                    "duration": 0.21246450000001005
                },
                {
                    "name": "D#4",
                    "midi": 63,
                    "time": 280.8780690000011,
                    "velocity": 0.2125984251968504,
                    "duration": 0.21246450000001005
                },
                {
                    "name": "F#4",
                    "midi": 66,
                    "time": 280.8780690000011,
                    "velocity": 0.3228346456692913,
                    "duration": 0.37181287499998916
                },
                {
                    "name": "B3",
                    "midi": 59,
                    "time": 281.09053350000113,
                    "velocity": 0.1968503937007874,
                    "duration": 0.15934837499997911
                },
                {
                    "name": "D#4",
                    "midi": 63,
                    "time": 281.3029980000011,
                    "velocity": 0.2125984251968504,
                    "duration": 0.21246450000001005
                },
                {
                    "name": "F#4",
                    "midi": 66,
                    "time": 281.3029980000011,
                    "velocity": 0.3228346456692913,
                    "duration": 0.4249290000000201
                },
                {
                    "name": "B3",
                    "midi": 59,
                    "time": 281.5154625000011,
                    "velocity": 0.2047244094488189,
                    "duration": 0.21246450000001005
                },
                {
                    "name": "E4",
                    "midi": 64,
                    "time": 281.7279270000011,
                    "velocity": 0.2204724409448819,
                    "duration": 0.21246450000001005
                },
                {
                    "name": "G#4",
                    "midi": 68,
                    "time": 281.7279270000011,
                    "velocity": 0.33858267716535434,
                    "duration": 0.4249290000000201
                },
                {
                    "name": "B3",
                    "midi": 59,
                    "time": 281.9403915000011,
                    "velocity": 0.2204724409448819,
                    "duration": 0.21246450000001005
                },
                {
                    "name": "E4",
                    "midi": 64,
                    "time": 282.1528560000011,
                    "velocity": 0.23622047244094488,
                    "duration": 0.21246450000001005
                },
                {
                    "name": "A4",
                    "midi": 69,
                    "time": 282.1528560000011,
                    "velocity": 0.36220472440944884,
                    "duration": 0.4249290000000201
                },
                {
                    "name": "B3",
                    "midi": 59,
                    "time": 282.36532050000113,
                    "velocity": 0.2204724409448819,
                    "duration": 0.21246450000001005
                },
                {
                    "name": "E4",
                    "midi": 64,
                    "time": 282.57778500000114,
                    "velocity": 0.28346456692913385,
                    "duration": 0.21246450000001005
                },
                {
                    "name": "C#5",
                    "midi": 73,
                    "time": 282.57778500000114,
                    "velocity": 0.4251968503937008,
                    "duration": 0.4249290000000201
                },
                {
                    "name": "B3",
                    "midi": 59,
                    "time": 282.79024950000115,
                    "velocity": 0.2440944881889764,
                    "duration": 0.21246450000001005
                },
                {
                    "name": "F#4",
                    "midi": 66,
                    "time": 283.00271400000116,
                    "velocity": 0.29133858267716534,
                    "duration": 0.21246450000001005
                },
                {
                    "name": "B4",
                    "midi": 71,
                    "time": 283.00271400000116,
                    "velocity": 0.3700787401574803,
                    "duration": 0.4249290000000201
                },
                {
                    "name": "B3",
                    "midi": 59,
                    "time": 283.2151785000012,
                    "velocity": 0.2047244094488189,
                    "duration": 0.21246450000001005
                },
                {
                    "name": "D#4",
                    "midi": 63,
                    "time": 283.4276430000012,
                    "velocity": 0.1968503937007874,
                    "duration": 0.21246450000001005
                },
                {
                    "name": "F#4",
                    "midi": 66,
                    "time": 283.4276430000012,
                    "velocity": 0.2992125984251969,
                    "duration": 0.4249290000000201
                },
                {
                    "name": "B3",
                    "midi": 59,
                    "time": 283.6401075000012,
                    "velocity": 0.2125984251968504,
                    "duration": 0.21246450000001005
                },
                {
                    "name": "B3",
                    "midi": 59,
                    "time": 283.8525720000012,
                    "velocity": 0.2755905511811024,
                    "duration": 0.4249290000000201
                },
                {
                    "name": "E4",
                    "midi": 64,
                    "time": 283.8525720000012,
                    "velocity": 0.2755905511811024,
                    "duration": 0.4249290000000201
                },
                {
                    "name": "G#4",
                    "midi": 68,
                    "time": 283.8525720000012,
                    "velocity": 0.33070866141732286,
                    "duration": 0.4249290000000201
                },
                {
                    "name": "F#5",
                    "midi": 78,
                    "time": 284.6493138750012,
                    "velocity": 0.33070866141732286,
                    "duration": 0.05311612499997409
                },
                {
                    "name": "E5",
                    "midi": 76,
                    "time": 284.7024300000012,
                    "velocity": 0.3700787401574803,
                    "duration": 0.21246450000001005
                },
                {
                    "name": "D#5",
                    "midi": 75,
                    "time": 284.9148945000012,
                    "velocity": 0.33070866141732286,
                    "duration": 0.21246450000001005
                },
                {
                    "name": "E5",
                    "midi": 76,
                    "time": 285.1273590000012,
                    "velocity": 0.3779527559055118,
                    "duration": 0.21246450000001005
                },
                {
                    "name": "F#5",
                    "midi": 78,
                    "time": 285.3398235000012,
                    "velocity": 0.33858267716535434,
                    "duration": 0.15934837499997911
                },
                {
                    "name": "A5",
                    "midi": 81,
                    "time": 285.4991718750012,
                    "velocity": 0.3937007874015748,
                    "duration": 0.05311612499997409
                },
                {
                    "name": "G#5",
                    "midi": 80,
                    "time": 285.55228800000117,
                    "velocity": 0.4330708661417323,
                    "duration": 0.21246450000001005
                },
                {
                    "name": "F#5",
                    "midi": 78,
                    "time": 285.7647525000012,
                    "velocity": 0.3937007874015748,
                    "duration": 0.21246450000001005
                },
                {
                    "name": "G#5",
                    "midi": 80,
                    "time": 285.9772170000012,
                    "velocity": 0.4094488188976378,
                    "duration": 0.21246450000001005
                },
                {
                    "name": "A5",
                    "midi": 81,
                    "time": 286.1896815000012,
                    "velocity": 0.4251968503937008,
                    "duration": 0.21246450000001005
                },
                {
                    "name": "B4",
                    "midi": 71,
                    "time": 286.4021460000012,
                    "velocity": 0.3543307086614173,
                    "duration": 0.4249290000000201
                },
                {
                    "name": "B5",
                    "midi": 83,
                    "time": 286.4021460000012,
                    "velocity": 0.41732283464566927,
                    "duration": 0.4249290000000201
                },
                {
                    "name": "A5",
                    "midi": 81,
                    "time": 286.82707500000123,
                    "velocity": 0.41732283464566927,
                    "duration": 0.4249290000000201
                },
                {
                    "name": "A4",
                    "midi": 69,
                    "time": 286.82707500000123,
                    "velocity": 0.3543307086614173,
                    "duration": 0.4249290000000201
                },
                {
                    "name": "G#5",
                    "midi": 80,
                    "time": 287.25200400000125,
                    "velocity": 0.49606299212598426,
                    "duration": 0.4249290000000201
                },
                {
                    "name": "G#4",
                    "midi": 68,
                    "time": 287.25200400000125,
                    "velocity": 0.41732283464566927,
                    "duration": 0.4249290000000201
                },
                {
                    "name": "F#4",
                    "midi": 66,
                    "time": 287.67693300000127,
                    "velocity": 0.4015748031496063,
                    "duration": 0.403682549999985
                },
                {
                    "name": "F#5",
                    "midi": 78,
                    "time": 287.67693300000127,
                    "velocity": 0.48031496062992124,
                    "duration": 0.403682549999985
                },
                {
                    "name": "F#4",
                    "midi": 66,
                    "time": 288.10186200000123,
                    "velocity": 0.4566929133858268,
                    "duration": 0.4249290000000201
                },
                {
                    "name": "F#5",
                    "midi": 78,
                    "time": 288.10186200000123,
                    "velocity": 0.5511811023622047,
                    "duration": 0.4249290000000201
                },
                {
                    "name": "G#5",
                    "midi": 80,
                    "time": 288.52679100000125,
                    "velocity": 0.5039370078740157,
                    "duration": 0.4249290000000201
                },
                {
                    "name": "G#4",
                    "midi": 68,
                    "time": 288.52679100000125,
                    "velocity": 0.4251968503937008,
                    "duration": 0.4249290000000201
                },
                {
                    "name": "A4",
                    "midi": 69,
                    "time": 288.9517200000013,
                    "velocity": 0.5118110236220472,
                    "duration": 0.4249290000000201
                },
                {
                    "name": "A5",
                    "midi": 81,
                    "time": 288.9517200000013,
                    "velocity": 0.6062992125984252,
                    "duration": 0.4249290000000201
                },
                {
                    "name": "C#6",
                    "midi": 85,
                    "time": 289.3766490000013,
                    "velocity": 0.5354330708661418,
                    "duration": 0.4249290000000201
                },
                {
                    "name": "C#5",
                    "midi": 73,
                    "time": 289.3766490000013,
                    "velocity": 0.44881889763779526,
                    "duration": 0.4249290000000201
                },
                {
                    "name": "B5",
                    "midi": 83,
                    "time": 289.8015780000013,
                    "velocity": 0.6299212598425197,
                    "duration": 0.4249290000000201
                },
                {
                    "name": "B4",
                    "midi": 71,
                    "time": 289.8015780000013,
                    "velocity": 0.5275590551181102,
                    "duration": 0.4249290000000201
                },
                {
                    "name": "D#5",
                    "midi": 75,
                    "time": 290.22650700000133,
                    "velocity": 0.5511811023622047,
                    "duration": 0.31869675000001507
                },
                {
                    "name": "A5",
                    "midi": 81,
                    "time": 290.22650700000133,
                    "velocity": 0.5511811023622047,
                    "duration": 0.31869675000001507
                },
                {
                    "name": "D#6",
                    "midi": 87,
                    "time": 290.22650700000133,
                    "velocity": 0.6535433070866141,
                    "duration": 0.31869675000001507
                },
                {
                    "name": "E5",
                    "midi": 76,
                    "time": 290.65143600000135,
                    "velocity": 0.5748031496062992,
                    "duration": 0.8498579999999833
                },
                {
                    "name": "G#5",
                    "midi": 80,
                    "time": 290.65143600000135,
                    "velocity": 0.5748031496062992,
                    "duration": 0.8498579999999833
                },
                {
                    "name": "E6",
                    "midi": 88,
                    "time": 290.65143600000135,
                    "velocity": 0.6929133858267716,
                    "duration": 0.8498579999999833
                },
                {
                    "name": "E4",
                    "midi": 64,
                    "time": 291.92622300000136,
                    "velocity": 0.5748031496062992,
                    "duration": 0.21246450000001005
                },
                {
                    "name": "G#4",
                    "midi": 68,
                    "time": 291.92622300000136,
                    "velocity": 0.6850393700787402,
                    "duration": 0.21246450000001005
                },
                {
                    "name": "E4",
                    "midi": 64,
                    "time": 292.3511520000014,
                    "velocity": 0.6377952755905512,
                    "duration": 1.2747870000000034
                },
                {
                    "name": "G#4",
                    "midi": 68,
                    "time": 292.3511520000014,
                    "velocity": 0.7559055118110236,
                    "duration": 1.2747870000000034
                },
                {
                    "name": "E5",
                    "midi": 76,
                    "time": 293.6259390000014,
                    "velocity": 0.2677165354330709,
                    "duration": 0.21246450000001005
                },
                {
                    "name": "G#4",
                    "midi": 68,
                    "time": 293.6259390000014,
                    "velocity": 0.2204724409448819,
                    "duration": 0.21246450000001005
                },
                {
                    "name": "E4",
                    "midi": 64,
                    "time": 293.6259390000014,
                    "velocity": 0.2204724409448819,
                    "duration": 0.21246450000001005
                },
                {
                    "name": "D#5",
                    "midi": 75,
                    "time": 294.0508680000014,
                    "velocity": 0.30708661417322836,
                    "duration": 1.2747870000000034
                },
                {
                    "name": "G#4",
                    "midi": 68,
                    "time": 294.0508680000014,
                    "velocity": 0.25984251968503935,
                    "duration": 1.2747870000000034
                },
                {
                    "name": "F#4",
                    "midi": 66,
                    "time": 294.0508680000014,
                    "velocity": 0.25984251968503935,
                    "duration": 1.2747870000000034
                },
                {
                    "name": "D#4",
                    "midi": 63,
                    "time": 294.0508680000014,
                    "velocity": 0.25984251968503935,
                    "duration": 1.2747870000000034
                },
                {
                    "name": "D#4",
                    "midi": 63,
                    "time": 295.3256550000014,
                    "velocity": 0.5748031496062992,
                    "duration": 0.21246450000001005
                },
                {
                    "name": "G#4",
                    "midi": 68,
                    "time": 295.3256550000014,
                    "velocity": 0.6850393700787402,
                    "duration": 0.21246450000001005
                },
                {
                    "name": "E4",
                    "midi": 64,
                    "time": 295.7505840000014,
                    "velocity": 0.6377952755905512,
                    "duration": 1.2747870000000034
                },
                {
                    "name": "D4",
                    "midi": 62,
                    "time": 295.7505840000014,
                    "velocity": 0.6377952755905512,
                    "duration": 1.2747870000000034
                },
                {
                    "name": "G#4",
                    "midi": 68,
                    "time": 295.7505840000014,
                    "velocity": 0.7559055118110236,
                    "duration": 1.2747870000000034
                },
                {
                    "name": "D4",
                    "midi": 62,
                    "time": 297.0253710000014,
                    "velocity": 0.2204724409448819,
                    "duration": 0.21246450000001005
                },
                {
                    "name": "D5",
                    "midi": 74,
                    "time": 297.0253710000014,
                    "velocity": 0.2677165354330709,
                    "duration": 0.21246450000001005
                },
                {
                    "name": "E4",
                    "midi": 64,
                    "time": 297.0253710000014,
                    "velocity": 0.2204724409448819,
                    "duration": 0.21246450000001005
                },
                {
                    "name": "C#5",
                    "midi": 73,
                    "time": 297.45030000000145,
                    "velocity": 0.30708661417322836,
                    "duration": 1.2747870000000034
                },
                {
                    "name": "E4",
                    "midi": 64,
                    "time": 297.45030000000145,
                    "velocity": 0.25984251968503935,
                    "duration": 1.2747870000000034
                },
                {
                    "name": "C#4",
                    "midi": 61,
                    "time": 297.45030000000145,
                    "velocity": 0.25984251968503935,
                    "duration": 1.2747870000000034
                },
                {
                    "name": "C#4",
                    "midi": 61,
                    "time": 298.72508700000145,
                    "velocity": 0.6850393700787402,
                    "duration": 0.21246450000001005
                },
                {
                    "name": "B3",
                    "midi": 59,
                    "time": 299.1500160000015,
                    "velocity": 0.6377952755905512,
                    "duration": 1.2747870000000034
                },
                {
                    "name": "C#4",
                    "midi": 61,
                    "time": 299.1500160000015,
                    "velocity": 0.7559055118110236,
                    "duration": 1.2747870000000034
                },
                {
                    "name": "B4",
                    "midi": 71,
                    "time": 300.4248030000015,
                    "velocity": 0.2677165354330709,
                    "duration": 0.21246450000001005
                },
                {
                    "name": "C#4",
                    "midi": 61,
                    "time": 300.4248030000015,
                    "velocity": 0.2204724409448819,
                    "duration": 0.21246450000001005
                },
                {
                    "name": "B3",
                    "midi": 59,
                    "time": 300.4248030000015,
                    "velocity": 0.2204724409448819,
                    "duration": 0.21246450000001005
                },
                {
                    "name": "A4",
                    "midi": 69,
                    "time": 300.8497320000015,
                    "velocity": 0.30708661417322836,
                    "duration": 1.2747870000000034
                },
                {
                    "name": "C#4",
                    "midi": 61,
                    "time": 300.8497320000015,
                    "velocity": 0.25984251968503935,
                    "duration": 1.2747870000000034
                },
                {
                    "name": "A3",
                    "midi": 57,
                    "time": 300.8497320000015,
                    "velocity": 0.25984251968503935,
                    "duration": 1.2747870000000034
                },
                {
                    "name": "C#5",
                    "midi": 73,
                    "time": 302.1245190000015,
                    "velocity": 0.5748031496062992,
                    "duration": 0.21246450000001005
                },
                {
                    "name": "F#5",
                    "midi": 78,
                    "time": 302.1245190000015,
                    "velocity": 0.5748031496062992,
                    "duration": 0.21246450000001005
                },
                {
                    "name": "A5",
                    "midi": 81,
                    "time": 302.1245190000015,
                    "velocity": 0.6850393700787402,
                    "duration": 0.21246450000001005
                },
                {
                    "name": "F#5",
                    "midi": 78,
                    "time": 302.5494480000015,
                    "velocity": 0.6377952755905512,
                    "duration": 1.2747870000000034
                },
                {
                    "name": "B4",
                    "midi": 71,
                    "time": 302.5494480000015,
                    "velocity": 0.6377952755905512,
                    "duration": 1.2747870000000034
                },
                {
                    "name": "A5",
                    "midi": 81,
                    "time": 302.5494480000015,
                    "velocity": 0.7559055118110236,
                    "duration": 1.2747870000000034
                },
                {
                    "name": "F#4",
                    "midi": 66,
                    "time": 303.8242350000015,
                    "velocity": 0.5748031496062992,
                    "duration": 0.21246450000001005
                },
                {
                    "name": "A4",
                    "midi": 69,
                    "time": 303.8242350000015,
                    "velocity": 0.6850393700787402,
                    "duration": 0.21246450000001005
                },
                {
                    "name": "E4",
                    "midi": 64,
                    "time": 304.24916400000154,
                    "velocity": 0.6377952755905512,
                    "duration": 1.2747870000000034
                },
                {
                    "name": "A4",
                    "midi": 69,
                    "time": 304.24916400000154,
                    "velocity": 0.7559055118110236,
                    "duration": 1.2747870000000034
                },
                {
                    "name": "A4",
                    "midi": 69,
                    "time": 305.52395100000155,
                    "velocity": 0.5748031496062992,
                    "duration": 0.21246450000001005
                },
                {
                    "name": "E5",
                    "midi": 76,
                    "time": 305.52395100000155,
                    "velocity": 0.5748031496062992,
                    "duration": 0.21246450000001005
                },
                {
                    "name": "A5",
                    "midi": 81,
                    "time": 305.52395100000155,
                    "velocity": 0.6850393700787402,
                    "duration": 0.21246450000001005
                },
                {
                    "name": "D#5",
                    "midi": 75,
                    "time": 305.94888000000157,
                    "velocity": 0.6377952755905512,
                    "duration": 0.4249290000000201
                },
                {
                    "name": "F#5",
                    "midi": 78,
                    "time": 305.94888000000157,
                    "velocity": 0.6377952755905512,
                    "duration": 0.4249290000000201
                },
                {
                    "name": "A4",
                    "midi": 69,
                    "time": 305.94888000000157,
                    "velocity": 0.6377952755905512,
                    "duration": 0.4249290000000201
                },
                {
                    "name": "A5",
                    "midi": 81,
                    "time": 305.94888000000157,
                    "velocity": 0.7559055118110236,
                    "duration": 0.4249290000000201
                },
                {
                    "name": "A5",
                    "midi": 81,
                    "time": 307.6485960000016,
                    "velocity": 0.41732283464566927,
                    "duration": 1.2747870000000034
                },
                {
                    "name": "F#6",
                    "midi": 90,
                    "time": 307.6485960000016,
                    "velocity": 0.41732283464566927,
                    "duration": 1.2747870000000034
                },
                {
                    "name": "G#5",
                    "midi": 80,
                    "time": 308.9233830000016,
                    "velocity": 0.44881889763779526,
                    "duration": 0.3824361000000067
                },
                {
                    "name": "E6",
                    "midi": 88,
                    "time": 308.9233830000016,
                    "velocity": 0.44881889763779526,
                    "duration": 0.3824361000000067
                },
                {
                    "name": "E6",
                    "midi": 88,
                    "time": 309.3483120000016,
                    "velocity": 0.4881889763779528,
                    "duration": 0.4249290000000201
                },
                {
                    "name": "G#5",
                    "midi": 80,
                    "time": 309.3483120000016,
                    "velocity": 0.4881889763779528,
                    "duration": 0.4249290000000201
                },
                {
                    "name": "F#5",
                    "midi": 78,
                    "time": 309.77324100000163,
                    "velocity": 0.3779527559055118,
                    "duration": 0.3824361000000067
                },
                {
                    "name": "D#6",
                    "midi": 87,
                    "time": 309.77324100000163,
                    "velocity": 0.3779527559055118,
                    "duration": 0.3824361000000067
                },
                {
                    "name": "D#6",
                    "midi": 87,
                    "time": 310.19817000000165,
                    "velocity": 0.3700787401574803,
                    "duration": 0.4249290000000201
                },
                {
                    "name": "F#5",
                    "midi": 78,
                    "time": 310.19817000000165,
                    "velocity": 0.3700787401574803,
                    "duration": 0.4249290000000201
                },
                {
                    "name": "G#5",
                    "midi": 80,
                    "time": 310.6230990000017,
                    "velocity": 0.30708661417322836,
                    "duration": 0.4249290000000201
                },
                {
                    "name": "E6",
                    "midi": 88,
                    "time": 310.6230990000017,
                    "velocity": 0.30708661417322836,
                    "duration": 0.4249290000000201
                },
                {
                    "name": "A5",
                    "midi": 81,
                    "time": 311.0480280000017,
                    "velocity": 0.41732283464566927,
                    "duration": 1.2747870000000034
                },
                {
                    "name": "F#6",
                    "midi": 90,
                    "time": 311.0480280000017,
                    "velocity": 0.41732283464566927,
                    "duration": 1.2747870000000034
                },
                {
                    "name": "G#5",
                    "midi": 80,
                    "time": 312.3228150000017,
                    "velocity": 0.44881889763779526,
                    "duration": 0.3824361000000067
                },
                {
                    "name": "E6",
                    "midi": 88,
                    "time": 312.3228150000017,
                    "velocity": 0.44881889763779526,
                    "duration": 0.3824361000000067
                },
                {
                    "name": "D#6",
                    "midi": 87,
                    "time": 312.7477440000017,
                    "velocity": 0.4881889763779528,
                    "duration": 0.4249290000000201
                },
                {
                    "name": "F#5",
                    "midi": 78,
                    "time": 312.7477440000017,
                    "velocity": 0.4881889763779528,
                    "duration": 0.4249290000000201
                },
                {
                    "name": "F#6",
                    "midi": 90,
                    "time": 313.17267300000174,
                    "velocity": 0.3779527559055118,
                    "duration": 0.4249290000000201
                },
                {
                    "name": "A5",
                    "midi": 81,
                    "time": 313.17267300000174,
                    "velocity": 0.3779527559055118,
                    "duration": 0.4249290000000201
                },
                {
                    "name": "E6",
                    "midi": 88,
                    "time": 313.59760200000176,
                    "velocity": 0.3700787401574803,
                    "duration": 0.4249290000000201
                },
                {
                    "name": "G#5",
                    "midi": 80,
                    "time": 313.59760200000176,
                    "velocity": 0.3700787401574803,
                    "duration": 0.4249290000000201
                },
                {
                    "name": "D#5",
                    "midi": 75,
                    "time": 314.0225310000018,
                    "velocity": 0.30708661417322836,
                    "duration": 0.4249290000000201
                },
                {
                    "name": "F#5",
                    "midi": 78,
                    "time": 314.0225310000018,
                    "velocity": 0.30708661417322836,
                    "duration": 0.4249290000000201
                },
                {
                    "name": "D#6",
                    "midi": 87,
                    "time": 314.0225310000018,
                    "velocity": 0.30708661417322836,
                    "duration": 0.4249290000000201
                },
                {
                    "name": "E6",
                    "midi": 88,
                    "time": 314.4474600000018,
                    "velocity": 0.30708661417322836,
                    "duration": 0.4249290000000201
                },
                {
                    "name": "E5",
                    "midi": 76,
                    "time": 314.4474600000018,
                    "velocity": 0.30708661417322836,
                    "duration": 0.4249290000000201
                },
                {
                    "name": "D#6",
                    "midi": 87,
                    "time": 314.8723890000018,
                    "velocity": 0.2677165354330709,
                    "duration": 0.4249290000000201
                },
                {
                    "name": "C#6",
                    "midi": 85,
                    "time": 315.29731800000184,
                    "velocity": 0.30708661417322836,
                    "duration": 0.4249290000000201
                },
                {
                    "name": "B5",
                    "midi": 83,
                    "time": 315.72224700000186,
                    "velocity": 0.2755905511811024,
                    "duration": 0.4249290000000201
                },
                {
                    "name": "C#6",
                    "midi": 85,
                    "time": 316.1471760000019,
                    "velocity": 0.30708661417322836,
                    "duration": 0.4249290000000201
                },
                {
                    "name": "B5",
                    "midi": 83,
                    "time": 316.5721050000019,
                    "velocity": 0.29133858267716534,
                    "duration": 0.4249290000000201
                },
                {
                    "name": "A5",
                    "midi": 81,
                    "time": 316.9970340000019,
                    "velocity": 0.30708661417322836,
                    "duration": 0.4249290000000201
                },
                {
                    "name": "G#5",
                    "midi": 80,
                    "time": 317.42196300000194,
                    "velocity": 0.2677165354330709,
                    "duration": 0.4072236249999719
                },
                {
                    "name": "G#5",
                    "midi": 80,
                    "time": 317.8468920000019,
                    "velocity": 0.30708661417322836,
                    "duration": 1.2747870000000034
                },
                {
                    "name": "A5",
                    "midi": 81,
                    "time": 319.1216790000019,
                    "velocity": 0.2992125984251969,
                    "duration": 0.21246450000001005
                },
                {
                    "name": "B5",
                    "midi": 83,
                    "time": 319.3341435000019,
                    "velocity": 0.25984251968503935,
                    "duration": 0.21246450000001005
                },
                {
                    "name": "F#5",
                    "midi": 78,
                    "time": 319.5466080000019,
                    "velocity": 0.30708661417322836,
                    "duration": 0.4249290000000201
                },
                {
                    "name": "B4",
                    "midi": 71,
                    "time": 319.97153700000194,
                    "velocity": 0.30708661417322836,
                    "duration": 0.21246450000001005
                },
                {
                    "name": "C#5",
                    "midi": 73,
                    "time": 320.18400150000195,
                    "velocity": 0.2677165354330709,
                    "duration": 0.21246450000001005
                },
                {
                    "name": "B4",
                    "midi": 71,
                    "time": 320.39646600000196,
                    "velocity": 0.30708661417322836,
                    "duration": 0.21246450000001005
                },
                {
                    "name": "C#5",
                    "midi": 73,
                    "time": 320.608930500002,
                    "velocity": 0.2755905511811024,
                    "duration": 0.21246450000001005
                },
                {
                    "name": "B4",
                    "midi": 71,
                    "time": 320.821395000002,
                    "velocity": 0.30708661417322836,
                    "duration": 0.21246450000001005
                },
                {
                    "name": "C#5",
                    "midi": 73,
                    "time": 321.033859500002,
                    "velocity": 0.2755905511811024,
                    "duration": 0.21246450000001005
                },
                {
                    "name": "F#5",
                    "midi": 78,
                    "time": 321.246324000002,
                    "velocity": 0.41732283464566927,
                    "duration": 1.2747870000000603
                },
                {
                    "name": "A5",
                    "midi": 81,
                    "time": 321.246324000002,
                    "velocity": 0.41732283464566927,
                    "duration": 1.2747870000000603
                },
                {
                    "name": "B4",
                    "midi": 71,
                    "time": 321.246324000002,
                    "velocity": 0.30708661417322836,
                    "duration": 0.21246450000001005
                },
                {
                    "name": "C#5",
                    "midi": 73,
                    "time": 321.458788500002,
                    "velocity": 0.2755905511811024,
                    "duration": 0.21246450000001005
                },
                {
                    "name": "B4",
                    "midi": 71,
                    "time": 321.671253000002,
                    "velocity": 0.30708661417322836,
                    "duration": 0.21246450000001005
                },
                {
                    "name": "C#5",
                    "midi": 73,
                    "time": 321.88371750000204,
                    "velocity": 0.2755905511811024,
                    "duration": 0.21246450000001005
                },
                {
                    "name": "B4",
                    "midi": 71,
                    "time": 322.09618200000205,
                    "velocity": 0.30708661417322836,
                    "duration": 0.21246450000001005
                },
                {
                    "name": "C#5",
                    "midi": 73,
                    "time": 322.30864650000206,
                    "velocity": 0.29133858267716534,
                    "duration": 0.21246450000001005
                },
                {
                    "name": "G#5",
                    "midi": 80,
                    "time": 322.52111100000207,
                    "velocity": 0.44881889763779526,
                    "duration": 0.3824361000000067
                },
                {
                    "name": "E5",
                    "midi": 76,
                    "time": 322.52111100000207,
                    "velocity": 0.44881889763779526,
                    "duration": 0.3824361000000067
                },
                {
                    "name": "B4",
                    "midi": 71,
                    "time": 322.52111100000207,
                    "velocity": 0.33858267716535434,
                    "duration": 0.21246450000001005
                },
                {
                    "name": "C#5",
                    "midi": 73,
                    "time": 322.7335755000021,
                    "velocity": 0.3228346456692913,
                    "duration": 0.21246450000001005
                },
                {
                    "name": "G#5",
                    "midi": 80,
                    "time": 322.9460400000021,
                    "velocity": 0.4881889763779528,
                    "duration": 0.4249290000000201
                },
                {
                    "name": "E5",
                    "midi": 76,
                    "time": 322.9460400000021,
                    "velocity": 0.4881889763779528,
                    "duration": 0.4249290000000201
                },
                {
                    "name": "B4",
                    "midi": 71,
                    "time": 322.9460400000021,
                    "velocity": 0.3779527559055118,
                    "duration": 0.21246450000001005
                },
                {
                    "name": "C#5",
                    "midi": 73,
                    "time": 323.1585045000021,
                    "velocity": 0.33070866141732286,
                    "duration": 0.21246450000001005
                },
                {
                    "name": "D#5",
                    "midi": 75,
                    "time": 323.3709690000021,
                    "velocity": 0.3779527559055118,
                    "duration": 0.3824361000000067
                },
                {
                    "name": "F#5",
                    "midi": 78,
                    "time": 323.3709690000021,
                    "velocity": 0.3779527559055118,
                    "duration": 0.3824361000000067
                },
                {
                    "name": "B4",
                    "midi": 71,
                    "time": 323.3709690000021,
                    "velocity": 0.36220472440944884,
                    "duration": 0.21246450000001005
                },
                {
                    "name": "C#5",
                    "midi": 73,
                    "time": 323.5834335000021,
                    "velocity": 0.31496062992125984,
                    "duration": 0.21246450000001005
                },
                {
                    "name": "F#5",
                    "midi": 78,
                    "time": 323.7958980000021,
                    "velocity": 0.3700787401574803,
                    "duration": 0.4249290000000201
                },
                {
                    "name": "B4",
                    "midi": 71,
                    "time": 323.7958980000021,
                    "velocity": 0.3464566929133858,
                    "duration": 0.21246450000001005
                },
                {
                    "name": "D#5",
                    "midi": 75,
                    "time": 323.7958980000021,
                    "velocity": 0.3700787401574803,
                    "duration": 0.4249290000000201
                },
                {
                    "name": "C#5",
                    "midi": 73,
                    "time": 324.00836250000214,
                    "velocity": 0.2992125984251969,
                    "duration": 0.21246450000001005
                },
                {
                    "name": "G#5",
                    "midi": 80,
                    "time": 324.22082700000215,
                    "velocity": 0.30708661417322836,
                    "duration": 0.4249290000000201
                },
                {
                    "name": "E5",
                    "midi": 76,
                    "time": 324.22082700000215,
                    "velocity": 0.30708661417322836,
                    "duration": 0.4249290000000201
                },
                {
                    "name": "B4",
                    "midi": 71,
                    "time": 324.22082700000215,
                    "velocity": 0.3228346456692913,
                    "duration": 0.21246450000001005
                },
                {
                    "name": "C#5",
                    "midi": 73,
                    "time": 324.43329150000216,
                    "velocity": 0.28346456692913385,
                    "duration": 0.21246450000001005
                },
                {
                    "name": "A5",
                    "midi": 81,
                    "time": 324.64575600000217,
                    "velocity": 0.41732283464566927,
                    "duration": 1.2747870000000603
                },
                {
                    "name": "F#5",
                    "midi": 78,
                    "time": 324.64575600000217,
                    "velocity": 0.41732283464566927,
                    "duration": 1.2747870000000603
                },
                {
                    "name": "B4",
                    "midi": 71,
                    "time": 324.64575600000217,
                    "velocity": 0.30708661417322836,
                    "duration": 0.21246450000001005
                },
                {
                    "name": "C#5",
                    "midi": 73,
                    "time": 324.8582205000022,
                    "velocity": 0.28346456692913385,
                    "duration": 0.21246450000001005
                },
                {
                    "name": "B4",
                    "midi": 71,
                    "time": 325.0706850000022,
                    "velocity": 0.3228346456692913,
                    "duration": 0.21246450000001005
                },
                {
                    "name": "C#5",
                    "midi": 73,
                    "time": 325.2831495000022,
                    "velocity": 0.2992125984251969,
                    "duration": 0.21246450000001005
                },
                {
                    "name": "B4",
                    "midi": 71,
                    "time": 325.4956140000022,
                    "velocity": 0.33858267716535434,
                    "duration": 0.21246450000001005
                },
                {
                    "name": "C#5",
                    "midi": 73,
                    "time": 325.7080785000022,
                    "velocity": 0.31496062992125984,
                    "duration": 0.21246450000001005
                },
                {
                    "name": "B4",
                    "midi": 71,
                    "time": 325.9205430000022,
                    "velocity": 0.36220472440944884,
                    "duration": 0.21246450000001005
                },
                {
                    "name": "G#5",
                    "midi": 80,
                    "time": 325.9205430000022,
                    "velocity": 0.44881889763779526,
                    "duration": 0.3824361000000067
                },
                {
                    "name": "E5",
                    "midi": 76,
                    "time": 325.9205430000022,
                    "velocity": 0.44881889763779526,
                    "duration": 0.3824361000000067
                },
                {
                    "name": "C#5",
                    "midi": 73,
                    "time": 326.13300750000224,
                    "velocity": 0.33070866141732286,
                    "duration": 0.21246450000001005
                },
                {
                    "name": "F#5",
                    "midi": 78,
                    "time": 326.34547200000225,
                    "velocity": 0.4881889763779528,
                    "duration": 0.4249290000000201
                },
                {
                    "name": "D#5",
                    "midi": 75,
                    "time": 326.34547200000225,
                    "velocity": 0.4881889763779528,
                    "duration": 0.21246450000001005
                },
                {
                    "name": "B4",
                    "midi": 71,
                    "time": 326.55793650000226,
                    "velocity": 0.28346456692913385,
                    "duration": 0.21246450000001005
                },
                {
                    "name": "C#6",
                    "midi": 85,
                    "time": 326.77040100000227,
                    "velocity": 0.3779527559055118,
                    "duration": 0.4249290000000201
                },
                {
                    "name": "A5",
                    "midi": 81,
                    "time": 326.77040100000227,
                    "velocity": 0.3779527559055118,
                    "duration": 0.21246450000001005
                },
                {
                    "name": "B4",
                    "midi": 71,
                    "time": 326.9828655000023,
                    "velocity": 0.28346456692913385,
                    "duration": 0.21246450000001005
                },
                {
                    "name": "B5",
                    "midi": 83,
                    "time": 327.1953300000023,
                    "velocity": 0.3700787401574803,
                    "duration": 0.4249290000000201
                },
                {
                    "name": "G#5",
                    "midi": 80,
                    "time": 327.1953300000023,
                    "velocity": 0.3700787401574803,
                    "duration": 0.21246450000001005
                },
                {
                    "name": "B4",
                    "midi": 71,
                    "time": 327.4077945000023,
                    "velocity": 0.28346456692913385,
                    "duration": 0.21246450000001005
                },
                {
                    "name": "F#5",
                    "midi": 78,
                    "time": 327.6202590000023,
                    "velocity": 0.30708661417322836,
                    "duration": 0.21246450000001005
                },
                {
                    "name": "A5",
                    "midi": 81,
                    "time": 327.6202590000023,
                    "velocity": 0.30708661417322836,
                    "duration": 0.4249290000000201
                },
                {
                    "name": "B4",
                    "midi": 71,
                    "time": 327.8327235000023,
                    "velocity": 0.28346456692913385,
                    "duration": 0.21246450000001005
                },
                {
                    "name": "G#5",
                    "midi": 80,
                    "time": 328.0451880000023,
                    "velocity": 0.4881889763779528,
                    "duration": 0.4249290000000201
                },
                {
                    "name": "E5",
                    "midi": 76,
                    "time": 328.0451880000023,
                    "velocity": 0.4881889763779528,
                    "duration": 0.21246450000001005
                },
                {
                    "name": "B4",
                    "midi": 71,
                    "time": 328.25765250000234,
                    "velocity": 0.2755905511811024,
                    "duration": 0.21246450000001005
                },
                {
                    "name": "B5",
                    "midi": 83,
                    "time": 328.47011700000235,
                    "velocity": 0.3700787401574803,
                    "duration": 0.4249290000000201
                },
                {
                    "name": "G#5",
                    "midi": 80,
                    "time": 328.47011700000235,
                    "velocity": 0.3700787401574803,
                    "duration": 0.21246450000001005
                },
                {
                    "name": "B4",
                    "midi": 71,
                    "time": 328.68258150000236,
                    "velocity": 0.2677165354330709,
                    "duration": 0.21246450000001005
                },
                {
                    "name": "A5",
                    "midi": 81,
                    "time": 328.89504600000237,
                    "velocity": 0.3543307086614173,
                    "duration": 0.4249290000000201
                },
                {
                    "name": "F#5",
                    "midi": 78,
                    "time": 328.89504600000237,
                    "velocity": 0.3543307086614173,
                    "duration": 0.21246450000001005
                },
                {
                    "name": "B4",
                    "midi": 71,
                    "time": 329.1075105000024,
                    "velocity": 0.2677165354330709,
                    "duration": 0.21246450000001005
                },
                {
                    "name": "E5",
                    "midi": 76,
                    "time": 329.3199750000024,
                    "velocity": 0.28346456692913385,
                    "duration": 0.21246450000001005
                },
                {
                    "name": "G#5",
                    "midi": 80,
                    "time": 329.3199750000024,
                    "velocity": 0.28346456692913385,
                    "duration": 0.4249290000000201
                },
                {
                    "name": "B4",
                    "midi": 71,
                    "time": 329.5324395000024,
                    "velocity": 0.25984251968503935,
                    "duration": 0.21246450000001005
                },
                {
                    "name": "F#5",
                    "midi": 78,
                    "time": 329.7449040000024,
                    "velocity": 0.44881889763779526,
                    "duration": 0.4249290000000201
                },
                {
                    "name": "D#5",
                    "midi": 75,
                    "time": 329.7449040000024,
                    "velocity": 0.44881889763779526,
                    "duration": 0.21246450000001005
                },
                {
                    "name": "B4",
                    "midi": 71,
                    "time": 329.9573685000024,
                    "velocity": 0.25196850393700787,
                    "duration": 0.21246450000001005
                },
                {
                    "name": "A5",
                    "midi": 81,
                    "time": 330.1698330000024,
                    "velocity": 0.33858267716535434,
                    "duration": 0.4249290000000201
                },
                {
                    "name": "F#5",
                    "midi": 78,
                    "time": 330.1698330000024,
                    "velocity": 0.33858267716535434,
                    "duration": 0.21246450000001005
                },
                {
                    "name": "B4",
                    "midi": 71,
                    "time": 330.38229750000244,
                    "velocity": 0.25196850393700787,
                    "duration": 0.21246450000001005
                },
                {
                    "name": "G#5",
                    "midi": 80,
                    "time": 330.59476200000245,
                    "velocity": 0.3228346456692913,
                    "duration": 0.4249290000000201
                },
                {
                    "name": "E5",
                    "midi": 76,
                    "time": 330.59476200000245,
                    "velocity": 0.3228346456692913,
                    "duration": 0.21246450000001005
                },
                {
                    "name": "B4",
                    "midi": 71,
                    "time": 330.80722650000246,
                    "velocity": 0.2440944881889764,
                    "duration": 0.21246450000001005
                },
                {
                    "name": "D#5",
                    "midi": 75,
                    "time": 331.01969100000247,
                    "velocity": 0.25984251968503935,
                    "duration": 0.21246450000001005
                },
                {
                    "name": "F#5",
                    "midi": 78,
                    "time": 331.01969100000247,
                    "velocity": 0.25984251968503935,
                    "duration": 0.4249290000000201
                },
                {
                    "name": "A4",
                    "midi": 69,
                    "time": 331.2321555000025,
                    "velocity": 0.23622047244094488,
                    "duration": 0.21246450000001005
                },
                {
                    "name": "B4",
                    "midi": 71,
                    "time": 331.4446200000025,
                    "velocity": 0.3228346456692913,
                    "duration": 0.21246450000001005
                },
                {
                    "name": "E5",
                    "midi": 76,
                    "time": 331.4446200000025,
                    "velocity": 0.4094488188976378,
                    "duration": 0.4249290000000201
                },
                {
                    "name": "G#4",
                    "midi": 68,
                    "time": 331.6570845000025,
                    "velocity": 0.2283464566929134,
                    "duration": 0.21246450000001005
                },
                {
                    "name": "B4",
                    "midi": 71,
                    "time": 331.8695490000025,
                    "velocity": 0.2283464566929134,
                    "duration": 0.21246450000001005
                },
                {
                    "name": "D5",
                    "midi": 74,
                    "time": 331.8695490000025,
                    "velocity": 0.30708661417322836,
                    "duration": 0.4249290000000201
                },
                {
                    "name": "F4",
                    "midi": 65,
                    "time": 332.0820135000025,
                    "velocity": 0.2283464566929134,
                    "duration": 0.21246450000001005
                },
                {
                    "name": "B4",
                    "midi": 71,
                    "time": 332.2944780000025,
                    "velocity": 0.2283464566929134,
                    "duration": 0.21246450000001005
                },
                {
                    "name": "C#5",
                    "midi": 73,
                    "time": 332.2944780000025,
                    "velocity": 0.29133858267716534,
                    "duration": 0.4249290000000201
                },
                {
                    "name": "F4",
                    "midi": 65,
                    "time": 332.50694250000254,
                    "velocity": 0.2204724409448819,
                    "duration": 0.21246450000001005
                },
                {
                    "name": "B4",
                    "midi": 71,
                    "time": 332.71940700000255,
                    "velocity": 0.2283464566929134,
                    "duration": 0.21246450000001005
                },
                {
                    "name": "C#5",
                    "midi": 73,
                    "time": 332.71940700000255,
                    "velocity": 0.23622047244094488,
                    "duration": 0.4249290000000201
                },
                {
                    "name": "F4",
                    "midi": 65,
                    "time": 332.93187150000256,
                    "velocity": 0.2125984251968504,
                    "duration": 0.21246450000001005
                },
                {
                    "name": "C#5",
                    "midi": 73,
                    "time": 333.14433600000257,
                    "velocity": 0.30708661417322836,
                    "duration": 0.21246450000001005
                },
                {
                    "name": "F4",
                    "midi": 65,
                    "time": 333.14433600000257,
                    "velocity": 0.30708661417322836,
                    "duration": 0.21246450000001005
                },
                {
                    "name": "C#5",
                    "midi": 73,
                    "time": 333.3568005000026,
                    "velocity": 0.25984251968503935,
                    "duration": 0.21246450000001005
                },
                {
                    "name": "D#5",
                    "midi": 75,
                    "time": 333.5692650000026,
                    "velocity": 0.2677165354330709,
                    "duration": 0.21246450000001005
                },
                {
                    "name": "F5",
                    "midi": 77,
                    "time": 333.7817295000026,
                    "velocity": 0.29133858267716534,
                    "duration": 0.15934837499997911
                },
                {
                    "name": "G#5",
                    "midi": 80,
                    "time": 333.9410778750026,
                    "velocity": 0.2755905511811024,
                    "duration": 0.05311612499997409
                },
                {
                    "name": "F#5",
                    "midi": 78,
                    "time": 333.99419400000255,
                    "velocity": 0.30708661417322836,
                    "duration": 0.21246450000001005
                },
                {
                    "name": "F5",
                    "midi": 77,
                    "time": 334.20665850000256,
                    "velocity": 0.25196850393700787,
                    "duration": 0.21246450000001005
                },
                {
                    "name": "F#5",
                    "midi": 78,
                    "time": 334.41912300000257,
                    "velocity": 0.2755905511811024,
                    "duration": 0.21246450000001005
                },
                {
                    "name": "G#5",
                    "midi": 80,
                    "time": 334.6315875000026,
                    "velocity": 0.25196850393700787,
                    "duration": 0.21246450000001005
                },
                {
                    "name": "A5",
                    "midi": 81,
                    "time": 334.8440520000026,
                    "velocity": 0.30708661417322836,
                    "duration": 0.21246450000001005
                },
                {
                    "name": "F5",
                    "midi": 77,
                    "time": 335.0565165000026,
                    "velocity": 0.25984251968503935,
                    "duration": 0.21246450000001005
                },
                {
                    "name": "F#5",
                    "midi": 78,
                    "time": 335.2689810000026,
                    "velocity": 0.2755905511811024,
                    "duration": 0.21246450000001005
                },
                {
                    "name": "G#5",
                    "midi": 80,
                    "time": 335.4814455000026,
                    "velocity": 0.25196850393700787,
                    "duration": 0.15934837499997911
                },
                {
                    "name": "B5",
                    "midi": 83,
                    "time": 335.6407938750026,
                    "velocity": 0.25196850393700787,
                    "duration": 0.05311612499997409
                },
                {
                    "name": "A5",
                    "midi": 81,
                    "time": 335.6939100000026,
                    "velocity": 0.3228346456692913,
                    "duration": 0.21246450000001005
                },
                {
                    "name": "G#5",
                    "midi": 80,
                    "time": 335.9063745000026,
                    "velocity": 0.25984251968503935,
                    "duration": 0.21246450000001005
                },
                {
                    "name": "A5",
                    "midi": 81,
                    "time": 336.1188390000026,
                    "velocity": 0.2755905511811024,
                    "duration": 0.21246450000001005
                },
                {
                    "name": "B5",
                    "midi": 83,
                    "time": 336.3313035000026,
                    "velocity": 0.25196850393700787,
                    "duration": 0.21246450000001005
                },
                {
                    "name": "C#6",
                    "midi": 85,
                    "time": 336.5437680000026,
                    "velocity": 0.33070866141732286,
                    "duration": 0.21246450000001005
                },
                {
                    "name": "B5",
                    "midi": 83,
                    "time": 336.7562325000026,
                    "velocity": 0.2755905511811024,
                    "duration": 0.21246450000001005
                },
                {
                    "name": "A5",
                    "midi": 81,
                    "time": 336.96869700000263,
                    "velocity": 0.2755905511811024,
                    "duration": 0.21246450000001005
                },
                {
                    "name": "G#5",
                    "midi": 80,
                    "time": 337.18116150000264,
                    "velocity": 0.2677165354330709,
                    "duration": 0.21246450000001005
                },
                {
                    "name": "A5",
                    "midi": 81,
                    "time": 337.39362600000266,
                    "velocity": 0.3228346456692913,
                    "duration": 0.21246450000001005
                },
                {
                    "name": "G#5",
                    "midi": 80,
                    "time": 337.60609050000267,
                    "velocity": 0.2755905511811024,
                    "duration": 0.21246450000001005
                },
                {
                    "name": "F#5",
                    "midi": 78,
                    "time": 337.8185550000027,
                    "velocity": 0.2755905511811024,
                    "duration": 0.21246450000001005
                },
                {
                    "name": "C#6",
                    "midi": 85,
                    "time": 338.0310195000027,
                    "velocity": 0.2677165354330709,
                    "duration": 0.21246450000001005
                },
                {
                    "name": "G#5",
                    "midi": 80,
                    "time": 338.2434840000027,
                    "velocity": 0.31496062992125984,
                    "duration": 0.21246450000001005
                },
                {
                    "name": "F#5",
                    "midi": 78,
                    "time": 338.4559485000027,
                    "velocity": 0.2677165354330709,
                    "duration": 0.21246450000001005
                },
                {
                    "name": "E5",
                    "midi": 76,
                    "time": 338.6684130000027,
                    "velocity": 0.2755905511811024,
                    "duration": 0.21246450000001005
                },
                {
                    "name": "B5",
                    "midi": 83,
                    "time": 338.8808775000027,
                    "velocity": 0.2755905511811024,
                    "duration": 0.21246450000001005
                },
                {
                    "name": "F#5",
                    "midi": 78,
                    "time": 339.09334200000274,
                    "velocity": 0.31496062992125984,
                    "duration": 0.21246450000001005
                },
                {
                    "name": "E5",
                    "midi": 76,
                    "time": 339.30580650000275,
                    "velocity": 0.25984251968503935,
                    "duration": 0.21246450000001005
                },
                {
                    "name": "D#5",
                    "midi": 75,
                    "time": 339.51827100000276,
                    "velocity": 0.2755905511811024,
                    "duration": 0.21246450000001005
                },
                {
                    "name": "B5",
                    "midi": 83,
                    "time": 339.73073550000277,
                    "velocity": 0.25984251968503935,
                    "duration": 0.19475912500001868
                },
                {
                    "name": "B5",
                    "midi": 83,
                    "time": 339.9432000000028,
                    "velocity": 0.33858267716535434,
                    "duration": 1.6997160000000235
                },
                {
                    "name": "G#5",
                    "midi": 80,
                    "time": 339.9432000000028,
                    "velocity": 0.33858267716535434,
                    "duration": 1.6997160000000235
                },
                {
                    "name": "B4",
                    "midi": 71,
                    "time": 339.9432000000028,
                    "velocity": 0.28346456692913385,
                    "duration": 1.6997160000000235
                },
                {
                    "name": "A4",
                    "midi": 69,
                    "time": 341.6429160000028,
                    "velocity": 0.2204724409448819,
                    "duration": 0.8498579999999833
                },
                {
                    "name": "F#5",
                    "midi": 78,
                    "time": 341.6429160000028,
                    "velocity": 0.2677165354330709,
                    "duration": 0.8498579999999833
                },
                {
                    "name": "A5",
                    "midi": 81,
                    "time": 341.6429160000028,
                    "velocity": 0.2677165354330709,
                    "duration": 0.8498579999999833
                },
                {
                    "name": "B4",
                    "midi": 71,
                    "time": 342.4927740000028,
                    "velocity": 0.1968503937007874,
                    "duration": 0.8498579999999833
                },
                {
                    "name": "E5",
                    "midi": 76,
                    "time": 342.4927740000028,
                    "velocity": 0.23622047244094488,
                    "duration": 0.8498579999999833
                },
                {
                    "name": "G#5",
                    "midi": 80,
                    "time": 342.4927740000028,
                    "velocity": 0.23622047244094488,
                    "duration": 0.8498579999999833
                },
                {
                    "name": "C#5",
                    "midi": 73,
                    "time": 343.34263200000277,
                    "velocity": 0.30708661417322836,
                    "duration": 0.8498579999999833
                },
                {
                    "name": "F#5",
                    "midi": 78,
                    "time": 343.34263200000277,
                    "velocity": 0.30708661417322836,
                    "duration": 0.8498579999999833
                },
                {
                    "name": "E5",
                    "midi": 76,
                    "time": 344.19249000000275,
                    "velocity": 0.2755905511811024,
                    "duration": 1.6997159999999667
                },
                {
                    "name": "C#5",
                    "midi": 73,
                    "time": 344.19249000000275,
                    "velocity": 0.2283464566929134,
                    "duration": 0.8498579999999833
                },
                {
                    "name": "B4",
                    "midi": 71,
                    "time": 345.04234800000273,
                    "velocity": 0.25984251968503935,
                    "duration": 0.8498579999999833
                },
                {
                    "name": "D#5",
                    "midi": 75,
                    "time": 345.8922060000027,
                    "velocity": 0.3464566929133858,
                    "duration": 0.4249290000000201
                },
                {
                    "name": "B4",
                    "midi": 71,
                    "time": 345.8922060000027,
                    "velocity": 0.29133858267716534,
                    "duration": 0.8498580000000402
                },
                {
                    "name": "B5",
                    "midi": 83,
                    "time": 346.31713500000274,
                    "velocity": 0.33858267716535434,
                    "duration": 0.4249290000000201
                },
                {
                    "name": "B4",
                    "midi": 71,
                    "time": 346.74206400000276,
                    "velocity": 0.44881889763779526,
                    "duration": 1.6997160000000235
                },
                {
                    "name": "D5",
                    "midi": 74,
                    "time": 346.74206400000276,
                    "velocity": 0.44881889763779526,
                    "duration": 1.6997160000000235
                },
                {
                    "name": "B5",
                    "midi": 83,
                    "time": 346.74206400000276,
                    "velocity": 0.5275590551181102,
                    "duration": 1.6997160000000235
                },
                {
                    "name": "A4",
                    "midi": 69,
                    "time": 348.4417800000028,
                    "velocity": 0.4015748031496063,
                    "duration": 0.8498579999999833
                },
                {
                    "name": "D5",
                    "midi": 74,
                    "time": 348.4417800000028,
                    "velocity": 0.4015748031496063,
                    "duration": 0.8498579999999833
                },
                {
                    "name": "A5",
                    "midi": 81,
                    "time": 348.4417800000028,
                    "velocity": 0.49606299212598426,
                    "duration": 0.8498579999999833
                },
                {
                    "name": "G#4",
                    "midi": 68,
                    "time": 349.29163800000276,
                    "velocity": 0.4094488188976378,
                    "duration": 0.8498579999999833
                },
                {
                    "name": "D5",
                    "midi": 74,
                    "time": 349.29163800000276,
                    "velocity": 0.4094488188976378,
                    "duration": 0.8498579999999833
                },
                {
                    "name": "G#5",
                    "midi": 80,
                    "time": 349.29163800000276,
                    "velocity": 0.5039370078740157,
                    "duration": 0.8498579999999833
                },
                {
                    "name": "B4",
                    "midi": 71,
                    "time": 349.29163800000276,
                    "velocity": 0.4094488188976378,
                    "duration": 0.8498579999999833
                },
                {
                    "name": "D5",
                    "midi": 74,
                    "time": 350.14149600000275,
                    "velocity": 0.5354330708661418,
                    "duration": 0.8498579999999833
                },
                {
                    "name": "F#5",
                    "midi": 78,
                    "time": 350.14149600000275,
                    "velocity": 0.6299212598425197,
                    "duration": 0.8498579999999833
                },
                {
                    "name": "D5",
                    "midi": 74,
                    "time": 350.99135400000273,
                    "velocity": 0.5354330708661418,
                    "duration": 0.8498579999999833
                },
                {
                    "name": "E5",
                    "midi": 76,
                    "time": 350.99135400000273,
                    "velocity": 0.6377952755905512,
                    "duration": 0.8498579999999833
                },
                {
                    "name": "E5",
                    "midi": 76,
                    "time": 351.8412120000027,
                    "velocity": 0.6456692913385826,
                    "duration": 0.8498579999999833
                },
                {
                    "name": "D5",
                    "midi": 74,
                    "time": 351.8412120000027,
                    "velocity": 0.6456692913385826,
                    "duration": 0.8498579999999833
                },
                {
                    "name": "B4",
                    "midi": 71,
                    "time": 351.8412120000027,
                    "velocity": 0.5433070866141733,
                    "duration": 0.8498579999999833
                },
                {
                    "name": "D6",
                    "midi": 86,
                    "time": 352.6910700000027,
                    "velocity": 0.7401574803149606,
                    "duration": 0.8498579999999833
                },
                {
                    "name": "D5",
                    "midi": 74,
                    "time": 352.6910700000027,
                    "velocity": 0.6299212598425197,
                    "duration": 0.8498579999999833
                },
                {
                    "name": "D6",
                    "midi": 86,
                    "time": 353.5409280000027,
                    "velocity": 0.8031496062992126,
                    "duration": 1.6997160000000235
                },
                {
                    "name": "D5",
                    "midi": 74,
                    "time": 353.5409280000027,
                    "velocity": 0.6850393700787402,
                    "duration": 1.6997160000000235
                },
                {
                    "name": "F5",
                    "midi": 77,
                    "time": 355.2406440000027,
                    "velocity": 0.6850393700787402,
                    "duration": 1.6997160000000235
                },
                {
                    "name": "F6",
                    "midi": 89,
                    "time": 355.2406440000027,
                    "velocity": 0.8031496062992126,
                    "duration": 1.6997160000000235
                },
                {
                    "name": "F5",
                    "midi": 77,
                    "time": 356.9403600000027,
                    "velocity": 0.8031496062992126,
                    "duration": 0.21246450000001005
                },
                {
                    "name": "F6",
                    "midi": 89,
                    "time": 356.9403600000027,
                    "velocity": 0.8031496062992126,
                    "duration": 0.21246450000001005
                },
                {
                    "name": "F4",
                    "midi": 65,
                    "time": 357.15282450000274,
                    "velocity": 0.49606299212598426,
                    "duration": 0.21246450000001005
                },
                {
                    "name": "B4",
                    "midi": 71,
                    "time": 357.36528900000275,
                    "velocity": 0.5511811023622047,
                    "duration": 0.21246450000001005
                },
                {
                    "name": "D5",
                    "midi": 74,
                    "time": 357.57775350000276,
                    "velocity": 0.4409448818897638,
                    "duration": 0.21246450000001005
                },
                {
                    "name": "F5",
                    "midi": 77,
                    "time": 357.79021800000277,
                    "velocity": 0.41732283464566927,
                    "duration": 0.21246450000001005
                },
                {
                    "name": "B5",
                    "midi": 83,
                    "time": 358.0026825000028,
                    "velocity": 0.3858267716535433,
                    "duration": 0.21246450000001005
                },
                {
                    "name": "D6",
                    "midi": 86,
                    "time": 358.2151470000028,
                    "velocity": 0.36220472440944884,
                    "duration": 0.21246450000001005
                },
                {
                    "name": "B5",
                    "midi": 83,
                    "time": 358.4276115000028,
                    "velocity": 0.33070866141732286,
                    "duration": 0.21246450000001005
                },
                {
                    "name": "D6",
                    "midi": 86,
                    "time": 358.6400760000028,
                    "velocity": 0.30708661417322836,
                    "duration": 0.8498579999999833
                },
                {
                    "name": "E5",
                    "midi": 76,
                    "time": 359.9148630000028,
                    "velocity": 0.30708661417322836,
                    "duration": 0.4249290000000201
                },
                {
                    "name": "F5",
                    "midi": 77,
                    "time": 360.33979200000283,
                    "velocity": 0.33070866141732286,
                    "duration": 0.4249290000000201
                },
                {
                    "name": "G#5",
                    "midi": 80,
                    "time": 360.76472100000285,
                    "velocity": 0.2677165354330709,
                    "duration": 0.4249290000000201
                },
                {
                    "name": "G5",
                    "midi": 79,
                    "time": 361.18965000000287,
                    "velocity": 0.30708661417322836,
                    "duration": 0.4249290000000201
                },
                {
                    "name": "D5",
                    "midi": 74,
                    "time": 361.6145790000029,
                    "velocity": 0.29133858267716534,
                    "duration": 0.4249290000000201
                },
                {
                    "name": "E5",
                    "midi": 76,
                    "time": 362.0395080000029,
                    "velocity": 0.30708661417322836,
                    "duration": 0.4249290000000201
                },
                {
                    "name": "F5",
                    "midi": 77,
                    "time": 362.46443700000293,
                    "velocity": 0.2677165354330709,
                    "duration": 0.4249290000000201
                },
                {
                    "name": "E5",
                    "midi": 76,
                    "time": 362.88936600000295,
                    "velocity": 0.30708661417322836,
                    "duration": 0.4249290000000201
                },
                {
                    "name": "B4",
                    "midi": 71,
                    "time": 363.31429500000297,
                    "velocity": 0.29133858267716534,
                    "duration": 0.4249290000000201
                },
                {
                    "name": "C5",
                    "midi": 72,
                    "time": 363.739224000003,
                    "velocity": 0.30708661417322836,
                    "duration": 0.8498579999999833
                },
                {
                    "name": "E4",
                    "midi": 64,
                    "time": 363.739224000003,
                    "velocity": 0.30708661417322836,
                    "duration": 1.6997159999999667
                },
                {
                    "name": "C#5",
                    "midi": 73,
                    "time": 364.589082000003,
                    "velocity": 0.3700787401574803,
                    "duration": 0.8498579999999833
                },
                {
                    "name": "D4",
                    "midi": 62,
                    "time": 365.43894000000296,
                    "velocity": 0.3543307086614173,
                    "duration": 0.8498579999999833
                },
                {
                    "name": "D5",
                    "midi": 74,
                    "time": 365.43894000000296,
                    "velocity": 0.3543307086614173,
                    "duration": 0.8498579999999833
                },
                {
                    "name": "A5",
                    "midi": 81,
                    "time": 366.28879800000294,
                    "velocity": 0.3858267716535433,
                    "duration": 1.2747870000000034
                },
                {
                    "name": "A#5",
                    "midi": 82,
                    "time": 367.56358500000294,
                    "velocity": 0.30708661417322836,
                    "duration": 0.4249290000000201
                },
                {
                    "name": "A5",
                    "midi": 81,
                    "time": 367.98851400000297,
                    "velocity": 0.33858267716535434,
                    "duration": 0.4249290000000201
                },
                {
                    "name": "F5",
                    "midi": 77,
                    "time": 368.413443000003,
                    "velocity": 0.30708661417322836,
                    "duration": 0.4249290000000201
                },
                {
                    "name": "A#5",
                    "midi": 82,
                    "time": 368.838372000003,
                    "velocity": 0.33858267716535434,
                    "duration": 0.4249290000000201
                },
                {
                    "name": "F5",
                    "midi": 77,
                    "time": 369.263301000003,
                    "velocity": 0.30708661417322836,
                    "duration": 0.4249290000000201
                },
                {
                    "name": "F5",
                    "midi": 77,
                    "time": 369.68823000000305,
                    "velocity": 0.30708661417322836,
                    "duration": 0.4249290000000201
                },
                {
                    "name": "C#5",
                    "midi": 73,
                    "time": 370.11315900000307,
                    "velocity": 0.28346456692913385,
                    "duration": 0.4249290000000201
                },
                {
                    "name": "F#5",
                    "midi": 78,
                    "time": 370.5380880000031,
                    "velocity": 0.29133858267716534,
                    "duration": 0.4249290000000201
                },
                {
                    "name": "C#5",
                    "midi": 73,
                    "time": 370.9630170000031,
                    "velocity": 0.30708661417322836,
                    "duration": 0.4249290000000201
                },
                {
                    "name": "C#5",
                    "midi": 73,
                    "time": 371.3879460000031,
                    "velocity": 0.33858267716535434,
                    "duration": 0.4249290000000201
                },
                {
                    "name": "A#4",
                    "midi": 70,
                    "time": 371.81287500000315,
                    "velocity": 0.30708661417322836,
                    "duration": 0.4249290000000201
                },
                {
                    "name": "A#5",
                    "midi": 82,
                    "time": 372.23780400000317,
                    "velocity": 0.36220472440944884,
                    "duration": 0.4249290000000201
                },
                {
                    "name": "F#5",
                    "midi": 78,
                    "time": 372.6627330000032,
                    "velocity": 0.2992125984251969,
                    "duration": 0.4249290000000201
                },
                {
                    "name": "F#5",
                    "midi": 78,
                    "time": 373.0876620000032,
                    "velocity": 0.33070866141732286,
                    "duration": 0.4249290000000201
                },
                {
                    "name": "C#5",
                    "midi": 73,
                    "time": 373.5125910000032,
                    "velocity": 0.30708661417322836,
                    "duration": 0.4249290000000201
                },
                {
                    "name": "C#6",
                    "midi": 85,
                    "time": 373.93752000000325,
                    "velocity": 0.4251968503937008,
                    "duration": 0.4249290000000201
                },
                {
                    "name": "A5",
                    "midi": 81,
                    "time": 374.36244900000327,
                    "velocity": 0.3858267716535433,
                    "duration": 0.4249290000000201
                },
                {
                    "name": "A5",
                    "midi": 81,
                    "time": 374.7873780000033,
                    "velocity": 0.5039370078740157,
                    "duration": 0.4249290000000201
                },
                {
                    "name": "F#5",
                    "midi": 78,
                    "time": 375.2123070000033,
                    "velocity": 0.5039370078740157,
                    "duration": 0.4249290000000201
                },
                {
                    "name": "C6",
                    "midi": 84,
                    "time": 375.6372360000033,
                    "velocity": 0.6220472440944882,
                    "duration": 0.4249290000000201
                },
                {
                    "name": "F#5",
                    "midi": 78,
                    "time": 376.06216500000335,
                    "velocity": 0.5748031496062992,
                    "duration": 0.4249290000000201
                },
                {
                    "name": "B5",
                    "midi": 83,
                    "time": 376.48709400000337,
                    "velocity": 0.7637795275590551,
                    "duration": 0.4249290000000201
                },
                {
                    "name": "F#5",
                    "midi": 78,
                    "time": 376.9120230000034,
                    "velocity": 0.6850393700787402,
                    "duration": 0.21246450000001005
                },
                {
                    "name": "D#5",
                    "midi": 75,
                    "time": 378.1868100000034,
                    "velocity": 0.5669291338582677,
                    "duration": 0.21246450000001005
                },
                {
                    "name": "B5",
                    "midi": 83,
                    "time": 378.3992745000034,
                    "velocity": 0.4645669291338583,
                    "duration": 0.21246450000001005
                },
                {
                    "name": "D#5",
                    "midi": 75,
                    "time": 378.6117390000034,
                    "velocity": 0.48031496062992124,
                    "duration": 0.21246450000001005
                },
                {
                    "name": "E5",
                    "midi": 76,
                    "time": 378.8242035000034,
                    "velocity": 0.5039370078740157,
                    "duration": 0.21246450000001005
                },
                {
                    "name": "F#5",
                    "midi": 78,
                    "time": 379.03666800000343,
                    "velocity": 0.5826771653543307,
                    "duration": 0.21246450000001005
                },
                {
                    "name": "B5",
                    "midi": 83,
                    "time": 379.24913250000344,
                    "velocity": 0.4645669291338583,
                    "duration": 0.21246450000001005
                },
                {
                    "name": "F#5",
                    "midi": 78,
                    "time": 379.46159700000345,
                    "velocity": 0.48031496062992124,
                    "duration": 0.21246450000001005
                },
                {
                    "name": "G#5",
                    "midi": 80,
                    "time": 379.67406150000346,
                    "velocity": 0.5039370078740157,
                    "duration": 0.21246450000001005
                },
                {
                    "name": "A5",
                    "midi": 81,
                    "time": 379.88652600000347,
                    "velocity": 0.5826771653543307,
                    "duration": 0.21246450000001005
                },
                {
                    "name": "B5",
                    "midi": 83,
                    "time": 380.0989905000035,
                    "velocity": 0.4645669291338583,
                    "duration": 0.21246450000001005
                },
                {
                    "name": "A5",
                    "midi": 81,
                    "time": 380.3114550000035,
                    "velocity": 0.4881889763779528,
                    "duration": 0.21246450000001005
                },
                {
                    "name": "G#5",
                    "midi": 80,
                    "time": 380.5239195000035,
                    "velocity": 0.5433070866141733,
                    "duration": 0.21246450000001005
                },
                {
                    "name": "F#5",
                    "midi": 78,
                    "time": 380.7363840000035,
                    "velocity": 0.5826771653543307,
                    "duration": 0.21246450000001005
                },
                {
                    "name": "B5",
                    "midi": 83,
                    "time": 380.9488485000035,
                    "velocity": 0.4645669291338583,
                    "duration": 0.21246450000001005
                },
                {
                    "name": "F#5",
                    "midi": 78,
                    "time": 381.16131300000353,
                    "velocity": 0.48031496062992124,
                    "duration": 0.21246450000001005
                },
                {
                    "name": "E5",
                    "midi": 76,
                    "time": 381.37377750000354,
                    "velocity": 0.5039370078740157,
                    "duration": 0.21246450000001005
                },
                {
                    "name": "D#5",
                    "midi": 75,
                    "time": 381.58624200000355,
                    "velocity": 0.5196850393700787,
                    "duration": 0.21246450000001005
                },
                {
                    "name": "B5",
                    "midi": 83,
                    "time": 381.79870650000356,
                    "velocity": 0.4094488188976378,
                    "duration": 0.21246450000001005
                },
                {
                    "name": "D#5",
                    "midi": 75,
                    "time": 382.01117100000357,
                    "velocity": 0.41732283464566927,
                    "duration": 0.21246450000001005
                },
                {
                    "name": "E5",
                    "midi": 76,
                    "time": 382.2236355000036,
                    "velocity": 0.4566929133858268,
                    "duration": 0.21246450000001005
                },
                {
                    "name": "F#5",
                    "midi": 78,
                    "time": 382.4361000000036,
                    "velocity": 0.48031496062992124,
                    "duration": 0.21246450000001005
                },
                {
                    "name": "B5",
                    "midi": 83,
                    "time": 382.6485645000036,
                    "velocity": 0.3700787401574803,
                    "duration": 0.21246450000001005
                },
                {
                    "name": "F#5",
                    "midi": 78,
                    "time": 382.8610290000036,
                    "velocity": 0.3779527559055118,
                    "duration": 0.21246450000001005
                },
                {
                    "name": "G#5",
                    "midi": 80,
                    "time": 383.0734935000036,
                    "velocity": 0.3858267716535433,
                    "duration": 0.21246450000001005
                },
                {
                    "name": "A5",
                    "midi": 81,
                    "time": 383.28595800000363,
                    "velocity": 0.4330708661417323,
                    "duration": 0.21246450000001005
                },
                {
                    "name": "B5",
                    "midi": 83,
                    "time": 383.49842250000364,
                    "velocity": 0.33858267716535434,
                    "duration": 0.21246450000001005
                },
                {
                    "name": "A5",
                    "midi": 81,
                    "time": 383.71088700000365,
                    "velocity": 0.3464566929133858,
                    "duration": 0.21246450000001005
                },
                {
                    "name": "G#5",
                    "midi": 80,
                    "time": 383.92335150000366,
                    "velocity": 0.3779527559055118,
                    "duration": 0.21246450000001005
                },
                {
                    "name": "F#5",
                    "midi": 78,
                    "time": 384.1358160000037,
                    "velocity": 0.3937007874015748,
                    "duration": 0.21246450000001005
                },
                {
                    "name": "B5",
                    "midi": 83,
                    "time": 384.3482805000037,
                    "velocity": 0.2992125984251969,
                    "duration": 0.21246450000001005
                },
                {
                    "name": "F#5",
                    "midi": 78,
                    "time": 384.5607450000037,
                    "velocity": 0.30708661417322836,
                    "duration": 0.21246450000001005
                },
                {
                    "name": "E5",
                    "midi": 76,
                    "time": 384.7732095000037,
                    "velocity": 0.30708661417322836,
                    "duration": 0.21246450000001005
                },
                {
                    "name": "D#5",
                    "midi": 75,
                    "time": 384.9856740000037,
                    "velocity": 0.3464566929133858,
                    "duration": 0.21246450000001005
                },
                {
                    "name": "B5",
                    "midi": 83,
                    "time": 385.1981385000037,
                    "velocity": 0.2755905511811024,
                    "duration": 0.21246450000001005
                },
                {
                    "name": "D#5",
                    "midi": 75,
                    "time": 385.41060300000373,
                    "velocity": 0.29133858267716534,
                    "duration": 0.21246450000001005
                },
                {
                    "name": "E5",
                    "midi": 76,
                    "time": 385.62306750000374,
                    "velocity": 0.3228346456692913,
                    "duration": 0.21246450000001005
                },
                {
                    "name": "F#5",
                    "midi": 78,
                    "time": 385.83553200000375,
                    "velocity": 0.3464566929133858,
                    "duration": 0.21246450000001005
                },
                {
                    "name": "B5",
                    "midi": 83,
                    "time": 386.04799650000376,
                    "velocity": 0.2755905511811024,
                    "duration": 0.21246450000001005
                },
                {
                    "name": "F#5",
                    "midi": 78,
                    "time": 386.2604610000038,
                    "velocity": 0.28346456692913385,
                    "duration": 0.21246450000001005
                },
                {
                    "name": "G#5",
                    "midi": 80,
                    "time": 386.4729255000038,
                    "velocity": 0.2992125984251969,
                    "duration": 0.21246450000001005
                },
                {
                    "name": "A5",
                    "midi": 81,
                    "time": 386.6853900000038,
                    "velocity": 0.3464566929133858,
                    "duration": 0.21246450000001005
                },
                {
                    "name": "B5",
                    "midi": 83,
                    "time": 386.8978545000038,
                    "velocity": 0.2755905511811024,
                    "duration": 0.21246450000001005
                },
                {
                    "name": "A5",
                    "midi": 81,
                    "time": 387.1103190000038,
                    "velocity": 0.29133858267716534,
                    "duration": 0.21246450000001005
                },
                {
                    "name": "G#5",
                    "midi": 80,
                    "time": 387.3227835000038,
                    "velocity": 0.3228346456692913,
                    "duration": 0.21246450000001005
                },
                {
                    "name": "F#5",
                    "midi": 78,
                    "time": 387.53524800000383,
                    "velocity": 0.3464566929133858,
                    "duration": 0.21246450000001005
                },
                {
                    "name": "B5",
                    "midi": 83,
                    "time": 387.74771250000384,
                    "velocity": 0.2755905511811024,
                    "duration": 0.21246450000001005
                },
                {
                    "name": "F#5",
                    "midi": 78,
                    "time": 387.96017700000385,
                    "velocity": 0.28346456692913385,
                    "duration": 0.21246450000001005
                },
                {
                    "name": "E5",
                    "midi": 76,
                    "time": 388.17264150000386,
                    "velocity": 0.2992125984251969,
                    "duration": 0.21246450000001005
                },
                {
                    "name": "D#5",
                    "midi": 75,
                    "time": 388.3851060000039,
                    "velocity": 0.3464566929133858,
                    "duration": 0.21246450000001005
                },
                {
                    "name": "E5",
                    "midi": 76,
                    "time": 388.5975705000039,
                    "velocity": 0.2755905511811024,
                    "duration": 0.21246450000001005
                },
                {
                    "name": "D#5",
                    "midi": 75,
                    "time": 388.8100350000039,
                    "velocity": 0.29133858267716534,
                    "duration": 0.21246450000001005
                },
                {
                    "name": "C#5",
                    "midi": 73,
                    "time": 389.0224995000039,
                    "velocity": 0.3228346456692913,
                    "duration": 0.21246450000001005
                },
                {
                    "name": "B4",
                    "midi": 71,
                    "time": 389.2349640000039,
                    "velocity": 0.3464566929133858,
                    "duration": 0.21246450000001005
                },
                {
                    "name": "C#5",
                    "midi": 73,
                    "time": 389.4474285000039,
                    "velocity": 0.2755905511811024,
                    "duration": 0.21246450000001005
                },
                {
                    "name": "D#4",
                    "midi": 63,
                    "time": 389.65989300000393,
                    "velocity": 0.2755905511811024,
                    "duration": 0.21246450000001005
                },
                {
                    "name": "E4",
                    "midi": 64,
                    "time": 389.87235750000394,
                    "velocity": 0.2755905511811024,
                    "duration": 0.21246450000001005
                },
                {
                    "name": "F#4",
                    "midi": 66,
                    "time": 390.08482200000395,
                    "velocity": 0.2755905511811024,
                    "duration": 0.21246450000001005
                },
                {
                    "name": "A4",
                    "midi": 69,
                    "time": 390.29728650000396,
                    "velocity": 0.25196850393700787,
                    "duration": 0.21246450000001005
                },
                {
                    "name": "G#4",
                    "midi": 68,
                    "time": 390.509751000004,
                    "velocity": 0.25196850393700787,
                    "duration": 0.21246450000001005
                },
                {
                    "name": "F#4",
                    "midi": 66,
                    "time": 390.722215500004,
                    "velocity": 0.25196850393700787,
                    "duration": 0.21246450000001005
                },
                {
                    "name": "G#4",
                    "midi": 68,
                    "time": 390.934680000004,
                    "velocity": 0.2677165354330709,
                    "duration": 0.21246450000001005
                },
                {
                    "name": "B4",
                    "midi": 71,
                    "time": 391.147144500004,
                    "velocity": 0.2047244094488189,
                    "duration": 0.21246450000001005
                },
                {
                    "name": "B3",
                    "midi": 59,
                    "time": 391.359609000004,
                    "velocity": 0.2440944881889764,
                    "duration": 0.21246450000001005
                },
                {
                    "name": "B4",
                    "midi": 71,
                    "time": 391.572073500004,
                    "velocity": 0.2047244094488189,
                    "duration": 0.21246450000001005
                },
                {
                    "name": "G#4",
                    "midi": 68,
                    "time": 391.78453800000403,
                    "velocity": 0.23622047244094488,
                    "duration": 0.21246450000001005
                },
                {
                    "name": "B4",
                    "midi": 71,
                    "time": 391.99700250000404,
                    "velocity": 0.2125984251968504,
                    "duration": 0.21246450000001005
                },
                {
                    "name": "F#4",
                    "midi": 66,
                    "time": 392.20946700000405,
                    "velocity": 0.2204724409448819,
                    "duration": 0.21246450000001005
                },
                {
                    "name": "B4",
                    "midi": 71,
                    "time": 392.42193150000406,
                    "velocity": 0.2125984251968504,
                    "duration": 0.21246450000001005
                },
                {
                    "name": "E4",
                    "midi": 64,
                    "time": 392.6343960000041,
                    "velocity": 0.2677165354330709,
                    "duration": 0.21246450000001005
                },
                {
                    "name": "B4",
                    "midi": 71,
                    "time": 392.8468605000041,
                    "velocity": 0.2047244094488189,
                    "duration": 0.21246450000001005
                },
                {
                    "name": "D#4",
                    "midi": 63,
                    "time": 393.0593250000041,
                    "velocity": 0.2125984251968504,
                    "duration": 0.21246450000001005
                },
                {
                    "name": "B4",
                    "midi": 71,
                    "time": 393.2717895000041,
                    "velocity": 0.1968503937007874,
                    "duration": 0.15934837499997911
                },
                {
                    "name": "D#4",
                    "midi": 63,
                    "time": 393.48425400000406,
                    "velocity": 0.2125984251968504,
                    "duration": 0.21246450000001005
                },
                {
                    "name": "B4",
                    "midi": 71,
                    "time": 393.69671850000407,
                    "velocity": 0.2047244094488189,
                    "duration": 0.21246450000001005
                },
                {
                    "name": "F4",
                    "midi": 65,
                    "time": 393.9091830000041,
                    "velocity": 0.2204724409448819,
                    "duration": 0.21246450000001005
                },
                {
                    "name": "B4",
                    "midi": 71,
                    "time": 394.1216475000041,
                    "velocity": 0.2204724409448819,
                    "duration": 0.21246450000001005
                },
                {
                    "name": "F#4",
                    "midi": 66,
                    "time": 394.3341120000041,
                    "velocity": 0.23622047244094488,
                    "duration": 0.21246450000001005
                },
                {
                    "name": "B4",
                    "midi": 71,
                    "time": 394.5465765000041,
                    "velocity": 0.2204724409448819,
                    "duration": 0.21246450000001005
                },
                {
                    "name": "A4",
                    "midi": 69,
                    "time": 394.7590410000041,
                    "velocity": 0.28346456692913385,
                    "duration": 0.21246450000001005
                },
                {
                    "name": "B4",
                    "midi": 71,
                    "time": 394.9715055000041,
                    "velocity": 0.2440944881889764,
                    "duration": 0.21246450000001005
                },
                {
                    "name": "G#4",
                    "midi": 68,
                    "time": 395.18397000000414,
                    "velocity": 0.29133858267716534,
                    "duration": 0.21246450000001005
                },
                {
                    "name": "B4",
                    "midi": 71,
                    "time": 395.39643450000415,
                    "velocity": 0.2047244094488189,
                    "duration": 0.19475912500001868
                },
                {
                    "name": "B4",
                    "midi": 71,
                    "time": 395.60889900000416,
                    "velocity": 0.1968503937007874,
                    "duration": 0.21246450000001005
                },
                {
                    "name": "D#5",
                    "midi": 75,
                    "time": 395.82136350000417,
                    "velocity": 0.2125984251968504,
                    "duration": 0.21246450000001005
                },
                {
                    "name": "B4",
                    "midi": 71,
                    "time": 396.0338280000042,
                    "velocity": 0.28346456692913385,
                    "duration": 0.21246450000001005
                },
                {
                    "name": "E5",
                    "midi": 76,
                    "time": 396.2462925000042,
                    "velocity": 0.23622047244094488,
                    "duration": 0.21246450000001005
                },
                {
                    "name": "B4",
                    "midi": 71,
                    "time": 396.4587570000042,
                    "velocity": 0.2992125984251969,
                    "duration": 0.21246450000001005
                },
                {
                    "name": "F#5",
                    "midi": 78,
                    "time": 396.6712215000042,
                    "velocity": 0.23622047244094488,
                    "duration": 0.21246450000001005
                },
                {
                    "name": "B4",
                    "midi": 71,
                    "time": 396.8836860000042,
                    "velocity": 0.3543307086614173,
                    "duration": 0.21246450000001005
                },
                {
                    "name": "G5",
                    "midi": 79,
                    "time": 397.0961505000042,
                    "velocity": 0.25984251968503935,
                    "duration": 0.21246450000001005
                },
                {
                    "name": "B4",
                    "midi": 71,
                    "time": 397.30861500000424,
                    "velocity": 0.3858267716535433,
                    "duration": 0.21246450000001005
                },
                {
                    "name": "G#5",
                    "midi": 80,
                    "time": 397.52107950000425,
                    "velocity": 0.31496062992125984,
                    "duration": 0.21246450000001005
                },
                {
                    "name": "B4",
                    "midi": 71,
                    "time": 397.73354400000426,
                    "velocity": 0.2677165354330709,
                    "duration": 0.21246450000001005
                },
                {
                    "name": "G#5",
                    "midi": 80,
                    "time": 397.73354400000426,
                    "velocity": 0.44881889763779526,
                    "duration": 0.8498580000000402
                },
                {
                    "name": "E5",
                    "midi": 76,
                    "time": 397.94600850000427,
                    "velocity": 0.2047244094488189,
                    "duration": 0.21246450000001005
                },
                {
                    "name": "B4",
                    "midi": 71,
                    "time": 398.1584730000043,
                    "velocity": 0.2440944881889764,
                    "duration": 0.21246450000001005
                },
                {
                    "name": "E5",
                    "midi": 76,
                    "time": 398.3709375000043,
                    "velocity": 0.2047244094488189,
                    "duration": 0.21246450000001005
                },
                {
                    "name": "E5",
                    "midi": 76,
                    "time": 398.5834020000043,
                    "velocity": 0.23622047244094488,
                    "duration": 0.21246450000001005
                },
                {
                    "name": "B5",
                    "midi": 83,
                    "time": 398.5834020000043,
                    "velocity": 0.4094488188976378,
                    "duration": 0.4249290000000201
                },
                {
                    "name": "A4",
                    "midi": 69,
                    "time": 398.7958665000043,
                    "velocity": 0.2125984251968504,
                    "duration": 0.21246450000001005
                },
                {
                    "name": "C#5",
                    "midi": 73,
                    "time": 399.0083310000043,
                    "velocity": 0.2204724409448819,
                    "duration": 0.21246450000001005
                },
                {
                    "name": "A5",
                    "midi": 81,
                    "time": 399.0083310000043,
                    "velocity": 0.3858267716535433,
                    "duration": 0.4249290000000201
                },
                {
                    "name": "E5",
                    "midi": 76,
                    "time": 399.22079550000433,
                    "velocity": 0.2125984251968504,
                    "duration": 0.21246450000001005
                },
                {
                    "name": "E5",
                    "midi": 76,
                    "time": 399.43326000000434,
                    "velocity": 0.2677165354330709,
                    "duration": 0.21246450000001005
                },
                {
                    "name": "G#5",
                    "midi": 80,
                    "time": 399.43326000000434,
                    "velocity": 0.44881889763779526,
                    "duration": 0.4249290000000201
                },
                {
                    "name": "B4",
                    "midi": 71,
                    "time": 399.64572450000435,
                    "velocity": 0.2047244094488189,
                    "duration": 0.21246450000001005
                },
                {
                    "name": "D#5",
                    "midi": 75,
                    "time": 399.85818900000436,
                    "velocity": 0.2125984251968504,
                    "duration": 0.21246450000001005
                },
                {
                    "name": "F#5",
                    "midi": 78,
                    "time": 399.85818900000436,
                    "velocity": 0.3700787401574803,
                    "duration": 0.37181287499998916
                },
                {
                    "name": "B4",
                    "midi": 71,
                    "time": 400.07065350000437,
                    "velocity": 0.1968503937007874,
                    "duration": 0.2124644999999532
                },
                {
                    "name": "D#5",
                    "midi": 75,
                    "time": 400.2831180000043,
                    "velocity": 0.2125984251968504,
                    "duration": 0.21246450000001005
                },
                {
                    "name": "F#5",
                    "midi": 78,
                    "time": 400.2831180000043,
                    "velocity": 0.3700787401574803,
                    "duration": 0.4249290000000201
                },
                {
                    "name": "B4",
                    "midi": 71,
                    "time": 400.49558250000433,
                    "velocity": 0.2047244094488189,
                    "duration": 0.21246450000001005
                },
                {
                    "name": "E5",
                    "midi": 76,
                    "time": 400.70804700000434,
                    "velocity": 0.2204724409448819,
                    "duration": 0.21246450000001005
                },
                {
                    "name": "G#5",
                    "midi": 80,
                    "time": 400.70804700000434,
                    "velocity": 0.3858267716535433,
                    "duration": 0.4249290000000201
                },
                {
                    "name": "B4",
                    "midi": 71,
                    "time": 400.92051150000435,
                    "velocity": 0.2204724409448819,
                    "duration": 0.21246450000001005
                },
                {
                    "name": "F#5",
                    "midi": 78,
                    "time": 401.13297600000436,
                    "velocity": 0.25984251968503935,
                    "duration": 0.21246450000001005
                },
                {
                    "name": "A5",
                    "midi": 81,
                    "time": 401.13297600000436,
                    "velocity": 0.44881889763779526,
                    "duration": 0.4249290000000201
                },
                {
                    "name": "B4",
                    "midi": 71,
                    "time": 401.3454405000044,
                    "velocity": 0.33070866141732286,
                    "duration": 0.21246450000001005
                },
                {
                    "name": "C#6",
                    "midi": 85,
                    "time": 401.5579050000044,
                    "velocity": 0.4409448818897638,
                    "duration": 0.4249290000000201
                },
                {
                    "name": "G#5",
                    "midi": 80,
                    "time": 401.5579050000044,
                    "velocity": 0.4409448818897638,
                    "duration": 0.21246450000001005
                },
                {
                    "name": "B4",
                    "midi": 71,
                    "time": 401.7703695000044,
                    "velocity": 0.3858267716535433,
                    "duration": 0.21246450000001005
                },
                {
                    "name": "F#5",
                    "midi": 78,
                    "time": 401.9828340000044,
                    "velocity": 0.5196850393700787,
                    "duration": 0.21246450000001005
                },
                {
                    "name": "B5",
                    "midi": 83,
                    "time": 401.9828340000044,
                    "velocity": 0.5196850393700787,
                    "duration": 0.4249290000000201
                },
                {
                    "name": "B4",
                    "midi": 71,
                    "time": 402.1952985000044,
                    "velocity": 0.4330708661417323,
                    "duration": 0.21246450000001005
                },
                {
                    "name": "A5",
                    "midi": 81,
                    "time": 402.4077630000044,
                    "velocity": 0.1968503937007874,
                    "duration": 0.21246450000001005
                },
                {
                    "name": "F#5",
                    "midi": 78,
                    "time": 402.4077630000044,
                    "velocity": 0.1968503937007874,
                    "duration": 0.21246450000001005
                },
                {
                    "name": "D#6",
                    "midi": 87,
                    "time": 402.4077630000044,
                    "velocity": 0.2992125984251969,
                    "duration": 0.21246450000001005
                },
                {
                    "name": "E6",
                    "midi": 88,
                    "time": 402.83269200000444,
                    "velocity": 0.33070866141732286,
                    "duration": 0.15934837499997911
                },
                {
                    "name": "G#5",
                    "midi": 80,
                    "time": 402.83269200000444,
                    "velocity": 0.2755905511811024,
                    "duration": 0.15934837499997911
                },
                {
                    "name": "E5",
                    "midi": 76,
                    "time": 402.83269200000444,
                    "velocity": 0.33070866141732286,
                    "duration": 0.15934837499997911
                },
                {
                    "name": "E5",
                    "midi": 76,
                    "time": 403.0451565000044,
                    "velocity": 0.28346456692913385,
                    "duration": 0.21246450000001005
                },
                {
                    "name": "B4",
                    "midi": 71,
                    "time": 403.2576210000044,
                    "velocity": 0.31496062992125984,
                    "duration": 0.21246450000001005
                },
                {
                    "name": "G#4",
                    "midi": 68,
                    "time": 403.4700855000044,
                    "velocity": 0.28346456692913385,
                    "duration": 0.21246450000001005
                },
                {
                    "name": "B4",
                    "midi": 71,
                    "time": 403.6825500000044,
                    "velocity": 0.3228346456692913,
                    "duration": 0.21246450000001005
                },
                {
                    "name": "G#4",
                    "midi": 68,
                    "time": 403.89501450000444,
                    "velocity": 0.28346456692913385,
                    "duration": 0.21246450000001005
                },
                {
                    "name": "F#4",
                    "midi": 66,
                    "time": 404.10747900000445,
                    "velocity": 0.31496062992125984,
                    "duration": 0.21246450000001005
                },
                {
                    "name": "D#5",
                    "midi": 75,
                    "time": 404.31994350000446,
                    "velocity": 0.28346456692913385,
                    "duration": 0.21246450000001005
                },
                {
                    "name": "F#4",
                    "midi": 66,
                    "time": 404.53240800000447,
                    "velocity": 0.3700787401574803,
                    "duration": 0.21246450000001005
                },
                {
                    "name": "E5",
                    "midi": 76,
                    "time": 404.7448725000045,
                    "velocity": 0.28346456692913385,
                    "duration": 0.21246450000001005
                },
                {
                    "name": "C#5",
                    "midi": 73,
                    "time": 404.9573370000045,
                    "velocity": 0.2992125984251969,
                    "duration": 0.21246450000001005
                },
                {
                    "name": "F#4",
                    "midi": 66,
                    "time": 405.1698015000045,
                    "velocity": 0.2677165354330709,
                    "duration": 0.15934837499997911
                },
                {
                    "name": "F#4",
                    "midi": 66,
                    "time": 405.38226600000445,
                    "velocity": 0.2992125984251969,
                    "duration": 0.21246450000001005
                },
                {
                    "name": "F#5",
                    "midi": 78,
                    "time": 405.59473050000446,
                    "velocity": 0.2440944881889764,
                    "duration": 0.21246450000001005
                },
                {
                    "name": "C#5",
                    "midi": 73,
                    "time": 405.80719500000447,
                    "velocity": 0.28346456692913385,
                    "duration": 0.21246450000001005
                },
                {
                    "name": "F#4",
                    "midi": 66,
                    "time": 406.0196595000045,
                    "velocity": 0.2677165354330709,
                    "duration": 0.15934837499997911
                },
                {
                    "name": "F#4",
                    "midi": 66,
                    "time": 406.23212400000443,
                    "velocity": 0.2992125984251969,
                    "duration": 0.21246450000001005
                },
                {
                    "name": "D#5",
                    "midi": 75,
                    "time": 406.44458850000444,
                    "velocity": 0.23622047244094488,
                    "duration": 0.21246450000001005
                },
                {
                    "name": "B4",
                    "midi": 71,
                    "time": 406.65705300000445,
                    "velocity": 0.29133858267716534,
                    "duration": 0.21246450000001005
                },
                {
                    "name": "F#4",
                    "midi": 66,
                    "time": 406.86951750000446,
                    "velocity": 0.2677165354330709,
                    "duration": 0.21246450000001005
                },
                {
                    "name": "D#4",
                    "midi": 63,
                    "time": 407.0819820000045,
                    "velocity": 0.36220472440944884,
                    "duration": 0.21246450000001005
                },
                {
                    "name": "B4",
                    "midi": 71,
                    "time": 407.2944465000045,
                    "velocity": 0.29133858267716534,
                    "duration": 0.21246450000001005
                },
                {
                    "name": "E4",
                    "midi": 64,
                    "time": 407.5069110000045,
                    "velocity": 0.36220472440944884,
                    "duration": 0.21246450000001005
                },
                {
                    "name": "A4",
                    "midi": 69,
                    "time": 407.7193755000045,
                    "velocity": 0.31496062992125984,
                    "duration": 0.21246450000001005
                },
                {
                    "name": "E4",
                    "midi": 64,
                    "time": 407.9318400000045,
                    "velocity": 0.2992125984251969,
                    "duration": 0.21246450000001005
                },
                {
                    "name": "B4",
                    "midi": 71,
                    "time": 408.1443045000045,
                    "velocity": 0.28346456692913385,
                    "duration": 0.21246450000001005
                },
                {
                    "name": "G#4",
                    "midi": 68,
                    "time": 408.35676900000453,
                    "velocity": 0.33070866141732286,
                    "duration": 0.21246450000001005
                },
                {
                    "name": "E4",
                    "midi": 64,
                    "time": 408.56923350000454,
                    "velocity": 0.28346456692913385,
                    "duration": 0.15934837499997911
                },
                {
                    "name": "E4",
                    "midi": 64,
                    "time": 408.7816980000045,
                    "velocity": 0.3779527559055118,
                    "duration": 0.21246450000001005
                },
                {
                    "name": "E5",
                    "midi": 76,
                    "time": 408.9941625000045,
                    "velocity": 0.30708661417322836,
                    "duration": 0.21246450000001005
                },
                {
                    "name": "B4",
                    "midi": 71,
                    "time": 409.2066270000045,
                    "velocity": 0.3543307086614173,
                    "duration": 0.21246450000001005
                },
                {
                    "name": "E4",
                    "midi": 64,
                    "time": 409.4190915000045,
                    "velocity": 0.28346456692913385,
                    "duration": 0.15934837499997911
                },
                {
                    "name": "E4",
                    "midi": 64,
                    "time": 409.6315560000045,
                    "velocity": 0.3464566929133858,
                    "duration": 0.21246450000001005
                },
                {
                    "name": "E5",
                    "midi": 76,
                    "time": 409.8440205000045,
                    "velocity": 0.2677165354330709,
                    "duration": 0.21246450000001005
                },
                {
                    "name": "C#5",
                    "midi": 73,
                    "time": 410.0564850000045,
                    "velocity": 0.2992125984251969,
                    "duration": 0.21246450000001005
                },
                {
                    "name": "A4",
                    "midi": 69,
                    "time": 410.2689495000045,
                    "velocity": 0.2677165354330709,
                    "duration": 0.21246450000001005
                },
                {
                    "name": "E4",
                    "midi": 64,
                    "time": 410.4814140000045,
                    "velocity": 0.2992125984251969,
                    "duration": 0.21246450000001005
                },
                {
                    "name": "E5",
                    "midi": 76,
                    "time": 410.69387850000453,
                    "velocity": 0.28346456692913385,
                    "duration": 0.21246450000001005
                },
                {
                    "name": "E4",
                    "midi": 64,
                    "time": 410.90634300000454,
                    "velocity": 0.3228346456692913,
                    "duration": 0.21246450000001005
                },
                {
                    "name": "E5",
                    "midi": 76,
                    "time": 411.11880750000455,
                    "velocity": 0.3779527559055118,
                    "duration": 0.21246450000001005
                },
                {
                    "name": "E4",
                    "midi": 64,
                    "time": 411.33127200000456,
                    "velocity": 0.3779527559055118,
                    "duration": 0.21246450000001005
                },
                {
                    "name": "E5",
                    "midi": 76,
                    "time": 411.54373650000457,
                    "velocity": 0.33070866141732286,
                    "duration": 0.21246450000001005
                },
                {
                    "name": "E4",
                    "midi": 64,
                    "time": 411.7562010000046,
                    "velocity": 0.41732283464566927,
                    "duration": 0.21246450000001005
                },
                {
                    "name": "E5",
                    "midi": 76,
                    "time": 411.9686655000046,
                    "velocity": 0.33858267716535434,
                    "duration": 0.21246450000001005
                },
                {
                    "name": "E4",
                    "midi": 64,
                    "time": 412.1811300000046,
                    "velocity": 0.4251968503937008,
                    "duration": 0.21246450000001005
                },
                {
                    "name": "E5",
                    "midi": 76,
                    "time": 412.3935945000046,
                    "velocity": 0.3937007874015748,
                    "duration": 0.21246450000001005
                },
                {
                    "name": "E4",
                    "midi": 64,
                    "time": 412.6060590000046,
                    "velocity": 0.47244094488188976,
                    "duration": 0.21246450000001005
                },
                {
                    "name": "E5",
                    "midi": 76,
                    "time": 412.81852350000463,
                    "velocity": 0.41732283464566927,
                    "duration": 0.21246450000001005
                },
                {
                    "name": "E4",
                    "midi": 64,
                    "time": 413.03098800000464,
                    "velocity": 0.5275590551181102,
                    "duration": 0.21246450000001005
                },
                {
                    "name": "E5",
                    "midi": 76,
                    "time": 413.24345250000465,
                    "velocity": 0.4645669291338583,
                    "duration": 0.21246450000001005
                },
                {
                    "name": "E4",
                    "midi": 64,
                    "time": 413.45591700000466,
                    "velocity": 0.5196850393700787,
                    "duration": 0.21246450000001005
                },
                {
                    "name": "E5",
                    "midi": 76,
                    "time": 413.66838150000467,
                    "velocity": 0.4094488188976378,
                    "duration": 0.21246450000001005
                },
                {
                    "name": "E4",
                    "midi": 64,
                    "time": 413.8808460000047,
                    "velocity": 0.47244094488188976,
                    "duration": 0.21246450000001005
                },
                {
                    "name": "E5",
                    "midi": 76,
                    "time": 414.0933105000047,
                    "velocity": 0.36220472440944884,
                    "duration": 0.21246450000001005
                },
                {
                    "name": "E4",
                    "midi": 64,
                    "time": 414.3057750000047,
                    "velocity": 0.4645669291338583,
                    "duration": 0.21246450000001005
                },
                {
                    "name": "E5",
                    "midi": 76,
                    "time": 414.5182395000047,
                    "velocity": 0.3700787401574803,
                    "duration": 0.21246450000001005
                },
                {
                    "name": "D#4",
                    "midi": 63,
                    "time": 414.7307040000047,
                    "velocity": 0.2992125984251969,
                    "duration": 0.21246450000001005
                },
                {
                    "name": "D#5",
                    "midi": 75,
                    "time": 414.94316850000473,
                    "velocity": 0.2677165354330709,
                    "duration": 0.21246450000001005
                },
                {
                    "name": "B4",
                    "midi": 71,
                    "time": 415.15563300000474,
                    "velocity": 0.2992125984251969,
                    "duration": 0.21246450000001005
                },
                {
                    "name": "F#4",
                    "midi": 66,
                    "time": 415.36809750000475,
                    "velocity": 0.28346456692913385,
                    "duration": 0.15934837499997911
                },
                {
                    "name": "F#4",
                    "midi": 66,
                    "time": 415.5805620000047,
                    "velocity": 0.2992125984251969,
                    "duration": 0.21246450000001005
                },
                {
                    "name": "F#5",
                    "midi": 78,
                    "time": 415.7930265000047,
                    "velocity": 0.2677165354330709,
                    "duration": 0.21246450000001005
                },
                {
                    "name": "D#5",
                    "midi": 75,
                    "time": 416.0054910000047,
                    "velocity": 0.2992125984251969,
                    "duration": 0.21246450000001005
                },
                {
                    "name": "A4",
                    "midi": 69,
                    "time": 416.21795550000473,
                    "velocity": 0.2755905511811024,
                    "duration": 0.21246450000001005
                },
                {
                    "name": "G#4",
                    "midi": 68,
                    "time": 416.43042000000474,
                    "velocity": 0.4015748031496063,
                    "duration": 0.8498579999999833
                },
                {
                    "name": "B5",
                    "midi": 83,
                    "time": 417.70520700000475,
                    "velocity": 0.3700787401574803,
                    "duration": 0.4249290000000201
                },
                {
                    "name": "B4",
                    "midi": 71,
                    "time": 417.70520700000475,
                    "velocity": 0.3700787401574803,
                    "duration": 0.4249290000000201
                },
                {
                    "name": "A#5",
                    "midi": 82,
                    "time": 418.13013600000477,
                    "velocity": 0.4015748031496063,
                    "duration": 0.8498579999999833
                },
                {
                    "name": "A#4",
                    "midi": 70,
                    "time": 418.13013600000477,
                    "velocity": 0.4015748031496063,
                    "duration": 0.8498579999999833
                },
                {
                    "name": "E6",
                    "midi": 88,
                    "time": 418.97999400000475,
                    "velocity": 0.4409448818897638,
                    "duration": 0.8498579999999833
                },
                {
                    "name": "E5",
                    "midi": 76,
                    "time": 418.97999400000475,
                    "velocity": 0.4409448818897638,
                    "duration": 0.8498579999999833
                },
                {
                    "name": "D#6",
                    "midi": 87,
                    "time": 419.82985200000473,
                    "velocity": 0.4015748031496063,
                    "duration": 1.2747870000000034
                },
                {
                    "name": "D#5",
                    "midi": 75,
                    "time": 419.82985200000473,
                    "velocity": 0.4015748031496063,
                    "duration": 1.2747870000000034
                },
                {
                    "name": "A5",
                    "midi": 81,
                    "time": 421.10463900000474,
                    "velocity": 0.3543307086614173,
                    "duration": 0.4249290000000201
                },
                {
                    "name": "A4",
                    "midi": 69,
                    "time": 421.10463900000474,
                    "velocity": 0.3543307086614173,
                    "duration": 0.4249290000000201
                },
                {
                    "name": "G#5",
                    "midi": 80,
                    "time": 421.52956800000476,
                    "velocity": 0.4015748031496063,
                    "duration": 0.8498579999999833
                },
                {
                    "name": "G#4",
                    "midi": 68,
                    "time": 421.52956800000476,
                    "velocity": 0.4015748031496063,
                    "duration": 0.8498579999999833
                },
                {
                    "name": "D6",
                    "midi": 86,
                    "time": 422.37942600000474,
                    "velocity": 0.4251968503937008,
                    "duration": 0.8498579999999833
                },
                {
                    "name": "D5",
                    "midi": 74,
                    "time": 422.37942600000474,
                    "velocity": 0.4251968503937008,
                    "duration": 0.8498579999999833
                },
                {
                    "name": "C#6",
                    "midi": 85,
                    "time": 423.2292840000047,
                    "velocity": 0.4015748031496063,
                    "duration": 1.2747870000000034
                },
                {
                    "name": "C#5",
                    "midi": 73,
                    "time": 423.2292840000047,
                    "velocity": 0.4015748031496063,
                    "duration": 1.2747870000000034
                },
                {
                    "name": "C#6",
                    "midi": 85,
                    "time": 424.5040710000047,
                    "velocity": 0.3779527559055118,
                    "duration": 0.4249290000000201
                },
                {
                    "name": "C#5",
                    "midi": 73,
                    "time": 424.5040710000047,
                    "velocity": 0.3779527559055118,
                    "duration": 0.4249290000000201
                },
                {
                    "name": "C6",
                    "midi": 84,
                    "time": 424.92900000000475,
                    "velocity": 0.4409448818897638,
                    "duration": 0.4249290000000201
                },
                {
                    "name": "C5",
                    "midi": 72,
                    "time": 424.92900000000475,
                    "velocity": 0.4409448818897638,
                    "duration": 0.4249290000000201
                },
                {
                    "name": "C#6",
                    "midi": 85,
                    "time": 425.35392900000477,
                    "velocity": 0.44881889763779526,
                    "duration": 0.4249290000000201
                },
                {
                    "name": "C#5",
                    "midi": 73,
                    "time": 425.35392900000477,
                    "velocity": 0.44881889763779526,
                    "duration": 0.4249290000000201
                },
                {
                    "name": "A5",
                    "midi": 81,
                    "time": 425.7788580000048,
                    "velocity": 0.4330708661417323,
                    "duration": 0.31869675000001507
                },
                {
                    "name": "A4",
                    "midi": 69,
                    "time": 425.7788580000048,
                    "velocity": 0.4330708661417323,
                    "duration": 0.31869675000001507
                },
                {
                    "name": "G#5",
                    "midi": 80,
                    "time": 426.2037870000048,
                    "velocity": 0.4251968503937008,
                    "duration": 0.31869675000001507
                },
                {
                    "name": "G#4",
                    "midi": 68,
                    "time": 426.2037870000048,
                    "velocity": 0.4251968503937008,
                    "duration": 0.31869675000001507
                },
                {
                    "name": "G#5",
                    "midi": 80,
                    "time": 426.62871600000483,
                    "velocity": 0.5511811023622047,
                    "duration": 0.4249290000000201
                },
                {
                    "name": "G#4",
                    "midi": 68,
                    "time": 426.62871600000483,
                    "velocity": 0.5511811023622047,
                    "duration": 0.4249290000000201
                },
                {
                    "name": "F#5",
                    "midi": 78,
                    "time": 427.05364500000485,
                    "velocity": 0.48031496062992124,
                    "duration": 0.8410053124999877
                },
                {
                    "name": "F#4",
                    "midi": 66,
                    "time": 427.05364500000485,
                    "velocity": 0.48031496062992124,
                    "duration": 0.8410053124999877
                },
                {
                    "name": "F#5",
                    "midi": 78,
                    "time": 427.90350300000483,
                    "velocity": 0.5118110236220472,
                    "duration": 0.403682549999985
                },
                {
                    "name": "F#4",
                    "midi": 66,
                    "time": 427.90350300000483,
                    "velocity": 0.5118110236220472,
                    "duration": 0.403682549999985
                },
                {
                    "name": "F#5",
                    "midi": 78,
                    "time": 428.3284320000048,
                    "velocity": 0.3858267716535433,
                    "duration": 0.4249290000000201
                },
                {
                    "name": "F#4",
                    "midi": 66,
                    "time": 428.3284320000048,
                    "velocity": 0.3858267716535433,
                    "duration": 0.4249290000000201
                },
                {
                    "name": "B5",
                    "midi": 83,
                    "time": 428.7533610000048,
                    "velocity": 0.2992125984251969,
                    "duration": 0.4249290000000201
                },
                {
                    "name": "B4",
                    "midi": 71,
                    "time": 428.7533610000048,
                    "velocity": 0.2992125984251969,
                    "duration": 0.4249290000000201
                },
                {
                    "name": "A#5",
                    "midi": 82,
                    "time": 429.17829000000484,
                    "velocity": 0.36220472440944884,
                    "duration": 0.4249290000000201
                },
                {
                    "name": "A#4",
                    "midi": 70,
                    "time": 429.17829000000484,
                    "velocity": 0.36220472440944884,
                    "duration": 0.4249290000000201
                },
                {
                    "name": "B5",
                    "midi": 83,
                    "time": 429.60321900000486,
                    "velocity": 0.31496062992125984,
                    "duration": 0.4249290000000201
                },
                {
                    "name": "B4",
                    "midi": 71,
                    "time": 429.60321900000486,
                    "velocity": 0.31496062992125984,
                    "duration": 0.4249290000000201
                },
                {
                    "name": "E5",
                    "midi": 76,
                    "time": 430.0281480000049,
                    "velocity": 0.3858267716535433,
                    "duration": 0.4249290000000201
                },
                {
                    "name": "E4",
                    "midi": 64,
                    "time": 430.0281480000049,
                    "velocity": 0.3858267716535433,
                    "duration": 0.4249290000000201
                },
                {
                    "name": "B5",
                    "midi": 83,
                    "time": 430.4530770000049,
                    "velocity": 0.2992125984251969,
                    "duration": 0.4249290000000201
                },
                {
                    "name": "B4",
                    "midi": 71,
                    "time": 430.4530770000049,
                    "velocity": 0.2992125984251969,
                    "duration": 0.4249290000000201
                },
                {
                    "name": "A#5",
                    "midi": 82,
                    "time": 430.8780060000049,
                    "velocity": 0.36220472440944884,
                    "duration": 0.4249290000000201
                },
                {
                    "name": "A#4",
                    "midi": 70,
                    "time": 430.8780060000049,
                    "velocity": 0.36220472440944884,
                    "duration": 0.4249290000000201
                },
                {
                    "name": "B5",
                    "midi": 83,
                    "time": 431.30293500000494,
                    "velocity": 0.31496062992125984,
                    "duration": 0.4249290000000201
                },
                {
                    "name": "B4",
                    "midi": 71,
                    "time": 431.30293500000494,
                    "velocity": 0.31496062992125984,
                    "duration": 0.4249290000000201
                },
                {
                    "name": "D#5",
                    "midi": 75,
                    "time": 431.94032850000497,
                    "velocity": 0.25984251968503935,
                    "duration": 0.21246450000001005
                },
                {
                    "name": "B5",
                    "midi": 83,
                    "time": 432.152793000005,
                    "velocity": 0.2992125984251969,
                    "duration": 0.21246450000001005
                },
                {
                    "name": "A5",
                    "midi": 81,
                    "time": 432.365257500005,
                    "velocity": 0.2677165354330709,
                    "duration": 0.21246450000001005
                },
                {
                    "name": "F#5",
                    "midi": 78,
                    "time": 432.577722000005,
                    "velocity": 0.30708661417322836,
                    "duration": 0.21246450000001005
                },
                {
                    "name": "D#5",
                    "midi": 75,
                    "time": 432.790186500005,
                    "velocity": 0.25196850393700787,
                    "duration": 0.21246450000001005
                },
                {
                    "name": "B4",
                    "midi": 71,
                    "time": 433.002651000005,
                    "velocity": 0.29133858267716534,
                    "duration": 0.21246450000001005
                },
                {
                    "name": "A4",
                    "midi": 69,
                    "time": 433.215115500005,
                    "velocity": 0.25196850393700787,
                    "duration": 0.21246450000001005
                },
                {
                    "name": "G#4",
                    "midi": 68,
                    "time": 433.64004450000505,
                    "velocity": 0.25984251968503935,
                    "duration": 0.21246450000001005
                },
                {
                    "name": "B5",
                    "midi": 83,
                    "time": 433.85250900000506,
                    "velocity": 0.2992125984251969,
                    "duration": 0.21246450000001005
                },
                {
                    "name": "G#5",
                    "midi": 80,
                    "time": 434.06497350000507,
                    "velocity": 0.2677165354330709,
                    "duration": 0.21246450000001005
                },
                {
                    "name": "E5",
                    "midi": 76,
                    "time": 434.2774380000051,
                    "velocity": 0.30708661417322836,
                    "duration": 0.21246450000001005
                },
                {
                    "name": "B4",
                    "midi": 71,
                    "time": 434.4899025000051,
                    "velocity": 0.25196850393700787,
                    "duration": 0.21246450000001005
                },
                {
                    "name": "A4",
                    "midi": 69,
                    "time": 434.7023670000051,
                    "velocity": 0.29133858267716534,
                    "duration": 0.21246450000001005
                },
                {
                    "name": "G#4",
                    "midi": 68,
                    "time": 434.9148315000051,
                    "velocity": 0.25196850393700787,
                    "duration": 0.21246450000001005
                },
                {
                    "name": "F#5",
                    "midi": 78,
                    "time": 435.1272960000051,
                    "velocity": 0.4566929133858268,
                    "duration": 0.4249290000000201
                },
                {
                    "name": "F#4",
                    "midi": 66,
                    "time": 435.1272960000051,
                    "velocity": 0.4566929133858268,
                    "duration": 0.4249290000000201
                },
                {
                    "name": "B5",
                    "midi": 83,
                    "time": 435.55222500000514,
                    "velocity": 0.36220472440944884,
                    "duration": 0.4249290000000201
                },
                {
                    "name": "B4",
                    "midi": 71,
                    "time": 435.55222500000514,
                    "velocity": 0.36220472440944884,
                    "duration": 0.4249290000000201
                },
                {
                    "name": "A#5",
                    "midi": 82,
                    "time": 435.97715400000516,
                    "velocity": 0.4566929133858268,
                    "duration": 0.4249290000000201
                },
                {
                    "name": "A#4",
                    "midi": 70,
                    "time": 435.97715400000516,
                    "velocity": 0.4566929133858268,
                    "duration": 0.4249290000000201
                },
                {
                    "name": "B5",
                    "midi": 83,
                    "time": 436.4020830000052,
                    "velocity": 0.4015748031496063,
                    "duration": 0.4249290000000201
                },
                {
                    "name": "B4",
                    "midi": 71,
                    "time": 436.4020830000052,
                    "velocity": 0.4015748031496063,
                    "duration": 0.4249290000000201
                },
                {
                    "name": "F4",
                    "midi": 65,
                    "time": 436.8270120000052,
                    "velocity": 0.5511811023622047,
                    "duration": 0.4249290000000201
                },
                {
                    "name": "F5",
                    "midi": 77,
                    "time": 436.8270120000052,
                    "velocity": 0.5511811023622047,
                    "duration": 0.4249290000000201
                },
                {
                    "name": "D5",
                    "midi": 74,
                    "time": 437.2519410000052,
                    "velocity": 0.5039370078740157,
                    "duration": 0.4249290000000201
                },
                {
                    "name": "D6",
                    "midi": 86,
                    "time": 437.2519410000052,
                    "velocity": 0.5039370078740157,
                    "duration": 0.4249290000000201
                },
                {
                    "name": "C#5",
                    "midi": 73,
                    "time": 437.67687000000524,
                    "velocity": 0.5826771653543307,
                    "duration": 0.4249290000000201
                },
                {
                    "name": "C#6",
                    "midi": 85,
                    "time": 437.67687000000524,
                    "velocity": 0.5826771653543307,
                    "duration": 0.4249290000000201
                },
                {
                    "name": "D5",
                    "midi": 74,
                    "time": 438.10179900000526,
                    "velocity": 0.5433070866141733,
                    "duration": 0.4249290000000201
                },
                {
                    "name": "D6",
                    "midi": 86,
                    "time": 438.10179900000526,
                    "velocity": 0.5433070866141733,
                    "duration": 0.4249290000000201
                },
                {
                    "name": "C#6",
                    "midi": 85,
                    "time": 438.5267280000053,
                    "velocity": 0.6220472440944882,
                    "duration": 0.4249290000000201
                },
                {
                    "name": "F#5",
                    "midi": 78,
                    "time": 438.9516570000053,
                    "velocity": 0.5275590551181102,
                    "duration": 0.4249290000000201
                },
                {
                    "name": "A5",
                    "midi": 81,
                    "time": 439.3765860000053,
                    "velocity": 0.6062992125984252,
                    "duration": 0.4249290000000201
                },
                {
                    "name": "C#5",
                    "midi": 73,
                    "time": 439.80151500000534,
                    "velocity": 0.5354330708661418,
                    "duration": 0.4249290000000201
                },
                {
                    "name": "F#5",
                    "midi": 78,
                    "time": 440.22644400000536,
                    "velocity": 0.4645669291338583,
                    "duration": 0.4249290000000201
                },
                {
                    "name": "C#5",
                    "midi": 73,
                    "time": 440.6513730000054,
                    "velocity": 0.4251968503937008,
                    "duration": 0.4249290000000201
                },
                {
                    "name": "E5",
                    "midi": 76,
                    "time": 441.0763020000054,
                    "velocity": 0.4645669291338583,
                    "duration": 0.4249290000000201
                },
                {
                    "name": "F#4",
                    "midi": 66,
                    "time": 441.5012310000054,
                    "velocity": 0.3543307086614173,
                    "duration": 0.4249290000000201
                },
                {
                    "name": "B4",
                    "midi": 71,
                    "time": 441.92616000000544,
                    "velocity": 0.4015748031496063,
                    "duration": 0.4249290000000201
                },
                {
                    "name": "G#4",
                    "midi": 68,
                    "time": 442.35108900000546,
                    "velocity": 0.2992125984251969,
                    "duration": 0.4249290000000201
                },
                {
                    "name": "B4",
                    "midi": 71,
                    "time": 442.7760180000055,
                    "velocity": 0.3700787401574803,
                    "duration": 0.4249290000000201
                },
                {
                    "name": "E4",
                    "midi": 64,
                    "time": 443.2009470000055,
                    "velocity": 0.23622047244094488,
                    "duration": 0.4249290000000201
                },
                {
                    "name": "D#4",
                    "midi": 63,
                    "time": 443.6258760000055,
                    "velocity": 0.33070866141732286,
                    "duration": 0.4249290000000201
                },
                {
                    "name": "B4",
                    "midi": 71,
                    "time": 444.05080500000554,
                    "velocity": 0.2677165354330709,
                    "duration": 0.4249290000000201
                },
                {
                    "name": "F#4",
                    "midi": 66,
                    "time": 444.47573400000556,
                    "velocity": 0.3228346456692913,
                    "duration": 0.4249290000000201
                },
                {
                    "name": "D#4",
                    "midi": 63,
                    "time": 444.47573400000556,
                    "velocity": 0.2677165354330709,
                    "duration": 0.4249290000000201
                },
                {
                    "name": "B4",
                    "midi": 71,
                    "time": 444.9006630000056,
                    "velocity": 0.2677165354330709,
                    "duration": 0.4249290000000201
                },
                {
                    "name": "D#4",
                    "midi": 63,
                    "time": 444.9006630000056,
                    "velocity": 0.2204724409448819,
                    "duration": 0.4249290000000201
                },
                {
                    "name": "D4",
                    "midi": 62,
                    "time": 445.5380565000056,
                    "velocity": 0.3858267716535433,
                    "duration": 0.21246450000001005
                },
                {
                    "name": "G#4",
                    "midi": 68,
                    "time": 445.7505210000056,
                    "velocity": 0.44881889763779526,
                    "duration": 0.21246450000001005
                },
                {
                    "name": "F4",
                    "midi": 65,
                    "time": 445.96298550000563,
                    "velocity": 0.3937007874015748,
                    "duration": 0.21246450000001005
                },
                {
                    "name": "C#4",
                    "midi": 61,
                    "time": 446.38791450000565,
                    "velocity": 0.41732283464566927,
                    "duration": 0.21246450000001005
                },
                {
                    "name": "A4",
                    "midi": 69,
                    "time": 446.60037900000566,
                    "velocity": 0.47244094488188976,
                    "duration": 0.21246450000001005
                },
                {
                    "name": "F#4",
                    "midi": 66,
                    "time": 446.81284350000567,
                    "velocity": 0.4330708661417323,
                    "duration": 0.21246450000001005
                },
                {
                    "name": "B4",
                    "midi": 71,
                    "time": 447.2377725000057,
                    "velocity": 0.5118110236220472,
                    "duration": 0.21246450000001005
                },
                {
                    "name": "B5",
                    "midi": 83,
                    "time": 447.4502370000057,
                    "velocity": 0.5590551181102362,
                    "duration": 0.21246450000001005
                },
                {
                    "name": "G#5",
                    "midi": 80,
                    "time": 447.6627015000057,
                    "velocity": 0.5275590551181102,
                    "duration": 0.21246450000001005
                },
                {
                    "name": "C#5",
                    "midi": 73,
                    "time": 448.08763050000573,
                    "velocity": 0.5511811023622047,
                    "duration": 0.21246450000001005
                },
                {
                    "name": "C#6",
                    "midi": 85,
                    "time": 448.30009500000574,
                    "velocity": 0.6377952755905512,
                    "duration": 0.21246450000001005
                },
                {
                    "name": "A5",
                    "midi": 81,
                    "time": 448.51255950000575,
                    "velocity": 0.5984251968503937,
                    "duration": 0.21246450000001005
                },
                {
                    "name": "D5",
                    "midi": 74,
                    "time": 448.93748850000577,
                    "velocity": 0.7165354330708661,
                    "duration": 0.21246450000001005
                },
                {
                    "name": "D6",
                    "midi": 86,
                    "time": 449.1499530000058,
                    "velocity": 0.7637795275590551,
                    "duration": 0.21246450000001005
                },
                {
                    "name": "B5",
                    "midi": 83,
                    "time": 449.3624175000058,
                    "velocity": 0.7007874015748031,
                    "duration": 0.21246450000001005
                },
                {
                    "name": "C#5",
                    "midi": 73,
                    "time": 449.7873465000058,
                    "velocity": 0.7007874015748031,
                    "duration": 0.21246450000001005
                },
                {
                    "name": "C#6",
                    "midi": 85,
                    "time": 449.9998110000058,
                    "velocity": 0.7716535433070866,
                    "duration": 0.21246450000001005
                },
                {
                    "name": "B5",
                    "midi": 83,
                    "time": 450.21227550000583,
                    "velocity": 0.7165354330708661,
                    "duration": 0.21246450000001005
                },
                {
                    "name": "C#4",
                    "midi": 61,
                    "time": 451.69952700000584,
                    "velocity": 0.3543307086614173,
                    "duration": 0.21246450000001005
                },
                {
                    "name": "D#4",
                    "midi": 63,
                    "time": 451.91199150000585,
                    "velocity": 0.3228346456692913,
                    "duration": 0.21246450000001005
                },
                {
                    "name": "E4",
                    "midi": 64,
                    "time": 452.12445600000586,
                    "velocity": 0.3700787401574803,
                    "duration": 0.4249290000000201
                },
                {
                    "name": "G4",
                    "midi": 67,
                    "time": 452.5493850000059,
                    "velocity": 0.3937007874015748,
                    "duration": 0.4249290000000201
                },
                {
                    "name": "F#4",
                    "midi": 66,
                    "time": 452.9743140000059,
                    "velocity": 0.36220472440944884,
                    "duration": 0.4249290000000201
                },
                {
                    "name": "C#4",
                    "midi": 61,
                    "time": 453.3992430000059,
                    "velocity": 0.36220472440944884,
                    "duration": 0.4249290000000201
                },
                {
                    "name": "F#5",
                    "midi": 78,
                    "time": 453.82417200000594,
                    "velocity": 0.3779527559055118,
                    "duration": 0.4249290000000201
                },
                {
                    "name": "D#4",
                    "midi": 63,
                    "time": 453.82417200000594,
                    "velocity": 0.3779527559055118,
                    "duration": 2.1246450000001005
                },
                {
                    "name": "C#6",
                    "midi": 85,
                    "time": 454.24910100000596,
                    "velocity": 0.4330708661417323,
                    "duration": 0.4249290000000201
                },
                {
                    "name": "B5",
                    "midi": 83,
                    "time": 454.674030000006,
                    "velocity": 0.3858267716535433,
                    "duration": 0.4249290000000201
                },
                {
                    "name": "F#5",
                    "midi": 78,
                    "time": 455.098959000006,
                    "velocity": 0.3779527559055118,
                    "duration": 0.4249290000000201
                },
                {
                    "name": "A5",
                    "midi": 81,
                    "time": 455.523888000006,
                    "velocity": 0.3937007874015748,
                    "duration": 2.1246450000001005
                },
                {
                    "name": "F#4",
                    "midi": 66,
                    "time": 455.94881700000604,
                    "velocity": 0.31496062992125984,
                    "duration": 0.4249290000000201
                },
                {
                    "name": "E4",
                    "midi": 64,
                    "time": 456.37374600000607,
                    "velocity": 0.33858267716535434,
                    "duration": 0.4249290000000201
                },
                {
                    "name": "C#4",
                    "midi": 61,
                    "time": 456.7986750000061,
                    "velocity": 0.31496062992125984,
                    "duration": 0.4249290000000201
                },
                {
                    "name": "E4",
                    "midi": 64,
                    "time": 457.2236040000061,
                    "velocity": 0.33070866141732286,
                    "duration": 2.1246450000001005
                },
                {
                    "name": "A5",
                    "midi": 81,
                    "time": 457.6485330000061,
                    "velocity": 0.3779527559055118,
                    "duration": 0.4249290000000201
                },
                {
                    "name": "G#5",
                    "midi": 80,
                    "time": 458.07346200000615,
                    "velocity": 0.3700787401574803,
                    "duration": 0.4249290000000201
                },
                {
                    "name": "E5",
                    "midi": 76,
                    "time": 458.49839100000617,
                    "velocity": 0.33858267716535434,
                    "duration": 0.4249290000000201
                },
                {
                    "name": "G#5",
                    "midi": 80,
                    "time": 458.9233200000062,
                    "velocity": 0.3937007874015748,
                    "duration": 2.1246450000001005
                },
                {
                    "name": "E4",
                    "midi": 64,
                    "time": 459.3482490000062,
                    "velocity": 0.2992125984251969,
                    "duration": 0.4249290000000201
                },
                {
                    "name": "D#4",
                    "midi": 63,
                    "time": 459.7731780000062,
                    "velocity": 0.3228346456692913,
                    "duration": 0.4249290000000201
                },
                {
                    "name": "B3",
                    "midi": 59,
                    "time": 460.19810700000625,
                    "velocity": 0.30708661417322836,
                    "duration": 0.4249290000000201
                },
                {
                    "name": "D#4",
                    "midi": 63,
                    "time": 460.62303600000627,
                    "velocity": 0.3228346456692913,
                    "duration": 0.4249290000000201
                },
                {
                    "name": "E5",
                    "midi": 76,
                    "time": 461.0479650000063,
                    "velocity": 0.2677165354330709,
                    "duration": 0.4249290000000201
                },
                {
                    "name": "G#5",
                    "midi": 80,
                    "time": 461.0479650000063,
                    "velocity": 0.31496062992125984,
                    "duration": 0.4249290000000201
                },
                {
                    "name": "F#5",
                    "midi": 78,
                    "time": 461.4728940000063,
                    "velocity": 0.33070866141732286,
                    "duration": 0.4249290000000201
                },
                {
                    "name": "D#5",
                    "midi": 75,
                    "time": 461.4728940000063,
                    "velocity": 0.2755905511811024,
                    "duration": 0.4249290000000201
                },
                {
                    "name": "B4",
                    "midi": 71,
                    "time": 461.8978230000063,
                    "velocity": 0.2677165354330709,
                    "duration": 0.4249290000000201
                },
                {
                    "name": "D#5",
                    "midi": 75,
                    "time": 461.8978230000063,
                    "velocity": 0.31496062992125984,
                    "duration": 0.4249290000000201
                },
                {
                    "name": "D#5",
                    "midi": 75,
                    "time": 462.32275200000635,
                    "velocity": 0.31496062992125984,
                    "duration": 0.403682549999985
                },
                {
                    "name": "F#5",
                    "midi": 78,
                    "time": 462.32275200000635,
                    "velocity": 0.3779527559055118,
                    "duration": 0.403682549999985
                },
                {
                    "name": "C5",
                    "midi": 72,
                    "time": 462.7476810000063,
                    "velocity": 0.2677165354330709,
                    "duration": 0.4249290000000201
                },
                {
                    "name": "F#5",
                    "midi": 78,
                    "time": 462.7476810000063,
                    "velocity": 0.31496062992125984,
                    "duration": 0.4249290000000201
                },
                {
                    "name": "E5",
                    "midi": 76,
                    "time": 463.17261000000633,
                    "velocity": 0.33070866141732286,
                    "duration": 0.4249290000000201
                },
                {
                    "name": "C#5",
                    "midi": 73,
                    "time": 463.17261000000633,
                    "velocity": 0.2755905511811024,
                    "duration": 0.4249290000000201
                },
                {
                    "name": "A4",
                    "midi": 69,
                    "time": 463.59753900000635,
                    "velocity": 0.25984251968503935,
                    "duration": 0.4249290000000201
                },
                {
                    "name": "C#5",
                    "midi": 73,
                    "time": 463.59753900000635,
                    "velocity": 0.30708661417322836,
                    "duration": 0.4249290000000201
                },
                {
                    "name": "C#5",
                    "midi": 73,
                    "time": 464.02246800000637,
                    "velocity": 0.31496062992125984,
                    "duration": 0.403682549999985
                },
                {
                    "name": "E5",
                    "midi": 76,
                    "time": 464.02246800000637,
                    "velocity": 0.3779527559055118,
                    "duration": 0.403682549999985
                },
                {
                    "name": "A#4",
                    "midi": 70,
                    "time": 464.44739700000633,
                    "velocity": 0.2677165354330709,
                    "duration": 0.4249290000000201
                },
                {
                    "name": "E5",
                    "midi": 76,
                    "time": 464.44739700000633,
                    "velocity": 0.31496062992125984,
                    "duration": 0.4249290000000201
                },
                {
                    "name": "D#5",
                    "midi": 75,
                    "time": 464.87232600000635,
                    "velocity": 0.3543307086614173,
                    "duration": 0.4249290000000201
                },
                {
                    "name": "B4",
                    "midi": 71,
                    "time": 464.87232600000635,
                    "velocity": 0.2992125984251969,
                    "duration": 0.4249290000000201
                },
                {
                    "name": "G#4",
                    "midi": 68,
                    "time": 465.2972550000064,
                    "velocity": 0.2677165354330709,
                    "duration": 0.4249290000000201
                },
                {
                    "name": "B4",
                    "midi": 71,
                    "time": 465.2972550000064,
                    "velocity": 0.3228346456692913,
                    "duration": 0.4249290000000201
                },
                {
                    "name": "B4",
                    "midi": 71,
                    "time": 465.7221840000064,
                    "velocity": 0.31496062992125984,
                    "duration": 0.403682549999985
                },
                {
                    "name": "D5",
                    "midi": 74,
                    "time": 465.7221840000064,
                    "velocity": 0.3779527559055118,
                    "duration": 0.403682549999985
                },
                {
                    "name": "G#4",
                    "midi": 68,
                    "time": 466.14711300000636,
                    "velocity": 0.25196850393700787,
                    "duration": 0.4249290000000201
                },
                {
                    "name": "D5",
                    "midi": 74,
                    "time": 466.14711300000636,
                    "velocity": 0.2992125984251969,
                    "duration": 0.4249290000000201
                },
                {
                    "name": "C#5",
                    "midi": 73,
                    "time": 466.5720420000064,
                    "velocity": 0.33858267716535434,
                    "duration": 0.4249290000000201
                },
                {
                    "name": "A4",
                    "midi": 69,
                    "time": 466.5720420000064,
                    "velocity": 0.28346456692913385,
                    "duration": 0.4249290000000201
                },
                {
                    "name": "D#4",
                    "midi": 63,
                    "time": 466.9969710000064,
                    "velocity": 0.25984251968503935,
                    "duration": 0.4249290000000201
                },
                {
                    "name": "C5",
                    "midi": 72,
                    "time": 466.9969710000064,
                    "velocity": 0.30708661417322836,
                    "duration": 0.4249290000000201
                },
                {
                    "name": "B4",
                    "midi": 71,
                    "time": 467.4219000000064,
                    "velocity": 0.4409448818897638,
                    "duration": 0.4249290000000201
                },
                {
                    "name": "E4",
                    "midi": 64,
                    "time": 467.4219000000064,
                    "velocity": 0.3700787401574803,
                    "duration": 0.4249290000000201
                },
                {
                    "name": "C#4",
                    "midi": 61,
                    "time": 467.84682900000644,
                    "velocity": 0.3464566929133858,
                    "duration": 0.4249290000000201
                },
                {
                    "name": "B4",
                    "midi": 71,
                    "time": 467.84682900000644,
                    "velocity": 0.4251968503937008,
                    "duration": 0.4249290000000201
                },
                {
                    "name": "A4",
                    "midi": 69,
                    "time": 468.27175800000646,
                    "velocity": 0.47244094488188976,
                    "duration": 0.21246450000001005
                },
                {
                    "name": "D#4",
                    "midi": 63,
                    "time": 468.27175800000646,
                    "velocity": 0.3937007874015748,
                    "duration": 0.21246450000001005
                },
                {
                    "name": "F#4",
                    "midi": 66,
                    "time": 468.48422250000647,
                    "velocity": 0.41732283464566927,
                    "duration": 0.21246450000001005
                },
                {
                    "name": "E4",
                    "midi": 64,
                    "time": 468.6966870000065,
                    "velocity": 0.33070866141732286,
                    "duration": 0.21246450000001005
                },
                {
                    "name": "F#4",
                    "midi": 66,
                    "time": 468.9091515000065,
                    "velocity": 0.2992125984251969,
                    "duration": 0.21246450000001005
                },
                {
                    "name": "G#4",
                    "midi": 68,
                    "time": 469.1216160000065,
                    "velocity": 0.3543307086614173,
                    "duration": 0.8498580000000402
                },
                {
                    "name": "E4",
                    "midi": 64,
                    "time": 469.1216160000065,
                    "velocity": 0.3543307086614173,
                    "duration": 0.21246450000001005
                },
                {
                    "name": "B3",
                    "midi": 59,
                    "time": 469.3340805000065,
                    "velocity": 0.2047244094488189,
                    "duration": 0.21246450000001005
                },
                {
                    "name": "E4",
                    "midi": 64,
                    "time": 469.5465450000065,
                    "velocity": 0.2440944881889764,
                    "duration": 0.21246450000001005
                },
                {
                    "name": "B3",
                    "midi": 59,
                    "time": 469.7590095000065,
                    "velocity": 0.2047244094488189,
                    "duration": 0.21246450000001005
                },
                {
                    "name": "G#4",
                    "midi": 68,
                    "time": 469.97147400000654,
                    "velocity": 0.23622047244094488,
                    "duration": 0.21246450000001005
                },
                {
                    "name": "B4",
                    "midi": 71,
                    "time": 469.97147400000654,
                    "velocity": 0.36220472440944884,
                    "duration": 0.4249290000000201
                },
                {
                    "name": "B3",
                    "midi": 59,
                    "time": 470.18393850000655,
                    "velocity": 0.2125984251968504,
                    "duration": 0.21246450000001005
                },
                {
                    "name": "F#4",
                    "midi": 66,
                    "time": 470.39640300000656,
                    "velocity": 0.2204724409448819,
                    "duration": 0.21246450000001005
                },
                {
                    "name": "A4",
                    "midi": 69,
                    "time": 470.39640300000656,
                    "velocity": 0.33858267716535434,
                    "duration": 0.4249290000000201
                },
                {
                    "name": "B3",
                    "midi": 59,
                    "time": 470.60886750000657,
                    "velocity": 0.2125984251968504,
                    "duration": 0.21246450000001005
                },
                {
                    "name": "E4",
                    "midi": 64,
                    "time": 470.8213320000066,
                    "velocity": 0.2677165354330709,
                    "duration": 0.21246450000001005
                },
                {
                    "name": "G#4",
                    "midi": 68,
                    "time": 470.8213320000066,
                    "velocity": 0.3937007874015748,
                    "duration": 0.4249290000000201
                },
                {
                    "name": "B3",
                    "midi": 59,
                    "time": 471.0337965000066,
                    "velocity": 0.2047244094488189,
                    "duration": 0.21246450000001005
                },
                {
                    "name": "D#4",
                    "midi": 63,
                    "time": 471.2462610000066,
                    "velocity": 0.2125984251968504,
                    "duration": 0.21246450000001005
                },
                {
                    "name": "F#4",
                    "midi": 66,
                    "time": 471.2462610000066,
                    "velocity": 0.3228346456692913,
                    "duration": 0.37181287499998916
                },
                {
                    "name": "B3",
                    "midi": 59,
                    "time": 471.4587255000066,
                    "velocity": 0.1968503937007874,
                    "duration": 0.15934837499997911
                },
                {
                    "name": "D#4",
                    "midi": 63,
                    "time": 471.67119000000656,
                    "velocity": 0.2125984251968504,
                    "duration": 0.21246450000001005
                },
                {
                    "name": "F#4",
                    "midi": 66,
                    "time": 471.67119000000656,
                    "velocity": 0.3228346456692913,
                    "duration": 0.4249290000000201
                },
                {
                    "name": "B3",
                    "midi": 59,
                    "time": 471.88365450000657,
                    "velocity": 0.2047244094488189,
                    "duration": 0.21246450000001005
                },
                {
                    "name": "E4",
                    "midi": 64,
                    "time": 472.0961190000066,
                    "velocity": 0.2204724409448819,
                    "duration": 0.21246450000001005
                },
                {
                    "name": "G#4",
                    "midi": 68,
                    "time": 472.0961190000066,
                    "velocity": 0.33858267716535434,
                    "duration": 0.4249290000000201
                },
                {
                    "name": "B3",
                    "midi": 59,
                    "time": 472.3085835000066,
                    "velocity": 0.2204724409448819,
                    "duration": 0.21246450000001005
                },
                {
                    "name": "E4",
                    "midi": 64,
                    "time": 472.5210480000066,
                    "velocity": 0.23622047244094488,
                    "duration": 0.21246450000001005
                },
                {
                    "name": "A4",
                    "midi": 69,
                    "time": 472.5210480000066,
                    "velocity": 0.36220472440944884,
                    "duration": 0.4249290000000201
                },
                {
                    "name": "B3",
                    "midi": 59,
                    "time": 472.7335125000066,
                    "velocity": 0.2204724409448819,
                    "duration": 0.21246450000001005
                },
                {
                    "name": "E4",
                    "midi": 64,
                    "time": 472.9459770000066,
                    "velocity": 0.28346456692913385,
                    "duration": 0.21246450000001005
                },
                {
                    "name": "C#5",
                    "midi": 73,
                    "time": 472.9459770000066,
                    "velocity": 0.4251968503937008,
                    "duration": 0.4249290000000201
                },
                {
                    "name": "B3",
                    "midi": 59,
                    "time": 473.15844150000663,
                    "velocity": 0.2440944881889764,
                    "duration": 0.21246450000001005
                },
                {
                    "name": "F#4",
                    "midi": 66,
                    "time": 473.37090600000664,
                    "velocity": 0.29133858267716534,
                    "duration": 0.21246450000001005
                },
                {
                    "name": "B4",
                    "midi": 71,
                    "time": 473.37090600000664,
                    "velocity": 0.3700787401574803,
                    "duration": 0.4249290000000201
                },
                {
                    "name": "B3",
                    "midi": 59,
                    "time": 473.58337050000665,
                    "velocity": 0.2047244094488189,
                    "duration": 0.21246450000001005
                },
                {
                    "name": "D#4",
                    "midi": 63,
                    "time": 473.79583500000666,
                    "velocity": 0.1968503937007874,
                    "duration": 0.21246450000001005
                },
                {
                    "name": "F#4",
                    "midi": 66,
                    "time": 473.79583500000666,
                    "velocity": 0.2992125984251969,
                    "duration": 0.4249290000000201
                },
                {
                    "name": "B3",
                    "midi": 59,
                    "time": 474.0082995000067,
                    "velocity": 0.2125984251968504,
                    "duration": 0.21246450000001005
                },
                {
                    "name": "B3",
                    "midi": 59,
                    "time": 474.2207640000067,
                    "velocity": 0.23622047244094488,
                    "duration": 0.19475912500001868
                },
                {
                    "name": "G#4",
                    "midi": 68,
                    "time": 474.2207640000067,
                    "velocity": 0.33070866141732286,
                    "duration": 0.8498580000000402
                },
                {
                    "name": "B3",
                    "midi": 59,
                    "time": 474.4332285000067,
                    "velocity": 0.2204724409448819,
                    "duration": 0.21246450000001005
                },
                {
                    "name": "E4",
                    "midi": 64,
                    "time": 474.6456930000067,
                    "velocity": 0.28346456692913385,
                    "duration": 0.21246450000001005
                },
                {
                    "name": "B3",
                    "midi": 59,
                    "time": 474.8581575000067,
                    "velocity": 0.2440944881889764,
                    "duration": 0.21246450000001005
                },
                {
                    "name": "E4",
                    "midi": 64,
                    "time": 475.0706220000067,
                    "velocity": 0.29133858267716534,
                    "duration": 0.21246450000001005
                },
                {
                    "name": "B3",
                    "midi": 59,
                    "time": 475.28308650000673,
                    "velocity": 0.2440944881889764,
                    "duration": 0.21246450000001005
                },
                {
                    "name": "E4",
                    "midi": 64,
                    "time": 475.49555100000674,
                    "velocity": 0.2204724409448819,
                    "duration": 0.21246450000001005
                },
                {
                    "name": "G#4",
                    "midi": 68,
                    "time": 475.49555100000674,
                    "velocity": 0.33858267716535434,
                    "duration": 0.4249290000000201
                },
                {
                    "name": "B3",
                    "midi": 59,
                    "time": 475.70801550000675,
                    "velocity": 0.2204724409448819,
                    "duration": 0.21246450000001005
                },
                {
                    "name": "E4",
                    "midi": 64,
                    "time": 475.92048000000676,
                    "velocity": 0.23622047244094488,
                    "duration": 0.21246450000001005
                },
                {
                    "name": "A4",
                    "midi": 69,
                    "time": 475.92048000000676,
                    "velocity": 0.36220472440944884,
                    "duration": 0.4249290000000201
                },
                {
                    "name": "B3",
                    "midi": 59,
                    "time": 476.1329445000068,
                    "velocity": 0.2204724409448819,
                    "duration": 0.21246450000001005
                },
                {
                    "name": "E4",
                    "midi": 64,
                    "time": 476.3454090000068,
                    "velocity": 0.28346456692913385,
                    "duration": 0.21246450000001005
                },
                {
                    "name": "C#5",
                    "midi": 73,
                    "time": 476.3454090000068,
                    "velocity": 0.4251968503937008,
                    "duration": 0.4249290000000201
                },
                {
                    "name": "B3",
                    "midi": 59,
                    "time": 476.5578735000068,
                    "velocity": 0.2440944881889764,
                    "duration": 0.21246450000001005
                },
                {
                    "name": "F#4",
                    "midi": 66,
                    "time": 476.7703380000068,
                    "velocity": 0.29133858267716534,
                    "duration": 0.21246450000001005
                },
                {
                    "name": "B4",
                    "midi": 71,
                    "time": 476.7703380000068,
                    "velocity": 0.3700787401574803,
                    "duration": 0.4249290000000201
                },
                {
                    "name": "B3",
                    "midi": 59,
                    "time": 476.9828025000068,
                    "velocity": 0.2047244094488189,
                    "duration": 0.21246450000001005
                },
                {
                    "name": "D#4",
                    "midi": 63,
                    "time": 477.1952670000068,
                    "velocity": 0.1968503937007874,
                    "duration": 0.21246450000001005
                },
                {
                    "name": "F#4",
                    "midi": 66,
                    "time": 477.1952670000068,
                    "velocity": 0.2992125984251969,
                    "duration": 0.4249290000000201
                },
                {
                    "name": "B3",
                    "midi": 59,
                    "time": 477.40773150000683,
                    "velocity": 0.2125984251968504,
                    "duration": 0.21246450000001005
                },
                {
                    "name": "B3",
                    "midi": 59,
                    "time": 477.62019600000684,
                    "velocity": 0.2755905511811024,
                    "duration": 0.8498579999999833
                },
                {
                    "name": "E4",
                    "midi": 64,
                    "time": 477.62019600000684,
                    "velocity": 0.2755905511811024,
                    "duration": 0.8498579999999833
                },
                {
                    "name": "G#4",
                    "midi": 68,
                    "time": 477.62019600000684,
                    "velocity": 0.33070866141732286,
                    "duration": 0.8498579999999833
                },
                {
                    "name": "G#4",
                    "midi": 68,
                    "time": 478.89498300000685,
                    "velocity": 0.3543307086614173,
                    "duration": 0.4249290000000201
                },
                {
                    "name": "G#5",
                    "midi": 80,
                    "time": 478.89498300000685,
                    "velocity": 0.3543307086614173,
                    "duration": 0.4249290000000201
                },
                {
                    "name": "A4",
                    "midi": 69,
                    "time": 479.31991200000687,
                    "velocity": 0.33858267716535434,
                    "duration": 0.4249290000000201
                },
                {
                    "name": "A5",
                    "midi": 81,
                    "time": 479.31991200000687,
                    "velocity": 0.4015748031496063,
                    "duration": 0.4249290000000201
                },
                {
                    "name": "C#5",
                    "midi": 73,
                    "time": 479.7448410000069,
                    "velocity": 0.3464566929133858,
                    "duration": 0.4249290000000201
                },
                {
                    "name": "C#6",
                    "midi": 85,
                    "time": 479.7448410000069,
                    "velocity": 0.41732283464566927,
                    "duration": 0.4249290000000201
                },
                {
                    "name": "B4",
                    "midi": 71,
                    "time": 480.1697700000069,
                    "velocity": 0.30708661417322836,
                    "duration": 0.4249290000000201
                },
                {
                    "name": "B5",
                    "midi": 83,
                    "time": 480.1697700000069,
                    "velocity": 0.3700787401574803,
                    "duration": 0.4249290000000201
                },
                {
                    "name": "D#6",
                    "midi": 87,
                    "time": 480.5946990000069,
                    "velocity": 0.3858267716535433,
                    "duration": 0.4249290000000201
                },
                {
                    "name": "D#5",
                    "midi": 75,
                    "time": 480.5946990000069,
                    "velocity": 0.25196850393700787,
                    "duration": 0.4249290000000201
                },
                {
                    "name": "E6",
                    "midi": 88,
                    "time": 481.01962800000695,
                    "velocity": 0.44881889763779526,
                    "duration": 0.8498579999999833
                },
                {
                    "name": "E5",
                    "midi": 76,
                    "time": 481.01962800000695,
                    "velocity": 0.2755905511811024,
                    "duration": 0.8498579999999833
                },
                {
                    "name": "G#4",
                    "midi": 68,
                    "time": 483.9941310000069,
                    "velocity": 0.2440944881889764,
                    "duration": 0.4249290000000201
                },
                {
                    "name": "F#4",
                    "midi": 66,
                    "time": 484.41906000000694,
                    "velocity": 0.2440944881889764,
                    "duration": 0.4249290000000201
                },
                {
                    "name": "F#5",
                    "midi": 78,
                    "time": 484.84398900000696,
                    "velocity": 0.33070866141732286,
                    "duration": 0.4249290000000201
                },
                {
                    "name": "E5",
                    "midi": 76,
                    "time": 484.84398900000696,
                    "velocity": 0.2755905511811024,
                    "duration": 0.4249290000000201
                },
                {
                    "name": "C#5",
                    "midi": 73,
                    "time": 484.84398900000696,
                    "velocity": 0.2755905511811024,
                    "duration": 0.4249290000000201
                },
                {
                    "name": "C#5",
                    "midi": 73,
                    "time": 485.268918000007,
                    "velocity": 0.2992125984251969,
                    "duration": 0.8498580000000402
                },
                {
                    "name": "E5",
                    "midi": 76,
                    "time": 485.268918000007,
                    "velocity": 0.3543307086614173,
                    "duration": 0.4249290000000201
                },
                {
                    "name": "C#6",
                    "midi": 85,
                    "time": 485.693847000007,
                    "velocity": 0.3937007874015748,
                    "duration": 0.4249290000000201
                },
                {
                    "name": "C#6",
                    "midi": 85,
                    "time": 486.118776000007,
                    "velocity": 0.3543307086614173,
                    "duration": 0.21246450000001005
                },
                {
                    "name": "B5",
                    "midi": 83,
                    "time": 486.331240500007,
                    "velocity": 0.29133858267716534,
                    "duration": 0.21246450000001005
                },
                {
                    "name": "G#5",
                    "midi": 80,
                    "time": 486.54370500000704,
                    "velocity": 0.2992125984251969,
                    "duration": 0.21246450000001005
                },
                {
                    "name": "E5",
                    "midi": 76,
                    "time": 486.75616950000705,
                    "velocity": 0.2992125984251969,
                    "duration": 0.21246450000001005
                },
                {
                    "name": "D#5",
                    "midi": 75,
                    "time": 486.96863400000706,
                    "velocity": 0.30708661417322836,
                    "duration": 0.21246450000001005
                },
                {
                    "name": "C#5",
                    "midi": 73,
                    "time": 487.18109850000707,
                    "velocity": 0.30708661417322836,
                    "duration": 0.21246450000001005
                },
                {
                    "name": "B4",
                    "midi": 71,
                    "time": 487.3935630000071,
                    "velocity": 0.30708661417322836,
                    "duration": 0.21246450000001005
                },
                {
                    "name": "A4",
                    "midi": 69,
                    "time": 487.6060275000071,
                    "velocity": 0.31496062992125984,
                    "duration": 0.21246450000001005
                },
                {
                    "name": "G#4",
                    "midi": 68,
                    "time": 487.8184920000071,
                    "velocity": 0.33858267716535434,
                    "duration": 0.21246450000001005
                },
                {
                    "name": "F#4",
                    "midi": 66,
                    "time": 488.0309565000071,
                    "velocity": 0.31496062992125984,
                    "duration": 0.21246450000001005
                },
                {
                    "name": "E4",
                    "midi": 64,
                    "time": 488.2434210000071,
                    "velocity": 0.28346456692913385,
                    "duration": 0.15934837499997911
                },
                {
                    "name": "E5",
                    "midi": 76,
                    "time": 488.45588550000707,
                    "velocity": 0.3858267716535433,
                    "duration": 0.21246450000001005
                },
                {
                    "name": "D#5",
                    "midi": 75,
                    "time": 488.6683500000071,
                    "velocity": 0.36220472440944884,
                    "duration": 0.21246450000001005
                },
                {
                    "name": "C#5",
                    "midi": 73,
                    "time": 488.8808145000071,
                    "velocity": 0.3543307086614173,
                    "duration": 0.15934837499997911
                },
                {
                    "name": "C#6",
                    "midi": 85,
                    "time": 489.09327900000704,
                    "velocity": 0.4330708661417323,
                    "duration": 0.21246450000001005
                },
                {
                    "name": "B5",
                    "midi": 83,
                    "time": 489.30574350000705,
                    "velocity": 0.4094488188976378,
                    "duration": 0.21246450000001005
                },
                {
                    "name": "A5",
                    "midi": 81,
                    "time": 489.51820800000706,
                    "velocity": 0.3937007874015748,
                    "duration": 0.21246450000001005
                },
                {
                    "name": "G#5",
                    "midi": 80,
                    "time": 489.7306725000071,
                    "velocity": 0.3858267716535433,
                    "duration": 0.15934837499997911
                },
                {
                    "name": "A6",
                    "midi": 93,
                    "time": 489.943137000007,
                    "velocity": 0.4645669291338583,
                    "duration": 0.21246450000001005
                },
                {
                    "name": "G#6",
                    "midi": 92,
                    "time": 490.15560150000704,
                    "velocity": 0.4409448818897638,
                    "duration": 0.15934837499997911
                },
                {
                    "name": "G#6",
                    "midi": 92,
                    "time": 490.368066000007,
                    "velocity": 0.44881889763779526,
                    "duration": 0.21246450000001005
                },
                {
                    "name": "F#6",
                    "midi": 90,
                    "time": 490.580530500007,
                    "velocity": 0.4330708661417323,
                    "duration": 0.21246450000001005
                },
                {
                    "name": "A6",
                    "midi": 93,
                    "time": 490.792995000007,
                    "velocity": 0.4566929133858268,
                    "duration": 0.21246450000001005
                },
                {
                    "name": "F#6",
                    "midi": 90,
                    "time": 491.005459500007,
                    "velocity": 0.4409448818897638,
                    "duration": 0.21246450000001005
                },
                {
                    "name": "E6",
                    "midi": 88,
                    "time": 491.21792400000703,
                    "velocity": 0.4330708661417323,
                    "duration": 0.21246450000001005
                },
                {
                    "name": "D#6",
                    "midi": 87,
                    "time": 491.43038850000704,
                    "velocity": 0.4409448818897638,
                    "duration": 0.21246450000001005
                },
                {
                    "name": "F#6",
                    "midi": 90,
                    "time": 491.64285300000705,
                    "velocity": 0.49606299212598426,
                    "duration": 0.21246450000001005
                },
                {
                    "name": "A5",
                    "midi": 81,
                    "time": 491.85531750000706,
                    "velocity": 0.4251968503937008,
                    "duration": 0.15934837499997911
                },
                {
                    "name": "A5",
                    "midi": 81,
                    "time": 492.067782000007,
                    "velocity": 0.3937007874015748,
                    "duration": 0.21246450000001005
                },
                {
                    "name": "G#5",
                    "midi": 80,
                    "time": 492.280246500007,
                    "velocity": 0.3700787401574803,
                    "duration": 0.21246450000001005
                },
                {
                    "name": "E6",
                    "midi": 88,
                    "time": 492.49271100000703,
                    "velocity": 0.3937007874015748,
                    "duration": 0.21246450000001005
                },
                {
                    "name": "G#5",
                    "midi": 80,
                    "time": 492.70517550000704,
                    "velocity": 0.36220472440944884,
                    "duration": 0.21246450000001005
                },
                {
                    "name": "F#5",
                    "midi": 78,
                    "time": 492.91764000000705,
                    "velocity": 0.31496062992125984,
                    "duration": 0.21246450000001005
                },
                {
                    "name": "C#6",
                    "midi": 85,
                    "time": 493.13010450000706,
                    "velocity": 0.29133858267716534,
                    "duration": 0.21246450000001005
                },
                {
                    "name": "B5",
                    "midi": 83,
                    "time": 493.3425690000071,
                    "velocity": 0.31496062992125984,
                    "duration": 0.21246450000001005
                },
                {
                    "name": "D#5",
                    "midi": 75,
                    "time": 493.5550335000071,
                    "velocity": 0.28346456692913385,
                    "duration": 0.21246450000001005
                },
                {
                    "name": "E5",
                    "midi": 76,
                    "time": 493.7674980000071,
                    "velocity": 0.31496062992125984,
                    "duration": 0.4249290000000201
                }
            ],
            "controlChanges": {},
            "id": 1,
            "name": "Piano right",
            "instrumentNumber": 0,
            "instrument": "acoustic grand piano",
            "instrumentFamily": "piano",
            "channelNumber": 0,
            "isPercussion": false
        },
        {
            "startTime": 1.699716,
            "duration": 494.1924270000116,
            "length": 2146,
            "notes": [
                {
                    "name": "E2",
                    "midi": 40,
                    "time": 1.699716,
                    "velocity": 0.1968503937007874,
                    "duration": 0.4249290000000001
                },
                {
                    "name": "E3",
                    "midi": 52,
                    "time": 1.699716,
                    "velocity": 0.23622047244094488,
                    "duration": 0.4249290000000001
                },
                {
                    "name": "B1",
                    "midi": 35,
                    "time": 3.399432,
                    "velocity": 0.1968503937007874,
                    "duration": 0.4249290000000001
                },
                {
                    "name": "B2",
                    "midi": 47,
                    "time": 3.399432,
                    "velocity": 0.23622047244094488,
                    "duration": 0.4249290000000001
                },
                {
                    "name": "C#2",
                    "midi": 37,
                    "time": 5.099148,
                    "velocity": 0.1968503937007874,
                    "duration": 0.42492899999999967
                },
                {
                    "name": "C#3",
                    "midi": 49,
                    "time": 5.099148,
                    "velocity": 0.23622047244094488,
                    "duration": 0.42492899999999967
                },
                {
                    "name": "D#3",
                    "midi": 51,
                    "time": 5.949005999999999,
                    "velocity": 0.2204724409448819,
                    "duration": 0.42492899999999967
                },
                {
                    "name": "D#2",
                    "midi": 39,
                    "time": 5.949005999999999,
                    "velocity": 0.18110236220472442,
                    "duration": 0.42492899999999967
                },
                {
                    "name": "B2",
                    "midi": 47,
                    "time": 6.373934999999999,
                    "velocity": 0.2047244094488189,
                    "duration": 0.42492899999999967
                },
                {
                    "name": "B1",
                    "midi": 35,
                    "time": 6.373934999999999,
                    "velocity": 0.1732283464566929,
                    "duration": 0.42492899999999967
                },
                {
                    "name": "E2",
                    "midi": 40,
                    "time": 6.798863999999998,
                    "velocity": 0.2204724409448819,
                    "duration": 0.21246450000000028
                },
                {
                    "name": "E3",
                    "midi": 52,
                    "time": 6.798863999999998,
                    "velocity": 0.2204724409448819,
                    "duration": 0.21246450000000028
                },
                {
                    "name": "G#3",
                    "midi": 56,
                    "time": 7.0113284999999985,
                    "velocity": 0.1968503937007874,
                    "duration": 0.21246450000000028
                },
                {
                    "name": "B3",
                    "midi": 59,
                    "time": 7.223792999999999,
                    "velocity": 0.2204724409448819,
                    "duration": 0.21246450000000028
                },
                {
                    "name": "A3",
                    "midi": 57,
                    "time": 7.436257499999999,
                    "velocity": 0.2047244094488189,
                    "duration": 0.21246450000000028
                },
                {
                    "name": "G#3",
                    "midi": 56,
                    "time": 7.648721999999999,
                    "velocity": 0.2204724409448819,
                    "duration": 0.21246450000000028
                },
                {
                    "name": "A3",
                    "midi": 57,
                    "time": 7.8611865,
                    "velocity": 0.1968503937007874,
                    "duration": 0.21246450000000028
                },
                {
                    "name": "G#3",
                    "midi": 56,
                    "time": 8.073651,
                    "velocity": 0.2677165354330709,
                    "duration": 0.2124644999999994
                },
                {
                    "name": "F#3",
                    "midi": 54,
                    "time": 8.2861155,
                    "velocity": 0.2440944881889764,
                    "duration": 0.2124644999999994
                },
                {
                    "name": "E3",
                    "midi": 52,
                    "time": 8.498579999999999,
                    "velocity": 0.33070866141732286,
                    "duration": 0.2124644999999994
                },
                {
                    "name": "B3",
                    "midi": 59,
                    "time": 8.711044499999998,
                    "velocity": 0.25196850393700787,
                    "duration": 0.2124644999999994
                },
                {
                    "name": "B2",
                    "midi": 47,
                    "time": 8.923508999999997,
                    "velocity": 0.30708661417322836,
                    "duration": 0.2124644999999994
                },
                {
                    "name": "B3",
                    "midi": 59,
                    "time": 9.135973499999997,
                    "velocity": 0.25196850393700787,
                    "duration": 0.2124644999999994
                },
                {
                    "name": "E3",
                    "midi": 52,
                    "time": 9.348437999999996,
                    "velocity": 0.29133858267716534,
                    "duration": 0.2124644999999994
                },
                {
                    "name": "B3",
                    "midi": 59,
                    "time": 9.560902499999996,
                    "velocity": 0.25984251968503935,
                    "duration": 0.2124644999999994
                },
                {
                    "name": "B2",
                    "midi": 47,
                    "time": 9.773366999999995,
                    "velocity": 0.2677165354330709,
                    "duration": 0.2124644999999994
                },
                {
                    "name": "B3",
                    "midi": 59,
                    "time": 9.985831499999994,
                    "velocity": 0.25984251968503935,
                    "duration": 0.2124644999999994
                },
                {
                    "name": "D#3",
                    "midi": 51,
                    "time": 10.198295999999994,
                    "velocity": 0.33070866141732286,
                    "duration": 0.2124644999999994
                },
                {
                    "name": "B3",
                    "midi": 59,
                    "time": 10.410760499999993,
                    "velocity": 0.25196850393700787,
                    "duration": 0.2124644999999994
                },
                {
                    "name": "B2",
                    "midi": 47,
                    "time": 10.623224999999993,
                    "velocity": 0.25984251968503935,
                    "duration": 0.2124644999999994
                },
                {
                    "name": "B3",
                    "midi": 59,
                    "time": 10.835689499999992,
                    "velocity": 0.2440944881889764,
                    "duration": 0.15934837500000043
                },
                {
                    "name": "D#3",
                    "midi": 51,
                    "time": 11.048153999999993,
                    "velocity": 0.25984251968503935,
                    "duration": 0.2124644999999994
                },
                {
                    "name": "B3",
                    "midi": 59,
                    "time": 11.260618499999993,
                    "velocity": 0.25984251968503935,
                    "duration": 0.2124644999999994
                },
                {
                    "name": "F3",
                    "midi": 53,
                    "time": 11.473082999999992,
                    "velocity": 0.29133858267716534,
                    "duration": 0.2124644999999994
                },
                {
                    "name": "B3",
                    "midi": 59,
                    "time": 11.685547499999991,
                    "velocity": 0.30708661417322836,
                    "duration": 0.2124644999999994
                },
                {
                    "name": "F#3",
                    "midi": 54,
                    "time": 11.89801199999999,
                    "velocity": 0.33858267716535434,
                    "duration": 0.2124644999999994
                },
                {
                    "name": "B3",
                    "midi": 59,
                    "time": 12.11047649999999,
                    "velocity": 0.33858267716535434,
                    "duration": 0.2124644999999994
                },
                {
                    "name": "A3",
                    "midi": 57,
                    "time": 12.32294099999999,
                    "velocity": 0.3858267716535433,
                    "duration": 0.2124644999999994
                },
                {
                    "name": "B3",
                    "midi": 59,
                    "time": 12.535405499999989,
                    "velocity": 0.33858267716535434,
                    "duration": 0.2124644999999994
                },
                {
                    "name": "G#3",
                    "midi": 56,
                    "time": 12.747869999999988,
                    "velocity": 0.3464566929133858,
                    "duration": 0.2124644999999994
                },
                {
                    "name": "B3",
                    "midi": 59,
                    "time": 12.960334499999988,
                    "velocity": 0.29133858267716534,
                    "duration": 0.2124644999999994
                },
                {
                    "name": "B2",
                    "midi": 47,
                    "time": 13.172798999999987,
                    "velocity": 0.1968503937007874,
                    "duration": 0.2124644999999994
                },
                {
                    "name": "F#3",
                    "midi": 54,
                    "time": 13.172798999999987,
                    "velocity": 0.1968503937007874,
                    "duration": 0.2124644999999994
                },
                {
                    "name": "A3",
                    "midi": 57,
                    "time": 13.385263499999986,
                    "velocity": 0.2125984251968504,
                    "duration": 0.2124644999999994
                },
                {
                    "name": "E3",
                    "midi": 52,
                    "time": 13.597727999999986,
                    "velocity": 0.2440944881889764,
                    "duration": 0.2124644999999994
                },
                {
                    "name": "G#3",
                    "midi": 56,
                    "time": 13.597727999999986,
                    "velocity": 0.2440944881889764,
                    "duration": 0.2124644999999994
                },
                {
                    "name": "B3",
                    "midi": 59,
                    "time": 13.810192499999985,
                    "velocity": 0.18110236220472442,
                    "duration": 0.2124644999999994
                },
                {
                    "name": "G#3",
                    "midi": 56,
                    "time": 14.022656999999985,
                    "velocity": 0.2440944881889764,
                    "duration": 0.2124644999999994
                },
                {
                    "name": "E3",
                    "midi": 52,
                    "time": 14.235121499999984,
                    "velocity": 0.1968503937007874,
                    "duration": 0.2124644999999994
                },
                {
                    "name": "D#3",
                    "midi": 51,
                    "time": 14.447585999999983,
                    "velocity": 0.2440944881889764,
                    "duration": 0.2124644999999994
                },
                {
                    "name": "B3",
                    "midi": 59,
                    "time": 14.660050499999983,
                    "velocity": 0.2125984251968504,
                    "duration": 0.2124644999999994
                },
                {
                    "name": "F#3",
                    "midi": 54,
                    "time": 14.872514999999982,
                    "velocity": 0.2440944881889764,
                    "duration": 0.2124644999999994
                },
                {
                    "name": "D#3",
                    "midi": 51,
                    "time": 15.084979499999982,
                    "velocity": 0.25196850393700787,
                    "duration": 0.2124644999999994
                },
                {
                    "name": "C#3",
                    "midi": 49,
                    "time": 15.297443999999981,
                    "velocity": 0.2992125984251969,
                    "duration": 0.2124644999999994
                },
                {
                    "name": "A#3",
                    "midi": 58,
                    "time": 15.50990849999998,
                    "velocity": 0.2283464566929134,
                    "duration": 0.2124644999999994
                },
                {
                    "name": "F#3",
                    "midi": 54,
                    "time": 15.72237299999998,
                    "velocity": 0.2440944881889764,
                    "duration": 0.2124644999999994
                },
                {
                    "name": "C#3",
                    "midi": 49,
                    "time": 15.93483749999998,
                    "velocity": 0.2125984251968504,
                    "duration": 0.2124644999999994
                },
                {
                    "name": "F#2",
                    "midi": 42,
                    "time": 16.14730199999998,
                    "velocity": 0.2440944881889764,
                    "duration": 0.2124644999999994
                },
                {
                    "name": "A#3",
                    "midi": 58,
                    "time": 16.359766499999978,
                    "velocity": 0.2047244094488189,
                    "duration": 0.2124644999999994
                },
                {
                    "name": "F#3",
                    "midi": 54,
                    "time": 16.572230999999977,
                    "velocity": 0.2283464566929134,
                    "duration": 0.2124644999999994
                },
                {
                    "name": "C#3",
                    "midi": 49,
                    "time": 16.784695499999977,
                    "velocity": 0.2125984251968504,
                    "duration": 0.2124644999999994
                },
                {
                    "name": "B2",
                    "midi": 47,
                    "time": 16.997159999999976,
                    "velocity": 0.2440944881889764,
                    "duration": 0.2124644999999994
                },
                {
                    "name": "B3",
                    "midi": 59,
                    "time": 17.209624499999975,
                    "velocity": 0.1968503937007874,
                    "duration": 0.2124644999999994
                },
                {
                    "name": "F#3",
                    "midi": 54,
                    "time": 17.422088999999975,
                    "velocity": 0.23622047244094488,
                    "duration": 0.2124644999999994
                },
                {
                    "name": "D#3",
                    "midi": 51,
                    "time": 17.634553499999974,
                    "velocity": 0.2125984251968504,
                    "duration": 0.2124644999999994
                },
                {
                    "name": "B2",
                    "midi": 47,
                    "time": 17.847017999999974,
                    "velocity": 0.29133858267716534,
                    "duration": 0.2124644999999994
                },
                {
                    "name": "B3",
                    "midi": 59,
                    "time": 18.059482499999973,
                    "velocity": 0.23622047244094488,
                    "duration": 0.2124644999999994
                },
                {
                    "name": "C#3",
                    "midi": 49,
                    "time": 18.271946999999972,
                    "velocity": 0.31496062992125984,
                    "duration": 0.2124644999999994
                },
                {
                    "name": "A3",
                    "midi": 57,
                    "time": 18.484411499999972,
                    "velocity": 0.28346456692913385,
                    "duration": 0.2124644999999994
                },
                {
                    "name": "B2",
                    "midi": 47,
                    "time": 18.69687599999997,
                    "velocity": 0.2677165354330709,
                    "duration": 0.2124644999999994
                },
                {
                    "name": "G#3",
                    "midi": 56,
                    "time": 18.90934049999997,
                    "velocity": 0.2440944881889764,
                    "duration": 0.2124644999999994
                },
                {
                    "name": "E3",
                    "midi": 52,
                    "time": 19.12180499999997,
                    "velocity": 0.3228346456692913,
                    "duration": 0.2124644999999994
                },
                {
                    "name": "B2",
                    "midi": 47,
                    "time": 19.33426949999997,
                    "velocity": 0.29133858267716534,
                    "duration": 0.2124644999999994
                },
                {
                    "name": "E2",
                    "midi": 40,
                    "time": 19.54673399999997,
                    "velocity": 0.3700787401574803,
                    "duration": 0.2124644999999994
                },
                {
                    "name": "G#3",
                    "midi": 56,
                    "time": 19.759198499999968,
                    "velocity": 0.2755905511811024,
                    "duration": 0.2124644999999994
                },
                {
                    "name": "E3",
                    "midi": 52,
                    "time": 19.971662999999968,
                    "velocity": 0.30708661417322836,
                    "duration": 0.2124644999999994
                },
                {
                    "name": "B2",
                    "midi": 47,
                    "time": 20.184127499999967,
                    "velocity": 0.2440944881889764,
                    "duration": 0.2124644999999994
                },
                {
                    "name": "A2",
                    "midi": 45,
                    "time": 20.396591999999966,
                    "velocity": 0.2992125984251969,
                    "duration": 0.2124644999999994
                },
                {
                    "name": "A3",
                    "midi": 57,
                    "time": 20.609056499999966,
                    "velocity": 0.2283464566929134,
                    "duration": 0.2124644999999994
                },
                {
                    "name": "E3",
                    "midi": 52,
                    "time": 20.821520999999965,
                    "velocity": 0.2677165354330709,
                    "duration": 0.2124644999999994
                },
                {
                    "name": "C#3",
                    "midi": 49,
                    "time": 21.033985499999964,
                    "velocity": 0.2283464566929134,
                    "duration": 0.2124644999999994
                },
                {
                    "name": "A2",
                    "midi": 45,
                    "time": 21.246449999999964,
                    "velocity": 0.2677165354330709,
                    "duration": 0.2124644999999994
                },
                {
                    "name": "E3",
                    "midi": 52,
                    "time": 21.458914499999963,
                    "velocity": 0.2283464566929134,
                    "duration": 0.2124644999999994
                },
                {
                    "name": "A2",
                    "midi": 45,
                    "time": 21.671378999999963,
                    "velocity": 0.2440944881889764,
                    "duration": 0.2124644999999994
                },
                {
                    "name": "E3",
                    "midi": 52,
                    "time": 21.883843499999962,
                    "velocity": 0.2755905511811024,
                    "duration": 0.2124644999999994
                },
                {
                    "name": "A2",
                    "midi": 45,
                    "time": 22.09630799999996,
                    "velocity": 0.31496062992125984,
                    "duration": 0.2124644999999994
                },
                {
                    "name": "E3",
                    "midi": 52,
                    "time": 22.30877249999996,
                    "velocity": 0.2755905511811024,
                    "duration": 0.2124644999999994
                },
                {
                    "name": "A2",
                    "midi": 45,
                    "time": 22.52123699999996,
                    "velocity": 0.30708661417322836,
                    "duration": 0.2124644999999994
                },
                {
                    "name": "E3",
                    "midi": 52,
                    "time": 22.73370149999996,
                    "velocity": 0.2755905511811024,
                    "duration": 0.2124644999999994
                },
                {
                    "name": "A2",
                    "midi": 45,
                    "time": 22.94616599999996,
                    "velocity": 0.33858267716535434,
                    "duration": 0.2124644999999994
                },
                {
                    "name": "E3",
                    "midi": 52,
                    "time": 23.15863049999996,
                    "velocity": 0.2755905511811024,
                    "duration": 0.2124644999999994
                },
                {
                    "name": "B2",
                    "midi": 47,
                    "time": 23.371094999999958,
                    "velocity": 0.33858267716535434,
                    "duration": 0.2124644999999994
                },
                {
                    "name": "E3",
                    "midi": 52,
                    "time": 23.583559499999957,
                    "velocity": 0.2755905511811024,
                    "duration": 0.2124644999999994
                },
                {
                    "name": "C#3",
                    "midi": 49,
                    "time": 23.796023999999957,
                    "velocity": 0.4094488188976378,
                    "duration": 0.2124644999999994
                },
                {
                    "name": "E3",
                    "midi": 52,
                    "time": 24.008488499999956,
                    "velocity": 0.36220472440944884,
                    "duration": 0.2124644999999994
                },
                {
                    "name": "C#3",
                    "midi": 49,
                    "time": 24.220952999999955,
                    "velocity": 0.3937007874015748,
                    "duration": 0.2124644999999994
                },
                {
                    "name": "E3",
                    "midi": 52,
                    "time": 24.433417499999955,
                    "velocity": 0.31496062992125984,
                    "duration": 0.2124644999999994
                },
                {
                    "name": "C3",
                    "midi": 48,
                    "time": 24.645881999999954,
                    "velocity": 0.36220472440944884,
                    "duration": 0.2124644999999994
                },
                {
                    "name": "E3",
                    "midi": 52,
                    "time": 24.858346499999953,
                    "velocity": 0.2755905511811024,
                    "duration": 0.2124644999999994
                },
                {
                    "name": "C3",
                    "midi": 48,
                    "time": 25.070810999999953,
                    "velocity": 0.3464566929133858,
                    "duration": 0.2124644999999994
                },
                {
                    "name": "E3",
                    "midi": 52,
                    "time": 25.283275499999952,
                    "velocity": 0.2755905511811024,
                    "duration": 0.2124644999999994
                },
                {
                    "name": "B2",
                    "midi": 47,
                    "time": 25.49573999999995,
                    "velocity": 0.2440944881889764,
                    "duration": 0.2124644999999994
                },
                {
                    "name": "F#3",
                    "midi": 54,
                    "time": 25.70820449999995,
                    "velocity": 0.2125984251968504,
                    "duration": 0.2124644999999994
                },
                {
                    "name": "B2",
                    "midi": 47,
                    "time": 25.92066899999995,
                    "velocity": 0.2440944881889764,
                    "duration": 0.2124644999999994
                },
                {
                    "name": "F#3",
                    "midi": 54,
                    "time": 26.13313349999995,
                    "velocity": 0.2283464566929134,
                    "duration": 0.2124644999999994
                },
                {
                    "name": "A3",
                    "midi": 57,
                    "time": 26.13313349999995,
                    "velocity": 0.2283464566929134,
                    "duration": 0.2124644999999994
                },
                {
                    "name": "B2",
                    "midi": 47,
                    "time": 26.34559799999995,
                    "velocity": 0.2440944881889764,
                    "duration": 0.2124644999999994
                },
                {
                    "name": "F#3",
                    "midi": 54,
                    "time": 26.55806249999995,
                    "velocity": 0.2125984251968504,
                    "duration": 0.2124644999999994
                },
                {
                    "name": "A3",
                    "midi": 57,
                    "time": 26.55806249999995,
                    "velocity": 0.2125984251968504,
                    "duration": 0.2124644999999994
                },
                {
                    "name": "B2",
                    "midi": 47,
                    "time": 26.770526999999948,
                    "velocity": 0.2440944881889764,
                    "duration": 0.2124644999999994
                },
                {
                    "name": "A3",
                    "midi": 57,
                    "time": 26.982991499999947,
                    "velocity": 0.2204724409448819,
                    "duration": 0.2124644999999994
                },
                {
                    "name": "F#3",
                    "midi": 54,
                    "time": 26.982991499999947,
                    "velocity": 0.2204724409448819,
                    "duration": 0.2124644999999994
                },
                {
                    "name": "E3",
                    "midi": 52,
                    "time": 27.195455999999947,
                    "velocity": 0.2440944881889764,
                    "duration": 0.2124644999999994
                },
                {
                    "name": "G#3",
                    "midi": 56,
                    "time": 27.195455999999947,
                    "velocity": 0.2440944881889764,
                    "duration": 0.2124644999999994
                },
                {
                    "name": "B3",
                    "midi": 59,
                    "time": 27.407920499999946,
                    "velocity": 0.18110236220472442,
                    "duration": 0.2124644999999994
                },
                {
                    "name": "G#3",
                    "midi": 56,
                    "time": 27.620384999999946,
                    "velocity": 0.2440944881889764,
                    "duration": 0.2124644999999994
                },
                {
                    "name": "E3",
                    "midi": 52,
                    "time": 27.832849499999945,
                    "velocity": 0.1968503937007874,
                    "duration": 0.2124644999999994
                },
                {
                    "name": "D#3",
                    "midi": 51,
                    "time": 28.045313999999944,
                    "velocity": 0.2440944881889764,
                    "duration": 0.2124644999999994
                },
                {
                    "name": "B3",
                    "midi": 59,
                    "time": 28.257778499999944,
                    "velocity": 0.2125984251968504,
                    "duration": 0.2124644999999994
                },
                {
                    "name": "F#3",
                    "midi": 54,
                    "time": 28.470242999999943,
                    "velocity": 0.2440944881889764,
                    "duration": 0.2124644999999994
                },
                {
                    "name": "D#3",
                    "midi": 51,
                    "time": 28.682707499999943,
                    "velocity": 0.25196850393700787,
                    "duration": 0.2124644999999994
                },
                {
                    "name": "C#3",
                    "midi": 49,
                    "time": 28.895171999999942,
                    "velocity": 0.2992125984251969,
                    "duration": 0.2124644999999994
                },
                {
                    "name": "A#3",
                    "midi": 58,
                    "time": 29.10763649999994,
                    "velocity": 0.2283464566929134,
                    "duration": 0.2124644999999994
                },
                {
                    "name": "F#3",
                    "midi": 54,
                    "time": 29.32010099999994,
                    "velocity": 0.2440944881889764,
                    "duration": 0.2124644999999994
                },
                {
                    "name": "C#3",
                    "midi": 49,
                    "time": 29.53256549999994,
                    "velocity": 0.2125984251968504,
                    "duration": 0.2124644999999994
                },
                {
                    "name": "F#2",
                    "midi": 42,
                    "time": 29.74502999999994,
                    "velocity": 0.2440944881889764,
                    "duration": 0.2124644999999994
                },
                {
                    "name": "A#3",
                    "midi": 58,
                    "time": 29.95749449999994,
                    "velocity": 0.2047244094488189,
                    "duration": 0.2124644999999994
                },
                {
                    "name": "F#3",
                    "midi": 54,
                    "time": 30.16995899999994,
                    "velocity": 0.2283464566929134,
                    "duration": 0.2124644999999994
                },
                {
                    "name": "C#3",
                    "midi": 49,
                    "time": 30.382423499999938,
                    "velocity": 0.2125984251968504,
                    "duration": 0.2124644999999994
                },
                {
                    "name": "B2",
                    "midi": 47,
                    "time": 30.594887999999937,
                    "velocity": 0.2440944881889764,
                    "duration": 0.2124644999999994
                },
                {
                    "name": "B3",
                    "midi": 59,
                    "time": 30.807352499999936,
                    "velocity": 0.1968503937007874,
                    "duration": 0.2124644999999994
                },
                {
                    "name": "F#3",
                    "midi": 54,
                    "time": 31.019816999999936,
                    "velocity": 0.23622047244094488,
                    "duration": 0.2124644999999994
                },
                {
                    "name": "D#3",
                    "midi": 51,
                    "time": 31.232281499999935,
                    "velocity": 0.2125984251968504,
                    "duration": 0.2124644999999994
                },
                {
                    "name": "B2",
                    "midi": 47,
                    "time": 31.444745999999935,
                    "velocity": 0.29133858267716534,
                    "duration": 0.2124644999999994
                },
                {
                    "name": "B3",
                    "midi": 59,
                    "time": 31.657210499999934,
                    "velocity": 0.23622047244094488,
                    "duration": 0.2124644999999994
                },
                {
                    "name": "C#3",
                    "midi": 49,
                    "time": 31.869674999999933,
                    "velocity": 0.33070866141732286,
                    "duration": 0.2124644999999994
                },
                {
                    "name": "A3",
                    "midi": 57,
                    "time": 32.08213949999993,
                    "velocity": 0.2992125984251969,
                    "duration": 0.21246450000000294
                },
                {
                    "name": "B2",
                    "midi": 47,
                    "time": 32.294603999999936,
                    "velocity": 0.29133858267716534,
                    "duration": 0.21246450000000294
                },
                {
                    "name": "G#3",
                    "midi": 56,
                    "time": 32.50706849999994,
                    "velocity": 0.28346456692913385,
                    "duration": 0.21246450000000294
                },
                {
                    "name": "E3",
                    "midi": 52,
                    "time": 32.71953299999994,
                    "velocity": 0.3464566929133858,
                    "duration": 0.21246450000000294
                },
                {
                    "name": "B2",
                    "midi": 47,
                    "time": 32.931997499999945,
                    "velocity": 0.2992125984251969,
                    "duration": 0.21246450000000294
                },
                {
                    "name": "E2",
                    "midi": 40,
                    "time": 33.14446199999995,
                    "velocity": 0.33070866141732286,
                    "duration": 0.21246450000000294
                },
                {
                    "name": "G#3",
                    "midi": 56,
                    "time": 33.35692649999995,
                    "velocity": 0.2755905511811024,
                    "duration": 0.21246450000000294
                },
                {
                    "name": "E3",
                    "midi": 52,
                    "time": 33.56939099999995,
                    "velocity": 0.30708661417322836,
                    "duration": 0.21246450000000294
                },
                {
                    "name": "B2",
                    "midi": 47,
                    "time": 33.781855499999956,
                    "velocity": 0.2440944881889764,
                    "duration": 0.21246450000000294
                },
                {
                    "name": "A2",
                    "midi": 45,
                    "time": 33.99431999999996,
                    "velocity": 0.2992125984251969,
                    "duration": 0.21246450000000294
                },
                {
                    "name": "A3",
                    "midi": 57,
                    "time": 34.20678449999996,
                    "velocity": 0.2283464566929134,
                    "duration": 0.21246450000000294
                },
                {
                    "name": "E3",
                    "midi": 52,
                    "time": 34.419248999999965,
                    "velocity": 0.2677165354330709,
                    "duration": 0.21246450000000294
                },
                {
                    "name": "C#3",
                    "midi": 49,
                    "time": 34.63171349999997,
                    "velocity": 0.2283464566929134,
                    "duration": 0.21246450000000294
                },
                {
                    "name": "A2",
                    "midi": 45,
                    "time": 34.84417799999997,
                    "velocity": 0.2677165354330709,
                    "duration": 0.21246450000000294
                },
                {
                    "name": "E3",
                    "midi": 52,
                    "time": 35.056642499999974,
                    "velocity": 0.2283464566929134,
                    "duration": 0.21246450000000294
                },
                {
                    "name": "A2",
                    "midi": 45,
                    "time": 35.26910699999998,
                    "velocity": 0.2755905511811024,
                    "duration": 0.21246450000000294
                },
                {
                    "name": "E3",
                    "midi": 52,
                    "time": 35.48157149999998,
                    "velocity": 0.31496062992125984,
                    "duration": 0.21246450000000294
                },
                {
                    "name": "G#2",
                    "midi": 44,
                    "time": 35.69403599999998,
                    "velocity": 0.31496062992125984,
                    "duration": 0.21246450000000294
                },
                {
                    "name": "E3",
                    "midi": 52,
                    "time": 35.906500499999986,
                    "velocity": 0.28346456692913385,
                    "duration": 0.21246450000000294
                },
                {
                    "name": "A2",
                    "midi": 45,
                    "time": 36.11896499999999,
                    "velocity": 0.31496062992125984,
                    "duration": 0.21246450000000294
                },
                {
                    "name": "E3",
                    "midi": 52,
                    "time": 36.33142949999999,
                    "velocity": 0.28346456692913385,
                    "duration": 0.21246450000000294
                },
                {
                    "name": "C#3",
                    "midi": 49,
                    "time": 36.543893999999995,
                    "velocity": 0.3543307086614173,
                    "duration": 0.21246450000000294
                },
                {
                    "name": "A2",
                    "midi": 45,
                    "time": 36.543893999999995,
                    "velocity": 0.2992125984251969,
                    "duration": 0.21246450000000294
                },
                {
                    "name": "E3",
                    "midi": 52,
                    "time": 36.7563585,
                    "velocity": 0.29133858267716534,
                    "duration": 0.21246450000000294
                },
                {
                    "name": "E3",
                    "midi": 52,
                    "time": 36.968823,
                    "velocity": 0.36220472440944884,
                    "duration": 0.21246450000000294
                },
                {
                    "name": "B2",
                    "midi": 47,
                    "time": 36.968823,
                    "velocity": 0.30708661417322836,
                    "duration": 0.21246450000000294
                },
                {
                    "name": "G#3",
                    "midi": 56,
                    "time": 37.1812875,
                    "velocity": 0.29133858267716534,
                    "duration": 0.21246450000000294
                },
                {
                    "name": "E3",
                    "midi": 52,
                    "time": 37.393752000000006,
                    "velocity": 0.3464566929133858,
                    "duration": 0.21246450000000294
                },
                {
                    "name": "C#3",
                    "midi": 49,
                    "time": 37.393752000000006,
                    "velocity": 0.29133858267716534,
                    "duration": 0.21246450000000294
                },
                {
                    "name": "A#3",
                    "midi": 58,
                    "time": 37.60621650000001,
                    "velocity": 0.30708661417322836,
                    "duration": 0.21246450000000294
                },
                {
                    "name": "E3",
                    "midi": 52,
                    "time": 37.81868100000001,
                    "velocity": 0.3464566929133858,
                    "duration": 0.21246450000000294
                },
                {
                    "name": "C#3",
                    "midi": 49,
                    "time": 37.81868100000001,
                    "velocity": 0.28346456692913385,
                    "duration": 0.21246450000000294
                },
                {
                    "name": "A#3",
                    "midi": 58,
                    "time": 38.031145500000015,
                    "velocity": 0.2755905511811024,
                    "duration": 0.21246450000000294
                },
                {
                    "name": "E3",
                    "midi": 52,
                    "time": 38.24361000000002,
                    "velocity": 0.31496062992125984,
                    "duration": 0.21246450000000294
                },
                {
                    "name": "C3",
                    "midi": 48,
                    "time": 38.24361000000002,
                    "velocity": 0.2677165354330709,
                    "duration": 0.21246450000000294
                },
                {
                    "name": "A3",
                    "midi": 57,
                    "time": 38.45607450000002,
                    "velocity": 0.2440944881889764,
                    "duration": 0.21246450000000294
                },
                {
                    "name": "E3",
                    "midi": 52,
                    "time": 38.668539000000024,
                    "velocity": 0.3858267716535433,
                    "duration": 0.21246450000000294
                },
                {
                    "name": "C3",
                    "midi": 48,
                    "time": 38.668539000000024,
                    "velocity": 0.33070866141732286,
                    "duration": 0.21246450000000294
                },
                {
                    "name": "A3",
                    "midi": 57,
                    "time": 38.88100350000003,
                    "velocity": 0.30708661417322836,
                    "duration": 0.21246450000000294
                },
                {
                    "name": "D#3",
                    "midi": 51,
                    "time": 39.09346800000003,
                    "velocity": 0.2440944881889764,
                    "duration": 0.21246450000000294
                },
                {
                    "name": "B2",
                    "midi": 47,
                    "time": 39.09346800000003,
                    "velocity": 0.2047244094488189,
                    "duration": 0.21246450000000294
                },
                {
                    "name": "A3",
                    "midi": 57,
                    "time": 39.30593250000003,
                    "velocity": 0.2125984251968504,
                    "duration": 0.21246450000000294
                },
                {
                    "name": "D#3",
                    "midi": 51,
                    "time": 39.518397000000036,
                    "velocity": 0.2440944881889764,
                    "duration": 0.21246450000000294
                },
                {
                    "name": "B2",
                    "midi": 47,
                    "time": 39.518397000000036,
                    "velocity": 0.2047244094488189,
                    "duration": 0.21246450000000294
                },
                {
                    "name": "A3",
                    "midi": 57,
                    "time": 39.73086150000004,
                    "velocity": 0.2283464566929134,
                    "duration": 0.21246450000000294
                },
                {
                    "name": "D#3",
                    "midi": 51,
                    "time": 39.94332600000004,
                    "velocity": 0.2440944881889764,
                    "duration": 0.21246450000000294
                },
                {
                    "name": "B2",
                    "midi": 47,
                    "time": 39.94332600000004,
                    "velocity": 0.2047244094488189,
                    "duration": 0.21246450000000294
                },
                {
                    "name": "A3",
                    "midi": 57,
                    "time": 40.155790500000045,
                    "velocity": 0.2125984251968504,
                    "duration": 0.21246450000000294
                },
                {
                    "name": "D#3",
                    "midi": 51,
                    "time": 40.36825500000005,
                    "velocity": 0.2440944881889764,
                    "duration": 0.21246450000000294
                },
                {
                    "name": "B2",
                    "midi": 47,
                    "time": 40.36825500000005,
                    "velocity": 0.2047244094488189,
                    "duration": 0.21246450000000294
                },
                {
                    "name": "A3",
                    "midi": 57,
                    "time": 40.58071950000005,
                    "velocity": 0.2204724409448819,
                    "duration": 0.21246450000000294
                },
                {
                    "name": "E3",
                    "midi": 52,
                    "time": 40.79318400000005,
                    "velocity": 0.2440944881889764,
                    "duration": 0.21246450000000294
                },
                {
                    "name": "G#3",
                    "midi": 56,
                    "time": 40.79318400000005,
                    "velocity": 0.2440944881889764,
                    "duration": 0.21246450000000294
                },
                {
                    "name": "E3",
                    "midi": 52,
                    "time": 41.005648500000056,
                    "velocity": 0.2440944881889764,
                    "duration": 0.21246450000000294
                },
                {
                    "name": "D#3",
                    "midi": 51,
                    "time": 41.21811300000006,
                    "velocity": 0.2440944881889764,
                    "duration": 0.21246450000000294
                },
                {
                    "name": "C#3",
                    "midi": 49,
                    "time": 41.43057750000006,
                    "velocity": 0.2440944881889764,
                    "duration": 0.21246450000000294
                },
                {
                    "name": "B2",
                    "midi": 47,
                    "time": 41.643042000000065,
                    "velocity": 0.2440944881889764,
                    "duration": 0.21246450000000294
                },
                {
                    "name": "A2",
                    "midi": 45,
                    "time": 41.85550650000007,
                    "velocity": 0.23622047244094488,
                    "duration": 0.21246450000000294
                },
                {
                    "name": "G#2",
                    "midi": 44,
                    "time": 42.06797100000007,
                    "velocity": 0.1968503937007874,
                    "duration": 0.21246450000000294
                },
                {
                    "name": "F#2",
                    "midi": 42,
                    "time": 42.280435500000074,
                    "velocity": 0.1968503937007874,
                    "duration": 0.21246450000000294
                },
                {
                    "name": "E2",
                    "midi": 40,
                    "time": 42.49290000000008,
                    "velocity": 0.1968503937007874,
                    "duration": 0.4249289999999988
                },
                {
                    "name": "B1",
                    "midi": 35,
                    "time": 44.19261600000007,
                    "velocity": 0.1968503937007874,
                    "duration": 0.4249289999999988
                },
                {
                    "name": "C#2",
                    "midi": 37,
                    "time": 45.89233200000007,
                    "velocity": 0.1968503937007874,
                    "duration": 0.4249289999999988
                },
                {
                    "name": "D#2",
                    "midi": 39,
                    "time": 46.742190000000065,
                    "velocity": 0.18110236220472442,
                    "duration": 0.4249289999999988
                },
                {
                    "name": "B1",
                    "midi": 35,
                    "time": 47.16711900000006,
                    "velocity": 0.1732283464566929,
                    "duration": 0.4249289999999988
                },
                {
                    "name": "E2",
                    "midi": 40,
                    "time": 47.59204800000006,
                    "velocity": 0.2204724409448819,
                    "duration": 0.4249289999999988
                },
                {
                    "name": "E4",
                    "midi": 64,
                    "time": 48.01697700000006,
                    "velocity": 0.25196850393700787,
                    "duration": 0.21246450000000294
                },
                {
                    "name": "B3",
                    "midi": 59,
                    "time": 48.229441500000064,
                    "velocity": 0.1968503937007874,
                    "duration": 0.21246450000000294
                },
                {
                    "name": "E4",
                    "midi": 64,
                    "time": 48.44190600000007,
                    "velocity": 0.25196850393700787,
                    "duration": 0.21246450000000294
                },
                {
                    "name": "B3",
                    "midi": 59,
                    "time": 48.65437050000007,
                    "velocity": 0.2125984251968504,
                    "duration": 0.21246450000000294
                },
                {
                    "name": "E4",
                    "midi": 64,
                    "time": 48.86683500000007,
                    "velocity": 0.25196850393700787,
                    "duration": 0.21246450000000294
                },
                {
                    "name": "B3",
                    "midi": 59,
                    "time": 49.079299500000076,
                    "velocity": 0.2283464566929134,
                    "duration": 0.21246450000000294
                },
                {
                    "name": "E4",
                    "midi": 64,
                    "time": 49.29176400000008,
                    "velocity": 0.2755905511811024,
                    "duration": 0.21246450000000294
                },
                {
                    "name": "B3",
                    "midi": 59,
                    "time": 49.50422850000008,
                    "velocity": 0.2677165354330709,
                    "duration": 0.21246450000000294
                },
                {
                    "name": "E4",
                    "midi": 64,
                    "time": 49.716693000000085,
                    "velocity": 0.2992125984251969,
                    "duration": 0.21246450000000294
                },
                {
                    "name": "B3",
                    "midi": 59,
                    "time": 49.92915750000009,
                    "velocity": 0.28346456692913385,
                    "duration": 0.21246450000000294
                },
                {
                    "name": "G#4",
                    "midi": 68,
                    "time": 50.14162200000009,
                    "velocity": 0.33070866141732286,
                    "duration": 0.21246450000000294
                },
                {
                    "name": "B3",
                    "midi": 59,
                    "time": 50.35408650000009,
                    "velocity": 0.2992125984251969,
                    "duration": 0.21246450000000294
                },
                {
                    "name": "F#4",
                    "midi": 66,
                    "time": 50.566551000000096,
                    "velocity": 0.3700787401574803,
                    "duration": 0.21246450000000294
                },
                {
                    "name": "B3",
                    "midi": 59,
                    "time": 50.7790155000001,
                    "velocity": 0.33858267716535434,
                    "duration": 0.21246450000000294
                },
                {
                    "name": "E4",
                    "midi": 64,
                    "time": 50.9914800000001,
                    "velocity": 0.4251968503937008,
                    "duration": 0.21246450000000294
                },
                {
                    "name": "B3",
                    "midi": 59,
                    "time": 51.203944500000105,
                    "velocity": 0.3543307086614173,
                    "duration": 0.21246450000000294
                },
                {
                    "name": "D#4",
                    "midi": 63,
                    "time": 51.41640900000011,
                    "velocity": 0.4094488188976378,
                    "duration": 0.21246450000000294
                },
                {
                    "name": "B3",
                    "midi": 59,
                    "time": 51.62887350000011,
                    "velocity": 0.3543307086614173,
                    "duration": 0.21246450000000294
                },
                {
                    "name": "D#4",
                    "midi": 63,
                    "time": 51.841338000000114,
                    "velocity": 0.3858267716535433,
                    "duration": 0.21246450000000294
                },
                {
                    "name": "B3",
                    "midi": 59,
                    "time": 52.05380250000012,
                    "velocity": 0.33070866141732286,
                    "duration": 0.21246450000000294
                },
                {
                    "name": "F4",
                    "midi": 65,
                    "time": 52.26626700000012,
                    "velocity": 0.4094488188976378,
                    "duration": 0.21246450000000294
                },
                {
                    "name": "B3",
                    "midi": 59,
                    "time": 52.47873150000012,
                    "velocity": 0.36220472440944884,
                    "duration": 0.21246450000000294
                },
                {
                    "name": "F#4",
                    "midi": 66,
                    "time": 52.691196000000126,
                    "velocity": 0.47244094488188976,
                    "duration": 0.21246450000000294
                },
                {
                    "name": "B3",
                    "midi": 59,
                    "time": 52.90366050000013,
                    "velocity": 0.3937007874015748,
                    "duration": 0.21246450000000294
                },
                {
                    "name": "A4",
                    "midi": 69,
                    "time": 53.11612500000013,
                    "velocity": 0.4251968503937008,
                    "duration": 0.21246450000000294
                },
                {
                    "name": "B3",
                    "midi": 59,
                    "time": 53.328589500000135,
                    "velocity": 0.3779527559055118,
                    "duration": 0.21246450000000294
                },
                {
                    "name": "G#4",
                    "midi": 68,
                    "time": 53.54105400000014,
                    "velocity": 0.44881889763779526,
                    "duration": 0.21246450000000294
                },
                {
                    "name": "B3",
                    "midi": 59,
                    "time": 53.75351850000014,
                    "velocity": 0.3543307086614173,
                    "duration": 0.21246450000000294
                },
                {
                    "name": "F#4",
                    "midi": 66,
                    "time": 53.96598300000014,
                    "velocity": 0.4251968503937008,
                    "duration": 0.21246450000000294
                },
                {
                    "name": "B3",
                    "midi": 59,
                    "time": 54.178447500000146,
                    "velocity": 0.36220472440944884,
                    "duration": 0.21246450000000294
                },
                {
                    "name": "E4",
                    "midi": 64,
                    "time": 54.39091200000015,
                    "velocity": 0.4645669291338583,
                    "duration": 0.21246450000000294
                },
                {
                    "name": "B3",
                    "midi": 59,
                    "time": 54.60337650000015,
                    "velocity": 0.3858267716535433,
                    "duration": 0.21246450000000294
                },
                {
                    "name": "G#3",
                    "midi": 56,
                    "time": 54.815841000000155,
                    "velocity": 0.4566929133858268,
                    "duration": 0.21246450000000294
                },
                {
                    "name": "B3",
                    "midi": 59,
                    "time": 55.02830550000016,
                    "velocity": 0.3937007874015748,
                    "duration": 0.21246450000000294
                },
                {
                    "name": "E3",
                    "midi": 52,
                    "time": 55.24077000000016,
                    "velocity": 0.4645669291338583,
                    "duration": 0.4249289999999988
                },
                {
                    "name": "C#4",
                    "midi": 61,
                    "time": 56.09062800000016,
                    "velocity": 0.5275590551181102,
                    "duration": 0.21246450000000294
                },
                {
                    "name": "G#3",
                    "midi": 56,
                    "time": 56.30309250000016,
                    "velocity": 0.44881889763779526,
                    "duration": 0.21246450000000294
                },
                {
                    "name": "E3",
                    "midi": 52,
                    "time": 56.515557000000165,
                    "velocity": 0.4881889763779528,
                    "duration": 0.21246450000000294
                },
                {
                    "name": "G#3",
                    "midi": 56,
                    "time": 56.72802150000017,
                    "velocity": 0.44881889763779526,
                    "duration": 0.21246450000000294
                },
                {
                    "name": "C#3",
                    "midi": 49,
                    "time": 56.94048600000017,
                    "velocity": 0.5511811023622047,
                    "duration": 0.4249289999999988
                },
                {
                    "name": "C#4",
                    "midi": 61,
                    "time": 57.36541500000017,
                    "velocity": 0.2047244094488189,
                    "duration": 0.21246450000000294
                },
                {
                    "name": "C4",
                    "midi": 60,
                    "time": 57.790344000000175,
                    "velocity": 0.25984251968503935,
                    "duration": 0.21246450000000294
                },
                {
                    "name": "G#3",
                    "midi": 56,
                    "time": 58.00280850000018,
                    "velocity": 0.2125984251968504,
                    "duration": 0.21246450000000294
                },
                {
                    "name": "D#3",
                    "midi": 51,
                    "time": 58.21527300000018,
                    "velocity": 0.25984251968503935,
                    "duration": 0.21246450000000294
                },
                {
                    "name": "G#3",
                    "midi": 56,
                    "time": 58.427737500000184,
                    "velocity": 0.2125984251968504,
                    "duration": 0.21246450000000294
                },
                {
                    "name": "C3",
                    "midi": 48,
                    "time": 58.64020200000019,
                    "velocity": 0.28346456692913385,
                    "duration": 0.4249289999999988
                },
                {
                    "name": "C4",
                    "midi": 60,
                    "time": 59.065131000000186,
                    "velocity": 0.6062992125984252,
                    "duration": 0.21246450000000294
                },
                {
                    "name": "G#3",
                    "midi": 56,
                    "time": 59.49006000000019,
                    "velocity": 0.5275590551181102,
                    "duration": 0.21246450000000294
                },
                {
                    "name": "D#3",
                    "midi": 51,
                    "time": 59.702524500000195,
                    "velocity": 0.44881889763779526,
                    "duration": 0.21246450000000294
                },
                {
                    "name": "C3",
                    "midi": 48,
                    "time": 59.9149890000002,
                    "velocity": 0.4881889763779528,
                    "duration": 0.21246450000000294
                },
                {
                    "name": "D#3",
                    "midi": 51,
                    "time": 60.1274535000002,
                    "velocity": 0.44881889763779526,
                    "duration": 0.21246450000000294
                },
                {
                    "name": "G#2",
                    "midi": 44,
                    "time": 60.3399180000002,
                    "velocity": 0.5511811023622047,
                    "duration": 0.4249289999999988
                },
                {
                    "name": "C4",
                    "midi": 60,
                    "time": 60.7648470000002,
                    "velocity": 0.2047244094488189,
                    "duration": 0.21246450000000294
                },
                {
                    "name": "C#4",
                    "midi": 61,
                    "time": 61.18977600000021,
                    "velocity": 0.25984251968503935,
                    "duration": 0.21246450000000294
                },
                {
                    "name": "G#3",
                    "midi": 56,
                    "time": 61.40224050000021,
                    "velocity": 0.2125984251968504,
                    "duration": 0.21246450000000294
                },
                {
                    "name": "E3",
                    "midi": 52,
                    "time": 61.614705000000214,
                    "velocity": 0.25984251968503935,
                    "duration": 0.21246450000000294
                },
                {
                    "name": "G#3",
                    "midi": 56,
                    "time": 61.82716950000022,
                    "velocity": 0.2125984251968504,
                    "duration": 0.21246450000000294
                },
                {
                    "name": "C#3",
                    "midi": 49,
                    "time": 62.03963400000022,
                    "velocity": 0.28346456692913385,
                    "duration": 0.4249289999999988
                },
                {
                    "name": "C#4",
                    "midi": 61,
                    "time": 62.46456300000022,
                    "velocity": 0.6535433070866141,
                    "duration": 0.21246450000000294
                },
                {
                    "name": "B3",
                    "midi": 59,
                    "time": 62.889492000000224,
                    "velocity": 0.5275590551181102,
                    "duration": 0.21246450000000294
                },
                {
                    "name": "G#3",
                    "midi": 56,
                    "time": 63.10195650000023,
                    "velocity": 0.44881889763779526,
                    "duration": 0.21246450000000294
                },
                {
                    "name": "E3",
                    "midi": 52,
                    "time": 63.31442100000023,
                    "velocity": 0.4881889763779528,
                    "duration": 0.21246450000000294
                },
                {
                    "name": "G#3",
                    "midi": 56,
                    "time": 63.52688550000023,
                    "velocity": 0.44881889763779526,
                    "duration": 0.21246450000000294
                },
                {
                    "name": "B2",
                    "midi": 47,
                    "time": 63.739350000000236,
                    "velocity": 0.5511811023622047,
                    "duration": 0.4249289999999988
                },
                {
                    "name": "B3",
                    "midi": 59,
                    "time": 64.16427900000023,
                    "velocity": 0.2047244094488189,
                    "duration": 0.21246449999999584
                },
                {
                    "name": "A#3",
                    "midi": 58,
                    "time": 64.58920800000023,
                    "velocity": 0.25984251968503935,
                    "duration": 0.21246449999999584
                },
                {
                    "name": "F#3",
                    "midi": 54,
                    "time": 64.80167250000022,
                    "velocity": 0.2125984251968504,
                    "duration": 0.21246449999999584
                },
                {
                    "name": "C#3",
                    "midi": 49,
                    "time": 65.01413700000022,
                    "velocity": 0.25984251968503935,
                    "duration": 0.21246449999999584
                },
                {
                    "name": "F#3",
                    "midi": 54,
                    "time": 65.22660150000021,
                    "velocity": 0.2125984251968504,
                    "duration": 0.21246449999999584
                },
                {
                    "name": "A#2",
                    "midi": 46,
                    "time": 65.43906600000021,
                    "velocity": 0.28346456692913385,
                    "duration": 0.4249290000000059
                },
                {
                    "name": "A#2",
                    "midi": 46,
                    "time": 65.86399500000022,
                    "velocity": 0.6062992125984252,
                    "duration": 0.21246449999999584
                },
                {
                    "name": "G#2",
                    "midi": 44,
                    "time": 66.28892400000021,
                    "velocity": 0.5275590551181102,
                    "duration": 0.21246449999999584
                },
                {
                    "name": "E2",
                    "midi": 40,
                    "time": 66.5013885000002,
                    "velocity": 0.44881889763779526,
                    "duration": 0.21246449999999584
                },
                {
                    "name": "B1",
                    "midi": 35,
                    "time": 66.7138530000002,
                    "velocity": 0.4881889763779528,
                    "duration": 0.21246449999999584
                },
                {
                    "name": "E2",
                    "midi": 40,
                    "time": 66.9263175000002,
                    "velocity": 0.44881889763779526,
                    "duration": 0.21246449999999584
                },
                {
                    "name": "G#1",
                    "midi": 32,
                    "time": 67.13878200000019,
                    "velocity": 0.5511811023622047,
                    "duration": 0.4249290000000059
                },
                {
                    "name": "G#1",
                    "midi": 32,
                    "time": 67.5637110000002,
                    "velocity": 0.47244094488188976,
                    "duration": 0.21246449999999584
                },
                {
                    "name": "G#2",
                    "midi": 44,
                    "time": 67.5637110000002,
                    "velocity": 0.5118110236220472,
                    "duration": 0.21246449999999584
                },
                {
                    "name": "F#1",
                    "midi": 30,
                    "time": 67.98864000000019,
                    "velocity": 0.6141732283464567,
                    "duration": 0.4249290000000059
                },
                {
                    "name": "F#2",
                    "midi": 42,
                    "time": 67.98864000000019,
                    "velocity": 0.6141732283464567,
                    "duration": 0.4249290000000059
                },
                {
                    "name": "F#4",
                    "midi": 66,
                    "time": 68.4135690000002,
                    "velocity": 0.25984251968503935,
                    "duration": 0.21246449999999584
                },
                {
                    "name": "G#4",
                    "midi": 68,
                    "time": 68.62603350000019,
                    "velocity": 0.2125984251968504,
                    "duration": 0.21246449999999584
                },
                {
                    "name": "F#4",
                    "midi": 66,
                    "time": 68.83849800000019,
                    "velocity": 0.25984251968503935,
                    "duration": 0.21246449999999584
                },
                {
                    "name": "G#4",
                    "midi": 68,
                    "time": 69.05096250000018,
                    "velocity": 0.2283464566929134,
                    "duration": 0.21246449999999584
                },
                {
                    "name": "F#4",
                    "midi": 66,
                    "time": 69.26342700000018,
                    "velocity": 0.25984251968503935,
                    "duration": 0.21246449999999584
                },
                {
                    "name": "G#4",
                    "midi": 68,
                    "time": 69.47589150000017,
                    "velocity": 0.2283464566929134,
                    "duration": 0.21246449999999584
                },
                {
                    "name": "F#4",
                    "midi": 66,
                    "time": 69.68835600000017,
                    "velocity": 0.25196850393700787,
                    "duration": 0.21246449999999584
                },
                {
                    "name": "C#4",
                    "midi": 61,
                    "time": 69.68835600000017,
                    "velocity": 0.3228346456692913,
                    "duration": 1.274786999999975
                },
                {
                    "name": "A#3",
                    "midi": 58,
                    "time": 69.68835600000017,
                    "velocity": 0.2677165354330709,
                    "duration": 1.274786999999975
                },
                {
                    "name": "G#4",
                    "midi": 68,
                    "time": 69.90082050000017,
                    "velocity": 0.2125984251968504,
                    "duration": 0.21246449999999584
                },
                {
                    "name": "F#4",
                    "midi": 66,
                    "time": 70.11328500000016,
                    "velocity": 0.2440944881889764,
                    "duration": 0.21246449999999584
                },
                {
                    "name": "G#4",
                    "midi": 68,
                    "time": 70.32574950000016,
                    "velocity": 0.2047244094488189,
                    "duration": 0.21246449999999584
                },
                {
                    "name": "F#4",
                    "midi": 66,
                    "time": 70.53821400000015,
                    "velocity": 0.25196850393700787,
                    "duration": 0.21246449999999584
                },
                {
                    "name": "G#4",
                    "midi": 68,
                    "time": 70.75067850000015,
                    "velocity": 0.25196850393700787,
                    "duration": 0.21246449999999584
                },
                {
                    "name": "F#4",
                    "midi": 66,
                    "time": 70.96314300000014,
                    "velocity": 0.25984251968503935,
                    "duration": 0.21246449999999584
                },
                {
                    "name": "D#4",
                    "midi": 63,
                    "time": 70.96314300000014,
                    "velocity": 0.33070866141732286,
                    "duration": 0.3824360999999925
                },
                {
                    "name": "B3",
                    "midi": 59,
                    "time": 70.96314300000014,
                    "velocity": 0.2755905511811024,
                    "duration": 0.3824360999999925
                },
                {
                    "name": "G#4",
                    "midi": 68,
                    "time": 71.17560750000014,
                    "velocity": 0.28346456692913385,
                    "duration": 0.21246449999999584
                },
                {
                    "name": "F#4",
                    "midi": 66,
                    "time": 71.38807200000014,
                    "velocity": 0.29133858267716534,
                    "duration": 0.21246449999999584
                },
                {
                    "name": "D#4",
                    "midi": 63,
                    "time": 71.38807200000014,
                    "velocity": 0.3700787401574803,
                    "duration": 0.4249289999999917
                },
                {
                    "name": "B3",
                    "midi": 59,
                    "time": 71.38807200000014,
                    "velocity": 0.30708661417322836,
                    "duration": 0.4249289999999917
                },
                {
                    "name": "G#4",
                    "midi": 68,
                    "time": 71.60053650000013,
                    "velocity": 0.2283464566929134,
                    "duration": 0.21246449999999584
                },
                {
                    "name": "F#4",
                    "midi": 66,
                    "time": 71.81300100000013,
                    "velocity": 0.25196850393700787,
                    "duration": 0.21246449999999584
                },
                {
                    "name": "E4",
                    "midi": 64,
                    "time": 71.81300100000013,
                    "velocity": 0.3228346456692913,
                    "duration": 0.3824360999999925
                },
                {
                    "name": "C#4",
                    "midi": 61,
                    "time": 71.81300100000013,
                    "velocity": 0.2677165354330709,
                    "duration": 0.3824360999999925
                },
                {
                    "name": "G#4",
                    "midi": 68,
                    "time": 72.02546550000012,
                    "velocity": 0.2204724409448819,
                    "duration": 0.21246449999999584
                },
                {
                    "name": "C#4",
                    "midi": 61,
                    "time": 72.23793000000012,
                    "velocity": 0.2204724409448819,
                    "duration": 0.4249289999999917
                },
                {
                    "name": "E4",
                    "midi": 64,
                    "time": 72.23793000000012,
                    "velocity": 0.25984251968503935,
                    "duration": 0.4249289999999917
                },
                {
                    "name": "F#4",
                    "midi": 66,
                    "time": 72.23793000000012,
                    "velocity": 0.2047244094488189,
                    "duration": 0.21246449999999584
                },
                {
                    "name": "G#4",
                    "midi": 68,
                    "time": 72.45039450000012,
                    "velocity": 0.1889763779527559,
                    "duration": 0.21246449999999584
                },
                {
                    "name": "B3",
                    "midi": 59,
                    "time": 72.66285900000011,
                    "velocity": 0.2204724409448819,
                    "duration": 0.4249289999999917
                },
                {
                    "name": "D#4",
                    "midi": 63,
                    "time": 72.66285900000011,
                    "velocity": 0.25984251968503935,
                    "duration": 0.4249289999999917
                },
                {
                    "name": "F#4",
                    "midi": 66,
                    "time": 72.66285900000011,
                    "velocity": 0.2047244094488189,
                    "duration": 0.21246449999999584
                },
                {
                    "name": "G#4",
                    "midi": 68,
                    "time": 72.8753235000001,
                    "velocity": 0.1889763779527559,
                    "duration": 0.21246449999999584
                },
                {
                    "name": "F#4",
                    "midi": 66,
                    "time": 73.0877880000001,
                    "velocity": 0.25196850393700787,
                    "duration": 0.21246449999999584
                },
                {
                    "name": "C#4",
                    "midi": 61,
                    "time": 73.0877880000001,
                    "velocity": 0.3228346456692913,
                    "duration": 1.274786999999975
                },
                {
                    "name": "A#3",
                    "midi": 58,
                    "time": 73.0877880000001,
                    "velocity": 0.2677165354330709,
                    "duration": 1.274786999999975
                },
                {
                    "name": "G#4",
                    "midi": 68,
                    "time": 73.3002525000001,
                    "velocity": 0.2125984251968504,
                    "duration": 0.21246449999999584
                },
                {
                    "name": "F#4",
                    "midi": 66,
                    "time": 73.5127170000001,
                    "velocity": 0.2440944881889764,
                    "duration": 0.21246449999999584
                },
                {
                    "name": "G#4",
                    "midi": 68,
                    "time": 73.72518150000009,
                    "velocity": 0.2047244094488189,
                    "duration": 0.21246449999999584
                },
                {
                    "name": "F#4",
                    "midi": 66,
                    "time": 73.93764600000009,
                    "velocity": 0.25196850393700787,
                    "duration": 0.21246449999999584
                },
                {
                    "name": "G#4",
                    "midi": 68,
                    "time": 74.15011050000008,
                    "velocity": 0.25196850393700787,
                    "duration": 0.21246449999999584
                },
                {
                    "name": "F#4",
                    "midi": 66,
                    "time": 74.36257500000008,
                    "velocity": 0.25984251968503935,
                    "duration": 0.21246449999999584
                },
                {
                    "name": "D#4",
                    "midi": 63,
                    "time": 74.36257500000008,
                    "velocity": 0.33070866141732286,
                    "duration": 0.3824360999999925
                },
                {
                    "name": "B3",
                    "midi": 59,
                    "time": 74.36257500000008,
                    "velocity": 0.2755905511811024,
                    "duration": 0.3824360999999925
                },
                {
                    "name": "G#4",
                    "midi": 68,
                    "time": 74.57503950000007,
                    "velocity": 0.28346456692913385,
                    "duration": 0.21246449999999584
                },
                {
                    "name": "F#4",
                    "midi": 66,
                    "time": 74.78750400000007,
                    "velocity": 0.29133858267716534,
                    "duration": 0.21246449999999584
                },
                {
                    "name": "E4",
                    "midi": 64,
                    "time": 74.78750400000007,
                    "velocity": 0.3700787401574803,
                    "duration": 0.4249289999999917
                },
                {
                    "name": "C#4",
                    "midi": 61,
                    "time": 74.78750400000007,
                    "velocity": 0.30708661417322836,
                    "duration": 0.4249289999999917
                },
                {
                    "name": "G#4",
                    "midi": 68,
                    "time": 74.99996850000007,
                    "velocity": 0.2283464566929134,
                    "duration": 0.21246449999999584
                },
                {
                    "name": "F#4",
                    "midi": 66,
                    "time": 75.21243300000006,
                    "velocity": 0.25196850393700787,
                    "duration": 0.21246449999999584
                },
                {
                    "name": "C#4",
                    "midi": 61,
                    "time": 75.21243300000006,
                    "velocity": 0.3228346456692913,
                    "duration": 0.3824360999999925
                },
                {
                    "name": "A#3",
                    "midi": 58,
                    "time": 75.21243300000006,
                    "velocity": 0.2677165354330709,
                    "duration": 0.3824360999999925
                },
                {
                    "name": "G#4",
                    "midi": 68,
                    "time": 75.42489750000006,
                    "velocity": 0.2204724409448819,
                    "duration": 0.21246449999999584
                },
                {
                    "name": "B3",
                    "midi": 59,
                    "time": 75.63736200000005,
                    "velocity": 0.2204724409448819,
                    "duration": 0.4249289999999917
                },
                {
                    "name": "D#4",
                    "midi": 63,
                    "time": 75.63736200000005,
                    "velocity": 0.25984251968503935,
                    "duration": 0.4249289999999917
                },
                {
                    "name": "F#4",
                    "midi": 66,
                    "time": 75.63736200000005,
                    "velocity": 0.2047244094488189,
                    "duration": 0.21246449999999584
                },
                {
                    "name": "G#4",
                    "midi": 68,
                    "time": 75.84982650000005,
                    "velocity": 0.1889763779527559,
                    "duration": 0.21246449999999584
                },
                {
                    "name": "C#4",
                    "midi": 61,
                    "time": 76.06229100000004,
                    "velocity": 0.2204724409448819,
                    "duration": 0.4249289999999917
                },
                {
                    "name": "E4",
                    "midi": 64,
                    "time": 76.06229100000004,
                    "velocity": 0.25984251968503935,
                    "duration": 0.4249289999999917
                },
                {
                    "name": "F#4",
                    "midi": 66,
                    "time": 76.06229100000004,
                    "velocity": 0.2047244094488189,
                    "duration": 0.21246449999999584
                },
                {
                    "name": "G#4",
                    "midi": 68,
                    "time": 76.27475550000004,
                    "velocity": 0.1889763779527559,
                    "duration": 0.21246449999999584
                },
                {
                    "name": "D#4",
                    "midi": 63,
                    "time": 76.48722000000004,
                    "velocity": 0.2204724409448819,
                    "duration": 0.4249289999999917
                },
                {
                    "name": "F#4",
                    "midi": 66,
                    "time": 76.48722000000004,
                    "velocity": 0.25984251968503935,
                    "duration": 0.21246449999999584
                },
                {
                    "name": "B4",
                    "midi": 71,
                    "time": 76.69968450000003,
                    "velocity": 0.2125984251968504,
                    "duration": 0.21246449999999584
                },
                {
                    "name": "F#4",
                    "midi": 66,
                    "time": 76.91214900000003,
                    "velocity": 0.2440944881889764,
                    "duration": 0.21246449999999584
                },
                {
                    "name": "B4",
                    "midi": 71,
                    "time": 77.12461350000002,
                    "velocity": 0.2125984251968504,
                    "duration": 0.21246449999999584
                },
                {
                    "name": "E4",
                    "midi": 64,
                    "time": 77.33707800000002,
                    "velocity": 0.25984251968503935,
                    "duration": 0.21246449999999584
                },
                {
                    "name": "B4",
                    "midi": 71,
                    "time": 77.54954250000002,
                    "velocity": 0.2047244094488189,
                    "duration": 0.21246449999999584
                },
                {
                    "name": "D#4",
                    "midi": 63,
                    "time": 77.76200700000001,
                    "velocity": 0.23622047244094488,
                    "duration": 0.21246449999999584
                },
                {
                    "name": "B4",
                    "midi": 71,
                    "time": 77.9744715,
                    "velocity": 0.2125984251968504,
                    "duration": 0.21246449999999584
                },
                {
                    "name": "E4",
                    "midi": 64,
                    "time": 78.186936,
                    "velocity": 0.25984251968503935,
                    "duration": 0.21246449999999584
                },
                {
                    "name": "B4",
                    "midi": 71,
                    "time": 78.3994005,
                    "velocity": 0.2047244094488189,
                    "duration": 0.21246449999999584
                },
                {
                    "name": "F#4",
                    "midi": 66,
                    "time": 78.611865,
                    "velocity": 0.2440944881889764,
                    "duration": 0.21246449999999584
                },
                {
                    "name": "B4",
                    "midi": 71,
                    "time": 78.82432949999999,
                    "velocity": 0.1968503937007874,
                    "duration": 0.21246449999999584
                },
                {
                    "name": "G#4",
                    "midi": 68,
                    "time": 79.03679399999999,
                    "velocity": 0.25984251968503935,
                    "duration": 0.21246449999999584
                },
                {
                    "name": "B4",
                    "midi": 71,
                    "time": 79.24925849999998,
                    "velocity": 0.1968503937007874,
                    "duration": 0.21246449999999584
                },
                {
                    "name": "F4",
                    "midi": 65,
                    "time": 79.46172299999998,
                    "velocity": 0.23622047244094488,
                    "duration": 0.21246449999999584
                },
                {
                    "name": "B4",
                    "midi": 71,
                    "time": 79.67418749999997,
                    "velocity": 0.2125984251968504,
                    "duration": 0.21246449999999584
                },
                {
                    "name": "F#4",
                    "midi": 66,
                    "time": 79.88665199999997,
                    "velocity": 0.25984251968503935,
                    "duration": 1.6997159999999667
                },
                {
                    "name": "G#4",
                    "midi": 68,
                    "time": 80.09911649999997,
                    "velocity": 0.2125984251968504,
                    "duration": 0.21246449999999584
                },
                {
                    "name": "A#4",
                    "midi": 70,
                    "time": 80.31158099999996,
                    "velocity": 0.25196850393700787,
                    "duration": 0.21246449999999584
                },
                {
                    "name": "B4",
                    "midi": 71,
                    "time": 80.52404549999996,
                    "velocity": 0.2047244094488189,
                    "duration": 0.21246449999999584
                },
                {
                    "name": "A#4",
                    "midi": 70,
                    "time": 80.73650999999995,
                    "velocity": 0.2440944881889764,
                    "duration": 0.21246449999999584
                },
                {
                    "name": "B4",
                    "midi": 71,
                    "time": 80.94897449999995,
                    "velocity": 0.2125984251968504,
                    "duration": 0.21246449999999584
                },
                {
                    "name": "C#5",
                    "midi": 73,
                    "time": 81.16143899999994,
                    "velocity": 0.2283464566929134,
                    "duration": 0.21246449999999584
                },
                {
                    "name": "D#5",
                    "midi": 75,
                    "time": 81.37390349999994,
                    "velocity": 0.2125984251968504,
                    "duration": 0.21246449999999584
                },
                {
                    "name": "A#4",
                    "midi": 70,
                    "time": 81.58636799999994,
                    "velocity": 0.25984251968503935,
                    "duration": 0.4249290000000059
                },
                {
                    "name": "F#4",
                    "midi": 66,
                    "time": 81.58636799999994,
                    "velocity": 0.25984251968503935,
                    "duration": 0.4249290000000059
                },
                {
                    "name": "G#4",
                    "midi": 68,
                    "time": 82.01129699999994,
                    "velocity": 0.25984251968503935,
                    "duration": 0.21246449999999584
                },
                {
                    "name": "F#4",
                    "midi": 66,
                    "time": 82.22376149999994,
                    "velocity": 0.23622047244094488,
                    "duration": 0.21246449999999584
                },
                {
                    "name": "G#4",
                    "midi": 68,
                    "time": 82.43622599999993,
                    "velocity": 0.25984251968503935,
                    "duration": 0.21246449999999584
                },
                {
                    "name": "F#4",
                    "midi": 66,
                    "time": 82.64869049999993,
                    "velocity": 0.2283464566929134,
                    "duration": 0.21246449999999584
                },
                {
                    "name": "G#4",
                    "midi": 68,
                    "time": 82.86115499999993,
                    "velocity": 0.25984251968503935,
                    "duration": 0.21246449999999584
                },
                {
                    "name": "F#4",
                    "midi": 66,
                    "time": 83.07361949999992,
                    "velocity": 0.25984251968503935,
                    "duration": 0.21246449999999584
                },
                {
                    "name": "G#4",
                    "midi": 68,
                    "time": 83.28608399999992,
                    "velocity": 0.25196850393700787,
                    "duration": 0.21246449999999584
                },
                {
                    "name": "C#4",
                    "midi": 61,
                    "time": 83.28608399999992,
                    "velocity": 0.3228346456692913,
                    "duration": 1.274786999999975
                },
                {
                    "name": "A#3",
                    "midi": 58,
                    "time": 83.28608399999992,
                    "velocity": 0.2677165354330709,
                    "duration": 1.274786999999975
                },
                {
                    "name": "F#4",
                    "midi": 66,
                    "time": 83.49854849999991,
                    "velocity": 0.2125984251968504,
                    "duration": 0.21246449999999584
                },
                {
                    "name": "G#4",
                    "midi": 68,
                    "time": 83.71101299999991,
                    "velocity": 0.2440944881889764,
                    "duration": 0.21246449999999584
                },
                {
                    "name": "F#4",
                    "midi": 66,
                    "time": 83.9234774999999,
                    "velocity": 0.2047244094488189,
                    "duration": 0.21246449999999584
                },
                {
                    "name": "G#4",
                    "midi": 68,
                    "time": 84.1359419999999,
                    "velocity": 0.25196850393700787,
                    "duration": 0.21246449999999584
                },
                {
                    "name": "F#4",
                    "midi": 66,
                    "time": 84.3484064999999,
                    "velocity": 0.25196850393700787,
                    "duration": 0.21246449999999584
                },
                {
                    "name": "G#4",
                    "midi": 68,
                    "time": 84.56087099999989,
                    "velocity": 0.25984251968503935,
                    "duration": 0.21246449999999584
                },
                {
                    "name": "D#4",
                    "midi": 63,
                    "time": 84.56087099999989,
                    "velocity": 0.33070866141732286,
                    "duration": 0.3824360999999925
                },
                {
                    "name": "B3",
                    "midi": 59,
                    "time": 84.56087099999989,
                    "velocity": 0.2755905511811024,
                    "duration": 0.3824360999999925
                },
                {
                    "name": "F#4",
                    "midi": 66,
                    "time": 84.77333549999989,
                    "velocity": 0.28346456692913385,
                    "duration": 0.21246449999999584
                },
                {
                    "name": "G#4",
                    "midi": 68,
                    "time": 84.98579999999988,
                    "velocity": 0.29133858267716534,
                    "duration": 0.21246449999999584
                },
                {
                    "name": "D#4",
                    "midi": 63,
                    "time": 84.98579999999988,
                    "velocity": 0.3700787401574803,
                    "duration": 0.4249289999999917
                },
                {
                    "name": "B3",
                    "midi": 59,
                    "time": 84.98579999999988,
                    "velocity": 0.30708661417322836,
                    "duration": 0.4249289999999917
                },
                {
                    "name": "F#4",
                    "midi": 66,
                    "time": 85.19826449999988,
                    "velocity": 0.2283464566929134,
                    "duration": 0.21246449999999584
                },
                {
                    "name": "G#4",
                    "midi": 68,
                    "time": 85.41072899999988,
                    "velocity": 0.25196850393700787,
                    "duration": 0.21246449999999584
                },
                {
                    "name": "E4",
                    "midi": 64,
                    "time": 85.41072899999988,
                    "velocity": 0.3228346456692913,
                    "duration": 0.3824360999999925
                },
                {
                    "name": "C#4",
                    "midi": 61,
                    "time": 85.41072899999988,
                    "velocity": 0.2677165354330709,
                    "duration": 0.3824360999999925
                },
                {
                    "name": "F#4",
                    "midi": 66,
                    "time": 85.62319349999987,
                    "velocity": 0.2204724409448819,
                    "duration": 0.21246449999999584
                },
                {
                    "name": "C#4",
                    "midi": 61,
                    "time": 85.83565799999987,
                    "velocity": 0.2204724409448819,
                    "duration": 0.4249289999999917
                },
                {
                    "name": "E4",
                    "midi": 64,
                    "time": 85.83565799999987,
                    "velocity": 0.25984251968503935,
                    "duration": 0.4249289999999917
                },
                {
                    "name": "G#4",
                    "midi": 68,
                    "time": 85.83565799999987,
                    "velocity": 0.2047244094488189,
                    "duration": 0.21246449999999584
                },
                {
                    "name": "F#4",
                    "midi": 66,
                    "time": 86.04812249999986,
                    "velocity": 0.1889763779527559,
                    "duration": 0.21246449999999584
                },
                {
                    "name": "B3",
                    "midi": 59,
                    "time": 86.26058699999986,
                    "velocity": 0.2204724409448819,
                    "duration": 0.4249289999999917
                },
                {
                    "name": "D#4",
                    "midi": 63,
                    "time": 86.26058699999986,
                    "velocity": 0.25984251968503935,
                    "duration": 0.4249289999999917
                },
                {
                    "name": "G#4",
                    "midi": 68,
                    "time": 86.26058699999986,
                    "velocity": 0.2047244094488189,
                    "duration": 0.21246449999999584
                },
                {
                    "name": "F#4",
                    "midi": 66,
                    "time": 86.47305149999985,
                    "velocity": 0.1889763779527559,
                    "duration": 0.21246449999999584
                },
                {
                    "name": "G#4",
                    "midi": 68,
                    "time": 86.68551599999985,
                    "velocity": 0.25196850393700787,
                    "duration": 0.21246449999999584
                },
                {
                    "name": "C#4",
                    "midi": 61,
                    "time": 86.68551599999985,
                    "velocity": 0.3228346456692913,
                    "duration": 1.274786999999975
                },
                {
                    "name": "A#3",
                    "midi": 58,
                    "time": 86.68551599999985,
                    "velocity": 0.2677165354330709,
                    "duration": 1.274786999999975
                },
                {
                    "name": "F#4",
                    "midi": 66,
                    "time": 86.89798049999985,
                    "velocity": 0.2125984251968504,
                    "duration": 0.21246449999999584
                },
                {
                    "name": "G#4",
                    "midi": 68,
                    "time": 87.11044499999984,
                    "velocity": 0.2440944881889764,
                    "duration": 0.21246449999999584
                },
                {
                    "name": "F#4",
                    "midi": 66,
                    "time": 87.32290949999984,
                    "velocity": 0.2047244094488189,
                    "duration": 0.21246449999999584
                },
                {
                    "name": "G#4",
                    "midi": 68,
                    "time": 87.53537399999983,
                    "velocity": 0.25196850393700787,
                    "duration": 0.21246449999999584
                },
                {
                    "name": "F#4",
                    "midi": 66,
                    "time": 87.74783849999983,
                    "velocity": 0.25196850393700787,
                    "duration": 0.21246449999999584
                },
                {
                    "name": "G#4",
                    "midi": 68,
                    "time": 87.96030299999983,
                    "velocity": 0.25984251968503935,
                    "duration": 0.21246449999999584
                },
                {
                    "name": "D#4",
                    "midi": 63,
                    "time": 87.96030299999983,
                    "velocity": 0.33070866141732286,
                    "duration": 0.3824360999999925
                },
                {
                    "name": "B3",
                    "midi": 59,
                    "time": 87.96030299999983,
                    "velocity": 0.2755905511811024,
                    "duration": 0.3824360999999925
                },
                {
                    "name": "F#4",
                    "midi": 66,
                    "time": 88.17276749999982,
                    "velocity": 0.28346456692913385,
                    "duration": 0.21246449999999584
                },
                {
                    "name": "E4",
                    "midi": 64,
                    "time": 88.38523199999982,
                    "velocity": 0.25196850393700787,
                    "duration": 0.21246449999999584
                },
                {
                    "name": "C#4",
                    "midi": 61,
                    "time": 88.38523199999982,
                    "velocity": 0.30708661417322836,
                    "duration": 0.4249289999999917
                },
                {
                    "name": "F#4",
                    "midi": 66,
                    "time": 88.59769649999981,
                    "velocity": 0.2283464566929134,
                    "duration": 0.21246449999999584
                },
                {
                    "name": "A#3",
                    "midi": 58,
                    "time": 88.81016099999981,
                    "velocity": 0.3228346456692913,
                    "duration": 0.19121805000000336
                },
                {
                    "name": "F#3",
                    "midi": 54,
                    "time": 88.81016099999981,
                    "velocity": 0.2677165354330709,
                    "duration": 0.19121805000000336
                },
                {
                    "name": "F#4",
                    "midi": 66,
                    "time": 89.02262549999982,
                    "velocity": 0.2204724409448819,
                    "duration": 0.21246449999999584
                },
                {
                    "name": "G#3",
                    "midi": 56,
                    "time": 89.23508999999981,
                    "velocity": 0.2204724409448819,
                    "duration": 0.21246449999999584
                },
                {
                    "name": "B3",
                    "midi": 59,
                    "time": 89.23508999999981,
                    "velocity": 0.25984251968503935,
                    "duration": 0.21246449999999584
                },
                {
                    "name": "F#4",
                    "midi": 66,
                    "time": 89.44755449999981,
                    "velocity": 0.1889763779527559,
                    "duration": 0.21246449999999584
                },
                {
                    "name": "A#3",
                    "midi": 58,
                    "time": 89.6600189999998,
                    "velocity": 0.2204724409448819,
                    "duration": 0.21246449999999584
                },
                {
                    "name": "C#4",
                    "midi": 61,
                    "time": 89.6600189999998,
                    "velocity": 0.25984251968503935,
                    "duration": 0.21246449999999584
                },
                {
                    "name": "F#4",
                    "midi": 66,
                    "time": 89.8724834999998,
                    "velocity": 0.1889763779527559,
                    "duration": 0.21246449999999584
                },
                {
                    "name": "D#4",
                    "midi": 63,
                    "time": 90.0849479999998,
                    "velocity": 0.25196850393700787,
                    "duration": 0.21246449999999584
                },
                {
                    "name": "B3",
                    "midi": 59,
                    "time": 90.0849479999998,
                    "velocity": 0.30708661417322836,
                    "duration": 0.21246449999999584
                },
                {
                    "name": "F#4",
                    "midi": 66,
                    "time": 90.2974124999998,
                    "velocity": 0.2204724409448819,
                    "duration": 0.21246449999999584
                },
                {
                    "name": "B3",
                    "midi": 59,
                    "time": 90.50987699999979,
                    "velocity": 0.31496062992125984,
                    "duration": 0.19121805000000336
                },
                {
                    "name": "G#3",
                    "midi": 56,
                    "time": 90.50987699999979,
                    "velocity": 0.25984251968503935,
                    "duration": 0.19121805000000336
                },
                {
                    "name": "F#4",
                    "midi": 66,
                    "time": 90.7223414999998,
                    "velocity": 0.2125984251968504,
                    "duration": 0.21246449999999584
                },
                {
                    "name": "A#3",
                    "midi": 58,
                    "time": 90.9348059999998,
                    "velocity": 0.2047244094488189,
                    "duration": 0.21246449999999584
                },
                {
                    "name": "C#4",
                    "midi": 61,
                    "time": 90.9348059999998,
                    "velocity": 0.2440944881889764,
                    "duration": 0.21246449999999584
                },
                {
                    "name": "F#4",
                    "midi": 66,
                    "time": 91.14727049999979,
                    "velocity": 0.1732283464566929,
                    "duration": 0.21246449999999584
                },
                {
                    "name": "B3",
                    "midi": 59,
                    "time": 91.35973499999979,
                    "velocity": 0.2047244094488189,
                    "duration": 0.21246449999999584
                },
                {
                    "name": "D#4",
                    "midi": 63,
                    "time": 91.35973499999979,
                    "velocity": 0.2440944881889764,
                    "duration": 0.21246449999999584
                },
                {
                    "name": "F#4",
                    "midi": 66,
                    "time": 91.57219949999978,
                    "velocity": 0.1732283464566929,
                    "duration": 0.21246449999999584
                },
                {
                    "name": "E4",
                    "midi": 64,
                    "time": 91.78466399999978,
                    "velocity": 0.2283464566929134,
                    "duration": 0.21246449999999584
                },
                {
                    "name": "C#4",
                    "midi": 61,
                    "time": 91.78466399999978,
                    "velocity": 0.2755905511811024,
                    "duration": 0.21246449999999584
                },
                {
                    "name": "F#4",
                    "midi": 66,
                    "time": 91.99712849999977,
                    "velocity": 0.2047244094488189,
                    "duration": 0.21246449999999584
                },
                {
                    "name": "C#4",
                    "midi": 61,
                    "time": 92.20959299999977,
                    "velocity": 0.28346456692913385,
                    "duration": 0.19121805000000336
                },
                {
                    "name": "A#3",
                    "midi": 58,
                    "time": 92.20959299999977,
                    "velocity": 0.23622047244094488,
                    "duration": 0.19121805000000336
                },
                {
                    "name": "F#4",
                    "midi": 66,
                    "time": 92.42205749999978,
                    "velocity": 0.1889763779527559,
                    "duration": 0.21246449999999584
                },
                {
                    "name": "B3",
                    "midi": 59,
                    "time": 92.63452199999978,
                    "velocity": 0.1889763779527559,
                    "duration": 0.21246449999999584
                },
                {
                    "name": "D#4",
                    "midi": 63,
                    "time": 92.63452199999978,
                    "velocity": 0.2283464566929134,
                    "duration": 0.21246449999999584
                },
                {
                    "name": "F#4",
                    "midi": 66,
                    "time": 92.84698649999977,
                    "velocity": 0.15748031496062992,
                    "duration": 0.21246449999999584
                },
                {
                    "name": "C#4",
                    "midi": 61,
                    "time": 93.05945099999977,
                    "velocity": 0.1889763779527559,
                    "duration": 0.21246449999999584
                },
                {
                    "name": "E4",
                    "midi": 64,
                    "time": 93.05945099999977,
                    "velocity": 0.2204724409448819,
                    "duration": 0.21246449999999584
                },
                {
                    "name": "F#4",
                    "midi": 66,
                    "time": 93.27191549999976,
                    "velocity": 0.15748031496062992,
                    "duration": 0.21246449999999584
                },
                {
                    "name": "D#4",
                    "midi": 63,
                    "time": 93.48437999999976,
                    "velocity": 0.2047244094488189,
                    "duration": 0.21246449999999584
                },
                {
                    "name": "F#4",
                    "midi": 66,
                    "time": 93.69684449999976,
                    "velocity": 0.1889763779527559,
                    "duration": 0.21246449999999584
                },
                {
                    "name": "D#4",
                    "midi": 63,
                    "time": 93.90930899999975,
                    "velocity": 0.25984251968503935,
                    "duration": 0.19121805000000336
                },
                {
                    "name": "F#4",
                    "midi": 66,
                    "time": 94.12177349999976,
                    "velocity": 0.1732283464566929,
                    "duration": 0.21246449999999584
                },
                {
                    "name": "D#4",
                    "midi": 63,
                    "time": 94.33423799999976,
                    "velocity": 0.2047244094488189,
                    "duration": 0.21246449999999584
                },
                {
                    "name": "F#4",
                    "midi": 66,
                    "time": 94.54670249999975,
                    "velocity": 0.14173228346456693,
                    "duration": 0.21246449999999584
                },
                {
                    "name": "D#4",
                    "midi": 63,
                    "time": 94.75916699999975,
                    "velocity": 0.1968503937007874,
                    "duration": 0.21246449999999584
                },
                {
                    "name": "F#4",
                    "midi": 66,
                    "time": 94.97163149999975,
                    "velocity": 0.14173228346456693,
                    "duration": 0.21246449999999584
                },
                {
                    "name": "D#4",
                    "midi": 63,
                    "time": 95.18409599999974,
                    "velocity": 0.1889763779527559,
                    "duration": 0.4249290000000059
                },
                {
                    "name": "F#4",
                    "midi": 66,
                    "time": 95.18409599999974,
                    "velocity": 0.1889763779527559,
                    "duration": 0.4249290000000059
                },
                {
                    "name": "G#3",
                    "midi": 56,
                    "time": 96.24641849999975,
                    "velocity": 0.2125984251968504,
                    "duration": 0.21246449999999584
                },
                {
                    "name": "A#3",
                    "midi": 58,
                    "time": 96.45888299999974,
                    "velocity": 0.2283464566929134,
                    "duration": 0.21246449999999584
                },
                {
                    "name": "C4",
                    "midi": 60,
                    "time": 96.67134749999974,
                    "velocity": 0.2125984251968504,
                    "duration": 0.21246449999999584
                },
                {
                    "name": "C#4",
                    "midi": 61,
                    "time": 96.88381199999974,
                    "velocity": 0.25984251968503935,
                    "duration": 0.21246449999999584
                },
                {
                    "name": "G#3",
                    "midi": 56,
                    "time": 97.09627649999973,
                    "velocity": 0.2204724409448819,
                    "duration": 0.21246449999999584
                },
                {
                    "name": "A#3",
                    "midi": 58,
                    "time": 97.30874099999973,
                    "velocity": 0.2283464566929134,
                    "duration": 0.21246449999999584
                },
                {
                    "name": "C4",
                    "midi": 60,
                    "time": 97.52120549999972,
                    "velocity": 0.2125984251968504,
                    "duration": 0.15934837499999333
                },
                {
                    "name": "D#4",
                    "midi": 63,
                    "time": 97.68055387499972,
                    "velocity": 0.2125984251968504,
                    "duration": 0.05311612500000251
                },
                {
                    "name": "C#4",
                    "midi": 61,
                    "time": 97.73366999999972,
                    "velocity": 0.2677165354330709,
                    "duration": 0.21246449999999584
                },
                {
                    "name": "C4",
                    "midi": 60,
                    "time": 97.94613449999972,
                    "velocity": 0.2204724409448819,
                    "duration": 0.21246449999999584
                },
                {
                    "name": "C#4",
                    "midi": 61,
                    "time": 98.15859899999971,
                    "velocity": 0.2283464566929134,
                    "duration": 0.21246449999999584
                },
                {
                    "name": "D#4",
                    "midi": 63,
                    "time": 98.3710634999997,
                    "velocity": 0.2125984251968504,
                    "duration": 0.21246449999999584
                },
                {
                    "name": "E4",
                    "midi": 64,
                    "time": 98.5835279999997,
                    "velocity": 0.2755905511811024,
                    "duration": 0.21246449999999584
                },
                {
                    "name": "D#4",
                    "midi": 63,
                    "time": 98.7959924999997,
                    "velocity": 0.2283464566929134,
                    "duration": 0.21246449999999584
                },
                {
                    "name": "E4",
                    "midi": 64,
                    "time": 99.0084569999997,
                    "velocity": 0.2283464566929134,
                    "duration": 0.21246449999999584
                },
                {
                    "name": "F#4",
                    "midi": 66,
                    "time": 99.22092149999969,
                    "velocity": 0.2204724409448819,
                    "duration": 0.21246449999999584
                },
                {
                    "name": "G#4",
                    "midi": 68,
                    "time": 99.43338599999969,
                    "velocity": 0.2677165354330709,
                    "duration": 0.21246449999999584
                },
                {
                    "name": "F#4",
                    "midi": 66,
                    "time": 99.64585049999968,
                    "velocity": 0.2283464566929134,
                    "duration": 0.21246449999999584
                },
                {
                    "name": "E4",
                    "midi": 64,
                    "time": 99.85831499999968,
                    "velocity": 0.2283464566929134,
                    "duration": 0.21246449999999584
                },
                {
                    "name": "F4",
                    "midi": 65,
                    "time": 100.07077949999967,
                    "velocity": 0.2204724409448819,
                    "duration": 0.21246449999999584
                },
                {
                    "name": "F#4",
                    "midi": 66,
                    "time": 100.28324399999967,
                    "velocity": 0.2677165354330709,
                    "duration": 0.4249290000000059
                },
                {
                    "name": "F#3",
                    "midi": 54,
                    "time": 101.13310199999968,
                    "velocity": 0.2677165354330709,
                    "duration": 0.4249290000000059
                },
                {
                    "name": "B2",
                    "midi": 47,
                    "time": 101.9829599999997,
                    "velocity": 0.25196850393700787,
                    "duration": 0.2832860000000039
                },
                {
                    "name": "F#3",
                    "midi": 54,
                    "time": 102.2662459999997,
                    "velocity": 0.2125984251968504,
                    "duration": 0.2832860000000039
                },
                {
                    "name": "D#3",
                    "midi": 51,
                    "time": 102.5495319999997,
                    "velocity": 0.2125984251968504,
                    "duration": 0.2832860000000039
                },
                {
                    "name": "B2",
                    "midi": 47,
                    "time": 102.8328179999997,
                    "velocity": 0.25196850393700787,
                    "duration": 0.2832860000000039
                },
                {
                    "name": "B3",
                    "midi": 59,
                    "time": 103.11610399999971,
                    "velocity": 0.2125984251968504,
                    "duration": 0.2832860000000039
                },
                {
                    "name": "F#3",
                    "midi": 54,
                    "time": 103.39938999999971,
                    "velocity": 0.2125984251968504,
                    "duration": 0.2832860000000039
                },
                {
                    "name": "C#3",
                    "midi": 49,
                    "time": 103.68267599999972,
                    "velocity": 0.25196850393700787,
                    "duration": 0.2832860000000039
                },
                {
                    "name": "A#3",
                    "midi": 58,
                    "time": 103.96596199999972,
                    "velocity": 0.2125984251968504,
                    "duration": 0.2832860000000039
                },
                {
                    "name": "F#3",
                    "midi": 54,
                    "time": 104.24924799999972,
                    "velocity": 0.2125984251968504,
                    "duration": 0.2832860000000039
                },
                {
                    "name": "D#3",
                    "midi": 51,
                    "time": 104.53253399999973,
                    "velocity": 0.25984251968503935,
                    "duration": 0.2832860000000039
                },
                {
                    "name": "B3",
                    "midi": 59,
                    "time": 104.81581999999973,
                    "velocity": 0.2125984251968504,
                    "duration": 0.2832860000000039
                },
                {
                    "name": "F#3",
                    "midi": 54,
                    "time": 105.09910599999974,
                    "velocity": 0.2283464566929134,
                    "duration": 0.2832860000000039
                },
                {
                    "name": "E3",
                    "midi": 52,
                    "time": 105.38239199999974,
                    "velocity": 0.25196850393700787,
                    "duration": 0.2832860000000039
                },
                {
                    "name": "C#4",
                    "midi": 61,
                    "time": 105.66567799999974,
                    "velocity": 0.2283464566929134,
                    "duration": 0.2832860000000039
                },
                {
                    "name": "G#3",
                    "midi": 56,
                    "time": 105.94896399999975,
                    "velocity": 0.2283464566929134,
                    "duration": 0.2832860000000039
                },
                {
                    "name": "F3",
                    "midi": 53,
                    "time": 106.23224999999975,
                    "velocity": 0.2677165354330709,
                    "duration": 0.2832860000000039
                },
                {
                    "name": "D#4",
                    "midi": 63,
                    "time": 106.51553599999976,
                    "velocity": 0.2440944881889764,
                    "duration": 0.2832860000000039
                },
                {
                    "name": "B3",
                    "midi": 59,
                    "time": 106.79882199999976,
                    "velocity": 0.23622047244094488,
                    "duration": 0.2832860000000039
                },
                {
                    "name": "F#3",
                    "midi": 54,
                    "time": 107.08210799999976,
                    "velocity": 0.29133858267716534,
                    "duration": 0.2832860000000039
                },
                {
                    "name": "D#4",
                    "midi": 63,
                    "time": 107.36539399999977,
                    "velocity": 0.25196850393700787,
                    "duration": 0.2832860000000039
                },
                {
                    "name": "B3",
                    "midi": 59,
                    "time": 107.64867999999977,
                    "velocity": 0.25196850393700787,
                    "duration": 0.2832860000000039
                },
                {
                    "name": "E3",
                    "midi": 52,
                    "time": 107.93196599999978,
                    "velocity": 0.33070866141732286,
                    "duration": 0.2832860000000039
                },
                {
                    "name": "C#4",
                    "midi": 61,
                    "time": 108.21525199999978,
                    "velocity": 0.28346456692913385,
                    "duration": 0.2832860000000039
                },
                {
                    "name": "A#3",
                    "midi": 58,
                    "time": 108.49853799999978,
                    "velocity": 0.28346456692913385,
                    "duration": 0.2832860000000039
                },
                {
                    "name": "D#3",
                    "midi": 51,
                    "time": 108.78182399999979,
                    "velocity": 0.33858267716535434,
                    "duration": 0.21246449999999584
                },
                {
                    "name": "B3",
                    "midi": 59,
                    "time": 108.99428849999978,
                    "velocity": 0.28346456692913385,
                    "duration": 0.21246449999999584
                },
                {
                    "name": "F#3",
                    "midi": 54,
                    "time": 109.20675299999978,
                    "velocity": 0.28346456692913385,
                    "duration": 0.21246449999999584
                },
                {
                    "name": "D#3",
                    "midi": 51,
                    "time": 109.41921749999977,
                    "velocity": 0.2677165354330709,
                    "duration": 0.21246449999999584
                },
                {
                    "name": "B2",
                    "midi": 47,
                    "time": 109.63168199999977,
                    "velocity": 0.33070866141732286,
                    "duration": 0.21246449999999584
                },
                {
                    "name": "F#3",
                    "midi": 54,
                    "time": 109.84414649999977,
                    "velocity": 0.29133858267716534,
                    "duration": 0.21246449999999584
                },
                {
                    "name": "D#3",
                    "midi": 51,
                    "time": 110.05661099999976,
                    "velocity": 0.2992125984251969,
                    "duration": 0.21246449999999584
                },
                {
                    "name": "B2",
                    "midi": 47,
                    "time": 110.26907549999976,
                    "velocity": 0.2755905511811024,
                    "duration": 0.21246449999999584
                },
                {
                    "name": "C#3",
                    "midi": 49,
                    "time": 110.48153999999975,
                    "velocity": 0.3937007874015748,
                    "duration": 0.21246449999999584
                },
                {
                    "name": "A3",
                    "midi": 57,
                    "time": 110.69400449999975,
                    "velocity": 0.31496062992125984,
                    "duration": 0.21246449999999584
                },
                {
                    "name": "E3",
                    "midi": 52,
                    "time": 110.90646899999975,
                    "velocity": 0.31496062992125984,
                    "duration": 0.21246449999999584
                },
                {
                    "name": "C#3",
                    "midi": 49,
                    "time": 111.11893349999974,
                    "velocity": 0.28346456692913385,
                    "duration": 0.21246449999999584
                },
                {
                    "name": "D#3",
                    "midi": 51,
                    "time": 111.33139799999974,
                    "velocity": 0.3779527559055118,
                    "duration": 0.21246449999999584
                },
                {
                    "name": "B3",
                    "midi": 59,
                    "time": 111.54386249999973,
                    "velocity": 0.33858267716535434,
                    "duration": 0.21246449999999584
                },
                {
                    "name": "F#3",
                    "midi": 54,
                    "time": 111.75632699999973,
                    "velocity": 0.33858267716535434,
                    "duration": 0.21246449999999584
                },
                {
                    "name": "D#3",
                    "midi": 51,
                    "time": 111.96879149999972,
                    "velocity": 0.3228346456692913,
                    "duration": 0.21246449999999584
                },
                {
                    "name": "E3",
                    "midi": 52,
                    "time": 112.18125599999972,
                    "velocity": 0.48031496062992124,
                    "duration": 0.21246449999999584
                },
                {
                    "name": "C#4",
                    "midi": 61,
                    "time": 112.39372049999972,
                    "velocity": 0.36220472440944884,
                    "duration": 0.21246449999999584
                },
                {
                    "name": "A3",
                    "midi": 57,
                    "time": 112.60618499999971,
                    "velocity": 0.3543307086614173,
                    "duration": 0.21246449999999584
                },
                {
                    "name": "E3",
                    "midi": 52,
                    "time": 112.81864949999971,
                    "velocity": 0.33858267716535434,
                    "duration": 0.21246449999999584
                },
                {
                    "name": "F#3",
                    "midi": 54,
                    "time": 113.0311139999997,
                    "velocity": 0.4881889763779528,
                    "duration": 0.21246449999999584
                },
                {
                    "name": "B3",
                    "midi": 59,
                    "time": 113.2435784999997,
                    "velocity": 0.3700787401574803,
                    "duration": 0.21246449999999584
                },
                {
                    "name": "A3",
                    "midi": 57,
                    "time": 113.4560429999997,
                    "velocity": 0.3779527559055118,
                    "duration": 0.21246449999999584
                },
                {
                    "name": "F#3",
                    "midi": 54,
                    "time": 113.66850749999969,
                    "velocity": 0.36220472440944884,
                    "duration": 0.19475912500000447
                },
                {
                    "name": "F#3",
                    "midi": 54,
                    "time": 113.8809719999997,
                    "velocity": 0.5196850393700787,
                    "duration": 0.21246449999999584
                },
                {
                    "name": "B3",
                    "midi": 59,
                    "time": 114.0934364999997,
                    "velocity": 0.3937007874015748,
                    "duration": 0.21246449999999584
                },
                {
                    "name": "A3",
                    "midi": 57,
                    "time": 114.3059009999997,
                    "velocity": 0.3937007874015748,
                    "duration": 0.21246449999999584
                },
                {
                    "name": "F#3",
                    "midi": 54,
                    "time": 114.51836549999969,
                    "velocity": 0.3779527559055118,
                    "duration": 0.21246449999999584
                },
                {
                    "name": "C3",
                    "midi": 48,
                    "time": 114.73082999999968,
                    "velocity": 0.47244094488188976,
                    "duration": 0.21246449999999584
                },
                {
                    "name": "A3",
                    "midi": 57,
                    "time": 114.94329449999968,
                    "velocity": 0.4015748031496063,
                    "duration": 0.21246449999999584
                },
                {
                    "name": "F#3",
                    "midi": 54,
                    "time": 115.15575899999968,
                    "velocity": 0.4015748031496063,
                    "duration": 0.21246449999999584
                },
                {
                    "name": "D#3",
                    "midi": 51,
                    "time": 115.36822349999967,
                    "velocity": 0.3700787401574803,
                    "duration": 0.21246449999999584
                },
                {
                    "name": "C3",
                    "midi": 48,
                    "time": 115.58068799999967,
                    "velocity": 0.47244094488188976,
                    "duration": 0.21246449999999584
                },
                {
                    "name": "A3",
                    "midi": 57,
                    "time": 115.79315249999966,
                    "velocity": 0.4015748031496063,
                    "duration": 0.21246449999999584
                },
                {
                    "name": "F#3",
                    "midi": 54,
                    "time": 116.00561699999966,
                    "velocity": 0.4015748031496063,
                    "duration": 0.21246449999999584
                },
                {
                    "name": "D#3",
                    "midi": 51,
                    "time": 116.21808149999966,
                    "velocity": 0.33858267716535434,
                    "duration": 0.21246449999999584
                },
                {
                    "name": "C3",
                    "midi": 48,
                    "time": 116.43054599999965,
                    "velocity": 0.3779527559055118,
                    "duration": 0.21246449999999584
                },
                {
                    "name": "A3",
                    "midi": 57,
                    "time": 116.64301049999965,
                    "velocity": 0.29133858267716534,
                    "duration": 0.21246449999999584
                },
                {
                    "name": "F#3",
                    "midi": 54,
                    "time": 116.85547499999964,
                    "velocity": 0.2755905511811024,
                    "duration": 0.21246449999999584
                },
                {
                    "name": "D#3",
                    "midi": 51,
                    "time": 117.06793949999964,
                    "velocity": 0.25984251968503935,
                    "duration": 0.21246449999999584
                },
                {
                    "name": "B2",
                    "midi": 47,
                    "time": 117.28040399999963,
                    "velocity": 0.29133858267716534,
                    "duration": 0.21246449999999584
                },
                {
                    "name": "A3",
                    "midi": 57,
                    "time": 117.49286849999963,
                    "velocity": 0.2047244094488189,
                    "duration": 0.21246449999999584
                },
                {
                    "name": "F#3",
                    "midi": 54,
                    "time": 117.70533299999963,
                    "velocity": 0.23622047244094488,
                    "duration": 0.21246449999999584
                },
                {
                    "name": "D#3",
                    "midi": 51,
                    "time": 117.91779749999962,
                    "velocity": 0.2047244094488189,
                    "duration": 0.21246449999999584
                },
                {
                    "name": "B2",
                    "midi": 47,
                    "time": 118.13026199999962,
                    "velocity": 0.2440944881889764,
                    "duration": 0.21246449999999584
                },
                {
                    "name": "A3",
                    "midi": 57,
                    "time": 118.34272649999961,
                    "velocity": 0.2047244094488189,
                    "duration": 0.21246449999999584
                },
                {
                    "name": "G#3",
                    "midi": 56,
                    "time": 118.55519099999961,
                    "velocity": 0.2047244094488189,
                    "duration": 0.21246449999999584
                },
                {
                    "name": "F#3",
                    "midi": 54,
                    "time": 118.7676554999996,
                    "velocity": 0.2047244094488189,
                    "duration": 0.21246449999999584
                },
                {
                    "name": "E2",
                    "midi": 40,
                    "time": 118.9801199999996,
                    "velocity": 0.1968503937007874,
                    "duration": 0.4249290000000059
                },
                {
                    "name": "E3",
                    "midi": 52,
                    "time": 118.9801199999996,
                    "velocity": 0.23622047244094488,
                    "duration": 0.4249290000000059
                },
                {
                    "name": "B1",
                    "midi": 35,
                    "time": 120.67983599999961,
                    "velocity": 0.1968503937007874,
                    "duration": 0.4249290000000059
                },
                {
                    "name": "B2",
                    "midi": 47,
                    "time": 120.67983599999961,
                    "velocity": 0.23622047244094488,
                    "duration": 0.4249290000000059
                },
                {
                    "name": "C#2",
                    "midi": 37,
                    "time": 122.37955199999962,
                    "velocity": 0.1968503937007874,
                    "duration": 0.4249290000000059
                },
                {
                    "name": "C#3",
                    "midi": 49,
                    "time": 122.37955199999962,
                    "velocity": 0.23622047244094488,
                    "duration": 0.4249290000000059
                },
                {
                    "name": "D#3",
                    "midi": 51,
                    "time": 123.22940999999963,
                    "velocity": 0.2204724409448819,
                    "duration": 0.4249290000000059
                },
                {
                    "name": "D#2",
                    "midi": 39,
                    "time": 123.22940999999963,
                    "velocity": 0.18110236220472442,
                    "duration": 0.4249290000000059
                },
                {
                    "name": "B2",
                    "midi": 47,
                    "time": 123.65433899999964,
                    "velocity": 0.2047244094488189,
                    "duration": 0.4249290000000059
                },
                {
                    "name": "B1",
                    "midi": 35,
                    "time": 123.65433899999964,
                    "velocity": 0.1732283464566929,
                    "duration": 0.4249290000000059
                },
                {
                    "name": "E2",
                    "midi": 40,
                    "time": 124.07926799999964,
                    "velocity": 0.2204724409448819,
                    "duration": 0.21246449999999584
                },
                {
                    "name": "E3",
                    "midi": 52,
                    "time": 124.07926799999964,
                    "velocity": 0.2204724409448819,
                    "duration": 0.21246449999999584
                },
                {
                    "name": "G#3",
                    "midi": 56,
                    "time": 124.29173249999964,
                    "velocity": 0.1968503937007874,
                    "duration": 0.21246449999999584
                },
                {
                    "name": "B3",
                    "midi": 59,
                    "time": 124.50419699999964,
                    "velocity": 0.2204724409448819,
                    "duration": 0.21246449999999584
                },
                {
                    "name": "A3",
                    "midi": 57,
                    "time": 124.71666149999963,
                    "velocity": 0.2047244094488189,
                    "duration": 0.21246449999999584
                },
                {
                    "name": "G#3",
                    "midi": 56,
                    "time": 124.92912599999963,
                    "velocity": 0.2204724409448819,
                    "duration": 0.21246449999999584
                },
                {
                    "name": "A3",
                    "midi": 57,
                    "time": 125.14159049999962,
                    "velocity": 0.1968503937007874,
                    "duration": 0.21246449999999584
                },
                {
                    "name": "G#3",
                    "midi": 56,
                    "time": 125.35405499999962,
                    "velocity": 0.23622047244094488,
                    "duration": 0.21246449999999584
                },
                {
                    "name": "F#3",
                    "midi": 54,
                    "time": 125.56651949999961,
                    "velocity": 0.2125984251968504,
                    "duration": 0.21246449999999584
                },
                {
                    "name": "E3",
                    "midi": 52,
                    "time": 125.77898399999961,
                    "velocity": 0.29133858267716534,
                    "duration": 0.21246449999999584
                },
                {
                    "name": "B3",
                    "midi": 59,
                    "time": 125.9914484999996,
                    "velocity": 0.2204724409448819,
                    "duration": 0.21246449999999584
                },
                {
                    "name": "B2",
                    "midi": 47,
                    "time": 126.2039129999996,
                    "velocity": 0.2677165354330709,
                    "duration": 0.21246449999999584
                },
                {
                    "name": "B3",
                    "midi": 59,
                    "time": 126.4163774999996,
                    "velocity": 0.2204724409448819,
                    "duration": 0.21246449999999584
                },
                {
                    "name": "E3",
                    "midi": 52,
                    "time": 126.6288419999996,
                    "velocity": 0.25984251968503935,
                    "duration": 0.21246449999999584
                },
                {
                    "name": "B3",
                    "midi": 59,
                    "time": 126.84130649999959,
                    "velocity": 0.2283464566929134,
                    "duration": 0.21246449999999584
                },
                {
                    "name": "B2",
                    "midi": 47,
                    "time": 127.05377099999959,
                    "velocity": 0.23622047244094488,
                    "duration": 0.21246449999999584
                },
                {
                    "name": "B3",
                    "midi": 59,
                    "time": 127.26623549999958,
                    "velocity": 0.2283464566929134,
                    "duration": 0.21246449999999584
                },
                {
                    "name": "D#3",
                    "midi": 51,
                    "time": 127.47869999999958,
                    "velocity": 0.29133858267716534,
                    "duration": 0.21246449999999584
                },
                {
                    "name": "B3",
                    "midi": 59,
                    "time": 127.69116449999957,
                    "velocity": 0.2204724409448819,
                    "duration": 0.21246449999999584
                },
                {
                    "name": "B2",
                    "midi": 47,
                    "time": 127.90362899999957,
                    "velocity": 0.2283464566929134,
                    "duration": 0.21246450000001005
                },
                {
                    "name": "B3",
                    "midi": 59,
                    "time": 128.11609349999958,
                    "velocity": 0.2125984251968504,
                    "duration": 0.15934837500000754
                },
                {
                    "name": "D#3",
                    "midi": 51,
                    "time": 128.3285579999996,
                    "velocity": 0.2283464566929134,
                    "duration": 0.21246450000001005
                },
                {
                    "name": "B3",
                    "midi": 59,
                    "time": 128.5410224999996,
                    "velocity": 0.2204724409448819,
                    "duration": 0.21246450000001005
                },
                {
                    "name": "F3",
                    "midi": 53,
                    "time": 128.7534869999996,
                    "velocity": 0.2440944881889764,
                    "duration": 0.21246450000001005
                },
                {
                    "name": "B3",
                    "midi": 59,
                    "time": 128.96595149999962,
                    "velocity": 0.25984251968503935,
                    "duration": 0.21246450000001005
                },
                {
                    "name": "F#3",
                    "midi": 54,
                    "time": 129.17841599999963,
                    "velocity": 0.28346456692913385,
                    "duration": 0.21246450000001005
                },
                {
                    "name": "B3",
                    "midi": 59,
                    "time": 129.39088049999964,
                    "velocity": 0.28346456692913385,
                    "duration": 0.21246450000001005
                },
                {
                    "name": "A3",
                    "midi": 57,
                    "time": 129.60334499999965,
                    "velocity": 0.3228346456692913,
                    "duration": 0.21246450000001005
                },
                {
                    "name": "B3",
                    "midi": 59,
                    "time": 129.81580949999966,
                    "velocity": 0.29133858267716534,
                    "duration": 0.21246450000001005
                },
                {
                    "name": "G#3",
                    "midi": 56,
                    "time": 130.02827399999967,
                    "velocity": 0.2992125984251969,
                    "duration": 0.21246450000001005
                },
                {
                    "name": "B3",
                    "midi": 59,
                    "time": 130.24073849999968,
                    "velocity": 0.25196850393700787,
                    "duration": 0.21246450000001005
                },
                {
                    "name": "B2",
                    "midi": 47,
                    "time": 130.4532029999997,
                    "velocity": 0.1968503937007874,
                    "duration": 0.21246450000001005
                },
                {
                    "name": "F#3",
                    "midi": 54,
                    "time": 130.4532029999997,
                    "velocity": 0.1968503937007874,
                    "duration": 0.21246450000001005
                },
                {
                    "name": "A3",
                    "midi": 57,
                    "time": 130.6656674999997,
                    "velocity": 0.2125984251968504,
                    "duration": 0.21246450000001005
                },
                {
                    "name": "E3",
                    "midi": 52,
                    "time": 130.8781319999997,
                    "velocity": 0.2440944881889764,
                    "duration": 0.21246450000001005
                },
                {
                    "name": "G#3",
                    "midi": 56,
                    "time": 130.8781319999997,
                    "velocity": 0.2440944881889764,
                    "duration": 0.21246450000001005
                },
                {
                    "name": "B3",
                    "midi": 59,
                    "time": 131.09059649999972,
                    "velocity": 0.18110236220472442,
                    "duration": 0.21246450000001005
                },
                {
                    "name": "G#3",
                    "midi": 56,
                    "time": 131.30306099999973,
                    "velocity": 0.2440944881889764,
                    "duration": 0.21246450000001005
                },
                {
                    "name": "E3",
                    "midi": 52,
                    "time": 131.51552549999974,
                    "velocity": 0.1968503937007874,
                    "duration": 0.21246450000001005
                },
                {
                    "name": "D#3",
                    "midi": 51,
                    "time": 131.72798999999975,
                    "velocity": 0.2440944881889764,
                    "duration": 0.21246450000001005
                },
                {
                    "name": "B3",
                    "midi": 59,
                    "time": 131.94045449999976,
                    "velocity": 0.2125984251968504,
                    "duration": 0.21246450000001005
                },
                {
                    "name": "F#3",
                    "midi": 54,
                    "time": 132.15291899999977,
                    "velocity": 0.2440944881889764,
                    "duration": 0.21246450000001005
                },
                {
                    "name": "D#3",
                    "midi": 51,
                    "time": 132.36538349999978,
                    "velocity": 0.25196850393700787,
                    "duration": 0.21246450000001005
                },
                {
                    "name": "C#3",
                    "midi": 49,
                    "time": 132.5778479999998,
                    "velocity": 0.2992125984251969,
                    "duration": 0.21246450000001005
                },
                {
                    "name": "A#3",
                    "midi": 58,
                    "time": 132.7903124999998,
                    "velocity": 0.2283464566929134,
                    "duration": 0.21246450000001005
                },
                {
                    "name": "F#3",
                    "midi": 54,
                    "time": 133.0027769999998,
                    "velocity": 0.2440944881889764,
                    "duration": 0.21246450000001005
                },
                {
                    "name": "C#3",
                    "midi": 49,
                    "time": 133.21524149999982,
                    "velocity": 0.2125984251968504,
                    "duration": 0.21246450000001005
                },
                {
                    "name": "F#2",
                    "midi": 42,
                    "time": 133.42770599999983,
                    "velocity": 0.2440944881889764,
                    "duration": 0.21246450000001005
                },
                {
                    "name": "A#3",
                    "midi": 58,
                    "time": 133.64017049999984,
                    "velocity": 0.2047244094488189,
                    "duration": 0.21246450000001005
                },
                {
                    "name": "F#3",
                    "midi": 54,
                    "time": 133.85263499999985,
                    "velocity": 0.2283464566929134,
                    "duration": 0.21246450000001005
                },
                {
                    "name": "C#3",
                    "midi": 49,
                    "time": 134.06509949999986,
                    "velocity": 0.2125984251968504,
                    "duration": 0.21246450000001005
                },
                {
                    "name": "B2",
                    "midi": 47,
                    "time": 134.27756399999987,
                    "velocity": 0.2440944881889764,
                    "duration": 0.21246450000001005
                },
                {
                    "name": "B3",
                    "midi": 59,
                    "time": 134.49002849999988,
                    "velocity": 0.1968503937007874,
                    "duration": 0.21246450000001005
                },
                {
                    "name": "F#3",
                    "midi": 54,
                    "time": 134.7024929999999,
                    "velocity": 0.23622047244094488,
                    "duration": 0.21246450000001005
                },
                {
                    "name": "D#3",
                    "midi": 51,
                    "time": 134.9149574999999,
                    "velocity": 0.2125984251968504,
                    "duration": 0.21246450000001005
                },
                {
                    "name": "B2",
                    "midi": 47,
                    "time": 135.1274219999999,
                    "velocity": 0.29133858267716534,
                    "duration": 0.21246450000001005
                },
                {
                    "name": "B3",
                    "midi": 59,
                    "time": 135.33988649999992,
                    "velocity": 0.23622047244094488,
                    "duration": 0.21246450000001005
                },
                {
                    "name": "C#3",
                    "midi": 49,
                    "time": 135.55235099999993,
                    "velocity": 0.29133858267716534,
                    "duration": 0.21246450000001005
                },
                {
                    "name": "A3",
                    "midi": 57,
                    "time": 135.76481549999994,
                    "velocity": 0.25984251968503935,
                    "duration": 0.21246450000001005
                },
                {
                    "name": "B2",
                    "midi": 47,
                    "time": 135.97727999999995,
                    "velocity": 0.2440944881889764,
                    "duration": 0.21246450000001005
                },
                {
                    "name": "G#3",
                    "midi": 56,
                    "time": 136.18974449999996,
                    "velocity": 0.25196850393700787,
                    "duration": 0.21246450000001005
                },
                {
                    "name": "E3",
                    "midi": 52,
                    "time": 136.40220899999997,
                    "velocity": 0.2992125984251969,
                    "duration": 0.21246450000001005
                },
                {
                    "name": "B2",
                    "midi": 47,
                    "time": 136.61467349999998,
                    "velocity": 0.25984251968503935,
                    "duration": 0.21246450000001005
                },
                {
                    "name": "E2",
                    "midi": 40,
                    "time": 136.827138,
                    "velocity": 0.3543307086614173,
                    "duration": 0.21246450000001005
                },
                {
                    "name": "G#3",
                    "midi": 56,
                    "time": 137.0396025,
                    "velocity": 0.25196850393700787,
                    "duration": 0.21246450000001005
                },
                {
                    "name": "E3",
                    "midi": 52,
                    "time": 137.252067,
                    "velocity": 0.28346456692913385,
                    "duration": 0.21246450000001005
                },
                {
                    "name": "B2",
                    "midi": 47,
                    "time": 137.46453150000002,
                    "velocity": 0.2283464566929134,
                    "duration": 0.21246450000001005
                },
                {
                    "name": "A2",
                    "midi": 45,
                    "time": 137.67699600000003,
                    "velocity": 0.2755905511811024,
                    "duration": 0.21246450000001005
                },
                {
                    "name": "A3",
                    "midi": 57,
                    "time": 137.88946050000004,
                    "velocity": 0.2125984251968504,
                    "duration": 0.21246450000001005
                },
                {
                    "name": "E3",
                    "midi": 52,
                    "time": 138.10192500000005,
                    "velocity": 0.2440944881889764,
                    "duration": 0.21246450000001005
                },
                {
                    "name": "C#3",
                    "midi": 49,
                    "time": 138.31438950000006,
                    "velocity": 0.2125984251968504,
                    "duration": 0.21246450000001005
                },
                {
                    "name": "A2",
                    "midi": 45,
                    "time": 138.52685400000007,
                    "velocity": 0.2440944881889764,
                    "duration": 0.21246450000001005
                },
                {
                    "name": "E3",
                    "midi": 52,
                    "time": 138.73931850000008,
                    "velocity": 0.2283464566929134,
                    "duration": 0.21246450000001005
                },
                {
                    "name": "A2",
                    "midi": 45,
                    "time": 138.9517830000001,
                    "velocity": 0.2677165354330709,
                    "duration": 0.21246450000001005
                },
                {
                    "name": "E3",
                    "midi": 52,
                    "time": 139.1642475000001,
                    "velocity": 0.2992125984251969,
                    "duration": 0.21246450000001005
                },
                {
                    "name": "A2",
                    "midi": 45,
                    "time": 139.3767120000001,
                    "velocity": 0.30708661417322836,
                    "duration": 0.21246450000001005
                },
                {
                    "name": "E3",
                    "midi": 52,
                    "time": 139.58917650000012,
                    "velocity": 0.2755905511811024,
                    "duration": 0.21246450000001005
                },
                {
                    "name": "A2",
                    "midi": 45,
                    "time": 139.80164100000013,
                    "velocity": 0.2992125984251969,
                    "duration": 0.21246450000001005
                },
                {
                    "name": "E3",
                    "midi": 52,
                    "time": 140.01410550000014,
                    "velocity": 0.2755905511811024,
                    "duration": 0.21246450000001005
                },
                {
                    "name": "A2",
                    "midi": 45,
                    "time": 140.22657000000015,
                    "velocity": 0.3464566929133858,
                    "duration": 0.21246450000001005
                },
                {
                    "name": "E3",
                    "midi": 52,
                    "time": 140.43903450000016,
                    "velocity": 0.28346456692913385,
                    "duration": 0.21246450000001005
                },
                {
                    "name": "B2",
                    "midi": 47,
                    "time": 140.65149900000017,
                    "velocity": 0.3464566929133858,
                    "duration": 0.21246450000001005
                },
                {
                    "name": "E3",
                    "midi": 52,
                    "time": 140.86396350000018,
                    "velocity": 0.29133858267716534,
                    "duration": 0.21246450000001005
                },
                {
                    "name": "C#3",
                    "midi": 49,
                    "time": 141.0764280000002,
                    "velocity": 0.4330708661417323,
                    "duration": 0.21246450000001005
                },
                {
                    "name": "E3",
                    "midi": 52,
                    "time": 141.2888925000002,
                    "velocity": 0.3779527559055118,
                    "duration": 0.21246450000001005
                },
                {
                    "name": "C#3",
                    "midi": 49,
                    "time": 141.5013570000002,
                    "velocity": 0.4251968503937008,
                    "duration": 0.21246450000001005
                },
                {
                    "name": "E3",
                    "midi": 52,
                    "time": 141.71382150000022,
                    "velocity": 0.33858267716535434,
                    "duration": 0.21246450000001005
                },
                {
                    "name": "C3",
                    "midi": 48,
                    "time": 141.92628600000023,
                    "velocity": 0.3937007874015748,
                    "duration": 0.21246450000001005
                },
                {
                    "name": "E3",
                    "midi": 52,
                    "time": 142.13875050000024,
                    "velocity": 0.30708661417322836,
                    "duration": 0.21246450000001005
                },
                {
                    "name": "C3",
                    "midi": 48,
                    "time": 142.35121500000025,
                    "velocity": 0.3858267716535433,
                    "duration": 0.21246450000001005
                },
                {
                    "name": "E3",
                    "midi": 52,
                    "time": 142.56367950000026,
                    "velocity": 0.30708661417322836,
                    "duration": 0.21246450000001005
                },
                {
                    "name": "B2",
                    "midi": 47,
                    "time": 142.77614400000027,
                    "velocity": 0.2440944881889764,
                    "duration": 0.21246450000001005
                },
                {
                    "name": "F#3",
                    "midi": 54,
                    "time": 142.98860850000028,
                    "velocity": 0.2125984251968504,
                    "duration": 0.21246450000001005
                },
                {
                    "name": "B2",
                    "midi": 47,
                    "time": 143.2010730000003,
                    "velocity": 0.2440944881889764,
                    "duration": 0.21246450000001005
                },
                {
                    "name": "F#3",
                    "midi": 54,
                    "time": 143.4135375000003,
                    "velocity": 0.2283464566929134,
                    "duration": 0.21246450000001005
                },
                {
                    "name": "A3",
                    "midi": 57,
                    "time": 143.4135375000003,
                    "velocity": 0.2283464566929134,
                    "duration": 0.21246450000001005
                },
                {
                    "name": "B2",
                    "midi": 47,
                    "time": 143.6260020000003,
                    "velocity": 0.2440944881889764,
                    "duration": 0.21246450000001005
                },
                {
                    "name": "F#3",
                    "midi": 54,
                    "time": 143.83846650000032,
                    "velocity": 0.2125984251968504,
                    "duration": 0.21246450000001005
                },
                {
                    "name": "A3",
                    "midi": 57,
                    "time": 143.83846650000032,
                    "velocity": 0.2125984251968504,
                    "duration": 0.21246450000001005
                },
                {
                    "name": "B2",
                    "midi": 47,
                    "time": 144.05093100000033,
                    "velocity": 0.2440944881889764,
                    "duration": 0.21246450000001005
                },
                {
                    "name": "A3",
                    "midi": 57,
                    "time": 144.26339550000034,
                    "velocity": 0.2204724409448819,
                    "duration": 0.21246450000001005
                },
                {
                    "name": "F#3",
                    "midi": 54,
                    "time": 144.26339550000034,
                    "velocity": 0.2204724409448819,
                    "duration": 0.21246450000001005
                },
                {
                    "name": "E3",
                    "midi": 52,
                    "time": 144.47586000000035,
                    "velocity": 0.2440944881889764,
                    "duration": 0.21246450000001005
                },
                {
                    "name": "G#3",
                    "midi": 56,
                    "time": 144.47586000000035,
                    "velocity": 0.2440944881889764,
                    "duration": 0.21246450000001005
                },
                {
                    "name": "B3",
                    "midi": 59,
                    "time": 144.68832450000036,
                    "velocity": 0.18110236220472442,
                    "duration": 0.21246450000001005
                },
                {
                    "name": "G#3",
                    "midi": 56,
                    "time": 144.90078900000037,
                    "velocity": 0.2440944881889764,
                    "duration": 0.21246450000001005
                },
                {
                    "name": "E3",
                    "midi": 52,
                    "time": 145.11325350000038,
                    "velocity": 0.1968503937007874,
                    "duration": 0.21246450000001005
                },
                {
                    "name": "D#3",
                    "midi": 51,
                    "time": 145.3257180000004,
                    "velocity": 0.2440944881889764,
                    "duration": 0.21246450000001005
                },
                {
                    "name": "B3",
                    "midi": 59,
                    "time": 145.5381825000004,
                    "velocity": 0.2125984251968504,
                    "duration": 0.21246450000001005
                },
                {
                    "name": "F#3",
                    "midi": 54,
                    "time": 145.7506470000004,
                    "velocity": 0.2440944881889764,
                    "duration": 0.21246450000001005
                },
                {
                    "name": "D#3",
                    "midi": 51,
                    "time": 145.96311150000042,
                    "velocity": 0.25196850393700787,
                    "duration": 0.21246450000001005
                },
                {
                    "name": "C#3",
                    "midi": 49,
                    "time": 146.17557600000043,
                    "velocity": 0.2992125984251969,
                    "duration": 0.21246450000001005
                },
                {
                    "name": "A#3",
                    "midi": 58,
                    "time": 146.38804050000044,
                    "velocity": 0.2283464566929134,
                    "duration": 0.21246450000001005
                },
                {
                    "name": "F#3",
                    "midi": 54,
                    "time": 146.60050500000045,
                    "velocity": 0.2440944881889764,
                    "duration": 0.21246450000001005
                },
                {
                    "name": "C#3",
                    "midi": 49,
                    "time": 146.81296950000046,
                    "velocity": 0.2125984251968504,
                    "duration": 0.21246450000001005
                },
                {
                    "name": "F#2",
                    "midi": 42,
                    "time": 147.02543400000047,
                    "velocity": 0.2440944881889764,
                    "duration": 0.21246450000001005
                },
                {
                    "name": "A#3",
                    "midi": 58,
                    "time": 147.23789850000048,
                    "velocity": 0.2047244094488189,
                    "duration": 0.21246450000001005
                },
                {
                    "name": "F#3",
                    "midi": 54,
                    "time": 147.4503630000005,
                    "velocity": 0.2283464566929134,
                    "duration": 0.21246450000001005
                },
                {
                    "name": "C#3",
                    "midi": 49,
                    "time": 147.6628275000005,
                    "velocity": 0.2125984251968504,
                    "duration": 0.21246450000001005
                },
                {
                    "name": "B2",
                    "midi": 47,
                    "time": 147.8752920000005,
                    "velocity": 0.2440944881889764,
                    "duration": 0.21246450000001005
                },
                {
                    "name": "B3",
                    "midi": 59,
                    "time": 148.08775650000052,
                    "velocity": 0.1968503937007874,
                    "duration": 0.21246450000001005
                },
                {
                    "name": "F#3",
                    "midi": 54,
                    "time": 148.30022100000053,
                    "velocity": 0.23622047244094488,
                    "duration": 0.21246450000001005
                },
                {
                    "name": "D#3",
                    "midi": 51,
                    "time": 148.51268550000054,
                    "velocity": 0.2125984251968504,
                    "duration": 0.21246450000001005
                },
                {
                    "name": "B2",
                    "midi": 47,
                    "time": 148.72515000000055,
                    "velocity": 0.29133858267716534,
                    "duration": 0.21246450000001005
                },
                {
                    "name": "B3",
                    "midi": 59,
                    "time": 148.93761450000056,
                    "velocity": 0.23622047244094488,
                    "duration": 0.21246450000001005
                },
                {
                    "name": "C#3",
                    "midi": 49,
                    "time": 149.15007900000057,
                    "velocity": 0.29133858267716534,
                    "duration": 0.21246450000001005
                },
                {
                    "name": "A3",
                    "midi": 57,
                    "time": 149.36254350000058,
                    "velocity": 0.25984251968503935,
                    "duration": 0.21246450000001005
                },
                {
                    "name": "B2",
                    "midi": 47,
                    "time": 149.5750080000006,
                    "velocity": 0.2440944881889764,
                    "duration": 0.21246450000001005
                },
                {
                    "name": "G#3",
                    "midi": 56,
                    "time": 149.7874725000006,
                    "velocity": 0.25984251968503935,
                    "duration": 0.21246450000001005
                },
                {
                    "name": "E3",
                    "midi": 52,
                    "time": 149.9999370000006,
                    "velocity": 0.29133858267716534,
                    "duration": 0.21246450000001005
                },
                {
                    "name": "B2",
                    "midi": 47,
                    "time": 150.21240150000062,
                    "velocity": 0.29133858267716534,
                    "duration": 0.21246450000001005
                },
                {
                    "name": "E2",
                    "midi": 40,
                    "time": 150.42486600000063,
                    "velocity": 0.33070866141732286,
                    "duration": 0.21246450000001005
                },
                {
                    "name": "G#3",
                    "midi": 56,
                    "time": 150.63733050000064,
                    "velocity": 0.25196850393700787,
                    "duration": 0.21246450000001005
                },
                {
                    "name": "E3",
                    "midi": 52,
                    "time": 150.84979500000065,
                    "velocity": 0.28346456692913385,
                    "duration": 0.21246450000001005
                },
                {
                    "name": "B2",
                    "midi": 47,
                    "time": 151.06225950000066,
                    "velocity": 0.2283464566929134,
                    "duration": 0.21246450000001005
                },
                {
                    "name": "A2",
                    "midi": 45,
                    "time": 151.27472400000067,
                    "velocity": 0.2755905511811024,
                    "duration": 0.21246450000001005
                },
                {
                    "name": "A3",
                    "midi": 57,
                    "time": 151.48718850000068,
                    "velocity": 0.2125984251968504,
                    "duration": 0.21246450000001005
                },
                {
                    "name": "E3",
                    "midi": 52,
                    "time": 151.6996530000007,
                    "velocity": 0.2440944881889764,
                    "duration": 0.21246450000001005
                },
                {
                    "name": "C#3",
                    "midi": 49,
                    "time": 151.9121175000007,
                    "velocity": 0.2125984251968504,
                    "duration": 0.21246450000001005
                },
                {
                    "name": "A2",
                    "midi": 45,
                    "time": 152.12458200000071,
                    "velocity": 0.2440944881889764,
                    "duration": 0.21246450000001005
                },
                {
                    "name": "E3",
                    "midi": 52,
                    "time": 152.33704650000072,
                    "velocity": 0.2283464566929134,
                    "duration": 0.21246450000001005
                },
                {
                    "name": "A2",
                    "midi": 45,
                    "time": 152.54951100000073,
                    "velocity": 0.2755905511811024,
                    "duration": 0.21246450000001005
                },
                {
                    "name": "E3",
                    "midi": 52,
                    "time": 152.76197550000074,
                    "velocity": 0.31496062992125984,
                    "duration": 0.21246450000001005
                },
                {
                    "name": "A2",
                    "midi": 45,
                    "time": 152.97444000000075,
                    "velocity": 0.31496062992125984,
                    "duration": 0.21246450000001005
                },
                {
                    "name": "E3",
                    "midi": 52,
                    "time": 153.18690450000076,
                    "velocity": 0.28346456692913385,
                    "duration": 0.21246450000001005
                },
                {
                    "name": "A2",
                    "midi": 45,
                    "time": 153.39936900000077,
                    "velocity": 0.31496062992125984,
                    "duration": 0.21246450000001005
                },
                {
                    "name": "E3",
                    "midi": 52,
                    "time": 153.61183350000078,
                    "velocity": 0.29133858267716534,
                    "duration": 0.21246450000001005
                },
                {
                    "name": "C#3",
                    "midi": 49,
                    "time": 153.8242980000008,
                    "velocity": 0.3543307086614173,
                    "duration": 0.21246450000001005
                },
                {
                    "name": "A2",
                    "midi": 45,
                    "time": 153.8242980000008,
                    "velocity": 0.2992125984251969,
                    "duration": 0.21246450000001005
                },
                {
                    "name": "E3",
                    "midi": 52,
                    "time": 154.0367625000008,
                    "velocity": 0.29133858267716534,
                    "duration": 0.21246450000001005
                },
                {
                    "name": "E3",
                    "midi": 52,
                    "time": 154.24922700000081,
                    "velocity": 0.36220472440944884,
                    "duration": 0.21246450000001005
                },
                {
                    "name": "B2",
                    "midi": 47,
                    "time": 154.24922700000081,
                    "velocity": 0.30708661417322836,
                    "duration": 0.21246450000001005
                },
                {
                    "name": "G#3",
                    "midi": 56,
                    "time": 154.46169150000082,
                    "velocity": 0.2992125984251969,
                    "duration": 0.21246450000001005
                },
                {
                    "name": "E3",
                    "midi": 52,
                    "time": 154.67415600000083,
                    "velocity": 0.44881889763779526,
                    "duration": 0.21246450000001005
                },
                {
                    "name": "C#3",
                    "midi": 49,
                    "time": 154.67415600000083,
                    "velocity": 0.3858267716535433,
                    "duration": 0.21246450000001005
                },
                {
                    "name": "A#3",
                    "midi": 58,
                    "time": 154.88662050000084,
                    "velocity": 0.3937007874015748,
                    "duration": 0.21246450000001005
                },
                {
                    "name": "E3",
                    "midi": 52,
                    "time": 155.09908500000085,
                    "velocity": 0.4409448818897638,
                    "duration": 0.21246450000001005
                },
                {
                    "name": "C#3",
                    "midi": 49,
                    "time": 155.09908500000085,
                    "velocity": 0.3700787401574803,
                    "duration": 0.21246450000001005
                },
                {
                    "name": "A#3",
                    "midi": 58,
                    "time": 155.31154950000087,
                    "velocity": 0.3543307086614173,
                    "duration": 0.21246450000001005
                },
                {
                    "name": "E3",
                    "midi": 52,
                    "time": 155.52401400000088,
                    "velocity": 0.4094488188976378,
                    "duration": 0.21246450000001005
                },
                {
                    "name": "C3",
                    "midi": 48,
                    "time": 155.52401400000088,
                    "velocity": 0.3464566929133858,
                    "duration": 0.21246450000001005
                },
                {
                    "name": "A3",
                    "midi": 57,
                    "time": 155.73647850000089,
                    "velocity": 0.31496062992125984,
                    "duration": 0.21246450000001005
                },
                {
                    "name": "E3",
                    "midi": 52,
                    "time": 155.9489430000009,
                    "velocity": 0.4015748031496063,
                    "duration": 0.21246450000001005
                },
                {
                    "name": "C3",
                    "midi": 48,
                    "time": 155.9489430000009,
                    "velocity": 0.33858267716535434,
                    "duration": 0.21246450000001005
                },
                {
                    "name": "A3",
                    "midi": 57,
                    "time": 156.1614075000009,
                    "velocity": 0.3228346456692913,
                    "duration": 0.21246450000001005
                },
                {
                    "name": "D#3",
                    "midi": 51,
                    "time": 156.37387200000092,
                    "velocity": 0.2440944881889764,
                    "duration": 0.21246450000001005
                },
                {
                    "name": "B2",
                    "midi": 47,
                    "time": 156.37387200000092,
                    "velocity": 0.2047244094488189,
                    "duration": 0.21246450000001005
                },
                {
                    "name": "A3",
                    "midi": 57,
                    "time": 156.58633650000093,
                    "velocity": 0.2125984251968504,
                    "duration": 0.21246450000001005
                },
                {
                    "name": "D#3",
                    "midi": 51,
                    "time": 156.79880100000094,
                    "velocity": 0.2440944881889764,
                    "duration": 0.21246450000001005
                },
                {
                    "name": "B2",
                    "midi": 47,
                    "time": 156.79880100000094,
                    "velocity": 0.2047244094488189,
                    "duration": 0.21246450000001005
                },
                {
                    "name": "A3",
                    "midi": 57,
                    "time": 157.01126550000095,
                    "velocity": 0.2283464566929134,
                    "duration": 0.21246450000001005
                },
                {
                    "name": "D#3",
                    "midi": 51,
                    "time": 157.22373000000096,
                    "velocity": 0.2440944881889764,
                    "duration": 0.21246450000001005
                },
                {
                    "name": "B2",
                    "midi": 47,
                    "time": 157.22373000000096,
                    "velocity": 0.2047244094488189,
                    "duration": 0.21246450000001005
                },
                {
                    "name": "A3",
                    "midi": 57,
                    "time": 157.43619450000097,
                    "velocity": 0.2125984251968504,
                    "duration": 0.21246450000001005
                },
                {
                    "name": "D#3",
                    "midi": 51,
                    "time": 157.64865900000098,
                    "velocity": 0.2440944881889764,
                    "duration": 0.21246450000001005
                },
                {
                    "name": "B2",
                    "midi": 47,
                    "time": 157.64865900000098,
                    "velocity": 0.2047244094488189,
                    "duration": 0.21246450000001005
                },
                {
                    "name": "A3",
                    "midi": 57,
                    "time": 157.86112350000099,
                    "velocity": 0.2204724409448819,
                    "duration": 0.21246450000001005
                },
                {
                    "name": "E3",
                    "midi": 52,
                    "time": 158.073588000001,
                    "velocity": 0.2440944881889764,
                    "duration": 0.21246450000001005
                },
                {
                    "name": "G#3",
                    "midi": 56,
                    "time": 158.073588000001,
                    "velocity": 0.2440944881889764,
                    "duration": 0.21246450000001005
                },
                {
                    "name": "E3",
                    "midi": 52,
                    "time": 158.286052500001,
                    "velocity": 0.2440944881889764,
                    "duration": 0.21246450000001005
                },
                {
                    "name": "D#3",
                    "midi": 51,
                    "time": 158.49851700000102,
                    "velocity": 0.2440944881889764,
                    "duration": 0.21246450000001005
                },
                {
                    "name": "C#3",
                    "midi": 49,
                    "time": 158.71098150000103,
                    "velocity": 0.2440944881889764,
                    "duration": 0.21246450000001005
                },
                {
                    "name": "B2",
                    "midi": 47,
                    "time": 158.92344600000104,
                    "velocity": 0.2440944881889764,
                    "duration": 0.21246450000001005
                },
                {
                    "name": "A2",
                    "midi": 45,
                    "time": 159.13591050000105,
                    "velocity": 0.23622047244094488,
                    "duration": 0.21246450000001005
                },
                {
                    "name": "G#2",
                    "midi": 44,
                    "time": 159.34837500000106,
                    "velocity": 0.1968503937007874,
                    "duration": 0.21246450000001005
                },
                {
                    "name": "F#2",
                    "midi": 42,
                    "time": 159.56083950000107,
                    "velocity": 0.1968503937007874,
                    "duration": 0.21246450000001005
                },
                {
                    "name": "E2",
                    "midi": 40,
                    "time": 159.77330400000108,
                    "velocity": 0.1968503937007874,
                    "duration": 0.4249289999999917
                },
                {
                    "name": "B1",
                    "midi": 35,
                    "time": 161.47302000000107,
                    "velocity": 0.1968503937007874,
                    "duration": 0.4249289999999917
                },
                {
                    "name": "C#2",
                    "midi": 37,
                    "time": 163.17273600000107,
                    "velocity": 0.1968503937007874,
                    "duration": 0.4249289999999917
                },
                {
                    "name": "D#2",
                    "midi": 39,
                    "time": 164.02259400000105,
                    "velocity": 0.18110236220472442,
                    "duration": 0.4249289999999917
                },
                {
                    "name": "B1",
                    "midi": 35,
                    "time": 164.44752300000104,
                    "velocity": 0.1732283464566929,
                    "duration": 0.4249289999999917
                },
                {
                    "name": "E2",
                    "midi": 40,
                    "time": 164.87245200000103,
                    "velocity": 0.2204724409448819,
                    "duration": 0.4249289999999917
                },
                {
                    "name": "E4",
                    "midi": 64,
                    "time": 165.29738100000102,
                    "velocity": 0.2204724409448819,
                    "duration": 0.21246450000001005
                },
                {
                    "name": "B3",
                    "midi": 59,
                    "time": 165.50984550000103,
                    "velocity": 0.1732283464566929,
                    "duration": 0.21246450000001005
                },
                {
                    "name": "E4",
                    "midi": 64,
                    "time": 165.72231000000104,
                    "velocity": 0.2204724409448819,
                    "duration": 0.21246450000001005
                },
                {
                    "name": "B3",
                    "midi": 59,
                    "time": 165.93477450000105,
                    "velocity": 0.1889763779527559,
                    "duration": 0.21246450000001005
                },
                {
                    "name": "E4",
                    "midi": 64,
                    "time": 166.14723900000106,
                    "velocity": 0.2204724409448819,
                    "duration": 0.21246450000001005
                },
                {
                    "name": "B3",
                    "midi": 59,
                    "time": 166.35970350000107,
                    "velocity": 0.1968503937007874,
                    "duration": 0.21246450000001005
                },
                {
                    "name": "E4",
                    "midi": 64,
                    "time": 166.57216800000108,
                    "velocity": 0.23622047244094488,
                    "duration": 0.21246450000001005
                },
                {
                    "name": "B3",
                    "midi": 59,
                    "time": 166.7846325000011,
                    "velocity": 0.2283464566929134,
                    "duration": 0.21246450000001005
                },
                {
                    "name": "E4",
                    "midi": 64,
                    "time": 166.9970970000011,
                    "velocity": 0.25196850393700787,
                    "duration": 0.21246450000001005
                },
                {
                    "name": "B3",
                    "midi": 59,
                    "time": 167.20956150000112,
                    "velocity": 0.2440944881889764,
                    "duration": 0.21246450000001005
                },
                {
                    "name": "G#4",
                    "midi": 68,
                    "time": 167.42202600000113,
                    "velocity": 0.2755905511811024,
                    "duration": 0.21246450000001005
                },
                {
                    "name": "B3",
                    "midi": 59,
                    "time": 167.63449050000114,
                    "velocity": 0.25196850393700787,
                    "duration": 0.21246450000001005
                },
                {
                    "name": "F#4",
                    "midi": 66,
                    "time": 167.84695500000115,
                    "velocity": 0.30708661417322836,
                    "duration": 0.21246450000001005
                },
                {
                    "name": "B3",
                    "midi": 59,
                    "time": 168.05941950000116,
                    "velocity": 0.28346456692913385,
                    "duration": 0.21246450000001005
                },
                {
                    "name": "E4",
                    "midi": 64,
                    "time": 168.27188400000117,
                    "velocity": 0.3543307086614173,
                    "duration": 0.21246450000001005
                },
                {
                    "name": "B3",
                    "midi": 59,
                    "time": 168.48434850000118,
                    "velocity": 0.29133858267716534,
                    "duration": 0.21246450000001005
                },
                {
                    "name": "D#4",
                    "midi": 63,
                    "time": 168.69681300000119,
                    "velocity": 0.33858267716535434,
                    "duration": 0.21246450000001005
                },
                {
                    "name": "B3",
                    "midi": 59,
                    "time": 168.9092775000012,
                    "velocity": 0.29133858267716534,
                    "duration": 0.21246450000001005
                },
                {
                    "name": "D#4",
                    "midi": 63,
                    "time": 169.1217420000012,
                    "velocity": 0.36220472440944884,
                    "duration": 0.21246450000001005
                },
                {
                    "name": "B3",
                    "midi": 59,
                    "time": 169.33420650000122,
                    "velocity": 0.30708661417322836,
                    "duration": 0.21246450000001005
                },
                {
                    "name": "F4",
                    "midi": 65,
                    "time": 169.54667100000123,
                    "velocity": 0.3858267716535433,
                    "duration": 0.21246450000001005
                },
                {
                    "name": "B3",
                    "midi": 59,
                    "time": 169.75913550000124,
                    "velocity": 0.3464566929133858,
                    "duration": 0.21246450000001005
                },
                {
                    "name": "F#4",
                    "midi": 66,
                    "time": 169.97160000000125,
                    "velocity": 0.4566929133858268,
                    "duration": 0.21246450000001005
                },
                {
                    "name": "B3",
                    "midi": 59,
                    "time": 170.18406450000126,
                    "velocity": 0.3779527559055118,
                    "duration": 0.21246450000001005
                },
                {
                    "name": "A4",
                    "midi": 69,
                    "time": 170.39652900000127,
                    "velocity": 0.41732283464566927,
                    "duration": 0.21246450000001005
                },
                {
                    "name": "B3",
                    "midi": 59,
                    "time": 170.60899350000128,
                    "velocity": 0.3700787401574803,
                    "duration": 0.21246450000001005
                },
                {
                    "name": "G#4",
                    "midi": 68,
                    "time": 170.8214580000013,
                    "velocity": 0.44881889763779526,
                    "duration": 0.21246450000001005
                },
                {
                    "name": "B3",
                    "midi": 59,
                    "time": 171.0339225000013,
                    "velocity": 0.3464566929133858,
                    "duration": 0.21246450000001005
                },
                {
                    "name": "F#4",
                    "midi": 66,
                    "time": 171.2463870000013,
                    "velocity": 0.4251968503937008,
                    "duration": 0.21246450000001005
                },
                {
                    "name": "B3",
                    "midi": 59,
                    "time": 171.45885150000132,
                    "velocity": 0.36220472440944884,
                    "duration": 0.21246450000001005
                },
                {
                    "name": "E4",
                    "midi": 64,
                    "time": 171.67131600000133,
                    "velocity": 0.4645669291338583,
                    "duration": 0.21246450000001005
                },
                {
                    "name": "B3",
                    "midi": 59,
                    "time": 171.88378050000134,
                    "velocity": 0.3858267716535433,
                    "duration": 0.21246450000001005
                },
                {
                    "name": "G#3",
                    "midi": 56,
                    "time": 172.09624500000135,
                    "velocity": 0.4566929133858268,
                    "duration": 0.21246450000001005
                },
                {
                    "name": "B3",
                    "midi": 59,
                    "time": 172.30870950000136,
                    "velocity": 0.3937007874015748,
                    "duration": 0.21246450000001005
                },
                {
                    "name": "E3",
                    "midi": 52,
                    "time": 172.52117400000137,
                    "velocity": 0.3543307086614173,
                    "duration": 0.21246450000001005
                },
                {
                    "name": "B3",
                    "midi": 59,
                    "time": 172.73363850000138,
                    "velocity": 0.2440944881889764,
                    "duration": 0.21246450000001005
                },
                {
                    "name": "B2",
                    "midi": 47,
                    "time": 172.9461030000014,
                    "velocity": 0.2440944881889764,
                    "duration": 0.21246450000001005
                },
                {
                    "name": "B3",
                    "midi": 59,
                    "time": 173.1585675000014,
                    "velocity": 0.2440944881889764,
                    "duration": 0.21246450000001005
                },
                {
                    "name": "F#3",
                    "midi": 54,
                    "time": 173.3710320000014,
                    "velocity": 0.31496062992125984,
                    "duration": 0.21246450000001005
                },
                {
                    "name": "B3",
                    "midi": 59,
                    "time": 173.58349650000142,
                    "velocity": 0.25984251968503935,
                    "duration": 0.21246450000001005
                },
                {
                    "name": "A3",
                    "midi": 57,
                    "time": 173.79596100000143,
                    "velocity": 0.25984251968503935,
                    "duration": 0.21246450000001005
                },
                {
                    "name": "B3",
                    "midi": 59,
                    "time": 174.00842550000144,
                    "velocity": 0.25984251968503935,
                    "duration": 0.21246450000001005
                },
                {
                    "name": "G#3",
                    "midi": 56,
                    "time": 174.22089000000145,
                    "velocity": 0.29133858267716534,
                    "duration": 0.21246450000001005
                },
                {
                    "name": "B3",
                    "midi": 59,
                    "time": 174.43335450000146,
                    "velocity": 0.25984251968503935,
                    "duration": 0.21246450000001005
                },
                {
                    "name": "F#3",
                    "midi": 54,
                    "time": 174.64581900000147,
                    "velocity": 0.25984251968503935,
                    "duration": 0.21246450000001005
                },
                {
                    "name": "B3",
                    "midi": 59,
                    "time": 174.85828350000148,
                    "velocity": 0.25984251968503935,
                    "duration": 0.21246450000001005
                },
                {
                    "name": "E3",
                    "midi": 52,
                    "time": 175.0707480000015,
                    "velocity": 0.31496062992125984,
                    "duration": 0.21246450000001005
                },
                {
                    "name": "B3",
                    "midi": 59,
                    "time": 175.2832125000015,
                    "velocity": 0.2755905511811024,
                    "duration": 0.21246450000001005
                },
                {
                    "name": "E4",
                    "midi": 64,
                    "time": 175.4956770000015,
                    "velocity": 0.2204724409448819,
                    "duration": 0.21246450000001005
                },
                {
                    "name": "B3",
                    "midi": 59,
                    "time": 175.70814150000152,
                    "velocity": 0.2204724409448819,
                    "duration": 0.21246450000001005
                },
                {
                    "name": "E4",
                    "midi": 64,
                    "time": 175.92060600000153,
                    "velocity": 0.2440944881889764,
                    "duration": 0.21246450000001005
                },
                {
                    "name": "B3",
                    "midi": 59,
                    "time": 176.13307050000154,
                    "velocity": 0.2204724409448819,
                    "duration": 0.21246450000001005
                },
                {
                    "name": "E4",
                    "midi": 64,
                    "time": 176.34553500000155,
                    "velocity": 0.31496062992125984,
                    "duration": 0.21246450000001005
                },
                {
                    "name": "B3",
                    "midi": 59,
                    "time": 176.55799950000156,
                    "velocity": 0.3858267716535433,
                    "duration": 0.21246450000001005
                },
                {
                    "name": "F#4",
                    "midi": 66,
                    "time": 176.77046400000157,
                    "velocity": 0.3700787401574803,
                    "duration": 0.21246450000001005
                },
                {
                    "name": "B3",
                    "midi": 59,
                    "time": 176.98292850000158,
                    "velocity": 0.3779527559055118,
                    "duration": 0.21246450000001005
                },
                {
                    "name": "A4",
                    "midi": 69,
                    "time": 177.1953930000016,
                    "velocity": 0.3543307086614173,
                    "duration": 0.21246450000001005
                },
                {
                    "name": "B3",
                    "midi": 59,
                    "time": 177.4078575000016,
                    "velocity": 0.3858267716535433,
                    "duration": 0.21246450000001005
                },
                {
                    "name": "G4",
                    "midi": 67,
                    "time": 177.6203220000016,
                    "velocity": 0.4330708661417323,
                    "duration": 0.21246450000001005
                },
                {
                    "name": "B3",
                    "midi": 59,
                    "time": 177.83278650000162,
                    "velocity": 0.4094488188976378,
                    "duration": 0.21246450000001005
                },
                {
                    "name": "F#4",
                    "midi": 66,
                    "time": 178.04525100000163,
                    "velocity": 0.5590551181102362,
                    "duration": 0.21246450000001005
                },
                {
                    "name": "B3",
                    "midi": 59,
                    "time": 178.25771550000164,
                    "velocity": 0.5118110236220472,
                    "duration": 0.21246450000001005
                },
                {
                    "name": "E4",
                    "midi": 64,
                    "time": 178.47018000000165,
                    "velocity": 0.6299212598425197,
                    "duration": 0.21246450000001005
                },
                {
                    "name": "B3",
                    "midi": 59,
                    "time": 178.68264450000166,
                    "velocity": 0.5118110236220472,
                    "duration": 0.21246450000001005
                },
                {
                    "name": "G3",
                    "midi": 55,
                    "time": 178.89510900000167,
                    "velocity": 0.5354330708661418,
                    "duration": 0.21246450000001005
                },
                {
                    "name": "B3",
                    "midi": 59,
                    "time": 179.10757350000168,
                    "velocity": 0.44881889763779526,
                    "duration": 0.21246450000001005
                },
                {
                    "name": "E3",
                    "midi": 52,
                    "time": 179.3200380000017,
                    "velocity": 0.3464566929133858,
                    "duration": 0.21246450000001005
                },
                {
                    "name": "B3",
                    "midi": 59,
                    "time": 179.5325025000017,
                    "velocity": 0.3464566929133858,
                    "duration": 0.21246450000001005
                },
                {
                    "name": "B2",
                    "midi": 47,
                    "time": 179.7449670000017,
                    "velocity": 0.2992125984251969,
                    "duration": 0.21246450000001005
                },
                {
                    "name": "B3",
                    "midi": 59,
                    "time": 179.95743150000172,
                    "velocity": 0.2992125984251969,
                    "duration": 0.21246450000001005
                },
                {
                    "name": "F#3",
                    "midi": 54,
                    "time": 180.16989600000173,
                    "velocity": 0.2755905511811024,
                    "duration": 0.21246450000001005
                },
                {
                    "name": "B3",
                    "midi": 59,
                    "time": 180.38236050000174,
                    "velocity": 0.28346456692913385,
                    "duration": 0.21246450000001005
                },
                {
                    "name": "A3",
                    "midi": 57,
                    "time": 180.59482500000175,
                    "velocity": 0.28346456692913385,
                    "duration": 0.21246450000001005
                },
                {
                    "name": "B3",
                    "midi": 59,
                    "time": 180.80728950000176,
                    "velocity": 0.29133858267716534,
                    "duration": 0.21246450000001005
                },
                {
                    "name": "G3",
                    "midi": 55,
                    "time": 181.01975400000177,
                    "velocity": 0.30708661417322836,
                    "duration": 0.21246450000001005
                },
                {
                    "name": "B3",
                    "midi": 59,
                    "time": 181.23221850000178,
                    "velocity": 0.30708661417322836,
                    "duration": 0.21246450000001005
                },
                {
                    "name": "F#3",
                    "midi": 54,
                    "time": 181.4446830000018,
                    "velocity": 0.31496062992125984,
                    "duration": 0.21246450000001005
                },
                {
                    "name": "B3",
                    "midi": 59,
                    "time": 181.6571475000018,
                    "velocity": 0.33070866141732286,
                    "duration": 0.21246450000001005
                },
                {
                    "name": "E3",
                    "midi": 52,
                    "time": 181.8696120000018,
                    "velocity": 0.33858267716535434,
                    "duration": 0.21246450000001005
                },
                {
                    "name": "E4",
                    "midi": 64,
                    "time": 182.08207650000182,
                    "velocity": 0.3228346456692913,
                    "duration": 0.21246450000001005
                },
                {
                    "name": "D3",
                    "midi": 50,
                    "time": 182.29454100000183,
                    "velocity": 0.3464566929133858,
                    "duration": 0.21246450000001005
                },
                {
                    "name": "D4",
                    "midi": 62,
                    "time": 182.50700550000184,
                    "velocity": 0.33070866141732286,
                    "duration": 0.21246450000001005
                },
                {
                    "name": "C3",
                    "midi": 48,
                    "time": 182.71947000000185,
                    "velocity": 0.3858267716535433,
                    "duration": 0.21246450000001005
                },
                {
                    "name": "C4",
                    "midi": 60,
                    "time": 182.93193450000186,
                    "velocity": 0.3543307086614173,
                    "duration": 0.21246450000001005
                },
                {
                    "name": "B2",
                    "midi": 47,
                    "time": 183.14439900000187,
                    "velocity": 0.4015748031496063,
                    "duration": 0.21246450000001005
                },
                {
                    "name": "B3",
                    "midi": 59,
                    "time": 183.35686350000188,
                    "velocity": 0.3700787401574803,
                    "duration": 0.21246450000001005
                },
                {
                    "name": "A2",
                    "midi": 45,
                    "time": 183.5693280000019,
                    "velocity": 0.4094488188976378,
                    "duration": 0.21246450000001005
                },
                {
                    "name": "A3",
                    "midi": 57,
                    "time": 183.7817925000019,
                    "velocity": 0.4015748031496063,
                    "duration": 0.21246450000001005
                },
                {
                    "name": "G2",
                    "midi": 43,
                    "time": 183.9942570000019,
                    "velocity": 0.44881889763779526,
                    "duration": 0.21246450000001005
                },
                {
                    "name": "G3",
                    "midi": 55,
                    "time": 184.20672150000192,
                    "velocity": 0.41732283464566927,
                    "duration": 0.21246450000001005
                },
                {
                    "name": "F2",
                    "midi": 41,
                    "time": 184.41918600000193,
                    "velocity": 0.44881889763779526,
                    "duration": 0.21246450000001005
                },
                {
                    "name": "F3",
                    "midi": 53,
                    "time": 184.63165050000194,
                    "velocity": 0.4330708661417323,
                    "duration": 0.21246450000001005
                },
                {
                    "name": "E2",
                    "midi": 40,
                    "time": 184.84411500000195,
                    "velocity": 0.49606299212598426,
                    "duration": 0.21246450000001005
                },
                {
                    "name": "E3",
                    "midi": 52,
                    "time": 185.05657950000196,
                    "velocity": 0.4645669291338583,
                    "duration": 0.21246450000001005
                },
                {
                    "name": "D2",
                    "midi": 38,
                    "time": 185.26904400000197,
                    "velocity": 0.5433070866141733,
                    "duration": 0.21246450000001005
                },
                {
                    "name": "D3",
                    "midi": 50,
                    "time": 185.48150850000198,
                    "velocity": 0.5275590551181102,
                    "duration": 0.21246450000001005
                },
                {
                    "name": "C2",
                    "midi": 36,
                    "time": 185.693973000002,
                    "velocity": 0.5826771653543307,
                    "duration": 0.21246450000001005
                },
                {
                    "name": "C3",
                    "midi": 48,
                    "time": 185.906437500002,
                    "velocity": 0.6062992125984252,
                    "duration": 0.21246450000001005
                },
                {
                    "name": "B1",
                    "midi": 35,
                    "time": 186.118902000002,
                    "velocity": 0.6377952755905512,
                    "duration": 0.21246450000001005
                },
                {
                    "name": "B2",
                    "midi": 47,
                    "time": 186.33136650000202,
                    "velocity": 0.5984251968503937,
                    "duration": 0.21246450000001005
                },
                {
                    "name": "A1",
                    "midi": 33,
                    "time": 186.54383100000203,
                    "velocity": 0.6535433070866141,
                    "duration": 0.21246450000001005
                },
                {
                    "name": "A2",
                    "midi": 45,
                    "time": 186.75629550000204,
                    "velocity": 0.6299212598425197,
                    "duration": 0.21246450000001005
                },
                {
                    "name": "G1",
                    "midi": 31,
                    "time": 186.96876000000205,
                    "velocity": 0.6771653543307087,
                    "duration": 0.21246450000001005
                },
                {
                    "name": "G2",
                    "midi": 43,
                    "time": 187.18122450000206,
                    "velocity": 0.6299212598425197,
                    "duration": 0.21246450000001005
                },
                {
                    "name": "B1",
                    "midi": 35,
                    "time": 187.39368900000207,
                    "velocity": 0.6771653543307087,
                    "duration": 0.21246450000001005
                },
                {
                    "name": "B2",
                    "midi": 47,
                    "time": 187.60615350000208,
                    "velocity": 0.6299212598425197,
                    "duration": 0.21246450000001005
                },
                {
                    "name": "D2",
                    "midi": 38,
                    "time": 187.8186180000021,
                    "velocity": 0.6771653543307087,
                    "duration": 0.21246450000001005
                },
                {
                    "name": "D3",
                    "midi": 50,
                    "time": 188.0310825000021,
                    "velocity": 0.6377952755905512,
                    "duration": 0.21246450000001005
                },
                {
                    "name": "F#2",
                    "midi": 42,
                    "time": 188.2435470000021,
                    "velocity": 0.6850393700787402,
                    "duration": 0.21246450000001005
                },
                {
                    "name": "F#3",
                    "midi": 54,
                    "time": 188.45601150000212,
                    "velocity": 0.6377952755905512,
                    "duration": 0.21246450000001005
                },
                {
                    "name": "G2",
                    "midi": 43,
                    "time": 188.66847600000213,
                    "velocity": 0.6771653543307087,
                    "duration": 0.21246450000001005
                },
                {
                    "name": "G3",
                    "midi": 55,
                    "time": 188.88094050000214,
                    "velocity": 0.5984251968503937,
                    "duration": 0.21246450000001005
                },
                {
                    "name": "B2",
                    "midi": 47,
                    "time": 189.09340500000215,
                    "velocity": 0.6377952755905512,
                    "duration": 0.21246450000001005
                },
                {
                    "name": "B3",
                    "midi": 59,
                    "time": 189.30586950000216,
                    "velocity": 0.5748031496062992,
                    "duration": 0.21246450000001005
                },
                {
                    "name": "D3",
                    "midi": 50,
                    "time": 189.51833400000217,
                    "velocity": 0.6062992125984252,
                    "duration": 0.21246450000001005
                },
                {
                    "name": "D4",
                    "midi": 62,
                    "time": 189.73079850000218,
                    "velocity": 0.5984251968503937,
                    "duration": 0.21246450000001005
                },
                {
                    "name": "F#3",
                    "midi": 54,
                    "time": 189.9432630000022,
                    "velocity": 0.5748031496062992,
                    "duration": 0.21246450000001005
                },
                {
                    "name": "F#4",
                    "midi": 66,
                    "time": 190.1557275000022,
                    "velocity": 0.5748031496062992,
                    "duration": 0.21246450000001005
                },
                {
                    "name": "G3",
                    "midi": 55,
                    "time": 190.3681920000022,
                    "velocity": 0.6377952755905512,
                    "duration": 0.21246450000001005
                },
                {
                    "name": "G4",
                    "midi": 67,
                    "time": 190.58065650000222,
                    "velocity": 0.41732283464566927,
                    "duration": 0.21246450000001005
                },
                {
                    "name": "A3",
                    "midi": 57,
                    "time": 190.79312100000223,
                    "velocity": 0.3937007874015748,
                    "duration": 0.21246450000001005
                },
                {
                    "name": "A4",
                    "midi": 69,
                    "time": 191.00558550000224,
                    "velocity": 0.3858267716535433,
                    "duration": 0.21246450000001005
                },
                {
                    "name": "B3",
                    "midi": 59,
                    "time": 191.21805000000225,
                    "velocity": 0.3858267716535433,
                    "duration": 0.21246450000001005
                },
                {
                    "name": "B4",
                    "midi": 71,
                    "time": 191.43051450000226,
                    "velocity": 0.3779527559055118,
                    "duration": 0.21246450000001005
                },
                {
                    "name": "C4",
                    "midi": 60,
                    "time": 191.64297900000227,
                    "velocity": 0.36220472440944884,
                    "duration": 0.21246450000001005
                },
                {
                    "name": "C5",
                    "midi": 72,
                    "time": 191.85544350000228,
                    "velocity": 0.33070866141732286,
                    "duration": 0.21246450000001005
                },
                {
                    "name": "F4",
                    "midi": 65,
                    "time": 192.0679080000023,
                    "velocity": 0.33070866141732286,
                    "duration": 0.21246450000001005
                },
                {
                    "name": "C5",
                    "midi": 72,
                    "time": 192.2803725000023,
                    "velocity": 0.2755905511811024,
                    "duration": 0.21246450000001005
                },
                {
                    "name": "F#4",
                    "midi": 66,
                    "time": 192.4928370000023,
                    "velocity": 0.30708661417322836,
                    "duration": 0.21246450000001005
                },
                {
                    "name": "C5",
                    "midi": 72,
                    "time": 192.70530150000232,
                    "velocity": 0.2677165354330709,
                    "duration": 0.21246450000001005
                },
                {
                    "name": "G4",
                    "midi": 67,
                    "time": 192.91776600000233,
                    "velocity": 0.30708661417322836,
                    "duration": 0.21246450000001005
                },
                {
                    "name": "C5",
                    "midi": 72,
                    "time": 193.13023050000234,
                    "velocity": 0.2755905511811024,
                    "duration": 0.21246450000001005
                },
                {
                    "name": "G3",
                    "midi": 55,
                    "time": 193.34269500000235,
                    "velocity": 0.31496062992125984,
                    "duration": 0.21246450000001005
                },
                {
                    "name": "C3",
                    "midi": 48,
                    "time": 193.76762400000237,
                    "velocity": 0.25196850393700787,
                    "duration": 0.2832860000000039
                },
                {
                    "name": "G3",
                    "midi": 55,
                    "time": 194.05091000000237,
                    "velocity": 0.2125984251968504,
                    "duration": 0.2832860000000039
                },
                {
                    "name": "E3",
                    "midi": 52,
                    "time": 194.33419600000238,
                    "velocity": 0.2125984251968504,
                    "duration": 0.2832860000000039
                },
                {
                    "name": "C3",
                    "midi": 48,
                    "time": 194.61748200000238,
                    "velocity": 0.25196850393700787,
                    "duration": 0.2832860000000039
                },
                {
                    "name": "C4",
                    "midi": 60,
                    "time": 194.9007680000024,
                    "velocity": 0.2125984251968504,
                    "duration": 0.2832860000000039
                },
                {
                    "name": "G3",
                    "midi": 55,
                    "time": 195.1840540000024,
                    "velocity": 0.2125984251968504,
                    "duration": 0.2832860000000039
                },
                {
                    "name": "D3",
                    "midi": 50,
                    "time": 195.4673400000024,
                    "velocity": 0.25196850393700787,
                    "duration": 0.2832860000000039
                },
                {
                    "name": "B3",
                    "midi": 59,
                    "time": 195.7506260000024,
                    "velocity": 0.2125984251968504,
                    "duration": 0.2832860000000039
                },
                {
                    "name": "G3",
                    "midi": 55,
                    "time": 196.0339120000024,
                    "velocity": 0.2125984251968504,
                    "duration": 0.2832860000000039
                },
                {
                    "name": "E3",
                    "midi": 52,
                    "time": 196.3171980000024,
                    "velocity": 0.25984251968503935,
                    "duration": 0.2832860000000039
                },
                {
                    "name": "C4",
                    "midi": 60,
                    "time": 196.6004840000024,
                    "velocity": 0.2125984251968504,
                    "duration": 0.2832860000000039
                },
                {
                    "name": "G3",
                    "midi": 55,
                    "time": 196.88377000000241,
                    "velocity": 0.2283464566929134,
                    "duration": 0.2832860000000039
                },
                {
                    "name": "F3",
                    "midi": 53,
                    "time": 197.16705600000242,
                    "velocity": 0.25196850393700787,
                    "duration": 0.2832860000000039
                },
                {
                    "name": "D4",
                    "midi": 62,
                    "time": 197.45034200000242,
                    "velocity": 0.2283464566929134,
                    "duration": 0.2832860000000039
                },
                {
                    "name": "A3",
                    "midi": 57,
                    "time": 197.73362800000243,
                    "velocity": 0.2283464566929134,
                    "duration": 0.2832860000000039
                },
                {
                    "name": "F#3",
                    "midi": 54,
                    "time": 198.01691400000243,
                    "velocity": 0.2677165354330709,
                    "duration": 0.2832860000000039
                },
                {
                    "name": "D#4",
                    "midi": 63,
                    "time": 198.30020000000243,
                    "velocity": 0.2440944881889764,
                    "duration": 0.2832860000000039
                },
                {
                    "name": "C4",
                    "midi": 60,
                    "time": 198.58348600000244,
                    "velocity": 0.23622047244094488,
                    "duration": 0.2832860000000039
                },
                {
                    "name": "G3",
                    "midi": 55,
                    "time": 198.86677200000244,
                    "velocity": 0.29133858267716534,
                    "duration": 0.2832860000000039
                },
                {
                    "name": "E4",
                    "midi": 64,
                    "time": 199.15005800000245,
                    "velocity": 0.25196850393700787,
                    "duration": 0.2832860000000039
                },
                {
                    "name": "C4",
                    "midi": 60,
                    "time": 199.43334400000245,
                    "velocity": 0.25196850393700787,
                    "duration": 0.2832860000000039
                },
                {
                    "name": "F3",
                    "midi": 53,
                    "time": 199.71663000000245,
                    "velocity": 0.30708661417322836,
                    "duration": 0.2832860000000039
                },
                {
                    "name": "F4",
                    "midi": 65,
                    "time": 199.99991600000246,
                    "velocity": 0.25984251968503935,
                    "duration": 0.2832860000000039
                },
                {
                    "name": "D4",
                    "midi": 62,
                    "time": 200.28320200000246,
                    "velocity": 0.25984251968503935,
                    "duration": 0.2832860000000039
                },
                {
                    "name": "B3",
                    "midi": 59,
                    "time": 200.28320200000246,
                    "velocity": 0.25984251968503935,
                    "duration": 0.2832860000000039
                },
                {
                    "name": "C4",
                    "midi": 60,
                    "time": 200.56648800000247,
                    "velocity": 0.30708661417322836,
                    "duration": 0.21246450000001005
                },
                {
                    "name": "G3",
                    "midi": 55,
                    "time": 200.77895250000248,
                    "velocity": 0.25196850393700787,
                    "duration": 0.21246450000001005
                },
                {
                    "name": "D#3",
                    "midi": 51,
                    "time": 200.99141700000249,
                    "velocity": 0.25196850393700787,
                    "duration": 0.21246450000001005
                },
                {
                    "name": "G3",
                    "midi": 55,
                    "time": 201.2038815000025,
                    "velocity": 0.23622047244094488,
                    "duration": 0.21246450000001005
                },
                {
                    "name": "C3",
                    "midi": 48,
                    "time": 201.4163460000025,
                    "velocity": 0.2992125984251969,
                    "duration": 0.21246450000001005
                },
                {
                    "name": "C4",
                    "midi": 60,
                    "time": 201.62881050000252,
                    "velocity": 0.25984251968503935,
                    "duration": 0.21246450000001005
                },
                {
                    "name": "G3",
                    "midi": 55,
                    "time": 201.84127500000253,
                    "velocity": 0.2677165354330709,
                    "duration": 0.21246450000001005
                },
                {
                    "name": "C3",
                    "midi": 48,
                    "time": 202.05373950000254,
                    "velocity": 0.25196850393700787,
                    "duration": 0.21246450000001005
                },
                {
                    "name": "D3",
                    "midi": 50,
                    "time": 202.26620400000255,
                    "velocity": 0.3543307086614173,
                    "duration": 0.21246450000001005
                },
                {
                    "name": "B3",
                    "midi": 59,
                    "time": 202.47866850000256,
                    "velocity": 0.28346456692913385,
                    "duration": 0.21246450000001005
                },
                {
                    "name": "G3",
                    "midi": 55,
                    "time": 202.69113300000257,
                    "velocity": 0.28346456692913385,
                    "duration": 0.21246450000001005
                },
                {
                    "name": "D3",
                    "midi": 50,
                    "time": 202.90359750000258,
                    "velocity": 0.25984251968503935,
                    "duration": 0.21246450000001005
                },
                {
                    "name": "D#3",
                    "midi": 51,
                    "time": 203.1160620000026,
                    "velocity": 0.33858267716535434,
                    "duration": 0.21246450000001005
                },
                {
                    "name": "C4",
                    "midi": 60,
                    "time": 203.3285265000026,
                    "velocity": 0.30708661417322836,
                    "duration": 0.21246450000001005
                },
                {
                    "name": "G3",
                    "midi": 55,
                    "time": 203.5409910000026,
                    "velocity": 0.30708661417322836,
                    "duration": 0.21246450000001005
                },
                {
                    "name": "D#3",
                    "midi": 51,
                    "time": 203.75345550000262,
                    "velocity": 0.29133858267716534,
                    "duration": 0.21246450000001005
                },
                {
                    "name": "F3",
                    "midi": 53,
                    "time": 203.96592000000263,
                    "velocity": 0.4409448818897638,
                    "duration": 0.21246450000001005
                },
                {
                    "name": "D4",
                    "midi": 62,
                    "time": 204.17838450000264,
                    "velocity": 0.33070866141732286,
                    "duration": 0.21246450000001005
                },
                {
                    "name": "G#3",
                    "midi": 56,
                    "time": 204.39084900000265,
                    "velocity": 0.33070866141732286,
                    "duration": 0.21246450000001005
                },
                {
                    "name": "F3",
                    "midi": 53,
                    "time": 204.60331350000266,
                    "velocity": 0.30708661417322836,
                    "duration": 0.21246450000001005
                },
                {
                    "name": "F#3",
                    "midi": 54,
                    "time": 204.81577800000267,
                    "velocity": 0.44881889763779526,
                    "duration": 0.21246450000001005
                },
                {
                    "name": "D#4",
                    "midi": 63,
                    "time": 205.02824250000268,
                    "velocity": 0.3464566929133858,
                    "duration": 0.21246450000001005
                },
                {
                    "name": "C4",
                    "midi": 60,
                    "time": 205.2407070000027,
                    "velocity": 0.3543307086614173,
                    "duration": 0.21246450000001005
                },
                {
                    "name": "F#3",
                    "midi": 54,
                    "time": 205.4531715000027,
                    "velocity": 0.33858267716535434,
                    "duration": 0.19475912499999026
                },
                {
                    "name": "G3",
                    "midi": 55,
                    "time": 205.66563600000268,
                    "velocity": 0.4881889763779528,
                    "duration": 0.21246450000001005
                },
                {
                    "name": "D#4",
                    "midi": 63,
                    "time": 205.8781005000027,
                    "velocity": 0.3700787401574803,
                    "duration": 0.21246450000001005
                },
                {
                    "name": "C4",
                    "midi": 60,
                    "time": 206.0905650000027,
                    "velocity": 0.3779527559055118,
                    "duration": 0.21246450000001005
                },
                {
                    "name": "G3",
                    "midi": 55,
                    "time": 206.3030295000027,
                    "velocity": 0.3700787401574803,
                    "duration": 0.21246450000001005
                },
                {
                    "name": "G#3",
                    "midi": 56,
                    "time": 206.51549400000272,
                    "velocity": 0.4566929133858268,
                    "duration": 0.21246450000001005
                },
                {
                    "name": "D#4",
                    "midi": 63,
                    "time": 206.72795850000273,
                    "velocity": 0.4094488188976378,
                    "duration": 0.21246450000001005
                },
                {
                    "name": "C4",
                    "midi": 60,
                    "time": 206.94042300000274,
                    "velocity": 0.44881889763779526,
                    "duration": 0.21246450000001005
                },
                {
                    "name": "D#4",
                    "midi": 63,
                    "time": 207.15288750000275,
                    "velocity": 0.4566929133858268,
                    "duration": 0.21246450000001005
                },
                {
                    "name": "C#4",
                    "midi": 61,
                    "time": 207.36535200000276,
                    "velocity": 0.25196850393700787,
                    "duration": 0.2832860000000039
                },
                {
                    "name": "C#3",
                    "midi": 49,
                    "time": 207.36535200000276,
                    "velocity": 0.25196850393700787,
                    "duration": 0.2832860000000039
                },
                {
                    "name": "G#3",
                    "midi": 56,
                    "time": 207.64863800000276,
                    "velocity": 0.2125984251968504,
                    "duration": 0.2832860000000039
                },
                {
                    "name": "E3",
                    "midi": 52,
                    "time": 207.93192400000277,
                    "velocity": 0.2125984251968504,
                    "duration": 0.2832860000000039
                },
                {
                    "name": "C#3",
                    "midi": 49,
                    "time": 208.21521000000277,
                    "velocity": 0.25196850393700787,
                    "duration": 0.2832860000000039
                },
                {
                    "name": "C#4",
                    "midi": 61,
                    "time": 208.49849600000277,
                    "velocity": 0.2125984251968504,
                    "duration": 0.2832860000000039
                },
                {
                    "name": "G#3",
                    "midi": 56,
                    "time": 208.78178200000278,
                    "velocity": 0.2125984251968504,
                    "duration": 0.2832860000000039
                },
                {
                    "name": "D#3",
                    "midi": 51,
                    "time": 209.06506800000278,
                    "velocity": 0.25196850393700787,
                    "duration": 0.2832860000000039
                },
                {
                    "name": "C4",
                    "midi": 60,
                    "time": 209.3483540000028,
                    "velocity": 0.2125984251968504,
                    "duration": 0.2832860000000039
                },
                {
                    "name": "G#3",
                    "midi": 56,
                    "time": 209.6316400000028,
                    "velocity": 0.2125984251968504,
                    "duration": 0.2832860000000039
                },
                {
                    "name": "E3",
                    "midi": 52,
                    "time": 209.9149260000028,
                    "velocity": 0.25984251968503935,
                    "duration": 0.2832860000000039
                },
                {
                    "name": "C#4",
                    "midi": 61,
                    "time": 210.1982120000028,
                    "velocity": 0.2125984251968504,
                    "duration": 0.2832860000000039
                },
                {
                    "name": "G#3",
                    "midi": 56,
                    "time": 210.4814980000028,
                    "velocity": 0.2283464566929134,
                    "duration": 0.2832860000000039
                },
                {
                    "name": "F#3",
                    "midi": 54,
                    "time": 210.7647840000028,
                    "velocity": 0.25196850393700787,
                    "duration": 0.2832860000000039
                },
                {
                    "name": "D#4",
                    "midi": 63,
                    "time": 211.0480700000028,
                    "velocity": 0.2283464566929134,
                    "duration": 0.2832860000000039
                },
                {
                    "name": "A3",
                    "midi": 57,
                    "time": 211.3313560000028,
                    "velocity": 0.2283464566929134,
                    "duration": 0.2832860000000039
                },
                {
                    "name": "G3",
                    "midi": 55,
                    "time": 211.61464200000282,
                    "velocity": 0.2677165354330709,
                    "duration": 0.2832860000000039
                },
                {
                    "name": "E4",
                    "midi": 64,
                    "time": 211.89792800000282,
                    "velocity": 0.2440944881889764,
                    "duration": 0.2832860000000039
                },
                {
                    "name": "C#4",
                    "midi": 61,
                    "time": 212.18121400000283,
                    "velocity": 0.23622047244094488,
                    "duration": 0.2832860000000039
                },
                {
                    "name": "G#3",
                    "midi": 56,
                    "time": 212.46450000000283,
                    "velocity": 0.29133858267716534,
                    "duration": 0.2832860000000039
                },
                {
                    "name": "E4",
                    "midi": 64,
                    "time": 212.74778600000283,
                    "velocity": 0.25196850393700787,
                    "duration": 0.2832860000000039
                },
                {
                    "name": "C#4",
                    "midi": 61,
                    "time": 213.03107200000284,
                    "velocity": 0.25196850393700787,
                    "duration": 0.2832860000000039
                },
                {
                    "name": "G#3",
                    "midi": 56,
                    "time": 213.31435800000284,
                    "velocity": 0.30708661417322836,
                    "duration": 0.21246450000001005
                },
                {
                    "name": "D#4",
                    "midi": 63,
                    "time": 213.52682250000285,
                    "velocity": 0.25196850393700787,
                    "duration": 0.21246450000001005
                },
                {
                    "name": "C4",
                    "midi": 60,
                    "time": 213.73928700000286,
                    "velocity": 0.2677165354330709,
                    "duration": 0.21246450000001005
                },
                {
                    "name": "D#4",
                    "midi": 63,
                    "time": 213.95175150000287,
                    "velocity": 0.25196850393700787,
                    "duration": 0.21246450000001005
                },
                {
                    "name": "C#3",
                    "midi": 49,
                    "time": 214.16421600000288,
                    "velocity": 0.28346456692913385,
                    "duration": 0.21246450000001005
                },
                {
                    "name": "C#4",
                    "midi": 61,
                    "time": 214.16421600000288,
                    "velocity": 0.30708661417322836,
                    "duration": 0.21246450000001005
                },
                {
                    "name": "G#3",
                    "midi": 56,
                    "time": 214.3766805000029,
                    "velocity": 0.25196850393700787,
                    "duration": 0.21246450000001005
                },
                {
                    "name": "F3",
                    "midi": 53,
                    "time": 214.5891450000029,
                    "velocity": 0.25196850393700787,
                    "duration": 0.21246450000001005
                },
                {
                    "name": "G#3",
                    "midi": 56,
                    "time": 214.8016095000029,
                    "velocity": 0.23622047244094488,
                    "duration": 0.21246450000001005
                },
                {
                    "name": "C#3",
                    "midi": 49,
                    "time": 215.01407400000292,
                    "velocity": 0.2992125984251969,
                    "duration": 0.21246450000001005
                },
                {
                    "name": "C#4",
                    "midi": 61,
                    "time": 215.22653850000293,
                    "velocity": 0.25984251968503935,
                    "duration": 0.21246450000001005
                },
                {
                    "name": "G#3",
                    "midi": 56,
                    "time": 215.43900300000294,
                    "velocity": 0.2677165354330709,
                    "duration": 0.21246450000001005
                },
                {
                    "name": "C#3",
                    "midi": 49,
                    "time": 215.65146750000295,
                    "velocity": 0.25196850393700787,
                    "duration": 0.21246450000001005
                },
                {
                    "name": "D#3",
                    "midi": 51,
                    "time": 215.86393200000296,
                    "velocity": 0.3543307086614173,
                    "duration": 0.21246450000001005
                },
                {
                    "name": "C4",
                    "midi": 60,
                    "time": 216.07639650000297,
                    "velocity": 0.28346456692913385,
                    "duration": 0.21246450000001005
                },
                {
                    "name": "G#3",
                    "midi": 56,
                    "time": 216.28886100000298,
                    "velocity": 0.28346456692913385,
                    "duration": 0.21246450000001005
                },
                {
                    "name": "D#3",
                    "midi": 51,
                    "time": 216.501325500003,
                    "velocity": 0.25984251968503935,
                    "duration": 0.21246450000001005
                },
                {
                    "name": "F3",
                    "midi": 53,
                    "time": 216.713790000003,
                    "velocity": 0.33858267716535434,
                    "duration": 0.21246450000001005
                },
                {
                    "name": "C#4",
                    "midi": 61,
                    "time": 216.926254500003,
                    "velocity": 0.30708661417322836,
                    "duration": 0.21246450000001005
                },
                {
                    "name": "G#3",
                    "midi": 56,
                    "time": 217.13871900000302,
                    "velocity": 0.30708661417322836,
                    "duration": 0.21246450000001005
                },
                {
                    "name": "F3",
                    "midi": 53,
                    "time": 217.35118350000303,
                    "velocity": 0.29133858267716534,
                    "duration": 0.21246450000001005
                },
                {
                    "name": "F#3",
                    "midi": 54,
                    "time": 217.56364800000304,
                    "velocity": 0.4409448818897638,
                    "duration": 0.21246450000001005
                },
                {
                    "name": "C#4",
                    "midi": 61,
                    "time": 217.77611250000305,
                    "velocity": 0.33070866141732286,
                    "duration": 0.21246450000001005
                },
                {
                    "name": "A3",
                    "midi": 57,
                    "time": 217.98857700000306,
                    "velocity": 0.33070866141732286,
                    "duration": 0.21246450000001005
                },
                {
                    "name": "F#3",
                    "midi": 54,
                    "time": 218.20104150000307,
                    "velocity": 0.30708661417322836,
                    "duration": 0.19475912499999026
                },
                {
                    "name": "F#3",
                    "midi": 54,
                    "time": 218.41350600000305,
                    "velocity": 0.44881889763779526,
                    "duration": 0.21246450000001005
                },
                {
                    "name": "C#4",
                    "midi": 61,
                    "time": 218.62597050000306,
                    "velocity": 0.3464566929133858,
                    "duration": 0.21246450000001005
                },
                {
                    "name": "A3",
                    "midi": 57,
                    "time": 218.83843500000307,
                    "velocity": 0.3543307086614173,
                    "duration": 0.21246450000001005
                },
                {
                    "name": "F#3",
                    "midi": 54,
                    "time": 219.05089950000308,
                    "velocity": 0.33858267716535434,
                    "duration": 0.19475912499999026
                },
                {
                    "name": "F#3",
                    "midi": 54,
                    "time": 219.26336400000307,
                    "velocity": 0.4881889763779528,
                    "duration": 0.21246450000001005
                },
                {
                    "name": "C#4",
                    "midi": 61,
                    "time": 219.47582850000308,
                    "velocity": 0.3700787401574803,
                    "duration": 0.21246450000001005
                },
                {
                    "name": "A3",
                    "midi": 57,
                    "time": 219.68829300000309,
                    "velocity": 0.3779527559055118,
                    "duration": 0.21246450000001005
                },
                {
                    "name": "F#3",
                    "midi": 54,
                    "time": 219.9007575000031,
                    "velocity": 0.3700787401574803,
                    "duration": 0.21246450000001005
                },
                {
                    "name": "E3",
                    "midi": 52,
                    "time": 220.1132220000031,
                    "velocity": 0.4566929133858268,
                    "duration": 0.21246450000001005
                },
                {
                    "name": "C#4",
                    "midi": 61,
                    "time": 220.32568650000312,
                    "velocity": 0.4094488188976378,
                    "duration": 0.21246450000001005
                },
                {
                    "name": "A3",
                    "midi": 57,
                    "time": 220.53815100000313,
                    "velocity": 0.44881889763779526,
                    "duration": 0.21246450000001005
                },
                {
                    "name": "E3",
                    "midi": 52,
                    "time": 220.75061550000314,
                    "velocity": 0.44881889763779526,
                    "duration": 0.21246450000001005
                },
                {
                    "name": "D#3",
                    "midi": 51,
                    "time": 220.96308000000315,
                    "velocity": 0.6062992125984252,
                    "duration": 0.4249289999999917
                },
                {
                    "name": "B3",
                    "midi": 59,
                    "time": 220.96308000000315,
                    "velocity": 0.6062992125984252,
                    "duration": 0.4249289999999917
                },
                {
                    "name": "A3",
                    "midi": 57,
                    "time": 221.38800900000314,
                    "velocity": 0.5433070866141733,
                    "duration": 0.21246450000001005
                },
                {
                    "name": "C4",
                    "midi": 60,
                    "time": 221.60047350000315,
                    "velocity": 0.44881889763779526,
                    "duration": 0.21246450000001005
                },
                {
                    "name": "B3",
                    "midi": 59,
                    "time": 221.81293800000316,
                    "velocity": 0.3228346456692913,
                    "duration": 0.21246450000001005
                },
                {
                    "name": "A#3",
                    "midi": 58,
                    "time": 222.02540250000317,
                    "velocity": 0.29133858267716534,
                    "duration": 0.21246450000001005
                },
                {
                    "name": "B3",
                    "midi": 59,
                    "time": 222.23786700000318,
                    "velocity": 0.3228346456692913,
                    "duration": 0.21246450000001005
                },
                {
                    "name": "F#3",
                    "midi": 54,
                    "time": 222.4503315000032,
                    "velocity": 0.2755905511811024,
                    "duration": 0.21246450000001005
                },
                {
                    "name": "D#3",
                    "midi": 51,
                    "time": 222.6627960000032,
                    "velocity": 0.3228346456692913,
                    "duration": 0.21246450000001005
                },
                {
                    "name": "C#3",
                    "midi": 49,
                    "time": 222.8752605000032,
                    "velocity": 0.29133858267716534,
                    "duration": 0.21246450000001005
                },
                {
                    "name": "D#3",
                    "midi": 51,
                    "time": 223.08772500000322,
                    "velocity": 0.3228346456692913,
                    "duration": 0.21246450000001005
                },
                {
                    "name": "B2",
                    "midi": 47,
                    "time": 223.30018950000323,
                    "velocity": 0.31496062992125984,
                    "duration": 0.21246450000001005
                },
                {
                    "name": "D#3",
                    "midi": 51,
                    "time": 223.51265400000324,
                    "velocity": 0.3858267716535433,
                    "duration": 0.10623225000000502
                },
                {
                    "name": "F#3",
                    "midi": 54,
                    "time": 223.93758300000323,
                    "velocity": 0.3228346456692913,
                    "duration": 0.10623225000000502
                },
                {
                    "name": "A3",
                    "midi": 57,
                    "time": 224.78744100000324,
                    "velocity": 0.5433070866141733,
                    "duration": 0.21246450000001005
                },
                {
                    "name": "C4",
                    "midi": 60,
                    "time": 224.99990550000325,
                    "velocity": 0.44881889763779526,
                    "duration": 0.21246450000001005
                },
                {
                    "name": "B3",
                    "midi": 59,
                    "time": 225.21237000000326,
                    "velocity": 0.3228346456692913,
                    "duration": 0.21246450000001005
                },
                {
                    "name": "A#3",
                    "midi": 58,
                    "time": 225.42483450000327,
                    "velocity": 0.29133858267716534,
                    "duration": 0.21246450000001005
                },
                {
                    "name": "B3",
                    "midi": 59,
                    "time": 225.63729900000328,
                    "velocity": 0.3228346456692913,
                    "duration": 0.21246450000001005
                },
                {
                    "name": "F#3",
                    "midi": 54,
                    "time": 225.8497635000033,
                    "velocity": 0.2755905511811024,
                    "duration": 0.21246450000001005
                },
                {
                    "name": "D#3",
                    "midi": 51,
                    "time": 226.0622280000033,
                    "velocity": 0.3228346456692913,
                    "duration": 0.21246450000001005
                },
                {
                    "name": "C#3",
                    "midi": 49,
                    "time": 226.2746925000033,
                    "velocity": 0.29133858267716534,
                    "duration": 0.21246450000001005
                },
                {
                    "name": "D#3",
                    "midi": 51,
                    "time": 226.48715700000332,
                    "velocity": 0.3228346456692913,
                    "duration": 0.21246450000001005
                },
                {
                    "name": "B2",
                    "midi": 47,
                    "time": 226.69962150000333,
                    "velocity": 0.31496062992125984,
                    "duration": 0.21246450000001005
                },
                {
                    "name": "D#3",
                    "midi": 51,
                    "time": 226.91208600000334,
                    "velocity": 0.3858267716535433,
                    "duration": 0.10623225000000502
                },
                {
                    "name": "F#3",
                    "midi": 54,
                    "time": 227.33701500000333,
                    "velocity": 0.3228346456692913,
                    "duration": 0.10623225000000502
                },
                {
                    "name": "A3",
                    "midi": 57,
                    "time": 228.18687300000335,
                    "velocity": 0.5433070866141733,
                    "duration": 0.21246450000001005
                },
                {
                    "name": "C4",
                    "midi": 60,
                    "time": 228.39933750000336,
                    "velocity": 0.44881889763779526,
                    "duration": 0.21246450000001005
                },
                {
                    "name": "B3",
                    "midi": 59,
                    "time": 228.61180200000337,
                    "velocity": 0.3228346456692913,
                    "duration": 0.21246450000001005
                },
                {
                    "name": "A#3",
                    "midi": 58,
                    "time": 228.82426650000338,
                    "velocity": 0.29133858267716534,
                    "duration": 0.21246450000001005
                },
                {
                    "name": "B3",
                    "midi": 59,
                    "time": 229.03673100000339,
                    "velocity": 0.3228346456692913,
                    "duration": 0.21246450000001005
                },
                {
                    "name": "F#3",
                    "midi": 54,
                    "time": 229.2491955000034,
                    "velocity": 0.2755905511811024,
                    "duration": 0.21246450000001005
                },
                {
                    "name": "D#3",
                    "midi": 51,
                    "time": 229.4616600000034,
                    "velocity": 0.3228346456692913,
                    "duration": 0.21246450000001005
                },
                {
                    "name": "C#3",
                    "midi": 49,
                    "time": 229.67412450000342,
                    "velocity": 0.29133858267716534,
                    "duration": 0.21246450000001005
                },
                {
                    "name": "D#3",
                    "midi": 51,
                    "time": 229.88658900000343,
                    "velocity": 0.3228346456692913,
                    "duration": 0.21246450000001005
                },
                {
                    "name": "B2",
                    "midi": 47,
                    "time": 230.09905350000344,
                    "velocity": 0.31496062992125984,
                    "duration": 0.21246450000001005
                },
                {
                    "name": "D#3",
                    "midi": 51,
                    "time": 230.31151800000345,
                    "velocity": 0.3858267716535433,
                    "duration": 0.21246450000001005
                },
                {
                    "name": "C#3",
                    "midi": 49,
                    "time": 230.52398250000346,
                    "velocity": 0.3700787401574803,
                    "duration": 0.21246450000001005
                },
                {
                    "name": "D#3",
                    "midi": 51,
                    "time": 230.73644700000347,
                    "velocity": 0.3858267716535433,
                    "duration": 0.21246450000001005
                },
                {
                    "name": "F#3",
                    "midi": 54,
                    "time": 230.94891150000348,
                    "velocity": 0.3937007874015748,
                    "duration": 0.21246450000001005
                },
                {
                    "name": "A3",
                    "midi": 57,
                    "time": 231.1613760000035,
                    "velocity": 0.4566929133858268,
                    "duration": 0.21246450000001005
                },
                {
                    "name": "D#3",
                    "midi": 51,
                    "time": 231.5863050000035,
                    "velocity": 0.2047244094488189,
                    "duration": 0.4249289999999917
                },
                {
                    "name": "F#3",
                    "midi": 54,
                    "time": 232.0112340000035,
                    "velocity": 0.23622047244094488,
                    "duration": 0.4249289999999917
                },
                {
                    "name": "B3",
                    "midi": 59,
                    "time": 232.4361630000035,
                    "velocity": 0.2283464566929134,
                    "duration": 0.4249289999999917
                },
                {
                    "name": "A3",
                    "midi": 57,
                    "time": 232.86109200000348,
                    "velocity": 0.4566929133858268,
                    "duration": 0.21246450000001005
                },
                {
                    "name": "D#3",
                    "midi": 51,
                    "time": 233.2860210000035,
                    "velocity": 0.2047244094488189,
                    "duration": 0.4249289999999917
                },
                {
                    "name": "F#3",
                    "midi": 54,
                    "time": 233.7109500000035,
                    "velocity": 0.23622047244094488,
                    "duration": 0.4249289999999917
                },
                {
                    "name": "B3",
                    "midi": 59,
                    "time": 234.13587900000348,
                    "velocity": 0.2283464566929134,
                    "duration": 0.4249289999999917
                },
                {
                    "name": "A3",
                    "midi": 57,
                    "time": 234.56080800000348,
                    "velocity": 0.4566929133858268,
                    "duration": 0.21246450000001005
                },
                {
                    "name": "D#3",
                    "midi": 51,
                    "time": 234.9857370000035,
                    "velocity": 0.2047244094488189,
                    "duration": 0.4249289999999917
                },
                {
                    "name": "F#3",
                    "midi": 54,
                    "time": 235.4106660000035,
                    "velocity": 0.23622047244094488,
                    "duration": 0.4249289999999917
                },
                {
                    "name": "B3",
                    "midi": 59,
                    "time": 235.83559500000348,
                    "velocity": 0.2283464566929134,
                    "duration": 0.6373935000000017
                },
                {
                    "name": "A3",
                    "midi": 57,
                    "time": 236.47298850000348,
                    "velocity": 0.2125984251968504,
                    "duration": 0.21246450000001005
                },
                {
                    "name": "B3",
                    "midi": 59,
                    "time": 236.6854530000035,
                    "velocity": 0.23622047244094488,
                    "duration": 0.21246450000001005
                },
                {
                    "name": "A3",
                    "midi": 57,
                    "time": 236.8979175000035,
                    "velocity": 0.2047244094488189,
                    "duration": 0.21246450000001005
                },
                {
                    "name": "G#3",
                    "midi": 56,
                    "time": 237.1103820000035,
                    "velocity": 0.23622047244094488,
                    "duration": 0.21246450000001005
                },
                {
                    "name": "A3",
                    "midi": 57,
                    "time": 237.32284650000352,
                    "velocity": 0.1968503937007874,
                    "duration": 0.21246450000001005
                },
                {
                    "name": "G#3",
                    "midi": 56,
                    "time": 237.53531100000353,
                    "velocity": 0.23622047244094488,
                    "duration": 0.21246450000001005
                },
                {
                    "name": "F#3",
                    "midi": 54,
                    "time": 237.74777550000354,
                    "velocity": 0.2047244094488189,
                    "duration": 0.21246450000001005
                },
                {
                    "name": "E2",
                    "midi": 40,
                    "time": 237.96024000000355,
                    "velocity": 0.1968503937007874,
                    "duration": 0.4249289999999917
                },
                {
                    "name": "E3",
                    "midi": 52,
                    "time": 237.96024000000355,
                    "velocity": 0.23622047244094488,
                    "duration": 0.4249289999999917
                },
                {
                    "name": "B1",
                    "midi": 35,
                    "time": 239.65995600000355,
                    "velocity": 0.1968503937007874,
                    "duration": 0.4249289999999917
                },
                {
                    "name": "B2",
                    "midi": 47,
                    "time": 239.65995600000355,
                    "velocity": 0.23622047244094488,
                    "duration": 0.4249289999999917
                },
                {
                    "name": "C#2",
                    "midi": 37,
                    "time": 241.35967200000354,
                    "velocity": 0.1968503937007874,
                    "duration": 0.4249289999999917
                },
                {
                    "name": "C#3",
                    "midi": 49,
                    "time": 241.35967200000354,
                    "velocity": 0.23622047244094488,
                    "duration": 0.4249289999999917
                },
                {
                    "name": "D#3",
                    "midi": 51,
                    "time": 242.20953000000353,
                    "velocity": 0.2204724409448819,
                    "duration": 0.4249289999999917
                },
                {
                    "name": "D#2",
                    "midi": 39,
                    "time": 242.20953000000353,
                    "velocity": 0.18110236220472442,
                    "duration": 0.4249289999999917
                },
                {
                    "name": "B2",
                    "midi": 47,
                    "time": 242.63445900000352,
                    "velocity": 0.2047244094488189,
                    "duration": 0.4249289999999917
                },
                {
                    "name": "B1",
                    "midi": 35,
                    "time": 242.63445900000352,
                    "velocity": 0.1732283464566929,
                    "duration": 0.4249289999999917
                },
                {
                    "name": "E2",
                    "midi": 40,
                    "time": 243.0593880000035,
                    "velocity": 0.2204724409448819,
                    "duration": 0.21246450000001005
                },
                {
                    "name": "E3",
                    "midi": 52,
                    "time": 243.0593880000035,
                    "velocity": 0.2204724409448819,
                    "duration": 0.21246450000001005
                },
                {
                    "name": "G#3",
                    "midi": 56,
                    "time": 243.27185250000352,
                    "velocity": 0.1968503937007874,
                    "duration": 0.21246450000001005
                },
                {
                    "name": "B3",
                    "midi": 59,
                    "time": 243.48431700000353,
                    "velocity": 0.2204724409448819,
                    "duration": 0.21246450000001005
                },
                {
                    "name": "A3",
                    "midi": 57,
                    "time": 243.69678150000354,
                    "velocity": 0.2047244094488189,
                    "duration": 0.21246450000001005
                },
                {
                    "name": "G#3",
                    "midi": 56,
                    "time": 243.90924600000355,
                    "velocity": 0.2204724409448819,
                    "duration": 0.21246450000001005
                },
                {
                    "name": "A3",
                    "midi": 57,
                    "time": 244.12171050000356,
                    "velocity": 0.1968503937007874,
                    "duration": 0.21246450000001005
                },
                {
                    "name": "G#3",
                    "midi": 56,
                    "time": 244.33417500000357,
                    "velocity": 0.23622047244094488,
                    "duration": 0.21246450000001005
                },
                {
                    "name": "F#3",
                    "midi": 54,
                    "time": 244.54663950000358,
                    "velocity": 0.2125984251968504,
                    "duration": 0.21246450000001005
                },
                {
                    "name": "E3",
                    "midi": 52,
                    "time": 244.7591040000036,
                    "velocity": 0.29133858267716534,
                    "duration": 0.21246450000001005
                },
                {
                    "name": "B3",
                    "midi": 59,
                    "time": 244.9715685000036,
                    "velocity": 0.2204724409448819,
                    "duration": 0.21246450000001005
                },
                {
                    "name": "B2",
                    "midi": 47,
                    "time": 245.1840330000036,
                    "velocity": 0.2677165354330709,
                    "duration": 0.21246450000001005
                },
                {
                    "name": "B3",
                    "midi": 59,
                    "time": 245.39649750000362,
                    "velocity": 0.2204724409448819,
                    "duration": 0.21246450000001005
                },
                {
                    "name": "E3",
                    "midi": 52,
                    "time": 245.60896200000363,
                    "velocity": 0.25984251968503935,
                    "duration": 0.21246450000001005
                },
                {
                    "name": "B3",
                    "midi": 59,
                    "time": 245.82142650000364,
                    "velocity": 0.2283464566929134,
                    "duration": 0.21246450000001005
                },
                {
                    "name": "B2",
                    "midi": 47,
                    "time": 246.03389100000365,
                    "velocity": 0.23622047244094488,
                    "duration": 0.21246450000001005
                },
                {
                    "name": "B3",
                    "midi": 59,
                    "time": 246.24635550000366,
                    "velocity": 0.2283464566929134,
                    "duration": 0.21246450000001005
                },
                {
                    "name": "D#3",
                    "midi": 51,
                    "time": 246.45882000000367,
                    "velocity": 0.29133858267716534,
                    "duration": 0.21246450000001005
                },
                {
                    "name": "B3",
                    "midi": 59,
                    "time": 246.67128450000368,
                    "velocity": 0.2204724409448819,
                    "duration": 0.21246450000001005
                },
                {
                    "name": "B2",
                    "midi": 47,
                    "time": 246.8837490000037,
                    "velocity": 0.2283464566929134,
                    "duration": 0.21246450000001005
                },
                {
                    "name": "B3",
                    "midi": 59,
                    "time": 247.0962135000037,
                    "velocity": 0.2125984251968504,
                    "duration": 0.15934837500000754
                },
                {
                    "name": "D#3",
                    "midi": 51,
                    "time": 247.3086780000037,
                    "velocity": 0.2283464566929134,
                    "duration": 0.21246450000001005
                },
                {
                    "name": "B3",
                    "midi": 59,
                    "time": 247.52114250000372,
                    "velocity": 0.2204724409448819,
                    "duration": 0.21246450000001005
                },
                {
                    "name": "F3",
                    "midi": 53,
                    "time": 247.73360700000373,
                    "velocity": 0.2440944881889764,
                    "duration": 0.21246450000001005
                },
                {
                    "name": "B3",
                    "midi": 59,
                    "time": 247.94607150000374,
                    "velocity": 0.25984251968503935,
                    "duration": 0.21246450000001005
                },
                {
                    "name": "F#3",
                    "midi": 54,
                    "time": 248.15853600000375,
                    "velocity": 0.28346456692913385,
                    "duration": 0.21246450000001005
                },
                {
                    "name": "B3",
                    "midi": 59,
                    "time": 248.37100050000376,
                    "velocity": 0.2755905511811024,
                    "duration": 0.21246450000001005
                },
                {
                    "name": "A3",
                    "midi": 57,
                    "time": 248.58346500000377,
                    "velocity": 0.3228346456692913,
                    "duration": 0.21246450000001005
                },
                {
                    "name": "B3",
                    "midi": 59,
                    "time": 248.79592950000378,
                    "velocity": 0.28346456692913385,
                    "duration": 0.21246450000001005
                },
                {
                    "name": "G#3",
                    "midi": 56,
                    "time": 249.0083940000038,
                    "velocity": 0.29133858267716534,
                    "duration": 0.21246450000001005
                },
                {
                    "name": "B3",
                    "midi": 59,
                    "time": 249.2208585000038,
                    "velocity": 0.2440944881889764,
                    "duration": 0.21246450000001005
                },
                {
                    "name": "B2",
                    "midi": 47,
                    "time": 249.4333230000038,
                    "velocity": 0.1968503937007874,
                    "duration": 0.21246450000001005
                },
                {
                    "name": "F#3",
                    "midi": 54,
                    "time": 249.4333230000038,
                    "velocity": 0.1968503937007874,
                    "duration": 0.21246450000001005
                },
                {
                    "name": "A3",
                    "midi": 57,
                    "time": 249.64578750000382,
                    "velocity": 0.2125984251968504,
                    "duration": 0.21246450000001005
                },
                {
                    "name": "E3",
                    "midi": 52,
                    "time": 249.85825200000383,
                    "velocity": 0.2440944881889764,
                    "duration": 0.21246450000001005
                },
                {
                    "name": "G#3",
                    "midi": 56,
                    "time": 249.85825200000383,
                    "velocity": 0.2440944881889764,
                    "duration": 0.21246450000001005
                },
                {
                    "name": "B3",
                    "midi": 59,
                    "time": 250.07071650000384,
                    "velocity": 0.18110236220472442,
                    "duration": 0.21246450000001005
                },
                {
                    "name": "G#3",
                    "midi": 56,
                    "time": 250.28318100000385,
                    "velocity": 0.2440944881889764,
                    "duration": 0.21246450000001005
                },
                {
                    "name": "E3",
                    "midi": 52,
                    "time": 250.49564550000386,
                    "velocity": 0.1968503937007874,
                    "duration": 0.21246450000001005
                },
                {
                    "name": "D#3",
                    "midi": 51,
                    "time": 250.70811000000387,
                    "velocity": 0.2440944881889764,
                    "duration": 0.21246450000001005
                },
                {
                    "name": "B3",
                    "midi": 59,
                    "time": 250.92057450000388,
                    "velocity": 0.2125984251968504,
                    "duration": 0.21246450000001005
                },
                {
                    "name": "F#3",
                    "midi": 54,
                    "time": 251.1330390000039,
                    "velocity": 0.2440944881889764,
                    "duration": 0.21246450000001005
                },
                {
                    "name": "D#3",
                    "midi": 51,
                    "time": 251.3455035000039,
                    "velocity": 0.25196850393700787,
                    "duration": 0.21246450000001005
                },
                {
                    "name": "C#3",
                    "midi": 49,
                    "time": 251.5579680000039,
                    "velocity": 0.2992125984251969,
                    "duration": 0.21246450000001005
                },
                {
                    "name": "A#3",
                    "midi": 58,
                    "time": 251.77043250000392,
                    "velocity": 0.2283464566929134,
                    "duration": 0.21246450000001005
                },
                {
                    "name": "F#3",
                    "midi": 54,
                    "time": 251.98289700000393,
                    "velocity": 0.2440944881889764,
                    "duration": 0.21246450000001005
                },
                {
                    "name": "C#3",
                    "midi": 49,
                    "time": 252.19536150000394,
                    "velocity": 0.2125984251968504,
                    "duration": 0.21246450000001005
                },
                {
                    "name": "F#2",
                    "midi": 42,
                    "time": 252.40782600000395,
                    "velocity": 0.2440944881889764,
                    "duration": 0.21246450000001005
                },
                {
                    "name": "A#3",
                    "midi": 58,
                    "time": 252.62029050000396,
                    "velocity": 0.2047244094488189,
                    "duration": 0.21246450000001005
                },
                {
                    "name": "F#3",
                    "midi": 54,
                    "time": 252.83275500000397,
                    "velocity": 0.2283464566929134,
                    "duration": 0.21246450000001005
                },
                {
                    "name": "C#3",
                    "midi": 49,
                    "time": 253.04521950000398,
                    "velocity": 0.2125984251968504,
                    "duration": 0.21246450000001005
                },
                {
                    "name": "B2",
                    "midi": 47,
                    "time": 253.257684000004,
                    "velocity": 0.2440944881889764,
                    "duration": 0.21246450000001005
                },
                {
                    "name": "B3",
                    "midi": 59,
                    "time": 253.470148500004,
                    "velocity": 0.1968503937007874,
                    "duration": 0.21246450000001005
                },
                {
                    "name": "F#3",
                    "midi": 54,
                    "time": 253.682613000004,
                    "velocity": 0.23622047244094488,
                    "duration": 0.21246450000001005
                },
                {
                    "name": "D#3",
                    "midi": 51,
                    "time": 253.89507750000402,
                    "velocity": 0.2125984251968504,
                    "duration": 0.21246450000001005
                },
                {
                    "name": "B2",
                    "midi": 47,
                    "time": 254.10754200000403,
                    "velocity": 0.29133858267716534,
                    "duration": 0.21246450000001005
                },
                {
                    "name": "B3",
                    "midi": 59,
                    "time": 254.32000650000404,
                    "velocity": 0.23622047244094488,
                    "duration": 0.21246450000001005
                },
                {
                    "name": "C#3",
                    "midi": 49,
                    "time": 254.53247100000405,
                    "velocity": 0.29133858267716534,
                    "duration": 0.21246450000001005
                },
                {
                    "name": "A3",
                    "midi": 57,
                    "time": 254.74493550000406,
                    "velocity": 0.25984251968503935,
                    "duration": 0.21246450000001005
                },
                {
                    "name": "B2",
                    "midi": 47,
                    "time": 254.95740000000407,
                    "velocity": 0.2440944881889764,
                    "duration": 0.21246450000001005
                },
                {
                    "name": "G#3",
                    "midi": 56,
                    "time": 255.16986450000408,
                    "velocity": 0.28346456692913385,
                    "duration": 0.21246450000001005
                },
                {
                    "name": "E3",
                    "midi": 52,
                    "time": 255.3823290000041,
                    "velocity": 0.30708661417322836,
                    "duration": 0.21246450000001005
                },
                {
                    "name": "B2",
                    "midi": 47,
                    "time": 255.5947935000041,
                    "velocity": 0.3543307086614173,
                    "duration": 0.21246450000001005
                },
                {
                    "name": "E2",
                    "midi": 40,
                    "time": 255.8072580000041,
                    "velocity": 0.3700787401574803,
                    "duration": 0.21246449999998163
                },
                {
                    "name": "G#3",
                    "midi": 56,
                    "time": 256.0197225000041,
                    "velocity": 0.25196850393700787,
                    "duration": 0.21246450000001005
                },
                {
                    "name": "E3",
                    "midi": 52,
                    "time": 256.2321870000041,
                    "velocity": 0.28346456692913385,
                    "duration": 0.21246450000001005
                },
                {
                    "name": "B2",
                    "midi": 47,
                    "time": 256.4446515000041,
                    "velocity": 0.2283464566929134,
                    "duration": 0.21246450000001005
                },
                {
                    "name": "A2",
                    "midi": 45,
                    "time": 256.6571160000041,
                    "velocity": 0.2755905511811024,
                    "duration": 0.21246450000001005
                },
                {
                    "name": "A3",
                    "midi": 57,
                    "time": 256.86958050000413,
                    "velocity": 0.2125984251968504,
                    "duration": 0.21246450000001005
                },
                {
                    "name": "E3",
                    "midi": 52,
                    "time": 257.08204500000414,
                    "velocity": 0.2440944881889764,
                    "duration": 0.21246450000001005
                },
                {
                    "name": "C#3",
                    "midi": 49,
                    "time": 257.29450950000415,
                    "velocity": 0.2125984251968504,
                    "duration": 0.21246450000001005
                },
                {
                    "name": "A2",
                    "midi": 45,
                    "time": 257.50697400000416,
                    "velocity": 0.2440944881889764,
                    "duration": 0.21246450000001005
                },
                {
                    "name": "E3",
                    "midi": 52,
                    "time": 257.7194385000042,
                    "velocity": 0.2283464566929134,
                    "duration": 0.21246450000001005
                },
                {
                    "name": "A2",
                    "midi": 45,
                    "time": 257.9319030000042,
                    "velocity": 0.2677165354330709,
                    "duration": 0.21246450000001005
                },
                {
                    "name": "E3",
                    "midi": 52,
                    "time": 258.1443675000042,
                    "velocity": 0.2992125984251969,
                    "duration": 0.21246450000001005
                },
                {
                    "name": "A2",
                    "midi": 45,
                    "time": 258.3568320000042,
                    "velocity": 0.30708661417322836,
                    "duration": 0.21246450000001005
                },
                {
                    "name": "E3",
                    "midi": 52,
                    "time": 258.5692965000042,
                    "velocity": 0.2755905511811024,
                    "duration": 0.21246450000001005
                },
                {
                    "name": "A2",
                    "midi": 45,
                    "time": 258.7817610000042,
                    "velocity": 0.2992125984251969,
                    "duration": 0.21246450000001005
                },
                {
                    "name": "E3",
                    "midi": 52,
                    "time": 258.99422550000423,
                    "velocity": 0.2755905511811024,
                    "duration": 0.21246450000001005
                },
                {
                    "name": "A2",
                    "midi": 45,
                    "time": 259.20669000000424,
                    "velocity": 0.3464566929133858,
                    "duration": 0.21246450000001005
                },
                {
                    "name": "E3",
                    "midi": 52,
                    "time": 259.41915450000425,
                    "velocity": 0.28346456692913385,
                    "duration": 0.21246450000001005
                },
                {
                    "name": "B2",
                    "midi": 47,
                    "time": 259.63161900000426,
                    "velocity": 0.3464566929133858,
                    "duration": 0.21246450000001005
                },
                {
                    "name": "E3",
                    "midi": 52,
                    "time": 259.8440835000043,
                    "velocity": 0.29133858267716534,
                    "duration": 0.21246450000001005
                },
                {
                    "name": "C#3",
                    "midi": 49,
                    "time": 260.0565480000043,
                    "velocity": 0.4330708661417323,
                    "duration": 0.21246450000001005
                },
                {
                    "name": "E3",
                    "midi": 52,
                    "time": 260.2690125000043,
                    "velocity": 0.3779527559055118,
                    "duration": 0.21246450000001005
                },
                {
                    "name": "C#3",
                    "midi": 49,
                    "time": 260.4814770000043,
                    "velocity": 0.4251968503937008,
                    "duration": 0.21246450000001005
                },
                {
                    "name": "E3",
                    "midi": 52,
                    "time": 260.6939415000043,
                    "velocity": 0.33858267716535434,
                    "duration": 0.21246450000001005
                },
                {
                    "name": "C3",
                    "midi": 48,
                    "time": 260.9064060000043,
                    "velocity": 0.3937007874015748,
                    "duration": 0.21246450000001005
                },
                {
                    "name": "E3",
                    "midi": 52,
                    "time": 261.11887050000433,
                    "velocity": 0.30708661417322836,
                    "duration": 0.21246450000001005
                },
                {
                    "name": "C3",
                    "midi": 48,
                    "time": 261.33133500000434,
                    "velocity": 0.3858267716535433,
                    "duration": 0.21246450000001005
                },
                {
                    "name": "E3",
                    "midi": 52,
                    "time": 261.54379950000435,
                    "velocity": 0.30708661417322836,
                    "duration": 0.21246450000001005
                },
                {
                    "name": "B2",
                    "midi": 47,
                    "time": 261.75626400000436,
                    "velocity": 0.2440944881889764,
                    "duration": 0.21246450000001005
                },
                {
                    "name": "F#3",
                    "midi": 54,
                    "time": 261.9687285000044,
                    "velocity": 0.2125984251968504,
                    "duration": 0.21246450000001005
                },
                {
                    "name": "B2",
                    "midi": 47,
                    "time": 262.1811930000044,
                    "velocity": 0.2440944881889764,
                    "duration": 0.21246450000001005
                },
                {
                    "name": "F#3",
                    "midi": 54,
                    "time": 262.3936575000044,
                    "velocity": 0.2283464566929134,
                    "duration": 0.21246450000001005
                },
                {
                    "name": "A3",
                    "midi": 57,
                    "time": 262.3936575000044,
                    "velocity": 0.2283464566929134,
                    "duration": 0.21246450000001005
                },
                {
                    "name": "B2",
                    "midi": 47,
                    "time": 262.6061220000044,
                    "velocity": 0.2440944881889764,
                    "duration": 0.21246450000001005
                },
                {
                    "name": "F#3",
                    "midi": 54,
                    "time": 262.8185865000044,
                    "velocity": 0.2125984251968504,
                    "duration": 0.21246450000001005
                },
                {
                    "name": "A3",
                    "midi": 57,
                    "time": 262.8185865000044,
                    "velocity": 0.2125984251968504,
                    "duration": 0.21246450000001005
                },
                {
                    "name": "B2",
                    "midi": 47,
                    "time": 263.0310510000044,
                    "velocity": 0.2440944881889764,
                    "duration": 0.21246450000001005
                },
                {
                    "name": "A3",
                    "midi": 57,
                    "time": 263.24351550000443,
                    "velocity": 0.2204724409448819,
                    "duration": 0.21246450000001005
                },
                {
                    "name": "F#3",
                    "midi": 54,
                    "time": 263.24351550000443,
                    "velocity": 0.2204724409448819,
                    "duration": 0.21246450000001005
                },
                {
                    "name": "E3",
                    "midi": 52,
                    "time": 263.45598000000444,
                    "velocity": 0.2440944881889764,
                    "duration": 0.21246450000001005
                },
                {
                    "name": "G#3",
                    "midi": 56,
                    "time": 263.45598000000444,
                    "velocity": 0.2440944881889764,
                    "duration": 0.21246450000001005
                },
                {
                    "name": "B3",
                    "midi": 59,
                    "time": 263.66844450000445,
                    "velocity": 0.18110236220472442,
                    "duration": 0.21246450000001005
                },
                {
                    "name": "G#3",
                    "midi": 56,
                    "time": 263.88090900000446,
                    "velocity": 0.2440944881889764,
                    "duration": 0.21246450000001005
                },
                {
                    "name": "E3",
                    "midi": 52,
                    "time": 264.0933735000045,
                    "velocity": 0.1968503937007874,
                    "duration": 0.21246450000001005
                },
                {
                    "name": "D#3",
                    "midi": 51,
                    "time": 264.3058380000045,
                    "velocity": 0.2440944881889764,
                    "duration": 0.21246450000001005
                },
                {
                    "name": "B3",
                    "midi": 59,
                    "time": 264.5183025000045,
                    "velocity": 0.2125984251968504,
                    "duration": 0.21246450000001005
                },
                {
                    "name": "F#3",
                    "midi": 54,
                    "time": 264.7307670000045,
                    "velocity": 0.2440944881889764,
                    "duration": 0.21246450000001005
                },
                {
                    "name": "D#3",
                    "midi": 51,
                    "time": 264.9432315000045,
                    "velocity": 0.25196850393700787,
                    "duration": 0.21246450000001005
                },
                {
                    "name": "C#3",
                    "midi": 49,
                    "time": 265.1556960000045,
                    "velocity": 0.2992125984251969,
                    "duration": 0.21246450000001005
                },
                {
                    "name": "A#3",
                    "midi": 58,
                    "time": 265.36816050000454,
                    "velocity": 0.29133858267716534,
                    "duration": 0.21246450000001005
                },
                {
                    "name": "F#3",
                    "midi": 54,
                    "time": 265.58062500000455,
                    "velocity": 0.31496062992125984,
                    "duration": 0.21246450000001005
                },
                {
                    "name": "C#3",
                    "midi": 49,
                    "time": 265.79308950000456,
                    "velocity": 0.33858267716535434,
                    "duration": 0.21246450000001005
                },
                {
                    "name": "F#2",
                    "midi": 42,
                    "time": 266.00555400000457,
                    "velocity": 0.3464566929133858,
                    "duration": 0.21246450000001005
                },
                {
                    "name": "A#3",
                    "midi": 58,
                    "time": 266.2180185000046,
                    "velocity": 0.25984251968503935,
                    "duration": 0.21246450000001005
                },
                {
                    "name": "F#3",
                    "midi": 54,
                    "time": 266.4304830000046,
                    "velocity": 0.30708661417322836,
                    "duration": 0.21246450000001005
                },
                {
                    "name": "C#3",
                    "midi": 49,
                    "time": 266.6429475000046,
                    "velocity": 0.2125984251968504,
                    "duration": 0.21246450000001005
                },
                {
                    "name": "B2",
                    "midi": 47,
                    "time": 266.8554120000046,
                    "velocity": 0.2440944881889764,
                    "duration": 0.21246450000001005
                },
                {
                    "name": "B3",
                    "midi": 59,
                    "time": 267.0678765000046,
                    "velocity": 0.1968503937007874,
                    "duration": 0.21246450000001005
                },
                {
                    "name": "F#3",
                    "midi": 54,
                    "time": 267.2803410000046,
                    "velocity": 0.23622047244094488,
                    "duration": 0.21246450000001005
                },
                {
                    "name": "D#3",
                    "midi": 51,
                    "time": 267.49280550000464,
                    "velocity": 0.2125984251968504,
                    "duration": 0.21246450000001005
                },
                {
                    "name": "B2",
                    "midi": 47,
                    "time": 267.70527000000465,
                    "velocity": 0.29133858267716534,
                    "duration": 0.21246450000001005
                },
                {
                    "name": "B3",
                    "midi": 59,
                    "time": 267.91773450000466,
                    "velocity": 0.23622047244094488,
                    "duration": 0.21246450000001005
                },
                {
                    "name": "C#3",
                    "midi": 49,
                    "time": 268.13019900000467,
                    "velocity": 0.29133858267716534,
                    "duration": 0.21246450000001005
                },
                {
                    "name": "A3",
                    "midi": 57,
                    "time": 268.3426635000047,
                    "velocity": 0.25984251968503935,
                    "duration": 0.21246450000001005
                },
                {
                    "name": "B2",
                    "midi": 47,
                    "time": 268.5551280000047,
                    "velocity": 0.2440944881889764,
                    "duration": 0.21246450000001005
                },
                {
                    "name": "G#3",
                    "midi": 56,
                    "time": 268.7675925000047,
                    "velocity": 0.2283464566929134,
                    "duration": 0.21246450000001005
                },
                {
                    "name": "E3",
                    "midi": 52,
                    "time": 268.9800570000047,
                    "velocity": 0.2992125984251969,
                    "duration": 0.21246450000001005
                },
                {
                    "name": "B2",
                    "midi": 47,
                    "time": 269.1925215000047,
                    "velocity": 0.2992125984251969,
                    "duration": 0.21246450000001005
                },
                {
                    "name": "E2",
                    "midi": 40,
                    "time": 269.4049860000047,
                    "velocity": 0.36220472440944884,
                    "duration": 0.21246450000001005
                },
                {
                    "name": "G#3",
                    "midi": 56,
                    "time": 269.61745050000474,
                    "velocity": 0.25196850393700787,
                    "duration": 0.21246450000001005
                },
                {
                    "name": "E3",
                    "midi": 52,
                    "time": 269.82991500000475,
                    "velocity": 0.28346456692913385,
                    "duration": 0.21246450000001005
                },
                {
                    "name": "B2",
                    "midi": 47,
                    "time": 270.04237950000476,
                    "velocity": 0.2283464566929134,
                    "duration": 0.21246450000001005
                },
                {
                    "name": "A2",
                    "midi": 45,
                    "time": 270.25484400000477,
                    "velocity": 0.2755905511811024,
                    "duration": 0.21246450000001005
                },
                {
                    "name": "A3",
                    "midi": 57,
                    "time": 270.4673085000048,
                    "velocity": 0.2125984251968504,
                    "duration": 0.21246450000001005
                },
                {
                    "name": "E3",
                    "midi": 52,
                    "time": 270.6797730000048,
                    "velocity": 0.2440944881889764,
                    "duration": 0.21246450000001005
                },
                {
                    "name": "C#3",
                    "midi": 49,
                    "time": 270.8922375000048,
                    "velocity": 0.2125984251968504,
                    "duration": 0.21246450000001005
                },
                {
                    "name": "A2",
                    "midi": 45,
                    "time": 271.1047020000048,
                    "velocity": 0.2440944881889764,
                    "duration": 0.21246450000001005
                },
                {
                    "name": "E3",
                    "midi": 52,
                    "time": 271.3171665000048,
                    "velocity": 0.2283464566929134,
                    "duration": 0.21246450000001005
                },
                {
                    "name": "A2",
                    "midi": 45,
                    "time": 271.5296310000048,
                    "velocity": 0.2677165354330709,
                    "duration": 0.21246450000001005
                },
                {
                    "name": "E3",
                    "midi": 52,
                    "time": 271.74209550000484,
                    "velocity": 0.2992125984251969,
                    "duration": 0.21246450000001005
                },
                {
                    "name": "A2",
                    "midi": 45,
                    "time": 271.95456000000485,
                    "velocity": 0.30708661417322836,
                    "duration": 0.21246450000001005
                },
                {
                    "name": "E3",
                    "midi": 52,
                    "time": 272.16702450000486,
                    "velocity": 0.2755905511811024,
                    "duration": 0.21246450000001005
                },
                {
                    "name": "A2",
                    "midi": 45,
                    "time": 272.37948900000487,
                    "velocity": 0.2992125984251969,
                    "duration": 0.21246450000001005
                },
                {
                    "name": "E3",
                    "midi": 52,
                    "time": 272.5919535000049,
                    "velocity": 0.2755905511811024,
                    "duration": 0.21246450000001005
                },
                {
                    "name": "C#3",
                    "midi": 49,
                    "time": 272.8044180000049,
                    "velocity": 0.3464566929133858,
                    "duration": 0.21246450000001005
                },
                {
                    "name": "A2",
                    "midi": 45,
                    "time": 272.8044180000049,
                    "velocity": 0.29133858267716534,
                    "duration": 0.21246450000001005
                },
                {
                    "name": "E3",
                    "midi": 52,
                    "time": 273.0168825000049,
                    "velocity": 0.28346456692913385,
                    "duration": 0.21246450000001005
                },
                {
                    "name": "E3",
                    "midi": 52,
                    "time": 273.2293470000049,
                    "velocity": 0.3464566929133858,
                    "duration": 0.21246450000001005
                },
                {
                    "name": "B2",
                    "midi": 47,
                    "time": 273.2293470000049,
                    "velocity": 0.29133858267716534,
                    "duration": 0.21246450000001005
                },
                {
                    "name": "G#3",
                    "midi": 56,
                    "time": 273.4418115000049,
                    "velocity": 0.29133858267716534,
                    "duration": 0.21246450000001005
                },
                {
                    "name": "E3",
                    "midi": 52,
                    "time": 273.6542760000049,
                    "velocity": 0.4330708661417323,
                    "duration": 0.21246450000001005
                },
                {
                    "name": "C#3",
                    "midi": 49,
                    "time": 273.6542760000049,
                    "velocity": 0.3700787401574803,
                    "duration": 0.21246450000001005
                },
                {
                    "name": "A#3",
                    "midi": 58,
                    "time": 273.86674050000494,
                    "velocity": 0.3779527559055118,
                    "duration": 0.21246450000001005
                },
                {
                    "name": "E3",
                    "midi": 52,
                    "time": 274.07920500000495,
                    "velocity": 0.4251968503937008,
                    "duration": 0.21246450000001005
                },
                {
                    "name": "C#3",
                    "midi": 49,
                    "time": 274.07920500000495,
                    "velocity": 0.3543307086614173,
                    "duration": 0.21246450000001005
                },
                {
                    "name": "A#3",
                    "midi": 58,
                    "time": 274.29166950000496,
                    "velocity": 0.33858267716535434,
                    "duration": 0.21246450000001005
                },
                {
                    "name": "E3",
                    "midi": 52,
                    "time": 274.50413400000497,
                    "velocity": 0.3937007874015748,
                    "duration": 0.21246450000001005
                },
                {
                    "name": "C3",
                    "midi": 48,
                    "time": 274.50413400000497,
                    "velocity": 0.33070866141732286,
                    "duration": 0.21246450000001005
                },
                {
                    "name": "A3",
                    "midi": 57,
                    "time": 274.716598500005,
                    "velocity": 0.30708661417322836,
                    "duration": 0.21246450000001005
                },
                {
                    "name": "E3",
                    "midi": 52,
                    "time": 274.929063000005,
                    "velocity": 0.3858267716535433,
                    "duration": 0.21246450000001005
                },
                {
                    "name": "C3",
                    "midi": 48,
                    "time": 274.929063000005,
                    "velocity": 0.3228346456692913,
                    "duration": 0.21246450000001005
                },
                {
                    "name": "A3",
                    "midi": 57,
                    "time": 275.141527500005,
                    "velocity": 0.30708661417322836,
                    "duration": 0.21246450000001005
                },
                {
                    "name": "D#3",
                    "midi": 51,
                    "time": 275.353992000005,
                    "velocity": 0.2440944881889764,
                    "duration": 0.21246450000001005
                },
                {
                    "name": "B2",
                    "midi": 47,
                    "time": 275.353992000005,
                    "velocity": 0.2047244094488189,
                    "duration": 0.21246450000001005
                },
                {
                    "name": "A3",
                    "midi": 57,
                    "time": 275.566456500005,
                    "velocity": 0.2125984251968504,
                    "duration": 0.21246450000001005
                },
                {
                    "name": "D#3",
                    "midi": 51,
                    "time": 275.778921000005,
                    "velocity": 0.2440944881889764,
                    "duration": 0.21246450000001005
                },
                {
                    "name": "B2",
                    "midi": 47,
                    "time": 275.778921000005,
                    "velocity": 0.2047244094488189,
                    "duration": 0.21246450000001005
                },
                {
                    "name": "A3",
                    "midi": 57,
                    "time": 275.99138550000504,
                    "velocity": 0.2283464566929134,
                    "duration": 0.21246450000001005
                },
                {
                    "name": "D#3",
                    "midi": 51,
                    "time": 276.20385000000505,
                    "velocity": 0.2440944881889764,
                    "duration": 0.21246450000001005
                },
                {
                    "name": "B2",
                    "midi": 47,
                    "time": 276.20385000000505,
                    "velocity": 0.2047244094488189,
                    "duration": 0.21246450000001005
                },
                {
                    "name": "A3",
                    "midi": 57,
                    "time": 276.41631450000506,
                    "velocity": 0.2125984251968504,
                    "duration": 0.21246450000001005
                },
                {
                    "name": "D#3",
                    "midi": 51,
                    "time": 276.62877900000507,
                    "velocity": 0.2440944881889764,
                    "duration": 0.21246450000001005
                },
                {
                    "name": "B2",
                    "midi": 47,
                    "time": 276.62877900000507,
                    "velocity": 0.2047244094488189,
                    "duration": 0.21246450000001005
                },
                {
                    "name": "A3",
                    "midi": 57,
                    "time": 276.8412435000051,
                    "velocity": 0.2204724409448819,
                    "duration": 0.21246450000001005
                },
                {
                    "name": "E3",
                    "midi": 52,
                    "time": 277.0537080000051,
                    "velocity": 0.2440944881889764,
                    "duration": 0.21246450000001005
                },
                {
                    "name": "G#3",
                    "midi": 56,
                    "time": 277.0537080000051,
                    "velocity": 0.2440944881889764,
                    "duration": 0.21246450000001005
                },
                {
                    "name": "E3",
                    "midi": 52,
                    "time": 277.2661725000051,
                    "velocity": 0.2440944881889764,
                    "duration": 0.21246450000001005
                },
                {
                    "name": "D#3",
                    "midi": 51,
                    "time": 277.4786370000051,
                    "velocity": 0.2440944881889764,
                    "duration": 0.21246450000001005
                },
                {
                    "name": "C#3",
                    "midi": 49,
                    "time": 277.6911015000051,
                    "velocity": 0.2440944881889764,
                    "duration": 0.21246450000001005
                },
                {
                    "name": "B2",
                    "midi": 47,
                    "time": 277.9035660000051,
                    "velocity": 0.2440944881889764,
                    "duration": 0.21246450000001005
                },
                {
                    "name": "A2",
                    "midi": 45,
                    "time": 278.11603050000514,
                    "velocity": 0.23622047244094488,
                    "duration": 0.21246450000001005
                },
                {
                    "name": "G#2",
                    "midi": 44,
                    "time": 278.32849500000515,
                    "velocity": 0.1968503937007874,
                    "duration": 0.21246450000001005
                },
                {
                    "name": "F#2",
                    "midi": 42,
                    "time": 278.54095950000516,
                    "velocity": 0.1968503937007874,
                    "duration": 0.21246450000001005
                },
                {
                    "name": "E2",
                    "midi": 40,
                    "time": 278.75342400000517,
                    "velocity": 0.1968503937007874,
                    "duration": 0.4249290000000201
                },
                {
                    "name": "B1",
                    "midi": 35,
                    "time": 280.4531400000052,
                    "velocity": 0.1968503937007874,
                    "duration": 0.4249290000000201
                },
                {
                    "name": "C#2",
                    "midi": 37,
                    "time": 282.1528560000052,
                    "velocity": 0.1968503937007874,
                    "duration": 0.4249290000000201
                },
                {
                    "name": "D#2",
                    "midi": 39,
                    "time": 283.00271400000526,
                    "velocity": 0.18110236220472442,
                    "duration": 0.4249290000000201
                },
                {
                    "name": "B1",
                    "midi": 35,
                    "time": 283.4276430000053,
                    "velocity": 0.1732283464566929,
                    "duration": 0.4249290000000201
                },
                {
                    "name": "E2",
                    "midi": 40,
                    "time": 283.8525720000053,
                    "velocity": 0.2204724409448819,
                    "duration": 0.4249290000000201
                },
                {
                    "name": "E4",
                    "midi": 64,
                    "time": 284.2775010000053,
                    "velocity": 0.2204724409448819,
                    "duration": 0.21246450000001005
                },
                {
                    "name": "B3",
                    "midi": 59,
                    "time": 284.4899655000053,
                    "velocity": 0.1732283464566929,
                    "duration": 0.21246450000001005
                },
                {
                    "name": "E4",
                    "midi": 64,
                    "time": 284.70243000000534,
                    "velocity": 0.2204724409448819,
                    "duration": 0.21246450000001005
                },
                {
                    "name": "B3",
                    "midi": 59,
                    "time": 284.91489450000535,
                    "velocity": 0.1889763779527559,
                    "duration": 0.21246450000001005
                },
                {
                    "name": "E4",
                    "midi": 64,
                    "time": 285.12735900000536,
                    "velocity": 0.2204724409448819,
                    "duration": 0.21246450000001005
                },
                {
                    "name": "B3",
                    "midi": 59,
                    "time": 285.33982350000537,
                    "velocity": 0.1968503937007874,
                    "duration": 0.21246450000001005
                },
                {
                    "name": "E4",
                    "midi": 64,
                    "time": 285.5522880000054,
                    "velocity": 0.23622047244094488,
                    "duration": 0.21246450000001005
                },
                {
                    "name": "B3",
                    "midi": 59,
                    "time": 285.7647525000054,
                    "velocity": 0.2283464566929134,
                    "duration": 0.21246450000001005
                },
                {
                    "name": "E4",
                    "midi": 64,
                    "time": 285.9772170000054,
                    "velocity": 0.25196850393700787,
                    "duration": 0.21246450000001005
                },
                {
                    "name": "B3",
                    "midi": 59,
                    "time": 286.1896815000054,
                    "velocity": 0.2440944881889764,
                    "duration": 0.21246450000001005
                },
                {
                    "name": "G#4",
                    "midi": 68,
                    "time": 286.4021460000054,
                    "velocity": 0.2755905511811024,
                    "duration": 0.21246450000001005
                },
                {
                    "name": "B3",
                    "midi": 59,
                    "time": 286.6146105000054,
                    "velocity": 0.25196850393700787,
                    "duration": 0.21246450000001005
                },
                {
                    "name": "F#4",
                    "midi": 66,
                    "time": 286.82707500000544,
                    "velocity": 0.30708661417322836,
                    "duration": 0.21246450000001005
                },
                {
                    "name": "B3",
                    "midi": 59,
                    "time": 287.03953950000545,
                    "velocity": 0.28346456692913385,
                    "duration": 0.21246450000001005
                },
                {
                    "name": "E4",
                    "midi": 64,
                    "time": 287.25200400000546,
                    "velocity": 0.3858267716535433,
                    "duration": 0.21246450000001005
                },
                {
                    "name": "B3",
                    "midi": 59,
                    "time": 287.46446850000547,
                    "velocity": 0.3228346456692913,
                    "duration": 0.21246450000001005
                },
                {
                    "name": "D#4",
                    "midi": 63,
                    "time": 287.6769330000055,
                    "velocity": 0.3779527559055118,
                    "duration": 0.21246450000001005
                },
                {
                    "name": "B3",
                    "midi": 59,
                    "time": 287.8893975000055,
                    "velocity": 0.33070866141732286,
                    "duration": 0.21246450000001005
                },
                {
                    "name": "D#4",
                    "midi": 63,
                    "time": 288.1018620000055,
                    "velocity": 0.36220472440944884,
                    "duration": 0.21246450000001005
                },
                {
                    "name": "B3",
                    "midi": 59,
                    "time": 288.3143265000055,
                    "velocity": 0.30708661417322836,
                    "duration": 0.21246450000001005
                },
                {
                    "name": "F4",
                    "midi": 65,
                    "time": 288.5267910000055,
                    "velocity": 0.3858267716535433,
                    "duration": 0.21246450000001005
                },
                {
                    "name": "B3",
                    "midi": 59,
                    "time": 288.7392555000055,
                    "velocity": 0.3464566929133858,
                    "duration": 0.21246450000001005
                },
                {
                    "name": "F#4",
                    "midi": 66,
                    "time": 288.95172000000554,
                    "velocity": 0.4566929133858268,
                    "duration": 0.21246450000001005
                },
                {
                    "name": "B3",
                    "midi": 59,
                    "time": 289.16418450000555,
                    "velocity": 0.3779527559055118,
                    "duration": 0.21246450000001005
                },
                {
                    "name": "A4",
                    "midi": 69,
                    "time": 289.37664900000556,
                    "velocity": 0.41732283464566927,
                    "duration": 0.21246450000001005
                },
                {
                    "name": "B3",
                    "midi": 59,
                    "time": 289.58911350000557,
                    "velocity": 0.3700787401574803,
                    "duration": 0.21246450000001005
                },
                {
                    "name": "G#4",
                    "midi": 68,
                    "time": 289.8015780000056,
                    "velocity": 0.44881889763779526,
                    "duration": 0.21246450000001005
                },
                {
                    "name": "B3",
                    "midi": 59,
                    "time": 290.0140425000056,
                    "velocity": 0.3464566929133858,
                    "duration": 0.21246450000001005
                },
                {
                    "name": "F#4",
                    "midi": 66,
                    "time": 290.2265070000056,
                    "velocity": 0.4251968503937008,
                    "duration": 0.21246450000001005
                },
                {
                    "name": "B3",
                    "midi": 59,
                    "time": 290.4389715000056,
                    "velocity": 0.36220472440944884,
                    "duration": 0.21246450000001005
                },
                {
                    "name": "E4",
                    "midi": 64,
                    "time": 290.6514360000056,
                    "velocity": 0.4645669291338583,
                    "duration": 0.21246450000001005
                },
                {
                    "name": "B3",
                    "midi": 59,
                    "time": 290.8639005000056,
                    "velocity": 0.3858267716535433,
                    "duration": 0.21246450000001005
                },
                {
                    "name": "G#3",
                    "midi": 56,
                    "time": 291.07636500000564,
                    "velocity": 0.4566929133858268,
                    "duration": 0.21246450000001005
                },
                {
                    "name": "B3",
                    "midi": 59,
                    "time": 291.28882950000565,
                    "velocity": 0.3937007874015748,
                    "duration": 0.21246450000001005
                },
                {
                    "name": "E3",
                    "midi": 52,
                    "time": 291.50129400000566,
                    "velocity": 0.4645669291338583,
                    "duration": 0.4249290000000201
                },
                {
                    "name": "C#4",
                    "midi": 61,
                    "time": 292.3511520000057,
                    "velocity": 0.5275590551181102,
                    "duration": 0.21246450000001005
                },
                {
                    "name": "G#3",
                    "midi": 56,
                    "time": 292.5636165000057,
                    "velocity": 0.44881889763779526,
                    "duration": 0.21246450000001005
                },
                {
                    "name": "E3",
                    "midi": 52,
                    "time": 292.7760810000057,
                    "velocity": 0.4881889763779528,
                    "duration": 0.21246450000001005
                },
                {
                    "name": "G#3",
                    "midi": 56,
                    "time": 292.9885455000057,
                    "velocity": 0.44881889763779526,
                    "duration": 0.21246450000001005
                },
                {
                    "name": "C#3",
                    "midi": 49,
                    "time": 293.20101000000574,
                    "velocity": 0.5511811023622047,
                    "duration": 0.4249290000000201
                },
                {
                    "name": "C#4",
                    "midi": 61,
                    "time": 293.62593900000576,
                    "velocity": 0.2047244094488189,
                    "duration": 0.21246450000001005
                },
                {
                    "name": "C4",
                    "midi": 60,
                    "time": 294.0508680000058,
                    "velocity": 0.25984251968503935,
                    "duration": 0.21246450000001005
                },
                {
                    "name": "G#3",
                    "midi": 56,
                    "time": 294.2633325000058,
                    "velocity": 0.2125984251968504,
                    "duration": 0.21246450000001005
                },
                {
                    "name": "D#3",
                    "midi": 51,
                    "time": 294.4757970000058,
                    "velocity": 0.25984251968503935,
                    "duration": 0.21246450000001005
                },
                {
                    "name": "G#3",
                    "midi": 56,
                    "time": 294.6882615000058,
                    "velocity": 0.2125984251968504,
                    "duration": 0.21246450000001005
                },
                {
                    "name": "C3",
                    "midi": 48,
                    "time": 294.9007260000058,
                    "velocity": 0.28346456692913385,
                    "duration": 0.4249290000000201
                },
                {
                    "name": "C4",
                    "midi": 60,
                    "time": 295.32565500000584,
                    "velocity": 0.6062992125984252,
                    "duration": 0.21246450000001005
                },
                {
                    "name": "B3",
                    "midi": 59,
                    "time": 295.75058400000586,
                    "velocity": 0.5275590551181102,
                    "duration": 0.21246450000001005
                },
                {
                    "name": "G#3",
                    "midi": 56,
                    "time": 295.96304850000587,
                    "velocity": 0.44881889763779526,
                    "duration": 0.21246450000001005
                },
                {
                    "name": "E3",
                    "midi": 52,
                    "time": 296.1755130000059,
                    "velocity": 0.4881889763779528,
                    "duration": 0.21246450000001005
                },
                {
                    "name": "G#3",
                    "midi": 56,
                    "time": 296.3879775000059,
                    "velocity": 0.44881889763779526,
                    "duration": 0.21246450000001005
                },
                {
                    "name": "B2",
                    "midi": 47,
                    "time": 296.6004420000059,
                    "velocity": 0.5511811023622047,
                    "duration": 0.4249290000000201
                },
                {
                    "name": "B3",
                    "midi": 59,
                    "time": 297.0253710000059,
                    "velocity": 0.2047244094488189,
                    "duration": 0.21246450000001005
                },
                {
                    "name": "A3",
                    "midi": 57,
                    "time": 297.45030000000594,
                    "velocity": 0.25984251968503935,
                    "duration": 0.21246450000001005
                },
                {
                    "name": "E3",
                    "midi": 52,
                    "time": 297.66276450000595,
                    "velocity": 0.2125984251968504,
                    "duration": 0.21246450000001005
                },
                {
                    "name": "C#3",
                    "midi": 49,
                    "time": 297.87522900000596,
                    "velocity": 0.25984251968503935,
                    "duration": 0.21246450000001005
                },
                {
                    "name": "E3",
                    "midi": 52,
                    "time": 298.08769350000597,
                    "velocity": 0.2125984251968504,
                    "duration": 0.21246450000001005
                },
                {
                    "name": "A2",
                    "midi": 45,
                    "time": 298.300158000006,
                    "velocity": 0.28346456692913385,
                    "duration": 0.4249290000000201
                },
                {
                    "name": "A3",
                    "midi": 57,
                    "time": 298.725087000006,
                    "velocity": 0.6535433070866141,
                    "duration": 0.21246450000001005
                },
                {
                    "name": "G#3",
                    "midi": 56,
                    "time": 299.150016000006,
                    "velocity": 0.5275590551181102,
                    "duration": 0.21246450000001005
                },
                {
                    "name": "F3",
                    "midi": 53,
                    "time": 299.36248050000603,
                    "velocity": 0.44881889763779526,
                    "duration": 0.21246450000001005
                },
                {
                    "name": "C#3",
                    "midi": 49,
                    "time": 299.57494500000604,
                    "velocity": 0.4881889763779528,
                    "duration": 0.21246450000001005
                },
                {
                    "name": "F3",
                    "midi": 53,
                    "time": 299.78740950000605,
                    "velocity": 0.44881889763779526,
                    "duration": 0.21246450000001005
                },
                {
                    "name": "G#2",
                    "midi": 44,
                    "time": 299.99987400000606,
                    "velocity": 0.5511811023622047,
                    "duration": 0.4249290000000201
                },
                {
                    "name": "G#3",
                    "midi": 56,
                    "time": 300.4248030000061,
                    "velocity": 0.2047244094488189,
                    "duration": 0.21246450000001005
                },
                {
                    "name": "F#3",
                    "midi": 54,
                    "time": 300.8497320000061,
                    "velocity": 0.25984251968503935,
                    "duration": 0.21246450000001005
                },
                {
                    "name": "C#3",
                    "midi": 49,
                    "time": 301.0621965000061,
                    "velocity": 0.2125984251968504,
                    "duration": 0.21246450000001005
                },
                {
                    "name": "A2",
                    "midi": 45,
                    "time": 301.2746610000061,
                    "velocity": 0.25984251968503935,
                    "duration": 0.21246450000001005
                },
                {
                    "name": "C#3",
                    "midi": 49,
                    "time": 301.48712550000613,
                    "velocity": 0.2125984251968504,
                    "duration": 0.21246450000001005
                },
                {
                    "name": "F#2",
                    "midi": 42,
                    "time": 301.69959000000614,
                    "velocity": 0.28346456692913385,
                    "duration": 0.4249290000000201
                },
                {
                    "name": "F#4",
                    "midi": 66,
                    "time": 302.12451900000616,
                    "velocity": 0.6062992125984252,
                    "duration": 0.21246450000001005
                },
                {
                    "name": "D#4",
                    "midi": 63,
                    "time": 302.5494480000062,
                    "velocity": 0.5275590551181102,
                    "duration": 0.21246450000001005
                },
                {
                    "name": "B3",
                    "midi": 59,
                    "time": 302.7619125000062,
                    "velocity": 0.44881889763779526,
                    "duration": 0.21246450000001005
                },
                {
                    "name": "F#3",
                    "midi": 54,
                    "time": 302.9743770000062,
                    "velocity": 0.4881889763779528,
                    "duration": 0.21246450000001005
                },
                {
                    "name": "B3",
                    "midi": 59,
                    "time": 303.1868415000062,
                    "velocity": 0.44881889763779526,
                    "duration": 0.21246450000001005
                },
                {
                    "name": "D#3",
                    "midi": 51,
                    "time": 303.3993060000062,
                    "velocity": 0.5511811023622047,
                    "duration": 0.4249290000000201
                },
                {
                    "name": "D#3",
                    "midi": 51,
                    "time": 303.82423500000624,
                    "velocity": 0.6062992125984252,
                    "duration": 0.21246450000001005
                },
                {
                    "name": "C3",
                    "midi": 48,
                    "time": 304.24916400000626,
                    "velocity": 0.5275590551181102,
                    "duration": 0.21246450000001005
                },
                {
                    "name": "A2",
                    "midi": 45,
                    "time": 304.46162850000627,
                    "velocity": 0.44881889763779526,
                    "duration": 0.21246450000001005
                },
                {
                    "name": "E2",
                    "midi": 40,
                    "time": 304.6740930000063,
                    "velocity": 0.4881889763779528,
                    "duration": 0.21246450000001005
                },
                {
                    "name": "A2",
                    "midi": 45,
                    "time": 304.8865575000063,
                    "velocity": 0.44881889763779526,
                    "duration": 0.21246450000001005
                },
                {
                    "name": "C2",
                    "midi": 36,
                    "time": 305.0990220000063,
                    "velocity": 0.5511811023622047,
                    "duration": 0.4249290000000201
                },
                {
                    "name": "C3",
                    "midi": 48,
                    "time": 305.5239510000063,
                    "velocity": 0.49606299212598426,
                    "duration": 0.21246450000001005
                },
                {
                    "name": "C4",
                    "midi": 60,
                    "time": 305.5239510000063,
                    "velocity": 0.6062992125984252,
                    "duration": 0.21246450000001005
                },
                {
                    "name": "B2",
                    "midi": 47,
                    "time": 305.94888000000634,
                    "velocity": 0.3779527559055118,
                    "duration": 0.4249290000000201
                },
                {
                    "name": "B3",
                    "midi": 59,
                    "time": 305.94888000000634,
                    "velocity": 0.3779527559055118,
                    "duration": 0.4249290000000201
                },
                {
                    "name": "B4",
                    "midi": 71,
                    "time": 306.37380900000636,
                    "velocity": 0.25984251968503935,
                    "duration": 0.21246450000001005
                },
                {
                    "name": "C#5",
                    "midi": 73,
                    "time": 306.58627350000637,
                    "velocity": 0.2125984251968504,
                    "duration": 0.21246450000001005
                },
                {
                    "name": "B4",
                    "midi": 71,
                    "time": 306.7987380000064,
                    "velocity": 0.25984251968503935,
                    "duration": 0.21246450000001005
                },
                {
                    "name": "C#5",
                    "midi": 73,
                    "time": 307.0112025000064,
                    "velocity": 0.2283464566929134,
                    "duration": 0.21246450000001005
                },
                {
                    "name": "B4",
                    "midi": 71,
                    "time": 307.2236670000064,
                    "velocity": 0.25984251968503935,
                    "duration": 0.21246450000001005
                },
                {
                    "name": "C#5",
                    "midi": 73,
                    "time": 307.4361315000064,
                    "velocity": 0.2283464566929134,
                    "duration": 0.21246450000001005
                },
                {
                    "name": "B4",
                    "midi": 71,
                    "time": 307.6485960000064,
                    "velocity": 0.25196850393700787,
                    "duration": 0.21246450000001005
                },
                {
                    "name": "F#4",
                    "midi": 66,
                    "time": 307.6485960000064,
                    "velocity": 0.3228346456692913,
                    "duration": 1.2747870000000603
                },
                {
                    "name": "D#4",
                    "midi": 63,
                    "time": 307.6485960000064,
                    "velocity": 0.2677165354330709,
                    "duration": 1.2747870000000603
                },
                {
                    "name": "C#5",
                    "midi": 73,
                    "time": 307.86106050000643,
                    "velocity": 0.2125984251968504,
                    "duration": 0.21246450000001005
                },
                {
                    "name": "B4",
                    "midi": 71,
                    "time": 308.07352500000644,
                    "velocity": 0.2440944881889764,
                    "duration": 0.21246450000001005
                },
                {
                    "name": "C#5",
                    "midi": 73,
                    "time": 308.28598950000645,
                    "velocity": 0.2047244094488189,
                    "duration": 0.21246450000001005
                },
                {
                    "name": "B4",
                    "midi": 71,
                    "time": 308.49845400000646,
                    "velocity": 0.2992125984251969,
                    "duration": 0.21246450000001005
                },
                {
                    "name": "C#5",
                    "midi": 73,
                    "time": 308.71091850000647,
                    "velocity": 0.25196850393700787,
                    "duration": 0.21246450000001005
                },
                {
                    "name": "E4",
                    "midi": 64,
                    "time": 308.9233830000065,
                    "velocity": 0.36220472440944884,
                    "duration": 0.3824361000000067
                },
                {
                    "name": "G#4",
                    "midi": 68,
                    "time": 308.9233830000065,
                    "velocity": 0.36220472440944884,
                    "duration": 0.3824361000000067
                },
                {
                    "name": "B4",
                    "midi": 71,
                    "time": 308.9233830000065,
                    "velocity": 0.36220472440944884,
                    "duration": 0.21246450000001005
                },
                {
                    "name": "C#5",
                    "midi": 73,
                    "time": 309.1358475000065,
                    "velocity": 0.28346456692913385,
                    "duration": 0.21246450000001005
                },
                {
                    "name": "E4",
                    "midi": 64,
                    "time": 309.3483120000065,
                    "velocity": 0.4094488188976378,
                    "duration": 0.4249290000000201
                },
                {
                    "name": "G#4",
                    "midi": 68,
                    "time": 309.3483120000065,
                    "velocity": 0.4094488188976378,
                    "duration": 0.4249290000000201
                },
                {
                    "name": "B4",
                    "midi": 71,
                    "time": 309.3483120000065,
                    "velocity": 0.4094488188976378,
                    "duration": 0.21246450000001005
                },
                {
                    "name": "C#5",
                    "midi": 73,
                    "time": 309.5607765000065,
                    "velocity": 0.2283464566929134,
                    "duration": 0.21246450000001005
                },
                {
                    "name": "B4",
                    "midi": 71,
                    "time": 309.7732410000065,
                    "velocity": 0.25196850393700787,
                    "duration": 0.21246450000001005
                },
                {
                    "name": "A4",
                    "midi": 69,
                    "time": 309.7732410000065,
                    "velocity": 0.3228346456692913,
                    "duration": 0.3824361000000067
                },
                {
                    "name": "F#4",
                    "midi": 66,
                    "time": 309.7732410000065,
                    "velocity": 0.2677165354330709,
                    "duration": 0.3824361000000067
                },
                {
                    "name": "C#5",
                    "midi": 73,
                    "time": 309.98570550000653,
                    "velocity": 0.2204724409448819,
                    "duration": 0.21246450000001005
                },
                {
                    "name": "F#4",
                    "midi": 66,
                    "time": 310.19817000000654,
                    "velocity": 0.2204724409448819,
                    "duration": 0.4249290000000201
                },
                {
                    "name": "A4",
                    "midi": 69,
                    "time": 310.19817000000654,
                    "velocity": 0.25984251968503935,
                    "duration": 0.4249290000000201
                },
                {
                    "name": "B4",
                    "midi": 71,
                    "time": 310.19817000000654,
                    "velocity": 0.2047244094488189,
                    "duration": 0.21246450000001005
                },
                {
                    "name": "C#5",
                    "midi": 73,
                    "time": 310.41063450000655,
                    "velocity": 0.1889763779527559,
                    "duration": 0.21246450000001005
                },
                {
                    "name": "E4",
                    "midi": 64,
                    "time": 310.62309900000656,
                    "velocity": 0.2204724409448819,
                    "duration": 0.4249290000000201
                },
                {
                    "name": "G#4",
                    "midi": 68,
                    "time": 310.62309900000656,
                    "velocity": 0.25984251968503935,
                    "duration": 0.4249290000000201
                },
                {
                    "name": "B4",
                    "midi": 71,
                    "time": 310.62309900000656,
                    "velocity": 0.2047244094488189,
                    "duration": 0.21246450000001005
                },
                {
                    "name": "C#5",
                    "midi": 73,
                    "time": 310.8355635000066,
                    "velocity": 0.1889763779527559,
                    "duration": 0.21246450000001005
                },
                {
                    "name": "B4",
                    "midi": 71,
                    "time": 311.0480280000066,
                    "velocity": 0.25196850393700787,
                    "duration": 0.21246450000001005
                },
                {
                    "name": "F#4",
                    "midi": 66,
                    "time": 311.0480280000066,
                    "velocity": 0.3228346456692913,
                    "duration": 1.2747870000000603
                },
                {
                    "name": "D#4",
                    "midi": 63,
                    "time": 311.0480280000066,
                    "velocity": 0.2677165354330709,
                    "duration": 1.2747870000000603
                },
                {
                    "name": "C#5",
                    "midi": 73,
                    "time": 311.2604925000066,
                    "velocity": 0.2125984251968504,
                    "duration": 0.21246450000001005
                },
                {
                    "name": "B4",
                    "midi": 71,
                    "time": 311.4729570000066,
                    "velocity": 0.2440944881889764,
                    "duration": 0.21246450000001005
                },
                {
                    "name": "C#5",
                    "midi": 73,
                    "time": 311.6854215000066,
                    "velocity": 0.2047244094488189,
                    "duration": 0.21246450000001005
                },
                {
                    "name": "B4",
                    "midi": 71,
                    "time": 311.8978860000066,
                    "velocity": 0.25196850393700787,
                    "duration": 0.21246450000001005
                },
                {
                    "name": "C#5",
                    "midi": 73,
                    "time": 312.11035050000663,
                    "velocity": 0.25196850393700787,
                    "duration": 0.21246450000001005
                },
                {
                    "name": "E4",
                    "midi": 64,
                    "time": 312.32281500000664,
                    "velocity": 0.3543307086614173,
                    "duration": 0.3824361000000067
                },
                {
                    "name": "G#4",
                    "midi": 68,
                    "time": 312.32281500000664,
                    "velocity": 0.3543307086614173,
                    "duration": 0.3824361000000067
                },
                {
                    "name": "B4",
                    "midi": 71,
                    "time": 312.32281500000664,
                    "velocity": 0.3543307086614173,
                    "duration": 0.21246450000001005
                },
                {
                    "name": "C#5",
                    "midi": 73,
                    "time": 312.53527950000665,
                    "velocity": 0.3228346456692913,
                    "duration": 0.21246450000001005
                },
                {
                    "name": "B4",
                    "midi": 71,
                    "time": 312.74774400000666,
                    "velocity": 0.29133858267716534,
                    "duration": 0.21246450000001005
                },
                {
                    "name": "A4",
                    "midi": 69,
                    "time": 312.74774400000666,
                    "velocity": 0.3700787401574803,
                    "duration": 0.4249290000000201
                },
                {
                    "name": "F#4",
                    "midi": 66,
                    "time": 312.74774400000666,
                    "velocity": 0.30708661417322836,
                    "duration": 0.4249290000000201
                },
                {
                    "name": "C#5",
                    "midi": 73,
                    "time": 312.9602085000067,
                    "velocity": 0.2283464566929134,
                    "duration": 0.21246450000001005
                },
                {
                    "name": "B4",
                    "midi": 71,
                    "time": 313.1726730000067,
                    "velocity": 0.25196850393700787,
                    "duration": 0.21246450000001005
                },
                {
                    "name": "F#4",
                    "midi": 66,
                    "time": 313.1726730000067,
                    "velocity": 0.3228346456692913,
                    "duration": 0.3824361000000067
                },
                {
                    "name": "D#4",
                    "midi": 63,
                    "time": 313.1726730000067,
                    "velocity": 0.2677165354330709,
                    "duration": 0.3824361000000067
                },
                {
                    "name": "C#5",
                    "midi": 73,
                    "time": 313.3851375000067,
                    "velocity": 0.2204724409448819,
                    "duration": 0.21246450000001005
                },
                {
                    "name": "E4",
                    "midi": 64,
                    "time": 313.5976020000067,
                    "velocity": 0.2204724409448819,
                    "duration": 0.4249290000000201
                },
                {
                    "name": "G#4",
                    "midi": 68,
                    "time": 313.5976020000067,
                    "velocity": 0.25984251968503935,
                    "duration": 0.4249290000000201
                },
                {
                    "name": "B4",
                    "midi": 71,
                    "time": 313.5976020000067,
                    "velocity": 0.2047244094488189,
                    "duration": 0.21246450000001005
                },
                {
                    "name": "C#5",
                    "midi": 73,
                    "time": 313.8100665000067,
                    "velocity": 0.1889763779527559,
                    "duration": 0.21246450000001005
                },
                {
                    "name": "F#4",
                    "midi": 66,
                    "time": 314.0225310000067,
                    "velocity": 0.2204724409448819,
                    "duration": 0.4249290000000201
                },
                {
                    "name": "A4",
                    "midi": 69,
                    "time": 314.0225310000067,
                    "velocity": 0.25984251968503935,
                    "duration": 0.4249290000000201
                },
                {
                    "name": "B4",
                    "midi": 71,
                    "time": 314.0225310000067,
                    "velocity": 0.2047244094488189,
                    "duration": 0.21246450000001005
                },
                {
                    "name": "C#5",
                    "midi": 73,
                    "time": 314.23499550000673,
                    "velocity": 0.1889763779527559,
                    "duration": 0.21246450000001005
                },
                {
                    "name": "G#4",
                    "midi": 68,
                    "time": 314.44746000000674,
                    "velocity": 0.2204724409448819,
                    "duration": 0.4249290000000201
                },
                {
                    "name": "B4",
                    "midi": 71,
                    "time": 314.44746000000674,
                    "velocity": 0.25984251968503935,
                    "duration": 0.21246450000001005
                },
                {
                    "name": "E5",
                    "midi": 76,
                    "time": 314.65992450000675,
                    "velocity": 0.2125984251968504,
                    "duration": 0.21246450000001005
                },
                {
                    "name": "B4",
                    "midi": 71,
                    "time": 314.87238900000676,
                    "velocity": 0.2440944881889764,
                    "duration": 0.21246450000001005
                },
                {
                    "name": "E5",
                    "midi": 76,
                    "time": 315.0848535000068,
                    "velocity": 0.2125984251968504,
                    "duration": 0.21246450000001005
                },
                {
                    "name": "A4",
                    "midi": 69,
                    "time": 315.2973180000068,
                    "velocity": 0.25984251968503935,
                    "duration": 0.21246450000001005
                },
                {
                    "name": "E5",
                    "midi": 76,
                    "time": 315.5097825000068,
                    "velocity": 0.2047244094488189,
                    "duration": 0.21246450000001005
                },
                {
                    "name": "G#4",
                    "midi": 68,
                    "time": 315.7222470000068,
                    "velocity": 0.23622047244094488,
                    "duration": 0.21246450000001005
                },
                {
                    "name": "E5",
                    "midi": 76,
                    "time": 315.9347115000068,
                    "velocity": 0.2125984251968504,
                    "duration": 0.21246450000001005
                },
                {
                    "name": "A4",
                    "midi": 69,
                    "time": 316.1471760000068,
                    "velocity": 0.25984251968503935,
                    "duration": 0.21246450000001005
                },
                {
                    "name": "E5",
                    "midi": 76,
                    "time": 316.35964050000683,
                    "velocity": 0.2047244094488189,
                    "duration": 0.21246450000001005
                },
                {
                    "name": "B4",
                    "midi": 71,
                    "time": 316.57210500000684,
                    "velocity": 0.2440944881889764,
                    "duration": 0.21246450000001005
                },
                {
                    "name": "E5",
                    "midi": 76,
                    "time": 316.78456950000685,
                    "velocity": 0.1968503937007874,
                    "duration": 0.21246450000001005
                },
                {
                    "name": "C#5",
                    "midi": 73,
                    "time": 316.99703400000686,
                    "velocity": 0.25984251968503935,
                    "duration": 0.21246450000001005
                },
                {
                    "name": "E5",
                    "midi": 76,
                    "time": 317.2094985000069,
                    "velocity": 0.1968503937007874,
                    "duration": 0.21246450000001005
                },
                {
                    "name": "A#4",
                    "midi": 70,
                    "time": 317.4219630000069,
                    "velocity": 0.23622047244094488,
                    "duration": 0.21246450000001005
                },
                {
                    "name": "E5",
                    "midi": 76,
                    "time": 317.6344275000069,
                    "velocity": 0.2125984251968504,
                    "duration": 0.21246450000001005
                },
                {
                    "name": "B4",
                    "midi": 71,
                    "time": 317.8468920000069,
                    "velocity": 0.25984251968503935,
                    "duration": 1.6997160000000804
                },
                {
                    "name": "C#5",
                    "midi": 73,
                    "time": 318.0593565000069,
                    "velocity": 0.2125984251968504,
                    "duration": 0.21246450000001005
                },
                {
                    "name": "D#5",
                    "midi": 75,
                    "time": 318.2718210000069,
                    "velocity": 0.25196850393700787,
                    "duration": 0.21246450000001005
                },
                {
                    "name": "E5",
                    "midi": 76,
                    "time": 318.48428550000693,
                    "velocity": 0.2047244094488189,
                    "duration": 0.21246450000001005
                },
                {
                    "name": "D#5",
                    "midi": 75,
                    "time": 318.69675000000694,
                    "velocity": 0.2440944881889764,
                    "duration": 0.21246450000001005
                },
                {
                    "name": "E5",
                    "midi": 76,
                    "time": 318.90921450000695,
                    "velocity": 0.2125984251968504,
                    "duration": 0.21246450000001005
                },
                {
                    "name": "F#5",
                    "midi": 78,
                    "time": 319.12167900000696,
                    "velocity": 0.2283464566929134,
                    "duration": 0.21246450000001005
                },
                {
                    "name": "G#5",
                    "midi": 80,
                    "time": 319.334143500007,
                    "velocity": 0.2125984251968504,
                    "duration": 0.21246450000001005
                },
                {
                    "name": "D#5",
                    "midi": 75,
                    "time": 319.546608000007,
                    "velocity": 0.25984251968503935,
                    "duration": 0.4249290000000201
                },
                {
                    "name": "B4",
                    "midi": 71,
                    "time": 319.546608000007,
                    "velocity": 0.25984251968503935,
                    "duration": 0.4249290000000201
                },
                {
                    "name": "C#4",
                    "midi": 61,
                    "time": 319.971537000007,
                    "velocity": 0.25984251968503935,
                    "duration": 0.21246450000001005
                },
                {
                    "name": "B3",
                    "midi": 59,
                    "time": 320.184001500007,
                    "velocity": 0.23622047244094488,
                    "duration": 0.21246450000001005
                },
                {
                    "name": "C#4",
                    "midi": 61,
                    "time": 320.396466000007,
                    "velocity": 0.25984251968503935,
                    "duration": 0.21246450000001005
                },
                {
                    "name": "B3",
                    "midi": 59,
                    "time": 320.60893050000703,
                    "velocity": 0.2283464566929134,
                    "duration": 0.21246450000001005
                },
                {
                    "name": "C#4",
                    "midi": 61,
                    "time": 320.82139500000704,
                    "velocity": 0.25984251968503935,
                    "duration": 0.21246450000001005
                },
                {
                    "name": "B3",
                    "midi": 59,
                    "time": 321.03385950000705,
                    "velocity": 0.25984251968503935,
                    "duration": 0.21246450000001005
                },
                {
                    "name": "C#4",
                    "midi": 61,
                    "time": 321.24632400000706,
                    "velocity": 0.25196850393700787,
                    "duration": 0.21246450000001005
                },
                {
                    "name": "F#3",
                    "midi": 54,
                    "time": 321.24632400000706,
                    "velocity": 0.3228346456692913,
                    "duration": 1.2747870000000603
                },
                {
                    "name": "D#3",
                    "midi": 51,
                    "time": 321.24632400000706,
                    "velocity": 0.2677165354330709,
                    "duration": 1.2747870000000603
                },
                {
                    "name": "B3",
                    "midi": 59,
                    "time": 321.4587885000071,
                    "velocity": 0.2125984251968504,
                    "duration": 0.21246450000001005
                },
                {
                    "name": "C#4",
                    "midi": 61,
                    "time": 321.6712530000071,
                    "velocity": 0.2440944881889764,
                    "duration": 0.21246450000001005
                },
                {
                    "name": "B3",
                    "midi": 59,
                    "time": 321.8837175000071,
                    "velocity": 0.2047244094488189,
                    "duration": 0.21246450000001005
                },
                {
                    "name": "C#4",
                    "midi": 61,
                    "time": 322.0961820000071,
                    "velocity": 0.25196850393700787,
                    "duration": 0.21246450000001005
                },
                {
                    "name": "B3",
                    "midi": 59,
                    "time": 322.3086465000071,
                    "velocity": 0.25196850393700787,
                    "duration": 0.21246450000001005
                },
                {
                    "name": "C#4",
                    "midi": 61,
                    "time": 322.5211110000071,
                    "velocity": 0.25984251968503935,
                    "duration": 0.21246450000001005
                },
                {
                    "name": "G#3",
                    "midi": 56,
                    "time": 322.5211110000071,
                    "velocity": 0.33070866141732286,
                    "duration": 0.3824361000000067
                },
                {
                    "name": "E3",
                    "midi": 52,
                    "time": 322.5211110000071,
                    "velocity": 0.2755905511811024,
                    "duration": 0.3824361000000067
                },
                {
                    "name": "B3",
                    "midi": 59,
                    "time": 322.73357550000713,
                    "velocity": 0.28346456692913385,
                    "duration": 0.21246450000001005
                },
                {
                    "name": "C#4",
                    "midi": 61,
                    "time": 322.94604000000714,
                    "velocity": 0.29133858267716534,
                    "duration": 0.21246450000001005
                },
                {
                    "name": "G#3",
                    "midi": 56,
                    "time": 322.94604000000714,
                    "velocity": 0.3700787401574803,
                    "duration": 0.4249290000000201
                },
                {
                    "name": "E3",
                    "midi": 52,
                    "time": 322.94604000000714,
                    "velocity": 0.30708661417322836,
                    "duration": 0.4249290000000201
                },
                {
                    "name": "B3",
                    "midi": 59,
                    "time": 323.15850450000715,
                    "velocity": 0.2283464566929134,
                    "duration": 0.21246450000001005
                },
                {
                    "name": "C#4",
                    "midi": 61,
                    "time": 323.37096900000716,
                    "velocity": 0.25196850393700787,
                    "duration": 0.21246450000001005
                },
                {
                    "name": "A3",
                    "midi": 57,
                    "time": 323.37096900000716,
                    "velocity": 0.3228346456692913,
                    "duration": 0.3824361000000067
                },
                {
                    "name": "F#3",
                    "midi": 54,
                    "time": 323.37096900000716,
                    "velocity": 0.2677165354330709,
                    "duration": 0.3824361000000067
                },
                {
                    "name": "B3",
                    "midi": 59,
                    "time": 323.5834335000072,
                    "velocity": 0.2204724409448819,
                    "duration": 0.21246450000001005
                },
                {
                    "name": "F#3",
                    "midi": 54,
                    "time": 323.7958980000072,
                    "velocity": 0.2204724409448819,
                    "duration": 0.4249290000000201
                },
                {
                    "name": "A3",
                    "midi": 57,
                    "time": 323.7958980000072,
                    "velocity": 0.25984251968503935,
                    "duration": 0.4249290000000201
                },
                {
                    "name": "C#4",
                    "midi": 61,
                    "time": 323.7958980000072,
                    "velocity": 0.2047244094488189,
                    "duration": 0.21246450000001005
                },
                {
                    "name": "B3",
                    "midi": 59,
                    "time": 324.0083625000072,
                    "velocity": 0.1889763779527559,
                    "duration": 0.21246450000001005
                },
                {
                    "name": "E3",
                    "midi": 52,
                    "time": 324.2208270000072,
                    "velocity": 0.2204724409448819,
                    "duration": 0.4249290000000201
                },
                {
                    "name": "G#3",
                    "midi": 56,
                    "time": 324.2208270000072,
                    "velocity": 0.25984251968503935,
                    "duration": 0.4249290000000201
                },
                {
                    "name": "C#4",
                    "midi": 61,
                    "time": 324.2208270000072,
                    "velocity": 0.2047244094488189,
                    "duration": 0.21246450000001005
                },
                {
                    "name": "B3",
                    "midi": 59,
                    "time": 324.4332915000072,
                    "velocity": 0.1889763779527559,
                    "duration": 0.21246450000001005
                },
                {
                    "name": "C#4",
                    "midi": 61,
                    "time": 324.6457560000072,
                    "velocity": 0.25196850393700787,
                    "duration": 0.21246450000001005
                },
                {
                    "name": "F#3",
                    "midi": 54,
                    "time": 324.6457560000072,
                    "velocity": 0.3228346456692913,
                    "duration": 1.2747870000000603
                },
                {
                    "name": "D#3",
                    "midi": 51,
                    "time": 324.6457560000072,
                    "velocity": 0.2677165354330709,
                    "duration": 1.2747870000000603
                },
                {
                    "name": "B3",
                    "midi": 59,
                    "time": 324.85822050000723,
                    "velocity": 0.2125984251968504,
                    "duration": 0.21246450000001005
                },
                {
                    "name": "C#4",
                    "midi": 61,
                    "time": 325.07068500000724,
                    "velocity": 0.2440944881889764,
                    "duration": 0.21246450000001005
                },
                {
                    "name": "B3",
                    "midi": 59,
                    "time": 325.28314950000726,
                    "velocity": 0.2047244094488189,
                    "duration": 0.21246450000001005
                },
                {
                    "name": "C#4",
                    "midi": 61,
                    "time": 325.49561400000727,
                    "velocity": 0.25196850393700787,
                    "duration": 0.21246450000001005
                },
                {
                    "name": "B3",
                    "midi": 59,
                    "time": 325.7080785000073,
                    "velocity": 0.25196850393700787,
                    "duration": 0.21246450000001005
                },
                {
                    "name": "C#4",
                    "midi": 61,
                    "time": 325.9205430000073,
                    "velocity": 0.25984251968503935,
                    "duration": 0.21246450000001005
                },
                {
                    "name": "G#3",
                    "midi": 56,
                    "time": 325.9205430000073,
                    "velocity": 0.33070866141732286,
                    "duration": 0.3824361000000067
                },
                {
                    "name": "E3",
                    "midi": 52,
                    "time": 325.9205430000073,
                    "velocity": 0.2755905511811024,
                    "duration": 0.3824361000000067
                },
                {
                    "name": "B3",
                    "midi": 59,
                    "time": 326.1330075000073,
                    "velocity": 0.28346456692913385,
                    "duration": 0.21246450000001005
                },
                {
                    "name": "A3",
                    "midi": 57,
                    "time": 326.3454720000073,
                    "velocity": 0.25196850393700787,
                    "duration": 0.21246450000001005
                },
                {
                    "name": "F#3",
                    "midi": 54,
                    "time": 326.3454720000073,
                    "velocity": 0.30708661417322836,
                    "duration": 0.4249290000000201
                },
                {
                    "name": "B3",
                    "midi": 59,
                    "time": 326.5579365000073,
                    "velocity": 0.2283464566929134,
                    "duration": 0.21246450000001005
                },
                {
                    "name": "D#3",
                    "midi": 51,
                    "time": 326.7704010000073,
                    "velocity": 0.3228346456692913,
                    "duration": 0.19121804999997494
                },
                {
                    "name": "B2",
                    "midi": 47,
                    "time": 326.7704010000073,
                    "velocity": 0.2677165354330709,
                    "duration": 0.19121804999997494
                },
                {
                    "name": "B3",
                    "midi": 59,
                    "time": 326.9828655000073,
                    "velocity": 0.2204724409448819,
                    "duration": 0.21246450000001005
                },
                {
                    "name": "C#3",
                    "midi": 49,
                    "time": 327.1953300000073,
                    "velocity": 0.2204724409448819,
                    "duration": 0.21246450000001005
                },
                {
                    "name": "E3",
                    "midi": 52,
                    "time": 327.1953300000073,
                    "velocity": 0.25984251968503935,
                    "duration": 0.21246450000001005
                },
                {
                    "name": "B3",
                    "midi": 59,
                    "time": 327.4077945000073,
                    "velocity": 0.1889763779527559,
                    "duration": 0.21246450000001005
                },
                {
                    "name": "D#3",
                    "midi": 51,
                    "time": 327.6202590000073,
                    "velocity": 0.2204724409448819,
                    "duration": 0.21246450000001005
                },
                {
                    "name": "F#3",
                    "midi": 54,
                    "time": 327.6202590000073,
                    "velocity": 0.25984251968503935,
                    "duration": 0.21246450000001005
                },
                {
                    "name": "B3",
                    "midi": 59,
                    "time": 327.8327235000073,
                    "velocity": 0.1889763779527559,
                    "duration": 0.21246450000001005
                },
                {
                    "name": "G#3",
                    "midi": 56,
                    "time": 328.04518800000733,
                    "velocity": 0.25196850393700787,
                    "duration": 0.21246450000001005
                },
                {
                    "name": "E3",
                    "midi": 52,
                    "time": 328.04518800000733,
                    "velocity": 0.30708661417322836,
                    "duration": 0.21246450000001005
                },
                {
                    "name": "B3",
                    "midi": 59,
                    "time": 328.25765250000734,
                    "velocity": 0.2204724409448819,
                    "duration": 0.21246450000001005
                },
                {
                    "name": "E3",
                    "midi": 52,
                    "time": 328.47011700000735,
                    "velocity": 0.31496062992125984,
                    "duration": 0.19121804999997494
                },
                {
                    "name": "C#3",
                    "midi": 49,
                    "time": 328.47011700000735,
                    "velocity": 0.25984251968503935,
                    "duration": 0.19121804999997494
                },
                {
                    "name": "B3",
                    "midi": 59,
                    "time": 328.6825815000073,
                    "velocity": 0.2125984251968504,
                    "duration": 0.21246450000001005
                },
                {
                    "name": "D#3",
                    "midi": 51,
                    "time": 328.8950460000073,
                    "velocity": 0.2047244094488189,
                    "duration": 0.21246450000001005
                },
                {
                    "name": "F#3",
                    "midi": 54,
                    "time": 328.8950460000073,
                    "velocity": 0.2440944881889764,
                    "duration": 0.21246450000001005
                },
                {
                    "name": "B3",
                    "midi": 59,
                    "time": 329.1075105000073,
                    "velocity": 0.1732283464566929,
                    "duration": 0.21246450000001005
                },
                {
                    "name": "E3",
                    "midi": 52,
                    "time": 329.31997500000733,
                    "velocity": 0.2047244094488189,
                    "duration": 0.21246450000001005
                },
                {
                    "name": "G#3",
                    "midi": 56,
                    "time": 329.31997500000733,
                    "velocity": 0.2440944881889764,
                    "duration": 0.21246450000001005
                },
                {
                    "name": "B3",
                    "midi": 59,
                    "time": 329.53243950000734,
                    "velocity": 0.1732283464566929,
                    "duration": 0.21246450000001005
                },
                {
                    "name": "A3",
                    "midi": 57,
                    "time": 329.74490400000735,
                    "velocity": 0.2283464566929134,
                    "duration": 0.21246450000001005
                },
                {
                    "name": "F#3",
                    "midi": 54,
                    "time": 329.74490400000735,
                    "velocity": 0.2755905511811024,
                    "duration": 0.21246450000001005
                },
                {
                    "name": "B3",
                    "midi": 59,
                    "time": 329.95736850000736,
                    "velocity": 0.2047244094488189,
                    "duration": 0.21246450000001005
                },
                {
                    "name": "F#3",
                    "midi": 54,
                    "time": 330.1698330000074,
                    "velocity": 0.28346456692913385,
                    "duration": 0.19121804999997494
                },
                {
                    "name": "D#3",
                    "midi": 51,
                    "time": 330.1698330000074,
                    "velocity": 0.23622047244094488,
                    "duration": 0.19121804999997494
                },
                {
                    "name": "B3",
                    "midi": 59,
                    "time": 330.3822975000073,
                    "velocity": 0.1889763779527559,
                    "duration": 0.21246450000001005
                },
                {
                    "name": "E3",
                    "midi": 52,
                    "time": 330.59476200000734,
                    "velocity": 0.1889763779527559,
                    "duration": 0.21246450000001005
                },
                {
                    "name": "G#3",
                    "midi": 56,
                    "time": 330.59476200000734,
                    "velocity": 0.2283464566929134,
                    "duration": 0.21246450000001005
                },
                {
                    "name": "B3",
                    "midi": 59,
                    "time": 330.80722650000735,
                    "velocity": 0.15748031496062992,
                    "duration": 0.21246450000001005
                },
                {
                    "name": "F#3",
                    "midi": 54,
                    "time": 331.01969100000736,
                    "velocity": 0.1889763779527559,
                    "duration": 0.21246450000001005
                },
                {
                    "name": "A3",
                    "midi": 57,
                    "time": 331.01969100000736,
                    "velocity": 0.2204724409448819,
                    "duration": 0.21246450000001005
                },
                {
                    "name": "D#4",
                    "midi": 63,
                    "time": 331.23215550000737,
                    "velocity": 0.15748031496062992,
                    "duration": 0.21246450000001005
                },
                {
                    "name": "G#3",
                    "midi": 56,
                    "time": 331.4446200000074,
                    "velocity": 0.2047244094488189,
                    "duration": 0.21246450000001005
                },
                {
                    "name": "B3",
                    "midi": 59,
                    "time": 331.6570845000074,
                    "velocity": 0.1889763779527559,
                    "duration": 0.21246450000001005
                },
                {
                    "name": "G#3",
                    "midi": 56,
                    "time": 331.8695490000074,
                    "velocity": 0.25984251968503935,
                    "duration": 0.19121804999997494
                },
                {
                    "name": "B3",
                    "midi": 59,
                    "time": 332.08201350000735,
                    "velocity": 0.1732283464566929,
                    "duration": 0.21246450000001005
                },
                {
                    "name": "G#3",
                    "midi": 56,
                    "time": 332.29447800000736,
                    "velocity": 0.2047244094488189,
                    "duration": 0.21246450000001005
                },
                {
                    "name": "B3",
                    "midi": 59,
                    "time": 332.50694250000737,
                    "velocity": 0.14173228346456693,
                    "duration": 0.21246450000001005
                },
                {
                    "name": "G#3",
                    "midi": 56,
                    "time": 332.7194070000074,
                    "velocity": 0.1968503937007874,
                    "duration": 0.21246450000001005
                },
                {
                    "name": "B3",
                    "midi": 59,
                    "time": 332.9318715000074,
                    "velocity": 0.14173228346456693,
                    "duration": 0.21246450000001005
                },
                {
                    "name": "G#3",
                    "midi": 56,
                    "time": 333.1443360000074,
                    "velocity": 0.1889763779527559,
                    "duration": 0.4249290000000201
                },
                {
                    "name": "B3",
                    "midi": 59,
                    "time": 333.1443360000074,
                    "velocity": 0.1889763779527559,
                    "duration": 0.4249290000000201
                },
                {
                    "name": "C#4",
                    "midi": 61,
                    "time": 334.2066585000074,
                    "velocity": 0.2125984251968504,
                    "duration": 0.21246450000001005
                },
                {
                    "name": "D#4",
                    "midi": 63,
                    "time": 334.4191230000074,
                    "velocity": 0.2283464566929134,
                    "duration": 0.21246450000001005
                },
                {
                    "name": "F4",
                    "midi": 65,
                    "time": 334.6315875000074,
                    "velocity": 0.2125984251968504,
                    "duration": 0.21246450000001005
                },
                {
                    "name": "F#4",
                    "midi": 66,
                    "time": 334.8440520000074,
                    "velocity": 0.25984251968503935,
                    "duration": 0.21246450000001005
                },
                {
                    "name": "C#4",
                    "midi": 61,
                    "time": 335.05651650000743,
                    "velocity": 0.2204724409448819,
                    "duration": 0.21246450000001005
                },
                {
                    "name": "D#4",
                    "midi": 63,
                    "time": 335.26898100000744,
                    "velocity": 0.2283464566929134,
                    "duration": 0.21246450000001005
                },
                {
                    "name": "F4",
                    "midi": 65,
                    "time": 335.48144550000745,
                    "velocity": 0.2125984251968504,
                    "duration": 0.15934837499997911
                },
                {
                    "name": "G#4",
                    "midi": 68,
                    "time": 335.64079387500743,
                    "velocity": 0.2125984251968504,
                    "duration": 0.05311612499997409
                },
                {
                    "name": "F#4",
                    "midi": 66,
                    "time": 335.6939100000074,
                    "velocity": 0.2677165354330709,
                    "duration": 0.21246450000001005
                },
                {
                    "name": "F4",
                    "midi": 65,
                    "time": 335.9063745000074,
                    "velocity": 0.2204724409448819,
                    "duration": 0.21246450000001005
                },
                {
                    "name": "F#4",
                    "midi": 66,
                    "time": 336.1188390000074,
                    "velocity": 0.2283464566929134,
                    "duration": 0.21246450000001005
                },
                {
                    "name": "G#4",
                    "midi": 68,
                    "time": 336.33130350000744,
                    "velocity": 0.2125984251968504,
                    "duration": 0.21246450000001005
                },
                {
                    "name": "A4",
                    "midi": 69,
                    "time": 336.54376800000745,
                    "velocity": 0.2755905511811024,
                    "duration": 0.21246450000001005
                },
                {
                    "name": "G#4",
                    "midi": 68,
                    "time": 336.75623250000746,
                    "velocity": 0.2283464566929134,
                    "duration": 0.21246450000001005
                },
                {
                    "name": "A4",
                    "midi": 69,
                    "time": 336.96869700000747,
                    "velocity": 0.2283464566929134,
                    "duration": 0.21246450000001005
                },
                {
                    "name": "B4",
                    "midi": 71,
                    "time": 337.1811615000075,
                    "velocity": 0.2204724409448819,
                    "duration": 0.21246450000001005
                },
                {
                    "name": "C#5",
                    "midi": 73,
                    "time": 337.3936260000075,
                    "velocity": 0.2677165354330709,
                    "duration": 0.21246450000001005
                },
                {
                    "name": "B4",
                    "midi": 71,
                    "time": 337.6060905000075,
                    "velocity": 0.2283464566929134,
                    "duration": 0.21246450000001005
                },
                {
                    "name": "A4",
                    "midi": 69,
                    "time": 337.8185550000075,
                    "velocity": 0.2283464566929134,
                    "duration": 0.21246450000001005
                },
                {
                    "name": "A#4",
                    "midi": 70,
                    "time": 338.0310195000075,
                    "velocity": 0.2204724409448819,
                    "duration": 0.21246450000001005
                },
                {
                    "name": "B4",
                    "midi": 71,
                    "time": 338.2434840000075,
                    "velocity": 0.2677165354330709,
                    "duration": 0.4249290000000201
                },
                {
                    "name": "B3",
                    "midi": 59,
                    "time": 339.09334200000757,
                    "velocity": 0.2677165354330709,
                    "duration": 0.4249290000000201
                },
                {
                    "name": "E3",
                    "midi": 52,
                    "time": 339.9432000000076,
                    "velocity": 0.25196850393700787,
                    "duration": 0.2832859999999755
                },
                {
                    "name": "B3",
                    "midi": 59,
                    "time": 340.2264860000076,
                    "velocity": 0.2125984251968504,
                    "duration": 0.2832859999999755
                },
                {
                    "name": "G#3",
                    "midi": 56,
                    "time": 340.50977200000756,
                    "velocity": 0.2125984251968504,
                    "duration": 0.2832859999999755
                },
                {
                    "name": "E3",
                    "midi": 52,
                    "time": 340.79305800000753,
                    "velocity": 0.25196850393700787,
                    "duration": 0.2832859999999755
                },
                {
                    "name": "E4",
                    "midi": 64,
                    "time": 341.0763440000075,
                    "velocity": 0.2125984251968504,
                    "duration": 0.2832859999999755
                },
                {
                    "name": "B3",
                    "midi": 59,
                    "time": 341.3596300000075,
                    "velocity": 0.2125984251968504,
                    "duration": 0.2832859999999755
                },
                {
                    "name": "F#3",
                    "midi": 54,
                    "time": 341.64291600000746,
                    "velocity": 0.25196850393700787,
                    "duration": 0.2832859999999755
                },
                {
                    "name": "D#4",
                    "midi": 63,
                    "time": 341.92620200000744,
                    "velocity": 0.2125984251968504,
                    "duration": 0.2832859999999755
                },
                {
                    "name": "B3",
                    "midi": 59,
                    "time": 342.2094880000074,
                    "velocity": 0.2125984251968504,
                    "duration": 0.2832859999999755
                },
                {
                    "name": "G#3",
                    "midi": 56,
                    "time": 342.4927740000074,
                    "velocity": 0.25984251968503935,
                    "duration": 0.2832859999999755
                },
                {
                    "name": "E4",
                    "midi": 64,
                    "time": 342.77606000000736,
                    "velocity": 0.2125984251968504,
                    "duration": 0.2832859999999755
                },
                {
                    "name": "B3",
                    "midi": 59,
                    "time": 343.05934600000734,
                    "velocity": 0.2283464566929134,
                    "duration": 0.2832859999999755
                },
                {
                    "name": "A3",
                    "midi": 57,
                    "time": 343.3426320000073,
                    "velocity": 0.25196850393700787,
                    "duration": 0.2832859999999755
                },
                {
                    "name": "F#4",
                    "midi": 66,
                    "time": 343.6259180000073,
                    "velocity": 0.2283464566929134,
                    "duration": 0.2832859999999755
                },
                {
                    "name": "C#4",
                    "midi": 61,
                    "time": 343.90920400000726,
                    "velocity": 0.2283464566929134,
                    "duration": 0.2832859999999755
                },
                {
                    "name": "A#3",
                    "midi": 58,
                    "time": 344.19249000000724,
                    "velocity": 0.2677165354330709,
                    "duration": 0.2832859999999755
                },
                {
                    "name": "G#4",
                    "midi": 68,
                    "time": 344.4757760000072,
                    "velocity": 0.2440944881889764,
                    "duration": 0.2832859999999755
                },
                {
                    "name": "E4",
                    "midi": 64,
                    "time": 344.7590620000072,
                    "velocity": 0.23622047244094488,
                    "duration": 0.2832859999999755
                },
                {
                    "name": "B3",
                    "midi": 59,
                    "time": 345.04234800000717,
                    "velocity": 0.29133858267716534,
                    "duration": 0.2832859999999755
                },
                {
                    "name": "G#4",
                    "midi": 68,
                    "time": 345.32563400000714,
                    "velocity": 0.25196850393700787,
                    "duration": 0.2832859999999755
                },
                {
                    "name": "E4",
                    "midi": 64,
                    "time": 345.6089200000071,
                    "velocity": 0.25196850393700787,
                    "duration": 0.2832859999999755
                },
                {
                    "name": "A3",
                    "midi": 57,
                    "time": 345.8922060000071,
                    "velocity": 0.33070866141732286,
                    "duration": 0.2832859999999755
                },
                {
                    "name": "F#4",
                    "midi": 66,
                    "time": 346.17549200000707,
                    "velocity": 0.28346456692913385,
                    "duration": 0.2832859999999755
                },
                {
                    "name": "D#4",
                    "midi": 63,
                    "time": 346.45877800000704,
                    "velocity": 0.28346456692913385,
                    "duration": 0.2832859999999755
                },
                {
                    "name": "G#3",
                    "midi": 56,
                    "time": 346.742064000007,
                    "velocity": 0.33858267716535434,
                    "duration": 0.21246450000001005
                },
                {
                    "name": "E4",
                    "midi": 64,
                    "time": 346.95452850000703,
                    "velocity": 0.28346456692913385,
                    "duration": 0.21246450000001005
                },
                {
                    "name": "B3",
                    "midi": 59,
                    "time": 347.16699300000704,
                    "velocity": 0.28346456692913385,
                    "duration": 0.21246450000001005
                },
                {
                    "name": "G#3",
                    "midi": 56,
                    "time": 347.37945750000705,
                    "velocity": 0.2677165354330709,
                    "duration": 0.21246450000001005
                },
                {
                    "name": "E3",
                    "midi": 52,
                    "time": 347.59192200000706,
                    "velocity": 0.33070866141732286,
                    "duration": 0.21246450000001005
                },
                {
                    "name": "B3",
                    "midi": 59,
                    "time": 347.80438650000707,
                    "velocity": 0.29133858267716534,
                    "duration": 0.21246450000001005
                },
                {
                    "name": "G#3",
                    "midi": 56,
                    "time": 348.0168510000071,
                    "velocity": 0.2992125984251969,
                    "duration": 0.21246450000001005
                },
                {
                    "name": "E3",
                    "midi": 52,
                    "time": 348.2293155000071,
                    "velocity": 0.2755905511811024,
                    "duration": 0.21246450000001005
                },
                {
                    "name": "F#3",
                    "midi": 54,
                    "time": 348.4417800000071,
                    "velocity": 0.3937007874015748,
                    "duration": 0.21246450000001005
                },
                {
                    "name": "D4",
                    "midi": 62,
                    "time": 348.6542445000071,
                    "velocity": 0.31496062992125984,
                    "duration": 0.21246450000001005
                },
                {
                    "name": "A3",
                    "midi": 57,
                    "time": 348.8667090000071,
                    "velocity": 0.31496062992125984,
                    "duration": 0.21246450000001005
                },
                {
                    "name": "F#3",
                    "midi": 54,
                    "time": 349.07917350000713,
                    "velocity": 0.28346456692913385,
                    "duration": 0.21246450000001005
                },
                {
                    "name": "G#3",
                    "midi": 56,
                    "time": 349.29163800000714,
                    "velocity": 0.3779527559055118,
                    "duration": 0.21246450000001005
                },
                {
                    "name": "E4",
                    "midi": 64,
                    "time": 349.50410250000715,
                    "velocity": 0.33858267716535434,
                    "duration": 0.21246450000001005
                },
                {
                    "name": "B3",
                    "midi": 59,
                    "time": 349.71656700000716,
                    "velocity": 0.33858267716535434,
                    "duration": 0.21246450000001005
                },
                {
                    "name": "G#3",
                    "midi": 56,
                    "time": 349.92903150000717,
                    "velocity": 0.3228346456692913,
                    "duration": 0.21246450000001005
                },
                {
                    "name": "A3",
                    "midi": 57,
                    "time": 350.1414960000072,
                    "velocity": 0.48031496062992124,
                    "duration": 0.21246450000001005
                },
                {
                    "name": "F#4",
                    "midi": 66,
                    "time": 350.3539605000072,
                    "velocity": 0.36220472440944884,
                    "duration": 0.21246450000001005
                },
                {
                    "name": "D4",
                    "midi": 62,
                    "time": 350.5664250000072,
                    "velocity": 0.3543307086614173,
                    "duration": 0.21246450000001005
                },
                {
                    "name": "A3",
                    "midi": 57,
                    "time": 350.7788895000072,
                    "velocity": 0.33858267716535434,
                    "duration": 0.21246450000001005
                },
                {
                    "name": "B3",
                    "midi": 59,
                    "time": 350.9913540000072,
                    "velocity": 0.4881889763779528,
                    "duration": 0.21246450000001005
                },
                {
                    "name": "G#4",
                    "midi": 68,
                    "time": 351.20381850000723,
                    "velocity": 0.3700787401574803,
                    "duration": 0.21246450000001005
                },
                {
                    "name": "D4",
                    "midi": 62,
                    "time": 351.41628300000724,
                    "velocity": 0.3858267716535433,
                    "duration": 0.21246450000001005
                },
                {
                    "name": "B3",
                    "midi": 59,
                    "time": 351.62874750000725,
                    "velocity": 0.36220472440944884,
                    "duration": 0.19475912500001868
                },
                {
                    "name": "G#3",
                    "midi": 56,
                    "time": 351.84121200000726,
                    "velocity": 0.49606299212598426,
                    "duration": 0.21246450000001005
                },
                {
                    "name": "D4",
                    "midi": 62,
                    "time": 352.05367650000727,
                    "velocity": 0.41732283464566927,
                    "duration": 0.21246450000001005
                },
                {
                    "name": "B3",
                    "midi": 59,
                    "time": 352.2661410000073,
                    "velocity": 0.4881889763779528,
                    "duration": 0.21246450000001005
                },
                {
                    "name": "G#3",
                    "midi": 56,
                    "time": 352.4786055000073,
                    "velocity": 0.5354330708661418,
                    "duration": 0.21246450000001005
                },
                {
                    "name": "F3",
                    "midi": 53,
                    "time": 352.6910700000073,
                    "velocity": 0.6220472440944882,
                    "duration": 0.21246450000001005
                },
                {
                    "name": "D4",
                    "midi": 62,
                    "time": 352.9035345000073,
                    "velocity": 0.5118110236220472,
                    "duration": 0.21246450000001005
                },
                {
                    "name": "B3",
                    "midi": 59,
                    "time": 353.1159990000073,
                    "velocity": 0.5511811023622047,
                    "duration": 0.21246450000001005
                },
                {
                    "name": "G#3",
                    "midi": 56,
                    "time": 353.32846350000733,
                    "velocity": 0.5118110236220472,
                    "duration": 0.19475912500001868
                },
                {
                    "name": "F3",
                    "midi": 53,
                    "time": 353.54092800000734,
                    "velocity": 0.6220472440944882,
                    "duration": 0.21246450000001005
                },
                {
                    "name": "D4",
                    "midi": 62,
                    "time": 353.75339250000735,
                    "velocity": 0.5511811023622047,
                    "duration": 0.21246450000001005
                },
                {
                    "name": "B3",
                    "midi": 59,
                    "time": 353.96585700000736,
                    "velocity": 0.5511811023622047,
                    "duration": 0.21246450000001005
                },
                {
                    "name": "G#3",
                    "midi": 56,
                    "time": 354.17832150000737,
                    "velocity": 0.5118110236220472,
                    "duration": 0.21246450000001005
                },
                {
                    "name": "F3",
                    "midi": 53,
                    "time": 354.3907860000074,
                    "velocity": 0.6220472440944882,
                    "duration": 0.21246450000001005
                },
                {
                    "name": "D4",
                    "midi": 62,
                    "time": 354.6032505000074,
                    "velocity": 0.5196850393700787,
                    "duration": 0.21246450000001005
                },
                {
                    "name": "B3",
                    "midi": 59,
                    "time": 354.8157150000074,
                    "velocity": 0.5669291338582677,
                    "duration": 0.21246450000001005
                },
                {
                    "name": "G#3",
                    "midi": 56,
                    "time": 355.0281795000074,
                    "velocity": 0.5196850393700787,
                    "duration": 0.21246450000001005
                },
                {
                    "name": "D3",
                    "midi": 50,
                    "time": 355.2406440000074,
                    "velocity": 0.6220472440944882,
                    "duration": 0.21246450000001005
                },
                {
                    "name": "B3",
                    "midi": 59,
                    "time": 355.45310850000743,
                    "velocity": 0.4645669291338583,
                    "duration": 0.21246450000001005
                },
                {
                    "name": "G#3",
                    "midi": 56,
                    "time": 355.66557300000744,
                    "velocity": 0.5354330708661418,
                    "duration": 0.21246450000001005
                },
                {
                    "name": "F3",
                    "midi": 53,
                    "time": 355.87803750000745,
                    "velocity": 0.4566929133858268,
                    "duration": 0.21246450000001005
                },
                {
                    "name": "D3",
                    "midi": 50,
                    "time": 356.09050200000746,
                    "velocity": 0.5669291338582677,
                    "duration": 0.21246450000001005
                },
                {
                    "name": "B3",
                    "midi": 59,
                    "time": 356.30296650000747,
                    "velocity": 0.44881889763779526,
                    "duration": 0.21246450000001005
                },
                {
                    "name": "G#3",
                    "midi": 56,
                    "time": 356.5154310000075,
                    "velocity": 0.49606299212598426,
                    "duration": 0.21246450000001005
                },
                {
                    "name": "F3",
                    "midi": 53,
                    "time": 356.7278955000075,
                    "velocity": 0.4409448818897638,
                    "duration": 0.21246450000001005
                },
                {
                    "name": "B2",
                    "midi": 47,
                    "time": 356.9403600000075,
                    "velocity": 0.5748031496062992,
                    "duration": 0.21246450000001005
                },
                {
                    "name": "G#3",
                    "midi": 56,
                    "time": 357.1528245000075,
                    "velocity": 0.4251968503937008,
                    "duration": 0.21246450000001005
                },
                {
                    "name": "F3",
                    "midi": 53,
                    "time": 357.3652890000075,
                    "velocity": 0.4251968503937008,
                    "duration": 0.21246450000001005
                },
                {
                    "name": "D3",
                    "midi": 50,
                    "time": 357.57775350000753,
                    "velocity": 0.36220472440944884,
                    "duration": 0.21246450000001005
                },
                {
                    "name": "B2",
                    "midi": 47,
                    "time": 357.79021800000754,
                    "velocity": 0.41732283464566927,
                    "duration": 0.21246450000001005
                },
                {
                    "name": "G#3",
                    "midi": 56,
                    "time": 358.00268250000755,
                    "velocity": 0.30708661417322836,
                    "duration": 0.21246450000001005
                },
                {
                    "name": "F3",
                    "midi": 53,
                    "time": 358.21514700000756,
                    "velocity": 0.33070866141732286,
                    "duration": 0.21246450000001005
                },
                {
                    "name": "D3",
                    "midi": 50,
                    "time": 358.4276115000076,
                    "velocity": 0.2755905511811024,
                    "duration": 0.21246450000001005
                },
                {
                    "name": "B2",
                    "midi": 47,
                    "time": 358.6400760000076,
                    "velocity": 0.33070866141732286,
                    "duration": 0.21246450000001005
                },
                {
                    "name": "G3",
                    "midi": 55,
                    "time": 358.8525405000076,
                    "velocity": 0.25984251968503935,
                    "duration": 0.21246450000001005
                },
                {
                    "name": "F3",
                    "midi": 53,
                    "time": 359.0650050000076,
                    "velocity": 0.29133858267716534,
                    "duration": 0.21246450000001005
                },
                {
                    "name": "D3",
                    "midi": 50,
                    "time": 359.2774695000076,
                    "velocity": 0.25196850393700787,
                    "duration": 0.21246450000001005
                },
                {
                    "name": "B2",
                    "midi": 47,
                    "time": 359.4899340000076,
                    "velocity": 0.29133858267716534,
                    "duration": 0.21246450000001005
                },
                {
                    "name": "G3",
                    "midi": 55,
                    "time": 359.70239850000763,
                    "velocity": 0.2440944881889764,
                    "duration": 0.21246450000001005
                },
                {
                    "name": "B2",
                    "midi": 47,
                    "time": 359.91486300000764,
                    "velocity": 0.2677165354330709,
                    "duration": 0.21246450000001005
                },
                {
                    "name": "G3",
                    "midi": 55,
                    "time": 360.12732750000765,
                    "velocity": 0.2283464566929134,
                    "duration": 0.21246450000001005
                },
                {
                    "name": "G3",
                    "midi": 55,
                    "time": 360.33979200000766,
                    "velocity": 0.2677165354330709,
                    "duration": 0.8498579999999833
                },
                {
                    "name": "B2",
                    "midi": 47,
                    "time": 360.33979200000766,
                    "velocity": 0.2677165354330709,
                    "duration": 0.8498579999999833
                },
                {
                    "name": "G4",
                    "midi": 67,
                    "time": 361.61457900000767,
                    "velocity": 0.2440944881889764,
                    "duration": 0.4249290000000201
                },
                {
                    "name": "G4",
                    "midi": 67,
                    "time": 362.0395080000077,
                    "velocity": 0.25984251968503935,
                    "duration": 0.4249290000000201
                },
                {
                    "name": "G#4",
                    "midi": 68,
                    "time": 362.4644370000077,
                    "velocity": 0.2204724409448819,
                    "duration": 0.4249290000000201
                },
                {
                    "name": "G4",
                    "midi": 67,
                    "time": 362.8893660000077,
                    "velocity": 0.25984251968503935,
                    "duration": 0.4249290000000201
                },
                {
                    "name": "G3",
                    "midi": 55,
                    "time": 363.31429500000775,
                    "velocity": 0.1732283464566929,
                    "duration": 0.4249290000000201
                },
                {
                    "name": "D4",
                    "midi": 62,
                    "time": 363.31429500000775,
                    "velocity": 0.2047244094488189,
                    "duration": 0.4249290000000201
                },
                {
                    "name": "G3",
                    "midi": 55,
                    "time": 363.73922400000777,
                    "velocity": 0.25984251968503935,
                    "duration": 0.4249290000000201
                },
                {
                    "name": "A#3",
                    "midi": 58,
                    "time": 364.1641530000078,
                    "velocity": 0.2204724409448819,
                    "duration": 0.4249290000000201
                },
                {
                    "name": "A3",
                    "midi": 57,
                    "time": 364.5890820000078,
                    "velocity": 0.25984251968503935,
                    "duration": 0.4249290000000201
                },
                {
                    "name": "E3",
                    "midi": 52,
                    "time": 365.0140110000078,
                    "velocity": 0.1732283464566929,
                    "duration": 0.4249290000000201
                },
                {
                    "name": "G3",
                    "midi": 55,
                    "time": 365.0140110000078,
                    "velocity": 0.2047244094488189,
                    "duration": 0.4249290000000201
                },
                {
                    "name": "F3",
                    "midi": 53,
                    "time": 365.43894000000785,
                    "velocity": 0.2204724409448819,
                    "duration": 0.4249290000000201
                },
                {
                    "name": "A3",
                    "midi": 57,
                    "time": 365.43894000000785,
                    "velocity": 0.25984251968503935,
                    "duration": 0.4249290000000201
                },
                {
                    "name": "G3",
                    "midi": 55,
                    "time": 365.86386900000787,
                    "velocity": 0.18110236220472442,
                    "duration": 0.4249290000000201
                },
                {
                    "name": "A#3",
                    "midi": 58,
                    "time": 365.86386900000787,
                    "velocity": 0.2204724409448819,
                    "duration": 0.4249290000000201
                },
                {
                    "name": "F3",
                    "midi": 53,
                    "time": 366.2887980000079,
                    "velocity": 0.2204724409448819,
                    "duration": 0.4249290000000201
                },
                {
                    "name": "A3",
                    "midi": 57,
                    "time": 366.2887980000079,
                    "velocity": 0.25984251968503935,
                    "duration": 0.4249290000000201
                },
                {
                    "name": "C#3",
                    "midi": 49,
                    "time": 366.7137270000079,
                    "velocity": 0.1732283464566929,
                    "duration": 0.4249290000000201
                },
                {
                    "name": "E3",
                    "midi": 52,
                    "time": 366.7137270000079,
                    "velocity": 0.2047244094488189,
                    "duration": 0.4249290000000201
                },
                {
                    "name": "D3",
                    "midi": 50,
                    "time": 367.1386560000079,
                    "velocity": 0.2204724409448819,
                    "duration": 0.4249290000000201
                },
                {
                    "name": "F3",
                    "midi": 53,
                    "time": 367.1386560000079,
                    "velocity": 0.25984251968503935,
                    "duration": 0.4249290000000201
                },
                {
                    "name": "F4",
                    "midi": 65,
                    "time": 367.56358500000795,
                    "velocity": 0.25984251968503935,
                    "duration": 0.8498579999999833
                },
                {
                    "name": "D4",
                    "midi": 62,
                    "time": 367.56358500000795,
                    "velocity": 0.2204724409448819,
                    "duration": 0.8498579999999833
                },
                {
                    "name": "D#4",
                    "midi": 63,
                    "time": 368.41344300000793,
                    "velocity": 0.23622047244094488,
                    "duration": 0.8498579999999833
                },
                {
                    "name": "C4",
                    "midi": 60,
                    "time": 368.41344300000793,
                    "velocity": 0.1968503937007874,
                    "duration": 0.8498579999999833
                },
                {
                    "name": "A#3",
                    "midi": 58,
                    "time": 369.2633010000079,
                    "velocity": 0.1968503937007874,
                    "duration": 0.8498579999999833
                },
                {
                    "name": "C#4",
                    "midi": 61,
                    "time": 369.2633010000079,
                    "velocity": 0.23622047244094488,
                    "duration": 0.8498579999999833
                },
                {
                    "name": "B3",
                    "midi": 59,
                    "time": 370.1131590000079,
                    "velocity": 0.23622047244094488,
                    "duration": 0.8498579999999833
                },
                {
                    "name": "G#3",
                    "midi": 56,
                    "time": 370.1131590000079,
                    "velocity": 0.1968503937007874,
                    "duration": 0.8498579999999833
                },
                {
                    "name": "F#3",
                    "midi": 54,
                    "time": 370.9630170000079,
                    "velocity": 0.1968503937007874,
                    "duration": 0.8498579999999833
                },
                {
                    "name": "A#3",
                    "midi": 58,
                    "time": 370.9630170000079,
                    "velocity": 0.23622047244094488,
                    "duration": 0.8498579999999833
                },
                {
                    "name": "F#3",
                    "midi": 54,
                    "time": 371.81287500000786,
                    "velocity": 0.1968503937007874,
                    "duration": 0.8498579999999833
                },
                {
                    "name": "A#3",
                    "midi": 58,
                    "time": 371.81287500000786,
                    "velocity": 0.23622047244094488,
                    "duration": 0.8498579999999833
                },
                {
                    "name": "F#3",
                    "midi": 54,
                    "time": 372.66273300000785,
                    "velocity": 0.1968503937007874,
                    "duration": 0.8498579999999833
                },
                {
                    "name": "A#3",
                    "midi": 58,
                    "time": 372.66273300000785,
                    "velocity": 0.23622047244094488,
                    "duration": 0.8498579999999833
                },
                {
                    "name": "F#3",
                    "midi": 54,
                    "time": 373.51259100000783,
                    "velocity": 0.30708661417322836,
                    "duration": 0.8498579999999833
                },
                {
                    "name": "A#3",
                    "midi": 58,
                    "time": 373.51259100000783,
                    "velocity": 0.30708661417322836,
                    "duration": 0.8498579999999833
                },
                {
                    "name": "C4",
                    "midi": 60,
                    "time": 374.3624490000078,
                    "velocity": 0.3464566929133858,
                    "duration": 0.8498579999999833
                },
                {
                    "name": "F#3",
                    "midi": 54,
                    "time": 374.3624490000078,
                    "velocity": 0.29133858267716534,
                    "duration": 0.8498579999999833
                },
                {
                    "name": "A3",
                    "midi": 57,
                    "time": 374.3624490000078,
                    "velocity": 0.29133858267716534,
                    "duration": 0.8498579999999833
                },
                {
                    "name": "E3",
                    "midi": 52,
                    "time": 375.2123070000078,
                    "velocity": 0.3779527559055118,
                    "duration": 0.8498579999999833
                },
                {
                    "name": "C4",
                    "midi": 60,
                    "time": 375.2123070000078,
                    "velocity": 0.4566929133858268,
                    "duration": 0.8498579999999833
                },
                {
                    "name": "F#3",
                    "midi": 54,
                    "time": 375.2123070000078,
                    "velocity": 0.3779527559055118,
                    "duration": 0.8498579999999833
                },
                {
                    "name": "A3",
                    "midi": 57,
                    "time": 375.2123070000078,
                    "velocity": 0.3779527559055118,
                    "duration": 0.8498579999999833
                },
                {
                    "name": "D#3",
                    "midi": 51,
                    "time": 376.0621650000078,
                    "velocity": 0.48031496062992124,
                    "duration": 0.4249290000000201
                },
                {
                    "name": "B3",
                    "midi": 59,
                    "time": 376.0621650000078,
                    "velocity": 0.5590551181102362,
                    "duration": 0.4249290000000201
                },
                {
                    "name": "F#3",
                    "midi": 54,
                    "time": 376.0621650000078,
                    "velocity": 0.48031496062992124,
                    "duration": 0.4249290000000201
                },
                {
                    "name": "A3",
                    "midi": 57,
                    "time": 376.0621650000078,
                    "velocity": 0.5590551181102362,
                    "duration": 0.4249290000000201
                },
                {
                    "name": "D#3",
                    "midi": 51,
                    "time": 376.4870940000078,
                    "velocity": 0.49606299212598426,
                    "duration": 0.21246450000001005
                },
                {
                    "name": "B3",
                    "midi": 59,
                    "time": 376.6995585000078,
                    "velocity": 0.44881889763779526,
                    "duration": 0.21246450000001005
                },
                {
                    "name": "D#3",
                    "midi": 51,
                    "time": 376.9120230000078,
                    "velocity": 0.44881889763779526,
                    "duration": 0.21246450000001005
                },
                {
                    "name": "E3",
                    "midi": 52,
                    "time": 377.12448750000783,
                    "velocity": 0.4566929133858268,
                    "duration": 0.21246450000001005
                },
                {
                    "name": "F#3",
                    "midi": 54,
                    "time": 377.33695200000784,
                    "velocity": 0.3543307086614173,
                    "duration": 0.21246450000001005
                },
                {
                    "name": "B3",
                    "midi": 59,
                    "time": 377.54941650000785,
                    "velocity": 0.3228346456692913,
                    "duration": 0.21246450000001005
                },
                {
                    "name": "F#3",
                    "midi": 54,
                    "time": 377.76188100000786,
                    "velocity": 0.3228346456692913,
                    "duration": 0.21246450000001005
                },
                {
                    "name": "G#3",
                    "midi": 56,
                    "time": 377.97434550000787,
                    "velocity": 0.3464566929133858,
                    "duration": 0.21246450000001005
                },
                {
                    "name": "A3",
                    "midi": 57,
                    "time": 378.1868100000079,
                    "velocity": 0.3858267716535433,
                    "duration": 0.21246450000001005
                },
                {
                    "name": "B3",
                    "midi": 59,
                    "time": 378.3992745000079,
                    "velocity": 0.31496062992125984,
                    "duration": 0.21246450000001005
                },
                {
                    "name": "A3",
                    "midi": 57,
                    "time": 378.6117390000079,
                    "velocity": 0.31496062992125984,
                    "duration": 0.21246450000001005
                },
                {
                    "name": "G#3",
                    "midi": 56,
                    "time": 378.8242035000079,
                    "velocity": 0.3464566929133858,
                    "duration": 0.21246450000001005
                },
                {
                    "name": "F#3",
                    "midi": 54,
                    "time": 379.0366680000079,
                    "velocity": 0.3858267716535433,
                    "duration": 0.21246450000001005
                },
                {
                    "name": "B3",
                    "midi": 59,
                    "time": 379.24913250000793,
                    "velocity": 0.29133858267716534,
                    "duration": 0.21246450000001005
                },
                {
                    "name": "F#3",
                    "midi": 54,
                    "time": 379.46159700000794,
                    "velocity": 0.30708661417322836,
                    "duration": 0.21246450000001005
                },
                {
                    "name": "E3",
                    "midi": 52,
                    "time": 379.67406150000795,
                    "velocity": 0.33070866141732286,
                    "duration": 0.21246450000001005
                },
                {
                    "name": "D#3",
                    "midi": 51,
                    "time": 379.88652600000796,
                    "velocity": 0.3858267716535433,
                    "duration": 0.21246450000001005
                },
                {
                    "name": "B3",
                    "midi": 59,
                    "time": 380.098990500008,
                    "velocity": 0.31496062992125984,
                    "duration": 0.21246450000001005
                },
                {
                    "name": "D#3",
                    "midi": 51,
                    "time": 380.311455000008,
                    "velocity": 0.30708661417322836,
                    "duration": 0.21246450000001005
                },
                {
                    "name": "E3",
                    "midi": 52,
                    "time": 380.523919500008,
                    "velocity": 0.33858267716535434,
                    "duration": 0.21246450000001005
                },
                {
                    "name": "F#3",
                    "midi": 54,
                    "time": 380.736384000008,
                    "velocity": 0.3858267716535433,
                    "duration": 0.21246450000001005
                },
                {
                    "name": "B3",
                    "midi": 59,
                    "time": 380.948848500008,
                    "velocity": 0.29133858267716534,
                    "duration": 0.21246450000001005
                },
                {
                    "name": "F#3",
                    "midi": 54,
                    "time": 381.161313000008,
                    "velocity": 0.30708661417322836,
                    "duration": 0.21246450000001005
                },
                {
                    "name": "G#3",
                    "midi": 56,
                    "time": 381.37377750000803,
                    "velocity": 0.33070866141732286,
                    "duration": 0.21246450000001005
                },
                {
                    "name": "A3",
                    "midi": 57,
                    "time": 381.58624200000804,
                    "velocity": 0.3464566929133858,
                    "duration": 0.21246450000001005
                },
                {
                    "name": "B3",
                    "midi": 59,
                    "time": 381.79870650000805,
                    "velocity": 0.2755905511811024,
                    "duration": 0.21246450000001005
                },
                {
                    "name": "A3",
                    "midi": 57,
                    "time": 382.01117100000806,
                    "velocity": 0.25984251968503935,
                    "duration": 0.21246450000001005
                },
                {
                    "name": "G#3",
                    "midi": 56,
                    "time": 382.2236355000081,
                    "velocity": 0.28346456692913385,
                    "duration": 0.21246450000001005
                },
                {
                    "name": "F#3",
                    "midi": 54,
                    "time": 382.4361000000081,
                    "velocity": 0.31496062992125984,
                    "duration": 0.21246450000001005
                },
                {
                    "name": "B3",
                    "midi": 59,
                    "time": 382.6485645000081,
                    "velocity": 0.2283464566929134,
                    "duration": 0.21246450000001005
                },
                {
                    "name": "F#3",
                    "midi": 54,
                    "time": 382.8610290000081,
                    "velocity": 0.23622047244094488,
                    "duration": 0.21246450000001005
                },
                {
                    "name": "E3",
                    "midi": 52,
                    "time": 383.0734935000081,
                    "velocity": 0.25196850393700787,
                    "duration": 0.21246450000001005
                },
                {
                    "name": "D#3",
                    "midi": 51,
                    "time": 383.2859580000081,
                    "velocity": 0.28346456692913385,
                    "duration": 0.21246450000001005
                },
                {
                    "name": "B3",
                    "midi": 59,
                    "time": 383.49842250000813,
                    "velocity": 0.2283464566929134,
                    "duration": 0.21246450000001005
                },
                {
                    "name": "D#3",
                    "midi": 51,
                    "time": 383.71088700000814,
                    "velocity": 0.2204724409448819,
                    "duration": 0.21246450000001005
                },
                {
                    "name": "E3",
                    "midi": 52,
                    "time": 383.92335150000815,
                    "velocity": 0.23622047244094488,
                    "duration": 0.21246450000001005
                },
                {
                    "name": "F#3",
                    "midi": 54,
                    "time": 384.13581600000816,
                    "velocity": 0.25984251968503935,
                    "duration": 0.21246450000001005
                },
                {
                    "name": "B3",
                    "midi": 59,
                    "time": 384.3482805000082,
                    "velocity": 0.1889763779527559,
                    "duration": 0.21246450000001005
                },
                {
                    "name": "F#3",
                    "midi": 54,
                    "time": 384.5607450000082,
                    "velocity": 0.1889763779527559,
                    "duration": 0.21246450000001005
                },
                {
                    "name": "G#3",
                    "midi": 56,
                    "time": 384.7732095000082,
                    "velocity": 0.2047244094488189,
                    "duration": 0.21246450000001005
                },
                {
                    "name": "A3",
                    "midi": 57,
                    "time": 384.9856740000082,
                    "velocity": 0.2283464566929134,
                    "duration": 0.21246450000001005
                },
                {
                    "name": "B3",
                    "midi": 59,
                    "time": 385.1981385000082,
                    "velocity": 0.1889763779527559,
                    "duration": 0.21246450000001005
                },
                {
                    "name": "A3",
                    "midi": 57,
                    "time": 385.4106030000082,
                    "velocity": 0.18110236220472442,
                    "duration": 0.21246450000001005
                },
                {
                    "name": "G#3",
                    "midi": 56,
                    "time": 385.62306750000823,
                    "velocity": 0.1968503937007874,
                    "duration": 0.21246450000001005
                },
                {
                    "name": "F#3",
                    "midi": 54,
                    "time": 385.83553200000824,
                    "velocity": 0.2283464566929134,
                    "duration": 0.21246450000001005
                },
                {
                    "name": "B3",
                    "midi": 59,
                    "time": 386.04799650000825,
                    "velocity": 0.1732283464566929,
                    "duration": 0.21246450000001005
                },
                {
                    "name": "F#3",
                    "midi": 54,
                    "time": 386.26046100000826,
                    "velocity": 0.18110236220472442,
                    "duration": 0.21246450000001005
                },
                {
                    "name": "E3",
                    "midi": 52,
                    "time": 386.4729255000083,
                    "velocity": 0.1968503937007874,
                    "duration": 0.21246450000001005
                },
                {
                    "name": "D#3",
                    "midi": 51,
                    "time": 386.6853900000083,
                    "velocity": 0.2283464566929134,
                    "duration": 0.21246450000001005
                },
                {
                    "name": "B3",
                    "midi": 59,
                    "time": 386.8978545000083,
                    "velocity": 0.1889763779527559,
                    "duration": 0.21246450000001005
                },
                {
                    "name": "D#3",
                    "midi": 51,
                    "time": 387.1103190000083,
                    "velocity": 0.18110236220472442,
                    "duration": 0.21246450000001005
                },
                {
                    "name": "E3",
                    "midi": 52,
                    "time": 387.3227835000083,
                    "velocity": 0.1968503937007874,
                    "duration": 0.21246450000001005
                },
                {
                    "name": "F#3",
                    "midi": 54,
                    "time": 387.5352480000083,
                    "velocity": 0.2283464566929134,
                    "duration": 0.21246450000001005
                },
                {
                    "name": "B3",
                    "midi": 59,
                    "time": 387.74771250000833,
                    "velocity": 0.1732283464566929,
                    "duration": 0.21246450000001005
                },
                {
                    "name": "F#3",
                    "midi": 54,
                    "time": 387.96017700000834,
                    "velocity": 0.18110236220472442,
                    "duration": 0.21246450000001005
                },
                {
                    "name": "G#3",
                    "midi": 56,
                    "time": 388.17264150000835,
                    "velocity": 0.1968503937007874,
                    "duration": 0.21246450000001005
                },
                {
                    "name": "A3",
                    "midi": 57,
                    "time": 388.38510600000836,
                    "velocity": 0.2283464566929134,
                    "duration": 0.21246450000001005
                },
                {
                    "name": "G#3",
                    "midi": 56,
                    "time": 388.5975705000084,
                    "velocity": 0.1889763779527559,
                    "duration": 0.21246450000001005
                },
                {
                    "name": "A3",
                    "midi": 57,
                    "time": 388.8100350000084,
                    "velocity": 0.18110236220472442,
                    "duration": 0.21246450000001005
                },
                {
                    "name": "A#3",
                    "midi": 58,
                    "time": 389.0224995000084,
                    "velocity": 0.1968503937007874,
                    "duration": 0.21246450000001005
                },
                {
                    "name": "B3",
                    "midi": 59,
                    "time": 389.2349640000084,
                    "velocity": 0.2283464566929134,
                    "duration": 0.21246450000001005
                },
                {
                    "name": "A#3",
                    "midi": 58,
                    "time": 389.4474285000084,
                    "velocity": 0.1889763779527559,
                    "duration": 0.21246450000001005
                },
                {
                    "name": "A3",
                    "midi": 57,
                    "time": 389.6598930000084,
                    "velocity": 0.1889763779527559,
                    "duration": 0.21246450000001005
                },
                {
                    "name": "G#3",
                    "midi": 56,
                    "time": 389.87235750000843,
                    "velocity": 0.1889763779527559,
                    "duration": 0.21246450000001005
                },
                {
                    "name": "F#3",
                    "midi": 54,
                    "time": 390.08482200000844,
                    "velocity": 0.2125984251968504,
                    "duration": 0.21246450000001005
                },
                {
                    "name": "D#3",
                    "midi": 51,
                    "time": 390.29728650000845,
                    "velocity": 0.1889763779527559,
                    "duration": 0.21246450000001005
                },
                {
                    "name": "B2",
                    "midi": 47,
                    "time": 390.29728650000845,
                    "velocity": 0.1889763779527559,
                    "duration": 0.21246450000001005
                },
                {
                    "name": "E3",
                    "midi": 52,
                    "time": 390.50975100000846,
                    "velocity": 0.1889763779527559,
                    "duration": 0.21246450000001005
                },
                {
                    "name": "C#3",
                    "midi": 49,
                    "time": 390.50975100000846,
                    "velocity": 0.1889763779527559,
                    "duration": 0.21246450000001005
                },
                {
                    "name": "F#3",
                    "midi": 54,
                    "time": 390.7222155000085,
                    "velocity": 0.1889763779527559,
                    "duration": 0.21246450000001005
                },
                {
                    "name": "D#3",
                    "midi": 51,
                    "time": 390.7222155000085,
                    "velocity": 0.1889763779527559,
                    "duration": 0.21246450000001005
                },
                {
                    "name": "G#3",
                    "midi": 56,
                    "time": 390.9346800000085,
                    "velocity": 0.31496062992125984,
                    "duration": 0.8498580000000402
                },
                {
                    "name": "E3",
                    "midi": 52,
                    "time": 390.9346800000085,
                    "velocity": 0.1889763779527559,
                    "duration": 0.4249290000000201
                },
                {
                    "name": "B3",
                    "midi": 59,
                    "time": 391.7845380000085,
                    "velocity": 0.28346456692913385,
                    "duration": 0.4249290000000201
                },
                {
                    "name": "A3",
                    "midi": 57,
                    "time": 392.20946700000854,
                    "velocity": 0.2677165354330709,
                    "duration": 0.4249290000000201
                },
                {
                    "name": "G#3",
                    "midi": 56,
                    "time": 392.63439600000856,
                    "velocity": 0.31496062992125984,
                    "duration": 0.4249290000000201
                },
                {
                    "name": "B2",
                    "midi": 47,
                    "time": 392.63439600000856,
                    "velocity": 0.1889763779527559,
                    "duration": 0.4249290000000201
                },
                {
                    "name": "F#3",
                    "midi": 54,
                    "time": 393.0593250000086,
                    "velocity": 0.25196850393700787,
                    "duration": 0.37181287499998916
                },
                {
                    "name": "F#3",
                    "midi": 54,
                    "time": 393.48425400000855,
                    "velocity": 0.25196850393700787,
                    "duration": 0.4249290000000201
                },
                {
                    "name": "G#3",
                    "midi": 56,
                    "time": 393.90918300000857,
                    "velocity": 0.2677165354330709,
                    "duration": 0.4249290000000201
                },
                {
                    "name": "A3",
                    "midi": 57,
                    "time": 394.3341120000086,
                    "velocity": 0.28346456692913385,
                    "duration": 0.4249290000000201
                },
                {
                    "name": "B2",
                    "midi": 47,
                    "time": 394.3341120000086,
                    "velocity": 0.1889763779527559,
                    "duration": 0.4249290000000201
                },
                {
                    "name": "C#4",
                    "midi": 61,
                    "time": 394.7590410000086,
                    "velocity": 0.33858267716535434,
                    "duration": 0.4249290000000201
                },
                {
                    "name": "B3",
                    "midi": 59,
                    "time": 395.1839700000086,
                    "velocity": 0.29133858267716534,
                    "duration": 0.4249290000000201
                },
                {
                    "name": "B2",
                    "midi": 47,
                    "time": 395.1839700000086,
                    "velocity": 0.1732283464566929,
                    "duration": 0.4249290000000201
                },
                {
                    "name": "F#3",
                    "midi": 54,
                    "time": 395.60889900000865,
                    "velocity": 0.23622047244094488,
                    "duration": 0.4249290000000201
                },
                {
                    "name": "A2",
                    "midi": 45,
                    "time": 395.60889900000865,
                    "velocity": 0.15748031496062992,
                    "duration": 0.4249290000000201
                },
                {
                    "name": "G#2",
                    "midi": 44,
                    "time": 396.03382800000867,
                    "velocity": 0.1732283464566929,
                    "duration": 0.4249290000000201
                },
                {
                    "name": "G#3",
                    "midi": 56,
                    "time": 396.03382800000867,
                    "velocity": 0.1732283464566929,
                    "duration": 0.4249290000000201
                },
                {
                    "name": "E3",
                    "midi": 52,
                    "time": 397.7335440000087,
                    "velocity": 0.23622047244094488,
                    "duration": 0.21246450000001005
                },
                {
                    "name": "E4",
                    "midi": 64,
                    "time": 397.9460085000087,
                    "velocity": 0.18110236220472442,
                    "duration": 0.21246450000001005
                },
                {
                    "name": "E3",
                    "midi": 52,
                    "time": 398.1584730000087,
                    "velocity": 0.2125984251968504,
                    "duration": 0.21246450000001005
                },
                {
                    "name": "E4",
                    "midi": 64,
                    "time": 398.3709375000087,
                    "velocity": 0.18110236220472442,
                    "duration": 0.21246450000001005
                },
                {
                    "name": "C#3",
                    "midi": 49,
                    "time": 398.58340200000873,
                    "velocity": 0.2125984251968504,
                    "duration": 0.21246450000001005
                },
                {
                    "name": "C#4",
                    "midi": 61,
                    "time": 398.79586650000874,
                    "velocity": 0.1889763779527559,
                    "duration": 0.21246450000001005
                },
                {
                    "name": "A2",
                    "midi": 45,
                    "time": 399.00833100000875,
                    "velocity": 0.1968503937007874,
                    "duration": 0.21246450000001005
                },
                {
                    "name": "A3",
                    "midi": 57,
                    "time": 399.22079550000876,
                    "velocity": 0.1889763779527559,
                    "duration": 0.21246450000001005
                },
                {
                    "name": "B2",
                    "midi": 47,
                    "time": 399.4332600000088,
                    "velocity": 0.23622047244094488,
                    "duration": 0.21246450000001005
                },
                {
                    "name": "B3",
                    "midi": 59,
                    "time": 399.6457245000088,
                    "velocity": 0.18110236220472442,
                    "duration": 0.21246450000001005
                },
                {
                    "name": "B2",
                    "midi": 47,
                    "time": 399.8581890000088,
                    "velocity": 0.1889763779527559,
                    "duration": 0.21246450000001005
                },
                {
                    "name": "B3",
                    "midi": 59,
                    "time": 400.0706535000088,
                    "velocity": 0.1732283464566929,
                    "duration": 0.21246450000001005
                },
                {
                    "name": "A3",
                    "midi": 57,
                    "time": 400.2831180000088,
                    "velocity": 0.1889763779527559,
                    "duration": 0.21246450000001005
                },
                {
                    "name": "A4",
                    "midi": 69,
                    "time": 400.4955825000088,
                    "velocity": 0.18110236220472442,
                    "duration": 0.21246450000001005
                },
                {
                    "name": "G#3",
                    "midi": 56,
                    "time": 400.70804700000883,
                    "velocity": 0.1968503937007874,
                    "duration": 0.21246450000001005
                },
                {
                    "name": "G#4",
                    "midi": 68,
                    "time": 400.92051150000884,
                    "velocity": 0.1968503937007874,
                    "duration": 0.21246450000001005
                },
                {
                    "name": "F#3",
                    "midi": 54,
                    "time": 401.13297600000885,
                    "velocity": 0.2283464566929134,
                    "duration": 0.21246450000001005
                },
                {
                    "name": "F#4",
                    "midi": 66,
                    "time": 401.34544050000886,
                    "velocity": 0.2204724409448819,
                    "duration": 0.21246450000001005
                },
                {
                    "name": "E3",
                    "midi": 52,
                    "time": 401.5579050000089,
                    "velocity": 0.29133858267716534,
                    "duration": 0.21246450000001005
                },
                {
                    "name": "E4",
                    "midi": 64,
                    "time": 401.7703695000089,
                    "velocity": 0.2440944881889764,
                    "duration": 0.21246450000001005
                },
                {
                    "name": "D#3",
                    "midi": 51,
                    "time": 401.9828340000089,
                    "velocity": 0.3779527559055118,
                    "duration": 0.21246450000001005
                },
                {
                    "name": "D#4",
                    "midi": 63,
                    "time": 402.1952985000089,
                    "velocity": 0.31496062992125984,
                    "duration": 0.21246450000001005
                },
                {
                    "name": "B2",
                    "midi": 47,
                    "time": 402.4077630000089,
                    "velocity": 0.1732283464566929,
                    "duration": 0.21246450000001005
                },
                {
                    "name": "B3",
                    "midi": 59,
                    "time": 402.6202275000089,
                    "velocity": 0.15748031496062992,
                    "duration": 0.21246450000001005
                },
                {
                    "name": "E3",
                    "midi": 52,
                    "time": 402.83269200000893,
                    "velocity": 0.2204724409448819,
                    "duration": 0.8498579999999833
                },
                {
                    "name": "E4",
                    "midi": 64,
                    "time": 402.83269200000893,
                    "velocity": 0.2204724409448819,
                    "duration": 0.8498579999999833
                },
                {
                    "name": "D#3",
                    "midi": 51,
                    "time": 404.10747900000894,
                    "velocity": 0.33070866141732286,
                    "duration": 0.4249290000000201
                },
                {
                    "name": "B3",
                    "midi": 59,
                    "time": 404.10747900000894,
                    "velocity": 0.33070866141732286,
                    "duration": 0.4249290000000201
                },
                {
                    "name": "C#3",
                    "midi": 49,
                    "time": 404.53240800000896,
                    "velocity": 0.33070866141732286,
                    "duration": 0.8498579999999833
                },
                {
                    "name": "A#3",
                    "midi": 58,
                    "time": 404.53240800000896,
                    "velocity": 0.33070866141732286,
                    "duration": 0.8498579999999833
                },
                {
                    "name": "A#3",
                    "midi": 58,
                    "time": 405.38226600000894,
                    "velocity": 0.3700787401574803,
                    "duration": 0.8498579999999833
                },
                {
                    "name": "E4",
                    "midi": 64,
                    "time": 405.38226600000894,
                    "velocity": 0.3700787401574803,
                    "duration": 0.8498579999999833
                },
                {
                    "name": "B3",
                    "midi": 59,
                    "time": 406.2321240000089,
                    "velocity": 0.33070866141732286,
                    "duration": 0.8498579999999833
                },
                {
                    "name": "D#4",
                    "midi": 63,
                    "time": 406.2321240000089,
                    "velocity": 0.33070866141732286,
                    "duration": 0.8498579999999833
                },
                {
                    "name": "B2",
                    "midi": 47,
                    "time": 407.0819820000089,
                    "velocity": 0.2992125984251969,
                    "duration": 0.4249290000000201
                },
                {
                    "name": "B3",
                    "midi": 59,
                    "time": 407.0819820000089,
                    "velocity": 0.2992125984251969,
                    "duration": 0.4249290000000201
                },
                {
                    "name": "C#3",
                    "midi": 49,
                    "time": 407.5069110000089,
                    "velocity": 0.2992125984251969,
                    "duration": 0.4249290000000201
                },
                {
                    "name": "A3",
                    "midi": 57,
                    "time": 407.5069110000089,
                    "velocity": 0.2992125984251969,
                    "duration": 0.4249290000000201
                },
                {
                    "name": "D3",
                    "midi": 50,
                    "time": 407.93184000000895,
                    "velocity": 0.33070866141732286,
                    "duration": 0.8498579999999833
                },
                {
                    "name": "G#3",
                    "midi": 56,
                    "time": 407.93184000000895,
                    "velocity": 0.33070866141732286,
                    "duration": 0.8498579999999833
                },
                {
                    "name": "G#3",
                    "midi": 56,
                    "time": 408.78169800000893,
                    "velocity": 0.3543307086614173,
                    "duration": 0.8498579999999833
                },
                {
                    "name": "D4",
                    "midi": 62,
                    "time": 408.78169800000893,
                    "velocity": 0.3543307086614173,
                    "duration": 0.8498579999999833
                },
                {
                    "name": "A3",
                    "midi": 57,
                    "time": 409.6315560000089,
                    "velocity": 0.33070866141732286,
                    "duration": 1.2747870000000034
                },
                {
                    "name": "C#4",
                    "midi": 61,
                    "time": 409.6315560000089,
                    "velocity": 0.33070866141732286,
                    "duration": 1.2747870000000034
                },
                {
                    "name": "A3",
                    "midi": 57,
                    "time": 410.9063430000089,
                    "velocity": 0.31496062992125984,
                    "duration": 0.4249290000000201
                },
                {
                    "name": "C#4",
                    "midi": 61,
                    "time": 410.9063430000089,
                    "velocity": 0.31496062992125984,
                    "duration": 0.4249290000000201
                },
                {
                    "name": "C4",
                    "midi": 60,
                    "time": 411.33127200000894,
                    "velocity": 0.4251968503937008,
                    "duration": 0.4249290000000201
                },
                {
                    "name": "G#3",
                    "midi": 56,
                    "time": 411.33127200000894,
                    "velocity": 0.4251968503937008,
                    "duration": 0.4249290000000201
                },
                {
                    "name": "C#4",
                    "midi": 61,
                    "time": 411.75620100000896,
                    "velocity": 0.4015748031496063,
                    "duration": 0.4249290000000201
                },
                {
                    "name": "A3",
                    "midi": 57,
                    "time": 411.75620100000896,
                    "velocity": 0.4015748031496063,
                    "duration": 0.4249290000000201
                },
                {
                    "name": "C#3",
                    "midi": 49,
                    "time": 412.181130000009,
                    "velocity": 0.47244094488188976,
                    "duration": 0.31869675000001507
                },
                {
                    "name": "A3",
                    "midi": 57,
                    "time": 412.181130000009,
                    "velocity": 0.47244094488188976,
                    "duration": 0.31869675000001507
                },
                {
                    "name": "B2",
                    "midi": 47,
                    "time": 412.606059000009,
                    "velocity": 0.4566929133858268,
                    "duration": 0.31869675000001507
                },
                {
                    "name": "G#3",
                    "midi": 56,
                    "time": 412.606059000009,
                    "velocity": 0.4566929133858268,
                    "duration": 0.31869675000001507
                },
                {
                    "name": "G#3",
                    "midi": 56,
                    "time": 413.030988000009,
                    "velocity": 0.5354330708661418,
                    "duration": 0.4249290000000201
                },
                {
                    "name": "F#3",
                    "midi": 54,
                    "time": 413.45591700000904,
                    "velocity": 0.5039370078740157,
                    "duration": 0.8498579999999833
                },
                {
                    "name": "A#2",
                    "midi": 46,
                    "time": 413.45591700000904,
                    "velocity": 0.5039370078740157,
                    "duration": 0.8498579999999833
                },
                {
                    "name": "A#2",
                    "midi": 46,
                    "time": 414.305775000009,
                    "velocity": 0.4015748031496063,
                    "duration": 0.4249290000000201
                },
                {
                    "name": "F#3",
                    "midi": 54,
                    "time": 414.305775000009,
                    "velocity": 0.4251968503937008,
                    "duration": 0.4249290000000201
                },
                {
                    "name": "F#3",
                    "midi": 54,
                    "time": 414.73070400000904,
                    "velocity": 0.3228346456692913,
                    "duration": 0.4249290000000201
                },
                {
                    "name": "B2",
                    "midi": 47,
                    "time": 414.73070400000904,
                    "velocity": 0.2677165354330709,
                    "duration": 1.6997160000000804
                },
                {
                    "name": "B3",
                    "midi": 59,
                    "time": 415.15563300000906,
                    "velocity": 0.25196850393700787,
                    "duration": 0.4249290000000201
                },
                {
                    "name": "A#3",
                    "midi": 58,
                    "time": 415.5805620000091,
                    "velocity": 0.2992125984251969,
                    "duration": 0.4249290000000201
                },
                {
                    "name": "B3",
                    "midi": 59,
                    "time": 416.0054910000091,
                    "velocity": 0.2677165354330709,
                    "duration": 0.4249290000000201
                },
                {
                    "name": "E3",
                    "midi": 52,
                    "time": 416.4304200000091,
                    "velocity": 0.2440944881889764,
                    "duration": 0.21246450000001005
                },
                {
                    "name": "B3",
                    "midi": 59,
                    "time": 416.64288450000913,
                    "velocity": 0.18110236220472442,
                    "duration": 0.21246450000001005
                },
                {
                    "name": "G#3",
                    "midi": 56,
                    "time": 416.85534900000914,
                    "velocity": 0.2440944881889764,
                    "duration": 0.21246450000001005
                },
                {
                    "name": "E3",
                    "midi": 52,
                    "time": 417.06781350000915,
                    "velocity": 0.1968503937007874,
                    "duration": 0.21246450000001005
                },
                {
                    "name": "D#3",
                    "midi": 51,
                    "time": 417.28027800000916,
                    "velocity": 0.2440944881889764,
                    "duration": 0.21246450000001005
                },
                {
                    "name": "B3",
                    "midi": 59,
                    "time": 417.4927425000092,
                    "velocity": 0.2125984251968504,
                    "duration": 0.21246450000001005
                },
                {
                    "name": "F#3",
                    "midi": 54,
                    "time": 417.7052070000092,
                    "velocity": 0.2440944881889764,
                    "duration": 0.21246450000001005
                },
                {
                    "name": "D#3",
                    "midi": 51,
                    "time": 417.9176715000092,
                    "velocity": 0.25196850393700787,
                    "duration": 0.21246450000001005
                },
                {
                    "name": "C#3",
                    "midi": 49,
                    "time": 418.1301360000092,
                    "velocity": 0.2992125984251969,
                    "duration": 0.21246450000001005
                },
                {
                    "name": "A#3",
                    "midi": 58,
                    "time": 418.3426005000092,
                    "velocity": 0.2283464566929134,
                    "duration": 0.21246450000001005
                },
                {
                    "name": "F#3",
                    "midi": 54,
                    "time": 418.5550650000092,
                    "velocity": 0.2440944881889764,
                    "duration": 0.21246450000001005
                },
                {
                    "name": "C#3",
                    "midi": 49,
                    "time": 418.76752950000923,
                    "velocity": 0.2125984251968504,
                    "duration": 0.21246450000001005
                },
                {
                    "name": "F#2",
                    "midi": 42,
                    "time": 418.97999400000924,
                    "velocity": 0.2440944881889764,
                    "duration": 0.21246450000001005
                },
                {
                    "name": "A#3",
                    "midi": 58,
                    "time": 419.19245850000925,
                    "velocity": 0.2047244094488189,
                    "duration": 0.21246450000001005
                },
                {
                    "name": "F#3",
                    "midi": 54,
                    "time": 419.40492300000926,
                    "velocity": 0.2283464566929134,
                    "duration": 0.21246450000001005
                },
                {
                    "name": "C#3",
                    "midi": 49,
                    "time": 419.6173875000093,
                    "velocity": 0.2125984251968504,
                    "duration": 0.21246450000001005
                },
                {
                    "name": "B2",
                    "midi": 47,
                    "time": 419.8298520000093,
                    "velocity": 0.2440944881889764,
                    "duration": 0.21246450000001005
                },
                {
                    "name": "B3",
                    "midi": 59,
                    "time": 420.0423165000093,
                    "velocity": 0.1968503937007874,
                    "duration": 0.21246450000001005
                },
                {
                    "name": "F#3",
                    "midi": 54,
                    "time": 420.2547810000093,
                    "velocity": 0.23622047244094488,
                    "duration": 0.21246450000001005
                },
                {
                    "name": "D#3",
                    "midi": 51,
                    "time": 420.4672455000093,
                    "velocity": 0.2125984251968504,
                    "duration": 0.21246450000001005
                },
                {
                    "name": "B2",
                    "midi": 47,
                    "time": 420.6797100000093,
                    "velocity": 0.29133858267716534,
                    "duration": 0.21246450000001005
                },
                {
                    "name": "B3",
                    "midi": 59,
                    "time": 420.89217450000933,
                    "velocity": 0.23622047244094488,
                    "duration": 0.21246450000001005
                },
                {
                    "name": "C#3",
                    "midi": 49,
                    "time": 421.10463900000934,
                    "velocity": 0.29133858267716534,
                    "duration": 0.21246450000001005
                },
                {
                    "name": "A3",
                    "midi": 57,
                    "time": 421.31710350000935,
                    "velocity": 0.25984251968503935,
                    "duration": 0.21246450000001005
                },
                {
                    "name": "B2",
                    "midi": 47,
                    "time": 421.52956800000936,
                    "velocity": 0.2440944881889764,
                    "duration": 0.21246450000001005
                },
                {
                    "name": "G#3",
                    "midi": 56,
                    "time": 421.7420325000094,
                    "velocity": 0.2283464566929134,
                    "duration": 0.21246450000001005
                },
                {
                    "name": "E3",
                    "midi": 52,
                    "time": 421.9544970000094,
                    "velocity": 0.2677165354330709,
                    "duration": 0.21246450000001005
                },
                {
                    "name": "B2",
                    "midi": 47,
                    "time": 422.1669615000094,
                    "velocity": 0.2283464566929134,
                    "duration": 0.21246450000001005
                },
                {
                    "name": "E2",
                    "midi": 40,
                    "time": 422.3794260000094,
                    "velocity": 0.30708661417322836,
                    "duration": 0.21246450000001005
                },
                {
                    "name": "G#3",
                    "midi": 56,
                    "time": 422.5918905000094,
                    "velocity": 0.25196850393700787,
                    "duration": 0.21246450000001005
                },
                {
                    "name": "E3",
                    "midi": 52,
                    "time": 422.8043550000094,
                    "velocity": 0.28346456692913385,
                    "duration": 0.21246450000001005
                },
                {
                    "name": "B2",
                    "midi": 47,
                    "time": 423.01681950000943,
                    "velocity": 0.2283464566929134,
                    "duration": 0.21246450000001005
                },
                {
                    "name": "A2",
                    "midi": 45,
                    "time": 423.22928400000944,
                    "velocity": 0.2755905511811024,
                    "duration": 0.21246450000001005
                },
                {
                    "name": "A3",
                    "midi": 57,
                    "time": 423.44174850000945,
                    "velocity": 0.2125984251968504,
                    "duration": 0.21246450000001005
                },
                {
                    "name": "E3",
                    "midi": 52,
                    "time": 423.65421300000946,
                    "velocity": 0.2440944881889764,
                    "duration": 0.21246450000001005
                },
                {
                    "name": "C#3",
                    "midi": 49,
                    "time": 423.8666775000095,
                    "velocity": 0.2125984251968504,
                    "duration": 0.21246450000001005
                },
                {
                    "name": "A2",
                    "midi": 45,
                    "time": 424.0791420000095,
                    "velocity": 0.2440944881889764,
                    "duration": 0.21246450000001005
                },
                {
                    "name": "E3",
                    "midi": 52,
                    "time": 424.2916065000095,
                    "velocity": 0.2283464566929134,
                    "duration": 0.21246450000001005
                },
                {
                    "name": "A2",
                    "midi": 45,
                    "time": 424.5040710000095,
                    "velocity": 0.2677165354330709,
                    "duration": 0.21246450000001005
                },
                {
                    "name": "E3",
                    "midi": 52,
                    "time": 424.7165355000095,
                    "velocity": 0.2992125984251969,
                    "duration": 0.21246450000001005
                },
                {
                    "name": "G#2",
                    "midi": 44,
                    "time": 424.9290000000095,
                    "velocity": 0.2992125984251969,
                    "duration": 0.21246450000001005
                },
                {
                    "name": "E3",
                    "midi": 52,
                    "time": 425.14146450000953,
                    "velocity": 0.2677165354330709,
                    "duration": 0.21246450000001005
                },
                {
                    "name": "A2",
                    "midi": 45,
                    "time": 425.35392900000954,
                    "velocity": 0.2992125984251969,
                    "duration": 0.21246450000001005
                },
                {
                    "name": "E3",
                    "midi": 52,
                    "time": 425.56639350000955,
                    "velocity": 0.2755905511811024,
                    "duration": 0.21246450000001005
                },
                {
                    "name": "A2",
                    "midi": 45,
                    "time": 425.77885800000956,
                    "velocity": 0.28346456692913385,
                    "duration": 0.21246450000001005
                },
                {
                    "name": "C#3",
                    "midi": 49,
                    "time": 425.77885800000956,
                    "velocity": 0.33858267716535434,
                    "duration": 0.21246450000001005
                },
                {
                    "name": "E3",
                    "midi": 52,
                    "time": 425.9913225000096,
                    "velocity": 0.2755905511811024,
                    "duration": 0.21246450000001005
                },
                {
                    "name": "B2",
                    "midi": 47,
                    "time": 426.2037870000096,
                    "velocity": 0.29133858267716534,
                    "duration": 0.21246450000001005
                },
                {
                    "name": "E3",
                    "midi": 52,
                    "time": 426.2037870000096,
                    "velocity": 0.3464566929133858,
                    "duration": 0.21246450000001005
                },
                {
                    "name": "G#3",
                    "midi": 56,
                    "time": 426.4162515000096,
                    "velocity": 0.28346456692913385,
                    "duration": 0.21246450000001005
                },
                {
                    "name": "E3",
                    "midi": 52,
                    "time": 426.6287160000096,
                    "velocity": 0.4251968503937008,
                    "duration": 0.21246450000001005
                },
                {
                    "name": "C#3",
                    "midi": 49,
                    "time": 426.6287160000096,
                    "velocity": 0.36220472440944884,
                    "duration": 0.21246450000001005
                },
                {
                    "name": "A#3",
                    "midi": 58,
                    "time": 426.8411805000096,
                    "velocity": 0.3700787401574803,
                    "duration": 0.21246450000001005
                },
                {
                    "name": "E3",
                    "midi": 52,
                    "time": 427.0536450000096,
                    "velocity": 0.4094488188976378,
                    "duration": 0.21246450000001005
                },
                {
                    "name": "C#3",
                    "midi": 49,
                    "time": 427.0536450000096,
                    "velocity": 0.3464566929133858,
                    "duration": 0.21246450000001005
                },
                {
                    "name": "A#3",
                    "midi": 58,
                    "time": 427.26610950000963,
                    "velocity": 0.33070866141732286,
                    "duration": 0.21246450000001005
                },
                {
                    "name": "E3",
                    "midi": 52,
                    "time": 427.47857400000964,
                    "velocity": 0.3779527559055118,
                    "duration": 0.21246450000001005
                },
                {
                    "name": "C3",
                    "midi": 48,
                    "time": 427.47857400000964,
                    "velocity": 0.3228346456692913,
                    "duration": 0.21246450000001005
                },
                {
                    "name": "A3",
                    "midi": 57,
                    "time": 427.69103850000965,
                    "velocity": 0.29133858267716534,
                    "duration": 0.21246450000001005
                },
                {
                    "name": "C3",
                    "midi": 48,
                    "time": 427.90350300000966,
                    "velocity": 0.31496062992125984,
                    "duration": 0.21246450000001005
                },
                {
                    "name": "E3",
                    "midi": 52,
                    "time": 427.90350300000966,
                    "velocity": 0.3700787401574803,
                    "duration": 0.21246450000001005
                },
                {
                    "name": "A3",
                    "midi": 57,
                    "time": 428.1159675000097,
                    "velocity": 0.2992125984251969,
                    "duration": 0.21246450000001005
                },
                {
                    "name": "B2",
                    "midi": 47,
                    "time": 428.3284320000097,
                    "velocity": 0.2440944881889764,
                    "duration": 0.21246450000001005
                },
                {
                    "name": "D#3",
                    "midi": 51,
                    "time": 428.5408965000097,
                    "velocity": 0.16535433070866143,
                    "duration": 0.21246450000001005
                },
                {
                    "name": "F#3",
                    "midi": 54,
                    "time": 428.5408965000097,
                    "velocity": 0.16535433070866143,
                    "duration": 0.21246450000001005
                },
                {
                    "name": "A3",
                    "midi": 57,
                    "time": 428.5408965000097,
                    "velocity": 0.2125984251968504,
                    "duration": 0.21246450000001005
                },
                {
                    "name": "B2",
                    "midi": 47,
                    "time": 428.7533610000097,
                    "velocity": 0.2440944881889764,
                    "duration": 0.21246450000001005
                },
                {
                    "name": "D#3",
                    "midi": 51,
                    "time": 428.9658255000097,
                    "velocity": 0.18110236220472442,
                    "duration": 0.21246450000001005
                },
                {
                    "name": "F#3",
                    "midi": 54,
                    "time": 428.9658255000097,
                    "velocity": 0.18110236220472442,
                    "duration": 0.21246450000001005
                },
                {
                    "name": "A3",
                    "midi": 57,
                    "time": 428.9658255000097,
                    "velocity": 0.2283464566929134,
                    "duration": 0.21246450000001005
                },
                {
                    "name": "B2",
                    "midi": 47,
                    "time": 429.1782900000097,
                    "velocity": 0.2440944881889764,
                    "duration": 0.21246450000001005
                },
                {
                    "name": "D#3",
                    "midi": 51,
                    "time": 429.39075450000973,
                    "velocity": 0.16535433070866143,
                    "duration": 0.21246450000001005
                },
                {
                    "name": "F#3",
                    "midi": 54,
                    "time": 429.39075450000973,
                    "velocity": 0.16535433070866143,
                    "duration": 0.21246450000001005
                },
                {
                    "name": "A3",
                    "midi": 57,
                    "time": 429.39075450000973,
                    "velocity": 0.2125984251968504,
                    "duration": 0.21246450000001005
                },
                {
                    "name": "B2",
                    "midi": 47,
                    "time": 429.60321900000974,
                    "velocity": 0.2440944881889764,
                    "duration": 0.21246450000001005
                },
                {
                    "name": "D#3",
                    "midi": 51,
                    "time": 429.81568350000975,
                    "velocity": 0.1732283464566929,
                    "duration": 0.21246450000001005
                },
                {
                    "name": "F#3",
                    "midi": 54,
                    "time": 429.81568350000975,
                    "velocity": 0.1732283464566929,
                    "duration": 0.21246450000001005
                },
                {
                    "name": "A3",
                    "midi": 57,
                    "time": 429.81568350000975,
                    "velocity": 0.2204724409448819,
                    "duration": 0.21246450000001005
                },
                {
                    "name": "B2",
                    "midi": 47,
                    "time": 430.02814800000976,
                    "velocity": 0.2440944881889764,
                    "duration": 0.21246450000001005
                },
                {
                    "name": "E3",
                    "midi": 52,
                    "time": 430.2406125000098,
                    "velocity": 0.16535433070866143,
                    "duration": 0.21246450000001005
                },
                {
                    "name": "G#3",
                    "midi": 56,
                    "time": 430.2406125000098,
                    "velocity": 0.2125984251968504,
                    "duration": 0.21246450000001005
                },
                {
                    "name": "B2",
                    "midi": 47,
                    "time": 430.4530770000098,
                    "velocity": 0.2440944881889764,
                    "duration": 0.21246450000001005
                },
                {
                    "name": "E3",
                    "midi": 52,
                    "time": 430.6655415000098,
                    "velocity": 0.18110236220472442,
                    "duration": 0.21246450000001005
                },
                {
                    "name": "G#3",
                    "midi": 56,
                    "time": 430.6655415000098,
                    "velocity": 0.2283464566929134,
                    "duration": 0.21246450000001005
                },
                {
                    "name": "B2",
                    "midi": 47,
                    "time": 430.8780060000098,
                    "velocity": 0.2440944881889764,
                    "duration": 0.21246450000001005
                },
                {
                    "name": "E3",
                    "midi": 52,
                    "time": 431.0904705000098,
                    "velocity": 0.16535433070866143,
                    "duration": 0.21246450000001005
                },
                {
                    "name": "G#3",
                    "midi": 56,
                    "time": 431.0904705000098,
                    "velocity": 0.2125984251968504,
                    "duration": 0.21246450000001005
                },
                {
                    "name": "B2",
                    "midi": 47,
                    "time": 431.3029350000098,
                    "velocity": 0.2440944881889764,
                    "duration": 0.21246450000001005
                },
                {
                    "name": "E3",
                    "midi": 52,
                    "time": 431.51539950000983,
                    "velocity": 0.1732283464566929,
                    "duration": 0.21246450000001005
                },
                {
                    "name": "G#3",
                    "midi": 56,
                    "time": 431.51539950000983,
                    "velocity": 0.2204724409448819,
                    "duration": 0.21246450000001005
                },
                {
                    "name": "F#3",
                    "midi": 54,
                    "time": 431.72786400000984,
                    "velocity": 0.36220472440944884,
                    "duration": 1.6997160000000804
                },
                {
                    "name": "B2",
                    "midi": 47,
                    "time": 431.72786400000984,
                    "velocity": 0.36220472440944884,
                    "duration": 1.6997160000000804
                },
                {
                    "name": "B3",
                    "midi": 59,
                    "time": 432.15279300000986,
                    "velocity": 0.2677165354330709,
                    "duration": 0.4249290000000201
                },
                {
                    "name": "A#3",
                    "midi": 58,
                    "time": 432.5777220000099,
                    "velocity": 0.33858267716535434,
                    "duration": 0.4249290000000201
                },
                {
                    "name": "B3",
                    "midi": 59,
                    "time": 433.0026510000099,
                    "velocity": 0.2755905511811024,
                    "duration": 0.4249290000000201
                },
                {
                    "name": "E3",
                    "midi": 52,
                    "time": 433.4275800000099,
                    "velocity": 0.36220472440944884,
                    "duration": 1.6997160000000804
                },
                {
                    "name": "B2",
                    "midi": 47,
                    "time": 433.4275800000099,
                    "velocity": 0.36220472440944884,
                    "duration": 1.6997160000000804
                },
                {
                    "name": "B3",
                    "midi": 59,
                    "time": 433.85250900000995,
                    "velocity": 0.2677165354330709,
                    "duration": 0.4249290000000201
                },
                {
                    "name": "A#3",
                    "midi": 58,
                    "time": 434.27743800000997,
                    "velocity": 0.33858267716535434,
                    "duration": 0.4249290000000201
                },
                {
                    "name": "B3",
                    "midi": 59,
                    "time": 434.70236700001,
                    "velocity": 0.2755905511811024,
                    "duration": 0.4249290000000201
                },
                {
                    "name": "B2",
                    "midi": 47,
                    "time": 435.12729600001,
                    "velocity": 0.29133858267716534,
                    "duration": 0.21246450000001005
                },
                {
                    "name": "D#3",
                    "midi": 51,
                    "time": 435.33976050001,
                    "velocity": 0.1968503937007874,
                    "duration": 0.21246450000001005
                },
                {
                    "name": "F#3",
                    "midi": 54,
                    "time": 435.33976050001,
                    "velocity": 0.1968503937007874,
                    "duration": 0.21246450000001005
                },
                {
                    "name": "A3",
                    "midi": 57,
                    "time": 435.33976050001,
                    "velocity": 0.2440944881889764,
                    "duration": 0.21246450000001005
                },
                {
                    "name": "B2",
                    "midi": 47,
                    "time": 435.55222500001,
                    "velocity": 0.29133858267716534,
                    "duration": 0.21246450000001005
                },
                {
                    "name": "D#3",
                    "midi": 51,
                    "time": 435.76468950001004,
                    "velocity": 0.2125984251968504,
                    "duration": 0.21246450000001005
                },
                {
                    "name": "F#3",
                    "midi": 54,
                    "time": 435.76468950001004,
                    "velocity": 0.2125984251968504,
                    "duration": 0.21246450000001005
                },
                {
                    "name": "A3",
                    "midi": 57,
                    "time": 435.76468950001004,
                    "velocity": 0.2755905511811024,
                    "duration": 0.21246450000001005
                },
                {
                    "name": "B2",
                    "midi": 47,
                    "time": 435.97715400001005,
                    "velocity": 0.30708661417322836,
                    "duration": 0.21246450000001005
                },
                {
                    "name": "D#3",
                    "midi": 51,
                    "time": 436.18961850001006,
                    "velocity": 0.2125984251968504,
                    "duration": 0.21246450000001005
                },
                {
                    "name": "F#3",
                    "midi": 54,
                    "time": 436.18961850001006,
                    "velocity": 0.2125984251968504,
                    "duration": 0.21246450000001005
                },
                {
                    "name": "A3",
                    "midi": 57,
                    "time": 436.18961850001006,
                    "velocity": 0.2755905511811024,
                    "duration": 0.21246450000001005
                },
                {
                    "name": "B2",
                    "midi": 47,
                    "time": 436.40208300001007,
                    "velocity": 0.31496062992125984,
                    "duration": 0.21246450000001005
                },
                {
                    "name": "D#3",
                    "midi": 51,
                    "time": 436.6145475000101,
                    "velocity": 0.2204724409448819,
                    "duration": 0.21246450000001005
                },
                {
                    "name": "F#3",
                    "midi": 54,
                    "time": 436.6145475000101,
                    "velocity": 0.2204724409448819,
                    "duration": 0.21246450000001005
                },
                {
                    "name": "A3",
                    "midi": 57,
                    "time": 436.6145475000101,
                    "velocity": 0.29133858267716534,
                    "duration": 0.21246450000001005
                },
                {
                    "name": "B2",
                    "midi": 47,
                    "time": 436.8270120000101,
                    "velocity": 0.3779527559055118,
                    "duration": 0.21246450000001005
                },
                {
                    "name": "D3",
                    "midi": 50,
                    "time": 437.0394765000101,
                    "velocity": 0.25196850393700787,
                    "duration": 0.21246450000001005
                },
                {
                    "name": "F3",
                    "midi": 53,
                    "time": 437.0394765000101,
                    "velocity": 0.25196850393700787,
                    "duration": 0.21246450000001005
                },
                {
                    "name": "G#3",
                    "midi": 56,
                    "time": 437.0394765000101,
                    "velocity": 0.3228346456692913,
                    "duration": 0.21246450000001005
                },
                {
                    "name": "B2",
                    "midi": 47,
                    "time": 437.2519410000101,
                    "velocity": 0.3779527559055118,
                    "duration": 0.21246450000001005
                },
                {
                    "name": "D3",
                    "midi": 50,
                    "time": 437.4644055000101,
                    "velocity": 0.29133858267716534,
                    "duration": 0.21246450000001005
                },
                {
                    "name": "F3",
                    "midi": 53,
                    "time": 437.4644055000101,
                    "velocity": 0.29133858267716534,
                    "duration": 0.21246450000001005
                },
                {
                    "name": "G#3",
                    "midi": 56,
                    "time": 437.4644055000101,
                    "velocity": 0.36220472440944884,
                    "duration": 0.21246450000001005
                },
                {
                    "name": "B2",
                    "midi": 47,
                    "time": 437.6768700000101,
                    "velocity": 0.3937007874015748,
                    "duration": 0.21246450000001005
                },
                {
                    "name": "D3",
                    "midi": 50,
                    "time": 437.88933450001014,
                    "velocity": 0.2677165354330709,
                    "duration": 0.21246450000001005
                },
                {
                    "name": "F3",
                    "midi": 53,
                    "time": 437.88933450001014,
                    "velocity": 0.2677165354330709,
                    "duration": 0.21246450000001005
                },
                {
                    "name": "G#3",
                    "midi": 56,
                    "time": 437.88933450001014,
                    "velocity": 0.36220472440944884,
                    "duration": 0.21246450000001005
                },
                {
                    "name": "B2",
                    "midi": 47,
                    "time": 438.10179900001015,
                    "velocity": 0.4015748031496063,
                    "duration": 0.21246450000001005
                },
                {
                    "name": "D3",
                    "midi": 50,
                    "time": 438.31426350001016,
                    "velocity": 0.2992125984251969,
                    "duration": 0.21246450000001005
                },
                {
                    "name": "F3",
                    "midi": 53,
                    "time": 438.31426350001016,
                    "velocity": 0.2992125984251969,
                    "duration": 0.21246450000001005
                },
                {
                    "name": "G#3",
                    "midi": 56,
                    "time": 438.31426350001016,
                    "velocity": 0.3700787401574803,
                    "duration": 0.21246450000001005
                },
                {
                    "name": "A2",
                    "midi": 45,
                    "time": 438.52672800001017,
                    "velocity": 0.4015748031496063,
                    "duration": 0.21246450000001005
                },
                {
                    "name": "F#3",
                    "midi": 54,
                    "time": 438.7391925000102,
                    "velocity": 0.33070866141732286,
                    "duration": 0.21246450000001005
                },
                {
                    "name": "C#3",
                    "midi": 49,
                    "time": 438.7391925000102,
                    "velocity": 0.2677165354330709,
                    "duration": 0.21246450000001005
                },
                {
                    "name": "A2",
                    "midi": 45,
                    "time": 438.9516570000102,
                    "velocity": 0.3858267716535433,
                    "duration": 0.21246450000001005
                },
                {
                    "name": "C#3",
                    "midi": 49,
                    "time": 439.1641215000102,
                    "velocity": 0.2755905511811024,
                    "duration": 0.21246450000001005
                },
                {
                    "name": "F#3",
                    "midi": 54,
                    "time": 439.1641215000102,
                    "velocity": 0.33070866141732286,
                    "duration": 0.21246450000001005
                },
                {
                    "name": "A2",
                    "midi": 45,
                    "time": 439.3765860000102,
                    "velocity": 0.4094488188976378,
                    "duration": 0.21246450000001005
                },
                {
                    "name": "F#3",
                    "midi": 54,
                    "time": 439.5890505000102,
                    "velocity": 0.33858267716535434,
                    "duration": 0.21246450000001005
                },
                {
                    "name": "C#3",
                    "midi": 49,
                    "time": 439.5890505000102,
                    "velocity": 0.2755905511811024,
                    "duration": 0.21246450000001005
                },
                {
                    "name": "A2",
                    "midi": 45,
                    "time": 439.8015150000102,
                    "velocity": 0.3858267716535433,
                    "duration": 0.21246450000001005
                },
                {
                    "name": "C#3",
                    "midi": 49,
                    "time": 440.01397950001024,
                    "velocity": 0.2992125984251969,
                    "duration": 0.21246450000001005
                },
                {
                    "name": "F#3",
                    "midi": 54,
                    "time": 440.01397950001024,
                    "velocity": 0.3543307086614173,
                    "duration": 0.21246450000001005
                },
                {
                    "name": "A#2",
                    "midi": 46,
                    "time": 440.22644400001025,
                    "velocity": 0.33858267716535434,
                    "duration": 0.21246450000001005
                },
                {
                    "name": "F#3",
                    "midi": 54,
                    "time": 440.43890850001026,
                    "velocity": 0.2755905511811024,
                    "duration": 0.21246450000001005
                },
                {
                    "name": "E3",
                    "midi": 52,
                    "time": 440.43890850001026,
                    "velocity": 0.2283464566929134,
                    "duration": 0.21246450000001005
                },
                {
                    "name": "C#3",
                    "midi": 49,
                    "time": 440.43890850001026,
                    "velocity": 0.2283464566929134,
                    "duration": 0.21246450000001005
                },
                {
                    "name": "A#2",
                    "midi": 46,
                    "time": 440.65137300001027,
                    "velocity": 0.31496062992125984,
                    "duration": 0.21246450000001005
                },
                {
                    "name": "F#3",
                    "midi": 54,
                    "time": 440.8638375000103,
                    "velocity": 0.2677165354330709,
                    "duration": 0.21246450000001005
                },
                {
                    "name": "E3",
                    "midi": 52,
                    "time": 440.8638375000103,
                    "velocity": 0.2204724409448819,
                    "duration": 0.21246450000001005
                },
                {
                    "name": "C#3",
                    "midi": 49,
                    "time": 440.8638375000103,
                    "velocity": 0.2204724409448819,
                    "duration": 0.21246450000001005
                },
                {
                    "name": "A#2",
                    "midi": 46,
                    "time": 441.0763020000103,
                    "velocity": 0.33858267716535434,
                    "duration": 0.21246450000001005
                },
                {
                    "name": "F#3",
                    "midi": 54,
                    "time": 441.2887665000103,
                    "velocity": 0.2677165354330709,
                    "duration": 0.21246450000001005
                },
                {
                    "name": "E3",
                    "midi": 52,
                    "time": 441.2887665000103,
                    "velocity": 0.2204724409448819,
                    "duration": 0.21246450000001005
                },
                {
                    "name": "C#3",
                    "midi": 49,
                    "time": 441.2887665000103,
                    "velocity": 0.2204724409448819,
                    "duration": 0.21246450000001005
                },
                {
                    "name": "A#2",
                    "midi": 46,
                    "time": 441.5012310000103,
                    "velocity": 0.30708661417322836,
                    "duration": 0.21246450000001005
                },
                {
                    "name": "F#3",
                    "midi": 54,
                    "time": 441.7136955000103,
                    "velocity": 0.25984251968503935,
                    "duration": 0.21246450000001005
                },
                {
                    "name": "E3",
                    "midi": 52,
                    "time": 441.7136955000103,
                    "velocity": 0.2204724409448819,
                    "duration": 0.21246450000001005
                },
                {
                    "name": "C#3",
                    "midi": 49,
                    "time": 441.7136955000103,
                    "velocity": 0.2204724409448819,
                    "duration": 0.21246450000001005
                },
                {
                    "name": "B2",
                    "midi": 47,
                    "time": 441.9261600000103,
                    "velocity": 0.2992125984251969,
                    "duration": 0.21246450000001005
                },
                {
                    "name": "E3",
                    "midi": 52,
                    "time": 442.13862450001034,
                    "velocity": 0.1968503937007874,
                    "duration": 0.21246450000001005
                },
                {
                    "name": "G#3",
                    "midi": 56,
                    "time": 442.13862450001034,
                    "velocity": 0.23622047244094488,
                    "duration": 0.21246450000001005
                },
                {
                    "name": "B2",
                    "midi": 47,
                    "time": 442.35108900001035,
                    "velocity": 0.2755905511811024,
                    "duration": 0.21246450000001005
                },
                {
                    "name": "G#3",
                    "midi": 56,
                    "time": 442.56355350001036,
                    "velocity": 0.2047244094488189,
                    "duration": 0.21246450000001005
                },
                {
                    "name": "E3",
                    "midi": 52,
                    "time": 442.56355350001036,
                    "velocity": 0.1732283464566929,
                    "duration": 0.21246450000001005
                },
                {
                    "name": "B2",
                    "midi": 47,
                    "time": 442.77601800001037,
                    "velocity": 0.25196850393700787,
                    "duration": 0.21246450000001005
                },
                {
                    "name": "E3",
                    "midi": 52,
                    "time": 442.9884825000104,
                    "velocity": 0.16535433070866143,
                    "duration": 0.21246450000001005
                },
                {
                    "name": "G#3",
                    "midi": 56,
                    "time": 442.9884825000104,
                    "velocity": 0.1968503937007874,
                    "duration": 0.21246450000001005
                },
                {
                    "name": "B2",
                    "midi": 47,
                    "time": 443.2009470000104,
                    "velocity": 0.25196850393700787,
                    "duration": 0.21246450000001005
                },
                {
                    "name": "G#3",
                    "midi": 56,
                    "time": 443.4134115000104,
                    "velocity": 0.1968503937007874,
                    "duration": 0.21246450000001005
                },
                {
                    "name": "E3",
                    "midi": 52,
                    "time": 443.4134115000104,
                    "velocity": 0.16535433070866143,
                    "duration": 0.21246450000001005
                },
                {
                    "name": "B2",
                    "midi": 47,
                    "time": 443.6258760000104,
                    "velocity": 0.25196850393700787,
                    "duration": 0.21246450000001005
                },
                {
                    "name": "F#3",
                    "midi": 54,
                    "time": 443.8383405000104,
                    "velocity": 0.1968503937007874,
                    "duration": 0.21246450000001005
                },
                {
                    "name": "B2",
                    "midi": 47,
                    "time": 444.0508050000104,
                    "velocity": 0.25196850393700787,
                    "duration": 0.21246450000001005
                },
                {
                    "name": "D#3",
                    "midi": 51,
                    "time": 444.26326950001044,
                    "velocity": 0.2047244094488189,
                    "duration": 0.21246450000001005
                },
                {
                    "name": "B2",
                    "midi": 47,
                    "time": 444.47573400001045,
                    "velocity": 0.25196850393700787,
                    "duration": 0.21246450000001005
                },
                {
                    "name": "B3",
                    "midi": 59,
                    "time": 444.68819850001046,
                    "velocity": 0.2047244094488189,
                    "duration": 0.21246450000001005
                },
                {
                    "name": "B2",
                    "midi": 47,
                    "time": 444.90066300001047,
                    "velocity": 0.25196850393700787,
                    "duration": 0.21246450000001005
                },
                {
                    "name": "B3",
                    "midi": 59,
                    "time": 445.1131275000105,
                    "velocity": 0.2125984251968504,
                    "duration": 0.19475912500001868
                },
                {
                    "name": "B3",
                    "midi": 59,
                    "time": 445.3255920000105,
                    "velocity": 0.3937007874015748,
                    "duration": 0.8498579999999833
                },
                {
                    "name": "A3",
                    "midi": 57,
                    "time": 446.17545000001047,
                    "velocity": 0.4409448818897638,
                    "duration": 0.8498579999999833
                },
                {
                    "name": "G#3",
                    "midi": 56,
                    "time": 447.02530800001045,
                    "velocity": 0.5039370078740157,
                    "duration": 0.8498579999999833
                },
                {
                    "name": "B3",
                    "midi": 59,
                    "time": 447.02530800001045,
                    "velocity": 0.5039370078740157,
                    "duration": 0.8498579999999833
                },
                {
                    "name": "F#3",
                    "midi": 54,
                    "time": 447.87516600001044,
                    "velocity": 0.5511811023622047,
                    "duration": 0.8498579999999833
                },
                {
                    "name": "A3",
                    "midi": 57,
                    "time": 447.87516600001044,
                    "velocity": 0.5511811023622047,
                    "duration": 0.8498579999999833
                },
                {
                    "name": "G#3",
                    "midi": 56,
                    "time": 448.7250240000104,
                    "velocity": 0.6299212598425197,
                    "duration": 0.4249290000000201
                },
                {
                    "name": "F3",
                    "midi": 53,
                    "time": 448.7250240000104,
                    "velocity": 0.6299212598425197,
                    "duration": 0.4249290000000201
                },
                {
                    "name": "G#3",
                    "midi": 56,
                    "time": 449.57488200001046,
                    "velocity": 0.6377952755905512,
                    "duration": 0.4249290000000201
                },
                {
                    "name": "F3",
                    "midi": 53,
                    "time": 449.57488200001046,
                    "velocity": 0.6377952755905512,
                    "duration": 0.4249290000000201
                },
                {
                    "name": "A#3",
                    "midi": 58,
                    "time": 452.12445600001047,
                    "velocity": 0.31496062992125984,
                    "duration": 1.6997160000000235
                },
                {
                    "name": "B3",
                    "midi": 59,
                    "time": 453.8241720000105,
                    "velocity": 0.31496062992125984,
                    "duration": 6.356229625000026
                },
                {
                    "name": "A#3",
                    "midi": 58,
                    "time": 461.0479650000105,
                    "velocity": 0.25196850393700787,
                    "duration": 0.4249290000000201
                },
                {
                    "name": "B3",
                    "midi": 59,
                    "time": 461.4728940000105,
                    "velocity": 0.28346456692913385,
                    "duration": 0.4249290000000201
                },
                {
                    "name": "D#4",
                    "midi": 63,
                    "time": 461.89782300001053,
                    "velocity": 0.25196850393700787,
                    "duration": 0.4249290000000201
                },
                {
                    "name": "B3",
                    "midi": 59,
                    "time": 462.32275200001055,
                    "velocity": 0.2992125984251969,
                    "duration": 0.403682549999985
                },
                {
                    "name": "G#3",
                    "midi": 56,
                    "time": 462.7476810000105,
                    "velocity": 0.23622047244094488,
                    "duration": 0.4249290000000201
                },
                {
                    "name": "A3",
                    "midi": 57,
                    "time": 463.17261000001054,
                    "velocity": 0.2677165354330709,
                    "duration": 0.4249290000000201
                },
                {
                    "name": "C#4",
                    "midi": 61,
                    "time": 463.59753900001056,
                    "velocity": 0.2440944881889764,
                    "duration": 0.4249290000000201
                },
                {
                    "name": "A3",
                    "midi": 57,
                    "time": 464.0224680000106,
                    "velocity": 0.2992125984251969,
                    "duration": 0.403682549999985
                },
                {
                    "name": "G3",
                    "midi": 55,
                    "time": 464.44739700001054,
                    "velocity": 0.2440944881889764,
                    "duration": 0.4249290000000201
                },
                {
                    "name": "B2",
                    "midi": 47,
                    "time": 464.87232600001056,
                    "velocity": 0.2755905511811024,
                    "duration": 0.4249290000000201
                },
                {
                    "name": "G#3",
                    "midi": 56,
                    "time": 464.87232600001056,
                    "velocity": 0.2755905511811024,
                    "duration": 0.4249290000000201
                },
                {
                    "name": "B3",
                    "midi": 59,
                    "time": 465.2972550000106,
                    "velocity": 0.25196850393700787,
                    "duration": 0.4249290000000201
                },
                {
                    "name": "G#3",
                    "midi": 56,
                    "time": 465.7221840000106,
                    "velocity": 0.28346456692913385,
                    "duration": 0.403682549999985
                },
                {
                    "name": "F3",
                    "midi": 53,
                    "time": 466.14711300001056,
                    "velocity": 0.23622047244094488,
                    "duration": 0.4249290000000201
                },
                {
                    "name": "B2",
                    "midi": 47,
                    "time": 466.5720420000106,
                    "velocity": 0.23622047244094488,
                    "duration": 0.4249290000000201
                },
                {
                    "name": "F#3",
                    "midi": 54,
                    "time": 466.5720420000106,
                    "velocity": 0.28346456692913385,
                    "duration": 0.4249290000000201
                },
                {
                    "name": "A3",
                    "midi": 57,
                    "time": 466.9969710000106,
                    "velocity": 0.25984251968503935,
                    "duration": 0.4249290000000201
                },
                {
                    "name": "B2",
                    "midi": 47,
                    "time": 466.9969710000106,
                    "velocity": 0.2204724409448819,
                    "duration": 0.8498580000000402
                },
                {
                    "name": "G#3",
                    "midi": 56,
                    "time": 467.4219000000106,
                    "velocity": 0.3858267716535433,
                    "duration": 0.4249290000000201
                },
                {
                    "name": "B2",
                    "midi": 47,
                    "time": 467.84682900001064,
                    "velocity": 0.30708661417322836,
                    "duration": 0.8498580000000402
                },
                {
                    "name": "E3",
                    "midi": 52,
                    "time": 467.84682900001064,
                    "velocity": 0.36220472440944884,
                    "duration": 0.4249290000000201
                },
                {
                    "name": "F#3",
                    "midi": 54,
                    "time": 468.27175800001066,
                    "velocity": 0.4094488188976378,
                    "duration": 0.21246450000001005
                },
                {
                    "name": "A3",
                    "midi": 57,
                    "time": 468.4842225000107,
                    "velocity": 0.3937007874015748,
                    "duration": 0.21246450000001005
                },
                {
                    "name": "G#3",
                    "midi": 56,
                    "time": 468.6966870000107,
                    "velocity": 0.3543307086614173,
                    "duration": 0.21246450000001005
                },
                {
                    "name": "B2",
                    "midi": 47,
                    "time": 468.6966870000107,
                    "velocity": 0.29133858267716534,
                    "duration": 0.4249290000000201
                },
                {
                    "name": "F#3",
                    "midi": 54,
                    "time": 468.9091515000107,
                    "velocity": 0.31496062992125984,
                    "duration": 0.21246450000001005
                },
                {
                    "name": "E2",
                    "midi": 40,
                    "time": 469.1216160000107,
                    "velocity": 0.1968503937007874,
                    "duration": 0.4249290000000201
                },
                {
                    "name": "E3",
                    "midi": 52,
                    "time": 469.1216160000107,
                    "velocity": 0.23622047244094488,
                    "duration": 0.4249290000000201
                },
                {
                    "name": "B1",
                    "midi": 35,
                    "time": 470.8213320000107,
                    "velocity": 0.1968503937007874,
                    "duration": 0.4249290000000201
                },
                {
                    "name": "B2",
                    "midi": 47,
                    "time": 470.8213320000107,
                    "velocity": 0.23622047244094488,
                    "duration": 0.4249290000000201
                },
                {
                    "name": "C#2",
                    "midi": 37,
                    "time": 472.52104800001075,
                    "velocity": 0.1968503937007874,
                    "duration": 0.4249290000000201
                },
                {
                    "name": "C#3",
                    "midi": 49,
                    "time": 472.52104800001075,
                    "velocity": 0.23622047244094488,
                    "duration": 0.4249290000000201
                },
                {
                    "name": "D#3",
                    "midi": 51,
                    "time": 473.3709060000108,
                    "velocity": 0.2204724409448819,
                    "duration": 0.4249290000000201
                },
                {
                    "name": "D#2",
                    "midi": 39,
                    "time": 473.3709060000108,
                    "velocity": 0.18110236220472442,
                    "duration": 0.4249290000000201
                },
                {
                    "name": "B2",
                    "midi": 47,
                    "time": 473.7958350000108,
                    "velocity": 0.2047244094488189,
                    "duration": 0.4249290000000201
                },
                {
                    "name": "B1",
                    "midi": 35,
                    "time": 473.7958350000108,
                    "velocity": 0.1732283464566929,
                    "duration": 0.4249290000000201
                },
                {
                    "name": "E2",
                    "midi": 40,
                    "time": 474.22076400001083,
                    "velocity": 0.2204724409448819,
                    "duration": 0.8498579999999833
                },
                {
                    "name": "E3",
                    "midi": 52,
                    "time": 474.22076400001083,
                    "velocity": 0.2204724409448819,
                    "duration": 0.8498579999999833
                },
                {
                    "name": "B2",
                    "midi": 47,
                    "time": 475.49555100001083,
                    "velocity": 0.2047244094488189,
                    "duration": 0.4249290000000201
                },
                {
                    "name": "C#3",
                    "midi": 49,
                    "time": 475.92048000001085,
                    "velocity": 0.23622047244094488,
                    "duration": 0.8498579999999833
                },
                {
                    "name": "D#3",
                    "midi": 51,
                    "time": 476.77033800001084,
                    "velocity": 0.2204724409448819,
                    "duration": 0.4249290000000201
                },
                {
                    "name": "A3",
                    "midi": 57,
                    "time": 477.19526700001086,
                    "velocity": 0.2047244094488189,
                    "duration": 0.4249290000000201
                },
                {
                    "name": "B2",
                    "midi": 47,
                    "time": 477.19526700001086,
                    "velocity": 0.1732283464566929,
                    "duration": 0.4249290000000201
                },
                {
                    "name": "E3",
                    "midi": 52,
                    "time": 477.6201960000109,
                    "velocity": 0.2204724409448819,
                    "duration": 0.21246450000001005
                },
                {
                    "name": "G#3",
                    "midi": 56,
                    "time": 477.6201960000109,
                    "velocity": 0.25984251968503935,
                    "duration": 0.21246450000001005
                },
                {
                    "name": "B2",
                    "midi": 47,
                    "time": 477.8326605000109,
                    "velocity": 0.2125984251968504,
                    "duration": 0.21246450000001005
                },
                {
                    "name": "E3",
                    "midi": 52,
                    "time": 478.0451250000109,
                    "velocity": 0.2204724409448819,
                    "duration": 0.21246450000001005
                },
                {
                    "name": "G#3",
                    "midi": 56,
                    "time": 478.0451250000109,
                    "velocity": 0.25984251968503935,
                    "duration": 0.21246450000001005
                },
                {
                    "name": "B2",
                    "midi": 47,
                    "time": 478.2575895000109,
                    "velocity": 0.23622047244094488,
                    "duration": 0.21246450000001005
                },
                {
                    "name": "G#3",
                    "midi": 56,
                    "time": 478.4700540000109,
                    "velocity": 0.2440944881889764,
                    "duration": 0.21246450000001005
                },
                {
                    "name": "E3",
                    "midi": 52,
                    "time": 478.4700540000109,
                    "velocity": 0.2047244094488189,
                    "duration": 0.21246450000001005
                },
                {
                    "name": "B2",
                    "midi": 47,
                    "time": 478.68251850001093,
                    "velocity": 0.2047244094488189,
                    "duration": 0.21246450000001005
                },
                {
                    "name": "G#3",
                    "midi": 56,
                    "time": 478.89498300001094,
                    "velocity": 0.23622047244094488,
                    "duration": 0.21246450000001005
                },
                {
                    "name": "F3",
                    "midi": 53,
                    "time": 478.89498300001094,
                    "velocity": 0.1968503937007874,
                    "duration": 0.21246450000001005
                },
                {
                    "name": "B2",
                    "midi": 47,
                    "time": 479.10744750001095,
                    "velocity": 0.2047244094488189,
                    "duration": 0.21246450000001005
                },
                {
                    "name": "F#3",
                    "midi": 54,
                    "time": 479.31991200001096,
                    "velocity": 0.2204724409448819,
                    "duration": 0.21246450000001005
                },
                {
                    "name": "A3",
                    "midi": 57,
                    "time": 479.31991200001096,
                    "velocity": 0.25984251968503935,
                    "duration": 0.21246450000001005
                },
                {
                    "name": "B2",
                    "midi": 47,
                    "time": 479.53237650001097,
                    "velocity": 0.2047244094488189,
                    "duration": 0.21246450000001005
                },
                {
                    "name": "A3",
                    "midi": 57,
                    "time": 479.744841000011,
                    "velocity": 0.2204724409448819,
                    "duration": 0.21246450000001005
                },
                {
                    "name": "C#4",
                    "midi": 61,
                    "time": 479.744841000011,
                    "velocity": 0.25984251968503935,
                    "duration": 0.21246450000001005
                },
                {
                    "name": "B2",
                    "midi": 47,
                    "time": 479.957305500011,
                    "velocity": 0.2125984251968504,
                    "duration": 0.21246450000001005
                },
                {
                    "name": "B3",
                    "midi": 59,
                    "time": 480.169770000011,
                    "velocity": 0.2440944881889764,
                    "duration": 0.21246450000001005
                },
                {
                    "name": "G#3",
                    "midi": 56,
                    "time": 480.169770000011,
                    "velocity": 0.2047244094488189,
                    "duration": 0.21246450000001005
                },
                {
                    "name": "B2",
                    "midi": 47,
                    "time": 480.382234500011,
                    "velocity": 0.2047244094488189,
                    "duration": 0.21246450000001005
                },
                {
                    "name": "A3",
                    "midi": 57,
                    "time": 480.594699000011,
                    "velocity": 0.2283464566929134,
                    "duration": 0.21246450000001005
                },
                {
                    "name": "F#3",
                    "midi": 54,
                    "time": 480.594699000011,
                    "velocity": 0.1889763779527559,
                    "duration": 0.21246450000001005
                },
                {
                    "name": "B2",
                    "midi": 47,
                    "time": 480.80716350001103,
                    "velocity": 0.2125984251968504,
                    "duration": 0.21246450000001005
                },
                {
                    "name": "E3",
                    "midi": 52,
                    "time": 481.01962800001104,
                    "velocity": 0.2047244094488189,
                    "duration": 0.4249290000000201
                },
                {
                    "name": "G#3",
                    "midi": 56,
                    "time": 481.01962800001104,
                    "velocity": 0.2440944881889764,
                    "duration": 0.4249290000000201
                },
                {
                    "name": "F#2",
                    "midi": 42,
                    "time": 481.44455700001106,
                    "velocity": 0.2440944881889764,
                    "duration": 0.4249290000000201
                },
                {
                    "name": "E2",
                    "midi": 40,
                    "time": 481.8694860000111,
                    "velocity": 0.2677165354330709,
                    "duration": 0.4249290000000201
                },
                {
                    "name": "C#3",
                    "midi": 49,
                    "time": 482.2944150000111,
                    "velocity": 0.29133858267716534,
                    "duration": 0.4249290000000201
                },
                {
                    "name": "B2",
                    "midi": 47,
                    "time": 482.7193440000111,
                    "velocity": 0.2677165354330709,
                    "duration": 1.2747870000000603
                },
                {
                    "name": "A3",
                    "midi": 57,
                    "time": 483.14427300001114,
                    "velocity": 0.31496062992125984,
                    "duration": 0.4249290000000201
                },
                {
                    "name": "G#3",
                    "midi": 56,
                    "time": 483.56920200001116,
                    "velocity": 0.30708661417322836,
                    "duration": 0.4249290000000201
                },
                {
                    "name": "E4",
                    "midi": 64,
                    "time": 483.9941310000112,
                    "velocity": 0.3543307086614173,
                    "duration": 0.4249290000000201
                },
                {
                    "name": "C#3",
                    "midi": 49,
                    "time": 483.9941310000112,
                    "velocity": 0.3543307086614173,
                    "duration": 0.21246450000001005
                },
                {
                    "name": "B2",
                    "midi": 47,
                    "time": 484.2065955000112,
                    "velocity": 0.3858267716535433,
                    "duration": 0.21246450000001005
                },
                {
                    "name": "E4",
                    "midi": 64,
                    "time": 484.4190600000112,
                    "velocity": 0.4094488188976378,
                    "duration": 0.4249290000000201
                },
                {
                    "name": "A#2",
                    "midi": 46,
                    "time": 484.4190600000112,
                    "velocity": 0.4094488188976378,
                    "duration": 0.8498580000000402
                },
                {
                    "name": "A#3",
                    "midi": 58,
                    "time": 485.26891800001124,
                    "velocity": 0.30708661417322836,
                    "duration": 0.8498579999999833
                },
                {
                    "name": "E4",
                    "midi": 64,
                    "time": 485.26891800001124,
                    "velocity": 0.30708661417322836,
                    "duration": 0.8498579999999833
                },
                {
                    "name": "F#4",
                    "midi": 66,
                    "time": 485.26891800001124,
                    "velocity": 0.3700787401574803,
                    "duration": 0.8498579999999833
                },
                {
                    "name": "B3",
                    "midi": 59,
                    "time": 486.1187760000112,
                    "velocity": 0.1732283464566929,
                    "duration": 0.4249290000000201
                },
                {
                    "name": "E4",
                    "midi": 64,
                    "time": 486.1187760000112,
                    "velocity": 0.1732283464566929,
                    "duration": 0.4249290000000201
                },
                {
                    "name": "G#4",
                    "midi": 68,
                    "time": 486.1187760000112,
                    "velocity": 0.2125984251968504,
                    "duration": 0.4249290000000201
                },
                {
                    "name": "F#4",
                    "midi": 66,
                    "time": 486.96863400001126,
                    "velocity": 0.2125984251968504,
                    "duration": 0.4249290000000201
                },
                {
                    "name": "B3",
                    "midi": 59,
                    "time": 486.96863400001126,
                    "velocity": 0.18110236220472442,
                    "duration": 0.4249290000000201
                },
                {
                    "name": "E4",
                    "midi": 64,
                    "time": 487.8184920000113,
                    "velocity": 0.2283464566929134,
                    "duration": 0.4249290000000201
                },
                {
                    "name": "C#4",
                    "midi": 61,
                    "time": 487.8184920000113,
                    "velocity": 0.1889763779527559,
                    "duration": 0.4249290000000201
                },
                {
                    "name": "C#4",
                    "midi": 61,
                    "time": 488.66835000001134,
                    "velocity": 0.23622047244094488,
                    "duration": 0.4249290000000201
                },
                {
                    "name": "A3",
                    "midi": 57,
                    "time": 488.66835000001134,
                    "velocity": 0.1968503937007874,
                    "duration": 0.4249290000000201
                },
                {
                    "name": "F#3",
                    "midi": 54,
                    "time": 489.5182080000114,
                    "velocity": 0.2047244094488189,
                    "duration": 0.4249290000000201
                },
                {
                    "name": "A3",
                    "midi": 57,
                    "time": 489.5182080000114,
                    "velocity": 0.2440944881889764,
                    "duration": 0.4249290000000201
                },
                {
                    "name": "D#3",
                    "midi": 51,
                    "time": 490.3680660000114,
                    "velocity": 0.2047244094488189,
                    "duration": 0.4249290000000201
                },
                {
                    "name": "F#3",
                    "midi": 54,
                    "time": 490.3680660000114,
                    "velocity": 0.25196850393700787,
                    "duration": 0.4249290000000201
                },
                {
                    "name": "D#4",
                    "midi": 63,
                    "time": 491.21792400001146,
                    "velocity": 0.25984251968503935,
                    "duration": 0.4249290000000201
                },
                {
                    "name": "B3",
                    "midi": 59,
                    "time": 491.21792400001146,
                    "velocity": 0.2125984251968504,
                    "duration": 0.4249290000000201
                },
                {
                    "name": "E4",
                    "midi": 64,
                    "time": 492.0677820000115,
                    "velocity": 0.23622047244094488,
                    "duration": 0.4249290000000201
                },
                {
                    "name": "C#4",
                    "midi": 61,
                    "time": 492.0677820000115,
                    "velocity": 0.1968503937007874,
                    "duration": 0.4249290000000201
                },
                {
                    "name": "E4",
                    "midi": 64,
                    "time": 492.4927110000115,
                    "velocity": 0.23622047244094488,
                    "duration": 0.4249290000000201
                },
                {
                    "name": "C#4",
                    "midi": 61,
                    "time": 492.4927110000115,
                    "velocity": 0.1968503937007874,
                    "duration": 0.4249290000000201
                },
                {
                    "name": "A3",
                    "midi": 57,
                    "time": 492.91764000001154,
                    "velocity": 0.2204724409448819,
                    "duration": 0.4249290000000201
                },
                {
                    "name": "B3",
                    "midi": 59,
                    "time": 493.34256900001157,
                    "velocity": 0.1889763779527559,
                    "duration": 0.4249290000000201
                },
                {
                    "name": "E3",
                    "midi": 52,
                    "time": 493.7674980000116,
                    "velocity": 0.2125984251968504,
                    "duration": 0.4249290000000201
                }
            ],
            "controlChanges": {},
            "id": 2,
            "name": "Piano left",
            "instrumentNumber": 0,
            "instrument": "acoustic grand piano",
            "instrumentFamily": "piano",
            "channelNumber": 0,
            "isPercussion": false
        },
        {
            "startTime": 0,
            "duration": 0,
            "length": 0,
            "notes": [],
            "controlChanges": {
                "64": [
                    {
                        "number": 64,
                        "time": 1.8378179250000002,
                        "value": 1
                    },
                    {
                        "number": 64,
                        "time": 2.5779026000000003,
                        "value": 0
                    },
                    {
                        "number": 64,
                        "time": 2.7248572125000003,
                        "value": 1
                    },
                    {
                        "number": 64,
                        "time": 2.9975199875000005,
                        "value": 0
                    },
                    {
                        "number": 64,
                        "time": 3.0878174000000005,
                        "value": 1
                    },
                    {
                        "number": 64,
                        "time": 3.3994320000000005,
                        "value": 0
                    },
                    {
                        "number": 64,
                        "time": 3.5127464000000006,
                        "value": 1
                    },
                    {
                        "number": 64,
                        "time": 3.8491485250000004,
                        "value": 0
                    },
                    {
                        "number": 64,
                        "time": 3.9252816375000004,
                        "value": 1
                    },
                    {
                        "number": 64,
                        "time": 4.196173875,
                        "value": 0
                    },
                    {
                        "number": 64,
                        "time": 4.3626044,
                        "value": 1
                    },
                    {
                        "number": 64,
                        "time": 4.706088675,
                        "value": 0
                    },
                    {
                        "number": 64,
                        "time": 4.8247146875,
                        "value": 1
                    },
                    {
                        "number": 64,
                        "time": 5.116853375,
                        "value": 0
                    },
                    {
                        "number": 64,
                        "time": 5.2496436875,
                        "value": 1
                    },
                    {
                        "number": 64,
                        "time": 5.9773346,
                        "value": 0
                    },
                    {
                        "number": 64,
                        "time": 6.087107925,
                        "value": 1
                    },
                    {
                        "number": 64,
                        "time": 6.8130283,
                        "value": 0
                    },
                    {
                        "number": 64,
                        "time": 8.66146945,
                        "value": 1
                    },
                    {
                        "number": 64,
                        "time": 9.373225525,
                        "value": 0
                    },
                    {
                        "number": 64,
                        "time": 9.536114975,
                        "value": 1
                    },
                    {
                        "number": 64,
                        "time": 9.79461345,
                        "value": 0
                    },
                    {
                        "number": 64,
                        "time": 9.911468925,
                        "value": 1
                    },
                    {
                        "number": 64,
                        "time": 10.216001375,
                        "value": 0
                    },
                    {
                        "number": 64,
                        "time": 10.339939,
                        "value": 1
                    },
                    {
                        "number": 64,
                        "time": 10.6391598375,
                        "value": 0
                    },
                    {
                        "number": 64,
                        "time": 10.775491225,
                        "value": 1
                    },
                    {
                        "number": 64,
                        "time": 10.995037875,
                        "value": 0
                    },
                    {
                        "number": 64,
                        "time": 11.1809443125,
                        "value": 1
                    },
                    {
                        "number": 64,
                        "time": 11.5031821375,
                        "value": 0
                    },
                    {
                        "number": 64,
                        "time": 11.6058733125,
                        "value": 1
                    },
                    {
                        "number": 64,
                        "time": 11.9351932875,
                        "value": 0
                    },
                    {
                        "number": 64,
                        "time": 12.060901450000001,
                        "value": 1
                    },
                    {
                        "number": 64,
                        "time": 12.783280750000001,
                        "value": 0
                    },
                    {
                        "number": 64,
                        "time": 12.947940737500002,
                        "value": 1
                    },
                    {
                        "number": 64,
                        "time": 13.197586525000002,
                        "value": 0
                    },
                    {
                        "number": 64,
                        "time": 13.310900925000002,
                        "value": 1
                    },
                    {
                        "number": 64,
                        "time": 13.608351225000002,
                        "value": 0
                    },
                    {
                        "number": 64,
                        "time": 13.711042400000002,
                        "value": 1
                    },
                    {
                        "number": 64,
                        "time": 14.472373525000002,
                        "value": 0
                    },
                    {
                        "number": 64,
                        "time": 14.610475450000003,
                        "value": 1
                    },
                    {
                        "number": 64,
                        "time": 15.309837762500003,
                        "value": 0
                    },
                    {
                        "number": 64,
                        "time": 15.460333450000002,
                        "value": 1
                    },
                    {
                        "number": 64,
                        "time": 16.99716,
                        "value": 0
                    },
                    {
                        "number": 64,
                        "time": 17.1724432125,
                        "value": 1
                    },
                    {
                        "number": 64,
                        "time": 18.286111299999998,
                        "value": 0
                    },
                    {
                        "number": 64,
                        "time": 18.397655162499998,
                        "value": 1
                    },
                    {
                        "number": 64,
                        "time": 18.709269762499996,
                        "value": 0
                    },
                    {
                        "number": 64,
                        "time": 18.847371687499997,
                        "value": 1
                    },
                    {
                        "number": 64,
                        "time": 19.578603674999997,
                        "value": 0
                    },
                    {
                        "number": 64,
                        "time": 19.709623449999995,
                        "value": 1
                    },
                    {
                        "number": 64,
                        "time": 20.424920599999997,
                        "value": 0
                    },
                    {
                        "number": 64,
                        "time": 20.547087687499996,
                        "value": 1
                    },
                    {
                        "number": 64,
                        "time": 22.096307999999997,
                        "value": 0
                    },
                    {
                        "number": 64,
                        "time": 22.222016162499997,
                        "value": 1
                    },
                    {
                        "number": 64,
                        "time": 22.9585597625,
                        "value": 0
                    },
                    {
                        "number": 64,
                        "time": 23.0718741625,
                        "value": 1
                    },
                    {
                        "number": 64,
                        "time": 23.395882524999998,
                        "value": 0
                    },
                    {
                        "number": 64,
                        "time": 23.509196924999998,
                        "value": 1
                    },
                    {
                        "number": 64,
                        "time": 23.808417762499996,
                        "value": 0
                    },
                    {
                        "number": 64,
                        "time": 23.918191087499995,
                        "value": 1
                    },
                    {
                        "number": 64,
                        "time": 24.667128449999996,
                        "value": 0
                    },
                    {
                        "number": 64,
                        "time": 24.787524999999995,
                        "value": 1
                    },
                    {
                        "number": 64,
                        "time": 25.508133762499995,
                        "value": 0
                    },
                    {
                        "number": 64,
                        "time": 25.646235687499995,
                        "value": 1
                    },
                    {
                        "number": 64,
                        "time": 26.361532837499997,
                        "value": 0
                    },
                    {
                        "number": 64,
                        "time": 26.496093687499997,
                        "value": 1
                    },
                    {
                        "number": 64,
                        "time": 27.206079224999996,
                        "value": 0
                    },
                    {
                        "number": 64,
                        "time": 27.207849762499997,
                        "value": 0
                    },
                    {
                        "number": 64,
                        "time": 27.308770399999997,
                        "value": 1
                    },
                    {
                        "number": 64,
                        "time": 28.070101525,
                        "value": 0
                    },
                    {
                        "number": 64,
                        "time": 28.20820345,
                        "value": 1
                    },
                    {
                        "number": 64,
                        "time": 28.9075657625,
                        "value": 0
                    },
                    {
                        "number": 64,
                        "time": 29.05806145,
                        "value": 1
                    },
                    {
                        "number": 64,
                        "time": 30.594888,
                        "value": 0
                    },
                    {
                        "number": 64,
                        "time": 30.7701712125,
                        "value": 1
                    },
                    {
                        "number": 64,
                        "time": 31.883839299999998,
                        "value": 0
                    },
                    {
                        "number": 64,
                        "time": 31.995383162499998,
                        "value": 1
                    },
                    {
                        "number": 64,
                        "time": 32.306997762499996,
                        "value": 0
                    },
                    {
                        "number": 64,
                        "time": 32.4450996875,
                        "value": 1
                    },
                    {
                        "number": 64,
                        "time": 33.176331675,
                        "value": 0
                    },
                    {
                        "number": 64,
                        "time": 33.30735145,
                        "value": 1
                    },
                    {
                        "number": 64,
                        "time": 34.0226486,
                        "value": 0
                    },
                    {
                        "number": 64,
                        "time": 34.1448156875,
                        "value": 1
                    },
                    {
                        "number": 64,
                        "time": 35.694036,
                        "value": 0
                    },
                    {
                        "number": 64,
                        "time": 35.819744162499994,
                        "value": 1
                    },
                    {
                        "number": 64,
                        "time": 36.55628776249999,
                        "value": 0
                    },
                    {
                        "number": 64,
                        "time": 36.66960216249999,
                        "value": 1
                    },
                    {
                        "number": 64,
                        "time": 36.993610524999994,
                        "value": 0
                    },
                    {
                        "number": 64,
                        "time": 37.106924924999994,
                        "value": 1
                    },
                    {
                        "number": 64,
                        "time": 37.406145762499996,
                        "value": 0
                    },
                    {
                        "number": 64,
                        "time": 37.515919087499995,
                        "value": 1
                    },
                    {
                        "number": 64,
                        "time": 38.264856449999996,
                        "value": 0
                    },
                    {
                        "number": 64,
                        "time": 38.385253,
                        "value": 1
                    },
                    {
                        "number": 64,
                        "time": 39.1058617625,
                        "value": 0
                    },
                    {
                        "number": 64,
                        "time": 39.2439636875,
                        "value": 1
                    },
                    {
                        "number": 64,
                        "time": 39.9592608375,
                        "value": 0
                    },
                    {
                        "number": 64,
                        "time": 40.0938216875,
                        "value": 1
                    },
                    {
                        "number": 64,
                        "time": 40.80557776249999,
                        "value": 0
                    },
                    {
                        "number": 64,
                        "time": 42.63100192499999,
                        "value": 1
                    },
                    {
                        "number": 64,
                        "time": 43.37108659999999,
                        "value": 0
                    },
                    {
                        "number": 64,
                        "time": 43.51804121249999,
                        "value": 1
                    },
                    {
                        "number": 64,
                        "time": 43.79070398749999,
                        "value": 0
                    },
                    {
                        "number": 64,
                        "time": 43.88100139999999,
                        "value": 1
                    },
                    {
                        "number": 64,
                        "time": 44.19261599999999,
                        "value": 0
                    },
                    {
                        "number": 64,
                        "time": 44.30593039999999,
                        "value": 1
                    },
                    {
                        "number": 64,
                        "time": 44.642332524999986,
                        "value": 0
                    },
                    {
                        "number": 64,
                        "time": 44.71846563749999,
                        "value": 1
                    },
                    {
                        "number": 64,
                        "time": 44.98935787499999,
                        "value": 0
                    },
                    {
                        "number": 64,
                        "time": 45.15578839999999,
                        "value": 1
                    },
                    {
                        "number": 64,
                        "time": 45.49927267499999,
                        "value": 0
                    },
                    {
                        "number": 64,
                        "time": 45.617898687499995,
                        "value": 1
                    },
                    {
                        "number": 64,
                        "time": 45.910037374999995,
                        "value": 0
                    },
                    {
                        "number": 64,
                        "time": 46.042827687499994,
                        "value": 1
                    },
                    {
                        "number": 64,
                        "time": 46.770518599999996,
                        "value": 0
                    },
                    {
                        "number": 64,
                        "time": 46.880291924999995,
                        "value": 1
                    },
                    {
                        "number": 64,
                        "time": 47.606212299999996,
                        "value": 0
                    },
                    {
                        "number": 64,
                        "time": 47.6610989625,
                        "value": 1
                    },
                    {
                        "number": 64,
                        "time": 48.0293707625,
                        "value": 0
                    },
                    {
                        "number": 64,
                        "time": 48.1108154875,
                        "value": 1
                    },
                    {
                        "number": 64,
                        "time": 48.473775675,
                        "value": 0
                    },
                    {
                        "number": 64,
                        "time": 50.3169052125,
                        "value": 1
                    },
                    {
                        "number": 64,
                        "time": 50.578944762499994,
                        "value": 0
                    },
                    {
                        "number": 64,
                        "time": 50.70465292499999,
                        "value": 1
                    },
                    {
                        "number": 64,
                        "time": 51.00387376249999,
                        "value": 0
                    },
                    {
                        "number": 64,
                        "time": 51.08354794999999,
                        "value": 1
                    },
                    {
                        "number": 64,
                        "time": 51.44296706249999,
                        "value": 0
                    },
                    {
                        "number": 64,
                        "time": 51.52795286249999,
                        "value": 1
                    },
                    {
                        "number": 64,
                        "time": 51.791762949999985,
                        "value": 0
                    },
                    {
                        "number": 64,
                        "time": 51.974128312499985,
                        "value": 1
                    },
                    {
                        "number": 64,
                        "time": 52.28043129999998,
                        "value": 0
                    },
                    {
                        "number": 64,
                        "time": 52.377810862499985,
                        "value": 1
                    },
                    {
                        "number": 64,
                        "time": 52.70181922499999,
                        "value": 0
                    },
                    {
                        "number": 64,
                        "time": 52.74785319999999,
                        "value": 1
                    },
                    {
                        "number": 64,
                        "time": 53.128518762499986,
                        "value": 0
                    },
                    {
                        "number": 64,
                        "time": 53.19756972499999,
                        "value": 1
                    },
                    {
                        "number": 64,
                        "time": 53.56584152499999,
                        "value": 0
                    },
                    {
                        "number": 64,
                        "time": 53.622498724999986,
                        "value": 1
                    },
                    {
                        "number": 64,
                        "time": 53.985458912499986,
                        "value": 0
                    },
                    {
                        "number": 64,
                        "time": 54.05450987499999,
                        "value": 1
                    },
                    {
                        "number": 64,
                        "time": 54.316549424999984,
                        "value": 0
                    },
                    {
                        "number": 64,
                        "time": 54.52901392499999,
                        "value": 1
                    },
                    {
                        "number": 64,
                        "time": 55.270869137499986,
                        "value": 0
                    },
                    {
                        "number": 64,
                        "time": 56.22872992499999,
                        "value": 1
                    },
                    {
                        "number": 64,
                        "time": 57.36718553749999,
                        "value": 0
                    },
                    {
                        "number": 64,
                        "time": 57.83106636249999,
                        "value": 1
                    },
                    {
                        "number": 64,
                        "time": 59.07575422499999,
                        "value": 0
                    },
                    {
                        "number": 64,
                        "time": 59.62816192499999,
                        "value": 1
                    },
                    {
                        "number": 64,
                        "time": 60.7666175375,
                        "value": 0
                    },
                    {
                        "number": 64,
                        "time": 61.23049836249999,
                        "value": 1
                    },
                    {
                        "number": 64,
                        "time": 62.46456299999999,
                        "value": 0
                    },
                    {
                        "number": 64,
                        "time": 63.02759392499999,
                        "value": 1
                    },
                    {
                        "number": 64,
                        "time": 64.16604953749999,
                        "value": 0
                    },
                    {
                        "number": 64,
                        "time": 64.62993036249999,
                        "value": 1
                    },
                    {
                        "number": 64,
                        "time": 65.87461822499999,
                        "value": 0
                    },
                    {
                        "number": 64,
                        "time": 66.427025925,
                        "value": 1
                    },
                    {
                        "number": 64,
                        "time": 67.56548153749999,
                        "value": 0
                    },
                    {
                        "number": 64,
                        "time": 69.68835599999998,
                        "value": 0
                    },
                    {
                        "number": 64,
                        "time": 71.47659887499998,
                        "value": 0
                    },
                    {
                        "number": 64,
                        "time": 73.08778799999997,
                        "value": 0
                    },
                    {
                        "number": 64,
                        "time": 74.87603087499997,
                        "value": 0
                    },
                    {
                        "number": 64,
                        "time": 76.55095934999997,
                        "value": 1
                    },
                    {
                        "number": 64,
                        "time": 76.92454276249997,
                        "value": 0
                    },
                    {
                        "number": 64,
                        "time": 77.02546339999996,
                        "value": 1
                    },
                    {
                        "number": 64,
                        "time": 77.34947176249996,
                        "value": 0
                    },
                    {
                        "number": 64,
                        "time": 77.47517992499996,
                        "value": 1
                    },
                    {
                        "number": 64,
                        "time": 77.78679452499996,
                        "value": 0
                    },
                    {
                        "number": 64,
                        "time": 77.90010892499996,
                        "value": 1
                    },
                    {
                        "number": 64,
                        "time": 78.22765836249995,
                        "value": 0
                    },
                    {
                        "number": 64,
                        "time": 78.30910308749995,
                        "value": 1
                    },
                    {
                        "number": 64,
                        "time": 78.64019359999995,
                        "value": 0
                    },
                    {
                        "number": 64,
                        "time": 78.72340886249995,
                        "value": 1
                    },
                    {
                        "number": 64,
                        "time": 79.07043421249995,
                        "value": 0
                    },
                    {
                        "number": 64,
                        "time": 79.12886194999994,
                        "value": 1
                    },
                    {
                        "number": 64,
                        "time": 79.47234622499994,
                        "value": 0
                    },
                    {
                        "number": 64,
                        "time": 79.56264363749993,
                        "value": 1
                    },
                    {
                        "number": 64,
                        "time": 79.89904576249994,
                        "value": 0
                    },
                    {
                        "number": 64,
                        "time": 83.28608399999993,
                        "value": 0
                    },
                    {
                        "number": 64,
                        "time": 85.07432687499993,
                        "value": 0
                    },
                    {
                        "number": 64,
                        "time": 86.68551599999992,
                        "value": 0
                    },
                    {
                        "number": 64,
                        "time": 88.40824898749992,
                        "value": 0
                    },
                    {
                        "number": 64,
                        "time": 88.56759736249991,
                        "value": 1
                    },
                    {
                        "number": 64,
                        "time": 88.82786637499991,
                        "value": 0
                    },
                    {
                        "number": 64,
                        "time": 88.93232808749991,
                        "value": 1
                    },
                    {
                        "number": 64,
                        "time": 89.24394268749991,
                        "value": 0
                    },
                    {
                        "number": 64,
                        "time": 89.32715794999991,
                        "value": 1
                    },
                    {
                        "number": 64,
                        "time": 89.68126544999991,
                        "value": 0
                    },
                    {
                        "number": 64,
                        "time": 89.76093963749992,
                        "value": 1
                    },
                    {
                        "number": 64,
                        "time": 90.10796498749991,
                        "value": 0
                    },
                    {
                        "number": 64,
                        "time": 90.2673133624999,
                        "value": 1
                    },
                    {
                        "number": 64,
                        "time": 90.52758237499991,
                        "value": 0
                    },
                    {
                        "number": 64,
                        "time": 90.6320440874999,
                        "value": 1
                    },
                    {
                        "number": 64,
                        "time": 90.9436586874999,
                        "value": 0
                    },
                    {
                        "number": 64,
                        "time": 91.02687394999991,
                        "value": 1
                    },
                    {
                        "number": 64,
                        "time": 91.38098144999991,
                        "value": 0
                    },
                    {
                        "number": 64,
                        "time": 91.46065563749991,
                        "value": 1
                    },
                    {
                        "number": 64,
                        "time": 91.80768098749991,
                        "value": 0
                    },
                    {
                        "number": 64,
                        "time": 91.9670293624999,
                        "value": 1
                    },
                    {
                        "number": 64,
                        "time": 92.2272983749999,
                        "value": 0
                    },
                    {
                        "number": 64,
                        "time": 92.3317600874999,
                        "value": 1
                    },
                    {
                        "number": 64,
                        "time": 92.6433746874999,
                        "value": 0
                    },
                    {
                        "number": 64,
                        "time": 92.7265899499999,
                        "value": 1
                    },
                    {
                        "number": 64,
                        "time": 93.0806974499999,
                        "value": 0
                    },
                    {
                        "number": 64,
                        "time": 93.1603716374999,
                        "value": 1
                    },
                    {
                        "number": 64,
                        "time": 93.5073969874999,
                        "value": 0
                    },
                    {
                        "number": 64,
                        "time": 93.6667453624999,
                        "value": 1
                    },
                    {
                        "number": 64,
                        "time": 93.9270143749999,
                        "value": 0
                    },
                    {
                        "number": 64,
                        "time": 94.0314760874999,
                        "value": 1
                    },
                    {
                        "number": 64,
                        "time": 94.3430906874999,
                        "value": 0
                    },
                    {
                        "number": 64,
                        "time": 94.4263059499999,
                        "value": 1
                    },
                    {
                        "number": 64,
                        "time": 95.1840959999999,
                        "value": 0
                    },
                    {
                        "number": 64,
                        "time": 102.1334556874999,
                        "value": 1
                    },
                    {
                        "number": 64,
                        "time": 103.6950697624999,
                        "value": 0
                    },
                    {
                        "number": 64,
                        "time": 103.7747439499999,
                        "value": 1
                    },
                    {
                        "number": 64,
                        "time": 104.5537804499999,
                        "value": 0
                    },
                    {
                        "number": 64,
                        "time": 104.6547010874999,
                        "value": 1
                    },
                    {
                        "number": 64,
                        "time": 105.39832683749991,
                        "value": 0
                    },
                    {
                        "number": 64,
                        "time": 105.52403499999991,
                        "value": 1
                    },
                    {
                        "number": 64,
                        "time": 106.26589021249991,
                        "value": 0
                    },
                    {
                        "number": 64,
                        "time": 106.37389299999991,
                        "value": 1
                    },
                    {
                        "number": 64,
                        "time": 107.09450176249992,
                        "value": 0
                    },
                    {
                        "number": 64,
                        "time": 107.17417594999992,
                        "value": 1
                    },
                    {
                        "number": 64,
                        "time": 107.95498298749992,
                        "value": 0
                    },
                    {
                        "number": 64,
                        "time": 108.03288663749991,
                        "value": 1
                    },
                    {
                        "number": 64,
                        "time": 108.79952937499992,
                        "value": 0
                    },
                    {
                        "number": 64,
                        "time": 108.90753216249992,
                        "value": 1
                    },
                    {
                        "number": 64,
                        "time": 110.49393376249992,
                        "value": 0
                    },
                    {
                        "number": 64,
                        "time": 110.60724816249991,
                        "value": 1
                    },
                    {
                        "number": 64,
                        "time": 111.35618552499992,
                        "value": 0
                    },
                    {
                        "number": 64,
                        "time": 111.51907497499991,
                        "value": 1
                    },
                    {
                        "number": 64,
                        "time": 112.19364976249992,
                        "value": 0
                    },
                    {
                        "number": 64,
                        "time": 112.34414544999991,
                        "value": 1
                    },
                    {
                        "number": 64,
                        "time": 113.05944259999991,
                        "value": 0
                    },
                    {
                        "number": 64,
                        "time": 113.18160968749991,
                        "value": 1
                    },
                    {
                        "number": 64,
                        "time": 114.76092913749991,
                        "value": 0
                    },
                    {
                        "number": 64,
                        "time": 114.84237386249991,
                        "value": 1
                    },
                    {
                        "number": 64,
                        "time": 115.61078713749991,
                        "value": 0
                    },
                    {
                        "number": 64,
                        "time": 115.70285508749991,
                        "value": 1
                    },
                    {
                        "number": 64,
                        "time": 117.3299790499999,
                        "value": 0
                    },
                    {
                        "number": 64,
                        "time": 117.4308996874999,
                        "value": 1
                    },
                    {
                        "number": 64,
                        "time": 118.3480381124999,
                        "value": 0
                    },
                    {
                        "number": 64,
                        "time": 119.1182219249999,
                        "value": 1
                    },
                    {
                        "number": 64,
                        "time": 119.8583065999999,
                        "value": 0
                    },
                    {
                        "number": 64,
                        "time": 120.0052612124999,
                        "value": 1
                    },
                    {
                        "number": 64,
                        "time": 120.2779239874999,
                        "value": 0
                    },
                    {
                        "number": 64,
                        "time": 120.3682213999999,
                        "value": 1
                    },
                    {
                        "number": 64,
                        "time": 120.6798359999999,
                        "value": 0
                    },
                    {
                        "number": 64,
                        "time": 120.79315039999989,
                        "value": 1
                    },
                    {
                        "number": 64,
                        "time": 121.1295525249999,
                        "value": 0
                    },
                    {
                        "number": 64,
                        "time": 121.2056856374999,
                        "value": 1
                    },
                    {
                        "number": 64,
                        "time": 121.47657787499989,
                        "value": 0
                    },
                    {
                        "number": 64,
                        "time": 121.64300839999989,
                        "value": 1
                    },
                    {
                        "number": 64,
                        "time": 121.98649267499988,
                        "value": 0
                    },
                    {
                        "number": 64,
                        "time": 122.10511868749988,
                        "value": 1
                    },
                    {
                        "number": 64,
                        "time": 122.39725737499988,
                        "value": 0
                    },
                    {
                        "number": 64,
                        "time": 122.53004768749989,
                        "value": 1
                    },
                    {
                        "number": 64,
                        "time": 123.25773859999988,
                        "value": 0
                    },
                    {
                        "number": 64,
                        "time": 123.36751192499989,
                        "value": 1
                    },
                    {
                        "number": 64,
                        "time": 124.09343229999989,
                        "value": 0
                    },
                    {
                        "number": 64,
                        "time": 125.94187344999989,
                        "value": 1
                    },
                    {
                        "number": 64,
                        "time": 126.65362952499989,
                        "value": 0
                    },
                    {
                        "number": 64,
                        "time": 126.81651897499988,
                        "value": 1
                    },
                    {
                        "number": 64,
                        "time": 127.07501744999988,
                        "value": 0
                    },
                    {
                        "number": 64,
                        "time": 127.19187292499987,
                        "value": 1
                    },
                    {
                        "number": 64,
                        "time": 127.49640537499987,
                        "value": 0
                    },
                    {
                        "number": 64,
                        "time": 127.62034299999986,
                        "value": 1
                    },
                    {
                        "number": 64,
                        "time": 127.91956383749987,
                        "value": 0
                    },
                    {
                        "number": 64,
                        "time": 128.05589522499986,
                        "value": 1
                    },
                    {
                        "number": 64,
                        "time": 128.27544187499987,
                        "value": 0
                    },
                    {
                        "number": 64,
                        "time": 128.46134831249987,
                        "value": 1
                    },
                    {
                        "number": 64,
                        "time": 128.78358613749987,
                        "value": 0
                    },
                    {
                        "number": 64,
                        "time": 128.88627731249986,
                        "value": 1
                    },
                    {
                        "number": 64,
                        "time": 129.21559728749986,
                        "value": 0
                    },
                    {
                        "number": 64,
                        "time": 129.34130544999985,
                        "value": 1
                    },
                    {
                        "number": 64,
                        "time": 130.11680087499985,
                        "value": 0
                    },
                    {
                        "number": 64,
                        "time": 130.22834473749987,
                        "value": 1
                    },
                    {
                        "number": 64,
                        "time": 130.47799052499985,
                        "value": 0
                    },
                    {
                        "number": 64,
                        "time": 130.59130492499986,
                        "value": 1
                    },
                    {
                        "number": 64,
                        "time": 130.88875522499987,
                        "value": 0
                    },
                    {
                        "number": 64,
                        "time": 130.99144639999986,
                        "value": 1
                    },
                    {
                        "number": 64,
                        "time": 131.75277752499986,
                        "value": 0
                    },
                    {
                        "number": 64,
                        "time": 131.89087944999986,
                        "value": 1
                    },
                    {
                        "number": 64,
                        "time": 132.59024176249986,
                        "value": 0
                    },
                    {
                        "number": 64,
                        "time": 132.74073744999987,
                        "value": 1
                    },
                    {
                        "number": 64,
                        "time": 134.27756399999987,
                        "value": 0
                    },
                    {
                        "number": 64,
                        "time": 134.45284721249988,
                        "value": 1
                    },
                    {
                        "number": 64,
                        "time": 135.56651529999988,
                        "value": 0
                    },
                    {
                        "number": 64,
                        "time": 135.6780591624999,
                        "value": 1
                    },
                    {
                        "number": 64,
                        "time": 135.9896737624999,
                        "value": 0
                    },
                    {
                        "number": 64,
                        "time": 136.1277756874999,
                        "value": 1
                    },
                    {
                        "number": 64,
                        "time": 136.8590076749999,
                        "value": 0
                    },
                    {
                        "number": 64,
                        "time": 136.9900274499999,
                        "value": 1
                    },
                    {
                        "number": 64,
                        "time": 137.7053245999999,
                        "value": 0
                    },
                    {
                        "number": 64,
                        "time": 137.8274916874999,
                        "value": 1
                    },
                    {
                        "number": 64,
                        "time": 139.3767119999999,
                        "value": 0
                    },
                    {
                        "number": 64,
                        "time": 139.5024201624999,
                        "value": 1
                    },
                    {
                        "number": 64,
                        "time": 140.2389637624999,
                        "value": 0
                    },
                    {
                        "number": 64,
                        "time": 140.3522781624999,
                        "value": 1
                    },
                    {
                        "number": 64,
                        "time": 140.6762865249999,
                        "value": 0
                    },
                    {
                        "number": 64,
                        "time": 140.78960092499992,
                        "value": 1
                    },
                    {
                        "number": 64,
                        "time": 141.08882176249992,
                        "value": 0
                    },
                    {
                        "number": 64,
                        "time": 141.1985950874999,
                        "value": 1
                    },
                    {
                        "number": 64,
                        "time": 141.9475324499999,
                        "value": 0
                    },
                    {
                        "number": 64,
                        "time": 142.0679289999999,
                        "value": 1
                    },
                    {
                        "number": 64,
                        "time": 142.7885377624999,
                        "value": 0
                    },
                    {
                        "number": 64,
                        "time": 142.92663968749991,
                        "value": 1
                    },
                    {
                        "number": 64,
                        "time": 143.6419368374999,
                        "value": 0
                    },
                    {
                        "number": 64,
                        "time": 143.77649768749993,
                        "value": 1
                    },
                    {
                        "number": 64,
                        "time": 144.48648322499992,
                        "value": 0
                    },
                    {
                        "number": 64,
                        "time": 144.4882537624999,
                        "value": 0
                    },
                    {
                        "number": 64,
                        "time": 144.5891743999999,
                        "value": 1
                    },
                    {
                        "number": 64,
                        "time": 145.3505055249999,
                        "value": 0
                    },
                    {
                        "number": 64,
                        "time": 145.4886074499999,
                        "value": 1
                    },
                    {
                        "number": 64,
                        "time": 146.1879697624999,
                        "value": 0
                    },
                    {
                        "number": 64,
                        "time": 146.33846544999992,
                        "value": 1
                    },
                    {
                        "number": 64,
                        "time": 147.87529199999992,
                        "value": 0
                    },
                    {
                        "number": 64,
                        "time": 148.05057521249992,
                        "value": 1
                    },
                    {
                        "number": 64,
                        "time": 149.16424329999992,
                        "value": 0
                    },
                    {
                        "number": 64,
                        "time": 149.27578716249994,
                        "value": 1
                    },
                    {
                        "number": 64,
                        "time": 149.58740176249995,
                        "value": 0
                    },
                    {
                        "number": 64,
                        "time": 149.72550368749995,
                        "value": 1
                    },
                    {
                        "number": 64,
                        "time": 150.45673567499995,
                        "value": 0
                    },
                    {
                        "number": 64,
                        "time": 150.58775544999995,
                        "value": 1
                    },
                    {
                        "number": 64,
                        "time": 151.30305259999994,
                        "value": 0
                    },
                    {
                        "number": 64,
                        "time": 151.42521968749995,
                        "value": 1
                    },
                    {
                        "number": 64,
                        "time": 152.97443999999996,
                        "value": 0
                    },
                    {
                        "number": 64,
                        "time": 153.10014816249995,
                        "value": 1
                    },
                    {
                        "number": 64,
                        "time": 153.83669176249995,
                        "value": 0
                    },
                    {
                        "number": 64,
                        "time": 153.95000616249996,
                        "value": 1
                    },
                    {
                        "number": 64,
                        "time": 154.27401452499996,
                        "value": 0
                    },
                    {
                        "number": 64,
                        "time": 154.38732892499996,
                        "value": 1
                    },
                    {
                        "number": 64,
                        "time": 154.68654976249996,
                        "value": 0
                    },
                    {
                        "number": 64,
                        "time": 154.79632308749996,
                        "value": 1
                    },
                    {
                        "number": 64,
                        "time": 155.54526044999994,
                        "value": 0
                    },
                    {
                        "number": 64,
                        "time": 155.66565699999995,
                        "value": 1
                    },
                    {
                        "number": 64,
                        "time": 156.38626576249996,
                        "value": 0
                    },
                    {
                        "number": 64,
                        "time": 156.52436768749996,
                        "value": 1
                    },
                    {
                        "number": 64,
                        "time": 157.23966483749996,
                        "value": 0
                    },
                    {
                        "number": 64,
                        "time": 157.37422568749997,
                        "value": 1
                    },
                    {
                        "number": 64,
                        "time": 158.08598176249998,
                        "value": 0
                    },
                    {
                        "number": 64,
                        "time": 159.911405925,
                        "value": 1
                    },
                    {
                        "number": 64,
                        "time": 160.6514906,
                        "value": 0
                    },
                    {
                        "number": 64,
                        "time": 160.79844521249998,
                        "value": 1
                    },
                    {
                        "number": 64,
                        "time": 161.07110798749997,
                        "value": 0
                    },
                    {
                        "number": 64,
                        "time": 161.16140539999998,
                        "value": 1
                    },
                    {
                        "number": 64,
                        "time": 161.47302,
                        "value": 0
                    },
                    {
                        "number": 64,
                        "time": 161.5863344,
                        "value": 1
                    },
                    {
                        "number": 64,
                        "time": 161.922736525,
                        "value": 0
                    },
                    {
                        "number": 64,
                        "time": 161.9988696375,
                        "value": 1
                    },
                    {
                        "number": 64,
                        "time": 162.269761875,
                        "value": 0
                    },
                    {
                        "number": 64,
                        "time": 162.4361924,
                        "value": 1
                    },
                    {
                        "number": 64,
                        "time": 162.77967667500002,
                        "value": 0
                    },
                    {
                        "number": 64,
                        "time": 162.8983026875,
                        "value": 1
                    },
                    {
                        "number": 64,
                        "time": 163.190441375,
                        "value": 0
                    },
                    {
                        "number": 64,
                        "time": 163.3232316875,
                        "value": 1
                    },
                    {
                        "number": 64,
                        "time": 164.0509226,
                        "value": 0
                    },
                    {
                        "number": 64,
                        "time": 164.160695925,
                        "value": 1
                    },
                    {
                        "number": 64,
                        "time": 164.8866163,
                        "value": 0
                    },
                    {
                        "number": 64,
                        "time": 164.94150296249998,
                        "value": 1
                    },
                    {
                        "number": 64,
                        "time": 165.30977476249998,
                        "value": 0
                    },
                    {
                        "number": 64,
                        "time": 165.3912194875,
                        "value": 1
                    },
                    {
                        "number": 64,
                        "time": 165.754179675,
                        "value": 0
                    },
                    {
                        "number": 64,
                        "time": 167.5973092125,
                        "value": 1
                    },
                    {
                        "number": 64,
                        "time": 167.8593487625,
                        "value": 0
                    },
                    {
                        "number": 64,
                        "time": 167.98505692499998,
                        "value": 1
                    },
                    {
                        "number": 64,
                        "time": 168.28427776249998,
                        "value": 0
                    },
                    {
                        "number": 64,
                        "time": 168.36395194999997,
                        "value": 1
                    },
                    {
                        "number": 64,
                        "time": 168.72337106249998,
                        "value": 0
                    },
                    {
                        "number": 64,
                        "time": 168.80835686249998,
                        "value": 1
                    },
                    {
                        "number": 64,
                        "time": 169.07216694999997,
                        "value": 0
                    },
                    {
                        "number": 64,
                        "time": 169.25453231249998,
                        "value": 1
                    },
                    {
                        "number": 64,
                        "time": 169.56083529999998,
                        "value": 0
                    },
                    {
                        "number": 64,
                        "time": 169.6582148625,
                        "value": 1
                    },
                    {
                        "number": 64,
                        "time": 169.98222322499998,
                        "value": 0
                    },
                    {
                        "number": 64,
                        "time": 170.02825719999998,
                        "value": 1
                    },
                    {
                        "number": 64,
                        "time": 170.4089227625,
                        "value": 0
                    },
                    {
                        "number": 64,
                        "time": 170.477973725,
                        "value": 1
                    },
                    {
                        "number": 64,
                        "time": 170.846245525,
                        "value": 0
                    },
                    {
                        "number": 64,
                        "time": 170.902902725,
                        "value": 1
                    },
                    {
                        "number": 64,
                        "time": 171.26586291249998,
                        "value": 0
                    },
                    {
                        "number": 64,
                        "time": 171.33491387499998,
                        "value": 1
                    },
                    {
                        "number": 64,
                        "time": 171.59695342499998,
                        "value": 0
                    },
                    {
                        "number": 64,
                        "time": 171.809417925,
                        "value": 1
                    },
                    {
                        "number": 64,
                        "time": 172.57074905,
                        "value": 0
                    },
                    {
                        "number": 64,
                        "time": 172.69645721249998,
                        "value": 1
                    },
                    {
                        "number": 64,
                        "time": 173.38873737499998,
                        "value": 0
                    },
                    {
                        "number": 64,
                        "time": 173.48434639999996,
                        "value": 1
                    },
                    {
                        "number": 64,
                        "time": 174.24036591249995,
                        "value": 0
                    },
                    {
                        "number": 64,
                        "time": 174.32712224999995,
                        "value": 1
                    },
                    {
                        "number": 64,
                        "time": 174.67768867499996,
                        "value": 0
                    },
                    {
                        "number": 64,
                        "time": 174.74673963749996,
                        "value": 1
                    },
                    {
                        "number": 64,
                        "time": 175.07960068749995,
                        "value": 0
                    },
                    {
                        "number": 64,
                        "time": 175.19645616249994,
                        "value": 1
                    },
                    {
                        "number": 64,
                        "time": 175.51161183749994,
                        "value": 0
                    },
                    {
                        "number": 64,
                        "time": 175.64617268749996,
                        "value": 1
                    },
                    {
                        "number": 64,
                        "time": 176.78639883749995,
                        "value": 0
                    },
                    {
                        "number": 64,
                        "time": 176.83951496249995,
                        "value": 1
                    },
                    {
                        "number": 64,
                        "time": 177.65396221249995,
                        "value": 0
                    },
                    {
                        "number": 64,
                        "time": 177.68937296249996,
                        "value": 1
                    },
                    {
                        "number": 64,
                        "time": 178.06649744999996,
                        "value": 0
                    },
                    {
                        "number": 64,
                        "time": 178.12669572499996,
                        "value": 1
                    },
                    {
                        "number": 64,
                        "time": 178.48965591249996,
                        "value": 0
                    },
                    {
                        "number": 64,
                        "time": 178.60119977499997,
                        "value": 1
                    },
                    {
                        "number": 64,
                        "time": 179.75736076249996,
                        "value": 0
                    },
                    {
                        "number": 64,
                        "time": 179.84588763749997,
                        "value": 1
                    },
                    {
                        "number": 64,
                        "time": 180.18406029999997,
                        "value": 0
                    },
                    {
                        "number": 64,
                        "time": 180.27081663749996,
                        "value": 1
                    },
                    {
                        "number": 64,
                        "time": 180.60544822499998,
                        "value": 0
                    },
                    {
                        "number": 64,
                        "time": 181.11182194999998,
                        "value": 1
                    },
                    {
                        "number": 64,
                        "time": 181.45884729999997,
                        "value": 0
                    },
                    {
                        "number": 64,
                        "time": 181.54560363749997,
                        "value": 1
                    },
                    {
                        "number": 64,
                        "time": 181.88377629999997,
                        "value": 0
                    },
                    {
                        "number": 64,
                        "time": 181.99532016249998,
                        "value": 1
                    },
                    {
                        "number": 64,
                        "time": 182.31047583749998,
                        "value": 0
                    },
                    {
                        "number": 64,
                        "time": 182.4450366875,
                        "value": 1
                    },
                    {
                        "number": 64,
                        "time": 182.7424869875,
                        "value": 0
                    },
                    {
                        "number": 64,
                        "time": 182.8327844,
                        "value": 1
                    },
                    {
                        "number": 64,
                        "time": 183.16918652500001,
                        "value": 0
                    },
                    {
                        "number": 64,
                        "time": 183.25771340000003,
                        "value": 1
                    },
                    {
                        "number": 64,
                        "time": 183.59942713750002,
                        "value": 0
                    },
                    {
                        "number": 64,
                        "time": 183.69149508750002,
                        "value": 1
                    },
                    {
                        "number": 64,
                        "time": 184.01196237500002,
                        "value": 0
                    },
                    {
                        "number": 64,
                        "time": 184.12704731250003,
                        "value": 1
                    },
                    {
                        "number": 64,
                        "time": 184.44043245000003,
                        "value": 0
                    },
                    {
                        "number": 64,
                        "time": 184.54135308750003,
                        "value": 1
                    },
                    {
                        "number": 64,
                        "time": 184.87421413750002,
                        "value": 0
                    },
                    {
                        "number": 64,
                        "time": 184.95565886250003,
                        "value": 1
                    },
                    {
                        "number": 64,
                        "time": 185.27966722500003,
                        "value": 0
                    },
                    {
                        "number": 64,
                        "time": 185.38235840000002,
                        "value": 1
                    },
                    {
                        "number": 64,
                        "time": 185.71167837500002,
                        "value": 0
                    },
                    {
                        "number": 64,
                        "time": 185.8444686875,
                        "value": 1
                    },
                    {
                        "number": 64,
                        "time": 186.1472306,
                        "value": 0
                    },
                    {
                        "number": 64,
                        "time": 186.28179145000001,
                        "value": 1
                    },
                    {
                        "number": 64,
                        "time": 186.57215960000002,
                        "value": 0
                    },
                    {
                        "number": 64,
                        "time": 186.65714540000002,
                        "value": 1
                    },
                    {
                        "number": 64,
                        "time": 186.96876000000003,
                        "value": 0
                    },
                    {
                        "number": 64,
                        "time": 187.11040300000002,
                        "value": 1
                    },
                    {
                        "number": 64,
                        "time": 188.66847600000003,
                        "value": 0
                    },
                    {
                        "number": 64,
                        "time": 188.73929750000002,
                        "value": 1
                    },
                    {
                        "number": 64,
                        "time": 190.36819200000002,
                        "value": 0
                    },
                    {
                        "number": 64,
                        "time": 190.4939001625,
                        "value": 1
                    },
                    {
                        "number": 64,
                        "time": 190.82322013750002,
                        "value": 0
                    },
                    {
                        "number": 64,
                        "time": 190.90643540000002,
                        "value": 1
                    },
                    {
                        "number": 64,
                        "time": 191.23929645,
                        "value": 0
                    },
                    {
                        "number": 64,
                        "time": 191.3313644,
                        "value": 1
                    },
                    {
                        "number": 64,
                        "time": 191.6571433,
                        "value": 0
                    },
                    {
                        "number": 64,
                        "time": 191.7562934,
                        "value": 1
                    },
                    {
                        "number": 64,
                        "time": 192.0803017625,
                        "value": 0
                    },
                    {
                        "number": 64,
                        "time": 192.15997595,
                        "value": 1
                    },
                    {
                        "number": 64,
                        "time": 192.51408345,
                        "value": 0
                    },
                    {
                        "number": 64,
                        "time": 192.61500408749998,
                        "value": 1
                    },
                    {
                        "number": 64,
                        "time": 192.93901244999998,
                        "value": 0
                    },
                    {
                        "number": 64,
                        "time": 193.02930986249999,
                        "value": 1
                    },
                    {
                        "number": 64,
                        "time": 193.3727941375,
                        "value": 0
                    },
                    {
                        "number": 64,
                        "time": 193.4542388625,
                        "value": 1
                    },
                    {
                        "number": 64,
                        "time": 193.7835588375,
                        "value": 0
                    },
                    {
                        "number": 64,
                        "time": 193.91811968750002,
                        "value": 1
                    },
                    {
                        "number": 64,
                        "time": 195.47973376250002,
                        "value": 0
                    },
                    {
                        "number": 64,
                        "time": 195.55940795,
                        "value": 1
                    },
                    {
                        "number": 64,
                        "time": 196.33844445,
                        "value": 0
                    },
                    {
                        "number": 64,
                        "time": 196.4393650875,
                        "value": 1
                    },
                    {
                        "number": 64,
                        "time": 197.1829908375,
                        "value": 0
                    },
                    {
                        "number": 64,
                        "time": 197.308699,
                        "value": 1
                    },
                    {
                        "number": 64,
                        "time": 198.0505542125,
                        "value": 0
                    },
                    {
                        "number": 64,
                        "time": 198.158557,
                        "value": 1
                    },
                    {
                        "number": 64,
                        "time": 198.8791657625,
                        "value": 0
                    },
                    {
                        "number": 64,
                        "time": 198.95883995,
                        "value": 1
                    },
                    {
                        "number": 64,
                        "time": 199.7396469875,
                        "value": 0
                    },
                    {
                        "number": 64,
                        "time": 199.8175506375,
                        "value": 1
                    },
                    {
                        "number": 64,
                        "time": 200.584193375,
                        "value": 0
                    },
                    {
                        "number": 64,
                        "time": 200.6921961625,
                        "value": 1
                    },
                    {
                        "number": 64,
                        "time": 202.2785977625,
                        "value": 0
                    },
                    {
                        "number": 64,
                        "time": 202.3919121625,
                        "value": 1
                    },
                    {
                        "number": 64,
                        "time": 203.140849525,
                        "value": 0
                    },
                    {
                        "number": 64,
                        "time": 203.303738975,
                        "value": 1
                    },
                    {
                        "number": 64,
                        "time": 203.9783137625,
                        "value": 0
                    },
                    {
                        "number": 64,
                        "time": 204.12880945,
                        "value": 1
                    },
                    {
                        "number": 64,
                        "time": 204.8441066,
                        "value": 0
                    },
                    {
                        "number": 64,
                        "time": 204.9662736875,
                        "value": 1
                    },
                    {
                        "number": 64,
                        "time": 205.6798003,
                        "value": 0
                    },
                    {
                        "number": 64,
                        "time": 205.7665566375,
                        "value": 1
                    },
                    {
                        "number": 64,
                        "time": 206.5455931375,
                        "value": 0
                    },
                    {
                        "number": 64,
                        "time": 206.6270378625,
                        "value": 1
                    },
                    {
                        "number": 64,
                        "time": 207.3812868375,
                        "value": 0
                    },
                    {
                        "number": 64,
                        "time": 207.5158476875,
                        "value": 1
                    },
                    {
                        "number": 64,
                        "time": 209.0774617625,
                        "value": 0
                    },
                    {
                        "number": 64,
                        "time": 209.15713595,
                        "value": 1
                    },
                    {
                        "number": 64,
                        "time": 209.93617245,
                        "value": 0
                    },
                    {
                        "number": 64,
                        "time": 210.03709308749998,
                        "value": 1
                    },
                    {
                        "number": 64,
                        "time": 210.7807188375,
                        "value": 0
                    },
                    {
                        "number": 64,
                        "time": 210.90642699999998,
                        "value": 1
                    },
                    {
                        "number": 64,
                        "time": 211.6482822125,
                        "value": 0
                    },
                    {
                        "number": 64,
                        "time": 211.756285,
                        "value": 1
                    },
                    {
                        "number": 64,
                        "time": 212.4768937625,
                        "value": 0
                    },
                    {
                        "number": 64,
                        "time": 212.55656795,
                        "value": 1
                    },
                    {
                        "number": 64,
                        "time": 213.3373749875,
                        "value": 0
                    },
                    {
                        "number": 64,
                        "time": 213.4152786375,
                        "value": 1
                    },
                    {
                        "number": 64,
                        "time": 214.181921375,
                        "value": 0
                    },
                    {
                        "number": 64,
                        "time": 214.2899241625,
                        "value": 1
                    },
                    {
                        "number": 64,
                        "time": 215.8763257625,
                        "value": 0
                    },
                    {
                        "number": 64,
                        "time": 215.9896401625,
                        "value": 1
                    },
                    {
                        "number": 64,
                        "time": 216.73857752499998,
                        "value": 0
                    },
                    {
                        "number": 64,
                        "time": 216.90146697499998,
                        "value": 1
                    },
                    {
                        "number": 64,
                        "time": 217.57604176249998,
                        "value": 0
                    },
                    {
                        "number": 64,
                        "time": 217.72653745,
                        "value": 1
                    },
                    {
                        "number": 64,
                        "time": 218.4418346,
                        "value": 0
                    },
                    {
                        "number": 64,
                        "time": 218.5640016875,
                        "value": 1
                    },
                    {
                        "number": 64,
                        "time": 219.2775283,
                        "value": 0
                    },
                    {
                        "number": 64,
                        "time": 219.3642846375,
                        "value": 1
                    },
                    {
                        "number": 64,
                        "time": 220.14332113749998,
                        "value": 0
                    },
                    {
                        "number": 64,
                        "time": 220.2247658625,
                        "value": 1
                    },
                    {
                        "number": 64,
                        "time": 220.97370322499998,
                        "value": 0
                    },
                    {
                        "number": 64,
                        "time": 224.37313522499997,
                        "value": 0
                    },
                    {
                        "number": 64,
                        "time": 227.77256722499996,
                        "value": 0
                    },
                    {
                        "number": 64,
                        "time": 238.09834192499997,
                        "value": 1
                    },
                    {
                        "number": 64,
                        "time": 238.83842659999996,
                        "value": 0
                    },
                    {
                        "number": 64,
                        "time": 238.98538121249996,
                        "value": 1
                    },
                    {
                        "number": 64,
                        "time": 239.25804398749995,
                        "value": 0
                    },
                    {
                        "number": 64,
                        "time": 239.34834139999995,
                        "value": 1
                    },
                    {
                        "number": 64,
                        "time": 239.65995599999997,
                        "value": 0
                    },
                    {
                        "number": 64,
                        "time": 239.77327039999997,
                        "value": 1
                    },
                    {
                        "number": 64,
                        "time": 240.10967252499998,
                        "value": 0
                    },
                    {
                        "number": 64,
                        "time": 240.18580563749998,
                        "value": 1
                    },
                    {
                        "number": 64,
                        "time": 240.45669787499997,
                        "value": 0
                    },
                    {
                        "number": 64,
                        "time": 240.62312839999998,
                        "value": 1
                    },
                    {
                        "number": 64,
                        "time": 240.966612675,
                        "value": 0
                    },
                    {
                        "number": 64,
                        "time": 241.08523868749998,
                        "value": 1
                    },
                    {
                        "number": 64,
                        "time": 241.37737737499998,
                        "value": 0
                    },
                    {
                        "number": 64,
                        "time": 241.51016768749997,
                        "value": 1
                    },
                    {
                        "number": 64,
                        "time": 242.23785859999998,
                        "value": 0
                    },
                    {
                        "number": 64,
                        "time": 242.34763192499997,
                        "value": 1
                    },
                    {
                        "number": 64,
                        "time": 243.07355229999996,
                        "value": 0
                    },
                    {
                        "number": 64,
                        "time": 244.92199344999997,
                        "value": 1
                    },
                    {
                        "number": 64,
                        "time": 245.63374952499998,
                        "value": 0
                    },
                    {
                        "number": 64,
                        "time": 245.79663897499998,
                        "value": 1
                    },
                    {
                        "number": 64,
                        "time": 246.05513745,
                        "value": 0
                    },
                    {
                        "number": 64,
                        "time": 246.17199292499998,
                        "value": 1
                    },
                    {
                        "number": 64,
                        "time": 246.476525375,
                        "value": 0
                    },
                    {
                        "number": 64,
                        "time": 246.600463,
                        "value": 1
                    },
                    {
                        "number": 64,
                        "time": 246.8996838375,
                        "value": 0
                    },
                    {
                        "number": 64,
                        "time": 247.036015225,
                        "value": 1
                    },
                    {
                        "number": 64,
                        "time": 247.255561875,
                        "value": 0
                    },
                    {
                        "number": 64,
                        "time": 247.4414683125,
                        "value": 1
                    },
                    {
                        "number": 64,
                        "time": 247.7637061375,
                        "value": 0
                    },
                    {
                        "number": 64,
                        "time": 247.8663973125,
                        "value": 1
                    },
                    {
                        "number": 64,
                        "time": 248.1957172875,
                        "value": 0
                    },
                    {
                        "number": 64,
                        "time": 248.32142545,
                        "value": 1
                    },
                    {
                        "number": 64,
                        "time": 249.096920875,
                        "value": 0
                    },
                    {
                        "number": 64,
                        "time": 249.2084647375,
                        "value": 1
                    },
                    {
                        "number": 64,
                        "time": 249.458110525,
                        "value": 0
                    },
                    {
                        "number": 64,
                        "time": 249.571424925,
                        "value": 1
                    },
                    {
                        "number": 64,
                        "time": 249.868875225,
                        "value": 0
                    },
                    {
                        "number": 64,
                        "time": 249.9715664,
                        "value": 1
                    },
                    {
                        "number": 64,
                        "time": 250.732897525,
                        "value": 0
                    },
                    {
                        "number": 64,
                        "time": 250.87099945,
                        "value": 1
                    },
                    {
                        "number": 64,
                        "time": 251.5703617625,
                        "value": 0
                    },
                    {
                        "number": 64,
                        "time": 251.72085745,
                        "value": 1
                    },
                    {
                        "number": 64,
                        "time": 253.257684,
                        "value": 0
                    },
                    {
                        "number": 64,
                        "time": 253.43296721250002,
                        "value": 1
                    },
                    {
                        "number": 64,
                        "time": 254.54663530000002,
                        "value": 0
                    },
                    {
                        "number": 64,
                        "time": 254.65817916250003,
                        "value": 1
                    },
                    {
                        "number": 64,
                        "time": 254.96979376250005,
                        "value": 0
                    },
                    {
                        "number": 64,
                        "time": 255.10789568750005,
                        "value": 1
                    },
                    {
                        "number": 64,
                        "time": 255.83912767500004,
                        "value": 0
                    },
                    {
                        "number": 64,
                        "time": 255.97014745000004,
                        "value": 1
                    },
                    {
                        "number": 64,
                        "time": 256.68544460000004,
                        "value": 0
                    },
                    {
                        "number": 64,
                        "time": 256.8076116875,
                        "value": 1
                    },
                    {
                        "number": 64,
                        "time": 258.356832,
                        "value": 0
                    },
                    {
                        "number": 64,
                        "time": 258.4825401625,
                        "value": 1
                    },
                    {
                        "number": 64,
                        "time": 259.2190837625,
                        "value": 0
                    },
                    {
                        "number": 64,
                        "time": 259.3323981625,
                        "value": 1
                    },
                    {
                        "number": 64,
                        "time": 259.656406525,
                        "value": 0
                    },
                    {
                        "number": 64,
                        "time": 259.769720925,
                        "value": 1
                    },
                    {
                        "number": 64,
                        "time": 260.0689417625,
                        "value": 0
                    },
                    {
                        "number": 64,
                        "time": 260.1787150875,
                        "value": 1
                    },
                    {
                        "number": 64,
                        "time": 260.92765245,
                        "value": 0
                    },
                    {
                        "number": 64,
                        "time": 261.048049,
                        "value": 1
                    },
                    {
                        "number": 64,
                        "time": 261.76865776249997,
                        "value": 0
                    },
                    {
                        "number": 64,
                        "time": 261.90675968749997,
                        "value": 1
                    },
                    {
                        "number": 64,
                        "time": 262.6220568375,
                        "value": 0
                    },
                    {
                        "number": 64,
                        "time": 262.7566176875,
                        "value": 1
                    },
                    {
                        "number": 64,
                        "time": 263.46660322500003,
                        "value": 0
                    },
                    {
                        "number": 64,
                        "time": 263.46837376250005,
                        "value": 0
                    },
                    {
                        "number": 64,
                        "time": 263.56929440000005,
                        "value": 1
                    },
                    {
                        "number": 64,
                        "time": 264.3306255250001,
                        "value": 0
                    },
                    {
                        "number": 64,
                        "time": 264.4687274500001,
                        "value": 1
                    },
                    {
                        "number": 64,
                        "time": 265.1680897625001,
                        "value": 0
                    },
                    {
                        "number": 64,
                        "time": 265.31858545000006,
                        "value": 1
                    },
                    {
                        "number": 64,
                        "time": 266.85541200000006,
                        "value": 0
                    },
                    {
                        "number": 64,
                        "time": 267.03069521250006,
                        "value": 1
                    },
                    {
                        "number": 64,
                        "time": 268.14436330000007,
                        "value": 0
                    },
                    {
                        "number": 64,
                        "time": 268.2559071625001,
                        "value": 1
                    },
                    {
                        "number": 64,
                        "time": 268.56752176250006,
                        "value": 0
                    },
                    {
                        "number": 64,
                        "time": 268.70562368750006,
                        "value": 1
                    },
                    {
                        "number": 64,
                        "time": 269.43685567500006,
                        "value": 0
                    },
                    {
                        "number": 64,
                        "time": 269.5678754500001,
                        "value": 1
                    },
                    {
                        "number": 64,
                        "time": 270.2831726000001,
                        "value": 0
                    },
                    {
                        "number": 64,
                        "time": 270.4053396875001,
                        "value": 1
                    },
                    {
                        "number": 64,
                        "time": 271.9545600000001,
                        "value": 0
                    },
                    {
                        "number": 64,
                        "time": 272.0802681625001,
                        "value": 1
                    },
                    {
                        "number": 64,
                        "time": 272.8168117625001,
                        "value": 0
                    },
                    {
                        "number": 64,
                        "time": 272.9301261625001,
                        "value": 1
                    },
                    {
                        "number": 64,
                        "time": 273.2541345250001,
                        "value": 0
                    },
                    {
                        "number": 64,
                        "time": 273.3674489250001,
                        "value": 1
                    },
                    {
                        "number": 64,
                        "time": 273.6666697625001,
                        "value": 0
                    },
                    {
                        "number": 64,
                        "time": 273.77644308750007,
                        "value": 1
                    },
                    {
                        "number": 64,
                        "time": 274.52538045000006,
                        "value": 0
                    },
                    {
                        "number": 64,
                        "time": 274.64577700000007,
                        "value": 1
                    },
                    {
                        "number": 64,
                        "time": 275.36638576250004,
                        "value": 0
                    },
                    {
                        "number": 64,
                        "time": 275.50448768750005,
                        "value": 1
                    },
                    {
                        "number": 64,
                        "time": 276.2197848375001,
                        "value": 0
                    },
                    {
                        "number": 64,
                        "time": 276.3543456875001,
                        "value": 1
                    },
                    {
                        "number": 64,
                        "time": 277.06610176250007,
                        "value": 0
                    },
                    {
                        "number": 64,
                        "time": 278.89152592500005,
                        "value": 1
                    },
                    {
                        "number": 64,
                        "time": 279.63161060000004,
                        "value": 0
                    },
                    {
                        "number": 64,
                        "time": 279.77856521250004,
                        "value": 1
                    },
                    {
                        "number": 64,
                        "time": 280.05122798750006,
                        "value": 0
                    },
                    {
                        "number": 64,
                        "time": 280.14152540000003,
                        "value": 1
                    },
                    {
                        "number": 64,
                        "time": 280.45314,
                        "value": 0
                    },
                    {
                        "number": 64,
                        "time": 280.5664544,
                        "value": 1
                    },
                    {
                        "number": 64,
                        "time": 280.902856525,
                        "value": 0
                    },
                    {
                        "number": 64,
                        "time": 280.9789896375,
                        "value": 1
                    },
                    {
                        "number": 64,
                        "time": 281.24988187499997,
                        "value": 0
                    },
                    {
                        "number": 64,
                        "time": 281.4163124,
                        "value": 1
                    },
                    {
                        "number": 64,
                        "time": 281.75979667499996,
                        "value": 0
                    },
                    {
                        "number": 64,
                        "time": 281.87842268749995,
                        "value": 1
                    },
                    {
                        "number": 64,
                        "time": 282.170561375,
                        "value": 0
                    },
                    {
                        "number": 64,
                        "time": 282.30335168749997,
                        "value": 1
                    },
                    {
                        "number": 64,
                        "time": 283.0310426,
                        "value": 0
                    },
                    {
                        "number": 64,
                        "time": 283.14081592499997,
                        "value": 1
                    },
                    {
                        "number": 64,
                        "time": 283.86673629999996,
                        "value": 0
                    },
                    {
                        "number": 64,
                        "time": 283.92162296249995,
                        "value": 1
                    },
                    {
                        "number": 64,
                        "time": 284.28989476249996,
                        "value": 0
                    },
                    {
                        "number": 64,
                        "time": 284.37133948749994,
                        "value": 1
                    },
                    {
                        "number": 64,
                        "time": 284.73429967499993,
                        "value": 0
                    },
                    {
                        "number": 64,
                        "time": 286.5774292124999,
                        "value": 1
                    },
                    {
                        "number": 64,
                        "time": 286.8394687624999,
                        "value": 0
                    },
                    {
                        "number": 64,
                        "time": 286.9651769249999,
                        "value": 1
                    },
                    {
                        "number": 64,
                        "time": 287.2643977624999,
                        "value": 0
                    },
                    {
                        "number": 64,
                        "time": 287.34407194999994,
                        "value": 1
                    },
                    {
                        "number": 64,
                        "time": 287.70349106249995,
                        "value": 0
                    },
                    {
                        "number": 64,
                        "time": 287.7884768625,
                        "value": 1
                    },
                    {
                        "number": 64,
                        "time": 288.05228695,
                        "value": 0
                    },
                    {
                        "number": 64,
                        "time": 288.2346523125,
                        "value": 1
                    },
                    {
                        "number": 64,
                        "time": 288.54095529999995,
                        "value": 0
                    },
                    {
                        "number": 64,
                        "time": 288.63833486249996,
                        "value": 1
                    },
                    {
                        "number": 64,
                        "time": 288.962343225,
                        "value": 0
                    },
                    {
                        "number": 64,
                        "time": 289.0083772,
                        "value": 1
                    },
                    {
                        "number": 64,
                        "time": 289.38904276249997,
                        "value": 0
                    },
                    {
                        "number": 64,
                        "time": 289.45809372499997,
                        "value": 1
                    },
                    {
                        "number": 64,
                        "time": 289.82636552499997,
                        "value": 0
                    },
                    {
                        "number": 64,
                        "time": 289.883022725,
                        "value": 1
                    },
                    {
                        "number": 64,
                        "time": 290.2459829125,
                        "value": 0
                    },
                    {
                        "number": 64,
                        "time": 290.315033875,
                        "value": 1
                    },
                    {
                        "number": 64,
                        "time": 290.577073425,
                        "value": 0
                    },
                    {
                        "number": 64,
                        "time": 290.789537925,
                        "value": 1
                    },
                    {
                        "number": 64,
                        "time": 291.5313931375,
                        "value": 0
                    },
                    {
                        "number": 64,
                        "time": 292.489253925,
                        "value": 1
                    },
                    {
                        "number": 64,
                        "time": 293.62770953750004,
                        "value": 0
                    },
                    {
                        "number": 64,
                        "time": 294.0915903625,
                        "value": 1
                    },
                    {
                        "number": 64,
                        "time": 295.336278225,
                        "value": 0
                    },
                    {
                        "number": 64,
                        "time": 295.888685925,
                        "value": 1
                    },
                    {
                        "number": 64,
                        "time": 297.02714153750003,
                        "value": 0
                    },
                    {
                        "number": 64,
                        "time": 297.4910223625,
                        "value": 1
                    },
                    {
                        "number": 64,
                        "time": 298.72508700000003,
                        "value": 0
                    },
                    {
                        "number": 64,
                        "time": 299.28811792500005,
                        "value": 1
                    },
                    {
                        "number": 64,
                        "time": 300.4265735375001,
                        "value": 0
                    },
                    {
                        "number": 64,
                        "time": 300.89045436250007,
                        "value": 1
                    },
                    {
                        "number": 64,
                        "time": 302.13514222500004,
                        "value": 0
                    },
                    {
                        "number": 64,
                        "time": 302.68754992500004,
                        "value": 1
                    },
                    {
                        "number": 64,
                        "time": 303.82600553750007,
                        "value": 0
                    },
                    {
                        "number": 64,
                        "time": 303.82600553750007,
                        "value": 0
                    },
                    {
                        "number": 64,
                        "time": 303.83485822500006,
                        "value": 0
                    },
                    {
                        "number": 64,
                        "time": 304.38726592500007,
                        "value": 1
                    },
                    {
                        "number": 64,
                        "time": 305.5345742250001,
                        "value": 0
                    },
                    {
                        "number": 64,
                        "time": 306.0869819250001,
                        "value": 1
                    },
                    {
                        "number": 64,
                        "time": 307.6485960000001,
                        "value": 0
                    },
                    {
                        "number": 64,
                        "time": 309.4368388750001,
                        "value": 0
                    },
                    {
                        "number": 64,
                        "time": 311.0480280000001,
                        "value": 0
                    },
                    {
                        "number": 64,
                        "time": 312.8362708750001,
                        "value": 0
                    },
                    {
                        "number": 64,
                        "time": 314.5111993500001,
                        "value": 1
                    },
                    {
                        "number": 64,
                        "time": 314.8847827625001,
                        "value": 0
                    },
                    {
                        "number": 64,
                        "time": 314.9857034000001,
                        "value": 1
                    },
                    {
                        "number": 64,
                        "time": 315.3097117625001,
                        "value": 0
                    },
                    {
                        "number": 64,
                        "time": 315.43541992500013,
                        "value": 1
                    },
                    {
                        "number": 64,
                        "time": 315.7470345250001,
                        "value": 0
                    },
                    {
                        "number": 64,
                        "time": 315.8603489250001,
                        "value": 1
                    },
                    {
                        "number": 64,
                        "time": 316.1878983625001,
                        "value": 0
                    },
                    {
                        "number": 64,
                        "time": 316.2693430875001,
                        "value": 1
                    },
                    {
                        "number": 64,
                        "time": 316.6004336000001,
                        "value": 0
                    },
                    {
                        "number": 64,
                        "time": 316.6836488625001,
                        "value": 1
                    },
                    {
                        "number": 64,
                        "time": 317.0306742125001,
                        "value": 0
                    },
                    {
                        "number": 64,
                        "time": 317.0891019500001,
                        "value": 1
                    },
                    {
                        "number": 64,
                        "time": 317.4325862250001,
                        "value": 0
                    },
                    {
                        "number": 64,
                        "time": 317.52288363750006,
                        "value": 1
                    },
                    {
                        "number": 64,
                        "time": 317.85928576250006,
                        "value": 0
                    },
                    {
                        "number": 64,
                        "time": 317.85928576250006,
                        "value": 0
                    },
                    {
                        "number": 64,
                        "time": 321.2463240000001,
                        "value": 0
                    },
                    {
                        "number": 64,
                        "time": 323.03456687500005,
                        "value": 0
                    },
                    {
                        "number": 64,
                        "time": 324.64575600000006,
                        "value": 0
                    },
                    {
                        "number": 64,
                        "time": 326.3684889875001,
                        "value": 0
                    },
                    {
                        "number": 64,
                        "time": 326.52783736250007,
                        "value": 1
                    },
                    {
                        "number": 64,
                        "time": 326.78810637500004,
                        "value": 0
                    },
                    {
                        "number": 64,
                        "time": 326.8925680875,
                        "value": 1
                    },
                    {
                        "number": 64,
                        "time": 327.2041826875,
                        "value": 0
                    },
                    {
                        "number": 64,
                        "time": 327.28739795,
                        "value": 1
                    },
                    {
                        "number": 64,
                        "time": 327.64150545,
                        "value": 0
                    },
                    {
                        "number": 64,
                        "time": 327.72117963750003,
                        "value": 1
                    },
                    {
                        "number": 64,
                        "time": 328.06820498750005,
                        "value": 0
                    },
                    {
                        "number": 64,
                        "time": 328.22755336250003,
                        "value": 1
                    },
                    {
                        "number": 64,
                        "time": 328.487822375,
                        "value": 0
                    },
                    {
                        "number": 64,
                        "time": 328.5922840875,
                        "value": 1
                    },
                    {
                        "number": 64,
                        "time": 328.9038986875,
                        "value": 0
                    },
                    {
                        "number": 64,
                        "time": 328.98711395,
                        "value": 1
                    },
                    {
                        "number": 64,
                        "time": 329.34122145,
                        "value": 0
                    },
                    {
                        "number": 64,
                        "time": 329.4208956375,
                        "value": 1
                    },
                    {
                        "number": 64,
                        "time": 329.7679209875,
                        "value": 0
                    },
                    {
                        "number": 64,
                        "time": 329.9272693625,
                        "value": 1
                    },
                    {
                        "number": 64,
                        "time": 330.187538375,
                        "value": 0
                    },
                    {
                        "number": 64,
                        "time": 330.29200008749996,
                        "value": 1
                    },
                    {
                        "number": 64,
                        "time": 330.60361468749994,
                        "value": 0
                    },
                    {
                        "number": 64,
                        "time": 330.68682994999995,
                        "value": 1
                    },
                    {
                        "number": 64,
                        "time": 331.04093744999994,
                        "value": 0
                    },
                    {
                        "number": 64,
                        "time": 331.12061163749996,
                        "value": 1
                    },
                    {
                        "number": 64,
                        "time": 331.4676369875,
                        "value": 0
                    },
                    {
                        "number": 64,
                        "time": 331.62698536249997,
                        "value": 1
                    },
                    {
                        "number": 64,
                        "time": 331.88725437499994,
                        "value": 0
                    },
                    {
                        "number": 64,
                        "time": 331.9917160874999,
                        "value": 1
                    },
                    {
                        "number": 64,
                        "time": 332.3033306874999,
                        "value": 0
                    },
                    {
                        "number": 64,
                        "time": 332.3865459499999,
                        "value": 1
                    },
                    {
                        "number": 64,
                        "time": 333.1443359999999,
                        "value": 0
                    },
                    {
                        "number": 64,
                        "time": 340.0936956874999,
                        "value": 1
                    },
                    {
                        "number": 64,
                        "time": 341.65530976249994,
                        "value": 0
                    },
                    {
                        "number": 64,
                        "time": 341.73498394999996,
                        "value": 1
                    },
                    {
                        "number": 64,
                        "time": 342.51402045,
                        "value": 0
                    },
                    {
                        "number": 64,
                        "time": 342.6149410875,
                        "value": 1
                    },
                    {
                        "number": 64,
                        "time": 343.35856683749995,
                        "value": 0
                    },
                    {
                        "number": 64,
                        "time": 343.48427499999997,
                        "value": 1
                    },
                    {
                        "number": 64,
                        "time": 344.2261302125,
                        "value": 0
                    },
                    {
                        "number": 64,
                        "time": 344.334133,
                        "value": 1
                    },
                    {
                        "number": 64,
                        "time": 345.0547417625,
                        "value": 0
                    },
                    {
                        "number": 64,
                        "time": 345.13441595,
                        "value": 1
                    },
                    {
                        "number": 64,
                        "time": 345.9152229875,
                        "value": 0
                    },
                    {
                        "number": 64,
                        "time": 345.9931266375,
                        "value": 1
                    },
                    {
                        "number": 64,
                        "time": 346.75976937499996,
                        "value": 0
                    },
                    {
                        "number": 64,
                        "time": 346.8677721625,
                        "value": 1
                    },
                    {
                        "number": 64,
                        "time": 348.4541737625,
                        "value": 0
                    },
                    {
                        "number": 64,
                        "time": 348.56748816249996,
                        "value": 1
                    },
                    {
                        "number": 64,
                        "time": 349.31642552499994,
                        "value": 0
                    },
                    {
                        "number": 64,
                        "time": 349.47931497499997,
                        "value": 1
                    },
                    {
                        "number": 64,
                        "time": 350.15388976249994,
                        "value": 0
                    },
                    {
                        "number": 64,
                        "time": 350.3043854499999,
                        "value": 1
                    },
                    {
                        "number": 64,
                        "time": 351.01968259999995,
                        "value": 0
                    },
                    {
                        "number": 64,
                        "time": 351.1418496874999,
                        "value": 1
                    },
                    {
                        "number": 64,
                        "time": 351.8536057624999,
                        "value": 0
                    },
                    {
                        "number": 64,
                        "time": 352.0041014499999,
                        "value": 1
                    },
                    {
                        "number": 64,
                        "time": 352.7193985999999,
                        "value": 0
                    },
                    {
                        "number": 64,
                        "time": 352.8415656874999,
                        "value": 1
                    },
                    {
                        "number": 64,
                        "time": 355.3362530249999,
                        "value": 0
                    },
                    {
                        "number": 64,
                        "time": 355.44425581249993,
                        "value": 1
                    },
                    {
                        "number": 64,
                        "time": 358.6400759999999,
                        "value": 0
                    },
                    {
                        "number": 64,
                        "time": 358.7286028749999,
                        "value": 1
                    },
                    {
                        "number": 64,
                        "time": 360.42831887499995,
                        "value": 0
                    },
                    {
                        "number": 64,
                        "time": 362.03950799999996,
                        "value": 0
                    },
                    {
                        "number": 64,
                        "time": 363.739224,
                        "value": 0
                    },
                    {
                        "number": 64,
                        "time": 365.70275008749996,
                        "value": 0
                    },
                    {
                        "number": 64,
                        "time": 367.13865599999997,
                        "value": 0
                    },
                    {
                        "number": 64,
                        "time": 368.8790943625,
                        "value": 0
                    },
                    {
                        "number": 64,
                        "time": 371.12590645,
                        "value": 1
                    },
                    {
                        "number": 64,
                        "time": 374.38369545,
                        "value": 0
                    },
                    {
                        "number": 64,
                        "time": 374.6262590875,
                        "value": 1
                    },
                    {
                        "number": 64,
                        "time": 376.0745587625,
                        "value": 0
                    },
                    {
                        "number": 64,
                        "time": 376.57562087499997,
                        "value": 1
                    },
                    {
                        "number": 64,
                        "time": 376.9403516,
                        "value": 0
                    },
                    {
                        "number": 64,
                        "time": 377.475053925,
                        "value": 1
                    },
                    {
                        "number": 64,
                        "time": 377.7778158375,
                        "value": 0
                    },
                    {
                        "number": 64,
                        "time": 378.19920376249996,
                        "value": 1
                    },
                    {
                        "number": 64,
                        "time": 378.42760309999994,
                        "value": 0
                    },
                    {
                        "number": 64,
                        "time": 379.17476992499996,
                        "value": 1
                    },
                    {
                        "number": 64,
                        "time": 379.48107291249994,
                        "value": 0
                    },
                    {
                        "number": 64,
                        "time": 379.9998403999999,
                        "value": 1
                    },
                    {
                        "number": 64,
                        "time": 380.1237780249999,
                        "value": 0
                    },
                    {
                        "number": 64,
                        "time": 380.82491087499994,
                        "value": 1
                    },
                    {
                        "number": 64,
                        "time": 381.1772478374999,
                        "value": 0
                    },
                    {
                        "number": 64,
                        "time": 381.66237511249994,
                        "value": 1
                    },
                    {
                        "number": 64,
                        "time": 381.82349402499995,
                        "value": 0
                    },
                    {
                        "number": 64,
                        "time": 382.54941439999993,
                        "value": 1
                    },
                    {
                        "number": 64,
                        "time": 382.88581652499994,
                        "value": 0
                    },
                    {
                        "number": 64,
                        "time": 384.2367366374999,
                        "value": 1
                    },
                    {
                        "number": 64,
                        "time": 384.58376198749994,
                        "value": 0
                    },
                    {
                        "number": 64,
                        "time": 385.12731699999995,
                        "value": 1
                    },
                    {
                        "number": 64,
                        "time": 385.22823763749994,
                        "value": 0
                    },
                    {
                        "number": 64,
                        "time": 385.97363392499994,
                        "value": 1
                    },
                    {
                        "number": 64,
                        "time": 386.27639583749993,
                        "value": 0
                    },
                    {
                        "number": 64,
                        "time": 386.76152311249996,
                        "value": 1
                    },
                    {
                        "number": 64,
                        "time": 386.92264202499996,
                        "value": 0
                    },
                    {
                        "number": 64,
                        "time": 387.61669272499995,
                        "value": 1
                    },
                    {
                        "number": 64,
                        "time": 387.9690296874999,
                        "value": 0
                    },
                    {
                        "number": 64,
                        "time": 389.23496399999993,
                        "value": 0
                    },
                    {
                        "number": 64,
                        "time": 391.07278192499996,
                        "value": 1
                    },
                    {
                        "number": 64,
                        "time": 391.81286659999995,
                        "value": 0
                    },
                    {
                        "number": 64,
                        "time": 391.95982121249995,
                        "value": 1
                    },
                    {
                        "number": 64,
                        "time": 392.23248398749996,
                        "value": 0
                    },
                    {
                        "number": 64,
                        "time": 392.32278139999994,
                        "value": 1
                    },
                    {
                        "number": 64,
                        "time": 392.6343959999999,
                        "value": 0
                    },
                    {
                        "number": 64,
                        "time": 392.7477103999999,
                        "value": 1
                    },
                    {
                        "number": 64,
                        "time": 393.0841125249999,
                        "value": 0
                    },
                    {
                        "number": 64,
                        "time": 393.1602456374999,
                        "value": 1
                    },
                    {
                        "number": 64,
                        "time": 393.4311378749999,
                        "value": 0
                    },
                    {
                        "number": 64,
                        "time": 393.5975683999999,
                        "value": 1
                    },
                    {
                        "number": 64,
                        "time": 393.94105267499987,
                        "value": 0
                    },
                    {
                        "number": 64,
                        "time": 394.05967868749985,
                        "value": 1
                    },
                    {
                        "number": 64,
                        "time": 394.3518173749999,
                        "value": 0
                    },
                    {
                        "number": 64,
                        "time": 394.4846076874999,
                        "value": 1
                    },
                    {
                        "number": 64,
                        "time": 395.2122985999999,
                        "value": 0
                    },
                    {
                        "number": 64,
                        "time": 395.3220719249999,
                        "value": 1
                    },
                    {
                        "number": 64,
                        "time": 395.6230632999999,
                        "value": 0
                    },
                    {
                        "number": 64,
                        "time": 395.7346071624999,
                        "value": 1
                    },
                    {
                        "number": 64,
                        "time": 396.0479922999999,
                        "value": 0
                    },
                    {
                        "number": 64,
                        "time": 396.15599508749995,
                        "value": 1
                    },
                    {
                        "number": 64,
                        "time": 396.4764623749999,
                        "value": 0
                    },
                    {
                        "number": 64,
                        "time": 396.65174558749993,
                        "value": 1
                    },
                    {
                        "number": 64,
                        "time": 396.90139137499995,
                        "value": 0
                    },
                    {
                        "number": 64,
                        "time": 397.01647631249995,
                        "value": 1
                    },
                    {
                        "number": 64,
                        "time": 397.31923822499994,
                        "value": 0
                    },
                    {
                        "number": 64,
                        "time": 397.4006829499999,
                        "value": 1
                    },
                    {
                        "number": 64,
                        "time": 397.7459377624999,
                        "value": 0
                    },
                    {
                        "number": 64,
                        "time": 397.87164592499994,
                        "value": 1
                    },
                    {
                        "number": 64,
                        "time": 398.61173059999993,
                        "value": 0
                    },
                    {
                        "number": 64,
                        "time": 398.7586852124999,
                        "value": 1
                    },
                    {
                        "number": 64,
                        "time": 399.03134798749994,
                        "value": 0
                    },
                    {
                        "number": 64,
                        "time": 399.17122044999996,
                        "value": 1
                    },
                    {
                        "number": 64,
                        "time": 399.43325999999996,
                        "value": 0
                    },
                    {
                        "number": 64,
                        "time": 399.54657439999994,
                        "value": 1
                    },
                    {
                        "number": 64,
                        "time": 399.88297652499995,
                        "value": 0
                    },
                    {
                        "number": 64,
                        "time": 399.9591096374999,
                        "value": 1
                    },
                    {
                        "number": 64,
                        "time": 400.2300018749999,
                        "value": 0
                    },
                    {
                        "number": 64,
                        "time": 400.3964323999999,
                        "value": 1
                    },
                    {
                        "number": 64,
                        "time": 400.7399166749999,
                        "value": 0
                    },
                    {
                        "number": 64,
                        "time": 400.8585426874999,
                        "value": 1
                    },
                    {
                        "number": 64,
                        "time": 401.1506813749999,
                        "value": 0
                    },
                    {
                        "number": 64,
                        "time": 401.2834716874999,
                        "value": 1
                    },
                    {
                        "number": 64,
                        "time": 402.0111625999999,
                        "value": 0
                    },
                    {
                        "number": 64,
                        "time": 402.1209359249999,
                        "value": 1
                    },
                    {
                        "number": 64,
                        "time": 402.8468562999999,
                        "value": 0
                    },
                    {
                        "number": 64,
                        "time": 402.9584001624999,
                        "value": 1
                    },
                    {
                        "number": 64,
                        "time": 404.1322665249999,
                        "value": 0
                    },
                    {
                        "number": 64,
                        "time": 404.2455809249999,
                        "value": 1
                    },
                    {
                        "number": 64,
                        "time": 404.5324079999999,
                        "value": 0
                    },
                    {
                        "number": 64,
                        "time": 404.74487249999993,
                        "value": 1
                    },
                    {
                        "number": 64,
                        "time": 405.39997137499995,
                        "value": 0
                    },
                    {
                        "number": 64,
                        "time": 405.52036792499996,
                        "value": 1
                    },
                    {
                        "number": 64,
                        "time": 406.26576421249996,
                        "value": 0
                    },
                    {
                        "number": 64,
                        "time": 406.3826196875,
                        "value": 1
                    },
                    {
                        "number": 64,
                        "time": 407.52638691249996,
                        "value": 0
                    },
                    {
                        "number": 64,
                        "time": 407.63261916249996,
                        "value": 1
                    },
                    {
                        "number": 64,
                        "time": 407.94600429999997,
                        "value": 0
                    },
                    {
                        "number": 64,
                        "time": 408.08233568749995,
                        "value": 1
                    },
                    {
                        "number": 64,
                        "time": 409.63155599999993,
                        "value": 0
                    },
                    {
                        "number": 64,
                        "time": 409.76965792499993,
                        "value": 1
                    },
                    {
                        "number": 64,
                        "time": 411.3365836124999,
                        "value": 0
                    },
                    {
                        "number": 64,
                        "time": 411.3879291999999,
                        "value": 1
                    },
                    {
                        "number": 64,
                        "time": 411.7739063749999,
                        "value": 0
                    },
                    {
                        "number": 64,
                        "time": 411.88190916249994,
                        "value": 1
                    },
                    {
                        "number": 64,
                        "time": 412.20414698749994,
                        "value": 0
                    },
                    {
                        "number": 64,
                        "time": 412.27496848749996,
                        "value": 1
                    },
                    {
                        "number": 64,
                        "time": 412.6255349125,
                        "value": 0
                    },
                    {
                        "number": 64,
                        "time": 412.687503725,
                        "value": 1
                    },
                    {
                        "number": 64,
                        "time": 413.04869337499997,
                        "value": 0
                    },
                    {
                        "number": 64,
                        "time": 413.169089925,
                        "value": 1
                    },
                    {
                        "number": 64,
                        "time": 414.31816876249997,
                        "value": 0
                    },
                    {
                        "number": 64,
                        "time": 414.41908939999996,
                        "value": 1
                    },
                    {
                        "number": 64,
                        "time": 414.73070399999995,
                        "value": 0
                    },
                    {
                        "number": 64,
                        "time": 414.85641216249996,
                        "value": 1
                    },
                    {
                        "number": 64,
                        "time": 415.59649683749996,
                        "value": 0
                    },
                    {
                        "number": 64,
                        "time": 415.74345144999995,
                        "value": 1
                    },
                    {
                        "number": 64,
                        "time": 416.02850798749995,
                        "value": 0
                    },
                    {
                        "number": 64,
                        "time": 416.14359292499995,
                        "value": 1
                    },
                    {
                        "number": 64,
                        "time": 416.44104322499993,
                        "value": 0
                    },
                    {
                        "number": 64,
                        "time": 416.44104322499993,
                        "value": 0
                    },
                    {
                        "number": 64,
                        "time": 416.44281376249995,
                        "value": 0
                    },
                    {
                        "number": 64,
                        "time": 416.54373439999995,
                        "value": 1
                    },
                    {
                        "number": 64,
                        "time": 417.305065525,
                        "value": 0
                    },
                    {
                        "number": 64,
                        "time": 417.44316745,
                        "value": 1
                    },
                    {
                        "number": 64,
                        "time": 418.1425297625,
                        "value": 0
                    },
                    {
                        "number": 64,
                        "time": 418.29302544999996,
                        "value": 1
                    },
                    {
                        "number": 64,
                        "time": 419.82985199999996,
                        "value": 0
                    },
                    {
                        "number": 64,
                        "time": 420.00513521249997,
                        "value": 1
                    },
                    {
                        "number": 64,
                        "time": 421.11880329999997,
                        "value": 0
                    },
                    {
                        "number": 64,
                        "time": 421.2303471625,
                        "value": 1
                    },
                    {
                        "number": 64,
                        "time": 421.54196176249997,
                        "value": 0
                    },
                    {
                        "number": 64,
                        "time": 421.68006368749997,
                        "value": 1
                    },
                    {
                        "number": 64,
                        "time": 422.41129567499996,
                        "value": 0
                    },
                    {
                        "number": 64,
                        "time": 422.54231545,
                        "value": 1
                    },
                    {
                        "number": 64,
                        "time": 423.2576126,
                        "value": 0
                    },
                    {
                        "number": 64,
                        "time": 423.3797796875,
                        "value": 1
                    },
                    {
                        "number": 64,
                        "time": 424.929,
                        "value": 0
                    },
                    {
                        "number": 64,
                        "time": 425.0547081625,
                        "value": 1
                    },
                    {
                        "number": 64,
                        "time": 425.7912517625,
                        "value": 0
                    },
                    {
                        "number": 64,
                        "time": 425.9045661625,
                        "value": 1
                    },
                    {
                        "number": 64,
                        "time": 426.228574525,
                        "value": 0
                    },
                    {
                        "number": 64,
                        "time": 426.341888925,
                        "value": 1
                    },
                    {
                        "number": 64,
                        "time": 426.6411097625,
                        "value": 0
                    },
                    {
                        "number": 64,
                        "time": 426.7508830875,
                        "value": 1
                    },
                    {
                        "number": 64,
                        "time": 427.49982044999996,
                        "value": 0
                    },
                    {
                        "number": 64,
                        "time": 427.62021699999997,
                        "value": 1
                    },
                    {
                        "number": 64,
                        "time": 428.34082576249995,
                        "value": 0
                    },
                    {
                        "number": 64,
                        "time": 428.47892768749995,
                        "value": 1
                    },
                    {
                        "number": 64,
                        "time": 429.1942248375,
                        "value": 0
                    },
                    {
                        "number": 64,
                        "time": 429.3287856875,
                        "value": 1
                    },
                    {
                        "number": 64,
                        "time": 430.04054176249997,
                        "value": 0
                    },
                    {
                        "number": 64,
                        "time": 430.17864368749997,
                        "value": 1
                    },
                    {
                        "number": 64,
                        "time": 430.8939408375,
                        "value": 0
                    },
                    {
                        "number": 64,
                        "time": 431.0285016875,
                        "value": 1
                    },
                    {
                        "number": 64,
                        "time": 431.727864,
                        "value": 0
                    },
                    {
                        "number": 64,
                        "time": 433.42758000000003,
                        "value": 0
                    },
                    {
                        "number": 64,
                        "time": 433.55328816250005,
                        "value": 1
                    },
                    {
                        "number": 64,
                        "time": 434.30222552500004,
                        "value": 0
                    },
                    {
                        "number": 64,
                        "time": 435.13968976250004,
                        "value": 0
                    },
                    {
                        "number": 64,
                        "time": 435.27779168750004,
                        "value": 1
                    },
                    {
                        "number": 64,
                        "time": 435.99308883750007,
                        "value": 0
                    },
                    {
                        "number": 64,
                        "time": 436.1276496875001,
                        "value": 1
                    },
                    {
                        "number": 64,
                        "time": 436.83940576250006,
                        "value": 0
                    },
                    {
                        "number": 64,
                        "time": 436.97750768750007,
                        "value": 1
                    },
                    {
                        "number": 64,
                        "time": 437.6928048375001,
                        "value": 0
                    },
                    {
                        "number": 64,
                        "time": 437.78310225000007,
                        "value": 1
                    },
                    {
                        "number": 64,
                        "time": 438.52672800000005,
                        "value": 0
                    },
                    {
                        "number": 64,
                        "time": 438.68961745000007,
                        "value": 1
                    },
                    {
                        "number": 64,
                        "time": 440.23883776250005,
                        "value": 0
                    },
                    {
                        "number": 64,
                        "time": 440.32736463750007,
                        "value": 1
                    },
                    {
                        "number": 64,
                        "time": 441.94563591250005,
                        "value": 0
                    },
                    {
                        "number": 64,
                        "time": 442.0394744000001,
                        "value": 1
                    },
                    {
                        "number": 64,
                        "time": 443.6418108375001,
                        "value": 0
                    },
                    {
                        "number": 64,
                        "time": 443.76397792500006,
                        "value": 1
                    },
                    {
                        "number": 64,
                        "time": 445.34683845000006,
                        "value": 0
                    },
                    {
                        "number": 64,
                        "time": 445.4583823125001,
                        "value": 1
                    },
                    {
                        "number": 64,
                        "time": 446.19315537500006,
                        "value": 0
                    },
                    {
                        "number": 64,
                        "time": 446.26751795000007,
                        "value": 1
                    },
                    {
                        "number": 64,
                        "time": 447.0412428375001,
                        "value": 0
                    },
                    {
                        "number": 64,
                        "time": 447.16340992500005,
                        "value": 1
                    },
                    {
                        "number": 64,
                        "time": 447.89110083750006,
                        "value": 0
                    },
                    {
                        "number": 64,
                        "time": 448.00087416250005,
                        "value": 1
                    },
                    {
                        "number": 64,
                        "time": 448.73741776250006,
                        "value": 0
                    },
                    {
                        "number": 64,
                        "time": 448.84719108750005,
                        "value": 1
                    },
                    {
                        "number": 64,
                        "time": 449.59612845000004,
                        "value": 0
                    },
                    {
                        "number": 64,
                        "time": 449.69704908750003,
                        "value": 1
                    },
                    {
                        "number": 64,
                        "time": 450.42474000000004,
                        "value": 0
                    },
                    {
                        "number": 64,
                        "time": 469.259717925,
                        "value": 1
                    },
                    {
                        "number": 64,
                        "time": 469.9998026,
                        "value": 0
                    },
                    {
                        "number": 64,
                        "time": 470.1467572125,
                        "value": 1
                    },
                    {
                        "number": 64,
                        "time": 470.4194199875,
                        "value": 0
                    },
                    {
                        "number": 64,
                        "time": 470.5097174,
                        "value": 1
                    },
                    {
                        "number": 64,
                        "time": 470.821332,
                        "value": 0
                    },
                    {
                        "number": 64,
                        "time": 470.93464639999996,
                        "value": 1
                    },
                    {
                        "number": 64,
                        "time": 471.27104852499997,
                        "value": 0
                    },
                    {
                        "number": 64,
                        "time": 471.34718163749994,
                        "value": 1
                    },
                    {
                        "number": 64,
                        "time": 471.61807387499994,
                        "value": 0
                    },
                    {
                        "number": 64,
                        "time": 471.78450439999995,
                        "value": 1
                    },
                    {
                        "number": 64,
                        "time": 472.1279886749999,
                        "value": 0
                    },
                    {
                        "number": 64,
                        "time": 472.2466146874999,
                        "value": 1
                    },
                    {
                        "number": 64,
                        "time": 472.53875337499994,
                        "value": 0
                    },
                    {
                        "number": 64,
                        "time": 472.67154368749993,
                        "value": 1
                    },
                    {
                        "number": 64,
                        "time": 473.39923459999994,
                        "value": 0
                    },
                    {
                        "number": 64,
                        "time": 473.50900792499993,
                        "value": 1
                    },
                    {
                        "number": 64,
                        "time": 474.2349282999999,
                        "value": 0
                    },
                    {
                        "number": 64,
                        "time": 474.3712596874999,
                        "value": 1
                    },
                    {
                        "number": 64,
                        "time": 475.5274206749999,
                        "value": 0
                    },
                    {
                        "number": 64,
                        "time": 475.6460466874999,
                        "value": 1
                    },
                    {
                        "number": 64,
                        "time": 475.93818537499993,
                        "value": 0
                    },
                    {
                        "number": 64,
                        "time": 476.0709756874999,
                        "value": 1
                    },
                    {
                        "number": 64,
                        "time": 476.79866659999993,
                        "value": 0
                    },
                    {
                        "number": 64,
                        "time": 476.9084399249999,
                        "value": 1
                    },
                    {
                        "number": 64,
                        "time": 477.6343602999999,
                        "value": 0
                    },
                    {
                        "number": 64,
                        "time": 477.7317398624999,
                        "value": 1
                    },
                    {
                        "number": 64,
                        "time": 478.92508213749994,
                        "value": 0
                    },
                    {
                        "number": 64,
                        "time": 479.02777331249996,
                        "value": 1
                    },
                    {
                        "number": 64,
                        "time": 479.35709328749994,
                        "value": 0
                    },
                    {
                        "number": 64,
                        "time": 479.48280144999995,
                        "value": 1
                    },
                    {
                        "number": 64,
                        "time": 480.2582968749999,
                        "value": 0
                    },
                    {
                        "number": 64,
                        "time": 480.36984073749994,
                        "value": 1
                    },
                    {
                        "number": 64,
                        "time": 480.61948652499996,
                        "value": 0
                    },
                    {
                        "number": 64,
                        "time": 480.73280092499994,
                        "value": 1
                    },
                    {
                        "number": 64,
                        "time": 481.0302512249999,
                        "value": 0
                    },
                    {
                        "number": 64,
                        "time": 486.1187759999999,
                        "value": 0
                    }
                ]
            },
            "id": 3,
            "name": "Pedale",
            "instrumentNumber": 0,
            "instrument": "acoustic grand piano",
            "instrumentFamily": "piano",
            "channelNumber": 0,
            "isPercussion": false
        },
        {
            "startTime": 0,
            "duration": 0,
            "length": 0,
            "notes": [],
            "controlChanges": {},
            "id": 4,
            "name": "Beethoven: Sonatea Opus 90, 2. movement"
        },
        {
            "startTime": 0,
            "duration": 0,
            "length": 0,
            "notes": [],
            "controlChanges": {},
            "id": 5,
            "name": "Copyright  2010 by Bernd Krueger"
        },
        {
            "startTime": 0,
            "duration": 0,
            "length": 0,
            "notes": [],
            "controlChanges": {},
            "id": 6,
            "name": "http://www.piano-midi.de/"
        },
        {
            "startTime": 0,
            "duration": 0,
            "length": 0,
            "notes": [],
            "controlChanges": {},
            "id": 7,
            "name": "Edition: 2014-02-28"
        },
        {
            "startTime": 0,
            "duration": 0,
            "length": 0,
            "notes": [],
            "controlChanges": {},
            "id": 8,
            "name": "Spur 8"
        },
        {
            "startTime": 0,
            "duration": 0,
            "length": 0,
            "notes": [],
            "controlChanges": {},
            "id": 9,
            "name": "Spur 9"
        },
        {
            "startTime": 0,
            "duration": 0,
            "length": 0,
            "notes": [],
            "controlChanges": {},
            "id": 10,
            "name": "Spur 10"
        },
        {
            "startTime": 0,
            "duration": 0,
            "length": 0,
            "notes": [],
            "controlChanges": {},
            "id": 11,
            "name": "Spur 11"
        },
        {
            "startTime": 0,
            "duration": 0,
            "length": 0,
            "notes": [],
            "controlChanges": {},
            "id": 12,
            "name": "Spur 12"
        },
        {
            "startTime": 0,
            "duration": 0,
            "length": 0,
            "notes": [],
            "controlChanges": {},
            "id": 13,
            "name": "Spur 13"
        },
        {
            "startTime": 0,
            "duration": 0,
            "length": 0,
            "notes": [],
            "controlChanges": {},
            "id": 14,
            "name": "Spur 14"
        },
        {
            "startTime": 0,
            "duration": 0,
            "length": 0,
            "notes": [],
            "controlChanges": {},
            "id": 15,
            "name": "Spur 15"
        },
        {
            "startTime": 0,
            "duration": 0,
            "length": 0,
            "notes": [],
            "controlChanges": {},
            "id": 16,
            "name": "Spur 16"
        }
    ]
}