{
    "header": {
        "PPQ": 480,
        "timeSignature": [
            3,
            8
        ],
        "bpm": 115.18990014955489,
        "name": ""
    },
    "startTime": 0,
    "duration": 54.431855500000005,
    "tracks": [
        {
            "startTime": 0,
            "duration": 54.431855500000005,
            "length": 472,
            "notes": [
                {
                    "name": "E5",
                    "midi": 76,
                    "time": 0,
                    "velocity": 0.33070866141732286,
                    "duration": 0.13021975
                },
                {
                    "name": "C3",
                    "midi": 48,
                    "time": 0,
                    "velocity": 0.2204724409448819,
                    "duration": 0.2604395
                },
                {
                    "name": "D5",
                    "midi": 74,
                    "time": 0.13021975,
                    "velocity": 0.30708661417322836,
                    "duration": 0.13021975
                },
                {
                    "name": "C5",
                    "midi": 72,
                    "time": 0.2604395,
                    "velocity": 0.33070866141732286,
                    "duration": 0.06510987499999998
                },
                {
                    "name": "E3",
                    "midi": 52,
                    "time": 0.2604395,
                    "velocity": 0.1889763779527559,
                    "duration": 0.2604395
                },
                {
                    "name": "C5",
                    "midi": 72,
                    "time": 0.520879,
                    "velocity": 0.30708661417322836,
                    "duration": 0.06510987499999998
                },
                {
                    "name": "G3",
                    "midi": 55,
                    "time": 0.520879,
                    "velocity": 0.1889763779527559,
                    "duration": 0.26043950000000005
                },
                {
                    "name": "G5",
                    "midi": 79,
                    "time": 0.7813185,
                    "velocity": 0.4645669291338583,
                    "duration": 0.5208789999999999
                },
                {
                    "name": "C3",
                    "midi": 48,
                    "time": 0.7813185,
                    "velocity": 0.2204724409448819,
                    "duration": 0.26043949999999993
                },
                {
                    "name": "E3",
                    "midi": 52,
                    "time": 1.041758,
                    "velocity": 0.2047244094488189,
                    "duration": 0.26043949999999993
                },
                {
                    "name": "F5",
                    "midi": 77,
                    "time": 1.3021975,
                    "velocity": 0.33070866141732286,
                    "duration": 0.13021974999999997
                },
                {
                    "name": "G3",
                    "midi": 55,
                    "time": 1.3021975,
                    "velocity": 0.2047244094488189,
                    "duration": 0.26043949999999993
                },
                {
                    "name": "E5",
                    "midi": 76,
                    "time": 1.4324172499999999,
                    "velocity": 0.2992125984251969,
                    "duration": 0.13021974999999997
                },
                {
                    "name": "D5",
                    "midi": 74,
                    "time": 1.5626369999999998,
                    "velocity": 0.36220472440944884,
                    "duration": 0.26043949999999993
                },
                {
                    "name": "C3",
                    "midi": 48,
                    "time": 1.5626369999999998,
                    "velocity": 0.2204724409448819,
                    "duration": 0.26043949999999993
                },
                {
                    "name": "F5",
                    "midi": 77,
                    "time": 1.8230764999999998,
                    "velocity": 0.33070866141732286,
                    "duration": 0.26043950000000016
                },
                {
                    "name": "D3",
                    "midi": 50,
                    "time": 1.8230764999999998,
                    "velocity": 0.18110236220472442,
                    "duration": 0.26043950000000016
                },
                {
                    "name": "B4",
                    "midi": 71,
                    "time": 2.083516,
                    "velocity": 0.30708661417322836,
                    "duration": 0.26043949999999993
                },
                {
                    "name": "F3",
                    "midi": 53,
                    "time": 2.083516,
                    "velocity": 0.18110236220472442,
                    "duration": 0.26043949999999993
                },
                {
                    "name": "C5",
                    "midi": 72,
                    "time": 2.3439555,
                    "velocity": 0.3543307086614173,
                    "duration": 0.26043949999999993
                },
                {
                    "name": "C3",
                    "midi": 48,
                    "time": 2.3439555,
                    "velocity": 0.2204724409448819,
                    "duration": 0.26043949999999993
                },
                {
                    "name": "G4",
                    "midi": 67,
                    "time": 2.604395,
                    "velocity": 0.33070866141732286,
                    "duration": 0.13021974999999975
                },
                {
                    "name": "E3",
                    "midi": 52,
                    "time": 2.604395,
                    "velocity": 0.2047244094488189,
                    "duration": 0.26043949999999993
                },
                {
                    "name": "G4",
                    "midi": 67,
                    "time": 2.8648344999999997,
                    "velocity": 0.33070866141732286,
                    "duration": 0.1302197500000002
                },
                {
                    "name": "G3",
                    "midi": 55,
                    "time": 2.8648344999999997,
                    "velocity": 0.2047244094488189,
                    "duration": 0.2604395000000004
                },
                {
                    "name": "E5",
                    "midi": 76,
                    "time": 3.125274,
                    "velocity": 0.33070866141732286,
                    "duration": 0.1302197500000002
                },
                {
                    "name": "C3",
                    "midi": 48,
                    "time": 3.125274,
                    "velocity": 0.2204724409448819,
                    "duration": 0.2604395000000004
                },
                {
                    "name": "D5",
                    "midi": 74,
                    "time": 3.2554937500000003,
                    "velocity": 0.30708661417322836,
                    "duration": 0.1302197500000002
                },
                {
                    "name": "C5",
                    "midi": 72,
                    "time": 3.3857135000000005,
                    "velocity": 0.33070866141732286,
                    "duration": 0.0651098750000001
                },
                {
                    "name": "E3",
                    "midi": 52,
                    "time": 3.3857135000000005,
                    "velocity": 0.1889763779527559,
                    "duration": 0.26043949999999993
                },
                {
                    "name": "C5",
                    "midi": 72,
                    "time": 3.6461530000000004,
                    "velocity": 0.30708661417322836,
                    "duration": 0.0651098750000001
                },
                {
                    "name": "G3",
                    "midi": 55,
                    "time": 3.6461530000000004,
                    "velocity": 0.1889763779527559,
                    "duration": 0.26043949999999993
                },
                {
                    "name": "G5",
                    "midi": 79,
                    "time": 3.9065925000000004,
                    "velocity": 0.49606299212598426,
                    "duration": 0.5208790000000008
                },
                {
                    "name": "C3",
                    "midi": 48,
                    "time": 3.9065925000000004,
                    "velocity": 0.2204724409448819,
                    "duration": 0.2604395000000004
                },
                {
                    "name": "E3",
                    "midi": 52,
                    "time": 4.167032000000001,
                    "velocity": 0.2047244094488189,
                    "duration": 0.2604395000000004
                },
                {
                    "name": "F5",
                    "midi": 77,
                    "time": 4.427471500000001,
                    "velocity": 0.33070866141732286,
                    "duration": 0.1302197500000002
                },
                {
                    "name": "G3",
                    "midi": 55,
                    "time": 4.427471500000001,
                    "velocity": 0.2047244094488189,
                    "duration": 0.2604395000000004
                },
                {
                    "name": "E5",
                    "midi": 76,
                    "time": 4.557691250000001,
                    "velocity": 0.2992125984251969,
                    "duration": 0.1302197500000002
                },
                {
                    "name": "D5",
                    "midi": 74,
                    "time": 4.6879110000000015,
                    "velocity": 0.36220472440944884,
                    "duration": 0.1302197499999993
                },
                {
                    "name": "G2",
                    "midi": 43,
                    "time": 4.6879110000000015,
                    "velocity": 0.2204724409448819,
                    "duration": 0.2604394999999995
                },
                {
                    "name": "E5",
                    "midi": 76,
                    "time": 4.818130750000001,
                    "velocity": 0.31496062992125984,
                    "duration": 0.1302197500000002
                },
                {
                    "name": "F5",
                    "midi": 77,
                    "time": 4.948350500000001,
                    "velocity": 0.3543307086614173,
                    "duration": 0.1302197500000002
                },
                {
                    "name": "D3",
                    "midi": 50,
                    "time": 4.948350500000001,
                    "velocity": 0.18110236220472442,
                    "duration": 0.2604395000000004
                },
                {
                    "name": "E5",
                    "midi": 76,
                    "time": 5.078570250000001,
                    "velocity": 0.30708661417322836,
                    "duration": 0.1302197500000002
                },
                {
                    "name": "F5",
                    "midi": 77,
                    "time": 5.208790000000001,
                    "velocity": 0.30708661417322836,
                    "duration": 0.1302197500000002
                },
                {
                    "name": "G3",
                    "midi": 55,
                    "time": 5.208790000000001,
                    "velocity": 0.18110236220472442,
                    "duration": 0.2604395000000004
                },
                {
                    "name": "D5",
                    "midi": 74,
                    "time": 5.3390097500000016,
                    "velocity": 0.28346456692913385,
                    "duration": 0.1302197500000002
                },
                {
                    "name": "C5",
                    "midi": 72,
                    "time": 5.469229500000002,
                    "velocity": 0.3543307086614173,
                    "duration": 0.2604395000000004
                },
                {
                    "name": "C3",
                    "midi": 48,
                    "time": 5.469229500000002,
                    "velocity": 0.2204724409448819,
                    "duration": 0.2604395000000004
                },
                {
                    "name": "E3",
                    "midi": 52,
                    "time": 5.729669000000002,
                    "velocity": 0.18110236220472442,
                    "duration": 0.2604394999999995
                },
                {
                    "name": "G3",
                    "midi": 55,
                    "time": 5.990108500000002,
                    "velocity": 0.18110236220472442,
                    "duration": 0.2604395000000004
                },
                {
                    "name": "E5",
                    "midi": 76,
                    "time": 6.250548000000002,
                    "velocity": 0.5275590551181102,
                    "duration": 0.1302197500000002
                },
                {
                    "name": "C3",
                    "midi": 48,
                    "time": 6.250548000000002,
                    "velocity": 0.3543307086614173,
                    "duration": 0.2604395000000004
                },
                {
                    "name": "D5",
                    "midi": 74,
                    "time": 6.380767750000002,
                    "velocity": 0.4881889763779528,
                    "duration": 0.1302197500000002
                },
                {
                    "name": "C5",
                    "midi": 72,
                    "time": 6.510987500000002,
                    "velocity": 0.5275590551181102,
                    "duration": 0.0651098750000001
                },
                {
                    "name": "E3",
                    "midi": 52,
                    "time": 6.510987500000002,
                    "velocity": 0.30708661417322836,
                    "duration": 0.2604395000000004
                },
                {
                    "name": "C5",
                    "midi": 72,
                    "time": 6.771427000000003,
                    "velocity": 0.49606299212598426,
                    "duration": 0.0651098750000001
                },
                {
                    "name": "G3",
                    "midi": 55,
                    "time": 6.771427000000003,
                    "velocity": 0.30708661417322836,
                    "duration": 0.2604395000000004
                },
                {
                    "name": "G5",
                    "midi": 79,
                    "time": 7.031866500000003,
                    "velocity": 0.6141732283464567,
                    "duration": 0.5208790000000008
                },
                {
                    "name": "C3",
                    "midi": 48,
                    "time": 7.031866500000003,
                    "velocity": 0.3543307086614173,
                    "duration": 0.2604395000000004
                },
                {
                    "name": "E3",
                    "midi": 52,
                    "time": 7.2923060000000035,
                    "velocity": 0.3228346456692913,
                    "duration": 0.2604395000000004
                },
                {
                    "name": "F5",
                    "midi": 77,
                    "time": 7.552745500000004,
                    "velocity": 0.5275590551181102,
                    "duration": 0.1302197500000002
                },
                {
                    "name": "G3",
                    "midi": 55,
                    "time": 7.552745500000004,
                    "velocity": 0.3228346456692913,
                    "duration": 0.2604395000000004
                },
                {
                    "name": "E5",
                    "midi": 76,
                    "time": 7.682965250000004,
                    "velocity": 0.47244094488188976,
                    "duration": 0.1302197500000002
                },
                {
                    "name": "D5",
                    "midi": 74,
                    "time": 7.813185000000004,
                    "velocity": 0.5826771653543307,
                    "duration": 0.2604395000000004
                },
                {
                    "name": "C3",
                    "midi": 48,
                    "time": 7.813185000000004,
                    "velocity": 0.3543307086614173,
                    "duration": 0.2604395000000004
                },
                {
                    "name": "F5",
                    "midi": 77,
                    "time": 8.073624500000005,
                    "velocity": 0.5275590551181102,
                    "duration": 0.2604395000000004
                },
                {
                    "name": "D3",
                    "midi": 50,
                    "time": 8.073624500000005,
                    "velocity": 0.2992125984251969,
                    "duration": 0.2604395000000004
                },
                {
                    "name": "B4",
                    "midi": 71,
                    "time": 8.334064000000005,
                    "velocity": 0.49606299212598426,
                    "duration": 0.2604395000000004
                },
                {
                    "name": "F3",
                    "midi": 53,
                    "time": 8.334064000000005,
                    "velocity": 0.2992125984251969,
                    "duration": 0.2604395000000004
                },
                {
                    "name": "C5",
                    "midi": 72,
                    "time": 8.594503500000005,
                    "velocity": 0.5590551181102362,
                    "duration": 0.2604395000000004
                },
                {
                    "name": "C3",
                    "midi": 48,
                    "time": 8.594503500000005,
                    "velocity": 0.3543307086614173,
                    "duration": 0.2604395000000004
                },
                {
                    "name": "G4",
                    "midi": 67,
                    "time": 8.854943000000006,
                    "velocity": 0.5275590551181102,
                    "duration": 0.1302197500000002
                },
                {
                    "name": "E3",
                    "midi": 52,
                    "time": 8.854943000000006,
                    "velocity": 0.3228346456692913,
                    "duration": 0.2604395000000004
                },
                {
                    "name": "G4",
                    "midi": 67,
                    "time": 9.115382500000006,
                    "velocity": 0.5275590551181102,
                    "duration": 0.1302197500000002
                },
                {
                    "name": "G3",
                    "midi": 55,
                    "time": 9.115382500000006,
                    "velocity": 0.3228346456692913,
                    "duration": 0.2604395000000004
                },
                {
                    "name": "E5",
                    "midi": 76,
                    "time": 9.375822000000007,
                    "velocity": 0.5275590551181102,
                    "duration": 0.1302197500000002
                },
                {
                    "name": "C3",
                    "midi": 48,
                    "time": 9.375822000000007,
                    "velocity": 0.3543307086614173,
                    "duration": 0.2604395000000004
                },
                {
                    "name": "D5",
                    "midi": 74,
                    "time": 9.506041750000007,
                    "velocity": 0.4881889763779528,
                    "duration": 0.1302197500000002
                },
                {
                    "name": "C5",
                    "midi": 72,
                    "time": 9.636261500000007,
                    "velocity": 0.5275590551181102,
                    "duration": 0.0651098749999992
                },
                {
                    "name": "E3",
                    "midi": 52,
                    "time": 9.636261500000007,
                    "velocity": 0.30708661417322836,
                    "duration": 0.2604394999999986
                },
                {
                    "name": "C5",
                    "midi": 72,
                    "time": 9.896701000000006,
                    "velocity": 0.49606299212598426,
                    "duration": 0.0651098749999992
                },
                {
                    "name": "G3",
                    "midi": 55,
                    "time": 9.896701000000006,
                    "velocity": 0.30708661417322836,
                    "duration": 0.2604394999999986
                },
                {
                    "name": "G5",
                    "midi": 79,
                    "time": 10.157140500000004,
                    "velocity": 0.6141732283464567,
                    "duration": 0.5208790000000008
                },
                {
                    "name": "C3",
                    "midi": 48,
                    "time": 10.157140500000004,
                    "velocity": 0.3543307086614173,
                    "duration": 0.2604395000000004
                },
                {
                    "name": "E3",
                    "midi": 52,
                    "time": 10.417580000000005,
                    "velocity": 0.3228346456692913,
                    "duration": 0.2604395000000004
                },
                {
                    "name": "F5",
                    "midi": 77,
                    "time": 10.678019500000005,
                    "velocity": 0.5275590551181102,
                    "duration": 0.13021975000000197
                },
                {
                    "name": "G3",
                    "midi": 55,
                    "time": 10.678019500000005,
                    "velocity": 0.3228346456692913,
                    "duration": 0.26043950000000216
                },
                {
                    "name": "E5",
                    "midi": 76,
                    "time": 10.808239250000007,
                    "velocity": 0.47244094488188976,
                    "duration": 0.1302197500000002
                },
                {
                    "name": "D5",
                    "midi": 74,
                    "time": 10.938459000000007,
                    "velocity": 0.5826771653543307,
                    "duration": 0.1302197500000002
                },
                {
                    "name": "G2",
                    "midi": 43,
                    "time": 10.938459000000007,
                    "velocity": 0.3543307086614173,
                    "duration": 0.2604395000000004
                },
                {
                    "name": "E5",
                    "midi": 76,
                    "time": 11.068678750000007,
                    "velocity": 0.5039370078740157,
                    "duration": 0.1302197500000002
                },
                {
                    "name": "F5",
                    "midi": 77,
                    "time": 11.198898500000007,
                    "velocity": 0.5590551181102362,
                    "duration": 0.1302197500000002
                },
                {
                    "name": "D3",
                    "midi": 50,
                    "time": 11.198898500000007,
                    "velocity": 0.2992125984251969,
                    "duration": 0.2604395000000004
                },
                {
                    "name": "E5",
                    "midi": 76,
                    "time": 11.329118250000008,
                    "velocity": 0.49606299212598426,
                    "duration": 0.1302197500000002
                },
                {
                    "name": "F5",
                    "midi": 77,
                    "time": 11.459338000000008,
                    "velocity": 0.49606299212598426,
                    "duration": 0.1302197499999984
                },
                {
                    "name": "G3",
                    "midi": 55,
                    "time": 11.459338000000008,
                    "velocity": 0.2992125984251969,
                    "duration": 0.2604394999999986
                },
                {
                    "name": "D5",
                    "midi": 74,
                    "time": 11.589557750000006,
                    "velocity": 0.4566929133858268,
                    "duration": 0.1302197500000002
                },
                {
                    "name": "C5",
                    "midi": 72,
                    "time": 11.719777500000006,
                    "velocity": 0.5590551181102362,
                    "duration": 0.2604395000000004
                },
                {
                    "name": "C3",
                    "midi": 48,
                    "time": 11.719777500000006,
                    "velocity": 0.3543307086614173,
                    "duration": 0.2604395000000004
                },
                {
                    "name": "E3",
                    "midi": 52,
                    "time": 11.980217000000007,
                    "velocity": 0.2992125984251969,
                    "duration": 0.2604395000000004
                },
                {
                    "name": "G3",
                    "midi": 55,
                    "time": 12.240656500000007,
                    "velocity": 0.2992125984251969,
                    "duration": 0.2604395000000004
                },
                {
                    "name": "G4",
                    "midi": 67,
                    "time": 12.501096000000008,
                    "velocity": 0.33070866141732286,
                    "duration": 0.1302197500000002
                },
                {
                    "name": "C4",
                    "midi": 60,
                    "time": 12.501096000000008,
                    "velocity": 0.2204724409448819,
                    "duration": 0.5208790000000008
                },
                {
                    "name": "F4",
                    "midi": 65,
                    "time": 12.631315750000008,
                    "velocity": 0.30708661417322836,
                    "duration": 0.1302197500000002
                },
                {
                    "name": "E4",
                    "midi": 64,
                    "time": 12.761535500000008,
                    "velocity": 0.33070866141732286,
                    "duration": 0.1302197500000002
                },
                {
                    "name": "E4",
                    "midi": 64,
                    "time": 13.021975000000008,
                    "velocity": 0.30708661417322836,
                    "duration": 0.1302197500000002
                },
                {
                    "name": "A4",
                    "midi": 69,
                    "time": 13.282414500000009,
                    "velocity": 0.33070866141732286,
                    "duration": 0.1302197500000002
                },
                {
                    "name": "C4",
                    "midi": 60,
                    "time": 13.282414500000009,
                    "velocity": 0.2204724409448819,
                    "duration": 0.5208790000000008
                },
                {
                    "name": "G4",
                    "midi": 67,
                    "time": 13.412634250000009,
                    "velocity": 0.30708661417322836,
                    "duration": 0.1302197500000002
                },
                {
                    "name": "F4",
                    "midi": 65,
                    "time": 13.542854000000009,
                    "velocity": 0.33070866141732286,
                    "duration": 0.1302197500000002
                },
                {
                    "name": "F4",
                    "midi": 65,
                    "time": 13.80329350000001,
                    "velocity": 0.30708661417322836,
                    "duration": 0.1302197500000002
                },
                {
                    "name": "D4",
                    "midi": 62,
                    "time": 14.06373300000001,
                    "velocity": 0.49606299212598426,
                    "duration": 0.1302197500000002
                },
                {
                    "name": "C4",
                    "midi": 60,
                    "time": 14.06373300000001,
                    "velocity": 0.3543307086614173,
                    "duration": 0.2604395000000004
                },
                {
                    "name": "F4",
                    "midi": 65,
                    "time": 14.19395275000001,
                    "velocity": 0.44881889763779526,
                    "duration": 0.1302197500000002
                },
                {
                    "name": "B4",
                    "midi": 71,
                    "time": 14.32417250000001,
                    "velocity": 0.49606299212598426,
                    "duration": 0.1302197500000002
                },
                {
                    "name": "C4",
                    "midi": 60,
                    "time": 14.32417250000001,
                    "velocity": 0.30708661417322836,
                    "duration": 0.2604395000000004
                },
                {
                    "name": "F4",
                    "midi": 65,
                    "time": 14.45439225000001,
                    "velocity": 0.4330708661417323,
                    "duration": 0.1302197500000002
                },
                {
                    "name": "B4",
                    "midi": 71,
                    "time": 14.58461200000001,
                    "velocity": 0.4881889763779528,
                    "duration": 0.1302197500000002
                },
                {
                    "name": "C4",
                    "midi": 60,
                    "time": 14.58461200000001,
                    "velocity": 0.30708661417322836,
                    "duration": 0.2604395000000004
                },
                {
                    "name": "F4",
                    "midi": 65,
                    "time": 14.71483175000001,
                    "velocity": 0.4330708661417323,
                    "duration": 0.1302197500000002
                },
                {
                    "name": "E4",
                    "midi": 64,
                    "time": 14.845051500000011,
                    "velocity": 0.5354330708661418,
                    "duration": 0.2604395000000004
                },
                {
                    "name": "C4",
                    "midi": 60,
                    "time": 14.845051500000011,
                    "velocity": 0.3543307086614173,
                    "duration": 0.2604395000000004
                },
                {
                    "name": "G4",
                    "midi": 67,
                    "time": 15.105491000000011,
                    "velocity": 0.4330708661417323,
                    "duration": 0.2604395000000004
                },
                {
                    "name": "C4",
                    "midi": 60,
                    "time": 15.105491000000011,
                    "velocity": 0.30708661417322836,
                    "duration": 0.2604395000000004
                },
                {
                    "name": "C5",
                    "midi": 72,
                    "time": 15.365930500000012,
                    "velocity": 0.49606299212598426,
                    "duration": 0.2604395000000004
                },
                {
                    "name": "C4",
                    "midi": 60,
                    "time": 15.365930500000012,
                    "velocity": 0.30708661417322836,
                    "duration": 0.2604395000000004
                },
                {
                    "name": "G4",
                    "midi": 67,
                    "time": 15.626370000000012,
                    "velocity": 0.33070866141732286,
                    "duration": 0.1302197500000002
                },
                {
                    "name": "C4",
                    "midi": 60,
                    "time": 15.626370000000012,
                    "velocity": 0.2204724409448819,
                    "duration": 0.5208789999999972
                },
                {
                    "name": "F4",
                    "midi": 65,
                    "time": 15.756589750000012,
                    "velocity": 0.30708661417322836,
                    "duration": 0.1302197500000002
                },
                {
                    "name": "E4",
                    "midi": 64,
                    "time": 15.886809500000012,
                    "velocity": 0.33070866141732286,
                    "duration": 0.1302197499999984
                },
                {
                    "name": "E4",
                    "midi": 64,
                    "time": 16.14724900000001,
                    "velocity": 0.30708661417322836,
                    "duration": 0.1302197499999984
                },
                {
                    "name": "E5",
                    "midi": 76,
                    "time": 16.407688500000006,
                    "velocity": 0.33070866141732286,
                    "duration": 0.1302197499999984
                },
                {
                    "name": "G3",
                    "midi": 55,
                    "time": 16.407688500000006,
                    "velocity": 0.2204724409448819,
                    "duration": 0.5208789999999937
                },
                {
                    "name": "C4",
                    "midi": 60,
                    "time": 16.407688500000006,
                    "velocity": 0.2204724409448819,
                    "duration": 0.5208789999999937
                },
                {
                    "name": "D5",
                    "midi": 74,
                    "time": 16.537908250000005,
                    "velocity": 0.30708661417322836,
                    "duration": 0.1302197499999984
                },
                {
                    "name": "C5",
                    "midi": 72,
                    "time": 16.668128000000003,
                    "velocity": 0.33070866141732286,
                    "duration": 0.1302197499999984
                },
                {
                    "name": "C5",
                    "midi": 72,
                    "time": 16.9285675,
                    "velocity": 0.30708661417322836,
                    "duration": 0.1302197499999984
                },
                {
                    "name": "F#4",
                    "midi": 66,
                    "time": 17.189006999999997,
                    "velocity": 0.49606299212598426,
                    "duration": 0.13021975000000197
                },
                {
                    "name": "D3",
                    "midi": 50,
                    "time": 17.189006999999997,
                    "velocity": 0.2992125984251969,
                    "duration": 0.2604395000000004
                },
                {
                    "name": "A3",
                    "midi": 57,
                    "time": 17.189006999999997,
                    "velocity": 0.3543307086614173,
                    "duration": 0.2604395000000004
                },
                {
                    "name": "G4",
                    "midi": 67,
                    "time": 17.31922675,
                    "velocity": 0.44881889763779526,
                    "duration": 0.1302197499999984
                },
                {
                    "name": "A4",
                    "midi": 69,
                    "time": 17.449446499999997,
                    "velocity": 0.49606299212598426,
                    "duration": 0.13021975000000197
                },
                {
                    "name": "D3",
                    "midi": 50,
                    "time": 17.449446499999997,
                    "velocity": 0.25984251968503935,
                    "duration": 0.2604395000000004
                },
                {
                    "name": "A3",
                    "midi": 57,
                    "time": 17.449446499999997,
                    "velocity": 0.30708661417322836,
                    "duration": 0.2604395000000004
                },
                {
                    "name": "B4",
                    "midi": 71,
                    "time": 17.57966625,
                    "velocity": 0.4330708661417323,
                    "duration": 0.1302197499999984
                },
                {
                    "name": "C5",
                    "midi": 72,
                    "time": 17.709885999999997,
                    "velocity": 0.4881889763779528,
                    "duration": 0.1302197499999984
                },
                {
                    "name": "D3",
                    "midi": 50,
                    "time": 17.709885999999997,
                    "velocity": 0.25984251968503935,
                    "duration": 0.2604394999999968
                },
                {
                    "name": "A3",
                    "midi": 57,
                    "time": 17.709885999999997,
                    "velocity": 0.30708661417322836,
                    "duration": 0.2604394999999968
                },
                {
                    "name": "A4",
                    "midi": 69,
                    "time": 17.840105749999996,
                    "velocity": 0.4330708661417323,
                    "duration": 0.1302197499999984
                },
                {
                    "name": "G4",
                    "midi": 67,
                    "time": 17.970325499999994,
                    "velocity": 0.49606299212598426,
                    "duration": 0.5208790000000008
                },
                {
                    "name": "G3",
                    "midi": 55,
                    "time": 17.970325499999994,
                    "velocity": 0.2992125984251969,
                    "duration": 0.2604395000000004
                },
                {
                    "name": "B3",
                    "midi": 59,
                    "time": 17.970325499999994,
                    "velocity": 0.3543307086614173,
                    "duration": 0.2604395000000004
                },
                {
                    "name": "G3",
                    "midi": 55,
                    "time": 18.230764999999995,
                    "velocity": 0.25984251968503935,
                    "duration": 0.2604395000000004
                },
                {
                    "name": "B3",
                    "midi": 59,
                    "time": 18.230764999999995,
                    "velocity": 0.30708661417322836,
                    "duration": 0.2604395000000004
                },
                {
                    "name": "B5",
                    "midi": 83,
                    "time": 18.491204499999995,
                    "velocity": 0.5039370078740157,
                    "duration": 0.1302197499999984
                },
                {
                    "name": "G3",
                    "midi": 55,
                    "time": 18.491204499999995,
                    "velocity": 0.25984251968503935,
                    "duration": 0.2604395000000004
                },
                {
                    "name": "B3",
                    "midi": 59,
                    "time": 18.491204499999995,
                    "velocity": 0.30708661417322836,
                    "duration": 0.2604395000000004
                },
                {
                    "name": "C6",
                    "midi": 84,
                    "time": 18.621424249999993,
                    "velocity": 0.5275590551181102,
                    "duration": 0.13021975000000197
                },
                {
                    "name": "D6",
                    "midi": 86,
                    "time": 18.751643999999995,
                    "velocity": 0.5590551181102362,
                    "duration": 0.13021975000000197
                },
                {
                    "name": "G3",
                    "midi": 55,
                    "time": 18.751643999999995,
                    "velocity": 0.2992125984251969,
                    "duration": 0.2604395000000004
                },
                {
                    "name": "B3",
                    "midi": 59,
                    "time": 18.751643999999995,
                    "velocity": 0.3543307086614173,
                    "duration": 0.2604395000000004
                },
                {
                    "name": "C6",
                    "midi": 84,
                    "time": 18.881863749999997,
                    "velocity": 0.5196850393700787,
                    "duration": 0.1302197499999984
                },
                {
                    "name": "B5",
                    "midi": 83,
                    "time": 19.012083499999996,
                    "velocity": 0.5354330708661418,
                    "duration": 0.1302197499999984
                },
                {
                    "name": "G3",
                    "midi": 55,
                    "time": 19.012083499999996,
                    "velocity": 0.25984251968503935,
                    "duration": 0.2604395000000004
                },
                {
                    "name": "B3",
                    "midi": 59,
                    "time": 19.012083499999996,
                    "velocity": 0.30708661417322836,
                    "duration": 0.2604395000000004
                },
                {
                    "name": "A5",
                    "midi": 81,
                    "time": 19.142303249999994,
                    "velocity": 0.49606299212598426,
                    "duration": 0.13021975000000197
                },
                {
                    "name": "G5",
                    "midi": 79,
                    "time": 19.272522999999996,
                    "velocity": 0.5118110236220472,
                    "duration": 0.13021975000000197
                },
                {
                    "name": "G3",
                    "midi": 55,
                    "time": 19.272522999999996,
                    "velocity": 0.25984251968503935,
                    "duration": 0.2604395000000004
                },
                {
                    "name": "B3",
                    "midi": 59,
                    "time": 19.272522999999996,
                    "velocity": 0.30708661417322836,
                    "duration": 0.2604395000000004
                },
                {
                    "name": "F#5",
                    "midi": 78,
                    "time": 19.402742749999998,
                    "velocity": 0.49606299212598426,
                    "duration": 0.1302197499999984
                },
                {
                    "name": "E5",
                    "midi": 76,
                    "time": 19.532962499999996,
                    "velocity": 0.49606299212598426,
                    "duration": 0.13021975000000197
                },
                {
                    "name": "G3",
                    "midi": 55,
                    "time": 19.532962499999996,
                    "velocity": 0.2992125984251969,
                    "duration": 0.2604395000000004
                },
                {
                    "name": "C4",
                    "midi": 60,
                    "time": 19.532962499999996,
                    "velocity": 0.3543307086614173,
                    "duration": 0.2604395000000004
                },
                {
                    "name": "D5",
                    "midi": 74,
                    "time": 19.66318225,
                    "velocity": 0.48031496062992124,
                    "duration": 0.1302197499999984
                },
                {
                    "name": "C5",
                    "midi": 72,
                    "time": 19.793401999999997,
                    "velocity": 0.49606299212598426,
                    "duration": 0.1302197499999984
                },
                {
                    "name": "G3",
                    "midi": 55,
                    "time": 19.793401999999997,
                    "velocity": 0.25984251968503935,
                    "duration": 0.2604394999999968
                },
                {
                    "name": "C4",
                    "midi": 60,
                    "time": 19.793401999999997,
                    "velocity": 0.30708661417322836,
                    "duration": 0.2604394999999968
                },
                {
                    "name": "B4",
                    "midi": 71,
                    "time": 19.923621749999995,
                    "velocity": 0.47244094488188976,
                    "duration": 0.1302197499999984
                },
                {
                    "name": "A4",
                    "midi": 69,
                    "time": 20.053841499999994,
                    "velocity": 0.49606299212598426,
                    "duration": 0.13021975000000552
                },
                {
                    "name": "G3",
                    "midi": 55,
                    "time": 20.053841499999994,
                    "velocity": 0.25984251968503935,
                    "duration": 0.26043950000000393
                },
                {
                    "name": "C4",
                    "midi": 60,
                    "time": 20.053841499999994,
                    "velocity": 0.30708661417322836,
                    "duration": 0.26043950000000393
                },
                {
                    "name": "G4",
                    "midi": 67,
                    "time": 20.18406125,
                    "velocity": 0.4881889763779528,
                    "duration": 0.1302197499999984
                },
                {
                    "name": "F#4",
                    "midi": 66,
                    "time": 20.314280999999998,
                    "velocity": 0.49606299212598426,
                    "duration": 0.1302197499999984
                },
                {
                    "name": "D3",
                    "midi": 50,
                    "time": 20.314280999999998,
                    "velocity": 0.2992125984251969,
                    "duration": 0.2604395000000004
                },
                {
                    "name": "A3",
                    "midi": 57,
                    "time": 20.314280999999998,
                    "velocity": 0.3543307086614173,
                    "duration": 0.2604395000000004
                },
                {
                    "name": "G4",
                    "midi": 67,
                    "time": 20.444500749999996,
                    "velocity": 0.44881889763779526,
                    "duration": 0.13021975000000197
                },
                {
                    "name": "A4",
                    "midi": 69,
                    "time": 20.574720499999998,
                    "velocity": 0.49606299212598426,
                    "duration": 0.1302197499999984
                },
                {
                    "name": "D3",
                    "midi": 50,
                    "time": 20.574720499999998,
                    "velocity": 0.25984251968503935,
                    "duration": 0.2604395000000004
                },
                {
                    "name": "A3",
                    "midi": 57,
                    "time": 20.574720499999998,
                    "velocity": 0.30708661417322836,
                    "duration": 0.2604395000000004
                },
                {
                    "name": "B4",
                    "midi": 71,
                    "time": 20.704940249999996,
                    "velocity": 0.4330708661417323,
                    "duration": 0.13021975000000197
                },
                {
                    "name": "C5",
                    "midi": 72,
                    "time": 20.83516,
                    "velocity": 0.4881889763779528,
                    "duration": 0.13021975000000197
                },
                {
                    "name": "D3",
                    "midi": 50,
                    "time": 20.83516,
                    "velocity": 0.25984251968503935,
                    "duration": 0.2604395000000004
                },
                {
                    "name": "A3",
                    "midi": 57,
                    "time": 20.83516,
                    "velocity": 0.30708661417322836,
                    "duration": 0.2604395000000004
                },
                {
                    "name": "A4",
                    "midi": 69,
                    "time": 20.96537975,
                    "velocity": 0.4330708661417323,
                    "duration": 0.1302197499999984
                },
                {
                    "name": "G4",
                    "midi": 67,
                    "time": 21.0955995,
                    "velocity": 0.49606299212598426,
                    "duration": 0.5208790000000008
                },
                {
                    "name": "G3",
                    "midi": 55,
                    "time": 21.0955995,
                    "velocity": 0.2992125984251969,
                    "duration": 0.2604395000000004
                },
                {
                    "name": "B3",
                    "midi": 59,
                    "time": 21.0955995,
                    "velocity": 0.3543307086614173,
                    "duration": 0.2604395000000004
                },
                {
                    "name": "G3",
                    "midi": 55,
                    "time": 21.356039,
                    "velocity": 0.25984251968503935,
                    "duration": 0.2604395000000004
                },
                {
                    "name": "B3",
                    "midi": 59,
                    "time": 21.356039,
                    "velocity": 0.30708661417322836,
                    "duration": 0.2604395000000004
                },
                {
                    "name": "B5",
                    "midi": 83,
                    "time": 21.6164785,
                    "velocity": 0.5039370078740157,
                    "duration": 0.1302197499999984
                },
                {
                    "name": "G3",
                    "midi": 55,
                    "time": 21.6164785,
                    "velocity": 0.25984251968503935,
                    "duration": 0.2604394999999968
                },
                {
                    "name": "B3",
                    "midi": 59,
                    "time": 21.6164785,
                    "velocity": 0.30708661417322836,
                    "duration": 0.2604394999999968
                },
                {
                    "name": "C6",
                    "midi": 84,
                    "time": 21.746698249999998,
                    "velocity": 0.5275590551181102,
                    "duration": 0.1302197499999984
                },
                {
                    "name": "D6",
                    "midi": 86,
                    "time": 21.876917999999996,
                    "velocity": 0.5590551181102362,
                    "duration": 0.1302197499999984
                },
                {
                    "name": "G3",
                    "midi": 55,
                    "time": 21.876917999999996,
                    "velocity": 0.2992125984251969,
                    "duration": 0.2604394999999968
                },
                {
                    "name": "B3",
                    "midi": 59,
                    "time": 21.876917999999996,
                    "velocity": 0.3543307086614173,
                    "duration": 0.2604394999999968
                },
                {
                    "name": "C6",
                    "midi": 84,
                    "time": 22.007137749999995,
                    "velocity": 0.5196850393700787,
                    "duration": 0.1302197499999984
                },
                {
                    "name": "B5",
                    "midi": 83,
                    "time": 22.137357499999993,
                    "velocity": 0.5354330708661418,
                    "duration": 0.13021975000000197
                },
                {
                    "name": "G3",
                    "midi": 55,
                    "time": 22.137357499999993,
                    "velocity": 0.25984251968503935,
                    "duration": 0.2604395000000004
                },
                {
                    "name": "B3",
                    "midi": 59,
                    "time": 22.137357499999993,
                    "velocity": 0.30708661417322836,
                    "duration": 0.2604395000000004
                },
                {
                    "name": "A5",
                    "midi": 81,
                    "time": 22.267577249999995,
                    "velocity": 0.49606299212598426,
                    "duration": 0.1302197499999984
                },
                {
                    "name": "G5",
                    "midi": 79,
                    "time": 22.397796999999994,
                    "velocity": 0.5118110236220472,
                    "duration": 0.13021975000000197
                },
                {
                    "name": "G3",
                    "midi": 55,
                    "time": 22.397796999999994,
                    "velocity": 0.25984251968503935,
                    "duration": 0.2604395000000004
                },
                {
                    "name": "B3",
                    "midi": 59,
                    "time": 22.397796999999994,
                    "velocity": 0.30708661417322836,
                    "duration": 0.2604395000000004
                },
                {
                    "name": "F#5",
                    "midi": 78,
                    "time": 22.528016749999995,
                    "velocity": 0.49606299212598426,
                    "duration": 0.1302197499999984
                },
                {
                    "name": "F5",
                    "midi": 77,
                    "time": 22.658236499999994,
                    "velocity": 0.49606299212598426,
                    "duration": 0.06510987500000098
                },
                {
                    "name": "G3",
                    "midi": 55,
                    "time": 22.658236499999994,
                    "velocity": 0.2992125984251969,
                    "duration": 0.13021975000000197
                },
                {
                    "name": "B3",
                    "midi": 59,
                    "time": 22.658236499999994,
                    "velocity": 0.3543307086614173,
                    "duration": 0.13021975000000197
                },
                {
                    "name": "F5",
                    "midi": 77,
                    "time": 22.918675999999994,
                    "velocity": 0.4645669291338583,
                    "duration": 0.06510987500000098
                },
                {
                    "name": "D6",
                    "midi": 86,
                    "time": 23.179115499999995,
                    "velocity": 0.4645669291338583,
                    "duration": 0.13021975000000197
                },
                {
                    "name": "B5",
                    "midi": 83,
                    "time": 23.309335249999997,
                    "velocity": 0.41732283464566927,
                    "duration": 0.1302197499999984
                },
                {
                    "name": "F5",
                    "midi": 77,
                    "time": 23.439554999999995,
                    "velocity": 0.49606299212598426,
                    "duration": 0.06510987500000098
                },
                {
                    "name": "G3",
                    "midi": 55,
                    "time": 23.439554999999995,
                    "velocity": 0.2992125984251969,
                    "duration": 0.13021975000000197
                },
                {
                    "name": "B3",
                    "midi": 59,
                    "time": 23.439554999999995,
                    "velocity": 0.3543307086614173,
                    "duration": 0.13021975000000197
                },
                {
                    "name": "F5",
                    "midi": 77,
                    "time": 23.699994499999995,
                    "velocity": 0.48031496062992124,
                    "duration": 0.06510987500000098
                },
                {
                    "name": "D6",
                    "midi": 86,
                    "time": 23.960433999999996,
                    "velocity": 0.4881889763779528,
                    "duration": 0.13021975000000197
                },
                {
                    "name": "B5",
                    "midi": 83,
                    "time": 24.090653749999998,
                    "velocity": 0.44881889763779526,
                    "duration": 0.1302197499999984
                },
                {
                    "name": "F5",
                    "midi": 77,
                    "time": 24.220873499999996,
                    "velocity": 0.49606299212598426,
                    "duration": 0.1302197499999984
                },
                {
                    "name": "G3",
                    "midi": 55,
                    "time": 24.220873499999996,
                    "velocity": 0.3228346456692913,
                    "duration": 0.2604394999999968
                },
                {
                    "name": "B3",
                    "midi": 59,
                    "time": 24.481312999999993,
                    "velocity": 0.2992125984251969,
                    "duration": 0.2604395000000004
                },
                {
                    "name": "D4",
                    "midi": 62,
                    "time": 24.741752499999993,
                    "velocity": 0.2677165354330709,
                    "duration": 0.2604395000000004
                },
                {
                    "name": "D5",
                    "midi": 74,
                    "time": 25.002191999999994,
                    "velocity": 0.3700787401574803,
                    "duration": 0.1302197499999984
                },
                {
                    "name": "G3",
                    "midi": 55,
                    "time": 25.002191999999994,
                    "velocity": 0.23622047244094488,
                    "duration": 0.2604394999999968
                },
                {
                    "name": "B3",
                    "midi": 59,
                    "time": 25.26263149999999,
                    "velocity": 0.2283464566929134,
                    "duration": 0.2604395000000004
                },
                {
                    "name": "D4",
                    "midi": 62,
                    "time": 25.52307099999999,
                    "velocity": 0.1889763779527559,
                    "duration": 0.2604395000000004
                },
                {
                    "name": "B4",
                    "midi": 71,
                    "time": 25.78351049999999,
                    "velocity": 0.3700787401574803,
                    "duration": 0.1302197499999984
                },
                {
                    "name": "G4",
                    "midi": 67,
                    "time": 25.91373024999999,
                    "velocity": 0.30708661417322836,
                    "duration": 0.13021975000000197
                },
                {
                    "name": "A4",
                    "midi": 69,
                    "time": 26.04394999999999,
                    "velocity": 0.31496062992125984,
                    "duration": 0.13021975000000552
                },
                {
                    "name": "B4",
                    "midi": 71,
                    "time": 26.174169749999997,
                    "velocity": 0.33070866141732286,
                    "duration": 0.13021975000000907
                },
                {
                    "name": "C5",
                    "midi": 72,
                    "time": 26.304389500000006,
                    "velocity": 0.3464566929133858,
                    "duration": 0.13021975000000552
                },
                {
                    "name": "D5",
                    "midi": 74,
                    "time": 26.434609250000012,
                    "velocity": 0.3543307086614173,
                    "duration": 0.1302197499999984
                },
                {
                    "name": "E5",
                    "midi": 76,
                    "time": 26.56482900000001,
                    "velocity": 0.29133858267716534,
                    "duration": 0.1302197499999984
                },
                {
                    "name": "C3",
                    "midi": 48,
                    "time": 26.56482900000001,
                    "velocity": 0.1968503937007874,
                    "duration": 0.2604394999999968
                },
                {
                    "name": "D5",
                    "midi": 74,
                    "time": 26.69504875000001,
                    "velocity": 0.2755905511811024,
                    "duration": 0.1302197499999984
                },
                {
                    "name": "C5",
                    "midi": 72,
                    "time": 26.825268500000007,
                    "velocity": 0.29133858267716534,
                    "duration": 0.06510987500000098
                },
                {
                    "name": "E3",
                    "midi": 52,
                    "time": 26.825268500000007,
                    "velocity": 0.16535433070866143,
                    "duration": 0.2604395000000004
                },
                {
                    "name": "C5",
                    "midi": 72,
                    "time": 27.085708000000007,
                    "velocity": 0.2755905511811024,
                    "duration": 0.06510987500000098
                },
                {
                    "name": "G3",
                    "midi": 55,
                    "time": 27.085708000000007,
                    "velocity": 0.16535433070866143,
                    "duration": 0.2604395000000004
                },
                {
                    "name": "G5",
                    "midi": 79,
                    "time": 27.346147500000008,
                    "velocity": 0.3700787401574803,
                    "duration": 0.5208790000000008
                },
                {
                    "name": "C3",
                    "midi": 48,
                    "time": 27.346147500000008,
                    "velocity": 0.1968503937007874,
                    "duration": 0.2604395000000004
                },
                {
                    "name": "E3",
                    "midi": 52,
                    "time": 27.606587000000008,
                    "velocity": 0.18110236220472442,
                    "duration": 0.2604395000000004
                },
                {
                    "name": "F5",
                    "midi": 77,
                    "time": 27.86702650000001,
                    "velocity": 0.29133858267716534,
                    "duration": 0.13021975000000197
                },
                {
                    "name": "G3",
                    "midi": 55,
                    "time": 27.86702650000001,
                    "velocity": 0.18110236220472442,
                    "duration": 0.2604395000000004
                },
                {
                    "name": "E5",
                    "midi": 76,
                    "time": 27.99724625000001,
                    "velocity": 0.2677165354330709,
                    "duration": 0.1302197499999984
                },
                {
                    "name": "D5",
                    "midi": 74,
                    "time": 28.12746600000001,
                    "velocity": 0.3228346456692913,
                    "duration": 0.2604395000000004
                },
                {
                    "name": "C3",
                    "midi": 48,
                    "time": 28.12746600000001,
                    "velocity": 0.1968503937007874,
                    "duration": 0.2604395000000004
                },
                {
                    "name": "F5",
                    "midi": 77,
                    "time": 28.38790550000001,
                    "velocity": 0.29133858267716534,
                    "duration": 0.2604395000000004
                },
                {
                    "name": "D3",
                    "midi": 50,
                    "time": 28.38790550000001,
                    "velocity": 0.15748031496062992,
                    "duration": 0.2604395000000004
                },
                {
                    "name": "B4",
                    "midi": 71,
                    "time": 28.64834500000001,
                    "velocity": 0.2755905511811024,
                    "duration": 0.2604395000000004
                },
                {
                    "name": "F3",
                    "midi": 53,
                    "time": 28.64834500000001,
                    "velocity": 0.15748031496062992,
                    "duration": 0.2604395000000004
                },
                {
                    "name": "C5",
                    "midi": 72,
                    "time": 28.90878450000001,
                    "velocity": 0.31496062992125984,
                    "duration": 0.2604395000000004
                },
                {
                    "name": "C3",
                    "midi": 48,
                    "time": 28.90878450000001,
                    "velocity": 0.1968503937007874,
                    "duration": 0.2604395000000004
                },
                {
                    "name": "G4",
                    "midi": 67,
                    "time": 29.16922400000001,
                    "velocity": 0.29133858267716534,
                    "duration": 0.13021975000000197
                },
                {
                    "name": "E3",
                    "midi": 52,
                    "time": 29.16922400000001,
                    "velocity": 0.18110236220472442,
                    "duration": 0.2604395000000004
                },
                {
                    "name": "G4",
                    "midi": 67,
                    "time": 29.42966350000001,
                    "velocity": 0.29133858267716534,
                    "duration": 0.1302197499999984
                },
                {
                    "name": "G3",
                    "midi": 55,
                    "time": 29.42966350000001,
                    "velocity": 0.18110236220472442,
                    "duration": 0.2604394999999968
                },
                {
                    "name": "E5",
                    "midi": 76,
                    "time": 29.690103000000008,
                    "velocity": 0.29133858267716534,
                    "duration": 0.1302197499999984
                },
                {
                    "name": "C3",
                    "midi": 48,
                    "time": 29.690103000000008,
                    "velocity": 0.1968503937007874,
                    "duration": 0.2604394999999968
                },
                {
                    "name": "D5",
                    "midi": 74,
                    "time": 29.820322750000006,
                    "velocity": 0.2755905511811024,
                    "duration": 0.1302197499999984
                },
                {
                    "name": "C5",
                    "midi": 72,
                    "time": 29.950542500000005,
                    "velocity": 0.29133858267716534,
                    "duration": 0.06510987500000098
                },
                {
                    "name": "E3",
                    "midi": 52,
                    "time": 29.950542500000005,
                    "velocity": 0.16535433070866143,
                    "duration": 0.2604395000000004
                },
                {
                    "name": "C5",
                    "midi": 72,
                    "time": 30.210982000000005,
                    "velocity": 0.2755905511811024,
                    "duration": 0.06510987500000098
                },
                {
                    "name": "G3",
                    "midi": 55,
                    "time": 30.210982000000005,
                    "velocity": 0.16535433070866143,
                    "duration": 0.2604395000000004
                },
                {
                    "name": "G5",
                    "midi": 79,
                    "time": 30.471421500000005,
                    "velocity": 0.3700787401574803,
                    "duration": 0.5208790000000008
                },
                {
                    "name": "C3",
                    "midi": 48,
                    "time": 30.471421500000005,
                    "velocity": 0.1968503937007874,
                    "duration": 0.2604395000000004
                },
                {
                    "name": "E3",
                    "midi": 52,
                    "time": 30.731861000000006,
                    "velocity": 0.18110236220472442,
                    "duration": 0.2604395000000004
                },
                {
                    "name": "F5",
                    "midi": 77,
                    "time": 30.992300500000006,
                    "velocity": 0.29133858267716534,
                    "duration": 0.13021975000000197
                },
                {
                    "name": "G3",
                    "midi": 55,
                    "time": 30.992300500000006,
                    "velocity": 0.18110236220472442,
                    "duration": 0.2604395000000004
                },
                {
                    "name": "E5",
                    "midi": 76,
                    "time": 31.122520250000008,
                    "velocity": 0.2677165354330709,
                    "duration": 0.1302197499999984
                },
                {
                    "name": "D5",
                    "midi": 74,
                    "time": 31.252740000000006,
                    "velocity": 0.3228346456692913,
                    "duration": 0.13021975000000197
                },
                {
                    "name": "G2",
                    "midi": 43,
                    "time": 31.252740000000006,
                    "velocity": 0.1968503937007874,
                    "duration": 0.2604395000000004
                },
                {
                    "name": "E5",
                    "midi": 76,
                    "time": 31.38295975000001,
                    "velocity": 0.28346456692913385,
                    "duration": 0.1302197499999984
                },
                {
                    "name": "F5",
                    "midi": 77,
                    "time": 31.513179500000007,
                    "velocity": 0.31496062992125984,
                    "duration": 0.13021975000000197
                },
                {
                    "name": "D3",
                    "midi": 50,
                    "time": 31.513179500000007,
                    "velocity": 0.15748031496062992,
                    "duration": 0.2604395000000004
                },
                {
                    "name": "E5",
                    "midi": 76,
                    "time": 31.64339925000001,
                    "velocity": 0.2755905511811024,
                    "duration": 0.1302197499999984
                },
                {
                    "name": "F5",
                    "midi": 77,
                    "time": 31.773619000000007,
                    "velocity": 0.2755905511811024,
                    "duration": 0.13021975000000197
                },
                {
                    "name": "G3",
                    "midi": 55,
                    "time": 31.773619000000007,
                    "velocity": 0.15748031496062992,
                    "duration": 0.2604395000000004
                },
                {
                    "name": "D5",
                    "midi": 74,
                    "time": 31.90383875000001,
                    "velocity": 0.25196850393700787,
                    "duration": 0.1302197499999984
                },
                {
                    "name": "C5",
                    "midi": 72,
                    "time": 32.03405850000001,
                    "velocity": 0.31496062992125984,
                    "duration": 0.2604394999999968
                },
                {
                    "name": "C3",
                    "midi": 48,
                    "time": 32.03405850000001,
                    "velocity": 0.1968503937007874,
                    "duration": 0.2604394999999968
                },
                {
                    "name": "E3",
                    "midi": 52,
                    "time": 32.294498000000004,
                    "velocity": 0.15748031496062992,
                    "duration": 0.26043950000000393
                },
                {
                    "name": "G3",
                    "midi": 55,
                    "time": 32.55493750000001,
                    "velocity": 0.15748031496062992,
                    "duration": 0.2604394999999968
                },
                {
                    "name": "E5",
                    "midi": 76,
                    "time": 32.815377000000005,
                    "velocity": 0.5275590551181102,
                    "duration": 0.13021975000000197
                },
                {
                    "name": "C3",
                    "midi": 48,
                    "time": 32.815377000000005,
                    "velocity": 0.3543307086614173,
                    "duration": 0.26043950000000393
                },
                {
                    "name": "D5",
                    "midi": 74,
                    "time": 32.94559675000001,
                    "velocity": 0.4881889763779528,
                    "duration": 0.13021975000000197
                },
                {
                    "name": "C5",
                    "midi": 72,
                    "time": 33.07581650000001,
                    "velocity": 0.5275590551181102,
                    "duration": 0.06510987499999743
                },
                {
                    "name": "E3",
                    "midi": 52,
                    "time": 33.07581650000001,
                    "velocity": 0.30708661417322836,
                    "duration": 0.2604394999999968
                },
                {
                    "name": "C5",
                    "midi": 72,
                    "time": 33.336256000000006,
                    "velocity": 0.49606299212598426,
                    "duration": 0.06510987499999743
                },
                {
                    "name": "G3",
                    "midi": 55,
                    "time": 33.336256000000006,
                    "velocity": 0.30708661417322836,
                    "duration": 0.2604394999999968
                },
                {
                    "name": "G5",
                    "midi": 79,
                    "time": 33.5966955,
                    "velocity": 0.6141732283464567,
                    "duration": 0.5208790000000008
                },
                {
                    "name": "C3",
                    "midi": 48,
                    "time": 33.5966955,
                    "velocity": 0.3543307086614173,
                    "duration": 0.26043950000000393
                },
                {
                    "name": "E3",
                    "midi": 52,
                    "time": 33.85713500000001,
                    "velocity": 0.3228346456692913,
                    "duration": 0.2604394999999968
                },
                {
                    "name": "F5",
                    "midi": 77,
                    "time": 34.1175745,
                    "velocity": 0.5275590551181102,
                    "duration": 0.13021975000000197
                },
                {
                    "name": "G3",
                    "midi": 55,
                    "time": 34.1175745,
                    "velocity": 0.3228346456692913,
                    "duration": 0.26043950000000393
                },
                {
                    "name": "E5",
                    "midi": 76,
                    "time": 34.247794250000005,
                    "velocity": 0.47244094488188976,
                    "duration": 0.13021975000000197
                },
                {
                    "name": "D5",
                    "midi": 74,
                    "time": 34.37801400000001,
                    "velocity": 0.5826771653543307,
                    "duration": 0.2604394999999968
                },
                {
                    "name": "C3",
                    "midi": 48,
                    "time": 34.37801400000001,
                    "velocity": 0.3543307086614173,
                    "duration": 0.2604394999999968
                },
                {
                    "name": "F5",
                    "midi": 77,
                    "time": 34.638453500000004,
                    "velocity": 0.5275590551181102,
                    "duration": 0.2604394999999968
                },
                {
                    "name": "D3",
                    "midi": 50,
                    "time": 34.638453500000004,
                    "velocity": 0.2992125984251969,
                    "duration": 0.2604394999999968
                },
                {
                    "name": "B4",
                    "midi": 71,
                    "time": 34.898893,
                    "velocity": 0.49606299212598426,
                    "duration": 0.2604394999999968
                },
                {
                    "name": "F3",
                    "midi": 53,
                    "time": 34.898893,
                    "velocity": 0.2992125984251969,
                    "duration": 0.2604394999999968
                },
                {
                    "name": "C5",
                    "midi": 72,
                    "time": 35.1593325,
                    "velocity": 0.5590551181102362,
                    "duration": 0.26043950000000393
                },
                {
                    "name": "C3",
                    "midi": 48,
                    "time": 35.1593325,
                    "velocity": 0.3543307086614173,
                    "duration": 0.26043950000000393
                },
                {
                    "name": "G4",
                    "midi": 67,
                    "time": 35.419772,
                    "velocity": 0.5275590551181102,
                    "duration": 0.13021975000000197
                },
                {
                    "name": "E3",
                    "midi": 52,
                    "time": 35.419772,
                    "velocity": 0.3228346456692913,
                    "duration": 0.26043950000000393
                },
                {
                    "name": "G4",
                    "midi": 67,
                    "time": 35.680211500000006,
                    "velocity": 0.5275590551181102,
                    "duration": 0.13021975000000197
                },
                {
                    "name": "G3",
                    "midi": 55,
                    "time": 35.680211500000006,
                    "velocity": 0.3228346456692913,
                    "duration": 0.26043950000000393
                },
                {
                    "name": "E5",
                    "midi": 76,
                    "time": 35.94065100000001,
                    "velocity": 0.5275590551181102,
                    "duration": 0.13021975000000197
                },
                {
                    "name": "C3",
                    "midi": 48,
                    "time": 35.94065100000001,
                    "velocity": 0.3543307086614173,
                    "duration": 0.26043950000000393
                },
                {
                    "name": "D5",
                    "midi": 74,
                    "time": 36.07087075000001,
                    "velocity": 0.4881889763779528,
                    "duration": 0.13021975000000197
                },
                {
                    "name": "C5",
                    "midi": 72,
                    "time": 36.201090500000014,
                    "velocity": 0.5275590551181102,
                    "duration": 0.06510987499999743
                },
                {
                    "name": "E3",
                    "midi": 52,
                    "time": 36.201090500000014,
                    "velocity": 0.30708661417322836,
                    "duration": 0.2604394999999968
                },
                {
                    "name": "C5",
                    "midi": 72,
                    "time": 36.46153000000001,
                    "velocity": 0.49606299212598426,
                    "duration": 0.06510987499999743
                },
                {
                    "name": "G3",
                    "midi": 55,
                    "time": 36.46153000000001,
                    "velocity": 0.30708661417322836,
                    "duration": 0.2604394999999968
                },
                {
                    "name": "G5",
                    "midi": 79,
                    "time": 36.72196950000001,
                    "velocity": 0.6141732283464567,
                    "duration": 0.5208790000000008
                },
                {
                    "name": "C3",
                    "midi": 48,
                    "time": 36.72196950000001,
                    "velocity": 0.3543307086614173,
                    "duration": 0.26043950000000393
                },
                {
                    "name": "E3",
                    "midi": 52,
                    "time": 36.98240900000001,
                    "velocity": 0.3228346456692913,
                    "duration": 0.2604394999999968
                },
                {
                    "name": "F5",
                    "midi": 77,
                    "time": 37.24284850000001,
                    "velocity": 0.5275590551181102,
                    "duration": 0.13021975000000197
                },
                {
                    "name": "G3",
                    "midi": 55,
                    "time": 37.24284850000001,
                    "velocity": 0.3228346456692913,
                    "duration": 0.26043950000000393
                },
                {
                    "name": "E5",
                    "midi": 76,
                    "time": 37.37306825000001,
                    "velocity": 0.47244094488188976,
                    "duration": 0.13021975000000197
                },
                {
                    "name": "D5",
                    "midi": 74,
                    "time": 37.50328800000001,
                    "velocity": 0.5826771653543307,
                    "duration": 0.13021975000000197
                },
                {
                    "name": "G2",
                    "midi": 43,
                    "time": 37.50328800000001,
                    "velocity": 0.3543307086614173,
                    "duration": 0.26043950000000393
                },
                {
                    "name": "E5",
                    "midi": 76,
                    "time": 37.633507750000014,
                    "velocity": 0.5039370078740157,
                    "duration": 0.13021975000000197
                },
                {
                    "name": "F5",
                    "midi": 77,
                    "time": 37.763727500000016,
                    "velocity": 0.5590551181102362,
                    "duration": 0.13021974999999486
                },
                {
                    "name": "D3",
                    "midi": 50,
                    "time": 37.763727500000016,
                    "velocity": 0.2992125984251969,
                    "duration": 0.2604394999999968
                },
                {
                    "name": "E5",
                    "midi": 76,
                    "time": 37.89394725000001,
                    "velocity": 0.49606299212598426,
                    "duration": 0.13021975000000197
                },
                {
                    "name": "F5",
                    "midi": 77,
                    "time": 38.02416700000001,
                    "velocity": 0.49606299212598426,
                    "duration": 0.13021975000000197
                },
                {
                    "name": "G3",
                    "midi": 55,
                    "time": 38.02416700000001,
                    "velocity": 0.2992125984251969,
                    "duration": 0.26043950000000393
                },
                {
                    "name": "D5",
                    "midi": 74,
                    "time": 38.154386750000015,
                    "velocity": 0.4566929133858268,
                    "duration": 0.13021975000000197
                },
                {
                    "name": "C5",
                    "midi": 72,
                    "time": 38.28460650000002,
                    "velocity": 0.5590551181102362,
                    "duration": 0.2604394999999968
                },
                {
                    "name": "C3",
                    "midi": 48,
                    "time": 38.28460650000002,
                    "velocity": 0.3543307086614173,
                    "duration": 0.2604394999999968
                },
                {
                    "name": "E3",
                    "midi": 52,
                    "time": 38.54504600000001,
                    "velocity": 0.2992125984251969,
                    "duration": 0.26043950000000393
                },
                {
                    "name": "G3",
                    "midi": 55,
                    "time": 38.80548550000002,
                    "velocity": 0.2992125984251969,
                    "duration": 0.2604394999999968
                },
                {
                    "name": "G4",
                    "midi": 67,
                    "time": 39.065925000000014,
                    "velocity": 0.33070866141732286,
                    "duration": 0.13021975000000197
                },
                {
                    "name": "C4",
                    "midi": 60,
                    "time": 39.065925000000014,
                    "velocity": 0.2204724409448819,
                    "duration": 0.5208790000000079
                },
                {
                    "name": "F4",
                    "midi": 65,
                    "time": 39.196144750000016,
                    "velocity": 0.30708661417322836,
                    "duration": 0.13021975000000197
                },
                {
                    "name": "E4",
                    "midi": 64,
                    "time": 39.32636450000002,
                    "velocity": 0.33070866141732286,
                    "duration": 0.13021975000000197
                },
                {
                    "name": "E4",
                    "midi": 64,
                    "time": 39.58680400000002,
                    "velocity": 0.30708661417322836,
                    "duration": 0.13021975000000197
                },
                {
                    "name": "A4",
                    "midi": 69,
                    "time": 39.847243500000026,
                    "velocity": 0.33070866141732286,
                    "duration": 0.13021975000000197
                },
                {
                    "name": "C4",
                    "midi": 60,
                    "time": 39.847243500000026,
                    "velocity": 0.2204724409448819,
                    "duration": 0.5208790000000079
                },
                {
                    "name": "G4",
                    "midi": 67,
                    "time": 39.97746325000003,
                    "velocity": 0.30708661417322836,
                    "duration": 0.13021975000000197
                },
                {
                    "name": "F4",
                    "midi": 65,
                    "time": 40.10768300000003,
                    "velocity": 0.33070866141732286,
                    "duration": 0.13021975000000197
                },
                {
                    "name": "F4",
                    "midi": 65,
                    "time": 40.368122500000034,
                    "velocity": 0.30708661417322836,
                    "duration": 0.13021975000000197
                },
                {
                    "name": "D4",
                    "midi": 62,
                    "time": 40.62856200000004,
                    "velocity": 0.49606299212598426,
                    "duration": 0.13021975000000197
                },
                {
                    "name": "C4",
                    "midi": 60,
                    "time": 40.62856200000004,
                    "velocity": 0.3543307086614173,
                    "duration": 0.26043950000000393
                },
                {
                    "name": "F4",
                    "midi": 65,
                    "time": 40.75878175000004,
                    "velocity": 0.44881889763779526,
                    "duration": 0.13021975000000197
                },
                {
                    "name": "B4",
                    "midi": 71,
                    "time": 40.88900150000004,
                    "velocity": 0.49606299212598426,
                    "duration": 0.13021975000000197
                },
                {
                    "name": "C4",
                    "midi": 60,
                    "time": 40.88900150000004,
                    "velocity": 0.30708661417322836,
                    "duration": 0.26043950000000393
                },
                {
                    "name": "F4",
                    "midi": 65,
                    "time": 41.019221250000044,
                    "velocity": 0.4330708661417323,
                    "duration": 0.13021975000000197
                },
                {
                    "name": "B4",
                    "midi": 71,
                    "time": 41.149441000000046,
                    "velocity": 0.4881889763779528,
                    "duration": 0.13021975000000197
                },
                {
                    "name": "C4",
                    "midi": 60,
                    "time": 41.149441000000046,
                    "velocity": 0.30708661417322836,
                    "duration": 0.26043950000000393
                },
                {
                    "name": "F4",
                    "midi": 65,
                    "time": 41.27966075000005,
                    "velocity": 0.4330708661417323,
                    "duration": 0.13021975000000197
                },
                {
                    "name": "E4",
                    "midi": 64,
                    "time": 41.40988050000005,
                    "velocity": 0.49606299212598426,
                    "duration": 0.26043950000000393
                },
                {
                    "name": "C4",
                    "midi": 60,
                    "time": 41.40988050000005,
                    "velocity": 0.3543307086614173,
                    "duration": 0.26043950000000393
                },
                {
                    "name": "G3",
                    "midi": 55,
                    "time": 41.67032000000005,
                    "velocity": 0.30708661417322836,
                    "duration": 0.2604394999999968
                },
                {
                    "name": "E5",
                    "midi": 76,
                    "time": 41.93075950000005,
                    "velocity": 0.5039370078740157,
                    "duration": 0.13021975000000197
                },
                {
                    "name": "E3",
                    "midi": 52,
                    "time": 41.93075950000005,
                    "velocity": 0.30708661417322836,
                    "duration": 0.26043950000000393
                },
                {
                    "name": "F5",
                    "midi": 77,
                    "time": 42.06097925000005,
                    "velocity": 0.5275590551181102,
                    "duration": 0.13021975000000197
                },
                {
                    "name": "G5",
                    "midi": 79,
                    "time": 42.191199000000054,
                    "velocity": 0.5590551181102362,
                    "duration": 0.13021974999999486
                },
                {
                    "name": "C3",
                    "midi": 48,
                    "time": 42.191199000000054,
                    "velocity": 0.3543307086614173,
                    "duration": 0.2604394999999897
                },
                {
                    "name": "F5",
                    "midi": 77,
                    "time": 42.32141875000005,
                    "velocity": 0.5196850393700787,
                    "duration": 0.13021974999999486
                },
                {
                    "name": "E5",
                    "midi": 76,
                    "time": 42.451638500000044,
                    "velocity": 0.5354330708661418,
                    "duration": 0.13021974999999486
                },
                {
                    "name": "D3",
                    "midi": 50,
                    "time": 42.451638500000044,
                    "velocity": 0.30708661417322836,
                    "duration": 0.2604394999999968
                },
                {
                    "name": "D5",
                    "midi": 74,
                    "time": 42.58185825000004,
                    "velocity": 0.49606299212598426,
                    "duration": 0.13021975000000197
                },
                {
                    "name": "C5",
                    "midi": 72,
                    "time": 42.71207800000004,
                    "velocity": 0.5118110236220472,
                    "duration": 0.13021974999999486
                },
                {
                    "name": "E3",
                    "midi": 52,
                    "time": 42.71207800000004,
                    "velocity": 0.30708661417322836,
                    "duration": 0.2604394999999897
                },
                {
                    "name": "B4",
                    "midi": 71,
                    "time": 42.842297750000036,
                    "velocity": 0.49606299212598426,
                    "duration": 0.13021974999999486
                },
                {
                    "name": "A4",
                    "midi": 69,
                    "time": 42.97251750000003,
                    "velocity": 0.49606299212598426,
                    "duration": 0.14324172500000287
                },
                {
                    "name": "F3",
                    "midi": 53,
                    "time": 42.97251750000003,
                    "velocity": 0.3543307086614173,
                    "duration": 0.5208790000000008
                },
                {
                    "name": "G4",
                    "midi": 67,
                    "time": 43.10273725000003,
                    "velocity": 0.48031496062992124,
                    "duration": 0.14324172500000287
                },
                {
                    "name": "F4",
                    "midi": 65,
                    "time": 43.232957000000034,
                    "velocity": 0.49606299212598426,
                    "duration": 0.14324172499999577
                },
                {
                    "name": "E4",
                    "midi": 64,
                    "time": 43.36317675000003,
                    "velocity": 0.47244094488188976,
                    "duration": 0.14324172500000287
                },
                {
                    "name": "D4",
                    "midi": 62,
                    "time": 43.49339650000003,
                    "velocity": 0.49606299212598426,
                    "duration": 0.14324172500000287
                },
                {
                    "name": "C4",
                    "midi": 60,
                    "time": 43.62361625000003,
                    "velocity": 0.4881889763779528,
                    "duration": 0.14324172500000287
                },
                {
                    "name": "B3",
                    "midi": 59,
                    "time": 43.753836000000035,
                    "velocity": 0.49606299212598426,
                    "duration": 0.14324172499999577
                },
                {
                    "name": "G2",
                    "midi": 43,
                    "time": 43.753836000000035,
                    "velocity": 0.3543307086614173,
                    "duration": 0.5208789999999794
                },
                {
                    "name": "C4",
                    "midi": 60,
                    "time": 43.88405575000003,
                    "velocity": 0.44881889763779526,
                    "duration": 0.14324172500000287
                },
                {
                    "name": "D4",
                    "midi": 62,
                    "time": 44.01427550000003,
                    "velocity": 0.49606299212598426,
                    "duration": 0.14324172499998866
                },
                {
                    "name": "E4",
                    "midi": 64,
                    "time": 44.14449525000003,
                    "velocity": 0.4330708661417323,
                    "duration": 0.14324172499998866
                },
                {
                    "name": "F4",
                    "midi": 65,
                    "time": 44.274715000000015,
                    "velocity": 0.4881889763779528,
                    "duration": 0.14324172499998866
                },
                {
                    "name": "D4",
                    "midi": 62,
                    "time": 44.40493475,
                    "velocity": 0.4330708661417323,
                    "duration": 0.14324172499999577
                },
                {
                    "name": "C4",
                    "midi": 60,
                    "time": 44.5351545,
                    "velocity": 0.5590551181102362,
                    "duration": 0.26043950000000393
                },
                {
                    "name": "C3",
                    "midi": 48,
                    "time": 44.5351545,
                    "velocity": 0.3543307086614173,
                    "duration": 0.26043950000000393
                },
                {
                    "name": "E3",
                    "midi": 52,
                    "time": 44.795594,
                    "velocity": 0.2992125984251969,
                    "duration": 0.26043950000000393
                },
                {
                    "name": "G3",
                    "midi": 55,
                    "time": 45.056033500000005,
                    "velocity": 0.2992125984251969,
                    "duration": 0.2604394999999968
                },
                {
                    "name": "G4",
                    "midi": 67,
                    "time": 45.316473,
                    "velocity": 0.33070866141732286,
                    "duration": 0.13021975000000197
                },
                {
                    "name": "C4",
                    "midi": 60,
                    "time": 45.316473,
                    "velocity": 0.2204724409448819,
                    "duration": 0.5208790000000079
                },
                {
                    "name": "F4",
                    "midi": 65,
                    "time": 45.446692750000004,
                    "velocity": 0.30708661417322836,
                    "duration": 0.13021975000000197
                },
                {
                    "name": "E4",
                    "midi": 64,
                    "time": 45.576912500000006,
                    "velocity": 0.33070866141732286,
                    "duration": 0.13021975000000197
                },
                {
                    "name": "E4",
                    "midi": 64,
                    "time": 45.83735200000001,
                    "velocity": 0.30708661417322836,
                    "duration": 0.13021975000000197
                },
                {
                    "name": "A4",
                    "midi": 69,
                    "time": 46.097791500000014,
                    "velocity": 0.33070866141732286,
                    "duration": 0.13021975000000197
                },
                {
                    "name": "C4",
                    "midi": 60,
                    "time": 46.097791500000014,
                    "velocity": 0.2204724409448819,
                    "duration": 0.5208790000000079
                },
                {
                    "name": "G4",
                    "midi": 67,
                    "time": 46.228011250000016,
                    "velocity": 0.30708661417322836,
                    "duration": 0.13021975000000197
                },
                {
                    "name": "F4",
                    "midi": 65,
                    "time": 46.35823100000002,
                    "velocity": 0.33070866141732286,
                    "duration": 0.13021975000000197
                },
                {
                    "name": "F4",
                    "midi": 65,
                    "time": 46.61867050000002,
                    "velocity": 0.30708661417322836,
                    "duration": 0.13021975000000197
                },
                {
                    "name": "D4",
                    "midi": 62,
                    "time": 46.879110000000026,
                    "velocity": 0.49606299212598426,
                    "duration": 0.13021975000000197
                },
                {
                    "name": "C4",
                    "midi": 60,
                    "time": 46.879110000000026,
                    "velocity": 0.3543307086614173,
                    "duration": 0.26043950000000393
                },
                {
                    "name": "F4",
                    "midi": 65,
                    "time": 47.00932975000003,
                    "velocity": 0.44881889763779526,
                    "duration": 0.13021975000000197
                },
                {
                    "name": "B4",
                    "midi": 71,
                    "time": 47.13954950000003,
                    "velocity": 0.49606299212598426,
                    "duration": 0.13021975000000197
                },
                {
                    "name": "C4",
                    "midi": 60,
                    "time": 47.13954950000003,
                    "velocity": 0.30708661417322836,
                    "duration": 0.26043950000000393
                },
                {
                    "name": "F4",
                    "midi": 65,
                    "time": 47.26976925000003,
                    "velocity": 0.4330708661417323,
                    "duration": 0.13021975000000197
                },
                {
                    "name": "B4",
                    "midi": 71,
                    "time": 47.39998900000003,
                    "velocity": 0.4881889763779528,
                    "duration": 0.13021975000000197
                },
                {
                    "name": "C4",
                    "midi": 60,
                    "time": 47.39998900000003,
                    "velocity": 0.30708661417322836,
                    "duration": 0.26043950000000393
                },
                {
                    "name": "F4",
                    "midi": 65,
                    "time": 47.530208750000035,
                    "velocity": 0.4330708661417323,
                    "duration": 0.13021975000000197
                },
                {
                    "name": "E4",
                    "midi": 64,
                    "time": 47.66042850000004,
                    "velocity": 0.49606299212598426,
                    "duration": 0.26043950000000393
                },
                {
                    "name": "C4",
                    "midi": 60,
                    "time": 47.66042850000004,
                    "velocity": 0.3543307086614173,
                    "duration": 0.26043950000000393
                },
                {
                    "name": "G3",
                    "midi": 55,
                    "time": 47.92086800000004,
                    "velocity": 0.30708661417322836,
                    "duration": 0.26043950000000393
                },
                {
                    "name": "E5",
                    "midi": 76,
                    "time": 48.181307500000045,
                    "velocity": 0.5039370078740157,
                    "duration": 0.13021974999999486
                },
                {
                    "name": "E3",
                    "midi": 52,
                    "time": 48.181307500000045,
                    "velocity": 0.30708661417322836,
                    "duration": 0.2604394999999968
                },
                {
                    "name": "F5",
                    "midi": 77,
                    "time": 48.31152725000004,
                    "velocity": 0.5275590551181102,
                    "duration": 0.13021975000000197
                },
                {
                    "name": "G5",
                    "midi": 79,
                    "time": 48.44174700000004,
                    "velocity": 0.5590551181102362,
                    "duration": 0.13021974999999486
                },
                {
                    "name": "C3",
                    "midi": 48,
                    "time": 48.44174700000004,
                    "velocity": 0.3543307086614173,
                    "duration": 0.2604394999999968
                },
                {
                    "name": "F5",
                    "midi": 77,
                    "time": 48.57196675000004,
                    "velocity": 0.5196850393700787,
                    "duration": 0.13021975000000197
                },
                {
                    "name": "E5",
                    "midi": 76,
                    "time": 48.70218650000004,
                    "velocity": 0.5354330708661418,
                    "duration": 0.13021975000000197
                },
                {
                    "name": "D3",
                    "midi": 50,
                    "time": 48.70218650000004,
                    "velocity": 0.30708661417322836,
                    "duration": 0.26043950000000393
                },
                {
                    "name": "D5",
                    "midi": 74,
                    "time": 48.83240625000004,
                    "velocity": 0.49606299212598426,
                    "duration": 0.13021975000000197
                },
                {
                    "name": "C5",
                    "midi": 72,
                    "time": 48.96262600000004,
                    "velocity": 0.5118110236220472,
                    "duration": 0.13021974999999486
                },
                {
                    "name": "E3",
                    "midi": 52,
                    "time": 48.96262600000004,
                    "velocity": 0.30708661417322836,
                    "duration": 0.2604394999999968
                },
                {
                    "name": "B4",
                    "midi": 71,
                    "time": 49.09284575000004,
                    "velocity": 0.49606299212598426,
                    "duration": 0.13021975000000197
                },
                {
                    "name": "A4",
                    "midi": 69,
                    "time": 49.22306550000004,
                    "velocity": 0.49606299212598426,
                    "duration": 0.13021975000000197
                },
                {
                    "name": "F3",
                    "midi": 53,
                    "time": 49.22306550000004,
                    "velocity": 0.3700787401574803,
                    "duration": 0.26043950000000393
                },
                {
                    "name": "G4",
                    "midi": 67,
                    "time": 49.35328525000004,
                    "velocity": 0.48031496062992124,
                    "duration": 0.13021975000000197
                },
                {
                    "name": "F4",
                    "midi": 65,
                    "time": 49.483505000000044,
                    "velocity": 0.49606299212598426,
                    "duration": 0.13021975000000197
                },
                {
                    "name": "F3",
                    "midi": 53,
                    "time": 49.483505000000044,
                    "velocity": 0.30708661417322836,
                    "duration": 0.26043950000000393
                },
                {
                    "name": "E4",
                    "midi": 64,
                    "time": 49.613724750000046,
                    "velocity": 0.47244094488188976,
                    "duration": 0.13021975000000197
                },
                {
                    "name": "D4",
                    "midi": 62,
                    "time": 49.74394450000005,
                    "velocity": 0.49606299212598426,
                    "duration": 0.13021975000000197
                },
                {
                    "name": "F3",
                    "midi": 53,
                    "time": 49.74394450000005,
                    "velocity": 0.30708661417322836,
                    "duration": 0.26043950000000393
                },
                {
                    "name": "C4",
                    "midi": 60,
                    "time": 49.87416425000005,
                    "velocity": 0.4881889763779528,
                    "duration": 0.13021975000000197
                },
                {
                    "name": "B3",
                    "midi": 59,
                    "time": 50.00438400000005,
                    "velocity": 0.49606299212598426,
                    "duration": 0.13021974999999486
                },
                {
                    "name": "G2",
                    "midi": 43,
                    "time": 50.00438400000005,
                    "velocity": 0.3779527559055118,
                    "duration": 0.2604394999999968
                },
                {
                    "name": "C4",
                    "midi": 60,
                    "time": 50.134603750000046,
                    "velocity": 0.44881889763779526,
                    "duration": 0.13021975000000197
                },
                {
                    "name": "D4",
                    "midi": 62,
                    "time": 50.26482350000005,
                    "velocity": 0.49606299212598426,
                    "duration": 0.13021975000000197
                },
                {
                    "name": "G2",
                    "midi": 43,
                    "time": 50.26482350000005,
                    "velocity": 0.3228346456692913,
                    "duration": 0.26043950000000393
                },
                {
                    "name": "E4",
                    "midi": 64,
                    "time": 50.39504325000005,
                    "velocity": 0.4330708661417323,
                    "duration": 0.13021975000000197
                },
                {
                    "name": "F4",
                    "midi": 65,
                    "time": 50.52526300000005,
                    "velocity": 0.4881889763779528,
                    "duration": 0.13021974999998776
                },
                {
                    "name": "G2",
                    "midi": 43,
                    "time": 50.52526300000005,
                    "velocity": 0.33070866141732286,
                    "duration": 0.2604394999999897
                },
                {
                    "name": "D4",
                    "midi": 62,
                    "time": 50.65548275000004,
                    "velocity": 0.4330708661417323,
                    "duration": 0.13021975000000197
                },
                {
                    "name": "C4",
                    "midi": 60,
                    "time": 50.78570250000004,
                    "velocity": 0.5984251968503937,
                    "duration": 0.2604394999999968
                },
                {
                    "name": "C3",
                    "midi": 48,
                    "time": 50.78570250000004,
                    "velocity": 0.41732283464566927,
                    "duration": 0.2604394999999968
                },
                {
                    "name": "E3",
                    "midi": 52,
                    "time": 51.04614200000004,
                    "velocity": 0.31496062992125984,
                    "duration": 0.2604394999999968
                },
                {
                    "name": "G3",
                    "midi": 55,
                    "time": 51.306581500000036,
                    "velocity": 0.31496062992125984,
                    "duration": 0.2604394999999968
                },
                {
                    "name": "G4",
                    "midi": 67,
                    "time": 51.56702100000003,
                    "velocity": 0.5984251968503937,
                    "duration": 0.2604394999999968
                },
                {
                    "name": "E4",
                    "midi": 64,
                    "time": 51.56702100000003,
                    "velocity": 0.5433070866141733,
                    "duration": 0.2604394999999968
                },
                {
                    "name": "C3",
                    "midi": 48,
                    "time": 51.56702100000003,
                    "velocity": 0.41732283464566927,
                    "duration": 0.2604394999999968
                },
                {
                    "name": "E3",
                    "midi": 52,
                    "time": 51.82746050000003,
                    "velocity": 0.31496062992125984,
                    "duration": 0.2604394999999968
                },
                {
                    "name": "G3",
                    "midi": 55,
                    "time": 52.087900000000026,
                    "velocity": 0.31496062992125984,
                    "duration": 0.2604394999999968
                },
                {
                    "name": "G4",
                    "midi": 67,
                    "time": 52.34833950000002,
                    "velocity": 0.5433070866141733,
                    "duration": 0.2604394999999968
                },
                {
                    "name": "C5",
                    "midi": 72,
                    "time": 52.34833950000002,
                    "velocity": 0.5984251968503937,
                    "duration": 0.2604394999999968
                },
                {
                    "name": "E4",
                    "midi": 64,
                    "time": 52.34833950000002,
                    "velocity": 0.5433070866141733,
                    "duration": 0.2604394999999968
                },
                {
                    "name": "C3",
                    "midi": 48,
                    "time": 52.34833950000002,
                    "velocity": 0.41732283464566927,
                    "duration": 0.2604394999999968
                },
                {
                    "name": "E3",
                    "midi": 52,
                    "time": 52.60877900000002,
                    "velocity": 0.31496062992125984,
                    "duration": 0.2604394999999968
                },
                {
                    "name": "G3",
                    "midi": 55,
                    "time": 52.86921850000002,
                    "velocity": 0.31496062992125984,
                    "duration": 0.2604394999999968
                },
                {
                    "name": "G5",
                    "midi": 79,
                    "time": 53.12965800000001,
                    "velocity": 0.5984251968503937,
                    "duration": 0.2604394999999968
                },
                {
                    "name": "E5",
                    "midi": 76,
                    "time": 53.12965800000001,
                    "velocity": 0.5433070866141733,
                    "duration": 0.2604394999999968
                },
                {
                    "name": "C3",
                    "midi": 48,
                    "time": 53.12965800000001,
                    "velocity": 0.41732283464566927,
                    "duration": 0.2604394999999968
                },
                {
                    "name": "E3",
                    "midi": 52,
                    "time": 53.39009750000001,
                    "velocity": 0.31496062992125984,
                    "duration": 0.2604394999999968
                },
                {
                    "name": "G3",
                    "midi": 55,
                    "time": 53.65053700000001,
                    "velocity": 0.31496062992125984,
                    "duration": 0.2604394999999968
                },
                {
                    "name": "G5",
                    "midi": 79,
                    "time": 53.910976500000004,
                    "velocity": 0.5905511811023622,
                    "duration": 0.5208790000000008
                },
                {
                    "name": "C6",
                    "midi": 84,
                    "time": 53.910976500000004,
                    "velocity": 0.6535433070866141,
                    "duration": 0.5208790000000008
                },
                {
                    "name": "E5",
                    "midi": 76,
                    "time": 53.910976500000004,
                    "velocity": 0.5905511811023622,
                    "duration": 0.5208790000000008
                },
                {
                    "name": "C3",
                    "midi": 48,
                    "time": 53.910976500000004,
                    "velocity": 0.41732283464566927,
                    "duration": 0.5208790000000008
                }
            ],
            "controlChanges": {
                "64": [
                    {
                        "number": 64,
                        "time": 0.8811536416666667,
                        "value": 1
                    },
                    {
                        "number": 64,
                        "time": 1.3195601333333333,
                        "value": 0
                    },
                    {
                        "number": 64,
                        "time": 1.4172249458333332,
                        "value": 1
                    },
                    {
                        "number": 64,
                        "time": 1.5626369999999998,
                        "value": 0
                    },
                    {
                        "number": 64,
                        "time": 2.4210021854166666,
                        "value": 1
                    },
                    {
                        "number": 64,
                        "time": 2.6293537854166664,
                        "value": 0
                    },
                    {
                        "number": 64,
                        "time": 3.983639185416667,
                        "value": 1
                    },
                    {
                        "number": 64,
                        "time": 4.440493475000001,
                        "value": 0
                    },
                    {
                        "number": 64,
                        "time": 4.5424989458333345,
                        "value": 1
                    },
                    {
                        "number": 64,
                        "time": 4.6879110000000015,
                        "value": 0
                    },
                    {
                        "number": 64,
                        "time": 4.772553837500001,
                        "value": 1
                    },
                    {
                        "number": 64,
                        "time": 4.963542804166668,
                        "value": 0
                    },
                    {
                        "number": 64,
                        "time": 5.055781793750001,
                        "value": 1
                    },
                    {
                        "number": 64,
                        "time": 5.220726810416668,
                        "value": 0
                    },
                    {
                        "number": 64,
                        "time": 5.323817445833335,
                        "value": 1
                    },
                    {
                        "number": 64,
                        "time": 5.469229500000002,
                        "value": 0
                    },
                    {
                        "number": 64,
                        "time": 5.571234970833335,
                        "value": 1
                    },
                    {
                        "number": 64,
                        "time": 5.7513722916666685,
                        "value": 0
                    },
                    {
                        "number": 64,
                        "time": 7.101317033333337,
                        "value": 1
                    },
                    {
                        "number": 64,
                        "time": 7.571193297916671,
                        "value": 0
                    },
                    {
                        "number": 64,
                        "time": 7.667772945833337,
                        "value": 1
                    },
                    {
                        "number": 64,
                        "time": 7.813185000000004,
                        "value": 0
                    },
                    {
                        "number": 64,
                        "time": 8.694338641666672,
                        "value": 1
                    },
                    {
                        "number": 64,
                        "time": 8.873390797916672,
                        "value": 0
                    },
                    {
                        "number": 64,
                        "time": 10.218994881250005,
                        "value": 1
                    },
                    {
                        "number": 64,
                        "time": 10.688871145833339,
                        "value": 0
                    },
                    {
                        "number": 64,
                        "time": 10.777854641666673,
                        "value": 1
                    },
                    {
                        "number": 64,
                        "time": 10.946055152083341,
                        "value": 0
                    },
                    {
                        "number": 64,
                        "time": 11.045890293750007,
                        "value": 1
                    },
                    {
                        "number": 64,
                        "time": 11.214090804166673,
                        "value": 0
                    },
                    {
                        "number": 64,
                        "time": 11.275945185416674,
                        "value": 1
                    },
                    {
                        "number": 64,
                        "time": 11.47344513958334,
                        "value": 0
                    },
                    {
                        "number": 64,
                        "time": 11.543980837500007,
                        "value": 1
                    },
                    {
                        "number": 64,
                        "time": 11.719777500000006,
                        "value": 0
                    },
                    {
                        "number": 64,
                        "time": 11.89340383333334,
                        "value": 1
                    },
                    {
                        "number": 64,
                        "time": 12.001920291666673,
                        "value": 0
                    },
                    {
                        "number": 64,
                        "time": 14.110395077083343,
                        "value": 1
                    },
                    {
                        "number": 64,
                        "time": 14.854817981250012,
                        "value": 0
                    },
                    {
                        "number": 64,
                        "time": 14.990463554166679,
                        "value": 1
                    },
                    {
                        "number": 64,
                        "time": 15.626370000000012,
                        "value": 0
                    },
                    {
                        "number": 64,
                        "time": 17.24543555833333,
                        "value": 1
                    },
                    {
                        "number": 64,
                        "time": 17.467894297916665,
                        "value": 0
                    },
                    {
                        "number": 64,
                        "time": 17.53083384375,
                        "value": 1
                    },
                    {
                        "number": 64,
                        "time": 17.721822810416665,
                        "value": 0
                    },
                    {
                        "number": 64,
                        "time": 17.803210154166663,
                        "value": 1
                    },
                    {
                        "number": 64,
                        "time": 17.970325499999994,
                        "value": 0
                    },
                    {
                        "number": 64,
                        "time": 18.11573755416666,
                        "value": 1
                    },
                    {
                        "number": 64,
                        "time": 18.510737462499996,
                        "value": 0
                    },
                    {
                        "number": 64,
                        "time": 18.59103964166666,
                        "value": 1
                    },
                    {
                        "number": 64,
                        "time": 18.751643999999995,
                        "value": 0
                    },
                    {
                        "number": 64,
                        "time": 18.813498381249996,
                        "value": 1
                    },
                    {
                        "number": 64,
                        "time": 19.027275804166663,
                        "value": 0
                    },
                    {
                        "number": 64,
                        "time": 19.093470843749994,
                        "value": 1
                    },
                    {
                        "number": 64,
                        "time": 19.290970797916664,
                        "value": 0
                    },
                    {
                        "number": 64,
                        "time": 19.347399356249998,
                        "value": 1
                    },
                    {
                        "number": 64,
                        "time": 19.54055865208333,
                        "value": 0
                    },
                    {
                        "number": 64,
                        "time": 19.632797641666667,
                        "value": 1
                    },
                    {
                        "number": 64,
                        "time": 19.812934962499998,
                        "value": 0
                    },
                    {
                        "number": 64,
                        "time": 19.870448685416665,
                        "value": 1
                    },
                    {
                        "number": 64,
                        "time": 20.06903380416666,
                        "value": 0
                    },
                    {
                        "number": 64,
                        "time": 20.161272793749998,
                        "value": 1
                    },
                    {
                        "number": 64,
                        "time": 20.314280999999998,
                        "value": 0
                    },
                    {
                        "number": 64,
                        "time": 20.389157356249996,
                        "value": 1
                    },
                    {
                        "number": 64,
                        "time": 20.593168297916666,
                        "value": 0
                    },
                    {
                        "number": 64,
                        "time": 20.64308586875,
                        "value": 1
                    },
                    {
                        "number": 64,
                        "time": 20.848181975,
                        "value": 0
                    },
                    {
                        "number": 64,
                        "time": 20.91654734375,
                        "value": 1
                    },
                    {
                        "number": 64,
                        "time": 21.10536598125,
                        "value": 0
                    },
                    {
                        "number": 64,
                        "time": 21.23341540208333,
                        "value": 1
                    },
                    {
                        "number": 64,
                        "time": 21.628415310416667,
                        "value": 0
                    },
                    {
                        "number": 64,
                        "time": 21.708717489583332,
                        "value": 1
                    },
                    {
                        "number": 64,
                        "time": 21.889939974999997,
                        "value": 0
                    },
                    {
                        "number": 64,
                        "time": 21.976753141666663,
                        "value": 1
                    },
                    {
                        "number": 64,
                        "time": 22.154720133333328,
                        "value": 0
                    },
                    {
                        "number": 64,
                        "time": 22.218744843749995,
                        "value": 1
                    },
                    {
                        "number": 64,
                        "time": 22.411904139583328,
                        "value": 0
                    },
                    {
                        "number": 64,
                        "time": 22.479184343749996,
                        "value": 1
                    },
                    {
                        "number": 64,
                        "time": 22.66366232291666,
                        "value": 0
                    },
                    {
                        "number": 64,
                        "time": 23.23337372916666,
                        "value": 1
                    },
                    {
                        "number": 64,
                        "time": 23.439554999999995,
                        "value": 0
                    },
                    {
                        "number": 64,
                        "time": 23.983222456249997,
                        "value": 1
                    },
                    {
                        "number": 64,
                        "time": 24.220873499999996,
                        "value": 0
                    },
                    {
                        "number": 64,
                        "time": 27.415598033333342,
                        "value": 1
                    },
                    {
                        "number": 64,
                        "time": 27.882218804166676,
                        "value": 0
                    },
                    {
                        "number": 64,
                        "time": 27.944073185416677,
                        "value": 1
                    },
                    {
                        "number": 64,
                        "time": 28.12746600000001,
                        "value": 0
                    },
                    {
                        "number": 64,
                        "time": 28.955446577083343,
                        "value": 1
                    },
                    {
                        "number": 64,
                        "time": 29.189842127083345,
                        "value": 0
                    },
                    {
                        "number": 64,
                        "time": 30.578852793750006,
                        "value": 1
                    },
                    {
                        "number": 64,
                        "time": 31.00640763958334,
                        "value": 0
                    },
                    {
                        "number": 64,
                        "time": 31.099731793750006,
                        "value": 1
                    },
                    {
                        "number": 64,
                        "time": 31.252740000000006,
                        "value": 0
                    },
                    {
                        "number": 64,
                        "time": 31.33738283750001,
                        "value": 1
                    },
                    {
                        "number": 64,
                        "time": 31.529456968750008,
                        "value": 0
                    },
                    {
                        "number": 64,
                        "time": 31.620610793750007,
                        "value": 1
                    },
                    {
                        "number": 64,
                        "time": 31.794237127083342,
                        "value": 0
                    },
                    {
                        "number": 64,
                        "time": 31.850665685416676,
                        "value": 1
                    },
                    {
                        "number": 64,
                        "time": 32.03405850000001,
                        "value": 0
                    },
                    {
                        "number": 64,
                        "time": 32.13606397083334,
                        "value": 1
                    },
                    {
                        "number": 64,
                        "time": 32.31620129166667,
                        "value": 0
                    },
                    {
                        "number": 64,
                        "time": 33.65854988125,
                        "value": 1
                    },
                    {
                        "number": 64,
                        "time": 34.12842614583334,
                        "value": 0
                    },
                    {
                        "number": 64,
                        "time": 34.19462118541667,
                        "value": 1
                    },
                    {
                        "number": 64,
                        "time": 34.38561015208334,
                        "value": 0
                    },
                    {
                        "number": 64,
                        "time": 35.236379185416666,
                        "value": 1
                    },
                    {
                        "number": 64,
                        "time": 35.437134633333336,
                        "value": 0
                    },
                    {
                        "number": 64,
                        "time": 36.799016185416676,
                        "value": 1
                    },
                    {
                        "number": 64,
                        "time": 37.25587047500001,
                        "value": 0
                    },
                    {
                        "number": 64,
                        "time": 37.35027979375001,
                        "value": 1
                    },
                    {
                        "number": 64,
                        "time": 37.52065063333335,
                        "value": 0
                    },
                    {
                        "number": 64,
                        "time": 37.59552698958335,
                        "value": 1
                    },
                    {
                        "number": 64,
                        "time": 37.78217529791668,
                        "value": 0
                    },
                    {
                        "number": 64,
                        "time": 37.87115879375001,
                        "value": 1
                    },
                    {
                        "number": 64,
                        "time": 38.04695545625001,
                        "value": 0
                    },
                    {
                        "number": 64,
                        "time": 38.10880983750001,
                        "value": 1
                    },
                    {
                        "number": 64,
                        "time": 38.28460650000002,
                        "value": 0
                    },
                    {
                        "number": 64,
                        "time": 38.40071911041668,
                        "value": 1
                    },
                    {
                        "number": 64,
                        "time": 38.56023830416668,
                        "value": 0
                    },
                    {
                        "number": 64,
                        "time": 40.720800989583374,
                        "value": 1
                    },
                    {
                        "number": 64,
                        "time": 41.40988050000005,
                        "value": 0
                    },
                    {
                        "number": 64,
                        "time": 41.54010025000005,
                        "value": 1
                    },
                    {
                        "number": 64,
                        "time": 41.68876779791672,
                        "value": 0
                    },
                    {
                        "number": 64,
                        "time": 42.02299848958339,
                        "value": 1
                    },
                    {
                        "number": 64,
                        "time": 42.191199000000054,
                        "value": 0
                    },
                    {
                        "number": 64,
                        "time": 42.27584183750005,
                        "value": 1
                    },
                    {
                        "number": 64,
                        "time": 42.47442695625004,
                        "value": 0
                    },
                    {
                        "number": 64,
                        "time": 42.55906979375004,
                        "value": 1
                    },
                    {
                        "number": 64,
                        "time": 42.72618513958337,
                        "value": 0
                    },
                    {
                        "number": 64,
                        "time": 42.7891246854167,
                        "value": 1
                    },
                    {
                        "number": 64,
                        "time": 42.97251750000003,
                        "value": 0
                    },
                    {
                        "number": 64,
                        "time": 44.578561083333334,
                        "value": 1
                    },
                    {
                        "number": 64,
                        "time": 44.8151269625,
                        "value": 0
                    },
                    {
                        "number": 64,
                        "time": 46.97894514166669,
                        "value": 1
                    },
                    {
                        "number": 64,
                        "time": 47.66042850000004,
                        "value": 0
                    },
                    {
                        "number": 64,
                        "time": 47.752667489583374,
                        "value": 1
                    },
                    {
                        "number": 64,
                        "time": 47.938230633333376,
                        "value": 0
                    },
                    {
                        "number": 64,
                        "time": 48.250758033333376,
                        "value": 1
                    },
                    {
                        "number": 64,
                        "time": 48.45042831666671,
                        "value": 0
                    },
                    {
                        "number": 64,
                        "time": 48.51119753333337,
                        "value": 1
                    },
                    {
                        "number": 64,
                        "time": 48.7206342979167,
                        "value": 0
                    },
                    {
                        "number": 64,
                        "time": 48.802021641666705,
                        "value": 1
                    },
                    {
                        "number": 64,
                        "time": 48.97781830416671,
                        "value": 0
                    },
                    {
                        "number": 64,
                        "time": 49.032076533333374,
                        "value": 1
                    },
                    {
                        "number": 64,
                        "time": 49.23174681666671,
                        "value": 0
                    },
                    {
                        "number": 64,
                        "time": 49.30770833750004,
                        "value": 1
                    },
                    {
                        "number": 64,
                        "time": 49.49869730416671,
                        "value": 0
                    },
                    {
                        "number": 64,
                        "time": 49.56814783750004,
                        "value": 1
                    },
                    {
                        "number": 64,
                        "time": 49.75696647500005,
                        "value": 0
                    },
                    {
                        "number": 64,
                        "time": 49.828587337500046,
                        "value": 1
                    },
                    {
                        "number": 64,
                        "time": 50.01415048125005,
                        "value": 0
                    },
                    {
                        "number": 64,
                        "time": 50.08143068541671,
                        "value": 1
                    },
                    {
                        "number": 64,
                        "time": 50.28327129791671,
                        "value": 0
                    },
                    {
                        "number": 64,
                        "time": 50.37985094583338,
                        "value": 1
                    },
                    {
                        "number": 64,
                        "time": 50.54262563333339,
                        "value": 0
                    },
                    {
                        "number": 64,
                        "time": 50.61750198958338,
                        "value": 1
                    },
                    {
                        "number": 64,
                        "time": 50.78787282916671,
                        "value": 0
                    },
                    {
                        "number": 64,
                        "time": 50.95932883333337,
                        "value": 1
                    },
                    {
                        "number": 64,
                        "time": 51.56702100000003,
                        "value": 0
                    },
                    {
                        "number": 64,
                        "time": 51.75583963750003,
                        "value": 1
                    },
                    {
                        "number": 64,
                        "time": 52.35593565208335,
                        "value": 0
                    },
                    {
                        "number": 64,
                        "time": 52.60877900000002,
                        "value": 1
                    },
                    {
                        "number": 64,
                        "time": 53.13508382291668,
                        "value": 0
                    },
                    {
                        "number": 64,
                        "time": 53.275070054166676,
                        "value": 1
                    },
                    {
                        "number": 64,
                        "time": 53.910976500000004,
                        "value": 0
                    },
                    {
                        "number": 64,
                        "time": 54.05638855416667,
                        "value": 1
                    },
                    {
                        "number": 64,
                        "time": 55.213174,
                        "value": 0
                    }
                ]
            },
            "id": 0,
            "name": "Clementi: Sonatine Opus 36 Nr. 1, 3. Satz",
            "instrumentNumber": 0,
            "instrument": "acoustic grand piano",
            "instrumentFamily": "piano",
            "channelNumber": 0,
            "isPercussion": false
        }
    ]
}