{
    "header": {
        "PPQ": 480,
        "timeSignature": [
            4,
            4
        ],
        "bpm": 201.20994245395647,
        "name": ""
    },
    "startTime": 0,
    "duration": 90.35338799999961,
    "tracks": [
        {
            "startTime": 0,
            "duration": 90.35338799999961,
            "length": 666,
            "notes": [
                {
                    "name": "C5",
                    "midi": 72,
                    "time": 0,
                    "velocity": 0.5511811023622047,
                    "duration": 0.29819599999999996
                },
                {
                    "name": "C3",
                    "midi": 48,
                    "time": 0,
                    "velocity": 0.31496062992125984,
                    "duration": 0.29819599999999996
                },
                {
                    "name": "E5",
                    "midi": 76,
                    "time": 0.29819599999999996,
                    "velocity": 0.4566929133858268,
                    "duration": 0.149098
                },
                {
                    "name": "C5",
                    "midi": 72,
                    "time": 0.44729399999999997,
                    "velocity": 0.4094488188976378,
                    "duration": 0.14909799999999995
                },
                {
                    "name": "G4",
                    "midi": 67,
                    "time": 0.5963919999999999,
                    "velocity": 0.3700787401574803,
                    "duration": 0.11182349999999996
                },
                {
                    "name": "G4",
                    "midi": 67,
                    "time": 0.8945879999999998,
                    "velocity": 0.33858267716535434,
                    "duration": 0.11182349999999996
                },
                {
                    "name": "C5",
                    "midi": 72,
                    "time": 1.1927839999999998,
                    "velocity": 0.5511811023622047,
                    "duration": 0.2981960000000001
                },
                {
                    "name": "C3",
                    "midi": 48,
                    "time": 1.1927839999999998,
                    "velocity": 0.31496062992125984,
                    "duration": 0.2981960000000001
                },
                {
                    "name": "E5",
                    "midi": 76,
                    "time": 1.49098,
                    "velocity": 0.44881889763779526,
                    "duration": 0.14909799999999995
                },
                {
                    "name": "C5",
                    "midi": 72,
                    "time": 1.640078,
                    "velocity": 0.4015748031496063,
                    "duration": 0.14909799999999995
                },
                {
                    "name": "G4",
                    "midi": 67,
                    "time": 1.7891759999999999,
                    "velocity": 0.3700787401574803,
                    "duration": 0.11182350000000008
                },
                {
                    "name": "G5",
                    "midi": 79,
                    "time": 2.087372,
                    "velocity": 0.4566929133858268,
                    "duration": 0.14909799999999995
                },
                {
                    "name": "F5",
                    "midi": 77,
                    "time": 2.3855679999999997,
                    "velocity": 0.5118110236220472,
                    "duration": 0.16400779999999981
                },
                {
                    "name": "C3",
                    "midi": 48,
                    "time": 2.3855679999999997,
                    "velocity": 0.31496062992125984,
                    "duration": 0.2981959999999999
                },
                {
                    "name": "E5",
                    "midi": 76,
                    "time": 2.5346659999999996,
                    "velocity": 0.3779527559055118,
                    "duration": 0.16400779999999981
                },
                {
                    "name": "D5",
                    "midi": 74,
                    "time": 2.6837639999999996,
                    "velocity": 0.4330708661417323,
                    "duration": 0.16400779999999981
                },
                {
                    "name": "C5",
                    "midi": 72,
                    "time": 2.8328619999999995,
                    "velocity": 0.3700787401574803,
                    "duration": 0.16400779999999981
                },
                {
                    "name": "B4",
                    "midi": 71,
                    "time": 2.9819599999999995,
                    "velocity": 0.48031496062992124,
                    "duration": 0.16400779999999981
                },
                {
                    "name": "C3",
                    "midi": 48,
                    "time": 2.9819599999999995,
                    "velocity": 0.2755905511811024,
                    "duration": 0.2981959999999999
                },
                {
                    "name": "C5",
                    "midi": 72,
                    "time": 3.1310579999999995,
                    "velocity": 0.4251968503937008,
                    "duration": 0.16400779999999981
                },
                {
                    "name": "B4",
                    "midi": 71,
                    "time": 3.2801559999999994,
                    "velocity": 0.4881889763779528,
                    "duration": 0.16400779999999981
                },
                {
                    "name": "C5",
                    "midi": 72,
                    "time": 3.4292539999999994,
                    "velocity": 0.4251968503937008,
                    "duration": 0.16400779999999981
                },
                {
                    "name": "D5",
                    "midi": 74,
                    "time": 3.5783519999999993,
                    "velocity": 0.5354330708661418,
                    "duration": 0.16400779999999937
                },
                {
                    "name": "G2",
                    "midi": 43,
                    "time": 3.5783519999999993,
                    "velocity": 0.31496062992125984,
                    "duration": 0.298195999999999
                },
                {
                    "name": "C5",
                    "midi": 72,
                    "time": 3.727449999999999,
                    "velocity": 0.4645669291338583,
                    "duration": 0.16400779999999937
                },
                {
                    "name": "B4",
                    "midi": 71,
                    "time": 3.8765479999999983,
                    "velocity": 0.4409448818897638,
                    "duration": 0.1640078000000007
                },
                {
                    "name": "A4",
                    "midi": 69,
                    "time": 4.025645999999998,
                    "velocity": 0.41732283464566927,
                    "duration": 0.16400780000000026
                },
                {
                    "name": "G4",
                    "midi": 67,
                    "time": 4.174743999999999,
                    "velocity": 0.5511811023622047,
                    "duration": 0.2981960000000008
                },
                {
                    "name": "G3",
                    "midi": 55,
                    "time": 4.174743999999999,
                    "velocity": 0.3779527559055118,
                    "duration": 0.16400780000000026
                },
                {
                    "name": "F3",
                    "midi": 53,
                    "time": 4.323841999999998,
                    "velocity": 0.2992125984251969,
                    "duration": 0.16400780000000115
                },
                {
                    "name": "E3",
                    "midi": 52,
                    "time": 4.4729399999999995,
                    "velocity": 0.31496062992125984,
                    "duration": 0.16400779999999937
                },
                {
                    "name": "D3",
                    "midi": 50,
                    "time": 4.622037999999999,
                    "velocity": 0.2992125984251969,
                    "duration": 0.16400779999999937
                },
                {
                    "name": "C5",
                    "midi": 72,
                    "time": 4.7711359999999985,
                    "velocity": 0.3228346456692913,
                    "duration": 0.2981959999999999
                },
                {
                    "name": "C3",
                    "midi": 48,
                    "time": 4.7711359999999985,
                    "velocity": 0.18110236220472442,
                    "duration": 0.2981959999999999
                },
                {
                    "name": "E5",
                    "midi": 76,
                    "time": 5.069331999999998,
                    "velocity": 0.2677165354330709,
                    "duration": 0.1490980000000004
                },
                {
                    "name": "C5",
                    "midi": 72,
                    "time": 5.218429999999999,
                    "velocity": 0.2204724409448819,
                    "duration": 0.1490980000000004
                },
                {
                    "name": "G4",
                    "midi": 67,
                    "time": 5.367527999999999,
                    "velocity": 0.2204724409448819,
                    "duration": 0.11182349999999985
                },
                {
                    "name": "G4",
                    "midi": 67,
                    "time": 5.665723999999999,
                    "velocity": 0.1889763779527559,
                    "duration": 0.11182349999999985
                },
                {
                    "name": "E5",
                    "midi": 76,
                    "time": 5.963919999999999,
                    "velocity": 0.3228346456692913,
                    "duration": 0.2981959999999999
                },
                {
                    "name": "C4",
                    "midi": 60,
                    "time": 5.963919999999999,
                    "velocity": 0.18110236220472442,
                    "duration": 0.2981959999999999
                },
                {
                    "name": "G5",
                    "midi": 79,
                    "time": 6.262115999999999,
                    "velocity": 0.2755905511811024,
                    "duration": 0.1490980000000004
                },
                {
                    "name": "E5",
                    "midi": 76,
                    "time": 6.411213999999999,
                    "velocity": 0.23622047244094488,
                    "duration": 0.1490980000000004
                },
                {
                    "name": "C5",
                    "midi": 72,
                    "time": 6.560312,
                    "velocity": 0.2204724409448819,
                    "duration": 0.2981960000000008
                },
                {
                    "name": "E5",
                    "midi": 76,
                    "time": 6.8585080000000005,
                    "velocity": 0.30708661417322836,
                    "duration": 0.1490979999999995
                },
                {
                    "name": "F#3",
                    "midi": 54,
                    "time": 6.8585080000000005,
                    "velocity": 0.18110236220472442,
                    "duration": 0.2981959999999999
                },
                {
                    "name": "C5",
                    "midi": 72,
                    "time": 7.007606,
                    "velocity": 0.2677165354330709,
                    "duration": 0.1490980000000004
                },
                {
                    "name": "D5",
                    "midi": 74,
                    "time": 7.156704,
                    "velocity": 0.2992125984251969,
                    "duration": 0.14909800000000129
                },
                {
                    "name": "G3",
                    "midi": 55,
                    "time": 7.156704,
                    "velocity": 0.18110236220472442,
                    "duration": 0.2981960000000017
                },
                {
                    "name": "B4",
                    "midi": 71,
                    "time": 7.305802000000002,
                    "velocity": 0.2440944881889764,
                    "duration": 0.1490980000000004
                },
                {
                    "name": "C5",
                    "midi": 72,
                    "time": 7.454900000000002,
                    "velocity": 0.2677165354330709,
                    "duration": 0.1490979999999995
                },
                {
                    "name": "C3",
                    "midi": 48,
                    "time": 7.454900000000002,
                    "velocity": 0.16535433070866143,
                    "duration": 0.2981959999999999
                },
                {
                    "name": "A4",
                    "midi": 69,
                    "time": 7.603998000000002,
                    "velocity": 0.2283464566929134,
                    "duration": 0.1490980000000004
                },
                {
                    "name": "B4",
                    "midi": 71,
                    "time": 7.753096000000002,
                    "velocity": 0.2755905511811024,
                    "duration": 0.1490980000000004
                },
                {
                    "name": "D3",
                    "midi": 50,
                    "time": 7.753096000000002,
                    "velocity": 0.1889763779527559,
                    "duration": 0.29819599999999813
                },
                {
                    "name": "G4",
                    "midi": 67,
                    "time": 7.902194000000002,
                    "velocity": 0.2440944881889764,
                    "duration": 0.14909799999999773
                },
                {
                    "name": "A4",
                    "midi": 69,
                    "time": 8.051292,
                    "velocity": 0.28346456692913385,
                    "duration": 0.14909799999999862
                },
                {
                    "name": "D2",
                    "midi": 38,
                    "time": 8.051292,
                    "velocity": 0.15748031496062992,
                    "duration": 0.29819599999999724
                },
                {
                    "name": "F#4",
                    "midi": 66,
                    "time": 8.200389999999999,
                    "velocity": 0.2440944881889764,
                    "duration": 0.14909799999999862
                },
                {
                    "name": "G4",
                    "midi": 67,
                    "time": 8.349487999999997,
                    "velocity": 0.5354330708661418,
                    "duration": 0.16400780000000204
                },
                {
                    "name": "G2",
                    "midi": 43,
                    "time": 8.349487999999997,
                    "velocity": 0.31496062992125984,
                    "duration": 0.29819600000000257
                },
                {
                    "name": "A4",
                    "midi": 69,
                    "time": 8.498586,
                    "velocity": 0.4251968503937008,
                    "duration": 0.16400780000000026
                },
                {
                    "name": "B4",
                    "midi": 71,
                    "time": 8.647684,
                    "velocity": 0.47244094488188976,
                    "duration": 0.16400779999999848
                },
                {
                    "name": "C5",
                    "midi": 72,
                    "time": 8.796781999999999,
                    "velocity": 0.4566929133858268,
                    "duration": 0.16400779999999848
                },
                {
                    "name": "D5",
                    "midi": 74,
                    "time": 8.945879999999997,
                    "velocity": 0.5354330708661418,
                    "duration": 0.16400780000000026
                },
                {
                    "name": "E5",
                    "midi": 76,
                    "time": 9.094977999999998,
                    "velocity": 0.4566929133858268,
                    "duration": 0.16400780000000026
                },
                {
                    "name": "F#5",
                    "midi": 78,
                    "time": 9.244075999999998,
                    "velocity": 0.4881889763779528,
                    "duration": 0.16400779999999848
                },
                {
                    "name": "G5",
                    "midi": 79,
                    "time": 9.393173999999997,
                    "velocity": 0.4566929133858268,
                    "duration": 0.1490980000000004
                },
                {
                    "name": "A4",
                    "midi": 69,
                    "time": 9.542271999999997,
                    "velocity": 0.5196850393700787,
                    "duration": 0.2981960000000008
                },
                {
                    "name": "F#3",
                    "midi": 54,
                    "time": 9.542271999999997,
                    "velocity": 0.31496062992125984,
                    "duration": 0.1490980000000004
                },
                {
                    "name": "D4",
                    "midi": 62,
                    "time": 9.691369999999997,
                    "velocity": 0.2755905511811024,
                    "duration": 0.1490980000000004
                },
                {
                    "name": "A5",
                    "midi": 81,
                    "time": 9.840467999999998,
                    "velocity": 0.4251968503937008,
                    "duration": 0.1490980000000004
                },
                {
                    "name": "A3",
                    "midi": 57,
                    "time": 9.840467999999998,
                    "velocity": 0.2755905511811024,
                    "duration": 0.1490980000000004
                },
                {
                    "name": "D4",
                    "midi": 62,
                    "time": 9.989565999999998,
                    "velocity": 0.2755905511811024,
                    "duration": 0.1490980000000004
                },
                {
                    "name": "A5",
                    "midi": 81,
                    "time": 10.138663999999999,
                    "velocity": 0.44881889763779526,
                    "duration": 0.1490980000000004
                },
                {
                    "name": "F#3",
                    "midi": 54,
                    "time": 10.138663999999999,
                    "velocity": 0.31496062992125984,
                    "duration": 0.1490980000000004
                },
                {
                    "name": "D4",
                    "midi": 62,
                    "time": 10.287761999999999,
                    "velocity": 0.29133858267716534,
                    "duration": 0.1490980000000004
                },
                {
                    "name": "A5",
                    "midi": 81,
                    "time": 10.43686,
                    "velocity": 0.41732283464566927,
                    "duration": 0.1490980000000004
                },
                {
                    "name": "A3",
                    "midi": 57,
                    "time": 10.43686,
                    "velocity": 0.29133858267716534,
                    "duration": 0.1490980000000004
                },
                {
                    "name": "D4",
                    "midi": 62,
                    "time": 10.585958,
                    "velocity": 0.29133858267716534,
                    "duration": 0.1490980000000004
                },
                {
                    "name": "B4",
                    "midi": 71,
                    "time": 10.735056,
                    "velocity": 0.5354330708661418,
                    "duration": 0.16400779999999848
                },
                {
                    "name": "G3",
                    "midi": 55,
                    "time": 10.735056,
                    "velocity": 0.31496062992125984,
                    "duration": 0.298195999999999
                },
                {
                    "name": "C5",
                    "midi": 72,
                    "time": 10.884153999999999,
                    "velocity": 0.4330708661417323,
                    "duration": 0.16400780000000026
                },
                {
                    "name": "D5",
                    "midi": 74,
                    "time": 11.033252,
                    "velocity": 0.47244094488188976,
                    "duration": 0.16400779999999848
                },
                {
                    "name": "E5",
                    "midi": 76,
                    "time": 11.182349999999998,
                    "velocity": 0.4409448818897638,
                    "duration": 0.16400780000000026
                },
                {
                    "name": "F#5",
                    "midi": 78,
                    "time": 11.331447999999998,
                    "velocity": 0.5354330708661418,
                    "duration": 0.16400780000000026
                },
                {
                    "name": "G5",
                    "midi": 79,
                    "time": 11.480545999999999,
                    "velocity": 0.4645669291338583,
                    "duration": 0.16400780000000026
                },
                {
                    "name": "A5",
                    "midi": 81,
                    "time": 11.629643999999999,
                    "velocity": 0.4881889763779528,
                    "duration": 0.16400780000000026
                },
                {
                    "name": "B5",
                    "midi": 83,
                    "time": 11.778742,
                    "velocity": 0.4566929133858268,
                    "duration": 0.1490980000000004
                },
                {
                    "name": "C5",
                    "midi": 72,
                    "time": 11.92784,
                    "velocity": 0.5196850393700787,
                    "duration": 0.2981960000000008
                },
                {
                    "name": "A3",
                    "midi": 57,
                    "time": 11.92784,
                    "velocity": 0.31496062992125984,
                    "duration": 0.1490980000000004
                },
                {
                    "name": "D4",
                    "midi": 62,
                    "time": 12.076938,
                    "velocity": 0.2755905511811024,
                    "duration": 0.1490980000000004
                },
                {
                    "name": "C6",
                    "midi": 84,
                    "time": 12.226036,
                    "velocity": 0.41732283464566927,
                    "duration": 0.1490980000000004
                },
                {
                    "name": "C4",
                    "midi": 60,
                    "time": 12.226036,
                    "velocity": 0.2755905511811024,
                    "duration": 0.1490980000000004
                },
                {
                    "name": "D4",
                    "midi": 62,
                    "time": 12.375134000000001,
                    "velocity": 0.2755905511811024,
                    "duration": 0.1490980000000004
                },
                {
                    "name": "C6",
                    "midi": 84,
                    "time": 12.524232000000001,
                    "velocity": 0.44881889763779526,
                    "duration": 0.1490980000000004
                },
                {
                    "name": "A3",
                    "midi": 57,
                    "time": 12.524232000000001,
                    "velocity": 0.31496062992125984,
                    "duration": 0.1490980000000004
                },
                {
                    "name": "D4",
                    "midi": 62,
                    "time": 12.673330000000002,
                    "velocity": 0.29133858267716534,
                    "duration": 0.1490980000000004
                },
                {
                    "name": "C6",
                    "midi": 84,
                    "time": 12.822428000000002,
                    "velocity": 0.4330708661417323,
                    "duration": 0.1490980000000004
                },
                {
                    "name": "C4",
                    "midi": 60,
                    "time": 12.822428000000002,
                    "velocity": 0.29133858267716534,
                    "duration": 0.1490980000000004
                },
                {
                    "name": "D4",
                    "midi": 62,
                    "time": 12.971526000000003,
                    "velocity": 0.29133858267716534,
                    "duration": 0.14909799999999862
                },
                {
                    "name": "D5",
                    "midi": 74,
                    "time": 13.120624000000001,
                    "velocity": 0.5354330708661418,
                    "duration": 0.14909799999999862
                },
                {
                    "name": "B3",
                    "midi": 59,
                    "time": 13.120624000000001,
                    "velocity": 0.31496062992125984,
                    "duration": 0.298195999999999
                },
                {
                    "name": "G5",
                    "midi": 79,
                    "time": 13.269722,
                    "velocity": 0.4645669291338583,
                    "duration": 0.1490980000000004
                },
                {
                    "name": "B5",
                    "midi": 83,
                    "time": 13.41882,
                    "velocity": 0.49606299212598426,
                    "duration": 0.1490980000000004
                },
                {
                    "name": "D6",
                    "midi": 86,
                    "time": 13.567918,
                    "velocity": 0.48031496062992124,
                    "duration": 0.14909799999999862
                },
                {
                    "name": "C6",
                    "midi": 84,
                    "time": 13.717016,
                    "velocity": 0.5354330708661418,
                    "duration": 0.16400780000000026
                },
                {
                    "name": "B5",
                    "midi": 83,
                    "time": 13.866114,
                    "velocity": 0.4566929133858268,
                    "duration": 0.16400780000000026
                },
                {
                    "name": "A5",
                    "midi": 81,
                    "time": 14.015212,
                    "velocity": 0.4881889763779528,
                    "duration": 0.16400780000000026
                },
                {
                    "name": "G5",
                    "midi": 79,
                    "time": 14.16431,
                    "velocity": 0.4645669291338583,
                    "duration": 0.16400780000000026
                },
                {
                    "name": "F#5",
                    "midi": 78,
                    "time": 14.313408,
                    "velocity": 0.5354330708661418,
                    "duration": 0.16400780000000026
                },
                {
                    "name": "C4",
                    "midi": 60,
                    "time": 14.313408,
                    "velocity": 0.31496062992125984,
                    "duration": 0.2981960000000008
                },
                {
                    "name": "E5",
                    "midi": 76,
                    "time": 14.462506000000001,
                    "velocity": 0.48031496062992124,
                    "duration": 0.16400780000000026
                },
                {
                    "name": "G5",
                    "midi": 79,
                    "time": 14.611604000000002,
                    "velocity": 0.5118110236220472,
                    "duration": 0.16400780000000026
                },
                {
                    "name": "F#5",
                    "midi": 78,
                    "time": 14.760702000000002,
                    "velocity": 0.44881889763779526,
                    "duration": 0.16400780000000026
                },
                {
                    "name": "A5",
                    "midi": 81,
                    "time": 14.909800000000002,
                    "velocity": 0.5354330708661418,
                    "duration": 0.16400780000000026
                },
                {
                    "name": "C3",
                    "midi": 48,
                    "time": 14.909800000000002,
                    "velocity": 0.29133858267716534,
                    "duration": 0.2981960000000008
                },
                {
                    "name": "G5",
                    "midi": 79,
                    "time": 15.058898000000003,
                    "velocity": 0.48031496062992124,
                    "duration": 0.16400780000000026
                },
                {
                    "name": "F#5",
                    "midi": 78,
                    "time": 15.207996000000003,
                    "velocity": 0.5039370078740157,
                    "duration": 0.16400780000000026
                },
                {
                    "name": "E5",
                    "midi": 76,
                    "time": 15.357094000000004,
                    "velocity": 0.4645669291338583,
                    "duration": 0.1490980000000004
                },
                {
                    "name": "E5",
                    "midi": 76,
                    "time": 15.506192000000004,
                    "velocity": 0.5118110236220472,
                    "duration": 0.16400780000000026
                },
                {
                    "name": "D3",
                    "midi": 50,
                    "time": 15.506192000000004,
                    "velocity": 0.31496062992125984,
                    "duration": 0.2981960000000008
                },
                {
                    "name": "D5",
                    "midi": 74,
                    "time": 15.655290000000004,
                    "velocity": 0.4251968503937008,
                    "duration": 0.16400780000000026
                },
                {
                    "name": "C5",
                    "midi": 72,
                    "time": 15.804388000000005,
                    "velocity": 0.47244094488188976,
                    "duration": 0.16400780000000026
                },
                {
                    "name": "B4",
                    "midi": 71,
                    "time": 15.953486000000005,
                    "velocity": 0.4409448818897638,
                    "duration": 0.14909799999999862
                },
                {
                    "name": "D5",
                    "midi": 74,
                    "time": 16.102584000000004,
                    "velocity": 0.5196850393700787,
                    "duration": 0.16400780000000026
                },
                {
                    "name": "D2",
                    "midi": 38,
                    "time": 16.102584000000004,
                    "velocity": 0.30708661417322836,
                    "duration": 0.2981960000000008
                },
                {
                    "name": "C5",
                    "midi": 72,
                    "time": 16.251682000000002,
                    "velocity": 0.4645669291338583,
                    "duration": 0.1640078000000038
                },
                {
                    "name": "B4",
                    "midi": 71,
                    "time": 16.400780000000005,
                    "velocity": 0.48031496062992124,
                    "duration": 0.1640078000000038
                },
                {
                    "name": "A4",
                    "midi": 69,
                    "time": 16.549878000000007,
                    "velocity": 0.4566929133858268,
                    "duration": 0.1640078000000038
                },
                {
                    "name": "G4",
                    "midi": 67,
                    "time": 16.69897600000001,
                    "velocity": 0.5354330708661418,
                    "duration": 0.596391999999998
                },
                {
                    "name": "G2",
                    "midi": 43,
                    "time": 16.69897600000001,
                    "velocity": 0.3779527559055118,
                    "duration": 0.14909800000000217
                },
                {
                    "name": "B2",
                    "midi": 47,
                    "time": 16.84807400000001,
                    "velocity": 0.2992125984251969,
                    "duration": 0.14909799999999862
                },
                {
                    "name": "D3",
                    "midi": 50,
                    "time": 16.99717200000001,
                    "velocity": 0.31496062992125984,
                    "duration": 0.14909799999999862
                },
                {
                    "name": "G3",
                    "midi": 55,
                    "time": 17.14627000000001,
                    "velocity": 0.2992125984251969,
                    "duration": 0.14909799999999862
                },
                {
                    "name": "G2",
                    "midi": 43,
                    "time": 17.295368000000007,
                    "velocity": 0.3779527559055118,
                    "duration": 0.2981960000000008
                },
                {
                    "name": "C5",
                    "midi": 72,
                    "time": 17.89176000000001,
                    "velocity": 0.5511811023622047,
                    "duration": 0.29819599999999724
                },
                {
                    "name": "C3",
                    "midi": 48,
                    "time": 17.89176000000001,
                    "velocity": 0.31496062992125984,
                    "duration": 0.29819599999999724
                },
                {
                    "name": "E5",
                    "midi": 76,
                    "time": 18.189956000000006,
                    "velocity": 0.4566929133858268,
                    "duration": 0.14909799999999862
                },
                {
                    "name": "C5",
                    "midi": 72,
                    "time": 18.339054000000004,
                    "velocity": 0.4094488188976378,
                    "duration": 0.14909799999999862
                },
                {
                    "name": "G4",
                    "midi": 67,
                    "time": 18.488152000000003,
                    "velocity": 0.3779527559055118,
                    "duration": 0.11182349999999985
                },
                {
                    "name": "G4",
                    "midi": 67,
                    "time": 18.786348000000004,
                    "velocity": 0.2992125984251969,
                    "duration": 0.11182349999999985
                },
                {
                    "name": "C5",
                    "midi": 72,
                    "time": 19.084544000000005,
                    "velocity": 0.5511811023622047,
                    "duration": 0.29819599999999724
                },
                {
                    "name": "C3",
                    "midi": 48,
                    "time": 19.084544000000005,
                    "velocity": 0.31496062992125984,
                    "duration": 0.29819599999999724
                },
                {
                    "name": "E5",
                    "midi": 76,
                    "time": 19.382740000000002,
                    "velocity": 0.44881889763779526,
                    "duration": 0.14909799999999862
                },
                {
                    "name": "C5",
                    "midi": 72,
                    "time": 19.531838,
                    "velocity": 0.4015748031496063,
                    "duration": 0.14909799999999862
                },
                {
                    "name": "G4",
                    "midi": 67,
                    "time": 19.680936,
                    "velocity": 0.3700787401574803,
                    "duration": 0.11182349999999985
                },
                {
                    "name": "G5",
                    "midi": 79,
                    "time": 19.979132,
                    "velocity": 0.4566929133858268,
                    "duration": 0.14909799999999862
                },
                {
                    "name": "F5",
                    "midi": 77,
                    "time": 20.277327999999997,
                    "velocity": 0.5118110236220472,
                    "duration": 0.16400780000000026
                },
                {
                    "name": "C3",
                    "midi": 48,
                    "time": 20.277327999999997,
                    "velocity": 0.31496062992125984,
                    "duration": 0.2981960000000008
                },
                {
                    "name": "E5",
                    "midi": 76,
                    "time": 20.426425999999996,
                    "velocity": 0.3779527559055118,
                    "duration": 0.1640078000000038
                },
                {
                    "name": "D5",
                    "midi": 74,
                    "time": 20.575523999999998,
                    "velocity": 0.4330708661417323,
                    "duration": 0.1640078000000038
                },
                {
                    "name": "C5",
                    "midi": 72,
                    "time": 20.724622,
                    "velocity": 0.3700787401574803,
                    "duration": 0.1640078000000038
                },
                {
                    "name": "B4",
                    "midi": 71,
                    "time": 20.873720000000002,
                    "velocity": 0.48031496062992124,
                    "duration": 0.1640078000000038
                },
                {
                    "name": "C3",
                    "midi": 48,
                    "time": 20.873720000000002,
                    "velocity": 0.2755905511811024,
                    "duration": 0.29819600000000435
                },
                {
                    "name": "C5",
                    "midi": 72,
                    "time": 21.022818000000004,
                    "velocity": 0.4251968503937008,
                    "duration": 0.1640078000000038
                },
                {
                    "name": "B4",
                    "midi": 71,
                    "time": 21.171916000000007,
                    "velocity": 0.4881889763779528,
                    "duration": 0.1640078000000038
                },
                {
                    "name": "C5",
                    "midi": 72,
                    "time": 21.32101400000001,
                    "velocity": 0.4251968503937008,
                    "duration": 0.1640078000000038
                },
                {
                    "name": "D5",
                    "midi": 74,
                    "time": 21.47011200000001,
                    "velocity": 0.5354330708661418,
                    "duration": 0.1640078000000038
                },
                {
                    "name": "G2",
                    "midi": 43,
                    "time": 21.47011200000001,
                    "velocity": 0.31496062992125984,
                    "duration": 0.2981960000000008
                },
                {
                    "name": "C5",
                    "midi": 72,
                    "time": 21.619210000000013,
                    "velocity": 0.4645669291338583,
                    "duration": 0.16400780000000026
                },
                {
                    "name": "B4",
                    "midi": 71,
                    "time": 21.76830800000001,
                    "velocity": 0.4409448818897638,
                    "duration": 0.1640078000000038
                },
                {
                    "name": "A4",
                    "midi": 69,
                    "time": 21.917406000000014,
                    "velocity": 0.41732283464566927,
                    "duration": 0.1640078000000038
                },
                {
                    "name": "G4",
                    "midi": 67,
                    "time": 22.066504000000016,
                    "velocity": 0.5511811023622047,
                    "duration": 0.2981960000000008
                },
                {
                    "name": "G3",
                    "midi": 55,
                    "time": 22.066504000000016,
                    "velocity": 0.3779527559055118,
                    "duration": 0.16400780000000026
                },
                {
                    "name": "F3",
                    "midi": 53,
                    "time": 22.215602000000015,
                    "velocity": 0.2992125984251969,
                    "duration": 0.16400780000000026
                },
                {
                    "name": "E3",
                    "midi": 52,
                    "time": 22.364700000000017,
                    "velocity": 0.31496062992125984,
                    "duration": 0.16400780000000026
                },
                {
                    "name": "D3",
                    "midi": 50,
                    "time": 22.513798000000016,
                    "velocity": 0.2992125984251969,
                    "duration": 0.1640078000000038
                },
                {
                    "name": "C5",
                    "midi": 72,
                    "time": 22.662896000000018,
                    "velocity": 0.3228346456692913,
                    "duration": 0.2981960000000008
                },
                {
                    "name": "C3",
                    "midi": 48,
                    "time": 22.662896000000018,
                    "velocity": 0.18110236220472442,
                    "duration": 0.2981960000000008
                },
                {
                    "name": "E5",
                    "midi": 76,
                    "time": 22.96109200000002,
                    "velocity": 0.2677165354330709,
                    "duration": 0.14909799999999862
                },
                {
                    "name": "C5",
                    "midi": 72,
                    "time": 23.110190000000017,
                    "velocity": 0.2204724409448819,
                    "duration": 0.14909799999999862
                },
                {
                    "name": "G4",
                    "midi": 67,
                    "time": 23.259288000000016,
                    "velocity": 0.2204724409448819,
                    "duration": 0.11182349999999985
                },
                {
                    "name": "G4",
                    "midi": 67,
                    "time": 23.557484000000017,
                    "velocity": 0.1968503937007874,
                    "duration": 0.11182349999999985
                },
                {
                    "name": "E5",
                    "midi": 76,
                    "time": 23.855680000000017,
                    "velocity": 0.3228346456692913,
                    "duration": 0.2981960000000008
                },
                {
                    "name": "C4",
                    "midi": 60,
                    "time": 23.855680000000017,
                    "velocity": 0.18110236220472442,
                    "duration": 0.2981960000000008
                },
                {
                    "name": "G5",
                    "midi": 79,
                    "time": 24.153876000000018,
                    "velocity": 0.2755905511811024,
                    "duration": 0.14909799999999862
                },
                {
                    "name": "E5",
                    "midi": 76,
                    "time": 24.302974000000017,
                    "velocity": 0.23622047244094488,
                    "duration": 0.14909799999999862
                },
                {
                    "name": "C5",
                    "midi": 72,
                    "time": 24.452072000000015,
                    "velocity": 0.2204724409448819,
                    "duration": 0.29819599999999724
                },
                {
                    "name": "E5",
                    "midi": 76,
                    "time": 24.750268000000013,
                    "velocity": 0.30708661417322836,
                    "duration": 0.14909800000000217
                },
                {
                    "name": "F#3",
                    "midi": 54,
                    "time": 24.750268000000013,
                    "velocity": 0.18110236220472442,
                    "duration": 0.2981960000000008
                },
                {
                    "name": "C5",
                    "midi": 72,
                    "time": 24.899366000000015,
                    "velocity": 0.2677165354330709,
                    "duration": 0.14909799999999862
                },
                {
                    "name": "D5",
                    "midi": 74,
                    "time": 25.048464000000013,
                    "velocity": 0.2992125984251969,
                    "duration": 0.14909800000000217
                },
                {
                    "name": "G3",
                    "midi": 55,
                    "time": 25.048464000000013,
                    "velocity": 0.18110236220472442,
                    "duration": 0.2981960000000008
                },
                {
                    "name": "B4",
                    "midi": 71,
                    "time": 25.197562000000016,
                    "velocity": 0.2440944881889764,
                    "duration": 0.14909799999999862
                },
                {
                    "name": "C5",
                    "midi": 72,
                    "time": 25.346660000000014,
                    "velocity": 0.2677165354330709,
                    "duration": 0.14909799999999862
                },
                {
                    "name": "C3",
                    "midi": 48,
                    "time": 25.346660000000014,
                    "velocity": 0.16535433070866143,
                    "duration": 0.29819599999999724
                },
                {
                    "name": "A4",
                    "midi": 69,
                    "time": 25.495758000000013,
                    "velocity": 0.2283464566929134,
                    "duration": 0.14909799999999862
                },
                {
                    "name": "B4",
                    "midi": 71,
                    "time": 25.64485600000001,
                    "velocity": 0.2755905511811024,
                    "duration": 0.14909800000000217
                },
                {
                    "name": "D3",
                    "midi": 50,
                    "time": 25.64485600000001,
                    "velocity": 0.1889763779527559,
                    "duration": 0.2981960000000008
                },
                {
                    "name": "G4",
                    "midi": 67,
                    "time": 25.793954000000014,
                    "velocity": 0.2440944881889764,
                    "duration": 0.14909799999999862
                },
                {
                    "name": "A4",
                    "midi": 69,
                    "time": 25.943052000000012,
                    "velocity": 0.28346456692913385,
                    "duration": 0.14909800000000217
                },
                {
                    "name": "D2",
                    "midi": 38,
                    "time": 25.943052000000012,
                    "velocity": 0.15748031496062992,
                    "duration": 0.2981960000000008
                },
                {
                    "name": "F#4",
                    "midi": 66,
                    "time": 26.092150000000014,
                    "velocity": 0.2440944881889764,
                    "duration": 0.14909799999999862
                },
                {
                    "name": "G4",
                    "midi": 67,
                    "time": 26.241248000000013,
                    "velocity": 0.5354330708661418,
                    "duration": 0.16400780000000026
                },
                {
                    "name": "G2",
                    "midi": 43,
                    "time": 26.241248000000013,
                    "velocity": 0.31496062992125984,
                    "duration": 0.2981960000000008
                },
                {
                    "name": "A4",
                    "midi": 69,
                    "time": 26.39034600000001,
                    "velocity": 0.4251968503937008,
                    "duration": 0.1640078000000038
                },
                {
                    "name": "B4",
                    "midi": 71,
                    "time": 26.539444000000014,
                    "velocity": 0.47244094488188976,
                    "duration": 0.1640078000000038
                },
                {
                    "name": "C5",
                    "midi": 72,
                    "time": 26.688542000000016,
                    "velocity": 0.4566929133858268,
                    "duration": 0.1640078000000038
                },
                {
                    "name": "D5",
                    "midi": 74,
                    "time": 26.837640000000018,
                    "velocity": 0.5354330708661418,
                    "duration": 0.1640078000000038
                },
                {
                    "name": "E5",
                    "midi": 76,
                    "time": 26.98673800000002,
                    "velocity": 0.4566929133858268,
                    "duration": 0.1640078000000038
                },
                {
                    "name": "F#5",
                    "midi": 78,
                    "time": 27.135836000000022,
                    "velocity": 0.4881889763779528,
                    "duration": 0.1640078000000038
                },
                {
                    "name": "G5",
                    "midi": 79,
                    "time": 27.284934000000025,
                    "velocity": 0.4566929133858268,
                    "duration": 0.14909800000000217
                },
                {
                    "name": "A4",
                    "midi": 69,
                    "time": 27.434032000000027,
                    "velocity": 0.5196850393700787,
                    "duration": 0.29819599999999724
                },
                {
                    "name": "F#3",
                    "midi": 54,
                    "time": 27.434032000000027,
                    "velocity": 0.31496062992125984,
                    "duration": 0.14909799999999862
                },
                {
                    "name": "D4",
                    "midi": 62,
                    "time": 27.583130000000025,
                    "velocity": 0.2755905511811024,
                    "duration": 0.14909799999999862
                },
                {
                    "name": "A5",
                    "midi": 81,
                    "time": 27.732228000000024,
                    "velocity": 0.4251968503937008,
                    "duration": 0.14909799999999862
                },
                {
                    "name": "A3",
                    "midi": 57,
                    "time": 27.732228000000024,
                    "velocity": 0.2755905511811024,
                    "duration": 0.14909799999999862
                },
                {
                    "name": "D4",
                    "midi": 62,
                    "time": 27.881326000000023,
                    "velocity": 0.2755905511811024,
                    "duration": 0.14909799999999862
                },
                {
                    "name": "A5",
                    "midi": 81,
                    "time": 28.03042400000002,
                    "velocity": 0.44881889763779526,
                    "duration": 0.14909799999999862
                },
                {
                    "name": "F#3",
                    "midi": 54,
                    "time": 28.03042400000002,
                    "velocity": 0.31496062992125984,
                    "duration": 0.14909799999999862
                },
                {
                    "name": "D4",
                    "midi": 62,
                    "time": 28.17952200000002,
                    "velocity": 0.29133858267716534,
                    "duration": 0.14909799999999862
                },
                {
                    "name": "A5",
                    "midi": 81,
                    "time": 28.32862000000002,
                    "velocity": 0.41732283464566927,
                    "duration": 0.14909799999999862
                },
                {
                    "name": "A3",
                    "midi": 57,
                    "time": 28.32862000000002,
                    "velocity": 0.29133858267716534,
                    "duration": 0.14909799999999862
                },
                {
                    "name": "D4",
                    "midi": 62,
                    "time": 28.477718000000017,
                    "velocity": 0.29133858267716534,
                    "duration": 0.14909799999999862
                },
                {
                    "name": "B4",
                    "midi": 71,
                    "time": 28.626816000000016,
                    "velocity": 0.5354330708661418,
                    "duration": 0.16400780000000026
                },
                {
                    "name": "G3",
                    "midi": 55,
                    "time": 28.626816000000016,
                    "velocity": 0.31496062992125984,
                    "duration": 0.29819599999999724
                },
                {
                    "name": "C5",
                    "midi": 72,
                    "time": 28.775914000000014,
                    "velocity": 0.4330708661417323,
                    "duration": 0.1640077999999967
                },
                {
                    "name": "D5",
                    "midi": 74,
                    "time": 28.925012000000013,
                    "velocity": 0.47244094488188976,
                    "duration": 0.16400780000000026
                },
                {
                    "name": "E5",
                    "midi": 76,
                    "time": 29.07411000000001,
                    "velocity": 0.4409448818897638,
                    "duration": 0.16400780000000026
                },
                {
                    "name": "F#5",
                    "midi": 78,
                    "time": 29.223208000000014,
                    "velocity": 0.5354330708661418,
                    "duration": 0.16400780000000026
                },
                {
                    "name": "G5",
                    "midi": 79,
                    "time": 29.372306000000012,
                    "velocity": 0.4645669291338583,
                    "duration": 0.1640078000000038
                },
                {
                    "name": "A5",
                    "midi": 81,
                    "time": 29.521404000000015,
                    "velocity": 0.4881889763779528,
                    "duration": 0.1640078000000038
                },
                {
                    "name": "B5",
                    "midi": 83,
                    "time": 29.670502000000017,
                    "velocity": 0.4566929133858268,
                    "duration": 0.14909800000000217
                },
                {
                    "name": "C5",
                    "midi": 72,
                    "time": 29.81960000000002,
                    "velocity": 0.5196850393700787,
                    "duration": 0.2981960000000008
                },
                {
                    "name": "A3",
                    "midi": 57,
                    "time": 29.81960000000002,
                    "velocity": 0.31496062992125984,
                    "duration": 0.14909800000000217
                },
                {
                    "name": "D4",
                    "midi": 62,
                    "time": 29.96869800000002,
                    "velocity": 0.2755905511811024,
                    "duration": 0.14909799999999862
                },
                {
                    "name": "C6",
                    "midi": 84,
                    "time": 30.11779600000002,
                    "velocity": 0.41732283464566927,
                    "duration": 0.14909799999999862
                },
                {
                    "name": "C4",
                    "midi": 60,
                    "time": 30.11779600000002,
                    "velocity": 0.2755905511811024,
                    "duration": 0.14909799999999862
                },
                {
                    "name": "D4",
                    "midi": 62,
                    "time": 30.26689400000002,
                    "velocity": 0.2755905511811024,
                    "duration": 0.14909799999999862
                },
                {
                    "name": "C6",
                    "midi": 84,
                    "time": 30.415992000000017,
                    "velocity": 0.44881889763779526,
                    "duration": 0.14909799999999862
                },
                {
                    "name": "A3",
                    "midi": 57,
                    "time": 30.415992000000017,
                    "velocity": 0.31496062992125984,
                    "duration": 0.14909799999999862
                },
                {
                    "name": "D4",
                    "midi": 62,
                    "time": 30.565090000000016,
                    "velocity": 0.29133858267716534,
                    "duration": 0.14909799999999862
                },
                {
                    "name": "C6",
                    "midi": 84,
                    "time": 30.714188000000014,
                    "velocity": 0.4330708661417323,
                    "duration": 0.14909799999999862
                },
                {
                    "name": "C4",
                    "midi": 60,
                    "time": 30.714188000000014,
                    "velocity": 0.29133858267716534,
                    "duration": 0.14909799999999862
                },
                {
                    "name": "D4",
                    "midi": 62,
                    "time": 30.863286000000013,
                    "velocity": 0.29133858267716534,
                    "duration": 0.14909799999999862
                },
                {
                    "name": "D5",
                    "midi": 74,
                    "time": 31.01238400000001,
                    "velocity": 0.5354330708661418,
                    "duration": 0.14909800000000217
                },
                {
                    "name": "B3",
                    "midi": 59,
                    "time": 31.01238400000001,
                    "velocity": 0.31496062992125984,
                    "duration": 0.2981960000000008
                },
                {
                    "name": "G5",
                    "midi": 79,
                    "time": 31.161482000000014,
                    "velocity": 0.4645669291338583,
                    "duration": 0.14909799999999862
                },
                {
                    "name": "B5",
                    "midi": 83,
                    "time": 31.310580000000012,
                    "velocity": 0.49606299212598426,
                    "duration": 0.14909799999999862
                },
                {
                    "name": "D6",
                    "midi": 86,
                    "time": 31.45967800000001,
                    "velocity": 0.48031496062992124,
                    "duration": 0.14909799999999862
                },
                {
                    "name": "C6",
                    "midi": 84,
                    "time": 31.60877600000001,
                    "velocity": 0.5354330708661418,
                    "duration": 0.16400780000000026
                },
                {
                    "name": "B5",
                    "midi": 83,
                    "time": 31.757874000000008,
                    "velocity": 0.4566929133858268,
                    "duration": 0.16400780000000026
                },
                {
                    "name": "A5",
                    "midi": 81,
                    "time": 31.906972000000007,
                    "velocity": 0.4881889763779528,
                    "duration": 0.1640077999999967
                },
                {
                    "name": "G5",
                    "midi": 79,
                    "time": 32.056070000000005,
                    "velocity": 0.4645669291338583,
                    "duration": 0.16400780000000026
                },
                {
                    "name": "F#5",
                    "midi": 78,
                    "time": 32.20516800000001,
                    "velocity": 0.5354330708661418,
                    "duration": 0.16400779999999315
                },
                {
                    "name": "C4",
                    "midi": 60,
                    "time": 32.20516800000001,
                    "velocity": 0.31496062992125984,
                    "duration": 0.29819599999999014
                },
                {
                    "name": "E5",
                    "midi": 76,
                    "time": 32.354266,
                    "velocity": 0.48031496062992124,
                    "duration": 0.16400779999999315
                },
                {
                    "name": "G5",
                    "midi": 79,
                    "time": 32.503364,
                    "velocity": 0.5118110236220472,
                    "duration": 0.16400779999999315
                },
                {
                    "name": "F#5",
                    "midi": 78,
                    "time": 32.65246199999999,
                    "velocity": 0.44881889763779526,
                    "duration": 0.16400779999999315
                },
                {
                    "name": "A5",
                    "midi": 81,
                    "time": 32.80155999999999,
                    "velocity": 0.5354330708661418,
                    "duration": 0.16400779999999315
                },
                {
                    "name": "C3",
                    "midi": 48,
                    "time": 32.80155999999999,
                    "velocity": 0.29133858267716534,
                    "duration": 0.29819599999999014
                },
                {
                    "name": "G5",
                    "midi": 79,
                    "time": 32.95065799999998,
                    "velocity": 0.48031496062992124,
                    "duration": 0.16400779999999315
                },
                {
                    "name": "F#5",
                    "midi": 78,
                    "time": 33.09975599999998,
                    "velocity": 0.5039370078740157,
                    "duration": 0.16400779999999315
                },
                {
                    "name": "E5",
                    "midi": 76,
                    "time": 33.24885399999997,
                    "velocity": 0.4645669291338583,
                    "duration": 0.14909799999999507
                },
                {
                    "name": "E5",
                    "midi": 76,
                    "time": 33.39795199999997,
                    "velocity": 0.5118110236220472,
                    "duration": 0.16400780000000026
                },
                {
                    "name": "D3",
                    "midi": 50,
                    "time": 33.39795199999997,
                    "velocity": 0.31496062992125984,
                    "duration": 0.29819599999999724
                },
                {
                    "name": "D5",
                    "midi": 74,
                    "time": 33.54704999999997,
                    "velocity": 0.4251968503937008,
                    "duration": 0.16400779999999315
                },
                {
                    "name": "C5",
                    "midi": 72,
                    "time": 33.696147999999965,
                    "velocity": 0.47244094488188976,
                    "duration": 0.16400779999999315
                },
                {
                    "name": "B4",
                    "midi": 71,
                    "time": 33.84524599999996,
                    "velocity": 0.4409448818897638,
                    "duration": 0.14909799999999507
                },
                {
                    "name": "D5",
                    "midi": 74,
                    "time": 33.994343999999955,
                    "velocity": 0.5196850393700787,
                    "duration": 0.16400780000000026
                },
                {
                    "name": "D2",
                    "midi": 38,
                    "time": 33.994343999999955,
                    "velocity": 0.30708661417322836,
                    "duration": 0.29819599999999724
                },
                {
                    "name": "C5",
                    "midi": 72,
                    "time": 34.14344199999996,
                    "velocity": 0.4645669291338583,
                    "duration": 0.16400779999999315
                },
                {
                    "name": "B4",
                    "midi": 71,
                    "time": 34.29253999999995,
                    "velocity": 0.48031496062992124,
                    "duration": 0.16400779999999315
                },
                {
                    "name": "A4",
                    "midi": 69,
                    "time": 34.44163799999995,
                    "velocity": 0.4566929133858268,
                    "duration": 0.16400779999999315
                },
                {
                    "name": "G4",
                    "midi": 67,
                    "time": 34.59073599999994,
                    "velocity": 0.5354330708661418,
                    "duration": 0.5963920000000087
                },
                {
                    "name": "G2",
                    "midi": 43,
                    "time": 34.59073599999994,
                    "velocity": 0.3779527559055118,
                    "duration": 0.14909800000000217
                },
                {
                    "name": "B2",
                    "midi": 47,
                    "time": 34.739833999999945,
                    "velocity": 0.2992125984251969,
                    "duration": 0.14909800000000217
                },
                {
                    "name": "D3",
                    "midi": 50,
                    "time": 34.88893199999995,
                    "velocity": 0.31496062992125984,
                    "duration": 0.14909800000000217
                },
                {
                    "name": "G3",
                    "midi": 55,
                    "time": 35.03802999999995,
                    "velocity": 0.2992125984251969,
                    "duration": 0.14909800000000217
                },
                {
                    "name": "G2",
                    "midi": 43,
                    "time": 35.18712799999995,
                    "velocity": 0.3779527559055118,
                    "duration": 0.29819599999999724
                },
                {
                    "name": "B4",
                    "midi": 71,
                    "time": 35.78351999999995,
                    "velocity": 0.3228346456692913,
                    "duration": 0.29819599999999724
                },
                {
                    "name": "F4",
                    "midi": 65,
                    "time": 35.78351999999995,
                    "velocity": 0.18110236220472442,
                    "duration": 1.1927840000000032
                },
                {
                    "name": "D5",
                    "midi": 74,
                    "time": 36.08171599999995,
                    "velocity": 0.2677165354330709,
                    "duration": 0.14909800000000217
                },
                {
                    "name": "B4",
                    "midi": 71,
                    "time": 36.23081399999995,
                    "velocity": 0.2204724409448819,
                    "duration": 0.14909800000000217
                },
                {
                    "name": "G4",
                    "midi": 67,
                    "time": 36.379911999999955,
                    "velocity": 0.2204724409448819,
                    "duration": 0.11182350000000696
                },
                {
                    "name": "G4",
                    "midi": 67,
                    "time": 36.67810799999996,
                    "velocity": 0.2125984251968504,
                    "duration": 0.11182349999999985
                },
                {
                    "name": "C5",
                    "midi": 72,
                    "time": 36.976303999999956,
                    "velocity": 0.3228346456692913,
                    "duration": 0.29819599999999724
                },
                {
                    "name": "D#4",
                    "midi": 63,
                    "time": 36.976303999999956,
                    "velocity": 0.18110236220472442,
                    "duration": 1.1927840000000032
                },
                {
                    "name": "D#5",
                    "midi": 75,
                    "time": 37.274499999999954,
                    "velocity": 0.2677165354330709,
                    "duration": 0.14909800000000217
                },
                {
                    "name": "C5",
                    "midi": 72,
                    "time": 37.423597999999956,
                    "velocity": 0.2204724409448819,
                    "duration": 0.14909800000000217
                },
                {
                    "name": "G4",
                    "midi": 67,
                    "time": 37.57269599999996,
                    "velocity": 0.2047244094488189,
                    "duration": 0.11182350000000696
                },
                {
                    "name": "G5",
                    "midi": 79,
                    "time": 37.87089199999996,
                    "velocity": 0.25984251968503935,
                    "duration": 0.29819599999999724
                },
                {
                    "name": "F5",
                    "midi": 77,
                    "time": 38.16908799999996,
                    "velocity": 0.29133858267716534,
                    "duration": 0.29819599999999724
                },
                {
                    "name": "B3",
                    "midi": 59,
                    "time": 38.16908799999996,
                    "velocity": 0.18110236220472442,
                    "duration": 0.5963919999999945
                },
                {
                    "name": "D5",
                    "midi": 74,
                    "time": 38.46728399999996,
                    "velocity": 0.25984251968503935,
                    "duration": 0.29819599999999724
                },
                {
                    "name": "D#5",
                    "midi": 75,
                    "time": 38.765479999999954,
                    "velocity": 0.2992125984251969,
                    "duration": 0.29819600000000435
                },
                {
                    "name": "C4",
                    "midi": 60,
                    "time": 38.765479999999954,
                    "velocity": 0.1732283464566929,
                    "duration": 0.5963920000000016
                },
                {
                    "name": "C5",
                    "midi": 72,
                    "time": 39.06367599999996,
                    "velocity": 0.23622047244094488,
                    "duration": 0.29819599999999724
                },
                {
                    "name": "B4",
                    "midi": 71,
                    "time": 39.361871999999956,
                    "velocity": 0.2755905511811024,
                    "duration": 0.14909800000000217
                },
                {
                    "name": "G3",
                    "midi": 55,
                    "time": 39.361871999999956,
                    "velocity": 0.18110236220472442,
                    "duration": 0.5963920000000087
                },
                {
                    "name": "C5",
                    "midi": 72,
                    "time": 39.51096999999996,
                    "velocity": 0.2204724409448819,
                    "duration": 0.14909800000000217
                },
                {
                    "name": "D5",
                    "midi": 74,
                    "time": 39.66006799999996,
                    "velocity": 0.25984251968503935,
                    "duration": 0.14909800000000217
                },
                {
                    "name": "B4",
                    "midi": 71,
                    "time": 39.80916599999996,
                    "velocity": 0.23622047244094488,
                    "duration": 0.14909800000000217
                },
                {
                    "name": "G4",
                    "midi": 67,
                    "time": 39.958263999999964,
                    "velocity": 0.28346456692913385,
                    "duration": 0.11182349999999985
                },
                {
                    "name": "G4",
                    "midi": 67,
                    "time": 40.25645999999996,
                    "velocity": 0.25196850393700787,
                    "duration": 0.11182349999999985
                },
                {
                    "name": "G5",
                    "midi": 79,
                    "time": 40.55465599999996,
                    "velocity": 0.4409448818897638,
                    "duration": 0.14909800000000217
                },
                {
                    "name": "F4",
                    "midi": 65,
                    "time": 40.55465599999996,
                    "velocity": 0.4330708661417323,
                    "duration": 0.29819600000000435
                },
                {
                    "name": "G4",
                    "midi": 67,
                    "time": 40.70375399999996,
                    "velocity": 0.31496062992125984,
                    "duration": 0.14909800000000217
                },
                {
                    "name": "G5",
                    "midi": 79,
                    "time": 40.85285199999996,
                    "velocity": 0.4015748031496063,
                    "duration": 0.14909799999999507
                },
                {
                    "name": "G3",
                    "midi": 55,
                    "time": 40.85285199999996,
                    "velocity": 0.33070866141732286,
                    "duration": 0.29819599999999724
                },
                {
                    "name": "G4",
                    "midi": 67,
                    "time": 41.00194999999996,
                    "velocity": 0.2755905511811024,
                    "duration": 0.14909800000000217
                },
                {
                    "name": "G5",
                    "midi": 79,
                    "time": 41.15104799999996,
                    "velocity": 0.3937007874015748,
                    "duration": 0.14909800000000217
                },
                {
                    "name": "D4",
                    "midi": 62,
                    "time": 41.15104799999996,
                    "velocity": 0.3937007874015748,
                    "duration": 0.29819600000000435
                },
                {
                    "name": "G4",
                    "midi": 67,
                    "time": 41.30014599999996,
                    "velocity": 0.28346456692913385,
                    "duration": 0.14909800000000217
                },
                {
                    "name": "G5",
                    "midi": 79,
                    "time": 41.449243999999965,
                    "velocity": 0.3937007874015748,
                    "duration": 0.14909800000000217
                },
                {
                    "name": "G3",
                    "midi": 55,
                    "time": 41.449243999999965,
                    "velocity": 0.3464566929133858,
                    "duration": 0.29819599999999724
                },
                {
                    "name": "G4",
                    "midi": 67,
                    "time": 41.59834199999997,
                    "velocity": 0.31496062992125984,
                    "duration": 0.14909799999999507
                },
                {
                    "name": "G5",
                    "midi": 79,
                    "time": 41.74743999999996,
                    "velocity": 0.4645669291338583,
                    "duration": 0.14909800000000928
                },
                {
                    "name": "D#4",
                    "midi": 63,
                    "time": 41.74743999999996,
                    "velocity": 0.44881889763779526,
                    "duration": 0.29819600000000435
                },
                {
                    "name": "G4",
                    "midi": 67,
                    "time": 41.89653799999997,
                    "velocity": 0.33858267716535434,
                    "duration": 0.14909799999999507
                },
                {
                    "name": "G5",
                    "midi": 79,
                    "time": 42.045635999999966,
                    "velocity": 0.4015748031496063,
                    "duration": 0.14909800000000217
                },
                {
                    "name": "G3",
                    "midi": 55,
                    "time": 42.045635999999966,
                    "velocity": 0.36220472440944884,
                    "duration": 0.29819599999999724
                },
                {
                    "name": "G4",
                    "midi": 67,
                    "time": 42.19473399999997,
                    "velocity": 0.30708661417322836,
                    "duration": 0.14909799999999507
                },
                {
                    "name": "G5",
                    "midi": 79,
                    "time": 42.34383199999996,
                    "velocity": 0.3858267716535433,
                    "duration": 0.14909800000000217
                },
                {
                    "name": "C4",
                    "midi": 60,
                    "time": 42.34383199999996,
                    "velocity": 0.41732283464566927,
                    "duration": 0.29819600000000435
                },
                {
                    "name": "G4",
                    "midi": 67,
                    "time": 42.492929999999966,
                    "velocity": 0.29133858267716534,
                    "duration": 0.14909800000000217
                },
                {
                    "name": "G5",
                    "midi": 79,
                    "time": 42.64202799999997,
                    "velocity": 0.3700787401574803,
                    "duration": 0.14909800000000217
                },
                {
                    "name": "G3",
                    "midi": 55,
                    "time": 42.64202799999997,
                    "velocity": 0.3464566929133858,
                    "duration": 0.29819600000000435
                },
                {
                    "name": "G4",
                    "midi": 67,
                    "time": 42.79112599999997,
                    "velocity": 0.29133858267716534,
                    "duration": 0.14909800000000217
                },
                {
                    "name": "D5",
                    "midi": 74,
                    "time": 42.94022399999997,
                    "velocity": 0.4015748031496063,
                    "duration": 0.16400779999999315
                },
                {
                    "name": "B3",
                    "midi": 59,
                    "time": 42.94022399999997,
                    "velocity": 0.4015748031496063,
                    "duration": 0.29819599999999014
                },
                {
                    "name": "D#5",
                    "midi": 75,
                    "time": 43.08932199999997,
                    "velocity": 0.33858267716535434,
                    "duration": 0.16400779999999315
                },
                {
                    "name": "F5",
                    "midi": 77,
                    "time": 43.23841999999996,
                    "velocity": 0.3937007874015748,
                    "duration": 0.16400779999999315
                },
                {
                    "name": "D5",
                    "midi": 74,
                    "time": 43.38751799999996,
                    "velocity": 0.3779527559055118,
                    "duration": 0.16400779999999315
                },
                {
                    "name": "F5",
                    "midi": 77,
                    "time": 43.53661599999995,
                    "velocity": 0.47244094488188976,
                    "duration": 0.16400779999999315
                },
                {
                    "name": "C4",
                    "midi": 60,
                    "time": 43.53661599999995,
                    "velocity": 0.3700787401574803,
                    "duration": 0.29819599999999014
                },
                {
                    "name": "D#5",
                    "midi": 75,
                    "time": 43.68571399999995,
                    "velocity": 0.3779527559055118,
                    "duration": 0.16400779999999315
                },
                {
                    "name": "D5",
                    "midi": 74,
                    "time": 43.83481199999994,
                    "velocity": 0.4251968503937008,
                    "duration": 0.16400779999999315
                },
                {
                    "name": "C5",
                    "midi": 72,
                    "time": 43.98390999999994,
                    "velocity": 0.3779527559055118,
                    "duration": 0.16400779999999315
                },
                {
                    "name": "G5",
                    "midi": 79,
                    "time": 44.13300799999993,
                    "velocity": 0.48031496062992124,
                    "duration": 0.29819599999999724
                },
                {
                    "name": "B4",
                    "midi": 71,
                    "time": 44.13300799999993,
                    "velocity": 0.48031496062992124,
                    "duration": 0.29819599999999724
                },
                {
                    "name": "G3",
                    "midi": 55,
                    "time": 44.13300799999993,
                    "velocity": 0.4330708661417323,
                    "duration": 0.29819599999999724
                },
                {
                    "name": "G2",
                    "midi": 43,
                    "time": 44.43120399999993,
                    "velocity": 0.2992125984251969,
                    "duration": 0.29819599999999724
                },
                {
                    "name": "G3",
                    "midi": 55,
                    "time": 44.72939999999993,
                    "velocity": 0.3779527559055118,
                    "duration": 0.16400779999999315
                },
                {
                    "name": "F3",
                    "midi": 53,
                    "time": 44.87849799999992,
                    "velocity": 0.2992125984251969,
                    "duration": 0.16400780000000736
                },
                {
                    "name": "E3",
                    "midi": 52,
                    "time": 45.027595999999924,
                    "velocity": 0.31496062992125984,
                    "duration": 0.16400780000000736
                },
                {
                    "name": "D3",
                    "midi": 50,
                    "time": 45.176693999999934,
                    "velocity": 0.2992125984251969,
                    "duration": 0.16400779999999315
                },
                {
                    "name": "C4",
                    "midi": 60,
                    "time": 45.32579199999993,
                    "velocity": 0.29133858267716534,
                    "duration": 0.29819599999999724
                },
                {
                    "name": "C3",
                    "midi": 48,
                    "time": 45.32579199999993,
                    "velocity": 0.16535433070866143,
                    "duration": 0.29819599999999724
                },
                {
                    "name": "E4",
                    "midi": 64,
                    "time": 45.623987999999926,
                    "velocity": 0.23622047244094488,
                    "duration": 0.14909800000000217
                },
                {
                    "name": "C4",
                    "midi": 60,
                    "time": 45.77308599999993,
                    "velocity": 0.2125984251968504,
                    "duration": 0.14909800000000217
                },
                {
                    "name": "G3",
                    "midi": 55,
                    "time": 45.92218399999993,
                    "velocity": 0.2047244094488189,
                    "duration": 0.11182349999999985
                },
                {
                    "name": "G3",
                    "midi": 55,
                    "time": 46.22037999999993,
                    "velocity": 0.1889763779527559,
                    "duration": 0.11182349999999985
                },
                {
                    "name": "C4",
                    "midi": 60,
                    "time": 46.518575999999925,
                    "velocity": 0.29133858267716534,
                    "duration": 0.29819600000000435
                },
                {
                    "name": "C3",
                    "midi": 48,
                    "time": 46.518575999999925,
                    "velocity": 0.16535433070866143,
                    "duration": 0.29819600000000435
                },
                {
                    "name": "E4",
                    "midi": 64,
                    "time": 46.81677199999993,
                    "velocity": 0.2283464566929134,
                    "duration": 0.14909800000000217
                },
                {
                    "name": "C4",
                    "midi": 60,
                    "time": 46.96586999999993,
                    "velocity": 0.2047244094488189,
                    "duration": 0.14909800000000217
                },
                {
                    "name": "G3",
                    "midi": 55,
                    "time": 47.114967999999934,
                    "velocity": 0.1889763779527559,
                    "duration": 0.11182349999999985
                },
                {
                    "name": "G4",
                    "midi": 67,
                    "time": 47.41316399999993,
                    "velocity": 0.23622047244094488,
                    "duration": 0.14909800000000217
                },
                {
                    "name": "F4",
                    "midi": 65,
                    "time": 47.711359999999935,
                    "velocity": 0.2677165354330709,
                    "duration": 0.16400780000000026
                },
                {
                    "name": "C3",
                    "midi": 48,
                    "time": 47.711359999999935,
                    "velocity": 0.16535433070866143,
                    "duration": 0.29819599999999724
                },
                {
                    "name": "E4",
                    "midi": 64,
                    "time": 47.86045799999994,
                    "velocity": 0.1889763779527559,
                    "duration": 0.16400779999999315
                },
                {
                    "name": "D4",
                    "midi": 62,
                    "time": 48.00955599999993,
                    "velocity": 0.2204724409448819,
                    "duration": 0.16400779999999315
                },
                {
                    "name": "C4",
                    "midi": 60,
                    "time": 48.15865399999993,
                    "velocity": 0.18110236220472442,
                    "duration": 0.16400780000000026
                },
                {
                    "name": "B3",
                    "midi": 59,
                    "time": 48.30775199999993,
                    "velocity": 0.2440944881889764,
                    "duration": 0.16400779999999315
                },
                {
                    "name": "C3",
                    "midi": 48,
                    "time": 48.30775199999993,
                    "velocity": 0.13385826771653545,
                    "duration": 0.29819599999999014
                },
                {
                    "name": "C4",
                    "midi": 60,
                    "time": 48.456849999999925,
                    "velocity": 0.2204724409448819,
                    "duration": 0.16400779999999315
                },
                {
                    "name": "B3",
                    "midi": 59,
                    "time": 48.60594799999992,
                    "velocity": 0.25196850393700787,
                    "duration": 0.16400779999999315
                },
                {
                    "name": "C4",
                    "midi": 60,
                    "time": 48.755045999999915,
                    "velocity": 0.2204724409448819,
                    "duration": 0.16400780000000026
                },
                {
                    "name": "D4",
                    "midi": 62,
                    "time": 48.90414399999992,
                    "velocity": 0.2755905511811024,
                    "duration": 0.16400780000000026
                },
                {
                    "name": "G2",
                    "midi": 43,
                    "time": 48.90414399999992,
                    "velocity": 0.16535433070866143,
                    "duration": 0.29819600000000435
                },
                {
                    "name": "C4",
                    "midi": 60,
                    "time": 49.05324199999992,
                    "velocity": 0.23622047244094488,
                    "duration": 0.16400780000000026
                },
                {
                    "name": "B3",
                    "midi": 59,
                    "time": 49.20233999999992,
                    "velocity": 0.2283464566929134,
                    "duration": 0.16400780000000026
                },
                {
                    "name": "A3",
                    "midi": 57,
                    "time": 49.35143799999992,
                    "velocity": 0.2204724409448819,
                    "duration": 0.16400779999999315
                },
                {
                    "name": "G3",
                    "midi": 55,
                    "time": 49.50053599999992,
                    "velocity": 0.29133858267716534,
                    "duration": 0.29819599999999724
                },
                {
                    "name": "G2",
                    "midi": 43,
                    "time": 49.50053599999992,
                    "velocity": 0.1889763779527559,
                    "duration": 0.16400779999999315
                },
                {
                    "name": "F2",
                    "midi": 41,
                    "time": 49.649633999999914,
                    "velocity": 0.14960629921259844,
                    "duration": 0.16400780000000736
                },
                {
                    "name": "E2",
                    "midi": 40,
                    "time": 49.798731999999916,
                    "velocity": 0.16535433070866143,
                    "duration": 0.16400780000000736
                },
                {
                    "name": "D2",
                    "midi": 38,
                    "time": 49.947829999999925,
                    "velocity": 0.14960629921259844,
                    "duration": 0.16400779999999315
                },
                {
                    "name": "C4",
                    "midi": 60,
                    "time": 50.09692799999992,
                    "velocity": 0.3464566929133858,
                    "duration": 0.29819599999999724
                },
                {
                    "name": "C2",
                    "midi": 36,
                    "time": 50.09692799999992,
                    "velocity": 0.1968503937007874,
                    "duration": 0.29819599999999724
                },
                {
                    "name": "G3",
                    "midi": 55,
                    "time": 50.39512399999992,
                    "velocity": 0.28346456692913385,
                    "duration": 0.14909800000000217
                },
                {
                    "name": "C4",
                    "midi": 60,
                    "time": 50.54422199999992,
                    "velocity": 0.25196850393700787,
                    "duration": 0.14909800000000217
                },
                {
                    "name": "E4",
                    "midi": 64,
                    "time": 50.69331999999992,
                    "velocity": 0.29133858267716534,
                    "duration": 0.11182349999999985
                },
                {
                    "name": "E4",
                    "midi": 64,
                    "time": 50.99151599999992,
                    "velocity": 0.2440944881889764,
                    "duration": 0.11182349999999985
                },
                {
                    "name": "E4",
                    "midi": 64,
                    "time": 51.289711999999916,
                    "velocity": 0.3779527559055118,
                    "duration": 0.29819599999999724
                },
                {
                    "name": "C3",
                    "midi": 48,
                    "time": 51.289711999999916,
                    "velocity": 0.2125984251968504,
                    "duration": 0.29819599999999724
                },
                {
                    "name": "C4",
                    "midi": 60,
                    "time": 51.58790799999991,
                    "velocity": 0.3228346456692913,
                    "duration": 0.14909800000000217
                },
                {
                    "name": "E4",
                    "midi": 64,
                    "time": 51.737005999999916,
                    "velocity": 0.29133858267716534,
                    "duration": 0.14909800000000217
                },
                {
                    "name": "G4",
                    "midi": 67,
                    "time": 51.88610399999992,
                    "velocity": 0.3464566929133858,
                    "duration": 0.11182349999999985
                },
                {
                    "name": "C5",
                    "midi": 72,
                    "time": 52.184299999999915,
                    "velocity": 0.2992125984251969,
                    "duration": 0.11182349999999985
                },
                {
                    "name": "E4",
                    "midi": 64,
                    "time": 52.48249599999991,
                    "velocity": 0.3464566929133858,
                    "duration": 0.11182349999999985
                },
                {
                    "name": "G4",
                    "midi": 67,
                    "time": 52.48249599999991,
                    "velocity": 0.4094488188976378,
                    "duration": 0.11182349999999985
                },
                {
                    "name": "G3",
                    "midi": 55,
                    "time": 52.48249599999991,
                    "velocity": 0.2755905511811024,
                    "duration": 0.29819599999999724
                },
                {
                    "name": "F4",
                    "midi": 65,
                    "time": 52.78069199999991,
                    "velocity": 0.36220472440944884,
                    "duration": 0.11182349999999985
                },
                {
                    "name": "D4",
                    "midi": 62,
                    "time": 52.78069199999991,
                    "velocity": 0.30708661417322836,
                    "duration": 0.11182349999999985
                },
                {
                    "name": "C4",
                    "midi": 60,
                    "time": 53.07888799999991,
                    "velocity": 0.3937007874015748,
                    "duration": 0.11182349999999985
                },
                {
                    "name": "E4",
                    "midi": 64,
                    "time": 53.07888799999991,
                    "velocity": 0.4645669291338583,
                    "duration": 0.11182349999999985
                },
                {
                    "name": "G2",
                    "midi": 43,
                    "time": 53.07888799999991,
                    "velocity": 0.31496062992125984,
                    "duration": 0.29819599999999724
                },
                {
                    "name": "D4",
                    "midi": 62,
                    "time": 53.377083999999904,
                    "velocity": 0.41732283464566927,
                    "duration": 0.11182349999999985
                },
                {
                    "name": "B3",
                    "midi": 59,
                    "time": 53.377083999999904,
                    "velocity": 0.3464566929133858,
                    "duration": 0.11182349999999985
                },
                {
                    "name": "C4",
                    "midi": 60,
                    "time": 53.6752799999999,
                    "velocity": 0.5354330708661418,
                    "duration": 0.16400780000000026
                },
                {
                    "name": "C3",
                    "midi": 48,
                    "time": 53.6752799999999,
                    "velocity": 0.31496062992125984,
                    "duration": 0.29819600000000435
                },
                {
                    "name": "D4",
                    "midi": 62,
                    "time": 53.8243779999999,
                    "velocity": 0.4251968503937008,
                    "duration": 0.16400780000000026
                },
                {
                    "name": "E4",
                    "midi": 64,
                    "time": 53.973475999999906,
                    "velocity": 0.47244094488188976,
                    "duration": 0.16400780000000026
                },
                {
                    "name": "F4",
                    "midi": 65,
                    "time": 54.12257399999991,
                    "velocity": 0.4566929133858268,
                    "duration": 0.16400780000000026
                },
                {
                    "name": "G4",
                    "midi": 67,
                    "time": 54.27167199999991,
                    "velocity": 0.5354330708661418,
                    "duration": 0.16400779999999315
                },
                {
                    "name": "A4",
                    "midi": 69,
                    "time": 54.420769999999905,
                    "velocity": 0.4566929133858268,
                    "duration": 0.16400779999999315
                },
                {
                    "name": "B4",
                    "midi": 71,
                    "time": 54.5698679999999,
                    "velocity": 0.4881889763779528,
                    "duration": 0.16400779999999315
                },
                {
                    "name": "C5",
                    "midi": 72,
                    "time": 54.718965999999895,
                    "velocity": 0.4566929133858268,
                    "duration": 0.14909799999999507
                },
                {
                    "name": "D4",
                    "midi": 62,
                    "time": 54.86806399999989,
                    "velocity": 0.5196850393700787,
                    "duration": 0.29819600000000435
                },
                {
                    "name": "B2",
                    "midi": 47,
                    "time": 54.86806399999989,
                    "velocity": 0.31496062992125984,
                    "duration": 0.14909800000000217
                },
                {
                    "name": "G3",
                    "midi": 55,
                    "time": 55.01716199999989,
                    "velocity": 0.2755905511811024,
                    "duration": 0.14909800000000217
                },
                {
                    "name": "D5",
                    "midi": 74,
                    "time": 55.166259999999895,
                    "velocity": 0.4251968503937008,
                    "duration": 0.14909800000000217
                },
                {
                    "name": "D3",
                    "midi": 50,
                    "time": 55.166259999999895,
                    "velocity": 0.2755905511811024,
                    "duration": 0.14909800000000217
                },
                {
                    "name": "G3",
                    "midi": 55,
                    "time": 55.3153579999999,
                    "velocity": 0.2755905511811024,
                    "duration": 0.14909800000000217
                },
                {
                    "name": "D5",
                    "midi": 74,
                    "time": 55.4644559999999,
                    "velocity": 0.44881889763779526,
                    "duration": 0.14909800000000217
                },
                {
                    "name": "B2",
                    "midi": 47,
                    "time": 55.4644559999999,
                    "velocity": 0.31496062992125984,
                    "duration": 0.14909800000000217
                },
                {
                    "name": "G3",
                    "midi": 55,
                    "time": 55.6135539999999,
                    "velocity": 0.29133858267716534,
                    "duration": 0.14909800000000217
                },
                {
                    "name": "D5",
                    "midi": 74,
                    "time": 55.7626519999999,
                    "velocity": 0.41732283464566927,
                    "duration": 0.14909800000000217
                },
                {
                    "name": "D3",
                    "midi": 50,
                    "time": 55.7626519999999,
                    "velocity": 0.29133858267716534,
                    "duration": 0.14909800000000217
                },
                {
                    "name": "G3",
                    "midi": 55,
                    "time": 55.911749999999905,
                    "velocity": 0.29133858267716534,
                    "duration": 0.14909800000000217
                },
                {
                    "name": "E4",
                    "midi": 64,
                    "time": 56.06084799999991,
                    "velocity": 0.5354330708661418,
                    "duration": 0.16400780000000026
                },
                {
                    "name": "C3",
                    "midi": 48,
                    "time": 56.06084799999991,
                    "velocity": 0.31496062992125984,
                    "duration": 0.29819600000000435
                },
                {
                    "name": "F4",
                    "midi": 65,
                    "time": 56.20994599999991,
                    "velocity": 0.4330708661417323,
                    "duration": 0.16400780000000736
                },
                {
                    "name": "G4",
                    "midi": 67,
                    "time": 56.35904399999991,
                    "velocity": 0.47244094488188976,
                    "duration": 0.16400780000000026
                },
                {
                    "name": "A4",
                    "midi": 69,
                    "time": 56.508141999999914,
                    "velocity": 0.4409448818897638,
                    "duration": 0.16400780000000026
                },
                {
                    "name": "B4",
                    "midi": 71,
                    "time": 56.65723999999991,
                    "velocity": 0.5354330708661418,
                    "duration": 0.16400780000000736
                },
                {
                    "name": "C5",
                    "midi": 72,
                    "time": 56.80633799999992,
                    "velocity": 0.4645669291338583,
                    "duration": 0.16400780000000026
                },
                {
                    "name": "D5",
                    "midi": 74,
                    "time": 56.95543599999992,
                    "velocity": 0.4881889763779528,
                    "duration": 0.16400779999999315
                },
                {
                    "name": "E5",
                    "midi": 76,
                    "time": 57.104533999999916,
                    "velocity": 0.4566929133858268,
                    "duration": 0.14909799999999507
                },
                {
                    "name": "F4",
                    "midi": 65,
                    "time": 57.25363199999991,
                    "velocity": 0.5196850393700787,
                    "duration": 0.29819600000000435
                },
                {
                    "name": "D3",
                    "midi": 50,
                    "time": 57.25363199999991,
                    "velocity": 0.31496062992125984,
                    "duration": 0.14909800000000217
                },
                {
                    "name": "G3",
                    "midi": 55,
                    "time": 57.40272999999991,
                    "velocity": 0.2755905511811024,
                    "duration": 0.14909800000000217
                },
                {
                    "name": "F5",
                    "midi": 77,
                    "time": 57.551827999999915,
                    "velocity": 0.41732283464566927,
                    "duration": 0.14909800000000217
                },
                {
                    "name": "F3",
                    "midi": 53,
                    "time": 57.551827999999915,
                    "velocity": 0.2755905511811024,
                    "duration": 0.14909800000000217
                },
                {
                    "name": "G3",
                    "midi": 55,
                    "time": 57.70092599999992,
                    "velocity": 0.2755905511811024,
                    "duration": 0.14909800000000217
                },
                {
                    "name": "F5",
                    "midi": 77,
                    "time": 57.85002399999992,
                    "velocity": 0.44881889763779526,
                    "duration": 0.14909800000000217
                },
                {
                    "name": "D3",
                    "midi": 50,
                    "time": 57.85002399999992,
                    "velocity": 0.31496062992125984,
                    "duration": 0.14909800000000217
                },
                {
                    "name": "G3",
                    "midi": 55,
                    "time": 57.99912199999992,
                    "velocity": 0.29133858267716534,
                    "duration": 0.14909800000000217
                },
                {
                    "name": "F5",
                    "midi": 77,
                    "time": 58.148219999999924,
                    "velocity": 0.4330708661417323,
                    "duration": 0.14909800000000217
                },
                {
                    "name": "F3",
                    "midi": 53,
                    "time": 58.148219999999924,
                    "velocity": 0.29133858267716534,
                    "duration": 0.14909800000000217
                },
                {
                    "name": "G3",
                    "midi": 55,
                    "time": 58.297317999999926,
                    "velocity": 0.29133858267716534,
                    "duration": 0.14909800000000217
                },
                {
                    "name": "G4",
                    "midi": 67,
                    "time": 58.44641599999993,
                    "velocity": 0.5354330708661418,
                    "duration": 0.14909800000000217
                },
                {
                    "name": "E3",
                    "midi": 52,
                    "time": 58.44641599999993,
                    "velocity": 0.31496062992125984,
                    "duration": 0.29819600000000435
                },
                {
                    "name": "C5",
                    "midi": 72,
                    "time": 58.59551399999993,
                    "velocity": 0.4645669291338583,
                    "duration": 0.14909800000000217
                },
                {
                    "name": "E5",
                    "midi": 76,
                    "time": 58.74461199999993,
                    "velocity": 0.49606299212598426,
                    "duration": 0.14909800000000217
                },
                {
                    "name": "G5",
                    "midi": 79,
                    "time": 58.893709999999935,
                    "velocity": 0.48031496062992124,
                    "duration": 0.14909800000000217
                },
                {
                    "name": "F5",
                    "midi": 77,
                    "time": 59.04280799999994,
                    "velocity": 0.5354330708661418,
                    "duration": 0.16400780000000026
                },
                {
                    "name": "E5",
                    "midi": 76,
                    "time": 59.19190599999994,
                    "velocity": 0.4566929133858268,
                    "duration": 0.16400780000000026
                },
                {
                    "name": "D5",
                    "midi": 74,
                    "time": 59.34100399999994,
                    "velocity": 0.4881889763779528,
                    "duration": 0.16400779999999315
                },
                {
                    "name": "C5",
                    "midi": 72,
                    "time": 59.490101999999936,
                    "velocity": 0.4645669291338583,
                    "duration": 0.14909800000000217
                },
                {
                    "name": "A5",
                    "midi": 81,
                    "time": 59.63919999999994,
                    "velocity": 0.5354330708661418,
                    "duration": 0.16400780000000026
                },
                {
                    "name": "F3",
                    "midi": 53,
                    "time": 59.63919999999994,
                    "velocity": 0.31496062992125984,
                    "duration": 0.29819599999999724
                },
                {
                    "name": "G5",
                    "midi": 79,
                    "time": 59.78829799999994,
                    "velocity": 0.48031496062992124,
                    "duration": 0.16400779999999315
                },
                {
                    "name": "F5",
                    "midi": 77,
                    "time": 59.937395999999936,
                    "velocity": 0.5118110236220472,
                    "duration": 0.16400779999999315
                },
                {
                    "name": "E5",
                    "midi": 76,
                    "time": 60.08649399999993,
                    "velocity": 0.44881889763779526,
                    "duration": 0.16400779999999315
                },
                {
                    "name": "D5",
                    "midi": 74,
                    "time": 60.235591999999926,
                    "velocity": 0.5354330708661418,
                    "duration": 0.16400779999999315
                },
                {
                    "name": "F3",
                    "midi": 53,
                    "time": 60.235591999999926,
                    "velocity": 0.29133858267716534,
                    "duration": 0.29819599999999014
                },
                {
                    "name": "C5",
                    "midi": 72,
                    "time": 60.38468999999992,
                    "velocity": 0.48031496062992124,
                    "duration": 0.16400779999999315
                },
                {
                    "name": "B4",
                    "midi": 71,
                    "time": 60.533787999999916,
                    "velocity": 0.5039370078740157,
                    "duration": 0.16400779999999315
                },
                {
                    "name": "A4",
                    "midi": 69,
                    "time": 60.68288599999991,
                    "velocity": 0.4645669291338583,
                    "duration": 0.14909799999999507
                },
                {
                    "name": "G4",
                    "midi": 67,
                    "time": 60.831983999999906,
                    "velocity": 0.5118110236220472,
                    "duration": 0.16400780000000026
                },
                {
                    "name": "G3",
                    "midi": 55,
                    "time": 60.831983999999906,
                    "velocity": 0.31496062992125984,
                    "duration": 0.29819599999999724
                },
                {
                    "name": "A4",
                    "midi": 69,
                    "time": 60.98108199999991,
                    "velocity": 0.4251968503937008,
                    "duration": 0.16400779999999315
                },
                {
                    "name": "F4",
                    "midi": 65,
                    "time": 61.1301799999999,
                    "velocity": 0.47244094488188976,
                    "duration": 0.16400779999999315
                },
                {
                    "name": "G4",
                    "midi": 67,
                    "time": 61.2792779999999,
                    "velocity": 0.4409448818897638,
                    "duration": 0.16400779999999315
                },
                {
                    "name": "E4",
                    "midi": 64,
                    "time": 61.42837599999989,
                    "velocity": 0.5196850393700787,
                    "duration": 0.16400779999999315
                },
                {
                    "name": "G2",
                    "midi": 43,
                    "time": 61.42837599999989,
                    "velocity": 0.30708661417322836,
                    "duration": 0.29819599999999014
                },
                {
                    "name": "F4",
                    "midi": 65,
                    "time": 61.57747399999989,
                    "velocity": 0.4645669291338583,
                    "duration": 0.16400779999999315
                },
                {
                    "name": "D4",
                    "midi": 62,
                    "time": 61.726571999999884,
                    "velocity": 0.48031496062992124,
                    "duration": 0.16400779999999315
                },
                {
                    "name": "E4",
                    "midi": 64,
                    "time": 61.87566999999988,
                    "velocity": 0.4566929133858268,
                    "duration": 0.16400779999999315
                },
                {
                    "name": "C4",
                    "midi": 60,
                    "time": 62.024767999999874,
                    "velocity": 0.5354330708661418,
                    "duration": 0.5963920000000087
                },
                {
                    "name": "C2",
                    "midi": 36,
                    "time": 62.024767999999874,
                    "velocity": 0.3779527559055118,
                    "duration": 0.14909800000000217
                },
                {
                    "name": "E2",
                    "midi": 40,
                    "time": 62.173865999999876,
                    "velocity": 0.2992125984251969,
                    "duration": 0.14909800000000217
                },
                {
                    "name": "G2",
                    "midi": 43,
                    "time": 62.32296399999988,
                    "velocity": 0.31496062992125984,
                    "duration": 0.14909800000000217
                },
                {
                    "name": "C3",
                    "midi": 48,
                    "time": 62.47206199999988,
                    "velocity": 0.2992125984251969,
                    "duration": 0.14909800000000217
                },
                {
                    "name": "C2",
                    "midi": 36,
                    "time": 62.62115999999988,
                    "velocity": 0.3779527559055118,
                    "duration": 0.29819599999999724
                },
                {
                    "name": "B4",
                    "midi": 71,
                    "time": 63.217551999999884,
                    "velocity": 0.3228346456692913,
                    "duration": 0.29819599999999724
                },
                {
                    "name": "F4",
                    "midi": 65,
                    "time": 63.217551999999884,
                    "velocity": 0.18110236220472442,
                    "duration": 1.1927840000000174
                },
                {
                    "name": "D5",
                    "midi": 74,
                    "time": 63.51574799999988,
                    "velocity": 0.2677165354330709,
                    "duration": 0.14909800000000217
                },
                {
                    "name": "B4",
                    "midi": 71,
                    "time": 63.66484599999988,
                    "velocity": 0.2204724409448819,
                    "duration": 0.14909800000000217
                },
                {
                    "name": "G4",
                    "midi": 67,
                    "time": 63.813943999999886,
                    "velocity": 0.2204724409448819,
                    "duration": 0.11182350000000696
                },
                {
                    "name": "G4",
                    "midi": 67,
                    "time": 64.1121399999999,
                    "velocity": 0.1889763779527559,
                    "duration": 0.11182349999999985
                },
                {
                    "name": "C5",
                    "midi": 72,
                    "time": 64.4103359999999,
                    "velocity": 0.3228346456692913,
                    "duration": 0.29819600000000435
                },
                {
                    "name": "D#4",
                    "midi": 63,
                    "time": 64.4103359999999,
                    "velocity": 0.18110236220472442,
                    "duration": 1.1927840000000032
                },
                {
                    "name": "D#5",
                    "midi": 75,
                    "time": 64.7085319999999,
                    "velocity": 0.2677165354330709,
                    "duration": 0.14909799999999507
                },
                {
                    "name": "C5",
                    "midi": 72,
                    "time": 64.8576299999999,
                    "velocity": 0.2204724409448819,
                    "duration": 0.14909799999999507
                },
                {
                    "name": "G4",
                    "midi": 67,
                    "time": 65.0067279999999,
                    "velocity": 0.2204724409448819,
                    "duration": 0.11182349999999985
                },
                {
                    "name": "G5",
                    "midi": 79,
                    "time": 65.3049239999999,
                    "velocity": 0.25984251968503935,
                    "duration": 0.29819600000000435
                },
                {
                    "name": "F5",
                    "midi": 77,
                    "time": 65.6031199999999,
                    "velocity": 0.29133858267716534,
                    "duration": 0.29819600000000435
                },
                {
                    "name": "B3",
                    "midi": 59,
                    "time": 65.6031199999999,
                    "velocity": 0.18110236220472442,
                    "duration": 0.5963920000000087
                },
                {
                    "name": "D5",
                    "midi": 74,
                    "time": 65.90131599999991,
                    "velocity": 0.25984251968503935,
                    "duration": 0.29819600000000435
                },
                {
                    "name": "D#5",
                    "midi": 75,
                    "time": 66.19951199999991,
                    "velocity": 0.2992125984251969,
                    "duration": 0.29819600000000435
                },
                {
                    "name": "C4",
                    "midi": 60,
                    "time": 66.19951199999991,
                    "velocity": 0.1732283464566929,
                    "duration": 0.5963920000000087
                },
                {
                    "name": "C5",
                    "midi": 72,
                    "time": 66.49770799999992,
                    "velocity": 0.23622047244094488,
                    "duration": 0.29819600000000435
                },
                {
                    "name": "B4",
                    "midi": 71,
                    "time": 66.79590399999992,
                    "velocity": 0.2755905511811024,
                    "duration": 0.14909799999999507
                },
                {
                    "name": "G3",
                    "midi": 55,
                    "time": 66.79590399999992,
                    "velocity": 0.18110236220472442,
                    "duration": 0.5963919999999803
                },
                {
                    "name": "C5",
                    "midi": 72,
                    "time": 66.94500199999992,
                    "velocity": 0.2204724409448819,
                    "duration": 0.14909799999999507
                },
                {
                    "name": "D5",
                    "midi": 74,
                    "time": 67.09409999999991,
                    "velocity": 0.25984251968503935,
                    "duration": 0.14909799999999507
                },
                {
                    "name": "B4",
                    "midi": 71,
                    "time": 67.24319799999991,
                    "velocity": 0.23622047244094488,
                    "duration": 0.14909799999999507
                },
                {
                    "name": "G4",
                    "midi": 67,
                    "time": 67.3922959999999,
                    "velocity": 0.28346456692913385,
                    "duration": 0.11182349999999985
                },
                {
                    "name": "G4",
                    "midi": 67,
                    "time": 67.6904919999999,
                    "velocity": 0.25196850393700787,
                    "duration": 0.11182349999999985
                },
                {
                    "name": "G5",
                    "midi": 79,
                    "time": 67.98868799999991,
                    "velocity": 0.4409448818897638,
                    "duration": 0.14909799999999507
                },
                {
                    "name": "F4",
                    "midi": 65,
                    "time": 67.98868799999991,
                    "velocity": 0.4330708661417323,
                    "duration": 0.29819600000000435
                },
                {
                    "name": "G4",
                    "midi": 67,
                    "time": 68.1377859999999,
                    "velocity": 0.31496062992125984,
                    "duration": 0.14909800000000928
                },
                {
                    "name": "G5",
                    "midi": 79,
                    "time": 68.28688399999992,
                    "velocity": 0.4015748031496063,
                    "duration": 0.14909799999999507
                },
                {
                    "name": "G3",
                    "midi": 55,
                    "time": 68.28688399999992,
                    "velocity": 0.33070866141732286,
                    "duration": 0.29819599999999014
                },
                {
                    "name": "G4",
                    "midi": 67,
                    "time": 68.43598199999991,
                    "velocity": 0.2755905511811024,
                    "duration": 0.14909799999999507
                },
                {
                    "name": "G5",
                    "midi": 79,
                    "time": 68.5850799999999,
                    "velocity": 0.3937007874015748,
                    "duration": 0.14909799999999507
                },
                {
                    "name": "D4",
                    "midi": 62,
                    "time": 68.5850799999999,
                    "velocity": 0.3937007874015748,
                    "duration": 0.29819599999999014
                },
                {
                    "name": "G4",
                    "midi": 67,
                    "time": 68.7341779999999,
                    "velocity": 0.28346456692913385,
                    "duration": 0.14909799999999507
                },
                {
                    "name": "G5",
                    "midi": 79,
                    "time": 68.8832759999999,
                    "velocity": 0.3937007874015748,
                    "duration": 0.14909799999999507
                },
                {
                    "name": "G3",
                    "midi": 55,
                    "time": 68.8832759999999,
                    "velocity": 0.3464566929133858,
                    "duration": 0.29819600000000435
                },
                {
                    "name": "G4",
                    "midi": 67,
                    "time": 69.03237399999989,
                    "velocity": 0.31496062992125984,
                    "duration": 0.14909800000000928
                },
                {
                    "name": "G5",
                    "midi": 79,
                    "time": 69.1814719999999,
                    "velocity": 0.4645669291338583,
                    "duration": 0.14909799999999507
                },
                {
                    "name": "D#4",
                    "midi": 63,
                    "time": 69.1814719999999,
                    "velocity": 0.44881889763779526,
                    "duration": 0.29819599999999014
                },
                {
                    "name": "G4",
                    "midi": 67,
                    "time": 69.3305699999999,
                    "velocity": 0.33858267716535434,
                    "duration": 0.14909799999999507
                },
                {
                    "name": "G5",
                    "midi": 79,
                    "time": 69.47966799999989,
                    "velocity": 0.4015748031496063,
                    "duration": 0.14909799999999507
                },
                {
                    "name": "G3",
                    "midi": 55,
                    "time": 69.47966799999989,
                    "velocity": 0.36220472440944884,
                    "duration": 0.29819600000000435
                },
                {
                    "name": "G4",
                    "midi": 67,
                    "time": 69.62876599999989,
                    "velocity": 0.30708661417322836,
                    "duration": 0.14909800000000928
                },
                {
                    "name": "G5",
                    "midi": 79,
                    "time": 69.7778639999999,
                    "velocity": 0.3858267716535433,
                    "duration": 0.14909799999999507
                },
                {
                    "name": "C4",
                    "midi": 60,
                    "time": 69.7778639999999,
                    "velocity": 0.41732283464566927,
                    "duration": 0.29819599999999014
                },
                {
                    "name": "G4",
                    "midi": 67,
                    "time": 69.92696199999989,
                    "velocity": 0.29133858267716534,
                    "duration": 0.14909799999999507
                },
                {
                    "name": "G5",
                    "midi": 79,
                    "time": 70.07605999999988,
                    "velocity": 0.3700787401574803,
                    "duration": 0.14909799999999507
                },
                {
                    "name": "G3",
                    "midi": 55,
                    "time": 70.07605999999988,
                    "velocity": 0.3464566929133858,
                    "duration": 0.29819599999999014
                },
                {
                    "name": "G4",
                    "midi": 67,
                    "time": 70.22515799999988,
                    "velocity": 0.29133858267716534,
                    "duration": 0.14909799999999507
                },
                {
                    "name": "D5",
                    "midi": 74,
                    "time": 70.37425599999987,
                    "velocity": 0.4015748031496063,
                    "duration": 0.16400779999999315
                },
                {
                    "name": "B3",
                    "midi": 59,
                    "time": 70.37425599999987,
                    "velocity": 0.4015748031496063,
                    "duration": 0.29819599999999014
                },
                {
                    "name": "D#5",
                    "midi": 75,
                    "time": 70.52335399999987,
                    "velocity": 0.33858267716535434,
                    "duration": 0.16400779999999315
                },
                {
                    "name": "F5",
                    "midi": 77,
                    "time": 70.67245199999986,
                    "velocity": 0.3937007874015748,
                    "duration": 0.16400779999999315
                },
                {
                    "name": "D5",
                    "midi": 74,
                    "time": 70.82154999999986,
                    "velocity": 0.3779527559055118,
                    "duration": 0.16400779999999315
                },
                {
                    "name": "F5",
                    "midi": 77,
                    "time": 70.97064799999985,
                    "velocity": 0.47244094488188976,
                    "duration": 0.16400779999999315
                },
                {
                    "name": "C4",
                    "midi": 60,
                    "time": 70.97064799999985,
                    "velocity": 0.3700787401574803,
                    "duration": 0.29819599999999014
                },
                {
                    "name": "D#5",
                    "midi": 75,
                    "time": 71.11974599999985,
                    "velocity": 0.3779527559055118,
                    "duration": 0.16400779999999315
                },
                {
                    "name": "D5",
                    "midi": 74,
                    "time": 71.26884399999985,
                    "velocity": 0.4251968503937008,
                    "duration": 0.16400779999999315
                },
                {
                    "name": "C5",
                    "midi": 72,
                    "time": 71.41794199999984,
                    "velocity": 0.3779527559055118,
                    "duration": 0.16400779999999315
                },
                {
                    "name": "G5",
                    "midi": 79,
                    "time": 71.56703999999984,
                    "velocity": 0.48031496062992124,
                    "duration": 0.29819600000000435
                },
                {
                    "name": "B4",
                    "midi": 71,
                    "time": 71.56703999999984,
                    "velocity": 0.48031496062992124,
                    "duration": 0.29819600000000435
                },
                {
                    "name": "G3",
                    "midi": 55,
                    "time": 71.56703999999984,
                    "velocity": 0.4330708661417323,
                    "duration": 0.29819600000000435
                },
                {
                    "name": "G2",
                    "midi": 43,
                    "time": 71.86523599999984,
                    "velocity": 0.2992125984251969,
                    "duration": 0.29819600000000435
                },
                {
                    "name": "G3",
                    "midi": 55,
                    "time": 72.16343199999984,
                    "velocity": 0.3779527559055118,
                    "duration": 0.16400780000000736
                },
                {
                    "name": "F3",
                    "midi": 53,
                    "time": 72.31252999999985,
                    "velocity": 0.2992125984251969,
                    "duration": 0.16400779999999315
                },
                {
                    "name": "E3",
                    "midi": 52,
                    "time": 72.46162799999985,
                    "velocity": 0.31496062992125984,
                    "duration": 0.16400779999999315
                },
                {
                    "name": "D3",
                    "midi": 50,
                    "time": 72.61072599999984,
                    "velocity": 0.2992125984251969,
                    "duration": 0.16400779999999315
                },
                {
                    "name": "C4",
                    "midi": 60,
                    "time": 72.75982399999984,
                    "velocity": 0.29133858267716534,
                    "duration": 0.29819600000000435
                },
                {
                    "name": "C3",
                    "midi": 48,
                    "time": 72.75982399999984,
                    "velocity": 0.16535433070866143,
                    "duration": 0.29819600000000435
                },
                {
                    "name": "E4",
                    "midi": 64,
                    "time": 73.05801999999984,
                    "velocity": 0.23622047244094488,
                    "duration": 0.14909799999999507
                },
                {
                    "name": "C4",
                    "midi": 60,
                    "time": 73.20711799999984,
                    "velocity": 0.2125984251968504,
                    "duration": 0.14909799999999507
                },
                {
                    "name": "G3",
                    "midi": 55,
                    "time": 73.35621599999983,
                    "velocity": 0.1968503937007874,
                    "duration": 0.11182349999999985
                },
                {
                    "name": "G3",
                    "midi": 55,
                    "time": 73.65441199999984,
                    "velocity": 0.1732283464566929,
                    "duration": 0.11182349999999985
                },
                {
                    "name": "C4",
                    "midi": 60,
                    "time": 73.95260799999984,
                    "velocity": 0.29133858267716534,
                    "duration": 0.29819599999999014
                },
                {
                    "name": "C3",
                    "midi": 48,
                    "time": 73.95260799999984,
                    "velocity": 0.16535433070866143,
                    "duration": 0.29819599999999014
                },
                {
                    "name": "E4",
                    "midi": 64,
                    "time": 74.25080399999983,
                    "velocity": 0.2283464566929134,
                    "duration": 0.14909799999999507
                },
                {
                    "name": "C4",
                    "midi": 60,
                    "time": 74.39990199999983,
                    "velocity": 0.2047244094488189,
                    "duration": 0.14909799999999507
                },
                {
                    "name": "G3",
                    "midi": 55,
                    "time": 74.54899999999982,
                    "velocity": 0.1968503937007874,
                    "duration": 0.11182349999999985
                },
                {
                    "name": "G4",
                    "midi": 67,
                    "time": 74.84719599999983,
                    "velocity": 0.23622047244094488,
                    "duration": 0.14909799999999507
                },
                {
                    "name": "F4",
                    "midi": 65,
                    "time": 75.14539199999982,
                    "velocity": 0.2677165354330709,
                    "duration": 0.16400779999999315
                },
                {
                    "name": "C3",
                    "midi": 48,
                    "time": 75.14539199999982,
                    "velocity": 0.16535433070866143,
                    "duration": 0.29819599999999014
                },
                {
                    "name": "E4",
                    "midi": 64,
                    "time": 75.29448999999981,
                    "velocity": 0.1889763779527559,
                    "duration": 0.16400779999999315
                },
                {
                    "name": "D4",
                    "midi": 62,
                    "time": 75.4435879999998,
                    "velocity": 0.2204724409448819,
                    "duration": 0.16400779999999315
                },
                {
                    "name": "C4",
                    "midi": 60,
                    "time": 75.5926859999998,
                    "velocity": 0.18110236220472442,
                    "duration": 0.16400779999999315
                },
                {
                    "name": "B3",
                    "midi": 59,
                    "time": 75.7417839999998,
                    "velocity": 0.2440944881889764,
                    "duration": 0.16400779999999315
                },
                {
                    "name": "C3",
                    "midi": 48,
                    "time": 75.7417839999998,
                    "velocity": 0.13385826771653545,
                    "duration": 0.29819599999999014
                },
                {
                    "name": "C4",
                    "midi": 60,
                    "time": 75.89088199999979,
                    "velocity": 0.2204724409448819,
                    "duration": 0.16400779999999315
                },
                {
                    "name": "B3",
                    "midi": 59,
                    "time": 76.03997999999979,
                    "velocity": 0.25196850393700787,
                    "duration": 0.16400779999999315
                },
                {
                    "name": "C4",
                    "midi": 60,
                    "time": 76.18907799999978,
                    "velocity": 0.2204724409448819,
                    "duration": 0.16400779999999315
                },
                {
                    "name": "D4",
                    "midi": 62,
                    "time": 76.33817599999978,
                    "velocity": 0.2755905511811024,
                    "duration": 0.16400779999999315
                },
                {
                    "name": "G2",
                    "midi": 43,
                    "time": 76.33817599999978,
                    "velocity": 0.16535433070866143,
                    "duration": 0.29819599999999014
                },
                {
                    "name": "C4",
                    "midi": 60,
                    "time": 76.48727399999977,
                    "velocity": 0.23622047244094488,
                    "duration": 0.16400779999999315
                },
                {
                    "name": "B3",
                    "midi": 59,
                    "time": 76.63637199999977,
                    "velocity": 0.2283464566929134,
                    "duration": 0.16400779999999315
                },
                {
                    "name": "A3",
                    "midi": 57,
                    "time": 76.78546999999976,
                    "velocity": 0.2204724409448819,
                    "duration": 0.16400779999999315
                },
                {
                    "name": "G3",
                    "midi": 55,
                    "time": 76.93456799999976,
                    "velocity": 0.29133858267716534,
                    "duration": 0.29819600000000435
                },
                {
                    "name": "G2",
                    "midi": 43,
                    "time": 76.93456799999976,
                    "velocity": 0.1889763779527559,
                    "duration": 0.16400780000000736
                },
                {
                    "name": "F2",
                    "midi": 41,
                    "time": 77.08366599999977,
                    "velocity": 0.14960629921259844,
                    "duration": 0.16400779999999315
                },
                {
                    "name": "E2",
                    "midi": 40,
                    "time": 77.23276399999976,
                    "velocity": 0.16535433070866143,
                    "duration": 0.16400779999999315
                },
                {
                    "name": "D2",
                    "midi": 38,
                    "time": 77.38186199999976,
                    "velocity": 0.14960629921259844,
                    "duration": 0.16400779999999315
                },
                {
                    "name": "C4",
                    "midi": 60,
                    "time": 77.53095999999975,
                    "velocity": 0.3464566929133858,
                    "duration": 0.29819600000000435
                },
                {
                    "name": "C2",
                    "midi": 36,
                    "time": 77.53095999999975,
                    "velocity": 0.1968503937007874,
                    "duration": 0.29819600000000435
                },
                {
                    "name": "G3",
                    "midi": 55,
                    "time": 77.82915599999976,
                    "velocity": 0.28346456692913385,
                    "duration": 0.14909799999999507
                },
                {
                    "name": "C4",
                    "midi": 60,
                    "time": 77.97825399999975,
                    "velocity": 0.25196850393700787,
                    "duration": 0.14909799999999507
                },
                {
                    "name": "E4",
                    "midi": 64,
                    "time": 78.12735199999975,
                    "velocity": 0.29133858267716534,
                    "duration": 0.11182349999999985
                },
                {
                    "name": "E4",
                    "midi": 64,
                    "time": 78.42554799999975,
                    "velocity": 0.2440944881889764,
                    "duration": 0.11182349999999985
                },
                {
                    "name": "E4",
                    "midi": 64,
                    "time": 78.72374399999975,
                    "velocity": 0.3779527559055118,
                    "duration": 0.29819600000000435
                },
                {
                    "name": "C3",
                    "midi": 48,
                    "time": 78.72374399999975,
                    "velocity": 0.2125984251968504,
                    "duration": 0.29819600000000435
                },
                {
                    "name": "C4",
                    "midi": 60,
                    "time": 79.02193999999976,
                    "velocity": 0.3228346456692913,
                    "duration": 0.14909799999999507
                },
                {
                    "name": "E4",
                    "midi": 64,
                    "time": 79.17103799999975,
                    "velocity": 0.29133858267716534,
                    "duration": 0.14909799999999507
                },
                {
                    "name": "G4",
                    "midi": 67,
                    "time": 79.32013599999975,
                    "velocity": 0.3464566929133858,
                    "duration": 0.11182349999999985
                },
                {
                    "name": "C5",
                    "midi": 72,
                    "time": 79.61833199999975,
                    "velocity": 0.2992125984251969,
                    "duration": 0.11182349999999985
                },
                {
                    "name": "E4",
                    "midi": 64,
                    "time": 79.91652799999976,
                    "velocity": 0.3464566929133858,
                    "duration": 0.11182349999999985
                },
                {
                    "name": "G4",
                    "midi": 67,
                    "time": 79.91652799999976,
                    "velocity": 0.4094488188976378,
                    "duration": 0.11182349999999985
                },
                {
                    "name": "G3",
                    "midi": 55,
                    "time": 79.91652799999976,
                    "velocity": 0.2755905511811024,
                    "duration": 0.29819600000000435
                },
                {
                    "name": "F4",
                    "midi": 65,
                    "time": 80.21472399999976,
                    "velocity": 0.36220472440944884,
                    "duration": 0.11182349999999985
                },
                {
                    "name": "D4",
                    "midi": 62,
                    "time": 80.21472399999976,
                    "velocity": 0.30708661417322836,
                    "duration": 0.11182349999999985
                },
                {
                    "name": "C4",
                    "midi": 60,
                    "time": 80.51291999999977,
                    "velocity": 0.3937007874015748,
                    "duration": 0.11182349999999985
                },
                {
                    "name": "E4",
                    "midi": 64,
                    "time": 80.51291999999977,
                    "velocity": 0.4645669291338583,
                    "duration": 0.11182349999999985
                },
                {
                    "name": "G2",
                    "midi": 43,
                    "time": 80.51291999999977,
                    "velocity": 0.31496062992125984,
                    "duration": 0.29819600000000435
                },
                {
                    "name": "D4",
                    "midi": 62,
                    "time": 80.81111599999977,
                    "velocity": 0.41732283464566927,
                    "duration": 0.11182349999999985
                },
                {
                    "name": "B3",
                    "midi": 59,
                    "time": 80.81111599999977,
                    "velocity": 0.3464566929133858,
                    "duration": 0.11182349999999985
                },
                {
                    "name": "C4",
                    "midi": 60,
                    "time": 81.10931199999978,
                    "velocity": 0.5354330708661418,
                    "duration": 0.16400780000000736
                },
                {
                    "name": "C3",
                    "midi": 48,
                    "time": 81.10931199999978,
                    "velocity": 0.31496062992125984,
                    "duration": 0.29819600000000435
                },
                {
                    "name": "D4",
                    "midi": 62,
                    "time": 81.25840999999978,
                    "velocity": 0.4251968503937008,
                    "duration": 0.16400779999999315
                },
                {
                    "name": "E4",
                    "midi": 64,
                    "time": 81.40750799999978,
                    "velocity": 0.47244094488188976,
                    "duration": 0.16400779999999315
                },
                {
                    "name": "F4",
                    "midi": 65,
                    "time": 81.55660599999977,
                    "velocity": 0.4566929133858268,
                    "duration": 0.16400779999999315
                },
                {
                    "name": "G4",
                    "midi": 67,
                    "time": 81.70570399999977,
                    "velocity": 0.5354330708661418,
                    "duration": 0.16400779999999315
                },
                {
                    "name": "A4",
                    "midi": 69,
                    "time": 81.85480199999976,
                    "velocity": 0.4566929133858268,
                    "duration": 0.16400779999999315
                },
                {
                    "name": "B4",
                    "midi": 71,
                    "time": 82.00389999999976,
                    "velocity": 0.4881889763779528,
                    "duration": 0.16400780000000736
                },
                {
                    "name": "C5",
                    "midi": 72,
                    "time": 82.15299799999977,
                    "velocity": 0.4566929133858268,
                    "duration": 0.14909799999999507
                },
                {
                    "name": "D4",
                    "midi": 62,
                    "time": 82.30209599999976,
                    "velocity": 0.5196850393700787,
                    "duration": 0.29819600000000435
                },
                {
                    "name": "B2",
                    "midi": 47,
                    "time": 82.30209599999976,
                    "velocity": 0.31496062992125984,
                    "duration": 0.14909800000000928
                },
                {
                    "name": "G3",
                    "midi": 55,
                    "time": 82.45119399999977,
                    "velocity": 0.2755905511811024,
                    "duration": 0.14909799999999507
                },
                {
                    "name": "D5",
                    "midi": 74,
                    "time": 82.60029199999977,
                    "velocity": 0.4251968503937008,
                    "duration": 0.14909799999999507
                },
                {
                    "name": "D3",
                    "midi": 50,
                    "time": 82.60029199999977,
                    "velocity": 0.2755905511811024,
                    "duration": 0.14909799999999507
                },
                {
                    "name": "G3",
                    "midi": 55,
                    "time": 82.74938999999976,
                    "velocity": 0.2755905511811024,
                    "duration": 0.14909799999999507
                },
                {
                    "name": "D5",
                    "midi": 74,
                    "time": 82.89848799999976,
                    "velocity": 0.44881889763779526,
                    "duration": 0.14909799999999507
                },
                {
                    "name": "B2",
                    "midi": 47,
                    "time": 82.89848799999976,
                    "velocity": 0.31496062992125984,
                    "duration": 0.14909799999999507
                },
                {
                    "name": "G3",
                    "midi": 55,
                    "time": 83.04758599999975,
                    "velocity": 0.29133858267716534,
                    "duration": 0.14909799999999507
                },
                {
                    "name": "D5",
                    "midi": 74,
                    "time": 83.19668399999975,
                    "velocity": 0.41732283464566927,
                    "duration": 0.14909799999999507
                },
                {
                    "name": "D3",
                    "midi": 50,
                    "time": 83.19668399999975,
                    "velocity": 0.29133858267716534,
                    "duration": 0.14909799999999507
                },
                {
                    "name": "G3",
                    "midi": 55,
                    "time": 83.34578199999974,
                    "velocity": 0.29133858267716534,
                    "duration": 0.14909799999999507
                },
                {
                    "name": "E4",
                    "midi": 64,
                    "time": 83.49487999999974,
                    "velocity": 0.5354330708661418,
                    "duration": 0.16400780000000736
                },
                {
                    "name": "C3",
                    "midi": 48,
                    "time": 83.49487999999974,
                    "velocity": 0.31496062992125984,
                    "duration": 0.29819600000000435
                },
                {
                    "name": "F4",
                    "midi": 65,
                    "time": 83.64397799999975,
                    "velocity": 0.4330708661417323,
                    "duration": 0.16400779999999315
                },
                {
                    "name": "G4",
                    "midi": 67,
                    "time": 83.79307599999974,
                    "velocity": 0.47244094488188976,
                    "duration": 0.16400780000000736
                },
                {
                    "name": "A4",
                    "midi": 69,
                    "time": 83.94217399999975,
                    "velocity": 0.4409448818897638,
                    "duration": 0.16400779999999315
                },
                {
                    "name": "B4",
                    "midi": 71,
                    "time": 84.09127199999975,
                    "velocity": 0.5354330708661418,
                    "duration": 0.16400779999999315
                },
                {
                    "name": "C5",
                    "midi": 72,
                    "time": 84.24036999999974,
                    "velocity": 0.4645669291338583,
                    "duration": 0.16400779999999315
                },
                {
                    "name": "D5",
                    "midi": 74,
                    "time": 84.38946799999974,
                    "velocity": 0.4881889763779528,
                    "duration": 0.16400779999999315
                },
                {
                    "name": "E5",
                    "midi": 76,
                    "time": 84.53856599999973,
                    "velocity": 0.4566929133858268,
                    "duration": 0.14909799999999507
                },
                {
                    "name": "F4",
                    "midi": 65,
                    "time": 84.68766399999973,
                    "velocity": 0.5196850393700787,
                    "duration": 0.29819599999999014
                },
                {
                    "name": "D3",
                    "midi": 50,
                    "time": 84.68766399999973,
                    "velocity": 0.31496062992125984,
                    "duration": 0.14909799999999507
                },
                {
                    "name": "G3",
                    "midi": 55,
                    "time": 84.83676199999972,
                    "velocity": 0.2755905511811024,
                    "duration": 0.14909799999999507
                },
                {
                    "name": "F5",
                    "midi": 77,
                    "time": 84.98585999999972,
                    "velocity": 0.41732283464566927,
                    "duration": 0.14909799999999507
                },
                {
                    "name": "F3",
                    "midi": 53,
                    "time": 84.98585999999972,
                    "velocity": 0.2755905511811024,
                    "duration": 0.14909799999999507
                },
                {
                    "name": "G3",
                    "midi": 55,
                    "time": 85.13495799999971,
                    "velocity": 0.2755905511811024,
                    "duration": 0.14909799999999507
                },
                {
                    "name": "F5",
                    "midi": 77,
                    "time": 85.28405599999971,
                    "velocity": 0.44881889763779526,
                    "duration": 0.14909799999999507
                },
                {
                    "name": "D3",
                    "midi": 50,
                    "time": 85.28405599999971,
                    "velocity": 0.31496062992125984,
                    "duration": 0.14909799999999507
                },
                {
                    "name": "G3",
                    "midi": 55,
                    "time": 85.4331539999997,
                    "velocity": 0.29133858267716534,
                    "duration": 0.14909799999999507
                },
                {
                    "name": "F5",
                    "midi": 77,
                    "time": 85.5822519999997,
                    "velocity": 0.4330708661417323,
                    "duration": 0.14909799999999507
                },
                {
                    "name": "F3",
                    "midi": 53,
                    "time": 85.5822519999997,
                    "velocity": 0.29133858267716534,
                    "duration": 0.14909799999999507
                },
                {
                    "name": "G3",
                    "midi": 55,
                    "time": 85.7313499999997,
                    "velocity": 0.29133858267716534,
                    "duration": 0.14909800000000928
                },
                {
                    "name": "G4",
                    "midi": 67,
                    "time": 85.8804479999997,
                    "velocity": 0.5354330708661418,
                    "duration": 0.14909800000000928
                },
                {
                    "name": "E3",
                    "midi": 52,
                    "time": 85.8804479999997,
                    "velocity": 0.31496062992125984,
                    "duration": 0.29819600000000435
                },
                {
                    "name": "C5",
                    "midi": 72,
                    "time": 86.02954599999971,
                    "velocity": 0.4645669291338583,
                    "duration": 0.14909799999999507
                },
                {
                    "name": "E5",
                    "midi": 76,
                    "time": 86.17864399999971,
                    "velocity": 0.49606299212598426,
                    "duration": 0.14909799999999507
                },
                {
                    "name": "G5",
                    "midi": 79,
                    "time": 86.3277419999997,
                    "velocity": 0.48031496062992124,
                    "duration": 0.14909800000000928
                },
                {
                    "name": "F5",
                    "midi": 77,
                    "time": 86.47683999999971,
                    "velocity": 0.5354330708661418,
                    "duration": 0.16400779999999315
                },
                {
                    "name": "E5",
                    "midi": 76,
                    "time": 86.6259379999997,
                    "velocity": 0.4566929133858268,
                    "duration": 0.16400779999999315
                },
                {
                    "name": "D5",
                    "midi": 74,
                    "time": 86.7750359999997,
                    "velocity": 0.4881889763779528,
                    "duration": 0.16400780000000736
                },
                {
                    "name": "C5",
                    "midi": 72,
                    "time": 86.92413399999971,
                    "velocity": 0.4645669291338583,
                    "duration": 0.14909799999999507
                },
                {
                    "name": "A5",
                    "midi": 81,
                    "time": 87.0732319999997,
                    "velocity": 0.5354330708661418,
                    "duration": 0.16400779999999315
                },
                {
                    "name": "F3",
                    "midi": 53,
                    "time": 87.0732319999997,
                    "velocity": 0.31496062992125984,
                    "duration": 0.29819599999999014
                },
                {
                    "name": "G5",
                    "midi": 79,
                    "time": 87.2223299999997,
                    "velocity": 0.48031496062992124,
                    "duration": 0.16400779999999315
                },
                {
                    "name": "F5",
                    "midi": 77,
                    "time": 87.3714279999997,
                    "velocity": 0.5118110236220472,
                    "duration": 0.16400779999999315
                },
                {
                    "name": "E5",
                    "midi": 76,
                    "time": 87.52052599999969,
                    "velocity": 0.44881889763779526,
                    "duration": 0.16400779999999315
                },
                {
                    "name": "D5",
                    "midi": 74,
                    "time": 87.66962399999969,
                    "velocity": 0.5354330708661418,
                    "duration": 0.16400779999999315
                },
                {
                    "name": "F3",
                    "midi": 53,
                    "time": 87.66962399999969,
                    "velocity": 0.29133858267716534,
                    "duration": 0.29819599999999014
                },
                {
                    "name": "C5",
                    "midi": 72,
                    "time": 87.81872199999968,
                    "velocity": 0.48031496062992124,
                    "duration": 0.16400779999999315
                },
                {
                    "name": "B4",
                    "midi": 71,
                    "time": 87.96781999999968,
                    "velocity": 0.5039370078740157,
                    "duration": 0.16400779999999315
                },
                {
                    "name": "A4",
                    "midi": 69,
                    "time": 88.11691799999967,
                    "velocity": 0.4645669291338583,
                    "duration": 0.14909799999999507
                },
                {
                    "name": "G4",
                    "midi": 67,
                    "time": 88.26601599999967,
                    "velocity": 0.5118110236220472,
                    "duration": 0.16400779999999315
                },
                {
                    "name": "G3",
                    "midi": 55,
                    "time": 88.26601599999967,
                    "velocity": 0.31496062992125984,
                    "duration": 0.29819599999999014
                },
                {
                    "name": "A4",
                    "midi": 69,
                    "time": 88.41511399999966,
                    "velocity": 0.4251968503937008,
                    "duration": 0.16400779999999315
                },
                {
                    "name": "F4",
                    "midi": 65,
                    "time": 88.56421199999966,
                    "velocity": 0.47244094488188976,
                    "duration": 0.16400779999999315
                },
                {
                    "name": "G4",
                    "midi": 67,
                    "time": 88.71330999999965,
                    "velocity": 0.4409448818897638,
                    "duration": 0.16400779999999315
                },
                {
                    "name": "E4",
                    "midi": 64,
                    "time": 88.86240799999965,
                    "velocity": 0.5196850393700787,
                    "duration": 0.16400779999999315
                },
                {
                    "name": "G2",
                    "midi": 43,
                    "time": 88.86240799999965,
                    "velocity": 0.30708661417322836,
                    "duration": 0.29819599999999014
                },
                {
                    "name": "F4",
                    "midi": 65,
                    "time": 89.01150599999964,
                    "velocity": 0.4645669291338583,
                    "duration": 0.16400779999999315
                },
                {
                    "name": "D4",
                    "midi": 62,
                    "time": 89.16060399999964,
                    "velocity": 0.48031496062992124,
                    "duration": 0.16400779999999315
                },
                {
                    "name": "E4",
                    "midi": 64,
                    "time": 89.30970199999963,
                    "velocity": 0.4566929133858268,
                    "duration": 0.16400779999999315
                },
                {
                    "name": "C4",
                    "midi": 60,
                    "time": 89.45879999999963,
                    "velocity": 0.5354330708661418,
                    "duration": 0.5963919999999803
                },
                {
                    "name": "C2",
                    "midi": 36,
                    "time": 89.45879999999963,
                    "velocity": 0.3779527559055118,
                    "duration": 0.14909799999999507
                },
                {
                    "name": "E2",
                    "midi": 40,
                    "time": 89.60789799999962,
                    "velocity": 0.2992125984251969,
                    "duration": 0.14909799999999507
                },
                {
                    "name": "G2",
                    "midi": 43,
                    "time": 89.75699599999962,
                    "velocity": 0.31496062992125984,
                    "duration": 0.14909799999999507
                },
                {
                    "name": "C3",
                    "midi": 48,
                    "time": 89.90609399999961,
                    "velocity": 0.2992125984251969,
                    "duration": 0.14909799999999507
                },
                {
                    "name": "C2",
                    "midi": 36,
                    "time": 90.05519199999961,
                    "velocity": 0.3779527559055118,
                    "duration": 0.29819600000000435
                }
            ],
            "controlChanges": {
                "64": [
                    {
                        "number": 64,
                        "time": 0.011182349999999999,
                        "value": 1
                    },
                    {
                        "number": 64,
                        "time": 0.6075743499999999,
                        "value": 0
                    },
                    {
                        "number": 64,
                        "time": 1.2300585,
                        "value": 1
                    },
                    {
                        "number": 64,
                        "time": 1.8016008333333333,
                        "value": 0
                    },
                    {
                        "number": 64,
                        "time": 4.885444466666665,
                        "value": 1
                    },
                    {
                        "number": 64,
                        "time": 5.377467866666666,
                        "value": 0
                    },
                    {
                        "number": 64,
                        "time": 5.963919999999999,
                        "value": 1
                    },
                    {
                        "number": 64,
                        "time": 6.563418208333333,
                        "value": 0
                    },
                    {
                        "number": 64,
                        "time": 6.937405691666667,
                        "value": 1
                    },
                    {
                        "number": 64,
                        "time": 7.160431450000001,
                        "value": 0
                    },
                    {
                        "number": 64,
                        "time": 7.249269008333335,
                        "value": 1
                    },
                    {
                        "number": 64,
                        "time": 7.464839866666669,
                        "value": 0
                    },
                    {
                        "number": 64,
                        "time": 7.533176450000002,
                        "value": 1
                    },
                    {
                        "number": 64,
                        "time": 7.762414625000002,
                        "value": 0
                    },
                    {
                        "number": 64,
                        "time": 7.845661008333336,
                        "value": 1
                    },
                    {
                        "number": 64,
                        "time": 8.061853108333333,
                        "value": 0
                    },
                    {
                        "number": 64,
                        "time": 8.143857008333333,
                        "value": 1
                    },
                    {
                        "number": 64,
                        "time": 8.351972966666665,
                        "value": 0
                    },
                    {
                        "number": 64,
                        "time": 9.641670666666665,
                        "value": 1
                    },
                    {
                        "number": 64,
                        "time": 10.735056,
                        "value": 0
                    },
                    {
                        "number": 64,
                        "time": 11.998040308333334,
                        "value": 1
                    },
                    {
                        "number": 64,
                        "time": 13.120624000000001,
                        "value": 0
                    },
                    {
                        "number": 64,
                        "time": 13.234932466666667,
                        "value": 1
                    },
                    {
                        "number": 64,
                        "time": 13.727577108333332,
                        "value": 0
                    },
                    {
                        "number": 64,
                        "time": 16.769176308333343,
                        "value": 1
                    },
                    {
                        "number": 64,
                        "time": 17.602261383333342,
                        "value": 0
                    },
                    {
                        "number": 64,
                        "time": 17.902942350000007,
                        "value": 1
                    },
                    {
                        "number": 64,
                        "time": 18.49933435,
                        "value": 0
                    },
                    {
                        "number": 64,
                        "time": 19.121818500000003,
                        "value": 1
                    },
                    {
                        "number": 64,
                        "time": 19.693360833333333,
                        "value": 0
                    },
                    {
                        "number": 64,
                        "time": 22.777204466666685,
                        "value": 1
                    },
                    {
                        "number": 64,
                        "time": 23.269227866666682,
                        "value": 0
                    },
                    {
                        "number": 64,
                        "time": 23.855680000000017,
                        "value": 1
                    },
                    {
                        "number": 64,
                        "time": 24.455178208333347,
                        "value": 0
                    },
                    {
                        "number": 64,
                        "time": 24.82916569166668,
                        "value": 1
                    },
                    {
                        "number": 64,
                        "time": 25.052191450000013,
                        "value": 0
                    },
                    {
                        "number": 64,
                        "time": 25.141029008333348,
                        "value": 1
                    },
                    {
                        "number": 64,
                        "time": 25.35659986666668,
                        "value": 0
                    },
                    {
                        "number": 64,
                        "time": 25.424936450000015,
                        "value": 1
                    },
                    {
                        "number": 64,
                        "time": 25.65417462500001,
                        "value": 0
                    },
                    {
                        "number": 64,
                        "time": 25.737421008333346,
                        "value": 1
                    },
                    {
                        "number": 64,
                        "time": 25.953613108333347,
                        "value": 0
                    },
                    {
                        "number": 64,
                        "time": 26.035617008333347,
                        "value": 1
                    },
                    {
                        "number": 64,
                        "time": 26.24373296666668,
                        "value": 0
                    },
                    {
                        "number": 64,
                        "time": 27.533430666666693,
                        "value": 1
                    },
                    {
                        "number": 64,
                        "time": 28.626816000000016,
                        "value": 0
                    },
                    {
                        "number": 64,
                        "time": 29.889800308333353,
                        "value": 1
                    },
                    {
                        "number": 64,
                        "time": 31.01238400000001,
                        "value": 0
                    },
                    {
                        "number": 64,
                        "time": 31.12669246666668,
                        "value": 1
                    },
                    {
                        "number": 64,
                        "time": 31.619337108333344,
                        "value": 0
                    },
                    {
                        "number": 64,
                        "time": 34.66093630833328,
                        "value": 1
                    },
                    {
                        "number": 64,
                        "time": 35.49402138333328,
                        "value": 0
                    },
                    {
                        "number": 64,
                        "time": 35.89782846666662,
                        "value": 1
                    },
                    {
                        "number": 64,
                        "time": 36.389851866666625,
                        "value": 0
                    },
                    {
                        "number": 64,
                        "time": 37.09061246666662,
                        "value": 1
                    },
                    {
                        "number": 64,
                        "time": 37.58263586666663,
                        "value": 0
                    },
                    {
                        "number": 64,
                        "time": 38.25419810833329,
                        "value": 1
                    },
                    {
                        "number": 64,
                        "time": 38.775419866666624,
                        "value": 0
                    },
                    {
                        "number": 64,
                        "time": 38.96427733333329,
                        "value": 1
                    },
                    {
                        "number": 64,
                        "time": 39.361871999999956,
                        "value": 0
                    },
                    {
                        "number": 64,
                        "time": 39.72591961666663,
                        "value": 1
                    },
                    {
                        "number": 64,
                        "time": 39.9650976583333,
                        "value": 0
                    },
                    {
                        "number": 64,
                        "time": 40.63355369166663,
                        "value": 1
                    },
                    {
                        "number": 64,
                        "time": 41.75862234999997,
                        "value": 0
                    },
                    {
                        "number": 64,
                        "time": 41.88784061666664,
                        "value": 1
                    },
                    {
                        "number": 64,
                        "time": 42.948300141666635,
                        "value": 0
                    },
                    {
                        "number": 64,
                        "time": 45.43761549999993,
                        "value": 1
                    },
                    {
                        "number": 64,
                        "time": 45.93336634999993,
                        "value": 0
                    },
                    {
                        "number": 64,
                        "time": 46.55585049999993,
                        "value": 1
                    },
                    {
                        "number": 64,
                        "time": 47.12739283333327,
                        "value": 0
                    },
                    {
                        "number": 64,
                        "time": 50.182659349999916,
                        "value": 1
                    },
                    {
                        "number": 64,
                        "time": 50.70450234999992,
                        "value": 0
                    },
                    {
                        "number": 64,
                        "time": 51.412717849999915,
                        "value": 1
                    },
                    {
                        "number": 64,
                        "time": 51.897286349999916,
                        "value": 0
                    },
                    {
                        "number": 64,
                        "time": 53.677764966666565,
                        "value": 0
                    },
                    {
                        "number": 64,
                        "time": 54.967462666666556,
                        "value": 1
                    },
                    {
                        "number": 64,
                        "time": 56.06084799999991,
                        "value": 0
                    },
                    {
                        "number": 64,
                        "time": 57.323832308333245,
                        "value": 1
                    },
                    {
                        "number": 64,
                        "time": 58.44641599999993,
                        "value": 0
                    },
                    {
                        "number": 64,
                        "time": 58.5607244666666,
                        "value": 1
                    },
                    {
                        "number": 64,
                        "time": 59.05336910833327,
                        "value": 0
                    },
                    {
                        "number": 64,
                        "time": 62.09496830833321,
                        "value": 1
                    },
                    {
                        "number": 64,
                        "time": 62.928053383333214,
                        "value": 0
                    },
                    {
                        "number": 64,
                        "time": 63.33186046666655,
                        "value": 1
                    },
                    {
                        "number": 64,
                        "time": 63.823883866666556,
                        "value": 0
                    },
                    {
                        "number": 64,
                        "time": 64.52464446666657,
                        "value": 1
                    },
                    {
                        "number": 64,
                        "time": 65.01666786666657,
                        "value": 0
                    },
                    {
                        "number": 64,
                        "time": 65.68823010833324,
                        "value": 1
                    },
                    {
                        "number": 64,
                        "time": 66.20945186666658,
                        "value": 0
                    },
                    {
                        "number": 64,
                        "time": 66.39830933333324,
                        "value": 1
                    },
                    {
                        "number": 64,
                        "time": 66.79590399999992,
                        "value": 0
                    },
                    {
                        "number": 64,
                        "time": 67.15995161666658,
                        "value": 1
                    },
                    {
                        "number": 64,
                        "time": 67.39912965833324,
                        "value": 0
                    },
                    {
                        "number": 64,
                        "time": 68.06758569166658,
                        "value": 1
                    },
                    {
                        "number": 64,
                        "time": 69.1926543499999,
                        "value": 0
                    },
                    {
                        "number": 64,
                        "time": 69.32187261666657,
                        "value": 1
                    },
                    {
                        "number": 64,
                        "time": 70.38233214166654,
                        "value": 0
                    },
                    {
                        "number": 64,
                        "time": 72.87164749999984,
                        "value": 1
                    },
                    {
                        "number": 64,
                        "time": 73.36739834999983,
                        "value": 0
                    },
                    {
                        "number": 64,
                        "time": 73.98988249999984,
                        "value": 1
                    },
                    {
                        "number": 64,
                        "time": 74.56142483333315,
                        "value": 0
                    },
                    {
                        "number": 64,
                        "time": 77.61669134999975,
                        "value": 1
                    },
                    {
                        "number": 64,
                        "time": 78.13853434999974,
                        "value": 0
                    },
                    {
                        "number": 64,
                        "time": 78.84674984999975,
                        "value": 1
                    },
                    {
                        "number": 64,
                        "time": 79.33131834999975,
                        "value": 0
                    },
                    {
                        "number": 64,
                        "time": 81.11179696666645,
                        "value": 0
                    },
                    {
                        "number": 64,
                        "time": 82.40149466666644,
                        "value": 1
                    },
                    {
                        "number": 64,
                        "time": 83.49487999999974,
                        "value": 0
                    },
                    {
                        "number": 64,
                        "time": 84.75786430833305,
                        "value": 1
                    },
                    {
                        "number": 64,
                        "time": 85.8804479999997,
                        "value": 0
                    },
                    {
                        "number": 64,
                        "time": 85.99475646666637,
                        "value": 1
                    },
                    {
                        "number": 64,
                        "time": 86.48740110833305,
                        "value": 0
                    },
                    {
                        "number": 64,
                        "time": 89.52900030833295,
                        "value": 1
                    },
                    {
                        "number": 64,
                        "time": 90.36208538333294,
                        "value": 0
                    }
                ]
            },
            "id": 0,
            "name": "Clementi: Sonatine Opus 36 Nr. 1, 1. Satz",
            "instrumentNumber": 0,
            "instrument": "acoustic grand piano",
            "instrumentFamily": "piano",
            "channelNumber": 0,
            "isPercussion": false
        }
    ]
}