{
    "header": {
        "PPQ": 480,
        "timeSignature": [
            4,
            4
        ],
        "bpm": 160,
        "name": "2. Satz"
    },
    "startTime": 0,
    "duration": 179.4375,
    "tracks": [
        {
            "startTime": 0,
            "duration": 0,
            "length": 0,
            "notes": [],
            "controlChanges": {},
            "id": 0,
            "name": "2. Satz"
        },
        {
            "startTime": 0.00078125,
            "duration": 178.96875,
            "length": 1169,
            "notes": [
                {
                    "name": "G4",
                    "midi": 67,
                    "time": 0.00078125,
                    "velocity": 0.47244094488188976,
                    "duration": 0.28125
                },
                {
                    "name": "B4",
                    "midi": 71,
                    "time": 0.28125,
                    "velocity": 0.3779527559055118,
                    "duration": 0.046875
                },
                {
                    "name": "A4",
                    "midi": 69,
                    "time": 0.328125,
                    "velocity": 0.3779527559055118,
                    "duration": 0.046875
                },
                {
                    "name": "G4",
                    "midi": 67,
                    "time": 0.375,
                    "velocity": 0.4409448818897638,
                    "duration": 0.1875
                },
                {
                    "name": "D4",
                    "midi": 62,
                    "time": 0.9375,
                    "velocity": 0.41732283464566927,
                    "duration": 0.1875
                },
                {
                    "name": "G4",
                    "midi": 67,
                    "time": 1.125,
                    "velocity": 0.41732283464566927,
                    "duration": 0.1875
                },
                {
                    "name": "B4",
                    "midi": 71,
                    "time": 1.3125,
                    "velocity": 0.41732283464566927,
                    "duration": 0.1875
                },
                {
                    "name": "B4",
                    "midi": 71,
                    "time": 1.5,
                    "velocity": 0.44881889763779526,
                    "duration": 0.09375
                },
                {
                    "name": "A4",
                    "midi": 69,
                    "time": 1.59375,
                    "velocity": 0.4251968503937008,
                    "duration": 0.09375
                },
                {
                    "name": "G4",
                    "midi": 67,
                    "time": 1.6875,
                    "velocity": 0.4251968503937008,
                    "duration": 0.09375
                },
                {
                    "name": "A4",
                    "midi": 69,
                    "time": 1.78125,
                    "velocity": 0.4251968503937008,
                    "duration": 0.09375
                },
                {
                    "name": "G4",
                    "midi": 67,
                    "time": 1.875,
                    "velocity": 0.44881889763779526,
                    "duration": 0.1875
                },
                {
                    "name": "D5",
                    "midi": 74,
                    "time": 2.0625,
                    "velocity": 0.4251968503937008,
                    "duration": 0.1875
                },
                {
                    "name": "D5",
                    "midi": 74,
                    "time": 2.25,
                    "velocity": 0.4251968503937008,
                    "duration": 0.09375
                },
                {
                    "name": "D5",
                    "midi": 74,
                    "time": 2.4375,
                    "velocity": 0.4251968503937008,
                    "duration": 0.09375
                },
                {
                    "name": "D5",
                    "midi": 74,
                    "time": 2.625,
                    "velocity": 0.4251968503937008,
                    "duration": 0.09375
                },
                {
                    "name": "D5",
                    "midi": 74,
                    "time": 2.8125,
                    "velocity": 0.4251968503937008,
                    "duration": 0.09375
                },
                {
                    "name": "D5",
                    "midi": 74,
                    "time": 3,
                    "velocity": 0.44881889763779526,
                    "duration": 0.28125
                },
                {
                    "name": "E5",
                    "midi": 76,
                    "time": 3.28125,
                    "velocity": 0.3700787401574803,
                    "duration": 0.046875
                },
                {
                    "name": "D5",
                    "midi": 74,
                    "time": 3.328125,
                    "velocity": 0.3700787401574803,
                    "duration": 0.046875
                },
                {
                    "name": "C5",
                    "midi": 72,
                    "time": 3.375,
                    "velocity": 0.4094488188976378,
                    "duration": 0.1875
                },
                {
                    "name": "B4",
                    "midi": 71,
                    "time": 3.5625,
                    "velocity": 0.3937007874015748,
                    "duration": 0.1875
                },
                {
                    "name": "A4",
                    "midi": 69,
                    "time": 3.75,
                    "velocity": 0.4094488188976378,
                    "duration": 0.1875
                },
                {
                    "name": "A5",
                    "midi": 81,
                    "time": 3.9375,
                    "velocity": 0.5354330708661418,
                    "duration": 0.375
                },
                {
                    "name": "G5",
                    "midi": 79,
                    "time": 4.3125,
                    "velocity": 0.5118110236220472,
                    "duration": 0.1875
                },
                {
                    "name": "G5",
                    "midi": 79,
                    "time": 4.5,
                    "velocity": 0.49606299212598426,
                    "duration": 0.09375
                },
                {
                    "name": "F#5",
                    "midi": 78,
                    "time": 4.59375,
                    "velocity": 0.4251968503937008,
                    "duration": 0.09375
                },
                {
                    "name": "E5",
                    "midi": 76,
                    "time": 4.6875,
                    "velocity": 0.4251968503937008,
                    "duration": 0.09375
                },
                {
                    "name": "D5",
                    "midi": 74,
                    "time": 4.78125,
                    "velocity": 0.4251968503937008,
                    "duration": 0.09375
                },
                {
                    "name": "D5",
                    "midi": 74,
                    "time": 4.875,
                    "velocity": 0.4251968503937008,
                    "duration": 0.1875
                },
                {
                    "name": "D5",
                    "midi": 74,
                    "time": 5.0625,
                    "velocity": 0.4409448818897638,
                    "duration": 0.1875
                },
                {
                    "name": "D5",
                    "midi": 74,
                    "time": 5.25,
                    "velocity": 0.4251968503937008,
                    "duration": 0.09375
                },
                {
                    "name": "E5",
                    "midi": 76,
                    "time": 5.34375,
                    "velocity": 0.4094488188976378,
                    "duration": 0.09375
                },
                {
                    "name": "C5",
                    "midi": 72,
                    "time": 5.4375,
                    "velocity": 0.4251968503937008,
                    "duration": 0.09375
                },
                {
                    "name": "D5",
                    "midi": 74,
                    "time": 5.53125,
                    "velocity": 0.4094488188976378,
                    "duration": 0.09375
                },
                {
                    "name": "B4",
                    "midi": 71,
                    "time": 5.625,
                    "velocity": 0.4251968503937008,
                    "duration": 0.09375
                },
                {
                    "name": "C5",
                    "midi": 72,
                    "time": 5.71875,
                    "velocity": 0.4015748031496063,
                    "duration": 0.09375
                },
                {
                    "name": "A4",
                    "midi": 69,
                    "time": 5.8125,
                    "velocity": 0.4251968503937008,
                    "duration": 0.09375
                },
                {
                    "name": "B4",
                    "midi": 71,
                    "time": 5.90625,
                    "velocity": 0.4094488188976378,
                    "duration": 0.09375
                },
                {
                    "name": "G4",
                    "midi": 67,
                    "time": 6.00078125,
                    "velocity": 0.47244094488188976,
                    "duration": 0.28125
                },
                {
                    "name": "B4",
                    "midi": 71,
                    "time": 6.28125,
                    "velocity": 0.36220472440944884,
                    "duration": 0.046875
                },
                {
                    "name": "A4",
                    "midi": 69,
                    "time": 6.328125,
                    "velocity": 0.3700787401574803,
                    "duration": 0.046875
                },
                {
                    "name": "G4",
                    "midi": 67,
                    "time": 6.375,
                    "velocity": 0.4409448818897638,
                    "duration": 0.1875
                },
                {
                    "name": "D4",
                    "midi": 62,
                    "time": 6.9375,
                    "velocity": 0.41732283464566927,
                    "duration": 0.1875
                },
                {
                    "name": "G4",
                    "midi": 67,
                    "time": 7.125,
                    "velocity": 0.41732283464566927,
                    "duration": 0.1875
                },
                {
                    "name": "B4",
                    "midi": 71,
                    "time": 7.3125,
                    "velocity": 0.41732283464566927,
                    "duration": 0.1875
                },
                {
                    "name": "B4",
                    "midi": 71,
                    "time": 7.5,
                    "velocity": 0.44881889763779526,
                    "duration": 0.09375
                },
                {
                    "name": "A4",
                    "midi": 69,
                    "time": 7.59375,
                    "velocity": 0.4251968503937008,
                    "duration": 0.09375
                },
                {
                    "name": "G4",
                    "midi": 67,
                    "time": 7.6875,
                    "velocity": 0.4251968503937008,
                    "duration": 0.09375
                },
                {
                    "name": "A4",
                    "midi": 69,
                    "time": 7.78125,
                    "velocity": 0.4251968503937008,
                    "duration": 0.09375
                },
                {
                    "name": "G4",
                    "midi": 67,
                    "time": 7.875,
                    "velocity": 0.44881889763779526,
                    "duration": 0.1875
                },
                {
                    "name": "E5",
                    "midi": 76,
                    "time": 8.0625,
                    "velocity": 0.4251968503937008,
                    "duration": 0.1875
                },
                {
                    "name": "E5",
                    "midi": 76,
                    "time": 8.25,
                    "velocity": 0.4251968503937008,
                    "duration": 0.09375
                },
                {
                    "name": "E5",
                    "midi": 76,
                    "time": 8.4375,
                    "velocity": 0.4251968503937008,
                    "duration": 0.09375
                },
                {
                    "name": "E5",
                    "midi": 76,
                    "time": 8.625,
                    "velocity": 0.4251968503937008,
                    "duration": 0.09375
                },
                {
                    "name": "E5",
                    "midi": 76,
                    "time": 8.8125,
                    "velocity": 0.4251968503937008,
                    "duration": 0.09375
                },
                {
                    "name": "E5",
                    "midi": 76,
                    "time": 9,
                    "velocity": 0.44881889763779526,
                    "duration": 0.28125
                },
                {
                    "name": "G5",
                    "midi": 79,
                    "time": 9.28125,
                    "velocity": 0.3937007874015748,
                    "duration": 0.046875
                },
                {
                    "name": "A5",
                    "midi": 81,
                    "time": 9.328125,
                    "velocity": 0.4094488188976378,
                    "duration": 0.046875
                },
                {
                    "name": "B5",
                    "midi": 83,
                    "time": 9.375,
                    "velocity": 0.47244094488188976,
                    "duration": 0.28125
                },
                {
                    "name": "G5",
                    "midi": 79,
                    "time": 9.65625,
                    "velocity": 0.3858267716535433,
                    "duration": 0.046875
                },
                {
                    "name": "E5",
                    "midi": 76,
                    "time": 9.703125,
                    "velocity": 0.3858267716535433,
                    "duration": 0.046875
                },
                {
                    "name": "D5",
                    "midi": 74,
                    "time": 9.75,
                    "velocity": 0.47244094488188976,
                    "duration": 0.375
                },
                {
                    "name": "C#5",
                    "midi": 73,
                    "time": 10.125,
                    "velocity": 0.4094488188976378,
                    "duration": 0.0625
                },
                {
                    "name": "D5",
                    "midi": 74,
                    "time": 10.1875,
                    "velocity": 0.33858267716535434,
                    "duration": 0.0625
                },
                {
                    "name": "C#5",
                    "midi": 73,
                    "time": 10.25,
                    "velocity": 0.3779527559055118,
                    "duration": 0.0625
                },
                {
                    "name": "D5",
                    "midi": 74,
                    "time": 10.3125,
                    "velocity": 0.33858267716535434,
                    "duration": 0.046875
                },
                {
                    "name": "C#5",
                    "midi": 73,
                    "time": 10.359375,
                    "velocity": 0.3779527559055118,
                    "duration": 0.046875
                },
                {
                    "name": "D5",
                    "midi": 74,
                    "time": 10.40625,
                    "velocity": 0.33070866141732286,
                    "duration": 0.046875
                },
                {
                    "name": "C#5",
                    "midi": 73,
                    "time": 10.453125,
                    "velocity": 0.3700787401574803,
                    "duration": 0.046875
                },
                {
                    "name": "D5",
                    "midi": 74,
                    "time": 10.5,
                    "velocity": 0.4094488188976378,
                    "duration": 0.09375
                },
                {
                    "name": "E5",
                    "midi": 76,
                    "time": 10.59375,
                    "velocity": 0.3858267716535433,
                    "duration": 0.09375
                },
                {
                    "name": "F#5",
                    "midi": 78,
                    "time": 10.6875,
                    "velocity": 0.3937007874015748,
                    "duration": 0.09375
                },
                {
                    "name": "G5",
                    "midi": 79,
                    "time": 10.78125,
                    "velocity": 0.4015748031496063,
                    "duration": 0.09375
                },
                {
                    "name": "A5",
                    "midi": 81,
                    "time": 10.875,
                    "velocity": 0.4015748031496063,
                    "duration": 0.09375
                },
                {
                    "name": "F#5",
                    "midi": 78,
                    "time": 10.96875,
                    "velocity": 0.4015748031496063,
                    "duration": 0.09375
                },
                {
                    "name": "E5",
                    "midi": 76,
                    "time": 11.0625,
                    "velocity": 0.3937007874015748,
                    "duration": 0.09375
                },
                {
                    "name": "D5",
                    "midi": 74,
                    "time": 11.15625,
                    "velocity": 0.3937007874015748,
                    "duration": 0.09375
                },
                {
                    "name": "C#5",
                    "midi": 73,
                    "time": 11.25,
                    "velocity": 0.41732283464566927,
                    "duration": 0.09375
                },
                {
                    "name": "D5",
                    "midi": 74,
                    "time": 11.34375,
                    "velocity": 0.3779527559055118,
                    "duration": 0.09375
                },
                {
                    "name": "E5",
                    "midi": 76,
                    "time": 11.4375,
                    "velocity": 0.3858267716535433,
                    "duration": 0.09375
                },
                {
                    "name": "F#5",
                    "midi": 78,
                    "time": 11.53125,
                    "velocity": 0.3858267716535433,
                    "duration": 0.09375
                },
                {
                    "name": "G5",
                    "midi": 79,
                    "time": 11.625,
                    "velocity": 0.3858267716535433,
                    "duration": 0.09375
                },
                {
                    "name": "E5",
                    "midi": 76,
                    "time": 11.71875,
                    "velocity": 0.3858267716535433,
                    "duration": 0.09375
                },
                {
                    "name": "D5",
                    "midi": 74,
                    "time": 11.8125,
                    "velocity": 0.3779527559055118,
                    "duration": 0.09375
                },
                {
                    "name": "C#5",
                    "midi": 73,
                    "time": 11.90625,
                    "velocity": 0.3779527559055118,
                    "duration": 0.09375
                },
                {
                    "name": "D5",
                    "midi": 74,
                    "time": 12,
                    "velocity": 0.4094488188976378,
                    "duration": 0.09375
                },
                {
                    "name": "E5",
                    "midi": 76,
                    "time": 12.09375,
                    "velocity": 0.3700787401574803,
                    "duration": 0.09375
                },
                {
                    "name": "F#5",
                    "midi": 78,
                    "time": 12.1875,
                    "velocity": 0.3779527559055118,
                    "duration": 0.09375
                },
                {
                    "name": "G5",
                    "midi": 79,
                    "time": 12.28125,
                    "velocity": 0.3858267716535433,
                    "duration": 0.09375
                },
                {
                    "name": "A5",
                    "midi": 81,
                    "time": 12.375,
                    "velocity": 0.3937007874015748,
                    "duration": 0.09375
                },
                {
                    "name": "F#5",
                    "midi": 78,
                    "time": 12.46875,
                    "velocity": 0.3858267716535433,
                    "duration": 0.09375
                },
                {
                    "name": "E5",
                    "midi": 76,
                    "time": 12.5625,
                    "velocity": 0.3779527559055118,
                    "duration": 0.09375
                },
                {
                    "name": "D5",
                    "midi": 74,
                    "time": 12.65625,
                    "velocity": 0.3700787401574803,
                    "duration": 0.09375
                },
                {
                    "name": "C#5",
                    "midi": 73,
                    "time": 12.75,
                    "velocity": 0.41732283464566927,
                    "duration": 0.09375
                },
                {
                    "name": "D5",
                    "midi": 74,
                    "time": 12.84375,
                    "velocity": 0.3700787401574803,
                    "duration": 0.09375
                },
                {
                    "name": "E5",
                    "midi": 76,
                    "time": 12.9375,
                    "velocity": 0.3700787401574803,
                    "duration": 0.09375
                },
                {
                    "name": "F#5",
                    "midi": 78,
                    "time": 13.03125,
                    "velocity": 0.3779527559055118,
                    "duration": 0.09375
                },
                {
                    "name": "G5",
                    "midi": 79,
                    "time": 13.125,
                    "velocity": 0.3858267716535433,
                    "duration": 0.09375
                },
                {
                    "name": "E5",
                    "midi": 76,
                    "time": 13.21875,
                    "velocity": 0.3858267716535433,
                    "duration": 0.09375
                },
                {
                    "name": "D5",
                    "midi": 74,
                    "time": 13.3125,
                    "velocity": 0.3779527559055118,
                    "duration": 0.09375
                },
                {
                    "name": "C#5",
                    "midi": 73,
                    "time": 13.40625,
                    "velocity": 0.3779527559055118,
                    "duration": 0.09375
                },
                {
                    "name": "D5",
                    "midi": 74,
                    "time": 13.5,
                    "velocity": 0.4566929133858268,
                    "duration": 0.328125
                },
                {
                    "name": "C#6",
                    "midi": 85,
                    "time": 13.828125,
                    "velocity": 0.6062992125984252,
                    "duration": 0.046875
                },
                {
                    "name": "D6",
                    "midi": 86,
                    "time": 13.875,
                    "velocity": 0.6850393700787402,
                    "duration": 0.375
                },
                {
                    "name": "G4",
                    "midi": 67,
                    "time": 15.00078125,
                    "velocity": 0.47244094488188976,
                    "duration": 0.28125
                },
                {
                    "name": "B4",
                    "midi": 71,
                    "time": 15.28125,
                    "velocity": 0.3779527559055118,
                    "duration": 0.046875
                },
                {
                    "name": "A4",
                    "midi": 69,
                    "time": 15.328125,
                    "velocity": 0.3779527559055118,
                    "duration": 0.046875
                },
                {
                    "name": "G4",
                    "midi": 67,
                    "time": 15.375,
                    "velocity": 0.4409448818897638,
                    "duration": 0.1875
                },
                {
                    "name": "D4",
                    "midi": 62,
                    "time": 15.9375,
                    "velocity": 0.41732283464566927,
                    "duration": 0.1875
                },
                {
                    "name": "G4",
                    "midi": 67,
                    "time": 16.125,
                    "velocity": 0.41732283464566927,
                    "duration": 0.1875
                },
                {
                    "name": "B4",
                    "midi": 71,
                    "time": 16.3125,
                    "velocity": 0.41732283464566927,
                    "duration": 0.1875
                },
                {
                    "name": "B4",
                    "midi": 71,
                    "time": 16.5,
                    "velocity": 0.44881889763779526,
                    "duration": 0.09375
                },
                {
                    "name": "A4",
                    "midi": 69,
                    "time": 16.59375,
                    "velocity": 0.4251968503937008,
                    "duration": 0.09375
                },
                {
                    "name": "G4",
                    "midi": 67,
                    "time": 16.6875,
                    "velocity": 0.4251968503937008,
                    "duration": 0.09375
                },
                {
                    "name": "A4",
                    "midi": 69,
                    "time": 16.78125,
                    "velocity": 0.4251968503937008,
                    "duration": 0.09375
                },
                {
                    "name": "G4",
                    "midi": 67,
                    "time": 16.875,
                    "velocity": 0.44881889763779526,
                    "duration": 0.1875
                },
                {
                    "name": "D5",
                    "midi": 74,
                    "time": 17.0625,
                    "velocity": 0.4251968503937008,
                    "duration": 0.1875
                },
                {
                    "name": "D5",
                    "midi": 74,
                    "time": 17.25,
                    "velocity": 0.4251968503937008,
                    "duration": 0.09375
                },
                {
                    "name": "D5",
                    "midi": 74,
                    "time": 17.4375,
                    "velocity": 0.4251968503937008,
                    "duration": 0.09375
                },
                {
                    "name": "D5",
                    "midi": 74,
                    "time": 17.625,
                    "velocity": 0.4251968503937008,
                    "duration": 0.09375
                },
                {
                    "name": "D5",
                    "midi": 74,
                    "time": 17.8125,
                    "velocity": 0.4251968503937008,
                    "duration": 0.09375
                },
                {
                    "name": "D5",
                    "midi": 74,
                    "time": 18,
                    "velocity": 0.44881889763779526,
                    "duration": 0.28125
                },
                {
                    "name": "E5",
                    "midi": 76,
                    "time": 18.28125,
                    "velocity": 0.3700787401574803,
                    "duration": 0.046875
                },
                {
                    "name": "D5",
                    "midi": 74,
                    "time": 18.328125,
                    "velocity": 0.3700787401574803,
                    "duration": 0.046875
                },
                {
                    "name": "C5",
                    "midi": 72,
                    "time": 18.375,
                    "velocity": 0.4094488188976378,
                    "duration": 0.1875
                },
                {
                    "name": "B4",
                    "midi": 71,
                    "time": 18.5625,
                    "velocity": 0.3937007874015748,
                    "duration": 0.1875
                },
                {
                    "name": "A4",
                    "midi": 69,
                    "time": 18.75,
                    "velocity": 0.4094488188976378,
                    "duration": 0.1875
                },
                {
                    "name": "A5",
                    "midi": 81,
                    "time": 18.9375,
                    "velocity": 0.5354330708661418,
                    "duration": 0.375
                },
                {
                    "name": "G5",
                    "midi": 79,
                    "time": 19.3125,
                    "velocity": 0.5118110236220472,
                    "duration": 0.1875
                },
                {
                    "name": "G5",
                    "midi": 79,
                    "time": 19.5,
                    "velocity": 0.49606299212598426,
                    "duration": 0.09375
                },
                {
                    "name": "F#5",
                    "midi": 78,
                    "time": 19.59375,
                    "velocity": 0.4251968503937008,
                    "duration": 0.09375
                },
                {
                    "name": "E5",
                    "midi": 76,
                    "time": 19.6875,
                    "velocity": 0.4251968503937008,
                    "duration": 0.09375
                },
                {
                    "name": "D5",
                    "midi": 74,
                    "time": 19.78125,
                    "velocity": 0.4251968503937008,
                    "duration": 0.09375
                },
                {
                    "name": "D5",
                    "midi": 74,
                    "time": 19.875,
                    "velocity": 0.4251968503937008,
                    "duration": 0.1875
                },
                {
                    "name": "D5",
                    "midi": 74,
                    "time": 20.0625,
                    "velocity": 0.4409448818897638,
                    "duration": 0.1875
                },
                {
                    "name": "D5",
                    "midi": 74,
                    "time": 20.25,
                    "velocity": 0.4251968503937008,
                    "duration": 0.09375
                },
                {
                    "name": "E5",
                    "midi": 76,
                    "time": 20.34375,
                    "velocity": 0.4094488188976378,
                    "duration": 0.09375
                },
                {
                    "name": "C5",
                    "midi": 72,
                    "time": 20.4375,
                    "velocity": 0.4251968503937008,
                    "duration": 0.09375
                },
                {
                    "name": "D5",
                    "midi": 74,
                    "time": 20.53125,
                    "velocity": 0.4094488188976378,
                    "duration": 0.09375
                },
                {
                    "name": "B4",
                    "midi": 71,
                    "time": 20.625,
                    "velocity": 0.4251968503937008,
                    "duration": 0.09375
                },
                {
                    "name": "C5",
                    "midi": 72,
                    "time": 20.71875,
                    "velocity": 0.4015748031496063,
                    "duration": 0.09375
                },
                {
                    "name": "A4",
                    "midi": 69,
                    "time": 20.8125,
                    "velocity": 0.4251968503937008,
                    "duration": 0.09375
                },
                {
                    "name": "B4",
                    "midi": 71,
                    "time": 20.90625,
                    "velocity": 0.4094488188976378,
                    "duration": 0.09375
                },
                {
                    "name": "G4",
                    "midi": 67,
                    "time": 21.00078125,
                    "velocity": 0.47244094488188976,
                    "duration": 0.28125
                },
                {
                    "name": "B4",
                    "midi": 71,
                    "time": 21.28125,
                    "velocity": 0.36220472440944884,
                    "duration": 0.046875
                },
                {
                    "name": "A4",
                    "midi": 69,
                    "time": 21.328125,
                    "velocity": 0.3700787401574803,
                    "duration": 0.046875
                },
                {
                    "name": "G4",
                    "midi": 67,
                    "time": 21.375,
                    "velocity": 0.4409448818897638,
                    "duration": 0.1875
                },
                {
                    "name": "D4",
                    "midi": 62,
                    "time": 21.9375,
                    "velocity": 0.41732283464566927,
                    "duration": 0.1875
                },
                {
                    "name": "G4",
                    "midi": 67,
                    "time": 22.125,
                    "velocity": 0.41732283464566927,
                    "duration": 0.1875
                },
                {
                    "name": "B4",
                    "midi": 71,
                    "time": 22.3125,
                    "velocity": 0.41732283464566927,
                    "duration": 0.1875
                },
                {
                    "name": "B4",
                    "midi": 71,
                    "time": 22.5,
                    "velocity": 0.44881889763779526,
                    "duration": 0.09375
                },
                {
                    "name": "A4",
                    "midi": 69,
                    "time": 22.59375,
                    "velocity": 0.4251968503937008,
                    "duration": 0.09375
                },
                {
                    "name": "G4",
                    "midi": 67,
                    "time": 22.6875,
                    "velocity": 0.4251968503937008,
                    "duration": 0.09375
                },
                {
                    "name": "A4",
                    "midi": 69,
                    "time": 22.78125,
                    "velocity": 0.4251968503937008,
                    "duration": 0.09375
                },
                {
                    "name": "G4",
                    "midi": 67,
                    "time": 22.875,
                    "velocity": 0.44881889763779526,
                    "duration": 0.1875
                },
                {
                    "name": "E5",
                    "midi": 76,
                    "time": 23.0625,
                    "velocity": 0.4251968503937008,
                    "duration": 0.1875
                },
                {
                    "name": "E5",
                    "midi": 76,
                    "time": 23.25,
                    "velocity": 0.4251968503937008,
                    "duration": 0.09375
                },
                {
                    "name": "E5",
                    "midi": 76,
                    "time": 23.4375,
                    "velocity": 0.4251968503937008,
                    "duration": 0.09375
                },
                {
                    "name": "E5",
                    "midi": 76,
                    "time": 23.625,
                    "velocity": 0.4251968503937008,
                    "duration": 0.09375
                },
                {
                    "name": "E5",
                    "midi": 76,
                    "time": 23.8125,
                    "velocity": 0.4251968503937008,
                    "duration": 0.09375
                },
                {
                    "name": "E5",
                    "midi": 76,
                    "time": 24,
                    "velocity": 0.44881889763779526,
                    "duration": 0.28125
                },
                {
                    "name": "G5",
                    "midi": 79,
                    "time": 24.28125,
                    "velocity": 0.3937007874015748,
                    "duration": 0.046875
                },
                {
                    "name": "A5",
                    "midi": 81,
                    "time": 24.328125,
                    "velocity": 0.4094488188976378,
                    "duration": 0.046875
                },
                {
                    "name": "B5",
                    "midi": 83,
                    "time": 24.375,
                    "velocity": 0.47244094488188976,
                    "duration": 0.28125
                },
                {
                    "name": "G5",
                    "midi": 79,
                    "time": 24.65625,
                    "velocity": 0.3858267716535433,
                    "duration": 0.046875
                },
                {
                    "name": "E5",
                    "midi": 76,
                    "time": 24.703125,
                    "velocity": 0.3858267716535433,
                    "duration": 0.046875
                },
                {
                    "name": "D5",
                    "midi": 74,
                    "time": 24.75,
                    "velocity": 0.47244094488188976,
                    "duration": 0.375
                },
                {
                    "name": "C#5",
                    "midi": 73,
                    "time": 25.125,
                    "velocity": 0.4094488188976378,
                    "duration": 0.0625
                },
                {
                    "name": "D5",
                    "midi": 74,
                    "time": 25.1875,
                    "velocity": 0.33858267716535434,
                    "duration": 0.0625
                },
                {
                    "name": "C#5",
                    "midi": 73,
                    "time": 25.25,
                    "velocity": 0.3779527559055118,
                    "duration": 0.0625
                },
                {
                    "name": "D5",
                    "midi": 74,
                    "time": 25.3125,
                    "velocity": 0.33858267716535434,
                    "duration": 0.046875
                },
                {
                    "name": "C#5",
                    "midi": 73,
                    "time": 25.359375,
                    "velocity": 0.3779527559055118,
                    "duration": 0.046875
                },
                {
                    "name": "D5",
                    "midi": 74,
                    "time": 25.40625,
                    "velocity": 0.33070866141732286,
                    "duration": 0.046875
                },
                {
                    "name": "C#5",
                    "midi": 73,
                    "time": 25.453125,
                    "velocity": 0.3700787401574803,
                    "duration": 0.046875
                },
                {
                    "name": "D5",
                    "midi": 74,
                    "time": 25.5,
                    "velocity": 0.4251968503937008,
                    "duration": 0.09375
                },
                {
                    "name": "E5",
                    "midi": 76,
                    "time": 25.59375,
                    "velocity": 0.3858267716535433,
                    "duration": 0.09375
                },
                {
                    "name": "F#5",
                    "midi": 78,
                    "time": 25.6875,
                    "velocity": 0.3937007874015748,
                    "duration": 0.09375
                },
                {
                    "name": "G5",
                    "midi": 79,
                    "time": 25.78125,
                    "velocity": 0.4015748031496063,
                    "duration": 0.09375
                },
                {
                    "name": "A5",
                    "midi": 81,
                    "time": 25.875,
                    "velocity": 0.4015748031496063,
                    "duration": 0.09375
                },
                {
                    "name": "F#5",
                    "midi": 78,
                    "time": 25.96875,
                    "velocity": 0.4015748031496063,
                    "duration": 0.09375
                },
                {
                    "name": "E5",
                    "midi": 76,
                    "time": 26.0625,
                    "velocity": 0.3937007874015748,
                    "duration": 0.09375
                },
                {
                    "name": "D5",
                    "midi": 74,
                    "time": 26.15625,
                    "velocity": 0.3937007874015748,
                    "duration": 0.09375
                },
                {
                    "name": "C#5",
                    "midi": 73,
                    "time": 26.25,
                    "velocity": 0.41732283464566927,
                    "duration": 0.09375
                },
                {
                    "name": "D5",
                    "midi": 74,
                    "time": 26.34375,
                    "velocity": 0.3779527559055118,
                    "duration": 0.09375
                },
                {
                    "name": "E5",
                    "midi": 76,
                    "time": 26.4375,
                    "velocity": 0.3858267716535433,
                    "duration": 0.09375
                },
                {
                    "name": "F#5",
                    "midi": 78,
                    "time": 26.53125,
                    "velocity": 0.3858267716535433,
                    "duration": 0.09375
                },
                {
                    "name": "G5",
                    "midi": 79,
                    "time": 26.625,
                    "velocity": 0.3858267716535433,
                    "duration": 0.09375
                },
                {
                    "name": "E5",
                    "midi": 76,
                    "time": 26.71875,
                    "velocity": 0.3858267716535433,
                    "duration": 0.09375
                },
                {
                    "name": "D5",
                    "midi": 74,
                    "time": 26.8125,
                    "velocity": 0.3779527559055118,
                    "duration": 0.09375
                },
                {
                    "name": "C#5",
                    "midi": 73,
                    "time": 26.90625,
                    "velocity": 0.3779527559055118,
                    "duration": 0.09375
                },
                {
                    "name": "D5",
                    "midi": 74,
                    "time": 27,
                    "velocity": 0.4094488188976378,
                    "duration": 0.09375
                },
                {
                    "name": "E5",
                    "midi": 76,
                    "time": 27.09375,
                    "velocity": 0.3700787401574803,
                    "duration": 0.09375
                },
                {
                    "name": "F#5",
                    "midi": 78,
                    "time": 27.1875,
                    "velocity": 0.3779527559055118,
                    "duration": 0.09375
                },
                {
                    "name": "G5",
                    "midi": 79,
                    "time": 27.28125,
                    "velocity": 0.3858267716535433,
                    "duration": 0.09375
                },
                {
                    "name": "A5",
                    "midi": 81,
                    "time": 27.375,
                    "velocity": 0.3937007874015748,
                    "duration": 0.09375
                },
                {
                    "name": "F#5",
                    "midi": 78,
                    "time": 27.46875,
                    "velocity": 0.3858267716535433,
                    "duration": 0.09375
                },
                {
                    "name": "E5",
                    "midi": 76,
                    "time": 27.5625,
                    "velocity": 0.3779527559055118,
                    "duration": 0.09375
                },
                {
                    "name": "D5",
                    "midi": 74,
                    "time": 27.65625,
                    "velocity": 0.3700787401574803,
                    "duration": 0.09375
                },
                {
                    "name": "C#5",
                    "midi": 73,
                    "time": 27.75,
                    "velocity": 0.41732283464566927,
                    "duration": 0.09375
                },
                {
                    "name": "D5",
                    "midi": 74,
                    "time": 27.84375,
                    "velocity": 0.3700787401574803,
                    "duration": 0.09375
                },
                {
                    "name": "E5",
                    "midi": 76,
                    "time": 27.9375,
                    "velocity": 0.3700787401574803,
                    "duration": 0.09375
                },
                {
                    "name": "F#5",
                    "midi": 78,
                    "time": 28.03125,
                    "velocity": 0.3779527559055118,
                    "duration": 0.09375
                },
                {
                    "name": "G5",
                    "midi": 79,
                    "time": 28.125,
                    "velocity": 0.3858267716535433,
                    "duration": 0.09375
                },
                {
                    "name": "E5",
                    "midi": 76,
                    "time": 28.21875,
                    "velocity": 0.3858267716535433,
                    "duration": 0.09375
                },
                {
                    "name": "D5",
                    "midi": 74,
                    "time": 28.3125,
                    "velocity": 0.3779527559055118,
                    "duration": 0.09375
                },
                {
                    "name": "C#5",
                    "midi": 73,
                    "time": 28.40625,
                    "velocity": 0.3779527559055118,
                    "duration": 0.09375
                },
                {
                    "name": "D5",
                    "midi": 74,
                    "time": 28.5,
                    "velocity": 0.4566929133858268,
                    "duration": 0.328125
                },
                {
                    "name": "C#6",
                    "midi": 85,
                    "time": 28.828125,
                    "velocity": 0.6062992125984252,
                    "duration": 0.046875
                },
                {
                    "name": "D6",
                    "midi": 86,
                    "time": 28.875,
                    "velocity": 0.6850393700787402,
                    "duration": 0.375
                },
                {
                    "name": "F5",
                    "midi": 77,
                    "time": 30,
                    "velocity": 0.41732283464566927,
                    "duration": 0.28125
                },
                {
                    "name": "D5",
                    "midi": 74,
                    "time": 30.28125,
                    "velocity": 0.3543307086614173,
                    "duration": 0.046875
                },
                {
                    "name": "D#5",
                    "midi": 75,
                    "time": 30.328125,
                    "velocity": 0.3543307086614173,
                    "duration": 0.046875
                },
                {
                    "name": "F5",
                    "midi": 77,
                    "time": 30.375,
                    "velocity": 0.4251968503937008,
                    "duration": 0.1875
                },
                {
                    "name": "A4",
                    "midi": 69,
                    "time": 30.9375,
                    "velocity": 0.3937007874015748,
                    "duration": 0.1875
                },
                {
                    "name": "A4",
                    "midi": 69,
                    "time": 31.125,
                    "velocity": 0.3937007874015748,
                    "duration": 0.1875
                },
                {
                    "name": "A4",
                    "midi": 69,
                    "time": 31.3125,
                    "velocity": 0.3937007874015748,
                    "duration": 0.1875
                },
                {
                    "name": "A#4",
                    "midi": 70,
                    "time": 31.5,
                    "velocity": 0.41732283464566927,
                    "duration": 0.28125
                },
                {
                    "name": "A#4",
                    "midi": 70,
                    "time": 31.78125,
                    "velocity": 0.3543307086614173,
                    "duration": 0.046875
                },
                {
                    "name": "C5",
                    "midi": 72,
                    "time": 31.828125,
                    "velocity": 0.3543307086614173,
                    "duration": 0.046875
                },
                {
                    "name": "D5",
                    "midi": 74,
                    "time": 31.875,
                    "velocity": 0.4251968503937008,
                    "duration": 0.1875
                },
                {
                    "name": "F#4",
                    "midi": 66,
                    "time": 32.4375,
                    "velocity": 0.3937007874015748,
                    "duration": 0.1875
                },
                {
                    "name": "F#4",
                    "midi": 66,
                    "time": 32.625,
                    "velocity": 0.3937007874015748,
                    "duration": 0.1875
                },
                {
                    "name": "F#4",
                    "midi": 66,
                    "time": 32.8125,
                    "velocity": 0.3937007874015748,
                    "duration": 0.1875
                },
                {
                    "name": "G4",
                    "midi": 67,
                    "time": 33,
                    "velocity": 0.44881889763779526,
                    "duration": 0.28125
                },
                {
                    "name": "G4",
                    "midi": 67,
                    "time": 33.28125,
                    "velocity": 0.3543307086614173,
                    "duration": 0.046875
                },
                {
                    "name": "A4",
                    "midi": 69,
                    "time": 33.328125,
                    "velocity": 0.3543307086614173,
                    "duration": 0.046875
                },
                {
                    "name": "A#4",
                    "midi": 70,
                    "time": 33.375,
                    "velocity": 0.44881889763779526,
                    "duration": 0.1875
                },
                {
                    "name": "C#4",
                    "midi": 61,
                    "time": 33.9375,
                    "velocity": 0.4330708661417323,
                    "duration": 0.1875
                },
                {
                    "name": "C#4",
                    "midi": 61,
                    "time": 34.125,
                    "velocity": 0.44881889763779526,
                    "duration": 0.1875
                },
                {
                    "name": "C#4",
                    "midi": 61,
                    "time": 34.3125,
                    "velocity": 0.47244094488188976,
                    "duration": 0.1875
                },
                {
                    "name": "D4",
                    "midi": 62,
                    "time": 34.5,
                    "velocity": 0.5354330708661418,
                    "duration": 0.28125
                },
                {
                    "name": "F#3",
                    "midi": 54,
                    "time": 34.78125,
                    "velocity": 0.4015748031496063,
                    "duration": 0.046875
                },
                {
                    "name": "G3",
                    "midi": 55,
                    "time": 34.828125,
                    "velocity": 0.4015748031496063,
                    "duration": 0.046875
                },
                {
                    "name": "A3",
                    "midi": 57,
                    "time": 34.875,
                    "velocity": 0.5905511811023622,
                    "duration": 0.1875
                },
                {
                    "name": "F#3",
                    "midi": 54,
                    "time": 35.0625,
                    "velocity": 0.5354330708661418,
                    "duration": 0.1875
                },
                {
                    "name": "D3",
                    "midi": 50,
                    "time": 35.25,
                    "velocity": 0.5354330708661418,
                    "duration": 0.375
                },
                {
                    "name": "G4",
                    "midi": 67,
                    "time": 36.00078125,
                    "velocity": 0.47244094488188976,
                    "duration": 0.28125
                },
                {
                    "name": "B4",
                    "midi": 71,
                    "time": 36.28125,
                    "velocity": 0.36220472440944884,
                    "duration": 0.046875
                },
                {
                    "name": "A4",
                    "midi": 69,
                    "time": 36.328125,
                    "velocity": 0.3700787401574803,
                    "duration": 0.046875
                },
                {
                    "name": "G4",
                    "midi": 67,
                    "time": 36.375,
                    "velocity": 0.4409448818897638,
                    "duration": 0.1875
                },
                {
                    "name": "D4",
                    "midi": 62,
                    "time": 36.9375,
                    "velocity": 0.41732283464566927,
                    "duration": 0.1875
                },
                {
                    "name": "G4",
                    "midi": 67,
                    "time": 37.125,
                    "velocity": 0.41732283464566927,
                    "duration": 0.1875
                },
                {
                    "name": "B4",
                    "midi": 71,
                    "time": 37.3125,
                    "velocity": 0.41732283464566927,
                    "duration": 0.1875
                },
                {
                    "name": "B4",
                    "midi": 71,
                    "time": 37.5,
                    "velocity": 0.44881889763779526,
                    "duration": 0.09375
                },
                {
                    "name": "A4",
                    "midi": 69,
                    "time": 37.59375,
                    "velocity": 0.4251968503937008,
                    "duration": 0.09375
                },
                {
                    "name": "G4",
                    "midi": 67,
                    "time": 37.6875,
                    "velocity": 0.4251968503937008,
                    "duration": 0.09375
                },
                {
                    "name": "A4",
                    "midi": 69,
                    "time": 37.78125,
                    "velocity": 0.4251968503937008,
                    "duration": 0.09375
                },
                {
                    "name": "G4",
                    "midi": 67,
                    "time": 37.875,
                    "velocity": 0.44881889763779526,
                    "duration": 0.1875
                },
                {
                    "name": "E5",
                    "midi": 76,
                    "time": 38.0625,
                    "velocity": 0.4251968503937008,
                    "duration": 0.1875
                },
                {
                    "name": "E5",
                    "midi": 76,
                    "time": 38.25,
                    "velocity": 0.4251968503937008,
                    "duration": 0.09375
                },
                {
                    "name": "E5",
                    "midi": 76,
                    "time": 38.4375,
                    "velocity": 0.4251968503937008,
                    "duration": 0.09375
                },
                {
                    "name": "E5",
                    "midi": 76,
                    "time": 38.625,
                    "velocity": 0.4251968503937008,
                    "duration": 0.09375
                },
                {
                    "name": "E5",
                    "midi": 76,
                    "time": 38.8125,
                    "velocity": 0.4251968503937008,
                    "duration": 0.09375
                },
                {
                    "name": "E5",
                    "midi": 76,
                    "time": 39,
                    "velocity": 0.44881889763779526,
                    "duration": 0.28125
                },
                {
                    "name": "A5",
                    "midi": 81,
                    "time": 39.28125,
                    "velocity": 0.4094488188976378,
                    "duration": 0.046875
                },
                {
                    "name": "B5",
                    "midi": 83,
                    "time": 39.328125,
                    "velocity": 0.4094488188976378,
                    "duration": 0.046875
                },
                {
                    "name": "C6",
                    "midi": 84,
                    "time": 39.375,
                    "velocity": 0.3937007874015748,
                    "duration": 0.1875
                },
                {
                    "name": "E5",
                    "midi": 76,
                    "time": 39.5625,
                    "velocity": 0.4251968503937008,
                    "duration": 0.1875
                },
                {
                    "name": "D5",
                    "midi": 74,
                    "time": 39.75,
                    "velocity": 0.4251968503937008,
                    "duration": 0.09375
                },
                {
                    "name": "D5",
                    "midi": 74,
                    "time": 39.9375,
                    "velocity": 0.4251968503937008,
                    "duration": 0.09375
                },
                {
                    "name": "D5",
                    "midi": 74,
                    "time": 40.125,
                    "velocity": 0.4251968503937008,
                    "duration": 0.09375
                },
                {
                    "name": "D5",
                    "midi": 74,
                    "time": 40.3125,
                    "velocity": 0.4251968503937008,
                    "duration": 0.09375
                },
                {
                    "name": "D5",
                    "midi": 74,
                    "time": 40.5,
                    "velocity": 0.44881889763779526,
                    "duration": 0.28125
                },
                {
                    "name": "G5",
                    "midi": 79,
                    "time": 40.78125,
                    "velocity": 0.3858267716535433,
                    "duration": 0.046875
                },
                {
                    "name": "A5",
                    "midi": 81,
                    "time": 40.828125,
                    "velocity": 0.3779527559055118,
                    "duration": 0.046875
                },
                {
                    "name": "B5",
                    "midi": 83,
                    "time": 40.875,
                    "velocity": 0.3543307086614173,
                    "duration": 0.1875
                },
                {
                    "name": "B5",
                    "midi": 83,
                    "time": 42.65625,
                    "velocity": 0.30708661417322836,
                    "duration": 0.046875
                },
                {
                    "name": "A5",
                    "midi": 81,
                    "time": 42.703125,
                    "velocity": 0.30708661417322836,
                    "duration": 0.046875
                },
                {
                    "name": "G5",
                    "midi": 79,
                    "time": 42.75,
                    "velocity": 0.3700787401574803,
                    "duration": 0.09375
                },
                {
                    "name": "G5",
                    "midi": 79,
                    "time": 43.03125,
                    "velocity": 0.30708661417322836,
                    "duration": 0.046875
                },
                {
                    "name": "F#5",
                    "midi": 78,
                    "time": 43.078125,
                    "velocity": 0.30708661417322836,
                    "duration": 0.046875
                },
                {
                    "name": "E5",
                    "midi": 76,
                    "time": 43.125,
                    "velocity": 0.3937007874015748,
                    "duration": 0.09375
                },
                {
                    "name": "E5",
                    "midi": 76,
                    "time": 43.40625,
                    "velocity": 0.2992125984251969,
                    "duration": 0.046875
                },
                {
                    "name": "D5",
                    "midi": 74,
                    "time": 43.453125,
                    "velocity": 0.2992125984251969,
                    "duration": 0.046875
                },
                {
                    "name": "C5",
                    "midi": 72,
                    "time": 43.5,
                    "velocity": 0.3937007874015748,
                    "duration": 0.1875
                },
                {
                    "name": "D#5",
                    "midi": 75,
                    "time": 44.15625,
                    "velocity": 0.4015748031496063,
                    "duration": 0.046875
                },
                {
                    "name": "D5",
                    "midi": 74,
                    "time": 44.203125,
                    "velocity": 0.4015748031496063,
                    "duration": 0.046875
                },
                {
                    "name": "C5",
                    "midi": 72,
                    "time": 44.25,
                    "velocity": 0.4645669291338583,
                    "duration": 0.1875
                },
                {
                    "name": "C5",
                    "midi": 72,
                    "time": 44.4375,
                    "velocity": 0.4330708661417323,
                    "duration": 0.1875
                },
                {
                    "name": "C5",
                    "midi": 72,
                    "time": 44.625,
                    "velocity": 0.4330708661417323,
                    "duration": 0.1875
                },
                {
                    "name": "C5",
                    "midi": 72,
                    "time": 44.8125,
                    "velocity": 0.4330708661417323,
                    "duration": 0.1875
                },
                {
                    "name": "C5",
                    "midi": 72,
                    "time": 45,
                    "velocity": 0.4566929133858268,
                    "duration": 0.28125
                },
                {
                    "name": "D5",
                    "midi": 74,
                    "time": 45.28125,
                    "velocity": 0.36220472440944884,
                    "duration": 0.046875
                },
                {
                    "name": "C5",
                    "midi": 72,
                    "time": 45.328125,
                    "velocity": 0.36220472440944884,
                    "duration": 0.046875
                },
                {
                    "name": "B4",
                    "midi": 71,
                    "time": 45.375,
                    "velocity": 0.4409448818897638,
                    "duration": 0.1875
                },
                {
                    "name": "B4",
                    "midi": 71,
                    "time": 45.5625,
                    "velocity": 0.44881889763779526,
                    "duration": 0.1875
                },
                {
                    "name": "A4",
                    "midi": 69,
                    "time": 45.75,
                    "velocity": 0.47244094488188976,
                    "duration": 0.1875
                },
                {
                    "name": "E5",
                    "midi": 76,
                    "time": 45.9375,
                    "velocity": 0.4409448818897638,
                    "duration": 0.1875
                },
                {
                    "name": "D5",
                    "midi": 74,
                    "time": 46.125,
                    "velocity": 0.4409448818897638,
                    "duration": 0.1875
                },
                {
                    "name": "F#4",
                    "midi": 66,
                    "time": 46.3125,
                    "velocity": 0.4409448818897638,
                    "duration": 0.1875
                },
                {
                    "name": "G4",
                    "midi": 67,
                    "time": 46.5,
                    "velocity": 0.4251968503937008,
                    "duration": 0.09375
                },
                {
                    "name": "A4",
                    "midi": 69,
                    "time": 46.59375,
                    "velocity": 0.3858267716535433,
                    "duration": 0.09375
                },
                {
                    "name": "B4",
                    "midi": 71,
                    "time": 46.6875,
                    "velocity": 0.3937007874015748,
                    "duration": 0.09375
                },
                {
                    "name": "C5",
                    "midi": 72,
                    "time": 46.78125,
                    "velocity": 0.4015748031496063,
                    "duration": 0.09375
                },
                {
                    "name": "D5",
                    "midi": 74,
                    "time": 46.875,
                    "velocity": 0.4015748031496063,
                    "duration": 0.09375
                },
                {
                    "name": "B4",
                    "midi": 71,
                    "time": 46.96875,
                    "velocity": 0.4015748031496063,
                    "duration": 0.09375
                },
                {
                    "name": "A4",
                    "midi": 69,
                    "time": 47.0625,
                    "velocity": 0.3937007874015748,
                    "duration": 0.09375
                },
                {
                    "name": "G4",
                    "midi": 67,
                    "time": 47.15625,
                    "velocity": 0.3937007874015748,
                    "duration": 0.09375
                },
                {
                    "name": "F#4",
                    "midi": 66,
                    "time": 47.25,
                    "velocity": 0.41732283464566927,
                    "duration": 0.09375
                },
                {
                    "name": "G4",
                    "midi": 67,
                    "time": 47.34375,
                    "velocity": 0.3779527559055118,
                    "duration": 0.09375
                },
                {
                    "name": "A4",
                    "midi": 69,
                    "time": 47.4375,
                    "velocity": 0.3858267716535433,
                    "duration": 0.09375
                },
                {
                    "name": "B4",
                    "midi": 71,
                    "time": 47.53125,
                    "velocity": 0.3858267716535433,
                    "duration": 0.09375
                },
                {
                    "name": "C5",
                    "midi": 72,
                    "time": 47.625,
                    "velocity": 0.3858267716535433,
                    "duration": 0.09375
                },
                {
                    "name": "A4",
                    "midi": 69,
                    "time": 47.71875,
                    "velocity": 0.3858267716535433,
                    "duration": 0.09375
                },
                {
                    "name": "G4",
                    "midi": 67,
                    "time": 47.8125,
                    "velocity": 0.3779527559055118,
                    "duration": 0.09375
                },
                {
                    "name": "F#4",
                    "midi": 66,
                    "time": 47.90625,
                    "velocity": 0.3779527559055118,
                    "duration": 0.09375
                },
                {
                    "name": "G4",
                    "midi": 67,
                    "time": 48,
                    "velocity": 0.4094488188976378,
                    "duration": 0.09375
                },
                {
                    "name": "A4",
                    "midi": 69,
                    "time": 48.09375,
                    "velocity": 0.3700787401574803,
                    "duration": 0.09375
                },
                {
                    "name": "B4",
                    "midi": 71,
                    "time": 48.1875,
                    "velocity": 0.3779527559055118,
                    "duration": 0.09375
                },
                {
                    "name": "C5",
                    "midi": 72,
                    "time": 48.28125,
                    "velocity": 0.3858267716535433,
                    "duration": 0.09375
                },
                {
                    "name": "D5",
                    "midi": 74,
                    "time": 48.375,
                    "velocity": 0.3937007874015748,
                    "duration": 0.09375
                },
                {
                    "name": "B4",
                    "midi": 71,
                    "time": 48.46875,
                    "velocity": 0.3858267716535433,
                    "duration": 0.09375
                },
                {
                    "name": "A4",
                    "midi": 69,
                    "time": 48.5625,
                    "velocity": 0.3779527559055118,
                    "duration": 0.09375
                },
                {
                    "name": "G4",
                    "midi": 67,
                    "time": 48.65625,
                    "velocity": 0.3700787401574803,
                    "duration": 0.09375
                },
                {
                    "name": "F#4",
                    "midi": 66,
                    "time": 48.75,
                    "velocity": 0.41732283464566927,
                    "duration": 0.09375
                },
                {
                    "name": "G4",
                    "midi": 67,
                    "time": 48.84375,
                    "velocity": 0.3700787401574803,
                    "duration": 0.09375
                },
                {
                    "name": "A4",
                    "midi": 69,
                    "time": 48.9375,
                    "velocity": 0.3700787401574803,
                    "duration": 0.09375
                },
                {
                    "name": "B4",
                    "midi": 71,
                    "time": 49.03125,
                    "velocity": 0.3779527559055118,
                    "duration": 0.09375
                },
                {
                    "name": "C5",
                    "midi": 72,
                    "time": 49.125,
                    "velocity": 0.3858267716535433,
                    "duration": 0.09375
                },
                {
                    "name": "A4",
                    "midi": 69,
                    "time": 49.21875,
                    "velocity": 0.3858267716535433,
                    "duration": 0.09375
                },
                {
                    "name": "G4",
                    "midi": 67,
                    "time": 49.3125,
                    "velocity": 0.3779527559055118,
                    "duration": 0.09375
                },
                {
                    "name": "F#4",
                    "midi": 66,
                    "time": 49.40625,
                    "velocity": 0.3779527559055118,
                    "duration": 0.09375
                },
                {
                    "name": "G4",
                    "midi": 67,
                    "time": 49.5,
                    "velocity": 0.4566929133858268,
                    "duration": 0.328125
                },
                {
                    "name": "F#5",
                    "midi": 78,
                    "time": 49.828125,
                    "velocity": 0.5118110236220472,
                    "duration": 0.046875
                },
                {
                    "name": "G5",
                    "midi": 79,
                    "time": 49.875,
                    "velocity": 0.5984251968503937,
                    "duration": 0.375
                },
                {
                    "name": "F5",
                    "midi": 77,
                    "time": 51,
                    "velocity": 0.41732283464566927,
                    "duration": 0.28125
                },
                {
                    "name": "D5",
                    "midi": 74,
                    "time": 51.28125,
                    "velocity": 0.3543307086614173,
                    "duration": 0.046875
                },
                {
                    "name": "D#5",
                    "midi": 75,
                    "time": 51.328125,
                    "velocity": 0.3543307086614173,
                    "duration": 0.046875
                },
                {
                    "name": "F5",
                    "midi": 77,
                    "time": 51.375,
                    "velocity": 0.4251968503937008,
                    "duration": 0.1875
                },
                {
                    "name": "A4",
                    "midi": 69,
                    "time": 51.9375,
                    "velocity": 0.3937007874015748,
                    "duration": 0.1875
                },
                {
                    "name": "A4",
                    "midi": 69,
                    "time": 52.125,
                    "velocity": 0.3937007874015748,
                    "duration": 0.1875
                },
                {
                    "name": "A4",
                    "midi": 69,
                    "time": 52.3125,
                    "velocity": 0.3937007874015748,
                    "duration": 0.1875
                },
                {
                    "name": "A#4",
                    "midi": 70,
                    "time": 52.5,
                    "velocity": 0.41732283464566927,
                    "duration": 0.28125
                },
                {
                    "name": "A#4",
                    "midi": 70,
                    "time": 52.78125,
                    "velocity": 0.3543307086614173,
                    "duration": 0.046875
                },
                {
                    "name": "C5",
                    "midi": 72,
                    "time": 52.828125,
                    "velocity": 0.3543307086614173,
                    "duration": 0.046875
                },
                {
                    "name": "D5",
                    "midi": 74,
                    "time": 52.875,
                    "velocity": 0.4251968503937008,
                    "duration": 0.1875
                },
                {
                    "name": "F#4",
                    "midi": 66,
                    "time": 53.4375,
                    "velocity": 0.3937007874015748,
                    "duration": 0.1875
                },
                {
                    "name": "F#4",
                    "midi": 66,
                    "time": 53.625,
                    "velocity": 0.3937007874015748,
                    "duration": 0.1875
                },
                {
                    "name": "F#4",
                    "midi": 66,
                    "time": 53.8125,
                    "velocity": 0.3937007874015748,
                    "duration": 0.1875
                },
                {
                    "name": "G4",
                    "midi": 67,
                    "time": 54,
                    "velocity": 0.44881889763779526,
                    "duration": 0.28125
                },
                {
                    "name": "G4",
                    "midi": 67,
                    "time": 54.28125,
                    "velocity": 0.3543307086614173,
                    "duration": 0.046875
                },
                {
                    "name": "A4",
                    "midi": 69,
                    "time": 54.328125,
                    "velocity": 0.3543307086614173,
                    "duration": 0.046875
                },
                {
                    "name": "A#4",
                    "midi": 70,
                    "time": 54.375,
                    "velocity": 0.44881889763779526,
                    "duration": 0.1875
                },
                {
                    "name": "C#4",
                    "midi": 61,
                    "time": 54.9375,
                    "velocity": 0.4251968503937008,
                    "duration": 0.1875
                },
                {
                    "name": "C#4",
                    "midi": 61,
                    "time": 55.125,
                    "velocity": 0.44881889763779526,
                    "duration": 0.1875
                },
                {
                    "name": "C#4",
                    "midi": 61,
                    "time": 55.3125,
                    "velocity": 0.47244094488188976,
                    "duration": 0.1875
                },
                {
                    "name": "D4",
                    "midi": 62,
                    "time": 55.5,
                    "velocity": 0.5354330708661418,
                    "duration": 0.28125
                },
                {
                    "name": "F#3",
                    "midi": 54,
                    "time": 55.78125,
                    "velocity": 0.4015748031496063,
                    "duration": 0.046875
                },
                {
                    "name": "G3",
                    "midi": 55,
                    "time": 55.828125,
                    "velocity": 0.4015748031496063,
                    "duration": 0.046875
                },
                {
                    "name": "A3",
                    "midi": 57,
                    "time": 55.875,
                    "velocity": 0.5905511811023622,
                    "duration": 0.1875
                },
                {
                    "name": "F#3",
                    "midi": 54,
                    "time": 56.0625,
                    "velocity": 0.5354330708661418,
                    "duration": 0.1875
                },
                {
                    "name": "D3",
                    "midi": 50,
                    "time": 56.25,
                    "velocity": 0.5354330708661418,
                    "duration": 0.375
                },
                {
                    "name": "G4",
                    "midi": 67,
                    "time": 57.00078125,
                    "velocity": 0.47244094488188976,
                    "duration": 0.28125
                },
                {
                    "name": "B4",
                    "midi": 71,
                    "time": 57.28125,
                    "velocity": 0.36220472440944884,
                    "duration": 0.046875
                },
                {
                    "name": "A4",
                    "midi": 69,
                    "time": 57.328125,
                    "velocity": 0.3700787401574803,
                    "duration": 0.046875
                },
                {
                    "name": "G4",
                    "midi": 67,
                    "time": 57.375,
                    "velocity": 0.4409448818897638,
                    "duration": 0.1875
                },
                {
                    "name": "D4",
                    "midi": 62,
                    "time": 57.9375,
                    "velocity": 0.41732283464566927,
                    "duration": 0.1875
                },
                {
                    "name": "G4",
                    "midi": 67,
                    "time": 58.125,
                    "velocity": 0.41732283464566927,
                    "duration": 0.1875
                },
                {
                    "name": "B4",
                    "midi": 71,
                    "time": 58.3125,
                    "velocity": 0.41732283464566927,
                    "duration": 0.1875
                },
                {
                    "name": "B4",
                    "midi": 71,
                    "time": 58.5,
                    "velocity": 0.44881889763779526,
                    "duration": 0.09375
                },
                {
                    "name": "A4",
                    "midi": 69,
                    "time": 58.59375,
                    "velocity": 0.4251968503937008,
                    "duration": 0.09375
                },
                {
                    "name": "G4",
                    "midi": 67,
                    "time": 58.6875,
                    "velocity": 0.4251968503937008,
                    "duration": 0.09375
                },
                {
                    "name": "A4",
                    "midi": 69,
                    "time": 58.78125,
                    "velocity": 0.4251968503937008,
                    "duration": 0.09375
                },
                {
                    "name": "G4",
                    "midi": 67,
                    "time": 58.875,
                    "velocity": 0.44881889763779526,
                    "duration": 0.1875
                },
                {
                    "name": "E5",
                    "midi": 76,
                    "time": 59.0625,
                    "velocity": 0.4251968503937008,
                    "duration": 0.1875
                },
                {
                    "name": "E5",
                    "midi": 76,
                    "time": 59.25,
                    "velocity": 0.4251968503937008,
                    "duration": 0.09375
                },
                {
                    "name": "E5",
                    "midi": 76,
                    "time": 59.4375,
                    "velocity": 0.4251968503937008,
                    "duration": 0.09375
                },
                {
                    "name": "E5",
                    "midi": 76,
                    "time": 59.625,
                    "velocity": 0.4251968503937008,
                    "duration": 0.09375
                },
                {
                    "name": "E5",
                    "midi": 76,
                    "time": 59.8125,
                    "velocity": 0.4251968503937008,
                    "duration": 0.09375
                },
                {
                    "name": "E5",
                    "midi": 76,
                    "time": 60,
                    "velocity": 0.44881889763779526,
                    "duration": 0.28125
                },
                {
                    "name": "A5",
                    "midi": 81,
                    "time": 60.28125,
                    "velocity": 0.4094488188976378,
                    "duration": 0.046875
                },
                {
                    "name": "B5",
                    "midi": 83,
                    "time": 60.328125,
                    "velocity": 0.4094488188976378,
                    "duration": 0.046875
                },
                {
                    "name": "C6",
                    "midi": 84,
                    "time": 60.375,
                    "velocity": 0.3937007874015748,
                    "duration": 0.1875
                },
                {
                    "name": "E5",
                    "midi": 76,
                    "time": 60.5625,
                    "velocity": 0.4251968503937008,
                    "duration": 0.1875
                },
                {
                    "name": "D5",
                    "midi": 74,
                    "time": 60.75,
                    "velocity": 0.4251968503937008,
                    "duration": 0.09375
                },
                {
                    "name": "D5",
                    "midi": 74,
                    "time": 60.9375,
                    "velocity": 0.4251968503937008,
                    "duration": 0.09375
                },
                {
                    "name": "D5",
                    "midi": 74,
                    "time": 61.125,
                    "velocity": 0.4251968503937008,
                    "duration": 0.09375
                },
                {
                    "name": "D5",
                    "midi": 74,
                    "time": 61.3125,
                    "velocity": 0.4251968503937008,
                    "duration": 0.09375
                },
                {
                    "name": "D5",
                    "midi": 74,
                    "time": 61.5,
                    "velocity": 0.44881889763779526,
                    "duration": 0.28125
                },
                {
                    "name": "G5",
                    "midi": 79,
                    "time": 61.78125,
                    "velocity": 0.3858267716535433,
                    "duration": 0.046875
                },
                {
                    "name": "A5",
                    "midi": 81,
                    "time": 61.828125,
                    "velocity": 0.3779527559055118,
                    "duration": 0.046875
                },
                {
                    "name": "B5",
                    "midi": 83,
                    "time": 61.875,
                    "velocity": 0.3543307086614173,
                    "duration": 0.1875
                },
                {
                    "name": "B5",
                    "midi": 83,
                    "time": 63.65625,
                    "velocity": 0.30708661417322836,
                    "duration": 0.046875
                },
                {
                    "name": "A5",
                    "midi": 81,
                    "time": 63.703125,
                    "velocity": 0.30708661417322836,
                    "duration": 0.046875
                },
                {
                    "name": "G5",
                    "midi": 79,
                    "time": 63.75,
                    "velocity": 0.3700787401574803,
                    "duration": 0.09375
                },
                {
                    "name": "G5",
                    "midi": 79,
                    "time": 64.03125,
                    "velocity": 0.30708661417322836,
                    "duration": 0.046875
                },
                {
                    "name": "F#5",
                    "midi": 78,
                    "time": 64.078125,
                    "velocity": 0.30708661417322836,
                    "duration": 0.046875
                },
                {
                    "name": "E5",
                    "midi": 76,
                    "time": 64.125,
                    "velocity": 0.3937007874015748,
                    "duration": 0.09375
                },
                {
                    "name": "E5",
                    "midi": 76,
                    "time": 64.40625,
                    "velocity": 0.2992125984251969,
                    "duration": 0.046875
                },
                {
                    "name": "D5",
                    "midi": 74,
                    "time": 64.453125,
                    "velocity": 0.2992125984251969,
                    "duration": 0.046875
                },
                {
                    "name": "C5",
                    "midi": 72,
                    "time": 64.5,
                    "velocity": 0.3937007874015748,
                    "duration": 0.1875
                },
                {
                    "name": "D#5",
                    "midi": 75,
                    "time": 65.15625,
                    "velocity": 0.4015748031496063,
                    "duration": 0.046875
                },
                {
                    "name": "D5",
                    "midi": 74,
                    "time": 65.203125,
                    "velocity": 0.4015748031496063,
                    "duration": 0.046875
                },
                {
                    "name": "C5",
                    "midi": 72,
                    "time": 65.25,
                    "velocity": 0.4645669291338583,
                    "duration": 0.1875
                },
                {
                    "name": "C5",
                    "midi": 72,
                    "time": 65.4375,
                    "velocity": 0.4330708661417323,
                    "duration": 0.1875
                },
                {
                    "name": "C5",
                    "midi": 72,
                    "time": 65.625,
                    "velocity": 0.4330708661417323,
                    "duration": 0.1875
                },
                {
                    "name": "C5",
                    "midi": 72,
                    "time": 65.8125,
                    "velocity": 0.4330708661417323,
                    "duration": 0.1875
                },
                {
                    "name": "C5",
                    "midi": 72,
                    "time": 66,
                    "velocity": 0.47244094488188976,
                    "duration": 0.28125
                },
                {
                    "name": "D5",
                    "midi": 74,
                    "time": 66.28125,
                    "velocity": 0.36220472440944884,
                    "duration": 0.046875
                },
                {
                    "name": "C5",
                    "midi": 72,
                    "time": 66.328125,
                    "velocity": 0.36220472440944884,
                    "duration": 0.046875
                },
                {
                    "name": "B4",
                    "midi": 71,
                    "time": 66.375,
                    "velocity": 0.4409448818897638,
                    "duration": 0.1875
                },
                {
                    "name": "B4",
                    "midi": 71,
                    "time": 66.5625,
                    "velocity": 0.44881889763779526,
                    "duration": 0.1875
                },
                {
                    "name": "A4",
                    "midi": 69,
                    "time": 66.75,
                    "velocity": 0.47244094488188976,
                    "duration": 0.1875
                },
                {
                    "name": "E5",
                    "midi": 76,
                    "time": 66.9375,
                    "velocity": 0.4409448818897638,
                    "duration": 0.1875
                },
                {
                    "name": "D5",
                    "midi": 74,
                    "time": 67.125,
                    "velocity": 0.4409448818897638,
                    "duration": 0.1875
                },
                {
                    "name": "F#4",
                    "midi": 66,
                    "time": 67.3125,
                    "velocity": 0.4409448818897638,
                    "duration": 0.1875
                },
                {
                    "name": "G4",
                    "midi": 67,
                    "time": 67.5,
                    "velocity": 0.4251968503937008,
                    "duration": 0.09375
                },
                {
                    "name": "A4",
                    "midi": 69,
                    "time": 67.59375,
                    "velocity": 0.3858267716535433,
                    "duration": 0.09375
                },
                {
                    "name": "B4",
                    "midi": 71,
                    "time": 67.6875,
                    "velocity": 0.3937007874015748,
                    "duration": 0.09375
                },
                {
                    "name": "C5",
                    "midi": 72,
                    "time": 67.78125,
                    "velocity": 0.4015748031496063,
                    "duration": 0.09375
                },
                {
                    "name": "D5",
                    "midi": 74,
                    "time": 67.875,
                    "velocity": 0.4015748031496063,
                    "duration": 0.09375
                },
                {
                    "name": "B4",
                    "midi": 71,
                    "time": 67.96875,
                    "velocity": 0.4015748031496063,
                    "duration": 0.09375
                },
                {
                    "name": "A4",
                    "midi": 69,
                    "time": 68.0625,
                    "velocity": 0.3937007874015748,
                    "duration": 0.09375
                },
                {
                    "name": "G4",
                    "midi": 67,
                    "time": 68.15625,
                    "velocity": 0.3937007874015748,
                    "duration": 0.09375
                },
                {
                    "name": "F#4",
                    "midi": 66,
                    "time": 68.25,
                    "velocity": 0.41732283464566927,
                    "duration": 0.09375
                },
                {
                    "name": "G4",
                    "midi": 67,
                    "time": 68.34375,
                    "velocity": 0.3779527559055118,
                    "duration": 0.09375
                },
                {
                    "name": "A4",
                    "midi": 69,
                    "time": 68.4375,
                    "velocity": 0.3858267716535433,
                    "duration": 0.09375
                },
                {
                    "name": "B4",
                    "midi": 71,
                    "time": 68.53125,
                    "velocity": 0.3858267716535433,
                    "duration": 0.09375
                },
                {
                    "name": "C5",
                    "midi": 72,
                    "time": 68.625,
                    "velocity": 0.3858267716535433,
                    "duration": 0.09375
                },
                {
                    "name": "A4",
                    "midi": 69,
                    "time": 68.71875,
                    "velocity": 0.3858267716535433,
                    "duration": 0.09375
                },
                {
                    "name": "G4",
                    "midi": 67,
                    "time": 68.8125,
                    "velocity": 0.3779527559055118,
                    "duration": 0.09375
                },
                {
                    "name": "F#4",
                    "midi": 66,
                    "time": 68.90625,
                    "velocity": 0.3779527559055118,
                    "duration": 0.09375
                },
                {
                    "name": "G4",
                    "midi": 67,
                    "time": 69,
                    "velocity": 0.4094488188976378,
                    "duration": 0.09375
                },
                {
                    "name": "A4",
                    "midi": 69,
                    "time": 69.09375,
                    "velocity": 0.3700787401574803,
                    "duration": 0.09375
                },
                {
                    "name": "B4",
                    "midi": 71,
                    "time": 69.1875,
                    "velocity": 0.3779527559055118,
                    "duration": 0.09375
                },
                {
                    "name": "C5",
                    "midi": 72,
                    "time": 69.28125,
                    "velocity": 0.3858267716535433,
                    "duration": 0.09375
                },
                {
                    "name": "D5",
                    "midi": 74,
                    "time": 69.375,
                    "velocity": 0.3937007874015748,
                    "duration": 0.09375
                },
                {
                    "name": "B4",
                    "midi": 71,
                    "time": 69.46875,
                    "velocity": 0.3858267716535433,
                    "duration": 0.09375
                },
                {
                    "name": "A4",
                    "midi": 69,
                    "time": 69.5625,
                    "velocity": 0.3779527559055118,
                    "duration": 0.09375
                },
                {
                    "name": "G4",
                    "midi": 67,
                    "time": 69.65625,
                    "velocity": 0.3700787401574803,
                    "duration": 0.09375
                },
                {
                    "name": "F#4",
                    "midi": 66,
                    "time": 69.75,
                    "velocity": 0.41732283464566927,
                    "duration": 0.09375
                },
                {
                    "name": "G4",
                    "midi": 67,
                    "time": 69.84375,
                    "velocity": 0.3700787401574803,
                    "duration": 0.09375
                },
                {
                    "name": "A4",
                    "midi": 69,
                    "time": 69.9375,
                    "velocity": 0.3700787401574803,
                    "duration": 0.09375
                },
                {
                    "name": "B4",
                    "midi": 71,
                    "time": 70.03125,
                    "velocity": 0.3779527559055118,
                    "duration": 0.09375
                },
                {
                    "name": "C5",
                    "midi": 72,
                    "time": 70.125,
                    "velocity": 0.3858267716535433,
                    "duration": 0.09375
                },
                {
                    "name": "A4",
                    "midi": 69,
                    "time": 70.21875,
                    "velocity": 0.3858267716535433,
                    "duration": 0.09375
                },
                {
                    "name": "G4",
                    "midi": 67,
                    "time": 70.3125,
                    "velocity": 0.3779527559055118,
                    "duration": 0.09375
                },
                {
                    "name": "F#4",
                    "midi": 66,
                    "time": 70.40625,
                    "velocity": 0.3779527559055118,
                    "duration": 0.09375
                },
                {
                    "name": "G4",
                    "midi": 67,
                    "time": 70.5,
                    "velocity": 0.4566929133858268,
                    "duration": 0.328125
                },
                {
                    "name": "F#5",
                    "midi": 78,
                    "time": 70.828125,
                    "velocity": 0.5118110236220472,
                    "duration": 0.046875
                },
                {
                    "name": "G5",
                    "midi": 79,
                    "time": 70.875,
                    "velocity": 0.5984251968503937,
                    "duration": 0.375
                },
                {
                    "name": "E4",
                    "midi": 64,
                    "time": 72.1875,
                    "velocity": 0.44881889763779526,
                    "duration": 0.1875
                },
                {
                    "name": "E5",
                    "midi": 76,
                    "time": 72.375,
                    "velocity": 0.5118110236220472,
                    "duration": 0.5625
                },
                {
                    "name": "D#5",
                    "midi": 75,
                    "time": 72.9375,
                    "velocity": 0.4409448818897638,
                    "duration": 0.1875
                },
                {
                    "name": "F#5",
                    "midi": 78,
                    "time": 73.125,
                    "velocity": 0.5511811023622047,
                    "duration": 0.5625
                },
                {
                    "name": "E5",
                    "midi": 76,
                    "time": 73.6875,
                    "velocity": 0.4330708661417323,
                    "duration": 0.1875
                },
                {
                    "name": "G5",
                    "midi": 79,
                    "time": 73.875,
                    "velocity": 0.5669291338582677,
                    "duration": 0.5625
                },
                {
                    "name": "F#5",
                    "midi": 78,
                    "time": 74.4375,
                    "velocity": 0.49606299212598426,
                    "duration": 0.1875
                },
                {
                    "name": "B5",
                    "midi": 83,
                    "time": 74.625,
                    "velocity": 0.6141732283464567,
                    "duration": 0.5625
                },
                {
                    "name": "A#5",
                    "midi": 82,
                    "time": 75.1875,
                    "velocity": 0.5196850393700787,
                    "duration": 0.1875
                },
                {
                    "name": "E6",
                    "midi": 88,
                    "time": 75.375,
                    "velocity": 0.5669291338582677,
                    "duration": 0.5625
                },
                {
                    "name": "C#6",
                    "midi": 85,
                    "time": 75.375,
                    "velocity": 0.5669291338582677,
                    "duration": 0.5625
                },
                {
                    "name": "B5",
                    "midi": 83,
                    "time": 75.9375,
                    "velocity": 0.47244094488188976,
                    "duration": 0.375
                },
                {
                    "name": "D6",
                    "midi": 86,
                    "time": 75.9375,
                    "velocity": 0.47244094488188976,
                    "duration": 0.375
                },
                {
                    "name": "C#6",
                    "midi": 85,
                    "time": 76.3125,
                    "velocity": 0.4409448818897638,
                    "duration": 0.375
                },
                {
                    "name": "E5",
                    "midi": 76,
                    "time": 76.3125,
                    "velocity": 0.4409448818897638,
                    "duration": 0.375
                },
                {
                    "name": "D5",
                    "midi": 74,
                    "time": 76.6875,
                    "velocity": 0.44881889763779526,
                    "duration": 0.375
                },
                {
                    "name": "B5",
                    "midi": 83,
                    "time": 76.6875,
                    "velocity": 0.44881889763779526,
                    "duration": 0.375
                },
                {
                    "name": "C#5",
                    "midi": 73,
                    "time": 77.0625,
                    "velocity": 0.44881889763779526,
                    "duration": 0.1875
                },
                {
                    "name": "A#5",
                    "midi": 82,
                    "time": 77.0625,
                    "velocity": 0.44881889763779526,
                    "duration": 0.1875
                },
                {
                    "name": "B4",
                    "midi": 71,
                    "time": 77.4375,
                    "velocity": 0.4409448818897638,
                    "duration": 0.1875
                },
                {
                    "name": "B5",
                    "midi": 83,
                    "time": 77.625,
                    "velocity": 0.5196850393700787,
                    "duration": 0.1875
                },
                {
                    "name": "E4",
                    "midi": 64,
                    "time": 78.1875,
                    "velocity": 0.44881889763779526,
                    "duration": 0.1875
                },
                {
                    "name": "E5",
                    "midi": 76,
                    "time": 78.375,
                    "velocity": 0.5118110236220472,
                    "duration": 0.5625
                },
                {
                    "name": "D#5",
                    "midi": 75,
                    "time": 78.9375,
                    "velocity": 0.4409448818897638,
                    "duration": 0.1875
                },
                {
                    "name": "F#5",
                    "midi": 78,
                    "time": 79.125,
                    "velocity": 0.5511811023622047,
                    "duration": 0.5625
                },
                {
                    "name": "E5",
                    "midi": 76,
                    "time": 79.6875,
                    "velocity": 0.4330708661417323,
                    "duration": 0.1875
                },
                {
                    "name": "G5",
                    "midi": 79,
                    "time": 79.875,
                    "velocity": 0.5669291338582677,
                    "duration": 0.5625
                },
                {
                    "name": "F#5",
                    "midi": 78,
                    "time": 80.4375,
                    "velocity": 0.49606299212598426,
                    "duration": 0.1875
                },
                {
                    "name": "B5",
                    "midi": 83,
                    "time": 80.625,
                    "velocity": 0.5984251968503937,
                    "duration": 0.5625
                },
                {
                    "name": "A#5",
                    "midi": 82,
                    "time": 81.1875,
                    "velocity": 0.5196850393700787,
                    "duration": 0.1875
                },
                {
                    "name": "E6",
                    "midi": 88,
                    "time": 81.375,
                    "velocity": 0.5669291338582677,
                    "duration": 0.5625
                },
                {
                    "name": "C#6",
                    "midi": 85,
                    "time": 81.375,
                    "velocity": 0.5669291338582677,
                    "duration": 0.5625
                },
                {
                    "name": "B5",
                    "midi": 83,
                    "time": 81.9375,
                    "velocity": 0.47244094488188976,
                    "duration": 0.375
                },
                {
                    "name": "D6",
                    "midi": 86,
                    "time": 81.9375,
                    "velocity": 0.47244094488188976,
                    "duration": 0.375
                },
                {
                    "name": "C#6",
                    "midi": 85,
                    "time": 82.3125,
                    "velocity": 0.4409448818897638,
                    "duration": 0.375
                },
                {
                    "name": "E5",
                    "midi": 76,
                    "time": 82.3125,
                    "velocity": 0.4409448818897638,
                    "duration": 0.375
                },
                {
                    "name": "D5",
                    "midi": 74,
                    "time": 82.6875,
                    "velocity": 0.44881889763779526,
                    "duration": 0.375
                },
                {
                    "name": "B5",
                    "midi": 83,
                    "time": 82.6875,
                    "velocity": 0.44881889763779526,
                    "duration": 0.375
                },
                {
                    "name": "C#5",
                    "midi": 73,
                    "time": 83.0625,
                    "velocity": 0.44881889763779526,
                    "duration": 0.1875
                },
                {
                    "name": "A#5",
                    "midi": 82,
                    "time": 83.0625,
                    "velocity": 0.44881889763779526,
                    "duration": 0.1875
                },
                {
                    "name": "B4",
                    "midi": 71,
                    "time": 83.4375,
                    "velocity": 0.4409448818897638,
                    "duration": 0.1875
                },
                {
                    "name": "B5",
                    "midi": 83,
                    "time": 83.625,
                    "velocity": 0.5196850393700787,
                    "duration": 0.1875
                },
                {
                    "name": "A4",
                    "midi": 69,
                    "time": 84.1875,
                    "velocity": 0.44881889763779526,
                    "duration": 0.1875
                },
                {
                    "name": "A5",
                    "midi": 81,
                    "time": 84.375,
                    "velocity": 0.5354330708661418,
                    "duration": 0.5625
                },
                {
                    "name": "G#5",
                    "midi": 80,
                    "time": 84.9375,
                    "velocity": 0.4409448818897638,
                    "duration": 0.1875
                },
                {
                    "name": "D6",
                    "midi": 86,
                    "time": 85.125,
                    "velocity": 0.5511811023622047,
                    "duration": 0.5625
                },
                {
                    "name": "C6",
                    "midi": 84,
                    "time": 85.6875,
                    "velocity": 0.48031496062992124,
                    "duration": 0.375
                },
                {
                    "name": "B5",
                    "midi": 83,
                    "time": 86.0625,
                    "velocity": 0.4645669291338583,
                    "duration": 0.375
                },
                {
                    "name": "A5",
                    "midi": 81,
                    "time": 86.4375,
                    "velocity": 0.44881889763779526,
                    "duration": 0.1875
                },
                {
                    "name": "F#5",
                    "midi": 78,
                    "time": 86.8125,
                    "velocity": 0.33858267716535434,
                    "duration": 0.1875
                },
                {
                    "name": "G5",
                    "midi": 79,
                    "time": 87,
                    "velocity": 0.3858267716535433,
                    "duration": 0.5625
                },
                {
                    "name": "F#5",
                    "midi": 78,
                    "time": 87.5625,
                    "velocity": 0.3543307086614173,
                    "duration": 0.1875
                },
                {
                    "name": "C6",
                    "midi": 84,
                    "time": 87.75,
                    "velocity": 0.3858267716535433,
                    "duration": 0.5625
                },
                {
                    "name": "A5",
                    "midi": 81,
                    "time": 87.75,
                    "velocity": 0.3858267716535433,
                    "duration": 0.5625
                },
                {
                    "name": "G5",
                    "midi": 79,
                    "time": 88.3125,
                    "velocity": 0.3543307086614173,
                    "duration": 0.375
                },
                {
                    "name": "B5",
                    "midi": 83,
                    "time": 88.3125,
                    "velocity": 0.3543307086614173,
                    "duration": 0.375
                },
                {
                    "name": "F#5",
                    "midi": 78,
                    "time": 88.6875,
                    "velocity": 0.33858267716535434,
                    "duration": 0.375
                },
                {
                    "name": "A5",
                    "midi": 81,
                    "time": 88.6875,
                    "velocity": 0.33858267716535434,
                    "duration": 0.375
                },
                {
                    "name": "E5",
                    "midi": 76,
                    "time": 89.0625,
                    "velocity": 0.33070866141732286,
                    "duration": 0.375
                },
                {
                    "name": "G5",
                    "midi": 79,
                    "time": 89.0625,
                    "velocity": 0.33070866141732286,
                    "duration": 0.375
                },
                {
                    "name": "D#5",
                    "midi": 75,
                    "time": 89.4375,
                    "velocity": 0.3464566929133858,
                    "duration": 0.1875
                },
                {
                    "name": "F#5",
                    "midi": 78,
                    "time": 89.4375,
                    "velocity": 0.3464566929133858,
                    "duration": 0.1875
                },
                {
                    "name": "B5",
                    "midi": 83,
                    "time": 89.625,
                    "velocity": 0.4566929133858268,
                    "duration": 0.09375
                },
                {
                    "name": "A5",
                    "midi": 81,
                    "time": 89.71875,
                    "velocity": 0.4566929133858268,
                    "duration": 0.09375
                },
                {
                    "name": "G5",
                    "midi": 79,
                    "time": 89.8125,
                    "velocity": 0.4566929133858268,
                    "duration": 0.09375
                },
                {
                    "name": "F#5",
                    "midi": 78,
                    "time": 89.90625,
                    "velocity": 0.4566929133858268,
                    "duration": 0.09375
                },
                {
                    "name": "E5",
                    "midi": 76,
                    "time": 90,
                    "velocity": 0.5196850393700787,
                    "duration": 0.375
                },
                {
                    "name": "G4",
                    "midi": 67,
                    "time": 90.5625,
                    "velocity": 0.4330708661417323,
                    "duration": 0.1875
                },
                {
                    "name": "E5",
                    "midi": 76,
                    "time": 90.5625,
                    "velocity": 0.4330708661417323,
                    "duration": 0.1875
                },
                {
                    "name": "A4",
                    "midi": 69,
                    "time": 90.75,
                    "velocity": 0.47244094488188976,
                    "duration": 0.5625
                },
                {
                    "name": "F#5",
                    "midi": 78,
                    "time": 90.75,
                    "velocity": 0.47244094488188976,
                    "duration": 0.5625
                },
                {
                    "name": "A4",
                    "midi": 69,
                    "time": 91.3125,
                    "velocity": 0.4330708661417323,
                    "duration": 0.1875
                },
                {
                    "name": "F#5",
                    "midi": 78,
                    "time": 91.3125,
                    "velocity": 0.4330708661417323,
                    "duration": 0.1875
                },
                {
                    "name": "B4",
                    "midi": 71,
                    "time": 91.5,
                    "velocity": 0.47244094488188976,
                    "duration": 0.5625
                },
                {
                    "name": "G5",
                    "midi": 79,
                    "time": 91.5,
                    "velocity": 0.47244094488188976,
                    "duration": 0.5625
                },
                {
                    "name": "B4",
                    "midi": 71,
                    "time": 92.0625,
                    "velocity": 0.4566929133858268,
                    "duration": 0.1875
                },
                {
                    "name": "G5",
                    "midi": 79,
                    "time": 92.0625,
                    "velocity": 0.4566929133858268,
                    "duration": 0.1875
                },
                {
                    "name": "C5",
                    "midi": 72,
                    "time": 92.25,
                    "velocity": 0.5196850393700787,
                    "duration": 0.5625
                },
                {
                    "name": "A5",
                    "midi": 81,
                    "time": 92.25,
                    "velocity": 0.5196850393700787,
                    "duration": 0.5625
                },
                {
                    "name": "F#5",
                    "midi": 78,
                    "time": 92.8125,
                    "velocity": 0.4330708661417323,
                    "duration": 0.1875
                },
                {
                    "name": "D#5",
                    "midi": 75,
                    "time": 93,
                    "velocity": 0.47244094488188976,
                    "duration": 0.5625
                },
                {
                    "name": "C5",
                    "midi": 72,
                    "time": 93.5625,
                    "velocity": 0.4409448818897638,
                    "duration": 0.1875
                },
                {
                    "name": "A4",
                    "midi": 69,
                    "time": 93.75,
                    "velocity": 0.47244094488188976,
                    "duration": 0.5625
                },
                {
                    "name": "F#4",
                    "midi": 66,
                    "time": 94.3125,
                    "velocity": 0.4409448818897638,
                    "duration": 0.1875
                },
                {
                    "name": "D#4",
                    "midi": 63,
                    "time": 94.5,
                    "velocity": 0.48031496062992124,
                    "duration": 0.5625
                },
                {
                    "name": "D#4",
                    "midi": 63,
                    "time": 95.0625,
                    "velocity": 0.3858267716535433,
                    "duration": 0.09375
                },
                {
                    "name": "C4",
                    "midi": 60,
                    "time": 95.15625,
                    "velocity": 0.3858267716535433,
                    "duration": 0.09375
                },
                {
                    "name": "A3",
                    "midi": 57,
                    "time": 95.25,
                    "velocity": 0.4566929133858268,
                    "duration": 0.09375
                },
                {
                    "name": "C4",
                    "midi": 60,
                    "time": 95.4375,
                    "velocity": 0.3858267716535433,
                    "duration": 0.09375
                },
                {
                    "name": "A3",
                    "midi": 57,
                    "time": 95.53125,
                    "velocity": 0.3858267716535433,
                    "duration": 0.09375
                },
                {
                    "name": "F#3",
                    "midi": 54,
                    "time": 95.625,
                    "velocity": 0.4566929133858268,
                    "duration": 0.09375
                },
                {
                    "name": "A3",
                    "midi": 57,
                    "time": 95.8125,
                    "velocity": 0.4251968503937008,
                    "duration": 0.09375
                },
                {
                    "name": "F#3",
                    "midi": 54,
                    "time": 95.90625,
                    "velocity": 0.4251968503937008,
                    "duration": 0.09375
                },
                {
                    "name": "D#3",
                    "midi": 51,
                    "time": 96,
                    "velocity": 0.5905511811023622,
                    "duration": 0.1875
                },
                {
                    "name": "C6",
                    "midi": 84,
                    "time": 96.5625,
                    "velocity": 0.31496062992125984,
                    "duration": 0.09375
                },
                {
                    "name": "A5",
                    "midi": 81,
                    "time": 96.65625,
                    "velocity": 0.31496062992125984,
                    "duration": 0.09375
                },
                {
                    "name": "F#5",
                    "midi": 78,
                    "time": 96.75,
                    "velocity": 0.3464566929133858,
                    "duration": 0.09375
                },
                {
                    "name": "A5",
                    "midi": 81,
                    "time": 96.9375,
                    "velocity": 0.31496062992125984,
                    "duration": 0.09375
                },
                {
                    "name": "F#5",
                    "midi": 78,
                    "time": 97.03125,
                    "velocity": 0.31496062992125984,
                    "duration": 0.09375
                },
                {
                    "name": "D#5",
                    "midi": 75,
                    "time": 97.125,
                    "velocity": 0.3464566929133858,
                    "duration": 0.09375
                },
                {
                    "name": "F#5",
                    "midi": 78,
                    "time": 97.3125,
                    "velocity": 0.28346456692913385,
                    "duration": 0.09375
                },
                {
                    "name": "D#5",
                    "midi": 75,
                    "time": 97.40625,
                    "velocity": 0.28346456692913385,
                    "duration": 0.09375
                },
                {
                    "name": "C5",
                    "midi": 72,
                    "time": 97.5,
                    "velocity": 0.33858267716535434,
                    "duration": 0.1875
                },
                {
                    "name": "C4",
                    "midi": 60,
                    "time": 98.4375,
                    "velocity": 0.44881889763779526,
                    "duration": 0.1875
                },
                {
                    "name": "B3",
                    "midi": 59,
                    "time": 98.625,
                    "velocity": 0.47244094488188976,
                    "duration": 0.1875
                },
                {
                    "name": "A4",
                    "midi": 69,
                    "time": 98.8125,
                    "velocity": 0.4566929133858268,
                    "duration": 0.1875
                },
                {
                    "name": "B3",
                    "midi": 59,
                    "time": 99.1875,
                    "velocity": 0.4409448818897638,
                    "duration": 0.1875
                },
                {
                    "name": "G4",
                    "midi": 67,
                    "time": 99.1875,
                    "velocity": 0.4409448818897638,
                    "duration": 0.1875
                },
                {
                    "name": "A3",
                    "midi": 57,
                    "time": 99.5625,
                    "velocity": 0.4330708661417323,
                    "duration": 0.1875
                },
                {
                    "name": "F#4",
                    "midi": 66,
                    "time": 99.5625,
                    "velocity": 0.4330708661417323,
                    "duration": 0.1875
                },
                {
                    "name": "G3",
                    "midi": 55,
                    "time": 99.9375,
                    "velocity": 0.4330708661417323,
                    "duration": 0.1875
                },
                {
                    "name": "E4",
                    "midi": 64,
                    "time": 99.9375,
                    "velocity": 0.4330708661417323,
                    "duration": 0.1875
                },
                {
                    "name": "F#3",
                    "midi": 54,
                    "time": 100.3125,
                    "velocity": 0.4330708661417323,
                    "duration": 0.1875
                },
                {
                    "name": "D#4",
                    "midi": 63,
                    "time": 100.3125,
                    "velocity": 0.4330708661417323,
                    "duration": 0.1875
                },
                {
                    "name": "G3",
                    "midi": 55,
                    "time": 100.5,
                    "velocity": 0.5196850393700787,
                    "duration": 0.375
                },
                {
                    "name": "E4",
                    "midi": 64,
                    "time": 100.5,
                    "velocity": 0.5196850393700787,
                    "duration": 0.375
                },
                {
                    "name": "D#6",
                    "midi": 87,
                    "time": 101.0625,
                    "velocity": 0.3937007874015748,
                    "duration": 0.1875
                },
                {
                    "name": "E6",
                    "midi": 88,
                    "time": 101.25,
                    "velocity": 0.4330708661417323,
                    "duration": 0.375
                },
                {
                    "name": "E4",
                    "midi": 64,
                    "time": 101.8125,
                    "velocity": 0.3937007874015748,
                    "duration": 0.1875
                },
                {
                    "name": "D4",
                    "midi": 62,
                    "time": 102,
                    "velocity": 0.4251968503937008,
                    "duration": 0.375
                },
                {
                    "name": "F4",
                    "midi": 65,
                    "time": 102,
                    "velocity": 0.4251968503937008,
                    "duration": 0.375
                },
                {
                    "name": "D4",
                    "midi": 62,
                    "time": 102.5625,
                    "velocity": 0.36220472440944884,
                    "duration": 0.1875
                },
                {
                    "name": "F4",
                    "midi": 65,
                    "time": 102.5625,
                    "velocity": 0.36220472440944884,
                    "duration": 0.1875
                },
                {
                    "name": "B3",
                    "midi": 59,
                    "time": 102.75,
                    "velocity": 0.4094488188976378,
                    "duration": 0.375
                },
                {
                    "name": "G#4",
                    "midi": 68,
                    "time": 102.75,
                    "velocity": 0.4094488188976378,
                    "duration": 0.375
                },
                {
                    "name": "B3",
                    "midi": 59,
                    "time": 103.3125,
                    "velocity": 0.3937007874015748,
                    "duration": 0.1875
                },
                {
                    "name": "G#4",
                    "midi": 68,
                    "time": 103.3125,
                    "velocity": 0.3937007874015748,
                    "duration": 0.1875
                },
                {
                    "name": "C4",
                    "midi": 60,
                    "time": 103.5,
                    "velocity": 0.4251968503937008,
                    "duration": 0.375
                },
                {
                    "name": "A4",
                    "midi": 69,
                    "time": 103.5,
                    "velocity": 0.4251968503937008,
                    "duration": 0.375
                },
                {
                    "name": "C4",
                    "midi": 60,
                    "time": 104.0625,
                    "velocity": 0.4015748031496063,
                    "duration": 0.1875
                },
                {
                    "name": "A4",
                    "midi": 69,
                    "time": 104.0625,
                    "velocity": 0.4015748031496063,
                    "duration": 0.1875
                },
                {
                    "name": "C#4",
                    "midi": 61,
                    "time": 104.25,
                    "velocity": 0.4251968503937008,
                    "duration": 0.375
                },
                {
                    "name": "G4",
                    "midi": 67,
                    "time": 104.25,
                    "velocity": 0.4251968503937008,
                    "duration": 0.375
                },
                {
                    "name": "C#4",
                    "midi": 61,
                    "time": 104.8125,
                    "velocity": 0.4094488188976378,
                    "duration": 0.1875
                },
                {
                    "name": "G4",
                    "midi": 67,
                    "time": 104.8125,
                    "velocity": 0.4094488188976378,
                    "duration": 0.1875
                },
                {
                    "name": "D4",
                    "midi": 62,
                    "time": 105,
                    "velocity": 0.4409448818897638,
                    "duration": 0.375
                },
                {
                    "name": "F#4",
                    "midi": 66,
                    "time": 105,
                    "velocity": 0.4409448818897638,
                    "duration": 0.375
                },
                {
                    "name": "C#6",
                    "midi": 85,
                    "time": 105.5625,
                    "velocity": 0.41732283464566927,
                    "duration": 0.1875
                },
                {
                    "name": "D6",
                    "midi": 86,
                    "time": 105.75,
                    "velocity": 0.4645669291338583,
                    "duration": 0.375
                },
                {
                    "name": "D4",
                    "midi": 62,
                    "time": 106.3125,
                    "velocity": 0.33858267716535434,
                    "duration": 0.1875
                },
                {
                    "name": "C#4",
                    "midi": 61,
                    "time": 106.5,
                    "velocity": 0.36220472440944884,
                    "duration": 0.375
                },
                {
                    "name": "E4",
                    "midi": 64,
                    "time": 106.5,
                    "velocity": 0.36220472440944884,
                    "duration": 0.375
                },
                {
                    "name": "C#4",
                    "midi": 61,
                    "time": 107.0625,
                    "velocity": 0.2992125984251969,
                    "duration": 0.1875
                },
                {
                    "name": "E4",
                    "midi": 64,
                    "time": 107.0625,
                    "velocity": 0.2992125984251969,
                    "duration": 0.1875
                },
                {
                    "name": "C4",
                    "midi": 60,
                    "time": 107.25,
                    "velocity": 0.33858267716535434,
                    "duration": 0.375
                },
                {
                    "name": "F#4",
                    "midi": 66,
                    "time": 107.25,
                    "velocity": 0.33858267716535434,
                    "duration": 0.375
                },
                {
                    "name": "D4",
                    "midi": 62,
                    "time": 107.8125,
                    "velocity": 0.4015748031496063,
                    "duration": 0.1875
                },
                {
                    "name": "G4",
                    "midi": 67,
                    "time": 108.00078125,
                    "velocity": 0.47244094488188976,
                    "duration": 0.28125
                },
                {
                    "name": "B4",
                    "midi": 71,
                    "time": 108.28125,
                    "velocity": 0.3779527559055118,
                    "duration": 0.046875
                },
                {
                    "name": "A4",
                    "midi": 69,
                    "time": 108.328125,
                    "velocity": 0.3779527559055118,
                    "duration": 0.046875
                },
                {
                    "name": "G4",
                    "midi": 67,
                    "time": 108.375,
                    "velocity": 0.4409448818897638,
                    "duration": 0.1875
                },
                {
                    "name": "D4",
                    "midi": 62,
                    "time": 108.9375,
                    "velocity": 0.41732283464566927,
                    "duration": 0.1875
                },
                {
                    "name": "G4",
                    "midi": 67,
                    "time": 109.125,
                    "velocity": 0.41732283464566927,
                    "duration": 0.1875
                },
                {
                    "name": "B4",
                    "midi": 71,
                    "time": 109.3125,
                    "velocity": 0.41732283464566927,
                    "duration": 0.1875
                },
                {
                    "name": "B4",
                    "midi": 71,
                    "time": 109.5,
                    "velocity": 0.44881889763779526,
                    "duration": 0.09375
                },
                {
                    "name": "A4",
                    "midi": 69,
                    "time": 109.59375,
                    "velocity": 0.4251968503937008,
                    "duration": 0.09375
                },
                {
                    "name": "G4",
                    "midi": 67,
                    "time": 109.6875,
                    "velocity": 0.4251968503937008,
                    "duration": 0.09375
                },
                {
                    "name": "A4",
                    "midi": 69,
                    "time": 109.78125,
                    "velocity": 0.4251968503937008,
                    "duration": 0.09375
                },
                {
                    "name": "G4",
                    "midi": 67,
                    "time": 109.875,
                    "velocity": 0.44881889763779526,
                    "duration": 0.1875
                },
                {
                    "name": "D5",
                    "midi": 74,
                    "time": 110.0625,
                    "velocity": 0.4251968503937008,
                    "duration": 0.1875
                },
                {
                    "name": "D5",
                    "midi": 74,
                    "time": 110.25,
                    "velocity": 0.4251968503937008,
                    "duration": 0.09375
                },
                {
                    "name": "D5",
                    "midi": 74,
                    "time": 110.4375,
                    "velocity": 0.4251968503937008,
                    "duration": 0.09375
                },
                {
                    "name": "D5",
                    "midi": 74,
                    "time": 110.625,
                    "velocity": 0.4251968503937008,
                    "duration": 0.09375
                },
                {
                    "name": "D5",
                    "midi": 74,
                    "time": 110.8125,
                    "velocity": 0.4251968503937008,
                    "duration": 0.09375
                },
                {
                    "name": "D5",
                    "midi": 74,
                    "time": 111,
                    "velocity": 0.44881889763779526,
                    "duration": 0.28125
                },
                {
                    "name": "E5",
                    "midi": 76,
                    "time": 111.28125,
                    "velocity": 0.3700787401574803,
                    "duration": 0.046875
                },
                {
                    "name": "D5",
                    "midi": 74,
                    "time": 111.328125,
                    "velocity": 0.3700787401574803,
                    "duration": 0.046875
                },
                {
                    "name": "C5",
                    "midi": 72,
                    "time": 111.375,
                    "velocity": 0.4094488188976378,
                    "duration": 0.1875
                },
                {
                    "name": "B4",
                    "midi": 71,
                    "time": 111.5625,
                    "velocity": 0.3937007874015748,
                    "duration": 0.1875
                },
                {
                    "name": "A4",
                    "midi": 69,
                    "time": 111.75,
                    "velocity": 0.4094488188976378,
                    "duration": 0.1875
                },
                {
                    "name": "A5",
                    "midi": 81,
                    "time": 111.9375,
                    "velocity": 0.5433070866141733,
                    "duration": 0.375
                },
                {
                    "name": "G5",
                    "midi": 79,
                    "time": 112.3125,
                    "velocity": 0.5118110236220472,
                    "duration": 0.1875
                },
                {
                    "name": "G5",
                    "midi": 79,
                    "time": 112.5,
                    "velocity": 0.49606299212598426,
                    "duration": 0.09375
                },
                {
                    "name": "F#5",
                    "midi": 78,
                    "time": 112.59375,
                    "velocity": 0.4251968503937008,
                    "duration": 0.09375
                },
                {
                    "name": "E5",
                    "midi": 76,
                    "time": 112.6875,
                    "velocity": 0.4251968503937008,
                    "duration": 0.09375
                },
                {
                    "name": "D5",
                    "midi": 74,
                    "time": 112.78125,
                    "velocity": 0.4251968503937008,
                    "duration": 0.09375
                },
                {
                    "name": "D5",
                    "midi": 74,
                    "time": 112.875,
                    "velocity": 0.4251968503937008,
                    "duration": 0.1875
                },
                {
                    "name": "D5",
                    "midi": 74,
                    "time": 113.0625,
                    "velocity": 0.4409448818897638,
                    "duration": 0.1875
                },
                {
                    "name": "D5",
                    "midi": 74,
                    "time": 113.25,
                    "velocity": 0.4251968503937008,
                    "duration": 0.09375
                },
                {
                    "name": "E5",
                    "midi": 76,
                    "time": 113.34375,
                    "velocity": 0.4094488188976378,
                    "duration": 0.09375
                },
                {
                    "name": "C5",
                    "midi": 72,
                    "time": 113.4375,
                    "velocity": 0.4251968503937008,
                    "duration": 0.09375
                },
                {
                    "name": "D5",
                    "midi": 74,
                    "time": 113.53125,
                    "velocity": 0.4094488188976378,
                    "duration": 0.09375
                },
                {
                    "name": "B4",
                    "midi": 71,
                    "time": 113.625,
                    "velocity": 0.4251968503937008,
                    "duration": 0.09375
                },
                {
                    "name": "C5",
                    "midi": 72,
                    "time": 113.71875,
                    "velocity": 0.4015748031496063,
                    "duration": 0.09375
                },
                {
                    "name": "A4",
                    "midi": 69,
                    "time": 113.8125,
                    "velocity": 0.4251968503937008,
                    "duration": 0.09375
                },
                {
                    "name": "B4",
                    "midi": 71,
                    "time": 113.90625,
                    "velocity": 0.4094488188976378,
                    "duration": 0.09375
                },
                {
                    "name": "G4",
                    "midi": 67,
                    "time": 114.00078125,
                    "velocity": 0.47244094488188976,
                    "duration": 0.28125
                },
                {
                    "name": "B4",
                    "midi": 71,
                    "time": 114.28125,
                    "velocity": 0.36220472440944884,
                    "duration": 0.046875
                },
                {
                    "name": "A4",
                    "midi": 69,
                    "time": 114.328125,
                    "velocity": 0.3700787401574803,
                    "duration": 0.046875
                },
                {
                    "name": "G4",
                    "midi": 67,
                    "time": 114.375,
                    "velocity": 0.4409448818897638,
                    "duration": 0.09375
                },
                {
                    "name": "D4",
                    "midi": 62,
                    "time": 114.46875,
                    "velocity": 0.3779527559055118,
                    "duration": 0.09375
                },
                {
                    "name": "B4",
                    "midi": 71,
                    "time": 114.5625,
                    "velocity": 0.3779527559055118,
                    "duration": 0.09375
                },
                {
                    "name": "A4",
                    "midi": 69,
                    "time": 114.65625,
                    "velocity": 0.3779527559055118,
                    "duration": 0.09375
                },
                {
                    "name": "G4",
                    "midi": 67,
                    "time": 114.75,
                    "velocity": 0.4409448818897638,
                    "duration": 0.09375
                },
                {
                    "name": "D4",
                    "midi": 62,
                    "time": 114.84375,
                    "velocity": 0.3779527559055118,
                    "duration": 0.09375
                },
                {
                    "name": "G4",
                    "midi": 67,
                    "time": 114.9375,
                    "velocity": 0.3779527559055118,
                    "duration": 0.09375
                },
                {
                    "name": "B4",
                    "midi": 71,
                    "time": 115.03125,
                    "velocity": 0.3779527559055118,
                    "duration": 0.09375
                },
                {
                    "name": "D5",
                    "midi": 74,
                    "time": 115.125,
                    "velocity": 0.4409448818897638,
                    "duration": 0.09375
                },
                {
                    "name": "B4",
                    "midi": 71,
                    "time": 115.21875,
                    "velocity": 0.4094488188976378,
                    "duration": 0.09375
                },
                {
                    "name": "A4",
                    "midi": 69,
                    "time": 115.3125,
                    "velocity": 0.4094488188976378,
                    "duration": 0.09375
                },
                {
                    "name": "G4",
                    "midi": 67,
                    "time": 115.40625,
                    "velocity": 0.4094488188976378,
                    "duration": 0.09375
                },
                {
                    "name": "B4",
                    "midi": 71,
                    "time": 115.5,
                    "velocity": 0.4645669291338583,
                    "duration": 0.09375
                },
                {
                    "name": "A4",
                    "midi": 69,
                    "time": 115.59375,
                    "velocity": 0.4094488188976378,
                    "duration": 0.09375
                },
                {
                    "name": "G4",
                    "midi": 67,
                    "time": 115.6875,
                    "velocity": 0.4094488188976378,
                    "duration": 0.09375
                },
                {
                    "name": "A4",
                    "midi": 69,
                    "time": 115.78125,
                    "velocity": 0.4094488188976378,
                    "duration": 0.09375
                },
                {
                    "name": "G4",
                    "midi": 67,
                    "time": 115.875,
                    "velocity": 0.4251968503937008,
                    "duration": 0.1875
                },
                {
                    "name": "E5",
                    "midi": 76,
                    "time": 116.0625,
                    "velocity": 0.4251968503937008,
                    "duration": 0.1875
                },
                {
                    "name": "D#5",
                    "midi": 75,
                    "time": 116.25,
                    "velocity": 0.4015748031496063,
                    "duration": 0.09375
                },
                {
                    "name": "E5",
                    "midi": 76,
                    "time": 116.34375,
                    "velocity": 0.4094488188976378,
                    "duration": 0.09375
                },
                {
                    "name": "F5",
                    "midi": 77,
                    "time": 116.4375,
                    "velocity": 0.41732283464566927,
                    "duration": 0.09375
                },
                {
                    "name": "F#5",
                    "midi": 78,
                    "time": 116.53125,
                    "velocity": 0.4251968503937008,
                    "duration": 0.09375
                },
                {
                    "name": "G5",
                    "midi": 79,
                    "time": 116.625,
                    "velocity": 0.4409448818897638,
                    "duration": 0.09375
                },
                {
                    "name": "G#5",
                    "midi": 80,
                    "time": 116.71875,
                    "velocity": 0.44881889763779526,
                    "duration": 0.09375
                },
                {
                    "name": "A5",
                    "midi": 81,
                    "time": 116.8125,
                    "velocity": 0.4566929133858268,
                    "duration": 0.09375
                },
                {
                    "name": "A#5",
                    "midi": 82,
                    "time": 116.90625,
                    "velocity": 0.4645669291338583,
                    "duration": 0.09375
                },
                {
                    "name": "B5",
                    "midi": 83,
                    "time": 117,
                    "velocity": 0.5354330708661418,
                    "duration": 0.375
                },
                {
                    "name": "A5",
                    "midi": 81,
                    "time": 117.375,
                    "velocity": 0.47244094488188976,
                    "duration": 0.09375
                },
                {
                    "name": "G5",
                    "midi": 79,
                    "time": 117.46875,
                    "velocity": 0.4409448818897638,
                    "duration": 0.09375
                },
                {
                    "name": "F#5",
                    "midi": 78,
                    "time": 117.5625,
                    "velocity": 0.4409448818897638,
                    "duration": 0.09375
                },
                {
                    "name": "E5",
                    "midi": 76,
                    "time": 117.65625,
                    "velocity": 0.4409448818897638,
                    "duration": 0.09375
                },
                {
                    "name": "D5",
                    "midi": 74,
                    "time": 117.75,
                    "velocity": 0.47244094488188976,
                    "duration": 0.375
                },
                {
                    "name": "C#5",
                    "midi": 73,
                    "time": 118.125,
                    "velocity": 0.4094488188976378,
                    "duration": 0.0625
                },
                {
                    "name": "D5",
                    "midi": 74,
                    "time": 118.1875,
                    "velocity": 0.33858267716535434,
                    "duration": 0.0625
                },
                {
                    "name": "C#5",
                    "midi": 73,
                    "time": 118.25,
                    "velocity": 0.3779527559055118,
                    "duration": 0.0625
                },
                {
                    "name": "D5",
                    "midi": 74,
                    "time": 118.3125,
                    "velocity": 0.33858267716535434,
                    "duration": 0.046875
                },
                {
                    "name": "C#5",
                    "midi": 73,
                    "time": 118.359375,
                    "velocity": 0.3779527559055118,
                    "duration": 0.046875
                },
                {
                    "name": "D5",
                    "midi": 74,
                    "time": 118.40625,
                    "velocity": 0.33070866141732286,
                    "duration": 0.046875
                },
                {
                    "name": "C#5",
                    "midi": 73,
                    "time": 118.453125,
                    "velocity": 0.3700787401574803,
                    "duration": 0.046875
                },
                {
                    "name": "D5",
                    "midi": 74,
                    "time": 118.5,
                    "velocity": 0.4251968503937008,
                    "duration": 0.09375
                },
                {
                    "name": "E5",
                    "midi": 76,
                    "time": 118.59375,
                    "velocity": 0.3937007874015748,
                    "duration": 0.09375
                },
                {
                    "name": "F#5",
                    "midi": 78,
                    "time": 118.6875,
                    "velocity": 0.4015748031496063,
                    "duration": 0.09375
                },
                {
                    "name": "G5",
                    "midi": 79,
                    "time": 118.78125,
                    "velocity": 0.4094488188976378,
                    "duration": 0.09375
                },
                {
                    "name": "A5",
                    "midi": 81,
                    "time": 118.875,
                    "velocity": 0.41732283464566927,
                    "duration": 0.09375
                },
                {
                    "name": "B5",
                    "midi": 83,
                    "time": 118.96875,
                    "velocity": 0.4251968503937008,
                    "duration": 0.09375
                },
                {
                    "name": "C#6",
                    "midi": 85,
                    "time": 119.0625,
                    "velocity": 0.4330708661417323,
                    "duration": 0.09375
                },
                {
                    "name": "D6",
                    "midi": 86,
                    "time": 119.15625,
                    "velocity": 0.4409448818897638,
                    "duration": 0.09375
                },
                {
                    "name": "C#6",
                    "midi": 85,
                    "time": 119.25,
                    "velocity": 0.4645669291338583,
                    "duration": 0.09375
                },
                {
                    "name": "E6",
                    "midi": 88,
                    "time": 119.34375,
                    "velocity": 0.4330708661417323,
                    "duration": 0.09375
                },
                {
                    "name": "C#6",
                    "midi": 85,
                    "time": 119.4375,
                    "velocity": 0.4330708661417323,
                    "duration": 0.09375
                },
                {
                    "name": "A5",
                    "midi": 81,
                    "time": 119.53125,
                    "velocity": 0.4330708661417323,
                    "duration": 0.09375
                },
                {
                    "name": "G5",
                    "midi": 79,
                    "time": 119.625,
                    "velocity": 0.4566929133858268,
                    "duration": 0.09375
                },
                {
                    "name": "B5",
                    "midi": 83,
                    "time": 119.71875,
                    "velocity": 0.4330708661417323,
                    "duration": 0.09375
                },
                {
                    "name": "G5",
                    "midi": 79,
                    "time": 119.8125,
                    "velocity": 0.4330708661417323,
                    "duration": 0.09375
                },
                {
                    "name": "E5",
                    "midi": 76,
                    "time": 119.90625,
                    "velocity": 0.4330708661417323,
                    "duration": 0.09375
                },
                {
                    "name": "F#5",
                    "midi": 78,
                    "time": 120,
                    "velocity": 0.44881889763779526,
                    "duration": 0.09375
                },
                {
                    "name": "A5",
                    "midi": 81,
                    "time": 120.09375,
                    "velocity": 0.41732283464566927,
                    "duration": 0.09375
                },
                {
                    "name": "G5",
                    "midi": 79,
                    "time": 120.1875,
                    "velocity": 0.41732283464566927,
                    "duration": 0.09375
                },
                {
                    "name": "F#5",
                    "midi": 78,
                    "time": 120.28125,
                    "velocity": 0.41732283464566927,
                    "duration": 0.09375
                },
                {
                    "name": "E5",
                    "midi": 76,
                    "time": 120.375,
                    "velocity": 0.4330708661417323,
                    "duration": 0.09375
                },
                {
                    "name": "D5",
                    "midi": 74,
                    "time": 120.46875,
                    "velocity": 0.41732283464566927,
                    "duration": 0.09375
                },
                {
                    "name": "C#5",
                    "midi": 73,
                    "time": 120.5625,
                    "velocity": 0.41732283464566927,
                    "duration": 0.09375
                },
                {
                    "name": "B4",
                    "midi": 71,
                    "time": 120.65625,
                    "velocity": 0.41732283464566927,
                    "duration": 0.09375
                },
                {
                    "name": "A4",
                    "midi": 69,
                    "time": 120.75,
                    "velocity": 0.4409448818897638,
                    "duration": 0.09375
                },
                {
                    "name": "B4",
                    "midi": 71,
                    "time": 120.84375,
                    "velocity": 0.4094488188976378,
                    "duration": 0.09375
                },
                {
                    "name": "C#5",
                    "midi": 73,
                    "time": 120.9375,
                    "velocity": 0.4094488188976378,
                    "duration": 0.09375
                },
                {
                    "name": "D5",
                    "midi": 74,
                    "time": 121.03125,
                    "velocity": 0.4094488188976378,
                    "duration": 0.09375
                },
                {
                    "name": "E5",
                    "midi": 76,
                    "time": 121.125,
                    "velocity": 0.4330708661417323,
                    "duration": 0.09375
                },
                {
                    "name": "F#5",
                    "midi": 78,
                    "time": 121.21875,
                    "velocity": 0.4015748031496063,
                    "duration": 0.09375
                },
                {
                    "name": "G5",
                    "midi": 79,
                    "time": 121.3125,
                    "velocity": 0.41732283464566927,
                    "duration": 0.09375
                },
                {
                    "name": "E5",
                    "midi": 76,
                    "time": 121.40625,
                    "velocity": 0.4251968503937008,
                    "duration": 0.09375
                },
                {
                    "name": "D5",
                    "midi": 74,
                    "time": 121.5,
                    "velocity": 0.4409448818897638,
                    "duration": 0.09375
                },
                {
                    "name": "E5",
                    "midi": 76,
                    "time": 121.59375,
                    "velocity": 0.4409448818897638,
                    "duration": 0.09375
                },
                {
                    "name": "F#5",
                    "midi": 78,
                    "time": 121.6875,
                    "velocity": 0.4645669291338583,
                    "duration": 0.09375
                },
                {
                    "name": "G5",
                    "midi": 79,
                    "time": 121.78125,
                    "velocity": 0.48031496062992124,
                    "duration": 0.09375
                },
                {
                    "name": "A5",
                    "midi": 81,
                    "time": 121.875,
                    "velocity": 0.48031496062992124,
                    "duration": 0.09375
                },
                {
                    "name": "B5",
                    "midi": 83,
                    "time": 121.96875,
                    "velocity": 0.5039370078740157,
                    "duration": 0.09375
                },
                {
                    "name": "C#6",
                    "midi": 85,
                    "time": 122.0625,
                    "velocity": 0.5196850393700787,
                    "duration": 0.09375
                },
                {
                    "name": "D6",
                    "midi": 86,
                    "time": 122.15625,
                    "velocity": 0.5196850393700787,
                    "duration": 0.046875
                },
                {
                    "name": "D5",
                    "midi": 74,
                    "time": 122.25,
                    "velocity": 0.5039370078740157,
                    "duration": 0.375
                },
                {
                    "name": "G4",
                    "midi": 67,
                    "time": 123.00078125,
                    "velocity": 0.47244094488188976,
                    "duration": 0.28125
                },
                {
                    "name": "B4",
                    "midi": 71,
                    "time": 123.28125,
                    "velocity": 0.36220472440944884,
                    "duration": 0.046875
                },
                {
                    "name": "A4",
                    "midi": 69,
                    "time": 123.328125,
                    "velocity": 0.3700787401574803,
                    "duration": 0.046875
                },
                {
                    "name": "G4",
                    "midi": 67,
                    "time": 123.375,
                    "velocity": 0.4409448818897638,
                    "duration": 0.09375
                },
                {
                    "name": "D4",
                    "midi": 62,
                    "time": 123.46875,
                    "velocity": 0.3779527559055118,
                    "duration": 0.09375
                },
                {
                    "name": "B4",
                    "midi": 71,
                    "time": 123.5625,
                    "velocity": 0.3779527559055118,
                    "duration": 0.09375
                },
                {
                    "name": "A4",
                    "midi": 69,
                    "time": 123.65625,
                    "velocity": 0.3779527559055118,
                    "duration": 0.09375
                },
                {
                    "name": "G4",
                    "midi": 67,
                    "time": 123.75,
                    "velocity": 0.4409448818897638,
                    "duration": 0.09375
                },
                {
                    "name": "D4",
                    "midi": 62,
                    "time": 123.84375,
                    "velocity": 0.3779527559055118,
                    "duration": 0.09375
                },
                {
                    "name": "G4",
                    "midi": 67,
                    "time": 123.9375,
                    "velocity": 0.3779527559055118,
                    "duration": 0.09375
                },
                {
                    "name": "B4",
                    "midi": 71,
                    "time": 124.03125,
                    "velocity": 0.3779527559055118,
                    "duration": 0.09375
                },
                {
                    "name": "D5",
                    "midi": 74,
                    "time": 124.125,
                    "velocity": 0.4409448818897638,
                    "duration": 0.09375
                },
                {
                    "name": "B4",
                    "midi": 71,
                    "time": 124.21875,
                    "velocity": 0.4094488188976378,
                    "duration": 0.09375
                },
                {
                    "name": "A4",
                    "midi": 69,
                    "time": 124.3125,
                    "velocity": 0.4094488188976378,
                    "duration": 0.09375
                },
                {
                    "name": "G4",
                    "midi": 67,
                    "time": 124.40625,
                    "velocity": 0.4094488188976378,
                    "duration": 0.09375
                },
                {
                    "name": "B4",
                    "midi": 71,
                    "time": 124.5,
                    "velocity": 0.4645669291338583,
                    "duration": 0.09375
                },
                {
                    "name": "A4",
                    "midi": 69,
                    "time": 124.59375,
                    "velocity": 0.4094488188976378,
                    "duration": 0.09375
                },
                {
                    "name": "G4",
                    "midi": 67,
                    "time": 124.6875,
                    "velocity": 0.4094488188976378,
                    "duration": 0.09375
                },
                {
                    "name": "A4",
                    "midi": 69,
                    "time": 124.78125,
                    "velocity": 0.4094488188976378,
                    "duration": 0.09375
                },
                {
                    "name": "G4",
                    "midi": 67,
                    "time": 124.875,
                    "velocity": 0.4251968503937008,
                    "duration": 0.1875
                },
                {
                    "name": "D5",
                    "midi": 74,
                    "time": 125.0625,
                    "velocity": 0.4094488188976378,
                    "duration": 0.1875
                },
                {
                    "name": "D5",
                    "midi": 74,
                    "time": 125.25,
                    "velocity": 0.4251968503937008,
                    "duration": 0.1875
                },
                {
                    "name": "D5",
                    "midi": 74,
                    "time": 125.4375,
                    "velocity": 0.4094488188976378,
                    "duration": 0.1875
                },
                {
                    "name": "D5",
                    "midi": 74,
                    "time": 125.625,
                    "velocity": 0.4094488188976378,
                    "duration": 0.1875
                },
                {
                    "name": "D5",
                    "midi": 74,
                    "time": 125.8125,
                    "velocity": 0.4094488188976378,
                    "duration": 0.1875
                },
                {
                    "name": "D5",
                    "midi": 74,
                    "time": 126,
                    "velocity": 0.44881889763779526,
                    "duration": 0.09375
                },
                {
                    "name": "G5",
                    "midi": 79,
                    "time": 126.09375,
                    "velocity": 0.4251968503937008,
                    "duration": 0.09375
                },
                {
                    "name": "E5",
                    "midi": 76,
                    "time": 126.1875,
                    "velocity": 0.4251968503937008,
                    "duration": 0.09375
                },
                {
                    "name": "D5",
                    "midi": 74,
                    "time": 126.28125,
                    "velocity": 0.4251968503937008,
                    "duration": 0.09375
                },
                {
                    "name": "C5",
                    "midi": 72,
                    "time": 126.375,
                    "velocity": 0.44881889763779526,
                    "duration": 0.09375
                },
                {
                    "name": "E5",
                    "midi": 76,
                    "time": 126.46875,
                    "velocity": 0.4251968503937008,
                    "duration": 0.09375
                },
                {
                    "name": "C5",
                    "midi": 72,
                    "time": 126.5625,
                    "velocity": 0.4251968503937008,
                    "duration": 0.09375
                },
                {
                    "name": "B4",
                    "midi": 71,
                    "time": 126.65625,
                    "velocity": 0.4251968503937008,
                    "duration": 0.09375
                },
                {
                    "name": "A4",
                    "midi": 69,
                    "time": 126.75,
                    "velocity": 0.44881889763779526,
                    "duration": 0.09375
                },
                {
                    "name": "E6",
                    "midi": 88,
                    "time": 126.84375,
                    "velocity": 0.44881889763779526,
                    "duration": 0.09375
                },
                {
                    "name": "C6",
                    "midi": 84,
                    "time": 126.9375,
                    "velocity": 0.44881889763779526,
                    "duration": 0.09375
                },
                {
                    "name": "B5",
                    "midi": 83,
                    "time": 127.03125,
                    "velocity": 0.44881889763779526,
                    "duration": 0.09375
                },
                {
                    "name": "A5",
                    "midi": 81,
                    "time": 127.125,
                    "velocity": 0.44881889763779526,
                    "duration": 0.09375
                },
                {
                    "name": "C6",
                    "midi": 84,
                    "time": 127.21875,
                    "velocity": 0.4251968503937008,
                    "duration": 0.09375
                },
                {
                    "name": "A5",
                    "midi": 81,
                    "time": 127.3125,
                    "velocity": 0.4251968503937008,
                    "duration": 0.09375
                },
                {
                    "name": "G5",
                    "midi": 79,
                    "time": 127.40625,
                    "velocity": 0.4251968503937008,
                    "duration": 0.09375
                },
                {
                    "name": "F#5",
                    "midi": 78,
                    "time": 127.5,
                    "velocity": 0.44881889763779526,
                    "duration": 0.09375
                },
                {
                    "name": "G5",
                    "midi": 79,
                    "time": 127.59375,
                    "velocity": 0.4251968503937008,
                    "duration": 0.09375
                },
                {
                    "name": "A5",
                    "midi": 81,
                    "time": 127.6875,
                    "velocity": 0.4251968503937008,
                    "duration": 0.09375
                },
                {
                    "name": "G5",
                    "midi": 79,
                    "time": 127.78125,
                    "velocity": 0.4251968503937008,
                    "duration": 0.09375
                },
                {
                    "name": "F#5",
                    "midi": 78,
                    "time": 127.875,
                    "velocity": 0.4409448818897638,
                    "duration": 0.09375
                },
                {
                    "name": "E5",
                    "midi": 76,
                    "time": 127.96875,
                    "velocity": 0.4251968503937008,
                    "duration": 0.09375
                },
                {
                    "name": "D5",
                    "midi": 74,
                    "time": 128.0625,
                    "velocity": 0.4251968503937008,
                    "duration": 0.09375
                },
                {
                    "name": "C#5",
                    "midi": 73,
                    "time": 128.15625,
                    "velocity": 0.4251968503937008,
                    "duration": 0.09375
                },
                {
                    "name": "D5",
                    "midi": 74,
                    "time": 128.25,
                    "velocity": 0.4566929133858268,
                    "duration": 0.09375
                },
                {
                    "name": "D6",
                    "midi": 86,
                    "time": 128.34375,
                    "velocity": 0.4251968503937008,
                    "duration": 0.09375
                },
                {
                    "name": "C5",
                    "midi": 72,
                    "time": 128.4375,
                    "velocity": 0.4566929133858268,
                    "duration": 0.09375
                },
                {
                    "name": "C6",
                    "midi": 84,
                    "time": 128.53125,
                    "velocity": 0.41732283464566927,
                    "duration": 0.09375
                },
                {
                    "name": "B4",
                    "midi": 71,
                    "time": 128.625,
                    "velocity": 0.48031496062992124,
                    "duration": 0.09375
                },
                {
                    "name": "B5",
                    "midi": 83,
                    "time": 128.71875,
                    "velocity": 0.4409448818897638,
                    "duration": 0.09375
                },
                {
                    "name": "A4",
                    "midi": 69,
                    "time": 128.8125,
                    "velocity": 0.48031496062992124,
                    "duration": 0.09375
                },
                {
                    "name": "A5",
                    "midi": 81,
                    "time": 128.90625,
                    "velocity": 0.4409448818897638,
                    "duration": 0.09375
                },
                {
                    "name": "G4",
                    "midi": 67,
                    "time": 129.00078125,
                    "velocity": 0.5196850393700787,
                    "duration": 0.28125
                },
                {
                    "name": "B4",
                    "midi": 71,
                    "time": 129.28125,
                    "velocity": 0.36220472440944884,
                    "duration": 0.046875
                },
                {
                    "name": "A4",
                    "midi": 69,
                    "time": 129.328125,
                    "velocity": 0.3700787401574803,
                    "duration": 0.046875
                },
                {
                    "name": "G4",
                    "midi": 67,
                    "time": 129.375,
                    "velocity": 0.4409448818897638,
                    "duration": 0.09375
                },
                {
                    "name": "D4",
                    "midi": 62,
                    "time": 129.46875,
                    "velocity": 0.3779527559055118,
                    "duration": 0.09375
                },
                {
                    "name": "B4",
                    "midi": 71,
                    "time": 129.5625,
                    "velocity": 0.3779527559055118,
                    "duration": 0.09375
                },
                {
                    "name": "A4",
                    "midi": 69,
                    "time": 129.65625,
                    "velocity": 0.3779527559055118,
                    "duration": 0.09375
                },
                {
                    "name": "G4",
                    "midi": 67,
                    "time": 129.75,
                    "velocity": 0.4409448818897638,
                    "duration": 0.09375
                },
                {
                    "name": "D4",
                    "midi": 62,
                    "time": 129.84375,
                    "velocity": 0.3779527559055118,
                    "duration": 0.09375
                },
                {
                    "name": "G4",
                    "midi": 67,
                    "time": 129.9375,
                    "velocity": 0.3779527559055118,
                    "duration": 0.09375
                },
                {
                    "name": "B4",
                    "midi": 71,
                    "time": 130.03125,
                    "velocity": 0.3779527559055118,
                    "duration": 0.09375
                },
                {
                    "name": "D5",
                    "midi": 74,
                    "time": 130.125,
                    "velocity": 0.4409448818897638,
                    "duration": 0.09375
                },
                {
                    "name": "B4",
                    "midi": 71,
                    "time": 130.21875,
                    "velocity": 0.4094488188976378,
                    "duration": 0.09375
                },
                {
                    "name": "A4",
                    "midi": 69,
                    "time": 130.3125,
                    "velocity": 0.4094488188976378,
                    "duration": 0.09375
                },
                {
                    "name": "G4",
                    "midi": 67,
                    "time": 130.40625,
                    "velocity": 0.4094488188976378,
                    "duration": 0.09375
                },
                {
                    "name": "B4",
                    "midi": 71,
                    "time": 130.5,
                    "velocity": 0.4645669291338583,
                    "duration": 0.09375
                },
                {
                    "name": "A4",
                    "midi": 69,
                    "time": 130.59375,
                    "velocity": 0.4094488188976378,
                    "duration": 0.09375
                },
                {
                    "name": "G4",
                    "midi": 67,
                    "time": 130.6875,
                    "velocity": 0.4094488188976378,
                    "duration": 0.09375
                },
                {
                    "name": "A4",
                    "midi": 69,
                    "time": 130.78125,
                    "velocity": 0.4094488188976378,
                    "duration": 0.09375
                },
                {
                    "name": "G4",
                    "midi": 67,
                    "time": 130.875,
                    "velocity": 0.4251968503937008,
                    "duration": 0.1875
                },
                {
                    "name": "E5",
                    "midi": 76,
                    "time": 131.0625,
                    "velocity": 0.4251968503937008,
                    "duration": 0.1875
                },
                {
                    "name": "D#5",
                    "midi": 75,
                    "time": 131.25,
                    "velocity": 0.4015748031496063,
                    "duration": 0.09375
                },
                {
                    "name": "E5",
                    "midi": 76,
                    "time": 131.34375,
                    "velocity": 0.4094488188976378,
                    "duration": 0.09375
                },
                {
                    "name": "F5",
                    "midi": 77,
                    "time": 131.4375,
                    "velocity": 0.41732283464566927,
                    "duration": 0.09375
                },
                {
                    "name": "F#5",
                    "midi": 78,
                    "time": 131.53125,
                    "velocity": 0.4251968503937008,
                    "duration": 0.09375
                },
                {
                    "name": "G5",
                    "midi": 79,
                    "time": 131.625,
                    "velocity": 0.4409448818897638,
                    "duration": 0.09375
                },
                {
                    "name": "G#5",
                    "midi": 80,
                    "time": 131.71875,
                    "velocity": 0.44881889763779526,
                    "duration": 0.09375
                },
                {
                    "name": "A5",
                    "midi": 81,
                    "time": 131.8125,
                    "velocity": 0.4566929133858268,
                    "duration": 0.09375
                },
                {
                    "name": "A#5",
                    "midi": 82,
                    "time": 131.90625,
                    "velocity": 0.4645669291338583,
                    "duration": 0.09375
                },
                {
                    "name": "B5",
                    "midi": 83,
                    "time": 132,
                    "velocity": 0.5354330708661418,
                    "duration": 0.375
                },
                {
                    "name": "A5",
                    "midi": 81,
                    "time": 132.375,
                    "velocity": 0.47244094488188976,
                    "duration": 0.09375
                },
                {
                    "name": "G5",
                    "midi": 79,
                    "time": 132.46875,
                    "velocity": 0.4409448818897638,
                    "duration": 0.09375
                },
                {
                    "name": "F#5",
                    "midi": 78,
                    "time": 132.5625,
                    "velocity": 0.4409448818897638,
                    "duration": 0.09375
                },
                {
                    "name": "E5",
                    "midi": 76,
                    "time": 132.65625,
                    "velocity": 0.4409448818897638,
                    "duration": 0.09375
                },
                {
                    "name": "D5",
                    "midi": 74,
                    "time": 132.75,
                    "velocity": 0.47244094488188976,
                    "duration": 0.375
                },
                {
                    "name": "C#5",
                    "midi": 73,
                    "time": 133.125,
                    "velocity": 0.4094488188976378,
                    "duration": 0.0625
                },
                {
                    "name": "D5",
                    "midi": 74,
                    "time": 133.1875,
                    "velocity": 0.33858267716535434,
                    "duration": 0.0625
                },
                {
                    "name": "C#5",
                    "midi": 73,
                    "time": 133.25,
                    "velocity": 0.3779527559055118,
                    "duration": 0.0625
                },
                {
                    "name": "D5",
                    "midi": 74,
                    "time": 133.3125,
                    "velocity": 0.33858267716535434,
                    "duration": 0.046875
                },
                {
                    "name": "C#5",
                    "midi": 73,
                    "time": 133.359375,
                    "velocity": 0.3779527559055118,
                    "duration": 0.046875
                },
                {
                    "name": "D5",
                    "midi": 74,
                    "time": 133.40625,
                    "velocity": 0.33070866141732286,
                    "duration": 0.046875
                },
                {
                    "name": "C#5",
                    "midi": 73,
                    "time": 133.453125,
                    "velocity": 0.3700787401574803,
                    "duration": 0.046875
                },
                {
                    "name": "D5",
                    "midi": 74,
                    "time": 133.5,
                    "velocity": 0.4251968503937008,
                    "duration": 0.09375
                },
                {
                    "name": "E5",
                    "midi": 76,
                    "time": 133.59375,
                    "velocity": 0.3937007874015748,
                    "duration": 0.09375
                },
                {
                    "name": "F#5",
                    "midi": 78,
                    "time": 133.6875,
                    "velocity": 0.4015748031496063,
                    "duration": 0.09375
                },
                {
                    "name": "G5",
                    "midi": 79,
                    "time": 133.78125,
                    "velocity": 0.4094488188976378,
                    "duration": 0.09375
                },
                {
                    "name": "A5",
                    "midi": 81,
                    "time": 133.875,
                    "velocity": 0.41732283464566927,
                    "duration": 0.09375
                },
                {
                    "name": "B5",
                    "midi": 83,
                    "time": 133.96875,
                    "velocity": 0.4251968503937008,
                    "duration": 0.09375
                },
                {
                    "name": "C#6",
                    "midi": 85,
                    "time": 134.0625,
                    "velocity": 0.4330708661417323,
                    "duration": 0.09375
                },
                {
                    "name": "D6",
                    "midi": 86,
                    "time": 134.15625,
                    "velocity": 0.4409448818897638,
                    "duration": 0.09375
                },
                {
                    "name": "C#6",
                    "midi": 85,
                    "time": 134.25,
                    "velocity": 0.4645669291338583,
                    "duration": 0.09375
                },
                {
                    "name": "E6",
                    "midi": 88,
                    "time": 134.34375,
                    "velocity": 0.4330708661417323,
                    "duration": 0.09375
                },
                {
                    "name": "C#6",
                    "midi": 85,
                    "time": 134.4375,
                    "velocity": 0.4330708661417323,
                    "duration": 0.09375
                },
                {
                    "name": "A5",
                    "midi": 81,
                    "time": 134.53125,
                    "velocity": 0.4330708661417323,
                    "duration": 0.09375
                },
                {
                    "name": "G5",
                    "midi": 79,
                    "time": 134.625,
                    "velocity": 0.4566929133858268,
                    "duration": 0.09375
                },
                {
                    "name": "B5",
                    "midi": 83,
                    "time": 134.71875,
                    "velocity": 0.4330708661417323,
                    "duration": 0.09375
                },
                {
                    "name": "G5",
                    "midi": 79,
                    "time": 134.8125,
                    "velocity": 0.4330708661417323,
                    "duration": 0.09375
                },
                {
                    "name": "E5",
                    "midi": 76,
                    "time": 134.90625,
                    "velocity": 0.4330708661417323,
                    "duration": 0.09375
                },
                {
                    "name": "F#5",
                    "midi": 78,
                    "time": 135,
                    "velocity": 0.44881889763779526,
                    "duration": 0.09375
                },
                {
                    "name": "A5",
                    "midi": 81,
                    "time": 135.09375,
                    "velocity": 0.41732283464566927,
                    "duration": 0.09375
                },
                {
                    "name": "G5",
                    "midi": 79,
                    "time": 135.1875,
                    "velocity": 0.41732283464566927,
                    "duration": 0.09375
                },
                {
                    "name": "F#5",
                    "midi": 78,
                    "time": 135.28125,
                    "velocity": 0.41732283464566927,
                    "duration": 0.09375
                },
                {
                    "name": "E5",
                    "midi": 76,
                    "time": 135.375,
                    "velocity": 0.4330708661417323,
                    "duration": 0.09375
                },
                {
                    "name": "D5",
                    "midi": 74,
                    "time": 135.46875,
                    "velocity": 0.41732283464566927,
                    "duration": 0.09375
                },
                {
                    "name": "C#5",
                    "midi": 73,
                    "time": 135.5625,
                    "velocity": 0.41732283464566927,
                    "duration": 0.09375
                },
                {
                    "name": "B4",
                    "midi": 71,
                    "time": 135.65625,
                    "velocity": 0.41732283464566927,
                    "duration": 0.09375
                },
                {
                    "name": "A4",
                    "midi": 69,
                    "time": 135.75,
                    "velocity": 0.4409448818897638,
                    "duration": 0.09375
                },
                {
                    "name": "B4",
                    "midi": 71,
                    "time": 135.84375,
                    "velocity": 0.4094488188976378,
                    "duration": 0.09375
                },
                {
                    "name": "C#5",
                    "midi": 73,
                    "time": 135.9375,
                    "velocity": 0.4094488188976378,
                    "duration": 0.09375
                },
                {
                    "name": "D5",
                    "midi": 74,
                    "time": 136.03125,
                    "velocity": 0.4094488188976378,
                    "duration": 0.09375
                },
                {
                    "name": "E5",
                    "midi": 76,
                    "time": 136.125,
                    "velocity": 0.4330708661417323,
                    "duration": 0.09375
                },
                {
                    "name": "F#5",
                    "midi": 78,
                    "time": 136.21875,
                    "velocity": 0.4015748031496063,
                    "duration": 0.09375
                },
                {
                    "name": "G5",
                    "midi": 79,
                    "time": 136.3125,
                    "velocity": 0.41732283464566927,
                    "duration": 0.09375
                },
                {
                    "name": "E5",
                    "midi": 76,
                    "time": 136.40625,
                    "velocity": 0.4251968503937008,
                    "duration": 0.09375
                },
                {
                    "name": "D5",
                    "midi": 74,
                    "time": 136.5,
                    "velocity": 0.4409448818897638,
                    "duration": 0.09375
                },
                {
                    "name": "E5",
                    "midi": 76,
                    "time": 136.59375,
                    "velocity": 0.4409448818897638,
                    "duration": 0.09375
                },
                {
                    "name": "F#5",
                    "midi": 78,
                    "time": 136.6875,
                    "velocity": 0.4645669291338583,
                    "duration": 0.09375
                },
                {
                    "name": "G5",
                    "midi": 79,
                    "time": 136.78125,
                    "velocity": 0.48031496062992124,
                    "duration": 0.09375
                },
                {
                    "name": "A5",
                    "midi": 81,
                    "time": 136.875,
                    "velocity": 0.48031496062992124,
                    "duration": 0.09375
                },
                {
                    "name": "B5",
                    "midi": 83,
                    "time": 136.96875,
                    "velocity": 0.49606299212598426,
                    "duration": 0.09375
                },
                {
                    "name": "C#6",
                    "midi": 85,
                    "time": 137.0625,
                    "velocity": 0.5196850393700787,
                    "duration": 0.09375
                },
                {
                    "name": "D6",
                    "midi": 86,
                    "time": 137.15625,
                    "velocity": 0.5433070866141733,
                    "duration": 0.046875
                },
                {
                    "name": "D5",
                    "midi": 74,
                    "time": 137.25,
                    "velocity": 0.5196850393700787,
                    "duration": 0.375
                },
                {
                    "name": "F5",
                    "midi": 77,
                    "time": 138,
                    "velocity": 0.4251968503937008,
                    "duration": 0.28125
                },
                {
                    "name": "D5",
                    "midi": 74,
                    "time": 138.28125,
                    "velocity": 0.3700787401574803,
                    "duration": 0.046875
                },
                {
                    "name": "D#5",
                    "midi": 75,
                    "time": 138.328125,
                    "velocity": 0.3700787401574803,
                    "duration": 0.046875
                },
                {
                    "name": "F5",
                    "midi": 77,
                    "time": 138.375,
                    "velocity": 0.4330708661417323,
                    "duration": 0.1875
                },
                {
                    "name": "F6",
                    "midi": 89,
                    "time": 138.5625,
                    "velocity": 0.6614173228346457,
                    "duration": 0.375
                },
                {
                    "name": "A4",
                    "midi": 69,
                    "time": 138.9375,
                    "velocity": 0.4015748031496063,
                    "duration": 0.1875
                },
                {
                    "name": "A4",
                    "midi": 69,
                    "time": 139.125,
                    "velocity": 0.4015748031496063,
                    "duration": 0.1875
                },
                {
                    "name": "A4",
                    "midi": 69,
                    "time": 139.3125,
                    "velocity": 0.4015748031496063,
                    "duration": 0.1875
                },
                {
                    "name": "A#4",
                    "midi": 70,
                    "time": 139.5,
                    "velocity": 0.4251968503937008,
                    "duration": 0.28125
                },
                {
                    "name": "A#4",
                    "midi": 70,
                    "time": 139.78125,
                    "velocity": 0.3700787401574803,
                    "duration": 0.046875
                },
                {
                    "name": "C5",
                    "midi": 72,
                    "time": 139.828125,
                    "velocity": 0.3700787401574803,
                    "duration": 0.046875
                },
                {
                    "name": "D5",
                    "midi": 74,
                    "time": 139.875,
                    "velocity": 0.4330708661417323,
                    "duration": 0.1875
                },
                {
                    "name": "D6",
                    "midi": 86,
                    "time": 140.0625,
                    "velocity": 0.6220472440944882,
                    "duration": 0.375
                },
                {
                    "name": "F#4",
                    "midi": 66,
                    "time": 140.4375,
                    "velocity": 0.4015748031496063,
                    "duration": 0.1875
                },
                {
                    "name": "F#4",
                    "midi": 66,
                    "time": 140.625,
                    "velocity": 0.4015748031496063,
                    "duration": 0.1875
                },
                {
                    "name": "F#4",
                    "midi": 66,
                    "time": 140.8125,
                    "velocity": 0.4015748031496063,
                    "duration": 0.1875
                },
                {
                    "name": "G4",
                    "midi": 67,
                    "time": 141,
                    "velocity": 0.4645669291338583,
                    "duration": 0.28125
                },
                {
                    "name": "G4",
                    "midi": 67,
                    "time": 141.28125,
                    "velocity": 0.3700787401574803,
                    "duration": 0.046875
                },
                {
                    "name": "A4",
                    "midi": 69,
                    "time": 141.328125,
                    "velocity": 0.3700787401574803,
                    "duration": 0.046875
                },
                {
                    "name": "A#4",
                    "midi": 70,
                    "time": 141.375,
                    "velocity": 0.4645669291338583,
                    "duration": 0.1875
                },
                {
                    "name": "A#5",
                    "midi": 82,
                    "time": 141.5625,
                    "velocity": 0.6141732283464567,
                    "duration": 0.375
                },
                {
                    "name": "C#4",
                    "midi": 61,
                    "time": 141.9375,
                    "velocity": 0.4330708661417323,
                    "duration": 0.1875
                },
                {
                    "name": "C#4",
                    "midi": 61,
                    "time": 142.125,
                    "velocity": 0.4330708661417323,
                    "duration": 0.1875
                },
                {
                    "name": "C#4",
                    "midi": 61,
                    "time": 142.3125,
                    "velocity": 0.4330708661417323,
                    "duration": 0.1875
                },
                {
                    "name": "D4",
                    "midi": 62,
                    "time": 142.5,
                    "velocity": 0.4251968503937008,
                    "duration": 0.09375
                },
                {
                    "name": "E4",
                    "midi": 64,
                    "time": 142.59375,
                    "velocity": 0.4409448818897638,
                    "duration": 0.09375
                },
                {
                    "name": "F#4",
                    "midi": 66,
                    "time": 142.6875,
                    "velocity": 0.44881889763779526,
                    "duration": 0.09375
                },
                {
                    "name": "G4",
                    "midi": 67,
                    "time": 142.78125,
                    "velocity": 0.4645669291338583,
                    "duration": 0.09375
                },
                {
                    "name": "A4",
                    "midi": 69,
                    "time": 142.875,
                    "velocity": 0.47244094488188976,
                    "duration": 0.09375
                },
                {
                    "name": "F#4",
                    "midi": 66,
                    "time": 142.96875,
                    "velocity": 0.44881889763779526,
                    "duration": 0.09375
                },
                {
                    "name": "G4",
                    "midi": 67,
                    "time": 143.0625,
                    "velocity": 0.47244094488188976,
                    "duration": 0.09375
                },
                {
                    "name": "E4",
                    "midi": 64,
                    "time": 143.15625,
                    "velocity": 0.4409448818897638,
                    "duration": 0.09375
                },
                {
                    "name": "D4",
                    "midi": 62,
                    "time": 143.25,
                    "velocity": 0.5354330708661418,
                    "duration": 0.375
                },
                {
                    "name": "G4",
                    "midi": 67,
                    "time": 144.00078125,
                    "velocity": 0.47244094488188976,
                    "duration": 0.28125
                },
                {
                    "name": "B4",
                    "midi": 71,
                    "time": 144.28125,
                    "velocity": 0.36220472440944884,
                    "duration": 0.046875
                },
                {
                    "name": "A4",
                    "midi": 69,
                    "time": 144.328125,
                    "velocity": 0.3700787401574803,
                    "duration": 0.046875
                },
                {
                    "name": "G4",
                    "midi": 67,
                    "time": 144.375,
                    "velocity": 0.4409448818897638,
                    "duration": 0.09375
                },
                {
                    "name": "D4",
                    "midi": 62,
                    "time": 144.46875,
                    "velocity": 0.3779527559055118,
                    "duration": 0.09375
                },
                {
                    "name": "B4",
                    "midi": 71,
                    "time": 144.5625,
                    "velocity": 0.3779527559055118,
                    "duration": 0.09375
                },
                {
                    "name": "A4",
                    "midi": 69,
                    "time": 144.65625,
                    "velocity": 0.3779527559055118,
                    "duration": 0.09375
                },
                {
                    "name": "G4",
                    "midi": 67,
                    "time": 144.75,
                    "velocity": 0.4409448818897638,
                    "duration": 0.09375
                },
                {
                    "name": "D4",
                    "midi": 62,
                    "time": 144.84375,
                    "velocity": 0.3779527559055118,
                    "duration": 0.09375
                },
                {
                    "name": "G4",
                    "midi": 67,
                    "time": 144.9375,
                    "velocity": 0.3779527559055118,
                    "duration": 0.09375
                },
                {
                    "name": "B4",
                    "midi": 71,
                    "time": 145.03125,
                    "velocity": 0.3779527559055118,
                    "duration": 0.09375
                },
                {
                    "name": "D5",
                    "midi": 74,
                    "time": 145.125,
                    "velocity": 0.4409448818897638,
                    "duration": 0.09375
                },
                {
                    "name": "B4",
                    "midi": 71,
                    "time": 145.21875,
                    "velocity": 0.4094488188976378,
                    "duration": 0.09375
                },
                {
                    "name": "A4",
                    "midi": 69,
                    "time": 145.3125,
                    "velocity": 0.4094488188976378,
                    "duration": 0.09375
                },
                {
                    "name": "G4",
                    "midi": 67,
                    "time": 145.40625,
                    "velocity": 0.4094488188976378,
                    "duration": 0.09375
                },
                {
                    "name": "B4",
                    "midi": 71,
                    "time": 145.5,
                    "velocity": 0.4645669291338583,
                    "duration": 0.09375
                },
                {
                    "name": "A4",
                    "midi": 69,
                    "time": 145.59375,
                    "velocity": 0.4094488188976378,
                    "duration": 0.09375
                },
                {
                    "name": "G4",
                    "midi": 67,
                    "time": 145.6875,
                    "velocity": 0.4094488188976378,
                    "duration": 0.09375
                },
                {
                    "name": "A4",
                    "midi": 69,
                    "time": 145.78125,
                    "velocity": 0.4094488188976378,
                    "duration": 0.09375
                },
                {
                    "name": "G4",
                    "midi": 67,
                    "time": 145.875,
                    "velocity": 0.4251968503937008,
                    "duration": 0.1875
                },
                {
                    "name": "E6",
                    "midi": 88,
                    "time": 146.0625,
                    "velocity": 0.36220472440944884,
                    "duration": 0.09375
                },
                {
                    "name": "E5",
                    "midi": 76,
                    "time": 146.15625,
                    "velocity": 0.3464566929133858,
                    "duration": 0.09375
                },
                {
                    "name": "E6",
                    "midi": 88,
                    "time": 146.25,
                    "velocity": 0.3700787401574803,
                    "duration": 0.09375
                },
                {
                    "name": "E5",
                    "midi": 76,
                    "time": 146.34375,
                    "velocity": 0.3464566929133858,
                    "duration": 0.09375
                },
                {
                    "name": "E6",
                    "midi": 88,
                    "time": 146.4375,
                    "velocity": 0.3858267716535433,
                    "duration": 0.09375
                },
                {
                    "name": "E5",
                    "midi": 76,
                    "time": 146.53125,
                    "velocity": 0.3543307086614173,
                    "duration": 0.09375
                },
                {
                    "name": "E6",
                    "midi": 88,
                    "time": 146.625,
                    "velocity": 0.4015748031496063,
                    "duration": 0.09375
                },
                {
                    "name": "E5",
                    "midi": 76,
                    "time": 146.71875,
                    "velocity": 0.36220472440944884,
                    "duration": 0.09375
                },
                {
                    "name": "E6",
                    "midi": 88,
                    "time": 146.8125,
                    "velocity": 0.4094488188976378,
                    "duration": 0.09375
                },
                {
                    "name": "E5",
                    "midi": 76,
                    "time": 146.90625,
                    "velocity": 0.3858267716535433,
                    "duration": 0.09375
                },
                {
                    "name": "E6",
                    "midi": 88,
                    "time": 147,
                    "velocity": 0.4251968503937008,
                    "duration": 0.234375
                },
                {
                    "name": "D6",
                    "midi": 86,
                    "time": 147.234375,
                    "velocity": 0.3779527559055118,
                    "duration": 0.046875
                },
                {
                    "name": "C6",
                    "midi": 84,
                    "time": 147.28125,
                    "velocity": 0.3779527559055118,
                    "duration": 0.046875
                },
                {
                    "name": "B5",
                    "midi": 83,
                    "time": 147.328125,
                    "velocity": 0.3700787401574803,
                    "duration": 0.046875
                },
                {
                    "name": "A5",
                    "midi": 81,
                    "time": 147.375,
                    "velocity": 0.3700787401574803,
                    "duration": 0.1875
                },
                {
                    "name": "D6",
                    "midi": 86,
                    "time": 147.5625,
                    "velocity": 0.36220472440944884,
                    "duration": 0.09375
                },
                {
                    "name": "D5",
                    "midi": 74,
                    "time": 147.65625,
                    "velocity": 0.3464566929133858,
                    "duration": 0.09375
                },
                {
                    "name": "D6",
                    "midi": 86,
                    "time": 147.75,
                    "velocity": 0.3700787401574803,
                    "duration": 0.09375
                },
                {
                    "name": "D5",
                    "midi": 74,
                    "time": 147.84375,
                    "velocity": 0.3464566929133858,
                    "duration": 0.09375
                },
                {
                    "name": "D6",
                    "midi": 86,
                    "time": 147.9375,
                    "velocity": 0.3858267716535433,
                    "duration": 0.09375
                },
                {
                    "name": "D5",
                    "midi": 74,
                    "time": 148.03125,
                    "velocity": 0.3543307086614173,
                    "duration": 0.09375
                },
                {
                    "name": "D6",
                    "midi": 86,
                    "time": 148.125,
                    "velocity": 0.4015748031496063,
                    "duration": 0.09375
                },
                {
                    "name": "D5",
                    "midi": 74,
                    "time": 148.21875,
                    "velocity": 0.36220472440944884,
                    "duration": 0.09375
                },
                {
                    "name": "D6",
                    "midi": 86,
                    "time": 148.3125,
                    "velocity": 0.4094488188976378,
                    "duration": 0.09375
                },
                {
                    "name": "D5",
                    "midi": 74,
                    "time": 148.40625,
                    "velocity": 0.3858267716535433,
                    "duration": 0.09375
                },
                {
                    "name": "D6",
                    "midi": 86,
                    "time": 148.5,
                    "velocity": 0.4251968503937008,
                    "duration": 0.234375
                },
                {
                    "name": "C6",
                    "midi": 84,
                    "time": 148.734375,
                    "velocity": 0.3779527559055118,
                    "duration": 0.046875
                },
                {
                    "name": "B5",
                    "midi": 83,
                    "time": 148.78125,
                    "velocity": 0.3779527559055118,
                    "duration": 0.046875
                },
                {
                    "name": "A5",
                    "midi": 81,
                    "time": 148.828125,
                    "velocity": 0.3700787401574803,
                    "duration": 0.046875
                },
                {
                    "name": "G5",
                    "midi": 79,
                    "time": 148.875,
                    "velocity": 0.3700787401574803,
                    "duration": 0.1875
                },
                {
                    "name": "D6",
                    "midi": 86,
                    "time": 150.5625,
                    "velocity": 0.30708661417322836,
                    "duration": 0.046875
                },
                {
                    "name": "C6",
                    "midi": 84,
                    "time": 150.609375,
                    "velocity": 0.30708661417322836,
                    "duration": 0.046875
                },
                {
                    "name": "B5",
                    "midi": 83,
                    "time": 150.65625,
                    "velocity": 0.30708661417322836,
                    "duration": 0.046875
                },
                {
                    "name": "A5",
                    "midi": 81,
                    "time": 150.703125,
                    "velocity": 0.30708661417322836,
                    "duration": 0.046875
                },
                {
                    "name": "G5",
                    "midi": 79,
                    "time": 150.75,
                    "velocity": 0.3700787401574803,
                    "duration": 0.09375
                },
                {
                    "name": "B5",
                    "midi": 83,
                    "time": 150.9375,
                    "velocity": 0.30708661417322836,
                    "duration": 0.046875
                },
                {
                    "name": "A5",
                    "midi": 81,
                    "time": 150.984375,
                    "velocity": 0.30708661417322836,
                    "duration": 0.046875
                },
                {
                    "name": "G5",
                    "midi": 79,
                    "time": 151.03125,
                    "velocity": 0.30708661417322836,
                    "duration": 0.046875
                },
                {
                    "name": "F#5",
                    "midi": 78,
                    "time": 151.078125,
                    "velocity": 0.30708661417322836,
                    "duration": 0.046875
                },
                {
                    "name": "E5",
                    "midi": 76,
                    "time": 151.125,
                    "velocity": 0.3937007874015748,
                    "duration": 0.09375
                },
                {
                    "name": "G5",
                    "midi": 79,
                    "time": 151.3125,
                    "velocity": 0.2992125984251969,
                    "duration": 0.046875
                },
                {
                    "name": "F#5",
                    "midi": 78,
                    "time": 151.359375,
                    "velocity": 0.2992125984251969,
                    "duration": 0.046875
                },
                {
                    "name": "E5",
                    "midi": 76,
                    "time": 151.40625,
                    "velocity": 0.2992125984251969,
                    "duration": 0.046875
                },
                {
                    "name": "D5",
                    "midi": 74,
                    "time": 151.453125,
                    "velocity": 0.2992125984251969,
                    "duration": 0.046875
                },
                {
                    "name": "C5",
                    "midi": 72,
                    "time": 151.5,
                    "velocity": 0.3937007874015748,
                    "duration": 0.375
                },
                {
                    "name": "G5",
                    "midi": 79,
                    "time": 152.0625,
                    "velocity": 0.4094488188976378,
                    "duration": 0.046875
                },
                {
                    "name": "F5",
                    "midi": 77,
                    "time": 152.109375,
                    "velocity": 0.4094488188976378,
                    "duration": 0.046875
                },
                {
                    "name": "D#5",
                    "midi": 75,
                    "time": 152.15625,
                    "velocity": 0.4094488188976378,
                    "duration": 0.046875
                },
                {
                    "name": "D5",
                    "midi": 74,
                    "time": 152.203125,
                    "velocity": 0.4094488188976378,
                    "duration": 0.046875
                },
                {
                    "name": "C5",
                    "midi": 72,
                    "time": 152.25,
                    "velocity": 0.49606299212598426,
                    "duration": 0.1875
                },
                {
                    "name": "B5",
                    "midi": 83,
                    "time": 152.4375,
                    "velocity": 0.49606299212598426,
                    "duration": 0.1875
                },
                {
                    "name": "C6",
                    "midi": 84,
                    "time": 152.625,
                    "velocity": 0.5590551181102362,
                    "duration": 0.1875
                },
                {
                    "name": "C6",
                    "midi": 84,
                    "time": 152.8125,
                    "velocity": 0.5196850393700787,
                    "duration": 0.1875
                },
                {
                    "name": "C6",
                    "midi": 84,
                    "time": 153,
                    "velocity": 0.5039370078740157,
                    "duration": 0.09375
                },
                {
                    "name": "B5",
                    "midi": 83,
                    "time": 153.09375,
                    "velocity": 0.44881889763779526,
                    "duration": 0.09375
                },
                {
                    "name": "C6",
                    "midi": 84,
                    "time": 153.1875,
                    "velocity": 0.44881889763779526,
                    "duration": 0.09375
                },
                {
                    "name": "A5",
                    "midi": 81,
                    "time": 153.28125,
                    "velocity": 0.44881889763779526,
                    "duration": 0.09375
                },
                {
                    "name": "B5",
                    "midi": 83,
                    "time": 153.375,
                    "velocity": 0.5039370078740157,
                    "duration": 0.09375
                },
                {
                    "name": "A5",
                    "midi": 81,
                    "time": 153.46875,
                    "velocity": 0.44881889763779526,
                    "duration": 0.09375
                },
                {
                    "name": "B5",
                    "midi": 83,
                    "time": 153.5625,
                    "velocity": 0.44881889763779526,
                    "duration": 0.09375
                },
                {
                    "name": "G5",
                    "midi": 79,
                    "time": 153.65625,
                    "velocity": 0.44881889763779526,
                    "duration": 0.09375
                },
                {
                    "name": "A5",
                    "midi": 81,
                    "time": 153.75,
                    "velocity": 0.49606299212598426,
                    "duration": 0.09375
                },
                {
                    "name": "G#5",
                    "midi": 80,
                    "time": 153.84375,
                    "velocity": 0.44881889763779526,
                    "duration": 0.09375
                },
                {
                    "name": "A5",
                    "midi": 81,
                    "time": 153.9375,
                    "velocity": 0.44881889763779526,
                    "duration": 0.09375
                },
                {
                    "name": "E5",
                    "midi": 76,
                    "time": 154.03125,
                    "velocity": 0.44881889763779526,
                    "duration": 0.09375
                },
                {
                    "name": "G5",
                    "midi": 79,
                    "time": 154.125,
                    "velocity": 0.49606299212598426,
                    "duration": 0.09375
                },
                {
                    "name": "F#5",
                    "midi": 78,
                    "time": 154.21875,
                    "velocity": 0.44881889763779526,
                    "duration": 0.09375
                },
                {
                    "name": "E5",
                    "midi": 76,
                    "time": 154.3125,
                    "velocity": 0.44881889763779526,
                    "duration": 0.09375
                },
                {
                    "name": "D5",
                    "midi": 74,
                    "time": 154.40625,
                    "velocity": 0.44881889763779526,
                    "duration": 0.09375
                },
                {
                    "name": "G5",
                    "midi": 79,
                    "time": 154.5,
                    "velocity": 0.5118110236220472,
                    "duration": 0.09375
                },
                {
                    "name": "D5",
                    "midi": 74,
                    "time": 154.59375,
                    "velocity": 0.4409448818897638,
                    "duration": 0.09375
                },
                {
                    "name": "G5",
                    "midi": 79,
                    "time": 154.6875,
                    "velocity": 0.4566929133858268,
                    "duration": 0.09375
                },
                {
                    "name": "B5",
                    "midi": 83,
                    "time": 154.78125,
                    "velocity": 0.48031496062992124,
                    "duration": 0.09375
                },
                {
                    "name": "D6",
                    "midi": 86,
                    "time": 154.875,
                    "velocity": 0.5354330708661418,
                    "duration": 0.09375
                },
                {
                    "name": "B5",
                    "midi": 83,
                    "time": 154.96875,
                    "velocity": 0.4881889763779528,
                    "duration": 0.09375
                },
                {
                    "name": "A5",
                    "midi": 81,
                    "time": 155.0625,
                    "velocity": 0.47244094488188976,
                    "duration": 0.09375
                },
                {
                    "name": "G5",
                    "midi": 79,
                    "time": 155.15625,
                    "velocity": 0.44881889763779526,
                    "duration": 0.09375
                },
                {
                    "name": "F#5",
                    "midi": 78,
                    "time": 155.25,
                    "velocity": 0.5039370078740157,
                    "duration": 0.09375
                },
                {
                    "name": "D5",
                    "midi": 74,
                    "time": 155.34375,
                    "velocity": 0.4409448818897638,
                    "duration": 0.09375
                },
                {
                    "name": "F#5",
                    "midi": 78,
                    "time": 155.4375,
                    "velocity": 0.4409448818897638,
                    "duration": 0.09375
                },
                {
                    "name": "A5",
                    "midi": 81,
                    "time": 155.53125,
                    "velocity": 0.4409448818897638,
                    "duration": 0.09375
                },
                {
                    "name": "C6",
                    "midi": 84,
                    "time": 155.625,
                    "velocity": 0.5039370078740157,
                    "duration": 0.09375
                },
                {
                    "name": "A5",
                    "midi": 81,
                    "time": 155.71875,
                    "velocity": 0.44881889763779526,
                    "duration": 0.09375
                },
                {
                    "name": "G5",
                    "midi": 79,
                    "time": 155.8125,
                    "velocity": 0.44881889763779526,
                    "duration": 0.09375
                },
                {
                    "name": "F#5",
                    "midi": 78,
                    "time": 155.90625,
                    "velocity": 0.44881889763779526,
                    "duration": 0.09375
                },
                {
                    "name": "G5",
                    "midi": 79,
                    "time": 156,
                    "velocity": 0.5118110236220472,
                    "duration": 0.09375
                },
                {
                    "name": "D5",
                    "midi": 74,
                    "time": 156.09375,
                    "velocity": 0.4409448818897638,
                    "duration": 0.09375
                },
                {
                    "name": "G5",
                    "midi": 79,
                    "time": 156.1875,
                    "velocity": 0.4566929133858268,
                    "duration": 0.09375
                },
                {
                    "name": "B5",
                    "midi": 83,
                    "time": 156.28125,
                    "velocity": 0.48031496062992124,
                    "duration": 0.09375
                },
                {
                    "name": "D6",
                    "midi": 86,
                    "time": 156.375,
                    "velocity": 0.5354330708661418,
                    "duration": 0.09375
                },
                {
                    "name": "B5",
                    "midi": 83,
                    "time": 156.46875,
                    "velocity": 0.4881889763779528,
                    "duration": 0.09375
                },
                {
                    "name": "A5",
                    "midi": 81,
                    "time": 156.5625,
                    "velocity": 0.47244094488188976,
                    "duration": 0.09375
                },
                {
                    "name": "G5",
                    "midi": 79,
                    "time": 156.65625,
                    "velocity": 0.44881889763779526,
                    "duration": 0.09375
                },
                {
                    "name": "F#5",
                    "midi": 78,
                    "time": 156.75,
                    "velocity": 0.5039370078740157,
                    "duration": 0.09375
                },
                {
                    "name": "D5",
                    "midi": 74,
                    "time": 156.84375,
                    "velocity": 0.4409448818897638,
                    "duration": 0.09375
                },
                {
                    "name": "F#5",
                    "midi": 78,
                    "time": 156.9375,
                    "velocity": 0.4409448818897638,
                    "duration": 0.09375
                },
                {
                    "name": "A5",
                    "midi": 81,
                    "time": 157.03125,
                    "velocity": 0.4409448818897638,
                    "duration": 0.09375
                },
                {
                    "name": "C6",
                    "midi": 84,
                    "time": 157.125,
                    "velocity": 0.5039370078740157,
                    "duration": 0.09375
                },
                {
                    "name": "A5",
                    "midi": 81,
                    "time": 157.21875,
                    "velocity": 0.44881889763779526,
                    "duration": 0.09375
                },
                {
                    "name": "G5",
                    "midi": 79,
                    "time": 157.3125,
                    "velocity": 0.44881889763779526,
                    "duration": 0.09375
                },
                {
                    "name": "F#5",
                    "midi": 78,
                    "time": 157.40625,
                    "velocity": 0.44881889763779526,
                    "duration": 0.09375
                },
                {
                    "name": "G5",
                    "midi": 79,
                    "time": 157.5,
                    "velocity": 0.5118110236220472,
                    "duration": 0.09375
                },
                {
                    "name": "B5",
                    "midi": 83,
                    "time": 157.59375,
                    "velocity": 0.4645669291338583,
                    "duration": 0.09375
                },
                {
                    "name": "G5",
                    "midi": 79,
                    "time": 157.6875,
                    "velocity": 0.4645669291338583,
                    "duration": 0.09375
                },
                {
                    "name": "D5",
                    "midi": 74,
                    "time": 157.78125,
                    "velocity": 0.4645669291338583,
                    "duration": 0.09375
                },
                {
                    "name": "B4",
                    "midi": 71,
                    "time": 157.875,
                    "velocity": 0.5118110236220472,
                    "duration": 0.09375
                },
                {
                    "name": "F5",
                    "midi": 77,
                    "time": 159,
                    "velocity": 0.4251968503937008,
                    "duration": 0.28125
                },
                {
                    "name": "D5",
                    "midi": 74,
                    "time": 159.28125,
                    "velocity": 0.3700787401574803,
                    "duration": 0.046875
                },
                {
                    "name": "D#5",
                    "midi": 75,
                    "time": 159.328125,
                    "velocity": 0.3700787401574803,
                    "duration": 0.046875
                },
                {
                    "name": "F5",
                    "midi": 77,
                    "time": 159.375,
                    "velocity": 0.4330708661417323,
                    "duration": 0.1875
                },
                {
                    "name": "F6",
                    "midi": 89,
                    "time": 159.5625,
                    "velocity": 0.6614173228346457,
                    "duration": 0.375
                },
                {
                    "name": "A4",
                    "midi": 69,
                    "time": 159.9375,
                    "velocity": 0.4015748031496063,
                    "duration": 0.1875
                },
                {
                    "name": "A4",
                    "midi": 69,
                    "time": 160.125,
                    "velocity": 0.4015748031496063,
                    "duration": 0.1875
                },
                {
                    "name": "A4",
                    "midi": 69,
                    "time": 160.3125,
                    "velocity": 0.4015748031496063,
                    "duration": 0.1875
                },
                {
                    "name": "A#4",
                    "midi": 70,
                    "time": 160.5,
                    "velocity": 0.4251968503937008,
                    "duration": 0.28125
                },
                {
                    "name": "A#4",
                    "midi": 70,
                    "time": 160.78125,
                    "velocity": 0.3700787401574803,
                    "duration": 0.046875
                },
                {
                    "name": "C5",
                    "midi": 72,
                    "time": 160.828125,
                    "velocity": 0.3700787401574803,
                    "duration": 0.046875
                },
                {
                    "name": "D5",
                    "midi": 74,
                    "time": 160.875,
                    "velocity": 0.4330708661417323,
                    "duration": 0.1875
                },
                {
                    "name": "D6",
                    "midi": 86,
                    "time": 161.0625,
                    "velocity": 0.6220472440944882,
                    "duration": 0.375
                },
                {
                    "name": "F#4",
                    "midi": 66,
                    "time": 161.4375,
                    "velocity": 0.4015748031496063,
                    "duration": 0.1875
                },
                {
                    "name": "F#4",
                    "midi": 66,
                    "time": 161.625,
                    "velocity": 0.4015748031496063,
                    "duration": 0.1875
                },
                {
                    "name": "F#4",
                    "midi": 66,
                    "time": 161.8125,
                    "velocity": 0.4015748031496063,
                    "duration": 0.1875
                },
                {
                    "name": "G4",
                    "midi": 67,
                    "time": 162,
                    "velocity": 0.4645669291338583,
                    "duration": 0.28125
                },
                {
                    "name": "G4",
                    "midi": 67,
                    "time": 162.28125,
                    "velocity": 0.3700787401574803,
                    "duration": 0.046875
                },
                {
                    "name": "A4",
                    "midi": 69,
                    "time": 162.328125,
                    "velocity": 0.3700787401574803,
                    "duration": 0.046875
                },
                {
                    "name": "A#4",
                    "midi": 70,
                    "time": 162.375,
                    "velocity": 0.4645669291338583,
                    "duration": 0.1875
                },
                {
                    "name": "A#5",
                    "midi": 82,
                    "time": 162.5625,
                    "velocity": 0.6141732283464567,
                    "duration": 0.375
                },
                {
                    "name": "C#4",
                    "midi": 61,
                    "time": 162.9375,
                    "velocity": 0.4330708661417323,
                    "duration": 0.1875
                },
                {
                    "name": "C#4",
                    "midi": 61,
                    "time": 163.125,
                    "velocity": 0.4330708661417323,
                    "duration": 0.1875
                },
                {
                    "name": "C#4",
                    "midi": 61,
                    "time": 163.3125,
                    "velocity": 0.4330708661417323,
                    "duration": 0.1875
                },
                {
                    "name": "D4",
                    "midi": 62,
                    "time": 163.5,
                    "velocity": 0.4251968503937008,
                    "duration": 0.09375
                },
                {
                    "name": "E4",
                    "midi": 64,
                    "time": 163.59375,
                    "velocity": 0.4409448818897638,
                    "duration": 0.09375
                },
                {
                    "name": "F#4",
                    "midi": 66,
                    "time": 163.6875,
                    "velocity": 0.44881889763779526,
                    "duration": 0.09375
                },
                {
                    "name": "G4",
                    "midi": 67,
                    "time": 163.78125,
                    "velocity": 0.4645669291338583,
                    "duration": 0.09375
                },
                {
                    "name": "A4",
                    "midi": 69,
                    "time": 163.875,
                    "velocity": 0.47244094488188976,
                    "duration": 0.09375
                },
                {
                    "name": "F#4",
                    "midi": 66,
                    "time": 163.96875,
                    "velocity": 0.44881889763779526,
                    "duration": 0.09375
                },
                {
                    "name": "G4",
                    "midi": 67,
                    "time": 164.0625,
                    "velocity": 0.47244094488188976,
                    "duration": 0.09375
                },
                {
                    "name": "E4",
                    "midi": 64,
                    "time": 164.15625,
                    "velocity": 0.4409448818897638,
                    "duration": 0.09375
                },
                {
                    "name": "D4",
                    "midi": 62,
                    "time": 164.25,
                    "velocity": 0.5354330708661418,
                    "duration": 0.375
                },
                {
                    "name": "G4",
                    "midi": 67,
                    "time": 165.00078125,
                    "velocity": 0.47244094488188976,
                    "duration": 0.28125
                },
                {
                    "name": "B4",
                    "midi": 71,
                    "time": 165.28125,
                    "velocity": 0.36220472440944884,
                    "duration": 0.046875
                },
                {
                    "name": "A4",
                    "midi": 69,
                    "time": 165.328125,
                    "velocity": 0.3700787401574803,
                    "duration": 0.046875
                },
                {
                    "name": "G4",
                    "midi": 67,
                    "time": 165.375,
                    "velocity": 0.4409448818897638,
                    "duration": 0.09375
                },
                {
                    "name": "D4",
                    "midi": 62,
                    "time": 165.46875,
                    "velocity": 0.3779527559055118,
                    "duration": 0.09375
                },
                {
                    "name": "B4",
                    "midi": 71,
                    "time": 165.5625,
                    "velocity": 0.3779527559055118,
                    "duration": 0.09375
                },
                {
                    "name": "A4",
                    "midi": 69,
                    "time": 165.65625,
                    "velocity": 0.3779527559055118,
                    "duration": 0.09375
                },
                {
                    "name": "G4",
                    "midi": 67,
                    "time": 165.75,
                    "velocity": 0.4409448818897638,
                    "duration": 0.09375
                },
                {
                    "name": "D4",
                    "midi": 62,
                    "time": 165.84375,
                    "velocity": 0.3779527559055118,
                    "duration": 0.09375
                },
                {
                    "name": "G4",
                    "midi": 67,
                    "time": 165.9375,
                    "velocity": 0.3779527559055118,
                    "duration": 0.09375
                },
                {
                    "name": "B4",
                    "midi": 71,
                    "time": 166.03125,
                    "velocity": 0.3779527559055118,
                    "duration": 0.09375
                },
                {
                    "name": "D5",
                    "midi": 74,
                    "time": 166.125,
                    "velocity": 0.4409448818897638,
                    "duration": 0.09375
                },
                {
                    "name": "B4",
                    "midi": 71,
                    "time": 166.21875,
                    "velocity": 0.4094488188976378,
                    "duration": 0.09375
                },
                {
                    "name": "A4",
                    "midi": 69,
                    "time": 166.3125,
                    "velocity": 0.4094488188976378,
                    "duration": 0.09375
                },
                {
                    "name": "G4",
                    "midi": 67,
                    "time": 166.40625,
                    "velocity": 0.4094488188976378,
                    "duration": 0.09375
                },
                {
                    "name": "B4",
                    "midi": 71,
                    "time": 166.5,
                    "velocity": 0.4645669291338583,
                    "duration": 0.09375
                },
                {
                    "name": "A4",
                    "midi": 69,
                    "time": 166.59375,
                    "velocity": 0.4094488188976378,
                    "duration": 0.09375
                },
                {
                    "name": "G4",
                    "midi": 67,
                    "time": 166.6875,
                    "velocity": 0.4094488188976378,
                    "duration": 0.09375
                },
                {
                    "name": "A4",
                    "midi": 69,
                    "time": 166.78125,
                    "velocity": 0.4094488188976378,
                    "duration": 0.09375
                },
                {
                    "name": "G4",
                    "midi": 67,
                    "time": 166.875,
                    "velocity": 0.4251968503937008,
                    "duration": 0.1875
                },
                {
                    "name": "E6",
                    "midi": 88,
                    "time": 167.0625,
                    "velocity": 0.36220472440944884,
                    "duration": 0.09375
                },
                {
                    "name": "E5",
                    "midi": 76,
                    "time": 167.15625,
                    "velocity": 0.3464566929133858,
                    "duration": 0.09375
                },
                {
                    "name": "E6",
                    "midi": 88,
                    "time": 167.25,
                    "velocity": 0.3700787401574803,
                    "duration": 0.09375
                },
                {
                    "name": "E5",
                    "midi": 76,
                    "time": 167.34375,
                    "velocity": 0.3464566929133858,
                    "duration": 0.09375
                },
                {
                    "name": "E6",
                    "midi": 88,
                    "time": 167.4375,
                    "velocity": 0.3858267716535433,
                    "duration": 0.09375
                },
                {
                    "name": "E5",
                    "midi": 76,
                    "time": 167.53125,
                    "velocity": 0.3543307086614173,
                    "duration": 0.09375
                },
                {
                    "name": "E6",
                    "midi": 88,
                    "time": 167.625,
                    "velocity": 0.4015748031496063,
                    "duration": 0.09375
                },
                {
                    "name": "E5",
                    "midi": 76,
                    "time": 167.71875,
                    "velocity": 0.36220472440944884,
                    "duration": 0.09375
                },
                {
                    "name": "E6",
                    "midi": 88,
                    "time": 167.8125,
                    "velocity": 0.4094488188976378,
                    "duration": 0.09375
                },
                {
                    "name": "E5",
                    "midi": 76,
                    "time": 167.90625,
                    "velocity": 0.3858267716535433,
                    "duration": 0.09375
                },
                {
                    "name": "E6",
                    "midi": 88,
                    "time": 168,
                    "velocity": 0.4251968503937008,
                    "duration": 0.234375
                },
                {
                    "name": "D6",
                    "midi": 86,
                    "time": 168.234375,
                    "velocity": 0.3779527559055118,
                    "duration": 0.046875
                },
                {
                    "name": "C6",
                    "midi": 84,
                    "time": 168.28125,
                    "velocity": 0.3779527559055118,
                    "duration": 0.046875
                },
                {
                    "name": "B5",
                    "midi": 83,
                    "time": 168.328125,
                    "velocity": 0.3700787401574803,
                    "duration": 0.046875
                },
                {
                    "name": "A5",
                    "midi": 81,
                    "time": 168.375,
                    "velocity": 0.3700787401574803,
                    "duration": 0.1875
                },
                {
                    "name": "D6",
                    "midi": 86,
                    "time": 168.5625,
                    "velocity": 0.36220472440944884,
                    "duration": 0.09375
                },
                {
                    "name": "D5",
                    "midi": 74,
                    "time": 168.65625,
                    "velocity": 0.3464566929133858,
                    "duration": 0.09375
                },
                {
                    "name": "D6",
                    "midi": 86,
                    "time": 168.75,
                    "velocity": 0.3700787401574803,
                    "duration": 0.09375
                },
                {
                    "name": "D5",
                    "midi": 74,
                    "time": 168.84375,
                    "velocity": 0.3464566929133858,
                    "duration": 0.09375
                },
                {
                    "name": "D6",
                    "midi": 86,
                    "time": 168.9375,
                    "velocity": 0.3858267716535433,
                    "duration": 0.09375
                },
                {
                    "name": "D5",
                    "midi": 74,
                    "time": 169.03125,
                    "velocity": 0.3543307086614173,
                    "duration": 0.09375
                },
                {
                    "name": "D6",
                    "midi": 86,
                    "time": 169.125,
                    "velocity": 0.4015748031496063,
                    "duration": 0.09375
                },
                {
                    "name": "D5",
                    "midi": 74,
                    "time": 169.21875,
                    "velocity": 0.36220472440944884,
                    "duration": 0.09375
                },
                {
                    "name": "D6",
                    "midi": 86,
                    "time": 169.3125,
                    "velocity": 0.4094488188976378,
                    "duration": 0.09375
                },
                {
                    "name": "D5",
                    "midi": 74,
                    "time": 169.40625,
                    "velocity": 0.3858267716535433,
                    "duration": 0.09375
                },
                {
                    "name": "D6",
                    "midi": 86,
                    "time": 169.5,
                    "velocity": 0.4251968503937008,
                    "duration": 0.234375
                },
                {
                    "name": "C6",
                    "midi": 84,
                    "time": 169.734375,
                    "velocity": 0.3779527559055118,
                    "duration": 0.046875
                },
                {
                    "name": "B5",
                    "midi": 83,
                    "time": 169.78125,
                    "velocity": 0.3779527559055118,
                    "duration": 0.046875
                },
                {
                    "name": "A5",
                    "midi": 81,
                    "time": 169.828125,
                    "velocity": 0.3700787401574803,
                    "duration": 0.046875
                },
                {
                    "name": "G5",
                    "midi": 79,
                    "time": 169.875,
                    "velocity": 0.3700787401574803,
                    "duration": 0.1875
                },
                {
                    "name": "D6",
                    "midi": 86,
                    "time": 171.5625,
                    "velocity": 0.30708661417322836,
                    "duration": 0.046875
                },
                {
                    "name": "C6",
                    "midi": 84,
                    "time": 171.609375,
                    "velocity": 0.30708661417322836,
                    "duration": 0.046875
                },
                {
                    "name": "B5",
                    "midi": 83,
                    "time": 171.65625,
                    "velocity": 0.30708661417322836,
                    "duration": 0.046875
                },
                {
                    "name": "A5",
                    "midi": 81,
                    "time": 171.703125,
                    "velocity": 0.30708661417322836,
                    "duration": 0.046875
                },
                {
                    "name": "G5",
                    "midi": 79,
                    "time": 171.75,
                    "velocity": 0.3700787401574803,
                    "duration": 0.09375
                },
                {
                    "name": "B5",
                    "midi": 83,
                    "time": 171.9375,
                    "velocity": 0.30708661417322836,
                    "duration": 0.046875
                },
                {
                    "name": "A5",
                    "midi": 81,
                    "time": 171.984375,
                    "velocity": 0.30708661417322836,
                    "duration": 0.046875
                },
                {
                    "name": "G5",
                    "midi": 79,
                    "time": 172.03125,
                    "velocity": 0.30708661417322836,
                    "duration": 0.046875
                },
                {
                    "name": "F#5",
                    "midi": 78,
                    "time": 172.078125,
                    "velocity": 0.30708661417322836,
                    "duration": 0.046875
                },
                {
                    "name": "E5",
                    "midi": 76,
                    "time": 172.125,
                    "velocity": 0.3937007874015748,
                    "duration": 0.09375
                },
                {
                    "name": "G5",
                    "midi": 79,
                    "time": 172.3125,
                    "velocity": 0.2992125984251969,
                    "duration": 0.046875
                },
                {
                    "name": "F#5",
                    "midi": 78,
                    "time": 172.359375,
                    "velocity": 0.2992125984251969,
                    "duration": 0.046875
                },
                {
                    "name": "E5",
                    "midi": 76,
                    "time": 172.40625,
                    "velocity": 0.2992125984251969,
                    "duration": 0.046875
                },
                {
                    "name": "D5",
                    "midi": 74,
                    "time": 172.453125,
                    "velocity": 0.2992125984251969,
                    "duration": 0.046875
                },
                {
                    "name": "C5",
                    "midi": 72,
                    "time": 172.5,
                    "velocity": 0.3937007874015748,
                    "duration": 0.375
                },
                {
                    "name": "G5",
                    "midi": 79,
                    "time": 173.0625,
                    "velocity": 0.4094488188976378,
                    "duration": 0.046875
                },
                {
                    "name": "F5",
                    "midi": 77,
                    "time": 173.109375,
                    "velocity": 0.4094488188976378,
                    "duration": 0.046875
                },
                {
                    "name": "D#5",
                    "midi": 75,
                    "time": 173.15625,
                    "velocity": 0.4094488188976378,
                    "duration": 0.046875
                },
                {
                    "name": "D5",
                    "midi": 74,
                    "time": 173.203125,
                    "velocity": 0.4094488188976378,
                    "duration": 0.046875
                },
                {
                    "name": "C5",
                    "midi": 72,
                    "time": 173.25,
                    "velocity": 0.49606299212598426,
                    "duration": 0.1875
                },
                {
                    "name": "B5",
                    "midi": 83,
                    "time": 173.4375,
                    "velocity": 0.49606299212598426,
                    "duration": 0.1875
                },
                {
                    "name": "C6",
                    "midi": 84,
                    "time": 173.625,
                    "velocity": 0.5590551181102362,
                    "duration": 0.1875
                },
                {
                    "name": "C6",
                    "midi": 84,
                    "time": 173.8125,
                    "velocity": 0.5196850393700787,
                    "duration": 0.1875
                },
                {
                    "name": "C6",
                    "midi": 84,
                    "time": 174,
                    "velocity": 0.5039370078740157,
                    "duration": 0.09375
                },
                {
                    "name": "B5",
                    "midi": 83,
                    "time": 174.09375,
                    "velocity": 0.44881889763779526,
                    "duration": 0.09375
                },
                {
                    "name": "C6",
                    "midi": 84,
                    "time": 174.1875,
                    "velocity": 0.44881889763779526,
                    "duration": 0.09375
                },
                {
                    "name": "A5",
                    "midi": 81,
                    "time": 174.28125,
                    "velocity": 0.44881889763779526,
                    "duration": 0.09375
                },
                {
                    "name": "B5",
                    "midi": 83,
                    "time": 174.375,
                    "velocity": 0.5039370078740157,
                    "duration": 0.09375
                },
                {
                    "name": "A5",
                    "midi": 81,
                    "time": 174.46875,
                    "velocity": 0.44881889763779526,
                    "duration": 0.09375
                },
                {
                    "name": "B5",
                    "midi": 83,
                    "time": 174.5625,
                    "velocity": 0.44881889763779526,
                    "duration": 0.09375
                },
                {
                    "name": "G5",
                    "midi": 79,
                    "time": 174.65625,
                    "velocity": 0.44881889763779526,
                    "duration": 0.09375
                },
                {
                    "name": "A5",
                    "midi": 81,
                    "time": 174.75,
                    "velocity": 0.49606299212598426,
                    "duration": 0.09375
                },
                {
                    "name": "G#5",
                    "midi": 80,
                    "time": 174.84375,
                    "velocity": 0.44881889763779526,
                    "duration": 0.09375
                },
                {
                    "name": "A5",
                    "midi": 81,
                    "time": 174.9375,
                    "velocity": 0.44881889763779526,
                    "duration": 0.09375
                },
                {
                    "name": "E5",
                    "midi": 76,
                    "time": 175.03125,
                    "velocity": 0.44881889763779526,
                    "duration": 0.09375
                },
                {
                    "name": "G5",
                    "midi": 79,
                    "time": 175.125,
                    "velocity": 0.49606299212598426,
                    "duration": 0.09375
                },
                {
                    "name": "F#5",
                    "midi": 78,
                    "time": 175.21875,
                    "velocity": 0.44881889763779526,
                    "duration": 0.09375
                },
                {
                    "name": "E5",
                    "midi": 76,
                    "time": 175.3125,
                    "velocity": 0.44881889763779526,
                    "duration": 0.09375
                },
                {
                    "name": "D5",
                    "midi": 74,
                    "time": 175.40625,
                    "velocity": 0.44881889763779526,
                    "duration": 0.09375
                },
                {
                    "name": "G5",
                    "midi": 79,
                    "time": 175.5,
                    "velocity": 0.5118110236220472,
                    "duration": 0.09375
                },
                {
                    "name": "D5",
                    "midi": 74,
                    "time": 175.59375,
                    "velocity": 0.4409448818897638,
                    "duration": 0.09375
                },
                {
                    "name": "G5",
                    "midi": 79,
                    "time": 175.6875,
                    "velocity": 0.4566929133858268,
                    "duration": 0.09375
                },
                {
                    "name": "B5",
                    "midi": 83,
                    "time": 175.78125,
                    "velocity": 0.48031496062992124,
                    "duration": 0.09375
                },
                {
                    "name": "D6",
                    "midi": 86,
                    "time": 175.875,
                    "velocity": 0.5354330708661418,
                    "duration": 0.09375
                },
                {
                    "name": "B5",
                    "midi": 83,
                    "time": 175.96875,
                    "velocity": 0.4881889763779528,
                    "duration": 0.09375
                },
                {
                    "name": "A5",
                    "midi": 81,
                    "time": 176.0625,
                    "velocity": 0.47244094488188976,
                    "duration": 0.09375
                },
                {
                    "name": "G5",
                    "midi": 79,
                    "time": 176.15625,
                    "velocity": 0.44881889763779526,
                    "duration": 0.09375
                },
                {
                    "name": "F#5",
                    "midi": 78,
                    "time": 176.25,
                    "velocity": 0.5039370078740157,
                    "duration": 0.09375
                },
                {
                    "name": "D5",
                    "midi": 74,
                    "time": 176.34375,
                    "velocity": 0.4409448818897638,
                    "duration": 0.09375
                },
                {
                    "name": "F#5",
                    "midi": 78,
                    "time": 176.4375,
                    "velocity": 0.4409448818897638,
                    "duration": 0.09375
                },
                {
                    "name": "A5",
                    "midi": 81,
                    "time": 176.53125,
                    "velocity": 0.4409448818897638,
                    "duration": 0.09375
                },
                {
                    "name": "C6",
                    "midi": 84,
                    "time": 176.625,
                    "velocity": 0.5039370078740157,
                    "duration": 0.09375
                },
                {
                    "name": "A5",
                    "midi": 81,
                    "time": 176.71875,
                    "velocity": 0.44881889763779526,
                    "duration": 0.09375
                },
                {
                    "name": "G5",
                    "midi": 79,
                    "time": 176.8125,
                    "velocity": 0.44881889763779526,
                    "duration": 0.09375
                },
                {
                    "name": "F#5",
                    "midi": 78,
                    "time": 176.90625,
                    "velocity": 0.44881889763779526,
                    "duration": 0.09375
                },
                {
                    "name": "G5",
                    "midi": 79,
                    "time": 177,
                    "velocity": 0.5118110236220472,
                    "duration": 0.09375
                },
                {
                    "name": "D5",
                    "midi": 74,
                    "time": 177.09375,
                    "velocity": 0.4409448818897638,
                    "duration": 0.09375
                },
                {
                    "name": "G5",
                    "midi": 79,
                    "time": 177.1875,
                    "velocity": 0.4566929133858268,
                    "duration": 0.09375
                },
                {
                    "name": "B5",
                    "midi": 83,
                    "time": 177.28125,
                    "velocity": 0.48031496062992124,
                    "duration": 0.09375
                },
                {
                    "name": "D6",
                    "midi": 86,
                    "time": 177.375,
                    "velocity": 0.5354330708661418,
                    "duration": 0.09375
                },
                {
                    "name": "B5",
                    "midi": 83,
                    "time": 177.46875,
                    "velocity": 0.4881889763779528,
                    "duration": 0.09375
                },
                {
                    "name": "A5",
                    "midi": 81,
                    "time": 177.5625,
                    "velocity": 0.47244094488188976,
                    "duration": 0.09375
                },
                {
                    "name": "G5",
                    "midi": 79,
                    "time": 177.65625,
                    "velocity": 0.44881889763779526,
                    "duration": 0.09375
                },
                {
                    "name": "F#5",
                    "midi": 78,
                    "time": 177.75,
                    "velocity": 0.5039370078740157,
                    "duration": 0.09375
                },
                {
                    "name": "D5",
                    "midi": 74,
                    "time": 177.84375,
                    "velocity": 0.4409448818897638,
                    "duration": 0.09375
                },
                {
                    "name": "F#5",
                    "midi": 78,
                    "time": 177.9375,
                    "velocity": 0.4409448818897638,
                    "duration": 0.09375
                },
                {
                    "name": "A5",
                    "midi": 81,
                    "time": 178.03125,
                    "velocity": 0.4409448818897638,
                    "duration": 0.09375
                },
                {
                    "name": "C6",
                    "midi": 84,
                    "time": 178.125,
                    "velocity": 0.5039370078740157,
                    "duration": 0.09375
                },
                {
                    "name": "A5",
                    "midi": 81,
                    "time": 178.21875,
                    "velocity": 0.44881889763779526,
                    "duration": 0.09375
                },
                {
                    "name": "G5",
                    "midi": 79,
                    "time": 178.3125,
                    "velocity": 0.44881889763779526,
                    "duration": 0.09375
                },
                {
                    "name": "F#5",
                    "midi": 78,
                    "time": 178.40625,
                    "velocity": 0.44881889763779526,
                    "duration": 0.09375
                },
                {
                    "name": "G5",
                    "midi": 79,
                    "time": 178.5,
                    "velocity": 0.5118110236220472,
                    "duration": 0.09375
                },
                {
                    "name": "B5",
                    "midi": 83,
                    "time": 178.59375,
                    "velocity": 0.4645669291338583,
                    "duration": 0.09375
                },
                {
                    "name": "G5",
                    "midi": 79,
                    "time": 178.6875,
                    "velocity": 0.4645669291338583,
                    "duration": 0.09375
                },
                {
                    "name": "D5",
                    "midi": 74,
                    "time": 178.78125,
                    "velocity": 0.4645669291338583,
                    "duration": 0.09375
                },
                {
                    "name": "B4",
                    "midi": 71,
                    "time": 178.875,
                    "velocity": 0.5118110236220472,
                    "duration": 0.09375
                }
            ],
            "controlChanges": {
                "7": [
                    {
                        "number": 7,
                        "time": 0,
                        "value": 0.7874015748031497
                    }
                ],
                "10": [
                    {
                        "number": 10,
                        "time": 0,
                        "value": 0.5039370078740157
                    }
                ],
                "91": [
                    {
                        "number": 91,
                        "time": 6,
                        "value": 1
                    },
                    {
                        "number": 91,
                        "time": 15,
                        "value": 1
                    },
                    {
                        "number": 91,
                        "time": 21,
                        "value": 1
                    },
                    {
                        "number": 91,
                        "time": 36,
                        "value": 1
                    },
                    {
                        "number": 91,
                        "time": 57,
                        "value": 1
                    },
                    {
                        "number": 91,
                        "time": 108,
                        "value": 1
                    },
                    {
                        "number": 91,
                        "time": 114,
                        "value": 1
                    },
                    {
                        "number": 91,
                        "time": 123,
                        "value": 1
                    },
                    {
                        "number": 91,
                        "time": 129,
                        "value": 1
                    },
                    {
                        "number": 91,
                        "time": 144,
                        "value": 1
                    },
                    {
                        "number": 91,
                        "time": 165,
                        "value": 1
                    }
                ]
            },
            "id": 1,
            "name": "Piano right",
            "instrumentNumber": 0,
            "instrument": "acoustic grand piano",
            "instrumentFamily": "piano",
            "channelNumber": 0,
            "isPercussion": false
        },
        {
            "startTime": 0.00078125,
            "duration": 179.4375,
            "length": 1141,
            "notes": [
                {
                    "name": "B3",
                    "midi": 59,
                    "time": 0.00078125,
                    "velocity": 0.31496062992125984,
                    "duration": 0.1875
                },
                {
                    "name": "G3",
                    "midi": 55,
                    "time": 0.00078125,
                    "velocity": 0.2677165354330709,
                    "duration": 0.1875
                },
                {
                    "name": "G3",
                    "midi": 55,
                    "time": 0.1875,
                    "velocity": 0.2677165354330709,
                    "duration": 0.1875
                },
                {
                    "name": "B3",
                    "midi": 59,
                    "time": 0.1875,
                    "velocity": 0.31496062992125984,
                    "duration": 0.1875
                },
                {
                    "name": "B3",
                    "midi": 59,
                    "time": 0.375,
                    "velocity": 0.31496062992125984,
                    "duration": 0.1875
                },
                {
                    "name": "G3",
                    "midi": 55,
                    "time": 0.375,
                    "velocity": 0.2677165354330709,
                    "duration": 0.1875
                },
                {
                    "name": "B3",
                    "midi": 59,
                    "time": 0.5625,
                    "velocity": 0.30708661417322836,
                    "duration": 0.1875
                },
                {
                    "name": "G3",
                    "midi": 55,
                    "time": 0.5625,
                    "velocity": 0.25984251968503935,
                    "duration": 0.1875
                },
                {
                    "name": "B3",
                    "midi": 59,
                    "time": 0.75,
                    "velocity": 0.31496062992125984,
                    "duration": 0.1875
                },
                {
                    "name": "G3",
                    "midi": 55,
                    "time": 0.75,
                    "velocity": 0.2677165354330709,
                    "duration": 0.1875
                },
                {
                    "name": "B3",
                    "midi": 59,
                    "time": 0.9375,
                    "velocity": 0.3228346456692913,
                    "duration": 0.1875
                },
                {
                    "name": "G3",
                    "midi": 55,
                    "time": 0.9375,
                    "velocity": 0.2677165354330709,
                    "duration": 0.1875
                },
                {
                    "name": "B3",
                    "midi": 59,
                    "time": 1.125,
                    "velocity": 0.3228346456692913,
                    "duration": 0.1875
                },
                {
                    "name": "G3",
                    "midi": 55,
                    "time": 1.125,
                    "velocity": 0.2677165354330709,
                    "duration": 0.1875
                },
                {
                    "name": "B3",
                    "midi": 59,
                    "time": 1.3125,
                    "velocity": 0.3228346456692913,
                    "duration": 0.1875
                },
                {
                    "name": "G3",
                    "midi": 55,
                    "time": 1.3125,
                    "velocity": 0.2677165354330709,
                    "duration": 0.1875
                },
                {
                    "name": "C4",
                    "midi": 60,
                    "time": 1.5,
                    "velocity": 0.3464566929133858,
                    "duration": 0.375
                },
                {
                    "name": "G3",
                    "midi": 55,
                    "time": 1.5,
                    "velocity": 0.29133858267716534,
                    "duration": 0.375
                },
                {
                    "name": "G3",
                    "midi": 55,
                    "time": 1.875,
                    "velocity": 0.2677165354330709,
                    "duration": 0.1875
                },
                {
                    "name": "B3",
                    "midi": 59,
                    "time": 1.875,
                    "velocity": 0.3228346456692913,
                    "duration": 0.1875
                },
                {
                    "name": "F4",
                    "midi": 65,
                    "time": 2.25,
                    "velocity": 0.3228346456692913,
                    "duration": 0.09375
                },
                {
                    "name": "G4",
                    "midi": 67,
                    "time": 2.25,
                    "velocity": 0.3228346456692913,
                    "duration": 0.09375
                },
                {
                    "name": "F4",
                    "midi": 65,
                    "time": 2.4375,
                    "velocity": 0.3228346456692913,
                    "duration": 0.09375
                },
                {
                    "name": "G4",
                    "midi": 67,
                    "time": 2.4375,
                    "velocity": 0.3228346456692913,
                    "duration": 0.09375
                },
                {
                    "name": "G4",
                    "midi": 67,
                    "time": 2.625,
                    "velocity": 0.3228346456692913,
                    "duration": 0.09375
                },
                {
                    "name": "F4",
                    "midi": 65,
                    "time": 2.625,
                    "velocity": 0.3228346456692913,
                    "duration": 0.09375
                },
                {
                    "name": "F4",
                    "midi": 65,
                    "time": 2.8125,
                    "velocity": 0.3228346456692913,
                    "duration": 0.09375
                },
                {
                    "name": "G4",
                    "midi": 67,
                    "time": 2.8125,
                    "velocity": 0.3228346456692913,
                    "duration": 0.09375
                },
                {
                    "name": "G4",
                    "midi": 67,
                    "time": 3,
                    "velocity": 0.36220472440944884,
                    "duration": 0.5625
                },
                {
                    "name": "E4",
                    "midi": 64,
                    "time": 3,
                    "velocity": 0.36220472440944884,
                    "duration": 0.5625
                },
                {
                    "name": "F4",
                    "midi": 65,
                    "time": 3.5625,
                    "velocity": 0.3228346456692913,
                    "duration": 0.1875
                },
                {
                    "name": "D4",
                    "midi": 62,
                    "time": 3.5625,
                    "velocity": 0.3228346456692913,
                    "duration": 0.1875
                },
                {
                    "name": "E4",
                    "midi": 64,
                    "time": 3.75,
                    "velocity": 0.3858267716535433,
                    "duration": 0.375
                },
                {
                    "name": "C4",
                    "midi": 60,
                    "time": 3.75,
                    "velocity": 0.3858267716535433,
                    "duration": 0.375
                },
                {
                    "name": "C#4",
                    "midi": 61,
                    "time": 4.125,
                    "velocity": 0.3937007874015748,
                    "duration": 0.375
                },
                {
                    "name": "E4",
                    "midi": 64,
                    "time": 4.125,
                    "velocity": 0.3937007874015748,
                    "duration": 0.375
                },
                {
                    "name": "D4",
                    "midi": 62,
                    "time": 4.5,
                    "velocity": 0.36220472440944884,
                    "duration": 0.375
                },
                {
                    "name": "G3",
                    "midi": 55,
                    "time": 6.00078125,
                    "velocity": 0.2677165354330709,
                    "duration": 0.1875
                },
                {
                    "name": "B3",
                    "midi": 59,
                    "time": 6.00078125,
                    "velocity": 0.31496062992125984,
                    "duration": 0.1875
                },
                {
                    "name": "B3",
                    "midi": 59,
                    "time": 6.1875,
                    "velocity": 0.31496062992125984,
                    "duration": 0.1875
                },
                {
                    "name": "G3",
                    "midi": 55,
                    "time": 6.1875,
                    "velocity": 0.2677165354330709,
                    "duration": 0.1875
                },
                {
                    "name": "G3",
                    "midi": 55,
                    "time": 6.375,
                    "velocity": 0.2677165354330709,
                    "duration": 0.1875
                },
                {
                    "name": "B3",
                    "midi": 59,
                    "time": 6.375,
                    "velocity": 0.31496062992125984,
                    "duration": 0.1875
                },
                {
                    "name": "G3",
                    "midi": 55,
                    "time": 6.5625,
                    "velocity": 0.25984251968503935,
                    "duration": 0.1875
                },
                {
                    "name": "B3",
                    "midi": 59,
                    "time": 6.5625,
                    "velocity": 0.30708661417322836,
                    "duration": 0.1875
                },
                {
                    "name": "G3",
                    "midi": 55,
                    "time": 6.75,
                    "velocity": 0.2677165354330709,
                    "duration": 0.1875
                },
                {
                    "name": "B3",
                    "midi": 59,
                    "time": 6.75,
                    "velocity": 0.31496062992125984,
                    "duration": 0.1875
                },
                {
                    "name": "B3",
                    "midi": 59,
                    "time": 6.9375,
                    "velocity": 0.3228346456692913,
                    "duration": 0.1875
                },
                {
                    "name": "G3",
                    "midi": 55,
                    "time": 6.9375,
                    "velocity": 0.2677165354330709,
                    "duration": 0.1875
                },
                {
                    "name": "G3",
                    "midi": 55,
                    "time": 7.125,
                    "velocity": 0.2677165354330709,
                    "duration": 0.1875
                },
                {
                    "name": "B3",
                    "midi": 59,
                    "time": 7.125,
                    "velocity": 0.3228346456692913,
                    "duration": 0.1875
                },
                {
                    "name": "G3",
                    "midi": 55,
                    "time": 7.3125,
                    "velocity": 0.2677165354330709,
                    "duration": 0.1875
                },
                {
                    "name": "B3",
                    "midi": 59,
                    "time": 7.3125,
                    "velocity": 0.3228346456692913,
                    "duration": 0.1875
                },
                {
                    "name": "C4",
                    "midi": 60,
                    "time": 7.5,
                    "velocity": 0.3464566929133858,
                    "duration": 0.375
                },
                {
                    "name": "G3",
                    "midi": 55,
                    "time": 7.5,
                    "velocity": 0.3464566929133858,
                    "duration": 0.375
                },
                {
                    "name": "B3",
                    "midi": 59,
                    "time": 7.875,
                    "velocity": 0.3228346456692913,
                    "duration": 0.1875
                },
                {
                    "name": "G3",
                    "midi": 55,
                    "time": 7.875,
                    "velocity": 0.3228346456692913,
                    "duration": 0.1875
                },
                {
                    "name": "B4",
                    "midi": 71,
                    "time": 8.25,
                    "velocity": 0.3228346456692913,
                    "duration": 0.09375
                },
                {
                    "name": "G4",
                    "midi": 67,
                    "time": 8.25,
                    "velocity": 0.3228346456692913,
                    "duration": 0.09375
                },
                {
                    "name": "B4",
                    "midi": 71,
                    "time": 8.4375,
                    "velocity": 0.3228346456692913,
                    "duration": 0.09375
                },
                {
                    "name": "G4",
                    "midi": 67,
                    "time": 8.4375,
                    "velocity": 0.3228346456692913,
                    "duration": 0.09375
                },
                {
                    "name": "B4",
                    "midi": 71,
                    "time": 8.625,
                    "velocity": 0.3228346456692913,
                    "duration": 0.09375
                },
                {
                    "name": "G4",
                    "midi": 67,
                    "time": 8.625,
                    "velocity": 0.3228346456692913,
                    "duration": 0.09375
                },
                {
                    "name": "G4",
                    "midi": 67,
                    "time": 8.8125,
                    "velocity": 0.3228346456692913,
                    "duration": 0.09375
                },
                {
                    "name": "B4",
                    "midi": 71,
                    "time": 8.8125,
                    "velocity": 0.3228346456692913,
                    "duration": 0.09375
                },
                {
                    "name": "G4",
                    "midi": 67,
                    "time": 9,
                    "velocity": 0.30708661417322836,
                    "duration": 0.1875
                },
                {
                    "name": "B4",
                    "midi": 71,
                    "time": 9,
                    "velocity": 0.36220472440944884,
                    "duration": 0.1875
                },
                {
                    "name": "G4",
                    "midi": 67,
                    "time": 9.1875,
                    "velocity": 0.30708661417322836,
                    "duration": 0.1875
                },
                {
                    "name": "B4",
                    "midi": 71,
                    "time": 9.1875,
                    "velocity": 0.36220472440944884,
                    "duration": 0.1875
                },
                {
                    "name": "B4",
                    "midi": 71,
                    "time": 9.375,
                    "velocity": 0.36220472440944884,
                    "duration": 0.1875
                },
                {
                    "name": "G4",
                    "midi": 67,
                    "time": 9.375,
                    "velocity": 0.30708661417322836,
                    "duration": 0.1875
                },
                {
                    "name": "B4",
                    "midi": 71,
                    "time": 9.5625,
                    "velocity": 0.36220472440944884,
                    "duration": 0.1875
                },
                {
                    "name": "G4",
                    "midi": 67,
                    "time": 9.5625,
                    "velocity": 0.30708661417322836,
                    "duration": 0.1875
                },
                {
                    "name": "A3",
                    "midi": 57,
                    "time": 9.75,
                    "velocity": 0.30708661417322836,
                    "duration": 0.1875
                },
                {
                    "name": "F#4",
                    "midi": 66,
                    "time": 9.75,
                    "velocity": 0.36220472440944884,
                    "duration": 0.1875
                },
                {
                    "name": "A3",
                    "midi": 57,
                    "time": 9.9375,
                    "velocity": 0.30708661417322836,
                    "duration": 0.1875
                },
                {
                    "name": "F#4",
                    "midi": 66,
                    "time": 9.9375,
                    "velocity": 0.36220472440944884,
                    "duration": 0.1875
                },
                {
                    "name": "A3",
                    "midi": 57,
                    "time": 10.125,
                    "velocity": 0.30708661417322836,
                    "duration": 0.1875
                },
                {
                    "name": "E4",
                    "midi": 64,
                    "time": 10.125,
                    "velocity": 0.36220472440944884,
                    "duration": 0.1875
                },
                {
                    "name": "E4",
                    "midi": 64,
                    "time": 10.3125,
                    "velocity": 0.36220472440944884,
                    "duration": 0.1875
                },
                {
                    "name": "A3",
                    "midi": 57,
                    "time": 10.3125,
                    "velocity": 0.30708661417322836,
                    "duration": 0.1875
                },
                {
                    "name": "D4",
                    "midi": 62,
                    "time": 10.5,
                    "velocity": 0.29133858267716534,
                    "duration": 0.1875
                },
                {
                    "name": "F#4",
                    "midi": 66,
                    "time": 10.5,
                    "velocity": 0.3464566929133858,
                    "duration": 0.1875
                },
                {
                    "name": "D4",
                    "midi": 62,
                    "time": 10.6875,
                    "velocity": 0.25196850393700787,
                    "duration": 0.1875
                },
                {
                    "name": "F#4",
                    "midi": 66,
                    "time": 10.6875,
                    "velocity": 0.2992125984251969,
                    "duration": 0.1875
                },
                {
                    "name": "F#4",
                    "midi": 66,
                    "time": 10.875,
                    "velocity": 0.2992125984251969,
                    "duration": 0.1875
                },
                {
                    "name": "D4",
                    "midi": 62,
                    "time": 10.875,
                    "velocity": 0.25196850393700787,
                    "duration": 0.1875
                },
                {
                    "name": "D4",
                    "midi": 62,
                    "time": 11.0625,
                    "velocity": 0.25196850393700787,
                    "duration": 0.1875
                },
                {
                    "name": "F#4",
                    "midi": 66,
                    "time": 11.0625,
                    "velocity": 0.2992125984251969,
                    "duration": 0.1875
                },
                {
                    "name": "D4",
                    "midi": 62,
                    "time": 11.25,
                    "velocity": 0.28346456692913385,
                    "duration": 0.1875
                },
                {
                    "name": "G4",
                    "midi": 67,
                    "time": 11.25,
                    "velocity": 0.33858267716535434,
                    "duration": 0.1875
                },
                {
                    "name": "D4",
                    "midi": 62,
                    "time": 11.4375,
                    "velocity": 0.25196850393700787,
                    "duration": 0.1875
                },
                {
                    "name": "G4",
                    "midi": 67,
                    "time": 11.4375,
                    "velocity": 0.2992125984251969,
                    "duration": 0.1875
                },
                {
                    "name": "D4",
                    "midi": 62,
                    "time": 11.625,
                    "velocity": 0.25196850393700787,
                    "duration": 0.1875
                },
                {
                    "name": "G4",
                    "midi": 67,
                    "time": 11.625,
                    "velocity": 0.2992125984251969,
                    "duration": 0.1875
                },
                {
                    "name": "G4",
                    "midi": 67,
                    "time": 11.8125,
                    "velocity": 0.2992125984251969,
                    "duration": 0.1875
                },
                {
                    "name": "D4",
                    "midi": 62,
                    "time": 11.8125,
                    "velocity": 0.25196850393700787,
                    "duration": 0.1875
                },
                {
                    "name": "F#4",
                    "midi": 66,
                    "time": 12,
                    "velocity": 0.3464566929133858,
                    "duration": 0.1875
                },
                {
                    "name": "D4",
                    "midi": 62,
                    "time": 12,
                    "velocity": 0.29133858267716534,
                    "duration": 0.1875
                },
                {
                    "name": "F#4",
                    "midi": 66,
                    "time": 12.1875,
                    "velocity": 0.2992125984251969,
                    "duration": 0.1875
                },
                {
                    "name": "D4",
                    "midi": 62,
                    "time": 12.1875,
                    "velocity": 0.25196850393700787,
                    "duration": 0.1875
                },
                {
                    "name": "F#4",
                    "midi": 66,
                    "time": 12.375,
                    "velocity": 0.2992125984251969,
                    "duration": 0.1875
                },
                {
                    "name": "D4",
                    "midi": 62,
                    "time": 12.375,
                    "velocity": 0.25196850393700787,
                    "duration": 0.1875
                },
                {
                    "name": "F#4",
                    "midi": 66,
                    "time": 12.5625,
                    "velocity": 0.2992125984251969,
                    "duration": 0.1875
                },
                {
                    "name": "D4",
                    "midi": 62,
                    "time": 12.5625,
                    "velocity": 0.25196850393700787,
                    "duration": 0.1875
                },
                {
                    "name": "G4",
                    "midi": 67,
                    "time": 12.75,
                    "velocity": 0.3464566929133858,
                    "duration": 0.1875
                },
                {
                    "name": "D4",
                    "midi": 62,
                    "time": 12.75,
                    "velocity": 0.29133858267716534,
                    "duration": 0.1875
                },
                {
                    "name": "G4",
                    "midi": 67,
                    "time": 12.9375,
                    "velocity": 0.2992125984251969,
                    "duration": 0.1875
                },
                {
                    "name": "D4",
                    "midi": 62,
                    "time": 12.9375,
                    "velocity": 0.25196850393700787,
                    "duration": 0.1875
                },
                {
                    "name": "G4",
                    "midi": 67,
                    "time": 13.125,
                    "velocity": 0.2992125984251969,
                    "duration": 0.1875
                },
                {
                    "name": "D4",
                    "midi": 62,
                    "time": 13.125,
                    "velocity": 0.25196850393700787,
                    "duration": 0.1875
                },
                {
                    "name": "G4",
                    "midi": 67,
                    "time": 13.3125,
                    "velocity": 0.2992125984251969,
                    "duration": 0.1875
                },
                {
                    "name": "D4",
                    "midi": 62,
                    "time": 13.3125,
                    "velocity": 0.25196850393700787,
                    "duration": 0.1875
                },
                {
                    "name": "F#4",
                    "midi": 66,
                    "time": 13.5,
                    "velocity": 0.3543307086614173,
                    "duration": 0.375
                },
                {
                    "name": "D4",
                    "midi": 62,
                    "time": 13.5,
                    "velocity": 0.2992125984251969,
                    "duration": 0.375
                },
                {
                    "name": "D2",
                    "midi": 38,
                    "time": 14.25,
                    "velocity": 0.5433070866141733,
                    "duration": 0.375
                },
                {
                    "name": "D3",
                    "midi": 50,
                    "time": 14.25,
                    "velocity": 0.5433070866141733,
                    "duration": 0.375
                },
                {
                    "name": "G3",
                    "midi": 55,
                    "time": 15.00078125,
                    "velocity": 0.2677165354330709,
                    "duration": 0.1875
                },
                {
                    "name": "B3",
                    "midi": 59,
                    "time": 15.00078125,
                    "velocity": 0.31496062992125984,
                    "duration": 0.1875
                },
                {
                    "name": "G3",
                    "midi": 55,
                    "time": 15.1875,
                    "velocity": 0.2677165354330709,
                    "duration": 0.1875
                },
                {
                    "name": "B3",
                    "midi": 59,
                    "time": 15.1875,
                    "velocity": 0.31496062992125984,
                    "duration": 0.1875
                },
                {
                    "name": "G3",
                    "midi": 55,
                    "time": 15.375,
                    "velocity": 0.2677165354330709,
                    "duration": 0.1875
                },
                {
                    "name": "B3",
                    "midi": 59,
                    "time": 15.375,
                    "velocity": 0.31496062992125984,
                    "duration": 0.1875
                },
                {
                    "name": "G3",
                    "midi": 55,
                    "time": 15.5625,
                    "velocity": 0.25984251968503935,
                    "duration": 0.1875
                },
                {
                    "name": "B3",
                    "midi": 59,
                    "time": 15.5625,
                    "velocity": 0.30708661417322836,
                    "duration": 0.1875
                },
                {
                    "name": "G3",
                    "midi": 55,
                    "time": 15.75,
                    "velocity": 0.2677165354330709,
                    "duration": 0.1875
                },
                {
                    "name": "B3",
                    "midi": 59,
                    "time": 15.75,
                    "velocity": 0.31496062992125984,
                    "duration": 0.1875
                },
                {
                    "name": "G3",
                    "midi": 55,
                    "time": 15.9375,
                    "velocity": 0.2677165354330709,
                    "duration": 0.1875
                },
                {
                    "name": "B3",
                    "midi": 59,
                    "time": 15.9375,
                    "velocity": 0.3228346456692913,
                    "duration": 0.1875
                },
                {
                    "name": "G3",
                    "midi": 55,
                    "time": 16.125,
                    "velocity": 0.2677165354330709,
                    "duration": 0.1875
                },
                {
                    "name": "B3",
                    "midi": 59,
                    "time": 16.125,
                    "velocity": 0.3228346456692913,
                    "duration": 0.1875
                },
                {
                    "name": "G3",
                    "midi": 55,
                    "time": 16.3125,
                    "velocity": 0.2677165354330709,
                    "duration": 0.1875
                },
                {
                    "name": "B3",
                    "midi": 59,
                    "time": 16.3125,
                    "velocity": 0.3228346456692913,
                    "duration": 0.1875
                },
                {
                    "name": "G3",
                    "midi": 55,
                    "time": 16.5,
                    "velocity": 0.29133858267716534,
                    "duration": 0.375
                },
                {
                    "name": "C4",
                    "midi": 60,
                    "time": 16.5,
                    "velocity": 0.3464566929133858,
                    "duration": 0.375
                },
                {
                    "name": "G3",
                    "midi": 55,
                    "time": 16.875,
                    "velocity": 0.2677165354330709,
                    "duration": 0.1875
                },
                {
                    "name": "B3",
                    "midi": 59,
                    "time": 16.875,
                    "velocity": 0.3228346456692913,
                    "duration": 0.1875
                },
                {
                    "name": "F4",
                    "midi": 65,
                    "time": 17.25,
                    "velocity": 0.3228346456692913,
                    "duration": 0.09375
                },
                {
                    "name": "G4",
                    "midi": 67,
                    "time": 17.25,
                    "velocity": 0.3228346456692913,
                    "duration": 0.09375
                },
                {
                    "name": "F4",
                    "midi": 65,
                    "time": 17.4375,
                    "velocity": 0.3228346456692913,
                    "duration": 0.09375
                },
                {
                    "name": "G4",
                    "midi": 67,
                    "time": 17.4375,
                    "velocity": 0.3228346456692913,
                    "duration": 0.09375
                },
                {
                    "name": "F4",
                    "midi": 65,
                    "time": 17.625,
                    "velocity": 0.3228346456692913,
                    "duration": 0.09375
                },
                {
                    "name": "G4",
                    "midi": 67,
                    "time": 17.625,
                    "velocity": 0.3228346456692913,
                    "duration": 0.09375
                },
                {
                    "name": "G4",
                    "midi": 67,
                    "time": 17.8125,
                    "velocity": 0.3228346456692913,
                    "duration": 0.09375
                },
                {
                    "name": "F4",
                    "midi": 65,
                    "time": 17.8125,
                    "velocity": 0.3228346456692913,
                    "duration": 0.09375
                },
                {
                    "name": "E4",
                    "midi": 64,
                    "time": 18,
                    "velocity": 0.36220472440944884,
                    "duration": 0.5625
                },
                {
                    "name": "G4",
                    "midi": 67,
                    "time": 18,
                    "velocity": 0.36220472440944884,
                    "duration": 0.5625
                },
                {
                    "name": "D4",
                    "midi": 62,
                    "time": 18.5625,
                    "velocity": 0.3228346456692913,
                    "duration": 0.1875
                },
                {
                    "name": "F4",
                    "midi": 65,
                    "time": 18.5625,
                    "velocity": 0.3228346456692913,
                    "duration": 0.1875
                },
                {
                    "name": "C4",
                    "midi": 60,
                    "time": 18.75,
                    "velocity": 0.3858267716535433,
                    "duration": 0.375
                },
                {
                    "name": "E4",
                    "midi": 64,
                    "time": 18.75,
                    "velocity": 0.3858267716535433,
                    "duration": 0.375
                },
                {
                    "name": "C#4",
                    "midi": 61,
                    "time": 19.125,
                    "velocity": 0.3937007874015748,
                    "duration": 0.375
                },
                {
                    "name": "E4",
                    "midi": 64,
                    "time": 19.125,
                    "velocity": 0.3937007874015748,
                    "duration": 0.375
                },
                {
                    "name": "D4",
                    "midi": 62,
                    "time": 19.5,
                    "velocity": 0.36220472440944884,
                    "duration": 0.375
                },
                {
                    "name": "G3",
                    "midi": 55,
                    "time": 21.00078125,
                    "velocity": 0.2677165354330709,
                    "duration": 0.1875
                },
                {
                    "name": "B3",
                    "midi": 59,
                    "time": 21.00078125,
                    "velocity": 0.31496062992125984,
                    "duration": 0.1875
                },
                {
                    "name": "G3",
                    "midi": 55,
                    "time": 21.1875,
                    "velocity": 0.2677165354330709,
                    "duration": 0.1875
                },
                {
                    "name": "B3",
                    "midi": 59,
                    "time": 21.1875,
                    "velocity": 0.31496062992125984,
                    "duration": 0.1875
                },
                {
                    "name": "G3",
                    "midi": 55,
                    "time": 21.375,
                    "velocity": 0.2677165354330709,
                    "duration": 0.1875
                },
                {
                    "name": "B3",
                    "midi": 59,
                    "time": 21.375,
                    "velocity": 0.31496062992125984,
                    "duration": 0.1875
                },
                {
                    "name": "G3",
                    "midi": 55,
                    "time": 21.5625,
                    "velocity": 0.25984251968503935,
                    "duration": 0.1875
                },
                {
                    "name": "B3",
                    "midi": 59,
                    "time": 21.5625,
                    "velocity": 0.30708661417322836,
                    "duration": 0.1875
                },
                {
                    "name": "G3",
                    "midi": 55,
                    "time": 21.75,
                    "velocity": 0.2677165354330709,
                    "duration": 0.1875
                },
                {
                    "name": "B3",
                    "midi": 59,
                    "time": 21.75,
                    "velocity": 0.31496062992125984,
                    "duration": 0.1875
                },
                {
                    "name": "G3",
                    "midi": 55,
                    "time": 21.9375,
                    "velocity": 0.2677165354330709,
                    "duration": 0.1875
                },
                {
                    "name": "B3",
                    "midi": 59,
                    "time": 21.9375,
                    "velocity": 0.3228346456692913,
                    "duration": 0.1875
                },
                {
                    "name": "G3",
                    "midi": 55,
                    "time": 22.125,
                    "velocity": 0.2677165354330709,
                    "duration": 0.1875
                },
                {
                    "name": "B3",
                    "midi": 59,
                    "time": 22.125,
                    "velocity": 0.3228346456692913,
                    "duration": 0.1875
                },
                {
                    "name": "G3",
                    "midi": 55,
                    "time": 22.3125,
                    "velocity": 0.2677165354330709,
                    "duration": 0.1875
                },
                {
                    "name": "B3",
                    "midi": 59,
                    "time": 22.3125,
                    "velocity": 0.3228346456692913,
                    "duration": 0.1875
                },
                {
                    "name": "G3",
                    "midi": 55,
                    "time": 22.5,
                    "velocity": 0.29133858267716534,
                    "duration": 0.375
                },
                {
                    "name": "C4",
                    "midi": 60,
                    "time": 22.5,
                    "velocity": 0.3464566929133858,
                    "duration": 0.375
                },
                {
                    "name": "G3",
                    "midi": 55,
                    "time": 22.875,
                    "velocity": 0.2677165354330709,
                    "duration": 0.1875
                },
                {
                    "name": "B3",
                    "midi": 59,
                    "time": 22.875,
                    "velocity": 0.3228346456692913,
                    "duration": 0.1875
                },
                {
                    "name": "B4",
                    "midi": 71,
                    "time": 23.25,
                    "velocity": 0.3228346456692913,
                    "duration": 0.09375
                },
                {
                    "name": "G4",
                    "midi": 67,
                    "time": 23.25,
                    "velocity": 0.3228346456692913,
                    "duration": 0.09375
                },
                {
                    "name": "B4",
                    "midi": 71,
                    "time": 23.4375,
                    "velocity": 0.3228346456692913,
                    "duration": 0.09375
                },
                {
                    "name": "G4",
                    "midi": 67,
                    "time": 23.4375,
                    "velocity": 0.3228346456692913,
                    "duration": 0.09375
                },
                {
                    "name": "B4",
                    "midi": 71,
                    "time": 23.625,
                    "velocity": 0.3228346456692913,
                    "duration": 0.09375
                },
                {
                    "name": "G4",
                    "midi": 67,
                    "time": 23.625,
                    "velocity": 0.3228346456692913,
                    "duration": 0.09375
                },
                {
                    "name": "G4",
                    "midi": 67,
                    "time": 23.8125,
                    "velocity": 0.3228346456692913,
                    "duration": 0.09375
                },
                {
                    "name": "B4",
                    "midi": 71,
                    "time": 23.8125,
                    "velocity": 0.3228346456692913,
                    "duration": 0.09375
                },
                {
                    "name": "B4",
                    "midi": 71,
                    "time": 24,
                    "velocity": 0.36220472440944884,
                    "duration": 0.1875
                },
                {
                    "name": "G4",
                    "midi": 67,
                    "time": 24,
                    "velocity": 0.30708661417322836,
                    "duration": 0.1875
                },
                {
                    "name": "G4",
                    "midi": 67,
                    "time": 24.1875,
                    "velocity": 0.30708661417322836,
                    "duration": 0.1875
                },
                {
                    "name": "B4",
                    "midi": 71,
                    "time": 24.1875,
                    "velocity": 0.36220472440944884,
                    "duration": 0.1875
                },
                {
                    "name": "G4",
                    "midi": 67,
                    "time": 24.375,
                    "velocity": 0.30708661417322836,
                    "duration": 0.1875
                },
                {
                    "name": "B4",
                    "midi": 71,
                    "time": 24.375,
                    "velocity": 0.36220472440944884,
                    "duration": 0.1875
                },
                {
                    "name": "G4",
                    "midi": 67,
                    "time": 24.5625,
                    "velocity": 0.30708661417322836,
                    "duration": 0.1875
                },
                {
                    "name": "B4",
                    "midi": 71,
                    "time": 24.5625,
                    "velocity": 0.36220472440944884,
                    "duration": 0.1875
                },
                {
                    "name": "F#4",
                    "midi": 66,
                    "time": 24.75,
                    "velocity": 0.36220472440944884,
                    "duration": 0.1875
                },
                {
                    "name": "A3",
                    "midi": 57,
                    "time": 24.75,
                    "velocity": 0.30708661417322836,
                    "duration": 0.1875
                },
                {
                    "name": "A3",
                    "midi": 57,
                    "time": 24.9375,
                    "velocity": 0.30708661417322836,
                    "duration": 0.1875
                },
                {
                    "name": "F#4",
                    "midi": 66,
                    "time": 24.9375,
                    "velocity": 0.36220472440944884,
                    "duration": 0.1875
                },
                {
                    "name": "A3",
                    "midi": 57,
                    "time": 25.125,
                    "velocity": 0.30708661417322836,
                    "duration": 0.1875
                },
                {
                    "name": "E4",
                    "midi": 64,
                    "time": 25.125,
                    "velocity": 0.36220472440944884,
                    "duration": 0.1875
                },
                {
                    "name": "A3",
                    "midi": 57,
                    "time": 25.3125,
                    "velocity": 0.30708661417322836,
                    "duration": 0.1875
                },
                {
                    "name": "E4",
                    "midi": 64,
                    "time": 25.3125,
                    "velocity": 0.36220472440944884,
                    "duration": 0.1875
                },
                {
                    "name": "D4",
                    "midi": 62,
                    "time": 25.5,
                    "velocity": 0.29133858267716534,
                    "duration": 0.1875
                },
                {
                    "name": "F#4",
                    "midi": 66,
                    "time": 25.5,
                    "velocity": 0.3464566929133858,
                    "duration": 0.1875
                },
                {
                    "name": "D4",
                    "midi": 62,
                    "time": 25.6875,
                    "velocity": 0.25196850393700787,
                    "duration": 0.1875
                },
                {
                    "name": "F#4",
                    "midi": 66,
                    "time": 25.6875,
                    "velocity": 0.2992125984251969,
                    "duration": 0.1875
                },
                {
                    "name": "D4",
                    "midi": 62,
                    "time": 25.875,
                    "velocity": 0.25196850393700787,
                    "duration": 0.1875
                },
                {
                    "name": "F#4",
                    "midi": 66,
                    "time": 25.875,
                    "velocity": 0.2992125984251969,
                    "duration": 0.1875
                },
                {
                    "name": "D4",
                    "midi": 62,
                    "time": 26.0625,
                    "velocity": 0.25196850393700787,
                    "duration": 0.1875
                },
                {
                    "name": "F#4",
                    "midi": 66,
                    "time": 26.0625,
                    "velocity": 0.2992125984251969,
                    "duration": 0.1875
                },
                {
                    "name": "D4",
                    "midi": 62,
                    "time": 26.25,
                    "velocity": 0.28346456692913385,
                    "duration": 0.1875
                },
                {
                    "name": "G4",
                    "midi": 67,
                    "time": 26.25,
                    "velocity": 0.33858267716535434,
                    "duration": 0.1875
                },
                {
                    "name": "D4",
                    "midi": 62,
                    "time": 26.4375,
                    "velocity": 0.25196850393700787,
                    "duration": 0.1875
                },
                {
                    "name": "G4",
                    "midi": 67,
                    "time": 26.4375,
                    "velocity": 0.2992125984251969,
                    "duration": 0.1875
                },
                {
                    "name": "D4",
                    "midi": 62,
                    "time": 26.625,
                    "velocity": 0.25196850393700787,
                    "duration": 0.1875
                },
                {
                    "name": "G4",
                    "midi": 67,
                    "time": 26.625,
                    "velocity": 0.2992125984251969,
                    "duration": 0.1875
                },
                {
                    "name": "D4",
                    "midi": 62,
                    "time": 26.8125,
                    "velocity": 0.25196850393700787,
                    "duration": 0.1875
                },
                {
                    "name": "G4",
                    "midi": 67,
                    "time": 26.8125,
                    "velocity": 0.2992125984251969,
                    "duration": 0.1875
                },
                {
                    "name": "D4",
                    "midi": 62,
                    "time": 27,
                    "velocity": 0.29133858267716534,
                    "duration": 0.1875
                },
                {
                    "name": "F#4",
                    "midi": 66,
                    "time": 27,
                    "velocity": 0.3464566929133858,
                    "duration": 0.1875
                },
                {
                    "name": "D4",
                    "midi": 62,
                    "time": 27.1875,
                    "velocity": 0.25196850393700787,
                    "duration": 0.1875
                },
                {
                    "name": "F#4",
                    "midi": 66,
                    "time": 27.1875,
                    "velocity": 0.2992125984251969,
                    "duration": 0.1875
                },
                {
                    "name": "D4",
                    "midi": 62,
                    "time": 27.375,
                    "velocity": 0.25196850393700787,
                    "duration": 0.1875
                },
                {
                    "name": "F#4",
                    "midi": 66,
                    "time": 27.375,
                    "velocity": 0.2992125984251969,
                    "duration": 0.1875
                },
                {
                    "name": "D4",
                    "midi": 62,
                    "time": 27.5625,
                    "velocity": 0.25196850393700787,
                    "duration": 0.1875
                },
                {
                    "name": "F#4",
                    "midi": 66,
                    "time": 27.5625,
                    "velocity": 0.2992125984251969,
                    "duration": 0.1875
                },
                {
                    "name": "D4",
                    "midi": 62,
                    "time": 27.75,
                    "velocity": 0.29133858267716534,
                    "duration": 0.1875
                },
                {
                    "name": "G4",
                    "midi": 67,
                    "time": 27.75,
                    "velocity": 0.3464566929133858,
                    "duration": 0.1875
                },
                {
                    "name": "D4",
                    "midi": 62,
                    "time": 27.9375,
                    "velocity": 0.25196850393700787,
                    "duration": 0.1875
                },
                {
                    "name": "G4",
                    "midi": 67,
                    "time": 27.9375,
                    "velocity": 0.2992125984251969,
                    "duration": 0.1875
                },
                {
                    "name": "D4",
                    "midi": 62,
                    "time": 28.125,
                    "velocity": 0.25196850393700787,
                    "duration": 0.1875
                },
                {
                    "name": "G4",
                    "midi": 67,
                    "time": 28.125,
                    "velocity": 0.2992125984251969,
                    "duration": 0.1875
                },
                {
                    "name": "D4",
                    "midi": 62,
                    "time": 28.3125,
                    "velocity": 0.25196850393700787,
                    "duration": 0.1875
                },
                {
                    "name": "G4",
                    "midi": 67,
                    "time": 28.3125,
                    "velocity": 0.2992125984251969,
                    "duration": 0.1875
                },
                {
                    "name": "D4",
                    "midi": 62,
                    "time": 28.5,
                    "velocity": 0.2992125984251969,
                    "duration": 0.375
                },
                {
                    "name": "F#4",
                    "midi": 66,
                    "time": 28.5,
                    "velocity": 0.3543307086614173,
                    "duration": 0.375
                },
                {
                    "name": "D2",
                    "midi": 38,
                    "time": 29.25,
                    "velocity": 0.5433070866141733,
                    "duration": 0.375
                },
                {
                    "name": "D3",
                    "midi": 50,
                    "time": 29.25,
                    "velocity": 0.5433070866141733,
                    "duration": 0.375
                },
                {
                    "name": "D4",
                    "midi": 62,
                    "time": 30,
                    "velocity": 0.3543307086614173,
                    "duration": 0.375
                },
                {
                    "name": "A#3",
                    "midi": 58,
                    "time": 30,
                    "velocity": 0.2992125984251969,
                    "duration": 0.375
                },
                {
                    "name": "D4",
                    "midi": 62,
                    "time": 30.5625,
                    "velocity": 0.3228346456692913,
                    "duration": 0.1875
                },
                {
                    "name": "A#3",
                    "midi": 58,
                    "time": 30.5625,
                    "velocity": 0.2677165354330709,
                    "duration": 0.1875
                },
                {
                    "name": "D#4",
                    "midi": 63,
                    "time": 30.75,
                    "velocity": 0.3543307086614173,
                    "duration": 0.375
                },
                {
                    "name": "C4",
                    "midi": 60,
                    "time": 30.75,
                    "velocity": 0.2992125984251969,
                    "duration": 0.375
                },
                {
                    "name": "C4",
                    "midi": 60,
                    "time": 31.3125,
                    "velocity": 0.2677165354330709,
                    "duration": 0.1875
                },
                {
                    "name": "D#4",
                    "midi": 63,
                    "time": 31.3125,
                    "velocity": 0.3228346456692913,
                    "duration": 0.1875
                },
                {
                    "name": "D4",
                    "midi": 62,
                    "time": 31.5,
                    "velocity": 0.2992125984251969,
                    "duration": 0.375
                },
                {
                    "name": "F4",
                    "midi": 65,
                    "time": 31.5,
                    "velocity": 0.3543307086614173,
                    "duration": 0.375
                },
                {
                    "name": "D4",
                    "midi": 62,
                    "time": 32.0625,
                    "velocity": 0.3228346456692913,
                    "duration": 0.1875
                },
                {
                    "name": "A#3",
                    "midi": 58,
                    "time": 32.0625,
                    "velocity": 0.2677165354330709,
                    "duration": 0.1875
                },
                {
                    "name": "A3",
                    "midi": 57,
                    "time": 32.25,
                    "velocity": 0.2992125984251969,
                    "duration": 0.375
                },
                {
                    "name": "C4",
                    "midi": 60,
                    "time": 32.25,
                    "velocity": 0.3543307086614173,
                    "duration": 0.375
                },
                {
                    "name": "C4",
                    "midi": 60,
                    "time": 32.8125,
                    "velocity": 0.3228346456692913,
                    "duration": 0.1875
                },
                {
                    "name": "A3",
                    "midi": 57,
                    "time": 32.8125,
                    "velocity": 0.2677165354330709,
                    "duration": 0.1875
                },
                {
                    "name": "D4",
                    "midi": 62,
                    "time": 33,
                    "velocity": 0.3858267716535433,
                    "duration": 0.375
                },
                {
                    "name": "A#3",
                    "midi": 58,
                    "time": 33,
                    "velocity": 0.3228346456692913,
                    "duration": 0.375
                },
                {
                    "name": "A#3",
                    "midi": 58,
                    "time": 33.5625,
                    "velocity": 0.33858267716535434,
                    "duration": 0.1875
                },
                {
                    "name": "G3",
                    "midi": 55,
                    "time": 33.5625,
                    "velocity": 0.28346456692913385,
                    "duration": 0.1875
                },
                {
                    "name": "G3",
                    "midi": 55,
                    "time": 33.75,
                    "velocity": 0.3779527559055118,
                    "duration": 0.375
                },
                {
                    "name": "D#3",
                    "midi": 51,
                    "time": 33.75,
                    "velocity": 0.31496062992125984,
                    "duration": 0.375
                },
                {
                    "name": "D#3",
                    "midi": 51,
                    "time": 34.3125,
                    "velocity": 0.4330708661417323,
                    "duration": 0.1875
                },
                {
                    "name": "G3",
                    "midi": 55,
                    "time": 34.3125,
                    "velocity": 0.4330708661417323,
                    "duration": 0.1875
                },
                {
                    "name": "D3",
                    "midi": 50,
                    "time": 34.5,
                    "velocity": 0.4566929133858268,
                    "duration": 0.28125
                },
                {
                    "name": "F#3",
                    "midi": 54,
                    "time": 34.5,
                    "velocity": 0.4566929133858268,
                    "duration": 0.28125
                },
                {
                    "name": "F#2",
                    "midi": 42,
                    "time": 34.78125,
                    "velocity": 0.4015748031496063,
                    "duration": 0.046875
                },
                {
                    "name": "G2",
                    "midi": 43,
                    "time": 34.828125,
                    "velocity": 0.4015748031496063,
                    "duration": 0.046875
                },
                {
                    "name": "A2",
                    "midi": 45,
                    "time": 34.875,
                    "velocity": 0.48031496062992124,
                    "duration": 0.1875
                },
                {
                    "name": "F#2",
                    "midi": 42,
                    "time": 35.0625,
                    "velocity": 0.4409448818897638,
                    "duration": 0.1875
                },
                {
                    "name": "D2",
                    "midi": 38,
                    "time": 35.25,
                    "velocity": 0.4409448818897638,
                    "duration": 0.375
                },
                {
                    "name": "G3",
                    "midi": 55,
                    "time": 36.00078125,
                    "velocity": 0.2677165354330709,
                    "duration": 0.1875
                },
                {
                    "name": "B3",
                    "midi": 59,
                    "time": 36.00078125,
                    "velocity": 0.31496062992125984,
                    "duration": 0.1875
                },
                {
                    "name": "G3",
                    "midi": 55,
                    "time": 36.1875,
                    "velocity": 0.2677165354330709,
                    "duration": 0.1875
                },
                {
                    "name": "B3",
                    "midi": 59,
                    "time": 36.1875,
                    "velocity": 0.31496062992125984,
                    "duration": 0.1875
                },
                {
                    "name": "G3",
                    "midi": 55,
                    "time": 36.375,
                    "velocity": 0.2677165354330709,
                    "duration": 0.1875
                },
                {
                    "name": "B3",
                    "midi": 59,
                    "time": 36.375,
                    "velocity": 0.31496062992125984,
                    "duration": 0.1875
                },
                {
                    "name": "G3",
                    "midi": 55,
                    "time": 36.5625,
                    "velocity": 0.25984251968503935,
                    "duration": 0.1875
                },
                {
                    "name": "B3",
                    "midi": 59,
                    "time": 36.5625,
                    "velocity": 0.30708661417322836,
                    "duration": 0.1875
                },
                {
                    "name": "G3",
                    "midi": 55,
                    "time": 36.75,
                    "velocity": 0.2677165354330709,
                    "duration": 0.1875
                },
                {
                    "name": "B3",
                    "midi": 59,
                    "time": 36.75,
                    "velocity": 0.31496062992125984,
                    "duration": 0.1875
                },
                {
                    "name": "G3",
                    "midi": 55,
                    "time": 36.9375,
                    "velocity": 0.2677165354330709,
                    "duration": 0.1875
                },
                {
                    "name": "B3",
                    "midi": 59,
                    "time": 36.9375,
                    "velocity": 0.3228346456692913,
                    "duration": 0.1875
                },
                {
                    "name": "G3",
                    "midi": 55,
                    "time": 37.125,
                    "velocity": 0.2677165354330709,
                    "duration": 0.1875
                },
                {
                    "name": "B3",
                    "midi": 59,
                    "time": 37.125,
                    "velocity": 0.3228346456692913,
                    "duration": 0.1875
                },
                {
                    "name": "G3",
                    "midi": 55,
                    "time": 37.3125,
                    "velocity": 0.2677165354330709,
                    "duration": 0.1875
                },
                {
                    "name": "B3",
                    "midi": 59,
                    "time": 37.3125,
                    "velocity": 0.3228346456692913,
                    "duration": 0.1875
                },
                {
                    "name": "G3",
                    "midi": 55,
                    "time": 37.5,
                    "velocity": 0.29133858267716534,
                    "duration": 0.375
                },
                {
                    "name": "C4",
                    "midi": 60,
                    "time": 37.5,
                    "velocity": 0.3464566929133858,
                    "duration": 0.375
                },
                {
                    "name": "G3",
                    "midi": 55,
                    "time": 37.875,
                    "velocity": 0.2677165354330709,
                    "duration": 0.1875
                },
                {
                    "name": "B3",
                    "midi": 59,
                    "time": 37.875,
                    "velocity": 0.3228346456692913,
                    "duration": 0.1875
                },
                {
                    "name": "D5",
                    "midi": 74,
                    "time": 38.25,
                    "velocity": 0.28346456692913385,
                    "duration": 0.09375
                },
                {
                    "name": "G#4",
                    "midi": 68,
                    "time": 38.25,
                    "velocity": 0.28346456692913385,
                    "duration": 0.09375
                },
                {
                    "name": "D5",
                    "midi": 74,
                    "time": 38.4375,
                    "velocity": 0.28346456692913385,
                    "duration": 0.09375
                },
                {
                    "name": "G#4",
                    "midi": 68,
                    "time": 38.4375,
                    "velocity": 0.28346456692913385,
                    "duration": 0.09375
                },
                {
                    "name": "D5",
                    "midi": 74,
                    "time": 38.625,
                    "velocity": 0.28346456692913385,
                    "duration": 0.09375
                },
                {
                    "name": "G#4",
                    "midi": 68,
                    "time": 38.625,
                    "velocity": 0.28346456692913385,
                    "duration": 0.09375
                },
                {
                    "name": "G#4",
                    "midi": 68,
                    "time": 38.8125,
                    "velocity": 0.28346456692913385,
                    "duration": 0.09375
                },
                {
                    "name": "D5",
                    "midi": 74,
                    "time": 38.8125,
                    "velocity": 0.28346456692913385,
                    "duration": 0.09375
                },
                {
                    "name": "C5",
                    "midi": 72,
                    "time": 39,
                    "velocity": 0.3228346456692913,
                    "duration": 0.375
                },
                {
                    "name": "A4",
                    "midi": 69,
                    "time": 39,
                    "velocity": 0.3228346456692913,
                    "duration": 0.375
                },
                {
                    "name": "F#4",
                    "midi": 66,
                    "time": 39.75,
                    "velocity": 0.28346456692913385,
                    "duration": 0.09375
                },
                {
                    "name": "C5",
                    "midi": 72,
                    "time": 39.75,
                    "velocity": 0.28346456692913385,
                    "duration": 0.09375
                },
                {
                    "name": "F#4",
                    "midi": 66,
                    "time": 39.9375,
                    "velocity": 0.28346456692913385,
                    "duration": 0.09375
                },
                {
                    "name": "C5",
                    "midi": 72,
                    "time": 39.9375,
                    "velocity": 0.28346456692913385,
                    "duration": 0.09375
                },
                {
                    "name": "F#4",
                    "midi": 66,
                    "time": 40.125,
                    "velocity": 0.28346456692913385,
                    "duration": 0.09375
                },
                {
                    "name": "C5",
                    "midi": 72,
                    "time": 40.125,
                    "velocity": 0.28346456692913385,
                    "duration": 0.09375
                },
                {
                    "name": "F#4",
                    "midi": 66,
                    "time": 40.3125,
                    "velocity": 0.28346456692913385,
                    "duration": 0.09375
                },
                {
                    "name": "C5",
                    "midi": 72,
                    "time": 40.3125,
                    "velocity": 0.28346456692913385,
                    "duration": 0.09375
                },
                {
                    "name": "B4",
                    "midi": 71,
                    "time": 40.5,
                    "velocity": 0.3228346456692913,
                    "duration": 0.375
                },
                {
                    "name": "G4",
                    "midi": 67,
                    "time": 40.5,
                    "velocity": 0.3228346456692913,
                    "duration": 0.375
                },
                {
                    "name": "E4",
                    "midi": 64,
                    "time": 43.5,
                    "velocity": 0.2677165354330709,
                    "duration": 0.1875
                },
                {
                    "name": "G4",
                    "midi": 67,
                    "time": 43.5,
                    "velocity": 0.2677165354330709,
                    "duration": 0.1875
                },
                {
                    "name": "G4",
                    "midi": 67,
                    "time": 44.15625,
                    "velocity": 0.3464566929133858,
                    "duration": 0.046875
                },
                {
                    "name": "F4",
                    "midi": 65,
                    "time": 44.203125,
                    "velocity": 0.3464566929133858,
                    "duration": 0.046875
                },
                {
                    "name": "D#4",
                    "midi": 63,
                    "time": 44.25,
                    "velocity": 0.4330708661417323,
                    "duration": 0.375
                },
                {
                    "name": "A4",
                    "midi": 69,
                    "time": 44.90625,
                    "velocity": 0.3858267716535433,
                    "duration": 0.046875
                },
                {
                    "name": "G4",
                    "midi": 67,
                    "time": 44.953125,
                    "velocity": 0.3858267716535433,
                    "duration": 0.046875
                },
                {
                    "name": "D4",
                    "midi": 62,
                    "time": 45,
                    "velocity": 0.4409448818897638,
                    "duration": 0.375
                },
                {
                    "name": "F#4",
                    "midi": 66,
                    "time": 45,
                    "velocity": 0.4409448818897638,
                    "duration": 0.375
                },
                {
                    "name": "E4",
                    "midi": 64,
                    "time": 45.375,
                    "velocity": 0.36220472440944884,
                    "duration": 0.375
                },
                {
                    "name": "G4",
                    "midi": 67,
                    "time": 45.375,
                    "velocity": 0.36220472440944884,
                    "duration": 0.375
                },
                {
                    "name": "C4",
                    "midi": 60,
                    "time": 45.75,
                    "velocity": 0.36220472440944884,
                    "duration": 0.375
                },
                {
                    "name": "E4",
                    "midi": 64,
                    "time": 45.75,
                    "velocity": 0.36220472440944884,
                    "duration": 0.375
                },
                {
                    "name": "D4",
                    "midi": 62,
                    "time": 46.125,
                    "velocity": 0.36220472440944884,
                    "duration": 0.375
                },
                {
                    "name": "G3",
                    "midi": 55,
                    "time": 46.5,
                    "velocity": 0.29133858267716534,
                    "duration": 0.1875
                },
                {
                    "name": "B3",
                    "midi": 59,
                    "time": 46.5,
                    "velocity": 0.3464566929133858,
                    "duration": 0.1875
                },
                {
                    "name": "G3",
                    "midi": 55,
                    "time": 46.6875,
                    "velocity": 0.25196850393700787,
                    "duration": 0.1875
                },
                {
                    "name": "B3",
                    "midi": 59,
                    "time": 46.6875,
                    "velocity": 0.2992125984251969,
                    "duration": 0.1875
                },
                {
                    "name": "G3",
                    "midi": 55,
                    "time": 46.875,
                    "velocity": 0.25196850393700787,
                    "duration": 0.1875
                },
                {
                    "name": "B3",
                    "midi": 59,
                    "time": 46.875,
                    "velocity": 0.2992125984251969,
                    "duration": 0.1875
                },
                {
                    "name": "G3",
                    "midi": 55,
                    "time": 47.0625,
                    "velocity": 0.25196850393700787,
                    "duration": 0.1875
                },
                {
                    "name": "B3",
                    "midi": 59,
                    "time": 47.0625,
                    "velocity": 0.2992125984251969,
                    "duration": 0.1875
                },
                {
                    "name": "G3",
                    "midi": 55,
                    "time": 47.25,
                    "velocity": 0.28346456692913385,
                    "duration": 0.1875
                },
                {
                    "name": "C4",
                    "midi": 60,
                    "time": 47.25,
                    "velocity": 0.33858267716535434,
                    "duration": 0.1875
                },
                {
                    "name": "G3",
                    "midi": 55,
                    "time": 47.4375,
                    "velocity": 0.25196850393700787,
                    "duration": 0.1875
                },
                {
                    "name": "C4",
                    "midi": 60,
                    "time": 47.4375,
                    "velocity": 0.2992125984251969,
                    "duration": 0.1875
                },
                {
                    "name": "G3",
                    "midi": 55,
                    "time": 47.625,
                    "velocity": 0.25196850393700787,
                    "duration": 0.1875
                },
                {
                    "name": "C4",
                    "midi": 60,
                    "time": 47.625,
                    "velocity": 0.2992125984251969,
                    "duration": 0.1875
                },
                {
                    "name": "G3",
                    "midi": 55,
                    "time": 47.8125,
                    "velocity": 0.25196850393700787,
                    "duration": 0.1875
                },
                {
                    "name": "C4",
                    "midi": 60,
                    "time": 47.8125,
                    "velocity": 0.2992125984251969,
                    "duration": 0.1875
                },
                {
                    "name": "G3",
                    "midi": 55,
                    "time": 48,
                    "velocity": 0.29133858267716534,
                    "duration": 0.1875
                },
                {
                    "name": "B3",
                    "midi": 59,
                    "time": 48,
                    "velocity": 0.3464566929133858,
                    "duration": 0.1875
                },
                {
                    "name": "G3",
                    "midi": 55,
                    "time": 48.1875,
                    "velocity": 0.25196850393700787,
                    "duration": 0.1875
                },
                {
                    "name": "B3",
                    "midi": 59,
                    "time": 48.1875,
                    "velocity": 0.2992125984251969,
                    "duration": 0.1875
                },
                {
                    "name": "G3",
                    "midi": 55,
                    "time": 48.375,
                    "velocity": 0.25196850393700787,
                    "duration": 0.1875
                },
                {
                    "name": "B3",
                    "midi": 59,
                    "time": 48.375,
                    "velocity": 0.2992125984251969,
                    "duration": 0.1875
                },
                {
                    "name": "G3",
                    "midi": 55,
                    "time": 48.5625,
                    "velocity": 0.25196850393700787,
                    "duration": 0.1875
                },
                {
                    "name": "B3",
                    "midi": 59,
                    "time": 48.5625,
                    "velocity": 0.2992125984251969,
                    "duration": 0.1875
                },
                {
                    "name": "G3",
                    "midi": 55,
                    "time": 48.75,
                    "velocity": 0.29133858267716534,
                    "duration": 0.1875
                },
                {
                    "name": "C4",
                    "midi": 60,
                    "time": 48.75,
                    "velocity": 0.3464566929133858,
                    "duration": 0.1875
                },
                {
                    "name": "G3",
                    "midi": 55,
                    "time": 48.9375,
                    "velocity": 0.25196850393700787,
                    "duration": 0.1875
                },
                {
                    "name": "C4",
                    "midi": 60,
                    "time": 48.9375,
                    "velocity": 0.2992125984251969,
                    "duration": 0.1875
                },
                {
                    "name": "G3",
                    "midi": 55,
                    "time": 49.125,
                    "velocity": 0.25196850393700787,
                    "duration": 0.1875
                },
                {
                    "name": "C4",
                    "midi": 60,
                    "time": 49.125,
                    "velocity": 0.2992125984251969,
                    "duration": 0.1875
                },
                {
                    "name": "G3",
                    "midi": 55,
                    "time": 49.3125,
                    "velocity": 0.25196850393700787,
                    "duration": 0.1875
                },
                {
                    "name": "C4",
                    "midi": 60,
                    "time": 49.3125,
                    "velocity": 0.2992125984251969,
                    "duration": 0.1875
                },
                {
                    "name": "G3",
                    "midi": 55,
                    "time": 49.5,
                    "velocity": 0.2992125984251969,
                    "duration": 0.375
                },
                {
                    "name": "B3",
                    "midi": 59,
                    "time": 49.5,
                    "velocity": 0.3543307086614173,
                    "duration": 0.375
                },
                {
                    "name": "G1",
                    "midi": 31,
                    "time": 50.25,
                    "velocity": 0.5433070866141733,
                    "duration": 0.375
                },
                {
                    "name": "G2",
                    "midi": 43,
                    "time": 50.25,
                    "velocity": 0.5433070866141733,
                    "duration": 0.375
                },
                {
                    "name": "D4",
                    "midi": 62,
                    "time": 51,
                    "velocity": 0.3543307086614173,
                    "duration": 0.375
                },
                {
                    "name": "A#3",
                    "midi": 58,
                    "time": 51,
                    "velocity": 0.2992125984251969,
                    "duration": 0.375
                },
                {
                    "name": "D4",
                    "midi": 62,
                    "time": 51.5625,
                    "velocity": 0.3228346456692913,
                    "duration": 0.1875
                },
                {
                    "name": "A#3",
                    "midi": 58,
                    "time": 51.5625,
                    "velocity": 0.2677165354330709,
                    "duration": 0.1875
                },
                {
                    "name": "D#4",
                    "midi": 63,
                    "time": 51.75,
                    "velocity": 0.3543307086614173,
                    "duration": 0.375
                },
                {
                    "name": "C4",
                    "midi": 60,
                    "time": 51.75,
                    "velocity": 0.2992125984251969,
                    "duration": 0.375
                },
                {
                    "name": "C4",
                    "midi": 60,
                    "time": 52.3125,
                    "velocity": 0.2677165354330709,
                    "duration": 0.1875
                },
                {
                    "name": "D#4",
                    "midi": 63,
                    "time": 52.3125,
                    "velocity": 0.3228346456692913,
                    "duration": 0.1875
                },
                {
                    "name": "D4",
                    "midi": 62,
                    "time": 52.5,
                    "velocity": 0.2992125984251969,
                    "duration": 0.375
                },
                {
                    "name": "F4",
                    "midi": 65,
                    "time": 52.5,
                    "velocity": 0.3543307086614173,
                    "duration": 0.375
                },
                {
                    "name": "D4",
                    "midi": 62,
                    "time": 53.0625,
                    "velocity": 0.3228346456692913,
                    "duration": 0.1875
                },
                {
                    "name": "A#3",
                    "midi": 58,
                    "time": 53.0625,
                    "velocity": 0.2677165354330709,
                    "duration": 0.1875
                },
                {
                    "name": "A3",
                    "midi": 57,
                    "time": 53.25,
                    "velocity": 0.2992125984251969,
                    "duration": 0.375
                },
                {
                    "name": "C4",
                    "midi": 60,
                    "time": 53.25,
                    "velocity": 0.3543307086614173,
                    "duration": 0.375
                },
                {
                    "name": "C4",
                    "midi": 60,
                    "time": 53.8125,
                    "velocity": 0.3228346456692913,
                    "duration": 0.1875
                },
                {
                    "name": "A3",
                    "midi": 57,
                    "time": 53.8125,
                    "velocity": 0.2677165354330709,
                    "duration": 0.1875
                },
                {
                    "name": "D4",
                    "midi": 62,
                    "time": 54,
                    "velocity": 0.3858267716535433,
                    "duration": 0.375
                },
                {
                    "name": "A#3",
                    "midi": 58,
                    "time": 54,
                    "velocity": 0.3228346456692913,
                    "duration": 0.375
                },
                {
                    "name": "A#3",
                    "midi": 58,
                    "time": 54.5625,
                    "velocity": 0.33858267716535434,
                    "duration": 0.1875
                },
                {
                    "name": "G3",
                    "midi": 55,
                    "time": 54.5625,
                    "velocity": 0.28346456692913385,
                    "duration": 0.1875
                },
                {
                    "name": "G3",
                    "midi": 55,
                    "time": 54.75,
                    "velocity": 0.3779527559055118,
                    "duration": 0.375
                },
                {
                    "name": "D#3",
                    "midi": 51,
                    "time": 54.75,
                    "velocity": 0.31496062992125984,
                    "duration": 0.375
                },
                {
                    "name": "D#3",
                    "midi": 51,
                    "time": 55.3125,
                    "velocity": 0.4330708661417323,
                    "duration": 0.1875
                },
                {
                    "name": "G3",
                    "midi": 55,
                    "time": 55.3125,
                    "velocity": 0.4330708661417323,
                    "duration": 0.1875
                },
                {
                    "name": "D3",
                    "midi": 50,
                    "time": 55.5,
                    "velocity": 0.4566929133858268,
                    "duration": 0.28125
                },
                {
                    "name": "F#3",
                    "midi": 54,
                    "time": 55.5,
                    "velocity": 0.4566929133858268,
                    "duration": 0.28125
                },
                {
                    "name": "F#2",
                    "midi": 42,
                    "time": 55.78125,
                    "velocity": 0.4015748031496063,
                    "duration": 0.046875
                },
                {
                    "name": "G2",
                    "midi": 43,
                    "time": 55.828125,
                    "velocity": 0.4015748031496063,
                    "duration": 0.046875
                },
                {
                    "name": "A2",
                    "midi": 45,
                    "time": 55.875,
                    "velocity": 0.48031496062992124,
                    "duration": 0.1875
                },
                {
                    "name": "F#2",
                    "midi": 42,
                    "time": 56.0625,
                    "velocity": 0.4409448818897638,
                    "duration": 0.1875
                },
                {
                    "name": "D2",
                    "midi": 38,
                    "time": 56.25,
                    "velocity": 0.4409448818897638,
                    "duration": 0.375
                },
                {
                    "name": "G3",
                    "midi": 55,
                    "time": 57.00078125,
                    "velocity": 0.2677165354330709,
                    "duration": 0.1875
                },
                {
                    "name": "B3",
                    "midi": 59,
                    "time": 57.00078125,
                    "velocity": 0.31496062992125984,
                    "duration": 0.1875
                },
                {
                    "name": "G3",
                    "midi": 55,
                    "time": 57.1875,
                    "velocity": 0.2677165354330709,
                    "duration": 0.1875
                },
                {
                    "name": "B3",
                    "midi": 59,
                    "time": 57.1875,
                    "velocity": 0.31496062992125984,
                    "duration": 0.1875
                },
                {
                    "name": "G3",
                    "midi": 55,
                    "time": 57.375,
                    "velocity": 0.2677165354330709,
                    "duration": 0.1875
                },
                {
                    "name": "B3",
                    "midi": 59,
                    "time": 57.375,
                    "velocity": 0.31496062992125984,
                    "duration": 0.1875
                },
                {
                    "name": "G3",
                    "midi": 55,
                    "time": 57.5625,
                    "velocity": 0.25984251968503935,
                    "duration": 0.1875
                },
                {
                    "name": "B3",
                    "midi": 59,
                    "time": 57.5625,
                    "velocity": 0.30708661417322836,
                    "duration": 0.1875
                },
                {
                    "name": "G3",
                    "midi": 55,
                    "time": 57.75,
                    "velocity": 0.2677165354330709,
                    "duration": 0.1875
                },
                {
                    "name": "B3",
                    "midi": 59,
                    "time": 57.75,
                    "velocity": 0.31496062992125984,
                    "duration": 0.1875
                },
                {
                    "name": "G3",
                    "midi": 55,
                    "time": 57.9375,
                    "velocity": 0.2677165354330709,
                    "duration": 0.1875
                },
                {
                    "name": "B3",
                    "midi": 59,
                    "time": 57.9375,
                    "velocity": 0.3228346456692913,
                    "duration": 0.1875
                },
                {
                    "name": "G3",
                    "midi": 55,
                    "time": 58.125,
                    "velocity": 0.2677165354330709,
                    "duration": 0.1875
                },
                {
                    "name": "B3",
                    "midi": 59,
                    "time": 58.125,
                    "velocity": 0.3228346456692913,
                    "duration": 0.1875
                },
                {
                    "name": "G3",
                    "midi": 55,
                    "time": 58.3125,
                    "velocity": 0.2677165354330709,
                    "duration": 0.1875
                },
                {
                    "name": "B3",
                    "midi": 59,
                    "time": 58.3125,
                    "velocity": 0.3228346456692913,
                    "duration": 0.1875
                },
                {
                    "name": "G3",
                    "midi": 55,
                    "time": 58.5,
                    "velocity": 0.29133858267716534,
                    "duration": 0.375
                },
                {
                    "name": "C4",
                    "midi": 60,
                    "time": 58.5,
                    "velocity": 0.3464566929133858,
                    "duration": 0.375
                },
                {
                    "name": "G3",
                    "midi": 55,
                    "time": 58.875,
                    "velocity": 0.2677165354330709,
                    "duration": 0.1875
                },
                {
                    "name": "B3",
                    "midi": 59,
                    "time": 58.875,
                    "velocity": 0.3228346456692913,
                    "duration": 0.1875
                },
                {
                    "name": "D5",
                    "midi": 74,
                    "time": 59.25,
                    "velocity": 0.28346456692913385,
                    "duration": 0.09375
                },
                {
                    "name": "G#4",
                    "midi": 68,
                    "time": 59.25,
                    "velocity": 0.28346456692913385,
                    "duration": 0.09375
                },
                {
                    "name": "D5",
                    "midi": 74,
                    "time": 59.4375,
                    "velocity": 0.28346456692913385,
                    "duration": 0.09375
                },
                {
                    "name": "G#4",
                    "midi": 68,
                    "time": 59.4375,
                    "velocity": 0.28346456692913385,
                    "duration": 0.09375
                },
                {
                    "name": "D5",
                    "midi": 74,
                    "time": 59.625,
                    "velocity": 0.28346456692913385,
                    "duration": 0.09375
                },
                {
                    "name": "G#4",
                    "midi": 68,
                    "time": 59.625,
                    "velocity": 0.28346456692913385,
                    "duration": 0.09375
                },
                {
                    "name": "G#4",
                    "midi": 68,
                    "time": 59.8125,
                    "velocity": 0.28346456692913385,
                    "duration": 0.09375
                },
                {
                    "name": "D5",
                    "midi": 74,
                    "time": 59.8125,
                    "velocity": 0.28346456692913385,
                    "duration": 0.09375
                },
                {
                    "name": "C5",
                    "midi": 72,
                    "time": 60,
                    "velocity": 0.3228346456692913,
                    "duration": 0.375
                },
                {
                    "name": "A4",
                    "midi": 69,
                    "time": 60,
                    "velocity": 0.3228346456692913,
                    "duration": 0.375
                },
                {
                    "name": "F#4",
                    "midi": 66,
                    "time": 60.75,
                    "velocity": 0.28346456692913385,
                    "duration": 0.09375
                },
                {
                    "name": "C5",
                    "midi": 72,
                    "time": 60.75,
                    "velocity": 0.28346456692913385,
                    "duration": 0.09375
                },
                {
                    "name": "F#4",
                    "midi": 66,
                    "time": 60.9375,
                    "velocity": 0.28346456692913385,
                    "duration": 0.09375
                },
                {
                    "name": "C5",
                    "midi": 72,
                    "time": 60.9375,
                    "velocity": 0.28346456692913385,
                    "duration": 0.09375
                },
                {
                    "name": "F#4",
                    "midi": 66,
                    "time": 61.125,
                    "velocity": 0.28346456692913385,
                    "duration": 0.09375
                },
                {
                    "name": "C5",
                    "midi": 72,
                    "time": 61.125,
                    "velocity": 0.28346456692913385,
                    "duration": 0.09375
                },
                {
                    "name": "F#4",
                    "midi": 66,
                    "time": 61.3125,
                    "velocity": 0.28346456692913385,
                    "duration": 0.09375
                },
                {
                    "name": "C5",
                    "midi": 72,
                    "time": 61.3125,
                    "velocity": 0.28346456692913385,
                    "duration": 0.09375
                },
                {
                    "name": "B4",
                    "midi": 71,
                    "time": 61.5,
                    "velocity": 0.3228346456692913,
                    "duration": 0.375
                },
                {
                    "name": "G4",
                    "midi": 67,
                    "time": 61.5,
                    "velocity": 0.3228346456692913,
                    "duration": 0.375
                },
                {
                    "name": "E4",
                    "midi": 64,
                    "time": 64.5,
                    "velocity": 0.2677165354330709,
                    "duration": 0.1875
                },
                {
                    "name": "G4",
                    "midi": 67,
                    "time": 64.5,
                    "velocity": 0.2677165354330709,
                    "duration": 0.1875
                },
                {
                    "name": "G4",
                    "midi": 67,
                    "time": 65.15625,
                    "velocity": 0.3464566929133858,
                    "duration": 0.046875
                },
                {
                    "name": "F4",
                    "midi": 65,
                    "time": 65.203125,
                    "velocity": 0.3464566929133858,
                    "duration": 0.046875
                },
                {
                    "name": "D#4",
                    "midi": 63,
                    "time": 65.25,
                    "velocity": 0.4330708661417323,
                    "duration": 0.375
                },
                {
                    "name": "A4",
                    "midi": 69,
                    "time": 65.90625,
                    "velocity": 0.3700787401574803,
                    "duration": 0.046875
                },
                {
                    "name": "G4",
                    "midi": 67,
                    "time": 65.953125,
                    "velocity": 0.3700787401574803,
                    "duration": 0.046875
                },
                {
                    "name": "D4",
                    "midi": 62,
                    "time": 66,
                    "velocity": 0.4409448818897638,
                    "duration": 0.375
                },
                {
                    "name": "F#4",
                    "midi": 66,
                    "time": 66,
                    "velocity": 0.4409448818897638,
                    "duration": 0.375
                },
                {
                    "name": "E4",
                    "midi": 64,
                    "time": 66.375,
                    "velocity": 0.36220472440944884,
                    "duration": 0.375
                },
                {
                    "name": "G4",
                    "midi": 67,
                    "time": 66.375,
                    "velocity": 0.36220472440944884,
                    "duration": 0.375
                },
                {
                    "name": "C4",
                    "midi": 60,
                    "time": 66.75,
                    "velocity": 0.36220472440944884,
                    "duration": 0.375
                },
                {
                    "name": "E4",
                    "midi": 64,
                    "time": 66.75,
                    "velocity": 0.36220472440944884,
                    "duration": 0.375
                },
                {
                    "name": "D4",
                    "midi": 62,
                    "time": 67.125,
                    "velocity": 0.36220472440944884,
                    "duration": 0.375
                },
                {
                    "name": "G3",
                    "midi": 55,
                    "time": 67.5,
                    "velocity": 0.29133858267716534,
                    "duration": 0.1875
                },
                {
                    "name": "B3",
                    "midi": 59,
                    "time": 67.5,
                    "velocity": 0.3464566929133858,
                    "duration": 0.1875
                },
                {
                    "name": "G3",
                    "midi": 55,
                    "time": 67.6875,
                    "velocity": 0.25196850393700787,
                    "duration": 0.1875
                },
                {
                    "name": "B3",
                    "midi": 59,
                    "time": 67.6875,
                    "velocity": 0.2992125984251969,
                    "duration": 0.1875
                },
                {
                    "name": "G3",
                    "midi": 55,
                    "time": 67.875,
                    "velocity": 0.25196850393700787,
                    "duration": 0.1875
                },
                {
                    "name": "B3",
                    "midi": 59,
                    "time": 67.875,
                    "velocity": 0.2992125984251969,
                    "duration": 0.1875
                },
                {
                    "name": "G3",
                    "midi": 55,
                    "time": 68.0625,
                    "velocity": 0.25196850393700787,
                    "duration": 0.1875
                },
                {
                    "name": "B3",
                    "midi": 59,
                    "time": 68.0625,
                    "velocity": 0.2992125984251969,
                    "duration": 0.1875
                },
                {
                    "name": "G3",
                    "midi": 55,
                    "time": 68.25,
                    "velocity": 0.28346456692913385,
                    "duration": 0.1875
                },
                {
                    "name": "C4",
                    "midi": 60,
                    "time": 68.25,
                    "velocity": 0.33858267716535434,
                    "duration": 0.1875
                },
                {
                    "name": "G3",
                    "midi": 55,
                    "time": 68.4375,
                    "velocity": 0.25196850393700787,
                    "duration": 0.1875
                },
                {
                    "name": "C4",
                    "midi": 60,
                    "time": 68.4375,
                    "velocity": 0.2992125984251969,
                    "duration": 0.1875
                },
                {
                    "name": "G3",
                    "midi": 55,
                    "time": 68.625,
                    "velocity": 0.25196850393700787,
                    "duration": 0.1875
                },
                {
                    "name": "C4",
                    "midi": 60,
                    "time": 68.625,
                    "velocity": 0.2992125984251969,
                    "duration": 0.1875
                },
                {
                    "name": "G3",
                    "midi": 55,
                    "time": 68.8125,
                    "velocity": 0.25196850393700787,
                    "duration": 0.1875
                },
                {
                    "name": "C4",
                    "midi": 60,
                    "time": 68.8125,
                    "velocity": 0.2992125984251969,
                    "duration": 0.1875
                },
                {
                    "name": "G3",
                    "midi": 55,
                    "time": 69,
                    "velocity": 0.29133858267716534,
                    "duration": 0.1875
                },
                {
                    "name": "B3",
                    "midi": 59,
                    "time": 69,
                    "velocity": 0.3464566929133858,
                    "duration": 0.1875
                },
                {
                    "name": "G3",
                    "midi": 55,
                    "time": 69.1875,
                    "velocity": 0.25196850393700787,
                    "duration": 0.1875
                },
                {
                    "name": "B3",
                    "midi": 59,
                    "time": 69.1875,
                    "velocity": 0.2992125984251969,
                    "duration": 0.1875
                },
                {
                    "name": "G3",
                    "midi": 55,
                    "time": 69.375,
                    "velocity": 0.25196850393700787,
                    "duration": 0.1875
                },
                {
                    "name": "B3",
                    "midi": 59,
                    "time": 69.375,
                    "velocity": 0.2992125984251969,
                    "duration": 0.1875
                },
                {
                    "name": "G3",
                    "midi": 55,
                    "time": 69.5625,
                    "velocity": 0.25196850393700787,
                    "duration": 0.1875
                },
                {
                    "name": "B3",
                    "midi": 59,
                    "time": 69.5625,
                    "velocity": 0.2992125984251969,
                    "duration": 0.1875
                },
                {
                    "name": "G3",
                    "midi": 55,
                    "time": 69.75,
                    "velocity": 0.29133858267716534,
                    "duration": 0.1875
                },
                {
                    "name": "C4",
                    "midi": 60,
                    "time": 69.75,
                    "velocity": 0.3464566929133858,
                    "duration": 0.1875
                },
                {
                    "name": "G3",
                    "midi": 55,
                    "time": 69.9375,
                    "velocity": 0.25196850393700787,
                    "duration": 0.1875
                },
                {
                    "name": "C4",
                    "midi": 60,
                    "time": 69.9375,
                    "velocity": 0.2992125984251969,
                    "duration": 0.1875
                },
                {
                    "name": "G3",
                    "midi": 55,
                    "time": 70.125,
                    "velocity": 0.25196850393700787,
                    "duration": 0.1875
                },
                {
                    "name": "C4",
                    "midi": 60,
                    "time": 70.125,
                    "velocity": 0.2992125984251969,
                    "duration": 0.1875
                },
                {
                    "name": "G3",
                    "midi": 55,
                    "time": 70.3125,
                    "velocity": 0.25196850393700787,
                    "duration": 0.1875
                },
                {
                    "name": "C4",
                    "midi": 60,
                    "time": 70.3125,
                    "velocity": 0.2992125984251969,
                    "duration": 0.1875
                },
                {
                    "name": "G3",
                    "midi": 55,
                    "time": 70.5,
                    "velocity": 0.2992125984251969,
                    "duration": 0.375
                },
                {
                    "name": "B3",
                    "midi": 59,
                    "time": 70.5,
                    "velocity": 0.3543307086614173,
                    "duration": 0.375
                },
                {
                    "name": "G1",
                    "midi": 31,
                    "time": 71.25,
                    "velocity": 0.5433070866141733,
                    "duration": 0.375
                },
                {
                    "name": "G2",
                    "midi": 43,
                    "time": 71.25,
                    "velocity": 0.5433070866141733,
                    "duration": 0.375
                },
                {
                    "name": "E2",
                    "midi": 40,
                    "time": 72,
                    "velocity": 0.47244094488188976,
                    "duration": 0.375
                },
                {
                    "name": "E3",
                    "midi": 52,
                    "time": 72,
                    "velocity": 0.47244094488188976,
                    "duration": 0.375
                },
                {
                    "name": "G4",
                    "midi": 67,
                    "time": 72.5625,
                    "velocity": 0.30708661417322836,
                    "duration": 0.1875
                },
                {
                    "name": "B4",
                    "midi": 71,
                    "time": 72.5625,
                    "velocity": 0.30708661417322836,
                    "duration": 0.1875
                },
                {
                    "name": "F#4",
                    "midi": 66,
                    "time": 72.75,
                    "velocity": 0.3543307086614173,
                    "duration": 0.5625
                },
                {
                    "name": "A4",
                    "midi": 69,
                    "time": 72.75,
                    "velocity": 0.3543307086614173,
                    "duration": 0.5625
                },
                {
                    "name": "A4",
                    "midi": 69,
                    "time": 73.3125,
                    "velocity": 0.30708661417322836,
                    "duration": 0.1875
                },
                {
                    "name": "C5",
                    "midi": 72,
                    "time": 73.3125,
                    "velocity": 0.30708661417322836,
                    "duration": 0.1875
                },
                {
                    "name": "G4",
                    "midi": 67,
                    "time": 73.5,
                    "velocity": 0.3543307086614173,
                    "duration": 0.5625
                },
                {
                    "name": "B4",
                    "midi": 71,
                    "time": 73.5,
                    "velocity": 0.3543307086614173,
                    "duration": 0.5625
                },
                {
                    "name": "E4",
                    "midi": 64,
                    "time": 74.0625,
                    "velocity": 0.31496062992125984,
                    "duration": 0.1875
                },
                {
                    "name": "A#4",
                    "midi": 70,
                    "time": 74.0625,
                    "velocity": 0.31496062992125984,
                    "duration": 0.1875
                },
                {
                    "name": "D4",
                    "midi": 62,
                    "time": 74.25,
                    "velocity": 0.3543307086614173,
                    "duration": 0.5625
                },
                {
                    "name": "B4",
                    "midi": 71,
                    "time": 74.25,
                    "velocity": 0.3543307086614173,
                    "duration": 0.5625
                },
                {
                    "name": "D4",
                    "midi": 62,
                    "time": 74.8125,
                    "velocity": 0.3543307086614173,
                    "duration": 0.1875
                },
                {
                    "name": "F#4",
                    "midi": 66,
                    "time": 74.8125,
                    "velocity": 0.3543307086614173,
                    "duration": 0.1875
                },
                {
                    "name": "C#4",
                    "midi": 61,
                    "time": 75,
                    "velocity": 0.3779527559055118,
                    "duration": 0.5625
                },
                {
                    "name": "E4",
                    "midi": 64,
                    "time": 75,
                    "velocity": 0.3779527559055118,
                    "duration": 0.5625
                },
                {
                    "name": "A#3",
                    "midi": 58,
                    "time": 75.5625,
                    "velocity": 0.3779527559055118,
                    "duration": 0.1875
                },
                {
                    "name": "B3",
                    "midi": 59,
                    "time": 75.75,
                    "velocity": 0.4251968503937008,
                    "duration": 0.375
                },
                {
                    "name": "E4",
                    "midi": 64,
                    "time": 76.125,
                    "velocity": 0.3858267716535433,
                    "duration": 0.375
                },
                {
                    "name": "F#4",
                    "midi": 66,
                    "time": 76.5,
                    "velocity": 0.3858267716535433,
                    "duration": 0.375
                },
                {
                    "name": "F#4",
                    "midi": 66,
                    "time": 76.875,
                    "velocity": 0.3858267716535433,
                    "duration": 0.375
                },
                {
                    "name": "B3",
                    "midi": 59,
                    "time": 77.25,
                    "velocity": 0.3858267716535433,
                    "duration": 0.375
                },
                {
                    "name": "D#2",
                    "midi": 39,
                    "time": 77.8125,
                    "velocity": 0.4409448818897638,
                    "duration": 0.1875
                },
                {
                    "name": "D#3",
                    "midi": 51,
                    "time": 77.8125,
                    "velocity": 0.4409448818897638,
                    "duration": 0.1875
                },
                {
                    "name": "E2",
                    "midi": 40,
                    "time": 78,
                    "velocity": 0.47244094488188976,
                    "duration": 0.375
                },
                {
                    "name": "E3",
                    "midi": 52,
                    "time": 78,
                    "velocity": 0.47244094488188976,
                    "duration": 0.375
                },
                {
                    "name": "G4",
                    "midi": 67,
                    "time": 78.5625,
                    "velocity": 0.30708661417322836,
                    "duration": 0.1875
                },
                {
                    "name": "B4",
                    "midi": 71,
                    "time": 78.5625,
                    "velocity": 0.30708661417322836,
                    "duration": 0.1875
                },
                {
                    "name": "F#4",
                    "midi": 66,
                    "time": 78.75,
                    "velocity": 0.3543307086614173,
                    "duration": 0.5625
                },
                {
                    "name": "A4",
                    "midi": 69,
                    "time": 78.75,
                    "velocity": 0.3543307086614173,
                    "duration": 0.5625
                },
                {
                    "name": "A4",
                    "midi": 69,
                    "time": 79.3125,
                    "velocity": 0.30708661417322836,
                    "duration": 0.1875
                },
                {
                    "name": "C5",
                    "midi": 72,
                    "time": 79.3125,
                    "velocity": 0.30708661417322836,
                    "duration": 0.1875
                },
                {
                    "name": "G4",
                    "midi": 67,
                    "time": 79.5,
                    "velocity": 0.3543307086614173,
                    "duration": 0.5625
                },
                {
                    "name": "B4",
                    "midi": 71,
                    "time": 79.5,
                    "velocity": 0.3543307086614173,
                    "duration": 0.5625
                },
                {
                    "name": "E4",
                    "midi": 64,
                    "time": 80.0625,
                    "velocity": 0.31496062992125984,
                    "duration": 0.1875
                },
                {
                    "name": "A#4",
                    "midi": 70,
                    "time": 80.0625,
                    "velocity": 0.31496062992125984,
                    "duration": 0.1875
                },
                {
                    "name": "D4",
                    "midi": 62,
                    "time": 80.25,
                    "velocity": 0.3543307086614173,
                    "duration": 0.5625
                },
                {
                    "name": "B4",
                    "midi": 71,
                    "time": 80.25,
                    "velocity": 0.3543307086614173,
                    "duration": 0.5625
                },
                {
                    "name": "D4",
                    "midi": 62,
                    "time": 80.8125,
                    "velocity": 0.3543307086614173,
                    "duration": 0.1875
                },
                {
                    "name": "F#4",
                    "midi": 66,
                    "time": 80.8125,
                    "velocity": 0.3543307086614173,
                    "duration": 0.1875
                },
                {
                    "name": "C#4",
                    "midi": 61,
                    "time": 81,
                    "velocity": 0.3779527559055118,
                    "duration": 0.5625
                },
                {
                    "name": "E4",
                    "midi": 64,
                    "time": 81,
                    "velocity": 0.3779527559055118,
                    "duration": 0.5625
                },
                {
                    "name": "A#3",
                    "midi": 58,
                    "time": 81.5625,
                    "velocity": 0.3779527559055118,
                    "duration": 0.1875
                },
                {
                    "name": "B3",
                    "midi": 59,
                    "time": 81.75,
                    "velocity": 0.4251968503937008,
                    "duration": 0.375
                },
                {
                    "name": "E4",
                    "midi": 64,
                    "time": 82.125,
                    "velocity": 0.3858267716535433,
                    "duration": 0.375
                },
                {
                    "name": "F#4",
                    "midi": 66,
                    "time": 82.5,
                    "velocity": 0.3858267716535433,
                    "duration": 0.375
                },
                {
                    "name": "F#4",
                    "midi": 66,
                    "time": 82.875,
                    "velocity": 0.3858267716535433,
                    "duration": 0.375
                },
                {
                    "name": "B3",
                    "midi": 59,
                    "time": 83.25,
                    "velocity": 0.3858267716535433,
                    "duration": 0.375
                },
                {
                    "name": "B1",
                    "midi": 35,
                    "time": 83.8125,
                    "velocity": 0.4409448818897638,
                    "duration": 0.1875
                },
                {
                    "name": "B2",
                    "midi": 47,
                    "time": 83.8125,
                    "velocity": 0.4409448818897638,
                    "duration": 0.1875
                },
                {
                    "name": "C2",
                    "midi": 36,
                    "time": 84,
                    "velocity": 0.47244094488188976,
                    "duration": 0.375
                },
                {
                    "name": "C3",
                    "midi": 48,
                    "time": 84,
                    "velocity": 0.47244094488188976,
                    "duration": 0.375
                },
                {
                    "name": "C4",
                    "midi": 60,
                    "time": 84.5625,
                    "velocity": 0.2755905511811024,
                    "duration": 0.1875
                },
                {
                    "name": "E4",
                    "midi": 64,
                    "time": 84.5625,
                    "velocity": 0.33070866141732286,
                    "duration": 0.1875
                },
                {
                    "name": "B3",
                    "midi": 59,
                    "time": 84.75,
                    "velocity": 0.31496062992125984,
                    "duration": 0.5625
                },
                {
                    "name": "D4",
                    "midi": 62,
                    "time": 84.75,
                    "velocity": 0.3779527559055118,
                    "duration": 0.5625
                },
                {
                    "name": "B3",
                    "midi": 59,
                    "time": 85.3125,
                    "velocity": 0.31496062992125984,
                    "duration": 0.1875
                },
                {
                    "name": "G#3",
                    "midi": 56,
                    "time": 85.3125,
                    "velocity": 0.2677165354330709,
                    "duration": 0.1875
                },
                {
                    "name": "A3",
                    "midi": 57,
                    "time": 85.5,
                    "velocity": 0.30708661417322836,
                    "duration": 0.375
                },
                {
                    "name": "C4",
                    "midi": 60,
                    "time": 85.5,
                    "velocity": 0.36220472440944884,
                    "duration": 0.375
                },
                {
                    "name": "D4",
                    "midi": 62,
                    "time": 85.875,
                    "velocity": 0.3464566929133858,
                    "duration": 0.375
                },
                {
                    "name": "B3",
                    "midi": 59,
                    "time": 85.875,
                    "velocity": 0.29133858267716534,
                    "duration": 0.375
                },
                {
                    "name": "E4",
                    "midi": 64,
                    "time": 86.25,
                    "velocity": 0.31496062992125984,
                    "duration": 0.375
                },
                {
                    "name": "C4",
                    "midi": 60,
                    "time": 86.25,
                    "velocity": 0.2677165354330709,
                    "duration": 0.375
                },
                {
                    "name": "B4",
                    "midi": 71,
                    "time": 87.1875,
                    "velocity": 0.23622047244094488,
                    "duration": 0.1875
                },
                {
                    "name": "D5",
                    "midi": 74,
                    "time": 87.1875,
                    "velocity": 0.23622047244094488,
                    "duration": 0.1875
                },
                {
                    "name": "A4",
                    "midi": 69,
                    "time": 87.375,
                    "velocity": 0.2755905511811024,
                    "duration": 0.375
                },
                {
                    "name": "C5",
                    "midi": 72,
                    "time": 87.375,
                    "velocity": 0.2755905511811024,
                    "duration": 0.375
                },
                {
                    "name": "F#4",
                    "midi": 66,
                    "time": 87.9375,
                    "velocity": 0.2440944881889764,
                    "duration": 0.1875
                },
                {
                    "name": "G4",
                    "midi": 67,
                    "time": 88.125,
                    "velocity": 0.28346456692913385,
                    "duration": 0.375
                },
                {
                    "name": "D#4",
                    "midi": 63,
                    "time": 88.5,
                    "velocity": 0.28346456692913385,
                    "duration": 0.375
                },
                {
                    "name": "E4",
                    "midi": 64,
                    "time": 88.875,
                    "velocity": 0.23622047244094488,
                    "duration": 0.375
                },
                {
                    "name": "B3",
                    "midi": 59,
                    "time": 89.25,
                    "velocity": 0.2755905511811024,
                    "duration": 0.375
                },
                {
                    "name": "E3",
                    "midi": 52,
                    "time": 90.1875,
                    "velocity": 0.4330708661417323,
                    "duration": 0.1875
                },
                {
                    "name": "E4",
                    "midi": 64,
                    "time": 90.375,
                    "velocity": 0.4881889763779528,
                    "duration": 0.5625
                },
                {
                    "name": "D#4",
                    "midi": 63,
                    "time": 90.9375,
                    "velocity": 0.3700787401574803,
                    "duration": 0.1875
                },
                {
                    "name": "F#4",
                    "midi": 66,
                    "time": 91.125,
                    "velocity": 0.4015748031496063,
                    "duration": 0.5625
                },
                {
                    "name": "E4",
                    "midi": 64,
                    "time": 91.6875,
                    "velocity": 0.3858267716535433,
                    "duration": 0.1875
                },
                {
                    "name": "G4",
                    "midi": 67,
                    "time": 91.875,
                    "velocity": 0.4251968503937008,
                    "duration": 0.5625
                },
                {
                    "name": "F#4",
                    "midi": 66,
                    "time": 92.4375,
                    "velocity": 0.3700787401574803,
                    "duration": 0.1875
                },
                {
                    "name": "A4",
                    "midi": 69,
                    "time": 92.625,
                    "velocity": 0.4015748031496063,
                    "duration": 0.5625
                },
                {
                    "name": "F#4",
                    "midi": 66,
                    "time": 93.1875,
                    "velocity": 0.41732283464566927,
                    "duration": 0.1875
                },
                {
                    "name": "D#4",
                    "midi": 63,
                    "time": 93.375,
                    "velocity": 0.4566929133858268,
                    "duration": 0.5625
                },
                {
                    "name": "C4",
                    "midi": 60,
                    "time": 93.9375,
                    "velocity": 0.4251968503937008,
                    "duration": 0.1875
                },
                {
                    "name": "A3",
                    "midi": 57,
                    "time": 94.125,
                    "velocity": 0.4566929133858268,
                    "duration": 0.5625
                },
                {
                    "name": "F#3",
                    "midi": 54,
                    "time": 94.6875,
                    "velocity": 0.4094488188976378,
                    "duration": 0.1875
                },
                {
                    "name": "D#3",
                    "midi": 51,
                    "time": 94.875,
                    "velocity": 0.3937007874015748,
                    "duration": 0.1875
                },
                {
                    "name": "D#3",
                    "midi": 51,
                    "time": 95.0625,
                    "velocity": 0.33070866141732286,
                    "duration": 0.09375
                },
                {
                    "name": "C3",
                    "midi": 48,
                    "time": 95.15625,
                    "velocity": 0.33070866141732286,
                    "duration": 0.09375
                },
                {
                    "name": "A2",
                    "midi": 45,
                    "time": 95.25,
                    "velocity": 0.4330708661417323,
                    "duration": 0.09375
                },
                {
                    "name": "C3",
                    "midi": 48,
                    "time": 95.4375,
                    "velocity": 0.33070866141732286,
                    "duration": 0.09375
                },
                {
                    "name": "A2",
                    "midi": 45,
                    "time": 95.53125,
                    "velocity": 0.33070866141732286,
                    "duration": 0.09375
                },
                {
                    "name": "F#2",
                    "midi": 42,
                    "time": 95.625,
                    "velocity": 0.4409448818897638,
                    "duration": 0.09375
                },
                {
                    "name": "A2",
                    "midi": 45,
                    "time": 95.8125,
                    "velocity": 0.3858267716535433,
                    "duration": 0.09375
                },
                {
                    "name": "F#2",
                    "midi": 42,
                    "time": 95.90625,
                    "velocity": 0.3858267716535433,
                    "duration": 0.09375
                },
                {
                    "name": "D#2",
                    "midi": 39,
                    "time": 96,
                    "velocity": 0.49606299212598426,
                    "duration": 0.1875
                },
                {
                    "name": "D#3",
                    "midi": 51,
                    "time": 98.625,
                    "velocity": 0.4094488188976378,
                    "duration": 0.375
                },
                {
                    "name": "E3",
                    "midi": 52,
                    "time": 99,
                    "velocity": 0.4251968503937008,
                    "duration": 0.1875
                },
                {
                    "name": "A2",
                    "midi": 45,
                    "time": 99.375,
                    "velocity": 0.4015748031496063,
                    "duration": 0.1875
                },
                {
                    "name": "B2",
                    "midi": 47,
                    "time": 99.75,
                    "velocity": 0.4015748031496063,
                    "duration": 0.1875
                },
                {
                    "name": "B2",
                    "midi": 47,
                    "time": 100.125,
                    "velocity": 0.4015748031496063,
                    "duration": 0.1875
                },
                {
                    "name": "E3",
                    "midi": 52,
                    "time": 100.6875,
                    "velocity": 0.3779527559055118,
                    "duration": 0.1875
                },
                {
                    "name": "E2",
                    "midi": 40,
                    "time": 100.875,
                    "velocity": 0.41732283464566927,
                    "duration": 0.1875
                },
                {
                    "name": "E3",
                    "midi": 52,
                    "time": 101.4375,
                    "velocity": 0.2992125984251969,
                    "duration": 0.1875
                },
                {
                    "name": "E2",
                    "midi": 40,
                    "time": 101.625,
                    "velocity": 0.33858267716535434,
                    "duration": 0.1875
                },
                {
                    "name": "E3",
                    "midi": 52,
                    "time": 102.1875,
                    "velocity": 0.33858267716535434,
                    "duration": 0.1875
                },
                {
                    "name": "E2",
                    "midi": 40,
                    "time": 102.375,
                    "velocity": 0.3700787401574803,
                    "duration": 0.1875
                },
                {
                    "name": "E3",
                    "midi": 52,
                    "time": 102.9375,
                    "velocity": 0.3779527559055118,
                    "duration": 0.1875
                },
                {
                    "name": "E2",
                    "midi": 40,
                    "time": 103.125,
                    "velocity": 0.4094488188976378,
                    "duration": 0.1875
                },
                {
                    "name": "E3",
                    "midi": 52,
                    "time": 103.6875,
                    "velocity": 0.4015748031496063,
                    "duration": 0.1875
                },
                {
                    "name": "E2",
                    "midi": 40,
                    "time": 103.875,
                    "velocity": 0.4645669291338583,
                    "duration": 0.1875
                },
                {
                    "name": "D#3",
                    "midi": 51,
                    "time": 104.4375,
                    "velocity": 0.4094488188976378,
                    "duration": 0.1875
                },
                {
                    "name": "D#2",
                    "midi": 39,
                    "time": 104.625,
                    "velocity": 0.4330708661417323,
                    "duration": 0.1875
                },
                {
                    "name": "D3",
                    "midi": 50,
                    "time": 105.1875,
                    "velocity": 0.3700787401574803,
                    "duration": 0.1875
                },
                {
                    "name": "D2",
                    "midi": 38,
                    "time": 105.375,
                    "velocity": 0.4094488188976378,
                    "duration": 0.1875
                },
                {
                    "name": "D3",
                    "midi": 50,
                    "time": 105.9375,
                    "velocity": 0.2755905511811024,
                    "duration": 0.1875
                },
                {
                    "name": "D2",
                    "midi": 38,
                    "time": 106.125,
                    "velocity": 0.31496062992125984,
                    "duration": 0.1875
                },
                {
                    "name": "D3",
                    "midi": 50,
                    "time": 106.6875,
                    "velocity": 0.2992125984251969,
                    "duration": 0.1875
                },
                {
                    "name": "D2",
                    "midi": 38,
                    "time": 106.875,
                    "velocity": 0.33858267716535434,
                    "duration": 0.1875
                },
                {
                    "name": "D3",
                    "midi": 50,
                    "time": 107.4375,
                    "velocity": 0.28346456692913385,
                    "duration": 0.1875
                },
                {
                    "name": "D2",
                    "midi": 38,
                    "time": 107.625,
                    "velocity": 0.3228346456692913,
                    "duration": 0.1875
                },
                {
                    "name": "G3",
                    "midi": 55,
                    "time": 108.00078125,
                    "velocity": 0.2677165354330709,
                    "duration": 0.1875
                },
                {
                    "name": "B3",
                    "midi": 59,
                    "time": 108.00078125,
                    "velocity": 0.31496062992125984,
                    "duration": 0.1875
                },
                {
                    "name": "G3",
                    "midi": 55,
                    "time": 108.1875,
                    "velocity": 0.2677165354330709,
                    "duration": 0.1875
                },
                {
                    "name": "B3",
                    "midi": 59,
                    "time": 108.1875,
                    "velocity": 0.31496062992125984,
                    "duration": 0.1875
                },
                {
                    "name": "G3",
                    "midi": 55,
                    "time": 108.375,
                    "velocity": 0.2677165354330709,
                    "duration": 0.1875
                },
                {
                    "name": "B3",
                    "midi": 59,
                    "time": 108.375,
                    "velocity": 0.31496062992125984,
                    "duration": 0.1875
                },
                {
                    "name": "G3",
                    "midi": 55,
                    "time": 108.5625,
                    "velocity": 0.25984251968503935,
                    "duration": 0.1875
                },
                {
                    "name": "B3",
                    "midi": 59,
                    "time": 108.5625,
                    "velocity": 0.30708661417322836,
                    "duration": 0.1875
                },
                {
                    "name": "G3",
                    "midi": 55,
                    "time": 108.75,
                    "velocity": 0.2677165354330709,
                    "duration": 0.1875
                },
                {
                    "name": "B3",
                    "midi": 59,
                    "time": 108.75,
                    "velocity": 0.31496062992125984,
                    "duration": 0.1875
                },
                {
                    "name": "G3",
                    "midi": 55,
                    "time": 108.9375,
                    "velocity": 0.2677165354330709,
                    "duration": 0.1875
                },
                {
                    "name": "B3",
                    "midi": 59,
                    "time": 108.9375,
                    "velocity": 0.3228346456692913,
                    "duration": 0.1875
                },
                {
                    "name": "G3",
                    "midi": 55,
                    "time": 109.125,
                    "velocity": 0.2677165354330709,
                    "duration": 0.1875
                },
                {
                    "name": "B3",
                    "midi": 59,
                    "time": 109.125,
                    "velocity": 0.3228346456692913,
                    "duration": 0.1875
                },
                {
                    "name": "G3",
                    "midi": 55,
                    "time": 109.3125,
                    "velocity": 0.2677165354330709,
                    "duration": 0.1875
                },
                {
                    "name": "B3",
                    "midi": 59,
                    "time": 109.3125,
                    "velocity": 0.3228346456692913,
                    "duration": 0.1875
                },
                {
                    "name": "G3",
                    "midi": 55,
                    "time": 109.5,
                    "velocity": 0.29133858267716534,
                    "duration": 0.375
                },
                {
                    "name": "C4",
                    "midi": 60,
                    "time": 109.5,
                    "velocity": 0.3464566929133858,
                    "duration": 0.375
                },
                {
                    "name": "G3",
                    "midi": 55,
                    "time": 109.875,
                    "velocity": 0.3228346456692913,
                    "duration": 0.1875
                },
                {
                    "name": "B3",
                    "midi": 59,
                    "time": 109.875,
                    "velocity": 0.3228346456692913,
                    "duration": 0.1875
                },
                {
                    "name": "F4",
                    "midi": 65,
                    "time": 110.25,
                    "velocity": 0.3228346456692913,
                    "duration": 0.09375
                },
                {
                    "name": "G4",
                    "midi": 67,
                    "time": 110.25,
                    "velocity": 0.3228346456692913,
                    "duration": 0.09375
                },
                {
                    "name": "F4",
                    "midi": 65,
                    "time": 110.4375,
                    "velocity": 0.3228346456692913,
                    "duration": 0.09375
                },
                {
                    "name": "G4",
                    "midi": 67,
                    "time": 110.4375,
                    "velocity": 0.3228346456692913,
                    "duration": 0.09375
                },
                {
                    "name": "F4",
                    "midi": 65,
                    "time": 110.625,
                    "velocity": 0.3228346456692913,
                    "duration": 0.09375
                },
                {
                    "name": "G4",
                    "midi": 67,
                    "time": 110.625,
                    "velocity": 0.3228346456692913,
                    "duration": 0.09375
                },
                {
                    "name": "G4",
                    "midi": 67,
                    "time": 110.8125,
                    "velocity": 0.3228346456692913,
                    "duration": 0.09375
                },
                {
                    "name": "F4",
                    "midi": 65,
                    "time": 110.8125,
                    "velocity": 0.3228346456692913,
                    "duration": 0.09375
                },
                {
                    "name": "E4",
                    "midi": 64,
                    "time": 111,
                    "velocity": 0.36220472440944884,
                    "duration": 0.5625
                },
                {
                    "name": "G4",
                    "midi": 67,
                    "time": 111,
                    "velocity": 0.36220472440944884,
                    "duration": 0.5625
                },
                {
                    "name": "D4",
                    "midi": 62,
                    "time": 111.5625,
                    "velocity": 0.3228346456692913,
                    "duration": 0.1875
                },
                {
                    "name": "F4",
                    "midi": 65,
                    "time": 111.5625,
                    "velocity": 0.3228346456692913,
                    "duration": 0.1875
                },
                {
                    "name": "C4",
                    "midi": 60,
                    "time": 111.75,
                    "velocity": 0.3858267716535433,
                    "duration": 0.375
                },
                {
                    "name": "E4",
                    "midi": 64,
                    "time": 111.75,
                    "velocity": 0.3858267716535433,
                    "duration": 0.375
                },
                {
                    "name": "C#4",
                    "midi": 61,
                    "time": 112.125,
                    "velocity": 0.3937007874015748,
                    "duration": 0.375
                },
                {
                    "name": "E4",
                    "midi": 64,
                    "time": 112.125,
                    "velocity": 0.3937007874015748,
                    "duration": 0.375
                },
                {
                    "name": "D4",
                    "midi": 62,
                    "time": 112.5,
                    "velocity": 0.36220472440944884,
                    "duration": 0.375
                },
                {
                    "name": "G3",
                    "midi": 55,
                    "time": 114.00078125,
                    "velocity": 0.2677165354330709,
                    "duration": 0.1875
                },
                {
                    "name": "B3",
                    "midi": 59,
                    "time": 114.00078125,
                    "velocity": 0.31496062992125984,
                    "duration": 0.1875
                },
                {
                    "name": "G3",
                    "midi": 55,
                    "time": 114.1875,
                    "velocity": 0.23622047244094488,
                    "duration": 0.1875
                },
                {
                    "name": "B3",
                    "midi": 59,
                    "time": 114.1875,
                    "velocity": 0.28346456692913385,
                    "duration": 0.1875
                },
                {
                    "name": "G3",
                    "midi": 55,
                    "time": 114.375,
                    "velocity": 0.23622047244094488,
                    "duration": 0.1875
                },
                {
                    "name": "B3",
                    "midi": 59,
                    "time": 114.375,
                    "velocity": 0.28346456692913385,
                    "duration": 0.1875
                },
                {
                    "name": "G3",
                    "midi": 55,
                    "time": 114.5625,
                    "velocity": 0.23622047244094488,
                    "duration": 0.1875
                },
                {
                    "name": "B3",
                    "midi": 59,
                    "time": 114.5625,
                    "velocity": 0.28346456692913385,
                    "duration": 0.1875
                },
                {
                    "name": "G3",
                    "midi": 55,
                    "time": 114.75,
                    "velocity": 0.2677165354330709,
                    "duration": 0.1875
                },
                {
                    "name": "B3",
                    "midi": 59,
                    "time": 114.75,
                    "velocity": 0.31496062992125984,
                    "duration": 0.1875
                },
                {
                    "name": "G3",
                    "midi": 55,
                    "time": 114.9375,
                    "velocity": 0.25196850393700787,
                    "duration": 0.1875
                },
                {
                    "name": "B3",
                    "midi": 59,
                    "time": 114.9375,
                    "velocity": 0.2992125984251969,
                    "duration": 0.1875
                },
                {
                    "name": "G3",
                    "midi": 55,
                    "time": 115.125,
                    "velocity": 0.25196850393700787,
                    "duration": 0.1875
                },
                {
                    "name": "B3",
                    "midi": 59,
                    "time": 115.125,
                    "velocity": 0.2992125984251969,
                    "duration": 0.1875
                },
                {
                    "name": "G3",
                    "midi": 55,
                    "time": 115.3125,
                    "velocity": 0.25196850393700787,
                    "duration": 0.1875
                },
                {
                    "name": "B3",
                    "midi": 59,
                    "time": 115.3125,
                    "velocity": 0.2992125984251969,
                    "duration": 0.1875
                },
                {
                    "name": "G3",
                    "midi": 55,
                    "time": 115.5,
                    "velocity": 0.29133858267716534,
                    "duration": 0.375
                },
                {
                    "name": "C4",
                    "midi": 60,
                    "time": 115.5,
                    "velocity": 0.3464566929133858,
                    "duration": 0.375
                },
                {
                    "name": "G3",
                    "midi": 55,
                    "time": 115.875,
                    "velocity": 0.2677165354330709,
                    "duration": 0.1875
                },
                {
                    "name": "B3",
                    "midi": 59,
                    "time": 115.875,
                    "velocity": 0.3228346456692913,
                    "duration": 0.1875
                },
                {
                    "name": "B4",
                    "midi": 71,
                    "time": 116.25,
                    "velocity": 0.3228346456692913,
                    "duration": 0.1875
                },
                {
                    "name": "G4",
                    "midi": 67,
                    "time": 116.25,
                    "velocity": 0.3228346456692913,
                    "duration": 0.1875
                },
                {
                    "name": "B4",
                    "midi": 71,
                    "time": 116.4375,
                    "velocity": 0.2992125984251969,
                    "duration": 0.1875
                },
                {
                    "name": "G4",
                    "midi": 67,
                    "time": 116.4375,
                    "velocity": 0.2992125984251969,
                    "duration": 0.1875
                },
                {
                    "name": "B4",
                    "midi": 71,
                    "time": 116.625,
                    "velocity": 0.3464566929133858,
                    "duration": 0.1875
                },
                {
                    "name": "G4",
                    "midi": 67,
                    "time": 116.625,
                    "velocity": 0.3464566929133858,
                    "duration": 0.1875
                },
                {
                    "name": "G4",
                    "midi": 67,
                    "time": 116.8125,
                    "velocity": 0.3228346456692913,
                    "duration": 0.1875
                },
                {
                    "name": "B4",
                    "midi": 71,
                    "time": 116.8125,
                    "velocity": 0.3228346456692913,
                    "duration": 0.1875
                },
                {
                    "name": "B4",
                    "midi": 71,
                    "time": 117,
                    "velocity": 0.36220472440944884,
                    "duration": 0.1875
                },
                {
                    "name": "G4",
                    "midi": 67,
                    "time": 117,
                    "velocity": 0.30708661417322836,
                    "duration": 0.1875
                },
                {
                    "name": "G4",
                    "midi": 67,
                    "time": 117.1875,
                    "velocity": 0.30708661417322836,
                    "duration": 0.1875
                },
                {
                    "name": "B4",
                    "midi": 71,
                    "time": 117.1875,
                    "velocity": 0.36220472440944884,
                    "duration": 0.1875
                },
                {
                    "name": "G4",
                    "midi": 67,
                    "time": 117.375,
                    "velocity": 0.30708661417322836,
                    "duration": 0.1875
                },
                {
                    "name": "B4",
                    "midi": 71,
                    "time": 117.375,
                    "velocity": 0.36220472440944884,
                    "duration": 0.1875
                },
                {
                    "name": "G4",
                    "midi": 67,
                    "time": 117.5625,
                    "velocity": 0.30708661417322836,
                    "duration": 0.1875
                },
                {
                    "name": "B4",
                    "midi": 71,
                    "time": 117.5625,
                    "velocity": 0.36220472440944884,
                    "duration": 0.1875
                },
                {
                    "name": "F#4",
                    "midi": 66,
                    "time": 117.75,
                    "velocity": 0.36220472440944884,
                    "duration": 0.1875
                },
                {
                    "name": "A3",
                    "midi": 57,
                    "time": 117.75,
                    "velocity": 0.30708661417322836,
                    "duration": 0.1875
                },
                {
                    "name": "A3",
                    "midi": 57,
                    "time": 117.9375,
                    "velocity": 0.30708661417322836,
                    "duration": 0.1875
                },
                {
                    "name": "F#4",
                    "midi": 66,
                    "time": 117.9375,
                    "velocity": 0.36220472440944884,
                    "duration": 0.1875
                },
                {
                    "name": "A3",
                    "midi": 57,
                    "time": 118.125,
                    "velocity": 0.30708661417322836,
                    "duration": 0.1875
                },
                {
                    "name": "E4",
                    "midi": 64,
                    "time": 118.125,
                    "velocity": 0.36220472440944884,
                    "duration": 0.1875
                },
                {
                    "name": "A3",
                    "midi": 57,
                    "time": 118.3125,
                    "velocity": 0.30708661417322836,
                    "duration": 0.1875
                },
                {
                    "name": "E4",
                    "midi": 64,
                    "time": 118.3125,
                    "velocity": 0.36220472440944884,
                    "duration": 0.1875
                },
                {
                    "name": "D4",
                    "midi": 62,
                    "time": 118.5,
                    "velocity": 0.29133858267716534,
                    "duration": 0.1875
                },
                {
                    "name": "F#4",
                    "midi": 66,
                    "time": 118.5,
                    "velocity": 0.3464566929133858,
                    "duration": 0.1875
                },
                {
                    "name": "D4",
                    "midi": 62,
                    "time": 118.6875,
                    "velocity": 0.25196850393700787,
                    "duration": 0.1875
                },
                {
                    "name": "F#4",
                    "midi": 66,
                    "time": 118.6875,
                    "velocity": 0.2992125984251969,
                    "duration": 0.1875
                },
                {
                    "name": "D4",
                    "midi": 62,
                    "time": 118.875,
                    "velocity": 0.25196850393700787,
                    "duration": 0.1875
                },
                {
                    "name": "F#4",
                    "midi": 66,
                    "time": 118.875,
                    "velocity": 0.2992125984251969,
                    "duration": 0.1875
                },
                {
                    "name": "D4",
                    "midi": 62,
                    "time": 119.0625,
                    "velocity": 0.25196850393700787,
                    "duration": 0.1875
                },
                {
                    "name": "F#4",
                    "midi": 66,
                    "time": 119.0625,
                    "velocity": 0.2992125984251969,
                    "duration": 0.1875
                },
                {
                    "name": "D4",
                    "midi": 62,
                    "time": 119.25,
                    "velocity": 0.28346456692913385,
                    "duration": 0.1875
                },
                {
                    "name": "G4",
                    "midi": 67,
                    "time": 119.25,
                    "velocity": 0.33858267716535434,
                    "duration": 0.1875
                },
                {
                    "name": "D4",
                    "midi": 62,
                    "time": 119.4375,
                    "velocity": 0.25196850393700787,
                    "duration": 0.1875
                },
                {
                    "name": "G4",
                    "midi": 67,
                    "time": 119.4375,
                    "velocity": 0.2992125984251969,
                    "duration": 0.1875
                },
                {
                    "name": "D4",
                    "midi": 62,
                    "time": 119.625,
                    "velocity": 0.25196850393700787,
                    "duration": 0.1875
                },
                {
                    "name": "G4",
                    "midi": 67,
                    "time": 119.625,
                    "velocity": 0.2992125984251969,
                    "duration": 0.1875
                },
                {
                    "name": "D4",
                    "midi": 62,
                    "time": 119.8125,
                    "velocity": 0.25196850393700787,
                    "duration": 0.1875
                },
                {
                    "name": "G4",
                    "midi": 67,
                    "time": 119.8125,
                    "velocity": 0.2992125984251969,
                    "duration": 0.1875
                },
                {
                    "name": "D4",
                    "midi": 62,
                    "time": 120,
                    "velocity": 0.29133858267716534,
                    "duration": 0.1875
                },
                {
                    "name": "F#4",
                    "midi": 66,
                    "time": 120,
                    "velocity": 0.3464566929133858,
                    "duration": 0.1875
                },
                {
                    "name": "D4",
                    "midi": 62,
                    "time": 120.1875,
                    "velocity": 0.25196850393700787,
                    "duration": 0.1875
                },
                {
                    "name": "F#4",
                    "midi": 66,
                    "time": 120.1875,
                    "velocity": 0.2992125984251969,
                    "duration": 0.1875
                },
                {
                    "name": "D4",
                    "midi": 62,
                    "time": 120.375,
                    "velocity": 0.25196850393700787,
                    "duration": 0.1875
                },
                {
                    "name": "F#4",
                    "midi": 66,
                    "time": 120.375,
                    "velocity": 0.2992125984251969,
                    "duration": 0.1875
                },
                {
                    "name": "D4",
                    "midi": 62,
                    "time": 120.5625,
                    "velocity": 0.25196850393700787,
                    "duration": 0.1875
                },
                {
                    "name": "F#4",
                    "midi": 66,
                    "time": 120.5625,
                    "velocity": 0.2992125984251969,
                    "duration": 0.1875
                },
                {
                    "name": "D4",
                    "midi": 62,
                    "time": 120.75,
                    "velocity": 0.29133858267716534,
                    "duration": 0.1875
                },
                {
                    "name": "G4",
                    "midi": 67,
                    "time": 120.75,
                    "velocity": 0.3464566929133858,
                    "duration": 0.1875
                },
                {
                    "name": "D4",
                    "midi": 62,
                    "time": 120.9375,
                    "velocity": 0.25196850393700787,
                    "duration": 0.1875
                },
                {
                    "name": "G4",
                    "midi": 67,
                    "time": 120.9375,
                    "velocity": 0.2992125984251969,
                    "duration": 0.1875
                },
                {
                    "name": "D4",
                    "midi": 62,
                    "time": 121.125,
                    "velocity": 0.25196850393700787,
                    "duration": 0.1875
                },
                {
                    "name": "G4",
                    "midi": 67,
                    "time": 121.125,
                    "velocity": 0.2992125984251969,
                    "duration": 0.1875
                },
                {
                    "name": "D4",
                    "midi": 62,
                    "time": 121.3125,
                    "velocity": 0.25196850393700787,
                    "duration": 0.1875
                },
                {
                    "name": "G4",
                    "midi": 67,
                    "time": 121.3125,
                    "velocity": 0.2992125984251969,
                    "duration": 0.1875
                },
                {
                    "name": "D4",
                    "midi": 62,
                    "time": 121.5,
                    "velocity": 0.2992125984251969,
                    "duration": 0.1875
                },
                {
                    "name": "F#4",
                    "midi": 66,
                    "time": 121.5,
                    "velocity": 0.3543307086614173,
                    "duration": 0.1875
                },
                {
                    "name": "D4",
                    "midi": 62,
                    "time": 121.6875,
                    "velocity": 0.2677165354330709,
                    "duration": 0.1875
                },
                {
                    "name": "F#4",
                    "midi": 66,
                    "time": 121.6875,
                    "velocity": 0.3228346456692913,
                    "duration": 0.1875
                },
                {
                    "name": "D4",
                    "midi": 62,
                    "time": 121.875,
                    "velocity": 0.2992125984251969,
                    "duration": 0.1875
                },
                {
                    "name": "F#4",
                    "midi": 66,
                    "time": 121.875,
                    "velocity": 0.3543307086614173,
                    "duration": 0.1875
                },
                {
                    "name": "D4",
                    "midi": 62,
                    "time": 122.0625,
                    "velocity": 0.2677165354330709,
                    "duration": 0.09375
                },
                {
                    "name": "F#4",
                    "midi": 66,
                    "time": 122.0625,
                    "velocity": 0.31496062992125984,
                    "duration": 0.09375
                },
                {
                    "name": "D4",
                    "midi": 62,
                    "time": 122.25,
                    "velocity": 0.31496062992125984,
                    "duration": 0.375
                },
                {
                    "name": "F#4",
                    "midi": 66,
                    "time": 122.25,
                    "velocity": 0.3779527559055118,
                    "duration": 0.375
                },
                {
                    "name": "G3",
                    "midi": 55,
                    "time": 123.00078125,
                    "velocity": 0.2677165354330709,
                    "duration": 0.1875
                },
                {
                    "name": "B3",
                    "midi": 59,
                    "time": 123.00078125,
                    "velocity": 0.31496062992125984,
                    "duration": 0.1875
                },
                {
                    "name": "G3",
                    "midi": 55,
                    "time": 123.1875,
                    "velocity": 0.23622047244094488,
                    "duration": 0.1875
                },
                {
                    "name": "B3",
                    "midi": 59,
                    "time": 123.1875,
                    "velocity": 0.28346456692913385,
                    "duration": 0.1875
                },
                {
                    "name": "G3",
                    "midi": 55,
                    "time": 123.375,
                    "velocity": 0.23622047244094488,
                    "duration": 0.1875
                },
                {
                    "name": "B3",
                    "midi": 59,
                    "time": 123.375,
                    "velocity": 0.28346456692913385,
                    "duration": 0.1875
                },
                {
                    "name": "G3",
                    "midi": 55,
                    "time": 123.5625,
                    "velocity": 0.23622047244094488,
                    "duration": 0.1875
                },
                {
                    "name": "B3",
                    "midi": 59,
                    "time": 123.5625,
                    "velocity": 0.28346456692913385,
                    "duration": 0.1875
                },
                {
                    "name": "G3",
                    "midi": 55,
                    "time": 123.75,
                    "velocity": 0.2677165354330709,
                    "duration": 0.1875
                },
                {
                    "name": "B3",
                    "midi": 59,
                    "time": 123.75,
                    "velocity": 0.31496062992125984,
                    "duration": 0.1875
                },
                {
                    "name": "G3",
                    "midi": 55,
                    "time": 123.9375,
                    "velocity": 0.25196850393700787,
                    "duration": 0.1875
                },
                {
                    "name": "B3",
                    "midi": 59,
                    "time": 123.9375,
                    "velocity": 0.2992125984251969,
                    "duration": 0.1875
                },
                {
                    "name": "G3",
                    "midi": 55,
                    "time": 124.125,
                    "velocity": 0.25196850393700787,
                    "duration": 0.1875
                },
                {
                    "name": "B3",
                    "midi": 59,
                    "time": 124.125,
                    "velocity": 0.2992125984251969,
                    "duration": 0.1875
                },
                {
                    "name": "G3",
                    "midi": 55,
                    "time": 124.3125,
                    "velocity": 0.25196850393700787,
                    "duration": 0.1875
                },
                {
                    "name": "B3",
                    "midi": 59,
                    "time": 124.3125,
                    "velocity": 0.2992125984251969,
                    "duration": 0.1875
                },
                {
                    "name": "G3",
                    "midi": 55,
                    "time": 124.5,
                    "velocity": 0.29133858267716534,
                    "duration": 0.375
                },
                {
                    "name": "C4",
                    "midi": 60,
                    "time": 124.5,
                    "velocity": 0.3464566929133858,
                    "duration": 0.375
                },
                {
                    "name": "G3",
                    "midi": 55,
                    "time": 124.875,
                    "velocity": 0.2677165354330709,
                    "duration": 0.1875
                },
                {
                    "name": "B3",
                    "midi": 59,
                    "time": 124.875,
                    "velocity": 0.3228346456692913,
                    "duration": 0.1875
                },
                {
                    "name": "F4",
                    "midi": 65,
                    "time": 125.25,
                    "velocity": 0.2992125984251969,
                    "duration": 0.09375
                },
                {
                    "name": "G4",
                    "midi": 67,
                    "time": 125.34375,
                    "velocity": 0.25984251968503935,
                    "duration": 0.09375
                },
                {
                    "name": "F4",
                    "midi": 65,
                    "time": 125.4375,
                    "velocity": 0.2992125984251969,
                    "duration": 0.09375
                },
                {
                    "name": "G4",
                    "midi": 67,
                    "time": 125.53125,
                    "velocity": 0.25984251968503935,
                    "duration": 0.09375
                },
                {
                    "name": "F4",
                    "midi": 65,
                    "time": 125.625,
                    "velocity": 0.2992125984251969,
                    "duration": 0.09375
                },
                {
                    "name": "G4",
                    "midi": 67,
                    "time": 125.71875,
                    "velocity": 0.2677165354330709,
                    "duration": 0.09375
                },
                {
                    "name": "F4",
                    "midi": 65,
                    "time": 125.8125,
                    "velocity": 0.2992125984251969,
                    "duration": 0.09375
                },
                {
                    "name": "G4",
                    "midi": 67,
                    "time": 125.90625,
                    "velocity": 0.25984251968503935,
                    "duration": 0.09375
                },
                {
                    "name": "E4",
                    "midi": 64,
                    "time": 126,
                    "velocity": 0.4094488188976378,
                    "duration": 0.375
                },
                {
                    "name": "E4",
                    "midi": 64,
                    "time": 126.5625,
                    "velocity": 0.3779527559055118,
                    "duration": 0.09375
                },
                {
                    "name": "D4",
                    "midi": 62,
                    "time": 126.65625,
                    "velocity": 0.3779527559055118,
                    "duration": 0.09375
                },
                {
                    "name": "C4",
                    "midi": 60,
                    "time": 126.75,
                    "velocity": 0.4094488188976378,
                    "duration": 0.375
                },
                {
                    "name": "C#4",
                    "midi": 61,
                    "time": 127.3125,
                    "velocity": 0.4094488188976378,
                    "duration": 0.1875
                },
                {
                    "name": "D4",
                    "midi": 62,
                    "time": 127.5,
                    "velocity": 0.4566929133858268,
                    "duration": 0.75
                },
                {
                    "name": "D3",
                    "midi": 50,
                    "time": 128.25,
                    "velocity": 0.4094488188976378,
                    "duration": 0.375
                },
                {
                    "name": "G3",
                    "midi": 55,
                    "time": 129,
                    "velocity": 0.2677165354330709,
                    "duration": 0.1875
                },
                {
                    "name": "B3",
                    "midi": 59,
                    "time": 129,
                    "velocity": 0.31496062992125984,
                    "duration": 0.1875
                },
                {
                    "name": "G3",
                    "midi": 55,
                    "time": 129.1875,
                    "velocity": 0.23622047244094488,
                    "duration": 0.1875
                },
                {
                    "name": "B3",
                    "midi": 59,
                    "time": 129.1875,
                    "velocity": 0.28346456692913385,
                    "duration": 0.1875
                },
                {
                    "name": "G3",
                    "midi": 55,
                    "time": 129.375,
                    "velocity": 0.23622047244094488,
                    "duration": 0.1875
                },
                {
                    "name": "B3",
                    "midi": 59,
                    "time": 129.375,
                    "velocity": 0.28346456692913385,
                    "duration": 0.1875
                },
                {
                    "name": "G3",
                    "midi": 55,
                    "time": 129.5625,
                    "velocity": 0.23622047244094488,
                    "duration": 0.1875
                },
                {
                    "name": "B3",
                    "midi": 59,
                    "time": 129.5625,
                    "velocity": 0.28346456692913385,
                    "duration": 0.1875
                },
                {
                    "name": "G3",
                    "midi": 55,
                    "time": 129.75,
                    "velocity": 0.2677165354330709,
                    "duration": 0.1875
                },
                {
                    "name": "B3",
                    "midi": 59,
                    "time": 129.75,
                    "velocity": 0.31496062992125984,
                    "duration": 0.1875
                },
                {
                    "name": "G3",
                    "midi": 55,
                    "time": 129.9375,
                    "velocity": 0.25196850393700787,
                    "duration": 0.1875
                },
                {
                    "name": "B3",
                    "midi": 59,
                    "time": 129.9375,
                    "velocity": 0.2992125984251969,
                    "duration": 0.1875
                },
                {
                    "name": "G3",
                    "midi": 55,
                    "time": 130.125,
                    "velocity": 0.25196850393700787,
                    "duration": 0.1875
                },
                {
                    "name": "B3",
                    "midi": 59,
                    "time": 130.125,
                    "velocity": 0.2992125984251969,
                    "duration": 0.1875
                },
                {
                    "name": "G3",
                    "midi": 55,
                    "time": 130.3125,
                    "velocity": 0.25196850393700787,
                    "duration": 0.1875
                },
                {
                    "name": "B3",
                    "midi": 59,
                    "time": 130.3125,
                    "velocity": 0.2992125984251969,
                    "duration": 0.1875
                },
                {
                    "name": "G3",
                    "midi": 55,
                    "time": 130.5,
                    "velocity": 0.29133858267716534,
                    "duration": 0.375
                },
                {
                    "name": "C4",
                    "midi": 60,
                    "time": 130.5,
                    "velocity": 0.3464566929133858,
                    "duration": 0.375
                },
                {
                    "name": "G3",
                    "midi": 55,
                    "time": 130.875,
                    "velocity": 0.2677165354330709,
                    "duration": 0.1875
                },
                {
                    "name": "B3",
                    "midi": 59,
                    "time": 130.875,
                    "velocity": 0.3228346456692913,
                    "duration": 0.1875
                },
                {
                    "name": "B4",
                    "midi": 71,
                    "time": 131.25,
                    "velocity": 0.3228346456692913,
                    "duration": 0.1875
                },
                {
                    "name": "G4",
                    "midi": 67,
                    "time": 131.25,
                    "velocity": 0.3228346456692913,
                    "duration": 0.1875
                },
                {
                    "name": "B4",
                    "midi": 71,
                    "time": 131.4375,
                    "velocity": 0.2992125984251969,
                    "duration": 0.1875
                },
                {
                    "name": "G4",
                    "midi": 67,
                    "time": 131.4375,
                    "velocity": 0.2992125984251969,
                    "duration": 0.1875
                },
                {
                    "name": "B4",
                    "midi": 71,
                    "time": 131.625,
                    "velocity": 0.3464566929133858,
                    "duration": 0.1875
                },
                {
                    "name": "G4",
                    "midi": 67,
                    "time": 131.625,
                    "velocity": 0.3464566929133858,
                    "duration": 0.1875
                },
                {
                    "name": "G4",
                    "midi": 67,
                    "time": 131.8125,
                    "velocity": 0.3228346456692913,
                    "duration": 0.1875
                },
                {
                    "name": "B4",
                    "midi": 71,
                    "time": 131.8125,
                    "velocity": 0.3228346456692913,
                    "duration": 0.1875
                },
                {
                    "name": "B4",
                    "midi": 71,
                    "time": 132,
                    "velocity": 0.36220472440944884,
                    "duration": 0.1875
                },
                {
                    "name": "G4",
                    "midi": 67,
                    "time": 132,
                    "velocity": 0.30708661417322836,
                    "duration": 0.1875
                },
                {
                    "name": "G4",
                    "midi": 67,
                    "time": 132.1875,
                    "velocity": 0.30708661417322836,
                    "duration": 0.1875
                },
                {
                    "name": "B4",
                    "midi": 71,
                    "time": 132.1875,
                    "velocity": 0.36220472440944884,
                    "duration": 0.1875
                },
                {
                    "name": "G4",
                    "midi": 67,
                    "time": 132.375,
                    "velocity": 0.30708661417322836,
                    "duration": 0.1875
                },
                {
                    "name": "B4",
                    "midi": 71,
                    "time": 132.375,
                    "velocity": 0.36220472440944884,
                    "duration": 0.1875
                },
                {
                    "name": "G4",
                    "midi": 67,
                    "time": 132.5625,
                    "velocity": 0.30708661417322836,
                    "duration": 0.1875
                },
                {
                    "name": "B4",
                    "midi": 71,
                    "time": 132.5625,
                    "velocity": 0.36220472440944884,
                    "duration": 0.1875
                },
                {
                    "name": "F#4",
                    "midi": 66,
                    "time": 132.75,
                    "velocity": 0.36220472440944884,
                    "duration": 0.1875
                },
                {
                    "name": "A3",
                    "midi": 57,
                    "time": 132.75,
                    "velocity": 0.30708661417322836,
                    "duration": 0.1875
                },
                {
                    "name": "A3",
                    "midi": 57,
                    "time": 132.9375,
                    "velocity": 0.30708661417322836,
                    "duration": 0.1875
                },
                {
                    "name": "F#4",
                    "midi": 66,
                    "time": 132.9375,
                    "velocity": 0.36220472440944884,
                    "duration": 0.1875
                },
                {
                    "name": "A3",
                    "midi": 57,
                    "time": 133.125,
                    "velocity": 0.30708661417322836,
                    "duration": 0.1875
                },
                {
                    "name": "E4",
                    "midi": 64,
                    "time": 133.125,
                    "velocity": 0.36220472440944884,
                    "duration": 0.1875
                },
                {
                    "name": "A3",
                    "midi": 57,
                    "time": 133.3125,
                    "velocity": 0.30708661417322836,
                    "duration": 0.1875
                },
                {
                    "name": "E4",
                    "midi": 64,
                    "time": 133.3125,
                    "velocity": 0.36220472440944884,
                    "duration": 0.1875
                },
                {
                    "name": "D4",
                    "midi": 62,
                    "time": 133.5,
                    "velocity": 0.29133858267716534,
                    "duration": 0.1875
                },
                {
                    "name": "F#4",
                    "midi": 66,
                    "time": 133.5,
                    "velocity": 0.3464566929133858,
                    "duration": 0.1875
                },
                {
                    "name": "D4",
                    "midi": 62,
                    "time": 133.6875,
                    "velocity": 0.25196850393700787,
                    "duration": 0.1875
                },
                {
                    "name": "F#4",
                    "midi": 66,
                    "time": 133.6875,
                    "velocity": 0.2992125984251969,
                    "duration": 0.1875
                },
                {
                    "name": "D4",
                    "midi": 62,
                    "time": 133.875,
                    "velocity": 0.25196850393700787,
                    "duration": 0.1875
                },
                {
                    "name": "F#4",
                    "midi": 66,
                    "time": 133.875,
                    "velocity": 0.2992125984251969,
                    "duration": 0.1875
                },
                {
                    "name": "D4",
                    "midi": 62,
                    "time": 134.0625,
                    "velocity": 0.25196850393700787,
                    "duration": 0.1875
                },
                {
                    "name": "F#4",
                    "midi": 66,
                    "time": 134.0625,
                    "velocity": 0.2992125984251969,
                    "duration": 0.1875
                },
                {
                    "name": "D4",
                    "midi": 62,
                    "time": 134.25,
                    "velocity": 0.28346456692913385,
                    "duration": 0.1875
                },
                {
                    "name": "G4",
                    "midi": 67,
                    "time": 134.25,
                    "velocity": 0.33858267716535434,
                    "duration": 0.1875
                },
                {
                    "name": "D4",
                    "midi": 62,
                    "time": 134.4375,
                    "velocity": 0.25196850393700787,
                    "duration": 0.1875
                },
                {
                    "name": "G4",
                    "midi": 67,
                    "time": 134.4375,
                    "velocity": 0.2992125984251969,
                    "duration": 0.1875
                },
                {
                    "name": "D4",
                    "midi": 62,
                    "time": 134.625,
                    "velocity": 0.25196850393700787,
                    "duration": 0.1875
                },
                {
                    "name": "G4",
                    "midi": 67,
                    "time": 134.625,
                    "velocity": 0.2992125984251969,
                    "duration": 0.1875
                },
                {
                    "name": "D4",
                    "midi": 62,
                    "time": 134.8125,
                    "velocity": 0.25196850393700787,
                    "duration": 0.1875
                },
                {
                    "name": "G4",
                    "midi": 67,
                    "time": 134.8125,
                    "velocity": 0.2992125984251969,
                    "duration": 0.1875
                },
                {
                    "name": "D4",
                    "midi": 62,
                    "time": 135,
                    "velocity": 0.29133858267716534,
                    "duration": 0.1875
                },
                {
                    "name": "F#4",
                    "midi": 66,
                    "time": 135,
                    "velocity": 0.3464566929133858,
                    "duration": 0.1875
                },
                {
                    "name": "D4",
                    "midi": 62,
                    "time": 135.1875,
                    "velocity": 0.25196850393700787,
                    "duration": 0.1875
                },
                {
                    "name": "F#4",
                    "midi": 66,
                    "time": 135.1875,
                    "velocity": 0.2992125984251969,
                    "duration": 0.1875
                },
                {
                    "name": "D4",
                    "midi": 62,
                    "time": 135.375,
                    "velocity": 0.25196850393700787,
                    "duration": 0.1875
                },
                {
                    "name": "F#4",
                    "midi": 66,
                    "time": 135.375,
                    "velocity": 0.2992125984251969,
                    "duration": 0.1875
                },
                {
                    "name": "D4",
                    "midi": 62,
                    "time": 135.5625,
                    "velocity": 0.25196850393700787,
                    "duration": 0.1875
                },
                {
                    "name": "F#4",
                    "midi": 66,
                    "time": 135.5625,
                    "velocity": 0.2992125984251969,
                    "duration": 0.1875
                },
                {
                    "name": "D4",
                    "midi": 62,
                    "time": 135.75,
                    "velocity": 0.29133858267716534,
                    "duration": 0.1875
                },
                {
                    "name": "G4",
                    "midi": 67,
                    "time": 135.75,
                    "velocity": 0.3464566929133858,
                    "duration": 0.1875
                },
                {
                    "name": "D4",
                    "midi": 62,
                    "time": 135.9375,
                    "velocity": 0.25196850393700787,
                    "duration": 0.1875
                },
                {
                    "name": "G4",
                    "midi": 67,
                    "time": 135.9375,
                    "velocity": 0.2992125984251969,
                    "duration": 0.1875
                },
                {
                    "name": "D4",
                    "midi": 62,
                    "time": 136.125,
                    "velocity": 0.25196850393700787,
                    "duration": 0.1875
                },
                {
                    "name": "G4",
                    "midi": 67,
                    "time": 136.125,
                    "velocity": 0.2992125984251969,
                    "duration": 0.1875
                },
                {
                    "name": "D4",
                    "midi": 62,
                    "time": 136.3125,
                    "velocity": 0.25196850393700787,
                    "duration": 0.1875
                },
                {
                    "name": "G4",
                    "midi": 67,
                    "time": 136.3125,
                    "velocity": 0.2992125984251969,
                    "duration": 0.1875
                },
                {
                    "name": "D4",
                    "midi": 62,
                    "time": 136.5,
                    "velocity": 0.2992125984251969,
                    "duration": 0.1875
                },
                {
                    "name": "F#4",
                    "midi": 66,
                    "time": 136.5,
                    "velocity": 0.3543307086614173,
                    "duration": 0.1875
                },
                {
                    "name": "D4",
                    "midi": 62,
                    "time": 136.6875,
                    "velocity": 0.2677165354330709,
                    "duration": 0.1875
                },
                {
                    "name": "F#4",
                    "midi": 66,
                    "time": 136.6875,
                    "velocity": 0.3228346456692913,
                    "duration": 0.1875
                },
                {
                    "name": "D4",
                    "midi": 62,
                    "time": 136.875,
                    "velocity": 0.2992125984251969,
                    "duration": 0.1875
                },
                {
                    "name": "F#4",
                    "midi": 66,
                    "time": 136.875,
                    "velocity": 0.3543307086614173,
                    "duration": 0.1875
                },
                {
                    "name": "D4",
                    "midi": 62,
                    "time": 137.0625,
                    "velocity": 0.2677165354330709,
                    "duration": 0.09375
                },
                {
                    "name": "F#4",
                    "midi": 66,
                    "time": 137.0625,
                    "velocity": 0.31496062992125984,
                    "duration": 0.09375
                },
                {
                    "name": "D4",
                    "midi": 62,
                    "time": 137.25,
                    "velocity": 0.31496062992125984,
                    "duration": 0.375
                },
                {
                    "name": "F#4",
                    "midi": 66,
                    "time": 137.25,
                    "velocity": 0.3779527559055118,
                    "duration": 0.375
                },
                {
                    "name": "A#3",
                    "midi": 58,
                    "time": 138,
                    "velocity": 0.3543307086614173,
                    "duration": 0.09375
                },
                {
                    "name": "F4",
                    "midi": 65,
                    "time": 138.09375,
                    "velocity": 0.30708661417322836,
                    "duration": 0.09375
                },
                {
                    "name": "D4",
                    "midi": 62,
                    "time": 138.1875,
                    "velocity": 0.3543307086614173,
                    "duration": 0.09375
                },
                {
                    "name": "F4",
                    "midi": 65,
                    "time": 138.28125,
                    "velocity": 0.2992125984251969,
                    "duration": 0.09375
                },
                {
                    "name": "A#3",
                    "midi": 58,
                    "time": 138.375,
                    "velocity": 0.3543307086614173,
                    "duration": 0.09375
                },
                {
                    "name": "F4",
                    "midi": 65,
                    "time": 138.46875,
                    "velocity": 0.3228346456692913,
                    "duration": 0.09375
                },
                {
                    "name": "D4",
                    "midi": 62,
                    "time": 138.5625,
                    "velocity": 0.3543307086614173,
                    "duration": 0.09375
                },
                {
                    "name": "F4",
                    "midi": 65,
                    "time": 138.65625,
                    "velocity": 0.30708661417322836,
                    "duration": 0.09375
                },
                {
                    "name": "C4",
                    "midi": 60,
                    "time": 138.75,
                    "velocity": 0.3543307086614173,
                    "duration": 0.09375
                },
                {
                    "name": "F4",
                    "midi": 65,
                    "time": 138.84375,
                    "velocity": 0.30708661417322836,
                    "duration": 0.09375
                },
                {
                    "name": "D#4",
                    "midi": 63,
                    "time": 138.9375,
                    "velocity": 0.3543307086614173,
                    "duration": 0.09375
                },
                {
                    "name": "F4",
                    "midi": 65,
                    "time": 139.03125,
                    "velocity": 0.30708661417322836,
                    "duration": 0.09375
                },
                {
                    "name": "C4",
                    "midi": 60,
                    "time": 139.125,
                    "velocity": 0.3543307086614173,
                    "duration": 0.09375
                },
                {
                    "name": "F4",
                    "midi": 65,
                    "time": 139.21875,
                    "velocity": 0.3228346456692913,
                    "duration": 0.09375
                },
                {
                    "name": "D#4",
                    "midi": 63,
                    "time": 139.3125,
                    "velocity": 0.3543307086614173,
                    "duration": 0.09375
                },
                {
                    "name": "F4",
                    "midi": 65,
                    "time": 139.40625,
                    "velocity": 0.31496062992125984,
                    "duration": 0.09375
                },
                {
                    "name": "A#3",
                    "midi": 58,
                    "time": 139.5,
                    "velocity": 0.3543307086614173,
                    "duration": 0.09375
                },
                {
                    "name": "F4",
                    "midi": 65,
                    "time": 139.59375,
                    "velocity": 0.31496062992125984,
                    "duration": 0.09375
                },
                {
                    "name": "D4",
                    "midi": 62,
                    "time": 139.6875,
                    "velocity": 0.3543307086614173,
                    "duration": 0.09375
                },
                {
                    "name": "F4",
                    "midi": 65,
                    "time": 139.78125,
                    "velocity": 0.31496062992125984,
                    "duration": 0.09375
                },
                {
                    "name": "A#3",
                    "midi": 58,
                    "time": 139.875,
                    "velocity": 0.3543307086614173,
                    "duration": 0.09375
                },
                {
                    "name": "F4",
                    "midi": 65,
                    "time": 139.96875,
                    "velocity": 0.31496062992125984,
                    "duration": 0.09375
                },
                {
                    "name": "D4",
                    "midi": 62,
                    "time": 140.0625,
                    "velocity": 0.3543307086614173,
                    "duration": 0.09375
                },
                {
                    "name": "F4",
                    "midi": 65,
                    "time": 140.15625,
                    "velocity": 0.30708661417322836,
                    "duration": 0.09375
                },
                {
                    "name": "A3",
                    "midi": 57,
                    "time": 140.25,
                    "velocity": 0.3543307086614173,
                    "duration": 0.09375
                },
                {
                    "name": "D4",
                    "midi": 62,
                    "time": 140.34375,
                    "velocity": 0.30708661417322836,
                    "duration": 0.09375
                },
                {
                    "name": "C4",
                    "midi": 60,
                    "time": 140.4375,
                    "velocity": 0.3543307086614173,
                    "duration": 0.09375
                },
                {
                    "name": "D4",
                    "midi": 62,
                    "time": 140.53125,
                    "velocity": 0.3228346456692913,
                    "duration": 0.09375
                },
                {
                    "name": "A3",
                    "midi": 57,
                    "time": 140.625,
                    "velocity": 0.3543307086614173,
                    "duration": 0.09375
                },
                {
                    "name": "D4",
                    "midi": 62,
                    "time": 140.71875,
                    "velocity": 0.31496062992125984,
                    "duration": 0.09375
                },
                {
                    "name": "C4",
                    "midi": 60,
                    "time": 140.8125,
                    "velocity": 0.3543307086614173,
                    "duration": 0.09375
                },
                {
                    "name": "D4",
                    "midi": 62,
                    "time": 140.90625,
                    "velocity": 0.31496062992125984,
                    "duration": 0.09375
                },
                {
                    "name": "G3",
                    "midi": 55,
                    "time": 141,
                    "velocity": 0.3543307086614173,
                    "duration": 0.09375
                },
                {
                    "name": "D4",
                    "midi": 62,
                    "time": 141.09375,
                    "velocity": 0.31496062992125984,
                    "duration": 0.09375
                },
                {
                    "name": "A#3",
                    "midi": 58,
                    "time": 141.1875,
                    "velocity": 0.3543307086614173,
                    "duration": 0.09375
                },
                {
                    "name": "D4",
                    "midi": 62,
                    "time": 141.28125,
                    "velocity": 0.30708661417322836,
                    "duration": 0.09375
                },
                {
                    "name": "G3",
                    "midi": 55,
                    "time": 141.375,
                    "velocity": 0.3543307086614173,
                    "duration": 0.09375
                },
                {
                    "name": "D4",
                    "midi": 62,
                    "time": 141.46875,
                    "velocity": 0.31496062992125984,
                    "duration": 0.09375
                },
                {
                    "name": "A#3",
                    "midi": 58,
                    "time": 141.5625,
                    "velocity": 0.3543307086614173,
                    "duration": 0.09375
                },
                {
                    "name": "D4",
                    "midi": 62,
                    "time": 141.65625,
                    "velocity": 0.31496062992125984,
                    "duration": 0.09375
                },
                {
                    "name": "D#3",
                    "midi": 51,
                    "time": 141.75,
                    "velocity": 0.3543307086614173,
                    "duration": 0.09375
                },
                {
                    "name": "G3",
                    "midi": 55,
                    "time": 141.84375,
                    "velocity": 0.30708661417322836,
                    "duration": 0.09375
                },
                {
                    "name": "F#3",
                    "midi": 54,
                    "time": 141.9375,
                    "velocity": 0.3543307086614173,
                    "duration": 0.09375
                },
                {
                    "name": "G3",
                    "midi": 55,
                    "time": 142.03125,
                    "velocity": 0.30708661417322836,
                    "duration": 0.09375
                },
                {
                    "name": "D#3",
                    "midi": 51,
                    "time": 142.125,
                    "velocity": 0.3543307086614173,
                    "duration": 0.09375
                },
                {
                    "name": "G3",
                    "midi": 55,
                    "time": 142.21875,
                    "velocity": 0.30708661417322836,
                    "duration": 0.09375
                },
                {
                    "name": "F#3",
                    "midi": 54,
                    "time": 142.3125,
                    "velocity": 0.3543307086614173,
                    "duration": 0.09375
                },
                {
                    "name": "G3",
                    "midi": 55,
                    "time": 142.40625,
                    "velocity": 0.30708661417322836,
                    "duration": 0.09375
                },
                {
                    "name": "D3",
                    "midi": 50,
                    "time": 142.5,
                    "velocity": 0.4566929133858268,
                    "duration": 0.375
                },
                {
                    "name": "D2",
                    "midi": 38,
                    "time": 143.25,
                    "velocity": 0.47244094488188976,
                    "duration": 0.09375
                },
                {
                    "name": "D3",
                    "midi": 50,
                    "time": 143.34375,
                    "velocity": 0.47244094488188976,
                    "duration": 0.09375
                },
                {
                    "name": "C2",
                    "midi": 36,
                    "time": 143.4375,
                    "velocity": 0.47244094488188976,
                    "duration": 0.09375
                },
                {
                    "name": "C3",
                    "midi": 48,
                    "time": 143.53125,
                    "velocity": 0.4645669291338583,
                    "duration": 0.09375
                },
                {
                    "name": "B1",
                    "midi": 35,
                    "time": 143.625,
                    "velocity": 0.4566929133858268,
                    "duration": 0.09375
                },
                {
                    "name": "B2",
                    "midi": 47,
                    "time": 143.71875,
                    "velocity": 0.44881889763779526,
                    "duration": 0.09375
                },
                {
                    "name": "A1",
                    "midi": 33,
                    "time": 143.8125,
                    "velocity": 0.4409448818897638,
                    "duration": 0.09375
                },
                {
                    "name": "A2",
                    "midi": 45,
                    "time": 143.90625,
                    "velocity": 0.4409448818897638,
                    "duration": 0.09375
                },
                {
                    "name": "G1",
                    "midi": 31,
                    "time": 144,
                    "velocity": 0.5118110236220472,
                    "duration": 0.375
                },
                {
                    "name": "G3",
                    "midi": 55,
                    "time": 144.375,
                    "velocity": 0.23622047244094488,
                    "duration": 0.1875
                },
                {
                    "name": "B3",
                    "midi": 59,
                    "time": 144.375,
                    "velocity": 0.28346456692913385,
                    "duration": 0.1875
                },
                {
                    "name": "G3",
                    "midi": 55,
                    "time": 144.5625,
                    "velocity": 0.23622047244094488,
                    "duration": 0.1875
                },
                {
                    "name": "B3",
                    "midi": 59,
                    "time": 144.5625,
                    "velocity": 0.28346456692913385,
                    "duration": 0.1875
                },
                {
                    "name": "G3",
                    "midi": 55,
                    "time": 144.75,
                    "velocity": 0.2677165354330709,
                    "duration": 0.1875
                },
                {
                    "name": "B3",
                    "midi": 59,
                    "time": 144.75,
                    "velocity": 0.31496062992125984,
                    "duration": 0.1875
                },
                {
                    "name": "G3",
                    "midi": 55,
                    "time": 144.9375,
                    "velocity": 0.25196850393700787,
                    "duration": 0.1875
                },
                {
                    "name": "B3",
                    "midi": 59,
                    "time": 144.9375,
                    "velocity": 0.2992125984251969,
                    "duration": 0.1875
                },
                {
                    "name": "G3",
                    "midi": 55,
                    "time": 145.125,
                    "velocity": 0.25196850393700787,
                    "duration": 0.1875
                },
                {
                    "name": "B3",
                    "midi": 59,
                    "time": 145.125,
                    "velocity": 0.2992125984251969,
                    "duration": 0.1875
                },
                {
                    "name": "G3",
                    "midi": 55,
                    "time": 145.3125,
                    "velocity": 0.25196850393700787,
                    "duration": 0.1875
                },
                {
                    "name": "B3",
                    "midi": 59,
                    "time": 145.3125,
                    "velocity": 0.2992125984251969,
                    "duration": 0.1875
                },
                {
                    "name": "G3",
                    "midi": 55,
                    "time": 145.5,
                    "velocity": 0.29133858267716534,
                    "duration": 0.375
                },
                {
                    "name": "C4",
                    "midi": 60,
                    "time": 145.5,
                    "velocity": 0.3464566929133858,
                    "duration": 0.375
                },
                {
                    "name": "G3",
                    "midi": 55,
                    "time": 145.875,
                    "velocity": 0.2677165354330709,
                    "duration": 0.1875
                },
                {
                    "name": "B3",
                    "midi": 59,
                    "time": 145.875,
                    "velocity": 0.3228346456692913,
                    "duration": 0.1875
                },
                {
                    "name": "D5",
                    "midi": 74,
                    "time": 146.25,
                    "velocity": 0.3228346456692913,
                    "duration": 0.1875
                },
                {
                    "name": "G#4",
                    "midi": 68,
                    "time": 146.25,
                    "velocity": 0.3228346456692913,
                    "duration": 0.1875
                },
                {
                    "name": "D5",
                    "midi": 74,
                    "time": 146.4375,
                    "velocity": 0.2992125984251969,
                    "duration": 0.1875
                },
                {
                    "name": "G#4",
                    "midi": 68,
                    "time": 146.4375,
                    "velocity": 0.2992125984251969,
                    "duration": 0.1875
                },
                {
                    "name": "D5",
                    "midi": 74,
                    "time": 146.625,
                    "velocity": 0.3464566929133858,
                    "duration": 0.1875
                },
                {
                    "name": "G#4",
                    "midi": 68,
                    "time": 146.625,
                    "velocity": 0.3464566929133858,
                    "duration": 0.1875
                },
                {
                    "name": "G#4",
                    "midi": 68,
                    "time": 146.8125,
                    "velocity": 0.3228346456692913,
                    "duration": 0.1875
                },
                {
                    "name": "D5",
                    "midi": 74,
                    "time": 146.8125,
                    "velocity": 0.3228346456692913,
                    "duration": 0.1875
                },
                {
                    "name": "A4",
                    "midi": 69,
                    "time": 147,
                    "velocity": 0.3937007874015748,
                    "duration": 0.375
                },
                {
                    "name": "C5",
                    "midi": 72,
                    "time": 147,
                    "velocity": 0.3937007874015748,
                    "duration": 0.375
                },
                {
                    "name": "C5",
                    "midi": 72,
                    "time": 147.75,
                    "velocity": 0.3228346456692913,
                    "duration": 0.1875
                },
                {
                    "name": "F#4",
                    "midi": 66,
                    "time": 147.75,
                    "velocity": 0.3228346456692913,
                    "duration": 0.1875
                },
                {
                    "name": "C5",
                    "midi": 72,
                    "time": 147.9375,
                    "velocity": 0.2992125984251969,
                    "duration": 0.1875
                },
                {
                    "name": "F#4",
                    "midi": 66,
                    "time": 147.9375,
                    "velocity": 0.2992125984251969,
                    "duration": 0.1875
                },
                {
                    "name": "C5",
                    "midi": 72,
                    "time": 148.125,
                    "velocity": 0.3464566929133858,
                    "duration": 0.1875
                },
                {
                    "name": "F#4",
                    "midi": 66,
                    "time": 148.125,
                    "velocity": 0.3464566929133858,
                    "duration": 0.1875
                },
                {
                    "name": "F#4",
                    "midi": 66,
                    "time": 148.3125,
                    "velocity": 0.3228346456692913,
                    "duration": 0.1875
                },
                {
                    "name": "C5",
                    "midi": 72,
                    "time": 148.3125,
                    "velocity": 0.3228346456692913,
                    "duration": 0.1875
                },
                {
                    "name": "G4",
                    "midi": 67,
                    "time": 148.5,
                    "velocity": 0.3937007874015748,
                    "duration": 0.375
                },
                {
                    "name": "B4",
                    "midi": 71,
                    "time": 148.5,
                    "velocity": 0.3937007874015748,
                    "duration": 0.375
                },
                {
                    "name": "E4",
                    "midi": 64,
                    "time": 151.5,
                    "velocity": 0.2677165354330709,
                    "duration": 0.375
                },
                {
                    "name": "G4",
                    "midi": 67,
                    "time": 151.5,
                    "velocity": 0.2677165354330709,
                    "duration": 0.375
                },
                {
                    "name": "D#4",
                    "midi": 63,
                    "time": 152.25,
                    "velocity": 0.3543307086614173,
                    "duration": 0.09375
                },
                {
                    "name": "G4",
                    "midi": 67,
                    "time": 152.34375,
                    "velocity": 0.2992125984251969,
                    "duration": 0.09375
                },
                {
                    "name": "D#4",
                    "midi": 63,
                    "time": 152.4375,
                    "velocity": 0.3543307086614173,
                    "duration": 0.09375
                },
                {
                    "name": "G4",
                    "midi": 67,
                    "time": 152.53125,
                    "velocity": 0.2992125984251969,
                    "duration": 0.09375
                },
                {
                    "name": "D#4",
                    "midi": 63,
                    "time": 152.625,
                    "velocity": 0.3543307086614173,
                    "duration": 0.09375
                },
                {
                    "name": "G4",
                    "midi": 67,
                    "time": 152.71875,
                    "velocity": 0.30708661417322836,
                    "duration": 0.09375
                },
                {
                    "name": "D#4",
                    "midi": 63,
                    "time": 152.8125,
                    "velocity": 0.3543307086614173,
                    "duration": 0.09375
                },
                {
                    "name": "G4",
                    "midi": 67,
                    "time": 152.90625,
                    "velocity": 0.30708661417322836,
                    "duration": 0.09375
                },
                {
                    "name": "D4",
                    "midi": 62,
                    "time": 153,
                    "velocity": 0.3937007874015748,
                    "duration": 0.375
                },
                {
                    "name": "F#4",
                    "midi": 66,
                    "time": 153,
                    "velocity": 0.3937007874015748,
                    "duration": 0.375
                },
                {
                    "name": "G4",
                    "midi": 67,
                    "time": 153.375,
                    "velocity": 0.36220472440944884,
                    "duration": 0.375
                },
                {
                    "name": "C4",
                    "midi": 60,
                    "time": 153.75,
                    "velocity": 0.3858267716535433,
                    "duration": 0.375
                },
                {
                    "name": "C5",
                    "midi": 72,
                    "time": 153.75,
                    "velocity": 0.3858267716535433,
                    "duration": 0.375
                },
                {
                    "name": "D4",
                    "midi": 62,
                    "time": 154.125,
                    "velocity": 0.3700787401574803,
                    "duration": 0.375
                },
                {
                    "name": "C5",
                    "midi": 72,
                    "time": 154.125,
                    "velocity": 0.3700787401574803,
                    "duration": 0.375
                },
                {
                    "name": "G4",
                    "midi": 67,
                    "time": 154.5,
                    "velocity": 0.30708661417322836,
                    "duration": 0.1875
                },
                {
                    "name": "B4",
                    "midi": 71,
                    "time": 154.5,
                    "velocity": 0.3700787401574803,
                    "duration": 0.1875
                },
                {
                    "name": "G4",
                    "midi": 67,
                    "time": 154.6875,
                    "velocity": 0.2677165354330709,
                    "duration": 0.1875
                },
                {
                    "name": "B4",
                    "midi": 71,
                    "time": 154.6875,
                    "velocity": 0.31496062992125984,
                    "duration": 0.1875
                },
                {
                    "name": "G4",
                    "midi": 67,
                    "time": 154.875,
                    "velocity": 0.28346456692913385,
                    "duration": 0.1875
                },
                {
                    "name": "B4",
                    "midi": 71,
                    "time": 154.875,
                    "velocity": 0.33858267716535434,
                    "duration": 0.1875
                },
                {
                    "name": "G4",
                    "midi": 67,
                    "time": 155.0625,
                    "velocity": 0.2677165354330709,
                    "duration": 0.1875
                },
                {
                    "name": "B4",
                    "midi": 71,
                    "time": 155.0625,
                    "velocity": 0.31496062992125984,
                    "duration": 0.1875
                },
                {
                    "name": "G4",
                    "midi": 67,
                    "time": 155.25,
                    "velocity": 0.28346456692913385,
                    "duration": 0.1875
                },
                {
                    "name": "C5",
                    "midi": 72,
                    "time": 155.25,
                    "velocity": 0.33858267716535434,
                    "duration": 0.1875
                },
                {
                    "name": "G4",
                    "midi": 67,
                    "time": 155.4375,
                    "velocity": 0.2440944881889764,
                    "duration": 0.1875
                },
                {
                    "name": "C5",
                    "midi": 72,
                    "time": 155.4375,
                    "velocity": 0.29133858267716534,
                    "duration": 0.1875
                },
                {
                    "name": "G4",
                    "midi": 67,
                    "time": 155.625,
                    "velocity": 0.28346456692913385,
                    "duration": 0.1875
                },
                {
                    "name": "C5",
                    "midi": 72,
                    "time": 155.625,
                    "velocity": 0.33858267716535434,
                    "duration": 0.1875
                },
                {
                    "name": "G4",
                    "midi": 67,
                    "time": 155.8125,
                    "velocity": 0.2440944881889764,
                    "duration": 0.1875
                },
                {
                    "name": "C5",
                    "midi": 72,
                    "time": 155.8125,
                    "velocity": 0.29133858267716534,
                    "duration": 0.1875
                },
                {
                    "name": "G4",
                    "midi": 67,
                    "time": 156,
                    "velocity": 0.30708661417322836,
                    "duration": 0.1875
                },
                {
                    "name": "B4",
                    "midi": 71,
                    "time": 156,
                    "velocity": 0.3700787401574803,
                    "duration": 0.1875
                },
                {
                    "name": "G4",
                    "midi": 67,
                    "time": 156.1875,
                    "velocity": 0.2677165354330709,
                    "duration": 0.1875
                },
                {
                    "name": "B4",
                    "midi": 71,
                    "time": 156.1875,
                    "velocity": 0.31496062992125984,
                    "duration": 0.1875
                },
                {
                    "name": "G4",
                    "midi": 67,
                    "time": 156.375,
                    "velocity": 0.28346456692913385,
                    "duration": 0.1875
                },
                {
                    "name": "B4",
                    "midi": 71,
                    "time": 156.375,
                    "velocity": 0.33858267716535434,
                    "duration": 0.1875
                },
                {
                    "name": "G4",
                    "midi": 67,
                    "time": 156.5625,
                    "velocity": 0.2677165354330709,
                    "duration": 0.1875
                },
                {
                    "name": "B4",
                    "midi": 71,
                    "time": 156.5625,
                    "velocity": 0.31496062992125984,
                    "duration": 0.1875
                },
                {
                    "name": "G4",
                    "midi": 67,
                    "time": 156.75,
                    "velocity": 0.28346456692913385,
                    "duration": 0.1875
                },
                {
                    "name": "C5",
                    "midi": 72,
                    "time": 156.75,
                    "velocity": 0.33858267716535434,
                    "duration": 0.1875
                },
                {
                    "name": "G4",
                    "midi": 67,
                    "time": 156.9375,
                    "velocity": 0.2440944881889764,
                    "duration": 0.1875
                },
                {
                    "name": "C5",
                    "midi": 72,
                    "time": 156.9375,
                    "velocity": 0.29133858267716534,
                    "duration": 0.1875
                },
                {
                    "name": "G4",
                    "midi": 67,
                    "time": 157.125,
                    "velocity": 0.28346456692913385,
                    "duration": 0.1875
                },
                {
                    "name": "C5",
                    "midi": 72,
                    "time": 157.125,
                    "velocity": 0.33858267716535434,
                    "duration": 0.1875
                },
                {
                    "name": "G4",
                    "midi": 67,
                    "time": 157.3125,
                    "velocity": 0.2440944881889764,
                    "duration": 0.1875
                },
                {
                    "name": "C5",
                    "midi": 72,
                    "time": 157.3125,
                    "velocity": 0.29133858267716534,
                    "duration": 0.1875
                },
                {
                    "name": "G4",
                    "midi": 67,
                    "time": 157.5,
                    "velocity": 0.30708661417322836,
                    "duration": 0.375
                },
                {
                    "name": "B4",
                    "midi": 71,
                    "time": 157.5,
                    "velocity": 0.3700787401574803,
                    "duration": 0.375
                },
                {
                    "name": "G4",
                    "midi": 67,
                    "time": 157.96875,
                    "velocity": 0.4409448818897638,
                    "duration": 0.09375
                },
                {
                    "name": "D4",
                    "midi": 62,
                    "time": 158.0625,
                    "velocity": 0.4330708661417323,
                    "duration": 0.09375
                },
                {
                    "name": "B3",
                    "midi": 59,
                    "time": 158.15625,
                    "velocity": 0.4251968503937008,
                    "duration": 0.09375
                },
                {
                    "name": "G3",
                    "midi": 55,
                    "time": 158.25,
                    "velocity": 0.47244094488188976,
                    "duration": 0.1875
                },
                {
                    "name": "A#3",
                    "midi": 58,
                    "time": 159,
                    "velocity": 0.3543307086614173,
                    "duration": 0.09375
                },
                {
                    "name": "F4",
                    "midi": 65,
                    "time": 159.09375,
                    "velocity": 0.30708661417322836,
                    "duration": 0.09375
                },
                {
                    "name": "D4",
                    "midi": 62,
                    "time": 159.1875,
                    "velocity": 0.3543307086614173,
                    "duration": 0.09375
                },
                {
                    "name": "F4",
                    "midi": 65,
                    "time": 159.28125,
                    "velocity": 0.2992125984251969,
                    "duration": 0.09375
                },
                {
                    "name": "A#3",
                    "midi": 58,
                    "time": 159.375,
                    "velocity": 0.3543307086614173,
                    "duration": 0.09375
                },
                {
                    "name": "F4",
                    "midi": 65,
                    "time": 159.46875,
                    "velocity": 0.3228346456692913,
                    "duration": 0.09375
                },
                {
                    "name": "D4",
                    "midi": 62,
                    "time": 159.5625,
                    "velocity": 0.3543307086614173,
                    "duration": 0.09375
                },
                {
                    "name": "F4",
                    "midi": 65,
                    "time": 159.65625,
                    "velocity": 0.30708661417322836,
                    "duration": 0.09375
                },
                {
                    "name": "C4",
                    "midi": 60,
                    "time": 159.75,
                    "velocity": 0.3543307086614173,
                    "duration": 0.09375
                },
                {
                    "name": "F4",
                    "midi": 65,
                    "time": 159.84375,
                    "velocity": 0.30708661417322836,
                    "duration": 0.09375
                },
                {
                    "name": "D#4",
                    "midi": 63,
                    "time": 159.9375,
                    "velocity": 0.3543307086614173,
                    "duration": 0.09375
                },
                {
                    "name": "F4",
                    "midi": 65,
                    "time": 160.03125,
                    "velocity": 0.30708661417322836,
                    "duration": 0.09375
                },
                {
                    "name": "C4",
                    "midi": 60,
                    "time": 160.125,
                    "velocity": 0.3543307086614173,
                    "duration": 0.09375
                },
                {
                    "name": "F4",
                    "midi": 65,
                    "time": 160.21875,
                    "velocity": 0.3228346456692913,
                    "duration": 0.09375
                },
                {
                    "name": "D#4",
                    "midi": 63,
                    "time": 160.3125,
                    "velocity": 0.3543307086614173,
                    "duration": 0.09375
                },
                {
                    "name": "F4",
                    "midi": 65,
                    "time": 160.40625,
                    "velocity": 0.31496062992125984,
                    "duration": 0.09375
                },
                {
                    "name": "A#3",
                    "midi": 58,
                    "time": 160.5,
                    "velocity": 0.3543307086614173,
                    "duration": 0.09375
                },
                {
                    "name": "F4",
                    "midi": 65,
                    "time": 160.59375,
                    "velocity": 0.31496062992125984,
                    "duration": 0.09375
                },
                {
                    "name": "D4",
                    "midi": 62,
                    "time": 160.6875,
                    "velocity": 0.3543307086614173,
                    "duration": 0.09375
                },
                {
                    "name": "F4",
                    "midi": 65,
                    "time": 160.78125,
                    "velocity": 0.31496062992125984,
                    "duration": 0.09375
                },
                {
                    "name": "A#3",
                    "midi": 58,
                    "time": 160.875,
                    "velocity": 0.3543307086614173,
                    "duration": 0.09375
                },
                {
                    "name": "F4",
                    "midi": 65,
                    "time": 160.96875,
                    "velocity": 0.31496062992125984,
                    "duration": 0.09375
                },
                {
                    "name": "D4",
                    "midi": 62,
                    "time": 161.0625,
                    "velocity": 0.3543307086614173,
                    "duration": 0.09375
                },
                {
                    "name": "F4",
                    "midi": 65,
                    "time": 161.15625,
                    "velocity": 0.30708661417322836,
                    "duration": 0.09375
                },
                {
                    "name": "A3",
                    "midi": 57,
                    "time": 161.25,
                    "velocity": 0.3543307086614173,
                    "duration": 0.09375
                },
                {
                    "name": "D4",
                    "midi": 62,
                    "time": 161.34375,
                    "velocity": 0.30708661417322836,
                    "duration": 0.09375
                },
                {
                    "name": "C4",
                    "midi": 60,
                    "time": 161.4375,
                    "velocity": 0.3543307086614173,
                    "duration": 0.09375
                },
                {
                    "name": "D4",
                    "midi": 62,
                    "time": 161.53125,
                    "velocity": 0.3228346456692913,
                    "duration": 0.09375
                },
                {
                    "name": "A3",
                    "midi": 57,
                    "time": 161.625,
                    "velocity": 0.3543307086614173,
                    "duration": 0.09375
                },
                {
                    "name": "D4",
                    "midi": 62,
                    "time": 161.71875,
                    "velocity": 0.31496062992125984,
                    "duration": 0.09375
                },
                {
                    "name": "C4",
                    "midi": 60,
                    "time": 161.8125,
                    "velocity": 0.3543307086614173,
                    "duration": 0.09375
                },
                {
                    "name": "D4",
                    "midi": 62,
                    "time": 161.90625,
                    "velocity": 0.31496062992125984,
                    "duration": 0.09375
                },
                {
                    "name": "G3",
                    "midi": 55,
                    "time": 162,
                    "velocity": 0.3543307086614173,
                    "duration": 0.09375
                },
                {
                    "name": "D4",
                    "midi": 62,
                    "time": 162.09375,
                    "velocity": 0.31496062992125984,
                    "duration": 0.09375
                },
                {
                    "name": "A#3",
                    "midi": 58,
                    "time": 162.1875,
                    "velocity": 0.3543307086614173,
                    "duration": 0.09375
                },
                {
                    "name": "D4",
                    "midi": 62,
                    "time": 162.28125,
                    "velocity": 0.30708661417322836,
                    "duration": 0.09375
                },
                {
                    "name": "G3",
                    "midi": 55,
                    "time": 162.375,
                    "velocity": 0.3543307086614173,
                    "duration": 0.09375
                },
                {
                    "name": "D4",
                    "midi": 62,
                    "time": 162.46875,
                    "velocity": 0.31496062992125984,
                    "duration": 0.09375
                },
                {
                    "name": "A#3",
                    "midi": 58,
                    "time": 162.5625,
                    "velocity": 0.3543307086614173,
                    "duration": 0.09375
                },
                {
                    "name": "D4",
                    "midi": 62,
                    "time": 162.65625,
                    "velocity": 0.31496062992125984,
                    "duration": 0.09375
                },
                {
                    "name": "D#3",
                    "midi": 51,
                    "time": 162.75,
                    "velocity": 0.3543307086614173,
                    "duration": 0.09375
                },
                {
                    "name": "G3",
                    "midi": 55,
                    "time": 162.84375,
                    "velocity": 0.30708661417322836,
                    "duration": 0.09375
                },
                {
                    "name": "F#3",
                    "midi": 54,
                    "time": 162.9375,
                    "velocity": 0.3543307086614173,
                    "duration": 0.09375
                },
                {
                    "name": "G3",
                    "midi": 55,
                    "time": 163.03125,
                    "velocity": 0.30708661417322836,
                    "duration": 0.09375
                },
                {
                    "name": "D#3",
                    "midi": 51,
                    "time": 163.125,
                    "velocity": 0.3543307086614173,
                    "duration": 0.09375
                },
                {
                    "name": "G3",
                    "midi": 55,
                    "time": 163.21875,
                    "velocity": 0.30708661417322836,
                    "duration": 0.09375
                },
                {
                    "name": "F#3",
                    "midi": 54,
                    "time": 163.3125,
                    "velocity": 0.3543307086614173,
                    "duration": 0.09375
                },
                {
                    "name": "G3",
                    "midi": 55,
                    "time": 163.40625,
                    "velocity": 0.30708661417322836,
                    "duration": 0.09375
                },
                {
                    "name": "D3",
                    "midi": 50,
                    "time": 163.5,
                    "velocity": 0.4566929133858268,
                    "duration": 0.375
                },
                {
                    "name": "D2",
                    "midi": 38,
                    "time": 164.25,
                    "velocity": 0.4566929133858268,
                    "duration": 0.09375
                },
                {
                    "name": "D3",
                    "midi": 50,
                    "time": 164.34375,
                    "velocity": 0.44881889763779526,
                    "duration": 0.09375
                },
                {
                    "name": "C2",
                    "midi": 36,
                    "time": 164.4375,
                    "velocity": 0.44881889763779526,
                    "duration": 0.09375
                },
                {
                    "name": "C3",
                    "midi": 48,
                    "time": 164.53125,
                    "velocity": 0.4409448818897638,
                    "duration": 0.09375
                },
                {
                    "name": "B1",
                    "midi": 35,
                    "time": 164.625,
                    "velocity": 0.4409448818897638,
                    "duration": 0.09375
                },
                {
                    "name": "B2",
                    "midi": 47,
                    "time": 164.71875,
                    "velocity": 0.4330708661417323,
                    "duration": 0.09375
                },
                {
                    "name": "A1",
                    "midi": 33,
                    "time": 164.8125,
                    "velocity": 0.4330708661417323,
                    "duration": 0.09375
                },
                {
                    "name": "A2",
                    "midi": 45,
                    "time": 164.90625,
                    "velocity": 0.4409448818897638,
                    "duration": 0.09375
                },
                {
                    "name": "G1",
                    "midi": 31,
                    "time": 165,
                    "velocity": 0.5118110236220472,
                    "duration": 0.375
                },
                {
                    "name": "G3",
                    "midi": 55,
                    "time": 165.375,
                    "velocity": 0.23622047244094488,
                    "duration": 0.1875
                },
                {
                    "name": "B3",
                    "midi": 59,
                    "time": 165.375,
                    "velocity": 0.28346456692913385,
                    "duration": 0.1875
                },
                {
                    "name": "G3",
                    "midi": 55,
                    "time": 165.5625,
                    "velocity": 0.23622047244094488,
                    "duration": 0.1875
                },
                {
                    "name": "B3",
                    "midi": 59,
                    "time": 165.5625,
                    "velocity": 0.28346456692913385,
                    "duration": 0.1875
                },
                {
                    "name": "G3",
                    "midi": 55,
                    "time": 165.75,
                    "velocity": 0.2677165354330709,
                    "duration": 0.1875
                },
                {
                    "name": "B3",
                    "midi": 59,
                    "time": 165.75,
                    "velocity": 0.31496062992125984,
                    "duration": 0.1875
                },
                {
                    "name": "G3",
                    "midi": 55,
                    "time": 165.9375,
                    "velocity": 0.25196850393700787,
                    "duration": 0.1875
                },
                {
                    "name": "B3",
                    "midi": 59,
                    "time": 165.9375,
                    "velocity": 0.2992125984251969,
                    "duration": 0.1875
                },
                {
                    "name": "G3",
                    "midi": 55,
                    "time": 166.125,
                    "velocity": 0.25196850393700787,
                    "duration": 0.1875
                },
                {
                    "name": "B3",
                    "midi": 59,
                    "time": 166.125,
                    "velocity": 0.2992125984251969,
                    "duration": 0.1875
                },
                {
                    "name": "G3",
                    "midi": 55,
                    "time": 166.3125,
                    "velocity": 0.25196850393700787,
                    "duration": 0.1875
                },
                {
                    "name": "B3",
                    "midi": 59,
                    "time": 166.3125,
                    "velocity": 0.2992125984251969,
                    "duration": 0.1875
                },
                {
                    "name": "G3",
                    "midi": 55,
                    "time": 166.5,
                    "velocity": 0.29133858267716534,
                    "duration": 0.375
                },
                {
                    "name": "C4",
                    "midi": 60,
                    "time": 166.5,
                    "velocity": 0.3464566929133858,
                    "duration": 0.375
                },
                {
                    "name": "G3",
                    "midi": 55,
                    "time": 166.875,
                    "velocity": 0.2677165354330709,
                    "duration": 0.1875
                },
                {
                    "name": "B3",
                    "midi": 59,
                    "time": 166.875,
                    "velocity": 0.3228346456692913,
                    "duration": 0.1875
                },
                {
                    "name": "D5",
                    "midi": 74,
                    "time": 167.25,
                    "velocity": 0.3228346456692913,
                    "duration": 0.09375
                },
                {
                    "name": "G#4",
                    "midi": 68,
                    "time": 167.25,
                    "velocity": 0.3228346456692913,
                    "duration": 0.09375
                },
                {
                    "name": "D5",
                    "midi": 74,
                    "time": 167.4375,
                    "velocity": 0.2992125984251969,
                    "duration": 0.09375
                },
                {
                    "name": "G#4",
                    "midi": 68,
                    "time": 167.4375,
                    "velocity": 0.2992125984251969,
                    "duration": 0.09375
                },
                {
                    "name": "D5",
                    "midi": 74,
                    "time": 167.625,
                    "velocity": 0.3464566929133858,
                    "duration": 0.09375
                },
                {
                    "name": "G#4",
                    "midi": 68,
                    "time": 167.625,
                    "velocity": 0.3464566929133858,
                    "duration": 0.09375
                },
                {
                    "name": "G#4",
                    "midi": 68,
                    "time": 167.8125,
                    "velocity": 0.3228346456692913,
                    "duration": 0.09375
                },
                {
                    "name": "D5",
                    "midi": 74,
                    "time": 167.8125,
                    "velocity": 0.3228346456692913,
                    "duration": 0.09375
                },
                {
                    "name": "A4",
                    "midi": 69,
                    "time": 168,
                    "velocity": 0.3937007874015748,
                    "duration": 0.375
                },
                {
                    "name": "C5",
                    "midi": 72,
                    "time": 168,
                    "velocity": 0.3937007874015748,
                    "duration": 0.375
                },
                {
                    "name": "C5",
                    "midi": 72,
                    "time": 168.75,
                    "velocity": 0.3228346456692913,
                    "duration": 0.09375
                },
                {
                    "name": "F#4",
                    "midi": 66,
                    "time": 168.75,
                    "velocity": 0.3228346456692913,
                    "duration": 0.09375
                },
                {
                    "name": "C5",
                    "midi": 72,
                    "time": 168.9375,
                    "velocity": 0.2992125984251969,
                    "duration": 0.09375
                },
                {
                    "name": "F#4",
                    "midi": 66,
                    "time": 168.9375,
                    "velocity": 0.2992125984251969,
                    "duration": 0.09375
                },
                {
                    "name": "C5",
                    "midi": 72,
                    "time": 169.125,
                    "velocity": 0.3464566929133858,
                    "duration": 0.09375
                },
                {
                    "name": "F#4",
                    "midi": 66,
                    "time": 169.125,
                    "velocity": 0.3464566929133858,
                    "duration": 0.09375
                },
                {
                    "name": "F#4",
                    "midi": 66,
                    "time": 169.3125,
                    "velocity": 0.3228346456692913,
                    "duration": 0.09375
                },
                {
                    "name": "C5",
                    "midi": 72,
                    "time": 169.3125,
                    "velocity": 0.3228346456692913,
                    "duration": 0.09375
                },
                {
                    "name": "G4",
                    "midi": 67,
                    "time": 169.5,
                    "velocity": 0.3937007874015748,
                    "duration": 0.375
                },
                {
                    "name": "B4",
                    "midi": 71,
                    "time": 169.5,
                    "velocity": 0.3937007874015748,
                    "duration": 0.375
                },
                {
                    "name": "E4",
                    "midi": 64,
                    "time": 172.5,
                    "velocity": 0.2677165354330709,
                    "duration": 0.375
                },
                {
                    "name": "G4",
                    "midi": 67,
                    "time": 172.5,
                    "velocity": 0.2677165354330709,
                    "duration": 0.375
                },
                {
                    "name": "D#4",
                    "midi": 63,
                    "time": 173.25,
                    "velocity": 0.3543307086614173,
                    "duration": 0.09375
                },
                {
                    "name": "G4",
                    "midi": 67,
                    "time": 173.34375,
                    "velocity": 0.2992125984251969,
                    "duration": 0.09375
                },
                {
                    "name": "D#4",
                    "midi": 63,
                    "time": 173.4375,
                    "velocity": 0.3543307086614173,
                    "duration": 0.09375
                },
                {
                    "name": "G4",
                    "midi": 67,
                    "time": 173.53125,
                    "velocity": 0.2992125984251969,
                    "duration": 0.09375
                },
                {
                    "name": "D#4",
                    "midi": 63,
                    "time": 173.625,
                    "velocity": 0.3543307086614173,
                    "duration": 0.09375
                },
                {
                    "name": "G4",
                    "midi": 67,
                    "time": 173.71875,
                    "velocity": 0.30708661417322836,
                    "duration": 0.09375
                },
                {
                    "name": "D#4",
                    "midi": 63,
                    "time": 173.8125,
                    "velocity": 0.3543307086614173,
                    "duration": 0.09375
                },
                {
                    "name": "G4",
                    "midi": 67,
                    "time": 173.90625,
                    "velocity": 0.30708661417322836,
                    "duration": 0.09375
                },
                {
                    "name": "D4",
                    "midi": 62,
                    "time": 174,
                    "velocity": 0.3937007874015748,
                    "duration": 0.375
                },
                {
                    "name": "F#4",
                    "midi": 66,
                    "time": 174,
                    "velocity": 0.3937007874015748,
                    "duration": 0.375
                },
                {
                    "name": "G4",
                    "midi": 67,
                    "time": 174.375,
                    "velocity": 0.36220472440944884,
                    "duration": 0.375
                },
                {
                    "name": "C4",
                    "midi": 60,
                    "time": 174.75,
                    "velocity": 0.3858267716535433,
                    "duration": 0.375
                },
                {
                    "name": "C5",
                    "midi": 72,
                    "time": 174.75,
                    "velocity": 0.3858267716535433,
                    "duration": 0.375
                },
                {
                    "name": "D4",
                    "midi": 62,
                    "time": 175.125,
                    "velocity": 0.3700787401574803,
                    "duration": 0.375
                },
                {
                    "name": "C5",
                    "midi": 72,
                    "time": 175.125,
                    "velocity": 0.3700787401574803,
                    "duration": 0.375
                },
                {
                    "name": "G4",
                    "midi": 67,
                    "time": 175.5,
                    "velocity": 0.30708661417322836,
                    "duration": 0.1875
                },
                {
                    "name": "B4",
                    "midi": 71,
                    "time": 175.5,
                    "velocity": 0.3700787401574803,
                    "duration": 0.1875
                },
                {
                    "name": "G4",
                    "midi": 67,
                    "time": 175.6875,
                    "velocity": 0.2677165354330709,
                    "duration": 0.1875
                },
                {
                    "name": "B4",
                    "midi": 71,
                    "time": 175.6875,
                    "velocity": 0.31496062992125984,
                    "duration": 0.1875
                },
                {
                    "name": "G4",
                    "midi": 67,
                    "time": 175.875,
                    "velocity": 0.28346456692913385,
                    "duration": 0.1875
                },
                {
                    "name": "B4",
                    "midi": 71,
                    "time": 175.875,
                    "velocity": 0.33858267716535434,
                    "duration": 0.1875
                },
                {
                    "name": "G4",
                    "midi": 67,
                    "time": 176.0625,
                    "velocity": 0.2677165354330709,
                    "duration": 0.1875
                },
                {
                    "name": "B4",
                    "midi": 71,
                    "time": 176.0625,
                    "velocity": 0.31496062992125984,
                    "duration": 0.1875
                },
                {
                    "name": "G4",
                    "midi": 67,
                    "time": 176.25,
                    "velocity": 0.28346456692913385,
                    "duration": 0.1875
                },
                {
                    "name": "C5",
                    "midi": 72,
                    "time": 176.25,
                    "velocity": 0.33858267716535434,
                    "duration": 0.1875
                },
                {
                    "name": "G4",
                    "midi": 67,
                    "time": 176.4375,
                    "velocity": 0.2440944881889764,
                    "duration": 0.1875
                },
                {
                    "name": "C5",
                    "midi": 72,
                    "time": 176.4375,
                    "velocity": 0.29133858267716534,
                    "duration": 0.1875
                },
                {
                    "name": "G4",
                    "midi": 67,
                    "time": 176.625,
                    "velocity": 0.28346456692913385,
                    "duration": 0.1875
                },
                {
                    "name": "C5",
                    "midi": 72,
                    "time": 176.625,
                    "velocity": 0.33858267716535434,
                    "duration": 0.1875
                },
                {
                    "name": "G4",
                    "midi": 67,
                    "time": 176.8125,
                    "velocity": 0.2440944881889764,
                    "duration": 0.1875
                },
                {
                    "name": "C5",
                    "midi": 72,
                    "time": 176.8125,
                    "velocity": 0.29133858267716534,
                    "duration": 0.1875
                },
                {
                    "name": "G4",
                    "midi": 67,
                    "time": 177,
                    "velocity": 0.30708661417322836,
                    "duration": 0.1875
                },
                {
                    "name": "B4",
                    "midi": 71,
                    "time": 177,
                    "velocity": 0.3700787401574803,
                    "duration": 0.1875
                },
                {
                    "name": "G4",
                    "midi": 67,
                    "time": 177.1875,
                    "velocity": 0.2677165354330709,
                    "duration": 0.1875
                },
                {
                    "name": "B4",
                    "midi": 71,
                    "time": 177.1875,
                    "velocity": 0.31496062992125984,
                    "duration": 0.1875
                },
                {
                    "name": "G4",
                    "midi": 67,
                    "time": 177.375,
                    "velocity": 0.28346456692913385,
                    "duration": 0.1875
                },
                {
                    "name": "B4",
                    "midi": 71,
                    "time": 177.375,
                    "velocity": 0.33858267716535434,
                    "duration": 0.1875
                },
                {
                    "name": "G4",
                    "midi": 67,
                    "time": 177.5625,
                    "velocity": 0.2677165354330709,
                    "duration": 0.1875
                },
                {
                    "name": "B4",
                    "midi": 71,
                    "time": 177.5625,
                    "velocity": 0.31496062992125984,
                    "duration": 0.1875
                },
                {
                    "name": "G4",
                    "midi": 67,
                    "time": 177.75,
                    "velocity": 0.28346456692913385,
                    "duration": 0.1875
                },
                {
                    "name": "C5",
                    "midi": 72,
                    "time": 177.75,
                    "velocity": 0.33858267716535434,
                    "duration": 0.1875
                },
                {
                    "name": "G4",
                    "midi": 67,
                    "time": 177.9375,
                    "velocity": 0.2440944881889764,
                    "duration": 0.1875
                },
                {
                    "name": "C5",
                    "midi": 72,
                    "time": 177.9375,
                    "velocity": 0.29133858267716534,
                    "duration": 0.1875
                },
                {
                    "name": "G4",
                    "midi": 67,
                    "time": 178.125,
                    "velocity": 0.28346456692913385,
                    "duration": 0.1875
                },
                {
                    "name": "C5",
                    "midi": 72,
                    "time": 178.125,
                    "velocity": 0.33858267716535434,
                    "duration": 0.1875
                },
                {
                    "name": "G4",
                    "midi": 67,
                    "time": 178.3125,
                    "velocity": 0.2440944881889764,
                    "duration": 0.1875
                },
                {
                    "name": "C5",
                    "midi": 72,
                    "time": 178.3125,
                    "velocity": 0.29133858267716534,
                    "duration": 0.1875
                },
                {
                    "name": "G4",
                    "midi": 67,
                    "time": 178.5,
                    "velocity": 0.30708661417322836,
                    "duration": 0.375
                },
                {
                    "name": "B4",
                    "midi": 71,
                    "time": 178.5,
                    "velocity": 0.3700787401574803,
                    "duration": 0.375
                },
                {
                    "name": "G4",
                    "midi": 67,
                    "time": 178.96875,
                    "velocity": 0.4409448818897638,
                    "duration": 0.09375
                },
                {
                    "name": "D4",
                    "midi": 62,
                    "time": 179.0625,
                    "velocity": 0.4330708661417323,
                    "duration": 0.09375
                },
                {
                    "name": "B3",
                    "midi": 59,
                    "time": 179.15625,
                    "velocity": 0.4251968503937008,
                    "duration": 0.09375
                },
                {
                    "name": "G3",
                    "midi": 55,
                    "time": 179.25,
                    "velocity": 0.47244094488188976,
                    "duration": 0.1875
                }
            ],
            "controlChanges": {
                "7": [
                    {
                        "number": 7,
                        "time": 0,
                        "value": 0.7874015748031497
                    }
                ],
                "10": [
                    {
                        "number": 10,
                        "time": 0,
                        "value": 0.5039370078740157
                    }
                ],
                "91": [
                    {
                        "number": 91,
                        "time": 0,
                        "value": 1
                    },
                    {
                        "number": 91,
                        "time": 6,
                        "value": 1
                    },
                    {
                        "number": 91,
                        "time": 15,
                        "value": 1
                    },
                    {
                        "number": 91,
                        "time": 21,
                        "value": 1
                    },
                    {
                        "number": 91,
                        "time": 36,
                        "value": 1
                    },
                    {
                        "number": 91,
                        "time": 57,
                        "value": 1
                    },
                    {
                        "number": 91,
                        "time": 108,
                        "value": 1
                    },
                    {
                        "number": 91,
                        "time": 114,
                        "value": 1
                    },
                    {
                        "number": 91,
                        "time": 123,
                        "value": 1
                    },
                    {
                        "number": 91,
                        "time": 129,
                        "value": 1
                    },
                    {
                        "number": 91,
                        "time": 144,
                        "value": 1
                    },
                    {
                        "number": 91,
                        "time": 165,
                        "value": 1
                    }
                ]
            },
            "id": 2,
            "name": "Piano left",
            "instrumentNumber": 0,
            "instrument": "acoustic grand piano",
            "instrumentFamily": "piano",
            "channelNumber": 0,
            "isPercussion": false
        },
        {
            "startTime": 0,
            "duration": 0,
            "length": 0,
            "notes": [],
            "controlChanges": {
                "64": [
                    {
                        "number": 64,
                        "time": 0.0578125,
                        "value": 1
                    },
                    {
                        "number": 64,
                        "time": 0.29765624999999996,
                        "value": 0
                    },
                    {
                        "number": 64,
                        "time": 0.7945312499999999,
                        "value": 1
                    },
                    {
                        "number": 64,
                        "time": 1.5,
                        "value": 0
                    },
                    {
                        "number": 64,
                        "time": 3.071875,
                        "value": 1
                    },
                    {
                        "number": 64,
                        "time": 3.2921875,
                        "value": 0
                    },
                    {
                        "number": 64,
                        "time": 3.82734375,
                        "value": 1
                    },
                    {
                        "number": 64,
                        "time": 4.1343749999999995,
                        "value": 0
                    },
                    {
                        "number": 64,
                        "time": 4.1828125,
                        "value": 1
                    },
                    {
                        "number": 64,
                        "time": 4.50859375,
                        "value": 0
                    },
                    {
                        "number": 64,
                        "time": 4.56640625,
                        "value": 1
                    },
                    {
                        "number": 64,
                        "time": 4.88671875,
                        "value": 0
                    },
                    {
                        "number": 64,
                        "time": 4.97421875,
                        "value": 1
                    },
                    {
                        "number": 64,
                        "time": 5.26328125,
                        "value": 0
                    },
                    {
                        "number": 64,
                        "time": 6.057812500000001,
                        "value": 1
                    },
                    {
                        "number": 64,
                        "time": 6.2875000000000005,
                        "value": 0
                    },
                    {
                        "number": 64,
                        "time": 6.805468750000001,
                        "value": 1
                    },
                    {
                        "number": 64,
                        "time": 7.500000000000001,
                        "value": 0
                    },
                    {
                        "number": 64,
                        "time": 9.035937500000001,
                        "value": 1
                    },
                    {
                        "number": 64,
                        "time": 9.389062500000001,
                        "value": 0
                    },
                    {
                        "number": 64,
                        "time": 9.415625000000002,
                        "value": 1
                    },
                    {
                        "number": 64,
                        "time": 9.760937500000002,
                        "value": 0
                    },
                    {
                        "number": 64,
                        "time": 9.828125000000002,
                        "value": 1
                    },
                    {
                        "number": 64,
                        "time": 10.136718750000002,
                        "value": 0
                    },
                    {
                        "number": 64,
                        "time": 10.171875000000002,
                        "value": 1
                    },
                    {
                        "number": 64,
                        "time": 10.500000000000002,
                        "value": 0
                    },
                    {
                        "number": 64,
                        "time": 13.551562500000001,
                        "value": 1
                    },
                    {
                        "number": 64,
                        "time": 13.886718750000002,
                        "value": 0
                    },
                    {
                        "number": 64,
                        "time": 13.984375000000002,
                        "value": 1
                    },
                    {
                        "number": 64,
                        "time": 14.647656250000002,
                        "value": 0
                    },
                    {
                        "number": 64,
                        "time": 15.055468750000003,
                        "value": 1
                    },
                    {
                        "number": 64,
                        "time": 15.297656250000003,
                        "value": 0
                    },
                    {
                        "number": 64,
                        "time": 15.794531250000002,
                        "value": 1
                    },
                    {
                        "number": 64,
                        "time": 16.500000000000004,
                        "value": 0
                    },
                    {
                        "number": 64,
                        "time": 18.071875000000002,
                        "value": 1
                    },
                    {
                        "number": 64,
                        "time": 18.2921875,
                        "value": 0
                    },
                    {
                        "number": 64,
                        "time": 18.82734375,
                        "value": 1
                    },
                    {
                        "number": 64,
                        "time": 19.134375000000002,
                        "value": 0
                    },
                    {
                        "number": 64,
                        "time": 19.1828125,
                        "value": 1
                    },
                    {
                        "number": 64,
                        "time": 19.50859375,
                        "value": 0
                    },
                    {
                        "number": 64,
                        "time": 19.56640625,
                        "value": 1
                    },
                    {
                        "number": 64,
                        "time": 19.88671875,
                        "value": 0
                    },
                    {
                        "number": 64,
                        "time": 19.97421875,
                        "value": 1
                    },
                    {
                        "number": 64,
                        "time": 20.26328125,
                        "value": 0
                    },
                    {
                        "number": 64,
                        "time": 21.057812499999997,
                        "value": 1
                    },
                    {
                        "number": 64,
                        "time": 21.287499999999998,
                        "value": 0
                    },
                    {
                        "number": 64,
                        "time": 21.80546875,
                        "value": 1
                    },
                    {
                        "number": 64,
                        "time": 22.5,
                        "value": 0
                    },
                    {
                        "number": 64,
                        "time": 24.0359375,
                        "value": 1
                    },
                    {
                        "number": 64,
                        "time": 24.389062499999998,
                        "value": 0
                    },
                    {
                        "number": 64,
                        "time": 24.415625,
                        "value": 1
                    },
                    {
                        "number": 64,
                        "time": 24.760937499999997,
                        "value": 0
                    },
                    {
                        "number": 64,
                        "time": 24.828124999999996,
                        "value": 1
                    },
                    {
                        "number": 64,
                        "time": 25.136718749999996,
                        "value": 0
                    },
                    {
                        "number": 64,
                        "time": 25.171874999999996,
                        "value": 1
                    },
                    {
                        "number": 64,
                        "time": 25.499999999999996,
                        "value": 0
                    },
                    {
                        "number": 64,
                        "time": 28.551562499999996,
                        "value": 1
                    },
                    {
                        "number": 64,
                        "time": 28.886718749999996,
                        "value": 0
                    },
                    {
                        "number": 64,
                        "time": 28.984374999999996,
                        "value": 1
                    },
                    {
                        "number": 64,
                        "time": 29.647656249999997,
                        "value": 0
                    },
                    {
                        "number": 64,
                        "time": 30.093749999999996,
                        "value": 1
                    },
                    {
                        "number": 64,
                        "time": 30.384374999999995,
                        "value": 0
                    },
                    {
                        "number": 64,
                        "time": 31.185156249999995,
                        "value": 1
                    },
                    {
                        "number": 64,
                        "time": 31.499999999999996,
                        "value": 0
                    },
                    {
                        "number": 64,
                        "time": 31.618749999999995,
                        "value": 1
                    },
                    {
                        "number": 64,
                        "time": 31.789843749999996,
                        "value": 0
                    },
                    {
                        "number": 64,
                        "time": 32.67734375,
                        "value": 1
                    },
                    {
                        "number": 64,
                        "time": 33.01484375,
                        "value": 0
                    },
                    {
                        "number": 64,
                        "time": 33.115624999999994,
                        "value": 1
                    },
                    {
                        "number": 64,
                        "time": 33.29609375,
                        "value": 0
                    },
                    {
                        "number": 64,
                        "time": 34.171875,
                        "value": 1
                    },
                    {
                        "number": 64,
                        "time": 34.5,
                        "value": 0
                    },
                    {
                        "number": 64,
                        "time": 34.6046875,
                        "value": 1
                    },
                    {
                        "number": 64,
                        "time": 34.797656249999996,
                        "value": 0
                    },
                    {
                        "number": 64,
                        "time": 34.92734375,
                        "value": 1
                    },
                    {
                        "number": 64,
                        "time": 35.071875,
                        "value": 0
                    },
                    {
                        "number": 64,
                        "time": 35.3078125,
                        "value": 1
                    },
                    {
                        "number": 64,
                        "time": 35.633593749999996,
                        "value": 0
                    },
                    {
                        "number": 64,
                        "time": 36.041406249999994,
                        "value": 1
                    },
                    {
                        "number": 64,
                        "time": 36.291406249999994,
                        "value": 0
                    },
                    {
                        "number": 64,
                        "time": 36.824999999999996,
                        "value": 1
                    },
                    {
                        "number": 64,
                        "time": 37.49999999999999,
                        "value": 0
                    },
                    {
                        "number": 64,
                        "time": 39.04999999999999,
                        "value": 1
                    },
                    {
                        "number": 64,
                        "time": 39.40859374999999,
                        "value": 0
                    },
                    {
                        "number": 64,
                        "time": 40.53359374999999,
                        "value": 1
                    },
                    {
                        "number": 64,
                        "time": 40.888281249999984,
                        "value": 0
                    },
                    {
                        "number": 64,
                        "time": 44.31718749999998,
                        "value": 1
                    },
                    {
                        "number": 64,
                        "time": 44.915624999999984,
                        "value": 0
                    },
                    {
                        "number": 64,
                        "time": 45.08828124999999,
                        "value": 1
                    },
                    {
                        "number": 64,
                        "time": 45.29218749999999,
                        "value": 0
                    },
                    {
                        "number": 64,
                        "time": 45.46093749999999,
                        "value": 1
                    },
                    {
                        "number": 64,
                        "time": 45.760156249999994,
                        "value": 0
                    },
                    {
                        "number": 64,
                        "time": 45.838281249999994,
                        "value": 1
                    },
                    {
                        "number": 64,
                        "time": 46.139062499999994,
                        "value": 0
                    },
                    {
                        "number": 64,
                        "time": 46.193749999999994,
                        "value": 1
                    },
                    {
                        "number": 64,
                        "time": 46.49999999999999,
                        "value": 0
                    },
                    {
                        "number": 64,
                        "time": 49.59921874999999,
                        "value": 1
                    },
                    {
                        "number": 64,
                        "time": 49.88359374999999,
                        "value": 0
                    },
                    {
                        "number": 64,
                        "time": 49.92734374999999,
                        "value": 1
                    },
                    {
                        "number": 64,
                        "time": 50.63593749999999,
                        "value": 0
                    },
                    {
                        "number": 64,
                        "time": 51.09609374999999,
                        "value": 1
                    },
                    {
                        "number": 64,
                        "time": 51.384374999999984,
                        "value": 0
                    },
                    {
                        "number": 64,
                        "time": 52.185156249999984,
                        "value": 1
                    },
                    {
                        "number": 64,
                        "time": 52.499999999999986,
                        "value": 0
                    },
                    {
                        "number": 64,
                        "time": 52.618749999999984,
                        "value": 1
                    },
                    {
                        "number": 64,
                        "time": 52.78984374999998,
                        "value": 0
                    },
                    {
                        "number": 64,
                        "time": 53.677343749999984,
                        "value": 1
                    },
                    {
                        "number": 64,
                        "time": 54.01484374999998,
                        "value": 0
                    },
                    {
                        "number": 64,
                        "time": 54.11562499999998,
                        "value": 1
                    },
                    {
                        "number": 64,
                        "time": 54.29609374999998,
                        "value": 0
                    },
                    {
                        "number": 64,
                        "time": 55.171874999999986,
                        "value": 1
                    },
                    {
                        "number": 64,
                        "time": 55.499999999999986,
                        "value": 0
                    },
                    {
                        "number": 64,
                        "time": 55.60468749999998,
                        "value": 1
                    },
                    {
                        "number": 64,
                        "time": 55.79765624999998,
                        "value": 0
                    },
                    {
                        "number": 64,
                        "time": 55.927343749999984,
                        "value": 1
                    },
                    {
                        "number": 64,
                        "time": 56.071874999999984,
                        "value": 0
                    },
                    {
                        "number": 64,
                        "time": 56.30781249999998,
                        "value": 1
                    },
                    {
                        "number": 64,
                        "time": 56.63359374999998,
                        "value": 0
                    },
                    {
                        "number": 64,
                        "time": 57.04140624999998,
                        "value": 1
                    },
                    {
                        "number": 64,
                        "time": 57.29140624999998,
                        "value": 0
                    },
                    {
                        "number": 64,
                        "time": 57.82499999999998,
                        "value": 1
                    },
                    {
                        "number": 64,
                        "time": 58.49999999999998,
                        "value": 0
                    },
                    {
                        "number": 64,
                        "time": 60.09140624999998,
                        "value": 1
                    },
                    {
                        "number": 64,
                        "time": 60.40859374999998,
                        "value": 0
                    },
                    {
                        "number": 64,
                        "time": 61.56640624999998,
                        "value": 1
                    },
                    {
                        "number": 64,
                        "time": 61.88828124999998,
                        "value": 0
                    },
                    {
                        "number": 64,
                        "time": 65.31718749999997,
                        "value": 1
                    },
                    {
                        "number": 64,
                        "time": 65.91562499999998,
                        "value": 0
                    },
                    {
                        "number": 64,
                        "time": 66.08828124999998,
                        "value": 1
                    },
                    {
                        "number": 64,
                        "time": 66.29218749999998,
                        "value": 0
                    },
                    {
                        "number": 64,
                        "time": 66.46093749999999,
                        "value": 1
                    },
                    {
                        "number": 64,
                        "time": 66.76015624999998,
                        "value": 0
                    },
                    {
                        "number": 64,
                        "time": 66.83828124999998,
                        "value": 1
                    },
                    {
                        "number": 64,
                        "time": 67.13906249999998,
                        "value": 0
                    },
                    {
                        "number": 64,
                        "time": 67.19374999999998,
                        "value": 1
                    },
                    {
                        "number": 64,
                        "time": 67.49999999999999,
                        "value": 0
                    },
                    {
                        "number": 64,
                        "time": 70.59374999999999,
                        "value": 1
                    },
                    {
                        "number": 64,
                        "time": 70.88359374999999,
                        "value": 0
                    },
                    {
                        "number": 64,
                        "time": 70.92734374999999,
                        "value": 1
                    },
                    {
                        "number": 64,
                        "time": 71.6359375,
                        "value": 0
                    },
                    {
                        "number": 64,
                        "time": 72.1609375,
                        "value": 1
                    },
                    {
                        "number": 64,
                        "time": 72.76640625,
                        "value": 0
                    },
                    {
                        "number": 64,
                        "time": 73,
                        "value": 1
                    },
                    {
                        "number": 64,
                        "time": 73.5,
                        "value": 0
                    },
                    {
                        "number": 64,
                        "time": 73.6609375,
                        "value": 1
                    },
                    {
                        "number": 64,
                        "time": 74.07890625,
                        "value": 0
                    },
                    {
                        "number": 64,
                        "time": 74.36640625,
                        "value": 1
                    },
                    {
                        "number": 64,
                        "time": 75,
                        "value": 0
                    },
                    {
                        "number": 64,
                        "time": 75.125,
                        "value": 1
                    },
                    {
                        "number": 64,
                        "time": 75.76953125,
                        "value": 0
                    },
                    {
                        "number": 64,
                        "time": 75.90234375,
                        "value": 1
                    },
                    {
                        "number": 64,
                        "time": 76.31796875,
                        "value": 0
                    },
                    {
                        "number": 64,
                        "time": 76.5,
                        "value": 1
                    },
                    {
                        "number": 64,
                        "time": 76.70078125,
                        "value": 0
                    },
                    {
                        "number": 64,
                        "time": 76.80390625000001,
                        "value": 1
                    },
                    {
                        "number": 64,
                        "time": 76.88750000000002,
                        "value": 0
                    },
                    {
                        "number": 64,
                        "time": 77.26796875000002,
                        "value": 1
                    },
                    {
                        "number": 64,
                        "time": 77.73203125000002,
                        "value": 0
                    },
                    {
                        "number": 64,
                        "time": 78.18750000000001,
                        "value": 1
                    },
                    {
                        "number": 64,
                        "time": 78.76640625000002,
                        "value": 0
                    },
                    {
                        "number": 64,
                        "time": 79.00000000000001,
                        "value": 1
                    },
                    {
                        "number": 64,
                        "time": 79.50000000000001,
                        "value": 0
                    },
                    {
                        "number": 64,
                        "time": 79.66093750000002,
                        "value": 1
                    },
                    {
                        "number": 64,
                        "time": 80.07890625000002,
                        "value": 0
                    },
                    {
                        "number": 64,
                        "time": 80.36640625000001,
                        "value": 1
                    },
                    {
                        "number": 64,
                        "time": 81.00000000000001,
                        "value": 0
                    },
                    {
                        "number": 64,
                        "time": 81.12500000000001,
                        "value": 1
                    },
                    {
                        "number": 64,
                        "time": 81.76953125000001,
                        "value": 0
                    },
                    {
                        "number": 64,
                        "time": 81.90234375000001,
                        "value": 1
                    },
                    {
                        "number": 64,
                        "time": 82.31796875000002,
                        "value": 0
                    },
                    {
                        "number": 64,
                        "time": 82.50000000000001,
                        "value": 1
                    },
                    {
                        "number": 64,
                        "time": 82.70078125000002,
                        "value": 0
                    },
                    {
                        "number": 64,
                        "time": 82.80390625000003,
                        "value": 1
                    },
                    {
                        "number": 64,
                        "time": 82.88750000000003,
                        "value": 0
                    },
                    {
                        "number": 64,
                        "time": 83.26796875000004,
                        "value": 1
                    },
                    {
                        "number": 64,
                        "time": 83.73203125000003,
                        "value": 0
                    },
                    {
                        "number": 64,
                        "time": 84.16093750000003,
                        "value": 1
                    },
                    {
                        "number": 64,
                        "time": 84.75703125000003,
                        "value": 0
                    },
                    {
                        "number": 64,
                        "time": 85.00937500000002,
                        "value": 1
                    },
                    {
                        "number": 64,
                        "time": 85.50000000000001,
                        "value": 0
                    },
                    {
                        "number": 64,
                        "time": 85.62187500000002,
                        "value": 1
                    },
                    {
                        "number": 64,
                        "time": 85.88593750000001,
                        "value": 0
                    },
                    {
                        "number": 64,
                        "time": 85.99687500000002,
                        "value": 1
                    },
                    {
                        "number": 64,
                        "time": 86.26328125000002,
                        "value": 0
                    },
                    {
                        "number": 64,
                        "time": 86.38281250000001,
                        "value": 1
                    },
                    {
                        "number": 64,
                        "time": 86.45390625000002,
                        "value": 0
                    },
                    {
                        "number": 64,
                        "time": 87.12187500000002,
                        "value": 1
                    },
                    {
                        "number": 64,
                        "time": 87.38828125000002,
                        "value": 0
                    },
                    {
                        "number": 64,
                        "time": 87.52968750000002,
                        "value": 1
                    },
                    {
                        "number": 64,
                        "time": 88.19140625000003,
                        "value": 0
                    },
                    {
                        "number": 64,
                        "time": 88.31250000000003,
                        "value": 1
                    },
                    {
                        "number": 64,
                        "time": 88.69531250000003,
                        "value": 0
                    },
                    {
                        "number": 64,
                        "time": 88.76484375000003,
                        "value": 1
                    },
                    {
                        "number": 64,
                        "time": 89.07578125000002,
                        "value": 0
                    },
                    {
                        "number": 64,
                        "time": 89.14531250000002,
                        "value": 1
                    },
                    {
                        "number": 64,
                        "time": 89.44765625000002,
                        "value": 0
                    },
                    {
                        "number": 64,
                        "time": 89.72968750000003,
                        "value": 1
                    },
                    {
                        "number": 64,
                        "time": 90.00625000000002,
                        "value": 0
                    },
                    {
                        "number": 64,
                        "time": 90.11640625000003,
                        "value": 1
                    },
                    {
                        "number": 64,
                        "time": 90.75625000000002,
                        "value": 0
                    },
                    {
                        "number": 64,
                        "time": 91.17890625000003,
                        "value": 1
                    },
                    {
                        "number": 64,
                        "time": 91.50312500000003,
                        "value": 0
                    },
                    {
                        "number": 64,
                        "time": 91.76484375000003,
                        "value": 1
                    },
                    {
                        "number": 64,
                        "time": 92.26328125000002,
                        "value": 0
                    },
                    {
                        "number": 64,
                        "time": 92.53671875000002,
                        "value": 1
                    },
                    {
                        "number": 64,
                        "time": 93.00000000000001,
                        "value": 0
                    },
                    {
                        "number": 64,
                        "time": 93.12187500000002,
                        "value": 1
                    },
                    {
                        "number": 64,
                        "time": 95.07265625000002,
                        "value": 0
                    },
                    {
                        "number": 64,
                        "time": 95.20078125000002,
                        "value": 1
                    },
                    {
                        "number": 64,
                        "time": 95.30546875000002,
                        "value": 0
                    },
                    {
                        "number": 64,
                        "time": 95.47656250000001,
                        "value": 1
                    },
                    {
                        "number": 64,
                        "time": 95.66406250000001,
                        "value": 0
                    },
                    {
                        "number": 64,
                        "time": 95.87890625000001,
                        "value": 1
                    },
                    {
                        "number": 64,
                        "time": 96.00390625000001,
                        "value": 0
                    },
                    {
                        "number": 64,
                        "time": 96.60312500000002,
                        "value": 1
                    },
                    {
                        "number": 64,
                        "time": 96.81250000000001,
                        "value": 0
                    },
                    {
                        "number": 64,
                        "time": 97.00468750000002,
                        "value": 1
                    },
                    {
                        "number": 64,
                        "time": 97.17890625000001,
                        "value": 0
                    },
                    {
                        "number": 64,
                        "time": 97.37500000000001,
                        "value": 1
                    },
                    {
                        "number": 64,
                        "time": 97.50000000000001,
                        "value": 0
                    },
                    {
                        "number": 64,
                        "time": 100.64296875000001,
                        "value": 1
                    },
                    {
                        "number": 64,
                        "time": 100.9734375,
                        "value": 0
                    },
                    {
                        "number": 64,
                        "time": 101.3125,
                        "value": 1
                    },
                    {
                        "number": 64,
                        "time": 101.74140625,
                        "value": 0
                    },
                    {
                        "number": 64,
                        "time": 102.14375,
                        "value": 1
                    },
                    {
                        "number": 64,
                        "time": 102.5078125,
                        "value": 0
                    },
                    {
                        "number": 64,
                        "time": 102.84921875,
                        "value": 1
                    },
                    {
                        "number": 64,
                        "time": 103.2578125,
                        "value": 0
                    },
                    {
                        "number": 64,
                        "time": 103.6609375,
                        "value": 1
                    },
                    {
                        "number": 64,
                        "time": 103.99140625,
                        "value": 0
                    },
                    {
                        "number": 64,
                        "time": 104.40234375,
                        "value": 1
                    },
                    {
                        "number": 64,
                        "time": 104.73203125,
                        "value": 0
                    },
                    {
                        "number": 64,
                        "time": 105.125,
                        "value": 1
                    },
                    {
                        "number": 64,
                        "time": 105.509375,
                        "value": 0
                    },
                    {
                        "number": 64,
                        "time": 105.83046875000001,
                        "value": 1
                    },
                    {
                        "number": 64,
                        "time": 106.2234375,
                        "value": 0
                    },
                    {
                        "number": 64,
                        "time": 106.621875,
                        "value": 1
                    },
                    {
                        "number": 64,
                        "time": 106.996875,
                        "value": 0
                    },
                    {
                        "number": 64,
                        "time": 107.45937500000001,
                        "value": 1
                    },
                    {
                        "number": 64,
                        "time": 107.77968750000001,
                        "value": 0
                    },
                    {
                        "number": 64,
                        "time": 108.07734375000001,
                        "value": 1
                    },
                    {
                        "number": 64,
                        "time": 108.27734375000001,
                        "value": 0
                    },
                    {
                        "number": 64,
                        "time": 108.81640625000001,
                        "value": 1
                    },
                    {
                        "number": 64,
                        "time": 109.50000000000001,
                        "value": 0
                    },
                    {
                        "number": 64,
                        "time": 111.03906250000001,
                        "value": 1
                    },
                    {
                        "number": 64,
                        "time": 111.38906250000001,
                        "value": 0
                    },
                    {
                        "number": 64,
                        "time": 111.85234375,
                        "value": 1
                    },
                    {
                        "number": 64,
                        "time": 112.13984375,
                        "value": 0
                    },
                    {
                        "number": 64,
                        "time": 112.19687499999999,
                        "value": 1
                    },
                    {
                        "number": 64,
                        "time": 112.50546874999999,
                        "value": 0
                    },
                    {
                        "number": 64,
                        "time": 112.63281249999999,
                        "value": 1
                    },
                    {
                        "number": 64,
                        "time": 112.88828124999999,
                        "value": 0
                    },
                    {
                        "number": 64,
                        "time": 112.96328125,
                        "value": 1
                    },
                    {
                        "number": 64,
                        "time": 113.26015625,
                        "value": 0
                    },
                    {
                        "number": 64,
                        "time": 114.0390625,
                        "value": 1
                    },
                    {
                        "number": 64,
                        "time": 114.28984375,
                        "value": 0
                    },
                    {
                        "number": 64,
                        "time": 117.04921875000001,
                        "value": 1
                    },
                    {
                        "number": 64,
                        "time": 117.38828125,
                        "value": 0
                    },
                    {
                        "number": 64,
                        "time": 117.81953125000001,
                        "value": 1
                    },
                    {
                        "number": 64,
                        "time": 118.1421875,
                        "value": 0
                    },
                    {
                        "number": 64,
                        "time": 118.18359375,
                        "value": 1
                    },
                    {
                        "number": 64,
                        "time": 118.51328125,
                        "value": 0
                    },
                    {
                        "number": 64,
                        "time": 123.05234375,
                        "value": 1
                    },
                    {
                        "number": 64,
                        "time": 123.29375,
                        "value": 0
                    },
                    {
                        "number": 64,
                        "time": 124.946875,
                        "value": 1
                    },
                    {
                        "number": 64,
                        "time": 125.26171875,
                        "value": 0
                    },
                    {
                        "number": 64,
                        "time": 125.33046875,
                        "value": 1
                    },
                    {
                        "number": 64,
                        "time": 126.01249999999999,
                        "value": 0
                    },
                    {
                        "number": 64,
                        "time": 128.32187499999998,
                        "value": 1
                    },
                    {
                        "number": 64,
                        "time": 128.44921874999997,
                        "value": 0
                    },
                    {
                        "number": 64,
                        "time": 128.50937499999998,
                        "value": 1
                    },
                    {
                        "number": 64,
                        "time": 128.63828124999998,
                        "value": 0
                    },
                    {
                        "number": 64,
                        "time": 128.70078124999998,
                        "value": 1
                    },
                    {
                        "number": 64,
                        "time": 128.82656249999997,
                        "value": 0
                    },
                    {
                        "number": 64,
                        "time": 128.87499999999997,
                        "value": 1
                    },
                    {
                        "number": 64,
                        "time": 129.00859374999996,
                        "value": 0
                    },
                    {
                        "number": 64,
                        "time": 129.04999999999995,
                        "value": 1
                    },
                    {
                        "number": 64,
                        "time": 129.29531249999997,
                        "value": 0
                    },
                    {
                        "number": 64,
                        "time": 132.04921874999997,
                        "value": 1
                    },
                    {
                        "number": 64,
                        "time": 132.39296874999997,
                        "value": 0
                    },
                    {
                        "number": 64,
                        "time": 132.80156249999996,
                        "value": 1
                    },
                    {
                        "number": 64,
                        "time": 133.13515624999997,
                        "value": 0
                    },
                    {
                        "number": 64,
                        "time": 133.18515624999998,
                        "value": 1
                    },
                    {
                        "number": 64,
                        "time": 133.50624999999997,
                        "value": 0
                    },
                    {
                        "number": 64,
                        "time": 137.29687499999997,
                        "value": 1
                    },
                    {
                        "number": 64,
                        "time": 137.64140624999996,
                        "value": 0
                    },
                    {
                        "number": 64,
                        "time": 138.04296874999997,
                        "value": 1
                    },
                    {
                        "number": 64,
                        "time": 138.38437499999998,
                        "value": 0
                    },
                    {
                        "number": 64,
                        "time": 138.41796874999997,
                        "value": 1
                    },
                    {
                        "number": 64,
                        "time": 138.76328124999998,
                        "value": 0
                    },
                    {
                        "number": 64,
                        "time": 138.79062499999998,
                        "value": 1
                    },
                    {
                        "number": 64,
                        "time": 138.94921874999997,
                        "value": 0
                    },
                    {
                        "number": 64,
                        "time": 138.99140624999998,
                        "value": 1
                    },
                    {
                        "number": 64,
                        "time": 139.49999999999997,
                        "value": 0
                    },
                    {
                        "number": 64,
                        "time": 139.57499999999996,
                        "value": 1
                    },
                    {
                        "number": 64,
                        "time": 139.88749999999996,
                        "value": 0
                    },
                    {
                        "number": 64,
                        "time": 139.92734374999995,
                        "value": 1
                    },
                    {
                        "number": 64,
                        "time": 140.26249999999996,
                        "value": 0
                    },
                    {
                        "number": 64,
                        "time": 140.30781249999995,
                        "value": 1
                    },
                    {
                        "number": 64,
                        "time": 140.44453124999995,
                        "value": 0
                    },
                    {
                        "number": 64,
                        "time": 140.50624999999997,
                        "value": 1
                    },
                    {
                        "number": 64,
                        "time": 141.01015624999997,
                        "value": 0
                    },
                    {
                        "number": 64,
                        "time": 141.08046874999997,
                        "value": 1
                    },
                    {
                        "number": 64,
                        "time": 141.39140624999996,
                        "value": 0
                    },
                    {
                        "number": 64,
                        "time": 141.43593749999997,
                        "value": 1
                    },
                    {
                        "number": 64,
                        "time": 141.76171874999997,
                        "value": 0
                    },
                    {
                        "number": 64,
                        "time": 141.79453124999998,
                        "value": 1
                    },
                    {
                        "number": 64,
                        "time": 141.94609375,
                        "value": 0
                    },
                    {
                        "number": 64,
                        "time": 141.99531249999998,
                        "value": 1
                    },
                    {
                        "number": 64,
                        "time": 142.49999999999997,
                        "value": 0
                    },
                    {
                        "number": 64,
                        "time": 144.06874999999997,
                        "value": 1
                    },
                    {
                        "number": 64,
                        "time": 144.28984374999996,
                        "value": 0
                    },
                    {
                        "number": 64,
                        "time": 151.56484374999997,
                        "value": 1
                    },
                    {
                        "number": 64,
                        "time": 151.87968749999996,
                        "value": 0
                    },
                    {
                        "number": 64,
                        "time": 152.30624999999995,
                        "value": 1
                    },
                    {
                        "number": 64,
                        "time": 152.44687499999995,
                        "value": 0
                    },
                    {
                        "number": 64,
                        "time": 152.48671874999994,
                        "value": 1
                    },
                    {
                        "number": 64,
                        "time": 152.63671874999994,
                        "value": 0
                    },
                    {
                        "number": 64,
                        "time": 152.66953124999995,
                        "value": 1
                    },
                    {
                        "number": 64,
                        "time": 152.99999999999994,
                        "value": 0
                    },
                    {
                        "number": 64,
                        "time": 154.57734374999995,
                        "value": 1
                    },
                    {
                        "number": 64,
                        "time": 155.25781249999994,
                        "value": 0
                    },
                    {
                        "number": 64,
                        "time": 155.34374999999994,
                        "value": 1
                    },
                    {
                        "number": 64,
                        "time": 156.00937499999995,
                        "value": 0
                    },
                    {
                        "number": 64,
                        "time": 156.11562499999994,
                        "value": 1
                    },
                    {
                        "number": 64,
                        "time": 156.76406249999994,
                        "value": 0
                    },
                    {
                        "number": 64,
                        "time": 156.87734374999994,
                        "value": 1
                    },
                    {
                        "number": 64,
                        "time": 157.51640624999993,
                        "value": 0
                    },
                    {
                        "number": 64,
                        "time": 157.58281249999993,
                        "value": 1
                    },
                    {
                        "number": 64,
                        "time": 158.40468749999994,
                        "value": 0
                    },
                    {
                        "number": 64,
                        "time": 159.04921874999994,
                        "value": 1
                    },
                    {
                        "number": 64,
                        "time": 159.38437499999995,
                        "value": 0
                    },
                    {
                        "number": 64,
                        "time": 159.41796874999994,
                        "value": 1
                    },
                    {
                        "number": 64,
                        "time": 159.76328124999995,
                        "value": 0
                    },
                    {
                        "number": 64,
                        "time": 159.79062499999995,
                        "value": 1
                    },
                    {
                        "number": 64,
                        "time": 159.94921874999994,
                        "value": 0
                    },
                    {
                        "number": 64,
                        "time": 159.99140624999995,
                        "value": 1
                    },
                    {
                        "number": 64,
                        "time": 160.49999999999994,
                        "value": 0
                    },
                    {
                        "number": 64,
                        "time": 160.57499999999993,
                        "value": 1
                    },
                    {
                        "number": 64,
                        "time": 160.88749999999993,
                        "value": 0
                    },
                    {
                        "number": 64,
                        "time": 160.92734374999992,
                        "value": 1
                    },
                    {
                        "number": 64,
                        "time": 161.26249999999993,
                        "value": 0
                    },
                    {
                        "number": 64,
                        "time": 161.30781249999993,
                        "value": 1
                    },
                    {
                        "number": 64,
                        "time": 161.44453124999993,
                        "value": 0
                    },
                    {
                        "number": 64,
                        "time": 161.50624999999994,
                        "value": 1
                    },
                    {
                        "number": 64,
                        "time": 162.01015624999994,
                        "value": 0
                    },
                    {
                        "number": 64,
                        "time": 162.08046874999994,
                        "value": 1
                    },
                    {
                        "number": 64,
                        "time": 162.39140624999993,
                        "value": 0
                    },
                    {
                        "number": 64,
                        "time": 162.43593749999994,
                        "value": 1
                    },
                    {
                        "number": 64,
                        "time": 162.76171874999994,
                        "value": 0
                    },
                    {
                        "number": 64,
                        "time": 162.79453124999995,
                        "value": 1
                    },
                    {
                        "number": 64,
                        "time": 162.94609374999996,
                        "value": 0
                    },
                    {
                        "number": 64,
                        "time": 162.99531249999995,
                        "value": 1
                    },
                    {
                        "number": 64,
                        "time": 163.49999999999994,
                        "value": 0
                    },
                    {
                        "number": 64,
                        "time": 165.06874999999994,
                        "value": 1
                    },
                    {
                        "number": 64,
                        "time": 165.28984374999993,
                        "value": 0
                    },
                    {
                        "number": 64,
                        "time": 172.56484374999994,
                        "value": 1
                    },
                    {
                        "number": 64,
                        "time": 172.87968749999993,
                        "value": 0
                    },
                    {
                        "number": 64,
                        "time": 173.30624999999992,
                        "value": 1
                    },
                    {
                        "number": 64,
                        "time": 173.44687499999992,
                        "value": 0
                    },
                    {
                        "number": 64,
                        "time": 173.4867187499999,
                        "value": 1
                    },
                    {
                        "number": 64,
                        "time": 173.63671874999991,
                        "value": 0
                    },
                    {
                        "number": 64,
                        "time": 173.66953124999992,
                        "value": 1
                    },
                    {
                        "number": 64,
                        "time": 173.99999999999991,
                        "value": 0
                    },
                    {
                        "number": 64,
                        "time": 175.57734374999993,
                        "value": 1
                    },
                    {
                        "number": 64,
                        "time": 176.25781249999991,
                        "value": 0
                    },
                    {
                        "number": 64,
                        "time": 176.34374999999991,
                        "value": 1
                    },
                    {
                        "number": 64,
                        "time": 177.00937499999992,
                        "value": 0
                    },
                    {
                        "number": 64,
                        "time": 177.1156249999999,
                        "value": 1
                    },
                    {
                        "number": 64,
                        "time": 177.7640624999999,
                        "value": 0
                    },
                    {
                        "number": 64,
                        "time": 177.8773437499999,
                        "value": 1
                    },
                    {
                        "number": 64,
                        "time": 178.5164062499999,
                        "value": 0
                    },
                    {
                        "number": 64,
                        "time": 178.5828124999999,
                        "value": 1
                    },
                    {
                        "number": 64,
                        "time": 179.4046874999999,
                        "value": 0
                    }
                ]
            },
            "id": 3,
            "name": "Pedale"
        },
        {
            "startTime": 0,
            "duration": 0,
            "length": 0,
            "notes": [],
            "controlChanges": {},
            "id": 4,
            "name": "Haydn: Piano sonata in G major, Hoboken XVI:40, 2. Movement"
        },
        {
            "startTime": 0,
            "duration": 0,
            "length": 0,
            "notes": [],
            "controlChanges": {},
            "id": 5,
            "name": "Copyright  1998 by Bernd Krger"
        },
        {
            "startTime": 0,
            "duration": 0,
            "length": 0,
            "notes": [],
            "controlChanges": {},
            "id": 6,
            "name": "http://www.piano-midi.de"
        },
        {
            "startTime": 0,
            "duration": 0,
            "length": 0,
            "notes": [],
            "controlChanges": {},
            "id": 7,
            "name": "Edition: 2011-11-29"
        }
    ]
}