{
    "header": {
        "PPQ": 480,
        "timeSignature": [
            6,
            8
        ],
        "bpm": 94.99999208333399,
        "name": "1. Satz"
    },
    "startTime": 0,
    "duration": 376.4210839999988,
    "tracks": [
        {
            "startTime": 0,
            "duration": 0,
            "length": 0,
            "notes": [],
            "controlChanges": {},
            "id": 0,
            "name": "1. Satz"
        },
        {
            "startTime": 1.5789475000000002,
            "duration": 376.4210839999988,
            "length": 1772,
            "notes": [
                {
                    "name": "G4",
                    "midi": 67,
                    "time": 1.5789475000000002,
                    "velocity": 0.36220472440944884,
                    "duration": 0.31578949999999995
                },
                {
                    "name": "G4",
                    "midi": 67,
                    "time": 1.8947370000000001,
                    "velocity": 0.3858267716535433,
                    "duration": 0.5526316250000001
                },
                {
                    "name": "B4",
                    "midi": 71,
                    "time": 2.447368625,
                    "velocity": 0.3700787401574803,
                    "duration": 0.07894737499999982
                },
                {
                    "name": "A4",
                    "midi": 69,
                    "time": 2.526316,
                    "velocity": 0.3700787401574803,
                    "duration": 0.31578950000000017
                },
                {
                    "name": "D4",
                    "midi": 62,
                    "time": 2.8421055,
                    "velocity": 0.3858267716535433,
                    "duration": 0.31578950000000017
                },
                {
                    "name": "E4",
                    "midi": 64,
                    "time": 3.1578950000000003,
                    "velocity": 0.3543307086614173,
                    "duration": 0.31578950000000017
                },
                {
                    "name": "F#4",
                    "midi": 66,
                    "time": 3.4736845000000005,
                    "velocity": 0.3543307086614173,
                    "duration": 0.15789475000000008
                },
                {
                    "name": "G4",
                    "midi": 67,
                    "time": 3.6315792500000006,
                    "velocity": 0.3543307086614173,
                    "duration": 0.03947368750000013
                },
                {
                    "name": "F#4",
                    "midi": 66,
                    "time": 3.6710529375000007,
                    "velocity": 0.3543307086614173,
                    "duration": 0.03947368750000013
                },
                {
                    "name": "E4",
                    "midi": 64,
                    "time": 3.710526625000001,
                    "velocity": 0.3543307086614173,
                    "duration": 0.03947368750000013
                },
                {
                    "name": "F#4",
                    "midi": 66,
                    "time": 3.750000312500001,
                    "velocity": 0.3543307086614173,
                    "duration": 0.03947368750000013
                },
                {
                    "name": "G4",
                    "midi": 67,
                    "time": 3.789474000000001,
                    "velocity": 0.36220472440944884,
                    "duration": 0.11842106249999995
                },
                {
                    "name": "G4",
                    "midi": 67,
                    "time": 4.105263500000001,
                    "velocity": 0.3543307086614173,
                    "duration": 0.1184210625000004
                },
                {
                    "name": "G4",
                    "midi": 67,
                    "time": 4.4210530000000015,
                    "velocity": 0.3543307086614173,
                    "duration": 0.1184210625000004
                },
                {
                    "name": "G4",
                    "midi": 67,
                    "time": 4.736842500000002,
                    "velocity": 0.3543307086614173,
                    "duration": 0.6315790000000003
                },
                {
                    "name": "D4",
                    "midi": 62,
                    "time": 5.368421500000002,
                    "velocity": 0.3543307086614173,
                    "duration": 0.31578950000000017
                },
                {
                    "name": "A4",
                    "midi": 69,
                    "time": 5.368421500000002,
                    "velocity": 0.3543307086614173,
                    "duration": 0.2368421249999999
                },
                {
                    "name": "C5",
                    "midi": 72,
                    "time": 5.605263625000002,
                    "velocity": 0.3543307086614173,
                    "duration": 0.07894737500000026
                },
                {
                    "name": "D4",
                    "midi": 62,
                    "time": 5.684211000000002,
                    "velocity": 0.3228346456692913,
                    "duration": 0.9473685000000005
                },
                {
                    "name": "B4",
                    "midi": 71,
                    "time": 5.684211000000002,
                    "velocity": 0.3858267716535433,
                    "duration": 0.31578950000000017
                },
                {
                    "name": "A4",
                    "midi": 69,
                    "time": 6.000000500000002,
                    "velocity": 0.3543307086614173,
                    "duration": 0.31578950000000017
                },
                {
                    "name": "B4",
                    "midi": 71,
                    "time": 6.3157900000000025,
                    "velocity": 0.3543307086614173,
                    "duration": 0.31578950000000017
                },
                {
                    "name": "F#4",
                    "midi": 66,
                    "time": 6.631579500000003,
                    "velocity": 0.3464566929133858,
                    "duration": 0.6315790000000003
                },
                {
                    "name": "D4",
                    "midi": 62,
                    "time": 6.631579500000003,
                    "velocity": 0.28346456692913385,
                    "duration": 0.9473685000000005
                },
                {
                    "name": "D5",
                    "midi": 74,
                    "time": 6.631579500000003,
                    "velocity": 0.3858267716535433,
                    "duration": 0.31578950000000017
                },
                {
                    "name": "C5",
                    "midi": 72,
                    "time": 6.947369000000003,
                    "velocity": 0.3543307086614173,
                    "duration": 0.31578950000000017
                },
                {
                    "name": "G4",
                    "midi": 67,
                    "time": 7.263158500000003,
                    "velocity": 0.3543307086614173,
                    "duration": 0.31578950000000017
                },
                {
                    "name": "B4",
                    "midi": 71,
                    "time": 7.263158500000003,
                    "velocity": 0.3543307086614173,
                    "duration": 0.31578950000000017
                },
                {
                    "name": "G4",
                    "midi": 67,
                    "time": 7.578948000000003,
                    "velocity": 0.3700787401574803,
                    "duration": 0.31578950000000017
                },
                {
                    "name": "B4",
                    "midi": 71,
                    "time": 7.578948000000003,
                    "velocity": 0.3700787401574803,
                    "duration": 0.31578950000000017
                },
                {
                    "name": "F#4",
                    "midi": 66,
                    "time": 7.894737500000003,
                    "velocity": 0.3543307086614173,
                    "duration": 0.3157894999999993
                },
                {
                    "name": "A4",
                    "midi": 69,
                    "time": 7.894737500000003,
                    "velocity": 0.3543307086614173,
                    "duration": 0.3157894999999993
                },
                {
                    "name": "F#4",
                    "midi": 66,
                    "time": 8.210527000000003,
                    "velocity": 0.3543307086614173,
                    "duration": 0.3157894999999993
                },
                {
                    "name": "A4",
                    "midi": 69,
                    "time": 8.210527000000003,
                    "velocity": 0.3543307086614173,
                    "duration": 0.3157894999999993
                },
                {
                    "name": "F#4",
                    "midi": 66,
                    "time": 8.526316500000002,
                    "velocity": 0.3543307086614173,
                    "duration": 0.6315790000000003
                },
                {
                    "name": "A4",
                    "midi": 69,
                    "time": 8.526316500000002,
                    "velocity": 0.3543307086614173,
                    "duration": 0.6315790000000003
                },
                {
                    "name": "G#4",
                    "midi": 68,
                    "time": 9.157895500000002,
                    "velocity": 0.36220472440944884,
                    "duration": 0.3157894999999993
                },
                {
                    "name": "B4",
                    "midi": 71,
                    "time": 9.157895500000002,
                    "velocity": 0.36220472440944884,
                    "duration": 0.3157894999999993
                },
                {
                    "name": "A4",
                    "midi": 69,
                    "time": 9.473685000000001,
                    "velocity": 0.3858267716535433,
                    "duration": 0.3157894999999993
                },
                {
                    "name": "C5",
                    "midi": 72,
                    "time": 9.473685000000001,
                    "velocity": 0.3858267716535433,
                    "duration": 0.3157894999999993
                },
                {
                    "name": "B4",
                    "midi": 71,
                    "time": 9.7894745,
                    "velocity": 0.4015748031496063,
                    "duration": 0.3157894999999993
                },
                {
                    "name": "D5",
                    "midi": 74,
                    "time": 9.7894745,
                    "velocity": 0.4015748031496063,
                    "duration": 0.3157894999999993
                },
                {
                    "name": "C5",
                    "midi": 72,
                    "time": 10.105264,
                    "velocity": 0.4015748031496063,
                    "duration": 0.3157894999999993
                },
                {
                    "name": "E5",
                    "midi": 76,
                    "time": 10.105264,
                    "velocity": 0.4015748031496063,
                    "duration": 0.3157894999999993
                },
                {
                    "name": "C5",
                    "midi": 72,
                    "time": 10.4210535,
                    "velocity": 0.4015748031496063,
                    "duration": 0.6315790000000003
                },
                {
                    "name": "E5",
                    "midi": 76,
                    "time": 10.4210535,
                    "velocity": 0.4015748031496063,
                    "duration": 0.6315790000000003
                },
                {
                    "name": "C5",
                    "midi": 72,
                    "time": 11.0526325,
                    "velocity": 0.4094488188976378,
                    "duration": 0.10526316666666702
                },
                {
                    "name": "A4",
                    "midi": 69,
                    "time": 11.0526325,
                    "velocity": 0.4094488188976378,
                    "duration": 0.31578950000000106
                },
                {
                    "name": "B4",
                    "midi": 71,
                    "time": 11.157895666666667,
                    "velocity": 0.33070866141732286,
                    "duration": 0.10526316666666702
                },
                {
                    "name": "C5",
                    "midi": 72,
                    "time": 11.263158833333334,
                    "velocity": 0.3464566929133858,
                    "duration": 0.10526316666666702
                },
                {
                    "name": "G4",
                    "midi": 67,
                    "time": 11.368422,
                    "velocity": 0.3937007874015748,
                    "duration": 0.3157894999999993
                },
                {
                    "name": "B4",
                    "midi": 71,
                    "time": 11.368422,
                    "velocity": 0.3937007874015748,
                    "duration": 0.3157894999999993
                },
                {
                    "name": "A4",
                    "midi": 69,
                    "time": 11.6842115,
                    "velocity": 0.3858267716535433,
                    "duration": 0.3157894999999993
                },
                {
                    "name": "C5",
                    "midi": 72,
                    "time": 11.6842115,
                    "velocity": 0.3858267716535433,
                    "duration": 0.3157894999999993
                },
                {
                    "name": "B4",
                    "midi": 71,
                    "time": 12.000001,
                    "velocity": 0.3858267716535433,
                    "duration": 0.3157894999999993
                },
                {
                    "name": "D5",
                    "midi": 74,
                    "time": 12.000001,
                    "velocity": 0.3858267716535433,
                    "duration": 0.3157894999999993
                },
                {
                    "name": "G4",
                    "midi": 67,
                    "time": 12.315790499999999,
                    "velocity": 0.4015748031496063,
                    "duration": 1.2631579999999971
                },
                {
                    "name": "C5",
                    "midi": 72,
                    "time": 12.315790499999999,
                    "velocity": 0.4015748031496063,
                    "duration": 0.3157894999999993
                },
                {
                    "name": "D5",
                    "midi": 74,
                    "time": 12.631579999999998,
                    "velocity": 0.4015748031496063,
                    "duration": 0.3157894999999993
                },
                {
                    "name": "E5",
                    "midi": 76,
                    "time": 12.947369499999997,
                    "velocity": 0.4015748031496063,
                    "duration": 0.3157894999999993
                },
                {
                    "name": "D5",
                    "midi": 74,
                    "time": 13.263158999999996,
                    "velocity": 0.41732283464566927,
                    "duration": 0.3157894999999993
                },
                {
                    "name": "G5",
                    "midi": 79,
                    "time": 13.578948499999996,
                    "velocity": 0.44881889763779526,
                    "duration": 0.3157894999999993
                },
                {
                    "name": "G5",
                    "midi": 79,
                    "time": 13.894737999999995,
                    "velocity": 0.44881889763779526,
                    "duration": 0.3157894999999993
                },
                {
                    "name": "A5",
                    "midi": 81,
                    "time": 14.210527499999994,
                    "velocity": 0.47244094488188976,
                    "duration": 0.15789475000000053
                },
                {
                    "name": "G5",
                    "midi": 79,
                    "time": 14.368422249999995,
                    "velocity": 0.41732283464566927,
                    "duration": 0.15789475000000053
                },
                {
                    "name": "F#5",
                    "midi": 78,
                    "time": 14.526316999999995,
                    "velocity": 0.44881889763779526,
                    "duration": 0.15789475000000053
                },
                {
                    "name": "E5",
                    "midi": 76,
                    "time": 14.684211749999996,
                    "velocity": 0.3937007874015748,
                    "duration": 0.15789475000000053
                },
                {
                    "name": "D5",
                    "midi": 74,
                    "time": 14.842106499999996,
                    "velocity": 0.4330708661417323,
                    "duration": 0.15789475000000053
                },
                {
                    "name": "C#5",
                    "midi": 73,
                    "time": 15.000001249999997,
                    "velocity": 0.3858267716535433,
                    "duration": 0.15789475000000053
                },
                {
                    "name": "E5",
                    "midi": 76,
                    "time": 15.157895999999997,
                    "velocity": 0.3700787401574803,
                    "duration": 0.3157894999999993
                },
                {
                    "name": "D5",
                    "midi": 74,
                    "time": 15.473685499999997,
                    "velocity": 0.3464566929133858,
                    "duration": 0.3157894999999993
                },
                {
                    "name": "D5",
                    "midi": 74,
                    "time": 15.789474999999996,
                    "velocity": 0.3464566929133858,
                    "duration": 0.31578950000000106
                },
                {
                    "name": "D5",
                    "midi": 74,
                    "time": 16.105264499999997,
                    "velocity": 0.3464566929133858,
                    "duration": 0.4736842500000016
                },
                {
                    "name": "B4",
                    "midi": 71,
                    "time": 16.57894875,
                    "velocity": 0.3464566929133858,
                    "duration": 0.15789475000000053
                },
                {
                    "name": "C5",
                    "midi": 72,
                    "time": 16.7368435,
                    "velocity": 0.3464566929133858,
                    "duration": 0.15789475000000053
                },
                {
                    "name": "A4",
                    "midi": 69,
                    "time": 16.89473825,
                    "velocity": 0.3464566929133858,
                    "duration": 0.15789475000000053
                },
                {
                    "name": "G4",
                    "midi": 67,
                    "time": 17.052633,
                    "velocity": 0.3858267716535433,
                    "duration": 0.5526316250000001
                },
                {
                    "name": "B4",
                    "midi": 71,
                    "time": 17.605264625,
                    "velocity": 0.3700787401574803,
                    "duration": 0.07894737499999849
                },
                {
                    "name": "A4",
                    "midi": 69,
                    "time": 17.684212,
                    "velocity": 0.3700787401574803,
                    "duration": 0.31578950000000106
                },
                {
                    "name": "D4",
                    "midi": 62,
                    "time": 18.0000015,
                    "velocity": 0.3858267716535433,
                    "duration": 0.31578950000000106
                },
                {
                    "name": "E4",
                    "midi": 64,
                    "time": 18.315791,
                    "velocity": 0.3543307086614173,
                    "duration": 0.31578950000000106
                },
                {
                    "name": "F#4",
                    "midi": 66,
                    "time": 18.631580500000002,
                    "velocity": 0.3543307086614173,
                    "duration": 0.15789475000000053
                },
                {
                    "name": "G4",
                    "midi": 67,
                    "time": 18.789475250000002,
                    "velocity": 0.3543307086614173,
                    "duration": 0.039473687499999244
                },
                {
                    "name": "F#4",
                    "midi": 66,
                    "time": 18.8289489375,
                    "velocity": 0.3543307086614173,
                    "duration": 0.039473687499999244
                },
                {
                    "name": "E4",
                    "midi": 64,
                    "time": 18.868422625,
                    "velocity": 0.3543307086614173,
                    "duration": 0.039473687499999244
                },
                {
                    "name": "F#4",
                    "midi": 66,
                    "time": 18.9078963125,
                    "velocity": 0.3543307086614173,
                    "duration": 0.039473687499999244
                },
                {
                    "name": "G4",
                    "midi": 67,
                    "time": 18.94737,
                    "velocity": 0.36220472440944884,
                    "duration": 0.11842106250000128
                },
                {
                    "name": "G4",
                    "midi": 67,
                    "time": 19.2631595,
                    "velocity": 0.3543307086614173,
                    "duration": 0.11842106250000128
                },
                {
                    "name": "G4",
                    "midi": 67,
                    "time": 19.578949,
                    "velocity": 0.3543307086614173,
                    "duration": 0.11842106250000128
                },
                {
                    "name": "G4",
                    "midi": 67,
                    "time": 19.894738500000003,
                    "velocity": 0.3543307086614173,
                    "duration": 0.6315789999999986
                },
                {
                    "name": "D4",
                    "midi": 62,
                    "time": 20.5263175,
                    "velocity": 0.3543307086614173,
                    "duration": 0.3157894999999975
                },
                {
                    "name": "A4",
                    "midi": 69,
                    "time": 20.5263175,
                    "velocity": 0.3543307086614173,
                    "duration": 0.23684212499999902
                },
                {
                    "name": "C5",
                    "midi": 72,
                    "time": 20.763159625,
                    "velocity": 0.3543307086614173,
                    "duration": 0.07894737499999849
                },
                {
                    "name": "D4",
                    "midi": 62,
                    "time": 20.842107,
                    "velocity": 0.3228346456692913,
                    "duration": 0.9473685000000032
                },
                {
                    "name": "B4",
                    "midi": 71,
                    "time": 20.842107,
                    "velocity": 0.3858267716535433,
                    "duration": 0.31578950000000106
                },
                {
                    "name": "A4",
                    "midi": 69,
                    "time": 21.1578965,
                    "velocity": 0.3543307086614173,
                    "duration": 0.31578950000000106
                },
                {
                    "name": "B4",
                    "midi": 71,
                    "time": 21.473686,
                    "velocity": 0.3543307086614173,
                    "duration": 0.31578950000000106
                },
                {
                    "name": "F#4",
                    "midi": 66,
                    "time": 21.7894755,
                    "velocity": 0.3464566929133858,
                    "duration": 0.6315790000000021
                },
                {
                    "name": "D4",
                    "midi": 62,
                    "time": 21.7894755,
                    "velocity": 0.28346456692913385,
                    "duration": 0.9473685000000032
                },
                {
                    "name": "D5",
                    "midi": 74,
                    "time": 21.7894755,
                    "velocity": 0.3858267716535433,
                    "duration": 0.31578950000000106
                },
                {
                    "name": "C5",
                    "midi": 72,
                    "time": 22.105265000000003,
                    "velocity": 0.3543307086614173,
                    "duration": 0.31578950000000106
                },
                {
                    "name": "G4",
                    "midi": 67,
                    "time": 22.421054500000004,
                    "velocity": 0.3543307086614173,
                    "duration": 0.31578950000000106
                },
                {
                    "name": "B4",
                    "midi": 71,
                    "time": 22.421054500000004,
                    "velocity": 0.3543307086614173,
                    "duration": 0.31578950000000106
                },
                {
                    "name": "G4",
                    "midi": 67,
                    "time": 22.736844000000005,
                    "velocity": 0.3700787401574803,
                    "duration": 0.31578950000000106
                },
                {
                    "name": "B4",
                    "midi": 71,
                    "time": 22.736844000000005,
                    "velocity": 0.3700787401574803,
                    "duration": 0.31578950000000106
                },
                {
                    "name": "F#4",
                    "midi": 66,
                    "time": 23.052633500000006,
                    "velocity": 0.3543307086614173,
                    "duration": 0.31578950000000106
                },
                {
                    "name": "A4",
                    "midi": 69,
                    "time": 23.052633500000006,
                    "velocity": 0.3543307086614173,
                    "duration": 0.31578950000000106
                },
                {
                    "name": "F#4",
                    "midi": 66,
                    "time": 23.368423000000007,
                    "velocity": 0.3543307086614173,
                    "duration": 0.31578950000000106
                },
                {
                    "name": "A4",
                    "midi": 69,
                    "time": 23.368423000000007,
                    "velocity": 0.3543307086614173,
                    "duration": 0.31578950000000106
                },
                {
                    "name": "F#4",
                    "midi": 66,
                    "time": 23.684212500000008,
                    "velocity": 0.3543307086614173,
                    "duration": 0.6315789999999986
                },
                {
                    "name": "A4",
                    "midi": 69,
                    "time": 23.684212500000008,
                    "velocity": 0.3543307086614173,
                    "duration": 0.6315789999999986
                },
                {
                    "name": "G#4",
                    "midi": 68,
                    "time": 24.315791500000007,
                    "velocity": 0.36220472440944884,
                    "duration": 0.31578950000000106
                },
                {
                    "name": "B4",
                    "midi": 71,
                    "time": 24.315791500000007,
                    "velocity": 0.36220472440944884,
                    "duration": 0.31578950000000106
                },
                {
                    "name": "A4",
                    "midi": 69,
                    "time": 24.631581000000008,
                    "velocity": 0.3858267716535433,
                    "duration": 0.31578950000000106
                },
                {
                    "name": "C5",
                    "midi": 72,
                    "time": 24.631581000000008,
                    "velocity": 0.3858267716535433,
                    "duration": 0.31578950000000106
                },
                {
                    "name": "B4",
                    "midi": 71,
                    "time": 24.94737050000001,
                    "velocity": 0.4015748031496063,
                    "duration": 0.31578950000000106
                },
                {
                    "name": "D5",
                    "midi": 74,
                    "time": 24.94737050000001,
                    "velocity": 0.4015748031496063,
                    "duration": 0.31578950000000106
                },
                {
                    "name": "C5",
                    "midi": 72,
                    "time": 25.26316000000001,
                    "velocity": 0.4015748031496063,
                    "duration": 0.31578950000000106
                },
                {
                    "name": "E5",
                    "midi": 76,
                    "time": 25.26316000000001,
                    "velocity": 0.4015748031496063,
                    "duration": 0.31578950000000106
                },
                {
                    "name": "C5",
                    "midi": 72,
                    "time": 25.57894950000001,
                    "velocity": 0.4015748031496063,
                    "duration": 0.6315789999999986
                },
                {
                    "name": "E5",
                    "midi": 76,
                    "time": 25.57894950000001,
                    "velocity": 0.4015748031496063,
                    "duration": 0.6315789999999986
                },
                {
                    "name": "C5",
                    "midi": 72,
                    "time": 26.21052850000001,
                    "velocity": 0.41732283464566927,
                    "duration": 0.10526316666666702
                },
                {
                    "name": "A4",
                    "midi": 69,
                    "time": 26.21052850000001,
                    "velocity": 0.41732283464566927,
                    "duration": 0.31578950000000106
                },
                {
                    "name": "B4",
                    "midi": 71,
                    "time": 26.315791666666676,
                    "velocity": 0.36220472440944884,
                    "duration": 0.10526316666666702
                },
                {
                    "name": "C5",
                    "midi": 72,
                    "time": 26.421054833333343,
                    "velocity": 0.36220472440944884,
                    "duration": 0.10526316666666702
                },
                {
                    "name": "G4",
                    "midi": 67,
                    "time": 26.52631800000001,
                    "velocity": 0.3937007874015748,
                    "duration": 0.31578950000000106
                },
                {
                    "name": "B4",
                    "midi": 71,
                    "time": 26.52631800000001,
                    "velocity": 0.3937007874015748,
                    "duration": 0.31578950000000106
                },
                {
                    "name": "A4",
                    "midi": 69,
                    "time": 26.84210750000001,
                    "velocity": 0.3858267716535433,
                    "duration": 0.31578950000000106
                },
                {
                    "name": "C5",
                    "midi": 72,
                    "time": 26.84210750000001,
                    "velocity": 0.3858267716535433,
                    "duration": 0.31578950000000106
                },
                {
                    "name": "B4",
                    "midi": 71,
                    "time": 27.157897000000013,
                    "velocity": 0.3858267716535433,
                    "duration": 0.31578950000000106
                },
                {
                    "name": "D5",
                    "midi": 74,
                    "time": 27.157897000000013,
                    "velocity": 0.3858267716535433,
                    "duration": 0.31578950000000106
                },
                {
                    "name": "G4",
                    "midi": 67,
                    "time": 27.473686500000014,
                    "velocity": 0.4015748031496063,
                    "duration": 1.2631580000000042
                },
                {
                    "name": "C5",
                    "midi": 72,
                    "time": 27.473686500000014,
                    "velocity": 0.4015748031496063,
                    "duration": 0.31578950000000106
                },
                {
                    "name": "D5",
                    "midi": 74,
                    "time": 27.789476000000015,
                    "velocity": 0.4015748031496063,
                    "duration": 0.31578950000000106
                },
                {
                    "name": "E5",
                    "midi": 76,
                    "time": 28.105265500000016,
                    "velocity": 0.4015748031496063,
                    "duration": 0.31578950000000106
                },
                {
                    "name": "D5",
                    "midi": 74,
                    "time": 28.421055000000017,
                    "velocity": 0.41732283464566927,
                    "duration": 0.31578950000000106
                },
                {
                    "name": "G5",
                    "midi": 79,
                    "time": 28.736844500000018,
                    "velocity": 0.44881889763779526,
                    "duration": 0.31578950000000106
                },
                {
                    "name": "G5",
                    "midi": 79,
                    "time": 29.05263400000002,
                    "velocity": 0.44881889763779526,
                    "duration": 0.31578950000000106
                },
                {
                    "name": "A5",
                    "midi": 81,
                    "time": 29.36842350000002,
                    "velocity": 0.47244094488188976,
                    "duration": 0.15789475000000053
                },
                {
                    "name": "G5",
                    "midi": 79,
                    "time": 29.52631825000002,
                    "velocity": 0.41732283464566927,
                    "duration": 0.15789475000000053
                },
                {
                    "name": "F#5",
                    "midi": 78,
                    "time": 29.68421300000002,
                    "velocity": 0.44881889763779526,
                    "duration": 0.15789475000000053
                },
                {
                    "name": "E5",
                    "midi": 76,
                    "time": 29.84210775000002,
                    "velocity": 0.4094488188976378,
                    "duration": 0.15789475000000053
                },
                {
                    "name": "D5",
                    "midi": 74,
                    "time": 30.000002500000022,
                    "velocity": 0.4330708661417323,
                    "duration": 0.15789475000000053
                },
                {
                    "name": "C#5",
                    "midi": 73,
                    "time": 30.157897250000023,
                    "velocity": 0.3700787401574803,
                    "duration": 0.15789475000000053
                },
                {
                    "name": "E5",
                    "midi": 76,
                    "time": 30.315792000000023,
                    "velocity": 0.3700787401574803,
                    "duration": 0.31578950000000106
                },
                {
                    "name": "D5",
                    "midi": 74,
                    "time": 30.631581500000024,
                    "velocity": 0.3464566929133858,
                    "duration": 0.31578950000000106
                },
                {
                    "name": "D5",
                    "midi": 74,
                    "time": 30.947371000000025,
                    "velocity": 0.3464566929133858,
                    "duration": 0.31578950000000106
                },
                {
                    "name": "D5",
                    "midi": 74,
                    "time": 31.263160500000026,
                    "velocity": 0.3464566929133858,
                    "duration": 0.6315789999999986
                },
                {
                    "name": "G5",
                    "midi": 79,
                    "time": 31.894739500000025,
                    "velocity": 0.41732283464566927,
                    "duration": 0.3157894999999975
                },
                {
                    "name": "G5",
                    "midi": 79,
                    "time": 32.21052900000002,
                    "velocity": 0.41732283464566927,
                    "duration": 0.5526316249999965
                },
                {
                    "name": "B5",
                    "midi": 83,
                    "time": 32.76316062500002,
                    "velocity": 0.3700787401574803,
                    "duration": 0.07894737499999849
                },
                {
                    "name": "A5",
                    "midi": 81,
                    "time": 32.84210800000002,
                    "velocity": 0.4015748031496063,
                    "duration": 0.31578950000000106
                },
                {
                    "name": "G5",
                    "midi": 79,
                    "time": 33.15789750000002,
                    "velocity": 0.41732283464566927,
                    "duration": 0.31578950000000106
                },
                {
                    "name": "F#5",
                    "midi": 78,
                    "time": 33.47368700000002,
                    "velocity": 0.3858267716535433,
                    "duration": 0.31578950000000106
                },
                {
                    "name": "E5",
                    "midi": 76,
                    "time": 33.78947650000002,
                    "velocity": 0.3858267716535433,
                    "duration": 0.31578950000000106
                },
                {
                    "name": "D5",
                    "midi": 74,
                    "time": 34.10526600000002,
                    "velocity": 0.3937007874015748,
                    "duration": 0.11842106249999773
                },
                {
                    "name": "D5",
                    "midi": 74,
                    "time": 34.42105550000002,
                    "velocity": 0.3700787401574803,
                    "duration": 0.11842106249999773
                },
                {
                    "name": "D5",
                    "midi": 74,
                    "time": 34.736845000000024,
                    "velocity": 0.3700787401574803,
                    "duration": 0.11842106249999773
                },
                {
                    "name": "D5",
                    "midi": 74,
                    "time": 35.052634500000025,
                    "velocity": 0.3700787401574803,
                    "duration": 0.6315790000000021
                },
                {
                    "name": "D#5",
                    "midi": 75,
                    "time": 35.68421350000003,
                    "velocity": 0.4015748031496063,
                    "duration": 0.31578950000000106
                },
                {
                    "name": "E5",
                    "midi": 76,
                    "time": 36.00000300000003,
                    "velocity": 0.4094488188976378,
                    "duration": 0.31578950000000106
                },
                {
                    "name": "F#5",
                    "midi": 78,
                    "time": 36.31579250000003,
                    "velocity": 0.4251968503937008,
                    "duration": 0.15789474999999698
                },
                {
                    "name": "G5",
                    "midi": 79,
                    "time": 36.473687250000026,
                    "velocity": 0.3543307086614173,
                    "duration": 0.039473687499999244
                },
                {
                    "name": "F#5",
                    "midi": 78,
                    "time": 36.513160937500025,
                    "velocity": 0.3543307086614173,
                    "duration": 0.039473687499999244
                },
                {
                    "name": "E5",
                    "midi": 76,
                    "time": 36.552634625000024,
                    "velocity": 0.3543307086614173,
                    "duration": 0.039473687499999244
                },
                {
                    "name": "F#5",
                    "midi": 78,
                    "time": 36.592108312500024,
                    "velocity": 0.3543307086614173,
                    "duration": 0.039473687499999244
                },
                {
                    "name": "G5",
                    "midi": 79,
                    "time": 36.63158200000002,
                    "velocity": 0.44881889763779526,
                    "duration": 0.31578950000000106
                },
                {
                    "name": "A4",
                    "midi": 69,
                    "time": 36.947371500000024,
                    "velocity": 0.4094488188976378,
                    "duration": 0.31578950000000106
                },
                {
                    "name": "B4",
                    "midi": 71,
                    "time": 37.263161000000025,
                    "velocity": 0.3937007874015748,
                    "duration": 0.31578950000000106
                },
                {
                    "name": "C#5",
                    "midi": 73,
                    "time": 37.578950500000026,
                    "velocity": 0.36220472440944884,
                    "duration": 0.15789474999999698
                },
                {
                    "name": "D5",
                    "midi": 74,
                    "time": 37.73684525000002,
                    "velocity": 0.30708661417322836,
                    "duration": 0.039473687499999244
                },
                {
                    "name": "C#5",
                    "midi": 73,
                    "time": 37.77631893750002,
                    "velocity": 0.30708661417322836,
                    "duration": 0.039473687499999244
                },
                {
                    "name": "B4",
                    "midi": 71,
                    "time": 37.81579262500002,
                    "velocity": 0.30708661417322836,
                    "duration": 0.039473687499999244
                },
                {
                    "name": "C#5",
                    "midi": 73,
                    "time": 37.85526631250002,
                    "velocity": 0.30708661417322836,
                    "duration": 0.039473687499999244
                },
                {
                    "name": "D5",
                    "midi": 74,
                    "time": 37.89474000000002,
                    "velocity": 0.36220472440944884,
                    "duration": 0.15789474999999698
                },
                {
                    "name": "D5",
                    "midi": 74,
                    "time": 38.526319000000015,
                    "velocity": 0.33070866141732286,
                    "duration": 0.15789474999999698
                },
                {
                    "name": "D5",
                    "midi": 74,
                    "time": 38.84210850000001,
                    "velocity": 0.33858267716535434,
                    "duration": 0.15789474999999698
                },
                {
                    "name": "D5",
                    "midi": 74,
                    "time": 39.473687500000004,
                    "velocity": 0.33070866141732286,
                    "duration": 0.15789474999999698
                },
                {
                    "name": "D5",
                    "midi": 74,
                    "time": 39.789477,
                    "velocity": 0.3543307086614173,
                    "duration": 0.15789474999999698
                },
                {
                    "name": "D5",
                    "midi": 74,
                    "time": 40.42105599999999,
                    "velocity": 0.3464566929133858,
                    "duration": 0.15789474999999698
                },
                {
                    "name": "D5",
                    "midi": 74,
                    "time": 40.73684549999999,
                    "velocity": 0.3543307086614173,
                    "duration": 0.15789474999999698
                },
                {
                    "name": "D5",
                    "midi": 74,
                    "time": 41.36842449999998,
                    "velocity": 0.3228346456692913,
                    "duration": 0.15789474999999698
                },
                {
                    "name": "D5",
                    "midi": 74,
                    "time": 41.684213999999976,
                    "velocity": 0.33858267716535434,
                    "duration": 0.15789474999999698
                },
                {
                    "name": "D5",
                    "midi": 74,
                    "time": 42.00000349999997,
                    "velocity": 0.29133858267716534,
                    "duration": 0.31578950000000106
                },
                {
                    "name": "F#5",
                    "midi": 78,
                    "time": 42.00000349999997,
                    "velocity": 0.29133858267716534,
                    "duration": 0.31578950000000106
                },
                {
                    "name": "E5",
                    "midi": 76,
                    "time": 42.31579299999997,
                    "velocity": 0.28346456692913385,
                    "duration": 0.31578950000000106
                },
                {
                    "name": "G5",
                    "midi": 79,
                    "time": 42.31579299999997,
                    "velocity": 0.28346456692913385,
                    "duration": 0.31578950000000106
                },
                {
                    "name": "A5",
                    "midi": 81,
                    "time": 42.94737199999997,
                    "velocity": 0.29133858267716534,
                    "duration": 0.31578950000000106
                },
                {
                    "name": "F#5",
                    "midi": 78,
                    "time": 42.94737199999997,
                    "velocity": 0.29133858267716534,
                    "duration": 0.31578950000000106
                },
                {
                    "name": "G5",
                    "midi": 79,
                    "time": 43.263161499999974,
                    "velocity": 0.28346456692913385,
                    "duration": 0.31578950000000106
                },
                {
                    "name": "B5",
                    "midi": 83,
                    "time": 43.263161499999974,
                    "velocity": 0.28346456692913385,
                    "duration": 0.31578950000000106
                },
                {
                    "name": "A5",
                    "midi": 81,
                    "time": 43.894740499999976,
                    "velocity": 0.31496062992125984,
                    "duration": 0.31578950000000106
                },
                {
                    "name": "C6",
                    "midi": 84,
                    "time": 43.894740499999976,
                    "velocity": 0.31496062992125984,
                    "duration": 0.31578950000000106
                },
                {
                    "name": "B5",
                    "midi": 83,
                    "time": 44.21052999999998,
                    "velocity": 0.28346456692913385,
                    "duration": 0.31578950000000106
                },
                {
                    "name": "G5",
                    "midi": 79,
                    "time": 44.21052999999998,
                    "velocity": 0.28346456692913385,
                    "duration": 0.31578950000000106
                },
                {
                    "name": "C5",
                    "midi": 72,
                    "time": 44.84210899999998,
                    "velocity": 0.3700787401574803,
                    "duration": 0.31578950000000106
                },
                {
                    "name": "A5",
                    "midi": 81,
                    "time": 44.84210899999998,
                    "velocity": 0.3700787401574803,
                    "duration": 0.31578950000000106
                },
                {
                    "name": "B4",
                    "midi": 71,
                    "time": 45.15789849999998,
                    "velocity": 0.3700787401574803,
                    "duration": 0.31578950000000106
                },
                {
                    "name": "G5",
                    "midi": 79,
                    "time": 45.15789849999998,
                    "velocity": 0.3700787401574803,
                    "duration": 0.31578950000000106
                },
                {
                    "name": "C5",
                    "midi": 72,
                    "time": 45.47368799999998,
                    "velocity": 0.3543307086614173,
                    "duration": 1.4210527500000012
                },
                {
                    "name": "F#5",
                    "midi": 78,
                    "time": 45.47368799999998,
                    "velocity": 0.3543307086614173,
                    "duration": 1.4210527500000012
                },
                {
                    "name": "B4",
                    "midi": 71,
                    "time": 46.89474074999998,
                    "velocity": 0.33858267716535434,
                    "duration": 0.07894737499999849
                },
                {
                    "name": "C5",
                    "midi": 72,
                    "time": 46.97368812499998,
                    "velocity": 0.3543307086614173,
                    "duration": 0.07894737499999849
                },
                {
                    "name": "D5",
                    "midi": 74,
                    "time": 47.05263549999998,
                    "velocity": 0.3700787401574803,
                    "duration": 0.07894737499999849
                },
                {
                    "name": "C5",
                    "midi": 72,
                    "time": 47.13158287499998,
                    "velocity": 0.3543307086614173,
                    "duration": 0.07894737499999849
                },
                {
                    "name": "B4",
                    "midi": 71,
                    "time": 47.21053024999998,
                    "velocity": 0.3543307086614173,
                    "duration": 0.07894737499999849
                },
                {
                    "name": "A4",
                    "midi": 69,
                    "time": 47.289477624999975,
                    "velocity": 0.3464566929133858,
                    "duration": 0.07894737499999849
                },
                {
                    "name": "G4",
                    "midi": 67,
                    "time": 47.368424999999974,
                    "velocity": 0.3858267716535433,
                    "duration": 0.5526316249999965
                },
                {
                    "name": "B4",
                    "midi": 71,
                    "time": 47.92105662499997,
                    "velocity": 0.3700787401574803,
                    "duration": 0.07894737499999849
                },
                {
                    "name": "A4",
                    "midi": 69,
                    "time": 48.00000399999997,
                    "velocity": 0.3700787401574803,
                    "duration": 0.31578950000000106
                },
                {
                    "name": "D4",
                    "midi": 62,
                    "time": 48.31579349999997,
                    "velocity": 0.3858267716535433,
                    "duration": 0.31578950000000106
                },
                {
                    "name": "E4",
                    "midi": 64,
                    "time": 48.63158299999997,
                    "velocity": 0.3543307086614173,
                    "duration": 0.31578950000000106
                },
                {
                    "name": "F#4",
                    "midi": 66,
                    "time": 48.94737249999997,
                    "velocity": 0.3543307086614173,
                    "duration": 0.15789474999999698
                },
                {
                    "name": "G4",
                    "midi": 67,
                    "time": 49.10526724999997,
                    "velocity": 0.3543307086614173,
                    "duration": 0.05263158333332996
                },
                {
                    "name": "F#4",
                    "midi": 66,
                    "time": 49.14474093749997,
                    "velocity": 0.3543307086614173,
                    "duration": 0.05263158333332996
                },
                {
                    "name": "E4",
                    "midi": 64,
                    "time": 49.18421462499997,
                    "velocity": 0.3543307086614173,
                    "duration": 0.05263158333332996
                },
                {
                    "name": "F#4",
                    "midi": 66,
                    "time": 49.22368831249997,
                    "velocity": 0.3543307086614173,
                    "duration": 0.039473687499999244
                },
                {
                    "name": "G4",
                    "midi": 67,
                    "time": 49.263161999999966,
                    "velocity": 0.36220472440944884,
                    "duration": 0.11842106249999773
                },
                {
                    "name": "G4",
                    "midi": 67,
                    "time": 49.57895149999997,
                    "velocity": 0.3543307086614173,
                    "duration": 0.11842106249999773
                },
                {
                    "name": "G4",
                    "midi": 67,
                    "time": 49.89474099999997,
                    "velocity": 0.3543307086614173,
                    "duration": 0.11842106249999773
                },
                {
                    "name": "G4",
                    "midi": 67,
                    "time": 50.21053049999997,
                    "velocity": 0.3543307086614173,
                    "duration": 0.6315790000000021
                },
                {
                    "name": "D4",
                    "midi": 62,
                    "time": 50.84210949999997,
                    "velocity": 0.3543307086614173,
                    "duration": 0.31578950000000106
                },
                {
                    "name": "A4",
                    "midi": 69,
                    "time": 50.84210949999997,
                    "velocity": 0.3543307086614173,
                    "duration": 0.23684212500000257
                },
                {
                    "name": "C5",
                    "midi": 72,
                    "time": 51.07895162499997,
                    "velocity": 0.3543307086614173,
                    "duration": 0.07894737499999849
                },
                {
                    "name": "D4",
                    "midi": 62,
                    "time": 51.15789899999997,
                    "velocity": 0.3228346456692913,
                    "duration": 0.9473685000000032
                },
                {
                    "name": "B4",
                    "midi": 71,
                    "time": 51.15789899999997,
                    "velocity": 0.3858267716535433,
                    "duration": 0.31578950000000106
                },
                {
                    "name": "A4",
                    "midi": 69,
                    "time": 51.47368849999997,
                    "velocity": 0.3543307086614173,
                    "duration": 0.31578950000000106
                },
                {
                    "name": "B4",
                    "midi": 71,
                    "time": 51.789477999999974,
                    "velocity": 0.3543307086614173,
                    "duration": 0.31578950000000106
                },
                {
                    "name": "F#4",
                    "midi": 66,
                    "time": 52.105267499999975,
                    "velocity": 0.3464566929133858,
                    "duration": 0.6315790000000021
                },
                {
                    "name": "D4",
                    "midi": 62,
                    "time": 52.105267499999975,
                    "velocity": 0.28346456692913385,
                    "duration": 0.9473685000000032
                },
                {
                    "name": "D5",
                    "midi": 74,
                    "time": 52.105267499999975,
                    "velocity": 0.3858267716535433,
                    "duration": 0.31578950000000106
                },
                {
                    "name": "C5",
                    "midi": 72,
                    "time": 52.421056999999976,
                    "velocity": 0.3543307086614173,
                    "duration": 0.31578950000000106
                },
                {
                    "name": "G4",
                    "midi": 67,
                    "time": 52.73684649999998,
                    "velocity": 0.3543307086614173,
                    "duration": 0.31578950000000106
                },
                {
                    "name": "B4",
                    "midi": 71,
                    "time": 52.73684649999998,
                    "velocity": 0.3543307086614173,
                    "duration": 0.31578950000000106
                },
                {
                    "name": "G4",
                    "midi": 67,
                    "time": 53.05263599999998,
                    "velocity": 0.3700787401574803,
                    "duration": 0.31578950000000106
                },
                {
                    "name": "B4",
                    "midi": 71,
                    "time": 53.05263599999998,
                    "velocity": 0.3700787401574803,
                    "duration": 0.31578950000000106
                },
                {
                    "name": "F#4",
                    "midi": 66,
                    "time": 53.36842549999998,
                    "velocity": 0.3543307086614173,
                    "duration": 0.31578950000000106
                },
                {
                    "name": "A4",
                    "midi": 69,
                    "time": 53.36842549999998,
                    "velocity": 0.3543307086614173,
                    "duration": 0.31578950000000106
                },
                {
                    "name": "F#4",
                    "midi": 66,
                    "time": 53.68421499999998,
                    "velocity": 0.3543307086614173,
                    "duration": 0.31578950000000106
                },
                {
                    "name": "A4",
                    "midi": 69,
                    "time": 53.68421499999998,
                    "velocity": 0.3543307086614173,
                    "duration": 0.31578950000000106
                },
                {
                    "name": "F#4",
                    "midi": 66,
                    "time": 54.00000449999998,
                    "velocity": 0.3543307086614173,
                    "duration": 0.6315790000000021
                },
                {
                    "name": "A4",
                    "midi": 69,
                    "time": 54.00000449999998,
                    "velocity": 0.3543307086614173,
                    "duration": 0.6315790000000021
                },
                {
                    "name": "G#4",
                    "midi": 68,
                    "time": 54.631583499999984,
                    "velocity": 0.36220472440944884,
                    "duration": 0.31578950000000106
                },
                {
                    "name": "B4",
                    "midi": 71,
                    "time": 54.631583499999984,
                    "velocity": 0.36220472440944884,
                    "duration": 0.31578950000000106
                },
                {
                    "name": "A4",
                    "midi": 69,
                    "time": 54.947372999999985,
                    "velocity": 0.3858267716535433,
                    "duration": 0.31578950000000106
                },
                {
                    "name": "C5",
                    "midi": 72,
                    "time": 54.947372999999985,
                    "velocity": 0.3858267716535433,
                    "duration": 0.31578950000000106
                },
                {
                    "name": "B4",
                    "midi": 71,
                    "time": 55.263162499999986,
                    "velocity": 0.4015748031496063,
                    "duration": 0.31578950000000106
                },
                {
                    "name": "D5",
                    "midi": 74,
                    "time": 55.263162499999986,
                    "velocity": 0.4015748031496063,
                    "duration": 0.31578950000000106
                },
                {
                    "name": "C5",
                    "midi": 72,
                    "time": 55.57895199999999,
                    "velocity": 0.4015748031496063,
                    "duration": 0.31578950000000106
                },
                {
                    "name": "E5",
                    "midi": 76,
                    "time": 55.57895199999999,
                    "velocity": 0.4015748031496063,
                    "duration": 0.31578950000000106
                },
                {
                    "name": "C5",
                    "midi": 72,
                    "time": 55.89474149999999,
                    "velocity": 0.4015748031496063,
                    "duration": 0.6315790000000021
                },
                {
                    "name": "E5",
                    "midi": 76,
                    "time": 55.89474149999999,
                    "velocity": 0.4015748031496063,
                    "duration": 0.6315790000000021
                },
                {
                    "name": "C5",
                    "midi": 72,
                    "time": 56.52632049999999,
                    "velocity": 0.3543307086614173,
                    "duration": 0.15789474999999698
                },
                {
                    "name": "A4",
                    "midi": 69,
                    "time": 56.52632049999999,
                    "velocity": 0.3543307086614173,
                    "duration": 0.31578949999999395
                },
                {
                    "name": "D5",
                    "midi": 74,
                    "time": 56.68421524999999,
                    "velocity": 0.33858267716535434,
                    "duration": 0.05263158333332996
                },
                {
                    "name": "C5",
                    "midi": 72,
                    "time": 56.723688937499986,
                    "velocity": 0.33858267716535434,
                    "duration": 0.05263158333332996
                },
                {
                    "name": "B4",
                    "midi": 71,
                    "time": 56.763162624999985,
                    "velocity": 0.33858267716535434,
                    "duration": 0.05263158333332996
                },
                {
                    "name": "C5",
                    "midi": 72,
                    "time": 56.802636312499985,
                    "velocity": 0.33858267716535434,
                    "duration": 0.05263158333332996
                },
                {
                    "name": "G4",
                    "midi": 67,
                    "time": 56.842109999999984,
                    "velocity": 0.36220472440944884,
                    "duration": 0.31578949999999395
                },
                {
                    "name": "B4",
                    "midi": 71,
                    "time": 56.842109999999984,
                    "velocity": 0.36220472440944884,
                    "duration": 0.31578949999999395
                },
                {
                    "name": "A4",
                    "midi": 69,
                    "time": 57.15789949999998,
                    "velocity": 0.3543307086614173,
                    "duration": 0.31578950000000106
                },
                {
                    "name": "C5",
                    "midi": 72,
                    "time": 57.15789949999998,
                    "velocity": 0.3543307086614173,
                    "duration": 0.31578950000000106
                },
                {
                    "name": "B4",
                    "midi": 71,
                    "time": 57.47368899999998,
                    "velocity": 0.3543307086614173,
                    "duration": 0.15789474999999698
                },
                {
                    "name": "D5",
                    "midi": 74,
                    "time": 57.47368899999998,
                    "velocity": 0.3543307086614173,
                    "duration": 0.15789474999999698
                },
                {
                    "name": "C#5",
                    "midi": 73,
                    "time": 57.631583749999976,
                    "velocity": 0.3543307086614173,
                    "duration": 0.05263158333332996
                },
                {
                    "name": "D5",
                    "midi": 74,
                    "time": 57.684215333333306,
                    "velocity": 0.3543307086614173,
                    "duration": 0.05263158333332996
                },
                {
                    "name": "E5",
                    "midi": 76,
                    "time": 57.736846916666636,
                    "velocity": 0.3543307086614173,
                    "duration": 0.05263158333332996
                },
                {
                    "name": "B4",
                    "midi": 71,
                    "time": 57.789478499999966,
                    "velocity": 0.3700787401574803,
                    "duration": 0.6315790000000021
                },
                {
                    "name": "D5",
                    "midi": 74,
                    "time": 57.789478499999966,
                    "velocity": 0.3700787401574803,
                    "duration": 0.6315790000000021
                },
                {
                    "name": "B3",
                    "midi": 59,
                    "time": 58.42105749999997,
                    "velocity": 0.31496062992125984,
                    "duration": 0.31578949999999395
                },
                {
                    "name": "G4",
                    "midi": 67,
                    "time": 58.42105749999997,
                    "velocity": 0.31496062992125984,
                    "duration": 0.15789474999999698
                },
                {
                    "name": "A4",
                    "midi": 69,
                    "time": 58.578952249999965,
                    "velocity": 0.28346456692913385,
                    "duration": 0.05263158333332996
                },
                {
                    "name": "G4",
                    "midi": 67,
                    "time": 58.618425937499964,
                    "velocity": 0.28346456692913385,
                    "duration": 0.05263158333332996
                },
                {
                    "name": "F#4",
                    "midi": 66,
                    "time": 58.65789962499996,
                    "velocity": 0.28346456692913385,
                    "duration": 0.05263158333332996
                },
                {
                    "name": "G4",
                    "midi": 67,
                    "time": 58.69737331249996,
                    "velocity": 0.28346456692913385,
                    "duration": 0.039473687499999244
                },
                {
                    "name": "C4",
                    "midi": 60,
                    "time": 58.73684699999996,
                    "velocity": 0.3464566929133858,
                    "duration": 0.31578950000000106
                },
                {
                    "name": "A4",
                    "midi": 69,
                    "time": 58.73684699999996,
                    "velocity": 0.3464566929133858,
                    "duration": 0.31578950000000106
                },
                {
                    "name": "E4",
                    "midi": 64,
                    "time": 59.05263649999996,
                    "velocity": 0.3228346456692913,
                    "duration": 0.31578950000000106
                },
                {
                    "name": "C5",
                    "midi": 72,
                    "time": 59.05263649999996,
                    "velocity": 0.3228346456692913,
                    "duration": 0.31578950000000106
                },
                {
                    "name": "D4",
                    "midi": 62,
                    "time": 59.368425999999964,
                    "velocity": 0.3228346456692913,
                    "duration": 0.31578950000000106
                },
                {
                    "name": "B4",
                    "midi": 71,
                    "time": 59.368425999999964,
                    "velocity": 0.3228346456692913,
                    "duration": 0.31578950000000106
                },
                {
                    "name": "C4",
                    "midi": 60,
                    "time": 59.684215499999965,
                    "velocity": 0.3464566929133858,
                    "duration": 0.31578949999999395
                },
                {
                    "name": "A4",
                    "midi": 69,
                    "time": 59.684215499999965,
                    "velocity": 0.3464566929133858,
                    "duration": 0.15789474999999698
                },
                {
                    "name": "B4",
                    "midi": 71,
                    "time": 59.84211024999996,
                    "velocity": 0.28346456692913385,
                    "duration": 0.039473687499999244
                },
                {
                    "name": "A4",
                    "midi": 69,
                    "time": 59.88158393749996,
                    "velocity": 0.28346456692913385,
                    "duration": 0.039473687499999244
                },
                {
                    "name": "G4",
                    "midi": 67,
                    "time": 59.92105762499996,
                    "velocity": 0.28346456692913385,
                    "duration": 0.039473687499999244
                },
                {
                    "name": "A4",
                    "midi": 69,
                    "time": 59.96053131249996,
                    "velocity": 0.28346456692913385,
                    "duration": 0.039473687499999244
                },
                {
                    "name": "B3",
                    "midi": 59,
                    "time": 60.00000499999996,
                    "velocity": 0.31496062992125984,
                    "duration": 0.31578950000000106
                },
                {
                    "name": "G4",
                    "midi": 67,
                    "time": 60.00000499999996,
                    "velocity": 0.31496062992125984,
                    "duration": 0.31578950000000106
                },
                {
                    "name": "A3",
                    "midi": 57,
                    "time": 60.31579449999996,
                    "velocity": 0.2755905511811024,
                    "duration": 0.31578949999999395
                },
                {
                    "name": "F#4",
                    "midi": 66,
                    "time": 60.31579449999996,
                    "velocity": 0.2755905511811024,
                    "duration": 0.15789474999999698
                },
                {
                    "name": "G4",
                    "midi": 67,
                    "time": 60.47368924999996,
                    "velocity": 0.2755905511811024,
                    "duration": 0.05263158333332996
                },
                {
                    "name": "F#4",
                    "midi": 66,
                    "time": 60.513162937499956,
                    "velocity": 0.2755905511811024,
                    "duration": 0.05263158333332996
                },
                {
                    "name": "E4",
                    "midi": 64,
                    "time": 60.552636624999955,
                    "velocity": 0.2755905511811024,
                    "duration": 0.05263158333332996
                },
                {
                    "name": "F#4",
                    "midi": 66,
                    "time": 60.592110312499955,
                    "velocity": 0.2755905511811024,
                    "duration": 0.05263158333332996
                },
                {
                    "name": "C4",
                    "midi": 60,
                    "time": 60.631583999999954,
                    "velocity": 0.30708661417322836,
                    "duration": 0.31578949999999395
                },
                {
                    "name": "A4",
                    "midi": 69,
                    "time": 60.631583999999954,
                    "velocity": 0.30708661417322836,
                    "duration": 0.31578949999999395
                },
                {
                    "name": "B3",
                    "midi": 59,
                    "time": 60.94737349999995,
                    "velocity": 0.23622047244094488,
                    "duration": 0.31578950000000106
                },
                {
                    "name": "G4",
                    "midi": 67,
                    "time": 60.94737349999995,
                    "velocity": 0.23622047244094488,
                    "duration": 0.31578950000000106
                },
                {
                    "name": "B3",
                    "midi": 59,
                    "time": 61.26316299999995,
                    "velocity": 0.23622047244094488,
                    "duration": 0.31578950000000106
                },
                {
                    "name": "G4",
                    "midi": 67,
                    "time": 61.26316299999995,
                    "velocity": 0.23622047244094488,
                    "duration": 0.31578950000000106
                },
                {
                    "name": "B3",
                    "midi": 59,
                    "time": 61.57895249999995,
                    "velocity": 0.23622047244094488,
                    "duration": 0.6315790000000021
                },
                {
                    "name": "G4",
                    "midi": 67,
                    "time": 61.57895249999995,
                    "velocity": 0.23622047244094488,
                    "duration": 0.6315790000000021
                },
                {
                    "name": "G5",
                    "midi": 79,
                    "time": 62.21053149999995,
                    "velocity": 0.41732283464566927,
                    "duration": 0.31578950000000106
                },
                {
                    "name": "G5",
                    "midi": 79,
                    "time": 62.52632099999995,
                    "velocity": 0.41732283464566927,
                    "duration": 0.5526316249999965
                },
                {
                    "name": "B5",
                    "midi": 83,
                    "time": 63.07895262499995,
                    "velocity": 0.4015748031496063,
                    "duration": 0.07894737499999849
                },
                {
                    "name": "A5",
                    "midi": 81,
                    "time": 63.15789999999995,
                    "velocity": 0.4015748031496063,
                    "duration": 0.31578950000000106
                },
                {
                    "name": "G5",
                    "midi": 79,
                    "time": 63.47368949999995,
                    "velocity": 0.41732283464566927,
                    "duration": 0.31578950000000106
                },
                {
                    "name": "F#5",
                    "midi": 78,
                    "time": 63.78947899999995,
                    "velocity": 0.3858267716535433,
                    "duration": 0.31578950000000106
                },
                {
                    "name": "E5",
                    "midi": 76,
                    "time": 64.10526849999995,
                    "velocity": 0.3858267716535433,
                    "duration": 0.31578949999999395
                },
                {
                    "name": "D5",
                    "midi": 74,
                    "time": 64.42105799999995,
                    "velocity": 0.3937007874015748,
                    "duration": 0.11842106250000484
                },
                {
                    "name": "D5",
                    "midi": 74,
                    "time": 64.73684749999995,
                    "velocity": 0.3700787401574803,
                    "duration": 0.11842106250000484
                },
                {
                    "name": "D5",
                    "midi": 74,
                    "time": 65.05263699999996,
                    "velocity": 0.3700787401574803,
                    "duration": 0.11842106250000484
                },
                {
                    "name": "D5",
                    "midi": 74,
                    "time": 65.36842649999997,
                    "velocity": 0.3700787401574803,
                    "duration": 0.6315790000000021
                },
                {
                    "name": "D#5",
                    "midi": 75,
                    "time": 66.00000549999997,
                    "velocity": 0.4015748031496063,
                    "duration": 0.31578949999999395
                },
                {
                    "name": "E5",
                    "midi": 76,
                    "time": 66.31579499999997,
                    "velocity": 0.4094488188976378,
                    "duration": 0.31578949999999395
                },
                {
                    "name": "F#5",
                    "midi": 78,
                    "time": 66.63158449999996,
                    "velocity": 0.4251968503937008,
                    "duration": 0.15789474999999698
                },
                {
                    "name": "G5",
                    "midi": 79,
                    "time": 66.78947924999996,
                    "velocity": 0.3543307086614173,
                    "duration": 0.05263158333333706
                },
                {
                    "name": "F#5",
                    "midi": 78,
                    "time": 66.82895293749996,
                    "velocity": 0.3543307086614173,
                    "duration": 0.05263158333332285
                },
                {
                    "name": "E5",
                    "midi": 76,
                    "time": 66.86842662499996,
                    "velocity": 0.3543307086614173,
                    "duration": 0.05263158333332285
                },
                {
                    "name": "F#5",
                    "midi": 78,
                    "time": 66.90790031249995,
                    "velocity": 0.3543307086614173,
                    "duration": 0.05263158333332285
                },
                {
                    "name": "G5",
                    "midi": 79,
                    "time": 66.94737399999994,
                    "velocity": 0.44881889763779526,
                    "duration": 0.31578949999999395
                },
                {
                    "name": "A4",
                    "midi": 69,
                    "time": 67.26316349999993,
                    "velocity": 0.4094488188976378,
                    "duration": 0.31578949999999395
                },
                {
                    "name": "B4",
                    "midi": 71,
                    "time": 67.57895299999993,
                    "velocity": 0.3937007874015748,
                    "duration": 0.31578949999999395
                },
                {
                    "name": "C#5",
                    "midi": 73,
                    "time": 67.89474249999992,
                    "velocity": 0.36220472440944884,
                    "duration": 0.15789474999999698
                },
                {
                    "name": "D5",
                    "midi": 74,
                    "time": 68.05263724999992,
                    "velocity": 0.30708661417322836,
                    "duration": 0.05263158333333706
                },
                {
                    "name": "C#5",
                    "midi": 73,
                    "time": 68.09211093749992,
                    "velocity": 0.30708661417322836,
                    "duration": 0.05263158333332285
                },
                {
                    "name": "B4",
                    "midi": 71,
                    "time": 68.13158462499992,
                    "velocity": 0.30708661417322836,
                    "duration": 0.05263158333332285
                },
                {
                    "name": "C#5",
                    "midi": 73,
                    "time": 68.17105831249991,
                    "velocity": 0.30708661417322836,
                    "duration": 0.05263158333332285
                },
                {
                    "name": "D5",
                    "midi": 74,
                    "time": 68.2105319999999,
                    "velocity": 0.36220472440944884,
                    "duration": 0.15789474999999698
                },
                {
                    "name": "D5",
                    "midi": 74,
                    "time": 68.8421109999999,
                    "velocity": 0.33070866141732286,
                    "duration": 0.15789474999999698
                },
                {
                    "name": "D5",
                    "midi": 74,
                    "time": 69.1579004999999,
                    "velocity": 0.33858267716535434,
                    "duration": 0.15789474999999698
                },
                {
                    "name": "D5",
                    "midi": 74,
                    "time": 69.7894794999999,
                    "velocity": 0.33070866141732286,
                    "duration": 0.15789474999999698
                },
                {
                    "name": "D5",
                    "midi": 74,
                    "time": 70.1052689999999,
                    "velocity": 0.3543307086614173,
                    "duration": 0.15789474999999698
                },
                {
                    "name": "D5",
                    "midi": 74,
                    "time": 70.7368479999999,
                    "velocity": 0.3464566929133858,
                    "duration": 0.15789474999999698
                },
                {
                    "name": "D5",
                    "midi": 74,
                    "time": 71.05263749999989,
                    "velocity": 0.3543307086614173,
                    "duration": 0.15789474999999698
                },
                {
                    "name": "D5",
                    "midi": 74,
                    "time": 71.68421649999989,
                    "velocity": 0.3228346456692913,
                    "duration": 0.15789474999999698
                },
                {
                    "name": "D5",
                    "midi": 74,
                    "time": 72.00000599999989,
                    "velocity": 0.33858267716535434,
                    "duration": 0.15789474999999698
                },
                {
                    "name": "D5",
                    "midi": 74,
                    "time": 72.31579549999988,
                    "velocity": 0.29133858267716534,
                    "duration": 0.31578949999999395
                },
                {
                    "name": "F#5",
                    "midi": 78,
                    "time": 72.31579549999988,
                    "velocity": 0.29133858267716534,
                    "duration": 0.31578949999999395
                },
                {
                    "name": "E5",
                    "midi": 76,
                    "time": 72.63158499999987,
                    "velocity": 0.28346456692913385,
                    "duration": 0.31578949999999395
                },
                {
                    "name": "G5",
                    "midi": 79,
                    "time": 72.63158499999987,
                    "velocity": 0.28346456692913385,
                    "duration": 0.31578949999999395
                },
                {
                    "name": "A5",
                    "midi": 81,
                    "time": 73.26316399999986,
                    "velocity": 0.29133858267716534,
                    "duration": 0.31578949999999395
                },
                {
                    "name": "F#5",
                    "midi": 78,
                    "time": 73.26316399999986,
                    "velocity": 0.29133858267716534,
                    "duration": 0.31578949999999395
                },
                {
                    "name": "G5",
                    "midi": 79,
                    "time": 73.57895349999986,
                    "velocity": 0.28346456692913385,
                    "duration": 0.31578949999999395
                },
                {
                    "name": "B5",
                    "midi": 83,
                    "time": 73.57895349999986,
                    "velocity": 0.28346456692913385,
                    "duration": 0.31578949999999395
                },
                {
                    "name": "A5",
                    "midi": 81,
                    "time": 74.21053249999984,
                    "velocity": 0.31496062992125984,
                    "duration": 0.31578949999999395
                },
                {
                    "name": "C6",
                    "midi": 84,
                    "time": 74.21053249999984,
                    "velocity": 0.31496062992125984,
                    "duration": 0.31578949999999395
                },
                {
                    "name": "B5",
                    "midi": 83,
                    "time": 74.52632199999984,
                    "velocity": 0.28346456692913385,
                    "duration": 0.31578949999999395
                },
                {
                    "name": "G5",
                    "midi": 79,
                    "time": 74.52632199999984,
                    "velocity": 0.28346456692913385,
                    "duration": 0.31578949999999395
                },
                {
                    "name": "C5",
                    "midi": 72,
                    "time": 75.15790099999982,
                    "velocity": 0.3700787401574803,
                    "duration": 0.31578949999999395
                },
                {
                    "name": "A5",
                    "midi": 81,
                    "time": 75.15790099999982,
                    "velocity": 0.3700787401574803,
                    "duration": 0.31578949999999395
                },
                {
                    "name": "B4",
                    "midi": 71,
                    "time": 75.47369049999982,
                    "velocity": 0.3700787401574803,
                    "duration": 0.31578949999999395
                },
                {
                    "name": "G5",
                    "midi": 79,
                    "time": 75.47369049999982,
                    "velocity": 0.3700787401574803,
                    "duration": 0.31578949999999395
                },
                {
                    "name": "C5",
                    "midi": 72,
                    "time": 75.78947999999981,
                    "velocity": 0.3543307086614173,
                    "duration": 1.4210527500000012
                },
                {
                    "name": "F#5",
                    "midi": 78,
                    "time": 75.78947999999981,
                    "velocity": 0.3543307086614173,
                    "duration": 1.4210527500000012
                },
                {
                    "name": "B4",
                    "midi": 71,
                    "time": 77.21053274999981,
                    "velocity": 0.33858267716535434,
                    "duration": 0.07894737499999849
                },
                {
                    "name": "C5",
                    "midi": 72,
                    "time": 77.28948012499981,
                    "velocity": 0.3543307086614173,
                    "duration": 0.07894737499999849
                },
                {
                    "name": "D5",
                    "midi": 74,
                    "time": 77.36842749999981,
                    "velocity": 0.3700787401574803,
                    "duration": 0.07894737499999849
                },
                {
                    "name": "C5",
                    "midi": 72,
                    "time": 77.44737487499981,
                    "velocity": 0.3543307086614173,
                    "duration": 0.07894737499999849
                },
                {
                    "name": "B4",
                    "midi": 71,
                    "time": 77.52632224999981,
                    "velocity": 0.3543307086614173,
                    "duration": 0.07894737499999849
                },
                {
                    "name": "A4",
                    "midi": 69,
                    "time": 77.6052696249998,
                    "velocity": 0.3464566929133858,
                    "duration": 0.07894737499999849
                },
                {
                    "name": "G4",
                    "midi": 67,
                    "time": 77.6842169999998,
                    "velocity": 0.3858267716535433,
                    "duration": 0.5526316250000036
                },
                {
                    "name": "B4",
                    "midi": 71,
                    "time": 78.23684862499981,
                    "velocity": 0.3700787401574803,
                    "duration": 0.07894737499999849
                },
                {
                    "name": "A4",
                    "midi": 69,
                    "time": 78.3157959999998,
                    "velocity": 0.3700787401574803,
                    "duration": 0.31578949999999395
                },
                {
                    "name": "D4",
                    "midi": 62,
                    "time": 78.6315854999998,
                    "velocity": 0.3858267716535433,
                    "duration": 0.31578949999999395
                },
                {
                    "name": "E4",
                    "midi": 64,
                    "time": 78.9473749999998,
                    "velocity": 0.3543307086614173,
                    "duration": 0.31578949999999395
                },
                {
                    "name": "F#4",
                    "midi": 66,
                    "time": 79.26316449999979,
                    "velocity": 0.3543307086614173,
                    "duration": 0.15789474999999698
                },
                {
                    "name": "G4",
                    "midi": 67,
                    "time": 79.42105924999979,
                    "velocity": 0.3543307086614173,
                    "duration": 0.05263158333333706
                },
                {
                    "name": "F#4",
                    "midi": 66,
                    "time": 79.46053293749979,
                    "velocity": 0.3543307086614173,
                    "duration": 0.05263158333332285
                },
                {
                    "name": "E4",
                    "midi": 64,
                    "time": 79.50000662499978,
                    "velocity": 0.3543307086614173,
                    "duration": 0.05263158333332285
                },
                {
                    "name": "F#4",
                    "midi": 66,
                    "time": 79.53948031249978,
                    "velocity": 0.3543307086614173,
                    "duration": 0.05263158333332285
                },
                {
                    "name": "G4",
                    "midi": 67,
                    "time": 79.57895399999977,
                    "velocity": 0.36220472440944884,
                    "duration": 0.11842106249999063
                },
                {
                    "name": "G4",
                    "midi": 67,
                    "time": 79.89474349999976,
                    "velocity": 0.3543307086614173,
                    "duration": 0.11842106250000484
                },
                {
                    "name": "G4",
                    "midi": 67,
                    "time": 80.21053299999977,
                    "velocity": 0.3543307086614173,
                    "duration": 0.11842106250000484
                },
                {
                    "name": "G4",
                    "midi": 67,
                    "time": 80.52632249999978,
                    "velocity": 0.3543307086614173,
                    "duration": 0.6315790000000021
                },
                {
                    "name": "D4",
                    "midi": 62,
                    "time": 81.15790149999978,
                    "velocity": 0.3543307086614173,
                    "duration": 0.31578949999999395
                },
                {
                    "name": "A4",
                    "midi": 69,
                    "time": 81.15790149999978,
                    "velocity": 0.3543307086614173,
                    "duration": 0.23684212499999546
                },
                {
                    "name": "C5",
                    "midi": 72,
                    "time": 81.39474362499978,
                    "velocity": 0.3543307086614173,
                    "duration": 0.07894737499999849
                },
                {
                    "name": "D4",
                    "midi": 62,
                    "time": 81.47369099999977,
                    "velocity": 0.3228346456692913,
                    "duration": 0.9473684999999819
                },
                {
                    "name": "B4",
                    "midi": 71,
                    "time": 81.47369099999977,
                    "velocity": 0.3858267716535433,
                    "duration": 0.31578949999999395
                },
                {
                    "name": "A4",
                    "midi": 69,
                    "time": 81.78948049999977,
                    "velocity": 0.3543307086614173,
                    "duration": 0.31578949999999395
                },
                {
                    "name": "B4",
                    "midi": 71,
                    "time": 82.10526999999976,
                    "velocity": 0.3543307086614173,
                    "duration": 0.31578949999999395
                },
                {
                    "name": "F#4",
                    "midi": 66,
                    "time": 82.42105949999976,
                    "velocity": 0.3464566929133858,
                    "duration": 0.6315789999999879
                },
                {
                    "name": "D4",
                    "midi": 62,
                    "time": 82.42105949999976,
                    "velocity": 0.28346456692913385,
                    "duration": 0.9473684999999819
                },
                {
                    "name": "D5",
                    "midi": 74,
                    "time": 82.42105949999976,
                    "velocity": 0.3858267716535433,
                    "duration": 0.31578949999999395
                },
                {
                    "name": "C5",
                    "midi": 72,
                    "time": 82.73684899999975,
                    "velocity": 0.3543307086614173,
                    "duration": 0.31578949999999395
                },
                {
                    "name": "G4",
                    "midi": 67,
                    "time": 83.05263849999974,
                    "velocity": 0.3543307086614173,
                    "duration": 0.31578949999999395
                },
                {
                    "name": "B4",
                    "midi": 71,
                    "time": 83.05263849999974,
                    "velocity": 0.3543307086614173,
                    "duration": 0.31578949999999395
                },
                {
                    "name": "G4",
                    "midi": 67,
                    "time": 83.36842799999974,
                    "velocity": 0.3700787401574803,
                    "duration": 0.31578949999999395
                },
                {
                    "name": "B4",
                    "midi": 71,
                    "time": 83.36842799999974,
                    "velocity": 0.3700787401574803,
                    "duration": 0.31578949999999395
                },
                {
                    "name": "F#4",
                    "midi": 66,
                    "time": 83.68421749999973,
                    "velocity": 0.3543307086614173,
                    "duration": 0.31578949999999395
                },
                {
                    "name": "A4",
                    "midi": 69,
                    "time": 83.68421749999973,
                    "velocity": 0.3543307086614173,
                    "duration": 0.31578949999999395
                },
                {
                    "name": "F#4",
                    "midi": 66,
                    "time": 84.00000699999973,
                    "velocity": 0.3543307086614173,
                    "duration": 0.31578949999999395
                },
                {
                    "name": "A4",
                    "midi": 69,
                    "time": 84.00000699999973,
                    "velocity": 0.3543307086614173,
                    "duration": 0.31578949999999395
                },
                {
                    "name": "F#4",
                    "midi": 66,
                    "time": 84.31579649999972,
                    "velocity": 0.3543307086614173,
                    "duration": 0.6315790000000021
                },
                {
                    "name": "A4",
                    "midi": 69,
                    "time": 84.31579649999972,
                    "velocity": 0.3543307086614173,
                    "duration": 0.6315790000000021
                },
                {
                    "name": "G#4",
                    "midi": 68,
                    "time": 84.94737549999972,
                    "velocity": 0.36220472440944884,
                    "duration": 0.31578949999999395
                },
                {
                    "name": "B4",
                    "midi": 71,
                    "time": 84.94737549999972,
                    "velocity": 0.36220472440944884,
                    "duration": 0.31578949999999395
                },
                {
                    "name": "A4",
                    "midi": 69,
                    "time": 85.26316499999972,
                    "velocity": 0.3858267716535433,
                    "duration": 0.31578949999999395
                },
                {
                    "name": "C5",
                    "midi": 72,
                    "time": 85.26316499999972,
                    "velocity": 0.3858267716535433,
                    "duration": 0.31578949999999395
                },
                {
                    "name": "B4",
                    "midi": 71,
                    "time": 85.57895449999971,
                    "velocity": 0.4015748031496063,
                    "duration": 0.31578949999999395
                },
                {
                    "name": "D5",
                    "midi": 74,
                    "time": 85.57895449999971,
                    "velocity": 0.4015748031496063,
                    "duration": 0.31578949999999395
                },
                {
                    "name": "C5",
                    "midi": 72,
                    "time": 85.8947439999997,
                    "velocity": 0.4015748031496063,
                    "duration": 0.31578949999999395
                },
                {
                    "name": "E5",
                    "midi": 76,
                    "time": 85.8947439999997,
                    "velocity": 0.4015748031496063,
                    "duration": 0.31578949999999395
                },
                {
                    "name": "C5",
                    "midi": 72,
                    "time": 86.2105334999997,
                    "velocity": 0.4015748031496063,
                    "duration": 0.6315790000000021
                },
                {
                    "name": "E5",
                    "midi": 76,
                    "time": 86.2105334999997,
                    "velocity": 0.4015748031496063,
                    "duration": 0.6315790000000021
                },
                {
                    "name": "C5",
                    "midi": 72,
                    "time": 86.8421124999997,
                    "velocity": 0.3543307086614173,
                    "duration": 0.15789474999999698
                },
                {
                    "name": "A4",
                    "midi": 69,
                    "time": 86.8421124999997,
                    "velocity": 0.3543307086614173,
                    "duration": 0.31578949999997974
                },
                {
                    "name": "D5",
                    "midi": 74,
                    "time": 87.0000072499997,
                    "velocity": 0.33858267716535434,
                    "duration": 0.05263158333333706
                },
                {
                    "name": "C5",
                    "midi": 72,
                    "time": 87.0394809374997,
                    "velocity": 0.33858267716535434,
                    "duration": 0.05263158333332285
                },
                {
                    "name": "B4",
                    "midi": 71,
                    "time": 87.0789546249997,
                    "velocity": 0.33858267716535434,
                    "duration": 0.05263158333332285
                },
                {
                    "name": "C5",
                    "midi": 72,
                    "time": 87.11842831249969,
                    "velocity": 0.33858267716535434,
                    "duration": 0.05263158333332285
                },
                {
                    "name": "G4",
                    "midi": 67,
                    "time": 87.15790199999968,
                    "velocity": 0.36220472440944884,
                    "duration": 0.31578949999999395
                },
                {
                    "name": "B4",
                    "midi": 71,
                    "time": 87.15790199999968,
                    "velocity": 0.36220472440944884,
                    "duration": 0.31578949999999395
                },
                {
                    "name": "A4",
                    "midi": 69,
                    "time": 87.47369149999967,
                    "velocity": 0.3543307086614173,
                    "duration": 0.31578949999999395
                },
                {
                    "name": "C5",
                    "midi": 72,
                    "time": 87.47369149999967,
                    "velocity": 0.3543307086614173,
                    "duration": 0.31578949999999395
                },
                {
                    "name": "B4",
                    "midi": 71,
                    "time": 87.78948099999967,
                    "velocity": 0.3543307086614173,
                    "duration": 0.15789474999999698
                },
                {
                    "name": "D5",
                    "midi": 74,
                    "time": 87.78948099999967,
                    "velocity": 0.3543307086614173,
                    "duration": 0.15789474999999698
                },
                {
                    "name": "C#5",
                    "midi": 73,
                    "time": 87.94737574999967,
                    "velocity": 0.3543307086614173,
                    "duration": 0.05263158333333706
                },
                {
                    "name": "D5",
                    "midi": 74,
                    "time": 88.000007333333,
                    "velocity": 0.3543307086614173,
                    "duration": 0.05263158333333706
                },
                {
                    "name": "E5",
                    "midi": 76,
                    "time": 88.05263891666634,
                    "velocity": 0.3543307086614173,
                    "duration": 0.05263158333333706
                },
                {
                    "name": "B4",
                    "midi": 71,
                    "time": 88.10527049999968,
                    "velocity": 0.3700787401574803,
                    "duration": 0.6315790000000021
                },
                {
                    "name": "D5",
                    "midi": 74,
                    "time": 88.10527049999968,
                    "velocity": 0.3700787401574803,
                    "duration": 0.6315790000000021
                },
                {
                    "name": "B3",
                    "midi": 59,
                    "time": 88.73684949999968,
                    "velocity": 0.31496062992125984,
                    "duration": 0.31578949999997974
                },
                {
                    "name": "G4",
                    "midi": 67,
                    "time": 88.73684949999968,
                    "velocity": 0.31496062992125984,
                    "duration": 0.15789474999999698
                },
                {
                    "name": "A4",
                    "midi": 69,
                    "time": 88.89474424999968,
                    "velocity": 0.28346456692913385,
                    "duration": 0.05263158333333706
                },
                {
                    "name": "G4",
                    "midi": 67,
                    "time": 88.93421793749968,
                    "velocity": 0.28346456692913385,
                    "duration": 0.05263158333332285
                },
                {
                    "name": "F#4",
                    "midi": 66,
                    "time": 88.97369162499967,
                    "velocity": 0.28346456692913385,
                    "duration": 0.05263158333332285
                },
                {
                    "name": "G4",
                    "midi": 67,
                    "time": 89.01316531249967,
                    "velocity": 0.28346456692913385,
                    "duration": 0.05263158333332285
                },
                {
                    "name": "C4",
                    "midi": 60,
                    "time": 89.05263899999966,
                    "velocity": 0.3464566929133858,
                    "duration": 0.31578949999999395
                },
                {
                    "name": "A4",
                    "midi": 69,
                    "time": 89.05263899999966,
                    "velocity": 0.3464566929133858,
                    "duration": 0.31578949999999395
                },
                {
                    "name": "E4",
                    "midi": 64,
                    "time": 89.36842849999965,
                    "velocity": 0.3228346456692913,
                    "duration": 0.31578949999999395
                },
                {
                    "name": "C5",
                    "midi": 72,
                    "time": 89.36842849999965,
                    "velocity": 0.3228346456692913,
                    "duration": 0.31578949999999395
                },
                {
                    "name": "D4",
                    "midi": 62,
                    "time": 89.68421799999965,
                    "velocity": 0.3228346456692913,
                    "duration": 0.31578949999999395
                },
                {
                    "name": "B4",
                    "midi": 71,
                    "time": 89.68421799999965,
                    "velocity": 0.3228346456692913,
                    "duration": 0.31578949999999395
                },
                {
                    "name": "C4",
                    "midi": 60,
                    "time": 90.00000749999964,
                    "velocity": 0.3464566929133858,
                    "duration": 0.31578950000002237
                },
                {
                    "name": "A4",
                    "midi": 69,
                    "time": 90.00000749999964,
                    "velocity": 0.3464566929133858,
                    "duration": 0.15789474999999698
                },
                {
                    "name": "B4",
                    "midi": 71,
                    "time": 90.15790224999964,
                    "velocity": 0.28346456692913385,
                    "duration": 0.03947368750000635
                },
                {
                    "name": "A4",
                    "midi": 69,
                    "time": 90.19737593749964,
                    "velocity": 0.28346456692913385,
                    "duration": 0.03947368750000635
                },
                {
                    "name": "G4",
                    "midi": 67,
                    "time": 90.23684962499965,
                    "velocity": 0.28346456692913385,
                    "duration": 0.03947368750000635
                },
                {
                    "name": "A4",
                    "midi": 69,
                    "time": 90.27632331249966,
                    "velocity": 0.28346456692913385,
                    "duration": 0.03947368750000635
                },
                {
                    "name": "B3",
                    "midi": 59,
                    "time": 90.31579699999966,
                    "velocity": 0.31496062992125984,
                    "duration": 0.31578949999999395
                },
                {
                    "name": "G4",
                    "midi": 67,
                    "time": 90.31579699999966,
                    "velocity": 0.31496062992125984,
                    "duration": 0.31578949999999395
                },
                {
                    "name": "A3",
                    "midi": 57,
                    "time": 90.63158649999966,
                    "velocity": 0.2755905511811024,
                    "duration": 0.31578949999997974
                },
                {
                    "name": "F#4",
                    "midi": 66,
                    "time": 90.63158649999966,
                    "velocity": 0.2755905511811024,
                    "duration": 0.15789474999999698
                },
                {
                    "name": "G4",
                    "midi": 67,
                    "time": 90.78948124999965,
                    "velocity": 0.2755905511811024,
                    "duration": 0.05263158333333706
                },
                {
                    "name": "F#4",
                    "midi": 66,
                    "time": 90.82895493749966,
                    "velocity": 0.2755905511811024,
                    "duration": 0.05263158333332285
                },
                {
                    "name": "E4",
                    "midi": 64,
                    "time": 90.86842862499965,
                    "velocity": 0.2755905511811024,
                    "duration": 0.05263158333332285
                },
                {
                    "name": "F#4",
                    "midi": 66,
                    "time": 90.90790231249964,
                    "velocity": 0.2755905511811024,
                    "duration": 0.05263158333332285
                },
                {
                    "name": "C4",
                    "midi": 60,
                    "time": 90.94737599999964,
                    "velocity": 0.30708661417322836,
                    "duration": 0.31578949999999395
                },
                {
                    "name": "A4",
                    "midi": 69,
                    "time": 90.94737599999964,
                    "velocity": 0.30708661417322836,
                    "duration": 0.31578949999999395
                },
                {
                    "name": "B3",
                    "midi": 59,
                    "time": 91.26316549999963,
                    "velocity": 0.23622047244094488,
                    "duration": 0.31578949999999395
                },
                {
                    "name": "G4",
                    "midi": 67,
                    "time": 91.26316549999963,
                    "velocity": 0.23622047244094488,
                    "duration": 0.31578949999999395
                },
                {
                    "name": "B3",
                    "midi": 59,
                    "time": 91.57895499999962,
                    "velocity": 0.23622047244094488,
                    "duration": 0.31578949999999395
                },
                {
                    "name": "G4",
                    "midi": 67,
                    "time": 91.57895499999962,
                    "velocity": 0.23622047244094488,
                    "duration": 0.31578949999999395
                },
                {
                    "name": "B3",
                    "midi": 59,
                    "time": 91.89474449999962,
                    "velocity": 0.23622047244094488,
                    "duration": 0.6315790000000021
                },
                {
                    "name": "G4",
                    "midi": 67,
                    "time": 91.89474449999962,
                    "velocity": 0.23622047244094488,
                    "duration": 0.6315790000000021
                },
                {
                    "name": "D5",
                    "midi": 74,
                    "time": 92.52632349999962,
                    "velocity": 0.3228346456692913,
                    "duration": 0.15789474999999698
                },
                {
                    "name": "D5",
                    "midi": 74,
                    "time": 92.84211299999961,
                    "velocity": 0.3228346456692913,
                    "duration": 0.15789474999999698
                },
                {
                    "name": "D#5",
                    "midi": 75,
                    "time": 93.47369199999962,
                    "velocity": 0.3464566929133858,
                    "duration": 0.15789474999999698
                },
                {
                    "name": "D#5",
                    "midi": 75,
                    "time": 93.78948149999961,
                    "velocity": 0.3464566929133858,
                    "duration": 0.15789474999999698
                },
                {
                    "name": "F#5",
                    "midi": 78,
                    "time": 94.42106049999961,
                    "velocity": 0.36220472440944884,
                    "duration": 0.15789474999999698
                },
                {
                    "name": "F#5",
                    "midi": 78,
                    "time": 94.7368499999996,
                    "velocity": 0.36220472440944884,
                    "duration": 0.15789474999999698
                },
                {
                    "name": "G5",
                    "midi": 79,
                    "time": 95.36842899999961,
                    "velocity": 0.4409448818897638,
                    "duration": 0.15789474999999698
                },
                {
                    "name": "G5",
                    "midi": 79,
                    "time": 95.6842184999996,
                    "velocity": 0.4409448818897638,
                    "duration": 0.15789474999999698
                },
                {
                    "name": "A#5",
                    "midi": 82,
                    "time": 96.3157974999996,
                    "velocity": 0.5669291338582677,
                    "duration": 0.6315789999999879
                },
                {
                    "name": "C#5",
                    "midi": 73,
                    "time": 96.3157974999996,
                    "velocity": 0.5669291338582677,
                    "duration": 0.31578949999999395
                },
                {
                    "name": "D5",
                    "midi": 74,
                    "time": 96.6315869999996,
                    "velocity": 0.5669291338582677,
                    "duration": 0.6315789999999879
                },
                {
                    "name": "A5",
                    "midi": 81,
                    "time": 96.94737649999959,
                    "velocity": 0.5433070866141733,
                    "duration": 0.31578949999999395
                },
                {
                    "name": "C#5",
                    "midi": 73,
                    "time": 97.26316599999959,
                    "velocity": 0.5669291338582677,
                    "duration": 0.31578949999999395
                },
                {
                    "name": "A#5",
                    "midi": 82,
                    "time": 97.26316599999959,
                    "velocity": 0.5669291338582677,
                    "duration": 0.6315789999999879
                },
                {
                    "name": "D5",
                    "midi": 74,
                    "time": 97.57895549999958,
                    "velocity": 0.5669291338582677,
                    "duration": 0.6315789999999879
                },
                {
                    "name": "A5",
                    "midi": 81,
                    "time": 97.89474499999957,
                    "velocity": 0.5354330708661418,
                    "duration": 0.31578949999999395
                },
                {
                    "name": "G#5",
                    "midi": 80,
                    "time": 98.21053449999957,
                    "velocity": 0.6062992125984252,
                    "duration": 0.15789474999999698
                },
                {
                    "name": "A5",
                    "midi": 81,
                    "time": 98.36842924999956,
                    "velocity": 0.5275590551181102,
                    "duration": 0.06578947916666777
                },
                {
                    "name": "G#5",
                    "midi": 80,
                    "time": 98.4210608333329,
                    "velocity": 0.5433070866141733,
                    "duration": 0.06578947916666777
                },
                {
                    "name": "F#5",
                    "midi": 78,
                    "time": 98.47369241666624,
                    "velocity": 0.5433070866141733,
                    "duration": 0.06578947916666777
                },
                {
                    "name": "G#5",
                    "midi": 80,
                    "time": 98.52632399999958,
                    "velocity": 0.6220472440944882,
                    "duration": 0.31578949999999395
                },
                {
                    "name": "A5",
                    "midi": 81,
                    "time": 98.84211349999957,
                    "velocity": 0.5433070866141733,
                    "duration": 0.15789474999999698
                },
                {
                    "name": "A5",
                    "midi": 81,
                    "time": 99.15790299999956,
                    "velocity": 0.5433070866141733,
                    "duration": 0.15789474999999698
                },
                {
                    "name": "B5",
                    "midi": 83,
                    "time": 99.78948199999957,
                    "velocity": 0.5433070866141733,
                    "duration": 0.15789474999999698
                },
                {
                    "name": "B5",
                    "midi": 83,
                    "time": 100.10527149999956,
                    "velocity": 0.5433070866141733,
                    "duration": 0.15789474999999698
                },
                {
                    "name": "A4",
                    "midi": 69,
                    "time": 100.73685049999956,
                    "velocity": 0.3464566929133858,
                    "duration": 0.31578949999999395
                },
                {
                    "name": "A4",
                    "midi": 69,
                    "time": 101.05263999999956,
                    "velocity": 0.3464566929133858,
                    "duration": 0.31578949999999395
                },
                {
                    "name": "A4",
                    "midi": 69,
                    "time": 101.36842949999955,
                    "velocity": 0.3543307086614173,
                    "duration": 0.31578949999999395
                },
                {
                    "name": "B4",
                    "midi": 71,
                    "time": 101.68421899999954,
                    "velocity": 0.30708661417322836,
                    "duration": 0.31578949999999395
                },
                {
                    "name": "C#5",
                    "midi": 73,
                    "time": 102.00000849999954,
                    "velocity": 0.30708661417322836,
                    "duration": 0.31578949999999395
                },
                {
                    "name": "C#5",
                    "midi": 73,
                    "time": 102.31579799999953,
                    "velocity": 0.2755905511811024,
                    "duration": 0.9473684999999961
                },
                {
                    "name": "D5",
                    "midi": 74,
                    "time": 103.26316649999953,
                    "velocity": 0.25984251968503935,
                    "duration": 0.31578949999999395
                },
                {
                    "name": "D5",
                    "midi": 74,
                    "time": 103.89474549999952,
                    "velocity": 0.3228346456692913,
                    "duration": 0.15789474999999698
                },
                {
                    "name": "D5",
                    "midi": 74,
                    "time": 104.21053499999951,
                    "velocity": 0.3228346456692913,
                    "duration": 0.15789474999999698
                },
                {
                    "name": "D#5",
                    "midi": 75,
                    "time": 104.84211399999951,
                    "velocity": 0.3464566929133858,
                    "duration": 0.15789474999999698
                },
                {
                    "name": "D#5",
                    "midi": 75,
                    "time": 105.1579034999995,
                    "velocity": 0.3464566929133858,
                    "duration": 0.15789474999999698
                },
                {
                    "name": "F#5",
                    "midi": 78,
                    "time": 105.78948249999951,
                    "velocity": 0.36220472440944884,
                    "duration": 0.15789474999999698
                },
                {
                    "name": "F#5",
                    "midi": 78,
                    "time": 106.1052719999995,
                    "velocity": 0.36220472440944884,
                    "duration": 0.15789474999999698
                },
                {
                    "name": "G5",
                    "midi": 79,
                    "time": 106.7368509999995,
                    "velocity": 0.4409448818897638,
                    "duration": 0.15789474999999698
                },
                {
                    "name": "G5",
                    "midi": 79,
                    "time": 107.0526404999995,
                    "velocity": 0.4409448818897638,
                    "duration": 0.15789474999999698
                },
                {
                    "name": "A#5",
                    "midi": 82,
                    "time": 107.6842194999995,
                    "velocity": 0.5669291338582677,
                    "duration": 0.6315789999999879
                },
                {
                    "name": "C#5",
                    "midi": 73,
                    "time": 107.6842194999995,
                    "velocity": 0.5669291338582677,
                    "duration": 0.31578949999999395
                },
                {
                    "name": "D5",
                    "midi": 74,
                    "time": 108.0000089999995,
                    "velocity": 0.5669291338582677,
                    "duration": 0.6315789999999879
                },
                {
                    "name": "A5",
                    "midi": 81,
                    "time": 108.31579849999949,
                    "velocity": 0.5196850393700787,
                    "duration": 0.31578949999999395
                },
                {
                    "name": "C#5",
                    "midi": 73,
                    "time": 108.63158799999948,
                    "velocity": 0.5669291338582677,
                    "duration": 0.31578949999999395
                },
                {
                    "name": "A#5",
                    "midi": 82,
                    "time": 108.63158799999948,
                    "velocity": 0.5669291338582677,
                    "duration": 0.6315789999999879
                },
                {
                    "name": "D5",
                    "midi": 74,
                    "time": 108.94737749999948,
                    "velocity": 0.5669291338582677,
                    "duration": 0.6315789999999879
                },
                {
                    "name": "A5",
                    "midi": 81,
                    "time": 109.26316699999947,
                    "velocity": 0.5196850393700787,
                    "duration": 0.31578949999999395
                },
                {
                    "name": "G#5",
                    "midi": 80,
                    "time": 109.57895649999946,
                    "velocity": 0.6062992125984252,
                    "duration": 0.15789474999999698
                },
                {
                    "name": "A5",
                    "midi": 81,
                    "time": 109.73685124999946,
                    "velocity": 0.5039370078740157,
                    "duration": 0.06578947916666777
                },
                {
                    "name": "G#5",
                    "midi": 80,
                    "time": 109.7894828333328,
                    "velocity": 0.5039370078740157,
                    "duration": 0.06578947916666777
                },
                {
                    "name": "F#5",
                    "midi": 78,
                    "time": 109.84211441666613,
                    "velocity": 0.5118110236220472,
                    "duration": 0.06578947916666777
                },
                {
                    "name": "G#5",
                    "midi": 80,
                    "time": 109.89474599999947,
                    "velocity": 0.6377952755905512,
                    "duration": 0.31578949999999395
                },
                {
                    "name": "A5",
                    "midi": 81,
                    "time": 110.21053549999947,
                    "velocity": 0.5275590551181102,
                    "duration": 0.15789474999999698
                },
                {
                    "name": "A5",
                    "midi": 81,
                    "time": 110.52632499999946,
                    "velocity": 0.5275590551181102,
                    "duration": 0.15789474999999698
                },
                {
                    "name": "B5",
                    "midi": 83,
                    "time": 111.15790399999946,
                    "velocity": 0.6062992125984252,
                    "duration": 0.15789474999999698
                },
                {
                    "name": "B5",
                    "midi": 83,
                    "time": 111.47369349999946,
                    "velocity": 0.6062992125984252,
                    "duration": 0.15789474999999698
                },
                {
                    "name": "A4",
                    "midi": 69,
                    "time": 112.10527249999946,
                    "velocity": 0.3464566929133858,
                    "duration": 0.31578949999999395
                },
                {
                    "name": "A4",
                    "midi": 69,
                    "time": 112.42106199999945,
                    "velocity": 0.3464566929133858,
                    "duration": 0.31578949999999395
                },
                {
                    "name": "A4",
                    "midi": 69,
                    "time": 112.73685149999945,
                    "velocity": 0.3543307086614173,
                    "duration": 0.31578949999999395
                },
                {
                    "name": "B4",
                    "midi": 71,
                    "time": 113.05264099999944,
                    "velocity": 0.30708661417322836,
                    "duration": 0.31578949999999395
                },
                {
                    "name": "C#5",
                    "midi": 73,
                    "time": 113.36843049999943,
                    "velocity": 0.30708661417322836,
                    "duration": 0.31578949999999395
                },
                {
                    "name": "C#5",
                    "midi": 73,
                    "time": 113.68421999999943,
                    "velocity": 0.2755905511811024,
                    "duration": 0.9473684999999961
                },
                {
                    "name": "D5",
                    "midi": 74,
                    "time": 114.63158849999942,
                    "velocity": 0.25984251968503935,
                    "duration": 0.31578949999999395
                },
                {
                    "name": "D5",
                    "midi": 74,
                    "time": 115.26316749999941,
                    "velocity": 0.28346456692913385,
                    "duration": 0.31578949999999395
                },
                {
                    "name": "D5",
                    "midi": 74,
                    "time": 115.5789569999994,
                    "velocity": 0.29133858267716534,
                    "duration": 0.31578949999999395
                },
                {
                    "name": "G4",
                    "midi": 67,
                    "time": 116.2105359999994,
                    "velocity": 0.29133858267716534,
                    "duration": 0.31578949999999395
                },
                {
                    "name": "C5",
                    "midi": 72,
                    "time": 116.52632549999939,
                    "velocity": 0.30708661417322836,
                    "duration": 0.31578949999999395
                },
                {
                    "name": "F#4",
                    "midi": 66,
                    "time": 117.15790449999938,
                    "velocity": 0.29133858267716534,
                    "duration": 0.31578949999999395
                },
                {
                    "name": "A#4",
                    "midi": 70,
                    "time": 117.47369399999937,
                    "velocity": 0.30708661417322836,
                    "duration": 0.31578949999999395
                },
                {
                    "name": "C#4",
                    "midi": 61,
                    "time": 118.10527299999936,
                    "velocity": 0.3464566929133858,
                    "duration": 0.31578949999999395
                },
                {
                    "name": "D4",
                    "midi": 62,
                    "time": 118.42106249999935,
                    "velocity": 0.3543307086614173,
                    "duration": 0.31578949999999395
                },
                {
                    "name": "G5",
                    "midi": 79,
                    "time": 119.05264149999934,
                    "velocity": 0.5511811023622047,
                    "duration": 0.6315789999999879
                },
                {
                    "name": "G4",
                    "midi": 67,
                    "time": 119.05264149999934,
                    "velocity": 0.5511811023622047,
                    "duration": 0.31578949999999395
                },
                {
                    "name": "A4",
                    "midi": 69,
                    "time": 119.36843099999933,
                    "velocity": 0.4566929133858268,
                    "duration": 0.6315789999999879
                },
                {
                    "name": "F#5",
                    "midi": 78,
                    "time": 119.68422049999933,
                    "velocity": 0.5433070866141733,
                    "duration": 0.31578949999999395
                },
                {
                    "name": "G4",
                    "midi": 67,
                    "time": 120.00000999999932,
                    "velocity": 0.4566929133858268,
                    "duration": 0.31578949999999395
                },
                {
                    "name": "G5",
                    "midi": 79,
                    "time": 120.00000999999932,
                    "velocity": 0.5511811023622047,
                    "duration": 0.6315789999999879
                },
                {
                    "name": "A4",
                    "midi": 69,
                    "time": 120.31579949999932,
                    "velocity": 0.4566929133858268,
                    "duration": 0.6315789999999879
                },
                {
                    "name": "F#5",
                    "midi": 78,
                    "time": 120.63158899999931,
                    "velocity": 0.5275590551181102,
                    "duration": 0.31578949999999395
                },
                {
                    "name": "G4",
                    "midi": 67,
                    "time": 120.9473784999993,
                    "velocity": 0.4566929133858268,
                    "duration": 0.31578949999999395
                },
                {
                    "name": "G5",
                    "midi": 79,
                    "time": 120.9473784999993,
                    "velocity": 0.5748031496062992,
                    "duration": 0.31578949999999395
                },
                {
                    "name": "C5",
                    "midi": 72,
                    "time": 121.2631679999993,
                    "velocity": 0.49606299212598426,
                    "duration": 1.2631580000000042
                },
                {
                    "name": "D#5",
                    "midi": 75,
                    "time": 121.2631679999993,
                    "velocity": 0.49606299212598426,
                    "duration": 1.2631580000000042
                },
                {
                    "name": "F#5",
                    "midi": 78,
                    "time": 121.2631679999993,
                    "velocity": 0.5826771653543307,
                    "duration": 1.2631580000000042
                },
                {
                    "name": "A5",
                    "midi": 81,
                    "time": 121.2631679999993,
                    "velocity": 0.5826771653543307,
                    "duration": 1.2631580000000042
                },
                {
                    "name": "D5",
                    "midi": 74,
                    "time": 122.5263259999993,
                    "velocity": 0.3464566929133858,
                    "duration": 0.31578949999999395
                },
                {
                    "name": "A#5",
                    "midi": 82,
                    "time": 122.5263259999993,
                    "velocity": 0.3464566929133858,
                    "duration": 0.31578949999999395
                },
                {
                    "name": "A#5",
                    "midi": 82,
                    "time": 122.8421154999993,
                    "velocity": 0.3464566929133858,
                    "duration": 0.6315789999999879
                },
                {
                    "name": "D5",
                    "midi": 74,
                    "time": 122.8421154999993,
                    "velocity": 0.3464566929133858,
                    "duration": 0.31578949999999395
                },
                {
                    "name": "D#5",
                    "midi": 75,
                    "time": 123.15790499999929,
                    "velocity": 0.3464566929133858,
                    "duration": 1.26315799999999
                },
                {
                    "name": "A5",
                    "midi": 81,
                    "time": 123.47369449999928,
                    "velocity": 0.3464566929133858,
                    "duration": 0.31578949999999395
                },
                {
                    "name": "A5",
                    "midi": 81,
                    "time": 123.78948399999928,
                    "velocity": 0.3464566929133858,
                    "duration": 0.6315790000000021
                },
                {
                    "name": "D5",
                    "midi": 74,
                    "time": 124.42106299999928,
                    "velocity": 0.3228346456692913,
                    "duration": 0.31578949999999395
                },
                {
                    "name": "G5",
                    "midi": 79,
                    "time": 124.42106299999928,
                    "velocity": 0.3228346456692913,
                    "duration": 0.31578949999999395
                },
                {
                    "name": "C5",
                    "midi": 72,
                    "time": 124.73685249999927,
                    "velocity": 0.29133858267716534,
                    "duration": 0.31578949999999395
                },
                {
                    "name": "F#5",
                    "midi": 78,
                    "time": 124.73685249999927,
                    "velocity": 0.29133858267716534,
                    "duration": 0.31578949999999395
                },
                {
                    "name": "C5",
                    "midi": 72,
                    "time": 125.05264199999927,
                    "velocity": 0.2755905511811024,
                    "duration": 0.9473684999999961
                },
                {
                    "name": "F#5",
                    "midi": 78,
                    "time": 125.05264199999927,
                    "velocity": 0.2755905511811024,
                    "duration": 0.9473684999999961
                },
                {
                    "name": "A#4",
                    "midi": 70,
                    "time": 126.00001049999926,
                    "velocity": 0.25984251968503935,
                    "duration": 0.31578949999999395
                },
                {
                    "name": "G5",
                    "midi": 79,
                    "time": 126.00001049999926,
                    "velocity": 0.25984251968503935,
                    "duration": 0.31578949999999395
                },
                {
                    "name": "D5",
                    "midi": 74,
                    "time": 126.63158949999925,
                    "velocity": 0.28346456692913385,
                    "duration": 0.31578949999999395
                },
                {
                    "name": "D5",
                    "midi": 74,
                    "time": 126.94737899999924,
                    "velocity": 0.29133858267716534,
                    "duration": 0.31578949999999395
                },
                {
                    "name": "G4",
                    "midi": 67,
                    "time": 127.57895799999923,
                    "velocity": 0.29133858267716534,
                    "duration": 0.31578949999999395
                },
                {
                    "name": "C5",
                    "midi": 72,
                    "time": 127.89474749999923,
                    "velocity": 0.30708661417322836,
                    "duration": 0.31578949999999395
                },
                {
                    "name": "F#4",
                    "midi": 66,
                    "time": 128.52632649999921,
                    "velocity": 0.29133858267716534,
                    "duration": 0.31578949999999395
                },
                {
                    "name": "A#4",
                    "midi": 70,
                    "time": 128.8421159999992,
                    "velocity": 0.30708661417322836,
                    "duration": 0.31578949999999395
                },
                {
                    "name": "C#4",
                    "midi": 61,
                    "time": 129.4736949999992,
                    "velocity": 0.3464566929133858,
                    "duration": 0.31578949999999395
                },
                {
                    "name": "D4",
                    "midi": 62,
                    "time": 129.7894844999992,
                    "velocity": 0.3543307086614173,
                    "duration": 0.31578949999999395
                },
                {
                    "name": "G5",
                    "midi": 79,
                    "time": 130.42106349999918,
                    "velocity": 0.5511811023622047,
                    "duration": 0.6315789999999879
                },
                {
                    "name": "G4",
                    "midi": 67,
                    "time": 130.42106349999918,
                    "velocity": 0.4566929133858268,
                    "duration": 0.31578949999999395
                },
                {
                    "name": "A4",
                    "midi": 69,
                    "time": 130.73685299999917,
                    "velocity": 0.4566929133858268,
                    "duration": 0.6315789999999879
                },
                {
                    "name": "F#5",
                    "midi": 78,
                    "time": 131.05264249999917,
                    "velocity": 0.5433070866141733,
                    "duration": 0.31578949999999395
                },
                {
                    "name": "G4",
                    "midi": 67,
                    "time": 131.36843199999916,
                    "velocity": 0.4566929133858268,
                    "duration": 0.31578949999999395
                },
                {
                    "name": "G5",
                    "midi": 79,
                    "time": 131.36843199999916,
                    "velocity": 0.5511811023622047,
                    "duration": 0.6315789999999879
                },
                {
                    "name": "A4",
                    "midi": 69,
                    "time": 131.68422149999915,
                    "velocity": 0.4566929133858268,
                    "duration": 0.6315789999999879
                },
                {
                    "name": "F#5",
                    "midi": 78,
                    "time": 132.00001099999915,
                    "velocity": 0.5275590551181102,
                    "duration": 0.31578949999999395
                },
                {
                    "name": "G4",
                    "midi": 67,
                    "time": 132.31580049999914,
                    "velocity": 0.4566929133858268,
                    "duration": 0.31578949999999395
                },
                {
                    "name": "G5",
                    "midi": 79,
                    "time": 132.31580049999914,
                    "velocity": 0.5748031496062992,
                    "duration": 0.31578949999999395
                },
                {
                    "name": "C5",
                    "midi": 72,
                    "time": 132.63158999999914,
                    "velocity": 0.49606299212598426,
                    "duration": 1.2631580000000042
                },
                {
                    "name": "D#5",
                    "midi": 75,
                    "time": 132.63158999999914,
                    "velocity": 0.49606299212598426,
                    "duration": 1.2631580000000042
                },
                {
                    "name": "F#5",
                    "midi": 78,
                    "time": 132.63158999999914,
                    "velocity": 0.5826771653543307,
                    "duration": 1.2631580000000042
                },
                {
                    "name": "A5",
                    "midi": 81,
                    "time": 132.63158999999914,
                    "velocity": 0.5826771653543307,
                    "duration": 1.2631580000000042
                },
                {
                    "name": "D5",
                    "midi": 74,
                    "time": 133.89474799999914,
                    "velocity": 0.3464566929133858,
                    "duration": 0.31578949999999395
                },
                {
                    "name": "A#5",
                    "midi": 82,
                    "time": 133.89474799999914,
                    "velocity": 0.3464566929133858,
                    "duration": 0.31578949999999395
                },
                {
                    "name": "A#5",
                    "midi": 82,
                    "time": 134.21053749999913,
                    "velocity": 0.3464566929133858,
                    "duration": 0.6315789999999879
                },
                {
                    "name": "D5",
                    "midi": 74,
                    "time": 134.21053749999913,
                    "velocity": 0.3464566929133858,
                    "duration": 0.31578949999999395
                },
                {
                    "name": "D#5",
                    "midi": 75,
                    "time": 134.52632699999913,
                    "velocity": 0.3464566929133858,
                    "duration": 1.2631579999999758
                },
                {
                    "name": "A5",
                    "midi": 81,
                    "time": 134.84211649999912,
                    "velocity": 0.3464566929133858,
                    "duration": 0.31578949999999395
                },
                {
                    "name": "A5",
                    "midi": 81,
                    "time": 135.15790599999912,
                    "velocity": 0.3464566929133858,
                    "duration": 0.6315789999999879
                },
                {
                    "name": "D5",
                    "midi": 74,
                    "time": 135.7894849999991,
                    "velocity": 0.3228346456692913,
                    "duration": 0.31578949999999395
                },
                {
                    "name": "G5",
                    "midi": 79,
                    "time": 135.7894849999991,
                    "velocity": 0.3228346456692913,
                    "duration": 0.31578949999999395
                },
                {
                    "name": "C5",
                    "midi": 72,
                    "time": 136.1052744999991,
                    "velocity": 0.29133858267716534,
                    "duration": 0.31578949999999395
                },
                {
                    "name": "F#5",
                    "midi": 78,
                    "time": 136.1052744999991,
                    "velocity": 0.29133858267716534,
                    "duration": 0.31578949999999395
                },
                {
                    "name": "C5",
                    "midi": 72,
                    "time": 136.4210639999991,
                    "velocity": 0.2755905511811024,
                    "duration": 0.9473685000000103
                },
                {
                    "name": "F#5",
                    "midi": 78,
                    "time": 136.4210639999991,
                    "velocity": 0.2755905511811024,
                    "duration": 0.9473685000000103
                },
                {
                    "name": "A#4",
                    "midi": 70,
                    "time": 137.3684324999991,
                    "velocity": 0.25984251968503935,
                    "duration": 0.31578949999999395
                },
                {
                    "name": "G5",
                    "midi": 79,
                    "time": 137.3684324999991,
                    "velocity": 0.25984251968503935,
                    "duration": 0.31578949999999395
                },
                {
                    "name": "G4",
                    "midi": 67,
                    "time": 138.0000114999991,
                    "velocity": 0.36220472440944884,
                    "duration": 0.31578949999999395
                },
                {
                    "name": "G4",
                    "midi": 67,
                    "time": 138.31580099999908,
                    "velocity": 0.3858267716535433,
                    "duration": 0.5526316250000036
                },
                {
                    "name": "B4",
                    "midi": 71,
                    "time": 138.8684326249991,
                    "velocity": 0.3700787401574803,
                    "duration": 0.0789473750000127
                },
                {
                    "name": "A4",
                    "midi": 69,
                    "time": 138.9473799999991,
                    "velocity": 0.3700787401574803,
                    "duration": 0.31578949999999395
                },
                {
                    "name": "D4",
                    "midi": 62,
                    "time": 139.2631694999991,
                    "velocity": 0.3858267716535433,
                    "duration": 0.31578949999999395
                },
                {
                    "name": "D#4",
                    "midi": 63,
                    "time": 139.5789589999991,
                    "velocity": 0.3543307086614173,
                    "duration": 0.15789474999999698
                },
                {
                    "name": "E4",
                    "midi": 64,
                    "time": 139.73685374999909,
                    "velocity": 0.3543307086614173,
                    "duration": 0.15789474999999698
                },
                {
                    "name": "F4",
                    "midi": 65,
                    "time": 139.89474849999908,
                    "velocity": 0.3543307086614173,
                    "duration": 0.15789474999999698
                },
                {
                    "name": "F#4",
                    "midi": 66,
                    "time": 140.05264324999908,
                    "velocity": 0.3543307086614173,
                    "duration": 0.15789474999999698
                },
                {
                    "name": "G4",
                    "midi": 67,
                    "time": 140.21053799999908,
                    "velocity": 0.36220472440944884,
                    "duration": 0.31578949999999395
                },
                {
                    "name": "G4",
                    "midi": 67,
                    "time": 140.52632749999907,
                    "velocity": 0.3543307086614173,
                    "duration": 0.31578949999999395
                },
                {
                    "name": "G4",
                    "midi": 67,
                    "time": 140.84211699999906,
                    "velocity": 0.3543307086614173,
                    "duration": 0.31578949999999395
                },
                {
                    "name": "G4",
                    "midi": 67,
                    "time": 141.15790649999906,
                    "velocity": 0.3543307086614173,
                    "duration": 0.6315789999999879
                },
                {
                    "name": "D4",
                    "midi": 62,
                    "time": 141.78948549999905,
                    "velocity": 0.3543307086614173,
                    "duration": 0.31578950000002237
                },
                {
                    "name": "A4",
                    "midi": 69,
                    "time": 141.78948549999905,
                    "velocity": 0.3543307086614173,
                    "duration": 0.23684212500000967
                },
                {
                    "name": "C5",
                    "midi": 72,
                    "time": 142.02632762499906,
                    "velocity": 0.3543307086614173,
                    "duration": 0.0789473750000127
                },
                {
                    "name": "D4",
                    "midi": 62,
                    "time": 142.10527499999907,
                    "velocity": 0.3858267716535433,
                    "duration": 0.9473684999999819
                },
                {
                    "name": "B4",
                    "midi": 71,
                    "time": 142.10527499999907,
                    "velocity": 0.3858267716535433,
                    "duration": 0.15789474999999698
                },
                {
                    "name": "A#4",
                    "midi": 70,
                    "time": 142.26316974999907,
                    "velocity": 0.3700787401574803,
                    "duration": 0.15789474999999698
                },
                {
                    "name": "B4",
                    "midi": 71,
                    "time": 142.42106449999906,
                    "velocity": 0.3858267716535433,
                    "duration": 0.15789474999999698
                },
                {
                    "name": "A#4",
                    "midi": 70,
                    "time": 142.57895924999906,
                    "velocity": 0.36220472440944884,
                    "duration": 0.15789474999999698
                },
                {
                    "name": "B4",
                    "midi": 71,
                    "time": 142.73685399999906,
                    "velocity": 0.3858267716535433,
                    "duration": 0.15789474999999698
                },
                {
                    "name": "D5",
                    "midi": 74,
                    "time": 142.89474874999905,
                    "velocity": 0.36220472440944884,
                    "duration": 0.15789474999999698
                },
                {
                    "name": "F#4",
                    "midi": 66,
                    "time": 143.05264349999905,
                    "velocity": 0.3464566929133858,
                    "duration": 0.6315789999999879
                },
                {
                    "name": "D4",
                    "midi": 62,
                    "time": 143.05264349999905,
                    "velocity": 0.3464566929133858,
                    "duration": 0.9473684999999819
                },
                {
                    "name": "D5",
                    "midi": 74,
                    "time": 143.05264349999905,
                    "velocity": 0.3858267716535433,
                    "duration": 0.31578949999999395
                },
                {
                    "name": "C5",
                    "midi": 72,
                    "time": 143.36843299999904,
                    "velocity": 0.3543307086614173,
                    "duration": 0.31578949999999395
                },
                {
                    "name": "G4",
                    "midi": 67,
                    "time": 143.68422249999904,
                    "velocity": 0.3543307086614173,
                    "duration": 0.31578949999999395
                },
                {
                    "name": "B4",
                    "midi": 71,
                    "time": 143.68422249999904,
                    "velocity": 0.3543307086614173,
                    "duration": 0.31578949999999395
                },
                {
                    "name": "G4",
                    "midi": 67,
                    "time": 144.00001199999903,
                    "velocity": 0.3700787401574803,
                    "duration": 0.31578949999999395
                },
                {
                    "name": "B4",
                    "midi": 71,
                    "time": 144.00001199999903,
                    "velocity": 0.3700787401574803,
                    "duration": 0.31578949999999395
                },
                {
                    "name": "F#4",
                    "midi": 66,
                    "time": 144.31580149999903,
                    "velocity": 0.3543307086614173,
                    "duration": 0.31578949999999395
                },
                {
                    "name": "A4",
                    "midi": 69,
                    "time": 144.31580149999903,
                    "velocity": 0.3543307086614173,
                    "duration": 0.31578949999999395
                },
                {
                    "name": "F#4",
                    "midi": 66,
                    "time": 144.63159099999902,
                    "velocity": 0.3543307086614173,
                    "duration": 0.31578949999999395
                },
                {
                    "name": "A4",
                    "midi": 69,
                    "time": 144.63159099999902,
                    "velocity": 0.3543307086614173,
                    "duration": 0.31578949999999395
                },
                {
                    "name": "F#4",
                    "midi": 66,
                    "time": 144.947380499999,
                    "velocity": 0.3543307086614173,
                    "duration": 0.6315789999999879
                },
                {
                    "name": "A4",
                    "midi": 69,
                    "time": 144.947380499999,
                    "velocity": 0.3543307086614173,
                    "duration": 0.6315789999999879
                },
                {
                    "name": "G#4",
                    "midi": 68,
                    "time": 145.578959499999,
                    "velocity": 0.36220472440944884,
                    "duration": 0.31578949999999395
                },
                {
                    "name": "B4",
                    "midi": 71,
                    "time": 145.578959499999,
                    "velocity": 0.36220472440944884,
                    "duration": 0.31578949999999395
                },
                {
                    "name": "A4",
                    "midi": 69,
                    "time": 145.894748999999,
                    "velocity": 0.3858267716535433,
                    "duration": 0.31578949999999395
                },
                {
                    "name": "C5",
                    "midi": 72,
                    "time": 145.894748999999,
                    "velocity": 0.3858267716535433,
                    "duration": 0.31578949999999395
                },
                {
                    "name": "B4",
                    "midi": 71,
                    "time": 146.210538499999,
                    "velocity": 0.4015748031496063,
                    "duration": 0.31578949999999395
                },
                {
                    "name": "D5",
                    "midi": 74,
                    "time": 146.210538499999,
                    "velocity": 0.4015748031496063,
                    "duration": 0.31578949999999395
                },
                {
                    "name": "C5",
                    "midi": 72,
                    "time": 146.52632799999898,
                    "velocity": 0.4015748031496063,
                    "duration": 0.31578949999999395
                },
                {
                    "name": "E5",
                    "midi": 76,
                    "time": 146.52632799999898,
                    "velocity": 0.4015748031496063,
                    "duration": 0.31578949999999395
                },
                {
                    "name": "C5",
                    "midi": 72,
                    "time": 146.84211749999898,
                    "velocity": 0.4015748031496063,
                    "duration": 0.6315789999999879
                },
                {
                    "name": "E5",
                    "midi": 76,
                    "time": 146.84211749999898,
                    "velocity": 0.4015748031496063,
                    "duration": 0.6315789999999879
                },
                {
                    "name": "B4",
                    "midi": 71,
                    "time": 147.47369649999897,
                    "velocity": 0.3700787401574803,
                    "duration": 0.15789474999999698
                },
                {
                    "name": "D5",
                    "midi": 74,
                    "time": 147.47369649999897,
                    "velocity": 0.3700787401574803,
                    "duration": 0.15789474999999698
                },
                {
                    "name": "A4",
                    "midi": 69,
                    "time": 147.63159124999896,
                    "velocity": 0.3700787401574803,
                    "duration": 0.15789474999999698
                },
                {
                    "name": "C5",
                    "midi": 72,
                    "time": 147.63159124999896,
                    "velocity": 0.3700787401574803,
                    "duration": 0.15789474999999698
                },
                {
                    "name": "B4",
                    "midi": 71,
                    "time": 147.78948599999896,
                    "velocity": 0.3858267716535433,
                    "duration": 0.15789474999999698
                },
                {
                    "name": "C5",
                    "midi": 72,
                    "time": 147.94738074999896,
                    "velocity": 0.3543307086614173,
                    "duration": 0.15789474999999698
                },
                {
                    "name": "B4",
                    "midi": 71,
                    "time": 148.10527549999895,
                    "velocity": 0.3858267716535433,
                    "duration": 0.15789474999999698
                },
                {
                    "name": "C5",
                    "midi": 72,
                    "time": 148.26317024999895,
                    "velocity": 0.3543307086614173,
                    "duration": 0.15789474999999698
                },
                {
                    "name": "B4",
                    "midi": 71,
                    "time": 148.42106499999895,
                    "velocity": 0.3858267716535433,
                    "duration": 0.15789474999999698
                },
                {
                    "name": "D5",
                    "midi": 74,
                    "time": 148.57895974999894,
                    "velocity": 0.3543307086614173,
                    "duration": 0.15789474999999698
                },
                {
                    "name": "C5",
                    "midi": 72,
                    "time": 148.73685449999894,
                    "velocity": 0.4015748031496063,
                    "duration": 0.31578949999999395
                },
                {
                    "name": "D5",
                    "midi": 74,
                    "time": 149.05264399999893,
                    "velocity": 0.4015748031496063,
                    "duration": 0.31578949999999395
                },
                {
                    "name": "E5",
                    "midi": 76,
                    "time": 149.36843349999893,
                    "velocity": 0.4015748031496063,
                    "duration": 0.31578949999999395
                },
                {
                    "name": "D5",
                    "midi": 74,
                    "time": 149.68422299999892,
                    "velocity": 0.41732283464566927,
                    "duration": 0.31578949999999395
                },
                {
                    "name": "G5",
                    "midi": 79,
                    "time": 150.00001249999892,
                    "velocity": 0.44881889763779526,
                    "duration": 0.31578949999999395
                },
                {
                    "name": "G5",
                    "midi": 79,
                    "time": 150.3158019999989,
                    "velocity": 0.44881889763779526,
                    "duration": 0.31578949999999395
                },
                {
                    "name": "A5",
                    "midi": 81,
                    "time": 150.6315914999989,
                    "velocity": 0.47244094488188976,
                    "duration": 0.15789474999999698
                },
                {
                    "name": "G5",
                    "midi": 79,
                    "time": 150.7894862499989,
                    "velocity": 0.4645669291338583,
                    "duration": 0.15789474999999698
                },
                {
                    "name": "F#5",
                    "midi": 78,
                    "time": 150.9473809999989,
                    "velocity": 0.44881889763779526,
                    "duration": 0.15789474999999698
                },
                {
                    "name": "E5",
                    "midi": 76,
                    "time": 151.1052757499989,
                    "velocity": 0.4409448818897638,
                    "duration": 0.15789474999999698
                },
                {
                    "name": "D5",
                    "midi": 74,
                    "time": 151.2631704999989,
                    "velocity": 0.4330708661417323,
                    "duration": 0.15789474999999698
                },
                {
                    "name": "C#5",
                    "midi": 73,
                    "time": 151.4210652499989,
                    "velocity": 0.4251968503937008,
                    "duration": 0.15789474999999698
                },
                {
                    "name": "E5",
                    "midi": 76,
                    "time": 151.5789599999989,
                    "velocity": 0.3700787401574803,
                    "duration": 0.31578949999999395
                },
                {
                    "name": "D5",
                    "midi": 74,
                    "time": 151.89474949999888,
                    "velocity": 0.3464566929133858,
                    "duration": 0.31578949999999395
                },
                {
                    "name": "D5",
                    "midi": 74,
                    "time": 152.21053899999887,
                    "velocity": 0.3228346456692913,
                    "duration": 0.31578949999999395
                },
                {
                    "name": "D5",
                    "midi": 74,
                    "time": 152.52632849999887,
                    "velocity": 0.3228346456692913,
                    "duration": 0.4736842499999909
                },
                {
                    "name": "B4",
                    "midi": 71,
                    "time": 153.00001274999886,
                    "velocity": 0.3464566929133858,
                    "duration": 0.15789474999999698
                },
                {
                    "name": "C5",
                    "midi": 72,
                    "time": 153.15790749999886,
                    "velocity": 0.3464566929133858,
                    "duration": 0.15789474999999698
                },
                {
                    "name": "A4",
                    "midi": 69,
                    "time": 153.31580224999885,
                    "velocity": 0.3464566929133858,
                    "duration": 0.15789474999999698
                },
                {
                    "name": "G4",
                    "midi": 67,
                    "time": 153.47369699999885,
                    "velocity": 0.3858267716535433,
                    "duration": 0.5526316250000036
                },
                {
                    "name": "B4",
                    "midi": 71,
                    "time": 154.02632862499885,
                    "velocity": 0.3700787401574803,
                    "duration": 0.0789473750000127
                },
                {
                    "name": "A4",
                    "midi": 69,
                    "time": 154.10527599999887,
                    "velocity": 0.3700787401574803,
                    "duration": 0.31578949999999395
                },
                {
                    "name": "D4",
                    "midi": 62,
                    "time": 154.42106549999886,
                    "velocity": 0.3858267716535433,
                    "duration": 0.31578949999999395
                },
                {
                    "name": "D#4",
                    "midi": 63,
                    "time": 154.73685499999885,
                    "velocity": 0.3543307086614173,
                    "duration": 0.15789474999999698
                },
                {
                    "name": "E4",
                    "midi": 64,
                    "time": 154.89474974999885,
                    "velocity": 0.3543307086614173,
                    "duration": 0.15789474999999698
                },
                {
                    "name": "F4",
                    "midi": 65,
                    "time": 155.05264449999885,
                    "velocity": 0.3543307086614173,
                    "duration": 0.15789474999999698
                },
                {
                    "name": "F#4",
                    "midi": 66,
                    "time": 155.21053924999885,
                    "velocity": 0.3543307086614173,
                    "duration": 0.15789474999999698
                },
                {
                    "name": "G4",
                    "midi": 67,
                    "time": 155.36843399999884,
                    "velocity": 0.36220472440944884,
                    "duration": 0.31578949999999395
                },
                {
                    "name": "G4",
                    "midi": 67,
                    "time": 155.68422349999884,
                    "velocity": 0.3543307086614173,
                    "duration": 0.31578949999999395
                },
                {
                    "name": "G4",
                    "midi": 67,
                    "time": 156.00001299999883,
                    "velocity": 0.3543307086614173,
                    "duration": 0.31578949999999395
                },
                {
                    "name": "G4",
                    "midi": 67,
                    "time": 156.31580249999882,
                    "velocity": 0.3543307086614173,
                    "duration": 0.6315789999999879
                },
                {
                    "name": "D4",
                    "midi": 62,
                    "time": 156.9473814999988,
                    "velocity": 0.3543307086614173,
                    "duration": 0.31578950000002237
                },
                {
                    "name": "A4",
                    "midi": 69,
                    "time": 156.9473814999988,
                    "velocity": 0.3543307086614173,
                    "duration": 0.23684212500000967
                },
                {
                    "name": "C5",
                    "midi": 72,
                    "time": 157.18422362499882,
                    "velocity": 0.3543307086614173,
                    "duration": 0.0789473750000127
                },
                {
                    "name": "D4",
                    "midi": 62,
                    "time": 157.26317099999883,
                    "velocity": 0.3858267716535433,
                    "duration": 0.9473684999999819
                },
                {
                    "name": "B4",
                    "midi": 71,
                    "time": 157.26317099999883,
                    "velocity": 0.3858267716535433,
                    "duration": 0.15789474999999698
                },
                {
                    "name": "A#4",
                    "midi": 70,
                    "time": 157.42106574999883,
                    "velocity": 0.3700787401574803,
                    "duration": 0.15789474999999698
                },
                {
                    "name": "B4",
                    "midi": 71,
                    "time": 157.57896049999883,
                    "velocity": 0.3858267716535433,
                    "duration": 0.15789474999999698
                },
                {
                    "name": "A#4",
                    "midi": 70,
                    "time": 157.73685524999883,
                    "velocity": 0.36220472440944884,
                    "duration": 0.15789474999999698
                },
                {
                    "name": "B4",
                    "midi": 71,
                    "time": 157.89474999999882,
                    "velocity": 0.3858267716535433,
                    "duration": 0.15789474999999698
                },
                {
                    "name": "D5",
                    "midi": 74,
                    "time": 158.05264474999882,
                    "velocity": 0.36220472440944884,
                    "duration": 0.15789474999999698
                },
                {
                    "name": "F#4",
                    "midi": 66,
                    "time": 158.21053949999882,
                    "velocity": 0.3464566929133858,
                    "duration": 0.6315789999999879
                },
                {
                    "name": "D4",
                    "midi": 62,
                    "time": 158.21053949999882,
                    "velocity": 0.3464566929133858,
                    "duration": 0.9473684999999819
                },
                {
                    "name": "D5",
                    "midi": 74,
                    "time": 158.21053949999882,
                    "velocity": 0.3858267716535433,
                    "duration": 0.31578949999999395
                },
                {
                    "name": "C5",
                    "midi": 72,
                    "time": 158.5263289999988,
                    "velocity": 0.3543307086614173,
                    "duration": 0.31578949999999395
                },
                {
                    "name": "G4",
                    "midi": 67,
                    "time": 158.8421184999988,
                    "velocity": 0.3543307086614173,
                    "duration": 0.31578949999999395
                },
                {
                    "name": "B4",
                    "midi": 71,
                    "time": 158.8421184999988,
                    "velocity": 0.3543307086614173,
                    "duration": 0.31578949999999395
                },
                {
                    "name": "G4",
                    "midi": 67,
                    "time": 159.1579079999988,
                    "velocity": 0.3700787401574803,
                    "duration": 0.31578949999999395
                },
                {
                    "name": "B4",
                    "midi": 71,
                    "time": 159.1579079999988,
                    "velocity": 0.3700787401574803,
                    "duration": 0.31578949999999395
                },
                {
                    "name": "F#4",
                    "midi": 66,
                    "time": 159.4736974999988,
                    "velocity": 0.3543307086614173,
                    "duration": 0.31578949999999395
                },
                {
                    "name": "A4",
                    "midi": 69,
                    "time": 159.4736974999988,
                    "velocity": 0.3543307086614173,
                    "duration": 0.31578949999999395
                },
                {
                    "name": "F#4",
                    "midi": 66,
                    "time": 159.7894869999988,
                    "velocity": 0.3543307086614173,
                    "duration": 0.31578949999999395
                },
                {
                    "name": "A4",
                    "midi": 69,
                    "time": 159.7894869999988,
                    "velocity": 0.3543307086614173,
                    "duration": 0.31578949999999395
                },
                {
                    "name": "F#4",
                    "midi": 66,
                    "time": 160.10527649999878,
                    "velocity": 0.3543307086614173,
                    "duration": 0.6315789999999879
                },
                {
                    "name": "A4",
                    "midi": 69,
                    "time": 160.10527649999878,
                    "velocity": 0.3543307086614173,
                    "duration": 0.6315789999999879
                },
                {
                    "name": "G#4",
                    "midi": 68,
                    "time": 160.73685549999877,
                    "velocity": 0.36220472440944884,
                    "duration": 0.31578949999999395
                },
                {
                    "name": "B4",
                    "midi": 71,
                    "time": 160.73685549999877,
                    "velocity": 0.36220472440944884,
                    "duration": 0.31578949999999395
                },
                {
                    "name": "A4",
                    "midi": 69,
                    "time": 161.05264499999876,
                    "velocity": 0.3858267716535433,
                    "duration": 0.31578949999999395
                },
                {
                    "name": "C5",
                    "midi": 72,
                    "time": 161.05264499999876,
                    "velocity": 0.3858267716535433,
                    "duration": 0.31578949999999395
                },
                {
                    "name": "B4",
                    "midi": 71,
                    "time": 161.36843449999876,
                    "velocity": 0.4015748031496063,
                    "duration": 0.31578949999999395
                },
                {
                    "name": "D5",
                    "midi": 74,
                    "time": 161.36843449999876,
                    "velocity": 0.4015748031496063,
                    "duration": 0.31578949999999395
                },
                {
                    "name": "C5",
                    "midi": 72,
                    "time": 161.68422399999875,
                    "velocity": 0.4015748031496063,
                    "duration": 0.31578949999999395
                },
                {
                    "name": "E5",
                    "midi": 76,
                    "time": 161.68422399999875,
                    "velocity": 0.4015748031496063,
                    "duration": 0.31578949999999395
                },
                {
                    "name": "C5",
                    "midi": 72,
                    "time": 162.00001349999874,
                    "velocity": 0.4015748031496063,
                    "duration": 0.6315789999999879
                },
                {
                    "name": "E5",
                    "midi": 76,
                    "time": 162.00001349999874,
                    "velocity": 0.4015748031496063,
                    "duration": 0.6315789999999879
                },
                {
                    "name": "B4",
                    "midi": 71,
                    "time": 162.63159249999873,
                    "velocity": 0.3700787401574803,
                    "duration": 0.15789474999999698
                },
                {
                    "name": "D5",
                    "midi": 74,
                    "time": 162.63159249999873,
                    "velocity": 0.3700787401574803,
                    "duration": 0.15789474999999698
                },
                {
                    "name": "A4",
                    "midi": 69,
                    "time": 162.78948724999873,
                    "velocity": 0.3700787401574803,
                    "duration": 0.15789474999999698
                },
                {
                    "name": "C5",
                    "midi": 72,
                    "time": 162.78948724999873,
                    "velocity": 0.3700787401574803,
                    "duration": 0.15789474999999698
                },
                {
                    "name": "B4",
                    "midi": 71,
                    "time": 162.94738199999873,
                    "velocity": 0.3858267716535433,
                    "duration": 0.15789474999999698
                },
                {
                    "name": "C5",
                    "midi": 72,
                    "time": 163.10527674999872,
                    "velocity": 0.3543307086614173,
                    "duration": 0.15789474999999698
                },
                {
                    "name": "B4",
                    "midi": 71,
                    "time": 163.26317149999872,
                    "velocity": 0.3858267716535433,
                    "duration": 0.15789474999999698
                },
                {
                    "name": "C5",
                    "midi": 72,
                    "time": 163.42106624999872,
                    "velocity": 0.3543307086614173,
                    "duration": 0.15789474999999698
                },
                {
                    "name": "B4",
                    "midi": 71,
                    "time": 163.5789609999987,
                    "velocity": 0.3858267716535433,
                    "duration": 0.15789474999999698
                },
                {
                    "name": "D5",
                    "midi": 74,
                    "time": 163.7368557499987,
                    "velocity": 0.3543307086614173,
                    "duration": 0.15789474999999698
                },
                {
                    "name": "C5",
                    "midi": 72,
                    "time": 163.8947504999987,
                    "velocity": 0.4015748031496063,
                    "duration": 0.31578949999999395
                },
                {
                    "name": "D5",
                    "midi": 74,
                    "time": 164.2105399999987,
                    "velocity": 0.4015748031496063,
                    "duration": 0.31578949999999395
                },
                {
                    "name": "E5",
                    "midi": 76,
                    "time": 164.5263294999987,
                    "velocity": 0.4015748031496063,
                    "duration": 0.31578949999999395
                },
                {
                    "name": "D5",
                    "midi": 74,
                    "time": 164.8421189999987,
                    "velocity": 0.41732283464566927,
                    "duration": 0.31578949999999395
                },
                {
                    "name": "G5",
                    "midi": 79,
                    "time": 165.15790849999868,
                    "velocity": 0.44881889763779526,
                    "duration": 0.31578949999999395
                },
                {
                    "name": "G5",
                    "midi": 79,
                    "time": 165.47369799999868,
                    "velocity": 0.44881889763779526,
                    "duration": 0.31578949999999395
                },
                {
                    "name": "A5",
                    "midi": 81,
                    "time": 165.78948749999867,
                    "velocity": 0.47244094488188976,
                    "duration": 0.15789474999999698
                },
                {
                    "name": "G5",
                    "midi": 79,
                    "time": 165.94738224999867,
                    "velocity": 0.4645669291338583,
                    "duration": 0.15789474999999698
                },
                {
                    "name": "F#5",
                    "midi": 78,
                    "time": 166.10527699999867,
                    "velocity": 0.44881889763779526,
                    "duration": 0.15789474999999698
                },
                {
                    "name": "E5",
                    "midi": 76,
                    "time": 166.26317174999866,
                    "velocity": 0.4409448818897638,
                    "duration": 0.15789474999999698
                },
                {
                    "name": "D5",
                    "midi": 74,
                    "time": 166.42106649999866,
                    "velocity": 0.4330708661417323,
                    "duration": 0.15789474999999698
                },
                {
                    "name": "C#5",
                    "midi": 73,
                    "time": 166.57896124999866,
                    "velocity": 0.4251968503937008,
                    "duration": 0.15789474999999698
                },
                {
                    "name": "E5",
                    "midi": 76,
                    "time": 166.73685599999865,
                    "velocity": 0.3700787401574803,
                    "duration": 0.31578949999999395
                },
                {
                    "name": "D5",
                    "midi": 74,
                    "time": 167.05264549999865,
                    "velocity": 0.3464566929133858,
                    "duration": 0.31578949999999395
                },
                {
                    "name": "D5",
                    "midi": 74,
                    "time": 167.36843499999864,
                    "velocity": 0.3228346456692913,
                    "duration": 0.31578949999999395
                },
                {
                    "name": "D5",
                    "midi": 74,
                    "time": 167.68422449999863,
                    "velocity": 0.3228346456692913,
                    "duration": 0.31578949999999395
                },
                {
                    "name": "G5",
                    "midi": 79,
                    "time": 168.31580349999862,
                    "velocity": 0.41732283464566927,
                    "duration": 0.31578949999999395
                },
                {
                    "name": "G5",
                    "midi": 79,
                    "time": 168.63159299999862,
                    "velocity": 0.41732283464566927,
                    "duration": 0.5526316250000036
                },
                {
                    "name": "B5",
                    "midi": 83,
                    "time": 169.18422462499862,
                    "velocity": 0.4015748031496063,
                    "duration": 0.0789473750000127
                },
                {
                    "name": "A5",
                    "midi": 81,
                    "time": 169.26317199999863,
                    "velocity": 0.4015748031496063,
                    "duration": 0.31578949999999395
                },
                {
                    "name": "G5",
                    "midi": 79,
                    "time": 169.57896149999863,
                    "velocity": 0.41732283464566927,
                    "duration": 0.31578949999999395
                },
                {
                    "name": "F#5",
                    "midi": 78,
                    "time": 169.89475099999862,
                    "velocity": 0.3858267716535433,
                    "duration": 0.31578949999999395
                },
                {
                    "name": "E5",
                    "midi": 76,
                    "time": 170.21054049999861,
                    "velocity": 0.3858267716535433,
                    "duration": 0.31578949999999395
                },
                {
                    "name": "D5",
                    "midi": 74,
                    "time": 170.5263299999986,
                    "velocity": 0.3937007874015748,
                    "duration": 0.31578949999999395
                },
                {
                    "name": "D5",
                    "midi": 74,
                    "time": 170.8421194999986,
                    "velocity": 0.3700787401574803,
                    "duration": 0.31578949999999395
                },
                {
                    "name": "D5",
                    "midi": 74,
                    "time": 171.1579089999986,
                    "velocity": 0.3700787401574803,
                    "duration": 0.31578949999999395
                },
                {
                    "name": "D5",
                    "midi": 74,
                    "time": 171.4736984999986,
                    "velocity": 0.3700787401574803,
                    "duration": 0.6315789999999879
                },
                {
                    "name": "D#5",
                    "midi": 75,
                    "time": 172.10527749999858,
                    "velocity": 0.4015748031496063,
                    "duration": 0.31578949999999395
                },
                {
                    "name": "E5",
                    "midi": 76,
                    "time": 172.42106699999857,
                    "velocity": 0.4094488188976378,
                    "duration": 0.15789474999999698
                },
                {
                    "name": "D#5",
                    "midi": 75,
                    "time": 172.57896174999857,
                    "velocity": 0.3937007874015748,
                    "duration": 0.15789474999999698
                },
                {
                    "name": "F#5",
                    "midi": 78,
                    "time": 172.73685649999857,
                    "velocity": 0.4094488188976378,
                    "duration": 0.15789474999999698
                },
                {
                    "name": "E5",
                    "midi": 76,
                    "time": 172.89475124999856,
                    "velocity": 0.4015748031496063,
                    "duration": 0.15789474999999698
                },
                {
                    "name": "G5",
                    "midi": 79,
                    "time": 173.05264599999856,
                    "velocity": 0.4094488188976378,
                    "duration": 0.15789474999999698
                },
                {
                    "name": "F#5",
                    "midi": 78,
                    "time": 173.21054074999856,
                    "velocity": 0.4015748031496063,
                    "duration": 0.15789474999999698
                },
                {
                    "name": "A5",
                    "midi": 81,
                    "time": 173.36843549999855,
                    "velocity": 0.4094488188976378,
                    "duration": 0.15789474999999698
                },
                {
                    "name": "G5",
                    "midi": 79,
                    "time": 173.52633024999855,
                    "velocity": 0.4015748031496063,
                    "duration": 0.15789474999999698
                },
                {
                    "name": "F#5",
                    "midi": 78,
                    "time": 173.68422499999855,
                    "velocity": 0.4015748031496063,
                    "duration": 0.15789474999999698
                },
                {
                    "name": "E5",
                    "midi": 76,
                    "time": 173.84211974999855,
                    "velocity": 0.3937007874015748,
                    "duration": 0.15789474999999698
                },
                {
                    "name": "D5",
                    "midi": 74,
                    "time": 174.00001449999854,
                    "velocity": 0.3858267716535433,
                    "duration": 0.15789474999999698
                },
                {
                    "name": "C#5",
                    "midi": 73,
                    "time": 174.15790924999854,
                    "velocity": 0.3700787401574803,
                    "duration": 0.15789474999999698
                },
                {
                    "name": "D5",
                    "midi": 74,
                    "time": 174.31580399999854,
                    "velocity": 0.41732283464566927,
                    "duration": 0.31578949999999395
                },
                {
                    "name": "D5",
                    "midi": 74,
                    "time": 174.94738299999852,
                    "velocity": 0.36220472440944884,
                    "duration": 0.31578949999999395
                },
                {
                    "name": "D5",
                    "midi": 74,
                    "time": 175.26317249999852,
                    "velocity": 0.4015748031496063,
                    "duration": 0.31578949999999395
                },
                {
                    "name": "D5",
                    "midi": 74,
                    "time": 175.8947514999985,
                    "velocity": 0.36220472440944884,
                    "duration": 0.31578949999999395
                },
                {
                    "name": "D5",
                    "midi": 74,
                    "time": 176.2105409999985,
                    "velocity": 0.41732283464566927,
                    "duration": 0.31578949999999395
                },
                {
                    "name": "D5",
                    "midi": 74,
                    "time": 176.8421199999985,
                    "velocity": 0.36220472440944884,
                    "duration": 0.31578949999999395
                },
                {
                    "name": "D5",
                    "midi": 74,
                    "time": 177.15790949999848,
                    "velocity": 0.3937007874015748,
                    "duration": 0.31578949999999395
                },
                {
                    "name": "D5",
                    "midi": 74,
                    "time": 177.78948849999847,
                    "velocity": 0.3228346456692913,
                    "duration": 0.31578949999999395
                },
                {
                    "name": "D5",
                    "midi": 74,
                    "time": 178.26317274999846,
                    "velocity": 0.3228346456692913,
                    "duration": 0.15789474999999698
                },
                {
                    "name": "F#5",
                    "midi": 78,
                    "time": 178.42106749999846,
                    "velocity": 0.33858267716535434,
                    "duration": 0.15789474999999698
                },
                {
                    "name": "D5",
                    "midi": 74,
                    "time": 178.57896224999845,
                    "velocity": 0.30708661417322836,
                    "duration": 0.15789474999999698
                },
                {
                    "name": "E5",
                    "midi": 76,
                    "time": 178.73685699999845,
                    "velocity": 0.3228346456692913,
                    "duration": 0.15789474999999698
                },
                {
                    "name": "G5",
                    "midi": 79,
                    "time": 178.89475174999845,
                    "velocity": 0.33858267716535434,
                    "duration": 0.15789474999999698
                },
                {
                    "name": "F#5",
                    "midi": 78,
                    "time": 179.21054124999844,
                    "velocity": 0.3228346456692913,
                    "duration": 0.15789474999999698
                },
                {
                    "name": "A5",
                    "midi": 81,
                    "time": 179.36843599999844,
                    "velocity": 0.33858267716535434,
                    "duration": 0.15789474999999698
                },
                {
                    "name": "F#5",
                    "midi": 78,
                    "time": 179.52633074999844,
                    "velocity": 0.31496062992125984,
                    "duration": 0.15789474999999698
                },
                {
                    "name": "G5",
                    "midi": 79,
                    "time": 179.68422549999843,
                    "velocity": 0.33070866141732286,
                    "duration": 0.15789474999999698
                },
                {
                    "name": "B5",
                    "midi": 83,
                    "time": 179.84212024999843,
                    "velocity": 0.3464566929133858,
                    "duration": 0.15789474999999698
                },
                {
                    "name": "A5",
                    "midi": 81,
                    "time": 180.15790974999842,
                    "velocity": 0.44881889763779526,
                    "duration": 0.15789474999999698
                },
                {
                    "name": "C6",
                    "midi": 84,
                    "time": 180.31580449999842,
                    "velocity": 0.4645669291338583,
                    "duration": 0.15789474999999698
                },
                {
                    "name": "F#5",
                    "midi": 78,
                    "time": 180.47369924999842,
                    "velocity": 0.4251968503937008,
                    "duration": 0.15789474999999698
                },
                {
                    "name": "A5",
                    "midi": 81,
                    "time": 180.63159399999842,
                    "velocity": 0.44881889763779526,
                    "duration": 0.15789474999999698
                },
                {
                    "name": "C5",
                    "midi": 72,
                    "time": 180.7894887499984,
                    "velocity": 0.41732283464566927,
                    "duration": 0.15789474999999698
                },
                {
                    "name": "F#5",
                    "midi": 78,
                    "time": 180.9473834999984,
                    "velocity": 0.4409448818897638,
                    "duration": 0.15789474999999698
                },
                {
                    "name": "A4",
                    "midi": 69,
                    "time": 181.1052782499984,
                    "velocity": 0.4015748031496063,
                    "duration": 0.15789474999999698
                },
                {
                    "name": "C5",
                    "midi": 72,
                    "time": 181.2631729999984,
                    "velocity": 0.4251968503937008,
                    "duration": 0.15789474999999698
                },
                {
                    "name": "F#4",
                    "midi": 66,
                    "time": 181.4210677499984,
                    "velocity": 0.3858267716535433,
                    "duration": 0.15789474999999698
                },
                {
                    "name": "A4",
                    "midi": 69,
                    "time": 181.5789624999984,
                    "velocity": 0.4094488188976378,
                    "duration": 0.15789474999999698
                },
                {
                    "name": "C4",
                    "midi": 60,
                    "time": 181.7368572499984,
                    "velocity": 0.3779527559055118,
                    "duration": 0.15789474999999698
                },
                {
                    "name": "E5",
                    "midi": 76,
                    "time": 181.8947519999984,
                    "velocity": 0.3937007874015748,
                    "duration": 1.5789474999999982
                },
                {
                    "name": "D5",
                    "midi": 74,
                    "time": 183.4736994999984,
                    "velocity": 0.3464566929133858,
                    "duration": 0.0789473750000127
                },
                {
                    "name": "C5",
                    "midi": 72,
                    "time": 183.5526468749984,
                    "velocity": 0.3464566929133858,
                    "duration": 0.0789473750000127
                },
                {
                    "name": "B4",
                    "midi": 71,
                    "time": 183.63159424999841,
                    "velocity": 0.3464566929133858,
                    "duration": 0.0789473750000127
                },
                {
                    "name": "A4",
                    "midi": 69,
                    "time": 183.71054162499843,
                    "velocity": 0.3464566929133858,
                    "duration": 0.0789473750000127
                },
                {
                    "name": "G4",
                    "midi": 67,
                    "time": 183.78948899999844,
                    "velocity": 0.3858267716535433,
                    "duration": 0.5526316250000036
                },
                {
                    "name": "B4",
                    "midi": 71,
                    "time": 184.34212062499844,
                    "velocity": 0.3700787401574803,
                    "duration": 0.0789473750000127
                },
                {
                    "name": "A4",
                    "midi": 69,
                    "time": 184.42106799999846,
                    "velocity": 0.3700787401574803,
                    "duration": 0.31578949999999395
                },
                {
                    "name": "D4",
                    "midi": 62,
                    "time": 184.73685749999845,
                    "velocity": 0.3858267716535433,
                    "duration": 0.31578949999999395
                },
                {
                    "name": "D#4",
                    "midi": 63,
                    "time": 185.05264699999844,
                    "velocity": 0.3543307086614173,
                    "duration": 0.15789474999999698
                },
                {
                    "name": "E4",
                    "midi": 64,
                    "time": 185.21054174999844,
                    "velocity": 0.3543307086614173,
                    "duration": 0.15789474999999698
                },
                {
                    "name": "F4",
                    "midi": 65,
                    "time": 185.36843649999844,
                    "velocity": 0.3543307086614173,
                    "duration": 0.15789474999999698
                },
                {
                    "name": "F#4",
                    "midi": 66,
                    "time": 185.52633124999844,
                    "velocity": 0.3543307086614173,
                    "duration": 0.15789474999999698
                },
                {
                    "name": "G4",
                    "midi": 67,
                    "time": 185.68422599999843,
                    "velocity": 0.36220472440944884,
                    "duration": 0.31578949999999395
                },
                {
                    "name": "G4",
                    "midi": 67,
                    "time": 186.00001549999843,
                    "velocity": 0.3543307086614173,
                    "duration": 0.31578949999999395
                },
                {
                    "name": "G4",
                    "midi": 67,
                    "time": 186.31580499999842,
                    "velocity": 0.3543307086614173,
                    "duration": 0.31578949999999395
                },
                {
                    "name": "G4",
                    "midi": 67,
                    "time": 186.6315944999984,
                    "velocity": 0.3543307086614173,
                    "duration": 0.6315789999999879
                },
                {
                    "name": "D4",
                    "midi": 62,
                    "time": 187.2631734999984,
                    "velocity": 0.3543307086614173,
                    "duration": 0.31578950000002237
                },
                {
                    "name": "A4",
                    "midi": 69,
                    "time": 187.2631734999984,
                    "velocity": 0.3543307086614173,
                    "duration": 0.23684212500000967
                },
                {
                    "name": "C5",
                    "midi": 72,
                    "time": 187.5000156249984,
                    "velocity": 0.3543307086614173,
                    "duration": 0.0789473750000127
                },
                {
                    "name": "D4",
                    "midi": 62,
                    "time": 187.57896299999842,
                    "velocity": 0.3858267716535433,
                    "duration": 0.9473684999999819
                },
                {
                    "name": "B4",
                    "midi": 71,
                    "time": 187.57896299999842,
                    "velocity": 0.3858267716535433,
                    "duration": 0.15789474999999698
                },
                {
                    "name": "A#4",
                    "midi": 70,
                    "time": 187.73685774999842,
                    "velocity": 0.3700787401574803,
                    "duration": 0.15789474999999698
                },
                {
                    "name": "B4",
                    "midi": 71,
                    "time": 187.89475249999842,
                    "velocity": 0.3858267716535433,
                    "duration": 0.15789474999999698
                },
                {
                    "name": "A#4",
                    "midi": 70,
                    "time": 188.05264724999842,
                    "velocity": 0.36220472440944884,
                    "duration": 0.15789474999999698
                },
                {
                    "name": "B4",
                    "midi": 71,
                    "time": 188.2105419999984,
                    "velocity": 0.3858267716535433,
                    "duration": 0.15789474999999698
                },
                {
                    "name": "D5",
                    "midi": 74,
                    "time": 188.3684367499984,
                    "velocity": 0.36220472440944884,
                    "duration": 0.15789474999999698
                },
                {
                    "name": "F#4",
                    "midi": 66,
                    "time": 188.5263314999984,
                    "velocity": 0.3464566929133858,
                    "duration": 0.6315789999999879
                },
                {
                    "name": "D4",
                    "midi": 62,
                    "time": 188.5263314999984,
                    "velocity": 0.3464566929133858,
                    "duration": 0.9473684999999819
                },
                {
                    "name": "D5",
                    "midi": 74,
                    "time": 188.5263314999984,
                    "velocity": 0.3858267716535433,
                    "duration": 0.31578949999999395
                },
                {
                    "name": "C5",
                    "midi": 72,
                    "time": 188.8421209999984,
                    "velocity": 0.3543307086614173,
                    "duration": 0.31578949999999395
                },
                {
                    "name": "G4",
                    "midi": 67,
                    "time": 189.1579104999984,
                    "velocity": 0.3543307086614173,
                    "duration": 0.31578949999999395
                },
                {
                    "name": "B4",
                    "midi": 71,
                    "time": 189.1579104999984,
                    "velocity": 0.3543307086614173,
                    "duration": 0.31578949999999395
                },
                {
                    "name": "G4",
                    "midi": 67,
                    "time": 189.4736999999984,
                    "velocity": 0.3700787401574803,
                    "duration": 0.31578949999999395
                },
                {
                    "name": "B4",
                    "midi": 71,
                    "time": 189.4736999999984,
                    "velocity": 0.3700787401574803,
                    "duration": 0.31578949999999395
                },
                {
                    "name": "F#4",
                    "midi": 66,
                    "time": 189.78948949999838,
                    "velocity": 0.3543307086614173,
                    "duration": 0.31578949999999395
                },
                {
                    "name": "A4",
                    "midi": 69,
                    "time": 189.78948949999838,
                    "velocity": 0.3543307086614173,
                    "duration": 0.31578949999999395
                },
                {
                    "name": "F#4",
                    "midi": 66,
                    "time": 190.10527899999838,
                    "velocity": 0.3543307086614173,
                    "duration": 0.31578949999999395
                },
                {
                    "name": "A4",
                    "midi": 69,
                    "time": 190.10527899999838,
                    "velocity": 0.3543307086614173,
                    "duration": 0.31578949999999395
                },
                {
                    "name": "F#4",
                    "midi": 66,
                    "time": 190.42106849999837,
                    "velocity": 0.3543307086614173,
                    "duration": 0.6315789999999879
                },
                {
                    "name": "A4",
                    "midi": 69,
                    "time": 190.42106849999837,
                    "velocity": 0.3543307086614173,
                    "duration": 0.6315789999999879
                },
                {
                    "name": "G#4",
                    "midi": 68,
                    "time": 191.05264749999836,
                    "velocity": 0.36220472440944884,
                    "duration": 0.31578949999999395
                },
                {
                    "name": "B4",
                    "midi": 71,
                    "time": 191.05264749999836,
                    "velocity": 0.36220472440944884,
                    "duration": 0.31578949999999395
                },
                {
                    "name": "A4",
                    "midi": 69,
                    "time": 191.36843699999835,
                    "velocity": 0.3858267716535433,
                    "duration": 0.31578949999999395
                },
                {
                    "name": "C5",
                    "midi": 72,
                    "time": 191.36843699999835,
                    "velocity": 0.3858267716535433,
                    "duration": 0.31578949999999395
                },
                {
                    "name": "B4",
                    "midi": 71,
                    "time": 191.68422649999835,
                    "velocity": 0.4015748031496063,
                    "duration": 0.31578949999999395
                },
                {
                    "name": "D5",
                    "midi": 74,
                    "time": 191.68422649999835,
                    "velocity": 0.4015748031496063,
                    "duration": 0.31578949999999395
                },
                {
                    "name": "C5",
                    "midi": 72,
                    "time": 192.00001599999834,
                    "velocity": 0.4015748031496063,
                    "duration": 0.31578949999999395
                },
                {
                    "name": "E5",
                    "midi": 76,
                    "time": 192.00001599999834,
                    "velocity": 0.4015748031496063,
                    "duration": 0.31578949999999395
                },
                {
                    "name": "C5",
                    "midi": 72,
                    "time": 192.31580549999833,
                    "velocity": 0.4015748031496063,
                    "duration": 0.6315789999999879
                },
                {
                    "name": "E5",
                    "midi": 76,
                    "time": 192.31580549999833,
                    "velocity": 0.4015748031496063,
                    "duration": 0.6315789999999879
                },
                {
                    "name": "B4",
                    "midi": 71,
                    "time": 192.94738449999832,
                    "velocity": 0.3700787401574803,
                    "duration": 0.15789474999999698
                },
                {
                    "name": "D5",
                    "midi": 74,
                    "time": 192.94738449999832,
                    "velocity": 0.3700787401574803,
                    "duration": 0.15789474999999698
                },
                {
                    "name": "A4",
                    "midi": 69,
                    "time": 193.10527924999832,
                    "velocity": 0.3700787401574803,
                    "duration": 0.15789474999999698
                },
                {
                    "name": "C5",
                    "midi": 72,
                    "time": 193.10527924999832,
                    "velocity": 0.3700787401574803,
                    "duration": 0.15789474999999698
                },
                {
                    "name": "G4",
                    "midi": 67,
                    "time": 193.26317399999832,
                    "velocity": 0.3858267716535433,
                    "duration": 0.31578949999999395
                },
                {
                    "name": "B4",
                    "midi": 71,
                    "time": 193.26317399999832,
                    "velocity": 0.3858267716535433,
                    "duration": 0.31578949999999395
                },
                {
                    "name": "A4",
                    "midi": 69,
                    "time": 193.5789634999983,
                    "velocity": 0.36220472440944884,
                    "duration": 0.31578949999999395
                },
                {
                    "name": "C5",
                    "midi": 72,
                    "time": 193.5789634999983,
                    "velocity": 0.36220472440944884,
                    "duration": 0.31578949999999395
                },
                {
                    "name": "B4",
                    "midi": 71,
                    "time": 193.8947529999983,
                    "velocity": 0.36220472440944884,
                    "duration": 0.31578949999999395
                },
                {
                    "name": "D5",
                    "midi": 74,
                    "time": 193.8947529999983,
                    "velocity": 0.36220472440944884,
                    "duration": 0.31578949999999395
                },
                {
                    "name": "B3",
                    "midi": 59,
                    "time": 194.2105424999983,
                    "velocity": 0.3700787401574803,
                    "duration": 0.31578949999999395
                },
                {
                    "name": "G4",
                    "midi": 67,
                    "time": 194.2105424999983,
                    "velocity": 0.3700787401574803,
                    "duration": 0.31578949999999395
                },
                {
                    "name": "C4",
                    "midi": 60,
                    "time": 194.5263319999983,
                    "velocity": 0.3543307086614173,
                    "duration": 0.31578949999999395
                },
                {
                    "name": "A4",
                    "midi": 69,
                    "time": 194.5263319999983,
                    "velocity": 0.3543307086614173,
                    "duration": 0.31578949999999395
                },
                {
                    "name": "D4",
                    "midi": 62,
                    "time": 194.84212149999829,
                    "velocity": 0.3543307086614173,
                    "duration": 0.31578949999999395
                },
                {
                    "name": "B4",
                    "midi": 71,
                    "time": 194.84212149999829,
                    "velocity": 0.3543307086614173,
                    "duration": 0.31578949999999395
                },
                {
                    "name": "A4",
                    "midi": 69,
                    "time": 195.15791099999828,
                    "velocity": 0.36220472440944884,
                    "duration": 0.31578949999999395
                },
                {
                    "name": "E4",
                    "midi": 64,
                    "time": 195.31580574999828,
                    "velocity": 0.36220472440944884,
                    "duration": 0.31578949999999395
                },
                {
                    "name": "B4",
                    "midi": 71,
                    "time": 195.47370049999827,
                    "velocity": 0.3543307086614173,
                    "duration": 0.31578949999999395
                },
                {
                    "name": "D4",
                    "midi": 62,
                    "time": 195.63159524999827,
                    "velocity": 0.3543307086614173,
                    "duration": 0.31578949999999395
                },
                {
                    "name": "C5",
                    "midi": 72,
                    "time": 195.78948999999827,
                    "velocity": 0.3543307086614173,
                    "duration": 0.31578949999999395
                },
                {
                    "name": "C4",
                    "midi": 60,
                    "time": 195.94738474999826,
                    "velocity": 0.3543307086614173,
                    "duration": 0.31578949999999395
                },
                {
                    "name": "C5",
                    "midi": 72,
                    "time": 196.10527949999826,
                    "velocity": 0.3543307086614173,
                    "duration": 0.31578949999999395
                },
                {
                    "name": "C4",
                    "midi": 60,
                    "time": 196.26317424999826,
                    "velocity": 0.3543307086614173,
                    "duration": 0.31578949999999395
                },
                {
                    "name": "A4",
                    "midi": 69,
                    "time": 196.42106899999825,
                    "velocity": 0.3543307086614173,
                    "duration": 0.31578949999999395
                },
                {
                    "name": "C4",
                    "midi": 60,
                    "time": 196.57896374999825,
                    "velocity": 0.3543307086614173,
                    "duration": 0.31578949999999395
                },
                {
                    "name": "F#4",
                    "midi": 66,
                    "time": 196.73685849999825,
                    "velocity": 0.33858267716535434,
                    "duration": 0.31578949999999395
                },
                {
                    "name": "C4",
                    "midi": 60,
                    "time": 196.89475324999825,
                    "velocity": 0.3543307086614173,
                    "duration": 1.1052632500000072
                },
                {
                    "name": "A4",
                    "midi": 69,
                    "time": 197.05264799999824,
                    "velocity": 0.3228346456692913,
                    "duration": 0.9473685000000103
                },
                {
                    "name": "B3",
                    "midi": 59,
                    "time": 198.00001649999825,
                    "velocity": 0.2440944881889764,
                    "duration": 0.31578949999999395
                },
                {
                    "name": "G4",
                    "midi": 67,
                    "time": 198.00001649999825,
                    "velocity": 0.2440944881889764,
                    "duration": 0.31578949999999395
                },
                {
                    "name": "G5",
                    "midi": 79,
                    "time": 198.63159549999824,
                    "velocity": 0.41732283464566927,
                    "duration": 0.31578949999999395
                },
                {
                    "name": "G5",
                    "midi": 79,
                    "time": 198.94738499999823,
                    "velocity": 0.41732283464566927,
                    "duration": 0.5526316250000036
                },
                {
                    "name": "B5",
                    "midi": 83,
                    "time": 199.50001662499824,
                    "velocity": 0.4015748031496063,
                    "duration": 0.0789473750000127
                },
                {
                    "name": "A5",
                    "midi": 81,
                    "time": 199.57896399999825,
                    "velocity": 0.4015748031496063,
                    "duration": 0.31578949999999395
                },
                {
                    "name": "G5",
                    "midi": 79,
                    "time": 199.89475349999825,
                    "velocity": 0.41732283464566927,
                    "duration": 0.31578949999999395
                },
                {
                    "name": "F#5",
                    "midi": 78,
                    "time": 200.21054299999824,
                    "velocity": 0.3858267716535433,
                    "duration": 0.31578949999999395
                },
                {
                    "name": "E5",
                    "midi": 76,
                    "time": 200.52633249999823,
                    "velocity": 0.3858267716535433,
                    "duration": 0.31578949999999395
                },
                {
                    "name": "D5",
                    "midi": 74,
                    "time": 200.84212199999823,
                    "velocity": 0.3937007874015748,
                    "duration": 0.31578949999999395
                },
                {
                    "name": "D5",
                    "midi": 74,
                    "time": 201.15791149999822,
                    "velocity": 0.3700787401574803,
                    "duration": 0.31578949999999395
                },
                {
                    "name": "D5",
                    "midi": 74,
                    "time": 201.47370099999821,
                    "velocity": 0.3700787401574803,
                    "duration": 0.31578949999999395
                },
                {
                    "name": "D5",
                    "midi": 74,
                    "time": 201.7894904999982,
                    "velocity": 0.3700787401574803,
                    "duration": 0.6315789999999879
                },
                {
                    "name": "D#5",
                    "midi": 75,
                    "time": 202.4210694999982,
                    "velocity": 0.4015748031496063,
                    "duration": 0.31578949999999395
                },
                {
                    "name": "E5",
                    "midi": 76,
                    "time": 202.7368589999982,
                    "velocity": 0.4094488188976378,
                    "duration": 0.15789474999999698
                },
                {
                    "name": "D#5",
                    "midi": 75,
                    "time": 202.8947537499982,
                    "velocity": 0.3937007874015748,
                    "duration": 0.15789474999999698
                },
                {
                    "name": "F#5",
                    "midi": 78,
                    "time": 203.05264849999818,
                    "velocity": 0.4094488188976378,
                    "duration": 0.15789474999999698
                },
                {
                    "name": "E5",
                    "midi": 76,
                    "time": 203.21054324999818,
                    "velocity": 0.4015748031496063,
                    "duration": 0.15789474999999698
                },
                {
                    "name": "G5",
                    "midi": 79,
                    "time": 203.36843799999818,
                    "velocity": 0.4094488188976378,
                    "duration": 0.15789474999999698
                },
                {
                    "name": "F#5",
                    "midi": 78,
                    "time": 203.52633274999818,
                    "velocity": 0.4015748031496063,
                    "duration": 0.15789474999999698
                },
                {
                    "name": "A5",
                    "midi": 81,
                    "time": 203.68422749999817,
                    "velocity": 0.4094488188976378,
                    "duration": 0.15789474999999698
                },
                {
                    "name": "G5",
                    "midi": 79,
                    "time": 203.84212224999817,
                    "velocity": 0.4015748031496063,
                    "duration": 0.15789474999999698
                },
                {
                    "name": "F#5",
                    "midi": 78,
                    "time": 204.00001699999817,
                    "velocity": 0.4015748031496063,
                    "duration": 0.15789474999999698
                },
                {
                    "name": "E5",
                    "midi": 76,
                    "time": 204.15791174999816,
                    "velocity": 0.3937007874015748,
                    "duration": 0.15789474999999698
                },
                {
                    "name": "D5",
                    "midi": 74,
                    "time": 204.31580649999816,
                    "velocity": 0.3858267716535433,
                    "duration": 0.15789474999999698
                },
                {
                    "name": "C#5",
                    "midi": 73,
                    "time": 204.47370124999816,
                    "velocity": 0.3700787401574803,
                    "duration": 0.15789474999999698
                },
                {
                    "name": "D5",
                    "midi": 74,
                    "time": 204.63159599999815,
                    "velocity": 0.4094488188976378,
                    "duration": 0.31578949999999395
                },
                {
                    "name": "D5",
                    "midi": 74,
                    "time": 205.26317499999814,
                    "velocity": 0.3543307086614173,
                    "duration": 0.31578949999999395
                },
                {
                    "name": "D5",
                    "midi": 74,
                    "time": 205.57896449999814,
                    "velocity": 0.3858267716535433,
                    "duration": 0.31578949999999395
                },
                {
                    "name": "D5",
                    "midi": 74,
                    "time": 206.21054349999812,
                    "velocity": 0.36220472440944884,
                    "duration": 0.31578949999999395
                },
                {
                    "name": "D5",
                    "midi": 74,
                    "time": 206.52633299999812,
                    "velocity": 0.4015748031496063,
                    "duration": 0.31578949999999395
                },
                {
                    "name": "D5",
                    "midi": 74,
                    "time": 207.1579119999981,
                    "velocity": 0.3543307086614173,
                    "duration": 0.31578949999999395
                },
                {
                    "name": "D5",
                    "midi": 74,
                    "time": 207.4737014999981,
                    "velocity": 0.3937007874015748,
                    "duration": 0.31578949999999395
                },
                {
                    "name": "D5",
                    "midi": 74,
                    "time": 208.1052804999981,
                    "velocity": 0.3228346456692913,
                    "duration": 0.31578949999999395
                },
                {
                    "name": "D5",
                    "midi": 74,
                    "time": 208.57896474999808,
                    "velocity": 0.3228346456692913,
                    "duration": 0.15789474999999698
                },
                {
                    "name": "F#5",
                    "midi": 78,
                    "time": 208.73685949999808,
                    "velocity": 0.33858267716535434,
                    "duration": 0.15789474999999698
                },
                {
                    "name": "D5",
                    "midi": 74,
                    "time": 208.89475424999807,
                    "velocity": 0.30708661417322836,
                    "duration": 0.15789474999999698
                },
                {
                    "name": "E5",
                    "midi": 76,
                    "time": 209.05264899999807,
                    "velocity": 0.3228346456692913,
                    "duration": 0.15789474999999698
                },
                {
                    "name": "G5",
                    "midi": 79,
                    "time": 209.21054374999807,
                    "velocity": 0.33858267716535434,
                    "duration": 0.15789474999999698
                },
                {
                    "name": "F#5",
                    "midi": 78,
                    "time": 209.52633324999806,
                    "velocity": 0.3228346456692913,
                    "duration": 0.15789474999999698
                },
                {
                    "name": "A5",
                    "midi": 81,
                    "time": 209.68422799999806,
                    "velocity": 0.33858267716535434,
                    "duration": 0.15789474999999698
                },
                {
                    "name": "F#5",
                    "midi": 78,
                    "time": 209.84212274999805,
                    "velocity": 0.31496062992125984,
                    "duration": 0.15789474999999698
                },
                {
                    "name": "G5",
                    "midi": 79,
                    "time": 210.00001749999805,
                    "velocity": 0.33070866141732286,
                    "duration": 0.15789474999999698
                },
                {
                    "name": "B5",
                    "midi": 83,
                    "time": 210.15791224999805,
                    "velocity": 0.3464566929133858,
                    "duration": 0.15789474999999698
                },
                {
                    "name": "A5",
                    "midi": 81,
                    "time": 210.47370174999804,
                    "velocity": 0.44881889763779526,
                    "duration": 0.15789474999999698
                },
                {
                    "name": "C6",
                    "midi": 84,
                    "time": 210.63159649999804,
                    "velocity": 0.4645669291338583,
                    "duration": 0.15789474999999698
                },
                {
                    "name": "F#5",
                    "midi": 78,
                    "time": 210.78949124999804,
                    "velocity": 0.4251968503937008,
                    "duration": 0.15789474999999698
                },
                {
                    "name": "A5",
                    "midi": 81,
                    "time": 210.94738599999803,
                    "velocity": 0.44881889763779526,
                    "duration": 0.15789474999999698
                },
                {
                    "name": "C5",
                    "midi": 72,
                    "time": 211.10528074999803,
                    "velocity": 0.41732283464566927,
                    "duration": 0.15789474999999698
                },
                {
                    "name": "F#5",
                    "midi": 78,
                    "time": 211.26317549999803,
                    "velocity": 0.4409448818897638,
                    "duration": 0.15789474999999698
                },
                {
                    "name": "A4",
                    "midi": 69,
                    "time": 211.42107024999802,
                    "velocity": 0.4015748031496063,
                    "duration": 0.15789474999999698
                },
                {
                    "name": "C5",
                    "midi": 72,
                    "time": 211.57896499999802,
                    "velocity": 0.4251968503937008,
                    "duration": 0.15789474999999698
                },
                {
                    "name": "F#4",
                    "midi": 66,
                    "time": 211.73685974999802,
                    "velocity": 0.3858267716535433,
                    "duration": 0.15789474999999698
                },
                {
                    "name": "A4",
                    "midi": 69,
                    "time": 211.89475449999802,
                    "velocity": 0.4094488188976378,
                    "duration": 0.15789474999999698
                },
                {
                    "name": "C4",
                    "midi": 60,
                    "time": 212.052649249998,
                    "velocity": 0.3779527559055118,
                    "duration": 0.15789474999999698
                },
                {
                    "name": "E5",
                    "midi": 76,
                    "time": 212.210543999998,
                    "velocity": 0.3937007874015748,
                    "duration": 1.5789474999999982
                },
                {
                    "name": "D5",
                    "midi": 74,
                    "time": 213.789491499998,
                    "velocity": 0.3464566929133858,
                    "duration": 0.0789473750000127
                },
                {
                    "name": "C5",
                    "midi": 72,
                    "time": 213.86843887499802,
                    "velocity": 0.3464566929133858,
                    "duration": 0.0789473750000127
                },
                {
                    "name": "B4",
                    "midi": 71,
                    "time": 213.94738624999803,
                    "velocity": 0.3464566929133858,
                    "duration": 0.0789473750000127
                },
                {
                    "name": "A4",
                    "midi": 69,
                    "time": 214.02633362499805,
                    "velocity": 0.3464566929133858,
                    "duration": 0.0789473750000127
                },
                {
                    "name": "G4",
                    "midi": 67,
                    "time": 214.10528099999806,
                    "velocity": 0.3858267716535433,
                    "duration": 0.5526316250000036
                },
                {
                    "name": "B4",
                    "midi": 71,
                    "time": 214.65791262499806,
                    "velocity": 0.3700787401574803,
                    "duration": 0.0789473750000127
                },
                {
                    "name": "A4",
                    "midi": 69,
                    "time": 214.73685999999807,
                    "velocity": 0.3700787401574803,
                    "duration": 0.31578949999999395
                },
                {
                    "name": "D4",
                    "midi": 62,
                    "time": 215.05264949999807,
                    "velocity": 0.3858267716535433,
                    "duration": 0.31578949999999395
                },
                {
                    "name": "D#4",
                    "midi": 63,
                    "time": 215.36843899999806,
                    "velocity": 0.3543307086614173,
                    "duration": 0.15789474999999698
                },
                {
                    "name": "E4",
                    "midi": 64,
                    "time": 215.52633374999806,
                    "velocity": 0.3543307086614173,
                    "duration": 0.15789474999999698
                },
                {
                    "name": "F4",
                    "midi": 65,
                    "time": 215.68422849999806,
                    "velocity": 0.3543307086614173,
                    "duration": 0.15789474999999698
                },
                {
                    "name": "F#4",
                    "midi": 66,
                    "time": 215.84212324999805,
                    "velocity": 0.3543307086614173,
                    "duration": 0.15789474999999698
                },
                {
                    "name": "G4",
                    "midi": 67,
                    "time": 216.00001799999805,
                    "velocity": 0.36220472440944884,
                    "duration": 0.31578949999999395
                },
                {
                    "name": "G4",
                    "midi": 67,
                    "time": 216.31580749999804,
                    "velocity": 0.3543307086614173,
                    "duration": 0.31578949999999395
                },
                {
                    "name": "G4",
                    "midi": 67,
                    "time": 216.63159699999804,
                    "velocity": 0.3543307086614173,
                    "duration": 0.31578949999999395
                },
                {
                    "name": "G4",
                    "midi": 67,
                    "time": 216.94738649999803,
                    "velocity": 0.3543307086614173,
                    "duration": 0.6315789999999879
                },
                {
                    "name": "D4",
                    "midi": 62,
                    "time": 217.57896549999802,
                    "velocity": 0.3543307086614173,
                    "duration": 0.31578950000002237
                },
                {
                    "name": "A4",
                    "midi": 69,
                    "time": 217.57896549999802,
                    "velocity": 0.3543307086614173,
                    "duration": 0.23684212500000967
                },
                {
                    "name": "C5",
                    "midi": 72,
                    "time": 217.81580762499803,
                    "velocity": 0.3543307086614173,
                    "duration": 0.0789473750000127
                },
                {
                    "name": "D4",
                    "midi": 62,
                    "time": 217.89475499999804,
                    "velocity": 0.3858267716535433,
                    "duration": 0.9473684999999819
                },
                {
                    "name": "B4",
                    "midi": 71,
                    "time": 217.89475499999804,
                    "velocity": 0.3858267716535433,
                    "duration": 0.15789474999999698
                },
                {
                    "name": "A#4",
                    "midi": 70,
                    "time": 218.05264974999804,
                    "velocity": 0.3700787401574803,
                    "duration": 0.15789474999999698
                },
                {
                    "name": "B4",
                    "midi": 71,
                    "time": 218.21054449999804,
                    "velocity": 0.3858267716535433,
                    "duration": 0.15789474999999698
                },
                {
                    "name": "A#4",
                    "midi": 70,
                    "time": 218.36843924999803,
                    "velocity": 0.36220472440944884,
                    "duration": 0.15789474999999698
                },
                {
                    "name": "B4",
                    "midi": 71,
                    "time": 218.52633399999803,
                    "velocity": 0.3858267716535433,
                    "duration": 0.15789474999999698
                },
                {
                    "name": "D5",
                    "midi": 74,
                    "time": 218.68422874999803,
                    "velocity": 0.36220472440944884,
                    "duration": 0.15789474999999698
                },
                {
                    "name": "F#4",
                    "midi": 66,
                    "time": 218.84212349999802,
                    "velocity": 0.3464566929133858,
                    "duration": 0.6315789999999879
                },
                {
                    "name": "D4",
                    "midi": 62,
                    "time": 218.84212349999802,
                    "velocity": 0.3464566929133858,
                    "duration": 0.9473684999999819
                },
                {
                    "name": "D5",
                    "midi": 74,
                    "time": 218.84212349999802,
                    "velocity": 0.3858267716535433,
                    "duration": 0.31578949999999395
                },
                {
                    "name": "C5",
                    "midi": 72,
                    "time": 219.15791299999802,
                    "velocity": 0.3543307086614173,
                    "duration": 0.31578949999999395
                },
                {
                    "name": "G4",
                    "midi": 67,
                    "time": 219.473702499998,
                    "velocity": 0.3543307086614173,
                    "duration": 0.31578949999999395
                },
                {
                    "name": "B4",
                    "midi": 71,
                    "time": 219.473702499998,
                    "velocity": 0.3543307086614173,
                    "duration": 0.31578949999999395
                },
                {
                    "name": "G4",
                    "midi": 67,
                    "time": 219.789491999998,
                    "velocity": 0.3700787401574803,
                    "duration": 0.31578949999999395
                },
                {
                    "name": "B4",
                    "midi": 71,
                    "time": 219.789491999998,
                    "velocity": 0.3700787401574803,
                    "duration": 0.31578949999999395
                },
                {
                    "name": "F#4",
                    "midi": 66,
                    "time": 220.105281499998,
                    "velocity": 0.3543307086614173,
                    "duration": 0.31578949999999395
                },
                {
                    "name": "A4",
                    "midi": 69,
                    "time": 220.105281499998,
                    "velocity": 0.3543307086614173,
                    "duration": 0.31578949999999395
                },
                {
                    "name": "F#4",
                    "midi": 66,
                    "time": 220.421070999998,
                    "velocity": 0.3543307086614173,
                    "duration": 0.31578949999999395
                },
                {
                    "name": "A4",
                    "midi": 69,
                    "time": 220.421070999998,
                    "velocity": 0.3543307086614173,
                    "duration": 0.31578949999999395
                },
                {
                    "name": "F#4",
                    "midi": 66,
                    "time": 220.736860499998,
                    "velocity": 0.3543307086614173,
                    "duration": 0.6315789999999879
                },
                {
                    "name": "A4",
                    "midi": 69,
                    "time": 220.736860499998,
                    "velocity": 0.3543307086614173,
                    "duration": 0.6315789999999879
                },
                {
                    "name": "G#4",
                    "midi": 68,
                    "time": 221.36843949999798,
                    "velocity": 0.36220472440944884,
                    "duration": 0.31578949999999395
                },
                {
                    "name": "B4",
                    "midi": 71,
                    "time": 221.36843949999798,
                    "velocity": 0.36220472440944884,
                    "duration": 0.31578949999999395
                },
                {
                    "name": "A4",
                    "midi": 69,
                    "time": 221.68422899999797,
                    "velocity": 0.3858267716535433,
                    "duration": 0.31578949999999395
                },
                {
                    "name": "C5",
                    "midi": 72,
                    "time": 221.68422899999797,
                    "velocity": 0.3858267716535433,
                    "duration": 0.31578949999999395
                },
                {
                    "name": "B4",
                    "midi": 71,
                    "time": 222.00001849999796,
                    "velocity": 0.4015748031496063,
                    "duration": 0.31578949999999395
                },
                {
                    "name": "D5",
                    "midi": 74,
                    "time": 222.00001849999796,
                    "velocity": 0.4015748031496063,
                    "duration": 0.31578949999999395
                },
                {
                    "name": "C5",
                    "midi": 72,
                    "time": 222.31580799999796,
                    "velocity": 0.4015748031496063,
                    "duration": 0.31578949999999395
                },
                {
                    "name": "E5",
                    "midi": 76,
                    "time": 222.31580799999796,
                    "velocity": 0.4015748031496063,
                    "duration": 0.31578949999999395
                },
                {
                    "name": "C5",
                    "midi": 72,
                    "time": 222.63159749999795,
                    "velocity": 0.4015748031496063,
                    "duration": 0.6315789999999879
                },
                {
                    "name": "E5",
                    "midi": 76,
                    "time": 222.63159749999795,
                    "velocity": 0.4015748031496063,
                    "duration": 0.6315789999999879
                },
                {
                    "name": "B4",
                    "midi": 71,
                    "time": 223.26317649999794,
                    "velocity": 0.3700787401574803,
                    "duration": 0.15789474999999698
                },
                {
                    "name": "D5",
                    "midi": 74,
                    "time": 223.26317649999794,
                    "velocity": 0.3700787401574803,
                    "duration": 0.15789474999999698
                },
                {
                    "name": "A4",
                    "midi": 69,
                    "time": 223.42107124999794,
                    "velocity": 0.3700787401574803,
                    "duration": 0.15789474999999698
                },
                {
                    "name": "C5",
                    "midi": 72,
                    "time": 223.42107124999794,
                    "velocity": 0.3700787401574803,
                    "duration": 0.15789474999999698
                },
                {
                    "name": "G4",
                    "midi": 67,
                    "time": 223.57896599999793,
                    "velocity": 0.3858267716535433,
                    "duration": 0.31578949999999395
                },
                {
                    "name": "B4",
                    "midi": 71,
                    "time": 223.57896599999793,
                    "velocity": 0.3858267716535433,
                    "duration": 0.31578949999999395
                },
                {
                    "name": "A4",
                    "midi": 69,
                    "time": 223.89475549999793,
                    "velocity": 0.36220472440944884,
                    "duration": 0.31578949999999395
                },
                {
                    "name": "C5",
                    "midi": 72,
                    "time": 223.89475549999793,
                    "velocity": 0.36220472440944884,
                    "duration": 0.31578949999999395
                },
                {
                    "name": "B4",
                    "midi": 71,
                    "time": 224.21054499999792,
                    "velocity": 0.36220472440944884,
                    "duration": 0.31578949999999395
                },
                {
                    "name": "D5",
                    "midi": 74,
                    "time": 224.21054499999792,
                    "velocity": 0.36220472440944884,
                    "duration": 0.31578949999999395
                },
                {
                    "name": "B3",
                    "midi": 59,
                    "time": 224.52633449999792,
                    "velocity": 0.3700787401574803,
                    "duration": 0.31578949999999395
                },
                {
                    "name": "G4",
                    "midi": 67,
                    "time": 224.52633449999792,
                    "velocity": 0.3700787401574803,
                    "duration": 0.31578949999999395
                },
                {
                    "name": "C4",
                    "midi": 60,
                    "time": 224.8421239999979,
                    "velocity": 0.3543307086614173,
                    "duration": 0.31578949999999395
                },
                {
                    "name": "A4",
                    "midi": 69,
                    "time": 224.8421239999979,
                    "velocity": 0.3543307086614173,
                    "duration": 0.31578949999999395
                },
                {
                    "name": "D4",
                    "midi": 62,
                    "time": 225.1579134999979,
                    "velocity": 0.3543307086614173,
                    "duration": 0.31578949999999395
                },
                {
                    "name": "B4",
                    "midi": 71,
                    "time": 225.1579134999979,
                    "velocity": 0.3543307086614173,
                    "duration": 0.31578949999999395
                },
                {
                    "name": "A4",
                    "midi": 69,
                    "time": 225.4737029999979,
                    "velocity": 0.36220472440944884,
                    "duration": 0.31578949999999395
                },
                {
                    "name": "E4",
                    "midi": 64,
                    "time": 225.6315977499979,
                    "velocity": 0.36220472440944884,
                    "duration": 0.31578949999999395
                },
                {
                    "name": "B4",
                    "midi": 71,
                    "time": 225.7894924999979,
                    "velocity": 0.3543307086614173,
                    "duration": 0.31578949999999395
                },
                {
                    "name": "D4",
                    "midi": 62,
                    "time": 225.9473872499979,
                    "velocity": 0.3543307086614173,
                    "duration": 0.31578949999999395
                },
                {
                    "name": "C5",
                    "midi": 72,
                    "time": 226.10528199999789,
                    "velocity": 0.3543307086614173,
                    "duration": 0.31578949999999395
                },
                {
                    "name": "C4",
                    "midi": 60,
                    "time": 226.26317674999788,
                    "velocity": 0.3543307086614173,
                    "duration": 0.31578949999999395
                },
                {
                    "name": "C5",
                    "midi": 72,
                    "time": 226.42107149999788,
                    "velocity": 0.3543307086614173,
                    "duration": 0.31578949999999395
                },
                {
                    "name": "C4",
                    "midi": 60,
                    "time": 226.57896624999788,
                    "velocity": 0.3543307086614173,
                    "duration": 0.31578949999999395
                },
                {
                    "name": "A4",
                    "midi": 69,
                    "time": 226.73686099999787,
                    "velocity": 0.3543307086614173,
                    "duration": 0.31578949999999395
                },
                {
                    "name": "C4",
                    "midi": 60,
                    "time": 226.89475574999787,
                    "velocity": 0.3543307086614173,
                    "duration": 0.31578949999999395
                },
                {
                    "name": "F#4",
                    "midi": 66,
                    "time": 227.05265049999787,
                    "velocity": 0.33858267716535434,
                    "duration": 0.31578949999999395
                },
                {
                    "name": "C4",
                    "midi": 60,
                    "time": 227.21054524999786,
                    "velocity": 0.3543307086614173,
                    "duration": 1.1052632500000072
                },
                {
                    "name": "A4",
                    "midi": 69,
                    "time": 227.36843999999786,
                    "velocity": 0.3228346456692913,
                    "duration": 0.9473685000000103
                },
                {
                    "name": "B3",
                    "midi": 59,
                    "time": 228.31580849999787,
                    "velocity": 0.2440944881889764,
                    "duration": 0.31578949999999395
                },
                {
                    "name": "G4",
                    "midi": 67,
                    "time": 228.31580849999787,
                    "velocity": 0.2440944881889764,
                    "duration": 0.31578949999999395
                },
                {
                    "name": "D5",
                    "midi": 74,
                    "time": 228.94738749999786,
                    "velocity": 0.3228346456692913,
                    "duration": 0.15789474999999698
                },
                {
                    "name": "D5",
                    "midi": 74,
                    "time": 229.26317699999785,
                    "velocity": 0.3228346456692913,
                    "duration": 0.15789474999999698
                },
                {
                    "name": "D5",
                    "midi": 74,
                    "time": 229.89475599999784,
                    "velocity": 0.3464566929133858,
                    "duration": 0.15789474999999698
                },
                {
                    "name": "D#5",
                    "midi": 75,
                    "time": 230.05265074999784,
                    "velocity": 0.3464566929133858,
                    "duration": 0.15789474999999698
                },
                {
                    "name": "D#5",
                    "midi": 75,
                    "time": 230.21054549999783,
                    "velocity": 0.3543307086614173,
                    "duration": 0.15789474999999698
                },
                {
                    "name": "G5",
                    "midi": 79,
                    "time": 230.84212449999782,
                    "velocity": 0.3858267716535433,
                    "duration": 0.15789474999999698
                },
                {
                    "name": "F#5",
                    "midi": 78,
                    "time": 231.00001924999782,
                    "velocity": 0.36220472440944884,
                    "duration": 0.15789474999999698
                },
                {
                    "name": "F#5",
                    "midi": 78,
                    "time": 231.15791399999782,
                    "velocity": 0.36220472440944884,
                    "duration": 0.15789474999999698
                },
                {
                    "name": "A#5",
                    "midi": 82,
                    "time": 231.7894929999978,
                    "velocity": 0.4645669291338583,
                    "duration": 0.15789474999999698
                },
                {
                    "name": "F#5",
                    "midi": 78,
                    "time": 231.9473877499978,
                    "velocity": 0.4409448818897638,
                    "duration": 0.15789474999999698
                },
                {
                    "name": "G5",
                    "midi": 79,
                    "time": 232.1052824999978,
                    "velocity": 0.4409448818897638,
                    "duration": 0.15789474999999698
                },
                {
                    "name": "A#5",
                    "midi": 82,
                    "time": 232.7368614999978,
                    "velocity": 0.49606299212598426,
                    "duration": 0.15789474999999698
                },
                {
                    "name": "A5",
                    "midi": 81,
                    "time": 232.89475624999778,
                    "velocity": 0.5196850393700787,
                    "duration": 0.15789474999999698
                },
                {
                    "name": "C6",
                    "midi": 84,
                    "time": 233.05265099999778,
                    "velocity": 0.5826771653543307,
                    "duration": 0.4736842499999909
                },
                {
                    "name": "A#5",
                    "midi": 82,
                    "time": 233.52633524999777,
                    "velocity": 0.4881889763779528,
                    "duration": 0.15789474999999698
                },
                {
                    "name": "A5",
                    "midi": 81,
                    "time": 233.68422999999777,
                    "velocity": 0.4881889763779528,
                    "duration": 0.0789473750000127
                },
                {
                    "name": "G5",
                    "midi": 79,
                    "time": 233.76317737499778,
                    "velocity": 0.4881889763779528,
                    "duration": 0.0789473750000127
                },
                {
                    "name": "F5",
                    "midi": 77,
                    "time": 233.8421247499978,
                    "velocity": 0.4881889763779528,
                    "duration": 0.0789473750000127
                },
                {
                    "name": "E5",
                    "midi": 76,
                    "time": 233.9210721249978,
                    "velocity": 0.4881889763779528,
                    "duration": 0.03947368749999214
                },
                {
                    "name": "D5",
                    "midi": 74,
                    "time": 233.9605458124978,
                    "velocity": 0.4881889763779528,
                    "duration": 0.03947368749999214
                },
                {
                    "name": "E6",
                    "midi": 88,
                    "time": 234.31580899999778,
                    "velocity": 0.6929133858267716,
                    "duration": 0.6315789999999879
                },
                {
                    "name": "C#6",
                    "midi": 85,
                    "time": 234.31580899999778,
                    "velocity": 0.6929133858267716,
                    "duration": 0.6315789999999879
                },
                {
                    "name": "A#5",
                    "midi": 82,
                    "time": 234.31580899999778,
                    "velocity": 0.5826771653543307,
                    "duration": 0.6315789999999879
                },
                {
                    "name": "G5",
                    "midi": 79,
                    "time": 234.31580899999778,
                    "velocity": 0.5826771653543307,
                    "duration": 0.6315789999999879
                },
                {
                    "name": "F5",
                    "midi": 77,
                    "time": 235.02633537499779,
                    "velocity": 0.5275590551181102,
                    "duration": 0.0789473750000127
                },
                {
                    "name": "A5",
                    "midi": 81,
                    "time": 235.1052827499978,
                    "velocity": 0.5511811023622047,
                    "duration": 0.0789473750000127
                },
                {
                    "name": "C#6",
                    "midi": 85,
                    "time": 235.1842301249978,
                    "velocity": 0.5590551181102362,
                    "duration": 0.0789473750000127
                },
                {
                    "name": "D6",
                    "midi": 86,
                    "time": 235.26317749999782,
                    "velocity": 0.5669291338582677,
                    "duration": 0.0789473750000127
                },
                {
                    "name": "G5",
                    "midi": 79,
                    "time": 235.34212487499784,
                    "velocity": 0.5590551181102362,
                    "duration": 0.0789473750000127
                },
                {
                    "name": "C#6",
                    "midi": 85,
                    "time": 235.42107224999785,
                    "velocity": 0.5669291338582677,
                    "duration": 0.0789473750000127
                },
                {
                    "name": "D6",
                    "midi": 86,
                    "time": 235.50001962499786,
                    "velocity": 0.5826771653543307,
                    "duration": 0.0789473750000127
                },
                {
                    "name": "E6",
                    "midi": 88,
                    "time": 235.57896699999787,
                    "velocity": 0.5984251968503937,
                    "duration": 0.0789473750000127
                },
                {
                    "name": "A5",
                    "midi": 81,
                    "time": 235.6579143749979,
                    "velocity": 0.5748031496062992,
                    "duration": 0.0789473750000127
                },
                {
                    "name": "D6",
                    "midi": 86,
                    "time": 235.7368617499979,
                    "velocity": 0.5905511811023622,
                    "duration": 0.0789473750000127
                },
                {
                    "name": "E6",
                    "midi": 88,
                    "time": 235.8158091249979,
                    "velocity": 0.6062992125984252,
                    "duration": 0.0789473750000127
                },
                {
                    "name": "F6",
                    "midi": 89,
                    "time": 235.89475649999792,
                    "velocity": 0.7007874015748031,
                    "duration": 0.31578949999999395
                },
                {
                    "name": "D5",
                    "midi": 74,
                    "time": 236.21054599999792,
                    "velocity": 0.5590551181102362,
                    "duration": 0.6315789999999879
                },
                {
                    "name": "F5",
                    "midi": 77,
                    "time": 236.21054599999792,
                    "velocity": 0.6535433070866141,
                    "duration": 0.6315789999999879
                },
                {
                    "name": "B5",
                    "midi": 83,
                    "time": 236.21054599999792,
                    "velocity": 0.6535433070866141,
                    "duration": 0.6315789999999879
                },
                {
                    "name": "A4",
                    "midi": 69,
                    "time": 237.1579144999979,
                    "velocity": 0.4566929133858268,
                    "duration": 0.31578949999999395
                },
                {
                    "name": "A5",
                    "midi": 81,
                    "time": 237.1579144999979,
                    "velocity": 0.5433070866141733,
                    "duration": 0.31578949999999395
                },
                {
                    "name": "F5",
                    "midi": 77,
                    "time": 237.4737039999979,
                    "velocity": 0.44881889763779526,
                    "duration": 0.15789474999999698
                },
                {
                    "name": "D5",
                    "midi": 74,
                    "time": 237.6315987499979,
                    "velocity": 0.44881889763779526,
                    "duration": 0.15789474999999698
                },
                {
                    "name": "A4",
                    "midi": 69,
                    "time": 238.10528299999788,
                    "velocity": 0.4330708661417323,
                    "duration": 0.31578949999999395
                },
                {
                    "name": "G5",
                    "midi": 79,
                    "time": 238.10528299999788,
                    "velocity": 0.5118110236220472,
                    "duration": 0.31578949999999395
                },
                {
                    "name": "E5",
                    "midi": 76,
                    "time": 238.42107249999788,
                    "velocity": 0.4251968503937008,
                    "duration": 0.15789474999999698
                },
                {
                    "name": "C#5",
                    "midi": 73,
                    "time": 238.57896724999787,
                    "velocity": 0.36220472440944884,
                    "duration": 0.13157895833333555
                },
                {
                    "name": "C#5",
                    "midi": 73,
                    "time": 238.73686199999787,
                    "velocity": 0.41732283464566927,
                    "duration": 0.6315789999999879
                },
                {
                    "name": "D5",
                    "midi": 74,
                    "time": 239.36844099999786,
                    "velocity": 0.28346456692913385,
                    "duration": 0.23684212500000967
                },
                {
                    "name": "D5",
                    "midi": 74,
                    "time": 239.68423049999788,
                    "velocity": 0.28346456692913385,
                    "duration": 0.31578949999999395
                },
                {
                    "name": "D5",
                    "midi": 74,
                    "time": 240.31580949999787,
                    "velocity": 0.3228346456692913,
                    "duration": 0.15789474999999698
                },
                {
                    "name": "D5",
                    "midi": 74,
                    "time": 240.63159899999786,
                    "velocity": 0.3228346456692913,
                    "duration": 0.15789474999999698
                },
                {
                    "name": "D5",
                    "midi": 74,
                    "time": 241.26317799999785,
                    "velocity": 0.3464566929133858,
                    "duration": 0.15789474999999698
                },
                {
                    "name": "D#5",
                    "midi": 75,
                    "time": 241.42107274999785,
                    "velocity": 0.3464566929133858,
                    "duration": 0.15789474999999698
                },
                {
                    "name": "D#5",
                    "midi": 75,
                    "time": 241.57896749999784,
                    "velocity": 0.3543307086614173,
                    "duration": 0.15789474999999698
                },
                {
                    "name": "G5",
                    "midi": 79,
                    "time": 242.21054649999783,
                    "velocity": 0.3858267716535433,
                    "duration": 0.15789474999999698
                },
                {
                    "name": "F#5",
                    "midi": 78,
                    "time": 242.36844124999783,
                    "velocity": 0.36220472440944884,
                    "duration": 0.15789474999999698
                },
                {
                    "name": "F#5",
                    "midi": 78,
                    "time": 242.52633599999783,
                    "velocity": 0.36220472440944884,
                    "duration": 0.15789474999999698
                },
                {
                    "name": "A#5",
                    "midi": 82,
                    "time": 243.15791499999781,
                    "velocity": 0.4645669291338583,
                    "duration": 0.15789474999999698
                },
                {
                    "name": "F#5",
                    "midi": 78,
                    "time": 243.3158097499978,
                    "velocity": 0.4409448818897638,
                    "duration": 0.15789474999999698
                },
                {
                    "name": "G5",
                    "midi": 79,
                    "time": 243.4737044999978,
                    "velocity": 0.4409448818897638,
                    "duration": 0.15789474999999698
                },
                {
                    "name": "A#5",
                    "midi": 82,
                    "time": 244.1052834999978,
                    "velocity": 0.49606299212598426,
                    "duration": 0.15789474999999698
                },
                {
                    "name": "A5",
                    "midi": 81,
                    "time": 244.2631782499978,
                    "velocity": 0.5196850393700787,
                    "duration": 0.15789474999999698
                },
                {
                    "name": "C6",
                    "midi": 84,
                    "time": 244.4210729999978,
                    "velocity": 0.5826771653543307,
                    "duration": 0.4736842499999909
                },
                {
                    "name": "A#5",
                    "midi": 82,
                    "time": 244.89475724999778,
                    "velocity": 0.4881889763779528,
                    "duration": 0.15789474999999698
                },
                {
                    "name": "A5",
                    "midi": 81,
                    "time": 245.05265199999778,
                    "velocity": 0.4881889763779528,
                    "duration": 0.0789473750000127
                },
                {
                    "name": "G5",
                    "midi": 79,
                    "time": 245.1315993749978,
                    "velocity": 0.4881889763779528,
                    "duration": 0.0789473750000127
                },
                {
                    "name": "F5",
                    "midi": 77,
                    "time": 245.2105467499978,
                    "velocity": 0.4881889763779528,
                    "duration": 0.0789473750000127
                },
                {
                    "name": "E5",
                    "midi": 76,
                    "time": 245.28949412499782,
                    "velocity": 0.4881889763779528,
                    "duration": 0.03947368749999214
                },
                {
                    "name": "D5",
                    "midi": 74,
                    "time": 245.3289678124978,
                    "velocity": 0.4881889763779528,
                    "duration": 0.03947368749999214
                },
                {
                    "name": "E6",
                    "midi": 88,
                    "time": 245.6842309999978,
                    "velocity": 0.6929133858267716,
                    "duration": 0.6315789999999879
                },
                {
                    "name": "C#6",
                    "midi": 85,
                    "time": 245.6842309999978,
                    "velocity": 0.6929133858267716,
                    "duration": 0.6315789999999879
                },
                {
                    "name": "A#5",
                    "midi": 82,
                    "time": 245.6842309999978,
                    "velocity": 0.5748031496062992,
                    "duration": 0.6315789999999879
                },
                {
                    "name": "G5",
                    "midi": 79,
                    "time": 245.6842309999978,
                    "velocity": 0.5748031496062992,
                    "duration": 0.6315789999999879
                },
                {
                    "name": "F5",
                    "midi": 77,
                    "time": 246.3947573749978,
                    "velocity": 0.5275590551181102,
                    "duration": 0.0789473750000127
                },
                {
                    "name": "A5",
                    "midi": 81,
                    "time": 246.4737047499978,
                    "velocity": 0.5511811023622047,
                    "duration": 0.0789473750000127
                },
                {
                    "name": "C#6",
                    "midi": 85,
                    "time": 246.55265212499782,
                    "velocity": 0.5590551181102362,
                    "duration": 0.0789473750000127
                },
                {
                    "name": "D6",
                    "midi": 86,
                    "time": 246.63159949999783,
                    "velocity": 0.5669291338582677,
                    "duration": 0.0789473750000127
                },
                {
                    "name": "G5",
                    "midi": 79,
                    "time": 246.71054687499785,
                    "velocity": 0.5590551181102362,
                    "duration": 0.0789473750000127
                },
                {
                    "name": "C#6",
                    "midi": 85,
                    "time": 246.78949424999786,
                    "velocity": 0.5669291338582677,
                    "duration": 0.0789473750000127
                },
                {
                    "name": "D6",
                    "midi": 86,
                    "time": 246.86844162499787,
                    "velocity": 0.5826771653543307,
                    "duration": 0.0789473750000127
                },
                {
                    "name": "E6",
                    "midi": 88,
                    "time": 246.94738899999788,
                    "velocity": 0.5984251968503937,
                    "duration": 0.0789473750000127
                },
                {
                    "name": "A5",
                    "midi": 81,
                    "time": 247.0263363749979,
                    "velocity": 0.5748031496062992,
                    "duration": 0.0789473750000127
                },
                {
                    "name": "D6",
                    "midi": 86,
                    "time": 247.1052837499979,
                    "velocity": 0.5905511811023622,
                    "duration": 0.0789473750000127
                },
                {
                    "name": "E6",
                    "midi": 88,
                    "time": 247.18423112499792,
                    "velocity": 0.6062992125984252,
                    "duration": 0.0789473750000127
                },
                {
                    "name": "F6",
                    "midi": 89,
                    "time": 247.26317849999793,
                    "velocity": 0.7007874015748031,
                    "duration": 0.31578949999999395
                },
                {
                    "name": "D5",
                    "midi": 74,
                    "time": 247.57896799999793,
                    "velocity": 0.5590551181102362,
                    "duration": 0.6315789999999879
                },
                {
                    "name": "F5",
                    "midi": 77,
                    "time": 247.57896799999793,
                    "velocity": 0.6535433070866141,
                    "duration": 0.6315789999999879
                },
                {
                    "name": "B5",
                    "midi": 83,
                    "time": 247.57896799999793,
                    "velocity": 0.6535433070866141,
                    "duration": 0.6315789999999879
                },
                {
                    "name": "A4",
                    "midi": 69,
                    "time": 248.5263364999979,
                    "velocity": 0.4645669291338583,
                    "duration": 0.31578949999999395
                },
                {
                    "name": "A5",
                    "midi": 81,
                    "time": 248.5263364999979,
                    "velocity": 0.5511811023622047,
                    "duration": 0.31578949999999395
                },
                {
                    "name": "F5",
                    "midi": 77,
                    "time": 248.8421259999979,
                    "velocity": 0.44881889763779526,
                    "duration": 0.15789474999999698
                },
                {
                    "name": "D5",
                    "midi": 74,
                    "time": 249.0000207499979,
                    "velocity": 0.44881889763779526,
                    "duration": 0.15789474999999698
                },
                {
                    "name": "A4",
                    "midi": 69,
                    "time": 249.4737049999979,
                    "velocity": 0.4251968503937008,
                    "duration": 0.31578949999999395
                },
                {
                    "name": "G5",
                    "midi": 79,
                    "time": 249.4737049999979,
                    "velocity": 0.5039370078740157,
                    "duration": 0.31578949999999395
                },
                {
                    "name": "E5",
                    "midi": 76,
                    "time": 249.7894944999979,
                    "velocity": 0.4251968503937008,
                    "duration": 0.15789474999999698
                },
                {
                    "name": "C#5",
                    "midi": 73,
                    "time": 249.94738924999788,
                    "velocity": 0.3779527559055118,
                    "duration": 0.15789474999999698
                },
                {
                    "name": "C#5",
                    "midi": 73,
                    "time": 250.10528399999788,
                    "velocity": 0.4330708661417323,
                    "duration": 0.6315789999999879
                },
                {
                    "name": "D5",
                    "midi": 74,
                    "time": 250.73686299999787,
                    "velocity": 0.28346456692913385,
                    "duration": 0.23684212500000967
                },
                {
                    "name": "D5",
                    "midi": 74,
                    "time": 251.0526524999979,
                    "velocity": 0.28346456692913385,
                    "duration": 0.31578949999999395
                },
                {
                    "name": "D5",
                    "midi": 74,
                    "time": 251.68423149999788,
                    "velocity": 0.28346456692913385,
                    "duration": 0.15789474999999698
                },
                {
                    "name": "D5",
                    "midi": 74,
                    "time": 252.00002099999787,
                    "velocity": 0.29133858267716534,
                    "duration": 0.15789474999999698
                },
                {
                    "name": "G4",
                    "midi": 67,
                    "time": 252.63159999999786,
                    "velocity": 0.29133858267716534,
                    "duration": 0.31578949999999395
                },
                {
                    "name": "C5",
                    "midi": 72,
                    "time": 252.94738949999785,
                    "velocity": 0.30708661417322836,
                    "duration": 0.31578949999999395
                },
                {
                    "name": "F#4",
                    "midi": 66,
                    "time": 253.57896849999784,
                    "velocity": 0.29133858267716534,
                    "duration": 0.31578949999999395
                },
                {
                    "name": "A#4",
                    "midi": 70,
                    "time": 253.89475799999784,
                    "velocity": 0.30708661417322836,
                    "duration": 0.31578949999999395
                },
                {
                    "name": "C#4",
                    "midi": 61,
                    "time": 254.52633699999782,
                    "velocity": 0.3464566929133858,
                    "duration": 0.31578949999999395
                },
                {
                    "name": "D4",
                    "midi": 62,
                    "time": 254.84212649999782,
                    "velocity": 0.3543307086614173,
                    "duration": 0.31578949999999395
                },
                {
                    "name": "G4",
                    "midi": 67,
                    "time": 255.4737054999978,
                    "velocity": 0.5511811023622047,
                    "duration": 0.15789474999999698
                },
                {
                    "name": "G5",
                    "midi": 79,
                    "time": 255.6316002499978,
                    "velocity": 0.49606299212598426,
                    "duration": 0.15789474999999698
                },
                {
                    "name": "A4",
                    "midi": 69,
                    "time": 255.7894949999978,
                    "velocity": 0.5354330708661418,
                    "duration": 0.15789474999999698
                },
                {
                    "name": "G5",
                    "midi": 79,
                    "time": 255.9473897499978,
                    "velocity": 0.49606299212598426,
                    "duration": 0.1578947500000254
                },
                {
                    "name": "F#5",
                    "midi": 78,
                    "time": 256.1052844999978,
                    "velocity": 0.49606299212598426,
                    "duration": 0.1578947500000254
                },
                {
                    "name": "A4",
                    "midi": 69,
                    "time": 256.26317924999785,
                    "velocity": 0.49606299212598426,
                    "duration": 0.1578947500000254
                },
                {
                    "name": "G4",
                    "midi": 67,
                    "time": 256.4210739999979,
                    "velocity": 0.5275590551181102,
                    "duration": 0.1578947500000254
                },
                {
                    "name": "G5",
                    "midi": 79,
                    "time": 256.5789687499979,
                    "velocity": 0.49606299212598426,
                    "duration": 0.1578947500000254
                },
                {
                    "name": "A4",
                    "midi": 69,
                    "time": 256.7368634999979,
                    "velocity": 0.5039370078740157,
                    "duration": 0.1578947500000254
                },
                {
                    "name": "G5",
                    "midi": 79,
                    "time": 256.89475824999795,
                    "velocity": 0.5039370078740157,
                    "duration": 0.1578947500000254
                },
                {
                    "name": "F#5",
                    "midi": 78,
                    "time": 257.052652999998,
                    "velocity": 0.5039370078740157,
                    "duration": 0.1578947500000254
                },
                {
                    "name": "A4",
                    "midi": 69,
                    "time": 257.210547749998,
                    "velocity": 0.5039370078740157,
                    "duration": 0.1578947500000254
                },
                {
                    "name": "G4",
                    "midi": 67,
                    "time": 257.368442499998,
                    "velocity": 0.5511811023622047,
                    "duration": 0.1578947500000254
                },
                {
                    "name": "G5",
                    "midi": 79,
                    "time": 257.52633724999805,
                    "velocity": 0.5511811023622047,
                    "duration": 0.1578947500000254
                },
                {
                    "name": "D#5",
                    "midi": 75,
                    "time": 257.6842319999981,
                    "velocity": 0.6062992125984252,
                    "duration": 0.1578947500000254
                },
                {
                    "name": "D#6",
                    "midi": 87,
                    "time": 257.8421267499981,
                    "velocity": 0.5433070866141733,
                    "duration": 0.1578947500000254
                },
                {
                    "name": "D5",
                    "midi": 74,
                    "time": 258.0000214999981,
                    "velocity": 0.5826771653543307,
                    "duration": 0.1578947500000254
                },
                {
                    "name": "D6",
                    "midi": 86,
                    "time": 258.15791624999815,
                    "velocity": 0.5196850393700787,
                    "duration": 0.1578947500000254
                },
                {
                    "name": "C5",
                    "midi": 72,
                    "time": 258.3158109999982,
                    "velocity": 0.5196850393700787,
                    "duration": 0.1578947500000254
                },
                {
                    "name": "C6",
                    "midi": 84,
                    "time": 258.4737057499982,
                    "velocity": 0.49606299212598426,
                    "duration": 0.31578949999999395
                },
                {
                    "name": "A#5",
                    "midi": 82,
                    "time": 258.7894952499982,
                    "velocity": 0.48031496062992124,
                    "duration": 0.1578947500000254
                },
                {
                    "name": "A5",
                    "midi": 81,
                    "time": 258.9473899999982,
                    "velocity": 0.48031496062992124,
                    "duration": 0.1578947500000254
                },
                {
                    "name": "G5",
                    "midi": 79,
                    "time": 259.10528474999825,
                    "velocity": 0.48031496062992124,
                    "duration": 0.1578947500000254
                },
                {
                    "name": "F#5",
                    "midi": 78,
                    "time": 259.2631794999983,
                    "velocity": 0.48031496062992124,
                    "duration": 0.1578947500000254
                },
                {
                    "name": "G5",
                    "midi": 79,
                    "time": 259.4210742499983,
                    "velocity": 0.4645669291338583,
                    "duration": 0.1578947500000254
                },
                {
                    "name": "F5",
                    "midi": 77,
                    "time": 259.5789689999983,
                    "velocity": 0.44881889763779526,
                    "duration": 0.1578947500000254
                },
                {
                    "name": "D#5",
                    "midi": 75,
                    "time": 259.73686374999835,
                    "velocity": 0.4251968503937008,
                    "duration": 0.1578947500000254
                },
                {
                    "name": "D5",
                    "midi": 74,
                    "time": 259.8947584999984,
                    "velocity": 0.41732283464566927,
                    "duration": 0.1578947500000254
                },
                {
                    "name": "C5",
                    "midi": 72,
                    "time": 260.0526532499984,
                    "velocity": 0.4015748031496063,
                    "duration": 0.1578947500000254
                },
                {
                    "name": "A#4",
                    "midi": 70,
                    "time": 260.2105479999984,
                    "velocity": 0.3779527559055118,
                    "duration": 0.1578947500000254
                },
                {
                    "name": "A4",
                    "midi": 69,
                    "time": 260.36844274999845,
                    "velocity": 0.36220472440944884,
                    "duration": 0.1578947500000254
                },
                {
                    "name": "G4",
                    "midi": 67,
                    "time": 260.5263374999985,
                    "velocity": 0.33070866141732286,
                    "duration": 0.47368425000001935
                },
                {
                    "name": "A4",
                    "midi": 69,
                    "time": 261.0000217499985,
                    "velocity": 0.30708661417322836,
                    "duration": 0.1578947500000254
                },
                {
                    "name": "F#4",
                    "midi": 66,
                    "time": 261.1579164999985,
                    "velocity": 0.30708661417322836,
                    "duration": 0.31578949999999395
                },
                {
                    "name": "G4",
                    "midi": 67,
                    "time": 262.1052849999985,
                    "velocity": 0.2440944881889764,
                    "duration": 0.1578947500000254
                },
                {
                    "name": "G4",
                    "midi": 67,
                    "time": 262.42107449999855,
                    "velocity": 0.2440944881889764,
                    "duration": 0.1578947500000254
                },
                {
                    "name": "D5",
                    "midi": 74,
                    "time": 263.0526534999986,
                    "velocity": 0.28346456692913385,
                    "duration": 0.1578947500000254
                },
                {
                    "name": "D5",
                    "midi": 74,
                    "time": 263.36844299999865,
                    "velocity": 0.29133858267716534,
                    "duration": 0.1578947500000254
                },
                {
                    "name": "G4",
                    "midi": 67,
                    "time": 264.0000219999987,
                    "velocity": 0.29133858267716534,
                    "duration": 0.31578949999999395
                },
                {
                    "name": "C5",
                    "midi": 72,
                    "time": 264.3158114999987,
                    "velocity": 0.30708661417322836,
                    "duration": 0.31578949999999395
                },
                {
                    "name": "F#4",
                    "midi": 66,
                    "time": 264.9473904999987,
                    "velocity": 0.29133858267716534,
                    "duration": 0.31578949999999395
                },
                {
                    "name": "A#4",
                    "midi": 70,
                    "time": 265.26317999999867,
                    "velocity": 0.30708661417322836,
                    "duration": 0.31578949999999395
                },
                {
                    "name": "C#4",
                    "midi": 61,
                    "time": 265.89475899999866,
                    "velocity": 0.3464566929133858,
                    "duration": 0.31578949999999395
                },
                {
                    "name": "D4",
                    "midi": 62,
                    "time": 266.21054849999865,
                    "velocity": 0.3543307086614173,
                    "duration": 0.31578949999999395
                },
                {
                    "name": "G4",
                    "midi": 67,
                    "time": 266.84212749999864,
                    "velocity": 0.5511811023622047,
                    "duration": 0.1578947500000254
                },
                {
                    "name": "G5",
                    "midi": 79,
                    "time": 267.00002224999866,
                    "velocity": 0.49606299212598426,
                    "duration": 0.1578947500000254
                },
                {
                    "name": "A4",
                    "midi": 69,
                    "time": 267.1579169999987,
                    "velocity": 0.5354330708661418,
                    "duration": 0.1578947500000254
                },
                {
                    "name": "G5",
                    "midi": 79,
                    "time": 267.3158117499987,
                    "velocity": 0.49606299212598426,
                    "duration": 0.1578947500000254
                },
                {
                    "name": "F#5",
                    "midi": 78,
                    "time": 267.47370649999874,
                    "velocity": 0.49606299212598426,
                    "duration": 0.1578947500000254
                },
                {
                    "name": "A4",
                    "midi": 69,
                    "time": 267.63160124999877,
                    "velocity": 0.49606299212598426,
                    "duration": 0.1578947500000254
                },
                {
                    "name": "G4",
                    "midi": 67,
                    "time": 267.7894959999988,
                    "velocity": 0.5275590551181102,
                    "duration": 0.1578947500000254
                },
                {
                    "name": "G5",
                    "midi": 79,
                    "time": 267.9473907499988,
                    "velocity": 0.5275590551181102,
                    "duration": 0.1578947500000254
                },
                {
                    "name": "A4",
                    "midi": 69,
                    "time": 268.10528549999884,
                    "velocity": 0.5039370078740157,
                    "duration": 0.1578947500000254
                },
                {
                    "name": "G5",
                    "midi": 79,
                    "time": 268.26318024999887,
                    "velocity": 0.5039370078740157,
                    "duration": 0.1578947500000254
                },
                {
                    "name": "F#5",
                    "midi": 78,
                    "time": 268.4210749999989,
                    "velocity": 0.5039370078740157,
                    "duration": 0.1578947500000254
                },
                {
                    "name": "A4",
                    "midi": 69,
                    "time": 268.5789697499989,
                    "velocity": 0.5039370078740157,
                    "duration": 0.1578947500000254
                },
                {
                    "name": "G4",
                    "midi": 67,
                    "time": 268.73686449999894,
                    "velocity": 0.5511811023622047,
                    "duration": 0.1578947500000254
                },
                {
                    "name": "G5",
                    "midi": 79,
                    "time": 268.89475924999897,
                    "velocity": 0.5511811023622047,
                    "duration": 0.1578947500000254
                },
                {
                    "name": "D#5",
                    "midi": 75,
                    "time": 269.052653999999,
                    "velocity": 0.5905511811023622,
                    "duration": 0.1578947500000254
                },
                {
                    "name": "D#6",
                    "midi": 87,
                    "time": 269.210548749999,
                    "velocity": 0.5275590551181102,
                    "duration": 0.1578947500000254
                },
                {
                    "name": "D5",
                    "midi": 74,
                    "time": 269.36844349999905,
                    "velocity": 0.5826771653543307,
                    "duration": 0.1578947500000254
                },
                {
                    "name": "D6",
                    "midi": 86,
                    "time": 269.52633824999907,
                    "velocity": 0.5039370078740157,
                    "duration": 0.1578947500000254
                },
                {
                    "name": "C5",
                    "midi": 72,
                    "time": 269.6842329999991,
                    "velocity": 0.5039370078740157,
                    "duration": 0.1578947500000254
                },
                {
                    "name": "C6",
                    "midi": 84,
                    "time": 269.8421277499991,
                    "velocity": 0.47244094488188976,
                    "duration": 0.31578949999999395
                },
                {
                    "name": "A#5",
                    "midi": 82,
                    "time": 270.1579172499991,
                    "velocity": 0.44881889763779526,
                    "duration": 0.1578947500000254
                },
                {
                    "name": "A5",
                    "midi": 81,
                    "time": 270.31581199999914,
                    "velocity": 0.44881889763779526,
                    "duration": 0.1578947500000254
                },
                {
                    "name": "G5",
                    "midi": 79,
                    "time": 270.47370674999917,
                    "velocity": 0.44881889763779526,
                    "duration": 0.1578947500000254
                },
                {
                    "name": "F#5",
                    "midi": 78,
                    "time": 270.6316014999992,
                    "velocity": 0.44881889763779526,
                    "duration": 0.1578947500000254
                },
                {
                    "name": "G5",
                    "midi": 79,
                    "time": 270.7894962499992,
                    "velocity": 0.4409448818897638,
                    "duration": 0.1578947500000254
                },
                {
                    "name": "F5",
                    "midi": 77,
                    "time": 270.94739099999924,
                    "velocity": 0.4330708661417323,
                    "duration": 0.1578947500000254
                },
                {
                    "name": "D#5",
                    "midi": 75,
                    "time": 271.10528574999927,
                    "velocity": 0.4251968503937008,
                    "duration": 0.1578947500000254
                },
                {
                    "name": "D5",
                    "midi": 74,
                    "time": 271.2631804999993,
                    "velocity": 0.4094488188976378,
                    "duration": 0.1578947500000254
                },
                {
                    "name": "C5",
                    "midi": 72,
                    "time": 271.4210752499993,
                    "velocity": 0.3858267716535433,
                    "duration": 0.1578947500000254
                },
                {
                    "name": "A#4",
                    "midi": 70,
                    "time": 271.57896999999934,
                    "velocity": 0.3543307086614173,
                    "duration": 0.1578947500000254
                },
                {
                    "name": "A4",
                    "midi": 69,
                    "time": 271.73686474999937,
                    "velocity": 0.3464566929133858,
                    "duration": 0.1578947500000254
                },
                {
                    "name": "G4",
                    "midi": 67,
                    "time": 271.8947594999994,
                    "velocity": 0.33070866141732286,
                    "duration": 0.47368425000001935
                },
                {
                    "name": "A4",
                    "midi": 69,
                    "time": 272.3684437499994,
                    "velocity": 0.30708661417322836,
                    "duration": 0.1578947500000254
                },
                {
                    "name": "F#4",
                    "midi": 66,
                    "time": 272.52633849999944,
                    "velocity": 0.30708661417322836,
                    "duration": 0.31578949999999395
                },
                {
                    "name": "G4",
                    "midi": 67,
                    "time": 273.4737069999994,
                    "velocity": 0.2440944881889764,
                    "duration": 0.1578947500000254
                },
                {
                    "name": "G4",
                    "midi": 67,
                    "time": 273.7894964999995,
                    "velocity": 0.2440944881889764,
                    "duration": 0.1578947500000254
                },
                {
                    "name": "G4",
                    "midi": 67,
                    "time": 274.4210754999995,
                    "velocity": 0.3464566929133858,
                    "duration": 0.31578949999999395
                },
                {
                    "name": "G4",
                    "midi": 67,
                    "time": 274.7368649999995,
                    "velocity": 0.3543307086614173,
                    "duration": 0.5526316250000036
                },
                {
                    "name": "B4",
                    "midi": 71,
                    "time": 275.2894966249995,
                    "velocity": 0.33070866141732286,
                    "duration": 0.07894737499998428
                },
                {
                    "name": "A4",
                    "midi": 69,
                    "time": 275.3684439999995,
                    "velocity": 0.3543307086614173,
                    "duration": 0.31578949999999395
                },
                {
                    "name": "D4",
                    "midi": 62,
                    "time": 275.6842334999995,
                    "velocity": 0.3543307086614173,
                    "duration": 0.31578949999999395
                },
                {
                    "name": "F#4",
                    "midi": 66,
                    "time": 276.0000229999995,
                    "velocity": 0.3779527559055118,
                    "duration": 0.1578947500000254
                },
                {
                    "name": "E4",
                    "midi": 64,
                    "time": 276.1579177499995,
                    "velocity": 0.33858267716535434,
                    "duration": 0.14473685416669468
                },
                {
                    "name": "G4",
                    "midi": 67,
                    "time": 276.31581249999954,
                    "velocity": 0.3937007874015748,
                    "duration": 0.1578947500000254
                },
                {
                    "name": "F#4",
                    "midi": 66,
                    "time": 276.47370724999956,
                    "velocity": 0.3543307086614173,
                    "duration": 0.14473685416669468
                },
                {
                    "name": "A4",
                    "midi": 69,
                    "time": 276.6316019999996,
                    "velocity": 0.4094488188976378,
                    "duration": 0.1578947500000254
                },
                {
                    "name": "G4",
                    "midi": 67,
                    "time": 276.7894967499996,
                    "velocity": 0.3779527559055118,
                    "duration": 0.14473685416669468
                },
                {
                    "name": "C5",
                    "midi": 72,
                    "time": 276.94739149999964,
                    "velocity": 0.4251968503937008,
                    "duration": 0.1578947500000254
                },
                {
                    "name": "B4",
                    "midi": 71,
                    "time": 277.10528624999966,
                    "velocity": 0.3937007874015748,
                    "duration": 0.14473685416669468
                },
                {
                    "name": "D5",
                    "midi": 74,
                    "time": 277.2631809999997,
                    "velocity": 0.4330708661417323,
                    "duration": 0.1578947500000254
                },
                {
                    "name": "B4",
                    "midi": 71,
                    "time": 277.4210757499997,
                    "velocity": 0.4015748031496063,
                    "duration": 0.14473685416669468
                },
                {
                    "name": "G4",
                    "midi": 67,
                    "time": 277.57897049999974,
                    "velocity": 0.3858267716535433,
                    "duration": 0.6315789999999879
                },
                {
                    "name": "D4",
                    "midi": 62,
                    "time": 278.21054949999973,
                    "velocity": 0.4015748031496063,
                    "duration": 0.31578949999999395
                },
                {
                    "name": "A4",
                    "midi": 69,
                    "time": 278.21054949999973,
                    "velocity": 0.4015748031496063,
                    "duration": 0.31578949999999395
                },
                {
                    "name": "D4",
                    "midi": 62,
                    "time": 278.5263389999997,
                    "velocity": 0.4015748031496063,
                    "duration": 0.9473685000000955
                },
                {
                    "name": "A#4",
                    "midi": 70,
                    "time": 278.5263389999997,
                    "velocity": 0.4015748031496063,
                    "duration": 0.1578947500000254
                },
                {
                    "name": "B4",
                    "midi": 71,
                    "time": 278.68423374999975,
                    "velocity": 0.4251968503937008,
                    "duration": 0.1578947500000254
                },
                {
                    "name": "C5",
                    "midi": 72,
                    "time": 278.8421284999998,
                    "velocity": 0.4566929133858268,
                    "duration": 0.1578947500000254
                },
                {
                    "name": "C#5",
                    "midi": 73,
                    "time": 279.0000232499998,
                    "velocity": 0.48031496062992124,
                    "duration": 0.1578947500000254
                },
                {
                    "name": "D5",
                    "midi": 74,
                    "time": 279.1579179999998,
                    "velocity": 0.5039370078740157,
                    "duration": 0.31578949999999395
                },
                {
                    "name": "F#4",
                    "midi": 66,
                    "time": 279.4737074999998,
                    "velocity": 0.4330708661417323,
                    "duration": 0.6315789999999879
                },
                {
                    "name": "D4",
                    "midi": 62,
                    "time": 279.4737074999998,
                    "velocity": 0.4330708661417323,
                    "duration": 0.9473684999999819
                },
                {
                    "name": "D5",
                    "midi": 74,
                    "time": 279.4737074999998,
                    "velocity": 0.4330708661417323,
                    "duration": 0.31578949999999395
                },
                {
                    "name": "C5",
                    "midi": 72,
                    "time": 279.7894969999998,
                    "velocity": 0.4409448818897638,
                    "duration": 0.31578949999999395
                },
                {
                    "name": "G4",
                    "midi": 67,
                    "time": 280.1052864999998,
                    "velocity": 0.3937007874015748,
                    "duration": 0.31578949999999395
                },
                {
                    "name": "B4",
                    "midi": 71,
                    "time": 280.1052864999998,
                    "velocity": 0.3937007874015748,
                    "duration": 0.31578949999999395
                },
                {
                    "name": "G4",
                    "midi": 67,
                    "time": 280.4210759999998,
                    "velocity": 0.4409448818897638,
                    "duration": 0.31578949999999395
                },
                {
                    "name": "B4",
                    "midi": 71,
                    "time": 280.4210759999998,
                    "velocity": 0.4409448818897638,
                    "duration": 0.31578949999999395
                },
                {
                    "name": "F#4",
                    "midi": 66,
                    "time": 280.7368654999998,
                    "velocity": 0.4251968503937008,
                    "duration": 0.31578949999999395
                },
                {
                    "name": "A4",
                    "midi": 69,
                    "time": 280.7368654999998,
                    "velocity": 0.4251968503937008,
                    "duration": 0.31578949999999395
                },
                {
                    "name": "F#4",
                    "midi": 66,
                    "time": 281.0526549999998,
                    "velocity": 0.4251968503937008,
                    "duration": 0.31578949999999395
                },
                {
                    "name": "A4",
                    "midi": 69,
                    "time": 281.0526549999998,
                    "velocity": 0.4251968503937008,
                    "duration": 0.31578949999999395
                },
                {
                    "name": "F#4",
                    "midi": 66,
                    "time": 281.3684444999998,
                    "velocity": 0.4251968503937008,
                    "duration": 0.6315789999999879
                },
                {
                    "name": "A4",
                    "midi": 69,
                    "time": 281.3684444999998,
                    "velocity": 0.4251968503937008,
                    "duration": 0.6315789999999879
                },
                {
                    "name": "G#4",
                    "midi": 68,
                    "time": 282.00002349999977,
                    "velocity": 0.4330708661417323,
                    "duration": 0.31578949999999395
                },
                {
                    "name": "B4",
                    "midi": 71,
                    "time": 282.00002349999977,
                    "velocity": 0.4330708661417323,
                    "duration": 0.31578949999999395
                },
                {
                    "name": "C5",
                    "midi": 72,
                    "time": 282.31581299999976,
                    "velocity": 0.44881889763779526,
                    "duration": 0.07894737499998428
                },
                {
                    "name": "A4",
                    "midi": 69,
                    "time": 282.39476037499975,
                    "velocity": 0.4645669291338583,
                    "duration": 0.07894737499998428
                },
                {
                    "name": "B4",
                    "midi": 71,
                    "time": 282.47370774999973,
                    "velocity": 0.47244094488188976,
                    "duration": 0.07894737499998428
                },
                {
                    "name": "C5",
                    "midi": 72,
                    "time": 282.5526551249997,
                    "velocity": 0.48031496062992124,
                    "duration": 0.07894737499998428
                },
                {
                    "name": "D5",
                    "midi": 74,
                    "time": 282.6316024999997,
                    "velocity": 0.49606299212598426,
                    "duration": 0.07894737499998428
                },
                {
                    "name": "E5",
                    "midi": 76,
                    "time": 282.7105498749997,
                    "velocity": 0.49606299212598426,
                    "duration": 0.07894737499998428
                },
                {
                    "name": "F#5",
                    "midi": 78,
                    "time": 282.78949724999967,
                    "velocity": 0.5118110236220472,
                    "duration": 0.07894737499998428
                },
                {
                    "name": "G#5",
                    "midi": 80,
                    "time": 282.86844462499965,
                    "velocity": 0.5196850393700787,
                    "duration": 0.07894737499998428
                },
                {
                    "name": "A5",
                    "midi": 81,
                    "time": 282.94739199999964,
                    "velocity": 0.5275590551181102,
                    "duration": 0.07894737499998428
                },
                {
                    "name": "B5",
                    "midi": 83,
                    "time": 283.0263393749996,
                    "velocity": 0.5354330708661418,
                    "duration": 0.07894737499998428
                },
                {
                    "name": "C6",
                    "midi": 84,
                    "time": 283.1052867499996,
                    "velocity": 0.5511811023622047,
                    "duration": 0.07894737499998428
                },
                {
                    "name": "D6",
                    "midi": 86,
                    "time": 283.1842341249996,
                    "velocity": 0.5590551181102362,
                    "duration": 0.07894737499998428
                },
                {
                    "name": "C6",
                    "midi": 84,
                    "time": 283.2631814999996,
                    "velocity": 0.5669291338582677,
                    "duration": 0.31578949999999395
                },
                {
                    "name": "E6",
                    "midi": 88,
                    "time": 283.2631814999996,
                    "velocity": 0.5669291338582677,
                    "duration": 0.31578949999999395
                },
                {
                    "name": "B5",
                    "midi": 83,
                    "time": 283.57897099999957,
                    "velocity": 0.48031496062992124,
                    "duration": 0.31578949999999395
                },
                {
                    "name": "D6",
                    "midi": 86,
                    "time": 283.57897099999957,
                    "velocity": 0.48031496062992124,
                    "duration": 0.31578949999999395
                },
                {
                    "name": "A5",
                    "midi": 81,
                    "time": 283.89476049999956,
                    "velocity": 0.48031496062992124,
                    "duration": 0.6315789999999879
                },
                {
                    "name": "C6",
                    "midi": 84,
                    "time": 283.89476049999956,
                    "velocity": 0.48031496062992124,
                    "duration": 0.1578947500000254
                },
                {
                    "name": "D6",
                    "midi": 86,
                    "time": 284.0526552499996,
                    "velocity": 0.48031496062992124,
                    "duration": 0.05263158333332285
                },
                {
                    "name": "C6",
                    "midi": 84,
                    "time": 284.1052868333329,
                    "velocity": 0.48031496062992124,
                    "duration": 0.05263158333332285
                },
                {
                    "name": "B5",
                    "midi": 83,
                    "time": 284.15791841666623,
                    "velocity": 0.48031496062992124,
                    "duration": 0.05263158333332285
                },
                {
                    "name": "C6",
                    "midi": 84,
                    "time": 284.21054999999956,
                    "velocity": 0.49606299212598426,
                    "duration": 0.31578949999999395
                },
                {
                    "name": "G5",
                    "midi": 79,
                    "time": 284.52633949999955,
                    "velocity": 0.47244094488188976,
                    "duration": 0.31578949999999395
                },
                {
                    "name": "B5",
                    "midi": 83,
                    "time": 284.52633949999955,
                    "velocity": 0.47244094488188976,
                    "duration": 0.31578949999999395
                },
                {
                    "name": "D6",
                    "midi": 86,
                    "time": 284.84212899999955,
                    "velocity": 0.4645669291338583,
                    "duration": 0.23684212500000967
                },
                {
                    "name": "E6",
                    "midi": 88,
                    "time": 285.07897112499955,
                    "velocity": 0.3937007874015748,
                    "duration": 0.07894737499998428
                },
                {
                    "name": "D6",
                    "midi": 86,
                    "time": 285.15791849999954,
                    "velocity": 0.4645669291338583,
                    "duration": 0.1578947500000254
                },
                {
                    "name": "C6",
                    "midi": 84,
                    "time": 285.31581324999956,
                    "velocity": 0.4330708661417323,
                    "duration": 0.05921053125001663
                },
                {
                    "name": "D6",
                    "midi": 86,
                    "time": 285.3947606249996,
                    "velocity": 0.3858267716535433,
                    "duration": 0.07894737499998428
                },
                {
                    "name": "C6",
                    "midi": 84,
                    "time": 285.4737079999996,
                    "velocity": 0.4645669291338583,
                    "duration": 0.1578947500000254
                },
                {
                    "name": "B5",
                    "midi": 83,
                    "time": 285.6316027499996,
                    "velocity": 0.4330708661417323,
                    "duration": 0.05921053125001663
                },
                {
                    "name": "C6",
                    "midi": 84,
                    "time": 285.71055012499966,
                    "velocity": 0.3937007874015748,
                    "duration": 0.07894737499998428
                },
                {
                    "name": "B5",
                    "midi": 83,
                    "time": 285.78949749999964,
                    "velocity": 0.4645669291338583,
                    "duration": 0.1578947500000254
                },
                {
                    "name": "A5",
                    "midi": 81,
                    "time": 285.94739224999967,
                    "velocity": 0.4330708661417323,
                    "duration": 0.05921053125001663
                },
                {
                    "name": "B5",
                    "midi": 83,
                    "time": 286.0263396249997,
                    "velocity": 0.3937007874015748,
                    "duration": 0.07894737499998428
                },
                {
                    "name": "A5",
                    "midi": 81,
                    "time": 286.1052869999997,
                    "velocity": 0.4645669291338583,
                    "duration": 0.1578947500000254
                },
                {
                    "name": "G5",
                    "midi": 79,
                    "time": 286.2631817499997,
                    "velocity": 0.4330708661417323,
                    "duration": 0.05921053125001663
                },
                {
                    "name": "A5",
                    "midi": 81,
                    "time": 286.34212912499976,
                    "velocity": 0.3937007874015748,
                    "duration": 0.07894737499998428
                },
                {
                    "name": "G5",
                    "midi": 79,
                    "time": 286.42107649999974,
                    "velocity": 0.4645669291338583,
                    "duration": 0.1578947500000254
                },
                {
                    "name": "F#5",
                    "midi": 78,
                    "time": 286.57897124999977,
                    "velocity": 0.4251968503937008,
                    "duration": 0.31578949999999395
                },
                {
                    "name": "A5",
                    "midi": 81,
                    "time": 286.89476074999976,
                    "velocity": 0.4645669291338583,
                    "duration": 0.31578949999999395
                },
                {
                    "name": "G5",
                    "midi": 79,
                    "time": 287.21055024999976,
                    "velocity": 0.4409448818897638,
                    "duration": 0.31578949999999395
                },
                {
                    "name": "E5",
                    "midi": 76,
                    "time": 287.52633974999975,
                    "velocity": 0.4094488188976378,
                    "duration": 0.31578949999999395
                },
                {
                    "name": "C#5",
                    "midi": 73,
                    "time": 287.84212924999974,
                    "velocity": 0.3700787401574803,
                    "duration": 0.31578949999999395
                },
                {
                    "name": "D5",
                    "midi": 74,
                    "time": 288.15791874999974,
                    "velocity": 0.30708661417322836,
                    "duration": 0.1578947500000254
                },
                {
                    "name": "E5",
                    "midi": 76,
                    "time": 288.31581349999976,
                    "velocity": 0.33858267716535434,
                    "duration": 0.1578947500000254
                },
                {
                    "name": "D5",
                    "midi": 74,
                    "time": 288.4737082499998,
                    "velocity": 0.30708661417322836,
                    "duration": 0.1578947500000254
                },
                {
                    "name": "E5",
                    "midi": 76,
                    "time": 288.6316029999998,
                    "velocity": 0.33858267716535434,
                    "duration": 0.1578947500000254
                },
                {
                    "name": "D5",
                    "midi": 74,
                    "time": 288.78949774999984,
                    "velocity": 0.30708661417322836,
                    "duration": 0.1578947500000254
                },
                {
                    "name": "D5",
                    "midi": 74,
                    "time": 288.94739249999986,
                    "velocity": 0.30708661417322836,
                    "duration": 0.31578949999999395
                },
                {
                    "name": "G4",
                    "midi": 67,
                    "time": 289.57897149999985,
                    "velocity": 0.3464566929133858,
                    "duration": 0.31578949999999395
                },
                {
                    "name": "G4",
                    "midi": 67,
                    "time": 289.89476099999985,
                    "velocity": 0.3543307086614173,
                    "duration": 0.5526316250000036
                },
                {
                    "name": "B4",
                    "midi": 71,
                    "time": 290.44739262499985,
                    "velocity": 0.33070866141732286,
                    "duration": 0.07894737499998428
                },
                {
                    "name": "A4",
                    "midi": 69,
                    "time": 290.52633999999983,
                    "velocity": 0.3543307086614173,
                    "duration": 0.31578949999999395
                },
                {
                    "name": "D4",
                    "midi": 62,
                    "time": 290.8421294999998,
                    "velocity": 0.3543307086614173,
                    "duration": 0.31578949999999395
                },
                {
                    "name": "F#4",
                    "midi": 66,
                    "time": 291.1579189999998,
                    "velocity": 0.3779527559055118,
                    "duration": 0.1578947500000254
                },
                {
                    "name": "E4",
                    "midi": 64,
                    "time": 291.31581374999985,
                    "velocity": 0.3543307086614173,
                    "duration": 0.14473685416669468
                },
                {
                    "name": "G4",
                    "midi": 67,
                    "time": 291.4737084999999,
                    "velocity": 0.4094488188976378,
                    "duration": 0.1578947500000254
                },
                {
                    "name": "F#4",
                    "midi": 66,
                    "time": 291.6316032499999,
                    "velocity": 0.36220472440944884,
                    "duration": 0.14473685416669468
                },
                {
                    "name": "A4",
                    "midi": 69,
                    "time": 291.7894979999999,
                    "velocity": 0.4094488188976378,
                    "duration": 0.1578947500000254
                },
                {
                    "name": "G4",
                    "midi": 67,
                    "time": 291.94739274999995,
                    "velocity": 0.36220472440944884,
                    "duration": 0.14473685416669468
                },
                {
                    "name": "C5",
                    "midi": 72,
                    "time": 292.1052875,
                    "velocity": 0.4251968503937008,
                    "duration": 0.1578947500000254
                },
                {
                    "name": "B4",
                    "midi": 71,
                    "time": 292.26318225,
                    "velocity": 0.4015748031496063,
                    "duration": 0.14473685416669468
                },
                {
                    "name": "D5",
                    "midi": 74,
                    "time": 292.421077,
                    "velocity": 0.4330708661417323,
                    "duration": 0.1578947500000254
                },
                {
                    "name": "B4",
                    "midi": 71,
                    "time": 292.57897175000005,
                    "velocity": 0.4015748031496063,
                    "duration": 0.14473685416669468
                },
                {
                    "name": "G4",
                    "midi": 67,
                    "time": 292.7368665000001,
                    "velocity": 0.3858267716535433,
                    "duration": 0.6315789999999879
                },
                {
                    "name": "D4",
                    "midi": 62,
                    "time": 293.36844550000006,
                    "velocity": 0.4015748031496063,
                    "duration": 0.31578949999999395
                },
                {
                    "name": "A4",
                    "midi": 69,
                    "time": 293.36844550000006,
                    "velocity": 0.4015748031496063,
                    "duration": 0.31578949999999395
                },
                {
                    "name": "D4",
                    "midi": 62,
                    "time": 293.68423500000006,
                    "velocity": 0.4015748031496063,
                    "duration": 0.9473685000000955
                },
                {
                    "name": "A#4",
                    "midi": 70,
                    "time": 293.68423500000006,
                    "velocity": 0.4015748031496063,
                    "duration": 0.1578947500000254
                },
                {
                    "name": "B4",
                    "midi": 71,
                    "time": 293.8421297500001,
                    "velocity": 0.4251968503937008,
                    "duration": 0.1578947500000254
                },
                {
                    "name": "C5",
                    "midi": 72,
                    "time": 294.0000245000001,
                    "velocity": 0.4566929133858268,
                    "duration": 0.1578947500000254
                },
                {
                    "name": "C#5",
                    "midi": 73,
                    "time": 294.15791925000013,
                    "velocity": 0.48031496062992124,
                    "duration": 0.1578947500000254
                },
                {
                    "name": "D5",
                    "midi": 74,
                    "time": 294.31581400000016,
                    "velocity": 0.5039370078740157,
                    "duration": 0.31578949999999395
                },
                {
                    "name": "F#4",
                    "midi": 66,
                    "time": 294.63160350000015,
                    "velocity": 0.4330708661417323,
                    "duration": 0.6315789999999879
                },
                {
                    "name": "D4",
                    "midi": 62,
                    "time": 294.63160350000015,
                    "velocity": 0.4330708661417323,
                    "duration": 0.9473684999999819
                },
                {
                    "name": "D5",
                    "midi": 74,
                    "time": 294.63160350000015,
                    "velocity": 0.4330708661417323,
                    "duration": 0.31578949999999395
                },
                {
                    "name": "C5",
                    "midi": 72,
                    "time": 294.94739300000015,
                    "velocity": 0.4409448818897638,
                    "duration": 0.31578949999999395
                },
                {
                    "name": "G4",
                    "midi": 67,
                    "time": 295.26318250000014,
                    "velocity": 0.4015748031496063,
                    "duration": 0.31578949999999395
                },
                {
                    "name": "B4",
                    "midi": 71,
                    "time": 295.26318250000014,
                    "velocity": 0.4015748031496063,
                    "duration": 0.31578949999999395
                },
                {
                    "name": "G4",
                    "midi": 67,
                    "time": 295.57897200000014,
                    "velocity": 0.4409448818897638,
                    "duration": 0.31578949999999395
                },
                {
                    "name": "B4",
                    "midi": 71,
                    "time": 295.57897200000014,
                    "velocity": 0.4409448818897638,
                    "duration": 0.31578949999999395
                },
                {
                    "name": "F#4",
                    "midi": 66,
                    "time": 295.89476150000013,
                    "velocity": 0.4251968503937008,
                    "duration": 0.31578949999999395
                },
                {
                    "name": "A4",
                    "midi": 69,
                    "time": 295.89476150000013,
                    "velocity": 0.4251968503937008,
                    "duration": 0.31578949999999395
                },
                {
                    "name": "F#4",
                    "midi": 66,
                    "time": 296.2105510000001,
                    "velocity": 0.4251968503937008,
                    "duration": 0.31578949999999395
                },
                {
                    "name": "A4",
                    "midi": 69,
                    "time": 296.2105510000001,
                    "velocity": 0.4251968503937008,
                    "duration": 0.31578949999999395
                },
                {
                    "name": "F#4",
                    "midi": 66,
                    "time": 296.5263405000001,
                    "velocity": 0.4251968503937008,
                    "duration": 0.6315789999999879
                },
                {
                    "name": "A4",
                    "midi": 69,
                    "time": 296.5263405000001,
                    "velocity": 0.4251968503937008,
                    "duration": 0.6315789999999879
                },
                {
                    "name": "G#4",
                    "midi": 68,
                    "time": 297.1579195000001,
                    "velocity": 0.4330708661417323,
                    "duration": 0.31578949999999395
                },
                {
                    "name": "B4",
                    "midi": 71,
                    "time": 297.1579195000001,
                    "velocity": 0.4330708661417323,
                    "duration": 0.31578949999999395
                },
                {
                    "name": "C5",
                    "midi": 72,
                    "time": 297.4737090000001,
                    "velocity": 0.48031496062992124,
                    "duration": 0.07894737499998428
                },
                {
                    "name": "A4",
                    "midi": 69,
                    "time": 297.5526563750001,
                    "velocity": 0.48031496062992124,
                    "duration": 0.07894737499998428
                },
                {
                    "name": "B4",
                    "midi": 71,
                    "time": 297.63160375000007,
                    "velocity": 0.4881889763779528,
                    "duration": 0.07894737499998428
                },
                {
                    "name": "C5",
                    "midi": 72,
                    "time": 297.71055112500005,
                    "velocity": 0.49606299212598426,
                    "duration": 0.07894737499998428
                },
                {
                    "name": "D5",
                    "midi": 74,
                    "time": 297.78949850000004,
                    "velocity": 0.5039370078740157,
                    "duration": 0.07894737499998428
                },
                {
                    "name": "E5",
                    "midi": 76,
                    "time": 297.868445875,
                    "velocity": 0.5118110236220472,
                    "duration": 0.07894737499998428
                },
                {
                    "name": "F#5",
                    "midi": 78,
                    "time": 297.94739325,
                    "velocity": 0.5196850393700787,
                    "duration": 0.07894737499998428
                },
                {
                    "name": "G#5",
                    "midi": 80,
                    "time": 298.026340625,
                    "velocity": 0.5196850393700787,
                    "duration": 0.07894737499998428
                },
                {
                    "name": "A5",
                    "midi": 81,
                    "time": 298.105288,
                    "velocity": 0.5275590551181102,
                    "duration": 0.07894737499998428
                },
                {
                    "name": "B5",
                    "midi": 83,
                    "time": 298.18423537499996,
                    "velocity": 0.5354330708661418,
                    "duration": 0.07894737499998428
                },
                {
                    "name": "C6",
                    "midi": 84,
                    "time": 298.26318274999994,
                    "velocity": 0.5511811023622047,
                    "duration": 0.07894737499998428
                },
                {
                    "name": "D6",
                    "midi": 86,
                    "time": 298.3421301249999,
                    "velocity": 0.5590551181102362,
                    "duration": 0.07894737499998428
                },
                {
                    "name": "C6",
                    "midi": 84,
                    "time": 298.4210774999999,
                    "velocity": 0.5669291338582677,
                    "duration": 0.31578949999999395
                },
                {
                    "name": "E6",
                    "midi": 88,
                    "time": 298.4210774999999,
                    "velocity": 0.5669291338582677,
                    "duration": 0.31578949999999395
                },
                {
                    "name": "B5",
                    "midi": 83,
                    "time": 298.7368669999999,
                    "velocity": 0.48031496062992124,
                    "duration": 0.31578949999999395
                },
                {
                    "name": "D6",
                    "midi": 86,
                    "time": 298.7368669999999,
                    "velocity": 0.48031496062992124,
                    "duration": 0.31578949999999395
                },
                {
                    "name": "A5",
                    "midi": 81,
                    "time": 299.0526564999999,
                    "velocity": 0.48031496062992124,
                    "duration": 0.6315789999999879
                },
                {
                    "name": "C6",
                    "midi": 84,
                    "time": 299.0526564999999,
                    "velocity": 0.48031496062992124,
                    "duration": 0.1578947500000254
                },
                {
                    "name": "D6",
                    "midi": 86,
                    "time": 299.2105512499999,
                    "velocity": 0.48031496062992124,
                    "duration": 0.05263158333332285
                },
                {
                    "name": "C6",
                    "midi": 84,
                    "time": 299.26318283333325,
                    "velocity": 0.48031496062992124,
                    "duration": 0.05263158333332285
                },
                {
                    "name": "B5",
                    "midi": 83,
                    "time": 299.31581441666657,
                    "velocity": 0.48031496062992124,
                    "duration": 0.05263158333332285
                },
                {
                    "name": "C6",
                    "midi": 84,
                    "time": 299.3684459999999,
                    "velocity": 0.49606299212598426,
                    "duration": 0.31578949999999395
                },
                {
                    "name": "G5",
                    "midi": 79,
                    "time": 299.6842354999999,
                    "velocity": 0.47244094488188976,
                    "duration": 0.31578949999999395
                },
                {
                    "name": "B5",
                    "midi": 83,
                    "time": 299.6842354999999,
                    "velocity": 0.47244094488188976,
                    "duration": 0.31578949999999395
                },
                {
                    "name": "D6",
                    "midi": 86,
                    "time": 300.0000249999999,
                    "velocity": 0.4645669291338583,
                    "duration": 0.23684212500000967
                },
                {
                    "name": "E6",
                    "midi": 88,
                    "time": 300.2368671249999,
                    "velocity": 0.3937007874015748,
                    "duration": 0.07894737499998428
                },
                {
                    "name": "D6",
                    "midi": 86,
                    "time": 300.3158144999999,
                    "velocity": 0.4645669291338583,
                    "duration": 0.1578947500000254
                },
                {
                    "name": "C6",
                    "midi": 84,
                    "time": 300.4737092499999,
                    "velocity": 0.4330708661417323,
                    "duration": 0.05921053125001663
                },
                {
                    "name": "D6",
                    "midi": 86,
                    "time": 300.55265662499994,
                    "velocity": 0.3858267716535433,
                    "duration": 0.07894737499998428
                },
                {
                    "name": "C6",
                    "midi": 84,
                    "time": 300.6316039999999,
                    "velocity": 0.4645669291338583,
                    "duration": 0.1578947500000254
                },
                {
                    "name": "B5",
                    "midi": 83,
                    "time": 300.78949874999995,
                    "velocity": 0.4330708661417323,
                    "duration": 0.05921053125001663
                },
                {
                    "name": "C6",
                    "midi": 84,
                    "time": 300.868446125,
                    "velocity": 0.3937007874015748,
                    "duration": 0.07894737499998428
                },
                {
                    "name": "B5",
                    "midi": 83,
                    "time": 300.9473935,
                    "velocity": 0.4645669291338583,
                    "duration": 0.1578947500000254
                },
                {
                    "name": "A5",
                    "midi": 81,
                    "time": 301.10528825,
                    "velocity": 0.4330708661417323,
                    "duration": 0.05921053125001663
                },
                {
                    "name": "B5",
                    "midi": 83,
                    "time": 301.18423562500004,
                    "velocity": 0.3937007874015748,
                    "duration": 0.07894737499998428
                },
                {
                    "name": "A5",
                    "midi": 81,
                    "time": 301.263183,
                    "velocity": 0.4645669291338583,
                    "duration": 0.1578947500000254
                },
                {
                    "name": "G5",
                    "midi": 79,
                    "time": 301.42107775000005,
                    "velocity": 0.4330708661417323,
                    "duration": 0.05921053125001663
                },
                {
                    "name": "A5",
                    "midi": 81,
                    "time": 301.5000251250001,
                    "velocity": 0.3937007874015748,
                    "duration": 0.07894737499998428
                },
                {
                    "name": "G5",
                    "midi": 79,
                    "time": 301.5789725000001,
                    "velocity": 0.4645669291338583,
                    "duration": 0.1578947500000254
                },
                {
                    "name": "F#5",
                    "midi": 78,
                    "time": 301.7368672500001,
                    "velocity": 0.4251968503937008,
                    "duration": 0.31578949999999395
                },
                {
                    "name": "A5",
                    "midi": 81,
                    "time": 302.0526567500001,
                    "velocity": 0.4645669291338583,
                    "duration": 0.31578949999999395
                },
                {
                    "name": "G5",
                    "midi": 79,
                    "time": 302.3684462500001,
                    "velocity": 0.4409448818897638,
                    "duration": 0.31578949999999395
                },
                {
                    "name": "E5",
                    "midi": 76,
                    "time": 302.6842357500001,
                    "velocity": 0.4094488188976378,
                    "duration": 0.31578949999999395
                },
                {
                    "name": "C#5",
                    "midi": 73,
                    "time": 303.0000252500001,
                    "velocity": 0.3700787401574803,
                    "duration": 0.31578949999999395
                },
                {
                    "name": "D5",
                    "midi": 74,
                    "time": 303.3158147500001,
                    "velocity": 0.30708661417322836,
                    "duration": 0.1578947500000254
                },
                {
                    "name": "E5",
                    "midi": 76,
                    "time": 303.4737095000001,
                    "velocity": 0.33858267716535434,
                    "duration": 0.1578947500000254
                },
                {
                    "name": "D5",
                    "midi": 74,
                    "time": 303.6316042500001,
                    "velocity": 0.30708661417322836,
                    "duration": 0.1578947500000254
                },
                {
                    "name": "E5",
                    "midi": 76,
                    "time": 303.78949900000015,
                    "velocity": 0.33858267716535434,
                    "duration": 0.1578947500000254
                },
                {
                    "name": "D5",
                    "midi": 74,
                    "time": 303.9473937500002,
                    "velocity": 0.30708661417322836,
                    "duration": 0.1578947500000254
                },
                {
                    "name": "D5",
                    "midi": 74,
                    "time": 304.1052885000002,
                    "velocity": 0.30708661417322836,
                    "duration": 0.31578949999999395
                },
                {
                    "name": "G5",
                    "midi": 79,
                    "time": 304.7368675000002,
                    "velocity": 0.33858267716535434,
                    "duration": 0.31578949999999395
                },
                {
                    "name": "F#5",
                    "midi": 78,
                    "time": 305.0526570000002,
                    "velocity": 0.33858267716535434,
                    "duration": 0.1578947500000254
                },
                {
                    "name": "G5",
                    "midi": 79,
                    "time": 305.2105517500002,
                    "velocity": 0.33858267716535434,
                    "duration": 0.11842106249997641
                },
                {
                    "name": "A5",
                    "midi": 81,
                    "time": 305.3684465000002,
                    "velocity": 0.3543307086614173,
                    "duration": 0.1578947500000254
                },
                {
                    "name": "G5",
                    "midi": 79,
                    "time": 305.5263412500002,
                    "velocity": 0.33858267716535434,
                    "duration": 0.11842106249997641
                },
                {
                    "name": "A5",
                    "midi": 81,
                    "time": 305.68423600000017,
                    "velocity": 0.36220472440944884,
                    "duration": 0.1578947500000254
                },
                {
                    "name": "G5",
                    "midi": 79,
                    "time": 305.8421307500002,
                    "velocity": 0.33858267716535434,
                    "duration": 0.11842106249997641
                },
                {
                    "name": "A5",
                    "midi": 81,
                    "time": 306.00002550000016,
                    "velocity": 0.36220472440944884,
                    "duration": 0.1578947500000254
                },
                {
                    "name": "G5",
                    "midi": 79,
                    "time": 306.1579202500002,
                    "velocity": 0.33858267716535434,
                    "duration": 0.11842106249997641
                },
                {
                    "name": "G5",
                    "midi": 79,
                    "time": 306.31581500000016,
                    "velocity": 0.36220472440944884,
                    "duration": 0.1578947500000254
                },
                {
                    "name": "F#5",
                    "midi": 78,
                    "time": 306.4737097500002,
                    "velocity": 0.33858267716535434,
                    "duration": 0.11842106249997641
                },
                {
                    "name": "F#5",
                    "midi": 78,
                    "time": 306.63160450000015,
                    "velocity": 0.3543307086614173,
                    "duration": 0.1578947500000254
                },
                {
                    "name": "E5",
                    "midi": 76,
                    "time": 306.7894992500002,
                    "velocity": 0.33858267716535434,
                    "duration": 0.11842106249997641
                },
                {
                    "name": "E5",
                    "midi": 76,
                    "time": 306.94739400000014,
                    "velocity": 0.3700787401574803,
                    "duration": 0.1578947500000254
                },
                {
                    "name": "D5",
                    "midi": 74,
                    "time": 307.10528875000017,
                    "velocity": 0.3543307086614173,
                    "duration": 0.11842106249997641
                },
                {
                    "name": "D5",
                    "midi": 74,
                    "time": 307.26318350000014,
                    "velocity": 0.3464566929133858,
                    "duration": 0.07894737499998428
                },
                {
                    "name": "D5",
                    "midi": 74,
                    "time": 307.4210782500001,
                    "velocity": 0.3543307086614173,
                    "duration": 0.07894737499998428
                },
                {
                    "name": "D5",
                    "midi": 74,
                    "time": 307.5789730000001,
                    "velocity": 0.3543307086614173,
                    "duration": 0.07894737499998428
                },
                {
                    "name": "D5",
                    "midi": 74,
                    "time": 307.73686775000004,
                    "velocity": 0.36220472440944884,
                    "duration": 0.07894737499998428
                },
                {
                    "name": "E5",
                    "midi": 76,
                    "time": 307.8947625,
                    "velocity": 0.4015748031496063,
                    "duration": 0.1578947500000254
                },
                {
                    "name": "D#5",
                    "midi": 75,
                    "time": 308.05265725000004,
                    "velocity": 0.3700787401574803,
                    "duration": 0.1578947500000254
                },
                {
                    "name": "D#5",
                    "midi": 75,
                    "time": 308.21055200000006,
                    "velocity": 0.3700787401574803,
                    "duration": 0.07894737499998428
                },
                {
                    "name": "D#5",
                    "midi": 75,
                    "time": 308.36844675000003,
                    "velocity": 0.3700787401574803,
                    "duration": 0.07894737499998428
                },
                {
                    "name": "D#5",
                    "midi": 75,
                    "time": 308.5263415,
                    "velocity": 0.3700787401574803,
                    "duration": 0.07894737499998428
                },
                {
                    "name": "D#5",
                    "midi": 75,
                    "time": 308.68423624999997,
                    "velocity": 0.3700787401574803,
                    "duration": 0.07894737499998428
                },
                {
                    "name": "D#5",
                    "midi": 75,
                    "time": 308.84213099999994,
                    "velocity": 0.4094488188976378,
                    "duration": 0.1578947500000254
                },
                {
                    "name": "E5",
                    "midi": 76,
                    "time": 309.00002574999996,
                    "velocity": 0.3858267716535433,
                    "duration": 0.1578947500000254
                },
                {
                    "name": "F#5",
                    "midi": 78,
                    "time": 309.1579205,
                    "velocity": 0.3858267716535433,
                    "duration": 0.1578947500000254
                },
                {
                    "name": "E5",
                    "midi": 76,
                    "time": 309.31581525,
                    "velocity": 0.3858267716535433,
                    "duration": 0.1578947500000254
                },
                {
                    "name": "G5",
                    "midi": 79,
                    "time": 309.47371000000004,
                    "velocity": 0.4094488188976378,
                    "duration": 0.1578947500000254
                },
                {
                    "name": "F#5",
                    "midi": 78,
                    "time": 309.63160475000006,
                    "velocity": 0.3858267716535433,
                    "duration": 0.1578947500000254
                },
                {
                    "name": "A5",
                    "midi": 81,
                    "time": 309.7894995000001,
                    "velocity": 0.3937007874015748,
                    "duration": 0.1578947500000254
                },
                {
                    "name": "G5",
                    "midi": 79,
                    "time": 309.9473942500001,
                    "velocity": 0.4015748031496063,
                    "duration": 0.1578947500000254
                },
                {
                    "name": "F#5",
                    "midi": 78,
                    "time": 310.10528900000014,
                    "velocity": 0.41732283464566927,
                    "duration": 0.1578947500000254
                },
                {
                    "name": "E5",
                    "midi": 76,
                    "time": 310.26318375000017,
                    "velocity": 0.4251968503937008,
                    "duration": 0.1578947500000254
                },
                {
                    "name": "D5",
                    "midi": 74,
                    "time": 310.4210785000002,
                    "velocity": 0.4409448818897638,
                    "duration": 0.1578947500000254
                },
                {
                    "name": "C#5",
                    "midi": 73,
                    "time": 310.5789732500002,
                    "velocity": 0.4645669291338583,
                    "duration": 0.1578947500000254
                },
                {
                    "name": "D5",
                    "midi": 74,
                    "time": 310.73686800000024,
                    "velocity": 0.6220472440944882,
                    "duration": 0.1578947500000254
                },
                {
                    "name": "D6",
                    "midi": 86,
                    "time": 310.89476275000027,
                    "velocity": 0.5118110236220472,
                    "duration": 0.1578947500000254
                },
                {
                    "name": "D5",
                    "midi": 74,
                    "time": 311.0526575000003,
                    "velocity": 0.47244094488188976,
                    "duration": 0.07894737499998428
                },
                {
                    "name": "D5",
                    "midi": 74,
                    "time": 311.21055225000026,
                    "velocity": 0.47244094488188976,
                    "duration": 0.07894737499998428
                },
                {
                    "name": "D5",
                    "midi": 74,
                    "time": 311.36844700000023,
                    "velocity": 0.47244094488188976,
                    "duration": 0.07894737499998428
                },
                {
                    "name": "D5",
                    "midi": 74,
                    "time": 311.5263417500002,
                    "velocity": 0.47244094488188976,
                    "duration": 0.07894737499998428
                },
                {
                    "name": "D5",
                    "midi": 74,
                    "time": 311.68423650000017,
                    "velocity": 0.6377952755905512,
                    "duration": 0.1578947500000254
                },
                {
                    "name": "D6",
                    "midi": 86,
                    "time": 311.8421312500002,
                    "velocity": 0.5118110236220472,
                    "duration": 0.1578947500000254
                },
                {
                    "name": "D5",
                    "midi": 74,
                    "time": 312.0000260000002,
                    "velocity": 0.47244094488188976,
                    "duration": 0.07894737499998428
                },
                {
                    "name": "D5",
                    "midi": 74,
                    "time": 312.1579207500002,
                    "velocity": 0.47244094488188976,
                    "duration": 0.07894737499998428
                },
                {
                    "name": "D5",
                    "midi": 74,
                    "time": 312.31581550000016,
                    "velocity": 0.47244094488188976,
                    "duration": 0.07894737499998428
                },
                {
                    "name": "D5",
                    "midi": 74,
                    "time": 312.4737102500001,
                    "velocity": 0.47244094488188976,
                    "duration": 0.07894737499998428
                },
                {
                    "name": "D5",
                    "midi": 74,
                    "time": 312.6316050000001,
                    "velocity": 0.6220472440944882,
                    "duration": 0.07894737499998428
                },
                {
                    "name": "F#5",
                    "midi": 78,
                    "time": 312.7105523750001,
                    "velocity": 0.44881889763779526,
                    "duration": 0.07894737499998428
                },
                {
                    "name": "A5",
                    "midi": 81,
                    "time": 312.78949975000006,
                    "velocity": 0.48031496062992124,
                    "duration": 0.07894737499998428
                },
                {
                    "name": "D6",
                    "midi": 86,
                    "time": 312.86844712500005,
                    "velocity": 0.4330708661417323,
                    "duration": 0.07894737499998428
                },
                {
                    "name": "D5",
                    "midi": 74,
                    "time": 312.94739450000003,
                    "velocity": 0.4881889763779528,
                    "duration": 0.07894737499998428
                },
                {
                    "name": "D5",
                    "midi": 74,
                    "time": 313.10528925,
                    "velocity": 0.44881889763779526,
                    "duration": 0.07894737499998428
                },
                {
                    "name": "D5",
                    "midi": 74,
                    "time": 313.26318399999997,
                    "velocity": 0.44881889763779526,
                    "duration": 0.07894737499998428
                },
                {
                    "name": "D5",
                    "midi": 74,
                    "time": 313.42107874999994,
                    "velocity": 0.44881889763779526,
                    "duration": 0.07894737499998428
                },
                {
                    "name": "D5",
                    "midi": 74,
                    "time": 313.5789734999999,
                    "velocity": 0.5984251968503937,
                    "duration": 0.07894737499998428
                },
                {
                    "name": "F#5",
                    "midi": 78,
                    "time": 313.6579208749999,
                    "velocity": 0.4251968503937008,
                    "duration": 0.07894737499998428
                },
                {
                    "name": "A5",
                    "midi": 81,
                    "time": 313.7368682499999,
                    "velocity": 0.4645669291338583,
                    "duration": 0.07894737499998428
                },
                {
                    "name": "D6",
                    "midi": 86,
                    "time": 313.81581562499986,
                    "velocity": 0.4094488188976378,
                    "duration": 0.07894737499998428
                },
                {
                    "name": "D5",
                    "midi": 74,
                    "time": 313.89476299999984,
                    "velocity": 0.44881889763779526,
                    "duration": 0.07894737499998428
                },
                {
                    "name": "D5",
                    "midi": 74,
                    "time": 314.0526577499998,
                    "velocity": 0.44881889763779526,
                    "duration": 0.07894737499998428
                },
                {
                    "name": "D5",
                    "midi": 74,
                    "time": 314.2105524999998,
                    "velocity": 0.44881889763779526,
                    "duration": 0.07894737499998428
                },
                {
                    "name": "D5",
                    "midi": 74,
                    "time": 314.36844724999975,
                    "velocity": 0.44881889763779526,
                    "duration": 0.07894737499998428
                },
                {
                    "name": "D5",
                    "midi": 74,
                    "time": 314.5263419999997,
                    "velocity": 0.5905511811023622,
                    "duration": 0.1578947500000254
                },
                {
                    "name": "D6",
                    "midi": 86,
                    "time": 314.68423674999974,
                    "velocity": 0.4645669291338583,
                    "duration": 0.1578947500000254
                },
                {
                    "name": "D6",
                    "midi": 86,
                    "time": 314.84213149999977,
                    "velocity": 0.44881889763779526,
                    "duration": 0.07894737499998428
                },
                {
                    "name": "D6",
                    "midi": 86,
                    "time": 315.00002624999973,
                    "velocity": 0.44881889763779526,
                    "duration": 0.07894737499998428
                },
                {
                    "name": "D6",
                    "midi": 86,
                    "time": 315.1579209999997,
                    "velocity": 0.44881889763779526,
                    "duration": 0.07894737499998428
                },
                {
                    "name": "D6",
                    "midi": 86,
                    "time": 315.3158157499997,
                    "velocity": 0.44881889763779526,
                    "duration": 0.07894737499998428
                },
                {
                    "name": "C#6",
                    "midi": 85,
                    "time": 315.47371049999964,
                    "velocity": 0.5354330708661418,
                    "duration": 0.1578947500000254
                },
                {
                    "name": "D6",
                    "midi": 86,
                    "time": 315.63160524999967,
                    "velocity": 0.4645669291338583,
                    "duration": 0.1578947500000254
                },
                {
                    "name": "D6",
                    "midi": 86,
                    "time": 315.7894999999997,
                    "velocity": 0.44881889763779526,
                    "duration": 0.07894737499998428
                },
                {
                    "name": "D6",
                    "midi": 86,
                    "time": 315.94739474999966,
                    "velocity": 0.44881889763779526,
                    "duration": 0.07894737499998428
                },
                {
                    "name": "D6",
                    "midi": 86,
                    "time": 316.1052894999996,
                    "velocity": 0.44881889763779526,
                    "duration": 0.07894737499998428
                },
                {
                    "name": "D6",
                    "midi": 86,
                    "time": 316.2631842499996,
                    "velocity": 0.44881889763779526,
                    "duration": 0.07894737499998428
                },
                {
                    "name": "D#6",
                    "midi": 87,
                    "time": 316.42107899999957,
                    "velocity": 0.5748031496062992,
                    "duration": 0.1578947500000254
                },
                {
                    "name": "D6",
                    "midi": 86,
                    "time": 316.5789737499996,
                    "velocity": 0.4645669291338583,
                    "duration": 0.1578947500000254
                },
                {
                    "name": "D6",
                    "midi": 86,
                    "time": 316.7368684999996,
                    "velocity": 0.44881889763779526,
                    "duration": 0.07894737499998428
                },
                {
                    "name": "D6",
                    "midi": 86,
                    "time": 316.8947632499996,
                    "velocity": 0.44881889763779526,
                    "duration": 0.07894737499998428
                },
                {
                    "name": "D6",
                    "midi": 86,
                    "time": 317.05265799999955,
                    "velocity": 0.44881889763779526,
                    "duration": 0.07894737499998428
                },
                {
                    "name": "D6",
                    "midi": 86,
                    "time": 317.2105527499995,
                    "velocity": 0.44881889763779526,
                    "duration": 0.07894737499998428
                },
                {
                    "name": "C#6",
                    "midi": 85,
                    "time": 317.3684474999995,
                    "velocity": 0.5275590551181102,
                    "duration": 0.1578947500000254
                },
                {
                    "name": "D6",
                    "midi": 86,
                    "time": 317.5263422499995,
                    "velocity": 0.4645669291338583,
                    "duration": 0.1578947500000254
                },
                {
                    "name": "D6",
                    "midi": 86,
                    "time": 317.68423699999954,
                    "velocity": 0.44881889763779526,
                    "duration": 0.07894737499998428
                },
                {
                    "name": "D6",
                    "midi": 86,
                    "time": 317.8421317499995,
                    "velocity": 0.44881889763779526,
                    "duration": 0.07894737499998428
                },
                {
                    "name": "D6",
                    "midi": 86,
                    "time": 318.0000264999995,
                    "velocity": 0.44881889763779526,
                    "duration": 0.07894737499998428
                },
                {
                    "name": "D6",
                    "midi": 86,
                    "time": 318.15792124999945,
                    "velocity": 0.44881889763779526,
                    "duration": 0.07894737499998428
                },
                {
                    "name": "D6",
                    "midi": 86,
                    "time": 318.3158159999994,
                    "velocity": 0.4566929133858268,
                    "duration": 0.07894737499998428
                },
                {
                    "name": "D6",
                    "midi": 86,
                    "time": 318.4737107499994,
                    "velocity": 0.4566929133858268,
                    "duration": 0.07894737499998428
                },
                {
                    "name": "D6",
                    "midi": 86,
                    "time": 318.63160549999935,
                    "velocity": 0.4566929133858268,
                    "duration": 0.07894737499998428
                },
                {
                    "name": "D6",
                    "midi": 86,
                    "time": 318.7895002499993,
                    "velocity": 0.44881889763779526,
                    "duration": 0.07894737499998428
                },
                {
                    "name": "D6",
                    "midi": 86,
                    "time": 318.9473949999993,
                    "velocity": 0.4330708661417323,
                    "duration": 0.07894737499998428
                },
                {
                    "name": "D6",
                    "midi": 86,
                    "time": 319.10528974999926,
                    "velocity": 0.4330708661417323,
                    "duration": 0.07894737499998428
                },
                {
                    "name": "D6",
                    "midi": 86,
                    "time": 319.2631844999992,
                    "velocity": 0.4251968503937008,
                    "duration": 0.1578947500000254
                },
                {
                    "name": "D6",
                    "midi": 86,
                    "time": 319.5789739999993,
                    "velocity": 0.4094488188976378,
                    "duration": 0.1578947500000254
                },
                {
                    "name": "D6",
                    "midi": 86,
                    "time": 319.8947634999993,
                    "velocity": 0.4094488188976378,
                    "duration": 0.1578947500000254
                },
                {
                    "name": "C6",
                    "midi": 84,
                    "time": 320.2105529999994,
                    "velocity": 0.4015748031496063,
                    "duration": 0.1578947500000254
                },
                {
                    "name": "D6",
                    "midi": 86,
                    "time": 320.2105529999994,
                    "velocity": 0.4015748031496063,
                    "duration": 0.1578947500000254
                },
                {
                    "name": "C6",
                    "midi": 84,
                    "time": 320.52634249999943,
                    "velocity": 0.3858267716535433,
                    "duration": 0.1578947500000254
                },
                {
                    "name": "D6",
                    "midi": 86,
                    "time": 320.52634249999943,
                    "velocity": 0.3858267716535433,
                    "duration": 0.1578947500000254
                },
                {
                    "name": "C6",
                    "midi": 84,
                    "time": 320.8421319999995,
                    "velocity": 0.3858267716535433,
                    "duration": 0.1578947500000254
                },
                {
                    "name": "D6",
                    "midi": 86,
                    "time": 320.8421319999995,
                    "velocity": 0.3858267716535433,
                    "duration": 0.1578947500000254
                },
                {
                    "name": "C6",
                    "midi": 84,
                    "time": 321.15792149999953,
                    "velocity": 0.36220472440944884,
                    "duration": 0.23684212500000967
                },
                {
                    "name": "D6",
                    "midi": 86,
                    "time": 321.15792149999953,
                    "velocity": 0.36220472440944884,
                    "duration": 0.23684212500000967
                },
                {
                    "name": "C6",
                    "midi": 84,
                    "time": 321.4737109999995,
                    "velocity": 0.3543307086614173,
                    "duration": 0.23684212500000967
                },
                {
                    "name": "D6",
                    "midi": 86,
                    "time": 321.4737109999995,
                    "velocity": 0.3543307086614173,
                    "duration": 0.23684212500000967
                },
                {
                    "name": "C6",
                    "midi": 84,
                    "time": 321.7895004999995,
                    "velocity": 0.3543307086614173,
                    "duration": 0.23684212500000967
                },
                {
                    "name": "D6",
                    "midi": 86,
                    "time": 321.7895004999995,
                    "velocity": 0.3543307086614173,
                    "duration": 0.23684212500000967
                },
                {
                    "name": "C6",
                    "midi": 84,
                    "time": 322.1052899999995,
                    "velocity": 0.33070866141732286,
                    "duration": 0.31578949999999395
                },
                {
                    "name": "D6",
                    "midi": 86,
                    "time": 322.1052899999995,
                    "velocity": 0.33070866141732286,
                    "duration": 0.31578949999999395
                },
                {
                    "name": "C6",
                    "midi": 84,
                    "time": 322.4210794999995,
                    "velocity": 0.31496062992125984,
                    "duration": 0.31578949999999395
                },
                {
                    "name": "D6",
                    "midi": 86,
                    "time": 322.4210794999995,
                    "velocity": 0.31496062992125984,
                    "duration": 0.31578949999999395
                },
                {
                    "name": "C6",
                    "midi": 84,
                    "time": 322.7368689999995,
                    "velocity": 0.29133858267716534,
                    "duration": 0.31578949999999395
                },
                {
                    "name": "D6",
                    "midi": 86,
                    "time": 322.7368689999995,
                    "velocity": 0.29133858267716534,
                    "duration": 0.31578949999999395
                },
                {
                    "name": "C6",
                    "midi": 84,
                    "time": 323.0526584999995,
                    "velocity": 0.28346456692913385,
                    "duration": 0.9473684999999819
                },
                {
                    "name": "D6",
                    "midi": 86,
                    "time": 323.0526584999995,
                    "velocity": 0.28346456692913385,
                    "duration": 0.9473684999999819
                },
                {
                    "name": "C5",
                    "midi": 72,
                    "time": 324.63160599999946,
                    "velocity": 0.2440944881889764,
                    "duration": 0.31578949999999395
                },
                {
                    "name": "D5",
                    "midi": 74,
                    "time": 324.63160599999946,
                    "velocity": 0.2440944881889764,
                    "duration": 0.31578949999999395
                },
                {
                    "name": "D5",
                    "midi": 74,
                    "time": 324.94739549999946,
                    "velocity": 0.2440944881889764,
                    "duration": 0.6315789999999879
                },
                {
                    "name": "C5",
                    "midi": 72,
                    "time": 324.94739549999946,
                    "velocity": 0.2440944881889764,
                    "duration": 0.6315789999999879
                },
                {
                    "name": "G4",
                    "midi": 67,
                    "time": 325.57897449999945,
                    "velocity": 0.36220472440944884,
                    "duration": 0.31578949999999395
                },
                {
                    "name": "G4",
                    "midi": 67,
                    "time": 325.89476399999944,
                    "velocity": 0.3858267716535433,
                    "duration": 0.5526316250000036
                },
                {
                    "name": "B4",
                    "midi": 71,
                    "time": 326.44739562499944,
                    "velocity": 0.3700787401574803,
                    "duration": 0.07894737499998428
                },
                {
                    "name": "A4",
                    "midi": 69,
                    "time": 326.52634299999943,
                    "velocity": 0.3700787401574803,
                    "duration": 0.31578949999999395
                },
                {
                    "name": "D4",
                    "midi": 62,
                    "time": 326.8421324999994,
                    "velocity": 0.3858267716535433,
                    "duration": 0.31578949999999395
                },
                {
                    "name": "E4",
                    "midi": 64,
                    "time": 327.1579219999994,
                    "velocity": 0.3543307086614173,
                    "duration": 0.31578949999999395
                },
                {
                    "name": "F#4",
                    "midi": 66,
                    "time": 327.4737114999994,
                    "velocity": 0.3543307086614173,
                    "duration": 0.1578947500000254
                },
                {
                    "name": "G4",
                    "midi": 67,
                    "time": 327.63160624999944,
                    "velocity": 0.3543307086614173,
                    "duration": 0.05263158333332285
                },
                {
                    "name": "F#4",
                    "midi": 66,
                    "time": 327.6710799374994,
                    "velocity": 0.3543307086614173,
                    "duration": 0.05263158333332285
                },
                {
                    "name": "E4",
                    "midi": 64,
                    "time": 327.7105536249994,
                    "velocity": 0.3543307086614173,
                    "duration": 0.05263158333332285
                },
                {
                    "name": "F#4",
                    "midi": 66,
                    "time": 327.7500273124994,
                    "velocity": 0.3543307086614173,
                    "duration": 0.05263158333332285
                },
                {
                    "name": "G4",
                    "midi": 67,
                    "time": 327.7895009999994,
                    "velocity": 0.36220472440944884,
                    "duration": 0.11842106249997641
                },
                {
                    "name": "G4",
                    "midi": 67,
                    "time": 328.1052904999994,
                    "velocity": 0.3543307086614173,
                    "duration": 0.11842106249997641
                },
                {
                    "name": "G4",
                    "midi": 67,
                    "time": 328.4210799999994,
                    "velocity": 0.3543307086614173,
                    "duration": 0.11842106249997641
                },
                {
                    "name": "G4",
                    "midi": 67,
                    "time": 328.7368694999994,
                    "velocity": 0.3543307086614173,
                    "duration": 0.6315789999999879
                },
                {
                    "name": "D4",
                    "midi": 62,
                    "time": 329.3684484999994,
                    "velocity": 0.4409448818897638,
                    "duration": 0.31578949999999395
                },
                {
                    "name": "F#4",
                    "midi": 66,
                    "time": 329.3684484999994,
                    "velocity": 0.4409448818897638,
                    "duration": 0.31578949999999395
                },
                {
                    "name": "A4",
                    "midi": 69,
                    "time": 329.3684484999994,
                    "velocity": 0.4409448818897638,
                    "duration": 0.31578949999999395
                },
                {
                    "name": "D4",
                    "midi": 62,
                    "time": 329.68423799999937,
                    "velocity": 0.47244094488188976,
                    "duration": 0.31578949999999395
                },
                {
                    "name": "G4",
                    "midi": 67,
                    "time": 329.68423799999937,
                    "velocity": 0.47244094488188976,
                    "duration": 0.31578949999999395
                },
                {
                    "name": "B4",
                    "midi": 71,
                    "time": 329.68423799999937,
                    "velocity": 0.47244094488188976,
                    "duration": 0.31578949999999395
                },
                {
                    "name": "D4",
                    "midi": 62,
                    "time": 330.27634331249936,
                    "velocity": 0.4094488188976378,
                    "duration": 0.2631579166666711
                },
                {
                    "name": "G4",
                    "midi": 67,
                    "time": 330.2895012083327,
                    "velocity": 0.4251968503937008,
                    "duration": 0.2500000208333404
                },
                {
                    "name": "B4",
                    "midi": 71,
                    "time": 330.302659104166,
                    "velocity": 0.4409448818897638,
                    "duration": 0.23684212500000967
                },
                {
                    "name": "D5",
                    "midi": 74,
                    "time": 330.31581699999936,
                    "velocity": 0.47244094488188976,
                    "duration": 0.22368422916667896
                },
                {
                    "name": "D4",
                    "midi": 62,
                    "time": 330.59213281249936,
                    "velocity": 0.4251968503937008,
                    "duration": 0.67105268749998
                },
                {
                    "name": "F#4",
                    "midi": 66,
                    "time": 330.6052907083327,
                    "velocity": 0.4409448818897638,
                    "duration": 0.6578947916666493
                },
                {
                    "name": "A4",
                    "midi": 69,
                    "time": 330.618448604166,
                    "velocity": 0.4645669291338583,
                    "duration": 0.6447368958333186
                },
                {
                    "name": "C5",
                    "midi": 72,
                    "time": 330.63160649999935,
                    "velocity": 0.48031496062992124,
                    "duration": 0.6315789999999879
                },
                {
                    "name": "D4",
                    "midi": 62,
                    "time": 331.26318549999934,
                    "velocity": 0.4251968503937008,
                    "duration": 0.31578949999999395
                },
                {
                    "name": "G4",
                    "midi": 67,
                    "time": 331.26318549999934,
                    "velocity": 0.4251968503937008,
                    "duration": 0.31578949999999395
                },
                {
                    "name": "B4",
                    "midi": 71,
                    "time": 331.26318549999934,
                    "velocity": 0.4251968503937008,
                    "duration": 0.31578949999999395
                },
                {
                    "name": "A4",
                    "midi": 69,
                    "time": 331.8947644999993,
                    "velocity": 0.4409448818897638,
                    "duration": 0.07894737499998428
                },
                {
                    "name": "B4",
                    "midi": 71,
                    "time": 331.9737118749993,
                    "velocity": 0.4645669291338583,
                    "duration": 0.07894737499998428
                },
                {
                    "name": "C#5",
                    "midi": 73,
                    "time": 332.0526592499993,
                    "velocity": 0.47244094488188976,
                    "duration": 0.07894737499998428
                },
                {
                    "name": "D5",
                    "midi": 74,
                    "time": 332.1316066249993,
                    "velocity": 0.48031496062992124,
                    "duration": 0.07894737499998428
                },
                {
                    "name": "E5",
                    "midi": 76,
                    "time": 332.21055399999926,
                    "velocity": 0.49606299212598426,
                    "duration": 0.07894737499998428
                },
                {
                    "name": "F#5",
                    "midi": 78,
                    "time": 332.28950137499925,
                    "velocity": 0.49606299212598426,
                    "duration": 0.07894737499998428
                },
                {
                    "name": "G5",
                    "midi": 79,
                    "time": 332.36844874999923,
                    "velocity": 0.5039370078740157,
                    "duration": 0.03947368749999214
                },
                {
                    "name": "A5",
                    "midi": 81,
                    "time": 332.4079224374992,
                    "velocity": 0.5118110236220472,
                    "duration": 0.03947368749999214
                },
                {
                    "name": "B5",
                    "midi": 83,
                    "time": 332.4473961249992,
                    "velocity": 0.5196850393700787,
                    "duration": 0.03947368749999214
                },
                {
                    "name": "C#6",
                    "midi": 85,
                    "time": 332.4868698124992,
                    "velocity": 0.5433070866141733,
                    "duration": 0.03947368749999214
                },
                {
                    "name": "D6",
                    "midi": 86,
                    "time": 332.5263434999992,
                    "velocity": 0.6614173228346457,
                    "duration": 0.6315789999999879
                },
                {
                    "name": "G#4",
                    "midi": 68,
                    "time": 333.1579224999992,
                    "velocity": 0.33858267716535434,
                    "duration": 0.31578949999999395
                },
                {
                    "name": "B4",
                    "midi": 71,
                    "time": 333.1579224999992,
                    "velocity": 0.33858267716535434,
                    "duration": 0.31578949999999395
                },
                {
                    "name": "A4",
                    "midi": 69,
                    "time": 333.4737119999992,
                    "velocity": 0.3543307086614173,
                    "duration": 0.31578949999999395
                },
                {
                    "name": "C5",
                    "midi": 72,
                    "time": 333.4737119999992,
                    "velocity": 0.3543307086614173,
                    "duration": 0.31578949999999395
                },
                {
                    "name": "B4",
                    "midi": 71,
                    "time": 333.7895014999992,
                    "velocity": 0.3543307086614173,
                    "duration": 0.31578949999999395
                },
                {
                    "name": "D5",
                    "midi": 74,
                    "time": 333.7895014999992,
                    "velocity": 0.3543307086614173,
                    "duration": 0.31578949999999395
                },
                {
                    "name": "C5",
                    "midi": 72,
                    "time": 334.10529099999917,
                    "velocity": 0.31496062992125984,
                    "duration": 0.1578947500000254
                },
                {
                    "name": "E5",
                    "midi": 76,
                    "time": 334.10529099999917,
                    "velocity": 0.31496062992125984,
                    "duration": 0.1578947500000254
                },
                {
                    "name": "C5",
                    "midi": 72,
                    "time": 334.4210804999992,
                    "velocity": 0.28346456692913385,
                    "duration": 0.31578949999999395
                },
                {
                    "name": "E5",
                    "midi": 76,
                    "time": 334.4210804999992,
                    "velocity": 0.28346456692913385,
                    "duration": 0.31578949999999395
                },
                {
                    "name": "F#4",
                    "midi": 66,
                    "time": 335.0526594999992,
                    "velocity": 0.3543307086614173,
                    "duration": 0.31578949999999395
                },
                {
                    "name": "A4",
                    "midi": 69,
                    "time": 335.0526594999992,
                    "velocity": 0.3543307086614173,
                    "duration": 0.31578949999999395
                },
                {
                    "name": "G4",
                    "midi": 67,
                    "time": 335.3684489999992,
                    "velocity": 0.3700787401574803,
                    "duration": 0.31578949999999395
                },
                {
                    "name": "B4",
                    "midi": 71,
                    "time": 335.3684489999992,
                    "velocity": 0.3700787401574803,
                    "duration": 0.31578949999999395
                },
                {
                    "name": "A4",
                    "midi": 69,
                    "time": 335.6842384999992,
                    "velocity": 0.36220472440944884,
                    "duration": 0.31578949999999395
                },
                {
                    "name": "C5",
                    "midi": 72,
                    "time": 335.6842384999992,
                    "velocity": 0.36220472440944884,
                    "duration": 0.31578949999999395
                },
                {
                    "name": "B4",
                    "midi": 71,
                    "time": 336.0000279999992,
                    "velocity": 0.3228346456692913,
                    "duration": 0.1578947500000254
                },
                {
                    "name": "D5",
                    "midi": 74,
                    "time": 336.0000279999992,
                    "velocity": 0.3228346456692913,
                    "duration": 0.1578947500000254
                },
                {
                    "name": "B4",
                    "midi": 71,
                    "time": 336.31581749999924,
                    "velocity": 0.29133858267716534,
                    "duration": 0.31578949999999395
                },
                {
                    "name": "D5",
                    "midi": 74,
                    "time": 336.31581749999924,
                    "velocity": 0.29133858267716534,
                    "duration": 0.31578949999999395
                },
                {
                    "name": "G4",
                    "midi": 67,
                    "time": 336.94739649999923,
                    "velocity": 0.30708661417322836,
                    "duration": 0.31578949999999395
                },
                {
                    "name": "A4",
                    "midi": 69,
                    "time": 337.2631859999992,
                    "velocity": 0.33858267716535434,
                    "duration": 0.1578947500000254
                },
                {
                    "name": "B4",
                    "midi": 71,
                    "time": 337.5789754999993,
                    "velocity": 0.3464566929133858,
                    "duration": 0.1578947500000254
                },
                {
                    "name": "C5",
                    "midi": 72,
                    "time": 337.8947649999993,
                    "velocity": 0.3464566929133858,
                    "duration": 0.1578947500000254
                },
                {
                    "name": "D4",
                    "midi": 62,
                    "time": 338.2105544999994,
                    "velocity": 0.3464566929133858,
                    "duration": 0.1578947500000254
                },
                {
                    "name": "E4",
                    "midi": 64,
                    "time": 338.5263439999994,
                    "velocity": 0.33070866141732286,
                    "duration": 0.1578947500000254
                },
                {
                    "name": "F#4",
                    "midi": 66,
                    "time": 338.8421334999995,
                    "velocity": 0.33070866141732286,
                    "duration": 0.1578947500000254
                },
                {
                    "name": "B3",
                    "midi": 59,
                    "time": 340.07897570833285,
                    "velocity": 0.3700787401574803,
                    "duration": 0.3421052916666554
                },
                {
                    "name": "D4",
                    "midi": 62,
                    "time": 340.0921336041662,
                    "velocity": 0.4015748031496063,
                    "duration": 0.32894739583332466
                },
                {
                    "name": "G4",
                    "midi": 67,
                    "time": 340.1052914999995,
                    "velocity": 0.4251968503937008,
                    "duration": 0.31578949999999395
                },
                {
                    "name": "G5",
                    "midi": 79,
                    "time": 340.7368704999995,
                    "velocity": 0.33858267716535434,
                    "duration": 0.31578949999999395
                },
                {
                    "name": "F#5",
                    "midi": 78,
                    "time": 341.0526599999995,
                    "velocity": 0.33858267716535434,
                    "duration": 0.1578947500000254
                },
                {
                    "name": "G5",
                    "midi": 79,
                    "time": 341.2105547499995,
                    "velocity": 0.33858267716535434,
                    "duration": 0.11842106249997641
                },
                {
                    "name": "A5",
                    "midi": 81,
                    "time": 341.3684494999995,
                    "velocity": 0.3543307086614173,
                    "duration": 0.1578947500000254
                },
                {
                    "name": "G5",
                    "midi": 79,
                    "time": 341.5263442499995,
                    "velocity": 0.33858267716535434,
                    "duration": 0.11842106249997641
                },
                {
                    "name": "A5",
                    "midi": 81,
                    "time": 341.6842389999995,
                    "velocity": 0.36220472440944884,
                    "duration": 0.1578947500000254
                },
                {
                    "name": "G5",
                    "midi": 79,
                    "time": 341.8421337499995,
                    "velocity": 0.33858267716535434,
                    "duration": 0.11842106249997641
                },
                {
                    "name": "A5",
                    "midi": 81,
                    "time": 342.0000284999995,
                    "velocity": 0.36220472440944884,
                    "duration": 0.1578947500000254
                },
                {
                    "name": "G5",
                    "midi": 79,
                    "time": 342.1579232499995,
                    "velocity": 0.33858267716535434,
                    "duration": 0.11842106249997641
                },
                {
                    "name": "G5",
                    "midi": 79,
                    "time": 342.31581799999947,
                    "velocity": 0.36220472440944884,
                    "duration": 0.1578947500000254
                },
                {
                    "name": "F#5",
                    "midi": 78,
                    "time": 342.4737127499995,
                    "velocity": 0.33858267716535434,
                    "duration": 0.11842106249997641
                },
                {
                    "name": "F#5",
                    "midi": 78,
                    "time": 342.63160749999946,
                    "velocity": 0.3543307086614173,
                    "duration": 0.1578947500000254
                },
                {
                    "name": "E5",
                    "midi": 76,
                    "time": 342.7895022499995,
                    "velocity": 0.33858267716535434,
                    "duration": 0.11842106249997641
                },
                {
                    "name": "E5",
                    "midi": 76,
                    "time": 342.94739699999946,
                    "velocity": 0.3700787401574803,
                    "duration": 0.1578947500000254
                },
                {
                    "name": "D5",
                    "midi": 74,
                    "time": 343.1052917499995,
                    "velocity": 0.3543307086614173,
                    "duration": 0.11842106249997641
                },
                {
                    "name": "D5",
                    "midi": 74,
                    "time": 343.26318649999945,
                    "velocity": 0.3464566929133858,
                    "duration": 0.07894737499998428
                },
                {
                    "name": "D5",
                    "midi": 74,
                    "time": 343.4210812499994,
                    "velocity": 0.3543307086614173,
                    "duration": 0.07894737499998428
                },
                {
                    "name": "D5",
                    "midi": 74,
                    "time": 343.5789759999994,
                    "velocity": 0.3543307086614173,
                    "duration": 0.07894737499998428
                },
                {
                    "name": "D5",
                    "midi": 74,
                    "time": 343.73687074999935,
                    "velocity": 0.36220472440944884,
                    "duration": 0.07894737499998428
                },
                {
                    "name": "E5",
                    "midi": 76,
                    "time": 343.8947654999993,
                    "velocity": 0.4015748031496063,
                    "duration": 0.1578947500000254
                },
                {
                    "name": "D#5",
                    "midi": 75,
                    "time": 344.05266024999935,
                    "velocity": 0.3700787401574803,
                    "duration": 0.1578947500000254
                },
                {
                    "name": "D#5",
                    "midi": 75,
                    "time": 344.2105549999994,
                    "velocity": 0.3700787401574803,
                    "duration": 0.07894737499998428
                },
                {
                    "name": "D#5",
                    "midi": 75,
                    "time": 344.36844974999934,
                    "velocity": 0.3700787401574803,
                    "duration": 0.07894737499998428
                },
                {
                    "name": "D#5",
                    "midi": 75,
                    "time": 344.5263444999993,
                    "velocity": 0.3700787401574803,
                    "duration": 0.07894737499998428
                },
                {
                    "name": "D#5",
                    "midi": 75,
                    "time": 344.6842392499993,
                    "velocity": 0.3700787401574803,
                    "duration": 0.07894737499998428
                },
                {
                    "name": "D#5",
                    "midi": 75,
                    "time": 344.84213399999925,
                    "velocity": 0.4094488188976378,
                    "duration": 0.1578947500000254
                },
                {
                    "name": "E5",
                    "midi": 76,
                    "time": 345.0000287499993,
                    "velocity": 0.3858267716535433,
                    "duration": 0.1578947500000254
                },
                {
                    "name": "F#5",
                    "midi": 78,
                    "time": 345.1579234999993,
                    "velocity": 0.3858267716535433,
                    "duration": 0.1578947500000254
                },
                {
                    "name": "E5",
                    "midi": 76,
                    "time": 345.3158182499993,
                    "velocity": 0.3858267716535433,
                    "duration": 0.1578947500000254
                },
                {
                    "name": "G5",
                    "midi": 79,
                    "time": 345.47371299999935,
                    "velocity": 0.4094488188976378,
                    "duration": 0.1578947500000254
                },
                {
                    "name": "F#5",
                    "midi": 78,
                    "time": 345.6316077499994,
                    "velocity": 0.3858267716535433,
                    "duration": 0.1578947500000254
                },
                {
                    "name": "A5",
                    "midi": 81,
                    "time": 345.7895024999994,
                    "velocity": 0.3937007874015748,
                    "duration": 0.1578947500000254
                },
                {
                    "name": "G5",
                    "midi": 79,
                    "time": 345.9473972499994,
                    "velocity": 0.4015748031496063,
                    "duration": 0.1578947500000254
                },
                {
                    "name": "F#5",
                    "midi": 78,
                    "time": 346.10529199999945,
                    "velocity": 0.4094488188976378,
                    "duration": 0.1578947500000254
                },
                {
                    "name": "E5",
                    "midi": 76,
                    "time": 346.2631867499995,
                    "velocity": 0.4094488188976378,
                    "duration": 0.1578947500000254
                },
                {
                    "name": "D5",
                    "midi": 74,
                    "time": 346.4210814999995,
                    "velocity": 0.41732283464566927,
                    "duration": 0.1578947500000254
                },
                {
                    "name": "C#5",
                    "midi": 73,
                    "time": 346.5789762499995,
                    "velocity": 0.4251968503937008,
                    "duration": 0.1578947500000254
                },
                {
                    "name": "D5",
                    "midi": 74,
                    "time": 346.73687099999955,
                    "velocity": 0.5984251968503937,
                    "duration": 0.1578947500000254
                },
                {
                    "name": "D6",
                    "midi": 86,
                    "time": 346.8947657499996,
                    "velocity": 0.48031496062992124,
                    "duration": 0.1578947500000254
                },
                {
                    "name": "D5",
                    "midi": 74,
                    "time": 347.0526604999996,
                    "velocity": 0.44881889763779526,
                    "duration": 0.07894737499998428
                },
                {
                    "name": "D5",
                    "midi": 74,
                    "time": 347.2105552499996,
                    "velocity": 0.44881889763779526,
                    "duration": 0.07894737499998428
                },
                {
                    "name": "D5",
                    "midi": 74,
                    "time": 347.36844999999954,
                    "velocity": 0.44881889763779526,
                    "duration": 0.07894737499998428
                },
                {
                    "name": "D5",
                    "midi": 74,
                    "time": 347.5263447499995,
                    "velocity": 0.44881889763779526,
                    "duration": 0.07894737499998428
                },
                {
                    "name": "D5",
                    "midi": 74,
                    "time": 347.6842394999995,
                    "velocity": 0.6062992125984252,
                    "duration": 0.1578947500000254
                },
                {
                    "name": "D6",
                    "midi": 86,
                    "time": 347.8421342499995,
                    "velocity": 0.48031496062992124,
                    "duration": 0.1578947500000254
                },
                {
                    "name": "D5",
                    "midi": 74,
                    "time": 348.00002899999953,
                    "velocity": 0.44881889763779526,
                    "duration": 0.07894737499998428
                },
                {
                    "name": "D5",
                    "midi": 74,
                    "time": 348.1579237499995,
                    "velocity": 0.44881889763779526,
                    "duration": 0.07894737499998428
                },
                {
                    "name": "D5",
                    "midi": 74,
                    "time": 348.31581849999947,
                    "velocity": 0.44881889763779526,
                    "duration": 0.07894737499998428
                },
                {
                    "name": "D5",
                    "midi": 74,
                    "time": 348.47371324999943,
                    "velocity": 0.44881889763779526,
                    "duration": 0.07894737499998428
                },
                {
                    "name": "D5",
                    "midi": 74,
                    "time": 348.6316079999994,
                    "velocity": 0.5905511811023622,
                    "duration": 0.07894737499998428
                },
                {
                    "name": "F#5",
                    "midi": 78,
                    "time": 348.7105553749994,
                    "velocity": 0.4330708661417323,
                    "duration": 0.07894737499998428
                },
                {
                    "name": "A5",
                    "midi": 81,
                    "time": 348.7895027499994,
                    "velocity": 0.48031496062992124,
                    "duration": 0.07894737499998428
                },
                {
                    "name": "D6",
                    "midi": 86,
                    "time": 348.86845012499936,
                    "velocity": 0.4330708661417323,
                    "duration": 0.07894737499998428
                },
                {
                    "name": "D5",
                    "midi": 74,
                    "time": 348.94739749999934,
                    "velocity": 0.44881889763779526,
                    "duration": 0.07894737499998428
                },
                {
                    "name": "D5",
                    "midi": 74,
                    "time": 349.1052922499993,
                    "velocity": 0.44881889763779526,
                    "duration": 0.07894737499998428
                },
                {
                    "name": "D5",
                    "midi": 74,
                    "time": 349.2631869999993,
                    "velocity": 0.44881889763779526,
                    "duration": 0.07894737499998428
                },
                {
                    "name": "D5",
                    "midi": 74,
                    "time": 349.42108174999925,
                    "velocity": 0.44881889763779526,
                    "duration": 0.07894737499998428
                },
                {
                    "name": "D5",
                    "midi": 74,
                    "time": 349.5789764999992,
                    "velocity": 0.5748031496062992,
                    "duration": 0.07894737499998428
                },
                {
                    "name": "F#5",
                    "midi": 78,
                    "time": 349.6579238749992,
                    "velocity": 0.4251968503937008,
                    "duration": 0.07894737499998428
                },
                {
                    "name": "A5",
                    "midi": 81,
                    "time": 349.7368712499992,
                    "velocity": 0.47244094488188976,
                    "duration": 0.07894737499998428
                },
                {
                    "name": "D6",
                    "midi": 86,
                    "time": 349.81581862499917,
                    "velocity": 0.4251968503937008,
                    "duration": 0.07894737499998428
                },
                {
                    "name": "D5",
                    "midi": 74,
                    "time": 349.89476599999915,
                    "velocity": 0.44881889763779526,
                    "duration": 0.07894737499998428
                },
                {
                    "name": "D5",
                    "midi": 74,
                    "time": 350.0526607499991,
                    "velocity": 0.44881889763779526,
                    "duration": 0.07894737499998428
                },
                {
                    "name": "D5",
                    "midi": 74,
                    "time": 350.2105554999991,
                    "velocity": 0.44881889763779526,
                    "duration": 0.07894737499998428
                },
                {
                    "name": "D5",
                    "midi": 74,
                    "time": 350.36845024999906,
                    "velocity": 0.44881889763779526,
                    "duration": 0.07894737499998428
                },
                {
                    "name": "D5",
                    "midi": 74,
                    "time": 350.526344999999,
                    "velocity": 0.5669291338582677,
                    "duration": 0.1578947500000254
                },
                {
                    "name": "D6",
                    "midi": 86,
                    "time": 350.68423974999905,
                    "velocity": 0.4645669291338583,
                    "duration": 0.1578947500000254
                },
                {
                    "name": "D6",
                    "midi": 86,
                    "time": 350.8421344999991,
                    "velocity": 0.44881889763779526,
                    "duration": 0.07894737499998428
                },
                {
                    "name": "D6",
                    "midi": 86,
                    "time": 351.00002924999905,
                    "velocity": 0.44881889763779526,
                    "duration": 0.07894737499998428
                },
                {
                    "name": "D6",
                    "midi": 86,
                    "time": 351.157923999999,
                    "velocity": 0.44881889763779526,
                    "duration": 0.07894737499998428
                },
                {
                    "name": "D6",
                    "midi": 86,
                    "time": 351.315818749999,
                    "velocity": 0.44881889763779526,
                    "duration": 0.07894737499998428
                },
                {
                    "name": "C#6",
                    "midi": 85,
                    "time": 351.47371349999895,
                    "velocity": 0.5118110236220472,
                    "duration": 0.1578947500000254
                },
                {
                    "name": "D6",
                    "midi": 86,
                    "time": 351.631608249999,
                    "velocity": 0.4645669291338583,
                    "duration": 0.1578947500000254
                },
                {
                    "name": "D6",
                    "midi": 86,
                    "time": 351.789502999999,
                    "velocity": 0.44881889763779526,
                    "duration": 0.07894737499998428
                },
                {
                    "name": "D6",
                    "midi": 86,
                    "time": 351.94739774999897,
                    "velocity": 0.44881889763779526,
                    "duration": 0.07894737499998428
                },
                {
                    "name": "D6",
                    "midi": 86,
                    "time": 352.10529249999894,
                    "velocity": 0.44881889763779526,
                    "duration": 0.07894737499998428
                },
                {
                    "name": "D6",
                    "midi": 86,
                    "time": 352.2631872499989,
                    "velocity": 0.44881889763779526,
                    "duration": 0.07894737499998428
                },
                {
                    "name": "D#6",
                    "midi": 87,
                    "time": 352.4210819999989,
                    "velocity": 0.5669291338582677,
                    "duration": 0.1578947500000254
                },
                {
                    "name": "D6",
                    "midi": 86,
                    "time": 352.5789767499989,
                    "velocity": 0.4645669291338583,
                    "duration": 0.1578947500000254
                },
                {
                    "name": "D6",
                    "midi": 86,
                    "time": 352.7368714999989,
                    "velocity": 0.44881889763779526,
                    "duration": 0.07894737499998428
                },
                {
                    "name": "D6",
                    "midi": 86,
                    "time": 352.8947662499989,
                    "velocity": 0.44881889763779526,
                    "duration": 0.07894737499998428
                },
                {
                    "name": "D6",
                    "midi": 86,
                    "time": 353.05266099999886,
                    "velocity": 0.44881889763779526,
                    "duration": 0.07894737499998428
                },
                {
                    "name": "D6",
                    "midi": 86,
                    "time": 353.21055574999883,
                    "velocity": 0.44881889763779526,
                    "duration": 0.07894737499998428
                },
                {
                    "name": "C#6",
                    "midi": 85,
                    "time": 353.3684504999988,
                    "velocity": 0.5354330708661418,
                    "duration": 0.1578947500000254
                },
                {
                    "name": "D6",
                    "midi": 86,
                    "time": 353.5263452499988,
                    "velocity": 0.4645669291338583,
                    "duration": 0.1578947500000254
                },
                {
                    "name": "D6",
                    "midi": 86,
                    "time": 353.68423999999885,
                    "velocity": 0.44881889763779526,
                    "duration": 0.07894737499998428
                },
                {
                    "name": "D6",
                    "midi": 86,
                    "time": 353.8421347499988,
                    "velocity": 0.44881889763779526,
                    "duration": 0.07894737499998428
                },
                {
                    "name": "D6",
                    "midi": 86,
                    "time": 354.0000294999988,
                    "velocity": 0.44881889763779526,
                    "duration": 0.07894737499998428
                },
                {
                    "name": "D6",
                    "midi": 86,
                    "time": 354.15792424999876,
                    "velocity": 0.44881889763779526,
                    "duration": 0.07894737499998428
                },
                {
                    "name": "D6",
                    "midi": 86,
                    "time": 354.3158189999987,
                    "velocity": 0.4566929133858268,
                    "duration": 0.07894737499998428
                },
                {
                    "name": "D6",
                    "midi": 86,
                    "time": 354.4737137499987,
                    "velocity": 0.44881889763779526,
                    "duration": 0.07894737499998428
                },
                {
                    "name": "D6",
                    "midi": 86,
                    "time": 354.63160849999866,
                    "velocity": 0.4409448818897638,
                    "duration": 0.07894737499998428
                },
                {
                    "name": "D6",
                    "midi": 86,
                    "time": 354.78950324999863,
                    "velocity": 0.4330708661417323,
                    "duration": 0.07894737499998428
                },
                {
                    "name": "D6",
                    "midi": 86,
                    "time": 354.9473979999986,
                    "velocity": 0.4251968503937008,
                    "duration": 0.07894737499998428
                },
                {
                    "name": "D6",
                    "midi": 86,
                    "time": 355.10529274999857,
                    "velocity": 0.4251968503937008,
                    "duration": 0.07894737499998428
                },
                {
                    "name": "D6",
                    "midi": 86,
                    "time": 355.26318749999854,
                    "velocity": 0.4251968503937008,
                    "duration": 0.1578947500000254
                },
                {
                    "name": "D6",
                    "midi": 86,
                    "time": 355.5789769999986,
                    "velocity": 0.4094488188976378,
                    "duration": 0.1578947500000254
                },
                {
                    "name": "D6",
                    "midi": 86,
                    "time": 355.89476649999864,
                    "velocity": 0.4094488188976378,
                    "duration": 0.1578947500000254
                },
                {
                    "name": "C6",
                    "midi": 84,
                    "time": 356.2105559999987,
                    "velocity": 0.4015748031496063,
                    "duration": 0.1578947500000254
                },
                {
                    "name": "D6",
                    "midi": 86,
                    "time": 356.2105559999987,
                    "velocity": 0.4015748031496063,
                    "duration": 0.1578947500000254
                },
                {
                    "name": "C6",
                    "midi": 84,
                    "time": 356.52634549999874,
                    "velocity": 0.3858267716535433,
                    "duration": 0.1578947500000254
                },
                {
                    "name": "D6",
                    "midi": 86,
                    "time": 356.52634549999874,
                    "velocity": 0.3858267716535433,
                    "duration": 0.1578947500000254
                },
                {
                    "name": "C6",
                    "midi": 84,
                    "time": 356.8421349999988,
                    "velocity": 0.3858267716535433,
                    "duration": 0.1578947500000254
                },
                {
                    "name": "D6",
                    "midi": 86,
                    "time": 356.8421349999988,
                    "velocity": 0.3858267716535433,
                    "duration": 0.1578947500000254
                },
                {
                    "name": "C6",
                    "midi": 84,
                    "time": 357.15792449999884,
                    "velocity": 0.36220472440944884,
                    "duration": 0.23684212500000967
                },
                {
                    "name": "D6",
                    "midi": 86,
                    "time": 357.15792449999884,
                    "velocity": 0.36220472440944884,
                    "duration": 0.23684212500000967
                },
                {
                    "name": "C6",
                    "midi": 84,
                    "time": 357.47371399999884,
                    "velocity": 0.3543307086614173,
                    "duration": 0.23684212500000967
                },
                {
                    "name": "D6",
                    "midi": 86,
                    "time": 357.47371399999884,
                    "velocity": 0.3543307086614173,
                    "duration": 0.23684212500000967
                },
                {
                    "name": "C6",
                    "midi": 84,
                    "time": 357.78950349999883,
                    "velocity": 0.3543307086614173,
                    "duration": 0.23684212500000967
                },
                {
                    "name": "D6",
                    "midi": 86,
                    "time": 357.78950349999883,
                    "velocity": 0.3543307086614173,
                    "duration": 0.23684212500000967
                },
                {
                    "name": "C6",
                    "midi": 84,
                    "time": 358.1052929999988,
                    "velocity": 0.33070866141732286,
                    "duration": 0.31578949999999395
                },
                {
                    "name": "D6",
                    "midi": 86,
                    "time": 358.1052929999988,
                    "velocity": 0.33070866141732286,
                    "duration": 0.31578949999999395
                },
                {
                    "name": "C6",
                    "midi": 84,
                    "time": 358.4210824999988,
                    "velocity": 0.31496062992125984,
                    "duration": 0.31578949999999395
                },
                {
                    "name": "D6",
                    "midi": 86,
                    "time": 358.4210824999988,
                    "velocity": 0.31496062992125984,
                    "duration": 0.31578949999999395
                },
                {
                    "name": "C6",
                    "midi": 84,
                    "time": 358.7368719999988,
                    "velocity": 0.29133858267716534,
                    "duration": 0.31578949999999395
                },
                {
                    "name": "D6",
                    "midi": 86,
                    "time": 358.7368719999988,
                    "velocity": 0.29133858267716534,
                    "duration": 0.31578949999999395
                },
                {
                    "name": "C6",
                    "midi": 84,
                    "time": 359.0526614999988,
                    "velocity": 0.28346456692913385,
                    "duration": 0.9473684999999819
                },
                {
                    "name": "D6",
                    "midi": 86,
                    "time": 359.0526614999988,
                    "velocity": 0.28346456692913385,
                    "duration": 0.9473684999999819
                },
                {
                    "name": "C5",
                    "midi": 72,
                    "time": 360.6316089999988,
                    "velocity": 0.2440944881889764,
                    "duration": 0.31578949999999395
                },
                {
                    "name": "D5",
                    "midi": 74,
                    "time": 360.6316089999988,
                    "velocity": 0.2440944881889764,
                    "duration": 0.31578949999999395
                },
                {
                    "name": "D5",
                    "midi": 74,
                    "time": 360.94739849999877,
                    "velocity": 0.2440944881889764,
                    "duration": 0.6315789999999879
                },
                {
                    "name": "C5",
                    "midi": 72,
                    "time": 360.94739849999877,
                    "velocity": 0.2440944881889764,
                    "duration": 0.6315789999999879
                },
                {
                    "name": "G4",
                    "midi": 67,
                    "time": 361.57897749999876,
                    "velocity": 0.36220472440944884,
                    "duration": 0.31578949999999395
                },
                {
                    "name": "G4",
                    "midi": 67,
                    "time": 361.89476699999875,
                    "velocity": 0.3858267716535433,
                    "duration": 0.5526316250000036
                },
                {
                    "name": "B4",
                    "midi": 71,
                    "time": 362.44739862499875,
                    "velocity": 0.3700787401574803,
                    "duration": 0.07894737499998428
                },
                {
                    "name": "A4",
                    "midi": 69,
                    "time": 362.52634599999874,
                    "velocity": 0.3700787401574803,
                    "duration": 0.31578949999999395
                },
                {
                    "name": "D4",
                    "midi": 62,
                    "time": 362.84213549999873,
                    "velocity": 0.3858267716535433,
                    "duration": 0.31578949999999395
                },
                {
                    "name": "E4",
                    "midi": 64,
                    "time": 363.1579249999987,
                    "velocity": 0.3543307086614173,
                    "duration": 0.31578949999999395
                },
                {
                    "name": "F#4",
                    "midi": 66,
                    "time": 363.4737144999987,
                    "velocity": 0.3543307086614173,
                    "duration": 0.1578947500000254
                },
                {
                    "name": "G4",
                    "midi": 67,
                    "time": 363.63160924999875,
                    "velocity": 0.3543307086614173,
                    "duration": 0.03947368749999214
                },
                {
                    "name": "F#4",
                    "midi": 66,
                    "time": 363.67108293749874,
                    "velocity": 0.3543307086614173,
                    "duration": 0.03947368749999214
                },
                {
                    "name": "E4",
                    "midi": 64,
                    "time": 363.71055662499873,
                    "velocity": 0.3543307086614173,
                    "duration": 0.03947368749999214
                },
                {
                    "name": "F#4",
                    "midi": 66,
                    "time": 363.7500303124987,
                    "velocity": 0.3543307086614173,
                    "duration": 0.03947368749999214
                },
                {
                    "name": "G4",
                    "midi": 67,
                    "time": 363.7895039999987,
                    "velocity": 0.36220472440944884,
                    "duration": 0.11842106249997641
                },
                {
                    "name": "G4",
                    "midi": 67,
                    "time": 364.1052934999987,
                    "velocity": 0.3543307086614173,
                    "duration": 0.11842106249997641
                },
                {
                    "name": "G4",
                    "midi": 67,
                    "time": 364.4210829999987,
                    "velocity": 0.3543307086614173,
                    "duration": 0.11842106249997641
                },
                {
                    "name": "G4",
                    "midi": 67,
                    "time": 364.7368724999987,
                    "velocity": 0.3543307086614173,
                    "duration": 0.6315789999999879
                },
                {
                    "name": "D4",
                    "midi": 62,
                    "time": 365.3684514999987,
                    "velocity": 0.4409448818897638,
                    "duration": 0.31578949999999395
                },
                {
                    "name": "F#4",
                    "midi": 66,
                    "time": 365.3684514999987,
                    "velocity": 0.4409448818897638,
                    "duration": 0.31578949999999395
                },
                {
                    "name": "A4",
                    "midi": 69,
                    "time": 365.3684514999987,
                    "velocity": 0.4409448818897638,
                    "duration": 0.31578949999999395
                },
                {
                    "name": "D4",
                    "midi": 62,
                    "time": 365.6842409999987,
                    "velocity": 0.47244094488188976,
                    "duration": 0.31578949999999395
                },
                {
                    "name": "G4",
                    "midi": 67,
                    "time": 365.6842409999987,
                    "velocity": 0.47244094488188976,
                    "duration": 0.31578949999999395
                },
                {
                    "name": "B4",
                    "midi": 71,
                    "time": 365.6842409999987,
                    "velocity": 0.47244094488188976,
                    "duration": 0.31578949999999395
                },
                {
                    "name": "D4",
                    "midi": 62,
                    "time": 366.2763463124987,
                    "velocity": 0.4094488188976378,
                    "duration": 0.2631579166666711
                },
                {
                    "name": "G4",
                    "midi": 67,
                    "time": 366.289504208332,
                    "velocity": 0.4251968503937008,
                    "duration": 0.2500000208333404
                },
                {
                    "name": "B4",
                    "midi": 71,
                    "time": 366.30266210416534,
                    "velocity": 0.44881889763779526,
                    "duration": 0.23684212500000967
                },
                {
                    "name": "D5",
                    "midi": 74,
                    "time": 366.31581999999867,
                    "velocity": 0.48031496062992124,
                    "duration": 0.22368422916667896
                },
                {
                    "name": "D4",
                    "midi": 62,
                    "time": 366.59213581249867,
                    "velocity": 0.41732283464566927,
                    "duration": 0.67105268749998
                },
                {
                    "name": "F#4",
                    "midi": 66,
                    "time": 366.605293708332,
                    "velocity": 0.4330708661417323,
                    "duration": 0.6578947916666493
                },
                {
                    "name": "A4",
                    "midi": 69,
                    "time": 366.61845160416533,
                    "velocity": 0.44881889763779526,
                    "duration": 0.6447368958333186
                },
                {
                    "name": "C5",
                    "midi": 72,
                    "time": 366.63160949999866,
                    "velocity": 0.48031496062992124,
                    "duration": 0.6315789999999879
                },
                {
                    "name": "D4",
                    "midi": 62,
                    "time": 367.26318849999865,
                    "velocity": 0.4251968503937008,
                    "duration": 0.31578949999999395
                },
                {
                    "name": "G4",
                    "midi": 67,
                    "time": 367.26318849999865,
                    "velocity": 0.4251968503937008,
                    "duration": 0.31578949999999395
                },
                {
                    "name": "B4",
                    "midi": 71,
                    "time": 367.26318849999865,
                    "velocity": 0.4251968503937008,
                    "duration": 0.31578949999999395
                },
                {
                    "name": "A4",
                    "midi": 69,
                    "time": 367.89476749999864,
                    "velocity": 0.4409448818897638,
                    "duration": 0.07894737499998428
                },
                {
                    "name": "B4",
                    "midi": 71,
                    "time": 367.9737148749986,
                    "velocity": 0.4645669291338583,
                    "duration": 0.07894737499998428
                },
                {
                    "name": "C#5",
                    "midi": 73,
                    "time": 368.0526622499986,
                    "velocity": 0.47244094488188976,
                    "duration": 0.07894737499998428
                },
                {
                    "name": "D5",
                    "midi": 74,
                    "time": 368.1316096249986,
                    "velocity": 0.48031496062992124,
                    "duration": 0.07894737499998428
                },
                {
                    "name": "E5",
                    "midi": 76,
                    "time": 368.2105569999986,
                    "velocity": 0.49606299212598426,
                    "duration": 0.07894737499998428
                },
                {
                    "name": "F#5",
                    "midi": 78,
                    "time": 368.28950437499856,
                    "velocity": 0.49606299212598426,
                    "duration": 0.07894737499998428
                },
                {
                    "name": "G5",
                    "midi": 79,
                    "time": 368.36845174999854,
                    "velocity": 0.5039370078740157,
                    "duration": 0.03947368749999214
                },
                {
                    "name": "A5",
                    "midi": 81,
                    "time": 368.40792543749853,
                    "velocity": 0.5118110236220472,
                    "duration": 0.03947368749999214
                },
                {
                    "name": "B5",
                    "midi": 83,
                    "time": 368.4473991249985,
                    "velocity": 0.5196850393700787,
                    "duration": 0.03947368749999214
                },
                {
                    "name": "C#6",
                    "midi": 85,
                    "time": 368.4868728124985,
                    "velocity": 0.5433070866141733,
                    "duration": 0.03947368749999214
                },
                {
                    "name": "D6",
                    "midi": 86,
                    "time": 368.5263464999985,
                    "velocity": 0.6614173228346457,
                    "duration": 0.6315789999999879
                },
                {
                    "name": "G#4",
                    "midi": 68,
                    "time": 369.1579254999985,
                    "velocity": 0.33858267716535434,
                    "duration": 0.31578949999999395
                },
                {
                    "name": "B4",
                    "midi": 71,
                    "time": 369.1579254999985,
                    "velocity": 0.33858267716535434,
                    "duration": 0.31578949999999395
                },
                {
                    "name": "A4",
                    "midi": 69,
                    "time": 369.4737149999985,
                    "velocity": 0.3543307086614173,
                    "duration": 0.31578949999999395
                },
                {
                    "name": "C5",
                    "midi": 72,
                    "time": 369.4737149999985,
                    "velocity": 0.3543307086614173,
                    "duration": 0.31578949999999395
                },
                {
                    "name": "B4",
                    "midi": 71,
                    "time": 369.7895044999985,
                    "velocity": 0.3543307086614173,
                    "duration": 0.31578949999999395
                },
                {
                    "name": "D5",
                    "midi": 74,
                    "time": 369.7895044999985,
                    "velocity": 0.3543307086614173,
                    "duration": 0.31578949999999395
                },
                {
                    "name": "C5",
                    "midi": 72,
                    "time": 370.1052939999985,
                    "velocity": 0.31496062992125984,
                    "duration": 0.1578947500000254
                },
                {
                    "name": "E5",
                    "midi": 76,
                    "time": 370.1052939999985,
                    "velocity": 0.31496062992125984,
                    "duration": 0.1578947500000254
                },
                {
                    "name": "C5",
                    "midi": 72,
                    "time": 370.42108349999853,
                    "velocity": 0.28346456692913385,
                    "duration": 0.31578949999999395
                },
                {
                    "name": "E5",
                    "midi": 76,
                    "time": 370.42108349999853,
                    "velocity": 0.28346456692913385,
                    "duration": 0.31578949999999395
                },
                {
                    "name": "F#4",
                    "midi": 66,
                    "time": 371.0526624999985,
                    "velocity": 0.3543307086614173,
                    "duration": 0.31578949999999395
                },
                {
                    "name": "A4",
                    "midi": 69,
                    "time": 371.0526624999985,
                    "velocity": 0.3543307086614173,
                    "duration": 0.31578949999999395
                },
                {
                    "name": "G4",
                    "midi": 67,
                    "time": 371.3684519999985,
                    "velocity": 0.3700787401574803,
                    "duration": 0.31578949999999395
                },
                {
                    "name": "B4",
                    "midi": 71,
                    "time": 371.3684519999985,
                    "velocity": 0.3700787401574803,
                    "duration": 0.31578949999999395
                },
                {
                    "name": "A4",
                    "midi": 69,
                    "time": 371.6842414999985,
                    "velocity": 0.36220472440944884,
                    "duration": 0.31578949999999395
                },
                {
                    "name": "C5",
                    "midi": 72,
                    "time": 371.6842414999985,
                    "velocity": 0.36220472440944884,
                    "duration": 0.31578949999999395
                },
                {
                    "name": "B4",
                    "midi": 71,
                    "time": 372.0000309999985,
                    "velocity": 0.3228346456692913,
                    "duration": 0.1578947500000254
                },
                {
                    "name": "D5",
                    "midi": 74,
                    "time": 372.0000309999985,
                    "velocity": 0.3228346456692913,
                    "duration": 0.1578947500000254
                },
                {
                    "name": "B4",
                    "midi": 71,
                    "time": 372.31582049999855,
                    "velocity": 0.29133858267716534,
                    "duration": 0.31578949999999395
                },
                {
                    "name": "D5",
                    "midi": 74,
                    "time": 372.31582049999855,
                    "velocity": 0.29133858267716534,
                    "duration": 0.31578949999999395
                },
                {
                    "name": "G4",
                    "midi": 67,
                    "time": 372.94739949999854,
                    "velocity": 0.30708661417322836,
                    "duration": 0.31578949999999395
                },
                {
                    "name": "A4",
                    "midi": 69,
                    "time": 373.26318899999853,
                    "velocity": 0.33858267716535434,
                    "duration": 0.1578947500000254
                },
                {
                    "name": "B4",
                    "midi": 71,
                    "time": 373.5789784999986,
                    "velocity": 0.3464566929133858,
                    "duration": 0.1578947500000254
                },
                {
                    "name": "C5",
                    "midi": 72,
                    "time": 373.89476799999863,
                    "velocity": 0.3464566929133858,
                    "duration": 0.1578947500000254
                },
                {
                    "name": "D4",
                    "midi": 62,
                    "time": 374.2105574999987,
                    "velocity": 0.3464566929133858,
                    "duration": 0.1578947500000254
                },
                {
                    "name": "E4",
                    "midi": 64,
                    "time": 374.52634699999874,
                    "velocity": 0.33070866141732286,
                    "duration": 0.1578947500000254
                },
                {
                    "name": "F#4",
                    "midi": 66,
                    "time": 374.8421364999988,
                    "velocity": 0.33070866141732286,
                    "duration": 0.1578947500000254
                },
                {
                    "name": "B3",
                    "midi": 59,
                    "time": 376.07897870833216,
                    "velocity": 0.3937007874015748,
                    "duration": 0.3421052916666554
                },
                {
                    "name": "D4",
                    "midi": 62,
                    "time": 376.0921366041655,
                    "velocity": 0.3937007874015748,
                    "duration": 0.32894739583332466
                },
                {
                    "name": "G4",
                    "midi": 67,
                    "time": 376.1052944999988,
                    "velocity": 0.4330708661417323,
                    "duration": 0.31578949999999395
                }
            ],
            "controlChanges": {
                "7": [
                    {
                        "number": 7,
                        "time": 0,
                        "value": 0.7874015748031497
                    }
                ],
                "10": [
                    {
                        "number": 10,
                        "time": 0,
                        "value": 0.5039370078740157
                    }
                ],
                "91": [
                    {
                        "number": 91,
                        "time": 0,
                        "value": 1
                    },
                    {
                        "number": 91,
                        "time": 1.5776317104166668,
                        "value": 1
                    },
                    {
                        "number": 91,
                        "time": 92.84211299999961,
                        "value": 1
                    },
                    {
                        "number": 91,
                        "time": 104.21053499999951,
                        "value": 1
                    },
                    {
                        "number": 91,
                        "time": 115.5789569999994,
                        "value": 1
                    },
                    {
                        "number": 91,
                        "time": 126.94737899999924,
                        "value": 1
                    },
                    {
                        "number": 91,
                        "time": 229.26317699999785,
                        "value": 1
                    },
                    {
                        "number": 91,
                        "time": 240.63159899999786,
                        "value": 1
                    },
                    {
                        "number": 91,
                        "time": 252.00002099999787,
                        "value": 1
                    },
                    {
                        "number": 91,
                        "time": 263.36844299999865,
                        "value": 1
                    }
                ]
            },
            "id": 1,
            "name": "Piano right",
            "instrumentNumber": 0,
            "instrument": "acoustic grand piano",
            "instrumentFamily": "piano",
            "channelNumber": 0,
            "isPercussion": false
        },
        {
            "startTime": 1.5789475000000002,
            "duration": 376.421083999997,
            "length": 1384,
            "notes": [
                {
                    "name": "B3",
                    "midi": 59,
                    "time": 1.5789475000000002,
                    "velocity": 0.2992125984251969,
                    "duration": 0.31578949999999995
                },
                {
                    "name": "G3",
                    "midi": 55,
                    "time": 1.5789475000000002,
                    "velocity": 0.2992125984251969,
                    "duration": 0.31578949999999995
                },
                {
                    "name": "G3",
                    "midi": 55,
                    "time": 1.8947370000000001,
                    "velocity": 0.31496062992125984,
                    "duration": 0.6315789999999999
                },
                {
                    "name": "B3",
                    "midi": 59,
                    "time": 1.8947370000000001,
                    "velocity": 0.31496062992125984,
                    "duration": 0.6315789999999999
                },
                {
                    "name": "G3",
                    "midi": 55,
                    "time": 2.526316,
                    "velocity": 0.2992125984251969,
                    "duration": 0.31578950000000017
                },
                {
                    "name": "C4",
                    "midi": 60,
                    "time": 2.526316,
                    "velocity": 0.2992125984251969,
                    "duration": 0.31578950000000017
                },
                {
                    "name": "G3",
                    "midi": 55,
                    "time": 2.8421055,
                    "velocity": 0.31496062992125984,
                    "duration": 0.6315789999999999
                },
                {
                    "name": "C4",
                    "midi": 60,
                    "time": 2.8421055,
                    "velocity": 0.31496062992125984,
                    "duration": 0.6315789999999999
                },
                {
                    "name": "G3",
                    "midi": 55,
                    "time": 3.4736845,
                    "velocity": 0.2992125984251969,
                    "duration": 0.31578950000000017
                },
                {
                    "name": "C4",
                    "midi": 60,
                    "time": 3.4736845,
                    "velocity": 0.2992125984251969,
                    "duration": 0.31578950000000017
                },
                {
                    "name": "G3",
                    "midi": 55,
                    "time": 3.7894740000000002,
                    "velocity": 0.29133858267716534,
                    "duration": 0.11842106249999995
                },
                {
                    "name": "B3",
                    "midi": 59,
                    "time": 3.7894740000000002,
                    "velocity": 0.29133858267716534,
                    "duration": 0.11842106249999995
                },
                {
                    "name": "G3",
                    "midi": 55,
                    "time": 4.1052635,
                    "velocity": 0.28346456692913385,
                    "duration": 0.1184210625000004
                },
                {
                    "name": "B3",
                    "midi": 59,
                    "time": 4.1052635,
                    "velocity": 0.28346456692913385,
                    "duration": 0.1184210625000004
                },
                {
                    "name": "G3",
                    "midi": 55,
                    "time": 4.421053000000001,
                    "velocity": 0.28346456692913385,
                    "duration": 0.1184210625000004
                },
                {
                    "name": "B3",
                    "midi": 59,
                    "time": 4.421053000000001,
                    "velocity": 0.28346456692913385,
                    "duration": 0.1184210625000004
                },
                {
                    "name": "G3",
                    "midi": 55,
                    "time": 4.736842500000001,
                    "velocity": 0.28346456692913385,
                    "duration": 0.6315790000000003
                },
                {
                    "name": "B3",
                    "midi": 59,
                    "time": 4.736842500000001,
                    "velocity": 0.28346456692913385,
                    "duration": 0.6315790000000003
                },
                {
                    "name": "F#3",
                    "midi": 54,
                    "time": 5.368421500000001,
                    "velocity": 0.28346456692913385,
                    "duration": 0.2368421249999999
                },
                {
                    "name": "A3",
                    "midi": 57,
                    "time": 5.605263625000001,
                    "velocity": 0.28346456692913385,
                    "duration": 0.07894737500000026
                },
                {
                    "name": "G3",
                    "midi": 55,
                    "time": 5.684211000000001,
                    "velocity": 0.30708661417322836,
                    "duration": 0.31578950000000017
                },
                {
                    "name": "F#3",
                    "midi": 54,
                    "time": 6.000000500000001,
                    "velocity": 0.28346456692913385,
                    "duration": 0.31578950000000017
                },
                {
                    "name": "G3",
                    "midi": 55,
                    "time": 6.315790000000002,
                    "velocity": 0.28346456692913385,
                    "duration": 0.31578950000000017
                },
                {
                    "name": "A3",
                    "midi": 57,
                    "time": 6.631579500000002,
                    "velocity": 0.2992125984251969,
                    "duration": 0.6315790000000003
                },
                {
                    "name": "G3",
                    "midi": 55,
                    "time": 7.263158500000002,
                    "velocity": 0.28346456692913385,
                    "duration": 0.31578950000000017
                },
                {
                    "name": "D3",
                    "midi": 50,
                    "time": 7.578948000000002,
                    "velocity": 0.2992125984251969,
                    "duration": 0.31578950000000017
                },
                {
                    "name": "D4",
                    "midi": 62,
                    "time": 7.894737500000002,
                    "velocity": 0.28346456692913385,
                    "duration": 0.31578950000000017
                },
                {
                    "name": "D4",
                    "midi": 62,
                    "time": 8.210527000000003,
                    "velocity": 0.28346456692913385,
                    "duration": 0.3157894999999993
                },
                {
                    "name": "D4",
                    "midi": 62,
                    "time": 8.526316500000002,
                    "velocity": 0.28346456692913385,
                    "duration": 0.3157894999999993
                },
                {
                    "name": "C4",
                    "midi": 60,
                    "time": 8.842106000000001,
                    "velocity": 0.28346456692913385,
                    "duration": 0.3157894999999993
                },
                {
                    "name": "B3",
                    "midi": 59,
                    "time": 9.1578955,
                    "velocity": 0.29133858267716534,
                    "duration": 0.3157894999999993
                },
                {
                    "name": "A3",
                    "midi": 57,
                    "time": 9.473685,
                    "velocity": 0.31496062992125984,
                    "duration": 0.6315790000000003
                },
                {
                    "name": "G3",
                    "midi": 55,
                    "time": 10.105264,
                    "velocity": 0.30708661417322836,
                    "duration": 0.3157894999999993
                },
                {
                    "name": "F#3",
                    "midi": 54,
                    "time": 10.4210535,
                    "velocity": 0.31496062992125984,
                    "duration": 0.3157894999999993
                },
                {
                    "name": "A3",
                    "midi": 57,
                    "time": 10.736842999999999,
                    "velocity": 0.30708661417322836,
                    "duration": 0.3157894999999993
                },
                {
                    "name": "D4",
                    "midi": 62,
                    "time": 11.052632499999998,
                    "velocity": 0.30708661417322836,
                    "duration": 0.3157894999999993
                },
                {
                    "name": "G3",
                    "midi": 55,
                    "time": 11.368421999999997,
                    "velocity": 0.36220472440944884,
                    "duration": 2.2105264999999967
                },
                {
                    "name": "F4",
                    "midi": 65,
                    "time": 12.000000999999997,
                    "velocity": 0.36220472440944884,
                    "duration": 0.3157894999999993
                },
                {
                    "name": "E4",
                    "midi": 64,
                    "time": 12.315790499999997,
                    "velocity": 0.36220472440944884,
                    "duration": 0.3157894999999993
                },
                {
                    "name": "D4",
                    "midi": 62,
                    "time": 12.631579999999996,
                    "velocity": 0.36220472440944884,
                    "duration": 0.3157894999999993
                },
                {
                    "name": "C4",
                    "midi": 60,
                    "time": 12.947369499999995,
                    "velocity": 0.36220472440944884,
                    "duration": 0.3157894999999993
                },
                {
                    "name": "B3",
                    "midi": 59,
                    "time": 13.263158999999995,
                    "velocity": 0.33070866141732286,
                    "duration": 0.3157894999999993
                },
                {
                    "name": "F#3",
                    "midi": 54,
                    "time": 13.578948499999994,
                    "velocity": 0.31496062992125984,
                    "duration": 0.3157894999999993
                },
                {
                    "name": "A3",
                    "midi": 57,
                    "time": 13.578948499999994,
                    "velocity": 0.31496062992125984,
                    "duration": 0.3157894999999993
                },
                {
                    "name": "E3",
                    "midi": 52,
                    "time": 13.894737999999993,
                    "velocity": 0.31496062992125984,
                    "duration": 0.3157894999999993
                },
                {
                    "name": "G3",
                    "midi": 55,
                    "time": 13.894737999999993,
                    "velocity": 0.31496062992125984,
                    "duration": 0.3157894999999993
                },
                {
                    "name": "E3",
                    "midi": 52,
                    "time": 14.210527499999992,
                    "velocity": 0.33858267716535434,
                    "duration": 0.6315789999999986
                },
                {
                    "name": "G3",
                    "midi": 55,
                    "time": 14.210527499999992,
                    "velocity": 0.33858267716535434,
                    "duration": 0.3157894999999993
                },
                {
                    "name": "B3",
                    "midi": 59,
                    "time": 14.526316999999992,
                    "velocity": 0.33070866141732286,
                    "duration": 0.3157894999999993
                },
                {
                    "name": "A3",
                    "midi": 57,
                    "time": 14.842106499999991,
                    "velocity": 0.31496062992125984,
                    "duration": 0.3157894999999993
                },
                {
                    "name": "G4",
                    "midi": 67,
                    "time": 14.842106499999991,
                    "velocity": 0.31496062992125984,
                    "duration": 0.6315789999999986
                },
                {
                    "name": "D4",
                    "midi": 62,
                    "time": 15.15789599999999,
                    "velocity": 0.31496062992125984,
                    "duration": 0.9473684999999996
                },
                {
                    "name": "F#4",
                    "midi": 66,
                    "time": 15.47368549999999,
                    "velocity": 0.28346456692913385,
                    "duration": 0.3157894999999993
                },
                {
                    "name": "F#4",
                    "midi": 66,
                    "time": 15.789474999999989,
                    "velocity": 0.28346456692913385,
                    "duration": 0.31578950000000106
                },
                {
                    "name": "D4",
                    "midi": 62,
                    "time": 16.10526449999999,
                    "velocity": 0.25196850393700787,
                    "duration": 0.6315789999999986
                },
                {
                    "name": "F#4",
                    "midi": 66,
                    "time": 16.10526449999999,
                    "velocity": 0.25196850393700787,
                    "duration": 0.6315789999999986
                },
                {
                    "name": "G3",
                    "midi": 55,
                    "time": 17.05263299999999,
                    "velocity": 0.31496062992125984,
                    "duration": 0.6315789999999986
                },
                {
                    "name": "B3",
                    "midi": 59,
                    "time": 17.05263299999999,
                    "velocity": 0.31496062992125984,
                    "duration": 0.6315789999999986
                },
                {
                    "name": "G3",
                    "midi": 55,
                    "time": 17.684211999999988,
                    "velocity": 0.2992125984251969,
                    "duration": 0.31578950000000106
                },
                {
                    "name": "C4",
                    "midi": 60,
                    "time": 17.684211999999988,
                    "velocity": 0.2992125984251969,
                    "duration": 0.31578950000000106
                },
                {
                    "name": "G3",
                    "midi": 55,
                    "time": 18.00000149999999,
                    "velocity": 0.31496062992125984,
                    "duration": 0.6315789999999986
                },
                {
                    "name": "C4",
                    "midi": 60,
                    "time": 18.00000149999999,
                    "velocity": 0.31496062992125984,
                    "duration": 0.6315789999999986
                },
                {
                    "name": "G3",
                    "midi": 55,
                    "time": 18.631580499999988,
                    "velocity": 0.2992125984251969,
                    "duration": 0.31578950000000106
                },
                {
                    "name": "C4",
                    "midi": 60,
                    "time": 18.631580499999988,
                    "velocity": 0.2992125984251969,
                    "duration": 0.31578950000000106
                },
                {
                    "name": "G3",
                    "midi": 55,
                    "time": 18.94736999999999,
                    "velocity": 0.29133858267716534,
                    "duration": 0.11842106250000128
                },
                {
                    "name": "B3",
                    "midi": 59,
                    "time": 18.94736999999999,
                    "velocity": 0.29133858267716534,
                    "duration": 0.11842106250000128
                },
                {
                    "name": "G3",
                    "midi": 55,
                    "time": 19.26315949999999,
                    "velocity": 0.28346456692913385,
                    "duration": 0.11842106250000128
                },
                {
                    "name": "B3",
                    "midi": 59,
                    "time": 19.26315949999999,
                    "velocity": 0.28346456692913385,
                    "duration": 0.11842106250000128
                },
                {
                    "name": "G3",
                    "midi": 55,
                    "time": 19.57894899999999,
                    "velocity": 0.28346456692913385,
                    "duration": 0.11842106250000128
                },
                {
                    "name": "B3",
                    "midi": 59,
                    "time": 19.57894899999999,
                    "velocity": 0.28346456692913385,
                    "duration": 0.11842106250000128
                },
                {
                    "name": "G3",
                    "midi": 55,
                    "time": 19.894738499999992,
                    "velocity": 0.28346456692913385,
                    "duration": 0.6315789999999986
                },
                {
                    "name": "B3",
                    "midi": 59,
                    "time": 19.894738499999992,
                    "velocity": 0.28346456692913385,
                    "duration": 0.6315789999999986
                },
                {
                    "name": "F#3",
                    "midi": 54,
                    "time": 20.52631749999999,
                    "velocity": 0.28346456692913385,
                    "duration": 0.23684212499999902
                },
                {
                    "name": "A3",
                    "midi": 57,
                    "time": 20.76315962499999,
                    "velocity": 0.28346456692913385,
                    "duration": 0.07894737499999849
                },
                {
                    "name": "G3",
                    "midi": 55,
                    "time": 20.842106999999988,
                    "velocity": 0.30708661417322836,
                    "duration": 0.31578950000000106
                },
                {
                    "name": "F#3",
                    "midi": 54,
                    "time": 21.15789649999999,
                    "velocity": 0.28346456692913385,
                    "duration": 0.31578950000000106
                },
                {
                    "name": "G3",
                    "midi": 55,
                    "time": 21.47368599999999,
                    "velocity": 0.28346456692913385,
                    "duration": 0.31578950000000106
                },
                {
                    "name": "A3",
                    "midi": 57,
                    "time": 21.78947549999999,
                    "velocity": 0.2992125984251969,
                    "duration": 0.6315789999999986
                },
                {
                    "name": "G3",
                    "midi": 55,
                    "time": 22.42105449999999,
                    "velocity": 0.28346456692913385,
                    "duration": 0.31578950000000106
                },
                {
                    "name": "D3",
                    "midi": 50,
                    "time": 22.73684399999999,
                    "velocity": 0.2992125984251969,
                    "duration": 0.31578950000000106
                },
                {
                    "name": "D4",
                    "midi": 62,
                    "time": 23.052633499999992,
                    "velocity": 0.28346456692913385,
                    "duration": 0.31578950000000106
                },
                {
                    "name": "D4",
                    "midi": 62,
                    "time": 23.368422999999993,
                    "velocity": 0.28346456692913385,
                    "duration": 0.31578950000000106
                },
                {
                    "name": "D4",
                    "midi": 62,
                    "time": 23.684212499999994,
                    "velocity": 0.28346456692913385,
                    "duration": 0.31578950000000106
                },
                {
                    "name": "C4",
                    "midi": 60,
                    "time": 24.000001999999995,
                    "velocity": 0.28346456692913385,
                    "duration": 0.31578950000000106
                },
                {
                    "name": "B3",
                    "midi": 59,
                    "time": 24.315791499999996,
                    "velocity": 0.29133858267716534,
                    "duration": 0.31578950000000106
                },
                {
                    "name": "A3",
                    "midi": 57,
                    "time": 24.631580999999997,
                    "velocity": 0.31496062992125984,
                    "duration": 0.6315789999999986
                },
                {
                    "name": "G3",
                    "midi": 55,
                    "time": 25.263159999999996,
                    "velocity": 0.30708661417322836,
                    "duration": 0.31578950000000106
                },
                {
                    "name": "F#3",
                    "midi": 54,
                    "time": 25.578949499999997,
                    "velocity": 0.31496062992125984,
                    "duration": 0.31578950000000106
                },
                {
                    "name": "A3",
                    "midi": 57,
                    "time": 25.894738999999998,
                    "velocity": 0.30708661417322836,
                    "duration": 0.31578950000000106
                },
                {
                    "name": "D4",
                    "midi": 62,
                    "time": 26.2105285,
                    "velocity": 0.30708661417322836,
                    "duration": 0.31578950000000106
                },
                {
                    "name": "G3",
                    "midi": 55,
                    "time": 26.526318,
                    "velocity": 0.36220472440944884,
                    "duration": 2.210526500000004
                },
                {
                    "name": "F4",
                    "midi": 65,
                    "time": 27.157897,
                    "velocity": 0.36220472440944884,
                    "duration": 0.31578950000000106
                },
                {
                    "name": "E4",
                    "midi": 64,
                    "time": 27.4736865,
                    "velocity": 0.36220472440944884,
                    "duration": 0.31578950000000106
                },
                {
                    "name": "D4",
                    "midi": 62,
                    "time": 27.789476,
                    "velocity": 0.36220472440944884,
                    "duration": 0.31578950000000106
                },
                {
                    "name": "C4",
                    "midi": 60,
                    "time": 28.1052655,
                    "velocity": 0.36220472440944884,
                    "duration": 0.31578950000000106
                },
                {
                    "name": "B3",
                    "midi": 59,
                    "time": 28.421055000000003,
                    "velocity": 0.33070866141732286,
                    "duration": 0.31578950000000106
                },
                {
                    "name": "F#3",
                    "midi": 54,
                    "time": 28.736844500000004,
                    "velocity": 0.31496062992125984,
                    "duration": 0.31578950000000106
                },
                {
                    "name": "A3",
                    "midi": 57,
                    "time": 28.736844500000004,
                    "velocity": 0.31496062992125984,
                    "duration": 0.31578950000000106
                },
                {
                    "name": "E3",
                    "midi": 52,
                    "time": 29.052634000000005,
                    "velocity": 0.31496062992125984,
                    "duration": 0.31578950000000106
                },
                {
                    "name": "G3",
                    "midi": 55,
                    "time": 29.052634000000005,
                    "velocity": 0.31496062992125984,
                    "duration": 0.31578950000000106
                },
                {
                    "name": "E3",
                    "midi": 52,
                    "time": 29.368423500000006,
                    "velocity": 0.33858267716535434,
                    "duration": 0.6315790000000021
                },
                {
                    "name": "G3",
                    "midi": 55,
                    "time": 29.368423500000006,
                    "velocity": 0.33858267716535434,
                    "duration": 0.31578950000000106
                },
                {
                    "name": "B3",
                    "midi": 59,
                    "time": 29.684213000000007,
                    "velocity": 0.33070866141732286,
                    "duration": 0.31578950000000106
                },
                {
                    "name": "A3",
                    "midi": 57,
                    "time": 30.000002500000008,
                    "velocity": 0.31496062992125984,
                    "duration": 0.31578950000000106
                },
                {
                    "name": "G4",
                    "midi": 67,
                    "time": 30.000002500000008,
                    "velocity": 0.31496062992125984,
                    "duration": 0.6315790000000021
                },
                {
                    "name": "D4",
                    "midi": 62,
                    "time": 30.31579200000001,
                    "velocity": 0.31496062992125984,
                    "duration": 0.9473685000000032
                },
                {
                    "name": "F#4",
                    "midi": 66,
                    "time": 30.63158150000001,
                    "velocity": 0.28346456692913385,
                    "duration": 0.31578950000000106
                },
                {
                    "name": "F#4",
                    "midi": 66,
                    "time": 30.94737100000001,
                    "velocity": 0.28346456692913385,
                    "duration": 0.31578950000000106
                },
                {
                    "name": "D4",
                    "midi": 62,
                    "time": 31.263160500000012,
                    "velocity": 0.25196850393700787,
                    "duration": 0.6315789999999986
                },
                {
                    "name": "F#4",
                    "midi": 66,
                    "time": 31.263160500000012,
                    "velocity": 0.25196850393700787,
                    "duration": 0.6315789999999986
                },
                {
                    "name": "D4",
                    "midi": 62,
                    "time": 31.89473950000001,
                    "velocity": 0.2677165354330709,
                    "duration": 0.3157894999999975
                },
                {
                    "name": "B3",
                    "midi": 59,
                    "time": 31.89473950000001,
                    "velocity": 0.2677165354330709,
                    "duration": 0.3157894999999975
                },
                {
                    "name": "D4",
                    "midi": 62,
                    "time": 32.21052900000001,
                    "velocity": 0.28346456692913385,
                    "duration": 0.6315790000000021
                },
                {
                    "name": "B3",
                    "midi": 59,
                    "time": 32.21052900000001,
                    "velocity": 0.28346456692913385,
                    "duration": 0.6315790000000021
                },
                {
                    "name": "E4",
                    "midi": 64,
                    "time": 32.84210800000001,
                    "velocity": 0.2677165354330709,
                    "duration": 0.31578950000000106
                },
                {
                    "name": "C4",
                    "midi": 60,
                    "time": 32.84210800000001,
                    "velocity": 0.2677165354330709,
                    "duration": 0.31578950000000106
                },
                {
                    "name": "B3",
                    "midi": 59,
                    "time": 33.15789750000001,
                    "velocity": 0.28346456692913385,
                    "duration": 0.31578950000000106
                },
                {
                    "name": "D4",
                    "midi": 62,
                    "time": 33.15789750000001,
                    "velocity": 0.28346456692913385,
                    "duration": 0.31578950000000106
                },
                {
                    "name": "C4",
                    "midi": 60,
                    "time": 33.47368700000001,
                    "velocity": 0.28346456692913385,
                    "duration": 0.31578950000000106
                },
                {
                    "name": "A3",
                    "midi": 57,
                    "time": 33.47368700000001,
                    "velocity": 0.28346456692913385,
                    "duration": 0.31578950000000106
                },
                {
                    "name": "G3",
                    "midi": 55,
                    "time": 33.78947650000001,
                    "velocity": 0.2677165354330709,
                    "duration": 0.31578950000000106
                },
                {
                    "name": "B3",
                    "midi": 59,
                    "time": 33.78947650000001,
                    "velocity": 0.2677165354330709,
                    "duration": 0.31578950000000106
                },
                {
                    "name": "F#3",
                    "midi": 54,
                    "time": 34.105266000000015,
                    "velocity": 0.25984251968503935,
                    "duration": 0.11842106249999773
                },
                {
                    "name": "A3",
                    "midi": 57,
                    "time": 34.105266000000015,
                    "velocity": 0.25984251968503935,
                    "duration": 0.11842106249999773
                },
                {
                    "name": "F#3",
                    "midi": 54,
                    "time": 34.421055500000016,
                    "velocity": 0.25196850393700787,
                    "duration": 0.11842106249999773
                },
                {
                    "name": "A3",
                    "midi": 57,
                    "time": 34.421055500000016,
                    "velocity": 0.25196850393700787,
                    "duration": 0.11842106249999773
                },
                {
                    "name": "F#3",
                    "midi": 54,
                    "time": 34.73684500000002,
                    "velocity": 0.25196850393700787,
                    "duration": 0.11842106249999773
                },
                {
                    "name": "A3",
                    "midi": 57,
                    "time": 34.73684500000002,
                    "velocity": 0.25196850393700787,
                    "duration": 0.11842106249999773
                },
                {
                    "name": "F#3",
                    "midi": 54,
                    "time": 35.05263450000002,
                    "velocity": 0.25196850393700787,
                    "duration": 0.9473685000000032
                },
                {
                    "name": "A3",
                    "midi": 57,
                    "time": 35.05263450000002,
                    "velocity": 0.25196850393700787,
                    "duration": 0.31578950000000106
                },
                {
                    "name": "B3",
                    "midi": 59,
                    "time": 35.36842400000002,
                    "velocity": 0.30708661417322836,
                    "duration": 0.31578950000000106
                },
                {
                    "name": "C4",
                    "midi": 60,
                    "time": 35.68421350000002,
                    "velocity": 0.33858267716535434,
                    "duration": 0.31578950000000106
                },
                {
                    "name": "G3",
                    "midi": 55,
                    "time": 36.00000300000002,
                    "velocity": 0.28346456692913385,
                    "duration": 0.31578950000000106
                },
                {
                    "name": "B3",
                    "midi": 59,
                    "time": 36.00000300000002,
                    "velocity": 0.28346456692913385,
                    "duration": 0.31578950000000106
                },
                {
                    "name": "F#3",
                    "midi": 54,
                    "time": 36.31579250000002,
                    "velocity": 0.29133858267716534,
                    "duration": 0.31578950000000106
                },
                {
                    "name": "A3",
                    "midi": 57,
                    "time": 36.31579250000002,
                    "velocity": 0.29133858267716534,
                    "duration": 0.31578950000000106
                },
                {
                    "name": "E3",
                    "midi": 52,
                    "time": 36.63158200000002,
                    "velocity": 0.29133858267716534,
                    "duration": 0.31578950000000106
                },
                {
                    "name": "G3",
                    "midi": 55,
                    "time": 36.63158200000002,
                    "velocity": 0.29133858267716534,
                    "duration": 0.31578950000000106
                },
                {
                    "name": "G4",
                    "midi": 67,
                    "time": 36.947371500000024,
                    "velocity": 0.25984251968503935,
                    "duration": 0.31578950000000106
                },
                {
                    "name": "A3",
                    "midi": 57,
                    "time": 36.947371500000024,
                    "velocity": 0.25984251968503935,
                    "duration": 0.9473685000000032
                },
                {
                    "name": "F#4",
                    "midi": 66,
                    "time": 37.263161000000025,
                    "velocity": 0.25984251968503935,
                    "duration": 0.31578950000000106
                },
                {
                    "name": "E4",
                    "midi": 64,
                    "time": 37.578950500000026,
                    "velocity": 0.25984251968503935,
                    "duration": 0.31578950000000106
                },
                {
                    "name": "D3",
                    "midi": 50,
                    "time": 38.21052950000003,
                    "velocity": 0.15748031496062992,
                    "duration": 0.31578950000000106
                },
                {
                    "name": "F#3",
                    "midi": 54,
                    "time": 38.21052950000003,
                    "velocity": 0.2047244094488189,
                    "duration": 0.31578950000000106
                },
                {
                    "name": "E3",
                    "midi": 52,
                    "time": 38.52631900000003,
                    "velocity": 0.15748031496062992,
                    "duration": 0.23684212500000257
                },
                {
                    "name": "G3",
                    "midi": 55,
                    "time": 38.52631900000003,
                    "velocity": 0.2047244094488189,
                    "duration": 0.23684212500000257
                },
                {
                    "name": "F#3",
                    "midi": 54,
                    "time": 39.15789800000003,
                    "velocity": 0.16535433070866143,
                    "duration": 0.31578950000000106
                },
                {
                    "name": "A3",
                    "midi": 57,
                    "time": 39.15789800000003,
                    "velocity": 0.2125984251968504,
                    "duration": 0.31578950000000106
                },
                {
                    "name": "G3",
                    "midi": 55,
                    "time": 39.47368750000003,
                    "velocity": 0.16535433070866143,
                    "duration": 0.23684212500000257
                },
                {
                    "name": "B3",
                    "midi": 59,
                    "time": 39.47368750000003,
                    "velocity": 0.2125984251968504,
                    "duration": 0.23684212500000257
                },
                {
                    "name": "A3",
                    "midi": 57,
                    "time": 40.105266500000035,
                    "velocity": 0.2125984251968504,
                    "duration": 0.31578950000000106
                },
                {
                    "name": "C4",
                    "midi": 60,
                    "time": 40.105266500000035,
                    "velocity": 0.2677165354330709,
                    "duration": 0.31578950000000106
                },
                {
                    "name": "G3",
                    "midi": 55,
                    "time": 40.421056000000036,
                    "velocity": 0.1968503937007874,
                    "duration": 0.23684212500000257
                },
                {
                    "name": "B3",
                    "midi": 59,
                    "time": 40.421056000000036,
                    "velocity": 0.25196850393700787,
                    "duration": 0.23684212500000257
                },
                {
                    "name": "F#3",
                    "midi": 54,
                    "time": 41.05263500000004,
                    "velocity": 0.1968503937007874,
                    "duration": 0.31578950000000106
                },
                {
                    "name": "A3",
                    "midi": 57,
                    "time": 41.05263500000004,
                    "velocity": 0.2440944881889764,
                    "duration": 0.31578950000000106
                },
                {
                    "name": "E3",
                    "midi": 52,
                    "time": 41.36842450000004,
                    "velocity": 0.18110236220472442,
                    "duration": 0.23684212500000257
                },
                {
                    "name": "G3",
                    "midi": 55,
                    "time": 41.36842450000004,
                    "velocity": 0.2283464566929134,
                    "duration": 0.23684212500000257
                },
                {
                    "name": "D3",
                    "midi": 50,
                    "time": 41.68421400000004,
                    "velocity": 0.25196850393700787,
                    "duration": 0.31578950000000106
                },
                {
                    "name": "F#3",
                    "midi": 54,
                    "time": 41.68421400000004,
                    "velocity": 0.25196850393700787,
                    "duration": 0.31578950000000106
                },
                {
                    "name": "D4",
                    "midi": 62,
                    "time": 42.31579300000004,
                    "velocity": 0.2755905511811024,
                    "duration": 0.15789474999999698
                },
                {
                    "name": "D4",
                    "midi": 62,
                    "time": 42.631582500000036,
                    "velocity": 0.28346456692913385,
                    "duration": 0.15789474999999698
                },
                {
                    "name": "D4",
                    "midi": 62,
                    "time": 43.26316150000003,
                    "velocity": 0.2755905511811024,
                    "duration": 0.15789474999999698
                },
                {
                    "name": "D4",
                    "midi": 62,
                    "time": 43.578951000000025,
                    "velocity": 0.28346456692913385,
                    "duration": 0.15789474999999698
                },
                {
                    "name": "D4",
                    "midi": 62,
                    "time": 44.21053000000002,
                    "velocity": 0.28346456692913385,
                    "duration": 0.15789474999999698
                },
                {
                    "name": "D4",
                    "midi": 62,
                    "time": 44.526319500000014,
                    "velocity": 0.3779527559055118,
                    "duration": 0.47368424999999803
                },
                {
                    "name": "F#4",
                    "midi": 66,
                    "time": 44.842109000000015,
                    "velocity": 0.33858267716535434,
                    "duration": 0.31578949999999395
                },
                {
                    "name": "G4",
                    "midi": 67,
                    "time": 45.15789850000001,
                    "velocity": 0.33858267716535434,
                    "duration": 0.31578950000000106
                },
                {
                    "name": "D4",
                    "midi": 62,
                    "time": 45.47368800000001,
                    "velocity": 0.3228346456692913,
                    "duration": 1.4210527500000012
                },
                {
                    "name": "A4",
                    "midi": 69,
                    "time": 45.47368800000001,
                    "velocity": 0.3228346456692913,
                    "duration": 1.4210527500000012
                },
                {
                    "name": "G3",
                    "midi": 55,
                    "time": 47.36842500000001,
                    "velocity": 0.31496062992125984,
                    "duration": 0.6315790000000021
                },
                {
                    "name": "B3",
                    "midi": 59,
                    "time": 47.36842500000001,
                    "velocity": 0.31496062992125984,
                    "duration": 0.6315790000000021
                },
                {
                    "name": "G3",
                    "midi": 55,
                    "time": 48.00000400000001,
                    "velocity": 0.2992125984251969,
                    "duration": 0.31578950000000106
                },
                {
                    "name": "C4",
                    "midi": 60,
                    "time": 48.00000400000001,
                    "velocity": 0.2992125984251969,
                    "duration": 0.31578950000000106
                },
                {
                    "name": "G3",
                    "midi": 55,
                    "time": 48.31579350000001,
                    "velocity": 0.31496062992125984,
                    "duration": 0.6315790000000021
                },
                {
                    "name": "C4",
                    "midi": 60,
                    "time": 48.31579350000001,
                    "velocity": 0.31496062992125984,
                    "duration": 0.6315790000000021
                },
                {
                    "name": "G3",
                    "midi": 55,
                    "time": 48.947372500000014,
                    "velocity": 0.2992125984251969,
                    "duration": 0.31578950000000106
                },
                {
                    "name": "C4",
                    "midi": 60,
                    "time": 48.947372500000014,
                    "velocity": 0.2992125984251969,
                    "duration": 0.31578950000000106
                },
                {
                    "name": "G3",
                    "midi": 55,
                    "time": 49.263162000000015,
                    "velocity": 0.29133858267716534,
                    "duration": 0.11842106249999773
                },
                {
                    "name": "B3",
                    "midi": 59,
                    "time": 49.263162000000015,
                    "velocity": 0.29133858267716534,
                    "duration": 0.11842106249999773
                },
                {
                    "name": "G3",
                    "midi": 55,
                    "time": 49.57895150000002,
                    "velocity": 0.28346456692913385,
                    "duration": 0.11842106249999773
                },
                {
                    "name": "B3",
                    "midi": 59,
                    "time": 49.57895150000002,
                    "velocity": 0.28346456692913385,
                    "duration": 0.11842106249999773
                },
                {
                    "name": "G3",
                    "midi": 55,
                    "time": 49.89474100000002,
                    "velocity": 0.28346456692913385,
                    "duration": 0.11842106249999773
                },
                {
                    "name": "B3",
                    "midi": 59,
                    "time": 49.89474100000002,
                    "velocity": 0.28346456692913385,
                    "duration": 0.11842106249999773
                },
                {
                    "name": "G3",
                    "midi": 55,
                    "time": 50.21053050000002,
                    "velocity": 0.28346456692913385,
                    "duration": 0.6315790000000021
                },
                {
                    "name": "B3",
                    "midi": 59,
                    "time": 50.21053050000002,
                    "velocity": 0.28346456692913385,
                    "duration": 0.6315790000000021
                },
                {
                    "name": "F#3",
                    "midi": 54,
                    "time": 50.84210950000002,
                    "velocity": 0.28346456692913385,
                    "duration": 0.23684212500000257
                },
                {
                    "name": "A3",
                    "midi": 57,
                    "time": 51.07895162500002,
                    "velocity": 0.28346456692913385,
                    "duration": 0.07894737499999849
                },
                {
                    "name": "G3",
                    "midi": 55,
                    "time": 51.15789900000002,
                    "velocity": 0.30708661417322836,
                    "duration": 0.31578950000000106
                },
                {
                    "name": "F#3",
                    "midi": 54,
                    "time": 51.47368850000002,
                    "velocity": 0.28346456692913385,
                    "duration": 0.31578950000000106
                },
                {
                    "name": "G3",
                    "midi": 55,
                    "time": 51.789478000000024,
                    "velocity": 0.28346456692913385,
                    "duration": 0.31578950000000106
                },
                {
                    "name": "A3",
                    "midi": 57,
                    "time": 52.105267500000025,
                    "velocity": 0.2992125984251969,
                    "duration": 0.6315790000000021
                },
                {
                    "name": "G3",
                    "midi": 55,
                    "time": 52.73684650000003,
                    "velocity": 0.28346456692913385,
                    "duration": 0.31578950000000106
                },
                {
                    "name": "D3",
                    "midi": 50,
                    "time": 53.05263600000003,
                    "velocity": 0.2992125984251969,
                    "duration": 0.31578950000000106
                },
                {
                    "name": "D4",
                    "midi": 62,
                    "time": 53.36842550000003,
                    "velocity": 0.28346456692913385,
                    "duration": 0.31578950000000106
                },
                {
                    "name": "D4",
                    "midi": 62,
                    "time": 53.68421500000003,
                    "velocity": 0.28346456692913385,
                    "duration": 0.31578950000000106
                },
                {
                    "name": "D4",
                    "midi": 62,
                    "time": 54.00000450000003,
                    "velocity": 0.28346456692913385,
                    "duration": 0.31578950000000106
                },
                {
                    "name": "C4",
                    "midi": 60,
                    "time": 54.31579400000003,
                    "velocity": 0.28346456692913385,
                    "duration": 0.31578950000000106
                },
                {
                    "name": "B3",
                    "midi": 59,
                    "time": 54.63158350000003,
                    "velocity": 0.29133858267716534,
                    "duration": 0.31578950000000106
                },
                {
                    "name": "A3",
                    "midi": 57,
                    "time": 54.947373000000034,
                    "velocity": 0.31496062992125984,
                    "duration": 0.6315790000000021
                },
                {
                    "name": "G3",
                    "midi": 55,
                    "time": 55.57895200000004,
                    "velocity": 0.30708661417322836,
                    "duration": 0.31578950000000106
                },
                {
                    "name": "F#3",
                    "midi": 54,
                    "time": 55.89474150000004,
                    "velocity": 0.31496062992125984,
                    "duration": 0.31578950000000106
                },
                {
                    "name": "A3",
                    "midi": 57,
                    "time": 56.21053100000004,
                    "velocity": 0.30708661417322836,
                    "duration": 0.31578950000000106
                },
                {
                    "name": "D4",
                    "midi": 62,
                    "time": 56.52632050000004,
                    "velocity": 0.30708661417322836,
                    "duration": 0.31578950000000106
                },
                {
                    "name": "G3",
                    "midi": 55,
                    "time": 56.84211000000004,
                    "velocity": 0.30708661417322836,
                    "duration": 0.9473685000000032
                },
                {
                    "name": "G2",
                    "midi": 43,
                    "time": 57.789478500000044,
                    "velocity": 0.3228346456692913,
                    "duration": 0.31578950000000106
                },
                {
                    "name": "B2",
                    "midi": 47,
                    "time": 58.105268000000045,
                    "velocity": 0.31496062992125984,
                    "duration": 0.31578950000000106
                },
                {
                    "name": "E3",
                    "midi": 52,
                    "time": 58.421057500000046,
                    "velocity": 0.28346456692913385,
                    "duration": 0.31578950000000106
                },
                {
                    "name": "C3",
                    "midi": 48,
                    "time": 58.73684700000005,
                    "velocity": 0.30708661417322836,
                    "duration": 0.9473685000000032
                },
                {
                    "name": "D3",
                    "midi": 50,
                    "time": 59.68421550000005,
                    "velocity": 0.29133858267716534,
                    "duration": 0.9473685000000032
                },
                {
                    "name": "G2",
                    "midi": 43,
                    "time": 60.63158400000005,
                    "velocity": 0.25196850393700787,
                    "duration": 0.31578950000000106
                },
                {
                    "name": "B2",
                    "midi": 47,
                    "time": 60.947373500000054,
                    "velocity": 0.2047244094488189,
                    "duration": 0.31578950000000106
                },
                {
                    "name": "D3",
                    "midi": 50,
                    "time": 61.263163000000056,
                    "velocity": 0.2047244094488189,
                    "duration": 0.31578950000000106
                },
                {
                    "name": "G3",
                    "midi": 55,
                    "time": 61.57895250000006,
                    "velocity": 0.2047244094488189,
                    "duration": 0.6315790000000021
                },
                {
                    "name": "D4",
                    "midi": 62,
                    "time": 62.21053150000006,
                    "velocity": 0.2677165354330709,
                    "duration": 0.31578950000000106
                },
                {
                    "name": "B3",
                    "midi": 59,
                    "time": 62.21053150000006,
                    "velocity": 0.2677165354330709,
                    "duration": 0.31578950000000106
                },
                {
                    "name": "D4",
                    "midi": 62,
                    "time": 62.52632100000006,
                    "velocity": 0.28346456692913385,
                    "duration": 0.6315790000000021
                },
                {
                    "name": "B3",
                    "midi": 59,
                    "time": 62.52632100000006,
                    "velocity": 0.28346456692913385,
                    "duration": 0.6315790000000021
                },
                {
                    "name": "E4",
                    "midi": 64,
                    "time": 63.15790000000006,
                    "velocity": 0.2677165354330709,
                    "duration": 0.31578950000000106
                },
                {
                    "name": "C4",
                    "midi": 60,
                    "time": 63.15790000000006,
                    "velocity": 0.2677165354330709,
                    "duration": 0.31578950000000106
                },
                {
                    "name": "B3",
                    "midi": 59,
                    "time": 63.47368950000006,
                    "velocity": 0.28346456692913385,
                    "duration": 0.31578950000000106
                },
                {
                    "name": "D4",
                    "midi": 62,
                    "time": 63.47368950000006,
                    "velocity": 0.28346456692913385,
                    "duration": 0.31578950000000106
                },
                {
                    "name": "C4",
                    "midi": 60,
                    "time": 63.789479000000064,
                    "velocity": 0.28346456692913385,
                    "duration": 0.31578950000000106
                },
                {
                    "name": "A3",
                    "midi": 57,
                    "time": 63.789479000000064,
                    "velocity": 0.28346456692913385,
                    "duration": 0.31578950000000106
                },
                {
                    "name": "G3",
                    "midi": 55,
                    "time": 64.10526850000007,
                    "velocity": 0.2677165354330709,
                    "duration": 0.31578949999999395
                },
                {
                    "name": "B3",
                    "midi": 59,
                    "time": 64.10526850000007,
                    "velocity": 0.2677165354330709,
                    "duration": 0.31578949999999395
                },
                {
                    "name": "F#3",
                    "midi": 54,
                    "time": 64.42105800000006,
                    "velocity": 0.25984251968503935,
                    "duration": 0.11842106250000484
                },
                {
                    "name": "A3",
                    "midi": 57,
                    "time": 64.42105800000006,
                    "velocity": 0.25984251968503935,
                    "duration": 0.11842106250000484
                },
                {
                    "name": "F#3",
                    "midi": 54,
                    "time": 64.73684750000007,
                    "velocity": 0.25196850393700787,
                    "duration": 0.11842106250000484
                },
                {
                    "name": "A3",
                    "midi": 57,
                    "time": 64.73684750000007,
                    "velocity": 0.25196850393700787,
                    "duration": 0.11842106250000484
                },
                {
                    "name": "F#3",
                    "midi": 54,
                    "time": 65.05263700000008,
                    "velocity": 0.25196850393700787,
                    "duration": 0.11842106250000484
                },
                {
                    "name": "A3",
                    "midi": 57,
                    "time": 65.05263700000008,
                    "velocity": 0.25196850393700787,
                    "duration": 0.11842106250000484
                },
                {
                    "name": "F#3",
                    "midi": 54,
                    "time": 65.36842650000008,
                    "velocity": 0.25196850393700787,
                    "duration": 0.9473684999999819
                },
                {
                    "name": "A3",
                    "midi": 57,
                    "time": 65.36842650000008,
                    "velocity": 0.25196850393700787,
                    "duration": 0.31578949999999395
                },
                {
                    "name": "B3",
                    "midi": 59,
                    "time": 65.68421600000008,
                    "velocity": 0.30708661417322836,
                    "duration": 0.31578949999999395
                },
                {
                    "name": "C4",
                    "midi": 60,
                    "time": 66.00000550000007,
                    "velocity": 0.33858267716535434,
                    "duration": 0.31578949999999395
                },
                {
                    "name": "G3",
                    "midi": 55,
                    "time": 66.31579500000007,
                    "velocity": 0.28346456692913385,
                    "duration": 0.31578949999999395
                },
                {
                    "name": "B3",
                    "midi": 59,
                    "time": 66.31579500000007,
                    "velocity": 0.28346456692913385,
                    "duration": 0.31578949999999395
                },
                {
                    "name": "F#3",
                    "midi": 54,
                    "time": 66.63158450000006,
                    "velocity": 0.29133858267716534,
                    "duration": 0.31578949999999395
                },
                {
                    "name": "A3",
                    "midi": 57,
                    "time": 66.63158450000006,
                    "velocity": 0.29133858267716534,
                    "duration": 0.31578949999999395
                },
                {
                    "name": "E3",
                    "midi": 52,
                    "time": 66.94737400000005,
                    "velocity": 0.29133858267716534,
                    "duration": 0.31578949999999395
                },
                {
                    "name": "G3",
                    "midi": 55,
                    "time": 66.94737400000005,
                    "velocity": 0.29133858267716534,
                    "duration": 0.31578949999999395
                },
                {
                    "name": "G4",
                    "midi": 67,
                    "time": 67.26316350000005,
                    "velocity": 0.25984251968503935,
                    "duration": 0.31578949999999395
                },
                {
                    "name": "A3",
                    "midi": 57,
                    "time": 67.26316350000005,
                    "velocity": 0.25984251968503935,
                    "duration": 0.9473684999999819
                },
                {
                    "name": "F#4",
                    "midi": 66,
                    "time": 67.57895300000004,
                    "velocity": 0.25984251968503935,
                    "duration": 0.31578949999999395
                },
                {
                    "name": "E4",
                    "midi": 64,
                    "time": 67.89474250000004,
                    "velocity": 0.25984251968503935,
                    "duration": 0.31578949999999395
                },
                {
                    "name": "D3",
                    "midi": 50,
                    "time": 68.52632150000002,
                    "velocity": 0.16535433070866143,
                    "duration": 0.31578949999999395
                },
                {
                    "name": "F#3",
                    "midi": 54,
                    "time": 68.52632150000002,
                    "velocity": 0.2125984251968504,
                    "duration": 0.31578949999999395
                },
                {
                    "name": "E3",
                    "midi": 52,
                    "time": 68.84211100000002,
                    "velocity": 0.16535433070866143,
                    "duration": 0.23684212499999546
                },
                {
                    "name": "G3",
                    "midi": 55,
                    "time": 68.84211100000002,
                    "velocity": 0.2125984251968504,
                    "duration": 0.23684212499999546
                },
                {
                    "name": "F#3",
                    "midi": 54,
                    "time": 69.47369000000002,
                    "velocity": 0.18110236220472442,
                    "duration": 0.31578949999999395
                },
                {
                    "name": "A3",
                    "midi": 57,
                    "time": 69.47369000000002,
                    "velocity": 0.2283464566929134,
                    "duration": 0.31578949999999395
                },
                {
                    "name": "G3",
                    "midi": 55,
                    "time": 69.78947950000001,
                    "velocity": 0.16535433070866143,
                    "duration": 0.23684212499999546
                },
                {
                    "name": "B3",
                    "midi": 59,
                    "time": 69.78947950000001,
                    "velocity": 0.2125984251968504,
                    "duration": 0.23684212499999546
                },
                {
                    "name": "A3",
                    "midi": 57,
                    "time": 70.42105850000002,
                    "velocity": 0.2125984251968504,
                    "duration": 0.31578949999999395
                },
                {
                    "name": "C4",
                    "midi": 60,
                    "time": 70.42105850000002,
                    "velocity": 0.2677165354330709,
                    "duration": 0.31578949999999395
                },
                {
                    "name": "G3",
                    "midi": 55,
                    "time": 70.73684800000001,
                    "velocity": 0.1968503937007874,
                    "duration": 0.23684212499999546
                },
                {
                    "name": "B3",
                    "midi": 59,
                    "time": 70.73684800000001,
                    "velocity": 0.25196850393700787,
                    "duration": 0.23684212499999546
                },
                {
                    "name": "F#3",
                    "midi": 54,
                    "time": 71.36842700000001,
                    "velocity": 0.1968503937007874,
                    "duration": 0.31578949999999395
                },
                {
                    "name": "A3",
                    "midi": 57,
                    "time": 71.36842700000001,
                    "velocity": 0.25196850393700787,
                    "duration": 0.31578949999999395
                },
                {
                    "name": "E3",
                    "midi": 52,
                    "time": 71.6842165,
                    "velocity": 0.1968503937007874,
                    "duration": 0.23684212499999546
                },
                {
                    "name": "G3",
                    "midi": 55,
                    "time": 71.6842165,
                    "velocity": 0.25196850393700787,
                    "duration": 0.23684212499999546
                },
                {
                    "name": "D3",
                    "midi": 50,
                    "time": 72.000006,
                    "velocity": 0.25196850393700787,
                    "duration": 0.31578949999999395
                },
                {
                    "name": "F#3",
                    "midi": 54,
                    "time": 72.000006,
                    "velocity": 0.25196850393700787,
                    "duration": 0.31578949999999395
                },
                {
                    "name": "D4",
                    "midi": 62,
                    "time": 72.63158499999999,
                    "velocity": 0.2755905511811024,
                    "duration": 0.15789474999999698
                },
                {
                    "name": "D4",
                    "midi": 62,
                    "time": 72.94737449999998,
                    "velocity": 0.28346456692913385,
                    "duration": 0.15789474999999698
                },
                {
                    "name": "D4",
                    "midi": 62,
                    "time": 73.57895349999998,
                    "velocity": 0.2755905511811024,
                    "duration": 0.15789474999999698
                },
                {
                    "name": "D4",
                    "midi": 62,
                    "time": 73.89474299999998,
                    "velocity": 0.28346456692913385,
                    "duration": 0.15789474999999698
                },
                {
                    "name": "D4",
                    "midi": 62,
                    "time": 74.52632199999998,
                    "velocity": 0.28346456692913385,
                    "duration": 0.15789474999999698
                },
                {
                    "name": "D4",
                    "midi": 62,
                    "time": 74.84211149999997,
                    "velocity": 0.3779527559055118,
                    "duration": 0.4736842499999909
                },
                {
                    "name": "F#4",
                    "midi": 66,
                    "time": 75.15790099999997,
                    "velocity": 0.33858267716535434,
                    "duration": 0.31578949999999395
                },
                {
                    "name": "G4",
                    "midi": 67,
                    "time": 75.47369049999996,
                    "velocity": 0.33858267716535434,
                    "duration": 0.31578949999999395
                },
                {
                    "name": "D4",
                    "midi": 62,
                    "time": 75.78947999999995,
                    "velocity": 0.3228346456692913,
                    "duration": 1.4210527500000012
                },
                {
                    "name": "A4",
                    "midi": 69,
                    "time": 75.78947999999995,
                    "velocity": 0.3228346456692913,
                    "duration": 1.4210527500000012
                },
                {
                    "name": "G3",
                    "midi": 55,
                    "time": 77.68421699999996,
                    "velocity": 0.31496062992125984,
                    "duration": 0.6315790000000021
                },
                {
                    "name": "B3",
                    "midi": 59,
                    "time": 77.68421699999996,
                    "velocity": 0.31496062992125984,
                    "duration": 0.6315790000000021
                },
                {
                    "name": "G3",
                    "midi": 55,
                    "time": 78.31579599999996,
                    "velocity": 0.2992125984251969,
                    "duration": 0.31578949999999395
                },
                {
                    "name": "C4",
                    "midi": 60,
                    "time": 78.31579599999996,
                    "velocity": 0.2992125984251969,
                    "duration": 0.31578949999999395
                },
                {
                    "name": "G3",
                    "midi": 55,
                    "time": 78.63158549999996,
                    "velocity": 0.31496062992125984,
                    "duration": 0.6315790000000021
                },
                {
                    "name": "C4",
                    "midi": 60,
                    "time": 78.63158549999996,
                    "velocity": 0.31496062992125984,
                    "duration": 0.6315790000000021
                },
                {
                    "name": "G3",
                    "midi": 55,
                    "time": 79.26316449999996,
                    "velocity": 0.2992125984251969,
                    "duration": 0.31578949999999395
                },
                {
                    "name": "C4",
                    "midi": 60,
                    "time": 79.26316449999996,
                    "velocity": 0.2992125984251969,
                    "duration": 0.31578949999999395
                },
                {
                    "name": "G3",
                    "midi": 55,
                    "time": 79.57895399999995,
                    "velocity": 0.29133858267716534,
                    "duration": 0.11842106250000484
                },
                {
                    "name": "B3",
                    "midi": 59,
                    "time": 79.57895399999995,
                    "velocity": 0.29133858267716534,
                    "duration": 0.11842106250000484
                },
                {
                    "name": "G3",
                    "midi": 55,
                    "time": 79.89474349999996,
                    "velocity": 0.28346456692913385,
                    "duration": 0.11842106250000484
                },
                {
                    "name": "B3",
                    "midi": 59,
                    "time": 79.89474349999996,
                    "velocity": 0.28346456692913385,
                    "duration": 0.11842106250000484
                },
                {
                    "name": "G3",
                    "midi": 55,
                    "time": 80.21053299999997,
                    "velocity": 0.28346456692913385,
                    "duration": 0.11842106250000484
                },
                {
                    "name": "B3",
                    "midi": 59,
                    "time": 80.21053299999997,
                    "velocity": 0.28346456692913385,
                    "duration": 0.11842106250000484
                },
                {
                    "name": "G3",
                    "midi": 55,
                    "time": 80.52632249999998,
                    "velocity": 0.28346456692913385,
                    "duration": 0.6315790000000021
                },
                {
                    "name": "B3",
                    "midi": 59,
                    "time": 80.52632249999998,
                    "velocity": 0.28346456692913385,
                    "duration": 0.6315790000000021
                },
                {
                    "name": "F#3",
                    "midi": 54,
                    "time": 81.15790149999998,
                    "velocity": 0.28346456692913385,
                    "duration": 0.23684212499999546
                },
                {
                    "name": "A3",
                    "midi": 57,
                    "time": 81.39474362499998,
                    "velocity": 0.28346456692913385,
                    "duration": 0.07894737499999849
                },
                {
                    "name": "G3",
                    "midi": 55,
                    "time": 81.47369099999997,
                    "velocity": 0.30708661417322836,
                    "duration": 0.31578949999999395
                },
                {
                    "name": "F#3",
                    "midi": 54,
                    "time": 81.78948049999997,
                    "velocity": 0.28346456692913385,
                    "duration": 0.31578949999999395
                },
                {
                    "name": "G3",
                    "midi": 55,
                    "time": 82.10526999999996,
                    "velocity": 0.28346456692913385,
                    "duration": 0.31578949999999395
                },
                {
                    "name": "A3",
                    "midi": 57,
                    "time": 82.42105949999996,
                    "velocity": 0.2992125984251969,
                    "duration": 0.6315790000000021
                },
                {
                    "name": "G3",
                    "midi": 55,
                    "time": 83.05263849999996,
                    "velocity": 0.28346456692913385,
                    "duration": 0.31578949999999395
                },
                {
                    "name": "D3",
                    "midi": 50,
                    "time": 83.36842799999995,
                    "velocity": 0.2992125984251969,
                    "duration": 0.31578949999999395
                },
                {
                    "name": "D4",
                    "midi": 62,
                    "time": 83.68421749999995,
                    "velocity": 0.28346456692913385,
                    "duration": 0.31578949999999395
                },
                {
                    "name": "D4",
                    "midi": 62,
                    "time": 84.00000699999994,
                    "velocity": 0.28346456692913385,
                    "duration": 0.31578949999999395
                },
                {
                    "name": "D4",
                    "midi": 62,
                    "time": 84.31579649999993,
                    "velocity": 0.28346456692913385,
                    "duration": 0.31578949999999395
                },
                {
                    "name": "C4",
                    "midi": 60,
                    "time": 84.63158599999993,
                    "velocity": 0.28346456692913385,
                    "duration": 0.31578949999999395
                },
                {
                    "name": "B3",
                    "midi": 59,
                    "time": 84.94737549999992,
                    "velocity": 0.29133858267716534,
                    "duration": 0.31578949999999395
                },
                {
                    "name": "A3",
                    "midi": 57,
                    "time": 85.26316499999992,
                    "velocity": 0.31496062992125984,
                    "duration": 0.6315790000000021
                },
                {
                    "name": "G3",
                    "midi": 55,
                    "time": 85.89474399999992,
                    "velocity": 0.30708661417322836,
                    "duration": 0.31578949999999395
                },
                {
                    "name": "F#3",
                    "midi": 54,
                    "time": 86.21053349999991,
                    "velocity": 0.31496062992125984,
                    "duration": 0.31578949999999395
                },
                {
                    "name": "A3",
                    "midi": 57,
                    "time": 86.5263229999999,
                    "velocity": 0.30708661417322836,
                    "duration": 0.31578949999999395
                },
                {
                    "name": "D4",
                    "midi": 62,
                    "time": 86.8421124999999,
                    "velocity": 0.30708661417322836,
                    "duration": 0.31578949999999395
                },
                {
                    "name": "G3",
                    "midi": 55,
                    "time": 87.1579019999999,
                    "velocity": 0.30708661417322836,
                    "duration": 0.9473684999999961
                },
                {
                    "name": "G2",
                    "midi": 43,
                    "time": 88.10527049999989,
                    "velocity": 0.3228346456692913,
                    "duration": 0.31578949999999395
                },
                {
                    "name": "B2",
                    "midi": 47,
                    "time": 88.42105999999988,
                    "velocity": 0.31496062992125984,
                    "duration": 0.31578949999999395
                },
                {
                    "name": "E3",
                    "midi": 52,
                    "time": 88.73684949999988,
                    "velocity": 0.28346456692913385,
                    "duration": 0.31578949999999395
                },
                {
                    "name": "C3",
                    "midi": 48,
                    "time": 89.05263899999987,
                    "velocity": 0.30708661417322836,
                    "duration": 0.9473684999999961
                },
                {
                    "name": "D3",
                    "midi": 50,
                    "time": 90.00000749999987,
                    "velocity": 0.29133858267716534,
                    "duration": 0.9473684999999961
                },
                {
                    "name": "G2",
                    "midi": 43,
                    "time": 90.94737599999986,
                    "velocity": 0.25196850393700787,
                    "duration": 0.31578949999999395
                },
                {
                    "name": "B2",
                    "midi": 47,
                    "time": 91.26316549999986,
                    "velocity": 0.2047244094488189,
                    "duration": 0.31578949999999395
                },
                {
                    "name": "D3",
                    "midi": 50,
                    "time": 91.57895499999985,
                    "velocity": 0.2047244094488189,
                    "duration": 0.31578949999999395
                },
                {
                    "name": "G3",
                    "midi": 55,
                    "time": 91.89474449999985,
                    "velocity": 0.2047244094488189,
                    "duration": 0.6315790000000021
                },
                {
                    "name": "G3",
                    "midi": 55,
                    "time": 93.15790249999984,
                    "velocity": 0.1889763779527559,
                    "duration": 0.31578949999999395
                },
                {
                    "name": "A#3",
                    "midi": 58,
                    "time": 93.15790249999984,
                    "velocity": 0.2204724409448819,
                    "duration": 0.31578949999999395
                },
                {
                    "name": "C4",
                    "midi": 60,
                    "time": 94.10527099999983,
                    "velocity": 0.25196850393700787,
                    "duration": 0.31578949999999395
                },
                {
                    "name": "G3",
                    "midi": 55,
                    "time": 94.10527099999983,
                    "velocity": 0.2125984251968504,
                    "duration": 0.31578949999999395
                },
                {
                    "name": "G3",
                    "midi": 55,
                    "time": 95.05263949999983,
                    "velocity": 0.2204724409448819,
                    "duration": 0.31578949999999395
                },
                {
                    "name": "C4",
                    "midi": 60,
                    "time": 95.05263949999983,
                    "velocity": 0.2677165354330709,
                    "duration": 0.31578949999999395
                },
                {
                    "name": "G3",
                    "midi": 55,
                    "time": 96.00000799999982,
                    "velocity": 0.3543307086614173,
                    "duration": 0.31578949999999395
                },
                {
                    "name": "A#3",
                    "midi": 58,
                    "time": 96.00000799999982,
                    "velocity": 0.4251968503937008,
                    "duration": 0.31578949999999395
                },
                {
                    "name": "G3",
                    "midi": 55,
                    "time": 96.31579749999982,
                    "velocity": 0.44881889763779526,
                    "duration": 0.31578949999999395
                },
                {
                    "name": "E4",
                    "midi": 64,
                    "time": 96.31579749999982,
                    "velocity": 0.44881889763779526,
                    "duration": 0.31578949999999395
                },
                {
                    "name": "F4",
                    "midi": 65,
                    "time": 96.63158699999981,
                    "velocity": 0.4094488188976378,
                    "duration": 0.6315790000000021
                },
                {
                    "name": "F3",
                    "midi": 53,
                    "time": 96.63158699999981,
                    "velocity": 0.4094488188976378,
                    "duration": 0.6315790000000021
                },
                {
                    "name": "E4",
                    "midi": 64,
                    "time": 97.26316599999981,
                    "velocity": 0.44881889763779526,
                    "duration": 0.31578949999999395
                },
                {
                    "name": "G3",
                    "midi": 55,
                    "time": 97.26316599999981,
                    "velocity": 0.44881889763779526,
                    "duration": 0.31578949999999395
                },
                {
                    "name": "F3",
                    "midi": 53,
                    "time": 97.57895549999981,
                    "velocity": 0.4015748031496063,
                    "duration": 0.6315790000000021
                },
                {
                    "name": "F4",
                    "midi": 65,
                    "time": 97.57895549999981,
                    "velocity": 0.4015748031496063,
                    "duration": 0.6315790000000021
                },
                {
                    "name": "D4",
                    "midi": 62,
                    "time": 98.21053449999981,
                    "velocity": 0.4251968503937008,
                    "duration": 0.31578949999999395
                },
                {
                    "name": "A#3",
                    "midi": 58,
                    "time": 98.21053449999981,
                    "velocity": 0.4251968503937008,
                    "duration": 0.31578949999999395
                },
                {
                    "name": "F4",
                    "midi": 65,
                    "time": 98.21053449999981,
                    "velocity": 0.4251968503937008,
                    "duration": 0.31578949999999395
                },
                {
                    "name": "F4",
                    "midi": 65,
                    "time": 98.5263239999998,
                    "velocity": 0.4094488188976378,
                    "duration": 0.9473684999999961
                },
                {
                    "name": "D4",
                    "midi": 62,
                    "time": 98.5263239999998,
                    "velocity": 0.4094488188976378,
                    "duration": 0.9473684999999961
                },
                {
                    "name": "A3",
                    "midi": 57,
                    "time": 98.5263239999998,
                    "velocity": 0.4094488188976378,
                    "duration": 0.9473684999999961
                },
                {
                    "name": "F4",
                    "midi": 65,
                    "time": 99.4736924999998,
                    "velocity": 0.4015748031496063,
                    "duration": 0.9473684999999961
                },
                {
                    "name": "D4",
                    "midi": 62,
                    "time": 99.4736924999998,
                    "velocity": 0.4015748031496063,
                    "duration": 0.9473684999999961
                },
                {
                    "name": "G#3",
                    "midi": 56,
                    "time": 99.4736924999998,
                    "velocity": 0.4015748031496063,
                    "duration": 0.9473684999999961
                },
                {
                    "name": "F4",
                    "midi": 65,
                    "time": 100.4210609999998,
                    "velocity": 0.31496062992125984,
                    "duration": 0.9473684999999961
                },
                {
                    "name": "D4",
                    "midi": 62,
                    "time": 100.4210609999998,
                    "velocity": 0.31496062992125984,
                    "duration": 0.9473684999999961
                },
                {
                    "name": "A3",
                    "midi": 57,
                    "time": 100.4210609999998,
                    "velocity": 0.31496062992125984,
                    "duration": 0.9473684999999961
                },
                {
                    "name": "G4",
                    "midi": 67,
                    "time": 101.68421899999979,
                    "velocity": 0.2440944881889764,
                    "duration": 0.31578949999999395
                },
                {
                    "name": "G4",
                    "midi": 67,
                    "time": 102.00000849999978,
                    "velocity": 0.2440944881889764,
                    "duration": 0.31578949999999395
                },
                {
                    "name": "G4",
                    "midi": 67,
                    "time": 102.31579799999977,
                    "velocity": 0.2204724409448819,
                    "duration": 0.31578949999999395
                },
                {
                    "name": "F4",
                    "midi": 65,
                    "time": 102.63158749999977,
                    "velocity": 0.1732283464566929,
                    "duration": 0.31578949999999395
                },
                {
                    "name": "E4",
                    "midi": 64,
                    "time": 102.94737699999976,
                    "velocity": 0.16535433070866143,
                    "duration": 0.31578949999999395
                },
                {
                    "name": "D4",
                    "midi": 62,
                    "time": 103.26316649999976,
                    "velocity": 0.1732283464566929,
                    "duration": 0.31578949999999395
                },
                {
                    "name": "G3",
                    "midi": 55,
                    "time": 104.52632449999975,
                    "velocity": 0.1889763779527559,
                    "duration": 0.31578949999999395
                },
                {
                    "name": "A#3",
                    "midi": 58,
                    "time": 104.52632449999975,
                    "velocity": 0.2204724409448819,
                    "duration": 0.31578949999999395
                },
                {
                    "name": "C4",
                    "midi": 60,
                    "time": 105.47369299999974,
                    "velocity": 0.23622047244094488,
                    "duration": 0.31578949999999395
                },
                {
                    "name": "G3",
                    "midi": 55,
                    "time": 105.47369299999974,
                    "velocity": 0.1968503937007874,
                    "duration": 0.31578949999999395
                },
                {
                    "name": "G3",
                    "midi": 55,
                    "time": 106.42106149999974,
                    "velocity": 0.2047244094488189,
                    "duration": 0.31578949999999395
                },
                {
                    "name": "C4",
                    "midi": 60,
                    "time": 106.42106149999974,
                    "velocity": 0.2440944881889764,
                    "duration": 0.31578949999999395
                },
                {
                    "name": "G3",
                    "midi": 55,
                    "time": 107.36842999999973,
                    "velocity": 0.3543307086614173,
                    "duration": 0.31578949999999395
                },
                {
                    "name": "A#3",
                    "midi": 58,
                    "time": 107.36842999999973,
                    "velocity": 0.4251968503937008,
                    "duration": 0.31578949999999395
                },
                {
                    "name": "G3",
                    "midi": 55,
                    "time": 107.68421949999973,
                    "velocity": 0.44881889763779526,
                    "duration": 0.31578949999999395
                },
                {
                    "name": "E4",
                    "midi": 64,
                    "time": 107.68421949999973,
                    "velocity": 0.44881889763779526,
                    "duration": 0.31578949999999395
                },
                {
                    "name": "F4",
                    "midi": 65,
                    "time": 108.00000899999972,
                    "velocity": 0.4094488188976378,
                    "duration": 0.6315790000000021
                },
                {
                    "name": "F3",
                    "midi": 53,
                    "time": 108.00000899999972,
                    "velocity": 0.4094488188976378,
                    "duration": 0.6315790000000021
                },
                {
                    "name": "E4",
                    "midi": 64,
                    "time": 108.63158799999972,
                    "velocity": 0.44881889763779526,
                    "duration": 0.31578949999999395
                },
                {
                    "name": "G3",
                    "midi": 55,
                    "time": 108.63158799999972,
                    "velocity": 0.44881889763779526,
                    "duration": 0.31578949999999395
                },
                {
                    "name": "F3",
                    "midi": 53,
                    "time": 108.94737749999972,
                    "velocity": 0.4015748031496063,
                    "duration": 0.6315790000000021
                },
                {
                    "name": "F4",
                    "midi": 65,
                    "time": 108.94737749999972,
                    "velocity": 0.4015748031496063,
                    "duration": 0.6315790000000021
                },
                {
                    "name": "D4",
                    "midi": 62,
                    "time": 109.57895649999972,
                    "velocity": 0.4251968503937008,
                    "duration": 0.31578949999999395
                },
                {
                    "name": "A#3",
                    "midi": 58,
                    "time": 109.57895649999972,
                    "velocity": 0.4251968503937008,
                    "duration": 0.31578949999999395
                },
                {
                    "name": "F4",
                    "midi": 65,
                    "time": 109.57895649999972,
                    "velocity": 0.4251968503937008,
                    "duration": 0.31578949999999395
                },
                {
                    "name": "F4",
                    "midi": 65,
                    "time": 109.89474599999971,
                    "velocity": 0.4094488188976378,
                    "duration": 0.9473684999999961
                },
                {
                    "name": "D4",
                    "midi": 62,
                    "time": 109.89474599999971,
                    "velocity": 0.4094488188976378,
                    "duration": 0.9473684999999961
                },
                {
                    "name": "A3",
                    "midi": 57,
                    "time": 109.89474599999971,
                    "velocity": 0.4094488188976378,
                    "duration": 0.9473684999999961
                },
                {
                    "name": "F4",
                    "midi": 65,
                    "time": 110.84211449999971,
                    "velocity": 0.4015748031496063,
                    "duration": 0.9473684999999961
                },
                {
                    "name": "D4",
                    "midi": 62,
                    "time": 110.84211449999971,
                    "velocity": 0.4015748031496063,
                    "duration": 0.9473684999999961
                },
                {
                    "name": "G#3",
                    "midi": 56,
                    "time": 110.84211449999971,
                    "velocity": 0.4015748031496063,
                    "duration": 0.9473684999999961
                },
                {
                    "name": "F4",
                    "midi": 65,
                    "time": 111.7894829999997,
                    "velocity": 0.31496062992125984,
                    "duration": 0.9473684999999961
                },
                {
                    "name": "D4",
                    "midi": 62,
                    "time": 111.7894829999997,
                    "velocity": 0.31496062992125984,
                    "duration": 0.9473684999999961
                },
                {
                    "name": "A3",
                    "midi": 57,
                    "time": 111.7894829999997,
                    "velocity": 0.31496062992125984,
                    "duration": 0.9473684999999961
                },
                {
                    "name": "G4",
                    "midi": 67,
                    "time": 113.0526409999997,
                    "velocity": 0.2440944881889764,
                    "duration": 0.31578949999999395
                },
                {
                    "name": "G4",
                    "midi": 67,
                    "time": 113.36843049999969,
                    "velocity": 0.2440944881889764,
                    "duration": 0.31578949999999395
                },
                {
                    "name": "G4",
                    "midi": 67,
                    "time": 113.68421999999968,
                    "velocity": 0.2283464566929134,
                    "duration": 0.31578949999999395
                },
                {
                    "name": "F4",
                    "midi": 65,
                    "time": 114.00000949999968,
                    "velocity": 0.1889763779527559,
                    "duration": 0.31578949999999395
                },
                {
                    "name": "E4",
                    "midi": 64,
                    "time": 114.31579899999967,
                    "velocity": 0.1732283464566929,
                    "duration": 0.31578949999999395
                },
                {
                    "name": "D4",
                    "midi": 62,
                    "time": 114.63158849999967,
                    "velocity": 0.1732283464566929,
                    "duration": 0.31578949999999395
                },
                {
                    "name": "A#3",
                    "midi": 58,
                    "time": 115.89474649999966,
                    "velocity": 0.18110236220472442,
                    "duration": 0.31578949999999395
                },
                {
                    "name": "D4",
                    "midi": 62,
                    "time": 115.89474649999966,
                    "velocity": 0.18110236220472442,
                    "duration": 0.31578949999999395
                },
                {
                    "name": "D#4",
                    "midi": 63,
                    "time": 116.84211499999965,
                    "velocity": 0.2125984251968504,
                    "duration": 0.31578949999999395
                },
                {
                    "name": "A3",
                    "midi": 57,
                    "time": 116.84211499999965,
                    "velocity": 0.2125984251968504,
                    "duration": 0.31578949999999395
                },
                {
                    "name": "G3",
                    "midi": 55,
                    "time": 117.78948349999965,
                    "velocity": 0.2125984251968504,
                    "duration": 0.31578949999999395
                },
                {
                    "name": "A#3",
                    "midi": 58,
                    "time": 117.78948349999965,
                    "velocity": 0.2125984251968504,
                    "duration": 0.31578949999999395
                },
                {
                    "name": "D3",
                    "midi": 50,
                    "time": 118.73685199999964,
                    "velocity": 0.3543307086614173,
                    "duration": 0.31578949999999395
                },
                {
                    "name": "D2",
                    "midi": 38,
                    "time": 118.73685199999964,
                    "velocity": 0.3543307086614173,
                    "duration": 0.31578949999999395
                },
                {
                    "name": "A#3",
                    "midi": 58,
                    "time": 119.05264149999964,
                    "velocity": 0.3543307086614173,
                    "duration": 0.31578949999999395
                },
                {
                    "name": "D4",
                    "midi": 62,
                    "time": 119.05264149999964,
                    "velocity": 0.4330708661417323,
                    "duration": 0.31578949999999395
                },
                {
                    "name": "D#4",
                    "midi": 63,
                    "time": 119.36843099999963,
                    "velocity": 0.3937007874015748,
                    "duration": 0.6315790000000021
                },
                {
                    "name": "C4",
                    "midi": 60,
                    "time": 119.36843099999963,
                    "velocity": 0.33070866141732286,
                    "duration": 0.6315790000000021
                },
                {
                    "name": "D4",
                    "midi": 62,
                    "time": 120.00000999999963,
                    "velocity": 0.4330708661417323,
                    "duration": 0.31578949999999395
                },
                {
                    "name": "A#3",
                    "midi": 58,
                    "time": 120.00000999999963,
                    "velocity": 0.3543307086614173,
                    "duration": 0.31578949999999395
                },
                {
                    "name": "C4",
                    "midi": 60,
                    "time": 120.31579949999963,
                    "velocity": 0.3228346456692913,
                    "duration": 0.6315790000000021
                },
                {
                    "name": "D#4",
                    "midi": 63,
                    "time": 120.31579949999963,
                    "velocity": 0.3858267716535433,
                    "duration": 0.6315790000000021
                },
                {
                    "name": "D4",
                    "midi": 62,
                    "time": 120.94737849999963,
                    "velocity": 0.4094488188976378,
                    "duration": 0.31578949999999395
                },
                {
                    "name": "A#3",
                    "midi": 58,
                    "time": 120.94737849999963,
                    "velocity": 0.3464566929133858,
                    "duration": 0.31578949999999395
                },
                {
                    "name": "D#4",
                    "midi": 63,
                    "time": 121.26316799999962,
                    "velocity": 0.36220472440944884,
                    "duration": 0.9473684999999961
                },
                {
                    "name": "C4",
                    "midi": 60,
                    "time": 121.26316799999962,
                    "velocity": 0.36220472440944884,
                    "duration": 0.9473684999999961
                },
                {
                    "name": "F#3",
                    "midi": 54,
                    "time": 121.26316799999962,
                    "velocity": 0.30708661417322836,
                    "duration": 0.9473684999999961
                },
                {
                    "name": "A3",
                    "midi": 57,
                    "time": 121.26316799999962,
                    "velocity": 0.30708661417322836,
                    "duration": 0.9473684999999961
                },
                {
                    "name": "G3",
                    "midi": 55,
                    "time": 122.21053649999962,
                    "velocity": 0.28346456692913385,
                    "duration": 0.9473684999999961
                },
                {
                    "name": "C4",
                    "midi": 60,
                    "time": 123.15790499999962,
                    "velocity": 0.2992125984251969,
                    "duration": 0.9473684999999819
                },
                {
                    "name": "C5",
                    "midi": 72,
                    "time": 123.47369449999961,
                    "velocity": 0.25984251968503935,
                    "duration": 0.31578949999999395
                },
                {
                    "name": "C5",
                    "midi": 72,
                    "time": 123.7894839999996,
                    "velocity": 0.25984251968503935,
                    "duration": 0.6315789999999879
                },
                {
                    "name": "D4",
                    "midi": 62,
                    "time": 124.1052734999996,
                    "velocity": 0.2992125984251969,
                    "duration": 0.9473684999999819
                },
                {
                    "name": "A#4",
                    "midi": 70,
                    "time": 124.42106299999959,
                    "velocity": 0.28346456692913385,
                    "duration": 0.31578949999999395
                },
                {
                    "name": "A4",
                    "midi": 69,
                    "time": 124.73685249999959,
                    "velocity": 0.2677165354330709,
                    "duration": 0.31578949999999395
                },
                {
                    "name": "G3",
                    "midi": 55,
                    "time": 125.05264199999958,
                    "velocity": 0.2047244094488189,
                    "duration": 1.26315799999999
                },
                {
                    "name": "A4",
                    "midi": 69,
                    "time": 125.05264199999958,
                    "velocity": 0.2047244094488189,
                    "duration": 0.9473684999999961
                },
                {
                    "name": "G4",
                    "midi": 67,
                    "time": 126.00001049999958,
                    "velocity": 0.2125984251968504,
                    "duration": 0.31578949999999395
                },
                {
                    "name": "A#3",
                    "midi": 58,
                    "time": 127.26316849999957,
                    "velocity": 0.1889763779527559,
                    "duration": 0.31578949999999395
                },
                {
                    "name": "D4",
                    "midi": 62,
                    "time": 127.26316849999957,
                    "velocity": 0.1889763779527559,
                    "duration": 0.31578949999999395
                },
                {
                    "name": "D#4",
                    "midi": 63,
                    "time": 128.21053699999956,
                    "velocity": 0.2125984251968504,
                    "duration": 0.31578949999999395
                },
                {
                    "name": "A3",
                    "midi": 57,
                    "time": 128.21053699999956,
                    "velocity": 0.2125984251968504,
                    "duration": 0.31578949999999395
                },
                {
                    "name": "G3",
                    "midi": 55,
                    "time": 129.15790549999954,
                    "velocity": 0.2125984251968504,
                    "duration": 0.31578949999999395
                },
                {
                    "name": "A#3",
                    "midi": 58,
                    "time": 129.15790549999954,
                    "velocity": 0.2125984251968504,
                    "duration": 0.31578949999999395
                },
                {
                    "name": "D3",
                    "midi": 50,
                    "time": 130.10527399999953,
                    "velocity": 0.3543307086614173,
                    "duration": 0.31578949999999395
                },
                {
                    "name": "D2",
                    "midi": 38,
                    "time": 130.10527399999953,
                    "velocity": 0.3543307086614173,
                    "duration": 0.31578949999999395
                },
                {
                    "name": "A#3",
                    "midi": 58,
                    "time": 130.42106349999952,
                    "velocity": 0.3543307086614173,
                    "duration": 0.31578949999999395
                },
                {
                    "name": "D4",
                    "midi": 62,
                    "time": 130.42106349999952,
                    "velocity": 0.4330708661417323,
                    "duration": 0.31578949999999395
                },
                {
                    "name": "D#4",
                    "midi": 63,
                    "time": 130.7368529999995,
                    "velocity": 0.3937007874015748,
                    "duration": 0.6315789999999879
                },
                {
                    "name": "C4",
                    "midi": 60,
                    "time": 130.7368529999995,
                    "velocity": 0.33070866141732286,
                    "duration": 0.6315789999999879
                },
                {
                    "name": "D4",
                    "midi": 62,
                    "time": 131.3684319999995,
                    "velocity": 0.4330708661417323,
                    "duration": 0.31578949999999395
                },
                {
                    "name": "A#3",
                    "midi": 58,
                    "time": 131.3684319999995,
                    "velocity": 0.3543307086614173,
                    "duration": 0.31578949999999395
                },
                {
                    "name": "C4",
                    "midi": 60,
                    "time": 131.6842214999995,
                    "velocity": 0.3228346456692913,
                    "duration": 0.6315789999999879
                },
                {
                    "name": "D#4",
                    "midi": 63,
                    "time": 131.6842214999995,
                    "velocity": 0.3858267716535433,
                    "duration": 0.6315789999999879
                },
                {
                    "name": "D4",
                    "midi": 62,
                    "time": 132.31580049999948,
                    "velocity": 0.4094488188976378,
                    "duration": 0.31578949999999395
                },
                {
                    "name": "A#3",
                    "midi": 58,
                    "time": 132.31580049999948,
                    "velocity": 0.3464566929133858,
                    "duration": 0.31578949999999395
                },
                {
                    "name": "D#4",
                    "midi": 63,
                    "time": 132.63158999999948,
                    "velocity": 0.36220472440944884,
                    "duration": 0.9473685000000103
                },
                {
                    "name": "C4",
                    "midi": 60,
                    "time": 132.63158999999948,
                    "velocity": 0.36220472440944884,
                    "duration": 0.9473685000000103
                },
                {
                    "name": "F#3",
                    "midi": 54,
                    "time": 132.63158999999948,
                    "velocity": 0.30708661417322836,
                    "duration": 0.9473685000000103
                },
                {
                    "name": "A3",
                    "midi": 57,
                    "time": 132.63158999999948,
                    "velocity": 0.30708661417322836,
                    "duration": 0.9473685000000103
                },
                {
                    "name": "G3",
                    "midi": 55,
                    "time": 133.5789584999995,
                    "velocity": 0.28346456692913385,
                    "duration": 0.9473685000000103
                },
                {
                    "name": "C4",
                    "midi": 60,
                    "time": 134.5263269999995,
                    "velocity": 0.2992125984251969,
                    "duration": 0.9473684999999819
                },
                {
                    "name": "C5",
                    "midi": 72,
                    "time": 134.8421164999995,
                    "velocity": 0.25984251968503935,
                    "duration": 0.31578949999999395
                },
                {
                    "name": "C5",
                    "midi": 72,
                    "time": 135.15790599999949,
                    "velocity": 0.25984251968503935,
                    "duration": 0.6315789999999879
                },
                {
                    "name": "D4",
                    "midi": 62,
                    "time": 135.47369549999948,
                    "velocity": 0.2992125984251969,
                    "duration": 0.9473684999999819
                },
                {
                    "name": "A#4",
                    "midi": 70,
                    "time": 135.78948499999947,
                    "velocity": 0.28346456692913385,
                    "duration": 0.31578949999999395
                },
                {
                    "name": "A4",
                    "midi": 69,
                    "time": 136.10527449999947,
                    "velocity": 0.2677165354330709,
                    "duration": 0.31578949999999395
                },
                {
                    "name": "G3",
                    "midi": 55,
                    "time": 136.42106399999946,
                    "velocity": 0.2047244094488189,
                    "duration": 1.2631580000000042
                },
                {
                    "name": "A4",
                    "midi": 69,
                    "time": 136.42106399999946,
                    "velocity": 0.2047244094488189,
                    "duration": 0.9473685000000103
                },
                {
                    "name": "G4",
                    "midi": 67,
                    "time": 137.36843249999947,
                    "velocity": 0.2125984251968504,
                    "duration": 0.31578949999999395
                },
                {
                    "name": "B3",
                    "midi": 59,
                    "time": 138.00001149999946,
                    "velocity": 0.2992125984251969,
                    "duration": 0.31578949999999395
                },
                {
                    "name": "G3",
                    "midi": 55,
                    "time": 138.00001149999946,
                    "velocity": 0.2992125984251969,
                    "duration": 0.31578949999999395
                },
                {
                    "name": "G3",
                    "midi": 55,
                    "time": 138.31580099999945,
                    "velocity": 0.31496062992125984,
                    "duration": 0.6315789999999879
                },
                {
                    "name": "B3",
                    "midi": 59,
                    "time": 138.31580099999945,
                    "velocity": 0.31496062992125984,
                    "duration": 0.6315789999999879
                },
                {
                    "name": "G3",
                    "midi": 55,
                    "time": 138.94737999999944,
                    "velocity": 0.2992125984251969,
                    "duration": 0.31578949999999395
                },
                {
                    "name": "C4",
                    "midi": 60,
                    "time": 138.94737999999944,
                    "velocity": 0.2992125984251969,
                    "duration": 0.31578949999999395
                },
                {
                    "name": "G3",
                    "midi": 55,
                    "time": 139.26316949999944,
                    "velocity": 0.31496062992125984,
                    "duration": 0.6315789999999879
                },
                {
                    "name": "C4",
                    "midi": 60,
                    "time": 139.26316949999944,
                    "velocity": 0.31496062992125984,
                    "duration": 0.6315789999999879
                },
                {
                    "name": "G3",
                    "midi": 55,
                    "time": 139.89474849999942,
                    "velocity": 0.2992125984251969,
                    "duration": 0.31578949999999395
                },
                {
                    "name": "C4",
                    "midi": 60,
                    "time": 139.89474849999942,
                    "velocity": 0.2992125984251969,
                    "duration": 0.31578949999999395
                },
                {
                    "name": "G3",
                    "midi": 55,
                    "time": 140.21053799999942,
                    "velocity": 0.2677165354330709,
                    "duration": 1.5789474999999698
                },
                {
                    "name": "B3",
                    "midi": 59,
                    "time": 140.21053799999942,
                    "velocity": 0.2677165354330709,
                    "duration": 0.1710526458333277
                },
                {
                    "name": "A#3",
                    "midi": 58,
                    "time": 140.3684327499994,
                    "velocity": 0.23622047244094488,
                    "duration": 0.15789474999999698
                },
                {
                    "name": "B3",
                    "midi": 59,
                    "time": 140.5263274999994,
                    "velocity": 0.25984251968503935,
                    "duration": 0.1710526458333277
                },
                {
                    "name": "A#3",
                    "midi": 58,
                    "time": 140.6842222499994,
                    "velocity": 0.23622047244094488,
                    "duration": 0.15789474999999698
                },
                {
                    "name": "B3",
                    "midi": 59,
                    "time": 140.8421169999994,
                    "velocity": 0.25196850393700787,
                    "duration": 0.1710526458333277
                },
                {
                    "name": "A#3",
                    "midi": 58,
                    "time": 141.0000117499994,
                    "velocity": 0.2440944881889764,
                    "duration": 0.15789474999999698
                },
                {
                    "name": "B3",
                    "midi": 59,
                    "time": 141.1579064999994,
                    "velocity": 0.28346456692913385,
                    "duration": 0.6315789999999879
                },
                {
                    "name": "F#3",
                    "midi": 54,
                    "time": 141.7894854999994,
                    "velocity": 0.28346456692913385,
                    "duration": 0.23684212500000967
                },
                {
                    "name": "A3",
                    "midi": 57,
                    "time": 142.0263276249994,
                    "velocity": 0.3228346456692913,
                    "duration": 0.0789473750000127
                },
                {
                    "name": "G3",
                    "midi": 55,
                    "time": 142.1052749999994,
                    "velocity": 0.30708661417322836,
                    "duration": 0.15789474999999698
                },
                {
                    "name": "F#3",
                    "midi": 54,
                    "time": 142.2631697499994,
                    "velocity": 0.28346456692913385,
                    "duration": 0.15789474999999698
                },
                {
                    "name": "G3",
                    "midi": 55,
                    "time": 142.4210644999994,
                    "velocity": 0.30708661417322836,
                    "duration": 0.15789474999999698
                },
                {
                    "name": "F#3",
                    "midi": 54,
                    "time": 142.5789592499994,
                    "velocity": 0.28346456692913385,
                    "duration": 0.15789474999999698
                },
                {
                    "name": "G3",
                    "midi": 55,
                    "time": 142.7368539999994,
                    "velocity": 0.30708661417322836,
                    "duration": 0.15789474999999698
                },
                {
                    "name": "B3",
                    "midi": 59,
                    "time": 142.8947487499994,
                    "velocity": 0.28346456692913385,
                    "duration": 0.15789474999999698
                },
                {
                    "name": "A3",
                    "midi": 57,
                    "time": 143.0526434999994,
                    "velocity": 0.2992125984251969,
                    "duration": 0.6315789999999879
                },
                {
                    "name": "G3",
                    "midi": 55,
                    "time": 143.68422249999938,
                    "velocity": 0.28346456692913385,
                    "duration": 0.31578949999999395
                },
                {
                    "name": "D3",
                    "midi": 50,
                    "time": 144.00001199999937,
                    "velocity": 0.2992125984251969,
                    "duration": 0.15789474999999698
                },
                {
                    "name": "C#4",
                    "midi": 61,
                    "time": 144.15790674999937,
                    "velocity": 0.25196850393700787,
                    "duration": 0.15789474999999698
                },
                {
                    "name": "D4",
                    "midi": 62,
                    "time": 144.31580149999937,
                    "velocity": 0.29133858267716534,
                    "duration": 0.15789474999999698
                },
                {
                    "name": "C#4",
                    "midi": 61,
                    "time": 144.47369624999936,
                    "velocity": 0.25984251968503935,
                    "duration": 0.15789474999999698
                },
                {
                    "name": "D4",
                    "midi": 62,
                    "time": 144.63159099999936,
                    "velocity": 0.29133858267716534,
                    "duration": 0.15789474999999698
                },
                {
                    "name": "C#4",
                    "midi": 61,
                    "time": 144.78948574999936,
                    "velocity": 0.25984251968503935,
                    "duration": 0.15789474999999698
                },
                {
                    "name": "D4",
                    "midi": 62,
                    "time": 144.94738049999935,
                    "velocity": 0.2992125984251969,
                    "duration": 0.15789474999999698
                },
                {
                    "name": "E4",
                    "midi": 64,
                    "time": 145.10527524999935,
                    "velocity": 0.28346456692913385,
                    "duration": 0.15789474999999698
                },
                {
                    "name": "C4",
                    "midi": 60,
                    "time": 145.26316999999935,
                    "velocity": 0.2992125984251969,
                    "duration": 0.15789474999999698
                },
                {
                    "name": "D4",
                    "midi": 62,
                    "time": 145.42106474999935,
                    "velocity": 0.28346456692913385,
                    "duration": 0.15789474999999698
                },
                {
                    "name": "B3",
                    "midi": 59,
                    "time": 145.57895949999934,
                    "velocity": 0.30708661417322836,
                    "duration": 0.15789474999999698
                },
                {
                    "name": "C4",
                    "midi": 60,
                    "time": 145.73685424999934,
                    "velocity": 0.28346456692913385,
                    "duration": 0.15789474999999698
                },
                {
                    "name": "A3",
                    "midi": 57,
                    "time": 145.89474899999934,
                    "velocity": 0.31496062992125984,
                    "duration": 0.15789474999999698
                },
                {
                    "name": "E4",
                    "midi": 64,
                    "time": 146.05264374999933,
                    "velocity": 0.29133858267716534,
                    "duration": 0.15789474999999698
                },
                {
                    "name": "C4",
                    "midi": 60,
                    "time": 146.21053849999933,
                    "velocity": 0.29133858267716534,
                    "duration": 0.15789474999999698
                },
                {
                    "name": "B3",
                    "midi": 59,
                    "time": 146.36843324999933,
                    "velocity": 0.28346456692913385,
                    "duration": 0.15789474999999698
                },
                {
                    "name": "A3",
                    "midi": 57,
                    "time": 146.52632799999932,
                    "velocity": 0.28346456692913385,
                    "duration": 0.15789474999999698
                },
                {
                    "name": "G3",
                    "midi": 55,
                    "time": 146.68422274999932,
                    "velocity": 0.28346456692913385,
                    "duration": 0.15789474999999698
                },
                {
                    "name": "F#3",
                    "midi": 54,
                    "time": 146.84211749999932,
                    "velocity": 0.28346456692913385,
                    "duration": 0.15789474999999698
                },
                {
                    "name": "A3",
                    "midi": 57,
                    "time": 147.00001224999932,
                    "velocity": 0.2755905511811024,
                    "duration": 0.15789474999999698
                },
                {
                    "name": "C4",
                    "midi": 60,
                    "time": 147.1579069999993,
                    "velocity": 0.28346456692913385,
                    "duration": 0.15789474999999698
                },
                {
                    "name": "D4",
                    "midi": 62,
                    "time": 147.3158017499993,
                    "velocity": 0.29133858267716534,
                    "duration": 0.15789474999999698
                },
                {
                    "name": "E4",
                    "midi": 64,
                    "time": 147.4736964999993,
                    "velocity": 0.30708661417322836,
                    "duration": 0.15789474999999698
                },
                {
                    "name": "F#4",
                    "midi": 66,
                    "time": 147.6315912499993,
                    "velocity": 0.31496062992125984,
                    "duration": 0.15789474999999698
                },
                {
                    "name": "G4",
                    "midi": 67,
                    "time": 147.7894859999993,
                    "velocity": 0.36220472440944884,
                    "duration": 0.6315789999999879
                },
                {
                    "name": "F4",
                    "midi": 65,
                    "time": 148.4210649999993,
                    "velocity": 0.3543307086614173,
                    "duration": 0.31578949999999395
                },
                {
                    "name": "E4",
                    "midi": 64,
                    "time": 148.73685449999928,
                    "velocity": 0.3543307086614173,
                    "duration": 0.15789474999999698
                },
                {
                    "name": "G4",
                    "midi": 67,
                    "time": 148.89474924999928,
                    "velocity": 0.33070866141732286,
                    "duration": 0.15789474999999698
                },
                {
                    "name": "D4",
                    "midi": 62,
                    "time": 149.05264399999928,
                    "velocity": 0.3464566929133858,
                    "duration": 0.15789474999999698
                },
                {
                    "name": "F4",
                    "midi": 65,
                    "time": 149.21053874999927,
                    "velocity": 0.31496062992125984,
                    "duration": 0.15789474999999698
                },
                {
                    "name": "C4",
                    "midi": 60,
                    "time": 149.36843349999927,
                    "velocity": 0.33858267716535434,
                    "duration": 0.15789474999999698
                },
                {
                    "name": "E4",
                    "midi": 64,
                    "time": 149.52632824999927,
                    "velocity": 0.2992125984251969,
                    "duration": 0.15789474999999698
                },
                {
                    "name": "B3",
                    "midi": 59,
                    "time": 149.68422299999926,
                    "velocity": 0.33070866141732286,
                    "duration": 0.15789474999999698
                },
                {
                    "name": "D4",
                    "midi": 62,
                    "time": 149.84211774999926,
                    "velocity": 0.30708661417322836,
                    "duration": 0.15789474999999698
                },
                {
                    "name": "G3",
                    "midi": 55,
                    "time": 150.00001249999926,
                    "velocity": 0.33070866141732286,
                    "duration": 0.15789474999999698
                },
                {
                    "name": "B3",
                    "midi": 59,
                    "time": 150.15790724999925,
                    "velocity": 0.30708661417322836,
                    "duration": 0.15789474999999698
                },
                {
                    "name": "F#3",
                    "midi": 54,
                    "time": 150.31580199999925,
                    "velocity": 0.33070866141732286,
                    "duration": 0.15789474999999698
                },
                {
                    "name": "A3",
                    "midi": 57,
                    "time": 150.47369674999925,
                    "velocity": 0.30708661417322836,
                    "duration": 0.15789474999999698
                },
                {
                    "name": "E3",
                    "midi": 52,
                    "time": 150.63159149999925,
                    "velocity": 0.33858267716535434,
                    "duration": 0.15789474999999698
                },
                {
                    "name": "G3",
                    "midi": 55,
                    "time": 150.78948624999924,
                    "velocity": 0.33070866141732286,
                    "duration": 0.15789474999999698
                },
                {
                    "name": "A3",
                    "midi": 57,
                    "time": 150.94738099999924,
                    "velocity": 0.3228346456692913,
                    "duration": 0.15789474999999698
                },
                {
                    "name": "C#4",
                    "midi": 61,
                    "time": 151.10527574999924,
                    "velocity": 0.3228346456692913,
                    "duration": 0.15789474999999698
                },
                {
                    "name": "E4",
                    "midi": 64,
                    "time": 151.26317049999923,
                    "velocity": 0.31496062992125984,
                    "duration": 0.15789474999999698
                },
                {
                    "name": "G4",
                    "midi": 67,
                    "time": 151.42106524999923,
                    "velocity": 0.30708661417322836,
                    "duration": 0.4736842499999909
                },
                {
                    "name": "D4",
                    "midi": 62,
                    "time": 151.57895999999923,
                    "velocity": 0.31496062992125984,
                    "duration": 0.6315789999999879
                },
                {
                    "name": "D4",
                    "midi": 62,
                    "time": 151.89474949999922,
                    "velocity": 0.2677165354330709,
                    "duration": 0.6315789999999879
                },
                {
                    "name": "F#4",
                    "midi": 66,
                    "time": 151.89474949999922,
                    "velocity": 0.2677165354330709,
                    "duration": 0.31578949999999395
                },
                {
                    "name": "D4",
                    "midi": 62,
                    "time": 152.21053899999922,
                    "velocity": 0.2677165354330709,
                    "duration": 0.31578949999999395
                },
                {
                    "name": "F#4",
                    "midi": 66,
                    "time": 152.21053899999922,
                    "velocity": 0.2677165354330709,
                    "duration": 0.31578949999999395
                },
                {
                    "name": "D4",
                    "midi": 62,
                    "time": 152.5263284999992,
                    "velocity": 0.25196850393700787,
                    "duration": 0.6315789999999879
                },
                {
                    "name": "F#4",
                    "midi": 66,
                    "time": 152.5263284999992,
                    "velocity": 0.25196850393700787,
                    "duration": 0.6315789999999879
                },
                {
                    "name": "G3",
                    "midi": 55,
                    "time": 153.4736969999992,
                    "velocity": 0.31496062992125984,
                    "duration": 0.6315789999999879
                },
                {
                    "name": "B3",
                    "midi": 59,
                    "time": 153.4736969999992,
                    "velocity": 0.31496062992125984,
                    "duration": 0.6315789999999879
                },
                {
                    "name": "G3",
                    "midi": 55,
                    "time": 154.10527599999918,
                    "velocity": 0.2992125984251969,
                    "duration": 0.31578949999999395
                },
                {
                    "name": "C4",
                    "midi": 60,
                    "time": 154.10527599999918,
                    "velocity": 0.2992125984251969,
                    "duration": 0.31578949999999395
                },
                {
                    "name": "G3",
                    "midi": 55,
                    "time": 154.42106549999917,
                    "velocity": 0.31496062992125984,
                    "duration": 0.6315789999999879
                },
                {
                    "name": "C4",
                    "midi": 60,
                    "time": 154.42106549999917,
                    "velocity": 0.31496062992125984,
                    "duration": 0.6315789999999879
                },
                {
                    "name": "G3",
                    "midi": 55,
                    "time": 155.05264449999916,
                    "velocity": 0.2992125984251969,
                    "duration": 0.31578949999999395
                },
                {
                    "name": "C4",
                    "midi": 60,
                    "time": 155.05264449999916,
                    "velocity": 0.2992125984251969,
                    "duration": 0.31578949999999395
                },
                {
                    "name": "G3",
                    "midi": 55,
                    "time": 155.36843399999916,
                    "velocity": 0.29133858267716534,
                    "duration": 1.5789474999999698
                },
                {
                    "name": "B3",
                    "midi": 59,
                    "time": 155.36843399999916,
                    "velocity": 0.29133858267716534,
                    "duration": 0.1710526458333277
                },
                {
                    "name": "A#3",
                    "midi": 58,
                    "time": 155.52632874999915,
                    "velocity": 0.25196850393700787,
                    "duration": 0.15789474999999698
                },
                {
                    "name": "B3",
                    "midi": 59,
                    "time": 155.68422349999915,
                    "velocity": 0.28346456692913385,
                    "duration": 0.1710526458333277
                },
                {
                    "name": "A#3",
                    "midi": 58,
                    "time": 155.84211824999915,
                    "velocity": 0.25984251968503935,
                    "duration": 0.15789474999999698
                },
                {
                    "name": "B3",
                    "midi": 59,
                    "time": 156.00001299999914,
                    "velocity": 0.2755905511811024,
                    "duration": 0.1710526458333277
                },
                {
                    "name": "A#3",
                    "midi": 58,
                    "time": 156.15790774999914,
                    "velocity": 0.25196850393700787,
                    "duration": 0.15789474999999698
                },
                {
                    "name": "B3",
                    "midi": 59,
                    "time": 156.31580249999914,
                    "velocity": 0.28346456692913385,
                    "duration": 0.6315789999999879
                },
                {
                    "name": "F#3",
                    "midi": 54,
                    "time": 156.94738149999912,
                    "velocity": 0.28346456692913385,
                    "duration": 0.23684212500000967
                },
                {
                    "name": "A3",
                    "midi": 57,
                    "time": 157.18422362499913,
                    "velocity": 0.3228346456692913,
                    "duration": 0.0789473750000127
                },
                {
                    "name": "G3",
                    "midi": 55,
                    "time": 157.26317099999915,
                    "velocity": 0.30708661417322836,
                    "duration": 0.15789474999999698
                },
                {
                    "name": "F#3",
                    "midi": 54,
                    "time": 157.42106574999914,
                    "velocity": 0.28346456692913385,
                    "duration": 0.15789474999999698
                },
                {
                    "name": "G3",
                    "midi": 55,
                    "time": 157.57896049999914,
                    "velocity": 0.30708661417322836,
                    "duration": 0.15789474999999698
                },
                {
                    "name": "F#3",
                    "midi": 54,
                    "time": 157.73685524999914,
                    "velocity": 0.28346456692913385,
                    "duration": 0.15789474999999698
                },
                {
                    "name": "G3",
                    "midi": 55,
                    "time": 157.89474999999914,
                    "velocity": 0.30708661417322836,
                    "duration": 0.15789474999999698
                },
                {
                    "name": "B3",
                    "midi": 59,
                    "time": 158.05264474999913,
                    "velocity": 0.28346456692913385,
                    "duration": 0.15789474999999698
                },
                {
                    "name": "A3",
                    "midi": 57,
                    "time": 158.21053949999913,
                    "velocity": 0.2992125984251969,
                    "duration": 0.6315789999999879
                },
                {
                    "name": "G3",
                    "midi": 55,
                    "time": 158.84211849999912,
                    "velocity": 0.28346456692913385,
                    "duration": 0.31578949999999395
                },
                {
                    "name": "D3",
                    "midi": 50,
                    "time": 159.1579079999991,
                    "velocity": 0.2992125984251969,
                    "duration": 0.15789474999999698
                },
                {
                    "name": "C#4",
                    "midi": 61,
                    "time": 159.3158027499991,
                    "velocity": 0.28346456692913385,
                    "duration": 0.15789474999999698
                },
                {
                    "name": "D4",
                    "midi": 62,
                    "time": 159.4736974999991,
                    "velocity": 0.29133858267716534,
                    "duration": 0.15789474999999698
                },
                {
                    "name": "C#4",
                    "midi": 61,
                    "time": 159.6315922499991,
                    "velocity": 0.28346456692913385,
                    "duration": 0.15789474999999698
                },
                {
                    "name": "D4",
                    "midi": 62,
                    "time": 159.7894869999991,
                    "velocity": 0.29133858267716534,
                    "duration": 0.15789474999999698
                },
                {
                    "name": "C#4",
                    "midi": 61,
                    "time": 159.9473817499991,
                    "velocity": 0.28346456692913385,
                    "duration": 0.15789474999999698
                },
                {
                    "name": "D4",
                    "midi": 62,
                    "time": 160.1052764999991,
                    "velocity": 0.2992125984251969,
                    "duration": 0.15789474999999698
                },
                {
                    "name": "E4",
                    "midi": 64,
                    "time": 160.2631712499991,
                    "velocity": 0.28346456692913385,
                    "duration": 0.15789474999999698
                },
                {
                    "name": "C4",
                    "midi": 60,
                    "time": 160.4210659999991,
                    "velocity": 0.2992125984251969,
                    "duration": 0.15789474999999698
                },
                {
                    "name": "D4",
                    "midi": 62,
                    "time": 160.57896074999908,
                    "velocity": 0.28346456692913385,
                    "duration": 0.15789474999999698
                },
                {
                    "name": "B3",
                    "midi": 59,
                    "time": 160.73685549999908,
                    "velocity": 0.30708661417322836,
                    "duration": 0.15789474999999698
                },
                {
                    "name": "C4",
                    "midi": 60,
                    "time": 160.89475024999908,
                    "velocity": 0.28346456692913385,
                    "duration": 0.15789474999999698
                },
                {
                    "name": "A3",
                    "midi": 57,
                    "time": 161.05264499999907,
                    "velocity": 0.31496062992125984,
                    "duration": 0.15789474999999698
                },
                {
                    "name": "E4",
                    "midi": 64,
                    "time": 161.21053974999907,
                    "velocity": 0.29133858267716534,
                    "duration": 0.15789474999999698
                },
                {
                    "name": "C4",
                    "midi": 60,
                    "time": 161.36843449999907,
                    "velocity": 0.29133858267716534,
                    "duration": 0.15789474999999698
                },
                {
                    "name": "B3",
                    "midi": 59,
                    "time": 161.52632924999907,
                    "velocity": 0.28346456692913385,
                    "duration": 0.15789474999999698
                },
                {
                    "name": "A3",
                    "midi": 57,
                    "time": 161.68422399999906,
                    "velocity": 0.28346456692913385,
                    "duration": 0.15789474999999698
                },
                {
                    "name": "G3",
                    "midi": 55,
                    "time": 161.84211874999906,
                    "velocity": 0.28346456692913385,
                    "duration": 0.15789474999999698
                },
                {
                    "name": "F#3",
                    "midi": 54,
                    "time": 162.00001349999906,
                    "velocity": 0.28346456692913385,
                    "duration": 0.15789474999999698
                },
                {
                    "name": "A3",
                    "midi": 57,
                    "time": 162.15790824999905,
                    "velocity": 0.2755905511811024,
                    "duration": 0.15789474999999698
                },
                {
                    "name": "C4",
                    "midi": 60,
                    "time": 162.31580299999905,
                    "velocity": 0.28346456692913385,
                    "duration": 0.15789474999999698
                },
                {
                    "name": "D4",
                    "midi": 62,
                    "time": 162.47369774999905,
                    "velocity": 0.29133858267716534,
                    "duration": 0.15789474999999698
                },
                {
                    "name": "E4",
                    "midi": 64,
                    "time": 162.63159249999904,
                    "velocity": 0.30708661417322836,
                    "duration": 0.15789474999999698
                },
                {
                    "name": "F#4",
                    "midi": 66,
                    "time": 162.78948724999904,
                    "velocity": 0.31496062992125984,
                    "duration": 0.15789474999999698
                },
                {
                    "name": "G4",
                    "midi": 67,
                    "time": 162.94738199999904,
                    "velocity": 0.36220472440944884,
                    "duration": 0.6315789999999879
                },
                {
                    "name": "F4",
                    "midi": 65,
                    "time": 163.57896099999903,
                    "velocity": 0.3543307086614173,
                    "duration": 0.31578949999999395
                },
                {
                    "name": "E4",
                    "midi": 64,
                    "time": 163.89475049999902,
                    "velocity": 0.3543307086614173,
                    "duration": 0.15789474999999698
                },
                {
                    "name": "G4",
                    "midi": 67,
                    "time": 164.05264524999902,
                    "velocity": 0.33070866141732286,
                    "duration": 0.15789474999999698
                },
                {
                    "name": "D4",
                    "midi": 62,
                    "time": 164.210539999999,
                    "velocity": 0.3464566929133858,
                    "duration": 0.15789474999999698
                },
                {
                    "name": "F4",
                    "midi": 65,
                    "time": 164.368434749999,
                    "velocity": 0.31496062992125984,
                    "duration": 0.15789474999999698
                },
                {
                    "name": "C4",
                    "midi": 60,
                    "time": 164.526329499999,
                    "velocity": 0.33858267716535434,
                    "duration": 0.15789474999999698
                },
                {
                    "name": "E4",
                    "midi": 64,
                    "time": 164.684224249999,
                    "velocity": 0.2992125984251969,
                    "duration": 0.15789474999999698
                },
                {
                    "name": "B3",
                    "midi": 59,
                    "time": 164.842118999999,
                    "velocity": 0.33070866141732286,
                    "duration": 0.15789474999999698
                },
                {
                    "name": "D4",
                    "midi": 62,
                    "time": 165.000013749999,
                    "velocity": 0.30708661417322836,
                    "duration": 0.15789474999999698
                },
                {
                    "name": "G3",
                    "midi": 55,
                    "time": 165.157908499999,
                    "velocity": 0.33070866141732286,
                    "duration": 0.15789474999999698
                },
                {
                    "name": "B3",
                    "midi": 59,
                    "time": 165.315803249999,
                    "velocity": 0.30708661417322836,
                    "duration": 0.15789474999999698
                },
                {
                    "name": "F#3",
                    "midi": 54,
                    "time": 165.473697999999,
                    "velocity": 0.33070866141732286,
                    "duration": 0.15789474999999698
                },
                {
                    "name": "A3",
                    "midi": 57,
                    "time": 165.631592749999,
                    "velocity": 0.30708661417322836,
                    "duration": 0.15789474999999698
                },
                {
                    "name": "E3",
                    "midi": 52,
                    "time": 165.78948749999898,
                    "velocity": 0.33858267716535434,
                    "duration": 0.15789474999999698
                },
                {
                    "name": "G3",
                    "midi": 55,
                    "time": 165.94738224999898,
                    "velocity": 0.33070866141732286,
                    "duration": 0.15789474999999698
                },
                {
                    "name": "A3",
                    "midi": 57,
                    "time": 166.10527699999898,
                    "velocity": 0.3228346456692913,
                    "duration": 0.15789474999999698
                },
                {
                    "name": "C#4",
                    "midi": 61,
                    "time": 166.26317174999897,
                    "velocity": 0.3228346456692913,
                    "duration": 0.15789474999999698
                },
                {
                    "name": "E4",
                    "midi": 64,
                    "time": 166.42106649999897,
                    "velocity": 0.31496062992125984,
                    "duration": 0.15789474999999698
                },
                {
                    "name": "G4",
                    "midi": 67,
                    "time": 166.57896124999897,
                    "velocity": 0.30708661417322836,
                    "duration": 0.4736842499999909
                },
                {
                    "name": "D4",
                    "midi": 62,
                    "time": 166.73685599999897,
                    "velocity": 0.31496062992125984,
                    "duration": 0.6315789999999879
                },
                {
                    "name": "D4",
                    "midi": 62,
                    "time": 167.05264549999896,
                    "velocity": 0.2677165354330709,
                    "duration": 0.6315789999999879
                },
                {
                    "name": "F#4",
                    "midi": 66,
                    "time": 167.05264549999896,
                    "velocity": 0.2677165354330709,
                    "duration": 0.31578949999999395
                },
                {
                    "name": "D4",
                    "midi": 62,
                    "time": 167.36843499999895,
                    "velocity": 0.2677165354330709,
                    "duration": 0.31578949999999395
                },
                {
                    "name": "F#4",
                    "midi": 66,
                    "time": 167.36843499999895,
                    "velocity": 0.2677165354330709,
                    "duration": 0.31578949999999395
                },
                {
                    "name": "D4",
                    "midi": 62,
                    "time": 167.68422449999895,
                    "velocity": 0.25196850393700787,
                    "duration": 0.6315789999999879
                },
                {
                    "name": "F#4",
                    "midi": 66,
                    "time": 167.68422449999895,
                    "velocity": 0.25196850393700787,
                    "duration": 0.6315789999999879
                },
                {
                    "name": "B4",
                    "midi": 71,
                    "time": 168.31580349999894,
                    "velocity": 0.2677165354330709,
                    "duration": 0.15789474999999698
                },
                {
                    "name": "D5",
                    "midi": 74,
                    "time": 168.47369824999893,
                    "velocity": 0.2677165354330709,
                    "duration": 0.15789474999999698
                },
                {
                    "name": "B4",
                    "midi": 71,
                    "time": 168.63159299999893,
                    "velocity": 0.2677165354330709,
                    "duration": 0.15789474999999698
                },
                {
                    "name": "D5",
                    "midi": 74,
                    "time": 168.78948774999893,
                    "velocity": 0.25196850393700787,
                    "duration": 0.15789474999999698
                },
                {
                    "name": "B4",
                    "midi": 71,
                    "time": 168.94738249999892,
                    "velocity": 0.2677165354330709,
                    "duration": 0.15789474999999698
                },
                {
                    "name": "D5",
                    "midi": 74,
                    "time": 169.10527724999892,
                    "velocity": 0.2440944881889764,
                    "duration": 0.15789474999999698
                },
                {
                    "name": "C5",
                    "midi": 72,
                    "time": 169.26317199999892,
                    "velocity": 0.2677165354330709,
                    "duration": 0.15789474999999698
                },
                {
                    "name": "E5",
                    "midi": 76,
                    "time": 169.42106674999891,
                    "velocity": 0.2440944881889764,
                    "duration": 0.15789474999999698
                },
                {
                    "name": "B4",
                    "midi": 71,
                    "time": 169.5789614999989,
                    "velocity": 0.2677165354330709,
                    "duration": 0.15789474999999698
                },
                {
                    "name": "D5",
                    "midi": 74,
                    "time": 169.7368562499989,
                    "velocity": 0.25196850393700787,
                    "duration": 0.15789474999999698
                },
                {
                    "name": "A4",
                    "midi": 69,
                    "time": 169.8947509999989,
                    "velocity": 0.2677165354330709,
                    "duration": 0.15789474999999698
                },
                {
                    "name": "C5",
                    "midi": 72,
                    "time": 170.0526457499989,
                    "velocity": 0.25196850393700787,
                    "duration": 0.15789474999999698
                },
                {
                    "name": "G4",
                    "midi": 67,
                    "time": 170.2105404999989,
                    "velocity": 0.2677165354330709,
                    "duration": 0.15789474999999698
                },
                {
                    "name": "B4",
                    "midi": 71,
                    "time": 170.3684352499989,
                    "velocity": 0.2440944881889764,
                    "duration": 0.15789474999999698
                },
                {
                    "name": "F#4",
                    "midi": 66,
                    "time": 170.5263299999989,
                    "velocity": 0.25984251968503935,
                    "duration": 0.15789474999999698
                },
                {
                    "name": "A4",
                    "midi": 69,
                    "time": 170.6842247499989,
                    "velocity": 0.2440944881889764,
                    "duration": 0.15789474999999698
                },
                {
                    "name": "F#4",
                    "midi": 66,
                    "time": 170.8421194999989,
                    "velocity": 0.25984251968503935,
                    "duration": 0.15789474999999698
                },
                {
                    "name": "A4",
                    "midi": 69,
                    "time": 171.00001424999888,
                    "velocity": 0.25196850393700787,
                    "duration": 0.15789474999999698
                },
                {
                    "name": "F#4",
                    "midi": 66,
                    "time": 171.15790899999888,
                    "velocity": 0.25984251968503935,
                    "duration": 0.15789474999999698
                },
                {
                    "name": "A4",
                    "midi": 69,
                    "time": 171.31580374999888,
                    "velocity": 0.2440944881889764,
                    "duration": 0.15789474999999698
                },
                {
                    "name": "F#4",
                    "midi": 66,
                    "time": 171.47369849999887,
                    "velocity": 0.25984251968503935,
                    "duration": 0.15789474999999698
                },
                {
                    "name": "A4",
                    "midi": 69,
                    "time": 171.63159324999887,
                    "velocity": 0.2440944881889764,
                    "duration": 0.15789474999999698
                },
                {
                    "name": "F#4",
                    "midi": 66,
                    "time": 171.78948799999887,
                    "velocity": 0.25984251968503935,
                    "duration": 0.15789474999999698
                },
                {
                    "name": "A4",
                    "midi": 69,
                    "time": 171.94738274999887,
                    "velocity": 0.25196850393700787,
                    "duration": 0.15789474999999698
                },
                {
                    "name": "F#4",
                    "midi": 66,
                    "time": 172.10527749999886,
                    "velocity": 0.25984251968503935,
                    "duration": 0.15789474999999698
                },
                {
                    "name": "A4",
                    "midi": 69,
                    "time": 172.26317224999886,
                    "velocity": 0.2440944881889764,
                    "duration": 0.15789474999999698
                },
                {
                    "name": "G4",
                    "midi": 67,
                    "time": 172.42106699999886,
                    "velocity": 0.28346456692913385,
                    "duration": 0.6315789999999879
                },
                {
                    "name": "G4",
                    "midi": 67,
                    "time": 173.36843549999884,
                    "velocity": 0.25984251968503935,
                    "duration": 0.6315789999999879
                },
                {
                    "name": "E4",
                    "midi": 64,
                    "time": 173.36843549999884,
                    "velocity": 0.25984251968503935,
                    "duration": 0.6315789999999879
                },
                {
                    "name": "C#4",
                    "midi": 61,
                    "time": 173.36843549999884,
                    "velocity": 0.25984251968503935,
                    "duration": 0.6315789999999879
                },
                {
                    "name": "A3",
                    "midi": 57,
                    "time": 173.36843549999884,
                    "velocity": 0.25984251968503935,
                    "duration": 0.6315789999999879
                },
                {
                    "name": "D3",
                    "midi": 50,
                    "time": 174.47369874999882,
                    "velocity": 0.25196850393700787,
                    "duration": 0.15789474999999698
                },
                {
                    "name": "F#3",
                    "midi": 54,
                    "time": 174.63159349999881,
                    "velocity": 0.25984251968503935,
                    "duration": 0.15789474999999698
                },
                {
                    "name": "D3",
                    "midi": 50,
                    "time": 174.7894882499988,
                    "velocity": 0.2440944881889764,
                    "duration": 0.15789474999999698
                },
                {
                    "name": "E3",
                    "midi": 52,
                    "time": 174.9473829999988,
                    "velocity": 0.25196850393700787,
                    "duration": 0.15789474999999698
                },
                {
                    "name": "G3",
                    "midi": 55,
                    "time": 175.1052777499988,
                    "velocity": 0.2755905511811024,
                    "duration": 0.15789474999999698
                },
                {
                    "name": "F#3",
                    "midi": 54,
                    "time": 175.4210672499988,
                    "velocity": 0.2755905511811024,
                    "duration": 0.15789474999999698
                },
                {
                    "name": "A3",
                    "midi": 57,
                    "time": 175.5789619999988,
                    "velocity": 0.2992125984251969,
                    "duration": 0.15789474999999698
                },
                {
                    "name": "F#3",
                    "midi": 54,
                    "time": 175.7368567499988,
                    "velocity": 0.25984251968503935,
                    "duration": 0.15789474999999698
                },
                {
                    "name": "G3",
                    "midi": 55,
                    "time": 175.8947514999988,
                    "velocity": 0.2755905511811024,
                    "duration": 0.15789474999999698
                },
                {
                    "name": "B3",
                    "midi": 59,
                    "time": 176.0526462499988,
                    "velocity": 0.29133858267716534,
                    "duration": 0.15789474999999698
                },
                {
                    "name": "A3",
                    "midi": 57,
                    "time": 176.36843574999878,
                    "velocity": 0.28346456692913385,
                    "duration": 0.15789474999999698
                },
                {
                    "name": "C4",
                    "midi": 60,
                    "time": 176.52633049999878,
                    "velocity": 0.30708661417322836,
                    "duration": 0.15789474999999698
                },
                {
                    "name": "A3",
                    "midi": 57,
                    "time": 176.68422524999878,
                    "velocity": 0.28346456692913385,
                    "duration": 0.15789474999999698
                },
                {
                    "name": "B3",
                    "midi": 59,
                    "time": 176.84211999999877,
                    "velocity": 0.2992125984251969,
                    "duration": 0.15789474999999698
                },
                {
                    "name": "G3",
                    "midi": 55,
                    "time": 177.00001474999877,
                    "velocity": 0.28346456692913385,
                    "duration": 0.15789474999999698
                },
                {
                    "name": "F#3",
                    "midi": 54,
                    "time": 177.31580424999876,
                    "velocity": 0.25984251968503935,
                    "duration": 0.15789474999999698
                },
                {
                    "name": "A3",
                    "midi": 57,
                    "time": 177.47369899999876,
                    "velocity": 0.28346456692913385,
                    "duration": 0.15789474999999698
                },
                {
                    "name": "F#3",
                    "midi": 54,
                    "time": 177.63159374999876,
                    "velocity": 0.25984251968503935,
                    "duration": 0.15789474999999698
                },
                {
                    "name": "G3",
                    "midi": 55,
                    "time": 177.78948849999875,
                    "velocity": 0.28346456692913385,
                    "duration": 0.15789474999999698
                },
                {
                    "name": "E3",
                    "midi": 52,
                    "time": 177.94738324999875,
                    "velocity": 0.25984251968503935,
                    "duration": 0.15789474999999698
                },
                {
                    "name": "D3",
                    "midi": 50,
                    "time": 178.10527799999875,
                    "velocity": 0.2677165354330709,
                    "duration": 0.31578949999999395
                },
                {
                    "name": "D3",
                    "midi": 50,
                    "time": 178.73685699999874,
                    "velocity": 0.25196850393700787,
                    "duration": 0.31578949999999395
                },
                {
                    "name": "D3",
                    "midi": 50,
                    "time": 179.05264649999873,
                    "velocity": 0.2677165354330709,
                    "duration": 0.31578949999999395
                },
                {
                    "name": "D2",
                    "midi": 38,
                    "time": 179.68422549999872,
                    "velocity": 0.3937007874015748,
                    "duration": 0.31578949999999395
                },
                {
                    "name": "D2",
                    "midi": 38,
                    "time": 180.0000149999987,
                    "velocity": 0.44881889763779526,
                    "duration": 1.8947369999999921
                },
                {
                    "name": "C3",
                    "midi": 48,
                    "time": 182.0526467499987,
                    "velocity": 0.30708661417322836,
                    "duration": 0.15789474999999698
                },
                {
                    "name": "A3",
                    "midi": 57,
                    "time": 182.2105414999987,
                    "velocity": 0.33070866141732286,
                    "duration": 0.15789474999999698
                },
                {
                    "name": "F#3",
                    "midi": 54,
                    "time": 182.3684362499987,
                    "velocity": 0.28346456692913385,
                    "duration": 0.15789474999999698
                },
                {
                    "name": "C4",
                    "midi": 60,
                    "time": 182.5263309999987,
                    "velocity": 0.29133858267716534,
                    "duration": 0.15789474999999698
                },
                {
                    "name": "A3",
                    "midi": 57,
                    "time": 182.6842257499987,
                    "velocity": 0.25984251968503935,
                    "duration": 0.15789474999999698
                },
                {
                    "name": "F#4",
                    "midi": 66,
                    "time": 182.84212049999869,
                    "velocity": 0.28346456692913385,
                    "duration": 0.9473685000000103
                },
                {
                    "name": "G3",
                    "midi": 55,
                    "time": 183.7894889999987,
                    "velocity": 0.31496062992125984,
                    "duration": 0.6315789999999879
                },
                {
                    "name": "B3",
                    "midi": 59,
                    "time": 183.7894889999987,
                    "velocity": 0.31496062992125984,
                    "duration": 0.6315789999999879
                },
                {
                    "name": "G3",
                    "midi": 55,
                    "time": 184.42106799999868,
                    "velocity": 0.2992125984251969,
                    "duration": 0.31578949999999395
                },
                {
                    "name": "C4",
                    "midi": 60,
                    "time": 184.42106799999868,
                    "velocity": 0.2992125984251969,
                    "duration": 0.31578949999999395
                },
                {
                    "name": "G3",
                    "midi": 55,
                    "time": 184.73685749999868,
                    "velocity": 0.31496062992125984,
                    "duration": 0.6315789999999879
                },
                {
                    "name": "C4",
                    "midi": 60,
                    "time": 184.73685749999868,
                    "velocity": 0.31496062992125984,
                    "duration": 0.6315789999999879
                },
                {
                    "name": "G3",
                    "midi": 55,
                    "time": 185.36843649999867,
                    "velocity": 0.2992125984251969,
                    "duration": 0.31578949999999395
                },
                {
                    "name": "C4",
                    "midi": 60,
                    "time": 185.36843649999867,
                    "velocity": 0.2992125984251969,
                    "duration": 0.31578949999999395
                },
                {
                    "name": "G3",
                    "midi": 55,
                    "time": 185.68422599999866,
                    "velocity": 0.29133858267716534,
                    "duration": 1.5789474999999698
                },
                {
                    "name": "B3",
                    "midi": 59,
                    "time": 185.68422599999866,
                    "velocity": 0.29133858267716534,
                    "duration": 0.1710526458333277
                },
                {
                    "name": "A#3",
                    "midi": 58,
                    "time": 185.84212074999866,
                    "velocity": 0.25984251968503935,
                    "duration": 0.15789474999999698
                },
                {
                    "name": "B3",
                    "midi": 59,
                    "time": 186.00001549999865,
                    "velocity": 0.28346456692913385,
                    "duration": 0.1710526458333277
                },
                {
                    "name": "A#3",
                    "midi": 58,
                    "time": 186.15791024999865,
                    "velocity": 0.25984251968503935,
                    "duration": 0.15789474999999698
                },
                {
                    "name": "B3",
                    "midi": 59,
                    "time": 186.31580499999865,
                    "velocity": 0.28346456692913385,
                    "duration": 0.1710526458333277
                },
                {
                    "name": "A#3",
                    "midi": 58,
                    "time": 186.47369974999864,
                    "velocity": 0.25984251968503935,
                    "duration": 0.15789474999999698
                },
                {
                    "name": "B3",
                    "midi": 59,
                    "time": 186.63159449999864,
                    "velocity": 0.28346456692913385,
                    "duration": 0.6315789999999879
                },
                {
                    "name": "F#3",
                    "midi": 54,
                    "time": 187.26317349999863,
                    "velocity": 0.28346456692913385,
                    "duration": 0.23684212500000967
                },
                {
                    "name": "A3",
                    "midi": 57,
                    "time": 187.50001562499864,
                    "velocity": 0.3228346456692913,
                    "duration": 0.0789473750000127
                },
                {
                    "name": "G3",
                    "midi": 55,
                    "time": 187.57896299999865,
                    "velocity": 0.30708661417322836,
                    "duration": 0.15789474999999698
                },
                {
                    "name": "F#3",
                    "midi": 54,
                    "time": 187.73685774999865,
                    "velocity": 0.28346456692913385,
                    "duration": 0.15789474999999698
                },
                {
                    "name": "G3",
                    "midi": 55,
                    "time": 187.89475249999865,
                    "velocity": 0.30708661417322836,
                    "duration": 0.15789474999999698
                },
                {
                    "name": "F#3",
                    "midi": 54,
                    "time": 188.05264724999864,
                    "velocity": 0.28346456692913385,
                    "duration": 0.15789474999999698
                },
                {
                    "name": "G3",
                    "midi": 55,
                    "time": 188.21054199999864,
                    "velocity": 0.30708661417322836,
                    "duration": 0.15789474999999698
                },
                {
                    "name": "B3",
                    "midi": 59,
                    "time": 188.36843674999864,
                    "velocity": 0.28346456692913385,
                    "duration": 0.15789474999999698
                },
                {
                    "name": "A3",
                    "midi": 57,
                    "time": 188.52633149999863,
                    "velocity": 0.2992125984251969,
                    "duration": 0.6315789999999879
                },
                {
                    "name": "G3",
                    "midi": 55,
                    "time": 189.15791049999862,
                    "velocity": 0.28346456692913385,
                    "duration": 0.31578949999999395
                },
                {
                    "name": "D3",
                    "midi": 50,
                    "time": 189.47369999999862,
                    "velocity": 0.2992125984251969,
                    "duration": 0.15789474999999698
                },
                {
                    "name": "C#4",
                    "midi": 61,
                    "time": 189.6315947499986,
                    "velocity": 0.28346456692913385,
                    "duration": 0.15789474999999698
                },
                {
                    "name": "D4",
                    "midi": 62,
                    "time": 189.7894894999986,
                    "velocity": 0.29133858267716534,
                    "duration": 0.15789474999999698
                },
                {
                    "name": "C#4",
                    "midi": 61,
                    "time": 189.9473842499986,
                    "velocity": 0.28346456692913385,
                    "duration": 0.15789474999999698
                },
                {
                    "name": "D4",
                    "midi": 62,
                    "time": 190.1052789999986,
                    "velocity": 0.29133858267716534,
                    "duration": 0.15789474999999698
                },
                {
                    "name": "C#4",
                    "midi": 61,
                    "time": 190.2631737499986,
                    "velocity": 0.28346456692913385,
                    "duration": 0.15789474999999698
                },
                {
                    "name": "D4",
                    "midi": 62,
                    "time": 190.4210684999986,
                    "velocity": 0.2992125984251969,
                    "duration": 0.15789474999999698
                },
                {
                    "name": "E4",
                    "midi": 64,
                    "time": 190.5789632499986,
                    "velocity": 0.28346456692913385,
                    "duration": 0.15789474999999698
                },
                {
                    "name": "C4",
                    "midi": 60,
                    "time": 190.7368579999986,
                    "velocity": 0.2992125984251969,
                    "duration": 0.15789474999999698
                },
                {
                    "name": "D4",
                    "midi": 62,
                    "time": 190.8947527499986,
                    "velocity": 0.28346456692913385,
                    "duration": 0.15789474999999698
                },
                {
                    "name": "B3",
                    "midi": 59,
                    "time": 191.05264749999859,
                    "velocity": 0.30708661417322836,
                    "duration": 0.15789474999999698
                },
                {
                    "name": "C4",
                    "midi": 60,
                    "time": 191.21054224999858,
                    "velocity": 0.28346456692913385,
                    "duration": 0.15789474999999698
                },
                {
                    "name": "A3",
                    "midi": 57,
                    "time": 191.36843699999858,
                    "velocity": 0.31496062992125984,
                    "duration": 0.15789474999999698
                },
                {
                    "name": "E4",
                    "midi": 64,
                    "time": 191.52633174999858,
                    "velocity": 0.29133858267716534,
                    "duration": 0.15789474999999698
                },
                {
                    "name": "C4",
                    "midi": 60,
                    "time": 191.68422649999857,
                    "velocity": 0.29133858267716534,
                    "duration": 0.15789474999999698
                },
                {
                    "name": "B3",
                    "midi": 59,
                    "time": 191.84212124999857,
                    "velocity": 0.28346456692913385,
                    "duration": 0.15789474999999698
                },
                {
                    "name": "A3",
                    "midi": 57,
                    "time": 192.00001599999857,
                    "velocity": 0.28346456692913385,
                    "duration": 0.15789474999999698
                },
                {
                    "name": "G3",
                    "midi": 55,
                    "time": 192.15791074999856,
                    "velocity": 0.28346456692913385,
                    "duration": 0.15789474999999698
                },
                {
                    "name": "F#3",
                    "midi": 54,
                    "time": 192.31580549999856,
                    "velocity": 0.28346456692913385,
                    "duration": 0.15789474999999698
                },
                {
                    "name": "G3",
                    "midi": 55,
                    "time": 192.47370024999856,
                    "velocity": 0.2755905511811024,
                    "duration": 0.15789474999999698
                },
                {
                    "name": "A3",
                    "midi": 57,
                    "time": 192.63159499999855,
                    "velocity": 0.28346456692913385,
                    "duration": 0.15789474999999698
                },
                {
                    "name": "D3",
                    "midi": 50,
                    "time": 192.78948974999855,
                    "velocity": 0.29133858267716534,
                    "duration": 0.15789474999999698
                },
                {
                    "name": "E3",
                    "midi": 52,
                    "time": 192.94738449999855,
                    "velocity": 0.30708661417322836,
                    "duration": 0.15789474999999698
                },
                {
                    "name": "F#3",
                    "midi": 54,
                    "time": 193.10527924999855,
                    "velocity": 0.31496062992125984,
                    "duration": 0.15789474999999698
                },
                {
                    "name": "G3",
                    "midi": 55,
                    "time": 193.26317399999854,
                    "velocity": 0.30708661417322836,
                    "duration": 0.15789474999999698
                },
                {
                    "name": "F#3",
                    "midi": 54,
                    "time": 193.42106874999854,
                    "velocity": 0.2992125984251969,
                    "duration": 0.15789474999999698
                },
                {
                    "name": "E3",
                    "midi": 52,
                    "time": 193.57896349999854,
                    "velocity": 0.29133858267716534,
                    "duration": 0.15789474999999698
                },
                {
                    "name": "D3",
                    "midi": 50,
                    "time": 193.73685824999853,
                    "velocity": 0.28346456692913385,
                    "duration": 0.15789474999999698
                },
                {
                    "name": "C3",
                    "midi": 48,
                    "time": 193.89475299999853,
                    "velocity": 0.2755905511811024,
                    "duration": 0.15789474999999698
                },
                {
                    "name": "B2",
                    "midi": 47,
                    "time": 194.05264774999853,
                    "velocity": 0.2677165354330709,
                    "duration": 0.15789474999999698
                },
                {
                    "name": "E3",
                    "midi": 52,
                    "time": 194.21054249999852,
                    "velocity": 0.2992125984251969,
                    "duration": 0.15789474999999698
                },
                {
                    "name": "D3",
                    "midi": 50,
                    "time": 194.36843724999852,
                    "velocity": 0.29133858267716534,
                    "duration": 0.15789474999999698
                },
                {
                    "name": "C3",
                    "midi": 48,
                    "time": 194.52633199999852,
                    "velocity": 0.28346456692913385,
                    "duration": 0.15789474999999698
                },
                {
                    "name": "B2",
                    "midi": 47,
                    "time": 194.68422674999852,
                    "velocity": 0.2755905511811024,
                    "duration": 0.15789474999999698
                },
                {
                    "name": "A2",
                    "midi": 45,
                    "time": 194.8421214999985,
                    "velocity": 0.25984251968503935,
                    "duration": 0.15789474999999698
                },
                {
                    "name": "G2",
                    "midi": 43,
                    "time": 195.0000162499985,
                    "velocity": 0.25196850393700787,
                    "duration": 0.15789474999999698
                },
                {
                    "name": "C3",
                    "midi": 48,
                    "time": 195.1579109999985,
                    "velocity": 0.30708661417322836,
                    "duration": 0.31578949999999395
                },
                {
                    "name": "B2",
                    "midi": 47,
                    "time": 195.4737004999985,
                    "velocity": 0.28346456692913385,
                    "duration": 0.31578949999999395
                },
                {
                    "name": "A2",
                    "midi": 45,
                    "time": 195.7894899999985,
                    "velocity": 0.28346456692913385,
                    "duration": 0.31578949999999395
                },
                {
                    "name": "D3",
                    "midi": 50,
                    "time": 196.1052794999985,
                    "velocity": 0.30708661417322836,
                    "duration": 0.9473685000000103
                },
                {
                    "name": "G2",
                    "midi": 43,
                    "time": 197.0526479999985,
                    "velocity": 0.25196850393700787,
                    "duration": 0.15789474999999698
                },
                {
                    "name": "F#3",
                    "midi": 54,
                    "time": 197.2105427499985,
                    "velocity": 0.2283464566929134,
                    "duration": 0.15789474999999698
                },
                {
                    "name": "G3",
                    "midi": 55,
                    "time": 197.3684374999985,
                    "velocity": 0.25196850393700787,
                    "duration": 0.15789474999999698
                },
                {
                    "name": "F#3",
                    "midi": 54,
                    "time": 197.5263322499985,
                    "velocity": 0.2283464566929134,
                    "duration": 0.15789474999999698
                },
                {
                    "name": "G3",
                    "midi": 55,
                    "time": 197.6842269999985,
                    "velocity": 0.23622047244094488,
                    "duration": 0.15789474999999698
                },
                {
                    "name": "F#3",
                    "midi": 54,
                    "time": 197.84212174999848,
                    "velocity": 0.2125984251968504,
                    "duration": 0.15789474999999698
                },
                {
                    "name": "G3",
                    "midi": 55,
                    "time": 198.00001649999848,
                    "velocity": 0.2047244094488189,
                    "duration": 0.31578949999999395
                },
                {
                    "name": "B4",
                    "midi": 71,
                    "time": 198.63159549999847,
                    "velocity": 0.2677165354330709,
                    "duration": 0.15789474999999698
                },
                {
                    "name": "D5",
                    "midi": 74,
                    "time": 198.78949024999847,
                    "velocity": 0.2677165354330709,
                    "duration": 0.15789474999999698
                },
                {
                    "name": "B4",
                    "midi": 71,
                    "time": 198.94738499999846,
                    "velocity": 0.2677165354330709,
                    "duration": 0.15789474999999698
                },
                {
                    "name": "D5",
                    "midi": 74,
                    "time": 199.10527974999846,
                    "velocity": 0.25196850393700787,
                    "duration": 0.15789474999999698
                },
                {
                    "name": "B4",
                    "midi": 71,
                    "time": 199.26317449999846,
                    "velocity": 0.2677165354330709,
                    "duration": 0.15789474999999698
                },
                {
                    "name": "D5",
                    "midi": 74,
                    "time": 199.42106924999845,
                    "velocity": 0.2440944881889764,
                    "duration": 0.15789474999999698
                },
                {
                    "name": "C5",
                    "midi": 72,
                    "time": 199.57896399999845,
                    "velocity": 0.2677165354330709,
                    "duration": 0.15789474999999698
                },
                {
                    "name": "E5",
                    "midi": 76,
                    "time": 199.73685874999845,
                    "velocity": 0.2440944881889764,
                    "duration": 0.15789474999999698
                },
                {
                    "name": "B4",
                    "midi": 71,
                    "time": 199.89475349999844,
                    "velocity": 0.2677165354330709,
                    "duration": 0.15789474999999698
                },
                {
                    "name": "D5",
                    "midi": 74,
                    "time": 200.05264824999844,
                    "velocity": 0.25196850393700787,
                    "duration": 0.15789474999999698
                },
                {
                    "name": "A4",
                    "midi": 69,
                    "time": 200.21054299999844,
                    "velocity": 0.2677165354330709,
                    "duration": 0.15789474999999698
                },
                {
                    "name": "C5",
                    "midi": 72,
                    "time": 200.36843774999844,
                    "velocity": 0.25196850393700787,
                    "duration": 0.15789474999999698
                },
                {
                    "name": "G4",
                    "midi": 67,
                    "time": 200.52633249999843,
                    "velocity": 0.2677165354330709,
                    "duration": 0.15789474999999698
                },
                {
                    "name": "B4",
                    "midi": 71,
                    "time": 200.68422724999843,
                    "velocity": 0.2440944881889764,
                    "duration": 0.15789474999999698
                },
                {
                    "name": "F#4",
                    "midi": 66,
                    "time": 200.84212199999843,
                    "velocity": 0.25984251968503935,
                    "duration": 0.15789474999999698
                },
                {
                    "name": "A4",
                    "midi": 69,
                    "time": 201.00001674999842,
                    "velocity": 0.2440944881889764,
                    "duration": 0.15789474999999698
                },
                {
                    "name": "F#4",
                    "midi": 66,
                    "time": 201.15791149999842,
                    "velocity": 0.25984251968503935,
                    "duration": 0.15789474999999698
                },
                {
                    "name": "A4",
                    "midi": 69,
                    "time": 201.31580624999842,
                    "velocity": 0.25196850393700787,
                    "duration": 0.15789474999999698
                },
                {
                    "name": "F#4",
                    "midi": 66,
                    "time": 201.4737009999984,
                    "velocity": 0.25984251968503935,
                    "duration": 0.15789474999999698
                },
                {
                    "name": "A4",
                    "midi": 69,
                    "time": 201.6315957499984,
                    "velocity": 0.2440944881889764,
                    "duration": 0.15789474999999698
                },
                {
                    "name": "F#4",
                    "midi": 66,
                    "time": 201.7894904999984,
                    "velocity": 0.25984251968503935,
                    "duration": 0.15789474999999698
                },
                {
                    "name": "A4",
                    "midi": 69,
                    "time": 201.9473852499984,
                    "velocity": 0.2440944881889764,
                    "duration": 0.15789474999999698
                },
                {
                    "name": "F#4",
                    "midi": 66,
                    "time": 202.1052799999984,
                    "velocity": 0.25984251968503935,
                    "duration": 0.15789474999999698
                },
                {
                    "name": "A4",
                    "midi": 69,
                    "time": 202.2631747499984,
                    "velocity": 0.25196850393700787,
                    "duration": 0.15789474999999698
                },
                {
                    "name": "F#4",
                    "midi": 66,
                    "time": 202.4210694999984,
                    "velocity": 0.25984251968503935,
                    "duration": 0.15789474999999698
                },
                {
                    "name": "A4",
                    "midi": 69,
                    "time": 202.5789642499984,
                    "velocity": 0.2440944881889764,
                    "duration": 0.15789474999999698
                },
                {
                    "name": "G4",
                    "midi": 67,
                    "time": 202.7368589999984,
                    "velocity": 0.28346456692913385,
                    "duration": 0.6315789999999879
                },
                {
                    "name": "G4",
                    "midi": 67,
                    "time": 203.68422749999837,
                    "velocity": 0.25984251968503935,
                    "duration": 0.6315789999999879
                },
                {
                    "name": "E4",
                    "midi": 64,
                    "time": 203.68422749999837,
                    "velocity": 0.25984251968503935,
                    "duration": 0.6315789999999879
                },
                {
                    "name": "C#4",
                    "midi": 61,
                    "time": 203.68422749999837,
                    "velocity": 0.25984251968503935,
                    "duration": 0.6315789999999879
                },
                {
                    "name": "A3",
                    "midi": 57,
                    "time": 203.68422749999837,
                    "velocity": 0.25984251968503935,
                    "duration": 0.6315789999999879
                },
                {
                    "name": "D3",
                    "midi": 50,
                    "time": 204.78949074999835,
                    "velocity": 0.25196850393700787,
                    "duration": 0.15789474999999698
                },
                {
                    "name": "F#3",
                    "midi": 54,
                    "time": 204.94738549999835,
                    "velocity": 0.25984251968503935,
                    "duration": 0.15789474999999698
                },
                {
                    "name": "D3",
                    "midi": 50,
                    "time": 205.10528024999834,
                    "velocity": 0.2440944881889764,
                    "duration": 0.15789474999999698
                },
                {
                    "name": "E3",
                    "midi": 52,
                    "time": 205.26317499999834,
                    "velocity": 0.25196850393700787,
                    "duration": 0.15789474999999698
                },
                {
                    "name": "G3",
                    "midi": 55,
                    "time": 205.42106974999834,
                    "velocity": 0.2755905511811024,
                    "duration": 0.15789474999999698
                },
                {
                    "name": "F#3",
                    "midi": 54,
                    "time": 205.73685924999833,
                    "velocity": 0.2755905511811024,
                    "duration": 0.15789474999999698
                },
                {
                    "name": "A3",
                    "midi": 57,
                    "time": 205.89475399999833,
                    "velocity": 0.2992125984251969,
                    "duration": 0.15789474999999698
                },
                {
                    "name": "F#3",
                    "midi": 54,
                    "time": 206.05264874999833,
                    "velocity": 0.25984251968503935,
                    "duration": 0.15789474999999698
                },
                {
                    "name": "G3",
                    "midi": 55,
                    "time": 206.21054349999832,
                    "velocity": 0.2755905511811024,
                    "duration": 0.15789474999999698
                },
                {
                    "name": "B3",
                    "midi": 59,
                    "time": 206.36843824999832,
                    "velocity": 0.29133858267716534,
                    "duration": 0.15789474999999698
                },
                {
                    "name": "A3",
                    "midi": 57,
                    "time": 206.6842277499983,
                    "velocity": 0.28346456692913385,
                    "duration": 0.15789474999999698
                },
                {
                    "name": "C4",
                    "midi": 60,
                    "time": 206.8421224999983,
                    "velocity": 0.30708661417322836,
                    "duration": 0.15789474999999698
                },
                {
                    "name": "A3",
                    "midi": 57,
                    "time": 207.0000172499983,
                    "velocity": 0.28346456692913385,
                    "duration": 0.15789474999999698
                },
                {
                    "name": "B3",
                    "midi": 59,
                    "time": 207.1579119999983,
                    "velocity": 0.2992125984251969,
                    "duration": 0.15789474999999698
                },
                {
                    "name": "G3",
                    "midi": 55,
                    "time": 207.3158067499983,
                    "velocity": 0.28346456692913385,
                    "duration": 0.15789474999999698
                },
                {
                    "name": "F#3",
                    "midi": 54,
                    "time": 207.6315962499983,
                    "velocity": 0.25984251968503935,
                    "duration": 0.15789474999999698
                },
                {
                    "name": "A3",
                    "midi": 57,
                    "time": 207.7894909999983,
                    "velocity": 0.28346456692913385,
                    "duration": 0.15789474999999698
                },
                {
                    "name": "F#3",
                    "midi": 54,
                    "time": 207.9473857499983,
                    "velocity": 0.25984251968503935,
                    "duration": 0.15789474999999698
                },
                {
                    "name": "G3",
                    "midi": 55,
                    "time": 208.1052804999983,
                    "velocity": 0.28346456692913385,
                    "duration": 0.15789474999999698
                },
                {
                    "name": "E3",
                    "midi": 52,
                    "time": 208.26317524999828,
                    "velocity": 0.25984251968503935,
                    "duration": 0.15789474999999698
                },
                {
                    "name": "D3",
                    "midi": 50,
                    "time": 208.42106999999828,
                    "velocity": 0.2677165354330709,
                    "duration": 0.31578949999999395
                },
                {
                    "name": "D3",
                    "midi": 50,
                    "time": 209.05264899999827,
                    "velocity": 0.25196850393700787,
                    "duration": 0.31578949999999395
                },
                {
                    "name": "D3",
                    "midi": 50,
                    "time": 209.36843849999826,
                    "velocity": 0.2677165354330709,
                    "duration": 0.31578949999999395
                },
                {
                    "name": "D2",
                    "midi": 38,
                    "time": 210.00001749999825,
                    "velocity": 0.4015748031496063,
                    "duration": 0.31578949999999395
                },
                {
                    "name": "D2",
                    "midi": 38,
                    "time": 210.31580699999824,
                    "velocity": 0.4881889763779528,
                    "duration": 1.8947369999999921
                },
                {
                    "name": "C3",
                    "midi": 48,
                    "time": 212.36843874999823,
                    "velocity": 0.30708661417322836,
                    "duration": 0.15789474999999698
                },
                {
                    "name": "A3",
                    "midi": 57,
                    "time": 212.52633349999823,
                    "velocity": 0.33070866141732286,
                    "duration": 0.15789474999999698
                },
                {
                    "name": "F#3",
                    "midi": 54,
                    "time": 212.68422824999823,
                    "velocity": 0.28346456692913385,
                    "duration": 0.15789474999999698
                },
                {
                    "name": "C4",
                    "midi": 60,
                    "time": 212.84212299999822,
                    "velocity": 0.29133858267716534,
                    "duration": 0.15789474999999698
                },
                {
                    "name": "A3",
                    "midi": 57,
                    "time": 213.00001774999822,
                    "velocity": 0.25984251968503935,
                    "duration": 0.15789474999999698
                },
                {
                    "name": "F#4",
                    "midi": 66,
                    "time": 213.15791249999822,
                    "velocity": 0.28346456692913385,
                    "duration": 0.9473685000000103
                },
                {
                    "name": "G3",
                    "midi": 55,
                    "time": 214.10528099999823,
                    "velocity": 0.31496062992125984,
                    "duration": 0.6315789999999879
                },
                {
                    "name": "B3",
                    "midi": 59,
                    "time": 214.10528099999823,
                    "velocity": 0.31496062992125984,
                    "duration": 0.6315789999999879
                },
                {
                    "name": "G3",
                    "midi": 55,
                    "time": 214.73685999999822,
                    "velocity": 0.2992125984251969,
                    "duration": 0.31578949999999395
                },
                {
                    "name": "C4",
                    "midi": 60,
                    "time": 214.73685999999822,
                    "velocity": 0.2992125984251969,
                    "duration": 0.31578949999999395
                },
                {
                    "name": "G3",
                    "midi": 55,
                    "time": 215.0526494999982,
                    "velocity": 0.31496062992125984,
                    "duration": 0.6315789999999879
                },
                {
                    "name": "C4",
                    "midi": 60,
                    "time": 215.0526494999982,
                    "velocity": 0.31496062992125984,
                    "duration": 0.6315789999999879
                },
                {
                    "name": "G3",
                    "midi": 55,
                    "time": 215.6842284999982,
                    "velocity": 0.2992125984251969,
                    "duration": 0.31578949999999395
                },
                {
                    "name": "C4",
                    "midi": 60,
                    "time": 215.6842284999982,
                    "velocity": 0.2992125984251969,
                    "duration": 0.31578949999999395
                },
                {
                    "name": "G3",
                    "midi": 55,
                    "time": 216.0000179999982,
                    "velocity": 0.29133858267716534,
                    "duration": 1.5789474999999698
                },
                {
                    "name": "B3",
                    "midi": 59,
                    "time": 216.0000179999982,
                    "velocity": 0.29133858267716534,
                    "duration": 0.1710526458333277
                },
                {
                    "name": "A#3",
                    "midi": 58,
                    "time": 216.1579127499982,
                    "velocity": 0.2677165354330709,
                    "duration": 0.15789474999999698
                },
                {
                    "name": "B3",
                    "midi": 59,
                    "time": 216.3158074999982,
                    "velocity": 0.28346456692913385,
                    "duration": 0.1710526458333277
                },
                {
                    "name": "A#3",
                    "midi": 58,
                    "time": 216.47370224999818,
                    "velocity": 0.25196850393700787,
                    "duration": 0.15789474999999698
                },
                {
                    "name": "B3",
                    "midi": 59,
                    "time": 216.63159699999818,
                    "velocity": 0.28346456692913385,
                    "duration": 0.1710526458333277
                },
                {
                    "name": "A#3",
                    "midi": 58,
                    "time": 216.78949174999818,
                    "velocity": 0.25984251968503935,
                    "duration": 0.15789474999999698
                },
                {
                    "name": "B3",
                    "midi": 59,
                    "time": 216.94738649999817,
                    "velocity": 0.28346456692913385,
                    "duration": 0.6315789999999879
                },
                {
                    "name": "F#3",
                    "midi": 54,
                    "time": 217.57896549999816,
                    "velocity": 0.28346456692913385,
                    "duration": 0.23684212500000967
                },
                {
                    "name": "A3",
                    "midi": 57,
                    "time": 217.81580762499817,
                    "velocity": 0.3228346456692913,
                    "duration": 0.0789473750000127
                },
                {
                    "name": "G3",
                    "midi": 55,
                    "time": 217.89475499999818,
                    "velocity": 0.30708661417322836,
                    "duration": 0.15789474999999698
                },
                {
                    "name": "F#3",
                    "midi": 54,
                    "time": 218.05264974999818,
                    "velocity": 0.28346456692913385,
                    "duration": 0.15789474999999698
                },
                {
                    "name": "G3",
                    "midi": 55,
                    "time": 218.21054449999818,
                    "velocity": 0.30708661417322836,
                    "duration": 0.15789474999999698
                },
                {
                    "name": "F#3",
                    "midi": 54,
                    "time": 218.36843924999818,
                    "velocity": 0.28346456692913385,
                    "duration": 0.15789474999999698
                },
                {
                    "name": "G3",
                    "midi": 55,
                    "time": 218.52633399999817,
                    "velocity": 0.30708661417322836,
                    "duration": 0.15789474999999698
                },
                {
                    "name": "B3",
                    "midi": 59,
                    "time": 218.68422874999817,
                    "velocity": 0.28346456692913385,
                    "duration": 0.15789474999999698
                },
                {
                    "name": "A3",
                    "midi": 57,
                    "time": 218.84212349999817,
                    "velocity": 0.2992125984251969,
                    "duration": 0.6315789999999879
                },
                {
                    "name": "G3",
                    "midi": 55,
                    "time": 219.47370249999815,
                    "velocity": 0.28346456692913385,
                    "duration": 0.31578949999999395
                },
                {
                    "name": "D3",
                    "midi": 50,
                    "time": 219.78949199999815,
                    "velocity": 0.2992125984251969,
                    "duration": 0.15789474999999698
                },
                {
                    "name": "C#4",
                    "midi": 61,
                    "time": 219.94738674999815,
                    "velocity": 0.28346456692913385,
                    "duration": 0.15789474999999698
                },
                {
                    "name": "D4",
                    "midi": 62,
                    "time": 220.10528149999814,
                    "velocity": 0.29133858267716534,
                    "duration": 0.15789474999999698
                },
                {
                    "name": "C#4",
                    "midi": 61,
                    "time": 220.26317624999814,
                    "velocity": 0.28346456692913385,
                    "duration": 0.15789474999999698
                },
                {
                    "name": "D4",
                    "midi": 62,
                    "time": 220.42107099999814,
                    "velocity": 0.29133858267716534,
                    "duration": 0.15789474999999698
                },
                {
                    "name": "C#4",
                    "midi": 61,
                    "time": 220.57896574999813,
                    "velocity": 0.28346456692913385,
                    "duration": 0.15789474999999698
                },
                {
                    "name": "D4",
                    "midi": 62,
                    "time": 220.73686049999813,
                    "velocity": 0.2992125984251969,
                    "duration": 0.15789474999999698
                },
                {
                    "name": "E4",
                    "midi": 64,
                    "time": 220.89475524999813,
                    "velocity": 0.28346456692913385,
                    "duration": 0.15789474999999698
                },
                {
                    "name": "C4",
                    "midi": 60,
                    "time": 221.05264999999812,
                    "velocity": 0.2992125984251969,
                    "duration": 0.15789474999999698
                },
                {
                    "name": "D4",
                    "midi": 62,
                    "time": 221.21054474999812,
                    "velocity": 0.28346456692913385,
                    "duration": 0.15789474999999698
                },
                {
                    "name": "B3",
                    "midi": 59,
                    "time": 221.36843949999812,
                    "velocity": 0.30708661417322836,
                    "duration": 0.15789474999999698
                },
                {
                    "name": "C4",
                    "midi": 60,
                    "time": 221.52633424999811,
                    "velocity": 0.28346456692913385,
                    "duration": 0.15789474999999698
                },
                {
                    "name": "A3",
                    "midi": 57,
                    "time": 221.6842289999981,
                    "velocity": 0.31496062992125984,
                    "duration": 0.15789474999999698
                },
                {
                    "name": "E4",
                    "midi": 64,
                    "time": 221.8421237499981,
                    "velocity": 0.29133858267716534,
                    "duration": 0.15789474999999698
                },
                {
                    "name": "C4",
                    "midi": 60,
                    "time": 222.0000184999981,
                    "velocity": 0.29133858267716534,
                    "duration": 0.15789474999999698
                },
                {
                    "name": "B3",
                    "midi": 59,
                    "time": 222.1579132499981,
                    "velocity": 0.28346456692913385,
                    "duration": 0.15789474999999698
                },
                {
                    "name": "A3",
                    "midi": 57,
                    "time": 222.3158079999981,
                    "velocity": 0.28346456692913385,
                    "duration": 0.15789474999999698
                },
                {
                    "name": "G3",
                    "midi": 55,
                    "time": 222.4737027499981,
                    "velocity": 0.28346456692913385,
                    "duration": 0.15789474999999698
                },
                {
                    "name": "F#3",
                    "midi": 54,
                    "time": 222.6315974999981,
                    "velocity": 0.28346456692913385,
                    "duration": 0.15789474999999698
                },
                {
                    "name": "G3",
                    "midi": 55,
                    "time": 222.7894922499981,
                    "velocity": 0.2755905511811024,
                    "duration": 0.15789474999999698
                },
                {
                    "name": "A3",
                    "midi": 57,
                    "time": 222.9473869999981,
                    "velocity": 0.28346456692913385,
                    "duration": 0.15789474999999698
                },
                {
                    "name": "D3",
                    "midi": 50,
                    "time": 223.10528174999808,
                    "velocity": 0.29133858267716534,
                    "duration": 0.15789474999999698
                },
                {
                    "name": "E3",
                    "midi": 52,
                    "time": 223.26317649999808,
                    "velocity": 0.30708661417322836,
                    "duration": 0.15789474999999698
                },
                {
                    "name": "F#3",
                    "midi": 54,
                    "time": 223.42107124999808,
                    "velocity": 0.31496062992125984,
                    "duration": 0.15789474999999698
                },
                {
                    "name": "G3",
                    "midi": 55,
                    "time": 223.57896599999808,
                    "velocity": 0.30708661417322836,
                    "duration": 0.15789474999999698
                },
                {
                    "name": "F#3",
                    "midi": 54,
                    "time": 223.73686074999807,
                    "velocity": 0.2992125984251969,
                    "duration": 0.15789474999999698
                },
                {
                    "name": "E3",
                    "midi": 52,
                    "time": 223.89475549999807,
                    "velocity": 0.29133858267716534,
                    "duration": 0.15789474999999698
                },
                {
                    "name": "D3",
                    "midi": 50,
                    "time": 224.05265024999807,
                    "velocity": 0.28346456692913385,
                    "duration": 0.15789474999999698
                },
                {
                    "name": "C3",
                    "midi": 48,
                    "time": 224.21054499999806,
                    "velocity": 0.2755905511811024,
                    "duration": 0.15789474999999698
                },
                {
                    "name": "B2",
                    "midi": 47,
                    "time": 224.36843974999806,
                    "velocity": 0.2677165354330709,
                    "duration": 0.15789474999999698
                },
                {
                    "name": "E3",
                    "midi": 52,
                    "time": 224.52633449999806,
                    "velocity": 0.2992125984251969,
                    "duration": 0.15789474999999698
                },
                {
                    "name": "D3",
                    "midi": 50,
                    "time": 224.68422924999805,
                    "velocity": 0.29133858267716534,
                    "duration": 0.15789474999999698
                },
                {
                    "name": "C3",
                    "midi": 48,
                    "time": 224.84212399999805,
                    "velocity": 0.28346456692913385,
                    "duration": 0.15789474999999698
                },
                {
                    "name": "B2",
                    "midi": 47,
                    "time": 225.00001874999805,
                    "velocity": 0.2755905511811024,
                    "duration": 0.15789474999999698
                },
                {
                    "name": "A2",
                    "midi": 45,
                    "time": 225.15791349999805,
                    "velocity": 0.25984251968503935,
                    "duration": 0.15789474999999698
                },
                {
                    "name": "G2",
                    "midi": 43,
                    "time": 225.31580824999804,
                    "velocity": 0.25196850393700787,
                    "duration": 0.15789474999999698
                },
                {
                    "name": "C3",
                    "midi": 48,
                    "time": 225.47370299999804,
                    "velocity": 0.30708661417322836,
                    "duration": 0.31578949999999395
                },
                {
                    "name": "B2",
                    "midi": 47,
                    "time": 225.78949249999803,
                    "velocity": 0.28346456692913385,
                    "duration": 0.31578949999999395
                },
                {
                    "name": "A2",
                    "midi": 45,
                    "time": 226.10528199999803,
                    "velocity": 0.28346456692913385,
                    "duration": 0.31578949999999395
                },
                {
                    "name": "D3",
                    "midi": 50,
                    "time": 226.42107149999802,
                    "velocity": 0.30708661417322836,
                    "duration": 0.9473685000000103
                },
                {
                    "name": "G2",
                    "midi": 43,
                    "time": 227.36843999999803,
                    "velocity": 0.25196850393700787,
                    "duration": 0.15789474999999698
                },
                {
                    "name": "F#3",
                    "midi": 54,
                    "time": 227.52633474999803,
                    "velocity": 0.2283464566929134,
                    "duration": 0.15789474999999698
                },
                {
                    "name": "G3",
                    "midi": 55,
                    "time": 227.68422949999803,
                    "velocity": 0.25196850393700787,
                    "duration": 0.15789474999999698
                },
                {
                    "name": "F#3",
                    "midi": 54,
                    "time": 227.84212424999802,
                    "velocity": 0.2283464566929134,
                    "duration": 0.15789474999999698
                },
                {
                    "name": "G3",
                    "midi": 55,
                    "time": 228.00001899999802,
                    "velocity": 0.23622047244094488,
                    "duration": 0.15789474999999698
                },
                {
                    "name": "F#3",
                    "midi": 54,
                    "time": 228.15791374999802,
                    "velocity": 0.2125984251968504,
                    "duration": 0.15789474999999698
                },
                {
                    "name": "G3",
                    "midi": 55,
                    "time": 228.315808499998,
                    "velocity": 0.2047244094488189,
                    "duration": 0.31578949999999395
                },
                {
                    "name": "G3",
                    "midi": 55,
                    "time": 229.578966499998,
                    "velocity": 0.14960629921259844,
                    "duration": 0.31578949999999395
                },
                {
                    "name": "A#3",
                    "midi": 58,
                    "time": 229.578966499998,
                    "velocity": 0.1889763779527559,
                    "duration": 0.31578949999999395
                },
                {
                    "name": "C4",
                    "midi": 60,
                    "time": 230.52633499999797,
                    "velocity": 0.2047244094488189,
                    "duration": 0.31578949999999395
                },
                {
                    "name": "G3",
                    "midi": 55,
                    "time": 230.52633499999797,
                    "velocity": 0.16535433070866143,
                    "duration": 0.31578949999999395
                },
                {
                    "name": "G3",
                    "midi": 55,
                    "time": 231.47370349999795,
                    "velocity": 0.1889763779527559,
                    "duration": 0.31578949999999395
                },
                {
                    "name": "C4",
                    "midi": 60,
                    "time": 231.47370349999795,
                    "velocity": 0.2204724409448819,
                    "duration": 0.31578949999999395
                },
                {
                    "name": "G3",
                    "midi": 55,
                    "time": 232.42107199999793,
                    "velocity": 0.2992125984251969,
                    "duration": 0.31578949999999395
                },
                {
                    "name": "A#3",
                    "midi": 58,
                    "time": 232.42107199999793,
                    "velocity": 0.3543307086614173,
                    "duration": 0.31578949999999395
                },
                {
                    "name": "G4",
                    "midi": 67,
                    "time": 234.00001949999793,
                    "velocity": 0.4645669291338583,
                    "duration": 0.9473685000000103
                },
                {
                    "name": "A#4",
                    "midi": 70,
                    "time": 234.00001949999793,
                    "velocity": 0.4645669291338583,
                    "duration": 0.9473685000000103
                },
                {
                    "name": "C#5",
                    "midi": 73,
                    "time": 234.00001949999793,
                    "velocity": 0.4645669291338583,
                    "duration": 0.9473685000000103
                },
                {
                    "name": "F4",
                    "midi": 65,
                    "time": 234.94738799999794,
                    "velocity": 0.48031496062992124,
                    "duration": 0.6315789999999879
                },
                {
                    "name": "A4",
                    "midi": 69,
                    "time": 234.94738799999794,
                    "velocity": 0.48031496062992124,
                    "duration": 0.6315789999999879
                },
                {
                    "name": "E4",
                    "midi": 64,
                    "time": 235.57896699999793,
                    "velocity": 0.4566929133858268,
                    "duration": 0.31578949999999395
                },
                {
                    "name": "G4",
                    "midi": 67,
                    "time": 235.57896699999793,
                    "velocity": 0.4566929133858268,
                    "duration": 0.31578949999999395
                },
                {
                    "name": "D4",
                    "midi": 62,
                    "time": 235.89475649999792,
                    "velocity": 0.4566929133858268,
                    "duration": 0.31578949999999395
                },
                {
                    "name": "F4",
                    "midi": 65,
                    "time": 235.89475649999792,
                    "velocity": 0.4566929133858268,
                    "duration": 0.31578949999999395
                },
                {
                    "name": "G#4",
                    "midi": 68,
                    "time": 236.21054599999792,
                    "velocity": 0.4881889763779528,
                    "duration": 0.6315789999999879
                },
                {
                    "name": "B4",
                    "midi": 71,
                    "time": 236.21054599999792,
                    "velocity": 0.4881889763779528,
                    "duration": 0.6315789999999879
                },
                {
                    "name": "A3",
                    "midi": 57,
                    "time": 236.8421249999979,
                    "velocity": 0.4566929133858268,
                    "duration": 0.9473685000000103
                },
                {
                    "name": "D4",
                    "midi": 62,
                    "time": 236.8421249999979,
                    "velocity": 0.4566929133858268,
                    "duration": 0.9473685000000103
                },
                {
                    "name": "F4",
                    "midi": 65,
                    "time": 236.8421249999979,
                    "velocity": 0.4566929133858268,
                    "duration": 0.9473685000000103
                },
                {
                    "name": "A3",
                    "midi": 57,
                    "time": 237.78949349999792,
                    "velocity": 0.3858267716535433,
                    "duration": 0.9473685000000103
                },
                {
                    "name": "E4",
                    "midi": 64,
                    "time": 237.78949349999792,
                    "velocity": 0.3858267716535433,
                    "duration": 0.9473685000000103
                },
                {
                    "name": "G4",
                    "midi": 67,
                    "time": 237.78949349999792,
                    "velocity": 0.3858267716535433,
                    "duration": 0.9473685000000103
                },
                {
                    "name": "D3",
                    "midi": 50,
                    "time": 239.36844099999792,
                    "velocity": 0.2125984251968504,
                    "duration": 0.23684212500000967
                },
                {
                    "name": "D4",
                    "midi": 62,
                    "time": 239.36844099999792,
                    "velocity": 0.2125984251968504,
                    "duration": 0.23684212500000967
                },
                {
                    "name": "D3",
                    "midi": 50,
                    "time": 239.68423049999794,
                    "velocity": 0.2125984251968504,
                    "duration": 0.31578949999999395
                },
                {
                    "name": "D4",
                    "midi": 62,
                    "time": 239.68423049999794,
                    "velocity": 0.2125984251968504,
                    "duration": 0.31578949999999395
                },
                {
                    "name": "G3",
                    "midi": 55,
                    "time": 240.9473884999979,
                    "velocity": 0.14960629921259844,
                    "duration": 0.31578949999999395
                },
                {
                    "name": "A#3",
                    "midi": 58,
                    "time": 240.9473884999979,
                    "velocity": 0.1889763779527559,
                    "duration": 0.31578949999999395
                },
                {
                    "name": "C4",
                    "midi": 60,
                    "time": 241.8947569999979,
                    "velocity": 0.2204724409448819,
                    "duration": 0.31578949999999395
                },
                {
                    "name": "G3",
                    "midi": 55,
                    "time": 241.8947569999979,
                    "velocity": 0.1889763779527559,
                    "duration": 0.31578949999999395
                },
                {
                    "name": "G3",
                    "midi": 55,
                    "time": 242.84212549999788,
                    "velocity": 0.1968503937007874,
                    "duration": 0.31578949999999395
                },
                {
                    "name": "C4",
                    "midi": 60,
                    "time": 242.84212549999788,
                    "velocity": 0.23622047244094488,
                    "duration": 0.31578949999999395
                },
                {
                    "name": "G3",
                    "midi": 55,
                    "time": 243.78949399999786,
                    "velocity": 0.2992125984251969,
                    "duration": 0.31578949999999395
                },
                {
                    "name": "A#3",
                    "midi": 58,
                    "time": 243.78949399999786,
                    "velocity": 0.3543307086614173,
                    "duration": 0.31578949999999395
                },
                {
                    "name": "G4",
                    "midi": 67,
                    "time": 245.36844149999786,
                    "velocity": 0.4645669291338583,
                    "duration": 0.9473685000000103
                },
                {
                    "name": "A#4",
                    "midi": 70,
                    "time": 245.36844149999786,
                    "velocity": 0.4645669291338583,
                    "duration": 0.9473685000000103
                },
                {
                    "name": "C#5",
                    "midi": 73,
                    "time": 245.36844149999786,
                    "velocity": 0.4645669291338583,
                    "duration": 0.9473685000000103
                },
                {
                    "name": "F4",
                    "midi": 65,
                    "time": 246.31580999999787,
                    "velocity": 0.48031496062992124,
                    "duration": 0.6315789999999879
                },
                {
                    "name": "A4",
                    "midi": 69,
                    "time": 246.31580999999787,
                    "velocity": 0.48031496062992124,
                    "duration": 0.6315789999999879
                },
                {
                    "name": "E4",
                    "midi": 64,
                    "time": 246.94738899999786,
                    "velocity": 0.4566929133858268,
                    "duration": 0.31578949999999395
                },
                {
                    "name": "G4",
                    "midi": 67,
                    "time": 246.94738899999786,
                    "velocity": 0.4566929133858268,
                    "duration": 0.31578949999999395
                },
                {
                    "name": "D4",
                    "midi": 62,
                    "time": 247.26317849999785,
                    "velocity": 0.4566929133858268,
                    "duration": 0.31578949999999395
                },
                {
                    "name": "F4",
                    "midi": 65,
                    "time": 247.26317849999785,
                    "velocity": 0.4566929133858268,
                    "duration": 0.31578949999999395
                },
                {
                    "name": "G#4",
                    "midi": 68,
                    "time": 247.57896799999784,
                    "velocity": 0.4881889763779528,
                    "duration": 0.6315789999999879
                },
                {
                    "name": "B4",
                    "midi": 71,
                    "time": 247.57896799999784,
                    "velocity": 0.4881889763779528,
                    "duration": 0.6315789999999879
                },
                {
                    "name": "A3",
                    "midi": 57,
                    "time": 248.21054699999783,
                    "velocity": 0.44881889763779526,
                    "duration": 0.9473685000000103
                },
                {
                    "name": "D4",
                    "midi": 62,
                    "time": 248.21054699999783,
                    "velocity": 0.44881889763779526,
                    "duration": 0.9473685000000103
                },
                {
                    "name": "F4",
                    "midi": 65,
                    "time": 248.21054699999783,
                    "velocity": 0.44881889763779526,
                    "duration": 0.9473685000000103
                },
                {
                    "name": "A3",
                    "midi": 57,
                    "time": 249.15791549999784,
                    "velocity": 0.3543307086614173,
                    "duration": 0.9473685000000103
                },
                {
                    "name": "E4",
                    "midi": 64,
                    "time": 249.15791549999784,
                    "velocity": 0.3543307086614173,
                    "duration": 0.9473685000000103
                },
                {
                    "name": "G4",
                    "midi": 67,
                    "time": 249.15791549999784,
                    "velocity": 0.3543307086614173,
                    "duration": 0.9473685000000103
                },
                {
                    "name": "D3",
                    "midi": 50,
                    "time": 250.73686299999784,
                    "velocity": 0.2125984251968504,
                    "duration": 0.23684212500000967
                },
                {
                    "name": "D4",
                    "midi": 62,
                    "time": 250.73686299999784,
                    "velocity": 0.2125984251968504,
                    "duration": 0.23684212500000967
                },
                {
                    "name": "D3",
                    "midi": 50,
                    "time": 251.05265249999786,
                    "velocity": 0.2125984251968504,
                    "duration": 0.31578949999999395
                },
                {
                    "name": "D4",
                    "midi": 62,
                    "time": 251.05265249999786,
                    "velocity": 0.2125984251968504,
                    "duration": 0.31578949999999395
                },
                {
                    "name": "A#3",
                    "midi": 58,
                    "time": 252.31581049999787,
                    "velocity": 0.1732283464566929,
                    "duration": 0.31578949999999395
                },
                {
                    "name": "D4",
                    "midi": 62,
                    "time": 252.31581049999787,
                    "velocity": 0.2125984251968504,
                    "duration": 0.31578949999999395
                },
                {
                    "name": "D#4",
                    "midi": 63,
                    "time": 253.26317899999785,
                    "velocity": 0.2283464566929134,
                    "duration": 0.31578949999999395
                },
                {
                    "name": "A3",
                    "midi": 57,
                    "time": 253.26317899999785,
                    "velocity": 0.1968503937007874,
                    "duration": 0.31578949999999395
                },
                {
                    "name": "G3",
                    "midi": 55,
                    "time": 254.21054749999783,
                    "velocity": 0.1968503937007874,
                    "duration": 0.31578949999999395
                },
                {
                    "name": "A#3",
                    "midi": 58,
                    "time": 254.21054749999783,
                    "velocity": 0.2283464566929134,
                    "duration": 0.31578949999999395
                },
                {
                    "name": "D3",
                    "midi": 50,
                    "time": 255.1579159999978,
                    "velocity": 0.3543307086614173,
                    "duration": 0.31578949999999395
                },
                {
                    "name": "D2",
                    "midi": 38,
                    "time": 255.1579159999978,
                    "velocity": 0.3543307086614173,
                    "duration": 0.31578949999999395
                },
                {
                    "name": "A#3",
                    "midi": 58,
                    "time": 255.4737054999978,
                    "velocity": 0.4330708661417323,
                    "duration": 0.31578949999999395
                },
                {
                    "name": "D4",
                    "midi": 62,
                    "time": 255.4737054999978,
                    "velocity": 0.4330708661417323,
                    "duration": 0.31578949999999395
                },
                {
                    "name": "D#4",
                    "midi": 63,
                    "time": 255.7894949999978,
                    "velocity": 0.3937007874015748,
                    "duration": 0.6315790000000163
                },
                {
                    "name": "C4",
                    "midi": 60,
                    "time": 255.7894949999978,
                    "velocity": 0.3937007874015748,
                    "duration": 0.6315790000000163
                },
                {
                    "name": "D4",
                    "midi": 62,
                    "time": 256.4210739999978,
                    "velocity": 0.4330708661417323,
                    "duration": 0.31578949999999395
                },
                {
                    "name": "A#3",
                    "midi": 58,
                    "time": 256.4210739999978,
                    "velocity": 0.4330708661417323,
                    "duration": 0.31578949999999395
                },
                {
                    "name": "C4",
                    "midi": 60,
                    "time": 256.7368634999978,
                    "velocity": 0.3858267716535433,
                    "duration": 0.6315789999999879
                },
                {
                    "name": "D#4",
                    "midi": 63,
                    "time": 256.7368634999978,
                    "velocity": 0.3858267716535433,
                    "duration": 0.6315789999999879
                },
                {
                    "name": "D4",
                    "midi": 62,
                    "time": 257.3684424999978,
                    "velocity": 0.4094488188976378,
                    "duration": 0.31578949999999395
                },
                {
                    "name": "A#3",
                    "midi": 58,
                    "time": 257.3684424999978,
                    "velocity": 0.4094488188976378,
                    "duration": 0.31578949999999395
                },
                {
                    "name": "C4",
                    "midi": 60,
                    "time": 257.6842319999978,
                    "velocity": 0.4330708661417323,
                    "duration": 0.31578949999999395
                },
                {
                    "name": "F#3",
                    "midi": 54,
                    "time": 257.6842319999978,
                    "velocity": 0.36220472440944884,
                    "duration": 0.9473684999999819
                },
                {
                    "name": "D4",
                    "midi": 62,
                    "time": 258.0000214999978,
                    "velocity": 0.3464566929133858,
                    "duration": 0.31578949999999395
                },
                {
                    "name": "D#4",
                    "midi": 63,
                    "time": 258.3158109999978,
                    "velocity": 0.3464566929133858,
                    "duration": 0.31578949999999395
                },
                {
                    "name": "G3",
                    "midi": 55,
                    "time": 258.6316004999978,
                    "velocity": 0.3543307086614173,
                    "duration": 0.31578949999999395
                },
                {
                    "name": "D4",
                    "midi": 62,
                    "time": 258.6316004999978,
                    "velocity": 0.3543307086614173,
                    "duration": 0.9473684999999819
                },
                {
                    "name": "A3",
                    "midi": 57,
                    "time": 258.94738999999777,
                    "velocity": 0.28346456692913385,
                    "duration": 0.31578949999999395
                },
                {
                    "name": "A#3",
                    "midi": 58,
                    "time": 259.26317949999776,
                    "velocity": 0.29133858267716534,
                    "duration": 0.31578949999999395
                },
                {
                    "name": "D#4",
                    "midi": 63,
                    "time": 259.57896899999776,
                    "velocity": 0.2992125984251969,
                    "duration": 0.9473684999999819
                },
                {
                    "name": "C4",
                    "midi": 60,
                    "time": 259.57896899999776,
                    "velocity": 0.2992125984251969,
                    "duration": 0.9473684999999819
                },
                {
                    "name": "A#3",
                    "midi": 58,
                    "time": 260.52633749999774,
                    "velocity": 0.2755905511811024,
                    "duration": 0.6315789999999879
                },
                {
                    "name": "D3",
                    "midi": 50,
                    "time": 260.52633749999774,
                    "velocity": 0.2755905511811024,
                    "duration": 0.9473684999999819
                },
                {
                    "name": "A3",
                    "midi": 57,
                    "time": 261.1579164999977,
                    "velocity": 0.2283464566929134,
                    "duration": 0.31578949999999395
                },
                {
                    "name": "G2",
                    "midi": 43,
                    "time": 262.1052849999977,
                    "velocity": 0.2047244094488189,
                    "duration": 0.1578947500000254
                },
                {
                    "name": "G3",
                    "midi": 55,
                    "time": 262.1052849999977,
                    "velocity": 0.2047244094488189,
                    "duration": 0.1578947500000254
                },
                {
                    "name": "G2",
                    "midi": 43,
                    "time": 262.42107449999776,
                    "velocity": 0.2047244094488189,
                    "duration": 0.1578947500000254
                },
                {
                    "name": "G3",
                    "midi": 55,
                    "time": 262.42107449999776,
                    "velocity": 0.2047244094488189,
                    "duration": 0.1578947500000254
                },
                {
                    "name": "A#3",
                    "midi": 58,
                    "time": 263.6842324999978,
                    "velocity": 0.1732283464566929,
                    "duration": 0.31578949999999395
                },
                {
                    "name": "D4",
                    "midi": 62,
                    "time": 263.6842324999978,
                    "velocity": 0.2125984251968504,
                    "duration": 0.31578949999999395
                },
                {
                    "name": "D#4",
                    "midi": 63,
                    "time": 264.6316009999978,
                    "velocity": 0.2283464566929134,
                    "duration": 0.31578949999999395
                },
                {
                    "name": "A3",
                    "midi": 57,
                    "time": 264.6316009999978,
                    "velocity": 0.1968503937007874,
                    "duration": 0.31578949999999395
                },
                {
                    "name": "G3",
                    "midi": 55,
                    "time": 265.57896949999775,
                    "velocity": 0.1968503937007874,
                    "duration": 0.31578949999999395
                },
                {
                    "name": "A#3",
                    "midi": 58,
                    "time": 265.57896949999775,
                    "velocity": 0.2283464566929134,
                    "duration": 0.31578949999999395
                },
                {
                    "name": "D3",
                    "midi": 50,
                    "time": 266.52633799999774,
                    "velocity": 0.3543307086614173,
                    "duration": 0.31578949999999395
                },
                {
                    "name": "D2",
                    "midi": 38,
                    "time": 266.52633799999774,
                    "velocity": 0.3543307086614173,
                    "duration": 0.31578949999999395
                },
                {
                    "name": "A#3",
                    "midi": 58,
                    "time": 266.84212749999773,
                    "velocity": 0.4330708661417323,
                    "duration": 0.31578949999999395
                },
                {
                    "name": "D4",
                    "midi": 62,
                    "time": 266.84212749999773,
                    "velocity": 0.4330708661417323,
                    "duration": 0.31578949999999395
                },
                {
                    "name": "D#4",
                    "midi": 63,
                    "time": 267.1579169999977,
                    "velocity": 0.3937007874015748,
                    "duration": 0.6315789999999879
                },
                {
                    "name": "C4",
                    "midi": 60,
                    "time": 267.1579169999977,
                    "velocity": 0.3937007874015748,
                    "duration": 0.6315789999999879
                },
                {
                    "name": "D4",
                    "midi": 62,
                    "time": 267.7894959999977,
                    "velocity": 0.4330708661417323,
                    "duration": 0.31578949999999395
                },
                {
                    "name": "A#3",
                    "midi": 58,
                    "time": 267.7894959999977,
                    "velocity": 0.4330708661417323,
                    "duration": 0.31578949999999395
                },
                {
                    "name": "C4",
                    "midi": 60,
                    "time": 268.1052854999977,
                    "velocity": 0.3858267716535433,
                    "duration": 0.6315789999999879
                },
                {
                    "name": "D#4",
                    "midi": 63,
                    "time": 268.1052854999977,
                    "velocity": 0.3858267716535433,
                    "duration": 0.6315789999999879
                },
                {
                    "name": "D4",
                    "midi": 62,
                    "time": 268.7368644999977,
                    "velocity": 0.4094488188976378,
                    "duration": 0.31578949999999395
                },
                {
                    "name": "A#3",
                    "midi": 58,
                    "time": 268.7368644999977,
                    "velocity": 0.4094488188976378,
                    "duration": 0.31578949999999395
                },
                {
                    "name": "C4",
                    "midi": 60,
                    "time": 269.0526539999977,
                    "velocity": 0.44881889763779526,
                    "duration": 0.31578949999999395
                },
                {
                    "name": "F#3",
                    "midi": 54,
                    "time": 269.0526539999977,
                    "velocity": 0.3779527559055118,
                    "duration": 0.9473684999999819
                },
                {
                    "name": "D4",
                    "midi": 62,
                    "time": 269.3684434999977,
                    "velocity": 0.3543307086614173,
                    "duration": 0.31578949999999395
                },
                {
                    "name": "D#4",
                    "midi": 63,
                    "time": 269.6842329999977,
                    "velocity": 0.3543307086614173,
                    "duration": 0.31578949999999395
                },
                {
                    "name": "G3",
                    "midi": 55,
                    "time": 270.00002249999767,
                    "velocity": 0.36220472440944884,
                    "duration": 0.31578949999999395
                },
                {
                    "name": "D4",
                    "midi": 62,
                    "time": 270.00002249999767,
                    "velocity": 0.36220472440944884,
                    "duration": 0.9473684999999819
                },
                {
                    "name": "A3",
                    "midi": 57,
                    "time": 270.31581199999766,
                    "velocity": 0.28346456692913385,
                    "duration": 0.31578949999999395
                },
                {
                    "name": "A#3",
                    "midi": 58,
                    "time": 270.63160149999766,
                    "velocity": 0.28346456692913385,
                    "duration": 0.31578949999999395
                },
                {
                    "name": "D#4",
                    "midi": 63,
                    "time": 270.94739099999765,
                    "velocity": 0.2992125984251969,
                    "duration": 0.9473684999999819
                },
                {
                    "name": "C4",
                    "midi": 60,
                    "time": 270.94739099999765,
                    "velocity": 0.2992125984251969,
                    "duration": 0.9473684999999819
                },
                {
                    "name": "A#3",
                    "midi": 58,
                    "time": 271.89475949999763,
                    "velocity": 0.2755905511811024,
                    "duration": 0.6315789999999879
                },
                {
                    "name": "D3",
                    "midi": 50,
                    "time": 271.89475949999763,
                    "velocity": 0.2755905511811024,
                    "duration": 0.9473684999999819
                },
                {
                    "name": "A3",
                    "midi": 57,
                    "time": 272.5263384999976,
                    "velocity": 0.2283464566929134,
                    "duration": 0.31578949999999395
                },
                {
                    "name": "G2",
                    "midi": 43,
                    "time": 273.4737069999976,
                    "velocity": 0.2047244094488189,
                    "duration": 0.1578947500000254
                },
                {
                    "name": "G3",
                    "midi": 55,
                    "time": 273.4737069999976,
                    "velocity": 0.2047244094488189,
                    "duration": 0.1578947500000254
                },
                {
                    "name": "G2",
                    "midi": 43,
                    "time": 273.78949649999765,
                    "velocity": 0.2047244094488189,
                    "duration": 0.1578947500000254
                },
                {
                    "name": "G3",
                    "midi": 55,
                    "time": 273.78949649999765,
                    "velocity": 0.2047244094488189,
                    "duration": 0.1578947500000254
                },
                {
                    "name": "G3",
                    "midi": 55,
                    "time": 274.4210754999977,
                    "velocity": 0.2677165354330709,
                    "duration": 0.31578949999999395
                },
                {
                    "name": "B3",
                    "midi": 59,
                    "time": 274.4210754999977,
                    "velocity": 0.2677165354330709,
                    "duration": 0.31578949999999395
                },
                {
                    "name": "G3",
                    "midi": 55,
                    "time": 274.7368649999977,
                    "velocity": 0.28346456692913385,
                    "duration": 0.6315789999999879
                },
                {
                    "name": "B3",
                    "midi": 59,
                    "time": 274.7368649999977,
                    "velocity": 0.28346456692913385,
                    "duration": 0.6315789999999879
                },
                {
                    "name": "G3",
                    "midi": 55,
                    "time": 275.3684439999977,
                    "velocity": 0.25196850393700787,
                    "duration": 0.31578949999999395
                },
                {
                    "name": "C4",
                    "midi": 60,
                    "time": 275.3684439999977,
                    "velocity": 0.25196850393700787,
                    "duration": 0.31578949999999395
                },
                {
                    "name": "G3",
                    "midi": 55,
                    "time": 275.6842334999977,
                    "velocity": 0.2677165354330709,
                    "duration": 0.6315789999999879
                },
                {
                    "name": "C4",
                    "midi": 60,
                    "time": 275.6842334999977,
                    "velocity": 0.2677165354330709,
                    "duration": 0.6315789999999879
                },
                {
                    "name": "G3",
                    "midi": 55,
                    "time": 276.31581249999766,
                    "velocity": 0.28346456692913385,
                    "duration": 0.31578949999999395
                },
                {
                    "name": "C4",
                    "midi": 60,
                    "time": 276.31581249999766,
                    "velocity": 0.28346456692913385,
                    "duration": 0.31578949999999395
                },
                {
                    "name": "G3",
                    "midi": 55,
                    "time": 276.63160199999766,
                    "velocity": 0.29133858267716534,
                    "duration": 0.6315789999999879
                },
                {
                    "name": "B3",
                    "midi": 59,
                    "time": 276.63160199999766,
                    "velocity": 0.29133858267716534,
                    "duration": 0.6315789999999879
                },
                {
                    "name": "G3",
                    "midi": 55,
                    "time": 277.26318099999764,
                    "velocity": 0.23622047244094488,
                    "duration": 0.31578949999999395
                },
                {
                    "name": "B3",
                    "midi": 59,
                    "time": 277.26318099999764,
                    "velocity": 0.23622047244094488,
                    "duration": 0.31578949999999395
                },
                {
                    "name": "G3",
                    "midi": 55,
                    "time": 277.57897049999764,
                    "velocity": 0.25984251968503935,
                    "duration": 0.6315789999999879
                },
                {
                    "name": "B3",
                    "midi": 59,
                    "time": 277.57897049999764,
                    "velocity": 0.25984251968503935,
                    "duration": 0.6315789999999879
                },
                {
                    "name": "F#3",
                    "midi": 54,
                    "time": 278.2105494999976,
                    "velocity": 0.3464566929133858,
                    "duration": 0.31578949999999395
                },
                {
                    "name": "G3",
                    "midi": 55,
                    "time": 278.5263389999976,
                    "velocity": 0.31496062992125984,
                    "duration": 0.1578947500000254
                },
                {
                    "name": "G#3",
                    "midi": 56,
                    "time": 278.68423374999765,
                    "velocity": 0.3464566929133858,
                    "duration": 0.1578947500000254
                },
                {
                    "name": "A3",
                    "midi": 57,
                    "time": 278.84212849999767,
                    "velocity": 0.3700787401574803,
                    "duration": 0.1578947500000254
                },
                {
                    "name": "A#3",
                    "midi": 58,
                    "time": 279.0000232499977,
                    "velocity": 0.3937007874015748,
                    "duration": 0.1578947500000254
                },
                {
                    "name": "B3",
                    "midi": 59,
                    "time": 279.1579179999977,
                    "velocity": 0.4330708661417323,
                    "duration": 0.31578949999999395
                },
                {
                    "name": "A3",
                    "midi": 57,
                    "time": 279.4737074999977,
                    "velocity": 0.3937007874015748,
                    "duration": 0.6315789999999879
                },
                {
                    "name": "G3",
                    "midi": 55,
                    "time": 280.1052864999977,
                    "velocity": 0.3779527559055118,
                    "duration": 0.31578949999999395
                },
                {
                    "name": "D3",
                    "midi": 50,
                    "time": 280.4210759999977,
                    "velocity": 0.4015748031496063,
                    "duration": 0.47368425000001935
                },
                {
                    "name": "E3",
                    "midi": 52,
                    "time": 280.8947602499977,
                    "velocity": 0.3937007874015748,
                    "duration": 0.07894737499998428
                },
                {
                    "name": "F#3",
                    "midi": 54,
                    "time": 280.9737076249977,
                    "velocity": 0.4015748031496063,
                    "duration": 0.07894737499998428
                },
                {
                    "name": "G3",
                    "midi": 55,
                    "time": 281.0526549999977,
                    "velocity": 0.4251968503937008,
                    "duration": 0.07894737499998428
                },
                {
                    "name": "A3",
                    "midi": 57,
                    "time": 281.13160237499767,
                    "velocity": 0.4251968503937008,
                    "duration": 0.07894737499998428
                },
                {
                    "name": "B3",
                    "midi": 59,
                    "time": 281.21054974999765,
                    "velocity": 0.4330708661417323,
                    "duration": 0.07894737499998428
                },
                {
                    "name": "C#4",
                    "midi": 61,
                    "time": 281.28949712499764,
                    "velocity": 0.4409448818897638,
                    "duration": 0.07894737499998428
                },
                {
                    "name": "D4",
                    "midi": 62,
                    "time": 281.3684444999976,
                    "velocity": 0.4645669291338583,
                    "duration": 0.31578949999999395
                },
                {
                    "name": "C4",
                    "midi": 60,
                    "time": 281.6842339999976,
                    "velocity": 0.4094488188976378,
                    "duration": 0.31578949999999395
                },
                {
                    "name": "B3",
                    "midi": 59,
                    "time": 282.0000234999976,
                    "velocity": 0.4094488188976378,
                    "duration": 0.31578949999999395
                },
                {
                    "name": "A3",
                    "midi": 57,
                    "time": 282.3158129999976,
                    "velocity": 0.3779527559055118,
                    "duration": 0.6315789999999879
                },
                {
                    "name": "G3",
                    "midi": 55,
                    "time": 282.9473919999976,
                    "velocity": 0.36220472440944884,
                    "duration": 0.31578949999999395
                },
                {
                    "name": "F#3",
                    "midi": 54,
                    "time": 283.2631814999976,
                    "velocity": 0.3779527559055118,
                    "duration": 0.9473684999999819
                },
                {
                    "name": "D4",
                    "midi": 62,
                    "time": 283.8947604999976,
                    "velocity": 0.36220472440944884,
                    "duration": 0.9473684999999819
                },
                {
                    "name": "G3",
                    "midi": 55,
                    "time": 284.21054999999757,
                    "velocity": 0.3779527559055118,
                    "duration": 1.8947369999999637
                },
                {
                    "name": "F4",
                    "midi": 65,
                    "time": 284.84212899999756,
                    "velocity": 0.3464566929133858,
                    "duration": 0.31578949999999395
                },
                {
                    "name": "E4",
                    "midi": 64,
                    "time": 285.15791849999755,
                    "velocity": 0.3228346456692913,
                    "duration": 0.31578949999999395
                },
                {
                    "name": "D4",
                    "midi": 62,
                    "time": 285.47370799999754,
                    "velocity": 0.3228346456692913,
                    "duration": 0.31578949999999395
                },
                {
                    "name": "C4",
                    "midi": 60,
                    "time": 285.78949749999754,
                    "velocity": 0.3228346456692913,
                    "duration": 0.31578949999999395
                },
                {
                    "name": "G3",
                    "midi": 55,
                    "time": 286.10528699999753,
                    "velocity": 0.3228346456692913,
                    "duration": 1.5789474999999698
                },
                {
                    "name": "B3",
                    "midi": 59,
                    "time": 286.10528699999753,
                    "velocity": 0.3228346456692913,
                    "duration": 0.31578949999999395
                },
                {
                    "name": "A3",
                    "midi": 57,
                    "time": 286.4210764999975,
                    "velocity": 0.30708661417322836,
                    "duration": 0.31578949999999395
                },
                {
                    "name": "C4",
                    "midi": 60,
                    "time": 286.7368659999975,
                    "velocity": 0.30708661417322836,
                    "duration": 0.31578949999999395
                },
                {
                    "name": "B3",
                    "midi": 59,
                    "time": 287.0526554999975,
                    "velocity": 0.28346456692913385,
                    "duration": 0.31578949999999395
                },
                {
                    "name": "G4",
                    "midi": 67,
                    "time": 287.3684449999975,
                    "velocity": 0.2755905511811024,
                    "duration": 0.9473684999999819
                },
                {
                    "name": "A3",
                    "midi": 57,
                    "time": 287.6842344999975,
                    "velocity": 0.25196850393700787,
                    "duration": 0.31578949999999395
                },
                {
                    "name": "D4",
                    "midi": 62,
                    "time": 288.0000239999975,
                    "velocity": 0.2677165354330709,
                    "duration": 1.2631579999999758
                },
                {
                    "name": "F#4",
                    "midi": 66,
                    "time": 288.3158134999975,
                    "velocity": 0.25196850393700787,
                    "duration": 0.31578949999999395
                },
                {
                    "name": "F#4",
                    "midi": 66,
                    "time": 288.6316029999975,
                    "velocity": 0.25196850393700787,
                    "duration": 0.31578949999999395
                },
                {
                    "name": "F#4",
                    "midi": 66,
                    "time": 288.9473924999975,
                    "velocity": 0.2283464566929134,
                    "duration": 0.31578949999999395
                },
                {
                    "name": "G3",
                    "midi": 55,
                    "time": 289.57897149999746,
                    "velocity": 0.2677165354330709,
                    "duration": 0.31578949999999395
                },
                {
                    "name": "B3",
                    "midi": 59,
                    "time": 289.57897149999746,
                    "velocity": 0.2677165354330709,
                    "duration": 0.31578949999999395
                },
                {
                    "name": "G3",
                    "midi": 55,
                    "time": 289.89476099999746,
                    "velocity": 0.28346456692913385,
                    "duration": 0.6315789999999879
                },
                {
                    "name": "B3",
                    "midi": 59,
                    "time": 289.89476099999746,
                    "velocity": 0.28346456692913385,
                    "duration": 0.6315789999999879
                },
                {
                    "name": "G3",
                    "midi": 55,
                    "time": 290.52633999999745,
                    "velocity": 0.25196850393700787,
                    "duration": 0.31578949999999395
                },
                {
                    "name": "C4",
                    "midi": 60,
                    "time": 290.52633999999745,
                    "velocity": 0.25196850393700787,
                    "duration": 0.31578949999999395
                },
                {
                    "name": "G3",
                    "midi": 55,
                    "time": 290.84212949999744,
                    "velocity": 0.2677165354330709,
                    "duration": 0.6315789999999879
                },
                {
                    "name": "C4",
                    "midi": 60,
                    "time": 290.84212949999744,
                    "velocity": 0.2677165354330709,
                    "duration": 0.6315789999999879
                },
                {
                    "name": "G3",
                    "midi": 55,
                    "time": 291.47370849999743,
                    "velocity": 0.28346456692913385,
                    "duration": 0.31578949999999395
                },
                {
                    "name": "C4",
                    "midi": 60,
                    "time": 291.47370849999743,
                    "velocity": 0.28346456692913385,
                    "duration": 0.31578949999999395
                },
                {
                    "name": "G3",
                    "midi": 55,
                    "time": 291.7894979999974,
                    "velocity": 0.29133858267716534,
                    "duration": 0.6315789999999879
                },
                {
                    "name": "B3",
                    "midi": 59,
                    "time": 291.7894979999974,
                    "velocity": 0.29133858267716534,
                    "duration": 0.6315789999999879
                },
                {
                    "name": "G3",
                    "midi": 55,
                    "time": 292.4210769999974,
                    "velocity": 0.23622047244094488,
                    "duration": 0.31578949999999395
                },
                {
                    "name": "B3",
                    "midi": 59,
                    "time": 292.4210769999974,
                    "velocity": 0.23622047244094488,
                    "duration": 0.31578949999999395
                },
                {
                    "name": "G3",
                    "midi": 55,
                    "time": 292.7368664999974,
                    "velocity": 0.25984251968503935,
                    "duration": 0.6315789999999879
                },
                {
                    "name": "B3",
                    "midi": 59,
                    "time": 292.7368664999974,
                    "velocity": 0.25984251968503935,
                    "duration": 0.6315789999999879
                },
                {
                    "name": "F#3",
                    "midi": 54,
                    "time": 293.3684454999974,
                    "velocity": 0.3464566929133858,
                    "duration": 0.31578949999999395
                },
                {
                    "name": "G3",
                    "midi": 55,
                    "time": 293.6842349999974,
                    "velocity": 0.31496062992125984,
                    "duration": 0.1578947500000254
                },
                {
                    "name": "G#3",
                    "midi": 56,
                    "time": 293.8421297499974,
                    "velocity": 0.3464566929133858,
                    "duration": 0.1578947500000254
                },
                {
                    "name": "A3",
                    "midi": 57,
                    "time": 294.00002449999744,
                    "velocity": 0.3700787401574803,
                    "duration": 0.1578947500000254
                },
                {
                    "name": "A#3",
                    "midi": 58,
                    "time": 294.15791924999746,
                    "velocity": 0.3937007874015748,
                    "duration": 0.1578947500000254
                },
                {
                    "name": "B3",
                    "midi": 59,
                    "time": 294.3158139999975,
                    "velocity": 0.4330708661417323,
                    "duration": 0.31578949999999395
                },
                {
                    "name": "A3",
                    "midi": 57,
                    "time": 294.6316034999975,
                    "velocity": 0.3937007874015748,
                    "duration": 0.6315789999999879
                },
                {
                    "name": "G3",
                    "midi": 55,
                    "time": 295.26318249999747,
                    "velocity": 0.3779527559055118,
                    "duration": 0.31578949999999395
                },
                {
                    "name": "D3",
                    "midi": 50,
                    "time": 295.57897199999746,
                    "velocity": 0.4015748031496063,
                    "duration": 0.47368425000001935
                },
                {
                    "name": "E3",
                    "midi": 52,
                    "time": 296.0526562499975,
                    "velocity": 0.3858267716535433,
                    "duration": 0.07894737499998428
                },
                {
                    "name": "F#3",
                    "midi": 54,
                    "time": 296.13160362499747,
                    "velocity": 0.3937007874015748,
                    "duration": 0.07894737499998428
                },
                {
                    "name": "G3",
                    "midi": 55,
                    "time": 296.21055099999745,
                    "velocity": 0.4094488188976378,
                    "duration": 0.07894737499998428
                },
                {
                    "name": "A3",
                    "midi": 57,
                    "time": 296.28949837499744,
                    "velocity": 0.4251968503937008,
                    "duration": 0.07894737499998428
                },
                {
                    "name": "B3",
                    "midi": 59,
                    "time": 296.3684457499974,
                    "velocity": 0.4330708661417323,
                    "duration": 0.07894737499998428
                },
                {
                    "name": "C#4",
                    "midi": 61,
                    "time": 296.4473931249974,
                    "velocity": 0.4330708661417323,
                    "duration": 0.07894737499998428
                },
                {
                    "name": "D4",
                    "midi": 62,
                    "time": 296.5263404999974,
                    "velocity": 0.44881889763779526,
                    "duration": 0.31578949999999395
                },
                {
                    "name": "C4",
                    "midi": 60,
                    "time": 296.8421299999974,
                    "velocity": 0.4094488188976378,
                    "duration": 0.31578949999999395
                },
                {
                    "name": "B3",
                    "midi": 59,
                    "time": 297.1579194999974,
                    "velocity": 0.4094488188976378,
                    "duration": 0.31578949999999395
                },
                {
                    "name": "A3",
                    "midi": 57,
                    "time": 297.47370899999737,
                    "velocity": 0.3779527559055118,
                    "duration": 0.6315789999999879
                },
                {
                    "name": "G3",
                    "midi": 55,
                    "time": 298.10528799999736,
                    "velocity": 0.36220472440944884,
                    "duration": 0.31578949999999395
                },
                {
                    "name": "F#3",
                    "midi": 54,
                    "time": 298.42107749999735,
                    "velocity": 0.3779527559055118,
                    "duration": 0.9473684999999819
                },
                {
                    "name": "D4",
                    "midi": 62,
                    "time": 299.05265649999734,
                    "velocity": 0.36220472440944884,
                    "duration": 0.9473684999999819
                },
                {
                    "name": "G3",
                    "midi": 55,
                    "time": 299.36844599999733,
                    "velocity": 0.3779527559055118,
                    "duration": 1.8947369999999637
                },
                {
                    "name": "F4",
                    "midi": 65,
                    "time": 300.0000249999973,
                    "velocity": 0.3464566929133858,
                    "duration": 0.31578949999999395
                },
                {
                    "name": "E4",
                    "midi": 64,
                    "time": 300.3158144999973,
                    "velocity": 0.3228346456692913,
                    "duration": 0.31578949999999395
                },
                {
                    "name": "D4",
                    "midi": 62,
                    "time": 300.6316039999973,
                    "velocity": 0.3228346456692913,
                    "duration": 0.31578949999999395
                },
                {
                    "name": "C4",
                    "midi": 60,
                    "time": 300.9473934999973,
                    "velocity": 0.3228346456692913,
                    "duration": 0.31578949999999395
                },
                {
                    "name": "G3",
                    "midi": 55,
                    "time": 301.2631829999973,
                    "velocity": 0.3228346456692913,
                    "duration": 1.5789474999999698
                },
                {
                    "name": "B3",
                    "midi": 59,
                    "time": 301.2631829999973,
                    "velocity": 0.3228346456692913,
                    "duration": 0.31578949999999395
                },
                {
                    "name": "A3",
                    "midi": 57,
                    "time": 301.5789724999973,
                    "velocity": 0.30708661417322836,
                    "duration": 0.31578949999999395
                },
                {
                    "name": "C4",
                    "midi": 60,
                    "time": 301.8947619999973,
                    "velocity": 0.30708661417322836,
                    "duration": 0.31578949999999395
                },
                {
                    "name": "B3",
                    "midi": 59,
                    "time": 302.2105514999973,
                    "velocity": 0.28346456692913385,
                    "duration": 0.31578949999999395
                },
                {
                    "name": "G4",
                    "midi": 67,
                    "time": 302.5263409999973,
                    "velocity": 0.2755905511811024,
                    "duration": 0.9473684999999819
                },
                {
                    "name": "A3",
                    "midi": 57,
                    "time": 302.84213049999727,
                    "velocity": 0.25196850393700787,
                    "duration": 0.31578949999999395
                },
                {
                    "name": "D4",
                    "midi": 62,
                    "time": 303.15791999999726,
                    "velocity": 0.2677165354330709,
                    "duration": 1.2631579999999758
                },
                {
                    "name": "F#4",
                    "midi": 66,
                    "time": 303.47370949999726,
                    "velocity": 0.25196850393700787,
                    "duration": 0.31578949999999395
                },
                {
                    "name": "F#4",
                    "midi": 66,
                    "time": 303.78949899999725,
                    "velocity": 0.25196850393700787,
                    "duration": 0.31578949999999395
                },
                {
                    "name": "F#4",
                    "midi": 66,
                    "time": 304.10528849999724,
                    "velocity": 0.2283464566929134,
                    "duration": 0.31578949999999395
                },
                {
                    "name": "B4",
                    "midi": 71,
                    "time": 304.73686749999723,
                    "velocity": 0.28346456692913385,
                    "duration": 0.31578949999999395
                },
                {
                    "name": "D5",
                    "midi": 74,
                    "time": 304.73686749999723,
                    "velocity": 0.28346456692913385,
                    "duration": 0.31578949999999395
                },
                {
                    "name": "B4",
                    "midi": 71,
                    "time": 305.0526569999972,
                    "velocity": 0.30708661417322836,
                    "duration": 0.6315789999999879
                },
                {
                    "name": "D5",
                    "midi": 74,
                    "time": 305.0526569999972,
                    "velocity": 0.30708661417322836,
                    "duration": 0.6315789999999879
                },
                {
                    "name": "C5",
                    "midi": 72,
                    "time": 305.6842359999972,
                    "velocity": 0.28346456692913385,
                    "duration": 0.31578949999999395
                },
                {
                    "name": "E5",
                    "midi": 76,
                    "time": 305.6842359999972,
                    "velocity": 0.28346456692913385,
                    "duration": 0.31578949999999395
                },
                {
                    "name": "B4",
                    "midi": 71,
                    "time": 306.0000254999972,
                    "velocity": 0.31496062992125984,
                    "duration": 0.31578949999999395
                },
                {
                    "name": "D5",
                    "midi": 74,
                    "time": 306.0000254999972,
                    "velocity": 0.31496062992125984,
                    "duration": 0.31578949999999395
                },
                {
                    "name": "A4",
                    "midi": 69,
                    "time": 306.3158149999972,
                    "velocity": 0.28346456692913385,
                    "duration": 0.31578949999999395
                },
                {
                    "name": "C5",
                    "midi": 72,
                    "time": 306.3158149999972,
                    "velocity": 0.28346456692913385,
                    "duration": 0.31578949999999395
                },
                {
                    "name": "G4",
                    "midi": 67,
                    "time": 306.6316044999972,
                    "velocity": 0.28346456692913385,
                    "duration": 0.31578949999999395
                },
                {
                    "name": "B4",
                    "midi": 71,
                    "time": 306.6316044999972,
                    "velocity": 0.28346456692913385,
                    "duration": 0.31578949999999395
                },
                {
                    "name": "F#4",
                    "midi": 66,
                    "time": 306.9473939999972,
                    "velocity": 0.3228346456692913,
                    "duration": 0.6315789999999879
                },
                {
                    "name": "A4",
                    "midi": 69,
                    "time": 306.9473939999972,
                    "velocity": 0.3228346456692913,
                    "duration": 0.6315789999999879
                },
                {
                    "name": "F#4",
                    "midi": 66,
                    "time": 307.5789729999972,
                    "velocity": 0.28346456692913385,
                    "duration": 0.31578949999999395
                },
                {
                    "name": "A4",
                    "midi": 69,
                    "time": 307.5789729999972,
                    "velocity": 0.28346456692913385,
                    "duration": 0.31578949999999395
                },
                {
                    "name": "F#4",
                    "midi": 66,
                    "time": 307.89476249999717,
                    "velocity": 0.3543307086614173,
                    "duration": 0.6315789999999879
                },
                {
                    "name": "A4",
                    "midi": 69,
                    "time": 307.89476249999717,
                    "velocity": 0.3543307086614173,
                    "duration": 0.6315789999999879
                },
                {
                    "name": "F#4",
                    "midi": 66,
                    "time": 308.52634149999716,
                    "velocity": 0.33858267716535434,
                    "duration": 0.31578949999999395
                },
                {
                    "name": "A4",
                    "midi": 69,
                    "time": 308.52634149999716,
                    "velocity": 0.33858267716535434,
                    "duration": 0.31578949999999395
                },
                {
                    "name": "G4",
                    "midi": 67,
                    "time": 308.84213099999715,
                    "velocity": 0.3858267716535433,
                    "duration": 0.9473684999999819
                },
                {
                    "name": "B4",
                    "midi": 71,
                    "time": 308.84213099999715,
                    "velocity": 0.3858267716535433,
                    "duration": 0.9473684999999819
                },
                {
                    "name": "A3",
                    "midi": 57,
                    "time": 309.78949949999713,
                    "velocity": 0.3464566929133858,
                    "duration": 0.9473684999999819
                },
                {
                    "name": "E4",
                    "midi": 64,
                    "time": 309.78949949999713,
                    "velocity": 0.3464566929133858,
                    "duration": 0.9473684999999819
                },
                {
                    "name": "G4",
                    "midi": 67,
                    "time": 309.78949949999713,
                    "velocity": 0.3464566929133858,
                    "duration": 0.9473684999999819
                },
                {
                    "name": "F#3",
                    "midi": 54,
                    "time": 311.0526574999971,
                    "velocity": 0.36220472440944884,
                    "duration": 0.31578949999999395
                },
                {
                    "name": "D3",
                    "midi": 50,
                    "time": 311.0526574999971,
                    "velocity": 0.36220472440944884,
                    "duration": 0.31578949999999395
                },
                {
                    "name": "G3",
                    "midi": 55,
                    "time": 311.3684469999971,
                    "velocity": 0.3700787401574803,
                    "duration": 0.1578947500000254
                },
                {
                    "name": "E3",
                    "midi": 52,
                    "time": 311.3684469999971,
                    "velocity": 0.3700787401574803,
                    "duration": 0.1578947500000254
                },
                {
                    "name": "A3",
                    "midi": 57,
                    "time": 312.00002599999715,
                    "velocity": 0.3543307086614173,
                    "duration": 0.31578949999999395
                },
                {
                    "name": "F#3",
                    "midi": 54,
                    "time": 312.00002599999715,
                    "velocity": 0.3543307086614173,
                    "duration": 0.31578949999999395
                },
                {
                    "name": "G3",
                    "midi": 55,
                    "time": 312.31581549999714,
                    "velocity": 0.36220472440944884,
                    "duration": 0.1578947500000254
                },
                {
                    "name": "B3",
                    "midi": 59,
                    "time": 312.31581549999714,
                    "velocity": 0.36220472440944884,
                    "duration": 0.1578947500000254
                },
                {
                    "name": "A3",
                    "midi": 57,
                    "time": 312.9473944999972,
                    "velocity": 0.36220472440944884,
                    "duration": 0.31578949999999395
                },
                {
                    "name": "C4",
                    "midi": 60,
                    "time": 312.9473944999972,
                    "velocity": 0.36220472440944884,
                    "duration": 0.31578949999999395
                },
                {
                    "name": "G3",
                    "midi": 55,
                    "time": 313.2631839999972,
                    "velocity": 0.3700787401574803,
                    "duration": 0.1578947500000254
                },
                {
                    "name": "B3",
                    "midi": 59,
                    "time": 313.2631839999972,
                    "velocity": 0.3700787401574803,
                    "duration": 0.1578947500000254
                },
                {
                    "name": "F#3",
                    "midi": 54,
                    "time": 313.8947629999972,
                    "velocity": 0.3464566929133858,
                    "duration": 0.31578949999999395
                },
                {
                    "name": "A3",
                    "midi": 57,
                    "time": 313.8947629999972,
                    "velocity": 0.3464566929133858,
                    "duration": 0.31578949999999395
                },
                {
                    "name": "G3",
                    "midi": 55,
                    "time": 314.2105524999972,
                    "velocity": 0.3464566929133858,
                    "duration": 0.1578947500000254
                },
                {
                    "name": "E3",
                    "midi": 52,
                    "time": 314.2105524999972,
                    "velocity": 0.3464566929133858,
                    "duration": 0.1578947500000254
                },
                {
                    "name": "D3",
                    "midi": 50,
                    "time": 314.52634199999727,
                    "velocity": 0.3464566929133858,
                    "duration": 0.31578949999999395
                },
                {
                    "name": "F#3",
                    "midi": 54,
                    "time": 314.52634199999727,
                    "velocity": 0.3464566929133858,
                    "duration": 0.31578949999999395
                },
                {
                    "name": "F#4",
                    "midi": 66,
                    "time": 314.84213149999727,
                    "velocity": 0.33858267716535434,
                    "duration": 0.31578949999999395
                },
                {
                    "name": "D4",
                    "midi": 62,
                    "time": 314.84213149999727,
                    "velocity": 0.33858267716535434,
                    "duration": 0.31578949999999395
                },
                {
                    "name": "G4",
                    "midi": 67,
                    "time": 315.15792099999726,
                    "velocity": 0.3228346456692913,
                    "duration": 0.31578949999999395
                },
                {
                    "name": "E4",
                    "midi": 64,
                    "time": 315.15792099999726,
                    "velocity": 0.3228346456692913,
                    "duration": 0.31578949999999395
                },
                {
                    "name": "A4",
                    "midi": 69,
                    "time": 315.78949999999725,
                    "velocity": 0.33070866141732286,
                    "duration": 0.31578949999999395
                },
                {
                    "name": "F#4",
                    "midi": 66,
                    "time": 315.78949999999725,
                    "velocity": 0.33070866141732286,
                    "duration": 0.31578949999999395
                },
                {
                    "name": "G4",
                    "midi": 67,
                    "time": 316.10528949999724,
                    "velocity": 0.3228346456692913,
                    "duration": 0.31578949999999395
                },
                {
                    "name": "A#4",
                    "midi": 70,
                    "time": 316.10528949999724,
                    "velocity": 0.3228346456692913,
                    "duration": 0.31578949999999395
                },
                {
                    "name": "C5",
                    "midi": 72,
                    "time": 316.73686849999723,
                    "velocity": 0.31496062992125984,
                    "duration": 0.31578949999999395
                },
                {
                    "name": "A4",
                    "midi": 69,
                    "time": 316.73686849999723,
                    "velocity": 0.31496062992125984,
                    "duration": 0.31578949999999395
                },
                {
                    "name": "A#4",
                    "midi": 70,
                    "time": 317.0526579999972,
                    "velocity": 0.28346456692913385,
                    "duration": 0.31578949999999395
                },
                {
                    "name": "G4",
                    "midi": 67,
                    "time": 317.0526579999972,
                    "velocity": 0.28346456692913385,
                    "duration": 0.31578949999999395
                },
                {
                    "name": "A4",
                    "midi": 69,
                    "time": 317.6842369999972,
                    "velocity": 0.29133858267716534,
                    "duration": 0.31578949999999395
                },
                {
                    "name": "F#4",
                    "midi": 66,
                    "time": 317.6842369999972,
                    "velocity": 0.29133858267716534,
                    "duration": 0.31578949999999395
                },
                {
                    "name": "E4",
                    "midi": 64,
                    "time": 318.0000264999972,
                    "velocity": 0.28346456692913385,
                    "duration": 0.31578949999999395
                },
                {
                    "name": "G4",
                    "midi": 67,
                    "time": 318.0000264999972,
                    "velocity": 0.28346456692913385,
                    "duration": 0.31578949999999395
                },
                {
                    "name": "D4",
                    "midi": 62,
                    "time": 318.3158159999972,
                    "velocity": 0.29133858267716534,
                    "duration": 0.6315789999999879
                },
                {
                    "name": "F#4",
                    "midi": 66,
                    "time": 318.3158159999972,
                    "velocity": 0.29133858267716534,
                    "duration": 0.6315789999999879
                },
                {
                    "name": "A5",
                    "midi": 81,
                    "time": 321.1579214999972,
                    "velocity": 0.25984251968503935,
                    "duration": 0.23684212500000967
                },
                {
                    "name": "A5",
                    "midi": 81,
                    "time": 321.4737109999972,
                    "velocity": 0.2440944881889764,
                    "duration": 0.23684212500000967
                },
                {
                    "name": "A5",
                    "midi": 81,
                    "time": 321.7895004999972,
                    "velocity": 0.2440944881889764,
                    "duration": 0.23684212500000967
                },
                {
                    "name": "F#5",
                    "midi": 78,
                    "time": 322.1052899999972,
                    "velocity": 0.2047244094488189,
                    "duration": 0.31578949999999395
                },
                {
                    "name": "A5",
                    "midi": 81,
                    "time": 322.1052899999972,
                    "velocity": 0.2047244094488189,
                    "duration": 0.31578949999999395
                },
                {
                    "name": "F#5",
                    "midi": 78,
                    "time": 322.4210794999972,
                    "velocity": 0.1968503937007874,
                    "duration": 0.31578949999999395
                },
                {
                    "name": "A5",
                    "midi": 81,
                    "time": 322.4210794999972,
                    "velocity": 0.1968503937007874,
                    "duration": 0.31578949999999395
                },
                {
                    "name": "F#5",
                    "midi": 78,
                    "time": 322.73686899999717,
                    "velocity": 0.18110236220472442,
                    "duration": 0.31578949999999395
                },
                {
                    "name": "A5",
                    "midi": 81,
                    "time": 322.73686899999717,
                    "velocity": 0.18110236220472442,
                    "duration": 0.31578949999999395
                },
                {
                    "name": "F#5",
                    "midi": 78,
                    "time": 323.05265849999716,
                    "velocity": 0.16535433070866143,
                    "duration": 0.9473684999999819
                },
                {
                    "name": "A5",
                    "midi": 81,
                    "time": 323.05265849999716,
                    "velocity": 0.16535433070866143,
                    "duration": 0.9473684999999819
                },
                {
                    "name": "F#4",
                    "midi": 66,
                    "time": 324.63160599999713,
                    "velocity": 0.16535433070866143,
                    "duration": 0.31578949999999395
                },
                {
                    "name": "A4",
                    "midi": 69,
                    "time": 324.63160599999713,
                    "velocity": 0.16535433070866143,
                    "duration": 0.31578949999999395
                },
                {
                    "name": "F#4",
                    "midi": 66,
                    "time": 324.9473954999971,
                    "velocity": 0.16535433070866143,
                    "duration": 0.6315789999999879
                },
                {
                    "name": "A4",
                    "midi": 69,
                    "time": 324.9473954999971,
                    "velocity": 0.16535433070866143,
                    "duration": 0.6315789999999879
                },
                {
                    "name": "G3",
                    "midi": 55,
                    "time": 325.5789744999971,
                    "velocity": 0.2992125984251969,
                    "duration": 0.31578949999999395
                },
                {
                    "name": "B3",
                    "midi": 59,
                    "time": 325.5789744999971,
                    "velocity": 0.2992125984251969,
                    "duration": 0.31578949999999395
                },
                {
                    "name": "G3",
                    "midi": 55,
                    "time": 325.8947639999971,
                    "velocity": 0.31496062992125984,
                    "duration": 0.6315789999999879
                },
                {
                    "name": "B3",
                    "midi": 59,
                    "time": 325.8947639999971,
                    "velocity": 0.31496062992125984,
                    "duration": 0.6315789999999879
                },
                {
                    "name": "G3",
                    "midi": 55,
                    "time": 326.5263429999971,
                    "velocity": 0.2992125984251969,
                    "duration": 0.31578949999999395
                },
                {
                    "name": "C4",
                    "midi": 60,
                    "time": 326.5263429999971,
                    "velocity": 0.2992125984251969,
                    "duration": 0.31578949999999395
                },
                {
                    "name": "G3",
                    "midi": 55,
                    "time": 326.8421324999971,
                    "velocity": 0.31496062992125984,
                    "duration": 0.6315789999999879
                },
                {
                    "name": "C4",
                    "midi": 60,
                    "time": 326.8421324999971,
                    "velocity": 0.31496062992125984,
                    "duration": 0.6315789999999879
                },
                {
                    "name": "G3",
                    "midi": 55,
                    "time": 327.4737114999971,
                    "velocity": 0.2992125984251969,
                    "duration": 0.31578949999999395
                },
                {
                    "name": "C4",
                    "midi": 60,
                    "time": 327.4737114999971,
                    "velocity": 0.2992125984251969,
                    "duration": 0.31578949999999395
                },
                {
                    "name": "G3",
                    "midi": 55,
                    "time": 327.7895009999971,
                    "velocity": 0.29133858267716534,
                    "duration": 0.11842106249997641
                },
                {
                    "name": "B3",
                    "midi": 59,
                    "time": 327.7895009999971,
                    "velocity": 0.29133858267716534,
                    "duration": 0.11842106249997641
                },
                {
                    "name": "G3",
                    "midi": 55,
                    "time": 328.10529049999707,
                    "velocity": 0.28346456692913385,
                    "duration": 0.11842106249997641
                },
                {
                    "name": "B3",
                    "midi": 59,
                    "time": 328.10529049999707,
                    "velocity": 0.28346456692913385,
                    "duration": 0.11842106249997641
                },
                {
                    "name": "G3",
                    "midi": 55,
                    "time": 328.42107999999706,
                    "velocity": 0.28346456692913385,
                    "duration": 0.11842106249997641
                },
                {
                    "name": "B3",
                    "midi": 59,
                    "time": 328.42107999999706,
                    "velocity": 0.28346456692913385,
                    "duration": 0.11842106249997641
                },
                {
                    "name": "G3",
                    "midi": 55,
                    "time": 328.73686949999706,
                    "velocity": 0.28346456692913385,
                    "duration": 0.6315789999999879
                },
                {
                    "name": "B3",
                    "midi": 59,
                    "time": 328.73686949999706,
                    "velocity": 0.28346456692913385,
                    "duration": 0.6315789999999879
                },
                {
                    "name": "D3",
                    "midi": 50,
                    "time": 329.36844849999704,
                    "velocity": 0.4094488188976378,
                    "duration": 0.31578949999999395
                },
                {
                    "name": "G3",
                    "midi": 55,
                    "time": 329.68423799999704,
                    "velocity": 0.4330708661417323,
                    "duration": 0.31578949999999395
                },
                {
                    "name": "B3",
                    "midi": 59,
                    "time": 329.68423799999704,
                    "velocity": 0.4330708661417323,
                    "duration": 0.31578949999999395
                },
                {
                    "name": "G2",
                    "midi": 43,
                    "time": 330.2237117291637,
                    "velocity": 0.31496062992125984,
                    "duration": 0.31578949999999395
                },
                {
                    "name": "B2",
                    "midi": 47,
                    "time": 330.23686962499704,
                    "velocity": 0.33858267716535434,
                    "duration": 0.30263160416666324
                },
                {
                    "name": "D3",
                    "midi": 50,
                    "time": 330.2500275208304,
                    "velocity": 0.3543307086614173,
                    "duration": 0.2894737083333325
                },
                {
                    "name": "G3",
                    "midi": 55,
                    "time": 330.2631854166637,
                    "velocity": 0.3858267716535433,
                    "duration": 0.2763158125000018
                },
                {
                    "name": "A2",
                    "midi": 45,
                    "time": 330.5395012291637,
                    "velocity": 0.3228346456692913,
                    "duration": 0.7236842708333029
                },
                {
                    "name": "C3",
                    "midi": 48,
                    "time": 330.55265912499704,
                    "velocity": 0.3464566929133858,
                    "duration": 0.7105263749999722
                },
                {
                    "name": "F#3",
                    "midi": 54,
                    "time": 330.56581702083037,
                    "velocity": 0.3543307086614173,
                    "duration": 0.6973684791666415
                },
                {
                    "name": "A3",
                    "midi": 57,
                    "time": 330.5789749166637,
                    "velocity": 0.3858267716535433,
                    "duration": 0.6842105833333108
                },
                {
                    "name": "B2",
                    "midi": 47,
                    "time": 331.263185499997,
                    "velocity": 0.3779527559055118,
                    "duration": 0.31578949999999395
                },
                {
                    "name": "D3",
                    "midi": 50,
                    "time": 331.263185499997,
                    "velocity": 0.3779527559055118,
                    "duration": 0.31578949999999395
                },
                {
                    "name": "G3",
                    "midi": 55,
                    "time": 331.263185499997,
                    "velocity": 0.3779527559055118,
                    "duration": 0.31578949999999395
                },
                {
                    "name": "D4",
                    "midi": 62,
                    "time": 331.578974999997,
                    "velocity": 0.4251968503937008,
                    "duration": 0.07894737499998428
                },
                {
                    "name": "E4",
                    "midi": 64,
                    "time": 331.657922374997,
                    "velocity": 0.4251968503937008,
                    "duration": 0.07894737499998428
                },
                {
                    "name": "F#4",
                    "midi": 66,
                    "time": 331.73686974999697,
                    "velocity": 0.4251968503937008,
                    "duration": 0.07894737499998428
                },
                {
                    "name": "G4",
                    "midi": 67,
                    "time": 331.81581712499695,
                    "velocity": 0.4251968503937008,
                    "duration": 0.07894737499998428
                },
                {
                    "name": "D2",
                    "midi": 38,
                    "time": 332.5263434999969,
                    "velocity": 0.3543307086614173,
                    "duration": 0.6315789999999879
                },
                {
                    "name": "F#2",
                    "midi": 42,
                    "time": 332.5263434999969,
                    "velocity": 0.3543307086614173,
                    "duration": 0.6315789999999879
                },
                {
                    "name": "A2",
                    "midi": 45,
                    "time": 332.5263434999969,
                    "velocity": 0.3543307086614173,
                    "duration": 0.6315789999999879
                },
                {
                    "name": "D3",
                    "midi": 50,
                    "time": 332.5263434999969,
                    "velocity": 0.41732283464566927,
                    "duration": 0.6315789999999879
                },
                {
                    "name": "E4",
                    "midi": 64,
                    "time": 333.1579224999969,
                    "velocity": 0.2047244094488189,
                    "duration": 0.31578949999999395
                },
                {
                    "name": "C4",
                    "midi": 60,
                    "time": 333.4737119999969,
                    "velocity": 0.2125984251968504,
                    "duration": 0.31578949999999395
                },
                {
                    "name": "B3",
                    "midi": 59,
                    "time": 333.7895014999969,
                    "velocity": 0.2125984251968504,
                    "duration": 0.31578949999999395
                },
                {
                    "name": "A3",
                    "midi": 57,
                    "time": 334.1052909999969,
                    "velocity": 0.2125984251968504,
                    "duration": 0.1578947500000254
                },
                {
                    "name": "A3",
                    "midi": 57,
                    "time": 334.42108049999695,
                    "velocity": 0.1968503937007874,
                    "duration": 0.31578949999999395
                },
                {
                    "name": "D4",
                    "midi": 62,
                    "time": 335.05265949999693,
                    "velocity": 0.2204724409448819,
                    "duration": 0.31578949999999395
                },
                {
                    "name": "B3",
                    "midi": 59,
                    "time": 335.36844899999693,
                    "velocity": 0.2283464566929134,
                    "duration": 0.31578949999999395
                },
                {
                    "name": "A3",
                    "midi": 57,
                    "time": 335.6842384999969,
                    "velocity": 0.2283464566929134,
                    "duration": 0.31578949999999395
                },
                {
                    "name": "G3",
                    "midi": 55,
                    "time": 336.0000279999969,
                    "velocity": 0.2047244094488189,
                    "duration": 0.1578947500000254
                },
                {
                    "name": "G3",
                    "midi": 55,
                    "time": 336.31581749999697,
                    "velocity": 0.2047244094488189,
                    "duration": 0.31578949999999395
                },
                {
                    "name": "E3",
                    "midi": 52,
                    "time": 336.94739649999696,
                    "velocity": 0.2440944881889764,
                    "duration": 0.31578949999999395
                },
                {
                    "name": "C3",
                    "midi": 48,
                    "time": 337.26318599999695,
                    "velocity": 0.2440944881889764,
                    "duration": 0.1578947500000254
                },
                {
                    "name": "D3",
                    "midi": 50,
                    "time": 338.210554499997,
                    "velocity": 0.2125984251968504,
                    "duration": 0.1578947500000254
                },
                {
                    "name": "G3",
                    "midi": 55,
                    "time": 339.157922999997,
                    "velocity": 0.28346456692913385,
                    "duration": 0.1578947500000254
                },
                {
                    "name": "D3",
                    "midi": 50,
                    "time": 339.4737124999971,
                    "velocity": 0.25984251968503935,
                    "duration": 0.1578947500000254
                },
                {
                    "name": "B2",
                    "midi": 47,
                    "time": 339.7895019999971,
                    "velocity": 0.25984251968503935,
                    "duration": 0.1578947500000254
                },
                {
                    "name": "G2",
                    "midi": 43,
                    "time": 340.02634412499714,
                    "velocity": 0.30708661417322836,
                    "duration": 0.3947368749999782
                },
                {
                    "name": "B2",
                    "midi": 47,
                    "time": 340.03950202083047,
                    "velocity": 0.33070866141732286,
                    "duration": 0.3815789791666475
                },
                {
                    "name": "D3",
                    "midi": 50,
                    "time": 340.0526599166638,
                    "velocity": 0.3543307086614173,
                    "duration": 0.2631579166666711
                },
                {
                    "name": "G3",
                    "midi": 55,
                    "time": 340.06581781249713,
                    "velocity": 0.3700787401574803,
                    "duration": 0.3552631874999861
                },
                {
                    "name": "B4",
                    "midi": 71,
                    "time": 340.7368704999971,
                    "velocity": 0.28346456692913385,
                    "duration": 0.31578949999999395
                },
                {
                    "name": "D5",
                    "midi": 74,
                    "time": 340.7368704999971,
                    "velocity": 0.28346456692913385,
                    "duration": 0.31578949999999395
                },
                {
                    "name": "B4",
                    "midi": 71,
                    "time": 341.0526599999971,
                    "velocity": 0.30708661417322836,
                    "duration": 0.6315789999999879
                },
                {
                    "name": "D5",
                    "midi": 74,
                    "time": 341.0526599999971,
                    "velocity": 0.30708661417322836,
                    "duration": 0.6315789999999879
                },
                {
                    "name": "C5",
                    "midi": 72,
                    "time": 341.6842389999971,
                    "velocity": 0.28346456692913385,
                    "duration": 0.31578949999999395
                },
                {
                    "name": "E5",
                    "midi": 76,
                    "time": 341.6842389999971,
                    "velocity": 0.28346456692913385,
                    "duration": 0.31578949999999395
                },
                {
                    "name": "B4",
                    "midi": 71,
                    "time": 342.0000284999971,
                    "velocity": 0.31496062992125984,
                    "duration": 0.31578949999999395
                },
                {
                    "name": "D5",
                    "midi": 74,
                    "time": 342.0000284999971,
                    "velocity": 0.31496062992125984,
                    "duration": 0.31578949999999395
                },
                {
                    "name": "A4",
                    "midi": 69,
                    "time": 342.3158179999971,
                    "velocity": 0.28346456692913385,
                    "duration": 0.31578949999999395
                },
                {
                    "name": "C5",
                    "midi": 72,
                    "time": 342.3158179999971,
                    "velocity": 0.28346456692913385,
                    "duration": 0.31578949999999395
                },
                {
                    "name": "G4",
                    "midi": 67,
                    "time": 342.6316074999971,
                    "velocity": 0.28346456692913385,
                    "duration": 0.31578949999999395
                },
                {
                    "name": "B4",
                    "midi": 71,
                    "time": 342.6316074999971,
                    "velocity": 0.28346456692913385,
                    "duration": 0.31578949999999395
                },
                {
                    "name": "F#4",
                    "midi": 66,
                    "time": 342.94739699999707,
                    "velocity": 0.3228346456692913,
                    "duration": 0.6315789999999879
                },
                {
                    "name": "A4",
                    "midi": 69,
                    "time": 342.94739699999707,
                    "velocity": 0.3228346456692913,
                    "duration": 0.6315789999999879
                },
                {
                    "name": "F#4",
                    "midi": 66,
                    "time": 343.57897599999706,
                    "velocity": 0.28346456692913385,
                    "duration": 0.31578949999999395
                },
                {
                    "name": "A4",
                    "midi": 69,
                    "time": 343.57897599999706,
                    "velocity": 0.28346456692913385,
                    "duration": 0.31578949999999395
                },
                {
                    "name": "F#4",
                    "midi": 66,
                    "time": 343.89476549999705,
                    "velocity": 0.3543307086614173,
                    "duration": 0.6315789999999879
                },
                {
                    "name": "A4",
                    "midi": 69,
                    "time": 343.89476549999705,
                    "velocity": 0.3543307086614173,
                    "duration": 0.6315789999999879
                },
                {
                    "name": "F#4",
                    "midi": 66,
                    "time": 344.52634449999704,
                    "velocity": 0.33858267716535434,
                    "duration": 0.31578949999999395
                },
                {
                    "name": "A4",
                    "midi": 69,
                    "time": 344.52634449999704,
                    "velocity": 0.33858267716535434,
                    "duration": 0.31578949999999395
                },
                {
                    "name": "G4",
                    "midi": 67,
                    "time": 344.84213399999703,
                    "velocity": 0.3858267716535433,
                    "duration": 0.9473684999999819
                },
                {
                    "name": "B4",
                    "midi": 71,
                    "time": 344.84213399999703,
                    "velocity": 0.3858267716535433,
                    "duration": 0.9473684999999819
                },
                {
                    "name": "A3",
                    "midi": 57,
                    "time": 345.789502499997,
                    "velocity": 0.3464566929133858,
                    "duration": 0.9473684999999819
                },
                {
                    "name": "E4",
                    "midi": 64,
                    "time": 345.789502499997,
                    "velocity": 0.3464566929133858,
                    "duration": 0.9473684999999819
                },
                {
                    "name": "G4",
                    "midi": 67,
                    "time": 345.789502499997,
                    "velocity": 0.3464566929133858,
                    "duration": 0.9473684999999819
                },
                {
                    "name": "F#3",
                    "midi": 54,
                    "time": 347.052660499997,
                    "velocity": 0.36220472440944884,
                    "duration": 0.31578949999999395
                },
                {
                    "name": "D3",
                    "midi": 50,
                    "time": 347.052660499997,
                    "velocity": 0.36220472440944884,
                    "duration": 0.31578949999999395
                },
                {
                    "name": "G3",
                    "midi": 55,
                    "time": 347.368449999997,
                    "velocity": 0.3700787401574803,
                    "duration": 0.1578947500000254
                },
                {
                    "name": "E3",
                    "midi": 52,
                    "time": 347.368449999997,
                    "velocity": 0.3700787401574803,
                    "duration": 0.1578947500000254
                },
                {
                    "name": "A3",
                    "midi": 57,
                    "time": 348.000028999997,
                    "velocity": 0.3543307086614173,
                    "duration": 0.31578949999999395
                },
                {
                    "name": "F#3",
                    "midi": 54,
                    "time": 348.000028999997,
                    "velocity": 0.3543307086614173,
                    "duration": 0.31578949999999395
                },
                {
                    "name": "G3",
                    "midi": 55,
                    "time": 348.315818499997,
                    "velocity": 0.36220472440944884,
                    "duration": 0.1578947500000254
                },
                {
                    "name": "B3",
                    "midi": 59,
                    "time": 348.315818499997,
                    "velocity": 0.36220472440944884,
                    "duration": 0.1578947500000254
                },
                {
                    "name": "A3",
                    "midi": 57,
                    "time": 348.94739749999707,
                    "velocity": 0.36220472440944884,
                    "duration": 0.31578949999999395
                },
                {
                    "name": "C4",
                    "midi": 60,
                    "time": 348.94739749999707,
                    "velocity": 0.36220472440944884,
                    "duration": 0.31578949999999395
                },
                {
                    "name": "G3",
                    "midi": 55,
                    "time": 349.26318699999706,
                    "velocity": 0.3700787401574803,
                    "duration": 0.1578947500000254
                },
                {
                    "name": "B3",
                    "midi": 59,
                    "time": 349.26318699999706,
                    "velocity": 0.3700787401574803,
                    "duration": 0.1578947500000254
                },
                {
                    "name": "F#3",
                    "midi": 54,
                    "time": 349.8947659999971,
                    "velocity": 0.3464566929133858,
                    "duration": 0.31578949999999395
                },
                {
                    "name": "A3",
                    "midi": 57,
                    "time": 349.8947659999971,
                    "velocity": 0.3464566929133858,
                    "duration": 0.31578949999999395
                },
                {
                    "name": "G3",
                    "midi": 55,
                    "time": 350.2105554999971,
                    "velocity": 0.3464566929133858,
                    "duration": 0.1578947500000254
                },
                {
                    "name": "E3",
                    "midi": 52,
                    "time": 350.2105554999971,
                    "velocity": 0.3464566929133858,
                    "duration": 0.1578947500000254
                },
                {
                    "name": "D3",
                    "midi": 50,
                    "time": 350.52634499999715,
                    "velocity": 0.3464566929133858,
                    "duration": 0.31578949999999395
                },
                {
                    "name": "F#3",
                    "midi": 54,
                    "time": 350.52634499999715,
                    "velocity": 0.3464566929133858,
                    "duration": 0.31578949999999395
                },
                {
                    "name": "F#4",
                    "midi": 66,
                    "time": 350.84213449999714,
                    "velocity": 0.33858267716535434,
                    "duration": 0.31578949999999395
                },
                {
                    "name": "D4",
                    "midi": 62,
                    "time": 350.84213449999714,
                    "velocity": 0.33858267716535434,
                    "duration": 0.31578949999999395
                },
                {
                    "name": "G4",
                    "midi": 67,
                    "time": 351.15792399999714,
                    "velocity": 0.3228346456692913,
                    "duration": 0.31578949999999395
                },
                {
                    "name": "E4",
                    "midi": 64,
                    "time": 351.15792399999714,
                    "velocity": 0.3228346456692913,
                    "duration": 0.31578949999999395
                },
                {
                    "name": "A4",
                    "midi": 69,
                    "time": 351.7895029999971,
                    "velocity": 0.33070866141732286,
                    "duration": 0.31578949999999395
                },
                {
                    "name": "F#4",
                    "midi": 66,
                    "time": 351.7895029999971,
                    "velocity": 0.33070866141732286,
                    "duration": 0.31578949999999395
                },
                {
                    "name": "G4",
                    "midi": 67,
                    "time": 352.1052924999971,
                    "velocity": 0.3228346456692913,
                    "duration": 0.31578949999999395
                },
                {
                    "name": "A#4",
                    "midi": 70,
                    "time": 352.1052924999971,
                    "velocity": 0.3228346456692913,
                    "duration": 0.31578949999999395
                },
                {
                    "name": "C5",
                    "midi": 72,
                    "time": 352.7368714999971,
                    "velocity": 0.31496062992125984,
                    "duration": 0.31578949999999395
                },
                {
                    "name": "A4",
                    "midi": 69,
                    "time": 352.7368714999971,
                    "velocity": 0.31496062992125984,
                    "duration": 0.31578949999999395
                },
                {
                    "name": "A#4",
                    "midi": 70,
                    "time": 353.0526609999971,
                    "velocity": 0.28346456692913385,
                    "duration": 0.31578949999999395
                },
                {
                    "name": "G4",
                    "midi": 67,
                    "time": 353.0526609999971,
                    "velocity": 0.28346456692913385,
                    "duration": 0.31578949999999395
                },
                {
                    "name": "A4",
                    "midi": 69,
                    "time": 353.6842399999971,
                    "velocity": 0.29133858267716534,
                    "duration": 0.31578949999999395
                },
                {
                    "name": "F#4",
                    "midi": 66,
                    "time": 353.6842399999971,
                    "velocity": 0.29133858267716534,
                    "duration": 0.31578949999999395
                },
                {
                    "name": "E4",
                    "midi": 64,
                    "time": 354.0000294999971,
                    "velocity": 0.28346456692913385,
                    "duration": 0.31578949999999395
                },
                {
                    "name": "G4",
                    "midi": 67,
                    "time": 354.0000294999971,
                    "velocity": 0.28346456692913385,
                    "duration": 0.31578949999999395
                },
                {
                    "name": "D4",
                    "midi": 62,
                    "time": 354.3158189999971,
                    "velocity": 0.29133858267716534,
                    "duration": 0.6315789999999879
                },
                {
                    "name": "F#4",
                    "midi": 66,
                    "time": 354.3158189999971,
                    "velocity": 0.29133858267716534,
                    "duration": 0.6315789999999879
                },
                {
                    "name": "A5",
                    "midi": 81,
                    "time": 357.1579244999971,
                    "velocity": 0.25984251968503935,
                    "duration": 0.23684212500000967
                },
                {
                    "name": "A5",
                    "midi": 81,
                    "time": 357.4737139999971,
                    "velocity": 0.2440944881889764,
                    "duration": 0.23684212500000967
                },
                {
                    "name": "A5",
                    "midi": 81,
                    "time": 357.78950349999707,
                    "velocity": 0.2440944881889764,
                    "duration": 0.23684212500000967
                },
                {
                    "name": "F#5",
                    "midi": 78,
                    "time": 358.10529299999706,
                    "velocity": 0.2047244094488189,
                    "duration": 0.31578949999999395
                },
                {
                    "name": "A5",
                    "midi": 81,
                    "time": 358.10529299999706,
                    "velocity": 0.2047244094488189,
                    "duration": 0.31578949999999395
                },
                {
                    "name": "F#5",
                    "midi": 78,
                    "time": 358.42108249999706,
                    "velocity": 0.1968503937007874,
                    "duration": 0.31578949999999395
                },
                {
                    "name": "A5",
                    "midi": 81,
                    "time": 358.42108249999706,
                    "velocity": 0.1968503937007874,
                    "duration": 0.31578949999999395
                },
                {
                    "name": "F#5",
                    "midi": 78,
                    "time": 358.73687199999705,
                    "velocity": 0.18110236220472442,
                    "duration": 0.31578949999999395
                },
                {
                    "name": "A5",
                    "midi": 81,
                    "time": 358.73687199999705,
                    "velocity": 0.18110236220472442,
                    "duration": 0.31578949999999395
                },
                {
                    "name": "F#5",
                    "midi": 78,
                    "time": 359.05266149999704,
                    "velocity": 0.16535433070866143,
                    "duration": 0.9473684999999819
                },
                {
                    "name": "A5",
                    "midi": 81,
                    "time": 359.05266149999704,
                    "velocity": 0.16535433070866143,
                    "duration": 0.9473684999999819
                },
                {
                    "name": "F#4",
                    "midi": 66,
                    "time": 360.631608999997,
                    "velocity": 0.16535433070866143,
                    "duration": 0.31578949999999395
                },
                {
                    "name": "A4",
                    "midi": 69,
                    "time": 360.631608999997,
                    "velocity": 0.16535433070866143,
                    "duration": 0.31578949999999395
                },
                {
                    "name": "F#4",
                    "midi": 66,
                    "time": 360.947398499997,
                    "velocity": 0.16535433070866143,
                    "duration": 0.6315789999999879
                },
                {
                    "name": "A4",
                    "midi": 69,
                    "time": 360.947398499997,
                    "velocity": 0.16535433070866143,
                    "duration": 0.6315789999999879
                },
                {
                    "name": "G3",
                    "midi": 55,
                    "time": 361.578977499997,
                    "velocity": 0.2992125984251969,
                    "duration": 0.31578949999999395
                },
                {
                    "name": "B3",
                    "midi": 59,
                    "time": 361.578977499997,
                    "velocity": 0.2992125984251969,
                    "duration": 0.31578949999999395
                },
                {
                    "name": "G3",
                    "midi": 55,
                    "time": 361.894766999997,
                    "velocity": 0.31496062992125984,
                    "duration": 0.6315789999999879
                },
                {
                    "name": "B3",
                    "midi": 59,
                    "time": 361.894766999997,
                    "velocity": 0.31496062992125984,
                    "duration": 0.6315789999999879
                },
                {
                    "name": "G3",
                    "midi": 55,
                    "time": 362.526345999997,
                    "velocity": 0.2992125984251969,
                    "duration": 0.31578949999999395
                },
                {
                    "name": "C4",
                    "midi": 60,
                    "time": 362.526345999997,
                    "velocity": 0.2992125984251969,
                    "duration": 0.31578949999999395
                },
                {
                    "name": "G3",
                    "midi": 55,
                    "time": 362.84213549999697,
                    "velocity": 0.31496062992125984,
                    "duration": 0.6315789999999879
                },
                {
                    "name": "C4",
                    "midi": 60,
                    "time": 362.84213549999697,
                    "velocity": 0.31496062992125984,
                    "duration": 0.6315789999999879
                },
                {
                    "name": "G3",
                    "midi": 55,
                    "time": 363.47371449999696,
                    "velocity": 0.2992125984251969,
                    "duration": 0.31578949999999395
                },
                {
                    "name": "C4",
                    "midi": 60,
                    "time": 363.47371449999696,
                    "velocity": 0.2992125984251969,
                    "duration": 0.31578949999999395
                },
                {
                    "name": "G3",
                    "midi": 55,
                    "time": 363.78950399999695,
                    "velocity": 0.29133858267716534,
                    "duration": 0.11842106249997641
                },
                {
                    "name": "B3",
                    "midi": 59,
                    "time": 363.78950399999695,
                    "velocity": 0.29133858267716534,
                    "duration": 0.11842106249997641
                },
                {
                    "name": "G3",
                    "midi": 55,
                    "time": 364.10529349999695,
                    "velocity": 0.28346456692913385,
                    "duration": 0.11842106249997641
                },
                {
                    "name": "B3",
                    "midi": 59,
                    "time": 364.10529349999695,
                    "velocity": 0.28346456692913385,
                    "duration": 0.11842106249997641
                },
                {
                    "name": "G3",
                    "midi": 55,
                    "time": 364.42108299999694,
                    "velocity": 0.28346456692913385,
                    "duration": 0.11842106249997641
                },
                {
                    "name": "B3",
                    "midi": 59,
                    "time": 364.42108299999694,
                    "velocity": 0.28346456692913385,
                    "duration": 0.11842106249997641
                },
                {
                    "name": "G3",
                    "midi": 55,
                    "time": 364.73687249999693,
                    "velocity": 0.28346456692913385,
                    "duration": 0.6315789999999879
                },
                {
                    "name": "B3",
                    "midi": 59,
                    "time": 364.73687249999693,
                    "velocity": 0.28346456692913385,
                    "duration": 0.6315789999999879
                },
                {
                    "name": "D3",
                    "midi": 50,
                    "time": 365.3684514999969,
                    "velocity": 0.4094488188976378,
                    "duration": 0.31578949999999395
                },
                {
                    "name": "G3",
                    "midi": 55,
                    "time": 365.6842409999969,
                    "velocity": 0.4330708661417323,
                    "duration": 0.31578949999999395
                },
                {
                    "name": "B3",
                    "midi": 59,
                    "time": 365.6842409999969,
                    "velocity": 0.4330708661417323,
                    "duration": 0.31578949999999395
                },
                {
                    "name": "G2",
                    "midi": 43,
                    "time": 366.2237147291636,
                    "velocity": 0.33858267716535434,
                    "duration": 0.31578949999999395
                },
                {
                    "name": "B2",
                    "midi": 47,
                    "time": 366.2368726249969,
                    "velocity": 0.3543307086614173,
                    "duration": 0.30263160416666324
                },
                {
                    "name": "D3",
                    "midi": 50,
                    "time": 366.25003052083025,
                    "velocity": 0.3700787401574803,
                    "duration": 0.2894737083333325
                },
                {
                    "name": "G3",
                    "midi": 55,
                    "time": 366.2631884166636,
                    "velocity": 0.4015748031496063,
                    "duration": 0.2763158125000018
                },
                {
                    "name": "A2",
                    "midi": 45,
                    "time": 366.5395042291636,
                    "velocity": 0.33070866141732286,
                    "duration": 0.7236842708333029
                },
                {
                    "name": "C3",
                    "midi": 48,
                    "time": 366.5526621249969,
                    "velocity": 0.3543307086614173,
                    "duration": 0.7105263749999722
                },
                {
                    "name": "F#3",
                    "midi": 54,
                    "time": 366.56582002083024,
                    "velocity": 0.36220472440944884,
                    "duration": 0.6973684791666415
                },
                {
                    "name": "A3",
                    "midi": 57,
                    "time": 366.5789779166636,
                    "velocity": 0.4015748031496063,
                    "duration": 0.6842105833333108
                },
                {
                    "name": "B2",
                    "midi": 47,
                    "time": 367.2631884999969,
                    "velocity": 0.3779527559055118,
                    "duration": 0.31578949999999395
                },
                {
                    "name": "D3",
                    "midi": 50,
                    "time": 367.2631884999969,
                    "velocity": 0.3779527559055118,
                    "duration": 0.31578949999999395
                },
                {
                    "name": "G3",
                    "midi": 55,
                    "time": 367.2631884999969,
                    "velocity": 0.3779527559055118,
                    "duration": 0.31578949999999395
                },
                {
                    "name": "D4",
                    "midi": 62,
                    "time": 367.5789779999969,
                    "velocity": 0.4251968503937008,
                    "duration": 0.07894737499998428
                },
                {
                    "name": "E4",
                    "midi": 64,
                    "time": 367.65792537499686,
                    "velocity": 0.4251968503937008,
                    "duration": 0.07894737499998428
                },
                {
                    "name": "F#4",
                    "midi": 66,
                    "time": 367.73687274999685,
                    "velocity": 0.4251968503937008,
                    "duration": 0.07894737499998428
                },
                {
                    "name": "G4",
                    "midi": 67,
                    "time": 367.81582012499683,
                    "velocity": 0.4251968503937008,
                    "duration": 0.07894737499998428
                },
                {
                    "name": "D2",
                    "midi": 38,
                    "time": 368.5263464999968,
                    "velocity": 0.3543307086614173,
                    "duration": 0.6315789999999879
                },
                {
                    "name": "F#2",
                    "midi": 42,
                    "time": 368.5263464999968,
                    "velocity": 0.3543307086614173,
                    "duration": 0.6315789999999879
                },
                {
                    "name": "A2",
                    "midi": 45,
                    "time": 368.5263464999968,
                    "velocity": 0.3543307086614173,
                    "duration": 0.6315789999999879
                },
                {
                    "name": "D3",
                    "midi": 50,
                    "time": 368.5263464999968,
                    "velocity": 0.41732283464566927,
                    "duration": 0.6315789999999879
                },
                {
                    "name": "E4",
                    "midi": 64,
                    "time": 369.1579254999968,
                    "velocity": 0.2047244094488189,
                    "duration": 0.31578949999999395
                },
                {
                    "name": "C4",
                    "midi": 60,
                    "time": 369.4737149999968,
                    "velocity": 0.2125984251968504,
                    "duration": 0.31578949999999395
                },
                {
                    "name": "B3",
                    "midi": 59,
                    "time": 369.7895044999968,
                    "velocity": 0.2125984251968504,
                    "duration": 0.31578949999999395
                },
                {
                    "name": "A3",
                    "midi": 57,
                    "time": 370.1052939999968,
                    "velocity": 0.2125984251968504,
                    "duration": 0.1578947500000254
                },
                {
                    "name": "A3",
                    "midi": 57,
                    "time": 370.4210834999968,
                    "velocity": 0.1968503937007874,
                    "duration": 0.31578949999999395
                },
                {
                    "name": "D4",
                    "midi": 62,
                    "time": 371.0526624999968,
                    "velocity": 0.2204724409448819,
                    "duration": 0.31578949999999395
                },
                {
                    "name": "B3",
                    "midi": 59,
                    "time": 371.3684519999968,
                    "velocity": 0.2283464566929134,
                    "duration": 0.31578949999999395
                },
                {
                    "name": "A3",
                    "midi": 57,
                    "time": 371.6842414999968,
                    "velocity": 0.2283464566929134,
                    "duration": 0.31578949999999395
                },
                {
                    "name": "G3",
                    "midi": 55,
                    "time": 372.0000309999968,
                    "velocity": 0.2047244094488189,
                    "duration": 0.1578947500000254
                },
                {
                    "name": "G3",
                    "midi": 55,
                    "time": 372.31582049999685,
                    "velocity": 0.2047244094488189,
                    "duration": 0.31578949999999395
                },
                {
                    "name": "E3",
                    "midi": 52,
                    "time": 372.94739949999683,
                    "velocity": 0.2440944881889764,
                    "duration": 0.31578949999999395
                },
                {
                    "name": "C3",
                    "midi": 48,
                    "time": 373.2631889999968,
                    "velocity": 0.2440944881889764,
                    "duration": 0.1578947500000254
                },
                {
                    "name": "D3",
                    "midi": 50,
                    "time": 374.21055749999687,
                    "velocity": 0.2125984251968504,
                    "duration": 0.1578947500000254
                },
                {
                    "name": "G3",
                    "midi": 55,
                    "time": 375.1579259999969,
                    "velocity": 0.28346456692913385,
                    "duration": 0.1578947500000254
                },
                {
                    "name": "D3",
                    "midi": 50,
                    "time": 375.47371549999696,
                    "velocity": 0.25984251968503935,
                    "duration": 0.1578947500000254
                },
                {
                    "name": "B2",
                    "midi": 47,
                    "time": 375.789504999997,
                    "velocity": 0.25984251968503935,
                    "duration": 0.1578947500000254
                },
                {
                    "name": "G2",
                    "midi": 43,
                    "time": 376.026347124997,
                    "velocity": 0.30708661417322836,
                    "duration": 0.3947368749999782
                },
                {
                    "name": "B2",
                    "midi": 47,
                    "time": 376.03950502083035,
                    "velocity": 0.31496062992125984,
                    "duration": 0.3815789791666475
                },
                {
                    "name": "D3",
                    "midi": 50,
                    "time": 376.0526629166637,
                    "velocity": 0.3543307086614173,
                    "duration": 0.2631579166666711
                },
                {
                    "name": "G3",
                    "midi": 55,
                    "time": 376.065820812497,
                    "velocity": 0.3700787401574803,
                    "duration": 0.3552631874999861
                }
            ],
            "controlChanges": {
                "7": [
                    {
                        "number": 7,
                        "time": 0,
                        "value": 0.7874015748031497
                    }
                ],
                "10": [
                    {
                        "number": 10,
                        "time": 0,
                        "value": 0.5039370078740157
                    }
                ],
                "91": [
                    {
                        "number": 91,
                        "time": 1.5776317104166668,
                        "value": 1
                    },
                    {
                        "number": 91,
                        "time": 92.84211299999984,
                        "value": 1
                    },
                    {
                        "number": 91,
                        "time": 229.263176999998,
                        "value": 1
                    },
                    {
                        "number": 91,
                        "time": 240.63159899999792,
                        "value": 1
                    }
                ]
            },
            "id": 2,
            "name": "Piano left",
            "instrumentNumber": 0,
            "instrument": "acoustic grand piano",
            "instrumentFamily": "piano",
            "channelNumber": 0,
            "isPercussion": false
        },
        {
            "startTime": 0,
            "duration": 0,
            "length": 0,
            "notes": [],
            "controlChanges": {
                "64": [
                    {
                        "number": 64,
                        "time": 0,
                        "value": 0
                    },
                    {
                        "number": 64,
                        "time": 1.6315790833333335,
                        "value": 1
                    },
                    {
                        "number": 64,
                        "time": 2.5552633708333334,
                        "value": 0
                    },
                    {
                        "number": 64,
                        "time": 2.9381581395833334,
                        "value": 1
                    },
                    {
                        "number": 64,
                        "time": 3.488158185416667,
                        "value": 0
                    },
                    {
                        "number": 64,
                        "time": 3.669737147916667,
                        "value": 1
                    },
                    {
                        "number": 64,
                        "time": 3.811842422916667,
                        "value": 0
                    },
                    {
                        "number": 64,
                        "time": 6.842105833333333,
                        "value": 1
                    },
                    {
                        "number": 64,
                        "time": 7.284211133333333,
                        "value": 0
                    },
                    {
                        "number": 64,
                        "time": 7.594737475,
                        "value": 1
                    },
                    {
                        "number": 64,
                        "time": 7.903948027083333,
                        "value": 0
                    },
                    {
                        "number": 64,
                        "time": 8.030263827083333,
                        "value": 1
                    },
                    {
                        "number": 64,
                        "time": 8.863158633333333,
                        "value": 0
                    },
                    {
                        "number": 64,
                        "time": 10.5473693,
                        "value": 1
                    },
                    {
                        "number": 64,
                        "time": 11.063158816666666,
                        "value": 0
                    },
                    {
                        "number": 64,
                        "time": 14.323685404166666,
                        "value": 1
                    },
                    {
                        "number": 64,
                        "time": 14.857895974999998,
                        "value": 0
                    },
                    {
                        "number": 64,
                        "time": 14.940790718749998,
                        "value": 1
                    },
                    {
                        "number": 64,
                        "time": 15.157895999999997,
                        "value": 0
                    },
                    {
                        "number": 64,
                        "time": 15.613159195833331,
                        "value": 1
                    },
                    {
                        "number": 64,
                        "time": 16.338159256249998,
                        "value": 0
                    },
                    {
                        "number": 64,
                        "time": 17.135527743749996,
                        "value": 1
                    },
                    {
                        "number": 64,
                        "time": 17.71315937083333,
                        "value": 0
                    },
                    {
                        "number": 64,
                        "time": 18.10000150833333,
                        "value": 1
                    },
                    {
                        "number": 64,
                        "time": 18.646054185416666,
                        "value": 0
                    },
                    {
                        "number": 64,
                        "time": 18.843422622916666,
                        "value": 1
                    },
                    {
                        "number": 64,
                        "time": 18.969738422916667,
                        "value": 0
                    },
                    {
                        "number": 64,
                        "time": 22.000001833333332,
                        "value": 1
                    },
                    {
                        "number": 64,
                        "time": 22.442107133333334,
                        "value": 0
                    },
                    {
                        "number": 64,
                        "time": 22.752633475,
                        "value": 1
                    },
                    {
                        "number": 64,
                        "time": 23.061844027083332,
                        "value": 0
                    },
                    {
                        "number": 64,
                        "time": 23.188159827083332,
                        "value": 1
                    },
                    {
                        "number": 64,
                        "time": 24.021054633333332,
                        "value": 0
                    },
                    {
                        "number": 64,
                        "time": 25.705265299999997,
                        "value": 1
                    },
                    {
                        "number": 64,
                        "time": 26.221054816666665,
                        "value": 0
                    },
                    {
                        "number": 64,
                        "time": 29.481581404166665,
                        "value": 1
                    },
                    {
                        "number": 64,
                        "time": 30.018423554166667,
                        "value": 0
                    },
                    {
                        "number": 64,
                        "time": 30.121055141666666,
                        "value": 1
                    },
                    {
                        "number": 64,
                        "time": 30.315792,
                        "value": 0
                    },
                    {
                        "number": 64,
                        "time": 30.77105519583333,
                        "value": 1
                    },
                    {
                        "number": 64,
                        "time": 31.496055256249996,
                        "value": 0
                    },
                    {
                        "number": 64,
                        "time": 32.05263425,
                        "value": 1
                    },
                    {
                        "number": 64,
                        "time": 32.86052905416666,
                        "value": 0
                    },
                    {
                        "number": 64,
                        "time": 36.386845137499996,
                        "value": 1
                    },
                    {
                        "number": 64,
                        "time": 36.64079252708333,
                        "value": 0
                    },
                    {
                        "number": 64,
                        "time": 37.70000314166666,
                        "value": 1
                    },
                    {
                        "number": 64,
                        "time": 37.89474,
                        "value": 0
                    },
                    {
                        "number": 64,
                        "time": 42.08421403333333,
                        "value": 1
                    },
                    {
                        "number": 64,
                        "time": 42.80789830416666,
                        "value": 0
                    },
                    {
                        "number": 64,
                        "time": 43.11447727708333,
                        "value": 1
                    },
                    {
                        "number": 64,
                        "time": 43.578950999999996,
                        "value": 0
                    },
                    {
                        "number": 64,
                        "time": 44.04342472291666,
                        "value": 1
                    },
                    {
                        "number": 64,
                        "time": 44.58289845208333,
                        "value": 0
                    },
                    {
                        "number": 64,
                        "time": 45.58026695624999,
                        "value": 1
                    },
                    {
                        "number": 64,
                        "time": 46.784214424999995,
                        "value": 0
                    },
                    {
                        "number": 64,
                        "time": 47.49342501041666,
                        "value": 1
                    },
                    {
                        "number": 64,
                        "time": 48.02631979166666,
                        "value": 0
                    },
                    {
                        "number": 64,
                        "time": 48.42895140416666,
                        "value": 1
                    },
                    {
                        "number": 64,
                        "time": 48.97631987083333,
                        "value": 0
                    },
                    {
                        "number": 64,
                        "time": 49.16316199166666,
                        "value": 1
                    },
                    {
                        "number": 64,
                        "time": 49.28026726458333,
                        "value": 0
                    },
                    {
                        "number": 64,
                        "time": 52.26316224999999,
                        "value": 1
                    },
                    {
                        "number": 64,
                        "time": 52.75526755416666,
                        "value": 0
                    },
                    {
                        "number": 64,
                        "time": 53.48947814166666,
                        "value": 1
                    },
                    {
                        "number": 64,
                        "time": 54.332899264583325,
                        "value": 0
                    },
                    {
                        "number": 64,
                        "time": 55.986846770833324,
                        "value": 1
                    },
                    {
                        "number": 64,
                        "time": 56.53947839583332,
                        "value": 0
                    },
                    {
                        "number": 64,
                        "time": 56.69737314583332,
                        "value": 1
                    },
                    {
                        "number": 64,
                        "time": 56.842109999999984,
                        "value": 0
                    },
                    {
                        "number": 64,
                        "time": 57.655267962499984,
                        "value": 1
                    },
                    {
                        "number": 64,
                        "time": 57.81053113333332,
                        "value": 0
                    },
                    {
                        "number": 64,
                        "time": 57.87500482291665,
                        "value": 1
                    },
                    {
                        "number": 64,
                        "time": 58.442110133333316,
                        "value": 0
                    },
                    {
                        "number": 64,
                        "time": 58.61316277916665,
                        "value": 1
                    },
                    {
                        "number": 64,
                        "time": 58.73684699999998,
                        "value": 0
                    },
                    {
                        "number": 64,
                        "time": 59.86184709374999,
                        "value": 1
                    },
                    {
                        "number": 64,
                        "time": 60.02105763333332,
                        "value": 0
                    },
                    {
                        "number": 64,
                        "time": 60.49474188333332,
                        "value": 1
                    },
                    {
                        "number": 64,
                        "time": 60.63158399999998,
                        "value": 0
                    },
                    {
                        "number": 64,
                        "time": 60.719741902083314,
                        "value": 1
                    },
                    {
                        "number": 64,
                        "time": 60.98026823958331,
                        "value": 0
                    },
                    {
                        "number": 64,
                        "time": 61.050005087499976,
                        "value": 1
                    },
                    {
                        "number": 64,
                        "time": 62.103952543749976,
                        "value": 0
                    },
                    {
                        "number": 64,
                        "time": 62.36842624999998,
                        "value": 1
                    },
                    {
                        "number": 64,
                        "time": 63.17632105416664,
                        "value": 0
                    },
                    {
                        "number": 64,
                        "time": 66.66053187083331,
                        "value": 1
                    },
                    {
                        "number": 64,
                        "time": 66.95658452708331,
                        "value": 0
                    },
                    {
                        "number": 64,
                        "time": 67.97763724374998,
                        "value": 1
                    },
                    {
                        "number": 64,
                        "time": 68.21053199999999,
                        "value": 0
                    },
                    {
                        "number": 64,
                        "time": 72.40000603333333,
                        "value": 1
                    },
                    {
                        "number": 64,
                        "time": 73.12369030416666,
                        "value": 0
                    },
                    {
                        "number": 64,
                        "time": 73.43026927708333,
                        "value": 1
                    },
                    {
                        "number": 64,
                        "time": 73.89474299999999,
                        "value": 0
                    },
                    {
                        "number": 64,
                        "time": 74.35921672291666,
                        "value": 1
                    },
                    {
                        "number": 64,
                        "time": 74.89869045208333,
                        "value": 0
                    },
                    {
                        "number": 64,
                        "time": 75.89605895625,
                        "value": 1
                    },
                    {
                        "number": 64,
                        "time": 77.100006425,
                        "value": 0
                    },
                    {
                        "number": 64,
                        "time": 77.80921701041667,
                        "value": 1
                    },
                    {
                        "number": 64,
                        "time": 78.34211179166667,
                        "value": 0
                    },
                    {
                        "number": 64,
                        "time": 78.66053287083334,
                        "value": 1
                    },
                    {
                        "number": 64,
                        "time": 79.29211187083334,
                        "value": 0
                    },
                    {
                        "number": 64,
                        "time": 79.43158556666667,
                        "value": 1
                    },
                    {
                        "number": 64,
                        "time": 79.6026382125,
                        "value": 0
                    },
                    {
                        "number": 64,
                        "time": 82.63158583333333,
                        "value": 1
                    },
                    {
                        "number": 64,
                        "time": 83.07105955416667,
                        "value": 0
                    },
                    {
                        "number": 64,
                        "time": 83.80527014166667,
                        "value": 1
                    },
                    {
                        "number": 64,
                        "time": 84.64869126458333,
                        "value": 0
                    },
                    {
                        "number": 64,
                        "time": 86.30263877083334,
                        "value": 1
                    },
                    {
                        "number": 64,
                        "time": 86.85527039583334,
                        "value": 0
                    },
                    {
                        "number": 64,
                        "time": 87.04605988541668,
                        "value": 1
                    },
                    {
                        "number": 64,
                        "time": 87.17237568541668,
                        "value": 0
                    },
                    {
                        "number": 64,
                        "time": 87.97763891041669,
                        "value": 1
                    },
                    {
                        "number": 64,
                        "time": 88.12237576458335,
                        "value": 0
                    },
                    {
                        "number": 64,
                        "time": 88.19079682291668,
                        "value": 1
                    },
                    {
                        "number": 64,
                        "time": 88.75790213333335,
                        "value": 0
                    },
                    {
                        "number": 64,
                        "time": 88.91053372500001,
                        "value": 1
                    },
                    {
                        "number": 64,
                        "time": 89.06974426458333,
                        "value": 0
                    },
                    {
                        "number": 64,
                        "time": 90.18684962083333,
                        "value": 1
                    },
                    {
                        "number": 64,
                        "time": 90.33290226458332,
                        "value": 0
                    },
                    {
                        "number": 64,
                        "time": 90.81842862083333,
                        "value": 1
                    },
                    {
                        "number": 64,
                        "time": 90.95395494791666,
                        "value": 0
                    },
                    {
                        "number": 64,
                        "time": 91.03553390208333,
                        "value": 1
                    },
                    {
                        "number": 64,
                        "time": 91.29606023958333,
                        "value": 0
                    },
                    {
                        "number": 64,
                        "time": 91.3657970875,
                        "value": 1
                    },
                    {
                        "number": 64,
                        "time": 92.41974454375,
                        "value": 0
                    },
                    {
                        "number": 64,
                        "time": 96.6868501625,
                        "value": 1
                    },
                    {
                        "number": 64,
                        "time": 97.26974494791666,
                        "value": 0
                    },
                    {
                        "number": 64,
                        "time": 97.66448182291667,
                        "value": 1
                    },
                    {
                        "number": 64,
                        "time": 98.23027134375,
                        "value": 0
                    },
                    {
                        "number": 64,
                        "time": 100.61711364791667,
                        "value": 1
                    },
                    {
                        "number": 64,
                        "time": 101.384218975,
                        "value": 0
                    },
                    {
                        "number": 64,
                        "time": 108.05395637291666,
                        "value": 1
                    },
                    {
                        "number": 64,
                        "time": 108.647377475,
                        "value": 0
                    },
                    {
                        "number": 64,
                        "time": 109.04606171875,
                        "value": 1
                    },
                    {
                        "number": 64,
                        "time": 109.60000913333333,
                        "value": 0
                    },
                    {
                        "number": 64,
                        "time": 112.01579880833333,
                        "value": 1
                    },
                    {
                        "number": 64,
                        "time": 112.74737781666666,
                        "value": 0
                    },
                    {
                        "number": 64,
                        "time": 119.14343098124999,
                        "value": 1
                    },
                    {
                        "number": 64,
                        "time": 119.37895731666666,
                        "value": 0
                    },
                    {
                        "number": 64,
                        "time": 119.50395732708333,
                        "value": 1
                    },
                    {
                        "number": 64,
                        "time": 120.01974684375,
                        "value": 0
                    },
                    {
                        "number": 64,
                        "time": 120.18027317291667,
                        "value": 1
                    },
                    {
                        "number": 64,
                        "time": 120.33685213333334,
                        "value": 0
                    },
                    {
                        "number": 64,
                        "time": 120.4815889875,
                        "value": 1
                    },
                    {
                        "number": 64,
                        "time": 120.97369429166667,
                        "value": 0
                    },
                    {
                        "number": 64,
                        "time": 121.43027327708334,
                        "value": 1
                    },
                    {
                        "number": 64,
                        "time": 122.23158913333334,
                        "value": 0
                    },
                    {
                        "number": 64,
                        "time": 122.72632601666668,
                        "value": 1
                    },
                    {
                        "number": 64,
                        "time": 123.15790500000001,
                        "value": 0
                    },
                    {
                        "number": 64,
                        "time": 123.57895766666668,
                        "value": 1
                    },
                    {
                        "number": 64,
                        "time": 124.13027350208336,
                        "value": 0
                    },
                    {
                        "number": 64,
                        "time": 130.52632666666668,
                        "value": 1
                    },
                    {
                        "number": 64,
                        "time": 130.74737931666667,
                        "value": 0
                    },
                    {
                        "number": 64,
                        "time": 130.87237932708334,
                        "value": 1
                    },
                    {
                        "number": 64,
                        "time": 131.38816884375,
                        "value": 0
                    },
                    {
                        "number": 64,
                        "time": 131.54869517291667,
                        "value": 1
                    },
                    {
                        "number": 64,
                        "time": 131.70527413333332,
                        "value": 0
                    },
                    {
                        "number": 64,
                        "time": 131.85001098749999,
                        "value": 1
                    },
                    {
                        "number": 64,
                        "time": 132.34211629166666,
                        "value": 0
                    },
                    {
                        "number": 64,
                        "time": 132.7986952770833,
                        "value": 1
                    },
                    {
                        "number": 64,
                        "time": 133.6000111333333,
                        "value": 0
                    },
                    {
                        "number": 64,
                        "time": 134.09474801666664,
                        "value": 1
                    },
                    {
                        "number": 64,
                        "time": 134.52632699999998,
                        "value": 0
                    },
                    {
                        "number": 64,
                        "time": 134.94737966666665,
                        "value": 1
                    },
                    {
                        "number": 64,
                        "time": 135.4986955020833,
                        "value": 0
                    },
                    {
                        "number": 64,
                        "time": 138.10527466666665,
                        "value": 1
                    },
                    {
                        "number": 64,
                        "time": 138.97106421249998,
                        "value": 0
                    },
                    {
                        "number": 64,
                        "time": 139.3000116083333,
                        "value": 1
                    },
                    {
                        "number": 64,
                        "time": 139.9197485020833,
                        "value": 0
                    },
                    {
                        "number": 64,
                        "time": 140.0065906145833,
                        "value": 1
                    },
                    {
                        "number": 64,
                        "time": 140.21053799999996,
                        "value": 0
                    },
                    {
                        "number": 64,
                        "time": 141.82764339791663,
                        "value": 0
                    },
                    {
                        "number": 64,
                        "time": 142.83553821874997,
                        "value": 1
                    },
                    {
                        "number": 64,
                        "time": 143.0736961333333,
                        "value": 0
                    },
                    {
                        "number": 64,
                        "time": 143.24080141041662,
                        "value": 1
                    },
                    {
                        "number": 64,
                        "time": 143.70001197499997,
                        "value": 0
                    },
                    {
                        "number": 64,
                        "time": 147.78948599999995,
                        "value": 0
                    },
                    {
                        "number": 64,
                        "time": 148.85790714166663,
                        "value": 1
                    },
                    {
                        "number": 64,
                        "time": 149.0736966333333,
                        "value": 0
                    },
                    {
                        "number": 64,
                        "time": 149.1644861145833,
                        "value": 1
                    },
                    {
                        "number": 64,
                        "time": 149.3894861333333,
                        "value": 0
                    },
                    {
                        "number": 64,
                        "time": 149.46185456041664,
                        "value": 1
                    },
                    {
                        "number": 64,
                        "time": 149.68422299999997,
                        "value": 0
                    },
                    {
                        "number": 64,
                        "time": 149.76711774374996,
                        "value": 1
                    },
                    {
                        "number": 64,
                        "time": 150.33159147499995,
                        "value": 0
                    },
                    {
                        "number": 64,
                        "time": 150.41448621874994,
                        "value": 1
                    },
                    {
                        "number": 64,
                        "time": 150.65922308124993,
                        "value": 0
                    },
                    {
                        "number": 64,
                        "time": 152.05264424999993,
                        "value": 1
                    },
                    {
                        "number": 64,
                        "time": 152.9631706416666,
                        "value": 0
                    },
                    {
                        "number": 64,
                        "time": 153.5710654291666,
                        "value": 1
                    },
                    {
                        "number": 64,
                        "time": 154.12896021249992,
                        "value": 0
                    },
                    {
                        "number": 64,
                        "time": 154.45790760833324,
                        "value": 1
                    },
                    {
                        "number": 64,
                        "time": 155.07764450208325,
                        "value": 0
                    },
                    {
                        "number": 64,
                        "time": 155.16448661458324,
                        "value": 1
                    },
                    {
                        "number": 64,
                        "time": 155.3684339999999,
                        "value": 0
                    },
                    {
                        "number": 64,
                        "time": 156.98553939791657,
                        "value": 0
                    },
                    {
                        "number": 64,
                        "time": 157.9934342187499,
                        "value": 1
                    },
                    {
                        "number": 64,
                        "time": 158.23159213333324,
                        "value": 0
                    },
                    {
                        "number": 64,
                        "time": 158.39869741041656,
                        "value": 1
                    },
                    {
                        "number": 64,
                        "time": 158.8579079749999,
                        "value": 0
                    },
                    {
                        "number": 64,
                        "time": 162.9473819999999,
                        "value": 0
                    },
                    {
                        "number": 64,
                        "time": 164.01580314166657,
                        "value": 1
                    },
                    {
                        "number": 64,
                        "time": 164.23159263333324,
                        "value": 0
                    },
                    {
                        "number": 64,
                        "time": 164.32238211458323,
                        "value": 1
                    },
                    {
                        "number": 64,
                        "time": 164.54738213333323,
                        "value": 0
                    },
                    {
                        "number": 64,
                        "time": 164.61975056041658,
                        "value": 1
                    },
                    {
                        "number": 64,
                        "time": 164.8421189999999,
                        "value": 0
                    },
                    {
                        "number": 64,
                        "time": 164.9250137437499,
                        "value": 1
                    },
                    {
                        "number": 64,
                        "time": 165.4894874749999,
                        "value": 0
                    },
                    {
                        "number": 64,
                        "time": 165.57238221874988,
                        "value": 1
                    },
                    {
                        "number": 64,
                        "time": 165.81711908124987,
                        "value": 0
                    },
                    {
                        "number": 64,
                        "time": 167.21054024999987,
                        "value": 1
                    },
                    {
                        "number": 64,
                        "time": 168.12106664166654,
                        "value": 0
                    },
                    {
                        "number": 64,
                        "time": 168.36317192499988,
                        "value": 1
                    },
                    {
                        "number": 64,
                        "time": 169.27764568541653,
                        "value": 0
                    },
                    {
                        "number": 64,
                        "time": 169.33290884791654,
                        "value": 1
                    },
                    {
                        "number": 64,
                        "time": 169.59343518541655,
                        "value": 0
                    },
                    {
                        "number": 64,
                        "time": 169.6631720333332,
                        "value": 1
                    },
                    {
                        "number": 64,
                        "time": 169.9105404749999,
                        "value": 0
                    },
                    {
                        "number": 64,
                        "time": 169.99738258749989,
                        "value": 1
                    },
                    {
                        "number": 64,
                        "time": 170.22369839583322,
                        "value": 0
                    },
                    {
                        "number": 64,
                        "time": 170.30790892916656,
                        "value": 1
                    },
                    {
                        "number": 64,
                        "time": 170.5263299999999,
                        "value": 0
                    },
                    {
                        "number": 64,
                        "time": 170.70264580416656,
                        "value": 1
                    },
                    {
                        "number": 64,
                        "time": 172.13027750208323,
                        "value": 0
                    },
                    {
                        "number": 64,
                        "time": 172.28159330416656,
                        "value": 1
                    },
                    {
                        "number": 64,
                        "time": 172.4210669999999,
                        "value": 0
                    },
                    {
                        "number": 64,
                        "time": 172.52633016666658,
                        "value": 1
                    },
                    {
                        "number": 64,
                        "time": 172.7434354479166,
                        "value": 0
                    },
                    {
                        "number": 64,
                        "time": 172.8500144041666,
                        "value": 1
                    },
                    {
                        "number": 64,
                        "time": 173.07501442291658,
                        "value": 0
                    },
                    {
                        "number": 64,
                        "time": 173.48948814166658,
                        "value": 1
                    },
                    {
                        "number": 64,
                        "time": 174.0223829229166,
                        "value": 0
                    },
                    {
                        "number": 64,
                        "time": 174.12764608958327,
                        "value": 1
                    },
                    {
                        "number": 64,
                        "time": 174.35264610833326,
                        "value": 0
                    },
                    {
                        "number": 64,
                        "time": 178.20790958749993,
                        "value": 1
                    },
                    {
                        "number": 64,
                        "time": 178.76054121249993,
                        "value": 0
                    },
                    {
                        "number": 64,
                        "time": 178.86712016874992,
                        "value": 1
                    },
                    {
                        "number": 64,
                        "time": 179.06580439583325,
                        "value": 0
                    },
                    {
                        "number": 64,
                        "time": 179.1736991416666,
                        "value": 1
                    },
                    {
                        "number": 64,
                        "time": 179.7079097124999,
                        "value": 0
                    },
                    {
                        "number": 64,
                        "time": 179.83290972291658,
                        "value": 1
                    },
                    {
                        "number": 64,
                        "time": 180.0000149999999,
                        "value": 0
                    },
                    {
                        "number": 64,
                        "time": 180.14869922291658,
                        "value": 1
                    },
                    {
                        "number": 64,
                        "time": 181.9026467374999,
                        "value": 0
                    },
                    {
                        "number": 64,
                        "time": 181.98817306041659,
                        "value": 1
                    },
                    {
                        "number": 64,
                        "time": 183.49869950208324,
                        "value": 0
                    },
                    {
                        "number": 64,
                        "time": 183.90527848333323,
                        "value": 1
                    },
                    {
                        "number": 64,
                        "time": 184.4447522124999,
                        "value": 0
                    },
                    {
                        "number": 64,
                        "time": 184.77369960833323,
                        "value": 1
                    },
                    {
                        "number": 64,
                        "time": 185.39343650208323,
                        "value": 0
                    },
                    {
                        "number": 64,
                        "time": 185.48027861458323,
                        "value": 1
                    },
                    {
                        "number": 64,
                        "time": 185.68422599999988,
                        "value": 0
                    },
                    {
                        "number": 64,
                        "time": 187.30133139791656,
                        "value": 0
                    },
                    {
                        "number": 64,
                        "time": 188.3092262187499,
                        "value": 1
                    },
                    {
                        "number": 64,
                        "time": 188.54738413333322,
                        "value": 0
                    },
                    {
                        "number": 64,
                        "time": 188.71448941041655,
                        "value": 1
                    },
                    {
                        "number": 64,
                        "time": 189.1736999749999,
                        "value": 0
                    },
                    {
                        "number": 64,
                        "time": 198.6789639249999,
                        "value": 1
                    },
                    {
                        "number": 64,
                        "time": 199.5947534749999,
                        "value": 0
                    },
                    {
                        "number": 64,
                        "time": 199.6500166374999,
                        "value": 1
                    },
                    {
                        "number": 64,
                        "time": 199.9105429749999,
                        "value": 0
                    },
                    {
                        "number": 64,
                        "time": 199.97896403333326,
                        "value": 1
                    },
                    {
                        "number": 64,
                        "time": 200.22764826458325,
                        "value": 0
                    },
                    {
                        "number": 64,
                        "time": 200.31317458749993,
                        "value": 1
                    },
                    {
                        "number": 64,
                        "time": 200.54080618541659,
                        "value": 0
                    },
                    {
                        "number": 64,
                        "time": 200.62501671874992,
                        "value": 1
                    },
                    {
                        "number": 64,
                        "time": 200.84343778958325,
                        "value": 0
                    },
                    {
                        "number": 64,
                        "time": 201.01975359374993,
                        "value": 1
                    },
                    {
                        "number": 64,
                        "time": 202.4473852916666,
                        "value": 0
                    },
                    {
                        "number": 64,
                        "time": 202.59870109374992,
                        "value": 1
                    },
                    {
                        "number": 64,
                        "time": 202.73817478958327,
                        "value": 0
                    },
                    {
                        "number": 64,
                        "time": 202.84343795624994,
                        "value": 1
                    },
                    {
                        "number": 64,
                        "time": 203.06580639583328,
                        "value": 0
                    },
                    {
                        "number": 64,
                        "time": 203.1210695583333,
                        "value": 1
                    },
                    {
                        "number": 64,
                        "time": 203.39212221249994,
                        "value": 0
                    },
                    {
                        "number": 64,
                        "time": 203.8052801416666,
                        "value": 1
                    },
                    {
                        "number": 64,
                        "time": 204.33949071249992,
                        "value": 0
                    },
                    {
                        "number": 64,
                        "time": 204.4447538791666,
                        "value": 1
                    },
                    {
                        "number": 64,
                        "time": 204.6697538979166,
                        "value": 0
                    },
                    {
                        "number": 64,
                        "time": 208.52370158749991,
                        "value": 1
                    },
                    {
                        "number": 64,
                        "time": 209.07764900208323,
                        "value": 0
                    },
                    {
                        "number": 64,
                        "time": 209.18422795833322,
                        "value": 1
                    },
                    {
                        "number": 64,
                        "time": 209.38291218541656,
                        "value": 0
                    },
                    {
                        "number": 64,
                        "time": 209.4908069312499,
                        "value": 1
                    },
                    {
                        "number": 64,
                        "time": 210.02501750208322,
                        "value": 0
                    },
                    {
                        "number": 64,
                        "time": 210.1500175124999,
                        "value": 1
                    },
                    {
                        "number": 64,
                        "time": 210.3171227895832,
                        "value": 0
                    },
                    {
                        "number": 64,
                        "time": 210.46580701249988,
                        "value": 1
                    },
                    {
                        "number": 64,
                        "time": 212.2197545270832,
                        "value": 0
                    },
                    {
                        "number": 64,
                        "time": 212.30396506041654,
                        "value": 1
                    },
                    {
                        "number": 64,
                        "time": 213.81580729166654,
                        "value": 0
                    },
                    {
                        "number": 64,
                        "time": 214.2079125874999,
                        "value": 1
                    },
                    {
                        "number": 64,
                        "time": 214.7618600020832,
                        "value": 0
                    },
                    {
                        "number": 64,
                        "time": 215.09080739791654,
                        "value": 1
                    },
                    {
                        "number": 64,
                        "time": 215.71054429166654,
                        "value": 0
                    },
                    {
                        "number": 64,
                        "time": 215.79607061458321,
                        "value": 1
                    },
                    {
                        "number": 64,
                        "time": 216.0013337895832,
                        "value": 0
                    },
                    {
                        "number": 64,
                        "time": 217.61712339791654,
                        "value": 0
                    },
                    {
                        "number": 64,
                        "time": 218.6250182187499,
                        "value": 1
                    },
                    {
                        "number": 64,
                        "time": 218.86449192291656,
                        "value": 0
                    },
                    {
                        "number": 64,
                        "time": 219.03159719999988,
                        "value": 1
                    },
                    {
                        "number": 64,
                        "time": 219.49080776458322,
                        "value": 0
                    },
                    {
                        "number": 64,
                        "time": 233.1276510062499,
                        "value": 1
                    },
                    {
                        "number": 64,
                        "time": 233.69344052708323,
                        "value": 0
                    },
                    {
                        "number": 64,
                        "time": 233.74080895208323,
                        "value": 1
                    },
                    {
                        "number": 64,
                        "time": 234.01580897499989,
                        "value": 0
                    },
                    {
                        "number": 64,
                        "time": 234.10133529791656,
                        "value": 1
                    },
                    {
                        "number": 64,
                        "time": 234.9473879999999,
                        "value": 0
                    },
                    {
                        "number": 64,
                        "time": 235.0460722187499,
                        "value": 1
                    },
                    {
                        "number": 64,
                        "time": 235.60133542291658,
                        "value": 0
                    },
                    {
                        "number": 64,
                        "time": 235.6579143749999,
                        "value": 1
                    },
                    {
                        "number": 64,
                        "time": 235.9105459749999,
                        "value": 0
                    },
                    {
                        "number": 64,
                        "time": 236.01186177291657,
                        "value": 1
                    },
                    {
                        "number": 64,
                        "time": 236.2263354749999,
                        "value": 0
                    },
                    {
                        "number": 64,
                        "time": 236.31975653541656,
                        "value": 1
                    },
                    {
                        "number": 64,
                        "time": 236.8500197374999,
                        "value": 0
                    },
                    {
                        "number": 64,
                        "time": 236.96975658958323,
                        "value": 1
                    },
                    {
                        "number": 64,
                        "time": 237.80791455416656,
                        "value": 0
                    },
                    {
                        "number": 64,
                        "time": 238.01580930833322,
                        "value": 1
                    },
                    {
                        "number": 64,
                        "time": 238.7368619999999,
                        "value": 0
                    },
                    {
                        "number": 64,
                        "time": 238.83423042916655,
                        "value": 1
                    },
                    {
                        "number": 64,
                        "time": 239.39607258124988,
                        "value": 0
                    },
                    {
                        "number": 64,
                        "time": 244.49607300624987,
                        "value": 1
                    },
                    {
                        "number": 64,
                        "time": 245.0618625270832,
                        "value": 0
                    },
                    {
                        "number": 64,
                        "time": 245.1092309520832,
                        "value": 1
                    },
                    {
                        "number": 64,
                        "time": 245.38423097499987,
                        "value": 0
                    },
                    {
                        "number": 64,
                        "time": 245.46975729791654,
                        "value": 1
                    },
                    {
                        "number": 64,
                        "time": 246.31580999999989,
                        "value": 0
                    },
                    {
                        "number": 64,
                        "time": 246.4144942187499,
                        "value": 1
                    },
                    {
                        "number": 64,
                        "time": 246.96975742291656,
                        "value": 0
                    },
                    {
                        "number": 64,
                        "time": 247.0263363749999,
                        "value": 1
                    },
                    {
                        "number": 64,
                        "time": 247.2789679749999,
                        "value": 0
                    },
                    {
                        "number": 64,
                        "time": 247.38028377291656,
                        "value": 1
                    },
                    {
                        "number": 64,
                        "time": 247.59475747499988,
                        "value": 0
                    },
                    {
                        "number": 64,
                        "time": 247.68817853541654,
                        "value": 1
                    },
                    {
                        "number": 64,
                        "time": 248.2184417374999,
                        "value": 0
                    },
                    {
                        "number": 64,
                        "time": 248.3381785895832,
                        "value": 1
                    },
                    {
                        "number": 64,
                        "time": 249.17633655416654,
                        "value": 0
                    },
                    {
                        "number": 64,
                        "time": 249.3842313083332,
                        "value": 1
                    },
                    {
                        "number": 64,
                        "time": 250.10528399999987,
                        "value": 0
                    },
                    {
                        "number": 64,
                        "time": 250.20265242916653,
                        "value": 1
                    },
                    {
                        "number": 64,
                        "time": 250.76449458124986,
                        "value": 0
                    },
                    {
                        "number": 64,
                        "time": 255.53949497916653,
                        "value": 1
                    },
                    {
                        "number": 64,
                        "time": 255.80133710624986,
                        "value": 0
                    },
                    {
                        "number": 64,
                        "time": 255.86449500624985,
                        "value": 1
                    },
                    {
                        "number": 64,
                        "time": 256.1171266062498,
                        "value": 0
                    },
                    {
                        "number": 64,
                        "time": 256.1881792437498,
                        "value": 1
                    },
                    {
                        "number": 64,
                        "time": 256.43028452708313,
                        "value": 0
                    },
                    {
                        "number": 64,
                        "time": 256.5118634812498,
                        "value": 1
                    },
                    {
                        "number": 64,
                        "time": 256.75002139583313,
                        "value": 0
                    },
                    {
                        "number": 64,
                        "time": 256.8276529812498,
                        "value": 1
                    },
                    {
                        "number": 64,
                        "time": 257.06712668541644,
                        "value": 0
                    },
                    {
                        "number": 64,
                        "time": 257.1434424812498,
                        "value": 1
                    },
                    {
                        "number": 64,
                        "time": 257.39870566041645,
                        "value": 0
                    },
                    {
                        "number": 64,
                        "time": 257.4592319812498,
                        "value": 1
                    },
                    {
                        "number": 64,
                        "time": 257.6934425270831,
                        "value": 0
                    },
                    {
                        "number": 64,
                        "time": 257.76712674374977,
                        "value": 1
                    },
                    {
                        "number": 64,
                        "time": 258.01975834374974,
                        "value": 0
                    },
                    {
                        "number": 64,
                        "time": 258.08291624374976,
                        "value": 1
                    },
                    {
                        "number": 64,
                        "time": 258.3381794229164,
                        "value": 0
                    },
                    {
                        "number": 64,
                        "time": 258.4144952187498,
                        "value": 1
                    },
                    {
                        "number": 64,
                        "time": 258.6473899749998,
                        "value": 0
                    },
                    {
                        "number": 64,
                        "time": 258.7302847187498,
                        "value": 1
                    },
                    {
                        "number": 64,
                        "time": 258.9631794749998,
                        "value": 0
                    },
                    {
                        "number": 64,
                        "time": 259.04607421874977,
                        "value": 1
                    },
                    {
                        "number": 64,
                        "time": 259.2829163437498,
                        "value": 0
                    },
                    {
                        "number": 64,
                        "time": 259.36844266666645,
                        "value": 1
                    },
                    {
                        "number": 64,
                        "time": 259.5829163687498,
                        "value": 0
                    },
                    {
                        "number": 64,
                        "time": 259.6723900604165,
                        "value": 1
                    },
                    {
                        "number": 64,
                        "time": 260.2250216854165,
                        "value": 0
                    },
                    {
                        "number": 64,
                        "time": 260.3316006416665,
                        "value": 1
                    },
                    {
                        "number": 64,
                        "time": 260.5434427645832,
                        "value": 0
                    },
                    {
                        "number": 64,
                        "time": 260.62896908749985,
                        "value": 1
                    },
                    {
                        "number": 64,
                        "time": 261.18160071249986,
                        "value": 0
                    },
                    {
                        "number": 64,
                        "time": 266.90791697916654,
                        "value": 1
                    },
                    {
                        "number": 64,
                        "time": 267.1697591062499,
                        "value": 0
                    },
                    {
                        "number": 64,
                        "time": 267.2329170062499,
                        "value": 1
                    },
                    {
                        "number": 64,
                        "time": 267.4855486062499,
                        "value": 0
                    },
                    {
                        "number": 64,
                        "time": 267.55660124374987,
                        "value": 1
                    },
                    {
                        "number": 64,
                        "time": 267.7987065270832,
                        "value": 0
                    },
                    {
                        "number": 64,
                        "time": 267.88028548124987,
                        "value": 1
                    },
                    {
                        "number": 64,
                        "time": 268.1184433958332,
                        "value": 0
                    },
                    {
                        "number": 64,
                        "time": 268.19607498124986,
                        "value": 1
                    },
                    {
                        "number": 64,
                        "time": 268.4355486854165,
                        "value": 0
                    },
                    {
                        "number": 64,
                        "time": 268.51186448124986,
                        "value": 1
                    },
                    {
                        "number": 64,
                        "time": 268.7671276604165,
                        "value": 0
                    },
                    {
                        "number": 64,
                        "time": 268.82765398124985,
                        "value": 1
                    },
                    {
                        "number": 64,
                        "time": 269.0618645270832,
                        "value": 0
                    },
                    {
                        "number": 64,
                        "time": 269.13554874374984,
                        "value": 1
                    },
                    {
                        "number": 64,
                        "time": 269.3881803437498,
                        "value": 0
                    },
                    {
                        "number": 64,
                        "time": 269.45133824374983,
                        "value": 1
                    },
                    {
                        "number": 64,
                        "time": 269.7066014229165,
                        "value": 0
                    },
                    {
                        "number": 64,
                        "time": 269.78291721874984,
                        "value": 1
                    },
                    {
                        "number": 64,
                        "time": 270.01581197499985,
                        "value": 0
                    },
                    {
                        "number": 64,
                        "time": 270.09870671874984,
                        "value": 1
                    },
                    {
                        "number": 64,
                        "time": 270.33160147499984,
                        "value": 0
                    },
                    {
                        "number": 64,
                        "time": 270.41449621874983,
                        "value": 1
                    },
                    {
                        "number": 64,
                        "time": 270.65133834374984,
                        "value": 0
                    },
                    {
                        "number": 64,
                        "time": 270.7368646666665,
                        "value": 1
                    },
                    {
                        "number": 64,
                        "time": 270.9513383687499,
                        "value": 0
                    },
                    {
                        "number": 64,
                        "time": 271.04081206041656,
                        "value": 1
                    },
                    {
                        "number": 64,
                        "time": 271.59344368541656,
                        "value": 0
                    },
                    {
                        "number": 64,
                        "time": 271.7000226416666,
                        "value": 1
                    },
                    {
                        "number": 64,
                        "time": 271.91186476458324,
                        "value": 0
                    },
                    {
                        "number": 64,
                        "time": 271.9973910874999,
                        "value": 1
                    },
                    {
                        "number": 64,
                        "time": 272.5500227124999,
                        "value": 0
                    },
                    {
                        "number": 64,
                        "time": 274.49607550624995,
                        "value": 1
                    },
                    {
                        "number": 64,
                        "time": 275.3816018958333,
                        "value": 0
                    },
                    {
                        "number": 64,
                        "time": 275.7079177125,
                        "value": 1
                    },
                    {
                        "number": 64,
                        "time": 276.02239142291666,
                        "value": 0
                    },
                    {
                        "number": 64,
                        "time": 276.06975984791666,
                        "value": 1
                    },
                    {
                        "number": 64,
                        "time": 276.3250230270833,
                        "value": 0
                    },
                    {
                        "number": 64,
                        "time": 276.36712829375,
                        "value": 1
                    },
                    {
                        "number": 64,
                        "time": 276.631602,
                        "value": 0
                    },
                    {
                        "number": 64,
                        "time": 276.7434441145833,
                        "value": 1
                    },
                    {
                        "number": 64,
                        "time": 276.9605493958333,
                        "value": 0
                    },
                    {
                        "number": 64,
                        "time": 277.04081256041667,
                        "value": 1
                    },
                    {
                        "number": 64,
                        "time": 277.2816020541667,
                        "value": 0
                    },
                    {
                        "number": 64,
                        "time": 277.3658125875,
                        "value": 1
                    },
                    {
                        "number": 64,
                        "time": 277.6039705020833,
                        "value": 0
                    },
                    {
                        "number": 64,
                        "time": 277.70002314166663,
                        "value": 1
                    },
                    {
                        "number": 64,
                        "time": 278.22239160624997,
                        "value": 0
                    },
                    {
                        "number": 64,
                        "time": 279.63160224999996,
                        "value": 1
                    },
                    {
                        "number": 64,
                        "time": 280.11712860624993,
                        "value": 0
                    },
                    {
                        "number": 64,
                        "time": 280.48554968958325,
                        "value": 1
                    },
                    {
                        "number": 64,
                        "time": 280.75002339583324,
                        "value": 0
                    },
                    {
                        "number": 64,
                        "time": 280.78949708333323,
                        "value": 1
                    },
                    {
                        "number": 64,
                        "time": 281.0684444749999,
                        "value": 0
                    },
                    {
                        "number": 64,
                        "time": 281.10923395208323,
                        "value": 1
                    },
                    {
                        "number": 64,
                        "time": 281.3881813437499,
                        "value": 0
                    },
                    {
                        "number": 64,
                        "time": 281.5223918812499,
                        "value": 1
                    },
                    {
                        "number": 64,
                        "time": 282.0237077124999,
                        "value": 0
                    },
                    {
                        "number": 64,
                        "time": 282.36186563541656,
                        "value": 1
                    },
                    {
                        "number": 64,
                        "time": 282.96186568541657,
                        "value": 0
                    },
                    {
                        "number": 64,
                        "time": 283.00791832083326,
                        "value": 1
                    },
                    {
                        "number": 64,
                        "time": 283.2697604479166,
                        "value": 0
                    },
                    {
                        "number": 64,
                        "time": 283.93291839791664,
                        "value": 1
                    },
                    {
                        "number": 64,
                        "time": 284.23818158125,
                        "value": 0
                    },
                    {
                        "number": 64,
                        "time": 288.39081350624997,
                        "value": 1
                    },
                    {
                        "number": 64,
                        "time": 288.65397142291664,
                        "value": 0
                    },
                    {
                        "number": 64,
                        "time": 288.71449774375,
                        "value": 1
                    },
                    {
                        "number": 64,
                        "time": 288.963181975,
                        "value": 0
                    },
                    {
                        "number": 64,
                        "time": 289.65397150625,
                        "value": 1
                    },
                    {
                        "number": 64,
                        "time": 290.54081368541665,
                        "value": 0
                    },
                    {
                        "number": 64,
                        "time": 290.86581371249997,
                        "value": 1
                    },
                    {
                        "number": 64,
                        "time": 291.18160321249997,
                        "value": 0
                    },
                    {
                        "number": 64,
                        "time": 291.22897163749997,
                        "value": 1
                    },
                    {
                        "number": 64,
                        "time": 291.4842348166666,
                        "value": 0
                    },
                    {
                        "number": 64,
                        "time": 291.5263400833333,
                        "value": 1
                    },
                    {
                        "number": 64,
                        "time": 291.7908137895833,
                        "value": 0
                    },
                    {
                        "number": 64,
                        "time": 291.9013401145833,
                        "value": 1
                    },
                    {
                        "number": 64,
                        "time": 292.1197611854167,
                        "value": 0
                    },
                    {
                        "number": 64,
                        "time": 292.19870856041666,
                        "value": 1
                    },
                    {
                        "number": 64,
                        "time": 292.44081384375,
                        "value": 0
                    },
                    {
                        "number": 64,
                        "time": 292.5237085875,
                        "value": 1
                    },
                    {
                        "number": 64,
                        "time": 292.7631822916666,
                        "value": 0
                    },
                    {
                        "number": 64,
                        "time": 292.85923493124994,
                        "value": 1
                    },
                    {
                        "number": 64,
                        "time": 293.3816033958333,
                        "value": 0
                    },
                    {
                        "number": 64,
                        "time": 294.79081403958327,
                        "value": 1
                    },
                    {
                        "number": 64,
                        "time": 295.27634039583324,
                        "value": 0
                    },
                    {
                        "number": 64,
                        "time": 295.64344568958325,
                        "value": 1
                    },
                    {
                        "number": 64,
                        "time": 295.9092351854166,
                        "value": 0
                    },
                    {
                        "number": 64,
                        "time": 295.9487088729166,
                        "value": 1
                    },
                    {
                        "number": 64,
                        "time": 296.2276562645833,
                        "value": 0
                    },
                    {
                        "number": 64,
                        "time": 296.2684457416666,
                        "value": 1
                    },
                    {
                        "number": 64,
                        "time": 296.5473931333333,
                        "value": 0
                    },
                    {
                        "number": 64,
                        "time": 296.6816036708333,
                        "value": 1
                    },
                    {
                        "number": 64,
                        "time": 297.1829195020833,
                        "value": 0
                    },
                    {
                        "number": 64,
                        "time": 297.5197616354166,
                        "value": 1
                    },
                    {
                        "number": 64,
                        "time": 298.12107747499994,
                        "value": 0
                    },
                    {
                        "number": 64,
                        "time": 298.16581432083325,
                        "value": 1
                    },
                    {
                        "number": 64,
                        "time": 298.4289722374999,
                        "value": 0
                    },
                    {
                        "number": 64,
                        "time": 299.0908143979166,
                        "value": 1
                    },
                    {
                        "number": 64,
                        "time": 299.39739337083324,
                        "value": 0
                    },
                    {
                        "number": 64,
                        "time": 303.5500252958332,
                        "value": 1
                    },
                    {
                        "number": 64,
                        "time": 303.8131832124999,
                        "value": 0
                    },
                    {
                        "number": 64,
                        "time": 303.8737095333332,
                        "value": 1
                    },
                    {
                        "number": 64,
                        "time": 304.12239376458325,
                        "value": 0
                    },
                    {
                        "number": 64,
                        "time": 304.86449908958326,
                        "value": 1
                    },
                    {
                        "number": 64,
                        "time": 305.05265699999995,
                        "value": 0
                    },
                    {
                        "number": 64,
                        "time": 305.18292016874994,
                        "value": 1
                    },
                    {
                        "number": 64,
                        "time": 305.3934465020833,
                        "value": 0
                    },
                    {
                        "number": 64,
                        "time": 305.5079201958333,
                        "value": 1
                    },
                    {
                        "number": 64,
                        "time": 305.70660442291666,
                        "value": 0
                    },
                    {
                        "number": 64,
                        "time": 305.81449916875,
                        "value": 1
                    },
                    {
                        "number": 64,
                        "time": 306.02370971249997,
                        "value": 0
                    },
                    {
                        "number": 64,
                        "time": 309.8105521333333,
                        "value": 0
                    },
                    {
                        "number": 64,
                        "time": 309.91713108958334,
                        "value": 1
                    },
                    {
                        "number": 64,
                        "time": 310.4434469229167,
                        "value": 0
                    },
                    {
                        "number": 64,
                        "time": 310.50397324375,
                        "value": 1
                    },
                    {
                        "number": 64,
                        "time": 310.736868,
                        "value": 0
                    },
                    {
                        "number": 64,
                        "time": 310.80265747916667,
                        "value": 1
                    },
                    {
                        "number": 64,
                        "time": 311.0763417125,
                        "value": 0
                    },
                    {
                        "number": 64,
                        "time": 311.731604925,
                        "value": 1
                    },
                    {
                        "number": 64,
                        "time": 312.0237102125,
                        "value": 0
                    },
                    {
                        "number": 64,
                        "time": 312.6552892125,
                        "value": 1
                    },
                    {
                        "number": 64,
                        "time": 312.9618681854167,
                        "value": 0
                    },
                    {
                        "number": 64,
                        "time": 313.63028929375,
                        "value": 1
                    },
                    {
                        "number": 64,
                        "time": 313.91844721250004,
                        "value": 0
                    },
                    {
                        "number": 64,
                        "time": 314.57765779375006,
                        "value": 1
                    },
                    {
                        "number": 64,
                        "time": 314.6894999083334,
                        "value": 0
                    },
                    {
                        "number": 64,
                        "time": 315.48818418541674,
                        "value": 1
                    },
                    {
                        "number": 64,
                        "time": 315.6408157770834,
                        "value": 0
                    },
                    {
                        "number": 64,
                        "time": 316.44476321250005,
                        "value": 1
                    },
                    {
                        "number": 64,
                        "time": 316.5973948041667,
                        "value": 0
                    },
                    {
                        "number": 64,
                        "time": 317.4250264520834,
                        "value": 1
                    },
                    {
                        "number": 64,
                        "time": 317.54213172500005,
                        "value": 0
                    },
                    {
                        "number": 64,
                        "time": 322.3881847604167,
                        "value": 1
                    },
                    {
                        "number": 64,
                        "time": 323.76713224375004,
                        "value": 0
                    },
                    {
                        "number": 64,
                        "time": 324.615816525,
                        "value": 1
                    },
                    {
                        "number": 64,
                        "time": 325.51318502083336,
                        "value": 0
                    },
                    {
                        "number": 64,
                        "time": 325.6763429291667,
                        "value": 1
                    },
                    {
                        "number": 64,
                        "time": 326.5171324729167,
                        "value": 0
                    },
                    {
                        "number": 64,
                        "time": 326.90002724166675,
                        "value": 1
                    },
                    {
                        "number": 64,
                        "time": 327.45002728750006,
                        "value": 0
                    },
                    {
                        "number": 64,
                        "time": 327.66976414791674,
                        "value": 1
                    },
                    {
                        "number": 64,
                        "time": 327.81186942291674,
                        "value": 0
                    },
                    {
                        "number": 64,
                        "time": 329.4802906145834,
                        "value": 1
                    },
                    {
                        "number": 64,
                        "time": 329.70002747500007,
                        "value": 0
                    },
                    {
                        "number": 64,
                        "time": 329.7447643208334,
                        "value": 1
                    },
                    {
                        "number": 64,
                        "time": 329.91186959791673,
                        "value": 0
                    },
                    {
                        "number": 64,
                        "time": 330.2052906750001,
                        "value": 1
                    },
                    {
                        "number": 64,
                        "time": 330.55265912500005,
                        "value": 0
                    },
                    {
                        "number": 64,
                        "time": 330.7158170333334,
                        "value": 1
                    },
                    {
                        "number": 64,
                        "time": 331.28686971250005,
                        "value": 0
                    },
                    {
                        "number": 64,
                        "time": 331.3473960333334,
                        "value": 1
                    },
                    {
                        "number": 64,
                        "time": 331.57897500000007,
                        "value": 0
                    },
                    {
                        "number": 64,
                        "time": 331.6276592145834,
                        "value": 1
                    },
                    {
                        "number": 64,
                        "time": 332.5526592916667,
                        "value": 0
                    },
                    {
                        "number": 64,
                        "time": 332.6000277166667,
                        "value": 1
                    },
                    {
                        "number": 64,
                        "time": 333.1750277645834,
                        "value": 0
                    },
                    {
                        "number": 64,
                        "time": 340.0447651791667,
                        "value": 1
                    },
                    {
                        "number": 64,
                        "time": 340.6447652291667,
                        "value": 0
                    },
                    {
                        "number": 64,
                        "time": 340.86450208958337,
                        "value": 1
                    },
                    {
                        "number": 64,
                        "time": 341.05266000000006,
                        "value": 0
                    },
                    {
                        "number": 64,
                        "time": 341.18292316875005,
                        "value": 1
                    },
                    {
                        "number": 64,
                        "time": 341.3934495020834,
                        "value": 0
                    },
                    {
                        "number": 64,
                        "time": 341.5079231958334,
                        "value": 1
                    },
                    {
                        "number": 64,
                        "time": 341.70660742291676,
                        "value": 0
                    },
                    {
                        "number": 64,
                        "time": 341.8145021687501,
                        "value": 1
                    },
                    {
                        "number": 64,
                        "time": 342.02371271250007,
                        "value": 0
                    },
                    {
                        "number": 64,
                        "time": 345.8105551333334,
                        "value": 0
                    },
                    {
                        "number": 64,
                        "time": 345.91713408958344,
                        "value": 1
                    },
                    {
                        "number": 64,
                        "time": 346.4434499229168,
                        "value": 0
                    },
                    {
                        "number": 64,
                        "time": 346.5039762437501,
                        "value": 1
                    },
                    {
                        "number": 64,
                        "time": 346.7368710000001,
                        "value": 0
                    },
                    {
                        "number": 64,
                        "time": 346.8026604791668,
                        "value": 1
                    },
                    {
                        "number": 64,
                        "time": 347.0763447125001,
                        "value": 0
                    },
                    {
                        "number": 64,
                        "time": 347.7316079250001,
                        "value": 1
                    },
                    {
                        "number": 64,
                        "time": 348.0237132125001,
                        "value": 0
                    },
                    {
                        "number": 64,
                        "time": 348.6552922125001,
                        "value": 1
                    },
                    {
                        "number": 64,
                        "time": 348.9618711854168,
                        "value": 0
                    },
                    {
                        "number": 64,
                        "time": 349.63029229375013,
                        "value": 1
                    },
                    {
                        "number": 64,
                        "time": 349.91845021250015,
                        "value": 0
                    },
                    {
                        "number": 64,
                        "time": 350.57766079375017,
                        "value": 1
                    },
                    {
                        "number": 64,
                        "time": 350.6895029083335,
                        "value": 0
                    },
                    {
                        "number": 64,
                        "time": 351.48818718541685,
                        "value": 1
                    },
                    {
                        "number": 64,
                        "time": 351.6408187770835,
                        "value": 0
                    },
                    {
                        "number": 64,
                        "time": 352.44476621250016,
                        "value": 1
                    },
                    {
                        "number": 64,
                        "time": 352.5973978041668,
                        "value": 0
                    },
                    {
                        "number": 64,
                        "time": 353.4250294520835,
                        "value": 1
                    },
                    {
                        "number": 64,
                        "time": 353.54213472500015,
                        "value": 0
                    },
                    {
                        "number": 64,
                        "time": 358.3881877604168,
                        "value": 1
                    },
                    {
                        "number": 64,
                        "time": 359.76713524375015,
                        "value": 0
                    },
                    {
                        "number": 64,
                        "time": 360.6158195250001,
                        "value": 1
                    },
                    {
                        "number": 64,
                        "time": 361.51318802083347,
                        "value": 0
                    },
                    {
                        "number": 64,
                        "time": 361.6763459291668,
                        "value": 1
                    },
                    {
                        "number": 64,
                        "time": 362.51713547291683,
                        "value": 0
                    },
                    {
                        "number": 64,
                        "time": 362.90003024166685,
                        "value": 1
                    },
                    {
                        "number": 64,
                        "time": 363.45003028750017,
                        "value": 0
                    },
                    {
                        "number": 64,
                        "time": 363.66976714791684,
                        "value": 1
                    },
                    {
                        "number": 64,
                        "time": 363.80529347500016,
                        "value": 0
                    },
                    {
                        "number": 64,
                        "time": 365.4802936145835,
                        "value": 1
                    },
                    {
                        "number": 64,
                        "time": 365.7000304750002,
                        "value": 0
                    },
                    {
                        "number": 64,
                        "time": 365.7447673208335,
                        "value": 1
                    },
                    {
                        "number": 64,
                        "time": 365.91187259791684,
                        "value": 0
                    },
                    {
                        "number": 64,
                        "time": 366.2052936750002,
                        "value": 1
                    },
                    {
                        "number": 64,
                        "time": 366.55266212500015,
                        "value": 0
                    },
                    {
                        "number": 64,
                        "time": 366.7158200333335,
                        "value": 1
                    },
                    {
                        "number": 64,
                        "time": 367.28687271250016,
                        "value": 0
                    },
                    {
                        "number": 64,
                        "time": 367.3473990333335,
                        "value": 1
                    },
                    {
                        "number": 64,
                        "time": 367.5789780000002,
                        "value": 0
                    },
                    {
                        "number": 64,
                        "time": 367.6276622145835,
                        "value": 1
                    },
                    {
                        "number": 64,
                        "time": 368.5526622916668,
                        "value": 0
                    },
                    {
                        "number": 64,
                        "time": 368.6000307166668,
                        "value": 1
                    },
                    {
                        "number": 64,
                        "time": 369.1750307645835,
                        "value": 0
                    },
                    {
                        "number": 64,
                        "time": 376.0447681791668,
                        "value": 1
                    },
                    {
                        "number": 64,
                        "time": 376.6447682291668,
                        "value": 0
                    }
                ]
            },
            "id": 3,
            "name": "Pedale"
        },
        {
            "startTime": 0,
            "duration": 0,
            "length": 0,
            "notes": [],
            "controlChanges": {},
            "id": 4,
            "name": "Haydn: Piano sonata in G major, Hoboken XVI:40, 1. Movement"
        },
        {
            "startTime": 0,
            "duration": 0,
            "length": 0,
            "notes": [],
            "controlChanges": {},
            "id": 5,
            "name": "Copyright  1998 by Bernd Krger"
        },
        {
            "startTime": 0,
            "duration": 0,
            "length": 0,
            "notes": [],
            "controlChanges": {},
            "id": 6,
            "name": "http://www.piano-midi.de"
        },
        {
            "startTime": 0,
            "duration": 0,
            "length": 0,
            "notes": [],
            "controlChanges": {},
            "id": 7,
            "name": "Edition: 2011-11-24"
        },
        {
            "startTime": 0,
            "duration": 0,
            "length": 0,
            "notes": [],
            "controlChanges": {},
            "id": 8,
            "name": "Spur 8"
        }
    ]
}