{
    "header": {
        "PPQ": 480,
        "timeSignature": [
            3,
            4
        ],
        "bpm": 113.03990685511675,
        "name": "Haydn: Klaviersonate Hob. XVI:7, 2. Satz"
    },
    "startTime": 0,
    "duration": 139.86211100000057,
    "tracks": [
        {
            "startTime": 0,
            "duration": 0,
            "length": 0,
            "notes": [],
            "controlChanges": {},
            "id": 0,
            "name": "Haydn: Klaviersonate Hob. XVI:7, 2. Satz"
        },
        {
            "startTime": 0,
            "duration": 139.86211100000023,
            "length": 503,
            "notes": [
                {
                    "name": "C5",
                    "midi": 72,
                    "time": 0,
                    "velocity": 0.44881889763779526,
                    "duration": 0.530786
                },
                {
                    "name": "C6",
                    "midi": 84,
                    "time": 0.530786,
                    "velocity": 0.44881889763779526,
                    "duration": 0.1326965
                },
                {
                    "name": "E5",
                    "midi": 76,
                    "time": 1.061572,
                    "velocity": 0.44881889763779526,
                    "duration": 0.265393
                },
                {
                    "name": "G5",
                    "midi": 79,
                    "time": 1.4596615,
                    "velocity": 0.3779527559055118,
                    "duration": 0.1326965
                },
                {
                    "name": "F5",
                    "midi": 77,
                    "time": 1.592358,
                    "velocity": 0.44881889763779526,
                    "duration": 0.530786
                },
                {
                    "name": "D5",
                    "midi": 74,
                    "time": 2.123144,
                    "velocity": 0.4094488188976378,
                    "duration": 0.13269649999999977
                },
                {
                    "name": "D5",
                    "midi": 74,
                    "time": 2.65393,
                    "velocity": 0.44881889763779526,
                    "duration": 0.265393
                },
                {
                    "name": "F5",
                    "midi": 77,
                    "time": 3.0520195,
                    "velocity": 0.4251968503937008,
                    "duration": 0.13269649999999977
                },
                {
                    "name": "E5",
                    "midi": 76,
                    "time": 3.184716,
                    "velocity": 0.44881889763779526,
                    "duration": 0.530786
                },
                {
                    "name": "C5",
                    "midi": 72,
                    "time": 3.715502,
                    "velocity": 0.4251968503937008,
                    "duration": 0.13269649999999977
                },
                {
                    "name": "A4",
                    "midi": 69,
                    "time": 4.246288,
                    "velocity": 0.4566929133858268,
                    "duration": 0.26539299999999955
                },
                {
                    "name": "D5",
                    "midi": 74,
                    "time": 4.644377499999999,
                    "velocity": 0.36220472440944884,
                    "duration": 0.13269649999999977
                },
                {
                    "name": "C5",
                    "midi": 72,
                    "time": 4.777073999999999,
                    "velocity": 0.4566929133858268,
                    "duration": 1.061572
                },
                {
                    "name": "B4",
                    "midi": 71,
                    "time": 5.838645999999999,
                    "velocity": 0.4330708661417323,
                    "duration": 0.26539299999999955
                },
                {
                    "name": "D5",
                    "midi": 74,
                    "time": 6.369431999999998,
                    "velocity": 0.5905511811023622,
                    "duration": 0.530786
                },
                {
                    "name": "G5",
                    "midi": 79,
                    "time": 6.900217999999998,
                    "velocity": 0.44881889763779526,
                    "duration": 0.13269649999999977
                },
                {
                    "name": "F#5",
                    "midi": 78,
                    "time": 7.032914499999998,
                    "velocity": 0.4330708661417323,
                    "duration": 0.13269649999999977
                },
                {
                    "name": "G5",
                    "midi": 79,
                    "time": 7.1656109999999975,
                    "velocity": 0.44881889763779526,
                    "duration": 0.13269649999999977
                },
                {
                    "name": "A5",
                    "midi": 81,
                    "time": 7.298307499999997,
                    "velocity": 0.4330708661417323,
                    "duration": 0.13269649999999977
                },
                {
                    "name": "B5",
                    "midi": 83,
                    "time": 7.431003999999997,
                    "velocity": 0.4881889763779528,
                    "duration": 0.13269649999999977
                },
                {
                    "name": "A5",
                    "midi": 81,
                    "time": 7.563700499999997,
                    "velocity": 0.4330708661417323,
                    "duration": 0.13269649999999977
                },
                {
                    "name": "B5",
                    "midi": 83,
                    "time": 7.696396999999997,
                    "velocity": 0.4881889763779528,
                    "duration": 0.13269649999999977
                },
                {
                    "name": "C6",
                    "midi": 84,
                    "time": 7.829093499999996,
                    "velocity": 0.4645669291338583,
                    "duration": 0.13269649999999977
                },
                {
                    "name": "D6",
                    "midi": 86,
                    "time": 7.961789999999996,
                    "velocity": 0.5748031496062992,
                    "duration": 0.530786
                },
                {
                    "name": "G5",
                    "midi": 79,
                    "time": 8.492575999999996,
                    "velocity": 0.44881889763779526,
                    "duration": 0.13269649999999977
                },
                {
                    "name": "F#5",
                    "midi": 78,
                    "time": 8.625272499999996,
                    "velocity": 0.4330708661417323,
                    "duration": 0.13269649999999977
                },
                {
                    "name": "G5",
                    "midi": 79,
                    "time": 8.757968999999996,
                    "velocity": 0.44881889763779526,
                    "duration": 0.13269649999999977
                },
                {
                    "name": "A5",
                    "midi": 81,
                    "time": 8.890665499999995,
                    "velocity": 0.4330708661417323,
                    "duration": 0.13269649999999977
                },
                {
                    "name": "B5",
                    "midi": 83,
                    "time": 9.023361999999995,
                    "velocity": 0.4881889763779528,
                    "duration": 0.13269649999999977
                },
                {
                    "name": "A5",
                    "midi": 81,
                    "time": 9.156058499999995,
                    "velocity": 0.4330708661417323,
                    "duration": 0.13269649999999977
                },
                {
                    "name": "B5",
                    "midi": 83,
                    "time": 9.288754999999995,
                    "velocity": 0.4881889763779528,
                    "duration": 0.13269649999999977
                },
                {
                    "name": "C6",
                    "midi": 84,
                    "time": 9.421451499999995,
                    "velocity": 0.4645669291338583,
                    "duration": 0.13269649999999977
                },
                {
                    "name": "D6",
                    "midi": 86,
                    "time": 9.554147999999994,
                    "velocity": 0.5905511811023622,
                    "duration": 0.5307859999999991
                },
                {
                    "name": "B4",
                    "midi": 71,
                    "time": 10.084933999999993,
                    "velocity": 0.4566929133858268,
                    "duration": 0.5307859999999991
                },
                {
                    "name": "A4",
                    "midi": 69,
                    "time": 10.615719999999992,
                    "velocity": 0.44881889763779526,
                    "duration": 0.06634825000000077
                },
                {
                    "name": "B4",
                    "midi": 71,
                    "time": 10.682068249999993,
                    "velocity": 0.3937007874015748,
                    "duration": 0.06634825000000077
                },
                {
                    "name": "A4",
                    "midi": 69,
                    "time": 10.748416499999994,
                    "velocity": 0.4094488188976378,
                    "duration": 0.06634825000000077
                },
                {
                    "name": "B4",
                    "midi": 71,
                    "time": 10.814764749999995,
                    "velocity": 0.4566929133858268,
                    "duration": 0.06634825000000077
                },
                {
                    "name": "A4",
                    "midi": 69,
                    "time": 10.881112999999996,
                    "velocity": 0.3858267716535433,
                    "duration": 0.08293531250000008
                },
                {
                    "name": "B4",
                    "midi": 71,
                    "time": 10.964048312499996,
                    "velocity": 0.4094488188976378,
                    "duration": 0.08293531250000008
                },
                {
                    "name": "A4",
                    "midi": 69,
                    "time": 11.046983624999996,
                    "velocity": 0.4094488188976378,
                    "duration": 0.08293531250000008
                },
                {
                    "name": "G4",
                    "midi": 67,
                    "time": 11.146505999999995,
                    "velocity": 0.4566929133858268,
                    "duration": 1.061572
                },
                {
                    "name": "C5",
                    "midi": 72,
                    "time": 12.738863999999996,
                    "velocity": 0.44881889763779526,
                    "duration": 0.5307859999999991
                },
                {
                    "name": "C6",
                    "midi": 84,
                    "time": 13.269649999999995,
                    "velocity": 0.44881889763779526,
                    "duration": 0.13269649999999977
                },
                {
                    "name": "E5",
                    "midi": 76,
                    "time": 13.800435999999994,
                    "velocity": 0.44881889763779526,
                    "duration": 0.26539299999999955
                },
                {
                    "name": "G5",
                    "midi": 79,
                    "time": 14.198525499999993,
                    "velocity": 0.3779527559055118,
                    "duration": 0.13269649999999977
                },
                {
                    "name": "F5",
                    "midi": 77,
                    "time": 14.331221999999993,
                    "velocity": 0.44881889763779526,
                    "duration": 0.5307859999999991
                },
                {
                    "name": "D5",
                    "midi": 74,
                    "time": 14.862007999999992,
                    "velocity": 0.4094488188976378,
                    "duration": 0.13269649999999977
                },
                {
                    "name": "D5",
                    "midi": 74,
                    "time": 15.392793999999991,
                    "velocity": 0.44881889763779526,
                    "duration": 0.26539299999999955
                },
                {
                    "name": "F5",
                    "midi": 77,
                    "time": 15.79088349999999,
                    "velocity": 0.4251968503937008,
                    "duration": 0.13269649999999977
                },
                {
                    "name": "E5",
                    "midi": 76,
                    "time": 15.92357999999999,
                    "velocity": 0.44881889763779526,
                    "duration": 0.5307859999999991
                },
                {
                    "name": "C5",
                    "midi": 72,
                    "time": 16.45436599999999,
                    "velocity": 0.4251968503937008,
                    "duration": 0.13269650000000155
                },
                {
                    "name": "A4",
                    "midi": 69,
                    "time": 16.985151999999992,
                    "velocity": 0.4566929133858268,
                    "duration": 0.26539299999999955
                },
                {
                    "name": "D5",
                    "midi": 74,
                    "time": 17.383241499999993,
                    "velocity": 0.36220472440944884,
                    "duration": 0.13269650000000155
                },
                {
                    "name": "C5",
                    "midi": 72,
                    "time": 17.515937999999995,
                    "velocity": 0.4566929133858268,
                    "duration": 1.0615720000000017
                },
                {
                    "name": "B4",
                    "midi": 71,
                    "time": 18.577509999999997,
                    "velocity": 0.4330708661417323,
                    "duration": 0.26539299999999955
                },
                {
                    "name": "D5",
                    "midi": 74,
                    "time": 19.108295999999996,
                    "velocity": 0.5905511811023622,
                    "duration": 0.5307859999999991
                },
                {
                    "name": "G5",
                    "midi": 79,
                    "time": 19.639081999999995,
                    "velocity": 0.44881889763779526,
                    "duration": 0.13269650000000155
                },
                {
                    "name": "F#5",
                    "midi": 78,
                    "time": 19.771778499999996,
                    "velocity": 0.4330708661417323,
                    "duration": 0.13269650000000155
                },
                {
                    "name": "G5",
                    "midi": 79,
                    "time": 19.904474999999998,
                    "velocity": 0.44881889763779526,
                    "duration": 0.13269650000000155
                },
                {
                    "name": "A5",
                    "midi": 81,
                    "time": 20.0371715,
                    "velocity": 0.4330708661417323,
                    "duration": 0.13269650000000155
                },
                {
                    "name": "B5",
                    "midi": 83,
                    "time": 20.169868,
                    "velocity": 0.4881889763779528,
                    "duration": 0.13269650000000155
                },
                {
                    "name": "A5",
                    "midi": 81,
                    "time": 20.302564500000003,
                    "velocity": 0.4330708661417323,
                    "duration": 0.13269650000000155
                },
                {
                    "name": "B5",
                    "midi": 83,
                    "time": 20.435261000000004,
                    "velocity": 0.4881889763779528,
                    "duration": 0.13269650000000155
                },
                {
                    "name": "C6",
                    "midi": 84,
                    "time": 20.567957500000006,
                    "velocity": 0.4645669291338583,
                    "duration": 0.13269650000000155
                },
                {
                    "name": "D6",
                    "midi": 86,
                    "time": 20.700654000000007,
                    "velocity": 0.5905511811023622,
                    "duration": 0.5307859999999991
                },
                {
                    "name": "G5",
                    "midi": 79,
                    "time": 21.231440000000006,
                    "velocity": 0.44881889763779526,
                    "duration": 0.13269650000000155
                },
                {
                    "name": "F#5",
                    "midi": 78,
                    "time": 21.364136500000008,
                    "velocity": 0.4330708661417323,
                    "duration": 0.13269650000000155
                },
                {
                    "name": "G5",
                    "midi": 79,
                    "time": 21.49683300000001,
                    "velocity": 0.44881889763779526,
                    "duration": 0.13269650000000155
                },
                {
                    "name": "A5",
                    "midi": 81,
                    "time": 21.62952950000001,
                    "velocity": 0.4330708661417323,
                    "duration": 0.13269650000000155
                },
                {
                    "name": "B5",
                    "midi": 83,
                    "time": 21.762226000000013,
                    "velocity": 0.4881889763779528,
                    "duration": 0.13269650000000155
                },
                {
                    "name": "A5",
                    "midi": 81,
                    "time": 21.894922500000014,
                    "velocity": 0.4330708661417323,
                    "duration": 0.13269650000000155
                },
                {
                    "name": "B5",
                    "midi": 83,
                    "time": 22.027619000000016,
                    "velocity": 0.4881889763779528,
                    "duration": 0.13269650000000155
                },
                {
                    "name": "C6",
                    "midi": 84,
                    "time": 22.160315500000017,
                    "velocity": 0.4645669291338583,
                    "duration": 0.13269650000000155
                },
                {
                    "name": "D6",
                    "midi": 86,
                    "time": 22.29301200000002,
                    "velocity": 0.5984251968503937,
                    "duration": 0.5307859999999991
                },
                {
                    "name": "B4",
                    "midi": 71,
                    "time": 22.823798000000018,
                    "velocity": 0.4566929133858268,
                    "duration": 0.5307859999999991
                },
                {
                    "name": "A4",
                    "midi": 69,
                    "time": 23.354584000000017,
                    "velocity": 0.44881889763779526,
                    "duration": 0.06634825000000077
                },
                {
                    "name": "B4",
                    "midi": 71,
                    "time": 23.420932250000018,
                    "velocity": 0.3937007874015748,
                    "duration": 0.06634825000000077
                },
                {
                    "name": "A4",
                    "midi": 69,
                    "time": 23.48728050000002,
                    "velocity": 0.4094488188976378,
                    "duration": 0.06634825000000077
                },
                {
                    "name": "B4",
                    "midi": 71,
                    "time": 23.55362875000002,
                    "velocity": 0.4566929133858268,
                    "duration": 0.06634825000000077
                },
                {
                    "name": "A4",
                    "midi": 69,
                    "time": 23.61997700000002,
                    "velocity": 0.3858267716535433,
                    "duration": 0.0829353124999983
                },
                {
                    "name": "B4",
                    "midi": 71,
                    "time": 23.70291231250002,
                    "velocity": 0.4094488188976378,
                    "duration": 0.0829353124999983
                },
                {
                    "name": "A4",
                    "midi": 69,
                    "time": 23.785847625000017,
                    "velocity": 0.4094488188976378,
                    "duration": 0.0829353124999983
                },
                {
                    "name": "G4",
                    "midi": 67,
                    "time": 23.885370000000016,
                    "velocity": 0.4566929133858268,
                    "duration": 1.0615719999999982
                },
                {
                    "name": "G5",
                    "midi": 79,
                    "time": 25.477728000000013,
                    "velocity": 0.44881889763779526,
                    "duration": 0.5307859999999991
                },
                {
                    "name": "C6",
                    "midi": 84,
                    "time": 26.008514000000012,
                    "velocity": 0.44881889763779526,
                    "duration": 0.13269650000000155
                },
                {
                    "name": "E5",
                    "midi": 76,
                    "time": 26.539300000000015,
                    "velocity": 0.44881889763779526,
                    "duration": 0.26539299999999955
                },
                {
                    "name": "G5",
                    "midi": 79,
                    "time": 26.937389500000016,
                    "velocity": 0.3779527559055118,
                    "duration": 0.13269650000000155
                },
                {
                    "name": "F5",
                    "midi": 77,
                    "time": 27.070086000000018,
                    "velocity": 0.44881889763779526,
                    "duration": 0.5307859999999991
                },
                {
                    "name": "D6",
                    "midi": 86,
                    "time": 27.600872000000017,
                    "velocity": 0.4094488188976378,
                    "duration": 0.13269650000000155
                },
                {
                    "name": "D5",
                    "midi": 74,
                    "time": 28.13165800000002,
                    "velocity": 0.44881889763779526,
                    "duration": 0.26539299999999955
                },
                {
                    "name": "F5",
                    "midi": 77,
                    "time": 28.52974750000002,
                    "velocity": 0.4251968503937008,
                    "duration": 0.13269650000000155
                },
                {
                    "name": "E5",
                    "midi": 76,
                    "time": 28.662444000000022,
                    "velocity": 0.44881889763779526,
                    "duration": 0.5307859999999991
                },
                {
                    "name": "G5",
                    "midi": 79,
                    "time": 29.19323000000002,
                    "velocity": 0.4881889763779528,
                    "duration": 0.5307859999999991
                },
                {
                    "name": "G#5",
                    "midi": 80,
                    "time": 29.72401600000002,
                    "velocity": 0.4566929133858268,
                    "duration": 0.3980895000000011
                },
                {
                    "name": "A5",
                    "midi": 81,
                    "time": 30.137586758333356,
                    "velocity": 0.4015748031496063,
                    "duration": 0.13269650000000155
                },
                {
                    "name": "C5",
                    "midi": 72,
                    "time": 30.254802000000023,
                    "velocity": 0.4566929133858268,
                    "duration": 1.0615720000000017
                },
                {
                    "name": "B4",
                    "midi": 71,
                    "time": 31.316374000000025,
                    "velocity": 0.4330708661417323,
                    "duration": 0.26539299999999955
                },
                {
                    "name": "G4",
                    "midi": 67,
                    "time": 31.847160000000024,
                    "velocity": 0.5905511811023622,
                    "duration": 0.5307859999999991
                },
                {
                    "name": "C5",
                    "midi": 72,
                    "time": 32.37794600000002,
                    "velocity": 0.44881889763779526,
                    "duration": 0.13269650000000155
                },
                {
                    "name": "B4",
                    "midi": 71,
                    "time": 32.510642500000024,
                    "velocity": 0.4330708661417323,
                    "duration": 0.13269650000000155
                },
                {
                    "name": "C5",
                    "midi": 72,
                    "time": 32.63780997916669,
                    "velocity": 0.44881889763779526,
                    "duration": 0.13269650000000155
                },
                {
                    "name": "D5",
                    "midi": 74,
                    "time": 32.77603550000003,
                    "velocity": 0.4330708661417323,
                    "duration": 0.13269650000000155
                },
                {
                    "name": "E5",
                    "midi": 76,
                    "time": 32.90320297916669,
                    "velocity": 0.4881889763779528,
                    "duration": 0.13269650000000155
                },
                {
                    "name": "D5",
                    "midi": 74,
                    "time": 33.04142850000003,
                    "velocity": 0.4330708661417323,
                    "duration": 0.13269650000000155
                },
                {
                    "name": "E5",
                    "midi": 76,
                    "time": 33.168595979166696,
                    "velocity": 0.4881889763779528,
                    "duration": 0.13269650000000155
                },
                {
                    "name": "F5",
                    "midi": 77,
                    "time": 33.306821500000034,
                    "velocity": 0.4645669291338583,
                    "duration": 0.13269650000000155
                },
                {
                    "name": "G5",
                    "midi": 79,
                    "time": 33.439518000000035,
                    "velocity": 0.6377952755905512,
                    "duration": 0.5307859999999991
                },
                {
                    "name": "C5",
                    "midi": 72,
                    "time": 33.970304000000034,
                    "velocity": 0.44881889763779526,
                    "duration": 0.2653930000000031
                },
                {
                    "name": "D5",
                    "midi": 74,
                    "time": 34.23569700000004,
                    "velocity": 0.44881889763779526,
                    "duration": 0.13269650000000155
                },
                {
                    "name": "E5",
                    "midi": 76,
                    "time": 34.36839350000004,
                    "velocity": 0.4330708661417323,
                    "duration": 0.13269650000000155
                },
                {
                    "name": "F5",
                    "midi": 77,
                    "time": 34.50109000000004,
                    "velocity": 0.49606299212598426,
                    "duration": 0.13269650000000155
                },
                {
                    "name": "G5",
                    "midi": 79,
                    "time": 34.63378650000004,
                    "velocity": 0.5118110236220472,
                    "duration": 0.13269650000000155
                },
                {
                    "name": "A5",
                    "midi": 81,
                    "time": 34.76648300000004,
                    "velocity": 0.5196850393700787,
                    "duration": 0.13269650000000155
                },
                {
                    "name": "B5",
                    "midi": 83,
                    "time": 34.899179500000045,
                    "velocity": 0.5433070866141733,
                    "duration": 0.13269650000000155
                },
                {
                    "name": "C6",
                    "midi": 84,
                    "time": 35.03187600000005,
                    "velocity": 0.6141732283464567,
                    "duration": 0.5307859999999991
                },
                {
                    "name": "E5",
                    "midi": 76,
                    "time": 35.562662000000046,
                    "velocity": 0.5433070866141733,
                    "duration": 0.5307859999999991
                },
                {
                    "name": "C5",
                    "midi": 72,
                    "time": 35.562662000000046,
                    "velocity": 0.4566929133858268,
                    "duration": 0.5307859999999991
                },
                {
                    "name": "B4",
                    "midi": 71,
                    "time": 36.093448000000045,
                    "velocity": 0.4566929133858268,
                    "duration": 0.5307859999999991
                },
                {
                    "name": "D5",
                    "midi": 74,
                    "time": 36.093448000000045,
                    "velocity": 0.5433070866141733,
                    "duration": 0.5307859999999991
                },
                {
                    "name": "G4",
                    "midi": 67,
                    "time": 36.624234000000044,
                    "velocity": 0.47244094488188976,
                    "duration": 1.3269650000000013
                },
                {
                    "name": "C5",
                    "midi": 72,
                    "time": 36.624234000000044,
                    "velocity": 0.5433070866141733,
                    "duration": 1.3269650000000013
                },
                {
                    "name": "E4",
                    "midi": 64,
                    "time": 36.624234000000044,
                    "velocity": 0.47244094488188976,
                    "duration": 1.3269650000000013
                },
                {
                    "name": "G5",
                    "midi": 79,
                    "time": 38.21659200000005,
                    "velocity": 0.44881889763779526,
                    "duration": 0.5307859999999991
                },
                {
                    "name": "C6",
                    "midi": 84,
                    "time": 38.74737800000005,
                    "velocity": 0.44881889763779526,
                    "duration": 0.13269650000000155
                },
                {
                    "name": "E5",
                    "midi": 76,
                    "time": 39.27816400000005,
                    "velocity": 0.44881889763779526,
                    "duration": 0.2653930000000031
                },
                {
                    "name": "G5",
                    "midi": 79,
                    "time": 39.67625350000005,
                    "velocity": 0.3779527559055118,
                    "duration": 0.13269650000000155
                },
                {
                    "name": "F5",
                    "midi": 77,
                    "time": 39.80895000000005,
                    "velocity": 0.44881889763779526,
                    "duration": 0.5307859999999991
                },
                {
                    "name": "D6",
                    "midi": 86,
                    "time": 40.33973600000005,
                    "velocity": 0.4094488188976378,
                    "duration": 0.13269650000000155
                },
                {
                    "name": "D5",
                    "midi": 74,
                    "time": 40.87052200000005,
                    "velocity": 0.44881889763779526,
                    "duration": 0.2653930000000031
                },
                {
                    "name": "F5",
                    "midi": 77,
                    "time": 41.268611500000056,
                    "velocity": 0.4251968503937008,
                    "duration": 0.13269650000000155
                },
                {
                    "name": "E5",
                    "midi": 76,
                    "time": 41.40130800000006,
                    "velocity": 0.44881889763779526,
                    "duration": 0.5307859999999991
                },
                {
                    "name": "G5",
                    "midi": 79,
                    "time": 41.932094000000056,
                    "velocity": 0.4881889763779528,
                    "duration": 0.5307859999999991
                },
                {
                    "name": "G#5",
                    "midi": 80,
                    "time": 42.462880000000055,
                    "velocity": 0.4566929133858268,
                    "duration": 0.39808949999999754
                },
                {
                    "name": "A5",
                    "midi": 81,
                    "time": 42.876450758333384,
                    "velocity": 0.4015748031496063,
                    "duration": 0.13269649999999444
                },
                {
                    "name": "C5",
                    "midi": 72,
                    "time": 42.99366600000005,
                    "velocity": 0.4645669291338583,
                    "duration": 1.0615719999999982
                },
                {
                    "name": "B4",
                    "midi": 71,
                    "time": 44.055238000000045,
                    "velocity": 0.4330708661417323,
                    "duration": 0.2653930000000031
                },
                {
                    "name": "G4",
                    "midi": 67,
                    "time": 44.58602400000005,
                    "velocity": 0.5905511811023622,
                    "duration": 0.5307859999999991
                },
                {
                    "name": "C5",
                    "midi": 72,
                    "time": 45.11681000000005,
                    "velocity": 0.44881889763779526,
                    "duration": 0.13269650000000155
                },
                {
                    "name": "B4",
                    "midi": 71,
                    "time": 45.24950650000005,
                    "velocity": 0.4330708661417323,
                    "duration": 0.13269650000000155
                },
                {
                    "name": "C5",
                    "midi": 72,
                    "time": 45.37667397916672,
                    "velocity": 0.44881889763779526,
                    "duration": 0.13269650000000155
                },
                {
                    "name": "D5",
                    "midi": 74,
                    "time": 45.514899500000055,
                    "velocity": 0.4330708661417323,
                    "duration": 0.13269650000000155
                },
                {
                    "name": "E5",
                    "midi": 76,
                    "time": 45.64206697916672,
                    "velocity": 0.4881889763779528,
                    "duration": 0.13269650000000155
                },
                {
                    "name": "D5",
                    "midi": 74,
                    "time": 45.78029250000006,
                    "velocity": 0.4330708661417323,
                    "duration": 0.13269650000000155
                },
                {
                    "name": "E5",
                    "midi": 76,
                    "time": 45.907459979166724,
                    "velocity": 0.4881889763779528,
                    "duration": 0.13269650000000155
                },
                {
                    "name": "F5",
                    "midi": 77,
                    "time": 46.04568550000006,
                    "velocity": 0.4645669291338583,
                    "duration": 0.13269650000000155
                },
                {
                    "name": "G5",
                    "midi": 79,
                    "time": 46.17838200000006,
                    "velocity": 0.6377952755905512,
                    "duration": 0.5307859999999991
                },
                {
                    "name": "C5",
                    "midi": 72,
                    "time": 46.70916800000006,
                    "velocity": 0.44881889763779526,
                    "duration": 0.2653930000000031
                },
                {
                    "name": "D5",
                    "midi": 74,
                    "time": 46.974561000000065,
                    "velocity": 0.44881889763779526,
                    "duration": 0.13269650000000155
                },
                {
                    "name": "E5",
                    "midi": 76,
                    "time": 47.10725750000007,
                    "velocity": 0.4330708661417323,
                    "duration": 0.13269650000000155
                },
                {
                    "name": "F5",
                    "midi": 77,
                    "time": 47.23995400000007,
                    "velocity": 0.49606299212598426,
                    "duration": 0.13269650000000155
                },
                {
                    "name": "G5",
                    "midi": 79,
                    "time": 47.37265050000007,
                    "velocity": 0.5118110236220472,
                    "duration": 0.13269650000000155
                },
                {
                    "name": "A5",
                    "midi": 81,
                    "time": 47.50534700000007,
                    "velocity": 0.5196850393700787,
                    "duration": 0.13269650000000155
                },
                {
                    "name": "B5",
                    "midi": 83,
                    "time": 47.63804350000007,
                    "velocity": 0.5433070866141733,
                    "duration": 0.13269650000000155
                },
                {
                    "name": "C6",
                    "midi": 84,
                    "time": 47.770740000000075,
                    "velocity": 0.6141732283464567,
                    "duration": 0.5307859999999991
                },
                {
                    "name": "E5",
                    "midi": 76,
                    "time": 48.301526000000074,
                    "velocity": 0.5433070866141733,
                    "duration": 0.5307859999999991
                },
                {
                    "name": "C5",
                    "midi": 72,
                    "time": 48.301526000000074,
                    "velocity": 0.4566929133858268,
                    "duration": 0.5307859999999991
                },
                {
                    "name": "B4",
                    "midi": 71,
                    "time": 48.83231200000007,
                    "velocity": 0.4566929133858268,
                    "duration": 0.5307859999999991
                },
                {
                    "name": "D5",
                    "midi": 74,
                    "time": 48.83231200000007,
                    "velocity": 0.5433070866141733,
                    "duration": 0.5307859999999991
                },
                {
                    "name": "G4",
                    "midi": 67,
                    "time": 49.36309800000007,
                    "velocity": 0.47244094488188976,
                    "duration": 1.3269650000000013
                },
                {
                    "name": "C5",
                    "midi": 72,
                    "time": 49.36309800000007,
                    "velocity": 0.5433070866141733,
                    "duration": 1.3269650000000013
                },
                {
                    "name": "E4",
                    "midi": 64,
                    "time": 49.36309800000007,
                    "velocity": 0.47244094488188976,
                    "duration": 1.3269650000000013
                },
                {
                    "name": "G4",
                    "midi": 67,
                    "time": 51.22084900000007,
                    "velocity": 0.36220472440944884,
                    "duration": 0.2653930000000031
                },
                {
                    "name": "G4",
                    "midi": 67,
                    "time": 51.75163500000008,
                    "velocity": 0.33858267716535434,
                    "duration": 0.2653930000000031
                },
                {
                    "name": "G4",
                    "midi": 67,
                    "time": 52.282421000000085,
                    "velocity": 0.33070866141732286,
                    "duration": 0.2653930000000031
                },
                {
                    "name": "G5",
                    "midi": 79,
                    "time": 52.81320700000009,
                    "velocity": 0.36220472440944884,
                    "duration": 0.06634824999999722
                },
                {
                    "name": "D#5",
                    "midi": 75,
                    "time": 52.81320700000009,
                    "velocity": 0.30708661417322836,
                    "duration": 0.06634824999999722
                },
                {
                    "name": "G5",
                    "midi": 79,
                    "time": 53.07860000000009,
                    "velocity": 0.3779527559055118,
                    "duration": 0.2653930000000031
                },
                {
                    "name": "D#5",
                    "midi": 75,
                    "time": 53.07860000000009,
                    "velocity": 0.31496062992125984,
                    "duration": 0.2653930000000031
                },
                {
                    "name": "F5",
                    "midi": 77,
                    "time": 53.34399300000009,
                    "velocity": 0.3228346456692913,
                    "duration": 0.06634824999999722
                },
                {
                    "name": "D5",
                    "midi": 74,
                    "time": 53.34399300000009,
                    "velocity": 0.2677165354330709,
                    "duration": 0.06634824999999722
                },
                {
                    "name": "D5",
                    "midi": 74,
                    "time": 53.609386000000086,
                    "velocity": 0.30708661417322836,
                    "duration": 0.2653930000000031
                },
                {
                    "name": "F5",
                    "midi": 77,
                    "time": 53.609386000000086,
                    "velocity": 0.36220472440944884,
                    "duration": 0.2653930000000031
                },
                {
                    "name": "D#5",
                    "midi": 75,
                    "time": 53.87477900000009,
                    "velocity": 0.31496062992125984,
                    "duration": 0.06634824999999722
                },
                {
                    "name": "C5",
                    "midi": 72,
                    "time": 53.87477900000009,
                    "velocity": 0.25984251968503935,
                    "duration": 0.06634824999999722
                },
                {
                    "name": "G4",
                    "midi": 67,
                    "time": 54.40556500000009,
                    "velocity": 0.36220472440944884,
                    "duration": 0.2653930000000031
                },
                {
                    "name": "G4",
                    "midi": 67,
                    "time": 54.936351000000094,
                    "velocity": 0.33858267716535434,
                    "duration": 0.2653930000000031
                },
                {
                    "name": "G4",
                    "midi": 67,
                    "time": 55.4671370000001,
                    "velocity": 0.33070866141732286,
                    "duration": 0.2653930000000031
                },
                {
                    "name": "F5",
                    "midi": 77,
                    "time": 55.99792300000011,
                    "velocity": 0.36220472440944884,
                    "duration": 0.06634824999999722
                },
                {
                    "name": "D5",
                    "midi": 74,
                    "time": 55.99792300000011,
                    "velocity": 0.30708661417322836,
                    "duration": 0.06634824999999722
                },
                {
                    "name": "F5",
                    "midi": 77,
                    "time": 56.2633160000001,
                    "velocity": 0.3779527559055118,
                    "duration": 0.2653930000000031
                },
                {
                    "name": "D5",
                    "midi": 74,
                    "time": 56.2633160000001,
                    "velocity": 0.31496062992125984,
                    "duration": 0.2653930000000031
                },
                {
                    "name": "D#5",
                    "midi": 75,
                    "time": 56.528709000000106,
                    "velocity": 0.3228346456692913,
                    "duration": 0.06634824999999722
                },
                {
                    "name": "C5",
                    "midi": 72,
                    "time": 56.528709000000106,
                    "velocity": 0.2677165354330709,
                    "duration": 0.06634824999999722
                },
                {
                    "name": "C5",
                    "midi": 72,
                    "time": 56.7941020000001,
                    "velocity": 0.30708661417322836,
                    "duration": 0.2653930000000031
                },
                {
                    "name": "D#5",
                    "midi": 75,
                    "time": 56.7941020000001,
                    "velocity": 0.36220472440944884,
                    "duration": 0.2653930000000031
                },
                {
                    "name": "D5",
                    "midi": 74,
                    "time": 57.059495000000105,
                    "velocity": 0.31496062992125984,
                    "duration": 0.06634824999999722
                },
                {
                    "name": "B4",
                    "midi": 71,
                    "time": 57.059495000000105,
                    "velocity": 0.25984251968503935,
                    "duration": 0.06634824999999722
                },
                {
                    "name": "C5",
                    "midi": 72,
                    "time": 57.4575845000001,
                    "velocity": 0.30708661417322836,
                    "duration": 0.13269650000000155
                },
                {
                    "name": "D#5",
                    "midi": 75,
                    "time": 57.590281000000104,
                    "velocity": 0.3700787401574803,
                    "duration": 0.13269650000000155
                },
                {
                    "name": "C5",
                    "midi": 72,
                    "time": 57.722977500000106,
                    "velocity": 0.3228346456692913,
                    "duration": 0.13269650000000155
                },
                {
                    "name": "C5",
                    "midi": 72,
                    "time": 57.98837050000011,
                    "velocity": 0.33070866141732286,
                    "duration": 0.13269650000000155
                },
                {
                    "name": "D#5",
                    "midi": 75,
                    "time": 58.12106700000011,
                    "velocity": 0.3937007874015748,
                    "duration": 0.13269650000000155
                },
                {
                    "name": "C5",
                    "midi": 72,
                    "time": 58.25376350000011,
                    "velocity": 0.33070866141732286,
                    "duration": 0.13269650000000155
                },
                {
                    "name": "C5",
                    "midi": 72,
                    "time": 58.519156500000115,
                    "velocity": 0.36220472440944884,
                    "duration": 0.13269650000000155
                },
                {
                    "name": "D#5",
                    "midi": 75,
                    "time": 58.651853000000116,
                    "velocity": 0.4330708661417323,
                    "duration": 0.13269650000000155
                },
                {
                    "name": "C5",
                    "midi": 72,
                    "time": 58.78454950000012,
                    "velocity": 0.3700787401574803,
                    "duration": 0.13269650000000155
                },
                {
                    "name": "A5",
                    "midi": 81,
                    "time": 59.18263900000012,
                    "velocity": 0.36220472440944884,
                    "duration": 0.06634824999999722
                },
                {
                    "name": "C6",
                    "midi": 84,
                    "time": 59.18263900000012,
                    "velocity": 0.4330708661417323,
                    "duration": 0.06634824999999722
                },
                {
                    "name": "A5",
                    "midi": 81,
                    "time": 59.44803200000012,
                    "velocity": 0.4015748031496063,
                    "duration": 0.2653930000000031
                },
                {
                    "name": "C6",
                    "midi": 84,
                    "time": 59.44803200000012,
                    "velocity": 0.4881889763779528,
                    "duration": 0.2653930000000031
                },
                {
                    "name": "G5",
                    "midi": 79,
                    "time": 59.71342500000012,
                    "velocity": 0.33858267716535434,
                    "duration": 0.06634824999999722
                },
                {
                    "name": "A#5",
                    "midi": 82,
                    "time": 59.71342500000012,
                    "velocity": 0.4015748031496063,
                    "duration": 0.06634824999999722
                },
                {
                    "name": "A#5",
                    "midi": 82,
                    "time": 59.97881800000012,
                    "velocity": 0.44881889763779526,
                    "duration": 0.2653930000000031
                },
                {
                    "name": "G5",
                    "midi": 79,
                    "time": 59.97881800000012,
                    "velocity": 0.3779527559055118,
                    "duration": 0.2653930000000031
                },
                {
                    "name": "F#5",
                    "midi": 78,
                    "time": 60.24421100000012,
                    "velocity": 0.3228346456692913,
                    "duration": 0.2653930000000031
                },
                {
                    "name": "A5",
                    "midi": 81,
                    "time": 60.24421100000012,
                    "velocity": 0.3858267716535433,
                    "duration": 0.2653930000000031
                },
                {
                    "name": "A#5",
                    "midi": 82,
                    "time": 60.509604000000124,
                    "velocity": 0.4566929133858268,
                    "duration": 0.5307859999999991
                },
                {
                    "name": "G5",
                    "midi": 79,
                    "time": 60.509604000000124,
                    "velocity": 0.4566929133858268,
                    "duration": 0.5307859999999991
                },
                {
                    "name": "G5",
                    "midi": 79,
                    "time": 61.04039000000012,
                    "velocity": 0.3779527559055118,
                    "duration": 0.5307859999999991
                },
                {
                    "name": "A#4",
                    "midi": 70,
                    "time": 61.04039000000012,
                    "velocity": 0.3779527559055118,
                    "duration": 0.5307859999999991
                },
                {
                    "name": "F#5",
                    "midi": 78,
                    "time": 61.57117600000012,
                    "velocity": 0.3700787401574803,
                    "duration": 0.5307859999999991
                },
                {
                    "name": "A4",
                    "midi": 69,
                    "time": 61.57117600000012,
                    "velocity": 0.3700787401574803,
                    "duration": 0.5307859999999991
                },
                {
                    "name": "G5",
                    "midi": 79,
                    "time": 62.10196200000012,
                    "velocity": 0.4330708661417323,
                    "duration": 0.5307859999999991
                },
                {
                    "name": "A#4",
                    "midi": 70,
                    "time": 62.10196200000012,
                    "velocity": 0.4330708661417323,
                    "duration": 0.5307859999999991
                },
                {
                    "name": "G4",
                    "midi": 67,
                    "time": 63.95971300000012,
                    "velocity": 0.36220472440944884,
                    "duration": 0.2653930000000031
                },
                {
                    "name": "G4",
                    "midi": 67,
                    "time": 64.49049900000013,
                    "velocity": 0.33858267716535434,
                    "duration": 0.2653930000000031
                },
                {
                    "name": "G4",
                    "midi": 67,
                    "time": 65.02128500000013,
                    "velocity": 0.33070866141732286,
                    "duration": 0.2653930000000031
                },
                {
                    "name": "G5",
                    "midi": 79,
                    "time": 65.55207100000014,
                    "velocity": 0.36220472440944884,
                    "duration": 0.06634825000000433
                },
                {
                    "name": "D#5",
                    "midi": 75,
                    "time": 65.55207100000014,
                    "velocity": 0.30708661417322836,
                    "duration": 0.06634825000000433
                },
                {
                    "name": "G5",
                    "midi": 79,
                    "time": 65.81746400000014,
                    "velocity": 0.3779527559055118,
                    "duration": 0.2653930000000031
                },
                {
                    "name": "D#5",
                    "midi": 75,
                    "time": 65.81746400000014,
                    "velocity": 0.31496062992125984,
                    "duration": 0.2653930000000031
                },
                {
                    "name": "F5",
                    "midi": 77,
                    "time": 66.08285700000015,
                    "velocity": 0.3228346456692913,
                    "duration": 0.06634825000000433
                },
                {
                    "name": "D5",
                    "midi": 74,
                    "time": 66.08285700000015,
                    "velocity": 0.2677165354330709,
                    "duration": 0.06634825000000433
                },
                {
                    "name": "D5",
                    "midi": 74,
                    "time": 66.34825000000015,
                    "velocity": 0.30708661417322836,
                    "duration": 0.2653930000000031
                },
                {
                    "name": "F5",
                    "midi": 77,
                    "time": 66.34825000000015,
                    "velocity": 0.36220472440944884,
                    "duration": 0.2653930000000031
                },
                {
                    "name": "D#5",
                    "midi": 75,
                    "time": 66.61364300000015,
                    "velocity": 0.31496062992125984,
                    "duration": 0.06634825000000433
                },
                {
                    "name": "C5",
                    "midi": 72,
                    "time": 66.61364300000015,
                    "velocity": 0.25984251968503935,
                    "duration": 0.06634825000000433
                },
                {
                    "name": "G4",
                    "midi": 67,
                    "time": 67.14442900000016,
                    "velocity": 0.36220472440944884,
                    "duration": 0.2653930000000031
                },
                {
                    "name": "G4",
                    "midi": 67,
                    "time": 67.67521500000016,
                    "velocity": 0.33858267716535434,
                    "duration": 0.2653930000000031
                },
                {
                    "name": "G4",
                    "midi": 67,
                    "time": 68.20600100000017,
                    "velocity": 0.33070866141732286,
                    "duration": 0.2653930000000031
                },
                {
                    "name": "F5",
                    "midi": 77,
                    "time": 68.73678700000018,
                    "velocity": 0.36220472440944884,
                    "duration": 0.06634825000000433
                },
                {
                    "name": "D5",
                    "midi": 74,
                    "time": 68.73678700000018,
                    "velocity": 0.30708661417322836,
                    "duration": 0.06634825000000433
                },
                {
                    "name": "F5",
                    "midi": 77,
                    "time": 69.00218000000018,
                    "velocity": 0.3779527559055118,
                    "duration": 0.2653930000000031
                },
                {
                    "name": "D5",
                    "midi": 74,
                    "time": 69.00218000000018,
                    "velocity": 0.31496062992125984,
                    "duration": 0.2653930000000031
                },
                {
                    "name": "D#5",
                    "midi": 75,
                    "time": 69.26757300000018,
                    "velocity": 0.3228346456692913,
                    "duration": 0.06634825000000433
                },
                {
                    "name": "C5",
                    "midi": 72,
                    "time": 69.26757300000018,
                    "velocity": 0.2677165354330709,
                    "duration": 0.06634825000000433
                },
                {
                    "name": "C5",
                    "midi": 72,
                    "time": 69.53296600000019,
                    "velocity": 0.30708661417322836,
                    "duration": 0.2653930000000031
                },
                {
                    "name": "D#5",
                    "midi": 75,
                    "time": 69.53296600000019,
                    "velocity": 0.36220472440944884,
                    "duration": 0.2653930000000031
                },
                {
                    "name": "D5",
                    "midi": 74,
                    "time": 69.79835900000019,
                    "velocity": 0.31496062992125984,
                    "duration": 0.06634825000000433
                },
                {
                    "name": "B4",
                    "midi": 71,
                    "time": 69.79835900000019,
                    "velocity": 0.25984251968503935,
                    "duration": 0.06634825000000433
                },
                {
                    "name": "C5",
                    "midi": 72,
                    "time": 70.19644850000019,
                    "velocity": 0.30708661417322836,
                    "duration": 0.13269649999999444
                },
                {
                    "name": "D#5",
                    "midi": 75,
                    "time": 70.32914500000018,
                    "velocity": 0.3700787401574803,
                    "duration": 0.13269649999999444
                },
                {
                    "name": "C5",
                    "midi": 72,
                    "time": 70.46184150000018,
                    "velocity": 0.3228346456692913,
                    "duration": 0.13269649999999444
                },
                {
                    "name": "C5",
                    "midi": 72,
                    "time": 70.72723450000016,
                    "velocity": 0.33070866141732286,
                    "duration": 0.13269649999999444
                },
                {
                    "name": "D#5",
                    "midi": 75,
                    "time": 70.85993100000016,
                    "velocity": 0.3937007874015748,
                    "duration": 0.13269649999999444
                },
                {
                    "name": "C5",
                    "midi": 72,
                    "time": 70.99262750000015,
                    "velocity": 0.33070866141732286,
                    "duration": 0.13269649999999444
                },
                {
                    "name": "C5",
                    "midi": 72,
                    "time": 71.25802050000014,
                    "velocity": 0.36220472440944884,
                    "duration": 0.13269649999999444
                },
                {
                    "name": "D#5",
                    "midi": 75,
                    "time": 71.39071700000014,
                    "velocity": 0.4330708661417323,
                    "duration": 0.13269649999999444
                },
                {
                    "name": "C5",
                    "midi": 72,
                    "time": 71.52341350000013,
                    "velocity": 0.3700787401574803,
                    "duration": 0.13269649999999444
                },
                {
                    "name": "A5",
                    "midi": 81,
                    "time": 71.92150300000013,
                    "velocity": 0.36220472440944884,
                    "duration": 0.06634825000000433
                },
                {
                    "name": "C6",
                    "midi": 84,
                    "time": 71.92150300000013,
                    "velocity": 0.4330708661417323,
                    "duration": 0.06634825000000433
                },
                {
                    "name": "A5",
                    "midi": 81,
                    "time": 72.18689600000013,
                    "velocity": 0.4015748031496063,
                    "duration": 0.2653930000000031
                },
                {
                    "name": "C6",
                    "midi": 84,
                    "time": 72.18689600000013,
                    "velocity": 0.4881889763779528,
                    "duration": 0.2653930000000031
                },
                {
                    "name": "G5",
                    "midi": 79,
                    "time": 72.45228900000014,
                    "velocity": 0.33858267716535434,
                    "duration": 0.06634825000000433
                },
                {
                    "name": "A#5",
                    "midi": 82,
                    "time": 72.45228900000014,
                    "velocity": 0.4015748031496063,
                    "duration": 0.06634825000000433
                },
                {
                    "name": "A#5",
                    "midi": 82,
                    "time": 72.71768200000014,
                    "velocity": 0.44881889763779526,
                    "duration": 0.2653930000000031
                },
                {
                    "name": "G5",
                    "midi": 79,
                    "time": 72.71768200000014,
                    "velocity": 0.3779527559055118,
                    "duration": 0.2653930000000031
                },
                {
                    "name": "F#5",
                    "midi": 78,
                    "time": 72.98307500000014,
                    "velocity": 0.3228346456692913,
                    "duration": 0.2653930000000031
                },
                {
                    "name": "A5",
                    "midi": 81,
                    "time": 72.98307500000014,
                    "velocity": 0.3858267716535433,
                    "duration": 0.2653930000000031
                },
                {
                    "name": "A#5",
                    "midi": 82,
                    "time": 73.24846800000014,
                    "velocity": 0.4566929133858268,
                    "duration": 0.5307860000000062
                },
                {
                    "name": "G5",
                    "midi": 79,
                    "time": 73.24846800000014,
                    "velocity": 0.4566929133858268,
                    "duration": 0.5307860000000062
                },
                {
                    "name": "G5",
                    "midi": 79,
                    "time": 73.77925400000015,
                    "velocity": 0.3779527559055118,
                    "duration": 0.5307860000000062
                },
                {
                    "name": "A#4",
                    "midi": 70,
                    "time": 73.77925400000015,
                    "velocity": 0.3779527559055118,
                    "duration": 0.5307860000000062
                },
                {
                    "name": "F#5",
                    "midi": 78,
                    "time": 74.31004000000016,
                    "velocity": 0.3700787401574803,
                    "duration": 0.5307860000000062
                },
                {
                    "name": "A4",
                    "midi": 69,
                    "time": 74.31004000000016,
                    "velocity": 0.3700787401574803,
                    "duration": 0.5307860000000062
                },
                {
                    "name": "G5",
                    "midi": 79,
                    "time": 74.84082600000016,
                    "velocity": 0.4330708661417323,
                    "duration": 0.5307860000000062
                },
                {
                    "name": "A#4",
                    "midi": 70,
                    "time": 74.84082600000016,
                    "velocity": 0.4330708661417323,
                    "duration": 0.5307860000000062
                },
                {
                    "name": "C5",
                    "midi": 72,
                    "time": 76.69857700000017,
                    "velocity": 0.36220472440944884,
                    "duration": 0.2653930000000031
                },
                {
                    "name": "C5",
                    "midi": 72,
                    "time": 77.22936300000018,
                    "velocity": 0.33858267716535434,
                    "duration": 0.2653930000000031
                },
                {
                    "name": "C5",
                    "midi": 72,
                    "time": 77.76014900000018,
                    "velocity": 0.33070866141732286,
                    "duration": 0.2653930000000031
                },
                {
                    "name": "C5",
                    "midi": 72,
                    "time": 78.02554200000019,
                    "velocity": 0.44881889763779526,
                    "duration": 0.13269649999999444
                },
                {
                    "name": "D5",
                    "midi": 74,
                    "time": 78.15823850000018,
                    "velocity": 0.3937007874015748,
                    "duration": 0.13269649999999444
                },
                {
                    "name": "E5",
                    "midi": 76,
                    "time": 78.29093500000018,
                    "velocity": 0.4094488188976378,
                    "duration": 0.13269649999999444
                },
                {
                    "name": "F5",
                    "midi": 77,
                    "time": 78.42363150000017,
                    "velocity": 0.4330708661417323,
                    "duration": 0.13269649999999444
                },
                {
                    "name": "G5",
                    "midi": 79,
                    "time": 78.55632800000016,
                    "velocity": 0.4330708661417323,
                    "duration": 0.13269649999999444
                },
                {
                    "name": "G#5",
                    "midi": 80,
                    "time": 78.68902450000016,
                    "velocity": 0.4094488188976378,
                    "duration": 0.13269649999999444
                },
                {
                    "name": "A#5",
                    "midi": 82,
                    "time": 78.82172100000015,
                    "velocity": 0.4330708661417323,
                    "duration": 0.13269649999999444
                },
                {
                    "name": "C6",
                    "midi": 84,
                    "time": 78.95441750000015,
                    "velocity": 0.4330708661417323,
                    "duration": 0.13269649999999444
                },
                {
                    "name": "G#5",
                    "midi": 80,
                    "time": 79.08711400000014,
                    "velocity": 0.49606299212598426,
                    "duration": 0.5307860000000062
                },
                {
                    "name": "D5",
                    "midi": 74,
                    "time": 79.88329300000015,
                    "velocity": 0.3937007874015748,
                    "duration": 0.2653930000000031
                },
                {
                    "name": "D5",
                    "midi": 74,
                    "time": 80.41407900000016,
                    "velocity": 0.3700787401574803,
                    "duration": 0.2653930000000031
                },
                {
                    "name": "D5",
                    "midi": 74,
                    "time": 80.94486500000016,
                    "velocity": 0.36220472440944884,
                    "duration": 0.2653930000000031
                },
                {
                    "name": "D5",
                    "midi": 74,
                    "time": 81.21025800000017,
                    "velocity": 0.4645669291338583,
                    "duration": 0.13269649999999444
                },
                {
                    "name": "E5",
                    "midi": 76,
                    "time": 81.34295450000016,
                    "velocity": 0.4094488188976378,
                    "duration": 0.13269649999999444
                },
                {
                    "name": "F#5",
                    "midi": 78,
                    "time": 81.47565100000016,
                    "velocity": 0.4330708661417323,
                    "duration": 0.13269649999999444
                },
                {
                    "name": "G5",
                    "midi": 79,
                    "time": 81.60834750000015,
                    "velocity": 0.44881889763779526,
                    "duration": 0.13269649999999444
                },
                {
                    "name": "A5",
                    "midi": 81,
                    "time": 81.74104400000014,
                    "velocity": 0.44881889763779526,
                    "duration": 0.13269649999999444
                },
                {
                    "name": "B5",
                    "midi": 83,
                    "time": 81.87374050000014,
                    "velocity": 0.4330708661417323,
                    "duration": 0.13269649999999444
                },
                {
                    "name": "C6",
                    "midi": 84,
                    "time": 82.00643700000013,
                    "velocity": 0.44881889763779526,
                    "duration": 0.13269649999999444
                },
                {
                    "name": "D6",
                    "midi": 86,
                    "time": 82.13913350000013,
                    "velocity": 0.44881889763779526,
                    "duration": 0.13269649999999444
                },
                {
                    "name": "B5",
                    "midi": 83,
                    "time": 82.27183000000012,
                    "velocity": 0.5118110236220472,
                    "duration": 0.5307860000000062
                },
                {
                    "name": "G4",
                    "midi": 67,
                    "time": 83.06800900000013,
                    "velocity": 0.36220472440944884,
                    "duration": 0.2653930000000031
                },
                {
                    "name": "G4",
                    "midi": 67,
                    "time": 83.59879500000014,
                    "velocity": 0.33858267716535434,
                    "duration": 0.2653930000000031
                },
                {
                    "name": "G4",
                    "midi": 67,
                    "time": 84.12958100000014,
                    "velocity": 0.33070866141732286,
                    "duration": 0.2653930000000031
                },
                {
                    "name": "G5",
                    "midi": 79,
                    "time": 84.66036700000015,
                    "velocity": 0.36220472440944884,
                    "duration": 0.06634825000000433
                },
                {
                    "name": "D#5",
                    "midi": 75,
                    "time": 84.66036700000015,
                    "velocity": 0.30708661417322836,
                    "duration": 0.06634825000000433
                },
                {
                    "name": "G5",
                    "midi": 79,
                    "time": 84.92576000000015,
                    "velocity": 0.3779527559055118,
                    "duration": 0.2653930000000031
                },
                {
                    "name": "D#5",
                    "midi": 75,
                    "time": 84.92576000000015,
                    "velocity": 0.31496062992125984,
                    "duration": 0.2653930000000031
                },
                {
                    "name": "F5",
                    "midi": 77,
                    "time": 85.19115300000016,
                    "velocity": 0.3228346456692913,
                    "duration": 0.06634825000000433
                },
                {
                    "name": "D5",
                    "midi": 74,
                    "time": 85.19115300000016,
                    "velocity": 0.2677165354330709,
                    "duration": 0.06634825000000433
                },
                {
                    "name": "D5",
                    "midi": 74,
                    "time": 85.45654600000016,
                    "velocity": 0.30708661417322836,
                    "duration": 0.2653930000000031
                },
                {
                    "name": "F5",
                    "midi": 77,
                    "time": 85.45654600000016,
                    "velocity": 0.36220472440944884,
                    "duration": 0.2653930000000031
                },
                {
                    "name": "D#5",
                    "midi": 75,
                    "time": 85.72193900000016,
                    "velocity": 0.31496062992125984,
                    "duration": 0.06634825000000433
                },
                {
                    "name": "C5",
                    "midi": 72,
                    "time": 85.72193900000016,
                    "velocity": 0.25984251968503935,
                    "duration": 0.06634825000000433
                },
                {
                    "name": "G4",
                    "midi": 67,
                    "time": 86.25272500000017,
                    "velocity": 0.36220472440944884,
                    "duration": 0.2653930000000031
                },
                {
                    "name": "G4",
                    "midi": 67,
                    "time": 86.78351100000017,
                    "velocity": 0.33858267716535434,
                    "duration": 0.2653930000000031
                },
                {
                    "name": "G4",
                    "midi": 67,
                    "time": 87.31429700000018,
                    "velocity": 0.33070866141732286,
                    "duration": 0.2653930000000031
                },
                {
                    "name": "F5",
                    "midi": 77,
                    "time": 87.84508300000019,
                    "velocity": 0.36220472440944884,
                    "duration": 0.06634825000000433
                },
                {
                    "name": "D5",
                    "midi": 74,
                    "time": 87.84508300000019,
                    "velocity": 0.30708661417322836,
                    "duration": 0.06634825000000433
                },
                {
                    "name": "F5",
                    "midi": 77,
                    "time": 88.11047600000019,
                    "velocity": 0.3779527559055118,
                    "duration": 0.2653930000000031
                },
                {
                    "name": "D5",
                    "midi": 74,
                    "time": 88.11047600000019,
                    "velocity": 0.31496062992125984,
                    "duration": 0.2653930000000031
                },
                {
                    "name": "D#5",
                    "midi": 75,
                    "time": 88.3758690000002,
                    "velocity": 0.3228346456692913,
                    "duration": 0.06634825000000433
                },
                {
                    "name": "C5",
                    "midi": 72,
                    "time": 88.3758690000002,
                    "velocity": 0.2677165354330709,
                    "duration": 0.06634825000000433
                },
                {
                    "name": "C5",
                    "midi": 72,
                    "time": 88.6412620000002,
                    "velocity": 0.30708661417322836,
                    "duration": 0.2653930000000031
                },
                {
                    "name": "D#5",
                    "midi": 75,
                    "time": 88.6412620000002,
                    "velocity": 0.36220472440944884,
                    "duration": 0.2653930000000031
                },
                {
                    "name": "D5",
                    "midi": 74,
                    "time": 88.9066550000002,
                    "velocity": 0.31496062992125984,
                    "duration": 0.06634825000000433
                },
                {
                    "name": "B4",
                    "midi": 71,
                    "time": 88.9066550000002,
                    "velocity": 0.25984251968503935,
                    "duration": 0.06634825000000433
                },
                {
                    "name": "C5",
                    "midi": 72,
                    "time": 89.3047445000002,
                    "velocity": 0.30708661417322836,
                    "duration": 0.13269649999999444
                },
                {
                    "name": "D#5",
                    "midi": 75,
                    "time": 89.43744100000019,
                    "velocity": 0.3700787401574803,
                    "duration": 0.13269649999999444
                },
                {
                    "name": "C5",
                    "midi": 72,
                    "time": 89.57013750000019,
                    "velocity": 0.3228346456692913,
                    "duration": 0.13269649999999444
                },
                {
                    "name": "C5",
                    "midi": 72,
                    "time": 89.83553050000017,
                    "velocity": 0.33070866141732286,
                    "duration": 0.13269649999999444
                },
                {
                    "name": "D#5",
                    "midi": 75,
                    "time": 89.96822700000017,
                    "velocity": 0.3937007874015748,
                    "duration": 0.13269649999999444
                },
                {
                    "name": "C5",
                    "midi": 72,
                    "time": 90.10092350000016,
                    "velocity": 0.33070866141732286,
                    "duration": 0.13269649999999444
                },
                {
                    "name": "C5",
                    "midi": 72,
                    "time": 90.36631650000015,
                    "velocity": 0.36220472440944884,
                    "duration": 0.13269649999999444
                },
                {
                    "name": "D#5",
                    "midi": 75,
                    "time": 90.49901300000015,
                    "velocity": 0.4330708661417323,
                    "duration": 0.13269649999999444
                },
                {
                    "name": "C5",
                    "midi": 72,
                    "time": 90.63170950000014,
                    "velocity": 0.3700787401574803,
                    "duration": 0.13269649999999444
                },
                {
                    "name": "F5",
                    "midi": 77,
                    "time": 91.02979900000014,
                    "velocity": 0.36220472440944884,
                    "duration": 0.06634825000000433
                },
                {
                    "name": "G#5",
                    "midi": 80,
                    "time": 91.02979900000014,
                    "velocity": 0.4330708661417323,
                    "duration": 0.06634825000000433
                },
                {
                    "name": "F5",
                    "midi": 77,
                    "time": 91.29519200000014,
                    "velocity": 0.4015748031496063,
                    "duration": 0.2653930000000031
                },
                {
                    "name": "G#5",
                    "midi": 80,
                    "time": 91.29519200000014,
                    "velocity": 0.4881889763779528,
                    "duration": 0.2653930000000031
                },
                {
                    "name": "D#5",
                    "midi": 75,
                    "time": 91.56058500000015,
                    "velocity": 0.33858267716535434,
                    "duration": 0.06634825000000433
                },
                {
                    "name": "G5",
                    "midi": 79,
                    "time": 91.56058500000015,
                    "velocity": 0.4015748031496063,
                    "duration": 0.06634825000000433
                },
                {
                    "name": "G5",
                    "midi": 79,
                    "time": 91.82597800000015,
                    "velocity": 0.44881889763779526,
                    "duration": 0.2653930000000031
                },
                {
                    "name": "D#5",
                    "midi": 75,
                    "time": 91.82597800000015,
                    "velocity": 0.3779527559055118,
                    "duration": 0.2653930000000031
                },
                {
                    "name": "D5",
                    "midi": 74,
                    "time": 92.09137100000015,
                    "velocity": 0.3228346456692913,
                    "duration": 0.2653930000000031
                },
                {
                    "name": "F5",
                    "midi": 77,
                    "time": 92.09137100000015,
                    "velocity": 0.3858267716535433,
                    "duration": 0.2653930000000031
                },
                {
                    "name": "D#5",
                    "midi": 75,
                    "time": 92.35676400000015,
                    "velocity": 0.4566929133858268,
                    "duration": 0.5307860000000062
                },
                {
                    "name": "C5",
                    "midi": 72,
                    "time": 92.35676400000015,
                    "velocity": 0.4566929133858268,
                    "duration": 0.5307860000000062
                },
                {
                    "name": "C5",
                    "midi": 72,
                    "time": 92.88755000000016,
                    "velocity": 0.3779527559055118,
                    "duration": 0.5307860000000062
                },
                {
                    "name": "D#4",
                    "midi": 63,
                    "time": 92.88755000000016,
                    "velocity": 0.3779527559055118,
                    "duration": 0.5307860000000062
                },
                {
                    "name": "B4",
                    "midi": 71,
                    "time": 93.41833600000017,
                    "velocity": 0.3700787401574803,
                    "duration": 0.5307860000000062
                },
                {
                    "name": "D4",
                    "midi": 62,
                    "time": 93.41833600000017,
                    "velocity": 0.3700787401574803,
                    "duration": 0.5307860000000062
                },
                {
                    "name": "C5",
                    "midi": 72,
                    "time": 93.94912200000017,
                    "velocity": 0.4330708661417323,
                    "duration": 0.5307860000000062
                },
                {
                    "name": "C4",
                    "midi": 60,
                    "time": 93.94912200000017,
                    "velocity": 0.4330708661417323,
                    "duration": 0.5307860000000062
                },
                {
                    "name": "C5",
                    "midi": 72,
                    "time": 95.80687300000018,
                    "velocity": 0.36220472440944884,
                    "duration": 0.2653930000000031
                },
                {
                    "name": "C5",
                    "midi": 72,
                    "time": 96.33765900000019,
                    "velocity": 0.33858267716535434,
                    "duration": 0.2653930000000031
                },
                {
                    "name": "C5",
                    "midi": 72,
                    "time": 96.8684450000002,
                    "velocity": 0.33070866141732286,
                    "duration": 0.2653930000000031
                },
                {
                    "name": "C5",
                    "midi": 72,
                    "time": 97.1338380000002,
                    "velocity": 0.44881889763779526,
                    "duration": 0.13269649999999444
                },
                {
                    "name": "D5",
                    "midi": 74,
                    "time": 97.26653450000019,
                    "velocity": 0.3937007874015748,
                    "duration": 0.13269649999999444
                },
                {
                    "name": "E5",
                    "midi": 76,
                    "time": 97.39923100000019,
                    "velocity": 0.4094488188976378,
                    "duration": 0.13269649999999444
                },
                {
                    "name": "F5",
                    "midi": 77,
                    "time": 97.53192750000018,
                    "velocity": 0.4330708661417323,
                    "duration": 0.13269649999999444
                },
                {
                    "name": "G5",
                    "midi": 79,
                    "time": 97.66462400000017,
                    "velocity": 0.4330708661417323,
                    "duration": 0.13269649999999444
                },
                {
                    "name": "G#5",
                    "midi": 80,
                    "time": 97.79732050000017,
                    "velocity": 0.4094488188976378,
                    "duration": 0.13269649999999444
                },
                {
                    "name": "A#5",
                    "midi": 82,
                    "time": 97.93001700000016,
                    "velocity": 0.4330708661417323,
                    "duration": 0.13269649999999444
                },
                {
                    "name": "C6",
                    "midi": 84,
                    "time": 98.06271350000016,
                    "velocity": 0.4330708661417323,
                    "duration": 0.13269649999999444
                },
                {
                    "name": "G#5",
                    "midi": 80,
                    "time": 98.19541000000015,
                    "velocity": 0.49606299212598426,
                    "duration": 0.5307860000000062
                },
                {
                    "name": "D5",
                    "midi": 74,
                    "time": 98.99158900000016,
                    "velocity": 0.3937007874015748,
                    "duration": 0.2653930000000031
                },
                {
                    "name": "D5",
                    "midi": 74,
                    "time": 99.52237500000017,
                    "velocity": 0.3700787401574803,
                    "duration": 0.2653930000000031
                },
                {
                    "name": "D5",
                    "midi": 74,
                    "time": 100.05316100000017,
                    "velocity": 0.36220472440944884,
                    "duration": 0.2653930000000031
                },
                {
                    "name": "D5",
                    "midi": 74,
                    "time": 100.31855400000018,
                    "velocity": 0.4645669291338583,
                    "duration": 0.13269649999999444
                },
                {
                    "name": "E5",
                    "midi": 76,
                    "time": 100.45125050000017,
                    "velocity": 0.4094488188976378,
                    "duration": 0.13269649999999444
                },
                {
                    "name": "F#5",
                    "midi": 78,
                    "time": 100.58394700000017,
                    "velocity": 0.4330708661417323,
                    "duration": 0.13269649999999444
                },
                {
                    "name": "G5",
                    "midi": 79,
                    "time": 100.71664350000016,
                    "velocity": 0.44881889763779526,
                    "duration": 0.13269649999999444
                },
                {
                    "name": "A5",
                    "midi": 81,
                    "time": 100.84934000000015,
                    "velocity": 0.44881889763779526,
                    "duration": 0.13269649999999444
                },
                {
                    "name": "B5",
                    "midi": 83,
                    "time": 100.98203650000015,
                    "velocity": 0.4330708661417323,
                    "duration": 0.13269649999999444
                },
                {
                    "name": "C6",
                    "midi": 84,
                    "time": 101.11473300000014,
                    "velocity": 0.44881889763779526,
                    "duration": 0.13269649999999444
                },
                {
                    "name": "D6",
                    "midi": 86,
                    "time": 101.24742950000014,
                    "velocity": 0.44881889763779526,
                    "duration": 0.13269649999999444
                },
                {
                    "name": "B5",
                    "midi": 83,
                    "time": 101.38012600000013,
                    "velocity": 0.5118110236220472,
                    "duration": 0.5307860000000062
                },
                {
                    "name": "G4",
                    "midi": 67,
                    "time": 102.17630500000014,
                    "velocity": 0.36220472440944884,
                    "duration": 0.2653930000000031
                },
                {
                    "name": "G4",
                    "midi": 67,
                    "time": 102.70709100000015,
                    "velocity": 0.33858267716535434,
                    "duration": 0.2653930000000031
                },
                {
                    "name": "G4",
                    "midi": 67,
                    "time": 103.23787700000015,
                    "velocity": 0.33070866141732286,
                    "duration": 0.2653930000000031
                },
                {
                    "name": "G5",
                    "midi": 79,
                    "time": 103.76866300000016,
                    "velocity": 0.36220472440944884,
                    "duration": 0.06634825000000433
                },
                {
                    "name": "D#5",
                    "midi": 75,
                    "time": 103.76866300000016,
                    "velocity": 0.30708661417322836,
                    "duration": 0.06634825000000433
                },
                {
                    "name": "G5",
                    "midi": 79,
                    "time": 104.03405600000016,
                    "velocity": 0.3779527559055118,
                    "duration": 0.2653930000000031
                },
                {
                    "name": "D#5",
                    "midi": 75,
                    "time": 104.03405600000016,
                    "velocity": 0.31496062992125984,
                    "duration": 0.2653930000000031
                },
                {
                    "name": "F5",
                    "midi": 77,
                    "time": 104.29944900000017,
                    "velocity": 0.3228346456692913,
                    "duration": 0.06634825000000433
                },
                {
                    "name": "D5",
                    "midi": 74,
                    "time": 104.29944900000017,
                    "velocity": 0.2677165354330709,
                    "duration": 0.06634825000000433
                },
                {
                    "name": "D5",
                    "midi": 74,
                    "time": 104.56484200000017,
                    "velocity": 0.30708661417322836,
                    "duration": 0.2653930000000031
                },
                {
                    "name": "F5",
                    "midi": 77,
                    "time": 104.56484200000017,
                    "velocity": 0.36220472440944884,
                    "duration": 0.2653930000000031
                },
                {
                    "name": "D#5",
                    "midi": 75,
                    "time": 104.83023500000017,
                    "velocity": 0.31496062992125984,
                    "duration": 0.06634825000000433
                },
                {
                    "name": "C5",
                    "midi": 72,
                    "time": 104.83023500000017,
                    "velocity": 0.25984251968503935,
                    "duration": 0.06634825000000433
                },
                {
                    "name": "G4",
                    "midi": 67,
                    "time": 105.36102100000018,
                    "velocity": 0.36220472440944884,
                    "duration": 0.2653930000000031
                },
                {
                    "name": "G4",
                    "midi": 67,
                    "time": 105.89180700000018,
                    "velocity": 0.33858267716535434,
                    "duration": 0.2653930000000031
                },
                {
                    "name": "G4",
                    "midi": 67,
                    "time": 106.42259300000019,
                    "velocity": 0.33070866141732286,
                    "duration": 0.2653930000000031
                },
                {
                    "name": "F5",
                    "midi": 77,
                    "time": 106.9533790000002,
                    "velocity": 0.36220472440944884,
                    "duration": 0.06634825000000433
                },
                {
                    "name": "D5",
                    "midi": 74,
                    "time": 106.9533790000002,
                    "velocity": 0.30708661417322836,
                    "duration": 0.06634825000000433
                },
                {
                    "name": "F5",
                    "midi": 77,
                    "time": 107.2187720000002,
                    "velocity": 0.3779527559055118,
                    "duration": 0.2653930000000031
                },
                {
                    "name": "D5",
                    "midi": 74,
                    "time": 107.2187720000002,
                    "velocity": 0.31496062992125984,
                    "duration": 0.2653930000000031
                },
                {
                    "name": "D#5",
                    "midi": 75,
                    "time": 107.4841650000002,
                    "velocity": 0.3228346456692913,
                    "duration": 0.06634825000000433
                },
                {
                    "name": "C5",
                    "midi": 72,
                    "time": 107.4841650000002,
                    "velocity": 0.2677165354330709,
                    "duration": 0.06634825000000433
                },
                {
                    "name": "C5",
                    "midi": 72,
                    "time": 107.7495580000002,
                    "velocity": 0.30708661417322836,
                    "duration": 0.2653930000000031
                },
                {
                    "name": "D#5",
                    "midi": 75,
                    "time": 107.7495580000002,
                    "velocity": 0.36220472440944884,
                    "duration": 0.2653930000000031
                },
                {
                    "name": "D5",
                    "midi": 74,
                    "time": 108.01495100000021,
                    "velocity": 0.31496062992125984,
                    "duration": 0.06634825000000433
                },
                {
                    "name": "B4",
                    "midi": 71,
                    "time": 108.01495100000021,
                    "velocity": 0.25984251968503935,
                    "duration": 0.06634825000000433
                },
                {
                    "name": "C5",
                    "midi": 72,
                    "time": 108.4130405000002,
                    "velocity": 0.30708661417322836,
                    "duration": 0.13269649999999444
                },
                {
                    "name": "D#5",
                    "midi": 75,
                    "time": 108.5457370000002,
                    "velocity": 0.3700787401574803,
                    "duration": 0.13269649999999444
                },
                {
                    "name": "C5",
                    "midi": 72,
                    "time": 108.6784335000002,
                    "velocity": 0.3228346456692913,
                    "duration": 0.13269649999999444
                },
                {
                    "name": "C5",
                    "midi": 72,
                    "time": 108.94382650000018,
                    "velocity": 0.33070866141732286,
                    "duration": 0.13269649999999444
                },
                {
                    "name": "D#5",
                    "midi": 75,
                    "time": 109.07652300000018,
                    "velocity": 0.3937007874015748,
                    "duration": 0.13269649999999444
                },
                {
                    "name": "C5",
                    "midi": 72,
                    "time": 109.20921950000017,
                    "velocity": 0.33070866141732286,
                    "duration": 0.13269649999999444
                },
                {
                    "name": "C5",
                    "midi": 72,
                    "time": 109.47461250000016,
                    "velocity": 0.36220472440944884,
                    "duration": 0.13269649999999444
                },
                {
                    "name": "D#5",
                    "midi": 75,
                    "time": 109.60730900000016,
                    "velocity": 0.4330708661417323,
                    "duration": 0.13269649999999444
                },
                {
                    "name": "C5",
                    "midi": 72,
                    "time": 109.74000550000015,
                    "velocity": 0.3700787401574803,
                    "duration": 0.13269649999999444
                },
                {
                    "name": "F5",
                    "midi": 77,
                    "time": 110.13809500000015,
                    "velocity": 0.36220472440944884,
                    "duration": 0.06634825000000433
                },
                {
                    "name": "G#5",
                    "midi": 80,
                    "time": 110.13809500000015,
                    "velocity": 0.4330708661417323,
                    "duration": 0.06634825000000433
                },
                {
                    "name": "F5",
                    "midi": 77,
                    "time": 110.40348800000015,
                    "velocity": 0.4015748031496063,
                    "duration": 0.2653930000000031
                },
                {
                    "name": "G#5",
                    "midi": 80,
                    "time": 110.40348800000015,
                    "velocity": 0.4881889763779528,
                    "duration": 0.2653930000000031
                },
                {
                    "name": "D#5",
                    "midi": 75,
                    "time": 110.66888100000016,
                    "velocity": 0.33858267716535434,
                    "duration": 0.06634825000000433
                },
                {
                    "name": "G5",
                    "midi": 79,
                    "time": 110.66888100000016,
                    "velocity": 0.4015748031496063,
                    "duration": 0.06634825000000433
                },
                {
                    "name": "G5",
                    "midi": 79,
                    "time": 110.93427400000016,
                    "velocity": 0.44881889763779526,
                    "duration": 0.2653930000000031
                },
                {
                    "name": "D#5",
                    "midi": 75,
                    "time": 110.93427400000016,
                    "velocity": 0.3779527559055118,
                    "duration": 0.2653930000000031
                },
                {
                    "name": "D5",
                    "midi": 74,
                    "time": 111.19966700000016,
                    "velocity": 0.3228346456692913,
                    "duration": 0.2653930000000031
                },
                {
                    "name": "F5",
                    "midi": 77,
                    "time": 111.19966700000016,
                    "velocity": 0.3858267716535433,
                    "duration": 0.2653930000000031
                },
                {
                    "name": "D#5",
                    "midi": 75,
                    "time": 111.46506000000016,
                    "velocity": 0.4566929133858268,
                    "duration": 0.5307860000000062
                },
                {
                    "name": "C5",
                    "midi": 72,
                    "time": 111.46506000000016,
                    "velocity": 0.4566929133858268,
                    "duration": 0.5307860000000062
                },
                {
                    "name": "C5",
                    "midi": 72,
                    "time": 111.99584600000017,
                    "velocity": 0.3779527559055118,
                    "duration": 0.5307860000000062
                },
                {
                    "name": "D#4",
                    "midi": 63,
                    "time": 111.99584600000017,
                    "velocity": 0.3779527559055118,
                    "duration": 0.5307860000000062
                },
                {
                    "name": "B4",
                    "midi": 71,
                    "time": 112.52663200000018,
                    "velocity": 0.3700787401574803,
                    "duration": 0.5307860000000062
                },
                {
                    "name": "D4",
                    "midi": 62,
                    "time": 112.52663200000018,
                    "velocity": 0.3700787401574803,
                    "duration": 0.5307860000000062
                },
                {
                    "name": "C5",
                    "midi": 72,
                    "time": 113.05741800000018,
                    "velocity": 0.4330708661417323,
                    "duration": 0.5307860000000062
                },
                {
                    "name": "C4",
                    "midi": 60,
                    "time": 113.05741800000018,
                    "velocity": 0.4330708661417323,
                    "duration": 0.5307860000000062
                },
                {
                    "name": "C5",
                    "midi": 72,
                    "time": 114.64977600000019,
                    "velocity": 0.44881889763779526,
                    "duration": 0.5307860000000062
                },
                {
                    "name": "C6",
                    "midi": 84,
                    "time": 115.1805620000002,
                    "velocity": 0.44881889763779526,
                    "duration": 0.13269649999999444
                },
                {
                    "name": "E5",
                    "midi": 76,
                    "time": 115.71134800000019,
                    "velocity": 0.44881889763779526,
                    "duration": 0.2653930000000031
                },
                {
                    "name": "G5",
                    "midi": 79,
                    "time": 116.10943750000018,
                    "velocity": 0.3779527559055118,
                    "duration": 0.13269649999999444
                },
                {
                    "name": "F5",
                    "midi": 77,
                    "time": 116.24213400000018,
                    "velocity": 0.44881889763779526,
                    "duration": 0.5307860000000062
                },
                {
                    "name": "D5",
                    "midi": 74,
                    "time": 116.77292000000018,
                    "velocity": 0.4094488188976378,
                    "duration": 0.13269649999999444
                },
                {
                    "name": "D5",
                    "midi": 74,
                    "time": 117.30370600000018,
                    "velocity": 0.44881889763779526,
                    "duration": 0.2653930000000031
                },
                {
                    "name": "F5",
                    "midi": 77,
                    "time": 117.70179550000017,
                    "velocity": 0.4251968503937008,
                    "duration": 0.13269649999999444
                },
                {
                    "name": "E5",
                    "midi": 76,
                    "time": 117.83449200000017,
                    "velocity": 0.44881889763779526,
                    "duration": 0.5307860000000062
                },
                {
                    "name": "C5",
                    "midi": 72,
                    "time": 118.36527800000017,
                    "velocity": 0.4251968503937008,
                    "duration": 0.13269649999999444
                },
                {
                    "name": "A4",
                    "midi": 69,
                    "time": 118.89606400000017,
                    "velocity": 0.4566929133858268,
                    "duration": 0.2653930000000031
                },
                {
                    "name": "D5",
                    "midi": 74,
                    "time": 119.29415350000016,
                    "velocity": 0.36220472440944884,
                    "duration": 0.13269649999999444
                },
                {
                    "name": "C5",
                    "midi": 72,
                    "time": 119.42685000000016,
                    "velocity": 0.4566929133858268,
                    "duration": 1.0615719999999982
                },
                {
                    "name": "B4",
                    "midi": 71,
                    "time": 120.48842200000016,
                    "velocity": 0.4330708661417323,
                    "duration": 0.2653930000000031
                },
                {
                    "name": "D5",
                    "midi": 74,
                    "time": 121.01920800000016,
                    "velocity": 0.5905511811023622,
                    "duration": 0.5307860000000062
                },
                {
                    "name": "G5",
                    "midi": 79,
                    "time": 121.54999400000017,
                    "velocity": 0.44881889763779526,
                    "duration": 0.13269649999999444
                },
                {
                    "name": "F#5",
                    "midi": 78,
                    "time": 121.68269050000016,
                    "velocity": 0.4330708661417323,
                    "duration": 0.13269649999999444
                },
                {
                    "name": "G5",
                    "midi": 79,
                    "time": 121.81538700000016,
                    "velocity": 0.44881889763779526,
                    "duration": 0.13269649999999444
                },
                {
                    "name": "A5",
                    "midi": 81,
                    "time": 121.94808350000015,
                    "velocity": 0.4330708661417323,
                    "duration": 0.13269649999999444
                },
                {
                    "name": "B5",
                    "midi": 83,
                    "time": 122.08078000000015,
                    "velocity": 0.4881889763779528,
                    "duration": 0.13269649999999444
                },
                {
                    "name": "A5",
                    "midi": 81,
                    "time": 122.21347650000014,
                    "velocity": 0.4330708661417323,
                    "duration": 0.13269649999999444
                },
                {
                    "name": "B5",
                    "midi": 83,
                    "time": 122.34617300000014,
                    "velocity": 0.4881889763779528,
                    "duration": 0.13269649999999444
                },
                {
                    "name": "C6",
                    "midi": 84,
                    "time": 122.47886950000013,
                    "velocity": 0.4645669291338583,
                    "duration": 0.13269649999999444
                },
                {
                    "name": "D6",
                    "midi": 86,
                    "time": 122.61156600000012,
                    "velocity": 0.5905511811023622,
                    "duration": 0.5307860000000062
                },
                {
                    "name": "G5",
                    "midi": 79,
                    "time": 123.14235200000013,
                    "velocity": 0.44881889763779526,
                    "duration": 0.13269649999999444
                },
                {
                    "name": "F#5",
                    "midi": 78,
                    "time": 123.27504850000012,
                    "velocity": 0.4330708661417323,
                    "duration": 0.13269649999999444
                },
                {
                    "name": "G5",
                    "midi": 79,
                    "time": 123.40774500000012,
                    "velocity": 0.44881889763779526,
                    "duration": 0.13269649999999444
                },
                {
                    "name": "A5",
                    "midi": 81,
                    "time": 123.54044150000011,
                    "velocity": 0.4330708661417323,
                    "duration": 0.13269649999999444
                },
                {
                    "name": "B5",
                    "midi": 83,
                    "time": 123.67313800000011,
                    "velocity": 0.4881889763779528,
                    "duration": 0.13269649999999444
                },
                {
                    "name": "A5",
                    "midi": 81,
                    "time": 123.8058345000001,
                    "velocity": 0.4330708661417323,
                    "duration": 0.13269649999999444
                },
                {
                    "name": "B5",
                    "midi": 83,
                    "time": 123.9385310000001,
                    "velocity": 0.4881889763779528,
                    "duration": 0.13269649999999444
                },
                {
                    "name": "C6",
                    "midi": 84,
                    "time": 124.07122750000009,
                    "velocity": 0.4645669291338583,
                    "duration": 0.13269649999999444
                },
                {
                    "name": "D6",
                    "midi": 86,
                    "time": 124.20392400000009,
                    "velocity": 0.5905511811023622,
                    "duration": 0.5307860000000062
                },
                {
                    "name": "B4",
                    "midi": 71,
                    "time": 124.73471000000009,
                    "velocity": 0.4566929133858268,
                    "duration": 0.5307860000000062
                },
                {
                    "name": "A4",
                    "midi": 69,
                    "time": 125.2654960000001,
                    "velocity": 0.44881889763779526,
                    "duration": 0.06634825000000433
                },
                {
                    "name": "B4",
                    "midi": 71,
                    "time": 125.3318442500001,
                    "velocity": 0.3937007874015748,
                    "duration": 0.06634825000000433
                },
                {
                    "name": "A4",
                    "midi": 69,
                    "time": 125.3981925000001,
                    "velocity": 0.4094488188976378,
                    "duration": 0.06634825000000433
                },
                {
                    "name": "B4",
                    "midi": 71,
                    "time": 125.46454075000011,
                    "velocity": 0.4566929133858268,
                    "duration": 0.06634825000000433
                },
                {
                    "name": "A4",
                    "midi": 69,
                    "time": 125.53088900000012,
                    "velocity": 0.3858267716535433,
                    "duration": 0.0829353124999983
                },
                {
                    "name": "B4",
                    "midi": 71,
                    "time": 125.61382431250011,
                    "velocity": 0.4094488188976378,
                    "duration": 0.0829353124999983
                },
                {
                    "name": "A4",
                    "midi": 69,
                    "time": 125.69675962500011,
                    "velocity": 0.4094488188976378,
                    "duration": 0.0829353124999983
                },
                {
                    "name": "G4",
                    "midi": 67,
                    "time": 125.7962820000001,
                    "velocity": 0.4566929133858268,
                    "duration": 1.0615719999999982
                },
                {
                    "name": "G5",
                    "midi": 79,
                    "time": 127.38864000000011,
                    "velocity": 0.44881889763779526,
                    "duration": 0.5307860000000062
                },
                {
                    "name": "C6",
                    "midi": 84,
                    "time": 127.91942600000012,
                    "velocity": 0.44881889763779526,
                    "duration": 0.13269649999999444
                },
                {
                    "name": "E5",
                    "midi": 76,
                    "time": 128.4502120000001,
                    "velocity": 0.44881889763779526,
                    "duration": 0.2653929999999889
                },
                {
                    "name": "G5",
                    "midi": 79,
                    "time": 128.8483015000001,
                    "velocity": 0.3779527559055118,
                    "duration": 0.13269650000000865
                },
                {
                    "name": "F5",
                    "midi": 77,
                    "time": 128.9809980000001,
                    "velocity": 0.44881889763779526,
                    "duration": 0.5307860000000062
                },
                {
                    "name": "D6",
                    "midi": 86,
                    "time": 129.51178400000012,
                    "velocity": 0.4094488188976378,
                    "duration": 0.13269650000000865
                },
                {
                    "name": "D5",
                    "midi": 74,
                    "time": 130.04257000000013,
                    "velocity": 0.44881889763779526,
                    "duration": 0.2653929999999889
                },
                {
                    "name": "F5",
                    "midi": 77,
                    "time": 130.44065950000012,
                    "velocity": 0.4251968503937008,
                    "duration": 0.13269650000000865
                },
                {
                    "name": "E5",
                    "midi": 76,
                    "time": 130.57335600000013,
                    "velocity": 0.44881889763779526,
                    "duration": 0.5307860000000062
                },
                {
                    "name": "G5",
                    "midi": 79,
                    "time": 131.10414200000014,
                    "velocity": 0.4881889763779528,
                    "duration": 0.5307860000000062
                },
                {
                    "name": "G#5",
                    "midi": 80,
                    "time": 131.63492800000014,
                    "velocity": 0.4566929133858268,
                    "duration": 0.39808949999999754
                },
                {
                    "name": "A5",
                    "midi": 81,
                    "time": 132.04849875833347,
                    "velocity": 0.4015748031496063,
                    "duration": 0.13269649999998023
                },
                {
                    "name": "C5",
                    "midi": 72,
                    "time": 132.16571400000012,
                    "velocity": 0.4566929133858268,
                    "duration": 1.061571999999984
                },
                {
                    "name": "B4",
                    "midi": 71,
                    "time": 133.2272860000001,
                    "velocity": 0.4330708661417323,
                    "duration": 0.2653929999999889
                },
                {
                    "name": "G4",
                    "midi": 67,
                    "time": 133.75807200000008,
                    "velocity": 0.5905511811023622,
                    "duration": 0.5307860000000062
                },
                {
                    "name": "C5",
                    "midi": 72,
                    "time": 134.2888580000001,
                    "velocity": 0.44881889763779526,
                    "duration": 0.13269650000000865
                },
                {
                    "name": "B4",
                    "midi": 71,
                    "time": 134.4215545000001,
                    "velocity": 0.4330708661417323,
                    "duration": 0.13269650000000865
                },
                {
                    "name": "C5",
                    "midi": 72,
                    "time": 134.54872197916677,
                    "velocity": 0.44881889763779526,
                    "duration": 0.13269650000000865
                },
                {
                    "name": "D5",
                    "midi": 74,
                    "time": 134.68694750000012,
                    "velocity": 0.4330708661417323,
                    "duration": 0.13269650000000865
                },
                {
                    "name": "E5",
                    "midi": 76,
                    "time": 134.8141149791668,
                    "velocity": 0.4881889763779528,
                    "duration": 0.13269650000000865
                },
                {
                    "name": "D5",
                    "midi": 74,
                    "time": 134.95234050000013,
                    "velocity": 0.4330708661417323,
                    "duration": 0.13269650000000865
                },
                {
                    "name": "E5",
                    "midi": 76,
                    "time": 135.0795079791668,
                    "velocity": 0.4881889763779528,
                    "duration": 0.13269650000000865
                },
                {
                    "name": "F5",
                    "midi": 77,
                    "time": 135.21773350000015,
                    "velocity": 0.4645669291338583,
                    "duration": 0.13269650000000865
                },
                {
                    "name": "G5",
                    "midi": 79,
                    "time": 135.35043000000016,
                    "velocity": 0.6377952755905512,
                    "duration": 0.5307860000000062
                },
                {
                    "name": "C5",
                    "midi": 72,
                    "time": 135.88121600000017,
                    "velocity": 0.44881889763779526,
                    "duration": 0.2653929999999889
                },
                {
                    "name": "D5",
                    "midi": 74,
                    "time": 136.14660900000015,
                    "velocity": 0.44881889763779526,
                    "duration": 0.13269650000000865
                },
                {
                    "name": "E5",
                    "midi": 76,
                    "time": 136.27930550000016,
                    "velocity": 0.4330708661417323,
                    "duration": 0.13269650000000865
                },
                {
                    "name": "F5",
                    "midi": 77,
                    "time": 136.41200200000017,
                    "velocity": 0.49606299212598426,
                    "duration": 0.13269650000000865
                },
                {
                    "name": "G5",
                    "midi": 79,
                    "time": 136.54469850000018,
                    "velocity": 0.5118110236220472,
                    "duration": 0.13269650000000865
                },
                {
                    "name": "A5",
                    "midi": 81,
                    "time": 136.6773950000002,
                    "velocity": 0.5196850393700787,
                    "duration": 0.13269650000000865
                },
                {
                    "name": "B5",
                    "midi": 83,
                    "time": 136.8100915000002,
                    "velocity": 0.5433070866141733,
                    "duration": 0.13269650000000865
                },
                {
                    "name": "C6",
                    "midi": 84,
                    "time": 136.9427880000002,
                    "velocity": 0.6141732283464567,
                    "duration": 0.5307860000000062
                },
                {
                    "name": "E5",
                    "midi": 76,
                    "time": 137.4735740000002,
                    "velocity": 0.5433070866141733,
                    "duration": 0.5307860000000062
                },
                {
                    "name": "C5",
                    "midi": 72,
                    "time": 137.4735740000002,
                    "velocity": 0.4566929133858268,
                    "duration": 0.5307860000000062
                },
                {
                    "name": "B4",
                    "midi": 71,
                    "time": 138.00436000000022,
                    "velocity": 0.4566929133858268,
                    "duration": 0.5307860000000062
                },
                {
                    "name": "D5",
                    "midi": 74,
                    "time": 138.00436000000022,
                    "velocity": 0.5433070866141733,
                    "duration": 0.5307860000000062
                },
                {
                    "name": "G4",
                    "midi": 67,
                    "time": 138.53514600000022,
                    "velocity": 0.47244094488188976,
                    "duration": 1.3269650000000013
                },
                {
                    "name": "C5",
                    "midi": 72,
                    "time": 138.53514600000022,
                    "velocity": 0.5511811023622047,
                    "duration": 1.3269650000000013
                },
                {
                    "name": "E4",
                    "midi": 64,
                    "time": 138.53514600000022,
                    "velocity": 0.47244094488188976,
                    "duration": 1.3269650000000013
                }
            ],
            "controlChanges": {},
            "id": 1,
            "name": "Piano right",
            "instrumentNumber": 0,
            "instrument": "acoustic grand piano",
            "instrumentFamily": "piano",
            "channelNumber": 0,
            "isPercussion": false
        },
        {
            "startTime": 0,
            "duration": 139.86211100000057,
            "length": 284,
            "notes": [
                {
                    "name": "C3",
                    "midi": 48,
                    "time": 0,
                    "velocity": 0.31496062992125984,
                    "duration": 0.796179
                },
                {
                    "name": "C4",
                    "midi": 60,
                    "time": 0,
                    "velocity": 0.36220472440944884,
                    "duration": 0.796179
                },
                {
                    "name": "C4",
                    "midi": 60,
                    "time": 1.061572,
                    "velocity": 0.29133858267716534,
                    "duration": 0.530786
                },
                {
                    "name": "D4",
                    "midi": 62,
                    "time": 1.592358,
                    "velocity": 0.36220472440944884,
                    "duration": 0.530786
                },
                {
                    "name": "B3",
                    "midi": 59,
                    "time": 2.123144,
                    "velocity": 0.33070866141732286,
                    "duration": 0.13269649999999977
                },
                {
                    "name": "G3",
                    "midi": 55,
                    "time": 2.65393,
                    "velocity": 0.31496062992125984,
                    "duration": 0.530786
                },
                {
                    "name": "C4",
                    "midi": 60,
                    "time": 3.184716,
                    "velocity": 0.36220472440944884,
                    "duration": 0.530786
                },
                {
                    "name": "E3",
                    "midi": 52,
                    "time": 3.715502,
                    "velocity": 0.30708661417322836,
                    "duration": 0.13269649999999977
                },
                {
                    "name": "F3",
                    "midi": 53,
                    "time": 4.246288,
                    "velocity": 0.33070866141732286,
                    "duration": 0.530786
                },
                {
                    "name": "G3",
                    "midi": 55,
                    "time": 4.777074,
                    "velocity": 0.36220472440944884,
                    "duration": 0.530786
                },
                {
                    "name": "D3",
                    "midi": 50,
                    "time": 5.30786,
                    "velocity": 0.31496062992125984,
                    "duration": 0.13269649999999977
                },
                {
                    "name": "G2",
                    "midi": 43,
                    "time": 5.838646,
                    "velocity": 0.33070866141732286,
                    "duration": 0.26539300000000043
                },
                {
                    "name": "G3",
                    "midi": 55,
                    "time": 6.369432,
                    "velocity": 0.3937007874015748,
                    "duration": 0.530786
                },
                {
                    "name": "B3",
                    "midi": 59,
                    "time": 6.369432,
                    "velocity": 0.4645669291338583,
                    "duration": 0.530786
                },
                {
                    "name": "G3",
                    "midi": 55,
                    "time": 7.96179,
                    "velocity": 0.3937007874015748,
                    "duration": 0.530786
                },
                {
                    "name": "B3",
                    "midi": 59,
                    "time": 7.96179,
                    "velocity": 0.4645669291338583,
                    "duration": 0.530786
                },
                {
                    "name": "G3",
                    "midi": 55,
                    "time": 9.554148,
                    "velocity": 0.3937007874015748,
                    "duration": 0.5307860000000009
                },
                {
                    "name": "B3",
                    "midi": 59,
                    "time": 9.554148,
                    "velocity": 0.4645669291338583,
                    "duration": 0.5307860000000009
                },
                {
                    "name": "D4",
                    "midi": 62,
                    "time": 10.084934,
                    "velocity": 0.3228346456692913,
                    "duration": 0.5307859999999991
                },
                {
                    "name": "D3",
                    "midi": 50,
                    "time": 10.61572,
                    "velocity": 0.2755905511811024,
                    "duration": 0.5307859999999991
                },
                {
                    "name": "G3",
                    "midi": 55,
                    "time": 11.146505999999999,
                    "velocity": 0.36220472440944884,
                    "duration": 0.5307859999999991
                },
                {
                    "name": "D3",
                    "midi": 50,
                    "time": 11.677291999999998,
                    "velocity": 0.31496062992125984,
                    "duration": 0.13269649999999977
                },
                {
                    "name": "G2",
                    "midi": 43,
                    "time": 12.208077999999997,
                    "velocity": 0.33070866141732286,
                    "duration": 0.26539299999999955
                },
                {
                    "name": "C3",
                    "midi": 48,
                    "time": 12.738863999999996,
                    "velocity": 0.31496062992125984,
                    "duration": 0.7961790000000004
                },
                {
                    "name": "C4",
                    "midi": 60,
                    "time": 12.738863999999996,
                    "velocity": 0.36220472440944884,
                    "duration": 0.7961790000000004
                },
                {
                    "name": "C4",
                    "midi": 60,
                    "time": 13.800435999999996,
                    "velocity": 0.29133858267716534,
                    "duration": 0.5307860000000009
                },
                {
                    "name": "D4",
                    "midi": 62,
                    "time": 14.331221999999997,
                    "velocity": 0.36220472440944884,
                    "duration": 0.5307859999999991
                },
                {
                    "name": "B3",
                    "midi": 59,
                    "time": 14.862007999999996,
                    "velocity": 0.33070866141732286,
                    "duration": 0.13269649999999977
                },
                {
                    "name": "G3",
                    "midi": 55,
                    "time": 15.392793999999995,
                    "velocity": 0.31496062992125984,
                    "duration": 0.5307859999999991
                },
                {
                    "name": "C4",
                    "midi": 60,
                    "time": 15.923579999999994,
                    "velocity": 0.36220472440944884,
                    "duration": 0.5307859999999991
                },
                {
                    "name": "E3",
                    "midi": 52,
                    "time": 16.454365999999993,
                    "velocity": 0.30708661417322836,
                    "duration": 0.13269650000000155
                },
                {
                    "name": "F3",
                    "midi": 53,
                    "time": 16.985151999999996,
                    "velocity": 0.33070866141732286,
                    "duration": 0.5307859999999991
                },
                {
                    "name": "G3",
                    "midi": 55,
                    "time": 17.515937999999995,
                    "velocity": 0.36220472440944884,
                    "duration": 0.5307859999999991
                },
                {
                    "name": "D3",
                    "midi": 50,
                    "time": 18.046723999999994,
                    "velocity": 0.31496062992125984,
                    "duration": 0.13269650000000155
                },
                {
                    "name": "G2",
                    "midi": 43,
                    "time": 18.577509999999997,
                    "velocity": 0.33070866141732286,
                    "duration": 0.26539299999999955
                },
                {
                    "name": "G3",
                    "midi": 55,
                    "time": 19.108295999999996,
                    "velocity": 0.3937007874015748,
                    "duration": 0.5307859999999991
                },
                {
                    "name": "B3",
                    "midi": 59,
                    "time": 19.108295999999996,
                    "velocity": 0.4645669291338583,
                    "duration": 0.5307859999999991
                },
                {
                    "name": "G3",
                    "midi": 55,
                    "time": 20.700653999999993,
                    "velocity": 0.3937007874015748,
                    "duration": 0.5307859999999991
                },
                {
                    "name": "B3",
                    "midi": 59,
                    "time": 20.700653999999993,
                    "velocity": 0.4645669291338583,
                    "duration": 0.5307859999999991
                },
                {
                    "name": "G3",
                    "midi": 55,
                    "time": 22.29301199999999,
                    "velocity": 0.3937007874015748,
                    "duration": 0.5307859999999991
                },
                {
                    "name": "B3",
                    "midi": 59,
                    "time": 22.29301199999999,
                    "velocity": 0.4645669291338583,
                    "duration": 0.5307859999999991
                },
                {
                    "name": "D4",
                    "midi": 62,
                    "time": 22.82379799999999,
                    "velocity": 0.3228346456692913,
                    "duration": 0.5307859999999991
                },
                {
                    "name": "D3",
                    "midi": 50,
                    "time": 23.35458399999999,
                    "velocity": 0.2755905511811024,
                    "duration": 0.5307859999999991
                },
                {
                    "name": "G3",
                    "midi": 55,
                    "time": 23.885369999999988,
                    "velocity": 0.36220472440944884,
                    "duration": 0.5307859999999991
                },
                {
                    "name": "D3",
                    "midi": 50,
                    "time": 24.416155999999987,
                    "velocity": 0.31496062992125984,
                    "duration": 0.13269650000000155
                },
                {
                    "name": "G2",
                    "midi": 43,
                    "time": 24.94694199999999,
                    "velocity": 0.33070866141732286,
                    "duration": 0.26539299999999955
                },
                {
                    "name": "E5",
                    "midi": 76,
                    "time": 25.47772799999999,
                    "velocity": 0.36220472440944884,
                    "duration": 0.7961789999999986
                },
                {
                    "name": "C5",
                    "midi": 72,
                    "time": 26.539299999999987,
                    "velocity": 0.29133858267716534,
                    "duration": 0.5307859999999991
                },
                {
                    "name": "D5",
                    "midi": 74,
                    "time": 27.070085999999986,
                    "velocity": 0.36220472440944884,
                    "duration": 0.5307859999999991
                },
                {
                    "name": "B4",
                    "midi": 71,
                    "time": 27.600871999999985,
                    "velocity": 0.33070866141732286,
                    "duration": 0.13269650000000155
                },
                {
                    "name": "G4",
                    "midi": 67,
                    "time": 28.131657999999987,
                    "velocity": 0.31496062992125984,
                    "duration": 0.5307859999999991
                },
                {
                    "name": "C5",
                    "midi": 72,
                    "time": 28.662443999999986,
                    "velocity": 0.36220472440944884,
                    "duration": 0.5307859999999991
                },
                {
                    "name": "E4",
                    "midi": 64,
                    "time": 29.193229999999986,
                    "velocity": 0.30708661417322836,
                    "duration": 0.5307859999999991
                },
                {
                    "name": "F4",
                    "midi": 65,
                    "time": 29.724015999999985,
                    "velocity": 0.36220472440944884,
                    "duration": 0.5307859999999991
                },
                {
                    "name": "G4",
                    "midi": 67,
                    "time": 30.254801999999984,
                    "velocity": 0.4251968503937008,
                    "duration": 0.5307859999999991
                },
                {
                    "name": "D4",
                    "midi": 62,
                    "time": 30.785587999999983,
                    "velocity": 0.31496062992125984,
                    "duration": 0.13269650000000155
                },
                {
                    "name": "G3",
                    "midi": 55,
                    "time": 31.316373999999986,
                    "velocity": 0.33070866141732286,
                    "duration": 0.26539299999999955
                },
                {
                    "name": "C3",
                    "midi": 48,
                    "time": 31.847159999999985,
                    "velocity": 0.3937007874015748,
                    "duration": 0.5307860000000026
                },
                {
                    "name": "E3",
                    "midi": 52,
                    "time": 31.847159999999985,
                    "velocity": 0.3937007874015748,
                    "duration": 0.5307860000000026
                },
                {
                    "name": "G3",
                    "midi": 55,
                    "time": 31.847159999999985,
                    "velocity": 0.3937007874015748,
                    "duration": 0.5307860000000026
                },
                {
                    "name": "C4",
                    "midi": 60,
                    "time": 31.847159999999985,
                    "velocity": 0.4645669291338583,
                    "duration": 0.5307860000000026
                },
                {
                    "name": "C3",
                    "midi": 48,
                    "time": 33.439517999999985,
                    "velocity": 0.3937007874015748,
                    "duration": 0.5307859999999991
                },
                {
                    "name": "E3",
                    "midi": 52,
                    "time": 33.439517999999985,
                    "velocity": 0.3937007874015748,
                    "duration": 0.5307859999999991
                },
                {
                    "name": "G3",
                    "midi": 55,
                    "time": 33.439517999999985,
                    "velocity": 0.3937007874015748,
                    "duration": 0.5307859999999991
                },
                {
                    "name": "C4",
                    "midi": 60,
                    "time": 33.439517999999985,
                    "velocity": 0.4645669291338583,
                    "duration": 0.5307859999999991
                },
                {
                    "name": "E3",
                    "midi": 52,
                    "time": 35.03187599999998,
                    "velocity": 0.4645669291338583,
                    "duration": 0.5307859999999991
                },
                {
                    "name": "G3",
                    "midi": 55,
                    "time": 35.56266199999998,
                    "velocity": 0.3228346456692913,
                    "duration": 0.5307859999999991
                },
                {
                    "name": "G2",
                    "midi": 43,
                    "time": 36.09344799999998,
                    "velocity": 0.3228346456692913,
                    "duration": 0.5307859999999991
                },
                {
                    "name": "C3",
                    "midi": 48,
                    "time": 36.62423399999998,
                    "velocity": 0.36220472440944884,
                    "duration": 0.5307859999999991
                },
                {
                    "name": "G2",
                    "midi": 43,
                    "time": 37.15501999999998,
                    "velocity": 0.31496062992125984,
                    "duration": 0.13269650000000155
                },
                {
                    "name": "C2",
                    "midi": 36,
                    "time": 37.68580599999998,
                    "velocity": 0.33070866141732286,
                    "duration": 0.2653930000000031
                },
                {
                    "name": "E5",
                    "midi": 76,
                    "time": 38.216591999999984,
                    "velocity": 0.36220472440944884,
                    "duration": 0.7961790000000022
                },
                {
                    "name": "C5",
                    "midi": 72,
                    "time": 39.27816399999999,
                    "velocity": 0.29133858267716534,
                    "duration": 0.5307859999999991
                },
                {
                    "name": "D5",
                    "midi": 74,
                    "time": 39.80894999999999,
                    "velocity": 0.36220472440944884,
                    "duration": 0.5307859999999991
                },
                {
                    "name": "B4",
                    "midi": 71,
                    "time": 40.33973599999999,
                    "velocity": 0.33070866141732286,
                    "duration": 0.13269650000000155
                },
                {
                    "name": "G4",
                    "midi": 67,
                    "time": 40.87052199999999,
                    "velocity": 0.31496062992125984,
                    "duration": 0.5307859999999991
                },
                {
                    "name": "C5",
                    "midi": 72,
                    "time": 41.401307999999986,
                    "velocity": 0.36220472440944884,
                    "duration": 0.5307859999999991
                },
                {
                    "name": "E4",
                    "midi": 64,
                    "time": 41.932093999999985,
                    "velocity": 0.30708661417322836,
                    "duration": 0.5307859999999991
                },
                {
                    "name": "F4",
                    "midi": 65,
                    "time": 42.462879999999984,
                    "velocity": 0.36220472440944884,
                    "duration": 0.5307859999999991
                },
                {
                    "name": "G4",
                    "midi": 67,
                    "time": 42.99366599999998,
                    "velocity": 0.4251968503937008,
                    "duration": 0.5307859999999991
                },
                {
                    "name": "D4",
                    "midi": 62,
                    "time": 43.52445199999998,
                    "velocity": 0.31496062992125984,
                    "duration": 0.13269650000000155
                },
                {
                    "name": "G3",
                    "midi": 55,
                    "time": 44.05523799999998,
                    "velocity": 0.33070866141732286,
                    "duration": 0.2653930000000031
                },
                {
                    "name": "C3",
                    "midi": 48,
                    "time": 44.58602399999999,
                    "velocity": 0.3937007874015748,
                    "duration": 0.5307859999999991
                },
                {
                    "name": "E3",
                    "midi": 52,
                    "time": 44.58602399999999,
                    "velocity": 0.3937007874015748,
                    "duration": 0.5307859999999991
                },
                {
                    "name": "G3",
                    "midi": 55,
                    "time": 44.58602399999999,
                    "velocity": 0.3937007874015748,
                    "duration": 0.5307859999999991
                },
                {
                    "name": "C4",
                    "midi": 60,
                    "time": 44.58602399999999,
                    "velocity": 0.4645669291338583,
                    "duration": 0.5307859999999991
                },
                {
                    "name": "C3",
                    "midi": 48,
                    "time": 46.178381999999985,
                    "velocity": 0.3937007874015748,
                    "duration": 0.5307859999999991
                },
                {
                    "name": "E3",
                    "midi": 52,
                    "time": 46.178381999999985,
                    "velocity": 0.3937007874015748,
                    "duration": 0.5307859999999991
                },
                {
                    "name": "G3",
                    "midi": 55,
                    "time": 46.178381999999985,
                    "velocity": 0.3937007874015748,
                    "duration": 0.5307859999999991
                },
                {
                    "name": "C4",
                    "midi": 60,
                    "time": 46.178381999999985,
                    "velocity": 0.4645669291338583,
                    "duration": 0.5307859999999991
                },
                {
                    "name": "E3",
                    "midi": 52,
                    "time": 47.77073999999998,
                    "velocity": 0.4645669291338583,
                    "duration": 0.5307859999999991
                },
                {
                    "name": "G3",
                    "midi": 55,
                    "time": 48.30152599999998,
                    "velocity": 0.3228346456692913,
                    "duration": 0.5307859999999991
                },
                {
                    "name": "G2",
                    "midi": 43,
                    "time": 48.83231199999998,
                    "velocity": 0.3228346456692913,
                    "duration": 0.5307859999999991
                },
                {
                    "name": "C3",
                    "midi": 48,
                    "time": 49.36309799999998,
                    "velocity": 0.36220472440944884,
                    "duration": 0.5307859999999991
                },
                {
                    "name": "G2",
                    "midi": 43,
                    "time": 49.89388399999998,
                    "velocity": 0.31496062992125984,
                    "duration": 0.13269650000000155
                },
                {
                    "name": "C2",
                    "midi": 36,
                    "time": 50.42466999999998,
                    "velocity": 0.33070866141732286,
                    "duration": 0.2653930000000031
                },
                {
                    "name": "C3",
                    "midi": 48,
                    "time": 50.955455999999984,
                    "velocity": 0.36220472440944884,
                    "duration": 0.5307859999999991
                },
                {
                    "name": "G3",
                    "midi": 55,
                    "time": 51.48624199999998,
                    "velocity": 0.31496062992125984,
                    "duration": 0.5307859999999991
                },
                {
                    "name": "D#3",
                    "midi": 51,
                    "time": 51.48624199999998,
                    "velocity": 0.25984251968503935,
                    "duration": 0.5307859999999991
                },
                {
                    "name": "F3",
                    "midi": 53,
                    "time": 52.01702799999998,
                    "velocity": 0.31496062992125984,
                    "duration": 0.5307859999999991
                },
                {
                    "name": "D3",
                    "midi": 50,
                    "time": 52.01702799999998,
                    "velocity": 0.25984251968503935,
                    "duration": 0.5307859999999991
                },
                {
                    "name": "C3",
                    "midi": 48,
                    "time": 52.54781399999998,
                    "velocity": 0.30708661417322836,
                    "duration": 0.5307859999999991
                },
                {
                    "name": "D#3",
                    "midi": 51,
                    "time": 52.54781399999998,
                    "velocity": 0.36220472440944884,
                    "duration": 0.5307859999999991
                },
                {
                    "name": "G3",
                    "midi": 55,
                    "time": 54.14017199999998,
                    "velocity": 0.36220472440944884,
                    "duration": 0.5307859999999991
                },
                {
                    "name": "D4",
                    "midi": 62,
                    "time": 54.67095799999998,
                    "velocity": 0.31496062992125984,
                    "duration": 0.5307859999999991
                },
                {
                    "name": "B3",
                    "midi": 59,
                    "time": 54.67095799999998,
                    "velocity": 0.25984251968503935,
                    "duration": 0.5307859999999991
                },
                {
                    "name": "C4",
                    "midi": 60,
                    "time": 55.20174399999998,
                    "velocity": 0.31496062992125984,
                    "duration": 0.5307859999999991
                },
                {
                    "name": "A3",
                    "midi": 57,
                    "time": 55.20174399999998,
                    "velocity": 0.25984251968503935,
                    "duration": 0.5307859999999991
                },
                {
                    "name": "G3",
                    "midi": 55,
                    "time": 55.732529999999976,
                    "velocity": 0.30708661417322836,
                    "duration": 0.5307859999999991
                },
                {
                    "name": "B3",
                    "midi": 59,
                    "time": 55.732529999999976,
                    "velocity": 0.36220472440944884,
                    "duration": 0.5307859999999991
                },
                {
                    "name": "C4",
                    "midi": 60,
                    "time": 57.32488799999997,
                    "velocity": 0.4015748031496063,
                    "duration": 0.5307859999999991
                },
                {
                    "name": "D#4",
                    "midi": 63,
                    "time": 57.85567399999997,
                    "velocity": 0.3858267716535433,
                    "duration": 0.5307859999999991
                },
                {
                    "name": "C4",
                    "midi": 60,
                    "time": 58.38645999999997,
                    "velocity": 0.4094488188976378,
                    "duration": 0.5307859999999991
                },
                {
                    "name": "F#3",
                    "midi": 54,
                    "time": 58.91724599999997,
                    "velocity": 0.4409448818897638,
                    "duration": 1.0615719999999982
                },
                {
                    "name": "G3",
                    "midi": 55,
                    "time": 60.50960399999997,
                    "velocity": 0.4015748031496063,
                    "duration": 0.5307859999999991
                },
                {
                    "name": "D4",
                    "midi": 62,
                    "time": 61.04038999999997,
                    "velocity": 0.3779527559055118,
                    "duration": 0.5307859999999991
                },
                {
                    "name": "D3",
                    "midi": 50,
                    "time": 61.571175999999966,
                    "velocity": 0.4015748031496063,
                    "duration": 0.5307859999999991
                },
                {
                    "name": "G3",
                    "midi": 55,
                    "time": 62.101961999999965,
                    "velocity": 0.4015748031496063,
                    "duration": 0.2653930000000031
                },
                {
                    "name": "G2",
                    "midi": 43,
                    "time": 62.36735499999997,
                    "velocity": 0.33858267716535434,
                    "duration": 0.2653930000000031
                },
                {
                    "name": "G3",
                    "midi": 55,
                    "time": 62.63274799999997,
                    "velocity": 0.4015748031496063,
                    "duration": 0.2653930000000031
                },
                {
                    "name": "F3",
                    "midi": 53,
                    "time": 62.898140999999974,
                    "velocity": 0.33858267716535434,
                    "duration": 0.2653930000000031
                },
                {
                    "name": "D#3",
                    "midi": 51,
                    "time": 63.16353399999998,
                    "velocity": 0.3779527559055118,
                    "duration": 0.2653930000000031
                },
                {
                    "name": "D3",
                    "midi": 50,
                    "time": 63.42892699999998,
                    "velocity": 0.31496062992125984,
                    "duration": 0.2653930000000031
                },
                {
                    "name": "C3",
                    "midi": 48,
                    "time": 63.69431999999998,
                    "velocity": 0.33858267716535434,
                    "duration": 0.5307859999999991
                },
                {
                    "name": "G3",
                    "midi": 55,
                    "time": 64.22510599999998,
                    "velocity": 0.31496062992125984,
                    "duration": 0.5307860000000062
                },
                {
                    "name": "D#3",
                    "midi": 51,
                    "time": 64.22510599999998,
                    "velocity": 0.25984251968503935,
                    "duration": 0.5307860000000062
                },
                {
                    "name": "F3",
                    "midi": 53,
                    "time": 64.75589199999999,
                    "velocity": 0.31496062992125984,
                    "duration": 0.5307860000000062
                },
                {
                    "name": "D3",
                    "midi": 50,
                    "time": 64.75589199999999,
                    "velocity": 0.25984251968503935,
                    "duration": 0.5307860000000062
                },
                {
                    "name": "C3",
                    "midi": 48,
                    "time": 65.286678,
                    "velocity": 0.30708661417322836,
                    "duration": 0.5307860000000062
                },
                {
                    "name": "D#3",
                    "midi": 51,
                    "time": 65.286678,
                    "velocity": 0.36220472440944884,
                    "duration": 0.5307860000000062
                },
                {
                    "name": "G3",
                    "midi": 55,
                    "time": 66.879036,
                    "velocity": 0.36220472440944884,
                    "duration": 0.5307860000000062
                },
                {
                    "name": "D4",
                    "midi": 62,
                    "time": 67.409822,
                    "velocity": 0.31496062992125984,
                    "duration": 0.5307860000000062
                },
                {
                    "name": "B3",
                    "midi": 59,
                    "time": 67.409822,
                    "velocity": 0.25984251968503935,
                    "duration": 0.5307860000000062
                },
                {
                    "name": "C4",
                    "midi": 60,
                    "time": 67.94060800000001,
                    "velocity": 0.31496062992125984,
                    "duration": 0.5307860000000062
                },
                {
                    "name": "A3",
                    "midi": 57,
                    "time": 67.94060800000001,
                    "velocity": 0.25984251968503935,
                    "duration": 0.5307860000000062
                },
                {
                    "name": "G3",
                    "midi": 55,
                    "time": 68.47139400000002,
                    "velocity": 0.30708661417322836,
                    "duration": 0.5307860000000062
                },
                {
                    "name": "B3",
                    "midi": 59,
                    "time": 68.47139400000002,
                    "velocity": 0.36220472440944884,
                    "duration": 0.5307860000000062
                },
                {
                    "name": "C4",
                    "midi": 60,
                    "time": 70.06375200000002,
                    "velocity": 0.4015748031496063,
                    "duration": 0.5307860000000062
                },
                {
                    "name": "D#4",
                    "midi": 63,
                    "time": 70.59453800000003,
                    "velocity": 0.3858267716535433,
                    "duration": 0.5307860000000062
                },
                {
                    "name": "C4",
                    "midi": 60,
                    "time": 71.12532400000003,
                    "velocity": 0.4094488188976378,
                    "duration": 0.5307860000000062
                },
                {
                    "name": "F#3",
                    "midi": 54,
                    "time": 71.65611000000004,
                    "velocity": 0.4409448818897638,
                    "duration": 1.0615719999999982
                },
                {
                    "name": "G3",
                    "midi": 55,
                    "time": 73.24846800000005,
                    "velocity": 0.4015748031496063,
                    "duration": 0.5307860000000062
                },
                {
                    "name": "D4",
                    "midi": 62,
                    "time": 73.77925400000005,
                    "velocity": 0.3779527559055118,
                    "duration": 0.5307860000000062
                },
                {
                    "name": "D3",
                    "midi": 50,
                    "time": 74.31004000000006,
                    "velocity": 0.4015748031496063,
                    "duration": 0.5307860000000062
                },
                {
                    "name": "G3",
                    "midi": 55,
                    "time": 74.84082600000006,
                    "velocity": 0.4015748031496063,
                    "duration": 0.2653930000000031
                },
                {
                    "name": "G2",
                    "midi": 43,
                    "time": 75.10621900000007,
                    "velocity": 0.33858267716535434,
                    "duration": 0.2653930000000031
                },
                {
                    "name": "G3",
                    "midi": 55,
                    "time": 75.37161200000007,
                    "velocity": 0.4015748031496063,
                    "duration": 0.2653930000000031
                },
                {
                    "name": "F3",
                    "midi": 53,
                    "time": 75.63700500000007,
                    "velocity": 0.33858267716535434,
                    "duration": 0.2653930000000031
                },
                {
                    "name": "D#3",
                    "midi": 51,
                    "time": 75.90239800000008,
                    "velocity": 0.3779527559055118,
                    "duration": 0.2653930000000031
                },
                {
                    "name": "D3",
                    "midi": 50,
                    "time": 76.16779100000008,
                    "velocity": 0.31496062992125984,
                    "duration": 0.2653930000000031
                },
                {
                    "name": "C3",
                    "midi": 48,
                    "time": 76.43318400000008,
                    "velocity": 0.33858267716535434,
                    "duration": 0.5307860000000062
                },
                {
                    "name": "E4",
                    "midi": 64,
                    "time": 76.96397000000009,
                    "velocity": 0.31496062992125984,
                    "duration": 0.5307860000000062
                },
                {
                    "name": "C4",
                    "midi": 60,
                    "time": 76.96397000000009,
                    "velocity": 0.25984251968503935,
                    "duration": 0.5307860000000062
                },
                {
                    "name": "F4",
                    "midi": 65,
                    "time": 77.4947560000001,
                    "velocity": 0.31496062992125984,
                    "duration": 0.5307860000000062
                },
                {
                    "name": "D4",
                    "midi": 62,
                    "time": 77.4947560000001,
                    "velocity": 0.25984251968503935,
                    "duration": 0.5307860000000062
                },
                {
                    "name": "E4",
                    "midi": 64,
                    "time": 78.0255420000001,
                    "velocity": 0.30708661417322836,
                    "duration": 0.5307860000000062
                },
                {
                    "name": "G4",
                    "midi": 67,
                    "time": 78.0255420000001,
                    "velocity": 0.36220472440944884,
                    "duration": 0.5307860000000062
                },
                {
                    "name": "F4",
                    "midi": 65,
                    "time": 79.08711400000011,
                    "velocity": 0.36220472440944884,
                    "duration": 0.5307860000000062
                },
                {
                    "name": "D3",
                    "midi": 50,
                    "time": 79.61790000000012,
                    "velocity": 0.3700787401574803,
                    "duration": 0.5307860000000062
                },
                {
                    "name": "F#4",
                    "midi": 66,
                    "time": 80.14868600000013,
                    "velocity": 0.33858267716535434,
                    "duration": 0.5307860000000062
                },
                {
                    "name": "D4",
                    "midi": 62,
                    "time": 80.14868600000013,
                    "velocity": 0.2755905511811024,
                    "duration": 0.5307860000000062
                },
                {
                    "name": "G4",
                    "midi": 67,
                    "time": 80.67947200000013,
                    "velocity": 0.33858267716535434,
                    "duration": 0.5307860000000062
                },
                {
                    "name": "E4",
                    "midi": 64,
                    "time": 80.67947200000013,
                    "velocity": 0.2755905511811024,
                    "duration": 0.5307860000000062
                },
                {
                    "name": "F#4",
                    "midi": 66,
                    "time": 81.21025800000014,
                    "velocity": 0.30708661417322836,
                    "duration": 0.5307860000000062
                },
                {
                    "name": "A4",
                    "midi": 69,
                    "time": 81.21025800000014,
                    "velocity": 0.36220472440944884,
                    "duration": 0.5307860000000062
                },
                {
                    "name": "G4",
                    "midi": 67,
                    "time": 82.27183000000015,
                    "velocity": 0.36220472440944884,
                    "duration": 0.5307860000000062
                },
                {
                    "name": "C2",
                    "midi": 36,
                    "time": 82.80261600000016,
                    "velocity": 0.30708661417322836,
                    "duration": 0.5307860000000062
                },
                {
                    "name": "C3",
                    "midi": 48,
                    "time": 82.80261600000016,
                    "velocity": 0.33858267716535434,
                    "duration": 0.5307860000000062
                },
                {
                    "name": "G3",
                    "midi": 55,
                    "time": 83.33340200000016,
                    "velocity": 0.31496062992125984,
                    "duration": 0.5307860000000062
                },
                {
                    "name": "D#3",
                    "midi": 51,
                    "time": 83.33340200000016,
                    "velocity": 0.25984251968503935,
                    "duration": 0.5307860000000062
                },
                {
                    "name": "F3",
                    "midi": 53,
                    "time": 83.86418800000017,
                    "velocity": 0.31496062992125984,
                    "duration": 0.5307860000000062
                },
                {
                    "name": "D3",
                    "midi": 50,
                    "time": 83.86418800000017,
                    "velocity": 0.25984251968503935,
                    "duration": 0.5307860000000062
                },
                {
                    "name": "C3",
                    "midi": 48,
                    "time": 84.39497400000018,
                    "velocity": 0.30708661417322836,
                    "duration": 0.5307860000000062
                },
                {
                    "name": "D#3",
                    "midi": 51,
                    "time": 84.39497400000018,
                    "velocity": 0.36220472440944884,
                    "duration": 0.5307860000000062
                },
                {
                    "name": "G2",
                    "midi": 43,
                    "time": 85.98733200000018,
                    "velocity": 0.29133858267716534,
                    "duration": 0.5307860000000062
                },
                {
                    "name": "G3",
                    "midi": 55,
                    "time": 85.98733200000018,
                    "velocity": 0.36220472440944884,
                    "duration": 0.5307860000000062
                },
                {
                    "name": "D4",
                    "midi": 62,
                    "time": 86.51811800000019,
                    "velocity": 0.31496062992125984,
                    "duration": 0.5307860000000062
                },
                {
                    "name": "B3",
                    "midi": 59,
                    "time": 86.51811800000019,
                    "velocity": 0.25984251968503935,
                    "duration": 0.5307860000000062
                },
                {
                    "name": "C4",
                    "midi": 60,
                    "time": 87.04890400000019,
                    "velocity": 0.31496062992125984,
                    "duration": 0.5307860000000062
                },
                {
                    "name": "A3",
                    "midi": 57,
                    "time": 87.04890400000019,
                    "velocity": 0.25984251968503935,
                    "duration": 0.5307860000000062
                },
                {
                    "name": "G3",
                    "midi": 55,
                    "time": 87.5796900000002,
                    "velocity": 0.30708661417322836,
                    "duration": 0.5307860000000062
                },
                {
                    "name": "B3",
                    "midi": 59,
                    "time": 87.5796900000002,
                    "velocity": 0.36220472440944884,
                    "duration": 0.5307860000000062
                },
                {
                    "name": "C4",
                    "midi": 60,
                    "time": 89.1720480000002,
                    "velocity": 0.4015748031496063,
                    "duration": 0.5307860000000062
                },
                {
                    "name": "D#4",
                    "midi": 63,
                    "time": 89.70283400000021,
                    "velocity": 0.3858267716535433,
                    "duration": 0.5307860000000062
                },
                {
                    "name": "C4",
                    "midi": 60,
                    "time": 90.23362000000022,
                    "velocity": 0.4094488188976378,
                    "duration": 0.5307860000000062
                },
                {
                    "name": "B3",
                    "midi": 59,
                    "time": 90.76440600000022,
                    "velocity": 0.4409448818897638,
                    "duration": 1.0615719999999982
                },
                {
                    "name": "C4",
                    "midi": 60,
                    "time": 92.35676400000023,
                    "velocity": 0.4015748031496063,
                    "duration": 0.5307860000000062
                },
                {
                    "name": "G3",
                    "midi": 55,
                    "time": 92.88755000000023,
                    "velocity": 0.3779527559055118,
                    "duration": 0.5307860000000062
                },
                {
                    "name": "G2",
                    "midi": 43,
                    "time": 93.41833600000024,
                    "velocity": 0.4015748031496063,
                    "duration": 0.5307860000000062
                },
                {
                    "name": "C3",
                    "midi": 48,
                    "time": 93.94912200000024,
                    "velocity": 0.4015748031496063,
                    "duration": 0.5307860000000062
                },
                {
                    "name": "G3",
                    "midi": 55,
                    "time": 94.47990800000025,
                    "velocity": 0.4015748031496063,
                    "duration": 0.2653930000000031
                },
                {
                    "name": "F3",
                    "midi": 53,
                    "time": 94.74530100000025,
                    "velocity": 0.33858267716535434,
                    "duration": 0.2653930000000031
                },
                {
                    "name": "D#3",
                    "midi": 51,
                    "time": 95.01069400000026,
                    "velocity": 0.3779527559055118,
                    "duration": 0.2653930000000031
                },
                {
                    "name": "D3",
                    "midi": 50,
                    "time": 95.27608700000026,
                    "velocity": 0.31496062992125984,
                    "duration": 0.2653930000000031
                },
                {
                    "name": "C3",
                    "midi": 48,
                    "time": 95.54148000000026,
                    "velocity": 0.33858267716535434,
                    "duration": 0.5307860000000062
                },
                {
                    "name": "E4",
                    "midi": 64,
                    "time": 96.07226600000027,
                    "velocity": 0.31496062992125984,
                    "duration": 0.5307860000000062
                },
                {
                    "name": "C4",
                    "midi": 60,
                    "time": 96.07226600000027,
                    "velocity": 0.25984251968503935,
                    "duration": 0.5307860000000062
                },
                {
                    "name": "F4",
                    "midi": 65,
                    "time": 96.60305200000028,
                    "velocity": 0.31496062992125984,
                    "duration": 0.5307860000000062
                },
                {
                    "name": "D4",
                    "midi": 62,
                    "time": 96.60305200000028,
                    "velocity": 0.25984251968503935,
                    "duration": 0.5307860000000062
                },
                {
                    "name": "E4",
                    "midi": 64,
                    "time": 97.13383800000028,
                    "velocity": 0.33070866141732286,
                    "duration": 0.5307860000000062
                },
                {
                    "name": "G4",
                    "midi": 67,
                    "time": 97.13383800000028,
                    "velocity": 0.3937007874015748,
                    "duration": 0.5307860000000062
                },
                {
                    "name": "F4",
                    "midi": 65,
                    "time": 98.1954100000003,
                    "velocity": 0.3937007874015748,
                    "duration": 0.5307860000000062
                },
                {
                    "name": "D3",
                    "midi": 50,
                    "time": 98.7261960000003,
                    "velocity": 0.3700787401574803,
                    "duration": 0.5307860000000062
                },
                {
                    "name": "F#4",
                    "midi": 66,
                    "time": 99.2569820000003,
                    "velocity": 0.33858267716535434,
                    "duration": 0.5307860000000062
                },
                {
                    "name": "D4",
                    "midi": 62,
                    "time": 99.2569820000003,
                    "velocity": 0.2755905511811024,
                    "duration": 0.5307860000000062
                },
                {
                    "name": "G4",
                    "midi": 67,
                    "time": 99.78776800000031,
                    "velocity": 0.33858267716535434,
                    "duration": 0.5307860000000062
                },
                {
                    "name": "E4",
                    "midi": 64,
                    "time": 99.78776800000031,
                    "velocity": 0.2755905511811024,
                    "duration": 0.5307860000000062
                },
                {
                    "name": "F#4",
                    "midi": 66,
                    "time": 100.31855400000032,
                    "velocity": 0.30708661417322836,
                    "duration": 0.5307860000000062
                },
                {
                    "name": "A4",
                    "midi": 69,
                    "time": 100.31855400000032,
                    "velocity": 0.36220472440944884,
                    "duration": 0.5307860000000062
                },
                {
                    "name": "G4",
                    "midi": 67,
                    "time": 101.38012600000033,
                    "velocity": 0.36220472440944884,
                    "duration": 0.5307860000000062
                },
                {
                    "name": "C2",
                    "midi": 36,
                    "time": 101.91091200000034,
                    "velocity": 0.30708661417322836,
                    "duration": 0.5307860000000062
                },
                {
                    "name": "C3",
                    "midi": 48,
                    "time": 101.91091200000034,
                    "velocity": 0.33858267716535434,
                    "duration": 0.5307860000000062
                },
                {
                    "name": "G3",
                    "midi": 55,
                    "time": 102.44169800000034,
                    "velocity": 0.31496062992125984,
                    "duration": 0.5307860000000062
                },
                {
                    "name": "D#3",
                    "midi": 51,
                    "time": 102.44169800000034,
                    "velocity": 0.25984251968503935,
                    "duration": 0.5307860000000062
                },
                {
                    "name": "F3",
                    "midi": 53,
                    "time": 102.97248400000035,
                    "velocity": 0.31496062992125984,
                    "duration": 0.5307860000000062
                },
                {
                    "name": "D3",
                    "midi": 50,
                    "time": 102.97248400000035,
                    "velocity": 0.25984251968503935,
                    "duration": 0.5307860000000062
                },
                {
                    "name": "C3",
                    "midi": 48,
                    "time": 103.50327000000036,
                    "velocity": 0.30708661417322836,
                    "duration": 0.5307860000000062
                },
                {
                    "name": "D#3",
                    "midi": 51,
                    "time": 103.50327000000036,
                    "velocity": 0.36220472440944884,
                    "duration": 0.5307860000000062
                },
                {
                    "name": "G2",
                    "midi": 43,
                    "time": 105.09562800000036,
                    "velocity": 0.29133858267716534,
                    "duration": 0.5307860000000062
                },
                {
                    "name": "G3",
                    "midi": 55,
                    "time": 105.09562800000036,
                    "velocity": 0.36220472440944884,
                    "duration": 0.5307860000000062
                },
                {
                    "name": "D4",
                    "midi": 62,
                    "time": 105.62641400000037,
                    "velocity": 0.31496062992125984,
                    "duration": 0.5307860000000062
                },
                {
                    "name": "B3",
                    "midi": 59,
                    "time": 105.62641400000037,
                    "velocity": 0.25984251968503935,
                    "duration": 0.5307860000000062
                },
                {
                    "name": "C4",
                    "midi": 60,
                    "time": 106.15720000000037,
                    "velocity": 0.31496062992125984,
                    "duration": 0.5307860000000062
                },
                {
                    "name": "A3",
                    "midi": 57,
                    "time": 106.15720000000037,
                    "velocity": 0.25984251968503935,
                    "duration": 0.5307860000000062
                },
                {
                    "name": "G3",
                    "midi": 55,
                    "time": 106.68798600000038,
                    "velocity": 0.30708661417322836,
                    "duration": 0.5307860000000062
                },
                {
                    "name": "B3",
                    "midi": 59,
                    "time": 106.68798600000038,
                    "velocity": 0.36220472440944884,
                    "duration": 0.5307860000000062
                },
                {
                    "name": "C4",
                    "midi": 60,
                    "time": 108.28034400000038,
                    "velocity": 0.4015748031496063,
                    "duration": 0.5307860000000062
                },
                {
                    "name": "D#4",
                    "midi": 63,
                    "time": 108.81113000000039,
                    "velocity": 0.3858267716535433,
                    "duration": 0.5307860000000062
                },
                {
                    "name": "C4",
                    "midi": 60,
                    "time": 109.3419160000004,
                    "velocity": 0.4094488188976378,
                    "duration": 0.5307860000000062
                },
                {
                    "name": "B3",
                    "midi": 59,
                    "time": 109.8727020000004,
                    "velocity": 0.4409448818897638,
                    "duration": 1.0615719999999982
                },
                {
                    "name": "C4",
                    "midi": 60,
                    "time": 111.4650600000004,
                    "velocity": 0.4015748031496063,
                    "duration": 0.5307860000000062
                },
                {
                    "name": "G3",
                    "midi": 55,
                    "time": 111.99584600000041,
                    "velocity": 0.3779527559055118,
                    "duration": 0.5307860000000062
                },
                {
                    "name": "G2",
                    "midi": 43,
                    "time": 112.52663200000042,
                    "velocity": 0.4015748031496063,
                    "duration": 0.5307860000000062
                },
                {
                    "name": "C3",
                    "midi": 48,
                    "time": 113.05741800000042,
                    "velocity": 0.4015748031496063,
                    "duration": 0.5307860000000062
                },
                {
                    "name": "G2",
                    "midi": 43,
                    "time": 113.58820400000043,
                    "velocity": 0.4015748031496063,
                    "duration": 0.13269649999999444
                },
                {
                    "name": "C2",
                    "midi": 36,
                    "time": 114.11899000000042,
                    "velocity": 0.3779527559055118,
                    "duration": 0.2653930000000031
                },
                {
                    "name": "C3",
                    "midi": 48,
                    "time": 114.64977600000043,
                    "velocity": 0.31496062992125984,
                    "duration": 0.7961789999999951
                },
                {
                    "name": "C4",
                    "midi": 60,
                    "time": 114.64977600000043,
                    "velocity": 0.36220472440944884,
                    "duration": 0.7961789999999951
                },
                {
                    "name": "C4",
                    "midi": 60,
                    "time": 115.71134800000043,
                    "velocity": 0.29133858267716534,
                    "duration": 0.5307860000000062
                },
                {
                    "name": "D4",
                    "midi": 62,
                    "time": 116.24213400000043,
                    "velocity": 0.36220472440944884,
                    "duration": 0.5307860000000062
                },
                {
                    "name": "B3",
                    "midi": 59,
                    "time": 116.77292000000044,
                    "velocity": 0.33070866141732286,
                    "duration": 0.13269649999999444
                },
                {
                    "name": "G3",
                    "midi": 55,
                    "time": 117.30370600000043,
                    "velocity": 0.31496062992125984,
                    "duration": 0.5307860000000062
                },
                {
                    "name": "C4",
                    "midi": 60,
                    "time": 117.83449200000044,
                    "velocity": 0.36220472440944884,
                    "duration": 0.5307860000000062
                },
                {
                    "name": "E3",
                    "midi": 52,
                    "time": 118.36527800000044,
                    "velocity": 0.30708661417322836,
                    "duration": 0.13269649999999444
                },
                {
                    "name": "F3",
                    "midi": 53,
                    "time": 118.89606400000044,
                    "velocity": 0.33070866141732286,
                    "duration": 0.5307860000000062
                },
                {
                    "name": "G3",
                    "midi": 55,
                    "time": 119.42685000000044,
                    "velocity": 0.36220472440944884,
                    "duration": 0.5307860000000062
                },
                {
                    "name": "D3",
                    "midi": 50,
                    "time": 119.95763600000045,
                    "velocity": 0.31496062992125984,
                    "duration": 0.13269649999999444
                },
                {
                    "name": "G2",
                    "midi": 43,
                    "time": 120.48842200000044,
                    "velocity": 0.33070866141732286,
                    "duration": 0.2653930000000031
                },
                {
                    "name": "G3",
                    "midi": 55,
                    "time": 121.01920800000045,
                    "velocity": 0.3937007874015748,
                    "duration": 0.5307860000000062
                },
                {
                    "name": "B3",
                    "midi": 59,
                    "time": 121.01920800000045,
                    "velocity": 0.4645669291338583,
                    "duration": 0.5307860000000062
                },
                {
                    "name": "G3",
                    "midi": 55,
                    "time": 122.61156600000045,
                    "velocity": 0.3937007874015748,
                    "duration": 0.5307860000000062
                },
                {
                    "name": "B3",
                    "midi": 59,
                    "time": 122.61156600000045,
                    "velocity": 0.4645669291338583,
                    "duration": 0.5307860000000062
                },
                {
                    "name": "G3",
                    "midi": 55,
                    "time": 124.20392400000046,
                    "velocity": 0.3937007874015748,
                    "duration": 0.5307860000000062
                },
                {
                    "name": "B3",
                    "midi": 59,
                    "time": 124.20392400000046,
                    "velocity": 0.4645669291338583,
                    "duration": 0.5307860000000062
                },
                {
                    "name": "D4",
                    "midi": 62,
                    "time": 124.73471000000046,
                    "velocity": 0.3228346456692913,
                    "duration": 0.5307860000000062
                },
                {
                    "name": "D3",
                    "midi": 50,
                    "time": 125.26549600000047,
                    "velocity": 0.2755905511811024,
                    "duration": 0.5307860000000062
                },
                {
                    "name": "G3",
                    "midi": 55,
                    "time": 125.79628200000047,
                    "velocity": 0.36220472440944884,
                    "duration": 0.5307860000000062
                },
                {
                    "name": "D3",
                    "midi": 50,
                    "time": 126.32706800000048,
                    "velocity": 0.31496062992125984,
                    "duration": 0.13269649999999444
                },
                {
                    "name": "G2",
                    "midi": 43,
                    "time": 126.85785400000047,
                    "velocity": 0.33070866141732286,
                    "duration": 0.2653930000000031
                },
                {
                    "name": "E5",
                    "midi": 76,
                    "time": 127.38864000000048,
                    "velocity": 0.36220472440944884,
                    "duration": 0.7961790000000093
                },
                {
                    "name": "C5",
                    "midi": 72,
                    "time": 128.45021200000048,
                    "velocity": 0.29133858267716534,
                    "duration": 0.5307860000000062
                },
                {
                    "name": "D5",
                    "midi": 74,
                    "time": 128.98099800000048,
                    "velocity": 0.36220472440944884,
                    "duration": 0.5307860000000062
                },
                {
                    "name": "B4",
                    "midi": 71,
                    "time": 129.5117840000005,
                    "velocity": 0.33070866141732286,
                    "duration": 0.13269650000000865
                },
                {
                    "name": "G4",
                    "midi": 67,
                    "time": 130.0425700000005,
                    "velocity": 0.31496062992125984,
                    "duration": 0.5307860000000062
                },
                {
                    "name": "C5",
                    "midi": 72,
                    "time": 130.5733560000005,
                    "velocity": 0.36220472440944884,
                    "duration": 0.5307860000000062
                },
                {
                    "name": "E4",
                    "midi": 64,
                    "time": 131.1041420000005,
                    "velocity": 0.30708661417322836,
                    "duration": 0.5307860000000062
                },
                {
                    "name": "F4",
                    "midi": 65,
                    "time": 131.6349280000005,
                    "velocity": 0.36220472440944884,
                    "duration": 0.5307860000000062
                },
                {
                    "name": "G4",
                    "midi": 67,
                    "time": 132.16571400000052,
                    "velocity": 0.4251968503937008,
                    "duration": 0.5307860000000062
                },
                {
                    "name": "D4",
                    "midi": 62,
                    "time": 132.69650000000053,
                    "velocity": 0.31496062992125984,
                    "duration": 0.13269650000000865
                },
                {
                    "name": "G3",
                    "midi": 55,
                    "time": 133.22728600000053,
                    "velocity": 0.33070866141732286,
                    "duration": 0.2653929999999889
                },
                {
                    "name": "C3",
                    "midi": 48,
                    "time": 133.7580720000005,
                    "velocity": 0.3937007874015748,
                    "duration": 0.5307860000000062
                },
                {
                    "name": "E3",
                    "midi": 52,
                    "time": 133.7580720000005,
                    "velocity": 0.3937007874015748,
                    "duration": 0.5307860000000062
                },
                {
                    "name": "G3",
                    "midi": 55,
                    "time": 133.7580720000005,
                    "velocity": 0.3937007874015748,
                    "duration": 0.5307860000000062
                },
                {
                    "name": "C4",
                    "midi": 60,
                    "time": 133.7580720000005,
                    "velocity": 0.4645669291338583,
                    "duration": 0.5307860000000062
                },
                {
                    "name": "C3",
                    "midi": 48,
                    "time": 135.35043000000053,
                    "velocity": 0.3937007874015748,
                    "duration": 0.5307860000000062
                },
                {
                    "name": "E3",
                    "midi": 52,
                    "time": 135.35043000000053,
                    "velocity": 0.3937007874015748,
                    "duration": 0.5307860000000062
                },
                {
                    "name": "G3",
                    "midi": 55,
                    "time": 135.35043000000053,
                    "velocity": 0.3937007874015748,
                    "duration": 0.5307860000000062
                },
                {
                    "name": "C4",
                    "midi": 60,
                    "time": 135.35043000000053,
                    "velocity": 0.4645669291338583,
                    "duration": 0.5307860000000062
                },
                {
                    "name": "E3",
                    "midi": 52,
                    "time": 136.94278800000055,
                    "velocity": 0.4645669291338583,
                    "duration": 0.5307860000000062
                },
                {
                    "name": "G3",
                    "midi": 55,
                    "time": 137.47357400000055,
                    "velocity": 0.3228346456692913,
                    "duration": 0.5307860000000062
                },
                {
                    "name": "G2",
                    "midi": 43,
                    "time": 138.00436000000056,
                    "velocity": 0.3228346456692913,
                    "duration": 0.5307860000000062
                },
                {
                    "name": "C3",
                    "midi": 48,
                    "time": 138.53514600000057,
                    "velocity": 0.36220472440944884,
                    "duration": 0.5307860000000062
                },
                {
                    "name": "G2",
                    "midi": 43,
                    "time": 139.06593200000057,
                    "velocity": 0.31496062992125984,
                    "duration": 0.13269650000000865
                },
                {
                    "name": "C2",
                    "midi": 36,
                    "time": 139.59671800000058,
                    "velocity": 0.33070866141732286,
                    "duration": 0.2653929999999889
                }
            ],
            "controlChanges": {},
            "id": 2,
            "name": "Piano left",
            "instrumentNumber": 0,
            "instrument": "acoustic grand piano",
            "instrumentFamily": "piano",
            "channelNumber": 0,
            "isPercussion": false
        },
        {
            "startTime": 0,
            "duration": 0,
            "length": 0,
            "notes": [],
            "controlChanges": {
                "64": [
                    {
                        "number": 64,
                        "time": 10.674327620833333,
                        "value": 1
                    },
                    {
                        "number": 64,
                        "time": 11.146506,
                        "value": 0
                    },
                    {
                        "number": 64,
                        "time": 23.41319162083333,
                        "value": 1
                    },
                    {
                        "number": 64,
                        "time": 23.885369999999998,
                        "value": 0
                    },
                    {
                        "number": 64,
                        "time": 36.15205562083333,
                        "value": 1
                    },
                    {
                        "number": 64,
                        "time": 36.624233999999994,
                        "value": 0
                    },
                    {
                        "number": 64,
                        "time": 48.89091962083333,
                        "value": 1
                    },
                    {
                        "number": 64,
                        "time": 49.363097999999994,
                        "value": 0
                    },
                    {
                        "number": 64,
                        "time": 51.04944935416666,
                        "value": 1
                    },
                    {
                        "number": 64,
                        "time": 51.49508843333333,
                        "value": 0
                    },
                    {
                        "number": 64,
                        "time": 51.6421603875,
                        "value": 1
                    },
                    {
                        "number": 64,
                        "time": 52.03029765,
                        "value": 0
                    },
                    {
                        "number": 64,
                        "time": 52.15746512916667,
                        "value": 1
                    },
                    {
                        "number": 64,
                        "time": 52.5710358875,
                        "value": 0
                    },
                    {
                        "number": 64,
                        "time": 54.23416535416667,
                        "value": 1
                    },
                    {
                        "number": 64,
                        "time": 54.67980443333334,
                        "value": 0
                    },
                    {
                        "number": 64,
                        "time": 54.82687638750001,
                        "value": 1
                    },
                    {
                        "number": 64,
                        "time": 55.21501365000001,
                        "value": 0
                    },
                    {
                        "number": 64,
                        "time": 55.342181129166676,
                        "value": 1
                    },
                    {
                        "number": 64,
                        "time": 55.75575188750001,
                        "value": 0
                    },
                    {
                        "number": 64,
                        "time": 57.41114072500001,
                        "value": 1
                    },
                    {
                        "number": 64,
                        "time": 58.93493886666668,
                        "value": 0
                    },
                    {
                        "number": 64,
                        "time": 63.788313354166675,
                        "value": 1
                    },
                    {
                        "number": 64,
                        "time": 64.23395243333334,
                        "value": 0
                    },
                    {
                        "number": 64,
                        "time": 64.3810243875,
                        "value": 1
                    },
                    {
                        "number": 64,
                        "time": 64.76916165,
                        "value": 0
                    },
                    {
                        "number": 64,
                        "time": 64.89632912916667,
                        "value": 1
                    },
                    {
                        "number": 64,
                        "time": 65.30989988750001,
                        "value": 0
                    },
                    {
                        "number": 64,
                        "time": 66.97302935416667,
                        "value": 1
                    },
                    {
                        "number": 64,
                        "time": 67.41866843333334,
                        "value": 0
                    },
                    {
                        "number": 64,
                        "time": 67.5657403875,
                        "value": 1
                    },
                    {
                        "number": 64,
                        "time": 67.95387765,
                        "value": 0
                    },
                    {
                        "number": 64,
                        "time": 68.08104512916667,
                        "value": 1
                    },
                    {
                        "number": 64,
                        "time": 68.4946158875,
                        "value": 0
                    },
                    {
                        "number": 64,
                        "time": 70.150004725,
                        "value": 1
                    },
                    {
                        "number": 64,
                        "time": 71.67380286666666,
                        "value": 0
                    },
                    {
                        "number": 64,
                        "time": 76.52717735416667,
                        "value": 1
                    },
                    {
                        "number": 64,
                        "time": 76.97281643333334,
                        "value": 0
                    },
                    {
                        "number": 64,
                        "time": 77.1198883875,
                        "value": 1
                    },
                    {
                        "number": 64,
                        "time": 77.50802565,
                        "value": 0
                    },
                    {
                        "number": 64,
                        "time": 77.63519312916667,
                        "value": 1
                    },
                    {
                        "number": 64,
                        "time": 78.025542,
                        "value": 0
                    },
                    {
                        "number": 64,
                        "time": 79.71189335416666,
                        "value": 1
                    },
                    {
                        "number": 64,
                        "time": 80.15753243333333,
                        "value": 0
                    },
                    {
                        "number": 64,
                        "time": 80.30460438749999,
                        "value": 1
                    },
                    {
                        "number": 64,
                        "time": 80.69274164999999,
                        "value": 0
                    },
                    {
                        "number": 64,
                        "time": 80.81990912916666,
                        "value": 1
                    },
                    {
                        "number": 64,
                        "time": 81.210258,
                        "value": 0
                    },
                    {
                        "number": 64,
                        "time": 82.89660935416666,
                        "value": 1
                    },
                    {
                        "number": 64,
                        "time": 83.34224843333332,
                        "value": 0
                    },
                    {
                        "number": 64,
                        "time": 83.48932038749999,
                        "value": 1
                    },
                    {
                        "number": 64,
                        "time": 83.87745764999998,
                        "value": 0
                    },
                    {
                        "number": 64,
                        "time": 84.00462512916666,
                        "value": 1
                    },
                    {
                        "number": 64,
                        "time": 84.41819588749999,
                        "value": 0
                    },
                    {
                        "number": 64,
                        "time": 86.08132535416665,
                        "value": 1
                    },
                    {
                        "number": 64,
                        "time": 86.52696443333332,
                        "value": 0
                    },
                    {
                        "number": 64,
                        "time": 86.67403638749998,
                        "value": 1
                    },
                    {
                        "number": 64,
                        "time": 87.06217364999998,
                        "value": 0
                    },
                    {
                        "number": 64,
                        "time": 87.18934112916665,
                        "value": 1
                    },
                    {
                        "number": 64,
                        "time": 87.60291188749999,
                        "value": 0
                    },
                    {
                        "number": 64,
                        "time": 89.25830072499998,
                        "value": 1
                    },
                    {
                        "number": 64,
                        "time": 90.78209886666664,
                        "value": 0
                    },
                    {
                        "number": 64,
                        "time": 95.63547335416665,
                        "value": 1
                    },
                    {
                        "number": 64,
                        "time": 96.08111243333332,
                        "value": 0
                    },
                    {
                        "number": 64,
                        "time": 96.22818438749998,
                        "value": 1
                    },
                    {
                        "number": 64,
                        "time": 96.61632164999997,
                        "value": 0
                    },
                    {
                        "number": 64,
                        "time": 96.74348912916665,
                        "value": 1
                    },
                    {
                        "number": 64,
                        "time": 97.13383799999998,
                        "value": 0
                    },
                    {
                        "number": 64,
                        "time": 98.82018935416664,
                        "value": 1
                    },
                    {
                        "number": 64,
                        "time": 99.26582843333331,
                        "value": 0
                    },
                    {
                        "number": 64,
                        "time": 99.41290038749997,
                        "value": 1
                    },
                    {
                        "number": 64,
                        "time": 99.80103764999997,
                        "value": 0
                    },
                    {
                        "number": 64,
                        "time": 99.92820512916664,
                        "value": 1
                    },
                    {
                        "number": 64,
                        "time": 100.31855399999998,
                        "value": 0
                    },
                    {
                        "number": 64,
                        "time": 102.00490535416664,
                        "value": 1
                    },
                    {
                        "number": 64,
                        "time": 102.4505444333333,
                        "value": 0
                    },
                    {
                        "number": 64,
                        "time": 102.59761638749997,
                        "value": 1
                    },
                    {
                        "number": 64,
                        "time": 102.98575364999996,
                        "value": 0
                    },
                    {
                        "number": 64,
                        "time": 103.11292112916664,
                        "value": 1
                    },
                    {
                        "number": 64,
                        "time": 103.52649188749997,
                        "value": 0
                    },
                    {
                        "number": 64,
                        "time": 105.18962135416663,
                        "value": 1
                    },
                    {
                        "number": 64,
                        "time": 105.6352604333333,
                        "value": 0
                    },
                    {
                        "number": 64,
                        "time": 105.78233238749996,
                        "value": 1
                    },
                    {
                        "number": 64,
                        "time": 106.17046964999996,
                        "value": 0
                    },
                    {
                        "number": 64,
                        "time": 106.29763712916663,
                        "value": 1
                    },
                    {
                        "number": 64,
                        "time": 106.71120788749997,
                        "value": 0
                    },
                    {
                        "number": 64,
                        "time": 108.36659672499997,
                        "value": 1
                    },
                    {
                        "number": 64,
                        "time": 109.89039486666663,
                        "value": 0
                    },
                    {
                        "number": 64,
                        "time": 125.32410362083328,
                        "value": 1
                    },
                    {
                        "number": 64,
                        "time": 125.79628199999995,
                        "value": 0
                    },
                    {
                        "number": 64,
                        "time": 138.0629676208333,
                        "value": 1
                    },
                    {
                        "number": 64,
                        "time": 138.53514599999997,
                        "value": 0
                    }
                ]
            },
            "id": 3,
            "name": "Pedale",
            "instrumentNumber": 0,
            "instrument": "acoustic grand piano",
            "instrumentFamily": "piano",
            "channelNumber": 0,
            "isPercussion": false
        },
        {
            "startTime": 0,
            "duration": 0,
            "length": 0,
            "notes": [],
            "controlChanges": {},
            "id": 4,
            "name": "Haydn Piano Sonata in C major, 2. movement"
        },
        {
            "startTime": 0,
            "duration": 0,
            "length": 0,
            "notes": [],
            "controlChanges": {},
            "id": 5,
            "name": "Copyright  2010 by Bernd Krueger"
        },
        {
            "startTime": 0,
            "duration": 0,
            "length": 0,
            "notes": [],
            "controlChanges": {},
            "id": 6,
            "name": "http://www.piano-midi.de/"
        },
        {
            "startTime": 0,
            "duration": 0,
            "length": 0,
            "notes": [],
            "controlChanges": {},
            "id": 7,
            "name": "Edition: 2011-10-24"
        },
        {
            "startTime": 0,
            "duration": 0,
            "length": 0,
            "notes": [],
            "controlChanges": {},
            "id": 8,
            "name": "Spur 8"
        },
        {
            "startTime": 0,
            "duration": 0,
            "length": 0,
            "notes": [],
            "controlChanges": {},
            "id": 9,
            "name": "Spur 9"
        },
        {
            "startTime": 0,
            "duration": 0,
            "length": 0,
            "notes": [],
            "controlChanges": {},
            "id": 10,
            "name": "Spur 10"
        },
        {
            "startTime": 0,
            "duration": 0,
            "length": 0,
            "notes": [],
            "controlChanges": {},
            "id": 11,
            "name": "Spur 11"
        },
        {
            "startTime": 0,
            "duration": 0,
            "length": 0,
            "notes": [],
            "controlChanges": {},
            "id": 12,
            "name": "Spur 12"
        },
        {
            "startTime": 0,
            "duration": 0,
            "length": 0,
            "notes": [],
            "controlChanges": {},
            "id": 13,
            "name": "Spur 13"
        },
        {
            "startTime": 0,
            "duration": 0,
            "length": 0,
            "notes": [],
            "controlChanges": {},
            "id": 14,
            "name": "Spur 14"
        },
        {
            "startTime": 0,
            "duration": 0,
            "length": 0,
            "notes": [],
            "controlChanges": {},
            "id": 15,
            "name": "Spur 15"
        },
        {
            "startTime": 0,
            "duration": 0,
            "length": 0,
            "notes": [],
            "controlChanges": {},
            "id": 16,
            "name": "Spur 16"
        }
    ]
}