{
    "header": {
        "PPQ": 480,
        "timeSignature": [
            4,
            4
        ],
        "bpm": 120,
        "name": "Sonate XVI:35 2. Satz"
    },
    "startTime": 0,
    "duration": 169.25000000000009,
    "tracks": [
        {
            "startTime": 0,
            "duration": 0,
            "length": 0,
            "notes": [],
            "controlChanges": {},
            "id": 0,
            "name": "Sonate XVI:35 2. Satz"
        },
        {
            "startTime": 2,
            "duration": 169.25000000000009,
            "length": 1164,
            "notes": [
                {
                    "name": "A3",
                    "midi": 57,
                    "time": 2,
                    "velocity": 0.4015748031496063,
                    "duration": 0.125
                },
                {
                    "name": "F4",
                    "midi": 65,
                    "time": 2,
                    "velocity": 0.47244094488188976,
                    "duration": 0.375
                },
                {
                    "name": "C4",
                    "midi": 60,
                    "time": 2,
                    "velocity": 0.4015748031496063,
                    "duration": 0.125
                },
                {
                    "name": "C4",
                    "midi": 60,
                    "time": 2.375,
                    "velocity": 0.4409448818897638,
                    "duration": 0.125
                },
                {
                    "name": "A#4",
                    "midi": 70,
                    "time": 2.5,
                    "velocity": 0.47244094488188976,
                    "duration": 0.125
                },
                {
                    "name": "A4",
                    "midi": 69,
                    "time": 2.625,
                    "velocity": 0.4251968503937008,
                    "duration": 0.125
                },
                {
                    "name": "G4",
                    "midi": 67,
                    "time": 2.75,
                    "velocity": 0.4251968503937008,
                    "duration": 0.125
                },
                {
                    "name": "F4",
                    "midi": 65,
                    "time": 2.875,
                    "velocity": 0.4251968503937008,
                    "duration": 0.125
                },
                {
                    "name": "E4",
                    "midi": 64,
                    "time": 3,
                    "velocity": 0.47244094488188976,
                    "duration": 0.125
                },
                {
                    "name": "F4",
                    "midi": 65,
                    "time": 3.25,
                    "velocity": 0.44881889763779526,
                    "duration": 0.125
                },
                {
                    "name": "G4",
                    "midi": 67,
                    "time": 3.5,
                    "velocity": 0.47244094488188976,
                    "duration": 0.125
                },
                {
                    "name": "A4",
                    "midi": 69,
                    "time": 3.75,
                    "velocity": 0.4330708661417323,
                    "duration": 0.125
                },
                {
                    "name": "G4",
                    "midi": 67,
                    "time": 4,
                    "velocity": 0.4015748031496063,
                    "duration": 0.125
                },
                {
                    "name": "E4",
                    "midi": 64,
                    "time": 4,
                    "velocity": 0.4015748031496063,
                    "duration": 0.125
                },
                {
                    "name": "A#4",
                    "midi": 70,
                    "time": 4,
                    "velocity": 0.47244094488188976,
                    "duration": 0.375
                },
                {
                    "name": "G4",
                    "midi": 67,
                    "time": 4.375,
                    "velocity": 0.4409448818897638,
                    "duration": 0.125
                },
                {
                    "name": "E5",
                    "midi": 76,
                    "time": 4.5,
                    "velocity": 0.47244094488188976,
                    "duration": 0.125
                },
                {
                    "name": "D5",
                    "midi": 74,
                    "time": 4.625,
                    "velocity": 0.4251968503937008,
                    "duration": 0.125
                },
                {
                    "name": "C5",
                    "midi": 72,
                    "time": 4.75,
                    "velocity": 0.4251968503937008,
                    "duration": 0.125
                },
                {
                    "name": "A#4",
                    "midi": 70,
                    "time": 4.875,
                    "velocity": 0.4251968503937008,
                    "duration": 0.125
                },
                {
                    "name": "A4",
                    "midi": 69,
                    "time": 5,
                    "velocity": 0.47244094488188976,
                    "duration": 0.125
                },
                {
                    "name": "A#4",
                    "midi": 70,
                    "time": 5.25,
                    "velocity": 0.44881889763779526,
                    "duration": 0.125
                },
                {
                    "name": "C5",
                    "midi": 72,
                    "time": 5.5,
                    "velocity": 0.47244094488188976,
                    "duration": 0.125
                },
                {
                    "name": "C#5",
                    "midi": 73,
                    "time": 5.75,
                    "velocity": 0.48031496062992124,
                    "duration": 0.125
                },
                {
                    "name": "D5",
                    "midi": 74,
                    "time": 6,
                    "velocity": 0.4330708661417323,
                    "duration": 0.375
                },
                {
                    "name": "E5",
                    "midi": 76,
                    "time": 6.375,
                    "velocity": 0.3779527559055118,
                    "duration": 0.125
                },
                {
                    "name": "G5",
                    "midi": 79,
                    "time": 6.5,
                    "velocity": 0.4330708661417323,
                    "duration": 0.125
                },
                {
                    "name": "F5",
                    "midi": 77,
                    "time": 6.625,
                    "velocity": 0.4015748031496063,
                    "duration": 0.125
                },
                {
                    "name": "E5",
                    "midi": 76,
                    "time": 6.75,
                    "velocity": 0.4015748031496063,
                    "duration": 0.125
                },
                {
                    "name": "D5",
                    "midi": 74,
                    "time": 6.875,
                    "velocity": 0.4015748031496063,
                    "duration": 0.125
                },
                {
                    "name": "C5",
                    "midi": 72,
                    "time": 7,
                    "velocity": 0.4330708661417323,
                    "duration": 0.1875
                },
                {
                    "name": "C5",
                    "midi": 72,
                    "time": 7.25,
                    "velocity": 0.3858267716535433,
                    "duration": 0.25
                },
                {
                    "name": "A#4",
                    "midi": 70,
                    "time": 7.5,
                    "velocity": 0.3858267716535433,
                    "duration": 0.03125
                },
                {
                    "name": "C5",
                    "midi": 72,
                    "time": 7.53125,
                    "velocity": 0.3464566929133858,
                    "duration": 0.03125
                },
                {
                    "name": "A#4",
                    "midi": 70,
                    "time": 7.5625,
                    "velocity": 0.3858267716535433,
                    "duration": 0.03125
                },
                {
                    "name": "C5",
                    "midi": 72,
                    "time": 7.59375,
                    "velocity": 0.33070866141732286,
                    "duration": 0.03125
                },
                {
                    "name": "A#4",
                    "midi": 70,
                    "time": 7.625,
                    "velocity": 0.3858267716535433,
                    "duration": 0.04166666666666696
                },
                {
                    "name": "C5",
                    "midi": 72,
                    "time": 7.666666666666667,
                    "velocity": 0.3543307086614173,
                    "duration": 0.04166666666666696
                },
                {
                    "name": "A#4",
                    "midi": 70,
                    "time": 7.708333333333334,
                    "velocity": 0.3543307086614173,
                    "duration": 0.04166666666666696
                },
                {
                    "name": "A4",
                    "midi": 69,
                    "time": 7.750000000000001,
                    "velocity": 0.3858267716535433,
                    "duration": 0.2499999999999991
                },
                {
                    "name": "G4",
                    "midi": 67,
                    "time": 8,
                    "velocity": 0.4251968503937008,
                    "duration": 0.1875
                },
                {
                    "name": "A4",
                    "midi": 69,
                    "time": 8.25,
                    "velocity": 0.3858267716535433,
                    "duration": 0.0625
                },
                {
                    "name": "G4",
                    "midi": 67,
                    "time": 8.3125,
                    "velocity": 0.33858267716535434,
                    "duration": 0.0625
                },
                {
                    "name": "F#4",
                    "midi": 66,
                    "time": 8.375,
                    "velocity": 0.3464566929133858,
                    "duration": 0.0625
                },
                {
                    "name": "G4",
                    "midi": 67,
                    "time": 8.4375,
                    "velocity": 0.3464566929133858,
                    "duration": 0.0625
                },
                {
                    "name": "A#4",
                    "midi": 70,
                    "time": 8.5,
                    "velocity": 0.3858267716535433,
                    "duration": 0.25
                },
                {
                    "name": "D5",
                    "midi": 74,
                    "time": 8.75,
                    "velocity": 0.3464566929133858,
                    "duration": 0.25
                },
                {
                    "name": "F4",
                    "midi": 65,
                    "time": 9,
                    "velocity": 0.3464566929133858,
                    "duration": 0.75
                },
                {
                    "name": "E4",
                    "midi": 64,
                    "time": 9.75,
                    "velocity": 0.33070866141732286,
                    "duration": 0.0625
                },
                {
                    "name": "F4",
                    "midi": 65,
                    "time": 9.8125,
                    "velocity": 0.2992125984251969,
                    "duration": 0.0625
                },
                {
                    "name": "E4",
                    "midi": 64,
                    "time": 9.875,
                    "velocity": 0.33070866141732286,
                    "duration": 0.125
                },
                {
                    "name": "F4",
                    "midi": 65,
                    "time": 10,
                    "velocity": 0.47244094488188976,
                    "duration": 0.375
                },
                {
                    "name": "A3",
                    "midi": 57,
                    "time": 10,
                    "velocity": 0.4015748031496063,
                    "duration": 0.125
                },
                {
                    "name": "C4",
                    "midi": 60,
                    "time": 10,
                    "velocity": 0.4015748031496063,
                    "duration": 0.125
                },
                {
                    "name": "C4",
                    "midi": 60,
                    "time": 10.375,
                    "velocity": 0.4409448818897638,
                    "duration": 0.125
                },
                {
                    "name": "A#4",
                    "midi": 70,
                    "time": 10.5,
                    "velocity": 0.47244094488188976,
                    "duration": 0.125
                },
                {
                    "name": "A4",
                    "midi": 69,
                    "time": 10.625,
                    "velocity": 0.4251968503937008,
                    "duration": 0.125
                },
                {
                    "name": "G4",
                    "midi": 67,
                    "time": 10.75,
                    "velocity": 0.4251968503937008,
                    "duration": 0.125
                },
                {
                    "name": "F4",
                    "midi": 65,
                    "time": 10.875,
                    "velocity": 0.4251968503937008,
                    "duration": 0.125
                },
                {
                    "name": "E4",
                    "midi": 64,
                    "time": 11,
                    "velocity": 0.47244094488188976,
                    "duration": 0.1875
                },
                {
                    "name": "C4",
                    "midi": 60,
                    "time": 11.1875,
                    "velocity": 0.41732283464566927,
                    "duration": 0.0625
                },
                {
                    "name": "F4",
                    "midi": 65,
                    "time": 11.25,
                    "velocity": 0.44881889763779526,
                    "duration": 0.1875
                },
                {
                    "name": "C4",
                    "midi": 60,
                    "time": 11.4375,
                    "velocity": 0.41732283464566927,
                    "duration": 0.0625
                },
                {
                    "name": "G4",
                    "midi": 67,
                    "time": 11.5,
                    "velocity": 0.47244094488188976,
                    "duration": 0.1875
                },
                {
                    "name": "C4",
                    "midi": 60,
                    "time": 11.6875,
                    "velocity": 0.41732283464566927,
                    "duration": 0.0625
                },
                {
                    "name": "A4",
                    "midi": 69,
                    "time": 11.75,
                    "velocity": 0.4330708661417323,
                    "duration": 0.1875
                },
                {
                    "name": "C4",
                    "midi": 60,
                    "time": 11.9375,
                    "velocity": 0.41732283464566927,
                    "duration": 0.0625
                },
                {
                    "name": "A#4",
                    "midi": 70,
                    "time": 12,
                    "velocity": 0.47244094488188976,
                    "duration": 0.375
                },
                {
                    "name": "G4",
                    "midi": 67,
                    "time": 12.375,
                    "velocity": 0.4409448818897638,
                    "duration": 0.125
                },
                {
                    "name": "E5",
                    "midi": 76,
                    "time": 12.5,
                    "velocity": 0.47244094488188976,
                    "duration": 0.125
                },
                {
                    "name": "D5",
                    "midi": 74,
                    "time": 12.625,
                    "velocity": 0.4251968503937008,
                    "duration": 0.125
                },
                {
                    "name": "C5",
                    "midi": 72,
                    "time": 12.75,
                    "velocity": 0.4251968503937008,
                    "duration": 0.125
                },
                {
                    "name": "A#4",
                    "midi": 70,
                    "time": 12.875,
                    "velocity": 0.4251968503937008,
                    "duration": 0.125
                },
                {
                    "name": "A4",
                    "midi": 69,
                    "time": 13,
                    "velocity": 0.47244094488188976,
                    "duration": 0.25
                },
                {
                    "name": "A#4",
                    "midi": 70,
                    "time": 13.25,
                    "velocity": 0.44881889763779526,
                    "duration": 0.25
                },
                {
                    "name": "C5",
                    "midi": 72,
                    "time": 13.5,
                    "velocity": 0.47244094488188976,
                    "duration": 0.25
                },
                {
                    "name": "C#5",
                    "midi": 73,
                    "time": 13.75,
                    "velocity": 0.48031496062992124,
                    "duration": 0.25
                },
                {
                    "name": "C#5",
                    "midi": 73,
                    "time": 14.125,
                    "velocity": 0.4330708661417323,
                    "duration": 0.125
                },
                {
                    "name": "D5",
                    "midi": 74,
                    "time": 14.25,
                    "velocity": 0.4566929133858268,
                    "duration": 0.125
                },
                {
                    "name": "E5",
                    "midi": 76,
                    "time": 14.375,
                    "velocity": 0.4330708661417323,
                    "duration": 0.125
                },
                {
                    "name": "F5",
                    "midi": 77,
                    "time": 14.5,
                    "velocity": 0.44881889763779526,
                    "duration": 0.125
                },
                {
                    "name": "F#5",
                    "midi": 78,
                    "time": 14.625,
                    "velocity": 0.4645669291338583,
                    "duration": 0.125
                },
                {
                    "name": "G5",
                    "midi": 79,
                    "time": 14.75,
                    "velocity": 0.48031496062992124,
                    "duration": 0.125
                },
                {
                    "name": "A5",
                    "midi": 81,
                    "time": 14.875,
                    "velocity": 0.49606299212598426,
                    "duration": 0.125
                },
                {
                    "name": "A#5",
                    "midi": 82,
                    "time": 15,
                    "velocity": 0.5118110236220472,
                    "duration": 0.125
                },
                {
                    "name": "B5",
                    "midi": 83,
                    "time": 15.125,
                    "velocity": 0.5354330708661418,
                    "duration": 0.125
                },
                {
                    "name": "C6",
                    "midi": 84,
                    "time": 15.25,
                    "velocity": 0.5511811023622047,
                    "duration": 0.125
                },
                {
                    "name": "C#6",
                    "midi": 85,
                    "time": 15.375,
                    "velocity": 0.5354330708661418,
                    "duration": 0.125
                },
                {
                    "name": "D6",
                    "midi": 86,
                    "time": 15.5,
                    "velocity": 0.5905511811023622,
                    "duration": 0.125
                },
                {
                    "name": "A5",
                    "midi": 81,
                    "time": 15.625,
                    "velocity": 0.49606299212598426,
                    "duration": 0.125
                },
                {
                    "name": "A#5",
                    "midi": 82,
                    "time": 15.75,
                    "velocity": 0.5196850393700787,
                    "duration": 0.125
                },
                {
                    "name": "G5",
                    "midi": 79,
                    "time": 15.875,
                    "velocity": 0.48031496062992124,
                    "duration": 0.125
                },
                {
                    "name": "F5",
                    "midi": 77,
                    "time": 16,
                    "velocity": 0.5590551181102362,
                    "duration": 0.75
                },
                {
                    "name": "G5",
                    "midi": 79,
                    "time": 16.75,
                    "velocity": 0.3228346456692913,
                    "duration": 0.125
                },
                {
                    "name": "F5",
                    "midi": 77,
                    "time": 16.875,
                    "velocity": 0.2755905511811024,
                    "duration": 0.125
                },
                {
                    "name": "E5",
                    "midi": 76,
                    "time": 17,
                    "velocity": 0.30708661417322836,
                    "duration": 0.5
                },
                {
                    "name": "G5",
                    "midi": 79,
                    "time": 18,
                    "velocity": 0.47244094488188976,
                    "duration": 0.5
                },
                {
                    "name": "F5",
                    "midi": 77,
                    "time": 18.5,
                    "velocity": 0.4330708661417323,
                    "duration": 0.125
                },
                {
                    "name": "E5",
                    "midi": 76,
                    "time": 18.625,
                    "velocity": 0.3937007874015748,
                    "duration": 0.125
                },
                {
                    "name": "D5",
                    "midi": 74,
                    "time": 18.75,
                    "velocity": 0.4330708661417323,
                    "duration": 0.125
                },
                {
                    "name": "C5",
                    "midi": 72,
                    "time": 18.875,
                    "velocity": 0.3858267716535433,
                    "duration": 0.09375
                },
                {
                    "name": "C5",
                    "midi": 72,
                    "time": 19,
                    "velocity": 0.4330708661417323,
                    "duration": 0.5
                },
                {
                    "name": "B4",
                    "midi": 71,
                    "time": 19.5,
                    "velocity": 0.4330708661417323,
                    "duration": 0.0625
                },
                {
                    "name": "C5",
                    "midi": 72,
                    "time": 19.5625,
                    "velocity": 0.4015748031496063,
                    "duration": 0.0625
                },
                {
                    "name": "B4",
                    "midi": 71,
                    "time": 19.625,
                    "velocity": 0.44881889763779526,
                    "duration": 0.25
                },
                {
                    "name": "B4",
                    "midi": 71,
                    "time": 19.875,
                    "velocity": 0.4015748031496063,
                    "duration": 0.125
                },
                {
                    "name": "C5",
                    "midi": 72,
                    "time": 20,
                    "velocity": 0.4330708661417323,
                    "duration": 0.125
                },
                {
                    "name": "D5",
                    "midi": 74,
                    "time": 20.125,
                    "velocity": 0.4094488188976378,
                    "duration": 0.125
                },
                {
                    "name": "E5",
                    "midi": 76,
                    "time": 20.25,
                    "velocity": 0.4251968503937008,
                    "duration": 0.125
                },
                {
                    "name": "F5",
                    "midi": 77,
                    "time": 20.375,
                    "velocity": 0.4330708661417323,
                    "duration": 0.125
                },
                {
                    "name": "G5",
                    "midi": 79,
                    "time": 20.5,
                    "velocity": 0.4645669291338583,
                    "duration": 0.125
                },
                {
                    "name": "A5",
                    "midi": 81,
                    "time": 20.625,
                    "velocity": 0.48031496062992124,
                    "duration": 0.125
                },
                {
                    "name": "B5",
                    "midi": 83,
                    "time": 20.75,
                    "velocity": 0.5039370078740157,
                    "duration": 0.125
                },
                {
                    "name": "C6",
                    "midi": 84,
                    "time": 20.875,
                    "velocity": 0.5196850393700787,
                    "duration": 0.09375
                },
                {
                    "name": "C6",
                    "midi": 84,
                    "time": 21,
                    "velocity": 0.5196850393700787,
                    "duration": 0.125
                },
                {
                    "name": "B5",
                    "midi": 83,
                    "time": 21.125,
                    "velocity": 0.5039370078740157,
                    "duration": 0.125
                },
                {
                    "name": "A5",
                    "midi": 81,
                    "time": 21.25,
                    "velocity": 0.48031496062992124,
                    "duration": 0.0625
                },
                {
                    "name": "G5",
                    "midi": 79,
                    "time": 21.375,
                    "velocity": 0.4645669291338583,
                    "duration": 0.0625
                },
                {
                    "name": "G5",
                    "midi": 79,
                    "time": 21.5,
                    "velocity": 0.44881889763779526,
                    "duration": 0.125
                },
                {
                    "name": "F5",
                    "midi": 77,
                    "time": 21.625,
                    "velocity": 0.4330708661417323,
                    "duration": 0.125
                },
                {
                    "name": "E5",
                    "midi": 76,
                    "time": 21.75,
                    "velocity": 0.4094488188976378,
                    "duration": 0.0625
                },
                {
                    "name": "D5",
                    "midi": 74,
                    "time": 21.875,
                    "velocity": 0.3937007874015748,
                    "duration": 0.0625
                },
                {
                    "name": "G5",
                    "midi": 79,
                    "time": 22,
                    "velocity": 0.5039370078740157,
                    "duration": 0.375
                },
                {
                    "name": "A5",
                    "midi": 81,
                    "time": 22.375,
                    "velocity": 0.4645669291338583,
                    "duration": 0.0625
                },
                {
                    "name": "G5",
                    "midi": 79,
                    "time": 22.4375,
                    "velocity": 0.4330708661417323,
                    "duration": 0.0625
                },
                {
                    "name": "F5",
                    "midi": 77,
                    "time": 22.5,
                    "velocity": 0.4881889763779528,
                    "duration": 0.125
                },
                {
                    "name": "E5",
                    "midi": 76,
                    "time": 22.625,
                    "velocity": 0.4330708661417323,
                    "duration": 0.125
                },
                {
                    "name": "D5",
                    "midi": 74,
                    "time": 22.75,
                    "velocity": 0.44881889763779526,
                    "duration": 0.125
                },
                {
                    "name": "C5",
                    "midi": 72,
                    "time": 22.875,
                    "velocity": 0.4330708661417323,
                    "duration": 0.09375
                },
                {
                    "name": "C5",
                    "midi": 72,
                    "time": 23,
                    "velocity": 0.48031496062992124,
                    "duration": 0.5
                },
                {
                    "name": "B4",
                    "midi": 71,
                    "time": 23.5,
                    "velocity": 0.4330708661417323,
                    "duration": 0.0625
                },
                {
                    "name": "C5",
                    "midi": 72,
                    "time": 23.5625,
                    "velocity": 0.4015748031496063,
                    "duration": 0.0625
                },
                {
                    "name": "B4",
                    "midi": 71,
                    "time": 23.625,
                    "velocity": 0.4330708661417323,
                    "duration": 0.25
                },
                {
                    "name": "F5",
                    "midi": 77,
                    "time": 23.875,
                    "velocity": 0.4094488188976378,
                    "duration": 0.125
                },
                {
                    "name": "E5",
                    "midi": 76,
                    "time": 24,
                    "velocity": 0.47244094488188976,
                    "duration": 0.0625
                },
                {
                    "name": "F5",
                    "midi": 77,
                    "time": 24.125,
                    "velocity": 0.4330708661417323,
                    "duration": 0.0625
                },
                {
                    "name": "G5",
                    "midi": 79,
                    "time": 24.25,
                    "velocity": 0.47244094488188976,
                    "duration": 0.0625
                },
                {
                    "name": "A5",
                    "midi": 81,
                    "time": 24.375,
                    "velocity": 0.48031496062992124,
                    "duration": 0.0625
                },
                {
                    "name": "B5",
                    "midi": 83,
                    "time": 24.5,
                    "velocity": 0.5511811023622047,
                    "duration": 0.0625
                },
                {
                    "name": "C6",
                    "midi": 84,
                    "time": 24.625,
                    "velocity": 0.5118110236220472,
                    "duration": 0.0625
                },
                {
                    "name": "B5",
                    "midi": 83,
                    "time": 24.75,
                    "velocity": 0.5354330708661418,
                    "duration": 0.0625
                },
                {
                    "name": "C6",
                    "midi": 84,
                    "time": 24.875,
                    "velocity": 0.5196850393700787,
                    "duration": 0.0625
                },
                {
                    "name": "C6",
                    "midi": 84,
                    "time": 25,
                    "velocity": 0.5748031496062992,
                    "duration": 0.125
                },
                {
                    "name": "B5",
                    "midi": 83,
                    "time": 25.125,
                    "velocity": 0.5196850393700787,
                    "duration": 0.125
                },
                {
                    "name": "A5",
                    "midi": 81,
                    "time": 25.25,
                    "velocity": 0.5275590551181102,
                    "duration": 0.125
                },
                {
                    "name": "G5",
                    "midi": 79,
                    "time": 25.375,
                    "velocity": 0.5039370078740157,
                    "duration": 0.09375
                },
                {
                    "name": "G5",
                    "midi": 79,
                    "time": 25.5,
                    "velocity": 0.5433070866141733,
                    "duration": 0.125
                },
                {
                    "name": "F5",
                    "midi": 77,
                    "time": 25.625,
                    "velocity": 0.5039370078740157,
                    "duration": 0.125
                },
                {
                    "name": "E5",
                    "midi": 76,
                    "time": 25.75,
                    "velocity": 0.4881889763779528,
                    "duration": 0.125
                },
                {
                    "name": "D5",
                    "midi": 74,
                    "time": 25.875,
                    "velocity": 0.48031496062992124,
                    "duration": 0.125
                },
                {
                    "name": "E5",
                    "midi": 76,
                    "time": 26,
                    "velocity": 0.4881889763779528,
                    "duration": 0.125
                },
                {
                    "name": "F5",
                    "midi": 77,
                    "time": 26.125,
                    "velocity": 0.4881889763779528,
                    "duration": 0.125
                },
                {
                    "name": "E5",
                    "midi": 76,
                    "time": 26.25,
                    "velocity": 0.5433070866141733,
                    "duration": 0.125
                },
                {
                    "name": "F5",
                    "midi": 77,
                    "time": 26.375,
                    "velocity": 0.5354330708661418,
                    "duration": 0.125
                },
                {
                    "name": "G5",
                    "midi": 79,
                    "time": 26.5,
                    "velocity": 0.5984251968503937,
                    "duration": 0.125
                },
                {
                    "name": "A5",
                    "midi": 81,
                    "time": 26.625,
                    "velocity": 0.5826771653543307,
                    "duration": 0.125
                },
                {
                    "name": "G5",
                    "midi": 79,
                    "time": 26.75,
                    "velocity": 0.6535433070866141,
                    "duration": 0.125
                },
                {
                    "name": "A5",
                    "midi": 81,
                    "time": 26.875,
                    "velocity": 0.6141732283464567,
                    "duration": 0.125
                },
                {
                    "name": "A#5",
                    "midi": 82,
                    "time": 27,
                    "velocity": 0.7007874015748031,
                    "duration": 1
                },
                {
                    "name": "A#4",
                    "midi": 70,
                    "time": 27,
                    "velocity": 0.5905511811023622,
                    "duration": 1
                },
                {
                    "name": "A5",
                    "midi": 81,
                    "time": 28.125,
                    "velocity": 0.5511811023622047,
                    "duration": 0.125
                },
                {
                    "name": "G#5",
                    "midi": 80,
                    "time": 28.25,
                    "velocity": 0.5905511811023622,
                    "duration": 0.125
                },
                {
                    "name": "A5",
                    "midi": 81,
                    "time": 28.375,
                    "velocity": 0.5354330708661418,
                    "duration": 0.125
                },
                {
                    "name": "G5",
                    "midi": 79,
                    "time": 28.625,
                    "velocity": 0.5275590551181102,
                    "duration": 0.125
                },
                {
                    "name": "F#5",
                    "midi": 78,
                    "time": 28.75,
                    "velocity": 0.5984251968503937,
                    "duration": 0.125
                },
                {
                    "name": "G5",
                    "midi": 79,
                    "time": 28.875,
                    "velocity": 0.5275590551181102,
                    "duration": 0.125
                },
                {
                    "name": "F#5",
                    "midi": 78,
                    "time": 29.125,
                    "velocity": 0.5511811023622047,
                    "duration": 0.125
                },
                {
                    "name": "F#5",
                    "midi": 78,
                    "time": 29.25,
                    "velocity": 0.5433070866141733,
                    "duration": 0.0625
                },
                {
                    "name": "G5",
                    "midi": 79,
                    "time": 29.3125,
                    "velocity": 0.49606299212598426,
                    "duration": 0.0625
                },
                {
                    "name": "F#5",
                    "midi": 78,
                    "time": 29.375,
                    "velocity": 0.5354330708661418,
                    "duration": 0.125
                },
                {
                    "name": "F5",
                    "midi": 77,
                    "time": 29.625,
                    "velocity": 0.5669291338582677,
                    "duration": 0.125
                },
                {
                    "name": "F5",
                    "midi": 77,
                    "time": 29.75,
                    "velocity": 0.5669291338582677,
                    "duration": 0.0625
                },
                {
                    "name": "G5",
                    "midi": 79,
                    "time": 29.8125,
                    "velocity": 0.5118110236220472,
                    "duration": 0.0625
                },
                {
                    "name": "F5",
                    "midi": 77,
                    "time": 29.875,
                    "velocity": 0.5905511811023622,
                    "duration": 0.125
                },
                {
                    "name": "E5",
                    "midi": 76,
                    "time": 30.125,
                    "velocity": 0.5275590551181102,
                    "duration": 0.125
                },
                {
                    "name": "F5",
                    "midi": 77,
                    "time": 30.25,
                    "velocity": 0.5511811023622047,
                    "duration": 0.125
                },
                {
                    "name": "G5",
                    "midi": 79,
                    "time": 30.375,
                    "velocity": 0.5669291338582677,
                    "duration": 0.09375
                },
                {
                    "name": "G5",
                    "midi": 79,
                    "time": 30.5,
                    "velocity": 0.5669291338582677,
                    "duration": 0.125
                },
                {
                    "name": "A4",
                    "midi": 69,
                    "time": 30.625,
                    "velocity": 0.5196850393700787,
                    "duration": 0.125
                },
                {
                    "name": "F5",
                    "midi": 77,
                    "time": 30.75,
                    "velocity": 0.5669291338582677,
                    "duration": 0.125
                },
                {
                    "name": "D5",
                    "midi": 74,
                    "time": 30.875,
                    "velocity": 0.5118110236220472,
                    "duration": 0.125
                },
                {
                    "name": "C5",
                    "midi": 72,
                    "time": 31,
                    "velocity": 0.5669291338582677,
                    "duration": 0.5
                },
                {
                    "name": "B4",
                    "midi": 71,
                    "time": 31.5,
                    "velocity": 0.5354330708661418,
                    "duration": 0.04166666666666785
                },
                {
                    "name": "C5",
                    "midi": 72,
                    "time": 31.541666666666668,
                    "velocity": 0.47244094488188976,
                    "duration": 0.04166666666666785
                },
                {
                    "name": "B4",
                    "midi": 71,
                    "time": 31.583333333333336,
                    "velocity": 0.5354330708661418,
                    "duration": 0.04166666666666785
                },
                {
                    "name": "C5",
                    "midi": 72,
                    "time": 31.625000000000004,
                    "velocity": 0.48031496062992124,
                    "duration": 0.04166666666666785
                },
                {
                    "name": "B4",
                    "midi": 71,
                    "time": 31.66666666666667,
                    "velocity": 0.5354330708661418,
                    "duration": 0.04166666666666785
                },
                {
                    "name": "C5",
                    "midi": 72,
                    "time": 31.70833333333334,
                    "velocity": 0.48031496062992124,
                    "duration": 0.04166666666666785
                },
                {
                    "name": "B4",
                    "midi": 71,
                    "time": 31.750000000000007,
                    "velocity": 0.5354330708661418,
                    "duration": 0.25
                },
                {
                    "name": "C6",
                    "midi": 84,
                    "time": 32.12500000000001,
                    "velocity": 0.5669291338582677,
                    "duration": 0.125
                },
                {
                    "name": "E6",
                    "midi": 88,
                    "time": 32.25000000000001,
                    "velocity": 0.6141732283464567,
                    "duration": 0.125
                },
                {
                    "name": "C6",
                    "midi": 84,
                    "time": 32.37500000000001,
                    "velocity": 0.5669291338582677,
                    "duration": 0.125
                },
                {
                    "name": "B5",
                    "midi": 83,
                    "time": 32.50000000000001,
                    "velocity": 0.6062992125984252,
                    "duration": 0.125
                },
                {
                    "name": "A5",
                    "midi": 81,
                    "time": 32.62500000000001,
                    "velocity": 0.5433070866141733,
                    "duration": 0.125
                },
                {
                    "name": "G5",
                    "midi": 79,
                    "time": 32.75000000000001,
                    "velocity": 0.5984251968503937,
                    "duration": 0.125
                },
                {
                    "name": "F5",
                    "midi": 77,
                    "time": 32.87500000000001,
                    "velocity": 0.5275590551181102,
                    "duration": 0.125
                },
                {
                    "name": "E5",
                    "midi": 76,
                    "time": 33.00000000000001,
                    "velocity": 0.5905511811023622,
                    "duration": 0.5
                },
                {
                    "name": "D5",
                    "midi": 74,
                    "time": 33.50000000000001,
                    "velocity": 0.5354330708661418,
                    "duration": 0.0416666666666643
                },
                {
                    "name": "E5",
                    "midi": 76,
                    "time": 33.54166666666667,
                    "velocity": 0.47244094488188976,
                    "duration": 0.0416666666666643
                },
                {
                    "name": "D5",
                    "midi": 74,
                    "time": 33.583333333333336,
                    "velocity": 0.5354330708661418,
                    "duration": 0.0416666666666643
                },
                {
                    "name": "E5",
                    "midi": 76,
                    "time": 33.625,
                    "velocity": 0.48031496062992124,
                    "duration": 0.0416666666666643
                },
                {
                    "name": "D5",
                    "midi": 74,
                    "time": 33.666666666666664,
                    "velocity": 0.5354330708661418,
                    "duration": 0.0416666666666643
                },
                {
                    "name": "E5",
                    "midi": 76,
                    "time": 33.70833333333333,
                    "velocity": 0.48031496062992124,
                    "duration": 0.041666666666671404
                },
                {
                    "name": "D5",
                    "midi": 74,
                    "time": 33.74375,
                    "velocity": 0.5354330708661418,
                    "duration": 0.041666666666671404
                },
                {
                    "name": "E5",
                    "midi": 76,
                    "time": 33.786458333333336,
                    "velocity": 0.47244094488188976,
                    "duration": 0.0416666666666643
                },
                {
                    "name": "D5",
                    "midi": 74,
                    "time": 33.827083333333334,
                    "velocity": 0.5354330708661418,
                    "duration": 0.0416666666666643
                },
                {
                    "name": "C5",
                    "midi": 72,
                    "time": 33.871874999999996,
                    "velocity": 0.49606299212598426,
                    "duration": 0.0625
                },
                {
                    "name": "D5",
                    "midi": 74,
                    "time": 33.934374999999996,
                    "velocity": 0.4881889763779528,
                    "duration": 0.0625
                },
                {
                    "name": "C5",
                    "midi": 72,
                    "time": 33.99999999999999,
                    "velocity": 0.5354330708661418,
                    "duration": 0.125
                },
                {
                    "name": "E5",
                    "midi": 76,
                    "time": 34.24999999999999,
                    "velocity": 0.3779527559055118,
                    "duration": 0.125
                },
                {
                    "name": "C5",
                    "midi": 72,
                    "time": 34.24999999999999,
                    "velocity": 0.31496062992125984,
                    "duration": 0.125
                },
                {
                    "name": "E5",
                    "midi": 76,
                    "time": 34.49999999999999,
                    "velocity": 0.3779527559055118,
                    "duration": 0.125
                },
                {
                    "name": "C5",
                    "midi": 72,
                    "time": 34.49999999999999,
                    "velocity": 0.31496062992125984,
                    "duration": 0.125
                },
                {
                    "name": "E5",
                    "midi": 76,
                    "time": 34.74999999999999,
                    "velocity": 0.3779527559055118,
                    "duration": 0.125
                },
                {
                    "name": "C5",
                    "midi": 72,
                    "time": 34.74999999999999,
                    "velocity": 0.31496062992125984,
                    "duration": 0.125
                },
                {
                    "name": "F5",
                    "midi": 77,
                    "time": 34.99999999999999,
                    "velocity": 0.4094488188976378,
                    "duration": 0.0625
                },
                {
                    "name": "C5",
                    "midi": 72,
                    "time": 34.99999999999999,
                    "velocity": 0.3464566929133858,
                    "duration": 0.25
                },
                {
                    "name": "E5",
                    "midi": 76,
                    "time": 35.06249999999999,
                    "velocity": 0.3700787401574803,
                    "duration": 0.0625
                },
                {
                    "name": "D5",
                    "midi": 74,
                    "time": 35.12499999999999,
                    "velocity": 0.3700787401574803,
                    "duration": 0.0625
                },
                {
                    "name": "E5",
                    "midi": 76,
                    "time": 35.18749999999999,
                    "velocity": 0.3779527559055118,
                    "duration": 0.0625
                },
                {
                    "name": "G5",
                    "midi": 79,
                    "time": 35.24999999999999,
                    "velocity": 0.4094488188976378,
                    "duration": 0.25
                },
                {
                    "name": "E5",
                    "midi": 76,
                    "time": 35.24999999999999,
                    "velocity": 0.3464566929133858,
                    "duration": 0.25
                },
                {
                    "name": "C5",
                    "midi": 72,
                    "time": 35.49999999999999,
                    "velocity": 0.4015748031496063,
                    "duration": 0.25
                },
                {
                    "name": "E5",
                    "midi": 76,
                    "time": 35.49999999999999,
                    "velocity": 0.47244094488188976,
                    "duration": 0.25
                },
                {
                    "name": "C5",
                    "midi": 72,
                    "time": 35.74999999999999,
                    "velocity": 0.5196850393700787,
                    "duration": 0.25
                },
                {
                    "name": "A4",
                    "midi": 69,
                    "time": 35.74999999999999,
                    "velocity": 0.4330708661417323,
                    "duration": 0.25
                },
                {
                    "name": "A4",
                    "midi": 69,
                    "time": 35.99999999999999,
                    "velocity": 0.5669291338582677,
                    "duration": 0.625
                },
                {
                    "name": "F4",
                    "midi": 65,
                    "time": 35.99999999999999,
                    "velocity": 0.47244094488188976,
                    "duration": 0.625
                },
                {
                    "name": "F4",
                    "midi": 65,
                    "time": 36.62499999999999,
                    "velocity": 0.3858267716535433,
                    "duration": 0.125
                },
                {
                    "name": "A4",
                    "midi": 69,
                    "time": 36.62499999999999,
                    "velocity": 0.4566929133858268,
                    "duration": 0.125
                },
                {
                    "name": "G4",
                    "midi": 67,
                    "time": 36.74999999999999,
                    "velocity": 0.3858267716535433,
                    "duration": 0.125
                },
                {
                    "name": "B4",
                    "midi": 71,
                    "time": 36.74999999999999,
                    "velocity": 0.4566929133858268,
                    "duration": 0.125
                },
                {
                    "name": "A4",
                    "midi": 69,
                    "time": 36.87499999999999,
                    "velocity": 0.3858267716535433,
                    "duration": 0.11249999999999716
                },
                {
                    "name": "C5",
                    "midi": 72,
                    "time": 36.87499999999999,
                    "velocity": 0.4566929133858268,
                    "duration": 0.11249999999999716
                },
                {
                    "name": "A4",
                    "midi": 69,
                    "time": 36.99999999999999,
                    "velocity": 0.41732283464566927,
                    "duration": 0.125
                },
                {
                    "name": "C5",
                    "midi": 72,
                    "time": 36.99999999999999,
                    "velocity": 0.49606299212598426,
                    "duration": 0.125
                },
                {
                    "name": "G4",
                    "midi": 67,
                    "time": 37.12499999999999,
                    "velocity": 0.3937007874015748,
                    "duration": 0.125
                },
                {
                    "name": "B4",
                    "midi": 71,
                    "time": 37.12499999999999,
                    "velocity": 0.4645669291338583,
                    "duration": 0.125
                },
                {
                    "name": "A4",
                    "midi": 69,
                    "time": 37.24999999999999,
                    "velocity": 0.4645669291338583,
                    "duration": 0.125
                },
                {
                    "name": "F4",
                    "midi": 65,
                    "time": 37.24999999999999,
                    "velocity": 0.3937007874015748,
                    "duration": 0.125
                },
                {
                    "name": "E4",
                    "midi": 64,
                    "time": 37.37499999999999,
                    "velocity": 0.3937007874015748,
                    "duration": 0.11249999999999716
                },
                {
                    "name": "G4",
                    "midi": 67,
                    "time": 37.37499999999999,
                    "velocity": 0.4645669291338583,
                    "duration": 0.11249999999999716
                },
                {
                    "name": "E4",
                    "midi": 64,
                    "time": 37.49999999999999,
                    "velocity": 0.41732283464566927,
                    "duration": 0.125
                },
                {
                    "name": "G4",
                    "midi": 67,
                    "time": 37.49999999999999,
                    "velocity": 0.49606299212598426,
                    "duration": 0.125
                },
                {
                    "name": "D4",
                    "midi": 62,
                    "time": 37.62499999999999,
                    "velocity": 0.3543307086614173,
                    "duration": 0.125
                },
                {
                    "name": "F4",
                    "midi": 65,
                    "time": 37.62499999999999,
                    "velocity": 0.41732283464566927,
                    "duration": 0.125
                },
                {
                    "name": "C4",
                    "midi": 60,
                    "time": 37.74999999999999,
                    "velocity": 0.3543307086614173,
                    "duration": 0.125
                },
                {
                    "name": "E4",
                    "midi": 64,
                    "time": 37.74999999999999,
                    "velocity": 0.41732283464566927,
                    "duration": 0.125
                },
                {
                    "name": "D4",
                    "midi": 62,
                    "time": 37.87499999999999,
                    "velocity": 0.41732283464566927,
                    "duration": 0.11249999999999716
                },
                {
                    "name": "B3",
                    "midi": 59,
                    "time": 37.87499999999999,
                    "velocity": 0.3543307086614173,
                    "duration": 0.11249999999999716
                },
                {
                    "name": "C5",
                    "midi": 72,
                    "time": 38.24999999999999,
                    "velocity": 0.49606299212598426,
                    "duration": 0.0833333333333357
                },
                {
                    "name": "E5",
                    "midi": 76,
                    "time": 38.33333333333333,
                    "velocity": 0.44881889763779526,
                    "duration": 0.0833333333333357
                },
                {
                    "name": "C6",
                    "midi": 84,
                    "time": 38.416666666666664,
                    "velocity": 0.44881889763779526,
                    "duration": 0.0833333333333357
                },
                {
                    "name": "C5",
                    "midi": 72,
                    "time": 38.5,
                    "velocity": 0.49606299212598426,
                    "duration": 0.0833333333333357
                },
                {
                    "name": "E5",
                    "midi": 76,
                    "time": 38.583333333333336,
                    "velocity": 0.4330708661417323,
                    "duration": 0.0833333333333357
                },
                {
                    "name": "C6",
                    "midi": 84,
                    "time": 38.66666666666667,
                    "velocity": 0.4330708661417323,
                    "duration": 0.0833333333333357
                },
                {
                    "name": "C5",
                    "midi": 72,
                    "time": 38.75000000000001,
                    "velocity": 0.49606299212598426,
                    "duration": 0.0833333333333357
                },
                {
                    "name": "E5",
                    "midi": 76,
                    "time": 38.83333333333334,
                    "velocity": 0.4330708661417323,
                    "duration": 0.0833333333333357
                },
                {
                    "name": "C6",
                    "midi": 84,
                    "time": 38.91666666666668,
                    "velocity": 0.4330708661417323,
                    "duration": 0.0833333333333357
                },
                {
                    "name": "C5",
                    "midi": 72,
                    "time": 39.000000000000014,
                    "velocity": 0.5433070866141733,
                    "duration": 0.0833333333333357
                },
                {
                    "name": "E5",
                    "midi": 76,
                    "time": 39.08333333333335,
                    "velocity": 0.4645669291338583,
                    "duration": 0.0833333333333357
                },
                {
                    "name": "C6",
                    "midi": 84,
                    "time": 39.166666666666686,
                    "velocity": 0.48031496062992124,
                    "duration": 0.0833333333333357
                },
                {
                    "name": "E5",
                    "midi": 76,
                    "time": 39.25000000000002,
                    "velocity": 0.5669291338582677,
                    "duration": 0.0833333333333357
                },
                {
                    "name": "G5",
                    "midi": 79,
                    "time": 39.33333333333336,
                    "velocity": 0.5039370078740157,
                    "duration": 0.0833333333333357
                },
                {
                    "name": "E6",
                    "midi": 88,
                    "time": 39.41666666666669,
                    "velocity": 0.5196850393700787,
                    "duration": 0.0833333333333357
                },
                {
                    "name": "C5",
                    "midi": 72,
                    "time": 39.50000000000003,
                    "velocity": 0.5905511811023622,
                    "duration": 0.0833333333333357
                },
                {
                    "name": "E5",
                    "midi": 76,
                    "time": 39.583333333333364,
                    "velocity": 0.5196850393700787,
                    "duration": 0.0833333333333357
                },
                {
                    "name": "C6",
                    "midi": 84,
                    "time": 39.6666666666667,
                    "velocity": 0.5433070866141733,
                    "duration": 0.0833333333333357
                },
                {
                    "name": "A4",
                    "midi": 69,
                    "time": 39.750000000000036,
                    "velocity": 0.6299212598425197,
                    "duration": 0.0833333333333357
                },
                {
                    "name": "C5",
                    "midi": 72,
                    "time": 39.83333333333337,
                    "velocity": 0.5433070866141733,
                    "duration": 0.0833333333333357
                },
                {
                    "name": "A5",
                    "midi": 81,
                    "time": 39.91666666666671,
                    "velocity": 0.5590551181102362,
                    "duration": 0.0833333333333357
                },
                {
                    "name": "F4",
                    "midi": 65,
                    "time": 40.00000000000004,
                    "velocity": 0.6377952755905512,
                    "duration": 0.625
                },
                {
                    "name": "C5",
                    "midi": 72,
                    "time": 40.62500000000004,
                    "velocity": 0.5196850393700787,
                    "duration": 0.125
                },
                {
                    "name": "A4",
                    "midi": 69,
                    "time": 40.62500000000004,
                    "velocity": 0.4409448818897638,
                    "duration": 0.125
                },
                {
                    "name": "B4",
                    "midi": 71,
                    "time": 40.75000000000004,
                    "velocity": 0.5354330708661418,
                    "duration": 0.125
                },
                {
                    "name": "G4",
                    "midi": 67,
                    "time": 40.75000000000004,
                    "velocity": 0.44881889763779526,
                    "duration": 0.125
                },
                {
                    "name": "F4",
                    "midi": 65,
                    "time": 40.87500000000004,
                    "velocity": 0.41732283464566927,
                    "duration": 0.11249999999999716
                },
                {
                    "name": "A4",
                    "midi": 69,
                    "time": 40.87500000000004,
                    "velocity": 0.49606299212598426,
                    "duration": 0.11249999999999716
                },
                {
                    "name": "F4",
                    "midi": 65,
                    "time": 41.00000000000004,
                    "velocity": 0.4409448818897638,
                    "duration": 0.125
                },
                {
                    "name": "A4",
                    "midi": 69,
                    "time": 41.00000000000004,
                    "velocity": 0.5275590551181102,
                    "duration": 0.125
                },
                {
                    "name": "G4",
                    "midi": 67,
                    "time": 41.12500000000004,
                    "velocity": 0.5118110236220472,
                    "duration": 0.125
                },
                {
                    "name": "E4",
                    "midi": 64,
                    "time": 41.12500000000004,
                    "velocity": 0.4330708661417323,
                    "duration": 0.125
                },
                {
                    "name": "D4",
                    "midi": 62,
                    "time": 41.25000000000004,
                    "velocity": 0.41732283464566927,
                    "duration": 0.125
                },
                {
                    "name": "F4",
                    "midi": 65,
                    "time": 41.25000000000004,
                    "velocity": 0.49606299212598426,
                    "duration": 0.125
                },
                {
                    "name": "E4",
                    "midi": 64,
                    "time": 41.37500000000004,
                    "velocity": 0.48031496062992124,
                    "duration": 0.11249999999999716
                },
                {
                    "name": "C4",
                    "midi": 60,
                    "time": 41.37500000000004,
                    "velocity": 0.4015748031496063,
                    "duration": 0.11249999999999716
                },
                {
                    "name": "E4",
                    "midi": 64,
                    "time": 41.50000000000004,
                    "velocity": 0.49606299212598426,
                    "duration": 0.125
                },
                {
                    "name": "D4",
                    "midi": 62,
                    "time": 41.62500000000004,
                    "velocity": 0.4409448818897638,
                    "duration": 0.125
                },
                {
                    "name": "C4",
                    "midi": 60,
                    "time": 41.75000000000004,
                    "velocity": 0.4409448818897638,
                    "duration": 0.125
                },
                {
                    "name": "F3",
                    "midi": 53,
                    "time": 41.87500000000004,
                    "velocity": 0.3700787401574803,
                    "duration": 0.11249999999999716
                },
                {
                    "name": "B3",
                    "midi": 59,
                    "time": 41.87500000000004,
                    "velocity": 0.4409448818897638,
                    "duration": 0.11249999999999716
                },
                {
                    "name": "F3",
                    "midi": 53,
                    "time": 42.00000000000004,
                    "velocity": 0.4645669291338583,
                    "duration": 0.953125
                },
                {
                    "name": "B3",
                    "midi": 59,
                    "time": 42.00000000000004,
                    "velocity": 0.4645669291338583,
                    "duration": 0.953125
                },
                {
                    "name": "G3",
                    "midi": 55,
                    "time": 43.00000000000004,
                    "velocity": 0.4094488188976378,
                    "duration": 0.25
                },
                {
                    "name": "E3",
                    "midi": 52,
                    "time": 43.00000000000004,
                    "velocity": 0.4094488188976378,
                    "duration": 0.25
                },
                {
                    "name": "C4",
                    "midi": 60,
                    "time": 43.00000000000004,
                    "velocity": 0.4094488188976378,
                    "duration": 0.25
                },
                {
                    "name": "C4",
                    "midi": 60,
                    "time": 44.00000000000004,
                    "velocity": 0.4015748031496063,
                    "duration": 0.125
                },
                {
                    "name": "F4",
                    "midi": 65,
                    "time": 44.00000000000004,
                    "velocity": 0.47244094488188976,
                    "duration": 0.375
                },
                {
                    "name": "A3",
                    "midi": 57,
                    "time": 44.00000000000004,
                    "velocity": 0.4015748031496063,
                    "duration": 0.125
                },
                {
                    "name": "C4",
                    "midi": 60,
                    "time": 44.37500000000004,
                    "velocity": 0.4409448818897638,
                    "duration": 0.125
                },
                {
                    "name": "A#4",
                    "midi": 70,
                    "time": 44.50000000000004,
                    "velocity": 0.47244094488188976,
                    "duration": 0.125
                },
                {
                    "name": "A4",
                    "midi": 69,
                    "time": 44.62500000000004,
                    "velocity": 0.4251968503937008,
                    "duration": 0.125
                },
                {
                    "name": "G4",
                    "midi": 67,
                    "time": 44.75000000000004,
                    "velocity": 0.4251968503937008,
                    "duration": 0.125
                },
                {
                    "name": "F4",
                    "midi": 65,
                    "time": 44.87500000000004,
                    "velocity": 0.4251968503937008,
                    "duration": 0.125
                },
                {
                    "name": "E4",
                    "midi": 64,
                    "time": 45.00000000000004,
                    "velocity": 0.47244094488188976,
                    "duration": 0.125
                },
                {
                    "name": "F4",
                    "midi": 65,
                    "time": 45.25000000000004,
                    "velocity": 0.44881889763779526,
                    "duration": 0.125
                },
                {
                    "name": "G4",
                    "midi": 67,
                    "time": 45.50000000000004,
                    "velocity": 0.47244094488188976,
                    "duration": 0.125
                },
                {
                    "name": "A4",
                    "midi": 69,
                    "time": 45.75000000000004,
                    "velocity": 0.4330708661417323,
                    "duration": 0.125
                },
                {
                    "name": "G4",
                    "midi": 67,
                    "time": 46.00000000000004,
                    "velocity": 0.4015748031496063,
                    "duration": 0.125
                },
                {
                    "name": "E4",
                    "midi": 64,
                    "time": 46.00000000000004,
                    "velocity": 0.4015748031496063,
                    "duration": 0.125
                },
                {
                    "name": "A#4",
                    "midi": 70,
                    "time": 46.00000000000004,
                    "velocity": 0.47244094488188976,
                    "duration": 0.375
                },
                {
                    "name": "G4",
                    "midi": 67,
                    "time": 46.37500000000004,
                    "velocity": 0.4409448818897638,
                    "duration": 0.125
                },
                {
                    "name": "E5",
                    "midi": 76,
                    "time": 46.50000000000004,
                    "velocity": 0.47244094488188976,
                    "duration": 0.125
                },
                {
                    "name": "D5",
                    "midi": 74,
                    "time": 46.62500000000004,
                    "velocity": 0.4251968503937008,
                    "duration": 0.125
                },
                {
                    "name": "C5",
                    "midi": 72,
                    "time": 46.75000000000004,
                    "velocity": 0.4251968503937008,
                    "duration": 0.125
                },
                {
                    "name": "A#4",
                    "midi": 70,
                    "time": 46.87500000000004,
                    "velocity": 0.4251968503937008,
                    "duration": 0.125
                },
                {
                    "name": "A4",
                    "midi": 69,
                    "time": 47.00000000000004,
                    "velocity": 0.47244094488188976,
                    "duration": 0.125
                },
                {
                    "name": "A#4",
                    "midi": 70,
                    "time": 47.25000000000004,
                    "velocity": 0.44881889763779526,
                    "duration": 0.125
                },
                {
                    "name": "C5",
                    "midi": 72,
                    "time": 47.50000000000004,
                    "velocity": 0.47244094488188976,
                    "duration": 0.125
                },
                {
                    "name": "C#5",
                    "midi": 73,
                    "time": 47.75000000000004,
                    "velocity": 0.48031496062992124,
                    "duration": 0.125
                },
                {
                    "name": "D5",
                    "midi": 74,
                    "time": 48.00000000000004,
                    "velocity": 0.4330708661417323,
                    "duration": 0.375
                },
                {
                    "name": "E5",
                    "midi": 76,
                    "time": 48.37500000000004,
                    "velocity": 0.3779527559055118,
                    "duration": 0.125
                },
                {
                    "name": "G5",
                    "midi": 79,
                    "time": 48.50000000000004,
                    "velocity": 0.4330708661417323,
                    "duration": 0.125
                },
                {
                    "name": "F5",
                    "midi": 77,
                    "time": 48.62500000000004,
                    "velocity": 0.4015748031496063,
                    "duration": 0.125
                },
                {
                    "name": "E5",
                    "midi": 76,
                    "time": 48.75000000000004,
                    "velocity": 0.4015748031496063,
                    "duration": 0.125
                },
                {
                    "name": "D5",
                    "midi": 74,
                    "time": 48.87500000000004,
                    "velocity": 0.4015748031496063,
                    "duration": 0.125
                },
                {
                    "name": "C5",
                    "midi": 72,
                    "time": 49.00000000000004,
                    "velocity": 0.4330708661417323,
                    "duration": 0.1875
                },
                {
                    "name": "C5",
                    "midi": 72,
                    "time": 49.25000000000004,
                    "velocity": 0.3858267716535433,
                    "duration": 0.25
                },
                {
                    "name": "A#4",
                    "midi": 70,
                    "time": 49.50000000000004,
                    "velocity": 0.3858267716535433,
                    "duration": 0.03125
                },
                {
                    "name": "C5",
                    "midi": 72,
                    "time": 49.53125000000004,
                    "velocity": 0.3464566929133858,
                    "duration": 0.03125
                },
                {
                    "name": "A#4",
                    "midi": 70,
                    "time": 49.56250000000004,
                    "velocity": 0.3858267716535433,
                    "duration": 0.03125
                },
                {
                    "name": "C5",
                    "midi": 72,
                    "time": 49.59375000000004,
                    "velocity": 0.33070866141732286,
                    "duration": 0.03125
                },
                {
                    "name": "A#4",
                    "midi": 70,
                    "time": 49.62500000000004,
                    "velocity": 0.3858267716535433,
                    "duration": 0.0416666666666643
                },
                {
                    "name": "C5",
                    "midi": 72,
                    "time": 49.66666666666671,
                    "velocity": 0.3543307086614173,
                    "duration": 0.0416666666666643
                },
                {
                    "name": "A#4",
                    "midi": 70,
                    "time": 49.70833333333337,
                    "velocity": 0.3543307086614173,
                    "duration": 0.0416666666666643
                },
                {
                    "name": "A4",
                    "midi": 69,
                    "time": 49.750000000000036,
                    "velocity": 0.3858267716535433,
                    "duration": 0.25
                },
                {
                    "name": "G4",
                    "midi": 67,
                    "time": 50.000000000000036,
                    "velocity": 0.4251968503937008,
                    "duration": 0.1875
                },
                {
                    "name": "A4",
                    "midi": 69,
                    "time": 50.250000000000036,
                    "velocity": 0.3858267716535433,
                    "duration": 0.0625
                },
                {
                    "name": "G4",
                    "midi": 67,
                    "time": 50.312500000000036,
                    "velocity": 0.33858267716535434,
                    "duration": 0.0625
                },
                {
                    "name": "F#4",
                    "midi": 66,
                    "time": 50.375000000000036,
                    "velocity": 0.3464566929133858,
                    "duration": 0.0625
                },
                {
                    "name": "G4",
                    "midi": 67,
                    "time": 50.437500000000036,
                    "velocity": 0.3464566929133858,
                    "duration": 0.0625
                },
                {
                    "name": "A#4",
                    "midi": 70,
                    "time": 50.500000000000036,
                    "velocity": 0.3858267716535433,
                    "duration": 0.25
                },
                {
                    "name": "D5",
                    "midi": 74,
                    "time": 50.750000000000036,
                    "velocity": 0.3464566929133858,
                    "duration": 0.25
                },
                {
                    "name": "F4",
                    "midi": 65,
                    "time": 51.000000000000036,
                    "velocity": 0.3464566929133858,
                    "duration": 0.75
                },
                {
                    "name": "E4",
                    "midi": 64,
                    "time": 51.750000000000036,
                    "velocity": 0.33070866141732286,
                    "duration": 0.0625
                },
                {
                    "name": "F4",
                    "midi": 65,
                    "time": 51.812500000000036,
                    "velocity": 0.2992125984251969,
                    "duration": 0.0625
                },
                {
                    "name": "E4",
                    "midi": 64,
                    "time": 51.875000000000036,
                    "velocity": 0.33070866141732286,
                    "duration": 0.125
                },
                {
                    "name": "C4",
                    "midi": 60,
                    "time": 52.000000000000036,
                    "velocity": 0.4015748031496063,
                    "duration": 0.125
                },
                {
                    "name": "F4",
                    "midi": 65,
                    "time": 52.000000000000036,
                    "velocity": 0.47244094488188976,
                    "duration": 0.375
                },
                {
                    "name": "A3",
                    "midi": 57,
                    "time": 52.000000000000036,
                    "velocity": 0.4015748031496063,
                    "duration": 0.125
                },
                {
                    "name": "C4",
                    "midi": 60,
                    "time": 52.375000000000036,
                    "velocity": 0.4409448818897638,
                    "duration": 0.125
                },
                {
                    "name": "A#4",
                    "midi": 70,
                    "time": 52.500000000000036,
                    "velocity": 0.47244094488188976,
                    "duration": 0.125
                },
                {
                    "name": "A4",
                    "midi": 69,
                    "time": 52.625000000000036,
                    "velocity": 0.4251968503937008,
                    "duration": 0.125
                },
                {
                    "name": "G4",
                    "midi": 67,
                    "time": 52.750000000000036,
                    "velocity": 0.4251968503937008,
                    "duration": 0.125
                },
                {
                    "name": "F4",
                    "midi": 65,
                    "time": 52.875000000000036,
                    "velocity": 0.4251968503937008,
                    "duration": 0.125
                },
                {
                    "name": "E4",
                    "midi": 64,
                    "time": 53.000000000000036,
                    "velocity": 0.47244094488188976,
                    "duration": 0.1875
                },
                {
                    "name": "C4",
                    "midi": 60,
                    "time": 53.187500000000036,
                    "velocity": 0.41732283464566927,
                    "duration": 0.0625
                },
                {
                    "name": "F4",
                    "midi": 65,
                    "time": 53.250000000000036,
                    "velocity": 0.44881889763779526,
                    "duration": 0.1875
                },
                {
                    "name": "C4",
                    "midi": 60,
                    "time": 53.437500000000036,
                    "velocity": 0.41732283464566927,
                    "duration": 0.0625
                },
                {
                    "name": "G4",
                    "midi": 67,
                    "time": 53.500000000000036,
                    "velocity": 0.47244094488188976,
                    "duration": 0.1875
                },
                {
                    "name": "C4",
                    "midi": 60,
                    "time": 53.687500000000036,
                    "velocity": 0.41732283464566927,
                    "duration": 0.0625
                },
                {
                    "name": "A4",
                    "midi": 69,
                    "time": 53.750000000000036,
                    "velocity": 0.4330708661417323,
                    "duration": 0.1875
                },
                {
                    "name": "C4",
                    "midi": 60,
                    "time": 53.937500000000036,
                    "velocity": 0.41732283464566927,
                    "duration": 0.0625
                },
                {
                    "name": "A#4",
                    "midi": 70,
                    "time": 54.000000000000036,
                    "velocity": 0.47244094488188976,
                    "duration": 0.375
                },
                {
                    "name": "G4",
                    "midi": 67,
                    "time": 54.375000000000036,
                    "velocity": 0.4409448818897638,
                    "duration": 0.125
                },
                {
                    "name": "E5",
                    "midi": 76,
                    "time": 54.500000000000036,
                    "velocity": 0.47244094488188976,
                    "duration": 0.125
                },
                {
                    "name": "D5",
                    "midi": 74,
                    "time": 54.625000000000036,
                    "velocity": 0.4251968503937008,
                    "duration": 0.125
                },
                {
                    "name": "C5",
                    "midi": 72,
                    "time": 54.750000000000036,
                    "velocity": 0.4251968503937008,
                    "duration": 0.125
                },
                {
                    "name": "A#4",
                    "midi": 70,
                    "time": 54.875000000000036,
                    "velocity": 0.4251968503937008,
                    "duration": 0.125
                },
                {
                    "name": "A4",
                    "midi": 69,
                    "time": 55.000000000000036,
                    "velocity": 0.47244094488188976,
                    "duration": 0.25
                },
                {
                    "name": "A#4",
                    "midi": 70,
                    "time": 55.250000000000036,
                    "velocity": 0.44881889763779526,
                    "duration": 0.25
                },
                {
                    "name": "C5",
                    "midi": 72,
                    "time": 55.500000000000036,
                    "velocity": 0.47244094488188976,
                    "duration": 0.25
                },
                {
                    "name": "C#5",
                    "midi": 73,
                    "time": 55.750000000000036,
                    "velocity": 0.48031496062992124,
                    "duration": 0.25
                },
                {
                    "name": "C#5",
                    "midi": 73,
                    "time": 56.125000000000036,
                    "velocity": 0.4330708661417323,
                    "duration": 0.125
                },
                {
                    "name": "D5",
                    "midi": 74,
                    "time": 56.250000000000036,
                    "velocity": 0.4566929133858268,
                    "duration": 0.125
                },
                {
                    "name": "E5",
                    "midi": 76,
                    "time": 56.375000000000036,
                    "velocity": 0.4330708661417323,
                    "duration": 0.125
                },
                {
                    "name": "F5",
                    "midi": 77,
                    "time": 56.500000000000036,
                    "velocity": 0.44881889763779526,
                    "duration": 0.125
                },
                {
                    "name": "F#5",
                    "midi": 78,
                    "time": 56.625000000000036,
                    "velocity": 0.4645669291338583,
                    "duration": 0.125
                },
                {
                    "name": "G5",
                    "midi": 79,
                    "time": 56.750000000000036,
                    "velocity": 0.48031496062992124,
                    "duration": 0.125
                },
                {
                    "name": "A5",
                    "midi": 81,
                    "time": 56.875000000000036,
                    "velocity": 0.49606299212598426,
                    "duration": 0.125
                },
                {
                    "name": "A#5",
                    "midi": 82,
                    "time": 57.000000000000036,
                    "velocity": 0.5118110236220472,
                    "duration": 0.125
                },
                {
                    "name": "B5",
                    "midi": 83,
                    "time": 57.125000000000036,
                    "velocity": 0.5354330708661418,
                    "duration": 0.125
                },
                {
                    "name": "C6",
                    "midi": 84,
                    "time": 57.250000000000036,
                    "velocity": 0.5511811023622047,
                    "duration": 0.125
                },
                {
                    "name": "C#6",
                    "midi": 85,
                    "time": 57.375000000000036,
                    "velocity": 0.5354330708661418,
                    "duration": 0.125
                },
                {
                    "name": "D6",
                    "midi": 86,
                    "time": 57.500000000000036,
                    "velocity": 0.5905511811023622,
                    "duration": 0.125
                },
                {
                    "name": "A5",
                    "midi": 81,
                    "time": 57.625000000000036,
                    "velocity": 0.49606299212598426,
                    "duration": 0.125
                },
                {
                    "name": "A#5",
                    "midi": 82,
                    "time": 57.750000000000036,
                    "velocity": 0.5196850393700787,
                    "duration": 0.125
                },
                {
                    "name": "G5",
                    "midi": 79,
                    "time": 57.875000000000036,
                    "velocity": 0.48031496062992124,
                    "duration": 0.125
                },
                {
                    "name": "F5",
                    "midi": 77,
                    "time": 58.000000000000036,
                    "velocity": 0.5590551181102362,
                    "duration": 0.75
                },
                {
                    "name": "G5",
                    "midi": 79,
                    "time": 58.750000000000036,
                    "velocity": 0.3228346456692913,
                    "duration": 0.125
                },
                {
                    "name": "F5",
                    "midi": 77,
                    "time": 58.875000000000036,
                    "velocity": 0.2755905511811024,
                    "duration": 0.125
                },
                {
                    "name": "E5",
                    "midi": 76,
                    "time": 59.000000000000036,
                    "velocity": 0.30708661417322836,
                    "duration": 0.5
                },
                {
                    "name": "G5",
                    "midi": 79,
                    "time": 60.000000000000036,
                    "velocity": 0.47244094488188976,
                    "duration": 0.5
                },
                {
                    "name": "F5",
                    "midi": 77,
                    "time": 60.500000000000036,
                    "velocity": 0.4330708661417323,
                    "duration": 0.125
                },
                {
                    "name": "E5",
                    "midi": 76,
                    "time": 60.625000000000036,
                    "velocity": 0.3937007874015748,
                    "duration": 0.125
                },
                {
                    "name": "D5",
                    "midi": 74,
                    "time": 60.750000000000036,
                    "velocity": 0.4330708661417323,
                    "duration": 0.125
                },
                {
                    "name": "C5",
                    "midi": 72,
                    "time": 60.875000000000036,
                    "velocity": 0.3858267716535433,
                    "duration": 0.09375
                },
                {
                    "name": "C5",
                    "midi": 72,
                    "time": 61.000000000000036,
                    "velocity": 0.4330708661417323,
                    "duration": 0.5
                },
                {
                    "name": "B4",
                    "midi": 71,
                    "time": 61.500000000000036,
                    "velocity": 0.4330708661417323,
                    "duration": 0.0625
                },
                {
                    "name": "C5",
                    "midi": 72,
                    "time": 61.562500000000036,
                    "velocity": 0.4015748031496063,
                    "duration": 0.0625
                },
                {
                    "name": "B4",
                    "midi": 71,
                    "time": 61.625000000000036,
                    "velocity": 0.44881889763779526,
                    "duration": 0.25
                },
                {
                    "name": "B4",
                    "midi": 71,
                    "time": 61.875000000000036,
                    "velocity": 0.4015748031496063,
                    "duration": 0.125
                },
                {
                    "name": "C5",
                    "midi": 72,
                    "time": 62.000000000000036,
                    "velocity": 0.4330708661417323,
                    "duration": 0.125
                },
                {
                    "name": "D5",
                    "midi": 74,
                    "time": 62.125000000000036,
                    "velocity": 0.4094488188976378,
                    "duration": 0.125
                },
                {
                    "name": "E5",
                    "midi": 76,
                    "time": 62.250000000000036,
                    "velocity": 0.4251968503937008,
                    "duration": 0.125
                },
                {
                    "name": "F5",
                    "midi": 77,
                    "time": 62.375000000000036,
                    "velocity": 0.4330708661417323,
                    "duration": 0.125
                },
                {
                    "name": "G5",
                    "midi": 79,
                    "time": 62.500000000000036,
                    "velocity": 0.4645669291338583,
                    "duration": 0.125
                },
                {
                    "name": "A5",
                    "midi": 81,
                    "time": 62.625000000000036,
                    "velocity": 0.48031496062992124,
                    "duration": 0.125
                },
                {
                    "name": "B5",
                    "midi": 83,
                    "time": 62.750000000000036,
                    "velocity": 0.5039370078740157,
                    "duration": 0.125
                },
                {
                    "name": "C6",
                    "midi": 84,
                    "time": 62.875000000000036,
                    "velocity": 0.5196850393700787,
                    "duration": 0.09375
                },
                {
                    "name": "C6",
                    "midi": 84,
                    "time": 63.000000000000036,
                    "velocity": 0.5196850393700787,
                    "duration": 0.125
                },
                {
                    "name": "B5",
                    "midi": 83,
                    "time": 63.125000000000036,
                    "velocity": 0.5039370078740157,
                    "duration": 0.125
                },
                {
                    "name": "A5",
                    "midi": 81,
                    "time": 63.250000000000036,
                    "velocity": 0.48031496062992124,
                    "duration": 0.0625
                },
                {
                    "name": "G5",
                    "midi": 79,
                    "time": 63.375000000000036,
                    "velocity": 0.4645669291338583,
                    "duration": 0.0625
                },
                {
                    "name": "G5",
                    "midi": 79,
                    "time": 63.500000000000036,
                    "velocity": 0.44881889763779526,
                    "duration": 0.125
                },
                {
                    "name": "F5",
                    "midi": 77,
                    "time": 63.625000000000036,
                    "velocity": 0.4330708661417323,
                    "duration": 0.125
                },
                {
                    "name": "E5",
                    "midi": 76,
                    "time": 63.750000000000036,
                    "velocity": 0.4094488188976378,
                    "duration": 0.0625
                },
                {
                    "name": "D5",
                    "midi": 74,
                    "time": 63.875000000000036,
                    "velocity": 0.3937007874015748,
                    "duration": 0.0625
                },
                {
                    "name": "G5",
                    "midi": 79,
                    "time": 64.00000000000003,
                    "velocity": 0.5039370078740157,
                    "duration": 0.375
                },
                {
                    "name": "A5",
                    "midi": 81,
                    "time": 64.37500000000003,
                    "velocity": 0.4645669291338583,
                    "duration": 0.0625
                },
                {
                    "name": "G5",
                    "midi": 79,
                    "time": 64.43750000000003,
                    "velocity": 0.4330708661417323,
                    "duration": 0.0625
                },
                {
                    "name": "F5",
                    "midi": 77,
                    "time": 64.50000000000003,
                    "velocity": 0.4881889763779528,
                    "duration": 0.125
                },
                {
                    "name": "E5",
                    "midi": 76,
                    "time": 64.62500000000003,
                    "velocity": 0.4330708661417323,
                    "duration": 0.125
                },
                {
                    "name": "D5",
                    "midi": 74,
                    "time": 64.75000000000003,
                    "velocity": 0.44881889763779526,
                    "duration": 0.125
                },
                {
                    "name": "C5",
                    "midi": 72,
                    "time": 64.87500000000003,
                    "velocity": 0.4330708661417323,
                    "duration": 0.09375
                },
                {
                    "name": "C5",
                    "midi": 72,
                    "time": 65.00000000000003,
                    "velocity": 0.48031496062992124,
                    "duration": 0.5
                },
                {
                    "name": "B4",
                    "midi": 71,
                    "time": 65.50000000000003,
                    "velocity": 0.4330708661417323,
                    "duration": 0.0625
                },
                {
                    "name": "C5",
                    "midi": 72,
                    "time": 65.56250000000003,
                    "velocity": 0.4015748031496063,
                    "duration": 0.0625
                },
                {
                    "name": "B4",
                    "midi": 71,
                    "time": 65.62500000000003,
                    "velocity": 0.4330708661417323,
                    "duration": 0.25
                },
                {
                    "name": "F5",
                    "midi": 77,
                    "time": 65.87500000000003,
                    "velocity": 0.4094488188976378,
                    "duration": 0.125
                },
                {
                    "name": "E5",
                    "midi": 76,
                    "time": 66.00000000000003,
                    "velocity": 0.47244094488188976,
                    "duration": 0.0625
                },
                {
                    "name": "F5",
                    "midi": 77,
                    "time": 66.12500000000003,
                    "velocity": 0.4330708661417323,
                    "duration": 0.0625
                },
                {
                    "name": "G5",
                    "midi": 79,
                    "time": 66.25000000000003,
                    "velocity": 0.47244094488188976,
                    "duration": 0.0625
                },
                {
                    "name": "A5",
                    "midi": 81,
                    "time": 66.37500000000003,
                    "velocity": 0.48031496062992124,
                    "duration": 0.0625
                },
                {
                    "name": "B5",
                    "midi": 83,
                    "time": 66.50000000000003,
                    "velocity": 0.5511811023622047,
                    "duration": 0.0625
                },
                {
                    "name": "C6",
                    "midi": 84,
                    "time": 66.62500000000003,
                    "velocity": 0.5118110236220472,
                    "duration": 0.0625
                },
                {
                    "name": "B5",
                    "midi": 83,
                    "time": 66.75000000000003,
                    "velocity": 0.5354330708661418,
                    "duration": 0.0625
                },
                {
                    "name": "C6",
                    "midi": 84,
                    "time": 66.87500000000003,
                    "velocity": 0.5196850393700787,
                    "duration": 0.0625
                },
                {
                    "name": "C6",
                    "midi": 84,
                    "time": 67.00000000000003,
                    "velocity": 0.5748031496062992,
                    "duration": 0.125
                },
                {
                    "name": "B5",
                    "midi": 83,
                    "time": 67.12500000000003,
                    "velocity": 0.5196850393700787,
                    "duration": 0.125
                },
                {
                    "name": "A5",
                    "midi": 81,
                    "time": 67.25000000000003,
                    "velocity": 0.5275590551181102,
                    "duration": 0.125
                },
                {
                    "name": "G5",
                    "midi": 79,
                    "time": 67.37500000000003,
                    "velocity": 0.5039370078740157,
                    "duration": 0.09375
                },
                {
                    "name": "G5",
                    "midi": 79,
                    "time": 67.50000000000003,
                    "velocity": 0.5433070866141733,
                    "duration": 0.125
                },
                {
                    "name": "F5",
                    "midi": 77,
                    "time": 67.62500000000003,
                    "velocity": 0.5039370078740157,
                    "duration": 0.125
                },
                {
                    "name": "E5",
                    "midi": 76,
                    "time": 67.75000000000003,
                    "velocity": 0.4881889763779528,
                    "duration": 0.125
                },
                {
                    "name": "D5",
                    "midi": 74,
                    "time": 67.87500000000003,
                    "velocity": 0.48031496062992124,
                    "duration": 0.125
                },
                {
                    "name": "E5",
                    "midi": 76,
                    "time": 68.00000000000003,
                    "velocity": 0.4881889763779528,
                    "duration": 0.125
                },
                {
                    "name": "F5",
                    "midi": 77,
                    "time": 68.12500000000003,
                    "velocity": 0.4881889763779528,
                    "duration": 0.125
                },
                {
                    "name": "E5",
                    "midi": 76,
                    "time": 68.25000000000003,
                    "velocity": 0.5433070866141733,
                    "duration": 0.125
                },
                {
                    "name": "F5",
                    "midi": 77,
                    "time": 68.37500000000003,
                    "velocity": 0.5354330708661418,
                    "duration": 0.125
                },
                {
                    "name": "G5",
                    "midi": 79,
                    "time": 68.50000000000003,
                    "velocity": 0.5984251968503937,
                    "duration": 0.125
                },
                {
                    "name": "A5",
                    "midi": 81,
                    "time": 68.62500000000003,
                    "velocity": 0.5826771653543307,
                    "duration": 0.125
                },
                {
                    "name": "G5",
                    "midi": 79,
                    "time": 68.75000000000003,
                    "velocity": 0.6535433070866141,
                    "duration": 0.125
                },
                {
                    "name": "A5",
                    "midi": 81,
                    "time": 68.87500000000003,
                    "velocity": 0.6141732283464567,
                    "duration": 0.125
                },
                {
                    "name": "A#4",
                    "midi": 70,
                    "time": 69.00000000000003,
                    "velocity": 0.5905511811023622,
                    "duration": 1
                },
                {
                    "name": "A#5",
                    "midi": 82,
                    "time": 69.00000000000003,
                    "velocity": 0.7007874015748031,
                    "duration": 1
                },
                {
                    "name": "A5",
                    "midi": 81,
                    "time": 70.12500000000003,
                    "velocity": 0.5511811023622047,
                    "duration": 0.125
                },
                {
                    "name": "G#5",
                    "midi": 80,
                    "time": 70.25000000000003,
                    "velocity": 0.5905511811023622,
                    "duration": 0.125
                },
                {
                    "name": "A5",
                    "midi": 81,
                    "time": 70.37500000000003,
                    "velocity": 0.5354330708661418,
                    "duration": 0.125
                },
                {
                    "name": "G5",
                    "midi": 79,
                    "time": 70.62500000000003,
                    "velocity": 0.5275590551181102,
                    "duration": 0.125
                },
                {
                    "name": "F#5",
                    "midi": 78,
                    "time": 70.75000000000003,
                    "velocity": 0.5984251968503937,
                    "duration": 0.125
                },
                {
                    "name": "G5",
                    "midi": 79,
                    "time": 70.87500000000003,
                    "velocity": 0.5275590551181102,
                    "duration": 0.125
                },
                {
                    "name": "F#5",
                    "midi": 78,
                    "time": 71.12500000000003,
                    "velocity": 0.5511811023622047,
                    "duration": 0.125
                },
                {
                    "name": "F#5",
                    "midi": 78,
                    "time": 71.25000000000003,
                    "velocity": 0.5433070866141733,
                    "duration": 0.0625
                },
                {
                    "name": "G5",
                    "midi": 79,
                    "time": 71.31250000000003,
                    "velocity": 0.49606299212598426,
                    "duration": 0.0625
                },
                {
                    "name": "F#5",
                    "midi": 78,
                    "time": 71.37500000000003,
                    "velocity": 0.5354330708661418,
                    "duration": 0.125
                },
                {
                    "name": "F5",
                    "midi": 77,
                    "time": 71.62500000000003,
                    "velocity": 0.5669291338582677,
                    "duration": 0.125
                },
                {
                    "name": "F5",
                    "midi": 77,
                    "time": 71.75000000000003,
                    "velocity": 0.5669291338582677,
                    "duration": 0.0625
                },
                {
                    "name": "G5",
                    "midi": 79,
                    "time": 71.81250000000003,
                    "velocity": 0.5118110236220472,
                    "duration": 0.0625
                },
                {
                    "name": "F5",
                    "midi": 77,
                    "time": 71.87500000000003,
                    "velocity": 0.5905511811023622,
                    "duration": 0.125
                },
                {
                    "name": "E5",
                    "midi": 76,
                    "time": 72.12500000000003,
                    "velocity": 0.5275590551181102,
                    "duration": 0.125
                },
                {
                    "name": "F5",
                    "midi": 77,
                    "time": 72.25000000000003,
                    "velocity": 0.5511811023622047,
                    "duration": 0.125
                },
                {
                    "name": "G5",
                    "midi": 79,
                    "time": 72.37500000000003,
                    "velocity": 0.5669291338582677,
                    "duration": 0.09375
                },
                {
                    "name": "G5",
                    "midi": 79,
                    "time": 72.50000000000003,
                    "velocity": 0.5669291338582677,
                    "duration": 0.125
                },
                {
                    "name": "A4",
                    "midi": 69,
                    "time": 72.62500000000003,
                    "velocity": 0.5196850393700787,
                    "duration": 0.125
                },
                {
                    "name": "F5",
                    "midi": 77,
                    "time": 72.75000000000003,
                    "velocity": 0.5669291338582677,
                    "duration": 0.125
                },
                {
                    "name": "D5",
                    "midi": 74,
                    "time": 72.87500000000003,
                    "velocity": 0.5118110236220472,
                    "duration": 0.125
                },
                {
                    "name": "C5",
                    "midi": 72,
                    "time": 73.00000000000003,
                    "velocity": 0.5669291338582677,
                    "duration": 0.5
                },
                {
                    "name": "B4",
                    "midi": 71,
                    "time": 73.50000000000003,
                    "velocity": 0.5354330708661418,
                    "duration": 0.041666666666671404
                },
                {
                    "name": "C5",
                    "midi": 72,
                    "time": 73.5416666666667,
                    "velocity": 0.47244094488188976,
                    "duration": 0.041666666666671404
                },
                {
                    "name": "B4",
                    "midi": 71,
                    "time": 73.58333333333337,
                    "velocity": 0.5354330708661418,
                    "duration": 0.041666666666671404
                },
                {
                    "name": "C5",
                    "midi": 72,
                    "time": 73.62500000000004,
                    "velocity": 0.48031496062992124,
                    "duration": 0.041666666666671404
                },
                {
                    "name": "B4",
                    "midi": 71,
                    "time": 73.66666666666671,
                    "velocity": 0.5354330708661418,
                    "duration": 0.041666666666671404
                },
                {
                    "name": "C5",
                    "midi": 72,
                    "time": 73.70833333333339,
                    "velocity": 0.48031496062992124,
                    "duration": 0.041666666666671404
                },
                {
                    "name": "B4",
                    "midi": 71,
                    "time": 73.75000000000006,
                    "velocity": 0.5354330708661418,
                    "duration": 0.25
                },
                {
                    "name": "C6",
                    "midi": 84,
                    "time": 74.12500000000006,
                    "velocity": 0.5669291338582677,
                    "duration": 0.125
                },
                {
                    "name": "E6",
                    "midi": 88,
                    "time": 74.25000000000006,
                    "velocity": 0.6141732283464567,
                    "duration": 0.125
                },
                {
                    "name": "C6",
                    "midi": 84,
                    "time": 74.37500000000006,
                    "velocity": 0.5669291338582677,
                    "duration": 0.125
                },
                {
                    "name": "B5",
                    "midi": 83,
                    "time": 74.50000000000006,
                    "velocity": 0.6062992125984252,
                    "duration": 0.125
                },
                {
                    "name": "A5",
                    "midi": 81,
                    "time": 74.62500000000006,
                    "velocity": 0.5433070866141733,
                    "duration": 0.125
                },
                {
                    "name": "G5",
                    "midi": 79,
                    "time": 74.75000000000006,
                    "velocity": 0.5984251968503937,
                    "duration": 0.125
                },
                {
                    "name": "F5",
                    "midi": 77,
                    "time": 74.87500000000006,
                    "velocity": 0.5275590551181102,
                    "duration": 0.125
                },
                {
                    "name": "E5",
                    "midi": 76,
                    "time": 75.00000000000006,
                    "velocity": 0.5905511811023622,
                    "duration": 0.5
                },
                {
                    "name": "D5",
                    "midi": 74,
                    "time": 75.50000000000006,
                    "velocity": 0.5354330708661418,
                    "duration": 0.041666666666671404
                },
                {
                    "name": "E5",
                    "midi": 76,
                    "time": 75.54166666666673,
                    "velocity": 0.47244094488188976,
                    "duration": 0.041666666666671404
                },
                {
                    "name": "D5",
                    "midi": 74,
                    "time": 75.5833333333334,
                    "velocity": 0.5354330708661418,
                    "duration": 0.041666666666671404
                },
                {
                    "name": "E5",
                    "midi": 76,
                    "time": 75.62500000000007,
                    "velocity": 0.48031496062992124,
                    "duration": 0.041666666666671404
                },
                {
                    "name": "D5",
                    "midi": 74,
                    "time": 75.66666666666674,
                    "velocity": 0.5354330708661418,
                    "duration": 0.041666666666671404
                },
                {
                    "name": "E5",
                    "midi": 76,
                    "time": 75.70833333333341,
                    "velocity": 0.48031496062992124,
                    "duration": 0.04166666666665719
                },
                {
                    "name": "D5",
                    "midi": 74,
                    "time": 75.74375000000008,
                    "velocity": 0.5354330708661418,
                    "duration": 0.04166666666665719
                },
                {
                    "name": "E5",
                    "midi": 76,
                    "time": 75.7864583333334,
                    "velocity": 0.47244094488188976,
                    "duration": 0.041666666666671404
                },
                {
                    "name": "D5",
                    "midi": 74,
                    "time": 75.8270833333334,
                    "velocity": 0.5354330708661418,
                    "duration": 0.041666666666671404
                },
                {
                    "name": "C5",
                    "midi": 72,
                    "time": 75.87187500000007,
                    "velocity": 0.49606299212598426,
                    "duration": 0.0625
                },
                {
                    "name": "D5",
                    "midi": 74,
                    "time": 75.93437500000007,
                    "velocity": 0.4881889763779528,
                    "duration": 0.0625
                },
                {
                    "name": "C5",
                    "midi": 72,
                    "time": 76.00000000000007,
                    "velocity": 0.5354330708661418,
                    "duration": 0.125
                },
                {
                    "name": "E5",
                    "midi": 76,
                    "time": 76.25000000000007,
                    "velocity": 0.3779527559055118,
                    "duration": 0.125
                },
                {
                    "name": "C5",
                    "midi": 72,
                    "time": 76.25000000000007,
                    "velocity": 0.31496062992125984,
                    "duration": 0.125
                },
                {
                    "name": "E5",
                    "midi": 76,
                    "time": 76.50000000000007,
                    "velocity": 0.3779527559055118,
                    "duration": 0.125
                },
                {
                    "name": "C5",
                    "midi": 72,
                    "time": 76.50000000000007,
                    "velocity": 0.31496062992125984,
                    "duration": 0.125
                },
                {
                    "name": "E5",
                    "midi": 76,
                    "time": 76.75000000000007,
                    "velocity": 0.3779527559055118,
                    "duration": 0.125
                },
                {
                    "name": "C5",
                    "midi": 72,
                    "time": 76.75000000000007,
                    "velocity": 0.31496062992125984,
                    "duration": 0.125
                },
                {
                    "name": "F5",
                    "midi": 77,
                    "time": 77.00000000000007,
                    "velocity": 0.4094488188976378,
                    "duration": 0.0625
                },
                {
                    "name": "C5",
                    "midi": 72,
                    "time": 77.00000000000007,
                    "velocity": 0.3464566929133858,
                    "duration": 0.25
                },
                {
                    "name": "E5",
                    "midi": 76,
                    "time": 77.06250000000007,
                    "velocity": 0.3700787401574803,
                    "duration": 0.0625
                },
                {
                    "name": "D5",
                    "midi": 74,
                    "time": 77.12500000000007,
                    "velocity": 0.3700787401574803,
                    "duration": 0.0625
                },
                {
                    "name": "E5",
                    "midi": 76,
                    "time": 77.18750000000007,
                    "velocity": 0.3779527559055118,
                    "duration": 0.0625
                },
                {
                    "name": "E5",
                    "midi": 76,
                    "time": 77.25000000000007,
                    "velocity": 0.3464566929133858,
                    "duration": 0.25
                },
                {
                    "name": "G5",
                    "midi": 79,
                    "time": 77.25000000000007,
                    "velocity": 0.4094488188976378,
                    "duration": 0.25
                },
                {
                    "name": "E5",
                    "midi": 76,
                    "time": 77.50000000000007,
                    "velocity": 0.47244094488188976,
                    "duration": 0.25
                },
                {
                    "name": "C5",
                    "midi": 72,
                    "time": 77.50000000000007,
                    "velocity": 0.4015748031496063,
                    "duration": 0.25
                },
                {
                    "name": "C5",
                    "midi": 72,
                    "time": 77.75000000000007,
                    "velocity": 0.5196850393700787,
                    "duration": 0.25
                },
                {
                    "name": "A4",
                    "midi": 69,
                    "time": 77.75000000000007,
                    "velocity": 0.4330708661417323,
                    "duration": 0.25
                },
                {
                    "name": "F4",
                    "midi": 65,
                    "time": 78.00000000000007,
                    "velocity": 0.47244094488188976,
                    "duration": 0.625
                },
                {
                    "name": "A4",
                    "midi": 69,
                    "time": 78.00000000000007,
                    "velocity": 0.5669291338582677,
                    "duration": 0.625
                },
                {
                    "name": "A4",
                    "midi": 69,
                    "time": 78.62500000000007,
                    "velocity": 0.4566929133858268,
                    "duration": 0.125
                },
                {
                    "name": "F4",
                    "midi": 65,
                    "time": 78.62500000000007,
                    "velocity": 0.3858267716535433,
                    "duration": 0.125
                },
                {
                    "name": "G4",
                    "midi": 67,
                    "time": 78.75000000000007,
                    "velocity": 0.3858267716535433,
                    "duration": 0.125
                },
                {
                    "name": "B4",
                    "midi": 71,
                    "time": 78.75000000000007,
                    "velocity": 0.4566929133858268,
                    "duration": 0.125
                },
                {
                    "name": "A4",
                    "midi": 69,
                    "time": 78.87500000000007,
                    "velocity": 0.3858267716535433,
                    "duration": 0.11249999999999716
                },
                {
                    "name": "C5",
                    "midi": 72,
                    "time": 78.87500000000007,
                    "velocity": 0.4566929133858268,
                    "duration": 0.11249999999999716
                },
                {
                    "name": "C5",
                    "midi": 72,
                    "time": 79.00000000000007,
                    "velocity": 0.49606299212598426,
                    "duration": 0.125
                },
                {
                    "name": "A4",
                    "midi": 69,
                    "time": 79.00000000000007,
                    "velocity": 0.41732283464566927,
                    "duration": 0.125
                },
                {
                    "name": "G4",
                    "midi": 67,
                    "time": 79.12500000000007,
                    "velocity": 0.3937007874015748,
                    "duration": 0.125
                },
                {
                    "name": "B4",
                    "midi": 71,
                    "time": 79.12500000000007,
                    "velocity": 0.4645669291338583,
                    "duration": 0.125
                },
                {
                    "name": "F4",
                    "midi": 65,
                    "time": 79.25000000000007,
                    "velocity": 0.3937007874015748,
                    "duration": 0.125
                },
                {
                    "name": "A4",
                    "midi": 69,
                    "time": 79.25000000000007,
                    "velocity": 0.4645669291338583,
                    "duration": 0.125
                },
                {
                    "name": "E4",
                    "midi": 64,
                    "time": 79.37500000000007,
                    "velocity": 0.3937007874015748,
                    "duration": 0.11249999999999716
                },
                {
                    "name": "G4",
                    "midi": 67,
                    "time": 79.37500000000007,
                    "velocity": 0.4645669291338583,
                    "duration": 0.11249999999999716
                },
                {
                    "name": "E4",
                    "midi": 64,
                    "time": 79.50000000000007,
                    "velocity": 0.41732283464566927,
                    "duration": 0.125
                },
                {
                    "name": "G4",
                    "midi": 67,
                    "time": 79.50000000000007,
                    "velocity": 0.49606299212598426,
                    "duration": 0.125
                },
                {
                    "name": "F4",
                    "midi": 65,
                    "time": 79.62500000000007,
                    "velocity": 0.41732283464566927,
                    "duration": 0.125
                },
                {
                    "name": "D4",
                    "midi": 62,
                    "time": 79.62500000000007,
                    "velocity": 0.3543307086614173,
                    "duration": 0.125
                },
                {
                    "name": "E4",
                    "midi": 64,
                    "time": 79.75000000000007,
                    "velocity": 0.41732283464566927,
                    "duration": 0.125
                },
                {
                    "name": "C4",
                    "midi": 60,
                    "time": 79.75000000000007,
                    "velocity": 0.3543307086614173,
                    "duration": 0.125
                },
                {
                    "name": "B3",
                    "midi": 59,
                    "time": 79.87500000000007,
                    "velocity": 0.3543307086614173,
                    "duration": 0.11249999999999716
                },
                {
                    "name": "D4",
                    "midi": 62,
                    "time": 79.87500000000007,
                    "velocity": 0.41732283464566927,
                    "duration": 0.11249999999999716
                },
                {
                    "name": "C5",
                    "midi": 72,
                    "time": 80.25000000000007,
                    "velocity": 0.49606299212598426,
                    "duration": 0.0833333333333286
                },
                {
                    "name": "E5",
                    "midi": 76,
                    "time": 80.3333333333334,
                    "velocity": 0.44881889763779526,
                    "duration": 0.0833333333333286
                },
                {
                    "name": "C6",
                    "midi": 84,
                    "time": 80.41666666666673,
                    "velocity": 0.44881889763779526,
                    "duration": 0.0833333333333286
                },
                {
                    "name": "C5",
                    "midi": 72,
                    "time": 80.50000000000006,
                    "velocity": 0.49606299212598426,
                    "duration": 0.0833333333333286
                },
                {
                    "name": "E5",
                    "midi": 76,
                    "time": 80.58333333333339,
                    "velocity": 0.4330708661417323,
                    "duration": 0.0833333333333286
                },
                {
                    "name": "C6",
                    "midi": 84,
                    "time": 80.66666666666671,
                    "velocity": 0.4330708661417323,
                    "duration": 0.0833333333333286
                },
                {
                    "name": "C5",
                    "midi": 72,
                    "time": 80.75000000000004,
                    "velocity": 0.49606299212598426,
                    "duration": 0.0833333333333286
                },
                {
                    "name": "E5",
                    "midi": 76,
                    "time": 80.83333333333337,
                    "velocity": 0.4330708661417323,
                    "duration": 0.0833333333333286
                },
                {
                    "name": "C6",
                    "midi": 84,
                    "time": 80.9166666666667,
                    "velocity": 0.4330708661417323,
                    "duration": 0.0833333333333286
                },
                {
                    "name": "C5",
                    "midi": 72,
                    "time": 81.00000000000003,
                    "velocity": 0.5433070866141733,
                    "duration": 0.0833333333333286
                },
                {
                    "name": "E5",
                    "midi": 76,
                    "time": 81.08333333333336,
                    "velocity": 0.4645669291338583,
                    "duration": 0.0833333333333286
                },
                {
                    "name": "C6",
                    "midi": 84,
                    "time": 81.16666666666669,
                    "velocity": 0.48031496062992124,
                    "duration": 0.0833333333333286
                },
                {
                    "name": "E5",
                    "midi": 76,
                    "time": 81.25000000000001,
                    "velocity": 0.5669291338582677,
                    "duration": 0.0833333333333286
                },
                {
                    "name": "G5",
                    "midi": 79,
                    "time": 81.33333333333334,
                    "velocity": 0.5039370078740157,
                    "duration": 0.0833333333333286
                },
                {
                    "name": "E6",
                    "midi": 88,
                    "time": 81.41666666666667,
                    "velocity": 0.5196850393700787,
                    "duration": 0.0833333333333286
                },
                {
                    "name": "C5",
                    "midi": 72,
                    "time": 81.5,
                    "velocity": 0.5905511811023622,
                    "duration": 0.0833333333333286
                },
                {
                    "name": "E5",
                    "midi": 76,
                    "time": 81.58333333333333,
                    "velocity": 0.5196850393700787,
                    "duration": 0.0833333333333286
                },
                {
                    "name": "C6",
                    "midi": 84,
                    "time": 81.66666666666666,
                    "velocity": 0.5433070866141733,
                    "duration": 0.0833333333333286
                },
                {
                    "name": "A4",
                    "midi": 69,
                    "time": 81.74999999999999,
                    "velocity": 0.6299212598425197,
                    "duration": 0.0833333333333286
                },
                {
                    "name": "C5",
                    "midi": 72,
                    "time": 81.83333333333331,
                    "velocity": 0.5433070866141733,
                    "duration": 0.0833333333333286
                },
                {
                    "name": "A5",
                    "midi": 81,
                    "time": 81.91666666666664,
                    "velocity": 0.5590551181102362,
                    "duration": 0.0833333333333286
                },
                {
                    "name": "F4",
                    "midi": 65,
                    "time": 81.99999999999997,
                    "velocity": 0.6377952755905512,
                    "duration": 0.625
                },
                {
                    "name": "C5",
                    "midi": 72,
                    "time": 82.62499999999997,
                    "velocity": 0.5196850393700787,
                    "duration": 0.125
                },
                {
                    "name": "A4",
                    "midi": 69,
                    "time": 82.62499999999997,
                    "velocity": 0.4409448818897638,
                    "duration": 0.125
                },
                {
                    "name": "G4",
                    "midi": 67,
                    "time": 82.74999999999997,
                    "velocity": 0.44881889763779526,
                    "duration": 0.125
                },
                {
                    "name": "B4",
                    "midi": 71,
                    "time": 82.74999999999997,
                    "velocity": 0.5354330708661418,
                    "duration": 0.125
                },
                {
                    "name": "A4",
                    "midi": 69,
                    "time": 82.87499999999997,
                    "velocity": 0.49606299212598426,
                    "duration": 0.11249999999999716
                },
                {
                    "name": "F4",
                    "midi": 65,
                    "time": 82.87499999999997,
                    "velocity": 0.41732283464566927,
                    "duration": 0.11249999999999716
                },
                {
                    "name": "A4",
                    "midi": 69,
                    "time": 82.99999999999997,
                    "velocity": 0.5275590551181102,
                    "duration": 0.125
                },
                {
                    "name": "F4",
                    "midi": 65,
                    "time": 82.99999999999997,
                    "velocity": 0.4409448818897638,
                    "duration": 0.125
                },
                {
                    "name": "G4",
                    "midi": 67,
                    "time": 83.12499999999997,
                    "velocity": 0.5118110236220472,
                    "duration": 0.125
                },
                {
                    "name": "E4",
                    "midi": 64,
                    "time": 83.12499999999997,
                    "velocity": 0.4330708661417323,
                    "duration": 0.125
                },
                {
                    "name": "D4",
                    "midi": 62,
                    "time": 83.24999999999997,
                    "velocity": 0.41732283464566927,
                    "duration": 0.125
                },
                {
                    "name": "F4",
                    "midi": 65,
                    "time": 83.24999999999997,
                    "velocity": 0.49606299212598426,
                    "duration": 0.125
                },
                {
                    "name": "C4",
                    "midi": 60,
                    "time": 83.37499999999997,
                    "velocity": 0.4015748031496063,
                    "duration": 0.11249999999999716
                },
                {
                    "name": "E4",
                    "midi": 64,
                    "time": 83.37499999999997,
                    "velocity": 0.48031496062992124,
                    "duration": 0.11249999999999716
                },
                {
                    "name": "E4",
                    "midi": 64,
                    "time": 83.49999999999997,
                    "velocity": 0.49606299212598426,
                    "duration": 0.125
                },
                {
                    "name": "D4",
                    "midi": 62,
                    "time": 83.62499999999997,
                    "velocity": 0.4409448818897638,
                    "duration": 0.125
                },
                {
                    "name": "C4",
                    "midi": 60,
                    "time": 83.74999999999997,
                    "velocity": 0.4409448818897638,
                    "duration": 0.125
                },
                {
                    "name": "B3",
                    "midi": 59,
                    "time": 83.87499999999997,
                    "velocity": 0.4409448818897638,
                    "duration": 0.11249999999999716
                },
                {
                    "name": "F3",
                    "midi": 53,
                    "time": 83.87499999999997,
                    "velocity": 0.3700787401574803,
                    "duration": 0.11249999999999716
                },
                {
                    "name": "B3",
                    "midi": 59,
                    "time": 83.99999999999997,
                    "velocity": 0.4645669291338583,
                    "duration": 0.953125
                },
                {
                    "name": "F3",
                    "midi": 53,
                    "time": 83.99999999999997,
                    "velocity": 0.4645669291338583,
                    "duration": 0.953125
                },
                {
                    "name": "G3",
                    "midi": 55,
                    "time": 84.99999999999997,
                    "velocity": 0.4094488188976378,
                    "duration": 0.25
                },
                {
                    "name": "E3",
                    "midi": 52,
                    "time": 84.99999999999997,
                    "velocity": 0.4094488188976378,
                    "duration": 0.25
                },
                {
                    "name": "C4",
                    "midi": 60,
                    "time": 84.99999999999997,
                    "velocity": 0.4094488188976378,
                    "duration": 0.25
                },
                {
                    "name": "C5",
                    "midi": 72,
                    "time": 85.99999999999997,
                    "velocity": 0.47244094488188976,
                    "duration": 0.375
                },
                {
                    "name": "G4",
                    "midi": 67,
                    "time": 85.99999999999997,
                    "velocity": 0.4015748031496063,
                    "duration": 0.125
                },
                {
                    "name": "E4",
                    "midi": 64,
                    "time": 85.99999999999997,
                    "velocity": 0.4015748031496063,
                    "duration": 0.125
                },
                {
                    "name": "G4",
                    "midi": 67,
                    "time": 86.37499999999997,
                    "velocity": 0.4409448818897638,
                    "duration": 0.125
                },
                {
                    "name": "F5",
                    "midi": 77,
                    "time": 86.49999999999997,
                    "velocity": 0.47244094488188976,
                    "duration": 0.125
                },
                {
                    "name": "E5",
                    "midi": 76,
                    "time": 86.62499999999997,
                    "velocity": 0.4251968503937008,
                    "duration": 0.125
                },
                {
                    "name": "D5",
                    "midi": 74,
                    "time": 86.74999999999997,
                    "velocity": 0.4251968503937008,
                    "duration": 0.125
                },
                {
                    "name": "C5",
                    "midi": 72,
                    "time": 86.87499999999997,
                    "velocity": 0.4251968503937008,
                    "duration": 0.125
                },
                {
                    "name": "G5",
                    "midi": 79,
                    "time": 86.99999999999997,
                    "velocity": 0.47244094488188976,
                    "duration": 0.125
                },
                {
                    "name": "F5",
                    "midi": 77,
                    "time": 87.99999999999997,
                    "velocity": 0.47244094488188976,
                    "duration": 0.375
                },
                {
                    "name": "C5",
                    "midi": 72,
                    "time": 88.37499999999997,
                    "velocity": 0.4409448818897638,
                    "duration": 0.125
                },
                {
                    "name": "A#5",
                    "midi": 82,
                    "time": 88.49999999999997,
                    "velocity": 0.47244094488188976,
                    "duration": 0.125
                },
                {
                    "name": "A5",
                    "midi": 81,
                    "time": 88.62499999999997,
                    "velocity": 0.4251968503937008,
                    "duration": 0.125
                },
                {
                    "name": "G5",
                    "midi": 79,
                    "time": 88.74999999999997,
                    "velocity": 0.4251968503937008,
                    "duration": 0.125
                },
                {
                    "name": "F5",
                    "midi": 77,
                    "time": 88.87499999999997,
                    "velocity": 0.4251968503937008,
                    "duration": 0.125
                },
                {
                    "name": "C6",
                    "midi": 84,
                    "time": 88.99999999999997,
                    "velocity": 0.47244094488188976,
                    "duration": 0.125
                },
                {
                    "name": "B5",
                    "midi": 83,
                    "time": 89.87499999999997,
                    "velocity": 0.47244094488188976,
                    "duration": 0.041666666666671404
                },
                {
                    "name": "C6",
                    "midi": 84,
                    "time": 89.91666666666664,
                    "velocity": 0.4881889763779528,
                    "duration": 0.041666666666671404
                },
                {
                    "name": "D6",
                    "midi": 86,
                    "time": 89.95937499999998,
                    "velocity": 0.5039370078740157,
                    "duration": 0.041666666666671404
                },
                {
                    "name": "C6",
                    "midi": 84,
                    "time": 89.99999999999999,
                    "velocity": 0.5275590551181102,
                    "duration": 0.875
                },
                {
                    "name": "A#5",
                    "midi": 82,
                    "time": 90.87499999999999,
                    "velocity": 0.47244094488188976,
                    "duration": 0.041666666666671404
                },
                {
                    "name": "A5",
                    "midi": 81,
                    "time": 90.91666666666666,
                    "velocity": 0.47244094488188976,
                    "duration": 0.041666666666671404
                },
                {
                    "name": "G5",
                    "midi": 79,
                    "time": 90.959375,
                    "velocity": 0.47244094488188976,
                    "duration": 0.041666666666671404
                },
                {
                    "name": "F#5",
                    "midi": 78,
                    "time": 91,
                    "velocity": 0.5354330708661418,
                    "duration": 0.125
                },
                {
                    "name": "D#5",
                    "midi": 75,
                    "time": 91.125,
                    "velocity": 0.49606299212598426,
                    "duration": 0.125
                },
                {
                    "name": "D5",
                    "midi": 74,
                    "time": 91.25,
                    "velocity": 0.49606299212598426,
                    "duration": 0.125
                },
                {
                    "name": "C5",
                    "midi": 72,
                    "time": 91.375,
                    "velocity": 0.5039370078740157,
                    "duration": 0.125
                },
                {
                    "name": "A#4",
                    "midi": 70,
                    "time": 91.5,
                    "velocity": 0.5354330708661418,
                    "duration": 0.125
                },
                {
                    "name": "A4",
                    "midi": 69,
                    "time": 91.625,
                    "velocity": 0.5511811023622047,
                    "duration": 0.125
                },
                {
                    "name": "G4",
                    "midi": 67,
                    "time": 91.75,
                    "velocity": 0.5590551181102362,
                    "duration": 0.125
                },
                {
                    "name": "F#4",
                    "midi": 66,
                    "time": 91.875,
                    "velocity": 0.5748031496062992,
                    "duration": 0.125
                },
                {
                    "name": "G4",
                    "midi": 67,
                    "time": 92,
                    "velocity": 0.5826771653543307,
                    "duration": 0.12187500000000284
                },
                {
                    "name": "A#4",
                    "midi": 70,
                    "time": 92.25,
                    "velocity": 0.6062992125984252,
                    "duration": 0.125
                },
                {
                    "name": "D5",
                    "midi": 74,
                    "time": 92.5,
                    "velocity": 0.6456692913385826,
                    "duration": 0.125
                },
                {
                    "name": "G5",
                    "midi": 79,
                    "time": 92.75,
                    "velocity": 0.6614173228346457,
                    "duration": 0.125
                },
                {
                    "name": "A#5",
                    "midi": 82,
                    "time": 93,
                    "velocity": 0.6771653543307087,
                    "duration": 0.125
                },
                {
                    "name": "D6",
                    "midi": 86,
                    "time": 94,
                    "velocity": 0.7086614173228346,
                    "duration": 0.125
                },
                {
                    "name": "D6",
                    "midi": 86,
                    "time": 94.25,
                    "velocity": 0.7086614173228346,
                    "duration": 0.5
                },
                {
                    "name": "C6",
                    "midi": 84,
                    "time": 94.75,
                    "velocity": 0.5669291338582677,
                    "duration": 0.0625
                },
                {
                    "name": "A#5",
                    "midi": 82,
                    "time": 94.8125,
                    "velocity": 0.5748031496062992,
                    "duration": 0.0625
                },
                {
                    "name": "A5",
                    "midi": 81,
                    "time": 94.875,
                    "velocity": 0.5826771653543307,
                    "duration": 0.0625
                },
                {
                    "name": "G5",
                    "midi": 79,
                    "time": 94.9375,
                    "velocity": 0.5826771653543307,
                    "duration": 0.0625
                },
                {
                    "name": "C6",
                    "midi": 84,
                    "time": 95,
                    "velocity": 0.6614173228346457,
                    "duration": 0.125
                },
                {
                    "name": "C6",
                    "midi": 84,
                    "time": 95.25,
                    "velocity": 0.6614173228346457,
                    "duration": 0.5
                },
                {
                    "name": "A#5",
                    "midi": 82,
                    "time": 95.75,
                    "velocity": 0.5511811023622047,
                    "duration": 0.0625
                },
                {
                    "name": "A5",
                    "midi": 81,
                    "time": 95.8125,
                    "velocity": 0.5669291338582677,
                    "duration": 0.0625
                },
                {
                    "name": "G5",
                    "midi": 79,
                    "time": 95.875,
                    "velocity": 0.5748031496062992,
                    "duration": 0.0625
                },
                {
                    "name": "F5",
                    "midi": 77,
                    "time": 95.9375,
                    "velocity": 0.5905511811023622,
                    "duration": 0.0625
                },
                {
                    "name": "C6",
                    "midi": 84,
                    "time": 96,
                    "velocity": 0.6062992125984252,
                    "duration": 0.125
                },
                {
                    "name": "A#5",
                    "midi": 82,
                    "time": 96.125,
                    "velocity": 0.5354330708661418,
                    "duration": 0.09375
                },
                {
                    "name": "A#5",
                    "midi": 82,
                    "time": 96.25,
                    "velocity": 0.5669291338582677,
                    "duration": 0.125
                },
                {
                    "name": "A5",
                    "midi": 81,
                    "time": 96.375,
                    "velocity": 0.5275590551181102,
                    "duration": 0.09375
                },
                {
                    "name": "A5",
                    "midi": 81,
                    "time": 96.5,
                    "velocity": 0.5669291338582677,
                    "duration": 0.25
                },
                {
                    "name": "C6",
                    "midi": 84,
                    "time": 97,
                    "velocity": 0.48031496062992124,
                    "duration": 0.125
                },
                {
                    "name": "A#5",
                    "midi": 82,
                    "time": 97.125,
                    "velocity": 0.44881889763779526,
                    "duration": 0.09375
                },
                {
                    "name": "A#5",
                    "midi": 82,
                    "time": 97.25,
                    "velocity": 0.48031496062992124,
                    "duration": 0.125
                },
                {
                    "name": "A5",
                    "midi": 81,
                    "time": 97.375,
                    "velocity": 0.4251968503937008,
                    "duration": 0.09375
                },
                {
                    "name": "A5",
                    "midi": 81,
                    "time": 97.5,
                    "velocity": 0.47244094488188976,
                    "duration": 0.25
                },
                {
                    "name": "C6",
                    "midi": 84,
                    "time": 98,
                    "velocity": 0.5433070866141733,
                    "duration": 0.03125
                },
                {
                    "name": "D6",
                    "midi": 86,
                    "time": 98.03125,
                    "velocity": 0.49606299212598426,
                    "duration": 0.03125
                },
                {
                    "name": "C6",
                    "midi": 84,
                    "time": 98.0625,
                    "velocity": 0.5433070866141733,
                    "duration": 0.03125
                },
                {
                    "name": "D6",
                    "midi": 86,
                    "time": 98.09375,
                    "velocity": 0.48031496062992124,
                    "duration": 0.03125
                },
                {
                    "name": "A#5",
                    "midi": 82,
                    "time": 98.125,
                    "velocity": 0.5354330708661418,
                    "duration": 0.09375
                },
                {
                    "name": "A#5",
                    "midi": 82,
                    "time": 98.25,
                    "velocity": 0.5354330708661418,
                    "duration": 0.03125
                },
                {
                    "name": "C6",
                    "midi": 84,
                    "time": 98.28125,
                    "velocity": 0.48031496062992124,
                    "duration": 0.03125
                },
                {
                    "name": "A#5",
                    "midi": 82,
                    "time": 98.3125,
                    "velocity": 0.5354330708661418,
                    "duration": 0.03125
                },
                {
                    "name": "C6",
                    "midi": 84,
                    "time": 98.34375,
                    "velocity": 0.4881889763779528,
                    "duration": 0.03125
                },
                {
                    "name": "A5",
                    "midi": 81,
                    "time": 98.375,
                    "velocity": 0.5275590551181102,
                    "duration": 0.09375
                },
                {
                    "name": "A5",
                    "midi": 81,
                    "time": 98.5,
                    "velocity": 0.5669291338582677,
                    "duration": 0.25
                },
                {
                    "name": "A#5",
                    "midi": 82,
                    "time": 98.96875,
                    "velocity": 0.4881889763779528,
                    "duration": 0.03125
                },
                {
                    "name": "A5",
                    "midi": 81,
                    "time": 99,
                    "velocity": 0.5511811023622047,
                    "duration": 0.125
                },
                {
                    "name": "G5",
                    "midi": 79,
                    "time": 99.125,
                    "velocity": 0.5118110236220472,
                    "duration": 0.09375
                },
                {
                    "name": "A5",
                    "midi": 81,
                    "time": 99.21875,
                    "velocity": 0.4881889763779528,
                    "duration": 0.03125
                },
                {
                    "name": "G5",
                    "midi": 79,
                    "time": 99.25,
                    "velocity": 0.5511811023622047,
                    "duration": 0.125
                },
                {
                    "name": "F5",
                    "midi": 77,
                    "time": 99.375,
                    "velocity": 0.4881889763779528,
                    "duration": 0.125
                },
                {
                    "name": "F5",
                    "midi": 77,
                    "time": 99.5,
                    "velocity": 0.5433070866141733,
                    "duration": 0.25
                },
                {
                    "name": "F5",
                    "midi": 77,
                    "time": 100,
                    "velocity": 0.5118110236220472,
                    "duration": 0.125
                },
                {
                    "name": "E5",
                    "midi": 76,
                    "time": 100.125,
                    "velocity": 0.44881889763779526,
                    "duration": 0.125
                },
                {
                    "name": "D5",
                    "midi": 74,
                    "time": 100.25,
                    "velocity": 0.48031496062992124,
                    "duration": 0.125
                },
                {
                    "name": "C5",
                    "midi": 72,
                    "time": 100.375,
                    "velocity": 0.4251968503937008,
                    "duration": 0.09375
                },
                {
                    "name": "C5",
                    "midi": 72,
                    "time": 100.5,
                    "velocity": 0.47244094488188976,
                    "duration": 0.25
                },
                {
                    "name": "C5",
                    "midi": 72,
                    "time": 100.75,
                    "velocity": 0.4251968503937008,
                    "duration": 0.25
                },
                {
                    "name": "D5",
                    "midi": 74,
                    "time": 101,
                    "velocity": 0.4251968503937008,
                    "duration": 0.0625
                },
                {
                    "name": "C5",
                    "midi": 72,
                    "time": 101.0625,
                    "velocity": 0.4251968503937008,
                    "duration": 0.0625
                },
                {
                    "name": "B4",
                    "midi": 71,
                    "time": 101.125,
                    "velocity": 0.4251968503937008,
                    "duration": 0.0625
                },
                {
                    "name": "C5",
                    "midi": 72,
                    "time": 101.1875,
                    "velocity": 0.47244094488188976,
                    "duration": 0.2083333333333286
                },
                {
                    "name": "C5",
                    "midi": 72,
                    "time": 102,
                    "velocity": 0.47244094488188976,
                    "duration": 0.5
                },
                {
                    "name": "A#4",
                    "midi": 70,
                    "time": 102.5,
                    "velocity": 0.4330708661417323,
                    "duration": 0.125
                },
                {
                    "name": "A4",
                    "midi": 69,
                    "time": 102.625,
                    "velocity": 0.3937007874015748,
                    "duration": 0.125
                },
                {
                    "name": "G4",
                    "midi": 67,
                    "time": 102.75,
                    "velocity": 0.4330708661417323,
                    "duration": 0.125
                },
                {
                    "name": "F4",
                    "midi": 65,
                    "time": 102.875,
                    "velocity": 0.3858267716535433,
                    "duration": 0.09375
                },
                {
                    "name": "F4",
                    "midi": 65,
                    "time": 103,
                    "velocity": 0.4330708661417323,
                    "duration": 0.5
                },
                {
                    "name": "E4",
                    "midi": 64,
                    "time": 103.5,
                    "velocity": 0.4330708661417323,
                    "duration": 0.0625
                },
                {
                    "name": "F4",
                    "midi": 65,
                    "time": 103.5625,
                    "velocity": 0.4015748031496063,
                    "duration": 0.0625
                },
                {
                    "name": "E4",
                    "midi": 64,
                    "time": 103.625,
                    "velocity": 0.44881889763779526,
                    "duration": 0.25
                },
                {
                    "name": "E4",
                    "midi": 64,
                    "time": 103.875,
                    "velocity": 0.4015748031496063,
                    "duration": 0.125
                },
                {
                    "name": "F4",
                    "midi": 65,
                    "time": 104,
                    "velocity": 0.4330708661417323,
                    "duration": 0.125
                },
                {
                    "name": "G4",
                    "midi": 67,
                    "time": 104.125,
                    "velocity": 0.4094488188976378,
                    "duration": 0.125
                },
                {
                    "name": "A4",
                    "midi": 69,
                    "time": 104.25,
                    "velocity": 0.4251968503937008,
                    "duration": 0.125
                },
                {
                    "name": "A#4",
                    "midi": 70,
                    "time": 104.375,
                    "velocity": 0.4330708661417323,
                    "duration": 0.125
                },
                {
                    "name": "C5",
                    "midi": 72,
                    "time": 104.5,
                    "velocity": 0.4645669291338583,
                    "duration": 0.125
                },
                {
                    "name": "D5",
                    "midi": 74,
                    "time": 104.625,
                    "velocity": 0.48031496062992124,
                    "duration": 0.125
                },
                {
                    "name": "E5",
                    "midi": 76,
                    "time": 104.75,
                    "velocity": 0.5039370078740157,
                    "duration": 0.125
                },
                {
                    "name": "F5",
                    "midi": 77,
                    "time": 104.875,
                    "velocity": 0.5196850393700787,
                    "duration": 0.09375
                },
                {
                    "name": "F5",
                    "midi": 77,
                    "time": 105,
                    "velocity": 0.5196850393700787,
                    "duration": 0.125
                },
                {
                    "name": "E5",
                    "midi": 76,
                    "time": 105.125,
                    "velocity": 0.5039370078740157,
                    "duration": 0.125
                },
                {
                    "name": "D5",
                    "midi": 74,
                    "time": 105.25,
                    "velocity": 0.48031496062992124,
                    "duration": 0.0625
                },
                {
                    "name": "C5",
                    "midi": 72,
                    "time": 105.375,
                    "velocity": 0.4645669291338583,
                    "duration": 0.0625
                },
                {
                    "name": "C5",
                    "midi": 72,
                    "time": 105.5,
                    "velocity": 0.44881889763779526,
                    "duration": 0.125
                },
                {
                    "name": "A#4",
                    "midi": 70,
                    "time": 105.625,
                    "velocity": 0.4330708661417323,
                    "duration": 0.125
                },
                {
                    "name": "A4",
                    "midi": 69,
                    "time": 105.75,
                    "velocity": 0.4094488188976378,
                    "duration": 0.0625
                },
                {
                    "name": "G4",
                    "midi": 67,
                    "time": 105.875,
                    "velocity": 0.3937007874015748,
                    "duration": 0.0625
                },
                {
                    "name": "C6",
                    "midi": 84,
                    "time": 106,
                    "velocity": 0.5669291338582677,
                    "duration": 0.375
                },
                {
                    "name": "D6",
                    "midi": 86,
                    "time": 106.375,
                    "velocity": 0.5039370078740157,
                    "duration": 0.0625
                },
                {
                    "name": "C6",
                    "midi": 84,
                    "time": 106.4375,
                    "velocity": 0.47244094488188976,
                    "duration": 0.0625
                },
                {
                    "name": "A#5",
                    "midi": 82,
                    "time": 106.5,
                    "velocity": 0.5354330708661418,
                    "duration": 0.125
                },
                {
                    "name": "A5",
                    "midi": 81,
                    "time": 106.625,
                    "velocity": 0.47244094488188976,
                    "duration": 0.125
                },
                {
                    "name": "G5",
                    "midi": 79,
                    "time": 106.75,
                    "velocity": 0.4881889763779528,
                    "duration": 0.125
                },
                {
                    "name": "F5",
                    "midi": 77,
                    "time": 106.875,
                    "velocity": 0.47244094488188976,
                    "duration": 0.09375
                },
                {
                    "name": "F5",
                    "midi": 77,
                    "time": 107,
                    "velocity": 0.5511811023622047,
                    "duration": 0.5
                },
                {
                    "name": "E5",
                    "midi": 76,
                    "time": 107.5,
                    "velocity": 0.47244094488188976,
                    "duration": 0.0625
                },
                {
                    "name": "F5",
                    "midi": 77,
                    "time": 107.5625,
                    "velocity": 0.4409448818897638,
                    "duration": 0.0625
                },
                {
                    "name": "E5",
                    "midi": 76,
                    "time": 107.625,
                    "velocity": 0.47244094488188976,
                    "duration": 0.25
                },
                {
                    "name": "A#5",
                    "midi": 82,
                    "time": 107.875,
                    "velocity": 0.44881889763779526,
                    "duration": 0.125
                },
                {
                    "name": "A5",
                    "midi": 81,
                    "time": 108,
                    "velocity": 0.5196850393700787,
                    "duration": 0.0625
                },
                {
                    "name": "A#5",
                    "midi": 82,
                    "time": 108.125,
                    "velocity": 0.47244094488188976,
                    "duration": 0.0625
                },
                {
                    "name": "C6",
                    "midi": 84,
                    "time": 108.25,
                    "velocity": 0.5196850393700787,
                    "duration": 0.0625
                },
                {
                    "name": "D6",
                    "midi": 86,
                    "time": 108.375,
                    "velocity": 0.5275590551181102,
                    "duration": 0.0625
                },
                {
                    "name": "E6",
                    "midi": 88,
                    "time": 108.5,
                    "velocity": 0.6062992125984252,
                    "duration": 0.0625
                },
                {
                    "name": "F6",
                    "midi": 89,
                    "time": 108.625,
                    "velocity": 0.5590551181102362,
                    "duration": 0.0625
                },
                {
                    "name": "E6",
                    "midi": 88,
                    "time": 108.75,
                    "velocity": 0.5826771653543307,
                    "duration": 0.0625
                },
                {
                    "name": "F6",
                    "midi": 89,
                    "time": 108.875,
                    "velocity": 0.5669291338582677,
                    "duration": 0.0625
                },
                {
                    "name": "F6",
                    "midi": 89,
                    "time": 109,
                    "velocity": 0.6299212598425197,
                    "duration": 0.125
                },
                {
                    "name": "E6",
                    "midi": 88,
                    "time": 109.125,
                    "velocity": 0.5669291338582677,
                    "duration": 0.125
                },
                {
                    "name": "D6",
                    "midi": 86,
                    "time": 109.25,
                    "velocity": 0.5748031496062992,
                    "duration": 0.125
                },
                {
                    "name": "C6",
                    "midi": 84,
                    "time": 109.375,
                    "velocity": 0.5511811023622047,
                    "duration": 0.09375
                },
                {
                    "name": "C6",
                    "midi": 84,
                    "time": 109.5,
                    "velocity": 0.5905511811023622,
                    "duration": 0.125
                },
                {
                    "name": "A#5",
                    "midi": 82,
                    "time": 109.625,
                    "velocity": 0.5511811023622047,
                    "duration": 0.125
                },
                {
                    "name": "A5",
                    "midi": 81,
                    "time": 109.75,
                    "velocity": 0.5354330708661418,
                    "duration": 0.125
                },
                {
                    "name": "G5",
                    "midi": 79,
                    "time": 109.875,
                    "velocity": 0.5275590551181102,
                    "duration": 0.125
                },
                {
                    "name": "A5",
                    "midi": 81,
                    "time": 110,
                    "velocity": 0.5354330708661418,
                    "duration": 0.125
                },
                {
                    "name": "A#5",
                    "midi": 82,
                    "time": 110.125,
                    "velocity": 0.5354330708661418,
                    "duration": 0.125
                },
                {
                    "name": "A5",
                    "midi": 81,
                    "time": 110.25,
                    "velocity": 0.5905511811023622,
                    "duration": 0.125
                },
                {
                    "name": "A#5",
                    "midi": 82,
                    "time": 110.375,
                    "velocity": 0.5826771653543307,
                    "duration": 0.125
                },
                {
                    "name": "C6",
                    "midi": 84,
                    "time": 110.5,
                    "velocity": 0.6535433070866141,
                    "duration": 0.125
                },
                {
                    "name": "D6",
                    "midi": 86,
                    "time": 110.625,
                    "velocity": 0.6377952755905512,
                    "duration": 0.125
                },
                {
                    "name": "C6",
                    "midi": 84,
                    "time": 110.75,
                    "velocity": 0.7165354330708661,
                    "duration": 0.125
                },
                {
                    "name": "D6",
                    "midi": 86,
                    "time": 110.875,
                    "velocity": 0.6692913385826772,
                    "duration": 0.125
                },
                {
                    "name": "D#6",
                    "midi": 87,
                    "time": 111,
                    "velocity": 0.7637795275590551,
                    "duration": 1
                },
                {
                    "name": "D#5",
                    "midi": 75,
                    "time": 111,
                    "velocity": 0.6456692913385826,
                    "duration": 1
                },
                {
                    "name": "D6",
                    "midi": 86,
                    "time": 112.125,
                    "velocity": 0.5511811023622047,
                    "duration": 0.125
                },
                {
                    "name": "C#6",
                    "midi": 85,
                    "time": 112.25,
                    "velocity": 0.5905511811023622,
                    "duration": 0.125
                },
                {
                    "name": "D6",
                    "midi": 86,
                    "time": 112.375,
                    "velocity": 0.5354330708661418,
                    "duration": 0.125
                },
                {
                    "name": "C6",
                    "midi": 84,
                    "time": 112.625,
                    "velocity": 0.5275590551181102,
                    "duration": 0.125
                },
                {
                    "name": "B5",
                    "midi": 83,
                    "time": 112.75,
                    "velocity": 0.5984251968503937,
                    "duration": 0.125
                },
                {
                    "name": "C6",
                    "midi": 84,
                    "time": 112.875,
                    "velocity": 0.5275590551181102,
                    "duration": 0.125
                },
                {
                    "name": "B5",
                    "midi": 83,
                    "time": 113.125,
                    "velocity": 0.5511811023622047,
                    "duration": 0.125
                },
                {
                    "name": "B5",
                    "midi": 83,
                    "time": 113.25,
                    "velocity": 0.5433070866141733,
                    "duration": 0.0625
                },
                {
                    "name": "C6",
                    "midi": 84,
                    "time": 113.3125,
                    "velocity": 0.49606299212598426,
                    "duration": 0.0625
                },
                {
                    "name": "B5",
                    "midi": 83,
                    "time": 113.375,
                    "velocity": 0.5354330708661418,
                    "duration": 0.125
                },
                {
                    "name": "A#5",
                    "midi": 82,
                    "time": 113.625,
                    "velocity": 0.5669291338582677,
                    "duration": 0.125
                },
                {
                    "name": "A#5",
                    "midi": 82,
                    "time": 113.75,
                    "velocity": 0.5669291338582677,
                    "duration": 0.0625
                },
                {
                    "name": "C6",
                    "midi": 84,
                    "time": 113.8125,
                    "velocity": 0.5118110236220472,
                    "duration": 0.0625
                },
                {
                    "name": "A#5",
                    "midi": 82,
                    "time": 113.875,
                    "velocity": 0.5905511811023622,
                    "duration": 0.125
                },
                {
                    "name": "A5",
                    "midi": 81,
                    "time": 114.125,
                    "velocity": 0.5275590551181102,
                    "duration": 0.125
                },
                {
                    "name": "A#5",
                    "midi": 82,
                    "time": 114.25,
                    "velocity": 0.5511811023622047,
                    "duration": 0.125
                },
                {
                    "name": "C6",
                    "midi": 84,
                    "time": 114.375,
                    "velocity": 0.5669291338582677,
                    "duration": 0.09375
                },
                {
                    "name": "C6",
                    "midi": 84,
                    "time": 114.5,
                    "velocity": 0.5669291338582677,
                    "duration": 0.125
                },
                {
                    "name": "D5",
                    "midi": 74,
                    "time": 114.625,
                    "velocity": 0.5196850393700787,
                    "duration": 0.125
                },
                {
                    "name": "A#5",
                    "midi": 82,
                    "time": 114.75,
                    "velocity": 0.5669291338582677,
                    "duration": 0.125
                },
                {
                    "name": "G5",
                    "midi": 79,
                    "time": 114.875,
                    "velocity": 0.5118110236220472,
                    "duration": 0.125
                },
                {
                    "name": "F5",
                    "midi": 77,
                    "time": 115,
                    "velocity": 0.5669291338582677,
                    "duration": 0.5
                },
                {
                    "name": "E5",
                    "midi": 76,
                    "time": 115.5,
                    "velocity": 0.5354330708661418,
                    "duration": 0.041666666666671404
                },
                {
                    "name": "F5",
                    "midi": 77,
                    "time": 115.54166666666667,
                    "velocity": 0.47244094488188976,
                    "duration": 0.041666666666671404
                },
                {
                    "name": "E5",
                    "midi": 76,
                    "time": 115.58333333333334,
                    "velocity": 0.5354330708661418,
                    "duration": 0.041666666666671404
                },
                {
                    "name": "F5",
                    "midi": 77,
                    "time": 115.62500000000001,
                    "velocity": 0.48031496062992124,
                    "duration": 0.041666666666671404
                },
                {
                    "name": "E5",
                    "midi": 76,
                    "time": 115.66666666666669,
                    "velocity": 0.5354330708661418,
                    "duration": 0.041666666666671404
                },
                {
                    "name": "F5",
                    "midi": 77,
                    "time": 115.70833333333336,
                    "velocity": 0.48031496062992124,
                    "duration": 0.041666666666671404
                },
                {
                    "name": "E5",
                    "midi": 76,
                    "time": 115.75000000000003,
                    "velocity": 0.5354330708661418,
                    "duration": 0.25
                },
                {
                    "name": "C6",
                    "midi": 84,
                    "time": 116.12500000000003,
                    "velocity": 0.5669291338582677,
                    "duration": 0.125
                },
                {
                    "name": "A5",
                    "midi": 81,
                    "time": 116.25000000000003,
                    "velocity": 0.5905511811023622,
                    "duration": 0.125
                },
                {
                    "name": "F5",
                    "midi": 77,
                    "time": 116.37500000000003,
                    "velocity": 0.5275590551181102,
                    "duration": 0.125
                },
                {
                    "name": "D#5",
                    "midi": 75,
                    "time": 116.50000000000003,
                    "velocity": 0.6062992125984252,
                    "duration": 0.125
                },
                {
                    "name": "D5",
                    "midi": 74,
                    "time": 116.62500000000003,
                    "velocity": 0.5433070866141733,
                    "duration": 0.125
                },
                {
                    "name": "C#6",
                    "midi": 85,
                    "time": 116.75000000000003,
                    "velocity": 0.6456692913385826,
                    "duration": 0.125
                },
                {
                    "name": "D6",
                    "midi": 86,
                    "time": 116.87500000000003,
                    "velocity": 0.5984251968503937,
                    "duration": 0.125
                },
                {
                    "name": "F5",
                    "midi": 77,
                    "time": 117.00000000000003,
                    "velocity": 0.5905511811023622,
                    "duration": 0.5
                },
                {
                    "name": "G5",
                    "midi": 79,
                    "time": 117.50000000000003,
                    "velocity": 0.5354330708661418,
                    "duration": 0.041666666666671404
                },
                {
                    "name": "A5",
                    "midi": 81,
                    "time": 117.5416666666667,
                    "velocity": 0.47244094488188976,
                    "duration": 0.041666666666671404
                },
                {
                    "name": "G5",
                    "midi": 79,
                    "time": 117.58333333333337,
                    "velocity": 0.5354330708661418,
                    "duration": 0.041666666666671404
                },
                {
                    "name": "A5",
                    "midi": 81,
                    "time": 117.62500000000004,
                    "velocity": 0.48031496062992124,
                    "duration": 0.041666666666671404
                },
                {
                    "name": "G5",
                    "midi": 79,
                    "time": 117.66666666666671,
                    "velocity": 0.5354330708661418,
                    "duration": 0.041666666666671404
                },
                {
                    "name": "A5",
                    "midi": 81,
                    "time": 117.70833333333339,
                    "velocity": 0.48031496062992124,
                    "duration": 0.04166666666665719
                },
                {
                    "name": "G5",
                    "midi": 79,
                    "time": 117.74375000000005,
                    "velocity": 0.5354330708661418,
                    "duration": 0.04166666666665719
                },
                {
                    "name": "A5",
                    "midi": 81,
                    "time": 117.78645833333337,
                    "velocity": 0.47244094488188976,
                    "duration": 0.041666666666671404
                },
                {
                    "name": "G5",
                    "midi": 79,
                    "time": 117.82708333333338,
                    "velocity": 0.5354330708661418,
                    "duration": 0.041666666666671404
                },
                {
                    "name": "F5",
                    "midi": 77,
                    "time": 117.87187500000005,
                    "velocity": 0.49606299212598426,
                    "duration": 0.0625
                },
                {
                    "name": "G5",
                    "midi": 79,
                    "time": 117.93437500000005,
                    "velocity": 0.4881889763779528,
                    "duration": 0.0625
                },
                {
                    "name": "F5",
                    "midi": 77,
                    "time": 118.00000000000004,
                    "velocity": 0.5354330708661418,
                    "duration": 0.125
                },
                {
                    "name": "F4",
                    "midi": 65,
                    "time": 118.25000000000004,
                    "velocity": 0.31496062992125984,
                    "duration": 0.125
                },
                {
                    "name": "A4",
                    "midi": 69,
                    "time": 118.25000000000004,
                    "velocity": 0.3779527559055118,
                    "duration": 0.125
                },
                {
                    "name": "A4",
                    "midi": 69,
                    "time": 118.50000000000004,
                    "velocity": 0.3779527559055118,
                    "duration": 0.125
                },
                {
                    "name": "F4",
                    "midi": 65,
                    "time": 118.50000000000004,
                    "velocity": 0.31496062992125984,
                    "duration": 0.125
                },
                {
                    "name": "F4",
                    "midi": 65,
                    "time": 118.75000000000004,
                    "velocity": 0.31496062992125984,
                    "duration": 0.125
                },
                {
                    "name": "A4",
                    "midi": 69,
                    "time": 118.75000000000004,
                    "velocity": 0.3779527559055118,
                    "duration": 0.125
                },
                {
                    "name": "A#4",
                    "midi": 70,
                    "time": 119.00000000000004,
                    "velocity": 0.4094488188976378,
                    "duration": 0.0625
                },
                {
                    "name": "F4",
                    "midi": 65,
                    "time": 119.00000000000004,
                    "velocity": 0.3464566929133858,
                    "duration": 0.25
                },
                {
                    "name": "A4",
                    "midi": 69,
                    "time": 119.06250000000004,
                    "velocity": 0.3700787401574803,
                    "duration": 0.0625
                },
                {
                    "name": "G4",
                    "midi": 67,
                    "time": 119.12500000000004,
                    "velocity": 0.3700787401574803,
                    "duration": 0.0625
                },
                {
                    "name": "A4",
                    "midi": 69,
                    "time": 119.18750000000004,
                    "velocity": 0.3779527559055118,
                    "duration": 0.0625
                },
                {
                    "name": "A4",
                    "midi": 69,
                    "time": 119.25000000000004,
                    "velocity": 0.3464566929133858,
                    "duration": 0.25
                },
                {
                    "name": "C5",
                    "midi": 72,
                    "time": 119.25000000000004,
                    "velocity": 0.4094488188976378,
                    "duration": 0.25
                },
                {
                    "name": "F4",
                    "midi": 65,
                    "time": 119.50000000000004,
                    "velocity": 0.4015748031496063,
                    "duration": 0.25
                },
                {
                    "name": "A4",
                    "midi": 69,
                    "time": 119.50000000000004,
                    "velocity": 0.47244094488188976,
                    "duration": 0.25
                },
                {
                    "name": "D4",
                    "midi": 62,
                    "time": 119.75000000000004,
                    "velocity": 0.4330708661417323,
                    "duration": 0.25
                },
                {
                    "name": "F4",
                    "midi": 65,
                    "time": 119.75000000000004,
                    "velocity": 0.5196850393700787,
                    "duration": 0.25
                },
                {
                    "name": "D4",
                    "midi": 62,
                    "time": 120.00000000000004,
                    "velocity": 0.5669291338582677,
                    "duration": 0.625
                },
                {
                    "name": "A#3",
                    "midi": 58,
                    "time": 120.00000000000004,
                    "velocity": 0.47244094488188976,
                    "duration": 0.625
                },
                {
                    "name": "D4",
                    "midi": 62,
                    "time": 120.62500000000004,
                    "velocity": 0.4566929133858268,
                    "duration": 0.125
                },
                {
                    "name": "A#3",
                    "midi": 58,
                    "time": 120.62500000000004,
                    "velocity": 0.3858267716535433,
                    "duration": 0.125
                },
                {
                    "name": "E4",
                    "midi": 64,
                    "time": 120.75000000000004,
                    "velocity": 0.4566929133858268,
                    "duration": 0.125
                },
                {
                    "name": "C4",
                    "midi": 60,
                    "time": 120.75000000000004,
                    "velocity": 0.3858267716535433,
                    "duration": 0.125
                },
                {
                    "name": "F4",
                    "midi": 65,
                    "time": 120.87500000000004,
                    "velocity": 0.4566929133858268,
                    "duration": 0.11249999999999716
                },
                {
                    "name": "D4",
                    "midi": 62,
                    "time": 120.87500000000004,
                    "velocity": 0.3858267716535433,
                    "duration": 0.11249999999999716
                },
                {
                    "name": "D4",
                    "midi": 62,
                    "time": 121.00000000000004,
                    "velocity": 0.41732283464566927,
                    "duration": 0.125
                },
                {
                    "name": "F4",
                    "midi": 65,
                    "time": 121.00000000000004,
                    "velocity": 0.49606299212598426,
                    "duration": 0.125
                },
                {
                    "name": "C4",
                    "midi": 60,
                    "time": 121.12500000000004,
                    "velocity": 0.3937007874015748,
                    "duration": 0.125
                },
                {
                    "name": "E4",
                    "midi": 64,
                    "time": 121.12500000000004,
                    "velocity": 0.4645669291338583,
                    "duration": 0.125
                },
                {
                    "name": "D4",
                    "midi": 62,
                    "time": 121.25000000000004,
                    "velocity": 0.4645669291338583,
                    "duration": 0.125
                },
                {
                    "name": "A#3",
                    "midi": 58,
                    "time": 121.25000000000004,
                    "velocity": 0.3937007874015748,
                    "duration": 0.125
                },
                {
                    "name": "C4",
                    "midi": 60,
                    "time": 121.37500000000004,
                    "velocity": 0.4645669291338583,
                    "duration": 0.11249999999999716
                },
                {
                    "name": "A3",
                    "midi": 57,
                    "time": 121.37500000000004,
                    "velocity": 0.3937007874015748,
                    "duration": 0.11249999999999716
                },
                {
                    "name": "A3",
                    "midi": 57,
                    "time": 121.50000000000004,
                    "velocity": 0.41732283464566927,
                    "duration": 0.125
                },
                {
                    "name": "C4",
                    "midi": 60,
                    "time": 121.50000000000004,
                    "velocity": 0.49606299212598426,
                    "duration": 0.125
                },
                {
                    "name": "G3",
                    "midi": 55,
                    "time": 121.62500000000004,
                    "velocity": 0.3543307086614173,
                    "duration": 0.125
                },
                {
                    "name": "A#3",
                    "midi": 58,
                    "time": 121.62500000000004,
                    "velocity": 0.41732283464566927,
                    "duration": 0.125
                },
                {
                    "name": "F3",
                    "midi": 53,
                    "time": 121.75000000000004,
                    "velocity": 0.3543307086614173,
                    "duration": 0.125
                },
                {
                    "name": "A3",
                    "midi": 57,
                    "time": 121.75000000000004,
                    "velocity": 0.41732283464566927,
                    "duration": 0.125
                },
                {
                    "name": "E3",
                    "midi": 52,
                    "time": 121.87500000000004,
                    "velocity": 0.3543307086614173,
                    "duration": 0.125
                },
                {
                    "name": "G3",
                    "midi": 55,
                    "time": 121.87500000000004,
                    "velocity": 0.41732283464566927,
                    "duration": 0.125
                },
                {
                    "name": "F4",
                    "midi": 65,
                    "time": 122.25000000000004,
                    "velocity": 0.3937007874015748,
                    "duration": 0.0833333333333286
                },
                {
                    "name": "A4",
                    "midi": 69,
                    "time": 122.33333333333337,
                    "velocity": 0.36220472440944884,
                    "duration": 0.0833333333333286
                },
                {
                    "name": "F5",
                    "midi": 77,
                    "time": 122.4166666666667,
                    "velocity": 0.36220472440944884,
                    "duration": 0.0833333333333286
                },
                {
                    "name": "F4",
                    "midi": 65,
                    "time": 122.50000000000003,
                    "velocity": 0.4094488188976378,
                    "duration": 0.0833333333333286
                },
                {
                    "name": "A4",
                    "midi": 69,
                    "time": 122.58333333333336,
                    "velocity": 0.36220472440944884,
                    "duration": 0.0833333333333286
                },
                {
                    "name": "F5",
                    "midi": 77,
                    "time": 122.66666666666669,
                    "velocity": 0.36220472440944884,
                    "duration": 0.0833333333333286
                },
                {
                    "name": "F4",
                    "midi": 65,
                    "time": 122.75000000000001,
                    "velocity": 0.4251968503937008,
                    "duration": 0.0833333333333286
                },
                {
                    "name": "A4",
                    "midi": 69,
                    "time": 122.83333333333334,
                    "velocity": 0.3700787401574803,
                    "duration": 0.0833333333333286
                },
                {
                    "name": "F5",
                    "midi": 77,
                    "time": 122.91666666666667,
                    "velocity": 0.3700787401574803,
                    "duration": 0.0833333333333286
                },
                {
                    "name": "F4",
                    "midi": 65,
                    "time": 123,
                    "velocity": 0.47244094488188976,
                    "duration": 0.0833333333333286
                },
                {
                    "name": "A4",
                    "midi": 69,
                    "time": 123.08333333333333,
                    "velocity": 0.4094488188976378,
                    "duration": 0.0833333333333286
                },
                {
                    "name": "F5",
                    "midi": 77,
                    "time": 123.16666666666666,
                    "velocity": 0.4251968503937008,
                    "duration": 0.0833333333333286
                },
                {
                    "name": "A4",
                    "midi": 69,
                    "time": 123.24999999999999,
                    "velocity": 0.5118110236220472,
                    "duration": 0.0833333333333286
                },
                {
                    "name": "C5",
                    "midi": 72,
                    "time": 123.33333333333331,
                    "velocity": 0.4566929133858268,
                    "duration": 0.0833333333333286
                },
                {
                    "name": "A5",
                    "midi": 81,
                    "time": 123.41666666666664,
                    "velocity": 0.48031496062992124,
                    "duration": 0.0833333333333286
                },
                {
                    "name": "F4",
                    "midi": 65,
                    "time": 123.49999999999997,
                    "velocity": 0.5433070866141733,
                    "duration": 0.0833333333333286
                },
                {
                    "name": "A4",
                    "midi": 69,
                    "time": 123.5833333333333,
                    "velocity": 0.4881889763779528,
                    "duration": 0.0833333333333286
                },
                {
                    "name": "F5",
                    "midi": 77,
                    "time": 123.66666666666663,
                    "velocity": 0.5118110236220472,
                    "duration": 0.0833333333333286
                },
                {
                    "name": "D4",
                    "midi": 62,
                    "time": 123.74999999999996,
                    "velocity": 0.5984251968503937,
                    "duration": 0.0833333333333286
                },
                {
                    "name": "F4",
                    "midi": 65,
                    "time": 123.83333333333329,
                    "velocity": 0.5196850393700787,
                    "duration": 0.0833333333333286
                },
                {
                    "name": "D5",
                    "midi": 74,
                    "time": 123.91666666666661,
                    "velocity": 0.5433070866141733,
                    "duration": 0.0833333333333286
                },
                {
                    "name": "A#3",
                    "midi": 58,
                    "time": 123.99999999999994,
                    "velocity": 0.6299212598425197,
                    "duration": 0.625
                },
                {
                    "name": "D5",
                    "midi": 74,
                    "time": 124.62499999999994,
                    "velocity": 0.4409448818897638,
                    "duration": 0.125
                },
                {
                    "name": "F5",
                    "midi": 77,
                    "time": 124.62499999999994,
                    "velocity": 0.5196850393700787,
                    "duration": 0.125
                },
                {
                    "name": "E5",
                    "midi": 76,
                    "time": 124.74999999999994,
                    "velocity": 0.5354330708661418,
                    "duration": 0.125
                },
                {
                    "name": "C5",
                    "midi": 72,
                    "time": 124.74999999999994,
                    "velocity": 0.44881889763779526,
                    "duration": 0.125
                },
                {
                    "name": "A#4",
                    "midi": 70,
                    "time": 124.87499999999994,
                    "velocity": 0.41732283464566927,
                    "duration": 0.11249999999999716
                },
                {
                    "name": "D5",
                    "midi": 74,
                    "time": 124.87499999999994,
                    "velocity": 0.49606299212598426,
                    "duration": 0.11249999999999716
                },
                {
                    "name": "A#4",
                    "midi": 70,
                    "time": 124.99999999999994,
                    "velocity": 0.4409448818897638,
                    "duration": 0.125
                },
                {
                    "name": "D5",
                    "midi": 74,
                    "time": 124.99999999999994,
                    "velocity": 0.5275590551181102,
                    "duration": 0.125
                },
                {
                    "name": "A4",
                    "midi": 69,
                    "time": 125.12499999999994,
                    "velocity": 0.4330708661417323,
                    "duration": 0.125
                },
                {
                    "name": "C5",
                    "midi": 72,
                    "time": 125.12499999999994,
                    "velocity": 0.5118110236220472,
                    "duration": 0.125
                },
                {
                    "name": "G4",
                    "midi": 67,
                    "time": 125.24999999999994,
                    "velocity": 0.41732283464566927,
                    "duration": 0.125
                },
                {
                    "name": "A#4",
                    "midi": 70,
                    "time": 125.24999999999994,
                    "velocity": 0.49606299212598426,
                    "duration": 0.125
                },
                {
                    "name": "A4",
                    "midi": 69,
                    "time": 125.37499999999994,
                    "velocity": 0.48031496062992124,
                    "duration": 0.11249999999999716
                },
                {
                    "name": "F4",
                    "midi": 65,
                    "time": 125.37499999999994,
                    "velocity": 0.4015748031496063,
                    "duration": 0.11249999999999716
                },
                {
                    "name": "A4",
                    "midi": 69,
                    "time": 125.49999999999994,
                    "velocity": 0.49606299212598426,
                    "duration": 0.125
                },
                {
                    "name": "G4",
                    "midi": 67,
                    "time": 125.62499999999994,
                    "velocity": 0.4409448818897638,
                    "duration": 0.125
                },
                {
                    "name": "F4",
                    "midi": 65,
                    "time": 125.74999999999994,
                    "velocity": 0.4409448818897638,
                    "duration": 0.125
                },
                {
                    "name": "A#3",
                    "midi": 58,
                    "time": 125.87499999999994,
                    "velocity": 0.3700787401574803,
                    "duration": 0.11249999999999716
                },
                {
                    "name": "E4",
                    "midi": 64,
                    "time": 125.87499999999994,
                    "velocity": 0.4409448818897638,
                    "duration": 0.11249999999999716
                },
                {
                    "name": "A#3",
                    "midi": 58,
                    "time": 125.99999999999994,
                    "velocity": 0.4645669291338583,
                    "duration": 0.953125
                },
                {
                    "name": "E4",
                    "midi": 64,
                    "time": 125.99999999999994,
                    "velocity": 0.4645669291338583,
                    "duration": 0.953125
                },
                {
                    "name": "A3",
                    "midi": 57,
                    "time": 126.99999999999994,
                    "velocity": 0.4094488188976378,
                    "duration": 0.25
                },
                {
                    "name": "F4",
                    "midi": 65,
                    "time": 126.99999999999994,
                    "velocity": 0.4094488188976378,
                    "duration": 0.25
                },
                {
                    "name": "C4",
                    "midi": 60,
                    "time": 126.99999999999994,
                    "velocity": 0.4094488188976378,
                    "duration": 0.25
                },
                {
                    "name": "C5",
                    "midi": 72,
                    "time": 127.99999999999994,
                    "velocity": 0.47244094488188976,
                    "duration": 0.375
                },
                {
                    "name": "G4",
                    "midi": 67,
                    "time": 127.99999999999994,
                    "velocity": 0.4015748031496063,
                    "duration": 0.125
                },
                {
                    "name": "E4",
                    "midi": 64,
                    "time": 127.99999999999994,
                    "velocity": 0.4015748031496063,
                    "duration": 0.125
                },
                {
                    "name": "G4",
                    "midi": 67,
                    "time": 128.37499999999994,
                    "velocity": 0.4409448818897638,
                    "duration": 0.125
                },
                {
                    "name": "F5",
                    "midi": 77,
                    "time": 128.49999999999994,
                    "velocity": 0.47244094488188976,
                    "duration": 0.125
                },
                {
                    "name": "E5",
                    "midi": 76,
                    "time": 128.62499999999994,
                    "velocity": 0.4251968503937008,
                    "duration": 0.125
                },
                {
                    "name": "D5",
                    "midi": 74,
                    "time": 128.74999999999994,
                    "velocity": 0.4251968503937008,
                    "duration": 0.125
                },
                {
                    "name": "C5",
                    "midi": 72,
                    "time": 128.87499999999994,
                    "velocity": 0.4251968503937008,
                    "duration": 0.125
                },
                {
                    "name": "G5",
                    "midi": 79,
                    "time": 128.99999999999994,
                    "velocity": 0.47244094488188976,
                    "duration": 0.125
                },
                {
                    "name": "F5",
                    "midi": 77,
                    "time": 129.99999999999994,
                    "velocity": 0.47244094488188976,
                    "duration": 0.375
                },
                {
                    "name": "C5",
                    "midi": 72,
                    "time": 130.37499999999994,
                    "velocity": 0.4409448818897638,
                    "duration": 0.125
                },
                {
                    "name": "A#5",
                    "midi": 82,
                    "time": 130.49999999999994,
                    "velocity": 0.47244094488188976,
                    "duration": 0.125
                },
                {
                    "name": "A5",
                    "midi": 81,
                    "time": 130.62499999999994,
                    "velocity": 0.4251968503937008,
                    "duration": 0.125
                },
                {
                    "name": "G5",
                    "midi": 79,
                    "time": 130.74999999999994,
                    "velocity": 0.4251968503937008,
                    "duration": 0.125
                },
                {
                    "name": "F5",
                    "midi": 77,
                    "time": 130.87499999999994,
                    "velocity": 0.4251968503937008,
                    "duration": 0.125
                },
                {
                    "name": "C6",
                    "midi": 84,
                    "time": 130.99999999999994,
                    "velocity": 0.47244094488188976,
                    "duration": 0.125
                },
                {
                    "name": "B5",
                    "midi": 83,
                    "time": 131.87499999999994,
                    "velocity": 0.47244094488188976,
                    "duration": 0.04166666666665719
                },
                {
                    "name": "C6",
                    "midi": 84,
                    "time": 131.9166666666666,
                    "velocity": 0.4881889763779528,
                    "duration": 0.04166666666665719
                },
                {
                    "name": "D6",
                    "midi": 86,
                    "time": 131.95937499999994,
                    "velocity": 0.5039370078740157,
                    "duration": 0.041666666666685614
                },
                {
                    "name": "C6",
                    "midi": 84,
                    "time": 131.99999999999994,
                    "velocity": 0.5275590551181102,
                    "duration": 0.875
                },
                {
                    "name": "A#5",
                    "midi": 82,
                    "time": 132.87499999999994,
                    "velocity": 0.47244094488188976,
                    "duration": 0.04166666666665719
                },
                {
                    "name": "A5",
                    "midi": 81,
                    "time": 132.9166666666666,
                    "velocity": 0.47244094488188976,
                    "duration": 0.04166666666665719
                },
                {
                    "name": "G5",
                    "midi": 79,
                    "time": 132.95937499999994,
                    "velocity": 0.47244094488188976,
                    "duration": 0.041666666666685614
                },
                {
                    "name": "F#5",
                    "midi": 78,
                    "time": 132.99999999999994,
                    "velocity": 0.5354330708661418,
                    "duration": 0.125
                },
                {
                    "name": "D#5",
                    "midi": 75,
                    "time": 133.12499999999994,
                    "velocity": 0.49606299212598426,
                    "duration": 0.125
                },
                {
                    "name": "D5",
                    "midi": 74,
                    "time": 133.24999999999994,
                    "velocity": 0.49606299212598426,
                    "duration": 0.125
                },
                {
                    "name": "C5",
                    "midi": 72,
                    "time": 133.37499999999994,
                    "velocity": 0.5039370078740157,
                    "duration": 0.125
                },
                {
                    "name": "A#4",
                    "midi": 70,
                    "time": 133.49999999999994,
                    "velocity": 0.5354330708661418,
                    "duration": 0.125
                },
                {
                    "name": "A4",
                    "midi": 69,
                    "time": 133.62499999999994,
                    "velocity": 0.5511811023622047,
                    "duration": 0.125
                },
                {
                    "name": "G4",
                    "midi": 67,
                    "time": 133.74999999999994,
                    "velocity": 0.5590551181102362,
                    "duration": 0.125
                },
                {
                    "name": "F#4",
                    "midi": 66,
                    "time": 133.87499999999994,
                    "velocity": 0.5748031496062992,
                    "duration": 0.125
                },
                {
                    "name": "G4",
                    "midi": 67,
                    "time": 133.99999999999994,
                    "velocity": 0.5826771653543307,
                    "duration": 0.11979166666665719
                },
                {
                    "name": "A#4",
                    "midi": 70,
                    "time": 134.24999999999994,
                    "velocity": 0.6062992125984252,
                    "duration": 0.125
                },
                {
                    "name": "D5",
                    "midi": 74,
                    "time": 134.49999999999994,
                    "velocity": 0.6456692913385826,
                    "duration": 0.125
                },
                {
                    "name": "G5",
                    "midi": 79,
                    "time": 134.74999999999994,
                    "velocity": 0.6614173228346457,
                    "duration": 0.125
                },
                {
                    "name": "A#5",
                    "midi": 82,
                    "time": 134.99999999999994,
                    "velocity": 0.6771653543307087,
                    "duration": 0.125
                },
                {
                    "name": "D6",
                    "midi": 86,
                    "time": 135.99999999999994,
                    "velocity": 0.7086614173228346,
                    "duration": 0.125
                },
                {
                    "name": "D6",
                    "midi": 86,
                    "time": 136.24999999999994,
                    "velocity": 0.7086614173228346,
                    "duration": 0.5
                },
                {
                    "name": "C6",
                    "midi": 84,
                    "time": 136.74999999999994,
                    "velocity": 0.5669291338582677,
                    "duration": 0.0625
                },
                {
                    "name": "A#5",
                    "midi": 82,
                    "time": 136.81249999999994,
                    "velocity": 0.5748031496062992,
                    "duration": 0.0625
                },
                {
                    "name": "A5",
                    "midi": 81,
                    "time": 136.87499999999994,
                    "velocity": 0.5826771653543307,
                    "duration": 0.0625
                },
                {
                    "name": "G5",
                    "midi": 79,
                    "time": 136.93749999999994,
                    "velocity": 0.5826771653543307,
                    "duration": 0.0625
                },
                {
                    "name": "C6",
                    "midi": 84,
                    "time": 136.99999999999994,
                    "velocity": 0.6614173228346457,
                    "duration": 0.125
                },
                {
                    "name": "C6",
                    "midi": 84,
                    "time": 137.24999999999994,
                    "velocity": 0.6614173228346457,
                    "duration": 0.5
                },
                {
                    "name": "A#5",
                    "midi": 82,
                    "time": 137.74999999999994,
                    "velocity": 0.5511811023622047,
                    "duration": 0.0625
                },
                {
                    "name": "A5",
                    "midi": 81,
                    "time": 137.81249999999994,
                    "velocity": 0.5669291338582677,
                    "duration": 0.0625
                },
                {
                    "name": "G5",
                    "midi": 79,
                    "time": 137.87499999999994,
                    "velocity": 0.5748031496062992,
                    "duration": 0.0625
                },
                {
                    "name": "F5",
                    "midi": 77,
                    "time": 137.93749999999994,
                    "velocity": 0.5905511811023622,
                    "duration": 0.0625
                },
                {
                    "name": "C6",
                    "midi": 84,
                    "time": 137.99999999999994,
                    "velocity": 0.6062992125984252,
                    "duration": 0.125
                },
                {
                    "name": "A#5",
                    "midi": 82,
                    "time": 138.12499999999994,
                    "velocity": 0.5354330708661418,
                    "duration": 0.09375
                },
                {
                    "name": "A#5",
                    "midi": 82,
                    "time": 138.24999999999994,
                    "velocity": 0.5669291338582677,
                    "duration": 0.125
                },
                {
                    "name": "A5",
                    "midi": 81,
                    "time": 138.37499999999994,
                    "velocity": 0.5275590551181102,
                    "duration": 0.09375
                },
                {
                    "name": "A5",
                    "midi": 81,
                    "time": 138.49999999999994,
                    "velocity": 0.5669291338582677,
                    "duration": 0.25
                },
                {
                    "name": "C6",
                    "midi": 84,
                    "time": 138.99999999999994,
                    "velocity": 0.48031496062992124,
                    "duration": 0.125
                },
                {
                    "name": "A#5",
                    "midi": 82,
                    "time": 139.12499999999994,
                    "velocity": 0.44881889763779526,
                    "duration": 0.09375
                },
                {
                    "name": "A#5",
                    "midi": 82,
                    "time": 139.24999999999994,
                    "velocity": 0.48031496062992124,
                    "duration": 0.125
                },
                {
                    "name": "A5",
                    "midi": 81,
                    "time": 139.37499999999994,
                    "velocity": 0.4251968503937008,
                    "duration": 0.09375
                },
                {
                    "name": "A5",
                    "midi": 81,
                    "time": 139.49999999999994,
                    "velocity": 0.47244094488188976,
                    "duration": 0.25
                },
                {
                    "name": "C6",
                    "midi": 84,
                    "time": 139.99999999999994,
                    "velocity": 0.5433070866141733,
                    "duration": 0.03125
                },
                {
                    "name": "D6",
                    "midi": 86,
                    "time": 140.03124999999994,
                    "velocity": 0.49606299212598426,
                    "duration": 0.03125
                },
                {
                    "name": "C6",
                    "midi": 84,
                    "time": 140.06249999999994,
                    "velocity": 0.5433070866141733,
                    "duration": 0.03125
                },
                {
                    "name": "D6",
                    "midi": 86,
                    "time": 140.09374999999994,
                    "velocity": 0.48031496062992124,
                    "duration": 0.03125
                },
                {
                    "name": "A#5",
                    "midi": 82,
                    "time": 140.12499999999994,
                    "velocity": 0.5354330708661418,
                    "duration": 0.09375
                },
                {
                    "name": "A#5",
                    "midi": 82,
                    "time": 140.24999999999994,
                    "velocity": 0.5354330708661418,
                    "duration": 0.03125
                },
                {
                    "name": "C6",
                    "midi": 84,
                    "time": 140.28124999999994,
                    "velocity": 0.48031496062992124,
                    "duration": 0.03125
                },
                {
                    "name": "A#5",
                    "midi": 82,
                    "time": 140.31249999999994,
                    "velocity": 0.5354330708661418,
                    "duration": 0.03125
                },
                {
                    "name": "C6",
                    "midi": 84,
                    "time": 140.34374999999994,
                    "velocity": 0.4881889763779528,
                    "duration": 0.03125
                },
                {
                    "name": "A5",
                    "midi": 81,
                    "time": 140.37499999999994,
                    "velocity": 0.5275590551181102,
                    "duration": 0.09375
                },
                {
                    "name": "A5",
                    "midi": 81,
                    "time": 140.49999999999994,
                    "velocity": 0.5669291338582677,
                    "duration": 0.25
                },
                {
                    "name": "A#5",
                    "midi": 82,
                    "time": 140.96874999999994,
                    "velocity": 0.4881889763779528,
                    "duration": 0.03125
                },
                {
                    "name": "A5",
                    "midi": 81,
                    "time": 140.99999999999994,
                    "velocity": 0.5511811023622047,
                    "duration": 0.125
                },
                {
                    "name": "G5",
                    "midi": 79,
                    "time": 141.12499999999994,
                    "velocity": 0.5118110236220472,
                    "duration": 0.09375
                },
                {
                    "name": "A5",
                    "midi": 81,
                    "time": 141.21874999999994,
                    "velocity": 0.4881889763779528,
                    "duration": 0.03125
                },
                {
                    "name": "G5",
                    "midi": 79,
                    "time": 141.24999999999994,
                    "velocity": 0.5511811023622047,
                    "duration": 0.125
                },
                {
                    "name": "F5",
                    "midi": 77,
                    "time": 141.37499999999994,
                    "velocity": 0.4881889763779528,
                    "duration": 0.09375
                },
                {
                    "name": "F5",
                    "midi": 77,
                    "time": 141.49999999999994,
                    "velocity": 0.5433070866141733,
                    "duration": 0.25
                },
                {
                    "name": "F5",
                    "midi": 77,
                    "time": 141.99999999999994,
                    "velocity": 0.5118110236220472,
                    "duration": 0.125
                },
                {
                    "name": "E5",
                    "midi": 76,
                    "time": 142.12499999999994,
                    "velocity": 0.44881889763779526,
                    "duration": 0.125
                },
                {
                    "name": "D5",
                    "midi": 74,
                    "time": 142.24999999999994,
                    "velocity": 0.48031496062992124,
                    "duration": 0.125
                },
                {
                    "name": "C5",
                    "midi": 72,
                    "time": 142.37499999999994,
                    "velocity": 0.4251968503937008,
                    "duration": 0.09375
                },
                {
                    "name": "C5",
                    "midi": 72,
                    "time": 142.49999999999994,
                    "velocity": 0.47244094488188976,
                    "duration": 0.25
                },
                {
                    "name": "C5",
                    "midi": 72,
                    "time": 142.74999999999994,
                    "velocity": 0.4251968503937008,
                    "duration": 0.25
                },
                {
                    "name": "D5",
                    "midi": 74,
                    "time": 142.99999999999994,
                    "velocity": 0.4251968503937008,
                    "duration": 0.0625
                },
                {
                    "name": "C5",
                    "midi": 72,
                    "time": 143.06249999999994,
                    "velocity": 0.4251968503937008,
                    "duration": 0.0625
                },
                {
                    "name": "B4",
                    "midi": 71,
                    "time": 143.12499999999994,
                    "velocity": 0.4251968503937008,
                    "duration": 0.0625
                },
                {
                    "name": "C5",
                    "midi": 72,
                    "time": 143.18749999999994,
                    "velocity": 0.47244094488188976,
                    "duration": 0.2083333333333428
                },
                {
                    "name": "C5",
                    "midi": 72,
                    "time": 143.99999999999994,
                    "velocity": 0.47244094488188976,
                    "duration": 0.5
                },
                {
                    "name": "A#4",
                    "midi": 70,
                    "time": 144.49999999999994,
                    "velocity": 0.4330708661417323,
                    "duration": 0.125
                },
                {
                    "name": "A4",
                    "midi": 69,
                    "time": 144.62499999999994,
                    "velocity": 0.3937007874015748,
                    "duration": 0.125
                },
                {
                    "name": "G4",
                    "midi": 67,
                    "time": 144.74999999999994,
                    "velocity": 0.4330708661417323,
                    "duration": 0.125
                },
                {
                    "name": "F4",
                    "midi": 65,
                    "time": 144.87499999999994,
                    "velocity": 0.3858267716535433,
                    "duration": 0.09375
                },
                {
                    "name": "F4",
                    "midi": 65,
                    "time": 144.99999999999994,
                    "velocity": 0.4330708661417323,
                    "duration": 0.5
                },
                {
                    "name": "E4",
                    "midi": 64,
                    "time": 145.49999999999994,
                    "velocity": 0.4330708661417323,
                    "duration": 0.0625
                },
                {
                    "name": "F4",
                    "midi": 65,
                    "time": 145.56249999999994,
                    "velocity": 0.4015748031496063,
                    "duration": 0.0625
                },
                {
                    "name": "E4",
                    "midi": 64,
                    "time": 145.62499999999994,
                    "velocity": 0.44881889763779526,
                    "duration": 0.25
                },
                {
                    "name": "E4",
                    "midi": 64,
                    "time": 145.87499999999994,
                    "velocity": 0.4015748031496063,
                    "duration": 0.125
                },
                {
                    "name": "F4",
                    "midi": 65,
                    "time": 145.99999999999994,
                    "velocity": 0.4330708661417323,
                    "duration": 0.125
                },
                {
                    "name": "G4",
                    "midi": 67,
                    "time": 146.12499999999994,
                    "velocity": 0.4094488188976378,
                    "duration": 0.125
                },
                {
                    "name": "A4",
                    "midi": 69,
                    "time": 146.24999999999994,
                    "velocity": 0.4251968503937008,
                    "duration": 0.125
                },
                {
                    "name": "A#4",
                    "midi": 70,
                    "time": 146.37499999999994,
                    "velocity": 0.4330708661417323,
                    "duration": 0.125
                },
                {
                    "name": "C5",
                    "midi": 72,
                    "time": 146.49999999999994,
                    "velocity": 0.4645669291338583,
                    "duration": 0.125
                },
                {
                    "name": "D5",
                    "midi": 74,
                    "time": 146.62499999999994,
                    "velocity": 0.48031496062992124,
                    "duration": 0.125
                },
                {
                    "name": "E5",
                    "midi": 76,
                    "time": 146.74999999999994,
                    "velocity": 0.5039370078740157,
                    "duration": 0.125
                },
                {
                    "name": "F5",
                    "midi": 77,
                    "time": 146.87499999999994,
                    "velocity": 0.5196850393700787,
                    "duration": 0.09375
                },
                {
                    "name": "F5",
                    "midi": 77,
                    "time": 146.99999999999994,
                    "velocity": 0.5196850393700787,
                    "duration": 0.125
                },
                {
                    "name": "E5",
                    "midi": 76,
                    "time": 147.12499999999994,
                    "velocity": 0.5039370078740157,
                    "duration": 0.125
                },
                {
                    "name": "D5",
                    "midi": 74,
                    "time": 147.24999999999994,
                    "velocity": 0.48031496062992124,
                    "duration": 0.0625
                },
                {
                    "name": "C5",
                    "midi": 72,
                    "time": 147.37499999999994,
                    "velocity": 0.4645669291338583,
                    "duration": 0.0625
                },
                {
                    "name": "C5",
                    "midi": 72,
                    "time": 147.49999999999994,
                    "velocity": 0.44881889763779526,
                    "duration": 0.125
                },
                {
                    "name": "A#4",
                    "midi": 70,
                    "time": 147.62499999999994,
                    "velocity": 0.4330708661417323,
                    "duration": 0.125
                },
                {
                    "name": "A4",
                    "midi": 69,
                    "time": 147.74999999999994,
                    "velocity": 0.4094488188976378,
                    "duration": 0.0625
                },
                {
                    "name": "G4",
                    "midi": 67,
                    "time": 147.87499999999994,
                    "velocity": 0.3937007874015748,
                    "duration": 0.0625
                },
                {
                    "name": "C6",
                    "midi": 84,
                    "time": 147.99999999999994,
                    "velocity": 0.5669291338582677,
                    "duration": 0.375
                },
                {
                    "name": "D6",
                    "midi": 86,
                    "time": 148.37499999999994,
                    "velocity": 0.5039370078740157,
                    "duration": 0.0625
                },
                {
                    "name": "C6",
                    "midi": 84,
                    "time": 148.43749999999994,
                    "velocity": 0.47244094488188976,
                    "duration": 0.0625
                },
                {
                    "name": "A#5",
                    "midi": 82,
                    "time": 148.49999999999994,
                    "velocity": 0.5354330708661418,
                    "duration": 0.125
                },
                {
                    "name": "A5",
                    "midi": 81,
                    "time": 148.62499999999994,
                    "velocity": 0.47244094488188976,
                    "duration": 0.125
                },
                {
                    "name": "G5",
                    "midi": 79,
                    "time": 148.74999999999994,
                    "velocity": 0.4881889763779528,
                    "duration": 0.125
                },
                {
                    "name": "F5",
                    "midi": 77,
                    "time": 148.87499999999994,
                    "velocity": 0.47244094488188976,
                    "duration": 0.09375
                },
                {
                    "name": "F5",
                    "midi": 77,
                    "time": 148.99999999999994,
                    "velocity": 0.5511811023622047,
                    "duration": 0.5
                },
                {
                    "name": "E5",
                    "midi": 76,
                    "time": 149.49999999999994,
                    "velocity": 0.47244094488188976,
                    "duration": 0.0625
                },
                {
                    "name": "F5",
                    "midi": 77,
                    "time": 149.56249999999994,
                    "velocity": 0.4409448818897638,
                    "duration": 0.0625
                },
                {
                    "name": "E5",
                    "midi": 76,
                    "time": 149.62499999999994,
                    "velocity": 0.47244094488188976,
                    "duration": 0.25
                },
                {
                    "name": "A#5",
                    "midi": 82,
                    "time": 149.87499999999994,
                    "velocity": 0.44881889763779526,
                    "duration": 0.125
                },
                {
                    "name": "A5",
                    "midi": 81,
                    "time": 149.99999999999994,
                    "velocity": 0.5196850393700787,
                    "duration": 0.0625
                },
                {
                    "name": "A#5",
                    "midi": 82,
                    "time": 150.12499999999994,
                    "velocity": 0.47244094488188976,
                    "duration": 0.0625
                },
                {
                    "name": "C6",
                    "midi": 84,
                    "time": 150.24999999999994,
                    "velocity": 0.5196850393700787,
                    "duration": 0.0625
                },
                {
                    "name": "D6",
                    "midi": 86,
                    "time": 150.37499999999994,
                    "velocity": 0.5275590551181102,
                    "duration": 0.0625
                },
                {
                    "name": "E6",
                    "midi": 88,
                    "time": 150.49999999999994,
                    "velocity": 0.6062992125984252,
                    "duration": 0.0625
                },
                {
                    "name": "F6",
                    "midi": 89,
                    "time": 150.62499999999994,
                    "velocity": 0.5590551181102362,
                    "duration": 0.0625
                },
                {
                    "name": "E6",
                    "midi": 88,
                    "time": 150.74999999999994,
                    "velocity": 0.5826771653543307,
                    "duration": 0.0625
                },
                {
                    "name": "F6",
                    "midi": 89,
                    "time": 150.87499999999994,
                    "velocity": 0.5669291338582677,
                    "duration": 0.0625
                },
                {
                    "name": "F6",
                    "midi": 89,
                    "time": 150.99999999999994,
                    "velocity": 0.6299212598425197,
                    "duration": 0.125
                },
                {
                    "name": "E6",
                    "midi": 88,
                    "time": 151.12499999999994,
                    "velocity": 0.5669291338582677,
                    "duration": 0.125
                },
                {
                    "name": "D6",
                    "midi": 86,
                    "time": 151.24999999999994,
                    "velocity": 0.5748031496062992,
                    "duration": 0.125
                },
                {
                    "name": "C6",
                    "midi": 84,
                    "time": 151.37499999999994,
                    "velocity": 0.5511811023622047,
                    "duration": 0.09375
                },
                {
                    "name": "C6",
                    "midi": 84,
                    "time": 151.49999999999994,
                    "velocity": 0.5905511811023622,
                    "duration": 0.125
                },
                {
                    "name": "A#5",
                    "midi": 82,
                    "time": 151.62499999999994,
                    "velocity": 0.5511811023622047,
                    "duration": 0.125
                },
                {
                    "name": "A5",
                    "midi": 81,
                    "time": 151.74999999999994,
                    "velocity": 0.5354330708661418,
                    "duration": 0.125
                },
                {
                    "name": "G5",
                    "midi": 79,
                    "time": 151.87499999999994,
                    "velocity": 0.5275590551181102,
                    "duration": 0.125
                },
                {
                    "name": "A5",
                    "midi": 81,
                    "time": 151.99999999999994,
                    "velocity": 0.5354330708661418,
                    "duration": 0.125
                },
                {
                    "name": "A#5",
                    "midi": 82,
                    "time": 152.12499999999994,
                    "velocity": 0.5354330708661418,
                    "duration": 0.125
                },
                {
                    "name": "A5",
                    "midi": 81,
                    "time": 152.24999999999994,
                    "velocity": 0.5905511811023622,
                    "duration": 0.125
                },
                {
                    "name": "A#5",
                    "midi": 82,
                    "time": 152.37499999999994,
                    "velocity": 0.5826771653543307,
                    "duration": 0.125
                },
                {
                    "name": "C6",
                    "midi": 84,
                    "time": 152.49999999999994,
                    "velocity": 0.6535433070866141,
                    "duration": 0.125
                },
                {
                    "name": "D6",
                    "midi": 86,
                    "time": 152.62499999999994,
                    "velocity": 0.6377952755905512,
                    "duration": 0.125
                },
                {
                    "name": "C6",
                    "midi": 84,
                    "time": 152.74999999999994,
                    "velocity": 0.7165354330708661,
                    "duration": 0.125
                },
                {
                    "name": "D6",
                    "midi": 86,
                    "time": 152.87499999999994,
                    "velocity": 0.6692913385826772,
                    "duration": 0.125
                },
                {
                    "name": "D#6",
                    "midi": 87,
                    "time": 152.99999999999994,
                    "velocity": 0.7637795275590551,
                    "duration": 1
                },
                {
                    "name": "D#5",
                    "midi": 75,
                    "time": 152.99999999999994,
                    "velocity": 0.6456692913385826,
                    "duration": 1
                },
                {
                    "name": "D6",
                    "midi": 86,
                    "time": 154.12499999999994,
                    "velocity": 0.5511811023622047,
                    "duration": 0.125
                },
                {
                    "name": "C#6",
                    "midi": 85,
                    "time": 154.24999999999994,
                    "velocity": 0.5905511811023622,
                    "duration": 0.125
                },
                {
                    "name": "D6",
                    "midi": 86,
                    "time": 154.37499999999994,
                    "velocity": 0.5354330708661418,
                    "duration": 0.125
                },
                {
                    "name": "C6",
                    "midi": 84,
                    "time": 154.62499999999994,
                    "velocity": 0.5275590551181102,
                    "duration": 0.125
                },
                {
                    "name": "B5",
                    "midi": 83,
                    "time": 154.74999999999994,
                    "velocity": 0.5984251968503937,
                    "duration": 0.125
                },
                {
                    "name": "C6",
                    "midi": 84,
                    "time": 154.87499999999994,
                    "velocity": 0.5275590551181102,
                    "duration": 0.125
                },
                {
                    "name": "B5",
                    "midi": 83,
                    "time": 155.12499999999994,
                    "velocity": 0.5511811023622047,
                    "duration": 0.125
                },
                {
                    "name": "B5",
                    "midi": 83,
                    "time": 155.24999999999994,
                    "velocity": 0.5433070866141733,
                    "duration": 0.0625
                },
                {
                    "name": "C6",
                    "midi": 84,
                    "time": 155.31249999999994,
                    "velocity": 0.49606299212598426,
                    "duration": 0.0625
                },
                {
                    "name": "B5",
                    "midi": 83,
                    "time": 155.37499999999994,
                    "velocity": 0.5354330708661418,
                    "duration": 0.125
                },
                {
                    "name": "A#5",
                    "midi": 82,
                    "time": 155.62499999999994,
                    "velocity": 0.5669291338582677,
                    "duration": 0.125
                },
                {
                    "name": "A#5",
                    "midi": 82,
                    "time": 155.74999999999994,
                    "velocity": 0.5669291338582677,
                    "duration": 0.0625
                },
                {
                    "name": "C6",
                    "midi": 84,
                    "time": 155.81249999999994,
                    "velocity": 0.5118110236220472,
                    "duration": 0.0625
                },
                {
                    "name": "A#5",
                    "midi": 82,
                    "time": 155.87499999999994,
                    "velocity": 0.5905511811023622,
                    "duration": 0.125
                },
                {
                    "name": "A5",
                    "midi": 81,
                    "time": 156.12499999999994,
                    "velocity": 0.5275590551181102,
                    "duration": 0.125
                },
                {
                    "name": "A#5",
                    "midi": 82,
                    "time": 156.24999999999994,
                    "velocity": 0.5511811023622047,
                    "duration": 0.125
                },
                {
                    "name": "C6",
                    "midi": 84,
                    "time": 156.37499999999994,
                    "velocity": 0.5669291338582677,
                    "duration": 0.09375
                },
                {
                    "name": "C6",
                    "midi": 84,
                    "time": 156.49999999999994,
                    "velocity": 0.5669291338582677,
                    "duration": 0.125
                },
                {
                    "name": "D5",
                    "midi": 74,
                    "time": 156.62499999999994,
                    "velocity": 0.5196850393700787,
                    "duration": 0.125
                },
                {
                    "name": "A#5",
                    "midi": 82,
                    "time": 156.74999999999994,
                    "velocity": 0.5669291338582677,
                    "duration": 0.125
                },
                {
                    "name": "G5",
                    "midi": 79,
                    "time": 156.87499999999994,
                    "velocity": 0.5118110236220472,
                    "duration": 0.125
                },
                {
                    "name": "F5",
                    "midi": 77,
                    "time": 156.99999999999994,
                    "velocity": 0.5669291338582677,
                    "duration": 0.5
                },
                {
                    "name": "E5",
                    "midi": 76,
                    "time": 157.49999999999994,
                    "velocity": 0.5354330708661418,
                    "duration": 0.04166666666665719
                },
                {
                    "name": "F5",
                    "midi": 77,
                    "time": 157.5416666666666,
                    "velocity": 0.47244094488188976,
                    "duration": 0.04166666666665719
                },
                {
                    "name": "E5",
                    "midi": 76,
                    "time": 157.58333333333326,
                    "velocity": 0.5354330708661418,
                    "duration": 0.04166666666665719
                },
                {
                    "name": "F5",
                    "midi": 77,
                    "time": 157.62499999999991,
                    "velocity": 0.48031496062992124,
                    "duration": 0.04166666666665719
                },
                {
                    "name": "E5",
                    "midi": 76,
                    "time": 157.66666666666657,
                    "velocity": 0.5354330708661418,
                    "duration": 0.04166666666665719
                },
                {
                    "name": "F5",
                    "midi": 77,
                    "time": 157.70833333333323,
                    "velocity": 0.48031496062992124,
                    "duration": 0.04166666666665719
                },
                {
                    "name": "E5",
                    "midi": 76,
                    "time": 157.7499999999999,
                    "velocity": 0.5354330708661418,
                    "duration": 0.25
                },
                {
                    "name": "C6",
                    "midi": 84,
                    "time": 158.1249999999999,
                    "velocity": 0.5669291338582677,
                    "duration": 0.125
                },
                {
                    "name": "A5",
                    "midi": 81,
                    "time": 158.2499999999999,
                    "velocity": 0.5905511811023622,
                    "duration": 0.125
                },
                {
                    "name": "F5",
                    "midi": 77,
                    "time": 158.3749999999999,
                    "velocity": 0.5275590551181102,
                    "duration": 0.125
                },
                {
                    "name": "D#5",
                    "midi": 75,
                    "time": 158.4999999999999,
                    "velocity": 0.6062992125984252,
                    "duration": 0.125
                },
                {
                    "name": "D5",
                    "midi": 74,
                    "time": 158.6249999999999,
                    "velocity": 0.5433070866141733,
                    "duration": 0.125
                },
                {
                    "name": "C#6",
                    "midi": 85,
                    "time": 158.7499999999999,
                    "velocity": 0.6456692913385826,
                    "duration": 0.125
                },
                {
                    "name": "D6",
                    "midi": 86,
                    "time": 158.8749999999999,
                    "velocity": 0.5984251968503937,
                    "duration": 0.125
                },
                {
                    "name": "F5",
                    "midi": 77,
                    "time": 158.9999999999999,
                    "velocity": 0.5905511811023622,
                    "duration": 0.5
                },
                {
                    "name": "G5",
                    "midi": 79,
                    "time": 159.4999999999999,
                    "velocity": 0.5354330708661418,
                    "duration": 0.04166666666665719
                },
                {
                    "name": "A5",
                    "midi": 81,
                    "time": 159.54166666666654,
                    "velocity": 0.47244094488188976,
                    "duration": 0.04166666666665719
                },
                {
                    "name": "G5",
                    "midi": 79,
                    "time": 159.5833333333332,
                    "velocity": 0.5354330708661418,
                    "duration": 0.04166666666665719
                },
                {
                    "name": "A5",
                    "midi": 81,
                    "time": 159.62499999999986,
                    "velocity": 0.48031496062992124,
                    "duration": 0.04166666666665719
                },
                {
                    "name": "G5",
                    "midi": 79,
                    "time": 159.66666666666652,
                    "velocity": 0.5354330708661418,
                    "duration": 0.04166666666665719
                },
                {
                    "name": "A5",
                    "midi": 81,
                    "time": 159.70833333333317,
                    "velocity": 0.48031496062992124,
                    "duration": 0.04166666666665719
                },
                {
                    "name": "G5",
                    "midi": 79,
                    "time": 159.74374999999984,
                    "velocity": 0.5354330708661418,
                    "duration": 0.04166666666665719
                },
                {
                    "name": "A5",
                    "midi": 81,
                    "time": 159.78645833333317,
                    "velocity": 0.47244094488188976,
                    "duration": 0.041666666666685614
                },
                {
                    "name": "G5",
                    "midi": 79,
                    "time": 159.82708333333318,
                    "velocity": 0.5354330708661418,
                    "duration": 0.041666666666685614
                },
                {
                    "name": "F5",
                    "midi": 77,
                    "time": 159.87187499999987,
                    "velocity": 0.49606299212598426,
                    "duration": 0.0625
                },
                {
                    "name": "G5",
                    "midi": 79,
                    "time": 159.93437499999987,
                    "velocity": 0.4881889763779528,
                    "duration": 0.0625
                },
                {
                    "name": "F5",
                    "midi": 77,
                    "time": 159.9999999999999,
                    "velocity": 0.5354330708661418,
                    "duration": 0.125
                },
                {
                    "name": "A4",
                    "midi": 69,
                    "time": 160.2499999999999,
                    "velocity": 0.3779527559055118,
                    "duration": 0.125
                },
                {
                    "name": "F4",
                    "midi": 65,
                    "time": 160.2499999999999,
                    "velocity": 0.31496062992125984,
                    "duration": 0.125
                },
                {
                    "name": "A4",
                    "midi": 69,
                    "time": 160.4999999999999,
                    "velocity": 0.3779527559055118,
                    "duration": 0.125
                },
                {
                    "name": "F4",
                    "midi": 65,
                    "time": 160.4999999999999,
                    "velocity": 0.31496062992125984,
                    "duration": 0.125
                },
                {
                    "name": "F4",
                    "midi": 65,
                    "time": 160.7499999999999,
                    "velocity": 0.31496062992125984,
                    "duration": 0.125
                },
                {
                    "name": "A4",
                    "midi": 69,
                    "time": 160.7499999999999,
                    "velocity": 0.3779527559055118,
                    "duration": 0.125
                },
                {
                    "name": "F4",
                    "midi": 65,
                    "time": 160.9999999999999,
                    "velocity": 0.3464566929133858,
                    "duration": 0.25
                },
                {
                    "name": "A#4",
                    "midi": 70,
                    "time": 160.9999999999999,
                    "velocity": 0.4094488188976378,
                    "duration": 0.0625
                },
                {
                    "name": "A4",
                    "midi": 69,
                    "time": 161.0624999999999,
                    "velocity": 0.3700787401574803,
                    "duration": 0.0625
                },
                {
                    "name": "G4",
                    "midi": 67,
                    "time": 161.1249999999999,
                    "velocity": 0.3700787401574803,
                    "duration": 0.0625
                },
                {
                    "name": "A4",
                    "midi": 69,
                    "time": 161.1874999999999,
                    "velocity": 0.3779527559055118,
                    "duration": 0.0625
                },
                {
                    "name": "A4",
                    "midi": 69,
                    "time": 161.2499999999999,
                    "velocity": 0.3464566929133858,
                    "duration": 0.25
                },
                {
                    "name": "C5",
                    "midi": 72,
                    "time": 161.2499999999999,
                    "velocity": 0.4094488188976378,
                    "duration": 0.25
                },
                {
                    "name": "F4",
                    "midi": 65,
                    "time": 161.4999999999999,
                    "velocity": 0.4015748031496063,
                    "duration": 0.25
                },
                {
                    "name": "A4",
                    "midi": 69,
                    "time": 161.4999999999999,
                    "velocity": 0.47244094488188976,
                    "duration": 0.25
                },
                {
                    "name": "F4",
                    "midi": 65,
                    "time": 161.7499999999999,
                    "velocity": 0.5196850393700787,
                    "duration": 0.25
                },
                {
                    "name": "D4",
                    "midi": 62,
                    "time": 161.7499999999999,
                    "velocity": 0.4330708661417323,
                    "duration": 0.25
                },
                {
                    "name": "D4",
                    "midi": 62,
                    "time": 161.9999999999999,
                    "velocity": 0.5669291338582677,
                    "duration": 0.625
                },
                {
                    "name": "A#3",
                    "midi": 58,
                    "time": 161.9999999999999,
                    "velocity": 0.47244094488188976,
                    "duration": 0.625
                },
                {
                    "name": "A#3",
                    "midi": 58,
                    "time": 162.6249999999999,
                    "velocity": 0.3858267716535433,
                    "duration": 0.125
                },
                {
                    "name": "D4",
                    "midi": 62,
                    "time": 162.6249999999999,
                    "velocity": 0.4566929133858268,
                    "duration": 0.125
                },
                {
                    "name": "E4",
                    "midi": 64,
                    "time": 162.7499999999999,
                    "velocity": 0.4566929133858268,
                    "duration": 0.125
                },
                {
                    "name": "C4",
                    "midi": 60,
                    "time": 162.7499999999999,
                    "velocity": 0.3858267716535433,
                    "duration": 0.125
                },
                {
                    "name": "F4",
                    "midi": 65,
                    "time": 162.8749999999999,
                    "velocity": 0.4566929133858268,
                    "duration": 0.11250000000001137
                },
                {
                    "name": "D4",
                    "midi": 62,
                    "time": 162.8749999999999,
                    "velocity": 0.3858267716535433,
                    "duration": 0.11250000000001137
                },
                {
                    "name": "F4",
                    "midi": 65,
                    "time": 162.9999999999999,
                    "velocity": 0.49606299212598426,
                    "duration": 0.125
                },
                {
                    "name": "D4",
                    "midi": 62,
                    "time": 162.9999999999999,
                    "velocity": 0.41732283464566927,
                    "duration": 0.125
                },
                {
                    "name": "E4",
                    "midi": 64,
                    "time": 163.1249999999999,
                    "velocity": 0.4645669291338583,
                    "duration": 0.125
                },
                {
                    "name": "C4",
                    "midi": 60,
                    "time": 163.1249999999999,
                    "velocity": 0.3937007874015748,
                    "duration": 0.125
                },
                {
                    "name": "D4",
                    "midi": 62,
                    "time": 163.2499999999999,
                    "velocity": 0.4645669291338583,
                    "duration": 0.125
                },
                {
                    "name": "A#3",
                    "midi": 58,
                    "time": 163.2499999999999,
                    "velocity": 0.3937007874015748,
                    "duration": 0.125
                },
                {
                    "name": "C4",
                    "midi": 60,
                    "time": 163.3749999999999,
                    "velocity": 0.4645669291338583,
                    "duration": 0.11250000000001137
                },
                {
                    "name": "A3",
                    "midi": 57,
                    "time": 163.3749999999999,
                    "velocity": 0.3937007874015748,
                    "duration": 0.11250000000001137
                },
                {
                    "name": "A3",
                    "midi": 57,
                    "time": 163.4999999999999,
                    "velocity": 0.41732283464566927,
                    "duration": 0.125
                },
                {
                    "name": "C4",
                    "midi": 60,
                    "time": 163.4999999999999,
                    "velocity": 0.49606299212598426,
                    "duration": 0.125
                },
                {
                    "name": "A#3",
                    "midi": 58,
                    "time": 163.6249999999999,
                    "velocity": 0.41732283464566927,
                    "duration": 0.125
                },
                {
                    "name": "G3",
                    "midi": 55,
                    "time": 163.6249999999999,
                    "velocity": 0.3543307086614173,
                    "duration": 0.125
                },
                {
                    "name": "A3",
                    "midi": 57,
                    "time": 163.7499999999999,
                    "velocity": 0.41732283464566927,
                    "duration": 0.125
                },
                {
                    "name": "F3",
                    "midi": 53,
                    "time": 163.7499999999999,
                    "velocity": 0.3543307086614173,
                    "duration": 0.125
                },
                {
                    "name": "G3",
                    "midi": 55,
                    "time": 163.8749999999999,
                    "velocity": 0.41732283464566927,
                    "duration": 0.125
                },
                {
                    "name": "E3",
                    "midi": 52,
                    "time": 163.8749999999999,
                    "velocity": 0.3543307086614173,
                    "duration": 0.125
                },
                {
                    "name": "F4",
                    "midi": 65,
                    "time": 164.2499999999999,
                    "velocity": 0.3937007874015748,
                    "duration": 0.08333333333334281
                },
                {
                    "name": "A4",
                    "midi": 69,
                    "time": 164.33333333333323,
                    "velocity": 0.36220472440944884,
                    "duration": 0.08333333333334281
                },
                {
                    "name": "F5",
                    "midi": 77,
                    "time": 164.41666666666657,
                    "velocity": 0.36220472440944884,
                    "duration": 0.08333333333334281
                },
                {
                    "name": "F4",
                    "midi": 65,
                    "time": 164.49999999999991,
                    "velocity": 0.4094488188976378,
                    "duration": 0.08333333333334281
                },
                {
                    "name": "A4",
                    "midi": 69,
                    "time": 164.58333333333326,
                    "velocity": 0.36220472440944884,
                    "duration": 0.08333333333334281
                },
                {
                    "name": "F5",
                    "midi": 77,
                    "time": 164.6666666666666,
                    "velocity": 0.36220472440944884,
                    "duration": 0.08333333333334281
                },
                {
                    "name": "F4",
                    "midi": 65,
                    "time": 164.74999999999994,
                    "velocity": 0.4251968503937008,
                    "duration": 0.08333333333334281
                },
                {
                    "name": "A4",
                    "midi": 69,
                    "time": 164.8333333333333,
                    "velocity": 0.3700787401574803,
                    "duration": 0.08333333333334281
                },
                {
                    "name": "F5",
                    "midi": 77,
                    "time": 164.91666666666663,
                    "velocity": 0.3700787401574803,
                    "duration": 0.08333333333334281
                },
                {
                    "name": "F4",
                    "midi": 65,
                    "time": 164.99999999999997,
                    "velocity": 0.47244094488188976,
                    "duration": 0.08333333333334281
                },
                {
                    "name": "A4",
                    "midi": 69,
                    "time": 165.08333333333331,
                    "velocity": 0.4094488188976378,
                    "duration": 0.08333333333334281
                },
                {
                    "name": "F5",
                    "midi": 77,
                    "time": 165.16666666666666,
                    "velocity": 0.4251968503937008,
                    "duration": 0.08333333333334281
                },
                {
                    "name": "A4",
                    "midi": 69,
                    "time": 165.25,
                    "velocity": 0.5118110236220472,
                    "duration": 0.08333333333334281
                },
                {
                    "name": "C5",
                    "midi": 72,
                    "time": 165.33333333333334,
                    "velocity": 0.4566929133858268,
                    "duration": 0.08333333333334281
                },
                {
                    "name": "A5",
                    "midi": 81,
                    "time": 165.41666666666669,
                    "velocity": 0.48031496062992124,
                    "duration": 0.08333333333334281
                },
                {
                    "name": "F4",
                    "midi": 65,
                    "time": 165.50000000000003,
                    "velocity": 0.5433070866141733,
                    "duration": 0.08333333333334281
                },
                {
                    "name": "A4",
                    "midi": 69,
                    "time": 165.58333333333337,
                    "velocity": 0.4881889763779528,
                    "duration": 0.08333333333334281
                },
                {
                    "name": "F5",
                    "midi": 77,
                    "time": 165.6666666666667,
                    "velocity": 0.5118110236220472,
                    "duration": 0.08333333333334281
                },
                {
                    "name": "D4",
                    "midi": 62,
                    "time": 165.75000000000006,
                    "velocity": 0.5984251968503937,
                    "duration": 0.08333333333334281
                },
                {
                    "name": "F4",
                    "midi": 65,
                    "time": 165.8333333333334,
                    "velocity": 0.5196850393700787,
                    "duration": 0.08333333333334281
                },
                {
                    "name": "D5",
                    "midi": 74,
                    "time": 165.91666666666674,
                    "velocity": 0.5433070866141733,
                    "duration": 0.08333333333334281
                },
                {
                    "name": "A#3",
                    "midi": 58,
                    "time": 166.00000000000009,
                    "velocity": 0.6299212598425197,
                    "duration": 0.625
                },
                {
                    "name": "F5",
                    "midi": 77,
                    "time": 166.62500000000009,
                    "velocity": 0.5196850393700787,
                    "duration": 0.125
                },
                {
                    "name": "D5",
                    "midi": 74,
                    "time": 166.62500000000009,
                    "velocity": 0.4409448818897638,
                    "duration": 0.125
                },
                {
                    "name": "E5",
                    "midi": 76,
                    "time": 166.75000000000009,
                    "velocity": 0.5354330708661418,
                    "duration": 0.125
                },
                {
                    "name": "C5",
                    "midi": 72,
                    "time": 166.75000000000009,
                    "velocity": 0.44881889763779526,
                    "duration": 0.125
                },
                {
                    "name": "D5",
                    "midi": 74,
                    "time": 166.87500000000009,
                    "velocity": 0.49606299212598426,
                    "duration": 0.11250000000001137
                },
                {
                    "name": "A#4",
                    "midi": 70,
                    "time": 166.87500000000009,
                    "velocity": 0.41732283464566927,
                    "duration": 0.11250000000001137
                },
                {
                    "name": "D5",
                    "midi": 74,
                    "time": 167.00000000000009,
                    "velocity": 0.5275590551181102,
                    "duration": 0.125
                },
                {
                    "name": "A#4",
                    "midi": 70,
                    "time": 167.00000000000009,
                    "velocity": 0.4409448818897638,
                    "duration": 0.125
                },
                {
                    "name": "A4",
                    "midi": 69,
                    "time": 167.12500000000009,
                    "velocity": 0.4330708661417323,
                    "duration": 0.125
                },
                {
                    "name": "C5",
                    "midi": 72,
                    "time": 167.12500000000009,
                    "velocity": 0.5118110236220472,
                    "duration": 0.125
                },
                {
                    "name": "G4",
                    "midi": 67,
                    "time": 167.25000000000009,
                    "velocity": 0.41732283464566927,
                    "duration": 0.125
                },
                {
                    "name": "A#4",
                    "midi": 70,
                    "time": 167.25000000000009,
                    "velocity": 0.49606299212598426,
                    "duration": 0.125
                },
                {
                    "name": "F4",
                    "midi": 65,
                    "time": 167.37500000000009,
                    "velocity": 0.4015748031496063,
                    "duration": 0.11250000000001137
                },
                {
                    "name": "A4",
                    "midi": 69,
                    "time": 167.37500000000009,
                    "velocity": 0.48031496062992124,
                    "duration": 0.11250000000001137
                },
                {
                    "name": "A4",
                    "midi": 69,
                    "time": 167.50000000000009,
                    "velocity": 0.49606299212598426,
                    "duration": 0.125
                },
                {
                    "name": "G4",
                    "midi": 67,
                    "time": 167.62500000000009,
                    "velocity": 0.4409448818897638,
                    "duration": 0.125
                },
                {
                    "name": "F4",
                    "midi": 65,
                    "time": 167.75000000000009,
                    "velocity": 0.4409448818897638,
                    "duration": 0.125
                },
                {
                    "name": "A#3",
                    "midi": 58,
                    "time": 167.87500000000009,
                    "velocity": 0.3700787401574803,
                    "duration": 0.11250000000001137
                },
                {
                    "name": "E4",
                    "midi": 64,
                    "time": 167.87500000000009,
                    "velocity": 0.4409448818897638,
                    "duration": 0.11250000000001137
                },
                {
                    "name": "A#3",
                    "midi": 58,
                    "time": 168.00000000000009,
                    "velocity": 0.4645669291338583,
                    "duration": 0.953125
                },
                {
                    "name": "E4",
                    "midi": 64,
                    "time": 168.00000000000009,
                    "velocity": 0.4645669291338583,
                    "duration": 0.953125
                },
                {
                    "name": "C4",
                    "midi": 60,
                    "time": 169.00000000000009,
                    "velocity": 0.4094488188976378,
                    "duration": 0.25
                },
                {
                    "name": "F4",
                    "midi": 65,
                    "time": 169.00000000000009,
                    "velocity": 0.4094488188976378,
                    "duration": 0.25
                },
                {
                    "name": "A3",
                    "midi": 57,
                    "time": 169.00000000000009,
                    "velocity": 0.4094488188976378,
                    "duration": 0.25
                }
            ],
            "controlChanges": {},
            "id": 1,
            "name": "Piano right",
            "instrumentNumber": 0,
            "instrument": "acoustic grand piano",
            "instrumentFamily": "piano",
            "channelNumber": 0,
            "isPercussion": false
        },
        {
            "startTime": 1.953125,
            "duration": 169.25,
            "length": 926,
            "notes": [
                {
                    "name": "F2",
                    "midi": 41,
                    "time": 1.953125,
                    "velocity": 0.3543307086614173,
                    "duration": 0.171875
                },
                {
                    "name": "A2",
                    "midi": 45,
                    "time": 1.96875,
                    "velocity": 0.3779527559055118,
                    "duration": 0.15625
                },
                {
                    "name": "C3",
                    "midi": 48,
                    "time": 1.984375,
                    "velocity": 0.4015748031496063,
                    "duration": 0.140625
                },
                {
                    "name": "F3",
                    "midi": 53,
                    "time": 2,
                    "velocity": 0.41732283464566927,
                    "duration": 0.125
                },
                {
                    "name": "G3",
                    "midi": 55,
                    "time": 3,
                    "velocity": 0.33070866141732286,
                    "duration": 0.125
                },
                {
                    "name": "C3",
                    "midi": 48,
                    "time": 3,
                    "velocity": 0.33070866141732286,
                    "duration": 0.125
                },
                {
                    "name": "A#3",
                    "midi": 58,
                    "time": 3,
                    "velocity": 0.3937007874015748,
                    "duration": 0.125
                },
                {
                    "name": "E3",
                    "midi": 52,
                    "time": 3.953125,
                    "velocity": 0.3543307086614173,
                    "duration": 0.171875
                },
                {
                    "name": "G3",
                    "midi": 55,
                    "time": 3.96875,
                    "velocity": 0.3779527559055118,
                    "duration": 0.15625
                },
                {
                    "name": "A#3",
                    "midi": 58,
                    "time": 3.984375,
                    "velocity": 0.4015748031496063,
                    "duration": 0.140625
                },
                {
                    "name": "C4",
                    "midi": 60,
                    "time": 4,
                    "velocity": 0.41732283464566927,
                    "duration": 0.125
                },
                {
                    "name": "C4",
                    "midi": 60,
                    "time": 5,
                    "velocity": 0.3937007874015748,
                    "duration": 0.125
                },
                {
                    "name": "F3",
                    "midi": 53,
                    "time": 5,
                    "velocity": 0.33070866141732286,
                    "duration": 0.125
                },
                {
                    "name": "F4",
                    "midi": 65,
                    "time": 6,
                    "velocity": 0.3464566929133858,
                    "duration": 1.25
                },
                {
                    "name": "A#3",
                    "midi": 58,
                    "time": 6,
                    "velocity": 0.3464566929133858,
                    "duration": 1
                },
                {
                    "name": "A3",
                    "midi": 57,
                    "time": 7,
                    "velocity": 0.3464566929133858,
                    "duration": 0.25
                },
                {
                    "name": "A#3",
                    "midi": 58,
                    "time": 8,
                    "velocity": 0.33858267716535434,
                    "duration": 1
                },
                {
                    "name": "A#2",
                    "midi": 46,
                    "time": 8,
                    "velocity": 0.33858267716535434,
                    "duration": 1
                },
                {
                    "name": "C3",
                    "midi": 48,
                    "time": 9,
                    "velocity": 0.29133858267716534,
                    "duration": 0.9375
                },
                {
                    "name": "A3",
                    "midi": 57,
                    "time": 9,
                    "velocity": 0.29133858267716534,
                    "duration": 0.5
                },
                {
                    "name": "G3",
                    "midi": 55,
                    "time": 9.5,
                    "velocity": 0.25984251968503935,
                    "duration": 0.4375
                },
                {
                    "name": "F2",
                    "midi": 41,
                    "time": 9.953125,
                    "velocity": 0.3543307086614173,
                    "duration": 0.171875
                },
                {
                    "name": "A2",
                    "midi": 45,
                    "time": 9.96875,
                    "velocity": 0.3779527559055118,
                    "duration": 0.15625
                },
                {
                    "name": "C3",
                    "midi": 48,
                    "time": 9.984375,
                    "velocity": 0.4015748031496063,
                    "duration": 0.140625
                },
                {
                    "name": "F3",
                    "midi": 53,
                    "time": 10,
                    "velocity": 0.41732283464566927,
                    "duration": 0.125
                },
                {
                    "name": "A#3",
                    "midi": 58,
                    "time": 11,
                    "velocity": 0.3937007874015748,
                    "duration": 0.25
                },
                {
                    "name": "C3",
                    "midi": 48,
                    "time": 11,
                    "velocity": 0.33070866141732286,
                    "duration": 2
                },
                {
                    "name": "A3",
                    "midi": 57,
                    "time": 11.25,
                    "velocity": 0.3937007874015748,
                    "duration": 0.25
                },
                {
                    "name": "G3",
                    "midi": 55,
                    "time": 11.5,
                    "velocity": 0.3937007874015748,
                    "duration": 0.25
                },
                {
                    "name": "F3",
                    "midi": 53,
                    "time": 11.75,
                    "velocity": 0.3937007874015748,
                    "duration": 0.25
                },
                {
                    "name": "G3",
                    "midi": 55,
                    "time": 12,
                    "velocity": 0.41732283464566927,
                    "duration": 1
                },
                {
                    "name": "E3",
                    "midi": 52,
                    "time": 12,
                    "velocity": 0.3779527559055118,
                    "duration": 1
                },
                {
                    "name": "F3",
                    "midi": 53,
                    "time": 13,
                    "velocity": 0.3937007874015748,
                    "duration": 0.125
                },
                {
                    "name": "F2",
                    "midi": 41,
                    "time": 13,
                    "velocity": 0.33070866141732286,
                    "duration": 0.125
                },
                {
                    "name": "A#3",
                    "midi": 58,
                    "time": 14,
                    "velocity": 0.3464566929133858,
                    "duration": 0.5
                },
                {
                    "name": "A#2",
                    "midi": 46,
                    "time": 14,
                    "velocity": 0.3464566929133858,
                    "duration": 0.5
                },
                {
                    "name": "A#3",
                    "midi": 58,
                    "time": 15.5,
                    "velocity": 0.23622047244094488,
                    "duration": 0.5
                },
                {
                    "name": "A#4",
                    "midi": 70,
                    "time": 15.5,
                    "velocity": 0.28346456692913385,
                    "duration": 0.5
                },
                {
                    "name": "A4",
                    "midi": 69,
                    "time": 16,
                    "velocity": 0.31496062992125984,
                    "duration": 1
                },
                {
                    "name": "C4",
                    "midi": 60,
                    "time": 16,
                    "velocity": 0.2677165354330709,
                    "duration": 1.5
                },
                {
                    "name": "G4",
                    "midi": 67,
                    "time": 17,
                    "velocity": 0.25196850393700787,
                    "duration": 0.5
                },
                {
                    "name": "C4",
                    "midi": 60,
                    "time": 18,
                    "velocity": 0.31496062992125984,
                    "duration": 0.125
                },
                {
                    "name": "G4",
                    "midi": 67,
                    "time": 18.125,
                    "velocity": 0.25196850393700787,
                    "duration": 0.125
                },
                {
                    "name": "E4",
                    "midi": 64,
                    "time": 18.25,
                    "velocity": 0.25196850393700787,
                    "duration": 0.125
                },
                {
                    "name": "G4",
                    "midi": 67,
                    "time": 18.375,
                    "velocity": 0.25196850393700787,
                    "duration": 0.125
                },
                {
                    "name": "C4",
                    "midi": 60,
                    "time": 18.5,
                    "velocity": 0.31496062992125984,
                    "duration": 0.125
                },
                {
                    "name": "G4",
                    "midi": 67,
                    "time": 18.625,
                    "velocity": 0.2440944881889764,
                    "duration": 0.125
                },
                {
                    "name": "E4",
                    "midi": 64,
                    "time": 18.75,
                    "velocity": 0.2440944881889764,
                    "duration": 0.125
                },
                {
                    "name": "G4",
                    "midi": 67,
                    "time": 18.875,
                    "velocity": 0.2440944881889764,
                    "duration": 0.125
                },
                {
                    "name": "D4",
                    "midi": 62,
                    "time": 19,
                    "velocity": 0.31496062992125984,
                    "duration": 0.125
                },
                {
                    "name": "G4",
                    "midi": 67,
                    "time": 19.125,
                    "velocity": 0.23622047244094488,
                    "duration": 0.125
                },
                {
                    "name": "F4",
                    "midi": 65,
                    "time": 19.25,
                    "velocity": 0.23622047244094488,
                    "duration": 0.125
                },
                {
                    "name": "G4",
                    "midi": 67,
                    "time": 19.375,
                    "velocity": 0.23622047244094488,
                    "duration": 0.125
                },
                {
                    "name": "D4",
                    "midi": 62,
                    "time": 19.5,
                    "velocity": 0.31496062992125984,
                    "duration": 0.125
                },
                {
                    "name": "G4",
                    "midi": 67,
                    "time": 19.625,
                    "velocity": 0.25984251968503935,
                    "duration": 0.125
                },
                {
                    "name": "F4",
                    "midi": 65,
                    "time": 19.75,
                    "velocity": 0.25984251968503935,
                    "duration": 0.125
                },
                {
                    "name": "G4",
                    "midi": 67,
                    "time": 19.875,
                    "velocity": 0.25984251968503935,
                    "duration": 0.125
                },
                {
                    "name": "C4",
                    "midi": 60,
                    "time": 20,
                    "velocity": 0.31496062992125984,
                    "duration": 0.125
                },
                {
                    "name": "G4",
                    "midi": 67,
                    "time": 20.125,
                    "velocity": 0.25196850393700787,
                    "duration": 0.125
                },
                {
                    "name": "E4",
                    "midi": 64,
                    "time": 20.25,
                    "velocity": 0.25196850393700787,
                    "duration": 0.125
                },
                {
                    "name": "G4",
                    "midi": 67,
                    "time": 20.375,
                    "velocity": 0.25196850393700787,
                    "duration": 0.125
                },
                {
                    "name": "C4",
                    "midi": 60,
                    "time": 20.5,
                    "velocity": 0.31496062992125984,
                    "duration": 0.125
                },
                {
                    "name": "G4",
                    "midi": 67,
                    "time": 20.625,
                    "velocity": 0.25984251968503935,
                    "duration": 0.125
                },
                {
                    "name": "E4",
                    "midi": 64,
                    "time": 20.75,
                    "velocity": 0.2755905511811024,
                    "duration": 0.125
                },
                {
                    "name": "G4",
                    "midi": 67,
                    "time": 20.875,
                    "velocity": 0.29133858267716534,
                    "duration": 0.125
                },
                {
                    "name": "D4",
                    "midi": 62,
                    "time": 21,
                    "velocity": 0.3700787401574803,
                    "duration": 0.125
                },
                {
                    "name": "G4",
                    "midi": 67,
                    "time": 21.125,
                    "velocity": 0.2755905511811024,
                    "duration": 0.125
                },
                {
                    "name": "F4",
                    "midi": 65,
                    "time": 21.25,
                    "velocity": 0.2755905511811024,
                    "duration": 0.0625
                },
                {
                    "name": "G4",
                    "midi": 67,
                    "time": 21.375,
                    "velocity": 0.2755905511811024,
                    "duration": 0.0625
                },
                {
                    "name": "D4",
                    "midi": 62,
                    "time": 21.5,
                    "velocity": 0.3464566929133858,
                    "duration": 0.125
                },
                {
                    "name": "G4",
                    "midi": 67,
                    "time": 21.625,
                    "velocity": 0.25984251968503935,
                    "duration": 0.125
                },
                {
                    "name": "F4",
                    "midi": 65,
                    "time": 21.75,
                    "velocity": 0.25984251968503935,
                    "duration": 0.0625
                },
                {
                    "name": "G4",
                    "midi": 67,
                    "time": 21.875,
                    "velocity": 0.25984251968503935,
                    "duration": 0.0625
                },
                {
                    "name": "C4",
                    "midi": 60,
                    "time": 22,
                    "velocity": 0.31496062992125984,
                    "duration": 0.125
                },
                {
                    "name": "G4",
                    "midi": 67,
                    "time": 22.125,
                    "velocity": 0.25196850393700787,
                    "duration": 0.125
                },
                {
                    "name": "E4",
                    "midi": 64,
                    "time": 22.25,
                    "velocity": 0.25196850393700787,
                    "duration": 0.125
                },
                {
                    "name": "G4",
                    "midi": 67,
                    "time": 22.375,
                    "velocity": 0.25196850393700787,
                    "duration": 0.125
                },
                {
                    "name": "C4",
                    "midi": 60,
                    "time": 22.5,
                    "velocity": 0.31496062992125984,
                    "duration": 0.125
                },
                {
                    "name": "G4",
                    "midi": 67,
                    "time": 22.625,
                    "velocity": 0.2440944881889764,
                    "duration": 0.125
                },
                {
                    "name": "E4",
                    "midi": 64,
                    "time": 22.75,
                    "velocity": 0.2440944881889764,
                    "duration": 0.125
                },
                {
                    "name": "G4",
                    "midi": 67,
                    "time": 22.875,
                    "velocity": 0.2440944881889764,
                    "duration": 0.125
                },
                {
                    "name": "D4",
                    "midi": 62,
                    "time": 23,
                    "velocity": 0.31496062992125984,
                    "duration": 0.125
                },
                {
                    "name": "G4",
                    "midi": 67,
                    "time": 23.125,
                    "velocity": 0.23622047244094488,
                    "duration": 0.125
                },
                {
                    "name": "F4",
                    "midi": 65,
                    "time": 23.25,
                    "velocity": 0.23622047244094488,
                    "duration": 0.125
                },
                {
                    "name": "G4",
                    "midi": 67,
                    "time": 23.375,
                    "velocity": 0.23622047244094488,
                    "duration": 0.125
                },
                {
                    "name": "D4",
                    "midi": 62,
                    "time": 23.5,
                    "velocity": 0.31496062992125984,
                    "duration": 0.125
                },
                {
                    "name": "G4",
                    "midi": 67,
                    "time": 23.625,
                    "velocity": 0.25984251968503935,
                    "duration": 0.125
                },
                {
                    "name": "F4",
                    "midi": 65,
                    "time": 23.75,
                    "velocity": 0.25984251968503935,
                    "duration": 0.125
                },
                {
                    "name": "G4",
                    "midi": 67,
                    "time": 23.875,
                    "velocity": 0.25984251968503935,
                    "duration": 0.125
                },
                {
                    "name": "C4",
                    "midi": 60,
                    "time": 24,
                    "velocity": 0.31496062992125984,
                    "duration": 0.0625
                },
                {
                    "name": "G4",
                    "midi": 67,
                    "time": 24.125,
                    "velocity": 0.25196850393700787,
                    "duration": 0.0625
                },
                {
                    "name": "E4",
                    "midi": 64,
                    "time": 24.25,
                    "velocity": 0.25196850393700787,
                    "duration": 0.0625
                },
                {
                    "name": "G4",
                    "midi": 67,
                    "time": 24.375,
                    "velocity": 0.25196850393700787,
                    "duration": 0.0625
                },
                {
                    "name": "C4",
                    "midi": 60,
                    "time": 24.5,
                    "velocity": 0.36220472440944884,
                    "duration": 0.0625
                },
                {
                    "name": "G4",
                    "midi": 67,
                    "time": 24.625,
                    "velocity": 0.2755905511811024,
                    "duration": 0.0625
                },
                {
                    "name": "E4",
                    "midi": 64,
                    "time": 24.75,
                    "velocity": 0.28346456692913385,
                    "duration": 0.0625
                },
                {
                    "name": "G4",
                    "midi": 67,
                    "time": 24.875,
                    "velocity": 0.2992125984251969,
                    "duration": 0.0625
                },
                {
                    "name": "D4",
                    "midi": 62,
                    "time": 25,
                    "velocity": 0.3858267716535433,
                    "duration": 0.125
                },
                {
                    "name": "G4",
                    "midi": 67,
                    "time": 25.125,
                    "velocity": 0.30708661417322836,
                    "duration": 0.125
                },
                {
                    "name": "F4",
                    "midi": 65,
                    "time": 25.25,
                    "velocity": 0.30708661417322836,
                    "duration": 0.125
                },
                {
                    "name": "G4",
                    "midi": 67,
                    "time": 25.375,
                    "velocity": 0.30708661417322836,
                    "duration": 0.125
                },
                {
                    "name": "D4",
                    "midi": 62,
                    "time": 25.5,
                    "velocity": 0.3937007874015748,
                    "duration": 0.125
                },
                {
                    "name": "G4",
                    "midi": 67,
                    "time": 25.625,
                    "velocity": 0.31496062992125984,
                    "duration": 0.125
                },
                {
                    "name": "F4",
                    "midi": 65,
                    "time": 25.75,
                    "velocity": 0.31496062992125984,
                    "duration": 0.125
                },
                {
                    "name": "G4",
                    "midi": 67,
                    "time": 25.875,
                    "velocity": 0.31496062992125984,
                    "duration": 0.125
                },
                {
                    "name": "C4",
                    "midi": 60,
                    "time": 26,
                    "velocity": 0.3779527559055118,
                    "duration": 0.125
                },
                {
                    "name": "G4",
                    "midi": 67,
                    "time": 26.125,
                    "velocity": 0.25196850393700787,
                    "duration": 0.125
                },
                {
                    "name": "E4",
                    "midi": 64,
                    "time": 26.25,
                    "velocity": 0.25196850393700787,
                    "duration": 0.125
                },
                {
                    "name": "G4",
                    "midi": 67,
                    "time": 26.375,
                    "velocity": 0.25196850393700787,
                    "duration": 0.125
                },
                {
                    "name": "C4",
                    "midi": 60,
                    "time": 26.5,
                    "velocity": 0.4094488188976378,
                    "duration": 0.125
                },
                {
                    "name": "G4",
                    "midi": 67,
                    "time": 26.625,
                    "velocity": 0.30708661417322836,
                    "duration": 0.125
                },
                {
                    "name": "E4",
                    "midi": 64,
                    "time": 26.75,
                    "velocity": 0.33070866141732286,
                    "duration": 0.125
                },
                {
                    "name": "G4",
                    "midi": 67,
                    "time": 26.875,
                    "velocity": 0.3543307086614173,
                    "duration": 0.125
                },
                {
                    "name": "E3",
                    "midi": 52,
                    "time": 27,
                    "velocity": 0.5118110236220472,
                    "duration": 0.125
                },
                {
                    "name": "C4",
                    "midi": 60,
                    "time": 27.125,
                    "velocity": 0.4330708661417323,
                    "duration": 0.125
                },
                {
                    "name": "G3",
                    "midi": 55,
                    "time": 27.25,
                    "velocity": 0.4330708661417323,
                    "duration": 0.125
                },
                {
                    "name": "C4",
                    "midi": 60,
                    "time": 27.375,
                    "velocity": 0.4330708661417323,
                    "duration": 0.125
                },
                {
                    "name": "E3",
                    "midi": 52,
                    "time": 27.5,
                    "velocity": 0.49606299212598426,
                    "duration": 0.125
                },
                {
                    "name": "C4",
                    "midi": 60,
                    "time": 27.625,
                    "velocity": 0.4015748031496063,
                    "duration": 0.125
                },
                {
                    "name": "G3",
                    "midi": 55,
                    "time": 27.75,
                    "velocity": 0.4015748031496063,
                    "duration": 0.125
                },
                {
                    "name": "C4",
                    "midi": 60,
                    "time": 27.875,
                    "velocity": 0.4015748031496063,
                    "duration": 0.125
                },
                {
                    "name": "F3",
                    "midi": 53,
                    "time": 28,
                    "velocity": 0.4566929133858268,
                    "duration": 0.125
                },
                {
                    "name": "C4",
                    "midi": 60,
                    "time": 28.125,
                    "velocity": 0.3543307086614173,
                    "duration": 0.125
                },
                {
                    "name": "A3",
                    "midi": 57,
                    "time": 28.25,
                    "velocity": 0.3543307086614173,
                    "duration": 0.125
                },
                {
                    "name": "C4",
                    "midi": 60,
                    "time": 28.375,
                    "velocity": 0.3543307086614173,
                    "duration": 0.125
                },
                {
                    "name": "E3",
                    "midi": 52,
                    "time": 28.5,
                    "velocity": 0.4015748031496063,
                    "duration": 0.125
                },
                {
                    "name": "C#4",
                    "midi": 61,
                    "time": 28.625,
                    "velocity": 0.3464566929133858,
                    "duration": 0.125
                },
                {
                    "name": "G3",
                    "midi": 55,
                    "time": 28.75,
                    "velocity": 0.3464566929133858,
                    "duration": 0.125
                },
                {
                    "name": "C#4",
                    "midi": 61,
                    "time": 28.875,
                    "velocity": 0.3464566929133858,
                    "duration": 0.125
                },
                {
                    "name": "D3",
                    "midi": 50,
                    "time": 29,
                    "velocity": 0.4015748031496063,
                    "duration": 0.125
                },
                {
                    "name": "C4",
                    "midi": 60,
                    "time": 29.125,
                    "velocity": 0.33858267716535434,
                    "duration": 0.125
                },
                {
                    "name": "A3",
                    "midi": 57,
                    "time": 29.25,
                    "velocity": 0.33858267716535434,
                    "duration": 0.125
                },
                {
                    "name": "C4",
                    "midi": 60,
                    "time": 29.375,
                    "velocity": 0.33858267716535434,
                    "duration": 0.125
                },
                {
                    "name": "G3",
                    "midi": 55,
                    "time": 29.5,
                    "velocity": 0.4015748031496063,
                    "duration": 0.125
                },
                {
                    "name": "D4",
                    "midi": 62,
                    "time": 29.625,
                    "velocity": 0.33858267716535434,
                    "duration": 0.125
                },
                {
                    "name": "B3",
                    "midi": 59,
                    "time": 29.75,
                    "velocity": 0.33858267716535434,
                    "duration": 0.125
                },
                {
                    "name": "D4",
                    "midi": 62,
                    "time": 29.875,
                    "velocity": 0.33858267716535434,
                    "duration": 0.125
                },
                {
                    "name": "C3",
                    "midi": 48,
                    "time": 30,
                    "velocity": 0.3700787401574803,
                    "duration": 0.125
                },
                {
                    "name": "C4",
                    "midi": 60,
                    "time": 30.125,
                    "velocity": 0.3228346456692913,
                    "duration": 0.125
                },
                {
                    "name": "E3",
                    "midi": 52,
                    "time": 30.25,
                    "velocity": 0.3228346456692913,
                    "duration": 0.125
                },
                {
                    "name": "C4",
                    "midi": 60,
                    "time": 30.375,
                    "velocity": 0.3228346456692913,
                    "duration": 0.125
                },
                {
                    "name": "F3",
                    "midi": 53,
                    "time": 30.5,
                    "velocity": 0.3700787401574803,
                    "duration": 0.125
                },
                {
                    "name": "D4",
                    "midi": 62,
                    "time": 30.625,
                    "velocity": 0.3228346456692913,
                    "duration": 0.125
                },
                {
                    "name": "A3",
                    "midi": 57,
                    "time": 30.75,
                    "velocity": 0.3228346456692913,
                    "duration": 0.125
                },
                {
                    "name": "D4",
                    "midi": 62,
                    "time": 30.875,
                    "velocity": 0.3228346456692913,
                    "duration": 0.125
                },
                {
                    "name": "G3",
                    "midi": 55,
                    "time": 31,
                    "velocity": 0.3700787401574803,
                    "duration": 0.125
                },
                {
                    "name": "E4",
                    "midi": 64,
                    "time": 31.125,
                    "velocity": 0.31496062992125984,
                    "duration": 0.125
                },
                {
                    "name": "C4",
                    "midi": 60,
                    "time": 31.25,
                    "velocity": 0.31496062992125984,
                    "duration": 0.125
                },
                {
                    "name": "E4",
                    "midi": 64,
                    "time": 31.375,
                    "velocity": 0.31496062992125984,
                    "duration": 0.125
                },
                {
                    "name": "G3",
                    "midi": 55,
                    "time": 31.5,
                    "velocity": 0.3700787401574803,
                    "duration": 0.125
                },
                {
                    "name": "F4",
                    "midi": 65,
                    "time": 31.625,
                    "velocity": 0.33070866141732286,
                    "duration": 0.125
                },
                {
                    "name": "D4",
                    "midi": 62,
                    "time": 31.75,
                    "velocity": 0.33070866141732286,
                    "duration": 0.125
                },
                {
                    "name": "F4",
                    "midi": 65,
                    "time": 31.875,
                    "velocity": 0.33070866141732286,
                    "duration": 0.125
                },
                {
                    "name": "E3",
                    "midi": 52,
                    "time": 32,
                    "velocity": 0.3700787401574803,
                    "duration": 0.125
                },
                {
                    "name": "C4",
                    "midi": 60,
                    "time": 32.125,
                    "velocity": 0.3228346456692913,
                    "duration": 0.125
                },
                {
                    "name": "G3",
                    "midi": 55,
                    "time": 32.25,
                    "velocity": 0.3228346456692913,
                    "duration": 0.125
                },
                {
                    "name": "C4",
                    "midi": 60,
                    "time": 32.375,
                    "velocity": 0.3228346456692913,
                    "duration": 0.125
                },
                {
                    "name": "F3",
                    "midi": 53,
                    "time": 32.5,
                    "velocity": 0.3700787401574803,
                    "duration": 0.125
                },
                {
                    "name": "C4",
                    "midi": 60,
                    "time": 32.625,
                    "velocity": 0.3228346456692913,
                    "duration": 0.125
                },
                {
                    "name": "A3",
                    "midi": 57,
                    "time": 32.75,
                    "velocity": 0.3228346456692913,
                    "duration": 0.125
                },
                {
                    "name": "C4",
                    "midi": 60,
                    "time": 32.875,
                    "velocity": 0.3228346456692913,
                    "duration": 0.125
                },
                {
                    "name": "G3",
                    "midi": 55,
                    "time": 33,
                    "velocity": 0.3700787401574803,
                    "duration": 0.125
                },
                {
                    "name": "E4",
                    "midi": 64,
                    "time": 33.125,
                    "velocity": 0.31496062992125984,
                    "duration": 0.125
                },
                {
                    "name": "C4",
                    "midi": 60,
                    "time": 33.25,
                    "velocity": 0.31496062992125984,
                    "duration": 0.125
                },
                {
                    "name": "E4",
                    "midi": 64,
                    "time": 33.375,
                    "velocity": 0.31496062992125984,
                    "duration": 0.125
                },
                {
                    "name": "G3",
                    "midi": 55,
                    "time": 33.5,
                    "velocity": 0.3700787401574803,
                    "duration": 0.125
                },
                {
                    "name": "F4",
                    "midi": 65,
                    "time": 33.625,
                    "velocity": 0.33070866141732286,
                    "duration": 0.125
                },
                {
                    "name": "D4",
                    "midi": 62,
                    "time": 33.75,
                    "velocity": 0.33070866141732286,
                    "duration": 0.125
                },
                {
                    "name": "F4",
                    "midi": 65,
                    "time": 33.875,
                    "velocity": 0.33070866141732286,
                    "duration": 0.125
                },
                {
                    "name": "E4",
                    "midi": 64,
                    "time": 34,
                    "velocity": 0.3700787401574803,
                    "duration": 0.5
                },
                {
                    "name": "C4",
                    "midi": 60,
                    "time": 34,
                    "velocity": 0.30708661417322836,
                    "duration": 0.5
                },
                {
                    "name": "F3",
                    "midi": 53,
                    "time": 36.5,
                    "velocity": 0.5511811023622047,
                    "duration": 0.125
                },
                {
                    "name": "F2",
                    "midi": 41,
                    "time": 36.5,
                    "velocity": 0.4645669291338583,
                    "duration": 0.125
                },
                {
                    "name": "G3",
                    "midi": 55,
                    "time": 37,
                    "velocity": 0.49606299212598426,
                    "duration": 0.125
                },
                {
                    "name": "G2",
                    "midi": 43,
                    "time": 37,
                    "velocity": 0.41732283464566927,
                    "duration": 0.125
                },
                {
                    "name": "G2",
                    "midi": 43,
                    "time": 37.5,
                    "velocity": 0.41732283464566927,
                    "duration": 0.125
                },
                {
                    "name": "G3",
                    "midi": 55,
                    "time": 37.5,
                    "velocity": 0.49606299212598426,
                    "duration": 0.125
                },
                {
                    "name": "C2",
                    "midi": 36,
                    "time": 38,
                    "velocity": 0.49606299212598426,
                    "duration": 0.5
                },
                {
                    "name": "C3",
                    "midi": 48,
                    "time": 38,
                    "velocity": 0.49606299212598426,
                    "duration": 0.5
                },
                {
                    "name": "F3",
                    "midi": 53,
                    "time": 40.5,
                    "velocity": 0.5511811023622047,
                    "duration": 0.125
                },
                {
                    "name": "F2",
                    "midi": 41,
                    "time": 40.5,
                    "velocity": 0.4645669291338583,
                    "duration": 0.125
                },
                {
                    "name": "G3",
                    "midi": 55,
                    "time": 41,
                    "velocity": 0.49606299212598426,
                    "duration": 0.125
                },
                {
                    "name": "G2",
                    "midi": 43,
                    "time": 41,
                    "velocity": 0.41732283464566927,
                    "duration": 0.125
                },
                {
                    "name": "F3",
                    "midi": 53,
                    "time": 41.5,
                    "velocity": 0.49606299212598426,
                    "duration": 0.25
                },
                {
                    "name": "G2",
                    "midi": 43,
                    "time": 41.50625,
                    "velocity": 0.41732283464566927,
                    "duration": 0.25
                },
                {
                    "name": "C3",
                    "midi": 48,
                    "time": 42,
                    "velocity": 0.4409448818897638,
                    "duration": 0.953125
                },
                {
                    "name": "C2",
                    "midi": 36,
                    "time": 42.953125,
                    "velocity": 0.3858267716535433,
                    "duration": 0.296875
                },
                {
                    "name": "E2",
                    "midi": 40,
                    "time": 42.96875,
                    "velocity": 0.41732283464566927,
                    "duration": 0.2604166666666643
                },
                {
                    "name": "G2",
                    "midi": 43,
                    "time": 42.984375,
                    "velocity": 0.4409448818897638,
                    "duration": 0.265625
                },
                {
                    "name": "C3",
                    "midi": 48,
                    "time": 43,
                    "velocity": 0.47244094488188976,
                    "duration": 0.25
                },
                {
                    "name": "F2",
                    "midi": 41,
                    "time": 43.953125,
                    "velocity": 0.3543307086614173,
                    "duration": 0.171875
                },
                {
                    "name": "A2",
                    "midi": 45,
                    "time": 43.96875,
                    "velocity": 0.3779527559055118,
                    "duration": 0.15625
                },
                {
                    "name": "C3",
                    "midi": 48,
                    "time": 43.984375,
                    "velocity": 0.4015748031496063,
                    "duration": 0.140625
                },
                {
                    "name": "F3",
                    "midi": 53,
                    "time": 44,
                    "velocity": 0.41732283464566927,
                    "duration": 0.125
                },
                {
                    "name": "G3",
                    "midi": 55,
                    "time": 45,
                    "velocity": 0.33070866141732286,
                    "duration": 0.125
                },
                {
                    "name": "A#3",
                    "midi": 58,
                    "time": 45,
                    "velocity": 0.3937007874015748,
                    "duration": 0.125
                },
                {
                    "name": "C3",
                    "midi": 48,
                    "time": 45,
                    "velocity": 0.33070866141732286,
                    "duration": 0.125
                },
                {
                    "name": "E3",
                    "midi": 52,
                    "time": 45.953125,
                    "velocity": 0.3543307086614173,
                    "duration": 0.171875
                },
                {
                    "name": "G3",
                    "midi": 55,
                    "time": 45.96875,
                    "velocity": 0.3779527559055118,
                    "duration": 0.15625
                },
                {
                    "name": "A#3",
                    "midi": 58,
                    "time": 45.984375,
                    "velocity": 0.4015748031496063,
                    "duration": 0.140625
                },
                {
                    "name": "C4",
                    "midi": 60,
                    "time": 46,
                    "velocity": 0.41732283464566927,
                    "duration": 0.125
                },
                {
                    "name": "C4",
                    "midi": 60,
                    "time": 47,
                    "velocity": 0.3937007874015748,
                    "duration": 0.125
                },
                {
                    "name": "F3",
                    "midi": 53,
                    "time": 47,
                    "velocity": 0.33070866141732286,
                    "duration": 0.125
                },
                {
                    "name": "A#3",
                    "midi": 58,
                    "time": 48,
                    "velocity": 0.3464566929133858,
                    "duration": 1
                },
                {
                    "name": "F4",
                    "midi": 65,
                    "time": 48,
                    "velocity": 0.3464566929133858,
                    "duration": 1.25
                },
                {
                    "name": "A3",
                    "midi": 57,
                    "time": 49,
                    "velocity": 0.3464566929133858,
                    "duration": 0.25
                },
                {
                    "name": "A#2",
                    "midi": 46,
                    "time": 50,
                    "velocity": 0.33858267716535434,
                    "duration": 1
                },
                {
                    "name": "A#3",
                    "midi": 58,
                    "time": 50,
                    "velocity": 0.33858267716535434,
                    "duration": 1
                },
                {
                    "name": "A3",
                    "midi": 57,
                    "time": 51,
                    "velocity": 0.29133858267716534,
                    "duration": 0.5
                },
                {
                    "name": "C3",
                    "midi": 48,
                    "time": 51,
                    "velocity": 0.29133858267716534,
                    "duration": 0.9375
                },
                {
                    "name": "G3",
                    "midi": 55,
                    "time": 51.5,
                    "velocity": 0.25984251968503935,
                    "duration": 0.4375
                },
                {
                    "name": "F2",
                    "midi": 41,
                    "time": 51.953125,
                    "velocity": 0.3543307086614173,
                    "duration": 0.171875
                },
                {
                    "name": "A2",
                    "midi": 45,
                    "time": 51.96875,
                    "velocity": 0.3779527559055118,
                    "duration": 0.15625
                },
                {
                    "name": "C3",
                    "midi": 48,
                    "time": 51.984375,
                    "velocity": 0.4015748031496063,
                    "duration": 0.140625
                },
                {
                    "name": "F3",
                    "midi": 53,
                    "time": 52,
                    "velocity": 0.41732283464566927,
                    "duration": 0.125
                },
                {
                    "name": "A#3",
                    "midi": 58,
                    "time": 53,
                    "velocity": 0.3937007874015748,
                    "duration": 0.25
                },
                {
                    "name": "C3",
                    "midi": 48,
                    "time": 53,
                    "velocity": 0.33070866141732286,
                    "duration": 2
                },
                {
                    "name": "A3",
                    "midi": 57,
                    "time": 53.25,
                    "velocity": 0.3937007874015748,
                    "duration": 0.25
                },
                {
                    "name": "G3",
                    "midi": 55,
                    "time": 53.5,
                    "velocity": 0.3937007874015748,
                    "duration": 0.25
                },
                {
                    "name": "F3",
                    "midi": 53,
                    "time": 53.75,
                    "velocity": 0.3937007874015748,
                    "duration": 0.25
                },
                {
                    "name": "G3",
                    "midi": 55,
                    "time": 54,
                    "velocity": 0.41732283464566927,
                    "duration": 1
                },
                {
                    "name": "E3",
                    "midi": 52,
                    "time": 54,
                    "velocity": 0.3779527559055118,
                    "duration": 1
                },
                {
                    "name": "F3",
                    "midi": 53,
                    "time": 55,
                    "velocity": 0.3937007874015748,
                    "duration": 0.125
                },
                {
                    "name": "F2",
                    "midi": 41,
                    "time": 55,
                    "velocity": 0.33070866141732286,
                    "duration": 0.125
                },
                {
                    "name": "A#3",
                    "midi": 58,
                    "time": 56,
                    "velocity": 0.3464566929133858,
                    "duration": 0.5
                },
                {
                    "name": "A#2",
                    "midi": 46,
                    "time": 56,
                    "velocity": 0.3464566929133858,
                    "duration": 0.5
                },
                {
                    "name": "A#4",
                    "midi": 70,
                    "time": 57.5,
                    "velocity": 0.28346456692913385,
                    "duration": 0.5
                },
                {
                    "name": "A#3",
                    "midi": 58,
                    "time": 57.5,
                    "velocity": 0.23622047244094488,
                    "duration": 0.5
                },
                {
                    "name": "A4",
                    "midi": 69,
                    "time": 58,
                    "velocity": 0.31496062992125984,
                    "duration": 1
                },
                {
                    "name": "C4",
                    "midi": 60,
                    "time": 58,
                    "velocity": 0.2677165354330709,
                    "duration": 1.5
                },
                {
                    "name": "G4",
                    "midi": 67,
                    "time": 59,
                    "velocity": 0.25196850393700787,
                    "duration": 0.5
                },
                {
                    "name": "C4",
                    "midi": 60,
                    "time": 60,
                    "velocity": 0.31496062992125984,
                    "duration": 0.125
                },
                {
                    "name": "G4",
                    "midi": 67,
                    "time": 60.125,
                    "velocity": 0.25196850393700787,
                    "duration": 0.125
                },
                {
                    "name": "E4",
                    "midi": 64,
                    "time": 60.25,
                    "velocity": 0.25196850393700787,
                    "duration": 0.125
                },
                {
                    "name": "G4",
                    "midi": 67,
                    "time": 60.375,
                    "velocity": 0.25196850393700787,
                    "duration": 0.125
                },
                {
                    "name": "C4",
                    "midi": 60,
                    "time": 60.5,
                    "velocity": 0.31496062992125984,
                    "duration": 0.125
                },
                {
                    "name": "G4",
                    "midi": 67,
                    "time": 60.625,
                    "velocity": 0.2440944881889764,
                    "duration": 0.125
                },
                {
                    "name": "E4",
                    "midi": 64,
                    "time": 60.75,
                    "velocity": 0.2440944881889764,
                    "duration": 0.125
                },
                {
                    "name": "G4",
                    "midi": 67,
                    "time": 60.875,
                    "velocity": 0.2440944881889764,
                    "duration": 0.125
                },
                {
                    "name": "D4",
                    "midi": 62,
                    "time": 61,
                    "velocity": 0.31496062992125984,
                    "duration": 0.125
                },
                {
                    "name": "G4",
                    "midi": 67,
                    "time": 61.125,
                    "velocity": 0.23622047244094488,
                    "duration": 0.125
                },
                {
                    "name": "F4",
                    "midi": 65,
                    "time": 61.25,
                    "velocity": 0.23622047244094488,
                    "duration": 0.125
                },
                {
                    "name": "G4",
                    "midi": 67,
                    "time": 61.375,
                    "velocity": 0.23622047244094488,
                    "duration": 0.125
                },
                {
                    "name": "D4",
                    "midi": 62,
                    "time": 61.5,
                    "velocity": 0.31496062992125984,
                    "duration": 0.125
                },
                {
                    "name": "G4",
                    "midi": 67,
                    "time": 61.625,
                    "velocity": 0.25984251968503935,
                    "duration": 0.125
                },
                {
                    "name": "F4",
                    "midi": 65,
                    "time": 61.75,
                    "velocity": 0.25984251968503935,
                    "duration": 0.125
                },
                {
                    "name": "G4",
                    "midi": 67,
                    "time": 61.875,
                    "velocity": 0.25984251968503935,
                    "duration": 0.125
                },
                {
                    "name": "C4",
                    "midi": 60,
                    "time": 62,
                    "velocity": 0.31496062992125984,
                    "duration": 0.125
                },
                {
                    "name": "G4",
                    "midi": 67,
                    "time": 62.125,
                    "velocity": 0.25196850393700787,
                    "duration": 0.125
                },
                {
                    "name": "E4",
                    "midi": 64,
                    "time": 62.25,
                    "velocity": 0.25196850393700787,
                    "duration": 0.125
                },
                {
                    "name": "G4",
                    "midi": 67,
                    "time": 62.375,
                    "velocity": 0.25196850393700787,
                    "duration": 0.125
                },
                {
                    "name": "C4",
                    "midi": 60,
                    "time": 62.5,
                    "velocity": 0.31496062992125984,
                    "duration": 0.125
                },
                {
                    "name": "G4",
                    "midi": 67,
                    "time": 62.625,
                    "velocity": 0.25984251968503935,
                    "duration": 0.125
                },
                {
                    "name": "E4",
                    "midi": 64,
                    "time": 62.75,
                    "velocity": 0.2755905511811024,
                    "duration": 0.125
                },
                {
                    "name": "G4",
                    "midi": 67,
                    "time": 62.875,
                    "velocity": 0.29133858267716534,
                    "duration": 0.125
                },
                {
                    "name": "D4",
                    "midi": 62,
                    "time": 63,
                    "velocity": 0.3700787401574803,
                    "duration": 0.125
                },
                {
                    "name": "G4",
                    "midi": 67,
                    "time": 63.125,
                    "velocity": 0.2755905511811024,
                    "duration": 0.125
                },
                {
                    "name": "F4",
                    "midi": 65,
                    "time": 63.25,
                    "velocity": 0.2755905511811024,
                    "duration": 0.0625
                },
                {
                    "name": "G4",
                    "midi": 67,
                    "time": 63.375,
                    "velocity": 0.2755905511811024,
                    "duration": 0.0625
                },
                {
                    "name": "D4",
                    "midi": 62,
                    "time": 63.5,
                    "velocity": 0.3464566929133858,
                    "duration": 0.125
                },
                {
                    "name": "G4",
                    "midi": 67,
                    "time": 63.625,
                    "velocity": 0.25984251968503935,
                    "duration": 0.125
                },
                {
                    "name": "F4",
                    "midi": 65,
                    "time": 63.75,
                    "velocity": 0.25984251968503935,
                    "duration": 0.0625
                },
                {
                    "name": "G4",
                    "midi": 67,
                    "time": 63.875,
                    "velocity": 0.25984251968503935,
                    "duration": 0.0625
                },
                {
                    "name": "C4",
                    "midi": 60,
                    "time": 64,
                    "velocity": 0.31496062992125984,
                    "duration": 0.125
                },
                {
                    "name": "G4",
                    "midi": 67,
                    "time": 64.125,
                    "velocity": 0.25196850393700787,
                    "duration": 0.125
                },
                {
                    "name": "E4",
                    "midi": 64,
                    "time": 64.25,
                    "velocity": 0.25196850393700787,
                    "duration": 0.125
                },
                {
                    "name": "G4",
                    "midi": 67,
                    "time": 64.375,
                    "velocity": 0.25196850393700787,
                    "duration": 0.125
                },
                {
                    "name": "C4",
                    "midi": 60,
                    "time": 64.5,
                    "velocity": 0.31496062992125984,
                    "duration": 0.125
                },
                {
                    "name": "G4",
                    "midi": 67,
                    "time": 64.625,
                    "velocity": 0.2440944881889764,
                    "duration": 0.125
                },
                {
                    "name": "E4",
                    "midi": 64,
                    "time": 64.75,
                    "velocity": 0.2440944881889764,
                    "duration": 0.125
                },
                {
                    "name": "G4",
                    "midi": 67,
                    "time": 64.875,
                    "velocity": 0.2440944881889764,
                    "duration": 0.125
                },
                {
                    "name": "D4",
                    "midi": 62,
                    "time": 65,
                    "velocity": 0.31496062992125984,
                    "duration": 0.125
                },
                {
                    "name": "G4",
                    "midi": 67,
                    "time": 65.125,
                    "velocity": 0.23622047244094488,
                    "duration": 0.125
                },
                {
                    "name": "F4",
                    "midi": 65,
                    "time": 65.25,
                    "velocity": 0.23622047244094488,
                    "duration": 0.125
                },
                {
                    "name": "G4",
                    "midi": 67,
                    "time": 65.375,
                    "velocity": 0.23622047244094488,
                    "duration": 0.125
                },
                {
                    "name": "D4",
                    "midi": 62,
                    "time": 65.5,
                    "velocity": 0.31496062992125984,
                    "duration": 0.125
                },
                {
                    "name": "G4",
                    "midi": 67,
                    "time": 65.625,
                    "velocity": 0.25984251968503935,
                    "duration": 0.125
                },
                {
                    "name": "F4",
                    "midi": 65,
                    "time": 65.75,
                    "velocity": 0.25984251968503935,
                    "duration": 0.125
                },
                {
                    "name": "G4",
                    "midi": 67,
                    "time": 65.875,
                    "velocity": 0.25984251968503935,
                    "duration": 0.125
                },
                {
                    "name": "C4",
                    "midi": 60,
                    "time": 66,
                    "velocity": 0.31496062992125984,
                    "duration": 0.0625
                },
                {
                    "name": "G4",
                    "midi": 67,
                    "time": 66.125,
                    "velocity": 0.25196850393700787,
                    "duration": 0.0625
                },
                {
                    "name": "E4",
                    "midi": 64,
                    "time": 66.25,
                    "velocity": 0.25196850393700787,
                    "duration": 0.0625
                },
                {
                    "name": "G4",
                    "midi": 67,
                    "time": 66.375,
                    "velocity": 0.25196850393700787,
                    "duration": 0.0625
                },
                {
                    "name": "C4",
                    "midi": 60,
                    "time": 66.5,
                    "velocity": 0.36220472440944884,
                    "duration": 0.0625
                },
                {
                    "name": "G4",
                    "midi": 67,
                    "time": 66.625,
                    "velocity": 0.2755905511811024,
                    "duration": 0.0625
                },
                {
                    "name": "E4",
                    "midi": 64,
                    "time": 66.75,
                    "velocity": 0.28346456692913385,
                    "duration": 0.0625
                },
                {
                    "name": "G4",
                    "midi": 67,
                    "time": 66.875,
                    "velocity": 0.2992125984251969,
                    "duration": 0.0625
                },
                {
                    "name": "D4",
                    "midi": 62,
                    "time": 67,
                    "velocity": 0.3858267716535433,
                    "duration": 0.125
                },
                {
                    "name": "G4",
                    "midi": 67,
                    "time": 67.125,
                    "velocity": 0.30708661417322836,
                    "duration": 0.125
                },
                {
                    "name": "F4",
                    "midi": 65,
                    "time": 67.25,
                    "velocity": 0.30708661417322836,
                    "duration": 0.125
                },
                {
                    "name": "G4",
                    "midi": 67,
                    "time": 67.375,
                    "velocity": 0.30708661417322836,
                    "duration": 0.125
                },
                {
                    "name": "D4",
                    "midi": 62,
                    "time": 67.5,
                    "velocity": 0.3937007874015748,
                    "duration": 0.125
                },
                {
                    "name": "G4",
                    "midi": 67,
                    "time": 67.625,
                    "velocity": 0.31496062992125984,
                    "duration": 0.125
                },
                {
                    "name": "F4",
                    "midi": 65,
                    "time": 67.75,
                    "velocity": 0.31496062992125984,
                    "duration": 0.125
                },
                {
                    "name": "G4",
                    "midi": 67,
                    "time": 67.875,
                    "velocity": 0.31496062992125984,
                    "duration": 0.125
                },
                {
                    "name": "C4",
                    "midi": 60,
                    "time": 68,
                    "velocity": 0.3779527559055118,
                    "duration": 0.125
                },
                {
                    "name": "G4",
                    "midi": 67,
                    "time": 68.125,
                    "velocity": 0.25196850393700787,
                    "duration": 0.125
                },
                {
                    "name": "E4",
                    "midi": 64,
                    "time": 68.25,
                    "velocity": 0.25196850393700787,
                    "duration": 0.125
                },
                {
                    "name": "G4",
                    "midi": 67,
                    "time": 68.375,
                    "velocity": 0.25196850393700787,
                    "duration": 0.125
                },
                {
                    "name": "C4",
                    "midi": 60,
                    "time": 68.5,
                    "velocity": 0.4094488188976378,
                    "duration": 0.125
                },
                {
                    "name": "G4",
                    "midi": 67,
                    "time": 68.625,
                    "velocity": 0.30708661417322836,
                    "duration": 0.125
                },
                {
                    "name": "E4",
                    "midi": 64,
                    "time": 68.75,
                    "velocity": 0.33070866141732286,
                    "duration": 0.125
                },
                {
                    "name": "G4",
                    "midi": 67,
                    "time": 68.875,
                    "velocity": 0.3543307086614173,
                    "duration": 0.125
                },
                {
                    "name": "E3",
                    "midi": 52,
                    "time": 69,
                    "velocity": 0.5118110236220472,
                    "duration": 0.125
                },
                {
                    "name": "C4",
                    "midi": 60,
                    "time": 69.125,
                    "velocity": 0.4330708661417323,
                    "duration": 0.125
                },
                {
                    "name": "G3",
                    "midi": 55,
                    "time": 69.25,
                    "velocity": 0.4330708661417323,
                    "duration": 0.125
                },
                {
                    "name": "C4",
                    "midi": 60,
                    "time": 69.375,
                    "velocity": 0.4330708661417323,
                    "duration": 0.125
                },
                {
                    "name": "E3",
                    "midi": 52,
                    "time": 69.5,
                    "velocity": 0.49606299212598426,
                    "duration": 0.125
                },
                {
                    "name": "C4",
                    "midi": 60,
                    "time": 69.625,
                    "velocity": 0.4015748031496063,
                    "duration": 0.125
                },
                {
                    "name": "G3",
                    "midi": 55,
                    "time": 69.75,
                    "velocity": 0.4015748031496063,
                    "duration": 0.125
                },
                {
                    "name": "C4",
                    "midi": 60,
                    "time": 69.875,
                    "velocity": 0.4015748031496063,
                    "duration": 0.125
                },
                {
                    "name": "F3",
                    "midi": 53,
                    "time": 70,
                    "velocity": 0.4566929133858268,
                    "duration": 0.125
                },
                {
                    "name": "C4",
                    "midi": 60,
                    "time": 70.125,
                    "velocity": 0.3543307086614173,
                    "duration": 0.125
                },
                {
                    "name": "A3",
                    "midi": 57,
                    "time": 70.25,
                    "velocity": 0.3543307086614173,
                    "duration": 0.125
                },
                {
                    "name": "C4",
                    "midi": 60,
                    "time": 70.375,
                    "velocity": 0.3543307086614173,
                    "duration": 0.125
                },
                {
                    "name": "E3",
                    "midi": 52,
                    "time": 70.5,
                    "velocity": 0.4015748031496063,
                    "duration": 0.125
                },
                {
                    "name": "C#4",
                    "midi": 61,
                    "time": 70.625,
                    "velocity": 0.3464566929133858,
                    "duration": 0.125
                },
                {
                    "name": "G3",
                    "midi": 55,
                    "time": 70.75,
                    "velocity": 0.3464566929133858,
                    "duration": 0.125
                },
                {
                    "name": "C#4",
                    "midi": 61,
                    "time": 70.875,
                    "velocity": 0.3464566929133858,
                    "duration": 0.125
                },
                {
                    "name": "D3",
                    "midi": 50,
                    "time": 71,
                    "velocity": 0.4015748031496063,
                    "duration": 0.125
                },
                {
                    "name": "C4",
                    "midi": 60,
                    "time": 71.125,
                    "velocity": 0.33858267716535434,
                    "duration": 0.125
                },
                {
                    "name": "A3",
                    "midi": 57,
                    "time": 71.25,
                    "velocity": 0.33858267716535434,
                    "duration": 0.125
                },
                {
                    "name": "C4",
                    "midi": 60,
                    "time": 71.375,
                    "velocity": 0.33858267716535434,
                    "duration": 0.125
                },
                {
                    "name": "G3",
                    "midi": 55,
                    "time": 71.5,
                    "velocity": 0.4015748031496063,
                    "duration": 0.125
                },
                {
                    "name": "D4",
                    "midi": 62,
                    "time": 71.625,
                    "velocity": 0.33858267716535434,
                    "duration": 0.125
                },
                {
                    "name": "B3",
                    "midi": 59,
                    "time": 71.75,
                    "velocity": 0.33858267716535434,
                    "duration": 0.125
                },
                {
                    "name": "D4",
                    "midi": 62,
                    "time": 71.875,
                    "velocity": 0.33858267716535434,
                    "duration": 0.125
                },
                {
                    "name": "C3",
                    "midi": 48,
                    "time": 72,
                    "velocity": 0.3700787401574803,
                    "duration": 0.125
                },
                {
                    "name": "C4",
                    "midi": 60,
                    "time": 72.125,
                    "velocity": 0.3228346456692913,
                    "duration": 0.125
                },
                {
                    "name": "E3",
                    "midi": 52,
                    "time": 72.25,
                    "velocity": 0.3228346456692913,
                    "duration": 0.125
                },
                {
                    "name": "C4",
                    "midi": 60,
                    "time": 72.375,
                    "velocity": 0.3228346456692913,
                    "duration": 0.125
                },
                {
                    "name": "F3",
                    "midi": 53,
                    "time": 72.5,
                    "velocity": 0.3700787401574803,
                    "duration": 0.125
                },
                {
                    "name": "D4",
                    "midi": 62,
                    "time": 72.625,
                    "velocity": 0.3228346456692913,
                    "duration": 0.125
                },
                {
                    "name": "A3",
                    "midi": 57,
                    "time": 72.75,
                    "velocity": 0.3228346456692913,
                    "duration": 0.125
                },
                {
                    "name": "D4",
                    "midi": 62,
                    "time": 72.875,
                    "velocity": 0.3228346456692913,
                    "duration": 0.125
                },
                {
                    "name": "G3",
                    "midi": 55,
                    "time": 73,
                    "velocity": 0.3700787401574803,
                    "duration": 0.125
                },
                {
                    "name": "E4",
                    "midi": 64,
                    "time": 73.125,
                    "velocity": 0.31496062992125984,
                    "duration": 0.125
                },
                {
                    "name": "C4",
                    "midi": 60,
                    "time": 73.25,
                    "velocity": 0.31496062992125984,
                    "duration": 0.125
                },
                {
                    "name": "E4",
                    "midi": 64,
                    "time": 73.375,
                    "velocity": 0.31496062992125984,
                    "duration": 0.125
                },
                {
                    "name": "G3",
                    "midi": 55,
                    "time": 73.5,
                    "velocity": 0.3700787401574803,
                    "duration": 0.125
                },
                {
                    "name": "F4",
                    "midi": 65,
                    "time": 73.625,
                    "velocity": 0.33070866141732286,
                    "duration": 0.125
                },
                {
                    "name": "D4",
                    "midi": 62,
                    "time": 73.75,
                    "velocity": 0.33070866141732286,
                    "duration": 0.125
                },
                {
                    "name": "F4",
                    "midi": 65,
                    "time": 73.875,
                    "velocity": 0.33070866141732286,
                    "duration": 0.125
                },
                {
                    "name": "E3",
                    "midi": 52,
                    "time": 74,
                    "velocity": 0.3700787401574803,
                    "duration": 0.125
                },
                {
                    "name": "C4",
                    "midi": 60,
                    "time": 74.125,
                    "velocity": 0.3228346456692913,
                    "duration": 0.125
                },
                {
                    "name": "G3",
                    "midi": 55,
                    "time": 74.25,
                    "velocity": 0.3228346456692913,
                    "duration": 0.125
                },
                {
                    "name": "C4",
                    "midi": 60,
                    "time": 74.375,
                    "velocity": 0.3228346456692913,
                    "duration": 0.125
                },
                {
                    "name": "F3",
                    "midi": 53,
                    "time": 74.5,
                    "velocity": 0.3700787401574803,
                    "duration": 0.125
                },
                {
                    "name": "C4",
                    "midi": 60,
                    "time": 74.625,
                    "velocity": 0.3228346456692913,
                    "duration": 0.125
                },
                {
                    "name": "A3",
                    "midi": 57,
                    "time": 74.75,
                    "velocity": 0.3228346456692913,
                    "duration": 0.125
                },
                {
                    "name": "C4",
                    "midi": 60,
                    "time": 74.875,
                    "velocity": 0.3228346456692913,
                    "duration": 0.125
                },
                {
                    "name": "G3",
                    "midi": 55,
                    "time": 75,
                    "velocity": 0.3700787401574803,
                    "duration": 0.125
                },
                {
                    "name": "E4",
                    "midi": 64,
                    "time": 75.125,
                    "velocity": 0.31496062992125984,
                    "duration": 0.125
                },
                {
                    "name": "C4",
                    "midi": 60,
                    "time": 75.25,
                    "velocity": 0.31496062992125984,
                    "duration": 0.125
                },
                {
                    "name": "E4",
                    "midi": 64,
                    "time": 75.375,
                    "velocity": 0.31496062992125984,
                    "duration": 0.125
                },
                {
                    "name": "G3",
                    "midi": 55,
                    "time": 75.5,
                    "velocity": 0.3700787401574803,
                    "duration": 0.125
                },
                {
                    "name": "F4",
                    "midi": 65,
                    "time": 75.625,
                    "velocity": 0.33070866141732286,
                    "duration": 0.125
                },
                {
                    "name": "D4",
                    "midi": 62,
                    "time": 75.75,
                    "velocity": 0.33070866141732286,
                    "duration": 0.125
                },
                {
                    "name": "F4",
                    "midi": 65,
                    "time": 75.875,
                    "velocity": 0.33070866141732286,
                    "duration": 0.125
                },
                {
                    "name": "C4",
                    "midi": 60,
                    "time": 76,
                    "velocity": 0.30708661417322836,
                    "duration": 0.5
                },
                {
                    "name": "E4",
                    "midi": 64,
                    "time": 76,
                    "velocity": 0.3700787401574803,
                    "duration": 0.5
                },
                {
                    "name": "F2",
                    "midi": 41,
                    "time": 78.5,
                    "velocity": 0.4645669291338583,
                    "duration": 0.125
                },
                {
                    "name": "F3",
                    "midi": 53,
                    "time": 78.5,
                    "velocity": 0.5511811023622047,
                    "duration": 0.125
                },
                {
                    "name": "G3",
                    "midi": 55,
                    "time": 79,
                    "velocity": 0.49606299212598426,
                    "duration": 0.125
                },
                {
                    "name": "G2",
                    "midi": 43,
                    "time": 79,
                    "velocity": 0.41732283464566927,
                    "duration": 0.125
                },
                {
                    "name": "G2",
                    "midi": 43,
                    "time": 79.5,
                    "velocity": 0.41732283464566927,
                    "duration": 0.125
                },
                {
                    "name": "G3",
                    "midi": 55,
                    "time": 79.5,
                    "velocity": 0.49606299212598426,
                    "duration": 0.125
                },
                {
                    "name": "C2",
                    "midi": 36,
                    "time": 80,
                    "velocity": 0.49606299212598426,
                    "duration": 0.5
                },
                {
                    "name": "C3",
                    "midi": 48,
                    "time": 80,
                    "velocity": 0.49606299212598426,
                    "duration": 0.5
                },
                {
                    "name": "F2",
                    "midi": 41,
                    "time": 82.5,
                    "velocity": 0.4645669291338583,
                    "duration": 0.125
                },
                {
                    "name": "F3",
                    "midi": 53,
                    "time": 82.5,
                    "velocity": 0.5511811023622047,
                    "duration": 0.125
                },
                {
                    "name": "G3",
                    "midi": 55,
                    "time": 83,
                    "velocity": 0.49606299212598426,
                    "duration": 0.125
                },
                {
                    "name": "G2",
                    "midi": 43,
                    "time": 83,
                    "velocity": 0.41732283464566927,
                    "duration": 0.125
                },
                {
                    "name": "F3",
                    "midi": 53,
                    "time": 83.5,
                    "velocity": 0.49606299212598426,
                    "duration": 0.25
                },
                {
                    "name": "G2",
                    "midi": 43,
                    "time": 83.50625,
                    "velocity": 0.41732283464566927,
                    "duration": 0.25
                },
                {
                    "name": "C3",
                    "midi": 48,
                    "time": 84,
                    "velocity": 0.4409448818897638,
                    "duration": 0.953125
                },
                {
                    "name": "C2",
                    "midi": 36,
                    "time": 84.953125,
                    "velocity": 0.3858267716535433,
                    "duration": 0.296875
                },
                {
                    "name": "E2",
                    "midi": 40,
                    "time": 84.96875,
                    "velocity": 0.41732283464566927,
                    "duration": 0.2604166666666714
                },
                {
                    "name": "G2",
                    "midi": 43,
                    "time": 84.984375,
                    "velocity": 0.4409448818897638,
                    "duration": 0.265625
                },
                {
                    "name": "C3",
                    "midi": 48,
                    "time": 85,
                    "velocity": 0.47244094488188976,
                    "duration": 0.25
                },
                {
                    "name": "C3",
                    "midi": 48,
                    "time": 85.953125,
                    "velocity": 0.3543307086614173,
                    "duration": 0.171875
                },
                {
                    "name": "E3",
                    "midi": 52,
                    "time": 85.96875,
                    "velocity": 0.3779527559055118,
                    "duration": 0.15625
                },
                {
                    "name": "G3",
                    "midi": 55,
                    "time": 85.984375,
                    "velocity": 0.4015748031496063,
                    "duration": 0.140625
                },
                {
                    "name": "C4",
                    "midi": 60,
                    "time": 86,
                    "velocity": 0.41732283464566927,
                    "duration": 0.125
                },
                {
                    "name": "C4",
                    "midi": 60,
                    "time": 87,
                    "velocity": 0.3464566929133858,
                    "duration": 0.125
                },
                {
                    "name": "A#4",
                    "midi": 70,
                    "time": 87.125,
                    "velocity": 0.29133858267716534,
                    "duration": 0.125
                },
                {
                    "name": "G4",
                    "midi": 67,
                    "time": 87.25,
                    "velocity": 0.29133858267716534,
                    "duration": 0.125
                },
                {
                    "name": "A#4",
                    "midi": 70,
                    "time": 87.375,
                    "velocity": 0.29133858267716534,
                    "duration": 0.125
                },
                {
                    "name": "C4",
                    "midi": 60,
                    "time": 87.5,
                    "velocity": 0.3464566929133858,
                    "duration": 0.125
                },
                {
                    "name": "A#4",
                    "midi": 70,
                    "time": 87.625,
                    "velocity": 0.30708661417322836,
                    "duration": 0.125
                },
                {
                    "name": "G4",
                    "midi": 67,
                    "time": 87.75,
                    "velocity": 0.30708661417322836,
                    "duration": 0.125
                },
                {
                    "name": "A#4",
                    "midi": 70,
                    "time": 87.875,
                    "velocity": 0.30708661417322836,
                    "duration": 0.125
                },
                {
                    "name": "C4",
                    "midi": 60,
                    "time": 88,
                    "velocity": 0.3464566929133858,
                    "duration": 0.125
                },
                {
                    "name": "A4",
                    "midi": 69,
                    "time": 88.125,
                    "velocity": 0.29133858267716534,
                    "duration": 0.125
                },
                {
                    "name": "F4",
                    "midi": 65,
                    "time": 88.25,
                    "velocity": 0.29133858267716534,
                    "duration": 0.125
                },
                {
                    "name": "A4",
                    "midi": 69,
                    "time": 88.375,
                    "velocity": 0.29133858267716534,
                    "duration": 0.125
                },
                {
                    "name": "C4",
                    "midi": 60,
                    "time": 88.5,
                    "velocity": 0.3464566929133858,
                    "duration": 0.125
                },
                {
                    "name": "A4",
                    "midi": 69,
                    "time": 88.625,
                    "velocity": 0.30708661417322836,
                    "duration": 0.125
                },
                {
                    "name": "F4",
                    "midi": 65,
                    "time": 88.75,
                    "velocity": 0.30708661417322836,
                    "duration": 0.125
                },
                {
                    "name": "A4",
                    "midi": 69,
                    "time": 88.875,
                    "velocity": 0.30708661417322836,
                    "duration": 0.125
                },
                {
                    "name": "C4",
                    "midi": 60,
                    "time": 89,
                    "velocity": 0.3464566929133858,
                    "duration": 0.125
                },
                {
                    "name": "G4",
                    "midi": 67,
                    "time": 89.125,
                    "velocity": 0.29133858267716534,
                    "duration": 0.125
                },
                {
                    "name": "E4",
                    "midi": 64,
                    "time": 89.25,
                    "velocity": 0.29133858267716534,
                    "duration": 0.125
                },
                {
                    "name": "G4",
                    "midi": 67,
                    "time": 89.375,
                    "velocity": 0.29133858267716534,
                    "duration": 0.125
                },
                {
                    "name": "C4",
                    "midi": 60,
                    "time": 89.5,
                    "velocity": 0.3464566929133858,
                    "duration": 0.125
                },
                {
                    "name": "G4",
                    "midi": 67,
                    "time": 89.625,
                    "velocity": 0.30708661417322836,
                    "duration": 0.125
                },
                {
                    "name": "E4",
                    "midi": 64,
                    "time": 89.75,
                    "velocity": 0.30708661417322836,
                    "duration": 0.125
                },
                {
                    "name": "G4",
                    "midi": 67,
                    "time": 89.875,
                    "velocity": 0.30708661417322836,
                    "duration": 0.125
                },
                {
                    "name": "A3",
                    "midi": 57,
                    "time": 90,
                    "velocity": 0.3464566929133858,
                    "duration": 0.125
                },
                {
                    "name": "D#4",
                    "midi": 63,
                    "time": 90.125,
                    "velocity": 0.30708661417322836,
                    "duration": 0.125
                },
                {
                    "name": "C4",
                    "midi": 60,
                    "time": 90.25,
                    "velocity": 0.30708661417322836,
                    "duration": 0.125
                },
                {
                    "name": "D#4",
                    "midi": 63,
                    "time": 90.375,
                    "velocity": 0.30708661417322836,
                    "duration": 0.125
                },
                {
                    "name": "A3",
                    "midi": 57,
                    "time": 90.5,
                    "velocity": 0.3464566929133858,
                    "duration": 0.125
                },
                {
                    "name": "D#4",
                    "midi": 63,
                    "time": 90.625,
                    "velocity": 0.30708661417322836,
                    "duration": 0.125
                },
                {
                    "name": "C4",
                    "midi": 60,
                    "time": 90.75,
                    "velocity": 0.30708661417322836,
                    "duration": 0.125
                },
                {
                    "name": "D#4",
                    "midi": 63,
                    "time": 90.875,
                    "velocity": 0.30708661417322836,
                    "duration": 0.125
                },
                {
                    "name": "A3",
                    "midi": 57,
                    "time": 91,
                    "velocity": 0.3464566929133858,
                    "duration": 0.125
                },
                {
                    "name": "D#4",
                    "midi": 63,
                    "time": 91.125,
                    "velocity": 0.31496062992125984,
                    "duration": 0.125
                },
                {
                    "name": "C4",
                    "midi": 60,
                    "time": 91.25,
                    "velocity": 0.3228346456692913,
                    "duration": 0.125
                },
                {
                    "name": "D#4",
                    "midi": 63,
                    "time": 91.375,
                    "velocity": 0.33070866141732286,
                    "duration": 0.125
                },
                {
                    "name": "A3",
                    "midi": 57,
                    "time": 91.5,
                    "velocity": 0.3858267716535433,
                    "duration": 0.125
                },
                {
                    "name": "D#4",
                    "midi": 63,
                    "time": 91.625,
                    "velocity": 0.3543307086614173,
                    "duration": 0.125
                },
                {
                    "name": "C4",
                    "midi": 60,
                    "time": 91.75,
                    "velocity": 0.36220472440944884,
                    "duration": 0.125
                },
                {
                    "name": "D#4",
                    "midi": 63,
                    "time": 91.875,
                    "velocity": 0.3700787401574803,
                    "duration": 0.125
                },
                {
                    "name": "A#3",
                    "midi": 58,
                    "time": 92,
                    "velocity": 0.4330708661417323,
                    "duration": 0.125
                },
                {
                    "name": "G4",
                    "midi": 67,
                    "time": 92.125,
                    "velocity": 0.3779527559055118,
                    "duration": 0.125
                },
                {
                    "name": "D4",
                    "midi": 62,
                    "time": 92.25,
                    "velocity": 0.3779527559055118,
                    "duration": 0.125
                },
                {
                    "name": "G4",
                    "midi": 67,
                    "time": 92.375,
                    "velocity": 0.3779527559055118,
                    "duration": 0.125
                },
                {
                    "name": "A#3",
                    "midi": 58,
                    "time": 92.5,
                    "velocity": 0.4330708661417323,
                    "duration": 0.125
                },
                {
                    "name": "G4",
                    "midi": 67,
                    "time": 92.625,
                    "velocity": 0.3779527559055118,
                    "duration": 0.125
                },
                {
                    "name": "D4",
                    "midi": 62,
                    "time": 92.75,
                    "velocity": 0.3779527559055118,
                    "duration": 0.125
                },
                {
                    "name": "G4",
                    "midi": 67,
                    "time": 92.875,
                    "velocity": 0.3779527559055118,
                    "duration": 0.125
                },
                {
                    "name": "A#3",
                    "midi": 58,
                    "time": 93,
                    "velocity": 0.4330708661417323,
                    "duration": 0.125
                },
                {
                    "name": "G4",
                    "midi": 67,
                    "time": 93.125,
                    "velocity": 0.3779527559055118,
                    "duration": 0.125
                },
                {
                    "name": "D4",
                    "midi": 62,
                    "time": 93.25,
                    "velocity": 0.3779527559055118,
                    "duration": 0.125
                },
                {
                    "name": "G4",
                    "midi": 67,
                    "time": 93.375,
                    "velocity": 0.3779527559055118,
                    "duration": 0.125
                },
                {
                    "name": "A#3",
                    "midi": 58,
                    "time": 93.5,
                    "velocity": 0.4330708661417323,
                    "duration": 0.125
                },
                {
                    "name": "G4",
                    "midi": 67,
                    "time": 93.625,
                    "velocity": 0.3779527559055118,
                    "duration": 0.125
                },
                {
                    "name": "D4",
                    "midi": 62,
                    "time": 93.75,
                    "velocity": 0.3779527559055118,
                    "duration": 0.125
                },
                {
                    "name": "G4",
                    "midi": 67,
                    "time": 93.875,
                    "velocity": 0.3779527559055118,
                    "duration": 0.125
                },
                {
                    "name": "A#3",
                    "midi": 58,
                    "time": 94,
                    "velocity": 0.4330708661417323,
                    "duration": 0.125
                },
                {
                    "name": "G4",
                    "midi": 67,
                    "time": 94.125,
                    "velocity": 0.3543307086614173,
                    "duration": 0.125
                },
                {
                    "name": "E4",
                    "midi": 64,
                    "time": 94.25,
                    "velocity": 0.3543307086614173,
                    "duration": 0.125
                },
                {
                    "name": "G4",
                    "midi": 67,
                    "time": 94.375,
                    "velocity": 0.3543307086614173,
                    "duration": 0.125
                },
                {
                    "name": "A#3",
                    "midi": 58,
                    "time": 94.5,
                    "velocity": 0.4094488188976378,
                    "duration": 0.125
                },
                {
                    "name": "G4",
                    "midi": 67,
                    "time": 94.625,
                    "velocity": 0.33070866141732286,
                    "duration": 0.125
                },
                {
                    "name": "E4",
                    "midi": 64,
                    "time": 94.75,
                    "velocity": 0.33070866141732286,
                    "duration": 0.125
                },
                {
                    "name": "G4",
                    "midi": 67,
                    "time": 94.875,
                    "velocity": 0.33070866141732286,
                    "duration": 0.125
                },
                {
                    "name": "A3",
                    "midi": 57,
                    "time": 95,
                    "velocity": 0.4330708661417323,
                    "duration": 0.125
                },
                {
                    "name": "F4",
                    "midi": 65,
                    "time": 95.125,
                    "velocity": 0.36220472440944884,
                    "duration": 0.125
                },
                {
                    "name": "C4",
                    "midi": 60,
                    "time": 95.25,
                    "velocity": 0.36220472440944884,
                    "duration": 0.125
                },
                {
                    "name": "F4",
                    "midi": 65,
                    "time": 95.375,
                    "velocity": 0.36220472440944884,
                    "duration": 0.125
                },
                {
                    "name": "A3",
                    "midi": 57,
                    "time": 95.5,
                    "velocity": 0.4330708661417323,
                    "duration": 0.125
                },
                {
                    "name": "F4",
                    "midi": 65,
                    "time": 95.625,
                    "velocity": 0.3779527559055118,
                    "duration": 0.125
                },
                {
                    "name": "C4",
                    "midi": 60,
                    "time": 95.75,
                    "velocity": 0.3779527559055118,
                    "duration": 0.125
                },
                {
                    "name": "F4",
                    "midi": 65,
                    "time": 95.875,
                    "velocity": 0.33858267716535434,
                    "duration": 0.125
                },
                {
                    "name": "E3",
                    "midi": 52,
                    "time": 96,
                    "velocity": 0.3937007874015748,
                    "duration": 0.125
                },
                {
                    "name": "C4",
                    "midi": 60,
                    "time": 96.125,
                    "velocity": 0.2992125984251969,
                    "duration": 0.125
                },
                {
                    "name": "G3",
                    "midi": 55,
                    "time": 96.25,
                    "velocity": 0.2992125984251969,
                    "duration": 0.125
                },
                {
                    "name": "C4",
                    "midi": 60,
                    "time": 96.375,
                    "velocity": 0.2992125984251969,
                    "duration": 0.125
                },
                {
                    "name": "F3",
                    "midi": 53,
                    "time": 96.5,
                    "velocity": 0.3779527559055118,
                    "duration": 0.125
                },
                {
                    "name": "C4",
                    "midi": 60,
                    "time": 96.625,
                    "velocity": 0.31496062992125984,
                    "duration": 0.125
                },
                {
                    "name": "A3",
                    "midi": 57,
                    "time": 96.75,
                    "velocity": 0.31496062992125984,
                    "duration": 0.125
                },
                {
                    "name": "C4",
                    "midi": 60,
                    "time": 96.875,
                    "velocity": 0.2677165354330709,
                    "duration": 0.125
                },
                {
                    "name": "E3",
                    "midi": 52,
                    "time": 97,
                    "velocity": 0.31496062992125984,
                    "duration": 0.125
                },
                {
                    "name": "C4",
                    "midi": 60,
                    "time": 97.125,
                    "velocity": 0.2440944881889764,
                    "duration": 0.125
                },
                {
                    "name": "G3",
                    "midi": 55,
                    "time": 97.25,
                    "velocity": 0.2440944881889764,
                    "duration": 0.125
                },
                {
                    "name": "C4",
                    "midi": 60,
                    "time": 97.375,
                    "velocity": 0.2440944881889764,
                    "duration": 0.125
                },
                {
                    "name": "F3",
                    "midi": 53,
                    "time": 97.5,
                    "velocity": 0.2677165354330709,
                    "duration": 0.125
                },
                {
                    "name": "C4",
                    "midi": 60,
                    "time": 97.625,
                    "velocity": 0.2125984251968504,
                    "duration": 0.125
                },
                {
                    "name": "A3",
                    "midi": 57,
                    "time": 97.75,
                    "velocity": 0.2125984251968504,
                    "duration": 0.125
                },
                {
                    "name": "C4",
                    "midi": 60,
                    "time": 97.875,
                    "velocity": 0.2125984251968504,
                    "duration": 0.125
                },
                {
                    "name": "E3",
                    "midi": 52,
                    "time": 98,
                    "velocity": 0.41732283464566927,
                    "duration": 0.125
                },
                {
                    "name": "C4",
                    "midi": 60,
                    "time": 98.125,
                    "velocity": 0.31496062992125984,
                    "duration": 0.125
                },
                {
                    "name": "G3",
                    "midi": 55,
                    "time": 98.25,
                    "velocity": 0.31496062992125984,
                    "duration": 0.125
                },
                {
                    "name": "C4",
                    "midi": 60,
                    "time": 98.375,
                    "velocity": 0.31496062992125984,
                    "duration": 0.125
                },
                {
                    "name": "F3",
                    "midi": 53,
                    "time": 98.5,
                    "velocity": 0.3779527559055118,
                    "duration": 0.125
                },
                {
                    "name": "C4",
                    "midi": 60,
                    "time": 98.625,
                    "velocity": 0.31496062992125984,
                    "duration": 0.125
                },
                {
                    "name": "A3",
                    "midi": 57,
                    "time": 98.75,
                    "velocity": 0.31496062992125984,
                    "duration": 0.125
                },
                {
                    "name": "C4",
                    "midi": 60,
                    "time": 98.875,
                    "velocity": 0.2677165354330709,
                    "duration": 0.125
                },
                {
                    "name": "A#3",
                    "midi": 58,
                    "time": 99,
                    "velocity": 0.36220472440944884,
                    "duration": 0.125
                },
                {
                    "name": "G4",
                    "midi": 67,
                    "time": 99.125,
                    "velocity": 0.2755905511811024,
                    "duration": 0.125
                },
                {
                    "name": "D4",
                    "midi": 62,
                    "time": 99.25,
                    "velocity": 0.2755905511811024,
                    "duration": 0.125
                },
                {
                    "name": "G4",
                    "midi": 67,
                    "time": 99.375,
                    "velocity": 0.2755905511811024,
                    "duration": 0.125
                },
                {
                    "name": "B3",
                    "midi": 59,
                    "time": 99.5,
                    "velocity": 0.3543307086614173,
                    "duration": 0.125
                },
                {
                    "name": "G4",
                    "midi": 67,
                    "time": 99.625,
                    "velocity": 0.28346456692913385,
                    "duration": 0.125
                },
                {
                    "name": "D4",
                    "midi": 62,
                    "time": 99.75,
                    "velocity": 0.28346456692913385,
                    "duration": 0.125
                },
                {
                    "name": "G4",
                    "midi": 67,
                    "time": 99.875,
                    "velocity": 0.28346456692913385,
                    "duration": 0.125
                },
                {
                    "name": "C4",
                    "midi": 60,
                    "time": 100,
                    "velocity": 0.33858267716535434,
                    "duration": 0.125
                },
                {
                    "name": "G4",
                    "midi": 67,
                    "time": 100.125,
                    "velocity": 0.2677165354330709,
                    "duration": 0.125
                },
                {
                    "name": "E4",
                    "midi": 64,
                    "time": 100.25,
                    "velocity": 0.2677165354330709,
                    "duration": 0.125
                },
                {
                    "name": "G4",
                    "midi": 67,
                    "time": 100.375,
                    "velocity": 0.2677165354330709,
                    "duration": 0.125
                },
                {
                    "name": "C4",
                    "midi": 60,
                    "time": 100.5,
                    "velocity": 0.33070866141732286,
                    "duration": 0.125
                },
                {
                    "name": "G4",
                    "midi": 67,
                    "time": 100.625,
                    "velocity": 0.25196850393700787,
                    "duration": 0.125
                },
                {
                    "name": "E4",
                    "midi": 64,
                    "time": 100.75,
                    "velocity": 0.25196850393700787,
                    "duration": 0.125
                },
                {
                    "name": "G4",
                    "midi": 67,
                    "time": 100.875,
                    "velocity": 0.25196850393700787,
                    "duration": 0.125
                },
                {
                    "name": "C4",
                    "midi": 60,
                    "time": 101,
                    "velocity": 0.29133858267716534,
                    "duration": 0.125
                },
                {
                    "name": "D4",
                    "midi": 62,
                    "time": 101.125,
                    "velocity": 0.2283464566929134,
                    "duration": 0.125
                },
                {
                    "name": "A#3",
                    "midi": 58,
                    "time": 101.25,
                    "velocity": 0.2992125984251969,
                    "duration": 0.125
                },
                {
                    "name": "C4",
                    "midi": 60,
                    "time": 101.375,
                    "velocity": 0.25196850393700787,
                    "duration": 0.125
                },
                {
                    "name": "A3",
                    "midi": 57,
                    "time": 101.5,
                    "velocity": 0.2677165354330709,
                    "duration": 0.125
                },
                {
                    "name": "A#3",
                    "midi": 58,
                    "time": 101.625,
                    "velocity": 0.2125984251968504,
                    "duration": 0.125
                },
                {
                    "name": "G3",
                    "midi": 55,
                    "time": 101.75,
                    "velocity": 0.2677165354330709,
                    "duration": 0.125
                },
                {
                    "name": "A3",
                    "midi": 57,
                    "time": 101.875,
                    "velocity": 0.2204724409448819,
                    "duration": 0.125
                },
                {
                    "name": "F3",
                    "midi": 53,
                    "time": 102,
                    "velocity": 0.29133858267716534,
                    "duration": 0.125
                },
                {
                    "name": "C4",
                    "midi": 60,
                    "time": 102.125,
                    "velocity": 0.2440944881889764,
                    "duration": 0.125
                },
                {
                    "name": "A3",
                    "midi": 57,
                    "time": 102.25,
                    "velocity": 0.2204724409448819,
                    "duration": 0.125
                },
                {
                    "name": "C4",
                    "midi": 60,
                    "time": 102.375,
                    "velocity": 0.2204724409448819,
                    "duration": 0.125
                },
                {
                    "name": "F3",
                    "midi": 53,
                    "time": 102.5,
                    "velocity": 0.31496062992125984,
                    "duration": 0.125
                },
                {
                    "name": "C4",
                    "midi": 60,
                    "time": 102.625,
                    "velocity": 0.2440944881889764,
                    "duration": 0.125
                },
                {
                    "name": "A3",
                    "midi": 57,
                    "time": 102.75,
                    "velocity": 0.2440944881889764,
                    "duration": 0.125
                },
                {
                    "name": "C4",
                    "midi": 60,
                    "time": 102.875,
                    "velocity": 0.2440944881889764,
                    "duration": 0.125
                },
                {
                    "name": "G3",
                    "midi": 55,
                    "time": 103,
                    "velocity": 0.31496062992125984,
                    "duration": 0.125
                },
                {
                    "name": "C4",
                    "midi": 60,
                    "time": 103.125,
                    "velocity": 0.23622047244094488,
                    "duration": 0.125
                },
                {
                    "name": "A#3",
                    "midi": 58,
                    "time": 103.25,
                    "velocity": 0.23622047244094488,
                    "duration": 0.125
                },
                {
                    "name": "C4",
                    "midi": 60,
                    "time": 103.375,
                    "velocity": 0.23622047244094488,
                    "duration": 0.125
                },
                {
                    "name": "G3",
                    "midi": 55,
                    "time": 103.5,
                    "velocity": 0.31496062992125984,
                    "duration": 0.125
                },
                {
                    "name": "C4",
                    "midi": 60,
                    "time": 103.625,
                    "velocity": 0.25984251968503935,
                    "duration": 0.125
                },
                {
                    "name": "A#3",
                    "midi": 58,
                    "time": 103.75,
                    "velocity": 0.25984251968503935,
                    "duration": 0.125
                },
                {
                    "name": "C4",
                    "midi": 60,
                    "time": 103.875,
                    "velocity": 0.25984251968503935,
                    "duration": 0.125
                },
                {
                    "name": "F3",
                    "midi": 53,
                    "time": 104,
                    "velocity": 0.31496062992125984,
                    "duration": 0.125
                },
                {
                    "name": "C4",
                    "midi": 60,
                    "time": 104.125,
                    "velocity": 0.25196850393700787,
                    "duration": 0.125
                },
                {
                    "name": "A3",
                    "midi": 57,
                    "time": 104.25,
                    "velocity": 0.25196850393700787,
                    "duration": 0.125
                },
                {
                    "name": "C4",
                    "midi": 60,
                    "time": 104.375,
                    "velocity": 0.25196850393700787,
                    "duration": 0.125
                },
                {
                    "name": "F3",
                    "midi": 53,
                    "time": 104.5,
                    "velocity": 0.31496062992125984,
                    "duration": 0.125
                },
                {
                    "name": "C4",
                    "midi": 60,
                    "time": 104.625,
                    "velocity": 0.25984251968503935,
                    "duration": 0.125
                },
                {
                    "name": "A3",
                    "midi": 57,
                    "time": 104.75,
                    "velocity": 0.2755905511811024,
                    "duration": 0.125
                },
                {
                    "name": "C4",
                    "midi": 60,
                    "time": 104.875,
                    "velocity": 0.29133858267716534,
                    "duration": 0.125
                },
                {
                    "name": "G3",
                    "midi": 55,
                    "time": 105,
                    "velocity": 0.3700787401574803,
                    "duration": 0.125
                },
                {
                    "name": "C4",
                    "midi": 60,
                    "time": 105.125,
                    "velocity": 0.2755905511811024,
                    "duration": 0.125
                },
                {
                    "name": "A#3",
                    "midi": 58,
                    "time": 105.25,
                    "velocity": 0.2755905511811024,
                    "duration": 0.0625
                },
                {
                    "name": "C4",
                    "midi": 60,
                    "time": 105.375,
                    "velocity": 0.2755905511811024,
                    "duration": 0.0625
                },
                {
                    "name": "G3",
                    "midi": 55,
                    "time": 105.5,
                    "velocity": 0.3464566929133858,
                    "duration": 0.125
                },
                {
                    "name": "C4",
                    "midi": 60,
                    "time": 105.625,
                    "velocity": 0.25984251968503935,
                    "duration": 0.125
                },
                {
                    "name": "A#3",
                    "midi": 58,
                    "time": 105.75,
                    "velocity": 0.25984251968503935,
                    "duration": 0.0625
                },
                {
                    "name": "C4",
                    "midi": 60,
                    "time": 105.875,
                    "velocity": 0.25984251968503935,
                    "duration": 0.0625
                },
                {
                    "name": "F3",
                    "midi": 53,
                    "time": 106,
                    "velocity": 0.31496062992125984,
                    "duration": 0.125
                },
                {
                    "name": "C4",
                    "midi": 60,
                    "time": 106.125,
                    "velocity": 0.25196850393700787,
                    "duration": 0.125
                },
                {
                    "name": "A3",
                    "midi": 57,
                    "time": 106.25,
                    "velocity": 0.25196850393700787,
                    "duration": 0.125
                },
                {
                    "name": "C4",
                    "midi": 60,
                    "time": 106.375,
                    "velocity": 0.25196850393700787,
                    "duration": 0.125
                },
                {
                    "name": "F3",
                    "midi": 53,
                    "time": 106.5,
                    "velocity": 0.31496062992125984,
                    "duration": 0.125
                },
                {
                    "name": "C4",
                    "midi": 60,
                    "time": 106.625,
                    "velocity": 0.2440944881889764,
                    "duration": 0.125
                },
                {
                    "name": "A3",
                    "midi": 57,
                    "time": 106.75,
                    "velocity": 0.2440944881889764,
                    "duration": 0.125
                },
                {
                    "name": "C4",
                    "midi": 60,
                    "time": 106.875,
                    "velocity": 0.2440944881889764,
                    "duration": 0.125
                },
                {
                    "name": "G3",
                    "midi": 55,
                    "time": 107,
                    "velocity": 0.31496062992125984,
                    "duration": 0.125
                },
                {
                    "name": "C4",
                    "midi": 60,
                    "time": 107.125,
                    "velocity": 0.23622047244094488,
                    "duration": 0.125
                },
                {
                    "name": "A#3",
                    "midi": 58,
                    "time": 107.25,
                    "velocity": 0.23622047244094488,
                    "duration": 0.125
                },
                {
                    "name": "C4",
                    "midi": 60,
                    "time": 107.375,
                    "velocity": 0.23622047244094488,
                    "duration": 0.125
                },
                {
                    "name": "G3",
                    "midi": 55,
                    "time": 107.5,
                    "velocity": 0.31496062992125984,
                    "duration": 0.125
                },
                {
                    "name": "C4",
                    "midi": 60,
                    "time": 107.625,
                    "velocity": 0.25984251968503935,
                    "duration": 0.125
                },
                {
                    "name": "A#3",
                    "midi": 58,
                    "time": 107.75,
                    "velocity": 0.25984251968503935,
                    "duration": 0.125
                },
                {
                    "name": "C4",
                    "midi": 60,
                    "time": 107.875,
                    "velocity": 0.25984251968503935,
                    "duration": 0.125
                },
                {
                    "name": "F3",
                    "midi": 53,
                    "time": 108,
                    "velocity": 0.31496062992125984,
                    "duration": 0.0625
                },
                {
                    "name": "C4",
                    "midi": 60,
                    "time": 108.125,
                    "velocity": 0.25196850393700787,
                    "duration": 0.0625
                },
                {
                    "name": "A3",
                    "midi": 57,
                    "time": 108.25,
                    "velocity": 0.25196850393700787,
                    "duration": 0.0625
                },
                {
                    "name": "C4",
                    "midi": 60,
                    "time": 108.375,
                    "velocity": 0.25196850393700787,
                    "duration": 0.0625
                },
                {
                    "name": "F3",
                    "midi": 53,
                    "time": 108.5,
                    "velocity": 0.36220472440944884,
                    "duration": 0.0625
                },
                {
                    "name": "C4",
                    "midi": 60,
                    "time": 108.625,
                    "velocity": 0.2755905511811024,
                    "duration": 0.0625
                },
                {
                    "name": "A3",
                    "midi": 57,
                    "time": 108.75,
                    "velocity": 0.28346456692913385,
                    "duration": 0.0625
                },
                {
                    "name": "C4",
                    "midi": 60,
                    "time": 108.875,
                    "velocity": 0.2992125984251969,
                    "duration": 0.0625
                },
                {
                    "name": "G3",
                    "midi": 55,
                    "time": 109,
                    "velocity": 0.3858267716535433,
                    "duration": 0.125
                },
                {
                    "name": "C4",
                    "midi": 60,
                    "time": 109.125,
                    "velocity": 0.30708661417322836,
                    "duration": 0.125
                },
                {
                    "name": "A#3",
                    "midi": 58,
                    "time": 109.25,
                    "velocity": 0.30708661417322836,
                    "duration": 0.125
                },
                {
                    "name": "C4",
                    "midi": 60,
                    "time": 109.375,
                    "velocity": 0.30708661417322836,
                    "duration": 0.125
                },
                {
                    "name": "G3",
                    "midi": 55,
                    "time": 109.5,
                    "velocity": 0.3937007874015748,
                    "duration": 0.125
                },
                {
                    "name": "C4",
                    "midi": 60,
                    "time": 109.625,
                    "velocity": 0.31496062992125984,
                    "duration": 0.125
                },
                {
                    "name": "A#3",
                    "midi": 58,
                    "time": 109.75,
                    "velocity": 0.31496062992125984,
                    "duration": 0.125
                },
                {
                    "name": "C4",
                    "midi": 60,
                    "time": 109.875,
                    "velocity": 0.31496062992125984,
                    "duration": 0.125
                },
                {
                    "name": "F3",
                    "midi": 53,
                    "time": 110,
                    "velocity": 0.3779527559055118,
                    "duration": 0.125
                },
                {
                    "name": "C4",
                    "midi": 60,
                    "time": 110.125,
                    "velocity": 0.25196850393700787,
                    "duration": 0.125
                },
                {
                    "name": "A3",
                    "midi": 57,
                    "time": 110.25,
                    "velocity": 0.25196850393700787,
                    "duration": 0.125
                },
                {
                    "name": "C4",
                    "midi": 60,
                    "time": 110.375,
                    "velocity": 0.25196850393700787,
                    "duration": 0.125
                },
                {
                    "name": "F3",
                    "midi": 53,
                    "time": 110.5,
                    "velocity": 0.4094488188976378,
                    "duration": 0.125
                },
                {
                    "name": "C4",
                    "midi": 60,
                    "time": 110.625,
                    "velocity": 0.30708661417322836,
                    "duration": 0.125
                },
                {
                    "name": "A3",
                    "midi": 57,
                    "time": 110.75,
                    "velocity": 0.33070866141732286,
                    "duration": 0.125
                },
                {
                    "name": "C4",
                    "midi": 60,
                    "time": 110.875,
                    "velocity": 0.3543307086614173,
                    "duration": 0.125
                },
                {
                    "name": "A3",
                    "midi": 57,
                    "time": 111,
                    "velocity": 0.5118110236220472,
                    "duration": 0.125
                },
                {
                    "name": "F4",
                    "midi": 65,
                    "time": 111.125,
                    "velocity": 0.4330708661417323,
                    "duration": 0.125
                },
                {
                    "name": "C4",
                    "midi": 60,
                    "time": 111.25,
                    "velocity": 0.4330708661417323,
                    "duration": 0.125
                },
                {
                    "name": "F4",
                    "midi": 65,
                    "time": 111.375,
                    "velocity": 0.4330708661417323,
                    "duration": 0.125
                },
                {
                    "name": "A3",
                    "midi": 57,
                    "time": 111.5,
                    "velocity": 0.49606299212598426,
                    "duration": 0.125
                },
                {
                    "name": "F4",
                    "midi": 65,
                    "time": 111.625,
                    "velocity": 0.4015748031496063,
                    "duration": 0.125
                },
                {
                    "name": "C4",
                    "midi": 60,
                    "time": 111.75,
                    "velocity": 0.4015748031496063,
                    "duration": 0.125
                },
                {
                    "name": "F4",
                    "midi": 65,
                    "time": 111.875,
                    "velocity": 0.4015748031496063,
                    "duration": 0.125
                },
                {
                    "name": "A#3",
                    "midi": 58,
                    "time": 112,
                    "velocity": 0.4566929133858268,
                    "duration": 0.125
                },
                {
                    "name": "F4",
                    "midi": 65,
                    "time": 112.125,
                    "velocity": 0.3543307086614173,
                    "duration": 0.125
                },
                {
                    "name": "D4",
                    "midi": 62,
                    "time": 112.25,
                    "velocity": 0.3543307086614173,
                    "duration": 0.125
                },
                {
                    "name": "F4",
                    "midi": 65,
                    "time": 112.375,
                    "velocity": 0.3543307086614173,
                    "duration": 0.125
                },
                {
                    "name": "A3",
                    "midi": 57,
                    "time": 112.5,
                    "velocity": 0.4015748031496063,
                    "duration": 0.125
                },
                {
                    "name": "F#4",
                    "midi": 66,
                    "time": 112.625,
                    "velocity": 0.3464566929133858,
                    "duration": 0.125
                },
                {
                    "name": "C4",
                    "midi": 60,
                    "time": 112.75,
                    "velocity": 0.3464566929133858,
                    "duration": 0.125
                },
                {
                    "name": "F#4",
                    "midi": 66,
                    "time": 112.875,
                    "velocity": 0.3464566929133858,
                    "duration": 0.125
                },
                {
                    "name": "G3",
                    "midi": 55,
                    "time": 113,
                    "velocity": 0.4015748031496063,
                    "duration": 0.125
                },
                {
                    "name": "F4",
                    "midi": 65,
                    "time": 113.125,
                    "velocity": 0.33858267716535434,
                    "duration": 0.125
                },
                {
                    "name": "D4",
                    "midi": 62,
                    "time": 113.25,
                    "velocity": 0.33858267716535434,
                    "duration": 0.125
                },
                {
                    "name": "F4",
                    "midi": 65,
                    "time": 113.375,
                    "velocity": 0.33858267716535434,
                    "duration": 0.125
                },
                {
                    "name": "C4",
                    "midi": 60,
                    "time": 113.5,
                    "velocity": 0.4015748031496063,
                    "duration": 0.125
                },
                {
                    "name": "G4",
                    "midi": 67,
                    "time": 113.625,
                    "velocity": 0.33858267716535434,
                    "duration": 0.125
                },
                {
                    "name": "E4",
                    "midi": 64,
                    "time": 113.75,
                    "velocity": 0.33858267716535434,
                    "duration": 0.125
                },
                {
                    "name": "G4",
                    "midi": 67,
                    "time": 113.875,
                    "velocity": 0.33858267716535434,
                    "duration": 0.125
                },
                {
                    "name": "F3",
                    "midi": 53,
                    "time": 114,
                    "velocity": 0.3700787401574803,
                    "duration": 0.125
                },
                {
                    "name": "F4",
                    "midi": 65,
                    "time": 114.125,
                    "velocity": 0.3228346456692913,
                    "duration": 0.125
                },
                {
                    "name": "A3",
                    "midi": 57,
                    "time": 114.25,
                    "velocity": 0.3228346456692913,
                    "duration": 0.125
                },
                {
                    "name": "F4",
                    "midi": 65,
                    "time": 114.375,
                    "velocity": 0.3228346456692913,
                    "duration": 0.125
                },
                {
                    "name": "A#3",
                    "midi": 58,
                    "time": 114.5,
                    "velocity": 0.3700787401574803,
                    "duration": 0.125
                },
                {
                    "name": "G4",
                    "midi": 67,
                    "time": 114.625,
                    "velocity": 0.3228346456692913,
                    "duration": 0.125
                },
                {
                    "name": "D4",
                    "midi": 62,
                    "time": 114.75,
                    "velocity": 0.3228346456692913,
                    "duration": 0.125
                },
                {
                    "name": "G4",
                    "midi": 67,
                    "time": 114.875,
                    "velocity": 0.3228346456692913,
                    "duration": 0.125
                },
                {
                    "name": "C4",
                    "midi": 60,
                    "time": 115,
                    "velocity": 0.3700787401574803,
                    "duration": 0.125
                },
                {
                    "name": "A4",
                    "midi": 69,
                    "time": 115.125,
                    "velocity": 0.31496062992125984,
                    "duration": 0.125
                },
                {
                    "name": "F4",
                    "midi": 65,
                    "time": 115.25,
                    "velocity": 0.31496062992125984,
                    "duration": 0.125
                },
                {
                    "name": "A4",
                    "midi": 69,
                    "time": 115.375,
                    "velocity": 0.31496062992125984,
                    "duration": 0.125
                },
                {
                    "name": "C4",
                    "midi": 60,
                    "time": 115.5,
                    "velocity": 0.3700787401574803,
                    "duration": 0.125
                },
                {
                    "name": "G4",
                    "midi": 67,
                    "time": 115.625,
                    "velocity": 0.33070866141732286,
                    "duration": 0.125
                },
                {
                    "name": "E4",
                    "midi": 64,
                    "time": 115.75,
                    "velocity": 0.33070866141732286,
                    "duration": 0.125
                },
                {
                    "name": "G4",
                    "midi": 67,
                    "time": 115.875,
                    "velocity": 0.33070866141732286,
                    "duration": 0.125
                },
                {
                    "name": "A3",
                    "midi": 57,
                    "time": 116,
                    "velocity": 0.3700787401574803,
                    "duration": 0.125
                },
                {
                    "name": "F4",
                    "midi": 65,
                    "time": 116.125,
                    "velocity": 0.3228346456692913,
                    "duration": 0.125
                },
                {
                    "name": "C4",
                    "midi": 60,
                    "time": 116.25,
                    "velocity": 0.3228346456692913,
                    "duration": 0.125
                },
                {
                    "name": "F4",
                    "midi": 65,
                    "time": 116.375,
                    "velocity": 0.3228346456692913,
                    "duration": 0.125
                },
                {
                    "name": "A#3",
                    "midi": 58,
                    "time": 116.5,
                    "velocity": 0.3700787401574803,
                    "duration": 0.125
                },
                {
                    "name": "F4",
                    "midi": 65,
                    "time": 116.625,
                    "velocity": 0.3228346456692913,
                    "duration": 0.125
                },
                {
                    "name": "D4",
                    "midi": 62,
                    "time": 116.75,
                    "velocity": 0.3228346456692913,
                    "duration": 0.125
                },
                {
                    "name": "F4",
                    "midi": 65,
                    "time": 116.875,
                    "velocity": 0.3228346456692913,
                    "duration": 0.125
                },
                {
                    "name": "C4",
                    "midi": 60,
                    "time": 117,
                    "velocity": 0.3700787401574803,
                    "duration": 0.125
                },
                {
                    "name": "A4",
                    "midi": 69,
                    "time": 117.125,
                    "velocity": 0.2992125984251969,
                    "duration": 0.125
                },
                {
                    "name": "F4",
                    "midi": 65,
                    "time": 117.25,
                    "velocity": 0.2992125984251969,
                    "duration": 0.125
                },
                {
                    "name": "A4",
                    "midi": 69,
                    "time": 117.375,
                    "velocity": 0.2992125984251969,
                    "duration": 0.125
                },
                {
                    "name": "C4",
                    "midi": 60,
                    "time": 117.5,
                    "velocity": 0.3700787401574803,
                    "duration": 0.125
                },
                {
                    "name": "E4",
                    "midi": 64,
                    "time": 117.625,
                    "velocity": 0.33070866141732286,
                    "duration": 0.125
                },
                {
                    "name": "C4",
                    "midi": 60,
                    "time": 117.75,
                    "velocity": 0.33070866141732286,
                    "duration": 0.125
                },
                {
                    "name": "E4",
                    "midi": 64,
                    "time": 117.875,
                    "velocity": 0.33070866141732286,
                    "duration": 0.125
                },
                {
                    "name": "F3",
                    "midi": 53,
                    "time": 118,
                    "velocity": 0.30708661417322836,
                    "duration": 0.5
                },
                {
                    "name": "F4",
                    "midi": 65,
                    "time": 118,
                    "velocity": 0.3700787401574803,
                    "duration": 0.24791666666666856
                },
                {
                    "name": "A#1",
                    "midi": 34,
                    "time": 120.5,
                    "velocity": 0.4645669291338583,
                    "duration": 0.125
                },
                {
                    "name": "A#2",
                    "midi": 46,
                    "time": 120.5,
                    "velocity": 0.5511811023622047,
                    "duration": 0.125
                },
                {
                    "name": "C2",
                    "midi": 36,
                    "time": 121,
                    "velocity": 0.41732283464566927,
                    "duration": 0.125
                },
                {
                    "name": "C3",
                    "midi": 48,
                    "time": 121,
                    "velocity": 0.49606299212598426,
                    "duration": 0.125
                },
                {
                    "name": "C3",
                    "midi": 48,
                    "time": 121.5,
                    "velocity": 0.49606299212598426,
                    "duration": 0.125
                },
                {
                    "name": "C2",
                    "midi": 36,
                    "time": 121.5,
                    "velocity": 0.41732283464566927,
                    "duration": 0.125
                },
                {
                    "name": "F1",
                    "midi": 29,
                    "time": 122,
                    "velocity": 0.3937007874015748,
                    "duration": 0.5
                },
                {
                    "name": "F2",
                    "midi": 41,
                    "time": 122,
                    "velocity": 0.3937007874015748,
                    "duration": 0.5
                },
                {
                    "name": "A#1",
                    "midi": 34,
                    "time": 124.5,
                    "velocity": 0.4645669291338583,
                    "duration": 0.125
                },
                {
                    "name": "A#2",
                    "midi": 46,
                    "time": 124.5,
                    "velocity": 0.5511811023622047,
                    "duration": 0.125
                },
                {
                    "name": "C2",
                    "midi": 36,
                    "time": 125,
                    "velocity": 0.41732283464566927,
                    "duration": 0.125
                },
                {
                    "name": "C3",
                    "midi": 48,
                    "time": 125,
                    "velocity": 0.49606299212598426,
                    "duration": 0.125
                },
                {
                    "name": "A#3",
                    "midi": 58,
                    "time": 125.5,
                    "velocity": 0.49606299212598426,
                    "duration": 0.25
                },
                {
                    "name": "C3",
                    "midi": 48,
                    "time": 125.5,
                    "velocity": 0.41732283464566927,
                    "duration": 0.25
                },
                {
                    "name": "F3",
                    "midi": 53,
                    "time": 126,
                    "velocity": 0.4409448818897638,
                    "duration": 0.953125
                },
                {
                    "name": "F2",
                    "midi": 41,
                    "time": 126.953125,
                    "velocity": 0.3858267716535433,
                    "duration": 0.296875
                },
                {
                    "name": "A2",
                    "midi": 45,
                    "time": 126.96875,
                    "velocity": 0.41732283464566927,
                    "duration": 0.2604166666666714
                },
                {
                    "name": "C3",
                    "midi": 48,
                    "time": 126.984375,
                    "velocity": 0.4409448818897638,
                    "duration": 0.265625
                },
                {
                    "name": "F3",
                    "midi": 53,
                    "time": 127,
                    "velocity": 0.47244094488188976,
                    "duration": 0.25
                },
                {
                    "name": "C3",
                    "midi": 48,
                    "time": 127.953125,
                    "velocity": 0.3543307086614173,
                    "duration": 0.171875
                },
                {
                    "name": "E3",
                    "midi": 52,
                    "time": 127.96875,
                    "velocity": 0.3779527559055118,
                    "duration": 0.15625
                },
                {
                    "name": "G3",
                    "midi": 55,
                    "time": 127.984375,
                    "velocity": 0.4015748031496063,
                    "duration": 0.140625
                },
                {
                    "name": "C4",
                    "midi": 60,
                    "time": 128,
                    "velocity": 0.41732283464566927,
                    "duration": 0.125
                },
                {
                    "name": "C4",
                    "midi": 60,
                    "time": 129,
                    "velocity": 0.3464566929133858,
                    "duration": 0.125
                },
                {
                    "name": "A#4",
                    "midi": 70,
                    "time": 129.125,
                    "velocity": 0.29133858267716534,
                    "duration": 0.125
                },
                {
                    "name": "G4",
                    "midi": 67,
                    "time": 129.25,
                    "velocity": 0.29133858267716534,
                    "duration": 0.125
                },
                {
                    "name": "A#4",
                    "midi": 70,
                    "time": 129.375,
                    "velocity": 0.29133858267716534,
                    "duration": 0.125
                },
                {
                    "name": "C4",
                    "midi": 60,
                    "time": 129.5,
                    "velocity": 0.3464566929133858,
                    "duration": 0.125
                },
                {
                    "name": "A#4",
                    "midi": 70,
                    "time": 129.625,
                    "velocity": 0.30708661417322836,
                    "duration": 0.125
                },
                {
                    "name": "G4",
                    "midi": 67,
                    "time": 129.75,
                    "velocity": 0.30708661417322836,
                    "duration": 0.125
                },
                {
                    "name": "A#4",
                    "midi": 70,
                    "time": 129.875,
                    "velocity": 0.30708661417322836,
                    "duration": 0.125
                },
                {
                    "name": "C4",
                    "midi": 60,
                    "time": 130,
                    "velocity": 0.3464566929133858,
                    "duration": 0.125
                },
                {
                    "name": "A4",
                    "midi": 69,
                    "time": 130.125,
                    "velocity": 0.29133858267716534,
                    "duration": 0.125
                },
                {
                    "name": "F4",
                    "midi": 65,
                    "time": 130.25,
                    "velocity": 0.29133858267716534,
                    "duration": 0.125
                },
                {
                    "name": "A4",
                    "midi": 69,
                    "time": 130.375,
                    "velocity": 0.29133858267716534,
                    "duration": 0.125
                },
                {
                    "name": "C4",
                    "midi": 60,
                    "time": 130.5,
                    "velocity": 0.3464566929133858,
                    "duration": 0.125
                },
                {
                    "name": "A4",
                    "midi": 69,
                    "time": 130.625,
                    "velocity": 0.30708661417322836,
                    "duration": 0.125
                },
                {
                    "name": "F4",
                    "midi": 65,
                    "time": 130.75,
                    "velocity": 0.30708661417322836,
                    "duration": 0.125
                },
                {
                    "name": "A4",
                    "midi": 69,
                    "time": 130.875,
                    "velocity": 0.30708661417322836,
                    "duration": 0.125
                },
                {
                    "name": "C4",
                    "midi": 60,
                    "time": 131,
                    "velocity": 0.3464566929133858,
                    "duration": 0.125
                },
                {
                    "name": "G4",
                    "midi": 67,
                    "time": 131.125,
                    "velocity": 0.29133858267716534,
                    "duration": 0.125
                },
                {
                    "name": "E4",
                    "midi": 64,
                    "time": 131.25,
                    "velocity": 0.29133858267716534,
                    "duration": 0.125
                },
                {
                    "name": "G4",
                    "midi": 67,
                    "time": 131.375,
                    "velocity": 0.29133858267716534,
                    "duration": 0.125
                },
                {
                    "name": "C4",
                    "midi": 60,
                    "time": 131.5,
                    "velocity": 0.3464566929133858,
                    "duration": 0.125
                },
                {
                    "name": "G4",
                    "midi": 67,
                    "time": 131.625,
                    "velocity": 0.30708661417322836,
                    "duration": 0.125
                },
                {
                    "name": "E4",
                    "midi": 64,
                    "time": 131.75,
                    "velocity": 0.30708661417322836,
                    "duration": 0.125
                },
                {
                    "name": "G4",
                    "midi": 67,
                    "time": 131.875,
                    "velocity": 0.30708661417322836,
                    "duration": 0.125
                },
                {
                    "name": "A3",
                    "midi": 57,
                    "time": 132,
                    "velocity": 0.3464566929133858,
                    "duration": 0.125
                },
                {
                    "name": "D#4",
                    "midi": 63,
                    "time": 132.125,
                    "velocity": 0.30708661417322836,
                    "duration": 0.125
                },
                {
                    "name": "C4",
                    "midi": 60,
                    "time": 132.25,
                    "velocity": 0.30708661417322836,
                    "duration": 0.125
                },
                {
                    "name": "D#4",
                    "midi": 63,
                    "time": 132.375,
                    "velocity": 0.30708661417322836,
                    "duration": 0.125
                },
                {
                    "name": "A3",
                    "midi": 57,
                    "time": 132.5,
                    "velocity": 0.3464566929133858,
                    "duration": 0.125
                },
                {
                    "name": "D#4",
                    "midi": 63,
                    "time": 132.625,
                    "velocity": 0.30708661417322836,
                    "duration": 0.125
                },
                {
                    "name": "C4",
                    "midi": 60,
                    "time": 132.75,
                    "velocity": 0.30708661417322836,
                    "duration": 0.125
                },
                {
                    "name": "D#4",
                    "midi": 63,
                    "time": 132.875,
                    "velocity": 0.30708661417322836,
                    "duration": 0.125
                },
                {
                    "name": "A3",
                    "midi": 57,
                    "time": 133,
                    "velocity": 0.3464566929133858,
                    "duration": 0.125
                },
                {
                    "name": "D#4",
                    "midi": 63,
                    "time": 133.125,
                    "velocity": 0.31496062992125984,
                    "duration": 0.125
                },
                {
                    "name": "C4",
                    "midi": 60,
                    "time": 133.25,
                    "velocity": 0.3228346456692913,
                    "duration": 0.125
                },
                {
                    "name": "D#4",
                    "midi": 63,
                    "time": 133.375,
                    "velocity": 0.33070866141732286,
                    "duration": 0.125
                },
                {
                    "name": "A3",
                    "midi": 57,
                    "time": 133.5,
                    "velocity": 0.3858267716535433,
                    "duration": 0.125
                },
                {
                    "name": "D#4",
                    "midi": 63,
                    "time": 133.625,
                    "velocity": 0.3543307086614173,
                    "duration": 0.125
                },
                {
                    "name": "C4",
                    "midi": 60,
                    "time": 133.75,
                    "velocity": 0.36220472440944884,
                    "duration": 0.125
                },
                {
                    "name": "D#4",
                    "midi": 63,
                    "time": 133.875,
                    "velocity": 0.3700787401574803,
                    "duration": 0.125
                },
                {
                    "name": "A#3",
                    "midi": 58,
                    "time": 134,
                    "velocity": 0.4330708661417323,
                    "duration": 0.125
                },
                {
                    "name": "G4",
                    "midi": 67,
                    "time": 134.125,
                    "velocity": 0.3779527559055118,
                    "duration": 0.125
                },
                {
                    "name": "D4",
                    "midi": 62,
                    "time": 134.25,
                    "velocity": 0.3779527559055118,
                    "duration": 0.125
                },
                {
                    "name": "G4",
                    "midi": 67,
                    "time": 134.375,
                    "velocity": 0.3779527559055118,
                    "duration": 0.125
                },
                {
                    "name": "A#3",
                    "midi": 58,
                    "time": 134.5,
                    "velocity": 0.4330708661417323,
                    "duration": 0.125
                },
                {
                    "name": "G4",
                    "midi": 67,
                    "time": 134.625,
                    "velocity": 0.3779527559055118,
                    "duration": 0.125
                },
                {
                    "name": "D4",
                    "midi": 62,
                    "time": 134.75,
                    "velocity": 0.3779527559055118,
                    "duration": 0.125
                },
                {
                    "name": "G4",
                    "midi": 67,
                    "time": 134.875,
                    "velocity": 0.3779527559055118,
                    "duration": 0.125
                },
                {
                    "name": "A#3",
                    "midi": 58,
                    "time": 135,
                    "velocity": 0.4330708661417323,
                    "duration": 0.125
                },
                {
                    "name": "G4",
                    "midi": 67,
                    "time": 135.125,
                    "velocity": 0.3779527559055118,
                    "duration": 0.125
                },
                {
                    "name": "D4",
                    "midi": 62,
                    "time": 135.25,
                    "velocity": 0.3779527559055118,
                    "duration": 0.125
                },
                {
                    "name": "G4",
                    "midi": 67,
                    "time": 135.375,
                    "velocity": 0.3779527559055118,
                    "duration": 0.125
                },
                {
                    "name": "A#3",
                    "midi": 58,
                    "time": 135.5,
                    "velocity": 0.4330708661417323,
                    "duration": 0.125
                },
                {
                    "name": "G4",
                    "midi": 67,
                    "time": 135.625,
                    "velocity": 0.3779527559055118,
                    "duration": 0.125
                },
                {
                    "name": "D4",
                    "midi": 62,
                    "time": 135.75,
                    "velocity": 0.3779527559055118,
                    "duration": 0.125
                },
                {
                    "name": "G4",
                    "midi": 67,
                    "time": 135.875,
                    "velocity": 0.3779527559055118,
                    "duration": 0.125
                },
                {
                    "name": "A#3",
                    "midi": 58,
                    "time": 136,
                    "velocity": 0.4330708661417323,
                    "duration": 0.125
                },
                {
                    "name": "G4",
                    "midi": 67,
                    "time": 136.125,
                    "velocity": 0.3543307086614173,
                    "duration": 0.125
                },
                {
                    "name": "E4",
                    "midi": 64,
                    "time": 136.25,
                    "velocity": 0.3543307086614173,
                    "duration": 0.125
                },
                {
                    "name": "G4",
                    "midi": 67,
                    "time": 136.375,
                    "velocity": 0.3543307086614173,
                    "duration": 0.125
                },
                {
                    "name": "A#3",
                    "midi": 58,
                    "time": 136.5,
                    "velocity": 0.4094488188976378,
                    "duration": 0.125
                },
                {
                    "name": "G4",
                    "midi": 67,
                    "time": 136.625,
                    "velocity": 0.33070866141732286,
                    "duration": 0.125
                },
                {
                    "name": "E4",
                    "midi": 64,
                    "time": 136.75,
                    "velocity": 0.33070866141732286,
                    "duration": 0.125
                },
                {
                    "name": "G4",
                    "midi": 67,
                    "time": 136.875,
                    "velocity": 0.33070866141732286,
                    "duration": 0.125
                },
                {
                    "name": "A3",
                    "midi": 57,
                    "time": 137,
                    "velocity": 0.4330708661417323,
                    "duration": 0.125
                },
                {
                    "name": "F4",
                    "midi": 65,
                    "time": 137.125,
                    "velocity": 0.36220472440944884,
                    "duration": 0.125
                },
                {
                    "name": "C4",
                    "midi": 60,
                    "time": 137.25,
                    "velocity": 0.36220472440944884,
                    "duration": 0.125
                },
                {
                    "name": "F4",
                    "midi": 65,
                    "time": 137.375,
                    "velocity": 0.36220472440944884,
                    "duration": 0.125
                },
                {
                    "name": "A3",
                    "midi": 57,
                    "time": 137.5,
                    "velocity": 0.4330708661417323,
                    "duration": 0.125
                },
                {
                    "name": "F4",
                    "midi": 65,
                    "time": 137.625,
                    "velocity": 0.3779527559055118,
                    "duration": 0.125
                },
                {
                    "name": "C4",
                    "midi": 60,
                    "time": 137.75,
                    "velocity": 0.3779527559055118,
                    "duration": 0.125
                },
                {
                    "name": "F4",
                    "midi": 65,
                    "time": 137.875,
                    "velocity": 0.33858267716535434,
                    "duration": 0.125
                },
                {
                    "name": "E3",
                    "midi": 52,
                    "time": 138,
                    "velocity": 0.3937007874015748,
                    "duration": 0.125
                },
                {
                    "name": "C4",
                    "midi": 60,
                    "time": 138.125,
                    "velocity": 0.2992125984251969,
                    "duration": 0.125
                },
                {
                    "name": "G3",
                    "midi": 55,
                    "time": 138.25,
                    "velocity": 0.2992125984251969,
                    "duration": 0.125
                },
                {
                    "name": "C4",
                    "midi": 60,
                    "time": 138.375,
                    "velocity": 0.2992125984251969,
                    "duration": 0.125
                },
                {
                    "name": "F3",
                    "midi": 53,
                    "time": 138.5,
                    "velocity": 0.3779527559055118,
                    "duration": 0.125
                },
                {
                    "name": "C4",
                    "midi": 60,
                    "time": 138.625,
                    "velocity": 0.31496062992125984,
                    "duration": 0.125
                },
                {
                    "name": "A3",
                    "midi": 57,
                    "time": 138.75,
                    "velocity": 0.31496062992125984,
                    "duration": 0.125
                },
                {
                    "name": "C4",
                    "midi": 60,
                    "time": 138.875,
                    "velocity": 0.2677165354330709,
                    "duration": 0.125
                },
                {
                    "name": "E3",
                    "midi": 52,
                    "time": 139,
                    "velocity": 0.31496062992125984,
                    "duration": 0.125
                },
                {
                    "name": "C4",
                    "midi": 60,
                    "time": 139.125,
                    "velocity": 0.2440944881889764,
                    "duration": 0.125
                },
                {
                    "name": "G3",
                    "midi": 55,
                    "time": 139.25,
                    "velocity": 0.2440944881889764,
                    "duration": 0.125
                },
                {
                    "name": "C4",
                    "midi": 60,
                    "time": 139.375,
                    "velocity": 0.2440944881889764,
                    "duration": 0.125
                },
                {
                    "name": "F3",
                    "midi": 53,
                    "time": 139.5,
                    "velocity": 0.2677165354330709,
                    "duration": 0.125
                },
                {
                    "name": "C4",
                    "midi": 60,
                    "time": 139.625,
                    "velocity": 0.2125984251968504,
                    "duration": 0.125
                },
                {
                    "name": "A3",
                    "midi": 57,
                    "time": 139.75,
                    "velocity": 0.2125984251968504,
                    "duration": 0.125
                },
                {
                    "name": "C4",
                    "midi": 60,
                    "time": 139.875,
                    "velocity": 0.2125984251968504,
                    "duration": 0.125
                },
                {
                    "name": "E3",
                    "midi": 52,
                    "time": 140,
                    "velocity": 0.41732283464566927,
                    "duration": 0.125
                },
                {
                    "name": "C4",
                    "midi": 60,
                    "time": 140.125,
                    "velocity": 0.31496062992125984,
                    "duration": 0.125
                },
                {
                    "name": "G3",
                    "midi": 55,
                    "time": 140.25,
                    "velocity": 0.31496062992125984,
                    "duration": 0.125
                },
                {
                    "name": "C4",
                    "midi": 60,
                    "time": 140.375,
                    "velocity": 0.31496062992125984,
                    "duration": 0.125
                },
                {
                    "name": "F3",
                    "midi": 53,
                    "time": 140.5,
                    "velocity": 0.3779527559055118,
                    "duration": 0.125
                },
                {
                    "name": "C4",
                    "midi": 60,
                    "time": 140.625,
                    "velocity": 0.31496062992125984,
                    "duration": 0.125
                },
                {
                    "name": "A3",
                    "midi": 57,
                    "time": 140.75,
                    "velocity": 0.31496062992125984,
                    "duration": 0.125
                },
                {
                    "name": "C4",
                    "midi": 60,
                    "time": 140.875,
                    "velocity": 0.2677165354330709,
                    "duration": 0.125
                },
                {
                    "name": "A#3",
                    "midi": 58,
                    "time": 141,
                    "velocity": 0.36220472440944884,
                    "duration": 0.125
                },
                {
                    "name": "G4",
                    "midi": 67,
                    "time": 141.125,
                    "velocity": 0.2755905511811024,
                    "duration": 0.125
                },
                {
                    "name": "D4",
                    "midi": 62,
                    "time": 141.25,
                    "velocity": 0.2755905511811024,
                    "duration": 0.125
                },
                {
                    "name": "G4",
                    "midi": 67,
                    "time": 141.375,
                    "velocity": 0.2755905511811024,
                    "duration": 0.125
                },
                {
                    "name": "B3",
                    "midi": 59,
                    "time": 141.5,
                    "velocity": 0.3543307086614173,
                    "duration": 0.125
                },
                {
                    "name": "G4",
                    "midi": 67,
                    "time": 141.625,
                    "velocity": 0.28346456692913385,
                    "duration": 0.125
                },
                {
                    "name": "D4",
                    "midi": 62,
                    "time": 141.75,
                    "velocity": 0.28346456692913385,
                    "duration": 0.125
                },
                {
                    "name": "G4",
                    "midi": 67,
                    "time": 141.875,
                    "velocity": 0.28346456692913385,
                    "duration": 0.125
                },
                {
                    "name": "C4",
                    "midi": 60,
                    "time": 142,
                    "velocity": 0.33858267716535434,
                    "duration": 0.125
                },
                {
                    "name": "G4",
                    "midi": 67,
                    "time": 142.125,
                    "velocity": 0.2677165354330709,
                    "duration": 0.125
                },
                {
                    "name": "E4",
                    "midi": 64,
                    "time": 142.25,
                    "velocity": 0.2677165354330709,
                    "duration": 0.125
                },
                {
                    "name": "G4",
                    "midi": 67,
                    "time": 142.375,
                    "velocity": 0.2677165354330709,
                    "duration": 0.125
                },
                {
                    "name": "C4",
                    "midi": 60,
                    "time": 142.5,
                    "velocity": 0.33070866141732286,
                    "duration": 0.125
                },
                {
                    "name": "G4",
                    "midi": 67,
                    "time": 142.625,
                    "velocity": 0.25196850393700787,
                    "duration": 0.125
                },
                {
                    "name": "E4",
                    "midi": 64,
                    "time": 142.75,
                    "velocity": 0.25196850393700787,
                    "duration": 0.125
                },
                {
                    "name": "G4",
                    "midi": 67,
                    "time": 142.875,
                    "velocity": 0.25196850393700787,
                    "duration": 0.125
                },
                {
                    "name": "C4",
                    "midi": 60,
                    "time": 143,
                    "velocity": 0.29133858267716534,
                    "duration": 0.125
                },
                {
                    "name": "D4",
                    "midi": 62,
                    "time": 143.125,
                    "velocity": 0.2283464566929134,
                    "duration": 0.125
                },
                {
                    "name": "A#3",
                    "midi": 58,
                    "time": 143.25,
                    "velocity": 0.2992125984251969,
                    "duration": 0.125
                },
                {
                    "name": "C4",
                    "midi": 60,
                    "time": 143.375,
                    "velocity": 0.25196850393700787,
                    "duration": 0.125
                },
                {
                    "name": "A3",
                    "midi": 57,
                    "time": 143.5,
                    "velocity": 0.2677165354330709,
                    "duration": 0.125
                },
                {
                    "name": "A#3",
                    "midi": 58,
                    "time": 143.625,
                    "velocity": 0.2125984251968504,
                    "duration": 0.125
                },
                {
                    "name": "G3",
                    "midi": 55,
                    "time": 143.75,
                    "velocity": 0.2677165354330709,
                    "duration": 0.125
                },
                {
                    "name": "A3",
                    "midi": 57,
                    "time": 143.875,
                    "velocity": 0.2204724409448819,
                    "duration": 0.125
                },
                {
                    "name": "F3",
                    "midi": 53,
                    "time": 144,
                    "velocity": 0.29133858267716534,
                    "duration": 0.125
                },
                {
                    "name": "C4",
                    "midi": 60,
                    "time": 144.125,
                    "velocity": 0.2440944881889764,
                    "duration": 0.125
                },
                {
                    "name": "A3",
                    "midi": 57,
                    "time": 144.25,
                    "velocity": 0.2204724409448819,
                    "duration": 0.125
                },
                {
                    "name": "C4",
                    "midi": 60,
                    "time": 144.375,
                    "velocity": 0.2204724409448819,
                    "duration": 0.125
                },
                {
                    "name": "F3",
                    "midi": 53,
                    "time": 144.5,
                    "velocity": 0.31496062992125984,
                    "duration": 0.125
                },
                {
                    "name": "C4",
                    "midi": 60,
                    "time": 144.625,
                    "velocity": 0.2440944881889764,
                    "duration": 0.125
                },
                {
                    "name": "A3",
                    "midi": 57,
                    "time": 144.75,
                    "velocity": 0.2440944881889764,
                    "duration": 0.125
                },
                {
                    "name": "C4",
                    "midi": 60,
                    "time": 144.875,
                    "velocity": 0.2440944881889764,
                    "duration": 0.125
                },
                {
                    "name": "G3",
                    "midi": 55,
                    "time": 145,
                    "velocity": 0.31496062992125984,
                    "duration": 0.125
                },
                {
                    "name": "C4",
                    "midi": 60,
                    "time": 145.125,
                    "velocity": 0.23622047244094488,
                    "duration": 0.125
                },
                {
                    "name": "A#3",
                    "midi": 58,
                    "time": 145.25,
                    "velocity": 0.23622047244094488,
                    "duration": 0.125
                },
                {
                    "name": "C4",
                    "midi": 60,
                    "time": 145.375,
                    "velocity": 0.23622047244094488,
                    "duration": 0.125
                },
                {
                    "name": "G3",
                    "midi": 55,
                    "time": 145.5,
                    "velocity": 0.31496062992125984,
                    "duration": 0.125
                },
                {
                    "name": "C4",
                    "midi": 60,
                    "time": 145.625,
                    "velocity": 0.25984251968503935,
                    "duration": 0.125
                },
                {
                    "name": "A#3",
                    "midi": 58,
                    "time": 145.75,
                    "velocity": 0.25984251968503935,
                    "duration": 0.125
                },
                {
                    "name": "C4",
                    "midi": 60,
                    "time": 145.875,
                    "velocity": 0.25984251968503935,
                    "duration": 0.125
                },
                {
                    "name": "F3",
                    "midi": 53,
                    "time": 146,
                    "velocity": 0.31496062992125984,
                    "duration": 0.125
                },
                {
                    "name": "C4",
                    "midi": 60,
                    "time": 146.125,
                    "velocity": 0.25196850393700787,
                    "duration": 0.125
                },
                {
                    "name": "A3",
                    "midi": 57,
                    "time": 146.25,
                    "velocity": 0.25196850393700787,
                    "duration": 0.125
                },
                {
                    "name": "C4",
                    "midi": 60,
                    "time": 146.375,
                    "velocity": 0.25196850393700787,
                    "duration": 0.125
                },
                {
                    "name": "F3",
                    "midi": 53,
                    "time": 146.5,
                    "velocity": 0.31496062992125984,
                    "duration": 0.125
                },
                {
                    "name": "C4",
                    "midi": 60,
                    "time": 146.625,
                    "velocity": 0.25984251968503935,
                    "duration": 0.125
                },
                {
                    "name": "A3",
                    "midi": 57,
                    "time": 146.75,
                    "velocity": 0.2755905511811024,
                    "duration": 0.125
                },
                {
                    "name": "C4",
                    "midi": 60,
                    "time": 146.875,
                    "velocity": 0.29133858267716534,
                    "duration": 0.125
                },
                {
                    "name": "G3",
                    "midi": 55,
                    "time": 147,
                    "velocity": 0.3700787401574803,
                    "duration": 0.125
                },
                {
                    "name": "C4",
                    "midi": 60,
                    "time": 147.125,
                    "velocity": 0.2755905511811024,
                    "duration": 0.125
                },
                {
                    "name": "A#3",
                    "midi": 58,
                    "time": 147.25,
                    "velocity": 0.2755905511811024,
                    "duration": 0.0625
                },
                {
                    "name": "C4",
                    "midi": 60,
                    "time": 147.375,
                    "velocity": 0.2755905511811024,
                    "duration": 0.0625
                },
                {
                    "name": "G3",
                    "midi": 55,
                    "time": 147.5,
                    "velocity": 0.3464566929133858,
                    "duration": 0.125
                },
                {
                    "name": "C4",
                    "midi": 60,
                    "time": 147.625,
                    "velocity": 0.25984251968503935,
                    "duration": 0.125
                },
                {
                    "name": "A#3",
                    "midi": 58,
                    "time": 147.75,
                    "velocity": 0.25984251968503935,
                    "duration": 0.0625
                },
                {
                    "name": "C4",
                    "midi": 60,
                    "time": 147.875,
                    "velocity": 0.25984251968503935,
                    "duration": 0.0625
                },
                {
                    "name": "F3",
                    "midi": 53,
                    "time": 148,
                    "velocity": 0.31496062992125984,
                    "duration": 0.125
                },
                {
                    "name": "C4",
                    "midi": 60,
                    "time": 148.125,
                    "velocity": 0.25196850393700787,
                    "duration": 0.125
                },
                {
                    "name": "A3",
                    "midi": 57,
                    "time": 148.25,
                    "velocity": 0.25196850393700787,
                    "duration": 0.125
                },
                {
                    "name": "C4",
                    "midi": 60,
                    "time": 148.375,
                    "velocity": 0.25196850393700787,
                    "duration": 0.125
                },
                {
                    "name": "F3",
                    "midi": 53,
                    "time": 148.5,
                    "velocity": 0.31496062992125984,
                    "duration": 0.125
                },
                {
                    "name": "C4",
                    "midi": 60,
                    "time": 148.625,
                    "velocity": 0.2440944881889764,
                    "duration": 0.125
                },
                {
                    "name": "A3",
                    "midi": 57,
                    "time": 148.75,
                    "velocity": 0.2440944881889764,
                    "duration": 0.125
                },
                {
                    "name": "C4",
                    "midi": 60,
                    "time": 148.875,
                    "velocity": 0.2440944881889764,
                    "duration": 0.125
                },
                {
                    "name": "G3",
                    "midi": 55,
                    "time": 149,
                    "velocity": 0.31496062992125984,
                    "duration": 0.125
                },
                {
                    "name": "C4",
                    "midi": 60,
                    "time": 149.125,
                    "velocity": 0.23622047244094488,
                    "duration": 0.125
                },
                {
                    "name": "A#3",
                    "midi": 58,
                    "time": 149.25,
                    "velocity": 0.23622047244094488,
                    "duration": 0.125
                },
                {
                    "name": "C4",
                    "midi": 60,
                    "time": 149.375,
                    "velocity": 0.23622047244094488,
                    "duration": 0.125
                },
                {
                    "name": "G3",
                    "midi": 55,
                    "time": 149.5,
                    "velocity": 0.31496062992125984,
                    "duration": 0.125
                },
                {
                    "name": "C4",
                    "midi": 60,
                    "time": 149.625,
                    "velocity": 0.25984251968503935,
                    "duration": 0.125
                },
                {
                    "name": "A#3",
                    "midi": 58,
                    "time": 149.75,
                    "velocity": 0.25984251968503935,
                    "duration": 0.125
                },
                {
                    "name": "C4",
                    "midi": 60,
                    "time": 149.875,
                    "velocity": 0.25984251968503935,
                    "duration": 0.125
                },
                {
                    "name": "F3",
                    "midi": 53,
                    "time": 150,
                    "velocity": 0.31496062992125984,
                    "duration": 0.0625
                },
                {
                    "name": "C4",
                    "midi": 60,
                    "time": 150.125,
                    "velocity": 0.25196850393700787,
                    "duration": 0.0625
                },
                {
                    "name": "A3",
                    "midi": 57,
                    "time": 150.25,
                    "velocity": 0.25196850393700787,
                    "duration": 0.0625
                },
                {
                    "name": "C4",
                    "midi": 60,
                    "time": 150.375,
                    "velocity": 0.25196850393700787,
                    "duration": 0.0625
                },
                {
                    "name": "F3",
                    "midi": 53,
                    "time": 150.5,
                    "velocity": 0.36220472440944884,
                    "duration": 0.0625
                },
                {
                    "name": "C4",
                    "midi": 60,
                    "time": 150.625,
                    "velocity": 0.2755905511811024,
                    "duration": 0.0625
                },
                {
                    "name": "A3",
                    "midi": 57,
                    "time": 150.75,
                    "velocity": 0.28346456692913385,
                    "duration": 0.0625
                },
                {
                    "name": "C4",
                    "midi": 60,
                    "time": 150.875,
                    "velocity": 0.2992125984251969,
                    "duration": 0.0625
                },
                {
                    "name": "G3",
                    "midi": 55,
                    "time": 151,
                    "velocity": 0.3858267716535433,
                    "duration": 0.125
                },
                {
                    "name": "C4",
                    "midi": 60,
                    "time": 151.125,
                    "velocity": 0.30708661417322836,
                    "duration": 0.125
                },
                {
                    "name": "A#3",
                    "midi": 58,
                    "time": 151.25,
                    "velocity": 0.30708661417322836,
                    "duration": 0.125
                },
                {
                    "name": "C4",
                    "midi": 60,
                    "time": 151.375,
                    "velocity": 0.30708661417322836,
                    "duration": 0.125
                },
                {
                    "name": "G3",
                    "midi": 55,
                    "time": 151.5,
                    "velocity": 0.3937007874015748,
                    "duration": 0.125
                },
                {
                    "name": "C4",
                    "midi": 60,
                    "time": 151.625,
                    "velocity": 0.31496062992125984,
                    "duration": 0.125
                },
                {
                    "name": "A#3",
                    "midi": 58,
                    "time": 151.75,
                    "velocity": 0.31496062992125984,
                    "duration": 0.125
                },
                {
                    "name": "C4",
                    "midi": 60,
                    "time": 151.875,
                    "velocity": 0.31496062992125984,
                    "duration": 0.125
                },
                {
                    "name": "F3",
                    "midi": 53,
                    "time": 152,
                    "velocity": 0.3779527559055118,
                    "duration": 0.125
                },
                {
                    "name": "C4",
                    "midi": 60,
                    "time": 152.125,
                    "velocity": 0.25196850393700787,
                    "duration": 0.125
                },
                {
                    "name": "A3",
                    "midi": 57,
                    "time": 152.25,
                    "velocity": 0.25196850393700787,
                    "duration": 0.125
                },
                {
                    "name": "C4",
                    "midi": 60,
                    "time": 152.375,
                    "velocity": 0.25196850393700787,
                    "duration": 0.125
                },
                {
                    "name": "F3",
                    "midi": 53,
                    "time": 152.5,
                    "velocity": 0.4094488188976378,
                    "duration": 0.125
                },
                {
                    "name": "C4",
                    "midi": 60,
                    "time": 152.625,
                    "velocity": 0.30708661417322836,
                    "duration": 0.125
                },
                {
                    "name": "A3",
                    "midi": 57,
                    "time": 152.75,
                    "velocity": 0.33070866141732286,
                    "duration": 0.125
                },
                {
                    "name": "C4",
                    "midi": 60,
                    "time": 152.875,
                    "velocity": 0.3543307086614173,
                    "duration": 0.125
                },
                {
                    "name": "A3",
                    "midi": 57,
                    "time": 153,
                    "velocity": 0.5118110236220472,
                    "duration": 0.125
                },
                {
                    "name": "F4",
                    "midi": 65,
                    "time": 153.125,
                    "velocity": 0.4330708661417323,
                    "duration": 0.125
                },
                {
                    "name": "C4",
                    "midi": 60,
                    "time": 153.25,
                    "velocity": 0.4330708661417323,
                    "duration": 0.125
                },
                {
                    "name": "F4",
                    "midi": 65,
                    "time": 153.375,
                    "velocity": 0.4330708661417323,
                    "duration": 0.125
                },
                {
                    "name": "A3",
                    "midi": 57,
                    "time": 153.5,
                    "velocity": 0.49606299212598426,
                    "duration": 0.125
                },
                {
                    "name": "F4",
                    "midi": 65,
                    "time": 153.625,
                    "velocity": 0.4015748031496063,
                    "duration": 0.125
                },
                {
                    "name": "C4",
                    "midi": 60,
                    "time": 153.75,
                    "velocity": 0.4015748031496063,
                    "duration": 0.125
                },
                {
                    "name": "F4",
                    "midi": 65,
                    "time": 153.875,
                    "velocity": 0.4015748031496063,
                    "duration": 0.125
                },
                {
                    "name": "A#3",
                    "midi": 58,
                    "time": 154,
                    "velocity": 0.4566929133858268,
                    "duration": 0.125
                },
                {
                    "name": "F4",
                    "midi": 65,
                    "time": 154.125,
                    "velocity": 0.3543307086614173,
                    "duration": 0.125
                },
                {
                    "name": "D4",
                    "midi": 62,
                    "time": 154.25,
                    "velocity": 0.3543307086614173,
                    "duration": 0.125
                },
                {
                    "name": "F4",
                    "midi": 65,
                    "time": 154.375,
                    "velocity": 0.3543307086614173,
                    "duration": 0.125
                },
                {
                    "name": "A3",
                    "midi": 57,
                    "time": 154.5,
                    "velocity": 0.4015748031496063,
                    "duration": 0.125
                },
                {
                    "name": "F#4",
                    "midi": 66,
                    "time": 154.625,
                    "velocity": 0.3464566929133858,
                    "duration": 0.125
                },
                {
                    "name": "C4",
                    "midi": 60,
                    "time": 154.75,
                    "velocity": 0.3464566929133858,
                    "duration": 0.125
                },
                {
                    "name": "F#4",
                    "midi": 66,
                    "time": 154.875,
                    "velocity": 0.3464566929133858,
                    "duration": 0.125
                },
                {
                    "name": "G3",
                    "midi": 55,
                    "time": 155,
                    "velocity": 0.4015748031496063,
                    "duration": 0.125
                },
                {
                    "name": "F4",
                    "midi": 65,
                    "time": 155.125,
                    "velocity": 0.33858267716535434,
                    "duration": 0.125
                },
                {
                    "name": "D4",
                    "midi": 62,
                    "time": 155.25,
                    "velocity": 0.33858267716535434,
                    "duration": 0.125
                },
                {
                    "name": "F4",
                    "midi": 65,
                    "time": 155.375,
                    "velocity": 0.33858267716535434,
                    "duration": 0.125
                },
                {
                    "name": "C4",
                    "midi": 60,
                    "time": 155.5,
                    "velocity": 0.4015748031496063,
                    "duration": 0.125
                },
                {
                    "name": "G4",
                    "midi": 67,
                    "time": 155.625,
                    "velocity": 0.33858267716535434,
                    "duration": 0.125
                },
                {
                    "name": "E4",
                    "midi": 64,
                    "time": 155.75,
                    "velocity": 0.33858267716535434,
                    "duration": 0.125
                },
                {
                    "name": "G4",
                    "midi": 67,
                    "time": 155.875,
                    "velocity": 0.33858267716535434,
                    "duration": 0.125
                },
                {
                    "name": "F3",
                    "midi": 53,
                    "time": 156,
                    "velocity": 0.3700787401574803,
                    "duration": 0.125
                },
                {
                    "name": "F4",
                    "midi": 65,
                    "time": 156.125,
                    "velocity": 0.3228346456692913,
                    "duration": 0.125
                },
                {
                    "name": "A3",
                    "midi": 57,
                    "time": 156.25,
                    "velocity": 0.3228346456692913,
                    "duration": 0.125
                },
                {
                    "name": "F4",
                    "midi": 65,
                    "time": 156.375,
                    "velocity": 0.3228346456692913,
                    "duration": 0.125
                },
                {
                    "name": "A#3",
                    "midi": 58,
                    "time": 156.5,
                    "velocity": 0.3700787401574803,
                    "duration": 0.125
                },
                {
                    "name": "G4",
                    "midi": 67,
                    "time": 156.625,
                    "velocity": 0.3228346456692913,
                    "duration": 0.125
                },
                {
                    "name": "D4",
                    "midi": 62,
                    "time": 156.75,
                    "velocity": 0.3228346456692913,
                    "duration": 0.125
                },
                {
                    "name": "G4",
                    "midi": 67,
                    "time": 156.875,
                    "velocity": 0.3228346456692913,
                    "duration": 0.125
                },
                {
                    "name": "C4",
                    "midi": 60,
                    "time": 157,
                    "velocity": 0.3700787401574803,
                    "duration": 0.125
                },
                {
                    "name": "A4",
                    "midi": 69,
                    "time": 157.125,
                    "velocity": 0.31496062992125984,
                    "duration": 0.125
                },
                {
                    "name": "F4",
                    "midi": 65,
                    "time": 157.25,
                    "velocity": 0.31496062992125984,
                    "duration": 0.125
                },
                {
                    "name": "A4",
                    "midi": 69,
                    "time": 157.375,
                    "velocity": 0.31496062992125984,
                    "duration": 0.125
                },
                {
                    "name": "C4",
                    "midi": 60,
                    "time": 157.5,
                    "velocity": 0.3700787401574803,
                    "duration": 0.125
                },
                {
                    "name": "G4",
                    "midi": 67,
                    "time": 157.625,
                    "velocity": 0.33070866141732286,
                    "duration": 0.125
                },
                {
                    "name": "E4",
                    "midi": 64,
                    "time": 157.75,
                    "velocity": 0.33070866141732286,
                    "duration": 0.125
                },
                {
                    "name": "G4",
                    "midi": 67,
                    "time": 157.875,
                    "velocity": 0.33070866141732286,
                    "duration": 0.125
                },
                {
                    "name": "A3",
                    "midi": 57,
                    "time": 158,
                    "velocity": 0.3700787401574803,
                    "duration": 0.125
                },
                {
                    "name": "F4",
                    "midi": 65,
                    "time": 158.125,
                    "velocity": 0.3228346456692913,
                    "duration": 0.125
                },
                {
                    "name": "C4",
                    "midi": 60,
                    "time": 158.25,
                    "velocity": 0.3228346456692913,
                    "duration": 0.125
                },
                {
                    "name": "F4",
                    "midi": 65,
                    "time": 158.375,
                    "velocity": 0.3228346456692913,
                    "duration": 0.125
                },
                {
                    "name": "A#3",
                    "midi": 58,
                    "time": 158.5,
                    "velocity": 0.3700787401574803,
                    "duration": 0.125
                },
                {
                    "name": "F4",
                    "midi": 65,
                    "time": 158.625,
                    "velocity": 0.3228346456692913,
                    "duration": 0.125
                },
                {
                    "name": "D4",
                    "midi": 62,
                    "time": 158.75,
                    "velocity": 0.3228346456692913,
                    "duration": 0.125
                },
                {
                    "name": "F4",
                    "midi": 65,
                    "time": 158.875,
                    "velocity": 0.3228346456692913,
                    "duration": 0.125
                },
                {
                    "name": "C4",
                    "midi": 60,
                    "time": 159,
                    "velocity": 0.3700787401574803,
                    "duration": 0.125
                },
                {
                    "name": "A4",
                    "midi": 69,
                    "time": 159.125,
                    "velocity": 0.2992125984251969,
                    "duration": 0.125
                },
                {
                    "name": "F4",
                    "midi": 65,
                    "time": 159.25,
                    "velocity": 0.2992125984251969,
                    "duration": 0.125
                },
                {
                    "name": "A4",
                    "midi": 69,
                    "time": 159.375,
                    "velocity": 0.2992125984251969,
                    "duration": 0.125
                },
                {
                    "name": "C4",
                    "midi": 60,
                    "time": 159.5,
                    "velocity": 0.3700787401574803,
                    "duration": 0.125
                },
                {
                    "name": "E4",
                    "midi": 64,
                    "time": 159.625,
                    "velocity": 0.33070866141732286,
                    "duration": 0.125
                },
                {
                    "name": "C4",
                    "midi": 60,
                    "time": 159.75,
                    "velocity": 0.33070866141732286,
                    "duration": 0.125
                },
                {
                    "name": "E4",
                    "midi": 64,
                    "time": 159.875,
                    "velocity": 0.33070866141732286,
                    "duration": 0.125
                },
                {
                    "name": "F4",
                    "midi": 65,
                    "time": 160,
                    "velocity": 0.3700787401574803,
                    "duration": 0.24791666666666856
                },
                {
                    "name": "F3",
                    "midi": 53,
                    "time": 160,
                    "velocity": 0.30708661417322836,
                    "duration": 0.5
                },
                {
                    "name": "A#2",
                    "midi": 46,
                    "time": 162.5,
                    "velocity": 0.5511811023622047,
                    "duration": 0.125
                },
                {
                    "name": "A#1",
                    "midi": 34,
                    "time": 162.5,
                    "velocity": 0.4645669291338583,
                    "duration": 0.125
                },
                {
                    "name": "C2",
                    "midi": 36,
                    "time": 163,
                    "velocity": 0.41732283464566927,
                    "duration": 0.125
                },
                {
                    "name": "C3",
                    "midi": 48,
                    "time": 163,
                    "velocity": 0.49606299212598426,
                    "duration": 0.125
                },
                {
                    "name": "C3",
                    "midi": 48,
                    "time": 163.5,
                    "velocity": 0.49606299212598426,
                    "duration": 0.125
                },
                {
                    "name": "C2",
                    "midi": 36,
                    "time": 163.5,
                    "velocity": 0.41732283464566927,
                    "duration": 0.125
                },
                {
                    "name": "F1",
                    "midi": 29,
                    "time": 164,
                    "velocity": 0.3937007874015748,
                    "duration": 0.5
                },
                {
                    "name": "F2",
                    "midi": 41,
                    "time": 164,
                    "velocity": 0.3937007874015748,
                    "duration": 0.5
                },
                {
                    "name": "A#2",
                    "midi": 46,
                    "time": 166.5,
                    "velocity": 0.5511811023622047,
                    "duration": 0.125
                },
                {
                    "name": "A#1",
                    "midi": 34,
                    "time": 166.5,
                    "velocity": 0.4645669291338583,
                    "duration": 0.125
                },
                {
                    "name": "C2",
                    "midi": 36,
                    "time": 167,
                    "velocity": 0.41732283464566927,
                    "duration": 0.125
                },
                {
                    "name": "C3",
                    "midi": 48,
                    "time": 167,
                    "velocity": 0.49606299212598426,
                    "duration": 0.125
                },
                {
                    "name": "C3",
                    "midi": 48,
                    "time": 167.5,
                    "velocity": 0.41732283464566927,
                    "duration": 0.25
                },
                {
                    "name": "A#3",
                    "midi": 58,
                    "time": 167.5,
                    "velocity": 0.49606299212598426,
                    "duration": 0.25
                },
                {
                    "name": "F3",
                    "midi": 53,
                    "time": 168,
                    "velocity": 0.4409448818897638,
                    "duration": 0.953125
                },
                {
                    "name": "F2",
                    "midi": 41,
                    "time": 168.953125,
                    "velocity": 0.3858267716535433,
                    "duration": 0.296875
                },
                {
                    "name": "A2",
                    "midi": 45,
                    "time": 168.96875,
                    "velocity": 0.41732283464566927,
                    "duration": 0.2604166666666572
                },
                {
                    "name": "C3",
                    "midi": 48,
                    "time": 168.984375,
                    "velocity": 0.4409448818897638,
                    "duration": 0.265625
                },
                {
                    "name": "F3",
                    "midi": 53,
                    "time": 169,
                    "velocity": 0.47244094488188976,
                    "duration": 0.25
                }
            ],
            "controlChanges": {},
            "id": 2,
            "name": "Piano left",
            "instrumentNumber": 0,
            "instrument": "acoustic grand piano",
            "instrumentFamily": "piano",
            "channelNumber": 0,
            "isPercussion": false
        },
        {
            "startTime": 0,
            "duration": 0,
            "length": 0,
            "notes": [],
            "controlChanges": {
                "64": [
                    {
                        "number": 64,
                        "time": 2,
                        "value": 1
                    },
                    {
                        "number": 64,
                        "time": 2.5104166666666665,
                        "value": 0
                    },
                    {
                        "number": 64,
                        "time": 4,
                        "value": 1
                    },
                    {
                        "number": 64,
                        "time": 4.511458333333334,
                        "value": 0
                    },
                    {
                        "number": 64,
                        "time": 6.033333333333333,
                        "value": 1
                    },
                    {
                        "number": 64,
                        "time": 6.50625,
                        "value": 0
                    },
                    {
                        "number": 64,
                        "time": 6.565625,
                        "value": 1
                    },
                    {
                        "number": 64,
                        "time": 7.002083333333333,
                        "value": 0
                    },
                    {
                        "number": 64,
                        "time": 7.542708333333334,
                        "value": 1
                    },
                    {
                        "number": 64,
                        "time": 7.755208333333334,
                        "value": 0
                    },
                    {
                        "number": 64,
                        "time": 7.8031250000000005,
                        "value": 1
                    },
                    {
                        "number": 64,
                        "time": 8,
                        "value": 0
                    },
                    {
                        "number": 64,
                        "time": 8.520833333333334,
                        "value": 1
                    },
                    {
                        "number": 64,
                        "time": 9.017708333333333,
                        "value": 0
                    },
                    {
                        "number": 64,
                        "time": 9.078125,
                        "value": 1
                    },
                    {
                        "number": 64,
                        "time": 9.764583333333333,
                        "value": 0
                    },
                    {
                        "number": 64,
                        "time": 10.066666666666666,
                        "value": 1
                    },
                    {
                        "number": 64,
                        "time": 10.507291666666667,
                        "value": 0
                    },
                    {
                        "number": 64,
                        "time": 10.555208333333335,
                        "value": 1
                    },
                    {
                        "number": 64,
                        "time": 10.766666666666667,
                        "value": 0
                    },
                    {
                        "number": 64,
                        "time": 10.809375000000001,
                        "value": 1
                    },
                    {
                        "number": 64,
                        "time": 11.014583333333334,
                        "value": 0
                    },
                    {
                        "number": 64,
                        "time": 11.077083333333334,
                        "value": 1
                    },
                    {
                        "number": 64,
                        "time": 11.260416666666668,
                        "value": 0
                    },
                    {
                        "number": 64,
                        "time": 11.302083333333334,
                        "value": 1
                    },
                    {
                        "number": 64,
                        "time": 11.510416666666668,
                        "value": 0
                    },
                    {
                        "number": 64,
                        "time": 11.552083333333334,
                        "value": 1
                    },
                    {
                        "number": 64,
                        "time": 11.764583333333334,
                        "value": 0
                    },
                    {
                        "number": 64,
                        "time": 11.812500000000002,
                        "value": 1
                    },
                    {
                        "number": 64,
                        "time": 12.000000000000002,
                        "value": 0
                    },
                    {
                        "number": 64,
                        "time": 12.113541666666668,
                        "value": 1
                    },
                    {
                        "number": 64,
                        "time": 12.511458333333335,
                        "value": 0
                    },
                    {
                        "number": 64,
                        "time": 15.589583333333335,
                        "value": 1
                    },
                    {
                        "number": 64,
                        "time": 15.769791666666668,
                        "value": 0
                    },
                    {
                        "number": 64,
                        "time": 15.833333333333336,
                        "value": 1
                    },
                    {
                        "number": 64,
                        "time": 16.000000000000004,
                        "value": 0
                    },
                    {
                        "number": 64,
                        "time": 16.250000000000004,
                        "value": 1
                    },
                    {
                        "number": 64,
                        "time": 16.761458333333337,
                        "value": 0
                    },
                    {
                        "number": 64,
                        "time": 16.831250000000004,
                        "value": 1
                    },
                    {
                        "number": 64,
                        "time": 17.00729166666667,
                        "value": 0
                    },
                    {
                        "number": 64,
                        "time": 18.000000000000004,
                        "value": 1
                    },
                    {
                        "number": 64,
                        "time": 18.514583333333338,
                        "value": 0
                    },
                    {
                        "number": 64,
                        "time": 18.547916666666673,
                        "value": 1
                    },
                    {
                        "number": 64,
                        "time": 19.01145833333334,
                        "value": 0
                    },
                    {
                        "number": 64,
                        "time": 19.044791666666676,
                        "value": 1
                    },
                    {
                        "number": 64,
                        "time": 19.507291666666674,
                        "value": 0
                    },
                    {
                        "number": 64,
                        "time": 19.64583333333334,
                        "value": 1
                    },
                    {
                        "number": 64,
                        "time": 20.000000000000007,
                        "value": 0
                    },
                    {
                        "number": 64,
                        "time": 20.05208333333334,
                        "value": 1
                    },
                    {
                        "number": 64,
                        "time": 20.507291666666674,
                        "value": 0
                    },
                    {
                        "number": 64,
                        "time": 20.569791666666674,
                        "value": 1
                    },
                    {
                        "number": 64,
                        "time": 21.004166666666674,
                        "value": 0
                    },
                    {
                        "number": 64,
                        "time": 21.05208333333334,
                        "value": 1
                    },
                    {
                        "number": 64,
                        "time": 21.24270833333334,
                        "value": 0
                    },
                    {
                        "number": 64,
                        "time": 21.540625000000006,
                        "value": 1
                    },
                    {
                        "number": 64,
                        "time": 21.756250000000005,
                        "value": 0
                    },
                    {
                        "number": 64,
                        "time": 22.044791666666672,
                        "value": 1
                    },
                    {
                        "number": 64,
                        "time": 22.509375000000006,
                        "value": 0
                    },
                    {
                        "number": 64,
                        "time": 22.551041666666674,
                        "value": 1
                    },
                    {
                        "number": 64,
                        "time": 23.007291666666674,
                        "value": 0
                    },
                    {
                        "number": 64,
                        "time": 23.047916666666673,
                        "value": 1
                    },
                    {
                        "number": 64,
                        "time": 23.51145833333334,
                        "value": 0
                    },
                    {
                        "number": 64,
                        "time": 23.676041666666674,
                        "value": 1
                    },
                    {
                        "number": 64,
                        "time": 24.000000000000007,
                        "value": 0
                    },
                    {
                        "number": 64,
                        "time": 25.044791666666672,
                        "value": 1
                    },
                    {
                        "number": 64,
                        "time": 25.51041666666667,
                        "value": 0
                    },
                    {
                        "number": 64,
                        "time": 25.547916666666673,
                        "value": 1
                    },
                    {
                        "number": 64,
                        "time": 26.000000000000007,
                        "value": 0
                    },
                    {
                        "number": 64,
                        "time": 26.14687500000001,
                        "value": 1
                    },
                    {
                        "number": 64,
                        "time": 26.518750000000008,
                        "value": 0
                    },
                    {
                        "number": 64,
                        "time": 26.581250000000008,
                        "value": 1
                    },
                    {
                        "number": 64,
                        "time": 27.007291666666674,
                        "value": 0
                    },
                    {
                        "number": 64,
                        "time": 27.125000000000007,
                        "value": 1
                    },
                    {
                        "number": 64,
                        "time": 28.000000000000007,
                        "value": 0
                    },
                    {
                        "number": 64,
                        "time": 28.069791666666674,
                        "value": 1
                    },
                    {
                        "number": 64,
                        "time": 28.50937500000001,
                        "value": 0
                    },
                    {
                        "number": 64,
                        "time": 28.57708333333334,
                        "value": 1
                    },
                    {
                        "number": 64,
                        "time": 29.01145833333334,
                        "value": 0
                    },
                    {
                        "number": 64,
                        "time": 29.08437500000001,
                        "value": 1
                    },
                    {
                        "number": 64,
                        "time": 29.50625000000001,
                        "value": 0
                    },
                    {
                        "number": 64,
                        "time": 29.57395833333334,
                        "value": 1
                    },
                    {
                        "number": 64,
                        "time": 30.000000000000007,
                        "value": 0
                    },
                    {
                        "number": 64,
                        "time": 30.048958333333342,
                        "value": 1
                    },
                    {
                        "number": 64,
                        "time": 30.50937500000001,
                        "value": 0
                    },
                    {
                        "number": 64,
                        "time": 30.54375000000001,
                        "value": 1
                    },
                    {
                        "number": 64,
                        "time": 31.00625000000001,
                        "value": 0
                    },
                    {
                        "number": 64,
                        "time": 31.047916666666676,
                        "value": 1
                    },
                    {
                        "number": 64,
                        "time": 31.508333333333344,
                        "value": 0
                    },
                    {
                        "number": 64,
                        "time": 31.539583333333344,
                        "value": 1
                    },
                    {
                        "number": 64,
                        "time": 32.00833333333334,
                        "value": 0
                    },
                    {
                        "number": 64,
                        "time": 32.076041666666676,
                        "value": 1
                    },
                    {
                        "number": 64,
                        "time": 32.511458333333344,
                        "value": 0
                    },
                    {
                        "number": 64,
                        "time": 32.569791666666674,
                        "value": 1
                    },
                    {
                        "number": 64,
                        "time": 33.013541666666676,
                        "value": 0
                    },
                    {
                        "number": 64,
                        "time": 33.07916666666667,
                        "value": 1
                    },
                    {
                        "number": 64,
                        "time": 33.5125,
                        "value": 0
                    },
                    {
                        "number": 64,
                        "time": 33.565625000000004,
                        "value": 1
                    },
                    {
                        "number": 64,
                        "time": 34.003125000000004,
                        "value": 0
                    },
                    {
                        "number": 64,
                        "time": 35.007291666666674,
                        "value": 1
                    },
                    {
                        "number": 64,
                        "time": 35.26041666666667,
                        "value": 0
                    },
                    {
                        "number": 64,
                        "time": 35.31666666666667,
                        "value": 1
                    },
                    {
                        "number": 64,
                        "time": 35.515625,
                        "value": 0
                    },
                    {
                        "number": 64,
                        "time": 35.57395833333333,
                        "value": 1
                    },
                    {
                        "number": 64,
                        "time": 36,
                        "value": 0
                    },
                    {
                        "number": 64,
                        "time": 36.047916666666666,
                        "value": 1
                    },
                    {
                        "number": 64,
                        "time": 36.51770833333333,
                        "value": 0
                    },
                    {
                        "number": 64,
                        "time": 36.780208333333334,
                        "value": 1
                    },
                    {
                        "number": 64,
                        "time": 37.01770833333333,
                        "value": 0
                    },
                    {
                        "number": 64,
                        "time": 37.078125,
                        "value": 1
                    },
                    {
                        "number": 64,
                        "time": 37.255208333333336,
                        "value": 0
                    },
                    {
                        "number": 64,
                        "time": 37.583333333333336,
                        "value": 1
                    },
                    {
                        "number": 64,
                        "time": 37.76770833333334,
                        "value": 0
                    },
                    {
                        "number": 64,
                        "time": 38.06666666666667,
                        "value": 1
                    },
                    {
                        "number": 64,
                        "time": 40.00625,
                        "value": 0
                    },
                    {
                        "number": 64,
                        "time": 40.11354166666667,
                        "value": 1
                    },
                    {
                        "number": 64,
                        "time": 40.50729166666667,
                        "value": 0
                    },
                    {
                        "number": 64,
                        "time": 40.833333333333336,
                        "value": 1
                    },
                    {
                        "number": 64,
                        "time": 41.01041666666667,
                        "value": 0
                    },
                    {
                        "number": 64,
                        "time": 41.083333333333336,
                        "value": 1
                    },
                    {
                        "number": 64,
                        "time": 41.25416666666667,
                        "value": 0
                    },
                    {
                        "number": 64,
                        "time": 41.565625000000004,
                        "value": 1
                    },
                    {
                        "number": 64,
                        "time": 41.75833333333334,
                        "value": 0
                    },
                    {
                        "number": 64,
                        "time": 42.03333333333334,
                        "value": 1
                    },
                    {
                        "number": 64,
                        "time": 42.978125000000006,
                        "value": 0
                    },
                    {
                        "number": 64,
                        "time": 43.02604166666667,
                        "value": 1
                    },
                    {
                        "number": 64,
                        "time": 43.43750000000001,
                        "value": 0
                    },
                    {
                        "number": 64,
                        "time": 44.00000000000001,
                        "value": 1
                    },
                    {
                        "number": 64,
                        "time": 44.51041666666667,
                        "value": 0
                    },
                    {
                        "number": 64,
                        "time": 46.00000000000001,
                        "value": 1
                    },
                    {
                        "number": 64,
                        "time": 46.51145833333334,
                        "value": 0
                    },
                    {
                        "number": 64,
                        "time": 48.03333333333334,
                        "value": 1
                    },
                    {
                        "number": 64,
                        "time": 48.50625000000001,
                        "value": 0
                    },
                    {
                        "number": 64,
                        "time": 48.56562500000001,
                        "value": 1
                    },
                    {
                        "number": 64,
                        "time": 49.002083333333346,
                        "value": 0
                    },
                    {
                        "number": 64,
                        "time": 49.542708333333344,
                        "value": 1
                    },
                    {
                        "number": 64,
                        "time": 49.75520833333334,
                        "value": 0
                    },
                    {
                        "number": 64,
                        "time": 49.80312500000001,
                        "value": 1
                    },
                    {
                        "number": 64,
                        "time": 50.00000000000001,
                        "value": 0
                    },
                    {
                        "number": 64,
                        "time": 50.52083333333334,
                        "value": 1
                    },
                    {
                        "number": 64,
                        "time": 51.017708333333346,
                        "value": 0
                    },
                    {
                        "number": 64,
                        "time": 51.078125000000014,
                        "value": 1
                    },
                    {
                        "number": 64,
                        "time": 51.76458333333335,
                        "value": 0
                    },
                    {
                        "number": 64,
                        "time": 52.05520833333335,
                        "value": 1
                    },
                    {
                        "number": 64,
                        "time": 52.50729166666668,
                        "value": 0
                    },
                    {
                        "number": 64,
                        "time": 52.55520833333335,
                        "value": 1
                    },
                    {
                        "number": 64,
                        "time": 52.76666666666668,
                        "value": 0
                    },
                    {
                        "number": 64,
                        "time": 52.80937500000001,
                        "value": 1
                    },
                    {
                        "number": 64,
                        "time": 53.01458333333334,
                        "value": 0
                    },
                    {
                        "number": 64,
                        "time": 53.07708333333334,
                        "value": 1
                    },
                    {
                        "number": 64,
                        "time": 53.26041666666667,
                        "value": 0
                    },
                    {
                        "number": 64,
                        "time": 53.302083333333336,
                        "value": 1
                    },
                    {
                        "number": 64,
                        "time": 53.51041666666667,
                        "value": 0
                    },
                    {
                        "number": 64,
                        "time": 53.552083333333336,
                        "value": 1
                    },
                    {
                        "number": 64,
                        "time": 53.764583333333334,
                        "value": 0
                    },
                    {
                        "number": 64,
                        "time": 53.8125,
                        "value": 1
                    },
                    {
                        "number": 64,
                        "time": 54,
                        "value": 0
                    },
                    {
                        "number": 64,
                        "time": 54.11354166666667,
                        "value": 1
                    },
                    {
                        "number": 64,
                        "time": 54.51145833333334,
                        "value": 0
                    },
                    {
                        "number": 64,
                        "time": 54.60729166666667,
                        "value": 1
                    },
                    {
                        "number": 64,
                        "time": 55.005208333333336,
                        "value": 0
                    },
                    {
                        "number": 64,
                        "time": 57.58958333333334,
                        "value": 1
                    },
                    {
                        "number": 64,
                        "time": 57.7625,
                        "value": 0
                    },
                    {
                        "number": 64,
                        "time": 57.86979166666667,
                        "value": 1
                    },
                    {
                        "number": 64,
                        "time": 58.0125,
                        "value": 0
                    },
                    {
                        "number": 64,
                        "time": 58.25,
                        "value": 1
                    },
                    {
                        "number": 64,
                        "time": 58.76145833333333,
                        "value": 0
                    },
                    {
                        "number": 64,
                        "time": 58.83125,
                        "value": 1
                    },
                    {
                        "number": 64,
                        "time": 59.00729166666667,
                        "value": 0
                    },
                    {
                        "number": 64,
                        "time": 60,
                        "value": 1
                    },
                    {
                        "number": 64,
                        "time": 60.514583333333334,
                        "value": 0
                    },
                    {
                        "number": 64,
                        "time": 60.547916666666666,
                        "value": 1
                    },
                    {
                        "number": 64,
                        "time": 61.01145833333333,
                        "value": 0
                    },
                    {
                        "number": 64,
                        "time": 61.04479166666666,
                        "value": 1
                    },
                    {
                        "number": 64,
                        "time": 61.50729166666666,
                        "value": 0
                    },
                    {
                        "number": 64,
                        "time": 61.64583333333333,
                        "value": 1
                    },
                    {
                        "number": 64,
                        "time": 61.99999999999999,
                        "value": 0
                    },
                    {
                        "number": 64,
                        "time": 62.05208333333333,
                        "value": 1
                    },
                    {
                        "number": 64,
                        "time": 62.50729166666666,
                        "value": 0
                    },
                    {
                        "number": 64,
                        "time": 62.56979166666666,
                        "value": 1
                    },
                    {
                        "number": 64,
                        "time": 63.00416666666666,
                        "value": 0
                    },
                    {
                        "number": 64,
                        "time": 63.05208333333333,
                        "value": 1
                    },
                    {
                        "number": 64,
                        "time": 63.242708333333326,
                        "value": 0
                    },
                    {
                        "number": 64,
                        "time": 63.54062499999999,
                        "value": 1
                    },
                    {
                        "number": 64,
                        "time": 63.756249999999994,
                        "value": 0
                    },
                    {
                        "number": 64,
                        "time": 64.04479166666665,
                        "value": 1
                    },
                    {
                        "number": 64,
                        "time": 64.50937499999999,
                        "value": 0
                    },
                    {
                        "number": 64,
                        "time": 64.55104166666666,
                        "value": 1
                    },
                    {
                        "number": 64,
                        "time": 65.00729166666666,
                        "value": 0
                    },
                    {
                        "number": 64,
                        "time": 65.04791666666667,
                        "value": 1
                    },
                    {
                        "number": 64,
                        "time": 65.51145833333334,
                        "value": 0
                    },
                    {
                        "number": 64,
                        "time": 65.67604166666668,
                        "value": 1
                    },
                    {
                        "number": 64,
                        "time": 66.00000000000001,
                        "value": 0
                    },
                    {
                        "number": 64,
                        "time": 67.04479166666668,
                        "value": 1
                    },
                    {
                        "number": 64,
                        "time": 67.51041666666669,
                        "value": 0
                    },
                    {
                        "number": 64,
                        "time": 67.54791666666668,
                        "value": 1
                    },
                    {
                        "number": 64,
                        "time": 68.00000000000001,
                        "value": 0
                    },
                    {
                        "number": 64,
                        "time": 68.14687500000001,
                        "value": 1
                    },
                    {
                        "number": 64,
                        "time": 68.51875000000001,
                        "value": 0
                    },
                    {
                        "number": 64,
                        "time": 68.58125000000001,
                        "value": 1
                    },
                    {
                        "number": 64,
                        "time": 69.00729166666667,
                        "value": 0
                    },
                    {
                        "number": 64,
                        "time": 69.12500000000001,
                        "value": 1
                    },
                    {
                        "number": 64,
                        "time": 70.00000000000001,
                        "value": 0
                    },
                    {
                        "number": 64,
                        "time": 70.06979166666667,
                        "value": 1
                    },
                    {
                        "number": 64,
                        "time": 70.509375,
                        "value": 0
                    },
                    {
                        "number": 64,
                        "time": 70.57708333333333,
                        "value": 1
                    },
                    {
                        "number": 64,
                        "time": 71.01145833333334,
                        "value": 0
                    },
                    {
                        "number": 64,
                        "time": 71.08437500000001,
                        "value": 1
                    },
                    {
                        "number": 64,
                        "time": 71.50625000000001,
                        "value": 0
                    },
                    {
                        "number": 64,
                        "time": 71.57395833333334,
                        "value": 1
                    },
                    {
                        "number": 64,
                        "time": 72,
                        "value": 0
                    },
                    {
                        "number": 64,
                        "time": 72.04895833333333,
                        "value": 1
                    },
                    {
                        "number": 64,
                        "time": 72.50937499999999,
                        "value": 0
                    },
                    {
                        "number": 64,
                        "time": 72.54374999999999,
                        "value": 1
                    },
                    {
                        "number": 64,
                        "time": 73.00625,
                        "value": 0
                    },
                    {
                        "number": 64,
                        "time": 73.04791666666667,
                        "value": 1
                    },
                    {
                        "number": 64,
                        "time": 73.50833333333333,
                        "value": 0
                    },
                    {
                        "number": 64,
                        "time": 73.53958333333333,
                        "value": 1
                    },
                    {
                        "number": 64,
                        "time": 74.00833333333333,
                        "value": 0
                    },
                    {
                        "number": 64,
                        "time": 74.07604166666665,
                        "value": 1
                    },
                    {
                        "number": 64,
                        "time": 74.51145833333332,
                        "value": 0
                    },
                    {
                        "number": 64,
                        "time": 74.56979166666666,
                        "value": 1
                    },
                    {
                        "number": 64,
                        "time": 75.01354166666665,
                        "value": 0
                    },
                    {
                        "number": 64,
                        "time": 75.07916666666665,
                        "value": 1
                    },
                    {
                        "number": 64,
                        "time": 75.51249999999999,
                        "value": 0
                    },
                    {
                        "number": 64,
                        "time": 75.56562499999998,
                        "value": 1
                    },
                    {
                        "number": 64,
                        "time": 76.00312499999998,
                        "value": 0
                    },
                    {
                        "number": 64,
                        "time": 77.00729166666665,
                        "value": 1
                    },
                    {
                        "number": 64,
                        "time": 77.26041666666664,
                        "value": 0
                    },
                    {
                        "number": 64,
                        "time": 77.31666666666665,
                        "value": 1
                    },
                    {
                        "number": 64,
                        "time": 77.51562499999999,
                        "value": 0
                    },
                    {
                        "number": 64,
                        "time": 77.57395833333332,
                        "value": 1
                    },
                    {
                        "number": 64,
                        "time": 77.99999999999999,
                        "value": 0
                    },
                    {
                        "number": 64,
                        "time": 78.04791666666665,
                        "value": 1
                    },
                    {
                        "number": 64,
                        "time": 78.51770833333332,
                        "value": 0
                    },
                    {
                        "number": 64,
                        "time": 78.78020833333332,
                        "value": 1
                    },
                    {
                        "number": 64,
                        "time": 79.01770833333332,
                        "value": 0
                    },
                    {
                        "number": 64,
                        "time": 79.07812499999999,
                        "value": 1
                    },
                    {
                        "number": 64,
                        "time": 79.25520833333331,
                        "value": 0
                    },
                    {
                        "number": 64,
                        "time": 79.58333333333331,
                        "value": 1
                    },
                    {
                        "number": 64,
                        "time": 79.76770833333332,
                        "value": 0
                    },
                    {
                        "number": 64,
                        "time": 80.02916666666665,
                        "value": 1
                    },
                    {
                        "number": 64,
                        "time": 82.00625,
                        "value": 0
                    },
                    {
                        "number": 64,
                        "time": 82.11354166666666,
                        "value": 1
                    },
                    {
                        "number": 64,
                        "time": 82.50729166666666,
                        "value": 0
                    },
                    {
                        "number": 64,
                        "time": 82.83333333333333,
                        "value": 1
                    },
                    {
                        "number": 64,
                        "time": 83.01041666666666,
                        "value": 0
                    },
                    {
                        "number": 64,
                        "time": 83.08333333333333,
                        "value": 1
                    },
                    {
                        "number": 64,
                        "time": 83.25416666666666,
                        "value": 0
                    },
                    {
                        "number": 64,
                        "time": 83.565625,
                        "value": 1
                    },
                    {
                        "number": 64,
                        "time": 83.75833333333333,
                        "value": 0
                    },
                    {
                        "number": 64,
                        "time": 84.03333333333333,
                        "value": 1
                    },
                    {
                        "number": 64,
                        "time": 84.97812499999999,
                        "value": 0
                    },
                    {
                        "number": 64,
                        "time": 85.02604166666666,
                        "value": 1
                    },
                    {
                        "number": 64,
                        "time": 85.43749999999999,
                        "value": 0
                    },
                    {
                        "number": 64,
                        "time": 85.99999999999999,
                        "value": 1
                    },
                    {
                        "number": 64,
                        "time": 86.51041666666666,
                        "value": 0
                    },
                    {
                        "number": 64,
                        "time": 87.0375,
                        "value": 1
                    },
                    {
                        "number": 64,
                        "time": 88,
                        "value": 0
                    },
                    {
                        "number": 64,
                        "time": 88.08854166666667,
                        "value": 1
                    },
                    {
                        "number": 64,
                        "time": 89.009375,
                        "value": 0
                    },
                    {
                        "number": 64,
                        "time": 89.1875,
                        "value": 1
                    },
                    {
                        "number": 64,
                        "time": 90,
                        "value": 0
                    },
                    {
                        "number": 64,
                        "time": 90.059375,
                        "value": 1
                    },
                    {
                        "number": 64,
                        "time": 91.01354166666667,
                        "value": 0
                    },
                    {
                        "number": 64,
                        "time": 91.0625,
                        "value": 1
                    },
                    {
                        "number": 64,
                        "time": 91.50833333333334,
                        "value": 0
                    },
                    {
                        "number": 64,
                        "time": 91.55000000000001,
                        "value": 1
                    },
                    {
                        "number": 64,
                        "time": 92.01458333333335,
                        "value": 0
                    },
                    {
                        "number": 64,
                        "time": 92.06666666666668,
                        "value": 1
                    },
                    {
                        "number": 64,
                        "time": 93.02916666666668,
                        "value": 0
                    },
                    {
                        "number": 64,
                        "time": 93.08125000000001,
                        "value": 1
                    },
                    {
                        "number": 64,
                        "time": 94.01458333333335,
                        "value": 0
                    },
                    {
                        "number": 64,
                        "time": 94.06666666666668,
                        "value": 1
                    },
                    {
                        "number": 64,
                        "time": 95.02916666666668,
                        "value": 0
                    },
                    {
                        "number": 64,
                        "time": 95.08125000000001,
                        "value": 1
                    },
                    {
                        "number": 64,
                        "time": 96.00000000000001,
                        "value": 0
                    },
                    {
                        "number": 64,
                        "time": 96.10312500000002,
                        "value": 1
                    },
                    {
                        "number": 64,
                        "time": 96.50937500000002,
                        "value": 0
                    },
                    {
                        "number": 64,
                        "time": 96.60312500000002,
                        "value": 1
                    },
                    {
                        "number": 64,
                        "time": 97.00729166666669,
                        "value": 0
                    },
                    {
                        "number": 64,
                        "time": 97.1104166666667,
                        "value": 1
                    },
                    {
                        "number": 64,
                        "time": 97.51562500000003,
                        "value": 0
                    },
                    {
                        "number": 64,
                        "time": 97.62500000000003,
                        "value": 1
                    },
                    {
                        "number": 64,
                        "time": 98.00000000000003,
                        "value": 0
                    },
                    {
                        "number": 64,
                        "time": 98.10312500000003,
                        "value": 1
                    },
                    {
                        "number": 64,
                        "time": 98.50937500000003,
                        "value": 0
                    },
                    {
                        "number": 64,
                        "time": 98.60312500000003,
                        "value": 1
                    },
                    {
                        "number": 64,
                        "time": 99.0072916666667,
                        "value": 0
                    },
                    {
                        "number": 64,
                        "time": 99.11041666666671,
                        "value": 1
                    },
                    {
                        "number": 64,
                        "time": 99.51562500000004,
                        "value": 0
                    },
                    {
                        "number": 64,
                        "time": 99.62500000000004,
                        "value": 1
                    },
                    {
                        "number": 64,
                        "time": 100.0072916666667,
                        "value": 0
                    },
                    {
                        "number": 64,
                        "time": 100.11041666666671,
                        "value": 1
                    },
                    {
                        "number": 64,
                        "time": 100.51562500000004,
                        "value": 0
                    },
                    {
                        "number": 64,
                        "time": 100.62500000000004,
                        "value": 1
                    },
                    {
                        "number": 64,
                        "time": 101.05937500000005,
                        "value": 0
                    },
                    {
                        "number": 64,
                        "time": 102.04479166666671,
                        "value": 1
                    },
                    {
                        "number": 64,
                        "time": 102.51458333333338,
                        "value": 0
                    },
                    {
                        "number": 64,
                        "time": 102.56979166666672,
                        "value": 1
                    },
                    {
                        "number": 64,
                        "time": 103.01145833333338,
                        "value": 0
                    },
                    {
                        "number": 64,
                        "time": 103.04479166666671,
                        "value": 1
                    },
                    {
                        "number": 64,
                        "time": 103.50729166666672,
                        "value": 0
                    },
                    {
                        "number": 64,
                        "time": 103.64583333333339,
                        "value": 1
                    },
                    {
                        "number": 64,
                        "time": 104.00000000000006,
                        "value": 0
                    },
                    {
                        "number": 64,
                        "time": 104.05208333333339,
                        "value": 1
                    },
                    {
                        "number": 64,
                        "time": 104.50729166666672,
                        "value": 0
                    },
                    {
                        "number": 64,
                        "time": 104.56979166666672,
                        "value": 1
                    },
                    {
                        "number": 64,
                        "time": 105.00416666666672,
                        "value": 0
                    },
                    {
                        "number": 64,
                        "time": 105.05208333333339,
                        "value": 1
                    },
                    {
                        "number": 64,
                        "time": 105.24270833333338,
                        "value": 0
                    },
                    {
                        "number": 64,
                        "time": 105.54062500000005,
                        "value": 1
                    },
                    {
                        "number": 64,
                        "time": 105.75625000000005,
                        "value": 0
                    },
                    {
                        "number": 64,
                        "time": 106.04479166666671,
                        "value": 1
                    },
                    {
                        "number": 64,
                        "time": 106.50937500000005,
                        "value": 0
                    },
                    {
                        "number": 64,
                        "time": 106.55104166666672,
                        "value": 1
                    },
                    {
                        "number": 64,
                        "time": 107.00729166666672,
                        "value": 0
                    },
                    {
                        "number": 64,
                        "time": 107.04791666666672,
                        "value": 1
                    },
                    {
                        "number": 64,
                        "time": 107.5114583333334,
                        "value": 0
                    },
                    {
                        "number": 64,
                        "time": 107.67604166666673,
                        "value": 1
                    },
                    {
                        "number": 64,
                        "time": 108.00000000000007,
                        "value": 0
                    },
                    {
                        "number": 64,
                        "time": 109.04479166666674,
                        "value": 1
                    },
                    {
                        "number": 64,
                        "time": 109.51041666666674,
                        "value": 0
                    },
                    {
                        "number": 64,
                        "time": 109.54791666666674,
                        "value": 1
                    },
                    {
                        "number": 64,
                        "time": 110.00000000000007,
                        "value": 0
                    },
                    {
                        "number": 64,
                        "time": 110.14687500000007,
                        "value": 1
                    },
                    {
                        "number": 64,
                        "time": 110.51875000000007,
                        "value": 0
                    },
                    {
                        "number": 64,
                        "time": 110.58125000000007,
                        "value": 1
                    },
                    {
                        "number": 64,
                        "time": 111.00729166666673,
                        "value": 0
                    },
                    {
                        "number": 64,
                        "time": 111.12500000000007,
                        "value": 1
                    },
                    {
                        "number": 64,
                        "time": 112.00000000000007,
                        "value": 0
                    },
                    {
                        "number": 64,
                        "time": 112.06979166666673,
                        "value": 1
                    },
                    {
                        "number": 64,
                        "time": 112.50937500000006,
                        "value": 0
                    },
                    {
                        "number": 64,
                        "time": 112.57708333333339,
                        "value": 1
                    },
                    {
                        "number": 64,
                        "time": 113.0114583333334,
                        "value": 0
                    },
                    {
                        "number": 64,
                        "time": 113.08437500000007,
                        "value": 1
                    },
                    {
                        "number": 64,
                        "time": 113.50625000000007,
                        "value": 0
                    },
                    {
                        "number": 64,
                        "time": 113.5739583333334,
                        "value": 1
                    },
                    {
                        "number": 64,
                        "time": 114.00000000000006,
                        "value": 0
                    },
                    {
                        "number": 64,
                        "time": 114.04895833333339,
                        "value": 1
                    },
                    {
                        "number": 64,
                        "time": 114.50937500000005,
                        "value": 0
                    },
                    {
                        "number": 64,
                        "time": 114.54375000000005,
                        "value": 1
                    },
                    {
                        "number": 64,
                        "time": 115.00625000000005,
                        "value": 0
                    },
                    {
                        "number": 64,
                        "time": 115.04791666666672,
                        "value": 1
                    },
                    {
                        "number": 64,
                        "time": 115.50833333333338,
                        "value": 0
                    },
                    {
                        "number": 64,
                        "time": 115.53958333333338,
                        "value": 1
                    },
                    {
                        "number": 64,
                        "time": 116.00833333333338,
                        "value": 0
                    },
                    {
                        "number": 64,
                        "time": 116.07604166666671,
                        "value": 1
                    },
                    {
                        "number": 64,
                        "time": 116.51145833333338,
                        "value": 0
                    },
                    {
                        "number": 64,
                        "time": 116.56979166666672,
                        "value": 1
                    },
                    {
                        "number": 64,
                        "time": 117.01354166666671,
                        "value": 0
                    },
                    {
                        "number": 64,
                        "time": 117.07916666666671,
                        "value": 1
                    },
                    {
                        "number": 64,
                        "time": 117.51250000000005,
                        "value": 0
                    },
                    {
                        "number": 64,
                        "time": 117.56562500000004,
                        "value": 1
                    },
                    {
                        "number": 64,
                        "time": 118.00312500000004,
                        "value": 0
                    },
                    {
                        "number": 64,
                        "time": 119.0072916666667,
                        "value": 1
                    },
                    {
                        "number": 64,
                        "time": 119.2604166666667,
                        "value": 0
                    },
                    {
                        "number": 64,
                        "time": 119.3166666666667,
                        "value": 1
                    },
                    {
                        "number": 64,
                        "time": 119.51562500000004,
                        "value": 0
                    },
                    {
                        "number": 64,
                        "time": 119.57395833333338,
                        "value": 1
                    },
                    {
                        "number": 64,
                        "time": 120.00000000000004,
                        "value": 0
                    },
                    {
                        "number": 64,
                        "time": 120.04791666666671,
                        "value": 1
                    },
                    {
                        "number": 64,
                        "time": 120.51770833333337,
                        "value": 0
                    },
                    {
                        "number": 64,
                        "time": 120.78020833333338,
                        "value": 1
                    },
                    {
                        "number": 64,
                        "time": 121.01770833333337,
                        "value": 0
                    },
                    {
                        "number": 64,
                        "time": 121.07812500000004,
                        "value": 1
                    },
                    {
                        "number": 64,
                        "time": 121.25520833333337,
                        "value": 0
                    },
                    {
                        "number": 64,
                        "time": 121.58333333333337,
                        "value": 1
                    },
                    {
                        "number": 64,
                        "time": 121.76770833333337,
                        "value": 0
                    },
                    {
                        "number": 64,
                        "time": 122.02916666666671,
                        "value": 1
                    },
                    {
                        "number": 64,
                        "time": 124.00625000000005,
                        "value": 0
                    },
                    {
                        "number": 64,
                        "time": 124.11354166666672,
                        "value": 1
                    },
                    {
                        "number": 64,
                        "time": 124.50729166666672,
                        "value": 0
                    },
                    {
                        "number": 64,
                        "time": 124.83333333333339,
                        "value": 1
                    },
                    {
                        "number": 64,
                        "time": 125.01041666666671,
                        "value": 0
                    },
                    {
                        "number": 64,
                        "time": 125.08333333333339,
                        "value": 1
                    },
                    {
                        "number": 64,
                        "time": 125.25416666666672,
                        "value": 0
                    },
                    {
                        "number": 64,
                        "time": 125.56562500000005,
                        "value": 1
                    },
                    {
                        "number": 64,
                        "time": 125.75833333333338,
                        "value": 0
                    },
                    {
                        "number": 64,
                        "time": 126.03333333333339,
                        "value": 1
                    },
                    {
                        "number": 64,
                        "time": 126.97812500000005,
                        "value": 0
                    },
                    {
                        "number": 64,
                        "time": 127.02604166666671,
                        "value": 1
                    },
                    {
                        "number": 64,
                        "time": 127.43750000000004,
                        "value": 0
                    },
                    {
                        "number": 64,
                        "time": 128.00000000000006,
                        "value": 1
                    },
                    {
                        "number": 64,
                        "time": 128.5104166666667,
                        "value": 0
                    },
                    {
                        "number": 64,
                        "time": 129.03750000000005,
                        "value": 1
                    },
                    {
                        "number": 64,
                        "time": 130.00000000000006,
                        "value": 0
                    },
                    {
                        "number": 64,
                        "time": 130.0885416666667,
                        "value": 1
                    },
                    {
                        "number": 64,
                        "time": 131.00937500000003,
                        "value": 0
                    },
                    {
                        "number": 64,
                        "time": 131.18750000000003,
                        "value": 1
                    },
                    {
                        "number": 64,
                        "time": 132.00000000000003,
                        "value": 0
                    },
                    {
                        "number": 64,
                        "time": 132.05937500000002,
                        "value": 1
                    },
                    {
                        "number": 64,
                        "time": 133.0135416666667,
                        "value": 0
                    },
                    {
                        "number": 64,
                        "time": 133.06250000000003,
                        "value": 1
                    },
                    {
                        "number": 64,
                        "time": 133.50833333333335,
                        "value": 0
                    },
                    {
                        "number": 64,
                        "time": 133.55,
                        "value": 1
                    },
                    {
                        "number": 64,
                        "time": 134.01458333333335,
                        "value": 0
                    },
                    {
                        "number": 64,
                        "time": 134.0666666666667,
                        "value": 1
                    },
                    {
                        "number": 64,
                        "time": 135.0291666666667,
                        "value": 0
                    },
                    {
                        "number": 64,
                        "time": 135.08125000000004,
                        "value": 1
                    },
                    {
                        "number": 64,
                        "time": 136.01458333333338,
                        "value": 0
                    },
                    {
                        "number": 64,
                        "time": 136.06666666666672,
                        "value": 1
                    },
                    {
                        "number": 64,
                        "time": 137.02916666666673,
                        "value": 0
                    },
                    {
                        "number": 64,
                        "time": 137.08125000000007,
                        "value": 1
                    },
                    {
                        "number": 64,
                        "time": 138.00000000000006,
                        "value": 0
                    },
                    {
                        "number": 64,
                        "time": 138.10312500000006,
                        "value": 1
                    },
                    {
                        "number": 64,
                        "time": 138.50937500000006,
                        "value": 0
                    },
                    {
                        "number": 64,
                        "time": 138.60312500000006,
                        "value": 1
                    },
                    {
                        "number": 64,
                        "time": 139.00729166666673,
                        "value": 0
                    },
                    {
                        "number": 64,
                        "time": 139.11041666666674,
                        "value": 1
                    },
                    {
                        "number": 64,
                        "time": 139.51562500000006,
                        "value": 0
                    },
                    {
                        "number": 64,
                        "time": 139.62500000000006,
                        "value": 1
                    },
                    {
                        "number": 64,
                        "time": 140.00000000000006,
                        "value": 0
                    },
                    {
                        "number": 64,
                        "time": 140.10312500000006,
                        "value": 1
                    },
                    {
                        "number": 64,
                        "time": 140.50937500000006,
                        "value": 0
                    },
                    {
                        "number": 64,
                        "time": 140.60312500000006,
                        "value": 1
                    },
                    {
                        "number": 64,
                        "time": 141.00729166666673,
                        "value": 0
                    },
                    {
                        "number": 64,
                        "time": 141.11041666666674,
                        "value": 1
                    },
                    {
                        "number": 64,
                        "time": 141.51562500000006,
                        "value": 0
                    },
                    {
                        "number": 64,
                        "time": 141.62500000000006,
                        "value": 1
                    },
                    {
                        "number": 64,
                        "time": 142.00729166666673,
                        "value": 0
                    },
                    {
                        "number": 64,
                        "time": 142.11041666666674,
                        "value": 1
                    },
                    {
                        "number": 64,
                        "time": 142.51562500000006,
                        "value": 0
                    },
                    {
                        "number": 64,
                        "time": 142.62500000000006,
                        "value": 1
                    },
                    {
                        "number": 64,
                        "time": 143.05937500000005,
                        "value": 0
                    },
                    {
                        "number": 64,
                        "time": 144.05520833333338,
                        "value": 1
                    },
                    {
                        "number": 64,
                        "time": 144.51458333333338,
                        "value": 0
                    },
                    {
                        "number": 64,
                        "time": 144.5479166666667,
                        "value": 1
                    },
                    {
                        "number": 64,
                        "time": 145.01145833333337,
                        "value": 0
                    },
                    {
                        "number": 64,
                        "time": 145.0447916666667,
                        "value": 1
                    },
                    {
                        "number": 64,
                        "time": 145.5072916666667,
                        "value": 0
                    },
                    {
                        "number": 64,
                        "time": 145.64583333333337,
                        "value": 1
                    },
                    {
                        "number": 64,
                        "time": 146.00000000000003,
                        "value": 0
                    },
                    {
                        "number": 64,
                        "time": 146.05208333333337,
                        "value": 1
                    },
                    {
                        "number": 64,
                        "time": 146.5072916666667,
                        "value": 0
                    },
                    {
                        "number": 64,
                        "time": 146.5697916666667,
                        "value": 1
                    },
                    {
                        "number": 64,
                        "time": 147.0041666666667,
                        "value": 0
                    },
                    {
                        "number": 64,
                        "time": 147.05208333333337,
                        "value": 1
                    },
                    {
                        "number": 64,
                        "time": 147.24270833333338,
                        "value": 0
                    },
                    {
                        "number": 64,
                        "time": 147.54062500000006,
                        "value": 1
                    },
                    {
                        "number": 64,
                        "time": 147.75625000000005,
                        "value": 0
                    },
                    {
                        "number": 64,
                        "time": 148.04479166666673,
                        "value": 1
                    },
                    {
                        "number": 64,
                        "time": 148.50937500000006,
                        "value": 0
                    },
                    {
                        "number": 64,
                        "time": 148.55104166666672,
                        "value": 1
                    },
                    {
                        "number": 64,
                        "time": 149.00729166666673,
                        "value": 0
                    },
                    {
                        "number": 64,
                        "time": 149.04791666666674,
                        "value": 1
                    },
                    {
                        "number": 64,
                        "time": 149.5114583333334,
                        "value": 0
                    },
                    {
                        "number": 64,
                        "time": 149.67604166666672,
                        "value": 1
                    },
                    {
                        "number": 64,
                        "time": 150.00000000000006,
                        "value": 0
                    },
                    {
                        "number": 64,
                        "time": 151.04479166666673,
                        "value": 1
                    },
                    {
                        "number": 64,
                        "time": 151.5104166666667,
                        "value": 0
                    },
                    {
                        "number": 64,
                        "time": 151.5479166666667,
                        "value": 1
                    },
                    {
                        "number": 64,
                        "time": 152.00000000000003,
                        "value": 0
                    },
                    {
                        "number": 64,
                        "time": 152.14687500000002,
                        "value": 1
                    },
                    {
                        "number": 64,
                        "time": 152.51875,
                        "value": 0
                    },
                    {
                        "number": 64,
                        "time": 152.58125,
                        "value": 1
                    },
                    {
                        "number": 64,
                        "time": 153.00729166666667,
                        "value": 0
                    },
                    {
                        "number": 64,
                        "time": 153.125,
                        "value": 1
                    },
                    {
                        "number": 64,
                        "time": 154,
                        "value": 0
                    },
                    {
                        "number": 64,
                        "time": 154.06979166666667,
                        "value": 1
                    },
                    {
                        "number": 64,
                        "time": 154.509375,
                        "value": 0
                    },
                    {
                        "number": 64,
                        "time": 154.57708333333335,
                        "value": 1
                    },
                    {
                        "number": 64,
                        "time": 155.01145833333334,
                        "value": 0
                    },
                    {
                        "number": 64,
                        "time": 155.084375,
                        "value": 1
                    },
                    {
                        "number": 64,
                        "time": 155.50625,
                        "value": 0
                    },
                    {
                        "number": 64,
                        "time": 155.57395833333334,
                        "value": 1
                    },
                    {
                        "number": 64,
                        "time": 156,
                        "value": 0
                    },
                    {
                        "number": 64,
                        "time": 156.04895833333333,
                        "value": 1
                    },
                    {
                        "number": 64,
                        "time": 156.509375,
                        "value": 0
                    },
                    {
                        "number": 64,
                        "time": 156.54375000000002,
                        "value": 1
                    },
                    {
                        "number": 64,
                        "time": 157.00625000000002,
                        "value": 0
                    },
                    {
                        "number": 64,
                        "time": 157.04791666666668,
                        "value": 1
                    },
                    {
                        "number": 64,
                        "time": 157.50833333333335,
                        "value": 0
                    },
                    {
                        "number": 64,
                        "time": 157.53958333333335,
                        "value": 1
                    },
                    {
                        "number": 64,
                        "time": 158.00833333333335,
                        "value": 0
                    },
                    {
                        "number": 64,
                        "time": 158.0760416666667,
                        "value": 1
                    },
                    {
                        "number": 64,
                        "time": 158.51145833333337,
                        "value": 0
                    },
                    {
                        "number": 64,
                        "time": 158.5697916666667,
                        "value": 1
                    },
                    {
                        "number": 64,
                        "time": 159.0135416666667,
                        "value": 0
                    },
                    {
                        "number": 64,
                        "time": 159.0791666666667,
                        "value": 1
                    },
                    {
                        "number": 64,
                        "time": 159.51250000000005,
                        "value": 0
                    },
                    {
                        "number": 64,
                        "time": 159.56562500000004,
                        "value": 1
                    },
                    {
                        "number": 64,
                        "time": 160.00312500000004,
                        "value": 0
                    },
                    {
                        "number": 64,
                        "time": 161.0072916666667,
                        "value": 1
                    },
                    {
                        "number": 64,
                        "time": 161.2604166666667,
                        "value": 0
                    },
                    {
                        "number": 64,
                        "time": 161.31666666666672,
                        "value": 1
                    },
                    {
                        "number": 64,
                        "time": 161.51562500000006,
                        "value": 0
                    },
                    {
                        "number": 64,
                        "time": 161.5739583333334,
                        "value": 1
                    },
                    {
                        "number": 64,
                        "time": 162.00000000000006,
                        "value": 0
                    },
                    {
                        "number": 64,
                        "time": 162.04791666666674,
                        "value": 1
                    },
                    {
                        "number": 64,
                        "time": 162.51770833333342,
                        "value": 0
                    },
                    {
                        "number": 64,
                        "time": 162.7802083333334,
                        "value": 1
                    },
                    {
                        "number": 64,
                        "time": 163.01770833333342,
                        "value": 0
                    },
                    {
                        "number": 64,
                        "time": 163.07812500000009,
                        "value": 1
                    },
                    {
                        "number": 64,
                        "time": 163.25520833333343,
                        "value": 0
                    },
                    {
                        "number": 64,
                        "time": 163.58333333333343,
                        "value": 1
                    },
                    {
                        "number": 64,
                        "time": 163.76770833333342,
                        "value": 0
                    },
                    {
                        "number": 64,
                        "time": 164.02916666666675,
                        "value": 1
                    },
                    {
                        "number": 64,
                        "time": 166.00625000000008,
                        "value": 0
                    },
                    {
                        "number": 64,
                        "time": 166.11354166666675,
                        "value": 1
                    },
                    {
                        "number": 64,
                        "time": 166.50729166666676,
                        "value": 0
                    },
                    {
                        "number": 64,
                        "time": 166.83333333333343,
                        "value": 1
                    },
                    {
                        "number": 64,
                        "time": 167.01041666666677,
                        "value": 0
                    },
                    {
                        "number": 64,
                        "time": 167.08333333333343,
                        "value": 1
                    },
                    {
                        "number": 64,
                        "time": 167.25416666666675,
                        "value": 0
                    },
                    {
                        "number": 64,
                        "time": 167.56562500000007,
                        "value": 1
                    },
                    {
                        "number": 64,
                        "time": 167.7583333333334,
                        "value": 0
                    },
                    {
                        "number": 64,
                        "time": 168.03333333333342,
                        "value": 1
                    },
                    {
                        "number": 64,
                        "time": 168.9781250000001,
                        "value": 0
                    },
                    {
                        "number": 64,
                        "time": 169.02604166666677,
                        "value": 1
                    },
                    {
                        "number": 64,
                        "time": 169.4375000000001,
                        "value": 0
                    }
                ]
            },
            "id": 3,
            "name": "Pedale",
            "instrumentNumber": 0,
            "instrument": "acoustic grand piano",
            "instrumentFamily": "piano",
            "channelNumber": 0,
            "isPercussion": false
        },
        {
            "startTime": 0,
            "duration": 0,
            "length": 0,
            "notes": [],
            "controlChanges": {},
            "id": 4,
            "name": "Haydn: Sonata Hoboken XVI:35 2. movement"
        },
        {
            "startTime": 0,
            "duration": 0,
            "length": 0,
            "notes": [],
            "controlChanges": {},
            "id": 5,
            "name": "Copyright  2009 by Bernd Krueger"
        },
        {
            "startTime": 0,
            "duration": 0,
            "length": 0,
            "notes": [],
            "controlChanges": {},
            "id": 6,
            "name": "http://www.piano-midi.de/"
        },
        {
            "startTime": 0,
            "duration": 0,
            "length": 0,
            "notes": [],
            "controlChanges": {},
            "id": 7,
            "name": "Edition: 2011-12-05"
        },
        {
            "startTime": 0,
            "duration": 0,
            "length": 0,
            "notes": [],
            "controlChanges": {},
            "id": 8,
            "name": "Spur 8"
        },
        {
            "startTime": 0,
            "duration": 0,
            "length": 0,
            "notes": [],
            "controlChanges": {},
            "id": 9,
            "name": "Spur 9"
        },
        {
            "startTime": 0,
            "duration": 0,
            "length": 0,
            "notes": [],
            "controlChanges": {},
            "id": 10,
            "name": "Spur 10"
        },
        {
            "startTime": 0,
            "duration": 0,
            "length": 0,
            "notes": [],
            "controlChanges": {},
            "id": 11,
            "name": "Spur 11"
        },
        {
            "startTime": 0,
            "duration": 0,
            "length": 0,
            "notes": [],
            "controlChanges": {},
            "id": 12,
            "name": "Spur 12"
        },
        {
            "startTime": 0,
            "duration": 0,
            "length": 0,
            "notes": [],
            "controlChanges": {},
            "id": 13,
            "name": "Spur 13"
        },
        {
            "startTime": 0,
            "duration": 0,
            "length": 0,
            "notes": [],
            "controlChanges": {},
            "id": 14,
            "name": "Spur 14"
        },
        {
            "startTime": 0,
            "duration": 0,
            "length": 0,
            "notes": [],
            "controlChanges": {},
            "id": 15,
            "name": "Spur 15"
        },
        {
            "startTime": 0,
            "duration": 0,
            "length": 0,
            "notes": [],
            "controlChanges": {},
            "id": 16,
            "name": "Spur 16"
        }
    ]
}