{
    "header": {
        "PPQ": 480,
        "timeSignature": [
            2,
            4
        ],
        "bpm": 114.74995983751406,
        "name": "Haydn: Klaviersonate Hoboken XVI: 33 1. Satz"
    },
    "startTime": 0,
    "duration": 273.46414799999854,
    "tracks": [
        {
            "startTime": 0,
            "duration": 0,
            "length": 0,
            "notes": [],
            "controlChanges": {},
            "id": 0,
            "name": "Haydn: Klaviersonate Hoboken XVI: 33 1. Satz"
        },
        {
            "startTime": 0.784314,
            "duration": 273.4641479999983,
            "length": 1636,
            "notes": [
                {
                    "name": "A3",
                    "midi": 57,
                    "time": 0.784314,
                    "velocity": 0.6535433070866141,
                    "duration": 0.06535950000000001
                },
                {
                    "name": "D4",
                    "midi": 62,
                    "time": 0.8496735,
                    "velocity": 0.5196850393700787,
                    "duration": 0.06535950000000001
                },
                {
                    "name": "F#4",
                    "midi": 66,
                    "time": 0.915033,
                    "velocity": 0.5196850393700787,
                    "duration": 0.06535950000000001
                },
                {
                    "name": "A4",
                    "midi": 69,
                    "time": 0.9803925,
                    "velocity": 0.5196850393700787,
                    "duration": 0.06535950000000001
                },
                {
                    "name": "F#4",
                    "midi": 66,
                    "time": 1.045752,
                    "velocity": 0.6771653543307087,
                    "duration": 0.26143800000000006
                },
                {
                    "name": "D4",
                    "midi": 62,
                    "time": 1.30719,
                    "velocity": 0.6062992125984252,
                    "duration": 0.26143800000000006
                },
                {
                    "name": "D5",
                    "midi": 74,
                    "time": 1.5686280000000001,
                    "velocity": 0.4409448818897638,
                    "duration": 0.06535950000000001
                },
                {
                    "name": "A4",
                    "midi": 69,
                    "time": 1.8300660000000002,
                    "velocity": 0.4094488188976378,
                    "duration": 0.06535950000000001
                },
                {
                    "name": "B4",
                    "midi": 71,
                    "time": 2.091504,
                    "velocity": 0.4330708661417323,
                    "duration": 0.06535950000000001
                },
                {
                    "name": "C#5",
                    "midi": 73,
                    "time": 2.1568635,
                    "velocity": 0.3858267716535433,
                    "duration": 0.06535950000000001
                },
                {
                    "name": "B4",
                    "midi": 71,
                    "time": 2.222223,
                    "velocity": 0.47244094488188976,
                    "duration": 0.13071900000000003
                },
                {
                    "name": "A4",
                    "midi": 69,
                    "time": 2.352942,
                    "velocity": 0.4409448818897638,
                    "duration": 0.26143800000000006
                },
                {
                    "name": "A3",
                    "midi": 57,
                    "time": 2.875818,
                    "velocity": 0.6535433070866141,
                    "duration": 0.06535950000000001
                },
                {
                    "name": "D4",
                    "midi": 62,
                    "time": 2.9411775000000002,
                    "velocity": 0.5196850393700787,
                    "duration": 0.06535950000000001
                },
                {
                    "name": "F#4",
                    "midi": 66,
                    "time": 3.0065370000000002,
                    "velocity": 0.5196850393700787,
                    "duration": 0.06535950000000001
                },
                {
                    "name": "A4",
                    "midi": 69,
                    "time": 3.0718965000000003,
                    "velocity": 0.5196850393700787,
                    "duration": 0.06535950000000001
                },
                {
                    "name": "F#4",
                    "midi": 66,
                    "time": 3.1372560000000003,
                    "velocity": 0.6771653543307087,
                    "duration": 0.26143800000000006
                },
                {
                    "name": "D4",
                    "midi": 62,
                    "time": 3.3986940000000003,
                    "velocity": 0.6062992125984252,
                    "duration": 0.26143800000000006
                },
                {
                    "name": "F#5",
                    "midi": 78,
                    "time": 3.6601320000000004,
                    "velocity": 0.4409448818897638,
                    "duration": 0.06535950000000001
                },
                {
                    "name": "A5",
                    "midi": 81,
                    "time": 3.6601320000000004,
                    "velocity": 0.5039370078740157,
                    "duration": 0.06535950000000001
                },
                {
                    "name": "D5",
                    "midi": 74,
                    "time": 3.9215700000000004,
                    "velocity": 0.4094488188976378,
                    "duration": 0.06535950000000001
                },
                {
                    "name": "F#5",
                    "midi": 78,
                    "time": 3.9215700000000004,
                    "velocity": 0.47244094488188976,
                    "duration": 0.06535950000000001
                },
                {
                    "name": "E5",
                    "midi": 76,
                    "time": 4.183008,
                    "velocity": 0.36220472440944884,
                    "duration": 0.26143799999999917
                },
                {
                    "name": "G5",
                    "midi": 79,
                    "time": 4.183008,
                    "velocity": 0.4330708661417323,
                    "duration": 0.06535949999999957
                },
                {
                    "name": "A5",
                    "midi": 81,
                    "time": 4.2483675,
                    "velocity": 0.3858267716535433,
                    "duration": 0.06535949999999957
                },
                {
                    "name": "G5",
                    "midi": 79,
                    "time": 4.313726999999999,
                    "velocity": 0.47244094488188976,
                    "duration": 0.13071900000000003
                },
                {
                    "name": "D5",
                    "midi": 74,
                    "time": 4.444445999999999,
                    "velocity": 0.3700787401574803,
                    "duration": 0.26143800000000006
                },
                {
                    "name": "F#5",
                    "midi": 78,
                    "time": 4.444445999999999,
                    "velocity": 0.4409448818897638,
                    "duration": 0.26143800000000006
                },
                {
                    "name": "D5",
                    "midi": 74,
                    "time": 4.967321999999999,
                    "velocity": 0.47244094488188976,
                    "duration": 0.06535949999999957
                },
                {
                    "name": "F#5",
                    "midi": 78,
                    "time": 5.032681499999999,
                    "velocity": 0.4015748031496063,
                    "duration": 0.06535949999999957
                },
                {
                    "name": "A5",
                    "midi": 81,
                    "time": 5.0980409999999985,
                    "velocity": 0.4094488188976378,
                    "duration": 0.06535949999999957
                },
                {
                    "name": "D6",
                    "midi": 86,
                    "time": 5.163400499999998,
                    "velocity": 0.4094488188976378,
                    "duration": 0.06535949999999957
                },
                {
                    "name": "C5",
                    "midi": 72,
                    "time": 5.228759999999998,
                    "velocity": 0.5275590551181102,
                    "duration": 0.7843140000000002
                },
                {
                    "name": "C6",
                    "midi": 84,
                    "time": 6.013073999999998,
                    "velocity": 0.47244094488188976,
                    "duration": 0.06535949999999957
                },
                {
                    "name": "A5",
                    "midi": 81,
                    "time": 6.078433499999997,
                    "velocity": 0.4015748031496063,
                    "duration": 0.06535949999999957
                },
                {
                    "name": "F#5",
                    "midi": 78,
                    "time": 6.143792999999997,
                    "velocity": 0.4094488188976378,
                    "duration": 0.06535949999999957
                },
                {
                    "name": "C5",
                    "midi": 72,
                    "time": 6.2091524999999965,
                    "velocity": 0.4094488188976378,
                    "duration": 0.06535949999999957
                },
                {
                    "name": "B4",
                    "midi": 71,
                    "time": 6.274511999999996,
                    "velocity": 0.5275590551181102,
                    "duration": 0.7843140000000002
                },
                {
                    "name": "B4",
                    "midi": 71,
                    "time": 7.058825999999996,
                    "velocity": 0.47244094488188976,
                    "duration": 0.06535949999999957
                },
                {
                    "name": "D5",
                    "midi": 74,
                    "time": 7.124185499999996,
                    "velocity": 0.4015748031496063,
                    "duration": 0.06535949999999957
                },
                {
                    "name": "G5",
                    "midi": 79,
                    "time": 7.189544999999995,
                    "velocity": 0.4094488188976378,
                    "duration": 0.06535949999999957
                },
                {
                    "name": "B5",
                    "midi": 83,
                    "time": 7.254904499999995,
                    "velocity": 0.4094488188976378,
                    "duration": 0.06535949999999957
                },
                {
                    "name": "F#5",
                    "midi": 78,
                    "time": 7.3202639999999946,
                    "velocity": 0.4251968503937008,
                    "duration": 0.06535949999999957
                },
                {
                    "name": "A5",
                    "midi": 81,
                    "time": 7.3202639999999946,
                    "velocity": 0.5039370078740157,
                    "duration": 0.06535949999999957
                },
                {
                    "name": "D5",
                    "midi": 74,
                    "time": 7.581701999999994,
                    "velocity": 0.3464566929133858,
                    "duration": 0.06535949999999957
                },
                {
                    "name": "F#5",
                    "midi": 78,
                    "time": 7.581701999999994,
                    "velocity": 0.41732283464566927,
                    "duration": 0.06535949999999957
                },
                {
                    "name": "G5",
                    "midi": 79,
                    "time": 7.843139999999993,
                    "velocity": 0.4645669291338583,
                    "duration": 0.06535949999999957
                },
                {
                    "name": "E5",
                    "midi": 76,
                    "time": 7.843139999999993,
                    "velocity": 0.3858267716535433,
                    "duration": 0.06535949999999957
                },
                {
                    "name": "C#5",
                    "midi": 73,
                    "time": 8.104577999999993,
                    "velocity": 0.3464566929133858,
                    "duration": 0.06535949999999957
                },
                {
                    "name": "E5",
                    "midi": 76,
                    "time": 8.104577999999993,
                    "velocity": 0.3464566929133858,
                    "duration": 0.06535949999999957
                },
                {
                    "name": "E5",
                    "midi": 76,
                    "time": 8.366015999999993,
                    "velocity": 0.3937007874015748,
                    "duration": 0.5228760000000001
                },
                {
                    "name": "C#5",
                    "midi": 73,
                    "time": 8.366015999999993,
                    "velocity": 0.33070866141732286,
                    "duration": 0.5228760000000001
                },
                {
                    "name": "F#5",
                    "midi": 78,
                    "time": 8.888891999999993,
                    "velocity": 0.31496062992125984,
                    "duration": 0.26143800000000006
                },
                {
                    "name": "D5",
                    "midi": 74,
                    "time": 8.888891999999993,
                    "velocity": 0.25984251968503935,
                    "duration": 0.26143800000000006
                },
                {
                    "name": "D5",
                    "midi": 74,
                    "time": 9.150329999999993,
                    "velocity": 0.47244094488188976,
                    "duration": 0.06535949999999957
                },
                {
                    "name": "F#5",
                    "midi": 78,
                    "time": 9.215689499999993,
                    "velocity": 0.4015748031496063,
                    "duration": 0.06535949999999957
                },
                {
                    "name": "A5",
                    "midi": 81,
                    "time": 9.281048999999992,
                    "velocity": 0.4094488188976378,
                    "duration": 0.06535949999999957
                },
                {
                    "name": "D6",
                    "midi": 86,
                    "time": 9.346408499999992,
                    "velocity": 0.4094488188976378,
                    "duration": 0.06535949999999957
                },
                {
                    "name": "C5",
                    "midi": 72,
                    "time": 9.411767999999991,
                    "velocity": 0.5275590551181102,
                    "duration": 0.7843140000000002
                },
                {
                    "name": "C6",
                    "midi": 84,
                    "time": 10.196081999999992,
                    "velocity": 0.47244094488188976,
                    "duration": 0.06535949999999957
                },
                {
                    "name": "A5",
                    "midi": 81,
                    "time": 10.261441499999991,
                    "velocity": 0.4015748031496063,
                    "duration": 0.06535949999999957
                },
                {
                    "name": "F#5",
                    "midi": 78,
                    "time": 10.32680099999999,
                    "velocity": 0.4094488188976378,
                    "duration": 0.06535949999999957
                },
                {
                    "name": "C5",
                    "midi": 72,
                    "time": 10.39216049999999,
                    "velocity": 0.4094488188976378,
                    "duration": 0.06535949999999957
                },
                {
                    "name": "B4",
                    "midi": 71,
                    "time": 10.45751999999999,
                    "velocity": 0.5275590551181102,
                    "duration": 0.7843140000000002
                },
                {
                    "name": "B5",
                    "midi": 83,
                    "time": 11.24183399999999,
                    "velocity": 0.47244094488188976,
                    "duration": 0.08714600000000061
                },
                {
                    "name": "C#6",
                    "midi": 85,
                    "time": 11.32897999999999,
                    "velocity": 0.4409448818897638,
                    "duration": 0.08714600000000061
                },
                {
                    "name": "D6",
                    "midi": 86,
                    "time": 11.416125999999991,
                    "velocity": 0.4409448818897638,
                    "duration": 0.08714600000000061
                },
                {
                    "name": "C#6",
                    "midi": 85,
                    "time": 11.503271999999992,
                    "velocity": 0.47244094488188976,
                    "duration": 0.08714600000000061
                },
                {
                    "name": "B5",
                    "midi": 83,
                    "time": 11.590417999999993,
                    "velocity": 0.4330708661417323,
                    "duration": 0.08714600000000061
                },
                {
                    "name": "A5",
                    "midi": 81,
                    "time": 11.677563999999993,
                    "velocity": 0.4015748031496063,
                    "duration": 0.08714600000000061
                },
                {
                    "name": "G5",
                    "midi": 79,
                    "time": 11.764709999999994,
                    "velocity": 0.4645669291338583,
                    "duration": 0.08714600000000061
                },
                {
                    "name": "F#5",
                    "midi": 78,
                    "time": 11.851855999999994,
                    "velocity": 0.4015748031496063,
                    "duration": 0.08714600000000061
                },
                {
                    "name": "E5",
                    "midi": 76,
                    "time": 11.939001999999995,
                    "velocity": 0.4015748031496063,
                    "duration": 0.08714600000000061
                },
                {
                    "name": "D5",
                    "midi": 74,
                    "time": 12.026147999999996,
                    "velocity": 0.4330708661417323,
                    "duration": 0.08714600000000061
                },
                {
                    "name": "C#5",
                    "midi": 73,
                    "time": 12.113293999999996,
                    "velocity": 0.3858267716535433,
                    "duration": 0.08714600000000061
                },
                {
                    "name": "B4",
                    "midi": 71,
                    "time": 12.200439999999997,
                    "velocity": 0.3858267716535433,
                    "duration": 0.08714600000000061
                },
                {
                    "name": "A4",
                    "midi": 69,
                    "time": 12.287585999999997,
                    "velocity": 0.4094488188976378,
                    "duration": 0.06535949999999957
                },
                {
                    "name": "G4",
                    "midi": 67,
                    "time": 12.352945499999997,
                    "velocity": 0.3858267716535433,
                    "duration": 0.06535949999999957
                },
                {
                    "name": "F#4",
                    "midi": 66,
                    "time": 12.418304999999997,
                    "velocity": 0.3858267716535433,
                    "duration": 0.06535949999999957
                },
                {
                    "name": "E4",
                    "midi": 64,
                    "time": 12.483664499999996,
                    "velocity": 0.3779527559055118,
                    "duration": 0.06535949999999957
                },
                {
                    "name": "D4",
                    "midi": 62,
                    "time": 12.549023999999996,
                    "velocity": 0.47244094488188976,
                    "duration": 0.5228760000000001
                },
                {
                    "name": "A3",
                    "midi": 57,
                    "time": 13.333337999999996,
                    "velocity": 0.41732283464566927,
                    "duration": 0.26143800000000006
                },
                {
                    "name": "D4",
                    "midi": 62,
                    "time": 13.594775999999996,
                    "velocity": 0.47244094488188976,
                    "duration": 0.13071899999999914
                },
                {
                    "name": "C#4",
                    "midi": 61,
                    "time": 13.725494999999995,
                    "velocity": 0.4094488188976378,
                    "duration": 0.09803924999999936
                },
                {
                    "name": "E4",
                    "midi": 64,
                    "time": 13.856213999999994,
                    "velocity": 0.47244094488188976,
                    "duration": 0.13071899999999914
                },
                {
                    "name": "D4",
                    "midi": 62,
                    "time": 13.986932999999993,
                    "velocity": 0.4251968503937008,
                    "duration": 0.09803924999999936
                },
                {
                    "name": "F#4",
                    "midi": 66,
                    "time": 14.117651999999993,
                    "velocity": 0.47244094488188976,
                    "duration": 0.13071899999999914
                },
                {
                    "name": "E4",
                    "midi": 64,
                    "time": 14.248370999999992,
                    "velocity": 0.4251968503937008,
                    "duration": 0.09803924999999936
                },
                {
                    "name": "G4",
                    "midi": 67,
                    "time": 14.37908999999999,
                    "velocity": 0.47244094488188976,
                    "duration": 0.13071899999999914
                },
                {
                    "name": "F#4",
                    "midi": 66,
                    "time": 14.50980899999999,
                    "velocity": 0.3858267716535433,
                    "duration": 0.09803924999999936
                },
                {
                    "name": "F#4",
                    "midi": 66,
                    "time": 14.640527999999989,
                    "velocity": 0.44881889763779526,
                    "duration": 0.5228760000000001
                },
                {
                    "name": "D4",
                    "midi": 62,
                    "time": 14.640527999999989,
                    "velocity": 0.3779527559055118,
                    "duration": 0.5228760000000001
                },
                {
                    "name": "E4",
                    "midi": 64,
                    "time": 15.16340399999999,
                    "velocity": 0.3937007874015748,
                    "duration": 0.1960785000000005
                },
                {
                    "name": "C#4",
                    "midi": 61,
                    "time": 15.16340399999999,
                    "velocity": 0.33070866141732286,
                    "duration": 0.1960785000000005
                },
                {
                    "name": "A3",
                    "midi": 57,
                    "time": 15.42484199999999,
                    "velocity": 0.41732283464566927,
                    "duration": 0.26143800000000006
                },
                {
                    "name": "E4",
                    "midi": 64,
                    "time": 15.68627999999999,
                    "velocity": 0.47244094488188976,
                    "duration": 0.13071899999999914
                },
                {
                    "name": "D#4",
                    "midi": 63,
                    "time": 15.816998999999988,
                    "velocity": 0.4094488188976378,
                    "duration": 0.09803924999999936
                },
                {
                    "name": "F#4",
                    "midi": 66,
                    "time": 15.947717999999988,
                    "velocity": 0.47244094488188976,
                    "duration": 0.13071899999999914
                },
                {
                    "name": "E4",
                    "midi": 64,
                    "time": 16.078436999999987,
                    "velocity": 0.4251968503937008,
                    "duration": 0.09803924999999936
                },
                {
                    "name": "G4",
                    "midi": 67,
                    "time": 16.209155999999986,
                    "velocity": 0.47244094488188976,
                    "duration": 0.13071899999999914
                },
                {
                    "name": "F#4",
                    "midi": 66,
                    "time": 16.339874999999985,
                    "velocity": 0.4251968503937008,
                    "duration": 0.09803924999999936
                },
                {
                    "name": "A4",
                    "midi": 69,
                    "time": 16.470593999999984,
                    "velocity": 0.47244094488188976,
                    "duration": 0.13071899999999914
                },
                {
                    "name": "G4",
                    "midi": 67,
                    "time": 16.601312999999983,
                    "velocity": 0.3858267716535433,
                    "duration": 0.09803924999999936
                },
                {
                    "name": "G4",
                    "midi": 67,
                    "time": 16.732031999999982,
                    "velocity": 0.44881889763779526,
                    "duration": 0.5228760000000001
                },
                {
                    "name": "E4",
                    "midi": 64,
                    "time": 16.732031999999982,
                    "velocity": 0.3779527559055118,
                    "duration": 0.5228760000000001
                },
                {
                    "name": "F#4",
                    "midi": 66,
                    "time": 17.254907999999983,
                    "velocity": 0.3937007874015748,
                    "duration": 0.1960784999999987
                },
                {
                    "name": "D4",
                    "midi": 62,
                    "time": 17.254907999999983,
                    "velocity": 0.33070866141732286,
                    "duration": 0.1960784999999987
                },
                {
                    "name": "D4",
                    "midi": 62,
                    "time": 17.51634599999998,
                    "velocity": 0.4566929133858268,
                    "duration": 0.2614379999999983
                },
                {
                    "name": "G4",
                    "midi": 67,
                    "time": 17.77778399999998,
                    "velocity": 0.5196850393700787,
                    "duration": 0.13071899999999914
                },
                {
                    "name": "F#4",
                    "midi": 66,
                    "time": 17.90850299999998,
                    "velocity": 0.44881889763779526,
                    "duration": 0.09803924999999936
                },
                {
                    "name": "A4",
                    "midi": 69,
                    "time": 18.039221999999977,
                    "velocity": 0.5196850393700787,
                    "duration": 0.13071899999999914
                },
                {
                    "name": "G4",
                    "midi": 67,
                    "time": 18.169940999999977,
                    "velocity": 0.4645669291338583,
                    "duration": 0.09803924999999936
                },
                {
                    "name": "B4",
                    "midi": 71,
                    "time": 18.300659999999976,
                    "velocity": 0.5196850393700787,
                    "duration": 0.13071899999999914
                },
                {
                    "name": "A4",
                    "midi": 69,
                    "time": 18.431378999999975,
                    "velocity": 0.4645669291338583,
                    "duration": 0.09803924999999936
                },
                {
                    "name": "D5",
                    "midi": 74,
                    "time": 18.562097999999974,
                    "velocity": 0.5196850393700787,
                    "duration": 0.13071899999999914
                },
                {
                    "name": "C#5",
                    "midi": 73,
                    "time": 18.692816999999973,
                    "velocity": 0.41732283464566927,
                    "duration": 0.09803924999999936
                },
                {
                    "name": "B4",
                    "midi": 71,
                    "time": 18.823535999999972,
                    "velocity": 0.4881889763779528,
                    "duration": 0.13071899999999914
                },
                {
                    "name": "B4",
                    "midi": 71,
                    "time": 19.08497399999997,
                    "velocity": 0.4881889763779528,
                    "duration": 0.13071899999999914
                },
                {
                    "name": "D5",
                    "midi": 74,
                    "time": 19.21569299999997,
                    "velocity": 0.44881889763779526,
                    "duration": 0.13071899999999914
                },
                {
                    "name": "A4",
                    "midi": 69,
                    "time": 19.34641199999997,
                    "velocity": 0.4881889763779528,
                    "duration": 0.13071899999999914
                },
                {
                    "name": "G4",
                    "midi": 67,
                    "time": 19.86928799999997,
                    "velocity": 0.4330708661417323,
                    "duration": 0.032679749999999785
                },
                {
                    "name": "F#4",
                    "midi": 66,
                    "time": 19.90196774999997,
                    "velocity": 0.3779527559055118,
                    "duration": 0.032679749999999785
                },
                {
                    "name": "G4",
                    "midi": 67,
                    "time": 19.93464749999997,
                    "velocity": 0.4881889763779528,
                    "duration": 0.06535949999999957
                },
                {
                    "name": "G4",
                    "midi": 67,
                    "time": 20.130725999999967,
                    "velocity": 0.4881889763779528,
                    "duration": 0.13071899999999914
                },
                {
                    "name": "B4",
                    "midi": 71,
                    "time": 20.261444999999966,
                    "velocity": 0.44881889763779526,
                    "duration": 0.13071899999999914
                },
                {
                    "name": "F#4",
                    "midi": 66,
                    "time": 20.392163999999966,
                    "velocity": 0.4881889763779528,
                    "duration": 0.13071899999999914
                },
                {
                    "name": "B4",
                    "midi": 71,
                    "time": 20.915039999999966,
                    "velocity": 0.47244094488188976,
                    "duration": 0.032679749999999785
                },
                {
                    "name": "A4",
                    "midi": 69,
                    "time": 20.947719749999965,
                    "velocity": 0.4094488188976378,
                    "duration": 0.032679749999999785
                },
                {
                    "name": "B4",
                    "midi": 71,
                    "time": 20.980399499999965,
                    "velocity": 0.5354330708661418,
                    "duration": 0.06535949999999957
                },
                {
                    "name": "B4",
                    "midi": 71,
                    "time": 21.176477999999964,
                    "velocity": 0.5354330708661418,
                    "duration": 0.13071899999999914
                },
                {
                    "name": "D5",
                    "midi": 74,
                    "time": 21.307196999999963,
                    "velocity": 0.4881889763779528,
                    "duration": 0.13071899999999914
                },
                {
                    "name": "A4",
                    "midi": 69,
                    "time": 21.437915999999962,
                    "velocity": 0.5354330708661418,
                    "duration": 0.13071899999999914
                },
                {
                    "name": "G4",
                    "midi": 67,
                    "time": 21.960791999999962,
                    "velocity": 0.4330708661417323,
                    "duration": 0.032679749999999785
                },
                {
                    "name": "F#4",
                    "midi": 66,
                    "time": 21.993471749999962,
                    "velocity": 0.3779527559055118,
                    "duration": 0.032679749999999785
                },
                {
                    "name": "G4",
                    "midi": 67,
                    "time": 22.026151499999962,
                    "velocity": 0.4881889763779528,
                    "duration": 0.06535949999999957
                },
                {
                    "name": "G4",
                    "midi": 67,
                    "time": 22.22222999999996,
                    "velocity": 0.4881889763779528,
                    "duration": 0.13071899999999914
                },
                {
                    "name": "B4",
                    "midi": 71,
                    "time": 22.35294899999996,
                    "velocity": 0.44881889763779526,
                    "duration": 0.13071899999999914
                },
                {
                    "name": "F#4",
                    "midi": 66,
                    "time": 22.48366799999996,
                    "velocity": 0.4881889763779528,
                    "duration": 0.13071899999999914
                },
                {
                    "name": "D#4",
                    "midi": 63,
                    "time": 23.00654399999996,
                    "velocity": 0.4330708661417323,
                    "duration": 0.13071899999999914
                },
                {
                    "name": "E4",
                    "midi": 64,
                    "time": 23.137262999999958,
                    "velocity": 0.4330708661417323,
                    "duration": 0.13071899999999914
                },
                {
                    "name": "F#4",
                    "midi": 66,
                    "time": 23.267981999999957,
                    "velocity": 0.4566929133858268,
                    "duration": 0.13071899999999914
                },
                {
                    "name": "G4",
                    "midi": 67,
                    "time": 23.398700999999956,
                    "velocity": 0.4566929133858268,
                    "duration": 0.13071899999999914
                },
                {
                    "name": "A4",
                    "midi": 69,
                    "time": 23.529419999999956,
                    "velocity": 0.4881889763779528,
                    "duration": 0.13071899999999914
                },
                {
                    "name": "B4",
                    "midi": 71,
                    "time": 23.660138999999955,
                    "velocity": 0.4330708661417323,
                    "duration": 0.13071899999999914
                },
                {
                    "name": "G4",
                    "midi": 67,
                    "time": 23.790857999999954,
                    "velocity": 0.48031496062992124,
                    "duration": 0.13071899999999914
                },
                {
                    "name": "E4",
                    "midi": 64,
                    "time": 23.921576999999953,
                    "velocity": 0.4015748031496063,
                    "duration": 0.13071899999999914
                },
                {
                    "name": "D4",
                    "midi": 62,
                    "time": 24.052295999999952,
                    "velocity": 0.44881889763779526,
                    "duration": 1.0457520000000002
                },
                {
                    "name": "C#4",
                    "midi": 61,
                    "time": 25.098047999999952,
                    "velocity": 0.3937007874015748,
                    "duration": 0.2614379999999983
                },
                {
                    "name": "E4",
                    "midi": 64,
                    "time": 25.88236199999995,
                    "velocity": 0.6535433070866141,
                    "duration": 0.06535949999999957
                },
                {
                    "name": "A4",
                    "midi": 69,
                    "time": 25.94772149999995,
                    "velocity": 0.5196850393700787,
                    "duration": 0.06535949999999957
                },
                {
                    "name": "C#5",
                    "midi": 73,
                    "time": 26.01308099999995,
                    "velocity": 0.5196850393700787,
                    "duration": 0.06535949999999957
                },
                {
                    "name": "E5",
                    "midi": 76,
                    "time": 26.07844049999995,
                    "velocity": 0.5196850393700787,
                    "duration": 0.06535949999999957
                },
                {
                    "name": "C#5",
                    "midi": 73,
                    "time": 26.14379999999995,
                    "velocity": 0.6771653543307087,
                    "duration": 0.2614379999999983
                },
                {
                    "name": "A4",
                    "midi": 69,
                    "time": 26.405237999999947,
                    "velocity": 0.6535433070866141,
                    "duration": 0.06535949999999957
                },
                {
                    "name": "C#5",
                    "midi": 73,
                    "time": 26.470597499999947,
                    "velocity": 0.5196850393700787,
                    "duration": 0.06535949999999957
                },
                {
                    "name": "E5",
                    "midi": 76,
                    "time": 26.535956999999947,
                    "velocity": 0.5196850393700787,
                    "duration": 0.06535949999999957
                },
                {
                    "name": "A5",
                    "midi": 81,
                    "time": 26.601316499999946,
                    "velocity": 0.5196850393700787,
                    "duration": 0.06535949999999957
                },
                {
                    "name": "E5",
                    "midi": 76,
                    "time": 26.666675999999946,
                    "velocity": 0.6771653543307087,
                    "duration": 0.2614379999999983
                },
                {
                    "name": "E5",
                    "midi": 76,
                    "time": 26.928113999999944,
                    "velocity": 0.7480314960629921,
                    "duration": 0.06535949999999957
                },
                {
                    "name": "A5",
                    "midi": 81,
                    "time": 26.993473499999943,
                    "velocity": 0.5905511811023622,
                    "duration": 0.06535949999999957
                },
                {
                    "name": "C#6",
                    "midi": 85,
                    "time": 27.058832999999943,
                    "velocity": 0.5905511811023622,
                    "duration": 0.06535949999999957
                },
                {
                    "name": "E6",
                    "midi": 88,
                    "time": 27.124192499999943,
                    "velocity": 0.5905511811023622,
                    "duration": 0.06535949999999957
                },
                {
                    "name": "C#6",
                    "midi": 85,
                    "time": 27.189551999999942,
                    "velocity": 0.8031496062992126,
                    "duration": 0.2614379999999983
                },
                {
                    "name": "A4",
                    "midi": 69,
                    "time": 27.97386599999994,
                    "velocity": 0.48031496062992124,
                    "duration": 0.06535949999999957
                },
                {
                    "name": "E4",
                    "midi": 64,
                    "time": 28.03922549999994,
                    "velocity": 0.3937007874015748,
                    "duration": 0.06535949999999957
                },
                {
                    "name": "C#4",
                    "midi": 61,
                    "time": 28.10458499999994,
                    "velocity": 0.3937007874015748,
                    "duration": 0.06535949999999957
                },
                {
                    "name": "A3",
                    "midi": 57,
                    "time": 28.16994449999994,
                    "velocity": 0.3937007874015748,
                    "duration": 0.06535949999999957
                },
                {
                    "name": "G3",
                    "midi": 55,
                    "time": 28.23530399999994,
                    "velocity": 0.4881889763779528,
                    "duration": 1.0457520000000002
                },
                {
                    "name": "F#3",
                    "midi": 54,
                    "time": 29.28105599999994,
                    "velocity": 0.48031496062992124,
                    "duration": 0.13071899999999914
                },
                {
                    "name": "B3",
                    "midi": 59,
                    "time": 29.41177499999994,
                    "velocity": 0.4330708661417323,
                    "duration": 0.13071899999999914
                },
                {
                    "name": "A#3",
                    "midi": 58,
                    "time": 29.542493999999937,
                    "velocity": 0.3858267716535433,
                    "duration": 0.13071899999999914
                },
                {
                    "name": "B3",
                    "midi": 59,
                    "time": 29.673212999999937,
                    "velocity": 0.4251968503937008,
                    "duration": 0.13071899999999914
                },
                {
                    "name": "C#4",
                    "midi": 61,
                    "time": 29.803931999999936,
                    "velocity": 0.4645669291338583,
                    "duration": 0.13071899999999914
                },
                {
                    "name": "B3",
                    "midi": 59,
                    "time": 29.934650999999935,
                    "velocity": 0.4330708661417323,
                    "duration": 0.13071899999999914
                },
                {
                    "name": "A#3",
                    "midi": 58,
                    "time": 30.065369999999934,
                    "velocity": 0.3700787401574803,
                    "duration": 0.13071899999999914
                },
                {
                    "name": "B3",
                    "midi": 59,
                    "time": 30.196088999999933,
                    "velocity": 0.4409448818897638,
                    "duration": 0.13071899999999914
                },
                {
                    "name": "A3",
                    "midi": 57,
                    "time": 30.326807999999932,
                    "velocity": 0.4881889763779528,
                    "duration": 1.0457520000000002
                },
                {
                    "name": "G#3",
                    "midi": 56,
                    "time": 31.372559999999933,
                    "velocity": 0.48031496062992124,
                    "duration": 0.13071899999999914
                },
                {
                    "name": "E4",
                    "midi": 64,
                    "time": 31.50327899999993,
                    "velocity": 0.4330708661417323,
                    "duration": 0.13071899999999914
                },
                {
                    "name": "D#4",
                    "midi": 63,
                    "time": 31.63399799999993,
                    "velocity": 0.3858267716535433,
                    "duration": 0.13071899999999914
                },
                {
                    "name": "E4",
                    "midi": 64,
                    "time": 31.76471699999993,
                    "velocity": 0.4251968503937008,
                    "duration": 0.13071899999999914
                },
                {
                    "name": "F#4",
                    "midi": 66,
                    "time": 31.89543599999993,
                    "velocity": 0.4645669291338583,
                    "duration": 0.1307190000000027
                },
                {
                    "name": "E4",
                    "midi": 64,
                    "time": 32.02615499999993,
                    "velocity": 0.4330708661417323,
                    "duration": 0.13071899999999914
                },
                {
                    "name": "D#4",
                    "midi": 63,
                    "time": 32.15687399999993,
                    "velocity": 0.3700787401574803,
                    "duration": 0.13071899999999914
                },
                {
                    "name": "E4",
                    "midi": 64,
                    "time": 32.28759299999993,
                    "velocity": 0.4409448818897638,
                    "duration": 0.13071899999999914
                },
                {
                    "name": "D#4",
                    "midi": 63,
                    "time": 32.41831199999993,
                    "velocity": 0.4881889763779528,
                    "duration": 0.2614379999999983
                },
                {
                    "name": "A4",
                    "midi": 69,
                    "time": 32.67974999999993,
                    "velocity": 0.44881889763779526,
                    "duration": 0.13071899999999914
                },
                {
                    "name": "D#4",
                    "midi": 63,
                    "time": 33.202625999999924,
                    "velocity": 0.4881889763779528,
                    "duration": 0.2614379999999983
                },
                {
                    "name": "E4",
                    "midi": 64,
                    "time": 33.46406399999992,
                    "velocity": 0.4881889763779528,
                    "duration": 0.13071899999999914
                },
                {
                    "name": "E4",
                    "midi": 64,
                    "time": 33.72550199999992,
                    "velocity": 0.4881889763779528,
                    "duration": 0.13071899999999914
                },
                {
                    "name": "B4",
                    "midi": 71,
                    "time": 33.85622099999992,
                    "velocity": 0.44881889763779526,
                    "duration": 0.13071899999999914
                },
                {
                    "name": "E4",
                    "midi": 64,
                    "time": 33.98693999999992,
                    "velocity": 0.4881889763779528,
                    "duration": 0.1960784999999987
                },
                {
                    "name": "E4",
                    "midi": 64,
                    "time": 34.24837799999992,
                    "velocity": 0.44881889763779526,
                    "duration": 0.2614379999999983
                },
                {
                    "name": "D#4",
                    "midi": 63,
                    "time": 34.509815999999915,
                    "velocity": 0.4881889763779528,
                    "duration": 0.2614379999999983
                },
                {
                    "name": "A4",
                    "midi": 69,
                    "time": 34.771253999999914,
                    "velocity": 0.44881889763779526,
                    "duration": 0.13071899999999914
                },
                {
                    "name": "D#4",
                    "midi": 63,
                    "time": 35.29412999999991,
                    "velocity": 0.4881889763779528,
                    "duration": 0.2614379999999983
                },
                {
                    "name": "E4",
                    "midi": 64,
                    "time": 35.55556799999991,
                    "velocity": 0.4881889763779528,
                    "duration": 0.13071899999999914
                },
                {
                    "name": "E4",
                    "midi": 64,
                    "time": 35.81700599999991,
                    "velocity": 0.4881889763779528,
                    "duration": 0.13071899999999914
                },
                {
                    "name": "B4",
                    "midi": 71,
                    "time": 35.947724999999906,
                    "velocity": 0.44881889763779526,
                    "duration": 0.13071899999999914
                },
                {
                    "name": "E4",
                    "midi": 64,
                    "time": 36.078443999999905,
                    "velocity": 0.4881889763779528,
                    "duration": 0.1960784999999987
                },
                {
                    "name": "D4",
                    "midi": 62,
                    "time": 36.3398819999999,
                    "velocity": 0.3700787401574803,
                    "duration": 0.032679749999999785
                },
                {
                    "name": "E4",
                    "midi": 64,
                    "time": 36.3725617499999,
                    "velocity": 0.3464566929133858,
                    "duration": 0.032679749999999785
                },
                {
                    "name": "D4",
                    "midi": 62,
                    "time": 36.4052414999999,
                    "velocity": 0.44881889763779526,
                    "duration": 0.1960784999999987
                },
                {
                    "name": "C#4",
                    "midi": 61,
                    "time": 36.6013199999999,
                    "velocity": 0.4881889763779528,
                    "duration": 0.12527237500000155
                },
                {
                    "name": "E5",
                    "midi": 76,
                    "time": 36.8627579999999,
                    "velocity": 0.5039370078740157,
                    "duration": 0.13071899999999914
                },
                {
                    "name": "A4",
                    "midi": 69,
                    "time": 37.3856339999999,
                    "velocity": 0.4881889763779528,
                    "duration": 0.2614379999999983
                },
                {
                    "name": "G#4",
                    "midi": 68,
                    "time": 37.647071999999895,
                    "velocity": 0.4881889763779528,
                    "duration": 0.13071899999999914
                },
                {
                    "name": "G#4",
                    "midi": 68,
                    "time": 37.90850999999989,
                    "velocity": 0.4881889763779528,
                    "duration": 0.13071899999999914
                },
                {
                    "name": "E5",
                    "midi": 76,
                    "time": 38.03922899999989,
                    "velocity": 0.44881889763779526,
                    "duration": 0.13071899999999914
                },
                {
                    "name": "G#4",
                    "midi": 68,
                    "time": 38.16994799999989,
                    "velocity": 0.4881889763779528,
                    "duration": 0.1960784999999987
                },
                {
                    "name": "G#4",
                    "midi": 68,
                    "time": 38.43138599999989,
                    "velocity": 0.44881889763779526,
                    "duration": 0.2614379999999983
                },
                {
                    "name": "A4",
                    "midi": 69,
                    "time": 38.69282399999989,
                    "velocity": 0.4881889763779528,
                    "duration": 0.13071899999999914
                },
                {
                    "name": "A4",
                    "midi": 69,
                    "time": 38.954261999999886,
                    "velocity": 0.4881889763779528,
                    "duration": 0.13071899999999914
                },
                {
                    "name": "E5",
                    "midi": 76,
                    "time": 39.084980999999885,
                    "velocity": 0.44881889763779526,
                    "duration": 0.13071899999999914
                },
                {
                    "name": "A4",
                    "midi": 69,
                    "time": 39.215699999999885,
                    "velocity": 0.4881889763779528,
                    "duration": 0.1960784999999987
                },
                {
                    "name": "A4",
                    "midi": 69,
                    "time": 39.47713799999988,
                    "velocity": 0.44881889763779526,
                    "duration": 0.2614379999999983
                },
                {
                    "name": "B4",
                    "midi": 71,
                    "time": 39.73857599999988,
                    "velocity": 0.4881889763779528,
                    "duration": 0.13071899999999914
                },
                {
                    "name": "B4",
                    "midi": 71,
                    "time": 40.00001399999988,
                    "velocity": 0.4881889763779528,
                    "duration": 0.13071899999999914
                },
                {
                    "name": "E5",
                    "midi": 76,
                    "time": 40.13073299999988,
                    "velocity": 0.44881889763779526,
                    "duration": 0.13071899999999914
                },
                {
                    "name": "B4",
                    "midi": 71,
                    "time": 40.26145199999988,
                    "velocity": 0.4881889763779528,
                    "duration": 0.1960784999999987
                },
                {
                    "name": "D5",
                    "midi": 74,
                    "time": 40.522889999999876,
                    "velocity": 0.44881889763779526,
                    "duration": 0.2614379999999983
                },
                {
                    "name": "C#5",
                    "midi": 73,
                    "time": 40.784327999999874,
                    "velocity": 0.5039370078740157,
                    "duration": 0.13071899999999914
                },
                {
                    "name": "D5",
                    "midi": 74,
                    "time": 40.91504699999987,
                    "velocity": 0.44881889763779526,
                    "duration": 0.13071899999999914
                },
                {
                    "name": "E5",
                    "midi": 76,
                    "time": 41.04576599999987,
                    "velocity": 0.44881889763779526,
                    "duration": 0.13071899999999914
                },
                {
                    "name": "C#5",
                    "midi": 73,
                    "time": 41.17648499999987,
                    "velocity": 0.44881889763779526,
                    "duration": 0.13071899999999914
                },
                {
                    "name": "B4",
                    "midi": 71,
                    "time": 41.30720399999987,
                    "velocity": 0.4881889763779528,
                    "duration": 0.13071899999999914
                },
                {
                    "name": "A4",
                    "midi": 69,
                    "time": 41.43792299999987,
                    "velocity": 0.44881889763779526,
                    "duration": 0.13071899999999914
                },
                {
                    "name": "G#4",
                    "midi": 68,
                    "time": 41.56864199999987,
                    "velocity": 0.44881889763779526,
                    "duration": 0.13071899999999914
                },
                {
                    "name": "F#4",
                    "midi": 66,
                    "time": 41.69936099999987,
                    "velocity": 0.44881889763779526,
                    "duration": 0.13071899999999914
                },
                {
                    "name": "E4",
                    "midi": 64,
                    "time": 41.83007999999987,
                    "velocity": 0.5039370078740157,
                    "duration": 0.13071899999999914
                },
                {
                    "name": "D#4",
                    "midi": 63,
                    "time": 41.96079899999987,
                    "velocity": 0.41732283464566927,
                    "duration": 0.13071899999999914
                },
                {
                    "name": "E4",
                    "midi": 64,
                    "time": 42.091517999999866,
                    "velocity": 0.44881889763779526,
                    "duration": 0.13071899999999914
                },
                {
                    "name": "F#4",
                    "midi": 66,
                    "time": 42.222236999999865,
                    "velocity": 0.41732283464566927,
                    "duration": 0.13071899999999914
                },
                {
                    "name": "E4",
                    "midi": 64,
                    "time": 42.352955999999864,
                    "velocity": 0.44881889763779526,
                    "duration": 0.13071899999999914
                },
                {
                    "name": "D4",
                    "midi": 62,
                    "time": 42.48367499999986,
                    "velocity": 0.4015748031496063,
                    "duration": 0.13071899999999914
                },
                {
                    "name": "C#4",
                    "midi": 61,
                    "time": 42.61439399999986,
                    "velocity": 0.4015748031496063,
                    "duration": 0.13071899999999914
                },
                {
                    "name": "B3",
                    "midi": 59,
                    "time": 42.74511299999986,
                    "velocity": 0.4015748031496063,
                    "duration": 0.13071899999999914
                },
                {
                    "name": "C#4",
                    "midi": 61,
                    "time": 42.87583199999986,
                    "velocity": 0.4409448818897638,
                    "duration": 0.13071899999999914
                },
                {
                    "name": "D4",
                    "midi": 62,
                    "time": 43.00655099999986,
                    "velocity": 0.3700787401574803,
                    "duration": 0.13071899999999914
                },
                {
                    "name": "E4",
                    "midi": 64,
                    "time": 43.13726999999986,
                    "velocity": 0.3700787401574803,
                    "duration": 0.13071899999999914
                },
                {
                    "name": "C#4",
                    "midi": 61,
                    "time": 43.26798899999986,
                    "velocity": 0.3700787401574803,
                    "duration": 0.13071899999999914
                },
                {
                    "name": "B3",
                    "midi": 59,
                    "time": 43.39870799999986,
                    "velocity": 0.4330708661417323,
                    "duration": 0.13071899999999914
                },
                {
                    "name": "A3",
                    "midi": 57,
                    "time": 43.529426999999856,
                    "velocity": 0.4015748031496063,
                    "duration": 0.13071899999999914
                },
                {
                    "name": "G#3",
                    "midi": 56,
                    "time": 43.660145999999855,
                    "velocity": 0.4015748031496063,
                    "duration": 0.13071899999999914
                },
                {
                    "name": "F#3",
                    "midi": 54,
                    "time": 43.790864999999854,
                    "velocity": 0.4015748031496063,
                    "duration": 0.13071899999999914
                },
                {
                    "name": "C#5",
                    "midi": 73,
                    "time": 44.967335999999854,
                    "velocity": 0.5039370078740157,
                    "duration": 0.13071899999999914
                },
                {
                    "name": "D5",
                    "midi": 74,
                    "time": 45.09805499999985,
                    "velocity": 0.44881889763779526,
                    "duration": 0.13071899999999914
                },
                {
                    "name": "E5",
                    "midi": 76,
                    "time": 45.22877399999985,
                    "velocity": 0.44881889763779526,
                    "duration": 0.13071899999999914
                },
                {
                    "name": "C#5",
                    "midi": 73,
                    "time": 45.35949299999985,
                    "velocity": 0.44881889763779526,
                    "duration": 0.13071899999999914
                },
                {
                    "name": "B4",
                    "midi": 71,
                    "time": 45.49021199999985,
                    "velocity": 0.4881889763779528,
                    "duration": 0.13071899999999914
                },
                {
                    "name": "A4",
                    "midi": 69,
                    "time": 45.62093099999985,
                    "velocity": 0.44881889763779526,
                    "duration": 0.13071899999999914
                },
                {
                    "name": "G#4",
                    "midi": 68,
                    "time": 45.75164999999985,
                    "velocity": 0.44881889763779526,
                    "duration": 0.13071899999999914
                },
                {
                    "name": "A4",
                    "midi": 69,
                    "time": 45.88236899999985,
                    "velocity": 0.44881889763779526,
                    "duration": 0.13071899999999914
                },
                {
                    "name": "F#5",
                    "midi": 78,
                    "time": 46.01308799999985,
                    "velocity": 0.5039370078740157,
                    "duration": 0.13071899999999914
                },
                {
                    "name": "G#5",
                    "midi": 80,
                    "time": 46.143806999999846,
                    "velocity": 0.5039370078740157,
                    "duration": 0.13071899999999914
                },
                {
                    "name": "A5",
                    "midi": 81,
                    "time": 46.274525999999845,
                    "velocity": 0.5354330708661418,
                    "duration": 0.13071899999999914
                },
                {
                    "name": "F#5",
                    "midi": 78,
                    "time": 46.405244999999844,
                    "velocity": 0.5039370078740157,
                    "duration": 0.13071899999999914
                },
                {
                    "name": "E5",
                    "midi": 76,
                    "time": 46.535963999999844,
                    "velocity": 0.4881889763779528,
                    "duration": 0.13071899999999914
                },
                {
                    "name": "D5",
                    "midi": 74,
                    "time": 46.66668299999984,
                    "velocity": 0.48031496062992124,
                    "duration": 0.13071899999999914
                },
                {
                    "name": "C#5",
                    "midi": 73,
                    "time": 46.79740199999984,
                    "velocity": 0.4566929133858268,
                    "duration": 0.13071899999999914
                },
                {
                    "name": "B4",
                    "midi": 71,
                    "time": 46.92812099999984,
                    "velocity": 0.4566929133858268,
                    "duration": 0.13071899999999914
                },
                {
                    "name": "A#4",
                    "midi": 70,
                    "time": 47.05883999999984,
                    "velocity": 0.5039370078740157,
                    "duration": 0.13071899999999914
                },
                {
                    "name": "B4",
                    "midi": 71,
                    "time": 47.18955899999984,
                    "velocity": 0.44881889763779526,
                    "duration": 0.13071899999999914
                },
                {
                    "name": "C#5",
                    "midi": 73,
                    "time": 47.32027799999984,
                    "velocity": 0.44881889763779526,
                    "duration": 0.13071899999999914
                },
                {
                    "name": "B4",
                    "midi": 71,
                    "time": 47.45099699999984,
                    "velocity": 0.44881889763779526,
                    "duration": 0.13071899999999914
                },
                {
                    "name": "D5",
                    "midi": 74,
                    "time": 47.58171599999984,
                    "velocity": 0.4881889763779528,
                    "duration": 0.13071899999999914
                },
                {
                    "name": "C#5",
                    "midi": 73,
                    "time": 47.712434999999836,
                    "velocity": 0.44881889763779526,
                    "duration": 0.13071899999999914
                },
                {
                    "name": "E5",
                    "midi": 76,
                    "time": 47.843153999999835,
                    "velocity": 0.48031496062992124,
                    "duration": 0.13071899999999914
                },
                {
                    "name": "D5",
                    "midi": 74,
                    "time": 47.973872999999834,
                    "velocity": 0.44881889763779526,
                    "duration": 0.13071899999999914
                },
                {
                    "name": "F#5",
                    "midi": 78,
                    "time": 48.10459199999983,
                    "velocity": 0.49606299212598426,
                    "duration": 0.2614379999999983
                },
                {
                    "name": "E5",
                    "midi": 76,
                    "time": 48.62746799999983,
                    "velocity": 0.4881889763779528,
                    "duration": 0.13071899999999914
                },
                {
                    "name": "D5",
                    "midi": 74,
                    "time": 48.75818699999983,
                    "velocity": 0.44881889763779526,
                    "duration": 0.13071899999999914
                },
                {
                    "name": "C#5",
                    "midi": 73,
                    "time": 48.88890599999983,
                    "velocity": 0.4881889763779528,
                    "duration": 0.13071899999999914
                },
                {
                    "name": "B4",
                    "midi": 71,
                    "time": 49.01962499999983,
                    "velocity": 0.44881889763779526,
                    "duration": 0.13071899999999914
                },
                {
                    "name": "A4",
                    "midi": 69,
                    "time": 49.150343999999826,
                    "velocity": 0.4881889763779528,
                    "duration": 0.5228759999999966
                },
                {
                    "name": "B4",
                    "midi": 71,
                    "time": 49.67321999999982,
                    "velocity": 0.4881889763779528,
                    "duration": 0.06535949999999957
                },
                {
                    "name": "C#5",
                    "midi": 73,
                    "time": 49.73857949999982,
                    "velocity": 0.4251968503937008,
                    "duration": 0.06535949999999957
                },
                {
                    "name": "B4",
                    "midi": 71,
                    "time": 49.80393899999982,
                    "velocity": 0.4881889763779528,
                    "duration": 0.06535949999999957
                },
                {
                    "name": "C#5",
                    "midi": 73,
                    "time": 49.86929849999982,
                    "velocity": 0.4330708661417323,
                    "duration": 0.06535949999999957
                },
                {
                    "name": "B4",
                    "midi": 71,
                    "time": 49.93465799999982,
                    "velocity": 0.4881889763779528,
                    "duration": 0.08714599999999706
                },
                {
                    "name": "C#5",
                    "midi": 73,
                    "time": 50.02180399999982,
                    "velocity": 0.4330708661417323,
                    "duration": 0.08714599999999706
                },
                {
                    "name": "B4",
                    "midi": 71,
                    "time": 50.108949999999815,
                    "velocity": 0.4881889763779528,
                    "duration": 0.08714599999999706
                },
                {
                    "name": "C#5",
                    "midi": 73,
                    "time": 50.19609599999981,
                    "velocity": 0.5039370078740157,
                    "duration": 0.13071899999999914
                },
                {
                    "name": "D5",
                    "midi": 74,
                    "time": 50.32681499999981,
                    "velocity": 0.44881889763779526,
                    "duration": 0.13071899999999914
                },
                {
                    "name": "E5",
                    "midi": 76,
                    "time": 50.45753399999981,
                    "velocity": 0.44881889763779526,
                    "duration": 0.13071899999999914
                },
                {
                    "name": "C#5",
                    "midi": 73,
                    "time": 50.58825299999981,
                    "velocity": 0.44881889763779526,
                    "duration": 0.13071899999999914
                },
                {
                    "name": "B4",
                    "midi": 71,
                    "time": 50.71897199999981,
                    "velocity": 0.4881889763779528,
                    "duration": 0.13071899999999914
                },
                {
                    "name": "A4",
                    "midi": 69,
                    "time": 50.84969099999981,
                    "velocity": 0.44881889763779526,
                    "duration": 0.13071899999999914
                },
                {
                    "name": "G#4",
                    "midi": 68,
                    "time": 50.98040999999981,
                    "velocity": 0.44881889763779526,
                    "duration": 0.13071899999999914
                },
                {
                    "name": "A4",
                    "midi": 69,
                    "time": 51.111128999999806,
                    "velocity": 0.44881889763779526,
                    "duration": 0.13071899999999914
                },
                {
                    "name": "F#5",
                    "midi": 78,
                    "time": 51.241847999999806,
                    "velocity": 0.5039370078740157,
                    "duration": 0.13071899999999914
                },
                {
                    "name": "G#5",
                    "midi": 80,
                    "time": 51.372566999999805,
                    "velocity": 0.5039370078740157,
                    "duration": 0.13071899999999914
                },
                {
                    "name": "A5",
                    "midi": 81,
                    "time": 51.503285999999804,
                    "velocity": 0.5354330708661418,
                    "duration": 0.13071899999999914
                },
                {
                    "name": "F#5",
                    "midi": 78,
                    "time": 51.6340049999998,
                    "velocity": 0.5039370078740157,
                    "duration": 0.13071899999999914
                },
                {
                    "name": "E5",
                    "midi": 76,
                    "time": 51.7647239999998,
                    "velocity": 0.4881889763779528,
                    "duration": 0.13071899999999914
                },
                {
                    "name": "D5",
                    "midi": 74,
                    "time": 51.8954429999998,
                    "velocity": 0.48031496062992124,
                    "duration": 0.13071899999999914
                },
                {
                    "name": "C#5",
                    "midi": 73,
                    "time": 52.0261619999998,
                    "velocity": 0.4566929133858268,
                    "duration": 0.13071899999999914
                },
                {
                    "name": "B4",
                    "midi": 71,
                    "time": 52.1568809999998,
                    "velocity": 0.4566929133858268,
                    "duration": 0.13071899999999914
                },
                {
                    "name": "A#4",
                    "midi": 70,
                    "time": 52.2875999999998,
                    "velocity": 0.5039370078740157,
                    "duration": 0.13071899999999914
                },
                {
                    "name": "B4",
                    "midi": 71,
                    "time": 52.4183189999998,
                    "velocity": 0.44881889763779526,
                    "duration": 0.13071899999999914
                },
                {
                    "name": "C#5",
                    "midi": 73,
                    "time": 52.5490379999998,
                    "velocity": 0.44881889763779526,
                    "duration": 0.13071899999999914
                },
                {
                    "name": "B4",
                    "midi": 71,
                    "time": 52.679756999999796,
                    "velocity": 0.44881889763779526,
                    "duration": 0.13071899999999914
                },
                {
                    "name": "D5",
                    "midi": 74,
                    "time": 52.810475999999795,
                    "velocity": 0.4881889763779528,
                    "duration": 0.13071899999999914
                },
                {
                    "name": "C#5",
                    "midi": 73,
                    "time": 52.941194999999794,
                    "velocity": 0.44881889763779526,
                    "duration": 0.13071899999999914
                },
                {
                    "name": "E5",
                    "midi": 76,
                    "time": 53.07191399999979,
                    "velocity": 0.48031496062992124,
                    "duration": 0.13071899999999914
                },
                {
                    "name": "D5",
                    "midi": 74,
                    "time": 53.20263299999979,
                    "velocity": 0.44881889763779526,
                    "duration": 0.13071899999999914
                },
                {
                    "name": "F#5",
                    "midi": 78,
                    "time": 53.33335199999979,
                    "velocity": 0.49606299212598426,
                    "duration": 0.2614379999999983
                },
                {
                    "name": "D5",
                    "midi": 74,
                    "time": 53.85622799999979,
                    "velocity": 0.33858267716535434,
                    "duration": 0.13071899999999914
                },
                {
                    "name": "C#5",
                    "midi": 73,
                    "time": 53.98694699999979,
                    "velocity": 0.30708661417322836,
                    "duration": 0.13071899999999914
                },
                {
                    "name": "E5",
                    "midi": 76,
                    "time": 54.11766599999979,
                    "velocity": 0.33070866141732286,
                    "duration": 0.13071899999999914
                },
                {
                    "name": "D5",
                    "midi": 74,
                    "time": 54.248384999999786,
                    "velocity": 0.30708661417322836,
                    "duration": 0.13071899999999914
                },
                {
                    "name": "F#5",
                    "midi": 78,
                    "time": 54.379103999999785,
                    "velocity": 0.3464566929133858,
                    "duration": 0.2614379999999983
                },
                {
                    "name": "D5",
                    "midi": 74,
                    "time": 54.90197999999978,
                    "velocity": 0.36220472440944884,
                    "duration": 0.13071899999999914
                },
                {
                    "name": "C#5",
                    "midi": 73,
                    "time": 55.03269899999978,
                    "velocity": 0.30708661417322836,
                    "duration": 0.13071899999999914
                },
                {
                    "name": "E5",
                    "midi": 76,
                    "time": 55.16341799999978,
                    "velocity": 0.3700787401574803,
                    "duration": 0.13071899999999914
                },
                {
                    "name": "D5",
                    "midi": 74,
                    "time": 55.29413699999978,
                    "velocity": 0.30708661417322836,
                    "duration": 0.13071899999999914
                },
                {
                    "name": "F#5",
                    "midi": 78,
                    "time": 55.42485599999978,
                    "velocity": 0.3464566929133858,
                    "duration": 0.6535950000000028
                },
                {
                    "name": "F4",
                    "midi": 65,
                    "time": 56.14381049999978,
                    "velocity": 0.5039370078740157,
                    "duration": 0.06535949999999957
                },
                {
                    "name": "F5",
                    "midi": 77,
                    "time": 56.20916999999978,
                    "velocity": 0.5511811023622047,
                    "duration": 0.1960784999999987
                },
                {
                    "name": "F#4",
                    "midi": 66,
                    "time": 56.40524849999978,
                    "velocity": 0.5118110236220472,
                    "duration": 0.06535949999999957
                },
                {
                    "name": "F#5",
                    "midi": 78,
                    "time": 56.47060799999978,
                    "velocity": 0.5669291338582677,
                    "duration": 0.1960784999999987
                },
                {
                    "name": "A#4",
                    "midi": 70,
                    "time": 56.66668649999978,
                    "velocity": 0.5354330708661418,
                    "duration": 0.06535949999999957
                },
                {
                    "name": "A#5",
                    "midi": 82,
                    "time": 56.73204599999978,
                    "velocity": 0.5826771653543307,
                    "duration": 0.1960784999999987
                },
                {
                    "name": "B4",
                    "midi": 71,
                    "time": 56.928124499999775,
                    "velocity": 0.5433070866141733,
                    "duration": 0.06535949999999957
                },
                {
                    "name": "B5",
                    "midi": 83,
                    "time": 56.993483999999775,
                    "velocity": 0.5905511811023622,
                    "duration": 0.1960784999999987
                },
                {
                    "name": "C#5",
                    "midi": 73,
                    "time": 57.189562499999774,
                    "velocity": 0.5590551181102362,
                    "duration": 0.06535949999999957
                },
                {
                    "name": "C#6",
                    "midi": 85,
                    "time": 57.25492199999977,
                    "velocity": 0.6062992125984252,
                    "duration": 0.1960784999999987
                },
                {
                    "name": "D5",
                    "midi": 74,
                    "time": 57.45100049999977,
                    "velocity": 0.5590551181102362,
                    "duration": 0.06535949999999957
                },
                {
                    "name": "D6",
                    "midi": 86,
                    "time": 57.51635999999977,
                    "velocity": 0.6141732283464567,
                    "duration": 0.3921569999999974
                },
                {
                    "name": "B5",
                    "midi": 83,
                    "time": 57.90851699999977,
                    "velocity": 0.5354330708661418,
                    "duration": 0.13071899999999914
                },
                {
                    "name": "D6",
                    "midi": 86,
                    "time": 58.03923599999977,
                    "velocity": 0.5826771653543307,
                    "duration": 0.13071899999999914
                },
                {
                    "name": "B5",
                    "midi": 83,
                    "time": 58.16995499999977,
                    "velocity": 0.5354330708661418,
                    "duration": 0.13071899999999914
                },
                {
                    "name": "D6",
                    "midi": 86,
                    "time": 58.300673999999766,
                    "velocity": 0.5748031496062992,
                    "duration": 0.13071899999999914
                },
                {
                    "name": "B5",
                    "midi": 83,
                    "time": 58.431392999999765,
                    "velocity": 0.5511811023622047,
                    "duration": 0.13071899999999914
                },
                {
                    "name": "E5",
                    "midi": 76,
                    "time": 58.562111999999765,
                    "velocity": 0.6220472440944882,
                    "duration": 0.3921569999999974
                },
                {
                    "name": "A5",
                    "midi": 81,
                    "time": 58.95426899999976,
                    "velocity": 0.5669291338582677,
                    "duration": 0.06535949999999957
                },
                {
                    "name": "C#6",
                    "midi": 85,
                    "time": 59.01962849999976,
                    "velocity": 0.5905511811023622,
                    "duration": 0.06535949999999957
                },
                {
                    "name": "E6",
                    "midi": 88,
                    "time": 59.08498799999976,
                    "velocity": 0.6220472440944882,
                    "duration": 0.3921569999999974
                },
                {
                    "name": "A5",
                    "midi": 81,
                    "time": 59.47714499999976,
                    "velocity": 0.5511811023622047,
                    "duration": 0.06535949999999957
                },
                {
                    "name": "B5",
                    "midi": 83,
                    "time": 59.54250449999976,
                    "velocity": 0.4409448818897638,
                    "duration": 0.04357300000000208
                },
                {
                    "name": "B5",
                    "midi": 83,
                    "time": 59.60786399999976,
                    "velocity": 0.5433070866141733,
                    "duration": 0.06535949999999957
                },
                {
                    "name": "C#6",
                    "midi": 85,
                    "time": 59.67322349999976,
                    "velocity": 0.3858267716535433,
                    "duration": 0.06535949999999957
                },
                {
                    "name": "B5",
                    "midi": 83,
                    "time": 59.73858299999976,
                    "velocity": 0.48031496062992124,
                    "duration": 0.06535949999999957
                },
                {
                    "name": "C#6",
                    "midi": 85,
                    "time": 59.803942499999756,
                    "velocity": 0.4330708661417323,
                    "duration": 0.06535949999999957
                },
                {
                    "name": "B5",
                    "midi": 83,
                    "time": 59.869301999999756,
                    "velocity": 0.5039370078740157,
                    "duration": 0.06535949999999957
                },
                {
                    "name": "C#6",
                    "midi": 85,
                    "time": 59.934661499999756,
                    "velocity": 0.4566929133858268,
                    "duration": 0.06535949999999957
                },
                {
                    "name": "B5",
                    "midi": 83,
                    "time": 60.000020999999755,
                    "velocity": 0.5275590551181102,
                    "duration": 0.06535949999999957
                },
                {
                    "name": "C#6",
                    "midi": 85,
                    "time": 60.065380499999755,
                    "velocity": 0.4881889763779528,
                    "duration": 0.06535949999999957
                },
                {
                    "name": "B5",
                    "midi": 83,
                    "time": 60.130739999999754,
                    "velocity": 0.5511811023622047,
                    "duration": 0.06535949999999957
                },
                {
                    "name": "C#6",
                    "midi": 85,
                    "time": 60.196099499999754,
                    "velocity": 0.48031496062992124,
                    "duration": 0.06535949999999957
                },
                {
                    "name": "B5",
                    "midi": 83,
                    "time": 60.26145899999975,
                    "velocity": 0.49606299212598426,
                    "duration": 0.06535949999999957
                },
                {
                    "name": "C#6",
                    "midi": 85,
                    "time": 60.32681849999975,
                    "velocity": 0.4330708661417323,
                    "duration": 0.06535949999999957
                },
                {
                    "name": "B5",
                    "midi": 83,
                    "time": 60.39217799999975,
                    "velocity": 0.5196850393700787,
                    "duration": 0.06535949999999957
                },
                {
                    "name": "C#6",
                    "midi": 85,
                    "time": 60.45753749999975,
                    "velocity": 0.44881889763779526,
                    "duration": 0.06535949999999957
                },
                {
                    "name": "B5",
                    "midi": 83,
                    "time": 60.52289699999975,
                    "velocity": 0.5433070866141733,
                    "duration": 0.06535949999999957
                },
                {
                    "name": "C#6",
                    "midi": 85,
                    "time": 60.58825649999975,
                    "velocity": 0.4645669291338583,
                    "duration": 0.06535949999999957
                },
                {
                    "name": "A5",
                    "midi": 81,
                    "time": 60.65361599999975,
                    "velocity": 0.5433070866141733,
                    "duration": 0.5228759999999966
                },
                {
                    "name": "E5",
                    "midi": 76,
                    "time": 61.437929999999746,
                    "velocity": 0.5433070866141733,
                    "duration": 0.2614379999999983
                },
                {
                    "name": "F#5",
                    "midi": 78,
                    "time": 61.699367999999744,
                    "velocity": 0.5039370078740157,
                    "duration": 0.06535949999999957
                },
                {
                    "name": "G#5",
                    "midi": 80,
                    "time": 61.76472749999974,
                    "velocity": 0.4645669291338583,
                    "duration": 0.06535949999999957
                },
                {
                    "name": "F#5",
                    "midi": 78,
                    "time": 61.83008699999974,
                    "velocity": 0.5354330708661418,
                    "duration": 0.13071899999999914
                },
                {
                    "name": "E5",
                    "midi": 76,
                    "time": 61.96080599999974,
                    "velocity": 0.4881889763779528,
                    "duration": 0.2614379999999983
                },
                {
                    "name": "F#5",
                    "midi": 78,
                    "time": 62.22224399999974,
                    "velocity": 0.4881889763779528,
                    "duration": 0.06535949999999957
                },
                {
                    "name": "G#5",
                    "midi": 80,
                    "time": 62.28760349999974,
                    "velocity": 0.4881889763779528,
                    "duration": 0.06535949999999957
                },
                {
                    "name": "F#5",
                    "midi": 78,
                    "time": 62.35296299999974,
                    "velocity": 0.5433070866141733,
                    "duration": 0.13071899999999914
                },
                {
                    "name": "E5",
                    "midi": 76,
                    "time": 62.48368199999974,
                    "velocity": 0.49606299212598426,
                    "duration": 0.16339874999999893
                },
                {
                    "name": "E5",
                    "midi": 76,
                    "time": 62.64708074999974,
                    "velocity": 0.5039370078740157,
                    "duration": 0.6209152499999959
                },
                {
                    "name": "G#5",
                    "midi": 80,
                    "time": 62.67976049999974,
                    "velocity": 0.5433070866141733,
                    "duration": 0.5882354999999961
                },
                {
                    "name": "B5",
                    "midi": 83,
                    "time": 62.71244024999974,
                    "velocity": 0.5748031496062992,
                    "duration": 0.5555557499999964
                },
                {
                    "name": "D6",
                    "midi": 86,
                    "time": 62.74511999999974,
                    "velocity": 0.6062992125984252,
                    "duration": 0.5228759999999966
                },
                {
                    "name": "C#6",
                    "midi": 85,
                    "time": 63.52943399999973,
                    "velocity": 0.5433070866141733,
                    "duration": 0.2614379999999983
                },
                {
                    "name": "B5",
                    "midi": 83,
                    "time": 63.79087199999973,
                    "velocity": 0.5039370078740157,
                    "duration": 0.13071899999999914
                },
                {
                    "name": "C#6",
                    "midi": 85,
                    "time": 63.92159099999973,
                    "velocity": 0.3937007874015748,
                    "duration": 0.032679749999999785
                },
                {
                    "name": "B5",
                    "midi": 83,
                    "time": 63.95427074999973,
                    "velocity": 0.4330708661417323,
                    "duration": 0.032679749999999785
                },
                {
                    "name": "A#5",
                    "midi": 82,
                    "time": 63.98695049999973,
                    "velocity": 0.4566929133858268,
                    "duration": 0.03267975000000689
                },
                {
                    "name": "B5",
                    "midi": 83,
                    "time": 64.01963024999974,
                    "velocity": 0.47244094488188976,
                    "duration": 0.032679749999999785
                },
                {
                    "name": "D6",
                    "midi": 86,
                    "time": 64.05230999999974,
                    "velocity": 0.4881889763779528,
                    "duration": 0.2614379999999983
                },
                {
                    "name": "E5",
                    "midi": 76,
                    "time": 64.31374799999973,
                    "velocity": 0.4881889763779528,
                    "duration": 0.13071899999999914
                },
                {
                    "name": "F#5",
                    "midi": 78,
                    "time": 64.44446699999973,
                    "velocity": 0.4251968503937008,
                    "duration": 0.032679749999999785
                },
                {
                    "name": "E5",
                    "midi": 76,
                    "time": 64.47714674999973,
                    "velocity": 0.4330708661417323,
                    "duration": 0.032679749999999785
                },
                {
                    "name": "D#5",
                    "midi": 75,
                    "time": 64.50982649999973,
                    "velocity": 0.4645669291338583,
                    "duration": 0.032679749999999785
                },
                {
                    "name": "E5",
                    "midi": 76,
                    "time": 64.54250624999973,
                    "velocity": 0.4645669291338583,
                    "duration": 0.032679749999999785
                },
                {
                    "name": "G#5",
                    "midi": 80,
                    "time": 64.57518599999973,
                    "velocity": 0.49606299212598426,
                    "duration": 0.2614379999999983
                },
                {
                    "name": "D5",
                    "midi": 74,
                    "time": 64.57518599999973,
                    "velocity": 0.47244094488188976,
                    "duration": 0.2614379999999983
                },
                {
                    "name": "C#5",
                    "midi": 73,
                    "time": 64.83662399999973,
                    "velocity": 0.4566929133858268,
                    "duration": 0.5228759999999966
                },
                {
                    "name": "A5",
                    "midi": 81,
                    "time": 64.83662399999973,
                    "velocity": 0.5433070866141733,
                    "duration": 0.5228759999999966
                },
                {
                    "name": "E5",
                    "midi": 76,
                    "time": 65.62093799999973,
                    "velocity": 0.5433070866141733,
                    "duration": 0.2614379999999983
                },
                {
                    "name": "F#5",
                    "midi": 78,
                    "time": 65.88237599999972,
                    "velocity": 0.5039370078740157,
                    "duration": 0.06535949999999957
                },
                {
                    "name": "G#5",
                    "midi": 80,
                    "time": 65.94773549999972,
                    "velocity": 0.4645669291338583,
                    "duration": 0.06535949999999957
                },
                {
                    "name": "F#5",
                    "midi": 78,
                    "time": 66.01309499999972,
                    "velocity": 0.5354330708661418,
                    "duration": 0.13071899999999914
                },
                {
                    "name": "E5",
                    "midi": 76,
                    "time": 66.14381399999972,
                    "velocity": 0.4881889763779528,
                    "duration": 0.2614379999999983
                },
                {
                    "name": "F#5",
                    "midi": 78,
                    "time": 66.40525199999972,
                    "velocity": 0.4881889763779528,
                    "duration": 0.06535949999999957
                },
                {
                    "name": "G#5",
                    "midi": 80,
                    "time": 66.47061149999972,
                    "velocity": 0.4881889763779528,
                    "duration": 0.06535949999999957
                },
                {
                    "name": "F#5",
                    "midi": 78,
                    "time": 66.53597099999972,
                    "velocity": 0.5433070866141733,
                    "duration": 0.13071899999999914
                },
                {
                    "name": "E5",
                    "midi": 76,
                    "time": 66.66668999999972,
                    "velocity": 0.49606299212598426,
                    "duration": 0.16339874999999893
                },
                {
                    "name": "E5",
                    "midi": 76,
                    "time": 66.83008874999972,
                    "velocity": 0.5039370078740157,
                    "duration": 0.6209152499999959
                },
                {
                    "name": "G#5",
                    "midi": 80,
                    "time": 66.86276849999972,
                    "velocity": 0.5433070866141733,
                    "duration": 0.5882354999999961
                },
                {
                    "name": "B5",
                    "midi": 83,
                    "time": 66.89544824999972,
                    "velocity": 0.5748031496062992,
                    "duration": 0.5555557499999964
                },
                {
                    "name": "D6",
                    "midi": 86,
                    "time": 66.92812799999972,
                    "velocity": 0.6062992125984252,
                    "duration": 0.5228759999999966
                },
                {
                    "name": "C#6",
                    "midi": 85,
                    "time": 67.71244199999971,
                    "velocity": 0.5433070866141733,
                    "duration": 0.2614379999999983
                },
                {
                    "name": "B5",
                    "midi": 83,
                    "time": 67.97387999999971,
                    "velocity": 0.5039370078740157,
                    "duration": 0.13071899999999914
                },
                {
                    "name": "C#6",
                    "midi": 85,
                    "time": 68.10459899999971,
                    "velocity": 0.3937007874015748,
                    "duration": 0.032679749999999785
                },
                {
                    "name": "B5",
                    "midi": 83,
                    "time": 68.13727874999971,
                    "velocity": 0.4330708661417323,
                    "duration": 0.032679749999999785
                },
                {
                    "name": "A#5",
                    "midi": 82,
                    "time": 68.16995849999971,
                    "velocity": 0.4566929133858268,
                    "duration": 0.032679749999999785
                },
                {
                    "name": "B5",
                    "midi": 83,
                    "time": 68.20263824999971,
                    "velocity": 0.47244094488188976,
                    "duration": 0.032679749999999785
                },
                {
                    "name": "D6",
                    "midi": 86,
                    "time": 68.23531799999971,
                    "velocity": 0.4881889763779528,
                    "duration": 0.2614379999999983
                },
                {
                    "name": "E5",
                    "midi": 76,
                    "time": 68.4967559999997,
                    "velocity": 0.4881889763779528,
                    "duration": 0.13071899999999914
                },
                {
                    "name": "F#5",
                    "midi": 78,
                    "time": 68.6274749999997,
                    "velocity": 0.4251968503937008,
                    "duration": 0.032679749999999785
                },
                {
                    "name": "E5",
                    "midi": 76,
                    "time": 68.6601547499997,
                    "velocity": 0.4330708661417323,
                    "duration": 0.032679749999999785
                },
                {
                    "name": "D#5",
                    "midi": 75,
                    "time": 68.6928344999997,
                    "velocity": 0.4645669291338583,
                    "duration": 0.032679749999999785
                },
                {
                    "name": "E5",
                    "midi": 76,
                    "time": 68.7255142499997,
                    "velocity": 0.4645669291338583,
                    "duration": 0.032679749999999785
                },
                {
                    "name": "G#5",
                    "midi": 80,
                    "time": 68.7581939999997,
                    "velocity": 0.49606299212598426,
                    "duration": 0.2614379999999983
                },
                {
                    "name": "D5",
                    "midi": 74,
                    "time": 68.7581939999997,
                    "velocity": 0.47244094488188976,
                    "duration": 0.2614379999999983
                },
                {
                    "name": "C#5",
                    "midi": 73,
                    "time": 69.0196319999997,
                    "velocity": 0.4566929133858268,
                    "duration": 0.5228759999999966
                },
                {
                    "name": "A5",
                    "midi": 81,
                    "time": 69.0196319999997,
                    "velocity": 0.5433070866141733,
                    "duration": 0.5228759999999966
                },
                {
                    "name": "E4",
                    "midi": 64,
                    "time": 69.6732269999997,
                    "velocity": 0.44881889763779526,
                    "duration": 0.13071899999999914
                },
                {
                    "name": "G#4",
                    "midi": 68,
                    "time": 69.8039459999997,
                    "velocity": 0.44881889763779526,
                    "duration": 0.13071899999999914
                },
                {
                    "name": "E5",
                    "midi": 76,
                    "time": 69.9346649999997,
                    "velocity": 0.3937007874015748,
                    "duration": 0.13071899999999914
                },
                {
                    "name": "E4",
                    "midi": 64,
                    "time": 70.1961029999997,
                    "velocity": 0.41732283464566927,
                    "duration": 0.13071899999999914
                },
                {
                    "name": "A4",
                    "midi": 69,
                    "time": 70.3268219999997,
                    "velocity": 0.44881889763779526,
                    "duration": 0.13071899999999914
                },
                {
                    "name": "E5",
                    "midi": 76,
                    "time": 70.4575409999997,
                    "velocity": 0.3858267716535433,
                    "duration": 0.13071899999999914
                },
                {
                    "name": "B3",
                    "midi": 59,
                    "time": 70.71897899999969,
                    "velocity": 0.30708661417322836,
                    "duration": 0.13071899999999914
                },
                {
                    "name": "D4",
                    "midi": 62,
                    "time": 70.84969799999969,
                    "velocity": 0.4015748031496063,
                    "duration": 0.13071899999999914
                },
                {
                    "name": "G#4",
                    "midi": 68,
                    "time": 70.98041699999969,
                    "velocity": 0.33070866141732286,
                    "duration": 0.13071899999999914
                },
                {
                    "name": "C#4",
                    "midi": 61,
                    "time": 71.11113599999969,
                    "velocity": 0.41732283464566927,
                    "duration": 0.5228759999999966
                },
                {
                    "name": "A4",
                    "midi": 69,
                    "time": 71.11113599999969,
                    "velocity": 0.41732283464566927,
                    "duration": 0.5228759999999966
                },
                {
                    "name": "A3",
                    "midi": 57,
                    "time": 71.89544999999968,
                    "velocity": 0.6535433070866141,
                    "duration": 0.06535949999999957
                },
                {
                    "name": "D4",
                    "midi": 62,
                    "time": 71.96080949999968,
                    "velocity": 0.5196850393700787,
                    "duration": 0.06535949999999957
                },
                {
                    "name": "F#4",
                    "midi": 66,
                    "time": 72.02616899999968,
                    "velocity": 0.5196850393700787,
                    "duration": 0.06535949999999957
                },
                {
                    "name": "A4",
                    "midi": 69,
                    "time": 72.09152849999968,
                    "velocity": 0.5196850393700787,
                    "duration": 0.06535949999999957
                },
                {
                    "name": "F#4",
                    "midi": 66,
                    "time": 72.15688799999968,
                    "velocity": 0.6771653543307087,
                    "duration": 0.2614379999999983
                },
                {
                    "name": "D4",
                    "midi": 62,
                    "time": 72.41832599999968,
                    "velocity": 0.6062992125984252,
                    "duration": 0.2614379999999983
                },
                {
                    "name": "D5",
                    "midi": 74,
                    "time": 72.67976399999968,
                    "velocity": 0.4409448818897638,
                    "duration": 0.06535949999999957
                },
                {
                    "name": "A4",
                    "midi": 69,
                    "time": 72.94120199999968,
                    "velocity": 0.4094488188976378,
                    "duration": 0.06535949999999957
                },
                {
                    "name": "B4",
                    "midi": 71,
                    "time": 73.20263999999968,
                    "velocity": 0.4330708661417323,
                    "duration": 0.06535949999999957
                },
                {
                    "name": "C#5",
                    "midi": 73,
                    "time": 73.26799949999968,
                    "velocity": 0.3858267716535433,
                    "duration": 0.06535949999999957
                },
                {
                    "name": "B4",
                    "midi": 71,
                    "time": 73.33335899999967,
                    "velocity": 0.47244094488188976,
                    "duration": 0.13071899999999914
                },
                {
                    "name": "A4",
                    "midi": 69,
                    "time": 73.46407799999967,
                    "velocity": 0.4409448818897638,
                    "duration": 0.2614379999999983
                },
                {
                    "name": "A3",
                    "midi": 57,
                    "time": 73.98695399999967,
                    "velocity": 0.6535433070866141,
                    "duration": 0.06535949999999957
                },
                {
                    "name": "D4",
                    "midi": 62,
                    "time": 74.05231349999967,
                    "velocity": 0.5196850393700787,
                    "duration": 0.06535949999999957
                },
                {
                    "name": "F#4",
                    "midi": 66,
                    "time": 74.11767299999967,
                    "velocity": 0.5196850393700787,
                    "duration": 0.06535949999999957
                },
                {
                    "name": "A4",
                    "midi": 69,
                    "time": 74.18303249999967,
                    "velocity": 0.5196850393700787,
                    "duration": 0.06535949999999957
                },
                {
                    "name": "F#4",
                    "midi": 66,
                    "time": 74.24839199999967,
                    "velocity": 0.6771653543307087,
                    "duration": 0.2614379999999983
                },
                {
                    "name": "D4",
                    "midi": 62,
                    "time": 74.50982999999967,
                    "velocity": 0.6062992125984252,
                    "duration": 0.2614379999999983
                },
                {
                    "name": "F#5",
                    "midi": 78,
                    "time": 74.77126799999967,
                    "velocity": 0.4409448818897638,
                    "duration": 0.06535949999999957
                },
                {
                    "name": "A5",
                    "midi": 81,
                    "time": 74.77126799999967,
                    "velocity": 0.5039370078740157,
                    "duration": 0.06535949999999957
                },
                {
                    "name": "D5",
                    "midi": 74,
                    "time": 75.03270599999966,
                    "velocity": 0.4094488188976378,
                    "duration": 0.06535949999999957
                },
                {
                    "name": "F#5",
                    "midi": 78,
                    "time": 75.03270599999966,
                    "velocity": 0.47244094488188976,
                    "duration": 0.06535949999999957
                },
                {
                    "name": "E5",
                    "midi": 76,
                    "time": 75.29414399999966,
                    "velocity": 0.36220472440944884,
                    "duration": 0.2614379999999983
                },
                {
                    "name": "G5",
                    "midi": 79,
                    "time": 75.29414399999966,
                    "velocity": 0.4330708661417323,
                    "duration": 0.06535949999999957
                },
                {
                    "name": "A5",
                    "midi": 81,
                    "time": 75.35950349999966,
                    "velocity": 0.3858267716535433,
                    "duration": 0.06535949999999957
                },
                {
                    "name": "G5",
                    "midi": 79,
                    "time": 75.42486299999966,
                    "velocity": 0.47244094488188976,
                    "duration": 0.13071899999999914
                },
                {
                    "name": "D5",
                    "midi": 74,
                    "time": 75.55558199999966,
                    "velocity": 0.3700787401574803,
                    "duration": 0.2614379999999983
                },
                {
                    "name": "F#5",
                    "midi": 78,
                    "time": 75.55558199999966,
                    "velocity": 0.4409448818897638,
                    "duration": 0.2614379999999983
                },
                {
                    "name": "D5",
                    "midi": 74,
                    "time": 76.07845799999966,
                    "velocity": 0.47244094488188976,
                    "duration": 0.06535949999999957
                },
                {
                    "name": "F#5",
                    "midi": 78,
                    "time": 76.14381749999966,
                    "velocity": 0.4015748031496063,
                    "duration": 0.06535949999999957
                },
                {
                    "name": "A5",
                    "midi": 81,
                    "time": 76.20917699999966,
                    "velocity": 0.4094488188976378,
                    "duration": 0.06535949999999957
                },
                {
                    "name": "D6",
                    "midi": 86,
                    "time": 76.27453649999966,
                    "velocity": 0.4094488188976378,
                    "duration": 0.06535949999999957
                },
                {
                    "name": "C5",
                    "midi": 72,
                    "time": 76.33989599999965,
                    "velocity": 0.5275590551181102,
                    "duration": 0.7843139999999948
                },
                {
                    "name": "C6",
                    "midi": 84,
                    "time": 77.12420999999965,
                    "velocity": 0.47244094488188976,
                    "duration": 0.06535949999999957
                },
                {
                    "name": "A5",
                    "midi": 81,
                    "time": 77.18956949999965,
                    "velocity": 0.4015748031496063,
                    "duration": 0.06535949999999957
                },
                {
                    "name": "F#5",
                    "midi": 78,
                    "time": 77.25492899999965,
                    "velocity": 0.4094488188976378,
                    "duration": 0.06535949999999957
                },
                {
                    "name": "C5",
                    "midi": 72,
                    "time": 77.32028849999965,
                    "velocity": 0.4094488188976378,
                    "duration": 0.06535949999999957
                },
                {
                    "name": "B4",
                    "midi": 71,
                    "time": 77.38564799999965,
                    "velocity": 0.5275590551181102,
                    "duration": 0.7843139999999948
                },
                {
                    "name": "B4",
                    "midi": 71,
                    "time": 78.16996199999964,
                    "velocity": 0.47244094488188976,
                    "duration": 0.06535949999999957
                },
                {
                    "name": "D5",
                    "midi": 74,
                    "time": 78.23532149999964,
                    "velocity": 0.4015748031496063,
                    "duration": 0.06535949999999957
                },
                {
                    "name": "G5",
                    "midi": 79,
                    "time": 78.30068099999964,
                    "velocity": 0.4094488188976378,
                    "duration": 0.06535949999999957
                },
                {
                    "name": "B5",
                    "midi": 83,
                    "time": 78.36604049999964,
                    "velocity": 0.4094488188976378,
                    "duration": 0.06535949999999957
                },
                {
                    "name": "F#5",
                    "midi": 78,
                    "time": 78.43139999999964,
                    "velocity": 0.4251968503937008,
                    "duration": 0.06535949999999957
                },
                {
                    "name": "A5",
                    "midi": 81,
                    "time": 78.43139999999964,
                    "velocity": 0.5039370078740157,
                    "duration": 0.06535949999999957
                },
                {
                    "name": "D5",
                    "midi": 74,
                    "time": 78.69283799999964,
                    "velocity": 0.3464566929133858,
                    "duration": 0.06535949999999957
                },
                {
                    "name": "F#5",
                    "midi": 78,
                    "time": 78.69283799999964,
                    "velocity": 0.41732283464566927,
                    "duration": 0.06535949999999957
                },
                {
                    "name": "G5",
                    "midi": 79,
                    "time": 78.95427599999964,
                    "velocity": 0.4645669291338583,
                    "duration": 0.06535949999999957
                },
                {
                    "name": "E5",
                    "midi": 76,
                    "time": 78.95427599999964,
                    "velocity": 0.3858267716535433,
                    "duration": 0.06535949999999957
                },
                {
                    "name": "C#5",
                    "midi": 73,
                    "time": 79.21571399999964,
                    "velocity": 0.3464566929133858,
                    "duration": 0.06535949999999957
                },
                {
                    "name": "E5",
                    "midi": 76,
                    "time": 79.21571399999964,
                    "velocity": 0.3464566929133858,
                    "duration": 0.06535949999999957
                },
                {
                    "name": "E5",
                    "midi": 76,
                    "time": 79.47715199999963,
                    "velocity": 0.3937007874015748,
                    "duration": 0.5228759999999966
                },
                {
                    "name": "C#5",
                    "midi": 73,
                    "time": 79.47715199999963,
                    "velocity": 0.33070866141732286,
                    "duration": 0.5228759999999966
                },
                {
                    "name": "F#5",
                    "midi": 78,
                    "time": 80.00002799999963,
                    "velocity": 0.31496062992125984,
                    "duration": 0.2614379999999983
                },
                {
                    "name": "D5",
                    "midi": 74,
                    "time": 80.00002799999963,
                    "velocity": 0.25984251968503935,
                    "duration": 0.2614379999999983
                },
                {
                    "name": "D5",
                    "midi": 74,
                    "time": 80.26146599999963,
                    "velocity": 0.47244094488188976,
                    "duration": 0.06535949999999957
                },
                {
                    "name": "F#5",
                    "midi": 78,
                    "time": 80.32682549999963,
                    "velocity": 0.4015748031496063,
                    "duration": 0.06535949999999957
                },
                {
                    "name": "A5",
                    "midi": 81,
                    "time": 80.39218499999963,
                    "velocity": 0.4094488188976378,
                    "duration": 0.06535949999999957
                },
                {
                    "name": "D6",
                    "midi": 86,
                    "time": 80.45754449999963,
                    "velocity": 0.4094488188976378,
                    "duration": 0.06535949999999957
                },
                {
                    "name": "C5",
                    "midi": 72,
                    "time": 80.52290399999963,
                    "velocity": 0.5275590551181102,
                    "duration": 0.7843139999999948
                },
                {
                    "name": "C6",
                    "midi": 84,
                    "time": 81.30721799999962,
                    "velocity": 0.47244094488188976,
                    "duration": 0.06535949999999957
                },
                {
                    "name": "A5",
                    "midi": 81,
                    "time": 81.37257749999962,
                    "velocity": 0.4015748031496063,
                    "duration": 0.06535949999999957
                },
                {
                    "name": "F#5",
                    "midi": 78,
                    "time": 81.43793699999962,
                    "velocity": 0.4094488188976378,
                    "duration": 0.06535949999999957
                },
                {
                    "name": "C5",
                    "midi": 72,
                    "time": 81.50329649999962,
                    "velocity": 0.4094488188976378,
                    "duration": 0.06535949999999957
                },
                {
                    "name": "B4",
                    "midi": 71,
                    "time": 81.56865599999962,
                    "velocity": 0.5275590551181102,
                    "duration": 0.7843139999999948
                },
                {
                    "name": "B5",
                    "midi": 83,
                    "time": 82.35296999999962,
                    "velocity": 0.47244094488188976,
                    "duration": 0.08714600000000416
                },
                {
                    "name": "C#6",
                    "midi": 85,
                    "time": 82.44011599999962,
                    "velocity": 0.4409448818897638,
                    "duration": 0.08714600000000416
                },
                {
                    "name": "D6",
                    "midi": 86,
                    "time": 82.52726199999962,
                    "velocity": 0.4409448818897638,
                    "duration": 0.08714600000000416
                },
                {
                    "name": "C#6",
                    "midi": 85,
                    "time": 82.61440799999963,
                    "velocity": 0.47244094488188976,
                    "duration": 0.08714600000000416
                },
                {
                    "name": "B5",
                    "midi": 83,
                    "time": 82.70155399999963,
                    "velocity": 0.4330708661417323,
                    "duration": 0.08714600000000416
                },
                {
                    "name": "A5",
                    "midi": 81,
                    "time": 82.78869999999964,
                    "velocity": 0.4015748031496063,
                    "duration": 0.08714600000000416
                },
                {
                    "name": "G5",
                    "midi": 79,
                    "time": 82.87584599999964,
                    "velocity": 0.4645669291338583,
                    "duration": 0.08714600000000416
                },
                {
                    "name": "F#5",
                    "midi": 78,
                    "time": 82.96299199999964,
                    "velocity": 0.4015748031496063,
                    "duration": 0.08714600000000416
                },
                {
                    "name": "E5",
                    "midi": 76,
                    "time": 83.05013799999965,
                    "velocity": 0.4015748031496063,
                    "duration": 0.08714600000000416
                },
                {
                    "name": "D5",
                    "midi": 74,
                    "time": 83.13728399999965,
                    "velocity": 0.4330708661417323,
                    "duration": 0.08714600000000416
                },
                {
                    "name": "C#5",
                    "midi": 73,
                    "time": 83.22442999999966,
                    "velocity": 0.3858267716535433,
                    "duration": 0.08714600000000416
                },
                {
                    "name": "B4",
                    "midi": 71,
                    "time": 83.31157599999966,
                    "velocity": 0.3858267716535433,
                    "duration": 0.08714600000000416
                },
                {
                    "name": "A4",
                    "midi": 69,
                    "time": 83.39872199999967,
                    "velocity": 0.4094488188976378,
                    "duration": 0.06535949999999957
                },
                {
                    "name": "G4",
                    "midi": 67,
                    "time": 83.46408149999966,
                    "velocity": 0.3858267716535433,
                    "duration": 0.06535949999999957
                },
                {
                    "name": "F#4",
                    "midi": 66,
                    "time": 83.52944099999966,
                    "velocity": 0.3858267716535433,
                    "duration": 0.06535949999999957
                },
                {
                    "name": "E4",
                    "midi": 64,
                    "time": 83.59480049999966,
                    "velocity": 0.3779527559055118,
                    "duration": 0.06535949999999957
                },
                {
                    "name": "D4",
                    "midi": 62,
                    "time": 83.66015999999966,
                    "velocity": 0.47244094488188976,
                    "duration": 0.5228759999999966
                },
                {
                    "name": "A3",
                    "midi": 57,
                    "time": 84.44447399999966,
                    "velocity": 0.41732283464566927,
                    "duration": 0.2614379999999983
                },
                {
                    "name": "D4",
                    "midi": 62,
                    "time": 84.70591199999966,
                    "velocity": 0.47244094488188976,
                    "duration": 0.13071899999999914
                },
                {
                    "name": "C#4",
                    "midi": 61,
                    "time": 84.83663099999966,
                    "velocity": 0.4094488188976378,
                    "duration": 0.09803924999999936
                },
                {
                    "name": "E4",
                    "midi": 64,
                    "time": 84.96734999999966,
                    "velocity": 0.47244094488188976,
                    "duration": 0.13071899999999914
                },
                {
                    "name": "D4",
                    "midi": 62,
                    "time": 85.09806899999965,
                    "velocity": 0.4251968503937008,
                    "duration": 0.09803924999999936
                },
                {
                    "name": "F#4",
                    "midi": 66,
                    "time": 85.22878799999965,
                    "velocity": 0.47244094488188976,
                    "duration": 0.13071899999999914
                },
                {
                    "name": "E4",
                    "midi": 64,
                    "time": 85.35950699999965,
                    "velocity": 0.4251968503937008,
                    "duration": 0.09803924999999936
                },
                {
                    "name": "G4",
                    "midi": 67,
                    "time": 85.49022599999965,
                    "velocity": 0.47244094488188976,
                    "duration": 0.13071899999999914
                },
                {
                    "name": "F#4",
                    "midi": 66,
                    "time": 85.62094499999965,
                    "velocity": 0.3858267716535433,
                    "duration": 0.09803924999999936
                },
                {
                    "name": "F#4",
                    "midi": 66,
                    "time": 85.75166399999965,
                    "velocity": 0.44881889763779526,
                    "duration": 0.5228759999999966
                },
                {
                    "name": "D4",
                    "midi": 62,
                    "time": 85.75166399999965,
                    "velocity": 0.3779527559055118,
                    "duration": 0.5228759999999966
                },
                {
                    "name": "E4",
                    "midi": 64,
                    "time": 86.27453999999965,
                    "velocity": 0.3937007874015748,
                    "duration": 0.1960784999999987
                },
                {
                    "name": "C#4",
                    "midi": 61,
                    "time": 86.27453999999965,
                    "velocity": 0.33070866141732286,
                    "duration": 0.1960784999999987
                },
                {
                    "name": "A3",
                    "midi": 57,
                    "time": 86.53597799999964,
                    "velocity": 0.41732283464566927,
                    "duration": 0.2614379999999983
                },
                {
                    "name": "E4",
                    "midi": 64,
                    "time": 86.79741599999964,
                    "velocity": 0.47244094488188976,
                    "duration": 0.13071899999999914
                },
                {
                    "name": "D#4",
                    "midi": 63,
                    "time": 86.92813499999964,
                    "velocity": 0.4094488188976378,
                    "duration": 0.09803924999999936
                },
                {
                    "name": "F#4",
                    "midi": 66,
                    "time": 87.05885399999964,
                    "velocity": 0.47244094488188976,
                    "duration": 0.13071899999999914
                },
                {
                    "name": "E4",
                    "midi": 64,
                    "time": 87.18957299999964,
                    "velocity": 0.4251968503937008,
                    "duration": 0.09803924999999936
                },
                {
                    "name": "G4",
                    "midi": 67,
                    "time": 87.32029199999964,
                    "velocity": 0.47244094488188976,
                    "duration": 0.13071899999999914
                },
                {
                    "name": "F#4",
                    "midi": 66,
                    "time": 87.45101099999964,
                    "velocity": 0.4251968503937008,
                    "duration": 0.09803924999999936
                },
                {
                    "name": "A4",
                    "midi": 69,
                    "time": 87.58172999999964,
                    "velocity": 0.47244094488188976,
                    "duration": 0.13071899999999914
                },
                {
                    "name": "G4",
                    "midi": 67,
                    "time": 87.71244899999964,
                    "velocity": 0.3858267716535433,
                    "duration": 0.09803924999999936
                },
                {
                    "name": "G4",
                    "midi": 67,
                    "time": 87.84316799999964,
                    "velocity": 0.44881889763779526,
                    "duration": 0.5228759999999966
                },
                {
                    "name": "E4",
                    "midi": 64,
                    "time": 87.84316799999964,
                    "velocity": 0.3779527559055118,
                    "duration": 0.5228759999999966
                },
                {
                    "name": "F#4",
                    "midi": 66,
                    "time": 88.36604399999963,
                    "velocity": 0.3937007874015748,
                    "duration": 0.1960784999999987
                },
                {
                    "name": "D4",
                    "midi": 62,
                    "time": 88.36604399999963,
                    "velocity": 0.33070866141732286,
                    "duration": 0.1960784999999987
                },
                {
                    "name": "D4",
                    "midi": 62,
                    "time": 88.62748199999963,
                    "velocity": 0.4566929133858268,
                    "duration": 0.2614379999999983
                },
                {
                    "name": "G4",
                    "midi": 67,
                    "time": 88.88891999999963,
                    "velocity": 0.5196850393700787,
                    "duration": 0.13071899999999914
                },
                {
                    "name": "F#4",
                    "midi": 66,
                    "time": 89.01963899999963,
                    "velocity": 0.44881889763779526,
                    "duration": 0.09803924999999936
                },
                {
                    "name": "A4",
                    "midi": 69,
                    "time": 89.15035799999963,
                    "velocity": 0.5196850393700787,
                    "duration": 0.13071899999999914
                },
                {
                    "name": "G4",
                    "midi": 67,
                    "time": 89.28107699999963,
                    "velocity": 0.4645669291338583,
                    "duration": 0.09803924999999936
                },
                {
                    "name": "B4",
                    "midi": 71,
                    "time": 89.41179599999963,
                    "velocity": 0.5196850393700787,
                    "duration": 0.13071899999999914
                },
                {
                    "name": "A4",
                    "midi": 69,
                    "time": 89.54251499999963,
                    "velocity": 0.4645669291338583,
                    "duration": 0.09803924999999936
                },
                {
                    "name": "D5",
                    "midi": 74,
                    "time": 89.67323399999962,
                    "velocity": 0.5196850393700787,
                    "duration": 0.13071899999999914
                },
                {
                    "name": "C#5",
                    "midi": 73,
                    "time": 89.80395299999962,
                    "velocity": 0.41732283464566927,
                    "duration": 0.09803924999999936
                },
                {
                    "name": "B4",
                    "midi": 71,
                    "time": 89.93467199999962,
                    "velocity": 0.4881889763779528,
                    "duration": 0.13071899999999914
                },
                {
                    "name": "B4",
                    "midi": 71,
                    "time": 90.19610999999962,
                    "velocity": 0.4881889763779528,
                    "duration": 0.13071899999999914
                },
                {
                    "name": "D5",
                    "midi": 74,
                    "time": 90.32682899999962,
                    "velocity": 0.44881889763779526,
                    "duration": 0.13071899999999914
                },
                {
                    "name": "A4",
                    "midi": 69,
                    "time": 90.45754799999962,
                    "velocity": 0.4881889763779528,
                    "duration": 0.13071899999999914
                },
                {
                    "name": "G4",
                    "midi": 67,
                    "time": 90.98042399999962,
                    "velocity": 0.4330708661417323,
                    "duration": 0.032679749999999785
                },
                {
                    "name": "F#4",
                    "midi": 66,
                    "time": 91.01310374999962,
                    "velocity": 0.3779527559055118,
                    "duration": 0.032679749999999785
                },
                {
                    "name": "G4",
                    "midi": 67,
                    "time": 91.04578349999962,
                    "velocity": 0.4881889763779528,
                    "duration": 0.06535949999999957
                },
                {
                    "name": "G4",
                    "midi": 67,
                    "time": 91.24186199999961,
                    "velocity": 0.4881889763779528,
                    "duration": 0.13071899999999914
                },
                {
                    "name": "B4",
                    "midi": 71,
                    "time": 91.37258099999961,
                    "velocity": 0.44881889763779526,
                    "duration": 0.13071899999999914
                },
                {
                    "name": "F#4",
                    "midi": 66,
                    "time": 91.50329999999961,
                    "velocity": 0.4881889763779528,
                    "duration": 0.13071899999999914
                },
                {
                    "name": "B4",
                    "midi": 71,
                    "time": 92.02617599999961,
                    "velocity": 0.47244094488188976,
                    "duration": 0.032679749999999785
                },
                {
                    "name": "A4",
                    "midi": 69,
                    "time": 92.05885574999961,
                    "velocity": 0.4094488188976378,
                    "duration": 0.032679749999999785
                },
                {
                    "name": "B4",
                    "midi": 71,
                    "time": 92.09153549999961,
                    "velocity": 0.5354330708661418,
                    "duration": 0.06535949999999957
                },
                {
                    "name": "B4",
                    "midi": 71,
                    "time": 92.2876139999996,
                    "velocity": 0.5354330708661418,
                    "duration": 0.13071899999999914
                },
                {
                    "name": "D5",
                    "midi": 74,
                    "time": 92.4183329999996,
                    "velocity": 0.4881889763779528,
                    "duration": 0.13071899999999914
                },
                {
                    "name": "A4",
                    "midi": 69,
                    "time": 92.5490519999996,
                    "velocity": 0.5354330708661418,
                    "duration": 0.13071899999999914
                },
                {
                    "name": "G4",
                    "midi": 67,
                    "time": 93.0719279999996,
                    "velocity": 0.4330708661417323,
                    "duration": 0.032679749999999785
                },
                {
                    "name": "F#4",
                    "midi": 66,
                    "time": 93.1046077499996,
                    "velocity": 0.3779527559055118,
                    "duration": 0.032679749999999785
                },
                {
                    "name": "G4",
                    "midi": 67,
                    "time": 93.1372874999996,
                    "velocity": 0.4881889763779528,
                    "duration": 0.06535949999999957
                },
                {
                    "name": "G4",
                    "midi": 67,
                    "time": 93.3333659999996,
                    "velocity": 0.4881889763779528,
                    "duration": 0.13071899999999914
                },
                {
                    "name": "B4",
                    "midi": 71,
                    "time": 93.4640849999996,
                    "velocity": 0.44881889763779526,
                    "duration": 0.13071899999999914
                },
                {
                    "name": "F#4",
                    "midi": 66,
                    "time": 93.5948039999996,
                    "velocity": 0.4881889763779528,
                    "duration": 0.13071899999999914
                },
                {
                    "name": "D#4",
                    "midi": 63,
                    "time": 94.1176799999996,
                    "velocity": 0.4330708661417323,
                    "duration": 0.13071899999999914
                },
                {
                    "name": "E4",
                    "midi": 64,
                    "time": 94.2483989999996,
                    "velocity": 0.4330708661417323,
                    "duration": 0.13071899999999914
                },
                {
                    "name": "F#4",
                    "midi": 66,
                    "time": 94.3791179999996,
                    "velocity": 0.4566929133858268,
                    "duration": 0.13071899999999914
                },
                {
                    "name": "G4",
                    "midi": 67,
                    "time": 94.50983699999959,
                    "velocity": 0.4566929133858268,
                    "duration": 0.13071899999999914
                },
                {
                    "name": "A4",
                    "midi": 69,
                    "time": 94.64055599999959,
                    "velocity": 0.4881889763779528,
                    "duration": 0.13071899999999914
                },
                {
                    "name": "B4",
                    "midi": 71,
                    "time": 94.77127499999959,
                    "velocity": 0.4330708661417323,
                    "duration": 0.13071899999999914
                },
                {
                    "name": "G4",
                    "midi": 67,
                    "time": 94.90199399999959,
                    "velocity": 0.48031496062992124,
                    "duration": 0.13071899999999914
                },
                {
                    "name": "E4",
                    "midi": 64,
                    "time": 95.03271299999959,
                    "velocity": 0.4015748031496063,
                    "duration": 0.13071899999999914
                },
                {
                    "name": "D4",
                    "midi": 62,
                    "time": 95.16343199999959,
                    "velocity": 0.44881889763779526,
                    "duration": 1.0457519999999931
                },
                {
                    "name": "C#4",
                    "midi": 61,
                    "time": 96.20918399999958,
                    "velocity": 0.3937007874015748,
                    "duration": 0.2614379999999983
                },
                {
                    "name": "E4",
                    "midi": 64,
                    "time": 96.99349799999958,
                    "velocity": 0.6535433070866141,
                    "duration": 0.06535949999999957
                },
                {
                    "name": "A4",
                    "midi": 69,
                    "time": 97.05885749999958,
                    "velocity": 0.5196850393700787,
                    "duration": 0.06535949999999957
                },
                {
                    "name": "C#5",
                    "midi": 73,
                    "time": 97.12421699999958,
                    "velocity": 0.5196850393700787,
                    "duration": 0.06535949999999957
                },
                {
                    "name": "E5",
                    "midi": 76,
                    "time": 97.18957649999957,
                    "velocity": 0.5196850393700787,
                    "duration": 0.06535949999999957
                },
                {
                    "name": "C#5",
                    "midi": 73,
                    "time": 97.25493599999957,
                    "velocity": 0.6771653543307087,
                    "duration": 0.2614379999999983
                },
                {
                    "name": "A4",
                    "midi": 69,
                    "time": 97.51637399999957,
                    "velocity": 0.6535433070866141,
                    "duration": 0.06535949999999957
                },
                {
                    "name": "C#5",
                    "midi": 73,
                    "time": 97.58173349999957,
                    "velocity": 0.5196850393700787,
                    "duration": 0.06535949999999957
                },
                {
                    "name": "E5",
                    "midi": 76,
                    "time": 97.64709299999957,
                    "velocity": 0.5196850393700787,
                    "duration": 0.06535949999999957
                },
                {
                    "name": "A5",
                    "midi": 81,
                    "time": 97.71245249999957,
                    "velocity": 0.5196850393700787,
                    "duration": 0.06535949999999957
                },
                {
                    "name": "E5",
                    "midi": 76,
                    "time": 97.77781199999957,
                    "velocity": 0.6771653543307087,
                    "duration": 0.2614379999999983
                },
                {
                    "name": "E5",
                    "midi": 76,
                    "time": 98.03924999999957,
                    "velocity": 0.7480314960629921,
                    "duration": 0.06535949999999957
                },
                {
                    "name": "A5",
                    "midi": 81,
                    "time": 98.10460949999957,
                    "velocity": 0.5905511811023622,
                    "duration": 0.06535949999999957
                },
                {
                    "name": "C#6",
                    "midi": 85,
                    "time": 98.16996899999957,
                    "velocity": 0.5905511811023622,
                    "duration": 0.06535949999999957
                },
                {
                    "name": "E6",
                    "midi": 88,
                    "time": 98.23532849999957,
                    "velocity": 0.5905511811023622,
                    "duration": 0.06535949999999957
                },
                {
                    "name": "C#6",
                    "midi": 85,
                    "time": 98.30068799999957,
                    "velocity": 0.8031496062992126,
                    "duration": 0.2614379999999983
                },
                {
                    "name": "A4",
                    "midi": 69,
                    "time": 99.08500199999956,
                    "velocity": 0.48031496062992124,
                    "duration": 0.06535949999999957
                },
                {
                    "name": "E4",
                    "midi": 64,
                    "time": 99.15036149999956,
                    "velocity": 0.3937007874015748,
                    "duration": 0.06535949999999957
                },
                {
                    "name": "C#4",
                    "midi": 61,
                    "time": 99.21572099999956,
                    "velocity": 0.3937007874015748,
                    "duration": 0.06535949999999957
                },
                {
                    "name": "A3",
                    "midi": 57,
                    "time": 99.28108049999956,
                    "velocity": 0.3937007874015748,
                    "duration": 0.06535949999999957
                },
                {
                    "name": "G3",
                    "midi": 55,
                    "time": 99.34643999999956,
                    "velocity": 0.4881889763779528,
                    "duration": 1.0457519999999931
                },
                {
                    "name": "F#3",
                    "midi": 54,
                    "time": 100.39219199999955,
                    "velocity": 0.48031496062992124,
                    "duration": 0.13071899999999914
                },
                {
                    "name": "B3",
                    "midi": 59,
                    "time": 100.52291099999955,
                    "velocity": 0.4330708661417323,
                    "duration": 0.13071899999999914
                },
                {
                    "name": "A#3",
                    "midi": 58,
                    "time": 100.65362999999955,
                    "velocity": 0.3858267716535433,
                    "duration": 0.13071899999999914
                },
                {
                    "name": "B3",
                    "midi": 59,
                    "time": 100.78434899999955,
                    "velocity": 0.4251968503937008,
                    "duration": 0.13071899999999914
                },
                {
                    "name": "C#4",
                    "midi": 61,
                    "time": 100.91506799999955,
                    "velocity": 0.4645669291338583,
                    "duration": 0.13071899999999914
                },
                {
                    "name": "B3",
                    "midi": 59,
                    "time": 101.04578699999955,
                    "velocity": 0.4330708661417323,
                    "duration": 0.13071899999999914
                },
                {
                    "name": "A#3",
                    "midi": 58,
                    "time": 101.17650599999955,
                    "velocity": 0.3700787401574803,
                    "duration": 0.13071899999999914
                },
                {
                    "name": "B3",
                    "midi": 59,
                    "time": 101.30722499999955,
                    "velocity": 0.4409448818897638,
                    "duration": 0.13071899999999914
                },
                {
                    "name": "A3",
                    "midi": 57,
                    "time": 101.43794399999955,
                    "velocity": 0.4881889763779528,
                    "duration": 1.0457519999999931
                },
                {
                    "name": "G#3",
                    "midi": 56,
                    "time": 102.48369599999954,
                    "velocity": 0.48031496062992124,
                    "duration": 0.13071899999999914
                },
                {
                    "name": "E4",
                    "midi": 64,
                    "time": 102.61441499999954,
                    "velocity": 0.4330708661417323,
                    "duration": 0.13071899999999914
                },
                {
                    "name": "D#4",
                    "midi": 63,
                    "time": 102.74513399999954,
                    "velocity": 0.3858267716535433,
                    "duration": 0.13071899999999914
                },
                {
                    "name": "E4",
                    "midi": 64,
                    "time": 102.87585299999954,
                    "velocity": 0.4251968503937008,
                    "duration": 0.13071899999999914
                },
                {
                    "name": "F#4",
                    "midi": 66,
                    "time": 103.00657199999954,
                    "velocity": 0.4645669291338583,
                    "duration": 0.13071899999999914
                },
                {
                    "name": "E4",
                    "midi": 64,
                    "time": 103.13729099999954,
                    "velocity": 0.4330708661417323,
                    "duration": 0.13071899999999914
                },
                {
                    "name": "D#4",
                    "midi": 63,
                    "time": 103.26800999999953,
                    "velocity": 0.3700787401574803,
                    "duration": 0.13071899999999914
                },
                {
                    "name": "E4",
                    "midi": 64,
                    "time": 103.39872899999953,
                    "velocity": 0.4409448818897638,
                    "duration": 0.13071899999999914
                },
                {
                    "name": "D#4",
                    "midi": 63,
                    "time": 103.52944799999953,
                    "velocity": 0.4881889763779528,
                    "duration": 0.2614379999999983
                },
                {
                    "name": "A4",
                    "midi": 69,
                    "time": 103.79088599999953,
                    "velocity": 0.44881889763779526,
                    "duration": 0.13071899999999914
                },
                {
                    "name": "D#4",
                    "midi": 63,
                    "time": 104.31376199999953,
                    "velocity": 0.4881889763779528,
                    "duration": 0.2614379999999983
                },
                {
                    "name": "E4",
                    "midi": 64,
                    "time": 104.57519999999953,
                    "velocity": 0.4881889763779528,
                    "duration": 0.13071899999999914
                },
                {
                    "name": "E4",
                    "midi": 64,
                    "time": 104.83663799999952,
                    "velocity": 0.4881889763779528,
                    "duration": 0.13071899999999914
                },
                {
                    "name": "B4",
                    "midi": 71,
                    "time": 104.96735699999952,
                    "velocity": 0.44881889763779526,
                    "duration": 0.13071899999999914
                },
                {
                    "name": "E4",
                    "midi": 64,
                    "time": 105.09807599999952,
                    "velocity": 0.4881889763779528,
                    "duration": 0.1960784999999987
                },
                {
                    "name": "E4",
                    "midi": 64,
                    "time": 105.35951399999952,
                    "velocity": 0.44881889763779526,
                    "duration": 0.2614379999999983
                },
                {
                    "name": "D#4",
                    "midi": 63,
                    "time": 105.62095199999952,
                    "velocity": 0.4881889763779528,
                    "duration": 0.2614379999999983
                },
                {
                    "name": "A4",
                    "midi": 69,
                    "time": 105.88238999999952,
                    "velocity": 0.44881889763779526,
                    "duration": 0.13071899999999914
                },
                {
                    "name": "D#4",
                    "midi": 63,
                    "time": 106.40526599999951,
                    "velocity": 0.4881889763779528,
                    "duration": 0.2614379999999983
                },
                {
                    "name": "E4",
                    "midi": 64,
                    "time": 106.66670399999951,
                    "velocity": 0.4881889763779528,
                    "duration": 0.13071899999999914
                },
                {
                    "name": "E4",
                    "midi": 64,
                    "time": 106.92814199999951,
                    "velocity": 0.4881889763779528,
                    "duration": 0.13071899999999914
                },
                {
                    "name": "B4",
                    "midi": 71,
                    "time": 107.05886099999951,
                    "velocity": 0.44881889763779526,
                    "duration": 0.13071899999999914
                },
                {
                    "name": "E4",
                    "midi": 64,
                    "time": 107.18957999999951,
                    "velocity": 0.4881889763779528,
                    "duration": 0.1960784999999987
                },
                {
                    "name": "D4",
                    "midi": 62,
                    "time": 107.45101799999951,
                    "velocity": 0.3700787401574803,
                    "duration": 0.032679749999999785
                },
                {
                    "name": "E4",
                    "midi": 64,
                    "time": 107.48369774999951,
                    "velocity": 0.3464566929133858,
                    "duration": 0.032679749999999785
                },
                {
                    "name": "D4",
                    "midi": 62,
                    "time": 107.5163774999995,
                    "velocity": 0.44881889763779526,
                    "duration": 0.1960784999999987
                },
                {
                    "name": "C#4",
                    "midi": 61,
                    "time": 107.7124559999995,
                    "velocity": 0.4881889763779528,
                    "duration": 0.12527237499999444
                },
                {
                    "name": "E5",
                    "midi": 76,
                    "time": 107.9738939999995,
                    "velocity": 0.5039370078740157,
                    "duration": 0.13071899999999914
                },
                {
                    "name": "A4",
                    "midi": 69,
                    "time": 108.4967699999995,
                    "velocity": 0.4881889763779528,
                    "duration": 0.2614379999999983
                },
                {
                    "name": "G#4",
                    "midi": 68,
                    "time": 108.7582079999995,
                    "velocity": 0.4881889763779528,
                    "duration": 0.13071899999999914
                },
                {
                    "name": "G#4",
                    "midi": 68,
                    "time": 109.0196459999995,
                    "velocity": 0.4881889763779528,
                    "duration": 0.13071899999999914
                },
                {
                    "name": "E5",
                    "midi": 76,
                    "time": 109.1503649999995,
                    "velocity": 0.44881889763779526,
                    "duration": 0.13071899999999914
                },
                {
                    "name": "G#4",
                    "midi": 68,
                    "time": 109.2810839999995,
                    "velocity": 0.4881889763779528,
                    "duration": 0.1960784999999987
                },
                {
                    "name": "G#4",
                    "midi": 68,
                    "time": 109.5425219999995,
                    "velocity": 0.44881889763779526,
                    "duration": 0.2614379999999983
                },
                {
                    "name": "A4",
                    "midi": 69,
                    "time": 109.80395999999949,
                    "velocity": 0.4881889763779528,
                    "duration": 0.13071899999999914
                },
                {
                    "name": "A4",
                    "midi": 69,
                    "time": 110.06539799999949,
                    "velocity": 0.4881889763779528,
                    "duration": 0.13071899999999914
                },
                {
                    "name": "E5",
                    "midi": 76,
                    "time": 110.19611699999949,
                    "velocity": 0.44881889763779526,
                    "duration": 0.13071899999999914
                },
                {
                    "name": "A4",
                    "midi": 69,
                    "time": 110.32683599999949,
                    "velocity": 0.4881889763779528,
                    "duration": 0.1960784999999987
                },
                {
                    "name": "A4",
                    "midi": 69,
                    "time": 110.58827399999949,
                    "velocity": 0.44881889763779526,
                    "duration": 0.2614379999999983
                },
                {
                    "name": "B4",
                    "midi": 71,
                    "time": 110.84971199999949,
                    "velocity": 0.4881889763779528,
                    "duration": 0.13071899999999914
                },
                {
                    "name": "B4",
                    "midi": 71,
                    "time": 111.11114999999948,
                    "velocity": 0.4881889763779528,
                    "duration": 0.13071899999999914
                },
                {
                    "name": "E5",
                    "midi": 76,
                    "time": 111.24186899999948,
                    "velocity": 0.44881889763779526,
                    "duration": 0.13071899999999914
                },
                {
                    "name": "B4",
                    "midi": 71,
                    "time": 111.37258799999948,
                    "velocity": 0.4881889763779528,
                    "duration": 0.1960784999999987
                },
                {
                    "name": "D5",
                    "midi": 74,
                    "time": 111.63402599999948,
                    "velocity": 0.44881889763779526,
                    "duration": 0.2614379999999983
                },
                {
                    "name": "C#5",
                    "midi": 73,
                    "time": 111.89546399999948,
                    "velocity": 0.5039370078740157,
                    "duration": 0.13071899999999914
                },
                {
                    "name": "D5",
                    "midi": 74,
                    "time": 112.02618299999948,
                    "velocity": 0.44881889763779526,
                    "duration": 0.13071899999999914
                },
                {
                    "name": "E5",
                    "midi": 76,
                    "time": 112.15690199999948,
                    "velocity": 0.44881889763779526,
                    "duration": 0.13071899999999914
                },
                {
                    "name": "C#5",
                    "midi": 73,
                    "time": 112.28762099999948,
                    "velocity": 0.44881889763779526,
                    "duration": 0.13071899999999914
                },
                {
                    "name": "B4",
                    "midi": 71,
                    "time": 112.41833999999947,
                    "velocity": 0.4881889763779528,
                    "duration": 0.13071899999999914
                },
                {
                    "name": "A4",
                    "midi": 69,
                    "time": 112.54905899999947,
                    "velocity": 0.44881889763779526,
                    "duration": 0.13071899999999914
                },
                {
                    "name": "G#4",
                    "midi": 68,
                    "time": 112.67977799999947,
                    "velocity": 0.44881889763779526,
                    "duration": 0.13071899999999914
                },
                {
                    "name": "F#4",
                    "midi": 66,
                    "time": 112.81049699999947,
                    "velocity": 0.44881889763779526,
                    "duration": 0.13071899999999914
                },
                {
                    "name": "E4",
                    "midi": 64,
                    "time": 112.94121599999947,
                    "velocity": 0.5039370078740157,
                    "duration": 0.13071899999999914
                },
                {
                    "name": "D#4",
                    "midi": 63,
                    "time": 113.07193499999947,
                    "velocity": 0.41732283464566927,
                    "duration": 0.13071899999999914
                },
                {
                    "name": "E4",
                    "midi": 64,
                    "time": 113.20265399999947,
                    "velocity": 0.44881889763779526,
                    "duration": 0.13071899999999914
                },
                {
                    "name": "F#4",
                    "midi": 66,
                    "time": 113.33337299999947,
                    "velocity": 0.41732283464566927,
                    "duration": 0.13071899999999914
                },
                {
                    "name": "E4",
                    "midi": 64,
                    "time": 113.46409199999947,
                    "velocity": 0.44881889763779526,
                    "duration": 0.13071899999999914
                },
                {
                    "name": "D4",
                    "midi": 62,
                    "time": 113.59481099999947,
                    "velocity": 0.4015748031496063,
                    "duration": 0.13071899999999914
                },
                {
                    "name": "C#4",
                    "midi": 61,
                    "time": 113.72552999999947,
                    "velocity": 0.4015748031496063,
                    "duration": 0.13071899999999914
                },
                {
                    "name": "B3",
                    "midi": 59,
                    "time": 113.85624899999947,
                    "velocity": 0.4015748031496063,
                    "duration": 0.13071899999999914
                },
                {
                    "name": "C#4",
                    "midi": 61,
                    "time": 113.98696799999946,
                    "velocity": 0.4409448818897638,
                    "duration": 0.13071899999999914
                },
                {
                    "name": "D4",
                    "midi": 62,
                    "time": 114.11768699999946,
                    "velocity": 0.3700787401574803,
                    "duration": 0.13071899999999914
                },
                {
                    "name": "E4",
                    "midi": 64,
                    "time": 114.24840599999946,
                    "velocity": 0.3700787401574803,
                    "duration": 0.13071899999999914
                },
                {
                    "name": "C#4",
                    "midi": 61,
                    "time": 114.37912499999946,
                    "velocity": 0.3700787401574803,
                    "duration": 0.13071899999999914
                },
                {
                    "name": "B3",
                    "midi": 59,
                    "time": 114.50984399999946,
                    "velocity": 0.4330708661417323,
                    "duration": 0.13071899999999914
                },
                {
                    "name": "A3",
                    "midi": 57,
                    "time": 114.64056299999946,
                    "velocity": 0.4015748031496063,
                    "duration": 0.13071899999999914
                },
                {
                    "name": "G#3",
                    "midi": 56,
                    "time": 114.77128199999946,
                    "velocity": 0.4015748031496063,
                    "duration": 0.13071899999999914
                },
                {
                    "name": "F#3",
                    "midi": 54,
                    "time": 114.90200099999946,
                    "velocity": 0.4015748031496063,
                    "duration": 0.13071899999999914
                },
                {
                    "name": "C#5",
                    "midi": 73,
                    "time": 116.07847199999945,
                    "velocity": 0.5039370078740157,
                    "duration": 0.13071899999999914
                },
                {
                    "name": "D5",
                    "midi": 74,
                    "time": 116.20919099999945,
                    "velocity": 0.44881889763779526,
                    "duration": 0.13071899999999914
                },
                {
                    "name": "E5",
                    "midi": 76,
                    "time": 116.33990999999945,
                    "velocity": 0.44881889763779526,
                    "duration": 0.13071899999999914
                },
                {
                    "name": "C#5",
                    "midi": 73,
                    "time": 116.47062899999945,
                    "velocity": 0.44881889763779526,
                    "duration": 0.13071899999999914
                },
                {
                    "name": "B4",
                    "midi": 71,
                    "time": 116.60134799999945,
                    "velocity": 0.4881889763779528,
                    "duration": 0.13071899999999914
                },
                {
                    "name": "A4",
                    "midi": 69,
                    "time": 116.73206699999945,
                    "velocity": 0.44881889763779526,
                    "duration": 0.13071899999999914
                },
                {
                    "name": "G#4",
                    "midi": 68,
                    "time": 116.86278599999945,
                    "velocity": 0.44881889763779526,
                    "duration": 0.13071899999999914
                },
                {
                    "name": "A4",
                    "midi": 69,
                    "time": 116.99350499999944,
                    "velocity": 0.44881889763779526,
                    "duration": 0.13071899999999914
                },
                {
                    "name": "F#5",
                    "midi": 78,
                    "time": 117.12422399999944,
                    "velocity": 0.5039370078740157,
                    "duration": 0.13071899999999914
                },
                {
                    "name": "G#5",
                    "midi": 80,
                    "time": 117.25494299999944,
                    "velocity": 0.5039370078740157,
                    "duration": 0.13071899999999914
                },
                {
                    "name": "A5",
                    "midi": 81,
                    "time": 117.38566199999944,
                    "velocity": 0.5354330708661418,
                    "duration": 0.13071899999999914
                },
                {
                    "name": "F#5",
                    "midi": 78,
                    "time": 117.51638099999944,
                    "velocity": 0.5039370078740157,
                    "duration": 0.13071899999999914
                },
                {
                    "name": "E5",
                    "midi": 76,
                    "time": 117.64709999999944,
                    "velocity": 0.4881889763779528,
                    "duration": 0.13071899999999914
                },
                {
                    "name": "D5",
                    "midi": 74,
                    "time": 117.77781899999944,
                    "velocity": 0.48031496062992124,
                    "duration": 0.13071899999999914
                },
                {
                    "name": "C#5",
                    "midi": 73,
                    "time": 117.90853799999944,
                    "velocity": 0.4566929133858268,
                    "duration": 0.13071899999999914
                },
                {
                    "name": "B4",
                    "midi": 71,
                    "time": 118.03925699999944,
                    "velocity": 0.4566929133858268,
                    "duration": 0.13071899999999914
                },
                {
                    "name": "A#4",
                    "midi": 70,
                    "time": 118.16997599999944,
                    "velocity": 0.5039370078740157,
                    "duration": 0.13071899999999914
                },
                {
                    "name": "B4",
                    "midi": 71,
                    "time": 118.30069499999944,
                    "velocity": 0.44881889763779526,
                    "duration": 0.13071899999999914
                },
                {
                    "name": "C#5",
                    "midi": 73,
                    "time": 118.43141399999944,
                    "velocity": 0.44881889763779526,
                    "duration": 0.13071899999999914
                },
                {
                    "name": "B4",
                    "midi": 71,
                    "time": 118.56213299999943,
                    "velocity": 0.44881889763779526,
                    "duration": 0.13071899999999914
                },
                {
                    "name": "D5",
                    "midi": 74,
                    "time": 118.69285199999943,
                    "velocity": 0.4881889763779528,
                    "duration": 0.13071899999999914
                },
                {
                    "name": "C#5",
                    "midi": 73,
                    "time": 118.82357099999943,
                    "velocity": 0.44881889763779526,
                    "duration": 0.13071899999999914
                },
                {
                    "name": "E5",
                    "midi": 76,
                    "time": 118.95428999999943,
                    "velocity": 0.48031496062992124,
                    "duration": 0.13071899999999914
                },
                {
                    "name": "D5",
                    "midi": 74,
                    "time": 119.08500899999943,
                    "velocity": 0.44881889763779526,
                    "duration": 0.13071899999999914
                },
                {
                    "name": "F#5",
                    "midi": 78,
                    "time": 119.21572799999943,
                    "velocity": 0.49606299212598426,
                    "duration": 0.2614379999999983
                },
                {
                    "name": "E5",
                    "midi": 76,
                    "time": 119.73860399999943,
                    "velocity": 0.4881889763779528,
                    "duration": 0.13071899999999914
                },
                {
                    "name": "D5",
                    "midi": 74,
                    "time": 119.86932299999943,
                    "velocity": 0.44881889763779526,
                    "duration": 0.13071899999999914
                },
                {
                    "name": "C#5",
                    "midi": 73,
                    "time": 120.00004199999943,
                    "velocity": 0.4881889763779528,
                    "duration": 0.13071899999999914
                },
                {
                    "name": "B4",
                    "midi": 71,
                    "time": 120.13076099999942,
                    "velocity": 0.44881889763779526,
                    "duration": 0.13071899999999914
                },
                {
                    "name": "A4",
                    "midi": 69,
                    "time": 120.26147999999942,
                    "velocity": 0.4881889763779528,
                    "duration": 0.5228759999999966
                },
                {
                    "name": "B4",
                    "midi": 71,
                    "time": 120.78435599999942,
                    "velocity": 0.4881889763779528,
                    "duration": 0.06535949999999957
                },
                {
                    "name": "C#5",
                    "midi": 73,
                    "time": 120.84971549999942,
                    "velocity": 0.4251968503937008,
                    "duration": 0.06535949999999957
                },
                {
                    "name": "B4",
                    "midi": 71,
                    "time": 120.91507499999942,
                    "velocity": 0.4881889763779528,
                    "duration": 0.06535949999999957
                },
                {
                    "name": "C#5",
                    "midi": 73,
                    "time": 120.98043449999942,
                    "velocity": 0.4330708661417323,
                    "duration": 0.06535949999999957
                },
                {
                    "name": "B4",
                    "midi": 71,
                    "time": 121.04579399999942,
                    "velocity": 0.4881889763779528,
                    "duration": 0.08714600000000416
                },
                {
                    "name": "C#5",
                    "midi": 73,
                    "time": 121.13293999999942,
                    "velocity": 0.4330708661417323,
                    "duration": 0.08714600000000416
                },
                {
                    "name": "B4",
                    "midi": 71,
                    "time": 121.22008599999943,
                    "velocity": 0.4881889763779528,
                    "duration": 0.08714600000000416
                },
                {
                    "name": "C#5",
                    "midi": 73,
                    "time": 121.30723199999943,
                    "velocity": 0.5039370078740157,
                    "duration": 0.13071899999999914
                },
                {
                    "name": "D5",
                    "midi": 74,
                    "time": 121.43795099999943,
                    "velocity": 0.44881889763779526,
                    "duration": 0.13071899999999914
                },
                {
                    "name": "E5",
                    "midi": 76,
                    "time": 121.56866999999943,
                    "velocity": 0.44881889763779526,
                    "duration": 0.13071899999999914
                },
                {
                    "name": "C#5",
                    "midi": 73,
                    "time": 121.69938899999943,
                    "velocity": 0.44881889763779526,
                    "duration": 0.13071899999999914
                },
                {
                    "name": "B4",
                    "midi": 71,
                    "time": 121.83010799999943,
                    "velocity": 0.4881889763779528,
                    "duration": 0.13071899999999914
                },
                {
                    "name": "A4",
                    "midi": 69,
                    "time": 121.96082699999943,
                    "velocity": 0.44881889763779526,
                    "duration": 0.13071899999999914
                },
                {
                    "name": "G#4",
                    "midi": 68,
                    "time": 122.09154599999943,
                    "velocity": 0.44881889763779526,
                    "duration": 0.13071899999999914
                },
                {
                    "name": "A4",
                    "midi": 69,
                    "time": 122.22226499999942,
                    "velocity": 0.44881889763779526,
                    "duration": 0.13071899999999914
                },
                {
                    "name": "F#5",
                    "midi": 78,
                    "time": 122.35298399999942,
                    "velocity": 0.5039370078740157,
                    "duration": 0.13071899999999914
                },
                {
                    "name": "G#5",
                    "midi": 80,
                    "time": 122.48370299999942,
                    "velocity": 0.5039370078740157,
                    "duration": 0.13071899999999914
                },
                {
                    "name": "A5",
                    "midi": 81,
                    "time": 122.61442199999942,
                    "velocity": 0.5354330708661418,
                    "duration": 0.13071899999999914
                },
                {
                    "name": "F#5",
                    "midi": 78,
                    "time": 122.74514099999942,
                    "velocity": 0.5039370078740157,
                    "duration": 0.13071899999999914
                },
                {
                    "name": "E5",
                    "midi": 76,
                    "time": 122.87585999999942,
                    "velocity": 0.4881889763779528,
                    "duration": 0.13071899999999914
                },
                {
                    "name": "D5",
                    "midi": 74,
                    "time": 123.00657899999942,
                    "velocity": 0.48031496062992124,
                    "duration": 0.13071899999999914
                },
                {
                    "name": "C#5",
                    "midi": 73,
                    "time": 123.13729799999942,
                    "velocity": 0.4566929133858268,
                    "duration": 0.13071899999999914
                },
                {
                    "name": "B4",
                    "midi": 71,
                    "time": 123.26801699999942,
                    "velocity": 0.4566929133858268,
                    "duration": 0.13071899999999914
                },
                {
                    "name": "A#4",
                    "midi": 70,
                    "time": 123.39873599999942,
                    "velocity": 0.5039370078740157,
                    "duration": 0.13071899999999914
                },
                {
                    "name": "B4",
                    "midi": 71,
                    "time": 123.52945499999942,
                    "velocity": 0.44881889763779526,
                    "duration": 0.13071899999999914
                },
                {
                    "name": "C#5",
                    "midi": 73,
                    "time": 123.66017399999942,
                    "velocity": 0.44881889763779526,
                    "duration": 0.13071899999999914
                },
                {
                    "name": "B4",
                    "midi": 71,
                    "time": 123.79089299999941,
                    "velocity": 0.44881889763779526,
                    "duration": 0.13071899999999914
                },
                {
                    "name": "D5",
                    "midi": 74,
                    "time": 123.92161199999941,
                    "velocity": 0.4881889763779528,
                    "duration": 0.13071899999999914
                },
                {
                    "name": "C#5",
                    "midi": 73,
                    "time": 124.05233099999941,
                    "velocity": 0.44881889763779526,
                    "duration": 0.13071899999999914
                },
                {
                    "name": "E5",
                    "midi": 76,
                    "time": 124.18304999999941,
                    "velocity": 0.48031496062992124,
                    "duration": 0.13071899999999914
                },
                {
                    "name": "D5",
                    "midi": 74,
                    "time": 124.31376899999941,
                    "velocity": 0.44881889763779526,
                    "duration": 0.13071899999999914
                },
                {
                    "name": "F#5",
                    "midi": 78,
                    "time": 124.44448799999941,
                    "velocity": 0.49606299212598426,
                    "duration": 0.2614379999999983
                },
                {
                    "name": "D5",
                    "midi": 74,
                    "time": 124.9673639999994,
                    "velocity": 0.33858267716535434,
                    "duration": 0.13071899999999914
                },
                {
                    "name": "C#5",
                    "midi": 73,
                    "time": 125.0980829999994,
                    "velocity": 0.30708661417322836,
                    "duration": 0.13071899999999914
                },
                {
                    "name": "E5",
                    "midi": 76,
                    "time": 125.2288019999994,
                    "velocity": 0.33070866141732286,
                    "duration": 0.13071899999999914
                },
                {
                    "name": "D5",
                    "midi": 74,
                    "time": 125.3595209999994,
                    "velocity": 0.30708661417322836,
                    "duration": 0.13071899999999914
                },
                {
                    "name": "F#5",
                    "midi": 78,
                    "time": 125.4902399999994,
                    "velocity": 0.3464566929133858,
                    "duration": 0.2614379999999983
                },
                {
                    "name": "D5",
                    "midi": 74,
                    "time": 126.0131159999994,
                    "velocity": 0.36220472440944884,
                    "duration": 0.13071899999999914
                },
                {
                    "name": "C#5",
                    "midi": 73,
                    "time": 126.1438349999994,
                    "velocity": 0.30708661417322836,
                    "duration": 0.13071899999999914
                },
                {
                    "name": "E5",
                    "midi": 76,
                    "time": 126.2745539999994,
                    "velocity": 0.3700787401574803,
                    "duration": 0.13071899999999914
                },
                {
                    "name": "D5",
                    "midi": 74,
                    "time": 126.4052729999994,
                    "velocity": 0.30708661417322836,
                    "duration": 0.13071899999999914
                },
                {
                    "name": "F#5",
                    "midi": 78,
                    "time": 126.5359919999994,
                    "velocity": 0.3464566929133858,
                    "duration": 0.6535949999999957
                },
                {
                    "name": "F4",
                    "midi": 65,
                    "time": 127.25494649999939,
                    "velocity": 0.5039370078740157,
                    "duration": 0.06535949999999957
                },
                {
                    "name": "F5",
                    "midi": 77,
                    "time": 127.32030599999939,
                    "velocity": 0.5511811023622047,
                    "duration": 0.1960784999999987
                },
                {
                    "name": "F#4",
                    "midi": 66,
                    "time": 127.51638449999939,
                    "velocity": 0.5118110236220472,
                    "duration": 0.06535949999999957
                },
                {
                    "name": "F#5",
                    "midi": 78,
                    "time": 127.58174399999939,
                    "velocity": 0.5669291338582677,
                    "duration": 0.1960784999999987
                },
                {
                    "name": "A#4",
                    "midi": 70,
                    "time": 127.77782249999939,
                    "velocity": 0.5354330708661418,
                    "duration": 0.06535949999999957
                },
                {
                    "name": "A#5",
                    "midi": 82,
                    "time": 127.84318199999939,
                    "velocity": 0.5826771653543307,
                    "duration": 0.1960784999999987
                },
                {
                    "name": "B4",
                    "midi": 71,
                    "time": 128.0392604999994,
                    "velocity": 0.5433070866141733,
                    "duration": 0.06535949999999957
                },
                {
                    "name": "B5",
                    "midi": 83,
                    "time": 128.1046199999994,
                    "velocity": 0.5905511811023622,
                    "duration": 0.1960784999999987
                },
                {
                    "name": "C#5",
                    "midi": 73,
                    "time": 128.30069849999938,
                    "velocity": 0.5590551181102362,
                    "duration": 0.06535949999999957
                },
                {
                    "name": "C#6",
                    "midi": 85,
                    "time": 128.36605799999938,
                    "velocity": 0.6062992125984252,
                    "duration": 0.1960784999999987
                },
                {
                    "name": "D5",
                    "midi": 74,
                    "time": 128.56213649999938,
                    "velocity": 0.5590551181102362,
                    "duration": 0.06535949999999957
                },
                {
                    "name": "D6",
                    "midi": 86,
                    "time": 128.62749599999938,
                    "velocity": 0.6141732283464567,
                    "duration": 0.3921569999999974
                },
                {
                    "name": "B5",
                    "midi": 83,
                    "time": 129.01965299999938,
                    "velocity": 0.5354330708661418,
                    "duration": 0.13071899999999914
                },
                {
                    "name": "D6",
                    "midi": 86,
                    "time": 129.15037199999938,
                    "velocity": 0.5826771653543307,
                    "duration": 0.13071899999999914
                },
                {
                    "name": "B5",
                    "midi": 83,
                    "time": 129.28109099999938,
                    "velocity": 0.5354330708661418,
                    "duration": 0.13071899999999914
                },
                {
                    "name": "D6",
                    "midi": 86,
                    "time": 129.41180999999938,
                    "velocity": 0.5748031496062992,
                    "duration": 0.13071899999999914
                },
                {
                    "name": "B5",
                    "midi": 83,
                    "time": 129.54252899999938,
                    "velocity": 0.5511811023622047,
                    "duration": 0.13071899999999914
                },
                {
                    "name": "E5",
                    "midi": 76,
                    "time": 129.67324799999938,
                    "velocity": 0.6220472440944882,
                    "duration": 0.3921569999999974
                },
                {
                    "name": "A5",
                    "midi": 81,
                    "time": 130.06540499999937,
                    "velocity": 0.5669291338582677,
                    "duration": 0.06535949999999957
                },
                {
                    "name": "C#6",
                    "midi": 85,
                    "time": 130.13076449999937,
                    "velocity": 0.5905511811023622,
                    "duration": 0.06535949999999957
                },
                {
                    "name": "E6",
                    "midi": 88,
                    "time": 130.19612399999937,
                    "velocity": 0.6220472440944882,
                    "duration": 0.3921569999999974
                },
                {
                    "name": "A5",
                    "midi": 81,
                    "time": 130.58828099999937,
                    "velocity": 0.5511811023622047,
                    "duration": 0.06535949999999957
                },
                {
                    "name": "B5",
                    "midi": 83,
                    "time": 130.65364049999937,
                    "velocity": 0.4409448818897638,
                    "duration": 0.04357300000000919
                },
                {
                    "name": "B5",
                    "midi": 83,
                    "time": 130.71899999999937,
                    "velocity": 0.5433070866141733,
                    "duration": 0.06535949999999957
                },
                {
                    "name": "C#6",
                    "midi": 85,
                    "time": 130.78435949999937,
                    "velocity": 0.3858267716535433,
                    "duration": 0.06535949999999957
                },
                {
                    "name": "B5",
                    "midi": 83,
                    "time": 130.84971899999937,
                    "velocity": 0.48031496062992124,
                    "duration": 0.06535949999999957
                },
                {
                    "name": "C#6",
                    "midi": 85,
                    "time": 130.91507849999937,
                    "velocity": 0.4330708661417323,
                    "duration": 0.06535949999999957
                },
                {
                    "name": "B5",
                    "midi": 83,
                    "time": 130.98043799999937,
                    "velocity": 0.5039370078740157,
                    "duration": 0.06535949999999957
                },
                {
                    "name": "C#6",
                    "midi": 85,
                    "time": 131.04579749999937,
                    "velocity": 0.4566929133858268,
                    "duration": 0.06535949999999957
                },
                {
                    "name": "B5",
                    "midi": 83,
                    "time": 131.11115699999937,
                    "velocity": 0.5275590551181102,
                    "duration": 0.06535949999999957
                },
                {
                    "name": "C#6",
                    "midi": 85,
                    "time": 131.17651649999937,
                    "velocity": 0.4881889763779528,
                    "duration": 0.06535949999999957
                },
                {
                    "name": "B5",
                    "midi": 83,
                    "time": 131.24187599999937,
                    "velocity": 0.5511811023622047,
                    "duration": 0.06535949999999957
                },
                {
                    "name": "C#6",
                    "midi": 85,
                    "time": 131.30723549999936,
                    "velocity": 0.48031496062992124,
                    "duration": 0.06535949999999957
                },
                {
                    "name": "B5",
                    "midi": 83,
                    "time": 131.37259499999936,
                    "velocity": 0.49606299212598426,
                    "duration": 0.06535949999999957
                },
                {
                    "name": "C#6",
                    "midi": 85,
                    "time": 131.43795449999936,
                    "velocity": 0.4330708661417323,
                    "duration": 0.06535949999999957
                },
                {
                    "name": "B5",
                    "midi": 83,
                    "time": 131.50331399999936,
                    "velocity": 0.5196850393700787,
                    "duration": 0.06535949999999957
                },
                {
                    "name": "C#6",
                    "midi": 85,
                    "time": 131.56867349999936,
                    "velocity": 0.44881889763779526,
                    "duration": 0.06535949999999957
                },
                {
                    "name": "B5",
                    "midi": 83,
                    "time": 131.63403299999936,
                    "velocity": 0.5433070866141733,
                    "duration": 0.06535949999999957
                },
                {
                    "name": "C#6",
                    "midi": 85,
                    "time": 131.69939249999936,
                    "velocity": 0.4645669291338583,
                    "duration": 0.06535949999999957
                },
                {
                    "name": "A5",
                    "midi": 81,
                    "time": 131.76475199999936,
                    "velocity": 0.5433070866141733,
                    "duration": 0.5228759999999966
                },
                {
                    "name": "E5",
                    "midi": 76,
                    "time": 132.54906599999936,
                    "velocity": 0.5433070866141733,
                    "duration": 0.2614379999999983
                },
                {
                    "name": "F#5",
                    "midi": 78,
                    "time": 132.81050399999936,
                    "velocity": 0.5039370078740157,
                    "duration": 0.06535949999999957
                },
                {
                    "name": "G#5",
                    "midi": 80,
                    "time": 132.87586349999935,
                    "velocity": 0.4645669291338583,
                    "duration": 0.06535949999999957
                },
                {
                    "name": "F#5",
                    "midi": 78,
                    "time": 132.94122299999935,
                    "velocity": 0.5354330708661418,
                    "duration": 0.13071899999999914
                },
                {
                    "name": "E5",
                    "midi": 76,
                    "time": 133.07194199999935,
                    "velocity": 0.4881889763779528,
                    "duration": 0.2614379999999983
                },
                {
                    "name": "F#5",
                    "midi": 78,
                    "time": 133.33337999999935,
                    "velocity": 0.4881889763779528,
                    "duration": 0.06535949999999957
                },
                {
                    "name": "G#5",
                    "midi": 80,
                    "time": 133.39873949999935,
                    "velocity": 0.4881889763779528,
                    "duration": 0.06535949999999957
                },
                {
                    "name": "F#5",
                    "midi": 78,
                    "time": 133.46409899999935,
                    "velocity": 0.5433070866141733,
                    "duration": 0.13071899999999914
                },
                {
                    "name": "E5",
                    "midi": 76,
                    "time": 133.59481799999935,
                    "velocity": 0.49606299212598426,
                    "duration": 0.16339874999999893
                },
                {
                    "name": "E5",
                    "midi": 76,
                    "time": 133.75821674999935,
                    "velocity": 0.5039370078740157,
                    "duration": 0.6209152499999959
                },
                {
                    "name": "G#5",
                    "midi": 80,
                    "time": 133.79089649999935,
                    "velocity": 0.5433070866141733,
                    "duration": 0.5882354999999961
                },
                {
                    "name": "B5",
                    "midi": 83,
                    "time": 133.82357624999935,
                    "velocity": 0.5748031496062992,
                    "duration": 0.5555557499999964
                },
                {
                    "name": "D6",
                    "midi": 86,
                    "time": 133.85625599999935,
                    "velocity": 0.6062992125984252,
                    "duration": 0.5228759999999966
                },
                {
                    "name": "C#6",
                    "midi": 85,
                    "time": 134.64056999999934,
                    "velocity": 0.5433070866141733,
                    "duration": 0.2614379999999983
                },
                {
                    "name": "B5",
                    "midi": 83,
                    "time": 134.90200799999934,
                    "velocity": 0.5039370078740157,
                    "duration": 0.13071899999999914
                },
                {
                    "name": "C#6",
                    "midi": 85,
                    "time": 135.03272699999934,
                    "velocity": 0.3937007874015748,
                    "duration": 0.032679749999999785
                },
                {
                    "name": "B5",
                    "midi": 83,
                    "time": 135.06540674999934,
                    "velocity": 0.4330708661417323,
                    "duration": 0.032679749999999785
                },
                {
                    "name": "A#5",
                    "midi": 82,
                    "time": 135.09808649999934,
                    "velocity": 0.4566929133858268,
                    "duration": 0.032679749999999785
                },
                {
                    "name": "B5",
                    "midi": 83,
                    "time": 135.13076624999934,
                    "velocity": 0.47244094488188976,
                    "duration": 0.032679749999999785
                },
                {
                    "name": "D6",
                    "midi": 86,
                    "time": 135.16344599999934,
                    "velocity": 0.4881889763779528,
                    "duration": 0.2614379999999983
                },
                {
                    "name": "E5",
                    "midi": 76,
                    "time": 135.42488399999934,
                    "velocity": 0.4881889763779528,
                    "duration": 0.13071899999999914
                },
                {
                    "name": "F#5",
                    "midi": 78,
                    "time": 135.55560299999934,
                    "velocity": 0.4251968503937008,
                    "duration": 0.032679749999999785
                },
                {
                    "name": "E5",
                    "midi": 76,
                    "time": 135.58828274999934,
                    "velocity": 0.4330708661417323,
                    "duration": 0.032679749999999785
                },
                {
                    "name": "D#5",
                    "midi": 75,
                    "time": 135.62096249999934,
                    "velocity": 0.4645669291338583,
                    "duration": 0.032679749999999785
                },
                {
                    "name": "E5",
                    "midi": 76,
                    "time": 135.65364224999934,
                    "velocity": 0.4645669291338583,
                    "duration": 0.032679749999999785
                },
                {
                    "name": "G#5",
                    "midi": 80,
                    "time": 135.68632199999934,
                    "velocity": 0.49606299212598426,
                    "duration": 0.2614379999999983
                },
                {
                    "name": "D5",
                    "midi": 74,
                    "time": 135.68632199999934,
                    "velocity": 0.47244094488188976,
                    "duration": 0.2614379999999983
                },
                {
                    "name": "C#5",
                    "midi": 73,
                    "time": 135.94775999999933,
                    "velocity": 0.4566929133858268,
                    "duration": 0.5228759999999966
                },
                {
                    "name": "A5",
                    "midi": 81,
                    "time": 135.94775999999933,
                    "velocity": 0.5433070866141733,
                    "duration": 0.5228759999999966
                },
                {
                    "name": "E5",
                    "midi": 76,
                    "time": 136.73207399999933,
                    "velocity": 0.5433070866141733,
                    "duration": 0.2614379999999983
                },
                {
                    "name": "F#5",
                    "midi": 78,
                    "time": 136.99351199999933,
                    "velocity": 0.5039370078740157,
                    "duration": 0.06535949999999957
                },
                {
                    "name": "G#5",
                    "midi": 80,
                    "time": 137.05887149999933,
                    "velocity": 0.4645669291338583,
                    "duration": 0.06535949999999957
                },
                {
                    "name": "F#5",
                    "midi": 78,
                    "time": 137.12423099999933,
                    "velocity": 0.5354330708661418,
                    "duration": 0.13071899999999914
                },
                {
                    "name": "E5",
                    "midi": 76,
                    "time": 137.25494999999933,
                    "velocity": 0.4881889763779528,
                    "duration": 0.2614379999999983
                },
                {
                    "name": "F#5",
                    "midi": 78,
                    "time": 137.51638799999932,
                    "velocity": 0.4881889763779528,
                    "duration": 0.06535949999999957
                },
                {
                    "name": "G#5",
                    "midi": 80,
                    "time": 137.58174749999932,
                    "velocity": 0.4881889763779528,
                    "duration": 0.06535949999999957
                },
                {
                    "name": "F#5",
                    "midi": 78,
                    "time": 137.64710699999932,
                    "velocity": 0.5433070866141733,
                    "duration": 0.13071899999999914
                },
                {
                    "name": "E5",
                    "midi": 76,
                    "time": 137.77782599999932,
                    "velocity": 0.49606299212598426,
                    "duration": 0.16339874999999893
                },
                {
                    "name": "E5",
                    "midi": 76,
                    "time": 137.94122474999932,
                    "velocity": 0.5039370078740157,
                    "duration": 0.6209152499999959
                },
                {
                    "name": "G#5",
                    "midi": 80,
                    "time": 137.97390449999932,
                    "velocity": 0.5433070866141733,
                    "duration": 0.5882354999999961
                },
                {
                    "name": "B5",
                    "midi": 83,
                    "time": 138.00658424999932,
                    "velocity": 0.5748031496062992,
                    "duration": 0.5555557499999964
                },
                {
                    "name": "D6",
                    "midi": 86,
                    "time": 138.03926399999932,
                    "velocity": 0.6062992125984252,
                    "duration": 0.5228759999999966
                },
                {
                    "name": "C#6",
                    "midi": 85,
                    "time": 138.82357799999932,
                    "velocity": 0.5433070866141733,
                    "duration": 0.2614379999999983
                },
                {
                    "name": "B5",
                    "midi": 83,
                    "time": 139.0850159999993,
                    "velocity": 0.5039370078740157,
                    "duration": 0.13071899999999914
                },
                {
                    "name": "C#6",
                    "midi": 85,
                    "time": 139.2157349999993,
                    "velocity": 0.3937007874015748,
                    "duration": 0.032679749999999785
                },
                {
                    "name": "B5",
                    "midi": 83,
                    "time": 139.2484147499993,
                    "velocity": 0.4330708661417323,
                    "duration": 0.032679749999999785
                },
                {
                    "name": "A#5",
                    "midi": 82,
                    "time": 139.2810944999993,
                    "velocity": 0.4566929133858268,
                    "duration": 0.032679749999999785
                },
                {
                    "name": "B5",
                    "midi": 83,
                    "time": 139.3137742499993,
                    "velocity": 0.47244094488188976,
                    "duration": 0.032679749999999785
                },
                {
                    "name": "D6",
                    "midi": 86,
                    "time": 139.3464539999993,
                    "velocity": 0.4881889763779528,
                    "duration": 0.2614379999999983
                },
                {
                    "name": "E5",
                    "midi": 76,
                    "time": 139.6078919999993,
                    "velocity": 0.4881889763779528,
                    "duration": 0.13071899999999914
                },
                {
                    "name": "F#5",
                    "midi": 78,
                    "time": 139.7386109999993,
                    "velocity": 0.4251968503937008,
                    "duration": 0.032679749999999785
                },
                {
                    "name": "E5",
                    "midi": 76,
                    "time": 139.7712907499993,
                    "velocity": 0.4330708661417323,
                    "duration": 0.032679749999999785
                },
                {
                    "name": "D#5",
                    "midi": 75,
                    "time": 139.8039704999993,
                    "velocity": 0.4645669291338583,
                    "duration": 0.032679749999999785
                },
                {
                    "name": "E5",
                    "midi": 76,
                    "time": 139.8366502499993,
                    "velocity": 0.4645669291338583,
                    "duration": 0.032679749999999785
                },
                {
                    "name": "G#5",
                    "midi": 80,
                    "time": 139.8693299999993,
                    "velocity": 0.49606299212598426,
                    "duration": 0.2614379999999983
                },
                {
                    "name": "D5",
                    "midi": 74,
                    "time": 139.8693299999993,
                    "velocity": 0.47244094488188976,
                    "duration": 0.2614379999999983
                },
                {
                    "name": "C#5",
                    "midi": 73,
                    "time": 140.1307679999993,
                    "velocity": 0.4566929133858268,
                    "duration": 0.5228759999999966
                },
                {
                    "name": "A5",
                    "midi": 81,
                    "time": 140.1307679999993,
                    "velocity": 0.5433070866141733,
                    "duration": 0.5228759999999966
                },
                {
                    "name": "E4",
                    "midi": 64,
                    "time": 140.7843629999993,
                    "velocity": 0.44881889763779526,
                    "duration": 0.13071899999999914
                },
                {
                    "name": "G#4",
                    "midi": 68,
                    "time": 140.9150819999993,
                    "velocity": 0.44881889763779526,
                    "duration": 0.13071899999999914
                },
                {
                    "name": "E5",
                    "midi": 76,
                    "time": 141.0458009999993,
                    "velocity": 0.3937007874015748,
                    "duration": 0.13071899999999914
                },
                {
                    "name": "E4",
                    "midi": 64,
                    "time": 141.3072389999993,
                    "velocity": 0.41732283464566927,
                    "duration": 0.13071899999999914
                },
                {
                    "name": "A4",
                    "midi": 69,
                    "time": 141.4379579999993,
                    "velocity": 0.44881889763779526,
                    "duration": 0.13071899999999914
                },
                {
                    "name": "E5",
                    "midi": 76,
                    "time": 141.5686769999993,
                    "velocity": 0.3858267716535433,
                    "duration": 0.13071899999999914
                },
                {
                    "name": "B3",
                    "midi": 59,
                    "time": 141.8301149999993,
                    "velocity": 0.30708661417322836,
                    "duration": 0.13071899999999914
                },
                {
                    "name": "D4",
                    "midi": 62,
                    "time": 141.9608339999993,
                    "velocity": 0.4015748031496063,
                    "duration": 0.13071899999999914
                },
                {
                    "name": "G#4",
                    "midi": 68,
                    "time": 142.0915529999993,
                    "velocity": 0.33070866141732286,
                    "duration": 0.13071899999999914
                },
                {
                    "name": "C#4",
                    "midi": 61,
                    "time": 142.2222719999993,
                    "velocity": 0.41732283464566927,
                    "duration": 0.5228759999999966
                },
                {
                    "name": "A4",
                    "midi": 69,
                    "time": 142.2222719999993,
                    "velocity": 0.41732283464566927,
                    "duration": 0.5228759999999966
                },
                {
                    "name": "F#3",
                    "midi": 54,
                    "time": 144.83665199999928,
                    "velocity": 0.4015748031496063,
                    "duration": 0.13071899999999914
                },
                {
                    "name": "G3",
                    "midi": 55,
                    "time": 144.96737099999928,
                    "velocity": 0.31496062992125984,
                    "duration": 0.032679749999999785
                },
                {
                    "name": "F#3",
                    "midi": 54,
                    "time": 145.00005074999928,
                    "velocity": 0.3464566929133858,
                    "duration": 0.032679749999999785
                },
                {
                    "name": "F3",
                    "midi": 53,
                    "time": 145.03273049999927,
                    "velocity": 0.33070866141732286,
                    "duration": 0.032679749999999785
                },
                {
                    "name": "F#3",
                    "midi": 54,
                    "time": 145.06541024999927,
                    "velocity": 0.33070866141732286,
                    "duration": 0.032679749999999785
                },
                {
                    "name": "A#3",
                    "midi": 58,
                    "time": 145.09808999999927,
                    "velocity": 0.3858267716535433,
                    "duration": 0.2614379999999983
                },
                {
                    "name": "B3",
                    "midi": 59,
                    "time": 145.35952799999927,
                    "velocity": 0.3464566929133858,
                    "duration": 0.06535949999999957
                },
                {
                    "name": "A#3",
                    "midi": 58,
                    "time": 145.42488749999927,
                    "velocity": 0.31496062992125984,
                    "duration": 0.06535949999999957
                },
                {
                    "name": "B3",
                    "midi": 59,
                    "time": 145.49024699999927,
                    "velocity": 0.4015748031496063,
                    "duration": 0.13071899999999914
                },
                {
                    "name": "D4",
                    "midi": 62,
                    "time": 145.62096599999927,
                    "velocity": 0.3464566929133858,
                    "duration": 0.2614379999999983
                },
                {
                    "name": "C#4",
                    "midi": 61,
                    "time": 145.88240399999927,
                    "velocity": 0.36220472440944884,
                    "duration": 0.06535949999999957
                },
                {
                    "name": "B3",
                    "midi": 59,
                    "time": 145.94776349999927,
                    "velocity": 0.33070866141732286,
                    "duration": 0.06535949999999957
                },
                {
                    "name": "C#4",
                    "midi": 61,
                    "time": 146.01312299999927,
                    "velocity": 0.4015748031496063,
                    "duration": 0.13071899999999914
                },
                {
                    "name": "E4",
                    "midi": 64,
                    "time": 146.14384199999927,
                    "velocity": 0.3779527559055118,
                    "duration": 0.2614379999999983
                },
                {
                    "name": "D4",
                    "midi": 62,
                    "time": 146.40527999999927,
                    "velocity": 0.4015748031496063,
                    "duration": 0.13071899999999914
                },
                {
                    "name": "E4",
                    "midi": 64,
                    "time": 146.53599899999926,
                    "velocity": 0.33070866141732286,
                    "duration": 0.032679749999999785
                },
                {
                    "name": "D4",
                    "midi": 62,
                    "time": 146.56867874999926,
                    "velocity": 0.2992125984251969,
                    "duration": 0.032679749999999785
                },
                {
                    "name": "C#4",
                    "midi": 61,
                    "time": 146.60135849999926,
                    "velocity": 0.33858267716535434,
                    "duration": 0.032679749999999785
                },
                {
                    "name": "D4",
                    "midi": 62,
                    "time": 146.63403824999926,
                    "velocity": 0.30708661417322836,
                    "duration": 0.032679749999999785
                },
                {
                    "name": "F#4",
                    "midi": 66,
                    "time": 146.66671799999926,
                    "velocity": 0.3858267716535433,
                    "duration": 0.2614379999999983
                },
                {
                    "name": "D4",
                    "midi": 62,
                    "time": 147.18959399999926,
                    "velocity": 0.5511811023622047,
                    "duration": 0.06535949999999957
                },
                {
                    "name": "F#4",
                    "midi": 66,
                    "time": 147.25495349999926,
                    "velocity": 0.4409448818897638,
                    "duration": 0.06535949999999957
                },
                {
                    "name": "B4",
                    "midi": 71,
                    "time": 147.32031299999926,
                    "velocity": 0.4409448818897638,
                    "duration": 0.06535949999999957
                },
                {
                    "name": "D5",
                    "midi": 74,
                    "time": 147.38567249999926,
                    "velocity": 0.4409448818897638,
                    "duration": 0.06535949999999957
                },
                {
                    "name": "B4",
                    "midi": 71,
                    "time": 147.45103199999926,
                    "velocity": 0.5748031496062992,
                    "duration": 0.2614379999999983
                },
                {
                    "name": "F#4",
                    "midi": 66,
                    "time": 147.71246999999926,
                    "velocity": 0.5118110236220472,
                    "duration": 0.2614379999999983
                },
                {
                    "name": "F#5",
                    "midi": 78,
                    "time": 147.97390799999926,
                    "velocity": 0.4409448818897638,
                    "duration": 0.06535949999999957
                },
                {
                    "name": "B4",
                    "midi": 71,
                    "time": 148.23534599999925,
                    "velocity": 0.4094488188976378,
                    "duration": 0.06535949999999957
                },
                {
                    "name": "C#5",
                    "midi": 73,
                    "time": 148.49678399999925,
                    "velocity": 0.4330708661417323,
                    "duration": 0.06535949999999957
                },
                {
                    "name": "D5",
                    "midi": 74,
                    "time": 148.56214349999925,
                    "velocity": 0.3858267716535433,
                    "duration": 0.06535949999999957
                },
                {
                    "name": "C#5",
                    "midi": 73,
                    "time": 148.62750299999925,
                    "velocity": 0.47244094488188976,
                    "duration": 0.13071899999999914
                },
                {
                    "name": "B4",
                    "midi": 71,
                    "time": 148.75822199999925,
                    "velocity": 0.4409448818897638,
                    "duration": 0.2614379999999983
                },
                {
                    "name": "D4",
                    "midi": 62,
                    "time": 149.28109799999925,
                    "velocity": 0.5511811023622047,
                    "duration": 0.06535949999999957
                },
                {
                    "name": "F#4",
                    "midi": 66,
                    "time": 149.34645749999925,
                    "velocity": 0.4409448818897638,
                    "duration": 0.06535949999999957
                },
                {
                    "name": "B4",
                    "midi": 71,
                    "time": 149.41181699999925,
                    "velocity": 0.4409448818897638,
                    "duration": 0.06535949999999957
                },
                {
                    "name": "D5",
                    "midi": 74,
                    "time": 149.47717649999925,
                    "velocity": 0.4409448818897638,
                    "duration": 0.06535949999999957
                },
                {
                    "name": "B4",
                    "midi": 71,
                    "time": 149.54253599999925,
                    "velocity": 0.5748031496062992,
                    "duration": 0.2614379999999983
                },
                {
                    "name": "F#4",
                    "midi": 66,
                    "time": 149.80397399999924,
                    "velocity": 0.5118110236220472,
                    "duration": 0.2614379999999983
                },
                {
                    "name": "B5",
                    "midi": 83,
                    "time": 150.06541199999924,
                    "velocity": 0.5039370078740157,
                    "duration": 0.06535949999999957
                },
                {
                    "name": "F#5",
                    "midi": 78,
                    "time": 150.32684999999924,
                    "velocity": 0.47244094488188976,
                    "duration": 0.06535949999999957
                },
                {
                    "name": "G5",
                    "midi": 79,
                    "time": 150.58828799999924,
                    "velocity": 0.4330708661417323,
                    "duration": 0.06535949999999957
                },
                {
                    "name": "A5",
                    "midi": 81,
                    "time": 150.65364749999924,
                    "velocity": 0.3858267716535433,
                    "duration": 0.06535949999999957
                },
                {
                    "name": "G5",
                    "midi": 79,
                    "time": 150.71900699999924,
                    "velocity": 0.47244094488188976,
                    "duration": 0.13071899999999914
                },
                {
                    "name": "F#5",
                    "midi": 78,
                    "time": 150.84972599999924,
                    "velocity": 0.4409448818897638,
                    "duration": 0.2614379999999983
                },
                {
                    "name": "B4",
                    "midi": 71,
                    "time": 151.37260199999923,
                    "velocity": 0.5511811023622047,
                    "duration": 0.06535949999999957
                },
                {
                    "name": "D5",
                    "midi": 74,
                    "time": 151.43796149999923,
                    "velocity": 0.4409448818897638,
                    "duration": 0.06535949999999957
                },
                {
                    "name": "F#5",
                    "midi": 78,
                    "time": 151.50332099999923,
                    "velocity": 0.4409448818897638,
                    "duration": 0.06535949999999957
                },
                {
                    "name": "B5",
                    "midi": 83,
                    "time": 151.56868049999923,
                    "velocity": 0.4409448818897638,
                    "duration": 0.06535949999999957
                },
                {
                    "name": "F#5",
                    "midi": 78,
                    "time": 151.63403999999923,
                    "velocity": 0.5748031496062992,
                    "duration": 0.2614379999999983
                },
                {
                    "name": "D5",
                    "midi": 74,
                    "time": 151.89547799999923,
                    "velocity": 0.5118110236220472,
                    "duration": 0.2614379999999983
                },
                {
                    "name": "G5",
                    "midi": 79,
                    "time": 152.15691599999923,
                    "velocity": 0.5039370078740157,
                    "duration": 0.06535949999999957
                },
                {
                    "name": "F#5",
                    "midi": 78,
                    "time": 152.41835399999923,
                    "velocity": 0.47244094488188976,
                    "duration": 0.06535949999999957
                },
                {
                    "name": "E5",
                    "midi": 76,
                    "time": 152.67979199999922,
                    "velocity": 0.4330708661417323,
                    "duration": 0.06535949999999957
                },
                {
                    "name": "F#5",
                    "midi": 78,
                    "time": 152.74515149999922,
                    "velocity": 0.3858267716535433,
                    "duration": 0.06535949999999957
                },
                {
                    "name": "E5",
                    "midi": 76,
                    "time": 152.81051099999922,
                    "velocity": 0.47244094488188976,
                    "duration": 0.13071899999999914
                },
                {
                    "name": "D5",
                    "midi": 74,
                    "time": 152.94122999999922,
                    "velocity": 0.4409448818897638,
                    "duration": 0.2614379999999983
                },
                {
                    "name": "C4",
                    "midi": 60,
                    "time": 153.85626299999922,
                    "velocity": 0.2677165354330709,
                    "duration": 0.13071899999999914
                },
                {
                    "name": "B3",
                    "midi": 59,
                    "time": 153.98698199999922,
                    "velocity": 0.3228346456692913,
                    "duration": 0.13071899999999914
                },
                {
                    "name": "C4",
                    "midi": 60,
                    "time": 154.11770099999922,
                    "velocity": 0.2677165354330709,
                    "duration": 0.13071899999999914
                },
                {
                    "name": "D4",
                    "midi": 62,
                    "time": 154.24841999999921,
                    "velocity": 0.31496062992125984,
                    "duration": 0.13071899999999914
                },
                {
                    "name": "C4",
                    "midi": 60,
                    "time": 154.3791389999992,
                    "velocity": 0.2677165354330709,
                    "duration": 0.13071899999999914
                },
                {
                    "name": "E4",
                    "midi": 64,
                    "time": 154.5098579999992,
                    "velocity": 0.3228346456692913,
                    "duration": 0.13071899999999914
                },
                {
                    "name": "C4",
                    "midi": 60,
                    "time": 154.6405769999992,
                    "velocity": 0.29133858267716534,
                    "duration": 0.13071899999999914
                },
                {
                    "name": "G4",
                    "midi": 67,
                    "time": 154.9020149999992,
                    "velocity": 0.30708661417322836,
                    "duration": 0.13071899999999914
                },
                {
                    "name": "F#4",
                    "midi": 66,
                    "time": 155.0327339999992,
                    "velocity": 0.3700787401574803,
                    "duration": 0.13071899999999914
                },
                {
                    "name": "G4",
                    "midi": 67,
                    "time": 155.1634529999992,
                    "velocity": 0.30708661417322836,
                    "duration": 0.13071899999999914
                },
                {
                    "name": "A4",
                    "midi": 69,
                    "time": 155.2941719999992,
                    "velocity": 0.36220472440944884,
                    "duration": 0.13071899999999914
                },
                {
                    "name": "G4",
                    "midi": 67,
                    "time": 155.4248909999992,
                    "velocity": 0.30708661417322836,
                    "duration": 0.13071899999999914
                },
                {
                    "name": "B4",
                    "midi": 71,
                    "time": 155.5556099999992,
                    "velocity": 0.3700787401574803,
                    "duration": 0.13071899999999914
                },
                {
                    "name": "G4",
                    "midi": 67,
                    "time": 155.6863289999992,
                    "velocity": 0.33070866141732286,
                    "duration": 0.13071899999999914
                },
                {
                    "name": "F#4",
                    "midi": 66,
                    "time": 155.8170479999992,
                    "velocity": 0.30708661417322836,
                    "duration": 1.0457519999999931
                },
                {
                    "name": "B3",
                    "midi": 59,
                    "time": 156.8627999999992,
                    "velocity": 0.4094488188976378,
                    "duration": 0.13071899999999914
                },
                {
                    "name": "E4",
                    "midi": 64,
                    "time": 156.9935189999992,
                    "velocity": 0.3464566929133858,
                    "duration": 0.13071899999999914
                },
                {
                    "name": "D#4",
                    "midi": 63,
                    "time": 157.1242379999992,
                    "velocity": 0.41732283464566927,
                    "duration": 0.13071899999999914
                },
                {
                    "name": "E4",
                    "midi": 64,
                    "time": 157.2549569999992,
                    "velocity": 0.3464566929133858,
                    "duration": 0.13071899999999914
                },
                {
                    "name": "F#4",
                    "midi": 66,
                    "time": 157.3856759999992,
                    "velocity": 0.4094488188976378,
                    "duration": 0.13071899999999914
                },
                {
                    "name": "E4",
                    "midi": 64,
                    "time": 157.5163949999992,
                    "velocity": 0.3464566929133858,
                    "duration": 0.13071899999999914
                },
                {
                    "name": "G4",
                    "midi": 67,
                    "time": 157.6471139999992,
                    "velocity": 0.41732283464566927,
                    "duration": 0.13071899999999914
                },
                {
                    "name": "E4",
                    "midi": 64,
                    "time": 157.7778329999992,
                    "velocity": 0.3779527559055118,
                    "duration": 0.13071899999999914
                },
                {
                    "name": "E5",
                    "midi": 76,
                    "time": 157.9085519999992,
                    "velocity": 0.5196850393700787,
                    "duration": 1.0457519999999931
                },
                {
                    "name": "G4",
                    "midi": 67,
                    "time": 157.9085519999992,
                    "velocity": 0.4409448818897638,
                    "duration": 1.0457519999999931
                },
                {
                    "name": "E5",
                    "midi": 76,
                    "time": 159.08502299999918,
                    "velocity": 0.44881889763779526,
                    "duration": 0.13071899999999914
                },
                {
                    "name": "D#5",
                    "midi": 75,
                    "time": 159.21574199999918,
                    "velocity": 0.5669291338582677,
                    "duration": 0.13071899999999914
                },
                {
                    "name": "E5",
                    "midi": 76,
                    "time": 159.34646099999918,
                    "velocity": 0.4645669291338583,
                    "duration": 0.13071899999999914
                },
                {
                    "name": "F#5",
                    "midi": 78,
                    "time": 159.47717999999918,
                    "velocity": 0.5669291338582677,
                    "duration": 0.13071899999999914
                },
                {
                    "name": "E5",
                    "midi": 76,
                    "time": 159.60789899999918,
                    "velocity": 0.47244094488188976,
                    "duration": 0.13071899999999914
                },
                {
                    "name": "G5",
                    "midi": 79,
                    "time": 159.73861799999918,
                    "velocity": 0.5984251968503937,
                    "duration": 0.13071899999999914
                },
                {
                    "name": "E5",
                    "midi": 76,
                    "time": 159.86933699999918,
                    "velocity": 0.5354330708661418,
                    "duration": 0.13071899999999914
                },
                {
                    "name": "D5",
                    "midi": 74,
                    "time": 160.00005599999918,
                    "velocity": 0.6141732283464567,
                    "duration": 0.13071899999999914
                },
                {
                    "name": "B5",
                    "midi": 83,
                    "time": 160.13077499999918,
                    "velocity": 0.5669291338582677,
                    "duration": 0.13071899999999914
                },
                {
                    "name": "A#5",
                    "midi": 82,
                    "time": 160.26149399999917,
                    "velocity": 0.6299212598425197,
                    "duration": 0.13071899999999914
                },
                {
                    "name": "B5",
                    "midi": 83,
                    "time": 160.39221299999917,
                    "velocity": 0.5984251968503937,
                    "duration": 0.13071899999999914
                },
                {
                    "name": "C#6",
                    "midi": 85,
                    "time": 160.52293199999917,
                    "velocity": 0.6614173228346457,
                    "duration": 0.13071899999999914
                },
                {
                    "name": "B5",
                    "midi": 83,
                    "time": 160.65365099999917,
                    "velocity": 0.6141732283464567,
                    "duration": 0.13071899999999914
                },
                {
                    "name": "D6",
                    "midi": 86,
                    "time": 160.78436999999917,
                    "velocity": 0.7401574803149606,
                    "duration": 0.13071899999999914
                },
                {
                    "name": "B5",
                    "midi": 83,
                    "time": 160.91508899999917,
                    "velocity": 0.6771653543307087,
                    "duration": 0.13071899999999914
                },
                {
                    "name": "A#5",
                    "midi": 82,
                    "time": 161.04580799999917,
                    "velocity": 0.6929133858267716,
                    "duration": 0.13071899999999914
                },
                {
                    "name": "C#6",
                    "midi": 85,
                    "time": 161.17652699999917,
                    "velocity": 0.5669291338582677,
                    "duration": 0.13071899999999914
                },
                {
                    "name": "F#5",
                    "midi": 78,
                    "time": 161.30724599999917,
                    "velocity": 0.6141732283464567,
                    "duration": 0.13071899999999914
                },
                {
                    "name": "A#5",
                    "midi": 82,
                    "time": 161.43796499999917,
                    "velocity": 0.5039370078740157,
                    "duration": 0.13071899999999914
                },
                {
                    "name": "C#5",
                    "midi": 73,
                    "time": 161.56868399999917,
                    "velocity": 0.5669291338582677,
                    "duration": 0.13071899999999914
                },
                {
                    "name": "F#5",
                    "midi": 78,
                    "time": 161.69940299999917,
                    "velocity": 0.4330708661417323,
                    "duration": 0.13071899999999914
                },
                {
                    "name": "A#4",
                    "midi": 70,
                    "time": 161.83012199999916,
                    "velocity": 0.4881889763779528,
                    "duration": 0.13071899999999914
                },
                {
                    "name": "C#5",
                    "midi": 73,
                    "time": 161.96084099999916,
                    "velocity": 0.3937007874015748,
                    "duration": 0.13071899999999914
                },
                {
                    "name": "F#4",
                    "midi": 66,
                    "time": 162.09155999999916,
                    "velocity": 0.4881889763779528,
                    "duration": 0.5228759999999966
                },
                {
                    "name": "F#4",
                    "midi": 66,
                    "time": 162.87587399999916,
                    "velocity": 0.41732283464566927,
                    "duration": 0.2614379999999983
                },
                {
                    "name": "B4",
                    "midi": 71,
                    "time": 163.13731199999916,
                    "velocity": 0.47244094488188976,
                    "duration": 0.13071899999999914
                },
                {
                    "name": "A#4",
                    "midi": 70,
                    "time": 163.26803099999916,
                    "velocity": 0.4094488188976378,
                    "duration": 0.09803924999999936
                },
                {
                    "name": "C#5",
                    "midi": 73,
                    "time": 163.39874999999915,
                    "velocity": 0.47244094488188976,
                    "duration": 0.13071899999999914
                },
                {
                    "name": "B4",
                    "midi": 71,
                    "time": 163.52946899999915,
                    "velocity": 0.4251968503937008,
                    "duration": 0.09803924999999936
                },
                {
                    "name": "D5",
                    "midi": 74,
                    "time": 163.66018799999915,
                    "velocity": 0.47244094488188976,
                    "duration": 0.13071899999999914
                },
                {
                    "name": "C#5",
                    "midi": 73,
                    "time": 163.79090699999915,
                    "velocity": 0.4251968503937008,
                    "duration": 0.09803924999999936
                },
                {
                    "name": "E5",
                    "midi": 76,
                    "time": 163.92162599999915,
                    "velocity": 0.47244094488188976,
                    "duration": 0.13071899999999914
                },
                {
                    "name": "D5",
                    "midi": 74,
                    "time": 164.05234499999915,
                    "velocity": 0.3858267716535433,
                    "duration": 0.09803924999999936
                },
                {
                    "name": "D5",
                    "midi": 74,
                    "time": 164.18306399999915,
                    "velocity": 0.44881889763779526,
                    "duration": 0.5228759999999966
                },
                {
                    "name": "B4",
                    "midi": 71,
                    "time": 164.18306399999915,
                    "velocity": 0.3779527559055118,
                    "duration": 0.5228759999999966
                },
                {
                    "name": "C#5",
                    "midi": 73,
                    "time": 164.70593999999915,
                    "velocity": 0.3937007874015748,
                    "duration": 0.1960784999999987
                },
                {
                    "name": "A#4",
                    "midi": 70,
                    "time": 164.70593999999915,
                    "velocity": 0.33070866141732286,
                    "duration": 0.1960784999999987
                },
                {
                    "name": "F#4",
                    "midi": 66,
                    "time": 164.96737799999914,
                    "velocity": 0.41732283464566927,
                    "duration": 0.2614379999999983
                },
                {
                    "name": "C#5",
                    "midi": 73,
                    "time": 165.22881599999914,
                    "velocity": 0.47244094488188976,
                    "duration": 0.13071899999999914
                },
                {
                    "name": "B4",
                    "midi": 71,
                    "time": 165.35953499999914,
                    "velocity": 0.4094488188976378,
                    "duration": 0.09803924999999936
                },
                {
                    "name": "D5",
                    "midi": 74,
                    "time": 165.49025399999914,
                    "velocity": 0.47244094488188976,
                    "duration": 0.13071899999999914
                },
                {
                    "name": "C#5",
                    "midi": 73,
                    "time": 165.62097299999914,
                    "velocity": 0.4251968503937008,
                    "duration": 0.09803924999999936
                },
                {
                    "name": "E5",
                    "midi": 76,
                    "time": 165.75169199999914,
                    "velocity": 0.47244094488188976,
                    "duration": 0.13071899999999914
                },
                {
                    "name": "D5",
                    "midi": 74,
                    "time": 165.88241099999914,
                    "velocity": 0.4251968503937008,
                    "duration": 0.09803924999999936
                },
                {
                    "name": "F#5",
                    "midi": 78,
                    "time": 166.01312999999914,
                    "velocity": 0.47244094488188976,
                    "duration": 0.13071899999999914
                },
                {
                    "name": "E5",
                    "midi": 76,
                    "time": 166.14384899999914,
                    "velocity": 0.3858267716535433,
                    "duration": 0.09803924999999936
                },
                {
                    "name": "E5",
                    "midi": 76,
                    "time": 166.27456799999914,
                    "velocity": 0.44881889763779526,
                    "duration": 0.5228759999999966
                },
                {
                    "name": "C#5",
                    "midi": 73,
                    "time": 166.27456799999914,
                    "velocity": 0.3779527559055118,
                    "duration": 0.5228759999999966
                },
                {
                    "name": "D5",
                    "midi": 74,
                    "time": 166.79744399999913,
                    "velocity": 0.3937007874015748,
                    "duration": 0.1960784999999987
                },
                {
                    "name": "B4",
                    "midi": 71,
                    "time": 166.79744399999913,
                    "velocity": 0.33070866141732286,
                    "duration": 0.1960784999999987
                },
                {
                    "name": "B4",
                    "midi": 71,
                    "time": 167.05888199999913,
                    "velocity": 0.41732283464566927,
                    "duration": 0.2614379999999983
                },
                {
                    "name": "E5",
                    "midi": 76,
                    "time": 167.32031999999913,
                    "velocity": 0.47244094488188976,
                    "duration": 0.13071899999999914
                },
                {
                    "name": "D#5",
                    "midi": 75,
                    "time": 167.45103899999913,
                    "velocity": 0.4094488188976378,
                    "duration": 0.09803924999999936
                },
                {
                    "name": "F#5",
                    "midi": 78,
                    "time": 167.58175799999913,
                    "velocity": 0.47244094488188976,
                    "duration": 0.13071899999999914
                },
                {
                    "name": "E5",
                    "midi": 76,
                    "time": 167.71247699999913,
                    "velocity": 0.4251968503937008,
                    "duration": 0.09803924999999936
                },
                {
                    "name": "G5",
                    "midi": 79,
                    "time": 167.84319599999912,
                    "velocity": 0.47244094488188976,
                    "duration": 0.13071899999999914
                },
                {
                    "name": "F#5",
                    "midi": 78,
                    "time": 167.97391499999912,
                    "velocity": 0.4251968503937008,
                    "duration": 0.09803924999999936
                },
                {
                    "name": "A5",
                    "midi": 81,
                    "time": 168.10463399999912,
                    "velocity": 0.5039370078740157,
                    "duration": 0.13071899999999914
                },
                {
                    "name": "G5",
                    "midi": 79,
                    "time": 168.23535299999912,
                    "velocity": 0.4566929133858268,
                    "duration": 0.09803924999999936
                },
                {
                    "name": "B5",
                    "midi": 83,
                    "time": 168.36607199999912,
                    "velocity": 0.5354330708661418,
                    "duration": 0.13071899999999914
                },
                {
                    "name": "A5",
                    "midi": 81,
                    "time": 168.49679099999912,
                    "velocity": 0.5118110236220472,
                    "duration": 0.13071899999999914
                },
                {
                    "name": "G5",
                    "midi": 79,
                    "time": 168.62750999999912,
                    "velocity": 0.5039370078740157,
                    "duration": 0.13071899999999914
                },
                {
                    "name": "F#5",
                    "midi": 78,
                    "time": 168.75822899999912,
                    "velocity": 0.49606299212598426,
                    "duration": 0.13071899999999914
                },
                {
                    "name": "E5",
                    "midi": 76,
                    "time": 168.88894799999912,
                    "velocity": 0.48031496062992124,
                    "duration": 0.13071899999999914
                },
                {
                    "name": "D5",
                    "midi": 74,
                    "time": 169.01966699999912,
                    "velocity": 0.4645669291338583,
                    "duration": 0.13071899999999914
                },
                {
                    "name": "C#5",
                    "midi": 73,
                    "time": 169.15038599999912,
                    "velocity": 0.4566929133858268,
                    "duration": 0.13071899999999914
                },
                {
                    "name": "B4",
                    "midi": 71,
                    "time": 169.28110499999912,
                    "velocity": 0.4330708661417323,
                    "duration": 0.13071899999999914
                },
                {
                    "name": "C#5",
                    "midi": 73,
                    "time": 169.41182399999911,
                    "velocity": 0.47244094488188976,
                    "duration": 0.13071899999999914
                },
                {
                    "name": "B4",
                    "midi": 71,
                    "time": 169.5425429999991,
                    "velocity": 0.4094488188976378,
                    "duration": 0.09803924999999936
                },
                {
                    "name": "D5",
                    "midi": 74,
                    "time": 169.6732619999991,
                    "velocity": 0.47244094488188976,
                    "duration": 0.13071899999999914
                },
                {
                    "name": "C#5",
                    "midi": 73,
                    "time": 169.8039809999991,
                    "velocity": 0.4251968503937008,
                    "duration": 0.09803924999999936
                },
                {
                    "name": "E5",
                    "midi": 76,
                    "time": 169.9346999999991,
                    "velocity": 0.47244094488188976,
                    "duration": 0.13071899999999914
                },
                {
                    "name": "D5",
                    "midi": 74,
                    "time": 170.0654189999991,
                    "velocity": 0.4251968503937008,
                    "duration": 0.09803924999999936
                },
                {
                    "name": "F#5",
                    "midi": 78,
                    "time": 170.1961379999991,
                    "velocity": 0.5039370078740157,
                    "duration": 0.13071899999999914
                },
                {
                    "name": "E5",
                    "midi": 76,
                    "time": 170.3268569999991,
                    "velocity": 0.4566929133858268,
                    "duration": 0.09803924999999936
                },
                {
                    "name": "G5",
                    "midi": 79,
                    "time": 170.4575759999991,
                    "velocity": 0.5354330708661418,
                    "duration": 0.13071899999999914
                },
                {
                    "name": "F#5",
                    "midi": 78,
                    "time": 170.5882949999991,
                    "velocity": 0.5118110236220472,
                    "duration": 0.13071899999999914
                },
                {
                    "name": "E5",
                    "midi": 76,
                    "time": 170.7190139999991,
                    "velocity": 0.5039370078740157,
                    "duration": 0.13071899999999914
                },
                {
                    "name": "D5",
                    "midi": 74,
                    "time": 170.8497329999991,
                    "velocity": 0.49606299212598426,
                    "duration": 0.13071899999999914
                },
                {
                    "name": "C#5",
                    "midi": 73,
                    "time": 170.9804519999991,
                    "velocity": 0.48031496062992124,
                    "duration": 0.13071899999999914
                },
                {
                    "name": "B4",
                    "midi": 71,
                    "time": 171.1111709999991,
                    "velocity": 0.4645669291338583,
                    "duration": 0.13071899999999914
                },
                {
                    "name": "A4",
                    "midi": 69,
                    "time": 171.2418899999991,
                    "velocity": 0.4566929133858268,
                    "duration": 0.13071899999999914
                },
                {
                    "name": "G4",
                    "midi": 67,
                    "time": 171.3726089999991,
                    "velocity": 0.4330708661417323,
                    "duration": 0.13071899999999914
                },
                {
                    "name": "F#4",
                    "midi": 66,
                    "time": 171.5033279999991,
                    "velocity": 0.47244094488188976,
                    "duration": 0.13071899999999914
                },
                {
                    "name": "E4",
                    "midi": 64,
                    "time": 171.6340469999991,
                    "velocity": 0.4094488188976378,
                    "duration": 0.09803924999999936
                },
                {
                    "name": "G4",
                    "midi": 67,
                    "time": 171.7647659999991,
                    "velocity": 0.47244094488188976,
                    "duration": 0.13071899999999914
                },
                {
                    "name": "F#4",
                    "midi": 66,
                    "time": 171.8954849999991,
                    "velocity": 0.4251968503937008,
                    "duration": 0.09803924999999936
                },
                {
                    "name": "A4",
                    "midi": 69,
                    "time": 172.0262039999991,
                    "velocity": 0.47244094488188976,
                    "duration": 0.13071899999999914
                },
                {
                    "name": "G4",
                    "midi": 67,
                    "time": 172.1569229999991,
                    "velocity": 0.4251968503937008,
                    "duration": 0.09803924999999936
                },
                {
                    "name": "B4",
                    "midi": 71,
                    "time": 172.2876419999991,
                    "velocity": 0.5039370078740157,
                    "duration": 0.13071899999999914
                },
                {
                    "name": "A4",
                    "midi": 69,
                    "time": 172.4183609999991,
                    "velocity": 0.4566929133858268,
                    "duration": 0.09803924999999936
                },
                {
                    "name": "C5",
                    "midi": 72,
                    "time": 172.5490799999991,
                    "velocity": 0.5354330708661418,
                    "duration": 0.13071899999999914
                },
                {
                    "name": "B4",
                    "midi": 71,
                    "time": 172.6797989999991,
                    "velocity": 0.5118110236220472,
                    "duration": 0.13071899999999914
                },
                {
                    "name": "A4",
                    "midi": 69,
                    "time": 172.8105179999991,
                    "velocity": 0.5039370078740157,
                    "duration": 0.13071899999999914
                },
                {
                    "name": "G4",
                    "midi": 67,
                    "time": 172.9412369999991,
                    "velocity": 0.49606299212598426,
                    "duration": 0.13071899999999914
                },
                {
                    "name": "F#4",
                    "midi": 66,
                    "time": 173.0719559999991,
                    "velocity": 0.48031496062992124,
                    "duration": 0.13071899999999914
                },
                {
                    "name": "E4",
                    "midi": 64,
                    "time": 173.2026749999991,
                    "velocity": 0.4645669291338583,
                    "duration": 0.13071899999999914
                },
                {
                    "name": "D4",
                    "midi": 62,
                    "time": 173.3333939999991,
                    "velocity": 0.4566929133858268,
                    "duration": 0.13071899999999914
                },
                {
                    "name": "C4",
                    "midi": 60,
                    "time": 173.4641129999991,
                    "velocity": 0.4330708661417323,
                    "duration": 0.13071899999999914
                },
                {
                    "name": "B3",
                    "midi": 59,
                    "time": 173.5948319999991,
                    "velocity": 0.5354330708661418,
                    "duration": 0.13071899999999914
                },
                {
                    "name": "B4",
                    "midi": 71,
                    "time": 173.7255509999991,
                    "velocity": 0.4881889763779528,
                    "duration": 0.13071899999999914
                },
                {
                    "name": "A#4",
                    "midi": 70,
                    "time": 173.85626999999909,
                    "velocity": 0.5354330708661418,
                    "duration": 0.13071899999999914
                },
                {
                    "name": "B4",
                    "midi": 71,
                    "time": 173.98698899999908,
                    "velocity": 0.4881889763779528,
                    "duration": 0.13071899999999914
                },
                {
                    "name": "A4",
                    "midi": 69,
                    "time": 174.11770799999908,
                    "velocity": 0.5354330708661418,
                    "duration": 0.13071899999999914
                },
                {
                    "name": "G4",
                    "midi": 67,
                    "time": 174.24842699999908,
                    "velocity": 0.5118110236220472,
                    "duration": 0.13071899999999914
                },
                {
                    "name": "F#4",
                    "midi": 66,
                    "time": 174.37914599999908,
                    "velocity": 0.5118110236220472,
                    "duration": 0.13071899999999914
                },
                {
                    "name": "E4",
                    "midi": 64,
                    "time": 174.50986499999908,
                    "velocity": 0.5118110236220472,
                    "duration": 0.13071899999999914
                },
                {
                    "name": "D#4",
                    "midi": 63,
                    "time": 174.64058399999908,
                    "velocity": 0.5354330708661418,
                    "duration": 0.13071899999999914
                },
                {
                    "name": "E4",
                    "midi": 64,
                    "time": 174.77130299999908,
                    "velocity": 0.48031496062992124,
                    "duration": 0.13071899999999914
                },
                {
                    "name": "F#4",
                    "midi": 66,
                    "time": 174.90202199999908,
                    "velocity": 0.48031496062992124,
                    "duration": 0.13071899999999914
                },
                {
                    "name": "E4",
                    "midi": 64,
                    "time": 175.03274099999908,
                    "velocity": 0.48031496062992124,
                    "duration": 0.13071899999999914
                },
                {
                    "name": "G4",
                    "midi": 67,
                    "time": 175.16345999999908,
                    "velocity": 0.5354330708661418,
                    "duration": 0.13071899999999914
                },
                {
                    "name": "F#4",
                    "midi": 66,
                    "time": 175.29417899999908,
                    "velocity": 0.5196850393700787,
                    "duration": 0.13071899999999914
                },
                {
                    "name": "E4",
                    "midi": 64,
                    "time": 175.42489799999908,
                    "velocity": 0.49606299212598426,
                    "duration": 0.13071899999999914
                },
                {
                    "name": "D4",
                    "midi": 62,
                    "time": 175.55561699999907,
                    "velocity": 0.4881889763779528,
                    "duration": 0.11982574999998974
                },
                {
                    "name": "D4",
                    "midi": 62,
                    "time": 175.68633599999907,
                    "velocity": 0.5354330708661418,
                    "duration": 1.0457519999999931
                },
                {
                    "name": "C#4",
                    "midi": 61,
                    "time": 176.73208799999907,
                    "velocity": 0.5039370078740157,
                    "duration": 0.13071899999999914
                },
                {
                    "name": "A3",
                    "midi": 57,
                    "time": 176.86280699999907,
                    "velocity": 0.4330708661417323,
                    "duration": 0.13071899999999914
                },
                {
                    "name": "E4",
                    "midi": 64,
                    "time": 176.99352599999906,
                    "velocity": 0.5039370078740157,
                    "duration": 0.13071899999999914
                },
                {
                    "name": "C#4",
                    "midi": 61,
                    "time": 177.12424499999906,
                    "velocity": 0.4645669291338583,
                    "duration": 0.13071899999999914
                },
                {
                    "name": "G4",
                    "midi": 67,
                    "time": 177.25496399999906,
                    "velocity": 0.5196850393700787,
                    "duration": 0.13071899999999914
                },
                {
                    "name": "E4",
                    "midi": 64,
                    "time": 177.38568299999906,
                    "velocity": 0.4645669291338583,
                    "duration": 0.13071899999999914
                },
                {
                    "name": "C#5",
                    "midi": 73,
                    "time": 177.51640199999906,
                    "velocity": 0.5196850393700787,
                    "duration": 0.13071899999999914
                },
                {
                    "name": "G4",
                    "midi": 67,
                    "time": 177.64712099999906,
                    "velocity": 0.4645669291338583,
                    "duration": 0.13071899999999914
                },
                {
                    "name": "E5",
                    "midi": 76,
                    "time": 177.77783999999906,
                    "velocity": 0.5433070866141733,
                    "duration": 0.13071899999999914
                },
                {
                    "name": "C#5",
                    "midi": 73,
                    "time": 177.90855899999906,
                    "velocity": 0.4881889763779528,
                    "duration": 0.13071899999999914
                },
                {
                    "name": "G5",
                    "midi": 79,
                    "time": 178.03927799999906,
                    "velocity": 0.5511811023622047,
                    "duration": 0.13071899999999914
                },
                {
                    "name": "E5",
                    "midi": 76,
                    "time": 178.16999699999906,
                    "velocity": 0.5039370078740157,
                    "duration": 0.13071899999999914
                },
                {
                    "name": "B5",
                    "midi": 83,
                    "time": 178.30071599999906,
                    "velocity": 0.5826771653543307,
                    "duration": 0.2614379999999983
                },
                {
                    "name": "A#5",
                    "midi": 82,
                    "time": 179.47718699999905,
                    "velocity": 0.3700787401574803,
                    "duration": 0.13071899999999914
                },
                {
                    "name": "B5",
                    "midi": 83,
                    "time": 179.60790599999905,
                    "velocity": 0.3937007874015748,
                    "duration": 0.13071899999999914
                },
                {
                    "name": "A#5",
                    "midi": 82,
                    "time": 179.73862499999905,
                    "velocity": 0.3700787401574803,
                    "duration": 0.13071899999999914
                },
                {
                    "name": "B5",
                    "midi": 83,
                    "time": 179.86934399999905,
                    "velocity": 0.4015748031496063,
                    "duration": 0.13071899999999914
                },
                {
                    "name": "A#5",
                    "midi": 82,
                    "time": 180.52293899999904,
                    "velocity": 0.3700787401574803,
                    "duration": 0.13071899999999914
                },
                {
                    "name": "B5",
                    "midi": 83,
                    "time": 180.65365799999904,
                    "velocity": 0.3937007874015748,
                    "duration": 0.13071899999999914
                },
                {
                    "name": "A#5",
                    "midi": 82,
                    "time": 180.78437699999904,
                    "velocity": 0.3700787401574803,
                    "duration": 0.13071899999999914
                },
                {
                    "name": "B5",
                    "midi": 83,
                    "time": 180.91509599999904,
                    "velocity": 0.4015748031496063,
                    "duration": 0.13071899999999914
                },
                {
                    "name": "A#5",
                    "midi": 82,
                    "time": 181.56869099999903,
                    "velocity": 0.4645669291338583,
                    "duration": 0.13071899999999914
                },
                {
                    "name": "B5",
                    "midi": 83,
                    "time": 181.69940999999903,
                    "velocity": 0.49606299212598426,
                    "duration": 0.13071899999999914
                },
                {
                    "name": "A#5",
                    "midi": 82,
                    "time": 181.83012899999903,
                    "velocity": 0.4645669291338583,
                    "duration": 0.13071899999999914
                },
                {
                    "name": "B5",
                    "midi": 83,
                    "time": 181.96084799999903,
                    "velocity": 0.5196850393700787,
                    "duration": 0.13071899999999914
                },
                {
                    "name": "C#6",
                    "midi": 85,
                    "time": 182.09156699999903,
                    "velocity": 0.5511811023622047,
                    "duration": 0.13071899999999914
                },
                {
                    "name": "D6",
                    "midi": 86,
                    "time": 182.22228599999903,
                    "velocity": 0.5590551181102362,
                    "duration": 0.13071899999999914
                },
                {
                    "name": "C#6",
                    "midi": 85,
                    "time": 182.35300499999903,
                    "velocity": 0.5433070866141733,
                    "duration": 0.13071899999999914
                },
                {
                    "name": "B5",
                    "midi": 83,
                    "time": 182.48372399999903,
                    "velocity": 0.5511811023622047,
                    "duration": 0.13071899999999914
                },
                {
                    "name": "A5",
                    "midi": 81,
                    "time": 182.61444299999903,
                    "velocity": 0.5354330708661418,
                    "duration": 0.13071899999999914
                },
                {
                    "name": "G5",
                    "midi": 79,
                    "time": 182.74516199999903,
                    "velocity": 0.5196850393700787,
                    "duration": 0.13071899999999914
                },
                {
                    "name": "F#5",
                    "midi": 78,
                    "time": 182.87588099999903,
                    "velocity": 0.5196850393700787,
                    "duration": 0.13071899999999914
                },
                {
                    "name": "G5",
                    "midi": 79,
                    "time": 183.00659999999903,
                    "velocity": 0.5433070866141733,
                    "duration": 0.13071899999999914
                },
                {
                    "name": "A5",
                    "midi": 81,
                    "time": 183.13731899999902,
                    "velocity": 0.5669291338582677,
                    "duration": 0.13071899999999914
                },
                {
                    "name": "B5",
                    "midi": 83,
                    "time": 183.26803799999902,
                    "velocity": 0.5905511811023622,
                    "duration": 0.13071899999999914
                },
                {
                    "name": "A5",
                    "midi": 81,
                    "time": 183.39875699999902,
                    "velocity": 0.5590551181102362,
                    "duration": 0.13071899999999914
                },
                {
                    "name": "G5",
                    "midi": 79,
                    "time": 183.52947599999902,
                    "velocity": 0.5511811023622047,
                    "duration": 0.13071899999999914
                },
                {
                    "name": "F#5",
                    "midi": 78,
                    "time": 183.66019499999902,
                    "velocity": 0.5354330708661418,
                    "duration": 0.13071899999999914
                },
                {
                    "name": "E5",
                    "midi": 76,
                    "time": 183.79091399999902,
                    "velocity": 0.5196850393700787,
                    "duration": 0.13071899999999914
                },
                {
                    "name": "D#5",
                    "midi": 75,
                    "time": 183.92163299999902,
                    "velocity": 0.5118110236220472,
                    "duration": 0.13071899999999914
                },
                {
                    "name": "E5",
                    "midi": 76,
                    "time": 184.05235199999902,
                    "velocity": 0.5433070866141733,
                    "duration": 0.13071899999999914
                },
                {
                    "name": "F#5",
                    "midi": 78,
                    "time": 184.18307099999902,
                    "velocity": 0.5669291338582677,
                    "duration": 0.13071899999999914
                },
                {
                    "name": "G5",
                    "midi": 79,
                    "time": 184.31378999999902,
                    "velocity": 0.5905511811023622,
                    "duration": 0.13071899999999914
                },
                {
                    "name": "F#5",
                    "midi": 78,
                    "time": 184.44450899999902,
                    "velocity": 0.5590551181102362,
                    "duration": 0.13071899999999914
                },
                {
                    "name": "E5",
                    "midi": 76,
                    "time": 184.57522799999902,
                    "velocity": 0.5511811023622047,
                    "duration": 0.13071899999999914
                },
                {
                    "name": "D5",
                    "midi": 74,
                    "time": 184.70594699999901,
                    "velocity": 0.5354330708661418,
                    "duration": 0.13071899999999914
                },
                {
                    "name": "C#5",
                    "midi": 73,
                    "time": 184.836665999999,
                    "velocity": 0.5196850393700787,
                    "duration": 0.13071899999999914
                },
                {
                    "name": "B4",
                    "midi": 71,
                    "time": 184.967384999999,
                    "velocity": 0.4566929133858268,
                    "duration": 0.13071899999999914
                },
                {
                    "name": "A4",
                    "midi": 69,
                    "time": 185.098103999999,
                    "velocity": 0.5039370078740157,
                    "duration": 0.13071899999999914
                },
                {
                    "name": "B4",
                    "midi": 71,
                    "time": 185.228822999999,
                    "velocity": 0.4015748031496063,
                    "duration": 0.13071899999999914
                },
                {
                    "name": "G#4",
                    "midi": 68,
                    "time": 185.359541999999,
                    "velocity": 0.44881889763779526,
                    "duration": 0.13071899999999914
                },
                {
                    "name": "B4",
                    "midi": 71,
                    "time": 185.490260999999,
                    "velocity": 0.3779527559055118,
                    "duration": 0.13071899999999914
                },
                {
                    "name": "A4",
                    "midi": 69,
                    "time": 185.620979999999,
                    "velocity": 0.44881889763779526,
                    "duration": 0.13071899999999914
                },
                {
                    "name": "B4",
                    "midi": 71,
                    "time": 185.751698999999,
                    "velocity": 0.3858267716535433,
                    "duration": 0.13071899999999914
                },
                {
                    "name": "G#4",
                    "midi": 68,
                    "time": 185.882417999999,
                    "velocity": 0.4409448818897638,
                    "duration": 0.13071899999999914
                },
                {
                    "name": "B4",
                    "midi": 71,
                    "time": 186.013136999999,
                    "velocity": 0.3858267716535433,
                    "duration": 0.13071899999999914
                },
                {
                    "name": "A4",
                    "midi": 69,
                    "time": 186.143855999999,
                    "velocity": 0.5196850393700787,
                    "duration": 0.13071899999999914
                },
                {
                    "name": "B4",
                    "midi": 71,
                    "time": 186.274574999999,
                    "velocity": 0.4409448818897638,
                    "duration": 0.13071899999999914
                },
                {
                    "name": "G#4",
                    "midi": 68,
                    "time": 186.405293999999,
                    "velocity": 0.4881889763779528,
                    "duration": 0.13071899999999914
                },
                {
                    "name": "B4",
                    "midi": 71,
                    "time": 186.536012999999,
                    "velocity": 0.4251968503937008,
                    "duration": 0.13071899999999914
                },
                {
                    "name": "A4",
                    "midi": 69,
                    "time": 186.666731999999,
                    "velocity": 0.49606299212598426,
                    "duration": 0.13071899999999914
                },
                {
                    "name": "B4",
                    "midi": 71,
                    "time": 186.797450999999,
                    "velocity": 0.4409448818897638,
                    "duration": 0.13071899999999914
                },
                {
                    "name": "F#4",
                    "midi": 66,
                    "time": 186.928169999999,
                    "velocity": 0.49606299212598426,
                    "duration": 0.13071899999999914
                },
                {
                    "name": "A4",
                    "midi": 69,
                    "time": 187.058888999999,
                    "velocity": 0.4409448818897638,
                    "duration": 0.13071899999999914
                },
                {
                    "name": "G4",
                    "midi": 67,
                    "time": 187.189607999999,
                    "velocity": 0.5039370078740157,
                    "duration": 0.13071899999999914
                },
                {
                    "name": "A4",
                    "midi": 69,
                    "time": 187.320326999999,
                    "velocity": 0.3937007874015748,
                    "duration": 0.13071899999999914
                },
                {
                    "name": "F#4",
                    "midi": 66,
                    "time": 187.451045999999,
                    "velocity": 0.44881889763779526,
                    "duration": 0.13071899999999914
                },
                {
                    "name": "A4",
                    "midi": 69,
                    "time": 187.581764999999,
                    "velocity": 0.3937007874015748,
                    "duration": 0.13071899999999914
                },
                {
                    "name": "G4",
                    "midi": 67,
                    "time": 187.712483999999,
                    "velocity": 0.4409448818897638,
                    "duration": 0.13071899999999914
                },
                {
                    "name": "A4",
                    "midi": 69,
                    "time": 187.843202999999,
                    "velocity": 0.3937007874015748,
                    "duration": 0.13071899999999914
                },
                {
                    "name": "F#4",
                    "midi": 66,
                    "time": 187.973921999999,
                    "velocity": 0.44881889763779526,
                    "duration": 0.13071899999999914
                },
                {
                    "name": "A4",
                    "midi": 69,
                    "time": 188.104640999999,
                    "velocity": 0.3858267716535433,
                    "duration": 0.13071899999999914
                },
                {
                    "name": "G4",
                    "midi": 67,
                    "time": 188.235359999999,
                    "velocity": 0.5196850393700787,
                    "duration": 0.13071899999999914
                },
                {
                    "name": "A4",
                    "midi": 69,
                    "time": 188.366078999999,
                    "velocity": 0.4409448818897638,
                    "duration": 0.13071899999999914
                },
                {
                    "name": "F#4",
                    "midi": 66,
                    "time": 188.496797999999,
                    "velocity": 0.4881889763779528,
                    "duration": 0.13071899999999914
                },
                {
                    "name": "A4",
                    "midi": 69,
                    "time": 188.627516999999,
                    "velocity": 0.3858267716535433,
                    "duration": 0.13071899999999914
                },
                {
                    "name": "G4",
                    "midi": 67,
                    "time": 188.758235999999,
                    "velocity": 0.4566929133858268,
                    "duration": 0.13071899999999914
                },
                {
                    "name": "A4",
                    "midi": 69,
                    "time": 188.888954999999,
                    "velocity": 0.3779527559055118,
                    "duration": 0.13071899999999914
                },
                {
                    "name": "F#4",
                    "midi": 66,
                    "time": 189.019673999999,
                    "velocity": 0.44881889763779526,
                    "duration": 0.13071899999999914
                },
                {
                    "name": "A4",
                    "midi": 69,
                    "time": 189.15039299999899,
                    "velocity": 0.3937007874015748,
                    "duration": 0.13071899999999914
                },
                {
                    "name": "G4",
                    "midi": 67,
                    "time": 189.28111199999898,
                    "velocity": 0.4645669291338583,
                    "duration": 0.3921569999999974
                },
                {
                    "name": "F#4",
                    "midi": 66,
                    "time": 189.67326899999898,
                    "velocity": 0.3700787401574803,
                    "duration": 0.13071899999999914
                },
                {
                    "name": "G4",
                    "midi": 67,
                    "time": 189.80398799999898,
                    "velocity": 0.3858267716535433,
                    "duration": 0.3921569999999974
                },
                {
                    "name": "F#4",
                    "midi": 66,
                    "time": 190.19614499999898,
                    "velocity": 0.3228346456692913,
                    "duration": 0.13071899999999914
                },
                {
                    "name": "G4",
                    "midi": 67,
                    "time": 190.32686399999898,
                    "velocity": 0.36220472440944884,
                    "duration": 0.3921569999999974
                },
                {
                    "name": "F#4",
                    "midi": 66,
                    "time": 190.71902099999897,
                    "velocity": 0.28346456692913385,
                    "duration": 0.14379089999999906
                },
                {
                    "name": "G4",
                    "midi": 67,
                    "time": 190.84973999999897,
                    "velocity": 0.31496062992125984,
                    "duration": 0.14379089999999906
                },
                {
                    "name": "F#4",
                    "midi": 66,
                    "time": 190.98045899999897,
                    "velocity": 0.2755905511811024,
                    "duration": 0.14379089999999906
                },
                {
                    "name": "G4",
                    "midi": 67,
                    "time": 191.11117799999897,
                    "velocity": 0.29133858267716534,
                    "duration": 0.14379089999999906
                },
                {
                    "name": "F#4",
                    "midi": 66,
                    "time": 191.24189699999897,
                    "velocity": 0.25984251968503935,
                    "duration": 0.14379089999999906
                },
                {
                    "name": "G4",
                    "midi": 67,
                    "time": 191.37261599999897,
                    "velocity": 0.2755905511811024,
                    "duration": 0.5228759999999966
                },
                {
                    "name": "A4",
                    "midi": 69,
                    "time": 192.67980599999896,
                    "velocity": 0.2755905511811024,
                    "duration": 0.06535949999999957
                },
                {
                    "name": "C#5",
                    "midi": 73,
                    "time": 192.74516549999896,
                    "velocity": 0.2992125984251969,
                    "duration": 0.06535949999999957
                },
                {
                    "name": "E5",
                    "midi": 76,
                    "time": 192.81052499999896,
                    "velocity": 0.31496062992125984,
                    "duration": 0.06535949999999957
                },
                {
                    "name": "G5",
                    "midi": 79,
                    "time": 192.87588449999896,
                    "velocity": 0.3543307086614173,
                    "duration": 0.06535949999999957
                },
                {
                    "name": "A3",
                    "midi": 57,
                    "time": 193.20268199999896,
                    "velocity": 0.6535433070866141,
                    "duration": 0.06535949999999957
                },
                {
                    "name": "D4",
                    "midi": 62,
                    "time": 193.26804149999896,
                    "velocity": 0.5196850393700787,
                    "duration": 0.06535949999999957
                },
                {
                    "name": "F#4",
                    "midi": 66,
                    "time": 193.33340099999896,
                    "velocity": 0.5196850393700787,
                    "duration": 0.06535949999999957
                },
                {
                    "name": "A4",
                    "midi": 69,
                    "time": 193.39876049999896,
                    "velocity": 0.5196850393700787,
                    "duration": 0.06535949999999957
                },
                {
                    "name": "F#4",
                    "midi": 66,
                    "time": 193.46411999999896,
                    "velocity": 0.6771653543307087,
                    "duration": 0.2614379999999983
                },
                {
                    "name": "D4",
                    "midi": 62,
                    "time": 193.72555799999895,
                    "velocity": 0.6062992125984252,
                    "duration": 0.2614379999999983
                },
                {
                    "name": "D5",
                    "midi": 74,
                    "time": 193.98699599999895,
                    "velocity": 0.4409448818897638,
                    "duration": 0.06535949999999957
                },
                {
                    "name": "A4",
                    "midi": 69,
                    "time": 194.24843399999895,
                    "velocity": 0.4094488188976378,
                    "duration": 0.06535949999999957
                },
                {
                    "name": "B4",
                    "midi": 71,
                    "time": 194.50987199999895,
                    "velocity": 0.4330708661417323,
                    "duration": 0.06535949999999957
                },
                {
                    "name": "C#5",
                    "midi": 73,
                    "time": 194.57523149999895,
                    "velocity": 0.3858267716535433,
                    "duration": 0.06535949999999957
                },
                {
                    "name": "B4",
                    "midi": 71,
                    "time": 194.64059099999895,
                    "velocity": 0.47244094488188976,
                    "duration": 0.13071899999999914
                },
                {
                    "name": "A4",
                    "midi": 69,
                    "time": 194.77130999999895,
                    "velocity": 0.4409448818897638,
                    "duration": 0.2614379999999983
                },
                {
                    "name": "A3",
                    "midi": 57,
                    "time": 195.29418599999894,
                    "velocity": 0.6535433070866141,
                    "duration": 0.06535949999999957
                },
                {
                    "name": "D4",
                    "midi": 62,
                    "time": 195.35954549999894,
                    "velocity": 0.5196850393700787,
                    "duration": 0.06535949999999957
                },
                {
                    "name": "F#4",
                    "midi": 66,
                    "time": 195.42490499999894,
                    "velocity": 0.5196850393700787,
                    "duration": 0.06535949999999957
                },
                {
                    "name": "A4",
                    "midi": 69,
                    "time": 195.49026449999894,
                    "velocity": 0.5196850393700787,
                    "duration": 0.06535949999999957
                },
                {
                    "name": "F#4",
                    "midi": 66,
                    "time": 195.55562399999894,
                    "velocity": 0.6771653543307087,
                    "duration": 0.2614379999999983
                },
                {
                    "name": "D4",
                    "midi": 62,
                    "time": 195.81706199999894,
                    "velocity": 0.6062992125984252,
                    "duration": 0.2614379999999983
                },
                {
                    "name": "F#5",
                    "midi": 78,
                    "time": 196.07849999999894,
                    "velocity": 0.4409448818897638,
                    "duration": 0.06535949999999957
                },
                {
                    "name": "A5",
                    "midi": 81,
                    "time": 196.07849999999894,
                    "velocity": 0.5039370078740157,
                    "duration": 0.06535949999999957
                },
                {
                    "name": "D5",
                    "midi": 74,
                    "time": 196.33993799999894,
                    "velocity": 0.4094488188976378,
                    "duration": 0.06535949999999957
                },
                {
                    "name": "F#5",
                    "midi": 78,
                    "time": 196.33993799999894,
                    "velocity": 0.47244094488188976,
                    "duration": 0.06535949999999957
                },
                {
                    "name": "E5",
                    "midi": 76,
                    "time": 196.60137599999894,
                    "velocity": 0.36220472440944884,
                    "duration": 0.2614379999999983
                },
                {
                    "name": "G5",
                    "midi": 79,
                    "time": 196.60137599999894,
                    "velocity": 0.4330708661417323,
                    "duration": 0.06535949999999957
                },
                {
                    "name": "A5",
                    "midi": 81,
                    "time": 196.66673549999894,
                    "velocity": 0.3858267716535433,
                    "duration": 0.06535949999999957
                },
                {
                    "name": "G5",
                    "midi": 79,
                    "time": 196.73209499999894,
                    "velocity": 0.47244094488188976,
                    "duration": 0.13071899999999914
                },
                {
                    "name": "D5",
                    "midi": 74,
                    "time": 196.86281399999893,
                    "velocity": 0.3700787401574803,
                    "duration": 0.2614379999999983
                },
                {
                    "name": "F#5",
                    "midi": 78,
                    "time": 196.86281399999893,
                    "velocity": 0.4409448818897638,
                    "duration": 0.2614379999999983
                },
                {
                    "name": "D5",
                    "midi": 74,
                    "time": 197.38568999999893,
                    "velocity": 0.47244094488188976,
                    "duration": 0.06535949999999957
                },
                {
                    "name": "F#5",
                    "midi": 78,
                    "time": 197.45104949999893,
                    "velocity": 0.4015748031496063,
                    "duration": 0.06535949999999957
                },
                {
                    "name": "A5",
                    "midi": 81,
                    "time": 197.51640899999893,
                    "velocity": 0.4094488188976378,
                    "duration": 0.06535949999999957
                },
                {
                    "name": "D6",
                    "midi": 86,
                    "time": 197.58176849999893,
                    "velocity": 0.4094488188976378,
                    "duration": 0.06535949999999957
                },
                {
                    "name": "C5",
                    "midi": 72,
                    "time": 197.64712799999893,
                    "velocity": 0.5275590551181102,
                    "duration": 0.7843139999999948
                },
                {
                    "name": "C6",
                    "midi": 84,
                    "time": 198.43144199999892,
                    "velocity": 0.47244094488188976,
                    "duration": 0.06535949999999957
                },
                {
                    "name": "A5",
                    "midi": 81,
                    "time": 198.49680149999892,
                    "velocity": 0.4015748031496063,
                    "duration": 0.06535949999999957
                },
                {
                    "name": "F#5",
                    "midi": 78,
                    "time": 198.56216099999892,
                    "velocity": 0.4094488188976378,
                    "duration": 0.06535949999999957
                },
                {
                    "name": "C5",
                    "midi": 72,
                    "time": 198.62752049999892,
                    "velocity": 0.4094488188976378,
                    "duration": 0.06535949999999957
                },
                {
                    "name": "B4",
                    "midi": 71,
                    "time": 198.69287999999892,
                    "velocity": 0.5275590551181102,
                    "duration": 0.7843139999999948
                },
                {
                    "name": "B4",
                    "midi": 71,
                    "time": 199.47719399999892,
                    "velocity": 0.47244094488188976,
                    "duration": 0.06535949999999957
                },
                {
                    "name": "D5",
                    "midi": 74,
                    "time": 199.54255349999892,
                    "velocity": 0.4015748031496063,
                    "duration": 0.06535949999999957
                },
                {
                    "name": "G5",
                    "midi": 79,
                    "time": 199.60791299999892,
                    "velocity": 0.4094488188976378,
                    "duration": 0.06535949999999957
                },
                {
                    "name": "B5",
                    "midi": 83,
                    "time": 199.67327249999892,
                    "velocity": 0.4094488188976378,
                    "duration": 0.06535949999999957
                },
                {
                    "name": "F#5",
                    "midi": 78,
                    "time": 199.73863199999892,
                    "velocity": 0.4251968503937008,
                    "duration": 0.06535949999999957
                },
                {
                    "name": "A5",
                    "midi": 81,
                    "time": 199.73863199999892,
                    "velocity": 0.5039370078740157,
                    "duration": 0.06535949999999957
                },
                {
                    "name": "D5",
                    "midi": 74,
                    "time": 200.0000699999989,
                    "velocity": 0.3464566929133858,
                    "duration": 0.06535949999999957
                },
                {
                    "name": "F#5",
                    "midi": 78,
                    "time": 200.0000699999989,
                    "velocity": 0.41732283464566927,
                    "duration": 0.06535949999999957
                },
                {
                    "name": "G5",
                    "midi": 79,
                    "time": 200.2615079999989,
                    "velocity": 0.4645669291338583,
                    "duration": 0.06535949999999957
                },
                {
                    "name": "E5",
                    "midi": 76,
                    "time": 200.2615079999989,
                    "velocity": 0.3858267716535433,
                    "duration": 0.06535949999999957
                },
                {
                    "name": "C#5",
                    "midi": 73,
                    "time": 200.5229459999989,
                    "velocity": 0.3464566929133858,
                    "duration": 0.06535949999999957
                },
                {
                    "name": "E5",
                    "midi": 76,
                    "time": 200.5229459999989,
                    "velocity": 0.3464566929133858,
                    "duration": 0.06535949999999957
                },
                {
                    "name": "E5",
                    "midi": 76,
                    "time": 200.7843839999989,
                    "velocity": 0.3937007874015748,
                    "duration": 0.5228759999999966
                },
                {
                    "name": "C#5",
                    "midi": 73,
                    "time": 200.7843839999989,
                    "velocity": 0.33070866141732286,
                    "duration": 0.5228759999999966
                },
                {
                    "name": "F#5",
                    "midi": 78,
                    "time": 201.3072599999989,
                    "velocity": 0.31496062992125984,
                    "duration": 0.2614379999999983
                },
                {
                    "name": "D5",
                    "midi": 74,
                    "time": 201.3072599999989,
                    "velocity": 0.25984251968503935,
                    "duration": 0.2614379999999983
                },
                {
                    "name": "D5",
                    "midi": 74,
                    "time": 201.5686979999989,
                    "velocity": 0.47244094488188976,
                    "duration": 0.06535949999999957
                },
                {
                    "name": "F#5",
                    "midi": 78,
                    "time": 201.6340574999989,
                    "velocity": 0.4015748031496063,
                    "duration": 0.06535949999999957
                },
                {
                    "name": "A5",
                    "midi": 81,
                    "time": 201.6994169999989,
                    "velocity": 0.4094488188976378,
                    "duration": 0.06535949999999957
                },
                {
                    "name": "D6",
                    "midi": 86,
                    "time": 201.7647764999989,
                    "velocity": 0.4094488188976378,
                    "duration": 0.06535949999999957
                },
                {
                    "name": "C5",
                    "midi": 72,
                    "time": 201.8301359999989,
                    "velocity": 0.5275590551181102,
                    "duration": 0.7843139999999948
                },
                {
                    "name": "C6",
                    "midi": 84,
                    "time": 202.6144499999989,
                    "velocity": 0.47244094488188976,
                    "duration": 0.06535949999999957
                },
                {
                    "name": "A5",
                    "midi": 81,
                    "time": 202.6798094999989,
                    "velocity": 0.4015748031496063,
                    "duration": 0.06535949999999957
                },
                {
                    "name": "F#5",
                    "midi": 78,
                    "time": 202.7451689999989,
                    "velocity": 0.4094488188976378,
                    "duration": 0.06535949999999957
                },
                {
                    "name": "C5",
                    "midi": 72,
                    "time": 202.8105284999989,
                    "velocity": 0.4094488188976378,
                    "duration": 0.06535949999999957
                },
                {
                    "name": "B4",
                    "midi": 71,
                    "time": 202.8758879999989,
                    "velocity": 0.5275590551181102,
                    "duration": 0.7843139999999948
                },
                {
                    "name": "B5",
                    "midi": 83,
                    "time": 203.6602019999989,
                    "velocity": 0.47244094488188976,
                    "duration": 0.08714599999998995
                },
                {
                    "name": "C#6",
                    "midi": 85,
                    "time": 203.74734799999888,
                    "velocity": 0.4409448818897638,
                    "duration": 0.08714599999998995
                },
                {
                    "name": "D6",
                    "midi": 86,
                    "time": 203.83449399999887,
                    "velocity": 0.4409448818897638,
                    "duration": 0.08714599999998995
                },
                {
                    "name": "C#6",
                    "midi": 85,
                    "time": 203.92163999999886,
                    "velocity": 0.47244094488188976,
                    "duration": 0.08714599999998995
                },
                {
                    "name": "B5",
                    "midi": 83,
                    "time": 204.00878599999885,
                    "velocity": 0.4330708661417323,
                    "duration": 0.08714599999998995
                },
                {
                    "name": "A5",
                    "midi": 81,
                    "time": 204.09593199999884,
                    "velocity": 0.4015748031496063,
                    "duration": 0.08714599999998995
                },
                {
                    "name": "G5",
                    "midi": 79,
                    "time": 204.18307799999883,
                    "velocity": 0.4645669291338583,
                    "duration": 0.08714599999998995
                },
                {
                    "name": "F#5",
                    "midi": 78,
                    "time": 204.27022399999882,
                    "velocity": 0.4015748031496063,
                    "duration": 0.08714599999998995
                },
                {
                    "name": "E5",
                    "midi": 76,
                    "time": 204.3573699999988,
                    "velocity": 0.4015748031496063,
                    "duration": 0.08714599999998995
                },
                {
                    "name": "D5",
                    "midi": 74,
                    "time": 204.4445159999988,
                    "velocity": 0.4330708661417323,
                    "duration": 0.08714599999998995
                },
                {
                    "name": "C#5",
                    "midi": 73,
                    "time": 204.5316619999988,
                    "velocity": 0.3858267716535433,
                    "duration": 0.08714599999998995
                },
                {
                    "name": "B4",
                    "midi": 71,
                    "time": 204.61880799999878,
                    "velocity": 0.3858267716535433,
                    "duration": 0.08714599999998995
                },
                {
                    "name": "A4",
                    "midi": 69,
                    "time": 204.70595399999877,
                    "velocity": 0.4094488188976378,
                    "duration": 0.06535949999999957
                },
                {
                    "name": "G4",
                    "midi": 67,
                    "time": 204.77131349999877,
                    "velocity": 0.3858267716535433,
                    "duration": 0.06535949999999957
                },
                {
                    "name": "F#4",
                    "midi": 66,
                    "time": 204.83667299999877,
                    "velocity": 0.3858267716535433,
                    "duration": 0.06535949999999957
                },
                {
                    "name": "E4",
                    "midi": 64,
                    "time": 204.90203249999877,
                    "velocity": 0.3779527559055118,
                    "duration": 0.06535949999999957
                },
                {
                    "name": "D4",
                    "midi": 62,
                    "time": 204.96739199999877,
                    "velocity": 0.47244094488188976,
                    "duration": 0.5228759999999966
                },
                {
                    "name": "A3",
                    "midi": 57,
                    "time": 205.75170599999876,
                    "velocity": 0.41732283464566927,
                    "duration": 0.2614379999999983
                },
                {
                    "name": "D4",
                    "midi": 62,
                    "time": 206.01314399999876,
                    "velocity": 0.47244094488188976,
                    "duration": 0.13071899999999914
                },
                {
                    "name": "C#4",
                    "midi": 61,
                    "time": 206.14386299999876,
                    "velocity": 0.4094488188976378,
                    "duration": 0.09803924999999936
                },
                {
                    "name": "E4",
                    "midi": 64,
                    "time": 206.27458199999876,
                    "velocity": 0.47244094488188976,
                    "duration": 0.13071899999999914
                },
                {
                    "name": "D4",
                    "midi": 62,
                    "time": 206.40530099999876,
                    "velocity": 0.4251968503937008,
                    "duration": 0.09803924999999936
                },
                {
                    "name": "F#4",
                    "midi": 66,
                    "time": 206.53601999999876,
                    "velocity": 0.47244094488188976,
                    "duration": 0.13071899999999914
                },
                {
                    "name": "E4",
                    "midi": 64,
                    "time": 206.66673899999876,
                    "velocity": 0.4251968503937008,
                    "duration": 0.09803924999999936
                },
                {
                    "name": "G4",
                    "midi": 67,
                    "time": 206.79745799999876,
                    "velocity": 0.47244094488188976,
                    "duration": 0.13071899999999914
                },
                {
                    "name": "F#4",
                    "midi": 66,
                    "time": 206.92817699999875,
                    "velocity": 0.3858267716535433,
                    "duration": 0.09803924999999936
                },
                {
                    "name": "F#4",
                    "midi": 66,
                    "time": 207.05889599999875,
                    "velocity": 0.44881889763779526,
                    "duration": 0.5228759999999966
                },
                {
                    "name": "D4",
                    "midi": 62,
                    "time": 207.05889599999875,
                    "velocity": 0.3779527559055118,
                    "duration": 0.5228759999999966
                },
                {
                    "name": "E4",
                    "midi": 64,
                    "time": 207.58177199999875,
                    "velocity": 0.3937007874015748,
                    "duration": 0.1960784999999987
                },
                {
                    "name": "C#4",
                    "midi": 61,
                    "time": 207.58177199999875,
                    "velocity": 0.33070866141732286,
                    "duration": 0.1960784999999987
                },
                {
                    "name": "A3",
                    "midi": 57,
                    "time": 207.84320999999875,
                    "velocity": 0.41732283464566927,
                    "duration": 0.2614379999999983
                },
                {
                    "name": "E4",
                    "midi": 64,
                    "time": 208.10464799999875,
                    "velocity": 0.47244094488188976,
                    "duration": 0.13071899999999914
                },
                {
                    "name": "D#4",
                    "midi": 63,
                    "time": 208.23536699999875,
                    "velocity": 0.4094488188976378,
                    "duration": 0.09803924999999936
                },
                {
                    "name": "F#4",
                    "midi": 66,
                    "time": 208.36608599999875,
                    "velocity": 0.47244094488188976,
                    "duration": 0.13071899999999914
                },
                {
                    "name": "E4",
                    "midi": 64,
                    "time": 208.49680499999874,
                    "velocity": 0.4251968503937008,
                    "duration": 0.09803924999999936
                },
                {
                    "name": "G4",
                    "midi": 67,
                    "time": 208.62752399999874,
                    "velocity": 0.47244094488188976,
                    "duration": 0.13071899999999914
                },
                {
                    "name": "F#4",
                    "midi": 66,
                    "time": 208.75824299999874,
                    "velocity": 0.4251968503937008,
                    "duration": 0.09803924999999936
                },
                {
                    "name": "A4",
                    "midi": 69,
                    "time": 208.88896199999874,
                    "velocity": 0.47244094488188976,
                    "duration": 0.13071899999999914
                },
                {
                    "name": "G4",
                    "midi": 67,
                    "time": 209.01968099999874,
                    "velocity": 0.3858267716535433,
                    "duration": 0.09803924999999936
                },
                {
                    "name": "G4",
                    "midi": 67,
                    "time": 209.15039999999874,
                    "velocity": 0.44881889763779526,
                    "duration": 0.5228759999999966
                },
                {
                    "name": "E4",
                    "midi": 64,
                    "time": 209.15039999999874,
                    "velocity": 0.3779527559055118,
                    "duration": 0.5228759999999966
                },
                {
                    "name": "F#4",
                    "midi": 66,
                    "time": 209.67327599999874,
                    "velocity": 0.3937007874015748,
                    "duration": 0.1960784999999987
                },
                {
                    "name": "D4",
                    "midi": 62,
                    "time": 209.67327599999874,
                    "velocity": 0.33070866141732286,
                    "duration": 0.1960784999999987
                },
                {
                    "name": "D4",
                    "midi": 62,
                    "time": 209.93471399999873,
                    "velocity": 0.4566929133858268,
                    "duration": 0.2614379999999983
                },
                {
                    "name": "G4",
                    "midi": 67,
                    "time": 210.19615199999873,
                    "velocity": 0.5196850393700787,
                    "duration": 0.13071899999999914
                },
                {
                    "name": "F#4",
                    "midi": 66,
                    "time": 210.32687099999873,
                    "velocity": 0.44881889763779526,
                    "duration": 0.09803924999999936
                },
                {
                    "name": "A4",
                    "midi": 69,
                    "time": 210.45758999999873,
                    "velocity": 0.5196850393700787,
                    "duration": 0.13071899999999914
                },
                {
                    "name": "G4",
                    "midi": 67,
                    "time": 210.58830899999873,
                    "velocity": 0.4645669291338583,
                    "duration": 0.09803924999999936
                },
                {
                    "name": "B4",
                    "midi": 71,
                    "time": 210.71902799999873,
                    "velocity": 0.5196850393700787,
                    "duration": 0.13071899999999914
                },
                {
                    "name": "A4",
                    "midi": 69,
                    "time": 210.84974699999873,
                    "velocity": 0.4645669291338583,
                    "duration": 0.09803924999999936
                },
                {
                    "name": "D5",
                    "midi": 74,
                    "time": 210.98046599999873,
                    "velocity": 0.5196850393700787,
                    "duration": 0.13071899999999914
                },
                {
                    "name": "C#5",
                    "midi": 73,
                    "time": 211.11118499999873,
                    "velocity": 0.41732283464566927,
                    "duration": 0.09803924999999936
                },
                {
                    "name": "B4",
                    "midi": 71,
                    "time": 211.24190399999873,
                    "velocity": 0.4881889763779528,
                    "duration": 0.13071899999999914
                },
                {
                    "name": "B4",
                    "midi": 71,
                    "time": 211.50334199999872,
                    "velocity": 0.4881889763779528,
                    "duration": 0.13071899999999914
                },
                {
                    "name": "D5",
                    "midi": 74,
                    "time": 211.63406099999872,
                    "velocity": 0.44881889763779526,
                    "duration": 0.13071899999999914
                },
                {
                    "name": "A4",
                    "midi": 69,
                    "time": 211.76477999999872,
                    "velocity": 0.4881889763779528,
                    "duration": 0.13071899999999914
                },
                {
                    "name": "G4",
                    "midi": 67,
                    "time": 212.28765599999872,
                    "velocity": 0.4330708661417323,
                    "duration": 0.032679749999999785
                },
                {
                    "name": "F#4",
                    "midi": 66,
                    "time": 212.32033574999872,
                    "velocity": 0.3779527559055118,
                    "duration": 0.032679749999999785
                },
                {
                    "name": "G4",
                    "midi": 67,
                    "time": 212.35301549999872,
                    "velocity": 0.4881889763779528,
                    "duration": 0.06535949999999957
                },
                {
                    "name": "G4",
                    "midi": 67,
                    "time": 212.54909399999872,
                    "velocity": 0.4881889763779528,
                    "duration": 0.13071899999999914
                },
                {
                    "name": "B4",
                    "midi": 71,
                    "time": 212.67981299999872,
                    "velocity": 0.44881889763779526,
                    "duration": 0.13071899999999914
                },
                {
                    "name": "F#4",
                    "midi": 66,
                    "time": 212.81053199999872,
                    "velocity": 0.4881889763779528,
                    "duration": 0.13071899999999914
                },
                {
                    "name": "B4",
                    "midi": 71,
                    "time": 213.3334079999987,
                    "velocity": 0.47244094488188976,
                    "duration": 0.032679749999999785
                },
                {
                    "name": "A4",
                    "midi": 69,
                    "time": 213.3660877499987,
                    "velocity": 0.4094488188976378,
                    "duration": 0.032679749999999785
                },
                {
                    "name": "B4",
                    "midi": 71,
                    "time": 213.3987674999987,
                    "velocity": 0.5354330708661418,
                    "duration": 0.06535949999999957
                },
                {
                    "name": "B4",
                    "midi": 71,
                    "time": 213.5948459999987,
                    "velocity": 0.5354330708661418,
                    "duration": 0.13071899999999914
                },
                {
                    "name": "D5",
                    "midi": 74,
                    "time": 213.7255649999987,
                    "velocity": 0.4881889763779528,
                    "duration": 0.13071899999999914
                },
                {
                    "name": "A4",
                    "midi": 69,
                    "time": 213.8562839999987,
                    "velocity": 0.5354330708661418,
                    "duration": 0.13071899999999914
                },
                {
                    "name": "G4",
                    "midi": 67,
                    "time": 214.3791599999987,
                    "velocity": 0.4330708661417323,
                    "duration": 0.032679749999999785
                },
                {
                    "name": "F#4",
                    "midi": 66,
                    "time": 214.4118397499987,
                    "velocity": 0.3779527559055118,
                    "duration": 0.032679749999999785
                },
                {
                    "name": "G4",
                    "midi": 67,
                    "time": 214.4445194999987,
                    "velocity": 0.4881889763779528,
                    "duration": 0.06535949999999957
                },
                {
                    "name": "G4",
                    "midi": 67,
                    "time": 214.6405979999987,
                    "velocity": 0.4881889763779528,
                    "duration": 0.13071899999999914
                },
                {
                    "name": "B4",
                    "midi": 71,
                    "time": 214.7713169999987,
                    "velocity": 0.44881889763779526,
                    "duration": 0.13071899999999914
                },
                {
                    "name": "F#4",
                    "midi": 66,
                    "time": 214.9020359999987,
                    "velocity": 0.4881889763779528,
                    "duration": 0.13071899999999914
                },
                {
                    "name": "D#4",
                    "midi": 63,
                    "time": 215.4249119999987,
                    "velocity": 0.4330708661417323,
                    "duration": 0.13071899999999914
                },
                {
                    "name": "E4",
                    "midi": 64,
                    "time": 215.5556309999987,
                    "velocity": 0.4330708661417323,
                    "duration": 0.13071899999999914
                },
                {
                    "name": "F#4",
                    "midi": 66,
                    "time": 215.6863499999987,
                    "velocity": 0.4566929133858268,
                    "duration": 0.13071899999999914
                },
                {
                    "name": "G4",
                    "midi": 67,
                    "time": 215.8170689999987,
                    "velocity": 0.4566929133858268,
                    "duration": 0.13071899999999914
                },
                {
                    "name": "A4",
                    "midi": 69,
                    "time": 215.9477879999987,
                    "velocity": 0.4881889763779528,
                    "duration": 0.13071899999999914
                },
                {
                    "name": "B4",
                    "midi": 71,
                    "time": 216.0785069999987,
                    "velocity": 0.4330708661417323,
                    "duration": 0.13071899999999914
                },
                {
                    "name": "G4",
                    "midi": 67,
                    "time": 216.2092259999987,
                    "velocity": 0.48031496062992124,
                    "duration": 0.13071899999999914
                },
                {
                    "name": "E4",
                    "midi": 64,
                    "time": 216.3399449999987,
                    "velocity": 0.4015748031496063,
                    "duration": 0.13071899999999914
                },
                {
                    "name": "D4",
                    "midi": 62,
                    "time": 216.4706639999987,
                    "velocity": 0.44881889763779526,
                    "duration": 1.0457519999999931
                },
                {
                    "name": "C#4",
                    "midi": 61,
                    "time": 217.51641599999869,
                    "velocity": 0.3937007874015748,
                    "duration": 0.2614379999999983
                },
                {
                    "name": "A3",
                    "midi": 57,
                    "time": 218.30072999999868,
                    "velocity": 0.5826771653543307,
                    "duration": 0.06535949999999957
                },
                {
                    "name": "C#4",
                    "midi": 61,
                    "time": 218.36608949999868,
                    "velocity": 0.4645669291338583,
                    "duration": 0.06535949999999957
                },
                {
                    "name": "E4",
                    "midi": 64,
                    "time": 218.43144899999868,
                    "velocity": 0.4645669291338583,
                    "duration": 0.06535949999999957
                },
                {
                    "name": "G4",
                    "midi": 67,
                    "time": 218.49680849999868,
                    "velocity": 0.4645669291338583,
                    "duration": 0.06535949999999957
                },
                {
                    "name": "E4",
                    "midi": 64,
                    "time": 218.56216799999868,
                    "velocity": 0.6062992125984252,
                    "duration": 0.2614379999999983
                },
                {
                    "name": "E4",
                    "midi": 64,
                    "time": 218.82360599999868,
                    "velocity": 0.6220472440944882,
                    "duration": 0.06535949999999957
                },
                {
                    "name": "G4",
                    "midi": 67,
                    "time": 218.88896549999868,
                    "velocity": 0.5511811023622047,
                    "duration": 0.06535949999999957
                },
                {
                    "name": "C#5",
                    "midi": 73,
                    "time": 218.95432499999868,
                    "velocity": 0.5511811023622047,
                    "duration": 0.06535949999999957
                },
                {
                    "name": "E5",
                    "midi": 76,
                    "time": 219.01968449999868,
                    "velocity": 0.5511811023622047,
                    "duration": 0.06535949999999957
                },
                {
                    "name": "C#5",
                    "midi": 73,
                    "time": 219.08504399999867,
                    "velocity": 0.6614173228346457,
                    "duration": 0.2614379999999983
                },
                {
                    "name": "G4",
                    "midi": 67,
                    "time": 219.34648199999867,
                    "velocity": 0.6850393700787402,
                    "duration": 0.06535949999999957
                },
                {
                    "name": "C#5",
                    "midi": 73,
                    "time": 219.41184149999867,
                    "velocity": 0.6141732283464567,
                    "duration": 0.06535949999999957
                },
                {
                    "name": "E5",
                    "midi": 76,
                    "time": 219.47720099999867,
                    "velocity": 0.5984251968503937,
                    "duration": 0.06535949999999957
                },
                {
                    "name": "G5",
                    "midi": 79,
                    "time": 219.54256049999867,
                    "velocity": 0.6141732283464567,
                    "duration": 0.06535949999999957
                },
                {
                    "name": "E5",
                    "midi": 76,
                    "time": 219.60791999999867,
                    "velocity": 0.7559055118110236,
                    "duration": 0.2614379999999983
                },
                {
                    "name": "G4",
                    "midi": 67,
                    "time": 220.39223399999867,
                    "velocity": 0.48031496062992124,
                    "duration": 0.06535949999999957
                },
                {
                    "name": "E4",
                    "midi": 64,
                    "time": 220.45759349999867,
                    "velocity": 0.3937007874015748,
                    "duration": 0.06535949999999957
                },
                {
                    "name": "C#4",
                    "midi": 61,
                    "time": 220.52295299999867,
                    "velocity": 0.3937007874015748,
                    "duration": 0.06535949999999957
                },
                {
                    "name": "A3",
                    "midi": 57,
                    "time": 220.58831249999866,
                    "velocity": 0.3937007874015748,
                    "duration": 0.06535949999999957
                },
                {
                    "name": "G3",
                    "midi": 55,
                    "time": 220.65367199999866,
                    "velocity": 0.4881889763779528,
                    "duration": 1.0457519999999931
                },
                {
                    "name": "F#3",
                    "midi": 54,
                    "time": 221.69942399999866,
                    "velocity": 0.48031496062992124,
                    "duration": 0.13071899999999914
                },
                {
                    "name": "D4",
                    "midi": 62,
                    "time": 221.83014299999866,
                    "velocity": 0.4330708661417323,
                    "duration": 0.13071899999999914
                },
                {
                    "name": "C#4",
                    "midi": 61,
                    "time": 221.96086199999866,
                    "velocity": 0.3858267716535433,
                    "duration": 0.13071899999999914
                },
                {
                    "name": "D4",
                    "midi": 62,
                    "time": 222.09158099999865,
                    "velocity": 0.4251968503937008,
                    "duration": 0.13071899999999914
                },
                {
                    "name": "E4",
                    "midi": 64,
                    "time": 222.22229999999865,
                    "velocity": 0.4645669291338583,
                    "duration": 0.13071899999999914
                },
                {
                    "name": "D4",
                    "midi": 62,
                    "time": 222.35301899999865,
                    "velocity": 0.4330708661417323,
                    "duration": 0.13071899999999914
                },
                {
                    "name": "C#4",
                    "midi": 61,
                    "time": 222.48373799999865,
                    "velocity": 0.3700787401574803,
                    "duration": 0.13071899999999914
                },
                {
                    "name": "D4",
                    "midi": 62,
                    "time": 222.61445699999865,
                    "velocity": 0.4409448818897638,
                    "duration": 0.13071899999999914
                },
                {
                    "name": "C4",
                    "midi": 60,
                    "time": 222.74517599999865,
                    "velocity": 0.4881889763779528,
                    "duration": 1.0457519999999931
                },
                {
                    "name": "B3",
                    "midi": 59,
                    "time": 223.79092799999864,
                    "velocity": 0.48031496062992124,
                    "duration": 0.13071899999999914
                },
                {
                    "name": "E4",
                    "midi": 64,
                    "time": 223.92164699999864,
                    "velocity": 0.4330708661417323,
                    "duration": 0.13071899999999914
                },
                {
                    "name": "D#4",
                    "midi": 63,
                    "time": 224.05236599999864,
                    "velocity": 0.3858267716535433,
                    "duration": 0.13071899999999914
                },
                {
                    "name": "E4",
                    "midi": 64,
                    "time": 224.18308499999864,
                    "velocity": 0.4251968503937008,
                    "duration": 0.13071899999999914
                },
                {
                    "name": "F#4",
                    "midi": 66,
                    "time": 224.31380399999864,
                    "velocity": 0.4645669291338583,
                    "duration": 0.13071899999999914
                },
                {
                    "name": "E4",
                    "midi": 64,
                    "time": 224.44452299999864,
                    "velocity": 0.4330708661417323,
                    "duration": 0.13071899999999914
                },
                {
                    "name": "D#4",
                    "midi": 63,
                    "time": 224.57524199999864,
                    "velocity": 0.3700787401574803,
                    "duration": 0.13071899999999914
                },
                {
                    "name": "E4",
                    "midi": 64,
                    "time": 224.70596099999864,
                    "velocity": 0.4409448818897638,
                    "duration": 0.13071899999999914
                },
                {
                    "name": "D4",
                    "midi": 62,
                    "time": 224.83667999999864,
                    "velocity": 0.4881889763779528,
                    "duration": 1.0457519999999931
                },
                {
                    "name": "C#4",
                    "midi": 61,
                    "time": 225.88243199999863,
                    "velocity": 0.48031496062992124,
                    "duration": 0.13071899999999914
                },
                {
                    "name": "A4",
                    "midi": 69,
                    "time": 226.01315099999863,
                    "velocity": 0.4330708661417323,
                    "duration": 0.13071899999999914
                },
                {
                    "name": "G#4",
                    "midi": 68,
                    "time": 226.14386999999863,
                    "velocity": 0.3858267716535433,
                    "duration": 0.13071899999999914
                },
                {
                    "name": "A4",
                    "midi": 69,
                    "time": 226.27458899999863,
                    "velocity": 0.4251968503937008,
                    "duration": 0.13071899999999914
                },
                {
                    "name": "B4",
                    "midi": 71,
                    "time": 226.40530799999863,
                    "velocity": 0.4645669291338583,
                    "duration": 0.13071899999999914
                },
                {
                    "name": "A4",
                    "midi": 69,
                    "time": 226.53602699999863,
                    "velocity": 0.4330708661417323,
                    "duration": 0.13071899999999914
                },
                {
                    "name": "G#4",
                    "midi": 68,
                    "time": 226.66674599999862,
                    "velocity": 0.3700787401574803,
                    "duration": 0.13071899999999914
                },
                {
                    "name": "A4",
                    "midi": 69,
                    "time": 226.79746499999862,
                    "velocity": 0.4409448818897638,
                    "duration": 0.13071899999999914
                },
                {
                    "name": "G#4",
                    "midi": 68,
                    "time": 226.92818399999862,
                    "velocity": 0.4881889763779528,
                    "duration": 0.2614379999999983
                },
                {
                    "name": "D5",
                    "midi": 74,
                    "time": 227.18962199999862,
                    "velocity": 0.44881889763779526,
                    "duration": 0.13071899999999914
                },
                {
                    "name": "G#4",
                    "midi": 68,
                    "time": 227.71249799999862,
                    "velocity": 0.4881889763779528,
                    "duration": 0.2614379999999983
                },
                {
                    "name": "A4",
                    "midi": 69,
                    "time": 227.97393599999862,
                    "velocity": 0.4881889763779528,
                    "duration": 0.13071899999999914
                },
                {
                    "name": "A4",
                    "midi": 69,
                    "time": 228.23537399999861,
                    "velocity": 0.4881889763779528,
                    "duration": 0.13071899999999914
                },
                {
                    "name": "E5",
                    "midi": 76,
                    "time": 228.3660929999986,
                    "velocity": 0.44881889763779526,
                    "duration": 0.13071899999999914
                },
                {
                    "name": "A4",
                    "midi": 69,
                    "time": 228.4968119999986,
                    "velocity": 0.4881889763779528,
                    "duration": 0.1960784999999987
                },
                {
                    "name": "A4",
                    "midi": 69,
                    "time": 228.7582499999986,
                    "velocity": 0.44881889763779526,
                    "duration": 0.2614379999999983
                },
                {
                    "name": "G#4",
                    "midi": 68,
                    "time": 229.0196879999986,
                    "velocity": 0.4881889763779528,
                    "duration": 0.2614379999999983
                },
                {
                    "name": "D5",
                    "midi": 74,
                    "time": 229.2811259999986,
                    "velocity": 0.44881889763779526,
                    "duration": 0.13071899999999914
                },
                {
                    "name": "G#4",
                    "midi": 68,
                    "time": 229.8040019999986,
                    "velocity": 0.4881889763779528,
                    "duration": 0.2614379999999983
                },
                {
                    "name": "A4",
                    "midi": 69,
                    "time": 230.0654399999986,
                    "velocity": 0.4881889763779528,
                    "duration": 0.13071899999999914
                },
                {
                    "name": "A4",
                    "midi": 69,
                    "time": 230.3268779999986,
                    "velocity": 0.4881889763779528,
                    "duration": 0.13071899999999914
                },
                {
                    "name": "E5",
                    "midi": 76,
                    "time": 230.4575969999986,
                    "velocity": 0.44881889763779526,
                    "duration": 0.13071899999999914
                },
                {
                    "name": "A4",
                    "midi": 69,
                    "time": 230.5883159999986,
                    "velocity": 0.4881889763779528,
                    "duration": 0.1960784999999987
                },
                {
                    "name": "G4",
                    "midi": 67,
                    "time": 230.8497539999986,
                    "velocity": 0.3700787401574803,
                    "duration": 0.032679749999999785
                },
                {
                    "name": "A4",
                    "midi": 69,
                    "time": 230.8824337499986,
                    "velocity": 0.3464566929133858,
                    "duration": 0.032679749999999785
                },
                {
                    "name": "G4",
                    "midi": 67,
                    "time": 230.9151134999986,
                    "velocity": 0.44881889763779526,
                    "duration": 0.1960784999999987
                },
                {
                    "name": "F#4",
                    "midi": 66,
                    "time": 231.1111919999986,
                    "velocity": 0.4881889763779528,
                    "duration": 0.12527237500000865
                },
                {
                    "name": "A5",
                    "midi": 81,
                    "time": 231.3726299999986,
                    "velocity": 0.5039370078740157,
                    "duration": 0.13071899999999914
                },
                {
                    "name": "D5",
                    "midi": 74,
                    "time": 231.8955059999986,
                    "velocity": 0.4881889763779528,
                    "duration": 0.2614379999999983
                },
                {
                    "name": "C#5",
                    "midi": 73,
                    "time": 232.1569439999986,
                    "velocity": 0.4881889763779528,
                    "duration": 0.13071899999999914
                },
                {
                    "name": "C#5",
                    "midi": 73,
                    "time": 232.4183819999986,
                    "velocity": 0.4881889763779528,
                    "duration": 0.13071899999999914
                },
                {
                    "name": "A5",
                    "midi": 81,
                    "time": 232.5491009999986,
                    "velocity": 0.44881889763779526,
                    "duration": 0.13071899999999914
                },
                {
                    "name": "C#5",
                    "midi": 73,
                    "time": 232.67981999999859,
                    "velocity": 0.4881889763779528,
                    "duration": 0.1960784999999987
                },
                {
                    "name": "C#5",
                    "midi": 73,
                    "time": 232.94125799999858,
                    "velocity": 0.44881889763779526,
                    "duration": 0.2614379999999983
                },
                {
                    "name": "D5",
                    "midi": 74,
                    "time": 233.20269599999858,
                    "velocity": 0.4881889763779528,
                    "duration": 0.13071899999999914
                },
                {
                    "name": "D5",
                    "midi": 74,
                    "time": 233.46413399999858,
                    "velocity": 0.4881889763779528,
                    "duration": 0.13071899999999914
                },
                {
                    "name": "A5",
                    "midi": 81,
                    "time": 233.59485299999858,
                    "velocity": 0.44881889763779526,
                    "duration": 0.13071899999999914
                },
                {
                    "name": "D5",
                    "midi": 74,
                    "time": 233.72557199999858,
                    "velocity": 0.4881889763779528,
                    "duration": 0.1960784999999987
                },
                {
                    "name": "D5",
                    "midi": 74,
                    "time": 233.98700999999858,
                    "velocity": 0.44881889763779526,
                    "duration": 0.2614379999999983
                },
                {
                    "name": "E5",
                    "midi": 76,
                    "time": 234.24844799999858,
                    "velocity": 0.4881889763779528,
                    "duration": 0.13071899999999914
                },
                {
                    "name": "E5",
                    "midi": 76,
                    "time": 234.50988599999857,
                    "velocity": 0.4881889763779528,
                    "duration": 0.13071899999999914
                },
                {
                    "name": "A5",
                    "midi": 81,
                    "time": 234.64060499999857,
                    "velocity": 0.44881889763779526,
                    "duration": 0.13071899999999914
                },
                {
                    "name": "E5",
                    "midi": 76,
                    "time": 234.77132399999857,
                    "velocity": 0.4881889763779528,
                    "duration": 0.1960784999999987
                },
                {
                    "name": "G5",
                    "midi": 79,
                    "time": 235.03276199999857,
                    "velocity": 0.44881889763779526,
                    "duration": 0.2614379999999983
                },
                {
                    "name": "F#5",
                    "midi": 78,
                    "time": 235.29419999999857,
                    "velocity": 0.5039370078740157,
                    "duration": 0.13071899999999914
                },
                {
                    "name": "G5",
                    "midi": 79,
                    "time": 235.42491899999857,
                    "velocity": 0.44881889763779526,
                    "duration": 0.13071899999999914
                },
                {
                    "name": "A5",
                    "midi": 81,
                    "time": 235.55563799999857,
                    "velocity": 0.44881889763779526,
                    "duration": 0.13071899999999914
                },
                {
                    "name": "F#5",
                    "midi": 78,
                    "time": 235.68635699999857,
                    "velocity": 0.44881889763779526,
                    "duration": 0.13071899999999914
                },
                {
                    "name": "E5",
                    "midi": 76,
                    "time": 235.81707599999856,
                    "velocity": 0.4881889763779528,
                    "duration": 0.13071899999999914
                },
                {
                    "name": "D5",
                    "midi": 74,
                    "time": 235.94779499999856,
                    "velocity": 0.44881889763779526,
                    "duration": 0.13071899999999914
                },
                {
                    "name": "C#5",
                    "midi": 73,
                    "time": 236.07851399999856,
                    "velocity": 0.44881889763779526,
                    "duration": 0.13071899999999914
                },
                {
                    "name": "B4",
                    "midi": 71,
                    "time": 236.20923299999856,
                    "velocity": 0.44881889763779526,
                    "duration": 0.13071899999999914
                },
                {
                    "name": "A4",
                    "midi": 69,
                    "time": 236.33995199999856,
                    "velocity": 0.5039370078740157,
                    "duration": 0.13071899999999914
                },
                {
                    "name": "G#4",
                    "midi": 68,
                    "time": 236.47067099999856,
                    "velocity": 0.41732283464566927,
                    "duration": 0.13071899999999914
                },
                {
                    "name": "A4",
                    "midi": 69,
                    "time": 236.60138999999856,
                    "velocity": 0.44881889763779526,
                    "duration": 0.13071899999999914
                },
                {
                    "name": "B4",
                    "midi": 71,
                    "time": 236.73210899999856,
                    "velocity": 0.41732283464566927,
                    "duration": 0.13071899999999914
                },
                {
                    "name": "A4",
                    "midi": 69,
                    "time": 236.86282799999856,
                    "velocity": 0.44881889763779526,
                    "duration": 0.13071899999999914
                },
                {
                    "name": "G4",
                    "midi": 67,
                    "time": 236.99354699999856,
                    "velocity": 0.4015748031496063,
                    "duration": 0.13071899999999914
                },
                {
                    "name": "F#4",
                    "midi": 66,
                    "time": 237.12426599999856,
                    "velocity": 0.4015748031496063,
                    "duration": 0.13071899999999914
                },
                {
                    "name": "E4",
                    "midi": 64,
                    "time": 237.25498499999856,
                    "velocity": 0.4015748031496063,
                    "duration": 0.13071899999999914
                },
                {
                    "name": "F#4",
                    "midi": 66,
                    "time": 237.38570399999855,
                    "velocity": 0.4409448818897638,
                    "duration": 0.13071899999999914
                },
                {
                    "name": "G4",
                    "midi": 67,
                    "time": 237.51642299999855,
                    "velocity": 0.3700787401574803,
                    "duration": 0.13071899999999914
                },
                {
                    "name": "A4",
                    "midi": 69,
                    "time": 237.64714199999855,
                    "velocity": 0.3700787401574803,
                    "duration": 0.13071899999999914
                },
                {
                    "name": "F#4",
                    "midi": 66,
                    "time": 237.77786099999855,
                    "velocity": 0.3700787401574803,
                    "duration": 0.13071899999999914
                },
                {
                    "name": "E4",
                    "midi": 64,
                    "time": 237.90857999999855,
                    "velocity": 0.4330708661417323,
                    "duration": 0.13071899999999914
                },
                {
                    "name": "D4",
                    "midi": 62,
                    "time": 238.03929899999855,
                    "velocity": 0.4015748031496063,
                    "duration": 0.13071899999999914
                },
                {
                    "name": "C#4",
                    "midi": 61,
                    "time": 238.17001799999855,
                    "velocity": 0.4015748031496063,
                    "duration": 0.13071899999999914
                },
                {
                    "name": "B3",
                    "midi": 59,
                    "time": 238.30073699999855,
                    "velocity": 0.4015748031496063,
                    "duration": 0.13071899999999914
                },
                {
                    "name": "F#5",
                    "midi": 78,
                    "time": 239.47720799999854,
                    "velocity": 0.5039370078740157,
                    "duration": 0.13071899999999914
                },
                {
                    "name": "G5",
                    "midi": 79,
                    "time": 239.60792699999854,
                    "velocity": 0.44881889763779526,
                    "duration": 0.13071899999999914
                },
                {
                    "name": "A5",
                    "midi": 81,
                    "time": 239.73864599999854,
                    "velocity": 0.44881889763779526,
                    "duration": 0.13071899999999914
                },
                {
                    "name": "F#5",
                    "midi": 78,
                    "time": 239.86936499999854,
                    "velocity": 0.44881889763779526,
                    "duration": 0.13071899999999914
                },
                {
                    "name": "E5",
                    "midi": 76,
                    "time": 240.00008399999854,
                    "velocity": 0.4881889763779528,
                    "duration": 0.13071899999999914
                },
                {
                    "name": "D5",
                    "midi": 74,
                    "time": 240.13080299999854,
                    "velocity": 0.44881889763779526,
                    "duration": 0.13071899999999914
                },
                {
                    "name": "C#5",
                    "midi": 73,
                    "time": 240.26152199999854,
                    "velocity": 0.44881889763779526,
                    "duration": 0.13071899999999914
                },
                {
                    "name": "D5",
                    "midi": 74,
                    "time": 240.39224099999853,
                    "velocity": 0.44881889763779526,
                    "duration": 0.13071899999999914
                },
                {
                    "name": "B5",
                    "midi": 83,
                    "time": 240.52295999999853,
                    "velocity": 0.5039370078740157,
                    "duration": 0.13071899999999914
                },
                {
                    "name": "C#6",
                    "midi": 85,
                    "time": 240.65367899999853,
                    "velocity": 0.5039370078740157,
                    "duration": 0.13071899999999914
                },
                {
                    "name": "D6",
                    "midi": 86,
                    "time": 240.78439799999853,
                    "velocity": 0.5354330708661418,
                    "duration": 0.13071899999999914
                },
                {
                    "name": "B5",
                    "midi": 83,
                    "time": 240.91511699999853,
                    "velocity": 0.5039370078740157,
                    "duration": 0.13071899999999914
                },
                {
                    "name": "A5",
                    "midi": 81,
                    "time": 241.04583599999853,
                    "velocity": 0.4881889763779528,
                    "duration": 0.13071899999999914
                },
                {
                    "name": "G5",
                    "midi": 79,
                    "time": 241.17655499999853,
                    "velocity": 0.48031496062992124,
                    "duration": 0.13071899999999914
                },
                {
                    "name": "F#5",
                    "midi": 78,
                    "time": 241.30727399999853,
                    "velocity": 0.4566929133858268,
                    "duration": 0.13071899999999914
                },
                {
                    "name": "E5",
                    "midi": 76,
                    "time": 241.43799299999853,
                    "velocity": 0.4566929133858268,
                    "duration": 0.13071899999999914
                },
                {
                    "name": "D#5",
                    "midi": 75,
                    "time": 241.56871199999853,
                    "velocity": 0.5039370078740157,
                    "duration": 0.13071899999999914
                },
                {
                    "name": "E5",
                    "midi": 76,
                    "time": 241.69943099999853,
                    "velocity": 0.44881889763779526,
                    "duration": 0.13071899999999914
                },
                {
                    "name": "F#5",
                    "midi": 78,
                    "time": 241.83014999999853,
                    "velocity": 0.44881889763779526,
                    "duration": 0.13071899999999914
                },
                {
                    "name": "E5",
                    "midi": 76,
                    "time": 241.96086899999852,
                    "velocity": 0.44881889763779526,
                    "duration": 0.13071899999999914
                },
                {
                    "name": "G5",
                    "midi": 79,
                    "time": 242.09158799999852,
                    "velocity": 0.4881889763779528,
                    "duration": 0.13071899999999914
                },
                {
                    "name": "F#5",
                    "midi": 78,
                    "time": 242.22230699999852,
                    "velocity": 0.44881889763779526,
                    "duration": 0.13071899999999914
                },
                {
                    "name": "A5",
                    "midi": 81,
                    "time": 242.35302599999852,
                    "velocity": 0.48031496062992124,
                    "duration": 0.13071899999999914
                },
                {
                    "name": "G5",
                    "midi": 79,
                    "time": 242.48374499999852,
                    "velocity": 0.44881889763779526,
                    "duration": 0.13071899999999914
                },
                {
                    "name": "B5",
                    "midi": 83,
                    "time": 242.61446399999852,
                    "velocity": 0.49606299212598426,
                    "duration": 0.2614379999999983
                },
                {
                    "name": "A5",
                    "midi": 81,
                    "time": 243.13733999999852,
                    "velocity": 0.4881889763779528,
                    "duration": 0.13071899999999914
                },
                {
                    "name": "G5",
                    "midi": 79,
                    "time": 243.26805899999852,
                    "velocity": 0.44881889763779526,
                    "duration": 0.13071899999999914
                },
                {
                    "name": "F#5",
                    "midi": 78,
                    "time": 243.39877799999852,
                    "velocity": 0.4881889763779528,
                    "duration": 0.13071899999999914
                },
                {
                    "name": "E5",
                    "midi": 76,
                    "time": 243.5294969999985,
                    "velocity": 0.44881889763779526,
                    "duration": 0.13071899999999914
                },
                {
                    "name": "D5",
                    "midi": 74,
                    "time": 243.6602159999985,
                    "velocity": 0.4881889763779528,
                    "duration": 0.5228759999999966
                },
                {
                    "name": "E5",
                    "midi": 76,
                    "time": 244.1830919999985,
                    "velocity": 0.4881889763779528,
                    "duration": 0.06535949999999957
                },
                {
                    "name": "F#5",
                    "midi": 78,
                    "time": 244.2484514999985,
                    "velocity": 0.4251968503937008,
                    "duration": 0.06535949999999957
                },
                {
                    "name": "E5",
                    "midi": 76,
                    "time": 244.3138109999985,
                    "velocity": 0.4881889763779528,
                    "duration": 0.06535949999999957
                },
                {
                    "name": "F#5",
                    "midi": 78,
                    "time": 244.3791704999985,
                    "velocity": 0.4330708661417323,
                    "duration": 0.06535949999999957
                },
                {
                    "name": "E5",
                    "midi": 76,
                    "time": 244.4445299999985,
                    "velocity": 0.4881889763779528,
                    "duration": 0.08714599999998995
                },
                {
                    "name": "F#5",
                    "midi": 78,
                    "time": 244.5316759999985,
                    "velocity": 0.4330708661417323,
                    "duration": 0.08714599999998995
                },
                {
                    "name": "E5",
                    "midi": 76,
                    "time": 244.6188219999985,
                    "velocity": 0.4881889763779528,
                    "duration": 0.08714599999998995
                },
                {
                    "name": "F#5",
                    "midi": 78,
                    "time": 244.70596799999848,
                    "velocity": 0.5039370078740157,
                    "duration": 0.13071899999999914
                },
                {
                    "name": "G5",
                    "midi": 79,
                    "time": 244.83668699999848,
                    "velocity": 0.44881889763779526,
                    "duration": 0.13071899999999914
                },
                {
                    "name": "A5",
                    "midi": 81,
                    "time": 244.96740599999848,
                    "velocity": 0.44881889763779526,
                    "duration": 0.13071899999999914
                },
                {
                    "name": "F#5",
                    "midi": 78,
                    "time": 245.09812499999848,
                    "velocity": 0.44881889763779526,
                    "duration": 0.13071899999999914
                },
                {
                    "name": "E5",
                    "midi": 76,
                    "time": 245.22884399999847,
                    "velocity": 0.4881889763779528,
                    "duration": 0.13071899999999914
                },
                {
                    "name": "D5",
                    "midi": 74,
                    "time": 245.35956299999847,
                    "velocity": 0.44881889763779526,
                    "duration": 0.13071899999999914
                },
                {
                    "name": "C#5",
                    "midi": 73,
                    "time": 245.49028199999847,
                    "velocity": 0.44881889763779526,
                    "duration": 0.13071899999999914
                },
                {
                    "name": "D5",
                    "midi": 74,
                    "time": 245.62100099999847,
                    "velocity": 0.44881889763779526,
                    "duration": 0.13071899999999914
                },
                {
                    "name": "B5",
                    "midi": 83,
                    "time": 245.75171999999847,
                    "velocity": 0.5039370078740157,
                    "duration": 0.13071899999999914
                },
                {
                    "name": "C#6",
                    "midi": 85,
                    "time": 245.88243899999847,
                    "velocity": 0.5039370078740157,
                    "duration": 0.13071899999999914
                },
                {
                    "name": "D6",
                    "midi": 86,
                    "time": 246.01315799999847,
                    "velocity": 0.5354330708661418,
                    "duration": 0.13071899999999914
                },
                {
                    "name": "C#6",
                    "midi": 85,
                    "time": 246.14387699999847,
                    "velocity": 0.5039370078740157,
                    "duration": 0.13071899999999914
                },
                {
                    "name": "B5",
                    "midi": 83,
                    "time": 246.27459599999847,
                    "velocity": 0.4881889763779528,
                    "duration": 0.13071899999999914
                },
                {
                    "name": "A5",
                    "midi": 81,
                    "time": 246.40531499999847,
                    "velocity": 0.48031496062992124,
                    "duration": 0.13071899999999914
                },
                {
                    "name": "G5",
                    "midi": 79,
                    "time": 246.53603399999847,
                    "velocity": 0.4566929133858268,
                    "duration": 0.13071899999999914
                },
                {
                    "name": "F#5",
                    "midi": 78,
                    "time": 246.66675299999847,
                    "velocity": 0.4566929133858268,
                    "duration": 0.13071899999999914
                },
                {
                    "name": "E5",
                    "midi": 76,
                    "time": 246.79747199999846,
                    "velocity": 0.5039370078740157,
                    "duration": 0.13071899999999914
                },
                {
                    "name": "F#5",
                    "midi": 78,
                    "time": 246.92819099999846,
                    "velocity": 0.44881889763779526,
                    "duration": 0.13071899999999914
                },
                {
                    "name": "G5",
                    "midi": 79,
                    "time": 247.05890999999846,
                    "velocity": 0.44881889763779526,
                    "duration": 0.13071899999999914
                },
                {
                    "name": "E5",
                    "midi": 76,
                    "time": 247.18962899999846,
                    "velocity": 0.44881889763779526,
                    "duration": 0.13071899999999914
                },
                {
                    "name": "D5",
                    "midi": 74,
                    "time": 247.32034799999846,
                    "velocity": 0.5118110236220472,
                    "duration": 0.13071899999999914
                },
                {
                    "name": "C#5",
                    "midi": 73,
                    "time": 247.45106699999846,
                    "velocity": 0.44881889763779526,
                    "duration": 0.13071899999999914
                },
                {
                    "name": "B4",
                    "midi": 71,
                    "time": 247.58178599999846,
                    "velocity": 0.4645669291338583,
                    "duration": 0.13071899999999914
                },
                {
                    "name": "C#5",
                    "midi": 73,
                    "time": 247.71250499999846,
                    "velocity": 0.44881889763779526,
                    "duration": 0.13071899999999914
                },
                {
                    "name": "A5",
                    "midi": 81,
                    "time": 247.84322399999846,
                    "velocity": 0.5039370078740157,
                    "duration": 0.13071899999999914
                },
                {
                    "name": "B5",
                    "midi": 83,
                    "time": 247.97394299999846,
                    "velocity": 0.5039370078740157,
                    "duration": 0.13071899999999914
                },
                {
                    "name": "C#6",
                    "midi": 85,
                    "time": 248.10466199999846,
                    "velocity": 0.5354330708661418,
                    "duration": 0.13071899999999914
                },
                {
                    "name": "B5",
                    "midi": 83,
                    "time": 248.23538099999845,
                    "velocity": 0.5039370078740157,
                    "duration": 0.13071899999999914
                },
                {
                    "name": "A5",
                    "midi": 81,
                    "time": 248.36609999999845,
                    "velocity": 0.4881889763779528,
                    "duration": 0.13071899999999914
                },
                {
                    "name": "G5",
                    "midi": 79,
                    "time": 248.49681899999845,
                    "velocity": 0.48031496062992124,
                    "duration": 0.13071899999999914
                },
                {
                    "name": "F#5",
                    "midi": 78,
                    "time": 248.62753799999845,
                    "velocity": 0.4566929133858268,
                    "duration": 0.13071899999999914
                },
                {
                    "name": "E5",
                    "midi": 76,
                    "time": 248.75825699999845,
                    "velocity": 0.4566929133858268,
                    "duration": 0.13071899999999914
                },
                {
                    "name": "D5",
                    "midi": 74,
                    "time": 248.88897599999845,
                    "velocity": 0.5039370078740157,
                    "duration": 0.13071899999999914
                },
                {
                    "name": "E5",
                    "midi": 76,
                    "time": 249.01969499999845,
                    "velocity": 0.44881889763779526,
                    "duration": 0.13071899999999914
                },
                {
                    "name": "F#5",
                    "midi": 78,
                    "time": 249.15041399999845,
                    "velocity": 0.44881889763779526,
                    "duration": 0.13071899999999914
                },
                {
                    "name": "D5",
                    "midi": 74,
                    "time": 249.28113299999845,
                    "velocity": 0.44881889763779526,
                    "duration": 0.13071899999999914
                },
                {
                    "name": "C#5",
                    "midi": 73,
                    "time": 249.41185199999845,
                    "velocity": 0.4881889763779528,
                    "duration": 0.13071899999999914
                },
                {
                    "name": "B4",
                    "midi": 71,
                    "time": 249.54257099999845,
                    "velocity": 0.44881889763779526,
                    "duration": 0.13071899999999914
                },
                {
                    "name": "A#4",
                    "midi": 70,
                    "time": 249.67328999999845,
                    "velocity": 0.44881889763779526,
                    "duration": 0.13071899999999914
                },
                {
                    "name": "B4",
                    "midi": 71,
                    "time": 249.80400899999844,
                    "velocity": 0.44881889763779526,
                    "duration": 0.13071899999999914
                },
                {
                    "name": "G5",
                    "midi": 79,
                    "time": 249.93472799999844,
                    "velocity": 0.5039370078740157,
                    "duration": 0.13071899999999914
                },
                {
                    "name": "A5",
                    "midi": 81,
                    "time": 250.06544699999844,
                    "velocity": 0.5039370078740157,
                    "duration": 0.13071899999999914
                },
                {
                    "name": "B5",
                    "midi": 83,
                    "time": 250.19616599999844,
                    "velocity": 0.5354330708661418,
                    "duration": 0.13071899999999914
                },
                {
                    "name": "A5",
                    "midi": 81,
                    "time": 250.32688499999844,
                    "velocity": 0.5039370078740157,
                    "duration": 0.13071899999999914
                },
                {
                    "name": "G5",
                    "midi": 79,
                    "time": 250.45760399999844,
                    "velocity": 0.4881889763779528,
                    "duration": 0.13071899999999914
                },
                {
                    "name": "F#5",
                    "midi": 78,
                    "time": 250.58832299999844,
                    "velocity": 0.4566929133858268,
                    "duration": 0.13071899999999914
                },
                {
                    "name": "E5",
                    "midi": 76,
                    "time": 250.71904199999844,
                    "velocity": 0.49606299212598426,
                    "duration": 0.13071899999999914
                },
                {
                    "name": "D5",
                    "midi": 74,
                    "time": 250.84976099999844,
                    "velocity": 0.4566929133858268,
                    "duration": 0.13071899999999914
                },
                {
                    "name": "C#5",
                    "midi": 73,
                    "time": 250.98047999999844,
                    "velocity": 0.5039370078740157,
                    "duration": 0.13071899999999914
                },
                {
                    "name": "D5",
                    "midi": 74,
                    "time": 251.11119899999844,
                    "velocity": 0.4330708661417323,
                    "duration": 0.13071899999999914
                },
                {
                    "name": "E5",
                    "midi": 76,
                    "time": 251.24191799999844,
                    "velocity": 0.44881889763779526,
                    "duration": 0.13071899999999914
                },
                {
                    "name": "D5",
                    "midi": 74,
                    "time": 251.37263699999843,
                    "velocity": 0.4330708661417323,
                    "duration": 0.13071899999999914
                },
                {
                    "name": "C#5",
                    "midi": 73,
                    "time": 251.50335599999843,
                    "velocity": 0.4881889763779528,
                    "duration": 0.13071899999999914
                },
                {
                    "name": "B4",
                    "midi": 71,
                    "time": 251.63407499999843,
                    "velocity": 0.4330708661417323,
                    "duration": 0.13071899999999914
                },
                {
                    "name": "A4",
                    "midi": 69,
                    "time": 251.76479399999843,
                    "velocity": 0.44881889763779526,
                    "duration": 0.13071899999999914
                },
                {
                    "name": "G4",
                    "midi": 67,
                    "time": 251.89551299999843,
                    "velocity": 0.4330708661417323,
                    "duration": 0.13071899999999914
                },
                {
                    "name": "F#4",
                    "midi": 66,
                    "time": 252.02623199999843,
                    "velocity": 0.5039370078740157,
                    "duration": 0.13071899999999914
                },
                {
                    "name": "G4",
                    "midi": 67,
                    "time": 252.15695099999843,
                    "velocity": 0.4330708661417323,
                    "duration": 0.13071899999999914
                },
                {
                    "name": "A4",
                    "midi": 69,
                    "time": 252.28766999999843,
                    "velocity": 0.44881889763779526,
                    "duration": 0.13071899999999914
                },
                {
                    "name": "F#4",
                    "midi": 66,
                    "time": 252.41838899999843,
                    "velocity": 0.4330708661417323,
                    "duration": 0.13071899999999914
                },
                {
                    "name": "E4",
                    "midi": 64,
                    "time": 252.54910799999843,
                    "velocity": 0.4881889763779528,
                    "duration": 0.13071899999999914
                },
                {
                    "name": "D4",
                    "midi": 62,
                    "time": 252.67982699999843,
                    "velocity": 0.4330708661417323,
                    "duration": 0.13071899999999914
                },
                {
                    "name": "C#4",
                    "midi": 61,
                    "time": 252.81054599999842,
                    "velocity": 0.44881889763779526,
                    "duration": 0.13071899999999914
                },
                {
                    "name": "D4",
                    "midi": 62,
                    "time": 252.94126499999842,
                    "velocity": 0.4251968503937008,
                    "duration": 0.13071899999999914
                },
                {
                    "name": "B4",
                    "midi": 71,
                    "time": 253.07198399999842,
                    "velocity": 0.5039370078740157,
                    "duration": 0.13071899999999914
                },
                {
                    "name": "C#5",
                    "midi": 73,
                    "time": 253.20270299999842,
                    "velocity": 0.41732283464566927,
                    "duration": 0.13071899999999914
                },
                {
                    "name": "D5",
                    "midi": 74,
                    "time": 253.33342199999842,
                    "velocity": 0.44881889763779526,
                    "duration": 0.13071899999999914
                },
                {
                    "name": "B4",
                    "midi": 71,
                    "time": 253.46414099999842,
                    "velocity": 0.4251968503937008,
                    "duration": 0.13071899999999914
                },
                {
                    "name": "A4",
                    "midi": 69,
                    "time": 253.59485999999842,
                    "velocity": 0.4881889763779528,
                    "duration": 0.13071899999999914
                },
                {
                    "name": "G4",
                    "midi": 67,
                    "time": 253.72557899999842,
                    "velocity": 0.4409448818897638,
                    "duration": 0.13071899999999914
                },
                {
                    "name": "F#4",
                    "midi": 66,
                    "time": 253.85629799999842,
                    "velocity": 0.44881889763779526,
                    "duration": 0.13071899999999914
                },
                {
                    "name": "E4",
                    "midi": 64,
                    "time": 253.98701699999842,
                    "velocity": 0.4251968503937008,
                    "duration": 0.13071899999999914
                },
                {
                    "name": "D#4",
                    "midi": 63,
                    "time": 254.11773599999842,
                    "velocity": 0.5039370078740157,
                    "duration": 0.13071899999999914
                },
                {
                    "name": "E4",
                    "midi": 64,
                    "time": 254.24845499999842,
                    "velocity": 0.3937007874015748,
                    "duration": 0.13071899999999914
                },
                {
                    "name": "F#4",
                    "midi": 66,
                    "time": 254.37917399999841,
                    "velocity": 0.44881889763779526,
                    "duration": 0.13071899999999914
                },
                {
                    "name": "E4",
                    "midi": 64,
                    "time": 254.5098929999984,
                    "velocity": 0.41732283464566927,
                    "duration": 0.13071899999999914
                },
                {
                    "name": "G4",
                    "midi": 67,
                    "time": 254.6406119999984,
                    "velocity": 0.4881889763779528,
                    "duration": 0.13071899999999914
                },
                {
                    "name": "F#4",
                    "midi": 66,
                    "time": 254.7713309999984,
                    "velocity": 0.44881889763779526,
                    "duration": 0.13071899999999914
                },
                {
                    "name": "A4",
                    "midi": 69,
                    "time": 254.9020499999984,
                    "velocity": 0.48031496062992124,
                    "duration": 0.13071899999999914
                },
                {
                    "name": "G4",
                    "midi": 67,
                    "time": 255.0327689999984,
                    "velocity": 0.44881889763779526,
                    "duration": 0.13071899999999914
                },
                {
                    "name": "B4",
                    "midi": 71,
                    "time": 255.1634879999984,
                    "velocity": 0.49606299212598426,
                    "duration": 0.2614379999999983
                },
                {
                    "name": "G5",
                    "midi": 79,
                    "time": 255.6863639999984,
                    "velocity": 0.33858267716535434,
                    "duration": 0.13071899999999914
                },
                {
                    "name": "F#5",
                    "midi": 78,
                    "time": 255.8170829999984,
                    "velocity": 0.30708661417322836,
                    "duration": 0.13071899999999914
                },
                {
                    "name": "A5",
                    "midi": 81,
                    "time": 255.9478019999984,
                    "velocity": 0.33070866141732286,
                    "duration": 0.13071900000002756
                },
                {
                    "name": "G5",
                    "midi": 79,
                    "time": 256.07852099999843,
                    "velocity": 0.30708661417322836,
                    "duration": 0.13071899999999914
                },
                {
                    "name": "B5",
                    "midi": 83,
                    "time": 256.20923999999843,
                    "velocity": 0.3464566929133858,
                    "duration": 0.2614379999999983
                },
                {
                    "name": "G3",
                    "midi": 55,
                    "time": 256.7321159999984,
                    "velocity": 0.25984251968503935,
                    "duration": 0.13071899999999914
                },
                {
                    "name": "F#3",
                    "midi": 54,
                    "time": 256.8628349999984,
                    "velocity": 0.2204724409448819,
                    "duration": 0.13071899999999914
                },
                {
                    "name": "A3",
                    "midi": 57,
                    "time": 256.9935539999984,
                    "velocity": 0.25984251968503935,
                    "duration": 0.13071899999999914
                },
                {
                    "name": "G3",
                    "midi": 55,
                    "time": 257.1242729999984,
                    "velocity": 0.2204724409448819,
                    "duration": 0.13071899999999914
                },
                {
                    "name": "B3",
                    "midi": 59,
                    "time": 257.2549919999984,
                    "velocity": 0.2440944881889764,
                    "duration": 0.2614379999999983
                },
                {
                    "name": "D#4",
                    "midi": 63,
                    "time": 257.9739464999984,
                    "velocity": 0.5039370078740157,
                    "duration": 0.06535949999999957
                },
                {
                    "name": "D#5",
                    "midi": 75,
                    "time": 258.0393059999984,
                    "velocity": 0.5511811023622047,
                    "duration": 0.1960784999999987
                },
                {
                    "name": "E4",
                    "midi": 64,
                    "time": 258.2353844999984,
                    "velocity": 0.5118110236220472,
                    "duration": 0.06535949999999957
                },
                {
                    "name": "E5",
                    "midi": 76,
                    "time": 258.3007439999984,
                    "velocity": 0.5669291338582677,
                    "duration": 0.1960784999999987
                },
                {
                    "name": "F#4",
                    "midi": 66,
                    "time": 258.4968224999984,
                    "velocity": 0.5354330708661418,
                    "duration": 0.06535949999999957
                },
                {
                    "name": "F#5",
                    "midi": 78,
                    "time": 258.5621819999984,
                    "velocity": 0.5826771653543307,
                    "duration": 0.1960784999999987
                },
                {
                    "name": "G4",
                    "midi": 67,
                    "time": 258.7582604999984,
                    "velocity": 0.5433070866141733,
                    "duration": 0.06535949999999957
                },
                {
                    "name": "G5",
                    "midi": 79,
                    "time": 258.8236199999984,
                    "velocity": 0.5905511811023622,
                    "duration": 0.1960784999999987
                },
                {
                    "name": "A#4",
                    "midi": 70,
                    "time": 259.0196984999984,
                    "velocity": 0.5590551181102362,
                    "duration": 0.06535949999999957
                },
                {
                    "name": "A#5",
                    "midi": 82,
                    "time": 259.0850579999984,
                    "velocity": 0.6062992125984252,
                    "duration": 0.1960784999999987
                },
                {
                    "name": "B4",
                    "midi": 71,
                    "time": 259.2811364999984,
                    "velocity": 0.5590551181102362,
                    "duration": 0.06535949999999957
                },
                {
                    "name": "B5",
                    "midi": 83,
                    "time": 259.3464959999984,
                    "velocity": 0.5669291338582677,
                    "duration": 0.1960784999999987
                },
                {
                    "name": "C#5",
                    "midi": 73,
                    "time": 259.5425744999984,
                    "velocity": 0.5354330708661418,
                    "duration": 0.06535949999999957
                },
                {
                    "name": "C#6",
                    "midi": 85,
                    "time": 259.6079339999984,
                    "velocity": 0.5826771653543307,
                    "duration": 0.1960784999999987
                },
                {
                    "name": "D5",
                    "midi": 74,
                    "time": 259.8040124999984,
                    "velocity": 0.5433070866141733,
                    "duration": 0.06535949999999957
                },
                {
                    "name": "D6",
                    "midi": 86,
                    "time": 259.8693719999984,
                    "velocity": 0.5905511811023622,
                    "duration": 0.1960784999999987
                },
                {
                    "name": "G#4",
                    "midi": 68,
                    "time": 260.0654504999984,
                    "velocity": 0.5590551181102362,
                    "duration": 0.06535949999999957
                },
                {
                    "name": "G#5",
                    "midi": 80,
                    "time": 260.1308099999984,
                    "velocity": 0.6062992125984252,
                    "duration": 0.1960784999999987
                },
                {
                    "name": "A4",
                    "midi": 69,
                    "time": 260.3268884999984,
                    "velocity": 0.5590551181102362,
                    "duration": 0.06535949999999957
                },
                {
                    "name": "A5",
                    "midi": 81,
                    "time": 260.3922479999984,
                    "velocity": 0.6220472440944882,
                    "duration": 0.7843139999999948
                },
                {
                    "name": "G5",
                    "midi": 79,
                    "time": 261.1765619999984,
                    "velocity": 0.5669291338582677,
                    "duration": 0.06535949999999957
                },
                {
                    "name": "F#5",
                    "midi": 78,
                    "time": 261.2419214999984,
                    "velocity": 0.5669291338582677,
                    "duration": 0.06535949999999957
                },
                {
                    "name": "E5",
                    "midi": 76,
                    "time": 261.3072809999984,
                    "velocity": 0.5669291338582677,
                    "duration": 0.06535949999999957
                },
                {
                    "name": "D5",
                    "midi": 74,
                    "time": 261.3726404999984,
                    "velocity": 0.5669291338582677,
                    "duration": 0.06535949999999957
                },
                {
                    "name": "E5",
                    "midi": 76,
                    "time": 261.4379999999984,
                    "velocity": 0.5433070866141733,
                    "duration": 0.06535949999999957
                },
                {
                    "name": "F#5",
                    "midi": 78,
                    "time": 261.5033594999984,
                    "velocity": 0.3858267716535433,
                    "duration": 0.06535949999999957
                },
                {
                    "name": "E5",
                    "midi": 76,
                    "time": 261.5687189999984,
                    "velocity": 0.48031496062992124,
                    "duration": 0.06535949999999957
                },
                {
                    "name": "F#5",
                    "midi": 78,
                    "time": 261.6340784999984,
                    "velocity": 0.4330708661417323,
                    "duration": 0.06535949999999957
                },
                {
                    "name": "E5",
                    "midi": 76,
                    "time": 261.6994379999984,
                    "velocity": 0.5039370078740157,
                    "duration": 0.06535949999999957
                },
                {
                    "name": "F#5",
                    "midi": 78,
                    "time": 261.7647974999984,
                    "velocity": 0.4566929133858268,
                    "duration": 0.06535949999999957
                },
                {
                    "name": "E5",
                    "midi": 76,
                    "time": 261.8301569999984,
                    "velocity": 0.5275590551181102,
                    "duration": 0.06535949999999957
                },
                {
                    "name": "F#5",
                    "midi": 78,
                    "time": 261.8955164999984,
                    "velocity": 0.4881889763779528,
                    "duration": 0.06535949999999957
                },
                {
                    "name": "E5",
                    "midi": 76,
                    "time": 261.9608759999984,
                    "velocity": 0.5511811023622047,
                    "duration": 0.06535949999999957
                },
                {
                    "name": "F#5",
                    "midi": 78,
                    "time": 262.0262354999984,
                    "velocity": 0.48031496062992124,
                    "duration": 0.06535949999999957
                },
                {
                    "name": "E5",
                    "midi": 76,
                    "time": 262.0915949999984,
                    "velocity": 0.49606299212598426,
                    "duration": 0.06535949999999957
                },
                {
                    "name": "F#5",
                    "midi": 78,
                    "time": 262.1569544999984,
                    "velocity": 0.4330708661417323,
                    "duration": 0.06535949999999957
                },
                {
                    "name": "E5",
                    "midi": 76,
                    "time": 262.2223139999984,
                    "velocity": 0.5196850393700787,
                    "duration": 0.06535949999999957
                },
                {
                    "name": "F#5",
                    "midi": 78,
                    "time": 262.2876734999984,
                    "velocity": 0.44881889763779526,
                    "duration": 0.06535949999999957
                },
                {
                    "name": "E5",
                    "midi": 76,
                    "time": 262.3530329999984,
                    "velocity": 0.5433070866141733,
                    "duration": 0.06535949999999957
                },
                {
                    "name": "F#5",
                    "midi": 78,
                    "time": 262.4183924999984,
                    "velocity": 0.4645669291338583,
                    "duration": 0.06535949999999957
                },
                {
                    "name": "D5",
                    "midi": 74,
                    "time": 262.4837519999984,
                    "velocity": 0.5433070866141733,
                    "duration": 0.5228759999999966
                },
                {
                    "name": "A4",
                    "midi": 69,
                    "time": 263.2680659999984,
                    "velocity": 0.5433070866141733,
                    "duration": 0.2614379999999983
                },
                {
                    "name": "B4",
                    "midi": 71,
                    "time": 263.5295039999984,
                    "velocity": 0.5039370078740157,
                    "duration": 0.06535949999999957
                },
                {
                    "name": "C#5",
                    "midi": 73,
                    "time": 263.5948634999984,
                    "velocity": 0.4645669291338583,
                    "duration": 0.06535949999999957
                },
                {
                    "name": "B4",
                    "midi": 71,
                    "time": 263.6602229999984,
                    "velocity": 0.5354330708661418,
                    "duration": 0.13071899999999914
                },
                {
                    "name": "A4",
                    "midi": 69,
                    "time": 263.7909419999984,
                    "velocity": 0.4881889763779528,
                    "duration": 0.2614379999999983
                },
                {
                    "name": "B4",
                    "midi": 71,
                    "time": 264.0523799999984,
                    "velocity": 0.4881889763779528,
                    "duration": 0.06535949999999957
                },
                {
                    "name": "C#5",
                    "midi": 73,
                    "time": 264.1177394999984,
                    "velocity": 0.4881889763779528,
                    "duration": 0.06535949999999957
                },
                {
                    "name": "B4",
                    "midi": 71,
                    "time": 264.1830989999984,
                    "velocity": 0.5433070866141733,
                    "duration": 0.13071899999999914
                },
                {
                    "name": "A4",
                    "midi": 69,
                    "time": 264.3138179999984,
                    "velocity": 0.49606299212598426,
                    "duration": 0.16339874999999893
                },
                {
                    "name": "A4",
                    "midi": 69,
                    "time": 264.4772167499984,
                    "velocity": 0.5039370078740157,
                    "duration": 0.6209152499999959
                },
                {
                    "name": "C#5",
                    "midi": 73,
                    "time": 264.5098964999984,
                    "velocity": 0.5433070866141733,
                    "duration": 0.5882354999999961
                },
                {
                    "name": "E5",
                    "midi": 76,
                    "time": 264.5425762499984,
                    "velocity": 0.5748031496062992,
                    "duration": 0.5555557499999964
                },
                {
                    "name": "G5",
                    "midi": 79,
                    "time": 264.5752559999984,
                    "velocity": 0.6062992125984252,
                    "duration": 0.5228759999999966
                },
                {
                    "name": "F#5",
                    "midi": 78,
                    "time": 265.35956999999837,
                    "velocity": 0.5433070866141733,
                    "duration": 0.2614379999999983
                },
                {
                    "name": "E5",
                    "midi": 76,
                    "time": 265.62100799999837,
                    "velocity": 0.5039370078740157,
                    "duration": 0.13071899999999914
                },
                {
                    "name": "F#5",
                    "midi": 78,
                    "time": 265.75172699999837,
                    "velocity": 0.3937007874015748,
                    "duration": 0.032679749999999785
                },
                {
                    "name": "E5",
                    "midi": 76,
                    "time": 265.78440674999837,
                    "velocity": 0.4330708661417323,
                    "duration": 0.032679749999999785
                },
                {
                    "name": "D#5",
                    "midi": 75,
                    "time": 265.81708649999837,
                    "velocity": 0.4566929133858268,
                    "duration": 0.032679749999999785
                },
                {
                    "name": "E5",
                    "midi": 76,
                    "time": 265.84976624999837,
                    "velocity": 0.47244094488188976,
                    "duration": 0.032679749999999785
                },
                {
                    "name": "G5",
                    "midi": 79,
                    "time": 265.88244599999837,
                    "velocity": 0.4881889763779528,
                    "duration": 0.2614379999999983
                },
                {
                    "name": "A4",
                    "midi": 69,
                    "time": 266.14388399999837,
                    "velocity": 0.4881889763779528,
                    "duration": 0.13071899999999914
                },
                {
                    "name": "B4",
                    "midi": 71,
                    "time": 266.27460299999836,
                    "velocity": 0.4251968503937008,
                    "duration": 0.032679749999999785
                },
                {
                    "name": "A4",
                    "midi": 69,
                    "time": 266.30728274999836,
                    "velocity": 0.4330708661417323,
                    "duration": 0.032679749999999785
                },
                {
                    "name": "G#4",
                    "midi": 68,
                    "time": 266.33996249999836,
                    "velocity": 0.4645669291338583,
                    "duration": 0.032679749999999785
                },
                {
                    "name": "A4",
                    "midi": 69,
                    "time": 266.37264224999836,
                    "velocity": 0.4645669291338583,
                    "duration": 0.032679749999999785
                },
                {
                    "name": "C#5",
                    "midi": 73,
                    "time": 266.40532199999836,
                    "velocity": 0.49606299212598426,
                    "duration": 0.2614379999999983
                },
                {
                    "name": "G4",
                    "midi": 67,
                    "time": 266.40532199999836,
                    "velocity": 0.47244094488188976,
                    "duration": 0.2614379999999983
                },
                {
                    "name": "F#4",
                    "midi": 66,
                    "time": 266.66675999999836,
                    "velocity": 0.4566929133858268,
                    "duration": 0.5228759999999966
                },
                {
                    "name": "D5",
                    "midi": 74,
                    "time": 266.66675999999836,
                    "velocity": 0.5433070866141733,
                    "duration": 0.5228759999999966
                },
                {
                    "name": "A4",
                    "midi": 69,
                    "time": 267.45107399999836,
                    "velocity": 0.5433070866141733,
                    "duration": 0.2614379999999983
                },
                {
                    "name": "B4",
                    "midi": 71,
                    "time": 267.71251199999836,
                    "velocity": 0.5039370078740157,
                    "duration": 0.06535949999999957
                },
                {
                    "name": "C#5",
                    "midi": 73,
                    "time": 267.77787149999835,
                    "velocity": 0.4645669291338583,
                    "duration": 0.06535949999999957
                },
                {
                    "name": "B4",
                    "midi": 71,
                    "time": 267.84323099999835,
                    "velocity": 0.5354330708661418,
                    "duration": 0.13071899999999914
                },
                {
                    "name": "A4",
                    "midi": 69,
                    "time": 267.97394999999835,
                    "velocity": 0.4881889763779528,
                    "duration": 0.2614379999999983
                },
                {
                    "name": "B4",
                    "midi": 71,
                    "time": 268.23538799999835,
                    "velocity": 0.4881889763779528,
                    "duration": 0.06535949999999957
                },
                {
                    "name": "C#5",
                    "midi": 73,
                    "time": 268.30074749999835,
                    "velocity": 0.4881889763779528,
                    "duration": 0.06535949999999957
                },
                {
                    "name": "B4",
                    "midi": 71,
                    "time": 268.36610699999835,
                    "velocity": 0.5433070866141733,
                    "duration": 0.13071899999999914
                },
                {
                    "name": "A4",
                    "midi": 69,
                    "time": 268.49682599999835,
                    "velocity": 0.49606299212598426,
                    "duration": 0.16339874999999893
                },
                {
                    "name": "A4",
                    "midi": 69,
                    "time": 268.66022474999835,
                    "velocity": 0.5039370078740157,
                    "duration": 0.6209152499999959
                },
                {
                    "name": "C#5",
                    "midi": 73,
                    "time": 268.69290449999835,
                    "velocity": 0.5433070866141733,
                    "duration": 0.5882354999999961
                },
                {
                    "name": "E5",
                    "midi": 76,
                    "time": 268.72558424999835,
                    "velocity": 0.5748031496062992,
                    "duration": 0.5555557499999964
                },
                {
                    "name": "G5",
                    "midi": 79,
                    "time": 268.75826399999835,
                    "velocity": 0.6062992125984252,
                    "duration": 0.5228759999999966
                },
                {
                    "name": "F#5",
                    "midi": 78,
                    "time": 269.54257799999834,
                    "velocity": 0.5433070866141733,
                    "duration": 0.2614379999999983
                },
                {
                    "name": "E5",
                    "midi": 76,
                    "time": 269.80401599999834,
                    "velocity": 0.5039370078740157,
                    "duration": 0.13071899999999914
                },
                {
                    "name": "F#5",
                    "midi": 78,
                    "time": 269.93473499999834,
                    "velocity": 0.3937007874015748,
                    "duration": 0.032679749999999785
                },
                {
                    "name": "E5",
                    "midi": 76,
                    "time": 269.96741474999834,
                    "velocity": 0.4330708661417323,
                    "duration": 0.032679749999999785
                },
                {
                    "name": "D#5",
                    "midi": 75,
                    "time": 270.00009449999834,
                    "velocity": 0.4566929133858268,
                    "duration": 0.032679749999999785
                },
                {
                    "name": "E5",
                    "midi": 76,
                    "time": 270.03277424999834,
                    "velocity": 0.47244094488188976,
                    "duration": 0.032679749999999785
                },
                {
                    "name": "G5",
                    "midi": 79,
                    "time": 270.06545399999834,
                    "velocity": 0.4881889763779528,
                    "duration": 0.2614379999999983
                },
                {
                    "name": "A4",
                    "midi": 69,
                    "time": 270.32689199999834,
                    "velocity": 0.4881889763779528,
                    "duration": 0.13071899999999914
                },
                {
                    "name": "B4",
                    "midi": 71,
                    "time": 270.45761099999834,
                    "velocity": 0.4251968503937008,
                    "duration": 0.032679749999999785
                },
                {
                    "name": "A4",
                    "midi": 69,
                    "time": 270.49029074999834,
                    "velocity": 0.4330708661417323,
                    "duration": 0.032679749999999785
                },
                {
                    "name": "G#4",
                    "midi": 68,
                    "time": 270.52297049999834,
                    "velocity": 0.4645669291338583,
                    "duration": 0.032679749999999785
                },
                {
                    "name": "A4",
                    "midi": 69,
                    "time": 270.55565024999834,
                    "velocity": 0.4645669291338583,
                    "duration": 0.032679749999999785
                },
                {
                    "name": "G4",
                    "midi": 67,
                    "time": 270.58832999999834,
                    "velocity": 0.47244094488188976,
                    "duration": 0.2614379999999983
                },
                {
                    "name": "C#5",
                    "midi": 73,
                    "time": 270.58832999999834,
                    "velocity": 0.49606299212598426,
                    "duration": 0.2614379999999983
                },
                {
                    "name": "F#4",
                    "midi": 66,
                    "time": 270.84976799999833,
                    "velocity": 0.4566929133858268,
                    "duration": 0.2614379999999983
                },
                {
                    "name": "D5",
                    "midi": 74,
                    "time": 270.84976799999833,
                    "velocity": 0.5433070866141733,
                    "duration": 0.2614379999999983
                },
                {
                    "name": "A3",
                    "midi": 57,
                    "time": 271.50336299999833,
                    "velocity": 0.44881889763779526,
                    "duration": 0.13071899999999914
                },
                {
                    "name": "C#4",
                    "midi": 61,
                    "time": 271.63408199999833,
                    "velocity": 0.44881889763779526,
                    "duration": 0.13071899999999914
                },
                {
                    "name": "A4",
                    "midi": 69,
                    "time": 271.76480099999833,
                    "velocity": 0.3937007874015748,
                    "duration": 0.13071899999999914
                },
                {
                    "name": "A3",
                    "midi": 57,
                    "time": 272.0262389999983,
                    "velocity": 0.41732283464566927,
                    "duration": 0.13071899999999914
                },
                {
                    "name": "D4",
                    "midi": 62,
                    "time": 272.1569579999983,
                    "velocity": 0.44881889763779526,
                    "duration": 0.13071899999999914
                },
                {
                    "name": "A4",
                    "midi": 69,
                    "time": 272.2876769999983,
                    "velocity": 0.3858267716535433,
                    "duration": 0.13071899999999914
                },
                {
                    "name": "E3",
                    "midi": 52,
                    "time": 272.5491149999983,
                    "velocity": 0.30708661417322836,
                    "duration": 0.13071899999999914
                },
                {
                    "name": "G3",
                    "midi": 55,
                    "time": 272.6798339999983,
                    "velocity": 0.4015748031496063,
                    "duration": 0.13071899999999914
                },
                {
                    "name": "C#4",
                    "midi": 61,
                    "time": 272.8105529999983,
                    "velocity": 0.33070866141732286,
                    "duration": 0.13071899999999914
                },
                {
                    "name": "F#3",
                    "midi": 54,
                    "time": 272.9412719999983,
                    "velocity": 0.41732283464566927,
                    "duration": 0.5228759999999966
                },
                {
                    "name": "D4",
                    "midi": 62,
                    "time": 272.9412719999983,
                    "velocity": 0.41732283464566927,
                    "duration": 0.5228759999999966
                }
            ],
            "controlChanges": {},
            "id": 1,
            "name": "Piano right",
            "instrumentNumber": 0,
            "instrument": "acoustic grand piano",
            "instrumentFamily": "piano",
            "channelNumber": 0,
            "isPercussion": false
        },
        {
            "startTime": 1.045752,
            "duration": 273.46414799999854,
            "length": 1018,
            "notes": [
                {
                    "name": "D3",
                    "midi": 50,
                    "time": 1.045752,
                    "velocity": 0.5905511811023622,
                    "duration": 0.5228759999999999
                },
                {
                    "name": "D2",
                    "midi": 38,
                    "time": 1.045752,
                    "velocity": 0.49606299212598426,
                    "duration": 0.5228759999999999
                },
                {
                    "name": "F#4",
                    "midi": 66,
                    "time": 1.830066,
                    "velocity": 0.33070866141732286,
                    "duration": 0.06535950000000001
                },
                {
                    "name": "D4",
                    "midi": 62,
                    "time": 1.830066,
                    "velocity": 0.28346456692913385,
                    "duration": 0.06535950000000001
                },
                {
                    "name": "G4",
                    "midi": 67,
                    "time": 2.091504,
                    "velocity": 0.3779527559055118,
                    "duration": 0.26143800000000006
                },
                {
                    "name": "D4",
                    "midi": 62,
                    "time": 2.091504,
                    "velocity": 0.31496062992125984,
                    "duration": 0.26143800000000006
                },
                {
                    "name": "F#4",
                    "midi": 66,
                    "time": 2.352942,
                    "velocity": 0.31496062992125984,
                    "duration": 0.26143800000000006
                },
                {
                    "name": "D4",
                    "midi": 62,
                    "time": 2.352942,
                    "velocity": 0.2677165354330709,
                    "duration": 0.26143800000000006
                },
                {
                    "name": "D3",
                    "midi": 50,
                    "time": 3.1372560000000003,
                    "velocity": 0.5905511811023622,
                    "duration": 0.5228760000000001
                },
                {
                    "name": "D2",
                    "midi": 38,
                    "time": 3.1372560000000003,
                    "velocity": 0.49606299212598426,
                    "duration": 0.5228760000000001
                },
                {
                    "name": "D4",
                    "midi": 62,
                    "time": 3.9215700000000004,
                    "velocity": 0.33070866141732286,
                    "duration": 0.06535950000000001
                },
                {
                    "name": "A3",
                    "midi": 57,
                    "time": 4.183008,
                    "velocity": 0.3779527559055118,
                    "duration": 0.26143800000000006
                },
                {
                    "name": "D4",
                    "midi": 62,
                    "time": 4.444446,
                    "velocity": 0.31496062992125984,
                    "duration": 0.26143800000000006
                },
                {
                    "name": "D4",
                    "midi": 62,
                    "time": 5.490198,
                    "velocity": 0.31496062992125984,
                    "duration": 0.06535949999999957
                },
                {
                    "name": "F#3",
                    "midi": 54,
                    "time": 5.490198,
                    "velocity": 0.31496062992125984,
                    "duration": 0.06535949999999957
                },
                {
                    "name": "D4",
                    "midi": 62,
                    "time": 5.7516359999999995,
                    "velocity": 0.3543307086614173,
                    "duration": 0.06535949999999957
                },
                {
                    "name": "F#3",
                    "midi": 54,
                    "time": 5.7516359999999995,
                    "velocity": 0.3543307086614173,
                    "duration": 0.06535949999999957
                },
                {
                    "name": "D4",
                    "midi": 62,
                    "time": 6.535949999999999,
                    "velocity": 0.31496062992125984,
                    "duration": 0.06535949999999957
                },
                {
                    "name": "G3",
                    "midi": 55,
                    "time": 6.535949999999999,
                    "velocity": 0.31496062992125984,
                    "duration": 0.06535949999999957
                },
                {
                    "name": "D4",
                    "midi": 62,
                    "time": 6.797387999999998,
                    "velocity": 0.3543307086614173,
                    "duration": 0.06535949999999957
                },
                {
                    "name": "G3",
                    "midi": 55,
                    "time": 6.797387999999998,
                    "velocity": 0.3543307086614173,
                    "duration": 0.06535949999999957
                },
                {
                    "name": "A3",
                    "midi": 57,
                    "time": 7.320263999999997,
                    "velocity": 0.36220472440944884,
                    "duration": 0.5228760000000001
                },
                {
                    "name": "A2",
                    "midi": 45,
                    "time": 7.843139999999997,
                    "velocity": 0.31496062992125984,
                    "duration": 0.5228759999999992
                },
                {
                    "name": "D3",
                    "midi": 50,
                    "time": 8.366015999999997,
                    "velocity": 0.28346456692913385,
                    "duration": 0.5228760000000001
                },
                {
                    "name": "D2",
                    "midi": 38,
                    "time": 8.888891999999997,
                    "velocity": 0.25196850393700787,
                    "duration": 0.26143800000000006
                },
                {
                    "name": "D4",
                    "midi": 62,
                    "time": 9.673205999999997,
                    "velocity": 0.31496062992125984,
                    "duration": 0.06535949999999957
                },
                {
                    "name": "F#3",
                    "midi": 54,
                    "time": 9.673205999999997,
                    "velocity": 0.31496062992125984,
                    "duration": 0.06535949999999957
                },
                {
                    "name": "D4",
                    "midi": 62,
                    "time": 9.934643999999997,
                    "velocity": 0.3543307086614173,
                    "duration": 0.06535949999999957
                },
                {
                    "name": "F#3",
                    "midi": 54,
                    "time": 9.934643999999997,
                    "velocity": 0.3543307086614173,
                    "duration": 0.06535949999999957
                },
                {
                    "name": "D4",
                    "midi": 62,
                    "time": 10.718957999999997,
                    "velocity": 0.31496062992125984,
                    "duration": 0.06535949999999957
                },
                {
                    "name": "G3",
                    "midi": 55,
                    "time": 10.718957999999997,
                    "velocity": 0.31496062992125984,
                    "duration": 0.06535949999999957
                },
                {
                    "name": "D4",
                    "midi": 62,
                    "time": 10.980395999999997,
                    "velocity": 0.3543307086614173,
                    "duration": 0.06535949999999957
                },
                {
                    "name": "G3",
                    "midi": 55,
                    "time": 10.980395999999997,
                    "velocity": 0.3543307086614173,
                    "duration": 0.06535949999999957
                },
                {
                    "name": "A3",
                    "midi": 57,
                    "time": 11.503271999999997,
                    "velocity": 0.3779527559055118,
                    "duration": 0.26143800000000006
                },
                {
                    "name": "A2",
                    "midi": 45,
                    "time": 12.026147999999997,
                    "velocity": 0.30708661417322836,
                    "duration": 0.26143800000000006
                },
                {
                    "name": "D2",
                    "midi": 38,
                    "time": 12.549023999999998,
                    "velocity": 0.3779527559055118,
                    "duration": 0.5228760000000001
                },
                {
                    "name": "G#3",
                    "midi": 56,
                    "time": 14.901965999999998,
                    "velocity": 0.33858267716535434,
                    "duration": 0.26143800000000006
                },
                {
                    "name": "A3",
                    "midi": 57,
                    "time": 15.163403999999998,
                    "velocity": 0.3779527559055118,
                    "duration": 0.1960785000000005
                },
                {
                    "name": "C#3",
                    "midi": 49,
                    "time": 16.99347,
                    "velocity": 0.33858267716535434,
                    "duration": 0.2614379999999983
                },
                {
                    "name": "D3",
                    "midi": 50,
                    "time": 17.254907999999997,
                    "velocity": 0.3779527559055118,
                    "duration": 0.1960784999999987
                },
                {
                    "name": "G3",
                    "midi": 55,
                    "time": 18.823535999999997,
                    "velocity": 0.4094488188976378,
                    "duration": 0.13071899999999914
                },
                {
                    "name": "D4",
                    "midi": 62,
                    "time": 18.954254999999996,
                    "velocity": 0.3543307086614173,
                    "duration": 0.13071899999999914
                },
                {
                    "name": "G3",
                    "midi": 55,
                    "time": 19.084973999999995,
                    "velocity": 0.4251968503937008,
                    "duration": 0.13071899999999914
                },
                {
                    "name": "D4",
                    "midi": 62,
                    "time": 19.215692999999995,
                    "velocity": 0.30708661417322836,
                    "duration": 0.13071899999999914
                },
                {
                    "name": "F#3",
                    "midi": 54,
                    "time": 19.346411999999994,
                    "velocity": 0.3858267716535433,
                    "duration": 0.13071899999999914
                },
                {
                    "name": "D4",
                    "midi": 62,
                    "time": 19.477130999999993,
                    "velocity": 0.2992125984251969,
                    "duration": 0.13071899999999914
                },
                {
                    "name": "F#3",
                    "midi": 54,
                    "time": 19.607849999999992,
                    "velocity": 0.3858267716535433,
                    "duration": 0.13071899999999914
                },
                {
                    "name": "D4",
                    "midi": 62,
                    "time": 19.73856899999999,
                    "velocity": 0.33858267716535434,
                    "duration": 0.13071899999999914
                },
                {
                    "name": "B3",
                    "midi": 59,
                    "time": 19.86928799999999,
                    "velocity": 0.4094488188976378,
                    "duration": 0.13071899999999914
                },
                {
                    "name": "D4",
                    "midi": 62,
                    "time": 20.00000699999999,
                    "velocity": 0.3543307086614173,
                    "duration": 0.13071899999999914
                },
                {
                    "name": "B3",
                    "midi": 59,
                    "time": 20.13072599999999,
                    "velocity": 0.4251968503937008,
                    "duration": 0.13071899999999914
                },
                {
                    "name": "D4",
                    "midi": 62,
                    "time": 20.261444999999988,
                    "velocity": 0.30708661417322836,
                    "duration": 0.13071899999999914
                },
                {
                    "name": "A3",
                    "midi": 57,
                    "time": 20.392163999999987,
                    "velocity": 0.3858267716535433,
                    "duration": 0.13071899999999914
                },
                {
                    "name": "D4",
                    "midi": 62,
                    "time": 20.522882999999986,
                    "velocity": 0.2992125984251969,
                    "duration": 0.13071899999999914
                },
                {
                    "name": "A3",
                    "midi": 57,
                    "time": 20.653601999999985,
                    "velocity": 0.3858267716535433,
                    "duration": 0.13071899999999914
                },
                {
                    "name": "D4",
                    "midi": 62,
                    "time": 20.784320999999984,
                    "velocity": 0.33858267716535434,
                    "duration": 0.13071899999999914
                },
                {
                    "name": "G3",
                    "midi": 55,
                    "time": 20.915039999999983,
                    "velocity": 0.4094488188976378,
                    "duration": 0.13071899999999914
                },
                {
                    "name": "D4",
                    "midi": 62,
                    "time": 21.045758999999983,
                    "velocity": 0.3543307086614173,
                    "duration": 0.13071899999999914
                },
                {
                    "name": "G3",
                    "midi": 55,
                    "time": 21.17647799999998,
                    "velocity": 0.4251968503937008,
                    "duration": 0.13071899999999914
                },
                {
                    "name": "D4",
                    "midi": 62,
                    "time": 21.30719699999998,
                    "velocity": 0.30708661417322836,
                    "duration": 0.13071899999999914
                },
                {
                    "name": "F#3",
                    "midi": 54,
                    "time": 21.43791599999998,
                    "velocity": 0.3858267716535433,
                    "duration": 0.13071899999999914
                },
                {
                    "name": "D4",
                    "midi": 62,
                    "time": 21.56863499999998,
                    "velocity": 0.2992125984251969,
                    "duration": 0.13071899999999914
                },
                {
                    "name": "F#3",
                    "midi": 54,
                    "time": 21.69935399999998,
                    "velocity": 0.3858267716535433,
                    "duration": 0.13071899999999914
                },
                {
                    "name": "D4",
                    "midi": 62,
                    "time": 21.830072999999977,
                    "velocity": 0.33858267716535434,
                    "duration": 0.13071899999999914
                },
                {
                    "name": "B3",
                    "midi": 59,
                    "time": 21.960791999999977,
                    "velocity": 0.4094488188976378,
                    "duration": 0.13071899999999914
                },
                {
                    "name": "D4",
                    "midi": 62,
                    "time": 22.091510999999976,
                    "velocity": 0.3543307086614173,
                    "duration": 0.13071899999999914
                },
                {
                    "name": "B3",
                    "midi": 59,
                    "time": 22.222229999999975,
                    "velocity": 0.4251968503937008,
                    "duration": 0.13071899999999914
                },
                {
                    "name": "D4",
                    "midi": 62,
                    "time": 22.352948999999974,
                    "velocity": 0.30708661417322836,
                    "duration": 0.13071899999999914
                },
                {
                    "name": "A3",
                    "midi": 57,
                    "time": 22.483667999999973,
                    "velocity": 0.3858267716535433,
                    "duration": 0.13071899999999914
                },
                {
                    "name": "D4",
                    "midi": 62,
                    "time": 22.614386999999972,
                    "velocity": 0.2992125984251969,
                    "duration": 0.13071899999999914
                },
                {
                    "name": "A3",
                    "midi": 57,
                    "time": 22.74510599999997,
                    "velocity": 0.3858267716535433,
                    "duration": 0.13071899999999914
                },
                {
                    "name": "D4",
                    "midi": 62,
                    "time": 22.87582499999997,
                    "velocity": 0.33858267716535434,
                    "duration": 0.13071899999999914
                },
                {
                    "name": "G3",
                    "midi": 55,
                    "time": 23.00654399999997,
                    "velocity": 0.4094488188976378,
                    "duration": 0.5228760000000001
                },
                {
                    "name": "G3",
                    "midi": 55,
                    "time": 23.790857999999968,
                    "velocity": 0.31496062992125984,
                    "duration": 0.2614379999999983
                },
                {
                    "name": "G2",
                    "midi": 43,
                    "time": 23.790857999999968,
                    "velocity": 0.2677165354330709,
                    "duration": 0.2614379999999983
                },
                {
                    "name": "F#3",
                    "midi": 54,
                    "time": 24.052295999999966,
                    "velocity": 0.3779527559055118,
                    "duration": 1.0457520000000002
                },
                {
                    "name": "A2",
                    "midi": 45,
                    "time": 24.052295999999966,
                    "velocity": 0.31496062992125984,
                    "duration": 1.3071899999999985
                },
                {
                    "name": "E3",
                    "midi": 52,
                    "time": 25.098047999999967,
                    "velocity": 0.3543307086614173,
                    "duration": 0.2614379999999983
                },
                {
                    "name": "A2",
                    "midi": 45,
                    "time": 26.143799999999963,
                    "velocity": 0.49606299212598426,
                    "duration": 0.2614379999999983
                },
                {
                    "name": "C#3",
                    "midi": 49,
                    "time": 26.143799999999963,
                    "velocity": 0.49606299212598426,
                    "duration": 0.2614379999999983
                },
                {
                    "name": "A3",
                    "midi": 57,
                    "time": 26.143799999999963,
                    "velocity": 0.5905511811023622,
                    "duration": 0.2614379999999983
                },
                {
                    "name": "E3",
                    "midi": 52,
                    "time": 26.143799999999963,
                    "velocity": 0.49606299212598426,
                    "duration": 0.2614379999999983
                },
                {
                    "name": "A2",
                    "midi": 45,
                    "time": 26.66667599999996,
                    "velocity": 0.49606299212598426,
                    "duration": 0.2614379999999983
                },
                {
                    "name": "C#3",
                    "midi": 49,
                    "time": 26.66667599999996,
                    "velocity": 0.49606299212598426,
                    "duration": 0.2614379999999983
                },
                {
                    "name": "A3",
                    "midi": 57,
                    "time": 26.66667599999996,
                    "velocity": 0.5905511811023622,
                    "duration": 0.2614379999999983
                },
                {
                    "name": "E3",
                    "midi": 52,
                    "time": 26.66667599999996,
                    "velocity": 0.49606299212598426,
                    "duration": 0.2614379999999983
                },
                {
                    "name": "A2",
                    "midi": 45,
                    "time": 27.189551999999956,
                    "velocity": 0.49606299212598426,
                    "duration": 0.2614379999999983
                },
                {
                    "name": "C#3",
                    "midi": 49,
                    "time": 27.189551999999956,
                    "velocity": 0.49606299212598426,
                    "duration": 0.2614379999999983
                },
                {
                    "name": "A3",
                    "midi": 57,
                    "time": 27.189551999999956,
                    "velocity": 0.5905511811023622,
                    "duration": 0.2614379999999983
                },
                {
                    "name": "E3",
                    "midi": 52,
                    "time": 27.189551999999956,
                    "velocity": 0.49606299212598426,
                    "duration": 0.2614379999999983
                },
                {
                    "name": "A2",
                    "midi": 45,
                    "time": 28.235303999999953,
                    "velocity": 0.36220472440944884,
                    "duration": 0.13071899999999914
                },
                {
                    "name": "E3",
                    "midi": 52,
                    "time": 28.366022999999952,
                    "velocity": 0.2992125984251969,
                    "duration": 0.13071899999999914
                },
                {
                    "name": "D3",
                    "midi": 50,
                    "time": 28.49674199999995,
                    "velocity": 0.36220472440944884,
                    "duration": 0.13071899999999914
                },
                {
                    "name": "E3",
                    "midi": 52,
                    "time": 28.62746099999995,
                    "velocity": 0.30708661417322836,
                    "duration": 0.13071899999999914
                },
                {
                    "name": "C#3",
                    "midi": 49,
                    "time": 28.75817999999995,
                    "velocity": 0.3700787401574803,
                    "duration": 0.13071899999999914
                },
                {
                    "name": "E3",
                    "midi": 52,
                    "time": 28.88889899999995,
                    "velocity": 0.2992125984251969,
                    "duration": 0.13071899999999914
                },
                {
                    "name": "A2",
                    "midi": 45,
                    "time": 29.019617999999948,
                    "velocity": 0.3858267716535433,
                    "duration": 0.13071899999999914
                },
                {
                    "name": "C#3",
                    "midi": 49,
                    "time": 29.150336999999947,
                    "velocity": 0.3228346456692913,
                    "duration": 0.13071899999999914
                },
                {
                    "name": "D3",
                    "midi": 50,
                    "time": 29.281055999999946,
                    "velocity": 0.36220472440944884,
                    "duration": 0.5228760000000001
                },
                {
                    "name": "D#3",
                    "midi": 51,
                    "time": 30.326807999999946,
                    "velocity": 0.36220472440944884,
                    "duration": 0.13071899999999914
                },
                {
                    "name": "F#3",
                    "midi": 54,
                    "time": 30.457526999999946,
                    "velocity": 0.2992125984251969,
                    "duration": 0.13071899999999914
                },
                {
                    "name": "E3",
                    "midi": 52,
                    "time": 30.588245999999945,
                    "velocity": 0.36220472440944884,
                    "duration": 0.13071899999999914
                },
                {
                    "name": "F#3",
                    "midi": 54,
                    "time": 30.718964999999944,
                    "velocity": 0.30708661417322836,
                    "duration": 0.13071899999999914
                },
                {
                    "name": "D#3",
                    "midi": 51,
                    "time": 30.849683999999943,
                    "velocity": 0.3700787401574803,
                    "duration": 0.13071899999999914
                },
                {
                    "name": "F#3",
                    "midi": 54,
                    "time": 30.980402999999942,
                    "velocity": 0.2992125984251969,
                    "duration": 0.13071899999999914
                },
                {
                    "name": "B2",
                    "midi": 47,
                    "time": 31.11112199999994,
                    "velocity": 0.3858267716535433,
                    "duration": 0.13071899999999914
                },
                {
                    "name": "D#3",
                    "midi": 51,
                    "time": 31.24184099999994,
                    "velocity": 0.3228346456692913,
                    "duration": 0.13071899999999914
                },
                {
                    "name": "E3",
                    "midi": 52,
                    "time": 31.37255999999994,
                    "velocity": 0.36220472440944884,
                    "duration": 0.5228760000000001
                },
                {
                    "name": "F#3",
                    "midi": 54,
                    "time": 32.418311999999936,
                    "velocity": 0.4094488188976378,
                    "duration": 0.13071899999999914
                },
                {
                    "name": "C4",
                    "midi": 60,
                    "time": 32.549030999999935,
                    "velocity": 0.3543307086614173,
                    "duration": 0.13071899999999914
                },
                {
                    "name": "F#3",
                    "midi": 54,
                    "time": 32.679749999999935,
                    "velocity": 0.4251968503937008,
                    "duration": 0.13071899999999914
                },
                {
                    "name": "C4",
                    "midi": 60,
                    "time": 32.810468999999934,
                    "velocity": 0.2992125984251969,
                    "duration": 0.13071899999999914
                },
                {
                    "name": "F#3",
                    "midi": 54,
                    "time": 32.94118799999993,
                    "velocity": 0.3543307086614173,
                    "duration": 0.13071899999999914
                },
                {
                    "name": "C4",
                    "midi": 60,
                    "time": 33.07190699999993,
                    "velocity": 0.25984251968503935,
                    "duration": 0.13071899999999914
                },
                {
                    "name": "F#3",
                    "midi": 54,
                    "time": 33.20262599999993,
                    "velocity": 0.33070866141732286,
                    "duration": 0.13071899999999914
                },
                {
                    "name": "C4",
                    "midi": 60,
                    "time": 33.33334499999993,
                    "velocity": 0.2755905511811024,
                    "duration": 0.13071899999999914
                },
                {
                    "name": "G#3",
                    "midi": 56,
                    "time": 33.46406399999993,
                    "velocity": 0.4094488188976378,
                    "duration": 0.13071899999999914
                },
                {
                    "name": "B3",
                    "midi": 59,
                    "time": 33.59478299999993,
                    "velocity": 0.3543307086614173,
                    "duration": 0.13071899999999914
                },
                {
                    "name": "G#3",
                    "midi": 56,
                    "time": 33.72550199999993,
                    "velocity": 0.4251968503937008,
                    "duration": 0.13071899999999914
                },
                {
                    "name": "B3",
                    "midi": 59,
                    "time": 33.85622099999993,
                    "velocity": 0.30708661417322836,
                    "duration": 0.13071899999999914
                },
                {
                    "name": "G#3",
                    "midi": 56,
                    "time": 33.986939999999926,
                    "velocity": 0.3858267716535433,
                    "duration": 0.13071899999999914
                },
                {
                    "name": "B3",
                    "midi": 59,
                    "time": 34.117658999999925,
                    "velocity": 0.2992125984251969,
                    "duration": 0.13071899999999914
                },
                {
                    "name": "G#3",
                    "midi": 56,
                    "time": 34.248377999999924,
                    "velocity": 0.3858267716535433,
                    "duration": 0.13071899999999914
                },
                {
                    "name": "B3",
                    "midi": 59,
                    "time": 34.37909699999992,
                    "velocity": 0.33858267716535434,
                    "duration": 0.13071899999999914
                },
                {
                    "name": "F#3",
                    "midi": 54,
                    "time": 34.50981599999992,
                    "velocity": 0.4094488188976378,
                    "duration": 0.13071899999999914
                },
                {
                    "name": "C4",
                    "midi": 60,
                    "time": 34.64053499999992,
                    "velocity": 0.3543307086614173,
                    "duration": 0.13071899999999914
                },
                {
                    "name": "F#3",
                    "midi": 54,
                    "time": 34.77125399999992,
                    "velocity": 0.4251968503937008,
                    "duration": 0.13071899999999914
                },
                {
                    "name": "C4",
                    "midi": 60,
                    "time": 34.90197299999992,
                    "velocity": 0.2992125984251969,
                    "duration": 0.13071899999999914
                },
                {
                    "name": "F#3",
                    "midi": 54,
                    "time": 35.03269199999992,
                    "velocity": 0.36220472440944884,
                    "duration": 0.13071899999999914
                },
                {
                    "name": "C4",
                    "midi": 60,
                    "time": 35.16341099999992,
                    "velocity": 0.29133858267716534,
                    "duration": 0.13071899999999914
                },
                {
                    "name": "F#3",
                    "midi": 54,
                    "time": 35.29412999999992,
                    "velocity": 0.36220472440944884,
                    "duration": 0.13071899999999914
                },
                {
                    "name": "C4",
                    "midi": 60,
                    "time": 35.42484899999992,
                    "velocity": 0.29133858267716534,
                    "duration": 0.13071899999999914
                },
                {
                    "name": "G#3",
                    "midi": 56,
                    "time": 35.555567999999916,
                    "velocity": 0.4094488188976378,
                    "duration": 0.13071899999999914
                },
                {
                    "name": "B3",
                    "midi": 59,
                    "time": 35.686286999999915,
                    "velocity": 0.3543307086614173,
                    "duration": 0.13071899999999914
                },
                {
                    "name": "G#3",
                    "midi": 56,
                    "time": 35.817005999999914,
                    "velocity": 0.4251968503937008,
                    "duration": 0.13071899999999914
                },
                {
                    "name": "B3",
                    "midi": 59,
                    "time": 35.94772499999991,
                    "velocity": 0.30708661417322836,
                    "duration": 0.13071899999999914
                },
                {
                    "name": "G#3",
                    "midi": 56,
                    "time": 36.07844399999991,
                    "velocity": 0.3858267716535433,
                    "duration": 0.13071899999999914
                },
                {
                    "name": "B3",
                    "midi": 59,
                    "time": 36.20916299999991,
                    "velocity": 0.2992125984251969,
                    "duration": 0.13071899999999914
                },
                {
                    "name": "G#3",
                    "midi": 56,
                    "time": 36.33988199999991,
                    "velocity": 0.3858267716535433,
                    "duration": 0.13071899999999914
                },
                {
                    "name": "B3",
                    "midi": 59,
                    "time": 36.47060099999991,
                    "velocity": 0.33858267716535434,
                    "duration": 0.13071899999999914
                },
                {
                    "name": "A3",
                    "midi": 57,
                    "time": 36.60131999999991,
                    "velocity": 0.4094488188976378,
                    "duration": 0.13071899999999914
                },
                {
                    "name": "C#4",
                    "midi": 61,
                    "time": 36.73203899999991,
                    "velocity": 0.3543307086614173,
                    "duration": 0.13071899999999914
                },
                {
                    "name": "A3",
                    "midi": 57,
                    "time": 36.86275799999991,
                    "velocity": 0.4251968503937008,
                    "duration": 0.13071899999999914
                },
                {
                    "name": "C#4",
                    "midi": 61,
                    "time": 36.993476999999906,
                    "velocity": 0.25984251968503935,
                    "duration": 0.13071899999999914
                },
                {
                    "name": "A3",
                    "midi": 57,
                    "time": 37.124195999999905,
                    "velocity": 0.33858267716535434,
                    "duration": 0.13071899999999914
                },
                {
                    "name": "C#4",
                    "midi": 61,
                    "time": 37.254914999999905,
                    "velocity": 0.2992125984251969,
                    "duration": 0.13071899999999914
                },
                {
                    "name": "A3",
                    "midi": 57,
                    "time": 37.385633999999904,
                    "velocity": 0.33858267716535434,
                    "duration": 0.13071899999999914
                },
                {
                    "name": "C#4",
                    "midi": 61,
                    "time": 37.5163529999999,
                    "velocity": 0.2992125984251969,
                    "duration": 0.13071899999999914
                },
                {
                    "name": "B3",
                    "midi": 59,
                    "time": 37.6470719999999,
                    "velocity": 0.4094488188976378,
                    "duration": 0.13071899999999914
                },
                {
                    "name": "D4",
                    "midi": 62,
                    "time": 37.7777909999999,
                    "velocity": 0.3543307086614173,
                    "duration": 0.13071899999999914
                },
                {
                    "name": "B3",
                    "midi": 59,
                    "time": 37.9085099999999,
                    "velocity": 0.4251968503937008,
                    "duration": 0.13071899999999914
                },
                {
                    "name": "D4",
                    "midi": 62,
                    "time": 38.0392289999999,
                    "velocity": 0.30708661417322836,
                    "duration": 0.13071899999999914
                },
                {
                    "name": "B3",
                    "midi": 59,
                    "time": 38.1699479999999,
                    "velocity": 0.3858267716535433,
                    "duration": 0.13071899999999914
                },
                {
                    "name": "D4",
                    "midi": 62,
                    "time": 38.3006669999999,
                    "velocity": 0.2992125984251969,
                    "duration": 0.13071899999999914
                },
                {
                    "name": "B3",
                    "midi": 59,
                    "time": 38.4313859999999,
                    "velocity": 0.3858267716535433,
                    "duration": 0.13071899999999914
                },
                {
                    "name": "D4",
                    "midi": 62,
                    "time": 38.562104999999896,
                    "velocity": 0.33858267716535434,
                    "duration": 0.13071899999999914
                },
                {
                    "name": "C#4",
                    "midi": 61,
                    "time": 38.692823999999895,
                    "velocity": 0.4094488188976378,
                    "duration": 0.13071899999999914
                },
                {
                    "name": "E4",
                    "midi": 64,
                    "time": 38.823542999999894,
                    "velocity": 0.3543307086614173,
                    "duration": 0.13071899999999914
                },
                {
                    "name": "C#4",
                    "midi": 61,
                    "time": 38.95426199999989,
                    "velocity": 0.4251968503937008,
                    "duration": 0.13071899999999914
                },
                {
                    "name": "E4",
                    "midi": 64,
                    "time": 39.08498099999989,
                    "velocity": 0.30708661417322836,
                    "duration": 0.13071899999999914
                },
                {
                    "name": "C#4",
                    "midi": 61,
                    "time": 39.21569999999989,
                    "velocity": 0.3858267716535433,
                    "duration": 0.13071899999999914
                },
                {
                    "name": "E4",
                    "midi": 64,
                    "time": 39.34641899999989,
                    "velocity": 0.2992125984251969,
                    "duration": 0.13071899999999914
                },
                {
                    "name": "C#4",
                    "midi": 61,
                    "time": 39.47713799999989,
                    "velocity": 0.3858267716535433,
                    "duration": 0.13071899999999914
                },
                {
                    "name": "E4",
                    "midi": 64,
                    "time": 39.60785699999989,
                    "velocity": 0.33858267716535434,
                    "duration": 0.13071899999999914
                },
                {
                    "name": "G#3",
                    "midi": 56,
                    "time": 39.73857599999989,
                    "velocity": 0.4094488188976378,
                    "duration": 0.13071899999999914
                },
                {
                    "name": "E4",
                    "midi": 64,
                    "time": 39.86929499999989,
                    "velocity": 0.3543307086614173,
                    "duration": 0.13071899999999914
                },
                {
                    "name": "G#3",
                    "midi": 56,
                    "time": 40.00001399999989,
                    "velocity": 0.4251968503937008,
                    "duration": 0.13071899999999914
                },
                {
                    "name": "E4",
                    "midi": 64,
                    "time": 40.130732999999886,
                    "velocity": 0.30708661417322836,
                    "duration": 0.13071899999999914
                },
                {
                    "name": "G#3",
                    "midi": 56,
                    "time": 40.261451999999885,
                    "velocity": 0.3858267716535433,
                    "duration": 0.13071899999999914
                },
                {
                    "name": "E4",
                    "midi": 64,
                    "time": 40.392170999999884,
                    "velocity": 0.2992125984251969,
                    "duration": 0.13071899999999914
                },
                {
                    "name": "G#3",
                    "midi": 56,
                    "time": 40.52288999999988,
                    "velocity": 0.3858267716535433,
                    "duration": 0.13071899999999914
                },
                {
                    "name": "E4",
                    "midi": 64,
                    "time": 40.65360899999988,
                    "velocity": 0.33858267716535434,
                    "duration": 0.13071899999999914
                },
                {
                    "name": "A3",
                    "midi": 57,
                    "time": 40.78432799999988,
                    "velocity": 0.4094488188976378,
                    "duration": 0.5228759999999966
                },
                {
                    "name": "G#3",
                    "midi": 56,
                    "time": 41.830079999999874,
                    "velocity": 0.4094488188976378,
                    "duration": 0.5228759999999966
                },
                {
                    "name": "B3",
                    "midi": 59,
                    "time": 41.830079999999874,
                    "velocity": 0.4094488188976378,
                    "duration": 0.5228759999999966
                },
                {
                    "name": "A2",
                    "midi": 45,
                    "time": 42.87583199999987,
                    "velocity": 0.4094488188976378,
                    "duration": 0.5228759999999966
                },
                {
                    "name": "A3",
                    "midi": 57,
                    "time": 42.87583199999987,
                    "velocity": 0.4094488188976378,
                    "duration": 0.5228759999999966
                },
                {
                    "name": "E3",
                    "midi": 52,
                    "time": 43.92158399999986,
                    "velocity": 0.4251968503937008,
                    "duration": 0.13071899999999914
                },
                {
                    "name": "D#3",
                    "midi": 51,
                    "time": 44.05230299999986,
                    "velocity": 0.3937007874015748,
                    "duration": 0.13071899999999914
                },
                {
                    "name": "E3",
                    "midi": 52,
                    "time": 44.18302199999986,
                    "velocity": 0.3937007874015748,
                    "duration": 0.13071899999999914
                },
                {
                    "name": "F#3",
                    "midi": 54,
                    "time": 44.31374099999986,
                    "velocity": 0.3937007874015748,
                    "duration": 0.13071899999999914
                },
                {
                    "name": "E3",
                    "midi": 52,
                    "time": 44.44445999999986,
                    "velocity": 0.4330708661417323,
                    "duration": 0.13071899999999914
                },
                {
                    "name": "D3",
                    "midi": 50,
                    "time": 44.575178999999856,
                    "velocity": 0.3858267716535433,
                    "duration": 0.13071899999999914
                },
                {
                    "name": "C#3",
                    "midi": 49,
                    "time": 44.705897999999856,
                    "velocity": 0.3858267716535433,
                    "duration": 0.13071899999999914
                },
                {
                    "name": "B2",
                    "midi": 47,
                    "time": 44.836616999999855,
                    "velocity": 0.3858267716535433,
                    "duration": 0.13071899999999914
                },
                {
                    "name": "A2",
                    "midi": 45,
                    "time": 44.967335999999854,
                    "velocity": 0.44881889763779526,
                    "duration": 0.5228759999999966
                },
                {
                    "name": "D4",
                    "midi": 62,
                    "time": 46.01308799999985,
                    "velocity": 0.44881889763779526,
                    "duration": 0.5228759999999966
                },
                {
                    "name": "D2",
                    "midi": 38,
                    "time": 47.05883999999984,
                    "velocity": 0.44881889763779526,
                    "duration": 0.5228759999999966
                },
                {
                    "name": "A3",
                    "midi": 57,
                    "time": 49.41178199999984,
                    "velocity": 0.30708661417322836,
                    "duration": 0.5228759999999966
                },
                {
                    "name": "C#3",
                    "midi": 49,
                    "time": 49.41178199999984,
                    "velocity": 0.25196850393700787,
                    "duration": 0.2614379999999983
                },
                {
                    "name": "D3",
                    "midi": 50,
                    "time": 49.67321999999984,
                    "velocity": 0.30708661417322836,
                    "duration": 0.2614379999999983
                },
                {
                    "name": "E3",
                    "midi": 52,
                    "time": 49.934657999999835,
                    "velocity": 0.25196850393700787,
                    "duration": 0.2614379999999983
                },
                {
                    "name": "G#3",
                    "midi": 56,
                    "time": 49.934657999999835,
                    "velocity": 0.30708661417322836,
                    "duration": 0.2614379999999983
                },
                {
                    "name": "A3",
                    "midi": 57,
                    "time": 50.196095999999834,
                    "velocity": 0.44881889763779526,
                    "duration": 0.2614379999999983
                },
                {
                    "name": "A2",
                    "midi": 45,
                    "time": 50.196095999999834,
                    "velocity": 0.3779527559055118,
                    "duration": 0.2614379999999983
                },
                {
                    "name": "C#4",
                    "midi": 61,
                    "time": 50.71897199999983,
                    "velocity": 0.30708661417322836,
                    "duration": 0.2614379999999983
                },
                {
                    "name": "D4",
                    "midi": 62,
                    "time": 51.24184799999983,
                    "velocity": 0.44881889763779526,
                    "duration": 0.5228759999999966
                },
                {
                    "name": "D3",
                    "midi": 50,
                    "time": 52.28759999999982,
                    "velocity": 0.44881889763779526,
                    "duration": 0.5228759999999966
                },
                {
                    "name": "D4",
                    "midi": 62,
                    "time": 57.516359999999814,
                    "velocity": 0.33070866141732286,
                    "duration": 0.13071899999999914
                },
                {
                    "name": "F#4",
                    "midi": 66,
                    "time": 57.516359999999814,
                    "velocity": 0.33070866141732286,
                    "duration": 0.13071899999999914
                },
                {
                    "name": "B4",
                    "midi": 71,
                    "time": 57.516359999999814,
                    "velocity": 0.3937007874015748,
                    "duration": 0.13071899999999914
                },
                {
                    "name": "D4",
                    "midi": 62,
                    "time": 57.77779799999981,
                    "velocity": 0.29133858267716534,
                    "duration": 0.13071899999999914
                },
                {
                    "name": "F#4",
                    "midi": 66,
                    "time": 57.77779799999981,
                    "velocity": 0.29133858267716534,
                    "duration": 0.13071899999999914
                },
                {
                    "name": "B4",
                    "midi": 71,
                    "time": 57.77779799999981,
                    "velocity": 0.3543307086614173,
                    "duration": 0.13071899999999914
                },
                {
                    "name": "D4",
                    "midi": 62,
                    "time": 58.03923599999981,
                    "velocity": 0.29133858267716534,
                    "duration": 0.13071899999999914
                },
                {
                    "name": "F#4",
                    "midi": 66,
                    "time": 58.03923599999981,
                    "velocity": 0.29133858267716534,
                    "duration": 0.13071899999999914
                },
                {
                    "name": "B4",
                    "midi": 71,
                    "time": 58.03923599999981,
                    "velocity": 0.3543307086614173,
                    "duration": 0.13071899999999914
                },
                {
                    "name": "D4",
                    "midi": 62,
                    "time": 58.30067399999981,
                    "velocity": 0.29133858267716534,
                    "duration": 0.13071899999999914
                },
                {
                    "name": "F#4",
                    "midi": 66,
                    "time": 58.30067399999981,
                    "velocity": 0.29133858267716534,
                    "duration": 0.13071899999999914
                },
                {
                    "name": "B4",
                    "midi": 71,
                    "time": 58.30067399999981,
                    "velocity": 0.3543307086614173,
                    "duration": 0.13071899999999914
                },
                {
                    "name": "E4",
                    "midi": 64,
                    "time": 58.56211199999981,
                    "velocity": 0.33070866141732286,
                    "duration": 0.13071899999999914
                },
                {
                    "name": "A4",
                    "midi": 69,
                    "time": 58.56211199999981,
                    "velocity": 0.33070866141732286,
                    "duration": 0.13071899999999914
                },
                {
                    "name": "C#5",
                    "midi": 73,
                    "time": 58.56211199999981,
                    "velocity": 0.3937007874015748,
                    "duration": 0.13071899999999914
                },
                {
                    "name": "E4",
                    "midi": 64,
                    "time": 58.823549999999805,
                    "velocity": 0.29133858267716534,
                    "duration": 0.13071899999999914
                },
                {
                    "name": "A4",
                    "midi": 69,
                    "time": 58.823549999999805,
                    "velocity": 0.29133858267716534,
                    "duration": 0.13071899999999914
                },
                {
                    "name": "C#5",
                    "midi": 73,
                    "time": 58.823549999999805,
                    "velocity": 0.3543307086614173,
                    "duration": 0.13071899999999914
                },
                {
                    "name": "E4",
                    "midi": 64,
                    "time": 59.084987999999804,
                    "velocity": 0.29133858267716534,
                    "duration": 0.13071899999999914
                },
                {
                    "name": "A4",
                    "midi": 69,
                    "time": 59.084987999999804,
                    "velocity": 0.29133858267716534,
                    "duration": 0.13071899999999914
                },
                {
                    "name": "C#5",
                    "midi": 73,
                    "time": 59.084987999999804,
                    "velocity": 0.3543307086614173,
                    "duration": 0.13071899999999914
                },
                {
                    "name": "E4",
                    "midi": 64,
                    "time": 59.3464259999998,
                    "velocity": 0.29133858267716534,
                    "duration": 0.13071899999999914
                },
                {
                    "name": "A4",
                    "midi": 69,
                    "time": 59.3464259999998,
                    "velocity": 0.29133858267716534,
                    "duration": 0.13071899999999914
                },
                {
                    "name": "C#5",
                    "midi": 73,
                    "time": 59.3464259999998,
                    "velocity": 0.3543307086614173,
                    "duration": 0.13071899999999914
                },
                {
                    "name": "E4",
                    "midi": 64,
                    "time": 59.6078639999998,
                    "velocity": 0.3937007874015748,
                    "duration": 0.13071899999999914
                },
                {
                    "name": "G#4",
                    "midi": 68,
                    "time": 59.6078639999998,
                    "velocity": 0.3937007874015748,
                    "duration": 0.13071899999999914
                },
                {
                    "name": "E4",
                    "midi": 64,
                    "time": 59.8693019999998,
                    "velocity": 0.3543307086614173,
                    "duration": 0.13071899999999914
                },
                {
                    "name": "G#4",
                    "midi": 68,
                    "time": 59.8693019999998,
                    "velocity": 0.3543307086614173,
                    "duration": 0.13071899999999914
                },
                {
                    "name": "E4",
                    "midi": 64,
                    "time": 60.1307399999998,
                    "velocity": 0.3543307086614173,
                    "duration": 0.13071899999999914
                },
                {
                    "name": "G#4",
                    "midi": 68,
                    "time": 60.1307399999998,
                    "velocity": 0.3543307086614173,
                    "duration": 0.13071899999999914
                },
                {
                    "name": "E4",
                    "midi": 64,
                    "time": 60.392177999999795,
                    "velocity": 0.3543307086614173,
                    "duration": 0.13071899999999914
                },
                {
                    "name": "G#4",
                    "midi": 68,
                    "time": 60.392177999999795,
                    "velocity": 0.3543307086614173,
                    "duration": 0.13071899999999914
                },
                {
                    "name": "A3",
                    "midi": 57,
                    "time": 60.65361599999979,
                    "velocity": 0.44881889763779526,
                    "duration": 0.13071899999999914
                },
                {
                    "name": "A4",
                    "midi": 69,
                    "time": 60.78433499999979,
                    "velocity": 0.3700787401574803,
                    "duration": 0.13071899999999914
                },
                {
                    "name": "G#4",
                    "midi": 68,
                    "time": 60.91505399999979,
                    "velocity": 0.3937007874015748,
                    "duration": 0.13071899999999914
                },
                {
                    "name": "A4",
                    "midi": 69,
                    "time": 61.04577299999979,
                    "velocity": 0.3700787401574803,
                    "duration": 0.13071899999999914
                },
                {
                    "name": "C#4",
                    "midi": 61,
                    "time": 61.17649199999979,
                    "velocity": 0.44881889763779526,
                    "duration": 0.13071899999999914
                },
                {
                    "name": "A4",
                    "midi": 69,
                    "time": 61.30721099999979,
                    "velocity": 0.3779527559055118,
                    "duration": 0.13071899999999914
                },
                {
                    "name": "G#4",
                    "midi": 68,
                    "time": 61.43792999999979,
                    "velocity": 0.3937007874015748,
                    "duration": 0.13071899999999914
                },
                {
                    "name": "A4",
                    "midi": 69,
                    "time": 61.56864899999979,
                    "velocity": 0.3700787401574803,
                    "duration": 0.13071899999999914
                },
                {
                    "name": "D4",
                    "midi": 62,
                    "time": 61.69936799999979,
                    "velocity": 0.44881889763779526,
                    "duration": 0.13071899999999914
                },
                {
                    "name": "A4",
                    "midi": 69,
                    "time": 61.830086999999786,
                    "velocity": 0.3700787401574803,
                    "duration": 0.13071899999999914
                },
                {
                    "name": "C#4",
                    "midi": 61,
                    "time": 61.960805999999785,
                    "velocity": 0.3937007874015748,
                    "duration": 0.13071899999999914
                },
                {
                    "name": "A4",
                    "midi": 69,
                    "time": 62.091524999999784,
                    "velocity": 0.3700787401574803,
                    "duration": 0.13071899999999914
                },
                {
                    "name": "D4",
                    "midi": 62,
                    "time": 62.22224399999978,
                    "velocity": 0.44881889763779526,
                    "duration": 0.13071899999999914
                },
                {
                    "name": "A4",
                    "midi": 69,
                    "time": 62.35296299999978,
                    "velocity": 0.3779527559055118,
                    "duration": 0.13071899999999914
                },
                {
                    "name": "C#4",
                    "midi": 61,
                    "time": 62.48368199999978,
                    "velocity": 0.3937007874015748,
                    "duration": 0.13071899999999914
                },
                {
                    "name": "A4",
                    "midi": 69,
                    "time": 62.61440099999978,
                    "velocity": 0.3700787401574803,
                    "duration": 0.13071899999999914
                },
                {
                    "name": "B3",
                    "midi": 59,
                    "time": 62.74511999999978,
                    "velocity": 0.3779527559055118,
                    "duration": 0.5228759999999966
                },
                {
                    "name": "G#4",
                    "midi": 68,
                    "time": 62.74511999999978,
                    "velocity": 0.44881889763779526,
                    "duration": 0.5228759999999966
                },
                {
                    "name": "D4",
                    "midi": 62,
                    "time": 63.79087199999977,
                    "velocity": 0.44881889763779526,
                    "duration": 0.2614380000000054
                },
                {
                    "name": "F#4",
                    "midi": 66,
                    "time": 63.79087199999977,
                    "velocity": 0.44881889763779526,
                    "duration": 0.2614380000000054
                },
                {
                    "name": "E3",
                    "midi": 52,
                    "time": 64.31374799999978,
                    "velocity": 0.3779527559055118,
                    "duration": 0.2614379999999983
                },
                {
                    "name": "E4",
                    "midi": 64,
                    "time": 64.31374799999978,
                    "velocity": 0.44881889763779526,
                    "duration": 0.2614379999999983
                },
                {
                    "name": "A3",
                    "midi": 57,
                    "time": 64.83662399999977,
                    "velocity": 0.44881889763779526,
                    "duration": 0.13071899999999914
                },
                {
                    "name": "A4",
                    "midi": 69,
                    "time": 64.96734299999977,
                    "velocity": 0.3700787401574803,
                    "duration": 0.13071899999999914
                },
                {
                    "name": "G#4",
                    "midi": 68,
                    "time": 65.09806199999977,
                    "velocity": 0.3937007874015748,
                    "duration": 0.13071899999999914
                },
                {
                    "name": "A4",
                    "midi": 69,
                    "time": 65.22878099999977,
                    "velocity": 0.3700787401574803,
                    "duration": 0.13071899999999914
                },
                {
                    "name": "C#4",
                    "midi": 61,
                    "time": 65.35949999999977,
                    "velocity": 0.44881889763779526,
                    "duration": 0.13071899999999914
                },
                {
                    "name": "A4",
                    "midi": 69,
                    "time": 65.49021899999977,
                    "velocity": 0.3779527559055118,
                    "duration": 0.13071899999999914
                },
                {
                    "name": "G#4",
                    "midi": 68,
                    "time": 65.62093799999977,
                    "velocity": 0.3937007874015748,
                    "duration": 0.13071899999999914
                },
                {
                    "name": "A4",
                    "midi": 69,
                    "time": 65.75165699999977,
                    "velocity": 0.3700787401574803,
                    "duration": 0.13071899999999914
                },
                {
                    "name": "D4",
                    "midi": 62,
                    "time": 65.88237599999977,
                    "velocity": 0.44881889763779526,
                    "duration": 0.13071899999999914
                },
                {
                    "name": "A4",
                    "midi": 69,
                    "time": 66.01309499999977,
                    "velocity": 0.3700787401574803,
                    "duration": 0.13071899999999914
                },
                {
                    "name": "C#4",
                    "midi": 61,
                    "time": 66.14381399999976,
                    "velocity": 0.3937007874015748,
                    "duration": 0.13071899999999914
                },
                {
                    "name": "A4",
                    "midi": 69,
                    "time": 66.27453299999976,
                    "velocity": 0.3700787401574803,
                    "duration": 0.13071899999999914
                },
                {
                    "name": "D4",
                    "midi": 62,
                    "time": 66.40525199999976,
                    "velocity": 0.44881889763779526,
                    "duration": 0.13071899999999914
                },
                {
                    "name": "A4",
                    "midi": 69,
                    "time": 66.53597099999976,
                    "velocity": 0.3779527559055118,
                    "duration": 0.13071899999999914
                },
                {
                    "name": "C#4",
                    "midi": 61,
                    "time": 66.66668999999976,
                    "velocity": 0.3937007874015748,
                    "duration": 0.13071899999999914
                },
                {
                    "name": "A4",
                    "midi": 69,
                    "time": 66.79740899999976,
                    "velocity": 0.3700787401574803,
                    "duration": 0.13071899999999914
                },
                {
                    "name": "B3",
                    "midi": 59,
                    "time": 66.92812799999976,
                    "velocity": 0.3779527559055118,
                    "duration": 0.5228759999999966
                },
                {
                    "name": "G#4",
                    "midi": 68,
                    "time": 66.92812799999976,
                    "velocity": 0.44881889763779526,
                    "duration": 0.5228759999999966
                },
                {
                    "name": "A3",
                    "midi": 57,
                    "time": 67.71244199999975,
                    "velocity": 0.3858267716535433,
                    "duration": 0.2614379999999983
                },
                {
                    "name": "A4",
                    "midi": 69,
                    "time": 67.71244199999975,
                    "velocity": 0.4566929133858268,
                    "duration": 0.2614379999999983
                },
                {
                    "name": "D4",
                    "midi": 62,
                    "time": 67.97387999999975,
                    "velocity": 0.3779527559055118,
                    "duration": 0.2614379999999983
                },
                {
                    "name": "F#4",
                    "midi": 66,
                    "time": 67.97387999999975,
                    "velocity": 0.44881889763779526,
                    "duration": 0.2614379999999983
                },
                {
                    "name": "E4",
                    "midi": 64,
                    "time": 68.49675599999975,
                    "velocity": 0.30708661417322836,
                    "duration": 0.2614379999999983
                },
                {
                    "name": "E3",
                    "midi": 52,
                    "time": 68.49675599999975,
                    "velocity": 0.25984251968503935,
                    "duration": 0.2614379999999983
                },
                {
                    "name": "A2",
                    "midi": 45,
                    "time": 69.01963199999975,
                    "velocity": 0.2992125984251969,
                    "duration": 0.2614379999999983
                },
                {
                    "name": "A3",
                    "midi": 57,
                    "time": 69.01963199999975,
                    "velocity": 0.3543307086614173,
                    "duration": 0.2614379999999983
                },
                {
                    "name": "D4",
                    "midi": 62,
                    "time": 69.54250799999974,
                    "velocity": 0.3228346456692913,
                    "duration": 0.2614379999999983
                },
                {
                    "name": "E3",
                    "midi": 52,
                    "time": 69.54250799999974,
                    "velocity": 0.2677165354330709,
                    "duration": 0.2614379999999983
                },
                {
                    "name": "E3",
                    "midi": 52,
                    "time": 70.06538399999974,
                    "velocity": 0.2992125984251969,
                    "duration": 0.2614379999999983
                },
                {
                    "name": "C#4",
                    "midi": 61,
                    "time": 70.06538399999974,
                    "velocity": 0.3543307086614173,
                    "duration": 0.2614379999999983
                },
                {
                    "name": "B3",
                    "midi": 59,
                    "time": 70.58825999999974,
                    "velocity": 0.30708661417322836,
                    "duration": 0.12527237499999444
                },
                {
                    "name": "E3",
                    "midi": 52,
                    "time": 70.58825999999974,
                    "velocity": 0.25984251968503935,
                    "duration": 0.2614379999999983
                },
                {
                    "name": "A2",
                    "midi": 45,
                    "time": 71.11113599999973,
                    "velocity": 0.28346456692913385,
                    "duration": 0.5228759999999966
                },
                {
                    "name": "A3",
                    "midi": 57,
                    "time": 71.11113599999973,
                    "velocity": 0.33858267716535434,
                    "duration": 0.5228759999999966
                },
                {
                    "name": "D3",
                    "midi": 50,
                    "time": 72.15688799999973,
                    "velocity": 0.5905511811023622,
                    "duration": 0.5228759999999966
                },
                {
                    "name": "D2",
                    "midi": 38,
                    "time": 72.15688799999973,
                    "velocity": 0.49606299212598426,
                    "duration": 0.5228759999999966
                },
                {
                    "name": "F#4",
                    "midi": 66,
                    "time": 72.94120199999972,
                    "velocity": 0.33070866141732286,
                    "duration": 0.06535949999999957
                },
                {
                    "name": "D4",
                    "midi": 62,
                    "time": 72.94120199999972,
                    "velocity": 0.28346456692913385,
                    "duration": 0.06535949999999957
                },
                {
                    "name": "G4",
                    "midi": 67,
                    "time": 73.20263999999972,
                    "velocity": 0.3779527559055118,
                    "duration": 0.2614379999999983
                },
                {
                    "name": "D4",
                    "midi": 62,
                    "time": 73.20263999999972,
                    "velocity": 0.31496062992125984,
                    "duration": 0.2614379999999983
                },
                {
                    "name": "F#4",
                    "midi": 66,
                    "time": 73.46407799999972,
                    "velocity": 0.31496062992125984,
                    "duration": 0.2614379999999983
                },
                {
                    "name": "D4",
                    "midi": 62,
                    "time": 73.46407799999972,
                    "velocity": 0.2677165354330709,
                    "duration": 0.2614379999999983
                },
                {
                    "name": "D3",
                    "midi": 50,
                    "time": 74.24839199999971,
                    "velocity": 0.5905511811023622,
                    "duration": 0.5228759999999966
                },
                {
                    "name": "D2",
                    "midi": 38,
                    "time": 74.24839199999971,
                    "velocity": 0.49606299212598426,
                    "duration": 0.5228759999999966
                },
                {
                    "name": "D4",
                    "midi": 62,
                    "time": 75.0327059999997,
                    "velocity": 0.33070866141732286,
                    "duration": 0.06535949999999957
                },
                {
                    "name": "A3",
                    "midi": 57,
                    "time": 75.2941439999997,
                    "velocity": 0.3779527559055118,
                    "duration": 0.2614379999999983
                },
                {
                    "name": "D4",
                    "midi": 62,
                    "time": 75.5555819999997,
                    "velocity": 0.31496062992125984,
                    "duration": 0.2614379999999983
                },
                {
                    "name": "D4",
                    "midi": 62,
                    "time": 76.6013339999997,
                    "velocity": 0.31496062992125984,
                    "duration": 0.06535949999999957
                },
                {
                    "name": "F#3",
                    "midi": 54,
                    "time": 76.6013339999997,
                    "velocity": 0.31496062992125984,
                    "duration": 0.06535949999999957
                },
                {
                    "name": "D4",
                    "midi": 62,
                    "time": 76.8627719999997,
                    "velocity": 0.3543307086614173,
                    "duration": 0.06535949999999957
                },
                {
                    "name": "F#3",
                    "midi": 54,
                    "time": 76.8627719999997,
                    "velocity": 0.3543307086614173,
                    "duration": 0.06535949999999957
                },
                {
                    "name": "D4",
                    "midi": 62,
                    "time": 77.64708599999969,
                    "velocity": 0.31496062992125984,
                    "duration": 0.06535949999999957
                },
                {
                    "name": "G3",
                    "midi": 55,
                    "time": 77.64708599999969,
                    "velocity": 0.31496062992125984,
                    "duration": 0.06535949999999957
                },
                {
                    "name": "D4",
                    "midi": 62,
                    "time": 77.90852399999969,
                    "velocity": 0.3543307086614173,
                    "duration": 0.06535949999999957
                },
                {
                    "name": "G3",
                    "midi": 55,
                    "time": 77.90852399999969,
                    "velocity": 0.3543307086614173,
                    "duration": 0.06535949999999957
                },
                {
                    "name": "A3",
                    "midi": 57,
                    "time": 78.43139999999968,
                    "velocity": 0.36220472440944884,
                    "duration": 0.5228759999999966
                },
                {
                    "name": "A2",
                    "midi": 45,
                    "time": 78.95427599999968,
                    "velocity": 0.31496062992125984,
                    "duration": 0.5228759999999966
                },
                {
                    "name": "D3",
                    "midi": 50,
                    "time": 79.47715199999968,
                    "velocity": 0.28346456692913385,
                    "duration": 0.5228759999999966
                },
                {
                    "name": "D2",
                    "midi": 38,
                    "time": 80.00002799999967,
                    "velocity": 0.25196850393700787,
                    "duration": 0.2614379999999983
                },
                {
                    "name": "D4",
                    "midi": 62,
                    "time": 80.78434199999967,
                    "velocity": 0.31496062992125984,
                    "duration": 0.06535949999999957
                },
                {
                    "name": "F#3",
                    "midi": 54,
                    "time": 80.78434199999967,
                    "velocity": 0.31496062992125984,
                    "duration": 0.06535949999999957
                },
                {
                    "name": "D4",
                    "midi": 62,
                    "time": 81.04577999999967,
                    "velocity": 0.3543307086614173,
                    "duration": 0.06535949999999957
                },
                {
                    "name": "F#3",
                    "midi": 54,
                    "time": 81.04577999999967,
                    "velocity": 0.3543307086614173,
                    "duration": 0.06535949999999957
                },
                {
                    "name": "D4",
                    "midi": 62,
                    "time": 81.83009399999966,
                    "velocity": 0.31496062992125984,
                    "duration": 0.06535949999999957
                },
                {
                    "name": "G3",
                    "midi": 55,
                    "time": 81.83009399999966,
                    "velocity": 0.31496062992125984,
                    "duration": 0.06535949999999957
                },
                {
                    "name": "D4",
                    "midi": 62,
                    "time": 82.09153199999966,
                    "velocity": 0.3543307086614173,
                    "duration": 0.06535949999999957
                },
                {
                    "name": "G3",
                    "midi": 55,
                    "time": 82.09153199999966,
                    "velocity": 0.3543307086614173,
                    "duration": 0.06535949999999957
                },
                {
                    "name": "A3",
                    "midi": 57,
                    "time": 82.61440799999966,
                    "velocity": 0.3779527559055118,
                    "duration": 0.2614379999999983
                },
                {
                    "name": "A2",
                    "midi": 45,
                    "time": 83.13728399999965,
                    "velocity": 0.30708661417322836,
                    "duration": 0.2614379999999983
                },
                {
                    "name": "D2",
                    "midi": 38,
                    "time": 83.66015999999965,
                    "velocity": 0.3779527559055118,
                    "duration": 0.5228759999999966
                },
                {
                    "name": "G#3",
                    "midi": 56,
                    "time": 86.01310199999965,
                    "velocity": 0.33858267716535434,
                    "duration": 0.2614379999999983
                },
                {
                    "name": "A3",
                    "midi": 57,
                    "time": 86.27453999999965,
                    "velocity": 0.3779527559055118,
                    "duration": 0.1960784999999987
                },
                {
                    "name": "C#3",
                    "midi": 49,
                    "time": 88.10460599999965,
                    "velocity": 0.33858267716535434,
                    "duration": 0.2614379999999983
                },
                {
                    "name": "D3",
                    "midi": 50,
                    "time": 88.36604399999965,
                    "velocity": 0.3779527559055118,
                    "duration": 0.1960784999999987
                },
                {
                    "name": "G3",
                    "midi": 55,
                    "time": 89.93467199999965,
                    "velocity": 0.4094488188976378,
                    "duration": 0.13071899999999914
                },
                {
                    "name": "D4",
                    "midi": 62,
                    "time": 90.06539099999965,
                    "velocity": 0.3543307086614173,
                    "duration": 0.13071899999999914
                },
                {
                    "name": "G3",
                    "midi": 55,
                    "time": 90.19610999999965,
                    "velocity": 0.4251968503937008,
                    "duration": 0.13071899999999914
                },
                {
                    "name": "D4",
                    "midi": 62,
                    "time": 90.32682899999965,
                    "velocity": 0.30708661417322836,
                    "duration": 0.13071899999999914
                },
                {
                    "name": "F#3",
                    "midi": 54,
                    "time": 90.45754799999965,
                    "velocity": 0.3858267716535433,
                    "duration": 0.13071899999999914
                },
                {
                    "name": "D4",
                    "midi": 62,
                    "time": 90.58826699999965,
                    "velocity": 0.2992125984251969,
                    "duration": 0.13071899999999914
                },
                {
                    "name": "F#3",
                    "midi": 54,
                    "time": 90.71898599999965,
                    "velocity": 0.3858267716535433,
                    "duration": 0.13071899999999914
                },
                {
                    "name": "D4",
                    "midi": 62,
                    "time": 90.84970499999964,
                    "velocity": 0.33858267716535434,
                    "duration": 0.13071899999999914
                },
                {
                    "name": "B3",
                    "midi": 59,
                    "time": 90.98042399999964,
                    "velocity": 0.4094488188976378,
                    "duration": 0.13071899999999914
                },
                {
                    "name": "D4",
                    "midi": 62,
                    "time": 91.11114299999964,
                    "velocity": 0.3543307086614173,
                    "duration": 0.13071899999999914
                },
                {
                    "name": "B3",
                    "midi": 59,
                    "time": 91.24186199999964,
                    "velocity": 0.4251968503937008,
                    "duration": 0.13071899999999914
                },
                {
                    "name": "D4",
                    "midi": 62,
                    "time": 91.37258099999964,
                    "velocity": 0.30708661417322836,
                    "duration": 0.13071899999999914
                },
                {
                    "name": "A3",
                    "midi": 57,
                    "time": 91.50329999999964,
                    "velocity": 0.3858267716535433,
                    "duration": 0.13071899999999914
                },
                {
                    "name": "D4",
                    "midi": 62,
                    "time": 91.63401899999964,
                    "velocity": 0.2992125984251969,
                    "duration": 0.13071899999999914
                },
                {
                    "name": "A3",
                    "midi": 57,
                    "time": 91.76473799999964,
                    "velocity": 0.3858267716535433,
                    "duration": 0.13071899999999914
                },
                {
                    "name": "D4",
                    "midi": 62,
                    "time": 91.89545699999964,
                    "velocity": 0.33858267716535434,
                    "duration": 0.13071899999999914
                },
                {
                    "name": "G3",
                    "midi": 55,
                    "time": 92.02617599999964,
                    "velocity": 0.4094488188976378,
                    "duration": 0.13071899999999914
                },
                {
                    "name": "D4",
                    "midi": 62,
                    "time": 92.15689499999964,
                    "velocity": 0.3543307086614173,
                    "duration": 0.13071899999999914
                },
                {
                    "name": "G3",
                    "midi": 55,
                    "time": 92.28761399999964,
                    "velocity": 0.4251968503937008,
                    "duration": 0.13071899999999914
                },
                {
                    "name": "D4",
                    "midi": 62,
                    "time": 92.41833299999963,
                    "velocity": 0.30708661417322836,
                    "duration": 0.13071899999999914
                },
                {
                    "name": "F#3",
                    "midi": 54,
                    "time": 92.54905199999963,
                    "velocity": 0.3858267716535433,
                    "duration": 0.13071899999999914
                },
                {
                    "name": "D4",
                    "midi": 62,
                    "time": 92.67977099999963,
                    "velocity": 0.2992125984251969,
                    "duration": 0.13071899999999914
                },
                {
                    "name": "F#3",
                    "midi": 54,
                    "time": 92.81048999999963,
                    "velocity": 0.3858267716535433,
                    "duration": 0.13071899999999914
                },
                {
                    "name": "D4",
                    "midi": 62,
                    "time": 92.94120899999963,
                    "velocity": 0.33858267716535434,
                    "duration": 0.13071899999999914
                },
                {
                    "name": "B3",
                    "midi": 59,
                    "time": 93.07192799999963,
                    "velocity": 0.4094488188976378,
                    "duration": 0.13071899999999914
                },
                {
                    "name": "D4",
                    "midi": 62,
                    "time": 93.20264699999963,
                    "velocity": 0.3543307086614173,
                    "duration": 0.13071899999999914
                },
                {
                    "name": "B3",
                    "midi": 59,
                    "time": 93.33336599999963,
                    "velocity": 0.4251968503937008,
                    "duration": 0.13071899999999914
                },
                {
                    "name": "D4",
                    "midi": 62,
                    "time": 93.46408499999963,
                    "velocity": 0.30708661417322836,
                    "duration": 0.13071899999999914
                },
                {
                    "name": "A3",
                    "midi": 57,
                    "time": 93.59480399999963,
                    "velocity": 0.3858267716535433,
                    "duration": 0.13071899999999914
                },
                {
                    "name": "D4",
                    "midi": 62,
                    "time": 93.72552299999963,
                    "velocity": 0.2992125984251969,
                    "duration": 0.13071899999999914
                },
                {
                    "name": "A3",
                    "midi": 57,
                    "time": 93.85624199999963,
                    "velocity": 0.3858267716535433,
                    "duration": 0.13071899999999914
                },
                {
                    "name": "D4",
                    "midi": 62,
                    "time": 93.98696099999962,
                    "velocity": 0.33858267716535434,
                    "duration": 0.13071899999999914
                },
                {
                    "name": "G3",
                    "midi": 55,
                    "time": 94.11767999999962,
                    "velocity": 0.4094488188976378,
                    "duration": 0.5228759999999966
                },
                {
                    "name": "G3",
                    "midi": 55,
                    "time": 94.90199399999962,
                    "velocity": 0.31496062992125984,
                    "duration": 0.2614379999999983
                },
                {
                    "name": "G2",
                    "midi": 43,
                    "time": 94.90199399999962,
                    "velocity": 0.2677165354330709,
                    "duration": 0.2614379999999983
                },
                {
                    "name": "F#3",
                    "midi": 54,
                    "time": 95.16343199999962,
                    "velocity": 0.3779527559055118,
                    "duration": 1.0457519999999931
                },
                {
                    "name": "A2",
                    "midi": 45,
                    "time": 95.16343199999962,
                    "velocity": 0.31496062992125984,
                    "duration": 1.3071899999999914
                },
                {
                    "name": "E3",
                    "midi": 52,
                    "time": 96.20918399999961,
                    "velocity": 0.3543307086614173,
                    "duration": 0.2614379999999983
                },
                {
                    "name": "A2",
                    "midi": 45,
                    "time": 97.2549359999996,
                    "velocity": 0.49606299212598426,
                    "duration": 0.2614379999999983
                },
                {
                    "name": "C#3",
                    "midi": 49,
                    "time": 97.2549359999996,
                    "velocity": 0.49606299212598426,
                    "duration": 0.2614379999999983
                },
                {
                    "name": "A3",
                    "midi": 57,
                    "time": 97.2549359999996,
                    "velocity": 0.5905511811023622,
                    "duration": 0.2614379999999983
                },
                {
                    "name": "E3",
                    "midi": 52,
                    "time": 97.2549359999996,
                    "velocity": 0.49606299212598426,
                    "duration": 0.2614379999999983
                },
                {
                    "name": "A2",
                    "midi": 45,
                    "time": 97.7778119999996,
                    "velocity": 0.49606299212598426,
                    "duration": 0.2614379999999983
                },
                {
                    "name": "C#3",
                    "midi": 49,
                    "time": 97.7778119999996,
                    "velocity": 0.49606299212598426,
                    "duration": 0.2614379999999983
                },
                {
                    "name": "A3",
                    "midi": 57,
                    "time": 97.7778119999996,
                    "velocity": 0.5905511811023622,
                    "duration": 0.2614379999999983
                },
                {
                    "name": "E3",
                    "midi": 52,
                    "time": 97.7778119999996,
                    "velocity": 0.49606299212598426,
                    "duration": 0.2614379999999983
                },
                {
                    "name": "A2",
                    "midi": 45,
                    "time": 98.3006879999996,
                    "velocity": 0.49606299212598426,
                    "duration": 0.2614379999999983
                },
                {
                    "name": "C#3",
                    "midi": 49,
                    "time": 98.3006879999996,
                    "velocity": 0.49606299212598426,
                    "duration": 0.2614379999999983
                },
                {
                    "name": "A3",
                    "midi": 57,
                    "time": 98.3006879999996,
                    "velocity": 0.5905511811023622,
                    "duration": 0.2614379999999983
                },
                {
                    "name": "E3",
                    "midi": 52,
                    "time": 98.3006879999996,
                    "velocity": 0.49606299212598426,
                    "duration": 0.2614379999999983
                },
                {
                    "name": "A2",
                    "midi": 45,
                    "time": 99.34643999999959,
                    "velocity": 0.36220472440944884,
                    "duration": 0.13071899999999914
                },
                {
                    "name": "E3",
                    "midi": 52,
                    "time": 99.47715899999959,
                    "velocity": 0.2992125984251969,
                    "duration": 0.13071899999999914
                },
                {
                    "name": "D3",
                    "midi": 50,
                    "time": 99.60787799999959,
                    "velocity": 0.36220472440944884,
                    "duration": 0.13071899999999914
                },
                {
                    "name": "E3",
                    "midi": 52,
                    "time": 99.73859699999959,
                    "velocity": 0.30708661417322836,
                    "duration": 0.13071899999999914
                },
                {
                    "name": "C#3",
                    "midi": 49,
                    "time": 99.86931599999959,
                    "velocity": 0.3700787401574803,
                    "duration": 0.13071899999999914
                },
                {
                    "name": "E3",
                    "midi": 52,
                    "time": 100.00003499999958,
                    "velocity": 0.2992125984251969,
                    "duration": 0.13071899999999914
                },
                {
                    "name": "A2",
                    "midi": 45,
                    "time": 100.13075399999958,
                    "velocity": 0.3858267716535433,
                    "duration": 0.13071899999999914
                },
                {
                    "name": "C#3",
                    "midi": 49,
                    "time": 100.26147299999958,
                    "velocity": 0.3228346456692913,
                    "duration": 0.13071899999999914
                },
                {
                    "name": "D3",
                    "midi": 50,
                    "time": 100.39219199999958,
                    "velocity": 0.36220472440944884,
                    "duration": 0.5228759999999966
                },
                {
                    "name": "D#3",
                    "midi": 51,
                    "time": 101.43794399999958,
                    "velocity": 0.36220472440944884,
                    "duration": 0.13071899999999914
                },
                {
                    "name": "F#3",
                    "midi": 54,
                    "time": 101.56866299999957,
                    "velocity": 0.2992125984251969,
                    "duration": 0.13071899999999914
                },
                {
                    "name": "E3",
                    "midi": 52,
                    "time": 101.69938199999957,
                    "velocity": 0.36220472440944884,
                    "duration": 0.13071899999999914
                },
                {
                    "name": "F#3",
                    "midi": 54,
                    "time": 101.83010099999957,
                    "velocity": 0.30708661417322836,
                    "duration": 0.13071899999999914
                },
                {
                    "name": "D#3",
                    "midi": 51,
                    "time": 101.96081999999957,
                    "velocity": 0.3700787401574803,
                    "duration": 0.13071899999999914
                },
                {
                    "name": "F#3",
                    "midi": 54,
                    "time": 102.09153899999957,
                    "velocity": 0.2992125984251969,
                    "duration": 0.13071899999999914
                },
                {
                    "name": "B2",
                    "midi": 47,
                    "time": 102.22225799999957,
                    "velocity": 0.3858267716535433,
                    "duration": 0.13071899999999914
                },
                {
                    "name": "D#3",
                    "midi": 51,
                    "time": 102.35297699999957,
                    "velocity": 0.3228346456692913,
                    "duration": 0.13071899999999914
                },
                {
                    "name": "E3",
                    "midi": 52,
                    "time": 102.48369599999957,
                    "velocity": 0.36220472440944884,
                    "duration": 0.5228759999999966
                },
                {
                    "name": "F#3",
                    "midi": 54,
                    "time": 103.52944799999956,
                    "velocity": 0.4094488188976378,
                    "duration": 0.13071899999999914
                },
                {
                    "name": "C4",
                    "midi": 60,
                    "time": 103.66016699999956,
                    "velocity": 0.3543307086614173,
                    "duration": 0.13071899999999914
                },
                {
                    "name": "F#3",
                    "midi": 54,
                    "time": 103.79088599999956,
                    "velocity": 0.4251968503937008,
                    "duration": 0.13071899999999914
                },
                {
                    "name": "C4",
                    "midi": 60,
                    "time": 103.92160499999956,
                    "velocity": 0.30708661417322836,
                    "duration": 0.13071899999999914
                },
                {
                    "name": "F#3",
                    "midi": 54,
                    "time": 104.05232399999956,
                    "velocity": 0.33858267716535434,
                    "duration": 0.13071899999999914
                },
                {
                    "name": "C4",
                    "midi": 60,
                    "time": 104.18304299999956,
                    "velocity": 0.28346456692913385,
                    "duration": 0.13071899999999914
                },
                {
                    "name": "F#3",
                    "midi": 54,
                    "time": 104.31376199999956,
                    "velocity": 0.3543307086614173,
                    "duration": 0.13071899999999914
                },
                {
                    "name": "C4",
                    "midi": 60,
                    "time": 104.44448099999956,
                    "velocity": 0.29133858267716534,
                    "duration": 0.13071899999999914
                },
                {
                    "name": "G#3",
                    "midi": 56,
                    "time": 104.57519999999955,
                    "velocity": 0.4094488188976378,
                    "duration": 0.13071899999999914
                },
                {
                    "name": "B3",
                    "midi": 59,
                    "time": 104.70591899999955,
                    "velocity": 0.3543307086614173,
                    "duration": 0.13071899999999914
                },
                {
                    "name": "G#3",
                    "midi": 56,
                    "time": 104.83663799999955,
                    "velocity": 0.4251968503937008,
                    "duration": 0.13071899999999914
                },
                {
                    "name": "B3",
                    "midi": 59,
                    "time": 104.96735699999955,
                    "velocity": 0.30708661417322836,
                    "duration": 0.13071899999999914
                },
                {
                    "name": "G#3",
                    "midi": 56,
                    "time": 105.09807599999955,
                    "velocity": 0.3858267716535433,
                    "duration": 0.13071899999999914
                },
                {
                    "name": "B3",
                    "midi": 59,
                    "time": 105.22879499999955,
                    "velocity": 0.2992125984251969,
                    "duration": 0.13071899999999914
                },
                {
                    "name": "G#3",
                    "midi": 56,
                    "time": 105.35951399999955,
                    "velocity": 0.3858267716535433,
                    "duration": 0.13071899999999914
                },
                {
                    "name": "B3",
                    "midi": 59,
                    "time": 105.49023299999955,
                    "velocity": 0.33858267716535434,
                    "duration": 0.13071899999999914
                },
                {
                    "name": "F#3",
                    "midi": 54,
                    "time": 105.62095199999955,
                    "velocity": 0.4094488188976378,
                    "duration": 0.13071899999999914
                },
                {
                    "name": "C4",
                    "midi": 60,
                    "time": 105.75167099999955,
                    "velocity": 0.3543307086614173,
                    "duration": 0.13071899999999914
                },
                {
                    "name": "F#3",
                    "midi": 54,
                    "time": 105.88238999999955,
                    "velocity": 0.4251968503937008,
                    "duration": 0.13071899999999914
                },
                {
                    "name": "C4",
                    "midi": 60,
                    "time": 106.01310899999955,
                    "velocity": 0.30708661417322836,
                    "duration": 0.13071899999999914
                },
                {
                    "name": "F#3",
                    "midi": 54,
                    "time": 106.14382799999954,
                    "velocity": 0.33070866141732286,
                    "duration": 0.13071899999999914
                },
                {
                    "name": "C4",
                    "midi": 60,
                    "time": 106.27454699999954,
                    "velocity": 0.29133858267716534,
                    "duration": 0.13071899999999914
                },
                {
                    "name": "F#3",
                    "midi": 54,
                    "time": 106.40526599999954,
                    "velocity": 0.3543307086614173,
                    "duration": 0.13071899999999914
                },
                {
                    "name": "C4",
                    "midi": 60,
                    "time": 106.53598499999954,
                    "velocity": 0.2992125984251969,
                    "duration": 0.13071899999999914
                },
                {
                    "name": "G#3",
                    "midi": 56,
                    "time": 106.66670399999954,
                    "velocity": 0.4094488188976378,
                    "duration": 0.13071899999999914
                },
                {
                    "name": "B3",
                    "midi": 59,
                    "time": 106.79742299999954,
                    "velocity": 0.3543307086614173,
                    "duration": 0.13071899999999914
                },
                {
                    "name": "G#3",
                    "midi": 56,
                    "time": 106.92814199999954,
                    "velocity": 0.4251968503937008,
                    "duration": 0.13071899999999914
                },
                {
                    "name": "B3",
                    "midi": 59,
                    "time": 107.05886099999954,
                    "velocity": 0.30708661417322836,
                    "duration": 0.13071899999999914
                },
                {
                    "name": "G#3",
                    "midi": 56,
                    "time": 107.18957999999954,
                    "velocity": 0.3858267716535433,
                    "duration": 0.13071899999999914
                },
                {
                    "name": "B3",
                    "midi": 59,
                    "time": 107.32029899999954,
                    "velocity": 0.2992125984251969,
                    "duration": 0.13071899999999914
                },
                {
                    "name": "G#3",
                    "midi": 56,
                    "time": 107.45101799999954,
                    "velocity": 0.3858267716535433,
                    "duration": 0.13071899999999914
                },
                {
                    "name": "B3",
                    "midi": 59,
                    "time": 107.58173699999953,
                    "velocity": 0.33858267716535434,
                    "duration": 0.13071899999999914
                },
                {
                    "name": "A3",
                    "midi": 57,
                    "time": 107.71245599999953,
                    "velocity": 0.4094488188976378,
                    "duration": 0.13071899999999914
                },
                {
                    "name": "C#4",
                    "midi": 61,
                    "time": 107.84317499999953,
                    "velocity": 0.3543307086614173,
                    "duration": 0.13071899999999914
                },
                {
                    "name": "A3",
                    "midi": 57,
                    "time": 107.97389399999953,
                    "velocity": 0.4251968503937008,
                    "duration": 0.13071899999999914
                },
                {
                    "name": "C#4",
                    "midi": 61,
                    "time": 108.10461299999953,
                    "velocity": 0.30708661417322836,
                    "duration": 0.13071899999999914
                },
                {
                    "name": "A3",
                    "midi": 57,
                    "time": 108.23533199999953,
                    "velocity": 0.36220472440944884,
                    "duration": 0.13071899999999914
                },
                {
                    "name": "C#4",
                    "midi": 61,
                    "time": 108.36605099999953,
                    "velocity": 0.2992125984251969,
                    "duration": 0.13071899999999914
                },
                {
                    "name": "A3",
                    "midi": 57,
                    "time": 108.49676999999953,
                    "velocity": 0.36220472440944884,
                    "duration": 0.13071899999999914
                },
                {
                    "name": "C#4",
                    "midi": 61,
                    "time": 108.62748899999953,
                    "velocity": 0.30708661417322836,
                    "duration": 0.13071899999999914
                },
                {
                    "name": "B3",
                    "midi": 59,
                    "time": 108.75820799999953,
                    "velocity": 0.4094488188976378,
                    "duration": 0.13071899999999914
                },
                {
                    "name": "D4",
                    "midi": 62,
                    "time": 108.88892699999953,
                    "velocity": 0.3543307086614173,
                    "duration": 0.13071899999999914
                },
                {
                    "name": "B3",
                    "midi": 59,
                    "time": 109.01964599999953,
                    "velocity": 0.4251968503937008,
                    "duration": 0.13071899999999914
                },
                {
                    "name": "D4",
                    "midi": 62,
                    "time": 109.15036499999952,
                    "velocity": 0.30708661417322836,
                    "duration": 0.13071899999999914
                },
                {
                    "name": "B3",
                    "midi": 59,
                    "time": 109.28108399999952,
                    "velocity": 0.3858267716535433,
                    "duration": 0.13071899999999914
                },
                {
                    "name": "D4",
                    "midi": 62,
                    "time": 109.41180299999952,
                    "velocity": 0.2992125984251969,
                    "duration": 0.13071899999999914
                },
                {
                    "name": "B3",
                    "midi": 59,
                    "time": 109.54252199999952,
                    "velocity": 0.3858267716535433,
                    "duration": 0.13071899999999914
                },
                {
                    "name": "D4",
                    "midi": 62,
                    "time": 109.67324099999952,
                    "velocity": 0.33858267716535434,
                    "duration": 0.13071899999999914
                },
                {
                    "name": "C#4",
                    "midi": 61,
                    "time": 109.80395999999952,
                    "velocity": 0.4094488188976378,
                    "duration": 0.13071899999999914
                },
                {
                    "name": "E4",
                    "midi": 64,
                    "time": 109.93467899999952,
                    "velocity": 0.3543307086614173,
                    "duration": 0.13071899999999914
                },
                {
                    "name": "C#4",
                    "midi": 61,
                    "time": 110.06539799999952,
                    "velocity": 0.4251968503937008,
                    "duration": 0.13071899999999914
                },
                {
                    "name": "E4",
                    "midi": 64,
                    "time": 110.19611699999952,
                    "velocity": 0.30708661417322836,
                    "duration": 0.13071899999999914
                },
                {
                    "name": "C#4",
                    "midi": 61,
                    "time": 110.32683599999952,
                    "velocity": 0.3858267716535433,
                    "duration": 0.13071899999999914
                },
                {
                    "name": "E4",
                    "midi": 64,
                    "time": 110.45755499999952,
                    "velocity": 0.2992125984251969,
                    "duration": 0.13071899999999914
                },
                {
                    "name": "C#4",
                    "midi": 61,
                    "time": 110.58827399999952,
                    "velocity": 0.3858267716535433,
                    "duration": 0.13071899999999914
                },
                {
                    "name": "E4",
                    "midi": 64,
                    "time": 110.71899299999951,
                    "velocity": 0.33858267716535434,
                    "duration": 0.13071899999999914
                },
                {
                    "name": "G#3",
                    "midi": 56,
                    "time": 110.84971199999951,
                    "velocity": 0.4094488188976378,
                    "duration": 0.13071899999999914
                },
                {
                    "name": "E4",
                    "midi": 64,
                    "time": 110.98043099999951,
                    "velocity": 0.3543307086614173,
                    "duration": 0.13071899999999914
                },
                {
                    "name": "G#3",
                    "midi": 56,
                    "time": 111.11114999999951,
                    "velocity": 0.4251968503937008,
                    "duration": 0.13071899999999914
                },
                {
                    "name": "E4",
                    "midi": 64,
                    "time": 111.24186899999951,
                    "velocity": 0.30708661417322836,
                    "duration": 0.13071899999999914
                },
                {
                    "name": "G#3",
                    "midi": 56,
                    "time": 111.37258799999951,
                    "velocity": 0.3858267716535433,
                    "duration": 0.13071899999999914
                },
                {
                    "name": "E4",
                    "midi": 64,
                    "time": 111.50330699999951,
                    "velocity": 0.2992125984251969,
                    "duration": 0.13071899999999914
                },
                {
                    "name": "G#3",
                    "midi": 56,
                    "time": 111.63402599999951,
                    "velocity": 0.3858267716535433,
                    "duration": 0.13071899999999914
                },
                {
                    "name": "E4",
                    "midi": 64,
                    "time": 111.76474499999951,
                    "velocity": 0.33858267716535434,
                    "duration": 0.13071899999999914
                },
                {
                    "name": "A3",
                    "midi": 57,
                    "time": 111.8954639999995,
                    "velocity": 0.4094488188976378,
                    "duration": 0.5228759999999966
                },
                {
                    "name": "G#3",
                    "midi": 56,
                    "time": 112.9412159999995,
                    "velocity": 0.4094488188976378,
                    "duration": 0.5228759999999966
                },
                {
                    "name": "B3",
                    "midi": 59,
                    "time": 112.9412159999995,
                    "velocity": 0.4094488188976378,
                    "duration": 0.5228759999999966
                },
                {
                    "name": "A2",
                    "midi": 45,
                    "time": 113.9869679999995,
                    "velocity": 0.4094488188976378,
                    "duration": 0.5228759999999966
                },
                {
                    "name": "A3",
                    "midi": 57,
                    "time": 113.9869679999995,
                    "velocity": 0.4094488188976378,
                    "duration": 0.5228759999999966
                },
                {
                    "name": "E3",
                    "midi": 52,
                    "time": 115.03271999999949,
                    "velocity": 0.4251968503937008,
                    "duration": 0.13071899999999914
                },
                {
                    "name": "D#3",
                    "midi": 51,
                    "time": 115.16343899999949,
                    "velocity": 0.3937007874015748,
                    "duration": 0.13071899999999914
                },
                {
                    "name": "E3",
                    "midi": 52,
                    "time": 115.29415799999948,
                    "velocity": 0.3937007874015748,
                    "duration": 0.13071899999999914
                },
                {
                    "name": "F#3",
                    "midi": 54,
                    "time": 115.42487699999948,
                    "velocity": 0.3937007874015748,
                    "duration": 0.13071899999999914
                },
                {
                    "name": "E3",
                    "midi": 52,
                    "time": 115.55559599999948,
                    "velocity": 0.4330708661417323,
                    "duration": 0.13071899999999914
                },
                {
                    "name": "D3",
                    "midi": 50,
                    "time": 115.68631499999948,
                    "velocity": 0.3858267716535433,
                    "duration": 0.13071899999999914
                },
                {
                    "name": "C#3",
                    "midi": 49,
                    "time": 115.81703399999948,
                    "velocity": 0.3858267716535433,
                    "duration": 0.13071899999999914
                },
                {
                    "name": "B2",
                    "midi": 47,
                    "time": 115.94775299999948,
                    "velocity": 0.3858267716535433,
                    "duration": 0.13071899999999914
                },
                {
                    "name": "A2",
                    "midi": 45,
                    "time": 116.07847199999948,
                    "velocity": 0.44881889763779526,
                    "duration": 0.5228759999999966
                },
                {
                    "name": "D4",
                    "midi": 62,
                    "time": 117.12422399999947,
                    "velocity": 0.44881889763779526,
                    "duration": 0.5228759999999966
                },
                {
                    "name": "D2",
                    "midi": 38,
                    "time": 118.16997599999947,
                    "velocity": 0.44881889763779526,
                    "duration": 0.5228759999999966
                },
                {
                    "name": "A3",
                    "midi": 57,
                    "time": 120.52291799999946,
                    "velocity": 0.30708661417322836,
                    "duration": 0.5228759999999966
                },
                {
                    "name": "C#3",
                    "midi": 49,
                    "time": 120.52291799999946,
                    "velocity": 0.25196850393700787,
                    "duration": 0.2614379999999983
                },
                {
                    "name": "D3",
                    "midi": 50,
                    "time": 120.78435599999946,
                    "velocity": 0.30708661417322836,
                    "duration": 0.2614379999999983
                },
                {
                    "name": "E3",
                    "midi": 52,
                    "time": 121.04579399999946,
                    "velocity": 0.25196850393700787,
                    "duration": 0.2614379999999983
                },
                {
                    "name": "G#3",
                    "midi": 56,
                    "time": 121.04579399999946,
                    "velocity": 0.30708661417322836,
                    "duration": 0.2614379999999983
                },
                {
                    "name": "A2",
                    "midi": 45,
                    "time": 121.30723199999946,
                    "velocity": 0.3779527559055118,
                    "duration": 0.2614379999999983
                },
                {
                    "name": "A3",
                    "midi": 57,
                    "time": 121.32030389999946,
                    "velocity": 0.44881889763779526,
                    "duration": 0.2614379999999983
                },
                {
                    "name": "C#4",
                    "midi": 61,
                    "time": 121.83010799999946,
                    "velocity": 0.30708661417322836,
                    "duration": 0.2614379999999983
                },
                {
                    "name": "D4",
                    "midi": 62,
                    "time": 122.35298399999945,
                    "velocity": 0.44881889763779526,
                    "duration": 0.5228759999999966
                },
                {
                    "name": "D3",
                    "midi": 50,
                    "time": 123.39873599999945,
                    "velocity": 0.44881889763779526,
                    "duration": 0.5228759999999966
                },
                {
                    "name": "D4",
                    "midi": 62,
                    "time": 128.62749599999944,
                    "velocity": 0.33070866141732286,
                    "duration": 0.13071899999999914
                },
                {
                    "name": "F#4",
                    "midi": 66,
                    "time": 128.62749599999944,
                    "velocity": 0.33070866141732286,
                    "duration": 0.13071899999999914
                },
                {
                    "name": "B4",
                    "midi": 71,
                    "time": 128.62749599999944,
                    "velocity": 0.3937007874015748,
                    "duration": 0.13071899999999914
                },
                {
                    "name": "D4",
                    "midi": 62,
                    "time": 128.88893399999944,
                    "velocity": 0.29133858267716534,
                    "duration": 0.13071899999999914
                },
                {
                    "name": "F#4",
                    "midi": 66,
                    "time": 128.88893399999944,
                    "velocity": 0.29133858267716534,
                    "duration": 0.13071899999999914
                },
                {
                    "name": "B4",
                    "midi": 71,
                    "time": 128.88893399999944,
                    "velocity": 0.3543307086614173,
                    "duration": 0.13071899999999914
                },
                {
                    "name": "D4",
                    "midi": 62,
                    "time": 129.15037199999944,
                    "velocity": 0.29133858267716534,
                    "duration": 0.13071899999999914
                },
                {
                    "name": "F#4",
                    "midi": 66,
                    "time": 129.15037199999944,
                    "velocity": 0.29133858267716534,
                    "duration": 0.13071899999999914
                },
                {
                    "name": "B4",
                    "midi": 71,
                    "time": 129.15037199999944,
                    "velocity": 0.3543307086614173,
                    "duration": 0.13071899999999914
                },
                {
                    "name": "D4",
                    "midi": 62,
                    "time": 129.41180999999943,
                    "velocity": 0.29133858267716534,
                    "duration": 0.13071899999999914
                },
                {
                    "name": "F#4",
                    "midi": 66,
                    "time": 129.41180999999943,
                    "velocity": 0.29133858267716534,
                    "duration": 0.13071899999999914
                },
                {
                    "name": "B4",
                    "midi": 71,
                    "time": 129.41180999999943,
                    "velocity": 0.3543307086614173,
                    "duration": 0.13071899999999914
                },
                {
                    "name": "E4",
                    "midi": 64,
                    "time": 129.67324799999943,
                    "velocity": 0.33070866141732286,
                    "duration": 0.13071899999999914
                },
                {
                    "name": "A4",
                    "midi": 69,
                    "time": 129.67324799999943,
                    "velocity": 0.33070866141732286,
                    "duration": 0.13071899999999914
                },
                {
                    "name": "C#5",
                    "midi": 73,
                    "time": 129.67324799999943,
                    "velocity": 0.3937007874015748,
                    "duration": 0.13071899999999914
                },
                {
                    "name": "E4",
                    "midi": 64,
                    "time": 129.93468599999943,
                    "velocity": 0.29133858267716534,
                    "duration": 0.13071899999999914
                },
                {
                    "name": "A4",
                    "midi": 69,
                    "time": 129.93468599999943,
                    "velocity": 0.29133858267716534,
                    "duration": 0.13071899999999914
                },
                {
                    "name": "C#5",
                    "midi": 73,
                    "time": 129.93468599999943,
                    "velocity": 0.3543307086614173,
                    "duration": 0.13071899999999914
                },
                {
                    "name": "E4",
                    "midi": 64,
                    "time": 130.19612399999943,
                    "velocity": 0.29133858267716534,
                    "duration": 0.13071899999999914
                },
                {
                    "name": "A4",
                    "midi": 69,
                    "time": 130.19612399999943,
                    "velocity": 0.29133858267716534,
                    "duration": 0.13071899999999914
                },
                {
                    "name": "C#5",
                    "midi": 73,
                    "time": 130.19612399999943,
                    "velocity": 0.3543307086614173,
                    "duration": 0.13071899999999914
                },
                {
                    "name": "E4",
                    "midi": 64,
                    "time": 130.45756199999943,
                    "velocity": 0.29133858267716534,
                    "duration": 0.13071899999999914
                },
                {
                    "name": "A4",
                    "midi": 69,
                    "time": 130.45756199999943,
                    "velocity": 0.29133858267716534,
                    "duration": 0.13071899999999914
                },
                {
                    "name": "C#5",
                    "midi": 73,
                    "time": 130.45756199999943,
                    "velocity": 0.3543307086614173,
                    "duration": 0.13071899999999914
                },
                {
                    "name": "E4",
                    "midi": 64,
                    "time": 130.71899999999943,
                    "velocity": 0.3937007874015748,
                    "duration": 0.13071899999999914
                },
                {
                    "name": "G#4",
                    "midi": 68,
                    "time": 130.71899999999943,
                    "velocity": 0.3937007874015748,
                    "duration": 0.13071899999999914
                },
                {
                    "name": "E4",
                    "midi": 64,
                    "time": 130.98043799999942,
                    "velocity": 0.3543307086614173,
                    "duration": 0.13071899999999914
                },
                {
                    "name": "G#4",
                    "midi": 68,
                    "time": 130.98043799999942,
                    "velocity": 0.3543307086614173,
                    "duration": 0.13071899999999914
                },
                {
                    "name": "E4",
                    "midi": 64,
                    "time": 131.24187599999942,
                    "velocity": 0.3543307086614173,
                    "duration": 0.13071899999999914
                },
                {
                    "name": "G#4",
                    "midi": 68,
                    "time": 131.24187599999942,
                    "velocity": 0.3543307086614173,
                    "duration": 0.13071899999999914
                },
                {
                    "name": "E4",
                    "midi": 64,
                    "time": 131.50331399999942,
                    "velocity": 0.3543307086614173,
                    "duration": 0.13071899999999914
                },
                {
                    "name": "G#4",
                    "midi": 68,
                    "time": 131.50331399999942,
                    "velocity": 0.3543307086614173,
                    "duration": 0.13071899999999914
                },
                {
                    "name": "A3",
                    "midi": 57,
                    "time": 131.76475199999942,
                    "velocity": 0.44881889763779526,
                    "duration": 0.13071899999999914
                },
                {
                    "name": "A4",
                    "midi": 69,
                    "time": 131.89547099999942,
                    "velocity": 0.3700787401574803,
                    "duration": 0.13071899999999914
                },
                {
                    "name": "G#4",
                    "midi": 68,
                    "time": 132.02618999999942,
                    "velocity": 0.3937007874015748,
                    "duration": 0.13071899999999914
                },
                {
                    "name": "A4",
                    "midi": 69,
                    "time": 132.15690899999942,
                    "velocity": 0.3700787401574803,
                    "duration": 0.13071899999999914
                },
                {
                    "name": "C#4",
                    "midi": 61,
                    "time": 132.28762799999942,
                    "velocity": 0.44881889763779526,
                    "duration": 0.13071899999999914
                },
                {
                    "name": "A4",
                    "midi": 69,
                    "time": 132.41834699999941,
                    "velocity": 0.3779527559055118,
                    "duration": 0.13071899999999914
                },
                {
                    "name": "G#4",
                    "midi": 68,
                    "time": 132.5490659999994,
                    "velocity": 0.3937007874015748,
                    "duration": 0.13071899999999914
                },
                {
                    "name": "A4",
                    "midi": 69,
                    "time": 132.6797849999994,
                    "velocity": 0.3700787401574803,
                    "duration": 0.13071899999999914
                },
                {
                    "name": "D4",
                    "midi": 62,
                    "time": 132.8105039999994,
                    "velocity": 0.44881889763779526,
                    "duration": 0.13071899999999914
                },
                {
                    "name": "A4",
                    "midi": 69,
                    "time": 132.9412229999994,
                    "velocity": 0.3700787401574803,
                    "duration": 0.13071899999999914
                },
                {
                    "name": "C#4",
                    "midi": 61,
                    "time": 133.0719419999994,
                    "velocity": 0.3937007874015748,
                    "duration": 0.13071899999999914
                },
                {
                    "name": "A4",
                    "midi": 69,
                    "time": 133.2026609999994,
                    "velocity": 0.3700787401574803,
                    "duration": 0.13071899999999914
                },
                {
                    "name": "D4",
                    "midi": 62,
                    "time": 133.3333799999994,
                    "velocity": 0.44881889763779526,
                    "duration": 0.13071899999999914
                },
                {
                    "name": "A4",
                    "midi": 69,
                    "time": 133.4640989999994,
                    "velocity": 0.3779527559055118,
                    "duration": 0.13071899999999914
                },
                {
                    "name": "C#4",
                    "midi": 61,
                    "time": 133.5948179999994,
                    "velocity": 0.3937007874015748,
                    "duration": 0.13071899999999914
                },
                {
                    "name": "A4",
                    "midi": 69,
                    "time": 133.7255369999994,
                    "velocity": 0.3700787401574803,
                    "duration": 0.13071899999999914
                },
                {
                    "name": "B3",
                    "midi": 59,
                    "time": 133.8562559999994,
                    "velocity": 0.3779527559055118,
                    "duration": 0.5228759999999966
                },
                {
                    "name": "G#4",
                    "midi": 68,
                    "time": 133.8562559999994,
                    "velocity": 0.44881889763779526,
                    "duration": 0.5228759999999966
                },
                {
                    "name": "D4",
                    "midi": 62,
                    "time": 134.9020079999994,
                    "velocity": 0.44881889763779526,
                    "duration": 0.2614379999999983
                },
                {
                    "name": "F#4",
                    "midi": 66,
                    "time": 134.9020079999994,
                    "velocity": 0.44881889763779526,
                    "duration": 0.2614379999999983
                },
                {
                    "name": "E3",
                    "midi": 52,
                    "time": 135.4248839999994,
                    "velocity": 0.3779527559055118,
                    "duration": 0.2614379999999983
                },
                {
                    "name": "E4",
                    "midi": 64,
                    "time": 135.4248839999994,
                    "velocity": 0.44881889763779526,
                    "duration": 0.2614379999999983
                },
                {
                    "name": "A3",
                    "midi": 57,
                    "time": 135.9477599999994,
                    "velocity": 0.44881889763779526,
                    "duration": 0.13071899999999914
                },
                {
                    "name": "A4",
                    "midi": 69,
                    "time": 136.0784789999994,
                    "velocity": 0.3700787401574803,
                    "duration": 0.13071899999999914
                },
                {
                    "name": "G#4",
                    "midi": 68,
                    "time": 136.2091979999994,
                    "velocity": 0.3937007874015748,
                    "duration": 0.13071899999999914
                },
                {
                    "name": "A4",
                    "midi": 69,
                    "time": 136.3399169999994,
                    "velocity": 0.3700787401574803,
                    "duration": 0.13071899999999914
                },
                {
                    "name": "C#4",
                    "midi": 61,
                    "time": 136.4706359999994,
                    "velocity": 0.44881889763779526,
                    "duration": 0.13071899999999914
                },
                {
                    "name": "A4",
                    "midi": 69,
                    "time": 136.6013549999994,
                    "velocity": 0.3779527559055118,
                    "duration": 0.13071899999999914
                },
                {
                    "name": "G#4",
                    "midi": 68,
                    "time": 136.7320739999994,
                    "velocity": 0.3937007874015748,
                    "duration": 0.13071899999999914
                },
                {
                    "name": "A4",
                    "midi": 69,
                    "time": 136.86279299999939,
                    "velocity": 0.3700787401574803,
                    "duration": 0.13071899999999914
                },
                {
                    "name": "D4",
                    "midi": 62,
                    "time": 136.99351199999938,
                    "velocity": 0.44881889763779526,
                    "duration": 0.13071899999999914
                },
                {
                    "name": "A4",
                    "midi": 69,
                    "time": 137.12423099999938,
                    "velocity": 0.3700787401574803,
                    "duration": 0.13071899999999914
                },
                {
                    "name": "C#4",
                    "midi": 61,
                    "time": 137.25494999999938,
                    "velocity": 0.3937007874015748,
                    "duration": 0.13071899999999914
                },
                {
                    "name": "A4",
                    "midi": 69,
                    "time": 137.38566899999938,
                    "velocity": 0.3700787401574803,
                    "duration": 0.13071899999999914
                },
                {
                    "name": "D4",
                    "midi": 62,
                    "time": 137.51638799999938,
                    "velocity": 0.44881889763779526,
                    "duration": 0.13071899999999914
                },
                {
                    "name": "A4",
                    "midi": 69,
                    "time": 137.64710699999938,
                    "velocity": 0.3779527559055118,
                    "duration": 0.13071899999999914
                },
                {
                    "name": "C#4",
                    "midi": 61,
                    "time": 137.77782599999938,
                    "velocity": 0.3937007874015748,
                    "duration": 0.13071899999999914
                },
                {
                    "name": "A4",
                    "midi": 69,
                    "time": 137.90854499999938,
                    "velocity": 0.3700787401574803,
                    "duration": 0.13071899999999914
                },
                {
                    "name": "B3",
                    "midi": 59,
                    "time": 138.03926399999938,
                    "velocity": 0.3779527559055118,
                    "duration": 0.5228759999999966
                },
                {
                    "name": "G#4",
                    "midi": 68,
                    "time": 138.03926399999938,
                    "velocity": 0.44881889763779526,
                    "duration": 0.5228759999999966
                },
                {
                    "name": "A3",
                    "midi": 57,
                    "time": 138.82357799999937,
                    "velocity": 0.3228346456692913,
                    "duration": 0.2614379999999983
                },
                {
                    "name": "A4",
                    "midi": 69,
                    "time": 138.82357799999937,
                    "velocity": 0.3858267716535433,
                    "duration": 0.2614379999999983
                },
                {
                    "name": "D4",
                    "midi": 62,
                    "time": 139.08501599999937,
                    "velocity": 0.3779527559055118,
                    "duration": 0.2614379999999983
                },
                {
                    "name": "F#4",
                    "midi": 66,
                    "time": 139.08501599999937,
                    "velocity": 0.44881889763779526,
                    "duration": 0.2614379999999983
                },
                {
                    "name": "E4",
                    "midi": 64,
                    "time": 139.60789199999937,
                    "velocity": 0.30708661417322836,
                    "duration": 0.2614379999999983
                },
                {
                    "name": "E3",
                    "midi": 52,
                    "time": 139.60789199999937,
                    "velocity": 0.25984251968503935,
                    "duration": 0.2614379999999983
                },
                {
                    "name": "A2",
                    "midi": 45,
                    "time": 140.13076799999936,
                    "velocity": 0.2992125984251969,
                    "duration": 0.2614379999999983
                },
                {
                    "name": "A3",
                    "midi": 57,
                    "time": 140.13076799999936,
                    "velocity": 0.3543307086614173,
                    "duration": 0.2614379999999983
                },
                {
                    "name": "D4",
                    "midi": 62,
                    "time": 140.65364399999936,
                    "velocity": 0.3228346456692913,
                    "duration": 0.2614379999999983
                },
                {
                    "name": "E3",
                    "midi": 52,
                    "time": 140.65364399999936,
                    "velocity": 0.2677165354330709,
                    "duration": 0.2614379999999983
                },
                {
                    "name": "E3",
                    "midi": 52,
                    "time": 141.17651999999936,
                    "velocity": 0.2992125984251969,
                    "duration": 0.2614379999999983
                },
                {
                    "name": "C#4",
                    "midi": 61,
                    "time": 141.17651999999936,
                    "velocity": 0.3543307086614173,
                    "duration": 0.2614379999999983
                },
                {
                    "name": "B3",
                    "midi": 59,
                    "time": 141.69939599999935,
                    "velocity": 0.30708661417322836,
                    "duration": 0.12527237500000865
                },
                {
                    "name": "E3",
                    "midi": 52,
                    "time": 141.69939599999935,
                    "velocity": 0.25984251968503935,
                    "duration": 0.2614379999999983
                },
                {
                    "name": "A2",
                    "midi": 45,
                    "time": 142.22227199999935,
                    "velocity": 0.28346456692913385,
                    "duration": 0.5228759999999966
                },
                {
                    "name": "A3",
                    "midi": 57,
                    "time": 142.22227199999935,
                    "velocity": 0.33858267716535434,
                    "duration": 0.5228759999999966
                },
                {
                    "name": "F#1",
                    "midi": 30,
                    "time": 143.26802399999934,
                    "velocity": 0.2677165354330709,
                    "duration": 3.1372559999999794
                },
                {
                    "name": "F#2",
                    "midi": 42,
                    "time": 143.26802399999934,
                    "velocity": 0.2677165354330709,
                    "duration": 3.1372559999999794
                },
                {
                    "name": "E3",
                    "midi": 52,
                    "time": 145.09808999999933,
                    "velocity": 0.31496062992125984,
                    "duration": 0.2614379999999983
                },
                {
                    "name": "D3",
                    "midi": 50,
                    "time": 145.35952799999933,
                    "velocity": 0.36220472440944884,
                    "duration": 0.2614379999999983
                },
                {
                    "name": "B2",
                    "midi": 47,
                    "time": 145.62096599999933,
                    "velocity": 0.3228346456692913,
                    "duration": 0.2614379999999983
                },
                {
                    "name": "A#2",
                    "midi": 46,
                    "time": 145.88240399999933,
                    "velocity": 0.36220472440944884,
                    "duration": 0.2614379999999983
                },
                {
                    "name": "B2",
                    "midi": 47,
                    "time": 146.14384199999932,
                    "velocity": 0.30708661417322836,
                    "duration": 0.2614379999999983
                },
                {
                    "name": "B2",
                    "midi": 47,
                    "time": 146.40527999999932,
                    "velocity": 0.36220472440944884,
                    "duration": 0.5228759999999966
                },
                {
                    "name": "F#4",
                    "midi": 66,
                    "time": 148.2353459999993,
                    "velocity": 0.33070866141732286,
                    "duration": 0.06535949999999957
                },
                {
                    "name": "D4",
                    "midi": 62,
                    "time": 148.2353459999993,
                    "velocity": 0.28346456692913385,
                    "duration": 0.06535949999999957
                },
                {
                    "name": "E4",
                    "midi": 64,
                    "time": 148.4967839999993,
                    "velocity": 0.31496062992125984,
                    "duration": 0.2614379999999983
                },
                {
                    "name": "G4",
                    "midi": 67,
                    "time": 148.4967839999993,
                    "velocity": 0.3779527559055118,
                    "duration": 0.2614379999999983
                },
                {
                    "name": "F#4",
                    "midi": 66,
                    "time": 148.7582219999993,
                    "velocity": 0.31496062992125984,
                    "duration": 0.2614379999999983
                },
                {
                    "name": "D4",
                    "midi": 62,
                    "time": 148.7582219999993,
                    "velocity": 0.2677165354330709,
                    "duration": 0.2614379999999983
                },
                {
                    "name": "B4",
                    "midi": 71,
                    "time": 150.3268499999993,
                    "velocity": 0.29133858267716534,
                    "duration": 0.06535949999999957
                },
                {
                    "name": "D5",
                    "midi": 74,
                    "time": 150.3268499999993,
                    "velocity": 0.33070866141732286,
                    "duration": 0.06535949999999957
                },
                {
                    "name": "C#5",
                    "midi": 73,
                    "time": 150.5882879999993,
                    "velocity": 0.3779527559055118,
                    "duration": 0.2614379999999983
                },
                {
                    "name": "A#4",
                    "midi": 70,
                    "time": 150.5882879999993,
                    "velocity": 0.31496062992125984,
                    "duration": 0.2614379999999983
                },
                {
                    "name": "D5",
                    "midi": 74,
                    "time": 150.8497259999993,
                    "velocity": 0.31496062992125984,
                    "duration": 0.2614379999999983
                },
                {
                    "name": "B4",
                    "midi": 71,
                    "time": 150.8497259999993,
                    "velocity": 0.2677165354330709,
                    "duration": 0.2614379999999983
                },
                {
                    "name": "B4",
                    "midi": 71,
                    "time": 152.15691599999928,
                    "velocity": 0.2755905511811024,
                    "duration": 0.06535949999999957
                },
                {
                    "name": "D5",
                    "midi": 74,
                    "time": 152.15691599999928,
                    "velocity": 0.33070866141732286,
                    "duration": 0.06535949999999957
                },
                {
                    "name": "C#5",
                    "midi": 73,
                    "time": 152.41835399999928,
                    "velocity": 0.31496062992125984,
                    "duration": 0.06535949999999957
                },
                {
                    "name": "A4",
                    "midi": 69,
                    "time": 152.41835399999928,
                    "velocity": 0.2677165354330709,
                    "duration": 0.06535949999999957
                },
                {
                    "name": "G4",
                    "midi": 67,
                    "time": 152.67979199999928,
                    "velocity": 0.31496062992125984,
                    "duration": 0.2614379999999983
                },
                {
                    "name": "B4",
                    "midi": 71,
                    "time": 152.67979199999928,
                    "velocity": 0.3779527559055118,
                    "duration": 0.2614379999999983
                },
                {
                    "name": "F#4",
                    "midi": 66,
                    "time": 152.94122999999928,
                    "velocity": 0.2677165354330709,
                    "duration": 0.2614379999999983
                },
                {
                    "name": "A4",
                    "midi": 69,
                    "time": 152.94122999999928,
                    "velocity": 0.31496062992125984,
                    "duration": 0.2614379999999983
                },
                {
                    "name": "D3",
                    "midi": 50,
                    "time": 153.72554399999927,
                    "velocity": 0.2677165354330709,
                    "duration": 2.0915039999999863
                },
                {
                    "name": "B3",
                    "midi": 59,
                    "time": 154.77129599999927,
                    "velocity": 0.2677165354330709,
                    "duration": 1.1764709999999923
                },
                {
                    "name": "D#3",
                    "midi": 51,
                    "time": 155.81704799999926,
                    "velocity": 0.31496062992125984,
                    "duration": 1.0457519999999931
                },
                {
                    "name": "A3",
                    "midi": 57,
                    "time": 155.94776699999926,
                    "velocity": 0.31496062992125984,
                    "duration": 0.13071899999999914
                },
                {
                    "name": "G#3",
                    "midi": 56,
                    "time": 156.07848599999926,
                    "velocity": 0.3858267716535433,
                    "duration": 0.13071899999999914
                },
                {
                    "name": "A3",
                    "midi": 57,
                    "time": 156.20920499999926,
                    "velocity": 0.31496062992125984,
                    "duration": 0.13071899999999914
                },
                {
                    "name": "B3",
                    "midi": 59,
                    "time": 156.33992399999926,
                    "velocity": 0.3779527559055118,
                    "duration": 0.13071899999999914
                },
                {
                    "name": "A3",
                    "midi": 57,
                    "time": 156.47064299999926,
                    "velocity": 0.31496062992125984,
                    "duration": 0.13071899999999914
                },
                {
                    "name": "C4",
                    "midi": 60,
                    "time": 156.60136199999926,
                    "velocity": 0.3858267716535433,
                    "duration": 0.13071899999999914
                },
                {
                    "name": "A3",
                    "midi": 57,
                    "time": 156.73208099999925,
                    "velocity": 0.3464566929133858,
                    "duration": 0.6535949999999957
                },
                {
                    "name": "E3",
                    "midi": 52,
                    "time": 156.86279999999925,
                    "velocity": 0.31496062992125984,
                    "duration": 1.0457519999999931
                },
                {
                    "name": "G3",
                    "midi": 55,
                    "time": 157.38567599999925,
                    "velocity": 0.31496062992125984,
                    "duration": 0.5228759999999966
                },
                {
                    "name": "C#4",
                    "midi": 61,
                    "time": 158.03927099999925,
                    "velocity": 0.36220472440944884,
                    "duration": 0.13071899999999914
                },
                {
                    "name": "B3",
                    "midi": 59,
                    "time": 158.16998999999925,
                    "velocity": 0.4409448818897638,
                    "duration": 0.13071899999999914
                },
                {
                    "name": "C#4",
                    "midi": 61,
                    "time": 158.30070899999924,
                    "velocity": 0.36220472440944884,
                    "duration": 0.13071899999999914
                },
                {
                    "name": "D4",
                    "midi": 62,
                    "time": 158.43142799999924,
                    "velocity": 0.4330708661417323,
                    "duration": 0.13071899999999914
                },
                {
                    "name": "C#4",
                    "midi": 61,
                    "time": 158.56214699999924,
                    "velocity": 0.36220472440944884,
                    "duration": 0.13071899999999914
                },
                {
                    "name": "E4",
                    "midi": 64,
                    "time": 158.69286599999924,
                    "velocity": 0.4409448818897638,
                    "duration": 0.13071899999999914
                },
                {
                    "name": "B3",
                    "midi": 59,
                    "time": 158.82358499999924,
                    "velocity": 0.3937007874015748,
                    "duration": 0.13071899999999914
                },
                {
                    "name": "A#3",
                    "midi": 58,
                    "time": 158.95430399999924,
                    "velocity": 0.3858267716535433,
                    "duration": 1.0457519999999931
                },
                {
                    "name": "F#4",
                    "midi": 66,
                    "time": 158.95430399999924,
                    "velocity": 0.4566929133858268,
                    "duration": 1.5686279999999897
                },
                {
                    "name": "B3",
                    "midi": 59,
                    "time": 160.00005599999923,
                    "velocity": 0.4251968503937008,
                    "duration": 0.5228759999999966
                },
                {
                    "name": "F4",
                    "midi": 65,
                    "time": 160.52293199999923,
                    "velocity": 0.44881889763779526,
                    "duration": 0.5228759999999966
                },
                {
                    "name": "G3",
                    "midi": 55,
                    "time": 160.52293199999923,
                    "velocity": 0.3779527559055118,
                    "duration": 0.5228759999999966
                },
                {
                    "name": "F#4",
                    "midi": 66,
                    "time": 161.04580799999923,
                    "velocity": 0.4251968503937008,
                    "duration": 0.5228759999999966
                },
                {
                    "name": "F#3",
                    "midi": 54,
                    "time": 161.04580799999923,
                    "velocity": 0.3543307086614173,
                    "duration": 0.5228759999999966
                },
                {
                    "name": "F#2",
                    "midi": 42,
                    "time": 162.09155999999922,
                    "velocity": 0.3464566929133858,
                    "duration": 0.5228759999999966
                },
                {
                    "name": "F3",
                    "midi": 53,
                    "time": 164.4445019999992,
                    "velocity": 0.33858267716535434,
                    "duration": 0.2614379999999983
                },
                {
                    "name": "F#3",
                    "midi": 54,
                    "time": 164.7059399999992,
                    "velocity": 0.3779527559055118,
                    "duration": 0.1960784999999987
                },
                {
                    "name": "A#3",
                    "midi": 58,
                    "time": 166.5360059999992,
                    "velocity": 0.33858267716535434,
                    "duration": 0.2614379999999983
                },
                {
                    "name": "B3",
                    "midi": 59,
                    "time": 166.7974439999992,
                    "velocity": 0.3779527559055118,
                    "duration": 0.1960784999999987
                },
                {
                    "name": "B3",
                    "midi": 59,
                    "time": 167.58175799999918,
                    "velocity": 0.3779527559055118,
                    "duration": 0.13071899999999914
                },
                {
                    "name": "E4",
                    "midi": 64,
                    "time": 167.84319599999918,
                    "velocity": 0.4015748031496063,
                    "duration": 0.13071899999999914
                },
                {
                    "name": "F#4",
                    "midi": 66,
                    "time": 168.10463399999918,
                    "velocity": 0.3779527559055118,
                    "duration": 0.13071899999999914
                },
                {
                    "name": "G4",
                    "midi": 67,
                    "time": 168.36607199999918,
                    "velocity": 0.4409448818897638,
                    "duration": 0.5228759999999966
                },
                {
                    "name": "E3",
                    "midi": 52,
                    "time": 169.15038599999917,
                    "velocity": 0.3779527559055118,
                    "duration": 0.13071899999999914
                },
                {
                    "name": "A3",
                    "midi": 57,
                    "time": 169.41182399999917,
                    "velocity": 0.4015748031496063,
                    "duration": 0.13071899999999914
                },
                {
                    "name": "B3",
                    "midi": 59,
                    "time": 169.67326199999917,
                    "velocity": 0.3779527559055118,
                    "duration": 0.13071899999999914
                },
                {
                    "name": "C#4",
                    "midi": 61,
                    "time": 169.93469999999917,
                    "velocity": 0.4015748031496063,
                    "duration": 0.13071899999999914
                },
                {
                    "name": "D4",
                    "midi": 62,
                    "time": 170.19613799999917,
                    "velocity": 0.3779527559055118,
                    "duration": 0.13071899999999914
                },
                {
                    "name": "E4",
                    "midi": 64,
                    "time": 170.45757599999916,
                    "velocity": 0.4409448818897638,
                    "duration": 0.5228759999999966
                },
                {
                    "name": "A2",
                    "midi": 45,
                    "time": 171.24188999999916,
                    "velocity": 0.3779527559055118,
                    "duration": 0.13071899999999914
                },
                {
                    "name": "D3",
                    "midi": 50,
                    "time": 171.50332799999916,
                    "velocity": 0.4015748031496063,
                    "duration": 0.13071899999999914
                },
                {
                    "name": "E3",
                    "midi": 52,
                    "time": 171.76476599999916,
                    "velocity": 0.3779527559055118,
                    "duration": 0.13071899999999914
                },
                {
                    "name": "F#3",
                    "midi": 54,
                    "time": 172.02620399999915,
                    "velocity": 0.4015748031496063,
                    "duration": 0.13071899999999914
                },
                {
                    "name": "G3",
                    "midi": 55,
                    "time": 172.28764199999915,
                    "velocity": 0.3779527559055118,
                    "duration": 0.13071899999999914
                },
                {
                    "name": "A3",
                    "midi": 57,
                    "time": 172.54907999999915,
                    "velocity": 0.4409448818897638,
                    "duration": 0.5228759999999966
                },
                {
                    "name": "D3",
                    "midi": 50,
                    "time": 173.33339399999915,
                    "velocity": 0.3779527559055118,
                    "duration": 0.2614379999999983
                },
                {
                    "name": "G3",
                    "midi": 55,
                    "time": 173.59483199999914,
                    "velocity": 0.4409448818897638,
                    "duration": 0.5228759999999966
                },
                {
                    "name": "G2",
                    "midi": 43,
                    "time": 174.64058399999914,
                    "velocity": 0.4409448818897638,
                    "duration": 0.5228759999999966
                },
                {
                    "name": "A2",
                    "midi": 45,
                    "time": 175.68633599999913,
                    "velocity": 0.4881889763779528,
                    "duration": 0.13071899999999914
                },
                {
                    "name": "B2",
                    "midi": 47,
                    "time": 175.81705499999913,
                    "velocity": 0.4251968503937008,
                    "duration": 0.13071899999999914
                },
                {
                    "name": "C#3",
                    "midi": 49,
                    "time": 175.94777399999913,
                    "velocity": 0.4251968503937008,
                    "duration": 0.13071899999999914
                },
                {
                    "name": "D3",
                    "midi": 50,
                    "time": 176.07849299999913,
                    "velocity": 0.4330708661417323,
                    "duration": 0.13071899999999914
                },
                {
                    "name": "E3",
                    "midi": 52,
                    "time": 176.20921199999913,
                    "velocity": 0.44881889763779526,
                    "duration": 0.13071899999999914
                },
                {
                    "name": "F#3",
                    "midi": 54,
                    "time": 176.33993099999913,
                    "velocity": 0.4330708661417323,
                    "duration": 0.13071899999999914
                },
                {
                    "name": "G3",
                    "midi": 55,
                    "time": 176.47064999999913,
                    "velocity": 0.4330708661417323,
                    "duration": 0.13071899999999914
                },
                {
                    "name": "F#3",
                    "midi": 54,
                    "time": 176.60136899999912,
                    "velocity": 0.4330708661417323,
                    "duration": 0.13071899999999914
                },
                {
                    "name": "G3",
                    "midi": 55,
                    "time": 176.73208799999912,
                    "velocity": 0.49606299212598426,
                    "duration": 0.5228759999999966
                },
                {
                    "name": "B4",
                    "midi": 71,
                    "time": 183.0065999999991,
                    "velocity": 0.4566929133858268,
                    "duration": 0.13071899999999914
                },
                {
                    "name": "C#5",
                    "midi": 73,
                    "time": 183.1373189999991,
                    "velocity": 0.48031496062992124,
                    "duration": 0.13071899999999914
                },
                {
                    "name": "D5",
                    "midi": 74,
                    "time": 183.2680379999991,
                    "velocity": 0.4881889763779528,
                    "duration": 0.13071899999999914
                },
                {
                    "name": "C#5",
                    "midi": 73,
                    "time": 183.3987569999991,
                    "velocity": 0.4566929133858268,
                    "duration": 0.13071899999999914
                },
                {
                    "name": "B4",
                    "midi": 71,
                    "time": 183.5294759999991,
                    "velocity": 0.4409448818897638,
                    "duration": 0.13071899999999914
                },
                {
                    "name": "A4",
                    "midi": 69,
                    "time": 183.6601949999991,
                    "velocity": 0.4330708661417323,
                    "duration": 0.13071899999999914
                },
                {
                    "name": "G4",
                    "midi": 67,
                    "time": 183.7909139999991,
                    "velocity": 0.4409448818897638,
                    "duration": 0.13071899999999914
                },
                {
                    "name": "F#4",
                    "midi": 66,
                    "time": 183.9216329999991,
                    "velocity": 0.41732283464566927,
                    "duration": 0.13071899999999914
                },
                {
                    "name": "G4",
                    "midi": 67,
                    "time": 184.0523519999991,
                    "velocity": 0.4566929133858268,
                    "duration": 0.13071899999999914
                },
                {
                    "name": "A4",
                    "midi": 69,
                    "time": 184.1830709999991,
                    "velocity": 0.48031496062992124,
                    "duration": 0.13071899999999914
                },
                {
                    "name": "B4",
                    "midi": 71,
                    "time": 184.3137899999991,
                    "velocity": 0.4881889763779528,
                    "duration": 0.13071899999999914
                },
                {
                    "name": "A4",
                    "midi": 69,
                    "time": 184.4445089999991,
                    "velocity": 0.4566929133858268,
                    "duration": 0.13071899999999914
                },
                {
                    "name": "G4",
                    "midi": 67,
                    "time": 184.5752279999991,
                    "velocity": 0.4409448818897638,
                    "duration": 0.13071899999999914
                },
                {
                    "name": "F#4",
                    "midi": 66,
                    "time": 184.7059469999991,
                    "velocity": 0.4330708661417323,
                    "duration": 0.13071899999999914
                },
                {
                    "name": "E4",
                    "midi": 64,
                    "time": 184.8366659999991,
                    "velocity": 0.4409448818897638,
                    "duration": 0.13071899999999914
                },
                {
                    "name": "D4",
                    "midi": 62,
                    "time": 184.9673849999991,
                    "velocity": 0.41732283464566927,
                    "duration": 0.13071899999999914
                },
                {
                    "name": "C#4",
                    "midi": 61,
                    "time": 185.0981039999991,
                    "velocity": 0.4409448818897638,
                    "duration": 0.7843139999999948
                },
                {
                    "name": "D4",
                    "midi": 62,
                    "time": 185.8824179999991,
                    "velocity": 0.3937007874015748,
                    "duration": 0.13071899999999914
                },
                {
                    "name": "C#4",
                    "midi": 61,
                    "time": 186.1438559999991,
                    "velocity": 0.4409448818897638,
                    "duration": 0.13071899999999914
                },
                {
                    "name": "D4",
                    "midi": 62,
                    "time": 186.4052939999991,
                    "velocity": 0.4015748031496063,
                    "duration": 0.13071899999999914
                },
                {
                    "name": "C#4",
                    "midi": 61,
                    "time": 186.6667319999991,
                    "velocity": 0.4409448818897638,
                    "duration": 0.13071899999999914
                },
                {
                    "name": "D#4",
                    "midi": 63,
                    "time": 186.92816999999908,
                    "velocity": 0.4094488188976378,
                    "duration": 0.13071899999999914
                },
                {
                    "name": "A3",
                    "midi": 57,
                    "time": 187.18960799999908,
                    "velocity": 0.3779527559055118,
                    "duration": 2.0915039999999863
                },
                {
                    "name": "E4",
                    "midi": 64,
                    "time": 187.18960799999908,
                    "velocity": 0.4409448818897638,
                    "duration": 0.7843139999999948
                },
                {
                    "name": "D#4",
                    "midi": 63,
                    "time": 187.97392199999908,
                    "velocity": 0.3937007874015748,
                    "duration": 0.13071899999999914
                },
                {
                    "name": "E4",
                    "midi": 64,
                    "time": 188.23535999999908,
                    "velocity": 0.4409448818897638,
                    "duration": 0.13071899999999914
                },
                {
                    "name": "D#4",
                    "midi": 63,
                    "time": 188.49679799999907,
                    "velocity": 0.4015748031496063,
                    "duration": 0.13071899999999914
                },
                {
                    "name": "E4",
                    "midi": 64,
                    "time": 188.75823599999907,
                    "velocity": 0.4409448818897638,
                    "duration": 0.13071899999999914
                },
                {
                    "name": "D#4",
                    "midi": 63,
                    "time": 189.01967399999907,
                    "velocity": 0.4094488188976378,
                    "duration": 0.13071899999999914
                },
                {
                    "name": "A3",
                    "midi": 57,
                    "time": 189.28111199999907,
                    "velocity": 0.33858267716535434,
                    "duration": 2.614379999999983
                },
                {
                    "name": "E4",
                    "midi": 64,
                    "time": 189.28111199999907,
                    "velocity": 0.3937007874015748,
                    "duration": 0.3921569999999974
                },
                {
                    "name": "D#4",
                    "midi": 63,
                    "time": 189.67326899999907,
                    "velocity": 0.30708661417322836,
                    "duration": 0.13071899999999914
                },
                {
                    "name": "E4",
                    "midi": 64,
                    "time": 189.80398799999907,
                    "velocity": 0.3228346456692913,
                    "duration": 0.3921569999999974
                },
                {
                    "name": "D#4",
                    "midi": 63,
                    "time": 190.19614499999906,
                    "velocity": 0.2755905511811024,
                    "duration": 0.13071899999999914
                },
                {
                    "name": "E4",
                    "midi": 64,
                    "time": 190.32686399999906,
                    "velocity": 0.30708661417322836,
                    "duration": 0.3921569999999974
                },
                {
                    "name": "D#4",
                    "midi": 63,
                    "time": 190.71902099999906,
                    "velocity": 0.2440944881889764,
                    "duration": 0.14379089999999906
                },
                {
                    "name": "E4",
                    "midi": 64,
                    "time": 190.84973999999906,
                    "velocity": 0.2677165354330709,
                    "duration": 0.14379089999999906
                },
                {
                    "name": "D#4",
                    "midi": 63,
                    "time": 190.98045899999906,
                    "velocity": 0.23622047244094488,
                    "duration": 0.14379089999999906
                },
                {
                    "name": "E4",
                    "midi": 64,
                    "time": 191.11117799999906,
                    "velocity": 0.25196850393700787,
                    "duration": 0.14379089999999906
                },
                {
                    "name": "D#4",
                    "midi": 63,
                    "time": 191.24189699999906,
                    "velocity": 0.2204724409448819,
                    "duration": 0.14379089999999906
                },
                {
                    "name": "E4",
                    "midi": 64,
                    "time": 191.37261599999906,
                    "velocity": 0.23622047244094488,
                    "duration": 0.5228759999999966
                },
                {
                    "name": "A3",
                    "midi": 57,
                    "time": 192.41836799999905,
                    "velocity": 0.25196850393700787,
                    "duration": 0.06535949999999957
                },
                {
                    "name": "C#4",
                    "midi": 61,
                    "time": 192.48372749999905,
                    "velocity": 0.2677165354330709,
                    "duration": 0.06535949999999957
                },
                {
                    "name": "E4",
                    "midi": 64,
                    "time": 192.54908699999905,
                    "velocity": 0.29133858267716534,
                    "duration": 0.06535949999999957
                },
                {
                    "name": "G4",
                    "midi": 67,
                    "time": 192.61444649999905,
                    "velocity": 0.2992125984251969,
                    "duration": 0.06535949999999957
                },
                {
                    "name": "D3",
                    "midi": 50,
                    "time": 193.46411999999904,
                    "velocity": 0.5905511811023622,
                    "duration": 0.5228759999999966
                },
                {
                    "name": "D2",
                    "midi": 38,
                    "time": 193.46411999999904,
                    "velocity": 0.49606299212598426,
                    "duration": 0.5228759999999966
                },
                {
                    "name": "F#4",
                    "midi": 66,
                    "time": 194.24843399999904,
                    "velocity": 0.33070866141732286,
                    "duration": 0.06535949999999957
                },
                {
                    "name": "D4",
                    "midi": 62,
                    "time": 194.24843399999904,
                    "velocity": 0.28346456692913385,
                    "duration": 0.06535949999999957
                },
                {
                    "name": "G4",
                    "midi": 67,
                    "time": 194.50987199999904,
                    "velocity": 0.3779527559055118,
                    "duration": 0.2614379999999983
                },
                {
                    "name": "D4",
                    "midi": 62,
                    "time": 194.50987199999904,
                    "velocity": 0.31496062992125984,
                    "duration": 0.2614379999999983
                },
                {
                    "name": "F#4",
                    "midi": 66,
                    "time": 194.77130999999903,
                    "velocity": 0.31496062992125984,
                    "duration": 0.2614379999999983
                },
                {
                    "name": "D4",
                    "midi": 62,
                    "time": 194.77130999999903,
                    "velocity": 0.2677165354330709,
                    "duration": 0.2614379999999983
                },
                {
                    "name": "D3",
                    "midi": 50,
                    "time": 195.55562399999903,
                    "velocity": 0.5905511811023622,
                    "duration": 0.5228759999999966
                },
                {
                    "name": "D2",
                    "midi": 38,
                    "time": 195.55562399999903,
                    "velocity": 0.49606299212598426,
                    "duration": 0.5228759999999966
                },
                {
                    "name": "D4",
                    "midi": 62,
                    "time": 196.33993799999902,
                    "velocity": 0.33070866141732286,
                    "duration": 0.06535949999999957
                },
                {
                    "name": "A3",
                    "midi": 57,
                    "time": 196.60137599999902,
                    "velocity": 0.3779527559055118,
                    "duration": 0.2614379999999983
                },
                {
                    "name": "D4",
                    "midi": 62,
                    "time": 196.86281399999902,
                    "velocity": 0.31496062992125984,
                    "duration": 0.2614379999999983
                },
                {
                    "name": "D4",
                    "midi": 62,
                    "time": 197.908565999999,
                    "velocity": 0.31496062992125984,
                    "duration": 0.06535949999999957
                },
                {
                    "name": "F#3",
                    "midi": 54,
                    "time": 197.908565999999,
                    "velocity": 0.31496062992125984,
                    "duration": 0.06535949999999957
                },
                {
                    "name": "D4",
                    "midi": 62,
                    "time": 198.170003999999,
                    "velocity": 0.3543307086614173,
                    "duration": 0.06535949999999957
                },
                {
                    "name": "F#3",
                    "midi": 54,
                    "time": 198.170003999999,
                    "velocity": 0.3543307086614173,
                    "duration": 0.06535949999999957
                },
                {
                    "name": "D4",
                    "midi": 62,
                    "time": 198.954317999999,
                    "velocity": 0.31496062992125984,
                    "duration": 0.06535949999999957
                },
                {
                    "name": "G3",
                    "midi": 55,
                    "time": 198.954317999999,
                    "velocity": 0.31496062992125984,
                    "duration": 0.06535949999999957
                },
                {
                    "name": "D4",
                    "midi": 62,
                    "time": 199.215755999999,
                    "velocity": 0.3543307086614173,
                    "duration": 0.06535949999999957
                },
                {
                    "name": "G3",
                    "midi": 55,
                    "time": 199.215755999999,
                    "velocity": 0.3543307086614173,
                    "duration": 0.06535949999999957
                },
                {
                    "name": "A3",
                    "midi": 57,
                    "time": 199.738631999999,
                    "velocity": 0.36220472440944884,
                    "duration": 0.5228759999999966
                },
                {
                    "name": "A2",
                    "midi": 45,
                    "time": 200.261507999999,
                    "velocity": 0.31496062992125984,
                    "duration": 0.5228759999999966
                },
                {
                    "name": "D3",
                    "midi": 50,
                    "time": 200.784383999999,
                    "velocity": 0.28346456692913385,
                    "duration": 0.5228759999999966
                },
                {
                    "name": "D2",
                    "midi": 38,
                    "time": 201.307259999999,
                    "velocity": 0.25196850393700787,
                    "duration": 0.2614379999999983
                },
                {
                    "name": "D4",
                    "midi": 62,
                    "time": 202.09157399999899,
                    "velocity": 0.31496062992125984,
                    "duration": 0.06535949999999957
                },
                {
                    "name": "F#3",
                    "midi": 54,
                    "time": 202.09157399999899,
                    "velocity": 0.31496062992125984,
                    "duration": 0.06535949999999957
                },
                {
                    "name": "D4",
                    "midi": 62,
                    "time": 202.35301199999898,
                    "velocity": 0.3543307086614173,
                    "duration": 0.06535949999999957
                },
                {
                    "name": "F#3",
                    "midi": 54,
                    "time": 202.35301199999898,
                    "velocity": 0.3543307086614173,
                    "duration": 0.06535949999999957
                },
                {
                    "name": "D4",
                    "midi": 62,
                    "time": 203.13732599999898,
                    "velocity": 0.31496062992125984,
                    "duration": 0.06535949999999957
                },
                {
                    "name": "G3",
                    "midi": 55,
                    "time": 203.13732599999898,
                    "velocity": 0.31496062992125984,
                    "duration": 0.06535949999999957
                },
                {
                    "name": "D4",
                    "midi": 62,
                    "time": 203.39876399999898,
                    "velocity": 0.3543307086614173,
                    "duration": 0.06535949999999957
                },
                {
                    "name": "G3",
                    "midi": 55,
                    "time": 203.39876399999898,
                    "velocity": 0.3543307086614173,
                    "duration": 0.06535949999999957
                },
                {
                    "name": "A3",
                    "midi": 57,
                    "time": 203.92163999999897,
                    "velocity": 0.3779527559055118,
                    "duration": 0.2614379999999983
                },
                {
                    "name": "A2",
                    "midi": 45,
                    "time": 204.44451599999897,
                    "velocity": 0.30708661417322836,
                    "duration": 0.2614379999999983
                },
                {
                    "name": "D2",
                    "midi": 38,
                    "time": 204.96739199999897,
                    "velocity": 0.3779527559055118,
                    "duration": 0.5228759999999966
                },
                {
                    "name": "G#3",
                    "midi": 56,
                    "time": 207.32033399999895,
                    "velocity": 0.33858267716535434,
                    "duration": 0.2614379999999983
                },
                {
                    "name": "A3",
                    "midi": 57,
                    "time": 207.58177199999895,
                    "velocity": 0.3779527559055118,
                    "duration": 0.1960784999999987
                },
                {
                    "name": "A#3",
                    "midi": 58,
                    "time": 209.41183799999894,
                    "velocity": 0.33858267716535434,
                    "duration": 0.2614379999999983
                },
                {
                    "name": "B3",
                    "midi": 59,
                    "time": 209.67327599999894,
                    "velocity": 0.3779527559055118,
                    "duration": 0.1960784999999987
                },
                {
                    "name": "G3",
                    "midi": 55,
                    "time": 211.24190399999893,
                    "velocity": 0.4094488188976378,
                    "duration": 0.13071899999999914
                },
                {
                    "name": "D4",
                    "midi": 62,
                    "time": 211.37262299999892,
                    "velocity": 0.3543307086614173,
                    "duration": 0.13071899999999914
                },
                {
                    "name": "G3",
                    "midi": 55,
                    "time": 211.50334199999892,
                    "velocity": 0.4251968503937008,
                    "duration": 0.13071899999999914
                },
                {
                    "name": "D4",
                    "midi": 62,
                    "time": 211.63406099999892,
                    "velocity": 0.30708661417322836,
                    "duration": 0.13071899999999914
                },
                {
                    "name": "F#3",
                    "midi": 54,
                    "time": 211.76477999999892,
                    "velocity": 0.3858267716535433,
                    "duration": 0.13071899999999914
                },
                {
                    "name": "D4",
                    "midi": 62,
                    "time": 211.89549899999892,
                    "velocity": 0.2992125984251969,
                    "duration": 0.13071899999999914
                },
                {
                    "name": "F#3",
                    "midi": 54,
                    "time": 212.02621799999892,
                    "velocity": 0.3858267716535433,
                    "duration": 0.13071899999999914
                },
                {
                    "name": "D4",
                    "midi": 62,
                    "time": 212.15693699999892,
                    "velocity": 0.33858267716535434,
                    "duration": 0.13071899999999914
                },
                {
                    "name": "B3",
                    "midi": 59,
                    "time": 212.28765599999892,
                    "velocity": 0.4094488188976378,
                    "duration": 0.13071899999999914
                },
                {
                    "name": "D4",
                    "midi": 62,
                    "time": 212.41837499999892,
                    "velocity": 0.3543307086614173,
                    "duration": 0.13071899999999914
                },
                {
                    "name": "B3",
                    "midi": 59,
                    "time": 212.54909399999892,
                    "velocity": 0.4251968503937008,
                    "duration": 0.13071899999999914
                },
                {
                    "name": "D4",
                    "midi": 62,
                    "time": 212.67981299999892,
                    "velocity": 0.30708661417322836,
                    "duration": 0.13071899999999914
                },
                {
                    "name": "A3",
                    "midi": 57,
                    "time": 212.81053199999891,
                    "velocity": 0.3858267716535433,
                    "duration": 0.13071899999999914
                },
                {
                    "name": "D4",
                    "midi": 62,
                    "time": 212.9412509999989,
                    "velocity": 0.2992125984251969,
                    "duration": 0.13071899999999914
                },
                {
                    "name": "A3",
                    "midi": 57,
                    "time": 213.0719699999989,
                    "velocity": 0.3858267716535433,
                    "duration": 0.13071899999999914
                },
                {
                    "name": "D4",
                    "midi": 62,
                    "time": 213.2026889999989,
                    "velocity": 0.33858267716535434,
                    "duration": 0.13071899999999914
                },
                {
                    "name": "G3",
                    "midi": 55,
                    "time": 213.3334079999989,
                    "velocity": 0.4094488188976378,
                    "duration": 0.13071899999999914
                },
                {
                    "name": "D4",
                    "midi": 62,
                    "time": 213.4641269999989,
                    "velocity": 0.3543307086614173,
                    "duration": 0.13071899999999914
                },
                {
                    "name": "G3",
                    "midi": 55,
                    "time": 213.5948459999989,
                    "velocity": 0.4251968503937008,
                    "duration": 0.13071899999999914
                },
                {
                    "name": "D4",
                    "midi": 62,
                    "time": 213.7255649999989,
                    "velocity": 0.30708661417322836,
                    "duration": 0.13071899999999914
                },
                {
                    "name": "F#3",
                    "midi": 54,
                    "time": 213.8562839999989,
                    "velocity": 0.3858267716535433,
                    "duration": 0.13071899999999914
                },
                {
                    "name": "D4",
                    "midi": 62,
                    "time": 213.9870029999989,
                    "velocity": 0.2992125984251969,
                    "duration": 0.13071899999999914
                },
                {
                    "name": "F#3",
                    "midi": 54,
                    "time": 214.1177219999989,
                    "velocity": 0.3858267716535433,
                    "duration": 0.13071899999999914
                },
                {
                    "name": "D4",
                    "midi": 62,
                    "time": 214.2484409999989,
                    "velocity": 0.33858267716535434,
                    "duration": 0.13071899999999914
                },
                {
                    "name": "B3",
                    "midi": 59,
                    "time": 214.3791599999989,
                    "velocity": 0.4094488188976378,
                    "duration": 0.13071899999999914
                },
                {
                    "name": "D4",
                    "midi": 62,
                    "time": 214.5098789999989,
                    "velocity": 0.3543307086614173,
                    "duration": 0.13071899999999914
                },
                {
                    "name": "B3",
                    "midi": 59,
                    "time": 214.6405979999989,
                    "velocity": 0.4251968503937008,
                    "duration": 0.13071899999999914
                },
                {
                    "name": "D4",
                    "midi": 62,
                    "time": 214.7713169999989,
                    "velocity": 0.30708661417322836,
                    "duration": 0.13071899999999914
                },
                {
                    "name": "A3",
                    "midi": 57,
                    "time": 214.9020359999989,
                    "velocity": 0.3858267716535433,
                    "duration": 0.13071899999999914
                },
                {
                    "name": "D4",
                    "midi": 62,
                    "time": 215.0327549999989,
                    "velocity": 0.2992125984251969,
                    "duration": 0.13071899999999914
                },
                {
                    "name": "A3",
                    "midi": 57,
                    "time": 215.1634739999989,
                    "velocity": 0.3858267716535433,
                    "duration": 0.13071899999999914
                },
                {
                    "name": "D4",
                    "midi": 62,
                    "time": 215.2941929999989,
                    "velocity": 0.33858267716535434,
                    "duration": 0.13071899999999914
                },
                {
                    "name": "G3",
                    "midi": 55,
                    "time": 215.4249119999989,
                    "velocity": 0.4094488188976378,
                    "duration": 0.5228759999999966
                },
                {
                    "name": "G3",
                    "midi": 55,
                    "time": 216.2092259999989,
                    "velocity": 0.31496062992125984,
                    "duration": 0.2614379999999983
                },
                {
                    "name": "G2",
                    "midi": 43,
                    "time": 216.2092259999989,
                    "velocity": 0.2677165354330709,
                    "duration": 0.2614379999999983
                },
                {
                    "name": "F#3",
                    "midi": 54,
                    "time": 216.4706639999989,
                    "velocity": 0.3779527559055118,
                    "duration": 1.0457519999999931
                },
                {
                    "name": "A2",
                    "midi": 45,
                    "time": 216.4706639999989,
                    "velocity": 0.31496062992125984,
                    "duration": 1.3071899999999914
                },
                {
                    "name": "E3",
                    "midi": 52,
                    "time": 217.51641599999888,
                    "velocity": 0.3543307086614173,
                    "duration": 0.2614379999999983
                },
                {
                    "name": "A2",
                    "midi": 45,
                    "time": 218.56216799999888,
                    "velocity": 0.4409448818897638,
                    "duration": 0.2614379999999983
                },
                {
                    "name": "C#3",
                    "midi": 49,
                    "time": 218.56216799999888,
                    "velocity": 0.4409448818897638,
                    "duration": 0.2614379999999983
                },
                {
                    "name": "G3",
                    "midi": 55,
                    "time": 218.56216799999888,
                    "velocity": 0.5275590551181102,
                    "duration": 0.2614379999999983
                },
                {
                    "name": "E3",
                    "midi": 52,
                    "time": 218.56216799999888,
                    "velocity": 0.4409448818897638,
                    "duration": 0.2614379999999983
                },
                {
                    "name": "A2",
                    "midi": 45,
                    "time": 219.08504399999887,
                    "velocity": 0.4409448818897638,
                    "duration": 0.2614379999999983
                },
                {
                    "name": "C#3",
                    "midi": 49,
                    "time": 219.08504399999887,
                    "velocity": 0.4409448818897638,
                    "duration": 0.2614379999999983
                },
                {
                    "name": "G3",
                    "midi": 55,
                    "time": 219.08504399999887,
                    "velocity": 0.5275590551181102,
                    "duration": 0.2614379999999983
                },
                {
                    "name": "E3",
                    "midi": 52,
                    "time": 219.08504399999887,
                    "velocity": 0.4409448818897638,
                    "duration": 0.2614379999999983
                },
                {
                    "name": "A2",
                    "midi": 45,
                    "time": 219.60791999999887,
                    "velocity": 0.4409448818897638,
                    "duration": 0.2614379999999983
                },
                {
                    "name": "C#3",
                    "midi": 49,
                    "time": 219.60791999999887,
                    "velocity": 0.4409448818897638,
                    "duration": 0.2614379999999983
                },
                {
                    "name": "G3",
                    "midi": 55,
                    "time": 219.60791999999887,
                    "velocity": 0.5275590551181102,
                    "duration": 0.2614379999999983
                },
                {
                    "name": "E3",
                    "midi": 52,
                    "time": 219.60791999999887,
                    "velocity": 0.4409448818897638,
                    "duration": 0.2614379999999983
                },
                {
                    "name": "A2",
                    "midi": 45,
                    "time": 220.65367199999886,
                    "velocity": 0.36220472440944884,
                    "duration": 0.13071899999999914
                },
                {
                    "name": "E3",
                    "midi": 52,
                    "time": 220.78439099999886,
                    "velocity": 0.2992125984251969,
                    "duration": 0.13071899999999914
                },
                {
                    "name": "D3",
                    "midi": 50,
                    "time": 220.91510999999886,
                    "velocity": 0.36220472440944884,
                    "duration": 0.13071899999999914
                },
                {
                    "name": "E3",
                    "midi": 52,
                    "time": 221.04582899999886,
                    "velocity": 0.30708661417322836,
                    "duration": 0.13071899999999914
                },
                {
                    "name": "C#3",
                    "midi": 49,
                    "time": 221.17654799999886,
                    "velocity": 0.3700787401574803,
                    "duration": 0.13071899999999914
                },
                {
                    "name": "E3",
                    "midi": 52,
                    "time": 221.30726699999886,
                    "velocity": 0.2992125984251969,
                    "duration": 0.13071899999999914
                },
                {
                    "name": "A2",
                    "midi": 45,
                    "time": 221.43798599999886,
                    "velocity": 0.3858267716535433,
                    "duration": 0.13071899999999914
                },
                {
                    "name": "C#3",
                    "midi": 49,
                    "time": 221.56870499999886,
                    "velocity": 0.3228346456692913,
                    "duration": 0.13071899999999914
                },
                {
                    "name": "D3",
                    "midi": 50,
                    "time": 221.69942399999886,
                    "velocity": 0.36220472440944884,
                    "duration": 0.5228759999999966
                },
                {
                    "name": "D3",
                    "midi": 50,
                    "time": 222.74517599999885,
                    "velocity": 0.36220472440944884,
                    "duration": 0.13071899999999914
                },
                {
                    "name": "A3",
                    "midi": 57,
                    "time": 222.87589499999885,
                    "velocity": 0.2992125984251969,
                    "duration": 0.13071899999999914
                },
                {
                    "name": "G3",
                    "midi": 55,
                    "time": 223.00661399999885,
                    "velocity": 0.36220472440944884,
                    "duration": 0.13071899999999914
                },
                {
                    "name": "A3",
                    "midi": 57,
                    "time": 223.13733299999885,
                    "velocity": 0.30708661417322836,
                    "duration": 0.13071899999999914
                },
                {
                    "name": "F#3",
                    "midi": 54,
                    "time": 223.26805199999885,
                    "velocity": 0.3700787401574803,
                    "duration": 0.13071899999999914
                },
                {
                    "name": "A3",
                    "midi": 57,
                    "time": 223.39877099999885,
                    "velocity": 0.2992125984251969,
                    "duration": 0.13071899999999914
                },
                {
                    "name": "D3",
                    "midi": 50,
                    "time": 223.52948999999884,
                    "velocity": 0.3858267716535433,
                    "duration": 0.13071899999999914
                },
                {
                    "name": "F#3",
                    "midi": 54,
                    "time": 223.66020899999884,
                    "velocity": 0.3228346456692913,
                    "duration": 0.13071899999999914
                },
                {
                    "name": "G3",
                    "midi": 55,
                    "time": 223.79092799999884,
                    "velocity": 0.36220472440944884,
                    "duration": 0.5228759999999966
                },
                {
                    "name": "E3",
                    "midi": 52,
                    "time": 224.83667999999884,
                    "velocity": 0.36220472440944884,
                    "duration": 0.13071899999999914
                },
                {
                    "name": "B3",
                    "midi": 59,
                    "time": 224.96739899999884,
                    "velocity": 0.2992125984251969,
                    "duration": 0.13071899999999914
                },
                {
                    "name": "A3",
                    "midi": 57,
                    "time": 225.09811799999883,
                    "velocity": 0.36220472440944884,
                    "duration": 0.13071899999999914
                },
                {
                    "name": "B3",
                    "midi": 59,
                    "time": 225.22883699999883,
                    "velocity": 0.30708661417322836,
                    "duration": 0.13071899999999914
                },
                {
                    "name": "G#3",
                    "midi": 56,
                    "time": 225.35955599999883,
                    "velocity": 0.3700787401574803,
                    "duration": 0.13071899999999914
                },
                {
                    "name": "B3",
                    "midi": 59,
                    "time": 225.49027499999883,
                    "velocity": 0.2992125984251969,
                    "duration": 0.13071899999999914
                },
                {
                    "name": "E3",
                    "midi": 52,
                    "time": 225.62099399999883,
                    "velocity": 0.3858267716535433,
                    "duration": 0.13071899999999914
                },
                {
                    "name": "G#3",
                    "midi": 56,
                    "time": 225.75171299999883,
                    "velocity": 0.3228346456692913,
                    "duration": 0.13071899999999914
                },
                {
                    "name": "A3",
                    "midi": 57,
                    "time": 225.88243199999883,
                    "velocity": 0.36220472440944884,
                    "duration": 0.5228759999999966
                },
                {
                    "name": "B3",
                    "midi": 59,
                    "time": 226.92818399999882,
                    "velocity": 0.4094488188976378,
                    "duration": 0.13071899999999914
                },
                {
                    "name": "F4",
                    "midi": 65,
                    "time": 227.05890299999882,
                    "velocity": 0.3543307086614173,
                    "duration": 0.13071899999999914
                },
                {
                    "name": "B3",
                    "midi": 59,
                    "time": 227.18962199999882,
                    "velocity": 0.4251968503937008,
                    "duration": 0.13071899999999914
                },
                {
                    "name": "F4",
                    "midi": 65,
                    "time": 227.32034099999882,
                    "velocity": 0.2755905511811024,
                    "duration": 0.13071899999999914
                },
                {
                    "name": "B3",
                    "midi": 59,
                    "time": 227.45105999999882,
                    "velocity": 0.3543307086614173,
                    "duration": 0.13071899999999914
                },
                {
                    "name": "F4",
                    "midi": 65,
                    "time": 227.58177899999882,
                    "velocity": 0.2992125984251969,
                    "duration": 0.13071899999999914
                },
                {
                    "name": "B3",
                    "midi": 59,
                    "time": 227.71249799999882,
                    "velocity": 0.36220472440944884,
                    "duration": 0.13071899999999914
                },
                {
                    "name": "F4",
                    "midi": 65,
                    "time": 227.84321699999882,
                    "velocity": 0.31496062992125984,
                    "duration": 0.13071899999999914
                },
                {
                    "name": "C#4",
                    "midi": 61,
                    "time": 227.97393599999882,
                    "velocity": 0.4094488188976378,
                    "duration": 0.13071899999999914
                },
                {
                    "name": "E4",
                    "midi": 64,
                    "time": 228.10465499999881,
                    "velocity": 0.3543307086614173,
                    "duration": 0.13071899999999914
                },
                {
                    "name": "C#4",
                    "midi": 61,
                    "time": 228.2353739999988,
                    "velocity": 0.4251968503937008,
                    "duration": 0.13071899999999914
                },
                {
                    "name": "E4",
                    "midi": 64,
                    "time": 228.3660929999988,
                    "velocity": 0.30708661417322836,
                    "duration": 0.13071899999999914
                },
                {
                    "name": "C#4",
                    "midi": 61,
                    "time": 228.4968119999988,
                    "velocity": 0.3858267716535433,
                    "duration": 0.13071899999999914
                },
                {
                    "name": "E4",
                    "midi": 64,
                    "time": 228.6275309999988,
                    "velocity": 0.2992125984251969,
                    "duration": 0.13071899999999914
                },
                {
                    "name": "C#4",
                    "midi": 61,
                    "time": 228.7582499999988,
                    "velocity": 0.3858267716535433,
                    "duration": 0.13071899999999914
                },
                {
                    "name": "E4",
                    "midi": 64,
                    "time": 228.8889689999988,
                    "velocity": 0.33858267716535434,
                    "duration": 0.13071899999999914
                },
                {
                    "name": "B3",
                    "midi": 59,
                    "time": 229.0196879999988,
                    "velocity": 0.4094488188976378,
                    "duration": 0.13071899999999914
                },
                {
                    "name": "F4",
                    "midi": 65,
                    "time": 229.1504069999988,
                    "velocity": 0.3543307086614173,
                    "duration": 0.13071899999999914
                },
                {
                    "name": "B3",
                    "midi": 59,
                    "time": 229.2811259999988,
                    "velocity": 0.4251968503937008,
                    "duration": 0.13071899999999914
                },
                {
                    "name": "F4",
                    "midi": 65,
                    "time": 229.4118449999988,
                    "velocity": 0.29133858267716534,
                    "duration": 0.13071899999999914
                },
                {
                    "name": "B3",
                    "midi": 59,
                    "time": 229.5425639999988,
                    "velocity": 0.3700787401574803,
                    "duration": 0.13071899999999914
                },
                {
                    "name": "F4",
                    "midi": 65,
                    "time": 229.6732829999988,
                    "velocity": 0.29133858267716534,
                    "duration": 0.13071899999999914
                },
                {
                    "name": "B3",
                    "midi": 59,
                    "time": 229.8040019999988,
                    "velocity": 0.36220472440944884,
                    "duration": 0.13071899999999914
                },
                {
                    "name": "F4",
                    "midi": 65,
                    "time": 229.9347209999988,
                    "velocity": 0.30708661417322836,
                    "duration": 0.13071899999999914
                },
                {
                    "name": "C#4",
                    "midi": 61,
                    "time": 230.0654399999988,
                    "velocity": 0.4094488188976378,
                    "duration": 0.13071899999999914
                },
                {
                    "name": "E4",
                    "midi": 64,
                    "time": 230.1961589999988,
                    "velocity": 0.3543307086614173,
                    "duration": 0.13071899999999914
                },
                {
                    "name": "C#4",
                    "midi": 61,
                    "time": 230.3268779999988,
                    "velocity": 0.4251968503937008,
                    "duration": 0.13071899999999914
                },
                {
                    "name": "E4",
                    "midi": 64,
                    "time": 230.4575969999988,
                    "velocity": 0.30708661417322836,
                    "duration": 0.13071899999999914
                },
                {
                    "name": "C#4",
                    "midi": 61,
                    "time": 230.5883159999988,
                    "velocity": 0.3858267716535433,
                    "duration": 0.13071899999999914
                },
                {
                    "name": "E4",
                    "midi": 64,
                    "time": 230.7190349999988,
                    "velocity": 0.2992125984251969,
                    "duration": 0.13071899999999914
                },
                {
                    "name": "C#4",
                    "midi": 61,
                    "time": 230.8497539999988,
                    "velocity": 0.3858267716535433,
                    "duration": 0.13071899999999914
                },
                {
                    "name": "E4",
                    "midi": 64,
                    "time": 230.9804729999988,
                    "velocity": 0.33858267716535434,
                    "duration": 0.13071899999999914
                },
                {
                    "name": "D4",
                    "midi": 62,
                    "time": 231.1111919999988,
                    "velocity": 0.4094488188976378,
                    "duration": 0.13071899999999914
                },
                {
                    "name": "F#4",
                    "midi": 66,
                    "time": 231.2419109999988,
                    "velocity": 0.3543307086614173,
                    "duration": 0.13071899999999914
                },
                {
                    "name": "D4",
                    "midi": 62,
                    "time": 231.3726299999988,
                    "velocity": 0.4251968503937008,
                    "duration": 0.13071899999999914
                },
                {
                    "name": "F#4",
                    "midi": 66,
                    "time": 231.5033489999988,
                    "velocity": 0.30708661417322836,
                    "duration": 0.13071899999999914
                },
                {
                    "name": "D4",
                    "midi": 62,
                    "time": 231.6340679999988,
                    "velocity": 0.3858267716535433,
                    "duration": 0.13071899999999914
                },
                {
                    "name": "F#4",
                    "midi": 66,
                    "time": 231.7647869999988,
                    "velocity": 0.2992125984251969,
                    "duration": 0.13071899999999914
                },
                {
                    "name": "D4",
                    "midi": 62,
                    "time": 231.8955059999988,
                    "velocity": 0.3858267716535433,
                    "duration": 0.13071899999999914
                },
                {
                    "name": "F#4",
                    "midi": 66,
                    "time": 232.0262249999988,
                    "velocity": 0.33858267716535434,
                    "duration": 0.13071899999999914
                },
                {
                    "name": "E4",
                    "midi": 64,
                    "time": 232.1569439999988,
                    "velocity": 0.4094488188976378,
                    "duration": 0.13071899999999914
                },
                {
                    "name": "G4",
                    "midi": 67,
                    "time": 232.2876629999988,
                    "velocity": 0.3543307086614173,
                    "duration": 0.13071899999999914
                },
                {
                    "name": "E4",
                    "midi": 64,
                    "time": 232.4183819999988,
                    "velocity": 0.4251968503937008,
                    "duration": 0.13071899999999914
                },
                {
                    "name": "G4",
                    "midi": 67,
                    "time": 232.54910099999879,
                    "velocity": 0.30708661417322836,
                    "duration": 0.13071899999999914
                },
                {
                    "name": "E4",
                    "midi": 64,
                    "time": 232.67981999999878,
                    "velocity": 0.3858267716535433,
                    "duration": 0.13071899999999914
                },
                {
                    "name": "G4",
                    "midi": 67,
                    "time": 232.81053899999878,
                    "velocity": 0.2992125984251969,
                    "duration": 0.13071899999999914
                },
                {
                    "name": "E4",
                    "midi": 64,
                    "time": 232.94125799999878,
                    "velocity": 0.3858267716535433,
                    "duration": 0.13071899999999914
                },
                {
                    "name": "G4",
                    "midi": 67,
                    "time": 233.07197699999878,
                    "velocity": 0.33858267716535434,
                    "duration": 0.13071899999999914
                },
                {
                    "name": "F#4",
                    "midi": 66,
                    "time": 233.20269599999878,
                    "velocity": 0.4094488188976378,
                    "duration": 0.13071899999999914
                },
                {
                    "name": "A4",
                    "midi": 69,
                    "time": 233.33341499999878,
                    "velocity": 0.3543307086614173,
                    "duration": 0.13071899999999914
                },
                {
                    "name": "F#4",
                    "midi": 66,
                    "time": 233.46413399999878,
                    "velocity": 0.4251968503937008,
                    "duration": 0.13071899999999914
                },
                {
                    "name": "A4",
                    "midi": 69,
                    "time": 233.59485299999878,
                    "velocity": 0.30708661417322836,
                    "duration": 0.13071899999999914
                },
                {
                    "name": "F#4",
                    "midi": 66,
                    "time": 233.72557199999878,
                    "velocity": 0.3858267716535433,
                    "duration": 0.13071899999999914
                },
                {
                    "name": "A4",
                    "midi": 69,
                    "time": 233.85629099999878,
                    "velocity": 0.2992125984251969,
                    "duration": 0.13071899999999914
                },
                {
                    "name": "F#4",
                    "midi": 66,
                    "time": 233.98700999999878,
                    "velocity": 0.3858267716535433,
                    "duration": 0.13071899999999914
                },
                {
                    "name": "A4",
                    "midi": 69,
                    "time": 234.11772899999877,
                    "velocity": 0.33858267716535434,
                    "duration": 0.13071899999999914
                },
                {
                    "name": "C#4",
                    "midi": 61,
                    "time": 234.24844799999877,
                    "velocity": 0.4094488188976378,
                    "duration": 0.13071899999999914
                },
                {
                    "name": "A4",
                    "midi": 69,
                    "time": 234.37916699999877,
                    "velocity": 0.3543307086614173,
                    "duration": 0.13071899999999914
                },
                {
                    "name": "C#4",
                    "midi": 61,
                    "time": 234.50988599999877,
                    "velocity": 0.4251968503937008,
                    "duration": 0.13071899999999914
                },
                {
                    "name": "A4",
                    "midi": 69,
                    "time": 234.64060499999877,
                    "velocity": 0.30708661417322836,
                    "duration": 0.13071899999999914
                },
                {
                    "name": "C#4",
                    "midi": 61,
                    "time": 234.77132399999877,
                    "velocity": 0.3858267716535433,
                    "duration": 0.13071899999999914
                },
                {
                    "name": "A4",
                    "midi": 69,
                    "time": 234.90204299999877,
                    "velocity": 0.2992125984251969,
                    "duration": 0.13071899999999914
                },
                {
                    "name": "C#4",
                    "midi": 61,
                    "time": 235.03276199999877,
                    "velocity": 0.3858267716535433,
                    "duration": 0.13071899999999914
                },
                {
                    "name": "A4",
                    "midi": 69,
                    "time": 235.16348099999877,
                    "velocity": 0.33858267716535434,
                    "duration": 0.13071899999999914
                },
                {
                    "name": "D4",
                    "midi": 62,
                    "time": 235.29419999999877,
                    "velocity": 0.4094488188976378,
                    "duration": 0.5228759999999966
                },
                {
                    "name": "C#4",
                    "midi": 61,
                    "time": 236.33995199999876,
                    "velocity": 0.29133858267716534,
                    "duration": 0.5228759999999966
                },
                {
                    "name": "E4",
                    "midi": 64,
                    "time": 236.33995199999876,
                    "velocity": 0.3464566929133858,
                    "duration": 0.5228759999999966
                },
                {
                    "name": "D3",
                    "midi": 50,
                    "time": 237.38570399999875,
                    "velocity": 0.4094488188976378,
                    "duration": 0.5228759999999966
                },
                {
                    "name": "A3",
                    "midi": 57,
                    "time": 238.43145599999875,
                    "velocity": 0.4251968503937008,
                    "duration": 0.13071899999999914
                },
                {
                    "name": "G#3",
                    "midi": 56,
                    "time": 238.56217499999875,
                    "velocity": 0.3937007874015748,
                    "duration": 0.13071899999999914
                },
                {
                    "name": "A3",
                    "midi": 57,
                    "time": 238.69289399999874,
                    "velocity": 0.3937007874015748,
                    "duration": 0.13071899999999914
                },
                {
                    "name": "B3",
                    "midi": 59,
                    "time": 238.82361299999874,
                    "velocity": 0.3937007874015748,
                    "duration": 0.13071899999999914
                },
                {
                    "name": "A3",
                    "midi": 57,
                    "time": 238.95433199999874,
                    "velocity": 0.4330708661417323,
                    "duration": 0.13071899999999914
                },
                {
                    "name": "G3",
                    "midi": 55,
                    "time": 239.08505099999874,
                    "velocity": 0.3858267716535433,
                    "duration": 0.13071899999999914
                },
                {
                    "name": "F#3",
                    "midi": 54,
                    "time": 239.21576999999874,
                    "velocity": 0.3858267716535433,
                    "duration": 0.13071899999999914
                },
                {
                    "name": "E3",
                    "midi": 52,
                    "time": 239.34648899999874,
                    "velocity": 0.3858267716535433,
                    "duration": 0.13071899999999914
                },
                {
                    "name": "D3",
                    "midi": 50,
                    "time": 239.47720799999874,
                    "velocity": 0.44881889763779526,
                    "duration": 0.5228759999999966
                },
                {
                    "name": "G4",
                    "midi": 67,
                    "time": 240.52295999999873,
                    "velocity": 0.44881889763779526,
                    "duration": 0.5228759999999966
                },
                {
                    "name": "G3",
                    "midi": 55,
                    "time": 241.56871199999873,
                    "velocity": 0.44881889763779526,
                    "duration": 0.5228759999999966
                },
                {
                    "name": "D4",
                    "midi": 62,
                    "time": 243.9216539999987,
                    "velocity": 0.30708661417322836,
                    "duration": 0.5228759999999966
                },
                {
                    "name": "F#3",
                    "midi": 54,
                    "time": 243.9216539999987,
                    "velocity": 0.25196850393700787,
                    "duration": 0.2614379999999983
                },
                {
                    "name": "G3",
                    "midi": 55,
                    "time": 244.1830919999987,
                    "velocity": 0.30708661417322836,
                    "duration": 0.2614379999999983
                },
                {
                    "name": "A3",
                    "midi": 57,
                    "time": 244.4445299999987,
                    "velocity": 0.25196850393700787,
                    "duration": 0.2614379999999983
                },
                {
                    "name": "C#4",
                    "midi": 61,
                    "time": 244.4445299999987,
                    "velocity": 0.30708661417322836,
                    "duration": 0.2614379999999983
                },
                {
                    "name": "D4",
                    "midi": 62,
                    "time": 244.7059679999987,
                    "velocity": 0.44881889763779526,
                    "duration": 0.2614379999999983
                },
                {
                    "name": "F#4",
                    "midi": 66,
                    "time": 245.2288439999987,
                    "velocity": 0.30708661417322836,
                    "duration": 0.2614379999999983
                },
                {
                    "name": "G4",
                    "midi": 67,
                    "time": 245.7517199999987,
                    "velocity": 0.4251968503937008,
                    "duration": 0.13071899999999914
                },
                {
                    "name": "A4",
                    "midi": 69,
                    "time": 245.8824389999987,
                    "velocity": 0.4251968503937008,
                    "duration": 0.13071899999999914
                },
                {
                    "name": "B4",
                    "midi": 71,
                    "time": 246.0131579999987,
                    "velocity": 0.44881889763779526,
                    "duration": 0.13071899999999914
                },
                {
                    "name": "A4",
                    "midi": 69,
                    "time": 246.1438769999987,
                    "velocity": 0.4251968503937008,
                    "duration": 0.13071899999999914
                },
                {
                    "name": "G4",
                    "midi": 67,
                    "time": 246.2745959999987,
                    "velocity": 0.4094488188976378,
                    "duration": 0.13071899999999914
                },
                {
                    "name": "F#4",
                    "midi": 66,
                    "time": 246.4053149999987,
                    "velocity": 0.4015748031496063,
                    "duration": 0.13071899999999914
                },
                {
                    "name": "E4",
                    "midi": 64,
                    "time": 246.5360339999987,
                    "velocity": 0.3858267716535433,
                    "duration": 0.13071899999999914
                },
                {
                    "name": "D4",
                    "midi": 62,
                    "time": 246.6667529999987,
                    "velocity": 0.3858267716535433,
                    "duration": 0.13071899999999914
                },
                {
                    "name": "C#4",
                    "midi": 61,
                    "time": 246.7974719999987,
                    "velocity": 0.44881889763779526,
                    "duration": 0.2614379999999983
                },
                {
                    "name": "E4",
                    "midi": 64,
                    "time": 247.3203479999987,
                    "velocity": 0.30708661417322836,
                    "duration": 0.2614379999999983
                },
                {
                    "name": "F#4",
                    "midi": 66,
                    "time": 247.84322399999868,
                    "velocity": 0.4251968503937008,
                    "duration": 0.13071899999999914
                },
                {
                    "name": "G4",
                    "midi": 67,
                    "time": 247.97394299999868,
                    "velocity": 0.4251968503937008,
                    "duration": 0.13071899999999914
                },
                {
                    "name": "A4",
                    "midi": 69,
                    "time": 248.10466199999868,
                    "velocity": 0.44881889763779526,
                    "duration": 0.13071899999999914
                },
                {
                    "name": "G4",
                    "midi": 67,
                    "time": 248.23538099999868,
                    "velocity": 0.4251968503937008,
                    "duration": 0.13071899999999914
                },
                {
                    "name": "F#4",
                    "midi": 66,
                    "time": 248.36609999999868,
                    "velocity": 0.4094488188976378,
                    "duration": 0.13071899999999914
                },
                {
                    "name": "E4",
                    "midi": 64,
                    "time": 248.49681899999868,
                    "velocity": 0.4015748031496063,
                    "duration": 0.13071899999999914
                },
                {
                    "name": "D4",
                    "midi": 62,
                    "time": 248.62753799999868,
                    "velocity": 0.3858267716535433,
                    "duration": 0.13071899999999914
                },
                {
                    "name": "C#4",
                    "midi": 61,
                    "time": 248.75825699999868,
                    "velocity": 0.3858267716535433,
                    "duration": 0.13071899999999914
                },
                {
                    "name": "B3",
                    "midi": 59,
                    "time": 248.88897599999868,
                    "velocity": 0.44881889763779526,
                    "duration": 0.2614379999999983
                },
                {
                    "name": "D4",
                    "midi": 62,
                    "time": 249.41185199999867,
                    "velocity": 0.30708661417322836,
                    "duration": 0.2614379999999983
                },
                {
                    "name": "E4",
                    "midi": 64,
                    "time": 249.93472799999867,
                    "velocity": 0.4251968503937008,
                    "duration": 0.13071899999999914
                },
                {
                    "name": "F#4",
                    "midi": 66,
                    "time": 250.06544699999867,
                    "velocity": 0.4251968503937008,
                    "duration": 0.13071899999999914
                },
                {
                    "name": "G4",
                    "midi": 67,
                    "time": 250.19616599999867,
                    "velocity": 0.44881889763779526,
                    "duration": 0.13071899999999914
                },
                {
                    "name": "F#4",
                    "midi": 66,
                    "time": 250.32688499999867,
                    "velocity": 0.4251968503937008,
                    "duration": 0.13071899999999914
                },
                {
                    "name": "E4",
                    "midi": 64,
                    "time": 250.45760399999867,
                    "velocity": 0.4094488188976378,
                    "duration": 0.13071899999999914
                },
                {
                    "name": "D4",
                    "midi": 62,
                    "time": 250.58832299999867,
                    "velocity": 0.4015748031496063,
                    "duration": 0.13071899999999914
                },
                {
                    "name": "C#4",
                    "midi": 61,
                    "time": 250.71904199999867,
                    "velocity": 0.3858267716535433,
                    "duration": 0.13071899999999914
                },
                {
                    "name": "B3",
                    "midi": 59,
                    "time": 250.84976099999867,
                    "velocity": 0.3858267716535433,
                    "duration": 0.13071899999999914
                },
                {
                    "name": "A3",
                    "midi": 57,
                    "time": 250.98047999999866,
                    "velocity": 0.44881889763779526,
                    "duration": 0.2614379999999983
                },
                {
                    "name": "C#4",
                    "midi": 61,
                    "time": 251.50335599999866,
                    "velocity": 0.30708661417322836,
                    "duration": 0.2614379999999983
                },
                {
                    "name": "D4",
                    "midi": 62,
                    "time": 252.02623199999866,
                    "velocity": 0.44881889763779526,
                    "duration": 0.5228759999999966
                },
                {
                    "name": "G3",
                    "midi": 55,
                    "time": 253.07198399999865,
                    "velocity": 0.44881889763779526,
                    "duration": 0.5228759999999966
                },
                {
                    "name": "G2",
                    "midi": 43,
                    "time": 254.11773599999864,
                    "velocity": 0.44881889763779526,
                    "duration": 0.5228759999999966
                },
                {
                    "name": "D4",
                    "midi": 62,
                    "time": 260.39224799999863,
                    "velocity": 0.33070866141732286,
                    "duration": 0.13071899999999914
                },
                {
                    "name": "A3",
                    "midi": 57,
                    "time": 260.39224799999863,
                    "velocity": 0.33070866141732286,
                    "duration": 0.13071899999999914
                },
                {
                    "name": "F#4",
                    "midi": 66,
                    "time": 260.39224799999863,
                    "velocity": 0.3937007874015748,
                    "duration": 0.13071899999999914
                },
                {
                    "name": "A3",
                    "midi": 57,
                    "time": 260.65368599999863,
                    "velocity": 0.29133858267716534,
                    "duration": 0.13071899999999914
                },
                {
                    "name": "D4",
                    "midi": 62,
                    "time": 260.65368599999863,
                    "velocity": 0.29133858267716534,
                    "duration": 0.13071899999999914
                },
                {
                    "name": "F#4",
                    "midi": 66,
                    "time": 260.65368599999863,
                    "velocity": 0.3543307086614173,
                    "duration": 0.13071899999999914
                },
                {
                    "name": "A3",
                    "midi": 57,
                    "time": 260.9151239999986,
                    "velocity": 0.29133858267716534,
                    "duration": 0.13071899999999914
                },
                {
                    "name": "D4",
                    "midi": 62,
                    "time": 260.9151239999986,
                    "velocity": 0.29133858267716534,
                    "duration": 0.13071899999999914
                },
                {
                    "name": "F#4",
                    "midi": 66,
                    "time": 260.9151239999986,
                    "velocity": 0.3543307086614173,
                    "duration": 0.13071899999999914
                },
                {
                    "name": "A3",
                    "midi": 57,
                    "time": 261.1765619999986,
                    "velocity": 0.29133858267716534,
                    "duration": 0.13071899999999914
                },
                {
                    "name": "D4",
                    "midi": 62,
                    "time": 261.1765619999986,
                    "velocity": 0.29133858267716534,
                    "duration": 0.13071899999999914
                },
                {
                    "name": "F#4",
                    "midi": 66,
                    "time": 261.1765619999986,
                    "velocity": 0.3543307086614173,
                    "duration": 0.13071899999999914
                },
                {
                    "name": "A3",
                    "midi": 57,
                    "time": 261.4379999999986,
                    "velocity": 0.3937007874015748,
                    "duration": 0.13071899999999914
                },
                {
                    "name": "C#4",
                    "midi": 61,
                    "time": 261.4379999999986,
                    "velocity": 0.3937007874015748,
                    "duration": 0.13071899999999914
                },
                {
                    "name": "A3",
                    "midi": 57,
                    "time": 261.6994379999986,
                    "velocity": 0.3543307086614173,
                    "duration": 0.13071899999999914
                },
                {
                    "name": "C#4",
                    "midi": 61,
                    "time": 261.6994379999986,
                    "velocity": 0.3543307086614173,
                    "duration": 0.13071899999999914
                },
                {
                    "name": "A3",
                    "midi": 57,
                    "time": 261.9608759999986,
                    "velocity": 0.3543307086614173,
                    "duration": 0.13071899999999914
                },
                {
                    "name": "C#4",
                    "midi": 61,
                    "time": 261.9608759999986,
                    "velocity": 0.3543307086614173,
                    "duration": 0.13071899999999914
                },
                {
                    "name": "A3",
                    "midi": 57,
                    "time": 262.2223139999986,
                    "velocity": 0.3543307086614173,
                    "duration": 0.13071899999999914
                },
                {
                    "name": "C#4",
                    "midi": 61,
                    "time": 262.2223139999986,
                    "velocity": 0.3543307086614173,
                    "duration": 0.13071899999999914
                },
                {
                    "name": "D3",
                    "midi": 50,
                    "time": 262.4837519999986,
                    "velocity": 0.44881889763779526,
                    "duration": 0.13071899999999914
                },
                {
                    "name": "D4",
                    "midi": 62,
                    "time": 262.6144709999986,
                    "velocity": 0.3700787401574803,
                    "duration": 0.13071899999999914
                },
                {
                    "name": "C#4",
                    "midi": 61,
                    "time": 262.7451899999986,
                    "velocity": 0.3937007874015748,
                    "duration": 0.13071899999999914
                },
                {
                    "name": "D4",
                    "midi": 62,
                    "time": 262.8759089999986,
                    "velocity": 0.3700787401574803,
                    "duration": 0.13071899999999914
                },
                {
                    "name": "F#3",
                    "midi": 54,
                    "time": 263.0066279999986,
                    "velocity": 0.44881889763779526,
                    "duration": 0.13071899999999914
                },
                {
                    "name": "D4",
                    "midi": 62,
                    "time": 263.1373469999986,
                    "velocity": 0.3779527559055118,
                    "duration": 0.13071899999999914
                },
                {
                    "name": "C#4",
                    "midi": 61,
                    "time": 263.2680659999986,
                    "velocity": 0.3937007874015748,
                    "duration": 0.13071899999999914
                },
                {
                    "name": "D4",
                    "midi": 62,
                    "time": 263.3987849999986,
                    "velocity": 0.3700787401574803,
                    "duration": 0.13071899999999914
                },
                {
                    "name": "G3",
                    "midi": 55,
                    "time": 263.5295039999986,
                    "velocity": 0.44881889763779526,
                    "duration": 0.13071899999999914
                },
                {
                    "name": "D4",
                    "midi": 62,
                    "time": 263.6602229999986,
                    "velocity": 0.3700787401574803,
                    "duration": 0.13071899999999914
                },
                {
                    "name": "F#3",
                    "midi": 54,
                    "time": 263.7909419999986,
                    "velocity": 0.3937007874015748,
                    "duration": 0.13071899999999914
                },
                {
                    "name": "D4",
                    "midi": 62,
                    "time": 263.9216609999986,
                    "velocity": 0.3700787401574803,
                    "duration": 0.13071899999999914
                },
                {
                    "name": "G3",
                    "midi": 55,
                    "time": 264.0523799999986,
                    "velocity": 0.44881889763779526,
                    "duration": 0.13071899999999914
                },
                {
                    "name": "D4",
                    "midi": 62,
                    "time": 264.1830989999986,
                    "velocity": 0.3779527559055118,
                    "duration": 0.13071899999999914
                },
                {
                    "name": "F#3",
                    "midi": 54,
                    "time": 264.3138179999986,
                    "velocity": 0.3937007874015748,
                    "duration": 0.13071899999999914
                },
                {
                    "name": "D4",
                    "midi": 62,
                    "time": 264.4445369999986,
                    "velocity": 0.3700787401574803,
                    "duration": 0.13071899999999914
                },
                {
                    "name": "E3",
                    "midi": 52,
                    "time": 264.5752559999986,
                    "velocity": 0.3779527559055118,
                    "duration": 0.5228759999999966
                },
                {
                    "name": "C#4",
                    "midi": 61,
                    "time": 264.5752559999986,
                    "velocity": 0.44881889763779526,
                    "duration": 0.5228759999999966
                },
                {
                    "name": "D3",
                    "midi": 50,
                    "time": 265.3595699999986,
                    "velocity": 0.3858267716535433,
                    "duration": 0.2614379999999983
                },
                {
                    "name": "D4",
                    "midi": 62,
                    "time": 265.3595699999986,
                    "velocity": 0.4566929133858268,
                    "duration": 0.2614379999999983
                },
                {
                    "name": "G3",
                    "midi": 55,
                    "time": 265.6210079999986,
                    "velocity": 0.44881889763779526,
                    "duration": 0.2614379999999983
                },
                {
                    "name": "B3",
                    "midi": 59,
                    "time": 265.6210079999986,
                    "velocity": 0.44881889763779526,
                    "duration": 0.2614379999999983
                },
                {
                    "name": "A2",
                    "midi": 45,
                    "time": 266.1438839999986,
                    "velocity": 0.3779527559055118,
                    "duration": 0.2614379999999983
                },
                {
                    "name": "A3",
                    "midi": 57,
                    "time": 266.1438839999986,
                    "velocity": 0.44881889763779526,
                    "duration": 0.2614379999999983
                },
                {
                    "name": "D3",
                    "midi": 50,
                    "time": 266.6667599999986,
                    "velocity": 0.44881889763779526,
                    "duration": 0.13071899999999914
                },
                {
                    "name": "D4",
                    "midi": 62,
                    "time": 266.7974789999986,
                    "velocity": 0.3700787401574803,
                    "duration": 0.13071899999999914
                },
                {
                    "name": "C#4",
                    "midi": 61,
                    "time": 266.9281979999986,
                    "velocity": 0.3937007874015748,
                    "duration": 0.13071899999999914
                },
                {
                    "name": "D4",
                    "midi": 62,
                    "time": 267.0589169999986,
                    "velocity": 0.3700787401574803,
                    "duration": 0.13071899999999914
                },
                {
                    "name": "F#3",
                    "midi": 54,
                    "time": 267.1896359999986,
                    "velocity": 0.44881889763779526,
                    "duration": 0.13071899999999914
                },
                {
                    "name": "D4",
                    "midi": 62,
                    "time": 267.3203549999986,
                    "velocity": 0.3779527559055118,
                    "duration": 0.13071899999999914
                },
                {
                    "name": "C#4",
                    "midi": 61,
                    "time": 267.4510739999986,
                    "velocity": 0.3937007874015748,
                    "duration": 0.13071899999999914
                },
                {
                    "name": "D4",
                    "midi": 62,
                    "time": 267.5817929999986,
                    "velocity": 0.3700787401574803,
                    "duration": 0.13071899999999914
                },
                {
                    "name": "G3",
                    "midi": 55,
                    "time": 267.7125119999986,
                    "velocity": 0.44881889763779526,
                    "duration": 0.13071899999999914
                },
                {
                    "name": "D4",
                    "midi": 62,
                    "time": 267.8432309999986,
                    "velocity": 0.3700787401574803,
                    "duration": 0.13071899999999914
                },
                {
                    "name": "F#3",
                    "midi": 54,
                    "time": 267.9739499999986,
                    "velocity": 0.3937007874015748,
                    "duration": 0.13071899999999914
                },
                {
                    "name": "D4",
                    "midi": 62,
                    "time": 268.1046689999986,
                    "velocity": 0.3700787401574803,
                    "duration": 0.13071899999999914
                },
                {
                    "name": "G3",
                    "midi": 55,
                    "time": 268.2353879999986,
                    "velocity": 0.44881889763779526,
                    "duration": 0.13071899999999914
                },
                {
                    "name": "D4",
                    "midi": 62,
                    "time": 268.3661069999986,
                    "velocity": 0.3779527559055118,
                    "duration": 0.13071899999999914
                },
                {
                    "name": "F#3",
                    "midi": 54,
                    "time": 268.4968259999986,
                    "velocity": 0.3937007874015748,
                    "duration": 0.13071899999999914
                },
                {
                    "name": "D4",
                    "midi": 62,
                    "time": 268.6275449999986,
                    "velocity": 0.3700787401574803,
                    "duration": 0.13071899999999914
                },
                {
                    "name": "E3",
                    "midi": 52,
                    "time": 268.7582639999986,
                    "velocity": 0.3779527559055118,
                    "duration": 0.5228759999999966
                },
                {
                    "name": "C#4",
                    "midi": 61,
                    "time": 268.7582639999986,
                    "velocity": 0.44881889763779526,
                    "duration": 0.5228759999999966
                },
                {
                    "name": "D3",
                    "midi": 50,
                    "time": 269.54257799999857,
                    "velocity": 0.3858267716535433,
                    "duration": 0.2614379999999983
                },
                {
                    "name": "D4",
                    "midi": 62,
                    "time": 269.54257799999857,
                    "velocity": 0.4566929133858268,
                    "duration": 0.2614379999999983
                },
                {
                    "name": "G3",
                    "midi": 55,
                    "time": 269.80401599999857,
                    "velocity": 0.3779527559055118,
                    "duration": 0.2614379999999983
                },
                {
                    "name": "B3",
                    "midi": 59,
                    "time": 269.80401599999857,
                    "velocity": 0.44881889763779526,
                    "duration": 0.2614379999999983
                },
                {
                    "name": "A3",
                    "midi": 57,
                    "time": 270.32689199999857,
                    "velocity": 0.30708661417322836,
                    "duration": 0.2614379999999983
                },
                {
                    "name": "A2",
                    "midi": 45,
                    "time": 270.32689199999857,
                    "velocity": 0.25984251968503935,
                    "duration": 0.2614379999999983
                },
                {
                    "name": "D2",
                    "midi": 38,
                    "time": 270.84976799999856,
                    "velocity": 0.2992125984251969,
                    "duration": 0.2614379999999983
                },
                {
                    "name": "D3",
                    "midi": 50,
                    "time": 270.84976799999856,
                    "velocity": 0.3543307086614173,
                    "duration": 0.2614379999999983
                },
                {
                    "name": "G3",
                    "midi": 55,
                    "time": 271.37264399999856,
                    "velocity": 0.3228346456692913,
                    "duration": 0.2614379999999983
                },
                {
                    "name": "A2",
                    "midi": 45,
                    "time": 271.37264399999856,
                    "velocity": 0.2677165354330709,
                    "duration": 0.2614379999999983
                },
                {
                    "name": "A2",
                    "midi": 45,
                    "time": 271.89551999999856,
                    "velocity": 0.2992125984251969,
                    "duration": 0.2614379999999983
                },
                {
                    "name": "F#3",
                    "midi": 54,
                    "time": 271.89551999999856,
                    "velocity": 0.3543307086614173,
                    "duration": 0.2614379999999983
                },
                {
                    "name": "E3",
                    "midi": 52,
                    "time": 272.41839599999855,
                    "velocity": 0.30708661417322836,
                    "duration": 0.12527237500000865
                },
                {
                    "name": "A2",
                    "midi": 45,
                    "time": 272.41839599999855,
                    "velocity": 0.25984251968503935,
                    "duration": 0.2614379999999983
                },
                {
                    "name": "D2",
                    "midi": 38,
                    "time": 272.94127199999855,
                    "velocity": 0.28346456692913385,
                    "duration": 0.5228759999999966
                },
                {
                    "name": "D3",
                    "midi": 50,
                    "time": 272.94127199999855,
                    "velocity": 0.33858267716535434,
                    "duration": 0.5228759999999966
                }
            ],
            "controlChanges": {},
            "id": 2,
            "name": "Piano left",
            "instrumentNumber": 0,
            "instrument": "acoustic grand piano",
            "instrumentFamily": "piano",
            "channelNumber": 0,
            "isPercussion": false
        },
        {
            "startTime": 0,
            "duration": 0,
            "length": 0,
            "notes": [],
            "controlChanges": {
                "64": [
                    {
                        "number": 64,
                        "time": 25.9215777,
                        "value": 1
                    },
                    {
                        "number": 64,
                        "time": 26.41177395,
                        "value": 0
                    },
                    {
                        "number": 64,
                        "time": 26.4749548,
                        "value": 1
                    },
                    {
                        "number": 64,
                        "time": 26.93029265,
                        "value": 0
                    },
                    {
                        "number": 64,
                        "time": 27.008724049999998,
                        "value": 1
                    },
                    {
                        "number": 64,
                        "time": 27.450989999999997,
                        "value": 0
                    },
                    {
                        "number": 64,
                        "time": 49.730954225,
                        "value": 1
                    },
                    {
                        "number": 64,
                        "time": 50.2004533,
                        "value": 0
                    },
                    {
                        "number": 64,
                        "time": 56.140542525,
                        "value": 1
                    },
                    {
                        "number": 64,
                        "time": 56.339889,
                        "value": 0
                    },
                    {
                        "number": 64,
                        "time": 56.4488215,
                        "value": 1
                    },
                    {
                        "number": 64,
                        "time": 56.589344425,
                        "value": 0
                    },
                    {
                        "number": 64,
                        "time": 56.7015449,
                        "value": 1
                    },
                    {
                        "number": 64,
                        "time": 56.86930095,
                        "value": 0
                    },
                    {
                        "number": 64,
                        "time": 56.984769400000005,
                        "value": 1
                    },
                    {
                        "number": 64,
                        "time": 57.140542875,
                        "value": 0
                    },
                    {
                        "number": 64,
                        "time": 57.23967145,
                        "value": 1
                    },
                    {
                        "number": 64,
                        "time": 57.395444925,
                        "value": 0
                    },
                    {
                        "number": 64,
                        "time": 57.5860768,
                        "value": 1
                    },
                    {
                        "number": 64,
                        "time": 58.531610900000004,
                        "value": 0
                    },
                    {
                        "number": 64,
                        "time": 58.6318288,
                        "value": 1
                    },
                    {
                        "number": 64,
                        "time": 59.637275775,
                        "value": 0
                    },
                    {
                        "number": 64,
                        "time": 59.665598225,
                        "value": 1
                    },
                    {
                        "number": 64,
                        "time": 60.653616,
                        "value": 0
                    },
                    {
                        "number": 64,
                        "time": 64.836624,
                        "value": 0
                    },
                    {
                        "number": 64,
                        "time": 69.019632,
                        "value": 0
                    },
                    {
                        "number": 64,
                        "time": 69.63618995,
                        "value": 1
                    },
                    {
                        "number": 64,
                        "time": 70.1220289,
                        "value": 0
                    },
                    {
                        "number": 64,
                        "time": 70.19610300000001,
                        "value": 1
                    },
                    {
                        "number": 64,
                        "time": 70.604599875,
                        "value": 0
                    },
                    {
                        "number": 64,
                        "time": 70.669959375,
                        "value": 1
                    },
                    {
                        "number": 64,
                        "time": 71.111136,
                        "value": 0
                    },
                    {
                        "number": 64,
                        "time": 71.372574,
                        "value": 1
                    },
                    {
                        "number": 64,
                        "time": 71.634012,
                        "value": 0
                    },
                    {
                        "number": 64,
                        "time": 97.0327137,
                        "value": 1
                    },
                    {
                        "number": 64,
                        "time": 97.52290995,
                        "value": 0
                    },
                    {
                        "number": 64,
                        "time": 97.5860908,
                        "value": 1
                    },
                    {
                        "number": 64,
                        "time": 98.04142865,
                        "value": 0
                    },
                    {
                        "number": 64,
                        "time": 98.11986005,
                        "value": 1
                    },
                    {
                        "number": 64,
                        "time": 98.562126,
                        "value": 0
                    },
                    {
                        "number": 64,
                        "time": 120.842090225,
                        "value": 1
                    },
                    {
                        "number": 64,
                        "time": 121.31158930000001,
                        "value": 0
                    },
                    {
                        "number": 64,
                        "time": 127.251678525,
                        "value": 1
                    },
                    {
                        "number": 64,
                        "time": 127.451025,
                        "value": 0
                    },
                    {
                        "number": 64,
                        "time": 127.5599575,
                        "value": 1
                    },
                    {
                        "number": 64,
                        "time": 127.700480425,
                        "value": 0
                    },
                    {
                        "number": 64,
                        "time": 127.81268089999999,
                        "value": 1
                    },
                    {
                        "number": 64,
                        "time": 127.98043694999998,
                        "value": 0
                    },
                    {
                        "number": 64,
                        "time": 128.0959054,
                        "value": 1
                    },
                    {
                        "number": 64,
                        "time": 128.25167887499998,
                        "value": 0
                    },
                    {
                        "number": 64,
                        "time": 128.35080745,
                        "value": 1
                    },
                    {
                        "number": 64,
                        "time": 128.50658092499998,
                        "value": 0
                    },
                    {
                        "number": 64,
                        "time": 128.6972128,
                        "value": 1
                    },
                    {
                        "number": 64,
                        "time": 129.6427469,
                        "value": 0
                    },
                    {
                        "number": 64,
                        "time": 129.74296479999998,
                        "value": 1
                    },
                    {
                        "number": 64,
                        "time": 130.748411775,
                        "value": 0
                    },
                    {
                        "number": 64,
                        "time": 130.77673422499998,
                        "value": 1
                    },
                    {
                        "number": 64,
                        "time": 131.764752,
                        "value": 0
                    },
                    {
                        "number": 64,
                        "time": 135.94776,
                        "value": 0
                    },
                    {
                        "number": 64,
                        "time": 140.130768,
                        "value": 0
                    },
                    {
                        "number": 64,
                        "time": 140.74732594999998,
                        "value": 1
                    },
                    {
                        "number": 64,
                        "time": 141.23316489999996,
                        "value": 0
                    },
                    {
                        "number": 64,
                        "time": 141.30723899999995,
                        "value": 1
                    },
                    {
                        "number": 64,
                        "time": 141.71573587499995,
                        "value": 0
                    },
                    {
                        "number": 64,
                        "time": 141.78109537499995,
                        "value": 1
                    },
                    {
                        "number": 64,
                        "time": 142.22227199999995,
                        "value": 0
                    },
                    {
                        "number": 64,
                        "time": 142.48370999999995,
                        "value": 1
                    },
                    {
                        "number": 64,
                        "time": 142.94885177499995,
                        "value": 0
                    },
                    {
                        "number": 64,
                        "time": 161.13295399999996,
                        "value": 1
                    },
                    {
                        "number": 64,
                        "time": 162.44014399999995,
                        "value": 0
                    },
                    {
                        "number": 64,
                        "time": 176.85518172499994,
                        "value": 1
                    },
                    {
                        "number": 64,
                        "time": 178.49352652499994,
                        "value": 0
                    },
                    {
                        "number": 64,
                        "time": 192.48372749999993,
                        "value": 1
                    },
                    {
                        "number": 64,
                        "time": 193.00660349999993,
                        "value": 0
                    },
                    {
                        "number": 64,
                        "time": 218.33994569999993,
                        "value": 1
                    },
                    {
                        "number": 64,
                        "time": 218.83014194999993,
                        "value": 0
                    },
                    {
                        "number": 64,
                        "time": 218.89332279999994,
                        "value": 1
                    },
                    {
                        "number": 64,
                        "time": 219.34866064999994,
                        "value": 0
                    },
                    {
                        "number": 64,
                        "time": 219.42709204999994,
                        "value": 1
                    },
                    {
                        "number": 64,
                        "time": 219.86935799999995,
                        "value": 0
                    },
                    {
                        "number": 64,
                        "time": 244.24082622499995,
                        "value": 1
                    },
                    {
                        "number": 64,
                        "time": 244.71032529999994,
                        "value": 0
                    },
                    {
                        "number": 64,
                        "time": 246.80182929999992,
                        "value": 0
                    },
                    {
                        "number": 64,
                        "time": 248.8933332999999,
                        "value": 0
                    },
                    {
                        "number": 64,
                        "time": 250.9848372999999,
                        "value": 0
                    },
                    {
                        "number": 64,
                        "time": 252.0305892999999,
                        "value": 0
                    },
                    {
                        "number": 64,
                        "time": 253.07634129999988,
                        "value": 0
                    },
                    {
                        "number": 64,
                        "time": 257.97067852499987,
                        "value": 1
                    },
                    {
                        "number": 64,
                        "time": 258.1700249999999,
                        "value": 0
                    },
                    {
                        "number": 64,
                        "time": 258.2789574999999,
                        "value": 1
                    },
                    {
                        "number": 64,
                        "time": 258.4194804249999,
                        "value": 0
                    },
                    {
                        "number": 64,
                        "time": 258.5316808999999,
                        "value": 1
                    },
                    {
                        "number": 64,
                        "time": 258.6994369499999,
                        "value": 0
                    },
                    {
                        "number": 64,
                        "time": 258.8149053999999,
                        "value": 1
                    },
                    {
                        "number": 64,
                        "time": 258.97067887499986,
                        "value": 0
                    },
                    {
                        "number": 64,
                        "time": 259.06980744999987,
                        "value": 1
                    },
                    {
                        "number": 64,
                        "time": 259.22558092499986,
                        "value": 0
                    },
                    {
                        "number": 64,
                        "time": 259.38135439999985,
                        "value": 1
                    },
                    {
                        "number": 64,
                        "time": 259.46523242499984,
                        "value": 0
                    },
                    {
                        "number": 64,
                        "time": 259.57743289999985,
                        "value": 1
                    },
                    {
                        "number": 64,
                        "time": 259.74518894999983,
                        "value": 0
                    },
                    {
                        "number": 64,
                        "time": 259.8606573999998,
                        "value": 1
                    },
                    {
                        "number": 64,
                        "time": 260.0164308749998,
                        "value": 0
                    },
                    {
                        "number": 64,
                        "time": 260.1155594499998,
                        "value": 1
                    },
                    {
                        "number": 64,
                        "time": 260.2713329249998,
                        "value": 0
                    },
                    {
                        "number": 64,
                        "time": 260.3617468999998,
                        "value": 0
                    },
                    {
                        "number": 64,
                        "time": 260.4619647999998,
                        "value": 1
                    },
                    {
                        "number": 64,
                        "time": 261.4674117749998,
                        "value": 0
                    },
                    {
                        "number": 64,
                        "time": 261.4957342249998,
                        "value": 1
                    },
                    {
                        "number": 64,
                        "time": 262.4837519999998,
                        "value": 0
                    },
                    {
                        "number": 64,
                        "time": 266.6667599999998,
                        "value": 0
                    },
                    {
                        "number": 64,
                        "time": 270.84976799999976,
                        "value": 0
                    },
                    {
                        "number": 64,
                        "time": 271.46632594999977,
                        "value": 1
                    },
                    {
                        "number": 64,
                        "time": 271.9521648999998,
                        "value": 0
                    },
                    {
                        "number": 64,
                        "time": 272.0262389999998,
                        "value": 1
                    },
                    {
                        "number": 64,
                        "time": 272.43473587499983,
                        "value": 0
                    },
                    {
                        "number": 64,
                        "time": 272.50009537499983,
                        "value": 1
                    },
                    {
                        "number": 64,
                        "time": 272.94127199999986,
                        "value": 0
                    },
                    {
                        "number": 64,
                        "time": 273.20270999999985,
                        "value": 1
                    },
                    {
                        "number": 64,
                        "time": 273.46414799999985,
                        "value": 0
                    }
                ]
            },
            "id": 3,
            "name": "Pedale",
            "instrumentNumber": 0,
            "instrument": "acoustic grand piano",
            "instrumentFamily": "piano",
            "channelNumber": 0,
            "isPercussion": false
        },
        {
            "startTime": 0,
            "duration": 0,
            "length": 0,
            "notes": [],
            "controlChanges": {},
            "id": 4,
            "name": "Haydn: Sonata Hoboken XVI:33 1. movement"
        },
        {
            "startTime": 0,
            "duration": 0,
            "length": 0,
            "notes": [],
            "controlChanges": {},
            "id": 5,
            "name": "Copyright  2010 by Bernd Krueger"
        },
        {
            "startTime": 0,
            "duration": 0,
            "length": 0,
            "notes": [],
            "controlChanges": {},
            "id": 6,
            "name": "http://www.piano-midi.de/"
        },
        {
            "startTime": 0,
            "duration": 0,
            "length": 0,
            "notes": [],
            "controlChanges": {},
            "id": 7,
            "name": "Edition: 2012-02-08"
        },
        {
            "startTime": 0,
            "duration": 0,
            "length": 0,
            "notes": [],
            "controlChanges": {},
            "id": 8,
            "name": "Spur 8"
        },
        {
            "startTime": 0,
            "duration": 0,
            "length": 0,
            "notes": [],
            "controlChanges": {},
            "id": 9,
            "name": "Spur 9"
        },
        {
            "startTime": 0,
            "duration": 0,
            "length": 0,
            "notes": [],
            "controlChanges": {},
            "id": 10,
            "name": "Spur 10"
        },
        {
            "startTime": 0,
            "duration": 0,
            "length": 0,
            "notes": [],
            "controlChanges": {},
            "id": 11,
            "name": "Spur 11"
        },
        {
            "startTime": 0,
            "duration": 0,
            "length": 0,
            "notes": [],
            "controlChanges": {},
            "id": 12,
            "name": "Spur 12"
        },
        {
            "startTime": 0,
            "duration": 0,
            "length": 0,
            "notes": [],
            "controlChanges": {},
            "id": 13,
            "name": "Spur 13"
        },
        {
            "startTime": 0,
            "duration": 0,
            "length": 0,
            "notes": [],
            "controlChanges": {},
            "id": 14,
            "name": "Spur 14"
        },
        {
            "startTime": 0,
            "duration": 0,
            "length": 0,
            "notes": [],
            "controlChanges": {},
            "id": 15,
            "name": "Spur 15"
        },
        {
            "startTime": 0,
            "duration": 0,
            "length": 0,
            "notes": [],
            "controlChanges": {},
            "id": 16,
            "name": "Spur 16"
        }
    ]
}