{
    "header": {
        "PPQ": 480,
        "timeSignature": [
            3,
            8
        ],
        "bpm": 113.03990685511675,
        "name": "Finale"
    },
    "startTime": 0,
    "duration": 87.31429700000004,
    "tracks": [
        {
            "startTime": 0,
            "duration": 0,
            "length": 0,
            "notes": [],
            "controlChanges": {},
            "id": 0,
            "name": "Finale"
        },
        {
            "startTime": 0,
            "duration": 87.31429700000004,
            "length": 418,
            "notes": [
                {
                    "name": "C5",
                    "midi": 72,
                    "time": 0,
                    "velocity": 0.47244094488188976,
                    "duration": 0.530786
                },
                {
                    "name": "E5",
                    "midi": 76,
                    "time": 0.530786,
                    "velocity": 0.4330708661417323,
                    "duration": 0.08846433333333337
                },
                {
                    "name": "D5",
                    "midi": 74,
                    "time": 0.6192503333333333,
                    "velocity": 0.3858267716535433,
                    "duration": 0.08846433333333337
                },
                {
                    "name": "C5",
                    "midi": 72,
                    "time": 0.7077146666666667,
                    "velocity": 0.3858267716535433,
                    "duration": 0.08846433333333337
                },
                {
                    "name": "G5",
                    "midi": 79,
                    "time": 0.7961790000000001,
                    "velocity": 0.47244094488188976,
                    "duration": 0.5307859999999999
                },
                {
                    "name": "F5",
                    "midi": 77,
                    "time": 1.326965,
                    "velocity": 0.4094488188976378,
                    "duration": 0.265393
                },
                {
                    "name": "E5",
                    "midi": 76,
                    "time": 1.592358,
                    "velocity": 0.47244094488188976,
                    "duration": 0.530786
                },
                {
                    "name": "E5",
                    "midi": 76,
                    "time": 2.123144,
                    "velocity": 0.47244094488188976,
                    "duration": 0.13269649999999977
                },
                {
                    "name": "G4",
                    "midi": 67,
                    "time": 2.2558404999999997,
                    "velocity": 0.31496062992125984,
                    "duration": 0.13269649999999977
                },
                {
                    "name": "D5",
                    "midi": 74,
                    "time": 2.3885369999999995,
                    "velocity": 0.47244094488188976,
                    "duration": 0.13269649999999977
                },
                {
                    "name": "G4",
                    "midi": 67,
                    "time": 2.5212334999999992,
                    "velocity": 0.2755905511811024,
                    "duration": 0.13269649999999977
                },
                {
                    "name": "D5",
                    "midi": 74,
                    "time": 2.653929999999999,
                    "velocity": 0.47244094488188976,
                    "duration": 0.13269649999999977
                },
                {
                    "name": "G4",
                    "midi": 67,
                    "time": 2.786626499999999,
                    "velocity": 0.30708661417322836,
                    "duration": 0.13269649999999977
                },
                {
                    "name": "E5",
                    "midi": 76,
                    "time": 2.9193229999999986,
                    "velocity": 0.48031496062992124,
                    "duration": 0.13269649999999977
                },
                {
                    "name": "G4",
                    "midi": 67,
                    "time": 3.0520194999999983,
                    "velocity": 0.2992125984251969,
                    "duration": 0.13269649999999977
                },
                {
                    "name": "F5",
                    "midi": 77,
                    "time": 3.184715999999998,
                    "velocity": 0.49606299212598426,
                    "duration": 0.13269649999999977
                },
                {
                    "name": "G4",
                    "midi": 67,
                    "time": 3.317412499999998,
                    "velocity": 0.29133858267716534,
                    "duration": 0.13269649999999977
                },
                {
                    "name": "E5",
                    "midi": 76,
                    "time": 3.4501089999999976,
                    "velocity": 0.47244094488188976,
                    "duration": 0.13269649999999977
                },
                {
                    "name": "G4",
                    "midi": 67,
                    "time": 3.5828054999999974,
                    "velocity": 0.2992125984251969,
                    "duration": 0.13269649999999977
                },
                {
                    "name": "D5",
                    "midi": 74,
                    "time": 3.715501999999997,
                    "velocity": 0.4566929133858268,
                    "duration": 0.13269649999999977
                },
                {
                    "name": "G4",
                    "midi": 67,
                    "time": 3.848198499999997,
                    "velocity": 0.2992125984251969,
                    "duration": 0.13269649999999977
                },
                {
                    "name": "E5",
                    "midi": 76,
                    "time": 3.9808949999999967,
                    "velocity": 0.47244094488188976,
                    "duration": 0.530786
                },
                {
                    "name": "G4",
                    "midi": 67,
                    "time": 4.511680999999997,
                    "velocity": 0.4330708661417323,
                    "duration": 0.08846433333333348
                },
                {
                    "name": "A4",
                    "midi": 69,
                    "time": 4.60014533333333,
                    "velocity": 0.4330708661417323,
                    "duration": 0.08846433333333348
                },
                {
                    "name": "B4",
                    "midi": 71,
                    "time": 4.688609666666664,
                    "velocity": 0.4330708661417323,
                    "duration": 0.08846433333333348
                },
                {
                    "name": "C5",
                    "midi": 72,
                    "time": 4.777073999999997,
                    "velocity": 0.47244094488188976,
                    "duration": 0.530786
                },
                {
                    "name": "E5",
                    "midi": 76,
                    "time": 5.307859999999997,
                    "velocity": 0.4330708661417323,
                    "duration": 0.08846433333333348
                },
                {
                    "name": "D5",
                    "midi": 74,
                    "time": 5.396324333333331,
                    "velocity": 0.3858267716535433,
                    "duration": 0.08846433333333348
                },
                {
                    "name": "C5",
                    "midi": 72,
                    "time": 5.484788666666664,
                    "velocity": 0.3858267716535433,
                    "duration": 0.08846433333333348
                },
                {
                    "name": "G5",
                    "midi": 79,
                    "time": 5.573252999999998,
                    "velocity": 0.47244094488188976,
                    "duration": 0.530786
                },
                {
                    "name": "F5",
                    "midi": 77,
                    "time": 6.1040389999999976,
                    "velocity": 0.4094488188976378,
                    "duration": 0.26539300000000043
                },
                {
                    "name": "E5",
                    "midi": 76,
                    "time": 6.369431999999998,
                    "velocity": 0.47244094488188976,
                    "duration": 0.530786
                },
                {
                    "name": "E5",
                    "midi": 76,
                    "time": 6.900217999999998,
                    "velocity": 0.47244094488188976,
                    "duration": 0.13269649999999977
                },
                {
                    "name": "G4",
                    "midi": 67,
                    "time": 7.032914499999998,
                    "velocity": 0.31496062992125984,
                    "duration": 0.13269649999999977
                },
                {
                    "name": "D5",
                    "midi": 74,
                    "time": 7.1656109999999975,
                    "velocity": 0.47244094488188976,
                    "duration": 0.13269649999999977
                },
                {
                    "name": "G4",
                    "midi": 67,
                    "time": 7.298307499999997,
                    "velocity": 0.2755905511811024,
                    "duration": 0.13269649999999977
                },
                {
                    "name": "D5",
                    "midi": 74,
                    "time": 7.431003999999997,
                    "velocity": 0.47244094488188976,
                    "duration": 0.13269649999999977
                },
                {
                    "name": "G4",
                    "midi": 67,
                    "time": 7.563700499999997,
                    "velocity": 0.30708661417322836,
                    "duration": 0.13269649999999977
                },
                {
                    "name": "E5",
                    "midi": 76,
                    "time": 7.696396999999997,
                    "velocity": 0.48031496062992124,
                    "duration": 0.13269649999999977
                },
                {
                    "name": "G4",
                    "midi": 67,
                    "time": 7.829093499999996,
                    "velocity": 0.2992125984251969,
                    "duration": 0.13269649999999977
                },
                {
                    "name": "D5",
                    "midi": 74,
                    "time": 7.961789999999996,
                    "velocity": 0.49606299212598426,
                    "duration": 0.13269650000000066
                },
                {
                    "name": "G4",
                    "midi": 67,
                    "time": 8.094486499999997,
                    "velocity": 0.29133858267716534,
                    "duration": 0.13269649999999977
                },
                {
                    "name": "D5",
                    "midi": 74,
                    "time": 8.227182999999997,
                    "velocity": 0.47244094488188976,
                    "duration": 0.13269649999999977
                },
                {
                    "name": "G4",
                    "midi": 67,
                    "time": 8.359879499999996,
                    "velocity": 0.2992125984251969,
                    "duration": 0.13269649999999977
                },
                {
                    "name": "C5",
                    "midi": 72,
                    "time": 8.492575999999996,
                    "velocity": 0.4566929133858268,
                    "duration": 0.13269649999999977
                },
                {
                    "name": "G4",
                    "midi": 67,
                    "time": 8.625272499999996,
                    "velocity": 0.2992125984251969,
                    "duration": 0.13269649999999977
                },
                {
                    "name": "B4",
                    "midi": 71,
                    "time": 8.757968999999996,
                    "velocity": 0.49606299212598426,
                    "duration": 0.13269649999999977
                },
                {
                    "name": "D5",
                    "midi": 74,
                    "time": 8.890665499999995,
                    "velocity": 0.4015748031496063,
                    "duration": 0.13269649999999977
                },
                {
                    "name": "B4",
                    "midi": 71,
                    "time": 9.023361999999995,
                    "velocity": 0.4566929133858268,
                    "duration": 0.13269649999999977
                },
                {
                    "name": "G4",
                    "midi": 67,
                    "time": 9.156058499999995,
                    "velocity": 0.3937007874015748,
                    "duration": 0.13269649999999977
                },
                {
                    "name": "A4",
                    "midi": 69,
                    "time": 9.288754999999995,
                    "velocity": 0.44881889763779526,
                    "duration": 0.13269649999999977
                },
                {
                    "name": "F#4",
                    "midi": 66,
                    "time": 9.421451499999995,
                    "velocity": 0.41732283464566927,
                    "duration": 0.13269649999999977
                },
                {
                    "name": "G4",
                    "midi": 67,
                    "time": 9.554147999999994,
                    "velocity": 0.49606299212598426,
                    "duration": 0.5307859999999991
                },
                {
                    "name": "C6",
                    "midi": 84,
                    "time": 12.208077999999993,
                    "velocity": 0.49606299212598426,
                    "duration": 0.08846433333333259
                },
                {
                    "name": "B5",
                    "midi": 83,
                    "time": 12.296542333333326,
                    "velocity": 0.44881889763779526,
                    "duration": 0.08846433333333259
                },
                {
                    "name": "A5",
                    "midi": 81,
                    "time": 12.385006666666659,
                    "velocity": 0.44881889763779526,
                    "duration": 0.08846433333333259
                },
                {
                    "name": "G5",
                    "midi": 79,
                    "time": 12.473470999999991,
                    "velocity": 0.49606299212598426,
                    "duration": 0.08846433333333259
                },
                {
                    "name": "F#5",
                    "midi": 78,
                    "time": 12.561935333333324,
                    "velocity": 0.44881889763779526,
                    "duration": 0.08846433333333259
                },
                {
                    "name": "E5",
                    "midi": 76,
                    "time": 12.650399666666656,
                    "velocity": 0.4409448818897638,
                    "duration": 0.08846433333333259
                },
                {
                    "name": "D5",
                    "midi": 74,
                    "time": 12.738863999999989,
                    "velocity": 0.49606299212598426,
                    "duration": 0.13269649999999977
                },
                {
                    "name": "A5",
                    "midi": 81,
                    "time": 12.871560499999989,
                    "velocity": 0.4330708661417323,
                    "duration": 0.13269649999999977
                },
                {
                    "name": "C6",
                    "midi": 84,
                    "time": 13.004256999999988,
                    "velocity": 0.4645669291338583,
                    "duration": 0.13269649999999977
                },
                {
                    "name": "A5",
                    "midi": 81,
                    "time": 13.136953499999988,
                    "velocity": 0.4094488188976378,
                    "duration": 0.13269649999999977
                },
                {
                    "name": "B5",
                    "midi": 83,
                    "time": 13.269649999999988,
                    "velocity": 0.48031496062992124,
                    "duration": 0.13269649999999977
                },
                {
                    "name": "G5",
                    "midi": 79,
                    "time": 13.402346499999988,
                    "velocity": 0.4409448818897638,
                    "duration": 0.13269649999999977
                },
                {
                    "name": "A5",
                    "midi": 81,
                    "time": 13.535042999999988,
                    "velocity": 0.49606299212598426,
                    "duration": 0.26539299999999955
                },
                {
                    "name": "G5",
                    "midi": 79,
                    "time": 13.800435999999987,
                    "velocity": 0.4566929133858268,
                    "duration": 0.26539299999999955
                },
                {
                    "name": "F#5",
                    "midi": 78,
                    "time": 14.065828999999987,
                    "velocity": 0.41732283464566927,
                    "duration": 0.0530785999999992
                },
                {
                    "name": "G5",
                    "midi": 79,
                    "time": 14.118907599999986,
                    "velocity": 0.3779527559055118,
                    "duration": 0.0530785999999992
                },
                {
                    "name": "F#5",
                    "midi": 78,
                    "time": 14.171986199999985,
                    "velocity": 0.41732283464566927,
                    "duration": 0.0530785999999992
                },
                {
                    "name": "G5",
                    "midi": 79,
                    "time": 14.225064799999984,
                    "velocity": 0.3779527559055118,
                    "duration": 0.0530785999999992
                },
                {
                    "name": "F#5",
                    "midi": 78,
                    "time": 14.278143399999983,
                    "velocity": 0.3779527559055118,
                    "duration": 0.0530785999999992
                },
                {
                    "name": "B4",
                    "midi": 71,
                    "time": 14.331221999999983,
                    "velocity": 0.49606299212598426,
                    "duration": 0.5307859999999991
                },
                {
                    "name": "D5",
                    "midi": 74,
                    "time": 14.331221999999983,
                    "velocity": 0.49606299212598426,
                    "duration": 0.5307859999999991
                },
                {
                    "name": "G5",
                    "midi": 79,
                    "time": 14.331221999999983,
                    "velocity": 0.49606299212598426,
                    "duration": 0.5307859999999991
                },
                {
                    "name": "C6",
                    "midi": 84,
                    "time": 16.98515199999998,
                    "velocity": 0.49606299212598426,
                    "duration": 0.08846433333333437
                },
                {
                    "name": "B5",
                    "midi": 83,
                    "time": 17.073616333333316,
                    "velocity": 0.44881889763779526,
                    "duration": 0.08846433333333437
                },
                {
                    "name": "A5",
                    "midi": 81,
                    "time": 17.16208066666665,
                    "velocity": 0.44881889763779526,
                    "duration": 0.08846433333333437
                },
                {
                    "name": "G5",
                    "midi": 79,
                    "time": 17.250544999999985,
                    "velocity": 0.49606299212598426,
                    "duration": 0.08846433333333437
                },
                {
                    "name": "F#5",
                    "midi": 78,
                    "time": 17.33900933333332,
                    "velocity": 0.44881889763779526,
                    "duration": 0.08846433333333437
                },
                {
                    "name": "E5",
                    "midi": 76,
                    "time": 17.427473666666653,
                    "velocity": 0.4409448818897638,
                    "duration": 0.08846433333333437
                },
                {
                    "name": "D5",
                    "midi": 74,
                    "time": 17.515937999999988,
                    "velocity": 0.49606299212598426,
                    "duration": 0.13269650000000155
                },
                {
                    "name": "A5",
                    "midi": 81,
                    "time": 17.64863449999999,
                    "velocity": 0.4330708661417323,
                    "duration": 0.13269650000000155
                },
                {
                    "name": "C6",
                    "midi": 84,
                    "time": 17.78133099999999,
                    "velocity": 0.4645669291338583,
                    "duration": 0.13269650000000155
                },
                {
                    "name": "A5",
                    "midi": 81,
                    "time": 17.914027499999992,
                    "velocity": 0.4094488188976378,
                    "duration": 0.13269650000000155
                },
                {
                    "name": "B5",
                    "midi": 83,
                    "time": 18.046723999999994,
                    "velocity": 0.48031496062992124,
                    "duration": 0.13269650000000155
                },
                {
                    "name": "G5",
                    "midi": 79,
                    "time": 18.179420499999996,
                    "velocity": 0.4409448818897638,
                    "duration": 0.13269650000000155
                },
                {
                    "name": "A5",
                    "midi": 81,
                    "time": 18.312116999999997,
                    "velocity": 0.49606299212598426,
                    "duration": 0.26539299999999955
                },
                {
                    "name": "G5",
                    "midi": 79,
                    "time": 18.577509999999997,
                    "velocity": 0.4566929133858268,
                    "duration": 0.26539299999999955
                },
                {
                    "name": "F#5",
                    "midi": 78,
                    "time": 18.842902999999996,
                    "velocity": 0.41732283464566927,
                    "duration": 0.0530785999999992
                },
                {
                    "name": "G5",
                    "midi": 79,
                    "time": 18.895981599999995,
                    "velocity": 0.3779527559055118,
                    "duration": 0.0530785999999992
                },
                {
                    "name": "F#5",
                    "midi": 78,
                    "time": 18.949060199999995,
                    "velocity": 0.41732283464566927,
                    "duration": 0.0530785999999992
                },
                {
                    "name": "G5",
                    "midi": 79,
                    "time": 19.002138799999994,
                    "velocity": 0.3779527559055118,
                    "duration": 0.0530785999999992
                },
                {
                    "name": "F#5",
                    "midi": 78,
                    "time": 19.055217399999993,
                    "velocity": 0.3779527559055118,
                    "duration": 0.0530785999999992
                },
                {
                    "name": "B4",
                    "midi": 71,
                    "time": 19.108295999999992,
                    "velocity": 0.49606299212598426,
                    "duration": 0.5307859999999991
                },
                {
                    "name": "D5",
                    "midi": 74,
                    "time": 19.108295999999992,
                    "velocity": 0.49606299212598426,
                    "duration": 0.5307859999999991
                },
                {
                    "name": "G5",
                    "midi": 79,
                    "time": 19.108295999999992,
                    "velocity": 0.49606299212598426,
                    "duration": 0.5307859999999991
                },
                {
                    "name": "C5",
                    "midi": 72,
                    "time": 19.90447499999999,
                    "velocity": 0.47244094488188976,
                    "duration": 0.5307859999999991
                },
                {
                    "name": "E5",
                    "midi": 76,
                    "time": 20.43526099999999,
                    "velocity": 0.4330708661417323,
                    "duration": 0.08846433333333437
                },
                {
                    "name": "D5",
                    "midi": 74,
                    "time": 20.523725333333324,
                    "velocity": 0.3858267716535433,
                    "duration": 0.08846433333333437
                },
                {
                    "name": "C5",
                    "midi": 72,
                    "time": 20.61218966666666,
                    "velocity": 0.3858267716535433,
                    "duration": 0.08846433333333437
                },
                {
                    "name": "G5",
                    "midi": 79,
                    "time": 20.700653999999993,
                    "velocity": 0.47244094488188976,
                    "duration": 0.5307859999999991
                },
                {
                    "name": "F5",
                    "midi": 77,
                    "time": 21.231439999999992,
                    "velocity": 0.4094488188976378,
                    "duration": 0.26539299999999955
                },
                {
                    "name": "E5",
                    "midi": 76,
                    "time": 21.49683299999999,
                    "velocity": 0.47244094488188976,
                    "duration": 0.5307859999999991
                },
                {
                    "name": "E5",
                    "midi": 76,
                    "time": 22.02761899999999,
                    "velocity": 0.47244094488188976,
                    "duration": 0.13269650000000155
                },
                {
                    "name": "G4",
                    "midi": 67,
                    "time": 22.160315499999992,
                    "velocity": 0.31496062992125984,
                    "duration": 0.13269650000000155
                },
                {
                    "name": "D5",
                    "midi": 74,
                    "time": 22.293011999999994,
                    "velocity": 0.47244094488188976,
                    "duration": 0.13269650000000155
                },
                {
                    "name": "G4",
                    "midi": 67,
                    "time": 22.425708499999995,
                    "velocity": 0.2755905511811024,
                    "duration": 0.13269650000000155
                },
                {
                    "name": "D5",
                    "midi": 74,
                    "time": 22.558404999999997,
                    "velocity": 0.47244094488188976,
                    "duration": 0.13269650000000155
                },
                {
                    "name": "G4",
                    "midi": 67,
                    "time": 22.6911015,
                    "velocity": 0.30708661417322836,
                    "duration": 0.13269650000000155
                },
                {
                    "name": "E5",
                    "midi": 76,
                    "time": 22.823798,
                    "velocity": 0.48031496062992124,
                    "duration": 0.13269650000000155
                },
                {
                    "name": "G4",
                    "midi": 67,
                    "time": 22.9564945,
                    "velocity": 0.2992125984251969,
                    "duration": 0.13269650000000155
                },
                {
                    "name": "F5",
                    "midi": 77,
                    "time": 23.089191000000003,
                    "velocity": 0.49606299212598426,
                    "duration": 0.13269650000000155
                },
                {
                    "name": "G4",
                    "midi": 67,
                    "time": 23.221887500000005,
                    "velocity": 0.29133858267716534,
                    "duration": 0.13269650000000155
                },
                {
                    "name": "E5",
                    "midi": 76,
                    "time": 23.354584000000006,
                    "velocity": 0.47244094488188976,
                    "duration": 0.13269650000000155
                },
                {
                    "name": "G4",
                    "midi": 67,
                    "time": 23.487280500000008,
                    "velocity": 0.2992125984251969,
                    "duration": 0.13269650000000155
                },
                {
                    "name": "D5",
                    "midi": 74,
                    "time": 23.61997700000001,
                    "velocity": 0.4566929133858268,
                    "duration": 0.13269650000000155
                },
                {
                    "name": "G4",
                    "midi": 67,
                    "time": 23.75267350000001,
                    "velocity": 0.2992125984251969,
                    "duration": 0.13269650000000155
                },
                {
                    "name": "E5",
                    "midi": 76,
                    "time": 23.885370000000012,
                    "velocity": 0.47244094488188976,
                    "duration": 0.5307859999999991
                },
                {
                    "name": "G4",
                    "midi": 67,
                    "time": 24.41615600000001,
                    "velocity": 0.4330708661417323,
                    "duration": 0.08846433333333437
                },
                {
                    "name": "A4",
                    "midi": 69,
                    "time": 24.504620333333346,
                    "velocity": 0.4330708661417323,
                    "duration": 0.08846433333333437
                },
                {
                    "name": "B4",
                    "midi": 71,
                    "time": 24.59308466666668,
                    "velocity": 0.4330708661417323,
                    "duration": 0.08846433333333437
                },
                {
                    "name": "C5",
                    "midi": 72,
                    "time": 24.681549000000015,
                    "velocity": 0.47244094488188976,
                    "duration": 0.5307859999999991
                },
                {
                    "name": "E5",
                    "midi": 76,
                    "time": 25.212335000000014,
                    "velocity": 0.4330708661417323,
                    "duration": 0.08846433333333437
                },
                {
                    "name": "D5",
                    "midi": 74,
                    "time": 25.300799333333348,
                    "velocity": 0.3858267716535433,
                    "duration": 0.08846433333333437
                },
                {
                    "name": "C5",
                    "midi": 72,
                    "time": 25.389263666666682,
                    "velocity": 0.3858267716535433,
                    "duration": 0.08846433333333437
                },
                {
                    "name": "G5",
                    "midi": 79,
                    "time": 25.477728000000017,
                    "velocity": 0.47244094488188976,
                    "duration": 0.5307859999999991
                },
                {
                    "name": "F5",
                    "midi": 77,
                    "time": 26.008514000000016,
                    "velocity": 0.4094488188976378,
                    "duration": 0.26539299999999955
                },
                {
                    "name": "E5",
                    "midi": 76,
                    "time": 26.273907000000015,
                    "velocity": 0.47244094488188976,
                    "duration": 0.5307859999999991
                },
                {
                    "name": "E5",
                    "midi": 76,
                    "time": 26.804693000000015,
                    "velocity": 0.47244094488188976,
                    "duration": 0.13269650000000155
                },
                {
                    "name": "G4",
                    "midi": 67,
                    "time": 26.937389500000016,
                    "velocity": 0.31496062992125984,
                    "duration": 0.13269650000000155
                },
                {
                    "name": "D5",
                    "midi": 74,
                    "time": 27.070086000000018,
                    "velocity": 0.47244094488188976,
                    "duration": 0.13269650000000155
                },
                {
                    "name": "G4",
                    "midi": 67,
                    "time": 27.20278250000002,
                    "velocity": 0.2755905511811024,
                    "duration": 0.13269650000000155
                },
                {
                    "name": "D5",
                    "midi": 74,
                    "time": 27.33547900000002,
                    "velocity": 0.47244094488188976,
                    "duration": 0.13269650000000155
                },
                {
                    "name": "G4",
                    "midi": 67,
                    "time": 27.468175500000022,
                    "velocity": 0.30708661417322836,
                    "duration": 0.13269650000000155
                },
                {
                    "name": "E5",
                    "midi": 76,
                    "time": 27.600872000000024,
                    "velocity": 0.48031496062992124,
                    "duration": 0.13269650000000155
                },
                {
                    "name": "G4",
                    "midi": 67,
                    "time": 27.733568500000025,
                    "velocity": 0.2992125984251969,
                    "duration": 0.13269650000000155
                },
                {
                    "name": "D5",
                    "midi": 74,
                    "time": 27.866265000000027,
                    "velocity": 0.49606299212598426,
                    "duration": 0.13269650000000155
                },
                {
                    "name": "G4",
                    "midi": 67,
                    "time": 27.99896150000003,
                    "velocity": 0.29133858267716534,
                    "duration": 0.13269650000000155
                },
                {
                    "name": "D5",
                    "midi": 74,
                    "time": 28.13165800000003,
                    "velocity": 0.47244094488188976,
                    "duration": 0.13269650000000155
                },
                {
                    "name": "G4",
                    "midi": 67,
                    "time": 28.26435450000003,
                    "velocity": 0.2992125984251969,
                    "duration": 0.13269650000000155
                },
                {
                    "name": "C5",
                    "midi": 72,
                    "time": 28.397051000000033,
                    "velocity": 0.4566929133858268,
                    "duration": 0.13269650000000155
                },
                {
                    "name": "G4",
                    "midi": 67,
                    "time": 28.529747500000035,
                    "velocity": 0.2992125984251969,
                    "duration": 0.13269650000000155
                },
                {
                    "name": "B4",
                    "midi": 71,
                    "time": 28.662444000000036,
                    "velocity": 0.49606299212598426,
                    "duration": 0.13269650000000155
                },
                {
                    "name": "D5",
                    "midi": 74,
                    "time": 28.795140500000038,
                    "velocity": 0.4015748031496063,
                    "duration": 0.13269650000000155
                },
                {
                    "name": "B4",
                    "midi": 71,
                    "time": 28.92783700000004,
                    "velocity": 0.4566929133858268,
                    "duration": 0.13269650000000155
                },
                {
                    "name": "G4",
                    "midi": 67,
                    "time": 29.06053350000004,
                    "velocity": 0.3937007874015748,
                    "duration": 0.13269650000000155
                },
                {
                    "name": "A4",
                    "midi": 69,
                    "time": 29.193230000000042,
                    "velocity": 0.44881889763779526,
                    "duration": 0.13269650000000155
                },
                {
                    "name": "F#4",
                    "midi": 66,
                    "time": 29.325926500000044,
                    "velocity": 0.41732283464566927,
                    "duration": 0.13269650000000155
                },
                {
                    "name": "G4",
                    "midi": 67,
                    "time": 29.458623000000046,
                    "velocity": 0.49606299212598426,
                    "duration": 0.5307859999999991
                },
                {
                    "name": "C6",
                    "midi": 84,
                    "time": 32.11255300000005,
                    "velocity": 0.49606299212598426,
                    "duration": 0.08846433333333437
                },
                {
                    "name": "B5",
                    "midi": 83,
                    "time": 32.20101733333338,
                    "velocity": 0.44881889763779526,
                    "duration": 0.08846433333333437
                },
                {
                    "name": "A5",
                    "midi": 81,
                    "time": 32.28948166666672,
                    "velocity": 0.44881889763779526,
                    "duration": 0.08846433333333437
                },
                {
                    "name": "G5",
                    "midi": 79,
                    "time": 32.37794600000005,
                    "velocity": 0.49606299212598426,
                    "duration": 0.08846433333333437
                },
                {
                    "name": "F#5",
                    "midi": 78,
                    "time": 32.466410333333386,
                    "velocity": 0.44881889763779526,
                    "duration": 0.08846433333333437
                },
                {
                    "name": "E5",
                    "midi": 76,
                    "time": 32.55487466666672,
                    "velocity": 0.4409448818897638,
                    "duration": 0.08846433333333437
                },
                {
                    "name": "D5",
                    "midi": 74,
                    "time": 32.643339000000054,
                    "velocity": 0.49606299212598426,
                    "duration": 0.13269650000000155
                },
                {
                    "name": "A5",
                    "midi": 81,
                    "time": 32.776035500000056,
                    "velocity": 0.4330708661417323,
                    "duration": 0.13269650000000155
                },
                {
                    "name": "C6",
                    "midi": 84,
                    "time": 32.90873200000006,
                    "velocity": 0.4645669291338583,
                    "duration": 0.13269650000000155
                },
                {
                    "name": "A5",
                    "midi": 81,
                    "time": 33.04142850000006,
                    "velocity": 0.4094488188976378,
                    "duration": 0.13269650000000155
                },
                {
                    "name": "B5",
                    "midi": 83,
                    "time": 33.17412500000006,
                    "velocity": 0.48031496062992124,
                    "duration": 0.13269650000000155
                },
                {
                    "name": "G5",
                    "midi": 79,
                    "time": 33.30682150000006,
                    "velocity": 0.4409448818897638,
                    "duration": 0.13269650000000155
                },
                {
                    "name": "A5",
                    "midi": 81,
                    "time": 33.439518000000064,
                    "velocity": 0.49606299212598426,
                    "duration": 0.2653930000000031
                },
                {
                    "name": "G5",
                    "midi": 79,
                    "time": 33.70491100000007,
                    "velocity": 0.4566929133858268,
                    "duration": 0.2653930000000031
                },
                {
                    "name": "F#5",
                    "midi": 78,
                    "time": 33.97030400000007,
                    "velocity": 0.41732283464566927,
                    "duration": 0.0530785999999992
                },
                {
                    "name": "G5",
                    "midi": 79,
                    "time": 34.02338260000007,
                    "velocity": 0.3779527559055118,
                    "duration": 0.0530785999999992
                },
                {
                    "name": "F#5",
                    "midi": 78,
                    "time": 34.07646120000007,
                    "velocity": 0.41732283464566927,
                    "duration": 0.0530785999999992
                },
                {
                    "name": "G5",
                    "midi": 79,
                    "time": 34.12953980000007,
                    "velocity": 0.3779527559055118,
                    "duration": 0.0530785999999992
                },
                {
                    "name": "F#5",
                    "midi": 78,
                    "time": 34.18261840000007,
                    "velocity": 0.3779527559055118,
                    "duration": 0.0530785999999992
                },
                {
                    "name": "B4",
                    "midi": 71,
                    "time": 34.235697000000066,
                    "velocity": 0.49606299212598426,
                    "duration": 0.5307859999999991
                },
                {
                    "name": "D5",
                    "midi": 74,
                    "time": 34.235697000000066,
                    "velocity": 0.49606299212598426,
                    "duration": 0.5307859999999991
                },
                {
                    "name": "G5",
                    "midi": 79,
                    "time": 34.235697000000066,
                    "velocity": 0.49606299212598426,
                    "duration": 0.5307859999999991
                },
                {
                    "name": "C6",
                    "midi": 84,
                    "time": 36.88962700000006,
                    "velocity": 0.49606299212598426,
                    "duration": 0.08846433333333437
                },
                {
                    "name": "B5",
                    "midi": 83,
                    "time": 36.978091333333396,
                    "velocity": 0.44881889763779526,
                    "duration": 0.08846433333333437
                },
                {
                    "name": "A5",
                    "midi": 81,
                    "time": 37.06655566666673,
                    "velocity": 0.44881889763779526,
                    "duration": 0.08846433333333437
                },
                {
                    "name": "G5",
                    "midi": 79,
                    "time": 37.155020000000064,
                    "velocity": 0.49606299212598426,
                    "duration": 0.08846433333333437
                },
                {
                    "name": "F#5",
                    "midi": 78,
                    "time": 37.2434843333334,
                    "velocity": 0.44881889763779526,
                    "duration": 0.08846433333333437
                },
                {
                    "name": "E5",
                    "midi": 76,
                    "time": 37.33194866666673,
                    "velocity": 0.4409448818897638,
                    "duration": 0.08846433333333437
                },
                {
                    "name": "D5",
                    "midi": 74,
                    "time": 37.42041300000007,
                    "velocity": 0.49606299212598426,
                    "duration": 0.13269650000000155
                },
                {
                    "name": "A5",
                    "midi": 81,
                    "time": 37.55310950000007,
                    "velocity": 0.4330708661417323,
                    "duration": 0.13269650000000155
                },
                {
                    "name": "C6",
                    "midi": 84,
                    "time": 37.68580600000007,
                    "velocity": 0.4645669291338583,
                    "duration": 0.13269650000000155
                },
                {
                    "name": "A5",
                    "midi": 81,
                    "time": 37.81850250000007,
                    "velocity": 0.4094488188976378,
                    "duration": 0.13269650000000155
                },
                {
                    "name": "B5",
                    "midi": 83,
                    "time": 37.951199000000074,
                    "velocity": 0.48031496062992124,
                    "duration": 0.13269650000000155
                },
                {
                    "name": "G5",
                    "midi": 79,
                    "time": 38.083895500000075,
                    "velocity": 0.4409448818897638,
                    "duration": 0.13269650000000155
                },
                {
                    "name": "A5",
                    "midi": 81,
                    "time": 38.21659200000008,
                    "velocity": 0.49606299212598426,
                    "duration": 0.2653930000000031
                },
                {
                    "name": "G5",
                    "midi": 79,
                    "time": 38.48198500000008,
                    "velocity": 0.4566929133858268,
                    "duration": 0.2653930000000031
                },
                {
                    "name": "F#5",
                    "midi": 78,
                    "time": 38.74737800000008,
                    "velocity": 0.41732283464566927,
                    "duration": 0.0530785999999992
                },
                {
                    "name": "G5",
                    "midi": 79,
                    "time": 38.80045660000008,
                    "velocity": 0.3779527559055118,
                    "duration": 0.0530785999999992
                },
                {
                    "name": "F#5",
                    "midi": 78,
                    "time": 38.85353520000008,
                    "velocity": 0.41732283464566927,
                    "duration": 0.0530785999999992
                },
                {
                    "name": "G5",
                    "midi": 79,
                    "time": 38.90661380000008,
                    "velocity": 0.3779527559055118,
                    "duration": 0.0530785999999992
                },
                {
                    "name": "F#5",
                    "midi": 78,
                    "time": 38.95969240000008,
                    "velocity": 0.3779527559055118,
                    "duration": 0.0530785999999992
                },
                {
                    "name": "B4",
                    "midi": 71,
                    "time": 39.01277100000008,
                    "velocity": 0.49606299212598426,
                    "duration": 0.5307859999999991
                },
                {
                    "name": "D5",
                    "midi": 74,
                    "time": 39.01277100000008,
                    "velocity": 0.49606299212598426,
                    "duration": 0.5307859999999991
                },
                {
                    "name": "G5",
                    "midi": 79,
                    "time": 39.01277100000008,
                    "velocity": 0.49606299212598426,
                    "duration": 0.5307859999999991
                },
                {
                    "name": "G5",
                    "midi": 79,
                    "time": 39.80895000000008,
                    "velocity": 0.5433070866141733,
                    "duration": 0.5307859999999991
                },
                {
                    "name": "B5",
                    "midi": 83,
                    "time": 40.33973600000008,
                    "velocity": 0.48031496062992124,
                    "duration": 0.08846433333333437
                },
                {
                    "name": "A5",
                    "midi": 81,
                    "time": 40.428200333333415,
                    "velocity": 0.4015748031496063,
                    "duration": 0.08846433333333437
                },
                {
                    "name": "G5",
                    "midi": 79,
                    "time": 40.51666466666675,
                    "velocity": 0.4015748031496063,
                    "duration": 0.08846433333333437
                },
                {
                    "name": "D6",
                    "midi": 86,
                    "time": 40.60512900000008,
                    "velocity": 0.5433070866141733,
                    "duration": 0.5307859999999991
                },
                {
                    "name": "F5",
                    "midi": 77,
                    "time": 41.13591500000008,
                    "velocity": 0.4094488188976378,
                    "duration": 0.2653930000000031
                },
                {
                    "name": "E5",
                    "midi": 76,
                    "time": 41.401308000000085,
                    "velocity": 0.47244094488188976,
                    "duration": 0.13269650000000155
                },
                {
                    "name": "G4",
                    "midi": 67,
                    "time": 41.53400450000009,
                    "velocity": 0.2755905511811024,
                    "duration": 0.13269650000000155
                },
                {
                    "name": "D5",
                    "midi": 74,
                    "time": 41.66670100000009,
                    "velocity": 0.47244094488188976,
                    "duration": 0.13269650000000155
                },
                {
                    "name": "G4",
                    "midi": 67,
                    "time": 41.79939750000009,
                    "velocity": 0.30708661417322836,
                    "duration": 0.13269650000000155
                },
                {
                    "name": "F5",
                    "midi": 77,
                    "time": 41.93209400000009,
                    "velocity": 0.47244094488188976,
                    "duration": 0.13269650000000155
                },
                {
                    "name": "G4",
                    "midi": 67,
                    "time": 42.06479050000009,
                    "velocity": 0.31496062992125984,
                    "duration": 0.13269650000000155
                },
                {
                    "name": "E5",
                    "midi": 76,
                    "time": 42.197487000000095,
                    "velocity": 0.47244094488188976,
                    "duration": 0.13269650000000155
                },
                {
                    "name": "G4",
                    "midi": 67,
                    "time": 42.330183500000096,
                    "velocity": 0.2755905511811024,
                    "duration": 0.13269650000000155
                },
                {
                    "name": "D5",
                    "midi": 74,
                    "time": 42.4628800000001,
                    "velocity": 0.47244094488188976,
                    "duration": 0.13269650000000155
                },
                {
                    "name": "G4",
                    "midi": 67,
                    "time": 42.5955765000001,
                    "velocity": 0.30708661417322836,
                    "duration": 0.13269650000000155
                },
                {
                    "name": "G5",
                    "midi": 79,
                    "time": 42.7282730000001,
                    "velocity": 0.48031496062992124,
                    "duration": 0.13269650000000155
                },
                {
                    "name": "G4",
                    "midi": 67,
                    "time": 42.8609695000001,
                    "velocity": 0.2992125984251969,
                    "duration": 0.13269650000000155
                },
                {
                    "name": "G5",
                    "midi": 79,
                    "time": 42.993666000000104,
                    "velocity": 0.49606299212598426,
                    "duration": 0.13269650000000155
                },
                {
                    "name": "G4",
                    "midi": 67,
                    "time": 43.126362500000106,
                    "velocity": 0.29133858267716534,
                    "duration": 0.13269650000000155
                },
                {
                    "name": "F5",
                    "midi": 77,
                    "time": 43.25905900000011,
                    "velocity": 0.47244094488188976,
                    "duration": 0.13269650000000155
                },
                {
                    "name": "G4",
                    "midi": 67,
                    "time": 43.39175550000011,
                    "velocity": 0.2992125984251969,
                    "duration": 0.13269650000000155
                },
                {
                    "name": "E5",
                    "midi": 76,
                    "time": 43.52445200000011,
                    "velocity": 0.4566929133858268,
                    "duration": 0.13269650000000155
                },
                {
                    "name": "G4",
                    "midi": 67,
                    "time": 43.65714850000011,
                    "velocity": 0.2992125984251969,
                    "duration": 0.13269650000000155
                },
                {
                    "name": "D5",
                    "midi": 74,
                    "time": 43.78984500000011,
                    "velocity": 0.47244094488188976,
                    "duration": 0.5307859999999991
                },
                {
                    "name": "G5",
                    "midi": 79,
                    "time": 44.586024000000116,
                    "velocity": 0.5433070866141733,
                    "duration": 0.5307859999999991
                },
                {
                    "name": "B5",
                    "midi": 83,
                    "time": 45.116810000000115,
                    "velocity": 0.48031496062992124,
                    "duration": 0.08846433333333437
                },
                {
                    "name": "A5",
                    "midi": 81,
                    "time": 45.20527433333345,
                    "velocity": 0.4015748031496063,
                    "duration": 0.08846433333333437
                },
                {
                    "name": "G5",
                    "midi": 79,
                    "time": 45.29373866666678,
                    "velocity": 0.4015748031496063,
                    "duration": 0.08846433333333437
                },
                {
                    "name": "D6",
                    "midi": 86,
                    "time": 45.38220300000012,
                    "velocity": 0.5433070866141733,
                    "duration": 0.5307859999999991
                },
                {
                    "name": "F5",
                    "midi": 77,
                    "time": 45.91298900000012,
                    "velocity": 0.3464566929133858,
                    "duration": 0.2653930000000031
                },
                {
                    "name": "D#5",
                    "midi": 75,
                    "time": 46.17838200000012,
                    "velocity": 0.4015748031496063,
                    "duration": 0.13269650000000155
                },
                {
                    "name": "G4",
                    "midi": 67,
                    "time": 46.31107850000012,
                    "velocity": 0.2283464566929134,
                    "duration": 0.13269650000000155
                },
                {
                    "name": "D5",
                    "midi": 74,
                    "time": 46.44377500000012,
                    "velocity": 0.4015748031496063,
                    "duration": 0.13269650000000155
                },
                {
                    "name": "G4",
                    "midi": 67,
                    "time": 46.576471500000125,
                    "velocity": 0.25984251968503935,
                    "duration": 0.13269650000000155
                },
                {
                    "name": "F5",
                    "midi": 77,
                    "time": 46.709168000000126,
                    "velocity": 0.4015748031496063,
                    "duration": 0.13269650000000155
                },
                {
                    "name": "G4",
                    "midi": 67,
                    "time": 46.84186450000013,
                    "velocity": 0.2677165354330709,
                    "duration": 0.13269650000000155
                },
                {
                    "name": "D#5",
                    "midi": 75,
                    "time": 46.97456100000013,
                    "velocity": 0.4015748031496063,
                    "duration": 0.13269650000000155
                },
                {
                    "name": "G4",
                    "midi": 67,
                    "time": 47.10725750000013,
                    "velocity": 0.2283464566929134,
                    "duration": 0.13269650000000155
                },
                {
                    "name": "D5",
                    "midi": 74,
                    "time": 47.23995400000013,
                    "velocity": 0.4015748031496063,
                    "duration": 0.13269650000000155
                },
                {
                    "name": "G4",
                    "midi": 67,
                    "time": 47.372650500000134,
                    "velocity": 0.25984251968503935,
                    "duration": 0.13269650000000155
                },
                {
                    "name": "G5",
                    "midi": 79,
                    "time": 47.505347000000135,
                    "velocity": 0.4015748031496063,
                    "duration": 0.13269650000000155
                },
                {
                    "name": "G4",
                    "midi": 67,
                    "time": 47.63804350000014,
                    "velocity": 0.25196850393700787,
                    "duration": 0.13269650000000155
                },
                {
                    "name": "G5",
                    "midi": 79,
                    "time": 47.77074000000014,
                    "velocity": 0.41732283464566927,
                    "duration": 0.13269650000000155
                },
                {
                    "name": "G4",
                    "midi": 67,
                    "time": 47.90343650000014,
                    "velocity": 0.2440944881889764,
                    "duration": 0.13269650000000155
                },
                {
                    "name": "F5",
                    "midi": 77,
                    "time": 48.03613300000014,
                    "velocity": 0.4015748031496063,
                    "duration": 0.13269650000000155
                },
                {
                    "name": "G4",
                    "midi": 67,
                    "time": 48.16882950000014,
                    "velocity": 0.25196850393700787,
                    "duration": 0.13269650000000155
                },
                {
                    "name": "D#5",
                    "midi": 75,
                    "time": 48.301526000000145,
                    "velocity": 0.3858267716535433,
                    "duration": 0.13269650000000155
                },
                {
                    "name": "G4",
                    "midi": 67,
                    "time": 48.434222500000146,
                    "velocity": 0.25196850393700787,
                    "duration": 0.13269650000000155
                },
                {
                    "name": "D5",
                    "midi": 74,
                    "time": 48.56691900000015,
                    "velocity": 0.4015748031496063,
                    "duration": 0.5307859999999991
                },
                {
                    "name": "C5",
                    "midi": 72,
                    "time": 49.36309800000015,
                    "velocity": 0.47244094488188976,
                    "duration": 0.5307859999999991
                },
                {
                    "name": "E5",
                    "midi": 76,
                    "time": 49.89388400000015,
                    "velocity": 0.4330708661417323,
                    "duration": 0.08846433333333437
                },
                {
                    "name": "D5",
                    "midi": 74,
                    "time": 49.98234833333348,
                    "velocity": 0.3858267716535433,
                    "duration": 0.08846433333333437
                },
                {
                    "name": "C5",
                    "midi": 72,
                    "time": 50.07081266666682,
                    "velocity": 0.3858267716535433,
                    "duration": 0.08846433333333437
                },
                {
                    "name": "G5",
                    "midi": 79,
                    "time": 50.15927700000015,
                    "velocity": 0.47244094488188976,
                    "duration": 0.5307859999999991
                },
                {
                    "name": "F5",
                    "midi": 77,
                    "time": 50.69006300000015,
                    "velocity": 0.4094488188976378,
                    "duration": 0.2653930000000031
                },
                {
                    "name": "E5",
                    "midi": 76,
                    "time": 50.955456000000154,
                    "velocity": 0.47244094488188976,
                    "duration": 0.5307859999999991
                },
                {
                    "name": "E5",
                    "midi": 76,
                    "time": 51.48624200000015,
                    "velocity": 0.47244094488188976,
                    "duration": 0.13269650000000155
                },
                {
                    "name": "G4",
                    "midi": 67,
                    "time": 51.618938500000155,
                    "velocity": 0.31496062992125984,
                    "duration": 0.13269650000000155
                },
                {
                    "name": "D5",
                    "midi": 74,
                    "time": 51.75163500000016,
                    "velocity": 0.47244094488188976,
                    "duration": 0.13269650000000155
                },
                {
                    "name": "G4",
                    "midi": 67,
                    "time": 51.88433150000016,
                    "velocity": 0.2755905511811024,
                    "duration": 0.13269650000000155
                },
                {
                    "name": "D5",
                    "midi": 74,
                    "time": 52.01702800000016,
                    "velocity": 0.47244094488188976,
                    "duration": 0.13269650000000155
                },
                {
                    "name": "G4",
                    "midi": 67,
                    "time": 52.14972450000016,
                    "velocity": 0.30708661417322836,
                    "duration": 0.13269650000000155
                },
                {
                    "name": "E5",
                    "midi": 76,
                    "time": 52.28242100000016,
                    "velocity": 0.48031496062992124,
                    "duration": 0.13269650000000155
                },
                {
                    "name": "G4",
                    "midi": 67,
                    "time": 52.415117500000164,
                    "velocity": 0.2992125984251969,
                    "duration": 0.13269650000000155
                },
                {
                    "name": "F5",
                    "midi": 77,
                    "time": 52.547814000000166,
                    "velocity": 0.49606299212598426,
                    "duration": 0.13269650000000155
                },
                {
                    "name": "G4",
                    "midi": 67,
                    "time": 52.68051050000017,
                    "velocity": 0.29133858267716534,
                    "duration": 0.13269650000000155
                },
                {
                    "name": "E5",
                    "midi": 76,
                    "time": 52.81320700000017,
                    "velocity": 0.47244094488188976,
                    "duration": 0.13269650000000155
                },
                {
                    "name": "G4",
                    "midi": 67,
                    "time": 52.94590350000017,
                    "velocity": 0.2992125984251969,
                    "duration": 0.13269650000000155
                },
                {
                    "name": "D5",
                    "midi": 74,
                    "time": 53.07860000000017,
                    "velocity": 0.4566929133858268,
                    "duration": 0.13269650000000155
                },
                {
                    "name": "G4",
                    "midi": 67,
                    "time": 53.211296500000174,
                    "velocity": 0.2992125984251969,
                    "duration": 0.13269650000000155
                },
                {
                    "name": "E5",
                    "midi": 76,
                    "time": 53.343993000000175,
                    "velocity": 0.47244094488188976,
                    "duration": 0.5307859999999991
                },
                {
                    "name": "F5",
                    "midi": 77,
                    "time": 55.99792300000017,
                    "velocity": 0.49606299212598426,
                    "duration": 0.08846433333333437
                },
                {
                    "name": "E5",
                    "midi": 76,
                    "time": 56.086387333333505,
                    "velocity": 0.44881889763779526,
                    "duration": 0.08846433333333437
                },
                {
                    "name": "D5",
                    "midi": 74,
                    "time": 56.17485166666684,
                    "velocity": 0.44881889763779526,
                    "duration": 0.08846433333333437
                },
                {
                    "name": "C5",
                    "midi": 72,
                    "time": 56.263316000000174,
                    "velocity": 0.49606299212598426,
                    "duration": 0.08846433333333437
                },
                {
                    "name": "B4",
                    "midi": 71,
                    "time": 56.35178033333351,
                    "velocity": 0.44881889763779526,
                    "duration": 0.08846433333333437
                },
                {
                    "name": "A4",
                    "midi": 69,
                    "time": 56.44024466666684,
                    "velocity": 0.4409448818897638,
                    "duration": 0.08846433333333437
                },
                {
                    "name": "G4",
                    "midi": 67,
                    "time": 56.52870900000018,
                    "velocity": 0.49606299212598426,
                    "duration": 0.13269650000000155
                },
                {
                    "name": "D5",
                    "midi": 74,
                    "time": 56.66140550000018,
                    "velocity": 0.4330708661417323,
                    "duration": 0.13269650000000155
                },
                {
                    "name": "F5",
                    "midi": 77,
                    "time": 56.79410200000018,
                    "velocity": 0.4645669291338583,
                    "duration": 0.13269650000000155
                },
                {
                    "name": "D5",
                    "midi": 74,
                    "time": 56.92679850000018,
                    "velocity": 0.4094488188976378,
                    "duration": 0.13269650000000155
                },
                {
                    "name": "E5",
                    "midi": 76,
                    "time": 57.05949500000018,
                    "velocity": 0.48031496062992124,
                    "duration": 0.13269650000000155
                },
                {
                    "name": "C5",
                    "midi": 72,
                    "time": 57.192191500000185,
                    "velocity": 0.4409448818897638,
                    "duration": 0.13269650000000155
                },
                {
                    "name": "D5",
                    "midi": 74,
                    "time": 57.324888000000186,
                    "velocity": 0.49606299212598426,
                    "duration": 0.2653930000000031
                },
                {
                    "name": "C5",
                    "midi": 72,
                    "time": 57.59028100000019,
                    "velocity": 0.4566929133858268,
                    "duration": 0.2653930000000031
                },
                {
                    "name": "B4",
                    "midi": 71,
                    "time": 57.85567400000019,
                    "velocity": 0.41732283464566927,
                    "duration": 0.0530785999999992
                },
                {
                    "name": "C5",
                    "midi": 72,
                    "time": 57.90875260000019,
                    "velocity": 0.3779527559055118,
                    "duration": 0.0530785999999992
                },
                {
                    "name": "B4",
                    "midi": 71,
                    "time": 57.96183120000019,
                    "velocity": 0.41732283464566927,
                    "duration": 0.0530785999999992
                },
                {
                    "name": "C5",
                    "midi": 72,
                    "time": 58.01490980000019,
                    "velocity": 0.3779527559055118,
                    "duration": 0.0530785999999992
                },
                {
                    "name": "B4",
                    "midi": 71,
                    "time": 58.06798840000019,
                    "velocity": 0.3779527559055118,
                    "duration": 0.0530785999999992
                },
                {
                    "name": "C5",
                    "midi": 72,
                    "time": 58.12106700000019,
                    "velocity": 0.49606299212598426,
                    "duration": 0.5307859999999991
                },
                {
                    "name": "F5",
                    "midi": 77,
                    "time": 60.774997000000184,
                    "velocity": 0.49606299212598426,
                    "duration": 0.08846433333333437
                },
                {
                    "name": "E5",
                    "midi": 76,
                    "time": 60.86346133333352,
                    "velocity": 0.44881889763779526,
                    "duration": 0.08846433333333437
                },
                {
                    "name": "D5",
                    "midi": 74,
                    "time": 60.95192566666685,
                    "velocity": 0.44881889763779526,
                    "duration": 0.08846433333333437
                },
                {
                    "name": "C5",
                    "midi": 72,
                    "time": 61.04039000000019,
                    "velocity": 0.49606299212598426,
                    "duration": 0.08846433333333437
                },
                {
                    "name": "B4",
                    "midi": 71,
                    "time": 61.12885433333352,
                    "velocity": 0.44881889763779526,
                    "duration": 0.08846433333333437
                },
                {
                    "name": "A4",
                    "midi": 69,
                    "time": 61.217318666666856,
                    "velocity": 0.4409448818897638,
                    "duration": 0.08846433333333437
                },
                {
                    "name": "G4",
                    "midi": 67,
                    "time": 61.30578300000019,
                    "velocity": 0.49606299212598426,
                    "duration": 0.13269650000000155
                },
                {
                    "name": "D5",
                    "midi": 74,
                    "time": 61.43847950000019,
                    "velocity": 0.4330708661417323,
                    "duration": 0.13269650000000155
                },
                {
                    "name": "F5",
                    "midi": 77,
                    "time": 61.57117600000019,
                    "velocity": 0.4645669291338583,
                    "duration": 0.13269650000000155
                },
                {
                    "name": "D5",
                    "midi": 74,
                    "time": 61.703872500000195,
                    "velocity": 0.4094488188976378,
                    "duration": 0.13269650000000155
                },
                {
                    "name": "E5",
                    "midi": 76,
                    "time": 61.836569000000196,
                    "velocity": 0.48031496062992124,
                    "duration": 0.13269650000000155
                },
                {
                    "name": "C5",
                    "midi": 72,
                    "time": 61.9692655000002,
                    "velocity": 0.4409448818897638,
                    "duration": 0.13269650000000155
                },
                {
                    "name": "D5",
                    "midi": 74,
                    "time": 62.1019620000002,
                    "velocity": 0.49606299212598426,
                    "duration": 0.2653930000000031
                },
                {
                    "name": "C5",
                    "midi": 72,
                    "time": 62.3673550000002,
                    "velocity": 0.4566929133858268,
                    "duration": 0.2653930000000031
                },
                {
                    "name": "B4",
                    "midi": 71,
                    "time": 62.632748000000205,
                    "velocity": 0.41732283464566927,
                    "duration": 0.0530785999999992
                },
                {
                    "name": "C5",
                    "midi": 72,
                    "time": 62.685826600000205,
                    "velocity": 0.3779527559055118,
                    "duration": 0.0530785999999992
                },
                {
                    "name": "B4",
                    "midi": 71,
                    "time": 62.738905200000204,
                    "velocity": 0.41732283464566927,
                    "duration": 0.0530785999999992
                },
                {
                    "name": "C5",
                    "midi": 72,
                    "time": 62.7919838000002,
                    "velocity": 0.3779527559055118,
                    "duration": 0.0530785999999992
                },
                {
                    "name": "B4",
                    "midi": 71,
                    "time": 62.8450624000002,
                    "velocity": 0.3779527559055118,
                    "duration": 0.0530785999999992
                },
                {
                    "name": "C5",
                    "midi": 72,
                    "time": 62.8981410000002,
                    "velocity": 0.49606299212598426,
                    "duration": 0.5307859999999991
                },
                {
                    "name": "G5",
                    "midi": 79,
                    "time": 63.694320000000204,
                    "velocity": 0.5433070866141733,
                    "duration": 0.5307860000000062
                },
                {
                    "name": "B5",
                    "midi": 83,
                    "time": 64.22510600000021,
                    "velocity": 0.48031496062992124,
                    "duration": 0.08846433333333437
                },
                {
                    "name": "A5",
                    "midi": 81,
                    "time": 64.31357033333354,
                    "velocity": 0.4015748031496063,
                    "duration": 0.08846433333333437
                },
                {
                    "name": "G5",
                    "midi": 79,
                    "time": 64.40203466666688,
                    "velocity": 0.4015748031496063,
                    "duration": 0.08846433333333437
                },
                {
                    "name": "D6",
                    "midi": 86,
                    "time": 64.49049900000021,
                    "velocity": 0.5433070866141733,
                    "duration": 0.5307860000000062
                },
                {
                    "name": "F5",
                    "midi": 77,
                    "time": 65.02128500000022,
                    "velocity": 0.4094488188976378,
                    "duration": 0.2653930000000031
                },
                {
                    "name": "E5",
                    "midi": 76,
                    "time": 65.28667800000022,
                    "velocity": 0.47244094488188976,
                    "duration": 0.13269649999999444
                },
                {
                    "name": "G4",
                    "midi": 67,
                    "time": 65.41937450000022,
                    "velocity": 0.2755905511811024,
                    "duration": 0.13269649999999444
                },
                {
                    "name": "D5",
                    "midi": 74,
                    "time": 65.55207100000021,
                    "velocity": 0.47244094488188976,
                    "duration": 0.13269649999999444
                },
                {
                    "name": "G4",
                    "midi": 67,
                    "time": 65.6847675000002,
                    "velocity": 0.30708661417322836,
                    "duration": 0.13269649999999444
                },
                {
                    "name": "F5",
                    "midi": 77,
                    "time": 65.8174640000002,
                    "velocity": 0.47244094488188976,
                    "duration": 0.13269649999999444
                },
                {
                    "name": "G4",
                    "midi": 67,
                    "time": 65.9501605000002,
                    "velocity": 0.31496062992125984,
                    "duration": 0.13269649999999444
                },
                {
                    "name": "E5",
                    "midi": 76,
                    "time": 66.08285700000019,
                    "velocity": 0.47244094488188976,
                    "duration": 0.13269649999999444
                },
                {
                    "name": "G4",
                    "midi": 67,
                    "time": 66.21555350000018,
                    "velocity": 0.2755905511811024,
                    "duration": 0.13269649999999444
                },
                {
                    "name": "D5",
                    "midi": 74,
                    "time": 66.34825000000018,
                    "velocity": 0.47244094488188976,
                    "duration": 0.13269649999999444
                },
                {
                    "name": "G4",
                    "midi": 67,
                    "time": 66.48094650000017,
                    "velocity": 0.30708661417322836,
                    "duration": 0.13269649999999444
                },
                {
                    "name": "G5",
                    "midi": 79,
                    "time": 66.61364300000017,
                    "velocity": 0.48031496062992124,
                    "duration": 0.13269649999999444
                },
                {
                    "name": "G4",
                    "midi": 67,
                    "time": 66.74633950000016,
                    "velocity": 0.2992125984251969,
                    "duration": 0.13269649999999444
                },
                {
                    "name": "G5",
                    "midi": 79,
                    "time": 66.87903600000016,
                    "velocity": 0.49606299212598426,
                    "duration": 0.13269649999999444
                },
                {
                    "name": "G4",
                    "midi": 67,
                    "time": 67.01173250000015,
                    "velocity": 0.29133858267716534,
                    "duration": 0.13269649999999444
                },
                {
                    "name": "F5",
                    "midi": 77,
                    "time": 67.14442900000014,
                    "velocity": 0.47244094488188976,
                    "duration": 0.13269649999999444
                },
                {
                    "name": "G4",
                    "midi": 67,
                    "time": 67.27712550000014,
                    "velocity": 0.2992125984251969,
                    "duration": 0.13269649999999444
                },
                {
                    "name": "E5",
                    "midi": 76,
                    "time": 67.40982200000013,
                    "velocity": 0.4566929133858268,
                    "duration": 0.13269649999999444
                },
                {
                    "name": "G4",
                    "midi": 67,
                    "time": 67.54251850000013,
                    "velocity": 0.2992125984251969,
                    "duration": 0.13269649999999444
                },
                {
                    "name": "D5",
                    "midi": 74,
                    "time": 67.67521500000012,
                    "velocity": 0.47244094488188976,
                    "duration": 0.5307860000000062
                },
                {
                    "name": "G5",
                    "midi": 79,
                    "time": 68.47139400000013,
                    "velocity": 0.5433070866141733,
                    "duration": 0.5307860000000062
                },
                {
                    "name": "B5",
                    "midi": 83,
                    "time": 69.00218000000014,
                    "velocity": 0.48031496062992124,
                    "duration": 0.08846433333333437
                },
                {
                    "name": "A5",
                    "midi": 81,
                    "time": 69.09064433333347,
                    "velocity": 0.4015748031496063,
                    "duration": 0.08846433333333437
                },
                {
                    "name": "G5",
                    "midi": 79,
                    "time": 69.1791086666668,
                    "velocity": 0.4015748031496063,
                    "duration": 0.08846433333333437
                },
                {
                    "name": "D6",
                    "midi": 86,
                    "time": 69.26757300000014,
                    "velocity": 0.5433070866141733,
                    "duration": 0.5307860000000062
                },
                {
                    "name": "F5",
                    "midi": 77,
                    "time": 69.79835900000015,
                    "velocity": 0.3464566929133858,
                    "duration": 0.2653930000000031
                },
                {
                    "name": "D#5",
                    "midi": 75,
                    "time": 70.06375200000015,
                    "velocity": 0.4015748031496063,
                    "duration": 0.13269649999999444
                },
                {
                    "name": "G4",
                    "midi": 67,
                    "time": 70.19644850000014,
                    "velocity": 0.2283464566929134,
                    "duration": 0.13269649999999444
                },
                {
                    "name": "D5",
                    "midi": 74,
                    "time": 70.32914500000014,
                    "velocity": 0.4015748031496063,
                    "duration": 0.13269649999999444
                },
                {
                    "name": "G4",
                    "midi": 67,
                    "time": 70.46184150000013,
                    "velocity": 0.25984251968503935,
                    "duration": 0.13269649999999444
                },
                {
                    "name": "F5",
                    "midi": 77,
                    "time": 70.59453800000013,
                    "velocity": 0.4015748031496063,
                    "duration": 0.13269649999999444
                },
                {
                    "name": "G4",
                    "midi": 67,
                    "time": 70.72723450000012,
                    "velocity": 0.2677165354330709,
                    "duration": 0.13269649999999444
                },
                {
                    "name": "D#5",
                    "midi": 75,
                    "time": 70.85993100000012,
                    "velocity": 0.4015748031496063,
                    "duration": 0.13269649999999444
                },
                {
                    "name": "G4",
                    "midi": 67,
                    "time": 70.99262750000011,
                    "velocity": 0.2283464566929134,
                    "duration": 0.13269649999999444
                },
                {
                    "name": "D5",
                    "midi": 74,
                    "time": 71.1253240000001,
                    "velocity": 0.4015748031496063,
                    "duration": 0.13269649999999444
                },
                {
                    "name": "G4",
                    "midi": 67,
                    "time": 71.2580205000001,
                    "velocity": 0.25984251968503935,
                    "duration": 0.13269649999999444
                },
                {
                    "name": "G5",
                    "midi": 79,
                    "time": 71.3907170000001,
                    "velocity": 0.4015748031496063,
                    "duration": 0.13269649999999444
                },
                {
                    "name": "G4",
                    "midi": 67,
                    "time": 71.52341350000009,
                    "velocity": 0.25196850393700787,
                    "duration": 0.13269649999999444
                },
                {
                    "name": "G5",
                    "midi": 79,
                    "time": 71.65611000000008,
                    "velocity": 0.41732283464566927,
                    "duration": 0.13269649999999444
                },
                {
                    "name": "G4",
                    "midi": 67,
                    "time": 71.78880650000008,
                    "velocity": 0.2440944881889764,
                    "duration": 0.13269649999999444
                },
                {
                    "name": "F5",
                    "midi": 77,
                    "time": 71.92150300000007,
                    "velocity": 0.4015748031496063,
                    "duration": 0.13269649999999444
                },
                {
                    "name": "G4",
                    "midi": 67,
                    "time": 72.05419950000007,
                    "velocity": 0.25196850393700787,
                    "duration": 0.13269649999999444
                },
                {
                    "name": "D#5",
                    "midi": 75,
                    "time": 72.18689600000006,
                    "velocity": 0.3858267716535433,
                    "duration": 0.13269649999999444
                },
                {
                    "name": "G4",
                    "midi": 67,
                    "time": 72.31959250000006,
                    "velocity": 0.25196850393700787,
                    "duration": 0.13269649999999444
                },
                {
                    "name": "D5",
                    "midi": 74,
                    "time": 72.45228900000005,
                    "velocity": 0.4015748031496063,
                    "duration": 0.5307860000000062
                },
                {
                    "name": "C5",
                    "midi": 72,
                    "time": 73.24846800000006,
                    "velocity": 0.47244094488188976,
                    "duration": 0.5307860000000062
                },
                {
                    "name": "E5",
                    "midi": 76,
                    "time": 73.77925400000007,
                    "velocity": 0.4330708661417323,
                    "duration": 0.08846433333333437
                },
                {
                    "name": "D5",
                    "midi": 74,
                    "time": 73.8677183333334,
                    "velocity": 0.3858267716535433,
                    "duration": 0.08846433333333437
                },
                {
                    "name": "C5",
                    "midi": 72,
                    "time": 73.95618266666673,
                    "velocity": 0.3858267716535433,
                    "duration": 0.08846433333333437
                },
                {
                    "name": "G5",
                    "midi": 79,
                    "time": 74.04464700000007,
                    "velocity": 0.47244094488188976,
                    "duration": 0.5307860000000062
                },
                {
                    "name": "F5",
                    "midi": 77,
                    "time": 74.57543300000007,
                    "velocity": 0.4094488188976378,
                    "duration": 0.2653930000000031
                },
                {
                    "name": "E5",
                    "midi": 76,
                    "time": 74.84082600000008,
                    "velocity": 0.47244094488188976,
                    "duration": 0.5307860000000062
                },
                {
                    "name": "E5",
                    "midi": 76,
                    "time": 75.37161200000008,
                    "velocity": 0.47244094488188976,
                    "duration": 0.13269649999999444
                },
                {
                    "name": "G4",
                    "midi": 67,
                    "time": 75.50430850000008,
                    "velocity": 0.31496062992125984,
                    "duration": 0.13269649999999444
                },
                {
                    "name": "D5",
                    "midi": 74,
                    "time": 75.63700500000007,
                    "velocity": 0.47244094488188976,
                    "duration": 0.13269649999999444
                },
                {
                    "name": "G4",
                    "midi": 67,
                    "time": 75.76970150000007,
                    "velocity": 0.2755905511811024,
                    "duration": 0.13269649999999444
                },
                {
                    "name": "D5",
                    "midi": 74,
                    "time": 75.90239800000006,
                    "velocity": 0.47244094488188976,
                    "duration": 0.13269649999999444
                },
                {
                    "name": "G4",
                    "midi": 67,
                    "time": 76.03509450000006,
                    "velocity": 0.30708661417322836,
                    "duration": 0.13269649999999444
                },
                {
                    "name": "E5",
                    "midi": 76,
                    "time": 76.16779100000005,
                    "velocity": 0.48031496062992124,
                    "duration": 0.13269649999999444
                },
                {
                    "name": "G4",
                    "midi": 67,
                    "time": 76.30048750000005,
                    "velocity": 0.2992125984251969,
                    "duration": 0.13269649999999444
                },
                {
                    "name": "F5",
                    "midi": 77,
                    "time": 76.43318400000004,
                    "velocity": 0.49606299212598426,
                    "duration": 0.13269649999999444
                },
                {
                    "name": "G4",
                    "midi": 67,
                    "time": 76.56588050000003,
                    "velocity": 0.29133858267716534,
                    "duration": 0.13269649999999444
                },
                {
                    "name": "E5",
                    "midi": 76,
                    "time": 76.69857700000003,
                    "velocity": 0.47244094488188976,
                    "duration": 0.13269649999999444
                },
                {
                    "name": "G4",
                    "midi": 67,
                    "time": 76.83127350000002,
                    "velocity": 0.2992125984251969,
                    "duration": 0.13269649999999444
                },
                {
                    "name": "D5",
                    "midi": 74,
                    "time": 76.96397000000002,
                    "velocity": 0.4566929133858268,
                    "duration": 0.13269649999999444
                },
                {
                    "name": "G4",
                    "midi": 67,
                    "time": 77.09666650000001,
                    "velocity": 0.2992125984251969,
                    "duration": 0.13269649999999444
                },
                {
                    "name": "E5",
                    "midi": 76,
                    "time": 77.229363,
                    "velocity": 0.47244094488188976,
                    "duration": 0.5307860000000062
                },
                {
                    "name": "F5",
                    "midi": 77,
                    "time": 79.88329300000001,
                    "velocity": 0.49606299212598426,
                    "duration": 0.08846433333333437
                },
                {
                    "name": "E5",
                    "midi": 76,
                    "time": 79.97175733333334,
                    "velocity": 0.44881889763779526,
                    "duration": 0.08846433333333437
                },
                {
                    "name": "D5",
                    "midi": 74,
                    "time": 80.06022166666668,
                    "velocity": 0.44881889763779526,
                    "duration": 0.08846433333333437
                },
                {
                    "name": "C5",
                    "midi": 72,
                    "time": 80.14868600000001,
                    "velocity": 0.49606299212598426,
                    "duration": 0.08846433333333437
                },
                {
                    "name": "B4",
                    "midi": 71,
                    "time": 80.23715033333335,
                    "velocity": 0.44881889763779526,
                    "duration": 0.08846433333333437
                },
                {
                    "name": "A4",
                    "midi": 69,
                    "time": 80.32561466666668,
                    "velocity": 0.4409448818897638,
                    "duration": 0.08846433333333437
                },
                {
                    "name": "G4",
                    "midi": 67,
                    "time": 80.41407900000002,
                    "velocity": 0.49606299212598426,
                    "duration": 0.13269649999999444
                },
                {
                    "name": "D5",
                    "midi": 74,
                    "time": 80.54677550000001,
                    "velocity": 0.4330708661417323,
                    "duration": 0.13269649999999444
                },
                {
                    "name": "F5",
                    "midi": 77,
                    "time": 80.679472,
                    "velocity": 0.4645669291338583,
                    "duration": 0.13269649999999444
                },
                {
                    "name": "D5",
                    "midi": 74,
                    "time": 80.8121685,
                    "velocity": 0.4094488188976378,
                    "duration": 0.13269649999999444
                },
                {
                    "name": "E5",
                    "midi": 76,
                    "time": 80.944865,
                    "velocity": 0.48031496062992124,
                    "duration": 0.13269649999999444
                },
                {
                    "name": "C5",
                    "midi": 72,
                    "time": 81.07756149999999,
                    "velocity": 0.4409448818897638,
                    "duration": 0.13269649999999444
                },
                {
                    "name": "D5",
                    "midi": 74,
                    "time": 81.21025799999998,
                    "velocity": 0.49606299212598426,
                    "duration": 0.2653930000000031
                },
                {
                    "name": "C5",
                    "midi": 72,
                    "time": 81.47565099999998,
                    "velocity": 0.4566929133858268,
                    "duration": 0.2653930000000031
                },
                {
                    "name": "B4",
                    "midi": 71,
                    "time": 81.74104399999999,
                    "velocity": 0.41732283464566927,
                    "duration": 0.053078600000006304
                },
                {
                    "name": "C5",
                    "midi": 72,
                    "time": 81.7941226,
                    "velocity": 0.3779527559055118,
                    "duration": 0.053078600000006304
                },
                {
                    "name": "B4",
                    "midi": 71,
                    "time": 81.8472012,
                    "velocity": 0.41732283464566927,
                    "duration": 0.053078600000006304
                },
                {
                    "name": "C5",
                    "midi": 72,
                    "time": 81.9002798,
                    "velocity": 0.3779527559055118,
                    "duration": 0.053078600000006304
                },
                {
                    "name": "B4",
                    "midi": 71,
                    "time": 81.95335840000001,
                    "velocity": 0.3779527559055118,
                    "duration": 0.053078600000006304
                },
                {
                    "name": "C5",
                    "midi": 72,
                    "time": 82.00643700000002,
                    "velocity": 0.49606299212598426,
                    "duration": 0.5307860000000062
                },
                {
                    "name": "F5",
                    "midi": 77,
                    "time": 84.66036700000002,
                    "velocity": 0.49606299212598426,
                    "duration": 0.08846433333333437
                },
                {
                    "name": "E5",
                    "midi": 76,
                    "time": 84.74883133333336,
                    "velocity": 0.44881889763779526,
                    "duration": 0.08846433333333437
                },
                {
                    "name": "D5",
                    "midi": 74,
                    "time": 84.83729566666669,
                    "velocity": 0.44881889763779526,
                    "duration": 0.08846433333333437
                },
                {
                    "name": "C5",
                    "midi": 72,
                    "time": 84.92576000000003,
                    "velocity": 0.49606299212598426,
                    "duration": 0.08846433333333437
                },
                {
                    "name": "B4",
                    "midi": 71,
                    "time": 85.01422433333336,
                    "velocity": 0.44881889763779526,
                    "duration": 0.08846433333333437
                },
                {
                    "name": "A4",
                    "midi": 69,
                    "time": 85.1026886666667,
                    "velocity": 0.4409448818897638,
                    "duration": 0.08846433333333437
                },
                {
                    "name": "G4",
                    "midi": 67,
                    "time": 85.19115300000003,
                    "velocity": 0.49606299212598426,
                    "duration": 0.13269649999999444
                },
                {
                    "name": "D5",
                    "midi": 74,
                    "time": 85.32384950000002,
                    "velocity": 0.4330708661417323,
                    "duration": 0.13269649999999444
                },
                {
                    "name": "F5",
                    "midi": 77,
                    "time": 85.45654600000002,
                    "velocity": 0.4645669291338583,
                    "duration": 0.13269649999999444
                },
                {
                    "name": "D5",
                    "midi": 74,
                    "time": 85.58924250000001,
                    "velocity": 0.4094488188976378,
                    "duration": 0.13269649999999444
                },
                {
                    "name": "E5",
                    "midi": 76,
                    "time": 85.721939,
                    "velocity": 0.48031496062992124,
                    "duration": 0.13269649999999444
                },
                {
                    "name": "C5",
                    "midi": 72,
                    "time": 85.8546355,
                    "velocity": 0.4409448818897638,
                    "duration": 0.13269649999999444
                },
                {
                    "name": "D5",
                    "midi": 74,
                    "time": 85.987332,
                    "velocity": 0.49606299212598426,
                    "duration": 0.2653930000000031
                },
                {
                    "name": "C5",
                    "midi": 72,
                    "time": 86.252725,
                    "velocity": 0.4566929133858268,
                    "duration": 0.2653930000000031
                },
                {
                    "name": "B4",
                    "midi": 71,
                    "time": 86.518118,
                    "velocity": 0.41732283464566927,
                    "duration": 0.053078600000006304
                },
                {
                    "name": "C5",
                    "midi": 72,
                    "time": 86.57119660000001,
                    "velocity": 0.3779527559055118,
                    "duration": 0.053078600000006304
                },
                {
                    "name": "B4",
                    "midi": 71,
                    "time": 86.62427520000001,
                    "velocity": 0.41732283464566927,
                    "duration": 0.053078600000006304
                },
                {
                    "name": "C5",
                    "midi": 72,
                    "time": 86.67735380000002,
                    "velocity": 0.3779527559055118,
                    "duration": 0.053078600000006304
                },
                {
                    "name": "B4",
                    "midi": 71,
                    "time": 86.73043240000003,
                    "velocity": 0.3779527559055118,
                    "duration": 0.053078600000006304
                },
                {
                    "name": "C5",
                    "midi": 72,
                    "time": 86.78351100000003,
                    "velocity": 0.49606299212598426,
                    "duration": 0.5307860000000062
                }
            ],
            "controlChanges": {},
            "id": 1,
            "name": "Piano right",
            "instrumentNumber": 0,
            "instrument": "acoustic grand piano",
            "instrumentFamily": "piano",
            "channelNumber": 0,
            "isPercussion": false
        },
        {
            "startTime": 0,
            "duration": 87.31429700000004,
            "length": 436,
            "notes": [
                {
                    "name": "C4",
                    "midi": 60,
                    "time": 0,
                    "velocity": 0.31496062992125984,
                    "duration": 0.1326965
                },
                {
                    "name": "G4",
                    "midi": 67,
                    "time": 0.1326965,
                    "velocity": 0.25196850393700787,
                    "duration": 0.1326965
                },
                {
                    "name": "E4",
                    "midi": 64,
                    "time": 0.265393,
                    "velocity": 0.31496062992125984,
                    "duration": 0.1326965
                },
                {
                    "name": "G4",
                    "midi": 67,
                    "time": 0.3980895,
                    "velocity": 0.25196850393700787,
                    "duration": 0.1326965
                },
                {
                    "name": "C4",
                    "midi": 60,
                    "time": 0.530786,
                    "velocity": 0.31496062992125984,
                    "duration": 0.1326965
                },
                {
                    "name": "G4",
                    "midi": 67,
                    "time": 0.6634825,
                    "velocity": 0.25984251968503935,
                    "duration": 0.1326965
                },
                {
                    "name": "B3",
                    "midi": 59,
                    "time": 0.796179,
                    "velocity": 0.31496062992125984,
                    "duration": 0.1326965
                },
                {
                    "name": "G4",
                    "midi": 67,
                    "time": 0.9288755,
                    "velocity": 0.25196850393700787,
                    "duration": 0.1326965
                },
                {
                    "name": "D4",
                    "midi": 62,
                    "time": 1.061572,
                    "velocity": 0.29133858267716534,
                    "duration": 0.1326965
                },
                {
                    "name": "G4",
                    "midi": 67,
                    "time": 1.1942685,
                    "velocity": 0.25984251968503935,
                    "duration": 0.1326965
                },
                {
                    "name": "B3",
                    "midi": 59,
                    "time": 1.326965,
                    "velocity": 0.31496062992125984,
                    "duration": 0.1326965
                },
                {
                    "name": "G4",
                    "midi": 67,
                    "time": 1.4596615,
                    "velocity": 0.2755905511811024,
                    "duration": 0.1326965
                },
                {
                    "name": "C4",
                    "midi": 60,
                    "time": 1.592358,
                    "velocity": 0.31496062992125984,
                    "duration": 0.530786
                },
                {
                    "name": "C4",
                    "midi": 60,
                    "time": 2.123144,
                    "velocity": 0.28346456692913385,
                    "duration": 0.265393
                },
                {
                    "name": "B3",
                    "midi": 59,
                    "time": 2.388537,
                    "velocity": 0.31496062992125984,
                    "duration": 0.530786
                },
                {
                    "name": "C4",
                    "midi": 60,
                    "time": 2.919323,
                    "velocity": 0.33858267716535434,
                    "duration": 0.265393
                },
                {
                    "name": "D4",
                    "midi": 62,
                    "time": 3.184716,
                    "velocity": 0.3779527559055118,
                    "duration": 0.265393
                },
                {
                    "name": "C4",
                    "midi": 60,
                    "time": 3.450109,
                    "velocity": 0.3543307086614173,
                    "duration": 0.265393
                },
                {
                    "name": "B3",
                    "midi": 59,
                    "time": 3.715502,
                    "velocity": 0.31496062992125984,
                    "duration": 0.265393
                },
                {
                    "name": "C4",
                    "midi": 60,
                    "time": 3.980895,
                    "velocity": 0.33858267716535434,
                    "duration": 0.5307859999999995
                },
                {
                    "name": "C4",
                    "midi": 60,
                    "time": 4.777073999999999,
                    "velocity": 0.31496062992125984,
                    "duration": 0.13269649999999977
                },
                {
                    "name": "G4",
                    "midi": 67,
                    "time": 4.909770499999999,
                    "velocity": 0.25196850393700787,
                    "duration": 0.13269649999999977
                },
                {
                    "name": "E4",
                    "midi": 64,
                    "time": 5.0424669999999985,
                    "velocity": 0.31496062992125984,
                    "duration": 0.13269649999999977
                },
                {
                    "name": "G4",
                    "midi": 67,
                    "time": 5.175163499999998,
                    "velocity": 0.25196850393700787,
                    "duration": 0.13269649999999977
                },
                {
                    "name": "C4",
                    "midi": 60,
                    "time": 5.307859999999998,
                    "velocity": 0.31496062992125984,
                    "duration": 0.13269649999999977
                },
                {
                    "name": "G4",
                    "midi": 67,
                    "time": 5.440556499999998,
                    "velocity": 0.25984251968503935,
                    "duration": 0.13269649999999977
                },
                {
                    "name": "B3",
                    "midi": 59,
                    "time": 5.573252999999998,
                    "velocity": 0.31496062992125984,
                    "duration": 0.13269649999999977
                },
                {
                    "name": "G4",
                    "midi": 67,
                    "time": 5.705949499999997,
                    "velocity": 0.25196850393700787,
                    "duration": 0.13269649999999977
                },
                {
                    "name": "D4",
                    "midi": 62,
                    "time": 5.838645999999997,
                    "velocity": 0.29133858267716534,
                    "duration": 0.13269649999999977
                },
                {
                    "name": "G4",
                    "midi": 67,
                    "time": 5.971342499999997,
                    "velocity": 0.25984251968503935,
                    "duration": 0.13269649999999977
                },
                {
                    "name": "B3",
                    "midi": 59,
                    "time": 6.104038999999997,
                    "velocity": 0.31496062992125984,
                    "duration": 0.13269649999999977
                },
                {
                    "name": "G4",
                    "midi": 67,
                    "time": 6.236735499999996,
                    "velocity": 0.2755905511811024,
                    "duration": 0.13269649999999977
                },
                {
                    "name": "C4",
                    "midi": 60,
                    "time": 6.369431999999996,
                    "velocity": 0.31496062992125984,
                    "duration": 0.530786
                },
                {
                    "name": "C4",
                    "midi": 60,
                    "time": 6.900217999999996,
                    "velocity": 0.28346456692913385,
                    "duration": 0.26539300000000043
                },
                {
                    "name": "B3",
                    "midi": 59,
                    "time": 7.165610999999997,
                    "velocity": 0.31496062992125984,
                    "duration": 0.530786
                },
                {
                    "name": "C4",
                    "midi": 60,
                    "time": 7.696396999999997,
                    "velocity": 0.33858267716535434,
                    "duration": 0.26539300000000043
                },
                {
                    "name": "B3",
                    "midi": 59,
                    "time": 7.961789999999997,
                    "velocity": 0.3779527559055118,
                    "duration": 0.5307859999999991
                },
                {
                    "name": "E3",
                    "midi": 52,
                    "time": 8.492575999999996,
                    "velocity": 0.31496062992125984,
                    "duration": 0.26539299999999955
                },
                {
                    "name": "D3",
                    "midi": 50,
                    "time": 8.757968999999996,
                    "velocity": 0.3937007874015748,
                    "duration": 0.5307859999999991
                },
                {
                    "name": "D2",
                    "midi": 38,
                    "time": 9.288754999999995,
                    "velocity": 0.31496062992125984,
                    "duration": 0.26539299999999955
                },
                {
                    "name": "G2",
                    "midi": 43,
                    "time": 9.554147999999994,
                    "velocity": 0.4881889763779528,
                    "duration": 0.13269649999999977
                },
                {
                    "name": "G3",
                    "midi": 55,
                    "time": 9.686844499999994,
                    "velocity": 0.3779527559055118,
                    "duration": 0.13269649999999977
                },
                {
                    "name": "A2",
                    "midi": 45,
                    "time": 9.819540999999994,
                    "velocity": 0.44881889763779526,
                    "duration": 0.13269649999999977
                },
                {
                    "name": "A3",
                    "midi": 57,
                    "time": 9.952237499999994,
                    "velocity": 0.3858267716535433,
                    "duration": 0.13269649999999977
                },
                {
                    "name": "B2",
                    "midi": 47,
                    "time": 10.084933999999993,
                    "velocity": 0.47244094488188976,
                    "duration": 0.13269649999999977
                },
                {
                    "name": "B3",
                    "midi": 59,
                    "time": 10.217630499999993,
                    "velocity": 0.3937007874015748,
                    "duration": 0.13269649999999977
                },
                {
                    "name": "A2",
                    "midi": 45,
                    "time": 10.350326999999993,
                    "velocity": 0.4881889763779528,
                    "duration": 0.13269649999999977
                },
                {
                    "name": "A3",
                    "midi": 57,
                    "time": 10.483023499999993,
                    "velocity": 0.4015748031496063,
                    "duration": 0.13269649999999977
                },
                {
                    "name": "B2",
                    "midi": 47,
                    "time": 10.615719999999992,
                    "velocity": 0.4881889763779528,
                    "duration": 0.13269649999999977
                },
                {
                    "name": "B3",
                    "midi": 59,
                    "time": 10.748416499999992,
                    "velocity": 0.4094488188976378,
                    "duration": 0.13269649999999977
                },
                {
                    "name": "C3",
                    "midi": 48,
                    "time": 10.881112999999992,
                    "velocity": 0.5196850393700787,
                    "duration": 0.13269649999999977
                },
                {
                    "name": "C4",
                    "midi": 60,
                    "time": 11.013809499999992,
                    "velocity": 0.4330708661417323,
                    "duration": 0.13269649999999977
                },
                {
                    "name": "B2",
                    "midi": 47,
                    "time": 11.146505999999992,
                    "velocity": 0.5196850393700787,
                    "duration": 0.13269649999999977
                },
                {
                    "name": "B3",
                    "midi": 59,
                    "time": 11.279202499999991,
                    "velocity": 0.4330708661417323,
                    "duration": 0.13269649999999977
                },
                {
                    "name": "C3",
                    "midi": 48,
                    "time": 11.411898999999991,
                    "velocity": 0.5196850393700787,
                    "duration": 0.13269649999999977
                },
                {
                    "name": "C4",
                    "midi": 60,
                    "time": 11.544595499999991,
                    "velocity": 0.44881889763779526,
                    "duration": 0.13269649999999977
                },
                {
                    "name": "D3",
                    "midi": 50,
                    "time": 11.67729199999999,
                    "velocity": 0.5433070866141733,
                    "duration": 0.13269649999999977
                },
                {
                    "name": "D4",
                    "midi": 62,
                    "time": 11.80998849999999,
                    "velocity": 0.4881889763779528,
                    "duration": 0.13269649999999977
                },
                {
                    "name": "E3",
                    "midi": 52,
                    "time": 11.94268499999999,
                    "velocity": 0.4881889763779528,
                    "duration": 0.5307859999999991
                },
                {
                    "name": "E4",
                    "midi": 64,
                    "time": 11.94268499999999,
                    "velocity": 0.5590551181102362,
                    "duration": 0.5307859999999991
                },
                {
                    "name": "F#3",
                    "midi": 54,
                    "time": 12.738863999999989,
                    "velocity": 0.3937007874015748,
                    "duration": 0.5307859999999991
                },
                {
                    "name": "G3",
                    "midi": 55,
                    "time": 13.269649999999988,
                    "velocity": 0.36220472440944884,
                    "duration": 0.26539299999999955
                },
                {
                    "name": "C4",
                    "midi": 60,
                    "time": 13.535042999999988,
                    "velocity": 0.3937007874015748,
                    "duration": 0.26539299999999955
                },
                {
                    "name": "D4",
                    "midi": 62,
                    "time": 13.800435999999987,
                    "velocity": 0.33070866141732286,
                    "duration": 0.26539299999999955
                },
                {
                    "name": "D3",
                    "midi": 50,
                    "time": 14.065828999999987,
                    "velocity": 0.33070866141732286,
                    "duration": 0.26539299999999955
                },
                {
                    "name": "G2",
                    "midi": 43,
                    "time": 14.331221999999986,
                    "velocity": 0.4881889763779528,
                    "duration": 0.13269649999999977
                },
                {
                    "name": "G3",
                    "midi": 55,
                    "time": 14.463918499999986,
                    "velocity": 0.3779527559055118,
                    "duration": 0.13269649999999977
                },
                {
                    "name": "A2",
                    "midi": 45,
                    "time": 14.596614999999986,
                    "velocity": 0.44881889763779526,
                    "duration": 0.13269649999999977
                },
                {
                    "name": "A3",
                    "midi": 57,
                    "time": 14.729311499999985,
                    "velocity": 0.3858267716535433,
                    "duration": 0.13269649999999977
                },
                {
                    "name": "B2",
                    "midi": 47,
                    "time": 14.862007999999985,
                    "velocity": 0.47244094488188976,
                    "duration": 0.13269649999999977
                },
                {
                    "name": "B3",
                    "midi": 59,
                    "time": 14.994704499999985,
                    "velocity": 0.3937007874015748,
                    "duration": 0.13269649999999977
                },
                {
                    "name": "A2",
                    "midi": 45,
                    "time": 15.127400999999985,
                    "velocity": 0.4881889763779528,
                    "duration": 0.13269649999999977
                },
                {
                    "name": "A3",
                    "midi": 57,
                    "time": 15.260097499999985,
                    "velocity": 0.4015748031496063,
                    "duration": 0.13269649999999977
                },
                {
                    "name": "B2",
                    "midi": 47,
                    "time": 15.392793999999984,
                    "velocity": 0.4881889763779528,
                    "duration": 0.13269649999999977
                },
                {
                    "name": "B3",
                    "midi": 59,
                    "time": 15.525490499999984,
                    "velocity": 0.4094488188976378,
                    "duration": 0.13269649999999977
                },
                {
                    "name": "C3",
                    "midi": 48,
                    "time": 15.658186999999984,
                    "velocity": 0.5196850393700787,
                    "duration": 0.13269649999999977
                },
                {
                    "name": "C4",
                    "midi": 60,
                    "time": 15.790883499999984,
                    "velocity": 0.4330708661417323,
                    "duration": 0.13269649999999977
                },
                {
                    "name": "B2",
                    "midi": 47,
                    "time": 15.923579999999983,
                    "velocity": 0.5196850393700787,
                    "duration": 0.13269650000000155
                },
                {
                    "name": "B3",
                    "midi": 59,
                    "time": 16.056276499999985,
                    "velocity": 0.4330708661417323,
                    "duration": 0.13269650000000155
                },
                {
                    "name": "C3",
                    "midi": 48,
                    "time": 16.188972999999987,
                    "velocity": 0.5196850393700787,
                    "duration": 0.13269650000000155
                },
                {
                    "name": "C4",
                    "midi": 60,
                    "time": 16.321669499999988,
                    "velocity": 0.44881889763779526,
                    "duration": 0.13269650000000155
                },
                {
                    "name": "D3",
                    "midi": 50,
                    "time": 16.45436599999999,
                    "velocity": 0.5433070866141733,
                    "duration": 0.13269650000000155
                },
                {
                    "name": "D4",
                    "midi": 62,
                    "time": 16.58706249999999,
                    "velocity": 0.4881889763779528,
                    "duration": 0.13269650000000155
                },
                {
                    "name": "E3",
                    "midi": 52,
                    "time": 16.719758999999993,
                    "velocity": 0.4881889763779528,
                    "duration": 0.5307859999999991
                },
                {
                    "name": "E4",
                    "midi": 64,
                    "time": 16.719758999999993,
                    "velocity": 0.5590551181102362,
                    "duration": 0.5307859999999991
                },
                {
                    "name": "F#3",
                    "midi": 54,
                    "time": 17.51593799999999,
                    "velocity": 0.3937007874015748,
                    "duration": 0.5307859999999991
                },
                {
                    "name": "G3",
                    "midi": 55,
                    "time": 18.04672399999999,
                    "velocity": 0.36220472440944884,
                    "duration": 0.26539299999999955
                },
                {
                    "name": "C4",
                    "midi": 60,
                    "time": 18.31211699999999,
                    "velocity": 0.3937007874015748,
                    "duration": 0.26539299999999955
                },
                {
                    "name": "D4",
                    "midi": 62,
                    "time": 18.57750999999999,
                    "velocity": 0.33070866141732286,
                    "duration": 0.26539299999999955
                },
                {
                    "name": "D3",
                    "midi": 50,
                    "time": 18.84290299999999,
                    "velocity": 0.33070866141732286,
                    "duration": 0.26539299999999955
                },
                {
                    "name": "G3",
                    "midi": 55,
                    "time": 19.10829599999999,
                    "velocity": 0.3937007874015748,
                    "duration": 0.26539299999999955
                },
                {
                    "name": "D3",
                    "midi": 50,
                    "time": 19.373688999999988,
                    "velocity": 0.2992125984251969,
                    "duration": 0.26539299999999955
                },
                {
                    "name": "G2",
                    "midi": 43,
                    "time": 19.639081999999988,
                    "velocity": 0.36220472440944884,
                    "duration": 0.26539299999999955
                },
                {
                    "name": "C4",
                    "midi": 60,
                    "time": 19.904474999999987,
                    "velocity": 0.31496062992125984,
                    "duration": 0.13269650000000155
                },
                {
                    "name": "G4",
                    "midi": 67,
                    "time": 20.03717149999999,
                    "velocity": 0.25196850393700787,
                    "duration": 0.13269650000000155
                },
                {
                    "name": "E4",
                    "midi": 64,
                    "time": 20.16986799999999,
                    "velocity": 0.31496062992125984,
                    "duration": 0.13269650000000155
                },
                {
                    "name": "G4",
                    "midi": 67,
                    "time": 20.302564499999992,
                    "velocity": 0.25196850393700787,
                    "duration": 0.13269650000000155
                },
                {
                    "name": "C4",
                    "midi": 60,
                    "time": 20.435260999999993,
                    "velocity": 0.31496062992125984,
                    "duration": 0.13269650000000155
                },
                {
                    "name": "G4",
                    "midi": 67,
                    "time": 20.567957499999995,
                    "velocity": 0.25984251968503935,
                    "duration": 0.13269650000000155
                },
                {
                    "name": "B3",
                    "midi": 59,
                    "time": 20.700653999999997,
                    "velocity": 0.31496062992125984,
                    "duration": 0.13269650000000155
                },
                {
                    "name": "G4",
                    "midi": 67,
                    "time": 20.833350499999998,
                    "velocity": 0.25196850393700787,
                    "duration": 0.13269650000000155
                },
                {
                    "name": "D4",
                    "midi": 62,
                    "time": 20.966047,
                    "velocity": 0.29133858267716534,
                    "duration": 0.13269650000000155
                },
                {
                    "name": "G4",
                    "midi": 67,
                    "time": 21.0987435,
                    "velocity": 0.25984251968503935,
                    "duration": 0.13269650000000155
                },
                {
                    "name": "B3",
                    "midi": 59,
                    "time": 21.231440000000003,
                    "velocity": 0.31496062992125984,
                    "duration": 0.13269650000000155
                },
                {
                    "name": "G4",
                    "midi": 67,
                    "time": 21.364136500000004,
                    "velocity": 0.2755905511811024,
                    "duration": 0.13269650000000155
                },
                {
                    "name": "C4",
                    "midi": 60,
                    "time": 21.496833000000006,
                    "velocity": 0.31496062992125984,
                    "duration": 0.5307859999999991
                },
                {
                    "name": "C4",
                    "midi": 60,
                    "time": 22.027619000000005,
                    "velocity": 0.28346456692913385,
                    "duration": 0.26539299999999955
                },
                {
                    "name": "B3",
                    "midi": 59,
                    "time": 22.293012000000004,
                    "velocity": 0.31496062992125984,
                    "duration": 0.5307859999999991
                },
                {
                    "name": "C4",
                    "midi": 60,
                    "time": 22.823798000000004,
                    "velocity": 0.33858267716535434,
                    "duration": 0.26539299999999955
                },
                {
                    "name": "D4",
                    "midi": 62,
                    "time": 23.089191000000003,
                    "velocity": 0.3779527559055118,
                    "duration": 0.26539299999999955
                },
                {
                    "name": "C4",
                    "midi": 60,
                    "time": 23.354584000000003,
                    "velocity": 0.3543307086614173,
                    "duration": 0.26539299999999955
                },
                {
                    "name": "B3",
                    "midi": 59,
                    "time": 23.619977000000002,
                    "velocity": 0.31496062992125984,
                    "duration": 0.26539299999999955
                },
                {
                    "name": "C4",
                    "midi": 60,
                    "time": 23.88537,
                    "velocity": 0.33858267716535434,
                    "duration": 0.5307859999999991
                },
                {
                    "name": "C4",
                    "midi": 60,
                    "time": 24.681549,
                    "velocity": 0.31496062992125984,
                    "duration": 0.13269650000000155
                },
                {
                    "name": "G4",
                    "midi": 67,
                    "time": 24.814245500000002,
                    "velocity": 0.25196850393700787,
                    "duration": 0.13269650000000155
                },
                {
                    "name": "E4",
                    "midi": 64,
                    "time": 24.946942000000004,
                    "velocity": 0.31496062992125984,
                    "duration": 0.13269650000000155
                },
                {
                    "name": "G4",
                    "midi": 67,
                    "time": 25.079638500000005,
                    "velocity": 0.25196850393700787,
                    "duration": 0.13269650000000155
                },
                {
                    "name": "C4",
                    "midi": 60,
                    "time": 25.212335000000007,
                    "velocity": 0.31496062992125984,
                    "duration": 0.13269650000000155
                },
                {
                    "name": "G4",
                    "midi": 67,
                    "time": 25.345031500000008,
                    "velocity": 0.25984251968503935,
                    "duration": 0.13269650000000155
                },
                {
                    "name": "B3",
                    "midi": 59,
                    "time": 25.47772800000001,
                    "velocity": 0.31496062992125984,
                    "duration": 0.13269650000000155
                },
                {
                    "name": "G4",
                    "midi": 67,
                    "time": 25.61042450000001,
                    "velocity": 0.25196850393700787,
                    "duration": 0.13269650000000155
                },
                {
                    "name": "D4",
                    "midi": 62,
                    "time": 25.743121000000013,
                    "velocity": 0.29133858267716534,
                    "duration": 0.13269650000000155
                },
                {
                    "name": "G4",
                    "midi": 67,
                    "time": 25.875817500000014,
                    "velocity": 0.25984251968503935,
                    "duration": 0.13269650000000155
                },
                {
                    "name": "B3",
                    "midi": 59,
                    "time": 26.008514000000016,
                    "velocity": 0.31496062992125984,
                    "duration": 0.13269650000000155
                },
                {
                    "name": "G4",
                    "midi": 67,
                    "time": 26.141210500000017,
                    "velocity": 0.2755905511811024,
                    "duration": 0.13269650000000155
                },
                {
                    "name": "C4",
                    "midi": 60,
                    "time": 26.27390700000002,
                    "velocity": 0.31496062992125984,
                    "duration": 0.5307859999999991
                },
                {
                    "name": "C4",
                    "midi": 60,
                    "time": 26.804693000000018,
                    "velocity": 0.28346456692913385,
                    "duration": 0.26539299999999955
                },
                {
                    "name": "B3",
                    "midi": 59,
                    "time": 27.070086000000018,
                    "velocity": 0.31496062992125984,
                    "duration": 0.5307859999999991
                },
                {
                    "name": "C4",
                    "midi": 60,
                    "time": 27.600872000000017,
                    "velocity": 0.33858267716535434,
                    "duration": 0.26539299999999955
                },
                {
                    "name": "B3",
                    "midi": 59,
                    "time": 27.866265000000016,
                    "velocity": 0.3779527559055118,
                    "duration": 0.5307859999999991
                },
                {
                    "name": "E3",
                    "midi": 52,
                    "time": 28.397051000000015,
                    "velocity": 0.31496062992125984,
                    "duration": 0.26539299999999955
                },
                {
                    "name": "D3",
                    "midi": 50,
                    "time": 28.662444000000015,
                    "velocity": 0.3937007874015748,
                    "duration": 0.5307859999999991
                },
                {
                    "name": "D2",
                    "midi": 38,
                    "time": 29.193230000000014,
                    "velocity": 0.31496062992125984,
                    "duration": 0.26539299999999955
                },
                {
                    "name": "G2",
                    "midi": 43,
                    "time": 29.458623000000014,
                    "velocity": 0.4881889763779528,
                    "duration": 0.13269650000000155
                },
                {
                    "name": "G3",
                    "midi": 55,
                    "time": 29.591319500000015,
                    "velocity": 0.3779527559055118,
                    "duration": 0.13269650000000155
                },
                {
                    "name": "A2",
                    "midi": 45,
                    "time": 29.724016000000017,
                    "velocity": 0.44881889763779526,
                    "duration": 0.13269650000000155
                },
                {
                    "name": "A3",
                    "midi": 57,
                    "time": 29.856712500000018,
                    "velocity": 0.3858267716535433,
                    "duration": 0.13269650000000155
                },
                {
                    "name": "B2",
                    "midi": 47,
                    "time": 29.98940900000002,
                    "velocity": 0.47244094488188976,
                    "duration": 0.13269650000000155
                },
                {
                    "name": "B3",
                    "midi": 59,
                    "time": 30.12210550000002,
                    "velocity": 0.3937007874015748,
                    "duration": 0.13269650000000155
                },
                {
                    "name": "A2",
                    "midi": 45,
                    "time": 30.254802000000023,
                    "velocity": 0.4881889763779528,
                    "duration": 0.13269650000000155
                },
                {
                    "name": "A3",
                    "midi": 57,
                    "time": 30.387498500000024,
                    "velocity": 0.4015748031496063,
                    "duration": 0.13269650000000155
                },
                {
                    "name": "B2",
                    "midi": 47,
                    "time": 30.520195000000026,
                    "velocity": 0.4881889763779528,
                    "duration": 0.13269650000000155
                },
                {
                    "name": "B3",
                    "midi": 59,
                    "time": 30.652891500000027,
                    "velocity": 0.4094488188976378,
                    "duration": 0.13269650000000155
                },
                {
                    "name": "C3",
                    "midi": 48,
                    "time": 30.78558800000003,
                    "velocity": 0.5196850393700787,
                    "duration": 0.13269650000000155
                },
                {
                    "name": "C4",
                    "midi": 60,
                    "time": 30.91828450000003,
                    "velocity": 0.4330708661417323,
                    "duration": 0.13269650000000155
                },
                {
                    "name": "B2",
                    "midi": 47,
                    "time": 31.050981000000032,
                    "velocity": 0.5196850393700787,
                    "duration": 0.13269650000000155
                },
                {
                    "name": "B3",
                    "midi": 59,
                    "time": 31.183677500000034,
                    "velocity": 0.4330708661417323,
                    "duration": 0.13269650000000155
                },
                {
                    "name": "C3",
                    "midi": 48,
                    "time": 31.316374000000035,
                    "velocity": 0.5196850393700787,
                    "duration": 0.13269650000000155
                },
                {
                    "name": "C4",
                    "midi": 60,
                    "time": 31.449070500000037,
                    "velocity": 0.44881889763779526,
                    "duration": 0.13269650000000155
                },
                {
                    "name": "D3",
                    "midi": 50,
                    "time": 31.58176700000004,
                    "velocity": 0.5433070866141733,
                    "duration": 0.13269650000000155
                },
                {
                    "name": "D4",
                    "midi": 62,
                    "time": 31.71446350000004,
                    "velocity": 0.4881889763779528,
                    "duration": 0.13269650000000155
                },
                {
                    "name": "E3",
                    "midi": 52,
                    "time": 31.84716000000004,
                    "velocity": 0.4881889763779528,
                    "duration": 0.5307860000000026
                },
                {
                    "name": "E4",
                    "midi": 64,
                    "time": 31.84716000000004,
                    "velocity": 0.5590551181102362,
                    "duration": 0.5307860000000026
                },
                {
                    "name": "F#3",
                    "midi": 54,
                    "time": 32.64333900000005,
                    "velocity": 0.3937007874015748,
                    "duration": 0.5307859999999991
                },
                {
                    "name": "G3",
                    "midi": 55,
                    "time": 33.174125000000046,
                    "velocity": 0.36220472440944884,
                    "duration": 0.2653930000000031
                },
                {
                    "name": "C4",
                    "midi": 60,
                    "time": 33.43951800000005,
                    "velocity": 0.3937007874015748,
                    "duration": 0.2653930000000031
                },
                {
                    "name": "D4",
                    "midi": 62,
                    "time": 33.70491100000005,
                    "velocity": 0.33070866141732286,
                    "duration": 0.2653930000000031
                },
                {
                    "name": "D3",
                    "midi": 50,
                    "time": 33.970304000000056,
                    "velocity": 0.33070866141732286,
                    "duration": 0.2653930000000031
                },
                {
                    "name": "G2",
                    "midi": 43,
                    "time": 34.23569700000006,
                    "velocity": 0.4881889763779528,
                    "duration": 0.13269650000000155
                },
                {
                    "name": "G3",
                    "midi": 55,
                    "time": 34.36839350000006,
                    "velocity": 0.3779527559055118,
                    "duration": 0.13269650000000155
                },
                {
                    "name": "A2",
                    "midi": 45,
                    "time": 34.50109000000006,
                    "velocity": 0.44881889763779526,
                    "duration": 0.13269650000000155
                },
                {
                    "name": "A3",
                    "midi": 57,
                    "time": 34.63378650000006,
                    "velocity": 0.3858267716535433,
                    "duration": 0.13269650000000155
                },
                {
                    "name": "B2",
                    "midi": 47,
                    "time": 34.766483000000065,
                    "velocity": 0.47244094488188976,
                    "duration": 0.13269650000000155
                },
                {
                    "name": "B3",
                    "midi": 59,
                    "time": 34.899179500000066,
                    "velocity": 0.3937007874015748,
                    "duration": 0.13269650000000155
                },
                {
                    "name": "A2",
                    "midi": 45,
                    "time": 35.03187600000007,
                    "velocity": 0.4881889763779528,
                    "duration": 0.13269650000000155
                },
                {
                    "name": "A3",
                    "midi": 57,
                    "time": 35.16457250000007,
                    "velocity": 0.4015748031496063,
                    "duration": 0.13269650000000155
                },
                {
                    "name": "B2",
                    "midi": 47,
                    "time": 35.29726900000007,
                    "velocity": 0.4881889763779528,
                    "duration": 0.13269650000000155
                },
                {
                    "name": "B3",
                    "midi": 59,
                    "time": 35.42996550000007,
                    "velocity": 0.4094488188976378,
                    "duration": 0.13269650000000155
                },
                {
                    "name": "C3",
                    "midi": 48,
                    "time": 35.562662000000074,
                    "velocity": 0.5196850393700787,
                    "duration": 0.13269650000000155
                },
                {
                    "name": "C4",
                    "midi": 60,
                    "time": 35.695358500000076,
                    "velocity": 0.4330708661417323,
                    "duration": 0.13269650000000155
                },
                {
                    "name": "B2",
                    "midi": 47,
                    "time": 35.82805500000008,
                    "velocity": 0.5196850393700787,
                    "duration": 0.13269650000000155
                },
                {
                    "name": "B3",
                    "midi": 59,
                    "time": 35.96075150000008,
                    "velocity": 0.4330708661417323,
                    "duration": 0.13269650000000155
                },
                {
                    "name": "C3",
                    "midi": 48,
                    "time": 36.09344800000008,
                    "velocity": 0.5196850393700787,
                    "duration": 0.13269650000000155
                },
                {
                    "name": "C4",
                    "midi": 60,
                    "time": 36.22614450000008,
                    "velocity": 0.44881889763779526,
                    "duration": 0.13269650000000155
                },
                {
                    "name": "D3",
                    "midi": 50,
                    "time": 36.35884100000008,
                    "velocity": 0.5433070866141733,
                    "duration": 0.13269650000000155
                },
                {
                    "name": "D4",
                    "midi": 62,
                    "time": 36.491537500000085,
                    "velocity": 0.4881889763779528,
                    "duration": 0.13269650000000155
                },
                {
                    "name": "E3",
                    "midi": 52,
                    "time": 36.62423400000009,
                    "velocity": 0.4881889763779528,
                    "duration": 0.5307859999999991
                },
                {
                    "name": "E4",
                    "midi": 64,
                    "time": 36.62423400000009,
                    "velocity": 0.5590551181102362,
                    "duration": 0.5307859999999991
                },
                {
                    "name": "F#3",
                    "midi": 54,
                    "time": 37.42041300000009,
                    "velocity": 0.3937007874015748,
                    "duration": 0.5307859999999991
                },
                {
                    "name": "G3",
                    "midi": 55,
                    "time": 37.95119900000009,
                    "velocity": 0.36220472440944884,
                    "duration": 0.2653930000000031
                },
                {
                    "name": "C4",
                    "midi": 60,
                    "time": 38.21659200000009,
                    "velocity": 0.3937007874015748,
                    "duration": 0.2653930000000031
                },
                {
                    "name": "D4",
                    "midi": 62,
                    "time": 38.481985000000094,
                    "velocity": 0.33070866141732286,
                    "duration": 0.2653930000000031
                },
                {
                    "name": "D3",
                    "midi": 50,
                    "time": 38.7473780000001,
                    "velocity": 0.33070866141732286,
                    "duration": 0.2653930000000031
                },
                {
                    "name": "G3",
                    "midi": 55,
                    "time": 39.0127710000001,
                    "velocity": 0.3937007874015748,
                    "duration": 0.2653930000000031
                },
                {
                    "name": "D3",
                    "midi": 50,
                    "time": 39.2781640000001,
                    "velocity": 0.2992125984251969,
                    "duration": 0.2653930000000031
                },
                {
                    "name": "G2",
                    "midi": 43,
                    "time": 39.543557000000106,
                    "velocity": 0.36220472440944884,
                    "duration": 0.2653930000000031
                },
                {
                    "name": "G3",
                    "midi": 55,
                    "time": 39.80895000000011,
                    "velocity": 0.31496062992125984,
                    "duration": 0.13269650000000155
                },
                {
                    "name": "D4",
                    "midi": 62,
                    "time": 39.94164650000011,
                    "velocity": 0.25196850393700787,
                    "duration": 0.13269650000000155
                },
                {
                    "name": "B3",
                    "midi": 59,
                    "time": 40.07434300000011,
                    "velocity": 0.31496062992125984,
                    "duration": 0.13269650000000155
                },
                {
                    "name": "D4",
                    "midi": 62,
                    "time": 40.207039500000114,
                    "velocity": 0.25196850393700787,
                    "duration": 0.13269650000000155
                },
                {
                    "name": "G3",
                    "midi": 55,
                    "time": 40.339736000000116,
                    "velocity": 0.31496062992125984,
                    "duration": 0.13269650000000155
                },
                {
                    "name": "D4",
                    "midi": 62,
                    "time": 40.47243250000012,
                    "velocity": 0.25984251968503935,
                    "duration": 0.13269650000000155
                },
                {
                    "name": "G3",
                    "midi": 55,
                    "time": 40.60512900000012,
                    "velocity": 0.31496062992125984,
                    "duration": 0.13269650000000155
                },
                {
                    "name": "D4",
                    "midi": 62,
                    "time": 40.73782550000012,
                    "velocity": 0.25196850393700787,
                    "duration": 0.13269650000000155
                },
                {
                    "name": "B3",
                    "midi": 59,
                    "time": 40.87052200000012,
                    "velocity": 0.29133858267716534,
                    "duration": 0.13269650000000155
                },
                {
                    "name": "D4",
                    "midi": 62,
                    "time": 41.00321850000012,
                    "velocity": 0.25984251968503935,
                    "duration": 0.13269650000000155
                },
                {
                    "name": "G3",
                    "midi": 55,
                    "time": 41.135915000000125,
                    "velocity": 0.31496062992125984,
                    "duration": 0.13269650000000155
                },
                {
                    "name": "D4",
                    "midi": 62,
                    "time": 41.26861150000013,
                    "velocity": 0.2755905511811024,
                    "duration": 0.13269650000000155
                },
                {
                    "name": "C4",
                    "midi": 60,
                    "time": 41.40130800000013,
                    "velocity": 0.31496062992125984,
                    "duration": 0.2653930000000031
                },
                {
                    "name": "B3",
                    "midi": 59,
                    "time": 41.66670100000013,
                    "velocity": 0.3543307086614173,
                    "duration": 0.2653930000000031
                },
                {
                    "name": "D4",
                    "midi": 62,
                    "time": 41.932094000000134,
                    "velocity": 0.28346456692913385,
                    "duration": 0.2653930000000031
                },
                {
                    "name": "C4",
                    "midi": 60,
                    "time": 42.19748700000014,
                    "velocity": 0.31496062992125984,
                    "duration": 0.2653930000000031
                },
                {
                    "name": "B3",
                    "midi": 59,
                    "time": 42.46288000000014,
                    "velocity": 0.3543307086614173,
                    "duration": 0.2653930000000031
                },
                {
                    "name": "E4",
                    "midi": 64,
                    "time": 42.728273000000144,
                    "velocity": 0.33858267716535434,
                    "duration": 0.26096978333333
                },
                {
                    "name": "E4",
                    "midi": 64,
                    "time": 42.99366600000014,
                    "velocity": 0.3779527559055118,
                    "duration": 0.2653930000000031
                },
                {
                    "name": "D4",
                    "midi": 62,
                    "time": 43.25905900000014,
                    "velocity": 0.3543307086614173,
                    "duration": 0.2653930000000031
                },
                {
                    "name": "C4",
                    "midi": 60,
                    "time": 43.524452000000146,
                    "velocity": 0.31496062992125984,
                    "duration": 0.2653930000000031
                },
                {
                    "name": "G3",
                    "midi": 55,
                    "time": 43.78984500000015,
                    "velocity": 0.31496062992125984,
                    "duration": 0.13269650000000155
                },
                {
                    "name": "D4",
                    "midi": 62,
                    "time": 43.92254150000015,
                    "velocity": 0.25196850393700787,
                    "duration": 0.13269650000000155
                },
                {
                    "name": "B3",
                    "midi": 59,
                    "time": 44.05523800000015,
                    "velocity": 0.31496062992125984,
                    "duration": 0.13269650000000155
                },
                {
                    "name": "D4",
                    "midi": 62,
                    "time": 44.18793450000015,
                    "velocity": 0.25196850393700787,
                    "duration": 0.13269650000000155
                },
                {
                    "name": "G3",
                    "midi": 55,
                    "time": 44.320631000000155,
                    "velocity": 0.31496062992125984,
                    "duration": 0.13269650000000155
                },
                {
                    "name": "D4",
                    "midi": 62,
                    "time": 44.45332750000016,
                    "velocity": 0.25984251968503935,
                    "duration": 0.13269650000000155
                },
                {
                    "name": "G3",
                    "midi": 55,
                    "time": 44.58602400000016,
                    "velocity": 0.31496062992125984,
                    "duration": 0.13269650000000155
                },
                {
                    "name": "D4",
                    "midi": 62,
                    "time": 44.71872050000016,
                    "velocity": 0.25196850393700787,
                    "duration": 0.13269650000000155
                },
                {
                    "name": "B3",
                    "midi": 59,
                    "time": 44.85141700000016,
                    "velocity": 0.31496062992125984,
                    "duration": 0.13269650000000155
                },
                {
                    "name": "D4",
                    "midi": 62,
                    "time": 44.98411350000016,
                    "velocity": 0.25196850393700787,
                    "duration": 0.13269650000000155
                },
                {
                    "name": "G3",
                    "midi": 55,
                    "time": 45.116810000000164,
                    "velocity": 0.31496062992125984,
                    "duration": 0.13269650000000155
                },
                {
                    "name": "D4",
                    "midi": 62,
                    "time": 45.249506500000166,
                    "velocity": 0.25984251968503935,
                    "duration": 0.13269650000000155
                },
                {
                    "name": "G3",
                    "midi": 55,
                    "time": 45.38220300000017,
                    "velocity": 0.31496062992125984,
                    "duration": 0.13269650000000155
                },
                {
                    "name": "D4",
                    "midi": 62,
                    "time": 45.51489950000017,
                    "velocity": 0.25196850393700787,
                    "duration": 0.13269650000000155
                },
                {
                    "name": "B3",
                    "midi": 59,
                    "time": 45.64759600000017,
                    "velocity": 0.29133858267716534,
                    "duration": 0.13269650000000155
                },
                {
                    "name": "D4",
                    "midi": 62,
                    "time": 45.78029250000017,
                    "velocity": 0.25984251968503935,
                    "duration": 0.13269650000000155
                },
                {
                    "name": "G3",
                    "midi": 55,
                    "time": 45.912989000000174,
                    "velocity": 0.2677165354330709,
                    "duration": 0.13269650000000155
                },
                {
                    "name": "D4",
                    "midi": 62,
                    "time": 46.045685500000175,
                    "velocity": 0.2283464566929134,
                    "duration": 0.13269650000000155
                },
                {
                    "name": "C4",
                    "midi": 60,
                    "time": 46.17838200000018,
                    "velocity": 0.2677165354330709,
                    "duration": 0.2653930000000031
                },
                {
                    "name": "B3",
                    "midi": 59,
                    "time": 46.44377500000018,
                    "velocity": 0.2992125984251969,
                    "duration": 0.2653930000000031
                },
                {
                    "name": "D4",
                    "midi": 62,
                    "time": 46.70916800000018,
                    "velocity": 0.23622047244094488,
                    "duration": 0.2653930000000031
                },
                {
                    "name": "C4",
                    "midi": 60,
                    "time": 46.974561000000186,
                    "velocity": 0.2677165354330709,
                    "duration": 0.2653930000000031
                },
                {
                    "name": "B3",
                    "midi": 59,
                    "time": 47.23995400000019,
                    "velocity": 0.2992125984251969,
                    "duration": 0.2653930000000031
                },
                {
                    "name": "D#4",
                    "midi": 63,
                    "time": 47.50534700000019,
                    "velocity": 0.28346456692913385,
                    "duration": 0.25986397916666704
                },
                {
                    "name": "D#4",
                    "midi": 63,
                    "time": 47.770740000000195,
                    "velocity": 0.31496062992125984,
                    "duration": 0.2653930000000031
                },
                {
                    "name": "D4",
                    "midi": 62,
                    "time": 48.0361330000002,
                    "velocity": 0.2992125984251969,
                    "duration": 0.2653930000000031
                },
                {
                    "name": "C4",
                    "midi": 60,
                    "time": 48.3015260000002,
                    "velocity": 0.2677165354330709,
                    "duration": 0.2653930000000031
                },
                {
                    "name": "G3",
                    "midi": 55,
                    "time": 48.566919000000205,
                    "velocity": 0.2677165354330709,
                    "duration": 0.13269650000000155
                },
                {
                    "name": "D4",
                    "midi": 62,
                    "time": 48.699615500000206,
                    "velocity": 0.2125984251968504,
                    "duration": 0.13269650000000155
                },
                {
                    "name": "B3",
                    "midi": 59,
                    "time": 48.83231200000021,
                    "velocity": 0.2677165354330709,
                    "duration": 0.13269650000000155
                },
                {
                    "name": "D4",
                    "midi": 62,
                    "time": 48.96500850000021,
                    "velocity": 0.2125984251968504,
                    "duration": 0.13269650000000155
                },
                {
                    "name": "G3",
                    "midi": 55,
                    "time": 49.09770500000021,
                    "velocity": 0.2677165354330709,
                    "duration": 0.13269650000000155
                },
                {
                    "name": "D4",
                    "midi": 62,
                    "time": 49.23040150000021,
                    "velocity": 0.2204724409448819,
                    "duration": 0.13269650000000155
                },
                {
                    "name": "C4",
                    "midi": 60,
                    "time": 49.363098000000214,
                    "velocity": 0.31496062992125984,
                    "duration": 0.13269650000000155
                },
                {
                    "name": "G4",
                    "midi": 67,
                    "time": 49.495794500000216,
                    "velocity": 0.25196850393700787,
                    "duration": 0.13269650000000155
                },
                {
                    "name": "E4",
                    "midi": 64,
                    "time": 49.62849100000022,
                    "velocity": 0.31496062992125984,
                    "duration": 0.13269650000000155
                },
                {
                    "name": "G4",
                    "midi": 67,
                    "time": 49.76118750000022,
                    "velocity": 0.25196850393700787,
                    "duration": 0.13269650000000155
                },
                {
                    "name": "C4",
                    "midi": 60,
                    "time": 49.89388400000022,
                    "velocity": 0.31496062992125984,
                    "duration": 0.13269650000000155
                },
                {
                    "name": "G4",
                    "midi": 67,
                    "time": 50.02658050000022,
                    "velocity": 0.25984251968503935,
                    "duration": 0.13269650000000155
                },
                {
                    "name": "B3",
                    "midi": 59,
                    "time": 50.15927700000022,
                    "velocity": 0.31496062992125984,
                    "duration": 0.13269650000000155
                },
                {
                    "name": "G4",
                    "midi": 67,
                    "time": 50.291973500000225,
                    "velocity": 0.25196850393700787,
                    "duration": 0.13269650000000155
                },
                {
                    "name": "D4",
                    "midi": 62,
                    "time": 50.424670000000226,
                    "velocity": 0.29133858267716534,
                    "duration": 0.13269650000000155
                },
                {
                    "name": "G4",
                    "midi": 67,
                    "time": 50.55736650000023,
                    "velocity": 0.25984251968503935,
                    "duration": 0.13269650000000155
                },
                {
                    "name": "B3",
                    "midi": 59,
                    "time": 50.69006300000023,
                    "velocity": 0.31496062992125984,
                    "duration": 0.13269650000000155
                },
                {
                    "name": "G4",
                    "midi": 67,
                    "time": 50.82275950000023,
                    "velocity": 0.2755905511811024,
                    "duration": 0.13269650000000155
                },
                {
                    "name": "C4",
                    "midi": 60,
                    "time": 50.95545600000023,
                    "velocity": 0.31496062992125984,
                    "duration": 0.5307859999999991
                },
                {
                    "name": "C4",
                    "midi": 60,
                    "time": 51.48624200000023,
                    "velocity": 0.28346456692913385,
                    "duration": 0.2653930000000031
                },
                {
                    "name": "B3",
                    "midi": 59,
                    "time": 51.751635000000235,
                    "velocity": 0.31496062992125984,
                    "duration": 0.5307859999999991
                },
                {
                    "name": "C4",
                    "midi": 60,
                    "time": 52.282421000000234,
                    "velocity": 0.33858267716535434,
                    "duration": 0.2653930000000031
                },
                {
                    "name": "D4",
                    "midi": 62,
                    "time": 52.54781400000024,
                    "velocity": 0.3779527559055118,
                    "duration": 0.2653930000000031
                },
                {
                    "name": "C4",
                    "midi": 60,
                    "time": 52.81320700000024,
                    "velocity": 0.31496062992125984,
                    "duration": 0.2653930000000031
                },
                {
                    "name": "B3",
                    "midi": 59,
                    "time": 53.07860000000024,
                    "velocity": 0.31496062992125984,
                    "duration": 0.2653930000000031
                },
                {
                    "name": "C3",
                    "midi": 48,
                    "time": 53.343993000000246,
                    "velocity": 0.4881889763779528,
                    "duration": 0.13269650000000155
                },
                {
                    "name": "C4",
                    "midi": 60,
                    "time": 53.47668950000025,
                    "velocity": 0.3779527559055118,
                    "duration": 0.13269650000000155
                },
                {
                    "name": "D3",
                    "midi": 50,
                    "time": 53.60938600000025,
                    "velocity": 0.44881889763779526,
                    "duration": 0.13269650000000155
                },
                {
                    "name": "D4",
                    "midi": 62,
                    "time": 53.74208250000025,
                    "velocity": 0.3858267716535433,
                    "duration": 0.13269650000000155
                },
                {
                    "name": "E3",
                    "midi": 52,
                    "time": 53.87477900000025,
                    "velocity": 0.47244094488188976,
                    "duration": 0.13269650000000155
                },
                {
                    "name": "E4",
                    "midi": 64,
                    "time": 54.007475500000254,
                    "velocity": 0.3937007874015748,
                    "duration": 0.13269650000000155
                },
                {
                    "name": "D3",
                    "midi": 50,
                    "time": 54.140172000000256,
                    "velocity": 0.4881889763779528,
                    "duration": 0.13269650000000155
                },
                {
                    "name": "D4",
                    "midi": 62,
                    "time": 54.27286850000026,
                    "velocity": 0.4015748031496063,
                    "duration": 0.13269650000000155
                },
                {
                    "name": "E3",
                    "midi": 52,
                    "time": 54.40556500000026,
                    "velocity": 0.4881889763779528,
                    "duration": 0.13269650000000155
                },
                {
                    "name": "E4",
                    "midi": 64,
                    "time": 54.53826150000026,
                    "velocity": 0.4094488188976378,
                    "duration": 0.13269650000000155
                },
                {
                    "name": "F3",
                    "midi": 53,
                    "time": 54.67095800000026,
                    "velocity": 0.5196850393700787,
                    "duration": 0.13269650000000155
                },
                {
                    "name": "F4",
                    "midi": 65,
                    "time": 54.80365450000026,
                    "velocity": 0.4330708661417323,
                    "duration": 0.13269650000000155
                },
                {
                    "name": "E3",
                    "midi": 52,
                    "time": 54.936351000000265,
                    "velocity": 0.5196850393700787,
                    "duration": 0.13269650000000155
                },
                {
                    "name": "E4",
                    "midi": 64,
                    "time": 55.069047500000266,
                    "velocity": 0.4330708661417323,
                    "duration": 0.13269650000000155
                },
                {
                    "name": "F3",
                    "midi": 53,
                    "time": 55.20174400000027,
                    "velocity": 0.5196850393700787,
                    "duration": 0.13269650000000155
                },
                {
                    "name": "F4",
                    "midi": 65,
                    "time": 55.33444050000027,
                    "velocity": 0.44881889763779526,
                    "duration": 0.13269650000000155
                },
                {
                    "name": "G3",
                    "midi": 55,
                    "time": 55.46713700000027,
                    "velocity": 0.5433070866141733,
                    "duration": 0.13269650000000155
                },
                {
                    "name": "G4",
                    "midi": 67,
                    "time": 55.59983350000027,
                    "velocity": 0.4881889763779528,
                    "duration": 0.13269650000000155
                },
                {
                    "name": "A2",
                    "midi": 45,
                    "time": 55.732530000000274,
                    "velocity": 0.4881889763779528,
                    "duration": 0.5307859999999991
                },
                {
                    "name": "A3",
                    "midi": 57,
                    "time": 55.732530000000274,
                    "velocity": 0.5590551181102362,
                    "duration": 0.5307859999999991
                },
                {
                    "name": "B3",
                    "midi": 59,
                    "time": 56.528709000000276,
                    "velocity": 0.3937007874015748,
                    "duration": 0.5307859999999991
                },
                {
                    "name": "C4",
                    "midi": 60,
                    "time": 57.059495000000275,
                    "velocity": 0.36220472440944884,
                    "duration": 0.2653930000000031
                },
                {
                    "name": "F3",
                    "midi": 53,
                    "time": 57.32488800000028,
                    "velocity": 0.3937007874015748,
                    "duration": 0.2653930000000031
                },
                {
                    "name": "G3",
                    "midi": 55,
                    "time": 57.59028100000028,
                    "velocity": 0.33070866141732286,
                    "duration": 0.2653930000000031
                },
                {
                    "name": "G2",
                    "midi": 43,
                    "time": 57.855674000000285,
                    "velocity": 0.33070866141732286,
                    "duration": 0.2653930000000031
                },
                {
                    "name": "C3",
                    "midi": 48,
                    "time": 58.12106700000029,
                    "velocity": 0.4881889763779528,
                    "duration": 0.13269650000000155
                },
                {
                    "name": "C4",
                    "midi": 60,
                    "time": 58.25376350000029,
                    "velocity": 0.3779527559055118,
                    "duration": 0.13269650000000155
                },
                {
                    "name": "D3",
                    "midi": 50,
                    "time": 58.38646000000029,
                    "velocity": 0.44881889763779526,
                    "duration": 0.13269650000000155
                },
                {
                    "name": "D4",
                    "midi": 62,
                    "time": 58.51915650000029,
                    "velocity": 0.3858267716535433,
                    "duration": 0.13269650000000155
                },
                {
                    "name": "E3",
                    "midi": 52,
                    "time": 58.651853000000294,
                    "velocity": 0.47244094488188976,
                    "duration": 0.13269650000000155
                },
                {
                    "name": "E4",
                    "midi": 64,
                    "time": 58.784549500000296,
                    "velocity": 0.3937007874015748,
                    "duration": 0.13269650000000155
                },
                {
                    "name": "D3",
                    "midi": 50,
                    "time": 58.9172460000003,
                    "velocity": 0.4881889763779528,
                    "duration": 0.13269650000000155
                },
                {
                    "name": "D4",
                    "midi": 62,
                    "time": 59.0499425000003,
                    "velocity": 0.4015748031496063,
                    "duration": 0.13269650000000155
                },
                {
                    "name": "E3",
                    "midi": 52,
                    "time": 59.1826390000003,
                    "velocity": 0.4881889763779528,
                    "duration": 0.13269650000000155
                },
                {
                    "name": "E4",
                    "midi": 64,
                    "time": 59.3153355000003,
                    "velocity": 0.4094488188976378,
                    "duration": 0.13269650000000155
                },
                {
                    "name": "F3",
                    "midi": 53,
                    "time": 59.4480320000003,
                    "velocity": 0.5196850393700787,
                    "duration": 0.13269650000000155
                },
                {
                    "name": "F4",
                    "midi": 65,
                    "time": 59.580728500000305,
                    "velocity": 0.4330708661417323,
                    "duration": 0.13269650000000155
                },
                {
                    "name": "E3",
                    "midi": 52,
                    "time": 59.713425000000306,
                    "velocity": 0.5196850393700787,
                    "duration": 0.13269650000000155
                },
                {
                    "name": "E4",
                    "midi": 64,
                    "time": 59.84612150000031,
                    "velocity": 0.4330708661417323,
                    "duration": 0.13269650000000155
                },
                {
                    "name": "F3",
                    "midi": 53,
                    "time": 59.97881800000031,
                    "velocity": 0.5196850393700787,
                    "duration": 0.13269650000000155
                },
                {
                    "name": "F4",
                    "midi": 65,
                    "time": 60.11151450000031,
                    "velocity": 0.44881889763779526,
                    "duration": 0.13269650000000155
                },
                {
                    "name": "G3",
                    "midi": 55,
                    "time": 60.24421100000031,
                    "velocity": 0.5433070866141733,
                    "duration": 0.13269650000000155
                },
                {
                    "name": "G4",
                    "midi": 67,
                    "time": 60.376907500000314,
                    "velocity": 0.4881889763779528,
                    "duration": 0.13269650000000155
                },
                {
                    "name": "A2",
                    "midi": 45,
                    "time": 60.509604000000316,
                    "velocity": 0.4881889763779528,
                    "duration": 0.5307859999999991
                },
                {
                    "name": "A3",
                    "midi": 57,
                    "time": 60.509604000000316,
                    "velocity": 0.5590551181102362,
                    "duration": 0.5307859999999991
                },
                {
                    "name": "B3",
                    "midi": 59,
                    "time": 61.30578300000032,
                    "velocity": 0.3937007874015748,
                    "duration": 0.5307859999999991
                },
                {
                    "name": "C4",
                    "midi": 60,
                    "time": 61.83656900000032,
                    "velocity": 0.36220472440944884,
                    "duration": 0.2653930000000031
                },
                {
                    "name": "F3",
                    "midi": 53,
                    "time": 62.10196200000032,
                    "velocity": 0.3937007874015748,
                    "duration": 0.2653930000000031
                },
                {
                    "name": "G3",
                    "midi": 55,
                    "time": 62.36735500000032,
                    "velocity": 0.33070866141732286,
                    "duration": 0.2653930000000031
                },
                {
                    "name": "G2",
                    "midi": 43,
                    "time": 62.632748000000326,
                    "velocity": 0.33070866141732286,
                    "duration": 0.2653930000000031
                },
                {
                    "name": "C3",
                    "midi": 48,
                    "time": 62.89814100000033,
                    "velocity": 0.3937007874015748,
                    "duration": 0.2653930000000031
                },
                {
                    "name": "C2",
                    "midi": 36,
                    "time": 63.16353400000033,
                    "velocity": 0.2992125984251969,
                    "duration": 0.2653930000000031
                },
                {
                    "name": "G3",
                    "midi": 55,
                    "time": 63.69432000000034,
                    "velocity": 0.31496062992125984,
                    "duration": 0.13269650000000155
                },
                {
                    "name": "D4",
                    "midi": 62,
                    "time": 63.82701650000034,
                    "velocity": 0.25196850393700787,
                    "duration": 0.13269650000000155
                },
                {
                    "name": "B3",
                    "midi": 59,
                    "time": 63.95971300000034,
                    "velocity": 0.31496062992125984,
                    "duration": 0.13269650000000155
                },
                {
                    "name": "D4",
                    "midi": 62,
                    "time": 64.09240950000034,
                    "velocity": 0.25196850393700787,
                    "duration": 0.13269649999999444
                },
                {
                    "name": "G3",
                    "midi": 55,
                    "time": 64.22510600000034,
                    "velocity": 0.31496062992125984,
                    "duration": 0.13269649999999444
                },
                {
                    "name": "D4",
                    "midi": 62,
                    "time": 64.35780250000033,
                    "velocity": 0.25984251968503935,
                    "duration": 0.13269649999999444
                },
                {
                    "name": "G3",
                    "midi": 55,
                    "time": 64.49049900000033,
                    "velocity": 0.31496062992125984,
                    "duration": 0.13269649999999444
                },
                {
                    "name": "D4",
                    "midi": 62,
                    "time": 64.62319550000032,
                    "velocity": 0.25196850393700787,
                    "duration": 0.13269649999999444
                },
                {
                    "name": "B3",
                    "midi": 59,
                    "time": 64.75589200000032,
                    "velocity": 0.29133858267716534,
                    "duration": 0.13269649999999444
                },
                {
                    "name": "D4",
                    "midi": 62,
                    "time": 64.88858850000031,
                    "velocity": 0.25984251968503935,
                    "duration": 0.13269649999999444
                },
                {
                    "name": "G3",
                    "midi": 55,
                    "time": 65.0212850000003,
                    "velocity": 0.31496062992125984,
                    "duration": 0.13269649999999444
                },
                {
                    "name": "D4",
                    "midi": 62,
                    "time": 65.1539815000003,
                    "velocity": 0.2755905511811024,
                    "duration": 0.13269649999999444
                },
                {
                    "name": "C4",
                    "midi": 60,
                    "time": 65.2866780000003,
                    "velocity": 0.31496062992125984,
                    "duration": 0.2653930000000031
                },
                {
                    "name": "B3",
                    "midi": 59,
                    "time": 65.5520710000003,
                    "velocity": 0.3543307086614173,
                    "duration": 0.2653930000000031
                },
                {
                    "name": "D4",
                    "midi": 62,
                    "time": 65.8174640000003,
                    "velocity": 0.28346456692913385,
                    "duration": 0.2653930000000031
                },
                {
                    "name": "C4",
                    "midi": 60,
                    "time": 66.0828570000003,
                    "velocity": 0.31496062992125984,
                    "duration": 0.2653930000000031
                },
                {
                    "name": "B3",
                    "midi": 59,
                    "time": 66.3482500000003,
                    "velocity": 0.3543307086614173,
                    "duration": 0.2653930000000031
                },
                {
                    "name": "E4",
                    "midi": 64,
                    "time": 66.61364300000031,
                    "velocity": 0.33858267716535434,
                    "duration": 0.2609697833333371
                },
                {
                    "name": "E4",
                    "midi": 64,
                    "time": 66.87903600000031,
                    "velocity": 0.3779527559055118,
                    "duration": 0.2653930000000031
                },
                {
                    "name": "D4",
                    "midi": 62,
                    "time": 67.14442900000031,
                    "velocity": 0.3543307086614173,
                    "duration": 0.2653930000000031
                },
                {
                    "name": "C4",
                    "midi": 60,
                    "time": 67.40982200000032,
                    "velocity": 0.31496062992125984,
                    "duration": 0.2653930000000031
                },
                {
                    "name": "G3",
                    "midi": 55,
                    "time": 67.67521500000032,
                    "velocity": 0.31496062992125984,
                    "duration": 0.13269649999999444
                },
                {
                    "name": "D4",
                    "midi": 62,
                    "time": 67.80791150000032,
                    "velocity": 0.25196850393700787,
                    "duration": 0.13269649999999444
                },
                {
                    "name": "B3",
                    "midi": 59,
                    "time": 67.94060800000031,
                    "velocity": 0.31496062992125984,
                    "duration": 0.13269649999999444
                },
                {
                    "name": "D4",
                    "midi": 62,
                    "time": 68.0733045000003,
                    "velocity": 0.25196850393700787,
                    "duration": 0.13269649999999444
                },
                {
                    "name": "G3",
                    "midi": 55,
                    "time": 68.2060010000003,
                    "velocity": 0.31496062992125984,
                    "duration": 0.13269649999999444
                },
                {
                    "name": "D4",
                    "midi": 62,
                    "time": 68.3386975000003,
                    "velocity": 0.25984251968503935,
                    "duration": 0.13269649999999444
                },
                {
                    "name": "G3",
                    "midi": 55,
                    "time": 68.47139400000029,
                    "velocity": 0.31496062992125984,
                    "duration": 0.13269649999999444
                },
                {
                    "name": "D4",
                    "midi": 62,
                    "time": 68.60409050000028,
                    "velocity": 0.25196850393700787,
                    "duration": 0.13269649999999444
                },
                {
                    "name": "B3",
                    "midi": 59,
                    "time": 68.73678700000028,
                    "velocity": 0.31496062992125984,
                    "duration": 0.13269649999999444
                },
                {
                    "name": "D4",
                    "midi": 62,
                    "time": 68.86948350000027,
                    "velocity": 0.25196850393700787,
                    "duration": 0.13269649999999444
                },
                {
                    "name": "G3",
                    "midi": 55,
                    "time": 69.00218000000027,
                    "velocity": 0.31496062992125984,
                    "duration": 0.13269649999999444
                },
                {
                    "name": "D4",
                    "midi": 62,
                    "time": 69.13487650000026,
                    "velocity": 0.25984251968503935,
                    "duration": 0.13269649999999444
                },
                {
                    "name": "G3",
                    "midi": 55,
                    "time": 69.26757300000025,
                    "velocity": 0.31496062992125984,
                    "duration": 0.13269649999999444
                },
                {
                    "name": "D4",
                    "midi": 62,
                    "time": 69.40026950000025,
                    "velocity": 0.25196850393700787,
                    "duration": 0.13269649999999444
                },
                {
                    "name": "B3",
                    "midi": 59,
                    "time": 69.53296600000024,
                    "velocity": 0.29133858267716534,
                    "duration": 0.13269649999999444
                },
                {
                    "name": "D4",
                    "midi": 62,
                    "time": 69.66566250000024,
                    "velocity": 0.25984251968503935,
                    "duration": 0.13269649999999444
                },
                {
                    "name": "G3",
                    "midi": 55,
                    "time": 69.79835900000023,
                    "velocity": 0.2677165354330709,
                    "duration": 0.13269649999999444
                },
                {
                    "name": "D4",
                    "midi": 62,
                    "time": 69.93105550000023,
                    "velocity": 0.2283464566929134,
                    "duration": 0.13269649999999444
                },
                {
                    "name": "C4",
                    "midi": 60,
                    "time": 70.06375200000022,
                    "velocity": 0.2677165354330709,
                    "duration": 0.2653930000000031
                },
                {
                    "name": "B3",
                    "midi": 59,
                    "time": 70.32914500000022,
                    "velocity": 0.2992125984251969,
                    "duration": 0.2653930000000031
                },
                {
                    "name": "D4",
                    "midi": 62,
                    "time": 70.59453800000023,
                    "velocity": 0.23622047244094488,
                    "duration": 0.2653930000000031
                },
                {
                    "name": "C4",
                    "midi": 60,
                    "time": 70.85993100000023,
                    "velocity": 0.2677165354330709,
                    "duration": 0.2653930000000031
                },
                {
                    "name": "B3",
                    "midi": 59,
                    "time": 71.12532400000023,
                    "velocity": 0.2992125984251969,
                    "duration": 0.2653930000000031
                },
                {
                    "name": "D#4",
                    "midi": 63,
                    "time": 71.39071700000024,
                    "velocity": 0.28346456692913385,
                    "duration": 0.25986397916666704
                },
                {
                    "name": "D#4",
                    "midi": 63,
                    "time": 71.65611000000024,
                    "velocity": 0.31496062992125984,
                    "duration": 0.2653930000000031
                },
                {
                    "name": "D4",
                    "midi": 62,
                    "time": 71.92150300000024,
                    "velocity": 0.2992125984251969,
                    "duration": 0.2653930000000031
                },
                {
                    "name": "C4",
                    "midi": 60,
                    "time": 72.18689600000025,
                    "velocity": 0.2677165354330709,
                    "duration": 0.2653930000000031
                },
                {
                    "name": "G3",
                    "midi": 55,
                    "time": 72.45228900000025,
                    "velocity": 0.2677165354330709,
                    "duration": 0.13269649999999444
                },
                {
                    "name": "D4",
                    "midi": 62,
                    "time": 72.58498550000024,
                    "velocity": 0.2125984251968504,
                    "duration": 0.13269649999999444
                },
                {
                    "name": "B3",
                    "midi": 59,
                    "time": 72.71768200000024,
                    "velocity": 0.2677165354330709,
                    "duration": 0.13269649999999444
                },
                {
                    "name": "D4",
                    "midi": 62,
                    "time": 72.85037850000023,
                    "velocity": 0.2125984251968504,
                    "duration": 0.13269649999999444
                },
                {
                    "name": "G3",
                    "midi": 55,
                    "time": 72.98307500000023,
                    "velocity": 0.2677165354330709,
                    "duration": 0.13269649999999444
                },
                {
                    "name": "D4",
                    "midi": 62,
                    "time": 73.11577150000022,
                    "velocity": 0.2204724409448819,
                    "duration": 0.13269649999999444
                },
                {
                    "name": "C4",
                    "midi": 60,
                    "time": 73.24846800000022,
                    "velocity": 0.31496062992125984,
                    "duration": 0.13269649999999444
                },
                {
                    "name": "G4",
                    "midi": 67,
                    "time": 73.38116450000021,
                    "velocity": 0.25196850393700787,
                    "duration": 0.13269649999999444
                },
                {
                    "name": "E4",
                    "midi": 64,
                    "time": 73.5138610000002,
                    "velocity": 0.31496062992125984,
                    "duration": 0.13269649999999444
                },
                {
                    "name": "G4",
                    "midi": 67,
                    "time": 73.6465575000002,
                    "velocity": 0.25196850393700787,
                    "duration": 0.13269649999999444
                },
                {
                    "name": "C4",
                    "midi": 60,
                    "time": 73.7792540000002,
                    "velocity": 0.31496062992125984,
                    "duration": 0.13269649999999444
                },
                {
                    "name": "G4",
                    "midi": 67,
                    "time": 73.91195050000019,
                    "velocity": 0.25984251968503935,
                    "duration": 0.13269649999999444
                },
                {
                    "name": "B3",
                    "midi": 59,
                    "time": 74.04464700000018,
                    "velocity": 0.31496062992125984,
                    "duration": 0.13269649999999444
                },
                {
                    "name": "G4",
                    "midi": 67,
                    "time": 74.17734350000018,
                    "velocity": 0.25196850393700787,
                    "duration": 0.13269649999999444
                },
                {
                    "name": "D4",
                    "midi": 62,
                    "time": 74.31004000000017,
                    "velocity": 0.29133858267716534,
                    "duration": 0.13269649999999444
                },
                {
                    "name": "G4",
                    "midi": 67,
                    "time": 74.44273650000017,
                    "velocity": 0.25984251968503935,
                    "duration": 0.13269649999999444
                },
                {
                    "name": "B3",
                    "midi": 59,
                    "time": 74.57543300000016,
                    "velocity": 0.31496062992125984,
                    "duration": 0.13269649999999444
                },
                {
                    "name": "G4",
                    "midi": 67,
                    "time": 74.70812950000015,
                    "velocity": 0.2755905511811024,
                    "duration": 0.13269649999999444
                },
                {
                    "name": "C4",
                    "midi": 60,
                    "time": 74.84082600000015,
                    "velocity": 0.31496062992125984,
                    "duration": 0.5307860000000062
                },
                {
                    "name": "C4",
                    "midi": 60,
                    "time": 75.37161200000016,
                    "velocity": 0.28346456692913385,
                    "duration": 0.2653930000000031
                },
                {
                    "name": "B3",
                    "midi": 59,
                    "time": 75.63700500000016,
                    "velocity": 0.31496062992125984,
                    "duration": 0.5307860000000062
                },
                {
                    "name": "C4",
                    "midi": 60,
                    "time": 76.16779100000016,
                    "velocity": 0.33858267716535434,
                    "duration": 0.2653930000000031
                },
                {
                    "name": "D4",
                    "midi": 62,
                    "time": 76.43318400000017,
                    "velocity": 0.3779527559055118,
                    "duration": 0.2653930000000031
                },
                {
                    "name": "C4",
                    "midi": 60,
                    "time": 76.69857700000017,
                    "velocity": 0.31496062992125984,
                    "duration": 0.2653930000000031
                },
                {
                    "name": "B3",
                    "midi": 59,
                    "time": 76.96397000000017,
                    "velocity": 0.31496062992125984,
                    "duration": 0.2653930000000031
                },
                {
                    "name": "C3",
                    "midi": 48,
                    "time": 77.22936300000018,
                    "velocity": 0.4881889763779528,
                    "duration": 0.13269649999999444
                },
                {
                    "name": "C4",
                    "midi": 60,
                    "time": 77.36205950000017,
                    "velocity": 0.3779527559055118,
                    "duration": 0.13269649999999444
                },
                {
                    "name": "D3",
                    "midi": 50,
                    "time": 77.49475600000017,
                    "velocity": 0.44881889763779526,
                    "duration": 0.13269649999999444
                },
                {
                    "name": "D4",
                    "midi": 62,
                    "time": 77.62745250000016,
                    "velocity": 0.3858267716535433,
                    "duration": 0.13269649999999444
                },
                {
                    "name": "E3",
                    "midi": 52,
                    "time": 77.76014900000015,
                    "velocity": 0.47244094488188976,
                    "duration": 0.13269649999999444
                },
                {
                    "name": "E4",
                    "midi": 64,
                    "time": 77.89284550000015,
                    "velocity": 0.3937007874015748,
                    "duration": 0.13269649999999444
                },
                {
                    "name": "D3",
                    "midi": 50,
                    "time": 78.02554200000014,
                    "velocity": 0.4881889763779528,
                    "duration": 0.13269649999999444
                },
                {
                    "name": "D4",
                    "midi": 62,
                    "time": 78.15823850000014,
                    "velocity": 0.4015748031496063,
                    "duration": 0.13269649999999444
                },
                {
                    "name": "E3",
                    "midi": 52,
                    "time": 78.29093500000013,
                    "velocity": 0.4881889763779528,
                    "duration": 0.13269649999999444
                },
                {
                    "name": "E4",
                    "midi": 64,
                    "time": 78.42363150000013,
                    "velocity": 0.4094488188976378,
                    "duration": 0.13269649999999444
                },
                {
                    "name": "F3",
                    "midi": 53,
                    "time": 78.55632800000012,
                    "velocity": 0.5196850393700787,
                    "duration": 0.13269649999999444
                },
                {
                    "name": "F4",
                    "midi": 65,
                    "time": 78.68902450000012,
                    "velocity": 0.4330708661417323,
                    "duration": 0.13269649999999444
                },
                {
                    "name": "E3",
                    "midi": 52,
                    "time": 78.82172100000011,
                    "velocity": 0.5196850393700787,
                    "duration": 0.13269649999999444
                },
                {
                    "name": "E4",
                    "midi": 64,
                    "time": 78.9544175000001,
                    "velocity": 0.4330708661417323,
                    "duration": 0.13269649999999444
                },
                {
                    "name": "F3",
                    "midi": 53,
                    "time": 79.0871140000001,
                    "velocity": 0.5196850393700787,
                    "duration": 0.13269649999999444
                },
                {
                    "name": "F4",
                    "midi": 65,
                    "time": 79.2198105000001,
                    "velocity": 0.44881889763779526,
                    "duration": 0.13269649999999444
                },
                {
                    "name": "G3",
                    "midi": 55,
                    "time": 79.35250700000009,
                    "velocity": 0.5433070866141733,
                    "duration": 0.13269649999999444
                },
                {
                    "name": "G4",
                    "midi": 67,
                    "time": 79.48520350000008,
                    "velocity": 0.4881889763779528,
                    "duration": 0.13269649999999444
                },
                {
                    "name": "A2",
                    "midi": 45,
                    "time": 79.61790000000008,
                    "velocity": 0.4881889763779528,
                    "duration": 0.5307860000000062
                },
                {
                    "name": "A3",
                    "midi": 57,
                    "time": 79.61790000000008,
                    "velocity": 0.5590551181102362,
                    "duration": 0.5307860000000062
                },
                {
                    "name": "B3",
                    "midi": 59,
                    "time": 80.41407900000009,
                    "velocity": 0.3937007874015748,
                    "duration": 0.5307860000000062
                },
                {
                    "name": "C4",
                    "midi": 60,
                    "time": 80.94486500000009,
                    "velocity": 0.36220472440944884,
                    "duration": 0.2653930000000031
                },
                {
                    "name": "F3",
                    "midi": 53,
                    "time": 81.2102580000001,
                    "velocity": 0.3937007874015748,
                    "duration": 0.2653930000000031
                },
                {
                    "name": "G3",
                    "midi": 55,
                    "time": 81.4756510000001,
                    "velocity": 0.33070866141732286,
                    "duration": 0.2653930000000031
                },
                {
                    "name": "G2",
                    "midi": 43,
                    "time": 81.7410440000001,
                    "velocity": 0.33070866141732286,
                    "duration": 0.2653930000000031
                },
                {
                    "name": "C3",
                    "midi": 48,
                    "time": 82.0064370000001,
                    "velocity": 0.4881889763779528,
                    "duration": 0.13269649999999444
                },
                {
                    "name": "C4",
                    "midi": 60,
                    "time": 82.1391335000001,
                    "velocity": 0.3779527559055118,
                    "duration": 0.13269649999999444
                },
                {
                    "name": "D3",
                    "midi": 50,
                    "time": 82.2718300000001,
                    "velocity": 0.44881889763779526,
                    "duration": 0.13269649999999444
                },
                {
                    "name": "D4",
                    "midi": 62,
                    "time": 82.40452650000009,
                    "velocity": 0.3858267716535433,
                    "duration": 0.13269649999999444
                },
                {
                    "name": "E3",
                    "midi": 52,
                    "time": 82.53722300000008,
                    "velocity": 0.47244094488188976,
                    "duration": 0.13269649999999444
                },
                {
                    "name": "E4",
                    "midi": 64,
                    "time": 82.66991950000008,
                    "velocity": 0.3937007874015748,
                    "duration": 0.13269649999999444
                },
                {
                    "name": "D3",
                    "midi": 50,
                    "time": 82.80261600000007,
                    "velocity": 0.4881889763779528,
                    "duration": 0.13269649999999444
                },
                {
                    "name": "D4",
                    "midi": 62,
                    "time": 82.93531250000007,
                    "velocity": 0.4015748031496063,
                    "duration": 0.13269649999999444
                },
                {
                    "name": "E3",
                    "midi": 52,
                    "time": 83.06800900000006,
                    "velocity": 0.4881889763779528,
                    "duration": 0.13269649999999444
                },
                {
                    "name": "E4",
                    "midi": 64,
                    "time": 83.20070550000005,
                    "velocity": 0.4094488188976378,
                    "duration": 0.13269649999999444
                },
                {
                    "name": "F3",
                    "midi": 53,
                    "time": 83.33340200000005,
                    "velocity": 0.5196850393700787,
                    "duration": 0.13269649999999444
                },
                {
                    "name": "F4",
                    "midi": 65,
                    "time": 83.46609850000004,
                    "velocity": 0.4330708661417323,
                    "duration": 0.13269649999999444
                },
                {
                    "name": "E3",
                    "midi": 52,
                    "time": 83.59879500000004,
                    "velocity": 0.5196850393700787,
                    "duration": 0.13269649999999444
                },
                {
                    "name": "E4",
                    "midi": 64,
                    "time": 83.73149150000003,
                    "velocity": 0.4330708661417323,
                    "duration": 0.13269649999999444
                },
                {
                    "name": "F3",
                    "midi": 53,
                    "time": 83.86418800000003,
                    "velocity": 0.5196850393700787,
                    "duration": 0.13269649999999444
                },
                {
                    "name": "F4",
                    "midi": 65,
                    "time": 83.99688450000002,
                    "velocity": 0.44881889763779526,
                    "duration": 0.13269649999999444
                },
                {
                    "name": "G3",
                    "midi": 55,
                    "time": 84.12958100000002,
                    "velocity": 0.5433070866141733,
                    "duration": 0.13269649999999444
                },
                {
                    "name": "G4",
                    "midi": 67,
                    "time": 84.26227750000001,
                    "velocity": 0.4881889763779528,
                    "duration": 0.13269649999999444
                },
                {
                    "name": "A2",
                    "midi": 45,
                    "time": 84.394974,
                    "velocity": 0.4881889763779528,
                    "duration": 0.5307860000000062
                },
                {
                    "name": "A3",
                    "midi": 57,
                    "time": 84.394974,
                    "velocity": 0.5590551181102362,
                    "duration": 0.5307860000000062
                },
                {
                    "name": "B3",
                    "midi": 59,
                    "time": 85.19115300000001,
                    "velocity": 0.3937007874015748,
                    "duration": 0.5307860000000062
                },
                {
                    "name": "C4",
                    "midi": 60,
                    "time": 85.72193900000002,
                    "velocity": 0.36220472440944884,
                    "duration": 0.2653930000000031
                },
                {
                    "name": "F3",
                    "midi": 53,
                    "time": 85.98733200000002,
                    "velocity": 0.3937007874015748,
                    "duration": 0.2653930000000031
                },
                {
                    "name": "G3",
                    "midi": 55,
                    "time": 86.25272500000003,
                    "velocity": 0.33070866141732286,
                    "duration": 0.2653930000000031
                },
                {
                    "name": "G2",
                    "midi": 43,
                    "time": 86.51811800000003,
                    "velocity": 0.33070866141732286,
                    "duration": 0.2653930000000031
                },
                {
                    "name": "C3",
                    "midi": 48,
                    "time": 86.78351100000003,
                    "velocity": 0.3937007874015748,
                    "duration": 0.2653930000000031
                },
                {
                    "name": "C2",
                    "midi": 36,
                    "time": 87.04890400000004,
                    "velocity": 0.2992125984251969,
                    "duration": 0.2653930000000031
                }
            ],
            "controlChanges": {},
            "id": 2,
            "name": "Piano left",
            "instrumentNumber": 0,
            "instrument": "acoustic grand piano",
            "instrumentFamily": "piano",
            "channelNumber": 0,
            "isPercussion": false
        },
        {
            "startTime": 0,
            "duration": 0,
            "length": 0,
            "notes": [],
            "controlChanges": {
                "64": [
                    {
                        "number": 64,
                        "time": 0.039808949999999996,
                        "value": 1
                    },
                    {
                        "number": 64,
                        "time": 0.537420825,
                        "value": 0
                    },
                    {
                        "number": 64,
                        "time": 0.8592098374999999,
                        "value": 1
                    },
                    {
                        "number": 64,
                        "time": 1.3347056291666666,
                        "value": 0
                    },
                    {
                        "number": 64,
                        "time": 1.4054770958333331,
                        "value": 1
                    },
                    {
                        "number": 64,
                        "time": 1.6233205166666664,
                        "value": 0
                    },
                    {
                        "number": 64,
                        "time": 2.1861748375,
                        "value": 1
                    },
                    {
                        "number": 64,
                        "time": 2.388537,
                        "value": 0
                    },
                    {
                        "number": 64,
                        "time": 2.4438272083333334,
                        "value": 1
                    },
                    {
                        "number": 64,
                        "time": 2.9303810416666667,
                        "value": 0
                    },
                    {
                        "number": 64,
                        "time": 3.036538241666667,
                        "value": 1
                    },
                    {
                        "number": 64,
                        "time": 3.202408866666667,
                        "value": 0
                    },
                    {
                        "number": 64,
                        "time": 3.2709687250000004,
                        "value": 1
                    },
                    {
                        "number": 64,
                        "time": 3.4600612375,
                        "value": 0
                    },
                    {
                        "number": 64,
                        "time": 3.5363617250000003,
                        "value": 1
                    },
                    {
                        "number": 64,
                        "time": 3.7254542375,
                        "value": 0
                    },
                    {
                        "number": 64,
                        "time": 3.8172359833333336,
                        "value": 1
                    },
                    {
                        "number": 64,
                        "time": 3.9808950000000003,
                        "value": 0
                    },
                    {
                        "number": 64,
                        "time": 4.851162879166667,
                        "value": 1
                    },
                    {
                        "number": 64,
                        "time": 5.318918041666667,
                        "value": 0
                    },
                    {
                        "number": 64,
                        "time": 5.620802579166667,
                        "value": 1
                    },
                    {
                        "number": 64,
                        "time": 6.1139912375000005,
                        "value": 0
                    },
                    {
                        "number": 64,
                        "time": 6.190291725000001,
                        "value": 1
                    },
                    {
                        "number": 64,
                        "time": 6.416981579166667,
                        "value": 0
                    },
                    {
                        "number": 64,
                        "time": 6.910170237500001,
                        "value": 1
                    },
                    {
                        "number": 64,
                        "time": 7.165611000000001,
                        "value": 0
                    },
                    {
                        "number": 64,
                        "time": 7.275085612500001,
                        "value": 1
                    },
                    {
                        "number": 64,
                        "time": 7.710772454166667,
                        "value": 0
                    },
                    {
                        "number": 64,
                        "time": 7.782649725000001,
                        "value": 1
                    },
                    {
                        "number": 64,
                        "time": 7.961790000000001,
                        "value": 0
                    },
                    {
                        "number": 64,
                        "time": 8.079005241666668,
                        "value": 1
                    },
                    {
                        "number": 64,
                        "time": 8.512480475,
                        "value": 0
                    },
                    {
                        "number": 64,
                        "time": 8.586569354166667,
                        "value": 1
                    },
                    {
                        "number": 64,
                        "time": 8.757969,
                        "value": 0
                    },
                    {
                        "number": 64,
                        "time": 14.082416062499998,
                        "value": 1
                    },
                    {
                        "number": 64,
                        "time": 14.338962629166666,
                        "value": 0
                    },
                    {
                        "number": 64,
                        "time": 18.890452579166666,
                        "value": 1
                    },
                    {
                        "number": 64,
                        "time": 19.116036629166665,
                        "value": 0
                    },
                    {
                        "number": 64,
                        "time": 19.97082325,
                        "value": 1
                    },
                    {
                        "number": 64,
                        "time": 20.441895825,
                        "value": 0
                    },
                    {
                        "number": 64,
                        "time": 20.763684837499998,
                        "value": 1
                    },
                    {
                        "number": 64,
                        "time": 21.239180629166665,
                        "value": 0
                    },
                    {
                        "number": 64,
                        "time": 21.30995209583333,
                        "value": 1
                    },
                    {
                        "number": 64,
                        "time": 21.527795516666664,
                        "value": 0
                    },
                    {
                        "number": 64,
                        "time": 22.0906498375,
                        "value": 1
                    },
                    {
                        "number": 64,
                        "time": 22.293011999999997,
                        "value": 0
                    },
                    {
                        "number": 64,
                        "time": 22.34830220833333,
                        "value": 1
                    },
                    {
                        "number": 64,
                        "time": 22.83485604166666,
                        "value": 0
                    },
                    {
                        "number": 64,
                        "time": 22.94101324166666,
                        "value": 1
                    },
                    {
                        "number": 64,
                        "time": 23.10688386666666,
                        "value": 0
                    },
                    {
                        "number": 64,
                        "time": 23.175443724999994,
                        "value": 1
                    },
                    {
                        "number": 64,
                        "time": 23.364536237499994,
                        "value": 0
                    },
                    {
                        "number": 64,
                        "time": 23.440836724999993,
                        "value": 1
                    },
                    {
                        "number": 64,
                        "time": 23.629929237499994,
                        "value": 0
                    },
                    {
                        "number": 64,
                        "time": 23.721710983333328,
                        "value": 1
                    },
                    {
                        "number": 64,
                        "time": 23.885369999999995,
                        "value": 0
                    },
                    {
                        "number": 64,
                        "time": 24.755637879166663,
                        "value": 1
                    },
                    {
                        "number": 64,
                        "time": 25.223393041666665,
                        "value": 0
                    },
                    {
                        "number": 64,
                        "time": 25.525277579166666,
                        "value": 1
                    },
                    {
                        "number": 64,
                        "time": 26.0184662375,
                        "value": 0
                    },
                    {
                        "number": 64,
                        "time": 26.094766725,
                        "value": 1
                    },
                    {
                        "number": 64,
                        "time": 26.321456579166664,
                        "value": 0
                    },
                    {
                        "number": 64,
                        "time": 26.8146452375,
                        "value": 1
                    },
                    {
                        "number": 64,
                        "time": 27.070086,
                        "value": 0
                    },
                    {
                        "number": 64,
                        "time": 27.1795606125,
                        "value": 1
                    },
                    {
                        "number": 64,
                        "time": 27.615247454166667,
                        "value": 0
                    },
                    {
                        "number": 64,
                        "time": 27.687124725,
                        "value": 1
                    },
                    {
                        "number": 64,
                        "time": 27.866265000000002,
                        "value": 0
                    },
                    {
                        "number": 64,
                        "time": 27.98348024166667,
                        "value": 1
                    },
                    {
                        "number": 64,
                        "time": 28.416955475,
                        "value": 0
                    },
                    {
                        "number": 64,
                        "time": 28.491044354166668,
                        "value": 1
                    },
                    {
                        "number": 64,
                        "time": 28.662444,
                        "value": 0
                    },
                    {
                        "number": 64,
                        "time": 33.9868910625,
                        "value": 1
                    },
                    {
                        "number": 64,
                        "time": 34.243437629166664,
                        "value": 0
                    },
                    {
                        "number": 64,
                        "time": 38.79492757916666,
                        "value": 1
                    },
                    {
                        "number": 64,
                        "time": 39.02051162916666,
                        "value": 0
                    },
                    {
                        "number": 64,
                        "time": 39.84875895,
                        "value": 1
                    },
                    {
                        "number": 64,
                        "time": 40.346370824999994,
                        "value": 0
                    },
                    {
                        "number": 64,
                        "time": 40.41824809583333,
                        "value": 1
                    },
                    {
                        "number": 64,
                        "time": 40.60512899999999,
                        "value": 0
                    },
                    {
                        "number": 64,
                        "time": 40.66815983749999,
                        "value": 1
                    },
                    {
                        "number": 64,
                        "time": 41.40794282499999,
                        "value": 0
                    },
                    {
                        "number": 64,
                        "time": 41.478714291666655,
                        "value": 1
                    },
                    {
                        "number": 64,
                        "time": 41.66891260833332,
                        "value": 0
                    },
                    {
                        "number": 64,
                        "time": 41.73747246666665,
                        "value": 1
                    },
                    {
                        "number": 64,
                        "time": 41.938728824999984,
                        "value": 0
                    },
                    {
                        "number": 64,
                        "time": 42.03382798333332,
                        "value": 1
                    },
                    {
                        "number": 64,
                        "time": 42.19748699999998,
                        "value": 0
                    },
                    {
                        "number": 64,
                        "time": 42.25277720833331,
                        "value": 1
                    },
                    {
                        "number": 64,
                        "time": 42.48278447499998,
                        "value": 0
                    },
                    {
                        "number": 64,
                        "time": 42.56461398333332,
                        "value": 1
                    },
                    {
                        "number": 64,
                        "time": 42.73933104166665,
                        "value": 0
                    },
                    {
                        "number": 64,
                        "time": 42.84548824166665,
                        "value": 1
                    },
                    {
                        "number": 64,
                        "time": 43.01135886666665,
                        "value": 0
                    },
                    {
                        "number": 64,
                        "time": 43.07991872499998,
                        "value": 1
                    },
                    {
                        "number": 64,
                        "time": 43.269011237499974,
                        "value": 0
                    },
                    {
                        "number": 64,
                        "time": 43.34531172499997,
                        "value": 1
                    },
                    {
                        "number": 64,
                        "time": 43.53440423749997,
                        "value": 0
                    },
                    {
                        "number": 64,
                        "time": 43.6261859833333,
                        "value": 1
                    },
                    {
                        "number": 64,
                        "time": 43.789844999999964,
                        "value": 0
                    },
                    {
                        "number": 64,
                        "time": 43.876097724999966,
                        "value": 1
                    },
                    {
                        "number": 64,
                        "time": 44.586023999999966,
                        "value": 0
                    },
                    {
                        "number": 64,
                        "time": 44.62583294999997,
                        "value": 1
                    },
                    {
                        "number": 64,
                        "time": 45.123444824999964,
                        "value": 0
                    },
                    {
                        "number": 64,
                        "time": 45.1953220958333,
                        "value": 1
                    },
                    {
                        "number": 64,
                        "time": 45.38220299999996,
                        "value": 0
                    },
                    {
                        "number": 64,
                        "time": 45.44523383749996,
                        "value": 1
                    },
                    {
                        "number": 64,
                        "time": 46.18501682499996,
                        "value": 0
                    },
                    {
                        "number": 64,
                        "time": 46.255788291666626,
                        "value": 1
                    },
                    {
                        "number": 64,
                        "time": 46.44598660833329,
                        "value": 0
                    },
                    {
                        "number": 64,
                        "time": 46.51454646666662,
                        "value": 1
                    },
                    {
                        "number": 64,
                        "time": 46.715802824999955,
                        "value": 0
                    },
                    {
                        "number": 64,
                        "time": 46.81090198333329,
                        "value": 1
                    },
                    {
                        "number": 64,
                        "time": 46.97456099999995,
                        "value": 0
                    },
                    {
                        "number": 64,
                        "time": 47.029851208333284,
                        "value": 1
                    },
                    {
                        "number": 64,
                        "time": 47.25985847499995,
                        "value": 0
                    },
                    {
                        "number": 64,
                        "time": 47.34168798333329,
                        "value": 1
                    },
                    {
                        "number": 64,
                        "time": 47.51640504166662,
                        "value": 0
                    },
                    {
                        "number": 64,
                        "time": 47.62256224166662,
                        "value": 1
                    },
                    {
                        "number": 64,
                        "time": 47.78843286666662,
                        "value": 0
                    },
                    {
                        "number": 64,
                        "time": 47.85699272499995,
                        "value": 1
                    },
                    {
                        "number": 64,
                        "time": 48.046085237499945,
                        "value": 0
                    },
                    {
                        "number": 64,
                        "time": 48.122385724999944,
                        "value": 1
                    },
                    {
                        "number": 64,
                        "time": 48.31147823749994,
                        "value": 0
                    },
                    {
                        "number": 64,
                        "time": 48.40325998333327,
                        "value": 1
                    },
                    {
                        "number": 64,
                        "time": 48.566918999999935,
                        "value": 0
                    },
                    {
                        "number": 64,
                        "time": 48.653171724999936,
                        "value": 1
                    },
                    {
                        "number": 64,
                        "time": 49.36309799999994,
                        "value": 0
                    },
                    {
                        "number": 64,
                        "time": 49.4371868791666,
                        "value": 1
                    },
                    {
                        "number": 64,
                        "time": 49.9049420416666,
                        "value": 0
                    },
                    {
                        "number": 64,
                        "time": 50.261010983333264,
                        "value": 1
                    },
                    {
                        "number": 64,
                        "time": 50.70001523749993,
                        "value": 0
                    },
                    {
                        "number": 64,
                        "time": 50.77631572499993,
                        "value": 1
                    },
                    {
                        "number": 64,
                        "time": 51.0030055791666,
                        "value": 0
                    },
                    {
                        "number": 64,
                        "time": 51.49619423749993,
                        "value": 1
                    },
                    {
                        "number": 64,
                        "time": 51.75163499999993,
                        "value": 0
                    },
                    {
                        "number": 64,
                        "time": 51.86110961249993,
                        "value": 1
                    },
                    {
                        "number": 64,
                        "time": 52.296796454166596,
                        "value": 0
                    },
                    {
                        "number": 64,
                        "time": 52.36867372499993,
                        "value": 1
                    },
                    {
                        "number": 64,
                        "time": 52.54781399999993,
                        "value": 0
                    },
                    {
                        "number": 64,
                        "time": 52.665029241666595,
                        "value": 1
                    },
                    {
                        "number": 64,
                        "time": 52.82868825833326,
                        "value": 0
                    },
                    {
                        "number": 64,
                        "time": 52.89945972499992,
                        "value": 1
                    },
                    {
                        "number": 64,
                        "time": 53.09850447499992,
                        "value": 0
                    },
                    {
                        "number": 64,
                        "time": 53.17259335416659,
                        "value": 1
                    },
                    {
                        "number": 64,
                        "time": 53.34399299999992,
                        "value": 0
                    },
                    {
                        "number": 64,
                        "time": 57.872261062499916,
                        "value": 1
                    },
                    {
                        "number": 64,
                        "time": 58.12880762916658,
                        "value": 0
                    },
                    {
                        "number": 64,
                        "time": 62.68029757916658,
                        "value": 1
                    },
                    {
                        "number": 64,
                        "time": 62.90588162916658,
                        "value": 0
                    },
                    {
                        "number": 64,
                        "time": 63.73412894999991,
                        "value": 1
                    },
                    {
                        "number": 64,
                        "time": 64.23174082499992,
                        "value": 0
                    },
                    {
                        "number": 64,
                        "time": 64.30361809583326,
                        "value": 1
                    },
                    {
                        "number": 64,
                        "time": 64.49049899999993,
                        "value": 0
                    },
                    {
                        "number": 64,
                        "time": 64.55352983749992,
                        "value": 1
                    },
                    {
                        "number": 64,
                        "time": 65.29331282499993,
                        "value": 0
                    },
                    {
                        "number": 64,
                        "time": 65.3640842916666,
                        "value": 1
                    },
                    {
                        "number": 64,
                        "time": 65.55428260833327,
                        "value": 0
                    },
                    {
                        "number": 64,
                        "time": 65.6228424666666,
                        "value": 1
                    },
                    {
                        "number": 64,
                        "time": 65.82409882499994,
                        "value": 0
                    },
                    {
                        "number": 64,
                        "time": 65.91919798333326,
                        "value": 1
                    },
                    {
                        "number": 64,
                        "time": 66.08285699999993,
                        "value": 0
                    },
                    {
                        "number": 64,
                        "time": 66.13814720833327,
                        "value": 1
                    },
                    {
                        "number": 64,
                        "time": 66.36815447499993,
                        "value": 0
                    },
                    {
                        "number": 64,
                        "time": 66.44998398333325,
                        "value": 1
                    },
                    {
                        "number": 64,
                        "time": 66.62470104166658,
                        "value": 0
                    },
                    {
                        "number": 64,
                        "time": 66.73085824166658,
                        "value": 1
                    },
                    {
                        "number": 64,
                        "time": 66.89672886666658,
                        "value": 0
                    },
                    {
                        "number": 64,
                        "time": 66.96528872499991,
                        "value": 1
                    },
                    {
                        "number": 64,
                        "time": 67.1543812374999,
                        "value": 0
                    },
                    {
                        "number": 64,
                        "time": 67.23068172499991,
                        "value": 1
                    },
                    {
                        "number": 64,
                        "time": 67.41977423749991,
                        "value": 0
                    },
                    {
                        "number": 64,
                        "time": 67.51155598333324,
                        "value": 1
                    },
                    {
                        "number": 64,
                        "time": 67.67521499999991,
                        "value": 0
                    },
                    {
                        "number": 64,
                        "time": 67.7614677249999,
                        "value": 1
                    },
                    {
                        "number": 64,
                        "time": 68.4713939999999,
                        "value": 0
                    },
                    {
                        "number": 64,
                        "time": 68.5112029499999,
                        "value": 1
                    },
                    {
                        "number": 64,
                        "time": 69.0088148249999,
                        "value": 0
                    },
                    {
                        "number": 64,
                        "time": 69.08069209583324,
                        "value": 1
                    },
                    {
                        "number": 64,
                        "time": 69.26757299999991,
                        "value": 0
                    },
                    {
                        "number": 64,
                        "time": 69.33060383749991,
                        "value": 1
                    },
                    {
                        "number": 64,
                        "time": 70.07038682499991,
                        "value": 0
                    },
                    {
                        "number": 64,
                        "time": 70.14115829166659,
                        "value": 1
                    },
                    {
                        "number": 64,
                        "time": 70.33135660833325,
                        "value": 0
                    },
                    {
                        "number": 64,
                        "time": 70.39991646666658,
                        "value": 1
                    },
                    {
                        "number": 64,
                        "time": 70.60117282499992,
                        "value": 0
                    },
                    {
                        "number": 64,
                        "time": 70.69627198333325,
                        "value": 1
                    },
                    {
                        "number": 64,
                        "time": 70.85993099999992,
                        "value": 0
                    },
                    {
                        "number": 64,
                        "time": 70.91522120833325,
                        "value": 1
                    },
                    {
                        "number": 64,
                        "time": 71.14522847499991,
                        "value": 0
                    },
                    {
                        "number": 64,
                        "time": 71.22705798333324,
                        "value": 1
                    },
                    {
                        "number": 64,
                        "time": 71.40177504166657,
                        "value": 0
                    },
                    {
                        "number": 64,
                        "time": 71.50793224166657,
                        "value": 1
                    },
                    {
                        "number": 64,
                        "time": 71.67380286666656,
                        "value": 0
                    },
                    {
                        "number": 64,
                        "time": 71.7423627249999,
                        "value": 1
                    },
                    {
                        "number": 64,
                        "time": 71.93145523749989,
                        "value": 0
                    },
                    {
                        "number": 64,
                        "time": 72.0077557249999,
                        "value": 1
                    },
                    {
                        "number": 64,
                        "time": 72.19684823749989,
                        "value": 0
                    },
                    {
                        "number": 64,
                        "time": 72.28862998333322,
                        "value": 1
                    },
                    {
                        "number": 64,
                        "time": 72.4522889999999,
                        "value": 0
                    },
                    {
                        "number": 64,
                        "time": 72.53854172499989,
                        "value": 1
                    },
                    {
                        "number": 64,
                        "time": 73.24846799999989,
                        "value": 0
                    },
                    {
                        "number": 64,
                        "time": 73.32255687916656,
                        "value": 1
                    },
                    {
                        "number": 64,
                        "time": 73.79031204166655,
                        "value": 0
                    },
                    {
                        "number": 64,
                        "time": 74.14638098333322,
                        "value": 1
                    },
                    {
                        "number": 64,
                        "time": 74.58538523749988,
                        "value": 0
                    },
                    {
                        "number": 64,
                        "time": 74.66168572499988,
                        "value": 1
                    },
                    {
                        "number": 64,
                        "time": 74.88837557916655,
                        "value": 0
                    },
                    {
                        "number": 64,
                        "time": 75.38156423749989,
                        "value": 1
                    },
                    {
                        "number": 64,
                        "time": 75.63700499999989,
                        "value": 0
                    },
                    {
                        "number": 64,
                        "time": 75.74647961249988,
                        "value": 1
                    },
                    {
                        "number": 64,
                        "time": 76.18216645416655,
                        "value": 0
                    },
                    {
                        "number": 64,
                        "time": 76.25404372499989,
                        "value": 1
                    },
                    {
                        "number": 64,
                        "time": 76.43318399999988,
                        "value": 0
                    },
                    {
                        "number": 64,
                        "time": 76.55039924166655,
                        "value": 1
                    },
                    {
                        "number": 64,
                        "time": 76.71405825833322,
                        "value": 0
                    },
                    {
                        "number": 64,
                        "time": 76.7848297249999,
                        "value": 1
                    },
                    {
                        "number": 64,
                        "time": 76.9838744749999,
                        "value": 0
                    },
                    {
                        "number": 64,
                        "time": 77.05796335416656,
                        "value": 1
                    },
                    {
                        "number": 64,
                        "time": 77.22936299999989,
                        "value": 0
                    },
                    {
                        "number": 64,
                        "time": 81.7576310624999,
                        "value": 1
                    },
                    {
                        "number": 64,
                        "time": 82.01417762916657,
                        "value": 0
                    },
                    {
                        "number": 64,
                        "time": 86.56566757916657,
                        "value": 1
                    },
                    {
                        "number": 64,
                        "time": 86.79125162916657,
                        "value": 0
                    }
                ]
            },
            "id": 3,
            "name": "Pedale",
            "instrumentNumber": 0,
            "instrument": "acoustic grand piano",
            "instrumentFamily": "piano",
            "channelNumber": 0,
            "isPercussion": false
        },
        {
            "startTime": 0,
            "duration": 0,
            "length": 0,
            "notes": [],
            "controlChanges": {},
            "id": 4,
            "name": "Haydn Piano Sonata in C major, 3. movement"
        },
        {
            "startTime": 0,
            "duration": 0,
            "length": 0,
            "notes": [],
            "controlChanges": {},
            "id": 5,
            "name": "Copyright  2010 by Bernd Krueger"
        },
        {
            "startTime": 0,
            "duration": 0,
            "length": 0,
            "notes": [],
            "controlChanges": {},
            "id": 6,
            "name": "http://www.piano-midi.de/"
        },
        {
            "startTime": 0,
            "duration": 0,
            "length": 0,
            "notes": [],
            "controlChanges": {},
            "id": 7,
            "name": "Edition: 2011-10-28"
        },
        {
            "startTime": 0,
            "duration": 0,
            "length": 0,
            "notes": [],
            "controlChanges": {},
            "id": 8,
            "name": "Spur 8"
        },
        {
            "startTime": 0,
            "duration": 0,
            "length": 0,
            "notes": [],
            "controlChanges": {},
            "id": 9,
            "name": "Spur 9"
        },
        {
            "startTime": 0,
            "duration": 0,
            "length": 0,
            "notes": [],
            "controlChanges": {},
            "id": 10,
            "name": "Spur 10"
        },
        {
            "startTime": 0,
            "duration": 0,
            "length": 0,
            "notes": [],
            "controlChanges": {},
            "id": 11,
            "name": "Spur 11"
        },
        {
            "startTime": 0,
            "duration": 0,
            "length": 0,
            "notes": [],
            "controlChanges": {},
            "id": 12,
            "name": "Spur 12"
        },
        {
            "startTime": 0,
            "duration": 0,
            "length": 0,
            "notes": [],
            "controlChanges": {},
            "id": 13,
            "name": "Spur 13"
        },
        {
            "startTime": 0,
            "duration": 0,
            "length": 0,
            "notes": [],
            "controlChanges": {},
            "id": 14,
            "name": "Spur 14"
        },
        {
            "startTime": 0,
            "duration": 0,
            "length": 0,
            "notes": [],
            "controlChanges": {},
            "id": 15,
            "name": "Spur 15"
        },
        {
            "startTime": 0,
            "duration": 0,
            "length": 0,
            "notes": [],
            "controlChanges": {},
            "id": 16,
            "name": "Spur 16"
        }
    ]
}