{
    "header": {
        "PPQ": 480,
        "timeSignature": [
            3,
            4
        ],
        "bpm": 124.82005109300758,
        "name": "Menuet"
    },
    "startTime": 0,
    "duration": 167.2808160000004,
    "tracks": [
        {
            "startTime": 0,
            "duration": 0,
            "length": 0,
            "notes": [],
            "controlChanges": {},
            "id": 0,
            "name": "Menuet"
        },
        {
            "startTime": 0,
            "duration": 166.80012400000064,
            "length": 720,
            "notes": [
                {
                    "name": "F5",
                    "midi": 77,
                    "time": 0,
                    "velocity": 0.4881889763779528,
                    "duration": 0.0600865
                },
                {
                    "name": "G5",
                    "midi": 79,
                    "time": 0.0600865,
                    "velocity": 0.3779527559055118,
                    "duration": 0.0600865
                },
                {
                    "name": "F5",
                    "midi": 77,
                    "time": 0.120173,
                    "velocity": 0.4409448818897638,
                    "duration": 0.060086500000000015
                },
                {
                    "name": "E5",
                    "midi": 76,
                    "time": 0.18025950000000002,
                    "velocity": 0.3779527559055118,
                    "duration": 0.06008649999999999
                },
                {
                    "name": "F5",
                    "midi": 77,
                    "time": 0.240346,
                    "velocity": 0.48031496062992124,
                    "duration": 0.7210380000000001
                },
                {
                    "name": "A#5",
                    "midi": 82,
                    "time": 0.961384,
                    "velocity": 0.4330708661417323,
                    "duration": 0.16023066666666663
                },
                {
                    "name": "G5",
                    "midi": 79,
                    "time": 1.1216146666666666,
                    "velocity": 0.36220472440944884,
                    "duration": 0.16023066666666663
                },
                {
                    "name": "E5",
                    "midi": 76,
                    "time": 1.2818453333333333,
                    "velocity": 0.3543307086614173,
                    "duration": 0.16023066666666663
                },
                {
                    "name": "F5",
                    "midi": 77,
                    "time": 1.442076,
                    "velocity": 0.3937007874015748,
                    "duration": 0.24034599999999995
                },
                {
                    "name": "A5",
                    "midi": 81,
                    "time": 1.6824219999999999,
                    "velocity": 0.33858267716535434,
                    "duration": 0.24034599999999995
                },
                {
                    "name": "C5",
                    "midi": 72,
                    "time": 1.9227679999999998,
                    "velocity": 0.3937007874015748,
                    "duration": 0.4806920000000001
                },
                {
                    "name": "A#4",
                    "midi": 70,
                    "time": 2.40346,
                    "velocity": 0.36220472440944884,
                    "duration": 0.060086500000000154
                },
                {
                    "name": "C5",
                    "midi": 72,
                    "time": 2.4635465,
                    "velocity": 0.3228346456692913,
                    "duration": 0.060086500000000154
                },
                {
                    "name": "A#4",
                    "midi": 70,
                    "time": 2.5236330000000002,
                    "velocity": 0.36220472440944884,
                    "duration": 0.060086500000000154
                },
                {
                    "name": "C5",
                    "midi": 72,
                    "time": 2.5837195000000004,
                    "velocity": 0.3228346456692913,
                    "duration": 0.060086500000000154
                },
                {
                    "name": "A#4",
                    "midi": 70,
                    "time": 2.6438060000000005,
                    "velocity": 0.36220472440944884,
                    "duration": 0.08011533333333354
                },
                {
                    "name": "C5",
                    "midi": 72,
                    "time": 2.723921333333334,
                    "velocity": 0.33858267716535434,
                    "duration": 0.08011533333333354
                },
                {
                    "name": "A#4",
                    "midi": 70,
                    "time": 2.8040366666666676,
                    "velocity": 0.33858267716535434,
                    "duration": 0.08011533333333354
                },
                {
                    "name": "A4",
                    "midi": 69,
                    "time": 2.884152000000001,
                    "velocity": 0.3937007874015748,
                    "duration": 0.24034600000000017
                },
                {
                    "name": "C5",
                    "midi": 72,
                    "time": 3.1244980000000013,
                    "velocity": 0.33858267716535434,
                    "duration": 0.24034600000000017
                },
                {
                    "name": "F5",
                    "midi": 77,
                    "time": 3.3648440000000015,
                    "velocity": 0.3937007874015748,
                    "duration": 0.16023066666666663
                },
                {
                    "name": "E5",
                    "midi": 76,
                    "time": 3.525074666666668,
                    "velocity": 0.3228346456692913,
                    "duration": 0.16023066666666663
                },
                {
                    "name": "D5",
                    "midi": 74,
                    "time": 3.6853053333333348,
                    "velocity": 0.3228346456692913,
                    "duration": 0.16023066666666663
                },
                {
                    "name": "C5",
                    "midi": 72,
                    "time": 3.8455360000000014,
                    "velocity": 0.3700787401574803,
                    "duration": 0.16023066666666663
                },
                {
                    "name": "A#4",
                    "midi": 70,
                    "time": 4.005766666666668,
                    "velocity": 0.31496062992125984,
                    "duration": 0.16023066666666708
                },
                {
                    "name": "A4",
                    "midi": 69,
                    "time": 4.165997333333335,
                    "velocity": 0.31496062992125984,
                    "duration": 0.16023066666666708
                },
                {
                    "name": "G4",
                    "midi": 67,
                    "time": 4.326228000000002,
                    "velocity": 0.3937007874015748,
                    "duration": 0.7210380000000001
                },
                {
                    "name": "A4",
                    "midi": 69,
                    "time": 5.047266000000002,
                    "velocity": 0.33858267716535434,
                    "duration": 0.12017300000000031
                },
                {
                    "name": "A#4",
                    "midi": 70,
                    "time": 5.167439000000003,
                    "velocity": 0.2992125984251969,
                    "duration": 0.12017300000000031
                },
                {
                    "name": "A4",
                    "midi": 69,
                    "time": 5.287612000000003,
                    "velocity": 0.3700787401574803,
                    "duration": 0.48069200000000034
                },
                {
                    "name": "F5",
                    "midi": 77,
                    "time": 5.768304000000003,
                    "velocity": 0.5039370078740157,
                    "duration": 0.06008649999999971
                },
                {
                    "name": "G5",
                    "midi": 79,
                    "time": 5.828390500000003,
                    "velocity": 0.4015748031496063,
                    "duration": 0.06008649999999971
                },
                {
                    "name": "F5",
                    "midi": 77,
                    "time": 5.888477000000003,
                    "velocity": 0.4409448818897638,
                    "duration": 0.06008649999999971
                },
                {
                    "name": "E5",
                    "midi": 76,
                    "time": 5.948563500000002,
                    "velocity": 0.3937007874015748,
                    "duration": 0.06008649999999971
                },
                {
                    "name": "F5",
                    "midi": 77,
                    "time": 6.008650000000002,
                    "velocity": 0.44881889763779526,
                    "duration": 0.7210380000000001
                },
                {
                    "name": "A#5",
                    "midi": 82,
                    "time": 6.729688000000002,
                    "velocity": 0.3937007874015748,
                    "duration": 0.16023066666666708
                },
                {
                    "name": "G5",
                    "midi": 79,
                    "time": 6.889918666666669,
                    "velocity": 0.36220472440944884,
                    "duration": 0.16023066666666708
                },
                {
                    "name": "E5",
                    "midi": 76,
                    "time": 7.050149333333336,
                    "velocity": 0.3543307086614173,
                    "duration": 0.16023066666666708
                },
                {
                    "name": "F5",
                    "midi": 77,
                    "time": 7.210380000000003,
                    "velocity": 0.3937007874015748,
                    "duration": 0.24034599999999973
                },
                {
                    "name": "A5",
                    "midi": 81,
                    "time": 7.450726000000003,
                    "velocity": 0.33858267716535434,
                    "duration": 0.24034599999999973
                },
                {
                    "name": "C5",
                    "midi": 72,
                    "time": 7.691072000000003,
                    "velocity": 0.3937007874015748,
                    "duration": 0.48069200000000034
                },
                {
                    "name": "A5",
                    "midi": 81,
                    "time": 8.171764000000003,
                    "velocity": 0.3937007874015748,
                    "duration": 0.16023066666666708
                },
                {
                    "name": "B5",
                    "midi": 83,
                    "time": 8.33199466666667,
                    "velocity": 0.36220472440944884,
                    "duration": 0.16023066666666708
                },
                {
                    "name": "C6",
                    "midi": 84,
                    "time": 8.492225333333337,
                    "velocity": 0.36220472440944884,
                    "duration": 0.15021624999999972
                },
                {
                    "name": "C6",
                    "midi": 84,
                    "time": 8.652456000000004,
                    "velocity": 0.4251968503937008,
                    "duration": 0.16023066666666708
                },
                {
                    "name": "B5",
                    "midi": 83,
                    "time": 8.812686666666671,
                    "velocity": 0.3779527559055118,
                    "duration": 0.16023066666666708
                },
                {
                    "name": "A5",
                    "midi": 81,
                    "time": 8.972917333333339,
                    "velocity": 0.3779527559055118,
                    "duration": 0.16023066666666708
                },
                {
                    "name": "G5",
                    "midi": 79,
                    "time": 9.133148000000006,
                    "velocity": 0.41732283464566927,
                    "duration": 0.48069199999999945
                },
                {
                    "name": "A5",
                    "midi": 81,
                    "time": 9.613840000000005,
                    "velocity": 0.3937007874015748,
                    "duration": 0.16023066666666708
                },
                {
                    "name": "B5",
                    "midi": 83,
                    "time": 9.774070666666672,
                    "velocity": 0.3700787401574803,
                    "duration": 0.16023066666666708
                },
                {
                    "name": "C6",
                    "midi": 84,
                    "time": 9.93430133333334,
                    "velocity": 0.3700787401574803,
                    "duration": 0.15021624999999972
                },
                {
                    "name": "C6",
                    "midi": 84,
                    "time": 10.094532000000006,
                    "velocity": 0.41732283464566927,
                    "duration": 0.16023066666666708
                },
                {
                    "name": "B5",
                    "midi": 83,
                    "time": 10.254762666666673,
                    "velocity": 0.36220472440944884,
                    "duration": 0.16023066666666708
                },
                {
                    "name": "A5",
                    "midi": 81,
                    "time": 10.41499333333334,
                    "velocity": 0.36220472440944884,
                    "duration": 0.16023066666666708
                },
                {
                    "name": "G5",
                    "midi": 79,
                    "time": 10.575224000000008,
                    "velocity": 0.3937007874015748,
                    "duration": 0.16023066666666708
                },
                {
                    "name": "F5",
                    "midi": 77,
                    "time": 10.735454666666675,
                    "velocity": 0.3464566929133858,
                    "duration": 0.16023066666666708
                },
                {
                    "name": "E5",
                    "midi": 76,
                    "time": 10.895685333333342,
                    "velocity": 0.3464566929133858,
                    "duration": 0.16023066666666708
                },
                {
                    "name": "F5",
                    "midi": 77,
                    "time": 11.055916000000009,
                    "velocity": 0.3779527559055118,
                    "duration": 0.16023066666666708
                },
                {
                    "name": "E5",
                    "midi": 76,
                    "time": 11.216146666666676,
                    "velocity": 0.3543307086614173,
                    "duration": 0.16023066666666708
                },
                {
                    "name": "D5",
                    "midi": 74,
                    "time": 11.376377333333343,
                    "velocity": 0.3543307086614173,
                    "duration": 0.16023066666666708
                },
                {
                    "name": "E5",
                    "midi": 76,
                    "time": 11.53660800000001,
                    "velocity": 0.3937007874015748,
                    "duration": 0.16023066666666708
                },
                {
                    "name": "F5",
                    "midi": 77,
                    "time": 11.696838666666677,
                    "velocity": 0.36220472440944884,
                    "duration": 0.16023066666666708
                },
                {
                    "name": "G5",
                    "midi": 79,
                    "time": 11.857069333333344,
                    "velocity": 0.36220472440944884,
                    "duration": 0.16023066666666708
                },
                {
                    "name": "C5",
                    "midi": 72,
                    "time": 12.017300000000011,
                    "velocity": 0.3937007874015748,
                    "duration": 0.48069199999999945
                },
                {
                    "name": "B4",
                    "midi": 71,
                    "time": 12.49799200000001,
                    "velocity": 0.36220472440944884,
                    "duration": 0.0600865000000006
                },
                {
                    "name": "C5",
                    "midi": 72,
                    "time": 12.558078500000011,
                    "velocity": 0.3228346456692913,
                    "duration": 0.0600865000000006
                },
                {
                    "name": "B4",
                    "midi": 71,
                    "time": 12.618165000000012,
                    "velocity": 0.36220472440944884,
                    "duration": 0.0600865000000006
                },
                {
                    "name": "C5",
                    "midi": 72,
                    "time": 12.678251500000012,
                    "velocity": 0.3228346456692913,
                    "duration": 0.0600865000000006
                },
                {
                    "name": "B4",
                    "midi": 71,
                    "time": 12.738338000000013,
                    "velocity": 0.36220472440944884,
                    "duration": 0.08011533333333354
                },
                {
                    "name": "C5",
                    "midi": 72,
                    "time": 12.818453333333347,
                    "velocity": 0.33858267716535434,
                    "duration": 0.08011533333333354
                },
                {
                    "name": "B4",
                    "midi": 71,
                    "time": 12.89856866666668,
                    "velocity": 0.33858267716535434,
                    "duration": 0.08011533333333354
                },
                {
                    "name": "C5",
                    "midi": 72,
                    "time": 12.978684000000014,
                    "velocity": 0.3937007874015748,
                    "duration": 0.9613840000000007
                },
                {
                    "name": "F5",
                    "midi": 77,
                    "time": 14.420760000000014,
                    "velocity": 0.5039370078740157,
                    "duration": 0.0600865000000006
                },
                {
                    "name": "G5",
                    "midi": 79,
                    "time": 14.480846500000014,
                    "velocity": 0.4015748031496063,
                    "duration": 0.0600865000000006
                },
                {
                    "name": "F5",
                    "midi": 77,
                    "time": 14.540933000000015,
                    "velocity": 0.4409448818897638,
                    "duration": 0.0600865000000006
                },
                {
                    "name": "E5",
                    "midi": 76,
                    "time": 14.601019500000016,
                    "velocity": 0.4015748031496063,
                    "duration": 0.0600865000000006
                },
                {
                    "name": "F5",
                    "midi": 77,
                    "time": 14.661106000000016,
                    "velocity": 0.4881889763779528,
                    "duration": 0.7210380000000001
                },
                {
                    "name": "A#5",
                    "midi": 82,
                    "time": 15.382144000000016,
                    "velocity": 0.3937007874015748,
                    "duration": 0.16023066666666708
                },
                {
                    "name": "G5",
                    "midi": 79,
                    "time": 15.542374666666683,
                    "velocity": 0.36220472440944884,
                    "duration": 0.16023066666666708
                },
                {
                    "name": "E5",
                    "midi": 76,
                    "time": 15.70260533333335,
                    "velocity": 0.3543307086614173,
                    "duration": 0.16023066666666708
                },
                {
                    "name": "F5",
                    "midi": 77,
                    "time": 15.862836000000017,
                    "velocity": 0.3937007874015748,
                    "duration": 0.24034600000000061
                },
                {
                    "name": "A5",
                    "midi": 81,
                    "time": 16.103182000000018,
                    "velocity": 0.33858267716535434,
                    "duration": 0.24034599999999884
                },
                {
                    "name": "C5",
                    "midi": 72,
                    "time": 16.343528000000017,
                    "velocity": 0.3937007874015748,
                    "duration": 0.48069200000000123
                },
                {
                    "name": "A#4",
                    "midi": 70,
                    "time": 16.824220000000018,
                    "velocity": 0.36220472440944884,
                    "duration": 0.0600865000000006
                },
                {
                    "name": "C5",
                    "midi": 72,
                    "time": 16.88430650000002,
                    "velocity": 0.3228346456692913,
                    "duration": 0.0600865000000006
                },
                {
                    "name": "A#4",
                    "midi": 70,
                    "time": 16.94439300000002,
                    "velocity": 0.36220472440944884,
                    "duration": 0.0600865000000006
                },
                {
                    "name": "C5",
                    "midi": 72,
                    "time": 17.00447950000002,
                    "velocity": 0.3228346456692913,
                    "duration": 0.0600865000000006
                },
                {
                    "name": "A#4",
                    "midi": 70,
                    "time": 17.06456600000002,
                    "velocity": 0.36220472440944884,
                    "duration": 0.08011533333333176
                },
                {
                    "name": "C5",
                    "midi": 72,
                    "time": 17.144681333333352,
                    "velocity": 0.33858267716535434,
                    "duration": 0.08011533333333176
                },
                {
                    "name": "A#4",
                    "midi": 70,
                    "time": 17.224796666666684,
                    "velocity": 0.33858267716535434,
                    "duration": 0.08011533333333176
                },
                {
                    "name": "A4",
                    "midi": 69,
                    "time": 17.304912000000016,
                    "velocity": 0.3937007874015748,
                    "duration": 0.24034599999999884
                },
                {
                    "name": "C5",
                    "midi": 72,
                    "time": 17.545258000000015,
                    "velocity": 0.33858267716535434,
                    "duration": 0.24034599999999884
                },
                {
                    "name": "F5",
                    "midi": 77,
                    "time": 17.785604000000014,
                    "velocity": 0.3937007874015748,
                    "duration": 0.16023066666666708
                },
                {
                    "name": "E5",
                    "midi": 76,
                    "time": 17.94583466666668,
                    "velocity": 0.3228346456692913,
                    "duration": 0.16023066666666708
                },
                {
                    "name": "D5",
                    "midi": 74,
                    "time": 18.106065333333348,
                    "velocity": 0.3228346456692913,
                    "duration": 0.16023066666666708
                },
                {
                    "name": "C5",
                    "midi": 72,
                    "time": 18.266296000000015,
                    "velocity": 0.3700787401574803,
                    "duration": 0.16023066666666708
                },
                {
                    "name": "A#4",
                    "midi": 70,
                    "time": 18.426526666666682,
                    "velocity": 0.31496062992125984,
                    "duration": 0.16023066666666708
                },
                {
                    "name": "A4",
                    "midi": 69,
                    "time": 18.58675733333335,
                    "velocity": 0.31496062992125984,
                    "duration": 0.16023066666666708
                },
                {
                    "name": "G4",
                    "midi": 67,
                    "time": 18.746988000000016,
                    "velocity": 0.3937007874015748,
                    "duration": 0.7210380000000001
                },
                {
                    "name": "A4",
                    "midi": 69,
                    "time": 19.468026000000016,
                    "velocity": 0.33858267716535434,
                    "duration": 0.1201730000000012
                },
                {
                    "name": "A#4",
                    "midi": 70,
                    "time": 19.588199000000017,
                    "velocity": 0.2992125984251969,
                    "duration": 0.1201730000000012
                },
                {
                    "name": "A4",
                    "midi": 69,
                    "time": 19.70837200000002,
                    "velocity": 0.3700787401574803,
                    "duration": 0.48069200000000123
                },
                {
                    "name": "F5",
                    "midi": 77,
                    "time": 20.18906400000002,
                    "velocity": 0.5039370078740157,
                    "duration": 0.0600865000000006
                },
                {
                    "name": "G5",
                    "midi": 79,
                    "time": 20.24915050000002,
                    "velocity": 0.4015748031496063,
                    "duration": 0.0600865000000006
                },
                {
                    "name": "F5",
                    "midi": 77,
                    "time": 20.30923700000002,
                    "velocity": 0.4409448818897638,
                    "duration": 0.0600865000000006
                },
                {
                    "name": "E5",
                    "midi": 76,
                    "time": 20.36932350000002,
                    "velocity": 0.4251968503937008,
                    "duration": 0.0600865000000006
                },
                {
                    "name": "F5",
                    "midi": 77,
                    "time": 20.429410000000022,
                    "velocity": 0.5118110236220472,
                    "duration": 0.7210380000000001
                },
                {
                    "name": "A#5",
                    "midi": 82,
                    "time": 21.150448000000022,
                    "velocity": 0.4566929133858268,
                    "duration": 0.16023066666666708
                },
                {
                    "name": "G5",
                    "midi": 79,
                    "time": 21.31067866666669,
                    "velocity": 0.36220472440944884,
                    "duration": 0.16023066666666708
                },
                {
                    "name": "E5",
                    "midi": 76,
                    "time": 21.470909333333356,
                    "velocity": 0.3543307086614173,
                    "duration": 0.16023066666666708
                },
                {
                    "name": "F5",
                    "midi": 77,
                    "time": 21.631140000000023,
                    "velocity": 0.3937007874015748,
                    "duration": 0.24034599999999884
                },
                {
                    "name": "A5",
                    "midi": 81,
                    "time": 21.871486000000022,
                    "velocity": 0.33858267716535434,
                    "duration": 0.24034599999999884
                },
                {
                    "name": "C5",
                    "midi": 72,
                    "time": 22.11183200000002,
                    "velocity": 0.3937007874015748,
                    "duration": 0.48069200000000123
                },
                {
                    "name": "A5",
                    "midi": 81,
                    "time": 22.592524000000022,
                    "velocity": 0.3937007874015748,
                    "duration": 0.16023066666666708
                },
                {
                    "name": "B5",
                    "midi": 83,
                    "time": 22.75275466666669,
                    "velocity": 0.36220472440944884,
                    "duration": 0.16023066666666708
                },
                {
                    "name": "C6",
                    "midi": 84,
                    "time": 22.912985333333356,
                    "velocity": 0.36220472440944884,
                    "duration": 0.15021624999999972
                },
                {
                    "name": "C6",
                    "midi": 84,
                    "time": 23.073216000000023,
                    "velocity": 0.4251968503937008,
                    "duration": 0.16023066666666708
                },
                {
                    "name": "B5",
                    "midi": 83,
                    "time": 23.23344666666669,
                    "velocity": 0.3779527559055118,
                    "duration": 0.16023066666666708
                },
                {
                    "name": "A5",
                    "midi": 81,
                    "time": 23.393677333333358,
                    "velocity": 0.3779527559055118,
                    "duration": 0.16023066666666708
                },
                {
                    "name": "G5",
                    "midi": 79,
                    "time": 23.553908000000025,
                    "velocity": 0.41732283464566927,
                    "duration": 0.48069200000000123
                },
                {
                    "name": "A5",
                    "midi": 81,
                    "time": 24.034600000000026,
                    "velocity": 0.3937007874015748,
                    "duration": 0.16023066666666708
                },
                {
                    "name": "B5",
                    "midi": 83,
                    "time": 24.194830666666693,
                    "velocity": 0.3700787401574803,
                    "duration": 0.16023066666666708
                },
                {
                    "name": "C6",
                    "midi": 84,
                    "time": 24.35506133333336,
                    "velocity": 0.3700787401574803,
                    "duration": 0.15021624999999972
                },
                {
                    "name": "C6",
                    "midi": 84,
                    "time": 24.515292000000027,
                    "velocity": 0.41732283464566927,
                    "duration": 0.16023066666666708
                },
                {
                    "name": "B5",
                    "midi": 83,
                    "time": 24.675522666666694,
                    "velocity": 0.36220472440944884,
                    "duration": 0.16023066666666708
                },
                {
                    "name": "A5",
                    "midi": 81,
                    "time": 24.83575333333336,
                    "velocity": 0.36220472440944884,
                    "duration": 0.16023066666666708
                },
                {
                    "name": "G5",
                    "midi": 79,
                    "time": 24.99598400000003,
                    "velocity": 0.3937007874015748,
                    "duration": 0.16023066666666708
                },
                {
                    "name": "F5",
                    "midi": 77,
                    "time": 25.156214666666695,
                    "velocity": 0.3464566929133858,
                    "duration": 0.16023066666666708
                },
                {
                    "name": "E5",
                    "midi": 76,
                    "time": 25.316445333333363,
                    "velocity": 0.3464566929133858,
                    "duration": 0.16023066666666708
                },
                {
                    "name": "F5",
                    "midi": 77,
                    "time": 25.47667600000003,
                    "velocity": 0.3779527559055118,
                    "duration": 0.16023066666666708
                },
                {
                    "name": "E5",
                    "midi": 76,
                    "time": 25.636906666666697,
                    "velocity": 0.3543307086614173,
                    "duration": 0.16023066666666708
                },
                {
                    "name": "D5",
                    "midi": 74,
                    "time": 25.797137333333364,
                    "velocity": 0.3543307086614173,
                    "duration": 0.16023066666666708
                },
                {
                    "name": "E5",
                    "midi": 76,
                    "time": 25.95736800000003,
                    "velocity": 0.3937007874015748,
                    "duration": 0.16023066666666708
                },
                {
                    "name": "F5",
                    "midi": 77,
                    "time": 26.117598666666698,
                    "velocity": 0.36220472440944884,
                    "duration": 0.16023066666666708
                },
                {
                    "name": "G5",
                    "midi": 79,
                    "time": 26.277829333333365,
                    "velocity": 0.36220472440944884,
                    "duration": 0.16023066666666708
                },
                {
                    "name": "C5",
                    "midi": 72,
                    "time": 26.438060000000032,
                    "velocity": 0.3937007874015748,
                    "duration": 0.48069200000000123
                },
                {
                    "name": "B4",
                    "midi": 71,
                    "time": 26.918752000000033,
                    "velocity": 0.36220472440944884,
                    "duration": 0.0600865000000006
                },
                {
                    "name": "C5",
                    "midi": 72,
                    "time": 26.978838500000034,
                    "velocity": 0.3228346456692913,
                    "duration": 0.0600865000000006
                },
                {
                    "name": "B4",
                    "midi": 71,
                    "time": 27.038925000000035,
                    "velocity": 0.36220472440944884,
                    "duration": 0.0600865000000006
                },
                {
                    "name": "C5",
                    "midi": 72,
                    "time": 27.099011500000035,
                    "velocity": 0.3228346456692913,
                    "duration": 0.0600865000000006
                },
                {
                    "name": "B4",
                    "midi": 71,
                    "time": 27.159098000000036,
                    "velocity": 0.36220472440944884,
                    "duration": 0.08011533333333176
                },
                {
                    "name": "C5",
                    "midi": 72,
                    "time": 27.239213333333367,
                    "velocity": 0.33858267716535434,
                    "duration": 0.08011533333333176
                },
                {
                    "name": "B4",
                    "midi": 71,
                    "time": 27.3193286666667,
                    "velocity": 0.33858267716535434,
                    "duration": 0.08011533333333176
                },
                {
                    "name": "C5",
                    "midi": 72,
                    "time": 27.39944400000003,
                    "velocity": 0.3937007874015748,
                    "duration": 0.9613839999999989
                },
                {
                    "name": "C5",
                    "midi": 72,
                    "time": 28.84152000000003,
                    "velocity": 0.3937007874015748,
                    "duration": 0.9613839999999989
                },
                {
                    "name": "G5",
                    "midi": 79,
                    "time": 29.80290400000003,
                    "velocity": 0.3937007874015748,
                    "duration": 0.16023066666666708
                },
                {
                    "name": "E5",
                    "midi": 76,
                    "time": 29.963134666666697,
                    "velocity": 0.36220472440944884,
                    "duration": 0.16023066666666708
                },
                {
                    "name": "C5",
                    "midi": 72,
                    "time": 30.123365333333364,
                    "velocity": 0.3543307086614173,
                    "duration": 0.16023066666666708
                },
                {
                    "name": "A5",
                    "midi": 81,
                    "time": 30.28359600000003,
                    "velocity": 0.3937007874015748,
                    "duration": 0.16023066666666708
                },
                {
                    "name": "F5",
                    "midi": 77,
                    "time": 30.4438266666667,
                    "velocity": 0.3543307086614173,
                    "duration": 0.16023066666666708
                },
                {
                    "name": "C5",
                    "midi": 72,
                    "time": 30.604057333333365,
                    "velocity": 0.3543307086614173,
                    "duration": 0.16023066666666708
                },
                {
                    "name": "A#5",
                    "midi": 82,
                    "time": 30.764288000000032,
                    "velocity": 0.4330708661417323,
                    "duration": 0.16023066666666708
                },
                {
                    "name": "A5",
                    "midi": 81,
                    "time": 30.9245186666667,
                    "velocity": 0.3779527559055118,
                    "duration": 0.16023066666666708
                },
                {
                    "name": "G5",
                    "midi": 79,
                    "time": 31.084749333333367,
                    "velocity": 0.3779527559055118,
                    "duration": 0.16023066666666708
                },
                {
                    "name": "A5",
                    "midi": 81,
                    "time": 31.244980000000034,
                    "velocity": 0.4251968503937008,
                    "duration": 0.48069200000000123
                },
                {
                    "name": "G5",
                    "midi": 79,
                    "time": 31.725672000000035,
                    "velocity": 0.41732283464566927,
                    "duration": 0.16023066666666708
                },
                {
                    "name": "A#5",
                    "midi": 82,
                    "time": 31.885902666666702,
                    "velocity": 0.3937007874015748,
                    "duration": 0.16023066666666352
                },
                {
                    "name": "A5",
                    "midi": 81,
                    "time": 32.046133333333366,
                    "velocity": 0.3700787401574803,
                    "duration": 0.16023066666666352
                },
                {
                    "name": "G5",
                    "midi": 79,
                    "time": 32.20636400000003,
                    "velocity": 0.4015748031496063,
                    "duration": 0.16023066666666352
                },
                {
                    "name": "D6",
                    "midi": 86,
                    "time": 32.36659466666669,
                    "velocity": 0.4330708661417323,
                    "duration": 0.16023066666666352
                },
                {
                    "name": "C6",
                    "midi": 84,
                    "time": 32.526825333333356,
                    "velocity": 0.3858267716535433,
                    "duration": 0.16023066666666352
                },
                {
                    "name": "A#5",
                    "midi": 82,
                    "time": 32.68705600000002,
                    "velocity": 0.4251968503937008,
                    "duration": 0.16023066666666352
                },
                {
                    "name": "A5",
                    "midi": 81,
                    "time": 32.84728666666668,
                    "velocity": 0.3937007874015748,
                    "duration": 0.16023066666666352
                },
                {
                    "name": "G5",
                    "midi": 79,
                    "time": 33.00751733333335,
                    "velocity": 0.3543307086614173,
                    "duration": 0.16023066666666352
                },
                {
                    "name": "F5",
                    "midi": 77,
                    "time": 33.16774800000001,
                    "velocity": 0.3937007874015748,
                    "duration": 0.2403460000000024
                },
                {
                    "name": "E5",
                    "midi": 76,
                    "time": 33.40809400000001,
                    "velocity": 0.33858267716535434,
                    "duration": 0.7210380000000001
                },
                {
                    "name": "C5",
                    "midi": 72,
                    "time": 34.85017000000001,
                    "velocity": 0.3543307086614173,
                    "duration": 0.4806919999999977
                },
                {
                    "name": "G#5",
                    "midi": 80,
                    "time": 35.33086200000001,
                    "velocity": 0.41732283464566927,
                    "duration": 0.4806919999999977
                },
                {
                    "name": "C5",
                    "midi": 72,
                    "time": 35.81155400000001,
                    "velocity": 0.3779527559055118,
                    "duration": 0.4806919999999977
                },
                {
                    "name": "A#4",
                    "midi": 70,
                    "time": 36.292246000000006,
                    "velocity": 0.31496062992125984,
                    "duration": 0.2403460000000024
                },
                {
                    "name": "G5",
                    "midi": 79,
                    "time": 36.53259200000001,
                    "velocity": 0.3858267716535433,
                    "duration": 0.2403460000000024
                },
                {
                    "name": "A#4",
                    "midi": 70,
                    "time": 36.77293800000001,
                    "velocity": 0.31496062992125984,
                    "duration": 0.4806919999999977
                },
                {
                    "name": "G#4",
                    "midi": 68,
                    "time": 37.25363000000001,
                    "velocity": 0.31496062992125984,
                    "duration": 0.4806919999999977
                },
                {
                    "name": "G4",
                    "midi": 67,
                    "time": 37.734322000000006,
                    "velocity": 0.33858267716535434,
                    "duration": 0.2403460000000024
                },
                {
                    "name": "C#5",
                    "midi": 73,
                    "time": 37.97466800000001,
                    "velocity": 0.3937007874015748,
                    "duration": 0.2403460000000024
                },
                {
                    "name": "A#4",
                    "midi": 70,
                    "time": 38.21501400000001,
                    "velocity": 0.36220472440944884,
                    "duration": 0.2403460000000024
                },
                {
                    "name": "G4",
                    "midi": 67,
                    "time": 38.45536000000001,
                    "velocity": 0.3700787401574803,
                    "duration": 0.2403460000000024
                },
                {
                    "name": "F4",
                    "midi": 65,
                    "time": 38.695706000000015,
                    "velocity": 0.33858267716535434,
                    "duration": 0.2403460000000024
                },
                {
                    "name": "F4",
                    "midi": 65,
                    "time": 38.93605200000002,
                    "velocity": 0.3700787401574803,
                    "duration": 0.2403460000000024
                },
                {
                    "name": "E4",
                    "midi": 64,
                    "time": 39.17639800000002,
                    "velocity": 0.30708661417322836,
                    "duration": 0.7210380000000001
                },
                {
                    "name": "F5",
                    "midi": 77,
                    "time": 40.37812800000002,
                    "velocity": 0.5039370078740157,
                    "duration": 0.060086499999997045
                },
                {
                    "name": "G5",
                    "midi": 79,
                    "time": 40.438214500000015,
                    "velocity": 0.4015748031496063,
                    "duration": 0.060086499999997045
                },
                {
                    "name": "F5",
                    "midi": 77,
                    "time": 40.49830100000001,
                    "velocity": 0.4409448818897638,
                    "duration": 0.060086499999997045
                },
                {
                    "name": "E5",
                    "midi": 76,
                    "time": 40.55838750000001,
                    "velocity": 0.4015748031496063,
                    "duration": 0.060086499999997045
                },
                {
                    "name": "F5",
                    "midi": 77,
                    "time": 40.618474000000006,
                    "velocity": 0.5039370078740157,
                    "duration": 0.7210380000000001
                },
                {
                    "name": "A#5",
                    "midi": 82,
                    "time": 41.339512000000006,
                    "velocity": 0.4330708661417323,
                    "duration": 0.16023066666666352
                },
                {
                    "name": "G5",
                    "midi": 79,
                    "time": 41.49974266666667,
                    "velocity": 0.36220472440944884,
                    "duration": 0.16023066666666352
                },
                {
                    "name": "E5",
                    "midi": 76,
                    "time": 41.65997333333333,
                    "velocity": 0.3543307086614173,
                    "duration": 0.16023066666666352
                },
                {
                    "name": "F5",
                    "midi": 77,
                    "time": 41.820204,
                    "velocity": 0.3937007874015748,
                    "duration": 0.2403460000000024
                },
                {
                    "name": "A5",
                    "midi": 81,
                    "time": 42.06055,
                    "velocity": 0.33858267716535434,
                    "duration": 0.2403460000000024
                },
                {
                    "name": "C5",
                    "midi": 72,
                    "time": 42.300896,
                    "velocity": 0.3937007874015748,
                    "duration": 0.4806919999999977
                },
                {
                    "name": "A#4",
                    "midi": 70,
                    "time": 42.781588,
                    "velocity": 0.36220472440944884,
                    "duration": 0.060086499999997045
                },
                {
                    "name": "C5",
                    "midi": 72,
                    "time": 42.841674499999996,
                    "velocity": 0.3228346456692913,
                    "duration": 0.060086499999997045
                },
                {
                    "name": "A#4",
                    "midi": 70,
                    "time": 42.90176099999999,
                    "velocity": 0.36220472440944884,
                    "duration": 0.060086499999997045
                },
                {
                    "name": "C5",
                    "midi": 72,
                    "time": 42.96184749999999,
                    "velocity": 0.3228346456692913,
                    "duration": 0.060086499999997045
                },
                {
                    "name": "A#4",
                    "midi": 70,
                    "time": 43.02193399999999,
                    "velocity": 0.36220472440944884,
                    "duration": 0.08011533333333176
                },
                {
                    "name": "C5",
                    "midi": 72,
                    "time": 43.10204933333332,
                    "velocity": 0.33858267716535434,
                    "duration": 0.08011533333333176
                },
                {
                    "name": "A#4",
                    "midi": 70,
                    "time": 43.18216466666665,
                    "velocity": 0.33858267716535434,
                    "duration": 0.08011533333333176
                },
                {
                    "name": "A4",
                    "midi": 69,
                    "time": 43.26227999999998,
                    "velocity": 0.3937007874015748,
                    "duration": 0.2403460000000024
                },
                {
                    "name": "C5",
                    "midi": 72,
                    "time": 43.502625999999985,
                    "velocity": 0.33858267716535434,
                    "duration": 0.2403460000000024
                },
                {
                    "name": "F5",
                    "midi": 77,
                    "time": 43.74297199999999,
                    "velocity": 0.3937007874015748,
                    "duration": 0.16023066666666352
                },
                {
                    "name": "E5",
                    "midi": 76,
                    "time": 43.90320266666665,
                    "velocity": 0.3228346456692913,
                    "duration": 0.16023066666666352
                },
                {
                    "name": "D5",
                    "midi": 74,
                    "time": 44.063433333333315,
                    "velocity": 0.3228346456692913,
                    "duration": 0.16023066666666352
                },
                {
                    "name": "C5",
                    "midi": 72,
                    "time": 44.22366399999998,
                    "velocity": 0.3700787401574803,
                    "duration": 0.16023066666666352
                },
                {
                    "name": "A#4",
                    "midi": 70,
                    "time": 44.38389466666664,
                    "velocity": 0.31496062992125984,
                    "duration": 0.16023066666666352
                },
                {
                    "name": "A4",
                    "midi": 69,
                    "time": 44.544125333333305,
                    "velocity": 0.31496062992125984,
                    "duration": 0.16023066666666352
                },
                {
                    "name": "G4",
                    "midi": 67,
                    "time": 44.70435599999997,
                    "velocity": 0.3937007874015748,
                    "duration": 0.7210380000000001
                },
                {
                    "name": "A4",
                    "midi": 69,
                    "time": 45.42539399999997,
                    "velocity": 0.33858267716535434,
                    "duration": 0.1201730000000012
                },
                {
                    "name": "A#4",
                    "midi": 70,
                    "time": 45.54556699999997,
                    "velocity": 0.2992125984251969,
                    "duration": 0.1201730000000012
                },
                {
                    "name": "A4",
                    "midi": 69,
                    "time": 45.66573999999997,
                    "velocity": 0.3700787401574803,
                    "duration": 0.4806919999999977
                },
                {
                    "name": "F5",
                    "midi": 77,
                    "time": 46.14643199999997,
                    "velocity": 0.5039370078740157,
                    "duration": 0.060086499999997045
                },
                {
                    "name": "G5",
                    "midi": 79,
                    "time": 46.206518499999966,
                    "velocity": 0.4015748031496063,
                    "duration": 0.060086499999997045
                },
                {
                    "name": "F5",
                    "midi": 77,
                    "time": 46.26660499999996,
                    "velocity": 0.4409448818897638,
                    "duration": 0.060086499999997045
                },
                {
                    "name": "E5",
                    "midi": 76,
                    "time": 46.32669149999996,
                    "velocity": 0.4251968503937008,
                    "duration": 0.060086499999997045
                },
                {
                    "name": "F5",
                    "midi": 77,
                    "time": 46.38677799999996,
                    "velocity": 0.49606299212598426,
                    "duration": 0.7210380000000001
                },
                {
                    "name": "A#5",
                    "midi": 82,
                    "time": 47.10781599999996,
                    "velocity": 0.4330708661417323,
                    "duration": 0.16023066666666352
                },
                {
                    "name": "G5",
                    "midi": 79,
                    "time": 47.26804666666662,
                    "velocity": 0.36220472440944884,
                    "duration": 0.16023066666666352
                },
                {
                    "name": "E5",
                    "midi": 76,
                    "time": 47.428277333333284,
                    "velocity": 0.3543307086614173,
                    "duration": 0.16023066666666352
                },
                {
                    "name": "F5",
                    "midi": 77,
                    "time": 47.58850799999995,
                    "velocity": 0.3937007874015748,
                    "duration": 0.2403460000000024
                },
                {
                    "name": "A5",
                    "midi": 81,
                    "time": 47.82885399999995,
                    "velocity": 0.33858267716535434,
                    "duration": 0.2403460000000024
                },
                {
                    "name": "C5",
                    "midi": 72,
                    "time": 48.06919999999995,
                    "velocity": 0.3937007874015748,
                    "duration": 0.4806919999999977
                },
                {
                    "name": "D5",
                    "midi": 74,
                    "time": 48.54989199999995,
                    "velocity": 0.3937007874015748,
                    "duration": 0.16023066666666352
                },
                {
                    "name": "E5",
                    "midi": 76,
                    "time": 48.710122666666614,
                    "velocity": 0.36220472440944884,
                    "duration": 0.16023066666666352
                },
                {
                    "name": "F5",
                    "midi": 77,
                    "time": 48.87035333333328,
                    "velocity": 0.36220472440944884,
                    "duration": 0.15021624999999972
                },
                {
                    "name": "F5",
                    "midi": 77,
                    "time": 49.03058399999994,
                    "velocity": 0.4251968503937008,
                    "duration": 0.16023066666666352
                },
                {
                    "name": "E5",
                    "midi": 76,
                    "time": 49.190814666666604,
                    "velocity": 0.3779527559055118,
                    "duration": 0.16023066666666352
                },
                {
                    "name": "D5",
                    "midi": 74,
                    "time": 49.35104533333327,
                    "velocity": 0.3779527559055118,
                    "duration": 0.16023066666666352
                },
                {
                    "name": "C5",
                    "midi": 72,
                    "time": 49.51127599999993,
                    "velocity": 0.4015748031496063,
                    "duration": 0.4806919999999977
                },
                {
                    "name": "D5",
                    "midi": 74,
                    "time": 49.99196799999993,
                    "velocity": 0.3937007874015748,
                    "duration": 0.16023066666666352
                },
                {
                    "name": "E5",
                    "midi": 76,
                    "time": 50.15219866666659,
                    "velocity": 0.3700787401574803,
                    "duration": 0.16023066666666352
                },
                {
                    "name": "F5",
                    "midi": 77,
                    "time": 50.312429333333256,
                    "velocity": 0.3700787401574803,
                    "duration": 0.15021624999999972
                },
                {
                    "name": "F5",
                    "midi": 77,
                    "time": 50.47265999999992,
                    "velocity": 0.41732283464566927,
                    "duration": 0.16023066666666352
                },
                {
                    "name": "E5",
                    "midi": 76,
                    "time": 50.63289066666658,
                    "velocity": 0.36220472440944884,
                    "duration": 0.16023066666666352
                },
                {
                    "name": "D5",
                    "midi": 74,
                    "time": 50.79312133333325,
                    "velocity": 0.33858267716535434,
                    "duration": 0.16023066666666352
                },
                {
                    "name": "C5",
                    "midi": 72,
                    "time": 50.95335199999991,
                    "velocity": 0.44881889763779526,
                    "duration": 0.16023066666666352
                },
                {
                    "name": "F5",
                    "midi": 77,
                    "time": 51.113582666666574,
                    "velocity": 0.3858267716535433,
                    "duration": 0.16023066666666352
                },
                {
                    "name": "A5",
                    "midi": 81,
                    "time": 51.27381333333324,
                    "velocity": 0.41732283464566927,
                    "duration": 0.16023066666666352
                },
                {
                    "name": "C5",
                    "midi": 72,
                    "time": 51.4340439999999,
                    "velocity": 0.44881889763779526,
                    "duration": 0.16023066666666352
                },
                {
                    "name": "G5",
                    "midi": 79,
                    "time": 51.594274666666564,
                    "velocity": 0.3858267716535433,
                    "duration": 0.16023066666666352
                },
                {
                    "name": "A#5",
                    "midi": 82,
                    "time": 51.75450533333323,
                    "velocity": 0.4330708661417323,
                    "duration": 0.16023066666666352
                },
                {
                    "name": "A5",
                    "midi": 81,
                    "time": 51.91473599999989,
                    "velocity": 0.44881889763779526,
                    "duration": 0.16023066666666352
                },
                {
                    "name": "A#5",
                    "midi": 82,
                    "time": 52.074966666666555,
                    "velocity": 0.36220472440944884,
                    "duration": 0.16023066666666352
                },
                {
                    "name": "C6",
                    "midi": 84,
                    "time": 52.23519733333322,
                    "velocity": 0.36220472440944884,
                    "duration": 0.16023066666666352
                },
                {
                    "name": "F5",
                    "midi": 77,
                    "time": 52.39542799999988,
                    "velocity": 0.3937007874015748,
                    "duration": 0.4806919999999977
                },
                {
                    "name": "E5",
                    "midi": 76,
                    "time": 52.87611999999988,
                    "velocity": 0.36220472440944884,
                    "duration": 0.060086499999997045
                },
                {
                    "name": "F5",
                    "midi": 77,
                    "time": 52.93620649999988,
                    "velocity": 0.3228346456692913,
                    "duration": 0.060086499999997045
                },
                {
                    "name": "E5",
                    "midi": 76,
                    "time": 52.99629299999987,
                    "velocity": 0.36220472440944884,
                    "duration": 0.060086499999997045
                },
                {
                    "name": "F5",
                    "midi": 77,
                    "time": 53.05637949999987,
                    "velocity": 0.3228346456692913,
                    "duration": 0.060086499999997045
                },
                {
                    "name": "E5",
                    "midi": 76,
                    "time": 53.11646599999987,
                    "velocity": 0.36220472440944884,
                    "duration": 0.08011533333333176
                },
                {
                    "name": "F5",
                    "midi": 77,
                    "time": 53.1965813333332,
                    "velocity": 0.33858267716535434,
                    "duration": 0.08011533333333176
                },
                {
                    "name": "E5",
                    "midi": 76,
                    "time": 53.27669666666653,
                    "velocity": 0.33858267716535434,
                    "duration": 0.08011533333333176
                },
                {
                    "name": "F5",
                    "midi": 77,
                    "time": 53.35681199999986,
                    "velocity": 0.3937007874015748,
                    "duration": 0.9613840000000025
                },
                {
                    "name": "C5",
                    "midi": 72,
                    "time": 54.79888799999986,
                    "velocity": 0.3937007874015748,
                    "duration": 0.9613840000000025
                },
                {
                    "name": "G5",
                    "midi": 79,
                    "time": 55.760271999999865,
                    "velocity": 0.3937007874015748,
                    "duration": 0.16023066666666352
                },
                {
                    "name": "E5",
                    "midi": 76,
                    "time": 55.92050266666653,
                    "velocity": 0.36220472440944884,
                    "duration": 0.16023066666666352
                },
                {
                    "name": "C5",
                    "midi": 72,
                    "time": 56.08073333333319,
                    "velocity": 0.3543307086614173,
                    "duration": 0.16023066666666352
                },
                {
                    "name": "A5",
                    "midi": 81,
                    "time": 56.240963999999856,
                    "velocity": 0.3937007874015748,
                    "duration": 0.16023066666666352
                },
                {
                    "name": "F5",
                    "midi": 77,
                    "time": 56.40119466666652,
                    "velocity": 0.3543307086614173,
                    "duration": 0.16023066666666352
                },
                {
                    "name": "C5",
                    "midi": 72,
                    "time": 56.56142533333318,
                    "velocity": 0.3543307086614173,
                    "duration": 0.16023066666666352
                },
                {
                    "name": "A#5",
                    "midi": 82,
                    "time": 56.72165599999985,
                    "velocity": 0.4330708661417323,
                    "duration": 0.16023066666666352
                },
                {
                    "name": "A5",
                    "midi": 81,
                    "time": 56.88188666666651,
                    "velocity": 0.3779527559055118,
                    "duration": 0.16023066666666352
                },
                {
                    "name": "G5",
                    "midi": 79,
                    "time": 57.042117333333174,
                    "velocity": 0.3779527559055118,
                    "duration": 0.16023066666666352
                },
                {
                    "name": "A5",
                    "midi": 81,
                    "time": 57.20234799999984,
                    "velocity": 0.4251968503937008,
                    "duration": 0.4806919999999977
                },
                {
                    "name": "G5",
                    "midi": 79,
                    "time": 57.683039999999835,
                    "velocity": 0.41732283464566927,
                    "duration": 0.16023066666666352
                },
                {
                    "name": "A#5",
                    "midi": 82,
                    "time": 57.8432706666665,
                    "velocity": 0.3937007874015748,
                    "duration": 0.16023066666666352
                },
                {
                    "name": "A5",
                    "midi": 81,
                    "time": 58.00350133333316,
                    "velocity": 0.3700787401574803,
                    "duration": 0.16023066666666352
                },
                {
                    "name": "G5",
                    "midi": 79,
                    "time": 58.163731999999825,
                    "velocity": 0.4015748031496063,
                    "duration": 0.16023066666666352
                },
                {
                    "name": "D6",
                    "midi": 86,
                    "time": 58.32396266666649,
                    "velocity": 0.4251968503937008,
                    "duration": 0.16023066666666352
                },
                {
                    "name": "C6",
                    "midi": 84,
                    "time": 58.48419333333315,
                    "velocity": 0.3858267716535433,
                    "duration": 0.16023066666666352
                },
                {
                    "name": "A#5",
                    "midi": 82,
                    "time": 58.644423999999816,
                    "velocity": 0.4251968503937008,
                    "duration": 0.16023066666666352
                },
                {
                    "name": "A5",
                    "midi": 81,
                    "time": 58.80465466666648,
                    "velocity": 0.3937007874015748,
                    "duration": 0.16023066666666352
                },
                {
                    "name": "G5",
                    "midi": 79,
                    "time": 58.96488533333314,
                    "velocity": 0.3543307086614173,
                    "duration": 0.16023066666666352
                },
                {
                    "name": "F5",
                    "midi": 77,
                    "time": 59.12511599999981,
                    "velocity": 0.3937007874015748,
                    "duration": 0.2403460000000024
                },
                {
                    "name": "E5",
                    "midi": 76,
                    "time": 59.36546199999981,
                    "velocity": 0.33858267716535434,
                    "duration": 0.7210380000000001
                },
                {
                    "name": "C5",
                    "midi": 72,
                    "time": 60.80753799999981,
                    "velocity": 0.3543307086614173,
                    "duration": 0.4806919999999977
                },
                {
                    "name": "G#5",
                    "midi": 80,
                    "time": 61.28822999999981,
                    "velocity": 0.41732283464566927,
                    "duration": 0.4806919999999977
                },
                {
                    "name": "C5",
                    "midi": 72,
                    "time": 61.768921999999804,
                    "velocity": 0.3779527559055118,
                    "duration": 0.4806919999999977
                },
                {
                    "name": "A#4",
                    "midi": 70,
                    "time": 62.2496139999998,
                    "velocity": 0.31496062992125984,
                    "duration": 0.2403460000000024
                },
                {
                    "name": "G5",
                    "midi": 79,
                    "time": 62.489959999999805,
                    "velocity": 0.3858267716535433,
                    "duration": 0.2403460000000024
                },
                {
                    "name": "A#4",
                    "midi": 70,
                    "time": 62.73030599999981,
                    "velocity": 0.31496062992125984,
                    "duration": 0.4806919999999977
                },
                {
                    "name": "G#4",
                    "midi": 68,
                    "time": 63.210997999999805,
                    "velocity": 0.31496062992125984,
                    "duration": 0.4806919999999977
                },
                {
                    "name": "G4",
                    "midi": 67,
                    "time": 63.6916899999998,
                    "velocity": 0.33858267716535434,
                    "duration": 0.2403460000000024
                },
                {
                    "name": "C#5",
                    "midi": 73,
                    "time": 63.932035999999805,
                    "velocity": 0.3937007874015748,
                    "duration": 0.24034599999999529
                },
                {
                    "name": "A#4",
                    "midi": 70,
                    "time": 64.1723819999998,
                    "velocity": 0.36220472440944884,
                    "duration": 0.2403460000000024
                },
                {
                    "name": "G4",
                    "midi": 67,
                    "time": 64.4127279999998,
                    "velocity": 0.3700787401574803,
                    "duration": 0.2403460000000024
                },
                {
                    "name": "F4",
                    "midi": 65,
                    "time": 64.6530739999998,
                    "velocity": 0.33858267716535434,
                    "duration": 0.2403460000000024
                },
                {
                    "name": "F4",
                    "midi": 65,
                    "time": 64.89341999999981,
                    "velocity": 0.3700787401574803,
                    "duration": 0.2403460000000024
                },
                {
                    "name": "E4",
                    "midi": 64,
                    "time": 65.13376599999981,
                    "velocity": 0.30708661417322836,
                    "duration": 0.721037999999993
                },
                {
                    "name": "F5",
                    "midi": 77,
                    "time": 66.33549599999981,
                    "velocity": 0.5118110236220472,
                    "duration": 0.060086499999997045
                },
                {
                    "name": "G5",
                    "midi": 79,
                    "time": 66.3955824999998,
                    "velocity": 0.4015748031496063,
                    "duration": 0.060086499999997045
                },
                {
                    "name": "F5",
                    "midi": 77,
                    "time": 66.4556689999998,
                    "velocity": 0.4409448818897638,
                    "duration": 0.060086499999997045
                },
                {
                    "name": "E5",
                    "midi": 76,
                    "time": 66.5157554999998,
                    "velocity": 0.41732283464566927,
                    "duration": 0.060086499999997045
                },
                {
                    "name": "F5",
                    "midi": 77,
                    "time": 66.5758419999998,
                    "velocity": 0.5039370078740157,
                    "duration": 0.721037999999993
                },
                {
                    "name": "A#5",
                    "midi": 82,
                    "time": 67.29687999999979,
                    "velocity": 0.4330708661417323,
                    "duration": 0.16023066666666352
                },
                {
                    "name": "G5",
                    "midi": 79,
                    "time": 67.45711066666645,
                    "velocity": 0.36220472440944884,
                    "duration": 0.16023066666666352
                },
                {
                    "name": "E5",
                    "midi": 76,
                    "time": 67.61734133333312,
                    "velocity": 0.3543307086614173,
                    "duration": 0.16023066666666352
                },
                {
                    "name": "F5",
                    "midi": 77,
                    "time": 67.77757199999978,
                    "velocity": 0.3937007874015748,
                    "duration": 0.2403460000000024
                },
                {
                    "name": "A5",
                    "midi": 81,
                    "time": 68.01791799999978,
                    "velocity": 0.33858267716535434,
                    "duration": 0.2403460000000024
                },
                {
                    "name": "C5",
                    "midi": 72,
                    "time": 68.25826399999978,
                    "velocity": 0.3937007874015748,
                    "duration": 0.4806920000000048
                },
                {
                    "name": "A#4",
                    "midi": 70,
                    "time": 68.73895599999979,
                    "velocity": 0.36220472440944884,
                    "duration": 0.060086499999997045
                },
                {
                    "name": "C5",
                    "midi": 72,
                    "time": 68.79904249999979,
                    "velocity": 0.3228346456692913,
                    "duration": 0.060086499999997045
                },
                {
                    "name": "A#4",
                    "midi": 70,
                    "time": 68.85912899999978,
                    "velocity": 0.36220472440944884,
                    "duration": 0.060086499999997045
                },
                {
                    "name": "C5",
                    "midi": 72,
                    "time": 68.91921549999978,
                    "velocity": 0.3228346456692913,
                    "duration": 0.060086499999997045
                },
                {
                    "name": "A#4",
                    "midi": 70,
                    "time": 68.97930199999978,
                    "velocity": 0.36220472440944884,
                    "duration": 0.08011533333333887
                },
                {
                    "name": "C5",
                    "midi": 72,
                    "time": 69.05941733333312,
                    "velocity": 0.33858267716535434,
                    "duration": 0.08011533333333887
                },
                {
                    "name": "A#4",
                    "midi": 70,
                    "time": 69.13953266666645,
                    "velocity": 0.33858267716535434,
                    "duration": 0.08011533333333887
                },
                {
                    "name": "A4",
                    "midi": 69,
                    "time": 69.2196479999998,
                    "velocity": 0.3937007874015748,
                    "duration": 0.2403460000000024
                },
                {
                    "name": "C5",
                    "midi": 72,
                    "time": 69.4599939999998,
                    "velocity": 0.33858267716535434,
                    "duration": 0.2403460000000024
                },
                {
                    "name": "F5",
                    "midi": 77,
                    "time": 69.7003399999998,
                    "velocity": 0.3937007874015748,
                    "duration": 0.16023066666666352
                },
                {
                    "name": "E5",
                    "midi": 76,
                    "time": 69.86057066666646,
                    "velocity": 0.3228346456692913,
                    "duration": 0.16023066666666352
                },
                {
                    "name": "D5",
                    "midi": 74,
                    "time": 70.02080133333313,
                    "velocity": 0.3228346456692913,
                    "duration": 0.16023066666666352
                },
                {
                    "name": "C5",
                    "midi": 72,
                    "time": 70.18103199999979,
                    "velocity": 0.3700787401574803,
                    "duration": 0.16023066666666352
                },
                {
                    "name": "A#4",
                    "midi": 70,
                    "time": 70.34126266666645,
                    "velocity": 0.31496062992125984,
                    "duration": 0.16023066666666352
                },
                {
                    "name": "A4",
                    "midi": 69,
                    "time": 70.50149333333312,
                    "velocity": 0.31496062992125984,
                    "duration": 0.16023066666666352
                },
                {
                    "name": "G4",
                    "midi": 67,
                    "time": 70.66172399999978,
                    "velocity": 0.3937007874015748,
                    "duration": 0.7210380000000072
                },
                {
                    "name": "A4",
                    "midi": 69,
                    "time": 71.38276199999979,
                    "velocity": 0.33858267716535434,
                    "duration": 0.12017299999999409
                },
                {
                    "name": "A#4",
                    "midi": 70,
                    "time": 71.50293499999978,
                    "velocity": 0.2992125984251969,
                    "duration": 0.12017299999999409
                },
                {
                    "name": "A4",
                    "midi": 69,
                    "time": 71.62310799999977,
                    "velocity": 0.3700787401574803,
                    "duration": 0.4806920000000048
                },
                {
                    "name": "F5",
                    "midi": 77,
                    "time": 72.10379999999978,
                    "velocity": 0.5196850393700787,
                    "duration": 0.060086499999997045
                },
                {
                    "name": "G5",
                    "midi": 79,
                    "time": 72.16388649999978,
                    "velocity": 0.4015748031496063,
                    "duration": 0.060086499999997045
                },
                {
                    "name": "F5",
                    "midi": 77,
                    "time": 72.22397299999977,
                    "velocity": 0.4409448818897638,
                    "duration": 0.060086499999997045
                },
                {
                    "name": "E5",
                    "midi": 76,
                    "time": 72.28405949999977,
                    "velocity": 0.4251968503937008,
                    "duration": 0.060086499999997045
                },
                {
                    "name": "F5",
                    "midi": 77,
                    "time": 72.34414599999977,
                    "velocity": 0.5196850393700787,
                    "duration": 0.721037999999993
                },
                {
                    "name": "A#5",
                    "midi": 82,
                    "time": 73.06518399999976,
                    "velocity": 0.4330708661417323,
                    "duration": 0.16023066666666352
                },
                {
                    "name": "G5",
                    "midi": 79,
                    "time": 73.22541466666642,
                    "velocity": 0.36220472440944884,
                    "duration": 0.16023066666666352
                },
                {
                    "name": "E5",
                    "midi": 76,
                    "time": 73.38564533333309,
                    "velocity": 0.3543307086614173,
                    "duration": 0.16023066666666352
                },
                {
                    "name": "F5",
                    "midi": 77,
                    "time": 73.54587599999975,
                    "velocity": 0.3937007874015748,
                    "duration": 0.2403460000000024
                },
                {
                    "name": "A5",
                    "midi": 81,
                    "time": 73.78622199999975,
                    "velocity": 0.33858267716535434,
                    "duration": 0.2403460000000024
                },
                {
                    "name": "C5",
                    "midi": 72,
                    "time": 74.02656799999976,
                    "velocity": 0.3937007874015748,
                    "duration": 0.4806920000000048
                },
                {
                    "name": "D5",
                    "midi": 74,
                    "time": 74.50725999999976,
                    "velocity": 0.3937007874015748,
                    "duration": 0.16023066666666352
                },
                {
                    "name": "E5",
                    "midi": 76,
                    "time": 74.66749066666642,
                    "velocity": 0.36220472440944884,
                    "duration": 0.16023066666666352
                },
                {
                    "name": "F5",
                    "midi": 77,
                    "time": 74.82772133333309,
                    "velocity": 0.36220472440944884,
                    "duration": 0.15021624999999972
                },
                {
                    "name": "F5",
                    "midi": 77,
                    "time": 74.98795199999975,
                    "velocity": 0.4251968503937008,
                    "duration": 0.16023066666666352
                },
                {
                    "name": "E5",
                    "midi": 76,
                    "time": 75.14818266666641,
                    "velocity": 0.3779527559055118,
                    "duration": 0.16023066666666352
                },
                {
                    "name": "D5",
                    "midi": 74,
                    "time": 75.30841333333308,
                    "velocity": 0.3779527559055118,
                    "duration": 0.16023066666666352
                },
                {
                    "name": "C5",
                    "midi": 72,
                    "time": 75.46864399999974,
                    "velocity": 0.4015748031496063,
                    "duration": 0.4806920000000048
                },
                {
                    "name": "D5",
                    "midi": 74,
                    "time": 75.94933599999975,
                    "velocity": 0.3937007874015748,
                    "duration": 0.16023066666666352
                },
                {
                    "name": "E5",
                    "midi": 76,
                    "time": 76.10956666666641,
                    "velocity": 0.3700787401574803,
                    "duration": 0.16023066666666352
                },
                {
                    "name": "F5",
                    "midi": 77,
                    "time": 76.26979733333307,
                    "velocity": 0.3700787401574803,
                    "duration": 0.15021624999999972
                },
                {
                    "name": "F5",
                    "midi": 77,
                    "time": 76.43002799999974,
                    "velocity": 0.41732283464566927,
                    "duration": 0.16023066666666352
                },
                {
                    "name": "E5",
                    "midi": 76,
                    "time": 76.5902586666664,
                    "velocity": 0.36220472440944884,
                    "duration": 0.16023066666666352
                },
                {
                    "name": "D5",
                    "midi": 74,
                    "time": 76.75048933333306,
                    "velocity": 0.33858267716535434,
                    "duration": 0.16023066666666352
                },
                {
                    "name": "C5",
                    "midi": 72,
                    "time": 76.91071999999973,
                    "velocity": 0.41732283464566927,
                    "duration": 0.16023066666666352
                },
                {
                    "name": "F5",
                    "midi": 77,
                    "time": 77.07095066666639,
                    "velocity": 0.3700787401574803,
                    "duration": 0.16023066666666352
                },
                {
                    "name": "A5",
                    "midi": 81,
                    "time": 77.23118133333305,
                    "velocity": 0.3937007874015748,
                    "duration": 0.16023066666666352
                },
                {
                    "name": "C5",
                    "midi": 72,
                    "time": 77.39141199999972,
                    "velocity": 0.4409448818897638,
                    "duration": 0.16023066666666352
                },
                {
                    "name": "G5",
                    "midi": 79,
                    "time": 77.55164266666638,
                    "velocity": 0.3858267716535433,
                    "duration": 0.16023066666666352
                },
                {
                    "name": "A#5",
                    "midi": 82,
                    "time": 77.71187333333305,
                    "velocity": 0.41732283464566927,
                    "duration": 0.16023066666666352
                },
                {
                    "name": "A5",
                    "midi": 81,
                    "time": 77.87210399999971,
                    "velocity": 0.48031496062992124,
                    "duration": 0.16023066666666352
                },
                {
                    "name": "A#5",
                    "midi": 82,
                    "time": 78.03233466666637,
                    "velocity": 0.36220472440944884,
                    "duration": 0.16023066666666352
                },
                {
                    "name": "C6",
                    "midi": 84,
                    "time": 78.19256533333304,
                    "velocity": 0.36220472440944884,
                    "duration": 0.16023066666666352
                },
                {
                    "name": "F5",
                    "midi": 77,
                    "time": 78.3527959999997,
                    "velocity": 0.3937007874015748,
                    "duration": 0.4806920000000048
                },
                {
                    "name": "E5",
                    "midi": 76,
                    "time": 78.8334879999997,
                    "velocity": 0.36220472440944884,
                    "duration": 0.060086499999997045
                },
                {
                    "name": "F5",
                    "midi": 77,
                    "time": 78.8935744999997,
                    "velocity": 0.3228346456692913,
                    "duration": 0.060086499999997045
                },
                {
                    "name": "E5",
                    "midi": 76,
                    "time": 78.9536609999997,
                    "velocity": 0.36220472440944884,
                    "duration": 0.060086499999997045
                },
                {
                    "name": "F5",
                    "midi": 77,
                    "time": 79.0137474999997,
                    "velocity": 0.3228346456692913,
                    "duration": 0.060086499999997045
                },
                {
                    "name": "E5",
                    "midi": 76,
                    "time": 79.07383399999969,
                    "velocity": 0.36220472440944884,
                    "duration": 0.08011533333333887
                },
                {
                    "name": "F5",
                    "midi": 77,
                    "time": 79.15394933333303,
                    "velocity": 0.33858267716535434,
                    "duration": 0.08011533333333887
                },
                {
                    "name": "E5",
                    "midi": 76,
                    "time": 79.23406466666637,
                    "velocity": 0.33858267716535434,
                    "duration": 0.08011533333333887
                },
                {
                    "name": "F5",
                    "midi": 77,
                    "time": 79.31417999999971,
                    "velocity": 0.4330708661417323,
                    "duration": 0.9613839999999954
                },
                {
                    "name": "D5",
                    "midi": 74,
                    "time": 81.2369479999997,
                    "velocity": 0.33070866141732286,
                    "duration": 0.4806920000000048
                },
                {
                    "name": "F5",
                    "midi": 77,
                    "time": 81.2369479999997,
                    "velocity": 0.3937007874015748,
                    "duration": 0.4806920000000048
                },
                {
                    "name": "A#5",
                    "midi": 82,
                    "time": 81.7176399999997,
                    "velocity": 0.3937007874015748,
                    "duration": 0.16023066666666352
                },
                {
                    "name": "A5",
                    "midi": 81,
                    "time": 81.87787066666637,
                    "velocity": 0.36220472440944884,
                    "duration": 0.16023066666666352
                },
                {
                    "name": "G5",
                    "midi": 79,
                    "time": 82.03810133333303,
                    "velocity": 0.3543307086614173,
                    "duration": 0.16023066666666352
                },
                {
                    "name": "F5",
                    "midi": 77,
                    "time": 82.1983319999997,
                    "velocity": 0.3937007874015748,
                    "duration": 0.4806920000000048
                },
                {
                    "name": "D5",
                    "midi": 74,
                    "time": 82.6790239999997,
                    "velocity": 0.4330708661417323,
                    "duration": 0.16023066666666352
                },
                {
                    "name": "D#5",
                    "midi": 75,
                    "time": 82.83925466666636,
                    "velocity": 0.3779527559055118,
                    "duration": 0.16023066666666352
                },
                {
                    "name": "F5",
                    "midi": 77,
                    "time": 82.99948533333303,
                    "velocity": 0.3779527559055118,
                    "duration": 0.16023066666666352
                },
                {
                    "name": "D#5",
                    "midi": 75,
                    "time": 83.15971599999969,
                    "velocity": 0.4330708661417323,
                    "duration": 0.16023066666666352
                },
                {
                    "name": "F5",
                    "midi": 77,
                    "time": 83.31994666666635,
                    "velocity": 0.3779527559055118,
                    "duration": 0.16023066666666352
                },
                {
                    "name": "G5",
                    "midi": 79,
                    "time": 83.48017733333302,
                    "velocity": 0.3779527559055118,
                    "duration": 0.16023066666666352
                },
                {
                    "name": "F5",
                    "midi": 77,
                    "time": 83.64040799999968,
                    "velocity": 0.41732283464566927,
                    "duration": 0.4806920000000048
                },
                {
                    "name": "A#4",
                    "midi": 70,
                    "time": 84.12109999999969,
                    "velocity": 0.3464566929133858,
                    "duration": 0.2403460000000024
                },
                {
                    "name": "A#4",
                    "midi": 70,
                    "time": 84.60179199999969,
                    "velocity": 0.3543307086614173,
                    "duration": 0.2403460000000024
                },
                {
                    "name": "A4",
                    "midi": 69,
                    "time": 85.0824839999997,
                    "velocity": 0.36220472440944884,
                    "duration": 0.16023066666666352
                },
                {
                    "name": "A#4",
                    "midi": 70,
                    "time": 85.24271466666636,
                    "velocity": 0.31496062992125984,
                    "duration": 0.16023066666666352
                },
                {
                    "name": "C5",
                    "midi": 72,
                    "time": 85.40294533333302,
                    "velocity": 0.31496062992125984,
                    "duration": 0.16023066666666352
                },
                {
                    "name": "A#4",
                    "midi": 70,
                    "time": 85.56317599999969,
                    "velocity": 0.3543307086614173,
                    "duration": 0.4806920000000048
                },
                {
                    "name": "C5",
                    "midi": 72,
                    "time": 86.5245599999997,
                    "velocity": 0.3543307086614173,
                    "duration": 0.060086499999997045
                },
                {
                    "name": "A#4",
                    "midi": 70,
                    "time": 86.58464649999969,
                    "velocity": 0.31496062992125984,
                    "duration": 0.060086499999997045
                },
                {
                    "name": "C5",
                    "midi": 72,
                    "time": 86.64473299999969,
                    "velocity": 0.36220472440944884,
                    "duration": 0.3605189999999965
                },
                {
                    "name": "A5",
                    "midi": 81,
                    "time": 87.00525199999969,
                    "velocity": 0.36220472440944884,
                    "duration": 0.4806920000000048
                },
                {
                    "name": "A4",
                    "midi": 69,
                    "time": 87.48594399999969,
                    "velocity": 0.2992125984251969,
                    "duration": 0.4806920000000048
                },
                {
                    "name": "A#4",
                    "midi": 70,
                    "time": 87.9666359999997,
                    "velocity": 0.3543307086614173,
                    "duration": 0.060086499999997045
                },
                {
                    "name": "A4",
                    "midi": 69,
                    "time": 88.02672249999969,
                    "velocity": 0.31496062992125984,
                    "duration": 0.060086499999997045
                },
                {
                    "name": "A#4",
                    "midi": 70,
                    "time": 88.08680899999969,
                    "velocity": 0.36220472440944884,
                    "duration": 0.3605189999999965
                },
                {
                    "name": "G5",
                    "midi": 79,
                    "time": 88.44732799999969,
                    "velocity": 0.36220472440944884,
                    "duration": 0.4806920000000048
                },
                {
                    "name": "A#4",
                    "midi": 70,
                    "time": 88.92801999999969,
                    "velocity": 0.2992125984251969,
                    "duration": 0.4806920000000048
                },
                {
                    "name": "A4",
                    "midi": 69,
                    "time": 89.4087119999997,
                    "velocity": 0.4015748031496063,
                    "duration": 0.16023066666666352
                },
                {
                    "name": "A#4",
                    "midi": 70,
                    "time": 89.56894266666636,
                    "velocity": 0.3228346456692913,
                    "duration": 0.16023066666666352
                },
                {
                    "name": "C5",
                    "midi": 72,
                    "time": 89.72917333333302,
                    "velocity": 0.3228346456692913,
                    "duration": 0.16023066666666352
                },
                {
                    "name": "F4",
                    "midi": 65,
                    "time": 89.88940399999969,
                    "velocity": 0.3543307086614173,
                    "duration": 0.4806920000000048
                },
                {
                    "name": "E4",
                    "midi": 64,
                    "time": 90.37009599999969,
                    "velocity": 0.3228346456692913,
                    "duration": 0.060086499999997045
                },
                {
                    "name": "F4",
                    "midi": 65,
                    "time": 90.43018249999969,
                    "velocity": 0.28346456692913385,
                    "duration": 0.060086499999997045
                },
                {
                    "name": "E4",
                    "midi": 64,
                    "time": 90.49026899999969,
                    "velocity": 0.3228346456692913,
                    "duration": 0.060086499999997045
                },
                {
                    "name": "F4",
                    "midi": 65,
                    "time": 90.55035549999968,
                    "velocity": 0.28346456692913385,
                    "duration": 0.060086499999997045
                },
                {
                    "name": "E4",
                    "midi": 64,
                    "time": 90.61044199999968,
                    "velocity": 0.3228346456692913,
                    "duration": 0.08011533333333887
                },
                {
                    "name": "F4",
                    "midi": 65,
                    "time": 90.69055733333302,
                    "velocity": 0.2992125984251969,
                    "duration": 0.08011533333333887
                },
                {
                    "name": "E4",
                    "midi": 64,
                    "time": 90.77067266666636,
                    "velocity": 0.2992125984251969,
                    "duration": 0.08011533333333887
                },
                {
                    "name": "F4",
                    "midi": 65,
                    "time": 90.8507879999997,
                    "velocity": 0.3858267716535433,
                    "duration": 0.9613839999999954
                },
                {
                    "name": "D5",
                    "midi": 74,
                    "time": 92.77355599999969,
                    "velocity": 0.33070866141732286,
                    "duration": 0.4806920000000048
                },
                {
                    "name": "F5",
                    "midi": 77,
                    "time": 92.77355599999969,
                    "velocity": 0.3937007874015748,
                    "duration": 0.4806920000000048
                },
                {
                    "name": "A#5",
                    "midi": 82,
                    "time": 93.25424799999969,
                    "velocity": 0.3937007874015748,
                    "duration": 0.16023066666666352
                },
                {
                    "name": "A5",
                    "midi": 81,
                    "time": 93.41447866666635,
                    "velocity": 0.36220472440944884,
                    "duration": 0.16023066666666352
                },
                {
                    "name": "G5",
                    "midi": 79,
                    "time": 93.57470933333302,
                    "velocity": 0.3543307086614173,
                    "duration": 0.16023066666666352
                },
                {
                    "name": "F5",
                    "midi": 77,
                    "time": 93.73493999999968,
                    "velocity": 0.3937007874015748,
                    "duration": 0.4806920000000048
                },
                {
                    "name": "D5",
                    "midi": 74,
                    "time": 94.21563199999969,
                    "velocity": 0.4330708661417323,
                    "duration": 0.16023066666666352
                },
                {
                    "name": "D#5",
                    "midi": 75,
                    "time": 94.37586266666635,
                    "velocity": 0.3779527559055118,
                    "duration": 0.16023066666666352
                },
                {
                    "name": "F5",
                    "midi": 77,
                    "time": 94.53609333333301,
                    "velocity": 0.3779527559055118,
                    "duration": 0.16023066666666352
                },
                {
                    "name": "D#5",
                    "midi": 75,
                    "time": 94.69632399999968,
                    "velocity": 0.4330708661417323,
                    "duration": 0.16023066666666352
                },
                {
                    "name": "F5",
                    "midi": 77,
                    "time": 94.85655466666634,
                    "velocity": 0.3779527559055118,
                    "duration": 0.16023066666666352
                },
                {
                    "name": "G5",
                    "midi": 79,
                    "time": 95.016785333333,
                    "velocity": 0.3779527559055118,
                    "duration": 0.16023066666666352
                },
                {
                    "name": "F5",
                    "midi": 77,
                    "time": 95.17701599999967,
                    "velocity": 0.41732283464566927,
                    "duration": 0.4806920000000048
                },
                {
                    "name": "A#4",
                    "midi": 70,
                    "time": 95.65770799999967,
                    "velocity": 0.3464566929133858,
                    "duration": 0.2403460000000024
                },
                {
                    "name": "A#4",
                    "midi": 70,
                    "time": 96.13839999999968,
                    "velocity": 0.3543307086614173,
                    "duration": 0.2403460000000024
                },
                {
                    "name": "A4",
                    "midi": 69,
                    "time": 96.61909199999968,
                    "velocity": 0.36220472440944884,
                    "duration": 0.16023066666666352
                },
                {
                    "name": "A#4",
                    "midi": 70,
                    "time": 96.77932266666635,
                    "velocity": 0.31496062992125984,
                    "duration": 0.16023066666666352
                },
                {
                    "name": "C5",
                    "midi": 72,
                    "time": 96.93955333333301,
                    "velocity": 0.31496062992125984,
                    "duration": 0.16023066666666352
                },
                {
                    "name": "A#4",
                    "midi": 70,
                    "time": 97.09978399999967,
                    "velocity": 0.3543307086614173,
                    "duration": 0.4806920000000048
                },
                {
                    "name": "C5",
                    "midi": 72,
                    "time": 98.06116799999968,
                    "velocity": 0.3543307086614173,
                    "duration": 0.060086499999997045
                },
                {
                    "name": "A#4",
                    "midi": 70,
                    "time": 98.12125449999968,
                    "velocity": 0.31496062992125984,
                    "duration": 0.060086499999997045
                },
                {
                    "name": "C5",
                    "midi": 72,
                    "time": 98.18134099999968,
                    "velocity": 0.36220472440944884,
                    "duration": 0.3605189999999965
                },
                {
                    "name": "A5",
                    "midi": 81,
                    "time": 98.54185999999967,
                    "velocity": 0.36220472440944884,
                    "duration": 0.4806920000000048
                },
                {
                    "name": "A4",
                    "midi": 69,
                    "time": 99.02255199999968,
                    "velocity": 0.2992125984251969,
                    "duration": 0.4806920000000048
                },
                {
                    "name": "A#4",
                    "midi": 70,
                    "time": 99.50324399999968,
                    "velocity": 0.3543307086614173,
                    "duration": 0.060086499999997045
                },
                {
                    "name": "A4",
                    "midi": 69,
                    "time": 99.56333049999968,
                    "velocity": 0.31496062992125984,
                    "duration": 0.060086499999997045
                },
                {
                    "name": "A#4",
                    "midi": 70,
                    "time": 99.62341699999968,
                    "velocity": 0.36220472440944884,
                    "duration": 0.3605189999999965
                },
                {
                    "name": "G5",
                    "midi": 79,
                    "time": 99.98393599999967,
                    "velocity": 0.36220472440944884,
                    "duration": 0.4806920000000048
                },
                {
                    "name": "A#4",
                    "midi": 70,
                    "time": 100.46462799999968,
                    "velocity": 0.2992125984251969,
                    "duration": 0.4806920000000048
                },
                {
                    "name": "A4",
                    "midi": 69,
                    "time": 100.94531999999968,
                    "velocity": 0.4015748031496063,
                    "duration": 0.16023066666666352
                },
                {
                    "name": "A#4",
                    "midi": 70,
                    "time": 101.10555066666635,
                    "velocity": 0.3228346456692913,
                    "duration": 0.16023066666666352
                },
                {
                    "name": "C5",
                    "midi": 72,
                    "time": 101.26578133333301,
                    "velocity": 0.3228346456692913,
                    "duration": 0.16023066666666352
                },
                {
                    "name": "F4",
                    "midi": 65,
                    "time": 101.42601199999967,
                    "velocity": 0.3543307086614173,
                    "duration": 0.4806920000000048
                },
                {
                    "name": "E4",
                    "midi": 64,
                    "time": 101.90670399999968,
                    "velocity": 0.3228346456692913,
                    "duration": 0.060086499999997045
                },
                {
                    "name": "F4",
                    "midi": 65,
                    "time": 101.96679049999968,
                    "velocity": 0.28346456692913385,
                    "duration": 0.060086499999997045
                },
                {
                    "name": "E4",
                    "midi": 64,
                    "time": 102.02687699999967,
                    "velocity": 0.3228346456692913,
                    "duration": 0.060086499999997045
                },
                {
                    "name": "F4",
                    "midi": 65,
                    "time": 102.08696349999967,
                    "velocity": 0.28346456692913385,
                    "duration": 0.060086499999997045
                },
                {
                    "name": "E4",
                    "midi": 64,
                    "time": 102.14704999999967,
                    "velocity": 0.3228346456692913,
                    "duration": 0.08011533333333887
                },
                {
                    "name": "F4",
                    "midi": 65,
                    "time": 102.227165333333,
                    "velocity": 0.2992125984251969,
                    "duration": 0.08011533333333887
                },
                {
                    "name": "E4",
                    "midi": 64,
                    "time": 102.30728066666634,
                    "velocity": 0.2992125984251969,
                    "duration": 0.08011533333333887
                },
                {
                    "name": "F4",
                    "midi": 65,
                    "time": 102.38739599999968,
                    "velocity": 0.3858267716535433,
                    "duration": 0.9613839999999954
                },
                {
                    "name": "F5",
                    "midi": 77,
                    "time": 103.82947199999968,
                    "velocity": 0.3937007874015748,
                    "duration": 0.16023066666666352
                },
                {
                    "name": "D#5",
                    "midi": 75,
                    "time": 103.98970266666635,
                    "velocity": 0.36220472440944884,
                    "duration": 0.16023066666666352
                },
                {
                    "name": "D5",
                    "midi": 74,
                    "time": 104.14993333333301,
                    "velocity": 0.31496062992125984,
                    "duration": 0.16023066666666352
                },
                {
                    "name": "F5",
                    "midi": 77,
                    "time": 104.31016399999967,
                    "velocity": 0.3937007874015748,
                    "duration": 0.16023066666666352
                },
                {
                    "name": "D#5",
                    "midi": 75,
                    "time": 104.47039466666634,
                    "velocity": 0.3543307086614173,
                    "duration": 0.16023066666666352
                },
                {
                    "name": "D5",
                    "midi": 74,
                    "time": 104.630625333333,
                    "velocity": 0.3228346456692913,
                    "duration": 0.16023066666666352
                },
                {
                    "name": "C5",
                    "midi": 72,
                    "time": 104.79085599999966,
                    "velocity": 0.4015748031496063,
                    "duration": 0.16023066666666352
                },
                {
                    "name": "A#4",
                    "midi": 70,
                    "time": 104.95108666666633,
                    "velocity": 0.36220472440944884,
                    "duration": 0.16023066666666352
                },
                {
                    "name": "G#4",
                    "midi": 68,
                    "time": 105.11131733333299,
                    "velocity": 0.3228346456692913,
                    "duration": 0.16023066666666352
                },
                {
                    "name": "G4",
                    "midi": 67,
                    "time": 105.27154799999965,
                    "velocity": 0.4251968503937008,
                    "duration": 0.4806920000000048
                },
                {
                    "name": "C5",
                    "midi": 72,
                    "time": 105.75223999999966,
                    "velocity": 0.3937007874015748,
                    "duration": 0.16023066666666352
                },
                {
                    "name": "B4",
                    "midi": 71,
                    "time": 105.91247066666632,
                    "velocity": 0.3543307086614173,
                    "duration": 0.16023066666666352
                },
                {
                    "name": "C5",
                    "midi": 72,
                    "time": 106.07270133333299,
                    "velocity": 0.3228346456692913,
                    "duration": 0.16023066666666352
                },
                {
                    "name": "D#5",
                    "midi": 75,
                    "time": 106.23293199999965,
                    "velocity": 0.41732283464566927,
                    "duration": 0.16023066666666352
                },
                {
                    "name": "D5",
                    "midi": 74,
                    "time": 106.39316266666631,
                    "velocity": 0.3700787401574803,
                    "duration": 0.16023066666666352
                },
                {
                    "name": "D#5",
                    "midi": 75,
                    "time": 106.55339333333298,
                    "velocity": 0.3700787401574803,
                    "duration": 0.16023066666666352
                },
                {
                    "name": "G5",
                    "midi": 79,
                    "time": 106.71362399999964,
                    "velocity": 0.3937007874015748,
                    "duration": 0.16023066666666352
                },
                {
                    "name": "F5",
                    "midi": 77,
                    "time": 106.8738546666663,
                    "velocity": 0.36220472440944884,
                    "duration": 0.16023066666666352
                },
                {
                    "name": "D#5",
                    "midi": 75,
                    "time": 107.03408533333297,
                    "velocity": 0.31496062992125984,
                    "duration": 0.16023066666666352
                },
                {
                    "name": "G5",
                    "midi": 79,
                    "time": 107.19431599999963,
                    "velocity": 0.3937007874015748,
                    "duration": 0.16023066666666352
                },
                {
                    "name": "F5",
                    "midi": 77,
                    "time": 107.3545466666663,
                    "velocity": 0.3543307086614173,
                    "duration": 0.16023066666666352
                },
                {
                    "name": "D#5",
                    "midi": 75,
                    "time": 107.51477733333296,
                    "velocity": 0.3228346456692913,
                    "duration": 0.16023066666666352
                },
                {
                    "name": "D5",
                    "midi": 74,
                    "time": 107.67500799999962,
                    "velocity": 0.4015748031496063,
                    "duration": 0.16023066666666352
                },
                {
                    "name": "C5",
                    "midi": 72,
                    "time": 107.83523866666629,
                    "velocity": 0.36220472440944884,
                    "duration": 0.16023066666666352
                },
                {
                    "name": "A#4",
                    "midi": 70,
                    "time": 107.99546933333295,
                    "velocity": 0.3228346456692913,
                    "duration": 0.15021624999999972
                },
                {
                    "name": "A#4",
                    "midi": 70,
                    "time": 108.15569999999961,
                    "velocity": 0.3937007874015748,
                    "duration": 0.2403460000000024
                },
                {
                    "name": "A4",
                    "midi": 69,
                    "time": 108.39604599999961,
                    "velocity": 0.33858267716535434,
                    "duration": 0.721037999999993
                },
                {
                    "name": "F5",
                    "midi": 77,
                    "time": 109.59777599999961,
                    "velocity": 0.3700787401574803,
                    "duration": 0.060086499999997045
                },
                {
                    "name": "D#5",
                    "midi": 75,
                    "time": 109.65786249999961,
                    "velocity": 0.33070866141732286,
                    "duration": 0.060086499999997045
                },
                {
                    "name": "F5",
                    "midi": 77,
                    "time": 109.7179489999996,
                    "velocity": 0.3779527559055118,
                    "duration": 0.3605189999999965
                },
                {
                    "name": "D6",
                    "midi": 86,
                    "time": 110.0784679999996,
                    "velocity": 0.3779527559055118,
                    "duration": 0.4806920000000048
                },
                {
                    "name": "D5",
                    "midi": 74,
                    "time": 110.55915999999961,
                    "velocity": 0.30708661417322836,
                    "duration": 0.4806920000000048
                },
                {
                    "name": "D#5",
                    "midi": 75,
                    "time": 111.03985199999961,
                    "velocity": 0.3700787401574803,
                    "duration": 0.060086499999997045
                },
                {
                    "name": "D5",
                    "midi": 74,
                    "time": 111.09993849999961,
                    "velocity": 0.33070866141732286,
                    "duration": 0.060086499999997045
                },
                {
                    "name": "D#5",
                    "midi": 75,
                    "time": 111.1600249999996,
                    "velocity": 0.3779527559055118,
                    "duration": 0.3605189999999965
                },
                {
                    "name": "C6",
                    "midi": 84,
                    "time": 111.5205439999996,
                    "velocity": 0.3779527559055118,
                    "duration": 0.4806920000000048
                },
                {
                    "name": "D#5",
                    "midi": 75,
                    "time": 112.00123599999961,
                    "velocity": 0.30708661417322836,
                    "duration": 0.4806920000000048
                },
                {
                    "name": "D5",
                    "midi": 74,
                    "time": 112.48192799999961,
                    "velocity": 0.4015748031496063,
                    "duration": 0.16023066666666352
                },
                {
                    "name": "D#5",
                    "midi": 75,
                    "time": 112.64215866666628,
                    "velocity": 0.3228346456692913,
                    "duration": 0.16023066666666352
                },
                {
                    "name": "F5",
                    "midi": 77,
                    "time": 112.80238933333294,
                    "velocity": 0.3228346456692913,
                    "duration": 0.16023066666666352
                },
                {
                    "name": "A#4",
                    "midi": 70,
                    "time": 112.9626199999996,
                    "velocity": 0.3543307086614173,
                    "duration": 0.4806920000000048
                },
                {
                    "name": "A4",
                    "midi": 69,
                    "time": 113.44331199999961,
                    "velocity": 0.3228346456692913,
                    "duration": 0.060086499999997045
                },
                {
                    "name": "A#4",
                    "midi": 70,
                    "time": 113.5033984999996,
                    "velocity": 0.28346456692913385,
                    "duration": 0.060086499999997045
                },
                {
                    "name": "A4",
                    "midi": 69,
                    "time": 113.5634849999996,
                    "velocity": 0.3228346456692913,
                    "duration": 0.060086499999997045
                },
                {
                    "name": "A#4",
                    "midi": 70,
                    "time": 113.6235714999996,
                    "velocity": 0.28346456692913385,
                    "duration": 0.060086499999997045
                },
                {
                    "name": "A4",
                    "midi": 69,
                    "time": 113.6836579999996,
                    "velocity": 0.3228346456692913,
                    "duration": 0.08011533333333887
                },
                {
                    "name": "A#4",
                    "midi": 70,
                    "time": 113.76377333333294,
                    "velocity": 0.2992125984251969,
                    "duration": 0.08011533333333887
                },
                {
                    "name": "A4",
                    "midi": 69,
                    "time": 113.84388866666627,
                    "velocity": 0.2992125984251969,
                    "duration": 0.08011533333333887
                },
                {
                    "name": "A#4",
                    "midi": 70,
                    "time": 113.92400399999961,
                    "velocity": 0.3858267716535433,
                    "duration": 0.9613839999999954
                },
                {
                    "name": "F5",
                    "midi": 77,
                    "time": 115.36607999999961,
                    "velocity": 0.3937007874015748,
                    "duration": 0.16023066666666352
                },
                {
                    "name": "D#5",
                    "midi": 75,
                    "time": 115.52631066666628,
                    "velocity": 0.36220472440944884,
                    "duration": 0.16023066666666352
                },
                {
                    "name": "D5",
                    "midi": 74,
                    "time": 115.68654133333294,
                    "velocity": 0.31496062992125984,
                    "duration": 0.16023066666666352
                },
                {
                    "name": "F5",
                    "midi": 77,
                    "time": 115.8467719999996,
                    "velocity": 0.3937007874015748,
                    "duration": 0.16023066666666352
                },
                {
                    "name": "D#5",
                    "midi": 75,
                    "time": 116.00700266666627,
                    "velocity": 0.3543307086614173,
                    "duration": 0.16023066666666352
                },
                {
                    "name": "D5",
                    "midi": 74,
                    "time": 116.16723333333293,
                    "velocity": 0.3228346456692913,
                    "duration": 0.16023066666666352
                },
                {
                    "name": "C5",
                    "midi": 72,
                    "time": 116.3274639999996,
                    "velocity": 0.4015748031496063,
                    "duration": 0.16023066666666352
                },
                {
                    "name": "A#4",
                    "midi": 70,
                    "time": 116.48769466666626,
                    "velocity": 0.36220472440944884,
                    "duration": 0.16023066666666352
                },
                {
                    "name": "G#4",
                    "midi": 68,
                    "time": 116.64792533333292,
                    "velocity": 0.3228346456692913,
                    "duration": 0.16023066666666352
                },
                {
                    "name": "G4",
                    "midi": 67,
                    "time": 116.80815599999958,
                    "velocity": 0.4251968503937008,
                    "duration": 0.4806920000000048
                },
                {
                    "name": "C5",
                    "midi": 72,
                    "time": 117.28884799999959,
                    "velocity": 0.3937007874015748,
                    "duration": 0.16023066666666352
                },
                {
                    "name": "B4",
                    "midi": 71,
                    "time": 117.44907866666625,
                    "velocity": 0.3543307086614173,
                    "duration": 0.16023066666666352
                },
                {
                    "name": "C5",
                    "midi": 72,
                    "time": 117.60930933333292,
                    "velocity": 0.3228346456692913,
                    "duration": 0.16023066666666352
                },
                {
                    "name": "D#5",
                    "midi": 75,
                    "time": 117.76953999999958,
                    "velocity": 0.41732283464566927,
                    "duration": 0.16023066666666352
                },
                {
                    "name": "D5",
                    "midi": 74,
                    "time": 117.92977066666624,
                    "velocity": 0.3700787401574803,
                    "duration": 0.16023066666666352
                },
                {
                    "name": "D#5",
                    "midi": 75,
                    "time": 118.0900013333329,
                    "velocity": 0.3700787401574803,
                    "duration": 0.16023066666666352
                },
                {
                    "name": "G5",
                    "midi": 79,
                    "time": 118.25023199999957,
                    "velocity": 0.3937007874015748,
                    "duration": 0.16023066666666352
                },
                {
                    "name": "F5",
                    "midi": 77,
                    "time": 118.41046266666623,
                    "velocity": 0.36220472440944884,
                    "duration": 0.16023066666666352
                },
                {
                    "name": "D#5",
                    "midi": 75,
                    "time": 118.5706933333329,
                    "velocity": 0.31496062992125984,
                    "duration": 0.16023066666666352
                },
                {
                    "name": "G5",
                    "midi": 79,
                    "time": 118.73092399999956,
                    "velocity": 0.3937007874015748,
                    "duration": 0.16023066666666352
                },
                {
                    "name": "F5",
                    "midi": 77,
                    "time": 118.89115466666622,
                    "velocity": 0.3543307086614173,
                    "duration": 0.16023066666666352
                },
                {
                    "name": "D#5",
                    "midi": 75,
                    "time": 119.05138533333289,
                    "velocity": 0.3228346456692913,
                    "duration": 0.16023066666666352
                },
                {
                    "name": "D5",
                    "midi": 74,
                    "time": 119.21161599999955,
                    "velocity": 0.4015748031496063,
                    "duration": 0.16023066666666352
                },
                {
                    "name": "C5",
                    "midi": 72,
                    "time": 119.37184666666622,
                    "velocity": 0.36220472440944884,
                    "duration": 0.16023066666666352
                },
                {
                    "name": "A#4",
                    "midi": 70,
                    "time": 119.53207733333288,
                    "velocity": 0.3228346456692913,
                    "duration": 0.15021624999999972
                },
                {
                    "name": "A#4",
                    "midi": 70,
                    "time": 119.69230799999954,
                    "velocity": 0.3937007874015748,
                    "duration": 0.2403460000000024
                },
                {
                    "name": "A4",
                    "midi": 69,
                    "time": 119.93265399999954,
                    "velocity": 0.33858267716535434,
                    "duration": 0.7210380000000072
                },
                {
                    "name": "F5",
                    "midi": 77,
                    "time": 121.13438399999956,
                    "velocity": 0.3700787401574803,
                    "duration": 0.060086499999997045
                },
                {
                    "name": "D#5",
                    "midi": 75,
                    "time": 121.19447049999955,
                    "velocity": 0.33070866141732286,
                    "duration": 0.060086499999997045
                },
                {
                    "name": "F5",
                    "midi": 77,
                    "time": 121.25455699999955,
                    "velocity": 0.3779527559055118,
                    "duration": 0.3605189999999965
                },
                {
                    "name": "D6",
                    "midi": 86,
                    "time": 121.61507599999955,
                    "velocity": 0.3779527559055118,
                    "duration": 0.4806920000000048
                },
                {
                    "name": "D5",
                    "midi": 74,
                    "time": 122.09576799999955,
                    "velocity": 0.30708661417322836,
                    "duration": 0.4806920000000048
                },
                {
                    "name": "D#5",
                    "midi": 75,
                    "time": 122.57645999999956,
                    "velocity": 0.3700787401574803,
                    "duration": 0.060086499999997045
                },
                {
                    "name": "D5",
                    "midi": 74,
                    "time": 122.63654649999955,
                    "velocity": 0.33070866141732286,
                    "duration": 0.060086499999997045
                },
                {
                    "name": "D#5",
                    "midi": 75,
                    "time": 122.69663299999955,
                    "velocity": 0.3779527559055118,
                    "duration": 0.3605189999999965
                },
                {
                    "name": "C6",
                    "midi": 84,
                    "time": 123.05715199999955,
                    "velocity": 0.3779527559055118,
                    "duration": 0.4806920000000048
                },
                {
                    "name": "D#5",
                    "midi": 75,
                    "time": 123.53784399999955,
                    "velocity": 0.30708661417322836,
                    "duration": 0.4806920000000048
                },
                {
                    "name": "D5",
                    "midi": 74,
                    "time": 124.01853599999956,
                    "velocity": 0.4015748031496063,
                    "duration": 0.16023066666666352
                },
                {
                    "name": "D#5",
                    "midi": 75,
                    "time": 124.17876666666622,
                    "velocity": 0.3228346456692913,
                    "duration": 0.16023066666666352
                },
                {
                    "name": "F5",
                    "midi": 77,
                    "time": 124.33899733333288,
                    "velocity": 0.3228346456692913,
                    "duration": 0.16023066666666352
                },
                {
                    "name": "A#4",
                    "midi": 70,
                    "time": 124.49922799999955,
                    "velocity": 0.3543307086614173,
                    "duration": 0.4806920000000048
                },
                {
                    "name": "A4",
                    "midi": 69,
                    "time": 124.97991999999955,
                    "velocity": 0.3228346456692913,
                    "duration": 0.060086499999997045
                },
                {
                    "name": "A#4",
                    "midi": 70,
                    "time": 125.04000649999955,
                    "velocity": 0.28346456692913385,
                    "duration": 0.060086499999997045
                },
                {
                    "name": "A4",
                    "midi": 69,
                    "time": 125.10009299999955,
                    "velocity": 0.3228346456692913,
                    "duration": 0.060086499999997045
                },
                {
                    "name": "A#4",
                    "midi": 70,
                    "time": 125.16017949999954,
                    "velocity": 0.28346456692913385,
                    "duration": 0.060086499999997045
                },
                {
                    "name": "A4",
                    "midi": 69,
                    "time": 125.22026599999954,
                    "velocity": 0.3228346456692913,
                    "duration": 0.08011533333333887
                },
                {
                    "name": "A#4",
                    "midi": 70,
                    "time": 125.30038133333288,
                    "velocity": 0.2992125984251969,
                    "duration": 0.08011533333333887
                },
                {
                    "name": "A4",
                    "midi": 69,
                    "time": 125.38049666666622,
                    "velocity": 0.2992125984251969,
                    "duration": 0.08011533333333887
                },
                {
                    "name": "A#4",
                    "midi": 70,
                    "time": 125.46061199999956,
                    "velocity": 0.3858267716535433,
                    "duration": 0.9613839999999954
                },
                {
                    "name": "F5",
                    "midi": 77,
                    "time": 126.90268799999956,
                    "velocity": 0.5039370078740157,
                    "duration": 0.060086499999997045
                },
                {
                    "name": "G5",
                    "midi": 79,
                    "time": 126.96277449999955,
                    "velocity": 0.4015748031496063,
                    "duration": 0.060086499999997045
                },
                {
                    "name": "F5",
                    "midi": 77,
                    "time": 127.02286099999955,
                    "velocity": 0.4409448818897638,
                    "duration": 0.060086499999997045
                },
                {
                    "name": "E5",
                    "midi": 76,
                    "time": 127.08294749999955,
                    "velocity": 0.4015748031496063,
                    "duration": 0.060086499999997045
                },
                {
                    "name": "F5",
                    "midi": 77,
                    "time": 127.14303399999955,
                    "velocity": 0.4881889763779528,
                    "duration": 0.721037999999993
                },
                {
                    "name": "A#5",
                    "midi": 82,
                    "time": 127.86407199999954,
                    "velocity": 0.3937007874015748,
                    "duration": 0.16023066666667773
                },
                {
                    "name": "G5",
                    "midi": 79,
                    "time": 128.02430266666622,
                    "velocity": 0.36220472440944884,
                    "duration": 0.16023066666667773
                },
                {
                    "name": "E5",
                    "midi": 76,
                    "time": 128.1845333333329,
                    "velocity": 0.3543307086614173,
                    "duration": 0.16023066666667773
                },
                {
                    "name": "F5",
                    "midi": 77,
                    "time": 128.34476399999957,
                    "velocity": 0.3937007874015748,
                    "duration": 0.24034599999998818
                },
                {
                    "name": "A5",
                    "midi": 81,
                    "time": 128.58510999999956,
                    "velocity": 0.33858267716535434,
                    "duration": 0.24034599999998818
                },
                {
                    "name": "C5",
                    "midi": 72,
                    "time": 128.82545599999955,
                    "velocity": 0.3937007874015748,
                    "duration": 0.4806920000000048
                },
                {
                    "name": "A#4",
                    "midi": 70,
                    "time": 129.30614799999955,
                    "velocity": 0.36220472440944884,
                    "duration": 0.060086500000011256
                },
                {
                    "name": "C5",
                    "midi": 72,
                    "time": 129.36623449999956,
                    "velocity": 0.3228346456692913,
                    "duration": 0.060086500000011256
                },
                {
                    "name": "A#4",
                    "midi": 70,
                    "time": 129.42632099999958,
                    "velocity": 0.36220472440944884,
                    "duration": 0.060086500000011256
                },
                {
                    "name": "C5",
                    "midi": 72,
                    "time": 129.4864074999996,
                    "velocity": 0.3228346456692913,
                    "duration": 0.060086500000011256
                },
                {
                    "name": "A#4",
                    "midi": 70,
                    "time": 129.5464939999996,
                    "velocity": 0.36220472440944884,
                    "duration": 0.08011533333333887
                },
                {
                    "name": "C5",
                    "midi": 72,
                    "time": 129.62660933333294,
                    "velocity": 0.33858267716535434,
                    "duration": 0.08011533333333887
                },
                {
                    "name": "A#4",
                    "midi": 70,
                    "time": 129.70672466666628,
                    "velocity": 0.33858267716535434,
                    "duration": 0.08011533333333887
                },
                {
                    "name": "A4",
                    "midi": 69,
                    "time": 129.78683999999961,
                    "velocity": 0.3937007874015748,
                    "duration": 0.24034599999998818
                },
                {
                    "name": "C5",
                    "midi": 72,
                    "time": 130.0271859999996,
                    "velocity": 0.33858267716535434,
                    "duration": 0.24034599999998818
                },
                {
                    "name": "F5",
                    "midi": 77,
                    "time": 130.2675319999996,
                    "velocity": 0.3937007874015748,
                    "duration": 0.16023066666667773
                },
                {
                    "name": "E5",
                    "midi": 76,
                    "time": 130.42776266666627,
                    "velocity": 0.3228346456692913,
                    "duration": 0.16023066666667773
                },
                {
                    "name": "D5",
                    "midi": 74,
                    "time": 130.58799333333295,
                    "velocity": 0.3228346456692913,
                    "duration": 0.16023066666667773
                },
                {
                    "name": "C5",
                    "midi": 72,
                    "time": 130.74822399999962,
                    "velocity": 0.3700787401574803,
                    "duration": 0.16023066666667773
                },
                {
                    "name": "A#4",
                    "midi": 70,
                    "time": 130.9084546666663,
                    "velocity": 0.31496062992125984,
                    "duration": 0.16023066666667773
                },
                {
                    "name": "A4",
                    "midi": 69,
                    "time": 131.06868533333298,
                    "velocity": 0.31496062992125984,
                    "duration": 0.16023066666667773
                },
                {
                    "name": "G4",
                    "midi": 67,
                    "time": 131.22891599999966,
                    "velocity": 0.3937007874015748,
                    "duration": 0.721037999999993
                },
                {
                    "name": "A4",
                    "midi": 69,
                    "time": 131.94995399999965,
                    "velocity": 0.33858267716535434,
                    "duration": 0.12017299999999409
                },
                {
                    "name": "A#4",
                    "midi": 70,
                    "time": 132.07012699999964,
                    "velocity": 0.2992125984251969,
                    "duration": 0.12017299999999409
                },
                {
                    "name": "A4",
                    "midi": 69,
                    "time": 132.19029999999964,
                    "velocity": 0.3700787401574803,
                    "duration": 0.4806920000000048
                },
                {
                    "name": "F5",
                    "midi": 77,
                    "time": 132.67099199999964,
                    "velocity": 0.5039370078740157,
                    "duration": 0.060086500000011256
                },
                {
                    "name": "G5",
                    "midi": 79,
                    "time": 132.73107849999965,
                    "velocity": 0.4015748031496063,
                    "duration": 0.060086500000011256
                },
                {
                    "name": "F5",
                    "midi": 77,
                    "time": 132.79116499999967,
                    "velocity": 0.4409448818897638,
                    "duration": 0.060086500000011256
                },
                {
                    "name": "E5",
                    "midi": 76,
                    "time": 132.85125149999968,
                    "velocity": 0.4251968503937008,
                    "duration": 0.060086500000011256
                },
                {
                    "name": "F5",
                    "midi": 77,
                    "time": 132.9113379999997,
                    "velocity": 0.5118110236220472,
                    "duration": 0.721037999999993
                },
                {
                    "name": "A#5",
                    "midi": 82,
                    "time": 133.63237599999968,
                    "velocity": 0.4566929133858268,
                    "duration": 0.16023066666667773
                },
                {
                    "name": "G5",
                    "midi": 79,
                    "time": 133.79260666666636,
                    "velocity": 0.36220472440944884,
                    "duration": 0.16023066666667773
                },
                {
                    "name": "E5",
                    "midi": 76,
                    "time": 133.95283733333304,
                    "velocity": 0.3543307086614173,
                    "duration": 0.16023066666667773
                },
                {
                    "name": "F5",
                    "midi": 77,
                    "time": 134.1130679999997,
                    "velocity": 0.3937007874015748,
                    "duration": 0.24034599999998818
                },
                {
                    "name": "A5",
                    "midi": 81,
                    "time": 134.3534139999997,
                    "velocity": 0.33858267716535434,
                    "duration": 0.24034599999998818
                },
                {
                    "name": "C5",
                    "midi": 72,
                    "time": 134.5937599999997,
                    "velocity": 0.3937007874015748,
                    "duration": 0.4806920000000048
                },
                {
                    "name": "A5",
                    "midi": 81,
                    "time": 135.0744519999997,
                    "velocity": 0.3937007874015748,
                    "duration": 0.16023066666667773
                },
                {
                    "name": "B5",
                    "midi": 83,
                    "time": 135.23468266666637,
                    "velocity": 0.36220472440944884,
                    "duration": 0.16023066666667773
                },
                {
                    "name": "C6",
                    "midi": 84,
                    "time": 135.39491333333305,
                    "velocity": 0.36220472440944884,
                    "duration": 0.15021624999999972
                },
                {
                    "name": "C6",
                    "midi": 84,
                    "time": 135.55514399999973,
                    "velocity": 0.4251968503937008,
                    "duration": 0.16023066666667773
                },
                {
                    "name": "B5",
                    "midi": 83,
                    "time": 135.7153746666664,
                    "velocity": 0.3779527559055118,
                    "duration": 0.16023066666667773
                },
                {
                    "name": "A5",
                    "midi": 81,
                    "time": 135.87560533333308,
                    "velocity": 0.3779527559055118,
                    "duration": 0.16023066666667773
                },
                {
                    "name": "G5",
                    "midi": 79,
                    "time": 136.03583599999976,
                    "velocity": 0.41732283464566927,
                    "duration": 0.4806920000000048
                },
                {
                    "name": "A5",
                    "midi": 81,
                    "time": 136.51652799999977,
                    "velocity": 0.3937007874015748,
                    "duration": 0.16023066666667773
                },
                {
                    "name": "B5",
                    "midi": 83,
                    "time": 136.67675866666644,
                    "velocity": 0.3700787401574803,
                    "duration": 0.16023066666667773
                },
                {
                    "name": "C6",
                    "midi": 84,
                    "time": 136.83698933333312,
                    "velocity": 0.3700787401574803,
                    "duration": 0.15021624999999972
                },
                {
                    "name": "C6",
                    "midi": 84,
                    "time": 136.9972199999998,
                    "velocity": 0.41732283464566927,
                    "duration": 0.16023066666667773
                },
                {
                    "name": "B5",
                    "midi": 83,
                    "time": 137.15745066666648,
                    "velocity": 0.36220472440944884,
                    "duration": 0.16023066666667773
                },
                {
                    "name": "A5",
                    "midi": 81,
                    "time": 137.31768133333316,
                    "velocity": 0.36220472440944884,
                    "duration": 0.16023066666667773
                },
                {
                    "name": "G5",
                    "midi": 79,
                    "time": 137.47791199999983,
                    "velocity": 0.3937007874015748,
                    "duration": 0.16023066666667773
                },
                {
                    "name": "F5",
                    "midi": 77,
                    "time": 137.6381426666665,
                    "velocity": 0.3464566929133858,
                    "duration": 0.16023066666667773
                },
                {
                    "name": "E5",
                    "midi": 76,
                    "time": 137.7983733333332,
                    "velocity": 0.3464566929133858,
                    "duration": 0.16023066666667773
                },
                {
                    "name": "F5",
                    "midi": 77,
                    "time": 137.95860399999987,
                    "velocity": 0.3779527559055118,
                    "duration": 0.16023066666667773
                },
                {
                    "name": "E5",
                    "midi": 76,
                    "time": 138.11883466666654,
                    "velocity": 0.3543307086614173,
                    "duration": 0.16023066666667773
                },
                {
                    "name": "D5",
                    "midi": 74,
                    "time": 138.27906533333322,
                    "velocity": 0.3543307086614173,
                    "duration": 0.16023066666667773
                },
                {
                    "name": "E5",
                    "midi": 76,
                    "time": 138.4392959999999,
                    "velocity": 0.3937007874015748,
                    "duration": 0.16023066666667773
                },
                {
                    "name": "F5",
                    "midi": 77,
                    "time": 138.59952666666658,
                    "velocity": 0.36220472440944884,
                    "duration": 0.16023066666667773
                },
                {
                    "name": "G5",
                    "midi": 79,
                    "time": 138.75975733333325,
                    "velocity": 0.36220472440944884,
                    "duration": 0.16023066666667773
                },
                {
                    "name": "C5",
                    "midi": 72,
                    "time": 138.91998799999993,
                    "velocity": 0.3937007874015748,
                    "duration": 0.4806920000000048
                },
                {
                    "name": "B4",
                    "midi": 71,
                    "time": 139.40067999999994,
                    "velocity": 0.36220472440944884,
                    "duration": 0.060086500000011256
                },
                {
                    "name": "C5",
                    "midi": 72,
                    "time": 139.46076649999995,
                    "velocity": 0.3228346456692913,
                    "duration": 0.060086500000011256
                },
                {
                    "name": "B4",
                    "midi": 71,
                    "time": 139.52085299999996,
                    "velocity": 0.36220472440944884,
                    "duration": 0.060086500000011256
                },
                {
                    "name": "C5",
                    "midi": 72,
                    "time": 139.58093949999997,
                    "velocity": 0.3228346456692913,
                    "duration": 0.060086500000011256
                },
                {
                    "name": "B4",
                    "midi": 71,
                    "time": 139.64102599999998,
                    "velocity": 0.36220472440944884,
                    "duration": 0.08011533333333887
                },
                {
                    "name": "C5",
                    "midi": 72,
                    "time": 139.72114133333332,
                    "velocity": 0.33858267716535434,
                    "duration": 0.08011533333333887
                },
                {
                    "name": "B4",
                    "midi": 71,
                    "time": 139.80125666666666,
                    "velocity": 0.33858267716535434,
                    "duration": 0.08011533333333887
                },
                {
                    "name": "C5",
                    "midi": 72,
                    "time": 139.881372,
                    "velocity": 0.3937007874015748,
                    "duration": 0.9613840000000096
                },
                {
                    "name": "C5",
                    "midi": 72,
                    "time": 141.323448,
                    "velocity": 0.3937007874015748,
                    "duration": 0.9613840000000096
                },
                {
                    "name": "G5",
                    "midi": 79,
                    "time": 142.28483200000002,
                    "velocity": 0.3937007874015748,
                    "duration": 0.16023066666667773
                },
                {
                    "name": "E5",
                    "midi": 76,
                    "time": 142.4450626666667,
                    "velocity": 0.36220472440944884,
                    "duration": 0.16023066666667773
                },
                {
                    "name": "C5",
                    "midi": 72,
                    "time": 142.60529333333338,
                    "velocity": 0.3543307086614173,
                    "duration": 0.16023066666667773
                },
                {
                    "name": "A5",
                    "midi": 81,
                    "time": 142.76552400000006,
                    "velocity": 0.3937007874015748,
                    "duration": 0.16023066666667773
                },
                {
                    "name": "F5",
                    "midi": 77,
                    "time": 142.92575466666673,
                    "velocity": 0.3543307086614173,
                    "duration": 0.16023066666667773
                },
                {
                    "name": "C5",
                    "midi": 72,
                    "time": 143.0859853333334,
                    "velocity": 0.3543307086614173,
                    "duration": 0.16023066666667773
                },
                {
                    "name": "A#5",
                    "midi": 82,
                    "time": 143.2462160000001,
                    "velocity": 0.4330708661417323,
                    "duration": 0.16023066666667773
                },
                {
                    "name": "A5",
                    "midi": 81,
                    "time": 143.40644666666677,
                    "velocity": 0.3779527559055118,
                    "duration": 0.16023066666667773
                },
                {
                    "name": "G5",
                    "midi": 79,
                    "time": 143.56667733333344,
                    "velocity": 0.3779527559055118,
                    "duration": 0.16023066666667773
                },
                {
                    "name": "A5",
                    "midi": 81,
                    "time": 143.72690800000012,
                    "velocity": 0.4251968503937008,
                    "duration": 0.4806920000000048
                },
                {
                    "name": "G5",
                    "midi": 79,
                    "time": 144.20760000000013,
                    "velocity": 0.41732283464566927,
                    "duration": 0.16023066666667773
                },
                {
                    "name": "A#5",
                    "midi": 82,
                    "time": 144.3678306666668,
                    "velocity": 0.3937007874015748,
                    "duration": 0.16023066666667773
                },
                {
                    "name": "A5",
                    "midi": 81,
                    "time": 144.52806133333348,
                    "velocity": 0.3700787401574803,
                    "duration": 0.16023066666667773
                },
                {
                    "name": "G5",
                    "midi": 79,
                    "time": 144.68829200000016,
                    "velocity": 0.4015748031496063,
                    "duration": 0.16023066666667773
                },
                {
                    "name": "D6",
                    "midi": 86,
                    "time": 144.84852266666684,
                    "velocity": 0.4330708661417323,
                    "duration": 0.16023066666667773
                },
                {
                    "name": "C6",
                    "midi": 84,
                    "time": 145.00875333333352,
                    "velocity": 0.3858267716535433,
                    "duration": 0.16023066666667773
                },
                {
                    "name": "A#5",
                    "midi": 82,
                    "time": 145.1689840000002,
                    "velocity": 0.4251968503937008,
                    "duration": 0.16023066666667773
                },
                {
                    "name": "A5",
                    "midi": 81,
                    "time": 145.32921466666687,
                    "velocity": 0.3937007874015748,
                    "duration": 0.16023066666667773
                },
                {
                    "name": "G5",
                    "midi": 79,
                    "time": 145.48944533333355,
                    "velocity": 0.3543307086614173,
                    "duration": 0.16023066666667773
                },
                {
                    "name": "F5",
                    "midi": 77,
                    "time": 145.64967600000023,
                    "velocity": 0.3937007874015748,
                    "duration": 0.24034599999998818
                },
                {
                    "name": "E5",
                    "midi": 76,
                    "time": 145.89002200000022,
                    "velocity": 0.33858267716535434,
                    "duration": 0.721037999999993
                },
                {
                    "name": "C5",
                    "midi": 72,
                    "time": 147.3320980000002,
                    "velocity": 0.3543307086614173,
                    "duration": 0.4806920000000048
                },
                {
                    "name": "G#5",
                    "midi": 80,
                    "time": 147.8127900000002,
                    "velocity": 0.41732283464566927,
                    "duration": 0.4806920000000048
                },
                {
                    "name": "C5",
                    "midi": 72,
                    "time": 148.2934820000002,
                    "velocity": 0.3779527559055118,
                    "duration": 0.4806920000000048
                },
                {
                    "name": "A#4",
                    "midi": 70,
                    "time": 148.77417400000022,
                    "velocity": 0.31496062992125984,
                    "duration": 0.24034599999998818
                },
                {
                    "name": "G5",
                    "midi": 79,
                    "time": 149.0145200000002,
                    "velocity": 0.3858267716535433,
                    "duration": 0.24034599999998818
                },
                {
                    "name": "A#4",
                    "midi": 70,
                    "time": 149.2548660000002,
                    "velocity": 0.31496062992125984,
                    "duration": 0.4806920000000048
                },
                {
                    "name": "G#4",
                    "midi": 68,
                    "time": 149.7355580000002,
                    "velocity": 0.31496062992125984,
                    "duration": 0.4806920000000048
                },
                {
                    "name": "G4",
                    "midi": 67,
                    "time": 150.2162500000002,
                    "velocity": 0.33858267716535434,
                    "duration": 0.24034599999998818
                },
                {
                    "name": "C#5",
                    "midi": 73,
                    "time": 150.4565960000002,
                    "velocity": 0.3937007874015748,
                    "duration": 0.24034599999998818
                },
                {
                    "name": "A#4",
                    "midi": 70,
                    "time": 150.69694200000018,
                    "velocity": 0.36220472440944884,
                    "duration": 0.24034599999998818
                },
                {
                    "name": "G4",
                    "midi": 67,
                    "time": 150.93728800000017,
                    "velocity": 0.3700787401574803,
                    "duration": 0.24034599999998818
                },
                {
                    "name": "F4",
                    "midi": 65,
                    "time": 151.17763400000015,
                    "velocity": 0.33858267716535434,
                    "duration": 0.24034599999998818
                },
                {
                    "name": "F4",
                    "midi": 65,
                    "time": 151.41798000000014,
                    "velocity": 0.3700787401574803,
                    "duration": 0.24034599999998818
                },
                {
                    "name": "E4",
                    "midi": 64,
                    "time": 151.65832600000013,
                    "velocity": 0.30708661417322836,
                    "duration": 0.721037999999993
                },
                {
                    "name": "F5",
                    "midi": 77,
                    "time": 152.86005600000013,
                    "velocity": 0.5118110236220472,
                    "duration": 0.060086500000011256
                },
                {
                    "name": "G5",
                    "midi": 79,
                    "time": 152.92014250000014,
                    "velocity": 0.4015748031496063,
                    "duration": 0.060086500000011256
                },
                {
                    "name": "F5",
                    "midi": 77,
                    "time": 152.98022900000015,
                    "velocity": 0.4409448818897638,
                    "duration": 0.060086500000011256
                },
                {
                    "name": "E5",
                    "midi": 76,
                    "time": 153.04031550000016,
                    "velocity": 0.41732283464566927,
                    "duration": 0.060086500000011256
                },
                {
                    "name": "F5",
                    "midi": 77,
                    "time": 153.10040200000017,
                    "velocity": 0.5039370078740157,
                    "duration": 0.721037999999993
                },
                {
                    "name": "A#5",
                    "midi": 82,
                    "time": 153.82144000000017,
                    "velocity": 0.4330708661417323,
                    "duration": 0.16023066666667773
                },
                {
                    "name": "G5",
                    "midi": 79,
                    "time": 153.98167066666684,
                    "velocity": 0.36220472440944884,
                    "duration": 0.16023066666667773
                },
                {
                    "name": "E5",
                    "midi": 76,
                    "time": 154.14190133333352,
                    "velocity": 0.3543307086614173,
                    "duration": 0.16023066666667773
                },
                {
                    "name": "F5",
                    "midi": 77,
                    "time": 154.3021320000002,
                    "velocity": 0.3937007874015748,
                    "duration": 0.24034599999998818
                },
                {
                    "name": "A5",
                    "midi": 81,
                    "time": 154.5424780000002,
                    "velocity": 0.33858267716535434,
                    "duration": 0.24034599999998818
                },
                {
                    "name": "C5",
                    "midi": 72,
                    "time": 154.78282400000018,
                    "velocity": 0.3937007874015748,
                    "duration": 0.4806920000000048
                },
                {
                    "name": "A#4",
                    "midi": 70,
                    "time": 155.26351600000018,
                    "velocity": 0.36220472440944884,
                    "duration": 0.060086500000011256
                },
                {
                    "name": "C5",
                    "midi": 72,
                    "time": 155.3236025000002,
                    "velocity": 0.3228346456692913,
                    "duration": 0.060086500000011256
                },
                {
                    "name": "A#4",
                    "midi": 70,
                    "time": 155.3836890000002,
                    "velocity": 0.36220472440944884,
                    "duration": 0.060086500000011256
                },
                {
                    "name": "C5",
                    "midi": 72,
                    "time": 155.4437755000002,
                    "velocity": 0.3228346456692913,
                    "duration": 0.060086500000011256
                },
                {
                    "name": "A#4",
                    "midi": 70,
                    "time": 155.50386200000023,
                    "velocity": 0.36220472440944884,
                    "duration": 0.08011533333333887
                },
                {
                    "name": "C5",
                    "midi": 72,
                    "time": 155.58397733333356,
                    "velocity": 0.33858267716535434,
                    "duration": 0.08011533333333887
                },
                {
                    "name": "A#4",
                    "midi": 70,
                    "time": 155.6640926666669,
                    "velocity": 0.33858267716535434,
                    "duration": 0.08011533333333887
                },
                {
                    "name": "A4",
                    "midi": 69,
                    "time": 155.74420800000024,
                    "velocity": 0.3937007874015748,
                    "duration": 0.24034599999998818
                },
                {
                    "name": "C5",
                    "midi": 72,
                    "time": 155.98455400000023,
                    "velocity": 0.33858267716535434,
                    "duration": 0.24034599999998818
                },
                {
                    "name": "F5",
                    "midi": 77,
                    "time": 156.22490000000022,
                    "velocity": 0.3937007874015748,
                    "duration": 0.16023066666667773
                },
                {
                    "name": "E5",
                    "midi": 76,
                    "time": 156.3851306666669,
                    "velocity": 0.3228346456692913,
                    "duration": 0.16023066666667773
                },
                {
                    "name": "D5",
                    "midi": 74,
                    "time": 156.54536133333357,
                    "velocity": 0.3228346456692913,
                    "duration": 0.16023066666667773
                },
                {
                    "name": "C5",
                    "midi": 72,
                    "time": 156.70559200000025,
                    "velocity": 0.3700787401574803,
                    "duration": 0.16023066666667773
                },
                {
                    "name": "A#4",
                    "midi": 70,
                    "time": 156.86582266666693,
                    "velocity": 0.31496062992125984,
                    "duration": 0.16023066666667773
                },
                {
                    "name": "A4",
                    "midi": 69,
                    "time": 157.0260533333336,
                    "velocity": 0.31496062992125984,
                    "duration": 0.16023066666667773
                },
                {
                    "name": "G4",
                    "midi": 67,
                    "time": 157.18628400000028,
                    "velocity": 0.3937007874015748,
                    "duration": 0.721037999999993
                },
                {
                    "name": "A4",
                    "midi": 69,
                    "time": 157.90732200000028,
                    "velocity": 0.33858267716535434,
                    "duration": 0.12017299999999409
                },
                {
                    "name": "A#4",
                    "midi": 70,
                    "time": 158.02749500000027,
                    "velocity": 0.2992125984251969,
                    "duration": 0.12017299999999409
                },
                {
                    "name": "A4",
                    "midi": 69,
                    "time": 158.14766800000027,
                    "velocity": 0.3700787401574803,
                    "duration": 0.4806920000000048
                },
                {
                    "name": "F5",
                    "midi": 77,
                    "time": 158.62836000000027,
                    "velocity": 0.5196850393700787,
                    "duration": 0.060086500000011256
                },
                {
                    "name": "G5",
                    "midi": 79,
                    "time": 158.68844650000028,
                    "velocity": 0.4015748031496063,
                    "duration": 0.060086500000011256
                },
                {
                    "name": "F5",
                    "midi": 77,
                    "time": 158.7485330000003,
                    "velocity": 0.4409448818897638,
                    "duration": 0.060086500000011256
                },
                {
                    "name": "E5",
                    "midi": 76,
                    "time": 158.8086195000003,
                    "velocity": 0.4251968503937008,
                    "duration": 0.060086500000011256
                },
                {
                    "name": "F5",
                    "midi": 77,
                    "time": 158.86870600000032,
                    "velocity": 0.5196850393700787,
                    "duration": 0.721037999999993
                },
                {
                    "name": "A#5",
                    "midi": 82,
                    "time": 159.5897440000003,
                    "velocity": 0.4330708661417323,
                    "duration": 0.16023066666667773
                },
                {
                    "name": "G5",
                    "midi": 79,
                    "time": 159.749974666667,
                    "velocity": 0.36220472440944884,
                    "duration": 0.16023066666667773
                },
                {
                    "name": "E5",
                    "midi": 76,
                    "time": 159.91020533333366,
                    "velocity": 0.3543307086614173,
                    "duration": 0.16023066666667773
                },
                {
                    "name": "F5",
                    "midi": 77,
                    "time": 160.07043600000034,
                    "velocity": 0.3937007874015748,
                    "duration": 0.24034599999998818
                },
                {
                    "name": "A5",
                    "midi": 81,
                    "time": 160.31078200000033,
                    "velocity": 0.33858267716535434,
                    "duration": 0.24034599999998818
                },
                {
                    "name": "C5",
                    "midi": 72,
                    "time": 160.55112800000032,
                    "velocity": 0.3937007874015748,
                    "duration": 0.4806920000000048
                },
                {
                    "name": "D5",
                    "midi": 74,
                    "time": 161.03182000000032,
                    "velocity": 0.3937007874015748,
                    "duration": 0.16023066666667773
                },
                {
                    "name": "E5",
                    "midi": 76,
                    "time": 161.192050666667,
                    "velocity": 0.36220472440944884,
                    "duration": 0.16023066666667773
                },
                {
                    "name": "F5",
                    "midi": 77,
                    "time": 161.35228133333368,
                    "velocity": 0.36220472440944884,
                    "duration": 0.15021624999999972
                },
                {
                    "name": "F5",
                    "midi": 77,
                    "time": 161.51251200000036,
                    "velocity": 0.4251968503937008,
                    "duration": 0.16023066666667773
                },
                {
                    "name": "E5",
                    "midi": 76,
                    "time": 161.67274266666703,
                    "velocity": 0.3779527559055118,
                    "duration": 0.16023066666667773
                },
                {
                    "name": "D5",
                    "midi": 74,
                    "time": 161.8329733333337,
                    "velocity": 0.3779527559055118,
                    "duration": 0.16023066666667773
                },
                {
                    "name": "C5",
                    "midi": 72,
                    "time": 161.9932040000004,
                    "velocity": 0.4015748031496063,
                    "duration": 0.4806920000000048
                },
                {
                    "name": "D5",
                    "midi": 74,
                    "time": 162.4738960000004,
                    "velocity": 0.3937007874015748,
                    "duration": 0.16023066666667773
                },
                {
                    "name": "E5",
                    "midi": 76,
                    "time": 162.63412666666707,
                    "velocity": 0.3700787401574803,
                    "duration": 0.16023066666667773
                },
                {
                    "name": "F5",
                    "midi": 77,
                    "time": 162.79435733333375,
                    "velocity": 0.3700787401574803,
                    "duration": 0.15021624999999972
                },
                {
                    "name": "F5",
                    "midi": 77,
                    "time": 162.95458800000043,
                    "velocity": 0.41732283464566927,
                    "duration": 0.16023066666667773
                },
                {
                    "name": "E5",
                    "midi": 76,
                    "time": 163.1148186666671,
                    "velocity": 0.36220472440944884,
                    "duration": 0.16023066666667773
                },
                {
                    "name": "D5",
                    "midi": 74,
                    "time": 163.27504933333378,
                    "velocity": 0.33858267716535434,
                    "duration": 0.16023066666667773
                },
                {
                    "name": "C5",
                    "midi": 72,
                    "time": 163.43528000000046,
                    "velocity": 0.41732283464566927,
                    "duration": 0.16023066666667773
                },
                {
                    "name": "F5",
                    "midi": 77,
                    "time": 163.59551066666714,
                    "velocity": 0.3700787401574803,
                    "duration": 0.16023066666667773
                },
                {
                    "name": "A5",
                    "midi": 81,
                    "time": 163.75574133333382,
                    "velocity": 0.3937007874015748,
                    "duration": 0.16023066666667773
                },
                {
                    "name": "C5",
                    "midi": 72,
                    "time": 163.9159720000005,
                    "velocity": 0.4409448818897638,
                    "duration": 0.16023066666667773
                },
                {
                    "name": "G5",
                    "midi": 79,
                    "time": 164.07620266666717,
                    "velocity": 0.3858267716535433,
                    "duration": 0.16023066666667773
                },
                {
                    "name": "A#5",
                    "midi": 82,
                    "time": 164.23643333333385,
                    "velocity": 0.41732283464566927,
                    "duration": 0.16023066666667773
                },
                {
                    "name": "A5",
                    "midi": 81,
                    "time": 164.39666400000053,
                    "velocity": 0.48031496062992124,
                    "duration": 0.16023066666667773
                },
                {
                    "name": "A#5",
                    "midi": 82,
                    "time": 164.5568946666672,
                    "velocity": 0.36220472440944884,
                    "duration": 0.16023066666667773
                },
                {
                    "name": "C6",
                    "midi": 84,
                    "time": 164.71712533333388,
                    "velocity": 0.36220472440944884,
                    "duration": 0.16023066666667773
                },
                {
                    "name": "F5",
                    "midi": 77,
                    "time": 164.87735600000056,
                    "velocity": 0.3937007874015748,
                    "duration": 0.4806920000000048
                },
                {
                    "name": "E5",
                    "midi": 76,
                    "time": 165.35804800000057,
                    "velocity": 0.36220472440944884,
                    "duration": 0.060086500000011256
                },
                {
                    "name": "F5",
                    "midi": 77,
                    "time": 165.41813450000058,
                    "velocity": 0.3228346456692913,
                    "duration": 0.060086500000011256
                },
                {
                    "name": "E5",
                    "midi": 76,
                    "time": 165.4782210000006,
                    "velocity": 0.36220472440944884,
                    "duration": 0.060086500000011256
                },
                {
                    "name": "F5",
                    "midi": 77,
                    "time": 165.5383075000006,
                    "velocity": 0.3228346456692913,
                    "duration": 0.060086500000011256
                },
                {
                    "name": "E5",
                    "midi": 76,
                    "time": 165.5983940000006,
                    "velocity": 0.36220472440944884,
                    "duration": 0.08011533333333887
                },
                {
                    "name": "F5",
                    "midi": 77,
                    "time": 165.67850933333395,
                    "velocity": 0.33858267716535434,
                    "duration": 0.08011533333333887
                },
                {
                    "name": "E5",
                    "midi": 76,
                    "time": 165.7586246666673,
                    "velocity": 0.33858267716535434,
                    "duration": 0.08011533333333887
                },
                {
                    "name": "F5",
                    "midi": 77,
                    "time": 165.83874000000063,
                    "velocity": 0.4330708661417323,
                    "duration": 0.9613840000000096
                }
            ],
            "controlChanges": {},
            "id": 1,
            "name": "Piano right",
            "instrumentNumber": 0,
            "instrument": "acoustic grand piano",
            "instrumentFamily": "piano",
            "channelNumber": 0,
            "isPercussion": false
        },
        {
            "startTime": 0,
            "duration": 167.2808160000004,
            "length": 447,
            "notes": [
                {
                    "name": "F2",
                    "midi": 41,
                    "time": 0,
                    "velocity": 0.25984251968503935,
                    "duration": 0.480692
                },
                {
                    "name": "F3",
                    "midi": 53,
                    "time": 0,
                    "velocity": 0.30708661417322836,
                    "duration": 0.480692
                },
                {
                    "name": "A3",
                    "midi": 57,
                    "time": 0.480692,
                    "velocity": 0.2677165354330709,
                    "duration": 0.480692
                },
                {
                    "name": "A2",
                    "midi": 45,
                    "time": 0.480692,
                    "velocity": 0.2204724409448819,
                    "duration": 0.480692
                },
                {
                    "name": "C4",
                    "midi": 60,
                    "time": 0.961384,
                    "velocity": 0.2677165354330709,
                    "duration": 0.4806920000000001
                },
                {
                    "name": "C3",
                    "midi": 48,
                    "time": 0.961384,
                    "velocity": 0.2204724409448819,
                    "duration": 0.4806920000000001
                },
                {
                    "name": "F3",
                    "midi": 53,
                    "time": 1.4420760000000001,
                    "velocity": 0.2677165354330709,
                    "duration": 0.4806919999999999
                },
                {
                    "name": "F4",
                    "midi": 65,
                    "time": 1.4420760000000001,
                    "velocity": 0.3228346456692913,
                    "duration": 0.4806919999999999
                },
                {
                    "name": "G4",
                    "midi": 67,
                    "time": 2.40346,
                    "velocity": 0.2677165354330709,
                    "duration": 0.4806919999999999
                },
                {
                    "name": "F4",
                    "midi": 65,
                    "time": 2.884152,
                    "velocity": 0.3228346456692913,
                    "duration": 0.4806919999999999
                },
                {
                    "name": "E4",
                    "midi": 64,
                    "time": 4.3262279999999995,
                    "velocity": 0.3228346456692913,
                    "duration": 0.48069200000000034
                },
                {
                    "name": "C4",
                    "midi": 60,
                    "time": 4.80692,
                    "velocity": 0.2677165354330709,
                    "duration": 0.48069200000000034
                },
                {
                    "name": "F4",
                    "midi": 65,
                    "time": 5.287612,
                    "velocity": 0.3228346456692913,
                    "duration": 0.48069200000000034
                },
                {
                    "name": "F3",
                    "midi": 53,
                    "time": 5.7683040000000005,
                    "velocity": 0.30708661417322836,
                    "duration": 0.48069200000000034
                },
                {
                    "name": "A3",
                    "midi": 57,
                    "time": 6.248996000000001,
                    "velocity": 0.2677165354330709,
                    "duration": 0.48069200000000034
                },
                {
                    "name": "C4",
                    "midi": 60,
                    "time": 6.729688000000001,
                    "velocity": 0.2677165354330709,
                    "duration": 0.48069200000000034
                },
                {
                    "name": "F3",
                    "midi": 53,
                    "time": 7.210380000000002,
                    "velocity": 0.2677165354330709,
                    "duration": 0.48069200000000034
                },
                {
                    "name": "F4",
                    "midi": 65,
                    "time": 7.210380000000002,
                    "velocity": 0.3228346456692913,
                    "duration": 0.48069200000000034
                },
                {
                    "name": "F4",
                    "midi": 65,
                    "time": 8.171764000000001,
                    "velocity": 0.2677165354330709,
                    "duration": 0.48069199999999945
                },
                {
                    "name": "E4",
                    "midi": 64,
                    "time": 8.652456,
                    "velocity": 0.3228346456692913,
                    "duration": 0.9613840000000007
                },
                {
                    "name": "F4",
                    "midi": 65,
                    "time": 9.613840000000001,
                    "velocity": 0.2755905511811024,
                    "duration": 0.48069199999999945
                },
                {
                    "name": "E4",
                    "midi": 64,
                    "time": 10.094532000000001,
                    "velocity": 0.3228346456692913,
                    "duration": 0.9613840000000007
                },
                {
                    "name": "B3",
                    "midi": 59,
                    "time": 11.055916000000002,
                    "velocity": 0.2992125984251969,
                    "duration": 0.48069199999999945
                },
                {
                    "name": "B2",
                    "midi": 47,
                    "time": 11.055916000000002,
                    "velocity": 0.25196850393700787,
                    "duration": 0.48069199999999945
                },
                {
                    "name": "C3",
                    "midi": 48,
                    "time": 11.536608000000001,
                    "velocity": 0.2677165354330709,
                    "duration": 0.48069199999999945
                },
                {
                    "name": "C4",
                    "midi": 60,
                    "time": 11.536608000000001,
                    "velocity": 0.3228346456692913,
                    "duration": 0.48069199999999945
                },
                {
                    "name": "E4",
                    "midi": 64,
                    "time": 12.0173,
                    "velocity": 0.3228346456692913,
                    "duration": 0.48069199999999945
                },
                {
                    "name": "G3",
                    "midi": 55,
                    "time": 12.0173,
                    "velocity": 0.2677165354330709,
                    "duration": 0.48069199999999945
                },
                {
                    "name": "G3",
                    "midi": 55,
                    "time": 12.497992,
                    "velocity": 0.2204724409448819,
                    "duration": 0.48069199999999945
                },
                {
                    "name": "D4",
                    "midi": 62,
                    "time": 12.497992,
                    "velocity": 0.2677165354330709,
                    "duration": 0.48069199999999945
                },
                {
                    "name": "C4",
                    "midi": 60,
                    "time": 12.978684,
                    "velocity": 0.3228346456692913,
                    "duration": 0.48069199999999945
                },
                {
                    "name": "G3",
                    "midi": 55,
                    "time": 13.459375999999999,
                    "velocity": 0.2992125984251969,
                    "duration": 0.12017299999999942
                },
                {
                    "name": "C3",
                    "midi": 48,
                    "time": 13.940067999999998,
                    "velocity": 0.30708661417322836,
                    "duration": 0.48069199999999945
                },
                {
                    "name": "F2",
                    "midi": 41,
                    "time": 14.420759999999998,
                    "velocity": 0.25984251968503935,
                    "duration": 0.48069199999999945
                },
                {
                    "name": "F3",
                    "midi": 53,
                    "time": 14.420759999999998,
                    "velocity": 0.30708661417322836,
                    "duration": 0.48069199999999945
                },
                {
                    "name": "A3",
                    "midi": 57,
                    "time": 14.901451999999997,
                    "velocity": 0.2677165354330709,
                    "duration": 0.48069199999999945
                },
                {
                    "name": "A2",
                    "midi": 45,
                    "time": 14.901451999999997,
                    "velocity": 0.2204724409448819,
                    "duration": 0.48069199999999945
                },
                {
                    "name": "C4",
                    "midi": 60,
                    "time": 15.382143999999997,
                    "velocity": 0.2677165354330709,
                    "duration": 0.48069199999999945
                },
                {
                    "name": "C3",
                    "midi": 48,
                    "time": 15.382143999999997,
                    "velocity": 0.2204724409448819,
                    "duration": 0.48069199999999945
                },
                {
                    "name": "F3",
                    "midi": 53,
                    "time": 15.862835999999996,
                    "velocity": 0.2677165354330709,
                    "duration": 0.48069199999999945
                },
                {
                    "name": "F4",
                    "midi": 65,
                    "time": 15.862835999999996,
                    "velocity": 0.3228346456692913,
                    "duration": 0.48069199999999945
                },
                {
                    "name": "G4",
                    "midi": 67,
                    "time": 16.824219999999997,
                    "velocity": 0.2677165354330709,
                    "duration": 0.48069200000000123
                },
                {
                    "name": "F4",
                    "midi": 65,
                    "time": 17.304911999999998,
                    "velocity": 0.3228346456692913,
                    "duration": 0.48069200000000123
                },
                {
                    "name": "E4",
                    "midi": 64,
                    "time": 18.746987999999998,
                    "velocity": 0.3228346456692913,
                    "duration": 0.48069200000000123
                },
                {
                    "name": "C4",
                    "midi": 60,
                    "time": 19.22768,
                    "velocity": 0.2677165354330709,
                    "duration": 0.48069200000000123
                },
                {
                    "name": "F4",
                    "midi": 65,
                    "time": 19.708372,
                    "velocity": 0.3228346456692913,
                    "duration": 0.48069200000000123
                },
                {
                    "name": "F3",
                    "midi": 53,
                    "time": 20.189064000000002,
                    "velocity": 0.30708661417322836,
                    "duration": 0.48069200000000123
                },
                {
                    "name": "A3",
                    "midi": 57,
                    "time": 20.669756000000003,
                    "velocity": 0.2677165354330709,
                    "duration": 0.48069200000000123
                },
                {
                    "name": "C4",
                    "midi": 60,
                    "time": 21.150448000000004,
                    "velocity": 0.2677165354330709,
                    "duration": 0.48069200000000123
                },
                {
                    "name": "F3",
                    "midi": 53,
                    "time": 21.631140000000006,
                    "velocity": 0.2677165354330709,
                    "duration": 0.48069200000000123
                },
                {
                    "name": "F4",
                    "midi": 65,
                    "time": 21.631140000000006,
                    "velocity": 0.3228346456692913,
                    "duration": 0.48069200000000123
                },
                {
                    "name": "F4",
                    "midi": 65,
                    "time": 22.592524000000008,
                    "velocity": 0.2677165354330709,
                    "duration": 0.48069200000000123
                },
                {
                    "name": "E4",
                    "midi": 64,
                    "time": 23.07321600000001,
                    "velocity": 0.3228346456692913,
                    "duration": 0.9613839999999989
                },
                {
                    "name": "F4",
                    "midi": 65,
                    "time": 24.034600000000008,
                    "velocity": 0.2755905511811024,
                    "duration": 0.48069200000000123
                },
                {
                    "name": "E4",
                    "midi": 64,
                    "time": 24.51529200000001,
                    "velocity": 0.3228346456692913,
                    "duration": 0.9613839999999989
                },
                {
                    "name": "B3",
                    "midi": 59,
                    "time": 25.47667600000001,
                    "velocity": 0.2992125984251969,
                    "duration": 0.48069200000000123
                },
                {
                    "name": "B2",
                    "midi": 47,
                    "time": 25.47667600000001,
                    "velocity": 0.25196850393700787,
                    "duration": 0.48069200000000123
                },
                {
                    "name": "C3",
                    "midi": 48,
                    "time": 25.95736800000001,
                    "velocity": 0.2677165354330709,
                    "duration": 0.48069200000000123
                },
                {
                    "name": "C4",
                    "midi": 60,
                    "time": 25.95736800000001,
                    "velocity": 0.3228346456692913,
                    "duration": 0.48069200000000123
                },
                {
                    "name": "E4",
                    "midi": 64,
                    "time": 26.43806000000001,
                    "velocity": 0.3228346456692913,
                    "duration": 0.48069200000000123
                },
                {
                    "name": "G3",
                    "midi": 55,
                    "time": 26.43806000000001,
                    "velocity": 0.2677165354330709,
                    "duration": 0.48069200000000123
                },
                {
                    "name": "G3",
                    "midi": 55,
                    "time": 26.918752000000012,
                    "velocity": 0.2204724409448819,
                    "duration": 0.48069200000000123
                },
                {
                    "name": "D4",
                    "midi": 62,
                    "time": 26.918752000000012,
                    "velocity": 0.2677165354330709,
                    "duration": 0.48069200000000123
                },
                {
                    "name": "C4",
                    "midi": 60,
                    "time": 27.399444000000013,
                    "velocity": 0.3228346456692913,
                    "duration": 0.48069200000000123
                },
                {
                    "name": "G3",
                    "midi": 55,
                    "time": 27.880136000000014,
                    "velocity": 0.2992125984251969,
                    "duration": 0.1201730000000012
                },
                {
                    "name": "C3",
                    "midi": 48,
                    "time": 28.360828000000016,
                    "velocity": 0.30708661417322836,
                    "duration": 0.48069200000000123
                },
                {
                    "name": "C4",
                    "midi": 60,
                    "time": 28.841520000000017,
                    "velocity": 0.25984251968503935,
                    "duration": 2.403460000000006
                },
                {
                    "name": "G4",
                    "midi": 67,
                    "time": 29.322212000000018,
                    "velocity": 0.2677165354330709,
                    "duration": 0.48069200000000123
                },
                {
                    "name": "A#4",
                    "midi": 70,
                    "time": 29.80290400000002,
                    "velocity": 0.2677165354330709,
                    "duration": 0.48069200000000123
                },
                {
                    "name": "A4",
                    "midi": 69,
                    "time": 30.28359600000002,
                    "velocity": 0.36220472440944884,
                    "duration": 0.48069200000000123
                },
                {
                    "name": "E4",
                    "midi": 64,
                    "time": 30.764288000000022,
                    "velocity": 0.3228346456692913,
                    "duration": 0.48069200000000123
                },
                {
                    "name": "F4",
                    "midi": 65,
                    "time": 31.244980000000023,
                    "velocity": 0.3700787401574803,
                    "duration": 0.48069200000000123
                },
                {
                    "name": "A#3",
                    "midi": 58,
                    "time": 31.725672000000024,
                    "velocity": 0.36220472440944884,
                    "duration": 0.9613840000000025
                },
                {
                    "name": "B3",
                    "midi": 59,
                    "time": 32.68705600000003,
                    "velocity": 0.33070866141732286,
                    "duration": 0.4806919999999977
                },
                {
                    "name": "C4",
                    "midi": 60,
                    "time": 33.167748000000024,
                    "velocity": 0.36220472440944884,
                    "duration": 0.4806919999999977
                },
                {
                    "name": "G3",
                    "midi": 55,
                    "time": 33.64844000000002,
                    "velocity": 0.31496062992125984,
                    "duration": 0.1201730000000012
                },
                {
                    "name": "C3",
                    "midi": 48,
                    "time": 34.12913200000003,
                    "velocity": 0.2755905511811024,
                    "duration": 0.4806919999999977
                },
                {
                    "name": "C4",
                    "midi": 60,
                    "time": 34.609824000000025,
                    "velocity": 0.31496062992125984,
                    "duration": 0.4806919999999977
                },
                {
                    "name": "G#4",
                    "midi": 68,
                    "time": 35.09051600000002,
                    "velocity": 0.29133858267716534,
                    "duration": 0.4806919999999977
                },
                {
                    "name": "F4",
                    "midi": 65,
                    "time": 35.57120800000002,
                    "velocity": 0.25984251968503935,
                    "duration": 0.4806919999999977
                },
                {
                    "name": "G4",
                    "midi": 67,
                    "time": 36.05190000000002,
                    "velocity": 0.3228346456692913,
                    "duration": 0.4806919999999977
                },
                {
                    "name": "E4",
                    "midi": 64,
                    "time": 36.532592000000015,
                    "velocity": 0.25984251968503935,
                    "duration": 0.4806919999999977
                },
                {
                    "name": "F4",
                    "midi": 65,
                    "time": 37.01328400000001,
                    "velocity": 0.25984251968503935,
                    "duration": 0.4806919999999977
                },
                {
                    "name": "A#3",
                    "midi": 58,
                    "time": 37.49397600000001,
                    "velocity": 0.33070866141732286,
                    "duration": 0.9613840000000025
                },
                {
                    "name": "B3",
                    "midi": 59,
                    "time": 38.45536000000001,
                    "velocity": 0.3228346456692913,
                    "duration": 0.4806919999999977
                },
                {
                    "name": "C4",
                    "midi": 60,
                    "time": 38.93605200000001,
                    "velocity": 0.33858267716535434,
                    "duration": 0.4806919999999977
                },
                {
                    "name": "G3",
                    "midi": 55,
                    "time": 39.41674400000001,
                    "velocity": 0.2677165354330709,
                    "duration": 0.1201730000000012
                },
                {
                    "name": "C3",
                    "midi": 48,
                    "time": 39.89743600000001,
                    "velocity": 0.29133858267716534,
                    "duration": 0.4806919999999977
                },
                {
                    "name": "F2",
                    "midi": 41,
                    "time": 40.37812800000001,
                    "velocity": 0.25984251968503935,
                    "duration": 0.4806919999999977
                },
                {
                    "name": "F3",
                    "midi": 53,
                    "time": 40.37812800000001,
                    "velocity": 0.30708661417322836,
                    "duration": 0.4806919999999977
                },
                {
                    "name": "A3",
                    "midi": 57,
                    "time": 40.85882000000001,
                    "velocity": 0.2677165354330709,
                    "duration": 0.4806919999999977
                },
                {
                    "name": "A2",
                    "midi": 45,
                    "time": 40.85882000000001,
                    "velocity": 0.2204724409448819,
                    "duration": 0.4806919999999977
                },
                {
                    "name": "C4",
                    "midi": 60,
                    "time": 41.339512000000006,
                    "velocity": 0.2677165354330709,
                    "duration": 0.4806919999999977
                },
                {
                    "name": "C3",
                    "midi": 48,
                    "time": 41.339512000000006,
                    "velocity": 0.2204724409448819,
                    "duration": 0.4806919999999977
                },
                {
                    "name": "F3",
                    "midi": 53,
                    "time": 41.820204000000004,
                    "velocity": 0.2677165354330709,
                    "duration": 0.4806919999999977
                },
                {
                    "name": "F4",
                    "midi": 65,
                    "time": 41.820204000000004,
                    "velocity": 0.3228346456692913,
                    "duration": 0.4806919999999977
                },
                {
                    "name": "G4",
                    "midi": 67,
                    "time": 42.781588,
                    "velocity": 0.2677165354330709,
                    "duration": 0.4806919999999977
                },
                {
                    "name": "F4",
                    "midi": 65,
                    "time": 43.26228,
                    "velocity": 0.3228346456692913,
                    "duration": 0.4806919999999977
                },
                {
                    "name": "E4",
                    "midi": 64,
                    "time": 44.704356,
                    "velocity": 0.3228346456692913,
                    "duration": 0.4806919999999977
                },
                {
                    "name": "C4",
                    "midi": 60,
                    "time": 45.185047999999995,
                    "velocity": 0.2677165354330709,
                    "duration": 0.4806919999999977
                },
                {
                    "name": "F4",
                    "midi": 65,
                    "time": 45.66573999999999,
                    "velocity": 0.3228346456692913,
                    "duration": 0.4806919999999977
                },
                {
                    "name": "F2",
                    "midi": 41,
                    "time": 46.14643199999999,
                    "velocity": 0.25984251968503935,
                    "duration": 0.4806919999999977
                },
                {
                    "name": "F3",
                    "midi": 53,
                    "time": 46.14643199999999,
                    "velocity": 0.30708661417322836,
                    "duration": 0.4806919999999977
                },
                {
                    "name": "A2",
                    "midi": 45,
                    "time": 46.62712399999999,
                    "velocity": 0.2204724409448819,
                    "duration": 0.4806919999999977
                },
                {
                    "name": "A3",
                    "midi": 57,
                    "time": 46.62712399999999,
                    "velocity": 0.2677165354330709,
                    "duration": 0.4806919999999977
                },
                {
                    "name": "C3",
                    "midi": 48,
                    "time": 47.107815999999985,
                    "velocity": 0.2204724409448819,
                    "duration": 0.4806919999999977
                },
                {
                    "name": "C4",
                    "midi": 60,
                    "time": 47.107815999999985,
                    "velocity": 0.2677165354330709,
                    "duration": 0.4806919999999977
                },
                {
                    "name": "F3",
                    "midi": 53,
                    "time": 47.58850799999998,
                    "velocity": 0.2677165354330709,
                    "duration": 0.4806919999999977
                },
                {
                    "name": "F4",
                    "midi": 65,
                    "time": 47.58850799999998,
                    "velocity": 0.3228346456692913,
                    "duration": 0.4806919999999977
                },
                {
                    "name": "A#2",
                    "midi": 46,
                    "time": 48.54989199999998,
                    "velocity": 0.2204724409448819,
                    "duration": 0.4806919999999977
                },
                {
                    "name": "A#3",
                    "midi": 58,
                    "time": 48.54989199999998,
                    "velocity": 0.2677165354330709,
                    "duration": 0.4806919999999977
                },
                {
                    "name": "A3",
                    "midi": 57,
                    "time": 49.030583999999976,
                    "velocity": 0.3228346456692913,
                    "duration": 0.4806919999999977
                },
                {
                    "name": "A2",
                    "midi": 45,
                    "time": 49.030583999999976,
                    "velocity": 0.2677165354330709,
                    "duration": 0.4806919999999977
                },
                {
                    "name": "F4",
                    "midi": 65,
                    "time": 49.511275999999974,
                    "velocity": 0.2125984251968504,
                    "duration": 0.4806919999999977
                },
                {
                    "name": "F3",
                    "midi": 53,
                    "time": 49.511275999999974,
                    "velocity": 0.1732283464566929,
                    "duration": 0.4806919999999977
                },
                {
                    "name": "A#3",
                    "midi": 58,
                    "time": 49.99196799999997,
                    "velocity": 0.2755905511811024,
                    "duration": 0.4806919999999977
                },
                {
                    "name": "A#2",
                    "midi": 46,
                    "time": 49.99196799999997,
                    "velocity": 0.2283464566929134,
                    "duration": 0.4806919999999977
                },
                {
                    "name": "A2",
                    "midi": 45,
                    "time": 50.47265999999997,
                    "velocity": 0.2677165354330709,
                    "duration": 0.4806919999999977
                },
                {
                    "name": "A3",
                    "midi": 57,
                    "time": 50.47265999999997,
                    "velocity": 0.3228346456692913,
                    "duration": 0.4806919999999977
                },
                {
                    "name": "F3",
                    "midi": 53,
                    "time": 50.95335199999997,
                    "velocity": 0.18110236220472442,
                    "duration": 0.4806919999999977
                },
                {
                    "name": "F4",
                    "midi": 65,
                    "time": 50.95335199999997,
                    "velocity": 0.2204724409448819,
                    "duration": 0.4806919999999977
                },
                {
                    "name": "E3",
                    "midi": 52,
                    "time": 51.434043999999965,
                    "velocity": 0.23622047244094488,
                    "duration": 0.4806919999999977
                },
                {
                    "name": "E4",
                    "midi": 64,
                    "time": 51.434043999999965,
                    "velocity": 0.28346456692913385,
                    "duration": 0.4806919999999977
                },
                {
                    "name": "F3",
                    "midi": 53,
                    "time": 51.91473599999996,
                    "velocity": 0.2204724409448819,
                    "duration": 0.4806919999999977
                },
                {
                    "name": "F4",
                    "midi": 65,
                    "time": 51.91473599999996,
                    "velocity": 0.3228346456692913,
                    "duration": 0.4806919999999977
                },
                {
                    "name": "A3",
                    "midi": 57,
                    "time": 52.39542799999996,
                    "velocity": 0.3228346456692913,
                    "duration": 0.4806919999999977
                },
                {
                    "name": "C3",
                    "midi": 48,
                    "time": 52.39542799999996,
                    "velocity": 0.2677165354330709,
                    "duration": 0.4806919999999977
                },
                {
                    "name": "C3",
                    "midi": 48,
                    "time": 52.87611999999996,
                    "velocity": 0.2204724409448819,
                    "duration": 0.4806919999999977
                },
                {
                    "name": "G3",
                    "midi": 55,
                    "time": 52.87611999999996,
                    "velocity": 0.2677165354330709,
                    "duration": 0.4806919999999977
                },
                {
                    "name": "F3",
                    "midi": 53,
                    "time": 53.356811999999955,
                    "velocity": 0.3228346456692913,
                    "duration": 0.4806919999999977
                },
                {
                    "name": "C3",
                    "midi": 48,
                    "time": 53.83750399999995,
                    "velocity": 0.2992125984251969,
                    "duration": 0.1201730000000012
                },
                {
                    "name": "F2",
                    "midi": 41,
                    "time": 54.31819599999996,
                    "velocity": 0.30708661417322836,
                    "duration": 0.4806919999999977
                },
                {
                    "name": "C4",
                    "midi": 60,
                    "time": 54.798887999999955,
                    "velocity": 0.25984251968503935,
                    "duration": 2.4034599999999884
                },
                {
                    "name": "G4",
                    "midi": 67,
                    "time": 55.27957999999995,
                    "velocity": 0.2677165354330709,
                    "duration": 0.4806919999999977
                },
                {
                    "name": "A#4",
                    "midi": 70,
                    "time": 55.76027199999995,
                    "velocity": 0.2677165354330709,
                    "duration": 0.4806919999999977
                },
                {
                    "name": "A4",
                    "midi": 69,
                    "time": 56.24096399999995,
                    "velocity": 0.36220472440944884,
                    "duration": 0.4806919999999977
                },
                {
                    "name": "E4",
                    "midi": 64,
                    "time": 56.721655999999946,
                    "velocity": 0.3228346456692913,
                    "duration": 0.4806919999999977
                },
                {
                    "name": "F4",
                    "midi": 65,
                    "time": 57.202347999999944,
                    "velocity": 0.3700787401574803,
                    "duration": 0.4806919999999977
                },
                {
                    "name": "A#3",
                    "midi": 58,
                    "time": 57.68303999999994,
                    "velocity": 0.36220472440944884,
                    "duration": 0.9613840000000025
                },
                {
                    "name": "B3",
                    "midi": 59,
                    "time": 58.644423999999944,
                    "velocity": 0.33070866141732286,
                    "duration": 0.4806919999999977
                },
                {
                    "name": "C4",
                    "midi": 60,
                    "time": 59.12511599999994,
                    "velocity": 0.36220472440944884,
                    "duration": 0.4806919999999977
                },
                {
                    "name": "G3",
                    "midi": 55,
                    "time": 59.60580799999994,
                    "velocity": 0.29133858267716534,
                    "duration": 0.1201730000000012
                },
                {
                    "name": "C3",
                    "midi": 48,
                    "time": 60.086499999999944,
                    "velocity": 0.25196850393700787,
                    "duration": 0.4806919999999977
                },
                {
                    "name": "C4",
                    "midi": 60,
                    "time": 60.56719199999994,
                    "velocity": 0.31496062992125984,
                    "duration": 0.4806919999999977
                },
                {
                    "name": "G#4",
                    "midi": 68,
                    "time": 61.04788399999994,
                    "velocity": 0.29133858267716534,
                    "duration": 0.4806919999999977
                },
                {
                    "name": "F4",
                    "midi": 65,
                    "time": 61.52857599999994,
                    "velocity": 0.25984251968503935,
                    "duration": 0.4806919999999977
                },
                {
                    "name": "G4",
                    "midi": 67,
                    "time": 62.009267999999935,
                    "velocity": 0.3228346456692913,
                    "duration": 0.4806919999999977
                },
                {
                    "name": "E4",
                    "midi": 64,
                    "time": 62.48995999999993,
                    "velocity": 0.25984251968503935,
                    "duration": 0.4806919999999977
                },
                {
                    "name": "F4",
                    "midi": 65,
                    "time": 62.97065199999993,
                    "velocity": 0.25984251968503935,
                    "duration": 0.4806919999999977
                },
                {
                    "name": "A#3",
                    "midi": 58,
                    "time": 63.45134399999993,
                    "velocity": 0.33070866141732286,
                    "duration": 0.9613840000000025
                },
                {
                    "name": "B3",
                    "midi": 59,
                    "time": 64.41272799999993,
                    "velocity": 0.3228346456692913,
                    "duration": 0.4806920000000048
                },
                {
                    "name": "C4",
                    "midi": 60,
                    "time": 64.89341999999994,
                    "velocity": 0.33858267716535434,
                    "duration": 0.4806920000000048
                },
                {
                    "name": "G3",
                    "midi": 55,
                    "time": 65.37411199999994,
                    "velocity": 0.2677165354330709,
                    "duration": 0.12017299999999409
                },
                {
                    "name": "C3",
                    "midi": 48,
                    "time": 65.85480399999993,
                    "velocity": 0.29133858267716534,
                    "duration": 0.4806920000000048
                },
                {
                    "name": "F2",
                    "midi": 41,
                    "time": 66.33549599999994,
                    "velocity": 0.25984251968503935,
                    "duration": 0.4806920000000048
                },
                {
                    "name": "F3",
                    "midi": 53,
                    "time": 66.33549599999994,
                    "velocity": 0.30708661417322836,
                    "duration": 0.4806920000000048
                },
                {
                    "name": "A3",
                    "midi": 57,
                    "time": 66.81618799999994,
                    "velocity": 0.2677165354330709,
                    "duration": 0.4806920000000048
                },
                {
                    "name": "A2",
                    "midi": 45,
                    "time": 66.81618799999994,
                    "velocity": 0.2204724409448819,
                    "duration": 0.4806920000000048
                },
                {
                    "name": "C4",
                    "midi": 60,
                    "time": 67.29687999999994,
                    "velocity": 0.2677165354330709,
                    "duration": 0.4806920000000048
                },
                {
                    "name": "C3",
                    "midi": 48,
                    "time": 67.29687999999994,
                    "velocity": 0.2204724409448819,
                    "duration": 0.4806920000000048
                },
                {
                    "name": "F3",
                    "midi": 53,
                    "time": 67.77757199999995,
                    "velocity": 0.2677165354330709,
                    "duration": 0.4806920000000048
                },
                {
                    "name": "F4",
                    "midi": 65,
                    "time": 67.77757199999995,
                    "velocity": 0.3228346456692913,
                    "duration": 0.4806920000000048
                },
                {
                    "name": "G4",
                    "midi": 67,
                    "time": 68.73895599999996,
                    "velocity": 0.2677165354330709,
                    "duration": 0.4806920000000048
                },
                {
                    "name": "F4",
                    "midi": 65,
                    "time": 69.21964799999996,
                    "velocity": 0.3228346456692913,
                    "duration": 0.4806920000000048
                },
                {
                    "name": "E4",
                    "midi": 64,
                    "time": 70.66172399999996,
                    "velocity": 0.3228346456692913,
                    "duration": 0.4806920000000048
                },
                {
                    "name": "C4",
                    "midi": 60,
                    "time": 71.14241599999997,
                    "velocity": 0.2677165354330709,
                    "duration": 0.4806920000000048
                },
                {
                    "name": "F4",
                    "midi": 65,
                    "time": 71.62310799999997,
                    "velocity": 0.3228346456692913,
                    "duration": 0.4806920000000048
                },
                {
                    "name": "F2",
                    "midi": 41,
                    "time": 72.10379999999998,
                    "velocity": 0.25984251968503935,
                    "duration": 0.4806920000000048
                },
                {
                    "name": "F3",
                    "midi": 53,
                    "time": 72.10379999999998,
                    "velocity": 0.30708661417322836,
                    "duration": 0.4806920000000048
                },
                {
                    "name": "A2",
                    "midi": 45,
                    "time": 72.58449199999998,
                    "velocity": 0.2204724409448819,
                    "duration": 0.4806920000000048
                },
                {
                    "name": "A3",
                    "midi": 57,
                    "time": 72.58449199999998,
                    "velocity": 0.2677165354330709,
                    "duration": 0.4806920000000048
                },
                {
                    "name": "C3",
                    "midi": 48,
                    "time": 73.06518399999999,
                    "velocity": 0.2204724409448819,
                    "duration": 0.4806920000000048
                },
                {
                    "name": "C4",
                    "midi": 60,
                    "time": 73.06518399999999,
                    "velocity": 0.2677165354330709,
                    "duration": 0.4806920000000048
                },
                {
                    "name": "F3",
                    "midi": 53,
                    "time": 73.54587599999999,
                    "velocity": 0.2677165354330709,
                    "duration": 0.4806920000000048
                },
                {
                    "name": "F4",
                    "midi": 65,
                    "time": 73.54587599999999,
                    "velocity": 0.3228346456692913,
                    "duration": 0.4806920000000048
                },
                {
                    "name": "A#2",
                    "midi": 46,
                    "time": 74.50726,
                    "velocity": 0.2204724409448819,
                    "duration": 0.4806920000000048
                },
                {
                    "name": "A#3",
                    "midi": 58,
                    "time": 74.50726,
                    "velocity": 0.2677165354330709,
                    "duration": 0.4806920000000048
                },
                {
                    "name": "A3",
                    "midi": 57,
                    "time": 74.987952,
                    "velocity": 0.3228346456692913,
                    "duration": 0.4806920000000048
                },
                {
                    "name": "A2",
                    "midi": 45,
                    "time": 74.987952,
                    "velocity": 0.2677165354330709,
                    "duration": 0.4806920000000048
                },
                {
                    "name": "F4",
                    "midi": 65,
                    "time": 75.46864400000001,
                    "velocity": 0.2125984251968504,
                    "duration": 0.4806920000000048
                },
                {
                    "name": "F3",
                    "midi": 53,
                    "time": 75.46864400000001,
                    "velocity": 0.1732283464566929,
                    "duration": 0.4806920000000048
                },
                {
                    "name": "A#3",
                    "midi": 58,
                    "time": 75.94933600000002,
                    "velocity": 0.2755905511811024,
                    "duration": 0.4806920000000048
                },
                {
                    "name": "A#2",
                    "midi": 46,
                    "time": 75.94933600000002,
                    "velocity": 0.2283464566929134,
                    "duration": 0.4806920000000048
                },
                {
                    "name": "A2",
                    "midi": 45,
                    "time": 76.43002800000002,
                    "velocity": 0.2677165354330709,
                    "duration": 0.4806920000000048
                },
                {
                    "name": "A3",
                    "midi": 57,
                    "time": 76.43002800000002,
                    "velocity": 0.3228346456692913,
                    "duration": 0.4806920000000048
                },
                {
                    "name": "F3",
                    "midi": 53,
                    "time": 76.91072000000003,
                    "velocity": 0.18110236220472442,
                    "duration": 0.4806920000000048
                },
                {
                    "name": "F4",
                    "midi": 65,
                    "time": 76.91072000000003,
                    "velocity": 0.2204724409448819,
                    "duration": 0.4806920000000048
                },
                {
                    "name": "E3",
                    "midi": 52,
                    "time": 77.39141200000003,
                    "velocity": 0.23622047244094488,
                    "duration": 0.4806920000000048
                },
                {
                    "name": "E4",
                    "midi": 64,
                    "time": 77.39141200000003,
                    "velocity": 0.28346456692913385,
                    "duration": 0.4806920000000048
                },
                {
                    "name": "F3",
                    "midi": 53,
                    "time": 77.87210400000004,
                    "velocity": 0.2204724409448819,
                    "duration": 0.4806920000000048
                },
                {
                    "name": "F4",
                    "midi": 65,
                    "time": 77.87210400000004,
                    "velocity": 0.3228346456692913,
                    "duration": 0.4806920000000048
                },
                {
                    "name": "A3",
                    "midi": 57,
                    "time": 78.35279600000004,
                    "velocity": 0.3228346456692913,
                    "duration": 0.4806920000000048
                },
                {
                    "name": "C3",
                    "midi": 48,
                    "time": 78.35279600000004,
                    "velocity": 0.2677165354330709,
                    "duration": 0.4806920000000048
                },
                {
                    "name": "C3",
                    "midi": 48,
                    "time": 78.83348800000005,
                    "velocity": 0.2204724409448819,
                    "duration": 0.4806920000000048
                },
                {
                    "name": "G3",
                    "midi": 55,
                    "time": 78.83348800000005,
                    "velocity": 0.2677165354330709,
                    "duration": 0.4806920000000048
                },
                {
                    "name": "F3",
                    "midi": 53,
                    "time": 79.31418000000005,
                    "velocity": 0.3228346456692913,
                    "duration": 0.4806920000000048
                },
                {
                    "name": "C3",
                    "midi": 48,
                    "time": 79.79487200000005,
                    "velocity": 0.2992125984251969,
                    "duration": 0.12017299999999409
                },
                {
                    "name": "F2",
                    "midi": 41,
                    "time": 80.27556400000005,
                    "velocity": 0.30708661417322836,
                    "duration": 0.4806920000000048
                },
                {
                    "name": "A#1",
                    "midi": 34,
                    "time": 80.75625600000005,
                    "velocity": 0.30708661417322836,
                    "duration": 0.9613839999999954
                },
                {
                    "name": "A#2",
                    "midi": 46,
                    "time": 80.75625600000005,
                    "velocity": 0.36220472440944884,
                    "duration": 0.9613839999999954
                },
                {
                    "name": "D#4",
                    "midi": 63,
                    "time": 81.71764000000005,
                    "velocity": 0.2677165354330709,
                    "duration": 0.4806920000000048
                },
                {
                    "name": "D4",
                    "midi": 62,
                    "time": 82.19833200000005,
                    "velocity": 0.36220472440944884,
                    "duration": 0.4806920000000048
                },
                {
                    "name": "A#3",
                    "midi": 58,
                    "time": 82.67902400000006,
                    "velocity": 0.3228346456692913,
                    "duration": 0.4806920000000048
                },
                {
                    "name": "C4",
                    "midi": 60,
                    "time": 83.15971600000006,
                    "velocity": 0.3700787401574803,
                    "duration": 0.4806920000000048
                },
                {
                    "name": "D4",
                    "midi": 62,
                    "time": 83.64040800000006,
                    "velocity": 0.36220472440944884,
                    "duration": 0.4806920000000048
                },
                {
                    "name": "F3",
                    "midi": 53,
                    "time": 85.08248400000006,
                    "velocity": 0.25984251968503935,
                    "duration": 0.4806920000000048
                },
                {
                    "name": "D#4",
                    "midi": 63,
                    "time": 85.08248400000006,
                    "velocity": 0.30708661417322836,
                    "duration": 0.4806920000000048
                },
                {
                    "name": "A#3",
                    "midi": 58,
                    "time": 85.56317600000007,
                    "velocity": 0.25984251968503935,
                    "duration": 0.4806920000000048
                },
                {
                    "name": "D4",
                    "midi": 62,
                    "time": 85.56317600000007,
                    "velocity": 0.30708661417322836,
                    "duration": 0.4806920000000048
                },
                {
                    "name": "F3",
                    "midi": 53,
                    "time": 86.52456000000008,
                    "velocity": 0.2992125984251969,
                    "duration": 0.16023066666666352
                },
                {
                    "name": "A3",
                    "midi": 57,
                    "time": 86.68479066666674,
                    "velocity": 0.2204724409448819,
                    "duration": 0.16023066666666352
                },
                {
                    "name": "C4",
                    "midi": 60,
                    "time": 86.8450213333334,
                    "velocity": 0.2047244094488189,
                    "duration": 0.16023066666666352
                },
                {
                    "name": "F3",
                    "midi": 53,
                    "time": 87.00525200000007,
                    "velocity": 0.2283464566929134,
                    "duration": 0.16023066666666352
                },
                {
                    "name": "A3",
                    "midi": 57,
                    "time": 87.16548266666673,
                    "velocity": 0.2125984251968504,
                    "duration": 0.16023066666666352
                },
                {
                    "name": "C4",
                    "midi": 60,
                    "time": 87.3257133333334,
                    "velocity": 0.2125984251968504,
                    "duration": 0.16023066666666352
                },
                {
                    "name": "F3",
                    "midi": 53,
                    "time": 87.48594400000006,
                    "velocity": 0.25984251968503935,
                    "duration": 0.16023066666666352
                },
                {
                    "name": "A3",
                    "midi": 57,
                    "time": 87.64617466666672,
                    "velocity": 0.2125984251968504,
                    "duration": 0.16023066666666352
                },
                {
                    "name": "C4",
                    "midi": 60,
                    "time": 87.80640533333339,
                    "velocity": 0.2125984251968504,
                    "duration": 0.16023066666666352
                },
                {
                    "name": "E3",
                    "midi": 52,
                    "time": 87.96663600000005,
                    "velocity": 0.2992125984251969,
                    "duration": 0.16023066666666352
                },
                {
                    "name": "G3",
                    "midi": 55,
                    "time": 88.12686666666671,
                    "velocity": 0.2204724409448819,
                    "duration": 0.16023066666666352
                },
                {
                    "name": "C4",
                    "midi": 60,
                    "time": 88.28709733333338,
                    "velocity": 0.2047244094488189,
                    "duration": 0.16023066666666352
                },
                {
                    "name": "E3",
                    "midi": 52,
                    "time": 88.44732800000004,
                    "velocity": 0.2283464566929134,
                    "duration": 0.16023066666666352
                },
                {
                    "name": "G3",
                    "midi": 55,
                    "time": 88.6075586666667,
                    "velocity": 0.2125984251968504,
                    "duration": 0.16023066666666352
                },
                {
                    "name": "C4",
                    "midi": 60,
                    "time": 88.76778933333337,
                    "velocity": 0.2125984251968504,
                    "duration": 0.16023066666666352
                },
                {
                    "name": "E3",
                    "midi": 52,
                    "time": 88.92802000000003,
                    "velocity": 0.25984251968503935,
                    "duration": 0.16023066666666352
                },
                {
                    "name": "G3",
                    "midi": 55,
                    "time": 89.0882506666667,
                    "velocity": 0.2125984251968504,
                    "duration": 0.16023066666666352
                },
                {
                    "name": "C4",
                    "midi": 60,
                    "time": 89.24848133333336,
                    "velocity": 0.2125984251968504,
                    "duration": 0.16023066666666352
                },
                {
                    "name": "F3",
                    "midi": 53,
                    "time": 89.40871200000002,
                    "velocity": 0.28346456692913385,
                    "duration": 0.4806920000000048
                },
                {
                    "name": "A3",
                    "midi": 57,
                    "time": 89.88940400000003,
                    "velocity": 0.28346456692913385,
                    "duration": 0.4806920000000048
                },
                {
                    "name": "C3",
                    "midi": 48,
                    "time": 89.88940400000003,
                    "velocity": 0.23622047244094488,
                    "duration": 0.4806920000000048
                },
                {
                    "name": "C3",
                    "midi": 48,
                    "time": 90.37009600000003,
                    "velocity": 0.1968503937007874,
                    "duration": 0.4806920000000048
                },
                {
                    "name": "G3",
                    "midi": 55,
                    "time": 90.37009600000003,
                    "velocity": 0.23622047244094488,
                    "duration": 0.4806920000000048
                },
                {
                    "name": "F3",
                    "midi": 53,
                    "time": 90.85078800000004,
                    "velocity": 0.28346456692913385,
                    "duration": 0.4806920000000048
                },
                {
                    "name": "C3",
                    "midi": 48,
                    "time": 91.33148000000004,
                    "velocity": 0.2677165354330709,
                    "duration": 0.12017299999999409
                },
                {
                    "name": "F2",
                    "midi": 41,
                    "time": 91.81217200000003,
                    "velocity": 0.2755905511811024,
                    "duration": 0.4806920000000048
                },
                {
                    "name": "A#1",
                    "midi": 34,
                    "time": 92.29286400000004,
                    "velocity": 0.30708661417322836,
                    "duration": 0.9613839999999954
                },
                {
                    "name": "A#2",
                    "midi": 46,
                    "time": 92.29286400000004,
                    "velocity": 0.36220472440944884,
                    "duration": 0.9613839999999954
                },
                {
                    "name": "D#4",
                    "midi": 63,
                    "time": 93.25424800000003,
                    "velocity": 0.2677165354330709,
                    "duration": 0.4806920000000048
                },
                {
                    "name": "D4",
                    "midi": 62,
                    "time": 93.73494000000004,
                    "velocity": 0.36220472440944884,
                    "duration": 0.4806920000000048
                },
                {
                    "name": "A#3",
                    "midi": 58,
                    "time": 94.21563200000004,
                    "velocity": 0.3228346456692913,
                    "duration": 0.4806920000000048
                },
                {
                    "name": "C4",
                    "midi": 60,
                    "time": 94.69632400000005,
                    "velocity": 0.3700787401574803,
                    "duration": 0.4806920000000048
                },
                {
                    "name": "D4",
                    "midi": 62,
                    "time": 95.17701600000005,
                    "velocity": 0.36220472440944884,
                    "duration": 0.4806920000000048
                },
                {
                    "name": "F3",
                    "midi": 53,
                    "time": 96.61909200000005,
                    "velocity": 0.25984251968503935,
                    "duration": 0.4806920000000048
                },
                {
                    "name": "D#4",
                    "midi": 63,
                    "time": 96.61909200000005,
                    "velocity": 0.30708661417322836,
                    "duration": 0.4806920000000048
                },
                {
                    "name": "A#3",
                    "midi": 58,
                    "time": 97.09978400000006,
                    "velocity": 0.25984251968503935,
                    "duration": 0.4806920000000048
                },
                {
                    "name": "D4",
                    "midi": 62,
                    "time": 97.09978400000006,
                    "velocity": 0.30708661417322836,
                    "duration": 0.4806920000000048
                },
                {
                    "name": "F3",
                    "midi": 53,
                    "time": 98.06116800000007,
                    "velocity": 0.2992125984251969,
                    "duration": 0.16023066666666352
                },
                {
                    "name": "A3",
                    "midi": 57,
                    "time": 98.22139866666673,
                    "velocity": 0.2204724409448819,
                    "duration": 0.16023066666666352
                },
                {
                    "name": "C4",
                    "midi": 60,
                    "time": 98.3816293333334,
                    "velocity": 0.2047244094488189,
                    "duration": 0.16023066666666352
                },
                {
                    "name": "F3",
                    "midi": 53,
                    "time": 98.54186000000006,
                    "velocity": 0.2283464566929134,
                    "duration": 0.16023066666666352
                },
                {
                    "name": "A3",
                    "midi": 57,
                    "time": 98.70209066666672,
                    "velocity": 0.2125984251968504,
                    "duration": 0.16023066666666352
                },
                {
                    "name": "C4",
                    "midi": 60,
                    "time": 98.86232133333338,
                    "velocity": 0.2125984251968504,
                    "duration": 0.16023066666666352
                },
                {
                    "name": "F3",
                    "midi": 53,
                    "time": 99.02255200000005,
                    "velocity": 0.25984251968503935,
                    "duration": 0.16023066666666352
                },
                {
                    "name": "A3",
                    "midi": 57,
                    "time": 99.18278266666671,
                    "velocity": 0.2125984251968504,
                    "duration": 0.16023066666666352
                },
                {
                    "name": "C4",
                    "midi": 60,
                    "time": 99.34301333333337,
                    "velocity": 0.2125984251968504,
                    "duration": 0.16023066666666352
                },
                {
                    "name": "E3",
                    "midi": 52,
                    "time": 99.50324400000004,
                    "velocity": 0.2992125984251969,
                    "duration": 0.16023066666666352
                },
                {
                    "name": "G3",
                    "midi": 55,
                    "time": 99.6634746666667,
                    "velocity": 0.2204724409448819,
                    "duration": 0.16023066666666352
                },
                {
                    "name": "C4",
                    "midi": 60,
                    "time": 99.82370533333336,
                    "velocity": 0.2047244094488189,
                    "duration": 0.16023066666666352
                },
                {
                    "name": "E3",
                    "midi": 52,
                    "time": 99.98393600000003,
                    "velocity": 0.2283464566929134,
                    "duration": 0.16023066666666352
                },
                {
                    "name": "G3",
                    "midi": 55,
                    "time": 100.14416666666669,
                    "velocity": 0.2125984251968504,
                    "duration": 0.16023066666666352
                },
                {
                    "name": "C4",
                    "midi": 60,
                    "time": 100.30439733333336,
                    "velocity": 0.2125984251968504,
                    "duration": 0.16023066666666352
                },
                {
                    "name": "E3",
                    "midi": 52,
                    "time": 100.46462800000002,
                    "velocity": 0.25984251968503935,
                    "duration": 0.16023066666666352
                },
                {
                    "name": "G3",
                    "midi": 55,
                    "time": 100.62485866666668,
                    "velocity": 0.2125984251968504,
                    "duration": 0.16023066666666352
                },
                {
                    "name": "C4",
                    "midi": 60,
                    "time": 100.78508933333335,
                    "velocity": 0.2125984251968504,
                    "duration": 0.16023066666666352
                },
                {
                    "name": "F3",
                    "midi": 53,
                    "time": 100.94532000000001,
                    "velocity": 0.28346456692913385,
                    "duration": 0.4806920000000048
                },
                {
                    "name": "A3",
                    "midi": 57,
                    "time": 101.42601200000001,
                    "velocity": 0.28346456692913385,
                    "duration": 0.4806920000000048
                },
                {
                    "name": "C3",
                    "midi": 48,
                    "time": 101.42601200000001,
                    "velocity": 0.23622047244094488,
                    "duration": 0.4806920000000048
                },
                {
                    "name": "C3",
                    "midi": 48,
                    "time": 101.90670400000002,
                    "velocity": 0.1968503937007874,
                    "duration": 0.4806920000000048
                },
                {
                    "name": "G3",
                    "midi": 55,
                    "time": 101.90670400000002,
                    "velocity": 0.23622047244094488,
                    "duration": 0.4806920000000048
                },
                {
                    "name": "F3",
                    "midi": 53,
                    "time": 102.38739600000002,
                    "velocity": 0.28346456692913385,
                    "duration": 0.4806920000000048
                },
                {
                    "name": "C3",
                    "midi": 48,
                    "time": 102.86808800000003,
                    "velocity": 0.2677165354330709,
                    "duration": 0.12017299999999409
                },
                {
                    "name": "F2",
                    "midi": 41,
                    "time": 103.34878000000002,
                    "velocity": 0.2755905511811024,
                    "duration": 0.4806920000000048
                },
                {
                    "name": "D3",
                    "midi": 50,
                    "time": 103.82947200000002,
                    "velocity": 0.33070866141732286,
                    "duration": 0.4806920000000048
                },
                {
                    "name": "A#3",
                    "midi": 58,
                    "time": 104.31016400000003,
                    "velocity": 0.29133858267716534,
                    "duration": 0.4806920000000048
                },
                {
                    "name": "D3",
                    "midi": 50,
                    "time": 104.79085600000003,
                    "velocity": 0.2992125984251969,
                    "duration": 0.4806920000000048
                },
                {
                    "name": "D#3",
                    "midi": 51,
                    "time": 105.27154800000004,
                    "velocity": 0.3700787401574803,
                    "duration": 0.4806920000000048
                },
                {
                    "name": "G3",
                    "midi": 55,
                    "time": 105.75224000000004,
                    "velocity": 0.29133858267716534,
                    "duration": 0.4806920000000048
                },
                {
                    "name": "C4",
                    "midi": 60,
                    "time": 106.23293200000005,
                    "velocity": 0.2992125984251969,
                    "duration": 0.4806920000000048
                },
                {
                    "name": "D#3",
                    "midi": 51,
                    "time": 106.71362400000005,
                    "velocity": 0.33070866141732286,
                    "duration": 0.4806920000000048
                },
                {
                    "name": "C4",
                    "midi": 60,
                    "time": 107.19431600000006,
                    "velocity": 0.29133858267716534,
                    "duration": 0.4806920000000048
                },
                {
                    "name": "E3",
                    "midi": 52,
                    "time": 107.67500800000006,
                    "velocity": 0.2992125984251969,
                    "duration": 0.4806920000000048
                },
                {
                    "name": "F3",
                    "midi": 53,
                    "time": 108.15570000000007,
                    "velocity": 0.33070866141732286,
                    "duration": 0.4806920000000048
                },
                {
                    "name": "C3",
                    "midi": 48,
                    "time": 108.63639200000007,
                    "velocity": 0.29133858267716534,
                    "duration": 0.12017299999999409
                },
                {
                    "name": "F2",
                    "midi": 41,
                    "time": 109.11708400000006,
                    "velocity": 0.25984251968503935,
                    "duration": 0.4806920000000048
                },
                {
                    "name": "A#3",
                    "midi": 58,
                    "time": 109.59777600000007,
                    "velocity": 0.2992125984251969,
                    "duration": 0.16023066666666352
                },
                {
                    "name": "D4",
                    "midi": 62,
                    "time": 109.75800666666673,
                    "velocity": 0.2204724409448819,
                    "duration": 0.16023066666666352
                },
                {
                    "name": "F4",
                    "midi": 65,
                    "time": 109.9182373333334,
                    "velocity": 0.2047244094488189,
                    "duration": 0.16023066666666352
                },
                {
                    "name": "A#3",
                    "midi": 58,
                    "time": 110.07846800000006,
                    "velocity": 0.31496062992125984,
                    "duration": 0.16023066666666352
                },
                {
                    "name": "D4",
                    "midi": 62,
                    "time": 110.23869866666672,
                    "velocity": 0.2125984251968504,
                    "duration": 0.16023066666666352
                },
                {
                    "name": "F4",
                    "midi": 65,
                    "time": 110.39892933333338,
                    "velocity": 0.2125984251968504,
                    "duration": 0.16023066666666352
                },
                {
                    "name": "A#3",
                    "midi": 58,
                    "time": 110.55916000000005,
                    "velocity": 0.25984251968503935,
                    "duration": 0.16023066666666352
                },
                {
                    "name": "D4",
                    "midi": 62,
                    "time": 110.71939066666671,
                    "velocity": 0.2125984251968504,
                    "duration": 0.16023066666666352
                },
                {
                    "name": "F4",
                    "midi": 65,
                    "time": 110.87962133333338,
                    "velocity": 0.2125984251968504,
                    "duration": 0.16023066666666352
                },
                {
                    "name": "A3",
                    "midi": 57,
                    "time": 111.03985200000004,
                    "velocity": 0.2992125984251969,
                    "duration": 0.16023066666666352
                },
                {
                    "name": "C4",
                    "midi": 60,
                    "time": 111.2000826666667,
                    "velocity": 0.2204724409448819,
                    "duration": 0.16023066666666352
                },
                {
                    "name": "F4",
                    "midi": 65,
                    "time": 111.36031333333337,
                    "velocity": 0.2047244094488189,
                    "duration": 0.16023066666666352
                },
                {
                    "name": "A3",
                    "midi": 57,
                    "time": 111.52054400000003,
                    "velocity": 0.28346456692913385,
                    "duration": 0.16023066666666352
                },
                {
                    "name": "C4",
                    "midi": 60,
                    "time": 111.6807746666667,
                    "velocity": 0.2125984251968504,
                    "duration": 0.16023066666666352
                },
                {
                    "name": "F4",
                    "midi": 65,
                    "time": 111.84100533333336,
                    "velocity": 0.2125984251968504,
                    "duration": 0.16023066666666352
                },
                {
                    "name": "A3",
                    "midi": 57,
                    "time": 112.00123600000002,
                    "velocity": 0.25984251968503935,
                    "duration": 0.16023066666666352
                },
                {
                    "name": "C4",
                    "midi": 60,
                    "time": 112.16146666666668,
                    "velocity": 0.2125984251968504,
                    "duration": 0.16023066666666352
                },
                {
                    "name": "F4",
                    "midi": 65,
                    "time": 112.32169733333335,
                    "velocity": 0.2125984251968504,
                    "duration": 0.16023066666666352
                },
                {
                    "name": "A#3",
                    "midi": 58,
                    "time": 112.48192800000001,
                    "velocity": 0.28346456692913385,
                    "duration": 0.4806920000000048
                },
                {
                    "name": "D4",
                    "midi": 62,
                    "time": 112.96262000000002,
                    "velocity": 0.28346456692913385,
                    "duration": 0.4806920000000048
                },
                {
                    "name": "F3",
                    "midi": 53,
                    "time": 112.96262000000002,
                    "velocity": 0.23622047244094488,
                    "duration": 0.4806920000000048
                },
                {
                    "name": "F3",
                    "midi": 53,
                    "time": 113.44331200000002,
                    "velocity": 0.1968503937007874,
                    "duration": 0.4806920000000048
                },
                {
                    "name": "C4",
                    "midi": 60,
                    "time": 113.44331200000002,
                    "velocity": 0.23622047244094488,
                    "duration": 0.4806920000000048
                },
                {
                    "name": "A#3",
                    "midi": 58,
                    "time": 113.92400400000002,
                    "velocity": 0.28346456692913385,
                    "duration": 0.4806920000000048
                },
                {
                    "name": "F3",
                    "midi": 53,
                    "time": 114.40469600000003,
                    "velocity": 0.2677165354330709,
                    "duration": 0.12017299999999409
                },
                {
                    "name": "A#2",
                    "midi": 46,
                    "time": 114.88538800000002,
                    "velocity": 0.2755905511811024,
                    "duration": 0.4806920000000048
                },
                {
                    "name": "D3",
                    "midi": 50,
                    "time": 115.36608000000003,
                    "velocity": 0.33070866141732286,
                    "duration": 0.4806920000000048
                },
                {
                    "name": "A#3",
                    "midi": 58,
                    "time": 115.84677200000003,
                    "velocity": 0.29133858267716534,
                    "duration": 0.4806920000000048
                },
                {
                    "name": "D3",
                    "midi": 50,
                    "time": 116.32746400000003,
                    "velocity": 0.2992125984251969,
                    "duration": 0.4806920000000048
                },
                {
                    "name": "D#3",
                    "midi": 51,
                    "time": 116.80815600000004,
                    "velocity": 0.3700787401574803,
                    "duration": 0.4806920000000048
                },
                {
                    "name": "G3",
                    "midi": 55,
                    "time": 117.28884800000004,
                    "velocity": 0.29133858267716534,
                    "duration": 0.4806920000000048
                },
                {
                    "name": "C4",
                    "midi": 60,
                    "time": 117.76954000000005,
                    "velocity": 0.2992125984251969,
                    "duration": 0.4806920000000048
                },
                {
                    "name": "D#3",
                    "midi": 51,
                    "time": 118.25023200000005,
                    "velocity": 0.33070866141732286,
                    "duration": 0.4806920000000048
                },
                {
                    "name": "C4",
                    "midi": 60,
                    "time": 118.73092400000006,
                    "velocity": 0.29133858267716534,
                    "duration": 0.4806920000000048
                },
                {
                    "name": "E3",
                    "midi": 52,
                    "time": 119.21161600000006,
                    "velocity": 0.2992125984251969,
                    "duration": 0.4806920000000048
                },
                {
                    "name": "F3",
                    "midi": 53,
                    "time": 119.69230800000007,
                    "velocity": 0.33070866141732286,
                    "duration": 0.4806920000000048
                },
                {
                    "name": "C3",
                    "midi": 48,
                    "time": 120.17300000000007,
                    "velocity": 0.29133858267716534,
                    "duration": 0.12017299999999409
                },
                {
                    "name": "F2",
                    "midi": 41,
                    "time": 120.65369200000006,
                    "velocity": 0.25984251968503935,
                    "duration": 0.4806920000000048
                },
                {
                    "name": "A#3",
                    "midi": 58,
                    "time": 121.13438400000007,
                    "velocity": 0.2992125984251969,
                    "duration": 0.16023066666666352
                },
                {
                    "name": "D4",
                    "midi": 62,
                    "time": 121.29461466666673,
                    "velocity": 0.2204724409448819,
                    "duration": 0.16023066666666352
                },
                {
                    "name": "F4",
                    "midi": 65,
                    "time": 121.4548453333334,
                    "velocity": 0.2047244094488189,
                    "duration": 0.16023066666666352
                },
                {
                    "name": "A#3",
                    "midi": 58,
                    "time": 121.61507600000006,
                    "velocity": 0.31496062992125984,
                    "duration": 0.16023066666666352
                },
                {
                    "name": "D4",
                    "midi": 62,
                    "time": 121.77530666666672,
                    "velocity": 0.2125984251968504,
                    "duration": 0.16023066666666352
                },
                {
                    "name": "F4",
                    "midi": 65,
                    "time": 121.93553733333339,
                    "velocity": 0.2125984251968504,
                    "duration": 0.16023066666666352
                },
                {
                    "name": "A#3",
                    "midi": 58,
                    "time": 122.09576800000005,
                    "velocity": 0.25984251968503935,
                    "duration": 0.16023066666666352
                },
                {
                    "name": "D4",
                    "midi": 62,
                    "time": 122.25599866666671,
                    "velocity": 0.2125984251968504,
                    "duration": 0.16023066666666352
                },
                {
                    "name": "F4",
                    "midi": 65,
                    "time": 122.41622933333338,
                    "velocity": 0.2125984251968504,
                    "duration": 0.16023066666666352
                },
                {
                    "name": "A3",
                    "midi": 57,
                    "time": 122.57646000000004,
                    "velocity": 0.2992125984251969,
                    "duration": 0.16023066666666352
                },
                {
                    "name": "C4",
                    "midi": 60,
                    "time": 122.7366906666667,
                    "velocity": 0.2204724409448819,
                    "duration": 0.16023066666666352
                },
                {
                    "name": "F4",
                    "midi": 65,
                    "time": 122.89692133333337,
                    "velocity": 0.2047244094488189,
                    "duration": 0.16023066666666352
                },
                {
                    "name": "A3",
                    "midi": 57,
                    "time": 123.05715200000003,
                    "velocity": 0.28346456692913385,
                    "duration": 0.16023066666666352
                },
                {
                    "name": "C4",
                    "midi": 60,
                    "time": 123.2173826666667,
                    "velocity": 0.2125984251968504,
                    "duration": 0.16023066666666352
                },
                {
                    "name": "F4",
                    "midi": 65,
                    "time": 123.37761333333336,
                    "velocity": 0.2125984251968504,
                    "duration": 0.16023066666666352
                },
                {
                    "name": "A3",
                    "midi": 57,
                    "time": 123.53784400000002,
                    "velocity": 0.25984251968503935,
                    "duration": 0.16023066666666352
                },
                {
                    "name": "C4",
                    "midi": 60,
                    "time": 123.69807466666668,
                    "velocity": 0.2125984251968504,
                    "duration": 0.16023066666666352
                },
                {
                    "name": "F4",
                    "midi": 65,
                    "time": 123.85830533333335,
                    "velocity": 0.2125984251968504,
                    "duration": 0.16023066666666352
                },
                {
                    "name": "A#3",
                    "midi": 58,
                    "time": 124.01853600000001,
                    "velocity": 0.28346456692913385,
                    "duration": 0.4806920000000048
                },
                {
                    "name": "D4",
                    "midi": 62,
                    "time": 124.49922800000002,
                    "velocity": 0.28346456692913385,
                    "duration": 0.4806920000000048
                },
                {
                    "name": "F3",
                    "midi": 53,
                    "time": 124.49922800000002,
                    "velocity": 0.23622047244094488,
                    "duration": 0.4806920000000048
                },
                {
                    "name": "F3",
                    "midi": 53,
                    "time": 124.97992000000002,
                    "velocity": 0.1968503937007874,
                    "duration": 0.4806920000000048
                },
                {
                    "name": "C4",
                    "midi": 60,
                    "time": 124.97992000000002,
                    "velocity": 0.23622047244094488,
                    "duration": 0.4806920000000048
                },
                {
                    "name": "A#3",
                    "midi": 58,
                    "time": 125.46061200000003,
                    "velocity": 0.28346456692913385,
                    "duration": 0.4806920000000048
                },
                {
                    "name": "F3",
                    "midi": 53,
                    "time": 125.94130400000003,
                    "velocity": 0.2677165354330709,
                    "duration": 0.12017299999999409
                },
                {
                    "name": "A#2",
                    "midi": 46,
                    "time": 126.42199600000002,
                    "velocity": 0.2755905511811024,
                    "duration": 0.4806920000000048
                },
                {
                    "name": "F2",
                    "midi": 41,
                    "time": 126.90268800000003,
                    "velocity": 0.25984251968503935,
                    "duration": 0.4806920000000048
                },
                {
                    "name": "F3",
                    "midi": 53,
                    "time": 126.90268800000003,
                    "velocity": 0.30708661417322836,
                    "duration": 0.4806920000000048
                },
                {
                    "name": "A3",
                    "midi": 57,
                    "time": 127.38338000000003,
                    "velocity": 0.2677165354330709,
                    "duration": 0.4806920000000048
                },
                {
                    "name": "A2",
                    "midi": 45,
                    "time": 127.38338000000003,
                    "velocity": 0.2204724409448819,
                    "duration": 0.4806920000000048
                },
                {
                    "name": "C4",
                    "midi": 60,
                    "time": 127.86407200000004,
                    "velocity": 0.2677165354330709,
                    "duration": 0.48069199999999057
                },
                {
                    "name": "C3",
                    "midi": 48,
                    "time": 127.86407200000004,
                    "velocity": 0.2204724409448819,
                    "duration": 0.48069199999999057
                },
                {
                    "name": "F3",
                    "midi": 53,
                    "time": 128.34476400000003,
                    "velocity": 0.2677165354330709,
                    "duration": 0.4806920000000048
                },
                {
                    "name": "F4",
                    "midi": 65,
                    "time": 128.34476400000003,
                    "velocity": 0.3228346456692913,
                    "duration": 0.4806920000000048
                },
                {
                    "name": "G4",
                    "midi": 67,
                    "time": 129.30614800000004,
                    "velocity": 0.2677165354330709,
                    "duration": 0.4806920000000048
                },
                {
                    "name": "F4",
                    "midi": 65,
                    "time": 129.78684000000004,
                    "velocity": 0.3228346456692913,
                    "duration": 0.4806920000000048
                },
                {
                    "name": "E4",
                    "midi": 64,
                    "time": 131.22891600000005,
                    "velocity": 0.3228346456692913,
                    "duration": 0.4806920000000048
                },
                {
                    "name": "C4",
                    "midi": 60,
                    "time": 131.70960800000006,
                    "velocity": 0.2677165354330709,
                    "duration": 0.4806920000000048
                },
                {
                    "name": "F4",
                    "midi": 65,
                    "time": 132.19030000000006,
                    "velocity": 0.3228346456692913,
                    "duration": 0.4806920000000048
                },
                {
                    "name": "F3",
                    "midi": 53,
                    "time": 132.67099200000007,
                    "velocity": 0.30708661417322836,
                    "duration": 0.4806920000000048
                },
                {
                    "name": "A3",
                    "midi": 57,
                    "time": 133.15168400000007,
                    "velocity": 0.2677165354330709,
                    "duration": 0.4806920000000048
                },
                {
                    "name": "C4",
                    "midi": 60,
                    "time": 133.63237600000008,
                    "velocity": 0.2677165354330709,
                    "duration": 0.4806920000000048
                },
                {
                    "name": "F3",
                    "midi": 53,
                    "time": 134.11306800000008,
                    "velocity": 0.2677165354330709,
                    "duration": 0.4806920000000048
                },
                {
                    "name": "F4",
                    "midi": 65,
                    "time": 134.11306800000008,
                    "velocity": 0.3228346456692913,
                    "duration": 0.4806920000000048
                },
                {
                    "name": "F4",
                    "midi": 65,
                    "time": 135.0744520000001,
                    "velocity": 0.2677165354330709,
                    "duration": 0.4806920000000048
                },
                {
                    "name": "E4",
                    "midi": 64,
                    "time": 135.5551440000001,
                    "velocity": 0.3228346456692913,
                    "duration": 0.9613840000000096
                },
                {
                    "name": "F4",
                    "midi": 65,
                    "time": 136.5165280000001,
                    "velocity": 0.2755905511811024,
                    "duration": 0.4806920000000048
                },
                {
                    "name": "E4",
                    "midi": 64,
                    "time": 136.9972200000001,
                    "velocity": 0.3228346456692913,
                    "duration": 0.9613840000000096
                },
                {
                    "name": "B3",
                    "midi": 59,
                    "time": 137.95860400000012,
                    "velocity": 0.2992125984251969,
                    "duration": 0.4806920000000048
                },
                {
                    "name": "B2",
                    "midi": 47,
                    "time": 137.95860400000012,
                    "velocity": 0.25196850393700787,
                    "duration": 0.4806920000000048
                },
                {
                    "name": "C3",
                    "midi": 48,
                    "time": 138.43929600000013,
                    "velocity": 0.2677165354330709,
                    "duration": 0.4806920000000048
                },
                {
                    "name": "C4",
                    "midi": 60,
                    "time": 138.43929600000013,
                    "velocity": 0.3228346456692913,
                    "duration": 0.4806920000000048
                },
                {
                    "name": "E4",
                    "midi": 64,
                    "time": 138.91998800000013,
                    "velocity": 0.3228346456692913,
                    "duration": 0.4806920000000048
                },
                {
                    "name": "G3",
                    "midi": 55,
                    "time": 138.91998800000013,
                    "velocity": 0.2677165354330709,
                    "duration": 0.4806920000000048
                },
                {
                    "name": "G3",
                    "midi": 55,
                    "time": 139.40068000000014,
                    "velocity": 0.2204724409448819,
                    "duration": 0.4806920000000048
                },
                {
                    "name": "D4",
                    "midi": 62,
                    "time": 139.40068000000014,
                    "velocity": 0.2677165354330709,
                    "duration": 0.4806920000000048
                },
                {
                    "name": "C4",
                    "midi": 60,
                    "time": 139.88137200000014,
                    "velocity": 0.3228346456692913,
                    "duration": 0.4806920000000048
                },
                {
                    "name": "G3",
                    "midi": 55,
                    "time": 140.36206400000015,
                    "velocity": 0.2992125984251969,
                    "duration": 0.12017299999999409
                },
                {
                    "name": "C3",
                    "midi": 48,
                    "time": 140.84275600000015,
                    "velocity": 0.30708661417322836,
                    "duration": 0.4806920000000048
                },
                {
                    "name": "C4",
                    "midi": 60,
                    "time": 141.32344800000016,
                    "velocity": 0.25984251968503935,
                    "duration": 2.403460000000024
                },
                {
                    "name": "G4",
                    "midi": 67,
                    "time": 141.80414000000016,
                    "velocity": 0.2677165354330709,
                    "duration": 0.4806920000000048
                },
                {
                    "name": "A#4",
                    "midi": 70,
                    "time": 142.28483200000016,
                    "velocity": 0.2677165354330709,
                    "duration": 0.4806920000000048
                },
                {
                    "name": "A4",
                    "midi": 69,
                    "time": 142.76552400000017,
                    "velocity": 0.36220472440944884,
                    "duration": 0.4806920000000048
                },
                {
                    "name": "E4",
                    "midi": 64,
                    "time": 143.24621600000017,
                    "velocity": 0.3228346456692913,
                    "duration": 0.4806920000000048
                },
                {
                    "name": "F4",
                    "midi": 65,
                    "time": 143.72690800000018,
                    "velocity": 0.3700787401574803,
                    "duration": 0.4806920000000048
                },
                {
                    "name": "A#3",
                    "midi": 58,
                    "time": 144.20760000000018,
                    "velocity": 0.36220472440944884,
                    "duration": 0.9613840000000096
                },
                {
                    "name": "B3",
                    "midi": 59,
                    "time": 145.1689840000002,
                    "velocity": 0.33070866141732286,
                    "duration": 0.4806920000000048
                },
                {
                    "name": "C4",
                    "midi": 60,
                    "time": 145.6496760000002,
                    "velocity": 0.36220472440944884,
                    "duration": 0.4806920000000048
                },
                {
                    "name": "G3",
                    "midi": 55,
                    "time": 146.1303680000002,
                    "velocity": 0.3228346456692913,
                    "duration": 0.12017299999999409
                },
                {
                    "name": "C3",
                    "midi": 48,
                    "time": 146.6110600000002,
                    "velocity": 0.2755905511811024,
                    "duration": 0.4806920000000048
                },
                {
                    "name": "C4",
                    "midi": 60,
                    "time": 147.0917520000002,
                    "velocity": 0.31496062992125984,
                    "duration": 0.4806920000000048
                },
                {
                    "name": "G#4",
                    "midi": 68,
                    "time": 147.57244400000022,
                    "velocity": 0.29133858267716534,
                    "duration": 0.4806920000000048
                },
                {
                    "name": "F4",
                    "midi": 65,
                    "time": 148.05313600000022,
                    "velocity": 0.25984251968503935,
                    "duration": 0.4806920000000048
                },
                {
                    "name": "G4",
                    "midi": 67,
                    "time": 148.53382800000023,
                    "velocity": 0.3228346456692913,
                    "duration": 0.4806920000000048
                },
                {
                    "name": "E4",
                    "midi": 64,
                    "time": 149.01452000000023,
                    "velocity": 0.25984251968503935,
                    "duration": 0.4806920000000048
                },
                {
                    "name": "F4",
                    "midi": 65,
                    "time": 149.49521200000024,
                    "velocity": 0.25984251968503935,
                    "duration": 0.4806920000000048
                },
                {
                    "name": "A#3",
                    "midi": 58,
                    "time": 149.97590400000024,
                    "velocity": 0.33070866141732286,
                    "duration": 0.9613840000000096
                },
                {
                    "name": "B3",
                    "midi": 59,
                    "time": 150.93728800000025,
                    "velocity": 0.3228346456692913,
                    "duration": 0.4806920000000048
                },
                {
                    "name": "C4",
                    "midi": 60,
                    "time": 151.41798000000026,
                    "velocity": 0.33858267716535434,
                    "duration": 0.4806920000000048
                },
                {
                    "name": "G3",
                    "midi": 55,
                    "time": 151.89867200000026,
                    "velocity": 0.2677165354330709,
                    "duration": 0.12017299999999409
                },
                {
                    "name": "C3",
                    "midi": 48,
                    "time": 152.37936400000027,
                    "velocity": 0.29133858267716534,
                    "duration": 0.4806920000000048
                },
                {
                    "name": "F2",
                    "midi": 41,
                    "time": 152.86005600000027,
                    "velocity": 0.25984251968503935,
                    "duration": 0.4806920000000048
                },
                {
                    "name": "F3",
                    "midi": 53,
                    "time": 152.86005600000027,
                    "velocity": 0.30708661417322836,
                    "duration": 0.4806920000000048
                },
                {
                    "name": "A3",
                    "midi": 57,
                    "time": 153.34074800000027,
                    "velocity": 0.2677165354330709,
                    "duration": 0.4806920000000048
                },
                {
                    "name": "A2",
                    "midi": 45,
                    "time": 153.34074800000027,
                    "velocity": 0.2204724409448819,
                    "duration": 0.4806920000000048
                },
                {
                    "name": "C4",
                    "midi": 60,
                    "time": 153.82144000000028,
                    "velocity": 0.2677165354330709,
                    "duration": 0.4806920000000048
                },
                {
                    "name": "C3",
                    "midi": 48,
                    "time": 153.82144000000028,
                    "velocity": 0.2204724409448819,
                    "duration": 0.4806920000000048
                },
                {
                    "name": "F3",
                    "midi": 53,
                    "time": 154.30213200000028,
                    "velocity": 0.2677165354330709,
                    "duration": 0.4806920000000048
                },
                {
                    "name": "F4",
                    "midi": 65,
                    "time": 154.30213200000028,
                    "velocity": 0.3228346456692913,
                    "duration": 0.4806920000000048
                },
                {
                    "name": "G4",
                    "midi": 67,
                    "time": 155.2635160000003,
                    "velocity": 0.2677165354330709,
                    "duration": 0.4806920000000048
                },
                {
                    "name": "F4",
                    "midi": 65,
                    "time": 155.7442080000003,
                    "velocity": 0.3228346456692913,
                    "duration": 0.4806920000000048
                },
                {
                    "name": "E4",
                    "midi": 64,
                    "time": 157.1862840000003,
                    "velocity": 0.3228346456692913,
                    "duration": 0.4806920000000048
                },
                {
                    "name": "C4",
                    "midi": 60,
                    "time": 157.66697600000032,
                    "velocity": 0.2677165354330709,
                    "duration": 0.4806920000000048
                },
                {
                    "name": "F4",
                    "midi": 65,
                    "time": 158.14766800000032,
                    "velocity": 0.3228346456692913,
                    "duration": 0.4806920000000048
                },
                {
                    "name": "F2",
                    "midi": 41,
                    "time": 158.62836000000033,
                    "velocity": 0.25984251968503935,
                    "duration": 0.4806920000000048
                },
                {
                    "name": "F3",
                    "midi": 53,
                    "time": 158.62836000000033,
                    "velocity": 0.30708661417322836,
                    "duration": 0.4806920000000048
                },
                {
                    "name": "A2",
                    "midi": 45,
                    "time": 159.10905200000033,
                    "velocity": 0.2204724409448819,
                    "duration": 0.4806920000000048
                },
                {
                    "name": "A3",
                    "midi": 57,
                    "time": 159.10905200000033,
                    "velocity": 0.2677165354330709,
                    "duration": 0.4806920000000048
                },
                {
                    "name": "C3",
                    "midi": 48,
                    "time": 159.58974400000034,
                    "velocity": 0.2204724409448819,
                    "duration": 0.4806920000000048
                },
                {
                    "name": "C4",
                    "midi": 60,
                    "time": 159.58974400000034,
                    "velocity": 0.2677165354330709,
                    "duration": 0.4806920000000048
                },
                {
                    "name": "F3",
                    "midi": 53,
                    "time": 160.07043600000034,
                    "velocity": 0.2677165354330709,
                    "duration": 0.4806920000000048
                },
                {
                    "name": "F4",
                    "midi": 65,
                    "time": 160.07043600000034,
                    "velocity": 0.3228346456692913,
                    "duration": 0.4806920000000048
                },
                {
                    "name": "A#2",
                    "midi": 46,
                    "time": 161.03182000000035,
                    "velocity": 0.2204724409448819,
                    "duration": 0.4806920000000048
                },
                {
                    "name": "A#3",
                    "midi": 58,
                    "time": 161.03182000000035,
                    "velocity": 0.2677165354330709,
                    "duration": 0.4806920000000048
                },
                {
                    "name": "A3",
                    "midi": 57,
                    "time": 161.51251200000036,
                    "velocity": 0.3228346456692913,
                    "duration": 0.4806920000000048
                },
                {
                    "name": "A2",
                    "midi": 45,
                    "time": 161.51251200000036,
                    "velocity": 0.2677165354330709,
                    "duration": 0.4806920000000048
                },
                {
                    "name": "F4",
                    "midi": 65,
                    "time": 161.99320400000036,
                    "velocity": 0.2125984251968504,
                    "duration": 0.4806920000000048
                },
                {
                    "name": "F3",
                    "midi": 53,
                    "time": 161.99320400000036,
                    "velocity": 0.1732283464566929,
                    "duration": 0.4806920000000048
                },
                {
                    "name": "A#3",
                    "midi": 58,
                    "time": 162.47389600000037,
                    "velocity": 0.2755905511811024,
                    "duration": 0.4806920000000048
                },
                {
                    "name": "A#2",
                    "midi": 46,
                    "time": 162.47389600000037,
                    "velocity": 0.2283464566929134,
                    "duration": 0.4806920000000048
                },
                {
                    "name": "A2",
                    "midi": 45,
                    "time": 162.95458800000037,
                    "velocity": 0.2677165354330709,
                    "duration": 0.4806920000000048
                },
                {
                    "name": "A3",
                    "midi": 57,
                    "time": 162.95458800000037,
                    "velocity": 0.3228346456692913,
                    "duration": 0.4806920000000048
                },
                {
                    "name": "F3",
                    "midi": 53,
                    "time": 163.43528000000038,
                    "velocity": 0.18110236220472442,
                    "duration": 0.4806920000000048
                },
                {
                    "name": "F4",
                    "midi": 65,
                    "time": 163.43528000000038,
                    "velocity": 0.2204724409448819,
                    "duration": 0.4806920000000048
                },
                {
                    "name": "E3",
                    "midi": 52,
                    "time": 163.91597200000038,
                    "velocity": 0.23622047244094488,
                    "duration": 0.4806920000000048
                },
                {
                    "name": "E4",
                    "midi": 64,
                    "time": 163.91597200000038,
                    "velocity": 0.28346456692913385,
                    "duration": 0.4806920000000048
                },
                {
                    "name": "F3",
                    "midi": 53,
                    "time": 164.39666400000038,
                    "velocity": 0.2204724409448819,
                    "duration": 0.4806920000000048
                },
                {
                    "name": "F4",
                    "midi": 65,
                    "time": 164.39666400000038,
                    "velocity": 0.3228346456692913,
                    "duration": 0.4806920000000048
                },
                {
                    "name": "A3",
                    "midi": 57,
                    "time": 164.8773560000004,
                    "velocity": 0.3228346456692913,
                    "duration": 0.4806920000000048
                },
                {
                    "name": "C3",
                    "midi": 48,
                    "time": 164.8773560000004,
                    "velocity": 0.2677165354330709,
                    "duration": 0.4806920000000048
                },
                {
                    "name": "C3",
                    "midi": 48,
                    "time": 165.3580480000004,
                    "velocity": 0.2204724409448819,
                    "duration": 0.4806920000000048
                },
                {
                    "name": "G3",
                    "midi": 55,
                    "time": 165.3580480000004,
                    "velocity": 0.2677165354330709,
                    "duration": 0.4806920000000048
                },
                {
                    "name": "F3",
                    "midi": 53,
                    "time": 165.8387400000004,
                    "velocity": 0.3228346456692913,
                    "duration": 0.4806920000000048
                },
                {
                    "name": "C3",
                    "midi": 48,
                    "time": 166.3194320000004,
                    "velocity": 0.2992125984251969,
                    "duration": 0.12017299999999409
                },
                {
                    "name": "F2",
                    "midi": 41,
                    "time": 166.8001240000004,
                    "velocity": 0.30708661417322836,
                    "duration": 0.4806920000000048
                }
            ],
            "controlChanges": {},
            "id": 2,
            "name": "Piano left",
            "instrumentNumber": 0,
            "instrument": "acoustic grand piano",
            "instrumentFamily": "piano",
            "channelNumber": 0,
            "isPercussion": false
        },
        {
            "startTime": 0,
            "duration": 0,
            "length": 0,
            "notes": [],
            "controlChanges": {
                "64": [
                    {
                        "number": 64,
                        "time": 2.4495263166666668,
                        "value": 1
                    },
                    {
                        "number": 64,
                        "time": 2.8901606500000003,
                        "value": 0
                    },
                    {
                        "number": 64,
                        "time": 12.573100125000002,
                        "value": 1
                    },
                    {
                        "number": 64,
                        "time": 13.021745991666668,
                        "value": 0
                    },
                    {
                        "number": 64,
                        "time": 16.870286316666668,
                        "value": 1
                    },
                    {
                        "number": 64,
                        "time": 17.31092065,
                        "value": 0
                    },
                    {
                        "number": 64,
                        "time": 26.993860125,
                        "value": 1
                    },
                    {
                        "number": 64,
                        "time": 27.442505991666668,
                        "value": 0
                    },
                    {
                        "number": 64,
                        "time": 42.82765431666667,
                        "value": 1
                    },
                    {
                        "number": 64,
                        "time": 43.26828865,
                        "value": 0
                    },
                    {
                        "number": 64,
                        "time": 52.951228125,
                        "value": 1
                    },
                    {
                        "number": 64,
                        "time": 53.39987399166667,
                        "value": 0
                    },
                    {
                        "number": 64,
                        "time": 68.78502231666667,
                        "value": 1
                    },
                    {
                        "number": 64,
                        "time": 69.22565665,
                        "value": 0
                    },
                    {
                        "number": 64,
                        "time": 78.908596125,
                        "value": 1
                    },
                    {
                        "number": 64,
                        "time": 79.35724199166667,
                        "value": 0
                    },
                    {
                        "number": 64,
                        "time": 90.445204125,
                        "value": 1
                    },
                    {
                        "number": 64,
                        "time": 90.87382115833334,
                        "value": 0
                    },
                    {
                        "number": 64,
                        "time": 101.981812125,
                        "value": 1
                    },
                    {
                        "number": 64,
                        "time": 102.43045799166667,
                        "value": 0
                    },
                    {
                        "number": 64,
                        "time": 113.518420125,
                        "value": 1
                    },
                    {
                        "number": 64,
                        "time": 113.96706599166667,
                        "value": 0
                    },
                    {
                        "number": 64,
                        "time": 125.055028125,
                        "value": 1
                    },
                    {
                        "number": 64,
                        "time": 125.50367399166667,
                        "value": 0
                    },
                    {
                        "number": 64,
                        "time": 129.35221431666668,
                        "value": 1
                    },
                    {
                        "number": 64,
                        "time": 129.79284865,
                        "value": 0
                    },
                    {
                        "number": 64,
                        "time": 139.475788125,
                        "value": 1
                    },
                    {
                        "number": 64,
                        "time": 139.9244339916667,
                        "value": 0
                    },
                    {
                        "number": 64,
                        "time": 155.30958231666668,
                        "value": 1
                    },
                    {
                        "number": 64,
                        "time": 155.75021665,
                        "value": 0
                    },
                    {
                        "number": 64,
                        "time": 165.433156125,
                        "value": 1
                    },
                    {
                        "number": 64,
                        "time": 165.8818019916667,
                        "value": 0
                    }
                ]
            },
            "id": 3,
            "name": "Pedale",
            "instrumentNumber": 0,
            "instrument": "acoustic grand piano",
            "instrumentFamily": "piano",
            "channelNumber": 0,
            "isPercussion": false
        },
        {
            "startTime": 0,
            "duration": 0,
            "length": 0,
            "notes": [],
            "controlChanges": {},
            "id": 4,
            "name": "Haydn Piano Sonata in F major, 2. movement"
        },
        {
            "startTime": 0,
            "duration": 0,
            "length": 0,
            "notes": [],
            "controlChanges": {},
            "id": 5,
            "name": "Copyright  2010 by Bernd Krueger"
        },
        {
            "startTime": 0,
            "duration": 0,
            "length": 0,
            "notes": [],
            "controlChanges": {},
            "id": 6,
            "name": "http://www.piano-midi.de/"
        },
        {
            "startTime": 0,
            "duration": 0,
            "length": 0,
            "notes": [],
            "controlChanges": {},
            "id": 7,
            "name": "Edition: 2011-11-08"
        },
        {
            "startTime": 0,
            "duration": 0,
            "length": 0,
            "notes": [],
            "controlChanges": {},
            "id": 8,
            "name": "Spur 8"
        },
        {
            "startTime": 0,
            "duration": 0,
            "length": 0,
            "notes": [],
            "controlChanges": {},
            "id": 9,
            "name": "Spur 9"
        },
        {
            "startTime": 0,
            "duration": 0,
            "length": 0,
            "notes": [],
            "controlChanges": {},
            "id": 10,
            "name": "Spur 10"
        },
        {
            "startTime": 0,
            "duration": 0,
            "length": 0,
            "notes": [],
            "controlChanges": {},
            "id": 11,
            "name": "Spur 11"
        },
        {
            "startTime": 0,
            "duration": 0,
            "length": 0,
            "notes": [],
            "controlChanges": {},
            "id": 12,
            "name": "Spur 12"
        },
        {
            "startTime": 0,
            "duration": 0,
            "length": 0,
            "notes": [],
            "controlChanges": {},
            "id": 13,
            "name": "Spur 13"
        },
        {
            "startTime": 0,
            "duration": 0,
            "length": 0,
            "notes": [],
            "controlChanges": {},
            "id": 14,
            "name": "Spur 14"
        },
        {
            "startTime": 0,
            "duration": 0,
            "length": 0,
            "notes": [],
            "controlChanges": {},
            "id": 15,
            "name": "Spur 15"
        },
        {
            "startTime": 0,
            "duration": 0,
            "length": 0,
            "notes": [],
            "controlChanges": {},
            "id": 16,
            "name": "Spur 16"
        }
    ]
}