{
    "header": {
        "PPQ": 480,
        "timeSignature": [
            3,
            8
        ],
        "bpm": 109.5000410625154,
        "name": "Sonate Hoboken XVI:8 4. Satz"
    },
    "startTime": 0,
    "duration": 39.45203999999992,
    "tracks": [
        {
            "startTime": 0,
            "duration": 0,
            "length": 0,
            "notes": [],
            "controlChanges": {},
            "id": 0,
            "name": "Sonate Hoboken XVI:8 4. Satz"
        },
        {
            "startTime": 0,
            "duration": 38.904094999999934,
            "length": 192,
            "notes": [
                {
                    "name": "D5",
                    "midi": 74,
                    "time": 0,
                    "velocity": 0.49606299212598426,
                    "duration": 0.2739725
                },
                {
                    "name": "G5",
                    "midi": 79,
                    "time": 0.2739725,
                    "velocity": 0.5118110236220472,
                    "duration": 0.2739725
                },
                {
                    "name": "B5",
                    "midi": 83,
                    "time": 0.547945,
                    "velocity": 0.5354330708661418,
                    "duration": 0.27397250000000006
                },
                {
                    "name": "D6",
                    "midi": 86,
                    "time": 0.8219175000000001,
                    "velocity": 0.5590551181102362,
                    "duration": 0.5479449999999999
                },
                {
                    "name": "D5",
                    "midi": 74,
                    "time": 1.3698625,
                    "velocity": 0.49606299212598426,
                    "duration": 0.27397249999999995
                },
                {
                    "name": "E5",
                    "midi": 76,
                    "time": 1.643835,
                    "velocity": 0.5354330708661418,
                    "duration": 0.27397249999999995
                },
                {
                    "name": "C6",
                    "midi": 84,
                    "time": 1.9178074999999999,
                    "velocity": 0.49606299212598426,
                    "duration": 0.2739725000000002
                },
                {
                    "name": "E5",
                    "midi": 76,
                    "time": 2.19178,
                    "velocity": 0.4566929133858268,
                    "duration": 0.2739725000000002
                },
                {
                    "name": "D5",
                    "midi": 74,
                    "time": 2.4657525000000002,
                    "velocity": 0.4566929133858268,
                    "duration": 0.2739725000000002
                },
                {
                    "name": "C5",
                    "midi": 72,
                    "time": 3.2876700000000003,
                    "velocity": 0.4015748031496063,
                    "duration": 0.2739725000000002
                },
                {
                    "name": "A5",
                    "midi": 81,
                    "time": 3.5616425000000005,
                    "velocity": 0.3543307086614173,
                    "duration": 0.2739725000000002
                },
                {
                    "name": "C5",
                    "midi": 72,
                    "time": 3.8356150000000007,
                    "velocity": 0.3543307086614173,
                    "duration": 0.2739725000000002
                },
                {
                    "name": "B4",
                    "midi": 71,
                    "time": 4.109587500000001,
                    "velocity": 0.4094488188976378,
                    "duration": 0.13698624999999964
                },
                {
                    "name": "G5",
                    "midi": 79,
                    "time": 4.2465737500000005,
                    "velocity": 0.3464566929133858,
                    "duration": 0.13698624999999964
                },
                {
                    "name": "C5",
                    "midi": 72,
                    "time": 4.38356,
                    "velocity": 0.4251968503937008,
                    "duration": 0.13698624999999964
                },
                {
                    "name": "G5",
                    "midi": 79,
                    "time": 4.52054625,
                    "velocity": 0.3464566929133858,
                    "duration": 0.13698624999999964
                },
                {
                    "name": "D5",
                    "midi": 74,
                    "time": 4.657532499999999,
                    "velocity": 0.41732283464566927,
                    "duration": 0.13698624999999964
                },
                {
                    "name": "G5",
                    "midi": 79,
                    "time": 4.794518749999999,
                    "velocity": 0.3543307086614173,
                    "duration": 0.13698624999999964
                },
                {
                    "name": "C5",
                    "midi": 72,
                    "time": 4.931504999999999,
                    "velocity": 0.4409448818897638,
                    "duration": 0.13698624999999964
                },
                {
                    "name": "E5",
                    "midi": 76,
                    "time": 5.068491249999998,
                    "velocity": 0.3228346456692913,
                    "duration": 0.13698624999999964
                },
                {
                    "name": "D5",
                    "midi": 74,
                    "time": 5.205477499999998,
                    "velocity": 0.4094488188976378,
                    "duration": 0.13698624999999964
                },
                {
                    "name": "C5",
                    "midi": 72,
                    "time": 5.342463749999998,
                    "velocity": 0.33070866141732286,
                    "duration": 0.13698624999999964
                },
                {
                    "name": "B4",
                    "midi": 71,
                    "time": 5.479449999999997,
                    "velocity": 0.3858267716535433,
                    "duration": 0.13698624999999964
                },
                {
                    "name": "A4",
                    "midi": 69,
                    "time": 5.616436249999997,
                    "velocity": 0.31496062992125984,
                    "duration": 0.13698624999999964
                },
                {
                    "name": "G4",
                    "midi": 67,
                    "time": 5.7534224999999966,
                    "velocity": 0.3858267716535433,
                    "duration": 0.2739725000000002
                },
                {
                    "name": "D5",
                    "midi": 74,
                    "time": 6.575339999999997,
                    "velocity": 0.49606299212598426,
                    "duration": 0.2739725000000002
                },
                {
                    "name": "G5",
                    "midi": 79,
                    "time": 6.849312499999997,
                    "velocity": 0.5118110236220472,
                    "duration": 0.2739725000000002
                },
                {
                    "name": "B5",
                    "midi": 83,
                    "time": 7.123284999999997,
                    "velocity": 0.5354330708661418,
                    "duration": 0.2739725000000002
                },
                {
                    "name": "D6",
                    "midi": 86,
                    "time": 7.397257499999998,
                    "velocity": 0.5590551181102362,
                    "duration": 0.5479450000000003
                },
                {
                    "name": "D5",
                    "midi": 74,
                    "time": 7.945202499999998,
                    "velocity": 0.49606299212598426,
                    "duration": 0.2739725000000002
                },
                {
                    "name": "E5",
                    "midi": 76,
                    "time": 8.219174999999998,
                    "velocity": 0.5354330708661418,
                    "duration": 0.2739724999999993
                },
                {
                    "name": "C6",
                    "midi": 84,
                    "time": 8.493147499999997,
                    "velocity": 0.49606299212598426,
                    "duration": 0.2739724999999993
                },
                {
                    "name": "E5",
                    "midi": 76,
                    "time": 8.767119999999997,
                    "velocity": 0.4566929133858268,
                    "duration": 0.2739724999999993
                },
                {
                    "name": "D5",
                    "midi": 74,
                    "time": 9.041092499999996,
                    "velocity": 0.4566929133858268,
                    "duration": 0.2739724999999993
                },
                {
                    "name": "C5",
                    "midi": 72,
                    "time": 9.863009999999996,
                    "velocity": 0.4015748031496063,
                    "duration": 0.2739724999999993
                },
                {
                    "name": "A5",
                    "midi": 81,
                    "time": 10.136982499999995,
                    "velocity": 0.3543307086614173,
                    "duration": 0.2739724999999993
                },
                {
                    "name": "C5",
                    "midi": 72,
                    "time": 10.410954999999994,
                    "velocity": 0.3543307086614173,
                    "duration": 0.2739724999999993
                },
                {
                    "name": "B4",
                    "midi": 71,
                    "time": 10.684927499999993,
                    "velocity": 0.4094488188976378,
                    "duration": 0.13698624999999964
                },
                {
                    "name": "G5",
                    "midi": 79,
                    "time": 10.821913749999993,
                    "velocity": 0.3464566929133858,
                    "duration": 0.13698624999999964
                },
                {
                    "name": "C5",
                    "midi": 72,
                    "time": 10.958899999999993,
                    "velocity": 0.4251968503937008,
                    "duration": 0.13698624999999964
                },
                {
                    "name": "G5",
                    "midi": 79,
                    "time": 11.095886249999992,
                    "velocity": 0.3464566929133858,
                    "duration": 0.13698624999999964
                },
                {
                    "name": "D5",
                    "midi": 74,
                    "time": 11.232872499999992,
                    "velocity": 0.41732283464566927,
                    "duration": 0.13698624999999964
                },
                {
                    "name": "G5",
                    "midi": 79,
                    "time": 11.369858749999992,
                    "velocity": 0.3543307086614173,
                    "duration": 0.13698624999999964
                },
                {
                    "name": "C5",
                    "midi": 72,
                    "time": 11.506844999999991,
                    "velocity": 0.4409448818897638,
                    "duration": 0.13698624999999964
                },
                {
                    "name": "E5",
                    "midi": 76,
                    "time": 11.643831249999991,
                    "velocity": 0.3228346456692913,
                    "duration": 0.13698624999999964
                },
                {
                    "name": "D5",
                    "midi": 74,
                    "time": 11.78081749999999,
                    "velocity": 0.4094488188976378,
                    "duration": 0.13698624999999964
                },
                {
                    "name": "C5",
                    "midi": 72,
                    "time": 11.91780374999999,
                    "velocity": 0.33070866141732286,
                    "duration": 0.13698624999999964
                },
                {
                    "name": "B4",
                    "midi": 71,
                    "time": 12.05478999999999,
                    "velocity": 0.3858267716535433,
                    "duration": 0.13698624999999964
                },
                {
                    "name": "A4",
                    "midi": 69,
                    "time": 12.19177624999999,
                    "velocity": 0.31496062992125984,
                    "duration": 0.13698624999999964
                },
                {
                    "name": "G4",
                    "midi": 67,
                    "time": 12.32876249999999,
                    "velocity": 0.3858267716535433,
                    "duration": 0.2739724999999993
                },
                {
                    "name": "F#4",
                    "midi": 66,
                    "time": 13.150679999999989,
                    "velocity": 0.4409448818897638,
                    "duration": 0.13698624999999964
                },
                {
                    "name": "D4",
                    "midi": 62,
                    "time": 13.287666249999988,
                    "velocity": 0.3779527559055118,
                    "duration": 0.13698624999999964
                },
                {
                    "name": "F#4",
                    "midi": 66,
                    "time": 13.424652499999988,
                    "velocity": 0.4409448818897638,
                    "duration": 0.13698624999999964
                },
                {
                    "name": "D4",
                    "midi": 62,
                    "time": 13.561638749999988,
                    "velocity": 0.3700787401574803,
                    "duration": 0.13698624999999964
                },
                {
                    "name": "F#4",
                    "midi": 66,
                    "time": 13.698624999999987,
                    "velocity": 0.4409448818897638,
                    "duration": 0.13698624999999964
                },
                {
                    "name": "D4",
                    "midi": 62,
                    "time": 13.835611249999987,
                    "velocity": 0.3858267716535433,
                    "duration": 0.13698624999999964
                },
                {
                    "name": "G4",
                    "midi": 67,
                    "time": 13.972597499999987,
                    "velocity": 0.4409448818897638,
                    "duration": 0.13698624999999964
                },
                {
                    "name": "D4",
                    "midi": 62,
                    "time": 14.109583749999986,
                    "velocity": 0.3937007874015748,
                    "duration": 0.13698624999999964
                },
                {
                    "name": "A4",
                    "midi": 69,
                    "time": 14.246569999999986,
                    "velocity": 0.4645669291338583,
                    "duration": 0.13698624999999964
                },
                {
                    "name": "D4",
                    "midi": 62,
                    "time": 14.383556249999986,
                    "velocity": 0.4251968503937008,
                    "duration": 0.13698624999999964
                },
                {
                    "name": "B4",
                    "midi": 71,
                    "time": 14.520542499999985,
                    "velocity": 0.4881889763779528,
                    "duration": 0.13698624999999964
                },
                {
                    "name": "D4",
                    "midi": 62,
                    "time": 14.657528749999985,
                    "velocity": 0.4330708661417323,
                    "duration": 0.13698624999999964
                },
                {
                    "name": "C5",
                    "midi": 72,
                    "time": 14.794514999999985,
                    "velocity": 0.5118110236220472,
                    "duration": 0.13698624999999964
                },
                {
                    "name": "D4",
                    "midi": 62,
                    "time": 14.931501249999984,
                    "velocity": 0.4409448818897638,
                    "duration": 0.13698624999999964
                },
                {
                    "name": "C5",
                    "midi": 72,
                    "time": 15.068487499999984,
                    "velocity": 0.5039370078740157,
                    "duration": 0.13698624999999964
                },
                {
                    "name": "D4",
                    "midi": 62,
                    "time": 15.205473749999983,
                    "velocity": 0.4409448818897638,
                    "duration": 0.13698624999999964
                },
                {
                    "name": "B4",
                    "midi": 71,
                    "time": 15.342459999999983,
                    "velocity": 0.49606299212598426,
                    "duration": 0.13698624999999964
                },
                {
                    "name": "D4",
                    "midi": 62,
                    "time": 15.479446249999983,
                    "velocity": 0.41732283464566927,
                    "duration": 0.13698624999999964
                },
                {
                    "name": "A4",
                    "midi": 69,
                    "time": 15.616432499999982,
                    "velocity": 0.48031496062992124,
                    "duration": 0.13698624999999964
                },
                {
                    "name": "D5",
                    "midi": 74,
                    "time": 15.753418749999982,
                    "velocity": 0.3700787401574803,
                    "duration": 0.13698624999999964
                },
                {
                    "name": "F#4",
                    "midi": 66,
                    "time": 15.890404999999982,
                    "velocity": 0.4645669291338583,
                    "duration": 0.13698625000000142
                },
                {
                    "name": "A4",
                    "midi": 69,
                    "time": 16.027391249999983,
                    "velocity": 0.3464566929133858,
                    "duration": 0.13698624999999964
                },
                {
                    "name": "D4",
                    "midi": 62,
                    "time": 16.164377499999983,
                    "velocity": 0.4251968503937008,
                    "duration": 0.2716893958333344
                },
                {
                    "name": "F#4",
                    "midi": 66,
                    "time": 16.438349999999986,
                    "velocity": 0.5511811023622047,
                    "duration": 0.13698624999999964
                },
                {
                    "name": "D5",
                    "midi": 74,
                    "time": 16.575336249999985,
                    "velocity": 0.4645669291338583,
                    "duration": 0.13698624999999964
                },
                {
                    "name": "F#4",
                    "midi": 66,
                    "time": 16.712322499999985,
                    "velocity": 0.5511811023622047,
                    "duration": 0.13698624999999964
                },
                {
                    "name": "D5",
                    "midi": 74,
                    "time": 16.849308749999985,
                    "velocity": 0.4566929133858268,
                    "duration": 0.13698624999999964
                },
                {
                    "name": "F#4",
                    "midi": 66,
                    "time": 16.986294999999984,
                    "velocity": 0.5511811023622047,
                    "duration": 0.13698624999999964
                },
                {
                    "name": "D5",
                    "midi": 74,
                    "time": 17.123281249999984,
                    "velocity": 0.4409448818897638,
                    "duration": 0.13698624999999964
                },
                {
                    "name": "G4",
                    "midi": 67,
                    "time": 17.260267499999983,
                    "velocity": 0.5590551181102362,
                    "duration": 0.13698624999999964
                },
                {
                    "name": "D5",
                    "midi": 74,
                    "time": 17.397253749999983,
                    "velocity": 0.49606299212598426,
                    "duration": 0.13698624999999964
                },
                {
                    "name": "A4",
                    "midi": 69,
                    "time": 17.534239999999983,
                    "velocity": 0.5748031496062992,
                    "duration": 0.13698624999999964
                },
                {
                    "name": "D5",
                    "midi": 74,
                    "time": 17.671226249999982,
                    "velocity": 0.4881889763779528,
                    "duration": 0.13698624999999964
                },
                {
                    "name": "B4",
                    "midi": 71,
                    "time": 17.808212499999982,
                    "velocity": 0.6141732283464567,
                    "duration": 0.13698624999999964
                },
                {
                    "name": "D5",
                    "midi": 74,
                    "time": 17.94519874999998,
                    "velocity": 0.5905511811023622,
                    "duration": 0.13698624999999964
                },
                {
                    "name": "C5",
                    "midi": 72,
                    "time": 18.08218499999998,
                    "velocity": 0.6299212598425197,
                    "duration": 0.13698624999999964
                },
                {
                    "name": "D5",
                    "midi": 74,
                    "time": 18.21917124999998,
                    "velocity": 0.5590551181102362,
                    "duration": 0.13698624999999964
                },
                {
                    "name": "C5",
                    "midi": 72,
                    "time": 18.35615749999998,
                    "velocity": 0.5905511811023622,
                    "duration": 0.13698624999999964
                },
                {
                    "name": "D5",
                    "midi": 74,
                    "time": 18.49314374999998,
                    "velocity": 0.5039370078740157,
                    "duration": 0.13698624999999964
                },
                {
                    "name": "B4",
                    "midi": 71,
                    "time": 18.63012999999998,
                    "velocity": 0.5669291338582677,
                    "duration": 0.13698624999999964
                },
                {
                    "name": "D5",
                    "midi": 74,
                    "time": 18.76711624999998,
                    "velocity": 0.47244094488188976,
                    "duration": 0.13698624999999964
                },
                {
                    "name": "A4",
                    "midi": 69,
                    "time": 18.90410249999998,
                    "velocity": 0.5511811023622047,
                    "duration": 0.13698624999999964
                },
                {
                    "name": "D5",
                    "midi": 74,
                    "time": 19.04108874999998,
                    "velocity": 0.4251968503937008,
                    "duration": 0.13698624999999964
                },
                {
                    "name": "F#4",
                    "midi": 66,
                    "time": 19.17807499999998,
                    "velocity": 0.5275590551181102,
                    "duration": 0.13698624999999964
                },
                {
                    "name": "A4",
                    "midi": 69,
                    "time": 19.315061249999978,
                    "velocity": 0.3937007874015748,
                    "duration": 0.13698624999999964
                },
                {
                    "name": "D4",
                    "midi": 62,
                    "time": 19.452047499999978,
                    "velocity": 0.4881889763779528,
                    "duration": 0.2739724999999993
                },
                {
                    "name": "D5",
                    "midi": 74,
                    "time": 19.726019999999977,
                    "velocity": 0.3937007874015748,
                    "duration": 0.2739724999999993
                },
                {
                    "name": "G5",
                    "midi": 79,
                    "time": 19.999992499999976,
                    "velocity": 0.4094488188976378,
                    "duration": 0.2739724999999993
                },
                {
                    "name": "B5",
                    "midi": 83,
                    "time": 20.273964999999976,
                    "velocity": 0.4251968503937008,
                    "duration": 0.2739724999999993
                },
                {
                    "name": "D6",
                    "midi": 86,
                    "time": 20.547937499999975,
                    "velocity": 0.4409448818897638,
                    "duration": 0.5479449999999986
                },
                {
                    "name": "D5",
                    "midi": 74,
                    "time": 21.095882499999973,
                    "velocity": 0.3937007874015748,
                    "duration": 0.2739724999999993
                },
                {
                    "name": "E5",
                    "midi": 76,
                    "time": 21.369854999999973,
                    "velocity": 0.4251968503937008,
                    "duration": 0.2739724999999993
                },
                {
                    "name": "C6",
                    "midi": 84,
                    "time": 21.643827499999972,
                    "velocity": 0.3937007874015748,
                    "duration": 0.2739724999999993
                },
                {
                    "name": "E5",
                    "midi": 76,
                    "time": 21.91779999999997,
                    "velocity": 0.36220472440944884,
                    "duration": 0.2739724999999993
                },
                {
                    "name": "D5",
                    "midi": 74,
                    "time": 22.19177249999997,
                    "velocity": 0.36220472440944884,
                    "duration": 0.2739724999999993
                },
                {
                    "name": "C5",
                    "midi": 72,
                    "time": 23.01368999999997,
                    "velocity": 0.5354330708661418,
                    "duration": 0.2739724999999993
                },
                {
                    "name": "A5",
                    "midi": 81,
                    "time": 23.287662499999968,
                    "velocity": 0.47244094488188976,
                    "duration": 0.2739724999999993
                },
                {
                    "name": "C5",
                    "midi": 72,
                    "time": 23.561634999999967,
                    "velocity": 0.47244094488188976,
                    "duration": 0.2739724999999993
                },
                {
                    "name": "B4",
                    "midi": 71,
                    "time": 23.835607499999966,
                    "velocity": 0.5511811023622047,
                    "duration": 0.13698624999999964
                },
                {
                    "name": "G5",
                    "midi": 79,
                    "time": 23.972593749999966,
                    "velocity": 0.4645669291338583,
                    "duration": 0.13698624999999964
                },
                {
                    "name": "C5",
                    "midi": 72,
                    "time": 24.109579999999966,
                    "velocity": 0.5669291338582677,
                    "duration": 0.13698624999999964
                },
                {
                    "name": "G5",
                    "midi": 79,
                    "time": 24.246566249999965,
                    "velocity": 0.4645669291338583,
                    "duration": 0.13698624999999964
                },
                {
                    "name": "D5",
                    "midi": 74,
                    "time": 24.383552499999965,
                    "velocity": 0.5590551181102362,
                    "duration": 0.13698624999999964
                },
                {
                    "name": "G5",
                    "midi": 79,
                    "time": 24.520538749999965,
                    "velocity": 0.47244094488188976,
                    "duration": 0.13698624999999964
                },
                {
                    "name": "C5",
                    "midi": 72,
                    "time": 24.657524999999964,
                    "velocity": 0.5905511811023622,
                    "duration": 0.13698624999999964
                },
                {
                    "name": "E5",
                    "midi": 76,
                    "time": 24.794511249999964,
                    "velocity": 0.5039370078740157,
                    "duration": 0.13698624999999964
                },
                {
                    "name": "D5",
                    "midi": 74,
                    "time": 24.931497499999963,
                    "velocity": 0.5511811023622047,
                    "duration": 0.13698624999999964
                },
                {
                    "name": "C5",
                    "midi": 72,
                    "time": 25.068483749999963,
                    "velocity": 0.4881889763779528,
                    "duration": 0.13698624999999964
                },
                {
                    "name": "B4",
                    "midi": 71,
                    "time": 25.205469999999963,
                    "velocity": 0.5196850393700787,
                    "duration": 0.13698624999999964
                },
                {
                    "name": "A4",
                    "midi": 69,
                    "time": 25.342456249999962,
                    "velocity": 0.4645669291338583,
                    "duration": 0.13698624999999964
                },
                {
                    "name": "G4",
                    "midi": 67,
                    "time": 25.479442499999962,
                    "velocity": 0.5826771653543307,
                    "duration": 0.2739724999999993
                },
                {
                    "name": "F#4",
                    "midi": 66,
                    "time": 26.30135999999996,
                    "velocity": 0.4409448818897638,
                    "duration": 0.13698624999999964
                },
                {
                    "name": "D4",
                    "midi": 62,
                    "time": 26.43834624999996,
                    "velocity": 0.3779527559055118,
                    "duration": 0.13698624999999964
                },
                {
                    "name": "F#4",
                    "midi": 66,
                    "time": 26.57533249999996,
                    "velocity": 0.4409448818897638,
                    "duration": 0.13698624999999964
                },
                {
                    "name": "D4",
                    "midi": 62,
                    "time": 26.71231874999996,
                    "velocity": 0.3700787401574803,
                    "duration": 0.13698624999999964
                },
                {
                    "name": "F#4",
                    "midi": 66,
                    "time": 26.84930499999996,
                    "velocity": 0.4409448818897638,
                    "duration": 0.13698624999999964
                },
                {
                    "name": "D4",
                    "midi": 62,
                    "time": 26.986291249999958,
                    "velocity": 0.3858267716535433,
                    "duration": 0.13698624999999964
                },
                {
                    "name": "G4",
                    "midi": 67,
                    "time": 27.123277499999958,
                    "velocity": 0.4409448818897638,
                    "duration": 0.13698624999999964
                },
                {
                    "name": "D4",
                    "midi": 62,
                    "time": 27.260263749999957,
                    "velocity": 0.3937007874015748,
                    "duration": 0.13698624999999964
                },
                {
                    "name": "A4",
                    "midi": 69,
                    "time": 27.397249999999957,
                    "velocity": 0.4645669291338583,
                    "duration": 0.13698624999999964
                },
                {
                    "name": "D4",
                    "midi": 62,
                    "time": 27.534236249999957,
                    "velocity": 0.4251968503937008,
                    "duration": 0.13698624999999964
                },
                {
                    "name": "B4",
                    "midi": 71,
                    "time": 27.671222499999956,
                    "velocity": 0.4881889763779528,
                    "duration": 0.13698624999999964
                },
                {
                    "name": "D4",
                    "midi": 62,
                    "time": 27.808208749999956,
                    "velocity": 0.4330708661417323,
                    "duration": 0.13698624999999964
                },
                {
                    "name": "C5",
                    "midi": 72,
                    "time": 27.945194999999956,
                    "velocity": 0.5118110236220472,
                    "duration": 0.13698624999999964
                },
                {
                    "name": "D4",
                    "midi": 62,
                    "time": 28.082181249999955,
                    "velocity": 0.4409448818897638,
                    "duration": 0.13698624999999964
                },
                {
                    "name": "C5",
                    "midi": 72,
                    "time": 28.219167499999955,
                    "velocity": 0.5039370078740157,
                    "duration": 0.13698624999999964
                },
                {
                    "name": "D4",
                    "midi": 62,
                    "time": 28.356153749999955,
                    "velocity": 0.4409448818897638,
                    "duration": 0.13698624999999964
                },
                {
                    "name": "B4",
                    "midi": 71,
                    "time": 28.493139999999954,
                    "velocity": 0.49606299212598426,
                    "duration": 0.13698624999999964
                },
                {
                    "name": "D4",
                    "midi": 62,
                    "time": 28.630126249999954,
                    "velocity": 0.41732283464566927,
                    "duration": 0.13698624999999964
                },
                {
                    "name": "A4",
                    "midi": 69,
                    "time": 28.767112499999953,
                    "velocity": 0.48031496062992124,
                    "duration": 0.13698624999999964
                },
                {
                    "name": "D5",
                    "midi": 74,
                    "time": 28.904098749999953,
                    "velocity": 0.3700787401574803,
                    "duration": 0.13698624999999964
                },
                {
                    "name": "F#4",
                    "midi": 66,
                    "time": 29.041084999999953,
                    "velocity": 0.4645669291338583,
                    "duration": 0.13698624999999964
                },
                {
                    "name": "A4",
                    "midi": 69,
                    "time": 29.178071249999952,
                    "velocity": 0.3464566929133858,
                    "duration": 0.13698624999999964
                },
                {
                    "name": "D4",
                    "midi": 62,
                    "time": 29.315057499999952,
                    "velocity": 0.4251968503937008,
                    "duration": 0.2716893958333344
                },
                {
                    "name": "F#4",
                    "midi": 66,
                    "time": 29.589029999999955,
                    "velocity": 0.5511811023622047,
                    "duration": 0.13698624999999964
                },
                {
                    "name": "D5",
                    "midi": 74,
                    "time": 29.726016249999955,
                    "velocity": 0.4645669291338583,
                    "duration": 0.13698624999999964
                },
                {
                    "name": "F#4",
                    "midi": 66,
                    "time": 29.863002499999954,
                    "velocity": 0.5511811023622047,
                    "duration": 0.13698624999999964
                },
                {
                    "name": "D5",
                    "midi": 74,
                    "time": 29.999988749999954,
                    "velocity": 0.4566929133858268,
                    "duration": 0.13698624999999964
                },
                {
                    "name": "F#4",
                    "midi": 66,
                    "time": 30.136974999999953,
                    "velocity": 0.5511811023622047,
                    "duration": 0.13698624999999964
                },
                {
                    "name": "D5",
                    "midi": 74,
                    "time": 30.273961249999953,
                    "velocity": 0.4409448818897638,
                    "duration": 0.13698624999999964
                },
                {
                    "name": "G4",
                    "midi": 67,
                    "time": 30.410947499999953,
                    "velocity": 0.5590551181102362,
                    "duration": 0.13698624999999964
                },
                {
                    "name": "D5",
                    "midi": 74,
                    "time": 30.547933749999952,
                    "velocity": 0.49606299212598426,
                    "duration": 0.13698624999999964
                },
                {
                    "name": "A4",
                    "midi": 69,
                    "time": 30.684919999999952,
                    "velocity": 0.5748031496062992,
                    "duration": 0.13698624999999964
                },
                {
                    "name": "D5",
                    "midi": 74,
                    "time": 30.82190624999995,
                    "velocity": 0.4881889763779528,
                    "duration": 0.13698624999999964
                },
                {
                    "name": "B4",
                    "midi": 71,
                    "time": 30.95889249999995,
                    "velocity": 0.6141732283464567,
                    "duration": 0.13698624999999964
                },
                {
                    "name": "D5",
                    "midi": 74,
                    "time": 31.09587874999995,
                    "velocity": 0.5905511811023622,
                    "duration": 0.13698624999999964
                },
                {
                    "name": "C5",
                    "midi": 72,
                    "time": 31.23286499999995,
                    "velocity": 0.6299212598425197,
                    "duration": 0.13698624999999964
                },
                {
                    "name": "D5",
                    "midi": 74,
                    "time": 31.36985124999995,
                    "velocity": 0.5590551181102362,
                    "duration": 0.13698624999999964
                },
                {
                    "name": "C5",
                    "midi": 72,
                    "time": 31.50683749999995,
                    "velocity": 0.5905511811023622,
                    "duration": 0.13698624999999964
                },
                {
                    "name": "D5",
                    "midi": 74,
                    "time": 31.64382374999995,
                    "velocity": 0.5039370078740157,
                    "duration": 0.13698624999999964
                },
                {
                    "name": "B4",
                    "midi": 71,
                    "time": 31.78080999999995,
                    "velocity": 0.5669291338582677,
                    "duration": 0.13698624999999964
                },
                {
                    "name": "D5",
                    "midi": 74,
                    "time": 31.91779624999995,
                    "velocity": 0.47244094488188976,
                    "duration": 0.1369862500000032
                },
                {
                    "name": "A4",
                    "midi": 69,
                    "time": 32.05478249999995,
                    "velocity": 0.5511811023622047,
                    "duration": 0.13698624999999964
                },
                {
                    "name": "D5",
                    "midi": 74,
                    "time": 32.19176874999995,
                    "velocity": 0.4251968503937008,
                    "duration": 0.13698624999999964
                },
                {
                    "name": "F#4",
                    "midi": 66,
                    "time": 32.32875499999995,
                    "velocity": 0.5275590551181102,
                    "duration": 0.13698624999999964
                },
                {
                    "name": "A4",
                    "midi": 69,
                    "time": 32.46574124999995,
                    "velocity": 0.3937007874015748,
                    "duration": 0.13698624999999964
                },
                {
                    "name": "D4",
                    "midi": 62,
                    "time": 32.60272749999995,
                    "velocity": 0.4881889763779528,
                    "duration": 0.2739724999999993
                },
                {
                    "name": "D5",
                    "midi": 74,
                    "time": 32.87669999999995,
                    "velocity": 0.3937007874015748,
                    "duration": 0.2739724999999993
                },
                {
                    "name": "G5",
                    "midi": 79,
                    "time": 33.15067249999995,
                    "velocity": 0.4094488188976378,
                    "duration": 0.2739724999999993
                },
                {
                    "name": "B5",
                    "midi": 83,
                    "time": 33.42464499999995,
                    "velocity": 0.4251968503937008,
                    "duration": 0.2739724999999993
                },
                {
                    "name": "D6",
                    "midi": 86,
                    "time": 33.69861749999995,
                    "velocity": 0.4409448818897638,
                    "duration": 0.5479449999999986
                },
                {
                    "name": "D5",
                    "midi": 74,
                    "time": 34.246562499999946,
                    "velocity": 0.3937007874015748,
                    "duration": 0.2739724999999993
                },
                {
                    "name": "E5",
                    "midi": 76,
                    "time": 34.520534999999946,
                    "velocity": 0.4251968503937008,
                    "duration": 0.2739724999999993
                },
                {
                    "name": "C6",
                    "midi": 84,
                    "time": 34.794507499999945,
                    "velocity": 0.3937007874015748,
                    "duration": 0.2739724999999993
                },
                {
                    "name": "E5",
                    "midi": 76,
                    "time": 35.068479999999944,
                    "velocity": 0.36220472440944884,
                    "duration": 0.2739724999999993
                },
                {
                    "name": "D5",
                    "midi": 74,
                    "time": 35.34245249999994,
                    "velocity": 0.36220472440944884,
                    "duration": 0.2739724999999993
                },
                {
                    "name": "C5",
                    "midi": 72,
                    "time": 36.16436999999994,
                    "velocity": 0.5354330708661418,
                    "duration": 0.2739724999999993
                },
                {
                    "name": "A5",
                    "midi": 81,
                    "time": 36.43834249999994,
                    "velocity": 0.47244094488188976,
                    "duration": 0.2739724999999993
                },
                {
                    "name": "C5",
                    "midi": 72,
                    "time": 36.71231499999994,
                    "velocity": 0.47244094488188976,
                    "duration": 0.2739724999999993
                },
                {
                    "name": "B4",
                    "midi": 71,
                    "time": 36.98628749999994,
                    "velocity": 0.5511811023622047,
                    "duration": 0.13698624999999964
                },
                {
                    "name": "G5",
                    "midi": 79,
                    "time": 37.12327374999994,
                    "velocity": 0.4645669291338583,
                    "duration": 0.13698624999999964
                },
                {
                    "name": "C5",
                    "midi": 72,
                    "time": 37.26025999999994,
                    "velocity": 0.5669291338582677,
                    "duration": 0.13698624999999964
                },
                {
                    "name": "G5",
                    "midi": 79,
                    "time": 37.39724624999994,
                    "velocity": 0.4645669291338583,
                    "duration": 0.13698624999999964
                },
                {
                    "name": "D5",
                    "midi": 74,
                    "time": 37.53423249999994,
                    "velocity": 0.5590551181102362,
                    "duration": 0.13698624999999964
                },
                {
                    "name": "G5",
                    "midi": 79,
                    "time": 37.67121874999994,
                    "velocity": 0.47244094488188976,
                    "duration": 0.13698624999999964
                },
                {
                    "name": "C5",
                    "midi": 72,
                    "time": 37.80820499999994,
                    "velocity": 0.5905511811023622,
                    "duration": 0.13698624999999964
                },
                {
                    "name": "E5",
                    "midi": 76,
                    "time": 37.94519124999994,
                    "velocity": 0.5039370078740157,
                    "duration": 0.13698624999999964
                },
                {
                    "name": "D5",
                    "midi": 74,
                    "time": 38.082177499999936,
                    "velocity": 0.5511811023622047,
                    "duration": 0.13698624999999964
                },
                {
                    "name": "C5",
                    "midi": 72,
                    "time": 38.219163749999936,
                    "velocity": 0.4881889763779528,
                    "duration": 0.13698624999999964
                },
                {
                    "name": "B4",
                    "midi": 71,
                    "time": 38.356149999999936,
                    "velocity": 0.5196850393700787,
                    "duration": 0.13698624999999964
                },
                {
                    "name": "A4",
                    "midi": 69,
                    "time": 38.493136249999935,
                    "velocity": 0.4645669291338583,
                    "duration": 0.13698624999999964
                },
                {
                    "name": "G4",
                    "midi": 67,
                    "time": 38.630122499999935,
                    "velocity": 0.5826771653543307,
                    "duration": 0.2739724999999993
                }
            ],
            "controlChanges": {},
            "id": 1,
            "name": "Piano right",
            "instrumentNumber": 0,
            "instrument": "acoustic grand piano",
            "instrumentFamily": "piano",
            "channelNumber": 0,
            "isPercussion": false
        },
        {
            "startTime": 0,
            "duration": 39.45203999999992,
            "length": 204,
            "notes": [
                {
                    "name": "G4",
                    "midi": 67,
                    "time": 0,
                    "velocity": 0.31496062992125984,
                    "duration": 0.13698625
                },
                {
                    "name": "B4",
                    "midi": 71,
                    "time": 0.13698625,
                    "velocity": 0.28346456692913385,
                    "duration": 0.13698625
                },
                {
                    "name": "G4",
                    "midi": 67,
                    "time": 0.2739725,
                    "velocity": 0.3228346456692913,
                    "duration": 0.13698625000000003
                },
                {
                    "name": "B4",
                    "midi": 71,
                    "time": 0.41095875000000004,
                    "velocity": 0.2992125984251969,
                    "duration": 0.13698624999999998
                },
                {
                    "name": "G4",
                    "midi": 67,
                    "time": 0.547945,
                    "velocity": 0.33858267716535434,
                    "duration": 0.13698624999999998
                },
                {
                    "name": "B4",
                    "midi": 71,
                    "time": 0.68493125,
                    "velocity": 0.30708661417322836,
                    "duration": 0.13698624999999998
                },
                {
                    "name": "G4",
                    "midi": 67,
                    "time": 0.8219175,
                    "velocity": 0.3543307086614173,
                    "duration": 0.13698624999999998
                },
                {
                    "name": "B4",
                    "midi": 71,
                    "time": 0.9589037499999999,
                    "velocity": 0.31496062992125984,
                    "duration": 0.1369862500000001
                },
                {
                    "name": "G4",
                    "midi": 67,
                    "time": 1.09589,
                    "velocity": 0.3543307086614173,
                    "duration": 0.1369862500000001
                },
                {
                    "name": "B4",
                    "midi": 71,
                    "time": 1.2328762500000001,
                    "velocity": 0.3228346456692913,
                    "duration": 0.1369862500000001
                },
                {
                    "name": "G4",
                    "midi": 67,
                    "time": 1.3698625000000002,
                    "velocity": 0.3464566929133858,
                    "duration": 0.1369862500000001
                },
                {
                    "name": "B4",
                    "midi": 71,
                    "time": 1.5068487500000003,
                    "velocity": 0.2992125984251969,
                    "duration": 0.1369862500000001
                },
                {
                    "name": "G4",
                    "midi": 67,
                    "time": 1.6438350000000004,
                    "velocity": 0.3543307086614173,
                    "duration": 0.1369862500000001
                },
                {
                    "name": "C5",
                    "midi": 72,
                    "time": 1.7808212500000005,
                    "velocity": 0.31496062992125984,
                    "duration": 0.1369862500000001
                },
                {
                    "name": "G4",
                    "midi": 67,
                    "time": 1.9178075000000006,
                    "velocity": 0.3543307086614173,
                    "duration": 0.13698624999999987
                },
                {
                    "name": "C5",
                    "midi": 72,
                    "time": 2.0547937500000004,
                    "velocity": 0.2677165354330709,
                    "duration": 0.1369862500000001
                },
                {
                    "name": "G4",
                    "midi": 67,
                    "time": 2.1917800000000005,
                    "velocity": 0.3464566929133858,
                    "duration": 0.1369862500000001
                },
                {
                    "name": "C5",
                    "midi": 72,
                    "time": 2.3287662500000006,
                    "velocity": 0.2677165354330709,
                    "duration": 0.1369862500000001
                },
                {
                    "name": "G4",
                    "midi": 67,
                    "time": 2.4657525000000007,
                    "velocity": 0.33858267716535434,
                    "duration": 0.1369862500000001
                },
                {
                    "name": "B4",
                    "midi": 71,
                    "time": 2.6027387500000008,
                    "velocity": 0.2677165354330709,
                    "duration": 0.1369862500000001
                },
                {
                    "name": "G4",
                    "midi": 67,
                    "time": 2.739725000000001,
                    "velocity": 0.2992125984251969,
                    "duration": 0.1369862500000001
                },
                {
                    "name": "B4",
                    "midi": 71,
                    "time": 2.876711250000001,
                    "velocity": 0.25196850393700787,
                    "duration": 0.1369862500000001
                },
                {
                    "name": "G4",
                    "midi": 67,
                    "time": 3.013697500000001,
                    "velocity": 0.2992125984251969,
                    "duration": 0.1369862500000001
                },
                {
                    "name": "B4",
                    "midi": 71,
                    "time": 3.150683750000001,
                    "velocity": 0.25196850393700787,
                    "duration": 0.1369862500000001
                },
                {
                    "name": "D4",
                    "midi": 62,
                    "time": 3.287670000000001,
                    "velocity": 0.2755905511811024,
                    "duration": 0.1369862500000001
                },
                {
                    "name": "A4",
                    "midi": 69,
                    "time": 3.4246562500000013,
                    "velocity": 0.2440944881889764,
                    "duration": 0.1369862500000001
                },
                {
                    "name": "D4",
                    "midi": 62,
                    "time": 3.5616425000000014,
                    "velocity": 0.2755905511811024,
                    "duration": 0.1369862500000001
                },
                {
                    "name": "A4",
                    "midi": 69,
                    "time": 3.6986287500000015,
                    "velocity": 0.2440944881889764,
                    "duration": 0.1369862500000001
                },
                {
                    "name": "D4",
                    "midi": 62,
                    "time": 3.8356150000000016,
                    "velocity": 0.2755905511811024,
                    "duration": 0.1369862500000001
                },
                {
                    "name": "A4",
                    "midi": 69,
                    "time": 3.9726012500000016,
                    "velocity": 0.2440944881889764,
                    "duration": 0.1369862500000001
                },
                {
                    "name": "G4",
                    "midi": 67,
                    "time": 4.109587500000002,
                    "velocity": 0.31496062992125984,
                    "duration": 0.13698624999999964
                },
                {
                    "name": "A4",
                    "midi": 69,
                    "time": 4.383560000000001,
                    "velocity": 0.29133858267716534,
                    "duration": 0.13698624999999964
                },
                {
                    "name": "B4",
                    "midi": 71,
                    "time": 4.6575325,
                    "velocity": 0.3228346456692913,
                    "duration": 0.13698624999999964
                },
                {
                    "name": "C4",
                    "midi": 60,
                    "time": 4.931505,
                    "velocity": 0.3543307086614173,
                    "duration": 0.5479450000000003
                },
                {
                    "name": "D4",
                    "midi": 62,
                    "time": 5.47945,
                    "velocity": 0.25196850393700787,
                    "duration": 0.2739725000000002
                },
                {
                    "name": "G3",
                    "midi": 55,
                    "time": 5.7534225,
                    "velocity": 0.29133858267716534,
                    "duration": 0.2739725000000002
                },
                {
                    "name": "D3",
                    "midi": 50,
                    "time": 6.027395,
                    "velocity": 0.2755905511811024,
                    "duration": 0.13698624999999964
                },
                {
                    "name": "G2",
                    "midi": 43,
                    "time": 6.3013675,
                    "velocity": 0.29133858267716534,
                    "duration": 0.13698624999999964
                },
                {
                    "name": "G4",
                    "midi": 67,
                    "time": 6.575339999999999,
                    "velocity": 0.31496062992125984,
                    "duration": 0.13698624999999964
                },
                {
                    "name": "B4",
                    "midi": 71,
                    "time": 6.7123262499999985,
                    "velocity": 0.28346456692913385,
                    "duration": 0.13698624999999964
                },
                {
                    "name": "G4",
                    "midi": 67,
                    "time": 6.849312499999998,
                    "velocity": 0.3228346456692913,
                    "duration": 0.13698624999999964
                },
                {
                    "name": "B4",
                    "midi": 71,
                    "time": 6.986298749999998,
                    "velocity": 0.2992125984251969,
                    "duration": 0.13698624999999964
                },
                {
                    "name": "G4",
                    "midi": 67,
                    "time": 7.123284999999997,
                    "velocity": 0.33858267716535434,
                    "duration": 0.13698624999999964
                },
                {
                    "name": "B4",
                    "midi": 71,
                    "time": 7.260271249999997,
                    "velocity": 0.30708661417322836,
                    "duration": 0.13698624999999964
                },
                {
                    "name": "G4",
                    "midi": 67,
                    "time": 7.397257499999997,
                    "velocity": 0.3543307086614173,
                    "duration": 0.13698624999999964
                },
                {
                    "name": "B4",
                    "midi": 71,
                    "time": 7.534243749999996,
                    "velocity": 0.31496062992125984,
                    "duration": 0.13698624999999964
                },
                {
                    "name": "G4",
                    "midi": 67,
                    "time": 7.671229999999996,
                    "velocity": 0.3543307086614173,
                    "duration": 0.13698624999999964
                },
                {
                    "name": "B4",
                    "midi": 71,
                    "time": 7.808216249999996,
                    "velocity": 0.3228346456692913,
                    "duration": 0.13698624999999964
                },
                {
                    "name": "G4",
                    "midi": 67,
                    "time": 7.945202499999995,
                    "velocity": 0.3464566929133858,
                    "duration": 0.13698624999999964
                },
                {
                    "name": "B4",
                    "midi": 71,
                    "time": 8.082188749999995,
                    "velocity": 0.2992125984251969,
                    "duration": 0.13698624999999964
                },
                {
                    "name": "G4",
                    "midi": 67,
                    "time": 8.219174999999995,
                    "velocity": 0.3543307086614173,
                    "duration": 0.13698624999999964
                },
                {
                    "name": "C5",
                    "midi": 72,
                    "time": 8.356161249999994,
                    "velocity": 0.31496062992125984,
                    "duration": 0.13698624999999964
                },
                {
                    "name": "G4",
                    "midi": 67,
                    "time": 8.493147499999994,
                    "velocity": 0.3543307086614173,
                    "duration": 0.13698624999999964
                },
                {
                    "name": "C5",
                    "midi": 72,
                    "time": 8.630133749999993,
                    "velocity": 0.2992125984251969,
                    "duration": 0.13698624999999964
                },
                {
                    "name": "G4",
                    "midi": 67,
                    "time": 8.767119999999993,
                    "velocity": 0.3543307086614173,
                    "duration": 0.13698624999999964
                },
                {
                    "name": "C5",
                    "midi": 72,
                    "time": 8.904106249999993,
                    "velocity": 0.2677165354330709,
                    "duration": 0.13698624999999964
                },
                {
                    "name": "G4",
                    "midi": 67,
                    "time": 9.041092499999992,
                    "velocity": 0.3464566929133858,
                    "duration": 0.13698624999999964
                },
                {
                    "name": "B4",
                    "midi": 71,
                    "time": 9.178078749999992,
                    "velocity": 0.23622047244094488,
                    "duration": 0.13698624999999964
                },
                {
                    "name": "G4",
                    "midi": 67,
                    "time": 9.315064999999992,
                    "velocity": 0.30708661417322836,
                    "duration": 0.13698624999999964
                },
                {
                    "name": "B4",
                    "midi": 71,
                    "time": 9.452051249999991,
                    "velocity": 0.25196850393700787,
                    "duration": 0.13698624999999964
                },
                {
                    "name": "G4",
                    "midi": 67,
                    "time": 9.589037499999991,
                    "velocity": 0.2992125984251969,
                    "duration": 0.13698624999999964
                },
                {
                    "name": "B4",
                    "midi": 71,
                    "time": 9.72602374999999,
                    "velocity": 0.25196850393700787,
                    "duration": 0.13698624999999964
                },
                {
                    "name": "D4",
                    "midi": 62,
                    "time": 9.86300999999999,
                    "velocity": 0.2755905511811024,
                    "duration": 0.13698624999999964
                },
                {
                    "name": "A4",
                    "midi": 69,
                    "time": 9.99999624999999,
                    "velocity": 0.2440944881889764,
                    "duration": 0.13698624999999964
                },
                {
                    "name": "D4",
                    "midi": 62,
                    "time": 10.13698249999999,
                    "velocity": 0.2755905511811024,
                    "duration": 0.13698624999999964
                },
                {
                    "name": "A4",
                    "midi": 69,
                    "time": 10.27396874999999,
                    "velocity": 0.2440944881889764,
                    "duration": 0.13698624999999964
                },
                {
                    "name": "D4",
                    "midi": 62,
                    "time": 10.410954999999989,
                    "velocity": 0.2755905511811024,
                    "duration": 0.13698624999999964
                },
                {
                    "name": "A4",
                    "midi": 69,
                    "time": 10.547941249999989,
                    "velocity": 0.2440944881889764,
                    "duration": 0.13698624999999964
                },
                {
                    "name": "G4",
                    "midi": 67,
                    "time": 10.684927499999988,
                    "velocity": 0.31496062992125984,
                    "duration": 0.13698624999999964
                },
                {
                    "name": "A4",
                    "midi": 69,
                    "time": 10.958899999999987,
                    "velocity": 0.29133858267716534,
                    "duration": 0.13698624999999964
                },
                {
                    "name": "B4",
                    "midi": 71,
                    "time": 11.232872499999987,
                    "velocity": 0.3228346456692913,
                    "duration": 0.13698624999999964
                },
                {
                    "name": "C4",
                    "midi": 60,
                    "time": 11.506844999999986,
                    "velocity": 0.3543307086614173,
                    "duration": 0.5479450000000003
                },
                {
                    "name": "D4",
                    "midi": 62,
                    "time": 12.054789999999986,
                    "velocity": 0.25196850393700787,
                    "duration": 0.2739724999999993
                },
                {
                    "name": "G3",
                    "midi": 55,
                    "time": 12.328762499999986,
                    "velocity": 0.29133858267716534,
                    "duration": 0.2739724999999993
                },
                {
                    "name": "D3",
                    "midi": 50,
                    "time": 12.602734999999985,
                    "velocity": 0.2755905511811024,
                    "duration": 0.13698624999999964
                },
                {
                    "name": "G2",
                    "midi": 43,
                    "time": 12.876707499999984,
                    "velocity": 0.29133858267716534,
                    "duration": 0.13698624999999964
                },
                {
                    "name": "D3",
                    "midi": 50,
                    "time": 13.150679999999983,
                    "velocity": 0.31496062992125984,
                    "duration": 0.8219174999999996
                },
                {
                    "name": "C4",
                    "midi": 60,
                    "time": 13.698624999999984,
                    "velocity": 0.30708661417322836,
                    "duration": 0.2739724999999993
                },
                {
                    "name": "B3",
                    "midi": 59,
                    "time": 13.972597499999983,
                    "velocity": 0.3543307086614173,
                    "duration": 0.2739724999999993
                },
                {
                    "name": "F#3",
                    "midi": 54,
                    "time": 14.246569999999982,
                    "velocity": 0.31496062992125984,
                    "duration": 0.2739724999999993
                },
                {
                    "name": "G3",
                    "midi": 55,
                    "time": 14.520542499999982,
                    "velocity": 0.33070866141732286,
                    "duration": 0.2739724999999993
                },
                {
                    "name": "A3",
                    "midi": 57,
                    "time": 14.794514999999981,
                    "velocity": 0.4094488188976378,
                    "duration": 0.2739724999999993
                },
                {
                    "name": "F#3",
                    "midi": 54,
                    "time": 15.06848749999998,
                    "velocity": 0.3700787401574803,
                    "duration": 0.2739724999999993
                },
                {
                    "name": "G3",
                    "midi": 55,
                    "time": 15.34245999999998,
                    "velocity": 0.3700787401574803,
                    "duration": 0.2739724999999993
                },
                {
                    "name": "D3",
                    "midi": 50,
                    "time": 15.616432499999979,
                    "velocity": 0.4409448818897638,
                    "duration": 0.5479450000000003
                },
                {
                    "name": "F#3",
                    "midi": 54,
                    "time": 15.616432499999979,
                    "velocity": 0.4409448818897638,
                    "duration": 0.5479450000000003
                },
                {
                    "name": "D4",
                    "midi": 62,
                    "time": 16.43834999999998,
                    "velocity": 0.5275590551181102,
                    "duration": 0.5479449999999986
                },
                {
                    "name": "D3",
                    "midi": 50,
                    "time": 16.43834999999998,
                    "velocity": 0.44881889763779526,
                    "duration": 0.5479449999999986
                },
                {
                    "name": "C3",
                    "midi": 48,
                    "time": 16.986294999999977,
                    "velocity": 0.4015748031496063,
                    "duration": 0.2739724999999993
                },
                {
                    "name": "C4",
                    "midi": 60,
                    "time": 16.986294999999977,
                    "velocity": 0.4881889763779528,
                    "duration": 0.2739724999999993
                },
                {
                    "name": "B2",
                    "midi": 47,
                    "time": 17.260267499999976,
                    "velocity": 0.47244094488188976,
                    "duration": 0.2739724999999993
                },
                {
                    "name": "B3",
                    "midi": 59,
                    "time": 17.260267499999976,
                    "velocity": 0.5669291338582677,
                    "duration": 0.2739724999999993
                },
                {
                    "name": "A2",
                    "midi": 45,
                    "time": 17.534239999999976,
                    "velocity": 0.4251968503937008,
                    "duration": 0.2739724999999993
                },
                {
                    "name": "A3",
                    "midi": 57,
                    "time": 17.534239999999976,
                    "velocity": 0.5039370078740157,
                    "duration": 0.2739724999999993
                },
                {
                    "name": "G2",
                    "midi": 43,
                    "time": 17.808212499999975,
                    "velocity": 0.4409448818897638,
                    "duration": 0.2739724999999993
                },
                {
                    "name": "G3",
                    "midi": 55,
                    "time": 17.808212499999975,
                    "velocity": 0.5196850393700787,
                    "duration": 0.2739724999999993
                },
                {
                    "name": "F#2",
                    "midi": 42,
                    "time": 18.082184999999974,
                    "velocity": 0.4881889763779528,
                    "duration": 0.5479449999999986
                },
                {
                    "name": "F#3",
                    "midi": 54,
                    "time": 18.082184999999974,
                    "velocity": 0.5748031496062992,
                    "duration": 0.5479449999999986
                },
                {
                    "name": "G2",
                    "midi": 43,
                    "time": 18.630129999999973,
                    "velocity": 0.3858267716535433,
                    "duration": 0.2739724999999993
                },
                {
                    "name": "G3",
                    "midi": 55,
                    "time": 18.630129999999973,
                    "velocity": 0.4645669291338583,
                    "duration": 0.2739724999999993
                },
                {
                    "name": "D2",
                    "midi": 38,
                    "time": 18.904102499999972,
                    "velocity": 0.4251968503937008,
                    "duration": 0.5479449999999986
                },
                {
                    "name": "D3",
                    "midi": 50,
                    "time": 18.904102499999972,
                    "velocity": 0.5039370078740157,
                    "duration": 0.5479449999999986
                },
                {
                    "name": "G4",
                    "midi": 67,
                    "time": 19.72601999999997,
                    "velocity": 0.25196850393700787,
                    "duration": 0.13698624999999964
                },
                {
                    "name": "B4",
                    "midi": 71,
                    "time": 19.86300624999997,
                    "velocity": 0.2204724409448819,
                    "duration": 0.13698624999999964
                },
                {
                    "name": "G4",
                    "midi": 67,
                    "time": 19.99999249999997,
                    "velocity": 0.25196850393700787,
                    "duration": 0.13698624999999964
                },
                {
                    "name": "B4",
                    "midi": 71,
                    "time": 20.13697874999997,
                    "velocity": 0.23622047244094488,
                    "duration": 0.13698624999999964
                },
                {
                    "name": "G4",
                    "midi": 67,
                    "time": 20.27396499999997,
                    "velocity": 0.2677165354330709,
                    "duration": 0.13698624999999964
                },
                {
                    "name": "B4",
                    "midi": 71,
                    "time": 20.410951249999968,
                    "velocity": 0.2440944881889764,
                    "duration": 0.13698624999999964
                },
                {
                    "name": "G4",
                    "midi": 67,
                    "time": 20.547937499999968,
                    "velocity": 0.28346456692913385,
                    "duration": 0.13698624999999964
                },
                {
                    "name": "B4",
                    "midi": 71,
                    "time": 20.684923749999967,
                    "velocity": 0.25196850393700787,
                    "duration": 0.13698624999999964
                },
                {
                    "name": "G4",
                    "midi": 67,
                    "time": 20.821909999999967,
                    "velocity": 0.28346456692913385,
                    "duration": 0.13698624999999964
                },
                {
                    "name": "B4",
                    "midi": 71,
                    "time": 20.958896249999967,
                    "velocity": 0.25196850393700787,
                    "duration": 0.13698624999999964
                },
                {
                    "name": "G4",
                    "midi": 67,
                    "time": 21.095882499999966,
                    "velocity": 0.2755905511811024,
                    "duration": 0.13698624999999964
                },
                {
                    "name": "B4",
                    "midi": 71,
                    "time": 21.232868749999966,
                    "velocity": 0.23622047244094488,
                    "duration": 0.13698624999999964
                },
                {
                    "name": "G4",
                    "midi": 67,
                    "time": 21.369854999999966,
                    "velocity": 0.28346456692913385,
                    "duration": 0.13698624999999964
                },
                {
                    "name": "C5",
                    "midi": 72,
                    "time": 21.506841249999965,
                    "velocity": 0.25196850393700787,
                    "duration": 0.13698624999999964
                },
                {
                    "name": "G4",
                    "midi": 67,
                    "time": 21.643827499999965,
                    "velocity": 0.28346456692913385,
                    "duration": 0.13698624999999964
                },
                {
                    "name": "C5",
                    "midi": 72,
                    "time": 21.780813749999965,
                    "velocity": 0.25196850393700787,
                    "duration": 0.13698624999999964
                },
                {
                    "name": "G4",
                    "midi": 67,
                    "time": 21.917799999999964,
                    "velocity": 0.30708661417322836,
                    "duration": 0.13698624999999964
                },
                {
                    "name": "C5",
                    "midi": 72,
                    "time": 22.054786249999964,
                    "velocity": 0.2677165354330709,
                    "duration": 0.13698624999999964
                },
                {
                    "name": "G4",
                    "midi": 67,
                    "time": 22.191772499999963,
                    "velocity": 0.2992125984251969,
                    "duration": 0.13698624999999964
                },
                {
                    "name": "B4",
                    "midi": 71,
                    "time": 22.328758749999963,
                    "velocity": 0.2125984251968504,
                    "duration": 0.13698624999999964
                },
                {
                    "name": "G4",
                    "midi": 67,
                    "time": 22.465744999999963,
                    "velocity": 0.25196850393700787,
                    "duration": 0.13698624999999964
                },
                {
                    "name": "B4",
                    "midi": 71,
                    "time": 22.602731249999962,
                    "velocity": 0.1968503937007874,
                    "duration": 0.13698624999999964
                },
                {
                    "name": "G4",
                    "midi": 67,
                    "time": 22.739717499999962,
                    "velocity": 0.23622047244094488,
                    "duration": 0.13698624999999964
                },
                {
                    "name": "B4",
                    "midi": 71,
                    "time": 22.87670374999996,
                    "velocity": 0.1968503937007874,
                    "duration": 0.13698624999999964
                },
                {
                    "name": "D4",
                    "midi": 62,
                    "time": 23.01368999999996,
                    "velocity": 0.3700787401574803,
                    "duration": 0.13698624999999964
                },
                {
                    "name": "A4",
                    "midi": 69,
                    "time": 23.15067624999996,
                    "velocity": 0.3228346456692913,
                    "duration": 0.13698624999999964
                },
                {
                    "name": "D4",
                    "midi": 62,
                    "time": 23.28766249999996,
                    "velocity": 0.3700787401574803,
                    "duration": 0.13698624999999964
                },
                {
                    "name": "A4",
                    "midi": 69,
                    "time": 23.42464874999996,
                    "velocity": 0.3228346456692913,
                    "duration": 0.13698624999999964
                },
                {
                    "name": "D4",
                    "midi": 62,
                    "time": 23.56163499999996,
                    "velocity": 0.3700787401574803,
                    "duration": 0.13698624999999964
                },
                {
                    "name": "A4",
                    "midi": 69,
                    "time": 23.69862124999996,
                    "velocity": 0.3228346456692913,
                    "duration": 0.13698624999999964
                },
                {
                    "name": "G4",
                    "midi": 67,
                    "time": 23.83560749999996,
                    "velocity": 0.4251968503937008,
                    "duration": 0.13698624999999964
                },
                {
                    "name": "A4",
                    "midi": 69,
                    "time": 24.10957999999996,
                    "velocity": 0.3858267716535433,
                    "duration": 0.13698624999999964
                },
                {
                    "name": "B4",
                    "midi": 71,
                    "time": 24.383552499999958,
                    "velocity": 0.4330708661417323,
                    "duration": 0.13698624999999964
                },
                {
                    "name": "C4",
                    "midi": 60,
                    "time": 24.657524999999957,
                    "velocity": 0.47244094488188976,
                    "duration": 0.5479449999999986
                },
                {
                    "name": "D4",
                    "midi": 62,
                    "time": 25.205469999999956,
                    "velocity": 0.4015748031496063,
                    "duration": 0.2739724999999993
                },
                {
                    "name": "G3",
                    "midi": 55,
                    "time": 25.479442499999955,
                    "velocity": 0.44881889763779526,
                    "duration": 0.2739724999999993
                },
                {
                    "name": "D3",
                    "midi": 50,
                    "time": 25.753414999999954,
                    "velocity": 0.4251968503937008,
                    "duration": 0.13698624999999964
                },
                {
                    "name": "G2",
                    "midi": 43,
                    "time": 26.027387499999953,
                    "velocity": 0.4330708661417323,
                    "duration": 0.13698624999999964
                },
                {
                    "name": "D3",
                    "midi": 50,
                    "time": 26.301359999999953,
                    "velocity": 0.31496062992125984,
                    "duration": 0.8219174999999979
                },
                {
                    "name": "C4",
                    "midi": 60,
                    "time": 26.84930499999995,
                    "velocity": 0.30708661417322836,
                    "duration": 0.2739724999999993
                },
                {
                    "name": "B3",
                    "midi": 59,
                    "time": 27.12327749999995,
                    "velocity": 0.3543307086614173,
                    "duration": 0.2739724999999993
                },
                {
                    "name": "F#3",
                    "midi": 54,
                    "time": 27.39724999999995,
                    "velocity": 0.31496062992125984,
                    "duration": 0.2739724999999993
                },
                {
                    "name": "G3",
                    "midi": 55,
                    "time": 27.67122249999995,
                    "velocity": 0.33070866141732286,
                    "duration": 0.2739724999999993
                },
                {
                    "name": "A3",
                    "midi": 57,
                    "time": 27.94519499999995,
                    "velocity": 0.4094488188976378,
                    "duration": 0.2739724999999993
                },
                {
                    "name": "F#3",
                    "midi": 54,
                    "time": 28.219167499999948,
                    "velocity": 0.3700787401574803,
                    "duration": 0.2739724999999993
                },
                {
                    "name": "G3",
                    "midi": 55,
                    "time": 28.493139999999947,
                    "velocity": 0.3700787401574803,
                    "duration": 0.2739724999999993
                },
                {
                    "name": "D3",
                    "midi": 50,
                    "time": 28.767112499999946,
                    "velocity": 0.4409448818897638,
                    "duration": 0.5479449999999986
                },
                {
                    "name": "F#3",
                    "midi": 54,
                    "time": 28.767112499999946,
                    "velocity": 0.4409448818897638,
                    "duration": 0.5479449999999986
                },
                {
                    "name": "D4",
                    "midi": 62,
                    "time": 29.589029999999944,
                    "velocity": 0.5275590551181102,
                    "duration": 0.5479449999999986
                },
                {
                    "name": "D3",
                    "midi": 50,
                    "time": 29.589029999999944,
                    "velocity": 0.44881889763779526,
                    "duration": 0.5479449999999986
                },
                {
                    "name": "C3",
                    "midi": 48,
                    "time": 30.136974999999943,
                    "velocity": 0.4015748031496063,
                    "duration": 0.2739724999999993
                },
                {
                    "name": "C4",
                    "midi": 60,
                    "time": 30.136974999999943,
                    "velocity": 0.4881889763779528,
                    "duration": 0.2739724999999993
                },
                {
                    "name": "B2",
                    "midi": 47,
                    "time": 30.410947499999942,
                    "velocity": 0.47244094488188976,
                    "duration": 0.2739724999999993
                },
                {
                    "name": "B3",
                    "midi": 59,
                    "time": 30.410947499999942,
                    "velocity": 0.5669291338582677,
                    "duration": 0.2739724999999993
                },
                {
                    "name": "A2",
                    "midi": 45,
                    "time": 30.68491999999994,
                    "velocity": 0.4251968503937008,
                    "duration": 0.2739724999999993
                },
                {
                    "name": "A3",
                    "midi": 57,
                    "time": 30.68491999999994,
                    "velocity": 0.5039370078740157,
                    "duration": 0.2739724999999993
                },
                {
                    "name": "G2",
                    "midi": 43,
                    "time": 30.95889249999994,
                    "velocity": 0.4409448818897638,
                    "duration": 0.2739724999999993
                },
                {
                    "name": "G3",
                    "midi": 55,
                    "time": 30.95889249999994,
                    "velocity": 0.5196850393700787,
                    "duration": 0.2739724999999993
                },
                {
                    "name": "F#2",
                    "midi": 42,
                    "time": 31.23286499999994,
                    "velocity": 0.4881889763779528,
                    "duration": 0.5479449999999986
                },
                {
                    "name": "F#3",
                    "midi": 54,
                    "time": 31.23286499999994,
                    "velocity": 0.5748031496062992,
                    "duration": 0.5479449999999986
                },
                {
                    "name": "G2",
                    "midi": 43,
                    "time": 31.78080999999994,
                    "velocity": 0.3858267716535433,
                    "duration": 0.2739724999999993
                },
                {
                    "name": "G3",
                    "midi": 55,
                    "time": 31.78080999999994,
                    "velocity": 0.4645669291338583,
                    "duration": 0.2739724999999993
                },
                {
                    "name": "D2",
                    "midi": 38,
                    "time": 32.05478249999994,
                    "velocity": 0.4251968503937008,
                    "duration": 0.5479449999999986
                },
                {
                    "name": "D3",
                    "midi": 50,
                    "time": 32.05478249999994,
                    "velocity": 0.5039370078740157,
                    "duration": 0.5479449999999986
                },
                {
                    "name": "G4",
                    "midi": 67,
                    "time": 32.876699999999936,
                    "velocity": 0.25196850393700787,
                    "duration": 0.13698624999999964
                },
                {
                    "name": "B4",
                    "midi": 71,
                    "time": 33.013686249999935,
                    "velocity": 0.2204724409448819,
                    "duration": 0.13698624999999964
                },
                {
                    "name": "G4",
                    "midi": 67,
                    "time": 33.150672499999935,
                    "velocity": 0.25196850393700787,
                    "duration": 0.13698624999999964
                },
                {
                    "name": "B4",
                    "midi": 71,
                    "time": 33.287658749999935,
                    "velocity": 0.23622047244094488,
                    "duration": 0.13698624999999964
                },
                {
                    "name": "G4",
                    "midi": 67,
                    "time": 33.424644999999934,
                    "velocity": 0.2677165354330709,
                    "duration": 0.13698624999999964
                },
                {
                    "name": "B4",
                    "midi": 71,
                    "time": 33.561631249999934,
                    "velocity": 0.2440944881889764,
                    "duration": 0.13698624999999964
                },
                {
                    "name": "G4",
                    "midi": 67,
                    "time": 33.69861749999993,
                    "velocity": 0.28346456692913385,
                    "duration": 0.13698624999999964
                },
                {
                    "name": "B4",
                    "midi": 71,
                    "time": 33.83560374999993,
                    "velocity": 0.25196850393700787,
                    "duration": 0.13698624999999964
                },
                {
                    "name": "G4",
                    "midi": 67,
                    "time": 33.97258999999993,
                    "velocity": 0.28346456692913385,
                    "duration": 0.13698624999999964
                },
                {
                    "name": "B4",
                    "midi": 71,
                    "time": 34.10957624999993,
                    "velocity": 0.25196850393700787,
                    "duration": 0.13698624999999964
                },
                {
                    "name": "G4",
                    "midi": 67,
                    "time": 34.24656249999993,
                    "velocity": 0.2755905511811024,
                    "duration": 0.13698624999999964
                },
                {
                    "name": "B4",
                    "midi": 71,
                    "time": 34.38354874999993,
                    "velocity": 0.23622047244094488,
                    "duration": 0.13698624999999964
                },
                {
                    "name": "G4",
                    "midi": 67,
                    "time": 34.52053499999993,
                    "velocity": 0.28346456692913385,
                    "duration": 0.13698624999999964
                },
                {
                    "name": "C5",
                    "midi": 72,
                    "time": 34.65752124999993,
                    "velocity": 0.25196850393700787,
                    "duration": 0.13698624999999964
                },
                {
                    "name": "G4",
                    "midi": 67,
                    "time": 34.79450749999993,
                    "velocity": 0.28346456692913385,
                    "duration": 0.13698624999999964
                },
                {
                    "name": "C5",
                    "midi": 72,
                    "time": 34.93149374999993,
                    "velocity": 0.25196850393700787,
                    "duration": 0.13698624999999964
                },
                {
                    "name": "G4",
                    "midi": 67,
                    "time": 35.06847999999993,
                    "velocity": 0.30708661417322836,
                    "duration": 0.13698624999999964
                },
                {
                    "name": "C5",
                    "midi": 72,
                    "time": 35.20546624999993,
                    "velocity": 0.2677165354330709,
                    "duration": 0.13698624999999964
                },
                {
                    "name": "G4",
                    "midi": 67,
                    "time": 35.34245249999993,
                    "velocity": 0.2992125984251969,
                    "duration": 0.13698624999999964
                },
                {
                    "name": "B4",
                    "midi": 71,
                    "time": 35.47943874999993,
                    "velocity": 0.2125984251968504,
                    "duration": 0.13698624999999964
                },
                {
                    "name": "G4",
                    "midi": 67,
                    "time": 35.61642499999993,
                    "velocity": 0.25196850393700787,
                    "duration": 0.13698624999999964
                },
                {
                    "name": "B4",
                    "midi": 71,
                    "time": 35.75341124999993,
                    "velocity": 0.1968503937007874,
                    "duration": 0.13698624999999964
                },
                {
                    "name": "G4",
                    "midi": 67,
                    "time": 35.89039749999993,
                    "velocity": 0.23622047244094488,
                    "duration": 0.13698624999999964
                },
                {
                    "name": "B4",
                    "midi": 71,
                    "time": 36.02738374999993,
                    "velocity": 0.1968503937007874,
                    "duration": 0.13698624999999964
                },
                {
                    "name": "D4",
                    "midi": 62,
                    "time": 36.16436999999993,
                    "velocity": 0.3700787401574803,
                    "duration": 0.13698624999999964
                },
                {
                    "name": "A4",
                    "midi": 69,
                    "time": 36.30135624999993,
                    "velocity": 0.3228346456692913,
                    "duration": 0.13698624999999964
                },
                {
                    "name": "D4",
                    "midi": 62,
                    "time": 36.438342499999926,
                    "velocity": 0.3700787401574803,
                    "duration": 0.13698624999999964
                },
                {
                    "name": "A4",
                    "midi": 69,
                    "time": 36.575328749999926,
                    "velocity": 0.3228346456692913,
                    "duration": 0.13698624999999964
                },
                {
                    "name": "D4",
                    "midi": 62,
                    "time": 36.712314999999926,
                    "velocity": 0.3700787401574803,
                    "duration": 0.13698624999999964
                },
                {
                    "name": "A4",
                    "midi": 69,
                    "time": 36.849301249999925,
                    "velocity": 0.3228346456692913,
                    "duration": 0.13698624999999964
                },
                {
                    "name": "G4",
                    "midi": 67,
                    "time": 36.986287499999925,
                    "velocity": 0.4251968503937008,
                    "duration": 0.13698624999999964
                },
                {
                    "name": "A4",
                    "midi": 69,
                    "time": 37.260259999999924,
                    "velocity": 0.3858267716535433,
                    "duration": 0.13698624999999964
                },
                {
                    "name": "B4",
                    "midi": 71,
                    "time": 37.53423249999992,
                    "velocity": 0.4330708661417323,
                    "duration": 0.13698624999999964
                },
                {
                    "name": "C4",
                    "midi": 60,
                    "time": 37.80820499999992,
                    "velocity": 0.47244094488188976,
                    "duration": 0.5479449999999986
                },
                {
                    "name": "D4",
                    "midi": 62,
                    "time": 38.35614999999992,
                    "velocity": 0.4015748031496063,
                    "duration": 0.2739724999999993
                },
                {
                    "name": "G3",
                    "midi": 55,
                    "time": 38.63012249999992,
                    "velocity": 0.44881889763779526,
                    "duration": 0.2739724999999993
                },
                {
                    "name": "D3",
                    "midi": 50,
                    "time": 38.90409499999992,
                    "velocity": 0.4251968503937008,
                    "duration": 0.13698624999999964
                },
                {
                    "name": "G2",
                    "midi": 43,
                    "time": 39.17806749999992,
                    "velocity": 0.4330708661417323,
                    "duration": 0.2739724999999993
                }
            ],
            "controlChanges": {},
            "id": 2,
            "name": "Piano left",
            "instrumentNumber": 0,
            "instrument": "acoustic grand piano",
            "instrumentFamily": "piano",
            "channelNumber": 0,
            "isPercussion": false
        },
        {
            "startTime": 0,
            "duration": 0,
            "length": 0,
            "notes": [],
            "controlChanges": {
                "64": [
                    {
                        "number": 64,
                        "time": 0.05707760416666667,
                        "value": 1
                    },
                    {
                        "number": 64,
                        "time": 1.6529674166666668,
                        "value": 0
                    },
                    {
                        "number": 64,
                        "time": 1.7808212500000002,
                        "value": 1
                    },
                    {
                        "number": 64,
                        "time": 2.4737433645833335,
                        "value": 0
                    },
                    {
                        "number": 64,
                        "time": 2.5627844270833338,
                        "value": 1
                    },
                    {
                        "number": 64,
                        "time": 3.2876700000000003,
                        "value": 0
                    },
                    {
                        "number": 64,
                        "time": 3.384701927083334,
                        "value": 1
                    },
                    {
                        "number": 64,
                        "time": 4.109587500000001,
                        "value": 0
                    },
                    {
                        "number": 64,
                        "time": 4.931505000000001,
                        "value": 1
                    },
                    {
                        "number": 64,
                        "time": 5.493148625000002,
                        "value": 0
                    },
                    {
                        "number": 64,
                        "time": 5.592463656250001,
                        "value": 1
                    },
                    {
                        "number": 64,
                        "time": 5.753422500000001,
                        "value": 0
                    },
                    {
                        "number": 64,
                        "time": 6.632417604166668,
                        "value": 1
                    },
                    {
                        "number": 64,
                        "time": 8.228307416666668,
                        "value": 0
                    },
                    {
                        "number": 64,
                        "time": 8.356161250000001,
                        "value": 1
                    },
                    {
                        "number": 64,
                        "time": 9.049083364583336,
                        "value": 0
                    },
                    {
                        "number": 64,
                        "time": 9.138124427083335,
                        "value": 1
                    },
                    {
                        "number": 64,
                        "time": 9.863010000000003,
                        "value": 0
                    },
                    {
                        "number": 64,
                        "time": 9.960041927083337,
                        "value": 1
                    },
                    {
                        "number": 64,
                        "time": 10.684927500000004,
                        "value": 0
                    },
                    {
                        "number": 64,
                        "time": 11.506845000000004,
                        "value": 1
                    },
                    {
                        "number": 64,
                        "time": 12.068488625000004,
                        "value": 0
                    },
                    {
                        "number": 64,
                        "time": 12.167803656250005,
                        "value": 1
                    },
                    {
                        "number": 64,
                        "time": 12.328762500000005,
                        "value": 0
                    },
                    {
                        "number": 64,
                        "time": 13.198625187500005,
                        "value": 1
                    },
                    {
                        "number": 64,
                        "time": 13.972597500000004,
                        "value": 0
                    },
                    {
                        "number": 64,
                        "time": 14.061638562500004,
                        "value": 1
                    },
                    {
                        "number": 64,
                        "time": 14.257985520833337,
                        "value": 0
                    },
                    {
                        "number": 64,
                        "time": 14.35159279166667,
                        "value": 1
                    },
                    {
                        "number": 64,
                        "time": 14.53652422916667,
                        "value": 0
                    },
                    {
                        "number": 64,
                        "time": 14.609583562500003,
                        "value": 1
                    },
                    {
                        "number": 64,
                        "time": 14.794515000000002,
                        "value": 0
                    },
                    {
                        "number": 64,
                        "time": 14.867574333333335,
                        "value": 1
                    },
                    {
                        "number": 64,
                        "time": 15.359583281250002,
                        "value": 0
                    },
                    {
                        "number": 64,
                        "time": 15.431501062500002,
                        "value": 1
                    },
                    {
                        "number": 64,
                        "time": 15.616432500000002,
                        "value": 0
                    },
                    {
                        "number": 64,
                        "time": 15.737437020833335,
                        "value": 1
                    },
                    {
                        "number": 64,
                        "time": 16.43835,
                        "value": 0
                    },
                    {
                        "number": 64,
                        "time": 16.543372791666666,
                        "value": 1
                    },
                    {
                        "number": 64,
                        "time": 17.2602675,
                        "value": 0
                    },
                    {
                        "number": 64,
                        "time": 17.349308562500003,
                        "value": 1
                    },
                    {
                        "number": 64,
                        "time": 17.545655520833336,
                        "value": 0
                    },
                    {
                        "number": 64,
                        "time": 17.63926279166667,
                        "value": 1
                    },
                    {
                        "number": 64,
                        "time": 17.82419422916667,
                        "value": 0
                    },
                    {
                        "number": 64,
                        "time": 17.897253562500005,
                        "value": 1
                    },
                    {
                        "number": 64,
                        "time": 18.082185000000006,
                        "value": 0
                    },
                    {
                        "number": 64,
                        "time": 18.15524433333334,
                        "value": 1
                    },
                    {
                        "number": 64,
                        "time": 18.647253281250006,
                        "value": 0
                    },
                    {
                        "number": 64,
                        "time": 18.719171062500006,
                        "value": 1
                    },
                    {
                        "number": 64,
                        "time": 18.904102500000008,
                        "value": 0
                    },
                    {
                        "number": 64,
                        "time": 19.025107020833342,
                        "value": 1
                    },
                    {
                        "number": 64,
                        "time": 19.72602000000001,
                        "value": 0
                    },
                    {
                        "number": 64,
                        "time": 19.82305192708334,
                        "value": 1
                    },
                    {
                        "number": 64,
                        "time": 21.378987416666675,
                        "value": 0
                    },
                    {
                        "number": 64,
                        "time": 21.506841250000008,
                        "value": 1
                    },
                    {
                        "number": 64,
                        "time": 22.19976336458334,
                        "value": 0
                    },
                    {
                        "number": 64,
                        "time": 22.288804427083342,
                        "value": 1
                    },
                    {
                        "number": 64,
                        "time": 23.013690000000008,
                        "value": 0
                    },
                    {
                        "number": 64,
                        "time": 23.11072192708334,
                        "value": 1
                    },
                    {
                        "number": 64,
                        "time": 23.835607500000005,
                        "value": 0
                    },
                    {
                        "number": 64,
                        "time": 24.657525000000007,
                        "value": 1
                    },
                    {
                        "number": 64,
                        "time": 25.219168625000005,
                        "value": 0
                    },
                    {
                        "number": 64,
                        "time": 25.318483656250006,
                        "value": 1
                    },
                    {
                        "number": 64,
                        "time": 25.479442500000005,
                        "value": 0
                    },
                    {
                        "number": 64,
                        "time": 26.349305187500004,
                        "value": 1
                    },
                    {
                        "number": 64,
                        "time": 27.123277500000004,
                        "value": 0
                    },
                    {
                        "number": 64,
                        "time": 27.212318562500005,
                        "value": 1
                    },
                    {
                        "number": 64,
                        "time": 27.40866552083334,
                        "value": 0
                    },
                    {
                        "number": 64,
                        "time": 27.502272791666673,
                        "value": 1
                    },
                    {
                        "number": 64,
                        "time": 27.687204229166674,
                        "value": 0
                    },
                    {
                        "number": 64,
                        "time": 27.760263562500008,
                        "value": 1
                    },
                    {
                        "number": 64,
                        "time": 27.94519500000001,
                        "value": 0
                    },
                    {
                        "number": 64,
                        "time": 28.018254333333342,
                        "value": 1
                    },
                    {
                        "number": 64,
                        "time": 28.51026328125001,
                        "value": 0
                    },
                    {
                        "number": 64,
                        "time": 28.58218106250001,
                        "value": 1
                    },
                    {
                        "number": 64,
                        "time": 28.76711250000001,
                        "value": 0
                    },
                    {
                        "number": 64,
                        "time": 28.888117020833345,
                        "value": 1
                    },
                    {
                        "number": 64,
                        "time": 29.58903000000001,
                        "value": 0
                    },
                    {
                        "number": 64,
                        "time": 29.694052791666678,
                        "value": 1
                    },
                    {
                        "number": 64,
                        "time": 30.410947500000013,
                        "value": 0
                    },
                    {
                        "number": 64,
                        "time": 30.499988562500015,
                        "value": 1
                    },
                    {
                        "number": 64,
                        "time": 30.696335520833347,
                        "value": 0
                    },
                    {
                        "number": 64,
                        "time": 30.789942791666682,
                        "value": 1
                    },
                    {
                        "number": 64,
                        "time": 30.974874229166684,
                        "value": 0
                    },
                    {
                        "number": 64,
                        "time": 31.047933562500017,
                        "value": 1
                    },
                    {
                        "number": 64,
                        "time": 31.232865000000018,
                        "value": 0
                    },
                    {
                        "number": 64,
                        "time": 31.30592433333335,
                        "value": 1
                    },
                    {
                        "number": 64,
                        "time": 31.797933281250018,
                        "value": 0
                    },
                    {
                        "number": 64,
                        "time": 31.869851062500018,
                        "value": 1
                    },
                    {
                        "number": 64,
                        "time": 32.054782500000016,
                        "value": 0
                    },
                    {
                        "number": 64,
                        "time": 32.17578702083335,
                        "value": 1
                    },
                    {
                        "number": 64,
                        "time": 32.876700000000014,
                        "value": 0
                    },
                    {
                        "number": 64,
                        "time": 32.98971365625001,
                        "value": 1
                    },
                    {
                        "number": 64,
                        "time": 34.529667416666676,
                        "value": 0
                    },
                    {
                        "number": 64,
                        "time": 34.65752125000001,
                        "value": 1
                    },
                    {
                        "number": 64,
                        "time": 35.35044336458334,
                        "value": 0
                    },
                    {
                        "number": 64,
                        "time": 35.43948442708334,
                        "value": 1
                    },
                    {
                        "number": 64,
                        "time": 36.16437000000001,
                        "value": 0
                    },
                    {
                        "number": 64,
                        "time": 36.26140192708335,
                        "value": 1
                    },
                    {
                        "number": 64,
                        "time": 36.98628750000002,
                        "value": 0
                    },
                    {
                        "number": 64,
                        "time": 37.808205000000015,
                        "value": 1
                    },
                    {
                        "number": 64,
                        "time": 38.36984862500002,
                        "value": 0
                    },
                    {
                        "number": 64,
                        "time": 38.46916365625002,
                        "value": 1
                    },
                    {
                        "number": 64,
                        "time": 38.63012250000002,
                        "value": 0
                    }
                ]
            },
            "id": 3,
            "name": "Pedale",
            "instrumentNumber": 0,
            "instrument": "acoustic grand piano",
            "instrumentFamily": "piano",
            "channelNumber": 0,
            "isPercussion": false
        },
        {
            "startTime": 0,
            "duration": 0,
            "length": 0,
            "notes": [],
            "controlChanges": {},
            "id": 4,
            "name": "Haydn: Sonata Hoboken XVI:8 4. movement"
        },
        {
            "startTime": 0,
            "duration": 0,
            "length": 0,
            "notes": [],
            "controlChanges": {},
            "id": 5,
            "name": "Copyright  2009 by Bernd Krueger"
        },
        {
            "startTime": 0,
            "duration": 0,
            "length": 0,
            "notes": [],
            "controlChanges": {},
            "id": 6,
            "name": "http://www.piano-midi.de/"
        },
        {
            "startTime": 0,
            "duration": 0,
            "length": 0,
            "notes": [],
            "controlChanges": {},
            "id": 7,
            "name": "Edition: 2011-11-16"
        },
        {
            "startTime": 0,
            "duration": 0,
            "length": 0,
            "notes": [],
            "controlChanges": {},
            "id": 8,
            "name": "Spur 8"
        },
        {
            "startTime": 0,
            "duration": 0,
            "length": 0,
            "notes": [],
            "controlChanges": {},
            "id": 9,
            "name": "Spur 9"
        },
        {
            "startTime": 0,
            "duration": 0,
            "length": 0,
            "notes": [],
            "controlChanges": {},
            "id": 10,
            "name": "Spur 10"
        },
        {
            "startTime": 0,
            "duration": 0,
            "length": 0,
            "notes": [],
            "controlChanges": {},
            "id": 11,
            "name": "Spur 11"
        },
        {
            "startTime": 0,
            "duration": 0,
            "length": 0,
            "notes": [],
            "controlChanges": {},
            "id": 12,
            "name": "Spur 12"
        },
        {
            "startTime": 0,
            "duration": 0,
            "length": 0,
            "notes": [],
            "controlChanges": {},
            "id": 13,
            "name": "Spur 13"
        },
        {
            "startTime": 0,
            "duration": 0,
            "length": 0,
            "notes": [],
            "controlChanges": {},
            "id": 14,
            "name": "Spur 14"
        },
        {
            "startTime": 0,
            "duration": 0,
            "length": 0,
            "notes": [],
            "controlChanges": {},
            "id": 15,
            "name": "Spur 15"
        },
        {
            "startTime": 0,
            "duration": 0,
            "length": 0,
            "notes": [],
            "controlChanges": {},
            "id": 16,
            "name": "Spur 16"
        }
    ]
}