{
    "header": {
        "PPQ": 480,
        "timeSignature": [
            2,
            4
        ],
        "bpm": 88.87006160176436,
        "name": "Divertimento"
    },
    "startTime": 0,
    "duration": 62.09346432916673,
    "tracks": [
        {
            "startTime": 0,
            "duration": 0,
            "length": 0,
            "notes": [],
            "controlChanges": {},
            "id": 0,
            "name": "Divertimento"
        },
        {
            "startTime": 0,
            "duration": 61.438012999999806,
            "length": 348,
            "notes": [
                {
                    "name": "E4",
                    "midi": 64,
                    "time": 0,
                    "velocity": 0.5275590551181102,
                    "duration": 0.675143
                },
                {
                    "name": "G4",
                    "midi": 67,
                    "time": 0,
                    "velocity": 0.5275590551181102,
                    "duration": 0.675143
                },
                {
                    "name": "C5",
                    "midi": 72,
                    "time": 0,
                    "velocity": 0.6299212598425197,
                    "duration": 0.675143
                },
                {
                    "name": "D5",
                    "midi": 74,
                    "time": 0.675143,
                    "velocity": 0.5826771653543307,
                    "duration": 0.08439287500000003
                },
                {
                    "name": "B4",
                    "midi": 71,
                    "time": 0.675143,
                    "velocity": 0.49606299212598426,
                    "duration": 0.6751430000000003
                },
                {
                    "name": "G4",
                    "midi": 67,
                    "time": 0.675143,
                    "velocity": 0.49606299212598426,
                    "duration": 0.6751430000000003
                },
                {
                    "name": "E5",
                    "midi": 76,
                    "time": 0.7595358750000001,
                    "velocity": 0.5196850393700787,
                    "duration": 0.08439287500000003
                },
                {
                    "name": "D5",
                    "midi": 74,
                    "time": 0.8439287500000001,
                    "velocity": 0.5590551181102362,
                    "duration": 0.08439287500000003
                },
                {
                    "name": "E5",
                    "midi": 76,
                    "time": 0.9283216250000002,
                    "velocity": 0.49606299212598426,
                    "duration": 0.08439287500000003
                },
                {
                    "name": "D5",
                    "midi": 74,
                    "time": 1.0127145000000002,
                    "velocity": 0.5511811023622047,
                    "duration": 0.08439287500000003
                },
                {
                    "name": "E5",
                    "midi": 76,
                    "time": 1.0971073750000002,
                    "velocity": 0.4881889763779528,
                    "duration": 0.08439287500000003
                },
                {
                    "name": "D5",
                    "midi": 74,
                    "time": 1.1815002500000003,
                    "velocity": 0.5039370078740157,
                    "duration": 0.05626191666666669
                },
                {
                    "name": "E5",
                    "midi": 76,
                    "time": 1.237762166666667,
                    "velocity": 0.5039370078740157,
                    "duration": 0.05626191666666669
                },
                {
                    "name": "D5",
                    "midi": 74,
                    "time": 1.2940240833333336,
                    "velocity": 0.5039370078740157,
                    "duration": 0.05626191666666669
                },
                {
                    "name": "E5",
                    "midi": 76,
                    "time": 1.3502860000000003,
                    "velocity": 0.6456692913385826,
                    "duration": 0.675143
                },
                {
                    "name": "C5",
                    "midi": 72,
                    "time": 1.3502860000000003,
                    "velocity": 0.5511811023622047,
                    "duration": 0.675143
                },
                {
                    "name": "G4",
                    "midi": 67,
                    "time": 1.3502860000000003,
                    "velocity": 0.5511811023622047,
                    "duration": 0.675143
                },
                {
                    "name": "C5",
                    "midi": 72,
                    "time": 2.3630005000000005,
                    "velocity": 0.4330708661417323,
                    "duration": 0.08439287499999981
                },
                {
                    "name": "D5",
                    "midi": 74,
                    "time": 2.4473933750000003,
                    "velocity": 0.4409448818897638,
                    "duration": 0.08439287499999981
                },
                {
                    "name": "E5",
                    "midi": 76,
                    "time": 2.53178625,
                    "velocity": 0.4566929133858268,
                    "duration": 0.08439287499999981
                },
                {
                    "name": "F5",
                    "midi": 77,
                    "time": 2.616179125,
                    "velocity": 0.48031496062992124,
                    "duration": 0.08439287499999981
                },
                {
                    "name": "G5",
                    "midi": 79,
                    "time": 2.7005719999999998,
                    "velocity": 0.5354330708661418,
                    "duration": 0.33757150000000014
                },
                {
                    "name": "C6",
                    "midi": 84,
                    "time": 3.0381435,
                    "velocity": 0.4251968503937008,
                    "duration": 0.33757150000000014
                },
                {
                    "name": "B5",
                    "midi": 83,
                    "time": 3.375715,
                    "velocity": 0.48031496062992124,
                    "duration": 0.33757150000000014
                },
                {
                    "name": "A5",
                    "midi": 81,
                    "time": 3.7132865,
                    "velocity": 0.4251968503937008,
                    "duration": 0.3375714999999997
                },
                {
                    "name": "G5",
                    "midi": 79,
                    "time": 4.050858,
                    "velocity": 0.5118110236220472,
                    "duration": 0.6751430000000003
                },
                {
                    "name": "F5",
                    "midi": 77,
                    "time": 4.726001,
                    "velocity": 0.4251968503937008,
                    "duration": 0.08439287499999981
                },
                {
                    "name": "G5",
                    "midi": 79,
                    "time": 4.810393875,
                    "velocity": 0.4015748031496063,
                    "duration": 0.08439287499999981
                },
                {
                    "name": "F5",
                    "midi": 77,
                    "time": 4.89478675,
                    "velocity": 0.4251968503937008,
                    "duration": 0.08439287499999981
                },
                {
                    "name": "G5",
                    "midi": 79,
                    "time": 4.9791796249999996,
                    "velocity": 0.3937007874015748,
                    "duration": 0.08439287499999981
                },
                {
                    "name": "F5",
                    "midi": 77,
                    "time": 5.063572499999999,
                    "velocity": 0.4251968503937008,
                    "duration": 0.08439287499999981
                },
                {
                    "name": "G5",
                    "midi": 79,
                    "time": 5.147965374999999,
                    "velocity": 0.3779527559055118,
                    "duration": 0.08439287499999981
                },
                {
                    "name": "F5",
                    "midi": 77,
                    "time": 5.232358249999999,
                    "velocity": 0.41732283464566927,
                    "duration": 0.056261916666666245
                },
                {
                    "name": "G5",
                    "midi": 79,
                    "time": 5.288620166666665,
                    "velocity": 0.3858267716535433,
                    "duration": 0.056261916666666245
                },
                {
                    "name": "F5",
                    "midi": 77,
                    "time": 5.3448820833333315,
                    "velocity": 0.3937007874015748,
                    "duration": 0.056261916666666245
                },
                {
                    "name": "E5",
                    "midi": 76,
                    "time": 5.401143999999998,
                    "velocity": 0.5196850393700787,
                    "duration": 0.6751430000000003
                },
                {
                    "name": "E5",
                    "midi": 76,
                    "time": 6.076286999999998,
                    "velocity": 0.4645669291338583,
                    "duration": 0.16878574999999962
                },
                {
                    "name": "C5",
                    "midi": 72,
                    "time": 6.245072749999998,
                    "velocity": 0.3858267716535433,
                    "duration": 0.16878574999999962
                },
                {
                    "name": "G5",
                    "midi": 79,
                    "time": 6.413858499999997,
                    "velocity": 0.4645669291338583,
                    "duration": 0.16878574999999962
                },
                {
                    "name": "E5",
                    "midi": 76,
                    "time": 6.582644249999997,
                    "velocity": 0.4015748031496063,
                    "duration": 0.08439287499999981
                },
                {
                    "name": "E5",
                    "midi": 76,
                    "time": 6.7514299999999965,
                    "velocity": 0.4645669291338583,
                    "duration": 0.16878574999999962
                },
                {
                    "name": "D5",
                    "midi": 74,
                    "time": 6.920215749999996,
                    "velocity": 0.4015748031496063,
                    "duration": 0.16878574999999962
                },
                {
                    "name": "G5",
                    "midi": 79,
                    "time": 7.089001499999996,
                    "velocity": 0.4409448818897638,
                    "duration": 0.16878574999999962
                },
                {
                    "name": "D5",
                    "midi": 74,
                    "time": 7.257787249999995,
                    "velocity": 0.3700787401574803,
                    "duration": 0.08439287499999981
                },
                {
                    "name": "D5",
                    "midi": 74,
                    "time": 7.426572999999995,
                    "velocity": 0.4645669291338583,
                    "duration": 0.16878574999999962
                },
                {
                    "name": "C5",
                    "midi": 72,
                    "time": 7.595358749999995,
                    "velocity": 0.3779527559055118,
                    "duration": 0.16878574999999962
                },
                {
                    "name": "A5",
                    "midi": 81,
                    "time": 7.764144499999994,
                    "velocity": 0.44881889763779526,
                    "duration": 0.16878574999999962
                },
                {
                    "name": "C5",
                    "midi": 72,
                    "time": 7.932930249999994,
                    "velocity": 0.3858267716535433,
                    "duration": 0.08439287499999981
                },
                {
                    "name": "B4",
                    "midi": 71,
                    "time": 8.101715999999994,
                    "velocity": 0.4409448818897638,
                    "duration": 0.16878574999999962
                },
                {
                    "name": "G4",
                    "midi": 67,
                    "time": 8.270501749999994,
                    "velocity": 0.3700787401574803,
                    "duration": 0.16878574999999962
                },
                {
                    "name": "C5",
                    "midi": 72,
                    "time": 8.439287499999994,
                    "velocity": 0.4409448818897638,
                    "duration": 0.16878574999999962
                },
                {
                    "name": "G4",
                    "midi": 67,
                    "time": 8.608073249999993,
                    "velocity": 0.3779527559055118,
                    "duration": 0.16878574999999962
                },
                {
                    "name": "D5",
                    "midi": 74,
                    "time": 8.776858999999993,
                    "velocity": 0.44881889763779526,
                    "duration": 0.16878574999999962
                },
                {
                    "name": "G4",
                    "midi": 67,
                    "time": 8.945644749999992,
                    "velocity": 0.4094488188976378,
                    "duration": 0.16878574999999962
                },
                {
                    "name": "E5",
                    "midi": 76,
                    "time": 9.114430499999992,
                    "velocity": 0.4881889763779528,
                    "duration": 0.16878574999999962
                },
                {
                    "name": "G4",
                    "midi": 67,
                    "time": 9.283216249999992,
                    "velocity": 0.4330708661417323,
                    "duration": 0.16878574999999962
                },
                {
                    "name": "D5",
                    "midi": 74,
                    "time": 9.452001999999991,
                    "velocity": 0.49606299212598426,
                    "duration": 0.16878574999999962
                },
                {
                    "name": "G5",
                    "midi": 79,
                    "time": 9.620787749999991,
                    "velocity": 0.4330708661417323,
                    "duration": 0.0843928750000007
                },
                {
                    "name": "G5",
                    "midi": 79,
                    "time": 9.789573499999992,
                    "velocity": 0.4330708661417323,
                    "duration": 0.0843928750000007
                },
                {
                    "name": "G5",
                    "midi": 79,
                    "time": 9.958359249999994,
                    "velocity": 0.4330708661417323,
                    "duration": 0.0843928750000007
                },
                {
                    "name": "F#5",
                    "midi": 78,
                    "time": 10.127144999999995,
                    "velocity": 0.4645669291338583,
                    "duration": 0.16878574999999962
                },
                {
                    "name": "C6",
                    "midi": 84,
                    "time": 10.295930749999995,
                    "velocity": 0.4566929133858268,
                    "duration": 0.0843928750000007
                },
                {
                    "name": "C6",
                    "midi": 84,
                    "time": 10.464716499999996,
                    "velocity": 0.47244094488188976,
                    "duration": 0.0843928750000007
                },
                {
                    "name": "C6",
                    "midi": 84,
                    "time": 10.633502249999998,
                    "velocity": 0.4251968503937008,
                    "duration": 0.0843928750000007
                },
                {
                    "name": "C6",
                    "midi": 84,
                    "time": 10.802287999999999,
                    "velocity": 0.49606299212598426,
                    "duration": 0.16878574999999962
                },
                {
                    "name": "B5",
                    "midi": 83,
                    "time": 10.971073749999999,
                    "velocity": 0.4645669291338583,
                    "duration": 0.16878574999999962
                },
                {
                    "name": "A5",
                    "midi": 81,
                    "time": 11.139859499999998,
                    "velocity": 0.4409448818897638,
                    "duration": 0.16878574999999962
                },
                {
                    "name": "G5",
                    "midi": 79,
                    "time": 11.308645249999998,
                    "velocity": 0.3858267716535433,
                    "duration": 0.16878574999999962
                },
                {
                    "name": "A5",
                    "midi": 81,
                    "time": 11.477430999999997,
                    "velocity": 0.4251968503937008,
                    "duration": 0.0843928750000007
                },
                {
                    "name": "B5",
                    "midi": 83,
                    "time": 11.561823874999998,
                    "velocity": 0.4015748031496063,
                    "duration": 0.0843928750000007
                },
                {
                    "name": "A5",
                    "midi": 81,
                    "time": 11.646216749999999,
                    "velocity": 0.4251968503937008,
                    "duration": 0.0843928750000007
                },
                {
                    "name": "B5",
                    "midi": 83,
                    "time": 11.730609625,
                    "velocity": 0.3937007874015748,
                    "duration": 0.0843928750000007
                },
                {
                    "name": "A5",
                    "midi": 81,
                    "time": 11.8150025,
                    "velocity": 0.4251968503937008,
                    "duration": 0.0843928750000007
                },
                {
                    "name": "B5",
                    "midi": 83,
                    "time": 11.899395375000001,
                    "velocity": 0.3779527559055118,
                    "duration": 0.0843928750000007
                },
                {
                    "name": "A5",
                    "midi": 81,
                    "time": 11.983788250000002,
                    "velocity": 0.41732283464566927,
                    "duration": 0.05626191666666713
                },
                {
                    "name": "B5",
                    "midi": 83,
                    "time": 12.040050166666669,
                    "velocity": 0.3858267716535433,
                    "duration": 0.05626191666666713
                },
                {
                    "name": "A5",
                    "midi": 81,
                    "time": 12.096312083333336,
                    "velocity": 0.3937007874015748,
                    "duration": 0.05626191666666713
                },
                {
                    "name": "G5",
                    "midi": 79,
                    "time": 12.152574000000003,
                    "velocity": 0.5196850393700787,
                    "duration": 0.6751430000000003
                },
                {
                    "name": "E4",
                    "midi": 64,
                    "time": 13.502860000000004,
                    "velocity": 0.5275590551181102,
                    "duration": 0.6751430000000003
                },
                {
                    "name": "G4",
                    "midi": 67,
                    "time": 13.502860000000004,
                    "velocity": 0.5275590551181102,
                    "duration": 0.6751430000000003
                },
                {
                    "name": "C5",
                    "midi": 72,
                    "time": 13.502860000000004,
                    "velocity": 0.6299212598425197,
                    "duration": 0.6751430000000003
                },
                {
                    "name": "D5",
                    "midi": 74,
                    "time": 14.178003000000004,
                    "velocity": 0.5826771653543307,
                    "duration": 0.0843928750000007
                },
                {
                    "name": "B4",
                    "midi": 71,
                    "time": 14.178003000000004,
                    "velocity": 0.49606299212598426,
                    "duration": 0.6751430000000056
                },
                {
                    "name": "G4",
                    "midi": 67,
                    "time": 14.178003000000004,
                    "velocity": 0.49606299212598426,
                    "duration": 0.6751430000000056
                },
                {
                    "name": "E5",
                    "midi": 76,
                    "time": 14.262395875000005,
                    "velocity": 0.5196850393700787,
                    "duration": 0.0843928750000007
                },
                {
                    "name": "D5",
                    "midi": 74,
                    "time": 14.346788750000005,
                    "velocity": 0.5590551181102362,
                    "duration": 0.0843928750000007
                },
                {
                    "name": "E5",
                    "midi": 76,
                    "time": 14.431181625000006,
                    "velocity": 0.49606299212598426,
                    "duration": 0.0843928750000007
                },
                {
                    "name": "D5",
                    "midi": 74,
                    "time": 14.515574500000007,
                    "velocity": 0.5511811023622047,
                    "duration": 0.0843928750000007
                },
                {
                    "name": "E5",
                    "midi": 76,
                    "time": 14.599967375000007,
                    "velocity": 0.4881889763779528,
                    "duration": 0.0843928750000007
                },
                {
                    "name": "D5",
                    "midi": 74,
                    "time": 14.684360250000008,
                    "velocity": 0.5039370078740157,
                    "duration": 0.05626191666666713
                },
                {
                    "name": "E5",
                    "midi": 76,
                    "time": 14.740622166666675,
                    "velocity": 0.5039370078740157,
                    "duration": 0.05626191666666713
                },
                {
                    "name": "D5",
                    "midi": 74,
                    "time": 14.796884083333342,
                    "velocity": 0.5039370078740157,
                    "duration": 0.05626191666666713
                },
                {
                    "name": "E5",
                    "midi": 76,
                    "time": 14.85314600000001,
                    "velocity": 0.6456692913385826,
                    "duration": 0.6751430000000003
                },
                {
                    "name": "C5",
                    "midi": 72,
                    "time": 14.85314600000001,
                    "velocity": 0.5511811023622047,
                    "duration": 0.6751430000000003
                },
                {
                    "name": "G4",
                    "midi": 67,
                    "time": 14.85314600000001,
                    "velocity": 0.5511811023622047,
                    "duration": 0.6751430000000003
                },
                {
                    "name": "C5",
                    "midi": 72,
                    "time": 15.865860500000009,
                    "velocity": 0.4330708661417323,
                    "duration": 0.0843928750000007
                },
                {
                    "name": "D5",
                    "midi": 74,
                    "time": 15.95025337500001,
                    "velocity": 0.4409448818897638,
                    "duration": 0.08439287499999892
                },
                {
                    "name": "E5",
                    "midi": 76,
                    "time": 16.03464625000001,
                    "velocity": 0.4566929133858268,
                    "duration": 0.08439287499999892
                },
                {
                    "name": "F5",
                    "midi": 77,
                    "time": 16.119039125000008,
                    "velocity": 0.48031496062992124,
                    "duration": 0.08439287499999892
                },
                {
                    "name": "G5",
                    "midi": 79,
                    "time": 16.203432000000006,
                    "velocity": 0.5354330708661418,
                    "duration": 0.33757149999999925
                },
                {
                    "name": "C6",
                    "midi": 84,
                    "time": 16.541003500000006,
                    "velocity": 0.4251968503937008,
                    "duration": 0.33757149999999925
                },
                {
                    "name": "B5",
                    "midi": 83,
                    "time": 16.878575000000005,
                    "velocity": 0.48031496062992124,
                    "duration": 0.33757149999999925
                },
                {
                    "name": "A5",
                    "midi": 81,
                    "time": 17.216146500000004,
                    "velocity": 0.4251968503937008,
                    "duration": 0.33757149999999925
                },
                {
                    "name": "G5",
                    "midi": 79,
                    "time": 17.553718000000003,
                    "velocity": 0.5118110236220472,
                    "duration": 0.6751429999999985
                },
                {
                    "name": "F5",
                    "midi": 77,
                    "time": 18.228861000000002,
                    "velocity": 0.4251968503937008,
                    "duration": 0.08439287499999892
                },
                {
                    "name": "G5",
                    "midi": 79,
                    "time": 18.313253875,
                    "velocity": 0.4015748031496063,
                    "duration": 0.08439287499999892
                },
                {
                    "name": "F5",
                    "midi": 77,
                    "time": 18.39764675,
                    "velocity": 0.4251968503937008,
                    "duration": 0.08439287499999892
                },
                {
                    "name": "G5",
                    "midi": 79,
                    "time": 18.482039625,
                    "velocity": 0.3937007874015748,
                    "duration": 0.08439287499999892
                },
                {
                    "name": "F5",
                    "midi": 77,
                    "time": 18.566432499999998,
                    "velocity": 0.4251968503937008,
                    "duration": 0.08439287499999892
                },
                {
                    "name": "G5",
                    "midi": 79,
                    "time": 18.650825374999997,
                    "velocity": 0.3779527559055118,
                    "duration": 0.08439287499999892
                },
                {
                    "name": "F5",
                    "midi": 77,
                    "time": 18.735218249999996,
                    "velocity": 0.41732283464566927,
                    "duration": 0.05626191666666713
                },
                {
                    "name": "G5",
                    "midi": 79,
                    "time": 18.791480166666663,
                    "velocity": 0.3858267716535433,
                    "duration": 0.05626191666666713
                },
                {
                    "name": "F5",
                    "midi": 77,
                    "time": 18.84774208333333,
                    "velocity": 0.3937007874015748,
                    "duration": 0.05626191666666713
                },
                {
                    "name": "E5",
                    "midi": 76,
                    "time": 18.904003999999997,
                    "velocity": 0.5196850393700787,
                    "duration": 0.6751429999999985
                },
                {
                    "name": "E5",
                    "midi": 76,
                    "time": 19.579146999999995,
                    "velocity": 0.4645669291338583,
                    "duration": 0.1687857500000014
                },
                {
                    "name": "C5",
                    "midi": 72,
                    "time": 19.747932749999997,
                    "velocity": 0.3858267716535433,
                    "duration": 0.1687857500000014
                },
                {
                    "name": "G5",
                    "midi": 79,
                    "time": 19.916718499999998,
                    "velocity": 0.4645669291338583,
                    "duration": 0.1687857500000014
                },
                {
                    "name": "E5",
                    "midi": 76,
                    "time": 20.08550425,
                    "velocity": 0.4015748031496063,
                    "duration": 0.08439287499999892
                },
                {
                    "name": "E5",
                    "midi": 76,
                    "time": 20.254289999999997,
                    "velocity": 0.4645669291338583,
                    "duration": 0.1687857500000014
                },
                {
                    "name": "D5",
                    "midi": 74,
                    "time": 20.42307575,
                    "velocity": 0.4015748031496063,
                    "duration": 0.1687857500000014
                },
                {
                    "name": "G5",
                    "midi": 79,
                    "time": 20.5918615,
                    "velocity": 0.4409448818897638,
                    "duration": 0.1687857500000014
                },
                {
                    "name": "D5",
                    "midi": 74,
                    "time": 20.76064725,
                    "velocity": 0.3700787401574803,
                    "duration": 0.08439287499999892
                },
                {
                    "name": "D5",
                    "midi": 74,
                    "time": 20.929433,
                    "velocity": 0.4645669291338583,
                    "duration": 0.1687857500000014
                },
                {
                    "name": "C5",
                    "midi": 72,
                    "time": 21.09821875,
                    "velocity": 0.3779527559055118,
                    "duration": 0.1687857500000014
                },
                {
                    "name": "A5",
                    "midi": 81,
                    "time": 21.267004500000002,
                    "velocity": 0.44881889763779526,
                    "duration": 0.1687857500000014
                },
                {
                    "name": "C5",
                    "midi": 72,
                    "time": 21.435790250000004,
                    "velocity": 0.3858267716535433,
                    "duration": 0.08439287499999892
                },
                {
                    "name": "B4",
                    "midi": 71,
                    "time": 21.604576,
                    "velocity": 0.4409448818897638,
                    "duration": 0.1687857500000014
                },
                {
                    "name": "G4",
                    "midi": 67,
                    "time": 21.773361750000003,
                    "velocity": 0.3700787401574803,
                    "duration": 0.1687857500000014
                },
                {
                    "name": "C5",
                    "midi": 72,
                    "time": 21.942147500000004,
                    "velocity": 0.4409448818897638,
                    "duration": 0.1687857500000014
                },
                {
                    "name": "G4",
                    "midi": 67,
                    "time": 22.110933250000006,
                    "velocity": 0.3779527559055118,
                    "duration": 0.1687857500000014
                },
                {
                    "name": "D5",
                    "midi": 74,
                    "time": 22.279719000000007,
                    "velocity": 0.44881889763779526,
                    "duration": 0.1687857500000014
                },
                {
                    "name": "G4",
                    "midi": 67,
                    "time": 22.44850475000001,
                    "velocity": 0.4094488188976378,
                    "duration": 0.1687857500000014
                },
                {
                    "name": "E5",
                    "midi": 76,
                    "time": 22.61729050000001,
                    "velocity": 0.4881889763779528,
                    "duration": 0.1687857500000014
                },
                {
                    "name": "G4",
                    "midi": 67,
                    "time": 22.78607625000001,
                    "velocity": 0.4330708661417323,
                    "duration": 0.1687857500000014
                },
                {
                    "name": "D5",
                    "midi": 74,
                    "time": 22.954862000000013,
                    "velocity": 0.49606299212598426,
                    "duration": 0.1687857500000014
                },
                {
                    "name": "G5",
                    "midi": 79,
                    "time": 23.123647750000014,
                    "velocity": 0.4330708661417323,
                    "duration": 0.08439287499999892
                },
                {
                    "name": "G5",
                    "midi": 79,
                    "time": 23.292433500000012,
                    "velocity": 0.4330708661417323,
                    "duration": 0.08439287499999892
                },
                {
                    "name": "G5",
                    "midi": 79,
                    "time": 23.46121925000001,
                    "velocity": 0.4330708661417323,
                    "duration": 0.08439287499999892
                },
                {
                    "name": "F#5",
                    "midi": 78,
                    "time": 23.630005000000008,
                    "velocity": 0.4645669291338583,
                    "duration": 0.1687857500000014
                },
                {
                    "name": "C6",
                    "midi": 84,
                    "time": 23.79879075000001,
                    "velocity": 0.4566929133858268,
                    "duration": 0.08439287499999892
                },
                {
                    "name": "C6",
                    "midi": 84,
                    "time": 23.967576500000007,
                    "velocity": 0.47244094488188976,
                    "duration": 0.08439287499999892
                },
                {
                    "name": "C6",
                    "midi": 84,
                    "time": 24.136362250000005,
                    "velocity": 0.4251968503937008,
                    "duration": 0.08439287499999892
                },
                {
                    "name": "C6",
                    "midi": 84,
                    "time": 24.305148000000003,
                    "velocity": 0.49606299212598426,
                    "duration": 0.1687857500000014
                },
                {
                    "name": "B5",
                    "midi": 83,
                    "time": 24.473933750000004,
                    "velocity": 0.4645669291338583,
                    "duration": 0.1687857500000014
                },
                {
                    "name": "A5",
                    "midi": 81,
                    "time": 24.642719500000005,
                    "velocity": 0.4409448818897638,
                    "duration": 0.1687857500000014
                },
                {
                    "name": "G5",
                    "midi": 79,
                    "time": 24.811505250000007,
                    "velocity": 0.3858267716535433,
                    "duration": 0.1687857500000014
                },
                {
                    "name": "A5",
                    "midi": 81,
                    "time": 24.98029100000001,
                    "velocity": 0.4251968503937008,
                    "duration": 0.08439287499999892
                },
                {
                    "name": "B5",
                    "midi": 83,
                    "time": 25.064683875000007,
                    "velocity": 0.4015748031496063,
                    "duration": 0.08439287499999892
                },
                {
                    "name": "A5",
                    "midi": 81,
                    "time": 25.149076750000006,
                    "velocity": 0.4251968503937008,
                    "duration": 0.08439287499999892
                },
                {
                    "name": "B5",
                    "midi": 83,
                    "time": 25.233469625000005,
                    "velocity": 0.3937007874015748,
                    "duration": 0.08439287499999892
                },
                {
                    "name": "A5",
                    "midi": 81,
                    "time": 25.317862500000004,
                    "velocity": 0.4251968503937008,
                    "duration": 0.08439287499999892
                },
                {
                    "name": "B5",
                    "midi": 83,
                    "time": 25.402255375000003,
                    "velocity": 0.3779527559055118,
                    "duration": 0.08439287499999892
                },
                {
                    "name": "A5",
                    "midi": 81,
                    "time": 25.486648250000002,
                    "velocity": 0.41732283464566927,
                    "duration": 0.05626191666666713
                },
                {
                    "name": "B5",
                    "midi": 83,
                    "time": 25.54291016666667,
                    "velocity": 0.3858267716535433,
                    "duration": 0.05626191666666713
                },
                {
                    "name": "A5",
                    "midi": 81,
                    "time": 25.599172083333336,
                    "velocity": 0.3937007874015748,
                    "duration": 0.05626191666666713
                },
                {
                    "name": "G5",
                    "midi": 79,
                    "time": 25.655434000000003,
                    "velocity": 0.5196850393700787,
                    "duration": 0.6751429999999985
                },
                {
                    "name": "G5",
                    "midi": 79,
                    "time": 27.00572,
                    "velocity": 0.6456692913385826,
                    "duration": 0.6751429999999985
                },
                {
                    "name": "D5",
                    "midi": 74,
                    "time": 27.00572,
                    "velocity": 0.5511811023622047,
                    "duration": 0.6751429999999985
                },
                {
                    "name": "B4",
                    "midi": 71,
                    "time": 27.00572,
                    "velocity": 0.5511811023622047,
                    "duration": 0.6751429999999985
                },
                {
                    "name": "G4",
                    "midi": 67,
                    "time": 27.680863,
                    "velocity": 0.47244094488188976,
                    "duration": 0.1687857500000014
                },
                {
                    "name": "A4",
                    "midi": 69,
                    "time": 27.84964875,
                    "velocity": 0.41732283464566927,
                    "duration": 0.08439287499999892
                },
                {
                    "name": "B4",
                    "midi": 71,
                    "time": 27.934041625,
                    "velocity": 0.4330708661417323,
                    "duration": 0.08439287499999892
                },
                {
                    "name": "C5",
                    "midi": 72,
                    "time": 28.018434499999998,
                    "velocity": 0.47244094488188976,
                    "duration": 0.08439287499999892
                },
                {
                    "name": "D5",
                    "midi": 74,
                    "time": 28.102827374999997,
                    "velocity": 0.48031496062992124,
                    "duration": 0.08439287499999892
                },
                {
                    "name": "E5",
                    "midi": 76,
                    "time": 28.187220249999996,
                    "velocity": 0.49606299212598426,
                    "duration": 0.08439287499999892
                },
                {
                    "name": "F#5",
                    "midi": 78,
                    "time": 28.271613124999995,
                    "velocity": 0.5275590551181102,
                    "duration": 0.08439287499999892
                },
                {
                    "name": "G5",
                    "midi": 79,
                    "time": 28.356005999999994,
                    "velocity": 0.5826771653543307,
                    "duration": 0.33757149999999925
                },
                {
                    "name": "C6",
                    "midi": 84,
                    "time": 28.693577499999993,
                    "velocity": 0.4566929133858268,
                    "duration": 0.1687857500000014
                },
                {
                    "name": "G5",
                    "midi": 79,
                    "time": 28.862363249999994,
                    "velocity": 0.36220472440944884,
                    "duration": 0.08439287499999892
                },
                {
                    "name": "G5",
                    "midi": 79,
                    "time": 29.031148999999992,
                    "velocity": 0.4645669291338583,
                    "duration": 0.1687857500000014
                },
                {
                    "name": "F5",
                    "midi": 77,
                    "time": 29.199934749999993,
                    "velocity": 0.3858267716535433,
                    "duration": 0.08439287499999892
                },
                {
                    "name": "F5",
                    "midi": 77,
                    "time": 29.36872049999999,
                    "velocity": 0.4251968503937008,
                    "duration": 0.1687857500000014
                },
                {
                    "name": "E5",
                    "midi": 76,
                    "time": 29.537506249999993,
                    "velocity": 0.3700787401574803,
                    "duration": 0.1687857500000014
                },
                {
                    "name": "F5",
                    "midi": 77,
                    "time": 29.706291999999994,
                    "velocity": 0.5354330708661418,
                    "duration": 0.6751429999999985
                },
                {
                    "name": "G4",
                    "midi": 67,
                    "time": 30.381434999999993,
                    "velocity": 0.47244094488188976,
                    "duration": 0.1687857500000014
                },
                {
                    "name": "A4",
                    "midi": 69,
                    "time": 30.550220749999994,
                    "velocity": 0.41732283464566927,
                    "duration": 0.08439287499999892
                },
                {
                    "name": "B4",
                    "midi": 71,
                    "time": 30.634613624999993,
                    "velocity": 0.4330708661417323,
                    "duration": 0.08439287499999892
                },
                {
                    "name": "C5",
                    "midi": 72,
                    "time": 30.719006499999992,
                    "velocity": 0.47244094488188976,
                    "duration": 0.08439287499999892
                },
                {
                    "name": "D5",
                    "midi": 74,
                    "time": 30.80339937499999,
                    "velocity": 0.48031496062992124,
                    "duration": 0.08439287499999892
                },
                {
                    "name": "E5",
                    "midi": 76,
                    "time": 30.88779224999999,
                    "velocity": 0.49606299212598426,
                    "duration": 0.08439287499999892
                },
                {
                    "name": "F#5",
                    "midi": 78,
                    "time": 30.97218512499999,
                    "velocity": 0.5275590551181102,
                    "duration": 0.08439287499999892
                },
                {
                    "name": "G5",
                    "midi": 79,
                    "time": 31.056577999999988,
                    "velocity": 0.5433070866141733,
                    "duration": 0.33757149999999925
                },
                {
                    "name": "D6",
                    "midi": 86,
                    "time": 31.394149499999987,
                    "velocity": 0.4881889763779528,
                    "duration": 0.1687857500000014
                },
                {
                    "name": "C6",
                    "midi": 84,
                    "time": 31.56293524999999,
                    "velocity": 0.4015748031496063,
                    "duration": 0.1687857500000014
                },
                {
                    "name": "B5",
                    "midi": 83,
                    "time": 31.73172099999999,
                    "velocity": 0.4566929133858268,
                    "duration": 0.1687857500000014
                },
                {
                    "name": "A5",
                    "midi": 81,
                    "time": 31.90050674999999,
                    "velocity": 0.3937007874015748,
                    "duration": 0.16878574999999785
                },
                {
                    "name": "G5",
                    "midi": 79,
                    "time": 32.06929249999999,
                    "velocity": 0.4409448818897638,
                    "duration": 0.16878574999999785
                },
                {
                    "name": "F5",
                    "midi": 77,
                    "time": 32.23807824999999,
                    "velocity": 0.3858267716535433,
                    "duration": 0.16878574999999785
                },
                {
                    "name": "E5",
                    "midi": 76,
                    "time": 32.406863999999985,
                    "velocity": 0.4645669291338583,
                    "duration": 0.16878574999999785
                },
                {
                    "name": "C5",
                    "midi": 72,
                    "time": 32.57564974999998,
                    "velocity": 0.4015748031496063,
                    "duration": 0.16878574999999785
                },
                {
                    "name": "G5",
                    "midi": 79,
                    "time": 32.74443549999998,
                    "velocity": 0.4409448818897638,
                    "duration": 0.16878574999999785
                },
                {
                    "name": "E5",
                    "midi": 76,
                    "time": 32.91322124999998,
                    "velocity": 0.41732283464566927,
                    "duration": 0.16878574999999785
                },
                {
                    "name": "A5",
                    "midi": 81,
                    "time": 33.082006999999976,
                    "velocity": 0.4645669291338583,
                    "duration": 0.16878574999999785
                },
                {
                    "name": "A4",
                    "midi": 69,
                    "time": 33.250792749999974,
                    "velocity": 0.4015748031496063,
                    "duration": 0.16878574999999785
                },
                {
                    "name": "F5",
                    "midi": 77,
                    "time": 33.41957849999997,
                    "velocity": 0.4330708661417323,
                    "duration": 0.16878574999999785
                },
                {
                    "name": "D5",
                    "midi": 74,
                    "time": 33.58836424999997,
                    "velocity": 0.3858267716535433,
                    "duration": 0.16878574999999785
                },
                {
                    "name": "C5",
                    "midi": 72,
                    "time": 33.75714999999997,
                    "velocity": 0.44881889763779526,
                    "duration": 0.6751429999999985
                },
                {
                    "name": "B4",
                    "midi": 71,
                    "time": 34.432292999999966,
                    "velocity": 0.41732283464566927,
                    "duration": 0.6751429999999985
                },
                {
                    "name": "E4",
                    "midi": 64,
                    "time": 35.107435999999964,
                    "velocity": 0.5275590551181102,
                    "duration": 0.6751429999999985
                },
                {
                    "name": "G4",
                    "midi": 67,
                    "time": 35.107435999999964,
                    "velocity": 0.5275590551181102,
                    "duration": 0.6751429999999985
                },
                {
                    "name": "C5",
                    "midi": 72,
                    "time": 35.107435999999964,
                    "velocity": 0.6299212598425197,
                    "duration": 0.6751429999999985
                },
                {
                    "name": "D5",
                    "midi": 74,
                    "time": 35.78257899999996,
                    "velocity": 0.5826771653543307,
                    "duration": 0.08439287499999892
                },
                {
                    "name": "B4",
                    "midi": 71,
                    "time": 35.78257899999996,
                    "velocity": 0.49606299212598426,
                    "duration": 0.6751429999999843
                },
                {
                    "name": "G4",
                    "midi": 67,
                    "time": 35.78257899999996,
                    "velocity": 0.49606299212598426,
                    "duration": 0.6751429999999843
                },
                {
                    "name": "E5",
                    "midi": 76,
                    "time": 35.86697187499996,
                    "velocity": 0.5196850393700787,
                    "duration": 0.08439287499999892
                },
                {
                    "name": "D5",
                    "midi": 74,
                    "time": 35.95136474999996,
                    "velocity": 0.5590551181102362,
                    "duration": 0.08439287499999892
                },
                {
                    "name": "E5",
                    "midi": 76,
                    "time": 36.03575762499996,
                    "velocity": 0.49606299212598426,
                    "duration": 0.08439287499999892
                },
                {
                    "name": "D5",
                    "midi": 74,
                    "time": 36.12015049999996,
                    "velocity": 0.5511811023622047,
                    "duration": 0.08439287499999892
                },
                {
                    "name": "E5",
                    "midi": 76,
                    "time": 36.20454337499996,
                    "velocity": 0.4881889763779528,
                    "duration": 0.08439287499999892
                },
                {
                    "name": "D5",
                    "midi": 74,
                    "time": 36.288936249999956,
                    "velocity": 0.5039370078740157,
                    "duration": 0.05626191666666358
                },
                {
                    "name": "E5",
                    "midi": 76,
                    "time": 36.34519816666662,
                    "velocity": 0.5039370078740157,
                    "duration": 0.05626191666666358
                },
                {
                    "name": "D5",
                    "midi": 74,
                    "time": 36.40146008333328,
                    "velocity": 0.5039370078740157,
                    "duration": 0.05626191666666358
                },
                {
                    "name": "E5",
                    "midi": 76,
                    "time": 36.45772199999995,
                    "velocity": 0.6456692913385826,
                    "duration": 0.6751429999999985
                },
                {
                    "name": "C5",
                    "midi": 72,
                    "time": 36.45772199999995,
                    "velocity": 0.5511811023622047,
                    "duration": 0.6751429999999985
                },
                {
                    "name": "G4",
                    "midi": 67,
                    "time": 36.45772199999995,
                    "velocity": 0.5511811023622047,
                    "duration": 0.6751429999999985
                },
                {
                    "name": "C5",
                    "midi": 72,
                    "time": 37.47043649999995,
                    "velocity": 0.4330708661417323,
                    "duration": 0.08439287499999892
                },
                {
                    "name": "D5",
                    "midi": 74,
                    "time": 37.55482937499995,
                    "velocity": 0.4409448818897638,
                    "duration": 0.08439287499999892
                },
                {
                    "name": "E5",
                    "midi": 76,
                    "time": 37.639222249999946,
                    "velocity": 0.4566929133858268,
                    "duration": 0.08439287499999892
                },
                {
                    "name": "F5",
                    "midi": 77,
                    "time": 37.723615124999945,
                    "velocity": 0.48031496062992124,
                    "duration": 0.08439287499999892
                },
                {
                    "name": "G5",
                    "midi": 79,
                    "time": 37.808007999999944,
                    "velocity": 0.5354330708661418,
                    "duration": 0.3375715000000028
                },
                {
                    "name": "C6",
                    "midi": 84,
                    "time": 38.14557949999995,
                    "velocity": 0.4251968503937008,
                    "duration": 0.3375715000000028
                },
                {
                    "name": "B5",
                    "midi": 83,
                    "time": 38.48315099999995,
                    "velocity": 0.48031496062992124,
                    "duration": 0.3375715000000028
                },
                {
                    "name": "A5",
                    "midi": 81,
                    "time": 38.82072249999995,
                    "velocity": 0.4251968503937008,
                    "duration": 0.3375715000000028
                },
                {
                    "name": "G5",
                    "midi": 79,
                    "time": 39.158293999999955,
                    "velocity": 0.5118110236220472,
                    "duration": 0.6751429999999985
                },
                {
                    "name": "F5",
                    "midi": 77,
                    "time": 39.833436999999954,
                    "velocity": 0.4251968503937008,
                    "duration": 0.08439287499999892
                },
                {
                    "name": "G5",
                    "midi": 79,
                    "time": 39.91782987499995,
                    "velocity": 0.4015748031496063,
                    "duration": 0.08439287499999892
                },
                {
                    "name": "F5",
                    "midi": 77,
                    "time": 40.00222274999995,
                    "velocity": 0.4251968503937008,
                    "duration": 0.08439287499999892
                },
                {
                    "name": "G5",
                    "midi": 79,
                    "time": 40.08661562499995,
                    "velocity": 0.3937007874015748,
                    "duration": 0.08439287499999892
                },
                {
                    "name": "F5",
                    "midi": 77,
                    "time": 40.17100849999995,
                    "velocity": 0.4251968503937008,
                    "duration": 0.08439287499999892
                },
                {
                    "name": "G5",
                    "midi": 79,
                    "time": 40.25540137499995,
                    "velocity": 0.3779527559055118,
                    "duration": 0.08439287499999892
                },
                {
                    "name": "F5",
                    "midi": 77,
                    "time": 40.33979424999995,
                    "velocity": 0.41732283464566927,
                    "duration": 0.05626191666666358
                },
                {
                    "name": "G5",
                    "midi": 79,
                    "time": 40.39605616666661,
                    "velocity": 0.3858267716535433,
                    "duration": 0.05626191666666358
                },
                {
                    "name": "F5",
                    "midi": 77,
                    "time": 40.452318083333275,
                    "velocity": 0.3937007874015748,
                    "duration": 0.05626191666666358
                },
                {
                    "name": "E5",
                    "midi": 76,
                    "time": 40.50857999999994,
                    "velocity": 0.4645669291338583,
                    "duration": 0.16878574999999785
                },
                {
                    "name": "C5",
                    "midi": 72,
                    "time": 40.677365749999936,
                    "velocity": 0.4015748031496063,
                    "duration": 0.16878574999999785
                },
                {
                    "name": "G5",
                    "midi": 79,
                    "time": 40.846151499999934,
                    "velocity": 0.4409448818897638,
                    "duration": 0.16878574999999785
                },
                {
                    "name": "E5",
                    "midi": 76,
                    "time": 41.01493724999993,
                    "velocity": 0.4251968503937008,
                    "duration": 0.16878574999999785
                },
                {
                    "name": "A5",
                    "midi": 81,
                    "time": 41.18372299999993,
                    "velocity": 0.4645669291338583,
                    "duration": 0.16878575000000495
                },
                {
                    "name": "F5",
                    "midi": 77,
                    "time": 41.342662914583265,
                    "velocity": 0.3937007874015748,
                    "duration": 0.16878575000000495
                },
                {
                    "name": "E5",
                    "midi": 76,
                    "time": 41.52129449999994,
                    "velocity": 0.44881889763779526,
                    "duration": 0.16878574999999785
                },
                {
                    "name": "D5",
                    "midi": 74,
                    "time": 41.69008024999994,
                    "velocity": 0.3858267716535433,
                    "duration": 0.16878574999999785
                },
                {
                    "name": "C5",
                    "midi": 72,
                    "time": 41.858865999999935,
                    "velocity": 0.49606299212598426,
                    "duration": 0.6751429999999985
                },
                {
                    "name": "D5",
                    "midi": 74,
                    "time": 42.534008999999934,
                    "velocity": 0.4015748031496063,
                    "duration": 0.08439287499999892
                },
                {
                    "name": "E5",
                    "midi": 76,
                    "time": 42.61840187499993,
                    "velocity": 0.3779527559055118,
                    "duration": 0.08439287499999892
                },
                {
                    "name": "D5",
                    "midi": 74,
                    "time": 42.70279474999993,
                    "velocity": 0.4015748031496063,
                    "duration": 0.08439287499999892
                },
                {
                    "name": "E5",
                    "midi": 76,
                    "time": 42.78718762499993,
                    "velocity": 0.3700787401574803,
                    "duration": 0.08439287499999892
                },
                {
                    "name": "D5",
                    "midi": 74,
                    "time": 42.87158049999993,
                    "velocity": 0.4015748031496063,
                    "duration": 0.08439287499999892
                },
                {
                    "name": "E5",
                    "midi": 76,
                    "time": 42.95597337499993,
                    "velocity": 0.3543307086614173,
                    "duration": 0.08439287499999892
                },
                {
                    "name": "D5",
                    "midi": 74,
                    "time": 43.04036624999993,
                    "velocity": 0.3937007874015748,
                    "duration": 0.05626191666666358
                },
                {
                    "name": "E5",
                    "midi": 76,
                    "time": 43.09662816666659,
                    "velocity": 0.36220472440944884,
                    "duration": 0.05626191666666358
                },
                {
                    "name": "D5",
                    "midi": 74,
                    "time": 43.152890083333254,
                    "velocity": 0.3700787401574803,
                    "duration": 0.05626191666666358
                },
                {
                    "name": "C5",
                    "midi": 72,
                    "time": 43.20915199999992,
                    "velocity": 0.5196850393700787,
                    "duration": 0.6751429999999985
                },
                {
                    "name": "G5",
                    "midi": 79,
                    "time": 44.559437999999915,
                    "velocity": 0.6456692913385826,
                    "duration": 0.6751429999999985
                },
                {
                    "name": "D5",
                    "midi": 74,
                    "time": 44.559437999999915,
                    "velocity": 0.5511811023622047,
                    "duration": 0.6751429999999985
                },
                {
                    "name": "B4",
                    "midi": 71,
                    "time": 44.559437999999915,
                    "velocity": 0.5511811023622047,
                    "duration": 0.6751429999999985
                },
                {
                    "name": "G4",
                    "midi": 67,
                    "time": 45.23458099999991,
                    "velocity": 0.47244094488188976,
                    "duration": 0.16878574999999785
                },
                {
                    "name": "A4",
                    "midi": 69,
                    "time": 45.40336674999991,
                    "velocity": 0.41732283464566927,
                    "duration": 0.08439287499999892
                },
                {
                    "name": "B4",
                    "midi": 71,
                    "time": 45.48775962499991,
                    "velocity": 0.4330708661417323,
                    "duration": 0.08439287499999892
                },
                {
                    "name": "C5",
                    "midi": 72,
                    "time": 45.57215249999991,
                    "velocity": 0.47244094488188976,
                    "duration": 0.08439287499999892
                },
                {
                    "name": "D5",
                    "midi": 74,
                    "time": 45.65654537499991,
                    "velocity": 0.48031496062992124,
                    "duration": 0.08439287499999892
                },
                {
                    "name": "E5",
                    "midi": 76,
                    "time": 45.74093824999991,
                    "velocity": 0.49606299212598426,
                    "duration": 0.08439287499999892
                },
                {
                    "name": "F#5",
                    "midi": 78,
                    "time": 45.825331124999906,
                    "velocity": 0.5275590551181102,
                    "duration": 0.08439287499999892
                },
                {
                    "name": "G5",
                    "midi": 79,
                    "time": 45.909723999999905,
                    "velocity": 0.5826771653543307,
                    "duration": 0.3375715000000028
                },
                {
                    "name": "C6",
                    "midi": 84,
                    "time": 46.24729549999991,
                    "velocity": 0.4566929133858268,
                    "duration": 0.16878574999999785
                },
                {
                    "name": "G5",
                    "midi": 79,
                    "time": 46.416081249999905,
                    "velocity": 0.36220472440944884,
                    "duration": 0.08439287499999892
                },
                {
                    "name": "G5",
                    "midi": 79,
                    "time": 46.5848669999999,
                    "velocity": 0.4645669291338583,
                    "duration": 0.16878574999999785
                },
                {
                    "name": "F5",
                    "midi": 77,
                    "time": 46.7536527499999,
                    "velocity": 0.3858267716535433,
                    "duration": 0.08439287499999892
                },
                {
                    "name": "F5",
                    "midi": 77,
                    "time": 46.9224384999999,
                    "velocity": 0.4251968503937008,
                    "duration": 0.16878574999999785
                },
                {
                    "name": "E5",
                    "midi": 76,
                    "time": 47.0912242499999,
                    "velocity": 0.3700787401574803,
                    "duration": 0.16878574999999785
                },
                {
                    "name": "F5",
                    "midi": 77,
                    "time": 47.260009999999895,
                    "velocity": 0.5511811023622047,
                    "duration": 0.6751429999999985
                },
                {
                    "name": "G4",
                    "midi": 67,
                    "time": 47.93515299999989,
                    "velocity": 0.47244094488188976,
                    "duration": 0.16878574999999785
                },
                {
                    "name": "A4",
                    "midi": 69,
                    "time": 48.10393874999989,
                    "velocity": 0.41732283464566927,
                    "duration": 0.08439287499999892
                },
                {
                    "name": "B4",
                    "midi": 71,
                    "time": 48.18833162499989,
                    "velocity": 0.4330708661417323,
                    "duration": 0.08439287499999892
                },
                {
                    "name": "C5",
                    "midi": 72,
                    "time": 48.27272449999989,
                    "velocity": 0.47244094488188976,
                    "duration": 0.08439287499999892
                },
                {
                    "name": "D5",
                    "midi": 74,
                    "time": 48.35711737499989,
                    "velocity": 0.48031496062992124,
                    "duration": 0.08439287499999892
                },
                {
                    "name": "E5",
                    "midi": 76,
                    "time": 48.44151024999989,
                    "velocity": 0.49606299212598426,
                    "duration": 0.08439287499999892
                },
                {
                    "name": "F#5",
                    "midi": 78,
                    "time": 48.525903124999886,
                    "velocity": 0.5275590551181102,
                    "duration": 0.08439287499999892
                },
                {
                    "name": "G5",
                    "midi": 79,
                    "time": 48.610295999999884,
                    "velocity": 0.5433070866141733,
                    "duration": 0.3375715000000028
                },
                {
                    "name": "D6",
                    "midi": 86,
                    "time": 48.94786749999989,
                    "velocity": 0.4881889763779528,
                    "duration": 0.16878574999999785
                },
                {
                    "name": "C6",
                    "midi": 84,
                    "time": 49.116653249999885,
                    "velocity": 0.4015748031496063,
                    "duration": 0.16878574999999785
                },
                {
                    "name": "B5",
                    "midi": 83,
                    "time": 49.28543899999988,
                    "velocity": 0.4566929133858268,
                    "duration": 0.16878574999999785
                },
                {
                    "name": "A5",
                    "midi": 81,
                    "time": 49.45422474999988,
                    "velocity": 0.3937007874015748,
                    "duration": 0.16878574999999785
                },
                {
                    "name": "G5",
                    "midi": 79,
                    "time": 49.62301049999988,
                    "velocity": 0.4409448818897638,
                    "duration": 0.16878574999999785
                },
                {
                    "name": "F5",
                    "midi": 77,
                    "time": 49.79179624999988,
                    "velocity": 0.3858267716535433,
                    "duration": 0.16878574999999785
                },
                {
                    "name": "E5",
                    "midi": 76,
                    "time": 49.960581999999874,
                    "velocity": 0.4645669291338583,
                    "duration": 0.16878574999999785
                },
                {
                    "name": "C5",
                    "midi": 72,
                    "time": 50.12936774999987,
                    "velocity": 0.4015748031496063,
                    "duration": 0.16878574999999785
                },
                {
                    "name": "G5",
                    "midi": 79,
                    "time": 50.29815349999987,
                    "velocity": 0.4409448818897638,
                    "duration": 0.16878574999999785
                },
                {
                    "name": "E5",
                    "midi": 76,
                    "time": 50.46693924999987,
                    "velocity": 0.3858267716535433,
                    "duration": 0.16878574999999785
                },
                {
                    "name": "A5",
                    "midi": 81,
                    "time": 50.635724999999866,
                    "velocity": 0.4645669291338583,
                    "duration": 0.16878574999999785
                },
                {
                    "name": "A4",
                    "midi": 69,
                    "time": 50.804510749999864,
                    "velocity": 0.33070866141732286,
                    "duration": 0.16878574999999785
                },
                {
                    "name": "F5",
                    "midi": 77,
                    "time": 50.97329649999986,
                    "velocity": 0.41732283464566927,
                    "duration": 0.16878574999999785
                },
                {
                    "name": "D5",
                    "midi": 74,
                    "time": 51.14208224999986,
                    "velocity": 0.3858267716535433,
                    "duration": 0.16878574999999785
                },
                {
                    "name": "C5",
                    "midi": 72,
                    "time": 51.31086799999986,
                    "velocity": 0.44881889763779526,
                    "duration": 0.6751429999999985
                },
                {
                    "name": "B4",
                    "midi": 71,
                    "time": 51.986010999999856,
                    "velocity": 0.41732283464566927,
                    "duration": 0.6751429999999985
                },
                {
                    "name": "E4",
                    "midi": 64,
                    "time": 52.661153999999854,
                    "velocity": 0.5275590551181102,
                    "duration": 0.6751429999999985
                },
                {
                    "name": "G4",
                    "midi": 67,
                    "time": 52.661153999999854,
                    "velocity": 0.5275590551181102,
                    "duration": 0.6751429999999985
                },
                {
                    "name": "C5",
                    "midi": 72,
                    "time": 52.661153999999854,
                    "velocity": 0.6299212598425197,
                    "duration": 0.6751429999999985
                },
                {
                    "name": "D5",
                    "midi": 74,
                    "time": 53.33629699999985,
                    "velocity": 0.5826771653543307,
                    "duration": 0.08439287499999892
                },
                {
                    "name": "B4",
                    "midi": 71,
                    "time": 53.33629699999985,
                    "velocity": 0.49606299212598426,
                    "duration": 0.6751429999999843
                },
                {
                    "name": "G4",
                    "midi": 67,
                    "time": 53.33629699999985,
                    "velocity": 0.49606299212598426,
                    "duration": 0.6751429999999843
                },
                {
                    "name": "E5",
                    "midi": 76,
                    "time": 53.42068987499985,
                    "velocity": 0.5196850393700787,
                    "duration": 0.08439287499999892
                },
                {
                    "name": "D5",
                    "midi": 74,
                    "time": 53.50508274999985,
                    "velocity": 0.5590551181102362,
                    "duration": 0.08439287499999892
                },
                {
                    "name": "E5",
                    "midi": 76,
                    "time": 53.58947562499985,
                    "velocity": 0.49606299212598426,
                    "duration": 0.08439287499999892
                },
                {
                    "name": "D5",
                    "midi": 74,
                    "time": 53.67386849999985,
                    "velocity": 0.5511811023622047,
                    "duration": 0.08439287499999892
                },
                {
                    "name": "E5",
                    "midi": 76,
                    "time": 53.75826137499985,
                    "velocity": 0.4881889763779528,
                    "duration": 0.08439287499999892
                },
                {
                    "name": "D5",
                    "midi": 74,
                    "time": 53.842654249999846,
                    "velocity": 0.5039370078740157,
                    "duration": 0.05626191666666358
                },
                {
                    "name": "E5",
                    "midi": 76,
                    "time": 53.89891616666651,
                    "velocity": 0.5039370078740157,
                    "duration": 0.05626191666666358
                },
                {
                    "name": "D5",
                    "midi": 74,
                    "time": 53.95517808333317,
                    "velocity": 0.5039370078740157,
                    "duration": 0.05626191666666358
                },
                {
                    "name": "E5",
                    "midi": 76,
                    "time": 54.01143999999984,
                    "velocity": 0.6456692913385826,
                    "duration": 0.6751429999999985
                },
                {
                    "name": "C5",
                    "midi": 72,
                    "time": 54.01143999999984,
                    "velocity": 0.5511811023622047,
                    "duration": 0.6751429999999985
                },
                {
                    "name": "G4",
                    "midi": 67,
                    "time": 54.01143999999984,
                    "velocity": 0.5511811023622047,
                    "duration": 0.6751429999999985
                },
                {
                    "name": "C5",
                    "midi": 72,
                    "time": 55.02415449999984,
                    "velocity": 0.4330708661417323,
                    "duration": 0.08439287499999892
                },
                {
                    "name": "D5",
                    "midi": 74,
                    "time": 55.10854737499984,
                    "velocity": 0.4409448818897638,
                    "duration": 0.08439287499999892
                },
                {
                    "name": "E5",
                    "midi": 76,
                    "time": 55.192940249999836,
                    "velocity": 0.4566929133858268,
                    "duration": 0.08439287499999892
                },
                {
                    "name": "F5",
                    "midi": 77,
                    "time": 55.277333124999835,
                    "velocity": 0.48031496062992124,
                    "duration": 0.08439287499999892
                },
                {
                    "name": "G5",
                    "midi": 79,
                    "time": 55.361725999999834,
                    "velocity": 0.5354330708661418,
                    "duration": 0.3375715000000028
                },
                {
                    "name": "C6",
                    "midi": 84,
                    "time": 55.69929749999984,
                    "velocity": 0.4251968503937008,
                    "duration": 0.3375715000000028
                },
                {
                    "name": "B5",
                    "midi": 83,
                    "time": 56.03686899999984,
                    "velocity": 0.48031496062992124,
                    "duration": 0.3375715000000028
                },
                {
                    "name": "A5",
                    "midi": 81,
                    "time": 56.37444049999984,
                    "velocity": 0.4251968503937008,
                    "duration": 0.3375715000000028
                },
                {
                    "name": "G5",
                    "midi": 79,
                    "time": 56.712011999999845,
                    "velocity": 0.5118110236220472,
                    "duration": 0.6751429999999985
                },
                {
                    "name": "F5",
                    "midi": 77,
                    "time": 57.387154999999844,
                    "velocity": 0.4251968503937008,
                    "duration": 0.08439287499999892
                },
                {
                    "name": "G5",
                    "midi": 79,
                    "time": 57.47154787499984,
                    "velocity": 0.4015748031496063,
                    "duration": 0.08439287499999892
                },
                {
                    "name": "F5",
                    "midi": 77,
                    "time": 57.55594074999984,
                    "velocity": 0.4251968503937008,
                    "duration": 0.08439287499999892
                },
                {
                    "name": "G5",
                    "midi": 79,
                    "time": 57.64033362499984,
                    "velocity": 0.3937007874015748,
                    "duration": 0.08439287499999892
                },
                {
                    "name": "F5",
                    "midi": 77,
                    "time": 57.72472649999984,
                    "velocity": 0.4251968503937008,
                    "duration": 0.08439287499999892
                },
                {
                    "name": "G5",
                    "midi": 79,
                    "time": 57.80911937499984,
                    "velocity": 0.3779527559055118,
                    "duration": 0.08439287499999892
                },
                {
                    "name": "F5",
                    "midi": 77,
                    "time": 57.89351224999984,
                    "velocity": 0.41732283464566927,
                    "duration": 0.05626191666666358
                },
                {
                    "name": "G5",
                    "midi": 79,
                    "time": 57.9497741666665,
                    "velocity": 0.3858267716535433,
                    "duration": 0.05626191666666358
                },
                {
                    "name": "F5",
                    "midi": 77,
                    "time": 58.006036083333164,
                    "velocity": 0.3937007874015748,
                    "duration": 0.05626191666666358
                },
                {
                    "name": "E5",
                    "midi": 76,
                    "time": 58.06229799999983,
                    "velocity": 0.4645669291338583,
                    "duration": 0.16878574999999785
                },
                {
                    "name": "C5",
                    "midi": 72,
                    "time": 58.231083749999826,
                    "velocity": 0.4015748031496063,
                    "duration": 0.16878574999999785
                },
                {
                    "name": "G5",
                    "midi": 79,
                    "time": 58.399869499999824,
                    "velocity": 0.4409448818897638,
                    "duration": 0.16878574999999785
                },
                {
                    "name": "E5",
                    "midi": 76,
                    "time": 58.56865524999982,
                    "velocity": 0.3700787401574803,
                    "duration": 0.16878574999999785
                },
                {
                    "name": "A5",
                    "midi": 81,
                    "time": 58.73744099999982,
                    "velocity": 0.4881889763779528,
                    "duration": 0.16878575000000495
                },
                {
                    "name": "F5",
                    "midi": 77,
                    "time": 58.896380914583155,
                    "velocity": 0.4251968503937008,
                    "duration": 0.16878575000000495
                },
                {
                    "name": "E5",
                    "midi": 76,
                    "time": 59.07501249999983,
                    "velocity": 0.4566929133858268,
                    "duration": 0.16878574999999785
                },
                {
                    "name": "D5",
                    "midi": 74,
                    "time": 59.24379824999983,
                    "velocity": 0.3858267716535433,
                    "duration": 0.16878574999999785
                },
                {
                    "name": "C5",
                    "midi": 72,
                    "time": 59.412583999999825,
                    "velocity": 0.5118110236220472,
                    "duration": 0.6751429999999985
                },
                {
                    "name": "D5",
                    "midi": 74,
                    "time": 60.08772699999982,
                    "velocity": 0.4015748031496063,
                    "duration": 0.08439287499999892
                },
                {
                    "name": "E5",
                    "midi": 76,
                    "time": 60.17211987499982,
                    "velocity": 0.3779527559055118,
                    "duration": 0.08439287499999892
                },
                {
                    "name": "D5",
                    "midi": 74,
                    "time": 60.25651274999982,
                    "velocity": 0.4015748031496063,
                    "duration": 0.08439287499999892
                },
                {
                    "name": "E5",
                    "midi": 76,
                    "time": 60.34090562499982,
                    "velocity": 0.3700787401574803,
                    "duration": 0.08439287499999892
                },
                {
                    "name": "D5",
                    "midi": 74,
                    "time": 60.42529849999982,
                    "velocity": 0.4015748031496063,
                    "duration": 0.08439287499999892
                },
                {
                    "name": "E5",
                    "midi": 76,
                    "time": 60.50969137499982,
                    "velocity": 0.3543307086614173,
                    "duration": 0.08439287499999892
                },
                {
                    "name": "D5",
                    "midi": 74,
                    "time": 60.59408424999982,
                    "velocity": 0.3937007874015748,
                    "duration": 0.05626191666666358
                },
                {
                    "name": "E5",
                    "midi": 76,
                    "time": 60.65034616666648,
                    "velocity": 0.36220472440944884,
                    "duration": 0.05626191666666358
                },
                {
                    "name": "D5",
                    "midi": 74,
                    "time": 60.706608083333144,
                    "velocity": 0.3700787401574803,
                    "duration": 0.05626191666666358
                },
                {
                    "name": "C5",
                    "midi": 72,
                    "time": 60.76286999999981,
                    "velocity": 0.5196850393700787,
                    "duration": 0.6751429999999985
                }
            ],
            "controlChanges": {},
            "id": 1,
            "name": "Piano right",
            "instrumentNumber": 0,
            "instrument": "acoustic grand piano",
            "instrumentFamily": "piano",
            "channelNumber": 0,
            "isPercussion": false
        },
        {
            "startTime": 0,
            "duration": 62.09346432916673,
            "length": 158,
            "notes": [
                {
                    "name": "C4",
                    "midi": 60,
                    "time": 0,
                    "velocity": 0.5196850393700787,
                    "duration": 0.675143
                },
                {
                    "name": "C3",
                    "midi": 48,
                    "time": 0,
                    "velocity": 0.4409448818897638,
                    "duration": 0.675143
                },
                {
                    "name": "G3",
                    "midi": 55,
                    "time": 0.675143,
                    "velocity": 0.4566929133858268,
                    "duration": 0.675143
                },
                {
                    "name": "G2",
                    "midi": 43,
                    "time": 0.675143,
                    "velocity": 0.3858267716535433,
                    "duration": 0.675143
                },
                {
                    "name": "C3",
                    "midi": 48,
                    "time": 1.350286,
                    "velocity": 0.5118110236220472,
                    "duration": 0.6751429999999998
                },
                {
                    "name": "C2",
                    "midi": 36,
                    "time": 1.350286,
                    "velocity": 0.4330708661417323,
                    "duration": 0.6751429999999998
                },
                {
                    "name": "E4",
                    "midi": 64,
                    "time": 2.700572,
                    "velocity": 0.33070866141732286,
                    "duration": 0.33757150000000014
                },
                {
                    "name": "C4",
                    "midi": 60,
                    "time": 2.700572,
                    "velocity": 0.2755905511811024,
                    "duration": 0.6751430000000003
                },
                {
                    "name": "A4",
                    "midi": 69,
                    "time": 3.0381435000000003,
                    "velocity": 0.23622047244094488,
                    "duration": 0.33757150000000014
                },
                {
                    "name": "G4",
                    "midi": 67,
                    "time": 3.3757150000000005,
                    "velocity": 0.2992125984251969,
                    "duration": 0.33757150000000014
                },
                {
                    "name": "F4",
                    "midi": 65,
                    "time": 3.7132865000000006,
                    "velocity": 0.25984251968503935,
                    "duration": 0.33757150000000014
                },
                {
                    "name": "E4",
                    "midi": 64,
                    "time": 4.050858000000001,
                    "velocity": 0.41732283464566927,
                    "duration": 0.33757150000000014
                },
                {
                    "name": "C4",
                    "midi": 60,
                    "time": 4.388429500000001,
                    "velocity": 0.25196850393700787,
                    "duration": 0.33757150000000014
                },
                {
                    "name": "D4",
                    "midi": 62,
                    "time": 4.726001000000001,
                    "velocity": 0.3700787401574803,
                    "duration": 0.33757150000000014
                },
                {
                    "name": "G3",
                    "midi": 55,
                    "time": 5.063572500000001,
                    "velocity": 0.25196850393700787,
                    "duration": 0.33757150000000014
                },
                {
                    "name": "C4",
                    "midi": 60,
                    "time": 5.401144000000001,
                    "velocity": 0.36220472440944884,
                    "duration": 0.33757150000000014
                },
                {
                    "name": "C3",
                    "midi": 48,
                    "time": 5.738715500000001,
                    "velocity": 0.2755905511811024,
                    "duration": 0.33757150000000014
                },
                {
                    "name": "C4",
                    "midi": 60,
                    "time": 6.413858500000002,
                    "velocity": 0.31496062992125984,
                    "duration": 0.33757150000000014
                },
                {
                    "name": "B3",
                    "midi": 59,
                    "time": 6.751430000000002,
                    "velocity": 0.36220472440944884,
                    "duration": 0.33757150000000014
                },
                {
                    "name": "G3",
                    "midi": 55,
                    "time": 7.089001500000002,
                    "velocity": 0.2992125984251969,
                    "duration": 0.33757150000000014
                },
                {
                    "name": "A3",
                    "midi": 57,
                    "time": 7.426573000000002,
                    "velocity": 0.36220472440944884,
                    "duration": 0.33757150000000014
                },
                {
                    "name": "D3",
                    "midi": 50,
                    "time": 7.764144500000002,
                    "velocity": 0.33070866141732286,
                    "duration": 0.33757149999999925
                },
                {
                    "name": "G3",
                    "midi": 55,
                    "time": 8.101716000000001,
                    "velocity": 0.3543307086614173,
                    "duration": 0.33757149999999925
                },
                {
                    "name": "A3",
                    "midi": 57,
                    "time": 8.4392875,
                    "velocity": 0.3543307086614173,
                    "duration": 0.33757149999999925
                },
                {
                    "name": "B3",
                    "midi": 59,
                    "time": 8.776859,
                    "velocity": 0.3543307086614173,
                    "duration": 0.33757149999999925
                },
                {
                    "name": "C4",
                    "midi": 60,
                    "time": 9.1144305,
                    "velocity": 0.3700787401574803,
                    "duration": 0.33757149999999925
                },
                {
                    "name": "B3",
                    "midi": 59,
                    "time": 9.452001999999998,
                    "velocity": 0.41732283464566927,
                    "duration": 0.6751430000000003
                },
                {
                    "name": "A3",
                    "midi": 57,
                    "time": 10.127144999999999,
                    "velocity": 0.36220472440944884,
                    "duration": 0.33757149999999925
                },
                {
                    "name": "D3",
                    "midi": 50,
                    "time": 10.464716499999998,
                    "velocity": 0.31496062992125984,
                    "duration": 0.33757149999999925
                },
                {
                    "name": "G3",
                    "midi": 55,
                    "time": 10.802287999999997,
                    "velocity": 0.36220472440944884,
                    "duration": 0.33757149999999925
                },
                {
                    "name": "B3",
                    "midi": 59,
                    "time": 11.139859499999996,
                    "velocity": 0.30708661417322836,
                    "duration": 0.33757149999999925
                },
                {
                    "name": "C4",
                    "midi": 60,
                    "time": 11.477430999999996,
                    "velocity": 0.36220472440944884,
                    "duration": 0.33757149999999925
                },
                {
                    "name": "D4",
                    "midi": 62,
                    "time": 11.815002499999995,
                    "velocity": 0.3228346456692913,
                    "duration": 0.33757149999999925
                },
                {
                    "name": "G3",
                    "midi": 55,
                    "time": 12.152573999999994,
                    "velocity": 0.36220472440944884,
                    "duration": 0.33757149999999925
                },
                {
                    "name": "D3",
                    "midi": 50,
                    "time": 12.490145499999993,
                    "velocity": 0.30708661417322836,
                    "duration": 0.33757149999999925
                },
                {
                    "name": "G2",
                    "midi": 43,
                    "time": 12.827716999999993,
                    "velocity": 0.36220472440944884,
                    "duration": 0.5907501249999996
                },
                {
                    "name": "C4",
                    "midi": 60,
                    "time": 13.502859999999993,
                    "velocity": 0.5196850393700787,
                    "duration": 0.6751430000000003
                },
                {
                    "name": "C3",
                    "midi": 48,
                    "time": 13.502859999999993,
                    "velocity": 0.4409448818897638,
                    "duration": 0.6751430000000003
                },
                {
                    "name": "G3",
                    "midi": 55,
                    "time": 14.178002999999993,
                    "velocity": 0.4566929133858268,
                    "duration": 0.6751430000000003
                },
                {
                    "name": "G2",
                    "midi": 43,
                    "time": 14.178002999999993,
                    "velocity": 0.3858267716535433,
                    "duration": 0.6751430000000003
                },
                {
                    "name": "C3",
                    "midi": 48,
                    "time": 14.853145999999994,
                    "velocity": 0.5118110236220472,
                    "duration": 0.6751430000000003
                },
                {
                    "name": "C2",
                    "midi": 36,
                    "time": 14.853145999999994,
                    "velocity": 0.4330708661417323,
                    "duration": 0.6751430000000003
                },
                {
                    "name": "E4",
                    "midi": 64,
                    "time": 16.203431999999992,
                    "velocity": 0.33070866141732286,
                    "duration": 0.33757149999999925
                },
                {
                    "name": "C4",
                    "midi": 60,
                    "time": 16.203431999999992,
                    "velocity": 0.2755905511811024,
                    "duration": 0.6751429999999985
                },
                {
                    "name": "A4",
                    "midi": 69,
                    "time": 16.54100349999999,
                    "velocity": 0.23622047244094488,
                    "duration": 0.33757149999999925
                },
                {
                    "name": "G4",
                    "midi": 67,
                    "time": 16.87857499999999,
                    "velocity": 0.2992125984251969,
                    "duration": 0.33757149999999925
                },
                {
                    "name": "F4",
                    "midi": 65,
                    "time": 17.21614649999999,
                    "velocity": 0.25984251968503935,
                    "duration": 0.33757149999999925
                },
                {
                    "name": "E4",
                    "midi": 64,
                    "time": 17.55371799999999,
                    "velocity": 0.41732283464566927,
                    "duration": 0.33757149999999925
                },
                {
                    "name": "C4",
                    "midi": 60,
                    "time": 17.89128949999999,
                    "velocity": 0.25196850393700787,
                    "duration": 0.33757149999999925
                },
                {
                    "name": "D4",
                    "midi": 62,
                    "time": 18.228860999999988,
                    "velocity": 0.3700787401574803,
                    "duration": 0.33757149999999925
                },
                {
                    "name": "G3",
                    "midi": 55,
                    "time": 18.566432499999987,
                    "velocity": 0.25196850393700787,
                    "duration": 0.33757149999999925
                },
                {
                    "name": "C4",
                    "midi": 60,
                    "time": 18.904003999999986,
                    "velocity": 0.36220472440944884,
                    "duration": 0.33757149999999925
                },
                {
                    "name": "C3",
                    "midi": 48,
                    "time": 19.241575499999986,
                    "velocity": 0.2755905511811024,
                    "duration": 0.33757149999999925
                },
                {
                    "name": "C4",
                    "midi": 60,
                    "time": 19.916718499999984,
                    "velocity": 0.31496062992125984,
                    "duration": 0.33757149999999925
                },
                {
                    "name": "B3",
                    "midi": 59,
                    "time": 20.254289999999983,
                    "velocity": 0.36220472440944884,
                    "duration": 0.33757149999999925
                },
                {
                    "name": "G3",
                    "midi": 55,
                    "time": 20.591861499999982,
                    "velocity": 0.2992125984251969,
                    "duration": 0.33757149999999925
                },
                {
                    "name": "A3",
                    "midi": 57,
                    "time": 20.92943299999998,
                    "velocity": 0.36220472440944884,
                    "duration": 0.33757149999999925
                },
                {
                    "name": "D3",
                    "midi": 50,
                    "time": 21.26700449999998,
                    "velocity": 0.33070866141732286,
                    "duration": 0.33757149999999925
                },
                {
                    "name": "G3",
                    "midi": 55,
                    "time": 21.60457599999998,
                    "velocity": 0.3543307086614173,
                    "duration": 0.33757149999999925
                },
                {
                    "name": "A3",
                    "midi": 57,
                    "time": 21.94214749999998,
                    "velocity": 0.3543307086614173,
                    "duration": 0.33757149999999925
                },
                {
                    "name": "B3",
                    "midi": 59,
                    "time": 22.27971899999998,
                    "velocity": 0.3543307086614173,
                    "duration": 0.33757149999999925
                },
                {
                    "name": "C4",
                    "midi": 60,
                    "time": 22.617290499999978,
                    "velocity": 0.3700787401574803,
                    "duration": 0.33757149999999925
                },
                {
                    "name": "B3",
                    "midi": 59,
                    "time": 22.954861999999977,
                    "velocity": 0.41732283464566927,
                    "duration": 0.6751429999999985
                },
                {
                    "name": "A3",
                    "midi": 57,
                    "time": 23.630004999999976,
                    "velocity": 0.36220472440944884,
                    "duration": 0.33757149999999925
                },
                {
                    "name": "D3",
                    "midi": 50,
                    "time": 23.967576499999975,
                    "velocity": 0.31496062992125984,
                    "duration": 0.33757149999999925
                },
                {
                    "name": "G3",
                    "midi": 55,
                    "time": 24.305147999999974,
                    "velocity": 0.36220472440944884,
                    "duration": 0.33757149999999925
                },
                {
                    "name": "B3",
                    "midi": 59,
                    "time": 24.642719499999973,
                    "velocity": 0.30708661417322836,
                    "duration": 0.33757149999999925
                },
                {
                    "name": "C4",
                    "midi": 60,
                    "time": 24.980290999999973,
                    "velocity": 0.36220472440944884,
                    "duration": 0.33757149999999925
                },
                {
                    "name": "D4",
                    "midi": 62,
                    "time": 25.317862499999972,
                    "velocity": 0.3228346456692913,
                    "duration": 0.33757149999999925
                },
                {
                    "name": "G3",
                    "midi": 55,
                    "time": 25.65543399999997,
                    "velocity": 0.36220472440944884,
                    "duration": 0.33757149999999925
                },
                {
                    "name": "D3",
                    "midi": 50,
                    "time": 25.99300549999997,
                    "velocity": 0.30708661417322836,
                    "duration": 0.33757149999999925
                },
                {
                    "name": "G2",
                    "midi": 43,
                    "time": 26.33057699999997,
                    "velocity": 0.36220472440944884,
                    "duration": 0.5907501249999996
                },
                {
                    "name": "G3",
                    "midi": 55,
                    "time": 27.005719999999968,
                    "velocity": 0.5118110236220472,
                    "duration": 0.6751429999999985
                },
                {
                    "name": "G2",
                    "midi": 43,
                    "time": 27.005719999999968,
                    "velocity": 0.4330708661417323,
                    "duration": 0.6751429999999985
                },
                {
                    "name": "G3",
                    "midi": 55,
                    "time": 28.356005999999965,
                    "velocity": 0.2992125984251969,
                    "duration": 1.350285999999997
                },
                {
                    "name": "E4",
                    "midi": 64,
                    "time": 28.693577499999964,
                    "velocity": 0.23622047244094488,
                    "duration": 0.33757149999999925
                },
                {
                    "name": "D4",
                    "midi": 62,
                    "time": 29.031148999999964,
                    "velocity": 0.2992125984251969,
                    "duration": 0.33757149999999925
                },
                {
                    "name": "C4",
                    "midi": 60,
                    "time": 29.368720499999963,
                    "velocity": 0.25984251968503935,
                    "duration": 0.33757149999999925
                },
                {
                    "name": "D4",
                    "midi": 62,
                    "time": 29.706291999999962,
                    "velocity": 0.4015748031496063,
                    "duration": 0.6751429999999985
                },
                {
                    "name": "G3",
                    "midi": 55,
                    "time": 29.706291999999962,
                    "velocity": 0.4015748031496063,
                    "duration": 0.6751429999999985
                },
                {
                    "name": "G3",
                    "midi": 55,
                    "time": 31.394149499999962,
                    "velocity": 0.23622047244094488,
                    "duration": 0.33757149999999925
                },
                {
                    "name": "A3",
                    "midi": 57,
                    "time": 31.73172099999996,
                    "velocity": 0.2755905511811024,
                    "duration": 0.33757149999999925
                },
                {
                    "name": "B3",
                    "midi": 59,
                    "time": 32.06929249999996,
                    "velocity": 0.25984251968503935,
                    "duration": 0.3375715000000028
                },
                {
                    "name": "C4",
                    "midi": 60,
                    "time": 32.40686399999996,
                    "velocity": 0.36220472440944884,
                    "duration": 0.3375715000000028
                },
                {
                    "name": "E3",
                    "midi": 52,
                    "time": 32.744435499999966,
                    "velocity": 0.2992125984251969,
                    "duration": 0.3375715000000028
                },
                {
                    "name": "F3",
                    "midi": 53,
                    "time": 33.08200699999997,
                    "velocity": 0.36220472440944884,
                    "duration": 0.3375715000000028
                },
                {
                    "name": "D3",
                    "midi": 50,
                    "time": 33.41957849999997,
                    "velocity": 0.33070866141732286,
                    "duration": 0.3375715000000028
                },
                {
                    "name": "G3",
                    "midi": 55,
                    "time": 33.757149999999974,
                    "velocity": 0.36220472440944884,
                    "duration": 0.3375715000000028
                },
                {
                    "name": "G2",
                    "midi": 43,
                    "time": 34.09472149999998,
                    "velocity": 0.2992125984251969,
                    "duration": 0.3375715000000028
                },
                {
                    "name": "G3",
                    "midi": 55,
                    "time": 34.43229299999998,
                    "velocity": 0.3858267716535433,
                    "duration": 0.16878574999999785
                },
                {
                    "name": "F3",
                    "midi": 53,
                    "time": 34.60107874999998,
                    "velocity": 0.3700787401574803,
                    "duration": 0.16878574999999785
                },
                {
                    "name": "E3",
                    "midi": 52,
                    "time": 34.769864499999976,
                    "velocity": 0.36220472440944884,
                    "duration": 0.16878574999999785
                },
                {
                    "name": "D3",
                    "midi": 50,
                    "time": 34.938650249999974,
                    "velocity": 0.2992125984251969,
                    "duration": 0.16878574999999785
                },
                {
                    "name": "C3",
                    "midi": 48,
                    "time": 35.10743599999997,
                    "velocity": 0.5196850393700787,
                    "duration": 0.6751429999999985
                },
                {
                    "name": "G3",
                    "midi": 55,
                    "time": 35.78257899999997,
                    "velocity": 0.4566929133858268,
                    "duration": 0.6751429999999985
                },
                {
                    "name": "C4",
                    "midi": 60,
                    "time": 36.45772199999997,
                    "velocity": 0.5118110236220472,
                    "duration": 0.6751429999999985
                },
                {
                    "name": "E4",
                    "midi": 64,
                    "time": 37.808007999999965,
                    "velocity": 0.33070866141732286,
                    "duration": 0.3375715000000028
                },
                {
                    "name": "C4",
                    "midi": 60,
                    "time": 37.808007999999965,
                    "velocity": 0.2755905511811024,
                    "duration": 0.6751430000000056
                },
                {
                    "name": "A4",
                    "midi": 69,
                    "time": 38.14557949999997,
                    "velocity": 0.23622047244094488,
                    "duration": 0.3375715000000028
                },
                {
                    "name": "G4",
                    "midi": 67,
                    "time": 38.48315099999997,
                    "velocity": 0.2992125984251969,
                    "duration": 0.3375715000000028
                },
                {
                    "name": "F4",
                    "midi": 65,
                    "time": 38.820722499999974,
                    "velocity": 0.25984251968503935,
                    "duration": 0.3375715000000028
                },
                {
                    "name": "E4",
                    "midi": 64,
                    "time": 39.15829399999998,
                    "velocity": 0.41732283464566927,
                    "duration": 0.3375715000000028
                },
                {
                    "name": "C4",
                    "midi": 60,
                    "time": 39.49586549999998,
                    "velocity": 0.25196850393700787,
                    "duration": 0.3375715000000028
                },
                {
                    "name": "D4",
                    "midi": 62,
                    "time": 39.83343699999998,
                    "velocity": 0.3700787401574803,
                    "duration": 0.3375715000000028
                },
                {
                    "name": "G3",
                    "midi": 55,
                    "time": 40.171008499999985,
                    "velocity": 0.25196850393700787,
                    "duration": 0.3375715000000028
                },
                {
                    "name": "C4",
                    "midi": 60,
                    "time": 40.50857999999999,
                    "velocity": 0.36220472440944884,
                    "duration": 0.3375715000000028
                },
                {
                    "name": "E3",
                    "midi": 52,
                    "time": 40.84615149999999,
                    "velocity": 0.2992125984251969,
                    "duration": 0.3375715000000028
                },
                {
                    "name": "F3",
                    "midi": 53,
                    "time": 41.18372299999999,
                    "velocity": 0.36220472440944884,
                    "duration": 0.6751429999999985
                },
                {
                    "name": "E3",
                    "midi": 52,
                    "time": 41.85886599999999,
                    "velocity": 0.41732283464566927,
                    "duration": 0.3375715000000028
                },
                {
                    "name": "A3",
                    "midi": 57,
                    "time": 42.196437499999995,
                    "velocity": 0.25196850393700787,
                    "duration": 0.3375715000000028
                },
                {
                    "name": "F3",
                    "midi": 53,
                    "time": 42.534009,
                    "velocity": 0.3700787401574803,
                    "duration": 0.3375715000000028
                },
                {
                    "name": "G3",
                    "midi": 55,
                    "time": 42.8715805,
                    "velocity": 0.25196850393700787,
                    "duration": 0.3375715000000028
                },
                {
                    "name": "C3",
                    "midi": 48,
                    "time": 43.209152,
                    "velocity": 0.36220472440944884,
                    "duration": 0.3375715000000028
                },
                {
                    "name": "G2",
                    "midi": 43,
                    "time": 43.546723500000006,
                    "velocity": 0.2755905511811024,
                    "duration": 0.3375714999999957
                },
                {
                    "name": "C2",
                    "midi": 36,
                    "time": 43.86460332916667,
                    "velocity": 0.36220472440944884,
                    "duration": 0.5063572500000006
                },
                {
                    "name": "G3",
                    "midi": 55,
                    "time": 44.55943800000001,
                    "velocity": 0.5118110236220472,
                    "duration": 0.6751429999999985
                },
                {
                    "name": "G2",
                    "midi": 43,
                    "time": 44.55943800000001,
                    "velocity": 0.4330708661417323,
                    "duration": 0.6751429999999985
                },
                {
                    "name": "G3",
                    "midi": 55,
                    "time": 45.909724000000004,
                    "velocity": 0.2992125984251969,
                    "duration": 1.3502860000000112
                },
                {
                    "name": "E4",
                    "midi": 64,
                    "time": 46.24729550000001,
                    "velocity": 0.23622047244094488,
                    "duration": 0.3375715000000028
                },
                {
                    "name": "D4",
                    "midi": 62,
                    "time": 46.58486700000001,
                    "velocity": 0.2992125984251969,
                    "duration": 0.3375715000000028
                },
                {
                    "name": "C4",
                    "midi": 60,
                    "time": 46.92243850000001,
                    "velocity": 0.25984251968503935,
                    "duration": 0.3375715000000028
                },
                {
                    "name": "D4",
                    "midi": 62,
                    "time": 47.260010000000015,
                    "velocity": 0.3858267716535433,
                    "duration": 0.6751429999999985
                },
                {
                    "name": "G3",
                    "midi": 55,
                    "time": 47.260010000000015,
                    "velocity": 0.3858267716535433,
                    "duration": 0.6751429999999985
                },
                {
                    "name": "G3",
                    "midi": 55,
                    "time": 48.947867500000015,
                    "velocity": 0.23622047244094488,
                    "duration": 0.3375715000000028
                },
                {
                    "name": "A3",
                    "midi": 57,
                    "time": 49.28543900000002,
                    "velocity": 0.2755905511811024,
                    "duration": 0.3375715000000028
                },
                {
                    "name": "B3",
                    "midi": 59,
                    "time": 49.62301050000002,
                    "velocity": 0.25984251968503935,
                    "duration": 0.3375715000000028
                },
                {
                    "name": "C4",
                    "midi": 60,
                    "time": 49.960582000000024,
                    "velocity": 0.36220472440944884,
                    "duration": 0.3375715000000028
                },
                {
                    "name": "E3",
                    "midi": 52,
                    "time": 50.298153500000026,
                    "velocity": 0.2992125984251969,
                    "duration": 0.3375715000000028
                },
                {
                    "name": "F3",
                    "midi": 53,
                    "time": 50.63572500000003,
                    "velocity": 0.36220472440944884,
                    "duration": 0.3375715000000028
                },
                {
                    "name": "D3",
                    "midi": 50,
                    "time": 50.97329650000003,
                    "velocity": 0.33070866141732286,
                    "duration": 0.3375715000000028
                },
                {
                    "name": "G3",
                    "midi": 55,
                    "time": 51.310868000000035,
                    "velocity": 0.36220472440944884,
                    "duration": 0.3375715000000028
                },
                {
                    "name": "G2",
                    "midi": 43,
                    "time": 51.64843950000004,
                    "velocity": 0.2992125984251969,
                    "duration": 0.3375715000000028
                },
                {
                    "name": "G3",
                    "midi": 55,
                    "time": 51.98601100000004,
                    "velocity": 0.3858267716535433,
                    "duration": 0.16878574999999785
                },
                {
                    "name": "F3",
                    "midi": 53,
                    "time": 52.15479675000004,
                    "velocity": 0.3700787401574803,
                    "duration": 0.16878574999999785
                },
                {
                    "name": "E3",
                    "midi": 52,
                    "time": 52.323582500000036,
                    "velocity": 0.36220472440944884,
                    "duration": 0.16878574999999785
                },
                {
                    "name": "D3",
                    "midi": 50,
                    "time": 52.492368250000034,
                    "velocity": 0.2992125984251969,
                    "duration": 0.16878574999999785
                },
                {
                    "name": "C3",
                    "midi": 48,
                    "time": 52.66115400000003,
                    "velocity": 0.5196850393700787,
                    "duration": 0.6751429999999985
                },
                {
                    "name": "G3",
                    "midi": 55,
                    "time": 53.33629700000003,
                    "velocity": 0.4566929133858268,
                    "duration": 0.6751429999999985
                },
                {
                    "name": "C4",
                    "midi": 60,
                    "time": 54.01144000000003,
                    "velocity": 0.5118110236220472,
                    "duration": 0.6751429999999985
                },
                {
                    "name": "E4",
                    "midi": 64,
                    "time": 55.361726000000026,
                    "velocity": 0.33070866141732286,
                    "duration": 0.3375715000000028
                },
                {
                    "name": "C4",
                    "midi": 60,
                    "time": 55.361726000000026,
                    "velocity": 0.2755905511811024,
                    "duration": 0.6751430000000056
                },
                {
                    "name": "A4",
                    "midi": 69,
                    "time": 55.69929750000003,
                    "velocity": 0.23622047244094488,
                    "duration": 0.3375715000000028
                },
                {
                    "name": "G4",
                    "midi": 67,
                    "time": 56.03686900000003,
                    "velocity": 0.2992125984251969,
                    "duration": 0.3375715000000028
                },
                {
                    "name": "F4",
                    "midi": 65,
                    "time": 56.374440500000034,
                    "velocity": 0.25984251968503935,
                    "duration": 0.3375715000000028
                },
                {
                    "name": "E4",
                    "midi": 64,
                    "time": 56.71201200000004,
                    "velocity": 0.41732283464566927,
                    "duration": 0.3375715000000028
                },
                {
                    "name": "C4",
                    "midi": 60,
                    "time": 57.04958350000004,
                    "velocity": 0.25196850393700787,
                    "duration": 0.3375715000000028
                },
                {
                    "name": "D4",
                    "midi": 62,
                    "time": 57.38715500000004,
                    "velocity": 0.3700787401574803,
                    "duration": 0.3375715000000028
                },
                {
                    "name": "G3",
                    "midi": 55,
                    "time": 57.724726500000045,
                    "velocity": 0.25196850393700787,
                    "duration": 0.3375715000000028
                },
                {
                    "name": "C4",
                    "midi": 60,
                    "time": 58.06229800000005,
                    "velocity": 0.36220472440944884,
                    "duration": 0.3375715000000028
                },
                {
                    "name": "E3",
                    "midi": 52,
                    "time": 58.39986950000005,
                    "velocity": 0.2992125984251969,
                    "duration": 0.3375715000000028
                },
                {
                    "name": "F3",
                    "midi": 53,
                    "time": 58.737441000000054,
                    "velocity": 0.36220472440944884,
                    "duration": 0.6751429999999985
                },
                {
                    "name": "E3",
                    "midi": 52,
                    "time": 59.41258400000005,
                    "velocity": 0.41732283464566927,
                    "duration": 0.3375715000000028
                },
                {
                    "name": "A3",
                    "midi": 57,
                    "time": 59.750155500000055,
                    "velocity": 0.25196850393700787,
                    "duration": 0.3375715000000028
                },
                {
                    "name": "F3",
                    "midi": 53,
                    "time": 60.08772700000006,
                    "velocity": 0.3700787401574803,
                    "duration": 0.3375715000000028
                },
                {
                    "name": "G3",
                    "midi": 55,
                    "time": 60.42529850000006,
                    "velocity": 0.25196850393700787,
                    "duration": 0.3375715000000028
                },
                {
                    "name": "C3",
                    "midi": 48,
                    "time": 60.76287000000006,
                    "velocity": 0.36220472440944884,
                    "duration": 0.3375715000000028
                },
                {
                    "name": "G2",
                    "midi": 43,
                    "time": 61.100441500000066,
                    "velocity": 0.2755905511811024,
                    "duration": 0.3375714999999957
                },
                {
                    "name": "C2",
                    "midi": 36,
                    "time": 61.41832132916673,
                    "velocity": 0.36220472440944884,
                    "duration": 0.6751429999999985
                }
            ],
            "controlChanges": {},
            "id": 2,
            "name": "Piano left",
            "instrumentNumber": 0,
            "instrument": "acoustic grand piano",
            "instrumentFamily": "piano",
            "channelNumber": 0,
            "isPercussion": false
        },
        {
            "startTime": 0,
            "duration": 0,
            "length": 0,
            "notes": [],
            "controlChanges": {
                "64": [
                    {
                        "number": 64,
                        "time": 0.10267799791666667,
                        "value": 1
                    },
                    {
                        "number": 64,
                        "time": 0.6906150270833333,
                        "value": 0
                    },
                    {
                        "number": 64,
                        "time": 0.7285918208333333,
                        "value": 1
                    },
                    {
                        "number": 64,
                        "time": 1.3277812333333334,
                        "value": 0
                    },
                    {
                        "number": 64,
                        "time": 4.806174231250001,
                        "value": 1
                    },
                    {
                        "number": 64,
                        "time": 5.406770191666667,
                        "value": 0
                    },
                    {
                        "number": 64,
                        "time": 8.131253506250001,
                        "value": 1
                    },
                    {
                        "number": 64,
                        "time": 8.45194643125,
                        "value": 0
                    },
                    {
                        "number": 64,
                        "time": 8.558844072916667,
                        "value": 1
                    },
                    {
                        "number": 64,
                        "time": 8.8021768625,
                        "value": 0
                    },
                    {
                        "number": 64,
                        "time": 8.906261408333332,
                        "value": 1
                    },
                    {
                        "number": 64,
                        "time": 9.129902527083333,
                        "value": 0
                    },
                    {
                        "number": 64,
                        "time": 9.233987072916666,
                        "value": 1
                    },
                    {
                        "number": 64,
                        "time": 9.452001999999998,
                        "value": 0
                    },
                    {
                        "number": 64,
                        "time": 11.522440533333333,
                        "value": 1
                    },
                    {
                        "number": 64,
                        "time": 11.822035239583332,
                        "value": 0
                    },
                    {
                        "number": 64,
                        "time": 11.868451320833332,
                        "value": 1
                    },
                    {
                        "number": 64,
                        "time": 12.152573999999998,
                        "value": 0
                    },
                    {
                        "number": 64,
                        "time": 12.470453829166665,
                        "value": 1
                    },
                    {
                        "number": 64,
                        "time": 13.408621289583332,
                        "value": 0
                    },
                    {
                        "number": 64,
                        "time": 13.605537997916665,
                        "value": 1
                    },
                    {
                        "number": 64,
                        "time": 14.193475027083332,
                        "value": 0
                    },
                    {
                        "number": 64,
                        "time": 14.231451820833332,
                        "value": 1
                    },
                    {
                        "number": 64,
                        "time": 14.830641233333331,
                        "value": 0
                    },
                    {
                        "number": 64,
                        "time": 18.30903423125,
                        "value": 1
                    },
                    {
                        "number": 64,
                        "time": 18.909630191666665,
                        "value": 0
                    },
                    {
                        "number": 64,
                        "time": 21.63411350625,
                        "value": 1
                    },
                    {
                        "number": 64,
                        "time": 21.95480643125,
                        "value": 0
                    },
                    {
                        "number": 64,
                        "time": 22.061704072916665,
                        "value": 1
                    },
                    {
                        "number": 64,
                        "time": 22.3050368625,
                        "value": 0
                    },
                    {
                        "number": 64,
                        "time": 22.409121408333334,
                        "value": 1
                    },
                    {
                        "number": 64,
                        "time": 22.632762527083333,
                        "value": 0
                    },
                    {
                        "number": 64,
                        "time": 22.736847072916667,
                        "value": 1
                    },
                    {
                        "number": 64,
                        "time": 22.954862000000002,
                        "value": 0
                    },
                    {
                        "number": 64,
                        "time": 25.025300533333336,
                        "value": 1
                    },
                    {
                        "number": 64,
                        "time": 25.324895239583338,
                        "value": 0
                    },
                    {
                        "number": 64,
                        "time": 25.37131132083334,
                        "value": 1
                    },
                    {
                        "number": 64,
                        "time": 25.655434000000007,
                        "value": 0
                    },
                    {
                        "number": 64,
                        "time": 25.973313829166674,
                        "value": 1
                    },
                    {
                        "number": 64,
                        "time": 26.917107481250007,
                        "value": 0
                    },
                    {
                        "number": 64,
                        "time": 35.21011399791667,
                        "value": 1
                    },
                    {
                        "number": 64,
                        "time": 35.79805102708334,
                        "value": 0
                    },
                    {
                        "number": 64,
                        "time": 35.83602782083334,
                        "value": 1
                    },
                    {
                        "number": 64,
                        "time": 36.43521723333334,
                        "value": 0
                    },
                    {
                        "number": 64,
                        "time": 39.913610231250004,
                        "value": 1
                    },
                    {
                        "number": 64,
                        "time": 40.50858,
                        "value": 0
                    },
                    {
                        "number": 64,
                        "time": 42.614182231250005,
                        "value": 1
                    },
                    {
                        "number": 64,
                        "time": 43.214778191666674,
                        "value": 0
                    },
                    {
                        "number": 64,
                        "time": 52.763831997916675,
                        "value": 1
                    },
                    {
                        "number": 64,
                        "time": 53.35176902708334,
                        "value": 0
                    },
                    {
                        "number": 64,
                        "time": 53.38974582083334,
                        "value": 1
                    },
                    {
                        "number": 64,
                        "time": 53.98893523333334,
                        "value": 0
                    },
                    {
                        "number": 64,
                        "time": 57.46732823125001,
                        "value": 1
                    },
                    {
                        "number": 64,
                        "time": 58.062298000000006,
                        "value": 0
                    },
                    {
                        "number": 64,
                        "time": 60.16790023125001,
                        "value": 1
                    },
                    {
                        "number": 64,
                        "time": 60.76849619166668,
                        "value": 0
                    }
                ]
            },
            "id": 3,
            "name": "Pedale",
            "instrumentNumber": 0,
            "instrument": "acoustic grand piano",
            "instrumentFamily": "piano",
            "channelNumber": 0,
            "isPercussion": false
        },
        {
            "startTime": 0,
            "duration": 0,
            "length": 0,
            "notes": [],
            "controlChanges": {},
            "id": 4,
            "name": "Haydn Piano Sonata in C major, 1. movement"
        },
        {
            "startTime": 0,
            "duration": 0,
            "length": 0,
            "notes": [],
            "controlChanges": {},
            "id": 5,
            "name": "Copyright  2010 by Bernd Krueger"
        },
        {
            "startTime": 0,
            "duration": 0,
            "length": 0,
            "notes": [],
            "controlChanges": {},
            "id": 6,
            "name": "http://www.piano-midi.de/"
        },
        {
            "startTime": 0,
            "duration": 0,
            "length": 0,
            "notes": [],
            "controlChanges": {},
            "id": 7,
            "name": "Edition: 2011-10-20"
        },
        {
            "startTime": 0,
            "duration": 0,
            "length": 0,
            "notes": [],
            "controlChanges": {},
            "id": 8,
            "name": "Spur 8"
        },
        {
            "startTime": 0,
            "duration": 0,
            "length": 0,
            "notes": [],
            "controlChanges": {},
            "id": 9,
            "name": "Spur 9"
        },
        {
            "startTime": 0,
            "duration": 0,
            "length": 0,
            "notes": [],
            "controlChanges": {},
            "id": 10,
            "name": "Spur 10"
        },
        {
            "startTime": 0,
            "duration": 0,
            "length": 0,
            "notes": [],
            "controlChanges": {},
            "id": 11,
            "name": "Spur 11"
        },
        {
            "startTime": 0,
            "duration": 0,
            "length": 0,
            "notes": [],
            "controlChanges": {},
            "id": 12,
            "name": "Spur 12"
        },
        {
            "startTime": 0,
            "duration": 0,
            "length": 0,
            "notes": [],
            "controlChanges": {},
            "id": 13,
            "name": "Spur 13"
        },
        {
            "startTime": 0,
            "duration": 0,
            "length": 0,
            "notes": [],
            "controlChanges": {},
            "id": 14,
            "name": "Spur 14"
        },
        {
            "startTime": 0,
            "duration": 0,
            "length": 0,
            "notes": [],
            "controlChanges": {},
            "id": 15,
            "name": "Spur 15"
        },
        {
            "startTime": 0,
            "duration": 0,
            "length": 0,
            "notes": [],
            "controlChanges": {},
            "id": 16,
            "name": "Spur 16"
        }
    ]
}