{
    "header": {
        "PPQ": 480,
        "timeSignature": [
            4,
            4
        ],
        "bpm": 173.53980713942767,
        "name": "Sonate XVI:35 1. Satz"
    },
    "startTime": 0,
    "duration": 328.1091580000045,
    "tracks": [
        {
            "startTime": 0,
            "duration": 0,
            "length": 0,
            "notes": [],
            "controlChanges": {},
            "id": 0,
            "name": "Sonate XVI:35 1. Satz"
        },
        {
            "startTime": 1.037226,
            "duration": 328.1091579999995,
            "length": 1684,
            "notes": [
                {
                    "name": "C5",
                    "midi": 72,
                    "time": 1.037226,
                    "velocity": 0.3937007874015748,
                    "duration": 0.2593065000000001
                },
                {
                    "name": "E5",
                    "midi": 76,
                    "time": 1.2965325,
                    "velocity": 0.3937007874015748,
                    "duration": 0.08643549999999989
                },
                {
                    "name": "G5",
                    "midi": 79,
                    "time": 1.382968,
                    "velocity": 0.44881889763779526,
                    "duration": 0.08643549999999989
                },
                {
                    "name": "G5",
                    "midi": 79,
                    "time": 1.72871,
                    "velocity": 0.3937007874015748,
                    "duration": 0.08643549999999989
                },
                {
                    "name": "G5",
                    "midi": 79,
                    "time": 2.074452,
                    "velocity": 0.3937007874015748,
                    "duration": 0.08643549999999989
                },
                {
                    "name": "B5",
                    "midi": 83,
                    "time": 2.37697625,
                    "velocity": 0.47244094488188976,
                    "duration": 0.043217750000000166
                },
                {
                    "name": "C6",
                    "midi": 84,
                    "time": 2.420194,
                    "velocity": 0.5590551181102362,
                    "duration": 0.08643549999999989
                },
                {
                    "name": "G5",
                    "midi": 79,
                    "time": 2.765936,
                    "velocity": 0.3937007874015748,
                    "duration": 0.08643549999999989
                },
                {
                    "name": "G5",
                    "midi": 79,
                    "time": 3.111678,
                    "velocity": 0.33858267716535434,
                    "duration": 0.08643549999999989
                },
                {
                    "name": "G5",
                    "midi": 79,
                    "time": 3.45742,
                    "velocity": 0.33858267716535434,
                    "duration": 0.08643549999999989
                },
                {
                    "name": "E5",
                    "midi": 76,
                    "time": 3.803162,
                    "velocity": 0.3937007874015748,
                    "duration": 0.25930649999999966
                },
                {
                    "name": "C5",
                    "midi": 72,
                    "time": 4.0624685,
                    "velocity": 0.3937007874015748,
                    "duration": 0.08643550000000033
                },
                {
                    "name": "B4",
                    "midi": 71,
                    "time": 4.148904,
                    "velocity": 0.44881889763779526,
                    "duration": 0.08643550000000033
                },
                {
                    "name": "B4",
                    "midi": 71,
                    "time": 4.494646,
                    "velocity": 0.41732283464566927,
                    "duration": 0.08643550000000033
                },
                {
                    "name": "C5",
                    "midi": 72,
                    "time": 4.840388000000001,
                    "velocity": 0.44881889763779526,
                    "duration": 0.08643550000000033
                },
                {
                    "name": "C5",
                    "midi": 72,
                    "time": 5.186130000000001,
                    "velocity": 0.4094488188976378,
                    "duration": 0.08643550000000033
                },
                {
                    "name": "D5",
                    "midi": 74,
                    "time": 5.531872000000002,
                    "velocity": 0.44881889763779526,
                    "duration": 0.34574199999999955
                },
                {
                    "name": "G4",
                    "midi": 67,
                    "time": 6.569098000000001,
                    "velocity": 0.3937007874015748,
                    "duration": 0.2593065000000001
                },
                {
                    "name": "D5",
                    "midi": 74,
                    "time": 6.828404500000001,
                    "velocity": 0.3700787401574803,
                    "duration": 0.08643550000000033
                },
                {
                    "name": "F5",
                    "midi": 77,
                    "time": 6.914840000000002,
                    "velocity": 0.4566929133858268,
                    "duration": 0.08643550000000033
                },
                {
                    "name": "F5",
                    "midi": 77,
                    "time": 7.260582000000002,
                    "velocity": 0.3937007874015748,
                    "duration": 0.2593065000000001
                },
                {
                    "name": "G5",
                    "midi": 79,
                    "time": 7.519888500000002,
                    "velocity": 0.3779527559055118,
                    "duration": 0.08643550000000033
                },
                {
                    "name": "E5",
                    "midi": 76,
                    "time": 7.6063240000000025,
                    "velocity": 0.4566929133858268,
                    "duration": 0.08643550000000033
                },
                {
                    "name": "E5",
                    "midi": 76,
                    "time": 7.952066000000003,
                    "velocity": 0.3937007874015748,
                    "duration": 0.2593065000000001
                },
                {
                    "name": "F5",
                    "midi": 77,
                    "time": 8.211372500000003,
                    "velocity": 0.3937007874015748,
                    "duration": 0.08643550000000033
                },
                {
                    "name": "D5",
                    "midi": 74,
                    "time": 8.297808000000003,
                    "velocity": 0.4645669291338583,
                    "duration": 0.08643550000000033
                },
                {
                    "name": "D5",
                    "midi": 74,
                    "time": 8.643550000000003,
                    "velocity": 0.3937007874015748,
                    "duration": 0.2593064999999992
                },
                {
                    "name": "E5",
                    "midi": 76,
                    "time": 8.902856500000002,
                    "velocity": 0.3700787401574803,
                    "duration": 0.08643550000000033
                },
                {
                    "name": "C5",
                    "midi": 72,
                    "time": 8.989292000000003,
                    "velocity": 0.44881889763779526,
                    "duration": 0.08643550000000033
                },
                {
                    "name": "C5",
                    "midi": 72,
                    "time": 9.335034000000002,
                    "velocity": 0.4094488188976378,
                    "duration": 0.08643550000000033
                },
                {
                    "name": "D5",
                    "midi": 74,
                    "time": 9.680776000000002,
                    "velocity": 0.44881889763779526,
                    "duration": 0.08643550000000033
                },
                {
                    "name": "D5",
                    "midi": 74,
                    "time": 10.026518000000001,
                    "velocity": 0.4094488188976378,
                    "duration": 0.08643550000000033
                },
                {
                    "name": "B4",
                    "midi": 71,
                    "time": 10.37226,
                    "velocity": 0.4566929133858268,
                    "duration": 0.08643550000000033
                },
                {
                    "name": "B4",
                    "midi": 71,
                    "time": 10.718002,
                    "velocity": 0.4094488188976378,
                    "duration": 0.08643550000000033
                },
                {
                    "name": "C5",
                    "midi": 72,
                    "time": 11.063744,
                    "velocity": 0.49606299212598426,
                    "duration": 0.34574199999999955
                },
                {
                    "name": "C5",
                    "midi": 72,
                    "time": 12.10097,
                    "velocity": 0.5433070866141733,
                    "duration": 0.2593064999999992
                },
                {
                    "name": "E5",
                    "midi": 76,
                    "time": 12.3602765,
                    "velocity": 0.5590551181102362,
                    "duration": 0.08643550000000033
                },
                {
                    "name": "G5",
                    "midi": 79,
                    "time": 12.446712,
                    "velocity": 0.6535433070866141,
                    "duration": 0.08643550000000033
                },
                {
                    "name": "G5",
                    "midi": 79,
                    "time": 12.792454,
                    "velocity": 0.5905511811023622,
                    "duration": 0.08643550000000033
                },
                {
                    "name": "G5",
                    "midi": 79,
                    "time": 13.138195999999999,
                    "velocity": 0.5984251968503937,
                    "duration": 0.08643550000000033
                },
                {
                    "name": "B5",
                    "midi": 83,
                    "time": 13.44072025,
                    "velocity": 0.6141732283464567,
                    "duration": 0.043217750000000166
                },
                {
                    "name": "C6",
                    "midi": 84,
                    "time": 13.483938,
                    "velocity": 0.7244094488188977,
                    "duration": 0.34574199999999955
                },
                {
                    "name": "G5",
                    "midi": 79,
                    "time": 13.82968,
                    "velocity": 0.6692913385826772,
                    "duration": 0.08643550000000033
                },
                {
                    "name": "G5",
                    "midi": 79,
                    "time": 14.175422,
                    "velocity": 0.5826771653543307,
                    "duration": 0.08643550000000033
                },
                {
                    "name": "G5",
                    "midi": 79,
                    "time": 14.521163999999999,
                    "velocity": 0.5826771653543307,
                    "duration": 0.08643550000000033
                },
                {
                    "name": "F5",
                    "midi": 77,
                    "time": 14.866905999999998,
                    "velocity": 0.5433070866141733,
                    "duration": 0.08643550000000033
                },
                {
                    "name": "E5",
                    "midi": 76,
                    "time": 14.953341499999999,
                    "velocity": 0.47244094488188976,
                    "duration": 0.08643550000000033
                },
                {
                    "name": "D5",
                    "midi": 74,
                    "time": 15.039776999999999,
                    "velocity": 0.47244094488188976,
                    "duration": 0.08643550000000033
                },
                {
                    "name": "C5",
                    "midi": 72,
                    "time": 15.1262125,
                    "velocity": 0.47244094488188976,
                    "duration": 0.08643550000000033
                },
                {
                    "name": "B4",
                    "midi": 71,
                    "time": 15.212648,
                    "velocity": 0.5826771653543307,
                    "duration": 0.08643550000000033
                },
                {
                    "name": "B4",
                    "midi": 71,
                    "time": 15.55839,
                    "velocity": 0.5354330708661418,
                    "duration": 0.08643550000000033
                },
                {
                    "name": "C5",
                    "midi": 72,
                    "time": 15.904131999999999,
                    "velocity": 0.5826771653543307,
                    "duration": 0.08643550000000033
                },
                {
                    "name": "C5",
                    "midi": 72,
                    "time": 16.249874,
                    "velocity": 0.5275590551181102,
                    "duration": 0.08643550000000033
                },
                {
                    "name": "D5",
                    "midi": 74,
                    "time": 16.595616,
                    "velocity": 0.5826771653543307,
                    "duration": 0.3457420000000013
                },
                {
                    "name": "G4",
                    "midi": 67,
                    "time": 17.632842,
                    "velocity": 0.5118110236220472,
                    "duration": 0.259306500000001
                },
                {
                    "name": "D5",
                    "midi": 74,
                    "time": 17.8921485,
                    "velocity": 0.48031496062992124,
                    "duration": 0.08643550000000033
                },
                {
                    "name": "F5",
                    "midi": 77,
                    "time": 17.978584,
                    "velocity": 0.5905511811023622,
                    "duration": 0.08643550000000033
                },
                {
                    "name": "F5",
                    "midi": 77,
                    "time": 18.324326000000003,
                    "velocity": 0.5118110236220472,
                    "duration": 0.259306500000001
                },
                {
                    "name": "G5",
                    "midi": 79,
                    "time": 18.583632500000004,
                    "velocity": 0.4881889763779528,
                    "duration": 0.08643550000000033
                },
                {
                    "name": "E5",
                    "midi": 76,
                    "time": 18.670068000000004,
                    "velocity": 0.5905511811023622,
                    "duration": 0.08643550000000033
                },
                {
                    "name": "E5",
                    "midi": 76,
                    "time": 19.015810000000005,
                    "velocity": 0.5118110236220472,
                    "duration": 0.259306500000001
                },
                {
                    "name": "F5",
                    "midi": 77,
                    "time": 19.275116500000006,
                    "velocity": 0.5118110236220472,
                    "duration": 0.08643550000000033
                },
                {
                    "name": "D5",
                    "midi": 74,
                    "time": 19.361552000000007,
                    "velocity": 0.5984251968503937,
                    "duration": 0.08643550000000033
                },
                {
                    "name": "D5",
                    "midi": 74,
                    "time": 19.707294000000008,
                    "velocity": 0.5118110236220472,
                    "duration": 0.259306500000001
                },
                {
                    "name": "E5",
                    "midi": 76,
                    "time": 19.96660050000001,
                    "velocity": 0.48031496062992124,
                    "duration": 0.08643550000000033
                },
                {
                    "name": "C5",
                    "midi": 72,
                    "time": 20.05303600000001,
                    "velocity": 0.5826771653543307,
                    "duration": 0.08643550000000033
                },
                {
                    "name": "C5",
                    "midi": 72,
                    "time": 20.39877800000001,
                    "velocity": 0.5275590551181102,
                    "duration": 0.08643550000000033
                },
                {
                    "name": "D5",
                    "midi": 74,
                    "time": 20.744520000000012,
                    "velocity": 0.5826771653543307,
                    "duration": 0.08643550000000033
                },
                {
                    "name": "D5",
                    "midi": 74,
                    "time": 21.090262000000013,
                    "velocity": 0.5275590551181102,
                    "duration": 0.08643550000000033
                },
                {
                    "name": "B4",
                    "midi": 71,
                    "time": 21.436004000000015,
                    "velocity": 0.5905511811023622,
                    "duration": 0.08643550000000033
                },
                {
                    "name": "B4",
                    "midi": 71,
                    "time": 21.781746000000016,
                    "velocity": 0.5275590551181102,
                    "duration": 0.08643550000000033
                },
                {
                    "name": "C5",
                    "midi": 72,
                    "time": 22.127488000000017,
                    "velocity": 0.6377952755905512,
                    "duration": 1.0372260000000004
                },
                {
                    "name": "E5",
                    "midi": 76,
                    "time": 23.164714000000018,
                    "velocity": 0.3937007874015748,
                    "duration": 0.259306500000001
                },
                {
                    "name": "G5",
                    "midi": 79,
                    "time": 23.42402050000002,
                    "velocity": 0.36220472440944884,
                    "duration": 0.08643550000000033
                },
                {
                    "name": "F5",
                    "midi": 77,
                    "time": 23.51045600000002,
                    "velocity": 0.3937007874015748,
                    "duration": 0.08643550000000033
                },
                {
                    "name": "F5",
                    "midi": 77,
                    "time": 23.85619800000002,
                    "velocity": 0.3937007874015748,
                    "duration": 0.259306500000001
                },
                {
                    "name": "A5",
                    "midi": 81,
                    "time": 24.11550450000002,
                    "velocity": 0.3543307086614173,
                    "duration": 0.08643550000000033
                },
                {
                    "name": "B4",
                    "midi": 71,
                    "time": 24.20194000000002,
                    "velocity": 0.3937007874015748,
                    "duration": 0.08643550000000033
                },
                {
                    "name": "B4",
                    "midi": 71,
                    "time": 24.547682000000023,
                    "velocity": 0.3937007874015748,
                    "duration": 0.259306500000001
                },
                {
                    "name": "D5",
                    "midi": 74,
                    "time": 24.806988500000024,
                    "velocity": 0.3543307086614173,
                    "duration": 0.08643550000000033
                },
                {
                    "name": "C5",
                    "midi": 72,
                    "time": 24.893424000000024,
                    "velocity": 0.3937007874015748,
                    "duration": 0.08643550000000033
                },
                {
                    "name": "C5",
                    "midi": 72,
                    "time": 25.239166000000026,
                    "velocity": 0.3937007874015748,
                    "duration": 0.259306500000001
                },
                {
                    "name": "E5",
                    "midi": 76,
                    "time": 25.498472500000027,
                    "velocity": 0.3937007874015748,
                    "duration": 0.08643550000000033
                },
                {
                    "name": "G5",
                    "midi": 79,
                    "time": 25.584908000000027,
                    "velocity": 0.48031496062992124,
                    "duration": 0.08643550000000033
                },
                {
                    "name": "C6",
                    "midi": 84,
                    "time": 25.93065000000003,
                    "velocity": 0.44881889763779526,
                    "duration": 0.259306500000001
                },
                {
                    "name": "E5",
                    "midi": 76,
                    "time": 26.18995650000003,
                    "velocity": 0.3937007874015748,
                    "duration": 0.08643550000000033
                },
                {
                    "name": "F5",
                    "midi": 77,
                    "time": 26.27639200000003,
                    "velocity": 0.47244094488188976,
                    "duration": 0.08643550000000033
                },
                {
                    "name": "A5",
                    "midi": 81,
                    "time": 26.62213400000003,
                    "velocity": 0.4566929133858268,
                    "duration": 0.259306500000001
                },
                {
                    "name": "C5",
                    "midi": 72,
                    "time": 26.881440500000032,
                    "velocity": 0.3858267716535433,
                    "duration": 0.08643550000000033
                },
                {
                    "name": "B4",
                    "midi": 71,
                    "time": 26.967876000000032,
                    "velocity": 0.4645669291338583,
                    "duration": 0.08643550000000033
                },
                {
                    "name": "F5",
                    "midi": 77,
                    "time": 27.313618000000034,
                    "velocity": 0.47244094488188976,
                    "duration": 0.259306500000001
                },
                {
                    "name": "B4",
                    "midi": 71,
                    "time": 27.572924500000035,
                    "velocity": 0.4251968503937008,
                    "duration": 0.08643550000000033
                },
                {
                    "name": "C5",
                    "midi": 72,
                    "time": 27.659360000000035,
                    "velocity": 0.5196850393700787,
                    "duration": 0.08643550000000033
                },
                {
                    "name": "C5",
                    "midi": 72,
                    "time": 28.005102000000036,
                    "velocity": 0.4094488188976378,
                    "duration": 0.08643550000000033
                },
                {
                    "name": "C5",
                    "midi": 72,
                    "time": 28.350844000000038,
                    "velocity": 0.4015748031496063,
                    "duration": 0.08643550000000033
                },
                {
                    "name": "E5",
                    "midi": 76,
                    "time": 28.69658600000004,
                    "velocity": 0.44881889763779526,
                    "duration": 0.08643550000000033
                },
                {
                    "name": "D5",
                    "midi": 74,
                    "time": 28.78302150000004,
                    "velocity": 0.3937007874015748,
                    "duration": 0.08643550000000033
                },
                {
                    "name": "C5",
                    "midi": 72,
                    "time": 28.86945700000004,
                    "velocity": 0.3937007874015748,
                    "duration": 0.08643550000000033
                },
                {
                    "name": "D5",
                    "midi": 74,
                    "time": 28.95589250000004,
                    "velocity": 0.3937007874015748,
                    "duration": 0.08643550000000033
                },
                {
                    "name": "E5",
                    "midi": 76,
                    "time": 29.04232800000004,
                    "velocity": 0.49606299212598426,
                    "duration": 0.08643550000000033
                },
                {
                    "name": "C5",
                    "midi": 72,
                    "time": 29.38807000000004,
                    "velocity": 0.4094488188976378,
                    "duration": 0.08643550000000033
                },
                {
                    "name": "C5",
                    "midi": 72,
                    "time": 29.733812000000043,
                    "velocity": 0.4015748031496063,
                    "duration": 0.08643550000000033
                },
                {
                    "name": "E5",
                    "midi": 76,
                    "time": 30.079554000000044,
                    "velocity": 0.44881889763779526,
                    "duration": 0.08643550000000033
                },
                {
                    "name": "D5",
                    "midi": 74,
                    "time": 30.165989500000045,
                    "velocity": 0.3937007874015748,
                    "duration": 0.08643550000000033
                },
                {
                    "name": "C5",
                    "midi": 72,
                    "time": 30.252425000000045,
                    "velocity": 0.3937007874015748,
                    "duration": 0.08643550000000033
                },
                {
                    "name": "D5",
                    "midi": 74,
                    "time": 30.338860500000045,
                    "velocity": 0.3937007874015748,
                    "duration": 0.08643550000000033
                },
                {
                    "name": "E5",
                    "midi": 76,
                    "time": 30.425296000000046,
                    "velocity": 0.49606299212598426,
                    "duration": 0.08643550000000033
                },
                {
                    "name": "C5",
                    "midi": 72,
                    "time": 30.771038000000047,
                    "velocity": 0.4094488188976378,
                    "duration": 0.08643550000000033
                },
                {
                    "name": "C5",
                    "midi": 72,
                    "time": 31.11678000000005,
                    "velocity": 0.4015748031496063,
                    "duration": 0.08643550000000033
                },
                {
                    "name": "E5",
                    "midi": 76,
                    "time": 31.46252200000005,
                    "velocity": 0.44881889763779526,
                    "duration": 0.08643550000000033
                },
                {
                    "name": "D5",
                    "midi": 74,
                    "time": 31.54895750000005,
                    "velocity": 0.3937007874015748,
                    "duration": 0.08643550000000033
                },
                {
                    "name": "C5",
                    "midi": 72,
                    "time": 31.63539300000005,
                    "velocity": 0.3937007874015748,
                    "duration": 0.08643550000000033
                },
                {
                    "name": "D5",
                    "midi": 74,
                    "time": 31.72182850000005,
                    "velocity": 0.3937007874015748,
                    "duration": 0.08643550000000033
                },
                {
                    "name": "E5",
                    "midi": 76,
                    "time": 31.80826400000005,
                    "velocity": 0.49606299212598426,
                    "duration": 0.08643550000000033
                },
                {
                    "name": "E5",
                    "midi": 76,
                    "time": 32.15400600000005,
                    "velocity": 0.41732283464566927,
                    "duration": 0.08643550000000033
                },
                {
                    "name": "E5",
                    "midi": 76,
                    "time": 32.499748000000054,
                    "velocity": 0.41732283464566927,
                    "duration": 0.08643550000000033
                },
                {
                    "name": "G5",
                    "midi": 79,
                    "time": 32.845490000000055,
                    "velocity": 0.47244094488188976,
                    "duration": 0.08643550000000033
                },
                {
                    "name": "F#5",
                    "midi": 78,
                    "time": 32.931925500000055,
                    "velocity": 0.41732283464566927,
                    "duration": 0.08643550000000033
                },
                {
                    "name": "E5",
                    "midi": 76,
                    "time": 33.018361000000056,
                    "velocity": 0.41732283464566927,
                    "duration": 0.08643550000000033
                },
                {
                    "name": "F#5",
                    "midi": 78,
                    "time": 33.104796500000056,
                    "velocity": 0.41732283464566927,
                    "duration": 0.08643550000000033
                },
                {
                    "name": "G5",
                    "midi": 79,
                    "time": 33.191232000000056,
                    "velocity": 0.5354330708661418,
                    "duration": 0.08643550000000033
                },
                {
                    "name": "G5",
                    "midi": 79,
                    "time": 33.53697400000006,
                    "velocity": 0.44881889763779526,
                    "duration": 0.08643550000000033
                },
                {
                    "name": "G5",
                    "midi": 79,
                    "time": 33.88271600000006,
                    "velocity": 0.44881889763779526,
                    "duration": 0.08643550000000033
                },
                {
                    "name": "B5",
                    "midi": 83,
                    "time": 34.22845800000006,
                    "velocity": 0.5039370078740157,
                    "duration": 0.08643550000000033
                },
                {
                    "name": "A5",
                    "midi": 81,
                    "time": 34.31489350000006,
                    "velocity": 0.44881889763779526,
                    "duration": 0.08643550000000033
                },
                {
                    "name": "G5",
                    "midi": 79,
                    "time": 34.40132900000006,
                    "velocity": 0.44881889763779526,
                    "duration": 0.08643550000000033
                },
                {
                    "name": "A5",
                    "midi": 81,
                    "time": 34.48776450000006,
                    "velocity": 0.44881889763779526,
                    "duration": 0.08643550000000033
                },
                {
                    "name": "B5",
                    "midi": 83,
                    "time": 34.57420000000006,
                    "velocity": 0.5748031496062992,
                    "duration": 0.08643550000000033
                },
                {
                    "name": "G5",
                    "midi": 79,
                    "time": 34.91994200000006,
                    "velocity": 0.5039370078740157,
                    "duration": 0.08643550000000033
                },
                {
                    "name": "G5",
                    "midi": 79,
                    "time": 35.265684000000064,
                    "velocity": 0.5039370078740157,
                    "duration": 0.08643550000000033
                },
                {
                    "name": "B5",
                    "midi": 83,
                    "time": 35.611426000000066,
                    "velocity": 0.5433070866141733,
                    "duration": 0.08643550000000033
                },
                {
                    "name": "A5",
                    "midi": 81,
                    "time": 35.697861500000066,
                    "velocity": 0.48031496062992124,
                    "duration": 0.08643550000000033
                },
                {
                    "name": "G5",
                    "midi": 79,
                    "time": 35.784297000000066,
                    "velocity": 0.48031496062992124,
                    "duration": 0.08643550000000033
                },
                {
                    "name": "A5",
                    "midi": 81,
                    "time": 35.87073250000007,
                    "velocity": 0.48031496062992124,
                    "duration": 0.08643550000000033
                },
                {
                    "name": "B5",
                    "midi": 83,
                    "time": 35.95716800000007,
                    "velocity": 0.6141732283464567,
                    "duration": 0.08643550000000033
                },
                {
                    "name": "G5",
                    "midi": 79,
                    "time": 36.30291000000007,
                    "velocity": 0.5118110236220472,
                    "duration": 0.08643550000000033
                },
                {
                    "name": "G5",
                    "midi": 79,
                    "time": 36.64865200000007,
                    "velocity": 0.5118110236220472,
                    "duration": 0.08643550000000033
                },
                {
                    "name": "G5",
                    "midi": 79,
                    "time": 36.99439400000007,
                    "velocity": 0.5905511811023622,
                    "duration": 0.11524733333333614
                },
                {
                    "name": "B5",
                    "midi": 83,
                    "time": 37.10964133333341,
                    "velocity": 0.5433070866141733,
                    "duration": 0.11524733333333614
                },
                {
                    "name": "D6",
                    "midi": 86,
                    "time": 37.22488866666674,
                    "velocity": 0.5590551181102362,
                    "duration": 0.11524733333333614
                },
                {
                    "name": "C6",
                    "midi": 84,
                    "time": 37.34013600000008,
                    "velocity": 0.5905511811023622,
                    "duration": 0.3457420000000013
                },
                {
                    "name": "C6",
                    "midi": 84,
                    "time": 37.68587800000008,
                    "velocity": 0.5433070866141733,
                    "duration": 0.259306500000001
                },
                {
                    "name": "D6",
                    "midi": 86,
                    "time": 37.94518450000008,
                    "velocity": 0.5118110236220472,
                    "duration": 0.08643550000000033
                },
                {
                    "name": "B5",
                    "midi": 83,
                    "time": 38.03162000000008,
                    "velocity": 0.5905511811023622,
                    "duration": 0.08643550000000033
                },
                {
                    "name": "B5",
                    "midi": 83,
                    "time": 38.37736200000008,
                    "velocity": 0.5905511811023622,
                    "duration": 0.259306500000001
                },
                {
                    "name": "C6",
                    "midi": 84,
                    "time": 38.636668500000084,
                    "velocity": 0.5511811023622047,
                    "duration": 0.08643550000000033
                },
                {
                    "name": "A5",
                    "midi": 81,
                    "time": 38.723104000000085,
                    "velocity": 0.5905511811023622,
                    "duration": 0.08643550000000033
                },
                {
                    "name": "A5",
                    "midi": 81,
                    "time": 39.068846000000086,
                    "velocity": 0.5433070866141733,
                    "duration": 0.259306500000001
                },
                {
                    "name": "B5",
                    "midi": 83,
                    "time": 39.32815250000009,
                    "velocity": 0.5118110236220472,
                    "duration": 0.08643550000000033
                },
                {
                    "name": "G5",
                    "midi": 79,
                    "time": 39.41458800000009,
                    "velocity": 0.5905511811023622,
                    "duration": 0.08643550000000033
                },
                {
                    "name": "G5",
                    "midi": 79,
                    "time": 39.76033000000009,
                    "velocity": 0.44881889763779526,
                    "duration": 0.11524733333333614
                },
                {
                    "name": "B5",
                    "midi": 83,
                    "time": 39.875577333333425,
                    "velocity": 0.4094488188976378,
                    "duration": 0.11524733333333614
                },
                {
                    "name": "D6",
                    "midi": 86,
                    "time": 39.99082466666676,
                    "velocity": 0.41732283464566927,
                    "duration": 0.11524733333333614
                },
                {
                    "name": "C6",
                    "midi": 84,
                    "time": 40.1060720000001,
                    "velocity": 0.44881889763779526,
                    "duration": 0.17287100000000066
                },
                {
                    "name": "D6",
                    "midi": 86,
                    "time": 40.2789430000001,
                    "velocity": 0.44881889763779526,
                    "duration": 0.05762366666666452
                },
                {
                    "name": "C6",
                    "midi": 84,
                    "time": 40.33656666666676,
                    "velocity": 0.3858267716535433,
                    "duration": 0.05762366666666452
                },
                {
                    "name": "B5",
                    "midi": 83,
                    "time": 40.39419033333343,
                    "velocity": 0.3858267716535433,
                    "duration": 0.05762366666666452
                },
                {
                    "name": "C6",
                    "midi": 84,
                    "time": 40.45181400000009,
                    "velocity": 0.4094488188976378,
                    "duration": 0.259306500000001
                },
                {
                    "name": "D6",
                    "midi": 86,
                    "time": 40.71112050000009,
                    "velocity": 0.3858267716535433,
                    "duration": 0.08643550000000033
                },
                {
                    "name": "B5",
                    "midi": 83,
                    "time": 40.79755600000009,
                    "velocity": 0.44881889763779526,
                    "duration": 0.17287100000000066
                },
                {
                    "name": "C6",
                    "midi": 84,
                    "time": 40.97042700000009,
                    "velocity": 0.44881889763779526,
                    "duration": 0.05762366666666452
                },
                {
                    "name": "B5",
                    "midi": 83,
                    "time": 41.02805066666676,
                    "velocity": 0.3937007874015748,
                    "duration": 0.05762366666666452
                },
                {
                    "name": "A5",
                    "midi": 81,
                    "time": 41.08567433333342,
                    "velocity": 0.3937007874015748,
                    "duration": 0.05762366666666452
                },
                {
                    "name": "B5",
                    "midi": 83,
                    "time": 41.14329800000009,
                    "velocity": 0.44881889763779526,
                    "duration": 0.259306500000001
                },
                {
                    "name": "C6",
                    "midi": 84,
                    "time": 41.40260450000009,
                    "velocity": 0.41732283464566927,
                    "duration": 0.08643550000000033
                },
                {
                    "name": "A5",
                    "midi": 81,
                    "time": 41.48904000000009,
                    "velocity": 0.44881889763779526,
                    "duration": 0.17287100000000066
                },
                {
                    "name": "B5",
                    "midi": 83,
                    "time": 41.66191100000009,
                    "velocity": 0.44881889763779526,
                    "duration": 0.05762366666666452
                },
                {
                    "name": "A5",
                    "midi": 81,
                    "time": 41.71953466666675,
                    "velocity": 0.4015748031496063,
                    "duration": 0.05762366666666452
                },
                {
                    "name": "G5",
                    "midi": 79,
                    "time": 41.77715833333342,
                    "velocity": 0.4015748031496063,
                    "duration": 0.05762366666666452
                },
                {
                    "name": "A5",
                    "midi": 81,
                    "time": 41.83478200000008,
                    "velocity": 0.4094488188976378,
                    "duration": 0.259306500000001
                },
                {
                    "name": "B5",
                    "midi": 83,
                    "time": 42.09408850000008,
                    "velocity": 0.3858267716535433,
                    "duration": 0.08643550000000033
                },
                {
                    "name": "G5",
                    "midi": 79,
                    "time": 42.180524000000084,
                    "velocity": 0.44881889763779526,
                    "duration": 0.3457420000000013
                },
                {
                    "name": "D6",
                    "midi": 86,
                    "time": 42.526266000000085,
                    "velocity": 0.5196850393700787,
                    "duration": 0.259306500000001
                },
                {
                    "name": "B5",
                    "midi": 83,
                    "time": 42.785572500000086,
                    "velocity": 0.4330708661417323,
                    "duration": 0.08643550000000033
                },
                {
                    "name": "A5",
                    "midi": 81,
                    "time": 42.872008000000086,
                    "velocity": 0.5826771653543307,
                    "duration": 0.17287100000000066
                },
                {
                    "name": "B5",
                    "midi": 83,
                    "time": 43.04487900000009,
                    "velocity": 0.5354330708661418,
                    "duration": 0.05762366666666452
                },
                {
                    "name": "A5",
                    "midi": 81,
                    "time": 43.10250266666675,
                    "velocity": 0.4645669291338583,
                    "duration": 0.05762366666666452
                },
                {
                    "name": "G5",
                    "midi": 79,
                    "time": 43.160126333333416,
                    "velocity": 0.4645669291338583,
                    "duration": 0.05762366666666452
                },
                {
                    "name": "A5",
                    "midi": 81,
                    "time": 43.21775000000008,
                    "velocity": 0.4881889763779528,
                    "duration": 0.259306500000001
                },
                {
                    "name": "B5",
                    "midi": 83,
                    "time": 43.47705650000008,
                    "velocity": 0.4645669291338583,
                    "duration": 0.08643550000000033
                },
                {
                    "name": "G5",
                    "midi": 79,
                    "time": 43.56349200000008,
                    "velocity": 0.5354330708661418,
                    "duration": 0.17287100000000066
                },
                {
                    "name": "A5",
                    "midi": 81,
                    "time": 43.73636300000008,
                    "velocity": 0.5354330708661418,
                    "duration": 0.05762366666666452
                },
                {
                    "name": "G5",
                    "midi": 79,
                    "time": 43.79398666666675,
                    "velocity": 0.47244094488188976,
                    "duration": 0.05762366666666452
                },
                {
                    "name": "F#5",
                    "midi": 78,
                    "time": 43.85161033333341,
                    "velocity": 0.47244094488188976,
                    "duration": 0.05762366666666452
                },
                {
                    "name": "G5",
                    "midi": 79,
                    "time": 43.909234000000076,
                    "velocity": 0.5354330708661418,
                    "duration": 0.259306500000001
                },
                {
                    "name": "A5",
                    "midi": 81,
                    "time": 44.16854050000008,
                    "velocity": 0.49606299212598426,
                    "duration": 0.08643550000000033
                },
                {
                    "name": "F#5",
                    "midi": 78,
                    "time": 44.25497600000008,
                    "velocity": 0.5826771653543307,
                    "duration": 0.3457420000000013
                },
                {
                    "name": "D5",
                    "midi": 74,
                    "time": 44.86002450000008,
                    "velocity": 0.5354330708661418,
                    "duration": 0.08643550000000033
                },
                {
                    "name": "F#5",
                    "midi": 78,
                    "time": 44.94646000000008,
                    "velocity": 0.6220472440944882,
                    "duration": 0.259306500000001
                },
                {
                    "name": "D5",
                    "midi": 74,
                    "time": 45.20576650000008,
                    "velocity": 0.5354330708661418,
                    "duration": 0.08643550000000033
                },
                {
                    "name": "A5",
                    "midi": 81,
                    "time": 45.29220200000008,
                    "velocity": 0.5826771653543307,
                    "duration": 0.259306500000001
                },
                {
                    "name": "F#5",
                    "midi": 78,
                    "time": 45.55150850000008,
                    "velocity": 0.5354330708661418,
                    "duration": 0.08643550000000033
                },
                {
                    "name": "D6",
                    "midi": 86,
                    "time": 45.63794400000008,
                    "velocity": 0.6771653543307087,
                    "duration": 0.3457420000000013
                },
                {
                    "name": "D4",
                    "midi": 62,
                    "time": 46.242992500000085,
                    "velocity": 0.5196850393700787,
                    "duration": 0.08643550000000033
                },
                {
                    "name": "F#4",
                    "midi": 66,
                    "time": 46.329428000000085,
                    "velocity": 0.6062992125984252,
                    "duration": 0.11524733333333614
                },
                {
                    "name": "D4",
                    "midi": 62,
                    "time": 46.44467533333342,
                    "velocity": 0.5433070866141733,
                    "duration": 0.11524733333333614
                },
                {
                    "name": "F#4",
                    "midi": 66,
                    "time": 46.55992266666676,
                    "velocity": 0.5433070866141733,
                    "duration": 0.11524733333333614
                },
                {
                    "name": "A4",
                    "midi": 69,
                    "time": 46.675170000000094,
                    "velocity": 0.6299212598425197,
                    "duration": 0.11524733333333614
                },
                {
                    "name": "F#4",
                    "midi": 66,
                    "time": 46.79041733333343,
                    "velocity": 0.5511811023622047,
                    "duration": 0.11524733333333614
                },
                {
                    "name": "A4",
                    "midi": 69,
                    "time": 46.905664666666766,
                    "velocity": 0.5511811023622047,
                    "duration": 0.11524733333333614
                },
                {
                    "name": "D5",
                    "midi": 74,
                    "time": 47.0209120000001,
                    "velocity": 0.6614173228346457,
                    "duration": 0.3457420000000013
                },
                {
                    "name": "D3",
                    "midi": 50,
                    "time": 47.712396000000105,
                    "velocity": 0.7480314960629921,
                    "duration": 0.518613000000002
                },
                {
                    "name": "D3",
                    "midi": 50,
                    "time": 48.23100900000011,
                    "velocity": 0.7007874015748031,
                    "duration": 0.17287100000000066
                },
                {
                    "name": "D3",
                    "midi": 50,
                    "time": 48.40388000000011,
                    "velocity": 0.7637795275590551,
                    "duration": 0.3457420000000013
                },
                {
                    "name": "E5",
                    "midi": 76,
                    "time": 50.82407400000011,
                    "velocity": 0.44881889763779526,
                    "duration": 0.08643550000000033
                },
                {
                    "name": "D5",
                    "midi": 74,
                    "time": 50.91050950000011,
                    "velocity": 0.3937007874015748,
                    "duration": 0.08643550000000033
                },
                {
                    "name": "C#5",
                    "midi": 73,
                    "time": 50.99694500000011,
                    "velocity": 0.3937007874015748,
                    "duration": 0.08643550000000033
                },
                {
                    "name": "D5",
                    "midi": 74,
                    "time": 51.08338050000011,
                    "velocity": 0.3937007874015748,
                    "duration": 0.08643550000000033
                },
                {
                    "name": "G5",
                    "midi": 79,
                    "time": 51.16981600000011,
                    "velocity": 0.49606299212598426,
                    "duration": 0.08643550000000033
                },
                {
                    "name": "G5",
                    "midi": 79,
                    "time": 51.51555800000011,
                    "velocity": 0.41732283464566927,
                    "duration": 0.08643550000000033
                },
                {
                    "name": "E5",
                    "midi": 76,
                    "time": 52.207042000000115,
                    "velocity": 0.47244094488188976,
                    "duration": 0.08643550000000033
                },
                {
                    "name": "D5",
                    "midi": 74,
                    "time": 52.293477500000115,
                    "velocity": 0.41732283464566927,
                    "duration": 0.08643550000000033
                },
                {
                    "name": "C#5",
                    "midi": 73,
                    "time": 52.379913000000116,
                    "velocity": 0.41732283464566927,
                    "duration": 0.08643550000000033
                },
                {
                    "name": "D5",
                    "midi": 74,
                    "time": 52.466348500000116,
                    "velocity": 0.41732283464566927,
                    "duration": 0.08643550000000033
                },
                {
                    "name": "G5",
                    "midi": 79,
                    "time": 52.552784000000116,
                    "velocity": 0.5354330708661418,
                    "duration": 0.08643550000000033
                },
                {
                    "name": "G5",
                    "midi": 79,
                    "time": 52.89852600000012,
                    "velocity": 0.44881889763779526,
                    "duration": 0.08643550000000033
                },
                {
                    "name": "E5",
                    "midi": 76,
                    "time": 53.59001000000012,
                    "velocity": 0.5039370078740157,
                    "duration": 0.08643550000000033
                },
                {
                    "name": "D5",
                    "midi": 74,
                    "time": 53.67644550000012,
                    "velocity": 0.44881889763779526,
                    "duration": 0.08643550000000033
                },
                {
                    "name": "C#5",
                    "midi": 73,
                    "time": 53.76288100000012,
                    "velocity": 0.44881889763779526,
                    "duration": 0.08643550000000033
                },
                {
                    "name": "D5",
                    "midi": 74,
                    "time": 53.84931650000012,
                    "velocity": 0.44881889763779526,
                    "duration": 0.08643550000000033
                },
                {
                    "name": "G5",
                    "midi": 79,
                    "time": 53.93575200000012,
                    "velocity": 0.5748031496062992,
                    "duration": 0.3457420000000013
                },
                {
                    "name": "A5",
                    "midi": 81,
                    "time": 54.28149400000012,
                    "velocity": 0.5905511811023622,
                    "duration": 0.08643550000000033
                },
                {
                    "name": "G5",
                    "midi": 79,
                    "time": 54.36792950000012,
                    "velocity": 0.49606299212598426,
                    "duration": 0.08643550000000033
                },
                {
                    "name": "F#5",
                    "midi": 78,
                    "time": 54.454365000000124,
                    "velocity": 0.49606299212598426,
                    "duration": 0.08643550000000033
                },
                {
                    "name": "G5",
                    "midi": 79,
                    "time": 54.540800500000124,
                    "velocity": 0.49606299212598426,
                    "duration": 0.08643550000000033
                },
                {
                    "name": "A5",
                    "midi": 81,
                    "time": 54.627236000000124,
                    "velocity": 0.5905511811023622,
                    "duration": 0.3457420000000013
                },
                {
                    "name": "B5",
                    "midi": 83,
                    "time": 54.972978000000126,
                    "velocity": 0.5905511811023622,
                    "duration": 0.08643550000000033
                },
                {
                    "name": "A5",
                    "midi": 81,
                    "time": 55.059413500000126,
                    "velocity": 0.5196850393700787,
                    "duration": 0.08643550000000033
                },
                {
                    "name": "G5",
                    "midi": 79,
                    "time": 55.145849000000126,
                    "velocity": 0.5196850393700787,
                    "duration": 0.08643550000000033
                },
                {
                    "name": "A5",
                    "midi": 81,
                    "time": 55.23228450000013,
                    "velocity": 0.5196850393700787,
                    "duration": 0.08643550000000033
                },
                {
                    "name": "B5",
                    "midi": 83,
                    "time": 55.31872000000013,
                    "velocity": 0.6141732283464567,
                    "duration": 0.3457420000000013
                },
                {
                    "name": "C6",
                    "midi": 84,
                    "time": 55.66446200000013,
                    "velocity": 0.6062992125984252,
                    "duration": 0.08643550000000033
                },
                {
                    "name": "B5",
                    "midi": 83,
                    "time": 55.75089750000013,
                    "velocity": 0.5511811023622047,
                    "duration": 0.08643550000000033
                },
                {
                    "name": "A5",
                    "midi": 81,
                    "time": 55.83733300000013,
                    "velocity": 0.5511811023622047,
                    "duration": 0.08643550000000033
                },
                {
                    "name": "B5",
                    "midi": 83,
                    "time": 55.92376850000013,
                    "velocity": 0.5590551181102362,
                    "duration": 0.08643550000000033
                },
                {
                    "name": "C6",
                    "midi": 84,
                    "time": 56.01020400000013,
                    "velocity": 0.6377952755905512,
                    "duration": 0.3457420000000013
                },
                {
                    "name": "D6",
                    "midi": 86,
                    "time": 56.35594600000013,
                    "velocity": 0.6850393700787402,
                    "duration": 0.08643550000000033
                },
                {
                    "name": "C6",
                    "midi": 84,
                    "time": 56.44238150000013,
                    "velocity": 0.5905511811023622,
                    "duration": 0.08643550000000033
                },
                {
                    "name": "B5",
                    "midi": 83,
                    "time": 56.52881700000013,
                    "velocity": 0.6141732283464567,
                    "duration": 0.08643550000000033
                },
                {
                    "name": "C6",
                    "midi": 84,
                    "time": 56.61525250000013,
                    "velocity": 0.5984251968503937,
                    "duration": 0.08643550000000033
                },
                {
                    "name": "D6",
                    "midi": 86,
                    "time": 56.70168800000013,
                    "velocity": 0.8267716535433071,
                    "duration": 1.0372259999999969
                },
                {
                    "name": "D#5",
                    "midi": 75,
                    "time": 57.73891400000013,
                    "velocity": 0.6771653543307087,
                    "duration": 0.3457420000000013
                },
                {
                    "name": "D#6",
                    "midi": 87,
                    "time": 57.73891400000013,
                    "velocity": 0.8110236220472441,
                    "duration": 0.3457420000000013
                },
                {
                    "name": "E5",
                    "midi": 76,
                    "time": 58.08465600000013,
                    "velocity": 0.7244094488188977,
                    "duration": 0.3457420000000013
                },
                {
                    "name": "E6",
                    "midi": 88,
                    "time": 58.08465600000013,
                    "velocity": 0.8503937007874016,
                    "duration": 0.3457420000000013
                },
                {
                    "name": "G#4",
                    "midi": 68,
                    "time": 58.43039800000013,
                    "velocity": 0.5039370078740157,
                    "duration": 0.3457420000000013
                },
                {
                    "name": "G#5",
                    "midi": 80,
                    "time": 58.43039800000013,
                    "velocity": 0.5905511811023622,
                    "duration": 0.3457420000000013
                },
                {
                    "name": "A4",
                    "midi": 69,
                    "time": 58.77614000000013,
                    "velocity": 0.5433070866141733,
                    "duration": 0.3457420000000013
                },
                {
                    "name": "A5",
                    "midi": 81,
                    "time": 58.77614000000013,
                    "velocity": 0.6456692913385826,
                    "duration": 0.3457420000000013
                },
                {
                    "name": "B5",
                    "midi": 83,
                    "time": 59.121882000000134,
                    "velocity": 0.7007874015748031,
                    "duration": 0.3457420000000013
                },
                {
                    "name": "B4",
                    "midi": 71,
                    "time": 59.121882000000134,
                    "velocity": 0.5905511811023622,
                    "duration": 0.3457420000000013
                },
                {
                    "name": "C5",
                    "midi": 72,
                    "time": 59.467624000000136,
                    "velocity": 0.6299212598425197,
                    "duration": 0.6914840000000027
                },
                {
                    "name": "C6",
                    "midi": 84,
                    "time": 59.467624000000136,
                    "velocity": 0.7480314960629921,
                    "duration": 0.6914840000000027
                },
                {
                    "name": "D5",
                    "midi": 74,
                    "time": 60.15910800000014,
                    "velocity": 0.5984251968503937,
                    "duration": 0.3457420000000013
                },
                {
                    "name": "D6",
                    "midi": 86,
                    "time": 60.15910800000014,
                    "velocity": 0.7086614173228346,
                    "duration": 0.3457420000000013
                },
                {
                    "name": "E5",
                    "midi": 76,
                    "time": 60.50485000000014,
                    "velocity": 0.5669291338582677,
                    "duration": 0.3457420000000013
                },
                {
                    "name": "E6",
                    "midi": 88,
                    "time": 60.50485000000014,
                    "velocity": 0.6771653543307087,
                    "duration": 0.3457420000000013
                },
                {
                    "name": "G5",
                    "midi": 79,
                    "time": 60.85059200000014,
                    "velocity": 0.5511811023622047,
                    "duration": 0.6482662499999989
                },
                {
                    "name": "D5",
                    "midi": 74,
                    "time": 60.85059200000014,
                    "velocity": 0.4645669291338583,
                    "duration": 0.6482662499999989
                },
                {
                    "name": "B5",
                    "midi": 83,
                    "time": 61.49885825000014,
                    "velocity": 0.4566929133858268,
                    "duration": 0.04321774999999661
                },
                {
                    "name": "F#5",
                    "midi": 78,
                    "time": 61.54207600000014,
                    "velocity": 0.5196850393700787,
                    "duration": 0.6914840000000027
                },
                {
                    "name": "A5",
                    "midi": 81,
                    "time": 61.54207600000014,
                    "velocity": 0.5196850393700787,
                    "duration": 0.518613000000002
                },
                {
                    "name": "G5",
                    "midi": 79,
                    "time": 62.06068900000014,
                    "velocity": 0.4409448818897638,
                    "duration": 0.17287100000000066
                },
                {
                    "name": "G5",
                    "midi": 79,
                    "time": 62.23356000000014,
                    "velocity": 0.5196850393700787,
                    "duration": 0.3457420000000013
                },
                {
                    "name": "B5",
                    "midi": 83,
                    "time": 63.27078600000014,
                    "velocity": 0.44881889763779526,
                    "duration": 0.11524733333333614
                },
                {
                    "name": "D#6",
                    "midi": 87,
                    "time": 63.38603333333348,
                    "velocity": 0.48031496062992124,
                    "duration": 0.11524733333333614
                },
                {
                    "name": "E6",
                    "midi": 88,
                    "time": 63.501280666666815,
                    "velocity": 0.48031496062992124,
                    "duration": 0.11524733333333614
                },
                {
                    "name": "D6",
                    "midi": 86,
                    "time": 63.61652800000015,
                    "velocity": 0.4566929133858268,
                    "duration": 0.08643550000000033
                },
                {
                    "name": "D6",
                    "midi": 86,
                    "time": 63.96227000000015,
                    "velocity": 0.3858267716535433,
                    "duration": 0.08643550000000033
                },
                {
                    "name": "D6",
                    "midi": 86,
                    "time": 64.30801200000015,
                    "velocity": 0.3858267716535433,
                    "duration": 0.08643549999999323
                },
                {
                    "name": "G5",
                    "midi": 79,
                    "time": 64.65375400000013,
                    "velocity": 0.44881889763779526,
                    "duration": 0.11524733333332904
                },
                {
                    "name": "B5",
                    "midi": 83,
                    "time": 64.76900133333346,
                    "velocity": 0.3464566929133858,
                    "duration": 0.11524733333332904
                },
                {
                    "name": "C6",
                    "midi": 84,
                    "time": 64.88424866666679,
                    "velocity": 0.3464566929133858,
                    "duration": 0.11524733333332904
                },
                {
                    "name": "B5",
                    "midi": 83,
                    "time": 64.99949600000012,
                    "velocity": 0.4566929133858268,
                    "duration": 0.08643549999999323
                },
                {
                    "name": "B5",
                    "midi": 83,
                    "time": 65.34523800000011,
                    "velocity": 0.3858267716535433,
                    "duration": 0.08643549999999323
                },
                {
                    "name": "B5",
                    "midi": 83,
                    "time": 65.6909800000001,
                    "velocity": 0.3858267716535433,
                    "duration": 0.08643549999999323
                },
                {
                    "name": "E5",
                    "midi": 76,
                    "time": 66.03672200000008,
                    "velocity": 0.44881889763779526,
                    "duration": 0.11524733333332904
                },
                {
                    "name": "G#5",
                    "midi": 80,
                    "time": 66.15196933333341,
                    "velocity": 0.3464566929133858,
                    "duration": 0.11524733333332904
                },
                {
                    "name": "A5",
                    "midi": 81,
                    "time": 66.26721666666674,
                    "velocity": 0.3464566929133858,
                    "duration": 0.11524733333332904
                },
                {
                    "name": "G5",
                    "midi": 79,
                    "time": 66.38246400000007,
                    "velocity": 0.4566929133858268,
                    "duration": 0.08643549999999323
                },
                {
                    "name": "G5",
                    "midi": 79,
                    "time": 66.72820600000006,
                    "velocity": 0.3858267716535433,
                    "duration": 0.08643549999999323
                },
                {
                    "name": "G5",
                    "midi": 79,
                    "time": 67.07394800000004,
                    "velocity": 0.3858267716535433,
                    "duration": 0.08643549999999323
                },
                {
                    "name": "B5",
                    "midi": 83,
                    "time": 67.41969000000003,
                    "velocity": 0.48031496062992124,
                    "duration": 0.2593064999999939
                },
                {
                    "name": "G5",
                    "midi": 79,
                    "time": 67.67899650000003,
                    "velocity": 0.4251968503937008,
                    "duration": 0.08643549999999323
                },
                {
                    "name": "E5",
                    "midi": 76,
                    "time": 67.76543200000002,
                    "velocity": 0.4881889763779528,
                    "duration": 0.08643549999999323
                },
                {
                    "name": "C6",
                    "midi": 84,
                    "time": 68.111174,
                    "velocity": 0.48031496062992124,
                    "duration": 0.2593064999999939
                },
                {
                    "name": "A5",
                    "midi": 81,
                    "time": 68.3704805,
                    "velocity": 0.41732283464566927,
                    "duration": 0.08643549999999323
                },
                {
                    "name": "F#5",
                    "midi": 78,
                    "time": 68.45691599999999,
                    "velocity": 0.48031496062992124,
                    "duration": 0.08643549999999323
                },
                {
                    "name": "A5",
                    "midi": 81,
                    "time": 68.80265799999998,
                    "velocity": 0.47244094488188976,
                    "duration": 0.2593064999999939
                },
                {
                    "name": "F#5",
                    "midi": 78,
                    "time": 69.06196449999997,
                    "velocity": 0.4251968503937008,
                    "duration": 0.08643549999999323
                },
                {
                    "name": "G5",
                    "midi": 79,
                    "time": 69.14839999999997,
                    "velocity": 0.48031496062992124,
                    "duration": 0.08643549999999323
                },
                {
                    "name": "B5",
                    "midi": 83,
                    "time": 70.18562599999996,
                    "velocity": 0.6929133858267716,
                    "duration": 0.11524733333332904
                },
                {
                    "name": "D#6",
                    "midi": 87,
                    "time": 70.30087333333329,
                    "velocity": 0.48031496062992124,
                    "duration": 0.11524733333332904
                },
                {
                    "name": "E6",
                    "midi": 88,
                    "time": 70.41612066666661,
                    "velocity": 0.48031496062992124,
                    "duration": 0.11524733333332904
                },
                {
                    "name": "A5",
                    "midi": 81,
                    "time": 70.53136799999994,
                    "velocity": 0.5669291338582677,
                    "duration": 0.11524733333332904
                },
                {
                    "name": "C#6",
                    "midi": 85,
                    "time": 70.64661533333327,
                    "velocity": 0.3700787401574803,
                    "duration": 0.11524733333332904
                },
                {
                    "name": "D6",
                    "midi": 86,
                    "time": 70.7618626666666,
                    "velocity": 0.3700787401574803,
                    "duration": 0.11524733333332904
                },
                {
                    "name": "A5",
                    "midi": 81,
                    "time": 70.87710999999993,
                    "velocity": 0.5196850393700787,
                    "duration": 0.11524733333332904
                },
                {
                    "name": "C#6",
                    "midi": 85,
                    "time": 70.99235733333326,
                    "velocity": 0.3700787401574803,
                    "duration": 0.11524733333332904
                },
                {
                    "name": "D6",
                    "midi": 86,
                    "time": 71.10760466666659,
                    "velocity": 0.3700787401574803,
                    "duration": 0.11524733333332904
                },
                {
                    "name": "A5",
                    "midi": 81,
                    "time": 71.22285199999992,
                    "velocity": 0.5196850393700787,
                    "duration": 0.11524733333332904
                },
                {
                    "name": "C#6",
                    "midi": 85,
                    "time": 71.33809933333325,
                    "velocity": 0.4015748031496063,
                    "duration": 0.11524733333332904
                },
                {
                    "name": "D6",
                    "midi": 86,
                    "time": 71.45334666666658,
                    "velocity": 0.4094488188976378,
                    "duration": 0.11524733333332904
                },
                {
                    "name": "B5",
                    "midi": 83,
                    "time": 71.5685939999999,
                    "velocity": 0.6929133858267716,
                    "duration": 0.11524733333332904
                },
                {
                    "name": "D#6",
                    "midi": 87,
                    "time": 71.68384133333323,
                    "velocity": 0.48031496062992124,
                    "duration": 0.11524733333332904
                },
                {
                    "name": "E6",
                    "midi": 88,
                    "time": 71.79908866666656,
                    "velocity": 0.48031496062992124,
                    "duration": 0.11524733333332904
                },
                {
                    "name": "A5",
                    "midi": 81,
                    "time": 71.91433599999989,
                    "velocity": 0.5433070866141733,
                    "duration": 0.11524733333332904
                },
                {
                    "name": "C#6",
                    "midi": 85,
                    "time": 72.02958333333322,
                    "velocity": 0.4251968503937008,
                    "duration": 0.11524733333332904
                },
                {
                    "name": "D6",
                    "midi": 86,
                    "time": 72.14483066666655,
                    "velocity": 0.4330708661417323,
                    "duration": 0.11524733333332904
                },
                {
                    "name": "A5",
                    "midi": 81,
                    "time": 72.26007799999988,
                    "velocity": 0.5511811023622047,
                    "duration": 0.11524733333332904
                },
                {
                    "name": "C#6",
                    "midi": 85,
                    "time": 72.37532533333321,
                    "velocity": 0.3700787401574803,
                    "duration": 0.11524733333332904
                },
                {
                    "name": "D6",
                    "midi": 86,
                    "time": 72.49057266666654,
                    "velocity": 0.3700787401574803,
                    "duration": 0.11524733333332904
                },
                {
                    "name": "A5",
                    "midi": 81,
                    "time": 72.60581999999987,
                    "velocity": 0.5275590551181102,
                    "duration": 0.11524733333332904
                },
                {
                    "name": "C#6",
                    "midi": 85,
                    "time": 72.7210673333332,
                    "velocity": 0.36220472440944884,
                    "duration": 0.11524733333332904
                },
                {
                    "name": "D6",
                    "midi": 86,
                    "time": 72.83631466666652,
                    "velocity": 0.3858267716535433,
                    "duration": 0.11524733333332904
                },
                {
                    "name": "G5",
                    "midi": 79,
                    "time": 72.95156199999985,
                    "velocity": 0.5039370078740157,
                    "duration": 0.11524733333332904
                },
                {
                    "name": "B5",
                    "midi": 83,
                    "time": 73.06680933333318,
                    "velocity": 0.3937007874015748,
                    "duration": 0.11524733333332904
                },
                {
                    "name": "C6",
                    "midi": 84,
                    "time": 73.18205666666651,
                    "velocity": 0.3937007874015748,
                    "duration": 0.11524733333332904
                },
                {
                    "name": "F#5",
                    "midi": 78,
                    "time": 73.29730399999984,
                    "velocity": 0.5433070866141733,
                    "duration": 0.11524733333332904
                },
                {
                    "name": "A#5",
                    "midi": 82,
                    "time": 73.41255133333317,
                    "velocity": 0.3937007874015748,
                    "duration": 0.11524733333332904
                },
                {
                    "name": "B5",
                    "midi": 83,
                    "time": 73.5277986666665,
                    "velocity": 0.3937007874015748,
                    "duration": 0.11524733333332904
                },
                {
                    "name": "F#5",
                    "midi": 78,
                    "time": 73.64304599999983,
                    "velocity": 0.5196850393700787,
                    "duration": 0.11524733333332904
                },
                {
                    "name": "A#5",
                    "midi": 82,
                    "time": 73.75829333333316,
                    "velocity": 0.36220472440944884,
                    "duration": 0.11524733333332904
                },
                {
                    "name": "B5",
                    "midi": 83,
                    "time": 73.87354066666649,
                    "velocity": 0.36220472440944884,
                    "duration": 0.11524733333332904
                },
                {
                    "name": "F#5",
                    "midi": 78,
                    "time": 73.98878799999981,
                    "velocity": 0.5039370078740157,
                    "duration": 0.11524733333332904
                },
                {
                    "name": "A#5",
                    "midi": 82,
                    "time": 74.10403533333314,
                    "velocity": 0.36220472440944884,
                    "duration": 0.11524733333332904
                },
                {
                    "name": "B5",
                    "midi": 83,
                    "time": 74.21928266666647,
                    "velocity": 0.36220472440944884,
                    "duration": 0.11524733333332904
                },
                {
                    "name": "G5",
                    "midi": 79,
                    "time": 74.3345299999998,
                    "velocity": 0.5905511811023622,
                    "duration": 0.11524733333332904
                },
                {
                    "name": "B5",
                    "midi": 83,
                    "time": 74.44977733333313,
                    "velocity": 0.4251968503937008,
                    "duration": 0.11524733333332904
                },
                {
                    "name": "C6",
                    "midi": 84,
                    "time": 74.56502466666646,
                    "velocity": 0.4251968503937008,
                    "duration": 0.11524733333332904
                },
                {
                    "name": "F#5",
                    "midi": 78,
                    "time": 74.68027199999979,
                    "velocity": 0.5433070866141733,
                    "duration": 0.11524733333332904
                },
                {
                    "name": "A#5",
                    "midi": 82,
                    "time": 74.79551933333312,
                    "velocity": 0.3937007874015748,
                    "duration": 0.11524733333332904
                },
                {
                    "name": "B5",
                    "midi": 83,
                    "time": 74.91076666666645,
                    "velocity": 0.3937007874015748,
                    "duration": 0.11524733333332904
                },
                {
                    "name": "F#5",
                    "midi": 78,
                    "time": 75.02601399999978,
                    "velocity": 0.5196850393700787,
                    "duration": 0.11524733333332904
                },
                {
                    "name": "A#5",
                    "midi": 82,
                    "time": 75.1412613333331,
                    "velocity": 0.3700787401574803,
                    "duration": 0.11524733333332904
                },
                {
                    "name": "B5",
                    "midi": 83,
                    "time": 75.25650866666643,
                    "velocity": 0.3700787401574803,
                    "duration": 0.11524733333332904
                },
                {
                    "name": "F#5",
                    "midi": 78,
                    "time": 75.37175599999976,
                    "velocity": 0.5039370078740157,
                    "duration": 0.11524733333332904
                },
                {
                    "name": "A#5",
                    "midi": 82,
                    "time": 75.48700333333309,
                    "velocity": 0.3700787401574803,
                    "duration": 0.11524733333332904
                },
                {
                    "name": "B5",
                    "midi": 83,
                    "time": 75.60225066666642,
                    "velocity": 0.3779527559055118,
                    "duration": 0.11524733333332904
                },
                {
                    "name": "E5",
                    "midi": 76,
                    "time": 75.71749799999975,
                    "velocity": 0.5511811023622047,
                    "duration": 0.11524733333332904
                },
                {
                    "name": "G#5",
                    "midi": 80,
                    "time": 75.83274533333308,
                    "velocity": 0.4251968503937008,
                    "duration": 0.11524733333332904
                },
                {
                    "name": "A5",
                    "midi": 81,
                    "time": 75.94799266666641,
                    "velocity": 0.4251968503937008,
                    "duration": 0.11524733333332904
                },
                {
                    "name": "D5",
                    "midi": 74,
                    "time": 76.06323999999974,
                    "velocity": 0.4645669291338583,
                    "duration": 0.11524733333332904
                },
                {
                    "name": "F#5",
                    "midi": 78,
                    "time": 76.17848733333307,
                    "velocity": 0.3779527559055118,
                    "duration": 0.11524733333332904
                },
                {
                    "name": "G5",
                    "midi": 79,
                    "time": 76.2937346666664,
                    "velocity": 0.36220472440944884,
                    "duration": 0.11524733333332904
                },
                {
                    "name": "D5",
                    "midi": 74,
                    "time": 76.40898199999972,
                    "velocity": 0.48031496062992124,
                    "duration": 0.11524733333332904
                },
                {
                    "name": "F#5",
                    "midi": 78,
                    "time": 76.52422933333305,
                    "velocity": 0.3700787401574803,
                    "duration": 0.11524733333332904
                },
                {
                    "name": "G5",
                    "midi": 79,
                    "time": 76.63947666666638,
                    "velocity": 0.3937007874015748,
                    "duration": 0.11524733333332904
                },
                {
                    "name": "D5",
                    "midi": 74,
                    "time": 76.75472399999971,
                    "velocity": 0.4881889763779528,
                    "duration": 0.11524733333332904
                },
                {
                    "name": "F#5",
                    "midi": 78,
                    "time": 76.86997133333304,
                    "velocity": 0.3858267716535433,
                    "duration": 0.11524733333332904
                },
                {
                    "name": "G5",
                    "midi": 79,
                    "time": 76.98521866666637,
                    "velocity": 0.3858267716535433,
                    "duration": 0.11524733333332904
                },
                {
                    "name": "E5",
                    "midi": 76,
                    "time": 77.1004659999997,
                    "velocity": 0.5511811023622047,
                    "duration": 0.11524733333332904
                },
                {
                    "name": "G#5",
                    "midi": 80,
                    "time": 77.21571333333303,
                    "velocity": 0.4251968503937008,
                    "duration": 0.11524733333332904
                },
                {
                    "name": "A5",
                    "midi": 81,
                    "time": 77.33096066666636,
                    "velocity": 0.4251968503937008,
                    "duration": 0.11524733333332904
                },
                {
                    "name": "D5",
                    "midi": 74,
                    "time": 77.44620799999969,
                    "velocity": 0.4645669291338583,
                    "duration": 0.11524733333332904
                },
                {
                    "name": "F#5",
                    "midi": 78,
                    "time": 77.56145533333302,
                    "velocity": 0.3779527559055118,
                    "duration": 0.11524733333332904
                },
                {
                    "name": "G5",
                    "midi": 79,
                    "time": 77.67670266666634,
                    "velocity": 0.36220472440944884,
                    "duration": 0.11524733333332904
                },
                {
                    "name": "D5",
                    "midi": 74,
                    "time": 77.79194999999967,
                    "velocity": 0.48031496062992124,
                    "duration": 0.11524733333332904
                },
                {
                    "name": "F#5",
                    "midi": 78,
                    "time": 77.907197333333,
                    "velocity": 0.3700787401574803,
                    "duration": 0.11524733333332904
                },
                {
                    "name": "G5",
                    "midi": 79,
                    "time": 78.02244466666633,
                    "velocity": 0.3937007874015748,
                    "duration": 0.11524733333332904
                },
                {
                    "name": "D5",
                    "midi": 74,
                    "time": 78.13769199999966,
                    "velocity": 0.4881889763779528,
                    "duration": 0.11524733333332904
                },
                {
                    "name": "F#5",
                    "midi": 78,
                    "time": 78.25293933333299,
                    "velocity": 0.3858267716535433,
                    "duration": 0.11524733333332904
                },
                {
                    "name": "G5",
                    "midi": 79,
                    "time": 78.36818666666632,
                    "velocity": 0.3858267716535433,
                    "duration": 0.11524733333332904
                },
                {
                    "name": "E5",
                    "midi": 76,
                    "time": 78.48343399999965,
                    "velocity": 0.5511811023622047,
                    "duration": 0.11524733333332904
                },
                {
                    "name": "G#5",
                    "midi": 80,
                    "time": 78.59868133333298,
                    "velocity": 0.4251968503937008,
                    "duration": 0.11524733333332904
                },
                {
                    "name": "A5",
                    "midi": 81,
                    "time": 78.7139286666663,
                    "velocity": 0.4251968503937008,
                    "duration": 0.11524733333332904
                },
                {
                    "name": "D5",
                    "midi": 74,
                    "time": 78.82917599999963,
                    "velocity": 0.5669291338582677,
                    "duration": 0.11524733333332904
                },
                {
                    "name": "F#5",
                    "midi": 78,
                    "time": 78.94442333333296,
                    "velocity": 0.4409448818897638,
                    "duration": 0.11524733333332904
                },
                {
                    "name": "G5",
                    "midi": 79,
                    "time": 79.05967066666629,
                    "velocity": 0.4409448818897638,
                    "duration": 0.11524733333332904
                },
                {
                    "name": "D5",
                    "midi": 74,
                    "time": 79.17491799999962,
                    "velocity": 0.5748031496062992,
                    "duration": 0.11524733333332904
                },
                {
                    "name": "G#5",
                    "midi": 80,
                    "time": 79.29016533333295,
                    "velocity": 0.4881889763779528,
                    "duration": 0.11524733333332904
                },
                {
                    "name": "A5",
                    "midi": 81,
                    "time": 79.40541266666628,
                    "velocity": 0.4881889763779528,
                    "duration": 0.11524733333332904
                },
                {
                    "name": "D5",
                    "midi": 74,
                    "time": 79.52065999999961,
                    "velocity": 0.6299212598425197,
                    "duration": 0.11524733333332904
                },
                {
                    "name": "A#5",
                    "midi": 82,
                    "time": 79.63590733333294,
                    "velocity": 0.5433070866141733,
                    "duration": 0.11524733333332904
                },
                {
                    "name": "B5",
                    "midi": 83,
                    "time": 79.75115466666627,
                    "velocity": 0.5118110236220472,
                    "duration": 0.11524733333332904
                },
                {
                    "name": "D5",
                    "midi": 74,
                    "time": 79.8664019999996,
                    "velocity": 0.6535433070866141,
                    "duration": 0.11524733333332904
                },
                {
                    "name": "B5",
                    "midi": 83,
                    "time": 79.98164933333292,
                    "velocity": 0.5826771653543307,
                    "duration": 0.11524733333332904
                },
                {
                    "name": "C6",
                    "midi": 84,
                    "time": 80.09689666666625,
                    "velocity": 0.5826771653543307,
                    "duration": 0.11524733333332904
                },
                {
                    "name": "D5",
                    "midi": 74,
                    "time": 80.21214399999958,
                    "velocity": 0.6771653543307087,
                    "duration": 0.11524733333332904
                },
                {
                    "name": "C#6",
                    "midi": 85,
                    "time": 80.32739133333291,
                    "velocity": 0.7322834645669292,
                    "duration": 0.11524733333332904
                },
                {
                    "name": "D6",
                    "midi": 86,
                    "time": 80.44263866666624,
                    "velocity": 0.7244094488188977,
                    "duration": 0.11524733333332904
                },
                {
                    "name": "C6",
                    "midi": 84,
                    "time": 80.55788599999957,
                    "velocity": 0.7007874015748031,
                    "duration": 0.11524733333332904
                },
                {
                    "name": "B5",
                    "midi": 83,
                    "time": 80.6731333333329,
                    "velocity": 0.6929133858267716,
                    "duration": 0.11524733333332904
                },
                {
                    "name": "A5",
                    "midi": 81,
                    "time": 80.78838066666623,
                    "velocity": 0.6771653543307087,
                    "duration": 0.11524733333332904
                },
                {
                    "name": "G5",
                    "midi": 79,
                    "time": 80.90362799999956,
                    "velocity": 0.6535433070866141,
                    "duration": 0.11524733333332904
                },
                {
                    "name": "F#5",
                    "midi": 78,
                    "time": 81.01887533333289,
                    "velocity": 0.6456692913385826,
                    "duration": 0.11524733333332904
                },
                {
                    "name": "E5",
                    "midi": 76,
                    "time": 81.13412266666622,
                    "velocity": 0.6299212598425197,
                    "duration": 0.11524733333332904
                },
                {
                    "name": "D5",
                    "midi": 74,
                    "time": 81.24936999999954,
                    "velocity": 0.6141732283464567,
                    "duration": 0.11524733333332904
                },
                {
                    "name": "C5",
                    "midi": 72,
                    "time": 81.36461733333287,
                    "velocity": 0.5984251968503937,
                    "duration": 0.11524733333332904
                },
                {
                    "name": "B4",
                    "midi": 71,
                    "time": 81.4798646666662,
                    "velocity": 0.5826771653543307,
                    "duration": 0.11524733333332904
                },
                {
                    "name": "A4",
                    "midi": 69,
                    "time": 81.59511199999953,
                    "velocity": 0.5511811023622047,
                    "duration": 0.11524733333332904
                },
                {
                    "name": "E5",
                    "midi": 76,
                    "time": 81.71035933333286,
                    "velocity": 0.6141732283464567,
                    "duration": 0.11524733333332904
                },
                {
                    "name": "D5",
                    "midi": 74,
                    "time": 81.82560666666619,
                    "velocity": 0.5984251968503937,
                    "duration": 0.11524733333332904
                },
                {
                    "name": "C5",
                    "midi": 72,
                    "time": 81.94085399999952,
                    "velocity": 0.5748031496062992,
                    "duration": 0.11524733333332904
                },
                {
                    "name": "B4",
                    "midi": 71,
                    "time": 82.05610133333285,
                    "velocity": 0.5590551181102362,
                    "duration": 0.11524733333332904
                },
                {
                    "name": "A4",
                    "midi": 69,
                    "time": 82.17134866666618,
                    "velocity": 0.5433070866141733,
                    "duration": 0.11524733333332904
                },
                {
                    "name": "G4",
                    "midi": 67,
                    "time": 82.2865959999995,
                    "velocity": 0.6535433070866141,
                    "duration": 0.3457420000000013
                },
                {
                    "name": "F#4",
                    "midi": 66,
                    "time": 82.6323379999995,
                    "velocity": 0.5905511811023622,
                    "duration": 0.08643549999999323
                },
                {
                    "name": "G4",
                    "midi": 67,
                    "time": 82.7187734999995,
                    "velocity": 0.5275590551181102,
                    "duration": 0.08643549999999323
                },
                {
                    "name": "F#4",
                    "midi": 66,
                    "time": 82.8052089999995,
                    "velocity": 0.5905511811023622,
                    "duration": 0.17287100000000066
                },
                {
                    "name": "C#6",
                    "midi": 85,
                    "time": 83.09332733333282,
                    "velocity": 0.6141732283464567,
                    "duration": 0.11524733333332904
                },
                {
                    "name": "D6",
                    "midi": 86,
                    "time": 83.20857466666615,
                    "velocity": 0.6141732283464567,
                    "duration": 0.11524733333332904
                },
                {
                    "name": "C6",
                    "midi": 84,
                    "time": 83.32382199999948,
                    "velocity": 0.6614173228346457,
                    "duration": 0.11524733333332904
                },
                {
                    "name": "B5",
                    "midi": 83,
                    "time": 83.43906933333281,
                    "velocity": 0.6535433070866141,
                    "duration": 0.11524733333332904
                },
                {
                    "name": "A5",
                    "midi": 81,
                    "time": 83.55431666666614,
                    "velocity": 0.6377952755905512,
                    "duration": 0.11524733333332904
                },
                {
                    "name": "G5",
                    "midi": 79,
                    "time": 83.66956399999947,
                    "velocity": 0.6299212598425197,
                    "duration": 0.11524733333332904
                },
                {
                    "name": "F#5",
                    "midi": 78,
                    "time": 83.7848113333328,
                    "velocity": 0.6141732283464567,
                    "duration": 0.11524733333332904
                },
                {
                    "name": "E5",
                    "midi": 76,
                    "time": 83.90005866666613,
                    "velocity": 0.6062992125984252,
                    "duration": 0.11524733333332904
                },
                {
                    "name": "D5",
                    "midi": 74,
                    "time": 84.01530599999946,
                    "velocity": 0.5905511811023622,
                    "duration": 0.11524733333332904
                },
                {
                    "name": "C5",
                    "midi": 72,
                    "time": 84.13055333333278,
                    "velocity": 0.5748031496062992,
                    "duration": 0.11524733333332904
                },
                {
                    "name": "B4",
                    "midi": 71,
                    "time": 84.24580066666611,
                    "velocity": 0.5669291338582677,
                    "duration": 0.11524733333332904
                },
                {
                    "name": "A4",
                    "midi": 69,
                    "time": 84.36104799999944,
                    "velocity": 0.5511811023622047,
                    "duration": 0.11524733333332904
                },
                {
                    "name": "E5",
                    "midi": 76,
                    "time": 84.47629533333277,
                    "velocity": 0.6141732283464567,
                    "duration": 0.11524733333332904
                },
                {
                    "name": "D5",
                    "midi": 74,
                    "time": 84.5915426666661,
                    "velocity": 0.5984251968503937,
                    "duration": 0.11524733333332904
                },
                {
                    "name": "C5",
                    "midi": 72,
                    "time": 84.70678999999943,
                    "velocity": 0.5748031496062992,
                    "duration": 0.11524733333332904
                },
                {
                    "name": "B4",
                    "midi": 71,
                    "time": 84.82203733333276,
                    "velocity": 0.5590551181102362,
                    "duration": 0.11524733333332904
                },
                {
                    "name": "A4",
                    "midi": 69,
                    "time": 84.93728466666609,
                    "velocity": 0.5433070866141733,
                    "duration": 0.11524733333332904
                },
                {
                    "name": "G4",
                    "midi": 67,
                    "time": 85.05253199999942,
                    "velocity": 0.6535433070866141,
                    "duration": 0.3457420000000013
                },
                {
                    "name": "F#4",
                    "midi": 66,
                    "time": 85.39827399999942,
                    "velocity": 0.5905511811023622,
                    "duration": 0.08643549999999323
                },
                {
                    "name": "G4",
                    "midi": 67,
                    "time": 85.48470949999941,
                    "velocity": 0.5275590551181102,
                    "duration": 0.08643549999999323
                },
                {
                    "name": "F#4",
                    "midi": 66,
                    "time": 85.5711449999994,
                    "velocity": 0.5905511811023622,
                    "duration": 0.17287100000000066
                },
                {
                    "name": "G4",
                    "midi": 67,
                    "time": 85.7440159999994,
                    "velocity": 0.49606299212598426,
                    "duration": 0.3457420000000013
                },
                {
                    "name": "D5",
                    "midi": 74,
                    "time": 86.78124199999941,
                    "velocity": 0.44881889763779526,
                    "duration": 0.2593064999999939
                },
                {
                    "name": "F#5",
                    "midi": 78,
                    "time": 87.0405484999994,
                    "velocity": 0.44881889763779526,
                    "duration": 0.08643549999999323
                },
                {
                    "name": "G5",
                    "midi": 79,
                    "time": 87.1269839999994,
                    "velocity": 0.5039370078740157,
                    "duration": 0.08643549999999323
                },
                {
                    "name": "G5",
                    "midi": 79,
                    "time": 87.47272599999938,
                    "velocity": 0.44881889763779526,
                    "duration": 0.08643549999999323
                },
                {
                    "name": "G5",
                    "midi": 79,
                    "time": 87.81846799999937,
                    "velocity": 0.44881889763779526,
                    "duration": 0.08643549999999323
                },
                {
                    "name": "B5",
                    "midi": 83,
                    "time": 87.99133899999936,
                    "velocity": 0.4251968503937008,
                    "duration": 0.057623666666671625
                },
                {
                    "name": "A5",
                    "midi": 81,
                    "time": 88.04896266666603,
                    "velocity": 0.4015748031496063,
                    "duration": 0.057623666666671625
                },
                {
                    "name": "G5",
                    "midi": 79,
                    "time": 88.1065863333327,
                    "velocity": 0.4015748031496063,
                    "duration": 0.057623666666671625
                },
                {
                    "name": "A5",
                    "midi": 81,
                    "time": 88.16420999999937,
                    "velocity": 0.48031496062992124,
                    "duration": 0.2593064999999939
                },
                {
                    "name": "D6",
                    "midi": 86,
                    "time": 88.42351649999937,
                    "velocity": 0.44881889763779526,
                    "duration": 0.08643549999999323
                },
                {
                    "name": "B5",
                    "midi": 83,
                    "time": 88.50995199999936,
                    "velocity": 0.49606299212598426,
                    "duration": 0.08643549999999323
                },
                {
                    "name": "G5",
                    "midi": 79,
                    "time": 88.85569399999935,
                    "velocity": 0.44881889763779526,
                    "duration": 0.08643549999999323
                },
                {
                    "name": "G5",
                    "midi": 79,
                    "time": 89.20143599999933,
                    "velocity": 0.44881889763779526,
                    "duration": 0.08643549999999323
                },
                {
                    "name": "D5",
                    "midi": 74,
                    "time": 89.54717799999932,
                    "velocity": 0.6377952755905512,
                    "duration": 0.2593064999999939
                },
                {
                    "name": "F#5",
                    "midi": 78,
                    "time": 89.80648449999931,
                    "velocity": 0.6377952755905512,
                    "duration": 0.08643549999999323
                },
                {
                    "name": "G5",
                    "midi": 79,
                    "time": 89.89291999999931,
                    "velocity": 0.7165354330708661,
                    "duration": 0.08643549999999323
                },
                {
                    "name": "G5",
                    "midi": 79,
                    "time": 90.2386619999993,
                    "velocity": 0.6377952755905512,
                    "duration": 0.08643549999999323
                },
                {
                    "name": "G5",
                    "midi": 79,
                    "time": 90.58440399999928,
                    "velocity": 0.6377952755905512,
                    "duration": 0.08643549999999323
                },
                {
                    "name": "B5",
                    "midi": 83,
                    "time": 90.75727499999927,
                    "velocity": 0.6062992125984252,
                    "duration": 0.057623666666671625
                },
                {
                    "name": "A5",
                    "midi": 81,
                    "time": 90.81489866666594,
                    "velocity": 0.5669291338582677,
                    "duration": 0.057623666666671625
                },
                {
                    "name": "G5",
                    "midi": 79,
                    "time": 90.87252233333261,
                    "velocity": 0.5669291338582677,
                    "duration": 0.057623666666671625
                },
                {
                    "name": "A5",
                    "midi": 81,
                    "time": 90.93014599999928,
                    "velocity": 0.6771653543307087,
                    "duration": 0.2593064999999939
                },
                {
                    "name": "B5",
                    "midi": 83,
                    "time": 91.18945249999928,
                    "velocity": 0.6377952755905512,
                    "duration": 0.08643549999999323
                },
                {
                    "name": "G5",
                    "midi": 79,
                    "time": 91.27588799999927,
                    "velocity": 0.7165354330708661,
                    "duration": 0.3457420000000013
                },
                {
                    "name": "D5",
                    "midi": 74,
                    "time": 91.96737199999927,
                    "velocity": 0.6377952755905512,
                    "duration": 0.3457420000000013
                },
                {
                    "name": "B4",
                    "midi": 71,
                    "time": 91.96737199999927,
                    "velocity": 0.6377952755905512,
                    "duration": 0.3457420000000013
                },
                {
                    "name": "B4",
                    "midi": 71,
                    "time": 92.65885599999928,
                    "velocity": 0.6377952755905512,
                    "duration": 0.3457420000000013
                },
                {
                    "name": "G4",
                    "midi": 67,
                    "time": 92.65885599999928,
                    "velocity": 0.6377952755905512,
                    "duration": 0.3457420000000013
                },
                {
                    "name": "C5",
                    "midi": 72,
                    "time": 93.69608199999928,
                    "velocity": 0.3937007874015748,
                    "duration": 0.2593064999999939
                },
                {
                    "name": "E5",
                    "midi": 76,
                    "time": 93.95538849999927,
                    "velocity": 0.3937007874015748,
                    "duration": 0.08643549999999323
                },
                {
                    "name": "G5",
                    "midi": 79,
                    "time": 94.04182399999927,
                    "velocity": 0.44881889763779526,
                    "duration": 0.08643549999999323
                },
                {
                    "name": "G5",
                    "midi": 79,
                    "time": 94.38756599999925,
                    "velocity": 0.3937007874015748,
                    "duration": 0.08643549999999323
                },
                {
                    "name": "G5",
                    "midi": 79,
                    "time": 94.73330799999924,
                    "velocity": 0.3937007874015748,
                    "duration": 0.08643549999999323
                },
                {
                    "name": "B5",
                    "midi": 83,
                    "time": 95.03583224999923,
                    "velocity": 0.47244094488188976,
                    "duration": 0.04321774999999661
                },
                {
                    "name": "C6",
                    "midi": 84,
                    "time": 95.07904999999923,
                    "velocity": 0.5590551181102362,
                    "duration": 0.08643549999999323
                },
                {
                    "name": "G5",
                    "midi": 79,
                    "time": 95.42479199999921,
                    "velocity": 0.3937007874015748,
                    "duration": 0.08643549999999323
                },
                {
                    "name": "G5",
                    "midi": 79,
                    "time": 95.7705339999992,
                    "velocity": 0.33858267716535434,
                    "duration": 0.08643549999999323
                },
                {
                    "name": "G5",
                    "midi": 79,
                    "time": 96.11627599999919,
                    "velocity": 0.33858267716535434,
                    "duration": 0.08643549999999323
                },
                {
                    "name": "E5",
                    "midi": 76,
                    "time": 96.46201799999918,
                    "velocity": 0.3937007874015748,
                    "duration": 0.2593064999999939
                },
                {
                    "name": "C5",
                    "midi": 72,
                    "time": 96.72132449999917,
                    "velocity": 0.3937007874015748,
                    "duration": 0.08643549999999323
                },
                {
                    "name": "B4",
                    "midi": 71,
                    "time": 96.80775999999916,
                    "velocity": 0.44881889763779526,
                    "duration": 0.08643549999999323
                },
                {
                    "name": "B4",
                    "midi": 71,
                    "time": 97.15350199999915,
                    "velocity": 0.41732283464566927,
                    "duration": 0.08643549999999323
                },
                {
                    "name": "C5",
                    "midi": 72,
                    "time": 97.49924399999914,
                    "velocity": 0.44881889763779526,
                    "duration": 0.08643549999999323
                },
                {
                    "name": "C5",
                    "midi": 72,
                    "time": 97.84498599999912,
                    "velocity": 0.4094488188976378,
                    "duration": 0.08643549999999323
                },
                {
                    "name": "D5",
                    "midi": 74,
                    "time": 98.19072799999911,
                    "velocity": 0.44881889763779526,
                    "duration": 0.3457420000000013
                },
                {
                    "name": "G4",
                    "midi": 67,
                    "time": 99.22795399999912,
                    "velocity": 0.3937007874015748,
                    "duration": 0.2593064999999939
                },
                {
                    "name": "D5",
                    "midi": 74,
                    "time": 99.48726049999911,
                    "velocity": 0.3700787401574803,
                    "duration": 0.08643549999999323
                },
                {
                    "name": "F5",
                    "midi": 77,
                    "time": 99.5736959999991,
                    "velocity": 0.4566929133858268,
                    "duration": 0.08643549999999323
                },
                {
                    "name": "F5",
                    "midi": 77,
                    "time": 99.91943799999909,
                    "velocity": 0.3937007874015748,
                    "duration": 0.2593064999999939
                },
                {
                    "name": "G5",
                    "midi": 79,
                    "time": 100.17874449999908,
                    "velocity": 0.3779527559055118,
                    "duration": 0.08643549999999323
                },
                {
                    "name": "E5",
                    "midi": 76,
                    "time": 100.26517999999908,
                    "velocity": 0.4566929133858268,
                    "duration": 0.08643549999999323
                },
                {
                    "name": "E5",
                    "midi": 76,
                    "time": 100.61092199999906,
                    "velocity": 0.3937007874015748,
                    "duration": 0.2593064999999939
                },
                {
                    "name": "F5",
                    "midi": 77,
                    "time": 100.87022849999906,
                    "velocity": 0.3937007874015748,
                    "duration": 0.08643549999999323
                },
                {
                    "name": "D5",
                    "midi": 74,
                    "time": 100.95666399999905,
                    "velocity": 0.4645669291338583,
                    "duration": 0.08643549999999323
                },
                {
                    "name": "D5",
                    "midi": 74,
                    "time": 101.30240599999904,
                    "velocity": 0.3937007874015748,
                    "duration": 0.2593064999999939
                },
                {
                    "name": "E5",
                    "midi": 76,
                    "time": 101.56171249999903,
                    "velocity": 0.3700787401574803,
                    "duration": 0.08643549999999323
                },
                {
                    "name": "C5",
                    "midi": 72,
                    "time": 101.64814799999903,
                    "velocity": 0.44881889763779526,
                    "duration": 0.08643549999999323
                },
                {
                    "name": "C5",
                    "midi": 72,
                    "time": 101.99388999999901,
                    "velocity": 0.4094488188976378,
                    "duration": 0.08643549999999323
                },
                {
                    "name": "D5",
                    "midi": 74,
                    "time": 102.339631999999,
                    "velocity": 0.44881889763779526,
                    "duration": 0.08643549999999323
                },
                {
                    "name": "D5",
                    "midi": 74,
                    "time": 102.68537399999899,
                    "velocity": 0.4094488188976378,
                    "duration": 0.08643549999999323
                },
                {
                    "name": "B4",
                    "midi": 71,
                    "time": 103.03111599999897,
                    "velocity": 0.4566929133858268,
                    "duration": 0.08643549999999323
                },
                {
                    "name": "B4",
                    "midi": 71,
                    "time": 103.37685799999896,
                    "velocity": 0.4094488188976378,
                    "duration": 0.08643549999999323
                },
                {
                    "name": "C5",
                    "midi": 72,
                    "time": 103.72259999999895,
                    "velocity": 0.49606299212598426,
                    "duration": 0.3457420000000013
                },
                {
                    "name": "C5",
                    "midi": 72,
                    "time": 104.75982599999895,
                    "velocity": 0.5433070866141733,
                    "duration": 0.2593064999999939
                },
                {
                    "name": "E5",
                    "midi": 76,
                    "time": 105.01913249999895,
                    "velocity": 0.5590551181102362,
                    "duration": 0.08643549999999323
                },
                {
                    "name": "G5",
                    "midi": 79,
                    "time": 105.10556799999894,
                    "velocity": 0.6535433070866141,
                    "duration": 0.08643549999999323
                },
                {
                    "name": "G5",
                    "midi": 79,
                    "time": 105.45130999999893,
                    "velocity": 0.5905511811023622,
                    "duration": 0.08643549999999323
                },
                {
                    "name": "G5",
                    "midi": 79,
                    "time": 105.79705199999891,
                    "velocity": 0.5984251968503937,
                    "duration": 0.08643549999999323
                },
                {
                    "name": "B5",
                    "midi": 83,
                    "time": 106.0995762499989,
                    "velocity": 0.6141732283464567,
                    "duration": 0.04321774999999661
                },
                {
                    "name": "C6",
                    "midi": 84,
                    "time": 106.1427939999989,
                    "velocity": 0.7244094488188977,
                    "duration": 0.3457420000000013
                },
                {
                    "name": "G5",
                    "midi": 79,
                    "time": 106.4885359999989,
                    "velocity": 0.6692913385826772,
                    "duration": 0.08643549999999323
                },
                {
                    "name": "G5",
                    "midi": 79,
                    "time": 106.83427799999889,
                    "velocity": 0.5826771653543307,
                    "duration": 0.08643549999999323
                },
                {
                    "name": "G5",
                    "midi": 79,
                    "time": 107.18001999999888,
                    "velocity": 0.5826771653543307,
                    "duration": 0.08643549999999323
                },
                {
                    "name": "F5",
                    "midi": 77,
                    "time": 107.52576199999886,
                    "velocity": 0.5433070866141733,
                    "duration": 0.08643549999999323
                },
                {
                    "name": "E5",
                    "midi": 76,
                    "time": 107.61219749999886,
                    "velocity": 0.47244094488188976,
                    "duration": 0.08643549999999323
                },
                {
                    "name": "D5",
                    "midi": 74,
                    "time": 107.69863299999885,
                    "velocity": 0.47244094488188976,
                    "duration": 0.08643549999999323
                },
                {
                    "name": "C5",
                    "midi": 72,
                    "time": 107.78506849999884,
                    "velocity": 0.47244094488188976,
                    "duration": 0.08643549999999323
                },
                {
                    "name": "B4",
                    "midi": 71,
                    "time": 107.87150399999884,
                    "velocity": 0.5826771653543307,
                    "duration": 0.08643549999999323
                },
                {
                    "name": "B4",
                    "midi": 71,
                    "time": 108.21724599999882,
                    "velocity": 0.5354330708661418,
                    "duration": 0.08643549999999323
                },
                {
                    "name": "C5",
                    "midi": 72,
                    "time": 108.56298799999881,
                    "velocity": 0.5826771653543307,
                    "duration": 0.08643549999999323
                },
                {
                    "name": "C5",
                    "midi": 72,
                    "time": 108.9087299999988,
                    "velocity": 0.5275590551181102,
                    "duration": 0.08643549999999323
                },
                {
                    "name": "D5",
                    "midi": 74,
                    "time": 109.25447199999878,
                    "velocity": 0.5826771653543307,
                    "duration": 0.3457420000000013
                },
                {
                    "name": "G4",
                    "midi": 67,
                    "time": 110.29169799999879,
                    "velocity": 0.5118110236220472,
                    "duration": 0.2593064999999939
                },
                {
                    "name": "D5",
                    "midi": 74,
                    "time": 110.55100449999878,
                    "velocity": 0.48031496062992124,
                    "duration": 0.08643549999999323
                },
                {
                    "name": "F5",
                    "midi": 77,
                    "time": 110.63743999999878,
                    "velocity": 0.5905511811023622,
                    "duration": 0.08643549999999323
                },
                {
                    "name": "F5",
                    "midi": 77,
                    "time": 110.98318199999876,
                    "velocity": 0.5118110236220472,
                    "duration": 0.2593064999999939
                },
                {
                    "name": "G5",
                    "midi": 79,
                    "time": 111.24248849999876,
                    "velocity": 0.4881889763779528,
                    "duration": 0.08643549999999323
                },
                {
                    "name": "E5",
                    "midi": 76,
                    "time": 111.32892399999875,
                    "velocity": 0.5905511811023622,
                    "duration": 0.08643549999999323
                },
                {
                    "name": "E5",
                    "midi": 76,
                    "time": 111.67466599999874,
                    "velocity": 0.5118110236220472,
                    "duration": 0.2593064999999939
                },
                {
                    "name": "F5",
                    "midi": 77,
                    "time": 111.93397249999873,
                    "velocity": 0.5118110236220472,
                    "duration": 0.08643549999999323
                },
                {
                    "name": "D5",
                    "midi": 74,
                    "time": 112.02040799999872,
                    "velocity": 0.5984251968503937,
                    "duration": 0.08643549999999323
                },
                {
                    "name": "D5",
                    "midi": 74,
                    "time": 112.36614999999871,
                    "velocity": 0.5118110236220472,
                    "duration": 0.2593064999999939
                },
                {
                    "name": "E5",
                    "midi": 76,
                    "time": 112.6254564999987,
                    "velocity": 0.48031496062992124,
                    "duration": 0.08643549999999323
                },
                {
                    "name": "C5",
                    "midi": 72,
                    "time": 112.7118919999987,
                    "velocity": 0.5826771653543307,
                    "duration": 0.08643549999999323
                },
                {
                    "name": "C5",
                    "midi": 72,
                    "time": 113.05763399999869,
                    "velocity": 0.5275590551181102,
                    "duration": 0.08643549999999323
                },
                {
                    "name": "D5",
                    "midi": 74,
                    "time": 113.40337599999867,
                    "velocity": 0.5826771653543307,
                    "duration": 0.08643549999999323
                },
                {
                    "name": "D5",
                    "midi": 74,
                    "time": 113.74911799999866,
                    "velocity": 0.5275590551181102,
                    "duration": 0.08643549999999323
                },
                {
                    "name": "B4",
                    "midi": 71,
                    "time": 114.09485999999865,
                    "velocity": 0.5905511811023622,
                    "duration": 0.08643549999999323
                },
                {
                    "name": "B4",
                    "midi": 71,
                    "time": 114.44060199999863,
                    "velocity": 0.5275590551181102,
                    "duration": 0.08643549999999323
                },
                {
                    "name": "C5",
                    "midi": 72,
                    "time": 114.78634399999862,
                    "velocity": 0.6377952755905512,
                    "duration": 1.037226000000004
                },
                {
                    "name": "E5",
                    "midi": 76,
                    "time": 115.82356999999863,
                    "velocity": 0.3937007874015748,
                    "duration": 0.2593064999999939
                },
                {
                    "name": "G5",
                    "midi": 79,
                    "time": 116.08287649999862,
                    "velocity": 0.36220472440944884,
                    "duration": 0.08643549999999323
                },
                {
                    "name": "F5",
                    "midi": 77,
                    "time": 116.16931199999861,
                    "velocity": 0.3937007874015748,
                    "duration": 0.08643549999999323
                },
                {
                    "name": "F5",
                    "midi": 77,
                    "time": 116.5150539999986,
                    "velocity": 0.3937007874015748,
                    "duration": 0.2593064999999939
                },
                {
                    "name": "A5",
                    "midi": 81,
                    "time": 116.7743604999986,
                    "velocity": 0.3543307086614173,
                    "duration": 0.08643549999999323
                },
                {
                    "name": "B4",
                    "midi": 71,
                    "time": 116.86079599999859,
                    "velocity": 0.3937007874015748,
                    "duration": 0.08643549999999323
                },
                {
                    "name": "B4",
                    "midi": 71,
                    "time": 117.20653799999857,
                    "velocity": 0.3937007874015748,
                    "duration": 0.2593064999999939
                },
                {
                    "name": "D5",
                    "midi": 74,
                    "time": 117.46584449999857,
                    "velocity": 0.3543307086614173,
                    "duration": 0.08643549999999323
                },
                {
                    "name": "C5",
                    "midi": 72,
                    "time": 117.55227999999856,
                    "velocity": 0.3937007874015748,
                    "duration": 0.08643549999999323
                },
                {
                    "name": "C5",
                    "midi": 72,
                    "time": 117.89802199999855,
                    "velocity": 0.3937007874015748,
                    "duration": 0.2593064999999939
                },
                {
                    "name": "E5",
                    "midi": 76,
                    "time": 118.15732849999854,
                    "velocity": 0.3937007874015748,
                    "duration": 0.08643549999999323
                },
                {
                    "name": "G5",
                    "midi": 79,
                    "time": 118.24376399999854,
                    "velocity": 0.48031496062992124,
                    "duration": 0.08643549999999323
                },
                {
                    "name": "C6",
                    "midi": 84,
                    "time": 118.58950599999852,
                    "velocity": 0.44881889763779526,
                    "duration": 0.2593064999999939
                },
                {
                    "name": "E5",
                    "midi": 76,
                    "time": 118.84881249999852,
                    "velocity": 0.3937007874015748,
                    "duration": 0.08643549999999323
                },
                {
                    "name": "F5",
                    "midi": 77,
                    "time": 118.93524799999851,
                    "velocity": 0.47244094488188976,
                    "duration": 0.08643549999999323
                },
                {
                    "name": "A5",
                    "midi": 81,
                    "time": 119.2809899999985,
                    "velocity": 0.4566929133858268,
                    "duration": 0.2593064999999939
                },
                {
                    "name": "C5",
                    "midi": 72,
                    "time": 119.54029649999849,
                    "velocity": 0.3858267716535433,
                    "duration": 0.08643549999999323
                },
                {
                    "name": "B4",
                    "midi": 71,
                    "time": 119.62673199999848,
                    "velocity": 0.4645669291338583,
                    "duration": 0.08643549999999323
                },
                {
                    "name": "F5",
                    "midi": 77,
                    "time": 119.97247399999847,
                    "velocity": 0.47244094488188976,
                    "duration": 0.2593064999999939
                },
                {
                    "name": "B4",
                    "midi": 71,
                    "time": 120.23178049999846,
                    "velocity": 0.4251968503937008,
                    "duration": 0.08643549999999323
                },
                {
                    "name": "C5",
                    "midi": 72,
                    "time": 120.31821599999846,
                    "velocity": 0.5196850393700787,
                    "duration": 0.08643549999999323
                },
                {
                    "name": "C5",
                    "midi": 72,
                    "time": 120.66395799999844,
                    "velocity": 0.4094488188976378,
                    "duration": 0.08643549999999323
                },
                {
                    "name": "C5",
                    "midi": 72,
                    "time": 121.00969999999843,
                    "velocity": 0.4015748031496063,
                    "duration": 0.08643549999999323
                },
                {
                    "name": "E5",
                    "midi": 76,
                    "time": 121.35544199999842,
                    "velocity": 0.44881889763779526,
                    "duration": 0.08643549999999323
                },
                {
                    "name": "D5",
                    "midi": 74,
                    "time": 121.44187749999841,
                    "velocity": 0.3937007874015748,
                    "duration": 0.08643549999999323
                },
                {
                    "name": "C5",
                    "midi": 72,
                    "time": 121.5283129999984,
                    "velocity": 0.3937007874015748,
                    "duration": 0.08643549999999323
                },
                {
                    "name": "D5",
                    "midi": 74,
                    "time": 121.6147484999984,
                    "velocity": 0.3937007874015748,
                    "duration": 0.08643549999999323
                },
                {
                    "name": "E5",
                    "midi": 76,
                    "time": 121.70118399999839,
                    "velocity": 0.49606299212598426,
                    "duration": 0.08643549999999323
                },
                {
                    "name": "C5",
                    "midi": 72,
                    "time": 122.04692599999838,
                    "velocity": 0.4094488188976378,
                    "duration": 0.08643549999999323
                },
                {
                    "name": "C5",
                    "midi": 72,
                    "time": 122.39266799999837,
                    "velocity": 0.4015748031496063,
                    "duration": 0.08643549999999323
                },
                {
                    "name": "E5",
                    "midi": 76,
                    "time": 122.73840999999835,
                    "velocity": 0.44881889763779526,
                    "duration": 0.08643549999999323
                },
                {
                    "name": "D5",
                    "midi": 74,
                    "time": 122.82484549999835,
                    "velocity": 0.3937007874015748,
                    "duration": 0.08643549999999323
                },
                {
                    "name": "C5",
                    "midi": 72,
                    "time": 122.91128099999834,
                    "velocity": 0.3937007874015748,
                    "duration": 0.08643549999999323
                },
                {
                    "name": "D5",
                    "midi": 74,
                    "time": 122.99771649999833,
                    "velocity": 0.3937007874015748,
                    "duration": 0.08643549999999323
                },
                {
                    "name": "E5",
                    "midi": 76,
                    "time": 123.08415199999833,
                    "velocity": 0.49606299212598426,
                    "duration": 0.08643549999999323
                },
                {
                    "name": "C5",
                    "midi": 72,
                    "time": 123.42989399999831,
                    "velocity": 0.4094488188976378,
                    "duration": 0.08643549999999323
                },
                {
                    "name": "C5",
                    "midi": 72,
                    "time": 123.7756359999983,
                    "velocity": 0.4015748031496063,
                    "duration": 0.08643549999999323
                },
                {
                    "name": "E5",
                    "midi": 76,
                    "time": 124.12137799999829,
                    "velocity": 0.44881889763779526,
                    "duration": 0.08643549999999323
                },
                {
                    "name": "D5",
                    "midi": 74,
                    "time": 124.20781349999828,
                    "velocity": 0.3937007874015748,
                    "duration": 0.08643549999999323
                },
                {
                    "name": "C5",
                    "midi": 72,
                    "time": 124.29424899999827,
                    "velocity": 0.3937007874015748,
                    "duration": 0.08643549999999323
                },
                {
                    "name": "D5",
                    "midi": 74,
                    "time": 124.38068449999827,
                    "velocity": 0.3937007874015748,
                    "duration": 0.08643549999999323
                },
                {
                    "name": "E5",
                    "midi": 76,
                    "time": 124.46711999999826,
                    "velocity": 0.49606299212598426,
                    "duration": 0.08643549999999323
                },
                {
                    "name": "E5",
                    "midi": 76,
                    "time": 124.81286199999825,
                    "velocity": 0.4330708661417323,
                    "duration": 0.08643549999999323
                },
                {
                    "name": "E5",
                    "midi": 76,
                    "time": 125.15860399999823,
                    "velocity": 0.4330708661417323,
                    "duration": 0.08643549999999323
                },
                {
                    "name": "G5",
                    "midi": 79,
                    "time": 125.50434599999822,
                    "velocity": 0.47244094488188976,
                    "duration": 0.08643549999999323
                },
                {
                    "name": "F#5",
                    "midi": 78,
                    "time": 125.59078149999822,
                    "velocity": 0.41732283464566927,
                    "duration": 0.08643549999999323
                },
                {
                    "name": "E5",
                    "midi": 76,
                    "time": 125.67721699999821,
                    "velocity": 0.41732283464566927,
                    "duration": 0.08643549999999323
                },
                {
                    "name": "F#5",
                    "midi": 78,
                    "time": 125.7636524999982,
                    "velocity": 0.41732283464566927,
                    "duration": 0.08643549999999323
                },
                {
                    "name": "G5",
                    "midi": 79,
                    "time": 125.8500879999982,
                    "velocity": 0.5354330708661418,
                    "duration": 0.08643549999999323
                },
                {
                    "name": "G5",
                    "midi": 79,
                    "time": 126.19582999999818,
                    "velocity": 0.44881889763779526,
                    "duration": 0.08643549999999323
                },
                {
                    "name": "G5",
                    "midi": 79,
                    "time": 126.54157199999817,
                    "velocity": 0.44881889763779526,
                    "duration": 0.08643549999999323
                },
                {
                    "name": "B5",
                    "midi": 83,
                    "time": 126.88731399999816,
                    "velocity": 0.5039370078740157,
                    "duration": 0.08643549999999323
                },
                {
                    "name": "A5",
                    "midi": 81,
                    "time": 126.97374949999815,
                    "velocity": 0.44881889763779526,
                    "duration": 0.08643549999999323
                },
                {
                    "name": "G5",
                    "midi": 79,
                    "time": 127.06018499999814,
                    "velocity": 0.44881889763779526,
                    "duration": 0.08643549999999323
                },
                {
                    "name": "A5",
                    "midi": 81,
                    "time": 127.14662049999814,
                    "velocity": 0.44881889763779526,
                    "duration": 0.08643549999999323
                },
                {
                    "name": "B5",
                    "midi": 83,
                    "time": 127.23305599999813,
                    "velocity": 0.5748031496062992,
                    "duration": 0.08643549999999323
                },
                {
                    "name": "G5",
                    "midi": 79,
                    "time": 127.57879799999812,
                    "velocity": 0.48031496062992124,
                    "duration": 0.08643549999999323
                },
                {
                    "name": "G5",
                    "midi": 79,
                    "time": 127.9245399999981,
                    "velocity": 0.48031496062992124,
                    "duration": 0.08643549999999323
                },
                {
                    "name": "B5",
                    "midi": 83,
                    "time": 128.2702819999981,
                    "velocity": 0.5433070866141733,
                    "duration": 0.08643549999999323
                },
                {
                    "name": "A5",
                    "midi": 81,
                    "time": 128.3567174999981,
                    "velocity": 0.48031496062992124,
                    "duration": 0.08643549999999323
                },
                {
                    "name": "G5",
                    "midi": 79,
                    "time": 128.4431529999981,
                    "velocity": 0.48031496062992124,
                    "duration": 0.08643549999999323
                },
                {
                    "name": "A5",
                    "midi": 81,
                    "time": 128.52958849999808,
                    "velocity": 0.48031496062992124,
                    "duration": 0.08643549999999323
                },
                {
                    "name": "B5",
                    "midi": 83,
                    "time": 128.61602399999808,
                    "velocity": 0.6141732283464567,
                    "duration": 0.08643549999999323
                },
                {
                    "name": "G5",
                    "midi": 79,
                    "time": 128.96176599999808,
                    "velocity": 0.5118110236220472,
                    "duration": 0.08643549999999323
                },
                {
                    "name": "G5",
                    "midi": 79,
                    "time": 129.30750799999808,
                    "velocity": 0.5118110236220472,
                    "duration": 0.08643549999999323
                },
                {
                    "name": "G5",
                    "midi": 79,
                    "time": 129.65324999999808,
                    "velocity": 0.5905511811023622,
                    "duration": 0.11524733333334325
                },
                {
                    "name": "B5",
                    "midi": 83,
                    "time": 129.76849733333142,
                    "velocity": 0.5433070866141733,
                    "duration": 0.11524733333334325
                },
                {
                    "name": "D6",
                    "midi": 86,
                    "time": 129.88374466666477,
                    "velocity": 0.5590551181102362,
                    "duration": 0.11524733333334325
                },
                {
                    "name": "C6",
                    "midi": 84,
                    "time": 129.9989919999981,
                    "velocity": 0.5905511811023622,
                    "duration": 0.3457420000000013
                },
                {
                    "name": "C6",
                    "midi": 84,
                    "time": 130.3447339999981,
                    "velocity": 0.5433070866141733,
                    "duration": 0.2593065000000081
                },
                {
                    "name": "D6",
                    "midi": 86,
                    "time": 130.60404049999812,
                    "velocity": 0.5118110236220472,
                    "duration": 0.08643549999999323
                },
                {
                    "name": "B5",
                    "midi": 83,
                    "time": 130.6904759999981,
                    "velocity": 0.5905511811023622,
                    "duration": 0.08643549999999323
                },
                {
                    "name": "B5",
                    "midi": 83,
                    "time": 131.03621799999812,
                    "velocity": 0.5905511811023622,
                    "duration": 0.2593065000000081
                },
                {
                    "name": "C6",
                    "midi": 84,
                    "time": 131.29552449999812,
                    "velocity": 0.5511811023622047,
                    "duration": 0.08643549999999323
                },
                {
                    "name": "A5",
                    "midi": 81,
                    "time": 131.38195999999812,
                    "velocity": 0.5905511811023622,
                    "duration": 0.08643549999999323
                },
                {
                    "name": "A5",
                    "midi": 81,
                    "time": 131.72770199999812,
                    "velocity": 0.5433070866141733,
                    "duration": 0.2593065000000081
                },
                {
                    "name": "B5",
                    "midi": 83,
                    "time": 131.98700849999813,
                    "velocity": 0.5118110236220472,
                    "duration": 0.08643549999999323
                },
                {
                    "name": "G5",
                    "midi": 79,
                    "time": 132.07344399999812,
                    "velocity": 0.5905511811023622,
                    "duration": 0.08643549999999323
                },
                {
                    "name": "G5",
                    "midi": 79,
                    "time": 132.41918599999812,
                    "velocity": 0.44881889763779526,
                    "duration": 0.11524733333334325
                },
                {
                    "name": "B5",
                    "midi": 83,
                    "time": 132.53443333333146,
                    "velocity": 0.4094488188976378,
                    "duration": 0.11524733333334325
                },
                {
                    "name": "D6",
                    "midi": 86,
                    "time": 132.6496806666648,
                    "velocity": 0.41732283464566927,
                    "duration": 0.11524733333334325
                },
                {
                    "name": "C6",
                    "midi": 84,
                    "time": 132.76492799999815,
                    "velocity": 0.44881889763779526,
                    "duration": 0.17287099999998645
                },
                {
                    "name": "D6",
                    "midi": 86,
                    "time": 132.93779899999814,
                    "velocity": 0.44881889763779526,
                    "duration": 0.057623666666671625
                },
                {
                    "name": "C6",
                    "midi": 84,
                    "time": 132.9954226666648,
                    "velocity": 0.3858267716535433,
                    "duration": 0.057623666666671625
                },
                {
                    "name": "B5",
                    "midi": 83,
                    "time": 133.05304633333148,
                    "velocity": 0.3858267716535433,
                    "duration": 0.057623666666671625
                },
                {
                    "name": "C6",
                    "midi": 84,
                    "time": 133.11066999999815,
                    "velocity": 0.4094488188976378,
                    "duration": 0.2593065000000081
                },
                {
                    "name": "D6",
                    "midi": 86,
                    "time": 133.36997649999816,
                    "velocity": 0.3858267716535433,
                    "duration": 0.08643549999999323
                },
                {
                    "name": "B5",
                    "midi": 83,
                    "time": 133.45641199999815,
                    "velocity": 0.44881889763779526,
                    "duration": 0.17287099999998645
                },
                {
                    "name": "C6",
                    "midi": 84,
                    "time": 133.62928299999814,
                    "velocity": 0.44881889763779526,
                    "duration": 0.057623666666671625
                },
                {
                    "name": "B5",
                    "midi": 83,
                    "time": 133.6869066666648,
                    "velocity": 0.3937007874015748,
                    "duration": 0.057623666666671625
                },
                {
                    "name": "A5",
                    "midi": 81,
                    "time": 133.74453033333148,
                    "velocity": 0.3937007874015748,
                    "duration": 0.057623666666671625
                },
                {
                    "name": "B5",
                    "midi": 83,
                    "time": 133.80215399999815,
                    "velocity": 0.44881889763779526,
                    "duration": 0.2593065000000081
                },
                {
                    "name": "C6",
                    "midi": 84,
                    "time": 134.06146049999816,
                    "velocity": 0.41732283464566927,
                    "duration": 0.08643549999999323
                },
                {
                    "name": "A5",
                    "midi": 81,
                    "time": 134.14789599999816,
                    "velocity": 0.44881889763779526,
                    "duration": 0.17287099999998645
                },
                {
                    "name": "B5",
                    "midi": 83,
                    "time": 134.32076699999814,
                    "velocity": 0.44881889763779526,
                    "duration": 0.057623666666671625
                },
                {
                    "name": "A5",
                    "midi": 81,
                    "time": 134.3783906666648,
                    "velocity": 0.4015748031496063,
                    "duration": 0.057623666666671625
                },
                {
                    "name": "G5",
                    "midi": 79,
                    "time": 134.43601433333149,
                    "velocity": 0.4015748031496063,
                    "duration": 0.057623666666671625
                },
                {
                    "name": "A5",
                    "midi": 81,
                    "time": 134.49363799999816,
                    "velocity": 0.4094488188976378,
                    "duration": 0.2593065000000081
                },
                {
                    "name": "B5",
                    "midi": 83,
                    "time": 134.75294449999816,
                    "velocity": 0.3858267716535433,
                    "duration": 0.08643549999999323
                },
                {
                    "name": "G5",
                    "midi": 79,
                    "time": 134.83937999999816,
                    "velocity": 0.44881889763779526,
                    "duration": 0.3457420000000013
                },
                {
                    "name": "D6",
                    "midi": 86,
                    "time": 135.18512199999816,
                    "velocity": 0.5196850393700787,
                    "duration": 0.2593065000000081
                },
                {
                    "name": "B5",
                    "midi": 83,
                    "time": 135.44442849999817,
                    "velocity": 0.4330708661417323,
                    "duration": 0.08643549999999323
                },
                {
                    "name": "A5",
                    "midi": 81,
                    "time": 135.53086399999816,
                    "velocity": 0.5826771653543307,
                    "duration": 0.17287099999998645
                },
                {
                    "name": "B5",
                    "midi": 83,
                    "time": 135.70373499999815,
                    "velocity": 0.5354330708661418,
                    "duration": 0.057623666666671625
                },
                {
                    "name": "A5",
                    "midi": 81,
                    "time": 135.76135866666482,
                    "velocity": 0.4645669291338583,
                    "duration": 0.057623666666671625
                },
                {
                    "name": "G5",
                    "midi": 79,
                    "time": 135.8189823333315,
                    "velocity": 0.4645669291338583,
                    "duration": 0.057623666666671625
                },
                {
                    "name": "A5",
                    "midi": 81,
                    "time": 135.87660599999816,
                    "velocity": 0.4881889763779528,
                    "duration": 0.2593065000000081
                },
                {
                    "name": "B5",
                    "midi": 83,
                    "time": 136.13591249999817,
                    "velocity": 0.4645669291338583,
                    "duration": 0.08643549999999323
                },
                {
                    "name": "G5",
                    "midi": 79,
                    "time": 136.22234799999816,
                    "velocity": 0.5354330708661418,
                    "duration": 0.17287099999998645
                },
                {
                    "name": "A5",
                    "midi": 81,
                    "time": 136.39521899999815,
                    "velocity": 0.5354330708661418,
                    "duration": 0.057623666666671625
                },
                {
                    "name": "G5",
                    "midi": 79,
                    "time": 136.45284266666482,
                    "velocity": 0.47244094488188976,
                    "duration": 0.057623666666671625
                },
                {
                    "name": "F#5",
                    "midi": 78,
                    "time": 136.5104663333315,
                    "velocity": 0.47244094488188976,
                    "duration": 0.057623666666671625
                },
                {
                    "name": "G5",
                    "midi": 79,
                    "time": 136.56808999999816,
                    "velocity": 0.5354330708661418,
                    "duration": 0.2593065000000081
                },
                {
                    "name": "A5",
                    "midi": 81,
                    "time": 136.82739649999817,
                    "velocity": 0.49606299212598426,
                    "duration": 0.08643549999999323
                },
                {
                    "name": "F#5",
                    "midi": 78,
                    "time": 136.91383199999817,
                    "velocity": 0.5826771653543307,
                    "duration": 0.3457420000000013
                },
                {
                    "name": "D5",
                    "midi": 74,
                    "time": 137.51888049999818,
                    "velocity": 0.5354330708661418,
                    "duration": 0.08643549999999323
                },
                {
                    "name": "F#5",
                    "midi": 78,
                    "time": 137.60531599999817,
                    "velocity": 0.6220472440944882,
                    "duration": 0.2593065000000081
                },
                {
                    "name": "D5",
                    "midi": 74,
                    "time": 137.86462249999818,
                    "velocity": 0.5354330708661418,
                    "duration": 0.08643549999999323
                },
                {
                    "name": "A5",
                    "midi": 81,
                    "time": 137.95105799999817,
                    "velocity": 0.5826771653543307,
                    "duration": 0.2593065000000081
                },
                {
                    "name": "F#5",
                    "midi": 78,
                    "time": 138.21036449999818,
                    "velocity": 0.5354330708661418,
                    "duration": 0.08643549999999323
                },
                {
                    "name": "D6",
                    "midi": 86,
                    "time": 138.29679999999817,
                    "velocity": 0.6771653543307087,
                    "duration": 0.3457420000000013
                },
                {
                    "name": "D4",
                    "midi": 62,
                    "time": 138.90184849999818,
                    "velocity": 0.5196850393700787,
                    "duration": 0.08643549999999323
                },
                {
                    "name": "F#4",
                    "midi": 66,
                    "time": 138.98828399999817,
                    "velocity": 0.6062992125984252,
                    "duration": 0.11524733333334325
                },
                {
                    "name": "D4",
                    "midi": 62,
                    "time": 139.10353133333152,
                    "velocity": 0.5433070866141733,
                    "duration": 0.11524733333334325
                },
                {
                    "name": "F#4",
                    "midi": 66,
                    "time": 139.21877866666486,
                    "velocity": 0.5433070866141733,
                    "duration": 0.11524733333334325
                },
                {
                    "name": "A4",
                    "midi": 69,
                    "time": 139.3340259999982,
                    "velocity": 0.6299212598425197,
                    "duration": 0.11524733333334325
                },
                {
                    "name": "F#4",
                    "midi": 66,
                    "time": 139.44927333333155,
                    "velocity": 0.5511811023622047,
                    "duration": 0.11524733333334325
                },
                {
                    "name": "A4",
                    "midi": 69,
                    "time": 139.5645206666649,
                    "velocity": 0.5511811023622047,
                    "duration": 0.11524733333334325
                },
                {
                    "name": "D5",
                    "midi": 74,
                    "time": 139.67976799999823,
                    "velocity": 0.6614173228346457,
                    "duration": 0.3457420000000013
                },
                {
                    "name": "D3",
                    "midi": 50,
                    "time": 140.37125199999824,
                    "velocity": 0.7480314960629921,
                    "duration": 0.5186129999999878
                },
                {
                    "name": "D3",
                    "midi": 50,
                    "time": 140.88986499999822,
                    "velocity": 0.7007874015748031,
                    "duration": 0.17287099999998645
                },
                {
                    "name": "D3",
                    "midi": 50,
                    "time": 141.0627359999982,
                    "velocity": 0.7637795275590551,
                    "duration": 0.3457420000000013
                },
                {
                    "name": "E5",
                    "midi": 76,
                    "time": 143.48292999999822,
                    "velocity": 0.44881889763779526,
                    "duration": 0.08643549999999323
                },
                {
                    "name": "D5",
                    "midi": 74,
                    "time": 143.5693654999982,
                    "velocity": 0.3937007874015748,
                    "duration": 0.08643549999999323
                },
                {
                    "name": "C#5",
                    "midi": 73,
                    "time": 143.6558009999982,
                    "velocity": 0.3937007874015748,
                    "duration": 0.08643549999999323
                },
                {
                    "name": "D5",
                    "midi": 74,
                    "time": 143.7422364999982,
                    "velocity": 0.3937007874015748,
                    "duration": 0.08643549999999323
                },
                {
                    "name": "G5",
                    "midi": 79,
                    "time": 143.8286719999982,
                    "velocity": 0.49606299212598426,
                    "duration": 0.08643549999999323
                },
                {
                    "name": "G5",
                    "midi": 79,
                    "time": 144.1744139999982,
                    "velocity": 0.41732283464566927,
                    "duration": 0.08643549999999323
                },
                {
                    "name": "E5",
                    "midi": 76,
                    "time": 144.8658979999982,
                    "velocity": 0.47244094488188976,
                    "duration": 0.08643549999999323
                },
                {
                    "name": "D5",
                    "midi": 74,
                    "time": 144.9523334999982,
                    "velocity": 0.41732283464566927,
                    "duration": 0.08643549999999323
                },
                {
                    "name": "C#5",
                    "midi": 73,
                    "time": 145.03876899999818,
                    "velocity": 0.41732283464566927,
                    "duration": 0.08643549999999323
                },
                {
                    "name": "D5",
                    "midi": 74,
                    "time": 145.12520449999818,
                    "velocity": 0.41732283464566927,
                    "duration": 0.08643549999999323
                },
                {
                    "name": "G5",
                    "midi": 79,
                    "time": 145.21163999999817,
                    "velocity": 0.5354330708661418,
                    "duration": 0.08643549999999323
                },
                {
                    "name": "G5",
                    "midi": 79,
                    "time": 145.55738199999817,
                    "velocity": 0.44881889763779526,
                    "duration": 0.08643549999999323
                },
                {
                    "name": "E5",
                    "midi": 76,
                    "time": 146.24886599999817,
                    "velocity": 0.5039370078740157,
                    "duration": 0.08643549999999323
                },
                {
                    "name": "D5",
                    "midi": 74,
                    "time": 146.33530149999817,
                    "velocity": 0.44881889763779526,
                    "duration": 0.08643549999999323
                },
                {
                    "name": "C#5",
                    "midi": 73,
                    "time": 146.42173699999816,
                    "velocity": 0.44881889763779526,
                    "duration": 0.08643549999999323
                },
                {
                    "name": "D5",
                    "midi": 74,
                    "time": 146.50817249999815,
                    "velocity": 0.44881889763779526,
                    "duration": 0.08643549999999323
                },
                {
                    "name": "G5",
                    "midi": 79,
                    "time": 146.59460799999815,
                    "velocity": 0.5748031496062992,
                    "duration": 0.3457420000000013
                },
                {
                    "name": "A5",
                    "midi": 81,
                    "time": 146.94034999999815,
                    "velocity": 0.5905511811023622,
                    "duration": 0.08643549999999323
                },
                {
                    "name": "G5",
                    "midi": 79,
                    "time": 147.02678549999814,
                    "velocity": 0.49606299212598426,
                    "duration": 0.08643549999999323
                },
                {
                    "name": "F#5",
                    "midi": 78,
                    "time": 147.11322099999813,
                    "velocity": 0.49606299212598426,
                    "duration": 0.08643549999999323
                },
                {
                    "name": "G5",
                    "midi": 79,
                    "time": 147.19965649999813,
                    "velocity": 0.49606299212598426,
                    "duration": 0.08643549999999323
                },
                {
                    "name": "A5",
                    "midi": 81,
                    "time": 147.28609199999812,
                    "velocity": 0.5905511811023622,
                    "duration": 0.3457420000000013
                },
                {
                    "name": "B5",
                    "midi": 83,
                    "time": 147.63183399999812,
                    "velocity": 0.5905511811023622,
                    "duration": 0.08643549999999323
                },
                {
                    "name": "A5",
                    "midi": 81,
                    "time": 147.71826949999812,
                    "velocity": 0.5196850393700787,
                    "duration": 0.08643549999999323
                },
                {
                    "name": "G5",
                    "midi": 79,
                    "time": 147.8047049999981,
                    "velocity": 0.5196850393700787,
                    "duration": 0.08643549999999323
                },
                {
                    "name": "A5",
                    "midi": 81,
                    "time": 147.8911404999981,
                    "velocity": 0.5196850393700787,
                    "duration": 0.08643549999999323
                },
                {
                    "name": "B5",
                    "midi": 83,
                    "time": 147.9775759999981,
                    "velocity": 0.6141732283464567,
                    "duration": 0.3457420000000013
                },
                {
                    "name": "C6",
                    "midi": 84,
                    "time": 148.3233179999981,
                    "velocity": 0.6062992125984252,
                    "duration": 0.08643549999999323
                },
                {
                    "name": "B5",
                    "midi": 83,
                    "time": 148.4097534999981,
                    "velocity": 0.5511811023622047,
                    "duration": 0.08643549999999323
                },
                {
                    "name": "A5",
                    "midi": 81,
                    "time": 148.49618899999808,
                    "velocity": 0.5511811023622047,
                    "duration": 0.08643549999999323
                },
                {
                    "name": "B5",
                    "midi": 83,
                    "time": 148.58262449999808,
                    "velocity": 0.5590551181102362,
                    "duration": 0.08643549999999323
                },
                {
                    "name": "C6",
                    "midi": 84,
                    "time": 148.66905999999807,
                    "velocity": 0.6377952755905512,
                    "duration": 0.3457420000000013
                },
                {
                    "name": "D6",
                    "midi": 86,
                    "time": 149.01480199999807,
                    "velocity": 0.6850393700787402,
                    "duration": 0.08643549999999323
                },
                {
                    "name": "C6",
                    "midi": 84,
                    "time": 149.10123749999806,
                    "velocity": 0.5905511811023622,
                    "duration": 0.08643549999999323
                },
                {
                    "name": "B5",
                    "midi": 83,
                    "time": 149.18767299999806,
                    "velocity": 0.6141732283464567,
                    "duration": 0.08643549999999323
                },
                {
                    "name": "C6",
                    "midi": 84,
                    "time": 149.27410849999805,
                    "velocity": 0.5984251968503937,
                    "duration": 0.08643549999999323
                },
                {
                    "name": "D6",
                    "midi": 86,
                    "time": 149.36054399999804,
                    "velocity": 0.8267716535433071,
                    "duration": 1.037226000000004
                },
                {
                    "name": "D#5",
                    "midi": 75,
                    "time": 150.39776999999805,
                    "velocity": 0.6771653543307087,
                    "duration": 0.3457420000000013
                },
                {
                    "name": "D#6",
                    "midi": 87,
                    "time": 150.39776999999805,
                    "velocity": 0.8110236220472441,
                    "duration": 0.3457420000000013
                },
                {
                    "name": "E6",
                    "midi": 88,
                    "time": 150.74351199999805,
                    "velocity": 0.8503937007874016,
                    "duration": 0.3457420000000013
                },
                {
                    "name": "E5",
                    "midi": 76,
                    "time": 150.74351199999805,
                    "velocity": 0.7244094488188977,
                    "duration": 0.3457420000000013
                },
                {
                    "name": "G#5",
                    "midi": 80,
                    "time": 151.08925399999805,
                    "velocity": 0.5905511811023622,
                    "duration": 0.3457420000000013
                },
                {
                    "name": "G#4",
                    "midi": 68,
                    "time": 151.08925399999805,
                    "velocity": 0.5039370078740157,
                    "duration": 0.3457420000000013
                },
                {
                    "name": "A5",
                    "midi": 81,
                    "time": 151.43499599999805,
                    "velocity": 0.6456692913385826,
                    "duration": 0.3457420000000013
                },
                {
                    "name": "A4",
                    "midi": 69,
                    "time": 151.43499599999805,
                    "velocity": 0.5433070866141733,
                    "duration": 0.3457420000000013
                },
                {
                    "name": "B5",
                    "midi": 83,
                    "time": 151.78073799999805,
                    "velocity": 0.7007874015748031,
                    "duration": 0.3457420000000013
                },
                {
                    "name": "B4",
                    "midi": 71,
                    "time": 151.78073799999805,
                    "velocity": 0.5905511811023622,
                    "duration": 0.3457420000000013
                },
                {
                    "name": "C6",
                    "midi": 84,
                    "time": 152.12647999999805,
                    "velocity": 0.7480314960629921,
                    "duration": 0.6914840000000027
                },
                {
                    "name": "C5",
                    "midi": 72,
                    "time": 152.12647999999805,
                    "velocity": 0.6299212598425197,
                    "duration": 0.6914840000000027
                },
                {
                    "name": "D6",
                    "midi": 86,
                    "time": 152.81796399999806,
                    "velocity": 0.7480314960629921,
                    "duration": 0.3457420000000013
                },
                {
                    "name": "D5",
                    "midi": 74,
                    "time": 152.81796399999806,
                    "velocity": 0.6299212598425197,
                    "duration": 0.3457420000000013
                },
                {
                    "name": "E5",
                    "midi": 76,
                    "time": 153.16370599999806,
                    "velocity": 0.5984251968503937,
                    "duration": 0.3457420000000013
                },
                {
                    "name": "E6",
                    "midi": 88,
                    "time": 153.16370599999806,
                    "velocity": 0.7165354330708661,
                    "duration": 0.3457420000000013
                },
                {
                    "name": "D5",
                    "midi": 74,
                    "time": 153.50944799999806,
                    "velocity": 0.4645669291338583,
                    "duration": 0.648266250000006
                },
                {
                    "name": "G5",
                    "midi": 79,
                    "time": 153.50944799999806,
                    "velocity": 0.5511811023622047,
                    "duration": 0.648266250000006
                },
                {
                    "name": "B5",
                    "midi": 83,
                    "time": 154.15771424999807,
                    "velocity": 0.4566929133858268,
                    "duration": 0.04321774999999661
                },
                {
                    "name": "A5",
                    "midi": 81,
                    "time": 154.20093199999806,
                    "velocity": 0.5196850393700787,
                    "duration": 0.5186129999999878
                },
                {
                    "name": "F#5",
                    "midi": 78,
                    "time": 154.20093199999806,
                    "velocity": 0.5196850393700787,
                    "duration": 0.6914839999999742
                },
                {
                    "name": "G5",
                    "midi": 79,
                    "time": 154.71954499999805,
                    "velocity": 0.4409448818897638,
                    "duration": 0.17287099999998645
                },
                {
                    "name": "G5",
                    "midi": 79,
                    "time": 154.89241599999804,
                    "velocity": 0.5196850393700787,
                    "duration": 0.3457420000000013
                },
                {
                    "name": "B5",
                    "midi": 83,
                    "time": 155.92964199999804,
                    "velocity": 0.44881889763779526,
                    "duration": 0.11524733333334325
                },
                {
                    "name": "D#6",
                    "midi": 87,
                    "time": 156.04488933333138,
                    "velocity": 0.48031496062992124,
                    "duration": 0.11524733333334325
                },
                {
                    "name": "E6",
                    "midi": 88,
                    "time": 156.16013666666473,
                    "velocity": 0.48031496062992124,
                    "duration": 0.11524733333334325
                },
                {
                    "name": "D6",
                    "midi": 86,
                    "time": 156.27538399999807,
                    "velocity": 0.4566929133858268,
                    "duration": 0.08643549999999323
                },
                {
                    "name": "D6",
                    "midi": 86,
                    "time": 156.62112599999807,
                    "velocity": 0.3858267716535433,
                    "duration": 0.08643549999999323
                },
                {
                    "name": "D6",
                    "midi": 86,
                    "time": 156.96686799999807,
                    "velocity": 0.3858267716535433,
                    "duration": 0.08643549999999323
                },
                {
                    "name": "G5",
                    "midi": 79,
                    "time": 157.31260999999807,
                    "velocity": 0.44881889763779526,
                    "duration": 0.11524733333334325
                },
                {
                    "name": "B5",
                    "midi": 83,
                    "time": 157.42785733333142,
                    "velocity": 0.3464566929133858,
                    "duration": 0.11524733333334325
                },
                {
                    "name": "C6",
                    "midi": 84,
                    "time": 157.54310466666476,
                    "velocity": 0.3464566929133858,
                    "duration": 0.11524733333334325
                },
                {
                    "name": "B5",
                    "midi": 83,
                    "time": 157.6583519999981,
                    "velocity": 0.4566929133858268,
                    "duration": 0.08643549999999323
                },
                {
                    "name": "B5",
                    "midi": 83,
                    "time": 158.0040939999981,
                    "velocity": 0.3858267716535433,
                    "duration": 0.08643549999999323
                },
                {
                    "name": "B5",
                    "midi": 83,
                    "time": 158.3498359999981,
                    "velocity": 0.3858267716535433,
                    "duration": 0.08643549999999323
                },
                {
                    "name": "E5",
                    "midi": 76,
                    "time": 158.6955779999981,
                    "velocity": 0.44881889763779526,
                    "duration": 0.11524733333334325
                },
                {
                    "name": "G#5",
                    "midi": 80,
                    "time": 158.81082533333145,
                    "velocity": 0.3464566929133858,
                    "duration": 0.11524733333334325
                },
                {
                    "name": "A5",
                    "midi": 81,
                    "time": 158.9260726666648,
                    "velocity": 0.3464566929133858,
                    "duration": 0.11524733333334325
                },
                {
                    "name": "G5",
                    "midi": 79,
                    "time": 159.04131999999814,
                    "velocity": 0.4566929133858268,
                    "duration": 0.08643549999999323
                },
                {
                    "name": "G5",
                    "midi": 79,
                    "time": 159.38706199999814,
                    "velocity": 0.3858267716535433,
                    "duration": 0.08643549999999323
                },
                {
                    "name": "G5",
                    "midi": 79,
                    "time": 159.73280399999814,
                    "velocity": 0.3858267716535433,
                    "duration": 0.08643549999999323
                },
                {
                    "name": "B5",
                    "midi": 83,
                    "time": 160.07854599999814,
                    "velocity": 0.48031496062992124,
                    "duration": 0.2593065000000081
                },
                {
                    "name": "G5",
                    "midi": 79,
                    "time": 160.33785249999815,
                    "velocity": 0.4251968503937008,
                    "duration": 0.08643549999999323
                },
                {
                    "name": "E5",
                    "midi": 76,
                    "time": 160.42428799999814,
                    "velocity": 0.4881889763779528,
                    "duration": 0.08643549999999323
                },
                {
                    "name": "C6",
                    "midi": 84,
                    "time": 160.77002999999814,
                    "velocity": 0.48031496062992124,
                    "duration": 0.2593065000000081
                },
                {
                    "name": "A5",
                    "midi": 81,
                    "time": 161.02933649999815,
                    "velocity": 0.41732283464566927,
                    "duration": 0.08643549999999323
                },
                {
                    "name": "F#5",
                    "midi": 78,
                    "time": 161.11577199999815,
                    "velocity": 0.48031496062992124,
                    "duration": 0.08643549999999323
                },
                {
                    "name": "A5",
                    "midi": 81,
                    "time": 161.46151399999815,
                    "velocity": 0.47244094488188976,
                    "duration": 0.2593065000000081
                },
                {
                    "name": "F#5",
                    "midi": 78,
                    "time": 161.72082049999815,
                    "velocity": 0.4251968503937008,
                    "duration": 0.08643549999999323
                },
                {
                    "name": "G5",
                    "midi": 79,
                    "time": 161.80725599999815,
                    "velocity": 0.48031496062992124,
                    "duration": 0.08643549999999323
                },
                {
                    "name": "B5",
                    "midi": 83,
                    "time": 162.84448199999815,
                    "velocity": 0.6929133858267716,
                    "duration": 0.11524733333334325
                },
                {
                    "name": "D#6",
                    "midi": 87,
                    "time": 162.9597293333315,
                    "velocity": 0.48031496062992124,
                    "duration": 0.11524733333334325
                },
                {
                    "name": "E6",
                    "midi": 88,
                    "time": 163.07497666666484,
                    "velocity": 0.48031496062992124,
                    "duration": 0.11524733333334325
                },
                {
                    "name": "A5",
                    "midi": 81,
                    "time": 163.19022399999818,
                    "velocity": 0.5669291338582677,
                    "duration": 0.11524733333334325
                },
                {
                    "name": "C#6",
                    "midi": 85,
                    "time": 163.30547133333152,
                    "velocity": 0.3700787401574803,
                    "duration": 0.11524733333334325
                },
                {
                    "name": "D6",
                    "midi": 86,
                    "time": 163.42071866666487,
                    "velocity": 0.3700787401574803,
                    "duration": 0.11524733333334325
                },
                {
                    "name": "A5",
                    "midi": 81,
                    "time": 163.5359659999982,
                    "velocity": 0.5196850393700787,
                    "duration": 0.11524733333334325
                },
                {
                    "name": "C#6",
                    "midi": 85,
                    "time": 163.65121333333155,
                    "velocity": 0.3700787401574803,
                    "duration": 0.11524733333334325
                },
                {
                    "name": "D6",
                    "midi": 86,
                    "time": 163.7664606666649,
                    "velocity": 0.3700787401574803,
                    "duration": 0.11524733333334325
                },
                {
                    "name": "A5",
                    "midi": 81,
                    "time": 163.88170799999824,
                    "velocity": 0.5196850393700787,
                    "duration": 0.11524733333334325
                },
                {
                    "name": "C#6",
                    "midi": 85,
                    "time": 163.99695533333158,
                    "velocity": 0.4015748031496063,
                    "duration": 0.11524733333334325
                },
                {
                    "name": "D6",
                    "midi": 86,
                    "time": 164.11220266666493,
                    "velocity": 0.4094488188976378,
                    "duration": 0.11524733333334325
                },
                {
                    "name": "B5",
                    "midi": 83,
                    "time": 164.22744999999827,
                    "velocity": 0.6929133858267716,
                    "duration": 0.11524733333334325
                },
                {
                    "name": "D#6",
                    "midi": 87,
                    "time": 164.3426973333316,
                    "velocity": 0.48031496062992124,
                    "duration": 0.11524733333334325
                },
                {
                    "name": "E6",
                    "midi": 88,
                    "time": 164.45794466666496,
                    "velocity": 0.48031496062992124,
                    "duration": 0.11524733333334325
                },
                {
                    "name": "A5",
                    "midi": 81,
                    "time": 164.5731919999983,
                    "velocity": 0.5433070866141733,
                    "duration": 0.11524733333334325
                },
                {
                    "name": "C#6",
                    "midi": 85,
                    "time": 164.68843933333164,
                    "velocity": 0.4251968503937008,
                    "duration": 0.11524733333334325
                },
                {
                    "name": "D6",
                    "midi": 86,
                    "time": 164.803686666665,
                    "velocity": 0.4330708661417323,
                    "duration": 0.11524733333334325
                },
                {
                    "name": "A5",
                    "midi": 81,
                    "time": 164.91893399999833,
                    "velocity": 0.5511811023622047,
                    "duration": 0.11524733333334325
                },
                {
                    "name": "C#6",
                    "midi": 85,
                    "time": 165.03418133333167,
                    "velocity": 0.3700787401574803,
                    "duration": 0.11524733333334325
                },
                {
                    "name": "D6",
                    "midi": 86,
                    "time": 165.14942866666502,
                    "velocity": 0.3700787401574803,
                    "duration": 0.11524733333334325
                },
                {
                    "name": "A5",
                    "midi": 81,
                    "time": 165.26467599999836,
                    "velocity": 0.5275590551181102,
                    "duration": 0.11524733333334325
                },
                {
                    "name": "C#6",
                    "midi": 85,
                    "time": 165.3799233333317,
                    "velocity": 0.36220472440944884,
                    "duration": 0.11524733333334325
                },
                {
                    "name": "D6",
                    "midi": 86,
                    "time": 165.49517066666505,
                    "velocity": 0.3858267716535433,
                    "duration": 0.11524733333334325
                },
                {
                    "name": "G5",
                    "midi": 79,
                    "time": 165.6104179999984,
                    "velocity": 0.5039370078740157,
                    "duration": 0.11524733333334325
                },
                {
                    "name": "B5",
                    "midi": 83,
                    "time": 165.72566533333173,
                    "velocity": 0.3937007874015748,
                    "duration": 0.11524733333334325
                },
                {
                    "name": "C6",
                    "midi": 84,
                    "time": 165.84091266666508,
                    "velocity": 0.3937007874015748,
                    "duration": 0.11524733333334325
                },
                {
                    "name": "F#5",
                    "midi": 78,
                    "time": 165.95615999999842,
                    "velocity": 0.5511811023622047,
                    "duration": 0.11524733333334325
                },
                {
                    "name": "A#5",
                    "midi": 82,
                    "time": 166.07140733333176,
                    "velocity": 0.3937007874015748,
                    "duration": 0.11524733333334325
                },
                {
                    "name": "B5",
                    "midi": 83,
                    "time": 166.1866546666651,
                    "velocity": 0.3937007874015748,
                    "duration": 0.11524733333334325
                },
                {
                    "name": "F#5",
                    "midi": 78,
                    "time": 166.30190199999845,
                    "velocity": 0.5196850393700787,
                    "duration": 0.11524733333334325
                },
                {
                    "name": "A#5",
                    "midi": 82,
                    "time": 166.4171493333318,
                    "velocity": 0.36220472440944884,
                    "duration": 0.11524733333334325
                },
                {
                    "name": "B5",
                    "midi": 83,
                    "time": 166.53239666666514,
                    "velocity": 0.36220472440944884,
                    "duration": 0.11524733333334325
                },
                {
                    "name": "F#5",
                    "midi": 78,
                    "time": 166.64764399999848,
                    "velocity": 0.5039370078740157,
                    "duration": 0.11524733333334325
                },
                {
                    "name": "A#5",
                    "midi": 82,
                    "time": 166.76289133333182,
                    "velocity": 0.36220472440944884,
                    "duration": 0.11524733333334325
                },
                {
                    "name": "B5",
                    "midi": 83,
                    "time": 166.87813866666517,
                    "velocity": 0.36220472440944884,
                    "duration": 0.11524733333334325
                },
                {
                    "name": "G5",
                    "midi": 79,
                    "time": 166.9933859999985,
                    "velocity": 0.5905511811023622,
                    "duration": 0.11524733333334325
                },
                {
                    "name": "B5",
                    "midi": 83,
                    "time": 167.10863333333185,
                    "velocity": 0.4251968503937008,
                    "duration": 0.11524733333334325
                },
                {
                    "name": "C6",
                    "midi": 84,
                    "time": 167.2238806666652,
                    "velocity": 0.4251968503937008,
                    "duration": 0.11524733333334325
                },
                {
                    "name": "F#5",
                    "midi": 78,
                    "time": 167.33912799999854,
                    "velocity": 0.5669291338582677,
                    "duration": 0.11524733333334325
                },
                {
                    "name": "A#5",
                    "midi": 82,
                    "time": 167.45437533333188,
                    "velocity": 0.3937007874015748,
                    "duration": 0.11524733333334325
                },
                {
                    "name": "B5",
                    "midi": 83,
                    "time": 167.56962266666523,
                    "velocity": 0.3937007874015748,
                    "duration": 0.11524733333334325
                },
                {
                    "name": "F#5",
                    "midi": 78,
                    "time": 167.68486999999857,
                    "velocity": 0.5196850393700787,
                    "duration": 0.11524733333334325
                },
                {
                    "name": "A#5",
                    "midi": 82,
                    "time": 167.8001173333319,
                    "velocity": 0.3700787401574803,
                    "duration": 0.11524733333334325
                },
                {
                    "name": "B5",
                    "midi": 83,
                    "time": 167.91536466666525,
                    "velocity": 0.3700787401574803,
                    "duration": 0.11524733333334325
                },
                {
                    "name": "F#5",
                    "midi": 78,
                    "time": 168.0306119999986,
                    "velocity": 0.5039370078740157,
                    "duration": 0.11524733333334325
                },
                {
                    "name": "A#5",
                    "midi": 82,
                    "time": 168.14585933333194,
                    "velocity": 0.3700787401574803,
                    "duration": 0.11524733333334325
                },
                {
                    "name": "B5",
                    "midi": 83,
                    "time": 168.26110666666528,
                    "velocity": 0.3779527559055118,
                    "duration": 0.11524733333334325
                },
                {
                    "name": "E5",
                    "midi": 76,
                    "time": 168.37635399999863,
                    "velocity": 0.5511811023622047,
                    "duration": 0.11524733333334325
                },
                {
                    "name": "G#5",
                    "midi": 80,
                    "time": 168.49160133333197,
                    "velocity": 0.4251968503937008,
                    "duration": 0.11524733333334325
                },
                {
                    "name": "A5",
                    "midi": 81,
                    "time": 168.60684866666531,
                    "velocity": 0.4251968503937008,
                    "duration": 0.11524733333334325
                },
                {
                    "name": "D5",
                    "midi": 74,
                    "time": 168.72209599999866,
                    "velocity": 0.4645669291338583,
                    "duration": 0.11524733333334325
                },
                {
                    "name": "F#5",
                    "midi": 78,
                    "time": 168.837343333332,
                    "velocity": 0.3779527559055118,
                    "duration": 0.11524733333334325
                },
                {
                    "name": "G5",
                    "midi": 79,
                    "time": 168.95259066666534,
                    "velocity": 0.36220472440944884,
                    "duration": 0.11524733333334325
                },
                {
                    "name": "D5",
                    "midi": 74,
                    "time": 169.0678379999987,
                    "velocity": 0.48031496062992124,
                    "duration": 0.11524733333334325
                },
                {
                    "name": "F#5",
                    "midi": 78,
                    "time": 169.18308533333203,
                    "velocity": 0.3700787401574803,
                    "duration": 0.11524733333334325
                },
                {
                    "name": "G5",
                    "midi": 79,
                    "time": 169.29833266666537,
                    "velocity": 0.3937007874015748,
                    "duration": 0.11524733333334325
                },
                {
                    "name": "D5",
                    "midi": 74,
                    "time": 169.41357999999872,
                    "velocity": 0.4881889763779528,
                    "duration": 0.11524733333334325
                },
                {
                    "name": "F#5",
                    "midi": 78,
                    "time": 169.52882733333206,
                    "velocity": 0.3858267716535433,
                    "duration": 0.11524733333334325
                },
                {
                    "name": "G5",
                    "midi": 79,
                    "time": 169.6440746666654,
                    "velocity": 0.3858267716535433,
                    "duration": 0.11524733333334325
                },
                {
                    "name": "E5",
                    "midi": 76,
                    "time": 169.75932199999875,
                    "velocity": 0.5511811023622047,
                    "duration": 0.11524733333334325
                },
                {
                    "name": "G#5",
                    "midi": 80,
                    "time": 169.8745693333321,
                    "velocity": 0.4251968503937008,
                    "duration": 0.11524733333334325
                },
                {
                    "name": "A5",
                    "midi": 81,
                    "time": 169.98981666666543,
                    "velocity": 0.4251968503937008,
                    "duration": 0.11524733333334325
                },
                {
                    "name": "D5",
                    "midi": 74,
                    "time": 170.10506399999878,
                    "velocity": 0.4645669291338583,
                    "duration": 0.11524733333334325
                },
                {
                    "name": "F#5",
                    "midi": 78,
                    "time": 170.22031133333212,
                    "velocity": 0.3779527559055118,
                    "duration": 0.11524733333334325
                },
                {
                    "name": "G5",
                    "midi": 79,
                    "time": 170.33555866666546,
                    "velocity": 0.36220472440944884,
                    "duration": 0.11524733333334325
                },
                {
                    "name": "D5",
                    "midi": 74,
                    "time": 170.4508059999988,
                    "velocity": 0.48031496062992124,
                    "duration": 0.11524733333334325
                },
                {
                    "name": "F#5",
                    "midi": 78,
                    "time": 170.56605333333215,
                    "velocity": 0.3700787401574803,
                    "duration": 0.11524733333334325
                },
                {
                    "name": "G5",
                    "midi": 79,
                    "time": 170.6813006666655,
                    "velocity": 0.3937007874015748,
                    "duration": 0.11524733333334325
                },
                {
                    "name": "D5",
                    "midi": 74,
                    "time": 170.79654799999884,
                    "velocity": 0.4881889763779528,
                    "duration": 0.11524733333334325
                },
                {
                    "name": "F#5",
                    "midi": 78,
                    "time": 170.91179533333218,
                    "velocity": 0.3858267716535433,
                    "duration": 0.11524733333334325
                },
                {
                    "name": "G5",
                    "midi": 79,
                    "time": 171.02704266666552,
                    "velocity": 0.3858267716535433,
                    "duration": 0.11524733333334325
                },
                {
                    "name": "E5",
                    "midi": 76,
                    "time": 171.14228999999887,
                    "velocity": 0.5511811023622047,
                    "duration": 0.11524733333334325
                },
                {
                    "name": "G#5",
                    "midi": 80,
                    "time": 171.2575373333322,
                    "velocity": 0.4251968503937008,
                    "duration": 0.11524733333334325
                },
                {
                    "name": "A5",
                    "midi": 81,
                    "time": 171.37278466666555,
                    "velocity": 0.4251968503937008,
                    "duration": 0.11524733333334325
                },
                {
                    "name": "D5",
                    "midi": 74,
                    "time": 171.4880319999989,
                    "velocity": 0.5669291338582677,
                    "duration": 0.11524733333334325
                },
                {
                    "name": "F#5",
                    "midi": 78,
                    "time": 171.60327933333224,
                    "velocity": 0.4409448818897638,
                    "duration": 0.11524733333334325
                },
                {
                    "name": "G5",
                    "midi": 79,
                    "time": 171.71852666666558,
                    "velocity": 0.4409448818897638,
                    "duration": 0.11524733333334325
                },
                {
                    "name": "D5",
                    "midi": 74,
                    "time": 171.83377399999893,
                    "velocity": 0.5748031496062992,
                    "duration": 0.11524733333334325
                },
                {
                    "name": "G#5",
                    "midi": 80,
                    "time": 171.94902133333227,
                    "velocity": 0.4881889763779528,
                    "duration": 0.11524733333334325
                },
                {
                    "name": "A5",
                    "midi": 81,
                    "time": 172.0642686666656,
                    "velocity": 0.4881889763779528,
                    "duration": 0.11524733333334325
                },
                {
                    "name": "D5",
                    "midi": 74,
                    "time": 172.17951599999896,
                    "velocity": 0.6299212598425197,
                    "duration": 0.11524733333334325
                },
                {
                    "name": "A#5",
                    "midi": 82,
                    "time": 172.2947633333323,
                    "velocity": 0.5433070866141733,
                    "duration": 0.11524733333334325
                },
                {
                    "name": "B5",
                    "midi": 83,
                    "time": 172.41001066666564,
                    "velocity": 0.5118110236220472,
                    "duration": 0.11524733333334325
                },
                {
                    "name": "D5",
                    "midi": 74,
                    "time": 172.52525799999898,
                    "velocity": 0.6535433070866141,
                    "duration": 0.11524733333334325
                },
                {
                    "name": "B5",
                    "midi": 83,
                    "time": 172.64050533333233,
                    "velocity": 0.5826771653543307,
                    "duration": 0.11524733333334325
                },
                {
                    "name": "C6",
                    "midi": 84,
                    "time": 172.75575266666567,
                    "velocity": 0.5826771653543307,
                    "duration": 0.11524733333334325
                },
                {
                    "name": "D5",
                    "midi": 74,
                    "time": 172.87099999999901,
                    "velocity": 0.6771653543307087,
                    "duration": 0.11524733333334325
                },
                {
                    "name": "C#6",
                    "midi": 85,
                    "time": 172.98624733333236,
                    "velocity": 0.7322834645669292,
                    "duration": 0.11524733333334325
                },
                {
                    "name": "D6",
                    "midi": 86,
                    "time": 173.1014946666657,
                    "velocity": 0.7244094488188977,
                    "duration": 0.11524733333334325
                },
                {
                    "name": "C6",
                    "midi": 84,
                    "time": 173.21674199999904,
                    "velocity": 0.7007874015748031,
                    "duration": 0.11524733333334325
                },
                {
                    "name": "B5",
                    "midi": 83,
                    "time": 173.3319893333324,
                    "velocity": 0.6929133858267716,
                    "duration": 0.11524733333334325
                },
                {
                    "name": "A5",
                    "midi": 81,
                    "time": 173.44723666666573,
                    "velocity": 0.6771653543307087,
                    "duration": 0.11524733333334325
                },
                {
                    "name": "G5",
                    "midi": 79,
                    "time": 173.56248399999907,
                    "velocity": 0.6535433070866141,
                    "duration": 0.11524733333334325
                },
                {
                    "name": "F#5",
                    "midi": 78,
                    "time": 173.67773133333242,
                    "velocity": 0.6456692913385826,
                    "duration": 0.11524733333334325
                },
                {
                    "name": "E5",
                    "midi": 76,
                    "time": 173.79297866666576,
                    "velocity": 0.6299212598425197,
                    "duration": 0.11524733333334325
                },
                {
                    "name": "D5",
                    "midi": 74,
                    "time": 173.9082259999991,
                    "velocity": 0.6141732283464567,
                    "duration": 0.11524733333334325
                },
                {
                    "name": "C5",
                    "midi": 72,
                    "time": 174.02347333333245,
                    "velocity": 0.5984251968503937,
                    "duration": 0.11524733333334325
                },
                {
                    "name": "B4",
                    "midi": 71,
                    "time": 174.1387206666658,
                    "velocity": 0.5826771653543307,
                    "duration": 0.11524733333334325
                },
                {
                    "name": "A4",
                    "midi": 69,
                    "time": 174.25396799999913,
                    "velocity": 0.5511811023622047,
                    "duration": 0.11524733333334325
                },
                {
                    "name": "E5",
                    "midi": 76,
                    "time": 174.36921533333248,
                    "velocity": 0.6141732283464567,
                    "duration": 0.11524733333334325
                },
                {
                    "name": "D5",
                    "midi": 74,
                    "time": 174.48446266666582,
                    "velocity": 0.5984251968503937,
                    "duration": 0.11524733333334325
                },
                {
                    "name": "C5",
                    "midi": 72,
                    "time": 174.59970999999916,
                    "velocity": 0.5748031496062992,
                    "duration": 0.11524733333334325
                },
                {
                    "name": "B4",
                    "midi": 71,
                    "time": 174.7149573333325,
                    "velocity": 0.5590551181102362,
                    "duration": 0.11524733333334325
                },
                {
                    "name": "A4",
                    "midi": 69,
                    "time": 174.83020466666585,
                    "velocity": 0.5433070866141733,
                    "duration": 0.11524733333334325
                },
                {
                    "name": "G4",
                    "midi": 67,
                    "time": 174.9454519999992,
                    "velocity": 0.6535433070866141,
                    "duration": 0.3457420000000013
                },
                {
                    "name": "F#4",
                    "midi": 66,
                    "time": 175.2911939999992,
                    "velocity": 0.5905511811023622,
                    "duration": 0.08643549999999323
                },
                {
                    "name": "G4",
                    "midi": 67,
                    "time": 175.3776294999992,
                    "velocity": 0.5275590551181102,
                    "duration": 0.08643549999999323
                },
                {
                    "name": "F#4",
                    "midi": 66,
                    "time": 175.46406499999918,
                    "velocity": 0.5905511811023622,
                    "duration": 0.17287099999998645
                },
                {
                    "name": "C#6",
                    "midi": 85,
                    "time": 175.7521833333325,
                    "velocity": 0.6141732283464567,
                    "duration": 0.11524733333334325
                },
                {
                    "name": "D6",
                    "midi": 86,
                    "time": 175.86743066666585,
                    "velocity": 0.6141732283464567,
                    "duration": 0.11524733333334325
                },
                {
                    "name": "C6",
                    "midi": 84,
                    "time": 175.9826779999992,
                    "velocity": 0.6614173228346457,
                    "duration": 0.11524733333334325
                },
                {
                    "name": "B5",
                    "midi": 83,
                    "time": 176.09792533333254,
                    "velocity": 0.6535433070866141,
                    "duration": 0.11524733333334325
                },
                {
                    "name": "A5",
                    "midi": 81,
                    "time": 176.21317266666588,
                    "velocity": 0.6377952755905512,
                    "duration": 0.11524733333334325
                },
                {
                    "name": "G5",
                    "midi": 79,
                    "time": 176.32841999999923,
                    "velocity": 0.6299212598425197,
                    "duration": 0.11524733333334325
                },
                {
                    "name": "F#5",
                    "midi": 78,
                    "time": 176.44366733333257,
                    "velocity": 0.6141732283464567,
                    "duration": 0.11524733333334325
                },
                {
                    "name": "E5",
                    "midi": 76,
                    "time": 176.5589146666659,
                    "velocity": 0.6062992125984252,
                    "duration": 0.11524733333334325
                },
                {
                    "name": "D5",
                    "midi": 74,
                    "time": 176.67416199999926,
                    "velocity": 0.5905511811023622,
                    "duration": 0.11524733333334325
                },
                {
                    "name": "C5",
                    "midi": 72,
                    "time": 176.7894093333326,
                    "velocity": 0.5748031496062992,
                    "duration": 0.11524733333334325
                },
                {
                    "name": "B4",
                    "midi": 71,
                    "time": 176.90465666666594,
                    "velocity": 0.5669291338582677,
                    "duration": 0.11524733333334325
                },
                {
                    "name": "A4",
                    "midi": 69,
                    "time": 177.0199039999993,
                    "velocity": 0.5511811023622047,
                    "duration": 0.11524733333334325
                },
                {
                    "name": "E5",
                    "midi": 76,
                    "time": 177.13515133333263,
                    "velocity": 0.6141732283464567,
                    "duration": 0.11524733333334325
                },
                {
                    "name": "D5",
                    "midi": 74,
                    "time": 177.25039866666597,
                    "velocity": 0.5984251968503937,
                    "duration": 0.11524733333334325
                },
                {
                    "name": "C5",
                    "midi": 72,
                    "time": 177.36564599999932,
                    "velocity": 0.5748031496062992,
                    "duration": 0.11524733333334325
                },
                {
                    "name": "B4",
                    "midi": 71,
                    "time": 177.48089333333266,
                    "velocity": 0.5590551181102362,
                    "duration": 0.11524733333334325
                },
                {
                    "name": "A4",
                    "midi": 69,
                    "time": 177.596140666666,
                    "velocity": 0.5433070866141733,
                    "duration": 0.11524733333334325
                },
                {
                    "name": "G4",
                    "midi": 67,
                    "time": 177.71138799999935,
                    "velocity": 0.6535433070866141,
                    "duration": 0.3457420000000013
                },
                {
                    "name": "F#4",
                    "midi": 66,
                    "time": 178.05712999999935,
                    "velocity": 0.5905511811023622,
                    "duration": 0.08643549999999323
                },
                {
                    "name": "G4",
                    "midi": 67,
                    "time": 178.14356549999934,
                    "velocity": 0.5275590551181102,
                    "duration": 0.08643549999999323
                },
                {
                    "name": "F#4",
                    "midi": 66,
                    "time": 178.23000099999933,
                    "velocity": 0.5905511811023622,
                    "duration": 0.17287099999998645
                },
                {
                    "name": "G4",
                    "midi": 67,
                    "time": 178.40287199999932,
                    "velocity": 0.49606299212598426,
                    "duration": 0.3457420000000013
                },
                {
                    "name": "D5",
                    "midi": 74,
                    "time": 179.44009799999932,
                    "velocity": 0.44881889763779526,
                    "duration": 0.2593065000000081
                },
                {
                    "name": "F#5",
                    "midi": 78,
                    "time": 179.69940449999933,
                    "velocity": 0.44881889763779526,
                    "duration": 0.08643549999999323
                },
                {
                    "name": "G5",
                    "midi": 79,
                    "time": 179.78583999999933,
                    "velocity": 0.5039370078740157,
                    "duration": 0.08643549999999323
                },
                {
                    "name": "G5",
                    "midi": 79,
                    "time": 180.13158199999933,
                    "velocity": 0.44881889763779526,
                    "duration": 0.08643549999999323
                },
                {
                    "name": "G5",
                    "midi": 79,
                    "time": 180.47732399999933,
                    "velocity": 0.44881889763779526,
                    "duration": 0.08643549999999323
                },
                {
                    "name": "B5",
                    "midi": 83,
                    "time": 180.65019499999931,
                    "velocity": 0.4251968503937008,
                    "duration": 0.057623666666671625
                },
                {
                    "name": "A5",
                    "midi": 81,
                    "time": 180.707818666666,
                    "velocity": 0.4015748031496063,
                    "duration": 0.057623666666671625
                },
                {
                    "name": "G5",
                    "midi": 79,
                    "time": 180.76544233333266,
                    "velocity": 0.4015748031496063,
                    "duration": 0.057623666666671625
                },
                {
                    "name": "A5",
                    "midi": 81,
                    "time": 180.82306599999933,
                    "velocity": 0.48031496062992124,
                    "duration": 0.2593065000000081
                },
                {
                    "name": "D6",
                    "midi": 86,
                    "time": 181.08237249999934,
                    "velocity": 0.44881889763779526,
                    "duration": 0.08643549999999323
                },
                {
                    "name": "B5",
                    "midi": 83,
                    "time": 181.16880799999933,
                    "velocity": 0.49606299212598426,
                    "duration": 0.08643549999999323
                },
                {
                    "name": "G5",
                    "midi": 79,
                    "time": 181.51454999999933,
                    "velocity": 0.44881889763779526,
                    "duration": 0.08643549999999323
                },
                {
                    "name": "G5",
                    "midi": 79,
                    "time": 181.86029199999933,
                    "velocity": 0.44881889763779526,
                    "duration": 0.08643549999999323
                },
                {
                    "name": "D5",
                    "midi": 74,
                    "time": 182.20603399999933,
                    "velocity": 0.6377952755905512,
                    "duration": 0.2593065000000081
                },
                {
                    "name": "F#5",
                    "midi": 78,
                    "time": 182.46534049999934,
                    "velocity": 0.6377952755905512,
                    "duration": 0.08643549999999323
                },
                {
                    "name": "G5",
                    "midi": 79,
                    "time": 182.55177599999934,
                    "velocity": 0.7165354330708661,
                    "duration": 0.08643549999999323
                },
                {
                    "name": "G5",
                    "midi": 79,
                    "time": 182.89751799999934,
                    "velocity": 0.6377952755905512,
                    "duration": 0.08643549999999323
                },
                {
                    "name": "G5",
                    "midi": 79,
                    "time": 183.24325999999934,
                    "velocity": 0.6377952755905512,
                    "duration": 0.08643549999999323
                },
                {
                    "name": "B5",
                    "midi": 83,
                    "time": 183.41613099999933,
                    "velocity": 0.6062992125984252,
                    "duration": 0.057623666666671625
                },
                {
                    "name": "A5",
                    "midi": 81,
                    "time": 183.473754666666,
                    "velocity": 0.5669291338582677,
                    "duration": 0.057623666666671625
                },
                {
                    "name": "G5",
                    "midi": 79,
                    "time": 183.53137833333267,
                    "velocity": 0.5669291338582677,
                    "duration": 0.057623666666671625
                },
                {
                    "name": "A5",
                    "midi": 81,
                    "time": 183.58900199999934,
                    "velocity": 0.6771653543307087,
                    "duration": 0.2593065000000081
                },
                {
                    "name": "B5",
                    "midi": 83,
                    "time": 183.84830849999935,
                    "velocity": 0.6377952755905512,
                    "duration": 0.08643549999999323
                },
                {
                    "name": "G5",
                    "midi": 79,
                    "time": 183.93474399999934,
                    "velocity": 0.7165354330708661,
                    "duration": 0.3457420000000013
                },
                {
                    "name": "D5",
                    "midi": 74,
                    "time": 184.62622799999934,
                    "velocity": 0.6377952755905512,
                    "duration": 0.3457420000000013
                },
                {
                    "name": "B4",
                    "midi": 71,
                    "time": 184.62622799999934,
                    "velocity": 0.6377952755905512,
                    "duration": 0.3457420000000013
                },
                {
                    "name": "B4",
                    "midi": 71,
                    "time": 185.31771199999935,
                    "velocity": 0.6377952755905512,
                    "duration": 0.3457420000000013
                },
                {
                    "name": "G4",
                    "midi": 67,
                    "time": 185.31771199999935,
                    "velocity": 0.6377952755905512,
                    "duration": 0.3457420000000013
                },
                {
                    "name": "G5",
                    "midi": 79,
                    "time": 186.35493799999935,
                    "velocity": 0.3937007874015748,
                    "duration": 0.2593065000000081
                },
                {
                    "name": "A5",
                    "midi": 81,
                    "time": 186.61424449999936,
                    "velocity": 0.3700787401574803,
                    "duration": 0.08643549999999323
                },
                {
                    "name": "F5",
                    "midi": 77,
                    "time": 186.70067999999935,
                    "velocity": 0.4566929133858268,
                    "duration": 0.08643549999999323
                },
                {
                    "name": "F5",
                    "midi": 77,
                    "time": 187.04642199999935,
                    "velocity": 0.3937007874015748,
                    "duration": 0.2593065000000081
                },
                {
                    "name": "G5",
                    "midi": 79,
                    "time": 187.30572849999936,
                    "velocity": 0.3779527559055118,
                    "duration": 0.08643549999999323
                },
                {
                    "name": "E5",
                    "midi": 76,
                    "time": 187.39216399999935,
                    "velocity": 0.4566929133858268,
                    "duration": 0.08643549999999323
                },
                {
                    "name": "E5",
                    "midi": 76,
                    "time": 187.73790599999936,
                    "velocity": 0.3937007874015748,
                    "duration": 0.2593065000000081
                },
                {
                    "name": "F5",
                    "midi": 77,
                    "time": 187.99721249999936,
                    "velocity": 0.3937007874015748,
                    "duration": 0.08643549999999323
                },
                {
                    "name": "D5",
                    "midi": 74,
                    "time": 188.08364799999936,
                    "velocity": 0.4645669291338583,
                    "duration": 0.08643549999999323
                },
                {
                    "name": "D5",
                    "midi": 74,
                    "time": 188.42938999999936,
                    "velocity": 0.3937007874015748,
                    "duration": 0.2593065000000081
                },
                {
                    "name": "E5",
                    "midi": 76,
                    "time": 188.68869649999937,
                    "velocity": 0.3700787401574803,
                    "duration": 0.08643549999999323
                },
                {
                    "name": "C5",
                    "midi": 72,
                    "time": 188.77513199999936,
                    "velocity": 0.44881889763779526,
                    "duration": 0.08643549999999323
                },
                {
                    "name": "E5",
                    "midi": 76,
                    "time": 189.12087399999936,
                    "velocity": 0.49606299212598426,
                    "duration": 0.2593065000000081
                },
                {
                    "name": "C5",
                    "midi": 72,
                    "time": 189.12087399999936,
                    "velocity": 0.41732283464566927,
                    "duration": 0.3457420000000013
                },
                {
                    "name": "F5",
                    "midi": 77,
                    "time": 189.38018049999937,
                    "velocity": 0.44881889763779526,
                    "duration": 0.08643549999999323
                },
                {
                    "name": "B4",
                    "midi": 71,
                    "time": 189.46661599999936,
                    "velocity": 0.4409448818897638,
                    "duration": 0.08643549999999323
                },
                {
                    "name": "D5",
                    "midi": 74,
                    "time": 189.46661599999936,
                    "velocity": 0.5275590551181102,
                    "duration": 0.08643549999999323
                },
                {
                    "name": "B4",
                    "midi": 71,
                    "time": 189.81235799999936,
                    "velocity": 0.41732283464566927,
                    "duration": 0.3457420000000013
                },
                {
                    "name": "D5",
                    "midi": 74,
                    "time": 189.81235799999936,
                    "velocity": 0.49606299212598426,
                    "duration": 0.2593065000000081
                },
                {
                    "name": "E5",
                    "midi": 76,
                    "time": 190.07166449999937,
                    "velocity": 0.47244094488188976,
                    "duration": 0.08643549999999323
                },
                {
                    "name": "A4",
                    "midi": 69,
                    "time": 190.15809999999937,
                    "velocity": 0.4409448818897638,
                    "duration": 0.08643549999999323
                },
                {
                    "name": "C5",
                    "midi": 72,
                    "time": 190.15809999999937,
                    "velocity": 0.5275590551181102,
                    "duration": 0.08643549999999323
                },
                {
                    "name": "C5",
                    "midi": 72,
                    "time": 190.50384199999937,
                    "velocity": 0.49606299212598426,
                    "duration": 0.2593065000000081
                },
                {
                    "name": "A4",
                    "midi": 69,
                    "time": 190.50384199999937,
                    "velocity": 0.41732283464566927,
                    "duration": 0.3457420000000013
                },
                {
                    "name": "D5",
                    "midi": 74,
                    "time": 190.76314849999937,
                    "velocity": 0.47244094488188976,
                    "duration": 0.08643549999999323
                },
                {
                    "name": "B4",
                    "midi": 71,
                    "time": 190.84958399999937,
                    "velocity": 0.5275590551181102,
                    "duration": 1.037226000000004
                },
                {
                    "name": "G#4",
                    "midi": 68,
                    "time": 190.84958399999937,
                    "velocity": 0.4409448818897638,
                    "duration": 1.037226000000004
                },
                {
                    "name": "F5",
                    "midi": 77,
                    "time": 191.88680999999937,
                    "velocity": 0.5590551181102362,
                    "duration": 0.08643549999999323
                },
                {
                    "name": "G5",
                    "midi": 79,
                    "time": 191.97324549999936,
                    "velocity": 0.5748031496062992,
                    "duration": 0.08643549999999323
                },
                {
                    "name": "A5",
                    "midi": 81,
                    "time": 192.05968099999936,
                    "velocity": 0.5905511811023622,
                    "duration": 0.08643549999999323
                },
                {
                    "name": "A#5",
                    "midi": 82,
                    "time": 192.14611649999935,
                    "velocity": 0.6141732283464567,
                    "duration": 0.08643549999999323
                },
                {
                    "name": "C6",
                    "midi": 84,
                    "time": 192.23255199999934,
                    "velocity": 0.6535433070866141,
                    "duration": 0.08643549999999323
                },
                {
                    "name": "C6",
                    "midi": 84,
                    "time": 192.57829399999935,
                    "velocity": 0.5905511811023622,
                    "duration": 0.08643549999999323
                },
                {
                    "name": "C6",
                    "midi": 84,
                    "time": 192.92403599999935,
                    "velocity": 0.5984251968503937,
                    "duration": 0.08643549999999323
                },
                {
                    "name": "E6",
                    "midi": 88,
                    "time": 193.22656024999935,
                    "velocity": 0.6141732283464567,
                    "duration": 0.04321774999999661
                },
                {
                    "name": "F6",
                    "midi": 89,
                    "time": 193.26977799999935,
                    "velocity": 0.7244094488188977,
                    "duration": 0.3457420000000013
                },
                {
                    "name": "C6",
                    "midi": 84,
                    "time": 193.61551999999935,
                    "velocity": 0.6692913385826772,
                    "duration": 0.08643549999999323
                },
                {
                    "name": "C6",
                    "midi": 84,
                    "time": 193.96126199999935,
                    "velocity": 0.5984251968503937,
                    "duration": 0.08643549999999323
                },
                {
                    "name": "C6",
                    "midi": 84,
                    "time": 194.30700399999935,
                    "velocity": 0.5984251968503937,
                    "duration": 0.08643549999999323
                },
                {
                    "name": "A#5",
                    "midi": 82,
                    "time": 194.65274599999935,
                    "velocity": 0.5196850393700787,
                    "duration": 0.08643549999999323
                },
                {
                    "name": "A5",
                    "midi": 81,
                    "time": 194.73918149999935,
                    "velocity": 0.5354330708661418,
                    "duration": 0.08643549999999323
                },
                {
                    "name": "G5",
                    "midi": 79,
                    "time": 194.82561699999934,
                    "velocity": 0.5590551181102362,
                    "duration": 0.08643549999999323
                },
                {
                    "name": "F5",
                    "midi": 77,
                    "time": 194.91205249999933,
                    "velocity": 0.5748031496062992,
                    "duration": 0.08643549999999323
                },
                {
                    "name": "E5",
                    "midi": 76,
                    "time": 194.99848799999933,
                    "velocity": 0.6377952755905512,
                    "duration": 0.08643549999999323
                },
                {
                    "name": "E5",
                    "midi": 76,
                    "time": 195.34422999999933,
                    "velocity": 0.5748031496062992,
                    "duration": 0.08643549999999323
                },
                {
                    "name": "F5",
                    "midi": 77,
                    "time": 195.68997199999933,
                    "velocity": 0.6377952755905512,
                    "duration": 0.08643549999999323
                },
                {
                    "name": "F5",
                    "midi": 77,
                    "time": 196.03571399999933,
                    "velocity": 0.5748031496062992,
                    "duration": 0.08643549999999323
                },
                {
                    "name": "G5",
                    "midi": 79,
                    "time": 196.38145599999933,
                    "velocity": 0.6220472440944882,
                    "duration": 0.3457420000000013
                },
                {
                    "name": "C5",
                    "midi": 72,
                    "time": 197.41868199999934,
                    "velocity": 0.5905511811023622,
                    "duration": 0.2593065000000081
                },
                {
                    "name": "G5",
                    "midi": 79,
                    "time": 197.67798849999934,
                    "velocity": 0.5275590551181102,
                    "duration": 0.08643549999999323
                },
                {
                    "name": "A#5",
                    "midi": 82,
                    "time": 197.76442399999934,
                    "velocity": 0.6141732283464567,
                    "duration": 0.08643549999999323
                },
                {
                    "name": "A#5",
                    "midi": 82,
                    "time": 198.11016599999934,
                    "velocity": 0.5590551181102362,
                    "duration": 0.2593065000000081
                },
                {
                    "name": "C6",
                    "midi": 84,
                    "time": 198.36947249999935,
                    "velocity": 0.5196850393700787,
                    "duration": 0.08643549999999323
                },
                {
                    "name": "A5",
                    "midi": 81,
                    "time": 198.45590799999934,
                    "velocity": 0.6141732283464567,
                    "duration": 0.08643549999999323
                },
                {
                    "name": "A5",
                    "midi": 81,
                    "time": 198.80164999999934,
                    "velocity": 0.5669291338582677,
                    "duration": 0.2593065000000081
                },
                {
                    "name": "A#5",
                    "midi": 82,
                    "time": 199.06095649999935,
                    "velocity": 0.5118110236220472,
                    "duration": 0.08643549999999323
                },
                {
                    "name": "G5",
                    "midi": 79,
                    "time": 199.14739199999934,
                    "velocity": 0.6141732283464567,
                    "duration": 0.08643549999999323
                },
                {
                    "name": "G5",
                    "midi": 79,
                    "time": 199.49313399999934,
                    "velocity": 0.5118110236220472,
                    "duration": 0.2593065000000081
                },
                {
                    "name": "A5",
                    "midi": 81,
                    "time": 199.75244049999935,
                    "velocity": 0.48031496062992124,
                    "duration": 0.08643549999999323
                },
                {
                    "name": "F5",
                    "midi": 77,
                    "time": 199.83887599999935,
                    "velocity": 0.5826771653543307,
                    "duration": 0.08643549999999323
                },
                {
                    "name": "F5",
                    "midi": 77,
                    "time": 200.18461799999935,
                    "velocity": 0.5275590551181102,
                    "duration": 0.08643549999999323
                },
                {
                    "name": "G5",
                    "midi": 79,
                    "time": 200.53035999999935,
                    "velocity": 0.5826771653543307,
                    "duration": 0.08643549999999323
                },
                {
                    "name": "G5",
                    "midi": 79,
                    "time": 200.87610199999935,
                    "velocity": 0.5275590551181102,
                    "duration": 0.08643549999999323
                },
                {
                    "name": "E5",
                    "midi": 76,
                    "time": 201.22184399999935,
                    "velocity": 0.5905511811023622,
                    "duration": 0.08643549999999323
                },
                {
                    "name": "E5",
                    "midi": 76,
                    "time": 201.56758599999935,
                    "velocity": 0.5275590551181102,
                    "duration": 0.08643549999999323
                },
                {
                    "name": "F5",
                    "midi": 77,
                    "time": 201.91332799999935,
                    "velocity": 0.5196850393700787,
                    "duration": 0.11524733333334325
                },
                {
                    "name": "C5",
                    "midi": 72,
                    "time": 202.0285753333327,
                    "velocity": 0.3700787401574803,
                    "duration": 0.11524733333334325
                },
                {
                    "name": "A4",
                    "midi": 69,
                    "time": 202.14382266666604,
                    "velocity": 0.3700787401574803,
                    "duration": 0.11524733333334325
                },
                {
                    "name": "F5",
                    "midi": 77,
                    "time": 202.25906999999938,
                    "velocity": 0.5275590551181102,
                    "duration": 0.11524733333334325
                },
                {
                    "name": "C5",
                    "midi": 72,
                    "time": 202.37431733333273,
                    "velocity": 0.3779527559055118,
                    "duration": 0.11524733333334325
                },
                {
                    "name": "A4",
                    "midi": 69,
                    "time": 202.48956466666607,
                    "velocity": 0.3779527559055118,
                    "duration": 0.11524733333334325
                },
                {
                    "name": "F5",
                    "midi": 77,
                    "time": 202.6048119999994,
                    "velocity": 0.5118110236220472,
                    "duration": 0.11524733333334325
                },
                {
                    "name": "C5",
                    "midi": 72,
                    "time": 202.72005933333276,
                    "velocity": 0.3700787401574803,
                    "duration": 0.11524733333334325
                },
                {
                    "name": "A4",
                    "midi": 69,
                    "time": 202.8353066666661,
                    "velocity": 0.3700787401574803,
                    "duration": 0.11524733333334325
                },
                {
                    "name": "E5",
                    "midi": 76,
                    "time": 202.95055399999944,
                    "velocity": 0.5433070866141733,
                    "duration": 0.11524733333334325
                },
                {
                    "name": "C5",
                    "midi": 72,
                    "time": 203.0658013333328,
                    "velocity": 0.4409448818897638,
                    "duration": 0.11524733333334325
                },
                {
                    "name": "A#4",
                    "midi": 70,
                    "time": 203.18104866666613,
                    "velocity": 0.4409448818897638,
                    "duration": 0.11524733333334325
                },
                {
                    "name": "F5",
                    "midi": 77,
                    "time": 203.29629599999947,
                    "velocity": 0.5196850393700787,
                    "duration": 0.11524733333334325
                },
                {
                    "name": "C5",
                    "midi": 72,
                    "time": 203.41154333333282,
                    "velocity": 0.3700787401574803,
                    "duration": 0.11524733333334325
                },
                {
                    "name": "A4",
                    "midi": 69,
                    "time": 203.52679066666616,
                    "velocity": 0.3700787401574803,
                    "duration": 0.11524733333334325
                },
                {
                    "name": "F5",
                    "midi": 77,
                    "time": 203.6420379999995,
                    "velocity": 0.5275590551181102,
                    "duration": 0.11524733333334325
                },
                {
                    "name": "C5",
                    "midi": 72,
                    "time": 203.75728533333285,
                    "velocity": 0.3779527559055118,
                    "duration": 0.11524733333334325
                },
                {
                    "name": "A4",
                    "midi": 69,
                    "time": 203.8725326666662,
                    "velocity": 0.3779527559055118,
                    "duration": 0.11524733333334325
                },
                {
                    "name": "F5",
                    "midi": 77,
                    "time": 203.98777999999953,
                    "velocity": 0.5118110236220472,
                    "duration": 0.11524733333334325
                },
                {
                    "name": "C5",
                    "midi": 72,
                    "time": 204.10302733333288,
                    "velocity": 0.3700787401574803,
                    "duration": 0.11524733333334325
                },
                {
                    "name": "A4",
                    "midi": 69,
                    "time": 204.21827466666622,
                    "velocity": 0.3700787401574803,
                    "duration": 0.11524733333334325
                },
                {
                    "name": "E5",
                    "midi": 76,
                    "time": 204.33352199999956,
                    "velocity": 0.5433070866141733,
                    "duration": 0.11524733333334325
                },
                {
                    "name": "C5",
                    "midi": 72,
                    "time": 204.4487693333329,
                    "velocity": 0.4409448818897638,
                    "duration": 0.11524733333334325
                },
                {
                    "name": "A#4",
                    "midi": 70,
                    "time": 204.56401666666625,
                    "velocity": 0.4409448818897638,
                    "duration": 0.11524733333334325
                },
                {
                    "name": "F5",
                    "midi": 77,
                    "time": 204.6792639999996,
                    "velocity": 0.5196850393700787,
                    "duration": 0.11524733333334325
                },
                {
                    "name": "C5",
                    "midi": 72,
                    "time": 204.79451133333293,
                    "velocity": 0.3700787401574803,
                    "duration": 0.11524733333334325
                },
                {
                    "name": "A4",
                    "midi": 69,
                    "time": 204.90975866666628,
                    "velocity": 0.3700787401574803,
                    "duration": 0.11524733333334325
                },
                {
                    "name": "F5",
                    "midi": 77,
                    "time": 205.02500599999962,
                    "velocity": 0.5275590551181102,
                    "duration": 0.11524733333334325
                },
                {
                    "name": "C5",
                    "midi": 72,
                    "time": 205.14025333333296,
                    "velocity": 0.3779527559055118,
                    "duration": 0.11524733333334325
                },
                {
                    "name": "A4",
                    "midi": 69,
                    "time": 205.2555006666663,
                    "velocity": 0.3779527559055118,
                    "duration": 0.11524733333334325
                },
                {
                    "name": "F5",
                    "midi": 77,
                    "time": 205.37074799999965,
                    "velocity": 0.5118110236220472,
                    "duration": 0.11524733333334325
                },
                {
                    "name": "C5",
                    "midi": 72,
                    "time": 205.485995333333,
                    "velocity": 0.3700787401574803,
                    "duration": 0.11524733333334325
                },
                {
                    "name": "A4",
                    "midi": 69,
                    "time": 205.60124266666634,
                    "velocity": 0.3700787401574803,
                    "duration": 0.11524733333334325
                },
                {
                    "name": "F#5",
                    "midi": 78,
                    "time": 205.71648999999968,
                    "velocity": 0.5433070866141733,
                    "duration": 0.11524733333334325
                },
                {
                    "name": "D5",
                    "midi": 74,
                    "time": 205.83173733333302,
                    "velocity": 0.4409448818897638,
                    "duration": 0.11524733333334325
                },
                {
                    "name": "C5",
                    "midi": 72,
                    "time": 205.94698466666637,
                    "velocity": 0.4409448818897638,
                    "duration": 0.11524733333334325
                },
                {
                    "name": "G5",
                    "midi": 79,
                    "time": 206.0622319999997,
                    "velocity": 0.5196850393700787,
                    "duration": 0.11524733333334325
                },
                {
                    "name": "D5",
                    "midi": 74,
                    "time": 206.17747933333305,
                    "velocity": 0.4015748031496063,
                    "duration": 0.11524733333334325
                },
                {
                    "name": "B4",
                    "midi": 71,
                    "time": 206.2927266666664,
                    "velocity": 0.4015748031496063,
                    "duration": 0.11524733333334325
                },
                {
                    "name": "G5",
                    "midi": 79,
                    "time": 206.40797399999974,
                    "velocity": 0.5275590551181102,
                    "duration": 0.11524733333334325
                },
                {
                    "name": "D5",
                    "midi": 74,
                    "time": 206.52322133333308,
                    "velocity": 0.4015748031496063,
                    "duration": 0.11524733333334325
                },
                {
                    "name": "B4",
                    "midi": 71,
                    "time": 206.63846866666643,
                    "velocity": 0.4015748031496063,
                    "duration": 0.11524733333334325
                },
                {
                    "name": "G5",
                    "midi": 79,
                    "time": 206.75371599999977,
                    "velocity": 0.5118110236220472,
                    "duration": 0.11524733333334325
                },
                {
                    "name": "D5",
                    "midi": 74,
                    "time": 206.8689633333331,
                    "velocity": 0.3937007874015748,
                    "duration": 0.11524733333334325
                },
                {
                    "name": "B4",
                    "midi": 71,
                    "time": 206.98421066666646,
                    "velocity": 0.3937007874015748,
                    "duration": 0.11524733333334325
                },
                {
                    "name": "G#5",
                    "midi": 80,
                    "time": 207.0994579999998,
                    "velocity": 0.5433070866141733,
                    "duration": 0.11524733333334325
                },
                {
                    "name": "E5",
                    "midi": 76,
                    "time": 207.21470533333314,
                    "velocity": 0.4409448818897638,
                    "duration": 0.11524733333334325
                },
                {
                    "name": "D5",
                    "midi": 74,
                    "time": 207.3299526666665,
                    "velocity": 0.4409448818897638,
                    "duration": 0.11524733333334325
                },
                {
                    "name": "A5",
                    "midi": 81,
                    "time": 207.44519999999983,
                    "velocity": 0.5275590551181102,
                    "duration": 0.11524733333334325
                },
                {
                    "name": "E5",
                    "midi": 76,
                    "time": 207.56044733333317,
                    "velocity": 0.41732283464566927,
                    "duration": 0.11524733333334325
                },
                {
                    "name": "C5",
                    "midi": 72,
                    "time": 207.67569466666652,
                    "velocity": 0.41732283464566927,
                    "duration": 0.11524733333334325
                },
                {
                    "name": "A5",
                    "midi": 81,
                    "time": 207.79094199999986,
                    "velocity": 0.5354330708661418,
                    "duration": 0.11524733333334325
                },
                {
                    "name": "E5",
                    "midi": 76,
                    "time": 207.9061893333332,
                    "velocity": 0.4251968503937008,
                    "duration": 0.11524733333334325
                },
                {
                    "name": "C5",
                    "midi": 72,
                    "time": 208.02143666666655,
                    "velocity": 0.4251968503937008,
                    "duration": 0.11524733333334325
                },
                {
                    "name": "A5",
                    "midi": 81,
                    "time": 208.1366839999999,
                    "velocity": 0.5354330708661418,
                    "duration": 0.11524733333334325
                },
                {
                    "name": "E5",
                    "midi": 76,
                    "time": 208.25193133333323,
                    "velocity": 0.4094488188976378,
                    "duration": 0.11524733333334325
                },
                {
                    "name": "C5",
                    "midi": 72,
                    "time": 208.36717866666658,
                    "velocity": 0.4094488188976378,
                    "duration": 0.11524733333334325
                },
                {
                    "name": "B5",
                    "midi": 83,
                    "time": 208.48242599999992,
                    "velocity": 0.5433070866141733,
                    "duration": 0.11524733333334325
                },
                {
                    "name": "G#5",
                    "midi": 80,
                    "time": 208.59767333333326,
                    "velocity": 0.4409448818897638,
                    "duration": 0.11524733333334325
                },
                {
                    "name": "E5",
                    "midi": 76,
                    "time": 208.7129206666666,
                    "velocity": 0.4409448818897638,
                    "duration": 0.11524733333334325
                },
                {
                    "name": "C6",
                    "midi": 84,
                    "time": 208.82816799999995,
                    "velocity": 0.5354330708661418,
                    "duration": 0.11524733333334325
                },
                {
                    "name": "A5",
                    "midi": 81,
                    "time": 208.9434153333333,
                    "velocity": 0.4094488188976378,
                    "duration": 0.11524733333334325
                },
                {
                    "name": "E5",
                    "midi": 76,
                    "time": 209.05866266666663,
                    "velocity": 0.4251968503937008,
                    "duration": 0.11524733333334325
                },
                {
                    "name": "D6",
                    "midi": 86,
                    "time": 209.17390999999998,
                    "velocity": 0.5748031496062992,
                    "duration": 0.11524733333334325
                },
                {
                    "name": "B5",
                    "midi": 83,
                    "time": 209.28915733333332,
                    "velocity": 0.4251968503937008,
                    "duration": 0.11524733333334325
                },
                {
                    "name": "E5",
                    "midi": 76,
                    "time": 209.40440466666666,
                    "velocity": 0.4251968503937008,
                    "duration": 0.11524733333334325
                },
                {
                    "name": "E6",
                    "midi": 88,
                    "time": 209.519652,
                    "velocity": 0.5826771653543307,
                    "duration": 0.11524733333334325
                },
                {
                    "name": "C6",
                    "midi": 84,
                    "time": 209.63489933333335,
                    "velocity": 0.4251968503937008,
                    "duration": 0.11524733333334325
                },
                {
                    "name": "E5",
                    "midi": 76,
                    "time": 209.7501466666667,
                    "velocity": 0.4251968503937008,
                    "duration": 0.11524733333334325
                },
                {
                    "name": "C6",
                    "midi": 84,
                    "time": 209.86539400000004,
                    "velocity": 0.5511811023622047,
                    "duration": 0.11524733333334325
                },
                {
                    "name": "A5",
                    "midi": 81,
                    "time": 209.98064133333338,
                    "velocity": 0.41732283464566927,
                    "duration": 0.11524733333334325
                },
                {
                    "name": "E5",
                    "midi": 76,
                    "time": 210.09588866666672,
                    "velocity": 0.4251968503937008,
                    "duration": 0.11524733333334325
                },
                {
                    "name": "B5",
                    "midi": 83,
                    "time": 210.21113600000007,
                    "velocity": 0.4881889763779528,
                    "duration": 0.11524733333334325
                },
                {
                    "name": "G#5",
                    "midi": 80,
                    "time": 210.3263833333334,
                    "velocity": 0.3700787401574803,
                    "duration": 0.11524733333334325
                },
                {
                    "name": "E5",
                    "midi": 76,
                    "time": 210.44163066666675,
                    "velocity": 0.3700787401574803,
                    "duration": 0.11524733333334325
                },
                {
                    "name": "C6",
                    "midi": 84,
                    "time": 210.5568780000001,
                    "velocity": 0.48031496062992124,
                    "duration": 0.11524733333334325
                },
                {
                    "name": "A5",
                    "midi": 81,
                    "time": 210.67212533333344,
                    "velocity": 0.36220472440944884,
                    "duration": 0.11524733333334325
                },
                {
                    "name": "E5",
                    "midi": 76,
                    "time": 210.78737266666678,
                    "velocity": 0.36220472440944884,
                    "duration": 0.11524733333334325
                },
                {
                    "name": "B5",
                    "midi": 83,
                    "time": 210.90262000000013,
                    "velocity": 0.48031496062992124,
                    "duration": 0.11524733333334325
                },
                {
                    "name": "G#5",
                    "midi": 80,
                    "time": 211.01786733333347,
                    "velocity": 0.3700787401574803,
                    "duration": 0.11524733333334325
                },
                {
                    "name": "E5",
                    "midi": 76,
                    "time": 211.1331146666668,
                    "velocity": 0.3779527559055118,
                    "duration": 0.11524733333334325
                },
                {
                    "name": "E6",
                    "midi": 88,
                    "time": 211.24836200000016,
                    "velocity": 0.4645669291338583,
                    "duration": 0.11524733333334325
                },
                {
                    "name": "B5",
                    "midi": 83,
                    "time": 211.3636093333335,
                    "velocity": 0.3543307086614173,
                    "duration": 0.11524733333334325
                },
                {
                    "name": "G#5",
                    "midi": 80,
                    "time": 211.47885666666684,
                    "velocity": 0.3543307086614173,
                    "duration": 0.11524733333334325
                },
                {
                    "name": "E6",
                    "midi": 88,
                    "time": 211.5941040000002,
                    "velocity": 0.44881889763779526,
                    "duration": 0.11524733333334325
                },
                {
                    "name": "C6",
                    "midi": 84,
                    "time": 211.70935133333353,
                    "velocity": 0.3464566929133858,
                    "duration": 0.11524733333334325
                },
                {
                    "name": "A5",
                    "midi": 81,
                    "time": 211.82459866666687,
                    "velocity": 0.3543307086614173,
                    "duration": 0.11524733333334325
                },
                {
                    "name": "E6",
                    "midi": 88,
                    "time": 211.93984600000022,
                    "velocity": 0.44881889763779526,
                    "duration": 0.11524733333334325
                },
                {
                    "name": "C6",
                    "midi": 84,
                    "time": 212.05509333333356,
                    "velocity": 0.3228346456692913,
                    "duration": 0.11524733333334325
                },
                {
                    "name": "A5",
                    "midi": 81,
                    "time": 212.1703406666669,
                    "velocity": 0.3228346456692913,
                    "duration": 0.11524733333334325
                },
                {
                    "name": "D6",
                    "midi": 86,
                    "time": 212.28558800000025,
                    "velocity": 0.4409448818897638,
                    "duration": 0.11524733333334325
                },
                {
                    "name": "B5",
                    "midi": 83,
                    "time": 212.4008353333336,
                    "velocity": 0.30708661417322836,
                    "duration": 0.11524733333334325
                },
                {
                    "name": "A5",
                    "midi": 81,
                    "time": 212.51608266666693,
                    "velocity": 0.30708661417322836,
                    "duration": 0.11524733333334325
                },
                {
                    "name": "D6",
                    "midi": 86,
                    "time": 212.63133000000028,
                    "velocity": 0.4566929133858268,
                    "duration": 0.11524733333334325
                },
                {
                    "name": "B5",
                    "midi": 83,
                    "time": 212.74657733333362,
                    "velocity": 0.30708661417322836,
                    "duration": 0.11524733333334325
                },
                {
                    "name": "A5",
                    "midi": 81,
                    "time": 212.86182466666696,
                    "velocity": 0.31496062992125984,
                    "duration": 0.11524733333334325
                },
                {
                    "name": "D6",
                    "midi": 86,
                    "time": 212.9770720000003,
                    "velocity": 0.4881889763779528,
                    "duration": 0.11524733333334325
                },
                {
                    "name": "B5",
                    "midi": 83,
                    "time": 213.09231933333365,
                    "velocity": 0.3464566929133858,
                    "duration": 0.11524733333334325
                },
                {
                    "name": "G#5",
                    "midi": 80,
                    "time": 213.207566666667,
                    "velocity": 0.36220472440944884,
                    "duration": 0.11524733333334325
                },
                {
                    "name": "D6",
                    "midi": 86,
                    "time": 213.32281400000033,
                    "velocity": 0.4330708661417323,
                    "duration": 0.11524733333334325
                },
                {
                    "name": "B5",
                    "midi": 83,
                    "time": 213.43806133333368,
                    "velocity": 0.33070866141732286,
                    "duration": 0.11524733333334325
                },
                {
                    "name": "G#5",
                    "midi": 80,
                    "time": 213.55330866666702,
                    "velocity": 0.33858267716535434,
                    "duration": 0.11524733333334325
                },
                {
                    "name": "C#6",
                    "midi": 85,
                    "time": 213.66855600000036,
                    "velocity": 0.4566929133858268,
                    "duration": 0.11524733333334325
                },
                {
                    "name": "A5",
                    "midi": 81,
                    "time": 213.7838033333337,
                    "velocity": 0.3464566929133858,
                    "duration": 0.11524733333334325
                },
                {
                    "name": "G5",
                    "midi": 79,
                    "time": 213.89905066666705,
                    "velocity": 0.3543307086614173,
                    "duration": 0.11524733333334325
                },
                {
                    "name": "C#6",
                    "midi": 85,
                    "time": 214.0142980000004,
                    "velocity": 0.4330708661417323,
                    "duration": 0.11524733333334325
                },
                {
                    "name": "A5",
                    "midi": 81,
                    "time": 214.12954533333374,
                    "velocity": 0.36220472440944884,
                    "duration": 0.11524733333334325
                },
                {
                    "name": "G5",
                    "midi": 79,
                    "time": 214.24479266666708,
                    "velocity": 0.36220472440944884,
                    "duration": 0.11524733333334325
                },
                {
                    "name": "C6",
                    "midi": 84,
                    "time": 214.36004000000042,
                    "velocity": 0.5196850393700787,
                    "duration": 0.11524733333334325
                },
                {
                    "name": "A5",
                    "midi": 81,
                    "time": 214.47528733333377,
                    "velocity": 0.3779527559055118,
                    "duration": 0.11524733333334325
                },
                {
                    "name": "F#5",
                    "midi": 78,
                    "time": 214.5905346666671,
                    "velocity": 0.4015748031496063,
                    "duration": 0.11524733333334325
                },
                {
                    "name": "C6",
                    "midi": 84,
                    "time": 214.70578200000045,
                    "velocity": 0.47244094488188976,
                    "duration": 0.11524733333334325
                },
                {
                    "name": "A5",
                    "midi": 81,
                    "time": 214.8210293333338,
                    "velocity": 0.3700787401574803,
                    "duration": 0.11524733333334325
                },
                {
                    "name": "F#5",
                    "midi": 78,
                    "time": 214.93627666666714,
                    "velocity": 0.3700787401574803,
                    "duration": 0.11524733333334325
                },
                {
                    "name": "B5",
                    "midi": 83,
                    "time": 215.05152400000048,
                    "velocity": 0.5275590551181102,
                    "duration": 0.11524733333334325
                },
                {
                    "name": "G5",
                    "midi": 79,
                    "time": 215.16677133333383,
                    "velocity": 0.36220472440944884,
                    "duration": 0.11524733333334325
                },
                {
                    "name": "F5",
                    "midi": 77,
                    "time": 215.28201866666717,
                    "velocity": 0.36220472440944884,
                    "duration": 0.11524733333334325
                },
                {
                    "name": "B5",
                    "midi": 83,
                    "time": 215.3972660000005,
                    "velocity": 0.48031496062992124,
                    "duration": 0.11524733333334325
                },
                {
                    "name": "G5",
                    "midi": 79,
                    "time": 215.51251333333386,
                    "velocity": 0.3700787401574803,
                    "duration": 0.11524733333334325
                },
                {
                    "name": "F5",
                    "midi": 77,
                    "time": 215.6277606666672,
                    "velocity": 0.3779527559055118,
                    "duration": 0.11524733333334325
                },
                {
                    "name": "A#5",
                    "midi": 82,
                    "time": 215.74300800000054,
                    "velocity": 0.5275590551181102,
                    "duration": 0.11524733333334325
                },
                {
                    "name": "G5",
                    "midi": 79,
                    "time": 215.8582553333339,
                    "velocity": 0.41732283464566927,
                    "duration": 0.11524733333334325
                },
                {
                    "name": "E5",
                    "midi": 76,
                    "time": 215.97350266666723,
                    "velocity": 0.4330708661417323,
                    "duration": 0.11524733333334325
                },
                {
                    "name": "A#5",
                    "midi": 82,
                    "time": 216.08875000000057,
                    "velocity": 0.5196850393700787,
                    "duration": 0.11524733333334325
                },
                {
                    "name": "G5",
                    "midi": 79,
                    "time": 216.20399733333392,
                    "velocity": 0.4015748031496063,
                    "duration": 0.11524733333334325
                },
                {
                    "name": "E5",
                    "midi": 76,
                    "time": 216.31924466666726,
                    "velocity": 0.4015748031496063,
                    "duration": 0.11524733333334325
                },
                {
                    "name": "A5",
                    "midi": 81,
                    "time": 216.4344920000006,
                    "velocity": 0.5275590551181102,
                    "duration": 0.11524733333334325
                },
                {
                    "name": "F5",
                    "midi": 77,
                    "time": 216.54973933333395,
                    "velocity": 0.3937007874015748,
                    "duration": 0.11524733333334325
                },
                {
                    "name": "C5",
                    "midi": 72,
                    "time": 216.6649866666673,
                    "velocity": 0.3937007874015748,
                    "duration": 0.11524733333334325
                },
                {
                    "name": "A5",
                    "midi": 81,
                    "time": 216.78023400000063,
                    "velocity": 0.5196850393700787,
                    "duration": 0.11524733333334325
                },
                {
                    "name": "F5",
                    "midi": 77,
                    "time": 216.89548133333398,
                    "velocity": 0.4015748031496063,
                    "duration": 0.11524733333334325
                },
                {
                    "name": "C5",
                    "midi": 72,
                    "time": 217.01072866666732,
                    "velocity": 0.4094488188976378,
                    "duration": 0.11524733333334325
                },
                {
                    "name": "A#5",
                    "midi": 82,
                    "time": 217.12597600000066,
                    "velocity": 0.5748031496062992,
                    "duration": 0.11524733333334325
                },
                {
                    "name": "G5",
                    "midi": 79,
                    "time": 217.241223333334,
                    "velocity": 0.44881889763779526,
                    "duration": 0.11524733333334325
                },
                {
                    "name": "C5",
                    "midi": 72,
                    "time": 217.35647066666735,
                    "velocity": 0.47244094488188976,
                    "duration": 0.11524733333334325
                },
                {
                    "name": "A#5",
                    "midi": 82,
                    "time": 217.4717180000007,
                    "velocity": 0.5669291338582677,
                    "duration": 0.11524733333334325
                },
                {
                    "name": "G5",
                    "midi": 79,
                    "time": 217.58696533333404,
                    "velocity": 0.4330708661417323,
                    "duration": 0.11524733333334325
                },
                {
                    "name": "C5",
                    "midi": 72,
                    "time": 217.70221266666738,
                    "velocity": 0.4330708661417323,
                    "duration": 0.11524733333334325
                },
                {
                    "name": "A5",
                    "midi": 81,
                    "time": 217.81746000000072,
                    "velocity": 0.5748031496062992,
                    "duration": 0.11524733333334325
                },
                {
                    "name": "F5",
                    "midi": 77,
                    "time": 217.93270733333406,
                    "velocity": 0.4251968503937008,
                    "duration": 0.11524733333334325
                },
                {
                    "name": "C5",
                    "midi": 72,
                    "time": 218.0479546666674,
                    "velocity": 0.4251968503937008,
                    "duration": 0.11524733333334325
                },
                {
                    "name": "A5",
                    "midi": 81,
                    "time": 218.16320200000075,
                    "velocity": 0.5590551181102362,
                    "duration": 0.11524733333334325
                },
                {
                    "name": "F5",
                    "midi": 77,
                    "time": 218.2784493333341,
                    "velocity": 0.4330708661417323,
                    "duration": 0.11524733333334325
                },
                {
                    "name": "C5",
                    "midi": 72,
                    "time": 218.39369666666744,
                    "velocity": 0.44881889763779526,
                    "duration": 0.11524733333334325
                },
                {
                    "name": "A5",
                    "midi": 81,
                    "time": 218.50894400000078,
                    "velocity": 0.6456692913385826,
                    "duration": 0.11524733333334325
                },
                {
                    "name": "F5",
                    "midi": 77,
                    "time": 218.62419133333412,
                    "velocity": 0.5118110236220472,
                    "duration": 0.11524733333334325
                },
                {
                    "name": "C5",
                    "midi": 72,
                    "time": 218.73943866666747,
                    "velocity": 0.5275590551181102,
                    "duration": 0.11524733333334325
                },
                {
                    "name": "A5",
                    "midi": 81,
                    "time": 218.8546860000008,
                    "velocity": 0.6299212598425197,
                    "duration": 0.11524733333334325
                },
                {
                    "name": "F5",
                    "midi": 77,
                    "time": 218.96993333333415,
                    "velocity": 0.48031496062992124,
                    "duration": 0.11524733333334325
                },
                {
                    "name": "C5",
                    "midi": 72,
                    "time": 219.0851806666675,
                    "velocity": 0.48031496062992124,
                    "duration": 0.11524733333334325
                },
                {
                    "name": "A5",
                    "midi": 81,
                    "time": 219.20042800000084,
                    "velocity": 0.6299212598425197,
                    "duration": 0.11524733333334325
                },
                {
                    "name": "E5",
                    "midi": 76,
                    "time": 219.31567533333418,
                    "velocity": 0.4566929133858268,
                    "duration": 0.11524733333334325
                },
                {
                    "name": "C5",
                    "midi": 72,
                    "time": 219.43092266666753,
                    "velocity": 0.4566929133858268,
                    "duration": 0.11524733333334325
                },
                {
                    "name": "A5",
                    "midi": 81,
                    "time": 219.54617000000087,
                    "velocity": 0.5984251968503937,
                    "duration": 0.11524733333334325
                },
                {
                    "name": "E5",
                    "midi": 76,
                    "time": 219.6614173333342,
                    "velocity": 0.4566929133858268,
                    "duration": 0.11524733333334325
                },
                {
                    "name": "C5",
                    "midi": 72,
                    "time": 219.77666466666756,
                    "velocity": 0.47244094488188976,
                    "duration": 0.11524733333334325
                },
                {
                    "name": "A5",
                    "midi": 81,
                    "time": 219.8919120000009,
                    "velocity": 0.6456692913385826,
                    "duration": 0.11524733333334325
                },
                {
                    "name": "F#5",
                    "midi": 78,
                    "time": 220.00715933333424,
                    "velocity": 0.5118110236220472,
                    "duration": 0.11524733333334325
                },
                {
                    "name": "C5",
                    "midi": 72,
                    "time": 220.1224066666676,
                    "velocity": 0.5275590551181102,
                    "duration": 0.11524733333334325
                },
                {
                    "name": "A5",
                    "midi": 81,
                    "time": 220.23765400000093,
                    "velocity": 0.6299212598425197,
                    "duration": 0.11524733333334325
                },
                {
                    "name": "F#5",
                    "midi": 78,
                    "time": 220.35290133333427,
                    "velocity": 0.48031496062992124,
                    "duration": 0.11524733333334325
                },
                {
                    "name": "C5",
                    "midi": 72,
                    "time": 220.46814866666762,
                    "velocity": 0.48031496062992124,
                    "duration": 0.11524733333334325
                },
                {
                    "name": "A5",
                    "midi": 81,
                    "time": 220.58339600000096,
                    "velocity": 0.6299212598425197,
                    "duration": 0.11524733333334325
                },
                {
                    "name": "F#5",
                    "midi": 78,
                    "time": 220.6986433333343,
                    "velocity": 0.4566929133858268,
                    "duration": 0.11524733333334325
                },
                {
                    "name": "C5",
                    "midi": 72,
                    "time": 220.81389066666765,
                    "velocity": 0.4566929133858268,
                    "duration": 0.11524733333334325
                },
                {
                    "name": "A5",
                    "midi": 81,
                    "time": 220.929138000001,
                    "velocity": 0.5984251968503937,
                    "duration": 0.11524733333334325
                },
                {
                    "name": "F#5",
                    "midi": 78,
                    "time": 221.04438533333433,
                    "velocity": 0.4566929133858268,
                    "duration": 0.11524733333334325
                },
                {
                    "name": "C5",
                    "midi": 72,
                    "time": 221.15963266666768,
                    "velocity": 0.47244094488188976,
                    "duration": 0.11524733333334325
                },
                {
                    "name": "A5",
                    "midi": 81,
                    "time": 221.27488000000102,
                    "velocity": 0.6456692913385826,
                    "duration": 0.11524733333334325
                },
                {
                    "name": "F#5",
                    "midi": 78,
                    "time": 221.39012733333436,
                    "velocity": 0.5118110236220472,
                    "duration": 0.11524733333334325
                },
                {
                    "name": "C5",
                    "midi": 72,
                    "time": 221.5053746666677,
                    "velocity": 0.5275590551181102,
                    "duration": 0.11524733333334325
                },
                {
                    "name": "A5",
                    "midi": 81,
                    "time": 221.62062200000105,
                    "velocity": 0.6299212598425197,
                    "duration": 0.11524733333334325
                },
                {
                    "name": "F#5",
                    "midi": 78,
                    "time": 221.7358693333344,
                    "velocity": 0.48031496062992124,
                    "duration": 0.11524733333334325
                },
                {
                    "name": "C5",
                    "midi": 72,
                    "time": 221.85111666666774,
                    "velocity": 0.48031496062992124,
                    "duration": 0.11524733333334325
                },
                {
                    "name": "A5",
                    "midi": 81,
                    "time": 221.96636400000108,
                    "velocity": 0.6299212598425197,
                    "duration": 0.11524733333334325
                },
                {
                    "name": "F#5",
                    "midi": 78,
                    "time": 222.08161133333442,
                    "velocity": 0.4566929133858268,
                    "duration": 0.11524733333334325
                },
                {
                    "name": "C5",
                    "midi": 72,
                    "time": 222.19685866666777,
                    "velocity": 0.4566929133858268,
                    "duration": 0.11524733333334325
                },
                {
                    "name": "A5",
                    "midi": 81,
                    "time": 222.3121060000011,
                    "velocity": 0.5984251968503937,
                    "duration": 0.11524733333334325
                },
                {
                    "name": "F#5",
                    "midi": 78,
                    "time": 222.42735333333445,
                    "velocity": 0.4566929133858268,
                    "duration": 0.11524733333334325
                },
                {
                    "name": "C5",
                    "midi": 72,
                    "time": 222.5426006666678,
                    "velocity": 0.47244094488188976,
                    "duration": 0.11524733333334325
                },
                {
                    "name": "A5",
                    "midi": 81,
                    "time": 222.65784800000114,
                    "velocity": 0.7007874015748031,
                    "duration": 0.11524733333334325
                },
                {
                    "name": "E5",
                    "midi": 76,
                    "time": 222.77309533333448,
                    "velocity": 0.5196850393700787,
                    "duration": 0.11524733333334325
                },
                {
                    "name": "C5",
                    "midi": 72,
                    "time": 222.88834266666782,
                    "velocity": 0.5118110236220472,
                    "duration": 0.11524733333334325
                },
                {
                    "name": "A5",
                    "midi": 81,
                    "time": 223.00359000000117,
                    "velocity": 0.6614173228346457,
                    "duration": 0.11524733333334325
                },
                {
                    "name": "E5",
                    "midi": 76,
                    "time": 223.1188373333345,
                    "velocity": 0.5196850393700787,
                    "duration": 0.11524733333334325
                },
                {
                    "name": "C5",
                    "midi": 72,
                    "time": 223.23408466666785,
                    "velocity": 0.5196850393700787,
                    "duration": 0.11524733333334325
                },
                {
                    "name": "G#5",
                    "midi": 80,
                    "time": 223.3493320000012,
                    "velocity": 0.6771653543307087,
                    "duration": 0.11524733333331483
                },
                {
                    "name": "D5",
                    "midi": 74,
                    "time": 223.46097785416785,
                    "velocity": 0.49606299212598426,
                    "duration": 0.11524733333331483
                },
                {
                    "name": "B4",
                    "midi": 71,
                    "time": 223.57982666666783,
                    "velocity": 0.49606299212598426,
                    "duration": 0.11524733333334325
                },
                {
                    "name": "G#5",
                    "midi": 80,
                    "time": 223.69507400000117,
                    "velocity": 0.6456692913385826,
                    "duration": 0.11524733333334325
                },
                {
                    "name": "D5",
                    "midi": 74,
                    "time": 223.8103213333345,
                    "velocity": 0.47244094488188976,
                    "duration": 0.11524733333334325
                },
                {
                    "name": "B4",
                    "midi": 71,
                    "time": 223.92556866666786,
                    "velocity": 0.5039370078740157,
                    "duration": 0.11524733333334325
                },
                {
                    "name": "F5",
                    "midi": 77,
                    "time": 224.0408160000012,
                    "velocity": 0.5905511811023622,
                    "duration": 0.11524733333334325
                },
                {
                    "name": "C5",
                    "midi": 72,
                    "time": 224.15606333333454,
                    "velocity": 0.4330708661417323,
                    "duration": 0.11524733333334325
                },
                {
                    "name": "A4",
                    "midi": 69,
                    "time": 224.2713106666679,
                    "velocity": 0.4251968503937008,
                    "duration": 0.11524733333334325
                },
                {
                    "name": "F5",
                    "midi": 77,
                    "time": 224.38655800000123,
                    "velocity": 0.5826771653543307,
                    "duration": 0.11524733333334325
                },
                {
                    "name": "C5",
                    "midi": 72,
                    "time": 224.50180533333457,
                    "velocity": 0.41732283464566927,
                    "duration": 0.11524733333334325
                },
                {
                    "name": "A4",
                    "midi": 69,
                    "time": 224.61705266666792,
                    "velocity": 0.4251968503937008,
                    "duration": 0.11524733333334325
                },
                {
                    "name": "E5",
                    "midi": 76,
                    "time": 224.73230000000126,
                    "velocity": 0.5669291338582677,
                    "duration": 0.11524733333334325
                },
                {
                    "name": "B4",
                    "midi": 71,
                    "time": 224.8475473333346,
                    "velocity": 0.4094488188976378,
                    "duration": 0.11524733333334325
                },
                {
                    "name": "G#4",
                    "midi": 68,
                    "time": 224.96279466666795,
                    "velocity": 0.4094488188976378,
                    "duration": 0.11524733333334325
                },
                {
                    "name": "E5",
                    "midi": 76,
                    "time": 225.0780420000013,
                    "velocity": 0.5354330708661418,
                    "duration": 0.11524733333334325
                },
                {
                    "name": "B4",
                    "midi": 71,
                    "time": 225.19328933333463,
                    "velocity": 0.4094488188976378,
                    "duration": 0.11524733333334325
                },
                {
                    "name": "G#4",
                    "midi": 68,
                    "time": 225.30853666666798,
                    "velocity": 0.4330708661417323,
                    "duration": 0.11524733333334325
                },
                {
                    "name": "D#5",
                    "midi": 75,
                    "time": 225.42378400000132,
                    "velocity": 0.5590551181102362,
                    "duration": 0.11524733333334325
                },
                {
                    "name": "A4",
                    "midi": 69,
                    "time": 225.53903133333466,
                    "velocity": 0.3858267716535433,
                    "duration": 0.11524733333334325
                },
                {
                    "name": "F#4",
                    "midi": 66,
                    "time": 225.654278666668,
                    "velocity": 0.3858267716535433,
                    "duration": 0.11524733333334325
                },
                {
                    "name": "D#5",
                    "midi": 75,
                    "time": 225.76952600000135,
                    "velocity": 0.5275590551181102,
                    "duration": 0.11524733333334325
                },
                {
                    "name": "A4",
                    "midi": 69,
                    "time": 225.8847733333347,
                    "velocity": 0.3700787401574803,
                    "duration": 0.11524733333334325
                },
                {
                    "name": "F#4",
                    "midi": 66,
                    "time": 226.00002066666804,
                    "velocity": 0.41732283464566927,
                    "duration": 0.11524733333334325
                },
                {
                    "name": "D5",
                    "midi": 74,
                    "time": 226.11526800000138,
                    "velocity": 0.5433070866141733,
                    "duration": 0.11524733333334325
                },
                {
                    "name": "B4",
                    "midi": 71,
                    "time": 226.23051533333472,
                    "velocity": 0.3937007874015748,
                    "duration": 0.11524733333334325
                },
                {
                    "name": "G#4",
                    "midi": 68,
                    "time": 226.34576266666807,
                    "velocity": 0.3937007874015748,
                    "duration": 0.11524733333334325
                },
                {
                    "name": "D5",
                    "midi": 74,
                    "time": 226.4610100000014,
                    "velocity": 0.49606299212598426,
                    "duration": 0.11524733333334325
                },
                {
                    "name": "B4",
                    "midi": 71,
                    "time": 226.57625733333475,
                    "velocity": 0.3700787401574803,
                    "duration": 0.11524733333334325
                },
                {
                    "name": "G#4",
                    "midi": 68,
                    "time": 226.6915046666681,
                    "velocity": 0.36220472440944884,
                    "duration": 0.11524733333334325
                },
                {
                    "name": "C5",
                    "midi": 72,
                    "time": 226.80675200000144,
                    "velocity": 0.4566929133858268,
                    "duration": 0.11524733333334325
                },
                {
                    "name": "A4",
                    "midi": 69,
                    "time": 226.92199933333478,
                    "velocity": 0.3464566929133858,
                    "duration": 0.11524733333334325
                },
                {
                    "name": "E4",
                    "midi": 64,
                    "time": 227.03724666666812,
                    "velocity": 0.3700787401574803,
                    "duration": 0.11524733333334325
                },
                {
                    "name": "C5",
                    "midi": 72,
                    "time": 227.15249400000147,
                    "velocity": 0.41732283464566927,
                    "duration": 0.11524733333331483
                },
                {
                    "name": "A4",
                    "midi": 69,
                    "time": 227.26413985416812,
                    "velocity": 0.33858267716535434,
                    "duration": 0.11524733333331483
                },
                {
                    "name": "E4",
                    "midi": 64,
                    "time": 227.3829886666681,
                    "velocity": 0.3543307086614173,
                    "duration": 0.11524733333334325
                },
                {
                    "name": "A4",
                    "midi": 69,
                    "time": 227.49823600000144,
                    "velocity": 0.4566929133858268,
                    "duration": 0.11524733333334325
                },
                {
                    "name": "E4",
                    "midi": 64,
                    "time": 227.61348333333478,
                    "velocity": 0.36220472440944884,
                    "duration": 0.11524733333334325
                },
                {
                    "name": "C4",
                    "midi": 60,
                    "time": 227.72873066666813,
                    "velocity": 0.36220472440944884,
                    "duration": 0.11524733333334325
                },
                {
                    "name": "A4",
                    "midi": 69,
                    "time": 227.84397800000147,
                    "velocity": 0.41732283464566927,
                    "duration": 0.11524733333334325
                },
                {
                    "name": "E4",
                    "midi": 64,
                    "time": 227.9592253333348,
                    "velocity": 0.3464566929133858,
                    "duration": 0.11524733333334325
                },
                {
                    "name": "C4",
                    "midi": 60,
                    "time": 228.07447266666816,
                    "velocity": 0.3464566929133858,
                    "duration": 0.11524733333334325
                },
                {
                    "name": "A#4",
                    "midi": 70,
                    "time": 228.1897200000015,
                    "velocity": 0.4566929133858268,
                    "duration": 0.11524733333334325
                },
                {
                    "name": "F4",
                    "midi": 65,
                    "time": 228.30496733333484,
                    "velocity": 0.3700787401574803,
                    "duration": 0.11524733333334325
                },
                {
                    "name": "D4",
                    "midi": 62,
                    "time": 228.4202146666682,
                    "velocity": 0.3700787401574803,
                    "duration": 0.11524733333334325
                },
                {
                    "name": "A#4",
                    "midi": 70,
                    "time": 228.53546200000153,
                    "velocity": 0.41732283464566927,
                    "duration": 0.11524733333334325
                },
                {
                    "name": "F4",
                    "midi": 65,
                    "time": 228.65070933333487,
                    "velocity": 0.3543307086614173,
                    "duration": 0.11524733333334325
                },
                {
                    "name": "D4",
                    "midi": 62,
                    "time": 228.76595666666822,
                    "velocity": 0.3543307086614173,
                    "duration": 0.11524733333334325
                },
                {
                    "name": "G#4",
                    "midi": 68,
                    "time": 228.88120400000156,
                    "velocity": 0.4251968503937008,
                    "duration": 0.11524733333334325
                },
                {
                    "name": "D4",
                    "midi": 62,
                    "time": 228.9964513333349,
                    "velocity": 0.33858267716535434,
                    "duration": 0.11524733333334325
                },
                {
                    "name": "B3",
                    "midi": 59,
                    "time": 229.11169866666825,
                    "velocity": 0.33858267716535434,
                    "duration": 0.11524733333334325
                },
                {
                    "name": "G#4",
                    "midi": 68,
                    "time": 229.2269460000016,
                    "velocity": 0.41732283464566927,
                    "duration": 0.11524733333334325
                },
                {
                    "name": "D4",
                    "midi": 62,
                    "time": 229.34219333333493,
                    "velocity": 0.2992125984251969,
                    "duration": 0.11524733333334325
                },
                {
                    "name": "B3",
                    "midi": 59,
                    "time": 229.45744066666828,
                    "velocity": 0.2992125984251969,
                    "duration": 0.11524733333334325
                },
                {
                    "name": "G4",
                    "midi": 67,
                    "time": 229.57268800000162,
                    "velocity": 0.33858267716535434,
                    "duration": 0.11524733333334325
                },
                {
                    "name": "E4",
                    "midi": 64,
                    "time": 229.68793533333496,
                    "velocity": 0.28346456692913385,
                    "duration": 0.11524733333334325
                },
                {
                    "name": "C#4",
                    "midi": 61,
                    "time": 229.8031826666683,
                    "velocity": 0.28346456692913385,
                    "duration": 0.11524733333334325
                },
                {
                    "name": "G4",
                    "midi": 67,
                    "time": 229.91843000000165,
                    "velocity": 0.33858267716535434,
                    "duration": 0.11524733333334325
                },
                {
                    "name": "E4",
                    "midi": 64,
                    "time": 230.033677333335,
                    "velocity": 0.29133858267716534,
                    "duration": 0.11524733333334325
                },
                {
                    "name": "C#4",
                    "midi": 61,
                    "time": 230.14892466666834,
                    "velocity": 0.29133858267716534,
                    "duration": 0.11524733333334325
                },
                {
                    "name": "G4",
                    "midi": 67,
                    "time": 230.26417200000168,
                    "velocity": 0.3779527559055118,
                    "duration": 0.11524733333334325
                },
                {
                    "name": "E4",
                    "midi": 64,
                    "time": 230.37941933333502,
                    "velocity": 0.2755905511811024,
                    "duration": 0.11524733333334325
                },
                {
                    "name": "C#4",
                    "midi": 61,
                    "time": 230.49466666666837,
                    "velocity": 0.28346456692913385,
                    "duration": 0.11524733333334325
                },
                {
                    "name": "G4",
                    "midi": 67,
                    "time": 230.6099140000017,
                    "velocity": 0.3779527559055118,
                    "duration": 0.11524733333334325
                },
                {
                    "name": "E4",
                    "midi": 64,
                    "time": 230.72516133333505,
                    "velocity": 0.28346456692913385,
                    "duration": 0.11524733333334325
                },
                {
                    "name": "C#4",
                    "midi": 61,
                    "time": 230.8404086666684,
                    "velocity": 0.29133858267716534,
                    "duration": 0.11524733333334325
                },
                {
                    "name": "C#4",
                    "midi": 61,
                    "time": 230.95565600000174,
                    "velocity": 0.41732283464566927,
                    "duration": 0.6914840000000027
                },
                {
                    "name": "E4",
                    "midi": 64,
                    "time": 230.95565600000174,
                    "velocity": 0.41732283464566927,
                    "duration": 0.6914840000000027
                },
                {
                    "name": "G4",
                    "midi": 67,
                    "time": 230.95565600000174,
                    "velocity": 0.41732283464566927,
                    "duration": 0.6914840000000027
                },
                {
                    "name": "F4",
                    "midi": 65,
                    "time": 231.64714000000174,
                    "velocity": 0.3779527559055118,
                    "duration": 0.3457420000000013
                },
                {
                    "name": "E4",
                    "midi": 64,
                    "time": 231.99288200000174,
                    "velocity": 0.3543307086614173,
                    "duration": 0.3457420000000013
                },
                {
                    "name": "F4",
                    "midi": 65,
                    "time": 232.33862400000174,
                    "velocity": 0.3228346456692913,
                    "duration": 0.11524733333334325
                },
                {
                    "name": "D4",
                    "midi": 62,
                    "time": 232.4538713333351,
                    "velocity": 0.25196850393700787,
                    "duration": 0.11524733333334325
                },
                {
                    "name": "A3",
                    "midi": 57,
                    "time": 232.56911866666843,
                    "velocity": 0.25984251968503935,
                    "duration": 0.11524733333334325
                },
                {
                    "name": "F4",
                    "midi": 65,
                    "time": 232.68436600000177,
                    "velocity": 0.3228346456692913,
                    "duration": 0.11524733333334325
                },
                {
                    "name": "D4",
                    "midi": 62,
                    "time": 232.79961333333512,
                    "velocity": 0.2755905511811024,
                    "duration": 0.11524733333334325
                },
                {
                    "name": "A3",
                    "midi": 57,
                    "time": 232.91486066666846,
                    "velocity": 0.2755905511811024,
                    "duration": 0.11524733333334325
                },
                {
                    "name": "F4",
                    "midi": 65,
                    "time": 233.0301080000018,
                    "velocity": 0.3228346456692913,
                    "duration": 0.11524733333334325
                },
                {
                    "name": "D4",
                    "midi": 62,
                    "time": 233.14535533333515,
                    "velocity": 0.2755905511811024,
                    "duration": 0.11524733333334325
                },
                {
                    "name": "A3",
                    "midi": 57,
                    "time": 233.2606026666685,
                    "velocity": 0.2755905511811024,
                    "duration": 0.11524733333334325
                },
                {
                    "name": "F4",
                    "midi": 65,
                    "time": 233.37585000000183,
                    "velocity": 0.3228346456692913,
                    "duration": 0.11524733333334325
                },
                {
                    "name": "D4",
                    "midi": 62,
                    "time": 233.49109733333518,
                    "velocity": 0.2677165354330709,
                    "duration": 0.11524733333334325
                },
                {
                    "name": "A3",
                    "midi": 57,
                    "time": 233.60634466666852,
                    "velocity": 0.2677165354330709,
                    "duration": 0.11524733333334325
                },
                {
                    "name": "F4",
                    "midi": 65,
                    "time": 233.72159200000186,
                    "velocity": 0.3228346456692913,
                    "duration": 0.11524733333334325
                },
                {
                    "name": "D4",
                    "midi": 62,
                    "time": 233.8368393333352,
                    "velocity": 0.25196850393700787,
                    "duration": 0.11524733333334325
                },
                {
                    "name": "G3",
                    "midi": 55,
                    "time": 233.95208666666855,
                    "velocity": 0.25984251968503935,
                    "duration": 0.11524733333334325
                },
                {
                    "name": "F4",
                    "midi": 65,
                    "time": 234.0673340000019,
                    "velocity": 0.3228346456692913,
                    "duration": 0.11524733333334325
                },
                {
                    "name": "D4",
                    "midi": 62,
                    "time": 234.18258133333524,
                    "velocity": 0.2755905511811024,
                    "duration": 0.11524733333334325
                },
                {
                    "name": "G3",
                    "midi": 55,
                    "time": 234.29782866666858,
                    "velocity": 0.2755905511811024,
                    "duration": 0.11524733333334325
                },
                {
                    "name": "F4",
                    "midi": 65,
                    "time": 234.41307600000192,
                    "velocity": 0.3228346456692913,
                    "duration": 0.11524733333334325
                },
                {
                    "name": "D4",
                    "midi": 62,
                    "time": 234.52832333333527,
                    "velocity": 0.2755905511811024,
                    "duration": 0.11524733333334325
                },
                {
                    "name": "G3",
                    "midi": 55,
                    "time": 234.6435706666686,
                    "velocity": 0.2755905511811024,
                    "duration": 0.11524733333334325
                },
                {
                    "name": "F4",
                    "midi": 65,
                    "time": 234.75881800000195,
                    "velocity": 0.3228346456692913,
                    "duration": 0.11524733333334325
                },
                {
                    "name": "D4",
                    "midi": 62,
                    "time": 234.8740653333353,
                    "velocity": 0.2677165354330709,
                    "duration": 0.11524733333334325
                },
                {
                    "name": "G3",
                    "midi": 55,
                    "time": 234.98931266666864,
                    "velocity": 0.2677165354330709,
                    "duration": 0.11524733333334325
                },
                {
                    "name": "D4",
                    "midi": 62,
                    "time": 235.10456000000198,
                    "velocity": 0.2677165354330709,
                    "duration": 0.8643549999999891
                },
                {
                    "name": "F4",
                    "midi": 65,
                    "time": 235.10456000000198,
                    "velocity": 0.3228346456692913,
                    "duration": 0.8643549999999891
                },
                {
                    "name": "G3",
                    "midi": 55,
                    "time": 235.10456000000198,
                    "velocity": 0.2677165354330709,
                    "duration": 0.8643549999999891
                },
                {
                    "name": "C4",
                    "midi": 60,
                    "time": 236.14178600000196,
                    "velocity": 0.3937007874015748,
                    "duration": 0.2593065000000081
                },
                {
                    "name": "E4",
                    "midi": 64,
                    "time": 236.40109250000197,
                    "velocity": 0.3937007874015748,
                    "duration": 0.08643549999999323
                },
                {
                    "name": "G4",
                    "midi": 67,
                    "time": 236.48752800000196,
                    "velocity": 0.44881889763779526,
                    "duration": 0.08643549999999323
                },
                {
                    "name": "G4",
                    "midi": 67,
                    "time": 236.83327000000196,
                    "velocity": 0.3937007874015748,
                    "duration": 0.08643549999999323
                },
                {
                    "name": "G4",
                    "midi": 67,
                    "time": 237.17901200000196,
                    "velocity": 0.3937007874015748,
                    "duration": 0.08643549999999323
                },
                {
                    "name": "B4",
                    "midi": 71,
                    "time": 237.48153625000197,
                    "velocity": 0.47244094488188976,
                    "duration": 0.04321774999999661
                },
                {
                    "name": "C5",
                    "midi": 72,
                    "time": 237.52475400000196,
                    "velocity": 0.5590551181102362,
                    "duration": 0.08643549999999323
                },
                {
                    "name": "G4",
                    "midi": 67,
                    "time": 237.87049600000196,
                    "velocity": 0.3937007874015748,
                    "duration": 0.08643549999999323
                },
                {
                    "name": "G4",
                    "midi": 67,
                    "time": 238.21623800000197,
                    "velocity": 0.33858267716535434,
                    "duration": 0.08643549999999323
                },
                {
                    "name": "G4",
                    "midi": 67,
                    "time": 238.56198000000197,
                    "velocity": 0.33858267716535434,
                    "duration": 0.08643549999999323
                },
                {
                    "name": "E4",
                    "midi": 64,
                    "time": 238.90772200000197,
                    "velocity": 0.3937007874015748,
                    "duration": 0.2593065000000081
                },
                {
                    "name": "C4",
                    "midi": 60,
                    "time": 239.16702850000198,
                    "velocity": 0.3937007874015748,
                    "duration": 0.08643549999999323
                },
                {
                    "name": "B3",
                    "midi": 59,
                    "time": 239.25346400000197,
                    "velocity": 0.44881889763779526,
                    "duration": 0.08643549999999323
                },
                {
                    "name": "B3",
                    "midi": 59,
                    "time": 239.59920600000197,
                    "velocity": 0.41732283464566927,
                    "duration": 0.08643549999999323
                },
                {
                    "name": "C4",
                    "midi": 60,
                    "time": 239.94494800000197,
                    "velocity": 0.44881889763779526,
                    "duration": 0.08643549999999323
                },
                {
                    "name": "C4",
                    "midi": 60,
                    "time": 240.29069000000197,
                    "velocity": 0.4094488188976378,
                    "duration": 0.08643549999999323
                },
                {
                    "name": "D4",
                    "midi": 62,
                    "time": 240.63643200000197,
                    "velocity": 0.44881889763779526,
                    "duration": 0.3457420000000013
                },
                {
                    "name": "G3",
                    "midi": 55,
                    "time": 241.67365800000198,
                    "velocity": 0.3937007874015748,
                    "duration": 0.2593065000000081
                },
                {
                    "name": "D4",
                    "midi": 62,
                    "time": 241.932964500002,
                    "velocity": 0.3700787401574803,
                    "duration": 0.08643549999999323
                },
                {
                    "name": "F4",
                    "midi": 65,
                    "time": 242.01940000000198,
                    "velocity": 0.4566929133858268,
                    "duration": 0.08643549999999323
                },
                {
                    "name": "F4",
                    "midi": 65,
                    "time": 242.36514200000198,
                    "velocity": 0.3937007874015748,
                    "duration": 0.2593065000000081
                },
                {
                    "name": "G4",
                    "midi": 67,
                    "time": 242.624448500002,
                    "velocity": 0.3779527559055118,
                    "duration": 0.08643549999999323
                },
                {
                    "name": "E4",
                    "midi": 64,
                    "time": 242.71088400000198,
                    "velocity": 0.4566929133858268,
                    "duration": 0.08643549999999323
                },
                {
                    "name": "E4",
                    "midi": 64,
                    "time": 243.05662600000198,
                    "velocity": 0.3937007874015748,
                    "duration": 0.2593065000000081
                },
                {
                    "name": "F4",
                    "midi": 65,
                    "time": 243.315932500002,
                    "velocity": 0.3937007874015748,
                    "duration": 0.08643549999999323
                },
                {
                    "name": "D4",
                    "midi": 62,
                    "time": 243.40236800000199,
                    "velocity": 0.4645669291338583,
                    "duration": 0.08643549999999323
                },
                {
                    "name": "D4",
                    "midi": 62,
                    "time": 243.748110000002,
                    "velocity": 0.3937007874015748,
                    "duration": 0.2593065000000081
                },
                {
                    "name": "E4",
                    "midi": 64,
                    "time": 244.007416500002,
                    "velocity": 0.3700787401574803,
                    "duration": 0.08643549999999323
                },
                {
                    "name": "C4",
                    "midi": 60,
                    "time": 244.093852000002,
                    "velocity": 0.44881889763779526,
                    "duration": 0.08643549999999323
                },
                {
                    "name": "C4",
                    "midi": 60,
                    "time": 244.439594000002,
                    "velocity": 0.4094488188976378,
                    "duration": 0.08643549999999323
                },
                {
                    "name": "D4",
                    "midi": 62,
                    "time": 244.785336000002,
                    "velocity": 0.44881889763779526,
                    "duration": 0.08643549999999323
                },
                {
                    "name": "D4",
                    "midi": 62,
                    "time": 245.131078000002,
                    "velocity": 0.4094488188976378,
                    "duration": 0.08643549999999323
                },
                {
                    "name": "B3",
                    "midi": 59,
                    "time": 245.476820000002,
                    "velocity": 0.4566929133858268,
                    "duration": 0.08643549999999323
                },
                {
                    "name": "B3",
                    "midi": 59,
                    "time": 245.822562000002,
                    "velocity": 0.4094488188976378,
                    "duration": 0.08643549999999323
                },
                {
                    "name": "C5",
                    "midi": 72,
                    "time": 247.205530000002,
                    "velocity": 0.5590551181102362,
                    "duration": 0.08643549999999323
                },
                {
                    "name": "D5",
                    "midi": 74,
                    "time": 247.291965500002,
                    "velocity": 0.5748031496062992,
                    "duration": 0.08643549999999323
                },
                {
                    "name": "D#5",
                    "midi": 75,
                    "time": 247.378401000002,
                    "velocity": 0.5905511811023622,
                    "duration": 0.08643549999999323
                },
                {
                    "name": "F5",
                    "midi": 77,
                    "time": 247.46483650000198,
                    "velocity": 0.6141732283464567,
                    "duration": 0.08643549999999323
                },
                {
                    "name": "G5",
                    "midi": 79,
                    "time": 247.55127200000197,
                    "velocity": 0.6535433070866141,
                    "duration": 0.08643549999999323
                },
                {
                    "name": "G5",
                    "midi": 79,
                    "time": 247.89701400000197,
                    "velocity": 0.5905511811023622,
                    "duration": 0.08643549999999323
                },
                {
                    "name": "G5",
                    "midi": 79,
                    "time": 248.24275600000198,
                    "velocity": 0.5984251968503937,
                    "duration": 0.08643549999999323
                },
                {
                    "name": "B5",
                    "midi": 83,
                    "time": 248.54528025000198,
                    "velocity": 0.6141732283464567,
                    "duration": 0.04321774999999661
                },
                {
                    "name": "C6",
                    "midi": 84,
                    "time": 248.58849800000198,
                    "velocity": 0.7244094488188977,
                    "duration": 0.3457420000000013
                },
                {
                    "name": "G5",
                    "midi": 79,
                    "time": 248.93424000000198,
                    "velocity": 0.6692913385826772,
                    "duration": 0.08643549999999323
                },
                {
                    "name": "G5",
                    "midi": 79,
                    "time": 249.27998200000198,
                    "velocity": 0.5826771653543307,
                    "duration": 0.08643549999999323
                },
                {
                    "name": "G5",
                    "midi": 79,
                    "time": 249.62572400000198,
                    "velocity": 0.5826771653543307,
                    "duration": 0.08643549999999323
                },
                {
                    "name": "C5",
                    "midi": 72,
                    "time": 249.97146600000198,
                    "velocity": 0.5590551181102362,
                    "duration": 0.08643549999999323
                },
                {
                    "name": "D5",
                    "midi": 74,
                    "time": 250.05790150000198,
                    "velocity": 0.5748031496062992,
                    "duration": 0.08643549999999323
                },
                {
                    "name": "D#5",
                    "midi": 75,
                    "time": 250.14433700000197,
                    "velocity": 0.5905511811023622,
                    "duration": 0.08643549999999323
                },
                {
                    "name": "F5",
                    "midi": 77,
                    "time": 250.23077250000196,
                    "velocity": 0.6141732283464567,
                    "duration": 0.08643549999999323
                },
                {
                    "name": "G5",
                    "midi": 79,
                    "time": 250.31720800000195,
                    "velocity": 0.6535433070866141,
                    "duration": 0.08643549999999323
                },
                {
                    "name": "G5",
                    "midi": 79,
                    "time": 250.66295000000196,
                    "velocity": 0.5905511811023622,
                    "duration": 0.08643549999999323
                },
                {
                    "name": "G5",
                    "midi": 79,
                    "time": 251.00869200000196,
                    "velocity": 0.5984251968503937,
                    "duration": 0.08643549999999323
                },
                {
                    "name": "B5",
                    "midi": 83,
                    "time": 251.31121625000196,
                    "velocity": 0.6141732283464567,
                    "duration": 0.04321774999999661
                },
                {
                    "name": "C6",
                    "midi": 84,
                    "time": 251.35443400000196,
                    "velocity": 0.7244094488188977,
                    "duration": 0.3457420000000013
                },
                {
                    "name": "G5",
                    "midi": 79,
                    "time": 251.70017600000196,
                    "velocity": 0.6692913385826772,
                    "duration": 0.08643549999999323
                },
                {
                    "name": "G5",
                    "midi": 79,
                    "time": 252.04591800000196,
                    "velocity": 0.5826771653543307,
                    "duration": 0.08643549999999323
                },
                {
                    "name": "G5",
                    "midi": 79,
                    "time": 252.39166000000196,
                    "velocity": 0.5826771653543307,
                    "duration": 0.08643549999999323
                },
                {
                    "name": "C#5",
                    "midi": 73,
                    "time": 252.73740200000196,
                    "velocity": 0.5590551181102362,
                    "duration": 0.08643549999999323
                },
                {
                    "name": "D5",
                    "midi": 74,
                    "time": 252.82383750000196,
                    "velocity": 0.5748031496062992,
                    "duration": 0.08643549999999323
                },
                {
                    "name": "E5",
                    "midi": 76,
                    "time": 252.91027300000195,
                    "velocity": 0.5905511811023622,
                    "duration": 0.08643549999999323
                },
                {
                    "name": "F5",
                    "midi": 77,
                    "time": 252.99670850000194,
                    "velocity": 0.6141732283464567,
                    "duration": 0.08643549999999323
                },
                {
                    "name": "G5",
                    "midi": 79,
                    "time": 253.08314400000194,
                    "velocity": 0.6692913385826772,
                    "duration": 0.08643549999999323
                },
                {
                    "name": "G5",
                    "midi": 79,
                    "time": 253.42888600000194,
                    "velocity": 0.5984251968503937,
                    "duration": 0.08643549999999323
                },
                {
                    "name": "G5",
                    "midi": 79,
                    "time": 253.77462800000194,
                    "velocity": 0.5984251968503937,
                    "duration": 0.08643549999999323
                },
                {
                    "name": "G5",
                    "midi": 79,
                    "time": 254.12037000000194,
                    "velocity": 0.6299212598425197,
                    "duration": 0.11524733333334325
                },
                {
                    "name": "C#6",
                    "midi": 85,
                    "time": 254.23561733333528,
                    "velocity": 0.5748031496062992,
                    "duration": 0.11524733333334325
                },
                {
                    "name": "E6",
                    "midi": 88,
                    "time": 254.35086466666863,
                    "velocity": 0.5748031496062992,
                    "duration": 0.11524733333334325
                },
                {
                    "name": "F5",
                    "midi": 77,
                    "time": 254.46611200000197,
                    "velocity": 0.6692913385826772,
                    "duration": 0.08643549999999323
                },
                {
                    "name": "F5",
                    "midi": 77,
                    "time": 254.81185400000197,
                    "velocity": 0.5826771653543307,
                    "duration": 0.08643549999999323
                },
                {
                    "name": "F5",
                    "midi": 77,
                    "time": 255.15759600000197,
                    "velocity": 0.5826771653543307,
                    "duration": 0.08643549999999323
                },
                {
                    "name": "F5",
                    "midi": 77,
                    "time": 255.50333800000197,
                    "velocity": 0.6299212598425197,
                    "duration": 0.11524733333334325
                },
                {
                    "name": "A5",
                    "midi": 81,
                    "time": 255.61858533333532,
                    "velocity": 0.5748031496062992,
                    "duration": 0.11524733333334325
                },
                {
                    "name": "D6",
                    "midi": 86,
                    "time": 255.73383266666866,
                    "velocity": 0.5748031496062992,
                    "duration": 0.11524733333334325
                },
                {
                    "name": "F5",
                    "midi": 77,
                    "time": 255.849080000002,
                    "velocity": 0.5905511811023622,
                    "duration": 0.3457419999999729
                },
                {
                    "name": "F5",
                    "midi": 77,
                    "time": 256.194822000002,
                    "velocity": 0.5433070866141733,
                    "duration": 0.2593064999999797
                },
                {
                    "name": "G5",
                    "midi": 79,
                    "time": 256.45412850000196,
                    "velocity": 0.5118110236220472,
                    "duration": 0.08643549999999323
                },
                {
                    "name": "E5",
                    "midi": 76,
                    "time": 256.54056400000195,
                    "velocity": 0.5905511811023622,
                    "duration": 0.08643549999999323
                },
                {
                    "name": "E5",
                    "midi": 76,
                    "time": 256.8863060000019,
                    "velocity": 0.5905511811023622,
                    "duration": 0.2593064999999797
                },
                {
                    "name": "F5",
                    "midi": 77,
                    "time": 257.1456125000019,
                    "velocity": 0.5511811023622047,
                    "duration": 0.08643549999999323
                },
                {
                    "name": "D5",
                    "midi": 74,
                    "time": 257.2320480000019,
                    "velocity": 0.5905511811023622,
                    "duration": 0.08643549999999323
                },
                {
                    "name": "D5",
                    "midi": 74,
                    "time": 257.57779000000187,
                    "velocity": 0.5433070866141733,
                    "duration": 0.2593064999999797
                },
                {
                    "name": "E5",
                    "midi": 76,
                    "time": 257.83709650000185,
                    "velocity": 0.5118110236220472,
                    "duration": 0.08643549999999323
                },
                {
                    "name": "C5",
                    "midi": 72,
                    "time": 257.92353200000184,
                    "velocity": 0.5905511811023622,
                    "duration": 0.08643549999999323
                },
                {
                    "name": "C5",
                    "midi": 72,
                    "time": 258.2692740000018,
                    "velocity": 0.44881889763779526,
                    "duration": 0.11524733333334325
                },
                {
                    "name": "E5",
                    "midi": 76,
                    "time": 258.38452133333516,
                    "velocity": 0.4094488188976378,
                    "duration": 0.11524733333334325
                },
                {
                    "name": "G5",
                    "midi": 79,
                    "time": 258.4997686666685,
                    "velocity": 0.41732283464566927,
                    "duration": 0.11524733333334325
                },
                {
                    "name": "F5",
                    "midi": 77,
                    "time": 258.61501600000184,
                    "velocity": 0.44881889763779526,
                    "duration": 0.17287099999998645
                },
                {
                    "name": "G5",
                    "midi": 79,
                    "time": 258.78788700000183,
                    "velocity": 0.44881889763779526,
                    "duration": 0.0576236666666432
                },
                {
                    "name": "F5",
                    "midi": 77,
                    "time": 258.8455106666685,
                    "velocity": 0.3858267716535433,
                    "duration": 0.0576236666666432
                },
                {
                    "name": "E5",
                    "midi": 76,
                    "time": 258.9031343333351,
                    "velocity": 0.3858267716535433,
                    "duration": 0.0576236666666432
                },
                {
                    "name": "F5",
                    "midi": 77,
                    "time": 258.96075800000176,
                    "velocity": 0.4094488188976378,
                    "duration": 0.2593064999999797
                },
                {
                    "name": "G5",
                    "midi": 79,
                    "time": 259.22006450000174,
                    "velocity": 0.3858267716535433,
                    "duration": 0.08643549999999323
                },
                {
                    "name": "E5",
                    "midi": 76,
                    "time": 259.30650000000173,
                    "velocity": 0.44881889763779526,
                    "duration": 0.17287099999998645
                },
                {
                    "name": "F5",
                    "midi": 77,
                    "time": 259.4793710000017,
                    "velocity": 0.44881889763779526,
                    "duration": 0.0576236666666432
                },
                {
                    "name": "E5",
                    "midi": 76,
                    "time": 259.53699466666836,
                    "velocity": 0.3937007874015748,
                    "duration": 0.0576236666666432
                },
                {
                    "name": "D5",
                    "midi": 74,
                    "time": 259.594618333335,
                    "velocity": 0.3937007874015748,
                    "duration": 0.0576236666666432
                },
                {
                    "name": "E5",
                    "midi": 76,
                    "time": 259.65224200000165,
                    "velocity": 0.44881889763779526,
                    "duration": 0.2593064999999797
                },
                {
                    "name": "F5",
                    "midi": 77,
                    "time": 259.91154850000163,
                    "velocity": 0.41732283464566927,
                    "duration": 0.08643549999999323
                },
                {
                    "name": "D5",
                    "midi": 74,
                    "time": 259.9979840000016,
                    "velocity": 0.44881889763779526,
                    "duration": 0.17287099999998645
                },
                {
                    "name": "E5",
                    "midi": 76,
                    "time": 260.1708550000016,
                    "velocity": 0.48031496062992124,
                    "duration": 0.0576236666666432
                },
                {
                    "name": "D5",
                    "midi": 74,
                    "time": 260.22847866666825,
                    "velocity": 0.41732283464566927,
                    "duration": 0.0576236666666432
                },
                {
                    "name": "C5",
                    "midi": 72,
                    "time": 260.2861023333349,
                    "velocity": 0.41732283464566927,
                    "duration": 0.0576236666666432
                },
                {
                    "name": "D5",
                    "midi": 74,
                    "time": 260.34372600000154,
                    "velocity": 0.41732283464566927,
                    "duration": 0.2593064999999797
                },
                {
                    "name": "E5",
                    "midi": 76,
                    "time": 260.6030325000015,
                    "velocity": 0.4330708661417323,
                    "duration": 0.08643549999999323
                },
                {
                    "name": "C5",
                    "midi": 72,
                    "time": 260.6894680000015,
                    "velocity": 0.5118110236220472,
                    "duration": 0.17287099999998645
                },
                {
                    "name": "D5",
                    "midi": 74,
                    "time": 260.8623390000015,
                    "velocity": 0.48031496062992124,
                    "duration": 0.0576236666666432
                },
                {
                    "name": "C5",
                    "midi": 72,
                    "time": 260.91996266666814,
                    "velocity": 0.4330708661417323,
                    "duration": 0.0576236666666432
                },
                {
                    "name": "B4",
                    "midi": 71,
                    "time": 260.9775863333348,
                    "velocity": 0.4409448818897638,
                    "duration": 0.0576236666666432
                },
                {
                    "name": "C5",
                    "midi": 72,
                    "time": 261.0352100000014,
                    "velocity": 0.44881889763779526,
                    "duration": 0.2593064999999797
                },
                {
                    "name": "D5",
                    "midi": 74,
                    "time": 261.2945165000014,
                    "velocity": 0.48031496062992124,
                    "duration": 0.08643549999999323
                },
                {
                    "name": "B4",
                    "midi": 71,
                    "time": 261.3809520000014,
                    "velocity": 0.5826771653543307,
                    "duration": 0.3457419999999729
                },
                {
                    "name": "G4",
                    "midi": 67,
                    "time": 261.98600050000135,
                    "velocity": 0.5354330708661418,
                    "duration": 0.08643549999999323
                },
                {
                    "name": "B4",
                    "midi": 71,
                    "time": 262.07243600000135,
                    "velocity": 0.6220472440944882,
                    "duration": 0.2593064999999797
                },
                {
                    "name": "G4",
                    "midi": 67,
                    "time": 262.3317425000013,
                    "velocity": 0.5354330708661418,
                    "duration": 0.08643549999999323
                },
                {
                    "name": "D5",
                    "midi": 74,
                    "time": 262.4181780000013,
                    "velocity": 0.5826771653543307,
                    "duration": 0.2593064999999797
                },
                {
                    "name": "B4",
                    "midi": 71,
                    "time": 262.6774845000013,
                    "velocity": 0.5354330708661418,
                    "duration": 0.08643549999999323
                },
                {
                    "name": "G5",
                    "midi": 79,
                    "time": 262.7639200000013,
                    "velocity": 0.6771653543307087,
                    "duration": 0.3457419999999729
                },
                {
                    "name": "G3",
                    "midi": 55,
                    "time": 263.36896850000124,
                    "velocity": 0.5196850393700787,
                    "duration": 0.08643549999999323
                },
                {
                    "name": "B3",
                    "midi": 59,
                    "time": 263.45540400000124,
                    "velocity": 0.6062992125984252,
                    "duration": 0.11524733333334325
                },
                {
                    "name": "G3",
                    "midi": 55,
                    "time": 263.5706513333346,
                    "velocity": 0.5433070866141733,
                    "duration": 0.11524733333334325
                },
                {
                    "name": "B3",
                    "midi": 59,
                    "time": 263.6858986666679,
                    "velocity": 0.5433070866141733,
                    "duration": 0.11524733333334325
                },
                {
                    "name": "D4",
                    "midi": 62,
                    "time": 263.80114600000127,
                    "velocity": 0.6299212598425197,
                    "duration": 0.11524733333334325
                },
                {
                    "name": "B3",
                    "midi": 59,
                    "time": 263.9163933333346,
                    "velocity": 0.5511811023622047,
                    "duration": 0.11524733333334325
                },
                {
                    "name": "D4",
                    "midi": 62,
                    "time": 264.03164066666795,
                    "velocity": 0.5511811023622047,
                    "duration": 0.11524733333334325
                },
                {
                    "name": "G4",
                    "midi": 67,
                    "time": 264.1468880000013,
                    "velocity": 0.6614173228346457,
                    "duration": 0.3457419999999729
                },
                {
                    "name": "G2",
                    "midi": 43,
                    "time": 264.83837200000124,
                    "velocity": 0.7480314960629921,
                    "duration": 0.5186130000000162
                },
                {
                    "name": "G2",
                    "midi": 43,
                    "time": 265.35698500000126,
                    "velocity": 0.7007874015748031,
                    "duration": 0.17287099999998645
                },
                {
                    "name": "G2",
                    "midi": 43,
                    "time": 265.52985600000125,
                    "velocity": 0.7637795275590551,
                    "duration": 0.3457419999999729
                },
                {
                    "name": "A4",
                    "midi": 69,
                    "time": 267.9500500000012,
                    "velocity": 0.44881889763779526,
                    "duration": 0.08643549999999323
                },
                {
                    "name": "G4",
                    "midi": 67,
                    "time": 268.0364855000012,
                    "velocity": 0.3937007874015748,
                    "duration": 0.08643549999999323
                },
                {
                    "name": "F#4",
                    "midi": 66,
                    "time": 268.1229210000012,
                    "velocity": 0.3937007874015748,
                    "duration": 0.08643549999999323
                },
                {
                    "name": "G4",
                    "midi": 67,
                    "time": 268.2093565000012,
                    "velocity": 0.3937007874015748,
                    "duration": 0.08643549999999323
                },
                {
                    "name": "C5",
                    "midi": 72,
                    "time": 268.2957920000012,
                    "velocity": 0.49606299212598426,
                    "duration": 0.08643549999999323
                },
                {
                    "name": "C5",
                    "midi": 72,
                    "time": 268.6415340000012,
                    "velocity": 0.41732283464566927,
                    "duration": 0.08643549999999323
                },
                {
                    "name": "A4",
                    "midi": 69,
                    "time": 269.3330180000012,
                    "velocity": 0.47244094488188976,
                    "duration": 0.08643549999999323
                },
                {
                    "name": "G4",
                    "midi": 67,
                    "time": 269.41945350000117,
                    "velocity": 0.41732283464566927,
                    "duration": 0.08643549999999323
                },
                {
                    "name": "F#4",
                    "midi": 66,
                    "time": 269.50588900000116,
                    "velocity": 0.41732283464566927,
                    "duration": 0.08643549999999323
                },
                {
                    "name": "G4",
                    "midi": 67,
                    "time": 269.59232450000115,
                    "velocity": 0.41732283464566927,
                    "duration": 0.08643549999999323
                },
                {
                    "name": "C5",
                    "midi": 72,
                    "time": 269.67876000000115,
                    "velocity": 0.5354330708661418,
                    "duration": 0.08643549999999323
                },
                {
                    "name": "C5",
                    "midi": 72,
                    "time": 270.0245020000011,
                    "velocity": 0.44881889763779526,
                    "duration": 0.08643549999999323
                },
                {
                    "name": "A4",
                    "midi": 69,
                    "time": 270.7159860000011,
                    "velocity": 0.5039370078740157,
                    "duration": 0.08643549999999323
                },
                {
                    "name": "G4",
                    "midi": 67,
                    "time": 270.8024215000011,
                    "velocity": 0.44881889763779526,
                    "duration": 0.08643549999999323
                },
                {
                    "name": "F#4",
                    "midi": 66,
                    "time": 270.8888570000011,
                    "velocity": 0.44881889763779526,
                    "duration": 0.08643549999999323
                },
                {
                    "name": "G4",
                    "midi": 67,
                    "time": 270.9752925000011,
                    "velocity": 0.44881889763779526,
                    "duration": 0.08643549999999323
                },
                {
                    "name": "C5",
                    "midi": 72,
                    "time": 271.0617280000011,
                    "velocity": 0.5748031496062992,
                    "duration": 0.3457419999999729
                },
                {
                    "name": "D5",
                    "midi": 74,
                    "time": 271.40747000000107,
                    "velocity": 0.6141732283464567,
                    "duration": 0.08643549999999323
                },
                {
                    "name": "C5",
                    "midi": 72,
                    "time": 271.49390550000106,
                    "velocity": 0.5118110236220472,
                    "duration": 0.08643549999999323
                },
                {
                    "name": "B4",
                    "midi": 71,
                    "time": 271.58034100000106,
                    "velocity": 0.5196850393700787,
                    "duration": 0.08643549999999323
                },
                {
                    "name": "C5",
                    "midi": 72,
                    "time": 271.66677650000105,
                    "velocity": 0.5196850393700787,
                    "duration": 0.08643549999999323
                },
                {
                    "name": "D5",
                    "midi": 74,
                    "time": 271.75321200000104,
                    "velocity": 0.6299212598425197,
                    "duration": 0.3457419999999729
                },
                {
                    "name": "E5",
                    "midi": 76,
                    "time": 272.098954000001,
                    "velocity": 0.6456692913385826,
                    "duration": 0.08643549999999323
                },
                {
                    "name": "D5",
                    "midi": 74,
                    "time": 272.185389500001,
                    "velocity": 0.5354330708661418,
                    "duration": 0.08643549999999323
                },
                {
                    "name": "C5",
                    "midi": 72,
                    "time": 272.271825000001,
                    "velocity": 0.5354330708661418,
                    "duration": 0.08643549999999323
                },
                {
                    "name": "D5",
                    "midi": 74,
                    "time": 272.358260500001,
                    "velocity": 0.5433070866141733,
                    "duration": 0.08643549999999323
                },
                {
                    "name": "E5",
                    "midi": 76,
                    "time": 272.444696000001,
                    "velocity": 0.6692913385826772,
                    "duration": 0.3457419999999729
                },
                {
                    "name": "F5",
                    "midi": 77,
                    "time": 272.79043800000096,
                    "velocity": 0.6771653543307087,
                    "duration": 0.08643549999999323
                },
                {
                    "name": "E5",
                    "midi": 76,
                    "time": 272.87687350000095,
                    "velocity": 0.5905511811023622,
                    "duration": 0.08643549999999323
                },
                {
                    "name": "D5",
                    "midi": 74,
                    "time": 272.96330900000095,
                    "velocity": 0.5905511811023622,
                    "duration": 0.08643549999999323
                },
                {
                    "name": "E5",
                    "midi": 76,
                    "time": 273.04974450000094,
                    "velocity": 0.5984251968503937,
                    "duration": 0.08643549999999323
                },
                {
                    "name": "F5",
                    "midi": 77,
                    "time": 273.13618000000093,
                    "velocity": 0.6692913385826772,
                    "duration": 0.3457419999999729
                },
                {
                    "name": "G5",
                    "midi": 79,
                    "time": 273.4819220000009,
                    "velocity": 0.6850393700787402,
                    "duration": 0.08643549999999323
                },
                {
                    "name": "F5",
                    "midi": 77,
                    "time": 273.5683575000009,
                    "velocity": 0.5905511811023622,
                    "duration": 0.08643549999999323
                },
                {
                    "name": "E5",
                    "midi": 76,
                    "time": 273.6547930000009,
                    "velocity": 0.6141732283464567,
                    "duration": 0.08643549999999323
                },
                {
                    "name": "F5",
                    "midi": 77,
                    "time": 273.7412285000009,
                    "velocity": 0.5984251968503937,
                    "duration": 0.08643549999999323
                },
                {
                    "name": "G5",
                    "midi": 79,
                    "time": 273.8276640000009,
                    "velocity": 0.7716535433070866,
                    "duration": 1.0372259999999756
                },
                {
                    "name": "G#4",
                    "midi": 68,
                    "time": 274.86489000000086,
                    "velocity": 0.6062992125984252,
                    "duration": 0.3457419999999729
                },
                {
                    "name": "G#5",
                    "midi": 80,
                    "time": 274.86489000000086,
                    "velocity": 0.7244094488188977,
                    "duration": 0.3457419999999729
                },
                {
                    "name": "A4",
                    "midi": 69,
                    "time": 275.2106320000008,
                    "velocity": 0.6456692913385826,
                    "duration": 0.3457419999999729
                },
                {
                    "name": "A5",
                    "midi": 81,
                    "time": 275.2106320000008,
                    "velocity": 0.7637795275590551,
                    "duration": 0.3457419999999729
                },
                {
                    "name": "B4",
                    "midi": 71,
                    "time": 275.5563740000008,
                    "velocity": 0.5590551181102362,
                    "duration": 0.3457419999999729
                },
                {
                    "name": "B5",
                    "midi": 83,
                    "time": 275.5563740000008,
                    "velocity": 0.6614173228346457,
                    "duration": 0.3457419999999729
                },
                {
                    "name": "C6",
                    "midi": 84,
                    "time": 275.9021160000008,
                    "velocity": 0.6929133858267716,
                    "duration": 0.3457419999999729
                },
                {
                    "name": "C5",
                    "midi": 72,
                    "time": 275.9021160000008,
                    "velocity": 0.5905511811023622,
                    "duration": 0.3457419999999729
                },
                {
                    "name": "C#6",
                    "midi": 85,
                    "time": 276.24785800000075,
                    "velocity": 0.7086614173228346,
                    "duration": 0.3457419999999729
                },
                {
                    "name": "C#5",
                    "midi": 73,
                    "time": 276.24785800000075,
                    "velocity": 0.5984251968503937,
                    "duration": 0.3457419999999729
                },
                {
                    "name": "D5",
                    "midi": 74,
                    "time": 276.5936000000007,
                    "velocity": 0.6377952755905512,
                    "duration": 0.3457419999999729
                },
                {
                    "name": "D6",
                    "midi": 86,
                    "time": 276.5936000000007,
                    "velocity": 0.7559055118110236,
                    "duration": 0.3457419999999729
                },
                {
                    "name": "E5",
                    "midi": 76,
                    "time": 276.9393420000007,
                    "velocity": 0.6377952755905512,
                    "duration": 0.3457419999999729
                },
                {
                    "name": "E6",
                    "midi": 88,
                    "time": 276.9393420000007,
                    "velocity": 0.7559055118110236,
                    "duration": 0.3457419999999729
                },
                {
                    "name": "F5",
                    "midi": 77,
                    "time": 277.28508400000067,
                    "velocity": 0.6299212598425197,
                    "duration": 0.6914839999999458
                },
                {
                    "name": "F6",
                    "midi": 89,
                    "time": 277.28508400000067,
                    "velocity": 0.7480314960629921,
                    "duration": 0.3457419999999729
                },
                {
                    "name": "D6",
                    "midi": 86,
                    "time": 277.63082600000064,
                    "velocity": 0.7322834645669292,
                    "duration": 0.3457419999999729
                },
                {
                    "name": "C6",
                    "midi": 84,
                    "time": 277.9765680000006,
                    "velocity": 0.5511811023622047,
                    "duration": 0.648266250000006
                },
                {
                    "name": "G5",
                    "midi": 79,
                    "time": 277.9765680000006,
                    "velocity": 0.4645669291338583,
                    "duration": 0.648266250000006
                },
                {
                    "name": "E6",
                    "midi": 88,
                    "time": 278.6248342500006,
                    "velocity": 0.4566929133858268,
                    "duration": 0.04321774999999661
                },
                {
                    "name": "D6",
                    "midi": 86,
                    "time": 278.6680520000006,
                    "velocity": 0.5196850393700787,
                    "duration": 0.5186130000000162
                },
                {
                    "name": "B5",
                    "midi": 83,
                    "time": 278.6680520000006,
                    "velocity": 0.5196850393700787,
                    "duration": 0.6914840000000027
                },
                {
                    "name": "C6",
                    "midi": 84,
                    "time": 279.18666500000063,
                    "velocity": 0.4409448818897638,
                    "duration": 0.17287099999998645
                },
                {
                    "name": "C6",
                    "midi": 84,
                    "time": 279.3595360000006,
                    "velocity": 0.5196850393700787,
                    "duration": 0.3457419999999729
                },
                {
                    "name": "E5",
                    "midi": 76,
                    "time": 280.3967620000006,
                    "velocity": 0.44881889763779526,
                    "duration": 0.11524733333334325
                },
                {
                    "name": "G#5",
                    "midi": 80,
                    "time": 280.51200933333394,
                    "velocity": 0.48031496062992124,
                    "duration": 0.11524733333334325
                },
                {
                    "name": "A5",
                    "midi": 81,
                    "time": 280.6272566666673,
                    "velocity": 0.48031496062992124,
                    "duration": 0.11524733333334325
                },
                {
                    "name": "G5",
                    "midi": 79,
                    "time": 280.7425040000006,
                    "velocity": 0.4566929133858268,
                    "duration": 0.08643549999999323
                },
                {
                    "name": "G5",
                    "midi": 79,
                    "time": 281.0882460000006,
                    "velocity": 0.3858267716535433,
                    "duration": 0.08643549999999323
                },
                {
                    "name": "G5",
                    "midi": 79,
                    "time": 281.43398800000057,
                    "velocity": 0.3858267716535433,
                    "duration": 0.08643549999999323
                },
                {
                    "name": "C5",
                    "midi": 72,
                    "time": 281.77973000000054,
                    "velocity": 0.44881889763779526,
                    "duration": 0.11524733333334325
                },
                {
                    "name": "E5",
                    "midi": 76,
                    "time": 281.8949773333339,
                    "velocity": 0.3464566929133858,
                    "duration": 0.11524733333334325
                },
                {
                    "name": "F5",
                    "midi": 77,
                    "time": 282.0102246666672,
                    "velocity": 0.3464566929133858,
                    "duration": 0.11524733333334325
                },
                {
                    "name": "E5",
                    "midi": 76,
                    "time": 282.12547200000057,
                    "velocity": 0.4566929133858268,
                    "duration": 0.08643549999999323
                },
                {
                    "name": "E5",
                    "midi": 76,
                    "time": 282.47121400000054,
                    "velocity": 0.3858267716535433,
                    "duration": 0.08643549999999323
                },
                {
                    "name": "E5",
                    "midi": 76,
                    "time": 282.8169560000005,
                    "velocity": 0.3858267716535433,
                    "duration": 0.08643549999999323
                },
                {
                    "name": "A4",
                    "midi": 69,
                    "time": 283.1626980000005,
                    "velocity": 0.44881889763779526,
                    "duration": 0.11524733333334325
                },
                {
                    "name": "C#5",
                    "midi": 73,
                    "time": 283.27794533333383,
                    "velocity": 0.3464566929133858,
                    "duration": 0.11524733333334325
                },
                {
                    "name": "D5",
                    "midi": 74,
                    "time": 283.3931926666672,
                    "velocity": 0.3464566929133858,
                    "duration": 0.11524733333334325
                },
                {
                    "name": "C5",
                    "midi": 72,
                    "time": 283.5084400000005,
                    "velocity": 0.4566929133858268,
                    "duration": 0.08643549999999323
                },
                {
                    "name": "C5",
                    "midi": 72,
                    "time": 283.8541820000005,
                    "velocity": 0.3858267716535433,
                    "duration": 0.08643549999999323
                },
                {
                    "name": "C5",
                    "midi": 72,
                    "time": 284.19992400000046,
                    "velocity": 0.3858267716535433,
                    "duration": 0.08643549999999323
                },
                {
                    "name": "E5",
                    "midi": 76,
                    "time": 284.54566600000044,
                    "velocity": 0.48031496062992124,
                    "duration": 0.2593064999999797
                },
                {
                    "name": "C5",
                    "midi": 72,
                    "time": 284.8049725000004,
                    "velocity": 0.4251968503937008,
                    "duration": 0.08643549999999323
                },
                {
                    "name": "A4",
                    "midi": 69,
                    "time": 284.8914080000004,
                    "velocity": 0.4881889763779528,
                    "duration": 0.08643549999999323
                },
                {
                    "name": "F5",
                    "midi": 77,
                    "time": 285.2371500000004,
                    "velocity": 0.48031496062992124,
                    "duration": 0.2593064999999797
                },
                {
                    "name": "D5",
                    "midi": 74,
                    "time": 285.49645650000036,
                    "velocity": 0.41732283464566927,
                    "duration": 0.08643549999999323
                },
                {
                    "name": "B4",
                    "midi": 71,
                    "time": 285.58289200000036,
                    "velocity": 0.48031496062992124,
                    "duration": 0.08643549999999323
                },
                {
                    "name": "D5",
                    "midi": 74,
                    "time": 285.92863400000033,
                    "velocity": 0.47244094488188976,
                    "duration": 0.2593064999999797
                },
                {
                    "name": "B4",
                    "midi": 71,
                    "time": 286.1879405000003,
                    "velocity": 0.4251968503937008,
                    "duration": 0.08643549999999323
                },
                {
                    "name": "C5",
                    "midi": 72,
                    "time": 286.2743760000003,
                    "velocity": 0.48031496062992124,
                    "duration": 0.08643549999999323
                },
                {
                    "name": "E5",
                    "midi": 76,
                    "time": 287.3116020000003,
                    "velocity": 0.6929133858267716,
                    "duration": 0.11524733333334325
                },
                {
                    "name": "G#5",
                    "midi": 80,
                    "time": 287.4268493333336,
                    "velocity": 0.48031496062992124,
                    "duration": 0.11524733333334325
                },
                {
                    "name": "A5",
                    "midi": 81,
                    "time": 287.54209666666696,
                    "velocity": 0.48031496062992124,
                    "duration": 0.11524733333334325
                },
                {
                    "name": "D5",
                    "midi": 74,
                    "time": 287.6573440000003,
                    "velocity": 0.5669291338582677,
                    "duration": 0.11524733333334325
                },
                {
                    "name": "F#5",
                    "midi": 78,
                    "time": 287.77259133333365,
                    "velocity": 0.3700787401574803,
                    "duration": 0.11524733333334325
                },
                {
                    "name": "G5",
                    "midi": 79,
                    "time": 287.887838666667,
                    "velocity": 0.3700787401574803,
                    "duration": 0.11524733333334325
                },
                {
                    "name": "D5",
                    "midi": 74,
                    "time": 288.00308600000034,
                    "velocity": 0.5196850393700787,
                    "duration": 0.11524733333334325
                },
                {
                    "name": "F#5",
                    "midi": 78,
                    "time": 288.1183333333337,
                    "velocity": 0.3700787401574803,
                    "duration": 0.11524733333334325
                },
                {
                    "name": "G5",
                    "midi": 79,
                    "time": 288.233580666667,
                    "velocity": 0.3700787401574803,
                    "duration": 0.11524733333334325
                },
                {
                    "name": "D5",
                    "midi": 74,
                    "time": 288.34882800000037,
                    "velocity": 0.5196850393700787,
                    "duration": 0.11524733333334325
                },
                {
                    "name": "F#5",
                    "midi": 78,
                    "time": 288.4640753333337,
                    "velocity": 0.4015748031496063,
                    "duration": 0.11524733333334325
                },
                {
                    "name": "G5",
                    "midi": 79,
                    "time": 288.57932266666705,
                    "velocity": 0.4094488188976378,
                    "duration": 0.11524733333334325
                },
                {
                    "name": "E5",
                    "midi": 76,
                    "time": 288.6945700000004,
                    "velocity": 0.6929133858267716,
                    "duration": 0.11524733333334325
                },
                {
                    "name": "G#5",
                    "midi": 80,
                    "time": 288.80981733333374,
                    "velocity": 0.48031496062992124,
                    "duration": 0.11524733333334325
                },
                {
                    "name": "A5",
                    "midi": 81,
                    "time": 288.9250646666671,
                    "velocity": 0.48031496062992124,
                    "duration": 0.11524733333334325
                },
                {
                    "name": "D5",
                    "midi": 74,
                    "time": 289.0403120000004,
                    "velocity": 0.5433070866141733,
                    "duration": 0.11524733333334325
                },
                {
                    "name": "F#5",
                    "midi": 78,
                    "time": 289.15555933333377,
                    "velocity": 0.4251968503937008,
                    "duration": 0.11524733333334325
                },
                {
                    "name": "G5",
                    "midi": 79,
                    "time": 289.2708066666671,
                    "velocity": 0.4330708661417323,
                    "duration": 0.11524733333334325
                },
                {
                    "name": "D5",
                    "midi": 74,
                    "time": 289.38605400000046,
                    "velocity": 0.5511811023622047,
                    "duration": 0.11524733333334325
                },
                {
                    "name": "F#5",
                    "midi": 78,
                    "time": 289.5013013333338,
                    "velocity": 0.3700787401574803,
                    "duration": 0.11524733333334325
                },
                {
                    "name": "G5",
                    "midi": 79,
                    "time": 289.61654866666714,
                    "velocity": 0.3700787401574803,
                    "duration": 0.11524733333334325
                },
                {
                    "name": "D5",
                    "midi": 74,
                    "time": 289.7317960000005,
                    "velocity": 0.5275590551181102,
                    "duration": 0.11524733333334325
                },
                {
                    "name": "F#5",
                    "midi": 78,
                    "time": 289.84704333333383,
                    "velocity": 0.36220472440944884,
                    "duration": 0.11524733333334325
                },
                {
                    "name": "G5",
                    "midi": 79,
                    "time": 289.9622906666672,
                    "velocity": 0.3858267716535433,
                    "duration": 0.11524733333334325
                },
                {
                    "name": "C5",
                    "midi": 72,
                    "time": 290.0775380000005,
                    "velocity": 0.5039370078740157,
                    "duration": 0.11524733333334325
                },
                {
                    "name": "E5",
                    "midi": 76,
                    "time": 290.19278533333386,
                    "velocity": 0.3937007874015748,
                    "duration": 0.11524733333334325
                },
                {
                    "name": "F5",
                    "midi": 77,
                    "time": 290.3080326666672,
                    "velocity": 0.3937007874015748,
                    "duration": 0.11524733333334325
                },
                {
                    "name": "B4",
                    "midi": 71,
                    "time": 290.42328000000055,
                    "velocity": 0.5118110236220472,
                    "duration": 0.11524733333334325
                },
                {
                    "name": "D#5",
                    "midi": 75,
                    "time": 290.5385273333339,
                    "velocity": 0.3937007874015748,
                    "duration": 0.11524733333334325
                },
                {
                    "name": "E5",
                    "midi": 76,
                    "time": 290.65377466666723,
                    "velocity": 0.3937007874015748,
                    "duration": 0.11524733333334325
                },
                {
                    "name": "B4",
                    "midi": 71,
                    "time": 290.7690220000006,
                    "velocity": 0.5196850393700787,
                    "duration": 0.11524733333334325
                },
                {
                    "name": "D#5",
                    "midi": 75,
                    "time": 290.8842693333339,
                    "velocity": 0.36220472440944884,
                    "duration": 0.11524733333334325
                },
                {
                    "name": "E5",
                    "midi": 76,
                    "time": 290.99951666666726,
                    "velocity": 0.36220472440944884,
                    "duration": 0.11524733333334325
                },
                {
                    "name": "B4",
                    "midi": 71,
                    "time": 291.1147640000006,
                    "velocity": 0.5039370078740157,
                    "duration": 0.11524733333334325
                },
                {
                    "name": "D#5",
                    "midi": 75,
                    "time": 291.23001133333395,
                    "velocity": 0.36220472440944884,
                    "duration": 0.11524733333334325
                },
                {
                    "name": "E5",
                    "midi": 76,
                    "time": 291.3452586666673,
                    "velocity": 0.36220472440944884,
                    "duration": 0.11524733333334325
                },
                {
                    "name": "C5",
                    "midi": 72,
                    "time": 291.46050600000063,
                    "velocity": 0.5905511811023622,
                    "duration": 0.11524733333334325
                },
                {
                    "name": "E5",
                    "midi": 76,
                    "time": 291.575753333334,
                    "velocity": 0.4251968503937008,
                    "duration": 0.11524733333334325
                },
                {
                    "name": "F5",
                    "midi": 77,
                    "time": 291.6910006666673,
                    "velocity": 0.4251968503937008,
                    "duration": 0.11524733333334325
                },
                {
                    "name": "B4",
                    "midi": 71,
                    "time": 291.80624800000066,
                    "velocity": 0.5433070866141733,
                    "duration": 0.11524733333334325
                },
                {
                    "name": "D#5",
                    "midi": 75,
                    "time": 291.921495333334,
                    "velocity": 0.3937007874015748,
                    "duration": 0.11524733333334325
                },
                {
                    "name": "E5",
                    "midi": 76,
                    "time": 292.03674266666735,
                    "velocity": 0.3937007874015748,
                    "duration": 0.11524733333334325
                },
                {
                    "name": "B4",
                    "midi": 71,
                    "time": 292.1519900000007,
                    "velocity": 0.5196850393700787,
                    "duration": 0.11524733333334325
                },
                {
                    "name": "D#5",
                    "midi": 75,
                    "time": 292.26723733333404,
                    "velocity": 0.3700787401574803,
                    "duration": 0.11524733333334325
                },
                {
                    "name": "E5",
                    "midi": 76,
                    "time": 292.3824846666674,
                    "velocity": 0.3700787401574803,
                    "duration": 0.11524733333334325
                },
                {
                    "name": "B4",
                    "midi": 71,
                    "time": 292.4977320000007,
                    "velocity": 0.5039370078740157,
                    "duration": 0.11524733333334325
                },
                {
                    "name": "D#5",
                    "midi": 75,
                    "time": 292.61297933333407,
                    "velocity": 0.3700787401574803,
                    "duration": 0.11524733333334325
                },
                {
                    "name": "E5",
                    "midi": 76,
                    "time": 292.7282266666674,
                    "velocity": 0.3779527559055118,
                    "duration": 0.11524733333334325
                },
                {
                    "name": "A4",
                    "midi": 69,
                    "time": 292.84347400000075,
                    "velocity": 0.5511811023622047,
                    "duration": 0.11524733333334325
                },
                {
                    "name": "C#5",
                    "midi": 73,
                    "time": 292.9587213333341,
                    "velocity": 0.4251968503937008,
                    "duration": 0.11524733333334325
                },
                {
                    "name": "D5",
                    "midi": 74,
                    "time": 293.07396866666744,
                    "velocity": 0.4251968503937008,
                    "duration": 0.11524733333334325
                },
                {
                    "name": "G4",
                    "midi": 67,
                    "time": 293.1892160000008,
                    "velocity": 0.4645669291338583,
                    "duration": 0.11524733333334325
                },
                {
                    "name": "B4",
                    "midi": 71,
                    "time": 293.3044633333341,
                    "velocity": 0.3779527559055118,
                    "duration": 0.11524733333334325
                },
                {
                    "name": "C5",
                    "midi": 72,
                    "time": 293.41971066666747,
                    "velocity": 0.36220472440944884,
                    "duration": 0.11524733333334325
                },
                {
                    "name": "G4",
                    "midi": 67,
                    "time": 293.5349580000008,
                    "velocity": 0.48031496062992124,
                    "duration": 0.11524733333334325
                },
                {
                    "name": "B4",
                    "midi": 71,
                    "time": 293.65020533333416,
                    "velocity": 0.3700787401574803,
                    "duration": 0.11524733333334325
                },
                {
                    "name": "C5",
                    "midi": 72,
                    "time": 293.7654526666675,
                    "velocity": 0.3937007874015748,
                    "duration": 0.11524733333334325
                },
                {
                    "name": "G4",
                    "midi": 67,
                    "time": 293.88070000000084,
                    "velocity": 0.4881889763779528,
                    "duration": 0.11524733333334325
                },
                {
                    "name": "B4",
                    "midi": 71,
                    "time": 293.9959473333342,
                    "velocity": 0.3858267716535433,
                    "duration": 0.11524733333334325
                },
                {
                    "name": "C5",
                    "midi": 72,
                    "time": 294.11119466666753,
                    "velocity": 0.3858267716535433,
                    "duration": 0.11524733333334325
                },
                {
                    "name": "A4",
                    "midi": 69,
                    "time": 294.2264420000009,
                    "velocity": 0.5511811023622047,
                    "duration": 0.11524733333334325
                },
                {
                    "name": "C#5",
                    "midi": 73,
                    "time": 294.3416893333342,
                    "velocity": 0.4251968503937008,
                    "duration": 0.11524733333334325
                },
                {
                    "name": "D5",
                    "midi": 74,
                    "time": 294.45693666666756,
                    "velocity": 0.4251968503937008,
                    "duration": 0.11524733333334325
                },
                {
                    "name": "G4",
                    "midi": 67,
                    "time": 294.5721840000009,
                    "velocity": 0.4645669291338583,
                    "duration": 0.11524733333334325
                },
                {
                    "name": "B4",
                    "midi": 71,
                    "time": 294.68743133333425,
                    "velocity": 0.3779527559055118,
                    "duration": 0.11524733333334325
                },
                {
                    "name": "C5",
                    "midi": 72,
                    "time": 294.8026786666676,
                    "velocity": 0.36220472440944884,
                    "duration": 0.11524733333334325
                },
                {
                    "name": "G4",
                    "midi": 67,
                    "time": 294.91792600000093,
                    "velocity": 0.48031496062992124,
                    "duration": 0.11524733333334325
                },
                {
                    "name": "B4",
                    "midi": 71,
                    "time": 295.0331733333343,
                    "velocity": 0.3700787401574803,
                    "duration": 0.11524733333334325
                },
                {
                    "name": "C5",
                    "midi": 72,
                    "time": 295.1484206666676,
                    "velocity": 0.3937007874015748,
                    "duration": 0.11524733333334325
                },
                {
                    "name": "G4",
                    "midi": 67,
                    "time": 295.26366800000096,
                    "velocity": 0.4881889763779528,
                    "duration": 0.11524733333334325
                },
                {
                    "name": "B4",
                    "midi": 71,
                    "time": 295.3789153333343,
                    "velocity": 0.3858267716535433,
                    "duration": 0.11524733333334325
                },
                {
                    "name": "C5",
                    "midi": 72,
                    "time": 295.49416266666765,
                    "velocity": 0.3858267716535433,
                    "duration": 0.11524733333334325
                },
                {
                    "name": "A4",
                    "midi": 69,
                    "time": 295.609410000001,
                    "velocity": 0.5511811023622047,
                    "duration": 0.11524733333334325
                },
                {
                    "name": "C#5",
                    "midi": 73,
                    "time": 295.72465733333433,
                    "velocity": 0.4251968503937008,
                    "duration": 0.11524733333334325
                },
                {
                    "name": "D5",
                    "midi": 74,
                    "time": 295.8399046666677,
                    "velocity": 0.4251968503937008,
                    "duration": 0.11524733333334325
                },
                {
                    "name": "G4",
                    "midi": 67,
                    "time": 295.955152000001,
                    "velocity": 0.5669291338582677,
                    "duration": 0.11524733333334325
                },
                {
                    "name": "B4",
                    "midi": 71,
                    "time": 296.07039933333436,
                    "velocity": 0.47244094488188976,
                    "duration": 0.11524733333334325
                },
                {
                    "name": "C5",
                    "midi": 72,
                    "time": 296.1856466666677,
                    "velocity": 0.48031496062992124,
                    "duration": 0.11524733333334325
                },
                {
                    "name": "G4",
                    "midi": 67,
                    "time": 296.30089400000105,
                    "velocity": 0.5748031496062992,
                    "duration": 0.11524733333334325
                },
                {
                    "name": "C#5",
                    "midi": 73,
                    "time": 296.4161413333344,
                    "velocity": 0.5118110236220472,
                    "duration": 0.11524733333334325
                },
                {
                    "name": "D5",
                    "midi": 74,
                    "time": 296.53138866666774,
                    "velocity": 0.5118110236220472,
                    "duration": 0.11524733333334325
                },
                {
                    "name": "G4",
                    "midi": 67,
                    "time": 296.6466360000011,
                    "velocity": 0.6299212598425197,
                    "duration": 0.11524733333334325
                },
                {
                    "name": "D#5",
                    "midi": 75,
                    "time": 296.7618833333344,
                    "velocity": 0.5669291338582677,
                    "duration": 0.11524733333334325
                },
                {
                    "name": "E5",
                    "midi": 76,
                    "time": 296.87713066666777,
                    "velocity": 0.5669291338582677,
                    "duration": 0.11524733333334325
                },
                {
                    "name": "G4",
                    "midi": 67,
                    "time": 296.9923780000011,
                    "velocity": 0.6850393700787402,
                    "duration": 0.11524733333334325
                },
                {
                    "name": "E5",
                    "midi": 76,
                    "time": 297.10762533333445,
                    "velocity": 0.6062992125984252,
                    "duration": 0.11524733333334325
                },
                {
                    "name": "F5",
                    "midi": 77,
                    "time": 297.2228726666678,
                    "velocity": 0.6141732283464567,
                    "duration": 0.11524733333334325
                },
                {
                    "name": "G4",
                    "midi": 67,
                    "time": 297.33812000000114,
                    "velocity": 0.6771653543307087,
                    "duration": 0.11524733333334325
                },
                {
                    "name": "F#5",
                    "midi": 78,
                    "time": 297.4533673333345,
                    "velocity": 0.7322834645669292,
                    "duration": 0.11524733333334325
                },
                {
                    "name": "G5",
                    "midi": 79,
                    "time": 297.5686146666678,
                    "velocity": 0.7244094488188977,
                    "duration": 0.11524733333334325
                },
                {
                    "name": "F5",
                    "midi": 77,
                    "time": 297.68386200000117,
                    "velocity": 0.7007874015748031,
                    "duration": 0.11524733333334325
                },
                {
                    "name": "E5",
                    "midi": 76,
                    "time": 297.7991093333345,
                    "velocity": 0.6929133858267716,
                    "duration": 0.11524733333334325
                },
                {
                    "name": "D5",
                    "midi": 74,
                    "time": 297.91435666666786,
                    "velocity": 0.6771653543307087,
                    "duration": 0.11524733333334325
                },
                {
                    "name": "C5",
                    "midi": 72,
                    "time": 298.0296040000012,
                    "velocity": 0.6535433070866141,
                    "duration": 0.11524733333334325
                },
                {
                    "name": "B4",
                    "midi": 71,
                    "time": 298.14485133333454,
                    "velocity": 0.6456692913385826,
                    "duration": 0.11524733333334325
                },
                {
                    "name": "A4",
                    "midi": 69,
                    "time": 298.2600986666679,
                    "velocity": 0.6299212598425197,
                    "duration": 0.11524733333334325
                },
                {
                    "name": "G4",
                    "midi": 67,
                    "time": 298.37534600000123,
                    "velocity": 0.6141732283464567,
                    "duration": 0.11524733333334325
                },
                {
                    "name": "F4",
                    "midi": 65,
                    "time": 298.4905933333346,
                    "velocity": 0.5984251968503937,
                    "duration": 0.11524733333334325
                },
                {
                    "name": "E4",
                    "midi": 64,
                    "time": 298.6058406666679,
                    "velocity": 0.5826771653543307,
                    "duration": 0.11524733333334325
                },
                {
                    "name": "D4",
                    "midi": 62,
                    "time": 298.72108800000126,
                    "velocity": 0.5511811023622047,
                    "duration": 0.11524733333334325
                },
                {
                    "name": "A4",
                    "midi": 69,
                    "time": 298.8363353333346,
                    "velocity": 0.6141732283464567,
                    "duration": 0.11524733333334325
                },
                {
                    "name": "G4",
                    "midi": 67,
                    "time": 298.95158266666795,
                    "velocity": 0.5984251968503937,
                    "duration": 0.11524733333334325
                },
                {
                    "name": "F4",
                    "midi": 65,
                    "time": 299.0668300000013,
                    "velocity": 0.5748031496062992,
                    "duration": 0.11524733333334325
                },
                {
                    "name": "E4",
                    "midi": 64,
                    "time": 299.18207733333463,
                    "velocity": 0.5590551181102362,
                    "duration": 0.11524733333334325
                },
                {
                    "name": "D4",
                    "midi": 62,
                    "time": 299.297324666668,
                    "velocity": 0.5433070866141733,
                    "duration": 0.11524733333334325
                },
                {
                    "name": "C4",
                    "midi": 60,
                    "time": 299.4125720000013,
                    "velocity": 0.6535433070866141,
                    "duration": 0.3457419999999729
                },
                {
                    "name": "B3",
                    "midi": 59,
                    "time": 299.7583140000013,
                    "velocity": 0.5905511811023622,
                    "duration": 0.08643549999999323
                },
                {
                    "name": "C4",
                    "midi": 60,
                    "time": 299.8447495000013,
                    "velocity": 0.5275590551181102,
                    "duration": 0.08643549999999323
                },
                {
                    "name": "B3",
                    "midi": 59,
                    "time": 299.9311850000013,
                    "velocity": 0.5905511811023622,
                    "duration": 0.17287099999998645
                },
                {
                    "name": "F#5",
                    "midi": 78,
                    "time": 300.2193033333346,
                    "velocity": 0.6141732283464567,
                    "duration": 0.11524733333334325
                },
                {
                    "name": "G5",
                    "midi": 79,
                    "time": 300.33455066666795,
                    "velocity": 0.7007874015748031,
                    "duration": 0.11524733333334325
                },
                {
                    "name": "F5",
                    "midi": 77,
                    "time": 300.4497980000013,
                    "velocity": 0.6614173228346457,
                    "duration": 0.11524733333334325
                },
                {
                    "name": "E5",
                    "midi": 76,
                    "time": 300.56504533333464,
                    "velocity": 0.6535433070866141,
                    "duration": 0.11524733333334325
                },
                {
                    "name": "D5",
                    "midi": 74,
                    "time": 300.680292666668,
                    "velocity": 0.6377952755905512,
                    "duration": 0.11524733333334325
                },
                {
                    "name": "C5",
                    "midi": 72,
                    "time": 300.7955400000013,
                    "velocity": 0.6299212598425197,
                    "duration": 0.11524733333334325
                },
                {
                    "name": "B4",
                    "midi": 71,
                    "time": 300.91078733333467,
                    "velocity": 0.6141732283464567,
                    "duration": 0.11524733333334325
                },
                {
                    "name": "A4",
                    "midi": 69,
                    "time": 301.026034666668,
                    "velocity": 0.6062992125984252,
                    "duration": 0.11524733333334325
                },
                {
                    "name": "G4",
                    "midi": 67,
                    "time": 301.14128200000135,
                    "velocity": 0.6220472440944882,
                    "duration": 0.11524733333334325
                },
                {
                    "name": "F4",
                    "midi": 65,
                    "time": 301.2565293333347,
                    "velocity": 0.6377952755905512,
                    "duration": 0.11524733333334325
                },
                {
                    "name": "E4",
                    "midi": 64,
                    "time": 301.37177666666804,
                    "velocity": 0.6535433070866141,
                    "duration": 0.11524733333334325
                },
                {
                    "name": "D4",
                    "midi": 62,
                    "time": 301.4870240000014,
                    "velocity": 0.6771653543307087,
                    "duration": 0.6914840000000027
                },
                {
                    "name": "A5",
                    "midi": 81,
                    "time": 302.1785080000014,
                    "velocity": 0.6456692913385826,
                    "duration": 0.6914840000000027
                },
                {
                    "name": "C5",
                    "midi": 72,
                    "time": 302.1785080000014,
                    "velocity": 0.5433070866141733,
                    "duration": 0.6914840000000027
                },
                {
                    "name": "D#5",
                    "midi": 75,
                    "time": 302.1785080000014,
                    "velocity": 0.5433070866141733,
                    "duration": 0.6914840000000027
                },
                {
                    "name": "F#5",
                    "midi": 78,
                    "time": 302.1785080000014,
                    "velocity": 0.5433070866141733,
                    "duration": 0.6914840000000027
                },
                {
                    "name": "C5",
                    "midi": 72,
                    "time": 303.90721800000136,
                    "velocity": 0.44881889763779526,
                    "duration": 0.08643549999999323
                },
                {
                    "name": "D5",
                    "midi": 74,
                    "time": 303.99365350000136,
                    "velocity": 0.47244094488188976,
                    "duration": 0.08643549999999323
                },
                {
                    "name": "E5",
                    "midi": 76,
                    "time": 304.08008900000135,
                    "velocity": 0.4881889763779528,
                    "duration": 0.08643549999999323
                },
                {
                    "name": "F5",
                    "midi": 77,
                    "time": 304.16652450000134,
                    "velocity": 0.5118110236220472,
                    "duration": 0.08643549999999323
                },
                {
                    "name": "G5",
                    "midi": 79,
                    "time": 304.25296000000134,
                    "velocity": 0.5905511811023622,
                    "duration": 0.08643549999999323
                },
                {
                    "name": "G5",
                    "midi": 79,
                    "time": 304.5987020000013,
                    "velocity": 0.5039370078740157,
                    "duration": 0.08643549999999323
                },
                {
                    "name": "G5",
                    "midi": 79,
                    "time": 304.9444440000013,
                    "velocity": 0.5039370078740157,
                    "duration": 0.08643549999999323
                },
                {
                    "name": "B5",
                    "midi": 83,
                    "time": 305.24696825000126,
                    "velocity": 0.6141732283464567,
                    "duration": 0.04321774999999661
                },
                {
                    "name": "C6",
                    "midi": 84,
                    "time": 305.29018600000126,
                    "velocity": 0.7244094488188977,
                    "duration": 0.3457419999999729
                },
                {
                    "name": "G5",
                    "midi": 79,
                    "time": 305.63592800000123,
                    "velocity": 0.6692913385826772,
                    "duration": 0.08643549999999323
                },
                {
                    "name": "G5",
                    "midi": 79,
                    "time": 305.9816700000012,
                    "velocity": 0.5275590551181102,
                    "duration": 0.08643549999999323
                },
                {
                    "name": "G5",
                    "midi": 79,
                    "time": 306.3274120000012,
                    "velocity": 0.5275590551181102,
                    "duration": 0.08643549999999323
                },
                {
                    "name": "F5",
                    "midi": 77,
                    "time": 306.67315400000115,
                    "velocity": 0.5275590551181102,
                    "duration": 0.08643549999999323
                },
                {
                    "name": "E5",
                    "midi": 76,
                    "time": 306.75958950000114,
                    "velocity": 0.4251968503937008,
                    "duration": 0.08643549999999323
                },
                {
                    "name": "D5",
                    "midi": 74,
                    "time": 306.84602500000113,
                    "velocity": 0.4251968503937008,
                    "duration": 0.08643549999999323
                },
                {
                    "name": "C5",
                    "midi": 72,
                    "time": 306.9324605000011,
                    "velocity": 0.4566929133858268,
                    "duration": 0.08643549999999323
                },
                {
                    "name": "B4",
                    "midi": 71,
                    "time": 307.0188960000011,
                    "velocity": 0.5511811023622047,
                    "duration": 0.08643549999999323
                },
                {
                    "name": "B4",
                    "midi": 71,
                    "time": 307.3646380000011,
                    "velocity": 0.4645669291338583,
                    "duration": 0.08643549999999323
                },
                {
                    "name": "C5",
                    "midi": 72,
                    "time": 307.71038000000107,
                    "velocity": 0.5196850393700787,
                    "duration": 0.08643549999999323
                },
                {
                    "name": "C5",
                    "midi": 72,
                    "time": 308.05612200000104,
                    "velocity": 0.44881889763779526,
                    "duration": 0.08643549999999323
                },
                {
                    "name": "D5",
                    "midi": 74,
                    "time": 308.401864000001,
                    "velocity": 0.5511811023622047,
                    "duration": 0.3457419999999729
                },
                {
                    "name": "G4",
                    "midi": 67,
                    "time": 309.439090000001,
                    "velocity": 0.5511811023622047,
                    "duration": 0.2593064999999797
                },
                {
                    "name": "D5",
                    "midi": 74,
                    "time": 309.69839650000097,
                    "velocity": 0.4251968503937008,
                    "duration": 0.08643549999999323
                },
                {
                    "name": "F5",
                    "midi": 77,
                    "time": 309.78483200000096,
                    "velocity": 0.5275590551181102,
                    "duration": 0.08643549999999323
                },
                {
                    "name": "F5",
                    "midi": 77,
                    "time": 310.13057400000093,
                    "velocity": 0.4566929133858268,
                    "duration": 0.2593064999999797
                },
                {
                    "name": "G5",
                    "midi": 79,
                    "time": 310.3898805000009,
                    "velocity": 0.4330708661417323,
                    "duration": 0.08643549999999323
                },
                {
                    "name": "E5",
                    "midi": 76,
                    "time": 310.4763160000009,
                    "velocity": 0.5275590551181102,
                    "duration": 0.08643549999999323
                },
                {
                    "name": "E5",
                    "midi": 76,
                    "time": 310.8220580000009,
                    "velocity": 0.4566929133858268,
                    "duration": 0.2593064999999797
                },
                {
                    "name": "F5",
                    "midi": 77,
                    "time": 311.08136450000086,
                    "velocity": 0.4566929133858268,
                    "duration": 0.08643549999999323
                },
                {
                    "name": "D5",
                    "midi": 74,
                    "time": 311.16780000000085,
                    "velocity": 0.5354330708661418,
                    "duration": 0.08643549999999323
                },
                {
                    "name": "D5",
                    "midi": 74,
                    "time": 311.5135420000008,
                    "velocity": 0.4566929133858268,
                    "duration": 0.2593064999999797
                },
                {
                    "name": "E5",
                    "midi": 76,
                    "time": 311.7728485000008,
                    "velocity": 0.4251968503937008,
                    "duration": 0.08643549999999323
                },
                {
                    "name": "C5",
                    "midi": 72,
                    "time": 311.8592840000008,
                    "velocity": 0.5196850393700787,
                    "duration": 0.08643549999999323
                },
                {
                    "name": "C5",
                    "midi": 72,
                    "time": 312.20502600000077,
                    "velocity": 0.47244094488188976,
                    "duration": 0.08643549999999323
                },
                {
                    "name": "D5",
                    "midi": 74,
                    "time": 312.55076800000074,
                    "velocity": 0.5196850393700787,
                    "duration": 0.08643549999999323
                },
                {
                    "name": "D5",
                    "midi": 74,
                    "time": 312.8965100000007,
                    "velocity": 0.47244094488188976,
                    "duration": 0.08643549999999323
                },
                {
                    "name": "B4",
                    "midi": 71,
                    "time": 313.2422520000007,
                    "velocity": 0.5275590551181102,
                    "duration": 0.08643549999999323
                },
                {
                    "name": "B4",
                    "midi": 71,
                    "time": 313.58799400000066,
                    "velocity": 0.47244094488188976,
                    "duration": 0.08643549999999323
                },
                {
                    "name": "C5",
                    "midi": 72,
                    "time": 313.93373600000064,
                    "velocity": 0.6850393700787402,
                    "duration": 0.3457419999999729
                },
                {
                    "name": "G5",
                    "midi": 79,
                    "time": 314.9709620000006,
                    "velocity": 0.6220472440944882,
                    "duration": 0.2593064999999797
                },
                {
                    "name": "B5",
                    "midi": 83,
                    "time": 315.2302685000006,
                    "velocity": 0.6141732283464567,
                    "duration": 0.08643549999999323
                },
                {
                    "name": "C6",
                    "midi": 84,
                    "time": 315.3167040000006,
                    "velocity": 0.7165354330708661,
                    "duration": 0.08643549999999323
                },
                {
                    "name": "C6",
                    "midi": 84,
                    "time": 315.66244600000056,
                    "velocity": 0.6299212598425197,
                    "duration": 0.08643549999999323
                },
                {
                    "name": "C6",
                    "midi": 84,
                    "time": 316.00818800000053,
                    "velocity": 0.6220472440944882,
                    "duration": 0.08643549999999323
                },
                {
                    "name": "E6",
                    "midi": 88,
                    "time": 316.3539300000005,
                    "velocity": 0.6850393700787402,
                    "duration": 0.08643549999999323
                },
                {
                    "name": "D6",
                    "midi": 86,
                    "time": 316.4403655000005,
                    "velocity": 0.6456692913385826,
                    "duration": 0.08643549999999323
                },
                {
                    "name": "C6",
                    "midi": 84,
                    "time": 316.5268010000005,
                    "velocity": 0.6456692913385826,
                    "duration": 0.08643549999999323
                },
                {
                    "name": "D6",
                    "midi": 86,
                    "time": 316.6132365000005,
                    "velocity": 0.6456692913385826,
                    "duration": 0.08643549999999323
                },
                {
                    "name": "E6",
                    "midi": 88,
                    "time": 316.6996720000005,
                    "velocity": 0.7165354330708661,
                    "duration": 0.08643549999999323
                },
                {
                    "name": "C6",
                    "midi": 84,
                    "time": 317.04541400000045,
                    "velocity": 0.5984251968503937,
                    "duration": 0.08643549999999323
                },
                {
                    "name": "C6",
                    "midi": 84,
                    "time": 317.3911560000004,
                    "velocity": 0.5984251968503937,
                    "duration": 0.08643549999999323
                },
                {
                    "name": "G5",
                    "midi": 79,
                    "time": 317.7368980000004,
                    "velocity": 0.6377952755905512,
                    "duration": 0.2593064999999797
                },
                {
                    "name": "B5",
                    "midi": 83,
                    "time": 317.9962045000004,
                    "velocity": 0.6377952755905512,
                    "duration": 0.08643549999999323
                },
                {
                    "name": "C6",
                    "midi": 84,
                    "time": 318.08264000000037,
                    "velocity": 0.7165354330708661,
                    "duration": 0.08643549999999323
                },
                {
                    "name": "C6",
                    "midi": 84,
                    "time": 318.42838200000034,
                    "velocity": 0.6377952755905512,
                    "duration": 0.08643549999999323
                },
                {
                    "name": "C6",
                    "midi": 84,
                    "time": 318.7741240000003,
                    "velocity": 0.6377952755905512,
                    "duration": 0.08643549999999323
                },
                {
                    "name": "E6",
                    "midi": 88,
                    "time": 318.9469950000003,
                    "velocity": 0.6062992125984252,
                    "duration": 0.0576236666666432
                },
                {
                    "name": "D6",
                    "midi": 86,
                    "time": 319.00461866666694,
                    "velocity": 0.5669291338582677,
                    "duration": 0.0576236666666432
                },
                {
                    "name": "C6",
                    "midi": 84,
                    "time": 319.0622423333336,
                    "velocity": 0.5669291338582677,
                    "duration": 0.0576236666666432
                },
                {
                    "name": "D6",
                    "midi": 86,
                    "time": 319.11986600000023,
                    "velocity": 0.6771653543307087,
                    "duration": 0.2593064999999797
                },
                {
                    "name": "E6",
                    "midi": 88,
                    "time": 319.3791725000002,
                    "velocity": 0.6377952755905512,
                    "duration": 0.08643549999999323
                },
                {
                    "name": "C6",
                    "midi": 84,
                    "time": 319.4656080000002,
                    "velocity": 0.6850393700787402,
                    "duration": 0.3457419999999729
                },
                {
                    "name": "G5",
                    "midi": 79,
                    "time": 320.5028340000002,
                    "velocity": 0.49606299212598426,
                    "duration": 0.2593064999999797
                },
                {
                    "name": "B5",
                    "midi": 83,
                    "time": 320.76214050000016,
                    "velocity": 0.4881889763779528,
                    "duration": 0.08643549999999323
                },
                {
                    "name": "C6",
                    "midi": 84,
                    "time": 320.84857600000015,
                    "velocity": 0.5669291338582677,
                    "duration": 0.08643549999999323
                },
                {
                    "name": "C6",
                    "midi": 84,
                    "time": 321.1943180000001,
                    "velocity": 0.5039370078740157,
                    "duration": 0.08643549999999323
                },
                {
                    "name": "C6",
                    "midi": 84,
                    "time": 321.5400600000001,
                    "velocity": 0.49606299212598426,
                    "duration": 0.08643549999999323
                },
                {
                    "name": "E6",
                    "midi": 88,
                    "time": 321.88580200000007,
                    "velocity": 0.5433070866141733,
                    "duration": 0.08643549999999323
                },
                {
                    "name": "D6",
                    "midi": 86,
                    "time": 321.97223750000006,
                    "velocity": 0.5118110236220472,
                    "duration": 0.08643549999999323
                },
                {
                    "name": "C6",
                    "midi": 84,
                    "time": 322.05867300000006,
                    "velocity": 0.5118110236220472,
                    "duration": 0.08643549999999323
                },
                {
                    "name": "D6",
                    "midi": 86,
                    "time": 322.14510850000005,
                    "velocity": 0.5118110236220472,
                    "duration": 0.08643549999999323
                },
                {
                    "name": "E6",
                    "midi": 88,
                    "time": 322.23154400000004,
                    "velocity": 0.5669291338582677,
                    "duration": 0.08643549999999323
                },
                {
                    "name": "C6",
                    "midi": 84,
                    "time": 322.577286,
                    "velocity": 0.47244094488188976,
                    "duration": 0.08643549999999323
                },
                {
                    "name": "C6",
                    "midi": 84,
                    "time": 322.923028,
                    "velocity": 0.47244094488188976,
                    "duration": 0.08643549999999323
                },
                {
                    "name": "G5",
                    "midi": 79,
                    "time": 323.26876999999996,
                    "velocity": 0.5039370078740157,
                    "duration": 0.2593064999999797
                },
                {
                    "name": "B5",
                    "midi": 83,
                    "time": 323.52807649999994,
                    "velocity": 0.5039370078740157,
                    "duration": 0.08643549999999323
                },
                {
                    "name": "C6",
                    "midi": 84,
                    "time": 323.61451199999993,
                    "velocity": 0.5669291338582677,
                    "duration": 0.08643549999999323
                },
                {
                    "name": "C6",
                    "midi": 84,
                    "time": 323.9602539999999,
                    "velocity": 0.5039370078740157,
                    "duration": 0.08643549999999323
                },
                {
                    "name": "C6",
                    "midi": 84,
                    "time": 324.3059959999999,
                    "velocity": 0.5039370078740157,
                    "duration": 0.08643549999999323
                },
                {
                    "name": "E6",
                    "midi": 88,
                    "time": 324.47886699999987,
                    "velocity": 0.48031496062992124,
                    "duration": 0.0576236666666432
                },
                {
                    "name": "D6",
                    "midi": 86,
                    "time": 324.5364906666665,
                    "velocity": 0.44881889763779526,
                    "duration": 0.0576236666666432
                },
                {
                    "name": "C6",
                    "midi": 84,
                    "time": 324.59411433333315,
                    "velocity": 0.44881889763779526,
                    "duration": 0.0576236666666432
                },
                {
                    "name": "D6",
                    "midi": 86,
                    "time": 324.6517379999998,
                    "velocity": 0.5354330708661418,
                    "duration": 0.2593064999999797
                },
                {
                    "name": "E6",
                    "midi": 88,
                    "time": 324.9110444999998,
                    "velocity": 0.5039370078740157,
                    "duration": 0.08643549999999323
                },
                {
                    "name": "C6",
                    "midi": 84,
                    "time": 324.99747999999977,
                    "velocity": 0.5511811023622047,
                    "duration": 0.3457419999999729
                },
                {
                    "name": "G5",
                    "midi": 79,
                    "time": 325.6889639999997,
                    "velocity": 0.6377952755905512,
                    "duration": 0.3457419999999729
                },
                {
                    "name": "E5",
                    "midi": 76,
                    "time": 325.6889639999997,
                    "velocity": 0.5354330708661418,
                    "duration": 0.3457419999999729
                },
                {
                    "name": "E5",
                    "midi": 76,
                    "time": 326.38044799999966,
                    "velocity": 0.6220472440944882,
                    "duration": 0.3457419999999729
                },
                {
                    "name": "C5",
                    "midi": 72,
                    "time": 326.38044799999966,
                    "velocity": 0.5275590551181102,
                    "duration": 0.3457419999999729
                },
                {
                    "name": "E3",
                    "midi": 52,
                    "time": 327.0719319999996,
                    "velocity": 0.49606299212598426,
                    "duration": 0.3457419999999729
                },
                {
                    "name": "G3",
                    "midi": 55,
                    "time": 327.0719319999996,
                    "velocity": 0.5905511811023622,
                    "duration": 0.3457419999999729
                },
                {
                    "name": "E3",
                    "midi": 52,
                    "time": 327.76341599999955,
                    "velocity": 0.5511811023622047,
                    "duration": 0.3457419999999729
                },
                {
                    "name": "C3",
                    "midi": 48,
                    "time": 327.76341599999955,
                    "velocity": 0.4645669291338583,
                    "duration": 0.3457419999999729
                }
            ],
            "controlChanges": {},
            "id": 1,
            "name": "Piano right",
            "instrumentNumber": 0,
            "instrument": "acoustic grand piano",
            "instrumentFamily": "piano",
            "channelNumber": 0,
            "isPercussion": false
        },
        {
            "startTime": 1.382968,
            "duration": 328.1091580000045,
            "length": 1703,
            "notes": [
                {
                    "name": "C4",
                    "midi": 60,
                    "time": 1.382968,
                    "velocity": 0.3464566929133858,
                    "duration": 0.08643549999999989
                },
                {
                    "name": "E4",
                    "midi": 64,
                    "time": 1.382968,
                    "velocity": 0.4094488188976378,
                    "duration": 0.08643549999999989
                },
                {
                    "name": "C4",
                    "midi": 60,
                    "time": 2.765936,
                    "velocity": 0.3464566929133858,
                    "duration": 0.08643549999999989
                },
                {
                    "name": "E4",
                    "midi": 64,
                    "time": 2.765936,
                    "velocity": 0.4094488188976378,
                    "duration": 0.08643549999999989
                },
                {
                    "name": "G3",
                    "midi": 55,
                    "time": 4.148904,
                    "velocity": 0.3464566929133858,
                    "duration": 0.08643550000000033
                },
                {
                    "name": "F4",
                    "midi": 65,
                    "time": 4.148904,
                    "velocity": 0.4094488188976378,
                    "duration": 0.08643550000000033
                },
                {
                    "name": "D4",
                    "midi": 62,
                    "time": 4.148904,
                    "velocity": 0.3464566929133858,
                    "duration": 0.08643550000000033
                },
                {
                    "name": "F4",
                    "midi": 65,
                    "time": 4.494646,
                    "velocity": 0.3543307086614173,
                    "duration": 0.08643550000000033
                },
                {
                    "name": "D4",
                    "midi": 62,
                    "time": 4.494646,
                    "velocity": 0.2992125984251969,
                    "duration": 0.08643550000000033
                },
                {
                    "name": "G3",
                    "midi": 55,
                    "time": 4.494646,
                    "velocity": 0.2992125984251969,
                    "duration": 0.08643550000000033
                },
                {
                    "name": "C4",
                    "midi": 60,
                    "time": 4.840388000000001,
                    "velocity": 0.3464566929133858,
                    "duration": 0.08643550000000033
                },
                {
                    "name": "E4",
                    "midi": 64,
                    "time": 4.840388000000001,
                    "velocity": 0.4094488188976378,
                    "duration": 0.08643550000000033
                },
                {
                    "name": "G3",
                    "midi": 55,
                    "time": 4.840388000000001,
                    "velocity": 0.3464566929133858,
                    "duration": 0.08643550000000033
                },
                {
                    "name": "C4",
                    "midi": 60,
                    "time": 5.186130000000001,
                    "velocity": 0.30708661417322836,
                    "duration": 0.08643550000000033
                },
                {
                    "name": "G3",
                    "midi": 55,
                    "time": 5.186130000000001,
                    "velocity": 0.30708661417322836,
                    "duration": 0.08643550000000033
                },
                {
                    "name": "E4",
                    "midi": 64,
                    "time": 5.186130000000001,
                    "velocity": 0.3700787401574803,
                    "duration": 0.08643550000000033
                },
                {
                    "name": "G3",
                    "midi": 55,
                    "time": 5.531872000000002,
                    "velocity": 0.3464566929133858,
                    "duration": 0.34574199999999955
                },
                {
                    "name": "B3",
                    "midi": 59,
                    "time": 5.531872000000002,
                    "velocity": 0.3464566929133858,
                    "duration": 0.34574199999999955
                },
                {
                    "name": "D4",
                    "midi": 62,
                    "time": 5.531872000000002,
                    "velocity": 0.4094488188976378,
                    "duration": 0.34574199999999955
                },
                {
                    "name": "G4",
                    "midi": 67,
                    "time": 6.914840000000002,
                    "velocity": 0.3779527559055118,
                    "duration": 0.08643550000000033
                },
                {
                    "name": "B3",
                    "midi": 59,
                    "time": 6.914840000000002,
                    "velocity": 0.31496062992125984,
                    "duration": 0.08643550000000033
                },
                {
                    "name": "G4",
                    "midi": 67,
                    "time": 7.606324000000002,
                    "velocity": 0.3779527559055118,
                    "duration": 0.08643550000000033
                },
                {
                    "name": "C4",
                    "midi": 60,
                    "time": 7.606324000000002,
                    "velocity": 0.31496062992125984,
                    "duration": 0.08643550000000033
                },
                {
                    "name": "F4",
                    "midi": 65,
                    "time": 8.297808000000002,
                    "velocity": 0.31496062992125984,
                    "duration": 0.08643550000000033
                },
                {
                    "name": "G4",
                    "midi": 67,
                    "time": 8.297808000000002,
                    "velocity": 0.3779527559055118,
                    "duration": 0.08643550000000033
                },
                {
                    "name": "G4",
                    "midi": 67,
                    "time": 8.989292000000003,
                    "velocity": 0.3543307086614173,
                    "duration": 0.08643550000000033
                },
                {
                    "name": "E4",
                    "midi": 64,
                    "time": 8.989292000000003,
                    "velocity": 0.2992125984251969,
                    "duration": 0.08643550000000033
                },
                {
                    "name": "F4",
                    "midi": 65,
                    "time": 9.680776000000003,
                    "velocity": 0.4409448818897638,
                    "duration": 0.08643550000000033
                },
                {
                    "name": "F3",
                    "midi": 53,
                    "time": 9.680776000000003,
                    "velocity": 0.3700787401574803,
                    "duration": 0.08643550000000033
                },
                {
                    "name": "F3",
                    "midi": 53,
                    "time": 10.026518000000003,
                    "velocity": 0.3464566929133858,
                    "duration": 0.08643550000000033
                },
                {
                    "name": "F4",
                    "midi": 65,
                    "time": 10.026518000000003,
                    "velocity": 0.4094488188976378,
                    "duration": 0.08643550000000033
                },
                {
                    "name": "G3",
                    "midi": 55,
                    "time": 10.372260000000002,
                    "velocity": 0.3858267716535433,
                    "duration": 0.08643550000000033
                },
                {
                    "name": "D4",
                    "midi": 62,
                    "time": 10.372260000000002,
                    "velocity": 0.4566929133858268,
                    "duration": 0.08643550000000033
                },
                {
                    "name": "G3",
                    "midi": 55,
                    "time": 10.718002000000002,
                    "velocity": 0.3464566929133858,
                    "duration": 0.08643550000000033
                },
                {
                    "name": "D4",
                    "midi": 62,
                    "time": 10.718002000000002,
                    "velocity": 0.4094488188976378,
                    "duration": 0.08643550000000033
                },
                {
                    "name": "C4",
                    "midi": 60,
                    "time": 11.063744000000002,
                    "velocity": 0.3779527559055118,
                    "duration": 0.11524733333333259
                },
                {
                    "name": "E4",
                    "midi": 64,
                    "time": 11.178991333333334,
                    "velocity": 0.28346456692913385,
                    "duration": 0.11524733333333259
                },
                {
                    "name": "G4",
                    "midi": 67,
                    "time": 11.294238666666667,
                    "velocity": 0.28346456692913385,
                    "duration": 0.11524733333333259
                },
                {
                    "name": "C4",
                    "midi": 60,
                    "time": 11.409486,
                    "velocity": 0.3858267716535433,
                    "duration": 0.11524733333333259
                },
                {
                    "name": "E4",
                    "midi": 64,
                    "time": 11.524733333333332,
                    "velocity": 0.2992125984251969,
                    "duration": 0.11524733333333259
                },
                {
                    "name": "G4",
                    "midi": 67,
                    "time": 11.639980666666665,
                    "velocity": 0.2992125984251969,
                    "duration": 0.11524733333333259
                },
                {
                    "name": "C4",
                    "midi": 60,
                    "time": 11.755227999999997,
                    "velocity": 0.41732283464566927,
                    "duration": 0.11524733333333259
                },
                {
                    "name": "E4",
                    "midi": 64,
                    "time": 11.87047533333333,
                    "velocity": 0.33858267716535434,
                    "duration": 0.11524733333333259
                },
                {
                    "name": "G4",
                    "midi": 67,
                    "time": 11.985722666666662,
                    "velocity": 0.33858267716535434,
                    "duration": 0.11524733333333259
                },
                {
                    "name": "C4",
                    "midi": 60,
                    "time": 12.100969999999995,
                    "velocity": 0.4251968503937008,
                    "duration": 0.11524733333333259
                },
                {
                    "name": "E4",
                    "midi": 64,
                    "time": 12.216217333333327,
                    "velocity": 0.3464566929133858,
                    "duration": 0.11524733333333259
                },
                {
                    "name": "G4",
                    "midi": 67,
                    "time": 12.33146466666666,
                    "velocity": 0.3464566929133858,
                    "duration": 0.11524733333333259
                },
                {
                    "name": "C4",
                    "midi": 60,
                    "time": 12.446711999999993,
                    "velocity": 0.4409448818897638,
                    "duration": 0.11524733333333259
                },
                {
                    "name": "E4",
                    "midi": 64,
                    "time": 12.561959333333325,
                    "velocity": 0.33858267716535434,
                    "duration": 0.11524733333333259
                },
                {
                    "name": "G4",
                    "midi": 67,
                    "time": 12.677206666666658,
                    "velocity": 0.33858267716535434,
                    "duration": 0.11524733333333259
                },
                {
                    "name": "C4",
                    "midi": 60,
                    "time": 12.79245399999999,
                    "velocity": 0.4409448818897638,
                    "duration": 0.11524733333333259
                },
                {
                    "name": "E4",
                    "midi": 64,
                    "time": 12.907701333333323,
                    "velocity": 0.3543307086614173,
                    "duration": 0.11524733333333259
                },
                {
                    "name": "G4",
                    "midi": 67,
                    "time": 13.022948666666656,
                    "velocity": 0.36220472440944884,
                    "duration": 0.11524733333333259
                },
                {
                    "name": "C4",
                    "midi": 60,
                    "time": 13.138195999999988,
                    "velocity": 0.4330708661417323,
                    "duration": 0.11524733333333259
                },
                {
                    "name": "E4",
                    "midi": 64,
                    "time": 13.25344333333332,
                    "velocity": 0.3464566929133858,
                    "duration": 0.11524733333333259
                },
                {
                    "name": "G4",
                    "midi": 67,
                    "time": 13.368690666666653,
                    "velocity": 0.3543307086614173,
                    "duration": 0.11524733333333259
                },
                {
                    "name": "C4",
                    "midi": 60,
                    "time": 13.483937999999986,
                    "velocity": 0.5669291338582677,
                    "duration": 0.11524733333333259
                },
                {
                    "name": "E4",
                    "midi": 64,
                    "time": 13.599185333333319,
                    "velocity": 0.44881889763779526,
                    "duration": 0.11524733333333259
                },
                {
                    "name": "G4",
                    "midi": 67,
                    "time": 13.714432666666651,
                    "velocity": 0.44881889763779526,
                    "duration": 0.11524733333333259
                },
                {
                    "name": "C4",
                    "midi": 60,
                    "time": 13.829679999999984,
                    "velocity": 0.4409448818897638,
                    "duration": 0.11524733333333259
                },
                {
                    "name": "E4",
                    "midi": 64,
                    "time": 13.944927333333316,
                    "velocity": 0.3228346456692913,
                    "duration": 0.11524733333333259
                },
                {
                    "name": "G4",
                    "midi": 67,
                    "time": 14.060174666666649,
                    "velocity": 0.3228346456692913,
                    "duration": 0.11524733333333259
                },
                {
                    "name": "C4",
                    "midi": 60,
                    "time": 14.175421999999982,
                    "velocity": 0.4409448818897638,
                    "duration": 0.11524733333333259
                },
                {
                    "name": "E4",
                    "midi": 64,
                    "time": 14.290669333333314,
                    "velocity": 0.3464566929133858,
                    "duration": 0.11524733333333259
                },
                {
                    "name": "G4",
                    "midi": 67,
                    "time": 14.405916666666647,
                    "velocity": 0.3464566929133858,
                    "duration": 0.11524733333333259
                },
                {
                    "name": "C4",
                    "midi": 60,
                    "time": 14.52116399999998,
                    "velocity": 0.4409448818897638,
                    "duration": 0.11524733333333259
                },
                {
                    "name": "E4",
                    "midi": 64,
                    "time": 14.636411333333312,
                    "velocity": 0.3464566929133858,
                    "duration": 0.11524733333333259
                },
                {
                    "name": "G4",
                    "midi": 67,
                    "time": 14.751658666666644,
                    "velocity": 0.3543307086614173,
                    "duration": 0.11524733333333259
                },
                {
                    "name": "C4",
                    "midi": 60,
                    "time": 14.866905999999977,
                    "velocity": 0.4409448818897638,
                    "duration": 0.11524733333333259
                },
                {
                    "name": "E4",
                    "midi": 64,
                    "time": 14.98215333333331,
                    "velocity": 0.3464566929133858,
                    "duration": 0.11524733333333259
                },
                {
                    "name": "G4",
                    "midi": 67,
                    "time": 15.097400666666642,
                    "velocity": 0.3464566929133858,
                    "duration": 0.11524733333333259
                },
                {
                    "name": "D4",
                    "midi": 62,
                    "time": 15.212647999999975,
                    "velocity": 0.4409448818897638,
                    "duration": 0.11524733333333259
                },
                {
                    "name": "F4",
                    "midi": 65,
                    "time": 15.327895333333307,
                    "velocity": 0.33070866141732286,
                    "duration": 0.11524733333333259
                },
                {
                    "name": "G4",
                    "midi": 67,
                    "time": 15.44314266666664,
                    "velocity": 0.3543307086614173,
                    "duration": 0.11524733333333259
                },
                {
                    "name": "D4",
                    "midi": 62,
                    "time": 15.558389999999973,
                    "velocity": 0.4409448818897638,
                    "duration": 0.11524733333333259
                },
                {
                    "name": "F4",
                    "midi": 65,
                    "time": 15.673637333333305,
                    "velocity": 0.3543307086614173,
                    "duration": 0.11524733333333259
                },
                {
                    "name": "G4",
                    "midi": 67,
                    "time": 15.788884666666638,
                    "velocity": 0.3543307086614173,
                    "duration": 0.11524733333333259
                },
                {
                    "name": "C4",
                    "midi": 60,
                    "time": 15.90413199999997,
                    "velocity": 0.4409448818897638,
                    "duration": 0.11524733333333437
                },
                {
                    "name": "E4",
                    "midi": 64,
                    "time": 16.019379333333305,
                    "velocity": 0.36220472440944884,
                    "duration": 0.11524733333333259
                },
                {
                    "name": "G4",
                    "midi": 67,
                    "time": 16.134626666666637,
                    "velocity": 0.3937007874015748,
                    "duration": 0.11524733333333259
                },
                {
                    "name": "C4",
                    "midi": 60,
                    "time": 16.24987399999997,
                    "velocity": 0.4409448818897638,
                    "duration": 0.11524733333333259
                },
                {
                    "name": "E4",
                    "midi": 64,
                    "time": 16.365121333333303,
                    "velocity": 0.36220472440944884,
                    "duration": 0.11524733333333259
                },
                {
                    "name": "G4",
                    "midi": 67,
                    "time": 16.480368666666635,
                    "velocity": 0.36220472440944884,
                    "duration": 0.11524733333333259
                },
                {
                    "name": "B3",
                    "midi": 59,
                    "time": 16.595615999999968,
                    "velocity": 0.49606299212598426,
                    "duration": 0.3457420000000013
                },
                {
                    "name": "G3",
                    "midi": 55,
                    "time": 17.97858399999997,
                    "velocity": 0.4409448818897638,
                    "duration": 0.11524733333333259
                },
                {
                    "name": "B3",
                    "midi": 59,
                    "time": 18.093831333333302,
                    "velocity": 0.33858267716535434,
                    "duration": 0.11524733333333259
                },
                {
                    "name": "D4",
                    "midi": 62,
                    "time": 18.209078666666635,
                    "velocity": 0.3543307086614173,
                    "duration": 0.11524733333333259
                },
                {
                    "name": "G3",
                    "midi": 55,
                    "time": 18.324325999999967,
                    "velocity": 0.4409448818897638,
                    "duration": 0.11524733333333259
                },
                {
                    "name": "B3",
                    "midi": 59,
                    "time": 18.4395733333333,
                    "velocity": 0.3543307086614173,
                    "duration": 0.11524733333333259
                },
                {
                    "name": "D4",
                    "midi": 62,
                    "time": 18.554820666666632,
                    "velocity": 0.3543307086614173,
                    "duration": 0.11524733333333259
                },
                {
                    "name": "G3",
                    "midi": 55,
                    "time": 18.670067999999965,
                    "velocity": 0.4251968503937008,
                    "duration": 0.11524733333333259
                },
                {
                    "name": "C4",
                    "midi": 60,
                    "time": 18.785315333333298,
                    "velocity": 0.33858267716535434,
                    "duration": 0.11524733333333259
                },
                {
                    "name": "E4",
                    "midi": 64,
                    "time": 18.90056266666663,
                    "velocity": 0.3464566929133858,
                    "duration": 0.11524733333333259
                },
                {
                    "name": "G3",
                    "midi": 55,
                    "time": 19.015809999999963,
                    "velocity": 0.4409448818897638,
                    "duration": 0.11524733333333259
                },
                {
                    "name": "C4",
                    "midi": 60,
                    "time": 19.131057333333295,
                    "velocity": 0.36220472440944884,
                    "duration": 0.11524733333333259
                },
                {
                    "name": "E4",
                    "midi": 64,
                    "time": 19.246304666666628,
                    "velocity": 0.36220472440944884,
                    "duration": 0.11524733333333259
                },
                {
                    "name": "G3",
                    "midi": 55,
                    "time": 19.36155199999996,
                    "velocity": 0.4409448818897638,
                    "duration": 0.11524733333333259
                },
                {
                    "name": "D4",
                    "midi": 62,
                    "time": 19.476799333333293,
                    "velocity": 0.3700787401574803,
                    "duration": 0.11524733333333259
                },
                {
                    "name": "F4",
                    "midi": 65,
                    "time": 19.592046666666626,
                    "velocity": 0.3700787401574803,
                    "duration": 0.11524733333333259
                },
                {
                    "name": "G3",
                    "midi": 55,
                    "time": 19.70729399999996,
                    "velocity": 0.4409448818897638,
                    "duration": 0.11524733333333259
                },
                {
                    "name": "D4",
                    "midi": 62,
                    "time": 19.82254133333329,
                    "velocity": 0.3464566929133858,
                    "duration": 0.11524733333333259
                },
                {
                    "name": "F4",
                    "midi": 65,
                    "time": 19.937788666666624,
                    "velocity": 0.3464566929133858,
                    "duration": 0.11524733333333259
                },
                {
                    "name": "A3",
                    "midi": 57,
                    "time": 20.053035999999956,
                    "velocity": 0.4409448818897638,
                    "duration": 0.11524733333333259
                },
                {
                    "name": "C4",
                    "midi": 60,
                    "time": 20.16828333333329,
                    "velocity": 0.36220472440944884,
                    "duration": 0.11524733333333259
                },
                {
                    "name": "E4",
                    "midi": 64,
                    "time": 20.28353066666662,
                    "velocity": 0.36220472440944884,
                    "duration": 0.11524733333333259
                },
                {
                    "name": "A3",
                    "midi": 57,
                    "time": 20.398777999999954,
                    "velocity": 0.4409448818897638,
                    "duration": 0.11524733333333259
                },
                {
                    "name": "C4",
                    "midi": 60,
                    "time": 20.514025333333286,
                    "velocity": 0.3543307086614173,
                    "duration": 0.11524733333333259
                },
                {
                    "name": "E4",
                    "midi": 64,
                    "time": 20.62927266666662,
                    "velocity": 0.3543307086614173,
                    "duration": 0.11524733333333259
                },
                {
                    "name": "F3",
                    "midi": 53,
                    "time": 20.74451999999995,
                    "velocity": 0.4409448818897638,
                    "duration": 0.11524733333333259
                },
                {
                    "name": "A3",
                    "midi": 57,
                    "time": 20.859767333333284,
                    "velocity": 0.3543307086614173,
                    "duration": 0.11524733333333259
                },
                {
                    "name": "D4",
                    "midi": 62,
                    "time": 20.975014666666617,
                    "velocity": 0.3700787401574803,
                    "duration": 0.11524733333333259
                },
                {
                    "name": "F3",
                    "midi": 53,
                    "time": 21.09026199999995,
                    "velocity": 0.4409448818897638,
                    "duration": 0.11524733333333259
                },
                {
                    "name": "A3",
                    "midi": 57,
                    "time": 21.205509333333282,
                    "velocity": 0.36220472440944884,
                    "duration": 0.11524733333333259
                },
                {
                    "name": "D4",
                    "midi": 62,
                    "time": 21.320756666666615,
                    "velocity": 0.36220472440944884,
                    "duration": 0.11524733333333259
                },
                {
                    "name": "G3",
                    "midi": 55,
                    "time": 21.436003999999947,
                    "velocity": 0.4409448818897638,
                    "duration": 0.11524733333333259
                },
                {
                    "name": "D4",
                    "midi": 62,
                    "time": 21.55125133333328,
                    "velocity": 0.33858267716535434,
                    "duration": 0.11524733333333259
                },
                {
                    "name": "F4",
                    "midi": 65,
                    "time": 21.666498666666612,
                    "velocity": 0.33858267716535434,
                    "duration": 0.11524733333333259
                },
                {
                    "name": "G3",
                    "midi": 55,
                    "time": 21.781745999999945,
                    "velocity": 0.4409448818897638,
                    "duration": 0.11524733333333259
                },
                {
                    "name": "D4",
                    "midi": 62,
                    "time": 21.896993333333278,
                    "velocity": 0.3464566929133858,
                    "duration": 0.11524733333333259
                },
                {
                    "name": "F4",
                    "midi": 65,
                    "time": 22.01224066666661,
                    "velocity": 0.3543307086614173,
                    "duration": 0.11524733333333259
                },
                {
                    "name": "E4",
                    "midi": 64,
                    "time": 22.127487999999943,
                    "velocity": 0.3543307086614173,
                    "duration": 0.6914839999999991
                },
                {
                    "name": "C4",
                    "midi": 60,
                    "time": 22.127487999999943,
                    "velocity": 0.47244094488188976,
                    "duration": 2.7659359999999964
                },
                {
                    "name": "A#4",
                    "midi": 70,
                    "time": 22.818971999999942,
                    "velocity": 0.33858267716535434,
                    "duration": 0.6914839999999991
                },
                {
                    "name": "A4",
                    "midi": 69,
                    "time": 23.51045599999994,
                    "velocity": 0.3543307086614173,
                    "duration": 0.6914839999999991
                },
                {
                    "name": "F4",
                    "midi": 65,
                    "time": 24.20193999999994,
                    "velocity": 0.33070866141732286,
                    "duration": 0.6914839999999991
                },
                {
                    "name": "C4",
                    "midi": 60,
                    "time": 24.89342399999994,
                    "velocity": 0.30708661417322836,
                    "duration": 2.7659359999999964
                },
                {
                    "name": "E4",
                    "midi": 64,
                    "time": 24.89342399999994,
                    "velocity": 0.3543307086614173,
                    "duration": 0.6914839999999991
                },
                {
                    "name": "A#4",
                    "midi": 70,
                    "time": 25.58490799999994,
                    "velocity": 0.33858267716535434,
                    "duration": 0.6914839999999991
                },
                {
                    "name": "A4",
                    "midi": 69,
                    "time": 26.276391999999937,
                    "velocity": 0.3543307086614173,
                    "duration": 0.6914839999999991
                },
                {
                    "name": "F4",
                    "midi": 65,
                    "time": 26.967875999999936,
                    "velocity": 0.33070866141732286,
                    "duration": 0.6914839999999991
                },
                {
                    "name": "C4",
                    "midi": 60,
                    "time": 27.659359999999936,
                    "velocity": 0.3543307086614173,
                    "duration": 0.11524733333333259
                },
                {
                    "name": "E4",
                    "midi": 64,
                    "time": 27.774607333333268,
                    "velocity": 0.28346456692913385,
                    "duration": 0.11524733333333259
                },
                {
                    "name": "G4",
                    "midi": 67,
                    "time": 27.8898546666666,
                    "velocity": 0.28346456692913385,
                    "duration": 0.11524733333333259
                },
                {
                    "name": "C4",
                    "midi": 60,
                    "time": 28.005101999999933,
                    "velocity": 0.3543307086614173,
                    "duration": 0.11524733333333259
                },
                {
                    "name": "E4",
                    "midi": 64,
                    "time": 28.120349333333266,
                    "velocity": 0.2992125984251969,
                    "duration": 0.11524733333333259
                },
                {
                    "name": "G4",
                    "midi": 67,
                    "time": 28.2355966666666,
                    "velocity": 0.2992125984251969,
                    "duration": 0.11524733333333259
                },
                {
                    "name": "C4",
                    "midi": 60,
                    "time": 28.35084399999993,
                    "velocity": 0.3543307086614173,
                    "duration": 0.11524733333333259
                },
                {
                    "name": "E4",
                    "midi": 64,
                    "time": 28.466091333333264,
                    "velocity": 0.28346456692913385,
                    "duration": 0.11524733333333259
                },
                {
                    "name": "G4",
                    "midi": 67,
                    "time": 28.581338666666596,
                    "velocity": 0.28346456692913385,
                    "duration": 0.11524733333333259
                },
                {
                    "name": "B3",
                    "midi": 59,
                    "time": 28.69658599999993,
                    "velocity": 0.3543307086614173,
                    "duration": 0.11524733333333259
                },
                {
                    "name": "D4",
                    "midi": 62,
                    "time": 28.81183333333326,
                    "velocity": 0.28346456692913385,
                    "duration": 0.11524733333333259
                },
                {
                    "name": "G4",
                    "midi": 67,
                    "time": 28.927080666666594,
                    "velocity": 0.29133858267716534,
                    "duration": 0.11524733333333259
                },
                {
                    "name": "C4",
                    "midi": 60,
                    "time": 29.042327999999927,
                    "velocity": 0.3543307086614173,
                    "duration": 0.11524733333333259
                },
                {
                    "name": "E4",
                    "midi": 64,
                    "time": 29.15757533333326,
                    "velocity": 0.28346456692913385,
                    "duration": 0.11524733333333259
                },
                {
                    "name": "G4",
                    "midi": 67,
                    "time": 29.272822666666592,
                    "velocity": 0.28346456692913385,
                    "duration": 0.11524733333333259
                },
                {
                    "name": "C4",
                    "midi": 60,
                    "time": 29.388069999999924,
                    "velocity": 0.3543307086614173,
                    "duration": 0.11524733333333259
                },
                {
                    "name": "E4",
                    "midi": 64,
                    "time": 29.503317333333257,
                    "velocity": 0.2992125984251969,
                    "duration": 0.11524733333333259
                },
                {
                    "name": "G4",
                    "midi": 67,
                    "time": 29.61856466666659,
                    "velocity": 0.2992125984251969,
                    "duration": 0.11524733333333259
                },
                {
                    "name": "C4",
                    "midi": 60,
                    "time": 29.733811999999922,
                    "velocity": 0.3543307086614173,
                    "duration": 0.11524733333333259
                },
                {
                    "name": "E4",
                    "midi": 64,
                    "time": 29.849059333333255,
                    "velocity": 0.28346456692913385,
                    "duration": 0.11524733333333259
                },
                {
                    "name": "G4",
                    "midi": 67,
                    "time": 29.964306666666587,
                    "velocity": 0.28346456692913385,
                    "duration": 0.11524733333333259
                },
                {
                    "name": "B3",
                    "midi": 59,
                    "time": 30.07955399999992,
                    "velocity": 0.3543307086614173,
                    "duration": 0.11524733333333259
                },
                {
                    "name": "D4",
                    "midi": 62,
                    "time": 30.194801333333253,
                    "velocity": 0.28346456692913385,
                    "duration": 0.11524733333333259
                },
                {
                    "name": "G4",
                    "midi": 67,
                    "time": 30.310048666666585,
                    "velocity": 0.29133858267716534,
                    "duration": 0.11524733333333259
                },
                {
                    "name": "C4",
                    "midi": 60,
                    "time": 30.425295999999918,
                    "velocity": 0.3543307086614173,
                    "duration": 0.11524733333333259
                },
                {
                    "name": "E4",
                    "midi": 64,
                    "time": 30.54054333333325,
                    "velocity": 0.28346456692913385,
                    "duration": 0.11524733333333259
                },
                {
                    "name": "G4",
                    "midi": 67,
                    "time": 30.655790666666583,
                    "velocity": 0.28346456692913385,
                    "duration": 0.11524733333333259
                },
                {
                    "name": "C4",
                    "midi": 60,
                    "time": 30.771037999999916,
                    "velocity": 0.3543307086614173,
                    "duration": 0.11524733333333259
                },
                {
                    "name": "E4",
                    "midi": 64,
                    "time": 30.886285333333248,
                    "velocity": 0.2992125984251969,
                    "duration": 0.11524733333333259
                },
                {
                    "name": "G4",
                    "midi": 67,
                    "time": 31.00153266666658,
                    "velocity": 0.2992125984251969,
                    "duration": 0.11524733333333259
                },
                {
                    "name": "C4",
                    "midi": 60,
                    "time": 31.116779999999913,
                    "velocity": 0.3543307086614173,
                    "duration": 0.11524733333333259
                },
                {
                    "name": "E4",
                    "midi": 64,
                    "time": 31.232027333333246,
                    "velocity": 0.28346456692913385,
                    "duration": 0.11524733333333259
                },
                {
                    "name": "G4",
                    "midi": 67,
                    "time": 31.34727466666658,
                    "velocity": 0.28346456692913385,
                    "duration": 0.11524733333333259
                },
                {
                    "name": "B3",
                    "midi": 59,
                    "time": 31.46252199999991,
                    "velocity": 0.3543307086614173,
                    "duration": 0.11524733333333259
                },
                {
                    "name": "D4",
                    "midi": 62,
                    "time": 31.577769333333244,
                    "velocity": 0.28346456692913385,
                    "duration": 0.11524733333333259
                },
                {
                    "name": "G4",
                    "midi": 67,
                    "time": 31.693016666666576,
                    "velocity": 0.29133858267716534,
                    "duration": 0.11524733333333259
                },
                {
                    "name": "C4",
                    "midi": 60,
                    "time": 31.80826399999991,
                    "velocity": 0.3543307086614173,
                    "duration": 0.11524733333333259
                },
                {
                    "name": "E4",
                    "midi": 64,
                    "time": 31.92351133333324,
                    "velocity": 0.28346456692913385,
                    "duration": 0.11524733333333259
                },
                {
                    "name": "G4",
                    "midi": 67,
                    "time": 32.038758666666574,
                    "velocity": 0.28346456692913385,
                    "duration": 0.11524733333333614
                },
                {
                    "name": "C4",
                    "midi": 60,
                    "time": 32.15400599999991,
                    "velocity": 0.3543307086614173,
                    "duration": 0.11524733333333614
                },
                {
                    "name": "E4",
                    "midi": 64,
                    "time": 32.269253333333246,
                    "velocity": 0.2992125984251969,
                    "duration": 0.11524733333333614
                },
                {
                    "name": "G4",
                    "midi": 67,
                    "time": 32.38450066666658,
                    "velocity": 0.30708661417322836,
                    "duration": 0.11524733333333614
                },
                {
                    "name": "C4",
                    "midi": 60,
                    "time": 32.49974799999992,
                    "velocity": 0.36220472440944884,
                    "duration": 0.11524733333333614
                },
                {
                    "name": "E4",
                    "midi": 64,
                    "time": 32.614995333333255,
                    "velocity": 0.29133858267716534,
                    "duration": 0.11524733333333614
                },
                {
                    "name": "G4",
                    "midi": 67,
                    "time": 32.73024266666659,
                    "velocity": 0.29133858267716534,
                    "duration": 0.11524733333333614
                },
                {
                    "name": "C4",
                    "midi": 60,
                    "time": 32.84548999999993,
                    "velocity": 0.3700787401574803,
                    "duration": 0.11524733333333614
                },
                {
                    "name": "D4",
                    "midi": 62,
                    "time": 32.96073733333326,
                    "velocity": 0.2992125984251969,
                    "duration": 0.11524733333333614
                },
                {
                    "name": "F#4",
                    "midi": 66,
                    "time": 33.0759846666666,
                    "velocity": 0.30708661417322836,
                    "duration": 0.11524733333333614
                },
                {
                    "name": "B3",
                    "midi": 59,
                    "time": 33.191231999999935,
                    "velocity": 0.3779527559055118,
                    "duration": 0.11524733333333614
                },
                {
                    "name": "D4",
                    "midi": 62,
                    "time": 33.30647933333327,
                    "velocity": 0.2992125984251969,
                    "duration": 0.11524733333333614
                },
                {
                    "name": "G4",
                    "midi": 67,
                    "time": 33.42172666666661,
                    "velocity": 0.30708661417322836,
                    "duration": 0.11524733333333614
                },
                {
                    "name": "B3",
                    "midi": 59,
                    "time": 33.536973999999944,
                    "velocity": 0.3858267716535433,
                    "duration": 0.11524733333333614
                },
                {
                    "name": "D4",
                    "midi": 62,
                    "time": 33.65222133333328,
                    "velocity": 0.3228346456692913,
                    "duration": 0.11524733333333614
                },
                {
                    "name": "G4",
                    "midi": 67,
                    "time": 33.767468666666616,
                    "velocity": 0.33070866141732286,
                    "duration": 0.11524733333333614
                },
                {
                    "name": "B3",
                    "midi": 59,
                    "time": 33.88271599999995,
                    "velocity": 0.3937007874015748,
                    "duration": 0.11524733333333614
                },
                {
                    "name": "D4",
                    "midi": 62,
                    "time": 33.99796333333329,
                    "velocity": 0.31496062992125984,
                    "duration": 0.11524733333333614
                },
                {
                    "name": "G4",
                    "midi": 67,
                    "time": 34.113210666666625,
                    "velocity": 0.31496062992125984,
                    "duration": 0.11524733333333614
                },
                {
                    "name": "F#3",
                    "midi": 54,
                    "time": 34.22845799999996,
                    "velocity": 0.4015748031496063,
                    "duration": 0.11524733333333614
                },
                {
                    "name": "A3",
                    "midi": 57,
                    "time": 34.3437053333333,
                    "velocity": 0.3228346456692913,
                    "duration": 0.11524733333333614
                },
                {
                    "name": "D4",
                    "midi": 62,
                    "time": 34.45895266666663,
                    "velocity": 0.33070866141732286,
                    "duration": 0.11524733333333614
                },
                {
                    "name": "G3",
                    "midi": 55,
                    "time": 34.57419999999997,
                    "velocity": 0.4094488188976378,
                    "duration": 0.11524733333333614
                },
                {
                    "name": "B3",
                    "midi": 59,
                    "time": 34.689447333333305,
                    "velocity": 0.3228346456692913,
                    "duration": 0.11524733333333614
                },
                {
                    "name": "D4",
                    "midi": 62,
                    "time": 34.80469466666664,
                    "velocity": 0.33070866141732286,
                    "duration": 0.11524733333333614
                },
                {
                    "name": "G3",
                    "midi": 55,
                    "time": 34.91994199999998,
                    "velocity": 0.41732283464566927,
                    "duration": 0.11524733333333614
                },
                {
                    "name": "B3",
                    "midi": 59,
                    "time": 35.035189333333314,
                    "velocity": 0.3464566929133858,
                    "duration": 0.11524733333333614
                },
                {
                    "name": "D4",
                    "midi": 62,
                    "time": 35.15043666666665,
                    "velocity": 0.3543307086614173,
                    "duration": 0.11524733333333614
                },
                {
                    "name": "G3",
                    "midi": 55,
                    "time": 35.265683999999986,
                    "velocity": 0.4251968503937008,
                    "duration": 0.11524733333333614
                },
                {
                    "name": "B3",
                    "midi": 59,
                    "time": 35.38093133333332,
                    "velocity": 0.33858267716535434,
                    "duration": 0.11524733333333614
                },
                {
                    "name": "D4",
                    "midi": 62,
                    "time": 35.49617866666666,
                    "velocity": 0.33858267716535434,
                    "duration": 0.11524733333333614
                },
                {
                    "name": "F#3",
                    "midi": 54,
                    "time": 35.611425999999994,
                    "velocity": 0.4251968503937008,
                    "duration": 0.11524733333333614
                },
                {
                    "name": "A3",
                    "midi": 57,
                    "time": 35.72667333333333,
                    "velocity": 0.33858267716535434,
                    "duration": 0.11524733333333614
                },
                {
                    "name": "D4",
                    "midi": 62,
                    "time": 35.84192066666667,
                    "velocity": 0.3543307086614173,
                    "duration": 0.11524733333333614
                },
                {
                    "name": "G3",
                    "midi": 55,
                    "time": 35.957168,
                    "velocity": 0.4330708661417323,
                    "duration": 0.11524733333333614
                },
                {
                    "name": "B3",
                    "midi": 59,
                    "time": 36.07241533333334,
                    "velocity": 0.3464566929133858,
                    "duration": 0.11524733333333614
                },
                {
                    "name": "D4",
                    "midi": 62,
                    "time": 36.187662666666675,
                    "velocity": 0.3543307086614173,
                    "duration": 0.11524733333333614
                },
                {
                    "name": "G3",
                    "midi": 55,
                    "time": 36.30291000000001,
                    "velocity": 0.4409448818897638,
                    "duration": 0.11524733333333614
                },
                {
                    "name": "B3",
                    "midi": 59,
                    "time": 36.41815733333335,
                    "velocity": 0.3700787401574803,
                    "duration": 0.11524733333333614
                },
                {
                    "name": "D4",
                    "midi": 62,
                    "time": 36.533404666666684,
                    "velocity": 0.3779527559055118,
                    "duration": 0.11524733333333614
                },
                {
                    "name": "G3",
                    "midi": 55,
                    "time": 36.64865200000002,
                    "velocity": 0.44881889763779526,
                    "duration": 0.11524733333333614
                },
                {
                    "name": "B3",
                    "midi": 59,
                    "time": 36.763899333333356,
                    "velocity": 0.36220472440944884,
                    "duration": 0.11524733333333614
                },
                {
                    "name": "D4",
                    "midi": 62,
                    "time": 36.87914666666669,
                    "velocity": 0.36220472440944884,
                    "duration": 0.11524733333333614
                },
                {
                    "name": "G3",
                    "midi": 55,
                    "time": 36.99439400000003,
                    "velocity": 0.44881889763779526,
                    "duration": 0.11524733333333614
                },
                {
                    "name": "B3",
                    "midi": 59,
                    "time": 37.109641333333364,
                    "velocity": 0.3937007874015748,
                    "duration": 0.11524733333333614
                },
                {
                    "name": "D4",
                    "midi": 62,
                    "time": 37.2248886666667,
                    "velocity": 0.3937007874015748,
                    "duration": 0.11524733333333614
                },
                {
                    "name": "F#3",
                    "midi": 54,
                    "time": 37.34013600000004,
                    "velocity": 0.5039370078740157,
                    "duration": 0.11524733333333614
                },
                {
                    "name": "A3",
                    "midi": 57,
                    "time": 37.45538333333337,
                    "velocity": 0.41732283464566927,
                    "duration": 0.11524733333333614
                },
                {
                    "name": "D4",
                    "midi": 62,
                    "time": 37.57063066666671,
                    "velocity": 0.3543307086614173,
                    "duration": 0.11524733333333614
                },
                {
                    "name": "F#3",
                    "midi": 54,
                    "time": 37.685878000000045,
                    "velocity": 0.4409448818897638,
                    "duration": 0.11524733333333614
                },
                {
                    "name": "A3",
                    "midi": 57,
                    "time": 37.80112533333338,
                    "velocity": 0.3543307086614173,
                    "duration": 0.11524733333333614
                },
                {
                    "name": "D4",
                    "midi": 62,
                    "time": 37.91637266666672,
                    "velocity": 0.3543307086614173,
                    "duration": 0.11524733333333614
                },
                {
                    "name": "G3",
                    "midi": 55,
                    "time": 38.03162000000005,
                    "velocity": 0.4409448818897638,
                    "duration": 0.11524733333333614
                },
                {
                    "name": "B3",
                    "midi": 59,
                    "time": 38.14686733333339,
                    "velocity": 0.33858267716535434,
                    "duration": 0.11524733333333614
                },
                {
                    "name": "D4",
                    "midi": 62,
                    "time": 38.262114666666726,
                    "velocity": 0.3464566929133858,
                    "duration": 0.11524733333333614
                },
                {
                    "name": "G3",
                    "midi": 55,
                    "time": 38.37736200000006,
                    "velocity": 0.4409448818897638,
                    "duration": 0.11524733333333614
                },
                {
                    "name": "B3",
                    "midi": 59,
                    "time": 38.4926093333334,
                    "velocity": 0.36220472440944884,
                    "duration": 0.11524733333333614
                },
                {
                    "name": "D4",
                    "midi": 62,
                    "time": 38.607856666666734,
                    "velocity": 0.36220472440944884,
                    "duration": 0.11524733333333614
                },
                {
                    "name": "C4",
                    "midi": 60,
                    "time": 38.72310400000007,
                    "velocity": 0.4409448818897638,
                    "duration": 0.11524733333333614
                },
                {
                    "name": "D4",
                    "midi": 62,
                    "time": 38.83835133333341,
                    "velocity": 0.33858267716535434,
                    "duration": 0.11524733333333614
                },
                {
                    "name": "F#4",
                    "midi": 66,
                    "time": 38.95359866666674,
                    "velocity": 0.3543307086614173,
                    "duration": 0.11524733333333614
                },
                {
                    "name": "C4",
                    "midi": 60,
                    "time": 39.06884600000008,
                    "velocity": 0.4409448818897638,
                    "duration": 0.11524733333333614
                },
                {
                    "name": "D4",
                    "midi": 62,
                    "time": 39.184093333333415,
                    "velocity": 0.3543307086614173,
                    "duration": 0.11524733333333614
                },
                {
                    "name": "F#4",
                    "midi": 66,
                    "time": 39.29934066666675,
                    "velocity": 0.3543307086614173,
                    "duration": 0.11524733333333614
                },
                {
                    "name": "B3",
                    "midi": 59,
                    "time": 39.41458800000009,
                    "velocity": 0.4409448818897638,
                    "duration": 0.11524733333333614
                },
                {
                    "name": "D4",
                    "midi": 62,
                    "time": 39.52983533333342,
                    "velocity": 0.33858267716535434,
                    "duration": 0.11524733333333614
                },
                {
                    "name": "G4",
                    "midi": 67,
                    "time": 39.64508266666676,
                    "velocity": 0.3464566929133858,
                    "duration": 0.11524733333333614
                },
                {
                    "name": "B3",
                    "midi": 59,
                    "time": 39.760330000000096,
                    "velocity": 0.30708661417322836,
                    "duration": 0.11524733333333614
                },
                {
                    "name": "D4",
                    "midi": 62,
                    "time": 39.87557733333343,
                    "velocity": 0.2755905511811024,
                    "duration": 0.11524733333333614
                },
                {
                    "name": "G4",
                    "midi": 67,
                    "time": 39.99082466666677,
                    "velocity": 0.2755905511811024,
                    "duration": 0.11524733333333614
                },
                {
                    "name": "F#3",
                    "midi": 54,
                    "time": 40.106072000000104,
                    "velocity": 0.30708661417322836,
                    "duration": 0.11524733333333614
                },
                {
                    "name": "A3",
                    "midi": 57,
                    "time": 40.22131933333344,
                    "velocity": 0.23622047244094488,
                    "duration": 0.11524733333333614
                },
                {
                    "name": "D4",
                    "midi": 62,
                    "time": 40.336566666666776,
                    "velocity": 0.2440944881889764,
                    "duration": 0.11524733333333614
                },
                {
                    "name": "F#3",
                    "midi": 54,
                    "time": 40.45181400000011,
                    "velocity": 0.30708661417322836,
                    "duration": 0.11524733333333614
                },
                {
                    "name": "A3",
                    "midi": 57,
                    "time": 40.56706133333345,
                    "velocity": 0.2440944881889764,
                    "duration": 0.11524733333333614
                },
                {
                    "name": "D4",
                    "midi": 62,
                    "time": 40.682308666666785,
                    "velocity": 0.2440944881889764,
                    "duration": 0.11524733333333614
                },
                {
                    "name": "G3",
                    "midi": 55,
                    "time": 40.79755600000012,
                    "velocity": 0.30708661417322836,
                    "duration": 0.11524733333333614
                },
                {
                    "name": "B3",
                    "midi": 59,
                    "time": 40.91280333333346,
                    "velocity": 0.23622047244094488,
                    "duration": 0.11524733333333614
                },
                {
                    "name": "D4",
                    "midi": 62,
                    "time": 41.02805066666679,
                    "velocity": 0.23622047244094488,
                    "duration": 0.11524733333333614
                },
                {
                    "name": "G3",
                    "midi": 55,
                    "time": 41.14329800000013,
                    "velocity": 0.30708661417322836,
                    "duration": 0.11524733333333614
                },
                {
                    "name": "B3",
                    "midi": 59,
                    "time": 41.258545333333466,
                    "velocity": 0.25196850393700787,
                    "duration": 0.11524733333333614
                },
                {
                    "name": "D4",
                    "midi": 62,
                    "time": 41.3737926666668,
                    "velocity": 0.25196850393700787,
                    "duration": 0.11524733333333614
                },
                {
                    "name": "C4",
                    "midi": 60,
                    "time": 41.48904000000014,
                    "velocity": 0.30708661417322836,
                    "duration": 0.11524733333333614
                },
                {
                    "name": "D4",
                    "midi": 62,
                    "time": 41.604287333333474,
                    "velocity": 0.23622047244094488,
                    "duration": 0.11524733333333614
                },
                {
                    "name": "F#4",
                    "midi": 66,
                    "time": 41.71953466666681,
                    "velocity": 0.2440944881889764,
                    "duration": 0.11524733333333614
                },
                {
                    "name": "C4",
                    "midi": 60,
                    "time": 41.834782000000146,
                    "velocity": 0.30708661417322836,
                    "duration": 0.11524733333333614
                },
                {
                    "name": "D4",
                    "midi": 62,
                    "time": 41.95002933333348,
                    "velocity": 0.2440944881889764,
                    "duration": 0.11524733333333614
                },
                {
                    "name": "F#4",
                    "midi": 66,
                    "time": 42.06527666666682,
                    "velocity": 0.2440944881889764,
                    "duration": 0.11524733333333614
                },
                {
                    "name": "B3",
                    "midi": 59,
                    "time": 42.180524000000155,
                    "velocity": 0.30708661417322836,
                    "duration": 0.11524733333333614
                },
                {
                    "name": "D4",
                    "midi": 62,
                    "time": 42.29577133333349,
                    "velocity": 0.23622047244094488,
                    "duration": 0.11524733333333614
                },
                {
                    "name": "G4",
                    "midi": 67,
                    "time": 42.41101866666683,
                    "velocity": 0.23622047244094488,
                    "duration": 0.11524733333333614
                },
                {
                    "name": "B3",
                    "midi": 59,
                    "time": 42.52626600000016,
                    "velocity": 0.4251968503937008,
                    "duration": 0.11524733333333614
                },
                {
                    "name": "D4",
                    "midi": 62,
                    "time": 42.6415133333335,
                    "velocity": 0.33858267716535434,
                    "duration": 0.11524733333333614
                },
                {
                    "name": "G4",
                    "midi": 67,
                    "time": 42.756760666666835,
                    "velocity": 0.3464566929133858,
                    "duration": 0.11524733333333614
                },
                {
                    "name": "C4",
                    "midi": 60,
                    "time": 42.87200800000017,
                    "velocity": 0.4251968503937008,
                    "duration": 0.11524733333333614
                },
                {
                    "name": "E4",
                    "midi": 64,
                    "time": 42.98725533333351,
                    "velocity": 0.31496062992125984,
                    "duration": 0.11524733333333614
                },
                {
                    "name": "A4",
                    "midi": 69,
                    "time": 43.102502666666844,
                    "velocity": 0.3228346456692913,
                    "duration": 0.11524733333333614
                },
                {
                    "name": "C4",
                    "midi": 60,
                    "time": 43.21775000000018,
                    "velocity": 0.4330708661417323,
                    "duration": 0.11524733333333614
                },
                {
                    "name": "E4",
                    "midi": 64,
                    "time": 43.332997333333516,
                    "velocity": 0.33070866141732286,
                    "duration": 0.11524733333333614
                },
                {
                    "name": "A4",
                    "midi": 69,
                    "time": 43.44824466666685,
                    "velocity": 0.33070866141732286,
                    "duration": 0.11524733333333614
                },
                {
                    "name": "C#4",
                    "midi": 61,
                    "time": 43.56349200000019,
                    "velocity": 0.41732283464566927,
                    "duration": 0.11524733333333614
                },
                {
                    "name": "E4",
                    "midi": 64,
                    "time": 43.678739333333525,
                    "velocity": 0.3228346456692913,
                    "duration": 0.11524733333333614
                },
                {
                    "name": "A4",
                    "midi": 69,
                    "time": 43.79398666666686,
                    "velocity": 0.3228346456692913,
                    "duration": 0.11524733333333614
                },
                {
                    "name": "C#4",
                    "midi": 61,
                    "time": 43.9092340000002,
                    "velocity": 0.4015748031496063,
                    "duration": 0.11524733333333614
                },
                {
                    "name": "E4",
                    "midi": 64,
                    "time": 44.02448133333353,
                    "velocity": 0.33070866141732286,
                    "duration": 0.11524733333333614
                },
                {
                    "name": "A4",
                    "midi": 69,
                    "time": 44.13972866666687,
                    "velocity": 0.33858267716535434,
                    "duration": 0.11524733333333614
                },
                {
                    "name": "D4",
                    "midi": 62,
                    "time": 44.254976000000205,
                    "velocity": 0.4566929133858268,
                    "duration": 0.3457420000000013
                },
                {
                    "name": "D4",
                    "midi": 62,
                    "time": 44.86002450000021,
                    "velocity": 0.4881889763779528,
                    "duration": 0.08643550000000033
                },
                {
                    "name": "F#4",
                    "midi": 66,
                    "time": 44.94646000000021,
                    "velocity": 0.5354330708661418,
                    "duration": 0.259306500000001
                },
                {
                    "name": "D4",
                    "midi": 62,
                    "time": 45.20576650000021,
                    "velocity": 0.4881889763779528,
                    "duration": 0.08643550000000033
                },
                {
                    "name": "A4",
                    "midi": 69,
                    "time": 45.29220200000021,
                    "velocity": 0.5354330708661418,
                    "duration": 0.259306500000001
                },
                {
                    "name": "F#4",
                    "midi": 66,
                    "time": 45.55150850000021,
                    "velocity": 0.5039370078740157,
                    "duration": 0.08643550000000033
                },
                {
                    "name": "D5",
                    "midi": 74,
                    "time": 45.63794400000021,
                    "velocity": 0.6299212598425197,
                    "duration": 0.3457420000000013
                },
                {
                    "name": "D3",
                    "midi": 50,
                    "time": 46.24299250000021,
                    "velocity": 0.4881889763779528,
                    "duration": 0.08643550000000033
                },
                {
                    "name": "F#3",
                    "midi": 54,
                    "time": 46.32942800000021,
                    "velocity": 0.5590551181102362,
                    "duration": 0.11524733333333614
                },
                {
                    "name": "D3",
                    "midi": 50,
                    "time": 46.44467533333355,
                    "velocity": 0.4881889763779528,
                    "duration": 0.11524733333333614
                },
                {
                    "name": "F#3",
                    "midi": 54,
                    "time": 46.559922666666886,
                    "velocity": 0.4881889763779528,
                    "duration": 0.11524733333333614
                },
                {
                    "name": "A3",
                    "midi": 57,
                    "time": 46.67517000000022,
                    "velocity": 0.5354330708661418,
                    "duration": 0.11524733333333614
                },
                {
                    "name": "F#3",
                    "midi": 54,
                    "time": 46.79041733333356,
                    "velocity": 0.5039370078740157,
                    "duration": 0.11524733333333614
                },
                {
                    "name": "A3",
                    "midi": 57,
                    "time": 46.905664666666894,
                    "velocity": 0.5039370078740157,
                    "duration": 0.11524733333333614
                },
                {
                    "name": "D4",
                    "midi": 62,
                    "time": 47.02091200000023,
                    "velocity": 0.5826771653543307,
                    "duration": 0.3457420000000013
                },
                {
                    "name": "D2",
                    "midi": 38,
                    "time": 47.71239600000023,
                    "velocity": 0.6614173228346457,
                    "duration": 0.518613000000002
                },
                {
                    "name": "D2",
                    "midi": 38,
                    "time": 48.231009000000235,
                    "velocity": 0.6141732283464567,
                    "duration": 0.17287100000000066
                },
                {
                    "name": "D2",
                    "midi": 38,
                    "time": 48.403880000000235,
                    "velocity": 0.6614173228346457,
                    "duration": 0.3457420000000013
                },
                {
                    "name": "B3",
                    "midi": 59,
                    "time": 49.786848000000234,
                    "velocity": 0.31496062992125984,
                    "duration": 0.11524733333333614
                },
                {
                    "name": "D4",
                    "midi": 62,
                    "time": 49.90425622083357,
                    "velocity": 0.25196850393700787,
                    "duration": 0.11524733333332904
                },
                {
                    "name": "G4",
                    "midi": 67,
                    "time": 50.0173426666669,
                    "velocity": 0.25196850393700787,
                    "duration": 0.11524733333332904
                },
                {
                    "name": "B3",
                    "midi": 59,
                    "time": 50.13259000000023,
                    "velocity": 0.31496062992125984,
                    "duration": 0.11524733333333614
                },
                {
                    "name": "D4",
                    "midi": 62,
                    "time": 50.24999822083356,
                    "velocity": 0.2677165354330709,
                    "duration": 0.11524733333332904
                },
                {
                    "name": "G4",
                    "midi": 67,
                    "time": 50.36308466666689,
                    "velocity": 0.2677165354330709,
                    "duration": 0.11524733333332904
                },
                {
                    "name": "B3",
                    "midi": 59,
                    "time": 50.47833200000022,
                    "velocity": 0.31496062992125984,
                    "duration": 0.11524733333333614
                },
                {
                    "name": "D4",
                    "midi": 62,
                    "time": 50.595740220833555,
                    "velocity": 0.25196850393700787,
                    "duration": 0.11524733333332904
                },
                {
                    "name": "G4",
                    "midi": 67,
                    "time": 50.70882666666689,
                    "velocity": 0.25196850393700787,
                    "duration": 0.11524733333332904
                },
                {
                    "name": "C4",
                    "midi": 60,
                    "time": 50.824074000000216,
                    "velocity": 0.31496062992125984,
                    "duration": 0.11524733333333614
                },
                {
                    "name": "D4",
                    "midi": 62,
                    "time": 50.93932133333355,
                    "velocity": 0.25196850393700787,
                    "duration": 0.11524733333333614
                },
                {
                    "name": "F#4",
                    "midi": 66,
                    "time": 51.05456866666689,
                    "velocity": 0.25984251968503935,
                    "duration": 0.11524733333333614
                },
                {
                    "name": "B3",
                    "midi": 59,
                    "time": 51.169816000000225,
                    "velocity": 0.31496062992125984,
                    "duration": 0.11524733333333614
                },
                {
                    "name": "D4",
                    "midi": 62,
                    "time": 51.28146185416689,
                    "velocity": 0.25196850393700787,
                    "duration": 0.11524733333333614
                },
                {
                    "name": "G4",
                    "midi": 67,
                    "time": 51.4003106666669,
                    "velocity": 0.25196850393700787,
                    "duration": 0.11524733333333614
                },
                {
                    "name": "B3",
                    "midi": 59,
                    "time": 51.51555800000023,
                    "velocity": 0.3228346456692913,
                    "duration": 0.11524733333333614
                },
                {
                    "name": "D4",
                    "midi": 62,
                    "time": 51.6272038541669,
                    "velocity": 0.2755905511811024,
                    "duration": 0.11524733333333614
                },
                {
                    "name": "G4",
                    "midi": 67,
                    "time": 51.746052666666905,
                    "velocity": 0.28346456692913385,
                    "duration": 0.11524733333333614
                },
                {
                    "name": "B3",
                    "midi": 59,
                    "time": 51.86130000000024,
                    "velocity": 0.33858267716535434,
                    "duration": 0.11524733333333614
                },
                {
                    "name": "D4",
                    "midi": 62,
                    "time": 51.97654733333358,
                    "velocity": 0.2755905511811024,
                    "duration": 0.11524733333333614
                },
                {
                    "name": "G4",
                    "midi": 67,
                    "time": 52.091794666666914,
                    "velocity": 0.2755905511811024,
                    "duration": 0.11524733333333614
                },
                {
                    "name": "C4",
                    "midi": 60,
                    "time": 52.20704200000025,
                    "velocity": 0.3543307086614173,
                    "duration": 0.11524733333333614
                },
                {
                    "name": "D4",
                    "midi": 62,
                    "time": 52.322289333333586,
                    "velocity": 0.29133858267716534,
                    "duration": 0.11524733333333614
                },
                {
                    "name": "F#4",
                    "midi": 66,
                    "time": 52.43753666666692,
                    "velocity": 0.2992125984251969,
                    "duration": 0.11524733333333614
                },
                {
                    "name": "B3",
                    "midi": 59,
                    "time": 52.55278400000026,
                    "velocity": 0.3700787401574803,
                    "duration": 0.11524733333333614
                },
                {
                    "name": "D4",
                    "midi": 62,
                    "time": 52.668031333333595,
                    "velocity": 0.2992125984251969,
                    "duration": 0.11524733333333614
                },
                {
                    "name": "G4",
                    "midi": 67,
                    "time": 52.78327866666693,
                    "velocity": 0.30708661417322836,
                    "duration": 0.11524733333333614
                },
                {
                    "name": "B3",
                    "midi": 59,
                    "time": 52.89852600000027,
                    "velocity": 0.3858267716535433,
                    "duration": 0.11524733333333614
                },
                {
                    "name": "D4",
                    "midi": 62,
                    "time": 53.0137733333336,
                    "velocity": 0.3228346456692913,
                    "duration": 0.11524733333333614
                },
                {
                    "name": "G4",
                    "midi": 67,
                    "time": 53.12902066666694,
                    "velocity": 0.33070866141732286,
                    "duration": 0.11524733333333614
                },
                {
                    "name": "B3",
                    "midi": 59,
                    "time": 53.244268000000275,
                    "velocity": 0.3937007874015748,
                    "duration": 0.11524733333333614
                },
                {
                    "name": "D4",
                    "midi": 62,
                    "time": 53.35951533333361,
                    "velocity": 0.31496062992125984,
                    "duration": 0.11524733333333614
                },
                {
                    "name": "G4",
                    "midi": 67,
                    "time": 53.47476266666695,
                    "velocity": 0.31496062992125984,
                    "duration": 0.11524733333333614
                },
                {
                    "name": "C4",
                    "midi": 60,
                    "time": 53.590010000000284,
                    "velocity": 0.4015748031496063,
                    "duration": 0.11524733333333614
                },
                {
                    "name": "D4",
                    "midi": 62,
                    "time": 53.70525733333362,
                    "velocity": 0.3228346456692913,
                    "duration": 0.11524733333333614
                },
                {
                    "name": "F#4",
                    "midi": 66,
                    "time": 53.820504666666956,
                    "velocity": 0.33070866141732286,
                    "duration": 0.11524733333333614
                },
                {
                    "name": "B3",
                    "midi": 59,
                    "time": 53.93575200000029,
                    "velocity": 0.4094488188976378,
                    "duration": 0.11524733333333614
                },
                {
                    "name": "D4",
                    "midi": 62,
                    "time": 54.05099933333363,
                    "velocity": 0.3228346456692913,
                    "duration": 0.11524733333333614
                },
                {
                    "name": "G4",
                    "midi": 67,
                    "time": 54.166246666666964,
                    "velocity": 0.33070866141732286,
                    "duration": 0.11524733333333614
                },
                {
                    "name": "B3",
                    "midi": 59,
                    "time": 54.2814940000003,
                    "velocity": 0.4251968503937008,
                    "duration": 0.11524733333333614
                },
                {
                    "name": "D4",
                    "midi": 62,
                    "time": 54.39674133333364,
                    "velocity": 0.3543307086614173,
                    "duration": 0.11524733333333614
                },
                {
                    "name": "G4",
                    "midi": 67,
                    "time": 54.51198866666697,
                    "velocity": 0.36220472440944884,
                    "duration": 0.11524733333333614
                },
                {
                    "name": "F#3",
                    "midi": 54,
                    "time": 54.62723600000031,
                    "velocity": 0.4409448818897638,
                    "duration": 0.11524733333333614
                },
                {
                    "name": "A3",
                    "midi": 57,
                    "time": 54.742483333333645,
                    "velocity": 0.3543307086614173,
                    "duration": 0.11524733333333614
                },
                {
                    "name": "D4",
                    "midi": 62,
                    "time": 54.85773066666698,
                    "velocity": 0.3543307086614173,
                    "duration": 0.11524733333333614
                },
                {
                    "name": "F#3",
                    "midi": 54,
                    "time": 54.97297800000032,
                    "velocity": 0.44881889763779526,
                    "duration": 0.11524733333333614
                },
                {
                    "name": "A3",
                    "midi": 57,
                    "time": 55.088225333333654,
                    "velocity": 0.36220472440944884,
                    "duration": 0.11524733333333614
                },
                {
                    "name": "D4",
                    "midi": 62,
                    "time": 55.20347266666699,
                    "velocity": 0.3779527559055118,
                    "duration": 0.11524733333333614
                },
                {
                    "name": "G3",
                    "midi": 55,
                    "time": 55.318720000000326,
                    "velocity": 0.4645669291338583,
                    "duration": 0.11524733333333614
                },
                {
                    "name": "B3",
                    "midi": 59,
                    "time": 55.43396733333366,
                    "velocity": 0.3779527559055118,
                    "duration": 0.11524733333333614
                },
                {
                    "name": "D4",
                    "midi": 62,
                    "time": 55.549214666667,
                    "velocity": 0.3858267716535433,
                    "duration": 0.11524733333333614
                },
                {
                    "name": "G3",
                    "midi": 55,
                    "time": 55.664462000000334,
                    "velocity": 0.4881889763779528,
                    "duration": 0.11524733333333614
                },
                {
                    "name": "B3",
                    "midi": 59,
                    "time": 55.77970933333367,
                    "velocity": 0.4094488188976378,
                    "duration": 0.11524733333333614
                },
                {
                    "name": "D4",
                    "midi": 62,
                    "time": 55.89495666666701,
                    "velocity": 0.4251968503937008,
                    "duration": 0.11524733333333614
                },
                {
                    "name": "E3",
                    "midi": 52,
                    "time": 56.01020400000034,
                    "velocity": 0.5039370078740157,
                    "duration": 0.11524733333333614
                },
                {
                    "name": "G3",
                    "midi": 55,
                    "time": 56.12545133333368,
                    "velocity": 0.4094488188976378,
                    "duration": 0.11524733333333614
                },
                {
                    "name": "C4",
                    "midi": 60,
                    "time": 56.240698666667015,
                    "velocity": 0.4094488188976378,
                    "duration": 0.11524733333333614
                },
                {
                    "name": "E3",
                    "midi": 52,
                    "time": 56.35594600000035,
                    "velocity": 0.5196850393700787,
                    "duration": 0.11524733333333614
                },
                {
                    "name": "G3",
                    "midi": 55,
                    "time": 56.47119333333369,
                    "velocity": 0.4566929133858268,
                    "duration": 0.11524733333333614
                },
                {
                    "name": "C4",
                    "midi": 60,
                    "time": 56.58644066666702,
                    "velocity": 0.4645669291338583,
                    "duration": 0.11524733333333614
                },
                {
                    "name": "B2",
                    "midi": 47,
                    "time": 56.70168800000036,
                    "velocity": 0.5275590551181102,
                    "duration": 0.11524733333332904
                },
                {
                    "name": "D3",
                    "midi": 50,
                    "time": 56.816215037500356,
                    "velocity": 0.47244094488188976,
                    "duration": 0.11524733333332904
                },
                {
                    "name": "G3",
                    "midi": 55,
                    "time": 56.93074207500035,
                    "velocity": 0.48031496062992124,
                    "duration": 0.11524733333332904
                },
                {
                    "name": "B2",
                    "midi": 47,
                    "time": 57.04526911250035,
                    "velocity": 0.5354330708661418,
                    "duration": 0.11524733333332904
                },
                {
                    "name": "D3",
                    "midi": 50,
                    "time": 57.159796150000346,
                    "velocity": 0.4881889763779528,
                    "duration": 0.11524733333332904
                },
                {
                    "name": "G3",
                    "midi": 55,
                    "time": 57.27648407500034,
                    "velocity": 0.4881889763779528,
                    "duration": 0.11524733333333614
                },
                {
                    "name": "B2",
                    "midi": 47,
                    "time": 57.39317200000034,
                    "velocity": 0.5590551181102362,
                    "duration": 0.3457420000000013
                },
                {
                    "name": "C3",
                    "midi": 48,
                    "time": 58.084656000000344,
                    "velocity": 0.5669291338582677,
                    "duration": 0.3457420000000013
                },
                {
                    "name": "C2",
                    "midi": 36,
                    "time": 58.084656000000344,
                    "velocity": 0.5669291338582677,
                    "duration": 0.3457420000000013
                },
                {
                    "name": "B4",
                    "midi": 71,
                    "time": 60.85059200000035,
                    "velocity": 0.33070866141732286,
                    "duration": 0.6914840000000027
                },
                {
                    "name": "D4",
                    "midi": 62,
                    "time": 60.85059200000035,
                    "velocity": 0.33070866141732286,
                    "duration": 1.3829680000000053
                },
                {
                    "name": "C5",
                    "midi": 72,
                    "time": 61.54207600000035,
                    "velocity": 0.33858267716535434,
                    "duration": 0.6914840000000027
                },
                {
                    "name": "G4",
                    "midi": 67,
                    "time": 62.23356000000035,
                    "velocity": 0.31496062992125984,
                    "duration": 0.3457420000000013
                },
                {
                    "name": "B4",
                    "midi": 71,
                    "time": 62.23356000000035,
                    "velocity": 0.31496062992125984,
                    "duration": 0.3457420000000013
                },
                {
                    "name": "G5",
                    "midi": 79,
                    "time": 63.270786000000356,
                    "velocity": 0.28346456692913385,
                    "duration": 0.3457420000000013
                },
                {
                    "name": "F#5",
                    "midi": 78,
                    "time": 63.61652800000036,
                    "velocity": 0.2992125984251969,
                    "duration": 0.08643550000000033
                },
                {
                    "name": "A5",
                    "midi": 81,
                    "time": 63.61652800000036,
                    "velocity": 0.2992125984251969,
                    "duration": 0.08643550000000033
                },
                {
                    "name": "E5",
                    "midi": 76,
                    "time": 64.65375400000036,
                    "velocity": 0.28346456692913385,
                    "duration": 0.3457420000000013
                },
                {
                    "name": "F#5",
                    "midi": 78,
                    "time": 64.99949600000036,
                    "velocity": 0.2992125984251969,
                    "duration": 0.08643549999999323
                },
                {
                    "name": "D5",
                    "midi": 74,
                    "time": 64.99949600000036,
                    "velocity": 0.2992125984251969,
                    "duration": 0.08643549999999323
                },
                {
                    "name": "C5",
                    "midi": 72,
                    "time": 66.03672200000035,
                    "velocity": 0.28346456692913385,
                    "duration": 0.3457420000000013
                },
                {
                    "name": "B4",
                    "midi": 71,
                    "time": 66.38246400000035,
                    "velocity": 0.2992125984251969,
                    "duration": 0.08643549999999323
                },
                {
                    "name": "D5",
                    "midi": 74,
                    "time": 66.38246400000035,
                    "velocity": 0.2992125984251969,
                    "duration": 0.08643549999999323
                },
                {
                    "name": "B4",
                    "midi": 71,
                    "time": 67.41969000000034,
                    "velocity": 0.28346456692913385,
                    "duration": 0.3457420000000013
                },
                {
                    "name": "G4",
                    "midi": 67,
                    "time": 67.41969000000034,
                    "velocity": 0.28346456692913385,
                    "duration": 0.3457420000000013
                },
                {
                    "name": "C5",
                    "midi": 72,
                    "time": 67.76543200000035,
                    "velocity": 0.3228346456692913,
                    "duration": 0.08643549999999323
                },
                {
                    "name": "C4",
                    "midi": 60,
                    "time": 67.76543200000035,
                    "velocity": 0.3228346456692913,
                    "duration": 0.08643549999999323
                },
                {
                    "name": "A4",
                    "midi": 69,
                    "time": 68.45691600000033,
                    "velocity": 0.2992125984251969,
                    "duration": 0.08643549999999323
                },
                {
                    "name": "D4",
                    "midi": 62,
                    "time": 68.45691600000033,
                    "velocity": 0.2992125984251969,
                    "duration": 0.08643549999999323
                },
                {
                    "name": "B4",
                    "midi": 71,
                    "time": 69.14840000000032,
                    "velocity": 0.3228346456692913,
                    "duration": 0.08643549999999323
                },
                {
                    "name": "G4",
                    "midi": 67,
                    "time": 69.14840000000032,
                    "velocity": 0.3228346456692913,
                    "duration": 0.08643549999999323
                },
                {
                    "name": "G5",
                    "midi": 79,
                    "time": 70.18562600000031,
                    "velocity": 0.5511811023622047,
                    "duration": 0.3457420000000013
                },
                {
                    "name": "F#5",
                    "midi": 78,
                    "time": 70.53136800000031,
                    "velocity": 0.3464566929133858,
                    "duration": 0.08643549999999323
                },
                {
                    "name": "F#5",
                    "midi": 78,
                    "time": 70.8771100000003,
                    "velocity": 0.2755905511811024,
                    "duration": 0.08643549999999323
                },
                {
                    "name": "F#5",
                    "midi": 78,
                    "time": 71.22285200000029,
                    "velocity": 0.2755905511811024,
                    "duration": 0.08643549999999323
                },
                {
                    "name": "G5",
                    "midi": 79,
                    "time": 71.56859400000027,
                    "velocity": 0.5511811023622047,
                    "duration": 0.3457420000000013
                },
                {
                    "name": "F#5",
                    "midi": 78,
                    "time": 71.91433600000028,
                    "velocity": 0.3464566929133858,
                    "duration": 0.08643549999999323
                },
                {
                    "name": "F#5",
                    "midi": 78,
                    "time": 72.26007800000026,
                    "velocity": 0.25196850393700787,
                    "duration": 0.08643549999999323
                },
                {
                    "name": "F#5",
                    "midi": 78,
                    "time": 72.60582000000025,
                    "velocity": 0.25196850393700787,
                    "duration": 0.08643549999999323
                },
                {
                    "name": "E5",
                    "midi": 76,
                    "time": 72.95156200000024,
                    "velocity": 0.49606299212598426,
                    "duration": 0.3457420000000013
                },
                {
                    "name": "D5",
                    "midi": 74,
                    "time": 73.29730400000024,
                    "velocity": 0.30708661417322836,
                    "duration": 0.08643549999999323
                },
                {
                    "name": "D5",
                    "midi": 74,
                    "time": 73.64304600000023,
                    "velocity": 0.23622047244094488,
                    "duration": 0.08643549999999323
                },
                {
                    "name": "D5",
                    "midi": 74,
                    "time": 73.98878800000021,
                    "velocity": 0.23622047244094488,
                    "duration": 0.08643549999999323
                },
                {
                    "name": "E5",
                    "midi": 76,
                    "time": 74.3345300000002,
                    "velocity": 0.4566929133858268,
                    "duration": 0.3457420000000013
                },
                {
                    "name": "D5",
                    "midi": 74,
                    "time": 74.6802720000002,
                    "velocity": 0.30708661417322836,
                    "duration": 0.08643549999999323
                },
                {
                    "name": "D5",
                    "midi": 74,
                    "time": 75.02601400000019,
                    "velocity": 0.2204724409448819,
                    "duration": 0.08643549999999323
                },
                {
                    "name": "D5",
                    "midi": 74,
                    "time": 75.37175600000018,
                    "velocity": 0.2204724409448819,
                    "duration": 0.08643549999999323
                },
                {
                    "name": "C5",
                    "midi": 72,
                    "time": 75.71749800000016,
                    "velocity": 0.4409448818897638,
                    "duration": 0.3457420000000013
                },
                {
                    "name": "B4",
                    "midi": 71,
                    "time": 76.06324000000016,
                    "velocity": 0.30708661417322836,
                    "duration": 0.08643549999999323
                },
                {
                    "name": "B4",
                    "midi": 71,
                    "time": 76.40898200000015,
                    "velocity": 0.2204724409448819,
                    "duration": 0.08643549999999323
                },
                {
                    "name": "B4",
                    "midi": 71,
                    "time": 76.75472400000014,
                    "velocity": 0.2283464566929134,
                    "duration": 0.08643549999999323
                },
                {
                    "name": "C5",
                    "midi": 72,
                    "time": 77.10046600000013,
                    "velocity": 0.4409448818897638,
                    "duration": 0.3457420000000013
                },
                {
                    "name": "B4",
                    "midi": 71,
                    "time": 77.44620800000013,
                    "velocity": 0.30708661417322836,
                    "duration": 0.08643549999999323
                },
                {
                    "name": "B4",
                    "midi": 71,
                    "time": 77.79195000000011,
                    "velocity": 0.2204724409448819,
                    "duration": 0.08643549999999323
                },
                {
                    "name": "B4",
                    "midi": 71,
                    "time": 78.1376920000001,
                    "velocity": 0.2283464566929134,
                    "duration": 0.08643549999999323
                },
                {
                    "name": "C5",
                    "midi": 72,
                    "time": 78.48343400000009,
                    "velocity": 0.4409448818897638,
                    "duration": 0.3457420000000013
                },
                {
                    "name": "B4",
                    "midi": 71,
                    "time": 78.82917600000009,
                    "velocity": 0.30708661417322836,
                    "duration": 0.08643549999999323
                },
                {
                    "name": "F#4",
                    "midi": 66,
                    "time": 79.17491800000008,
                    "velocity": 0.28346456692913385,
                    "duration": 0.08643549999999323
                },
                {
                    "name": "G4",
                    "midi": 67,
                    "time": 79.52066000000006,
                    "velocity": 0.3228346456692913,
                    "duration": 0.08643549999999323
                },
                {
                    "name": "A4",
                    "midi": 69,
                    "time": 79.86640200000005,
                    "velocity": 0.3700787401574803,
                    "duration": 0.08643549999999323
                },
                {
                    "name": "B4",
                    "midi": 71,
                    "time": 80.21214400000004,
                    "velocity": 0.47244094488188976,
                    "duration": 0.3457420000000013
                },
                {
                    "name": "C3",
                    "midi": 48,
                    "time": 81.59511200000004,
                    "velocity": 0.5118110236220472,
                    "duration": 0.6914840000000027
                },
                {
                    "name": "C4",
                    "midi": 60,
                    "time": 81.94085400000004,
                    "velocity": 0.4330708661417323,
                    "duration": 0.3457420000000013
                },
                {
                    "name": "D3",
                    "midi": 50,
                    "time": 82.28659600000005,
                    "velocity": 0.4251968503937008,
                    "duration": 0.6914840000000027
                },
                {
                    "name": "B3",
                    "midi": 59,
                    "time": 82.28659600000005,
                    "velocity": 0.4251968503937008,
                    "duration": 0.3457420000000013
                },
                {
                    "name": "A3",
                    "midi": 57,
                    "time": 82.63233800000005,
                    "velocity": 0.36220472440944884,
                    "duration": 0.3457420000000013
                },
                {
                    "name": "G3",
                    "midi": 55,
                    "time": 82.97808000000005,
                    "velocity": 0.4409448818897638,
                    "duration": 0.6914840000000027
                },
                {
                    "name": "D3",
                    "midi": 50,
                    "time": 82.97808000000005,
                    "velocity": 0.4409448818897638,
                    "duration": 0.6914840000000027
                },
                {
                    "name": "B2",
                    "midi": 47,
                    "time": 82.97808000000005,
                    "velocity": 0.4409448818897638,
                    "duration": 0.6914840000000027
                },
                {
                    "name": "C3",
                    "midi": 48,
                    "time": 84.36104800000005,
                    "velocity": 0.5118110236220472,
                    "duration": 0.6914840000000027
                },
                {
                    "name": "C4",
                    "midi": 60,
                    "time": 84.70679000000005,
                    "velocity": 0.4330708661417323,
                    "duration": 0.3457420000000013
                },
                {
                    "name": "D3",
                    "midi": 50,
                    "time": 85.05253200000006,
                    "velocity": 0.4251968503937008,
                    "duration": 0.6914840000000027
                },
                {
                    "name": "B3",
                    "midi": 59,
                    "time": 85.05253200000006,
                    "velocity": 0.4251968503937008,
                    "duration": 0.3457420000000013
                },
                {
                    "name": "A3",
                    "midi": 57,
                    "time": 85.39827400000006,
                    "velocity": 0.36220472440944884,
                    "duration": 0.3457420000000013
                },
                {
                    "name": "G3",
                    "midi": 55,
                    "time": 85.74401600000006,
                    "velocity": 0.31496062992125984,
                    "duration": 0.11524733333332904
                },
                {
                    "name": "B3",
                    "midi": 59,
                    "time": 85.85926333333339,
                    "velocity": 0.25196850393700787,
                    "duration": 0.11524733333332904
                },
                {
                    "name": "D4",
                    "midi": 62,
                    "time": 85.97451066666672,
                    "velocity": 0.25196850393700787,
                    "duration": 0.11524733333332904
                },
                {
                    "name": "G3",
                    "midi": 55,
                    "time": 86.08975800000005,
                    "velocity": 0.31496062992125984,
                    "duration": 0.11524733333332904
                },
                {
                    "name": "B3",
                    "midi": 59,
                    "time": 86.20500533333338,
                    "velocity": 0.2677165354330709,
                    "duration": 0.11524733333332904
                },
                {
                    "name": "D4",
                    "midi": 62,
                    "time": 86.3202526666667,
                    "velocity": 0.2677165354330709,
                    "duration": 0.11524733333332904
                },
                {
                    "name": "G3",
                    "midi": 55,
                    "time": 86.43550000000003,
                    "velocity": 0.31496062992125984,
                    "duration": 0.11524733333332904
                },
                {
                    "name": "B3",
                    "midi": 59,
                    "time": 86.55074733333336,
                    "velocity": 0.25196850393700787,
                    "duration": 0.11524733333332904
                },
                {
                    "name": "D4",
                    "midi": 62,
                    "time": 86.66599466666669,
                    "velocity": 0.25196850393700787,
                    "duration": 0.11524733333332904
                },
                {
                    "name": "D3",
                    "midi": 50,
                    "time": 86.78124200000002,
                    "velocity": 0.31496062992125984,
                    "duration": 0.11524733333332904
                },
                {
                    "name": "F#3",
                    "midi": 54,
                    "time": 86.89648933333335,
                    "velocity": 0.25196850393700787,
                    "duration": 0.11524733333332904
                },
                {
                    "name": "D4",
                    "midi": 62,
                    "time": 87.01173666666668,
                    "velocity": 0.25984251968503935,
                    "duration": 0.11524733333332904
                },
                {
                    "name": "G3",
                    "midi": 55,
                    "time": 87.12698400000001,
                    "velocity": 0.30708661417322836,
                    "duration": 0.11524733333332904
                },
                {
                    "name": "B3",
                    "midi": 59,
                    "time": 87.24223133333334,
                    "velocity": 0.2283464566929134,
                    "duration": 0.11524733333332904
                },
                {
                    "name": "D4",
                    "midi": 62,
                    "time": 87.35747866666667,
                    "velocity": 0.2283464566929134,
                    "duration": 0.11524733333332904
                },
                {
                    "name": "G3",
                    "midi": 55,
                    "time": 87.472726,
                    "velocity": 0.30708661417322836,
                    "duration": 0.11524733333332904
                },
                {
                    "name": "B3",
                    "midi": 59,
                    "time": 87.58797333333332,
                    "velocity": 0.23622047244094488,
                    "duration": 0.11524733333332904
                },
                {
                    "name": "D4",
                    "midi": 62,
                    "time": 87.70322066666665,
                    "velocity": 0.23622047244094488,
                    "duration": 0.11524733333332904
                },
                {
                    "name": "G3",
                    "midi": 55,
                    "time": 87.81846799999998,
                    "velocity": 0.30708661417322836,
                    "duration": 0.11524733333332904
                },
                {
                    "name": "B3",
                    "midi": 59,
                    "time": 87.93371533333331,
                    "velocity": 0.23622047244094488,
                    "duration": 0.11524733333332904
                },
                {
                    "name": "D4",
                    "midi": 62,
                    "time": 88.04896266666664,
                    "velocity": 0.23622047244094488,
                    "duration": 0.11524733333332904
                },
                {
                    "name": "D3",
                    "midi": 50,
                    "time": 88.16420999999997,
                    "velocity": 0.30708661417322836,
                    "duration": 0.11524733333332904
                },
                {
                    "name": "F#3",
                    "midi": 54,
                    "time": 88.2794573333333,
                    "velocity": 0.25984251968503935,
                    "duration": 0.11524733333332904
                },
                {
                    "name": "D4",
                    "midi": 62,
                    "time": 88.39470466666663,
                    "velocity": 0.25984251968503935,
                    "duration": 0.11524733333332904
                },
                {
                    "name": "G3",
                    "midi": 55,
                    "time": 88.50995199999996,
                    "velocity": 0.31496062992125984,
                    "duration": 0.11524733333332904
                },
                {
                    "name": "B3",
                    "midi": 59,
                    "time": 88.62519933333328,
                    "velocity": 0.25196850393700787,
                    "duration": 0.11524733333332904
                },
                {
                    "name": "D4",
                    "midi": 62,
                    "time": 88.74044666666661,
                    "velocity": 0.25196850393700787,
                    "duration": 0.11524733333332904
                },
                {
                    "name": "G3",
                    "midi": 55,
                    "time": 88.85569399999994,
                    "velocity": 0.31496062992125984,
                    "duration": 0.11524733333332904
                },
                {
                    "name": "B3",
                    "midi": 59,
                    "time": 88.97094133333327,
                    "velocity": 0.2677165354330709,
                    "duration": 0.11524733333332904
                },
                {
                    "name": "D4",
                    "midi": 62,
                    "time": 89.0861886666666,
                    "velocity": 0.2677165354330709,
                    "duration": 0.11524733333332904
                },
                {
                    "name": "G3",
                    "midi": 55,
                    "time": 89.20143599999993,
                    "velocity": 0.31496062992125984,
                    "duration": 0.11524733333332904
                },
                {
                    "name": "B3",
                    "midi": 59,
                    "time": 89.31668333333326,
                    "velocity": 0.25196850393700787,
                    "duration": 0.11524733333332904
                },
                {
                    "name": "D4",
                    "midi": 62,
                    "time": 89.43193066666659,
                    "velocity": 0.25196850393700787,
                    "duration": 0.11524733333332904
                },
                {
                    "name": "D3",
                    "midi": 50,
                    "time": 89.54717799999992,
                    "velocity": 0.49606299212598426,
                    "duration": 0.11524733333332904
                },
                {
                    "name": "F#3",
                    "midi": 54,
                    "time": 89.66242533333325,
                    "velocity": 0.3937007874015748,
                    "duration": 0.11524733333332904
                },
                {
                    "name": "D4",
                    "midi": 62,
                    "time": 89.77767266666658,
                    "velocity": 0.4094488188976378,
                    "duration": 0.11524733333332904
                },
                {
                    "name": "G3",
                    "midi": 55,
                    "time": 89.8929199999999,
                    "velocity": 0.4881889763779528,
                    "duration": 0.11524733333332904
                },
                {
                    "name": "B3",
                    "midi": 59,
                    "time": 90.00816733333323,
                    "velocity": 0.36220472440944884,
                    "duration": 0.11524733333332904
                },
                {
                    "name": "D4",
                    "midi": 62,
                    "time": 90.12341466666656,
                    "velocity": 0.36220472440944884,
                    "duration": 0.11524733333332904
                },
                {
                    "name": "G3",
                    "midi": 55,
                    "time": 90.23866199999989,
                    "velocity": 0.4881889763779528,
                    "duration": 0.11524733333332904
                },
                {
                    "name": "B3",
                    "midi": 59,
                    "time": 90.35390933333322,
                    "velocity": 0.3779527559055118,
                    "duration": 0.11524733333332904
                },
                {
                    "name": "D4",
                    "midi": 62,
                    "time": 90.46915666666655,
                    "velocity": 0.3779527559055118,
                    "duration": 0.11524733333332904
                },
                {
                    "name": "G3",
                    "midi": 55,
                    "time": 90.58440399999988,
                    "velocity": 0.4881889763779528,
                    "duration": 0.11524733333332904
                },
                {
                    "name": "B3",
                    "midi": 59,
                    "time": 90.69965133333321,
                    "velocity": 0.3779527559055118,
                    "duration": 0.11524733333332904
                },
                {
                    "name": "D4",
                    "midi": 62,
                    "time": 90.81489866666654,
                    "velocity": 0.3779527559055118,
                    "duration": 0.11524733333332904
                },
                {
                    "name": "D3",
                    "midi": 50,
                    "time": 90.93014599999987,
                    "velocity": 0.4881889763779528,
                    "duration": 0.11524733333332904
                },
                {
                    "name": "F#3",
                    "midi": 54,
                    "time": 91.0453933333332,
                    "velocity": 0.4094488188976378,
                    "duration": 0.11524733333332904
                },
                {
                    "name": "D4",
                    "midi": 62,
                    "time": 91.16064066666652,
                    "velocity": 0.4094488188976378,
                    "duration": 0.11524733333332904
                },
                {
                    "name": "G3",
                    "midi": 55,
                    "time": 91.27588799999985,
                    "velocity": 0.4881889763779528,
                    "duration": 0.11524733333332904
                },
                {
                    "name": "B3",
                    "midi": 59,
                    "time": 91.39113533333318,
                    "velocity": 0.36220472440944884,
                    "duration": 0.11524733333332904
                },
                {
                    "name": "D4",
                    "midi": 62,
                    "time": 91.50638266666651,
                    "velocity": 0.36220472440944884,
                    "duration": 0.11524733333332904
                },
                {
                    "name": "G3",
                    "midi": 55,
                    "time": 91.62162999999984,
                    "velocity": 0.4881889763779528,
                    "duration": 0.11524733333332904
                },
                {
                    "name": "B3",
                    "midi": 59,
                    "time": 91.73687733333317,
                    "velocity": 0.3779527559055118,
                    "duration": 0.11524733333332904
                },
                {
                    "name": "D4",
                    "midi": 62,
                    "time": 91.8521246666665,
                    "velocity": 0.3779527559055118,
                    "duration": 0.11524733333332904
                },
                {
                    "name": "G3",
                    "midi": 55,
                    "time": 91.96737199999983,
                    "velocity": 0.4881889763779528,
                    "duration": 0.11524733333332904
                },
                {
                    "name": "B3",
                    "midi": 59,
                    "time": 92.08261933333316,
                    "velocity": 0.3779527559055118,
                    "duration": 0.11524733333332904
                },
                {
                    "name": "D4",
                    "midi": 62,
                    "time": 92.19786666666649,
                    "velocity": 0.3779527559055118,
                    "duration": 0.11524733333332904
                },
                {
                    "name": "G3",
                    "midi": 55,
                    "time": 92.31311399999981,
                    "velocity": 0.4881889763779528,
                    "duration": 0.11524733333332904
                },
                {
                    "name": "B3",
                    "midi": 59,
                    "time": 92.42836133333314,
                    "velocity": 0.4094488188976378,
                    "duration": 0.11524733333332904
                },
                {
                    "name": "D4",
                    "midi": 62,
                    "time": 92.54360866666647,
                    "velocity": 0.4094488188976378,
                    "duration": 0.11524733333332904
                },
                {
                    "name": "G3",
                    "midi": 55,
                    "time": 92.6588559999998,
                    "velocity": 0.4881889763779528,
                    "duration": 0.3457420000000013
                },
                {
                    "name": "E4",
                    "midi": 64,
                    "time": 94.0418239999998,
                    "velocity": 0.4094488188976378,
                    "duration": 0.08643549999999323
                },
                {
                    "name": "C4",
                    "midi": 60,
                    "time": 94.0418239999998,
                    "velocity": 0.3464566929133858,
                    "duration": 0.08643549999999323
                },
                {
                    "name": "E4",
                    "midi": 64,
                    "time": 95.4247919999998,
                    "velocity": 0.4094488188976378,
                    "duration": 0.08643549999999323
                },
                {
                    "name": "C4",
                    "midi": 60,
                    "time": 95.4247919999998,
                    "velocity": 0.3464566929133858,
                    "duration": 0.08643549999999323
                },
                {
                    "name": "F4",
                    "midi": 65,
                    "time": 96.80775999999979,
                    "velocity": 0.4094488188976378,
                    "duration": 0.08643549999999323
                },
                {
                    "name": "G3",
                    "midi": 55,
                    "time": 96.80775999999979,
                    "velocity": 0.3464566929133858,
                    "duration": 0.08643549999999323
                },
                {
                    "name": "D4",
                    "midi": 62,
                    "time": 96.80775999999979,
                    "velocity": 0.3464566929133858,
                    "duration": 0.08643549999999323
                },
                {
                    "name": "G3",
                    "midi": 55,
                    "time": 97.15350199999978,
                    "velocity": 0.2992125984251969,
                    "duration": 0.08643549999999323
                },
                {
                    "name": "D4",
                    "midi": 62,
                    "time": 97.15350199999978,
                    "velocity": 0.2992125984251969,
                    "duration": 0.08643549999999323
                },
                {
                    "name": "F4",
                    "midi": 65,
                    "time": 97.15350199999978,
                    "velocity": 0.3543307086614173,
                    "duration": 0.08643549999999323
                },
                {
                    "name": "C4",
                    "midi": 60,
                    "time": 97.49924399999976,
                    "velocity": 0.3464566929133858,
                    "duration": 0.08643549999999323
                },
                {
                    "name": "G3",
                    "midi": 55,
                    "time": 97.49924399999976,
                    "velocity": 0.3464566929133858,
                    "duration": 0.08643549999999323
                },
                {
                    "name": "E4",
                    "midi": 64,
                    "time": 97.49924399999976,
                    "velocity": 0.4094488188976378,
                    "duration": 0.08643549999999323
                },
                {
                    "name": "C4",
                    "midi": 60,
                    "time": 97.84498599999975,
                    "velocity": 0.30708661417322836,
                    "duration": 0.08643549999999323
                },
                {
                    "name": "E4",
                    "midi": 64,
                    "time": 97.84498599999975,
                    "velocity": 0.3700787401574803,
                    "duration": 0.08643549999999323
                },
                {
                    "name": "G3",
                    "midi": 55,
                    "time": 97.84498599999975,
                    "velocity": 0.30708661417322836,
                    "duration": 0.08643549999999323
                },
                {
                    "name": "B3",
                    "midi": 59,
                    "time": 98.19072799999974,
                    "velocity": 0.3464566929133858,
                    "duration": 0.3457420000000013
                },
                {
                    "name": "G3",
                    "midi": 55,
                    "time": 98.19072799999974,
                    "velocity": 0.3464566929133858,
                    "duration": 0.3457420000000013
                },
                {
                    "name": "D4",
                    "midi": 62,
                    "time": 98.19072799999974,
                    "velocity": 0.4094488188976378,
                    "duration": 0.3457420000000013
                },
                {
                    "name": "B3",
                    "midi": 59,
                    "time": 99.57369599999974,
                    "velocity": 0.31496062992125984,
                    "duration": 0.08643549999999323
                },
                {
                    "name": "G4",
                    "midi": 67,
                    "time": 99.57369599999974,
                    "velocity": 0.3779527559055118,
                    "duration": 0.08643549999999323
                },
                {
                    "name": "G4",
                    "midi": 67,
                    "time": 100.26517999999973,
                    "velocity": 0.3779527559055118,
                    "duration": 0.08643549999999323
                },
                {
                    "name": "C4",
                    "midi": 60,
                    "time": 100.26517999999973,
                    "velocity": 0.31496062992125984,
                    "duration": 0.08643549999999323
                },
                {
                    "name": "F4",
                    "midi": 65,
                    "time": 100.95666399999972,
                    "velocity": 0.31496062992125984,
                    "duration": 0.08643549999999323
                },
                {
                    "name": "G4",
                    "midi": 67,
                    "time": 100.95666399999972,
                    "velocity": 0.3779527559055118,
                    "duration": 0.08643549999999323
                },
                {
                    "name": "G4",
                    "midi": 67,
                    "time": 101.64814799999971,
                    "velocity": 0.3543307086614173,
                    "duration": 0.08643549999999323
                },
                {
                    "name": "E4",
                    "midi": 64,
                    "time": 101.64814799999971,
                    "velocity": 0.2992125984251969,
                    "duration": 0.08643549999999323
                },
                {
                    "name": "F3",
                    "midi": 53,
                    "time": 102.3396319999997,
                    "velocity": 0.3700787401574803,
                    "duration": 0.08643549999999323
                },
                {
                    "name": "F4",
                    "midi": 65,
                    "time": 102.3396319999997,
                    "velocity": 0.4409448818897638,
                    "duration": 0.08643549999999323
                },
                {
                    "name": "F4",
                    "midi": 65,
                    "time": 102.68537399999968,
                    "velocity": 0.4094488188976378,
                    "duration": 0.08643549999999323
                },
                {
                    "name": "F3",
                    "midi": 53,
                    "time": 102.68537399999968,
                    "velocity": 0.3464566929133858,
                    "duration": 0.08643549999999323
                },
                {
                    "name": "G3",
                    "midi": 55,
                    "time": 103.03111599999967,
                    "velocity": 0.3858267716535433,
                    "duration": 0.08643549999999323
                },
                {
                    "name": "D4",
                    "midi": 62,
                    "time": 103.03111599999967,
                    "velocity": 0.4566929133858268,
                    "duration": 0.08643549999999323
                },
                {
                    "name": "D4",
                    "midi": 62,
                    "time": 103.37685799999966,
                    "velocity": 0.4094488188976378,
                    "duration": 0.08643549999999323
                },
                {
                    "name": "G3",
                    "midi": 55,
                    "time": 103.37685799999966,
                    "velocity": 0.3464566929133858,
                    "duration": 0.08643549999999323
                },
                {
                    "name": "C4",
                    "midi": 60,
                    "time": 103.72259999999964,
                    "velocity": 0.3858267716535433,
                    "duration": 0.11524733333332904
                },
                {
                    "name": "E4",
                    "midi": 64,
                    "time": 103.83784733333297,
                    "velocity": 0.28346456692913385,
                    "duration": 0.11524733333332904
                },
                {
                    "name": "G4",
                    "midi": 67,
                    "time": 103.9530946666663,
                    "velocity": 0.28346456692913385,
                    "duration": 0.11524733333332904
                },
                {
                    "name": "C4",
                    "midi": 60,
                    "time": 104.06834199999963,
                    "velocity": 0.3937007874015748,
                    "duration": 0.11524733333332904
                },
                {
                    "name": "E4",
                    "midi": 64,
                    "time": 104.18358933333296,
                    "velocity": 0.2992125984251969,
                    "duration": 0.11524733333332904
                },
                {
                    "name": "G4",
                    "midi": 67,
                    "time": 104.29883666666629,
                    "velocity": 0.2992125984251969,
                    "duration": 0.11524733333332904
                },
                {
                    "name": "C4",
                    "midi": 60,
                    "time": 104.41408399999962,
                    "velocity": 0.4094488188976378,
                    "duration": 0.11524733333332904
                },
                {
                    "name": "E4",
                    "midi": 64,
                    "time": 104.52933133333295,
                    "velocity": 0.33858267716535434,
                    "duration": 0.11524733333332904
                },
                {
                    "name": "G4",
                    "midi": 67,
                    "time": 104.64457866666628,
                    "velocity": 0.33858267716535434,
                    "duration": 0.11524733333332904
                },
                {
                    "name": "C4",
                    "midi": 60,
                    "time": 104.7598259999996,
                    "velocity": 0.41732283464566927,
                    "duration": 0.11524733333332904
                },
                {
                    "name": "E4",
                    "midi": 64,
                    "time": 104.87507333333294,
                    "velocity": 0.3464566929133858,
                    "duration": 0.11524733333332904
                },
                {
                    "name": "G4",
                    "midi": 67,
                    "time": 104.99032066666626,
                    "velocity": 0.3464566929133858,
                    "duration": 0.11524733333332904
                },
                {
                    "name": "C4",
                    "midi": 60,
                    "time": 105.1055679999996,
                    "velocity": 0.4409448818897638,
                    "duration": 0.11524733333332904
                },
                {
                    "name": "E4",
                    "midi": 64,
                    "time": 105.22081533333292,
                    "velocity": 0.33858267716535434,
                    "duration": 0.11524733333332904
                },
                {
                    "name": "G4",
                    "midi": 67,
                    "time": 105.33606266666625,
                    "velocity": 0.33858267716535434,
                    "duration": 0.11524733333332904
                },
                {
                    "name": "C4",
                    "midi": 60,
                    "time": 105.45130999999958,
                    "velocity": 0.4409448818897638,
                    "duration": 0.11524733333332904
                },
                {
                    "name": "E4",
                    "midi": 64,
                    "time": 105.56655733333291,
                    "velocity": 0.3543307086614173,
                    "duration": 0.11524733333332904
                },
                {
                    "name": "G4",
                    "midi": 67,
                    "time": 105.68180466666624,
                    "velocity": 0.36220472440944884,
                    "duration": 0.11524733333332904
                },
                {
                    "name": "C4",
                    "midi": 60,
                    "time": 105.79705199999957,
                    "velocity": 0.4330708661417323,
                    "duration": 0.11524733333332904
                },
                {
                    "name": "E4",
                    "midi": 64,
                    "time": 105.9122993333329,
                    "velocity": 0.3464566929133858,
                    "duration": 0.11524733333332904
                },
                {
                    "name": "G4",
                    "midi": 67,
                    "time": 106.02754666666623,
                    "velocity": 0.3543307086614173,
                    "duration": 0.11524733333332904
                },
                {
                    "name": "C4",
                    "midi": 60,
                    "time": 106.14279399999955,
                    "velocity": 0.5433070866141733,
                    "duration": 0.11524733333332904
                },
                {
                    "name": "E4",
                    "midi": 64,
                    "time": 106.25804133333288,
                    "velocity": 0.47244094488188976,
                    "duration": 0.11524733333332904
                },
                {
                    "name": "G4",
                    "midi": 67,
                    "time": 106.37328866666621,
                    "velocity": 0.47244094488188976,
                    "duration": 0.11524733333332904
                },
                {
                    "name": "C4",
                    "midi": 60,
                    "time": 106.48853599999954,
                    "velocity": 0.4409448818897638,
                    "duration": 0.11524733333332904
                },
                {
                    "name": "E4",
                    "midi": 64,
                    "time": 106.60378333333287,
                    "velocity": 0.3228346456692913,
                    "duration": 0.11524733333332904
                },
                {
                    "name": "G4",
                    "midi": 67,
                    "time": 106.7190306666662,
                    "velocity": 0.3228346456692913,
                    "duration": 0.11524733333332904
                },
                {
                    "name": "C4",
                    "midi": 60,
                    "time": 106.83427799999953,
                    "velocity": 0.4409448818897638,
                    "duration": 0.11524733333332904
                },
                {
                    "name": "E4",
                    "midi": 64,
                    "time": 106.94952533333286,
                    "velocity": 0.3464566929133858,
                    "duration": 0.11524733333332904
                },
                {
                    "name": "G4",
                    "midi": 67,
                    "time": 107.06477266666619,
                    "velocity": 0.3464566929133858,
                    "duration": 0.11524733333332904
                },
                {
                    "name": "C4",
                    "midi": 60,
                    "time": 107.18001999999952,
                    "velocity": 0.4409448818897638,
                    "duration": 0.11524733333332904
                },
                {
                    "name": "E4",
                    "midi": 64,
                    "time": 107.29526733333284,
                    "velocity": 0.3464566929133858,
                    "duration": 0.11524733333332904
                },
                {
                    "name": "G4",
                    "midi": 67,
                    "time": 107.41051466666617,
                    "velocity": 0.3543307086614173,
                    "duration": 0.11524733333332904
                },
                {
                    "name": "C4",
                    "midi": 60,
                    "time": 107.5257619999995,
                    "velocity": 0.4409448818897638,
                    "duration": 0.11524733333332904
                },
                {
                    "name": "E4",
                    "midi": 64,
                    "time": 107.64100933333283,
                    "velocity": 0.3464566929133858,
                    "duration": 0.11524733333332904
                },
                {
                    "name": "G4",
                    "midi": 67,
                    "time": 107.75625666666616,
                    "velocity": 0.3464566929133858,
                    "duration": 0.11524733333332904
                },
                {
                    "name": "D4",
                    "midi": 62,
                    "time": 107.87150399999949,
                    "velocity": 0.4409448818897638,
                    "duration": 0.11524733333332904
                },
                {
                    "name": "F4",
                    "midi": 65,
                    "time": 107.98675133333282,
                    "velocity": 0.33070866141732286,
                    "duration": 0.11524733333332904
                },
                {
                    "name": "G4",
                    "midi": 67,
                    "time": 108.10199866666615,
                    "velocity": 0.3543307086614173,
                    "duration": 0.11524733333332904
                },
                {
                    "name": "D4",
                    "midi": 62,
                    "time": 108.21724599999948,
                    "velocity": 0.4409448818897638,
                    "duration": 0.11524733333332904
                },
                {
                    "name": "F4",
                    "midi": 65,
                    "time": 108.3324933333328,
                    "velocity": 0.3543307086614173,
                    "duration": 0.11524733333332904
                },
                {
                    "name": "G4",
                    "midi": 67,
                    "time": 108.44774066666614,
                    "velocity": 0.3543307086614173,
                    "duration": 0.11524733333332904
                },
                {
                    "name": "C4",
                    "midi": 60,
                    "time": 108.56298799999946,
                    "velocity": 0.4409448818897638,
                    "duration": 0.11524733333332904
                },
                {
                    "name": "E4",
                    "midi": 64,
                    "time": 108.6782353333328,
                    "velocity": 0.36220472440944884,
                    "duration": 0.11524733333332904
                },
                {
                    "name": "G4",
                    "midi": 67,
                    "time": 108.79348266666612,
                    "velocity": 0.3937007874015748,
                    "duration": 0.11524733333332904
                },
                {
                    "name": "C4",
                    "midi": 60,
                    "time": 108.90872999999945,
                    "velocity": 0.4409448818897638,
                    "duration": 0.11524733333332904
                },
                {
                    "name": "E4",
                    "midi": 64,
                    "time": 109.02397733333278,
                    "velocity": 0.36220472440944884,
                    "duration": 0.11524733333332904
                },
                {
                    "name": "G4",
                    "midi": 67,
                    "time": 109.13922466666611,
                    "velocity": 0.36220472440944884,
                    "duration": 0.11524733333332904
                },
                {
                    "name": "B3",
                    "midi": 59,
                    "time": 109.25447199999944,
                    "velocity": 0.49606299212598426,
                    "duration": 0.3457420000000013
                },
                {
                    "name": "G3",
                    "midi": 55,
                    "time": 110.63743999999944,
                    "velocity": 0.4409448818897638,
                    "duration": 0.11524733333332904
                },
                {
                    "name": "B3",
                    "midi": 59,
                    "time": 110.75268733333277,
                    "velocity": 0.33858267716535434,
                    "duration": 0.11524733333332904
                },
                {
                    "name": "D4",
                    "midi": 62,
                    "time": 110.8679346666661,
                    "velocity": 0.3543307086614173,
                    "duration": 0.11524733333332904
                },
                {
                    "name": "G3",
                    "midi": 55,
                    "time": 110.98318199999943,
                    "velocity": 0.4409448818897638,
                    "duration": 0.11524733333332904
                },
                {
                    "name": "B3",
                    "midi": 59,
                    "time": 111.09842933333276,
                    "velocity": 0.3543307086614173,
                    "duration": 0.11524733333332904
                },
                {
                    "name": "D4",
                    "midi": 62,
                    "time": 111.21367666666609,
                    "velocity": 0.3543307086614173,
                    "duration": 0.11524733333332904
                },
                {
                    "name": "G3",
                    "midi": 55,
                    "time": 111.32892399999942,
                    "velocity": 0.4409448818897638,
                    "duration": 0.11524733333332904
                },
                {
                    "name": "C4",
                    "midi": 60,
                    "time": 111.44417133333275,
                    "velocity": 0.33858267716535434,
                    "duration": 0.11524733333332904
                },
                {
                    "name": "E4",
                    "midi": 64,
                    "time": 111.55941866666608,
                    "velocity": 0.3464566929133858,
                    "duration": 0.11524733333332904
                },
                {
                    "name": "G3",
                    "midi": 55,
                    "time": 111.6746659999994,
                    "velocity": 0.4409448818897638,
                    "duration": 0.11524733333332904
                },
                {
                    "name": "C4",
                    "midi": 60,
                    "time": 111.78991333333273,
                    "velocity": 0.36220472440944884,
                    "duration": 0.11524733333332904
                },
                {
                    "name": "E4",
                    "midi": 64,
                    "time": 111.90516066666606,
                    "velocity": 0.36220472440944884,
                    "duration": 0.11524733333332904
                },
                {
                    "name": "G3",
                    "midi": 55,
                    "time": 112.02040799999939,
                    "velocity": 0.4409448818897638,
                    "duration": 0.11524733333332904
                },
                {
                    "name": "D4",
                    "midi": 62,
                    "time": 112.13565533333272,
                    "velocity": 0.3700787401574803,
                    "duration": 0.11524733333332904
                },
                {
                    "name": "F4",
                    "midi": 65,
                    "time": 112.25090266666605,
                    "velocity": 0.3700787401574803,
                    "duration": 0.11524733333332904
                },
                {
                    "name": "G3",
                    "midi": 55,
                    "time": 112.36614999999938,
                    "velocity": 0.4409448818897638,
                    "duration": 0.11524733333332904
                },
                {
                    "name": "D4",
                    "midi": 62,
                    "time": 112.48139733333271,
                    "velocity": 0.3464566929133858,
                    "duration": 0.11524733333332904
                },
                {
                    "name": "F4",
                    "midi": 65,
                    "time": 112.59664466666604,
                    "velocity": 0.3464566929133858,
                    "duration": 0.11524733333332904
                },
                {
                    "name": "A3",
                    "midi": 57,
                    "time": 112.71189199999937,
                    "velocity": 0.4409448818897638,
                    "duration": 0.11524733333332904
                },
                {
                    "name": "C4",
                    "midi": 60,
                    "time": 112.8271393333327,
                    "velocity": 0.36220472440944884,
                    "duration": 0.11524733333332904
                },
                {
                    "name": "E4",
                    "midi": 64,
                    "time": 112.94238666666602,
                    "velocity": 0.36220472440944884,
                    "duration": 0.11524733333332904
                },
                {
                    "name": "A3",
                    "midi": 57,
                    "time": 113.05763399999935,
                    "velocity": 0.4409448818897638,
                    "duration": 0.11524733333332904
                },
                {
                    "name": "C4",
                    "midi": 60,
                    "time": 113.17288133333268,
                    "velocity": 0.3543307086614173,
                    "duration": 0.11524733333332904
                },
                {
                    "name": "E4",
                    "midi": 64,
                    "time": 113.28812866666601,
                    "velocity": 0.3543307086614173,
                    "duration": 0.11524733333332904
                },
                {
                    "name": "F3",
                    "midi": 53,
                    "time": 113.40337599999934,
                    "velocity": 0.4409448818897638,
                    "duration": 0.11524733333332904
                },
                {
                    "name": "A3",
                    "midi": 57,
                    "time": 113.51862333333267,
                    "velocity": 0.3543307086614173,
                    "duration": 0.11524733333332904
                },
                {
                    "name": "D4",
                    "midi": 62,
                    "time": 113.633870666666,
                    "velocity": 0.3700787401574803,
                    "duration": 0.11524733333332904
                },
                {
                    "name": "F3",
                    "midi": 53,
                    "time": 113.74911799999933,
                    "velocity": 0.4409448818897638,
                    "duration": 0.11524733333332904
                },
                {
                    "name": "A3",
                    "midi": 57,
                    "time": 113.86436533333266,
                    "velocity": 0.36220472440944884,
                    "duration": 0.11524733333332904
                },
                {
                    "name": "D4",
                    "midi": 62,
                    "time": 113.97961266666599,
                    "velocity": 0.36220472440944884,
                    "duration": 0.11524733333332904
                },
                {
                    "name": "G3",
                    "midi": 55,
                    "time": 114.09485999999931,
                    "velocity": 0.4409448818897638,
                    "duration": 0.11524733333332904
                },
                {
                    "name": "D4",
                    "midi": 62,
                    "time": 114.21010733333264,
                    "velocity": 0.33858267716535434,
                    "duration": 0.11524733333332904
                },
                {
                    "name": "F4",
                    "midi": 65,
                    "time": 114.32535466666597,
                    "velocity": 0.33858267716535434,
                    "duration": 0.11524733333332904
                },
                {
                    "name": "G3",
                    "midi": 55,
                    "time": 114.4406019999993,
                    "velocity": 0.4409448818897638,
                    "duration": 0.11524733333332904
                },
                {
                    "name": "D4",
                    "midi": 62,
                    "time": 114.55584933333263,
                    "velocity": 0.3464566929133858,
                    "duration": 0.11524733333332904
                },
                {
                    "name": "F4",
                    "midi": 65,
                    "time": 114.67109666666596,
                    "velocity": 0.3543307086614173,
                    "duration": 0.11524733333332904
                },
                {
                    "name": "C4",
                    "midi": 60,
                    "time": 114.78634399999929,
                    "velocity": 0.47244094488188976,
                    "duration": 2.7659360000000106
                },
                {
                    "name": "E4",
                    "midi": 64,
                    "time": 114.78634399999929,
                    "velocity": 0.3543307086614173,
                    "duration": 0.6914840000000027
                },
                {
                    "name": "A#4",
                    "midi": 70,
                    "time": 115.47782799999929,
                    "velocity": 0.33858267716535434,
                    "duration": 0.6914840000000027
                },
                {
                    "name": "A4",
                    "midi": 69,
                    "time": 116.1693119999993,
                    "velocity": 0.3543307086614173,
                    "duration": 0.6914840000000027
                },
                {
                    "name": "F4",
                    "midi": 65,
                    "time": 116.8607959999993,
                    "velocity": 0.33070866141732286,
                    "duration": 0.6914840000000027
                },
                {
                    "name": "C4",
                    "midi": 60,
                    "time": 117.5522799999993,
                    "velocity": 0.30708661417322836,
                    "duration": 2.7659360000000106
                },
                {
                    "name": "E4",
                    "midi": 64,
                    "time": 117.5522799999993,
                    "velocity": 0.3543307086614173,
                    "duration": 0.6914840000000027
                },
                {
                    "name": "A#4",
                    "midi": 70,
                    "time": 118.2437639999993,
                    "velocity": 0.33858267716535434,
                    "duration": 0.6914840000000027
                },
                {
                    "name": "A4",
                    "midi": 69,
                    "time": 118.9352479999993,
                    "velocity": 0.3543307086614173,
                    "duration": 0.6914840000000027
                },
                {
                    "name": "F4",
                    "midi": 65,
                    "time": 119.62673199999931,
                    "velocity": 0.33070866141732286,
                    "duration": 0.6914840000000027
                },
                {
                    "name": "C4",
                    "midi": 60,
                    "time": 120.31821599999931,
                    "velocity": 0.3543307086614173,
                    "duration": 0.11524733333332904
                },
                {
                    "name": "E4",
                    "midi": 64,
                    "time": 120.43346333333264,
                    "velocity": 0.2755905511811024,
                    "duration": 0.11524733333332904
                },
                {
                    "name": "G4",
                    "midi": 67,
                    "time": 120.54871066666597,
                    "velocity": 0.2755905511811024,
                    "duration": 0.11524733333332904
                },
                {
                    "name": "C4",
                    "midi": 60,
                    "time": 120.6639579999993,
                    "velocity": 0.3543307086614173,
                    "duration": 0.11524733333332904
                },
                {
                    "name": "E4",
                    "midi": 64,
                    "time": 120.77920533333263,
                    "velocity": 0.2677165354330709,
                    "duration": 0.11524733333332904
                },
                {
                    "name": "G4",
                    "midi": 67,
                    "time": 120.89445266666596,
                    "velocity": 0.2677165354330709,
                    "duration": 0.11524733333332904
                },
                {
                    "name": "C4",
                    "midi": 60,
                    "time": 121.00969999999928,
                    "velocity": 0.3543307086614173,
                    "duration": 0.11524733333332904
                },
                {
                    "name": "E4",
                    "midi": 64,
                    "time": 121.12494733333261,
                    "velocity": 0.28346456692913385,
                    "duration": 0.11524733333332904
                },
                {
                    "name": "G4",
                    "midi": 67,
                    "time": 121.24019466666594,
                    "velocity": 0.28346456692913385,
                    "duration": 0.11524733333332904
                },
                {
                    "name": "B3",
                    "midi": 59,
                    "time": 121.35544199999927,
                    "velocity": 0.3543307086614173,
                    "duration": 0.11524733333332904
                },
                {
                    "name": "D4",
                    "midi": 62,
                    "time": 121.4706893333326,
                    "velocity": 0.28346456692913385,
                    "duration": 0.11524733333332904
                },
                {
                    "name": "G4",
                    "midi": 67,
                    "time": 121.58593666666593,
                    "velocity": 0.29133858267716534,
                    "duration": 0.11524733333332904
                },
                {
                    "name": "C4",
                    "midi": 60,
                    "time": 121.70118399999926,
                    "velocity": 0.3543307086614173,
                    "duration": 0.11524733333332904
                },
                {
                    "name": "E4",
                    "midi": 64,
                    "time": 121.81643133333259,
                    "velocity": 0.28346456692913385,
                    "duration": 0.11524733333332904
                },
                {
                    "name": "G4",
                    "midi": 67,
                    "time": 121.93167866666592,
                    "velocity": 0.28346456692913385,
                    "duration": 0.11524733333332904
                },
                {
                    "name": "C4",
                    "midi": 60,
                    "time": 122.04692599999925,
                    "velocity": 0.3543307086614173,
                    "duration": 0.11524733333332904
                },
                {
                    "name": "E4",
                    "midi": 64,
                    "time": 122.16217333333257,
                    "velocity": 0.2992125984251969,
                    "duration": 0.11524733333332904
                },
                {
                    "name": "G4",
                    "midi": 67,
                    "time": 122.2774206666659,
                    "velocity": 0.2992125984251969,
                    "duration": 0.11524733333332904
                },
                {
                    "name": "C4",
                    "midi": 60,
                    "time": 122.39266799999923,
                    "velocity": 0.3543307086614173,
                    "duration": 0.11524733333332904
                },
                {
                    "name": "E4",
                    "midi": 64,
                    "time": 122.50791533333256,
                    "velocity": 0.28346456692913385,
                    "duration": 0.11524733333332904
                },
                {
                    "name": "G4",
                    "midi": 67,
                    "time": 122.62316266666589,
                    "velocity": 0.28346456692913385,
                    "duration": 0.11524733333332904
                },
                {
                    "name": "B3",
                    "midi": 59,
                    "time": 122.73840999999922,
                    "velocity": 0.3543307086614173,
                    "duration": 0.11524733333332904
                },
                {
                    "name": "D4",
                    "midi": 62,
                    "time": 122.85365733333255,
                    "velocity": 0.28346456692913385,
                    "duration": 0.11524733333332904
                },
                {
                    "name": "G4",
                    "midi": 67,
                    "time": 122.96890466666588,
                    "velocity": 0.29133858267716534,
                    "duration": 0.11524733333332904
                },
                {
                    "name": "C4",
                    "midi": 60,
                    "time": 123.08415199999921,
                    "velocity": 0.3543307086614173,
                    "duration": 0.11524733333332904
                },
                {
                    "name": "E4",
                    "midi": 64,
                    "time": 123.19939933333254,
                    "velocity": 0.28346456692913385,
                    "duration": 0.11524733333332904
                },
                {
                    "name": "G4",
                    "midi": 67,
                    "time": 123.31464666666587,
                    "velocity": 0.28346456692913385,
                    "duration": 0.11524733333332904
                },
                {
                    "name": "C4",
                    "midi": 60,
                    "time": 123.4298939999992,
                    "velocity": 0.3543307086614173,
                    "duration": 0.11524733333332904
                },
                {
                    "name": "E4",
                    "midi": 64,
                    "time": 123.54514133333252,
                    "velocity": 0.2992125984251969,
                    "duration": 0.11524733333332904
                },
                {
                    "name": "G4",
                    "midi": 67,
                    "time": 123.66038866666585,
                    "velocity": 0.2992125984251969,
                    "duration": 0.11524733333332904
                },
                {
                    "name": "C4",
                    "midi": 60,
                    "time": 123.77563599999918,
                    "velocity": 0.3543307086614173,
                    "duration": 0.11524733333332904
                },
                {
                    "name": "E4",
                    "midi": 64,
                    "time": 123.89088333333251,
                    "velocity": 0.28346456692913385,
                    "duration": 0.11524733333332904
                },
                {
                    "name": "G4",
                    "midi": 67,
                    "time": 124.00613066666584,
                    "velocity": 0.28346456692913385,
                    "duration": 0.11524733333332904
                },
                {
                    "name": "B3",
                    "midi": 59,
                    "time": 124.12137799999917,
                    "velocity": 0.3543307086614173,
                    "duration": 0.11524733333332904
                },
                {
                    "name": "D4",
                    "midi": 62,
                    "time": 124.2366253333325,
                    "velocity": 0.28346456692913385,
                    "duration": 0.11524733333332904
                },
                {
                    "name": "G4",
                    "midi": 67,
                    "time": 124.35187266666583,
                    "velocity": 0.29133858267716534,
                    "duration": 0.11524733333332904
                },
                {
                    "name": "C4",
                    "midi": 60,
                    "time": 124.46711999999916,
                    "velocity": 0.3543307086614173,
                    "duration": 0.11524733333332904
                },
                {
                    "name": "E4",
                    "midi": 64,
                    "time": 124.58236733333248,
                    "velocity": 0.28346456692913385,
                    "duration": 0.11524733333332904
                },
                {
                    "name": "G4",
                    "midi": 67,
                    "time": 124.69761466666581,
                    "velocity": 0.28346456692913385,
                    "duration": 0.11524733333332904
                },
                {
                    "name": "C4",
                    "midi": 60,
                    "time": 124.81286199999914,
                    "velocity": 0.3543307086614173,
                    "duration": 0.11524733333332904
                },
                {
                    "name": "E4",
                    "midi": 64,
                    "time": 124.92810933333247,
                    "velocity": 0.2992125984251969,
                    "duration": 0.11524733333332904
                },
                {
                    "name": "G4",
                    "midi": 67,
                    "time": 125.0433566666658,
                    "velocity": 0.30708661417322836,
                    "duration": 0.11524733333332904
                },
                {
                    "name": "C4",
                    "midi": 60,
                    "time": 125.15860399999913,
                    "velocity": 0.36220472440944884,
                    "duration": 0.11524733333332904
                },
                {
                    "name": "E4",
                    "midi": 64,
                    "time": 125.27385133333246,
                    "velocity": 0.29133858267716534,
                    "duration": 0.11524733333332904
                },
                {
                    "name": "G4",
                    "midi": 67,
                    "time": 125.38909866666579,
                    "velocity": 0.29133858267716534,
                    "duration": 0.11524733333332904
                },
                {
                    "name": "C4",
                    "midi": 60,
                    "time": 125.50434599999912,
                    "velocity": 0.3700787401574803,
                    "duration": 0.11524733333332904
                },
                {
                    "name": "D4",
                    "midi": 62,
                    "time": 125.61959333333245,
                    "velocity": 0.2992125984251969,
                    "duration": 0.11524733333332904
                },
                {
                    "name": "F#4",
                    "midi": 66,
                    "time": 125.73484066666578,
                    "velocity": 0.30708661417322836,
                    "duration": 0.11524733333332904
                },
                {
                    "name": "B3",
                    "midi": 59,
                    "time": 125.8500879999991,
                    "velocity": 0.3779527559055118,
                    "duration": 0.11524733333332904
                },
                {
                    "name": "D4",
                    "midi": 62,
                    "time": 125.96533533333243,
                    "velocity": 0.2992125984251969,
                    "duration": 0.11524733333332904
                },
                {
                    "name": "G4",
                    "midi": 67,
                    "time": 126.08058266666576,
                    "velocity": 0.30708661417322836,
                    "duration": 0.11524733333332904
                },
                {
                    "name": "B3",
                    "midi": 59,
                    "time": 126.19582999999909,
                    "velocity": 0.3858267716535433,
                    "duration": 0.11524733333332904
                },
                {
                    "name": "D4",
                    "midi": 62,
                    "time": 126.31107733333242,
                    "velocity": 0.3228346456692913,
                    "duration": 0.11524733333332904
                },
                {
                    "name": "G4",
                    "midi": 67,
                    "time": 126.42632466666575,
                    "velocity": 0.33070866141732286,
                    "duration": 0.11524733333332904
                },
                {
                    "name": "B3",
                    "midi": 59,
                    "time": 126.54157199999908,
                    "velocity": 0.3937007874015748,
                    "duration": 0.11524733333332904
                },
                {
                    "name": "D4",
                    "midi": 62,
                    "time": 126.65681933333241,
                    "velocity": 0.31496062992125984,
                    "duration": 0.11524733333332904
                },
                {
                    "name": "G4",
                    "midi": 67,
                    "time": 126.77206666666574,
                    "velocity": 0.31496062992125984,
                    "duration": 0.11524733333332904
                },
                {
                    "name": "F#3",
                    "midi": 54,
                    "time": 126.88731399999907,
                    "velocity": 0.4015748031496063,
                    "duration": 0.11524733333332904
                },
                {
                    "name": "A3",
                    "midi": 57,
                    "time": 127.0025613333324,
                    "velocity": 0.3228346456692913,
                    "duration": 0.11524733333332904
                },
                {
                    "name": "D4",
                    "midi": 62,
                    "time": 127.11780866666572,
                    "velocity": 0.33070866141732286,
                    "duration": 0.11524733333332904
                },
                {
                    "name": "G3",
                    "midi": 55,
                    "time": 127.23305599999905,
                    "velocity": 0.4094488188976378,
                    "duration": 0.11524733333332904
                },
                {
                    "name": "B3",
                    "midi": 59,
                    "time": 127.34830333333238,
                    "velocity": 0.3228346456692913,
                    "duration": 0.11524733333332904
                },
                {
                    "name": "D4",
                    "midi": 62,
                    "time": 127.46355066666571,
                    "velocity": 0.33070866141732286,
                    "duration": 0.11524733333332904
                },
                {
                    "name": "G3",
                    "midi": 55,
                    "time": 127.57879799999904,
                    "velocity": 0.41732283464566927,
                    "duration": 0.11524733333332904
                },
                {
                    "name": "B3",
                    "midi": 59,
                    "time": 127.69404533333237,
                    "velocity": 0.3464566929133858,
                    "duration": 0.11524733333332904
                },
                {
                    "name": "D4",
                    "midi": 62,
                    "time": 127.8092926666657,
                    "velocity": 0.3543307086614173,
                    "duration": 0.11524733333332904
                },
                {
                    "name": "G3",
                    "midi": 55,
                    "time": 127.92453999999903,
                    "velocity": 0.4251968503937008,
                    "duration": 0.11524733333332904
                },
                {
                    "name": "B3",
                    "midi": 59,
                    "time": 128.03978733333236,
                    "velocity": 0.33858267716535434,
                    "duration": 0.11524733333334325
                },
                {
                    "name": "D4",
                    "midi": 62,
                    "time": 128.1550346666657,
                    "velocity": 0.33858267716535434,
                    "duration": 0.11524733333334325
                },
                {
                    "name": "F#3",
                    "midi": 54,
                    "time": 128.27028199999904,
                    "velocity": 0.4251968503937008,
                    "duration": 0.11524733333334325
                },
                {
                    "name": "A3",
                    "midi": 57,
                    "time": 128.38552933333239,
                    "velocity": 0.33858267716535434,
                    "duration": 0.11524733333334325
                },
                {
                    "name": "D4",
                    "midi": 62,
                    "time": 128.50077666666573,
                    "velocity": 0.3543307086614173,
                    "duration": 0.11524733333334325
                },
                {
                    "name": "G3",
                    "midi": 55,
                    "time": 128.61602399999907,
                    "velocity": 0.4330708661417323,
                    "duration": 0.11524733333334325
                },
                {
                    "name": "B3",
                    "midi": 59,
                    "time": 128.73127133333242,
                    "velocity": 0.3464566929133858,
                    "duration": 0.11524733333334325
                },
                {
                    "name": "D4",
                    "midi": 62,
                    "time": 128.84651866666576,
                    "velocity": 0.3543307086614173,
                    "duration": 0.11524733333334325
                },
                {
                    "name": "G3",
                    "midi": 55,
                    "time": 128.9617659999991,
                    "velocity": 0.4409448818897638,
                    "duration": 0.11524733333334325
                },
                {
                    "name": "B3",
                    "midi": 59,
                    "time": 129.07701333333245,
                    "velocity": 0.3700787401574803,
                    "duration": 0.11524733333334325
                },
                {
                    "name": "D4",
                    "midi": 62,
                    "time": 129.1922606666658,
                    "velocity": 0.3779527559055118,
                    "duration": 0.11524733333334325
                },
                {
                    "name": "G3",
                    "midi": 55,
                    "time": 129.30750799999913,
                    "velocity": 0.44881889763779526,
                    "duration": 0.11524733333334325
                },
                {
                    "name": "B3",
                    "midi": 59,
                    "time": 129.42275533333247,
                    "velocity": 0.36220472440944884,
                    "duration": 0.11524733333334325
                },
                {
                    "name": "D4",
                    "midi": 62,
                    "time": 129.53800266666582,
                    "velocity": 0.36220472440944884,
                    "duration": 0.11524733333334325
                },
                {
                    "name": "G3",
                    "midi": 55,
                    "time": 129.65324999999916,
                    "velocity": 0.44881889763779526,
                    "duration": 0.11524733333334325
                },
                {
                    "name": "B3",
                    "midi": 59,
                    "time": 129.7684973333325,
                    "velocity": 0.3937007874015748,
                    "duration": 0.11524733333334325
                },
                {
                    "name": "D4",
                    "midi": 62,
                    "time": 129.88374466666585,
                    "velocity": 0.3937007874015748,
                    "duration": 0.11524733333334325
                },
                {
                    "name": "F#3",
                    "midi": 54,
                    "time": 129.9989919999992,
                    "velocity": 0.4409448818897638,
                    "duration": 0.11524733333334325
                },
                {
                    "name": "A3",
                    "midi": 57,
                    "time": 130.11423933333253,
                    "velocity": 0.33858267716535434,
                    "duration": 0.11524733333334325
                },
                {
                    "name": "D4",
                    "midi": 62,
                    "time": 130.22948666666588,
                    "velocity": 0.3543307086614173,
                    "duration": 0.11524733333334325
                },
                {
                    "name": "F#3",
                    "midi": 54,
                    "time": 130.34473399999922,
                    "velocity": 0.4409448818897638,
                    "duration": 0.11524733333334325
                },
                {
                    "name": "A3",
                    "midi": 57,
                    "time": 130.45998133333256,
                    "velocity": 0.3543307086614173,
                    "duration": 0.11524733333334325
                },
                {
                    "name": "D4",
                    "midi": 62,
                    "time": 130.5752286666659,
                    "velocity": 0.3543307086614173,
                    "duration": 0.11524733333334325
                },
                {
                    "name": "G3",
                    "midi": 55,
                    "time": 130.69047599999925,
                    "velocity": 0.4409448818897638,
                    "duration": 0.11524733333334325
                },
                {
                    "name": "B3",
                    "midi": 59,
                    "time": 130.8057233333326,
                    "velocity": 0.33858267716535434,
                    "duration": 0.11524733333334325
                },
                {
                    "name": "D4",
                    "midi": 62,
                    "time": 130.92097066666594,
                    "velocity": 0.3464566929133858,
                    "duration": 0.11524733333334325
                },
                {
                    "name": "G3",
                    "midi": 55,
                    "time": 131.03621799999928,
                    "velocity": 0.4409448818897638,
                    "duration": 0.11524733333334325
                },
                {
                    "name": "B3",
                    "midi": 59,
                    "time": 131.15146533333262,
                    "velocity": 0.36220472440944884,
                    "duration": 0.11524733333334325
                },
                {
                    "name": "D4",
                    "midi": 62,
                    "time": 131.26671266666597,
                    "velocity": 0.36220472440944884,
                    "duration": 0.11524733333334325
                },
                {
                    "name": "C4",
                    "midi": 60,
                    "time": 131.3819599999993,
                    "velocity": 0.4409448818897638,
                    "duration": 0.11524733333334325
                },
                {
                    "name": "D4",
                    "midi": 62,
                    "time": 131.49720733333265,
                    "velocity": 0.33858267716535434,
                    "duration": 0.11524733333334325
                },
                {
                    "name": "F#4",
                    "midi": 66,
                    "time": 131.612454666666,
                    "velocity": 0.3543307086614173,
                    "duration": 0.11524733333334325
                },
                {
                    "name": "C4",
                    "midi": 60,
                    "time": 131.72770199999934,
                    "velocity": 0.4409448818897638,
                    "duration": 0.11524733333334325
                },
                {
                    "name": "D4",
                    "midi": 62,
                    "time": 131.84294933333268,
                    "velocity": 0.3543307086614173,
                    "duration": 0.11524733333334325
                },
                {
                    "name": "F#4",
                    "midi": 66,
                    "time": 131.95819666666603,
                    "velocity": 0.3543307086614173,
                    "duration": 0.11524733333334325
                },
                {
                    "name": "B3",
                    "midi": 59,
                    "time": 132.07344399999937,
                    "velocity": 0.4409448818897638,
                    "duration": 0.11524733333334325
                },
                {
                    "name": "D4",
                    "midi": 62,
                    "time": 132.1886913333327,
                    "velocity": 0.33858267716535434,
                    "duration": 0.11524733333334325
                },
                {
                    "name": "G4",
                    "midi": 67,
                    "time": 132.30393866666606,
                    "velocity": 0.3464566929133858,
                    "duration": 0.11524733333334325
                },
                {
                    "name": "B3",
                    "midi": 59,
                    "time": 132.4191859999994,
                    "velocity": 0.30708661417322836,
                    "duration": 0.11524733333334325
                },
                {
                    "name": "D4",
                    "midi": 62,
                    "time": 132.53443333333274,
                    "velocity": 0.2755905511811024,
                    "duration": 0.11524733333334325
                },
                {
                    "name": "G4",
                    "midi": 67,
                    "time": 132.6496806666661,
                    "velocity": 0.2755905511811024,
                    "duration": 0.11524733333334325
                },
                {
                    "name": "F#3",
                    "midi": 54,
                    "time": 132.76492799999943,
                    "velocity": 0.30708661417322836,
                    "duration": 0.11524733333334325
                },
                {
                    "name": "A3",
                    "midi": 57,
                    "time": 132.88017533333277,
                    "velocity": 0.23622047244094488,
                    "duration": 0.11524733333334325
                },
                {
                    "name": "D4",
                    "midi": 62,
                    "time": 132.99542266666612,
                    "velocity": 0.2440944881889764,
                    "duration": 0.11524733333334325
                },
                {
                    "name": "F#3",
                    "midi": 54,
                    "time": 133.11066999999946,
                    "velocity": 0.30708661417322836,
                    "duration": 0.11524733333334325
                },
                {
                    "name": "A3",
                    "midi": 57,
                    "time": 133.2259173333328,
                    "velocity": 0.2440944881889764,
                    "duration": 0.11524733333334325
                },
                {
                    "name": "D4",
                    "midi": 62,
                    "time": 133.34116466666615,
                    "velocity": 0.2440944881889764,
                    "duration": 0.11524733333334325
                },
                {
                    "name": "G3",
                    "midi": 55,
                    "time": 133.4564119999995,
                    "velocity": 0.30708661417322836,
                    "duration": 0.11524733333334325
                },
                {
                    "name": "B3",
                    "midi": 59,
                    "time": 133.57165933333283,
                    "velocity": 0.23622047244094488,
                    "duration": 0.11524733333334325
                },
                {
                    "name": "D4",
                    "midi": 62,
                    "time": 133.68690666666618,
                    "velocity": 0.23622047244094488,
                    "duration": 0.11524733333334325
                },
                {
                    "name": "G3",
                    "midi": 55,
                    "time": 133.80215399999952,
                    "velocity": 0.30708661417322836,
                    "duration": 0.11524733333334325
                },
                {
                    "name": "B3",
                    "midi": 59,
                    "time": 133.91740133333286,
                    "velocity": 0.25196850393700787,
                    "duration": 0.11524733333334325
                },
                {
                    "name": "D4",
                    "midi": 62,
                    "time": 134.0326486666662,
                    "velocity": 0.25196850393700787,
                    "duration": 0.11524733333334325
                },
                {
                    "name": "C4",
                    "midi": 60,
                    "time": 134.14789599999955,
                    "velocity": 0.30708661417322836,
                    "duration": 0.11524733333334325
                },
                {
                    "name": "D4",
                    "midi": 62,
                    "time": 134.2631433333329,
                    "velocity": 0.23622047244094488,
                    "duration": 0.11524733333334325
                },
                {
                    "name": "F#4",
                    "midi": 66,
                    "time": 134.37839066666623,
                    "velocity": 0.2440944881889764,
                    "duration": 0.11524733333334325
                },
                {
                    "name": "C4",
                    "midi": 60,
                    "time": 134.49363799999958,
                    "velocity": 0.30708661417322836,
                    "duration": 0.11524733333334325
                },
                {
                    "name": "D4",
                    "midi": 62,
                    "time": 134.60888533333292,
                    "velocity": 0.2440944881889764,
                    "duration": 0.11524733333334325
                },
                {
                    "name": "F#4",
                    "midi": 66,
                    "time": 134.72413266666626,
                    "velocity": 0.2440944881889764,
                    "duration": 0.11524733333334325
                },
                {
                    "name": "B3",
                    "midi": 59,
                    "time": 134.8393799999996,
                    "velocity": 0.30708661417322836,
                    "duration": 0.11524733333334325
                },
                {
                    "name": "D4",
                    "midi": 62,
                    "time": 134.95462733333295,
                    "velocity": 0.23622047244094488,
                    "duration": 0.11524733333334325
                },
                {
                    "name": "G4",
                    "midi": 67,
                    "time": 135.0698746666663,
                    "velocity": 0.23622047244094488,
                    "duration": 0.11524733333334325
                },
                {
                    "name": "B3",
                    "midi": 59,
                    "time": 135.18512199999964,
                    "velocity": 0.4251968503937008,
                    "duration": 0.11524733333334325
                },
                {
                    "name": "D4",
                    "midi": 62,
                    "time": 135.30036933333298,
                    "velocity": 0.33858267716535434,
                    "duration": 0.11524733333334325
                },
                {
                    "name": "G4",
                    "midi": 67,
                    "time": 135.41561666666632,
                    "velocity": 0.3464566929133858,
                    "duration": 0.11524733333334325
                },
                {
                    "name": "C4",
                    "midi": 60,
                    "time": 135.53086399999967,
                    "velocity": 0.4251968503937008,
                    "duration": 0.11524733333334325
                },
                {
                    "name": "E4",
                    "midi": 64,
                    "time": 135.646111333333,
                    "velocity": 0.31496062992125984,
                    "duration": 0.11524733333334325
                },
                {
                    "name": "A4",
                    "midi": 69,
                    "time": 135.76135866666635,
                    "velocity": 0.3228346456692913,
                    "duration": 0.11524733333334325
                },
                {
                    "name": "C4",
                    "midi": 60,
                    "time": 135.8766059999997,
                    "velocity": 0.4330708661417323,
                    "duration": 0.11524733333334325
                },
                {
                    "name": "E4",
                    "midi": 64,
                    "time": 135.99185333333304,
                    "velocity": 0.33070866141732286,
                    "duration": 0.11524733333334325
                },
                {
                    "name": "A4",
                    "midi": 69,
                    "time": 136.10710066666638,
                    "velocity": 0.33070866141732286,
                    "duration": 0.11524733333334325
                },
                {
                    "name": "C#4",
                    "midi": 61,
                    "time": 136.22234799999973,
                    "velocity": 0.41732283464566927,
                    "duration": 0.11524733333334325
                },
                {
                    "name": "E4",
                    "midi": 64,
                    "time": 136.33759533333307,
                    "velocity": 0.3228346456692913,
                    "duration": 0.11524733333334325
                },
                {
                    "name": "A4",
                    "midi": 69,
                    "time": 136.4528426666664,
                    "velocity": 0.3228346456692913,
                    "duration": 0.11524733333334325
                },
                {
                    "name": "C#4",
                    "midi": 61,
                    "time": 136.56808999999976,
                    "velocity": 0.4015748031496063,
                    "duration": 0.11524733333334325
                },
                {
                    "name": "E4",
                    "midi": 64,
                    "time": 136.6833373333331,
                    "velocity": 0.33070866141732286,
                    "duration": 0.11524733333334325
                },
                {
                    "name": "A4",
                    "midi": 69,
                    "time": 136.79858466666644,
                    "velocity": 0.33858267716535434,
                    "duration": 0.11524733333334325
                },
                {
                    "name": "D4",
                    "midi": 62,
                    "time": 136.9138319999998,
                    "velocity": 0.4566929133858268,
                    "duration": 0.3457420000000013
                },
                {
                    "name": "D4",
                    "midi": 62,
                    "time": 137.5188804999998,
                    "velocity": 0.4881889763779528,
                    "duration": 0.08643549999999323
                },
                {
                    "name": "F#4",
                    "midi": 66,
                    "time": 137.6053159999998,
                    "velocity": 0.5354330708661418,
                    "duration": 0.2593065000000081
                },
                {
                    "name": "D4",
                    "midi": 62,
                    "time": 137.8646224999998,
                    "velocity": 0.4881889763779528,
                    "duration": 0.08643549999999323
                },
                {
                    "name": "A4",
                    "midi": 69,
                    "time": 137.9510579999998,
                    "velocity": 0.5354330708661418,
                    "duration": 0.2593065000000081
                },
                {
                    "name": "F#4",
                    "midi": 66,
                    "time": 138.2103644999998,
                    "velocity": 0.5039370078740157,
                    "duration": 0.08643549999999323
                },
                {
                    "name": "D5",
                    "midi": 74,
                    "time": 138.2967999999998,
                    "velocity": 0.6299212598425197,
                    "duration": 0.3457420000000013
                },
                {
                    "name": "D3",
                    "midi": 50,
                    "time": 138.9018484999998,
                    "velocity": 0.4881889763779528,
                    "duration": 0.08643549999999323
                },
                {
                    "name": "F#3",
                    "midi": 54,
                    "time": 138.9882839999998,
                    "velocity": 0.5590551181102362,
                    "duration": 0.11524733333334325
                },
                {
                    "name": "D3",
                    "midi": 50,
                    "time": 139.10353133333314,
                    "velocity": 0.4881889763779528,
                    "duration": 0.11524733333334325
                },
                {
                    "name": "F#3",
                    "midi": 54,
                    "time": 139.21877866666648,
                    "velocity": 0.4881889763779528,
                    "duration": 0.11524733333334325
                },
                {
                    "name": "A3",
                    "midi": 57,
                    "time": 139.33402599999982,
                    "velocity": 0.5354330708661418,
                    "duration": 0.11524733333334325
                },
                {
                    "name": "F#3",
                    "midi": 54,
                    "time": 139.44927333333317,
                    "velocity": 0.5039370078740157,
                    "duration": 0.11524733333334325
                },
                {
                    "name": "A3",
                    "midi": 57,
                    "time": 139.5645206666665,
                    "velocity": 0.5039370078740157,
                    "duration": 0.11524733333334325
                },
                {
                    "name": "D4",
                    "midi": 62,
                    "time": 139.67976799999985,
                    "velocity": 0.5826771653543307,
                    "duration": 0.3457420000000013
                },
                {
                    "name": "D2",
                    "midi": 38,
                    "time": 140.37125199999986,
                    "velocity": 0.6614173228346457,
                    "duration": 0.5186129999999878
                },
                {
                    "name": "D2",
                    "midi": 38,
                    "time": 140.88986499999984,
                    "velocity": 0.6141732283464567,
                    "duration": 0.17287099999998645
                },
                {
                    "name": "D2",
                    "midi": 38,
                    "time": 141.06273599999983,
                    "velocity": 0.6614173228346457,
                    "duration": 0.3457420000000013
                },
                {
                    "name": "B3",
                    "midi": 59,
                    "time": 142.44570399999984,
                    "velocity": 0.31496062992125984,
                    "duration": 0.11524733333334325
                },
                {
                    "name": "D4",
                    "midi": 62,
                    "time": 142.56311222083318,
                    "velocity": 0.25196850393700787,
                    "duration": 0.11524733333334325
                },
                {
                    "name": "G4",
                    "midi": 67,
                    "time": 142.67619866666652,
                    "velocity": 0.25196850393700787,
                    "duration": 0.11524733333334325
                },
                {
                    "name": "B3",
                    "midi": 59,
                    "time": 142.79144599999987,
                    "velocity": 0.31496062992125984,
                    "duration": 0.11524733333334325
                },
                {
                    "name": "D4",
                    "midi": 62,
                    "time": 142.9088542208332,
                    "velocity": 0.2677165354330709,
                    "duration": 0.11524733333334325
                },
                {
                    "name": "G4",
                    "midi": 67,
                    "time": 143.02194066666655,
                    "velocity": 0.2677165354330709,
                    "duration": 0.11524733333334325
                },
                {
                    "name": "B3",
                    "midi": 59,
                    "time": 143.1371879999999,
                    "velocity": 0.31496062992125984,
                    "duration": 0.11524733333334325
                },
                {
                    "name": "D4",
                    "midi": 62,
                    "time": 143.25459622083324,
                    "velocity": 0.25196850393700787,
                    "duration": 0.11524733333334325
                },
                {
                    "name": "G4",
                    "midi": 67,
                    "time": 143.36768266666658,
                    "velocity": 0.25196850393700787,
                    "duration": 0.11524733333334325
                },
                {
                    "name": "C4",
                    "midi": 60,
                    "time": 143.48292999999993,
                    "velocity": 0.31496062992125984,
                    "duration": 0.11524733333334325
                },
                {
                    "name": "D4",
                    "midi": 62,
                    "time": 143.59817733333327,
                    "velocity": 0.25196850393700787,
                    "duration": 0.11524733333334325
                },
                {
                    "name": "F#4",
                    "midi": 66,
                    "time": 143.7134246666666,
                    "velocity": 0.25984251968503935,
                    "duration": 0.11524733333334325
                },
                {
                    "name": "B3",
                    "midi": 59,
                    "time": 143.82867199999995,
                    "velocity": 0.31496062992125984,
                    "duration": 0.11524733333331483
                },
                {
                    "name": "D4",
                    "midi": 62,
                    "time": 143.9403178541666,
                    "velocity": 0.25196850393700787,
                    "duration": 0.11524733333331483
                },
                {
                    "name": "G4",
                    "midi": 67,
                    "time": 144.05916666666658,
                    "velocity": 0.25196850393700787,
                    "duration": 0.11524733333334325
                },
                {
                    "name": "B3",
                    "midi": 59,
                    "time": 144.17441399999993,
                    "velocity": 0.3228346456692913,
                    "duration": 0.11524733333331483
                },
                {
                    "name": "D4",
                    "midi": 62,
                    "time": 144.28605985416658,
                    "velocity": 0.2755905511811024,
                    "duration": 0.11524733333331483
                },
                {
                    "name": "G4",
                    "midi": 67,
                    "time": 144.40490866666656,
                    "velocity": 0.28346456692913385,
                    "duration": 0.11524733333334325
                },
                {
                    "name": "B3",
                    "midi": 59,
                    "time": 144.5201559999999,
                    "velocity": 0.33858267716535434,
                    "duration": 0.11524733333334325
                },
                {
                    "name": "D4",
                    "midi": 62,
                    "time": 144.63540333333324,
                    "velocity": 0.2755905511811024,
                    "duration": 0.11524733333334325
                },
                {
                    "name": "G4",
                    "midi": 67,
                    "time": 144.7506506666666,
                    "velocity": 0.2755905511811024,
                    "duration": 0.11524733333334325
                },
                {
                    "name": "C4",
                    "midi": 60,
                    "time": 144.86589799999993,
                    "velocity": 0.3543307086614173,
                    "duration": 0.11524733333334325
                },
                {
                    "name": "D4",
                    "midi": 62,
                    "time": 144.98114533333327,
                    "velocity": 0.29133858267716534,
                    "duration": 0.11524733333334325
                },
                {
                    "name": "F#4",
                    "midi": 66,
                    "time": 145.09639266666662,
                    "velocity": 0.2992125984251969,
                    "duration": 0.11524733333334325
                },
                {
                    "name": "B3",
                    "midi": 59,
                    "time": 145.21163999999996,
                    "velocity": 0.3779527559055118,
                    "duration": 0.11524733333334325
                },
                {
                    "name": "D4",
                    "midi": 62,
                    "time": 145.3268873333333,
                    "velocity": 0.2992125984251969,
                    "duration": 0.11524733333334325
                },
                {
                    "name": "G4",
                    "midi": 67,
                    "time": 145.44213466666665,
                    "velocity": 0.30708661417322836,
                    "duration": 0.11524733333334325
                },
                {
                    "name": "B3",
                    "midi": 59,
                    "time": 145.557382,
                    "velocity": 0.3858267716535433,
                    "duration": 0.11524733333334325
                },
                {
                    "name": "D4",
                    "midi": 62,
                    "time": 145.67262933333333,
                    "velocity": 0.3228346456692913,
                    "duration": 0.11524733333334325
                },
                {
                    "name": "G4",
                    "midi": 67,
                    "time": 145.78787666666668,
                    "velocity": 0.33070866141732286,
                    "duration": 0.11524733333334325
                },
                {
                    "name": "B3",
                    "midi": 59,
                    "time": 145.90312400000002,
                    "velocity": 0.3937007874015748,
                    "duration": 0.11524733333334325
                },
                {
                    "name": "D4",
                    "midi": 62,
                    "time": 146.01837133333336,
                    "velocity": 0.31496062992125984,
                    "duration": 0.11524733333334325
                },
                {
                    "name": "G4",
                    "midi": 67,
                    "time": 146.1336186666667,
                    "velocity": 0.31496062992125984,
                    "duration": 0.11524733333334325
                },
                {
                    "name": "C4",
                    "midi": 60,
                    "time": 146.24886600000005,
                    "velocity": 0.4015748031496063,
                    "duration": 0.11524733333334325
                },
                {
                    "name": "D4",
                    "midi": 62,
                    "time": 146.3641133333334,
                    "velocity": 0.3228346456692913,
                    "duration": 0.11524733333334325
                },
                {
                    "name": "F#4",
                    "midi": 66,
                    "time": 146.47936066666674,
                    "velocity": 0.33070866141732286,
                    "duration": 0.11524733333334325
                },
                {
                    "name": "B3",
                    "midi": 59,
                    "time": 146.59460800000008,
                    "velocity": 0.4094488188976378,
                    "duration": 0.11524733333334325
                },
                {
                    "name": "D4",
                    "midi": 62,
                    "time": 146.70985533333342,
                    "velocity": 0.3228346456692913,
                    "duration": 0.11524733333334325
                },
                {
                    "name": "G4",
                    "midi": 67,
                    "time": 146.82510266666677,
                    "velocity": 0.33070866141732286,
                    "duration": 0.11524733333334325
                },
                {
                    "name": "B3",
                    "midi": 59,
                    "time": 146.9403500000001,
                    "velocity": 0.4251968503937008,
                    "duration": 0.11524733333334325
                },
                {
                    "name": "D4",
                    "midi": 62,
                    "time": 147.05559733333345,
                    "velocity": 0.3543307086614173,
                    "duration": 0.11524733333334325
                },
                {
                    "name": "G4",
                    "midi": 67,
                    "time": 147.1708446666668,
                    "velocity": 0.36220472440944884,
                    "duration": 0.11524733333334325
                },
                {
                    "name": "F#3",
                    "midi": 54,
                    "time": 147.28609200000014,
                    "velocity": 0.4409448818897638,
                    "duration": 0.11524733333334325
                },
                {
                    "name": "A3",
                    "midi": 57,
                    "time": 147.40133933333348,
                    "velocity": 0.3543307086614173,
                    "duration": 0.11524733333334325
                },
                {
                    "name": "D4",
                    "midi": 62,
                    "time": 147.51658666666683,
                    "velocity": 0.3543307086614173,
                    "duration": 0.11524733333334325
                },
                {
                    "name": "F#3",
                    "midi": 54,
                    "time": 147.63183400000017,
                    "velocity": 0.44881889763779526,
                    "duration": 0.11524733333334325
                },
                {
                    "name": "A3",
                    "midi": 57,
                    "time": 147.7470813333335,
                    "velocity": 0.36220472440944884,
                    "duration": 0.11524733333334325
                },
                {
                    "name": "D4",
                    "midi": 62,
                    "time": 147.86232866666685,
                    "velocity": 0.3779527559055118,
                    "duration": 0.11524733333334325
                },
                {
                    "name": "G3",
                    "midi": 55,
                    "time": 147.9775760000002,
                    "velocity": 0.4645669291338583,
                    "duration": 0.11524733333334325
                },
                {
                    "name": "B3",
                    "midi": 59,
                    "time": 148.09282333333354,
                    "velocity": 0.3779527559055118,
                    "duration": 0.11524733333334325
                },
                {
                    "name": "D4",
                    "midi": 62,
                    "time": 148.20807066666688,
                    "velocity": 0.3858267716535433,
                    "duration": 0.11524733333334325
                },
                {
                    "name": "G3",
                    "midi": 55,
                    "time": 148.32331800000023,
                    "velocity": 0.4881889763779528,
                    "duration": 0.11524733333334325
                },
                {
                    "name": "B3",
                    "midi": 59,
                    "time": 148.43856533333357,
                    "velocity": 0.4094488188976378,
                    "duration": 0.11524733333334325
                },
                {
                    "name": "D4",
                    "midi": 62,
                    "time": 148.55381266666691,
                    "velocity": 0.4251968503937008,
                    "duration": 0.11524733333334325
                },
                {
                    "name": "E3",
                    "midi": 52,
                    "time": 148.66906000000026,
                    "velocity": 0.5039370078740157,
                    "duration": 0.11524733333334325
                },
                {
                    "name": "G3",
                    "midi": 55,
                    "time": 148.7843073333336,
                    "velocity": 0.4094488188976378,
                    "duration": 0.11524733333334325
                },
                {
                    "name": "C4",
                    "midi": 60,
                    "time": 148.89955466666694,
                    "velocity": 0.4094488188976378,
                    "duration": 0.11524733333334325
                },
                {
                    "name": "E3",
                    "midi": 52,
                    "time": 149.0148020000003,
                    "velocity": 0.5196850393700787,
                    "duration": 0.11524733333334325
                },
                {
                    "name": "G3",
                    "midi": 55,
                    "time": 149.13004933333363,
                    "velocity": 0.4566929133858268,
                    "duration": 0.11524733333334325
                },
                {
                    "name": "C4",
                    "midi": 60,
                    "time": 149.24529666666697,
                    "velocity": 0.4645669291338583,
                    "duration": 0.11524733333334325
                },
                {
                    "name": "B2",
                    "midi": 47,
                    "time": 149.36054400000032,
                    "velocity": 0.5275590551181102,
                    "duration": 0.11524733333334325
                },
                {
                    "name": "D3",
                    "midi": 50,
                    "time": 149.47507103750033,
                    "velocity": 0.47244094488188976,
                    "duration": 0.11524733333334325
                },
                {
                    "name": "G3",
                    "midi": 55,
                    "time": 149.58959807500034,
                    "velocity": 0.48031496062992124,
                    "duration": 0.11524733333334325
                },
                {
                    "name": "B2",
                    "midi": 47,
                    "time": 149.70412511250035,
                    "velocity": 0.5354330708661418,
                    "duration": 0.11524733333334325
                },
                {
                    "name": "D3",
                    "midi": 50,
                    "time": 149.81865215000036,
                    "velocity": 0.4881889763779528,
                    "duration": 0.11524733333334325
                },
                {
                    "name": "G3",
                    "midi": 55,
                    "time": 149.93534007500037,
                    "velocity": 0.4881889763779528,
                    "duration": 0.11524733333334325
                },
                {
                    "name": "B2",
                    "midi": 47,
                    "time": 150.05202800000038,
                    "velocity": 0.5590551181102362,
                    "duration": 0.3457420000000013
                },
                {
                    "name": "C3",
                    "midi": 48,
                    "time": 150.74351200000038,
                    "velocity": 0.5669291338582677,
                    "duration": 0.3457420000000013
                },
                {
                    "name": "C2",
                    "midi": 36,
                    "time": 150.74351200000038,
                    "velocity": 0.5669291338582677,
                    "duration": 0.3457420000000013
                },
                {
                    "name": "B4",
                    "midi": 71,
                    "time": 153.5094480000004,
                    "velocity": 0.33070866141732286,
                    "duration": 0.6914840000000027
                },
                {
                    "name": "D4",
                    "midi": 62,
                    "time": 153.5094480000004,
                    "velocity": 0.33070866141732286,
                    "duration": 1.3829680000000053
                },
                {
                    "name": "C5",
                    "midi": 72,
                    "time": 154.2009320000004,
                    "velocity": 0.33858267716535434,
                    "duration": 0.6914840000000027
                },
                {
                    "name": "G4",
                    "midi": 67,
                    "time": 154.8924160000004,
                    "velocity": 0.31496062992125984,
                    "duration": 0.3457420000000013
                },
                {
                    "name": "B4",
                    "midi": 71,
                    "time": 154.8924160000004,
                    "velocity": 0.31496062992125984,
                    "duration": 0.3457420000000013
                },
                {
                    "name": "G5",
                    "midi": 79,
                    "time": 155.9296420000004,
                    "velocity": 0.28346456692913385,
                    "duration": 0.3457420000000013
                },
                {
                    "name": "F#5",
                    "midi": 78,
                    "time": 156.2753840000004,
                    "velocity": 0.2992125984251969,
                    "duration": 0.08643549999999323
                },
                {
                    "name": "A5",
                    "midi": 81,
                    "time": 156.2753840000004,
                    "velocity": 0.2992125984251969,
                    "duration": 0.08643549999999323
                },
                {
                    "name": "E5",
                    "midi": 76,
                    "time": 157.3126100000004,
                    "velocity": 0.28346456692913385,
                    "duration": 0.3457420000000013
                },
                {
                    "name": "F#5",
                    "midi": 78,
                    "time": 157.6583520000004,
                    "velocity": 0.2992125984251969,
                    "duration": 0.08643549999999323
                },
                {
                    "name": "D5",
                    "midi": 74,
                    "time": 157.6583520000004,
                    "velocity": 0.2992125984251969,
                    "duration": 0.08643549999999323
                },
                {
                    "name": "C5",
                    "midi": 72,
                    "time": 158.6955780000004,
                    "velocity": 0.28346456692913385,
                    "duration": 0.3457420000000013
                },
                {
                    "name": "D5",
                    "midi": 74,
                    "time": 159.0413200000004,
                    "velocity": 0.2992125984251969,
                    "duration": 0.08643549999999323
                },
                {
                    "name": "B4",
                    "midi": 71,
                    "time": 159.0413200000004,
                    "velocity": 0.2992125984251969,
                    "duration": 0.08643549999999323
                },
                {
                    "name": "B4",
                    "midi": 71,
                    "time": 160.07854600000042,
                    "velocity": 0.28346456692913385,
                    "duration": 0.3457420000000013
                },
                {
                    "name": "G4",
                    "midi": 67,
                    "time": 160.07854600000042,
                    "velocity": 0.28346456692913385,
                    "duration": 0.3457420000000013
                },
                {
                    "name": "C5",
                    "midi": 72,
                    "time": 160.42428800000042,
                    "velocity": 0.3228346456692913,
                    "duration": 0.08643549999999323
                },
                {
                    "name": "C4",
                    "midi": 60,
                    "time": 160.42428800000042,
                    "velocity": 0.3228346456692913,
                    "duration": 0.08643549999999323
                },
                {
                    "name": "D4",
                    "midi": 62,
                    "time": 161.11577200000042,
                    "velocity": 0.2992125984251969,
                    "duration": 0.08643549999999323
                },
                {
                    "name": "A4",
                    "midi": 69,
                    "time": 161.11577200000042,
                    "velocity": 0.2992125984251969,
                    "duration": 0.08643549999999323
                },
                {
                    "name": "B4",
                    "midi": 71,
                    "time": 161.80725600000042,
                    "velocity": 0.3228346456692913,
                    "duration": 0.08643549999999323
                },
                {
                    "name": "G4",
                    "midi": 67,
                    "time": 161.80725600000042,
                    "velocity": 0.3228346456692913,
                    "duration": 0.08643549999999323
                },
                {
                    "name": "G5",
                    "midi": 79,
                    "time": 162.84448200000043,
                    "velocity": 0.5511811023622047,
                    "duration": 0.3457420000000013
                },
                {
                    "name": "F#5",
                    "midi": 78,
                    "time": 163.19022400000043,
                    "velocity": 0.3464566929133858,
                    "duration": 0.08643549999999323
                },
                {
                    "name": "F#5",
                    "midi": 78,
                    "time": 163.53596600000043,
                    "velocity": 0.2755905511811024,
                    "duration": 0.08643549999999323
                },
                {
                    "name": "F#5",
                    "midi": 78,
                    "time": 163.88170800000043,
                    "velocity": 0.2755905511811024,
                    "duration": 0.08643549999999323
                },
                {
                    "name": "G5",
                    "midi": 79,
                    "time": 164.22745000000043,
                    "velocity": 0.5511811023622047,
                    "duration": 0.3457420000000013
                },
                {
                    "name": "F#5",
                    "midi": 78,
                    "time": 164.57319200000043,
                    "velocity": 0.3464566929133858,
                    "duration": 0.08643549999999323
                },
                {
                    "name": "F#5",
                    "midi": 78,
                    "time": 164.91893400000043,
                    "velocity": 0.25196850393700787,
                    "duration": 0.08643549999999323
                },
                {
                    "name": "F#5",
                    "midi": 78,
                    "time": 165.26467600000043,
                    "velocity": 0.25196850393700787,
                    "duration": 0.08643549999999323
                },
                {
                    "name": "E5",
                    "midi": 76,
                    "time": 165.61041800000044,
                    "velocity": 0.49606299212598426,
                    "duration": 0.3457420000000013
                },
                {
                    "name": "D5",
                    "midi": 74,
                    "time": 165.95616000000044,
                    "velocity": 0.30708661417322836,
                    "duration": 0.08643549999999323
                },
                {
                    "name": "D5",
                    "midi": 74,
                    "time": 166.30190200000044,
                    "velocity": 0.23622047244094488,
                    "duration": 0.08643549999999323
                },
                {
                    "name": "D5",
                    "midi": 74,
                    "time": 166.64764400000044,
                    "velocity": 0.23622047244094488,
                    "duration": 0.08643549999999323
                },
                {
                    "name": "E5",
                    "midi": 76,
                    "time": 166.99338600000044,
                    "velocity": 0.4566929133858268,
                    "duration": 0.3457420000000013
                },
                {
                    "name": "D5",
                    "midi": 74,
                    "time": 167.33912800000044,
                    "velocity": 0.30708661417322836,
                    "duration": 0.08643549999999323
                },
                {
                    "name": "D5",
                    "midi": 74,
                    "time": 167.68487000000044,
                    "velocity": 0.2204724409448819,
                    "duration": 0.08643549999999323
                },
                {
                    "name": "D5",
                    "midi": 74,
                    "time": 168.03061200000045,
                    "velocity": 0.2204724409448819,
                    "duration": 0.08643549999999323
                },
                {
                    "name": "C5",
                    "midi": 72,
                    "time": 168.37635400000045,
                    "velocity": 0.4409448818897638,
                    "duration": 0.3457420000000013
                },
                {
                    "name": "B4",
                    "midi": 71,
                    "time": 168.72209600000045,
                    "velocity": 0.30708661417322836,
                    "duration": 0.08643549999999323
                },
                {
                    "name": "B4",
                    "midi": 71,
                    "time": 169.06783800000045,
                    "velocity": 0.2204724409448819,
                    "duration": 0.08643549999999323
                },
                {
                    "name": "B4",
                    "midi": 71,
                    "time": 169.41358000000045,
                    "velocity": 0.2283464566929134,
                    "duration": 0.08643549999999323
                },
                {
                    "name": "C5",
                    "midi": 72,
                    "time": 169.75932200000045,
                    "velocity": 0.4409448818897638,
                    "duration": 0.3457420000000013
                },
                {
                    "name": "B4",
                    "midi": 71,
                    "time": 170.10506400000045,
                    "velocity": 0.30708661417322836,
                    "duration": 0.08643549999999323
                },
                {
                    "name": "B4",
                    "midi": 71,
                    "time": 170.45080600000045,
                    "velocity": 0.2204724409448819,
                    "duration": 0.08643549999999323
                },
                {
                    "name": "B4",
                    "midi": 71,
                    "time": 170.79654800000046,
                    "velocity": 0.2283464566929134,
                    "duration": 0.08643549999999323
                },
                {
                    "name": "C5",
                    "midi": 72,
                    "time": 171.14229000000046,
                    "velocity": 0.4409448818897638,
                    "duration": 0.3457420000000013
                },
                {
                    "name": "B4",
                    "midi": 71,
                    "time": 171.48803200000046,
                    "velocity": 0.30708661417322836,
                    "duration": 0.08643549999999323
                },
                {
                    "name": "F#4",
                    "midi": 66,
                    "time": 171.83377400000046,
                    "velocity": 0.28346456692913385,
                    "duration": 0.08643549999999323
                },
                {
                    "name": "G4",
                    "midi": 67,
                    "time": 172.17951600000046,
                    "velocity": 0.3228346456692913,
                    "duration": 0.08643549999999323
                },
                {
                    "name": "A4",
                    "midi": 69,
                    "time": 172.52525800000046,
                    "velocity": 0.3700787401574803,
                    "duration": 0.08643549999999323
                },
                {
                    "name": "B4",
                    "midi": 71,
                    "time": 172.87100000000046,
                    "velocity": 0.47244094488188976,
                    "duration": 0.3457420000000013
                },
                {
                    "name": "C3",
                    "midi": 48,
                    "time": 174.25396800000047,
                    "velocity": 0.5118110236220472,
                    "duration": 0.6914840000000027
                },
                {
                    "name": "C4",
                    "midi": 60,
                    "time": 174.59971000000047,
                    "velocity": 0.4330708661417323,
                    "duration": 0.3457420000000013
                },
                {
                    "name": "B3",
                    "midi": 59,
                    "time": 174.94545200000047,
                    "velocity": 0.4251968503937008,
                    "duration": 0.3457420000000013
                },
                {
                    "name": "D3",
                    "midi": 50,
                    "time": 174.94545200000047,
                    "velocity": 0.4251968503937008,
                    "duration": 0.6914840000000027
                },
                {
                    "name": "A3",
                    "midi": 57,
                    "time": 175.29119400000047,
                    "velocity": 0.36220472440944884,
                    "duration": 0.3457420000000013
                },
                {
                    "name": "G3",
                    "midi": 55,
                    "time": 175.63693600000047,
                    "velocity": 0.4409448818897638,
                    "duration": 0.6914840000000027
                },
                {
                    "name": "B2",
                    "midi": 47,
                    "time": 175.63693600000047,
                    "velocity": 0.4409448818897638,
                    "duration": 0.6914840000000027
                },
                {
                    "name": "D3",
                    "midi": 50,
                    "time": 175.63693600000047,
                    "velocity": 0.4409448818897638,
                    "duration": 0.6914840000000027
                },
                {
                    "name": "C3",
                    "midi": 48,
                    "time": 177.01990400000048,
                    "velocity": 0.5118110236220472,
                    "duration": 0.6914840000000027
                },
                {
                    "name": "C4",
                    "midi": 60,
                    "time": 177.36564600000048,
                    "velocity": 0.4330708661417323,
                    "duration": 0.3457420000000013
                },
                {
                    "name": "D3",
                    "midi": 50,
                    "time": 177.71138800000048,
                    "velocity": 0.4251968503937008,
                    "duration": 0.6914840000000027
                },
                {
                    "name": "B3",
                    "midi": 59,
                    "time": 177.71138800000048,
                    "velocity": 0.4251968503937008,
                    "duration": 0.3457420000000013
                },
                {
                    "name": "A3",
                    "midi": 57,
                    "time": 178.05713000000048,
                    "velocity": 0.36220472440944884,
                    "duration": 0.3457420000000013
                },
                {
                    "name": "G3",
                    "midi": 55,
                    "time": 178.40287200000049,
                    "velocity": 0.31496062992125984,
                    "duration": 0.11524733333334325
                },
                {
                    "name": "B3",
                    "midi": 59,
                    "time": 178.51811933333383,
                    "velocity": 0.25196850393700787,
                    "duration": 0.11524733333334325
                },
                {
                    "name": "D4",
                    "midi": 62,
                    "time": 178.63336666666717,
                    "velocity": 0.25196850393700787,
                    "duration": 0.11524733333334325
                },
                {
                    "name": "G3",
                    "midi": 55,
                    "time": 178.74861400000052,
                    "velocity": 0.31496062992125984,
                    "duration": 0.11524733333334325
                },
                {
                    "name": "B3",
                    "midi": 59,
                    "time": 178.86386133333386,
                    "velocity": 0.2677165354330709,
                    "duration": 0.11524733333334325
                },
                {
                    "name": "D4",
                    "midi": 62,
                    "time": 178.9791086666672,
                    "velocity": 0.2677165354330709,
                    "duration": 0.11524733333334325
                },
                {
                    "name": "G3",
                    "midi": 55,
                    "time": 179.09435600000054,
                    "velocity": 0.31496062992125984,
                    "duration": 0.11524733333334325
                },
                {
                    "name": "B3",
                    "midi": 59,
                    "time": 179.2096033333339,
                    "velocity": 0.25196850393700787,
                    "duration": 0.11524733333334325
                },
                {
                    "name": "D4",
                    "midi": 62,
                    "time": 179.32485066666723,
                    "velocity": 0.25196850393700787,
                    "duration": 0.11524733333334325
                },
                {
                    "name": "D3",
                    "midi": 50,
                    "time": 179.44009800000057,
                    "velocity": 0.31496062992125984,
                    "duration": 0.11524733333334325
                },
                {
                    "name": "F#3",
                    "midi": 54,
                    "time": 179.55534533333392,
                    "velocity": 0.25196850393700787,
                    "duration": 0.11524733333334325
                },
                {
                    "name": "D4",
                    "midi": 62,
                    "time": 179.67059266666726,
                    "velocity": 0.25984251968503935,
                    "duration": 0.11524733333334325
                },
                {
                    "name": "G3",
                    "midi": 55,
                    "time": 179.7858400000006,
                    "velocity": 0.30708661417322836,
                    "duration": 0.11524733333334325
                },
                {
                    "name": "B3",
                    "midi": 59,
                    "time": 179.90108733333395,
                    "velocity": 0.2283464566929134,
                    "duration": 0.11524733333334325
                },
                {
                    "name": "D4",
                    "midi": 62,
                    "time": 180.0163346666673,
                    "velocity": 0.2283464566929134,
                    "duration": 0.11524733333334325
                },
                {
                    "name": "G3",
                    "midi": 55,
                    "time": 180.13158200000063,
                    "velocity": 0.30708661417322836,
                    "duration": 0.11524733333334325
                },
                {
                    "name": "B3",
                    "midi": 59,
                    "time": 180.24682933333398,
                    "velocity": 0.23622047244094488,
                    "duration": 0.11524733333334325
                },
                {
                    "name": "D4",
                    "midi": 62,
                    "time": 180.36207666666732,
                    "velocity": 0.23622047244094488,
                    "duration": 0.11524733333334325
                },
                {
                    "name": "G3",
                    "midi": 55,
                    "time": 180.47732400000066,
                    "velocity": 0.30708661417322836,
                    "duration": 0.11524733333334325
                },
                {
                    "name": "B3",
                    "midi": 59,
                    "time": 180.592571333334,
                    "velocity": 0.23622047244094488,
                    "duration": 0.11524733333334325
                },
                {
                    "name": "D4",
                    "midi": 62,
                    "time": 180.70781866666735,
                    "velocity": 0.23622047244094488,
                    "duration": 0.11524733333334325
                },
                {
                    "name": "D3",
                    "midi": 50,
                    "time": 180.8230660000007,
                    "velocity": 0.30708661417322836,
                    "duration": 0.11524733333334325
                },
                {
                    "name": "F#3",
                    "midi": 54,
                    "time": 180.93831333333404,
                    "velocity": 0.25984251968503935,
                    "duration": 0.11524733333334325
                },
                {
                    "name": "D4",
                    "midi": 62,
                    "time": 181.05356066666738,
                    "velocity": 0.25984251968503935,
                    "duration": 0.11524733333334325
                },
                {
                    "name": "G3",
                    "midi": 55,
                    "time": 181.16880800000072,
                    "velocity": 0.31496062992125984,
                    "duration": 0.11524733333334325
                },
                {
                    "name": "B3",
                    "midi": 59,
                    "time": 181.28405533333407,
                    "velocity": 0.25196850393700787,
                    "duration": 0.11524733333334325
                },
                {
                    "name": "D4",
                    "midi": 62,
                    "time": 181.3993026666674,
                    "velocity": 0.25196850393700787,
                    "duration": 0.11524733333334325
                },
                {
                    "name": "G3",
                    "midi": 55,
                    "time": 181.51455000000075,
                    "velocity": 0.31496062992125984,
                    "duration": 0.11524733333334325
                },
                {
                    "name": "B3",
                    "midi": 59,
                    "time": 181.6297973333341,
                    "velocity": 0.2677165354330709,
                    "duration": 0.11524733333334325
                },
                {
                    "name": "D4",
                    "midi": 62,
                    "time": 181.74504466666744,
                    "velocity": 0.2677165354330709,
                    "duration": 0.11524733333334325
                },
                {
                    "name": "G3",
                    "midi": 55,
                    "time": 181.86029200000078,
                    "velocity": 0.31496062992125984,
                    "duration": 0.11524733333334325
                },
                {
                    "name": "B3",
                    "midi": 59,
                    "time": 181.97553933333413,
                    "velocity": 0.25196850393700787,
                    "duration": 0.11524733333334325
                },
                {
                    "name": "D4",
                    "midi": 62,
                    "time": 182.09078666666747,
                    "velocity": 0.25196850393700787,
                    "duration": 0.11524733333334325
                },
                {
                    "name": "D3",
                    "midi": 50,
                    "time": 182.2060340000008,
                    "velocity": 0.49606299212598426,
                    "duration": 0.11524733333334325
                },
                {
                    "name": "F#3",
                    "midi": 54,
                    "time": 182.32128133333416,
                    "velocity": 0.3937007874015748,
                    "duration": 0.11524733333334325
                },
                {
                    "name": "D4",
                    "midi": 62,
                    "time": 182.4365286666675,
                    "velocity": 0.4094488188976378,
                    "duration": 0.11524733333334325
                },
                {
                    "name": "G3",
                    "midi": 55,
                    "time": 182.55177600000084,
                    "velocity": 0.4881889763779528,
                    "duration": 0.11524733333334325
                },
                {
                    "name": "B3",
                    "midi": 59,
                    "time": 182.66702333333419,
                    "velocity": 0.36220472440944884,
                    "duration": 0.11524733333334325
                },
                {
                    "name": "D4",
                    "midi": 62,
                    "time": 182.78227066666753,
                    "velocity": 0.36220472440944884,
                    "duration": 0.11524733333334325
                },
                {
                    "name": "G3",
                    "midi": 55,
                    "time": 182.89751800000087,
                    "velocity": 0.4881889763779528,
                    "duration": 0.11524733333334325
                },
                {
                    "name": "B3",
                    "midi": 59,
                    "time": 183.01276533333422,
                    "velocity": 0.3779527559055118,
                    "duration": 0.11524733333334325
                },
                {
                    "name": "D4",
                    "midi": 62,
                    "time": 183.12801266666756,
                    "velocity": 0.3779527559055118,
                    "duration": 0.11524733333334325
                },
                {
                    "name": "G3",
                    "midi": 55,
                    "time": 183.2432600000009,
                    "velocity": 0.4881889763779528,
                    "duration": 0.11524733333334325
                },
                {
                    "name": "B3",
                    "midi": 59,
                    "time": 183.35850733333425,
                    "velocity": 0.3779527559055118,
                    "duration": 0.11524733333334325
                },
                {
                    "name": "D4",
                    "midi": 62,
                    "time": 183.4737546666676,
                    "velocity": 0.3779527559055118,
                    "duration": 0.11524733333334325
                },
                {
                    "name": "D3",
                    "midi": 50,
                    "time": 183.58900200000093,
                    "velocity": 0.4881889763779528,
                    "duration": 0.11524733333334325
                },
                {
                    "name": "F#3",
                    "midi": 54,
                    "time": 183.70424933333427,
                    "velocity": 0.4094488188976378,
                    "duration": 0.11524733333334325
                },
                {
                    "name": "D4",
                    "midi": 62,
                    "time": 183.81949666666762,
                    "velocity": 0.4094488188976378,
                    "duration": 0.11524733333334325
                },
                {
                    "name": "G3",
                    "midi": 55,
                    "time": 183.93474400000096,
                    "velocity": 0.4881889763779528,
                    "duration": 0.11524733333334325
                },
                {
                    "name": "B3",
                    "midi": 59,
                    "time": 184.0499913333343,
                    "velocity": 0.36220472440944884,
                    "duration": 0.11524733333334325
                },
                {
                    "name": "D4",
                    "midi": 62,
                    "time": 184.16523866666765,
                    "velocity": 0.36220472440944884,
                    "duration": 0.11524733333334325
                },
                {
                    "name": "G3",
                    "midi": 55,
                    "time": 184.280486000001,
                    "velocity": 0.4881889763779528,
                    "duration": 0.11524733333334325
                },
                {
                    "name": "B3",
                    "midi": 59,
                    "time": 184.39573333333433,
                    "velocity": 0.3779527559055118,
                    "duration": 0.11524733333334325
                },
                {
                    "name": "D4",
                    "midi": 62,
                    "time": 184.51098066666768,
                    "velocity": 0.3779527559055118,
                    "duration": 0.11524733333334325
                },
                {
                    "name": "G3",
                    "midi": 55,
                    "time": 184.62622800000102,
                    "velocity": 0.4881889763779528,
                    "duration": 0.11524733333334325
                },
                {
                    "name": "B3",
                    "midi": 59,
                    "time": 184.74147533333436,
                    "velocity": 0.3779527559055118,
                    "duration": 0.11524733333334325
                },
                {
                    "name": "D4",
                    "midi": 62,
                    "time": 184.8567226666677,
                    "velocity": 0.3779527559055118,
                    "duration": 0.11524733333334325
                },
                {
                    "name": "G3",
                    "midi": 55,
                    "time": 184.97197000000105,
                    "velocity": 0.4881889763779528,
                    "duration": 0.11524733333334325
                },
                {
                    "name": "B3",
                    "midi": 59,
                    "time": 185.0872173333344,
                    "velocity": 0.4094488188976378,
                    "duration": 0.11524733333334325
                },
                {
                    "name": "D4",
                    "midi": 62,
                    "time": 185.20246466666774,
                    "velocity": 0.4094488188976378,
                    "duration": 0.11524733333334325
                },
                {
                    "name": "G3",
                    "midi": 55,
                    "time": 185.31771200000108,
                    "velocity": 0.4881889763779528,
                    "duration": 0.3457420000000013
                },
                {
                    "name": "G4",
                    "midi": 67,
                    "time": 186.70068000000109,
                    "velocity": 0.3779527559055118,
                    "duration": 0.08643549999999323
                },
                {
                    "name": "B3",
                    "midi": 59,
                    "time": 186.70068000000109,
                    "velocity": 0.31496062992125984,
                    "duration": 0.08643549999999323
                },
                {
                    "name": "C4",
                    "midi": 60,
                    "time": 187.3921640000011,
                    "velocity": 0.31496062992125984,
                    "duration": 0.08643549999999323
                },
                {
                    "name": "G4",
                    "midi": 67,
                    "time": 187.3921640000011,
                    "velocity": 0.3779527559055118,
                    "duration": 0.08643549999999323
                },
                {
                    "name": "G4",
                    "midi": 67,
                    "time": 188.0836480000011,
                    "velocity": 0.3779527559055118,
                    "duration": 0.08643549999999323
                },
                {
                    "name": "F4",
                    "midi": 65,
                    "time": 188.0836480000011,
                    "velocity": 0.31496062992125984,
                    "duration": 0.08643549999999323
                },
                {
                    "name": "G4",
                    "midi": 67,
                    "time": 188.7751320000011,
                    "velocity": 0.3543307086614173,
                    "duration": 0.08643549999999323
                },
                {
                    "name": "E4",
                    "midi": 64,
                    "time": 188.7751320000011,
                    "velocity": 0.2992125984251969,
                    "duration": 0.08643549999999323
                },
                {
                    "name": "E3",
                    "midi": 52,
                    "time": 189.4666160000011,
                    "velocity": 0.5196850393700787,
                    "duration": 0.3457420000000013
                },
                {
                    "name": "E2",
                    "midi": 40,
                    "time": 189.4666160000011,
                    "velocity": 0.4409448818897638,
                    "duration": 0.3457420000000013
                },
                {
                    "name": "E2",
                    "midi": 40,
                    "time": 190.1581000000011,
                    "velocity": 0.4330708661417323,
                    "duration": 0.3457420000000013
                },
                {
                    "name": "E3",
                    "midi": 52,
                    "time": 190.1581000000011,
                    "velocity": 0.5118110236220472,
                    "duration": 0.3457420000000013
                },
                {
                    "name": "E3",
                    "midi": 52,
                    "time": 190.8495840000011,
                    "velocity": 0.5118110236220472,
                    "duration": 1.037226000000004
                },
                {
                    "name": "E2",
                    "midi": 40,
                    "time": 190.8495840000011,
                    "velocity": 0.4330708661417323,
                    "duration": 1.037226000000004
                },
                {
                    "name": "F3",
                    "midi": 53,
                    "time": 192.2325520000011,
                    "velocity": 0.4409448818897638,
                    "duration": 0.11524733333334325
                },
                {
                    "name": "A3",
                    "midi": 57,
                    "time": 192.34779933333445,
                    "velocity": 0.33858267716535434,
                    "duration": 0.11524733333334325
                },
                {
                    "name": "C4",
                    "midi": 60,
                    "time": 192.4630466666678,
                    "velocity": 0.33858267716535434,
                    "duration": 0.11524733333334325
                },
                {
                    "name": "F3",
                    "midi": 53,
                    "time": 192.57829400000114,
                    "velocity": 0.4409448818897638,
                    "duration": 0.11524733333334325
                },
                {
                    "name": "A3",
                    "midi": 57,
                    "time": 192.69354133333448,
                    "velocity": 0.3543307086614173,
                    "duration": 0.11524733333334325
                },
                {
                    "name": "C4",
                    "midi": 60,
                    "time": 192.80878866666782,
                    "velocity": 0.36220472440944884,
                    "duration": 0.11524733333334325
                },
                {
                    "name": "F3",
                    "midi": 53,
                    "time": 192.92403600000117,
                    "velocity": 0.4330708661417323,
                    "duration": 0.11524733333334325
                },
                {
                    "name": "A3",
                    "midi": 57,
                    "time": 193.0392833333345,
                    "velocity": 0.3464566929133858,
                    "duration": 0.11524733333334325
                },
                {
                    "name": "C4",
                    "midi": 60,
                    "time": 193.15453066666785,
                    "velocity": 0.3543307086614173,
                    "duration": 0.11524733333334325
                },
                {
                    "name": "F3",
                    "midi": 53,
                    "time": 193.2697780000012,
                    "velocity": 0.4409448818897638,
                    "duration": 0.11524733333334325
                },
                {
                    "name": "A3",
                    "midi": 57,
                    "time": 193.38502533333454,
                    "velocity": 0.4015748031496063,
                    "duration": 0.11524733333334325
                },
                {
                    "name": "C4",
                    "midi": 60,
                    "time": 193.50027266666788,
                    "velocity": 0.4015748031496063,
                    "duration": 0.11524733333334325
                },
                {
                    "name": "F3",
                    "midi": 53,
                    "time": 193.61552000000123,
                    "velocity": 0.4409448818897638,
                    "duration": 0.11524733333334325
                },
                {
                    "name": "A3",
                    "midi": 57,
                    "time": 193.73076733333457,
                    "velocity": 0.3228346456692913,
                    "duration": 0.11524733333334325
                },
                {
                    "name": "C4",
                    "midi": 60,
                    "time": 193.8460146666679,
                    "velocity": 0.3228346456692913,
                    "duration": 0.11524733333334325
                },
                {
                    "name": "F3",
                    "midi": 53,
                    "time": 193.96126200000126,
                    "velocity": 0.4409448818897638,
                    "duration": 0.11524733333334325
                },
                {
                    "name": "A3",
                    "midi": 57,
                    "time": 194.0765093333346,
                    "velocity": 0.3464566929133858,
                    "duration": 0.11524733333334325
                },
                {
                    "name": "C4",
                    "midi": 60,
                    "time": 194.19175666666794,
                    "velocity": 0.3464566929133858,
                    "duration": 0.11524733333334325
                },
                {
                    "name": "F3",
                    "midi": 53,
                    "time": 194.30700400000129,
                    "velocity": 0.4409448818897638,
                    "duration": 0.11524733333334325
                },
                {
                    "name": "A3",
                    "midi": 57,
                    "time": 194.42225133333463,
                    "velocity": 0.3464566929133858,
                    "duration": 0.11524733333334325
                },
                {
                    "name": "C4",
                    "midi": 60,
                    "time": 194.53749866666797,
                    "velocity": 0.3543307086614173,
                    "duration": 0.11524733333334325
                },
                {
                    "name": "F3",
                    "midi": 53,
                    "time": 194.65274600000131,
                    "velocity": 0.4409448818897638,
                    "duration": 0.11524733333334325
                },
                {
                    "name": "A3",
                    "midi": 57,
                    "time": 194.76799333333466,
                    "velocity": 0.3464566929133858,
                    "duration": 0.11524733333334325
                },
                {
                    "name": "C4",
                    "midi": 60,
                    "time": 194.883240666668,
                    "velocity": 0.3464566929133858,
                    "duration": 0.11524733333334325
                },
                {
                    "name": "G3",
                    "midi": 55,
                    "time": 194.99848800000134,
                    "velocity": 0.4409448818897638,
                    "duration": 0.11524733333334325
                },
                {
                    "name": "A#3",
                    "midi": 58,
                    "time": 195.1137353333347,
                    "velocity": 0.33070866141732286,
                    "duration": 0.11524733333334325
                },
                {
                    "name": "C4",
                    "midi": 60,
                    "time": 195.22898266666803,
                    "velocity": 0.3543307086614173,
                    "duration": 0.11524733333334325
                },
                {
                    "name": "G3",
                    "midi": 55,
                    "time": 195.34423000000137,
                    "velocity": 0.4409448818897638,
                    "duration": 0.11524733333334325
                },
                {
                    "name": "A#3",
                    "midi": 58,
                    "time": 195.45947733333472,
                    "velocity": 0.3543307086614173,
                    "duration": 0.11524733333334325
                },
                {
                    "name": "C4",
                    "midi": 60,
                    "time": 195.57472466666806,
                    "velocity": 0.3543307086614173,
                    "duration": 0.11524733333334325
                },
                {
                    "name": "F3",
                    "midi": 53,
                    "time": 195.6899720000014,
                    "velocity": 0.4409448818897638,
                    "duration": 0.11524733333334325
                },
                {
                    "name": "A3",
                    "midi": 57,
                    "time": 195.80521933333475,
                    "velocity": 0.36220472440944884,
                    "duration": 0.11524733333334325
                },
                {
                    "name": "C4",
                    "midi": 60,
                    "time": 195.9204666666681,
                    "velocity": 0.3937007874015748,
                    "duration": 0.11524733333334325
                },
                {
                    "name": "F3",
                    "midi": 53,
                    "time": 196.03571400000143,
                    "velocity": 0.4409448818897638,
                    "duration": 0.11524733333334325
                },
                {
                    "name": "A3",
                    "midi": 57,
                    "time": 196.15096133333478,
                    "velocity": 0.36220472440944884,
                    "duration": 0.11524733333334325
                },
                {
                    "name": "C4",
                    "midi": 60,
                    "time": 196.26620866666812,
                    "velocity": 0.36220472440944884,
                    "duration": 0.11524733333334325
                },
                {
                    "name": "E3",
                    "midi": 52,
                    "time": 196.38145600000146,
                    "velocity": 0.4409448818897638,
                    "duration": 0.11524733333334325
                },
                {
                    "name": "G3",
                    "midi": 55,
                    "time": 196.4967033333348,
                    "velocity": 0.33070866141732286,
                    "duration": 0.11524733333334325
                },
                {
                    "name": "C4",
                    "midi": 60,
                    "time": 196.61195066666815,
                    "velocity": 0.33070866141732286,
                    "duration": 0.11524733333334325
                },
                {
                    "name": "E3",
                    "midi": 52,
                    "time": 196.7271980000015,
                    "velocity": 0.4015748031496063,
                    "duration": 0.11524733333334325
                },
                {
                    "name": "G3",
                    "midi": 55,
                    "time": 196.84244533333484,
                    "velocity": 0.33070866141732286,
                    "duration": 0.11524733333334325
                },
                {
                    "name": "C4",
                    "midi": 60,
                    "time": 196.95769266666818,
                    "velocity": 0.33858267716535434,
                    "duration": 0.11524733333334325
                },
                {
                    "name": "E3",
                    "midi": 52,
                    "time": 197.07294000000152,
                    "velocity": 0.4251968503937008,
                    "duration": 0.11524733333334325
                },
                {
                    "name": "G3",
                    "midi": 55,
                    "time": 197.18818733333487,
                    "velocity": 0.3464566929133858,
                    "duration": 0.11524733333334325
                },
                {
                    "name": "C4",
                    "midi": 60,
                    "time": 197.3034346666682,
                    "velocity": 0.3543307086614173,
                    "duration": 0.11524733333334325
                },
                {
                    "name": "E3",
                    "midi": 52,
                    "time": 197.41868200000155,
                    "velocity": 0.4409448818897638,
                    "duration": 0.11524733333334325
                },
                {
                    "name": "G3",
                    "midi": 55,
                    "time": 197.5339293333349,
                    "velocity": 0.36220472440944884,
                    "duration": 0.11524733333334325
                },
                {
                    "name": "C4",
                    "midi": 60,
                    "time": 197.64917666666824,
                    "velocity": 0.36220472440944884,
                    "duration": 0.11524733333334325
                },
                {
                    "name": "E3",
                    "midi": 52,
                    "time": 197.76442400000158,
                    "velocity": 0.4409448818897638,
                    "duration": 0.11524733333331483
                },
                {
                    "name": "G3",
                    "midi": 55,
                    "time": 197.87606985416824,
                    "velocity": 0.33858267716535434,
                    "duration": 0.11524733333331483
                },
                {
                    "name": "C4",
                    "midi": 60,
                    "time": 197.9949186666682,
                    "velocity": 0.3543307086614173,
                    "duration": 0.11524733333334325
                },
                {
                    "name": "E3",
                    "midi": 52,
                    "time": 198.11016600000156,
                    "velocity": 0.4409448818897638,
                    "duration": 0.11524733333331483
                },
                {
                    "name": "G3",
                    "midi": 55,
                    "time": 198.2218118541682,
                    "velocity": 0.3543307086614173,
                    "duration": 0.11524733333331483
                },
                {
                    "name": "C4",
                    "midi": 60,
                    "time": 198.34066066666819,
                    "velocity": 0.3543307086614173,
                    "duration": 0.11524733333334325
                },
                {
                    "name": "F3",
                    "midi": 53,
                    "time": 198.45590800000153,
                    "velocity": 0.4409448818897638,
                    "duration": 0.11524733333334325
                },
                {
                    "name": "A3",
                    "midi": 57,
                    "time": 198.57115533333487,
                    "velocity": 0.33858267716535434,
                    "duration": 0.11524733333334325
                },
                {
                    "name": "C4",
                    "midi": 60,
                    "time": 198.68640266666822,
                    "velocity": 0.3464566929133858,
                    "duration": 0.11524733333334325
                },
                {
                    "name": "F3",
                    "midi": 53,
                    "time": 198.80165000000156,
                    "velocity": 0.4409448818897638,
                    "duration": 0.11524733333334325
                },
                {
                    "name": "A3",
                    "midi": 57,
                    "time": 198.9168973333349,
                    "velocity": 0.36220472440944884,
                    "duration": 0.11524733333334325
                },
                {
                    "name": "C4",
                    "midi": 60,
                    "time": 199.03214466666824,
                    "velocity": 0.36220472440944884,
                    "duration": 0.11524733333334325
                },
                {
                    "name": "A#3",
                    "midi": 58,
                    "time": 199.1473920000016,
                    "velocity": 0.4409448818897638,
                    "duration": 0.11524733333334325
                },
                {
                    "name": "C4",
                    "midi": 60,
                    "time": 199.26263933333493,
                    "velocity": 0.3700787401574803,
                    "duration": 0.11524733333334325
                },
                {
                    "name": "E4",
                    "midi": 64,
                    "time": 199.37788666666827,
                    "velocity": 0.3700787401574803,
                    "duration": 0.11524733333334325
                },
                {
                    "name": "A#3",
                    "midi": 58,
                    "time": 199.49313400000162,
                    "velocity": 0.4409448818897638,
                    "duration": 0.11524733333334325
                },
                {
                    "name": "C4",
                    "midi": 60,
                    "time": 199.60838133333496,
                    "velocity": 0.3464566929133858,
                    "duration": 0.11524733333334325
                },
                {
                    "name": "E4",
                    "midi": 64,
                    "time": 199.7236286666683,
                    "velocity": 0.3464566929133858,
                    "duration": 0.11524733333334325
                },
                {
                    "name": "A3",
                    "midi": 57,
                    "time": 199.83887600000165,
                    "velocity": 0.4409448818897638,
                    "duration": 0.11524733333334325
                },
                {
                    "name": "C4",
                    "midi": 60,
                    "time": 199.954123333335,
                    "velocity": 0.36220472440944884,
                    "duration": 0.11524733333334325
                },
                {
                    "name": "F4",
                    "midi": 65,
                    "time": 200.06937066666833,
                    "velocity": 0.36220472440944884,
                    "duration": 0.11524733333334325
                },
                {
                    "name": "A3",
                    "midi": 57,
                    "time": 200.18461800000168,
                    "velocity": 0.4409448818897638,
                    "duration": 0.11524733333334325
                },
                {
                    "name": "C4",
                    "midi": 60,
                    "time": 200.29986533333502,
                    "velocity": 0.3543307086614173,
                    "duration": 0.11524733333334325
                },
                {
                    "name": "F4",
                    "midi": 65,
                    "time": 200.41511266666836,
                    "velocity": 0.3543307086614173,
                    "duration": 0.11524733333334325
                },
                {
                    "name": "A#3",
                    "midi": 58,
                    "time": 200.5303600000017,
                    "velocity": 0.4409448818897638,
                    "duration": 0.11524733333334325
                },
                {
                    "name": "D4",
                    "midi": 62,
                    "time": 200.64560733333505,
                    "velocity": 0.3543307086614173,
                    "duration": 0.11524733333334325
                },
                {
                    "name": "G4",
                    "midi": 67,
                    "time": 200.7608546666684,
                    "velocity": 0.3700787401574803,
                    "duration": 0.11524733333334325
                },
                {
                    "name": "A#3",
                    "midi": 58,
                    "time": 200.87610200000174,
                    "velocity": 0.4409448818897638,
                    "duration": 0.11524733333334325
                },
                {
                    "name": "D4",
                    "midi": 62,
                    "time": 200.99134933333508,
                    "velocity": 0.36220472440944884,
                    "duration": 0.11524733333334325
                },
                {
                    "name": "G4",
                    "midi": 67,
                    "time": 201.10659666666842,
                    "velocity": 0.36220472440944884,
                    "duration": 0.11524733333334325
                },
                {
                    "name": "C4",
                    "midi": 60,
                    "time": 201.22184400000177,
                    "velocity": 0.4409448818897638,
                    "duration": 0.11524733333334325
                },
                {
                    "name": "E4",
                    "midi": 64,
                    "time": 201.3370913333351,
                    "velocity": 0.33858267716535434,
                    "duration": 0.11524733333334325
                },
                {
                    "name": "G4",
                    "midi": 67,
                    "time": 201.45233866666845,
                    "velocity": 0.33858267716535434,
                    "duration": 0.11524733333334325
                },
                {
                    "name": "C4",
                    "midi": 60,
                    "time": 201.5675860000018,
                    "velocity": 0.4409448818897638,
                    "duration": 0.11524733333334325
                },
                {
                    "name": "E4",
                    "midi": 64,
                    "time": 201.68283333333514,
                    "velocity": 0.3464566929133858,
                    "duration": 0.11524733333334325
                },
                {
                    "name": "G4",
                    "midi": 67,
                    "time": 201.79808066666848,
                    "velocity": 0.3543307086614173,
                    "duration": 0.11524733333334325
                },
                {
                    "name": "F4",
                    "midi": 65,
                    "time": 201.91332800000183,
                    "velocity": 0.48031496062992124,
                    "duration": 0.08643549999999323
                },
                {
                    "name": "C4",
                    "midi": 60,
                    "time": 202.95055400000183,
                    "velocity": 0.44881889763779526,
                    "duration": 0.3457420000000013
                },
                {
                    "name": "G4",
                    "midi": 67,
                    "time": 202.95055400000183,
                    "velocity": 0.5354330708661418,
                    "duration": 0.3457420000000013
                },
                {
                    "name": "F4",
                    "midi": 65,
                    "time": 203.29629600000183,
                    "velocity": 0.48031496062992124,
                    "duration": 0.08643549999999323
                },
                {
                    "name": "G4",
                    "midi": 67,
                    "time": 204.33352200000184,
                    "velocity": 0.5354330708661418,
                    "duration": 0.3457420000000013
                },
                {
                    "name": "C4",
                    "midi": 60,
                    "time": 204.33352200000184,
                    "velocity": 0.44881889763779526,
                    "duration": 0.3457420000000013
                },
                {
                    "name": "F4",
                    "midi": 65,
                    "time": 204.67926400000184,
                    "velocity": 0.48031496062992124,
                    "duration": 0.08643549999999323
                },
                {
                    "name": "D4",
                    "midi": 62,
                    "time": 205.71649000000184,
                    "velocity": 0.44881889763779526,
                    "duration": 0.3457420000000013
                },
                {
                    "name": "A4",
                    "midi": 69,
                    "time": 205.71649000000184,
                    "velocity": 0.5354330708661418,
                    "duration": 0.3457420000000013
                },
                {
                    "name": "G4",
                    "midi": 67,
                    "time": 206.06223200000184,
                    "velocity": 0.48031496062992124,
                    "duration": 0.08643549999999323
                },
                {
                    "name": "B4",
                    "midi": 71,
                    "time": 207.09945800000185,
                    "velocity": 0.5354330708661418,
                    "duration": 0.3457420000000013
                },
                {
                    "name": "E4",
                    "midi": 64,
                    "time": 207.09945800000185,
                    "velocity": 0.44881889763779526,
                    "duration": 0.3457420000000013
                },
                {
                    "name": "A4",
                    "midi": 69,
                    "time": 207.44520000000185,
                    "velocity": 0.48031496062992124,
                    "duration": 0.08643549999999323
                },
                {
                    "name": "G#4",
                    "midi": 68,
                    "time": 208.48242600000185,
                    "velocity": 0.5354330708661418,
                    "duration": 0.08643549999999323
                },
                {
                    "name": "A4",
                    "midi": 69,
                    "time": 208.82816800000185,
                    "velocity": 0.48031496062992124,
                    "duration": 0.08643549999999323
                },
                {
                    "name": "B4",
                    "midi": 71,
                    "time": 209.17391000000185,
                    "velocity": 0.5039370078740157,
                    "duration": 0.3457420000000013
                },
                {
                    "name": "C5",
                    "midi": 72,
                    "time": 209.51965200000186,
                    "velocity": 0.5275590551181102,
                    "duration": 0.3457420000000013
                },
                {
                    "name": "A4",
                    "midi": 69,
                    "time": 209.86539400000186,
                    "velocity": 0.47244094488188976,
                    "duration": 0.08643549999999323
                },
                {
                    "name": "E4",
                    "midi": 64,
                    "time": 210.21113600000186,
                    "velocity": 0.30708661417322836,
                    "duration": 1.037226000000004
                },
                {
                    "name": "G#4",
                    "midi": 68,
                    "time": 210.21113600000186,
                    "velocity": 0.44881889763779526,
                    "duration": 0.3457420000000013
                },
                {
                    "name": "A4",
                    "midi": 69,
                    "time": 210.55687800000186,
                    "velocity": 0.4015748031496063,
                    "duration": 0.3457420000000013
                },
                {
                    "name": "G#4",
                    "midi": 68,
                    "time": 210.90262000000186,
                    "velocity": 0.4015748031496063,
                    "duration": 0.3457420000000013
                },
                {
                    "name": "E4",
                    "midi": 64,
                    "time": 211.24836200000186,
                    "velocity": 0.25984251968503935,
                    "duration": 0.3457420000000013
                },
                {
                    "name": "F4",
                    "midi": 65,
                    "time": 211.59410400000186,
                    "velocity": 0.31496062992125984,
                    "duration": 0.08643549999999323
                },
                {
                    "name": "A4",
                    "midi": 69,
                    "time": 211.93984600000186,
                    "velocity": 0.25984251968503935,
                    "duration": 0.08643549999999323
                },
                {
                    "name": "B4",
                    "midi": 71,
                    "time": 212.28558800000187,
                    "velocity": 0.3228346456692913,
                    "duration": 0.08643549999999323
                },
                {
                    "name": "D5",
                    "midi": 74,
                    "time": 212.63133000000187,
                    "velocity": 0.25984251968503935,
                    "duration": 0.3457420000000013
                },
                {
                    "name": "E4",
                    "midi": 64,
                    "time": 212.97707200000187,
                    "velocity": 0.31496062992125984,
                    "duration": 0.08643549999999323
                },
                {
                    "name": "G#4",
                    "midi": 68,
                    "time": 213.32281400000187,
                    "velocity": 0.25984251968503935,
                    "duration": 0.08643549999999323
                },
                {
                    "name": "A4",
                    "midi": 69,
                    "time": 213.66855600000187,
                    "velocity": 0.3228346456692913,
                    "duration": 0.08643549999999323
                },
                {
                    "name": "C#5",
                    "midi": 73,
                    "time": 214.01429800000187,
                    "velocity": 0.2755905511811024,
                    "duration": 0.3457420000000013
                },
                {
                    "name": "D4",
                    "midi": 62,
                    "time": 214.36004000000187,
                    "velocity": 0.3464566929133858,
                    "duration": 0.08643549999999323
                },
                {
                    "name": "F#4",
                    "midi": 66,
                    "time": 214.70578200000188,
                    "velocity": 0.29133858267716534,
                    "duration": 0.08643549999999323
                },
                {
                    "name": "G4",
                    "midi": 67,
                    "time": 215.05152400000188,
                    "velocity": 0.3779527559055118,
                    "duration": 0.08643549999999323
                },
                {
                    "name": "B4",
                    "midi": 71,
                    "time": 215.39726600000188,
                    "velocity": 0.30708661417322836,
                    "duration": 0.3457420000000013
                },
                {
                    "name": "C4",
                    "midi": 60,
                    "time": 215.74300800000188,
                    "velocity": 0.3779527559055118,
                    "duration": 0.08643549999999323
                },
                {
                    "name": "E4",
                    "midi": 64,
                    "time": 216.08875000000188,
                    "velocity": 0.31496062992125984,
                    "duration": 0.08643549999999323
                },
                {
                    "name": "F4",
                    "midi": 65,
                    "time": 216.43449200000188,
                    "velocity": 0.4015748031496063,
                    "duration": 0.08643549999999323
                },
                {
                    "name": "A4",
                    "midi": 69,
                    "time": 216.78023400000188,
                    "velocity": 0.33070866141732286,
                    "duration": 0.08643549999999323
                },
                {
                    "name": "E4",
                    "midi": 64,
                    "time": 217.12597600000188,
                    "velocity": 0.47244094488188976,
                    "duration": 0.08643549999999323
                },
                {
                    "name": "C4",
                    "midi": 60,
                    "time": 217.47171800000189,
                    "velocity": 0.4015748031496063,
                    "duration": 0.08643549999999323
                },
                {
                    "name": "F4",
                    "midi": 65,
                    "time": 217.8174600000019,
                    "velocity": 0.5118110236220472,
                    "duration": 0.08643549999999323
                },
                {
                    "name": "A4",
                    "midi": 69,
                    "time": 218.1632020000019,
                    "velocity": 0.44881889763779526,
                    "duration": 0.08643549999999323
                },
                {
                    "name": "F2",
                    "midi": 41,
                    "time": 218.5089440000019,
                    "velocity": 0.4881889763779528,
                    "duration": 0.08643549999999323
                },
                {
                    "name": "F3",
                    "midi": 53,
                    "time": 218.5089440000019,
                    "velocity": 0.5748031496062992,
                    "duration": 0.08643549999999323
                },
                {
                    "name": "A2",
                    "midi": 45,
                    "time": 218.8546860000019,
                    "velocity": 0.4409448818897638,
                    "duration": 0.08643549999999323
                },
                {
                    "name": "A3",
                    "midi": 57,
                    "time": 218.8546860000019,
                    "velocity": 0.5275590551181102,
                    "duration": 0.08643549999999323
                },
                {
                    "name": "E3",
                    "midi": 52,
                    "time": 219.2004280000019,
                    "velocity": 0.5905511811023622,
                    "duration": 0.08643549999999323
                },
                {
                    "name": "E2",
                    "midi": 40,
                    "time": 219.2004280000019,
                    "velocity": 0.49606299212598426,
                    "duration": 0.08643549999999323
                },
                {
                    "name": "A2",
                    "midi": 45,
                    "time": 219.5461700000019,
                    "velocity": 0.44881889763779526,
                    "duration": 0.08643549999999323
                },
                {
                    "name": "A3",
                    "midi": 57,
                    "time": 219.5461700000019,
                    "velocity": 0.5354330708661418,
                    "duration": 0.08643549999999323
                },
                {
                    "name": "D#2",
                    "midi": 39,
                    "time": 219.8919120000019,
                    "velocity": 0.5196850393700787,
                    "duration": 0.08643549999999323
                },
                {
                    "name": "D#3",
                    "midi": 51,
                    "time": 219.8919120000019,
                    "velocity": 0.6141732283464567,
                    "duration": 0.08643549999999323
                },
                {
                    "name": "F#2",
                    "midi": 42,
                    "time": 220.2376540000019,
                    "velocity": 0.48031496062992124,
                    "duration": 0.08643549999999323
                },
                {
                    "name": "F#3",
                    "midi": 54,
                    "time": 220.2376540000019,
                    "velocity": 0.5669291338582677,
                    "duration": 0.08643549999999323
                },
                {
                    "name": "A2",
                    "midi": 45,
                    "time": 220.5833960000019,
                    "velocity": 0.5039370078740157,
                    "duration": 0.08643549999999323
                },
                {
                    "name": "A3",
                    "midi": 57,
                    "time": 220.5833960000019,
                    "velocity": 0.5984251968503937,
                    "duration": 0.08643549999999323
                },
                {
                    "name": "C4",
                    "midi": 60,
                    "time": 220.9291380000019,
                    "velocity": 0.5511811023622047,
                    "duration": 0.08643549999999323
                },
                {
                    "name": "C3",
                    "midi": 48,
                    "time": 220.9291380000019,
                    "velocity": 0.4645669291338583,
                    "duration": 0.08643549999999323
                },
                {
                    "name": "D#4",
                    "midi": 63,
                    "time": 221.2748800000019,
                    "velocity": 0.5984251968503937,
                    "duration": 0.08643549999999323
                },
                {
                    "name": "D#3",
                    "midi": 51,
                    "time": 221.2748800000019,
                    "velocity": 0.5039370078740157,
                    "duration": 0.08643549999999323
                },
                {
                    "name": "F#3",
                    "midi": 54,
                    "time": 221.6206220000019,
                    "velocity": 0.44881889763779526,
                    "duration": 0.08643549999999323
                },
                {
                    "name": "F#4",
                    "midi": 66,
                    "time": 221.6206220000019,
                    "velocity": 0.5354330708661418,
                    "duration": 0.08643549999999323
                },
                {
                    "name": "A4",
                    "midi": 69,
                    "time": 221.9663640000019,
                    "velocity": 0.6220472440944882,
                    "duration": 0.08643549999999323
                },
                {
                    "name": "A3",
                    "midi": 57,
                    "time": 221.9663640000019,
                    "velocity": 0.5275590551181102,
                    "duration": 0.08643549999999323
                },
                {
                    "name": "D#3",
                    "midi": 51,
                    "time": 222.3121060000019,
                    "velocity": 0.5590551181102362,
                    "duration": 0.3457420000000013
                },
                {
                    "name": "D#2",
                    "midi": 39,
                    "time": 222.3121060000019,
                    "velocity": 0.47244094488188976,
                    "duration": 0.3457420000000013
                },
                {
                    "name": "E3",
                    "midi": 52,
                    "time": 222.6578480000019,
                    "velocity": 0.6456692913385826,
                    "duration": 4.1489039999999875
                },
                {
                    "name": "E2",
                    "midi": 40,
                    "time": 222.6578480000019,
                    "velocity": 0.5433070866141733,
                    "duration": 4.1489039999999875
                },
                {
                    "name": "A3",
                    "midi": 57,
                    "time": 226.8067520000019,
                    "velocity": 0.31496062992125984,
                    "duration": 0.6914840000000027
                },
                {
                    "name": "A2",
                    "midi": 45,
                    "time": 226.8067520000019,
                    "velocity": 0.31496062992125984,
                    "duration": 0.6914840000000027
                },
                {
                    "name": "C2",
                    "midi": 36,
                    "time": 227.4982360000019,
                    "velocity": 0.2992125984251969,
                    "duration": 0.6914840000000027
                },
                {
                    "name": "C3",
                    "midi": 48,
                    "time": 227.4982360000019,
                    "velocity": 0.2992125984251969,
                    "duration": 0.6914840000000027
                },
                {
                    "name": "D2",
                    "midi": 38,
                    "time": 228.1897200000019,
                    "velocity": 0.31496062992125984,
                    "duration": 0.6914840000000027
                },
                {
                    "name": "D3",
                    "midi": 50,
                    "time": 228.1897200000019,
                    "velocity": 0.31496062992125984,
                    "duration": 0.6914840000000027
                },
                {
                    "name": "E3",
                    "midi": 52,
                    "time": 228.8812040000019,
                    "velocity": 0.28346456692913385,
                    "duration": 0.6914840000000027
                },
                {
                    "name": "E2",
                    "midi": 40,
                    "time": 228.8812040000019,
                    "velocity": 0.28346456692913385,
                    "duration": 0.6914840000000027
                },
                {
                    "name": "A2",
                    "midi": 45,
                    "time": 229.5726880000019,
                    "velocity": 0.31496062992125984,
                    "duration": 2.7659360000000106
                },
                {
                    "name": "C#3",
                    "midi": 49,
                    "time": 229.9184300000019,
                    "velocity": 0.2677165354330709,
                    "duration": 2.4201940000000093
                },
                {
                    "name": "E3",
                    "midi": 52,
                    "time": 230.2641720000019,
                    "velocity": 0.29133858267716534,
                    "duration": 2.074452000000008
                },
                {
                    "name": "G3",
                    "midi": 55,
                    "time": 230.6099140000019,
                    "velocity": 0.31496062992125984,
                    "duration": 0.3457420000000013
                },
                {
                    "name": "A#3",
                    "midi": 58,
                    "time": 230.9556560000019,
                    "velocity": 0.33858267716535434,
                    "duration": 0.6914840000000027
                },
                {
                    "name": "A3",
                    "midi": 57,
                    "time": 231.6471400000019,
                    "velocity": 0.29133858267716534,
                    "duration": 0.3457420000000013
                },
                {
                    "name": "G3",
                    "midi": 55,
                    "time": 231.9928820000019,
                    "velocity": 0.25196850393700787,
                    "duration": 0.3457420000000013
                },
                {
                    "name": "D3",
                    "midi": 50,
                    "time": 232.33862400000191,
                    "velocity": 0.23622047244094488,
                    "duration": 1.037226000000004
                },
                {
                    "name": "F3",
                    "midi": 53,
                    "time": 232.33862400000191,
                    "velocity": 0.28346456692913385,
                    "duration": 1.037226000000004
                },
                {
                    "name": "E3",
                    "midi": 52,
                    "time": 233.37585000000192,
                    "velocity": 0.25196850393700787,
                    "duration": 0.3457420000000013
                },
                {
                    "name": "C3",
                    "midi": 48,
                    "time": 233.37585000000192,
                    "velocity": 0.2125984251968504,
                    "duration": 0.3457420000000013
                },
                {
                    "name": "D3",
                    "midi": 50,
                    "time": 233.72159200000192,
                    "velocity": 0.28346456692913385,
                    "duration": 1.037226000000004
                },
                {
                    "name": "B2",
                    "midi": 47,
                    "time": 233.72159200000192,
                    "velocity": 0.23622047244094488,
                    "duration": 1.037226000000004
                },
                {
                    "name": "A2",
                    "midi": 45,
                    "time": 234.75881800000192,
                    "velocity": 0.2125984251968504,
                    "duration": 0.3457420000000013
                },
                {
                    "name": "C3",
                    "midi": 48,
                    "time": 234.75881800000192,
                    "velocity": 0.25196850393700787,
                    "duration": 0.3457420000000013
                },
                {
                    "name": "G2",
                    "midi": 43,
                    "time": 235.10456000000192,
                    "velocity": 0.2125984251968504,
                    "duration": 0.8643549999999891
                },
                {
                    "name": "B2",
                    "midi": 47,
                    "time": 235.10456000000192,
                    "velocity": 0.25196850393700787,
                    "duration": 0.8643549999999891
                },
                {
                    "name": "E3",
                    "midi": 52,
                    "time": 236.4875280000019,
                    "velocity": 0.4094488188976378,
                    "duration": 0.08643549999999323
                },
                {
                    "name": "C3",
                    "midi": 48,
                    "time": 236.4875280000019,
                    "velocity": 0.3464566929133858,
                    "duration": 0.08643549999999323
                },
                {
                    "name": "E3",
                    "midi": 52,
                    "time": 237.8704960000019,
                    "velocity": 0.4094488188976378,
                    "duration": 0.08643549999999323
                },
                {
                    "name": "C3",
                    "midi": 48,
                    "time": 237.8704960000019,
                    "velocity": 0.3464566929133858,
                    "duration": 0.08643549999999323
                },
                {
                    "name": "G2",
                    "midi": 43,
                    "time": 239.2534640000019,
                    "velocity": 0.3464566929133858,
                    "duration": 0.08643549999999323
                },
                {
                    "name": "D3",
                    "midi": 50,
                    "time": 239.2534640000019,
                    "velocity": 0.3464566929133858,
                    "duration": 0.08643549999999323
                },
                {
                    "name": "F3",
                    "midi": 53,
                    "time": 239.2534640000019,
                    "velocity": 0.4094488188976378,
                    "duration": 0.08643549999999323
                },
                {
                    "name": "D3",
                    "midi": 50,
                    "time": 239.5992060000019,
                    "velocity": 0.2992125984251969,
                    "duration": 0.08643549999999323
                },
                {
                    "name": "G2",
                    "midi": 43,
                    "time": 239.5992060000019,
                    "velocity": 0.2992125984251969,
                    "duration": 0.08643549999999323
                },
                {
                    "name": "F3",
                    "midi": 53,
                    "time": 239.5992060000019,
                    "velocity": 0.3543307086614173,
                    "duration": 0.08643549999999323
                },
                {
                    "name": "G2",
                    "midi": 43,
                    "time": 239.94494800000192,
                    "velocity": 0.3464566929133858,
                    "duration": 0.08643549999999323
                },
                {
                    "name": "C3",
                    "midi": 48,
                    "time": 239.94494800000192,
                    "velocity": 0.3464566929133858,
                    "duration": 0.08643549999999323
                },
                {
                    "name": "E3",
                    "midi": 52,
                    "time": 239.94494800000192,
                    "velocity": 0.4094488188976378,
                    "duration": 0.08643549999999323
                },
                {
                    "name": "E3",
                    "midi": 52,
                    "time": 240.29069000000192,
                    "velocity": 0.3700787401574803,
                    "duration": 0.08643549999999323
                },
                {
                    "name": "G2",
                    "midi": 43,
                    "time": 240.29069000000192,
                    "velocity": 0.30708661417322836,
                    "duration": 0.08643549999999323
                },
                {
                    "name": "C3",
                    "midi": 48,
                    "time": 240.29069000000192,
                    "velocity": 0.30708661417322836,
                    "duration": 0.08643549999999323
                },
                {
                    "name": "B2",
                    "midi": 47,
                    "time": 240.63643200000192,
                    "velocity": 0.3464566929133858,
                    "duration": 0.3457420000000013
                },
                {
                    "name": "D3",
                    "midi": 50,
                    "time": 240.63643200000192,
                    "velocity": 0.4094488188976378,
                    "duration": 0.3457420000000013
                },
                {
                    "name": "G2",
                    "midi": 43,
                    "time": 240.63643200000192,
                    "velocity": 0.3464566929133858,
                    "duration": 0.3457420000000013
                },
                {
                    "name": "G3",
                    "midi": 55,
                    "time": 242.01940000000192,
                    "velocity": 0.3779527559055118,
                    "duration": 0.08643549999999323
                },
                {
                    "name": "B2",
                    "midi": 47,
                    "time": 242.01940000000192,
                    "velocity": 0.31496062992125984,
                    "duration": 0.08643549999999323
                },
                {
                    "name": "G3",
                    "midi": 55,
                    "time": 242.71088400000193,
                    "velocity": 0.3779527559055118,
                    "duration": 0.08643549999999323
                },
                {
                    "name": "C3",
                    "midi": 48,
                    "time": 242.71088400000193,
                    "velocity": 0.31496062992125984,
                    "duration": 0.08643549999999323
                },
                {
                    "name": "G3",
                    "midi": 55,
                    "time": 243.40236800000193,
                    "velocity": 0.3779527559055118,
                    "duration": 0.08643549999999323
                },
                {
                    "name": "F3",
                    "midi": 53,
                    "time": 243.40236800000193,
                    "velocity": 0.31496062992125984,
                    "duration": 0.08643549999999323
                },
                {
                    "name": "E3",
                    "midi": 52,
                    "time": 244.09385200000193,
                    "velocity": 0.2992125984251969,
                    "duration": 0.08643549999999323
                },
                {
                    "name": "G3",
                    "midi": 55,
                    "time": 244.09385200000193,
                    "velocity": 0.3543307086614173,
                    "duration": 0.08643549999999323
                },
                {
                    "name": "F2",
                    "midi": 41,
                    "time": 244.78533600000193,
                    "velocity": 0.3700787401574803,
                    "duration": 0.08643549999999323
                },
                {
                    "name": "F3",
                    "midi": 53,
                    "time": 244.78533600000193,
                    "velocity": 0.4409448818897638,
                    "duration": 0.08643549999999323
                },
                {
                    "name": "F3",
                    "midi": 53,
                    "time": 245.13107800000193,
                    "velocity": 0.4094488188976378,
                    "duration": 0.08643549999999323
                },
                {
                    "name": "F2",
                    "midi": 41,
                    "time": 245.13107800000193,
                    "velocity": 0.3464566929133858,
                    "duration": 0.08643549999999323
                },
                {
                    "name": "G2",
                    "midi": 43,
                    "time": 245.47682000000194,
                    "velocity": 0.3858267716535433,
                    "duration": 0.08643549999999323
                },
                {
                    "name": "D3",
                    "midi": 50,
                    "time": 245.47682000000194,
                    "velocity": 0.4566929133858268,
                    "duration": 0.08643549999999323
                },
                {
                    "name": "G2",
                    "midi": 43,
                    "time": 245.82256200000194,
                    "velocity": 0.3464566929133858,
                    "duration": 0.08643549999999323
                },
                {
                    "name": "D3",
                    "midi": 50,
                    "time": 245.82256200000194,
                    "velocity": 0.4094488188976378,
                    "duration": 0.08643549999999323
                },
                {
                    "name": "C4",
                    "midi": 60,
                    "time": 246.16830400000194,
                    "velocity": 0.4330708661417323,
                    "duration": 0.11524733333334325
                },
                {
                    "name": "D#4",
                    "midi": 63,
                    "time": 246.28355133333528,
                    "velocity": 0.33858267716535434,
                    "duration": 0.11524733333334325
                },
                {
                    "name": "G4",
                    "midi": 67,
                    "time": 246.39879866666863,
                    "velocity": 0.33858267716535434,
                    "duration": 0.11524733333334325
                },
                {
                    "name": "C4",
                    "midi": 60,
                    "time": 246.51404600000197,
                    "velocity": 0.4409448818897638,
                    "duration": 0.11524733333334325
                },
                {
                    "name": "D#4",
                    "midi": 63,
                    "time": 246.6292933333353,
                    "velocity": 0.33070866141732286,
                    "duration": 0.11524733333334325
                },
                {
                    "name": "G4",
                    "midi": 67,
                    "time": 246.74454066666866,
                    "velocity": 0.33070866141732286,
                    "duration": 0.11524733333334325
                },
                {
                    "name": "C4",
                    "midi": 60,
                    "time": 246.859788000002,
                    "velocity": 0.4330708661417323,
                    "duration": 0.11524733333334325
                },
                {
                    "name": "D#4",
                    "midi": 63,
                    "time": 246.97503533333534,
                    "velocity": 0.3464566929133858,
                    "duration": 0.11524733333334325
                },
                {
                    "name": "G4",
                    "midi": 67,
                    "time": 247.09028266666868,
                    "velocity": 0.3543307086614173,
                    "duration": 0.11524733333334325
                },
                {
                    "name": "C4",
                    "midi": 60,
                    "time": 247.20553000000203,
                    "velocity": 0.4409448818897638,
                    "duration": 0.11524733333334325
                },
                {
                    "name": "D#4",
                    "midi": 63,
                    "time": 247.32077733333537,
                    "velocity": 0.4015748031496063,
                    "duration": 0.11524733333334325
                },
                {
                    "name": "G4",
                    "midi": 67,
                    "time": 247.43602466666871,
                    "velocity": 0.4015748031496063,
                    "duration": 0.11524733333334325
                },
                {
                    "name": "C4",
                    "midi": 60,
                    "time": 247.55127200000206,
                    "velocity": 0.4409448818897638,
                    "duration": 0.11524733333334325
                },
                {
                    "name": "D#4",
                    "midi": 63,
                    "time": 247.6665193333354,
                    "velocity": 0.33858267716535434,
                    "duration": 0.11524733333334325
                },
                {
                    "name": "G4",
                    "midi": 67,
                    "time": 247.78176666666874,
                    "velocity": 0.33858267716535434,
                    "duration": 0.11524733333334325
                },
                {
                    "name": "C4",
                    "midi": 60,
                    "time": 247.8970140000021,
                    "velocity": 0.4409448818897638,
                    "duration": 0.11524733333334325
                },
                {
                    "name": "D#4",
                    "midi": 63,
                    "time": 248.01226133333543,
                    "velocity": 0.3543307086614173,
                    "duration": 0.11524733333334325
                },
                {
                    "name": "G4",
                    "midi": 67,
                    "time": 248.12750866666877,
                    "velocity": 0.36220472440944884,
                    "duration": 0.11524733333334325
                },
                {
                    "name": "C4",
                    "midi": 60,
                    "time": 248.24275600000212,
                    "velocity": 0.4330708661417323,
                    "duration": 0.11524733333334325
                },
                {
                    "name": "D#4",
                    "midi": 63,
                    "time": 248.35800333333546,
                    "velocity": 0.3464566929133858,
                    "duration": 0.11524733333334325
                },
                {
                    "name": "G4",
                    "midi": 67,
                    "time": 248.4732506666688,
                    "velocity": 0.3543307086614173,
                    "duration": 0.11524733333334325
                },
                {
                    "name": "C4",
                    "midi": 60,
                    "time": 248.58849800000215,
                    "velocity": 0.4409448818897638,
                    "duration": 0.11524733333334325
                },
                {
                    "name": "D#4",
                    "midi": 63,
                    "time": 248.7037453333355,
                    "velocity": 0.4015748031496063,
                    "duration": 0.11524733333334325
                },
                {
                    "name": "G4",
                    "midi": 67,
                    "time": 248.81899266666883,
                    "velocity": 0.4015748031496063,
                    "duration": 0.11524733333334325
                },
                {
                    "name": "C4",
                    "midi": 60,
                    "time": 248.93424000000218,
                    "velocity": 0.4409448818897638,
                    "duration": 0.11524733333334325
                },
                {
                    "name": "D#4",
                    "midi": 63,
                    "time": 249.04948733333552,
                    "velocity": 0.3228346456692913,
                    "duration": 0.11524733333334325
                },
                {
                    "name": "G4",
                    "midi": 67,
                    "time": 249.16473466666886,
                    "velocity": 0.3228346456692913,
                    "duration": 0.11524733333334325
                },
                {
                    "name": "C4",
                    "midi": 60,
                    "time": 249.2799820000022,
                    "velocity": 0.4409448818897638,
                    "duration": 0.11524733333334325
                },
                {
                    "name": "D#4",
                    "midi": 63,
                    "time": 249.39522933333555,
                    "velocity": 0.3464566929133858,
                    "duration": 0.11524733333334325
                },
                {
                    "name": "G4",
                    "midi": 67,
                    "time": 249.5104766666689,
                    "velocity": 0.3464566929133858,
                    "duration": 0.11524733333334325
                },
                {
                    "name": "C4",
                    "midi": 60,
                    "time": 249.62572400000224,
                    "velocity": 0.4409448818897638,
                    "duration": 0.11524733333334325
                },
                {
                    "name": "D#4",
                    "midi": 63,
                    "time": 249.74097133333558,
                    "velocity": 0.3464566929133858,
                    "duration": 0.11524733333334325
                },
                {
                    "name": "G4",
                    "midi": 67,
                    "time": 249.85621866666892,
                    "velocity": 0.3543307086614173,
                    "duration": 0.11524733333334325
                },
                {
                    "name": "C4",
                    "midi": 60,
                    "time": 249.97146600000227,
                    "velocity": 0.4409448818897638,
                    "duration": 0.11524733333334325
                },
                {
                    "name": "D#4",
                    "midi": 63,
                    "time": 250.0867133333356,
                    "velocity": 0.3464566929133858,
                    "duration": 0.11524733333334325
                },
                {
                    "name": "G4",
                    "midi": 67,
                    "time": 250.20196066666895,
                    "velocity": 0.3464566929133858,
                    "duration": 0.11524733333334325
                },
                {
                    "name": "A#3",
                    "midi": 58,
                    "time": 250.3172080000023,
                    "velocity": 0.4409448818897638,
                    "duration": 0.11524733333334325
                },
                {
                    "name": "E4",
                    "midi": 64,
                    "time": 250.43245533333564,
                    "velocity": 0.33858267716535434,
                    "duration": 0.11524733333334325
                },
                {
                    "name": "G4",
                    "midi": 67,
                    "time": 250.54770266666898,
                    "velocity": 0.33858267716535434,
                    "duration": 0.11524733333334325
                },
                {
                    "name": "A#3",
                    "midi": 58,
                    "time": 250.66295000000233,
                    "velocity": 0.4409448818897638,
                    "duration": 0.11524733333334325
                },
                {
                    "name": "E4",
                    "midi": 64,
                    "time": 250.77819733333567,
                    "velocity": 0.3543307086614173,
                    "duration": 0.11524733333334325
                },
                {
                    "name": "G4",
                    "midi": 67,
                    "time": 250.893444666669,
                    "velocity": 0.36220472440944884,
                    "duration": 0.11524733333334325
                },
                {
                    "name": "A#3",
                    "midi": 58,
                    "time": 251.00869200000236,
                    "velocity": 0.4330708661417323,
                    "duration": 0.11524733333334325
                },
                {
                    "name": "E4",
                    "midi": 64,
                    "time": 251.1239393333357,
                    "velocity": 0.3464566929133858,
                    "duration": 0.11524733333334325
                },
                {
                    "name": "G4",
                    "midi": 67,
                    "time": 251.23918666666904,
                    "velocity": 0.3543307086614173,
                    "duration": 0.11524733333334325
                },
                {
                    "name": "A#3",
                    "midi": 58,
                    "time": 251.35443400000239,
                    "velocity": 0.4409448818897638,
                    "duration": 0.11524733333334325
                },
                {
                    "name": "E4",
                    "midi": 64,
                    "time": 251.46968133333573,
                    "velocity": 0.4015748031496063,
                    "duration": 0.11524733333334325
                },
                {
                    "name": "G4",
                    "midi": 67,
                    "time": 251.58492866666907,
                    "velocity": 0.4015748031496063,
                    "duration": 0.11524733333334325
                },
                {
                    "name": "A#3",
                    "midi": 58,
                    "time": 251.70017600000241,
                    "velocity": 0.4409448818897638,
                    "duration": 0.11524733333334325
                },
                {
                    "name": "E4",
                    "midi": 64,
                    "time": 251.81542333333576,
                    "velocity": 0.3228346456692913,
                    "duration": 0.11524733333334325
                },
                {
                    "name": "G4",
                    "midi": 67,
                    "time": 251.9306706666691,
                    "velocity": 0.3228346456692913,
                    "duration": 0.11524733333334325
                },
                {
                    "name": "A#3",
                    "midi": 58,
                    "time": 252.04591800000244,
                    "velocity": 0.4409448818897638,
                    "duration": 0.11524733333334325
                },
                {
                    "name": "E4",
                    "midi": 64,
                    "time": 252.1611653333358,
                    "velocity": 0.3464566929133858,
                    "duration": 0.11524733333334325
                },
                {
                    "name": "G4",
                    "midi": 67,
                    "time": 252.27641266666913,
                    "velocity": 0.3464566929133858,
                    "duration": 0.11524733333334325
                },
                {
                    "name": "A#3",
                    "midi": 58,
                    "time": 252.39166000000247,
                    "velocity": 0.4409448818897638,
                    "duration": 0.11524733333334325
                },
                {
                    "name": "E4",
                    "midi": 64,
                    "time": 252.50690733333582,
                    "velocity": 0.3464566929133858,
                    "duration": 0.11524733333334325
                },
                {
                    "name": "G4",
                    "midi": 67,
                    "time": 252.62215466666916,
                    "velocity": 0.3543307086614173,
                    "duration": 0.11524733333334325
                },
                {
                    "name": "A#3",
                    "midi": 58,
                    "time": 252.7374020000025,
                    "velocity": 0.4409448818897638,
                    "duration": 0.11524733333334325
                },
                {
                    "name": "E4",
                    "midi": 64,
                    "time": 252.85264933333585,
                    "velocity": 0.3464566929133858,
                    "duration": 0.11524733333334325
                },
                {
                    "name": "G4",
                    "midi": 67,
                    "time": 252.9678966666692,
                    "velocity": 0.3464566929133858,
                    "duration": 0.11524733333334325
                },
                {
                    "name": "A3",
                    "midi": 57,
                    "time": 253.08314400000253,
                    "velocity": 0.3937007874015748,
                    "duration": 0.11524733333334325
                },
                {
                    "name": "E4",
                    "midi": 64,
                    "time": 253.19839133333588,
                    "velocity": 0.2992125984251969,
                    "duration": 0.11524733333334325
                },
                {
                    "name": "G4",
                    "midi": 67,
                    "time": 253.31363866666922,
                    "velocity": 0.2992125984251969,
                    "duration": 0.11524733333334325
                },
                {
                    "name": "A3",
                    "midi": 57,
                    "time": 253.42888600000256,
                    "velocity": 0.3937007874015748,
                    "duration": 0.11524733333334325
                },
                {
                    "name": "E4",
                    "midi": 64,
                    "time": 253.5441333333359,
                    "velocity": 0.30708661417322836,
                    "duration": 0.11524733333334325
                },
                {
                    "name": "G4",
                    "midi": 67,
                    "time": 253.65938066666925,
                    "velocity": 0.30708661417322836,
                    "duration": 0.11524733333334325
                },
                {
                    "name": "A3",
                    "midi": 57,
                    "time": 253.7746280000026,
                    "velocity": 0.3937007874015748,
                    "duration": 0.11524733333334325
                },
                {
                    "name": "E4",
                    "midi": 64,
                    "time": 253.88987533333594,
                    "velocity": 0.30708661417322836,
                    "duration": 0.11524733333334325
                },
                {
                    "name": "G4",
                    "midi": 67,
                    "time": 254.00512266666928,
                    "velocity": 0.31496062992125984,
                    "duration": 0.11524733333334325
                },
                {
                    "name": "A3",
                    "midi": 57,
                    "time": 254.12037000000262,
                    "velocity": 0.3937007874015748,
                    "duration": 0.11524733333334325
                },
                {
                    "name": "E4",
                    "midi": 64,
                    "time": 254.23561733333597,
                    "velocity": 0.30708661417322836,
                    "duration": 0.11524733333334325
                },
                {
                    "name": "G4",
                    "midi": 67,
                    "time": 254.3508646666693,
                    "velocity": 0.30708661417322836,
                    "duration": 0.11524733333334325
                },
                {
                    "name": "A3",
                    "midi": 57,
                    "time": 254.46611200000265,
                    "velocity": 0.3937007874015748,
                    "duration": 0.11524733333334325
                },
                {
                    "name": "D4",
                    "midi": 62,
                    "time": 254.581359333336,
                    "velocity": 0.28346456692913385,
                    "duration": 0.11524733333334325
                },
                {
                    "name": "F4",
                    "midi": 65,
                    "time": 254.69660666666934,
                    "velocity": 0.28346456692913385,
                    "duration": 0.11524733333334325
                },
                {
                    "name": "A3",
                    "midi": 57,
                    "time": 254.81185400000268,
                    "velocity": 0.3937007874015748,
                    "duration": 0.11524733333334325
                },
                {
                    "name": "D4",
                    "midi": 62,
                    "time": 254.92710133333603,
                    "velocity": 0.30708661417322836,
                    "duration": 0.11524733333334325
                },
                {
                    "name": "F4",
                    "midi": 65,
                    "time": 255.04234866666937,
                    "velocity": 0.30708661417322836,
                    "duration": 0.11524733333334325
                },
                {
                    "name": "A3",
                    "midi": 57,
                    "time": 255.1575960000027,
                    "velocity": 0.3937007874015748,
                    "duration": 0.11524733333334325
                },
                {
                    "name": "D4",
                    "midi": 62,
                    "time": 255.27284333333606,
                    "velocity": 0.30708661417322836,
                    "duration": 0.11524733333334325
                },
                {
                    "name": "F4",
                    "midi": 65,
                    "time": 255.3880906666694,
                    "velocity": 0.31496062992125984,
                    "duration": 0.11524733333334325
                },
                {
                    "name": "A3",
                    "midi": 57,
                    "time": 255.50333800000274,
                    "velocity": 0.3937007874015748,
                    "duration": 0.11524733333334325
                },
                {
                    "name": "D4",
                    "midi": 62,
                    "time": 255.61858533333609,
                    "velocity": 0.30708661417322836,
                    "duration": 0.11524733333334325
                },
                {
                    "name": "F4",
                    "midi": 65,
                    "time": 255.73383266666943,
                    "velocity": 0.30708661417322836,
                    "duration": 0.11524733333334325
                },
                {
                    "name": "G3",
                    "midi": 55,
                    "time": 255.84908000000277,
                    "velocity": 0.3937007874015748,
                    "duration": 0.11524733333334325
                },
                {
                    "name": "B3",
                    "midi": 59,
                    "time": 255.96432733333612,
                    "velocity": 0.2992125984251969,
                    "duration": 0.11524733333331483
                },
                {
                    "name": "D4",
                    "midi": 62,
                    "time": 256.07957466666943,
                    "velocity": 0.31496062992125984,
                    "duration": 0.11524733333334325
                },
                {
                    "name": "G3",
                    "midi": 55,
                    "time": 256.1948220000028,
                    "velocity": 0.3937007874015748,
                    "duration": 0.11524733333334325
                },
                {
                    "name": "B3",
                    "midi": 59,
                    "time": 256.3100693333361,
                    "velocity": 0.31496062992125984,
                    "duration": 0.11524733333334325
                },
                {
                    "name": "D4",
                    "midi": 62,
                    "time": 256.42531666666946,
                    "velocity": 0.31496062992125984,
                    "duration": 0.11524733333334325
                },
                {
                    "name": "G3",
                    "midi": 55,
                    "time": 256.5405640000028,
                    "velocity": 0.3937007874015748,
                    "duration": 0.11524733333334325
                },
                {
                    "name": "C4",
                    "midi": 60,
                    "time": 256.65581133333615,
                    "velocity": 0.2992125984251969,
                    "duration": 0.11524733333334325
                },
                {
                    "name": "E4",
                    "midi": 64,
                    "time": 256.7710586666695,
                    "velocity": 0.30708661417322836,
                    "duration": 0.11524733333334325
                },
                {
                    "name": "G3",
                    "midi": 55,
                    "time": 256.88630600000283,
                    "velocity": 0.3937007874015748,
                    "duration": 0.11524733333334325
                },
                {
                    "name": "C4",
                    "midi": 60,
                    "time": 257.0015533333362,
                    "velocity": 0.3228346456692913,
                    "duration": 0.11524733333334325
                },
                {
                    "name": "E4",
                    "midi": 64,
                    "time": 257.1168006666695,
                    "velocity": 0.3228346456692913,
                    "duration": 0.11524733333334325
                },
                {
                    "name": "G3",
                    "midi": 55,
                    "time": 257.23204800000286,
                    "velocity": 0.3937007874015748,
                    "duration": 0.11524733333334325
                },
                {
                    "name": "D4",
                    "midi": 62,
                    "time": 257.3472953333362,
                    "velocity": 0.2992125984251969,
                    "duration": 0.11524733333334325
                },
                {
                    "name": "F4",
                    "midi": 65,
                    "time": 257.46254266666955,
                    "velocity": 0.31496062992125984,
                    "duration": 0.11524733333334325
                },
                {
                    "name": "G3",
                    "midi": 55,
                    "time": 257.5777900000029,
                    "velocity": 0.3937007874015748,
                    "duration": 0.11524733333334325
                },
                {
                    "name": "D4",
                    "midi": 62,
                    "time": 257.69303733333624,
                    "velocity": 0.31496062992125984,
                    "duration": 0.11524733333334325
                },
                {
                    "name": "F4",
                    "midi": 65,
                    "time": 257.8082846666696,
                    "velocity": 0.31496062992125984,
                    "duration": 0.11524733333334325
                },
                {
                    "name": "G3",
                    "midi": 55,
                    "time": 257.9235320000029,
                    "velocity": 0.3937007874015748,
                    "duration": 0.11524733333334325
                },
                {
                    "name": "C4",
                    "midi": 60,
                    "time": 258.03877933333627,
                    "velocity": 0.33858267716535434,
                    "duration": 0.11524733333334325
                },
                {
                    "name": "E4",
                    "midi": 64,
                    "time": 258.1540266666696,
                    "velocity": 0.3464566929133858,
                    "duration": 0.11524733333334325
                },
                {
                    "name": "G3",
                    "midi": 55,
                    "time": 258.26927400000295,
                    "velocity": 0.30708661417322836,
                    "duration": 0.11524733333334325
                },
                {
                    "name": "C4",
                    "midi": 60,
                    "time": 258.3845213333363,
                    "velocity": 0.2755905511811024,
                    "duration": 0.11524733333334325
                },
                {
                    "name": "E4",
                    "midi": 64,
                    "time": 258.49976866666964,
                    "velocity": 0.2755905511811024,
                    "duration": 0.11524733333334325
                },
                {
                    "name": "G3",
                    "midi": 55,
                    "time": 258.615016000003,
                    "velocity": 0.30708661417322836,
                    "duration": 0.11524733333334325
                },
                {
                    "name": "B3",
                    "midi": 59,
                    "time": 258.7302633333363,
                    "velocity": 0.23622047244094488,
                    "duration": 0.11524733333334325
                },
                {
                    "name": "D4",
                    "midi": 62,
                    "time": 258.84551066666967,
                    "velocity": 0.2440944881889764,
                    "duration": 0.11524733333334325
                },
                {
                    "name": "G3",
                    "midi": 55,
                    "time": 258.960758000003,
                    "velocity": 0.30708661417322836,
                    "duration": 0.11524733333334325
                },
                {
                    "name": "B3",
                    "midi": 59,
                    "time": 259.07600533333635,
                    "velocity": 0.2440944881889764,
                    "duration": 0.11524733333334325
                },
                {
                    "name": "D4",
                    "midi": 62,
                    "time": 259.1912526666697,
                    "velocity": 0.2440944881889764,
                    "duration": 0.11524733333334325
                },
                {
                    "name": "G3",
                    "midi": 55,
                    "time": 259.30650000000304,
                    "velocity": 0.30708661417322836,
                    "duration": 0.11524733333334325
                },
                {
                    "name": "C4",
                    "midi": 60,
                    "time": 259.4217473333364,
                    "velocity": 0.23622047244094488,
                    "duration": 0.11524733333334325
                },
                {
                    "name": "E4",
                    "midi": 64,
                    "time": 259.5369946666697,
                    "velocity": 0.23622047244094488,
                    "duration": 0.11524733333334325
                },
                {
                    "name": "G3",
                    "midi": 55,
                    "time": 259.65224200000307,
                    "velocity": 0.30708661417322836,
                    "duration": 0.11524733333334325
                },
                {
                    "name": "C4",
                    "midi": 60,
                    "time": 259.7674893333364,
                    "velocity": 0.25196850393700787,
                    "duration": 0.11524733333334325
                },
                {
                    "name": "E4",
                    "midi": 64,
                    "time": 259.88273666666976,
                    "velocity": 0.25196850393700787,
                    "duration": 0.11524733333334325
                },
                {
                    "name": "G3",
                    "midi": 55,
                    "time": 259.9979840000031,
                    "velocity": 0.30708661417322836,
                    "duration": 0.11524733333334325
                },
                {
                    "name": "D4",
                    "midi": 62,
                    "time": 260.11323133333644,
                    "velocity": 0.23622047244094488,
                    "duration": 0.11524733333334325
                },
                {
                    "name": "F4",
                    "midi": 65,
                    "time": 260.2284786666698,
                    "velocity": 0.2440944881889764,
                    "duration": 0.11524733333334325
                },
                {
                    "name": "G3",
                    "midi": 55,
                    "time": 260.34372600000313,
                    "velocity": 0.3543307086614173,
                    "duration": 0.11524733333334325
                },
                {
                    "name": "D4",
                    "midi": 62,
                    "time": 260.4589733333365,
                    "velocity": 0.28346456692913385,
                    "duration": 0.11524733333334325
                },
                {
                    "name": "F4",
                    "midi": 65,
                    "time": 260.5742206666698,
                    "velocity": 0.28346456692913385,
                    "duration": 0.11524733333334325
                },
                {
                    "name": "G3",
                    "midi": 55,
                    "time": 260.68946800000316,
                    "velocity": 0.3937007874015748,
                    "duration": 0.11524733333334325
                },
                {
                    "name": "C4",
                    "midi": 60,
                    "time": 260.8047153333365,
                    "velocity": 0.2992125984251969,
                    "duration": 0.11524733333334325
                },
                {
                    "name": "E4",
                    "midi": 64,
                    "time": 260.91996266666985,
                    "velocity": 0.2992125984251969,
                    "duration": 0.11524733333334325
                },
                {
                    "name": "G3",
                    "midi": 55,
                    "time": 261.0352100000032,
                    "velocity": 0.4251968503937008,
                    "duration": 0.11524733333334325
                },
                {
                    "name": "C4",
                    "midi": 60,
                    "time": 261.15045733333653,
                    "velocity": 0.33858267716535434,
                    "duration": 0.11524733333334325
                },
                {
                    "name": "E4",
                    "midi": 64,
                    "time": 261.2657046666699,
                    "velocity": 0.3464566929133858,
                    "duration": 0.11524733333334325
                },
                {
                    "name": "G3",
                    "midi": 55,
                    "time": 261.3809520000032,
                    "velocity": 0.4566929133858268,
                    "duration": 0.3457419999999729
                },
                {
                    "name": "G3",
                    "midi": 55,
                    "time": 261.9860005000032,
                    "velocity": 0.4881889763779528,
                    "duration": 0.08643549999999323
                },
                {
                    "name": "B3",
                    "midi": 59,
                    "time": 262.07243600000317,
                    "velocity": 0.5354330708661418,
                    "duration": 0.2593064999999797
                },
                {
                    "name": "G3",
                    "midi": 55,
                    "time": 262.33174250000314,
                    "velocity": 0.4881889763779528,
                    "duration": 0.08643549999999323
                },
                {
                    "name": "D4",
                    "midi": 62,
                    "time": 262.41817800000314,
                    "velocity": 0.5354330708661418,
                    "duration": 0.2593064999999797
                },
                {
                    "name": "B3",
                    "midi": 59,
                    "time": 262.6774845000031,
                    "velocity": 0.5039370078740157,
                    "duration": 0.08643549999999323
                },
                {
                    "name": "G4",
                    "midi": 67,
                    "time": 262.7639200000031,
                    "velocity": 0.6299212598425197,
                    "duration": 0.3457419999999729
                },
                {
                    "name": "G2",
                    "midi": 43,
                    "time": 263.36896850000306,
                    "velocity": 0.4881889763779528,
                    "duration": 0.08643549999999323
                },
                {
                    "name": "B2",
                    "midi": 47,
                    "time": 263.45540400000306,
                    "velocity": 0.5590551181102362,
                    "duration": 0.11524733333334325
                },
                {
                    "name": "G2",
                    "midi": 43,
                    "time": 263.5706513333364,
                    "velocity": 0.4881889763779528,
                    "duration": 0.11524733333334325
                },
                {
                    "name": "B2",
                    "midi": 47,
                    "time": 263.68589866666974,
                    "velocity": 0.4881889763779528,
                    "duration": 0.11524733333334325
                },
                {
                    "name": "D3",
                    "midi": 50,
                    "time": 263.8011460000031,
                    "velocity": 0.5354330708661418,
                    "duration": 0.11524733333334325
                },
                {
                    "name": "B2",
                    "midi": 47,
                    "time": 263.91639333333643,
                    "velocity": 0.5039370078740157,
                    "duration": 0.11524733333334325
                },
                {
                    "name": "D3",
                    "midi": 50,
                    "time": 264.0316406666698,
                    "velocity": 0.5039370078740157,
                    "duration": 0.11524733333334325
                },
                {
                    "name": "G3",
                    "midi": 55,
                    "time": 264.1468880000031,
                    "velocity": 0.5826771653543307,
                    "duration": 0.3457419999999729
                },
                {
                    "name": "G1",
                    "midi": 31,
                    "time": 264.83837200000306,
                    "velocity": 0.6614173228346457,
                    "duration": 0.5186130000000162
                },
                {
                    "name": "G1",
                    "midi": 31,
                    "time": 265.3569850000031,
                    "velocity": 0.6141732283464567,
                    "duration": 0.17287099999998645
                },
                {
                    "name": "G1",
                    "midi": 31,
                    "time": 265.52985600000306,
                    "velocity": 0.6614173228346457,
                    "duration": 0.3457419999999729
                },
                {
                    "name": "E3",
                    "midi": 52,
                    "time": 266.912824000003,
                    "velocity": 0.3543307086614173,
                    "duration": 0.11524733333334325
                },
                {
                    "name": "G3",
                    "midi": 55,
                    "time": 267.03023222083635,
                    "velocity": 0.28346456692913385,
                    "duration": 0.11524733333334325
                },
                {
                    "name": "C4",
                    "midi": 60,
                    "time": 267.1433186666697,
                    "velocity": 0.28346456692913385,
                    "duration": 0.11524733333334325
                },
                {
                    "name": "E3",
                    "midi": 52,
                    "time": 267.25856600000304,
                    "velocity": 0.3543307086614173,
                    "duration": 0.11524733333334325
                },
                {
                    "name": "G3",
                    "midi": 55,
                    "time": 267.3759742208364,
                    "velocity": 0.2992125984251969,
                    "duration": 0.11524733333334325
                },
                {
                    "name": "C4",
                    "midi": 60,
                    "time": 267.48906066666973,
                    "velocity": 0.2992125984251969,
                    "duration": 0.11524733333334325
                },
                {
                    "name": "E3",
                    "midi": 52,
                    "time": 267.6043080000031,
                    "velocity": 0.3543307086614173,
                    "duration": 0.11524733333334325
                },
                {
                    "name": "G3",
                    "midi": 55,
                    "time": 267.7217162208364,
                    "velocity": 0.28346456692913385,
                    "duration": 0.11524733333334325
                },
                {
                    "name": "C4",
                    "midi": 60,
                    "time": 267.83480266666976,
                    "velocity": 0.28346456692913385,
                    "duration": 0.11524733333334325
                },
                {
                    "name": "F3",
                    "midi": 53,
                    "time": 267.9500500000031,
                    "velocity": 0.3543307086614173,
                    "duration": 0.11524733333334325
                },
                {
                    "name": "G3",
                    "midi": 55,
                    "time": 268.06529733333645,
                    "velocity": 0.28346456692913385,
                    "duration": 0.11524733333334325
                },
                {
                    "name": "B3",
                    "midi": 59,
                    "time": 268.1805446666698,
                    "velocity": 0.29133858267716534,
                    "duration": 0.11524733333334325
                },
                {
                    "name": "E3",
                    "midi": 52,
                    "time": 268.29579200000313,
                    "velocity": 0.3543307086614173,
                    "duration": 0.11524733333334325
                },
                {
                    "name": "G3",
                    "midi": 55,
                    "time": 268.4074378541698,
                    "velocity": 0.28346456692913385,
                    "duration": 0.11524733333334325
                },
                {
                    "name": "C4",
                    "midi": 60,
                    "time": 268.5262866666698,
                    "velocity": 0.28346456692913385,
                    "duration": 0.11524733333334325
                },
                {
                    "name": "E3",
                    "midi": 52,
                    "time": 268.64153400000316,
                    "velocity": 0.3543307086614173,
                    "duration": 0.11524733333334325
                },
                {
                    "name": "G3",
                    "midi": 55,
                    "time": 268.75317985416984,
                    "velocity": 0.2992125984251969,
                    "duration": 0.11524733333334325
                },
                {
                    "name": "C4",
                    "midi": 60,
                    "time": 268.87202866666985,
                    "velocity": 0.30708661417322836,
                    "duration": 0.11524733333334325
                },
                {
                    "name": "E3",
                    "midi": 52,
                    "time": 268.9872760000032,
                    "velocity": 0.36220472440944884,
                    "duration": 0.11524733333334325
                },
                {
                    "name": "G3",
                    "midi": 55,
                    "time": 269.10252333333653,
                    "velocity": 0.29133858267716534,
                    "duration": 0.11524733333334325
                },
                {
                    "name": "C4",
                    "midi": 60,
                    "time": 269.2177706666699,
                    "velocity": 0.29133858267716534,
                    "duration": 0.11524733333334325
                },
                {
                    "name": "F3",
                    "midi": 53,
                    "time": 269.3330180000032,
                    "velocity": 0.3700787401574803,
                    "duration": 0.11524733333334325
                },
                {
                    "name": "G3",
                    "midi": 55,
                    "time": 269.44826533333656,
                    "velocity": 0.2992125984251969,
                    "duration": 0.11524733333334325
                },
                {
                    "name": "B3",
                    "midi": 59,
                    "time": 269.5635126666699,
                    "velocity": 0.30708661417322836,
                    "duration": 0.11524733333334325
                },
                {
                    "name": "E3",
                    "midi": 52,
                    "time": 269.67876000000325,
                    "velocity": 0.3779527559055118,
                    "duration": 0.11524733333334325
                },
                {
                    "name": "G3",
                    "midi": 55,
                    "time": 269.7940073333366,
                    "velocity": 0.2992125984251969,
                    "duration": 0.11524733333334325
                },
                {
                    "name": "C4",
                    "midi": 60,
                    "time": 269.90925466666994,
                    "velocity": 0.30708661417322836,
                    "duration": 0.11524733333334325
                },
                {
                    "name": "E3",
                    "midi": 52,
                    "time": 270.0245020000033,
                    "velocity": 0.3858267716535433,
                    "duration": 0.11524733333334325
                },
                {
                    "name": "G3",
                    "midi": 55,
                    "time": 270.1397493333366,
                    "velocity": 0.3228346456692913,
                    "duration": 0.11524733333334325
                },
                {
                    "name": "C4",
                    "midi": 60,
                    "time": 270.25499666666997,
                    "velocity": 0.33070866141732286,
                    "duration": 0.11524733333334325
                },
                {
                    "name": "E3",
                    "midi": 52,
                    "time": 270.3702440000033,
                    "velocity": 0.3937007874015748,
                    "duration": 0.11524733333334325
                },
                {
                    "name": "G3",
                    "midi": 55,
                    "time": 270.48549133333665,
                    "velocity": 0.31496062992125984,
                    "duration": 0.11524733333334325
                },
                {
                    "name": "C4",
                    "midi": 60,
                    "time": 270.60073866667,
                    "velocity": 0.31496062992125984,
                    "duration": 0.11524733333334325
                },
                {
                    "name": "F3",
                    "midi": 53,
                    "time": 270.71598600000334,
                    "velocity": 0.4015748031496063,
                    "duration": 0.11524733333334325
                },
                {
                    "name": "G3",
                    "midi": 55,
                    "time": 270.8312333333367,
                    "velocity": 0.3228346456692913,
                    "duration": 0.11524733333334325
                },
                {
                    "name": "B3",
                    "midi": 59,
                    "time": 270.94648066667,
                    "velocity": 0.33070866141732286,
                    "duration": 0.11524733333334325
                },
                {
                    "name": "E3",
                    "midi": 52,
                    "time": 271.06172800000337,
                    "velocity": 0.4094488188976378,
                    "duration": 0.11524733333334325
                },
                {
                    "name": "G3",
                    "midi": 55,
                    "time": 271.1769753333367,
                    "velocity": 0.3228346456692913,
                    "duration": 0.11524733333334325
                },
                {
                    "name": "C4",
                    "midi": 60,
                    "time": 271.29222266667006,
                    "velocity": 0.33070866141732286,
                    "duration": 0.11524733333334325
                },
                {
                    "name": "E3",
                    "midi": 52,
                    "time": 271.4074700000034,
                    "velocity": 0.4251968503937008,
                    "duration": 0.11524733333334325
                },
                {
                    "name": "G3",
                    "midi": 55,
                    "time": 271.52271733333674,
                    "velocity": 0.3543307086614173,
                    "duration": 0.11524733333334325
                },
                {
                    "name": "C4",
                    "midi": 60,
                    "time": 271.6379646666701,
                    "velocity": 0.36220472440944884,
                    "duration": 0.11524733333334325
                },
                {
                    "name": "B2",
                    "midi": 47,
                    "time": 271.75321200000343,
                    "velocity": 0.48031496062992124,
                    "duration": 0.11524733333334325
                },
                {
                    "name": "D3",
                    "midi": 50,
                    "time": 271.8684593333368,
                    "velocity": 0.4015748031496063,
                    "duration": 0.11524733333334325
                },
                {
                    "name": "G3",
                    "midi": 55,
                    "time": 271.9837066666701,
                    "velocity": 0.4094488188976378,
                    "duration": 0.11524733333334325
                },
                {
                    "name": "B2",
                    "midi": 47,
                    "time": 272.09895400000346,
                    "velocity": 0.4881889763779528,
                    "duration": 0.11524733333334325
                },
                {
                    "name": "D3",
                    "midi": 50,
                    "time": 272.2142013333368,
                    "velocity": 0.4094488188976378,
                    "duration": 0.11524733333334325
                },
                {
                    "name": "G3",
                    "midi": 55,
                    "time": 272.32944866667015,
                    "velocity": 0.4094488188976378,
                    "duration": 0.11524733333334325
                },
                {
                    "name": "C3",
                    "midi": 48,
                    "time": 272.4446960000035,
                    "velocity": 0.5118110236220472,
                    "duration": 0.11524733333334325
                },
                {
                    "name": "E3",
                    "midi": 52,
                    "time": 272.55994333333683,
                    "velocity": 0.4251968503937008,
                    "duration": 0.11524733333334325
                },
                {
                    "name": "G3",
                    "midi": 55,
                    "time": 272.6751906666702,
                    "velocity": 0.4094488188976378,
                    "duration": 0.11524733333334325
                },
                {
                    "name": "C3",
                    "midi": 48,
                    "time": 272.7904380000035,
                    "velocity": 0.5433070866141733,
                    "duration": 0.11524733333334325
                },
                {
                    "name": "E3",
                    "midi": 52,
                    "time": 272.90568533333686,
                    "velocity": 0.4094488188976378,
                    "duration": 0.11524733333334325
                },
                {
                    "name": "G3",
                    "midi": 55,
                    "time": 273.0209326666702,
                    "velocity": 0.4251968503937008,
                    "duration": 0.11524733333334325
                },
                {
                    "name": "D3",
                    "midi": 50,
                    "time": 273.13618000000355,
                    "velocity": 0.5196850393700787,
                    "duration": 0.11524733333334325
                },
                {
                    "name": "F3",
                    "midi": 53,
                    "time": 273.2514273333369,
                    "velocity": 0.4409448818897638,
                    "duration": 0.11524733333334325
                },
                {
                    "name": "B3",
                    "midi": 59,
                    "time": 273.36667466667024,
                    "velocity": 0.4409448818897638,
                    "duration": 0.11524733333334325
                },
                {
                    "name": "D3",
                    "midi": 50,
                    "time": 273.4819220000036,
                    "velocity": 0.5590551181102362,
                    "duration": 0.11524733333334325
                },
                {
                    "name": "F3",
                    "midi": 53,
                    "time": 273.5971693333369,
                    "velocity": 0.4566929133858268,
                    "duration": 0.11524733333334325
                },
                {
                    "name": "B3",
                    "midi": 59,
                    "time": 273.71241666667026,
                    "velocity": 0.4645669291338583,
                    "duration": 0.11524733333334325
                },
                {
                    "name": "E3",
                    "midi": 52,
                    "time": 273.8276640000036,
                    "velocity": 0.5826771653543307,
                    "duration": 0.11524733333334325
                },
                {
                    "name": "G3",
                    "midi": 55,
                    "time": 273.9421910375036,
                    "velocity": 0.47244094488188976,
                    "duration": 0.11524733333334325
                },
                {
                    "name": "C4",
                    "midi": 60,
                    "time": 274.05671807500363,
                    "velocity": 0.48031496062992124,
                    "duration": 0.11524733333334325
                },
                {
                    "name": "E3",
                    "midi": 52,
                    "time": 274.17124511250364,
                    "velocity": 0.5748031496062992,
                    "duration": 0.11524733333334325
                },
                {
                    "name": "G3",
                    "midi": 55,
                    "time": 274.28577215000365,
                    "velocity": 0.4881889763779528,
                    "duration": 0.11524733333334325
                },
                {
                    "name": "C4",
                    "midi": 60,
                    "time": 274.40246007500366,
                    "velocity": 0.4881889763779528,
                    "duration": 0.11524733333334325
                },
                {
                    "name": "E3",
                    "midi": 52,
                    "time": 274.51914800000367,
                    "velocity": 0.5984251968503937,
                    "duration": 0.3457419999999729
                },
                {
                    "name": "F3",
                    "midi": 53,
                    "time": 275.2106320000036,
                    "velocity": 0.5669291338582677,
                    "duration": 0.3457419999999729
                },
                {
                    "name": "F2",
                    "midi": 41,
                    "time": 275.2106320000036,
                    "velocity": 0.5669291338582677,
                    "duration": 0.3457419999999729
                },
                {
                    "name": "G4",
                    "midi": 67,
                    "time": 277.97656800000357,
                    "velocity": 0.33070866141732286,
                    "duration": 1.3829680000000053
                },
                {
                    "name": "E5",
                    "midi": 76,
                    "time": 277.97656800000357,
                    "velocity": 0.33070866141732286,
                    "duration": 0.6914840000000027
                },
                {
                    "name": "F5",
                    "midi": 77,
                    "time": 278.66805200000357,
                    "velocity": 0.33858267716535434,
                    "duration": 0.6914840000000027
                },
                {
                    "name": "E5",
                    "midi": 76,
                    "time": 279.3595360000036,
                    "velocity": 0.31496062992125984,
                    "duration": 0.3457419999999729
                },
                {
                    "name": "C5",
                    "midi": 72,
                    "time": 279.3595360000036,
                    "velocity": 0.31496062992125984,
                    "duration": 0.3457419999999729
                },
                {
                    "name": "C5",
                    "midi": 72,
                    "time": 280.39676200000355,
                    "velocity": 0.28346456692913385,
                    "duration": 0.3457419999999729
                },
                {
                    "name": "D5",
                    "midi": 74,
                    "time": 280.7425040000035,
                    "velocity": 0.2992125984251969,
                    "duration": 0.08643549999999323
                },
                {
                    "name": "B4",
                    "midi": 71,
                    "time": 280.7425040000035,
                    "velocity": 0.2992125984251969,
                    "duration": 0.08643549999999323
                },
                {
                    "name": "A4",
                    "midi": 69,
                    "time": 281.7797300000035,
                    "velocity": 0.28346456692913385,
                    "duration": 0.3457419999999729
                },
                {
                    "name": "B4",
                    "midi": 71,
                    "time": 282.12547200000347,
                    "velocity": 0.2992125984251969,
                    "duration": 0.08643549999999323
                },
                {
                    "name": "G4",
                    "midi": 67,
                    "time": 282.12547200000347,
                    "velocity": 0.2992125984251969,
                    "duration": 0.08643549999999323
                },
                {
                    "name": "F4",
                    "midi": 65,
                    "time": 283.16269800000345,
                    "velocity": 0.28346456692913385,
                    "duration": 0.3457419999999729
                },
                {
                    "name": "G4",
                    "midi": 67,
                    "time": 283.5084400000034,
                    "velocity": 0.2992125984251969,
                    "duration": 0.08643549999999323
                },
                {
                    "name": "E4",
                    "midi": 64,
                    "time": 283.5084400000034,
                    "velocity": 0.2992125984251969,
                    "duration": 0.08643549999999323
                },
                {
                    "name": "C4",
                    "midi": 60,
                    "time": 284.5456660000034,
                    "velocity": 0.28346456692913385,
                    "duration": 0.3457419999999729
                },
                {
                    "name": "E4",
                    "midi": 64,
                    "time": 284.5456660000034,
                    "velocity": 0.28346456692913385,
                    "duration": 0.3457419999999729
                },
                {
                    "name": "F4",
                    "midi": 65,
                    "time": 284.89140800000337,
                    "velocity": 0.3228346456692913,
                    "duration": 0.08643549999999323
                },
                {
                    "name": "F3",
                    "midi": 53,
                    "time": 284.89140800000337,
                    "velocity": 0.3228346456692913,
                    "duration": 0.08643549999999323
                },
                {
                    "name": "G3",
                    "midi": 55,
                    "time": 285.58289200000337,
                    "velocity": 0.2992125984251969,
                    "duration": 0.08643549999999323
                },
                {
                    "name": "D4",
                    "midi": 62,
                    "time": 285.58289200000337,
                    "velocity": 0.2992125984251969,
                    "duration": 0.08643549999999323
                },
                {
                    "name": "E4",
                    "midi": 64,
                    "time": 286.2743760000034,
                    "velocity": 0.3228346456692913,
                    "duration": 0.08643549999999323
                },
                {
                    "name": "C4",
                    "midi": 60,
                    "time": 286.2743760000034,
                    "velocity": 0.3228346456692913,
                    "duration": 0.08643549999999323
                },
                {
                    "name": "C5",
                    "midi": 72,
                    "time": 287.31160200000335,
                    "velocity": 0.5511811023622047,
                    "duration": 0.3457419999999729
                },
                {
                    "name": "B4",
                    "midi": 71,
                    "time": 287.6573440000033,
                    "velocity": 0.3464566929133858,
                    "duration": 0.08643549999999323
                },
                {
                    "name": "B4",
                    "midi": 71,
                    "time": 288.0030860000033,
                    "velocity": 0.2755905511811024,
                    "duration": 0.08643549999999323
                },
                {
                    "name": "B4",
                    "midi": 71,
                    "time": 288.34882800000327,
                    "velocity": 0.2755905511811024,
                    "duration": 0.08643549999999323
                },
                {
                    "name": "C5",
                    "midi": 72,
                    "time": 288.69457000000324,
                    "velocity": 0.5511811023622047,
                    "duration": 0.3457419999999729
                },
                {
                    "name": "B4",
                    "midi": 71,
                    "time": 289.0403120000032,
                    "velocity": 0.3464566929133858,
                    "duration": 0.08643549999999323
                },
                {
                    "name": "B4",
                    "midi": 71,
                    "time": 289.3860540000032,
                    "velocity": 0.25196850393700787,
                    "duration": 0.08643549999999323
                },
                {
                    "name": "B4",
                    "midi": 71,
                    "time": 289.73179600000316,
                    "velocity": 0.25196850393700787,
                    "duration": 0.08643549999999323
                },
                {
                    "name": "A4",
                    "midi": 69,
                    "time": 290.07753800000313,
                    "velocity": 0.49606299212598426,
                    "duration": 0.3457419999999729
                },
                {
                    "name": "G4",
                    "midi": 67,
                    "time": 290.4232800000031,
                    "velocity": 0.30708661417322836,
                    "duration": 0.08643549999999323
                },
                {
                    "name": "G4",
                    "midi": 67,
                    "time": 290.7690220000031,
                    "velocity": 0.23622047244094488,
                    "duration": 0.08643549999999323
                },
                {
                    "name": "G4",
                    "midi": 67,
                    "time": 291.11476400000305,
                    "velocity": 0.23622047244094488,
                    "duration": 0.08643549999999323
                },
                {
                    "name": "A4",
                    "midi": 69,
                    "time": 291.460506000003,
                    "velocity": 0.4566929133858268,
                    "duration": 0.3457419999999729
                },
                {
                    "name": "G4",
                    "midi": 67,
                    "time": 291.806248000003,
                    "velocity": 0.30708661417322836,
                    "duration": 0.08643549999999323
                },
                {
                    "name": "G4",
                    "midi": 67,
                    "time": 292.15199000000297,
                    "velocity": 0.2204724409448819,
                    "duration": 0.08643549999999323
                },
                {
                    "name": "G4",
                    "midi": 67,
                    "time": 292.49773200000294,
                    "velocity": 0.2204724409448819,
                    "duration": 0.08643549999999323
                },
                {
                    "name": "F4",
                    "midi": 65,
                    "time": 292.8434740000029,
                    "velocity": 0.4409448818897638,
                    "duration": 0.3457419999999729
                },
                {
                    "name": "E4",
                    "midi": 64,
                    "time": 293.1892160000029,
                    "velocity": 0.30708661417322836,
                    "duration": 0.08643549999999323
                },
                {
                    "name": "E4",
                    "midi": 64,
                    "time": 293.53495800000286,
                    "velocity": 0.2204724409448819,
                    "duration": 0.08643549999999323
                },
                {
                    "name": "E4",
                    "midi": 64,
                    "time": 293.88070000000283,
                    "velocity": 0.2283464566929134,
                    "duration": 0.08643549999999323
                },
                {
                    "name": "F4",
                    "midi": 65,
                    "time": 294.2264420000028,
                    "velocity": 0.4409448818897638,
                    "duration": 0.3457419999999729
                },
                {
                    "name": "E4",
                    "midi": 64,
                    "time": 294.5721840000028,
                    "velocity": 0.30708661417322836,
                    "duration": 0.08643549999999323
                },
                {
                    "name": "E4",
                    "midi": 64,
                    "time": 294.91792600000275,
                    "velocity": 0.2204724409448819,
                    "duration": 0.08643549999999323
                },
                {
                    "name": "E4",
                    "midi": 64,
                    "time": 295.2636680000027,
                    "velocity": 0.2283464566929134,
                    "duration": 0.08643549999999323
                },
                {
                    "name": "F4",
                    "midi": 65,
                    "time": 295.6094100000027,
                    "velocity": 0.4409448818897638,
                    "duration": 0.3457419999999729
                },
                {
                    "name": "E4",
                    "midi": 64,
                    "time": 295.95515200000267,
                    "velocity": 0.30708661417322836,
                    "duration": 0.08643549999999323
                },
                {
                    "name": "B3",
                    "midi": 59,
                    "time": 296.30089400000264,
                    "velocity": 0.28346456692913385,
                    "duration": 0.08643549999999323
                },
                {
                    "name": "C4",
                    "midi": 60,
                    "time": 296.6466360000026,
                    "velocity": 0.3228346456692913,
                    "duration": 0.08643549999999323
                },
                {
                    "name": "D4",
                    "midi": 62,
                    "time": 296.9923780000026,
                    "velocity": 0.3700787401574803,
                    "duration": 0.08643549999999323
                },
                {
                    "name": "E4",
                    "midi": 64,
                    "time": 297.33812000000256,
                    "velocity": 0.47244094488188976,
                    "duration": 0.3457419999999729
                },
                {
                    "name": "F2",
                    "midi": 41,
                    "time": 298.7210880000025,
                    "velocity": 0.5118110236220472,
                    "duration": 0.6914839999999458
                },
                {
                    "name": "F3",
                    "midi": 53,
                    "time": 299.0668300000025,
                    "velocity": 0.4330708661417323,
                    "duration": 0.3457419999999729
                },
                {
                    "name": "E3",
                    "midi": 52,
                    "time": 299.41257200000246,
                    "velocity": 0.4251968503937008,
                    "duration": 0.3457419999999729
                },
                {
                    "name": "G2",
                    "midi": 43,
                    "time": 299.41257200000246,
                    "velocity": 0.4251968503937008,
                    "duration": 0.6914839999999458
                },
                {
                    "name": "D3",
                    "midi": 50,
                    "time": 299.75831400000243,
                    "velocity": 0.36220472440944884,
                    "duration": 0.3457419999999729
                },
                {
                    "name": "E2",
                    "midi": 40,
                    "time": 300.1040560000024,
                    "velocity": 0.5511811023622047,
                    "duration": 0.6914840000000027
                },
                {
                    "name": "G2",
                    "midi": 43,
                    "time": 300.1040560000024,
                    "velocity": 0.5511811023622047,
                    "duration": 0.6914840000000027
                },
                {
                    "name": "C3",
                    "midi": 48,
                    "time": 300.1040560000024,
                    "velocity": 0.5511811023622047,
                    "duration": 0.6914840000000027
                },
                {
                    "name": "F3",
                    "midi": 53,
                    "time": 301.4870240000024,
                    "velocity": 0.5748031496062992,
                    "duration": 0.6914840000000027
                },
                {
                    "name": "A3",
                    "midi": 57,
                    "time": 301.4870240000024,
                    "velocity": 0.5748031496062992,
                    "duration": 0.6914840000000027
                },
                {
                    "name": "D#4",
                    "midi": 63,
                    "time": 302.1785080000024,
                    "velocity": 0.5748031496062992,
                    "duration": 0.6914840000000027
                },
                {
                    "name": "A3",
                    "midi": 57,
                    "time": 302.1785080000024,
                    "velocity": 0.4881889763779528,
                    "duration": 0.6914840000000027
                },
                {
                    "name": "C4",
                    "midi": 60,
                    "time": 302.1785080000024,
                    "velocity": 0.4881889763779528,
                    "duration": 0.6914840000000027
                },
                {
                    "name": "F#3",
                    "midi": 54,
                    "time": 302.1785080000024,
                    "velocity": 0.4881889763779528,
                    "duration": 0.6914840000000027
                },
                {
                    "name": "G3",
                    "midi": 55,
                    "time": 302.8699920000024,
                    "velocity": 0.33070866141732286,
                    "duration": 0.11524733333334325
                },
                {
                    "name": "C4",
                    "midi": 60,
                    "time": 302.98523933333576,
                    "velocity": 0.25196850393700787,
                    "duration": 0.11524733333334325
                },
                {
                    "name": "E4",
                    "midi": 64,
                    "time": 303.1004866666691,
                    "velocity": 0.25196850393700787,
                    "duration": 0.11524733333334325
                },
                {
                    "name": "G3",
                    "midi": 55,
                    "time": 303.21573400000244,
                    "velocity": 0.33070866141732286,
                    "duration": 0.11524733333334325
                },
                {
                    "name": "C4",
                    "midi": 60,
                    "time": 303.3309813333358,
                    "velocity": 0.2677165354330709,
                    "duration": 0.11524733333334325
                },
                {
                    "name": "E4",
                    "midi": 64,
                    "time": 303.4462286666691,
                    "velocity": 0.2677165354330709,
                    "duration": 0.11524733333334325
                },
                {
                    "name": "G3",
                    "midi": 55,
                    "time": 303.5614760000025,
                    "velocity": 0.33070866141732286,
                    "duration": 0.11524733333334325
                },
                {
                    "name": "C4",
                    "midi": 60,
                    "time": 303.6767233333358,
                    "velocity": 0.25984251968503935,
                    "duration": 0.11524733333334325
                },
                {
                    "name": "E4",
                    "midi": 64,
                    "time": 303.79197066666916,
                    "velocity": 0.25984251968503935,
                    "duration": 0.11524733333334325
                },
                {
                    "name": "G3",
                    "midi": 55,
                    "time": 303.9072180000025,
                    "velocity": 0.3543307086614173,
                    "duration": 0.11524733333334325
                },
                {
                    "name": "C4",
                    "midi": 60,
                    "time": 304.02246533333584,
                    "velocity": 0.2677165354330709,
                    "duration": 0.11524733333334325
                },
                {
                    "name": "E4",
                    "midi": 64,
                    "time": 304.1377126666692,
                    "velocity": 0.2677165354330709,
                    "duration": 0.11524733333334325
                },
                {
                    "name": "G3",
                    "midi": 55,
                    "time": 304.25296000000253,
                    "velocity": 0.3700787401574803,
                    "duration": 0.11524733333334325
                },
                {
                    "name": "C4",
                    "midi": 60,
                    "time": 304.3682073333359,
                    "velocity": 0.2677165354330709,
                    "duration": 0.11524733333334325
                },
                {
                    "name": "E4",
                    "midi": 64,
                    "time": 304.4834546666692,
                    "velocity": 0.2677165354330709,
                    "duration": 0.11524733333334325
                },
                {
                    "name": "G3",
                    "midi": 55,
                    "time": 304.59870200000256,
                    "velocity": 0.3700787401574803,
                    "duration": 0.11524733333334325
                },
                {
                    "name": "C4",
                    "midi": 60,
                    "time": 304.7139493333359,
                    "velocity": 0.28346456692913385,
                    "duration": 0.11524733333334325
                },
                {
                    "name": "E4",
                    "midi": 64,
                    "time": 304.82919666666925,
                    "velocity": 0.28346456692913385,
                    "duration": 0.11524733333334325
                },
                {
                    "name": "G3",
                    "midi": 55,
                    "time": 304.9444440000026,
                    "velocity": 0.3937007874015748,
                    "duration": 0.11524733333334325
                },
                {
                    "name": "C4",
                    "midi": 60,
                    "time": 305.05969133333593,
                    "velocity": 0.28346456692913385,
                    "duration": 0.11524733333334325
                },
                {
                    "name": "E4",
                    "midi": 64,
                    "time": 305.1749386666693,
                    "velocity": 0.28346456692913385,
                    "duration": 0.11524733333334325
                },
                {
                    "name": "G3",
                    "midi": 55,
                    "time": 305.2901860000026,
                    "velocity": 0.5433070866141733,
                    "duration": 0.11524733333334325
                },
                {
                    "name": "C4",
                    "midi": 60,
                    "time": 305.40543333333596,
                    "velocity": 0.4409448818897638,
                    "duration": 0.11524733333334325
                },
                {
                    "name": "E4",
                    "midi": 64,
                    "time": 305.5206806666693,
                    "velocity": 0.4409448818897638,
                    "duration": 0.11524733333334325
                },
                {
                    "name": "G3",
                    "midi": 55,
                    "time": 305.63592800000265,
                    "velocity": 0.3700787401574803,
                    "duration": 0.11524733333334325
                },
                {
                    "name": "C4",
                    "midi": 60,
                    "time": 305.751175333336,
                    "velocity": 0.2677165354330709,
                    "duration": 0.11524733333334325
                },
                {
                    "name": "E4",
                    "midi": 64,
                    "time": 305.86642266666934,
                    "velocity": 0.2677165354330709,
                    "duration": 0.11524733333334325
                },
                {
                    "name": "G3",
                    "midi": 55,
                    "time": 305.9816700000027,
                    "velocity": 0.3700787401574803,
                    "duration": 0.11524733333334325
                },
                {
                    "name": "C4",
                    "midi": 60,
                    "time": 306.096917333336,
                    "velocity": 0.29133858267716534,
                    "duration": 0.11524733333334325
                },
                {
                    "name": "E4",
                    "midi": 64,
                    "time": 306.21216466666937,
                    "velocity": 0.29133858267716534,
                    "duration": 0.11524733333334325
                },
                {
                    "name": "G3",
                    "midi": 55,
                    "time": 306.3274120000027,
                    "velocity": 0.3700787401574803,
                    "duration": 0.11524733333334325
                },
                {
                    "name": "C4",
                    "midi": 60,
                    "time": 306.44265933333605,
                    "velocity": 0.29133858267716534,
                    "duration": 0.11524733333334325
                },
                {
                    "name": "E4",
                    "midi": 64,
                    "time": 306.5579066666694,
                    "velocity": 0.2992125984251969,
                    "duration": 0.11524733333334325
                },
                {
                    "name": "G3",
                    "midi": 55,
                    "time": 306.67315400000274,
                    "velocity": 0.3700787401574803,
                    "duration": 0.11524733333334325
                },
                {
                    "name": "C4",
                    "midi": 60,
                    "time": 306.7884013333361,
                    "velocity": 0.29133858267716534,
                    "duration": 0.11524733333334325
                },
                {
                    "name": "E4",
                    "midi": 64,
                    "time": 306.9036486666694,
                    "velocity": 0.29133858267716534,
                    "duration": 0.11524733333334325
                },
                {
                    "name": "G3",
                    "midi": 55,
                    "time": 307.01889600000277,
                    "velocity": 0.3700787401574803,
                    "duration": 0.11524733333334325
                },
                {
                    "name": "D4",
                    "midi": 62,
                    "time": 307.1341433333361,
                    "velocity": 0.2755905511811024,
                    "duration": 0.11524733333334325
                },
                {
                    "name": "F4",
                    "midi": 65,
                    "time": 307.24939066666946,
                    "velocity": 0.2992125984251969,
                    "duration": 0.11524733333334325
                },
                {
                    "name": "G3",
                    "midi": 55,
                    "time": 307.3646380000028,
                    "velocity": 0.3700787401574803,
                    "duration": 0.11524733333334325
                },
                {
                    "name": "D4",
                    "midi": 62,
                    "time": 307.47988533333614,
                    "velocity": 0.2992125984251969,
                    "duration": 0.11524733333334325
                },
                {
                    "name": "F4",
                    "midi": 65,
                    "time": 307.5951326666695,
                    "velocity": 0.2992125984251969,
                    "duration": 0.11524733333334325
                },
                {
                    "name": "G3",
                    "midi": 55,
                    "time": 307.71038000000283,
                    "velocity": 0.3700787401574803,
                    "duration": 0.11524733333334325
                },
                {
                    "name": "C4",
                    "midi": 60,
                    "time": 307.8256273333362,
                    "velocity": 0.30708661417322836,
                    "duration": 0.11524733333334325
                },
                {
                    "name": "E4",
                    "midi": 64,
                    "time": 307.9408746666695,
                    "velocity": 0.33070866141732286,
                    "duration": 0.11524733333334325
                },
                {
                    "name": "G3",
                    "midi": 55,
                    "time": 308.05612200000286,
                    "velocity": 0.3700787401574803,
                    "duration": 0.11524733333334325
                },
                {
                    "name": "C4",
                    "midi": 60,
                    "time": 308.1713693333362,
                    "velocity": 0.30708661417322836,
                    "duration": 0.11524733333334325
                },
                {
                    "name": "E4",
                    "midi": 64,
                    "time": 308.28661666666954,
                    "velocity": 0.30708661417322836,
                    "duration": 0.11524733333334325
                },
                {
                    "name": "G3",
                    "midi": 55,
                    "time": 308.4018640000029,
                    "velocity": 0.3700787401574803,
                    "duration": 0.11524733333334325
                },
                {
                    "name": "B3",
                    "midi": 59,
                    "time": 308.51711133333623,
                    "velocity": 0.2755905511811024,
                    "duration": 0.11524733333334325
                },
                {
                    "name": "D4",
                    "midi": 62,
                    "time": 308.6323586666696,
                    "velocity": 0.2992125984251969,
                    "duration": 0.11524733333334325
                },
                {
                    "name": "G3",
                    "midi": 55,
                    "time": 308.7476060000029,
                    "velocity": 0.3700787401574803,
                    "duration": 0.11524733333334325
                },
                {
                    "name": "B3",
                    "midi": 59,
                    "time": 308.86285333333626,
                    "velocity": 0.2992125984251969,
                    "duration": 0.11524733333334325
                },
                {
                    "name": "D4",
                    "midi": 62,
                    "time": 308.9781006666696,
                    "velocity": 0.2992125984251969,
                    "duration": 0.11524733333334325
                },
                {
                    "name": "G3",
                    "midi": 55,
                    "time": 309.09334800000295,
                    "velocity": 0.3700787401574803,
                    "duration": 0.11524733333334325
                },
                {
                    "name": "B3",
                    "midi": 59,
                    "time": 309.2085953333363,
                    "velocity": 0.30708661417322836,
                    "duration": 0.11524733333334325
                },
                {
                    "name": "D4",
                    "midi": 62,
                    "time": 309.32384266666963,
                    "velocity": 0.33070866141732286,
                    "duration": 0.11524733333334325
                },
                {
                    "name": "G3",
                    "midi": 55,
                    "time": 309.439090000003,
                    "velocity": 0.3700787401574803,
                    "duration": 0.11524733333334325
                },
                {
                    "name": "B3",
                    "midi": 59,
                    "time": 309.5543373333363,
                    "velocity": 0.30708661417322836,
                    "duration": 0.11524733333334325
                },
                {
                    "name": "D4",
                    "midi": 62,
                    "time": 309.66958466666966,
                    "velocity": 0.30708661417322836,
                    "duration": 0.11524733333334325
                },
                {
                    "name": "G3",
                    "midi": 55,
                    "time": 309.784832000003,
                    "velocity": 0.3700787401574803,
                    "duration": 0.11524733333334325
                },
                {
                    "name": "B3",
                    "midi": 59,
                    "time": 309.90007933333635,
                    "velocity": 0.28346456692913385,
                    "duration": 0.11524733333334325
                },
                {
                    "name": "D4",
                    "midi": 62,
                    "time": 310.0153266666697,
                    "velocity": 0.2992125984251969,
                    "duration": 0.11524733333334325
                },
                {
                    "name": "G3",
                    "midi": 55,
                    "time": 310.13057400000304,
                    "velocity": 0.4251968503937008,
                    "duration": 0.11524733333334325
                },
                {
                    "name": "B3",
                    "midi": 59,
                    "time": 310.2458213333364,
                    "velocity": 0.3228346456692913,
                    "duration": 0.11524733333334325
                },
                {
                    "name": "D4",
                    "midi": 62,
                    "time": 310.3610686666697,
                    "velocity": 0.3228346456692913,
                    "duration": 0.11524733333334325
                },
                {
                    "name": "G3",
                    "midi": 55,
                    "time": 310.47631600000307,
                    "velocity": 0.4015748031496063,
                    "duration": 0.11524733333334325
                },
                {
                    "name": "C4",
                    "midi": 60,
                    "time": 310.5915633333364,
                    "velocity": 0.30708661417322836,
                    "duration": 0.11524733333334325
                },
                {
                    "name": "E4",
                    "midi": 64,
                    "time": 310.70681066666975,
                    "velocity": 0.31496062992125984,
                    "duration": 0.11524733333334325
                },
                {
                    "name": "G3",
                    "midi": 55,
                    "time": 310.8220580000031,
                    "velocity": 0.3700787401574803,
                    "duration": 0.11524733333334325
                },
                {
                    "name": "C4",
                    "midi": 60,
                    "time": 310.93730533333644,
                    "velocity": 0.30708661417322836,
                    "duration": 0.11524733333334325
                },
                {
                    "name": "E4",
                    "midi": 64,
                    "time": 311.0525526666698,
                    "velocity": 0.30708661417322836,
                    "duration": 0.11524733333334325
                },
                {
                    "name": "G3",
                    "midi": 55,
                    "time": 311.1678000000031,
                    "velocity": 0.3700787401574803,
                    "duration": 0.11524733333334325
                },
                {
                    "name": "D4",
                    "midi": 62,
                    "time": 311.28304733333647,
                    "velocity": 0.30708661417322836,
                    "duration": 0.11524733333334325
                },
                {
                    "name": "F4",
                    "midi": 65,
                    "time": 311.3982946666698,
                    "velocity": 0.30708661417322836,
                    "duration": 0.11524733333334325
                },
                {
                    "name": "G3",
                    "midi": 55,
                    "time": 311.51354200000316,
                    "velocity": 0.41732283464566927,
                    "duration": 0.11524733333334325
                },
                {
                    "name": "D4",
                    "midi": 62,
                    "time": 311.6287893333365,
                    "velocity": 0.31496062992125984,
                    "duration": 0.11524733333334325
                },
                {
                    "name": "F4",
                    "midi": 65,
                    "time": 311.74403666666984,
                    "velocity": 0.29133858267716534,
                    "duration": 0.11524733333334325
                },
                {
                    "name": "A3",
                    "midi": 57,
                    "time": 311.8592840000032,
                    "velocity": 0.4015748031496063,
                    "duration": 0.11524733333334325
                },
                {
                    "name": "C4",
                    "midi": 60,
                    "time": 311.97453133333653,
                    "velocity": 0.30708661417322836,
                    "duration": 0.11524733333334325
                },
                {
                    "name": "E4",
                    "midi": 64,
                    "time": 312.0897786666699,
                    "velocity": 0.30708661417322836,
                    "duration": 0.11524733333334325
                },
                {
                    "name": "A3",
                    "midi": 57,
                    "time": 312.2050260000032,
                    "velocity": 0.3700787401574803,
                    "duration": 0.11524733333334325
                },
                {
                    "name": "C4",
                    "midi": 60,
                    "time": 312.32027333333656,
                    "velocity": 0.2992125984251969,
                    "duration": 0.11524733333334325
                },
                {
                    "name": "E4",
                    "midi": 64,
                    "time": 312.4355206666699,
                    "velocity": 0.2992125984251969,
                    "duration": 0.11524733333334325
                },
                {
                    "name": "F3",
                    "midi": 53,
                    "time": 312.55076800000325,
                    "velocity": 0.3700787401574803,
                    "duration": 0.11524733333334325
                },
                {
                    "name": "A3",
                    "midi": 57,
                    "time": 312.6660153333366,
                    "velocity": 0.2992125984251969,
                    "duration": 0.11524733333334325
                },
                {
                    "name": "D4",
                    "midi": 62,
                    "time": 312.78126266666993,
                    "velocity": 0.30708661417322836,
                    "duration": 0.11524733333334325
                },
                {
                    "name": "F3",
                    "midi": 53,
                    "time": 312.8965100000033,
                    "velocity": 0.3700787401574803,
                    "duration": 0.11524733333334325
                },
                {
                    "name": "A3",
                    "midi": 57,
                    "time": 313.0117573333366,
                    "velocity": 0.30708661417322836,
                    "duration": 0.11524733333334325
                },
                {
                    "name": "D4",
                    "midi": 62,
                    "time": 313.12700466666996,
                    "velocity": 0.30708661417322836,
                    "duration": 0.11524733333334325
                },
                {
                    "name": "G3",
                    "midi": 55,
                    "time": 313.2422520000033,
                    "velocity": 0.3700787401574803,
                    "duration": 0.11524733333334325
                },
                {
                    "name": "D4",
                    "midi": 62,
                    "time": 313.35749933333665,
                    "velocity": 0.28346456692913385,
                    "duration": 0.11524733333334325
                },
                {
                    "name": "F4",
                    "midi": 65,
                    "time": 313.47274666667,
                    "velocity": 0.28346456692913385,
                    "duration": 0.11524733333334325
                },
                {
                    "name": "G3",
                    "midi": 55,
                    "time": 313.58799400000333,
                    "velocity": 0.3700787401574803,
                    "duration": 0.11524733333334325
                },
                {
                    "name": "D4",
                    "midi": 62,
                    "time": 313.7032413333367,
                    "velocity": 0.29133858267716534,
                    "duration": 0.11524733333334325
                },
                {
                    "name": "F4",
                    "midi": 65,
                    "time": 313.81848866667,
                    "velocity": 0.2992125984251969,
                    "duration": 0.11524733333334325
                },
                {
                    "name": "C4",
                    "midi": 60,
                    "time": 313.93373600000336,
                    "velocity": 0.5511811023622047,
                    "duration": 0.11524733333334325
                },
                {
                    "name": "E4",
                    "midi": 64,
                    "time": 314.0489833333367,
                    "velocity": 0.4094488188976378,
                    "duration": 0.11524733333334325
                },
                {
                    "name": "G4",
                    "midi": 67,
                    "time": 314.16423066667005,
                    "velocity": 0.4015748031496063,
                    "duration": 0.11524733333334325
                },
                {
                    "name": "C4",
                    "midi": 60,
                    "time": 314.2794780000034,
                    "velocity": 0.5118110236220472,
                    "duration": 0.11524733333334325
                },
                {
                    "name": "E4",
                    "midi": 64,
                    "time": 314.39472533333674,
                    "velocity": 0.4015748031496063,
                    "duration": 0.11524733333334325
                },
                {
                    "name": "G4",
                    "midi": 67,
                    "time": 314.5099726666701,
                    "velocity": 0.4015748031496063,
                    "duration": 0.11524733333334325
                },
                {
                    "name": "C4",
                    "midi": 60,
                    "time": 314.6252200000034,
                    "velocity": 0.5354330708661418,
                    "duration": 0.11524733333334325
                },
                {
                    "name": "E4",
                    "midi": 64,
                    "time": 314.74046733333677,
                    "velocity": 0.4330708661417323,
                    "duration": 0.11524733333334325
                },
                {
                    "name": "G4",
                    "midi": 67,
                    "time": 314.8557146666701,
                    "velocity": 0.4330708661417323,
                    "duration": 0.11524733333334325
                },
                {
                    "name": "G3",
                    "midi": 55,
                    "time": 314.97096200000345,
                    "velocity": 0.5433070866141733,
                    "duration": 0.11524733333334325
                },
                {
                    "name": "B3",
                    "midi": 59,
                    "time": 315.0862093333368,
                    "velocity": 0.44881889763779526,
                    "duration": 0.11524733333334325
                },
                {
                    "name": "G4",
                    "midi": 67,
                    "time": 315.20145666667014,
                    "velocity": 0.4566929133858268,
                    "duration": 0.11524733333334325
                },
                {
                    "name": "C4",
                    "midi": 60,
                    "time": 315.3167040000035,
                    "velocity": 0.6220472440944882,
                    "duration": 0.11524733333334325
                },
                {
                    "name": "E4",
                    "midi": 64,
                    "time": 315.4319513333368,
                    "velocity": 0.4645669291338583,
                    "duration": 0.11524733333334325
                },
                {
                    "name": "G4",
                    "midi": 67,
                    "time": 315.54719866667017,
                    "velocity": 0.4645669291338583,
                    "duration": 0.11524733333334325
                },
                {
                    "name": "C4",
                    "midi": 60,
                    "time": 315.6624460000035,
                    "velocity": 0.5196850393700787,
                    "duration": 0.11524733333334325
                },
                {
                    "name": "E4",
                    "midi": 64,
                    "time": 315.77769333333686,
                    "velocity": 0.4330708661417323,
                    "duration": 0.11524733333334325
                },
                {
                    "name": "G4",
                    "midi": 67,
                    "time": 315.8929406666702,
                    "velocity": 0.4330708661417323,
                    "duration": 0.11524733333334325
                },
                {
                    "name": "C4",
                    "midi": 60,
                    "time": 316.00818800000354,
                    "velocity": 0.5275590551181102,
                    "duration": 0.11524733333334325
                },
                {
                    "name": "E4",
                    "midi": 64,
                    "time": 316.1234353333369,
                    "velocity": 0.4330708661417323,
                    "duration": 0.11524733333334325
                },
                {
                    "name": "G4",
                    "midi": 67,
                    "time": 316.23868266667023,
                    "velocity": 0.4251968503937008,
                    "duration": 0.11524733333334325
                },
                {
                    "name": "G3",
                    "midi": 55,
                    "time": 316.3539300000036,
                    "velocity": 0.5511811023622047,
                    "duration": 0.11524733333334325
                },
                {
                    "name": "B3",
                    "midi": 59,
                    "time": 316.4691773333369,
                    "velocity": 0.4566929133858268,
                    "duration": 0.11524733333334325
                },
                {
                    "name": "G4",
                    "midi": 67,
                    "time": 316.58442466667026,
                    "velocity": 0.4409448818897638,
                    "duration": 0.11524733333334325
                },
                {
                    "name": "C4",
                    "midi": 60,
                    "time": 316.6996720000036,
                    "velocity": 0.6220472440944882,
                    "duration": 0.11524733333334325
                },
                {
                    "name": "E4",
                    "midi": 64,
                    "time": 316.81491933333695,
                    "velocity": 0.47244094488188976,
                    "duration": 0.11524733333334325
                },
                {
                    "name": "G4",
                    "midi": 67,
                    "time": 316.9301666666703,
                    "velocity": 0.4566929133858268,
                    "duration": 0.11524733333334325
                },
                {
                    "name": "C4",
                    "midi": 60,
                    "time": 317.04541400000363,
                    "velocity": 0.5826771653543307,
                    "duration": 0.11524733333334325
                },
                {
                    "name": "E4",
                    "midi": 64,
                    "time": 317.160661333337,
                    "velocity": 0.4645669291338583,
                    "duration": 0.11524733333334325
                },
                {
                    "name": "G4",
                    "midi": 67,
                    "time": 317.2759086666703,
                    "velocity": 0.47244094488188976,
                    "duration": 0.11524733333334325
                },
                {
                    "name": "C4",
                    "midi": 60,
                    "time": 317.39115600000366,
                    "velocity": 0.5590551181102362,
                    "duration": 0.11524733333334325
                },
                {
                    "name": "E4",
                    "midi": 64,
                    "time": 317.506403333337,
                    "velocity": 0.4645669291338583,
                    "duration": 0.11524733333334325
                },
                {
                    "name": "G4",
                    "midi": 67,
                    "time": 317.62165066667035,
                    "velocity": 0.4645669291338583,
                    "duration": 0.11524733333334325
                },
                {
                    "name": "G3",
                    "midi": 55,
                    "time": 317.7368980000037,
                    "velocity": 0.5905511811023622,
                    "duration": 0.11524733333334325
                },
                {
                    "name": "B3",
                    "midi": 59,
                    "time": 317.85214533333703,
                    "velocity": 0.47244094488188976,
                    "duration": 0.11524733333334325
                },
                {
                    "name": "G4",
                    "midi": 67,
                    "time": 317.9673926666704,
                    "velocity": 0.47244094488188976,
                    "duration": 0.11524733333334325
                },
                {
                    "name": "C4",
                    "midi": 60,
                    "time": 318.0826400000037,
                    "velocity": 0.5826771653543307,
                    "duration": 0.11524733333334325
                },
                {
                    "name": "E4",
                    "midi": 64,
                    "time": 318.19788733333706,
                    "velocity": 0.4330708661417323,
                    "duration": 0.11524733333334325
                },
                {
                    "name": "G4",
                    "midi": 67,
                    "time": 318.3131346666704,
                    "velocity": 0.4330708661417323,
                    "duration": 0.11524733333334325
                },
                {
                    "name": "C4",
                    "midi": 60,
                    "time": 318.42838200000375,
                    "velocity": 0.5826771653543307,
                    "duration": 0.11524733333334325
                },
                {
                    "name": "E4",
                    "midi": 64,
                    "time": 318.5436293333371,
                    "velocity": 0.44881889763779526,
                    "duration": 0.11524733333334325
                },
                {
                    "name": "G4",
                    "midi": 67,
                    "time": 318.65887666667044,
                    "velocity": 0.44881889763779526,
                    "duration": 0.11524733333334325
                },
                {
                    "name": "C4",
                    "midi": 60,
                    "time": 318.7741240000038,
                    "velocity": 0.5826771653543307,
                    "duration": 0.11524733333334325
                },
                {
                    "name": "E4",
                    "midi": 64,
                    "time": 318.8893713333371,
                    "velocity": 0.44881889763779526,
                    "duration": 0.11524733333334325
                },
                {
                    "name": "G4",
                    "midi": 67,
                    "time": 319.00461866667047,
                    "velocity": 0.44881889763779526,
                    "duration": 0.11524733333334325
                },
                {
                    "name": "G3",
                    "midi": 55,
                    "time": 319.1198660000038,
                    "velocity": 0.5826771653543307,
                    "duration": 0.11524733333334325
                },
                {
                    "name": "B3",
                    "midi": 59,
                    "time": 319.23511333333715,
                    "velocity": 0.4881889763779528,
                    "duration": 0.11524733333334325
                },
                {
                    "name": "G4",
                    "midi": 67,
                    "time": 319.3503606666705,
                    "velocity": 0.4881889763779528,
                    "duration": 0.11524733333334325
                },
                {
                    "name": "C4",
                    "midi": 60,
                    "time": 319.46560800000384,
                    "velocity": 0.5511811023622047,
                    "duration": 0.11524733333334325
                },
                {
                    "name": "E4",
                    "midi": 64,
                    "time": 319.5808553333372,
                    "velocity": 0.3228346456692913,
                    "duration": 0.11524733333334325
                },
                {
                    "name": "G4",
                    "midi": 67,
                    "time": 319.6961026666705,
                    "velocity": 0.3228346456692913,
                    "duration": 0.11524733333334325
                },
                {
                    "name": "C4",
                    "midi": 60,
                    "time": 319.81135000000387,
                    "velocity": 0.3858267716535433,
                    "duration": 0.11524733333334325
                },
                {
                    "name": "E4",
                    "midi": 64,
                    "time": 319.9265973333372,
                    "velocity": 0.29133858267716534,
                    "duration": 0.11524733333334325
                },
                {
                    "name": "G4",
                    "midi": 67,
                    "time": 320.04184466667056,
                    "velocity": 0.28346456692913385,
                    "duration": 0.11524733333334325
                },
                {
                    "name": "C4",
                    "midi": 60,
                    "time": 320.1570920000039,
                    "velocity": 0.3543307086614173,
                    "duration": 0.11524733333334325
                },
                {
                    "name": "E4",
                    "midi": 64,
                    "time": 320.27233933333724,
                    "velocity": 0.2677165354330709,
                    "duration": 0.11524733333334325
                },
                {
                    "name": "G4",
                    "midi": 67,
                    "time": 320.3875866666706,
                    "velocity": 0.2677165354330709,
                    "duration": 0.11524733333334325
                },
                {
                    "name": "G3",
                    "midi": 55,
                    "time": 320.50283400000393,
                    "velocity": 0.3228346456692913,
                    "duration": 0.11524733333334325
                },
                {
                    "name": "B3",
                    "midi": 59,
                    "time": 320.6180813333373,
                    "velocity": 0.2677165354330709,
                    "duration": 0.11524733333334325
                },
                {
                    "name": "G4",
                    "midi": 67,
                    "time": 320.7333286666706,
                    "velocity": 0.2677165354330709,
                    "duration": 0.11524733333334325
                },
                {
                    "name": "C4",
                    "midi": 60,
                    "time": 320.84857600000396,
                    "velocity": 0.3700787401574803,
                    "duration": 0.11524733333334325
                },
                {
                    "name": "E4",
                    "midi": 64,
                    "time": 320.9638233333373,
                    "velocity": 0.2755905511811024,
                    "duration": 0.11524733333334325
                },
                {
                    "name": "G4",
                    "midi": 67,
                    "time": 321.07907066667065,
                    "velocity": 0.2755905511811024,
                    "duration": 0.11524733333334325
                },
                {
                    "name": "C4",
                    "midi": 60,
                    "time": 321.194318000004,
                    "velocity": 0.30708661417322836,
                    "duration": 0.11524733333334325
                },
                {
                    "name": "E4",
                    "midi": 64,
                    "time": 321.30956533333733,
                    "velocity": 0.25984251968503935,
                    "duration": 0.11524733333334325
                },
                {
                    "name": "G4",
                    "midi": 67,
                    "time": 321.4248126666707,
                    "velocity": 0.25984251968503935,
                    "duration": 0.11524733333334325
                },
                {
                    "name": "C4",
                    "midi": 60,
                    "time": 321.540060000004,
                    "velocity": 0.31496062992125984,
                    "duration": 0.11524733333334325
                },
                {
                    "name": "E4",
                    "midi": 64,
                    "time": 321.65530733333736,
                    "velocity": 0.25984251968503935,
                    "duration": 0.11524733333334325
                },
                {
                    "name": "G4",
                    "midi": 67,
                    "time": 321.7705546666707,
                    "velocity": 0.25984251968503935,
                    "duration": 0.11524733333334325
                },
                {
                    "name": "G3",
                    "midi": 55,
                    "time": 321.88580200000405,
                    "velocity": 0.33070866141732286,
                    "duration": 0.11524733333334325
                },
                {
                    "name": "B3",
                    "midi": 59,
                    "time": 322.0010493333374,
                    "velocity": 0.2677165354330709,
                    "duration": 0.11524733333334325
                },
                {
                    "name": "G4",
                    "midi": 67,
                    "time": 322.11629666667073,
                    "velocity": 0.2677165354330709,
                    "duration": 0.11524733333334325
                },
                {
                    "name": "C4",
                    "midi": 60,
                    "time": 322.2315440000041,
                    "velocity": 0.3700787401574803,
                    "duration": 0.11524733333334325
                },
                {
                    "name": "E4",
                    "midi": 64,
                    "time": 322.3467913333374,
                    "velocity": 0.28346456692913385,
                    "duration": 0.11524733333334325
                },
                {
                    "name": "G4",
                    "midi": 67,
                    "time": 322.46203866667076,
                    "velocity": 0.2677165354330709,
                    "duration": 0.11524733333334325
                },
                {
                    "name": "C4",
                    "midi": 60,
                    "time": 322.5772860000041,
                    "velocity": 0.3464566929133858,
                    "duration": 0.11524733333334325
                },
                {
                    "name": "E4",
                    "midi": 64,
                    "time": 322.69253333333745,
                    "velocity": 0.2755905511811024,
                    "duration": 0.11524733333334325
                },
                {
                    "name": "G4",
                    "midi": 67,
                    "time": 322.8077806666708,
                    "velocity": 0.28346456692913385,
                    "duration": 0.11524733333334325
                },
                {
                    "name": "C4",
                    "midi": 60,
                    "time": 322.92302800000414,
                    "velocity": 0.33070866141732286,
                    "duration": 0.11524733333334325
                },
                {
                    "name": "E4",
                    "midi": 64,
                    "time": 323.0382753333375,
                    "velocity": 0.2755905511811024,
                    "duration": 0.11524733333334325
                },
                {
                    "name": "G4",
                    "midi": 67,
                    "time": 323.1535226666708,
                    "velocity": 0.2755905511811024,
                    "duration": 0.11524733333334325
                },
                {
                    "name": "G3",
                    "midi": 55,
                    "time": 323.26877000000417,
                    "velocity": 0.3543307086614173,
                    "duration": 0.11524733333334325
                },
                {
                    "name": "B3",
                    "midi": 59,
                    "time": 323.3840173333375,
                    "velocity": 0.28346456692913385,
                    "duration": 0.11524733333334325
                },
                {
                    "name": "G4",
                    "midi": 67,
                    "time": 323.49926466667085,
                    "velocity": 0.28346456692913385,
                    "duration": 0.11524733333334325
                },
                {
                    "name": "C4",
                    "midi": 60,
                    "time": 323.6145120000042,
                    "velocity": 0.3464566929133858,
                    "duration": 0.11524733333334325
                },
                {
                    "name": "E4",
                    "midi": 64,
                    "time": 323.72975933333754,
                    "velocity": 0.25984251968503935,
                    "duration": 0.11524733333334325
                },
                {
                    "name": "G4",
                    "midi": 67,
                    "time": 323.8450066666709,
                    "velocity": 0.25984251968503935,
                    "duration": 0.11524733333334325
                },
                {
                    "name": "C4",
                    "midi": 60,
                    "time": 323.9602540000042,
                    "velocity": 0.3464566929133858,
                    "duration": 0.11524733333334325
                },
                {
                    "name": "E4",
                    "midi": 64,
                    "time": 324.07550133333757,
                    "velocity": 0.2677165354330709,
                    "duration": 0.11524733333334325
                },
                {
                    "name": "G4",
                    "midi": 67,
                    "time": 324.1907486666709,
                    "velocity": 0.2677165354330709,
                    "duration": 0.11524733333334325
                },
                {
                    "name": "C4",
                    "midi": 60,
                    "time": 324.30599600000426,
                    "velocity": 0.3464566929133858,
                    "duration": 0.11524733333334325
                },
                {
                    "name": "E4",
                    "midi": 64,
                    "time": 324.4212433333376,
                    "velocity": 0.2677165354330709,
                    "duration": 0.11524733333334325
                },
                {
                    "name": "G4",
                    "midi": 67,
                    "time": 324.53649066667094,
                    "velocity": 0.2677165354330709,
                    "duration": 0.11524733333334325
                },
                {
                    "name": "G3",
                    "midi": 55,
                    "time": 324.6517380000043,
                    "velocity": 0.3464566929133858,
                    "duration": 0.11524733333334325
                },
                {
                    "name": "B3",
                    "midi": 59,
                    "time": 324.76698533333763,
                    "velocity": 0.29133858267716534,
                    "duration": 0.11524733333334325
                },
                {
                    "name": "G4",
                    "midi": 67,
                    "time": 324.882232666671,
                    "velocity": 0.29133858267716534,
                    "duration": 0.11524733333334325
                },
                {
                    "name": "C4",
                    "midi": 60,
                    "time": 324.9974800000043,
                    "velocity": 0.4881889763779528,
                    "duration": 0.11524733333334325
                },
                {
                    "name": "E4",
                    "midi": 64,
                    "time": 325.11272733333766,
                    "velocity": 0.3464566929133858,
                    "duration": 0.11524733333334325
                },
                {
                    "name": "G4",
                    "midi": 67,
                    "time": 325.227974666671,
                    "velocity": 0.3700787401574803,
                    "duration": 0.11524733333334325
                },
                {
                    "name": "C4",
                    "midi": 60,
                    "time": 325.34322200000435,
                    "velocity": 0.5118110236220472,
                    "duration": 0.11524733333334325
                },
                {
                    "name": "E4",
                    "midi": 64,
                    "time": 325.4584693333377,
                    "velocity": 0.3937007874015748,
                    "duration": 0.11524733333334325
                },
                {
                    "name": "G4",
                    "midi": 67,
                    "time": 325.57371666667103,
                    "velocity": 0.4251968503937008,
                    "duration": 0.11524733333334325
                },
                {
                    "name": "C4",
                    "midi": 60,
                    "time": 325.6889640000044,
                    "velocity": 0.5433070866141733,
                    "duration": 0.11524733333334325
                },
                {
                    "name": "E4",
                    "midi": 64,
                    "time": 325.8042113333377,
                    "velocity": 0.4409448818897638,
                    "duration": 0.11524733333334325
                },
                {
                    "name": "G4",
                    "midi": 67,
                    "time": 325.91945866667106,
                    "velocity": 0.4409448818897638,
                    "duration": 0.11524733333334325
                },
                {
                    "name": "C4",
                    "midi": 60,
                    "time": 326.0347060000044,
                    "velocity": 0.5433070866141733,
                    "duration": 0.11524733333334325
                },
                {
                    "name": "E4",
                    "midi": 64,
                    "time": 326.14995333333775,
                    "velocity": 0.4566929133858268,
                    "duration": 0.11524733333334325
                },
                {
                    "name": "G4",
                    "midi": 67,
                    "time": 326.2652006666711,
                    "velocity": 0.4566929133858268,
                    "duration": 0.11524733333334325
                },
                {
                    "name": "C4",
                    "midi": 60,
                    "time": 326.38044800000444,
                    "velocity": 0.5511811023622047,
                    "duration": 0.11524733333334325
                },
                {
                    "name": "E4",
                    "midi": 64,
                    "time": 326.4956953333378,
                    "velocity": 0.4409448818897638,
                    "duration": 0.11524733333334325
                },
                {
                    "name": "G4",
                    "midi": 67,
                    "time": 326.6109426666711,
                    "velocity": 0.4409448818897638,
                    "duration": 0.11524733333334325
                },
                {
                    "name": "C4",
                    "midi": 60,
                    "time": 326.72619000000446,
                    "velocity": 0.5275590551181102,
                    "duration": 0.11524733333334325
                },
                {
                    "name": "E4",
                    "midi": 64,
                    "time": 326.8414373333378,
                    "velocity": 0.4094488188976378,
                    "duration": 0.11524733333334325
                },
                {
                    "name": "G4",
                    "midi": 67,
                    "time": 326.95668466667115,
                    "velocity": 0.4094488188976378,
                    "duration": 0.11524733333334325
                },
                {
                    "name": "C4",
                    "midi": 60,
                    "time": 327.0719320000045,
                    "velocity": 0.5354330708661418,
                    "duration": 0.11524733333334325
                },
                {
                    "name": "E4",
                    "midi": 64,
                    "time": 327.18717933333784,
                    "velocity": 0.4094488188976378,
                    "duration": 0.11524733333334325
                },
                {
                    "name": "G4",
                    "midi": 67,
                    "time": 327.3024266666712,
                    "velocity": 0.4094488188976378,
                    "duration": 0.11524733333334325
                },
                {
                    "name": "C4",
                    "midi": 60,
                    "time": 327.4176740000045,
                    "velocity": 0.5196850393700787,
                    "duration": 0.11524733333334325
                },
                {
                    "name": "E4",
                    "midi": 64,
                    "time": 327.53292133333787,
                    "velocity": 0.4094488188976378,
                    "duration": 0.11524733333334325
                },
                {
                    "name": "G4",
                    "midi": 67,
                    "time": 327.6481686666712,
                    "velocity": 0.4094488188976378,
                    "duration": 0.11524733333334325
                },
                {
                    "name": "C4",
                    "midi": 60,
                    "time": 327.76341600000455,
                    "velocity": 0.6456692913385826,
                    "duration": 0.3457419999999729
                }
            ],
            "controlChanges": {},
            "id": 2,
            "name": "Piano left",
            "instrumentNumber": 0,
            "instrument": "acoustic grand piano",
            "instrumentFamily": "piano",
            "channelNumber": 0,
            "isPercussion": false
        },
        {
            "startTime": 0,
            "duration": 0,
            "length": 0,
            "notes": [],
            "controlChanges": {
                "64": [
                    {
                        "number": 64,
                        "time": 1.0523522125,
                        "value": 1
                    },
                    {
                        "number": 64,
                        "time": 1.3858491833333333,
                        "value": 0
                    },
                    {
                        "number": 64,
                        "time": 3.8996816416666666,
                        "value": 1
                    },
                    {
                        "number": 64,
                        "time": 4.148904,
                        "value": 0
                    },
                    {
                        "number": 64,
                        "time": 6.6555335,
                        "value": 1
                    },
                    {
                        "number": 64,
                        "time": 6.91484,
                        "value": 0
                    },
                    {
                        "number": 64,
                        "time": 7.352059570833333,
                        "value": 1
                    },
                    {
                        "number": 64,
                        "time": 7.611366070833333,
                        "value": 0
                    },
                    {
                        "number": 64,
                        "time": 8.043543570833334,
                        "value": 1
                    },
                    {
                        "number": 64,
                        "time": 8.310053029166667,
                        "value": 0
                    },
                    {
                        "number": 64,
                        "time": 8.748713191666667,
                        "value": 1
                    },
                    {
                        "number": 64,
                        "time": 8.997935550000001,
                        "value": 0
                    },
                    {
                        "number": 64,
                        "time": 11.145137429166667,
                        "value": 1
                    },
                    {
                        "number": 64,
                        "time": 12.454635254166666,
                        "value": 0
                    },
                    {
                        "number": 64,
                        "time": 12.494971820833333,
                        "value": 1
                    },
                    {
                        "number": 64,
                        "time": 13.82968,
                        "value": 0
                    },
                    {
                        "number": 64,
                        "time": 13.885863075,
                        "value": 1
                    },
                    {
                        "number": 64,
                        "time": 15.212648,
                        "value": 0
                    },
                    {
                        "number": 64,
                        "time": 15.288999358333333,
                        "value": 1
                    },
                    {
                        "number": 64,
                        "time": 15.9106146625,
                        "value": 0
                    },
                    {
                        "number": 64,
                        "time": 15.985525429166668,
                        "value": 1
                    },
                    {
                        "number": 64,
                        "time": 16.595616,
                        "value": 0
                    },
                    {
                        "number": 64,
                        "time": 17.689025075,
                        "value": 1
                    },
                    {
                        "number": 64,
                        "time": 17.978584,
                        "value": 0
                    },
                    {
                        "number": 64,
                        "time": 18.07510364166667,
                        "value": 1
                    },
                    {
                        "number": 64,
                        "time": 18.680152141666667,
                        "value": 0
                    },
                    {
                        "number": 64,
                        "time": 18.776671783333335,
                        "value": 1
                    },
                    {
                        "number": 64,
                        "time": 19.370195550000002,
                        "value": 0
                    },
                    {
                        "number": 64,
                        "time": 19.432861287500003,
                        "value": 1
                    },
                    {
                        "number": 64,
                        "time": 20.062399845833337,
                        "value": 0
                    },
                    {
                        "number": 64,
                        "time": 20.129387358333336,
                        "value": 1
                    },
                    {
                        "number": 64,
                        "time": 20.764688283333335,
                        "value": 0
                    },
                    {
                        "number": 64,
                        "time": 20.82591342916667,
                        "value": 1
                    },
                    {
                        "number": 64,
                        "time": 21.444647550000003,
                        "value": 0
                    },
                    {
                        "number": 64,
                        "time": 21.512355358333338,
                        "value": 1
                    },
                    {
                        "number": 64,
                        "time": 22.127488000000003,
                        "value": 0
                    },
                    {
                        "number": 64,
                        "time": 22.326289650000003,
                        "value": 1
                    },
                    {
                        "number": 64,
                        "time": 23.510456000000005,
                        "value": 0
                    },
                    {
                        "number": 64,
                        "time": 23.90229693333334,
                        "value": 1
                    },
                    {
                        "number": 64,
                        "time": 24.209142958333338,
                        "value": 0
                    },
                    {
                        "number": 64,
                        "time": 24.603865075000005,
                        "value": 1
                    },
                    {
                        "number": 64,
                        "time": 24.893424000000007,
                        "value": 0
                    },
                    {
                        "number": 64,
                        "time": 25.320559429166675,
                        "value": 1
                    },
                    {
                        "number": 64,
                        "time": 25.59787332500001,
                        "value": 0
                    },
                    {
                        "number": 64,
                        "time": 25.98683307500001,
                        "value": 1
                    },
                    {
                        "number": 64,
                        "time": 26.277832591666677,
                        "value": 0
                    },
                    {
                        "number": 64,
                        "time": 26.698485358333343,
                        "value": 1
                    },
                    {
                        "number": 64,
                        "time": 26.980121029166675,
                        "value": 0
                    },
                    {
                        "number": 64,
                        "time": 27.451194504166676,
                        "value": 1
                    },
                    {
                        "number": 64,
                        "time": 27.667283254166676,
                        "value": 0
                    },
                    {
                        "number": 64,
                        "time": 27.73066928750001,
                        "value": 1
                    },
                    {
                        "number": 64,
                        "time": 28.706670141666677,
                        "value": 0
                    },
                    {
                        "number": 64,
                        "time": 28.788063570833344,
                        "value": 1
                    },
                    {
                        "number": 64,
                        "time": 29.042328000000012,
                        "value": 0
                    },
                    {
                        "number": 64,
                        "time": 29.118679358333345,
                        "value": 1
                    },
                    {
                        "number": 64,
                        "time": 30.08603666250001,
                        "value": 0
                    },
                    {
                        "number": 64,
                        "time": 30.145821216666675,
                        "value": 1
                    },
                    {
                        "number": 64,
                        "time": 30.42529600000001,
                        "value": 0
                    },
                    {
                        "number": 64,
                        "time": 30.51173150000001,
                        "value": 1
                    },
                    {
                        "number": 64,
                        "time": 31.472606141666677,
                        "value": 0
                    },
                    {
                        "number": 64,
                        "time": 31.54895750000001,
                        "value": 1
                    },
                    {
                        "number": 64,
                        "time": 31.829152579166678,
                        "value": 0
                    },
                    {
                        "number": 64,
                        "time": 31.878132695833344,
                        "value": 1
                    },
                    {
                        "number": 64,
                        "time": 32.84765088750001,
                        "value": 0
                    },
                    {
                        "number": 64,
                        "time": 32.91535869583334,
                        "value": 1
                    },
                    {
                        "number": 64,
                        "time": 33.194833479166675,
                        "value": 0
                    },
                    {
                        "number": 64,
                        "time": 33.23661063750001,
                        "value": 1
                    },
                    {
                        "number": 64,
                        "time": 34.23638125416667,
                        "value": 0
                    },
                    {
                        "number": 64,
                        "time": 34.30264847083334,
                        "value": 1
                    },
                    {
                        "number": 64,
                        "time": 34.574200000000005,
                        "value": 0
                    },
                    {
                        "number": 64,
                        "time": 34.63182366666667,
                        "value": 1
                    },
                    {
                        "number": 64,
                        "time": 35.62151014166667,
                        "value": 0
                    },
                    {
                        "number": 64,
                        "time": 35.69426002083333,
                        "value": 1
                    },
                    {
                        "number": 64,
                        "time": 35.957168,
                        "value": 0
                    },
                    {
                        "number": 64,
                        "time": 36.0436035,
                        "value": 1
                    },
                    {
                        "number": 64,
                        "time": 37.340136,
                        "value": 0
                    },
                    {
                        "number": 64,
                        "time": 37.43665564166667,
                        "value": 1
                    },
                    {
                        "number": 64,
                        "time": 38.04170414166667,
                        "value": 0
                    },
                    {
                        "number": 64,
                        "time": 38.10148869583334,
                        "value": 1
                    },
                    {
                        "number": 64,
                        "time": 38.723104000000006,
                        "value": 0
                    },
                    {
                        "number": 64,
                        "time": 38.819623641666674,
                        "value": 1
                    },
                    {
                        "number": 64,
                        "time": 39.424672141666676,
                        "value": 0
                    },
                    {
                        "number": 64,
                        "time": 39.52119178333334,
                        "value": 1
                    },
                    {
                        "number": 64,
                        "time": 40.10607200000001,
                        "value": 0
                    },
                    {
                        "number": 64,
                        "time": 40.20259164166668,
                        "value": 1
                    },
                    {
                        "number": 64,
                        "time": 40.80764014166668,
                        "value": 0
                    },
                    {
                        "number": 64,
                        "time": 40.90415978333335,
                        "value": 1
                    },
                    {
                        "number": 64,
                        "time": 41.48904000000002,
                        "value": 0
                    },
                    {
                        "number": 64,
                        "time": 41.585559641666684,
                        "value": 1
                    },
                    {
                        "number": 64,
                        "time": 42.19060814166669,
                        "value": 0
                    },
                    {
                        "number": 64,
                        "time": 42.287127783333354,
                        "value": 1
                    },
                    {
                        "number": 64,
                        "time": 42.87200800000002,
                        "value": 0
                    },
                    {
                        "number": 64,
                        "time": 42.96852764166669,
                        "value": 1
                    },
                    {
                        "number": 64,
                        "time": 43.222071775000025,
                        "value": 0
                    },
                    {
                        "number": 64,
                        "time": 43.267450412500025,
                        "value": 1
                    },
                    {
                        "number": 64,
                        "time": 43.57357614166669,
                        "value": 0
                    },
                    {
                        "number": 64,
                        "time": 43.67009578333336,
                        "value": 1
                    },
                    {
                        "number": 64,
                        "time": 43.920038437500025,
                        "value": 0
                    },
                    {
                        "number": 64,
                        "time": 43.98126358333336,
                        "value": 1
                    },
                    {
                        "number": 64,
                        "time": 44.257136887500025,
                        "value": 0
                    },
                    {
                        "number": 64,
                        "time": 44.91620757500002,
                        "value": 1
                    },
                    {
                        "number": 64,
                        "time": 45.61273364583336,
                        "value": 0
                    },
                    {
                        "number": 64,
                        "time": 45.637944000000026,
                        "value": 1
                    },
                    {
                        "number": 64,
                        "time": 45.96711919583336,
                        "value": 0
                    },
                    {
                        "number": 64,
                        "time": 46.312861195833364,
                        "value": 1
                    },
                    {
                        "number": 64,
                        "time": 47.02091200000003,
                        "value": 0
                    },
                    {
                        "number": 64,
                        "time": 47.232678975000034,
                        "value": 1
                    },
                    {
                        "number": 64,
                        "time": 47.458131570833366,
                        "value": 0
                    },
                    {
                        "number": 64,
                        "time": 47.8348462916667,
                        "value": 1
                    },
                    {
                        "number": 64,
                        "time": 48.8461416416667,
                        "value": 0
                    },
                    {
                        "number": 64,
                        "time": 49.786848000000035,
                        "value": 0
                    },
                    {
                        "number": 64,
                        "time": 49.873283500000035,
                        "value": 1
                    },
                    {
                        "number": 64,
                        "time": 50.8341581416667,
                        "value": 0
                    },
                    {
                        "number": 64,
                        "time": 50.91050950000003,
                        "value": 1
                    },
                    {
                        "number": 64,
                        "time": 51.1907045791667,
                        "value": 0
                    },
                    {
                        "number": 64,
                        "time": 51.23968469583337,
                        "value": 1
                    },
                    {
                        "number": 64,
                        "time": 52.209202887500034,
                        "value": 0
                    },
                    {
                        "number": 64,
                        "time": 52.276910695833365,
                        "value": 1
                    },
                    {
                        "number": 64,
                        "time": 52.5563854791667,
                        "value": 0
                    },
                    {
                        "number": 64,
                        "time": 52.59816263750003,
                        "value": 1
                    },
                    {
                        "number": 64,
                        "time": 53.5979332541667,
                        "value": 0
                    },
                    {
                        "number": 64,
                        "time": 53.664200470833364,
                        "value": 1
                    },
                    {
                        "number": 64,
                        "time": 53.93575200000003,
                        "value": 0
                    },
                    {
                        "number": 64,
                        "time": 53.993375666666694,
                        "value": 1
                    },
                    {
                        "number": 64,
                        "time": 54.63299836666669,
                        "value": 0
                    },
                    {
                        "number": 64,
                        "time": 54.69350321666669,
                        "value": 1
                    },
                    {
                        "number": 64,
                        "time": 55.32376207083336,
                        "value": 0
                    },
                    {
                        "number": 64,
                        "time": 55.40515550000003,
                        "value": 1
                    },
                    {
                        "number": 64,
                        "time": 56.01452577500003,
                        "value": 0
                    },
                    {
                        "number": 64,
                        "time": 56.09663950000003,
                        "value": 1
                    },
                    {
                        "number": 64,
                        "time": 56.70168800000003,
                        "value": 0
                    },
                    {
                        "number": 64,
                        "time": 56.7830814291667,
                        "value": 1
                    },
                    {
                        "number": 64,
                        "time": 57.73891400000003,
                        "value": 0
                    },
                    {
                        "number": 64,
                        "time": 57.790055004166696,
                        "value": 1
                    },
                    {
                        "number": 64,
                        "time": 58.08465600000003,
                        "value": 0
                    },
                    {
                        "number": 64,
                        "time": 58.24960374583336,
                        "value": 1
                    },
                    {
                        "number": 64,
                        "time": 58.43904155000003,
                        "value": 0
                    },
                    {
                        "number": 64,
                        "time": 58.57877894166669,
                        "value": 1
                    },
                    {
                        "number": 64,
                        "time": 58.78190236666669,
                        "value": 0
                    },
                    {
                        "number": 64,
                        "time": 58.90795413750003,
                        "value": 1
                    },
                    {
                        "number": 64,
                        "time": 59.134847325000024,
                        "value": 0
                    },
                    {
                        "number": 64,
                        "time": 59.270262941666694,
                        "value": 1
                    },
                    {
                        "number": 64,
                        "time": 59.46762400000003,
                        "value": 0
                    },
                    {
                        "number": 64,
                        "time": 59.67939097500003,
                        "value": 1
                    },
                    {
                        "number": 64,
                        "time": 60.164150070833365,
                        "value": 0
                    },
                    {
                        "number": 64,
                        "time": 60.31325130833336,
                        "value": 1
                    },
                    {
                        "number": 64,
                        "time": 60.51205295833336,
                        "value": 0
                    },
                    {
                        "number": 64,
                        "time": 60.63954532083336,
                        "value": 1
                    },
                    {
                        "number": 64,
                        "time": 60.85059200000003,
                        "value": 0
                    },
                    {
                        "number": 64,
                        "time": 60.93486661250003,
                        "value": 1
                    },
                    {
                        "number": 64,
                        "time": 61.55720221250003,
                        "value": 0
                    },
                    {
                        "number": 64,
                        "time": 61.641476825000034,
                        "value": 1
                    },
                    {
                        "number": 64,
                        "time": 62.23356000000003,
                        "value": 0
                    },
                    {
                        "number": 64,
                        "time": 63.299597833333365,
                        "value": 1
                    },
                    {
                        "number": 64,
                        "time": 63.299597833333365,
                        "value": 1
                    },
                    {
                        "number": 64,
                        "time": 63.62517155000003,
                        "value": 0
                    },
                    {
                        "number": 64,
                        "time": 63.62517155000003,
                        "value": 0
                    },
                    {
                        "number": 64,
                        "time": 64.68256583333337,
                        "value": 1
                    },
                    {
                        "number": 64,
                        "time": 65.00813955000004,
                        "value": 0
                    },
                    {
                        "number": 64,
                        "time": 66.06553383333338,
                        "value": 1
                    },
                    {
                        "number": 64,
                        "time": 66.39110755000004,
                        "value": 0
                    },
                    {
                        "number": 64,
                        "time": 67.4557047916667,
                        "value": 1
                    },
                    {
                        "number": 64,
                        "time": 67.76543200000003,
                        "value": 0
                    },
                    {
                        "number": 64,
                        "time": 68.18968624583337,
                        "value": 1
                    },
                    {
                        "number": 64,
                        "time": 68.4691610291667,
                        "value": 0
                    },
                    {
                        "number": 64,
                        "time": 68.88117024583336,
                        "value": 1
                    },
                    {
                        "number": 64,
                        "time": 69.16928857916669,
                        "value": 0
                    },
                    {
                        "number": 64,
                        "time": 70.21443783333336,
                        "value": 1
                    },
                    {
                        "number": 64,
                        "time": 70.54001155000003,
                        "value": 0
                    },
                    {
                        "number": 64,
                        "time": 70.5933134416667,
                        "value": 1
                    },
                    {
                        "number": 64,
                        "time": 70.8158848541667,
                        "value": 0
                    },
                    {
                        "number": 64,
                        "time": 70.95562224583337,
                        "value": 1
                    },
                    {
                        "number": 64,
                        "time": 71.11984969583337,
                        "value": 0
                    },
                    {
                        "number": 64,
                        "time": 71.27687418750003,
                        "value": 1
                    },
                    {
                        "number": 64,
                        "time": 71.46991347083336,
                        "value": 0
                    },
                    {
                        "number": 64,
                        "time": 71.59740583333337,
                        "value": 1
                    },
                    {
                        "number": 64,
                        "time": 71.92297955000004,
                        "value": 0
                    },
                    {
                        "number": 64,
                        "time": 71.98420469583337,
                        "value": 1
                    },
                    {
                        "number": 64,
                        "time": 72.17796427500004,
                        "value": 0
                    },
                    {
                        "number": 64,
                        "time": 72.31770166666671,
                        "value": 1
                    },
                    {
                        "number": 64,
                        "time": 72.51938450000004,
                        "value": 0
                    },
                    {
                        "number": 64,
                        "time": 72.66344366666671,
                        "value": 1
                    },
                    {
                        "number": 64,
                        "time": 72.88601507916671,
                        "value": 0
                    },
                    {
                        "number": 64,
                        "time": 72.98037383333337,
                        "value": 1
                    },
                    {
                        "number": 64,
                        "time": 73.30594755000004,
                        "value": 0
                    },
                    {
                        "number": 64,
                        "time": 73.36717269583337,
                        "value": 1
                    },
                    {
                        "number": 64,
                        "time": 73.50330860833337,
                        "value": 0
                    },
                    {
                        "number": 64,
                        "time": 73.68842463750003,
                        "value": 1
                    },
                    {
                        "number": 64,
                        "time": 73.91099605000004,
                        "value": 0
                    },
                    {
                        "number": 64,
                        "time": 74.04281018750004,
                        "value": 1
                    },
                    {
                        "number": 64,
                        "time": 74.34317355000003,
                        "value": 0
                    },
                    {
                        "number": 64,
                        "time": 74.41736402083336,
                        "value": 1
                    },
                    {
                        "number": 64,
                        "time": 74.68891555000003,
                        "value": 0
                    },
                    {
                        "number": 64,
                        "time": 74.75014069583337,
                        "value": 1
                    },
                    {
                        "number": 64,
                        "time": 74.93957850000004,
                        "value": 0
                    },
                    {
                        "number": 64,
                        "time": 75.10884802083338,
                        "value": 1
                    },
                    {
                        "number": 64,
                        "time": 75.27307547083338,
                        "value": 0
                    },
                    {
                        "number": 64,
                        "time": 75.42577818750004,
                        "value": 1
                    },
                    {
                        "number": 64,
                        "time": 75.63970605000004,
                        "value": 0
                    },
                    {
                        "number": 64,
                        "time": 75.72614155000004,
                        "value": 0
                    },
                    {
                        "number": 64,
                        "time": 75.80033202083337,
                        "value": 1
                    },
                    {
                        "number": 64,
                        "time": 76.07188355000004,
                        "value": 0
                    },
                    {
                        "number": 64,
                        "time": 76.13310869583337,
                        "value": 1
                    },
                    {
                        "number": 64,
                        "time": 76.32254650000004,
                        "value": 0
                    },
                    {
                        "number": 64,
                        "time": 76.49181602083338,
                        "value": 1
                    },
                    {
                        "number": 64,
                        "time": 76.65604347083338,
                        "value": 0
                    },
                    {
                        "number": 64,
                        "time": 76.80874618750005,
                        "value": 1
                    },
                    {
                        "number": 64,
                        "time": 77.02267405000005,
                        "value": 0
                    },
                    {
                        "number": 64,
                        "time": 77.10910955000004,
                        "value": 0
                    },
                    {
                        "number": 64,
                        "time": 77.18330002083337,
                        "value": 1
                    },
                    {
                        "number": 64,
                        "time": 77.45485155000004,
                        "value": 0
                    },
                    {
                        "number": 64,
                        "time": 77.51607669583338,
                        "value": 1
                    },
                    {
                        "number": 64,
                        "time": 77.70551450000005,
                        "value": 0
                    },
                    {
                        "number": 64,
                        "time": 77.87478402083339,
                        "value": 1
                    },
                    {
                        "number": 64,
                        "time": 78.03901147083339,
                        "value": 0
                    },
                    {
                        "number": 64,
                        "time": 78.19171418750005,
                        "value": 1
                    },
                    {
                        "number": 64,
                        "time": 78.40564205000005,
                        "value": 0
                    },
                    {
                        "number": 64,
                        "time": 78.49207755000005,
                        "value": 0
                    },
                    {
                        "number": 64,
                        "time": 78.56626802083338,
                        "value": 1
                    },
                    {
                        "number": 64,
                        "time": 78.83781955000005,
                        "value": 0
                    },
                    {
                        "number": 64,
                        "time": 78.89904469583338,
                        "value": 1
                    },
                    {
                        "number": 64,
                        "time": 79.08848250000005,
                        "value": 0
                    },
                    {
                        "number": 64,
                        "time": 79.2577520208334,
                        "value": 1
                    },
                    {
                        "number": 64,
                        "time": 79.42197947083339,
                        "value": 0
                    },
                    {
                        "number": 64,
                        "time": 79.57468218750006,
                        "value": 1
                    },
                    {
                        "number": 64,
                        "time": 79.78861005000006,
                        "value": 0
                    },
                    {
                        "number": 64,
                        "time": 79.89521383333339,
                        "value": 1
                    },
                    {
                        "number": 64,
                        "time": 80.13435205000005,
                        "value": 0
                    },
                    {
                        "number": 64,
                        "time": 80.21646577500005,
                        "value": 1
                    },
                    {
                        "number": 64,
                        "time": 80.56004688750005,
                        "value": 0
                    },
                    {
                        "number": 64,
                        "time": 80.61190818750005,
                        "value": 1
                    },
                    {
                        "number": 64,
                        "time": 81.59511200000004,
                        "value": 0
                    },
                    {
                        "number": 64,
                        "time": 81.64913418750004,
                        "value": 1
                    },
                    {
                        "number": 64,
                        "time": 82.2923583666667,
                        "value": 0
                    },
                    {
                        "number": 64,
                        "time": 82.40184333333337,
                        "value": 1
                    },
                    {
                        "number": 64,
                        "time": 82.64242214166671,
                        "value": 0
                    },
                    {
                        "number": 64,
                        "time": 82.68636018750004,
                        "value": 1
                    },
                    {
                        "number": 64,
                        "time": 82.97808000000005,
                        "value": 0
                    },
                    {
                        "number": 64,
                        "time": 83.06091402083338,
                        "value": 1
                    },
                    {
                        "number": 64,
                        "time": 83.32598288750005,
                        "value": 0
                    },
                    {
                        "number": 64,
                        "time": 83.37784418750005,
                        "value": 1
                    },
                    {
                        "number": 64,
                        "time": 84.36104800000004,
                        "value": 0
                    },
                    {
                        "number": 64,
                        "time": 84.41507018750004,
                        "value": 1
                    },
                    {
                        "number": 64,
                        "time": 85.0582943666667,
                        "value": 0
                    },
                    {
                        "number": 64,
                        "time": 85.16777933333337,
                        "value": 1
                    },
                    {
                        "number": 64,
                        "time": 85.40835814166671,
                        "value": 0
                    },
                    {
                        "number": 64,
                        "time": 85.45229618750004,
                        "value": 1
                    },
                    {
                        "number": 64,
                        "time": 85.7519392541667,
                        "value": 0
                    },
                    {
                        "number": 64,
                        "time": 85.81532528750003,
                        "value": 1
                    },
                    {
                        "number": 64,
                        "time": 86.7913261416667,
                        "value": 0
                    },
                    {
                        "number": 64,
                        "time": 86.87271957083337,
                        "value": 1
                    },
                    {
                        "number": 64,
                        "time": 87.12698400000004,
                        "value": 0
                    },
                    {
                        "number": 64,
                        "time": 87.20333535833336,
                        "value": 1
                    },
                    {
                        "number": 64,
                        "time": 88.17069266250003,
                        "value": 0
                    },
                    {
                        "number": 64,
                        "time": 88.2304772166667,
                        "value": 1
                    },
                    {
                        "number": 64,
                        "time": 88.5178752541667,
                        "value": 0
                    },
                    {
                        "number": 64,
                        "time": 88.58126128750003,
                        "value": 1
                    },
                    {
                        "number": 64,
                        "time": 89.5572621416667,
                        "value": 0
                    },
                    {
                        "number": 64,
                        "time": 89.63865557083336,
                        "value": 1
                    },
                    {
                        "number": 64,
                        "time": 89.89292000000003,
                        "value": 0
                    },
                    {
                        "number": 64,
                        "time": 89.96927135833336,
                        "value": 1
                    },
                    {
                        "number": 64,
                        "time": 90.93662866250003,
                        "value": 0
                    },
                    {
                        "number": 64,
                        "time": 90.9964132166667,
                        "value": 1
                    },
                    {
                        "number": 64,
                        "time": 91.27588800000002,
                        "value": 0
                    },
                    {
                        "number": 64,
                        "time": 91.35223935833335,
                        "value": 1
                    },
                    {
                        "number": 64,
                        "time": 93.03052865000002,
                        "value": 0
                    },
                    {
                        "number": 64,
                        "time": 93.71120821250003,
                        "value": 1
                    },
                    {
                        "number": 64,
                        "time": 94.04470518333336,
                        "value": 0
                    },
                    {
                        "number": 64,
                        "time": 96.5585376416667,
                        "value": 1
                    },
                    {
                        "number": 64,
                        "time": 96.80776000000003,
                        "value": 0
                    },
                    {
                        "number": 64,
                        "time": 99.31438950000003,
                        "value": 1
                    },
                    {
                        "number": 64,
                        "time": 99.57369600000003,
                        "value": 0
                    },
                    {
                        "number": 64,
                        "time": 100.01091557083336,
                        "value": 1
                    },
                    {
                        "number": 64,
                        "time": 100.27022207083336,
                        "value": 0
                    },
                    {
                        "number": 64,
                        "time": 100.70239957083335,
                        "value": 1
                    },
                    {
                        "number": 64,
                        "time": 100.96890902916668,
                        "value": 0
                    },
                    {
                        "number": 64,
                        "time": 101.40756919166668,
                        "value": 1
                    },
                    {
                        "number": 64,
                        "time": 101.65679155000001,
                        "value": 0
                    },
                    {
                        "number": 64,
                        "time": 103.80399342916668,
                        "value": 1
                    },
                    {
                        "number": 64,
                        "time": 105.11349125416668,
                        "value": 0
                    },
                    {
                        "number": 64,
                        "time": 105.15382782083334,
                        "value": 1
                    },
                    {
                        "number": 64,
                        "time": 106.48853600000001,
                        "value": 0
                    },
                    {
                        "number": 64,
                        "time": 106.54471907500002,
                        "value": 1
                    },
                    {
                        "number": 64,
                        "time": 107.87150400000002,
                        "value": 0
                    },
                    {
                        "number": 64,
                        "time": 107.94785535833334,
                        "value": 1
                    },
                    {
                        "number": 64,
                        "time": 108.56947066250001,
                        "value": 0
                    },
                    {
                        "number": 64,
                        "time": 108.64438142916667,
                        "value": 1
                    },
                    {
                        "number": 64,
                        "time": 109.254472,
                        "value": 0
                    },
                    {
                        "number": 64,
                        "time": 110.347881075,
                        "value": 1
                    },
                    {
                        "number": 64,
                        "time": 110.63744,
                        "value": 0
                    },
                    {
                        "number": 64,
                        "time": 110.73395964166666,
                        "value": 1
                    },
                    {
                        "number": 64,
                        "time": 111.33900814166665,
                        "value": 0
                    },
                    {
                        "number": 64,
                        "time": 111.43552778333331,
                        "value": 1
                    },
                    {
                        "number": 64,
                        "time": 112.02905154999998,
                        "value": 0
                    },
                    {
                        "number": 64,
                        "time": 112.09171728749997,
                        "value": 1
                    },
                    {
                        "number": 64,
                        "time": 112.72125584583331,
                        "value": 0
                    },
                    {
                        "number": 64,
                        "time": 112.78824335833332,
                        "value": 1
                    },
                    {
                        "number": 64,
                        "time": 113.42354428333331,
                        "value": 0
                    },
                    {
                        "number": 64,
                        "time": 113.48476942916665,
                        "value": 1
                    },
                    {
                        "number": 64,
                        "time": 114.10350354999999,
                        "value": 0
                    },
                    {
                        "number": 64,
                        "time": 114.17121135833332,
                        "value": 1
                    },
                    {
                        "number": 64,
                        "time": 114.78634399999999,
                        "value": 0
                    },
                    {
                        "number": 64,
                        "time": 114.98514564999998,
                        "value": 1
                    },
                    {
                        "number": 64,
                        "time": 116.16931199999998,
                        "value": 0
                    },
                    {
                        "number": 64,
                        "time": 116.5611529333333,
                        "value": 1
                    },
                    {
                        "number": 64,
                        "time": 116.8679989583333,
                        "value": 0
                    },
                    {
                        "number": 64,
                        "time": 117.26272107499997,
                        "value": 1
                    },
                    {
                        "number": 64,
                        "time": 117.55227999999997,
                        "value": 0
                    },
                    {
                        "number": 64,
                        "time": 117.97941542916664,
                        "value": 1
                    },
                    {
                        "number": 64,
                        "time": 118.25672932499997,
                        "value": 0
                    },
                    {
                        "number": 64,
                        "time": 118.64568907499996,
                        "value": 1
                    },
                    {
                        "number": 64,
                        "time": 118.93668859166664,
                        "value": 0
                    },
                    {
                        "number": 64,
                        "time": 119.3573413583333,
                        "value": 1
                    },
                    {
                        "number": 64,
                        "time": 119.63897702916664,
                        "value": 0
                    },
                    {
                        "number": 64,
                        "time": 120.11005050416664,
                        "value": 1
                    },
                    {
                        "number": 64,
                        "time": 120.32613925416663,
                        "value": 0
                    },
                    {
                        "number": 64,
                        "time": 120.38952528749996,
                        "value": 1
                    },
                    {
                        "number": 64,
                        "time": 121.36552614166663,
                        "value": 0
                    },
                    {
                        "number": 64,
                        "time": 121.4469195708333,
                        "value": 1
                    },
                    {
                        "number": 64,
                        "time": 121.70118399999997,
                        "value": 0
                    },
                    {
                        "number": 64,
                        "time": 121.7775353583333,
                        "value": 1
                    },
                    {
                        "number": 64,
                        "time": 122.74489266249996,
                        "value": 0
                    },
                    {
                        "number": 64,
                        "time": 122.80467721666663,
                        "value": 1
                    },
                    {
                        "number": 64,
                        "time": 123.08415199999996,
                        "value": 0
                    },
                    {
                        "number": 64,
                        "time": 123.17058749999995,
                        "value": 1
                    },
                    {
                        "number": 64,
                        "time": 124.13146214166662,
                        "value": 0
                    },
                    {
                        "number": 64,
                        "time": 124.20781349999994,
                        "value": 1
                    },
                    {
                        "number": 64,
                        "time": 124.4880085791666,
                        "value": 0
                    },
                    {
                        "number": 64,
                        "time": 124.53698869583327,
                        "value": 1
                    },
                    {
                        "number": 64,
                        "time": 125.50650688749994,
                        "value": 0
                    },
                    {
                        "number": 64,
                        "time": 125.57421469583328,
                        "value": 1
                    },
                    {
                        "number": 64,
                        "time": 125.8536894791666,
                        "value": 0
                    },
                    {
                        "number": 64,
                        "time": 125.89546663749994,
                        "value": 1
                    },
                    {
                        "number": 64,
                        "time": 126.8952372541666,
                        "value": 0
                    },
                    {
                        "number": 64,
                        "time": 126.96150447083326,
                        "value": 1
                    },
                    {
                        "number": 64,
                        "time": 127.23305599999993,
                        "value": 0
                    },
                    {
                        "number": 64,
                        "time": 127.2906796666666,
                        "value": 1
                    },
                    {
                        "number": 64,
                        "time": 128.2803661416666,
                        "value": 0
                    },
                    {
                        "number": 64,
                        "time": 128.35311602083328,
                        "value": 1
                    },
                    {
                        "number": 64,
                        "time": 128.61602399999995,
                        "value": 0
                    },
                    {
                        "number": 64,
                        "time": 128.70245949999995,
                        "value": 1
                    },
                    {
                        "number": 64,
                        "time": 129.99899199999996,
                        "value": 0
                    },
                    {
                        "number": 64,
                        "time": 130.09551164166663,
                        "value": 1
                    },
                    {
                        "number": 64,
                        "time": 130.70056014166664,
                        "value": 0
                    },
                    {
                        "number": 64,
                        "time": 130.7603446958333,
                        "value": 1
                    },
                    {
                        "number": 64,
                        "time": 131.38195999999996,
                        "value": 0
                    },
                    {
                        "number": 64,
                        "time": 131.47847964166664,
                        "value": 1
                    },
                    {
                        "number": 64,
                        "time": 132.08352814166665,
                        "value": 0
                    },
                    {
                        "number": 64,
                        "time": 132.18004778333332,
                        "value": 1
                    },
                    {
                        "number": 64,
                        "time": 132.764928,
                        "value": 0
                    },
                    {
                        "number": 64,
                        "time": 132.86144764166667,
                        "value": 1
                    },
                    {
                        "number": 64,
                        "time": 133.46649614166668,
                        "value": 0
                    },
                    {
                        "number": 64,
                        "time": 133.56301578333336,
                        "value": 1
                    },
                    {
                        "number": 64,
                        "time": 134.14789600000003,
                        "value": 0
                    },
                    {
                        "number": 64,
                        "time": 134.2444156416667,
                        "value": 1
                    },
                    {
                        "number": 64,
                        "time": 134.84946414166672,
                        "value": 0
                    },
                    {
                        "number": 64,
                        "time": 134.9459837833334,
                        "value": 1
                    },
                    {
                        "number": 64,
                        "time": 135.53086400000007,
                        "value": 0
                    },
                    {
                        "number": 64,
                        "time": 135.62738364166674,
                        "value": 1
                    },
                    {
                        "number": 64,
                        "time": 136.23243214166675,
                        "value": 0
                    },
                    {
                        "number": 64,
                        "time": 136.32895178333342,
                        "value": 1
                    },
                    {
                        "number": 64,
                        "time": 136.9159928875001,
                        "value": 0
                    },
                    {
                        "number": 64,
                        "time": 137.5750635750001,
                        "value": 1
                    },
                    {
                        "number": 64,
                        "time": 138.27158964583342,
                        "value": 0
                    },
                    {
                        "number": 64,
                        "time": 138.29680000000008,
                        "value": 1
                    },
                    {
                        "number": 64,
                        "time": 138.6259751958334,
                        "value": 0
                    },
                    {
                        "number": 64,
                        "time": 138.9717171958334,
                        "value": 1
                    },
                    {
                        "number": 64,
                        "time": 139.67976800000008,
                        "value": 0
                    },
                    {
                        "number": 64,
                        "time": 139.89153497500007,
                        "value": 1
                    },
                    {
                        "number": 64,
                        "time": 140.1169875708334,
                        "value": 0
                    },
                    {
                        "number": 64,
                        "time": 140.49370229166672,
                        "value": 1
                    },
                    {
                        "number": 64,
                        "time": 141.50499764166673,
                        "value": 0
                    },
                    {
                        "number": 64,
                        "time": 142.44570400000006,
                        "value": 0
                    },
                    {
                        "number": 64,
                        "time": 142.53213950000006,
                        "value": 1
                    },
                    {
                        "number": 64,
                        "time": 143.49301414166672,
                        "value": 0
                    },
                    {
                        "number": 64,
                        "time": 143.56936550000006,
                        "value": 1
                    },
                    {
                        "number": 64,
                        "time": 143.84956057916673,
                        "value": 0
                    },
                    {
                        "number": 64,
                        "time": 143.91510750000006,
                        "value": 1
                    },
                    {
                        "number": 64,
                        "time": 144.86805888750007,
                        "value": 0
                    },
                    {
                        "number": 64,
                        "time": 144.9357666958334,
                        "value": 1
                    },
                    {
                        "number": 64,
                        "time": 145.21524147916674,
                        "value": 0
                    },
                    {
                        "number": 64,
                        "time": 145.2901522458334,
                        "value": 1
                    },
                    {
                        "number": 64,
                        "time": 146.25678925416673,
                        "value": 0
                    },
                    {
                        "number": 64,
                        "time": 146.3230564708334,
                        "value": 1
                    },
                    {
                        "number": 64,
                        "time": 146.59460800000005,
                        "value": 0
                    },
                    {
                        "number": 64,
                        "time": 146.67744202083338,
                        "value": 1
                    },
                    {
                        "number": 64,
                        "time": 147.2918543666667,
                        "value": 0
                    },
                    {
                        "number": 64,
                        "time": 147.36892602083338,
                        "value": 1
                    },
                    {
                        "number": 64,
                        "time": 147.98261807083338,
                        "value": 0
                    },
                    {
                        "number": 64,
                        "time": 148.07913771250006,
                        "value": 1
                    },
                    {
                        "number": 64,
                        "time": 148.67338177500005,
                        "value": 0
                    },
                    {
                        "number": 64,
                        "time": 148.75549550000005,
                        "value": 1
                    },
                    {
                        "number": 64,
                        "time": 149.36054400000006,
                        "value": 0
                    },
                    {
                        "number": 64,
                        "time": 149.47291015000008,
                        "value": 1
                    },
                    {
                        "number": 64,
                        "time": 150.39777000000007,
                        "value": 0
                    },
                    {
                        "number": 64,
                        "time": 150.44891100416675,
                        "value": 1
                    },
                    {
                        "number": 64,
                        "time": 150.74351200000007,
                        "value": 0
                    },
                    {
                        "number": 64,
                        "time": 150.9084597458334,
                        "value": 1
                    },
                    {
                        "number": 64,
                        "time": 151.09789755000006,
                        "value": 0
                    },
                    {
                        "number": 64,
                        "time": 151.23763494166673,
                        "value": 1
                    },
                    {
                        "number": 64,
                        "time": 151.44075836666673,
                        "value": 0
                    },
                    {
                        "number": 64,
                        "time": 151.56681013750006,
                        "value": 1
                    },
                    {
                        "number": 64,
                        "time": 151.79370332500005,
                        "value": 0
                    },
                    {
                        "number": 64,
                        "time": 151.92911894166673,
                        "value": 1
                    },
                    {
                        "number": 64,
                        "time": 152.12648000000007,
                        "value": 0
                    },
                    {
                        "number": 64,
                        "time": 152.33824697500006,
                        "value": 1
                    },
                    {
                        "number": 64,
                        "time": 152.8230060708334,
                        "value": 0
                    },
                    {
                        "number": 64,
                        "time": 152.9721073083334,
                        "value": 1
                    },
                    {
                        "number": 64,
                        "time": 153.1709089583334,
                        "value": 0
                    },
                    {
                        "number": 64,
                        "time": 153.2984013208334,
                        "value": 1
                    },
                    {
                        "number": 64,
                        "time": 153.50944800000005,
                        "value": 0
                    },
                    {
                        "number": 64,
                        "time": 153.59372261250004,
                        "value": 1
                    },
                    {
                        "number": 64,
                        "time": 154.21605821250006,
                        "value": 0
                    },
                    {
                        "number": 64,
                        "time": 154.30033282500005,
                        "value": 1
                    },
                    {
                        "number": 64,
                        "time": 154.89241600000005,
                        "value": 0
                    },
                    {
                        "number": 64,
                        "time": 155.95845383333338,
                        "value": 1
                    },
                    {
                        "number": 64,
                        "time": 155.95845383333338,
                        "value": 1
                    },
                    {
                        "number": 64,
                        "time": 156.28402755000005,
                        "value": 0
                    },
                    {
                        "number": 64,
                        "time": 156.28402755000005,
                        "value": 0
                    },
                    {
                        "number": 64,
                        "time": 157.34142183333338,
                        "value": 1
                    },
                    {
                        "number": 64,
                        "time": 157.66699555000005,
                        "value": 0
                    },
                    {
                        "number": 64,
                        "time": 158.7243898333334,
                        "value": 1
                    },
                    {
                        "number": 64,
                        "time": 159.04996355000006,
                        "value": 0
                    },
                    {
                        "number": 64,
                        "time": 160.11456079166672,
                        "value": 1
                    },
                    {
                        "number": 64,
                        "time": 160.42428800000005,
                        "value": 0
                    },
                    {
                        "number": 64,
                        "time": 160.84854224583339,
                        "value": 1
                    },
                    {
                        "number": 64,
                        "time": 161.12801702916673,
                        "value": 0
                    },
                    {
                        "number": 64,
                        "time": 161.5400262458334,
                        "value": 1
                    },
                    {
                        "number": 64,
                        "time": 161.82814457916672,
                        "value": 0
                    },
                    {
                        "number": 64,
                        "time": 162.87329383333338,
                        "value": 1
                    },
                    {
                        "number": 64,
                        "time": 163.19886755000005,
                        "value": 0
                    },
                    {
                        "number": 64,
                        "time": 163.25216944166672,
                        "value": 1
                    },
                    {
                        "number": 64,
                        "time": 163.47474085416673,
                        "value": 0
                    },
                    {
                        "number": 64,
                        "time": 163.6144782458334,
                        "value": 1
                    },
                    {
                        "number": 64,
                        "time": 163.7787056958334,
                        "value": 0
                    },
                    {
                        "number": 64,
                        "time": 163.93573018750007,
                        "value": 1
                    },
                    {
                        "number": 64,
                        "time": 164.1287694708334,
                        "value": 0
                    },
                    {
                        "number": 64,
                        "time": 164.25626183333338,
                        "value": 1
                    },
                    {
                        "number": 64,
                        "time": 164.58183555000005,
                        "value": 0
                    },
                    {
                        "number": 64,
                        "time": 164.64306069583338,
                        "value": 1
                    },
                    {
                        "number": 64,
                        "time": 164.83682027500006,
                        "value": 0
                    },
                    {
                        "number": 64,
                        "time": 164.97655766666674,
                        "value": 1
                    },
                    {
                        "number": 64,
                        "time": 165.17824050000007,
                        "value": 0
                    },
                    {
                        "number": 64,
                        "time": 165.32229966666674,
                        "value": 1
                    },
                    {
                        "number": 64,
                        "time": 165.54487107916674,
                        "value": 0
                    },
                    {
                        "number": 64,
                        "time": 165.63922983333342,
                        "value": 1
                    },
                    {
                        "number": 64,
                        "time": 165.96480355000008,
                        "value": 0
                    },
                    {
                        "number": 64,
                        "time": 166.02602869583342,
                        "value": 1
                    },
                    {
                        "number": 64,
                        "time": 166.16216460833343,
                        "value": 0
                    },
                    {
                        "number": 64,
                        "time": 166.3472806375001,
                        "value": 1
                    },
                    {
                        "number": 64,
                        "time": 166.5698520500001,
                        "value": 0
                    },
                    {
                        "number": 64,
                        "time": 166.70166618750008,
                        "value": 1
                    },
                    {
                        "number": 64,
                        "time": 167.0020295500001,
                        "value": 0
                    },
                    {
                        "number": 64,
                        "time": 167.07622002083343,
                        "value": 1
                    },
                    {
                        "number": 64,
                        "time": 167.3477715500001,
                        "value": 0
                    },
                    {
                        "number": 64,
                        "time": 167.40899669583342,
                        "value": 1
                    },
                    {
                        "number": 64,
                        "time": 167.59843450000008,
                        "value": 0
                    },
                    {
                        "number": 64,
                        "time": 167.7677040208334,
                        "value": 1
                    },
                    {
                        "number": 64,
                        "time": 167.9319314708334,
                        "value": 0
                    },
                    {
                        "number": 64,
                        "time": 168.08463418750006,
                        "value": 1
                    },
                    {
                        "number": 64,
                        "time": 168.29856205000004,
                        "value": 0
                    },
                    {
                        "number": 64,
                        "time": 168.38499755000004,
                        "value": 0
                    },
                    {
                        "number": 64,
                        "time": 168.45918802083338,
                        "value": 1
                    },
                    {
                        "number": 64,
                        "time": 168.73073955000004,
                        "value": 0
                    },
                    {
                        "number": 64,
                        "time": 168.79196469583337,
                        "value": 1
                    },
                    {
                        "number": 64,
                        "time": 168.98140250000003,
                        "value": 0
                    },
                    {
                        "number": 64,
                        "time": 169.15067202083335,
                        "value": 1
                    },
                    {
                        "number": 64,
                        "time": 169.31489947083335,
                        "value": 0
                    },
                    {
                        "number": 64,
                        "time": 169.4676021875,
                        "value": 1
                    },
                    {
                        "number": 64,
                        "time": 169.68153005,
                        "value": 0
                    },
                    {
                        "number": 64,
                        "time": 169.84215602083333,
                        "value": 1
                    },
                    {
                        "number": 64,
                        "time": 170.11370755,
                        "value": 0
                    },
                    {
                        "number": 64,
                        "time": 170.17493269583332,
                        "value": 1
                    },
                    {
                        "number": 64,
                        "time": 170.36437049999998,
                        "value": 0
                    },
                    {
                        "number": 64,
                        "time": 170.5336400208333,
                        "value": 1
                    },
                    {
                        "number": 64,
                        "time": 170.6978674708333,
                        "value": 0
                    },
                    {
                        "number": 64,
                        "time": 170.85057018749995,
                        "value": 1
                    },
                    {
                        "number": 64,
                        "time": 171.06449804999994,
                        "value": 0
                    },
                    {
                        "number": 64,
                        "time": 171.22512402083328,
                        "value": 1
                    },
                    {
                        "number": 64,
                        "time": 171.49667554999994,
                        "value": 0
                    },
                    {
                        "number": 64,
                        "time": 171.55790069583327,
                        "value": 1
                    },
                    {
                        "number": 64,
                        "time": 171.74733849999993,
                        "value": 0
                    },
                    {
                        "number": 64,
                        "time": 171.91660802083325,
                        "value": 1
                    },
                    {
                        "number": 64,
                        "time": 172.08083547083325,
                        "value": 0
                    },
                    {
                        "number": 64,
                        "time": 172.2335381874999,
                        "value": 1
                    },
                    {
                        "number": 64,
                        "time": 172.4474660499999,
                        "value": 0
                    },
                    {
                        "number": 64,
                        "time": 172.55406983333322,
                        "value": 1
                    },
                    {
                        "number": 64,
                        "time": 172.7932080499999,
                        "value": 0
                    },
                    {
                        "number": 64,
                        "time": 172.8753217749999,
                        "value": 1
                    },
                    {
                        "number": 64,
                        "time": 173.2189028874999,
                        "value": 0
                    },
                    {
                        "number": 64,
                        "time": 173.2707641874999,
                        "value": 1
                    },
                    {
                        "number": 64,
                        "time": 174.2539679999999,
                        "value": 0
                    },
                    {
                        "number": 64,
                        "time": 174.3079901874999,
                        "value": 1
                    },
                    {
                        "number": 64,
                        "time": 174.9512143666666,
                        "value": 0
                    },
                    {
                        "number": 64,
                        "time": 175.06069933333325,
                        "value": 1
                    },
                    {
                        "number": 64,
                        "time": 175.3012781416666,
                        "value": 0
                    },
                    {
                        "number": 64,
                        "time": 175.34521618749991,
                        "value": 1
                    },
                    {
                        "number": 64,
                        "time": 175.6369359999999,
                        "value": 0
                    },
                    {
                        "number": 64,
                        "time": 175.71977002083324,
                        "value": 1
                    },
                    {
                        "number": 64,
                        "time": 175.9848388874999,
                        "value": 0
                    },
                    {
                        "number": 64,
                        "time": 176.03670018749992,
                        "value": 1
                    },
                    {
                        "number": 64,
                        "time": 177.0199039999999,
                        "value": 0
                    },
                    {
                        "number": 64,
                        "time": 177.08977269583323,
                        "value": 1
                    },
                    {
                        "number": 64,
                        "time": 177.71715036666657,
                        "value": 0
                    },
                    {
                        "number": 64,
                        "time": 177.82663533333323,
                        "value": 1
                    },
                    {
                        "number": 64,
                        "time": 178.06721414166657,
                        "value": 0
                    },
                    {
                        "number": 64,
                        "time": 178.13564224583322,
                        "value": 1
                    },
                    {
                        "number": 64,
                        "time": 178.41079525416654,
                        "value": 0
                    },
                    {
                        "number": 64,
                        "time": 178.47418128749987,
                        "value": 1
                    },
                    {
                        "number": 64,
                        "time": 179.45018214166655,
                        "value": 0
                    },
                    {
                        "number": 64,
                        "time": 179.5315755708332,
                        "value": 1
                    },
                    {
                        "number": 64,
                        "time": 179.78583999999987,
                        "value": 0
                    },
                    {
                        "number": 64,
                        "time": 179.8621913583332,
                        "value": 1
                    },
                    {
                        "number": 64,
                        "time": 180.82954866249986,
                        "value": 0
                    },
                    {
                        "number": 64,
                        "time": 180.88933321666653,
                        "value": 1
                    },
                    {
                        "number": 64,
                        "time": 181.17673125416653,
                        "value": 0
                    },
                    {
                        "number": 64,
                        "time": 181.24011728749986,
                        "value": 1
                    },
                    {
                        "number": 64,
                        "time": 182.21611814166653,
                        "value": 0
                    },
                    {
                        "number": 64,
                        "time": 182.2975115708332,
                        "value": 1
                    },
                    {
                        "number": 64,
                        "time": 182.55177599999985,
                        "value": 0
                    },
                    {
                        "number": 64,
                        "time": 182.6281273583332,
                        "value": 1
                    },
                    {
                        "number": 64,
                        "time": 183.59548466249984,
                        "value": 0
                    },
                    {
                        "number": 64,
                        "time": 183.6552692166665,
                        "value": 1
                    },
                    {
                        "number": 64,
                        "time": 183.93474399999985,
                        "value": 0
                    },
                    {
                        "number": 64,
                        "time": 184.02622157083317,
                        "value": 1
                    },
                    {
                        "number": 64,
                        "time": 185.8010305041665,
                        "value": 0
                    },
                    {
                        "number": 64,
                        "time": 186.44137349999983,
                        "value": 1
                    },
                    {
                        "number": 64,
                        "time": 186.70067999999983,
                        "value": 0
                    },
                    {
                        "number": 64,
                        "time": 187.13789957083316,
                        "value": 1
                    },
                    {
                        "number": 64,
                        "time": 187.39720607083316,
                        "value": 0
                    },
                    {
                        "number": 64,
                        "time": 187.82938357083316,
                        "value": 1
                    },
                    {
                        "number": 64,
                        "time": 188.0958930291665,
                        "value": 0
                    },
                    {
                        "number": 64,
                        "time": 188.5345531916665,
                        "value": 1
                    },
                    {
                        "number": 64,
                        "time": 188.78377554999983,
                        "value": 0
                    },
                    {
                        "number": 64,
                        "time": 189.21235157083316,
                        "value": 1
                    },
                    {
                        "number": 64,
                        "time": 189.4788610291665,
                        "value": 0
                    },
                    {
                        "number": 64,
                        "time": 189.9175211916665,
                        "value": 1
                    },
                    {
                        "number": 64,
                        "time": 190.16674354999984,
                        "value": 0
                    },
                    {
                        "number": 64,
                        "time": 190.6090051916665,
                        "value": 1
                    },
                    {
                        "number": 64,
                        "time": 190.85822754999984,
                        "value": 0
                    },
                    {
                        "number": 64,
                        "time": 191.00732878749983,
                        "value": 1
                    },
                    {
                        "number": 64,
                        "time": 191.87672585833317,
                        "value": 0
                    },
                    {
                        "number": 64,
                        "time": 192.2404752541665,
                        "value": 0
                    },
                    {
                        "number": 64,
                        "time": 192.28081182083318,
                        "value": 1
                    },
                    {
                        "number": 64,
                        "time": 193.61551999999983,
                        "value": 0
                    },
                    {
                        "number": 64,
                        "time": 193.67170307499984,
                        "value": 1
                    },
                    {
                        "number": 64,
                        "time": 194.99848799999984,
                        "value": 0
                    },
                    {
                        "number": 64,
                        "time": 195.07483935833318,
                        "value": 1
                    },
                    {
                        "number": 64,
                        "time": 195.69645466249983,
                        "value": 0
                    },
                    {
                        "number": 64,
                        "time": 195.7713654291665,
                        "value": 1
                    },
                    {
                        "number": 64,
                        "time": 196.38145599999984,
                        "value": 0
                    },
                    {
                        "number": 64,
                        "time": 196.50102510833318,
                        "value": 1
                    },
                    {
                        "number": 64,
                        "time": 197.76442399999985,
                        "value": 0
                    },
                    {
                        "number": 64,
                        "time": 197.86094364166652,
                        "value": 1
                    },
                    {
                        "number": 64,
                        "time": 198.46599214166653,
                        "value": 0
                    },
                    {
                        "number": 64,
                        "time": 198.5625117833332,
                        "value": 1
                    },
                    {
                        "number": 64,
                        "time": 199.15603554999987,
                        "value": 0
                    },
                    {
                        "number": 64,
                        "time": 199.21870128749987,
                        "value": 1
                    },
                    {
                        "number": 64,
                        "time": 199.8482398458332,
                        "value": 0
                    },
                    {
                        "number": 64,
                        "time": 199.9152273583332,
                        "value": 1
                    },
                    {
                        "number": 64,
                        "time": 200.5505282833332,
                        "value": 0
                    },
                    {
                        "number": 64,
                        "time": 200.61175342916653,
                        "value": 1
                    },
                    {
                        "number": 64,
                        "time": 201.23048754999985,
                        "value": 0
                    },
                    {
                        "number": 64,
                        "time": 201.29819535833317,
                        "value": 1
                    },
                    {
                        "number": 64,
                        "time": 201.92341214166652,
                        "value": 0
                    },
                    {
                        "number": 64,
                        "time": 201.97527344166653,
                        "value": 1
                    },
                    {
                        "number": 64,
                        "time": 202.96063814166652,
                        "value": 0
                    },
                    {
                        "number": 64,
                        "time": 203.01682121666653,
                        "value": 1
                    },
                    {
                        "number": 64,
                        "time": 203.30638014166652,
                        "value": 0
                    },
                    {
                        "number": 64,
                        "time": 203.35824144166654,
                        "value": 1
                    },
                    {
                        "number": 64,
                        "time": 204.34360614166653,
                        "value": 0
                    },
                    {
                        "number": 64,
                        "time": 204.39978921666653,
                        "value": 1
                    },
                    {
                        "number": 64,
                        "time": 204.68934814166653,
                        "value": 0
                    },
                    {
                        "number": 64,
                        "time": 204.74120944166654,
                        "value": 1
                    },
                    {
                        "number": 64,
                        "time": 205.72657414166653,
                        "value": 0
                    },
                    {
                        "number": 64,
                        "time": 205.78275721666654,
                        "value": 1
                    },
                    {
                        "number": 64,
                        "time": 206.07231614166653,
                        "value": 0
                    },
                    {
                        "number": 64,
                        "time": 206.12417744166655,
                        "value": 1
                    },
                    {
                        "number": 64,
                        "time": 207.10954214166654,
                        "value": 0
                    },
                    {
                        "number": 64,
                        "time": 207.16572521666654,
                        "value": 1
                    },
                    {
                        "number": 64,
                        "time": 207.45528414166654,
                        "value": 0
                    },
                    {
                        "number": 64,
                        "time": 207.50714544166655,
                        "value": 1
                    },
                    {
                        "number": 64,
                        "time": 208.49251014166654,
                        "value": 0
                    },
                    {
                        "number": 64,
                        "time": 208.54869321666655,
                        "value": 1
                    },
                    {
                        "number": 64,
                        "time": 208.83825214166654,
                        "value": 0
                    },
                    {
                        "number": 64,
                        "time": 208.89011344166656,
                        "value": 1
                    },
                    {
                        "number": 64,
                        "time": 209.18255354999988,
                        "value": 0
                    },
                    {
                        "number": 64,
                        "time": 209.23513514583323,
                        "value": 1
                    },
                    {
                        "number": 64,
                        "time": 209.52469407083322,
                        "value": 0
                    },
                    {
                        "number": 64,
                        "time": 209.57079300416655,
                        "value": 1
                    },
                    {
                        "number": 64,
                        "time": 209.87547814166655,
                        "value": 0
                    },
                    {
                        "number": 64,
                        "time": 209.93166121666655,
                        "value": 1
                    },
                    {
                        "number": 64,
                        "time": 210.22122014166655,
                        "value": 0
                    },
                    {
                        "number": 64,
                        "time": 210.27308144166656,
                        "value": 1
                    },
                    {
                        "number": 64,
                        "time": 210.5655215499999,
                        "value": 0
                    },
                    {
                        "number": 64,
                        "time": 210.61810314583323,
                        "value": 1
                    },
                    {
                        "number": 64,
                        "time": 210.90766207083323,
                        "value": 0
                    },
                    {
                        "number": 64,
                        "time": 210.95376100416655,
                        "value": 1
                    },
                    {
                        "number": 64,
                        "time": 211.25844614166655,
                        "value": 0
                    },
                    {
                        "number": 64,
                        "time": 211.31462921666656,
                        "value": 1
                    },
                    {
                        "number": 64,
                        "time": 211.60418814166655,
                        "value": 0
                    },
                    {
                        "number": 64,
                        "time": 211.65604944166657,
                        "value": 1
                    },
                    {
                        "number": 64,
                        "time": 211.9484895499999,
                        "value": 0
                    },
                    {
                        "number": 64,
                        "time": 212.00107114583324,
                        "value": 1
                    },
                    {
                        "number": 64,
                        "time": 212.29063007083323,
                        "value": 0
                    },
                    {
                        "number": 64,
                        "time": 212.33672900416656,
                        "value": 1
                    },
                    {
                        "number": 64,
                        "time": 212.64141414166656,
                        "value": 0
                    },
                    {
                        "number": 64,
                        "time": 212.69759721666657,
                        "value": 1
                    },
                    {
                        "number": 64,
                        "time": 212.98715614166656,
                        "value": 0
                    },
                    {
                        "number": 64,
                        "time": 213.03901744166657,
                        "value": 1
                    },
                    {
                        "number": 64,
                        "time": 213.3314575499999,
                        "value": 0
                    },
                    {
                        "number": 64,
                        "time": 213.38403914583324,
                        "value": 1
                    },
                    {
                        "number": 64,
                        "time": 213.67359807083324,
                        "value": 0
                    },
                    {
                        "number": 64,
                        "time": 213.73482321666657,
                        "value": 1
                    },
                    {
                        "number": 64,
                        "time": 214.02438214166656,
                        "value": 0
                    },
                    {
                        "number": 64,
                        "time": 214.08056521666657,
                        "value": 1
                    },
                    {
                        "number": 64,
                        "time": 214.37012414166657,
                        "value": 0
                    },
                    {
                        "number": 64,
                        "time": 214.42198544166658,
                        "value": 1
                    },
                    {
                        "number": 64,
                        "time": 214.7144255499999,
                        "value": 0
                    },
                    {
                        "number": 64,
                        "time": 214.76700714583325,
                        "value": 1
                    },
                    {
                        "number": 64,
                        "time": 215.05656607083324,
                        "value": 0
                    },
                    {
                        "number": 64,
                        "time": 215.12139269583324,
                        "value": 1
                    },
                    {
                        "number": 64,
                        "time": 215.40735014166657,
                        "value": 0
                    },
                    {
                        "number": 64,
                        "time": 215.46353321666658,
                        "value": 1
                    },
                    {
                        "number": 64,
                        "time": 215.75309214166657,
                        "value": 0
                    },
                    {
                        "number": 64,
                        "time": 215.80495344166658,
                        "value": 1
                    },
                    {
                        "number": 64,
                        "time": 216.0973935499999,
                        "value": 0
                    },
                    {
                        "number": 64,
                        "time": 216.14997514583325,
                        "value": 1
                    },
                    {
                        "number": 64,
                        "time": 216.43953407083325,
                        "value": 0
                    },
                    {
                        "number": 64,
                        "time": 216.4964374416666,
                        "value": 1
                    },
                    {
                        "number": 64,
                        "time": 216.79031814166657,
                        "value": 0
                    },
                    {
                        "number": 64,
                        "time": 216.84650121666658,
                        "value": 1
                    },
                    {
                        "number": 64,
                        "time": 217.13606014166658,
                        "value": 0
                    },
                    {
                        "number": 64,
                        "time": 217.1879214416666,
                        "value": 1
                    },
                    {
                        "number": 64,
                        "time": 217.4803615499999,
                        "value": 0
                    },
                    {
                        "number": 64,
                        "time": 217.53294314583326,
                        "value": 1
                    },
                    {
                        "number": 64,
                        "time": 217.82250207083325,
                        "value": 0
                    },
                    {
                        "number": 64,
                        "time": 217.88732869583325,
                        "value": 1
                    },
                    {
                        "number": 64,
                        "time": 218.17328614166658,
                        "value": 0
                    },
                    {
                        "number": 64,
                        "time": 218.2294692166666,
                        "value": 1
                    },
                    {
                        "number": 64,
                        "time": 218.51902814166658,
                        "value": 0
                    },
                    {
                        "number": 64,
                        "time": 218.5708894416666,
                        "value": 1
                    },
                    {
                        "number": 64,
                        "time": 218.86332954999992,
                        "value": 0
                    },
                    {
                        "number": 64,
                        "time": 218.91591114583326,
                        "value": 1
                    },
                    {
                        "number": 64,
                        "time": 219.20547007083326,
                        "value": 0
                    },
                    {
                        "number": 64,
                        "time": 219.25156900416658,
                        "value": 1
                    },
                    {
                        "number": 64,
                        "time": 219.55625414166659,
                        "value": 0
                    },
                    {
                        "number": 64,
                        "time": 219.6124372166666,
                        "value": 1
                    },
                    {
                        "number": 64,
                        "time": 219.9019961416666,
                        "value": 0
                    },
                    {
                        "number": 64,
                        "time": 219.9538574416666,
                        "value": 1
                    },
                    {
                        "number": 64,
                        "time": 222.65784799999994,
                        "value": 0
                    },
                    {
                        "number": 64,
                        "time": 222.7320384708333,
                        "value": 1
                    },
                    {
                        "number": 64,
                        "time": 223.3529334791666,
                        "value": 0
                    },
                    {
                        "number": 64,
                        "time": 223.40695566666662,
                        "value": 1
                    },
                    {
                        "number": 64,
                        "time": 224.04081599999995,
                        "value": 0
                    },
                    {
                        "number": 64,
                        "time": 224.1193282458333,
                        "value": 1
                    },
                    {
                        "number": 64,
                        "time": 224.7459856208333,
                        "value": 0
                    },
                    {
                        "number": 64,
                        "time": 224.81513402083328,
                        "value": 1
                    },
                    {
                        "number": 64,
                        "time": 225.42378399999996,
                        "value": 0
                    },
                    {
                        "number": 64,
                        "time": 225.4979744708333,
                        "value": 1
                    },
                    {
                        "number": 64,
                        "time": 226.12103036666664,
                        "value": 0
                    },
                    {
                        "number": 64,
                        "time": 226.21034704999997,
                        "value": 1
                    },
                    {
                        "number": 64,
                        "time": 226.80675199999996,
                        "value": 0
                    },
                    {
                        "number": 64,
                        "time": 226.89318749999995,
                        "value": 1
                    },
                    {
                        "number": 64,
                        "time": 228.18971999999997,
                        "value": 0
                    },
                    {
                        "number": 64,
                        "time": 228.25166544166663,
                        "value": 1
                    },
                    {
                        "number": 64,
                        "time": 228.88768666249996,
                        "value": 0
                    },
                    {
                        "number": 64,
                        "time": 228.97196127499996,
                        "value": 1
                    },
                    {
                        "number": 64,
                        "time": 229.57268799999994,
                        "value": 0
                    },
                    {
                        "number": 64,
                        "time": 229.65552202083327,
                        "value": 1
                    },
                    {
                        "number": 64,
                        "time": 231.64713999999995,
                        "value": 0
                    },
                    {
                        "number": 64,
                        "time": 232.33862399999995,
                        "value": 0
                    },
                    {
                        "number": 64,
                        "time": 232.46107429166662,
                        "value": 1
                    },
                    {
                        "number": 64,
                        "time": 233.38161236666662,
                        "value": 0
                    },
                    {
                        "number": 64,
                        "time": 233.46732757083328,
                        "value": 1
                    },
                    {
                        "number": 64,
                        "time": 233.72159199999993,
                        "value": 0
                    },
                    {
                        "number": 64,
                        "time": 233.79290128749992,
                        "value": 1
                    },
                    {
                        "number": 64,
                        "time": 234.77178332499992,
                        "value": 0
                    },
                    {
                        "number": 64,
                        "time": 234.86542178333326,
                        "value": 1
                    },
                    {
                        "number": 64,
                        "time": 235.10455999999994,
                        "value": 0
                    },
                    {
                        "number": 64,
                        "time": 235.29687898749992,
                        "value": 1
                    },
                    {
                        "number": 64,
                        "time": 235.98836298749993,
                        "value": 0
                    },
                    {
                        "number": 64,
                        "time": 236.15691221249992,
                        "value": 1
                    },
                    {
                        "number": 64,
                        "time": 236.49040918333324,
                        "value": 0
                    },
                    {
                        "number": 64,
                        "time": 239.00424164166657,
                        "value": 1
                    },
                    {
                        "number": 64,
                        "time": 239.2534639999999,
                        "value": 0
                    },
                    {
                        "number": 64,
                        "time": 241.7600934999999,
                        "value": 1
                    },
                    {
                        "number": 64,
                        "time": 242.0193999999999,
                        "value": 0
                    },
                    {
                        "number": 64,
                        "time": 242.45661957083323,
                        "value": 1
                    },
                    {
                        "number": 64,
                        "time": 242.71592607083323,
                        "value": 0
                    },
                    {
                        "number": 64,
                        "time": 243.14810357083323,
                        "value": 1
                    },
                    {
                        "number": 64,
                        "time": 243.41461302916656,
                        "value": 0
                    },
                    {
                        "number": 64,
                        "time": 243.85327319166657,
                        "value": 1
                    },
                    {
                        "number": 64,
                        "time": 244.1024955499999,
                        "value": 0
                    },
                    {
                        "number": 64,
                        "time": 246.17622725416658,
                        "value": 0
                    },
                    {
                        "number": 64,
                        "time": 246.21656382083324,
                        "value": 1
                    },
                    {
                        "number": 64,
                        "time": 247.55919525416658,
                        "value": 0
                    },
                    {
                        "number": 64,
                        "time": 247.59953182083325,
                        "value": 1
                    },
                    {
                        "number": 64,
                        "time": 248.9342399999999,
                        "value": 0
                    },
                    {
                        "number": 64,
                        "time": 248.9904230749999,
                        "value": 1
                    },
                    {
                        "number": 64,
                        "time": 250.32513125416656,
                        "value": 0
                    },
                    {
                        "number": 64,
                        "time": 250.39644054166655,
                        "value": 1
                    },
                    {
                        "number": 64,
                        "time": 251.70017599999989,
                        "value": 0
                    },
                    {
                        "number": 64,
                        "time": 251.77436647083323,
                        "value": 1
                    },
                    {
                        "number": 64,
                        "time": 253.0831439999999,
                        "value": 0
                    },
                    {
                        "number": 64,
                        "time": 253.1393270749999,
                        "value": 1
                    },
                    {
                        "number": 64,
                        "time": 254.4661119999999,
                        "value": 0
                    },
                    {
                        "number": 64,
                        "time": 254.53742128749988,
                        "value": 1
                    },
                    {
                        "number": 64,
                        "time": 255.84907999999987,
                        "value": 0
                    },
                    {
                        "number": 64,
                        "time": 255.94559964166655,
                        "value": 1
                    },
                    {
                        "number": 64,
                        "time": 256.55064814166656,
                        "value": 0
                    },
                    {
                        "number": 64,
                        "time": 256.6104326958332,
                        "value": 1
                    },
                    {
                        "number": 64,
                        "time": 257.23204799999985,
                        "value": 0
                    },
                    {
                        "number": 64,
                        "time": 257.3285676416665,
                        "value": 1
                    },
                    {
                        "number": 64,
                        "time": 257.9336161416665,
                        "value": 0
                    },
                    {
                        "number": 64,
                        "time": 258.03013578333315,
                        "value": 1
                    },
                    {
                        "number": 64,
                        "time": 258.6150159999998,
                        "value": 0
                    },
                    {
                        "number": 64,
                        "time": 258.71153564166644,
                        "value": 1
                    },
                    {
                        "number": 64,
                        "time": 259.31658414166645,
                        "value": 0
                    },
                    {
                        "number": 64,
                        "time": 259.4131037833331,
                        "value": 1
                    },
                    {
                        "number": 64,
                        "time": 259.99798399999975,
                        "value": 0
                    },
                    {
                        "number": 64,
                        "time": 260.0945036416664,
                        "value": 1
                    },
                    {
                        "number": 64,
                        "time": 260.6995521416664,
                        "value": 0
                    },
                    {
                        "number": 64,
                        "time": 260.7658193583331,
                        "value": 1
                    },
                    {
                        "number": 64,
                        "time": 261.38311288749975,
                        "value": 0
                    },
                    {
                        "number": 64,
                        "time": 262.04218357499974,
                        "value": 1
                    },
                    {
                        "number": 64,
                        "time": 262.73870964583307,
                        "value": 0
                    },
                    {
                        "number": 64,
                        "time": 262.76391999999976,
                        "value": 1
                    },
                    {
                        "number": 64,
                        "time": 263.0930951958331,
                        "value": 0
                    },
                    {
                        "number": 64,
                        "time": 263.43883719583306,
                        "value": 1
                    },
                    {
                        "number": 64,
                        "time": 264.1468879999997,
                        "value": 0
                    },
                    {
                        "number": 64,
                        "time": 264.3586549749997,
                        "value": 1
                    },
                    {
                        "number": 64,
                        "time": 264.58410757083305,
                        "value": 0
                    },
                    {
                        "number": 64,
                        "time": 264.9608222916664,
                        "value": 1
                    },
                    {
                        "number": 64,
                        "time": 265.9721176416664,
                        "value": 0
                    },
                    {
                        "number": 64,
                        "time": 266.9128239999997,
                        "value": 0
                    },
                    {
                        "number": 64,
                        "time": 266.9992594999997,
                        "value": 1
                    },
                    {
                        "number": 64,
                        "time": 267.9601341416664,
                        "value": 0
                    },
                    {
                        "number": 64,
                        "time": 268.03648549999974,
                        "value": 1
                    },
                    {
                        "number": 64,
                        "time": 268.3051558458331,
                        "value": 0
                    },
                    {
                        "number": 64,
                        "time": 268.3987943041664,
                        "value": 1
                    },
                    {
                        "number": 64,
                        "time": 269.33517888749975,
                        "value": 0
                    },
                    {
                        "number": 64,
                        "time": 269.4028866958331,
                        "value": 1
                    },
                    {
                        "number": 64,
                        "time": 269.68236147916645,
                        "value": 0
                    },
                    {
                        "number": 64,
                        "time": 269.77383904999976,
                        "value": 1
                    },
                    {
                        "number": 64,
                        "time": 270.7239092541664,
                        "value": 0
                    },
                    {
                        "number": 64,
                        "time": 270.7901764708331,
                        "value": 1
                    },
                    {
                        "number": 64,
                        "time": 271.0617279999998,
                        "value": 0
                    },
                    {
                        "number": 64,
                        "time": 271.1532055708331,
                        "value": 1
                    },
                    {
                        "number": 64,
                        "time": 271.75897436666645,
                        "value": 0
                    },
                    {
                        "number": 64,
                        "time": 271.84973164166644,
                        "value": 1
                    },
                    {
                        "number": 64,
                        "time": 272.4497380708331,
                        "value": 0
                    },
                    {
                        "number": 64,
                        "time": 272.5570621499998,
                        "value": 1
                    },
                    {
                        "number": 64,
                        "time": 273.1405017749998,
                        "value": 0
                    },
                    {
                        "number": 64,
                        "time": 273.2485461499998,
                        "value": 1
                    },
                    {
                        "number": 64,
                        "time": 273.8276639999998,
                        "value": 0
                    },
                    {
                        "number": 64,
                        "time": 273.9292257124998,
                        "value": 1
                    },
                    {
                        "number": 64,
                        "time": 274.8648899999998,
                        "value": 0
                    },
                    {
                        "number": 64,
                        "time": 274.9160310041664,
                        "value": 1
                    },
                    {
                        "number": 64,
                        "time": 275.21063199999975,
                        "value": 0
                    },
                    {
                        "number": 64,
                        "time": 275.3755797458331,
                        "value": 1
                    },
                    {
                        "number": 64,
                        "time": 275.56501754999977,
                        "value": 0
                    },
                    {
                        "number": 64,
                        "time": 275.7047549416664,
                        "value": 1
                    },
                    {
                        "number": 64,
                        "time": 275.9078783666664,
                        "value": 0
                    },
                    {
                        "number": 64,
                        "time": 276.03393013749974,
                        "value": 1
                    },
                    {
                        "number": 64,
                        "time": 276.26082332499976,
                        "value": 0
                    },
                    {
                        "number": 64,
                        "time": 276.3962389416664,
                        "value": 1
                    },
                    {
                        "number": 64,
                        "time": 276.59359999999975,
                        "value": 0
                    },
                    {
                        "number": 64,
                        "time": 276.80536697499974,
                        "value": 1
                    },
                    {
                        "number": 64,
                        "time": 277.2901260708331,
                        "value": 0
                    },
                    {
                        "number": 64,
                        "time": 277.4392273083331,
                        "value": 1
                    },
                    {
                        "number": 64,
                        "time": 277.6380289583331,
                        "value": 0
                    },
                    {
                        "number": 64,
                        "time": 277.7655213208331,
                        "value": 1
                    },
                    {
                        "number": 64,
                        "time": 277.97656799999976,
                        "value": 0
                    },
                    {
                        "number": 64,
                        "time": 278.06084261249975,
                        "value": 1
                    },
                    {
                        "number": 64,
                        "time": 278.68317821249974,
                        "value": 0
                    },
                    {
                        "number": 64,
                        "time": 278.76745282499974,
                        "value": 1
                    },
                    {
                        "number": 64,
                        "time": 279.35953599999976,
                        "value": 0
                    },
                    {
                        "number": 64,
                        "time": 280.4255738333331,
                        "value": 1
                    },
                    {
                        "number": 64,
                        "time": 280.4255738333331,
                        "value": 1
                    },
                    {
                        "number": 64,
                        "time": 280.75114754999976,
                        "value": 0
                    },
                    {
                        "number": 64,
                        "time": 280.75114754999976,
                        "value": 0
                    },
                    {
                        "number": 64,
                        "time": 281.8085418333331,
                        "value": 1
                    },
                    {
                        "number": 64,
                        "time": 282.13411554999976,
                        "value": 0
                    },
                    {
                        "number": 64,
                        "time": 283.1915098333331,
                        "value": 1
                    },
                    {
                        "number": 64,
                        "time": 283.51708354999977,
                        "value": 0
                    },
                    {
                        "number": 64,
                        "time": 284.58168079166643,
                        "value": 1
                    },
                    {
                        "number": 64,
                        "time": 284.8914079999998,
                        "value": 0
                    },
                    {
                        "number": 64,
                        "time": 285.3156622458331,
                        "value": 1
                    },
                    {
                        "number": 64,
                        "time": 285.59513702916644,
                        "value": 0
                    },
                    {
                        "number": 64,
                        "time": 286.0071462458331,
                        "value": 1
                    },
                    {
                        "number": 64,
                        "time": 286.2952645791664,
                        "value": 0
                    },
                    {
                        "number": 64,
                        "time": 287.3404138333331,
                        "value": 1
                    },
                    {
                        "number": 64,
                        "time": 287.6659875499998,
                        "value": 0
                    },
                    {
                        "number": 64,
                        "time": 287.71928944166643,
                        "value": 1
                    },
                    {
                        "number": 64,
                        "time": 287.9418608541664,
                        "value": 0
                    },
                    {
                        "number": 64,
                        "time": 288.08159824583305,
                        "value": 1
                    },
                    {
                        "number": 64,
                        "time": 288.24582569583305,
                        "value": 0
                    },
                    {
                        "number": 64,
                        "time": 288.4028501874997,
                        "value": 1
                    },
                    {
                        "number": 64,
                        "time": 288.5958894708331,
                        "value": 0
                    },
                    {
                        "number": 64,
                        "time": 288.72338183333306,
                        "value": 1
                    },
                    {
                        "number": 64,
                        "time": 289.04895554999973,
                        "value": 0
                    },
                    {
                        "number": 64,
                        "time": 289.1101806958331,
                        "value": 1
                    },
                    {
                        "number": 64,
                        "time": 289.3039402749998,
                        "value": 0
                    },
                    {
                        "number": 64,
                        "time": 289.4436776666664,
                        "value": 1
                    },
                    {
                        "number": 64,
                        "time": 289.64536049999975,
                        "value": 0
                    },
                    {
                        "number": 64,
                        "time": 289.78941966666645,
                        "value": 1
                    },
                    {
                        "number": 64,
                        "time": 290.0119910791664,
                        "value": 0
                    },
                    {
                        "number": 64,
                        "time": 290.10634983333307,
                        "value": 1
                    },
                    {
                        "number": 64,
                        "time": 290.43192354999974,
                        "value": 0
                    },
                    {
                        "number": 64,
                        "time": 290.4931486958331,
                        "value": 1
                    },
                    {
                        "number": 64,
                        "time": 290.6292846083331,
                        "value": 0
                    },
                    {
                        "number": 64,
                        "time": 290.8144006374998,
                        "value": 1
                    },
                    {
                        "number": 64,
                        "time": 291.03697204999975,
                        "value": 0
                    },
                    {
                        "number": 64,
                        "time": 291.16878618749973,
                        "value": 1
                    },
                    {
                        "number": 64,
                        "time": 291.4691495499997,
                        "value": 0
                    },
                    {
                        "number": 64,
                        "time": 291.54334002083306,
                        "value": 1
                    },
                    {
                        "number": 64,
                        "time": 291.81489154999974,
                        "value": 0
                    },
                    {
                        "number": 64,
                        "time": 291.8761166958331,
                        "value": 1
                    },
                    {
                        "number": 64,
                        "time": 292.0655544999998,
                        "value": 0
                    },
                    {
                        "number": 64,
                        "time": 292.2348240208331,
                        "value": 1
                    },
                    {
                        "number": 64,
                        "time": 292.3990514708331,
                        "value": 0
                    },
                    {
                        "number": 64,
                        "time": 292.5517541874998,
                        "value": 1
                    },
                    {
                        "number": 64,
                        "time": 292.7656820499998,
                        "value": 0
                    },
                    {
                        "number": 64,
                        "time": 292.8521175499998,
                        "value": 0
                    },
                    {
                        "number": 64,
                        "time": 292.9263080208331,
                        "value": 1
                    },
                    {
                        "number": 64,
                        "time": 293.1978595499998,
                        "value": 0
                    },
                    {
                        "number": 64,
                        "time": 293.25908469583317,
                        "value": 1
                    },
                    {
                        "number": 64,
                        "time": 293.44852249999985,
                        "value": 0
                    },
                    {
                        "number": 64,
                        "time": 293.6177920208332,
                        "value": 1
                    },
                    {
                        "number": 64,
                        "time": 293.7820194708332,
                        "value": 0
                    },
                    {
                        "number": 64,
                        "time": 293.93472218749986,
                        "value": 1
                    },
                    {
                        "number": 64,
                        "time": 294.14865004999984,
                        "value": 0
                    },
                    {
                        "number": 64,
                        "time": 294.23508554999984,
                        "value": 0
                    },
                    {
                        "number": 64,
                        "time": 294.3092760208332,
                        "value": 1
                    },
                    {
                        "number": 64,
                        "time": 294.58082754999987,
                        "value": 0
                    },
                    {
                        "number": 64,
                        "time": 294.64205269583323,
                        "value": 1
                    },
                    {
                        "number": 64,
                        "time": 294.8314904999999,
                        "value": 0
                    },
                    {
                        "number": 64,
                        "time": 295.00076002083324,
                        "value": 1
                    },
                    {
                        "number": 64,
                        "time": 295.16498747083324,
                        "value": 0
                    },
                    {
                        "number": 64,
                        "time": 295.3176901874999,
                        "value": 1
                    },
                    {
                        "number": 64,
                        "time": 295.5316180499999,
                        "value": 0
                    },
                    {
                        "number": 64,
                        "time": 295.6180535499999,
                        "value": 0
                    },
                    {
                        "number": 64,
                        "time": 295.69224402083324,
                        "value": 1
                    },
                    {
                        "number": 64,
                        "time": 295.96379554999993,
                        "value": 0
                    },
                    {
                        "number": 64,
                        "time": 296.0250206958333,
                        "value": 1
                    },
                    {
                        "number": 64,
                        "time": 296.2144585,
                        "value": 0
                    },
                    {
                        "number": 64,
                        "time": 296.3837280208333,
                        "value": 1
                    },
                    {
                        "number": 64,
                        "time": 296.5479554708333,
                        "value": 0
                    },
                    {
                        "number": 64,
                        "time": 296.7006581875,
                        "value": 1
                    },
                    {
                        "number": 64,
                        "time": 296.91458604999997,
                        "value": 0
                    },
                    {
                        "number": 64,
                        "time": 297.0211898333333,
                        "value": 1
                    },
                    {
                        "number": 64,
                        "time": 297.26032805,
                        "value": 0
                    },
                    {
                        "number": 64,
                        "time": 297.342441775,
                        "value": 1
                    },
                    {
                        "number": 64,
                        "time": 297.6860228875,
                        "value": 0
                    },
                    {
                        "number": 64,
                        "time": 297.73788418749996,
                        "value": 1
                    },
                    {
                        "number": 64,
                        "time": 298.72108799999995,
                        "value": 0
                    },
                    {
                        "number": 64,
                        "time": 298.77511018749993,
                        "value": 1
                    },
                    {
                        "number": 64,
                        "time": 299.4183343666666,
                        "value": 0
                    },
                    {
                        "number": 64,
                        "time": 299.5278193333333,
                        "value": 1
                    },
                    {
                        "number": 64,
                        "time": 299.76839814166664,
                        "value": 0
                    },
                    {
                        "number": 64,
                        "time": 299.81233618749997,
                        "value": 1
                    },
                    {
                        "number": 64,
                        "time": 300.10405599999996,
                        "value": 0
                    },
                    {
                        "number": 64,
                        "time": 300.1868900208333,
                        "value": 1
                    },
                    {
                        "number": 64,
                        "time": 300.4519588874999,
                        "value": 0
                    },
                    {
                        "number": 64,
                        "time": 300.5038201874999,
                        "value": 1
                    },
                    {
                        "number": 64,
                        "time": 301.4870239999999,
                        "value": 0
                    },
                    {
                        "number": 64,
                        "time": 301.69302860833324,
                        "value": 1
                    },
                    {
                        "number": 64,
                        "time": 302.18427036666657,
                        "value": 0
                    },
                    {
                        "number": 64,
                        "time": 302.4032402999999,
                        "value": 1
                    },
                    {
                        "number": 64,
                        "time": 302.86999199999985,
                        "value": 0
                    },
                    {
                        "number": 64,
                        "time": 302.9852393333332,
                        "value": 1
                    },
                    {
                        "number": 64,
                        "time": 304.2608832541665,
                        "value": 0
                    },
                    {
                        "number": 64,
                        "time": 304.3012198208332,
                        "value": 1
                    },
                    {
                        "number": 64,
                        "time": 305.63592799999986,
                        "value": 0
                    },
                    {
                        "number": 64,
                        "time": 305.72236349999986,
                        "value": 1
                    },
                    {
                        "number": 64,
                        "time": 307.01889599999987,
                        "value": 0
                    },
                    {
                        "number": 64,
                        "time": 307.0952473583332,
                        "value": 1
                    },
                    {
                        "number": 64,
                        "time": 307.71686266249986,
                        "value": 0
                    },
                    {
                        "number": 64,
                        "time": 307.79177342916654,
                        "value": 1
                    },
                    {
                        "number": 64,
                        "time": 308.4018639999999,
                        "value": 0
                    },
                    {
                        "number": 64,
                        "time": 308.5214331083332,
                        "value": 1
                    },
                    {
                        "number": 64,
                        "time": 309.7848319999999,
                        "value": 0
                    },
                    {
                        "number": 64,
                        "time": 309.8561412874999,
                        "value": 1
                    },
                    {
                        "number": 64,
                        "time": 310.48640014166654,
                        "value": 0
                    },
                    {
                        "number": 64,
                        "time": 310.5829197833332,
                        "value": 1
                    },
                    {
                        "number": 64,
                        "time": 311.1764435499999,
                        "value": 0
                    },
                    {
                        "number": 64,
                        "time": 311.2391092874999,
                        "value": 1
                    },
                    {
                        "number": 64,
                        "time": 311.8686478458332,
                        "value": 0
                    },
                    {
                        "number": 64,
                        "time": 311.93563535833323,
                        "value": 1
                    },
                    {
                        "number": 64,
                        "time": 312.57093628333325,
                        "value": 0
                    },
                    {
                        "number": 64,
                        "time": 312.6321614291666,
                        "value": 1
                    },
                    {
                        "number": 64,
                        "time": 313.25089554999994,
                        "value": 0
                    },
                    {
                        "number": 64,
                        "time": 313.3186033583333,
                        "value": 1
                    },
                    {
                        "number": 64,
                        "time": 313.9416592541666,
                        "value": 0
                    },
                    {
                        "number": 64,
                        "time": 314.00504528749997,
                        "value": 1
                    },
                    {
                        "number": 64,
                        "time": 314.98104614166664,
                        "value": 0
                    },
                    {
                        "number": 64,
                        "time": 315.0624395708333,
                        "value": 1
                    },
                    {
                        "number": 64,
                        "time": 315.31670399999996,
                        "value": 0
                    },
                    {
                        "number": 64,
                        "time": 315.3930553583333,
                        "value": 1
                    },
                    {
                        "number": 64,
                        "time": 316.3604126625,
                        "value": 0
                    },
                    {
                        "number": 64,
                        "time": 316.4201972166666,
                        "value": 1
                    },
                    {
                        "number": 64,
                        "time": 316.7075952541666,
                        "value": 0
                    },
                    {
                        "number": 64,
                        "time": 316.7709812875,
                        "value": 1
                    },
                    {
                        "number": 64,
                        "time": 317.74698214166665,
                        "value": 0
                    },
                    {
                        "number": 64,
                        "time": 317.8283755708333,
                        "value": 1
                    },
                    {
                        "number": 64,
                        "time": 318.08263999999997,
                        "value": 0
                    },
                    {
                        "number": 64,
                        "time": 318.1589913583333,
                        "value": 1
                    },
                    {
                        "number": 64,
                        "time": 319.1263486625,
                        "value": 0
                    },
                    {
                        "number": 64,
                        "time": 319.18613321666663,
                        "value": 1
                    },
                    {
                        "number": 64,
                        "time": 319.47353125416663,
                        "value": 0
                    },
                    {
                        "number": 64,
                        "time": 319.56716971249995,
                        "value": 1
                    },
                    {
                        "number": 64,
                        "time": 320.5129181416666,
                        "value": 0
                    },
                    {
                        "number": 64,
                        "time": 320.59431157083327,
                        "value": 1
                    },
                    {
                        "number": 64,
                        "time": 320.8485759999999,
                        "value": 0
                    },
                    {
                        "number": 64,
                        "time": 320.92492735833326,
                        "value": 1
                    },
                    {
                        "number": 64,
                        "time": 321.89228466249995,
                        "value": 0
                    },
                    {
                        "number": 64,
                        "time": 321.9520692166666,
                        "value": 1
                    },
                    {
                        "number": 64,
                        "time": 322.2394672541666,
                        "value": 0
                    },
                    {
                        "number": 64,
                        "time": 322.30285328749994,
                        "value": 1
                    },
                    {
                        "number": 64,
                        "time": 323.2788541416666,
                        "value": 0
                    },
                    {
                        "number": 64,
                        "time": 323.3602475708333,
                        "value": 1
                    },
                    {
                        "number": 64,
                        "time": 323.61451199999993,
                        "value": 0
                    },
                    {
                        "number": 64,
                        "time": 323.6908633583333,
                        "value": 1
                    },
                    {
                        "number": 64,
                        "time": 324.65822066249996,
                        "value": 0
                    },
                    {
                        "number": 64,
                        "time": 324.7180052166666,
                        "value": 1
                    },
                    {
                        "number": 64,
                        "time": 324.99747999999994,
                        "value": 0
                    },
                    {
                        "number": 64,
                        "time": 325.0738313583333,
                        "value": 1
                    },
                    {
                        "number": 64,
                        "time": 328.22440533333327,
                        "value": 0
                    }
                ]
            },
            "id": 3,
            "name": "Pedale",
            "instrumentNumber": 0,
            "instrument": "acoustic grand piano",
            "instrumentFamily": "piano",
            "channelNumber": 0,
            "isPercussion": false
        },
        {
            "startTime": 0,
            "duration": 0,
            "length": 0,
            "notes": [],
            "controlChanges": {},
            "id": 4,
            "name": "Haydn: Sonata Hoboken XVI:35 1. movement"
        },
        {
            "startTime": 0,
            "duration": 0,
            "length": 0,
            "notes": [],
            "controlChanges": {},
            "id": 5,
            "name": "Copyright  2009 by Bernd Krueger"
        },
        {
            "startTime": 0,
            "duration": 0,
            "length": 0,
            "notes": [],
            "controlChanges": {},
            "id": 6,
            "name": "http://www.piano-midi.de/"
        },
        {
            "startTime": 0,
            "duration": 0,
            "length": 0,
            "notes": [],
            "controlChanges": {},
            "id": 7,
            "name": "Edition: 2011-12-04"
        },
        {
            "startTime": 0,
            "duration": 0,
            "length": 0,
            "notes": [],
            "controlChanges": {},
            "id": 8,
            "name": "Spur 8"
        },
        {
            "startTime": 0,
            "duration": 0,
            "length": 0,
            "notes": [],
            "controlChanges": {},
            "id": 9,
            "name": "Spur 9"
        },
        {
            "startTime": 0,
            "duration": 0,
            "length": 0,
            "notes": [],
            "controlChanges": {},
            "id": 10,
            "name": "Spur 10"
        },
        {
            "startTime": 0,
            "duration": 0,
            "length": 0,
            "notes": [],
            "controlChanges": {},
            "id": 11,
            "name": "Spur 11"
        },
        {
            "startTime": 0,
            "duration": 0,
            "length": 0,
            "notes": [],
            "controlChanges": {},
            "id": 12,
            "name": "Spur 12"
        },
        {
            "startTime": 0,
            "duration": 0,
            "length": 0,
            "notes": [],
            "controlChanges": {},
            "id": 13,
            "name": "Spur 13"
        },
        {
            "startTime": 0,
            "duration": 0,
            "length": 0,
            "notes": [],
            "controlChanges": {},
            "id": 14,
            "name": "Spur 14"
        },
        {
            "startTime": 0,
            "duration": 0,
            "length": 0,
            "notes": [],
            "controlChanges": {},
            "id": 15,
            "name": "Spur 15"
        },
        {
            "startTime": 0,
            "duration": 0,
            "length": 0,
            "notes": [],
            "controlChanges": {},
            "id": 16,
            "name": "Spur 16"
        }
    ]
}