{
    "header": {
        "PPQ": 480,
        "timeSignature": [
            2,
            4
        ],
        "bpm": 135.40991967934931,
        "name": "Haydn: Klaviersonate Hoboken XVI: 43 3. Satz"
    },
    "startTime": 0,
    "duration": 286.24195400000053,
    "tracks": [
        {
            "startTime": 0,
            "duration": 0,
            "length": 0,
            "notes": [],
            "controlChanges": {},
            "id": 0,
            "name": "Haydn: Klaviersonate Hoboken XVI: 43 3. Satz"
        },
        {
            "startTime": 0.6646485,
            "duration": 286.2419539999974,
            "length": 1516,
            "notes": [
                {
                    "name": "C5",
                    "midi": 72,
                    "time": 0.6646485,
                    "velocity": 0.47244094488188976,
                    "duration": 0.11077475000000003
                },
                {
                    "name": "C#5",
                    "midi": 73,
                    "time": 0.77542325,
                    "velocity": 0.4330708661417323,
                    "duration": 0.11077475000000003
                },
                {
                    "name": "D#5",
                    "midi": 75,
                    "time": 0.886198,
                    "velocity": 0.47244094488188976,
                    "duration": 0.08308106250000002
                },
                {
                    "name": "D#5",
                    "midi": 75,
                    "time": 1.1077475,
                    "velocity": 0.48031496062992124,
                    "duration": 0.08308106250000002
                },
                {
                    "name": "D#5",
                    "midi": 75,
                    "time": 1.3292970000000002,
                    "velocity": 0.49606299212598426,
                    "duration": 0.08308106250000002
                },
                {
                    "name": "G#5",
                    "midi": 80,
                    "time": 1.5508465000000002,
                    "velocity": 0.5433070866141733,
                    "duration": 0.08308106250000002
                },
                {
                    "name": "D#5",
                    "midi": 75,
                    "time": 1.7723960000000003,
                    "velocity": 0.48031496062992124,
                    "duration": 0.6646485
                },
                {
                    "name": "C#5",
                    "midi": 73,
                    "time": 2.4370445000000003,
                    "velocity": 0.44881889763779526,
                    "duration": 0.11077475000000003
                },
                {
                    "name": "C5",
                    "midi": 72,
                    "time": 2.5478192500000003,
                    "velocity": 0.4251968503937008,
                    "duration": 0.11077475000000003
                },
                {
                    "name": "A#4",
                    "midi": 70,
                    "time": 2.6585940000000003,
                    "velocity": 0.47244094488188976,
                    "duration": 0.44309900000000013
                },
                {
                    "name": "C5",
                    "midi": 72,
                    "time": 3.1016930000000005,
                    "velocity": 0.4645669291338583,
                    "duration": 0.44309900000000013
                },
                {
                    "name": "D#5",
                    "midi": 75,
                    "time": 3.5447920000000006,
                    "velocity": 0.4645669291338583,
                    "duration": 0.22154950000000007
                },
                {
                    "name": "C#5",
                    "midi": 73,
                    "time": 3.7663415000000007,
                    "velocity": 0.4015748031496063,
                    "duration": 0.055387375000000016
                },
                {
                    "name": "D#5",
                    "midi": 75,
                    "time": 3.8217288750000007,
                    "velocity": 0.36220472440944884,
                    "duration": 0.055387375000000016
                },
                {
                    "name": "C#5",
                    "midi": 73,
                    "time": 3.8771162500000007,
                    "velocity": 0.4015748031496063,
                    "duration": 0.11077475000000003
                },
                {
                    "name": "C5",
                    "midi": 72,
                    "time": 3.9878910000000007,
                    "velocity": 0.4645669291338583,
                    "duration": 0.11077474999999959
                },
                {
                    "name": "C5",
                    "midi": 72,
                    "time": 4.2094405,
                    "velocity": 0.47244094488188976,
                    "duration": 0.11077475000000003
                },
                {
                    "name": "C#5",
                    "midi": 73,
                    "time": 4.32021525,
                    "velocity": 0.4330708661417323,
                    "duration": 0.11077475000000003
                },
                {
                    "name": "D#5",
                    "midi": 75,
                    "time": 4.43099,
                    "velocity": 0.47244094488188976,
                    "duration": 0.0830810624999998
                },
                {
                    "name": "D#5",
                    "midi": 75,
                    "time": 4.6525395000000005,
                    "velocity": 0.4645669291338583,
                    "duration": 0.0830810624999998
                },
                {
                    "name": "D#5",
                    "midi": 75,
                    "time": 4.874089000000001,
                    "velocity": 0.5039370078740157,
                    "duration": 0.0830810624999998
                },
                {
                    "name": "G#5",
                    "midi": 80,
                    "time": 5.095638500000001,
                    "velocity": 0.5196850393700787,
                    "duration": 0.0830810624999998
                },
                {
                    "name": "D#5",
                    "midi": 75,
                    "time": 5.317188000000001,
                    "velocity": 0.48031496062992124,
                    "duration": 0.6646485000000002
                },
                {
                    "name": "C#5",
                    "midi": 73,
                    "time": 5.981836500000001,
                    "velocity": 0.44881889763779526,
                    "duration": 0.11077475000000003
                },
                {
                    "name": "C5",
                    "midi": 72,
                    "time": 6.092611250000001,
                    "velocity": 0.4251968503937008,
                    "duration": 0.11077475000000003
                },
                {
                    "name": "A#4",
                    "midi": 70,
                    "time": 6.203386000000001,
                    "velocity": 0.47244094488188976,
                    "duration": 0.22154950000000007
                },
                {
                    "name": "C#5",
                    "midi": 73,
                    "time": 6.424935500000001,
                    "velocity": 0.4015748031496063,
                    "duration": 0.1661621249999996
                },
                {
                    "name": "G4",
                    "midi": 67,
                    "time": 6.646485,
                    "velocity": 0.4645669291338583,
                    "duration": 0.22154950000000007
                },
                {
                    "name": "A#4",
                    "midi": 70,
                    "time": 6.8680345,
                    "velocity": 0.3937007874015748,
                    "duration": 0.1661621249999996
                },
                {
                    "name": "G#4",
                    "midi": 68,
                    "time": 7.089583999999999,
                    "velocity": 0.47244094488188976,
                    "duration": 0.44309900000000013
                },
                {
                    "name": "C5",
                    "midi": 72,
                    "time": 7.7542325,
                    "velocity": 0.47244094488188976,
                    "duration": 0.11077475000000003
                },
                {
                    "name": "C#5",
                    "midi": 73,
                    "time": 7.86500725,
                    "velocity": 0.4330708661417323,
                    "duration": 0.11077475000000003
                },
                {
                    "name": "D#5",
                    "midi": 75,
                    "time": 7.975782,
                    "velocity": 0.47244094488188976,
                    "duration": 0.08308106250000069
                },
                {
                    "name": "D#5",
                    "midi": 75,
                    "time": 8.1973315,
                    "velocity": 0.4566929133858268,
                    "duration": 0.0830810624999998
                },
                {
                    "name": "D#5",
                    "midi": 75,
                    "time": 8.418881,
                    "velocity": 0.5039370078740157,
                    "duration": 0.0830810624999998
                },
                {
                    "name": "G#5",
                    "midi": 80,
                    "time": 8.6404305,
                    "velocity": 0.5196850393700787,
                    "duration": 0.0830810624999998
                },
                {
                    "name": "D#5",
                    "midi": 75,
                    "time": 8.86198,
                    "velocity": 0.48031496062992124,
                    "duration": 0.6646485000000002
                },
                {
                    "name": "C#5",
                    "midi": 73,
                    "time": 9.526628500000001,
                    "velocity": 0.44881889763779526,
                    "duration": 0.11077474999999914
                },
                {
                    "name": "C5",
                    "midi": 72,
                    "time": 9.63740325,
                    "velocity": 0.4251968503937008,
                    "duration": 0.11077474999999914
                },
                {
                    "name": "A#4",
                    "midi": 70,
                    "time": 9.748178,
                    "velocity": 0.47244094488188976,
                    "duration": 0.44309900000000013
                },
                {
                    "name": "C5",
                    "midi": 72,
                    "time": 10.191277,
                    "velocity": 0.4645669291338583,
                    "duration": 0.44309900000000013
                },
                {
                    "name": "D#5",
                    "midi": 75,
                    "time": 10.634376,
                    "velocity": 0.4645669291338583,
                    "duration": 0.22154950000000007
                },
                {
                    "name": "C#5",
                    "midi": 73,
                    "time": 10.8559255,
                    "velocity": 0.4015748031496063,
                    "duration": 0.05538737500000046
                },
                {
                    "name": "D#5",
                    "midi": 75,
                    "time": 10.911312875,
                    "velocity": 0.36220472440944884,
                    "duration": 0.05538737500000046
                },
                {
                    "name": "C#5",
                    "midi": 73,
                    "time": 10.96670025,
                    "velocity": 0.4015748031496063,
                    "duration": 0.11077474999999914
                },
                {
                    "name": "C5",
                    "midi": 72,
                    "time": 11.077475,
                    "velocity": 0.4645669291338583,
                    "duration": 0.22154950000000007
                },
                {
                    "name": "C5",
                    "midi": 72,
                    "time": 11.2990245,
                    "velocity": 0.47244094488188976,
                    "duration": 0.11077474999999914
                },
                {
                    "name": "C#5",
                    "midi": 73,
                    "time": 11.409799249999999,
                    "velocity": 0.4330708661417323,
                    "duration": 0.11077474999999914
                },
                {
                    "name": "D#5",
                    "midi": 75,
                    "time": 11.520573999999998,
                    "velocity": 0.47244094488188976,
                    "duration": 0.0830810624999998
                },
                {
                    "name": "D#5",
                    "midi": 75,
                    "time": 11.742123499999998,
                    "velocity": 0.48031496062992124,
                    "duration": 0.0830810624999998
                },
                {
                    "name": "D#5",
                    "midi": 75,
                    "time": 11.963672999999998,
                    "velocity": 0.48031496062992124,
                    "duration": 0.0830810624999998
                },
                {
                    "name": "G#5",
                    "midi": 80,
                    "time": 12.185222499999998,
                    "velocity": 0.5196850393700787,
                    "duration": 0.0830810624999998
                },
                {
                    "name": "D#5",
                    "midi": 75,
                    "time": 12.406771999999998,
                    "velocity": 0.48031496062992124,
                    "duration": 0.6646485000000002
                },
                {
                    "name": "C#5",
                    "midi": 73,
                    "time": 13.071420499999999,
                    "velocity": 0.44881889763779526,
                    "duration": 0.11077474999999914
                },
                {
                    "name": "C5",
                    "midi": 72,
                    "time": 13.182195249999998,
                    "velocity": 0.4251968503937008,
                    "duration": 0.11077474999999914
                },
                {
                    "name": "A#4",
                    "midi": 70,
                    "time": 13.292969999999997,
                    "velocity": 0.47244094488188976,
                    "duration": 0.22154950000000007
                },
                {
                    "name": "C#5",
                    "midi": 73,
                    "time": 13.514519499999997,
                    "velocity": 0.4015748031496063,
                    "duration": 0.1661621249999996
                },
                {
                    "name": "G4",
                    "midi": 67,
                    "time": 13.736068999999997,
                    "velocity": 0.4645669291338583,
                    "duration": 0.22154950000000007
                },
                {
                    "name": "A#4",
                    "midi": 70,
                    "time": 13.957618499999997,
                    "velocity": 0.3937007874015748,
                    "duration": 0.1661621249999996
                },
                {
                    "name": "G#4",
                    "midi": 68,
                    "time": 14.179167999999997,
                    "velocity": 0.47244094488188976,
                    "duration": 0.44309900000000013
                },
                {
                    "name": "D#5",
                    "midi": 75,
                    "time": 14.843816499999997,
                    "velocity": 0.41732283464566927,
                    "duration": 0.22154950000000007
                },
                {
                    "name": "F5",
                    "midi": 77,
                    "time": 15.065365999999997,
                    "velocity": 0.4645669291338583,
                    "duration": 0.22154950000000007
                },
                {
                    "name": "D#5",
                    "midi": 75,
                    "time": 15.286915499999997,
                    "velocity": 0.4409448818897638,
                    "duration": 0.22154950000000007
                },
                {
                    "name": "D5",
                    "midi": 74,
                    "time": 15.508464999999998,
                    "velocity": 0.4409448818897638,
                    "duration": 0.1661621249999996
                },
                {
                    "name": "B5",
                    "midi": 83,
                    "time": 15.730014499999998,
                    "velocity": 0.4645669291338583,
                    "duration": 0.22154950000000007
                },
                {
                    "name": "A#5",
                    "midi": 82,
                    "time": 15.951563999999998,
                    "velocity": 0.4645669291338583,
                    "duration": 0.2215494999999983
                },
                {
                    "name": "G5",
                    "midi": 79,
                    "time": 16.173113499999996,
                    "velocity": 0.41732283464566927,
                    "duration": 0.2215494999999983
                },
                {
                    "name": "D#5",
                    "midi": 75,
                    "time": 16.394662999999994,
                    "velocity": 0.41732283464566927,
                    "duration": 0.2215494999999983
                },
                {
                    "name": "C5",
                    "midi": 72,
                    "time": 16.616212499999993,
                    "velocity": 0.4645669291338583,
                    "duration": 0.1661621249999996
                },
                {
                    "name": "D#5",
                    "midi": 75,
                    "time": 16.782374624999992,
                    "velocity": 0.41732283464566927,
                    "duration": 0.055387374999998684
                },
                {
                    "name": "C#5",
                    "midi": 73,
                    "time": 16.83776199999999,
                    "velocity": 0.48031496062992124,
                    "duration": 0.2215494999999983
                },
                {
                    "name": "C5",
                    "midi": 72,
                    "time": 17.05931149999999,
                    "velocity": 0.4330708661417323,
                    "duration": 0.2215494999999983
                },
                {
                    "name": "B4",
                    "midi": 71,
                    "time": 17.280860999999987,
                    "velocity": 0.4330708661417323,
                    "duration": 0.1661621249999996
                },
                {
                    "name": "G#5",
                    "midi": 80,
                    "time": 17.502410499999986,
                    "velocity": 0.4645669291338583,
                    "duration": 0.2215494999999983
                },
                {
                    "name": "G5",
                    "midi": 79,
                    "time": 17.723959999999984,
                    "velocity": 0.4645669291338583,
                    "duration": 0.2215494999999983
                },
                {
                    "name": "D#5",
                    "midi": 75,
                    "time": 17.945509499999982,
                    "velocity": 0.41732283464566927,
                    "duration": 0.2215494999999983
                },
                {
                    "name": "C5",
                    "midi": 72,
                    "time": 18.16705899999998,
                    "velocity": 0.41732283464566927,
                    "duration": 0.2215494999999983
                },
                {
                    "name": "G#4",
                    "midi": 68,
                    "time": 18.38860849999998,
                    "velocity": 0.4645669291338583,
                    "duration": 0.1661621249999996
                },
                {
                    "name": "C5",
                    "midi": 72,
                    "time": 18.55477062499998,
                    "velocity": 0.41732283464566927,
                    "duration": 0.055387374999998684
                },
                {
                    "name": "A#4",
                    "midi": 70,
                    "time": 18.610157999999977,
                    "velocity": 0.48031496062992124,
                    "duration": 0.2215494999999983
                },
                {
                    "name": "G#4",
                    "midi": 68,
                    "time": 18.831707499999975,
                    "velocity": 0.41732283464566927,
                    "duration": 0.2215494999999983
                },
                {
                    "name": "G4",
                    "midi": 67,
                    "time": 19.053256999999974,
                    "velocity": 0.41732283464566927,
                    "duration": 0.1661621249999996
                },
                {
                    "name": "F5",
                    "midi": 77,
                    "time": 19.274806499999972,
                    "velocity": 0.4645669291338583,
                    "duration": 0.2215494999999983
                },
                {
                    "name": "D#5",
                    "midi": 75,
                    "time": 19.49635599999997,
                    "velocity": 0.4645669291338583,
                    "duration": 0.2215494999999983
                },
                {
                    "name": "C5",
                    "midi": 72,
                    "time": 19.71790549999997,
                    "velocity": 0.41732283464566927,
                    "duration": 0.2215494999999983
                },
                {
                    "name": "G#4",
                    "midi": 68,
                    "time": 19.939454999999967,
                    "velocity": 0.41732283464566927,
                    "duration": 0.1661621249999996
                },
                {
                    "name": "D#5",
                    "midi": 75,
                    "time": 20.161004499999965,
                    "velocity": 0.4645669291338583,
                    "duration": 0.2215494999999983
                },
                {
                    "name": "D5",
                    "midi": 74,
                    "time": 20.382553999999963,
                    "velocity": 0.4645669291338583,
                    "duration": 0.2215494999999983
                },
                {
                    "name": "F5",
                    "midi": 77,
                    "time": 20.60410349999996,
                    "velocity": 0.4015748031496063,
                    "duration": 0.2215494999999983
                },
                {
                    "name": "G#5",
                    "midi": 80,
                    "time": 20.82565299999996,
                    "velocity": 0.41732283464566927,
                    "duration": 0.2215494999999983
                },
                {
                    "name": "D5",
                    "midi": 74,
                    "time": 21.04720249999996,
                    "velocity": 0.3937007874015748,
                    "duration": 0.2215494999999983
                },
                {
                    "name": "D#5",
                    "midi": 75,
                    "time": 21.268751999999957,
                    "velocity": 0.4645669291338583,
                    "duration": 0.2215494999999983
                },
                {
                    "name": "F5",
                    "midi": 77,
                    "time": 21.490301499999955,
                    "velocity": 0.3858267716535433,
                    "duration": 0.07384983333333395
                },
                {
                    "name": "D#5",
                    "midi": 75,
                    "time": 21.56415133333329,
                    "velocity": 0.3700787401574803,
                    "duration": 0.07384983333333395
                },
                {
                    "name": "D5",
                    "midi": 74,
                    "time": 21.638001166666623,
                    "velocity": 0.3700787401574803,
                    "duration": 0.07384983333333395
                },
                {
                    "name": "D#5",
                    "midi": 75,
                    "time": 21.711850999999957,
                    "velocity": 0.4645669291338583,
                    "duration": 0.0830810624999998
                },
                {
                    "name": "D#5",
                    "midi": 75,
                    "time": 21.933400499999955,
                    "velocity": 0.4409448818897638,
                    "duration": 0.0830810624999998
                },
                {
                    "name": "D5",
                    "midi": 74,
                    "time": 22.154949999999953,
                    "velocity": 0.4645669291338583,
                    "duration": 0.2215494999999983
                },
                {
                    "name": "F5",
                    "midi": 77,
                    "time": 22.37649949999995,
                    "velocity": 0.3779527559055118,
                    "duration": 0.2215494999999983
                },
                {
                    "name": "G#5",
                    "midi": 80,
                    "time": 22.59804899999995,
                    "velocity": 0.4015748031496063,
                    "duration": 0.2215494999999983
                },
                {
                    "name": "D5",
                    "midi": 74,
                    "time": 22.819598499999948,
                    "velocity": 0.33858267716535434,
                    "duration": 0.2215494999999983
                },
                {
                    "name": "F5",
                    "midi": 77,
                    "time": 23.041147999999946,
                    "velocity": 0.41732283464566927,
                    "duration": 0.2215494999999983
                },
                {
                    "name": "D#5",
                    "midi": 75,
                    "time": 23.262697499999945,
                    "velocity": 0.3700787401574803,
                    "duration": 0.11077475000000092
                },
                {
                    "name": "C5",
                    "midi": 72,
                    "time": 23.705796499999945,
                    "velocity": 0.47244094488188976,
                    "duration": 0.11077475000000092
                },
                {
                    "name": "C#5",
                    "midi": 73,
                    "time": 23.816571249999946,
                    "velocity": 0.4330708661417323,
                    "duration": 0.11077475000000092
                },
                {
                    "name": "D#5",
                    "midi": 75,
                    "time": 23.927345999999947,
                    "velocity": 0.47244094488188976,
                    "duration": 0.0830810624999998
                },
                {
                    "name": "D#5",
                    "midi": 75,
                    "time": 24.148895499999945,
                    "velocity": 0.48031496062992124,
                    "duration": 0.0830810624999998
                },
                {
                    "name": "D#5",
                    "midi": 75,
                    "time": 24.370444999999943,
                    "velocity": 0.49606299212598426,
                    "duration": 0.0830810624999998
                },
                {
                    "name": "G#5",
                    "midi": 80,
                    "time": 24.59199449999994,
                    "velocity": 0.5196850393700787,
                    "duration": 0.0830810624999998
                },
                {
                    "name": "D#5",
                    "midi": 75,
                    "time": 24.81354399999994,
                    "velocity": 0.48031496062992124,
                    "duration": 0.6646484999999984
                },
                {
                    "name": "C#5",
                    "midi": 73,
                    "time": 25.47819249999994,
                    "velocity": 0.44881889763779526,
                    "duration": 0.11077475000000092
                },
                {
                    "name": "C5",
                    "midi": 72,
                    "time": 25.58896724999994,
                    "velocity": 0.4251968503937008,
                    "duration": 0.11077475000000092
                },
                {
                    "name": "A#4",
                    "midi": 70,
                    "time": 25.69974199999994,
                    "velocity": 0.47244094488188976,
                    "duration": 0.1661621249999996
                },
                {
                    "name": "A#4",
                    "midi": 70,
                    "time": 25.92129149999994,
                    "velocity": 0.41732283464566927,
                    "duration": 0.2215494999999983
                },
                {
                    "name": "C5",
                    "midi": 72,
                    "time": 26.142840999999937,
                    "velocity": 0.4645669291338583,
                    "duration": 0.1661621249999996
                },
                {
                    "name": "C5",
                    "midi": 72,
                    "time": 26.364390499999935,
                    "velocity": 0.41732283464566927,
                    "duration": 0.1661621249999996
                },
                {
                    "name": "D#5",
                    "midi": 75,
                    "time": 26.585939999999933,
                    "velocity": 0.4645669291338583,
                    "duration": 0.2215494999999983
                },
                {
                    "name": "C#5",
                    "midi": 73,
                    "time": 26.80748949999993,
                    "velocity": 0.4015748031496063,
                    "duration": 0.055387374999998684
                },
                {
                    "name": "D#5",
                    "midi": 75,
                    "time": 26.86287687499993,
                    "velocity": 0.36220472440944884,
                    "duration": 0.055387374999998684
                },
                {
                    "name": "C#5",
                    "midi": 73,
                    "time": 26.91826424999993,
                    "velocity": 0.4015748031496063,
                    "duration": 0.11077475000000092
                },
                {
                    "name": "C5",
                    "midi": 72,
                    "time": 27.02903899999993,
                    "velocity": 0.4645669291338583,
                    "duration": 0.2215494999999983
                },
                {
                    "name": "C5",
                    "midi": 72,
                    "time": 27.250588499999928,
                    "velocity": 0.47244094488188976,
                    "duration": 0.11077475000000092
                },
                {
                    "name": "C#5",
                    "midi": 73,
                    "time": 27.36136324999993,
                    "velocity": 0.4330708661417323,
                    "duration": 0.11077475000000092
                },
                {
                    "name": "D#5",
                    "midi": 75,
                    "time": 27.47213799999993,
                    "velocity": 0.47244094488188976,
                    "duration": 0.0830810624999998
                },
                {
                    "name": "D#5",
                    "midi": 75,
                    "time": 27.69368749999993,
                    "velocity": 0.44881889763779526,
                    "duration": 0.0830810624999998
                },
                {
                    "name": "D#5",
                    "midi": 75,
                    "time": 27.915236999999927,
                    "velocity": 0.4645669291338583,
                    "duration": 0.0830810624999998
                },
                {
                    "name": "G#5",
                    "midi": 80,
                    "time": 28.136786499999925,
                    "velocity": 0.5196850393700787,
                    "duration": 0.0830810624999998
                },
                {
                    "name": "D#5",
                    "midi": 75,
                    "time": 28.358335999999923,
                    "velocity": 0.48031496062992124,
                    "duration": 0.6646484999999984
                },
                {
                    "name": "C#5",
                    "midi": 73,
                    "time": 29.02298449999992,
                    "velocity": 0.44881889763779526,
                    "duration": 0.11077475000000092
                },
                {
                    "name": "C5",
                    "midi": 72,
                    "time": 29.133759249999923,
                    "velocity": 0.4251968503937008,
                    "duration": 0.11077475000000092
                },
                {
                    "name": "A#4",
                    "midi": 70,
                    "time": 29.244533999999923,
                    "velocity": 0.4881889763779528,
                    "duration": 0.11077475000000092
                },
                {
                    "name": "C#5",
                    "midi": 73,
                    "time": 29.355308749999924,
                    "velocity": 0.33858267716535434,
                    "duration": 0.11077475000000092
                },
                {
                    "name": "A#4",
                    "midi": 70,
                    "time": 29.466083499999925,
                    "velocity": 0.4330708661417323,
                    "duration": 0.11077475000000092
                },
                {
                    "name": "C#5",
                    "midi": 73,
                    "time": 29.576858249999926,
                    "velocity": 0.33858267716535434,
                    "duration": 0.11077475000000092
                },
                {
                    "name": "G4",
                    "midi": 67,
                    "time": 29.687632999999927,
                    "velocity": 0.4645669291338583,
                    "duration": 0.11077475000000092
                },
                {
                    "name": "A#4",
                    "midi": 70,
                    "time": 29.90918249999993,
                    "velocity": 0.3937007874015748,
                    "duration": 0.1661621249999996
                },
                {
                    "name": "G#4",
                    "midi": 68,
                    "time": 30.130731999999927,
                    "velocity": 0.47244094488188976,
                    "duration": 0.44309900000000013
                },
                {
                    "name": "D#5",
                    "midi": 75,
                    "time": 30.795380499999926,
                    "velocity": 0.41732283464566927,
                    "duration": 0.2215494999999983
                },
                {
                    "name": "F5",
                    "midi": 77,
                    "time": 31.016929999999924,
                    "velocity": 0.4645669291338583,
                    "duration": 0.2215494999999983
                },
                {
                    "name": "D#5",
                    "midi": 75,
                    "time": 31.238479499999922,
                    "velocity": 0.4409448818897638,
                    "duration": 0.2215494999999983
                },
                {
                    "name": "D5",
                    "midi": 74,
                    "time": 31.46002899999992,
                    "velocity": 0.4409448818897638,
                    "duration": 0.1661621249999996
                },
                {
                    "name": "B5",
                    "midi": 83,
                    "time": 31.68157849999992,
                    "velocity": 0.4645669291338583,
                    "duration": 0.2215494999999983
                },
                {
                    "name": "A#5",
                    "midi": 82,
                    "time": 31.903127999999917,
                    "velocity": 0.4645669291338583,
                    "duration": 0.22154950000000184
                },
                {
                    "name": "G5",
                    "midi": 79,
                    "time": 32.12467749999992,
                    "velocity": 0.41732283464566927,
                    "duration": 0.22154950000000184
                },
                {
                    "name": "D#5",
                    "midi": 75,
                    "time": 32.34622699999992,
                    "velocity": 0.41732283464566927,
                    "duration": 0.22154950000000184
                },
                {
                    "name": "C5",
                    "midi": 72,
                    "time": 32.56777649999992,
                    "velocity": 0.4645669291338583,
                    "duration": 0.1661621249999996
                },
                {
                    "name": "D#5",
                    "midi": 75,
                    "time": 32.73393862499992,
                    "velocity": 0.41732283464566927,
                    "duration": 0.05538737500000224
                },
                {
                    "name": "C#5",
                    "midi": 73,
                    "time": 32.789325999999924,
                    "velocity": 0.48031496062992124,
                    "duration": 0.22154950000000184
                },
                {
                    "name": "C5",
                    "midi": 72,
                    "time": 33.010875499999926,
                    "velocity": 0.4330708661417323,
                    "duration": 0.22154950000000184
                },
                {
                    "name": "B4",
                    "midi": 71,
                    "time": 33.23242499999993,
                    "velocity": 0.4330708661417323,
                    "duration": 0.1661621249999996
                },
                {
                    "name": "G#5",
                    "midi": 80,
                    "time": 33.45397449999993,
                    "velocity": 0.4645669291338583,
                    "duration": 0.22154950000000184
                },
                {
                    "name": "G5",
                    "midi": 79,
                    "time": 33.67552399999993,
                    "velocity": 0.4645669291338583,
                    "duration": 0.22154950000000184
                },
                {
                    "name": "D#5",
                    "midi": 75,
                    "time": 33.897073499999934,
                    "velocity": 0.41732283464566927,
                    "duration": 0.22154950000000184
                },
                {
                    "name": "C5",
                    "midi": 72,
                    "time": 34.118622999999936,
                    "velocity": 0.41732283464566927,
                    "duration": 0.22154950000000184
                },
                {
                    "name": "G#4",
                    "midi": 68,
                    "time": 34.34017249999994,
                    "velocity": 0.4645669291338583,
                    "duration": 0.1661621249999996
                },
                {
                    "name": "C5",
                    "midi": 72,
                    "time": 34.50633462499994,
                    "velocity": 0.41732283464566927,
                    "duration": 0.05538737500000224
                },
                {
                    "name": "A#4",
                    "midi": 70,
                    "time": 34.56172199999994,
                    "velocity": 0.48031496062992124,
                    "duration": 0.22154950000000184
                },
                {
                    "name": "G#4",
                    "midi": 68,
                    "time": 34.78327149999994,
                    "velocity": 0.41732283464566927,
                    "duration": 0.22154950000000184
                },
                {
                    "name": "G4",
                    "midi": 67,
                    "time": 35.00482099999994,
                    "velocity": 0.41732283464566927,
                    "duration": 0.1661621249999996
                },
                {
                    "name": "F5",
                    "midi": 77,
                    "time": 35.226370499999945,
                    "velocity": 0.4645669291338583,
                    "duration": 0.22154950000000184
                },
                {
                    "name": "D#5",
                    "midi": 75,
                    "time": 35.44791999999995,
                    "velocity": 0.4645669291338583,
                    "duration": 0.22154950000000184
                },
                {
                    "name": "C5",
                    "midi": 72,
                    "time": 35.66946949999995,
                    "velocity": 0.41732283464566927,
                    "duration": 0.22154950000000184
                },
                {
                    "name": "G#4",
                    "midi": 68,
                    "time": 35.89101899999995,
                    "velocity": 0.41732283464566927,
                    "duration": 0.1661621249999996
                },
                {
                    "name": "D#5",
                    "midi": 75,
                    "time": 36.11256849999995,
                    "velocity": 0.4645669291338583,
                    "duration": 0.22154950000000184
                },
                {
                    "name": "D5",
                    "midi": 74,
                    "time": 36.334117999999954,
                    "velocity": 0.4645669291338583,
                    "duration": 0.22154950000000184
                },
                {
                    "name": "F5",
                    "midi": 77,
                    "time": 36.555667499999956,
                    "velocity": 0.4015748031496063,
                    "duration": 0.22154950000000184
                },
                {
                    "name": "G#5",
                    "midi": 80,
                    "time": 36.77721699999996,
                    "velocity": 0.41732283464566927,
                    "duration": 0.22154950000000184
                },
                {
                    "name": "D5",
                    "midi": 74,
                    "time": 36.99876649999996,
                    "velocity": 0.3937007874015748,
                    "duration": 0.22154950000000184
                },
                {
                    "name": "D#5",
                    "midi": 75,
                    "time": 37.22031599999996,
                    "velocity": 0.4645669291338583,
                    "duration": 0.22154950000000184
                },
                {
                    "name": "F5",
                    "midi": 77,
                    "time": 37.44186549999996,
                    "velocity": 0.3858267716535433,
                    "duration": 0.07384983333333395
                },
                {
                    "name": "D#5",
                    "midi": 75,
                    "time": 37.5157153333333,
                    "velocity": 0.3700787401574803,
                    "duration": 0.07384983333333395
                },
                {
                    "name": "D5",
                    "midi": 74,
                    "time": 37.58956516666663,
                    "velocity": 0.3700787401574803,
                    "duration": 0.07384983333333395
                },
                {
                    "name": "D#5",
                    "midi": 75,
                    "time": 37.663414999999965,
                    "velocity": 0.4645669291338583,
                    "duration": 0.0830810624999998
                },
                {
                    "name": "D#5",
                    "midi": 75,
                    "time": 37.88496449999997,
                    "velocity": 0.4409448818897638,
                    "duration": 0.0830810624999998
                },
                {
                    "name": "D5",
                    "midi": 74,
                    "time": 38.10651399999997,
                    "velocity": 0.4645669291338583,
                    "duration": 0.22154950000000184
                },
                {
                    "name": "F5",
                    "midi": 77,
                    "time": 38.32806349999997,
                    "velocity": 0.3779527559055118,
                    "duration": 0.22154950000000184
                },
                {
                    "name": "G#5",
                    "midi": 80,
                    "time": 38.54961299999997,
                    "velocity": 0.4015748031496063,
                    "duration": 0.22154950000000184
                },
                {
                    "name": "D5",
                    "midi": 74,
                    "time": 38.771162499999974,
                    "velocity": 0.33858267716535434,
                    "duration": 0.22154950000000184
                },
                {
                    "name": "F5",
                    "midi": 77,
                    "time": 38.992711999999976,
                    "velocity": 0.41732283464566927,
                    "duration": 0.22154950000000184
                },
                {
                    "name": "D#5",
                    "midi": 75,
                    "time": 39.21426149999998,
                    "velocity": 0.3700787401574803,
                    "duration": 0.11077474999999737
                },
                {
                    "name": "C5",
                    "midi": 72,
                    "time": 39.657360499999974,
                    "velocity": 0.47244094488188976,
                    "duration": 0.11077474999999737
                },
                {
                    "name": "C#5",
                    "midi": 73,
                    "time": 39.76813524999997,
                    "velocity": 0.4330708661417323,
                    "duration": 0.11077474999999737
                },
                {
                    "name": "D#5",
                    "midi": 75,
                    "time": 39.87890999999997,
                    "velocity": 0.47244094488188976,
                    "duration": 0.0830810624999998
                },
                {
                    "name": "D#5",
                    "midi": 75,
                    "time": 40.10045949999997,
                    "velocity": 0.48031496062992124,
                    "duration": 0.0830810624999998
                },
                {
                    "name": "D#5",
                    "midi": 75,
                    "time": 40.32200899999997,
                    "velocity": 0.49606299212598426,
                    "duration": 0.0830810624999998
                },
                {
                    "name": "G#5",
                    "midi": 80,
                    "time": 40.543558499999975,
                    "velocity": 0.5196850393700787,
                    "duration": 0.0830810624999998
                },
                {
                    "name": "D#5",
                    "midi": 75,
                    "time": 40.76510799999998,
                    "velocity": 0.48031496062992124,
                    "duration": 0.6646484999999984
                },
                {
                    "name": "C#5",
                    "midi": 73,
                    "time": 41.429756499999975,
                    "velocity": 0.44881889763779526,
                    "duration": 0.11077474999999737
                },
                {
                    "name": "C5",
                    "midi": 72,
                    "time": 41.54053124999997,
                    "velocity": 0.4251968503937008,
                    "duration": 0.11077474999999737
                },
                {
                    "name": "A#4",
                    "midi": 70,
                    "time": 41.65130599999997,
                    "velocity": 0.47244094488188976,
                    "duration": 0.1661621249999996
                },
                {
                    "name": "A#4",
                    "midi": 70,
                    "time": 41.87285549999997,
                    "velocity": 0.41732283464566927,
                    "duration": 0.22154950000000184
                },
                {
                    "name": "C5",
                    "midi": 72,
                    "time": 42.09440499999997,
                    "velocity": 0.4645669291338583,
                    "duration": 0.1661621249999996
                },
                {
                    "name": "C5",
                    "midi": 72,
                    "time": 42.315954499999975,
                    "velocity": 0.41732283464566927,
                    "duration": 0.1661621249999996
                },
                {
                    "name": "D#5",
                    "midi": 75,
                    "time": 42.53750399999998,
                    "velocity": 0.4645669291338583,
                    "duration": 0.22154950000000184
                },
                {
                    "name": "C#5",
                    "midi": 73,
                    "time": 42.75905349999998,
                    "velocity": 0.4015748031496063,
                    "duration": 0.05538737500000224
                },
                {
                    "name": "D#5",
                    "midi": 75,
                    "time": 42.81444087499998,
                    "velocity": 0.36220472440944884,
                    "duration": 0.05538737500000224
                },
                {
                    "name": "C#5",
                    "midi": 73,
                    "time": 42.86982824999998,
                    "velocity": 0.4015748031496063,
                    "duration": 0.11077474999999737
                },
                {
                    "name": "C5",
                    "midi": 72,
                    "time": 42.98060299999998,
                    "velocity": 0.4645669291338583,
                    "duration": 0.22154950000000184
                },
                {
                    "name": "C5",
                    "midi": 72,
                    "time": 43.20215249999998,
                    "velocity": 0.47244094488188976,
                    "duration": 0.11077474999999737
                },
                {
                    "name": "C#5",
                    "midi": 73,
                    "time": 43.31292724999998,
                    "velocity": 0.4330708661417323,
                    "duration": 0.11077474999999737
                },
                {
                    "name": "D#5",
                    "midi": 75,
                    "time": 43.42370199999998,
                    "velocity": 0.47244094488188976,
                    "duration": 0.0830810624999998
                },
                {
                    "name": "D#5",
                    "midi": 75,
                    "time": 43.64525149999998,
                    "velocity": 0.44881889763779526,
                    "duration": 0.0830810624999998
                },
                {
                    "name": "D#5",
                    "midi": 75,
                    "time": 43.86680099999998,
                    "velocity": 0.4645669291338583,
                    "duration": 0.0830810624999998
                },
                {
                    "name": "G#5",
                    "midi": 80,
                    "time": 44.08835049999998,
                    "velocity": 0.5196850393700787,
                    "duration": 0.0830810624999998
                },
                {
                    "name": "D#5",
                    "midi": 75,
                    "time": 44.309899999999985,
                    "velocity": 0.48031496062992124,
                    "duration": 0.6646484999999984
                },
                {
                    "name": "C#5",
                    "midi": 73,
                    "time": 44.97454849999998,
                    "velocity": 0.44881889763779526,
                    "duration": 0.11077474999999737
                },
                {
                    "name": "C5",
                    "midi": 72,
                    "time": 45.08532324999998,
                    "velocity": 0.4251968503937008,
                    "duration": 0.11077474999999737
                },
                {
                    "name": "A#4",
                    "midi": 70,
                    "time": 45.19609799999998,
                    "velocity": 0.4881889763779528,
                    "duration": 0.11077474999999737
                },
                {
                    "name": "C#5",
                    "midi": 73,
                    "time": 45.306872749999975,
                    "velocity": 0.33858267716535434,
                    "duration": 0.11077474999999737
                },
                {
                    "name": "A#4",
                    "midi": 70,
                    "time": 45.41764749999997,
                    "velocity": 0.4330708661417323,
                    "duration": 0.11077474999999737
                },
                {
                    "name": "C#5",
                    "midi": 73,
                    "time": 45.52842224999997,
                    "velocity": 0.33858267716535434,
                    "duration": 0.11077474999999737
                },
                {
                    "name": "G4",
                    "midi": 67,
                    "time": 45.63919699999997,
                    "velocity": 0.4645669291338583,
                    "duration": 0.11077474999999737
                },
                {
                    "name": "A#4",
                    "midi": 70,
                    "time": 45.86074649999996,
                    "velocity": 0.3937007874015748,
                    "duration": 0.1661621249999996
                },
                {
                    "name": "G#4",
                    "midi": 68,
                    "time": 46.082295999999964,
                    "velocity": 0.47244094488188976,
                    "duration": 0.4430989999999966
                },
                {
                    "name": "C4",
                    "midi": 60,
                    "time": 46.74694449999996,
                    "velocity": 0.44881889763779526,
                    "duration": 0.11077474999999737
                },
                {
                    "name": "C#4",
                    "midi": 61,
                    "time": 46.85771924999996,
                    "velocity": 0.4094488188976378,
                    "duration": 0.11077474999999737
                },
                {
                    "name": "D#4",
                    "midi": 63,
                    "time": 46.96849399999996,
                    "velocity": 0.44881889763779526,
                    "duration": 0.0830810624999998
                },
                {
                    "name": "D#4",
                    "midi": 63,
                    "time": 47.19004349999996,
                    "velocity": 0.44881889763779526,
                    "duration": 0.0830810624999998
                },
                {
                    "name": "D#4",
                    "midi": 63,
                    "time": 47.41159299999996,
                    "velocity": 0.4645669291338583,
                    "duration": 0.0830810624999998
                },
                {
                    "name": "G#4",
                    "midi": 68,
                    "time": 47.63314249999996,
                    "velocity": 0.5118110236220472,
                    "duration": 0.0830810624999998
                },
                {
                    "name": "D#4",
                    "midi": 63,
                    "time": 47.854691999999964,
                    "velocity": 0.44881889763779526,
                    "duration": 0.6646484999999984
                },
                {
                    "name": "C5",
                    "midi": 72,
                    "time": 48.51934049999996,
                    "velocity": 0.4645669291338583,
                    "duration": 0.22154950000000184
                },
                {
                    "name": "A#4",
                    "midi": 70,
                    "time": 48.740889999999965,
                    "velocity": 0.5511811023622047,
                    "duration": 0.22154950000000184
                },
                {
                    "name": "D#5",
                    "midi": 75,
                    "time": 48.96243949999997,
                    "velocity": 0.4881889763779528,
                    "duration": 0.22154950000000184
                },
                {
                    "name": "G5",
                    "midi": 79,
                    "time": 49.18398899999997,
                    "velocity": 0.5354330708661418,
                    "duration": 0.22154950000000184
                },
                {
                    "name": "G4",
                    "midi": 67,
                    "time": 49.40553849999997,
                    "velocity": 0.49606299212598426,
                    "duration": 0.22154950000000184
                },
                {
                    "name": "A#4",
                    "midi": 70,
                    "time": 49.62708799999997,
                    "velocity": 0.5354330708661418,
                    "duration": 0.22154950000000184
                },
                {
                    "name": "G#4",
                    "midi": 68,
                    "time": 49.848637499999974,
                    "velocity": 0.4645669291338583,
                    "duration": 0.22154950000000184
                },
                {
                    "name": "F4",
                    "midi": 65,
                    "time": 50.29173649999998,
                    "velocity": 0.4645669291338583,
                    "duration": 0.22154950000000184
                },
                {
                    "name": "G4",
                    "midi": 67,
                    "time": 50.51328599999998,
                    "velocity": 0.5511811023622047,
                    "duration": 0.22154950000000184
                },
                {
                    "name": "A#4",
                    "midi": 70,
                    "time": 50.73483549999998,
                    "velocity": 0.4881889763779528,
                    "duration": 0.22154950000000184
                },
                {
                    "name": "C5",
                    "midi": 72,
                    "time": 50.95638499999998,
                    "velocity": 0.5511811023622047,
                    "duration": 0.22154950000000184
                },
                {
                    "name": "D#4",
                    "midi": 63,
                    "time": 51.177934499999985,
                    "velocity": 0.5196850393700787,
                    "duration": 0.1661621249999996
                },
                {
                    "name": "D#4",
                    "midi": 63,
                    "time": 51.39948399999999,
                    "velocity": 0.5669291338582677,
                    "duration": 0.22154950000000184
                },
                {
                    "name": "D4",
                    "midi": 62,
                    "time": 51.62103349999999,
                    "velocity": 0.4881889763779528,
                    "duration": 0.22154950000000184
                },
                {
                    "name": "A#4",
                    "midi": 70,
                    "time": 52.06413249999999,
                    "velocity": 0.4645669291338583,
                    "duration": 0.22154950000000184
                },
                {
                    "name": "G#4",
                    "midi": 68,
                    "time": 52.285681999999994,
                    "velocity": 0.5511811023622047,
                    "duration": 0.11077474999999737
                },
                {
                    "name": "A#4",
                    "midi": 70,
                    "time": 52.39645674999999,
                    "velocity": 0.49606299212598426,
                    "duration": 0.11077474999999737
                },
                {
                    "name": "G4",
                    "midi": 67,
                    "time": 52.50723149999999,
                    "velocity": 0.5511811023622047,
                    "duration": 0.11077474999999737
                },
                {
                    "name": "A#4",
                    "midi": 70,
                    "time": 52.618006249999986,
                    "velocity": 0.4881889763779528,
                    "duration": 0.11077474999999737
                },
                {
                    "name": "F4",
                    "midi": 65,
                    "time": 52.728780999999984,
                    "velocity": 0.5511811023622047,
                    "duration": 0.22154950000000184
                },
                {
                    "name": "D5",
                    "midi": 74,
                    "time": 52.950330499999986,
                    "velocity": 0.5905511811023622,
                    "duration": 0.22154950000000184
                },
                {
                    "name": "D#5",
                    "midi": 75,
                    "time": 53.17187999999999,
                    "velocity": 0.6377952755905512,
                    "duration": 0.22154950000000184
                },
                {
                    "name": "F5",
                    "midi": 77,
                    "time": 53.39342949999999,
                    "velocity": 0.6062992125984252,
                    "duration": 0.22154950000000184
                },
                {
                    "name": "G5",
                    "midi": 79,
                    "time": 53.61497899999999,
                    "velocity": 0.6456692913385826,
                    "duration": 0.22154950000000184
                },
                {
                    "name": "A#4",
                    "midi": 70,
                    "time": 53.83652849999999,
                    "velocity": 0.5905511811023622,
                    "duration": 0.22154950000000184
                },
                {
                    "name": "G#4",
                    "midi": 68,
                    "time": 54.058077999999995,
                    "velocity": 0.5511811023622047,
                    "duration": 0.11077474999999737
                },
                {
                    "name": "A#4",
                    "midi": 70,
                    "time": 54.16885274999999,
                    "velocity": 0.49606299212598426,
                    "duration": 0.11077474999999737
                },
                {
                    "name": "G4",
                    "midi": 67,
                    "time": 54.27962749999999,
                    "velocity": 0.5511811023622047,
                    "duration": 0.11077474999999737
                },
                {
                    "name": "A#4",
                    "midi": 70,
                    "time": 54.39040224999999,
                    "velocity": 0.4881889763779528,
                    "duration": 0.11077474999999737
                },
                {
                    "name": "F4",
                    "midi": 65,
                    "time": 54.501176999999984,
                    "velocity": 0.5511811023622047,
                    "duration": 0.22154950000000184
                },
                {
                    "name": "D5",
                    "midi": 74,
                    "time": 54.722726499999986,
                    "velocity": 0.5905511811023622,
                    "duration": 0.22154950000000184
                },
                {
                    "name": "D#5",
                    "midi": 75,
                    "time": 54.94427599999999,
                    "velocity": 0.6377952755905512,
                    "duration": 0.22154950000000184
                },
                {
                    "name": "F5",
                    "midi": 77,
                    "time": 55.16582549999999,
                    "velocity": 0.6062992125984252,
                    "duration": 0.22154950000000184
                },
                {
                    "name": "G5",
                    "midi": 79,
                    "time": 55.38737499999999,
                    "velocity": 0.6456692913385826,
                    "duration": 0.22154950000000184
                },
                {
                    "name": "G5",
                    "midi": 79,
                    "time": 55.60892449999999,
                    "velocity": 0.5905511811023622,
                    "duration": 0.11077474999999737
                },
                {
                    "name": "G#5",
                    "midi": 80,
                    "time": 55.71969924999999,
                    "velocity": 0.5748031496062992,
                    "duration": 0.11077474999999737
                },
                {
                    "name": "A#5",
                    "midi": 82,
                    "time": 55.83047399999999,
                    "velocity": 0.6377952755905512,
                    "duration": 0.11077474999999737
                },
                {
                    "name": "G5",
                    "midi": 79,
                    "time": 56.05202349999998,
                    "velocity": 0.5669291338582677,
                    "duration": 0.11077474999999737
                },
                {
                    "name": "G#5",
                    "midi": 80,
                    "time": 56.16279824999998,
                    "velocity": 0.5433070866141733,
                    "duration": 0.11077474999999737
                },
                {
                    "name": "A#5",
                    "midi": 82,
                    "time": 56.27357299999998,
                    "velocity": 0.6299212598425197,
                    "duration": 0.11077474999999737
                },
                {
                    "name": "G5",
                    "midi": 79,
                    "time": 56.49512249999997,
                    "velocity": 0.5748031496062992,
                    "duration": 0.11077474999999737
                },
                {
                    "name": "G#5",
                    "midi": 80,
                    "time": 56.60589724999997,
                    "velocity": 0.5433070866141733,
                    "duration": 0.11077474999999737
                },
                {
                    "name": "A#5",
                    "midi": 82,
                    "time": 56.71667199999997,
                    "velocity": 0.6141732283464567,
                    "duration": 0.4430989999999966
                },
                {
                    "name": "D#5",
                    "midi": 75,
                    "time": 57.381320499999966,
                    "velocity": 0.47244094488188976,
                    "duration": 0.11077474999999737
                },
                {
                    "name": "F5",
                    "midi": 77,
                    "time": 57.49209524999996,
                    "velocity": 0.4566929133858268,
                    "duration": 0.11077474999999737
                },
                {
                    "name": "G5",
                    "midi": 79,
                    "time": 57.60286999999996,
                    "velocity": 0.5039370078740157,
                    "duration": 0.11077474999999737
                },
                {
                    "name": "D#5",
                    "midi": 75,
                    "time": 57.824419499999955,
                    "velocity": 0.44881889763779526,
                    "duration": 0.11077474999999737
                },
                {
                    "name": "F5",
                    "midi": 77,
                    "time": 57.93519424999995,
                    "velocity": 0.4330708661417323,
                    "duration": 0.11077474999999737
                },
                {
                    "name": "G5",
                    "midi": 79,
                    "time": 58.04596899999995,
                    "velocity": 0.5039370078740157,
                    "duration": 0.11077474999999737
                },
                {
                    "name": "D#5",
                    "midi": 75,
                    "time": 58.267518499999944,
                    "velocity": 0.4566929133858268,
                    "duration": 0.11077474999999737
                },
                {
                    "name": "F5",
                    "midi": 77,
                    "time": 58.37829324999994,
                    "velocity": 0.4330708661417323,
                    "duration": 0.11077474999999737
                },
                {
                    "name": "G5",
                    "midi": 79,
                    "time": 58.48906799999994,
                    "velocity": 0.4881889763779528,
                    "duration": 0.4430989999999966
                },
                {
                    "name": "G5",
                    "midi": 79,
                    "time": 59.15371649999994,
                    "velocity": 0.5905511811023622,
                    "duration": 0.11077474999999737
                },
                {
                    "name": "G#5",
                    "midi": 80,
                    "time": 59.264491249999935,
                    "velocity": 0.5748031496062992,
                    "duration": 0.11077474999999737
                },
                {
                    "name": "A#5",
                    "midi": 82,
                    "time": 59.37526599999993,
                    "velocity": 0.6377952755905512,
                    "duration": 0.11077474999999737
                },
                {
                    "name": "G5",
                    "midi": 79,
                    "time": 59.59681549999993,
                    "velocity": 0.5669291338582677,
                    "duration": 0.11077474999999737
                },
                {
                    "name": "G#5",
                    "midi": 80,
                    "time": 59.707590249999924,
                    "velocity": 0.5433070866141733,
                    "duration": 0.11077474999999737
                },
                {
                    "name": "A#5",
                    "midi": 82,
                    "time": 59.81836499999992,
                    "velocity": 0.6299212598425197,
                    "duration": 0.11077474999999737
                },
                {
                    "name": "G5",
                    "midi": 79,
                    "time": 60.03991449999992,
                    "velocity": 0.5748031496062992,
                    "duration": 0.11077474999999737
                },
                {
                    "name": "G#5",
                    "midi": 80,
                    "time": 60.150689249999914,
                    "velocity": 0.5433070866141733,
                    "duration": 0.11077474999999737
                },
                {
                    "name": "A#5",
                    "midi": 82,
                    "time": 60.26146399999991,
                    "velocity": 0.6141732283464567,
                    "duration": 0.22154950000000184
                },
                {
                    "name": "C6",
                    "midi": 84,
                    "time": 60.48301349999991,
                    "velocity": 0.5669291338582677,
                    "duration": 0.11077474999999737
                },
                {
                    "name": "A#5",
                    "midi": 82,
                    "time": 60.59378824999991,
                    "velocity": 0.5118110236220472,
                    "duration": 0.11077474999999737
                },
                {
                    "name": "G#5",
                    "midi": 80,
                    "time": 60.70456299999991,
                    "velocity": 0.5433070866141733,
                    "duration": 0.11077474999999737
                },
                {
                    "name": "G5",
                    "midi": 79,
                    "time": 60.815337749999905,
                    "velocity": 0.5039370078740157,
                    "duration": 0.11077474999999737
                },
                {
                    "name": "F5",
                    "midi": 77,
                    "time": 60.9261124999999,
                    "velocity": 0.4881889763779528,
                    "duration": 0.11077474999999737
                },
                {
                    "name": "D#5",
                    "midi": 75,
                    "time": 61.0368872499999,
                    "velocity": 0.48031496062992124,
                    "duration": 0.11077474999999737
                },
                {
                    "name": "F5",
                    "midi": 77,
                    "time": 61.1476619999999,
                    "velocity": 0.6141732283464567,
                    "duration": 0.22154950000000184
                },
                {
                    "name": "A#5",
                    "midi": 82,
                    "time": 61.3692114999999,
                    "velocity": 0.5669291338582677,
                    "duration": 0.11077474999999737
                },
                {
                    "name": "G#5",
                    "midi": 80,
                    "time": 61.4799862499999,
                    "velocity": 0.5118110236220472,
                    "duration": 0.11077474999999737
                },
                {
                    "name": "G5",
                    "midi": 79,
                    "time": 61.590760999999894,
                    "velocity": 0.5433070866141733,
                    "duration": 0.11077474999999737
                },
                {
                    "name": "F5",
                    "midi": 77,
                    "time": 61.70153574999989,
                    "velocity": 0.5039370078740157,
                    "duration": 0.11077474999999737
                },
                {
                    "name": "D#5",
                    "midi": 75,
                    "time": 61.81231049999989,
                    "velocity": 0.4881889763779528,
                    "duration": 0.11077474999999737
                },
                {
                    "name": "D5",
                    "midi": 74,
                    "time": 61.923085249999886,
                    "velocity": 0.48031496062992124,
                    "duration": 0.11077474999999737
                },
                {
                    "name": "D#5",
                    "midi": 75,
                    "time": 62.03385999999988,
                    "velocity": 0.6062992125984252,
                    "duration": 0.22154950000000184
                },
                {
                    "name": "C6",
                    "midi": 84,
                    "time": 62.255409499999885,
                    "velocity": 0.5669291338582677,
                    "duration": 0.11077474999999737
                },
                {
                    "name": "A#5",
                    "midi": 82,
                    "time": 62.36618424999988,
                    "velocity": 0.5118110236220472,
                    "duration": 0.11077474999999737
                },
                {
                    "name": "G#5",
                    "midi": 80,
                    "time": 62.47695899999988,
                    "velocity": 0.5433070866141733,
                    "duration": 0.11077474999999737
                },
                {
                    "name": "G5",
                    "midi": 79,
                    "time": 62.58773374999988,
                    "velocity": 0.5039370078740157,
                    "duration": 0.11077474999999737
                },
                {
                    "name": "F5",
                    "midi": 77,
                    "time": 62.698508499999875,
                    "velocity": 0.4881889763779528,
                    "duration": 0.11077474999999737
                },
                {
                    "name": "D#5",
                    "midi": 75,
                    "time": 62.80928324999987,
                    "velocity": 0.5118110236220472,
                    "duration": 0.11077474999999737
                },
                {
                    "name": "F5",
                    "midi": 77,
                    "time": 62.92005799999987,
                    "velocity": 0.5748031496062992,
                    "duration": 0.22154950000000184
                },
                {
                    "name": "A#5",
                    "midi": 82,
                    "time": 63.14160749999987,
                    "velocity": 0.5039370078740157,
                    "duration": 0.11077474999999737
                },
                {
                    "name": "G#5",
                    "midi": 80,
                    "time": 63.25238224999987,
                    "velocity": 0.4566929133858268,
                    "duration": 0.11077474999999737
                },
                {
                    "name": "G5",
                    "midi": 79,
                    "time": 63.363156999999866,
                    "velocity": 0.4881889763779528,
                    "duration": 0.11077474999999737
                },
                {
                    "name": "F5",
                    "midi": 77,
                    "time": 63.47393174999986,
                    "velocity": 0.44881889763779526,
                    "duration": 0.11077474999999737
                },
                {
                    "name": "D#5",
                    "midi": 75,
                    "time": 63.58470649999986,
                    "velocity": 0.4409448818897638,
                    "duration": 0.11077474999999737
                },
                {
                    "name": "D5",
                    "midi": 74,
                    "time": 63.69548124999986,
                    "velocity": 0.4330708661417323,
                    "duration": 0.11077474999999737
                },
                {
                    "name": "D#5",
                    "midi": 75,
                    "time": 63.806255999999856,
                    "velocity": 0.5433070866141733,
                    "duration": 1.107747499999995
                },
                {
                    "name": "G5",
                    "midi": 79,
                    "time": 64.91400349999985,
                    "velocity": 0.44881889763779526,
                    "duration": 0.22154949999999474
                },
                {
                    "name": "A#5",
                    "midi": 82,
                    "time": 65.13555299999985,
                    "velocity": 0.49606299212598426,
                    "duration": 0.22154949999999474
                },
                {
                    "name": "D#5",
                    "midi": 75,
                    "time": 65.35710249999984,
                    "velocity": 0.4409448818897638,
                    "duration": 0.22154949999999474
                },
                {
                    "name": "D5",
                    "midi": 74,
                    "time": 65.57865199999983,
                    "velocity": 0.5433070866141733,
                    "duration": 1.107747500000002
                },
                {
                    "name": "F5",
                    "midi": 77,
                    "time": 66.68639949999984,
                    "velocity": 0.44881889763779526,
                    "duration": 0.22154949999999474
                },
                {
                    "name": "G#5",
                    "midi": 80,
                    "time": 66.90794899999983,
                    "velocity": 0.49606299212598426,
                    "duration": 0.22154949999999474
                },
                {
                    "name": "D5",
                    "midi": 74,
                    "time": 67.12949849999983,
                    "velocity": 0.4409448818897638,
                    "duration": 0.22154949999999474
                },
                {
                    "name": "D#5",
                    "midi": 75,
                    "time": 67.35104799999982,
                    "velocity": 0.5433070866141733,
                    "duration": 1.107747500000002
                },
                {
                    "name": "G5",
                    "midi": 79,
                    "time": 68.45879549999982,
                    "velocity": 0.44881889763779526,
                    "duration": 0.22154949999999474
                },
                {
                    "name": "A#5",
                    "midi": 82,
                    "time": 68.68034499999982,
                    "velocity": 0.49606299212598426,
                    "duration": 0.22154949999999474
                },
                {
                    "name": "D#5",
                    "midi": 75,
                    "time": 68.90189449999981,
                    "velocity": 0.4409448818897638,
                    "duration": 0.22154949999999474
                },
                {
                    "name": "D5",
                    "midi": 74,
                    "time": 69.12344399999981,
                    "velocity": 0.5433070866141733,
                    "duration": 1.107747500000002
                },
                {
                    "name": "F5",
                    "midi": 77,
                    "time": 70.23119149999981,
                    "velocity": 0.4881889763779528,
                    "duration": 0.22154949999999474
                },
                {
                    "name": "G#5",
                    "midi": 80,
                    "time": 70.4527409999998,
                    "velocity": 0.5433070866141733,
                    "duration": 0.22154949999999474
                },
                {
                    "name": "D5",
                    "midi": 74,
                    "time": 70.6742904999998,
                    "velocity": 0.5511811023622047,
                    "duration": 0.22154949999999474
                },
                {
                    "name": "C#5",
                    "midi": 73,
                    "time": 70.8958399999998,
                    "velocity": 0.6377952755905512,
                    "duration": 2.21549499999999
                },
                {
                    "name": "G5",
                    "midi": 79,
                    "time": 72.0035874999998,
                    "velocity": 0.5118110236220472,
                    "duration": 0.22154949999999474
                },
                {
                    "name": "A#5",
                    "midi": 82,
                    "time": 72.22513699999979,
                    "velocity": 0.5511811023622047,
                    "duration": 0.22154949999999474
                },
                {
                    "name": "G5",
                    "midi": 79,
                    "time": 72.44668649999979,
                    "velocity": 0.5118110236220472,
                    "duration": 0.22154949999999474
                },
                {
                    "name": "C#6",
                    "midi": 85,
                    "time": 72.66823599999978,
                    "velocity": 0.5826771653543307,
                    "duration": 0.4430990000000037
                },
                {
                    "name": "C5",
                    "midi": 72,
                    "time": 73.33288449999978,
                    "velocity": 0.47244094488188976,
                    "duration": 0.11077475000000447
                },
                {
                    "name": "C#5",
                    "midi": 73,
                    "time": 73.44365924999978,
                    "velocity": 0.4330708661417323,
                    "duration": 0.11077475000000447
                },
                {
                    "name": "D#5",
                    "midi": 75,
                    "time": 73.55443399999979,
                    "velocity": 0.47244094488188976,
                    "duration": 0.0830810624999998
                },
                {
                    "name": "D#5",
                    "midi": 75,
                    "time": 73.77598349999978,
                    "velocity": 0.48031496062992124,
                    "duration": 0.0830810624999998
                },
                {
                    "name": "D#5",
                    "midi": 75,
                    "time": 73.99753299999978,
                    "velocity": 0.49606299212598426,
                    "duration": 0.0830810624999998
                },
                {
                    "name": "G#5",
                    "midi": 80,
                    "time": 74.21908249999977,
                    "velocity": 0.5433070866141733,
                    "duration": 0.0830810624999998
                },
                {
                    "name": "D#5",
                    "midi": 75,
                    "time": 74.44063199999977,
                    "velocity": 0.48031496062992124,
                    "duration": 0.6646484999999984
                },
                {
                    "name": "C#5",
                    "midi": 73,
                    "time": 75.10528049999976,
                    "velocity": 0.44881889763779526,
                    "duration": 0.11077475000000447
                },
                {
                    "name": "C5",
                    "midi": 72,
                    "time": 75.21605524999977,
                    "velocity": 0.4251968503937008,
                    "duration": 0.11077475000000447
                },
                {
                    "name": "A#4",
                    "midi": 70,
                    "time": 75.32682999999977,
                    "velocity": 0.47244094488188976,
                    "duration": 0.1661621249999996
                },
                {
                    "name": "A#4",
                    "midi": 70,
                    "time": 75.54837949999977,
                    "velocity": 0.41732283464566927,
                    "duration": 0.22154949999999474
                },
                {
                    "name": "C5",
                    "midi": 72,
                    "time": 75.76992899999976,
                    "velocity": 0.4645669291338583,
                    "duration": 0.1661621249999996
                },
                {
                    "name": "C5",
                    "midi": 72,
                    "time": 75.99147849999976,
                    "velocity": 0.41732283464566927,
                    "duration": 0.1661621249999996
                },
                {
                    "name": "D#5",
                    "midi": 75,
                    "time": 76.21302799999975,
                    "velocity": 0.4645669291338583,
                    "duration": 0.22154949999999474
                },
                {
                    "name": "C#5",
                    "midi": 73,
                    "time": 76.43457749999975,
                    "velocity": 0.4015748031496063,
                    "duration": 0.05538737499999513
                },
                {
                    "name": "D#5",
                    "midi": 75,
                    "time": 76.48996487499974,
                    "velocity": 0.36220472440944884,
                    "duration": 0.05538737499999513
                },
                {
                    "name": "C#5",
                    "midi": 73,
                    "time": 76.54535224999974,
                    "velocity": 0.4015748031496063,
                    "duration": 0.11077475000000447
                },
                {
                    "name": "C5",
                    "midi": 72,
                    "time": 76.65612699999974,
                    "velocity": 0.4645669291338583,
                    "duration": 0.22154949999999474
                },
                {
                    "name": "C5",
                    "midi": 72,
                    "time": 76.87767649999974,
                    "velocity": 0.47244094488188976,
                    "duration": 0.11077475000000447
                },
                {
                    "name": "C#5",
                    "midi": 73,
                    "time": 76.98845124999974,
                    "velocity": 0.4330708661417323,
                    "duration": 0.11077475000000447
                },
                {
                    "name": "D#5",
                    "midi": 75,
                    "time": 77.09922599999975,
                    "velocity": 0.47244094488188976,
                    "duration": 0.0830810624999998
                },
                {
                    "name": "D#5",
                    "midi": 75,
                    "time": 77.32077549999974,
                    "velocity": 0.4645669291338583,
                    "duration": 0.0830810624999998
                },
                {
                    "name": "D#5",
                    "midi": 75,
                    "time": 77.54232499999974,
                    "velocity": 0.5039370078740157,
                    "duration": 0.0830810624999998
                },
                {
                    "name": "G#5",
                    "midi": 80,
                    "time": 77.76387449999973,
                    "velocity": 0.5196850393700787,
                    "duration": 0.0830810624999998
                },
                {
                    "name": "D#5",
                    "midi": 75,
                    "time": 77.98542399999972,
                    "velocity": 0.48031496062992124,
                    "duration": 0.6646484999999984
                },
                {
                    "name": "C#5",
                    "midi": 73,
                    "time": 78.65007249999972,
                    "velocity": 0.44881889763779526,
                    "duration": 0.11077475000000447
                },
                {
                    "name": "C5",
                    "midi": 72,
                    "time": 78.76084724999973,
                    "velocity": 0.4251968503937008,
                    "duration": 0.11077475000000447
                },
                {
                    "name": "A#4",
                    "midi": 70,
                    "time": 78.87162199999973,
                    "velocity": 0.47244094488188976,
                    "duration": 0.22154949999999474
                },
                {
                    "name": "C#5",
                    "midi": 73,
                    "time": 79.09317149999973,
                    "velocity": 0.4015748031496063,
                    "duration": 0.1661621249999996
                },
                {
                    "name": "G4",
                    "midi": 67,
                    "time": 79.31472099999972,
                    "velocity": 0.4645669291338583,
                    "duration": 0.22154949999999474
                },
                {
                    "name": "A#4",
                    "midi": 70,
                    "time": 79.53627049999972,
                    "velocity": 0.3937007874015748,
                    "duration": 0.1661621249999996
                },
                {
                    "name": "G#4",
                    "midi": 68,
                    "time": 79.75781999999971,
                    "velocity": 0.47244094488188976,
                    "duration": 0.4430990000000037
                },
                {
                    "name": "C5",
                    "midi": 72,
                    "time": 80.42246849999971,
                    "velocity": 0.47244094488188976,
                    "duration": 0.11077475000000447
                },
                {
                    "name": "C#5",
                    "midi": 73,
                    "time": 80.53324324999971,
                    "velocity": 0.4330708661417323,
                    "duration": 0.11077475000000447
                },
                {
                    "name": "D#5",
                    "midi": 75,
                    "time": 80.64401799999972,
                    "velocity": 0.47244094488188976,
                    "duration": 0.0830810624999998
                },
                {
                    "name": "G#5",
                    "midi": 80,
                    "time": 80.86556749999971,
                    "velocity": 0.48031496062992124,
                    "duration": 0.11077475000000447
                },
                {
                    "name": "C6",
                    "midi": 84,
                    "time": 80.97634224999972,
                    "velocity": 0.4409448818897638,
                    "duration": 0.11077475000000447
                },
                {
                    "name": "A#5",
                    "midi": 82,
                    "time": 81.08711699999972,
                    "velocity": 0.49606299212598426,
                    "duration": 0.11077475000000447
                },
                {
                    "name": "G#5",
                    "midi": 80,
                    "time": 81.19789174999973,
                    "velocity": 0.49606299212598426,
                    "duration": 0.11077475000000447
                },
                {
                    "name": "G5",
                    "midi": 79,
                    "time": 81.30866649999973,
                    "velocity": 0.4645669291338583,
                    "duration": 0.11077475000000447
                },
                {
                    "name": "F5",
                    "midi": 77,
                    "time": 81.41944124999974,
                    "velocity": 0.48031496062992124,
                    "duration": 0.11077475000000447
                },
                {
                    "name": "D#5",
                    "midi": 75,
                    "time": 81.53021599999974,
                    "velocity": 0.48031496062992124,
                    "duration": 0.6646484999999984
                },
                {
                    "name": "C#5",
                    "midi": 73,
                    "time": 82.19486449999974,
                    "velocity": 0.44881889763779526,
                    "duration": 0.11077475000000447
                },
                {
                    "name": "C5",
                    "midi": 72,
                    "time": 82.30563924999974,
                    "velocity": 0.4251968503937008,
                    "duration": 0.11077475000000447
                },
                {
                    "name": "A#4",
                    "midi": 70,
                    "time": 82.41641399999975,
                    "velocity": 0.47244094488188976,
                    "duration": 0.11077475000000447
                },
                {
                    "name": "D#5",
                    "midi": 75,
                    "time": 82.52718874999975,
                    "velocity": 0.3937007874015748,
                    "duration": 0.11077475000000447
                },
                {
                    "name": "A#4",
                    "midi": 70,
                    "time": 82.63796349999976,
                    "velocity": 0.4409448818897638,
                    "duration": 0.11077475000000447
                },
                {
                    "name": "D#5",
                    "midi": 75,
                    "time": 82.74873824999976,
                    "velocity": 0.3937007874015748,
                    "duration": 0.11077475000000447
                },
                {
                    "name": "C5",
                    "midi": 72,
                    "time": 82.85951299999977,
                    "velocity": 0.4409448818897638,
                    "duration": 0.11077475000000447
                },
                {
                    "name": "D#5",
                    "midi": 75,
                    "time": 82.97028774999977,
                    "velocity": 0.3700787401574803,
                    "duration": 0.11077475000000447
                },
                {
                    "name": "C5",
                    "midi": 72,
                    "time": 83.08106249999977,
                    "velocity": 0.4251968503937008,
                    "duration": 0.11077475000000447
                },
                {
                    "name": "D#5",
                    "midi": 75,
                    "time": 83.19183724999978,
                    "velocity": 0.3779527559055118,
                    "duration": 0.0830810624999998
                },
                {
                    "name": "D#5",
                    "midi": 75,
                    "time": 83.30261199999978,
                    "velocity": 0.4645669291338583,
                    "duration": 0.22154949999999474
                },
                {
                    "name": "C#5",
                    "midi": 73,
                    "time": 83.52416149999978,
                    "velocity": 0.4015748031496063,
                    "duration": 0.05538737499999513
                },
                {
                    "name": "D#5",
                    "midi": 75,
                    "time": 83.57954887499977,
                    "velocity": 0.36220472440944884,
                    "duration": 0.05538737499999513
                },
                {
                    "name": "C#5",
                    "midi": 73,
                    "time": 83.63493624999977,
                    "velocity": 0.4015748031496063,
                    "duration": 0.11077475000000447
                },
                {
                    "name": "C5",
                    "midi": 72,
                    "time": 83.74571099999977,
                    "velocity": 0.4645669291338583,
                    "duration": 0.22154949999999474
                },
                {
                    "name": "C5",
                    "midi": 72,
                    "time": 83.96726049999977,
                    "velocity": 0.47244094488188976,
                    "duration": 0.11077475000000447
                },
                {
                    "name": "C#5",
                    "midi": 73,
                    "time": 84.07803524999977,
                    "velocity": 0.4330708661417323,
                    "duration": 0.11077475000000447
                },
                {
                    "name": "D#5",
                    "midi": 75,
                    "time": 84.18880999999978,
                    "velocity": 0.47244094488188976,
                    "duration": 0.0830810624999998
                },
                {
                    "name": "G#5",
                    "midi": 80,
                    "time": 84.41035949999977,
                    "velocity": 0.48031496062992124,
                    "duration": 0.11077475000000447
                },
                {
                    "name": "C6",
                    "midi": 84,
                    "time": 84.52113424999978,
                    "velocity": 0.4409448818897638,
                    "duration": 0.11077475000000447
                },
                {
                    "name": "A#5",
                    "midi": 82,
                    "time": 84.63190899999978,
                    "velocity": 0.49606299212598426,
                    "duration": 0.11077475000000447
                },
                {
                    "name": "G#5",
                    "midi": 80,
                    "time": 84.74268374999978,
                    "velocity": 0.49606299212598426,
                    "duration": 0.11077475000000447
                },
                {
                    "name": "G5",
                    "midi": 79,
                    "time": 84.85345849999979,
                    "velocity": 0.4645669291338583,
                    "duration": 0.11077475000000447
                },
                {
                    "name": "F5",
                    "midi": 77,
                    "time": 84.9642332499998,
                    "velocity": 0.48031496062992124,
                    "duration": 0.11077475000000447
                },
                {
                    "name": "D#5",
                    "midi": 75,
                    "time": 85.0750079999998,
                    "velocity": 0.48031496062992124,
                    "duration": 0.6646484999999984
                },
                {
                    "name": "C#5",
                    "midi": 73,
                    "time": 85.7396564999998,
                    "velocity": 0.44881889763779526,
                    "duration": 0.11077475000000447
                },
                {
                    "name": "C5",
                    "midi": 72,
                    "time": 85.8504312499998,
                    "velocity": 0.4251968503937008,
                    "duration": 0.11077475000000447
                },
                {
                    "name": "A#4",
                    "midi": 70,
                    "time": 85.9612059999998,
                    "velocity": 0.47244094488188976,
                    "duration": 0.11077475000000447
                },
                {
                    "name": "C#5",
                    "midi": 73,
                    "time": 86.07198074999981,
                    "velocity": 0.3937007874015748,
                    "duration": 0.11077475000000447
                },
                {
                    "name": "A#4",
                    "midi": 70,
                    "time": 86.18275549999981,
                    "velocity": 0.4409448818897638,
                    "duration": 0.11077475000000447
                },
                {
                    "name": "C#5",
                    "midi": 73,
                    "time": 86.29353024999982,
                    "velocity": 0.3937007874015748,
                    "duration": 0.11077475000000447
                },
                {
                    "name": "G4",
                    "midi": 67,
                    "time": 86.40430499999982,
                    "velocity": 0.4409448818897638,
                    "duration": 0.11077475000000447
                },
                {
                    "name": "A#4",
                    "midi": 70,
                    "time": 86.62585449999983,
                    "velocity": 0.4251968503937008,
                    "duration": 0.1661621249999996
                },
                {
                    "name": "G#4",
                    "midi": 68,
                    "time": 86.84740399999983,
                    "velocity": 0.47244094488188976,
                    "duration": 0.4430990000000037
                },
                {
                    "name": "D#5",
                    "midi": 75,
                    "time": 87.51205249999983,
                    "velocity": 0.41732283464566927,
                    "duration": 0.22154949999999474
                },
                {
                    "name": "F5",
                    "midi": 77,
                    "time": 87.73360199999982,
                    "velocity": 0.4645669291338583,
                    "duration": 0.11077475000000447
                },
                {
                    "name": "G#5",
                    "midi": 80,
                    "time": 87.84437674999982,
                    "velocity": 0.41732283464566927,
                    "duration": 0.11077475000000447
                },
                {
                    "name": "F5",
                    "midi": 77,
                    "time": 87.95515149999983,
                    "velocity": 0.4330708661417323,
                    "duration": 0.11077475000000447
                },
                {
                    "name": "D#5",
                    "midi": 75,
                    "time": 88.06592624999983,
                    "velocity": 0.4015748031496063,
                    "duration": 0.11077475000000447
                },
                {
                    "name": "D5",
                    "midi": 74,
                    "time": 88.17670099999984,
                    "velocity": 0.4409448818897638,
                    "duration": 0.1661621249999996
                },
                {
                    "name": "B5",
                    "midi": 83,
                    "time": 88.39825049999983,
                    "velocity": 0.4645669291338583,
                    "duration": 0.22154949999999474
                },
                {
                    "name": "A#5",
                    "midi": 82,
                    "time": 88.84134949999982,
                    "velocity": 0.4645669291338583,
                    "duration": 0.11077475000000447
                },
                {
                    "name": "G5",
                    "midi": 79,
                    "time": 88.95212424999983,
                    "velocity": 0.41732283464566927,
                    "duration": 0.11077475000000447
                },
                {
                    "name": "D#5",
                    "midi": 75,
                    "time": 89.06289899999983,
                    "velocity": 0.41732283464566927,
                    "duration": 0.22154949999999474
                },
                {
                    "name": "C5",
                    "midi": 72,
                    "time": 89.28444849999983,
                    "velocity": 0.4645669291338583,
                    "duration": 0.22154949999999474
                },
                {
                    "name": "C#5",
                    "midi": 73,
                    "time": 89.50599799999982,
                    "velocity": 0.4645669291338583,
                    "duration": 0.11077475000000447
                },
                {
                    "name": "F5",
                    "midi": 77,
                    "time": 89.61677274999983,
                    "velocity": 0.41732283464566927,
                    "duration": 0.11077475000000447
                },
                {
                    "name": "C#5",
                    "midi": 73,
                    "time": 89.72754749999983,
                    "velocity": 0.4330708661417323,
                    "duration": 0.11077475000000447
                },
                {
                    "name": "C5",
                    "midi": 72,
                    "time": 89.83832224999983,
                    "velocity": 0.4015748031496063,
                    "duration": 0.11077475000000447
                },
                {
                    "name": "B4",
                    "midi": 71,
                    "time": 89.94909699999984,
                    "velocity": 0.4330708661417323,
                    "duration": 0.1661621249999996
                },
                {
                    "name": "G#5",
                    "midi": 80,
                    "time": 90.17064649999983,
                    "velocity": 0.4645669291338583,
                    "duration": 0.22154949999999474
                },
                {
                    "name": "G5",
                    "midi": 79,
                    "time": 90.61374549999982,
                    "velocity": 0.4645669291338583,
                    "duration": 0.11077475000000447
                },
                {
                    "name": "D#5",
                    "midi": 75,
                    "time": 90.72452024999983,
                    "velocity": 0.41732283464566927,
                    "duration": 0.11077475000000447
                },
                {
                    "name": "C5",
                    "midi": 72,
                    "time": 90.83529499999983,
                    "velocity": 0.41732283464566927,
                    "duration": 0.22154949999999474
                },
                {
                    "name": "G#4",
                    "midi": 68,
                    "time": 91.05684449999983,
                    "velocity": 0.4645669291338583,
                    "duration": 0.22154949999999474
                },
                {
                    "name": "A#4",
                    "midi": 70,
                    "time": 91.27839399999982,
                    "velocity": 0.4645669291338583,
                    "duration": 0.11077475000000447
                },
                {
                    "name": "C#5",
                    "midi": 73,
                    "time": 91.38916874999983,
                    "velocity": 0.41732283464566927,
                    "duration": 0.11077475000000447
                },
                {
                    "name": "A#4",
                    "midi": 70,
                    "time": 91.49994349999983,
                    "velocity": 0.4330708661417323,
                    "duration": 0.11077475000000447
                },
                {
                    "name": "G#4",
                    "midi": 68,
                    "time": 91.61071824999983,
                    "velocity": 0.4015748031496063,
                    "duration": 0.11077475000000447
                },
                {
                    "name": "G4",
                    "midi": 67,
                    "time": 91.72149299999984,
                    "velocity": 0.41732283464566927,
                    "duration": 0.1661621249999996
                },
                {
                    "name": "F5",
                    "midi": 77,
                    "time": 91.94304249999983,
                    "velocity": 0.4645669291338583,
                    "duration": 0.22154949999999474
                },
                {
                    "name": "D#5",
                    "midi": 75,
                    "time": 92.38614149999982,
                    "velocity": 0.4645669291338583,
                    "duration": 0.11077475000000447
                },
                {
                    "name": "C5",
                    "midi": 72,
                    "time": 92.49691624999983,
                    "velocity": 0.41732283464566927,
                    "duration": 0.11077475000000447
                },
                {
                    "name": "G#4",
                    "midi": 68,
                    "time": 92.60769099999983,
                    "velocity": 0.41732283464566927,
                    "duration": 0.22154949999999474
                },
                {
                    "name": "D#5",
                    "midi": 75,
                    "time": 92.82924049999983,
                    "velocity": 0.4645669291338583,
                    "duration": 0.22154949999999474
                },
                {
                    "name": "D5",
                    "midi": 74,
                    "time": 93.27233949999982,
                    "velocity": 0.4645669291338583,
                    "duration": 0.11077475000000447
                },
                {
                    "name": "F5",
                    "midi": 77,
                    "time": 93.38311424999982,
                    "velocity": 0.4015748031496063,
                    "duration": 0.11077475000000447
                },
                {
                    "name": "G#5",
                    "midi": 80,
                    "time": 93.49388899999983,
                    "velocity": 0.41732283464566927,
                    "duration": 0.22154949999999474
                },
                {
                    "name": "D5",
                    "midi": 74,
                    "time": 93.71543849999982,
                    "velocity": 0.3937007874015748,
                    "duration": 0.22154949999999474
                },
                {
                    "name": "D#5",
                    "midi": 75,
                    "time": 94.15853749999981,
                    "velocity": 0.4645669291338583,
                    "duration": 0.11077475000000447
                },
                {
                    "name": "G5",
                    "midi": 79,
                    "time": 94.26931224999981,
                    "velocity": 0.3858267716535433,
                    "duration": 0.11077475000000447
                },
                {
                    "name": "A#5",
                    "midi": 82,
                    "time": 94.38008699999982,
                    "velocity": 0.4645669291338583,
                    "duration": 0.22154949999999474
                },
                {
                    "name": "D#5",
                    "midi": 75,
                    "time": 94.60163649999981,
                    "velocity": 0.4409448818897638,
                    "duration": 0.22154949999999474
                },
                {
                    "name": "D5",
                    "midi": 74,
                    "time": 95.0447354999998,
                    "velocity": 0.4645669291338583,
                    "duration": 0.11077475000000447
                },
                {
                    "name": "F5",
                    "midi": 77,
                    "time": 95.15551024999981,
                    "velocity": 0.3779527559055118,
                    "duration": 0.11077475000000447
                },
                {
                    "name": "G#5",
                    "midi": 80,
                    "time": 95.26628499999981,
                    "velocity": 0.4015748031496063,
                    "duration": 0.22154949999999474
                },
                {
                    "name": "D5",
                    "midi": 74,
                    "time": 95.4878344999998,
                    "velocity": 0.33858267716535434,
                    "duration": 0.22154949999999474
                },
                {
                    "name": "F5",
                    "midi": 77,
                    "time": 95.7093839999998,
                    "velocity": 0.41732283464566927,
                    "duration": 0.22154949999999474
                },
                {
                    "name": "D#5",
                    "midi": 75,
                    "time": 95.9309334999998,
                    "velocity": 0.3700787401574803,
                    "duration": 0.11077475000000447
                },
                {
                    "name": "C5",
                    "midi": 72,
                    "time": 96.3740324999998,
                    "velocity": 0.47244094488188976,
                    "duration": 0.11077475000000447
                },
                {
                    "name": "C#5",
                    "midi": 73,
                    "time": 96.4848072499998,
                    "velocity": 0.4330708661417323,
                    "duration": 0.11077475000000447
                },
                {
                    "name": "D#5",
                    "midi": 75,
                    "time": 96.59558199999981,
                    "velocity": 0.47244094488188976,
                    "duration": 0.0830810624999998
                },
                {
                    "name": "G#5",
                    "midi": 80,
                    "time": 96.8171314999998,
                    "velocity": 0.48031496062992124,
                    "duration": 0.11077475000000447
                },
                {
                    "name": "C6",
                    "midi": 84,
                    "time": 96.92790624999981,
                    "velocity": 0.4409448818897638,
                    "duration": 0.11077475000000447
                },
                {
                    "name": "A#5",
                    "midi": 82,
                    "time": 97.03868099999981,
                    "velocity": 0.49606299212598426,
                    "duration": 0.11077475000000447
                },
                {
                    "name": "G#5",
                    "midi": 80,
                    "time": 97.14945574999982,
                    "velocity": 0.49606299212598426,
                    "duration": 0.11077475000000447
                },
                {
                    "name": "G5",
                    "midi": 79,
                    "time": 97.26023049999982,
                    "velocity": 0.4645669291338583,
                    "duration": 0.11077475000000447
                },
                {
                    "name": "F5",
                    "midi": 77,
                    "time": 97.37100524999983,
                    "velocity": 0.48031496062992124,
                    "duration": 0.11077475000000447
                },
                {
                    "name": "D#5",
                    "midi": 75,
                    "time": 97.48177999999983,
                    "velocity": 0.48031496062992124,
                    "duration": 0.6646484999999984
                },
                {
                    "name": "C#5",
                    "midi": 73,
                    "time": 98.14642849999983,
                    "velocity": 0.44881889763779526,
                    "duration": 0.11077475000000447
                },
                {
                    "name": "C5",
                    "midi": 72,
                    "time": 98.25720324999983,
                    "velocity": 0.4251968503937008,
                    "duration": 0.11077475000000447
                },
                {
                    "name": "A#4",
                    "midi": 70,
                    "time": 98.36797799999984,
                    "velocity": 0.47244094488188976,
                    "duration": 0.11077475000000447
                },
                {
                    "name": "D#5",
                    "midi": 75,
                    "time": 98.47875274999984,
                    "velocity": 0.3937007874015748,
                    "duration": 0.11077475000000447
                },
                {
                    "name": "A#4",
                    "midi": 70,
                    "time": 98.58952749999985,
                    "velocity": 0.4409448818897638,
                    "duration": 0.11077475000000447
                },
                {
                    "name": "D#5",
                    "midi": 75,
                    "time": 98.70030224999985,
                    "velocity": 0.3937007874015748,
                    "duration": 0.11077475000000447
                },
                {
                    "name": "C5",
                    "midi": 72,
                    "time": 98.81107699999986,
                    "velocity": 0.4409448818897638,
                    "duration": 0.11077475000000447
                },
                {
                    "name": "D#5",
                    "midi": 75,
                    "time": 98.92185174999986,
                    "velocity": 0.3700787401574803,
                    "duration": 0.11077475000000447
                },
                {
                    "name": "C5",
                    "midi": 72,
                    "time": 99.03262649999986,
                    "velocity": 0.4251968503937008,
                    "duration": 0.11077475000000447
                },
                {
                    "name": "D#5",
                    "midi": 75,
                    "time": 99.14340124999987,
                    "velocity": 0.3779527559055118,
                    "duration": 0.0830810624999998
                },
                {
                    "name": "D#5",
                    "midi": 75,
                    "time": 99.25417599999987,
                    "velocity": 0.4645669291338583,
                    "duration": 0.22154949999999474
                },
                {
                    "name": "C#5",
                    "midi": 73,
                    "time": 99.47572549999987,
                    "velocity": 0.4015748031496063,
                    "duration": 0.05538737499999513
                },
                {
                    "name": "D#5",
                    "midi": 75,
                    "time": 99.53111287499986,
                    "velocity": 0.36220472440944884,
                    "duration": 0.05538737499999513
                },
                {
                    "name": "C#5",
                    "midi": 73,
                    "time": 99.58650024999986,
                    "velocity": 0.4015748031496063,
                    "duration": 0.11077475000000447
                },
                {
                    "name": "C5",
                    "midi": 72,
                    "time": 99.69727499999986,
                    "velocity": 0.4645669291338583,
                    "duration": 0.22154949999999474
                },
                {
                    "name": "C5",
                    "midi": 72,
                    "time": 99.91882449999986,
                    "velocity": 0.47244094488188976,
                    "duration": 0.11077475000000447
                },
                {
                    "name": "C#5",
                    "midi": 73,
                    "time": 100.02959924999986,
                    "velocity": 0.4330708661417323,
                    "duration": 0.11077475000000447
                },
                {
                    "name": "D#5",
                    "midi": 75,
                    "time": 100.14037399999987,
                    "velocity": 0.47244094488188976,
                    "duration": 0.0830810624999998
                },
                {
                    "name": "C6",
                    "midi": 84,
                    "time": 100.36192349999986,
                    "velocity": 0.48031496062992124,
                    "duration": 0.11077475000000447
                },
                {
                    "name": "G#5",
                    "midi": 80,
                    "time": 100.47269824999987,
                    "velocity": 0.4409448818897638,
                    "duration": 0.11077475000000447
                },
                {
                    "name": "A#5",
                    "midi": 82,
                    "time": 100.58347299999987,
                    "velocity": 0.49606299212598426,
                    "duration": 0.11077475000000447
                },
                {
                    "name": "G5",
                    "midi": 79,
                    "time": 100.69424774999987,
                    "velocity": 0.49606299212598426,
                    "duration": 0.11077475000000447
                },
                {
                    "name": "G#5",
                    "midi": 80,
                    "time": 100.80502249999988,
                    "velocity": 0.4645669291338583,
                    "duration": 0.11077475000000447
                },
                {
                    "name": "F5",
                    "midi": 77,
                    "time": 100.91579724999988,
                    "velocity": 0.48031496062992124,
                    "duration": 0.11077475000000447
                },
                {
                    "name": "D#5",
                    "midi": 75,
                    "time": 101.02657199999989,
                    "velocity": 0.48031496062992124,
                    "duration": 0.6646484999999984
                },
                {
                    "name": "C#5",
                    "midi": 73,
                    "time": 101.69122049999989,
                    "velocity": 0.44881889763779526,
                    "duration": 0.11077475000000447
                },
                {
                    "name": "C5",
                    "midi": 72,
                    "time": 101.80199524999989,
                    "velocity": 0.4251968503937008,
                    "duration": 0.11077475000000447
                },
                {
                    "name": "A#4",
                    "midi": 70,
                    "time": 101.9127699999999,
                    "velocity": 0.47244094488188976,
                    "duration": 0.11077475000000447
                },
                {
                    "name": "C#5",
                    "midi": 73,
                    "time": 102.0235447499999,
                    "velocity": 0.3937007874015748,
                    "duration": 0.11077475000000447
                },
                {
                    "name": "A#4",
                    "midi": 70,
                    "time": 102.1343194999999,
                    "velocity": 0.4409448818897638,
                    "duration": 0.11077475000000447
                },
                {
                    "name": "C#5",
                    "midi": 73,
                    "time": 102.24509424999991,
                    "velocity": 0.3937007874015748,
                    "duration": 0.11077475000000447
                },
                {
                    "name": "G4",
                    "midi": 67,
                    "time": 102.35586899999991,
                    "velocity": 0.4409448818897638,
                    "duration": 0.11077475000000447
                },
                {
                    "name": "A#4",
                    "midi": 70,
                    "time": 102.57741849999992,
                    "velocity": 0.4251968503937008,
                    "duration": 0.1661621249999996
                },
                {
                    "name": "G#4",
                    "midi": 68,
                    "time": 102.79896799999992,
                    "velocity": 0.47244094488188976,
                    "duration": 0.4430990000000037
                },
                {
                    "name": "D#5",
                    "midi": 75,
                    "time": 103.46361649999992,
                    "velocity": 0.41732283464566927,
                    "duration": 0.22154949999999474
                },
                {
                    "name": "F5",
                    "midi": 77,
                    "time": 103.68516599999991,
                    "velocity": 0.4645669291338583,
                    "duration": 0.11077475000000447
                },
                {
                    "name": "G#5",
                    "midi": 80,
                    "time": 103.79594074999991,
                    "velocity": 0.41732283464566927,
                    "duration": 0.11077475000000447
                },
                {
                    "name": "F5",
                    "midi": 77,
                    "time": 103.90671549999992,
                    "velocity": 0.4330708661417323,
                    "duration": 0.11077475000000447
                },
                {
                    "name": "D#5",
                    "midi": 75,
                    "time": 104.01749024999992,
                    "velocity": 0.4015748031496063,
                    "duration": 0.11077475000000447
                },
                {
                    "name": "D5",
                    "midi": 74,
                    "time": 104.12826499999993,
                    "velocity": 0.4409448818897638,
                    "duration": 0.1661621249999996
                },
                {
                    "name": "B5",
                    "midi": 83,
                    "time": 104.34981449999992,
                    "velocity": 0.4645669291338583,
                    "duration": 0.22154949999999474
                },
                {
                    "name": "A#5",
                    "midi": 82,
                    "time": 104.79291349999991,
                    "velocity": 0.4645669291338583,
                    "duration": 0.11077475000000447
                },
                {
                    "name": "G5",
                    "midi": 79,
                    "time": 104.90368824999992,
                    "velocity": 0.41732283464566927,
                    "duration": 0.11077475000000447
                },
                {
                    "name": "D#5",
                    "midi": 75,
                    "time": 105.01446299999992,
                    "velocity": 0.41732283464566927,
                    "duration": 0.22154949999999474
                },
                {
                    "name": "C5",
                    "midi": 72,
                    "time": 105.23601249999992,
                    "velocity": 0.4645669291338583,
                    "duration": 0.22154949999999474
                },
                {
                    "name": "C#5",
                    "midi": 73,
                    "time": 105.45756199999991,
                    "velocity": 0.4645669291338583,
                    "duration": 0.11077475000000447
                },
                {
                    "name": "F5",
                    "midi": 77,
                    "time": 105.56833674999992,
                    "velocity": 0.41732283464566927,
                    "duration": 0.11077475000000447
                },
                {
                    "name": "C#5",
                    "midi": 73,
                    "time": 105.67911149999992,
                    "velocity": 0.4330708661417323,
                    "duration": 0.11077475000000447
                },
                {
                    "name": "C5",
                    "midi": 72,
                    "time": 105.78988624999992,
                    "velocity": 0.4015748031496063,
                    "duration": 0.11077475000000447
                },
                {
                    "name": "B4",
                    "midi": 71,
                    "time": 105.90066099999993,
                    "velocity": 0.4330708661417323,
                    "duration": 0.1661621249999996
                },
                {
                    "name": "G#5",
                    "midi": 80,
                    "time": 106.12221049999992,
                    "velocity": 0.4645669291338583,
                    "duration": 0.22154949999999474
                },
                {
                    "name": "G5",
                    "midi": 79,
                    "time": 106.56530949999991,
                    "velocity": 0.4645669291338583,
                    "duration": 0.11077475000000447
                },
                {
                    "name": "D#5",
                    "midi": 75,
                    "time": 106.67608424999992,
                    "velocity": 0.41732283464566927,
                    "duration": 0.11077475000000447
                },
                {
                    "name": "C5",
                    "midi": 72,
                    "time": 106.78685899999992,
                    "velocity": 0.41732283464566927,
                    "duration": 0.22154949999999474
                },
                {
                    "name": "G#4",
                    "midi": 68,
                    "time": 107.00840849999992,
                    "velocity": 0.4645669291338583,
                    "duration": 0.22154949999999474
                },
                {
                    "name": "A#4",
                    "midi": 70,
                    "time": 107.22995799999991,
                    "velocity": 0.4645669291338583,
                    "duration": 0.11077475000000447
                },
                {
                    "name": "C#5",
                    "midi": 73,
                    "time": 107.34073274999992,
                    "velocity": 0.41732283464566927,
                    "duration": 0.11077475000000447
                },
                {
                    "name": "A#4",
                    "midi": 70,
                    "time": 107.45150749999992,
                    "velocity": 0.4330708661417323,
                    "duration": 0.11077475000000447
                },
                {
                    "name": "G#4",
                    "midi": 68,
                    "time": 107.56228224999992,
                    "velocity": 0.4015748031496063,
                    "duration": 0.11077475000000447
                },
                {
                    "name": "G4",
                    "midi": 67,
                    "time": 107.67305699999993,
                    "velocity": 0.41732283464566927,
                    "duration": 0.1661621249999996
                },
                {
                    "name": "F5",
                    "midi": 77,
                    "time": 107.89460649999992,
                    "velocity": 0.4645669291338583,
                    "duration": 0.22154949999999474
                },
                {
                    "name": "D#5",
                    "midi": 75,
                    "time": 108.33770549999991,
                    "velocity": 0.4645669291338583,
                    "duration": 0.11077475000000447
                },
                {
                    "name": "C5",
                    "midi": 72,
                    "time": 108.44848024999992,
                    "velocity": 0.41732283464566927,
                    "duration": 0.11077475000000447
                },
                {
                    "name": "G#4",
                    "midi": 68,
                    "time": 108.55925499999992,
                    "velocity": 0.41732283464566927,
                    "duration": 0.22154949999999474
                },
                {
                    "name": "D#5",
                    "midi": 75,
                    "time": 108.78080449999992,
                    "velocity": 0.4645669291338583,
                    "duration": 0.22154949999999474
                },
                {
                    "name": "D5",
                    "midi": 74,
                    "time": 109.2239034999999,
                    "velocity": 0.4645669291338583,
                    "duration": 0.11077475000000447
                },
                {
                    "name": "F5",
                    "midi": 77,
                    "time": 109.33467824999991,
                    "velocity": 0.4015748031496063,
                    "duration": 0.11077475000000447
                },
                {
                    "name": "G#5",
                    "midi": 80,
                    "time": 109.44545299999992,
                    "velocity": 0.41732283464566927,
                    "duration": 0.22154949999999474
                },
                {
                    "name": "D5",
                    "midi": 74,
                    "time": 109.66700249999991,
                    "velocity": 0.3937007874015748,
                    "duration": 0.22154949999999474
                },
                {
                    "name": "D#5",
                    "midi": 75,
                    "time": 110.1101014999999,
                    "velocity": 0.4645669291338583,
                    "duration": 0.11077475000000447
                },
                {
                    "name": "G5",
                    "midi": 79,
                    "time": 110.2208762499999,
                    "velocity": 0.3858267716535433,
                    "duration": 0.11077475000000447
                },
                {
                    "name": "A#5",
                    "midi": 82,
                    "time": 110.33165099999991,
                    "velocity": 0.4645669291338583,
                    "duration": 0.22154949999999474
                },
                {
                    "name": "D#5",
                    "midi": 75,
                    "time": 110.5532004999999,
                    "velocity": 0.4409448818897638,
                    "duration": 0.22154949999999474
                },
                {
                    "name": "D5",
                    "midi": 74,
                    "time": 110.99629949999989,
                    "velocity": 0.4645669291338583,
                    "duration": 0.11077475000000447
                },
                {
                    "name": "F5",
                    "midi": 77,
                    "time": 111.1070742499999,
                    "velocity": 0.3779527559055118,
                    "duration": 0.11077475000000447
                },
                {
                    "name": "G#5",
                    "midi": 80,
                    "time": 111.2178489999999,
                    "velocity": 0.4015748031496063,
                    "duration": 0.22154949999999474
                },
                {
                    "name": "D5",
                    "midi": 74,
                    "time": 111.4393984999999,
                    "velocity": 0.33858267716535434,
                    "duration": 0.22154949999999474
                },
                {
                    "name": "F5",
                    "midi": 77,
                    "time": 111.66094799999989,
                    "velocity": 0.41732283464566927,
                    "duration": 0.22154949999999474
                },
                {
                    "name": "D#5",
                    "midi": 75,
                    "time": 111.88249749999989,
                    "velocity": 0.3700787401574803,
                    "duration": 0.11077475000000447
                },
                {
                    "name": "C5",
                    "midi": 72,
                    "time": 112.32559649999989,
                    "velocity": 0.47244094488188976,
                    "duration": 0.11077475000000447
                },
                {
                    "name": "C#5",
                    "midi": 73,
                    "time": 112.4363712499999,
                    "velocity": 0.4330708661417323,
                    "duration": 0.11077475000000447
                },
                {
                    "name": "D#5",
                    "midi": 75,
                    "time": 112.5471459999999,
                    "velocity": 0.47244094488188976,
                    "duration": 0.0830810624999998
                },
                {
                    "name": "G#5",
                    "midi": 80,
                    "time": 112.7686954999999,
                    "velocity": 0.48031496062992124,
                    "duration": 0.11077475000000447
                },
                {
                    "name": "C6",
                    "midi": 84,
                    "time": 112.8794702499999,
                    "velocity": 0.4409448818897638,
                    "duration": 0.11077475000000447
                },
                {
                    "name": "A#5",
                    "midi": 82,
                    "time": 112.9902449999999,
                    "velocity": 0.49606299212598426,
                    "duration": 0.11077475000000447
                },
                {
                    "name": "G#5",
                    "midi": 80,
                    "time": 113.1010197499999,
                    "velocity": 0.49606299212598426,
                    "duration": 0.11077475000000447
                },
                {
                    "name": "G5",
                    "midi": 79,
                    "time": 113.21179449999991,
                    "velocity": 0.4645669291338583,
                    "duration": 0.11077475000000447
                },
                {
                    "name": "F5",
                    "midi": 77,
                    "time": 113.32256924999992,
                    "velocity": 0.48031496062992124,
                    "duration": 0.11077475000000447
                },
                {
                    "name": "D#5",
                    "midi": 75,
                    "time": 113.43334399999992,
                    "velocity": 0.48031496062992124,
                    "duration": 0.6646484999999984
                },
                {
                    "name": "C#5",
                    "midi": 73,
                    "time": 114.09799249999992,
                    "velocity": 0.44881889763779526,
                    "duration": 0.11077475000000447
                },
                {
                    "name": "C5",
                    "midi": 72,
                    "time": 114.20876724999992,
                    "velocity": 0.4251968503937008,
                    "duration": 0.11077475000000447
                },
                {
                    "name": "A#4",
                    "midi": 70,
                    "time": 114.31954199999993,
                    "velocity": 0.47244094488188976,
                    "duration": 0.11077475000000447
                },
                {
                    "name": "D#5",
                    "midi": 75,
                    "time": 114.43031674999993,
                    "velocity": 0.3937007874015748,
                    "duration": 0.11077475000000447
                },
                {
                    "name": "A#4",
                    "midi": 70,
                    "time": 114.54109149999994,
                    "velocity": 0.4409448818897638,
                    "duration": 0.11077475000000447
                },
                {
                    "name": "D#5",
                    "midi": 75,
                    "time": 114.65186624999994,
                    "velocity": 0.3937007874015748,
                    "duration": 0.11077475000000447
                },
                {
                    "name": "C5",
                    "midi": 72,
                    "time": 114.76264099999995,
                    "velocity": 0.4409448818897638,
                    "duration": 0.11077475000000447
                },
                {
                    "name": "D#5",
                    "midi": 75,
                    "time": 114.87341574999995,
                    "velocity": 0.3700787401574803,
                    "duration": 0.11077475000000447
                },
                {
                    "name": "C5",
                    "midi": 72,
                    "time": 114.98419049999995,
                    "velocity": 0.4251968503937008,
                    "duration": 0.11077475000000447
                },
                {
                    "name": "D#5",
                    "midi": 75,
                    "time": 115.09496524999996,
                    "velocity": 0.3779527559055118,
                    "duration": 0.0830810624999998
                },
                {
                    "name": "D#5",
                    "midi": 75,
                    "time": 115.20573999999996,
                    "velocity": 0.4645669291338583,
                    "duration": 0.22154949999999474
                },
                {
                    "name": "C#5",
                    "midi": 73,
                    "time": 115.42728949999996,
                    "velocity": 0.4015748031496063,
                    "duration": 0.05538737499999513
                },
                {
                    "name": "D#5",
                    "midi": 75,
                    "time": 115.48267687499995,
                    "velocity": 0.36220472440944884,
                    "duration": 0.05538737499999513
                },
                {
                    "name": "C#5",
                    "midi": 73,
                    "time": 115.53806424999995,
                    "velocity": 0.4015748031496063,
                    "duration": 0.11077475000000447
                },
                {
                    "name": "C5",
                    "midi": 72,
                    "time": 115.64883899999995,
                    "velocity": 0.4645669291338583,
                    "duration": 0.22154949999999474
                },
                {
                    "name": "C5",
                    "midi": 72,
                    "time": 115.87038849999995,
                    "velocity": 0.47244094488188976,
                    "duration": 0.11077475000000447
                },
                {
                    "name": "C#5",
                    "midi": 73,
                    "time": 115.98116324999995,
                    "velocity": 0.4330708661417323,
                    "duration": 0.11077475000000447
                },
                {
                    "name": "D#5",
                    "midi": 75,
                    "time": 116.09193799999996,
                    "velocity": 0.47244094488188976,
                    "duration": 0.0830810624999998
                },
                {
                    "name": "C6",
                    "midi": 84,
                    "time": 116.31348749999995,
                    "velocity": 0.48031496062992124,
                    "duration": 0.11077475000000447
                },
                {
                    "name": "G#5",
                    "midi": 80,
                    "time": 116.42426224999996,
                    "velocity": 0.4409448818897638,
                    "duration": 0.11077475000000447
                },
                {
                    "name": "A#5",
                    "midi": 82,
                    "time": 116.53503699999996,
                    "velocity": 0.49606299212598426,
                    "duration": 0.11077475000000447
                },
                {
                    "name": "G5",
                    "midi": 79,
                    "time": 116.64581174999996,
                    "velocity": 0.49606299212598426,
                    "duration": 0.11077475000000447
                },
                {
                    "name": "G#5",
                    "midi": 80,
                    "time": 116.75658649999997,
                    "velocity": 0.4645669291338583,
                    "duration": 0.11077475000000447
                },
                {
                    "name": "F5",
                    "midi": 77,
                    "time": 116.86736124999997,
                    "velocity": 0.48031496062992124,
                    "duration": 0.11077475000000447
                },
                {
                    "name": "D#5",
                    "midi": 75,
                    "time": 116.97813599999998,
                    "velocity": 0.48031496062992124,
                    "duration": 0.6646484999999984
                },
                {
                    "name": "C#5",
                    "midi": 73,
                    "time": 117.64278449999998,
                    "velocity": 0.44881889763779526,
                    "duration": 0.11077475000000447
                },
                {
                    "name": "C5",
                    "midi": 72,
                    "time": 117.75355924999998,
                    "velocity": 0.4251968503937008,
                    "duration": 0.11077475000000447
                },
                {
                    "name": "A#4",
                    "midi": 70,
                    "time": 117.86433399999999,
                    "velocity": 0.47244094488188976,
                    "duration": 0.11077475000000447
                },
                {
                    "name": "C#5",
                    "midi": 73,
                    "time": 117.97510874999999,
                    "velocity": 0.3937007874015748,
                    "duration": 0.11077475000000447
                },
                {
                    "name": "A#4",
                    "midi": 70,
                    "time": 118.0858835,
                    "velocity": 0.4409448818897638,
                    "duration": 0.11077475000000447
                },
                {
                    "name": "C#5",
                    "midi": 73,
                    "time": 118.19665825,
                    "velocity": 0.3937007874015748,
                    "duration": 0.11077475000000447
                },
                {
                    "name": "G4",
                    "midi": 67,
                    "time": 118.307433,
                    "velocity": 0.4409448818897638,
                    "duration": 0.11077475000000447
                },
                {
                    "name": "A#4",
                    "midi": 70,
                    "time": 118.52898250000001,
                    "velocity": 0.4251968503937008,
                    "duration": 0.1661621249999996
                },
                {
                    "name": "G#4",
                    "midi": 68,
                    "time": 118.750532,
                    "velocity": 0.47244094488188976,
                    "duration": 0.4430990000000037
                },
                {
                    "name": "C5",
                    "midi": 72,
                    "time": 119.4151805,
                    "velocity": 0.41732283464566927,
                    "duration": 0.22154949999999474
                },
                {
                    "name": "F5",
                    "midi": 77,
                    "time": 119.63673,
                    "velocity": 0.47244094488188976,
                    "duration": 0.11077475000000447
                },
                {
                    "name": "C5",
                    "midi": 72,
                    "time": 119.74750475,
                    "velocity": 0.3937007874015748,
                    "duration": 0.11077475000000447
                },
                {
                    "name": "E5",
                    "midi": 76,
                    "time": 119.85827950000001,
                    "velocity": 0.4409448818897638,
                    "duration": 0.11077475000000447
                },
                {
                    "name": "C5",
                    "midi": 72,
                    "time": 119.96905425000001,
                    "velocity": 0.3937007874015748,
                    "duration": 0.11077475000000447
                },
                {
                    "name": "F5",
                    "midi": 77,
                    "time": 120.07982900000002,
                    "velocity": 0.4409448818897638,
                    "duration": 0.11077475000000447
                },
                {
                    "name": "C5",
                    "midi": 72,
                    "time": 120.19060375000002,
                    "velocity": 0.3700787401574803,
                    "duration": 0.11077475000000447
                },
                {
                    "name": "G#5",
                    "midi": 80,
                    "time": 120.30137850000003,
                    "velocity": 0.4251968503937008,
                    "duration": 0.11077475000000447
                },
                {
                    "name": "C5",
                    "midi": 72,
                    "time": 120.41215325000003,
                    "velocity": 0.3779527559055118,
                    "duration": 0.0830810624999998
                },
                {
                    "name": "G5",
                    "midi": 79,
                    "time": 120.52292800000004,
                    "velocity": 0.47244094488188976,
                    "duration": 0.11077475000000447
                },
                {
                    "name": "C5",
                    "midi": 72,
                    "time": 120.63370275000004,
                    "velocity": 0.3937007874015748,
                    "duration": 0.11077475000000447
                },
                {
                    "name": "B5",
                    "midi": 83,
                    "time": 120.74447750000004,
                    "velocity": 0.4409448818897638,
                    "duration": 0.11077475000000447
                },
                {
                    "name": "C5",
                    "midi": 72,
                    "time": 120.85525225000005,
                    "velocity": 0.3937007874015748,
                    "duration": 0.11077475000000447
                },
                {
                    "name": "C6",
                    "midi": 84,
                    "time": 120.96602700000005,
                    "velocity": 0.4409448818897638,
                    "duration": 0.11077475000000447
                },
                {
                    "name": "C5",
                    "midi": 72,
                    "time": 121.07680175000006,
                    "velocity": 0.3700787401574803,
                    "duration": 0.11077475000000447
                },
                {
                    "name": "A#5",
                    "midi": 82,
                    "time": 121.18757650000006,
                    "velocity": 0.4251968503937008,
                    "duration": 0.11077475000000447
                },
                {
                    "name": "C5",
                    "midi": 72,
                    "time": 121.29835125000007,
                    "velocity": 0.3779527559055118,
                    "duration": 0.0830810624999998
                },
                {
                    "name": "G#5",
                    "midi": 80,
                    "time": 121.40912600000007,
                    "velocity": 0.47244094488188976,
                    "duration": 0.11077475000000447
                },
                {
                    "name": "C5",
                    "midi": 72,
                    "time": 121.51990075000008,
                    "velocity": 0.3937007874015748,
                    "duration": 0.11077475000000447
                },
                {
                    "name": "G5",
                    "midi": 79,
                    "time": 121.63067550000008,
                    "velocity": 0.4409448818897638,
                    "duration": 0.11077475000000447
                },
                {
                    "name": "C5",
                    "midi": 72,
                    "time": 121.74145025000009,
                    "velocity": 0.3937007874015748,
                    "duration": 0.11077475000000447
                },
                {
                    "name": "F5",
                    "midi": 77,
                    "time": 121.85222500000009,
                    "velocity": 0.4409448818897638,
                    "duration": 0.11077475000000447
                },
                {
                    "name": "C5",
                    "midi": 72,
                    "time": 121.9629997500001,
                    "velocity": 0.3700787401574803,
                    "duration": 0.11077475000000447
                },
                {
                    "name": "G5",
                    "midi": 79,
                    "time": 122.0737745000001,
                    "velocity": 0.4251968503937008,
                    "duration": 0.11077475000000447
                },
                {
                    "name": "C5",
                    "midi": 72,
                    "time": 122.1845492500001,
                    "velocity": 0.3779527559055118,
                    "duration": 0.0830810624999998
                },
                {
                    "name": "E5",
                    "midi": 76,
                    "time": 122.29532400000011,
                    "velocity": 0.47244094488188976,
                    "duration": 0.11077475000000447
                },
                {
                    "name": "C5",
                    "midi": 72,
                    "time": 122.40609875000011,
                    "velocity": 0.3937007874015748,
                    "duration": 0.11077475000000447
                },
                {
                    "name": "F5",
                    "midi": 77,
                    "time": 122.51687350000012,
                    "velocity": 0.4566929133858268,
                    "duration": 0.11077475000000447
                },
                {
                    "name": "C5",
                    "midi": 72,
                    "time": 122.62764825000012,
                    "velocity": 0.4094488188976378,
                    "duration": 0.11077475000000447
                },
                {
                    "name": "G5",
                    "midi": 79,
                    "time": 122.73842300000013,
                    "velocity": 0.4409448818897638,
                    "duration": 0.22154949999999474
                },
                {
                    "name": "C5",
                    "midi": 72,
                    "time": 122.95997250000012,
                    "velocity": 0.5354330708661418,
                    "duration": 0.11077475000000447
                },
                {
                    "name": "C6",
                    "midi": 84,
                    "time": 123.07074725000012,
                    "velocity": 0.4330708661417323,
                    "duration": 0.0830810624999998
                },
                {
                    "name": "C#5",
                    "midi": 73,
                    "time": 123.18152200000013,
                    "velocity": 0.5511811023622047,
                    "duration": 0.11077475000000447
                },
                {
                    "name": "C#6",
                    "midi": 85,
                    "time": 123.29229675000013,
                    "velocity": 0.4566929133858268,
                    "duration": 0.11077475000000447
                },
                {
                    "name": "C5",
                    "midi": 72,
                    "time": 123.40307150000014,
                    "velocity": 0.5433070866141733,
                    "duration": 0.11077475000000447
                },
                {
                    "name": "C6",
                    "midi": 84,
                    "time": 123.51384625000014,
                    "velocity": 0.47244094488188976,
                    "duration": 0.11077475000000447
                },
                {
                    "name": "A#4",
                    "midi": 70,
                    "time": 123.62462100000015,
                    "velocity": 0.5511811023622047,
                    "duration": 0.11077475000000447
                },
                {
                    "name": "A#5",
                    "midi": 82,
                    "time": 123.73539575000015,
                    "velocity": 0.4645669291338583,
                    "duration": 0.11077475000000447
                },
                {
                    "name": "G#4",
                    "midi": 68,
                    "time": 123.84617050000016,
                    "velocity": 0.5433070866141733,
                    "duration": 0.11077475000000447
                },
                {
                    "name": "G#5",
                    "midi": 80,
                    "time": 123.95694525000016,
                    "velocity": 0.48031496062992124,
                    "duration": 0.11077475000000447
                },
                {
                    "name": "G4",
                    "midi": 67,
                    "time": 124.06772000000016,
                    "velocity": 0.5826771653543307,
                    "duration": 0.11077475000000447
                },
                {
                    "name": "G5",
                    "midi": 79,
                    "time": 124.17849475000017,
                    "velocity": 0.5039370078740157,
                    "duration": 0.11077475000000447
                },
                {
                    "name": "B4",
                    "midi": 71,
                    "time": 124.28926950000017,
                    "velocity": 0.5905511811023622,
                    "duration": 0.11077475000000447
                },
                {
                    "name": "B5",
                    "midi": 83,
                    "time": 124.40004425000018,
                    "velocity": 0.5039370078740157,
                    "duration": 0.11077475000000447
                },
                {
                    "name": "C5",
                    "midi": 72,
                    "time": 124.51081900000018,
                    "velocity": 0.5905511811023622,
                    "duration": 0.11077475000000447
                },
                {
                    "name": "C6",
                    "midi": 84,
                    "time": 124.62159375000019,
                    "velocity": 0.5039370078740157,
                    "duration": 0.11077475000000447
                },
                {
                    "name": "A#4",
                    "midi": 70,
                    "time": 124.73236850000019,
                    "velocity": 0.5905511811023622,
                    "duration": 0.11077475000000447
                },
                {
                    "name": "A#5",
                    "midi": 82,
                    "time": 124.8431432500002,
                    "velocity": 0.5039370078740157,
                    "duration": 0.11077475000000447
                },
                {
                    "name": "G#4",
                    "midi": 68,
                    "time": 124.9539180000002,
                    "velocity": 0.5905511811023622,
                    "duration": 0.11077475000000447
                },
                {
                    "name": "G#5",
                    "midi": 80,
                    "time": 125.0646927500002,
                    "velocity": 0.5039370078740157,
                    "duration": 0.11077475000000447
                },
                {
                    "name": "F4",
                    "midi": 65,
                    "time": 125.17546750000021,
                    "velocity": 0.5669291338582677,
                    "duration": 0.11077475000000447
                },
                {
                    "name": "F5",
                    "midi": 77,
                    "time": 125.28624225000021,
                    "velocity": 0.5039370078740157,
                    "duration": 0.11077475000000447
                },
                {
                    "name": "G4",
                    "midi": 67,
                    "time": 125.39701700000022,
                    "velocity": 0.5826771653543307,
                    "duration": 0.11077475000000447
                },
                {
                    "name": "G5",
                    "midi": 79,
                    "time": 125.50779175000022,
                    "velocity": 0.5039370078740157,
                    "duration": 0.11077475000000447
                },
                {
                    "name": "E4",
                    "midi": 64,
                    "time": 125.61856650000023,
                    "velocity": 0.5590551181102362,
                    "duration": 0.11077475000000447
                },
                {
                    "name": "E5",
                    "midi": 76,
                    "time": 125.72934125000023,
                    "velocity": 0.5039370078740157,
                    "duration": 0.05538737499999513
                },
                {
                    "name": "F4",
                    "midi": 65,
                    "time": 125.78472862500023,
                    "velocity": 0.47244094488188976,
                    "duration": 0.05538737499999513
                },
                {
                    "name": "F5",
                    "midi": 77,
                    "time": 125.84011600000022,
                    "velocity": 0.6299212598425197,
                    "duration": 0.4430990000000037
                },
                {
                    "name": "C5",
                    "midi": 72,
                    "time": 126.50476450000022,
                    "velocity": 0.41732283464566927,
                    "duration": 0.22154949999999474
                },
                {
                    "name": "F5",
                    "midi": 77,
                    "time": 126.72631400000022,
                    "velocity": 0.47244094488188976,
                    "duration": 0.11077475000000447
                },
                {
                    "name": "C5",
                    "midi": 72,
                    "time": 126.83708875000022,
                    "velocity": 0.3937007874015748,
                    "duration": 0.11077475000000447
                },
                {
                    "name": "E5",
                    "midi": 76,
                    "time": 126.94786350000022,
                    "velocity": 0.4409448818897638,
                    "duration": 0.11077475000000447
                },
                {
                    "name": "C5",
                    "midi": 72,
                    "time": 127.05863825000023,
                    "velocity": 0.3937007874015748,
                    "duration": 0.11077475000000447
                },
                {
                    "name": "F5",
                    "midi": 77,
                    "time": 127.16941300000023,
                    "velocity": 0.4409448818897638,
                    "duration": 0.11077475000000447
                },
                {
                    "name": "C5",
                    "midi": 72,
                    "time": 127.28018775000024,
                    "velocity": 0.3700787401574803,
                    "duration": 0.11077475000000447
                },
                {
                    "name": "G#5",
                    "midi": 80,
                    "time": 127.39096250000024,
                    "velocity": 0.4251968503937008,
                    "duration": 0.11077475000000447
                },
                {
                    "name": "C5",
                    "midi": 72,
                    "time": 127.50173725000025,
                    "velocity": 0.3779527559055118,
                    "duration": 0.0830810624999998
                },
                {
                    "name": "G5",
                    "midi": 79,
                    "time": 127.61251200000025,
                    "velocity": 0.47244094488188976,
                    "duration": 0.11077475000000447
                },
                {
                    "name": "C5",
                    "midi": 72,
                    "time": 127.72328675000026,
                    "velocity": 0.3937007874015748,
                    "duration": 0.11077475000000447
                },
                {
                    "name": "B5",
                    "midi": 83,
                    "time": 127.83406150000026,
                    "velocity": 0.4409448818897638,
                    "duration": 0.11077475000000447
                },
                {
                    "name": "C5",
                    "midi": 72,
                    "time": 127.94483625000026,
                    "velocity": 0.3937007874015748,
                    "duration": 0.11077474999999026
                },
                {
                    "name": "C6",
                    "midi": 84,
                    "time": 128.05561100000025,
                    "velocity": 0.4409448818897638,
                    "duration": 0.11077474999999026
                },
                {
                    "name": "C5",
                    "midi": 72,
                    "time": 128.16638575000025,
                    "velocity": 0.3700787401574803,
                    "duration": 0.11077474999999026
                },
                {
                    "name": "A#5",
                    "midi": 82,
                    "time": 128.27716050000024,
                    "velocity": 0.4251968503937008,
                    "duration": 0.11077474999999026
                },
                {
                    "name": "C5",
                    "midi": 72,
                    "time": 128.38793525000023,
                    "velocity": 0.3779527559055118,
                    "duration": 0.08308106250001401
                },
                {
                    "name": "G#5",
                    "midi": 80,
                    "time": 128.49871000000024,
                    "velocity": 0.47244094488188976,
                    "duration": 0.11077474999999026
                },
                {
                    "name": "C5",
                    "midi": 72,
                    "time": 128.60948475000023,
                    "velocity": 0.3937007874015748,
                    "duration": 0.11077474999999026
                },
                {
                    "name": "G5",
                    "midi": 79,
                    "time": 128.72025950000022,
                    "velocity": 0.4409448818897638,
                    "duration": 0.11077474999999026
                },
                {
                    "name": "C5",
                    "midi": 72,
                    "time": 128.83103425000022,
                    "velocity": 0.3937007874015748,
                    "duration": 0.11077474999999026
                },
                {
                    "name": "F5",
                    "midi": 77,
                    "time": 128.9418090000002,
                    "velocity": 0.4409448818897638,
                    "duration": 0.11077474999999026
                },
                {
                    "name": "C5",
                    "midi": 72,
                    "time": 129.0525837500002,
                    "velocity": 0.3700787401574803,
                    "duration": 0.11077474999999026
                },
                {
                    "name": "G5",
                    "midi": 79,
                    "time": 129.1633585000002,
                    "velocity": 0.4251968503937008,
                    "duration": 0.11077474999999026
                },
                {
                    "name": "C5",
                    "midi": 72,
                    "time": 129.27413325000018,
                    "velocity": 0.3779527559055118,
                    "duration": 0.08308106250001401
                },
                {
                    "name": "E5",
                    "midi": 76,
                    "time": 129.3849080000002,
                    "velocity": 0.47244094488188976,
                    "duration": 0.11077474999999026
                },
                {
                    "name": "C5",
                    "midi": 72,
                    "time": 129.49568275000019,
                    "velocity": 0.3937007874015748,
                    "duration": 0.11077474999999026
                },
                {
                    "name": "F5",
                    "midi": 77,
                    "time": 129.60645750000018,
                    "velocity": 0.4566929133858268,
                    "duration": 0.11077474999999026
                },
                {
                    "name": "C5",
                    "midi": 72,
                    "time": 129.71723225000017,
                    "velocity": 0.4094488188976378,
                    "duration": 0.11077474999999026
                },
                {
                    "name": "G5",
                    "midi": 79,
                    "time": 129.82800700000016,
                    "velocity": 0.4409448818897638,
                    "duration": 0.22154950000000895
                },
                {
                    "name": "C5",
                    "midi": 72,
                    "time": 130.04955650000016,
                    "velocity": 0.5354330708661418,
                    "duration": 0.11077474999999026
                },
                {
                    "name": "C6",
                    "midi": 84,
                    "time": 130.16033125000016,
                    "velocity": 0.4330708661417323,
                    "duration": 0.08308106250001401
                },
                {
                    "name": "C#5",
                    "midi": 73,
                    "time": 130.27110600000017,
                    "velocity": 0.5511811023622047,
                    "duration": 0.11077474999999026
                },
                {
                    "name": "C#6",
                    "midi": 85,
                    "time": 130.38188075000016,
                    "velocity": 0.4566929133858268,
                    "duration": 0.11077474999999026
                },
                {
                    "name": "C5",
                    "midi": 72,
                    "time": 130.49265550000015,
                    "velocity": 0.5433070866141733,
                    "duration": 0.11077474999999026
                },
                {
                    "name": "C6",
                    "midi": 84,
                    "time": 130.60343025000014,
                    "velocity": 0.47244094488188976,
                    "duration": 0.11077474999999026
                },
                {
                    "name": "A#4",
                    "midi": 70,
                    "time": 130.71420500000013,
                    "velocity": 0.5511811023622047,
                    "duration": 0.11077474999999026
                },
                {
                    "name": "A#5",
                    "midi": 82,
                    "time": 130.82497975000013,
                    "velocity": 0.4645669291338583,
                    "duration": 0.11077474999999026
                },
                {
                    "name": "G#4",
                    "midi": 68,
                    "time": 130.93575450000012,
                    "velocity": 0.5433070866141733,
                    "duration": 0.11077474999999026
                },
                {
                    "name": "G#5",
                    "midi": 80,
                    "time": 131.0465292500001,
                    "velocity": 0.48031496062992124,
                    "duration": 0.11077474999999026
                },
                {
                    "name": "G4",
                    "midi": 67,
                    "time": 131.1573040000001,
                    "velocity": 0.5826771653543307,
                    "duration": 0.11077474999999026
                },
                {
                    "name": "G5",
                    "midi": 79,
                    "time": 131.2680787500001,
                    "velocity": 0.5039370078740157,
                    "duration": 0.11077474999999026
                },
                {
                    "name": "B4",
                    "midi": 71,
                    "time": 131.37885350000008,
                    "velocity": 0.5905511811023622,
                    "duration": 0.11077474999999026
                },
                {
                    "name": "B5",
                    "midi": 83,
                    "time": 131.48962825000007,
                    "velocity": 0.5039370078740157,
                    "duration": 0.11077474999999026
                },
                {
                    "name": "C5",
                    "midi": 72,
                    "time": 131.60040300000006,
                    "velocity": 0.5905511811023622,
                    "duration": 0.11077474999999026
                },
                {
                    "name": "C6",
                    "midi": 84,
                    "time": 131.71117775000005,
                    "velocity": 0.5039370078740157,
                    "duration": 0.11077474999999026
                },
                {
                    "name": "A#4",
                    "midi": 70,
                    "time": 131.82195250000004,
                    "velocity": 0.5905511811023622,
                    "duration": 0.11077474999999026
                },
                {
                    "name": "A#5",
                    "midi": 82,
                    "time": 131.93272725000003,
                    "velocity": 0.5039370078740157,
                    "duration": 0.11077474999999026
                },
                {
                    "name": "G#4",
                    "midi": 68,
                    "time": 132.04350200000002,
                    "velocity": 0.5905511811023622,
                    "duration": 0.11077474999999026
                },
                {
                    "name": "G#5",
                    "midi": 80,
                    "time": 132.15427675,
                    "velocity": 0.5039370078740157,
                    "duration": 0.11077474999999026
                },
                {
                    "name": "F4",
                    "midi": 65,
                    "time": 132.2650515,
                    "velocity": 0.5669291338582677,
                    "duration": 0.11077474999999026
                },
                {
                    "name": "F5",
                    "midi": 77,
                    "time": 132.37582625,
                    "velocity": 0.5039370078740157,
                    "duration": 0.11077474999999026
                },
                {
                    "name": "G4",
                    "midi": 67,
                    "time": 132.48660099999998,
                    "velocity": 0.5826771653543307,
                    "duration": 0.11077474999999026
                },
                {
                    "name": "G5",
                    "midi": 79,
                    "time": 132.59737574999997,
                    "velocity": 0.5039370078740157,
                    "duration": 0.11077474999999026
                },
                {
                    "name": "E4",
                    "midi": 64,
                    "time": 132.70815049999996,
                    "velocity": 0.5590551181102362,
                    "duration": 0.11077474999999026
                },
                {
                    "name": "E5",
                    "midi": 76,
                    "time": 132.81892524999995,
                    "velocity": 0.5039370078740157,
                    "duration": 0.05538737500000934
                },
                {
                    "name": "F4",
                    "midi": 65,
                    "time": 132.87431262499996,
                    "velocity": 0.47244094488188976,
                    "duration": 0.05538737500000934
                },
                {
                    "name": "F5",
                    "midi": 77,
                    "time": 132.92969999999997,
                    "velocity": 0.6299212598425197,
                    "duration": 0.4430989999999895
                },
                {
                    "name": "C6",
                    "midi": 84,
                    "time": 133.59434849999997,
                    "velocity": 0.49606299212598426,
                    "duration": 0.22154950000000895
                },
                {
                    "name": "A#5",
                    "midi": 82,
                    "time": 133.81589799999998,
                    "velocity": 0.5433070866141733,
                    "duration": 0.22154950000000895
                },
                {
                    "name": "G5",
                    "midi": 79,
                    "time": 134.03744749999998,
                    "velocity": 0.47244094488188976,
                    "duration": 0.22154950000000895
                },
                {
                    "name": "G#5",
                    "midi": 80,
                    "time": 134.258997,
                    "velocity": 0.5196850393700787,
                    "duration": 0.22154950000000895
                },
                {
                    "name": "F5",
                    "midi": 77,
                    "time": 134.4805465,
                    "velocity": 0.44881889763779526,
                    "duration": 0.22154950000000895
                },
                {
                    "name": "E5",
                    "midi": 76,
                    "time": 134.702096,
                    "velocity": 0.5354330708661418,
                    "duration": 0.22154950000000895
                },
                {
                    "name": "F5",
                    "midi": 77,
                    "time": 134.92364550000002,
                    "velocity": 0.4330708661417323,
                    "duration": 0.05538737500000934
                },
                {
                    "name": "G5",
                    "midi": 79,
                    "time": 134.97903287500003,
                    "velocity": 0.4330708661417323,
                    "duration": 0.05538737500000934
                },
                {
                    "name": "F5",
                    "midi": 77,
                    "time": 135.03442025000004,
                    "velocity": 0.4330708661417323,
                    "duration": 0.11077474999999026
                },
                {
                    "name": "G5",
                    "midi": 79,
                    "time": 135.14519500000003,
                    "velocity": 0.4881889763779528,
                    "duration": 0.22154950000000895
                },
                {
                    "name": "C6",
                    "midi": 84,
                    "time": 135.36674450000004,
                    "velocity": 0.49606299212598426,
                    "duration": 0.22154950000000895
                },
                {
                    "name": "A#5",
                    "midi": 82,
                    "time": 135.58829400000005,
                    "velocity": 0.5433070866141733,
                    "duration": 0.22154950000000895
                },
                {
                    "name": "G5",
                    "midi": 79,
                    "time": 135.80984350000006,
                    "velocity": 0.47244094488188976,
                    "duration": 0.22154950000000895
                },
                {
                    "name": "G#5",
                    "midi": 80,
                    "time": 136.03139300000007,
                    "velocity": 0.5196850393700787,
                    "duration": 0.22154950000000895
                },
                {
                    "name": "F5",
                    "midi": 77,
                    "time": 136.25294250000007,
                    "velocity": 0.44881889763779526,
                    "duration": 0.22154950000000895
                },
                {
                    "name": "C6",
                    "midi": 84,
                    "time": 136.47449200000008,
                    "velocity": 0.5354330708661418,
                    "duration": 0.4430989999999895
                },
                {
                    "name": "C6",
                    "midi": 84,
                    "time": 137.13914050000008,
                    "velocity": 0.49606299212598426,
                    "duration": 0.22154950000000895
                },
                {
                    "name": "A#5",
                    "midi": 82,
                    "time": 137.3606900000001,
                    "velocity": 0.5433070866141733,
                    "duration": 0.22154950000000895
                },
                {
                    "name": "G5",
                    "midi": 79,
                    "time": 137.5822395000001,
                    "velocity": 0.47244094488188976,
                    "duration": 0.22154950000000895
                },
                {
                    "name": "G#5",
                    "midi": 80,
                    "time": 137.8037890000001,
                    "velocity": 0.5196850393700787,
                    "duration": 0.22154950000000895
                },
                {
                    "name": "F5",
                    "midi": 77,
                    "time": 138.02533850000012,
                    "velocity": 0.44881889763779526,
                    "duration": 0.22154950000000895
                },
                {
                    "name": "E5",
                    "midi": 76,
                    "time": 138.24688800000013,
                    "velocity": 0.5354330708661418,
                    "duration": 0.22154950000000895
                },
                {
                    "name": "F5",
                    "midi": 77,
                    "time": 138.46843750000014,
                    "velocity": 0.4330708661417323,
                    "duration": 0.05538737500000934
                },
                {
                    "name": "G5",
                    "midi": 79,
                    "time": 138.52382487500014,
                    "velocity": 0.41732283464566927,
                    "duration": 0.05538737500000934
                },
                {
                    "name": "F5",
                    "midi": 77,
                    "time": 138.57921225000015,
                    "velocity": 0.4330708661417323,
                    "duration": 0.11077474999999026
                },
                {
                    "name": "G5",
                    "midi": 79,
                    "time": 138.68998700000014,
                    "velocity": 0.4881889763779528,
                    "duration": 0.22154950000000895
                },
                {
                    "name": "C6",
                    "midi": 84,
                    "time": 138.91153650000015,
                    "velocity": 0.49606299212598426,
                    "duration": 0.22154950000000895
                },
                {
                    "name": "A#5",
                    "midi": 82,
                    "time": 139.13308600000016,
                    "velocity": 0.5433070866141733,
                    "duration": 0.22154950000000895
                },
                {
                    "name": "G5",
                    "midi": 79,
                    "time": 139.35463550000017,
                    "velocity": 0.47244094488188976,
                    "duration": 0.22154950000000895
                },
                {
                    "name": "G#5",
                    "midi": 80,
                    "time": 139.57618500000018,
                    "velocity": 0.5196850393700787,
                    "duration": 0.22154950000000895
                },
                {
                    "name": "F5",
                    "midi": 77,
                    "time": 139.7977345000002,
                    "velocity": 0.44881889763779526,
                    "duration": 0.22154950000000895
                },
                {
                    "name": "C6",
                    "midi": 84,
                    "time": 140.0192840000002,
                    "velocity": 0.5354330708661418,
                    "duration": 0.4430989999999895
                },
                {
                    "name": "C6",
                    "midi": 84,
                    "time": 140.6839325000002,
                    "velocity": 0.4409448818897638,
                    "duration": 0.22154950000000895
                },
                {
                    "name": "C#6",
                    "midi": 85,
                    "time": 140.9054820000002,
                    "velocity": 0.44881889763779526,
                    "duration": 0.22154950000000895
                },
                {
                    "name": "C6",
                    "midi": 84,
                    "time": 141.12703150000021,
                    "velocity": 0.4251968503937008,
                    "duration": 0.22154950000000895
                },
                {
                    "name": "A#5",
                    "midi": 82,
                    "time": 141.34858100000022,
                    "velocity": 0.44881889763779526,
                    "duration": 0.22154950000000895
                },
                {
                    "name": "G#5",
                    "midi": 80,
                    "time": 141.57013050000023,
                    "velocity": 0.41732283464566927,
                    "duration": 0.22154950000000895
                },
                {
                    "name": "G5",
                    "midi": 79,
                    "time": 141.79168000000024,
                    "velocity": 0.4566929133858268,
                    "duration": 0.22154950000000895
                },
                {
                    "name": "B5",
                    "midi": 83,
                    "time": 142.01322950000025,
                    "velocity": 0.4094488188976378,
                    "duration": 0.22154950000000895
                },
                {
                    "name": "C6",
                    "midi": 84,
                    "time": 142.23477900000026,
                    "velocity": 0.4094488188976378,
                    "duration": 0.22154950000000895
                },
                {
                    "name": "C5",
                    "midi": 72,
                    "time": 142.56710325000026,
                    "velocity": 0.41732283464566927,
                    "duration": 0.11077474999999026
                },
                {
                    "name": "C#5",
                    "midi": 73,
                    "time": 142.78865275000024,
                    "velocity": 0.4409448818897638,
                    "duration": 0.11077474999999026
                },
                {
                    "name": "C5",
                    "midi": 72,
                    "time": 143.01020225000022,
                    "velocity": 0.4015748031496063,
                    "duration": 0.11077474999999026
                },
                {
                    "name": "A#4",
                    "midi": 70,
                    "time": 143.2317517500002,
                    "velocity": 0.4409448818897638,
                    "duration": 0.11077474999999026
                },
                {
                    "name": "G#4",
                    "midi": 68,
                    "time": 143.45330125000018,
                    "velocity": 0.3937007874015748,
                    "duration": 0.11077474999999026
                },
                {
                    "name": "G4",
                    "midi": 67,
                    "time": 143.67485075000016,
                    "velocity": 0.4645669291338583,
                    "duration": 0.11077474999999026
                },
                {
                    "name": "G#4",
                    "midi": 68,
                    "time": 143.78562550000015,
                    "velocity": 0.5433070866141733,
                    "duration": 0.11077474999999026
                },
                {
                    "name": "G4",
                    "midi": 67,
                    "time": 143.89640025000014,
                    "velocity": 0.4645669291338583,
                    "duration": 0.11077474999999026
                },
                {
                    "name": "C5",
                    "midi": 72,
                    "time": 144.00717500000013,
                    "velocity": 0.5275590551181102,
                    "duration": 0.11077474999999026
                },
                {
                    "name": "A#4",
                    "midi": 70,
                    "time": 144.11794975000012,
                    "velocity": 0.4645669291338583,
                    "duration": 0.11077474999999026
                },
                {
                    "name": "G#4",
                    "midi": 68,
                    "time": 144.2287245000001,
                    "velocity": 0.5118110236220472,
                    "duration": 0.11077474999999026
                },
                {
                    "name": "G4",
                    "midi": 67,
                    "time": 144.3394992500001,
                    "velocity": 0.4645669291338583,
                    "duration": 0.11077474999999026
                },
                {
                    "name": "G#4",
                    "midi": 68,
                    "time": 144.56104875000008,
                    "velocity": 0.4645669291338583,
                    "duration": 0.11077474999999026
                },
                {
                    "name": "A#4",
                    "midi": 70,
                    "time": 144.67182350000007,
                    "velocity": 0.5433070866141733,
                    "duration": 0.11077474999999026
                },
                {
                    "name": "G#4",
                    "midi": 68,
                    "time": 144.78259825000006,
                    "velocity": 0.4645669291338583,
                    "duration": 0.11077474999999026
                },
                {
                    "name": "C#5",
                    "midi": 73,
                    "time": 144.89337300000005,
                    "velocity": 0.5275590551181102,
                    "duration": 0.11077474999999026
                },
                {
                    "name": "C5",
                    "midi": 72,
                    "time": 145.00414775000004,
                    "velocity": 0.4645669291338583,
                    "duration": 0.11077474999999026
                },
                {
                    "name": "A#4",
                    "midi": 70,
                    "time": 145.11492250000003,
                    "velocity": 0.5118110236220472,
                    "duration": 0.11077474999999026
                },
                {
                    "name": "G#4",
                    "midi": 68,
                    "time": 145.22569725000002,
                    "velocity": 0.4645669291338583,
                    "duration": 0.11077474999999026
                },
                {
                    "name": "G4",
                    "midi": 67,
                    "time": 145.44724675,
                    "velocity": 0.4645669291338583,
                    "duration": 0.11077474999999026
                },
                {
                    "name": "G#4",
                    "midi": 68,
                    "time": 145.5580215,
                    "velocity": 0.5433070866141733,
                    "duration": 0.11077474999999026
                },
                {
                    "name": "G4",
                    "midi": 67,
                    "time": 145.66879624999999,
                    "velocity": 0.4645669291338583,
                    "duration": 0.11077474999999026
                },
                {
                    "name": "C5",
                    "midi": 72,
                    "time": 145.77957099999998,
                    "velocity": 0.5275590551181102,
                    "duration": 0.11077474999999026
                },
                {
                    "name": "A#4",
                    "midi": 70,
                    "time": 145.89034574999997,
                    "velocity": 0.4645669291338583,
                    "duration": 0.11077474999999026
                },
                {
                    "name": "G#4",
                    "midi": 68,
                    "time": 146.00112049999996,
                    "velocity": 0.5118110236220472,
                    "duration": 0.11077474999999026
                },
                {
                    "name": "G4",
                    "midi": 67,
                    "time": 146.11189524999995,
                    "velocity": 0.4645669291338583,
                    "duration": 0.11077474999999026
                },
                {
                    "name": "G#4",
                    "midi": 68,
                    "time": 146.33344474999993,
                    "velocity": 0.4645669291338583,
                    "duration": 0.11077474999999026
                },
                {
                    "name": "A#4",
                    "midi": 70,
                    "time": 146.44421949999992,
                    "velocity": 0.5433070866141733,
                    "duration": 0.11077474999999026
                },
                {
                    "name": "G#4",
                    "midi": 68,
                    "time": 146.5549942499999,
                    "velocity": 0.4645669291338583,
                    "duration": 0.11077474999999026
                },
                {
                    "name": "C#5",
                    "midi": 73,
                    "time": 146.6657689999999,
                    "velocity": 0.5275590551181102,
                    "duration": 0.11077474999999026
                },
                {
                    "name": "C5",
                    "midi": 72,
                    "time": 146.7765437499999,
                    "velocity": 0.4645669291338583,
                    "duration": 0.11077474999999026
                },
                {
                    "name": "A#4",
                    "midi": 70,
                    "time": 146.88731849999988,
                    "velocity": 0.5118110236220472,
                    "duration": 0.11077474999999026
                },
                {
                    "name": "G#4",
                    "midi": 68,
                    "time": 146.99809324999987,
                    "velocity": 0.4645669291338583,
                    "duration": 0.11077474999999026
                },
                {
                    "name": "G4",
                    "midi": 67,
                    "time": 147.21964274999985,
                    "velocity": 0.4645669291338583,
                    "duration": 0.11077474999999026
                },
                {
                    "name": "G#4",
                    "midi": 68,
                    "time": 147.33041749999984,
                    "velocity": 0.5433070866141733,
                    "duration": 0.11077474999999026
                },
                {
                    "name": "G4",
                    "midi": 67,
                    "time": 147.44119224999983,
                    "velocity": 0.4645669291338583,
                    "duration": 0.11077474999999026
                },
                {
                    "name": "C5",
                    "midi": 72,
                    "time": 147.55196699999982,
                    "velocity": 0.5275590551181102,
                    "duration": 0.11077474999999026
                },
                {
                    "name": "A#4",
                    "midi": 70,
                    "time": 147.6627417499998,
                    "velocity": 0.4645669291338583,
                    "duration": 0.11077474999999026
                },
                {
                    "name": "G#4",
                    "midi": 68,
                    "time": 147.7735164999998,
                    "velocity": 0.5118110236220472,
                    "duration": 0.11077474999999026
                },
                {
                    "name": "G4",
                    "midi": 67,
                    "time": 147.8842912499998,
                    "velocity": 0.4645669291338583,
                    "duration": 0.11077474999999026
                },
                {
                    "name": "G#4",
                    "midi": 68,
                    "time": 147.99506599999978,
                    "velocity": 0.5748031496062992,
                    "duration": 0.11077474999999026
                },
                {
                    "name": "F4",
                    "midi": 65,
                    "time": 148.10584074999977,
                    "velocity": 0.5118110236220472,
                    "duration": 0.11077474999999026
                },
                {
                    "name": "G#4",
                    "midi": 68,
                    "time": 148.21661549999976,
                    "velocity": 0.5905511811023622,
                    "duration": 0.11077474999999026
                },
                {
                    "name": "B4",
                    "midi": 71,
                    "time": 148.32739024999975,
                    "velocity": 0.5196850393700787,
                    "duration": 0.11077474999999026
                },
                {
                    "name": "D5",
                    "midi": 74,
                    "time": 148.43816499999974,
                    "velocity": 0.5905511811023622,
                    "duration": 0.11077474999999026
                },
                {
                    "name": "B4",
                    "midi": 71,
                    "time": 148.54893974999973,
                    "velocity": 0.5275590551181102,
                    "duration": 0.11077474999999026
                },
                {
                    "name": "D5",
                    "midi": 74,
                    "time": 148.65971449999972,
                    "velocity": 0.5826771653543307,
                    "duration": 0.11077474999999026
                },
                {
                    "name": "F5",
                    "midi": 77,
                    "time": 148.7704892499997,
                    "velocity": 0.5433070866141733,
                    "duration": 0.11077474999999026
                },
                {
                    "name": "G#5",
                    "midi": 80,
                    "time": 148.8812639999997,
                    "velocity": 0.6141732283464567,
                    "duration": 0.11077474999999026
                },
                {
                    "name": "D5",
                    "midi": 74,
                    "time": 148.9920387499997,
                    "velocity": 0.5433070866141733,
                    "duration": 0.11077474999999026
                },
                {
                    "name": "F5",
                    "midi": 77,
                    "time": 149.10281349999968,
                    "velocity": 0.6299212598425197,
                    "duration": 0.11077474999999026
                },
                {
                    "name": "G#5",
                    "midi": 80,
                    "time": 149.21358824999967,
                    "velocity": 0.5511811023622047,
                    "duration": 0.11077474999999026
                },
                {
                    "name": "B5",
                    "midi": 83,
                    "time": 149.32436299999966,
                    "velocity": 0.6377952755905512,
                    "duration": 0.11077474999999026
                },
                {
                    "name": "F5",
                    "midi": 77,
                    "time": 149.43513774999965,
                    "velocity": 0.5669291338582677,
                    "duration": 0.11077474999999026
                },
                {
                    "name": "G#5",
                    "midi": 80,
                    "time": 149.54591249999964,
                    "velocity": 0.6771653543307087,
                    "duration": 0.11077474999999026
                },
                {
                    "name": "B5",
                    "midi": 83,
                    "time": 149.65668724999964,
                    "velocity": 0.6141732283464567,
                    "duration": 0.11077474999999026
                },
                {
                    "name": "D6",
                    "midi": 86,
                    "time": 149.76746199999963,
                    "velocity": 0.7952755905511811,
                    "duration": 0.4430989999999895
                },
                {
                    "name": "E4",
                    "midi": 64,
                    "time": 151.6506327499996,
                    "velocity": 0.3464566929133858,
                    "duration": 0.11077474999999026
                },
                {
                    "name": "G4",
                    "midi": 67,
                    "time": 151.7614074999996,
                    "velocity": 0.4015748031496063,
                    "duration": 0.11077474999999026
                },
                {
                    "name": "A#4",
                    "midi": 70,
                    "time": 151.87218224999958,
                    "velocity": 0.3464566929133858,
                    "duration": 0.11077474999999026
                },
                {
                    "name": "C#5",
                    "midi": 73,
                    "time": 151.98295699999957,
                    "velocity": 0.3937007874015748,
                    "duration": 0.11077474999999026
                },
                {
                    "name": "E4",
                    "midi": 64,
                    "time": 152.09373174999956,
                    "velocity": 0.3464566929133858,
                    "duration": 0.11077474999999026
                },
                {
                    "name": "G4",
                    "midi": 67,
                    "time": 152.20450649999955,
                    "velocity": 0.3779527559055118,
                    "duration": 0.11077474999999026
                },
                {
                    "name": "A#4",
                    "midi": 70,
                    "time": 152.31528124999954,
                    "velocity": 0.3464566929133858,
                    "duration": 0.11077474999999026
                },
                {
                    "name": "C#5",
                    "midi": 73,
                    "time": 152.42605599999953,
                    "velocity": 0.3937007874015748,
                    "duration": 0.11077474999999026
                },
                {
                    "name": "E4",
                    "midi": 64,
                    "time": 152.53683074999952,
                    "velocity": 0.3464566929133858,
                    "duration": 0.11077474999999026
                },
                {
                    "name": "G4",
                    "midi": 67,
                    "time": 152.64760549999951,
                    "velocity": 0.3779527559055118,
                    "duration": 0.11077474999999026
                },
                {
                    "name": "A#4",
                    "midi": 70,
                    "time": 152.7583802499995,
                    "velocity": 0.3464566929133858,
                    "duration": 0.11077474999999026
                },
                {
                    "name": "C#5",
                    "midi": 73,
                    "time": 152.8691549999995,
                    "velocity": 0.3937007874015748,
                    "duration": 0.11077474999999026
                },
                {
                    "name": "E4",
                    "midi": 64,
                    "time": 152.97992974999949,
                    "velocity": 0.3464566929133858,
                    "duration": 0.11077474999999026
                },
                {
                    "name": "G4",
                    "midi": 67,
                    "time": 153.09070449999948,
                    "velocity": 0.3779527559055118,
                    "duration": 0.11077474999999026
                },
                {
                    "name": "A#4",
                    "midi": 70,
                    "time": 153.20147924999947,
                    "velocity": 0.3464566929133858,
                    "duration": 0.11077474999999026
                },
                {
                    "name": "C#5",
                    "midi": 73,
                    "time": 153.31225399999946,
                    "velocity": 0.5118110236220472,
                    "duration": 0.11077474999999026
                },
                {
                    "name": "D#4",
                    "midi": 63,
                    "time": 153.42302874999945,
                    "velocity": 0.44881889763779526,
                    "duration": 0.11077474999999026
                },
                {
                    "name": "G4",
                    "midi": 67,
                    "time": 153.53380349999944,
                    "velocity": 0.5196850393700787,
                    "duration": 0.11077474999999026
                },
                {
                    "name": "A#4",
                    "midi": 70,
                    "time": 153.64457824999943,
                    "velocity": 0.44881889763779526,
                    "duration": 0.11077474999999026
                },
                {
                    "name": "C#5",
                    "midi": 73,
                    "time": 153.75535299999942,
                    "velocity": 0.5118110236220472,
                    "duration": 0.11077474999999026
                },
                {
                    "name": "D#4",
                    "midi": 63,
                    "time": 153.8661277499994,
                    "velocity": 0.44881889763779526,
                    "duration": 0.11077474999999026
                },
                {
                    "name": "G4",
                    "midi": 67,
                    "time": 153.9769024999994,
                    "velocity": 0.4881889763779528,
                    "duration": 0.11077474999999026
                },
                {
                    "name": "A#4",
                    "midi": 70,
                    "time": 154.0876772499994,
                    "velocity": 0.44881889763779526,
                    "duration": 0.11077474999999026
                },
                {
                    "name": "C#5",
                    "midi": 73,
                    "time": 154.19845199999938,
                    "velocity": 0.5118110236220472,
                    "duration": 0.11077474999999026
                },
                {
                    "name": "D#4",
                    "midi": 63,
                    "time": 154.30922674999937,
                    "velocity": 0.44881889763779526,
                    "duration": 0.11077474999999026
                },
                {
                    "name": "G4",
                    "midi": 67,
                    "time": 154.42000149999936,
                    "velocity": 0.5275590551181102,
                    "duration": 0.11077474999999026
                },
                {
                    "name": "A#4",
                    "midi": 70,
                    "time": 154.53077624999935,
                    "velocity": 0.4566929133858268,
                    "duration": 0.11077474999999026
                },
                {
                    "name": "C#5",
                    "midi": 73,
                    "time": 154.64155099999934,
                    "velocity": 0.5826771653543307,
                    "duration": 0.11077474999999026
                },
                {
                    "name": "D#4",
                    "midi": 63,
                    "time": 154.75232574999933,
                    "velocity": 0.5118110236220472,
                    "duration": 0.11077474999999026
                },
                {
                    "name": "G4",
                    "midi": 67,
                    "time": 154.86310049999932,
                    "velocity": 0.5748031496062992,
                    "duration": 0.11077474999999026
                },
                {
                    "name": "A#4",
                    "midi": 70,
                    "time": 154.9738752499993,
                    "velocity": 0.5118110236220472,
                    "duration": 0.11077474999999026
                },
                {
                    "name": "C#5",
                    "midi": 73,
                    "time": 155.0846499999993,
                    "velocity": 0.6614173228346457,
                    "duration": 0.4430989999999895
                },
                {
                    "name": "C5",
                    "midi": 72,
                    "time": 156.63549649999928,
                    "velocity": 0.47244094488188976,
                    "duration": 0.11077474999999026
                },
                {
                    "name": "C#5",
                    "midi": 73,
                    "time": 156.74627124999927,
                    "velocity": 0.4330708661417323,
                    "duration": 0.11077474999999026
                },
                {
                    "name": "D#5",
                    "midi": 75,
                    "time": 156.85704599999926,
                    "velocity": 0.47244094488188976,
                    "duration": 0.08308106250001401
                },
                {
                    "name": "D#5",
                    "midi": 75,
                    "time": 157.07859549999927,
                    "velocity": 0.4566929133858268,
                    "duration": 0.08308106250001401
                },
                {
                    "name": "D#5",
                    "midi": 75,
                    "time": 157.30014499999928,
                    "velocity": 0.5039370078740157,
                    "duration": 0.08308106250001401
                },
                {
                    "name": "G#5",
                    "midi": 80,
                    "time": 157.52169449999928,
                    "velocity": 0.5196850393700787,
                    "duration": 0.08308106250001401
                },
                {
                    "name": "D#5",
                    "midi": 75,
                    "time": 157.7432439999993,
                    "velocity": 0.48031496062992124,
                    "duration": 0.6646484999999984
                },
                {
                    "name": "C#5",
                    "midi": 73,
                    "time": 158.4078924999993,
                    "velocity": 0.44881889763779526,
                    "duration": 0.11077474999999026
                },
                {
                    "name": "C5",
                    "midi": 72,
                    "time": 158.51866724999928,
                    "velocity": 0.4251968503937008,
                    "duration": 0.11077474999999026
                },
                {
                    "name": "A#4",
                    "midi": 70,
                    "time": 158.85099149999928,
                    "velocity": 0.47244094488188976,
                    "duration": 0.22154950000000895
                },
                {
                    "name": "C5",
                    "midi": 72,
                    "time": 159.2940904999993,
                    "velocity": 0.4645669291338583,
                    "duration": 0.22154950000000895
                },
                {
                    "name": "D#5",
                    "midi": 75,
                    "time": 159.5156399999993,
                    "velocity": 0.4645669291338583,
                    "duration": 0.22154950000000895
                },
                {
                    "name": "C#5",
                    "midi": 73,
                    "time": 159.73718949999932,
                    "velocity": 0.4015748031496063,
                    "duration": 0.05538737500000934
                },
                {
                    "name": "D#5",
                    "midi": 75,
                    "time": 159.79257687499933,
                    "velocity": 0.36220472440944884,
                    "duration": 0.05538737500000934
                },
                {
                    "name": "C#5",
                    "midi": 73,
                    "time": 159.84796424999934,
                    "velocity": 0.4015748031496063,
                    "duration": 0.11077474999999026
                },
                {
                    "name": "C5",
                    "midi": 72,
                    "time": 159.95873899999933,
                    "velocity": 0.4645669291338583,
                    "duration": 0.22154950000000895
                },
                {
                    "name": "C5",
                    "midi": 72,
                    "time": 160.18028849999934,
                    "velocity": 0.47244094488188976,
                    "duration": 0.11077474999999026
                },
                {
                    "name": "C#5",
                    "midi": 73,
                    "time": 160.29106324999933,
                    "velocity": 0.4330708661417323,
                    "duration": 0.11077474999999026
                },
                {
                    "name": "D#5",
                    "midi": 75,
                    "time": 160.40183799999932,
                    "velocity": 0.47244094488188976,
                    "duration": 0.08308106250001401
                },
                {
                    "name": "F5",
                    "midi": 77,
                    "time": 160.62338749999932,
                    "velocity": 0.48031496062992124,
                    "duration": 0.08308106250001401
                },
                {
                    "name": "G5",
                    "midi": 79,
                    "time": 160.84493699999933,
                    "velocity": 0.48031496062992124,
                    "duration": 0.08308106250001401
                },
                {
                    "name": "G#5",
                    "midi": 80,
                    "time": 161.06648649999934,
                    "velocity": 0.5196850393700787,
                    "duration": 0.08308106250001401
                },
                {
                    "name": "D#5",
                    "midi": 75,
                    "time": 161.28803599999935,
                    "velocity": 0.48031496062992124,
                    "duration": 0.6646484999999984
                },
                {
                    "name": "C#5",
                    "midi": 73,
                    "time": 161.95268449999935,
                    "velocity": 0.44881889763779526,
                    "duration": 0.11077474999999026
                },
                {
                    "name": "C5",
                    "midi": 72,
                    "time": 162.06345924999934,
                    "velocity": 0.4251968503937008,
                    "duration": 0.11077474999999026
                },
                {
                    "name": "A#4",
                    "midi": 70,
                    "time": 162.39578349999934,
                    "velocity": 0.47244094488188976,
                    "duration": 0.22154950000000895
                },
                {
                    "name": "G4",
                    "midi": 67,
                    "time": 162.83888249999936,
                    "velocity": 0.4645669291338583,
                    "duration": 0.22154950000000895
                },
                {
                    "name": "G#4",
                    "midi": 68,
                    "time": 163.28198149999938,
                    "velocity": 0.47244094488188976,
                    "duration": 0.22154950000000895
                },
                {
                    "name": "D#5",
                    "midi": 75,
                    "time": 163.7250804999994,
                    "velocity": 0.41732283464566927,
                    "duration": 0.22154950000000895
                },
                {
                    "name": "F5",
                    "midi": 77,
                    "time": 163.9466299999994,
                    "velocity": 0.4645669291338583,
                    "duration": 0.11077474999999026
                },
                {
                    "name": "D#5",
                    "midi": 75,
                    "time": 164.0574047499994,
                    "velocity": 0.4015748031496063,
                    "duration": 0.11077474999999026
                },
                {
                    "name": "D5",
                    "midi": 74,
                    "time": 164.16817949999938,
                    "velocity": 0.4409448818897638,
                    "duration": 0.11077474999999026
                },
                {
                    "name": "D#5",
                    "midi": 75,
                    "time": 164.27895424999937,
                    "velocity": 0.3937007874015748,
                    "duration": 0.11077474999999026
                },
                {
                    "name": "D5",
                    "midi": 74,
                    "time": 164.38972899999936,
                    "velocity": 0.4409448818897638,
                    "duration": 0.11077474999999026
                },
                {
                    "name": "F5",
                    "midi": 77,
                    "time": 164.50050374999935,
                    "velocity": 0.4330708661417323,
                    "duration": 0.11077474999999026
                },
                {
                    "name": "G#5",
                    "midi": 80,
                    "time": 164.61127849999934,
                    "velocity": 0.4330708661417323,
                    "duration": 0.11077474999999026
                },
                {
                    "name": "B5",
                    "midi": 83,
                    "time": 164.72205324999933,
                    "velocity": 0.4330708661417323,
                    "duration": 0.11077474999999026
                },
                {
                    "name": "A#5",
                    "midi": 82,
                    "time": 164.83282799999932,
                    "velocity": 0.4645669291338583,
                    "duration": 0.22154950000000895
                },
                {
                    "name": "D#5",
                    "midi": 75,
                    "time": 165.05437749999933,
                    "velocity": 0.3937007874015748,
                    "duration": 0.1661621249999996
                },
                {
                    "name": "D#5",
                    "midi": 75,
                    "time": 165.27592699999934,
                    "velocity": 0.4409448818897638,
                    "duration": 0.22154950000000895
                },
                {
                    "name": "C5",
                    "midi": 72,
                    "time": 165.49747649999935,
                    "velocity": 0.4015748031496063,
                    "duration": 0.22154950000000895
                },
                {
                    "name": "C#5",
                    "midi": 73,
                    "time": 165.71902599999936,
                    "velocity": 0.4645669291338583,
                    "duration": 0.11077474999999026
                },
                {
                    "name": "C5",
                    "midi": 72,
                    "time": 165.82980074999935,
                    "velocity": 0.4015748031496063,
                    "duration": 0.11077474999999026
                },
                {
                    "name": "B4",
                    "midi": 71,
                    "time": 165.94057549999934,
                    "velocity": 0.4409448818897638,
                    "duration": 0.11077474999999026
                },
                {
                    "name": "C5",
                    "midi": 72,
                    "time": 166.05135024999933,
                    "velocity": 0.3937007874015748,
                    "duration": 0.11077474999999026
                },
                {
                    "name": "B4",
                    "midi": 71,
                    "time": 166.16212499999932,
                    "velocity": 0.4409448818897638,
                    "duration": 0.11077474999999026
                },
                {
                    "name": "D5",
                    "midi": 74,
                    "time": 166.2728997499993,
                    "velocity": 0.4330708661417323,
                    "duration": 0.11077474999999026
                },
                {
                    "name": "F5",
                    "midi": 77,
                    "time": 166.3836744999993,
                    "velocity": 0.4330708661417323,
                    "duration": 0.11077474999999026
                },
                {
                    "name": "G#5",
                    "midi": 80,
                    "time": 166.4944492499993,
                    "velocity": 0.4330708661417323,
                    "duration": 0.11077474999999026
                },
                {
                    "name": "G5",
                    "midi": 79,
                    "time": 166.60522399999928,
                    "velocity": 0.4645669291338583,
                    "duration": 0.22154950000000895
                },
                {
                    "name": "C5",
                    "midi": 72,
                    "time": 166.8267734999993,
                    "velocity": 0.3937007874015748,
                    "duration": 0.1661621249999996
                },
                {
                    "name": "C5",
                    "midi": 72,
                    "time": 167.0483229999993,
                    "velocity": 0.4409448818897638,
                    "duration": 0.22154950000000895
                },
                {
                    "name": "G#4",
                    "midi": 68,
                    "time": 167.2698724999993,
                    "velocity": 0.4015748031496063,
                    "duration": 0.22154950000000895
                },
                {
                    "name": "A#4",
                    "midi": 70,
                    "time": 167.49142199999932,
                    "velocity": 0.4645669291338583,
                    "duration": 0.11077474999999026
                },
                {
                    "name": "G#4",
                    "midi": 68,
                    "time": 167.6021967499993,
                    "velocity": 0.4015748031496063,
                    "duration": 0.11077474999999026
                },
                {
                    "name": "G4",
                    "midi": 67,
                    "time": 167.7129714999993,
                    "velocity": 0.4409448818897638,
                    "duration": 0.11077474999999026
                },
                {
                    "name": "G#4",
                    "midi": 68,
                    "time": 167.8237462499993,
                    "velocity": 0.3937007874015748,
                    "duration": 0.11077474999999026
                },
                {
                    "name": "G4",
                    "midi": 67,
                    "time": 167.93452099999928,
                    "velocity": 0.4409448818897638,
                    "duration": 0.11077474999999026
                },
                {
                    "name": "A#4",
                    "midi": 70,
                    "time": 168.04529574999927,
                    "velocity": 0.4330708661417323,
                    "duration": 0.11077474999999026
                },
                {
                    "name": "C#5",
                    "midi": 73,
                    "time": 168.15607049999926,
                    "velocity": 0.4330708661417323,
                    "duration": 0.11077474999999026
                },
                {
                    "name": "F5",
                    "midi": 77,
                    "time": 168.26684524999925,
                    "velocity": 0.4330708661417323,
                    "duration": 0.11077474999999026
                },
                {
                    "name": "D#5",
                    "midi": 75,
                    "time": 168.37761999999924,
                    "velocity": 0.4645669291338583,
                    "duration": 0.22154950000000895
                },
                {
                    "name": "G#4",
                    "midi": 68,
                    "time": 168.59916949999925,
                    "velocity": 0.3937007874015748,
                    "duration": 0.1661621249999996
                },
                {
                    "name": "G#4",
                    "midi": 68,
                    "time": 168.82071899999926,
                    "velocity": 0.4409448818897638,
                    "duration": 0.22154950000000895
                },
                {
                    "name": "D#5",
                    "midi": 75,
                    "time": 169.04226849999927,
                    "velocity": 0.4015748031496063,
                    "duration": 0.22154950000000895
                },
                {
                    "name": "D5",
                    "midi": 74,
                    "time": 169.26381799999928,
                    "velocity": 0.4645669291338583,
                    "duration": 0.11077474999999026
                },
                {
                    "name": "F5",
                    "midi": 77,
                    "time": 169.37459274999927,
                    "velocity": 0.4330708661417323,
                    "duration": 0.11077474999999026
                },
                {
                    "name": "G#5",
                    "midi": 80,
                    "time": 169.48536749999926,
                    "velocity": 0.4881889763779528,
                    "duration": 0.11077474999999026
                },
                {
                    "name": "C6",
                    "midi": 84,
                    "time": 169.59614224999925,
                    "velocity": 0.4645669291338583,
                    "duration": 0.11077474999999026
                },
                {
                    "name": "A#5",
                    "midi": 82,
                    "time": 169.70691699999924,
                    "velocity": 0.4881889763779528,
                    "duration": 0.11077474999999026
                },
                {
                    "name": "G#5",
                    "midi": 80,
                    "time": 169.81769174999923,
                    "velocity": 0.48031496062992124,
                    "duration": 0.11077474999999026
                },
                {
                    "name": "G5",
                    "midi": 79,
                    "time": 169.92846649999922,
                    "velocity": 0.4409448818897638,
                    "duration": 0.11077474999999026
                },
                {
                    "name": "F5",
                    "midi": 77,
                    "time": 170.0392412499992,
                    "velocity": 0.3937007874015748,
                    "duration": 0.11077474999999026
                },
                {
                    "name": "D#5",
                    "midi": 75,
                    "time": 170.1500159999992,
                    "velocity": 0.4645669291338583,
                    "duration": 0.11077474999999026
                },
                {
                    "name": "F5",
                    "midi": 77,
                    "time": 170.2607907499992,
                    "velocity": 0.4330708661417323,
                    "duration": 0.11077474999999026
                },
                {
                    "name": "D#5",
                    "midi": 75,
                    "time": 170.37156549999918,
                    "velocity": 0.4409448818897638,
                    "duration": 0.11077474999999026
                },
                {
                    "name": "D5",
                    "midi": 74,
                    "time": 170.48234024999917,
                    "velocity": 0.4409448818897638,
                    "duration": 0.11077474999999026
                },
                {
                    "name": "D#5",
                    "midi": 75,
                    "time": 170.59311499999916,
                    "velocity": 0.4645669291338583,
                    "duration": 0.11077474999999026
                },
                {
                    "name": "G5",
                    "midi": 79,
                    "time": 170.70388974999915,
                    "velocity": 0.4645669291338583,
                    "duration": 0.11077474999999026
                },
                {
                    "name": "F5",
                    "midi": 77,
                    "time": 170.81466449999914,
                    "velocity": 0.4251968503937008,
                    "duration": 0.11077474999999026
                },
                {
                    "name": "D#5",
                    "midi": 75,
                    "time": 170.92543924999913,
                    "velocity": 0.3937007874015748,
                    "duration": 0.11077474999999026
                },
                {
                    "name": "D5",
                    "midi": 74,
                    "time": 171.03621399999912,
                    "velocity": 0.4645669291338583,
                    "duration": 0.11077474999999026
                },
                {
                    "name": "F5",
                    "midi": 77,
                    "time": 171.1469887499991,
                    "velocity": 0.4330708661417323,
                    "duration": 0.11077474999999026
                },
                {
                    "name": "G#5",
                    "midi": 80,
                    "time": 171.2577634999991,
                    "velocity": 0.4881889763779528,
                    "duration": 0.11077474999999026
                },
                {
                    "name": "C6",
                    "midi": 84,
                    "time": 171.3685382499991,
                    "velocity": 0.4645669291338583,
                    "duration": 0.11077474999999026
                },
                {
                    "name": "A#5",
                    "midi": 82,
                    "time": 171.47931299999908,
                    "velocity": 0.4881889763779528,
                    "duration": 0.11077474999999026
                },
                {
                    "name": "G#5",
                    "midi": 80,
                    "time": 171.59008774999907,
                    "velocity": 0.48031496062992124,
                    "duration": 0.11077474999999026
                },
                {
                    "name": "G5",
                    "midi": 79,
                    "time": 171.70086249999906,
                    "velocity": 0.4409448818897638,
                    "duration": 0.11077474999999026
                },
                {
                    "name": "F5",
                    "midi": 77,
                    "time": 171.81163724999905,
                    "velocity": 0.3937007874015748,
                    "duration": 0.11077474999999026
                },
                {
                    "name": "D#5",
                    "midi": 75,
                    "time": 171.92241199999904,
                    "velocity": 0.4645669291338583,
                    "duration": 0.11077474999999026
                },
                {
                    "name": "F5",
                    "midi": 77,
                    "time": 172.03318674999903,
                    "velocity": 0.4330708661417323,
                    "duration": 0.11077474999999026
                },
                {
                    "name": "D#5",
                    "midi": 75,
                    "time": 172.14396149999902,
                    "velocity": 0.4409448818897638,
                    "duration": 0.11077474999999026
                },
                {
                    "name": "D5",
                    "midi": 74,
                    "time": 172.254736249999,
                    "velocity": 0.4409448818897638,
                    "duration": 0.11077474999999026
                },
                {
                    "name": "D#5",
                    "midi": 75,
                    "time": 172.365510999999,
                    "velocity": 0.4645669291338583,
                    "duration": 0.11077474999999026
                },
                {
                    "name": "G5",
                    "midi": 79,
                    "time": 172.476285749999,
                    "velocity": 0.4645669291338583,
                    "duration": 0.11077474999999026
                },
                {
                    "name": "F5",
                    "midi": 77,
                    "time": 172.58706049999898,
                    "velocity": 0.4251968503937008,
                    "duration": 0.11077474999999026
                },
                {
                    "name": "D#5",
                    "midi": 75,
                    "time": 172.69783524999897,
                    "velocity": 0.3937007874015748,
                    "duration": 0.11077474999999026
                },
                {
                    "name": "D5",
                    "midi": 74,
                    "time": 172.80860999999896,
                    "velocity": 0.4645669291338583,
                    "duration": 0.11077474999999026
                },
                {
                    "name": "F5",
                    "midi": 77,
                    "time": 172.91938474999895,
                    "velocity": 0.4330708661417323,
                    "duration": 0.11077474999999026
                },
                {
                    "name": "G#5",
                    "midi": 80,
                    "time": 173.03015949999894,
                    "velocity": 0.4881889763779528,
                    "duration": 0.11077474999999026
                },
                {
                    "name": "C6",
                    "midi": 84,
                    "time": 173.14093424999894,
                    "velocity": 0.4645669291338583,
                    "duration": 0.11077474999999026
                },
                {
                    "name": "A#5",
                    "midi": 82,
                    "time": 173.25170899999893,
                    "velocity": 0.4881889763779528,
                    "duration": 0.11077474999999026
                },
                {
                    "name": "G#5",
                    "midi": 80,
                    "time": 173.36248374999892,
                    "velocity": 0.48031496062992124,
                    "duration": 0.11077474999999026
                },
                {
                    "name": "G5",
                    "midi": 79,
                    "time": 173.4732584999989,
                    "velocity": 0.4409448818897638,
                    "duration": 0.11077474999999026
                },
                {
                    "name": "F5",
                    "midi": 77,
                    "time": 173.5840332499989,
                    "velocity": 0.3937007874015748,
                    "duration": 0.11077474999999026
                },
                {
                    "name": "D#5",
                    "midi": 75,
                    "time": 173.6948079999989,
                    "velocity": 0.4645669291338583,
                    "duration": 0.11077474999999026
                },
                {
                    "name": "F5",
                    "midi": 77,
                    "time": 173.80558274999888,
                    "velocity": 0.3937007874015748,
                    "duration": 0.11077474999999026
                },
                {
                    "name": "D5",
                    "midi": 74,
                    "time": 173.91635749999887,
                    "velocity": 0.4409448818897638,
                    "duration": 0.11077474999999026
                },
                {
                    "name": "F5",
                    "midi": 77,
                    "time": 174.02713224999886,
                    "velocity": 0.3937007874015748,
                    "duration": 0.11077474999999026
                },
                {
                    "name": "D#5",
                    "midi": 75,
                    "time": 174.13790699999885,
                    "velocity": 0.4409448818897638,
                    "duration": 0.11077474999999026
                },
                {
                    "name": "F5",
                    "midi": 77,
                    "time": 174.24868174999884,
                    "velocity": 0.4015748031496063,
                    "duration": 0.11077474999999026
                },
                {
                    "name": "D5",
                    "midi": 74,
                    "time": 174.35945649999883,
                    "velocity": 0.4251968503937008,
                    "duration": 0.11077474999999026
                },
                {
                    "name": "F5",
                    "midi": 77,
                    "time": 174.47023124999882,
                    "velocity": 0.3937007874015748,
                    "duration": 0.11077474999999026
                },
                {
                    "name": "D#5",
                    "midi": 75,
                    "time": 174.5810059999988,
                    "velocity": 0.4645669291338583,
                    "duration": 0.8861980000000074
                },
                {
                    "name": "C#5",
                    "midi": 73,
                    "time": 175.46720399999882,
                    "velocity": 0.3700787401574803,
                    "duration": 0.11077474999999026
                },
                {
                    "name": "D#5",
                    "midi": 75,
                    "time": 175.5779787499988,
                    "velocity": 0.31496062992125984,
                    "duration": 0.11077474999999026
                },
                {
                    "name": "C5",
                    "midi": 72,
                    "time": 175.6887534999988,
                    "velocity": 0.3464566929133858,
                    "duration": 0.11077474999999026
                },
                {
                    "name": "D#5",
                    "midi": 75,
                    "time": 175.7995282499988,
                    "velocity": 0.31496062992125984,
                    "duration": 0.11077474999999026
                },
                {
                    "name": "C#5",
                    "midi": 73,
                    "time": 175.91030299999878,
                    "velocity": 0.3464566929133858,
                    "duration": 0.11077474999999026
                },
                {
                    "name": "D#5",
                    "midi": 75,
                    "time": 176.02107774999877,
                    "velocity": 0.31496062992125984,
                    "duration": 0.11077474999999026
                },
                {
                    "name": "C5",
                    "midi": 72,
                    "time": 176.13185249999876,
                    "velocity": 0.33858267716535434,
                    "duration": 0.11077474999999026
                },
                {
                    "name": "D#5",
                    "midi": 75,
                    "time": 176.24262724999875,
                    "velocity": 0.31496062992125984,
                    "duration": 0.11077474999999026
                },
                {
                    "name": "C#5",
                    "midi": 73,
                    "time": 176.35340199999874,
                    "velocity": 0.3700787401574803,
                    "duration": 0.6646484999999984
                },
                {
                    "name": "C5",
                    "midi": 72,
                    "time": 177.01805049999874,
                    "velocity": 0.47244094488188976,
                    "duration": 0.11077474999999026
                },
                {
                    "name": "C#5",
                    "midi": 73,
                    "time": 177.12882524999873,
                    "velocity": 0.4330708661417323,
                    "duration": 0.11077474999999026
                },
                {
                    "name": "D#5",
                    "midi": 75,
                    "time": 177.23959999999872,
                    "velocity": 0.47244094488188976,
                    "duration": 0.08308106250001401
                },
                {
                    "name": "D#5",
                    "midi": 75,
                    "time": 177.46114949999873,
                    "velocity": 0.48031496062992124,
                    "duration": 0.08308106250001401
                },
                {
                    "name": "D#5",
                    "midi": 75,
                    "time": 177.68269899999873,
                    "velocity": 0.49606299212598426,
                    "duration": 0.11077474999999026
                },
                {
                    "name": "G#5",
                    "midi": 80,
                    "time": 177.79347374999872,
                    "velocity": 0.4566929133858268,
                    "duration": 0.11077474999999026
                },
                {
                    "name": "C6",
                    "midi": 84,
                    "time": 177.90424849999872,
                    "velocity": 0.5196850393700787,
                    "duration": 0.11077474999999026
                },
                {
                    "name": "G#5",
                    "midi": 80,
                    "time": 178.0150232499987,
                    "velocity": 0.4566929133858268,
                    "duration": 0.11077474999999026
                },
                {
                    "name": "D#5",
                    "midi": 75,
                    "time": 178.1257979999987,
                    "velocity": 0.48031496062992124,
                    "duration": 0.6646484999999984
                },
                {
                    "name": "C#5",
                    "midi": 73,
                    "time": 178.7904464999987,
                    "velocity": 0.44881889763779526,
                    "duration": 0.11077474999999026
                },
                {
                    "name": "C5",
                    "midi": 72,
                    "time": 178.90122124999868,
                    "velocity": 0.4251968503937008,
                    "duration": 0.11077474999999026
                },
                {
                    "name": "A#4",
                    "midi": 70,
                    "time": 179.23354549999868,
                    "velocity": 0.41732283464566927,
                    "duration": 0.22154950000000895
                },
                {
                    "name": "C5",
                    "midi": 72,
                    "time": 179.6766444999987,
                    "velocity": 0.41732283464566927,
                    "duration": 0.1661621249999996
                },
                {
                    "name": "D#5",
                    "midi": 75,
                    "time": 179.8981939999987,
                    "velocity": 0.4645669291338583,
                    "duration": 0.22154950000000895
                },
                {
                    "name": "C#5",
                    "midi": 73,
                    "time": 180.11974349999872,
                    "velocity": 0.4015748031496063,
                    "duration": 0.05538737500000934
                },
                {
                    "name": "D#5",
                    "midi": 75,
                    "time": 180.17513087499873,
                    "velocity": 0.36220472440944884,
                    "duration": 0.05538737500000934
                },
                {
                    "name": "C#5",
                    "midi": 73,
                    "time": 180.23051824999874,
                    "velocity": 0.4015748031496063,
                    "duration": 0.11077474999999026
                },
                {
                    "name": "C5",
                    "midi": 72,
                    "time": 180.34129299999873,
                    "velocity": 0.4645669291338583,
                    "duration": 0.22154950000000895
                },
                {
                    "name": "C5",
                    "midi": 72,
                    "time": 180.56284249999874,
                    "velocity": 0.47244094488188976,
                    "duration": 0.11077474999999026
                },
                {
                    "name": "C#5",
                    "midi": 73,
                    "time": 180.67361724999873,
                    "velocity": 0.4330708661417323,
                    "duration": 0.11077474999999026
                },
                {
                    "name": "D#5",
                    "midi": 75,
                    "time": 180.78439199999872,
                    "velocity": 0.47244094488188976,
                    "duration": 0.08308106250001401
                },
                {
                    "name": "F5",
                    "midi": 77,
                    "time": 181.00594149999873,
                    "velocity": 0.44881889763779526,
                    "duration": 0.08308106250001401
                },
                {
                    "name": "G5",
                    "midi": 79,
                    "time": 181.22749099999874,
                    "velocity": 0.4645669291338583,
                    "duration": 0.08308106250001401
                },
                {
                    "name": "G#5",
                    "midi": 80,
                    "time": 181.44904049999874,
                    "velocity": 0.5196850393700787,
                    "duration": 0.08308106250001401
                },
                {
                    "name": "D#5",
                    "midi": 75,
                    "time": 181.67058999999875,
                    "velocity": 0.48031496062992124,
                    "duration": 0.6646484999999984
                },
                {
                    "name": "C#5",
                    "midi": 73,
                    "time": 182.33523849999875,
                    "velocity": 0.44881889763779526,
                    "duration": 0.11077474999999026
                },
                {
                    "name": "C5",
                    "midi": 72,
                    "time": 182.44601324999874,
                    "velocity": 0.4251968503937008,
                    "duration": 0.11077474999999026
                },
                {
                    "name": "A#4",
                    "midi": 70,
                    "time": 182.77833749999874,
                    "velocity": 0.33858267716535434,
                    "duration": 0.1661621249999996
                },
                {
                    "name": "G4",
                    "midi": 67,
                    "time": 183.22143649999873,
                    "velocity": 0.3937007874015748,
                    "duration": 0.1661621249999996
                },
                {
                    "name": "G#4",
                    "midi": 68,
                    "time": 183.66453549999872,
                    "velocity": 0.47244094488188976,
                    "duration": 0.22154950000000895
                },
                {
                    "name": "D#5",
                    "midi": 75,
                    "time": 184.10763449999874,
                    "velocity": 0.41732283464566927,
                    "duration": 0.22154950000000895
                },
                {
                    "name": "F5",
                    "midi": 77,
                    "time": 184.32918399999875,
                    "velocity": 0.4645669291338583,
                    "duration": 0.11077474999999026
                },
                {
                    "name": "D#5",
                    "midi": 75,
                    "time": 184.43995874999874,
                    "velocity": 0.4015748031496063,
                    "duration": 0.11077474999999026
                },
                {
                    "name": "D5",
                    "midi": 74,
                    "time": 184.55073349999873,
                    "velocity": 0.4409448818897638,
                    "duration": 0.11077474999999026
                },
                {
                    "name": "D#5",
                    "midi": 75,
                    "time": 184.66150824999872,
                    "velocity": 0.3937007874015748,
                    "duration": 0.11077474999999026
                },
                {
                    "name": "D5",
                    "midi": 74,
                    "time": 184.7722829999987,
                    "velocity": 0.4409448818897638,
                    "duration": 0.11077474999999026
                },
                {
                    "name": "F5",
                    "midi": 77,
                    "time": 184.8830577499987,
                    "velocity": 0.4330708661417323,
                    "duration": 0.11077474999999026
                },
                {
                    "name": "G#5",
                    "midi": 80,
                    "time": 184.9938324999987,
                    "velocity": 0.4330708661417323,
                    "duration": 0.11077474999999026
                },
                {
                    "name": "B5",
                    "midi": 83,
                    "time": 185.10460724999868,
                    "velocity": 0.4330708661417323,
                    "duration": 0.11077474999999026
                },
                {
                    "name": "A#5",
                    "midi": 82,
                    "time": 185.21538199999867,
                    "velocity": 0.4645669291338583,
                    "duration": 0.22154950000000895
                },
                {
                    "name": "D#5",
                    "midi": 75,
                    "time": 185.43693149999868,
                    "velocity": 0.3937007874015748,
                    "duration": 0.1661621249999996
                },
                {
                    "name": "D#5",
                    "midi": 75,
                    "time": 185.6584809999987,
                    "velocity": 0.4409448818897638,
                    "duration": 0.22154950000000895
                },
                {
                    "name": "C5",
                    "midi": 72,
                    "time": 185.8800304999987,
                    "velocity": 0.4015748031496063,
                    "duration": 0.22154950000000895
                },
                {
                    "name": "C#5",
                    "midi": 73,
                    "time": 186.1015799999987,
                    "velocity": 0.4645669291338583,
                    "duration": 0.11077474999999026
                },
                {
                    "name": "C5",
                    "midi": 72,
                    "time": 186.2123547499987,
                    "velocity": 0.4015748031496063,
                    "duration": 0.11077474999999026
                },
                {
                    "name": "B4",
                    "midi": 71,
                    "time": 186.32312949999869,
                    "velocity": 0.4409448818897638,
                    "duration": 0.11077474999999026
                },
                {
                    "name": "C5",
                    "midi": 72,
                    "time": 186.43390424999868,
                    "velocity": 0.3937007874015748,
                    "duration": 0.11077474999999026
                },
                {
                    "name": "B4",
                    "midi": 71,
                    "time": 186.54467899999867,
                    "velocity": 0.4409448818897638,
                    "duration": 0.11077474999999026
                },
                {
                    "name": "D5",
                    "midi": 74,
                    "time": 186.65545374999866,
                    "velocity": 0.4330708661417323,
                    "duration": 0.11077474999999026
                },
                {
                    "name": "F5",
                    "midi": 77,
                    "time": 186.76622849999865,
                    "velocity": 0.4330708661417323,
                    "duration": 0.11077474999999026
                },
                {
                    "name": "G#5",
                    "midi": 80,
                    "time": 186.87700324999864,
                    "velocity": 0.4330708661417323,
                    "duration": 0.11077474999999026
                },
                {
                    "name": "G5",
                    "midi": 79,
                    "time": 186.98777799999863,
                    "velocity": 0.4645669291338583,
                    "duration": 0.22154950000000895
                },
                {
                    "name": "C5",
                    "midi": 72,
                    "time": 187.20932749999864,
                    "velocity": 0.3937007874015748,
                    "duration": 0.1661621249999996
                },
                {
                    "name": "C5",
                    "midi": 72,
                    "time": 187.43087699999865,
                    "velocity": 0.4409448818897638,
                    "duration": 0.22154950000000895
                },
                {
                    "name": "G#4",
                    "midi": 68,
                    "time": 187.65242649999865,
                    "velocity": 0.4015748031496063,
                    "duration": 0.22154950000000895
                },
                {
                    "name": "A#4",
                    "midi": 70,
                    "time": 187.87397599999866,
                    "velocity": 0.4645669291338583,
                    "duration": 0.11077474999999026
                },
                {
                    "name": "G#4",
                    "midi": 68,
                    "time": 187.98475074999865,
                    "velocity": 0.4015748031496063,
                    "duration": 0.11077474999999026
                },
                {
                    "name": "G4",
                    "midi": 67,
                    "time": 188.09552549999864,
                    "velocity": 0.4409448818897638,
                    "duration": 0.11077474999999026
                },
                {
                    "name": "G#4",
                    "midi": 68,
                    "time": 188.20630024999863,
                    "velocity": 0.3937007874015748,
                    "duration": 0.11077474999999026
                },
                {
                    "name": "G4",
                    "midi": 67,
                    "time": 188.31707499999862,
                    "velocity": 0.4409448818897638,
                    "duration": 0.11077474999999026
                },
                {
                    "name": "A#4",
                    "midi": 70,
                    "time": 188.42784974999861,
                    "velocity": 0.4330708661417323,
                    "duration": 0.11077474999999026
                },
                {
                    "name": "C#5",
                    "midi": 73,
                    "time": 188.5386244999986,
                    "velocity": 0.4330708661417323,
                    "duration": 0.11077474999999026
                },
                {
                    "name": "F5",
                    "midi": 77,
                    "time": 188.6493992499986,
                    "velocity": 0.4330708661417323,
                    "duration": 0.11077474999999026
                },
                {
                    "name": "D#5",
                    "midi": 75,
                    "time": 188.76017399999859,
                    "velocity": 0.4645669291338583,
                    "duration": 0.22154950000000895
                },
                {
                    "name": "G#4",
                    "midi": 68,
                    "time": 188.9817234999986,
                    "velocity": 0.3937007874015748,
                    "duration": 0.1661621249999996
                },
                {
                    "name": "G#4",
                    "midi": 68,
                    "time": 189.2032729999986,
                    "velocity": 0.4409448818897638,
                    "duration": 0.22154950000000895
                },
                {
                    "name": "D#5",
                    "midi": 75,
                    "time": 189.4248224999986,
                    "velocity": 0.4015748031496063,
                    "duration": 0.22154950000000895
                },
                {
                    "name": "D5",
                    "midi": 74,
                    "time": 189.64637199999862,
                    "velocity": 0.4645669291338583,
                    "duration": 0.11077474999999026
                },
                {
                    "name": "F5",
                    "midi": 77,
                    "time": 189.7571467499986,
                    "velocity": 0.4330708661417323,
                    "duration": 0.11077474999999026
                },
                {
                    "name": "G#5",
                    "midi": 80,
                    "time": 189.8679214999986,
                    "velocity": 0.4881889763779528,
                    "duration": 0.11077474999999026
                },
                {
                    "name": "C6",
                    "midi": 84,
                    "time": 189.9786962499986,
                    "velocity": 0.4645669291338583,
                    "duration": 0.11077474999999026
                },
                {
                    "name": "A#5",
                    "midi": 82,
                    "time": 190.08947099999858,
                    "velocity": 0.4881889763779528,
                    "duration": 0.11077474999999026
                },
                {
                    "name": "G#5",
                    "midi": 80,
                    "time": 190.20024574999857,
                    "velocity": 0.48031496062992124,
                    "duration": 0.11077474999999026
                },
                {
                    "name": "G5",
                    "midi": 79,
                    "time": 190.31102049999856,
                    "velocity": 0.4409448818897638,
                    "duration": 0.11077474999999026
                },
                {
                    "name": "F5",
                    "midi": 77,
                    "time": 190.42179524999855,
                    "velocity": 0.3937007874015748,
                    "duration": 0.11077474999999026
                },
                {
                    "name": "D#5",
                    "midi": 75,
                    "time": 190.53256999999854,
                    "velocity": 0.4645669291338583,
                    "duration": 0.11077474999999026
                },
                {
                    "name": "F5",
                    "midi": 77,
                    "time": 190.64334474999853,
                    "velocity": 0.4330708661417323,
                    "duration": 0.11077474999999026
                },
                {
                    "name": "D#5",
                    "midi": 75,
                    "time": 190.75411949999852,
                    "velocity": 0.4409448818897638,
                    "duration": 0.11077474999999026
                },
                {
                    "name": "D5",
                    "midi": 74,
                    "time": 190.8648942499985,
                    "velocity": 0.4409448818897638,
                    "duration": 0.11077474999999026
                },
                {
                    "name": "D#5",
                    "midi": 75,
                    "time": 190.9756689999985,
                    "velocity": 0.4645669291338583,
                    "duration": 0.11077474999999026
                },
                {
                    "name": "G5",
                    "midi": 79,
                    "time": 191.0864437499985,
                    "velocity": 0.4645669291338583,
                    "duration": 0.11077474999999026
                },
                {
                    "name": "F5",
                    "midi": 77,
                    "time": 191.19721849999848,
                    "velocity": 0.4251968503937008,
                    "duration": 0.11077474999999026
                },
                {
                    "name": "D#5",
                    "midi": 75,
                    "time": 191.30799324999847,
                    "velocity": 0.3937007874015748,
                    "duration": 0.11077474999999026
                },
                {
                    "name": "D5",
                    "midi": 74,
                    "time": 191.41876799999847,
                    "velocity": 0.4645669291338583,
                    "duration": 0.11077474999999026
                },
                {
                    "name": "F5",
                    "midi": 77,
                    "time": 191.52954274999846,
                    "velocity": 0.4330708661417323,
                    "duration": 0.11077474999999026
                },
                {
                    "name": "G#5",
                    "midi": 80,
                    "time": 191.64031749999845,
                    "velocity": 0.4881889763779528,
                    "duration": 0.11077474999999026
                },
                {
                    "name": "C6",
                    "midi": 84,
                    "time": 191.75109224999844,
                    "velocity": 0.4645669291338583,
                    "duration": 0.11077474999999026
                },
                {
                    "name": "A#5",
                    "midi": 82,
                    "time": 191.86186699999843,
                    "velocity": 0.4881889763779528,
                    "duration": 0.11077474999999026
                },
                {
                    "name": "G#5",
                    "midi": 80,
                    "time": 191.97264174999842,
                    "velocity": 0.48031496062992124,
                    "duration": 0.11077474999999026
                },
                {
                    "name": "G5",
                    "midi": 79,
                    "time": 192.0834164999984,
                    "velocity": 0.4409448818897638,
                    "duration": 0.11077474999999026
                },
                {
                    "name": "F5",
                    "midi": 77,
                    "time": 192.1941912499984,
                    "velocity": 0.3937007874015748,
                    "duration": 0.11077474999999026
                },
                {
                    "name": "D#5",
                    "midi": 75,
                    "time": 192.3049659999984,
                    "velocity": 0.4645669291338583,
                    "duration": 0.11077474999999026
                },
                {
                    "name": "F5",
                    "midi": 77,
                    "time": 192.41574074999838,
                    "velocity": 0.4330708661417323,
                    "duration": 0.11077474999999026
                },
                {
                    "name": "D#5",
                    "midi": 75,
                    "time": 192.52651549999837,
                    "velocity": 0.4409448818897638,
                    "duration": 0.11077474999999026
                },
                {
                    "name": "D5",
                    "midi": 74,
                    "time": 192.63729024999836,
                    "velocity": 0.4409448818897638,
                    "duration": 0.11077474999999026
                },
                {
                    "name": "D#5",
                    "midi": 75,
                    "time": 192.74806499999835,
                    "velocity": 0.4645669291338583,
                    "duration": 0.11077474999999026
                },
                {
                    "name": "G5",
                    "midi": 79,
                    "time": 192.85883974999834,
                    "velocity": 0.4645669291338583,
                    "duration": 0.11077474999999026
                },
                {
                    "name": "F5",
                    "midi": 77,
                    "time": 192.96961449999833,
                    "velocity": 0.4251968503937008,
                    "duration": 0.11077474999999026
                },
                {
                    "name": "D#5",
                    "midi": 75,
                    "time": 193.08038924999832,
                    "velocity": 0.3937007874015748,
                    "duration": 0.11077474999999026
                },
                {
                    "name": "D5",
                    "midi": 74,
                    "time": 193.1911639999983,
                    "velocity": 0.4645669291338583,
                    "duration": 0.11077474999999026
                },
                {
                    "name": "F5",
                    "midi": 77,
                    "time": 193.3019387499983,
                    "velocity": 0.4330708661417323,
                    "duration": 0.11077474999999026
                },
                {
                    "name": "G#5",
                    "midi": 80,
                    "time": 193.4127134999983,
                    "velocity": 0.4881889763779528,
                    "duration": 0.11077474999999026
                },
                {
                    "name": "C6",
                    "midi": 84,
                    "time": 193.52348824999828,
                    "velocity": 0.4645669291338583,
                    "duration": 0.11077474999999026
                },
                {
                    "name": "A#5",
                    "midi": 82,
                    "time": 193.63426299999827,
                    "velocity": 0.4881889763779528,
                    "duration": 0.11077474999999026
                },
                {
                    "name": "G#5",
                    "midi": 80,
                    "time": 193.74503774999826,
                    "velocity": 0.48031496062992124,
                    "duration": 0.11077474999999026
                },
                {
                    "name": "G5",
                    "midi": 79,
                    "time": 193.85581249999825,
                    "velocity": 0.4409448818897638,
                    "duration": 0.11077474999999026
                },
                {
                    "name": "F5",
                    "midi": 77,
                    "time": 193.96658724999824,
                    "velocity": 0.3937007874015748,
                    "duration": 0.11077474999999026
                },
                {
                    "name": "D#5",
                    "midi": 75,
                    "time": 194.07736199999823,
                    "velocity": 0.4645669291338583,
                    "duration": 0.11077474999999026
                },
                {
                    "name": "F5",
                    "midi": 77,
                    "time": 194.18813674999822,
                    "velocity": 0.3937007874015748,
                    "duration": 0.11077474999999026
                },
                {
                    "name": "D5",
                    "midi": 74,
                    "time": 194.2989114999982,
                    "velocity": 0.4409448818897638,
                    "duration": 0.11077474999999026
                },
                {
                    "name": "F5",
                    "midi": 77,
                    "time": 194.4096862499982,
                    "velocity": 0.3937007874015748,
                    "duration": 0.11077474999999026
                },
                {
                    "name": "D#5",
                    "midi": 75,
                    "time": 194.5204609999982,
                    "velocity": 0.4409448818897638,
                    "duration": 0.11077474999999026
                },
                {
                    "name": "F5",
                    "midi": 77,
                    "time": 194.63123574999818,
                    "velocity": 0.4015748031496063,
                    "duration": 0.11077474999999026
                },
                {
                    "name": "D5",
                    "midi": 74,
                    "time": 194.74201049999817,
                    "velocity": 0.4251968503937008,
                    "duration": 0.11077474999999026
                },
                {
                    "name": "F5",
                    "midi": 77,
                    "time": 194.85278524999816,
                    "velocity": 0.3937007874015748,
                    "duration": 0.11077474999999026
                },
                {
                    "name": "D#5",
                    "midi": 75,
                    "time": 194.96355999999815,
                    "velocity": 0.4645669291338583,
                    "duration": 0.8861980000000074
                },
                {
                    "name": "C#5",
                    "midi": 73,
                    "time": 195.84975799999816,
                    "velocity": 0.3700787401574803,
                    "duration": 0.11077474999999026
                },
                {
                    "name": "D#5",
                    "midi": 75,
                    "time": 195.96053274999815,
                    "velocity": 0.31496062992125984,
                    "duration": 0.11077474999999026
                },
                {
                    "name": "C5",
                    "midi": 72,
                    "time": 196.07130749999814,
                    "velocity": 0.3464566929133858,
                    "duration": 0.11077474999999026
                },
                {
                    "name": "D#5",
                    "midi": 75,
                    "time": 196.18208224999813,
                    "velocity": 0.31496062992125984,
                    "duration": 0.11077474999999026
                },
                {
                    "name": "C#5",
                    "midi": 73,
                    "time": 196.29285699999812,
                    "velocity": 0.3464566929133858,
                    "duration": 0.11077474999999026
                },
                {
                    "name": "D#5",
                    "midi": 75,
                    "time": 196.4036317499981,
                    "velocity": 0.31496062992125984,
                    "duration": 0.11077474999999026
                },
                {
                    "name": "C5",
                    "midi": 72,
                    "time": 196.5144064999981,
                    "velocity": 0.33858267716535434,
                    "duration": 0.11077474999999026
                },
                {
                    "name": "D#5",
                    "midi": 75,
                    "time": 196.6251812499981,
                    "velocity": 0.31496062992125984,
                    "duration": 0.11077474999999026
                },
                {
                    "name": "C#5",
                    "midi": 73,
                    "time": 196.73595599999808,
                    "velocity": 0.3700787401574803,
                    "duration": 0.6646484999999984
                },
                {
                    "name": "C5",
                    "midi": 72,
                    "time": 197.40060449999808,
                    "velocity": 0.47244094488188976,
                    "duration": 0.11077474999999026
                },
                {
                    "name": "C#5",
                    "midi": 73,
                    "time": 197.51137924999807,
                    "velocity": 0.4330708661417323,
                    "duration": 0.11077474999999026
                },
                {
                    "name": "D#5",
                    "midi": 75,
                    "time": 197.62215399999806,
                    "velocity": 0.47244094488188976,
                    "duration": 0.08308106250001401
                },
                {
                    "name": "D#5",
                    "midi": 75,
                    "time": 197.84370349999807,
                    "velocity": 0.48031496062992124,
                    "duration": 0.08308106250001401
                },
                {
                    "name": "D#5",
                    "midi": 75,
                    "time": 198.06525299999808,
                    "velocity": 0.49606299212598426,
                    "duration": 0.11077474999999026
                },
                {
                    "name": "G#5",
                    "midi": 80,
                    "time": 198.17602774999807,
                    "velocity": 0.4566929133858268,
                    "duration": 0.11077474999999026
                },
                {
                    "name": "C6",
                    "midi": 84,
                    "time": 198.28680249999806,
                    "velocity": 0.5196850393700787,
                    "duration": 0.11077474999999026
                },
                {
                    "name": "G#5",
                    "midi": 80,
                    "time": 198.39757724999805,
                    "velocity": 0.4566929133858268,
                    "duration": 0.11077474999999026
                },
                {
                    "name": "D#5",
                    "midi": 75,
                    "time": 198.50835199999804,
                    "velocity": 0.48031496062992124,
                    "duration": 0.6646484999999984
                },
                {
                    "name": "C#5",
                    "midi": 73,
                    "time": 199.17300049999804,
                    "velocity": 0.44881889763779526,
                    "duration": 0.11077474999999026
                },
                {
                    "name": "C5",
                    "midi": 72,
                    "time": 199.28377524999803,
                    "velocity": 0.4251968503937008,
                    "duration": 0.11077474999999026
                },
                {
                    "name": "A#4",
                    "midi": 70,
                    "time": 199.61609949999803,
                    "velocity": 0.41732283464566927,
                    "duration": 0.22154950000000895
                },
                {
                    "name": "C5",
                    "midi": 72,
                    "time": 200.05919849999805,
                    "velocity": 0.41732283464566927,
                    "duration": 0.1661621249999996
                },
                {
                    "name": "D#5",
                    "midi": 75,
                    "time": 200.28074799999806,
                    "velocity": 0.4645669291338583,
                    "duration": 0.22154950000000895
                },
                {
                    "name": "C#5",
                    "midi": 73,
                    "time": 200.50229749999806,
                    "velocity": 0.4015748031496063,
                    "duration": 0.05538737500000934
                },
                {
                    "name": "D#5",
                    "midi": 75,
                    "time": 200.55768487499807,
                    "velocity": 0.36220472440944884,
                    "duration": 0.05538737500000934
                },
                {
                    "name": "C#5",
                    "midi": 73,
                    "time": 200.61307224999808,
                    "velocity": 0.4015748031496063,
                    "duration": 0.11077474999999026
                },
                {
                    "name": "C5",
                    "midi": 72,
                    "time": 200.72384699999807,
                    "velocity": 0.4645669291338583,
                    "duration": 0.22154950000000895
                },
                {
                    "name": "C5",
                    "midi": 72,
                    "time": 200.94539649999808,
                    "velocity": 0.47244094488188976,
                    "duration": 0.11077474999999026
                },
                {
                    "name": "C#5",
                    "midi": 73,
                    "time": 201.05617124999807,
                    "velocity": 0.4330708661417323,
                    "duration": 0.11077474999999026
                },
                {
                    "name": "D#5",
                    "midi": 75,
                    "time": 201.16694599999806,
                    "velocity": 0.47244094488188976,
                    "duration": 0.08308106250001401
                },
                {
                    "name": "F5",
                    "midi": 77,
                    "time": 201.38849549999807,
                    "velocity": 0.44881889763779526,
                    "duration": 0.08308106250001401
                },
                {
                    "name": "G5",
                    "midi": 79,
                    "time": 201.61004499999808,
                    "velocity": 0.4645669291338583,
                    "duration": 0.08308106250001401
                },
                {
                    "name": "G#5",
                    "midi": 80,
                    "time": 201.8315944999981,
                    "velocity": 0.5196850393700787,
                    "duration": 0.08308106250001401
                },
                {
                    "name": "D#5",
                    "midi": 75,
                    "time": 202.0531439999981,
                    "velocity": 0.48031496062992124,
                    "duration": 0.6646484999999984
                },
                {
                    "name": "C#5",
                    "midi": 73,
                    "time": 202.7177924999981,
                    "velocity": 0.44881889763779526,
                    "duration": 0.11077474999999026
                },
                {
                    "name": "C5",
                    "midi": 72,
                    "time": 202.8285672499981,
                    "velocity": 0.4251968503937008,
                    "duration": 0.11077474999999026
                },
                {
                    "name": "A#4",
                    "midi": 70,
                    "time": 203.1608914999981,
                    "velocity": 0.33858267716535434,
                    "duration": 0.1661621249999996
                },
                {
                    "name": "G4",
                    "midi": 67,
                    "time": 203.60399049999808,
                    "velocity": 0.3937007874015748,
                    "duration": 0.1661621249999996
                },
                {
                    "name": "G#4",
                    "midi": 68,
                    "time": 204.04708949999807,
                    "velocity": 0.47244094488188976,
                    "duration": 0.22154950000000895
                },
                {
                    "name": "F5",
                    "midi": 77,
                    "time": 204.26863899999807,
                    "velocity": 0.49606299212598426,
                    "duration": 0.11077474999999026
                },
                {
                    "name": "G#5",
                    "midi": 80,
                    "time": 204.37941374999806,
                    "velocity": 0.44881889763779526,
                    "duration": 0.11077474999999026
                },
                {
                    "name": "F5",
                    "midi": 77,
                    "time": 204.49018849999806,
                    "velocity": 0.49606299212598426,
                    "duration": 0.11077474999999026
                },
                {
                    "name": "G#5",
                    "midi": 80,
                    "time": 204.60096324999805,
                    "velocity": 0.4409448818897638,
                    "duration": 0.11077474999999026
                },
                {
                    "name": "D#5",
                    "midi": 75,
                    "time": 204.71173799999804,
                    "velocity": 0.49606299212598426,
                    "duration": 0.22154950000000895
                },
                {
                    "name": "C#5",
                    "midi": 73,
                    "time": 205.15483699999805,
                    "velocity": 0.49606299212598426,
                    "duration": 0.11077474999999026
                },
                {
                    "name": "G#5",
                    "midi": 80,
                    "time": 205.26561174999804,
                    "velocity": 0.44881889763779526,
                    "duration": 0.11077474999999026
                },
                {
                    "name": "C#5",
                    "midi": 73,
                    "time": 205.37638649999803,
                    "velocity": 0.49606299212598426,
                    "duration": 0.11077474999999026
                },
                {
                    "name": "G#5",
                    "midi": 80,
                    "time": 205.48716124999802,
                    "velocity": 0.4409448818897638,
                    "duration": 0.11077474999999026
                },
                {
                    "name": "C5",
                    "midi": 72,
                    "time": 205.59793599999801,
                    "velocity": 0.49606299212598426,
                    "duration": 0.22154950000000895
                },
                {
                    "name": "F5",
                    "midi": 77,
                    "time": 206.04103499999803,
                    "velocity": 0.49606299212598426,
                    "duration": 0.11077474999999026
                },
                {
                    "name": "G#5",
                    "midi": 80,
                    "time": 206.15180974999802,
                    "velocity": 0.44881889763779526,
                    "duration": 0.11077474999999026
                },
                {
                    "name": "F5",
                    "midi": 77,
                    "time": 206.262584499998,
                    "velocity": 0.49606299212598426,
                    "duration": 0.11077474999999026
                },
                {
                    "name": "G#5",
                    "midi": 80,
                    "time": 206.373359249998,
                    "velocity": 0.4409448818897638,
                    "duration": 0.11077474999999026
                },
                {
                    "name": "D#5",
                    "midi": 75,
                    "time": 206.484133999998,
                    "velocity": 0.49606299212598426,
                    "duration": 0.22154950000000895
                },
                {
                    "name": "A#4",
                    "midi": 70,
                    "time": 207.481106749998,
                    "velocity": 0.4645669291338583,
                    "duration": 0.11077474999999026
                },
                {
                    "name": "A4",
                    "midi": 69,
                    "time": 207.59188149999798,
                    "velocity": 0.5196850393700787,
                    "duration": 0.11077474999999026
                },
                {
                    "name": "A#4",
                    "midi": 70,
                    "time": 207.70265624999797,
                    "velocity": 0.4566929133858268,
                    "duration": 0.11077474999999026
                },
                {
                    "name": "F5",
                    "midi": 77,
                    "time": 207.81343099999796,
                    "velocity": 0.5275590551181102,
                    "duration": 0.22154950000000895
                },
                {
                    "name": "A#4",
                    "midi": 70,
                    "time": 208.03498049999797,
                    "velocity": 0.49606299212598426,
                    "duration": 0.11077474999999026
                },
                {
                    "name": "G#4",
                    "midi": 68,
                    "time": 208.36730474999797,
                    "velocity": 0.4645669291338583,
                    "duration": 0.11077474999999026
                },
                {
                    "name": "G4",
                    "midi": 67,
                    "time": 208.47807949999796,
                    "velocity": 0.5196850393700787,
                    "duration": 0.11077474999999026
                },
                {
                    "name": "G#4",
                    "midi": 68,
                    "time": 208.58885424999795,
                    "velocity": 0.4566929133858268,
                    "duration": 0.11077474999999026
                },
                {
                    "name": "F5",
                    "midi": 77,
                    "time": 208.69962899999794,
                    "velocity": 0.5275590551181102,
                    "duration": 0.22154950000000895
                },
                {
                    "name": "G#4",
                    "midi": 68,
                    "time": 208.92117849999795,
                    "velocity": 0.49606299212598426,
                    "duration": 0.11077474999999026
                },
                {
                    "name": "G4",
                    "midi": 67,
                    "time": 209.14272799999793,
                    "velocity": 0.5354330708661418,
                    "duration": 0.11077474999999026
                },
                {
                    "name": "D#5",
                    "midi": 75,
                    "time": 209.25350274999792,
                    "velocity": 0.4645669291338583,
                    "duration": 0.11077474999999026
                },
                {
                    "name": "G#4",
                    "midi": 68,
                    "time": 209.3642774999979,
                    "velocity": 0.5118110236220472,
                    "duration": 0.11077474999999026
                },
                {
                    "name": "D#5",
                    "midi": 75,
                    "time": 209.4750522499979,
                    "velocity": 0.4645669291338583,
                    "duration": 0.11077474999999026
                },
                {
                    "name": "A#4",
                    "midi": 70,
                    "time": 209.5858269999979,
                    "velocity": 0.5275590551181102,
                    "duration": 0.11077474999999026
                },
                {
                    "name": "D#5",
                    "midi": 75,
                    "time": 209.69660174999788,
                    "velocity": 0.4645669291338583,
                    "duration": 0.11077474999999026
                },
                {
                    "name": "C5",
                    "midi": 72,
                    "time": 209.80737649999787,
                    "velocity": 0.5275590551181102,
                    "duration": 0.11077474999999026
                },
                {
                    "name": "D#5",
                    "midi": 75,
                    "time": 209.91815124999786,
                    "velocity": 0.4645669291338583,
                    "duration": 0.11077474999999026
                },
                {
                    "name": "C#5",
                    "midi": 73,
                    "time": 210.02892599999785,
                    "velocity": 0.5669291338582677,
                    "duration": 0.11077474999999026
                },
                {
                    "name": "D#5",
                    "midi": 75,
                    "time": 210.13970074999784,
                    "velocity": 0.4645669291338583,
                    "duration": 0.11077474999999026
                },
                {
                    "name": "C5",
                    "midi": 72,
                    "time": 210.25047549999783,
                    "velocity": 0.5118110236220472,
                    "duration": 0.11077474999999026
                },
                {
                    "name": "D#5",
                    "midi": 75,
                    "time": 210.36125024999782,
                    "velocity": 0.4645669291338583,
                    "duration": 0.11077474999999026
                },
                {
                    "name": "C#5",
                    "midi": 73,
                    "time": 210.4720249999978,
                    "velocity": 0.5275590551181102,
                    "duration": 0.11077474999999026
                },
                {
                    "name": "D#5",
                    "midi": 75,
                    "time": 210.5827997499978,
                    "velocity": 0.4645669291338583,
                    "duration": 0.11077474999999026
                },
                {
                    "name": "A#4",
                    "midi": 70,
                    "time": 210.6935744999978,
                    "velocity": 0.5118110236220472,
                    "duration": 0.11077474999999026
                },
                {
                    "name": "D#5",
                    "midi": 75,
                    "time": 210.80434924999778,
                    "velocity": 0.4645669291338583,
                    "duration": 0.11077474999999026
                },
                {
                    "name": "C5",
                    "midi": 72,
                    "time": 210.91512399999777,
                    "velocity": 0.5433070866141733,
                    "duration": 0.11077474999999026
                },
                {
                    "name": "G#5",
                    "midi": 80,
                    "time": 211.02589874999776,
                    "velocity": 0.4645669291338583,
                    "duration": 0.11077474999999026
                },
                {
                    "name": "C#5",
                    "midi": 73,
                    "time": 211.13667349999776,
                    "velocity": 0.5433070866141733,
                    "duration": 0.11077474999999026
                },
                {
                    "name": "G#5",
                    "midi": 80,
                    "time": 211.24744824999775,
                    "velocity": 0.47244094488188976,
                    "duration": 0.11077474999999026
                },
                {
                    "name": "D#5",
                    "midi": 75,
                    "time": 211.35822299999774,
                    "velocity": 0.5590551181102362,
                    "duration": 0.11077474999999026
                },
                {
                    "name": "G#5",
                    "midi": 80,
                    "time": 211.46899774999773,
                    "velocity": 0.48031496062992124,
                    "duration": 0.11077474999999026
                },
                {
                    "name": "F5",
                    "midi": 77,
                    "time": 211.57977249999772,
                    "velocity": 0.5590551181102362,
                    "duration": 0.11077474999999026
                },
                {
                    "name": "G#5",
                    "midi": 80,
                    "time": 211.6905472499977,
                    "velocity": 0.5039370078740157,
                    "duration": 0.11077474999999026
                },
                {
                    "name": "F#5",
                    "midi": 78,
                    "time": 211.8013219999977,
                    "velocity": 0.5748031496062992,
                    "duration": 0.11077474999999026
                },
                {
                    "name": "G#5",
                    "midi": 80,
                    "time": 211.9120967499977,
                    "velocity": 0.5039370078740157,
                    "duration": 0.11077474999999026
                },
                {
                    "name": "F5",
                    "midi": 77,
                    "time": 212.02287149999768,
                    "velocity": 0.5433070866141733,
                    "duration": 0.11077474999999026
                },
                {
                    "name": "G#5",
                    "midi": 80,
                    "time": 212.13364624999767,
                    "velocity": 0.4645669291338583,
                    "duration": 0.11077474999999026
                },
                {
                    "name": "F#5",
                    "midi": 78,
                    "time": 212.24442099999766,
                    "velocity": 0.5748031496062992,
                    "duration": 0.11077474999999026
                },
                {
                    "name": "G#5",
                    "midi": 80,
                    "time": 212.35519574999765,
                    "velocity": 0.5039370078740157,
                    "duration": 0.11077474999999026
                },
                {
                    "name": "D#5",
                    "midi": 75,
                    "time": 212.46597049999764,
                    "velocity": 0.5275590551181102,
                    "duration": 0.11077474999999026
                },
                {
                    "name": "G#5",
                    "midi": 80,
                    "time": 212.57674524999763,
                    "velocity": 0.4645669291338583,
                    "duration": 0.11077474999999026
                },
                {
                    "name": "F5",
                    "midi": 77,
                    "time": 212.7982947499976,
                    "velocity": 0.5354330708661418,
                    "duration": 0.11077474999999026
                },
                {
                    "name": "G#5",
                    "midi": 80,
                    "time": 212.9090694999976,
                    "velocity": 0.5905511811023622,
                    "duration": 0.11077474999999026
                },
                {
                    "name": "F5",
                    "midi": 77,
                    "time": 213.0198442499976,
                    "velocity": 0.5275590551181102,
                    "duration": 0.11077474999999026
                },
                {
                    "name": "C#6",
                    "midi": 85,
                    "time": 213.13061899999758,
                    "velocity": 0.6299212598425197,
                    "duration": 0.11077474999999026
                },
                {
                    "name": "F5",
                    "midi": 77,
                    "time": 213.24139374999757,
                    "velocity": 0.5196850393700787,
                    "duration": 0.11077474999999026
                },
                {
                    "name": "G#5",
                    "midi": 80,
                    "time": 213.35216849999756,
                    "velocity": 0.5748031496062992,
                    "duration": 0.11077474999999026
                },
                {
                    "name": "F5",
                    "midi": 77,
                    "time": 213.46294324999755,
                    "velocity": 0.5196850393700787,
                    "duration": 0.11077474999999026
                },
                {
                    "name": "D#5",
                    "midi": 75,
                    "time": 213.68449274999753,
                    "velocity": 0.5354330708661418,
                    "duration": 0.11077474999999026
                },
                {
                    "name": "C#6",
                    "midi": 85,
                    "time": 213.79526749999752,
                    "velocity": 0.5905511811023622,
                    "duration": 0.11077474999999026
                },
                {
                    "name": "D#5",
                    "midi": 75,
                    "time": 213.9060422499975,
                    "velocity": 0.5275590551181102,
                    "duration": 0.11077474999999026
                },
                {
                    "name": "D#5",
                    "midi": 75,
                    "time": 214.1275917499975,
                    "velocity": 0.5354330708661418,
                    "duration": 0.11077474999999026
                },
                {
                    "name": "C6",
                    "midi": 84,
                    "time": 214.23836649999748,
                    "velocity": 0.5905511811023622,
                    "duration": 0.11077474999999026
                },
                {
                    "name": "D#5",
                    "midi": 75,
                    "time": 214.34914124999747,
                    "velocity": 0.5275590551181102,
                    "duration": 0.11077474999999026
                },
                {
                    "name": "C#5",
                    "midi": 73,
                    "time": 214.57069074999745,
                    "velocity": 0.5354330708661418,
                    "duration": 0.11077474999999026
                },
                {
                    "name": "F5",
                    "midi": 77,
                    "time": 214.68146549999744,
                    "velocity": 0.5905511811023622,
                    "duration": 0.11077474999999026
                },
                {
                    "name": "C#5",
                    "midi": 73,
                    "time": 214.79224024999743,
                    "velocity": 0.5275590551181102,
                    "duration": 0.11077474999999026
                },
                {
                    "name": "A#5",
                    "midi": 82,
                    "time": 214.90301499999742,
                    "velocity": 0.6220472440944882,
                    "duration": 0.11077474999999026
                },
                {
                    "name": "C#5",
                    "midi": 73,
                    "time": 215.01378974999741,
                    "velocity": 0.5196850393700787,
                    "duration": 0.11077474999999026
                },
                {
                    "name": "F5",
                    "midi": 77,
                    "time": 215.1245644999974,
                    "velocity": 0.5748031496062992,
                    "duration": 0.11077474999999026
                },
                {
                    "name": "C#5",
                    "midi": 73,
                    "time": 215.2353392499974,
                    "velocity": 0.5196850393700787,
                    "duration": 0.11077474999999026
                },
                {
                    "name": "C5",
                    "midi": 72,
                    "time": 215.45688874999738,
                    "velocity": 0.5354330708661418,
                    "duration": 0.11077474999999026
                },
                {
                    "name": "A#5",
                    "midi": 82,
                    "time": 215.56766349999737,
                    "velocity": 0.5905511811023622,
                    "duration": 0.11077474999999026
                },
                {
                    "name": "C5",
                    "midi": 72,
                    "time": 215.67843824999736,
                    "velocity": 0.5275590551181102,
                    "duration": 0.11077474999999026
                },
                {
                    "name": "B4",
                    "midi": 71,
                    "time": 215.89998774999734,
                    "velocity": 0.5354330708661418,
                    "duration": 0.11077474999999026
                },
                {
                    "name": "G#5",
                    "midi": 80,
                    "time": 216.01076249999733,
                    "velocity": 0.5905511811023622,
                    "duration": 0.11077474999999026
                },
                {
                    "name": "B4",
                    "midi": 71,
                    "time": 216.12153724999732,
                    "velocity": 0.5275590551181102,
                    "duration": 0.11077474999999026
                },
                {
                    "name": "A#4",
                    "midi": 70,
                    "time": 216.3430867499973,
                    "velocity": 0.5354330708661418,
                    "duration": 0.11077474999999026
                },
                {
                    "name": "G#5",
                    "midi": 80,
                    "time": 216.4538614999973,
                    "velocity": 0.5905511811023622,
                    "duration": 0.11077474999999026
                },
                {
                    "name": "A#4",
                    "midi": 70,
                    "time": 216.56463624999728,
                    "velocity": 0.5275590551181102,
                    "duration": 0.11077474999999026
                },
                {
                    "name": "A#4",
                    "midi": 70,
                    "time": 216.78618574999726,
                    "velocity": 0.5354330708661418,
                    "duration": 0.11077474999999026
                },
                {
                    "name": "F#5",
                    "midi": 78,
                    "time": 216.89696049999725,
                    "velocity": 0.5905511811023622,
                    "duration": 0.11077474999999026
                },
                {
                    "name": "A#4",
                    "midi": 70,
                    "time": 217.00773524999724,
                    "velocity": 0.5275590551181102,
                    "duration": 0.11077474999999026
                },
                {
                    "name": "G#4",
                    "midi": 68,
                    "time": 217.22928474999722,
                    "velocity": 0.5354330708661418,
                    "duration": 0.11077474999999026
                },
                {
                    "name": "F#5",
                    "midi": 78,
                    "time": 217.3400594999972,
                    "velocity": 0.5905511811023622,
                    "duration": 0.11077474999999026
                },
                {
                    "name": "G#4",
                    "midi": 68,
                    "time": 217.4508342499972,
                    "velocity": 0.5275590551181102,
                    "duration": 0.11077474999999026
                },
                {
                    "name": "G#4",
                    "midi": 68,
                    "time": 217.67238374999718,
                    "velocity": 0.5354330708661418,
                    "duration": 0.11077474999999026
                },
                {
                    "name": "F5",
                    "midi": 77,
                    "time": 217.78315849999717,
                    "velocity": 0.5905511811023622,
                    "duration": 0.11077474999999026
                },
                {
                    "name": "G#4",
                    "midi": 68,
                    "time": 217.89393324999716,
                    "velocity": 0.5275590551181102,
                    "duration": 0.11077474999999026
                },
                {
                    "name": "F#4",
                    "midi": 66,
                    "time": 218.11548274999714,
                    "velocity": 0.5354330708661418,
                    "duration": 0.11077474999999026
                },
                {
                    "name": "F5",
                    "midi": 77,
                    "time": 218.22625749999713,
                    "velocity": 0.5905511811023622,
                    "duration": 0.11077474999999026
                },
                {
                    "name": "F#4",
                    "midi": 66,
                    "time": 218.33703224999712,
                    "velocity": 0.5275590551181102,
                    "duration": 0.11077474999999026
                },
                {
                    "name": "F#4",
                    "midi": 66,
                    "time": 218.5585817499971,
                    "velocity": 0.5354330708661418,
                    "duration": 0.11077474999999026
                },
                {
                    "name": "D#5",
                    "midi": 75,
                    "time": 218.6693564999971,
                    "velocity": 0.5905511811023622,
                    "duration": 0.11077474999999026
                },
                {
                    "name": "F#4",
                    "midi": 66,
                    "time": 218.78013124999708,
                    "velocity": 0.5275590551181102,
                    "duration": 0.11077474999999026
                },
                {
                    "name": "F4",
                    "midi": 65,
                    "time": 219.00168074999706,
                    "velocity": 0.5354330708661418,
                    "duration": 0.11077474999999026
                },
                {
                    "name": "D#5",
                    "midi": 75,
                    "time": 219.11245549999705,
                    "velocity": 0.5826771653543307,
                    "duration": 0.11077474999999026
                },
                {
                    "name": "F4",
                    "midi": 65,
                    "time": 219.22323024999704,
                    "velocity": 0.5196850393700787,
                    "duration": 0.11077474999999026
                },
                {
                    "name": "F4",
                    "midi": 65,
                    "time": 219.44477974999702,
                    "velocity": 0.5196850393700787,
                    "duration": 0.11077474999999026
                },
                {
                    "name": "C#5",
                    "midi": 73,
                    "time": 219.55555449999702,
                    "velocity": 0.5669291338582677,
                    "duration": 0.11077474999999026
                },
                {
                    "name": "F4",
                    "midi": 65,
                    "time": 219.666329249997,
                    "velocity": 0.49606299212598426,
                    "duration": 0.11077474999999026
                },
                {
                    "name": "D#4",
                    "midi": 63,
                    "time": 219.887878749997,
                    "velocity": 0.49606299212598426,
                    "duration": 0.11077474999999026
                },
                {
                    "name": "C#5",
                    "midi": 73,
                    "time": 219.99865349999698,
                    "velocity": 0.5433070866141733,
                    "duration": 0.11077474999999026
                },
                {
                    "name": "D#4",
                    "midi": 63,
                    "time": 220.10942824999697,
                    "velocity": 0.4881889763779528,
                    "duration": 0.11077474999999026
                },
                {
                    "name": "D#4",
                    "midi": 63,
                    "time": 220.33097774999695,
                    "velocity": 0.4881889763779528,
                    "duration": 0.11077474999999026
                },
                {
                    "name": "C5",
                    "midi": 72,
                    "time": 220.44175249999694,
                    "velocity": 0.5354330708661418,
                    "duration": 0.11077474999999026
                },
                {
                    "name": "D#4",
                    "midi": 63,
                    "time": 220.55252724999693,
                    "velocity": 0.4645669291338583,
                    "duration": 0.11077474999999026
                },
                {
                    "name": "D4",
                    "midi": 62,
                    "time": 220.7740767499969,
                    "velocity": 0.4645669291338583,
                    "duration": 0.11077474999999026
                },
                {
                    "name": "B4",
                    "midi": 71,
                    "time": 220.8848514999969,
                    "velocity": 0.5196850393700787,
                    "duration": 0.11077474999999026
                },
                {
                    "name": "D4",
                    "midi": 62,
                    "time": 220.9956262499969,
                    "velocity": 0.4566929133858268,
                    "duration": 0.11077474999999026
                },
                {
                    "name": "D4",
                    "midi": 62,
                    "time": 221.21717574999687,
                    "velocity": 0.4645669291338583,
                    "duration": 0.11077474999999026
                },
                {
                    "name": "B4",
                    "midi": 71,
                    "time": 221.32795049999686,
                    "velocity": 0.5196850393700787,
                    "duration": 0.11077474999999026
                },
                {
                    "name": "D4",
                    "midi": 62,
                    "time": 221.43872524999685,
                    "velocity": 0.4566929133858268,
                    "duration": 0.11077474999999026
                },
                {
                    "name": "D4",
                    "midi": 62,
                    "time": 221.66027474999683,
                    "velocity": 0.4645669291338583,
                    "duration": 0.11077474999999026
                },
                {
                    "name": "B4",
                    "midi": 71,
                    "time": 221.77104949999682,
                    "velocity": 0.5196850393700787,
                    "duration": 0.11077474999999026
                },
                {
                    "name": "D4",
                    "midi": 62,
                    "time": 221.8818242499968,
                    "velocity": 0.44881889763779526,
                    "duration": 0.11077474999999026
                },
                {
                    "name": "D4",
                    "midi": 62,
                    "time": 222.1033737499968,
                    "velocity": 0.4566929133858268,
                    "duration": 0.11077474999999026
                },
                {
                    "name": "B4",
                    "midi": 71,
                    "time": 222.21414849999678,
                    "velocity": 0.5196850393700787,
                    "duration": 0.11077474999999026
                },
                {
                    "name": "D4",
                    "midi": 62,
                    "time": 222.32492324999677,
                    "velocity": 0.44881889763779526,
                    "duration": 0.11077474999999026
                },
                {
                    "name": "D4",
                    "midi": 62,
                    "time": 222.54647274999675,
                    "velocity": 0.4566929133858268,
                    "duration": 0.11077474999999026
                },
                {
                    "name": "B4",
                    "midi": 71,
                    "time": 222.65724749999674,
                    "velocity": 0.5118110236220472,
                    "duration": 0.11077474999999026
                },
                {
                    "name": "D4",
                    "midi": 62,
                    "time": 222.76802224999673,
                    "velocity": 0.44881889763779526,
                    "duration": 0.11077474999999026
                },
                {
                    "name": "D4",
                    "midi": 62,
                    "time": 222.9895717499967,
                    "velocity": 0.4566929133858268,
                    "duration": 0.11077474999999026
                },
                {
                    "name": "B4",
                    "midi": 71,
                    "time": 223.1003464999967,
                    "velocity": 0.5118110236220472,
                    "duration": 0.11077474999999026
                },
                {
                    "name": "D4",
                    "midi": 62,
                    "time": 223.2111212499967,
                    "velocity": 0.44881889763779526,
                    "duration": 0.11077474999999026
                },
                {
                    "name": "D4",
                    "midi": 62,
                    "time": 223.43267074999667,
                    "velocity": 0.4566929133858268,
                    "duration": 0.11077474999999026
                },
                {
                    "name": "B4",
                    "midi": 71,
                    "time": 223.54344549999666,
                    "velocity": 0.5118110236220472,
                    "duration": 0.11077474999999026
                },
                {
                    "name": "D4",
                    "midi": 62,
                    "time": 223.65422024999665,
                    "velocity": 0.4409448818897638,
                    "duration": 0.11077474999999026
                },
                {
                    "name": "D4",
                    "midi": 62,
                    "time": 223.87576974999664,
                    "velocity": 0.44881889763779526,
                    "duration": 0.11077474999999026
                },
                {
                    "name": "B4",
                    "midi": 71,
                    "time": 223.98654449999663,
                    "velocity": 0.5118110236220472,
                    "duration": 0.11077474999999026
                },
                {
                    "name": "D4",
                    "midi": 62,
                    "time": 224.09731924999662,
                    "velocity": 0.4409448818897638,
                    "duration": 0.11077474999999026
                },
                {
                    "name": "C#4",
                    "midi": 61,
                    "time": 224.3188687499966,
                    "velocity": 0.4015748031496063,
                    "duration": 0.11077474999999026
                },
                {
                    "name": "A#4",
                    "midi": 70,
                    "time": 224.4296434999966,
                    "velocity": 0.44881889763779526,
                    "duration": 0.11077474999999026
                },
                {
                    "name": "C#4",
                    "midi": 61,
                    "time": 224.54041824999658,
                    "velocity": 0.3858267716535433,
                    "duration": 0.11077474999999026
                },
                {
                    "name": "C#4",
                    "midi": 61,
                    "time": 224.76196774999656,
                    "velocity": 0.3937007874015748,
                    "duration": 0.11077474999999026
                },
                {
                    "name": "A#4",
                    "midi": 70,
                    "time": 224.87274249999655,
                    "velocity": 0.44881889763779526,
                    "duration": 0.11077474999999026
                },
                {
                    "name": "C#4",
                    "midi": 61,
                    "time": 224.98351724999654,
                    "velocity": 0.3858267716535433,
                    "duration": 0.11077474999999026
                },
                {
                    "name": "C#4",
                    "midi": 61,
                    "time": 225.20506674999652,
                    "velocity": 0.3937007874015748,
                    "duration": 0.11077474999999026
                },
                {
                    "name": "A#4",
                    "midi": 70,
                    "time": 225.3158414999965,
                    "velocity": 0.44881889763779526,
                    "duration": 0.11077474999999026
                },
                {
                    "name": "C#4",
                    "midi": 61,
                    "time": 225.4266162499965,
                    "velocity": 0.3858267716535433,
                    "duration": 0.11077474999999026
                },
                {
                    "name": "C#4",
                    "midi": 61,
                    "time": 225.64816574999648,
                    "velocity": 0.3937007874015748,
                    "duration": 0.11077474999999026
                },
                {
                    "name": "A#4",
                    "midi": 70,
                    "time": 225.75894049999647,
                    "velocity": 0.4409448818897638,
                    "duration": 0.11077474999999026
                },
                {
                    "name": "C#4",
                    "midi": 61,
                    "time": 225.86971524999646,
                    "velocity": 0.3858267716535433,
                    "duration": 0.11077474999999026
                },
                {
                    "name": "C#4",
                    "midi": 61,
                    "time": 226.09126474999644,
                    "velocity": 0.3858267716535433,
                    "duration": 0.11077474999999026
                },
                {
                    "name": "A#4",
                    "midi": 70,
                    "time": 226.20203949999643,
                    "velocity": 0.4251968503937008,
                    "duration": 0.11077474999999026
                },
                {
                    "name": "C#4",
                    "midi": 61,
                    "time": 226.31281424999642,
                    "velocity": 0.3700787401574803,
                    "duration": 0.11077474999999026
                },
                {
                    "name": "C#4",
                    "midi": 61,
                    "time": 226.5343637499964,
                    "velocity": 0.36220472440944884,
                    "duration": 0.11077474999999026
                },
                {
                    "name": "A#4",
                    "midi": 70,
                    "time": 226.6451384999964,
                    "velocity": 0.4094488188976378,
                    "duration": 0.11077474999999026
                },
                {
                    "name": "C#4",
                    "midi": 61,
                    "time": 226.75591324999638,
                    "velocity": 0.3464566929133858,
                    "duration": 0.11077474999999026
                },
                {
                    "name": "C#4",
                    "midi": 61,
                    "time": 226.97746274999636,
                    "velocity": 0.3464566929133858,
                    "duration": 0.11077474999999026
                },
                {
                    "name": "A#4",
                    "midi": 70,
                    "time": 227.08823749999635,
                    "velocity": 0.3858267716535433,
                    "duration": 0.11077474999999026
                },
                {
                    "name": "C#4",
                    "midi": 61,
                    "time": 227.19901224999634,
                    "velocity": 0.33070866141732286,
                    "duration": 0.11077474999999026
                },
                {
                    "name": "C#4",
                    "midi": 61,
                    "time": 227.42056174999632,
                    "velocity": 0.33070866141732286,
                    "duration": 0.11077474999999026
                },
                {
                    "name": "A#4",
                    "midi": 70,
                    "time": 227.5313364999963,
                    "velocity": 0.3700787401574803,
                    "duration": 0.11077474999999026
                },
                {
                    "name": "C#4",
                    "midi": 61,
                    "time": 227.6421112499963,
                    "velocity": 0.31496062992125984,
                    "duration": 0.11077474999999026
                },
                {
                    "name": "C4",
                    "midi": 60,
                    "time": 228.4175344999963,
                    "velocity": 0.4015748031496063,
                    "duration": 0.11077474999999026
                },
                {
                    "name": "C#4",
                    "midi": 61,
                    "time": 228.52830924999628,
                    "velocity": 0.36220472440944884,
                    "duration": 0.11077474999999026
                },
                {
                    "name": "D#4",
                    "midi": 63,
                    "time": 228.63908399999627,
                    "velocity": 0.4015748031496063,
                    "duration": 0.08308106250001401
                },
                {
                    "name": "D#4",
                    "midi": 63,
                    "time": 228.86063349999628,
                    "velocity": 0.4015748031496063,
                    "duration": 0.08308106250001401
                },
                {
                    "name": "D#4",
                    "midi": 63,
                    "time": 229.0821829999963,
                    "velocity": 0.41732283464566927,
                    "duration": 0.08308106250001401
                },
                {
                    "name": "G#4",
                    "midi": 68,
                    "time": 229.3037324999963,
                    "velocity": 0.4566929133858268,
                    "duration": 0.08308106250001401
                },
                {
                    "name": "D#4",
                    "midi": 63,
                    "time": 229.5252819999963,
                    "velocity": 0.4015748031496063,
                    "duration": 0.6646484999999984
                },
                {
                    "name": "C#4",
                    "midi": 61,
                    "time": 230.1899304999963,
                    "velocity": 0.3779527559055118,
                    "duration": 0.11077474999999026
                },
                {
                    "name": "C4",
                    "midi": 60,
                    "time": 230.3007052499963,
                    "velocity": 0.3543307086614173,
                    "duration": 0.11077474999999026
                },
                {
                    "name": "A#3",
                    "midi": 58,
                    "time": 230.4114799999963,
                    "velocity": 0.4015748031496063,
                    "duration": 0.4430989999999895
                },
                {
                    "name": "C4",
                    "midi": 60,
                    "time": 230.85457899999628,
                    "velocity": 0.3937007874015748,
                    "duration": 0.4430989999999895
                },
                {
                    "name": "D#4",
                    "midi": 63,
                    "time": 231.29767799999627,
                    "velocity": 0.3937007874015748,
                    "duration": 0.22154950000000895
                },
                {
                    "name": "C#4",
                    "midi": 61,
                    "time": 231.51922749999628,
                    "velocity": 0.33858267716535434,
                    "duration": 0.05538737500000934
                },
                {
                    "name": "D#4",
                    "midi": 63,
                    "time": 231.57461487499629,
                    "velocity": 0.30708661417322836,
                    "duration": 0.05538737500000934
                },
                {
                    "name": "C#4",
                    "midi": 61,
                    "time": 231.6300022499963,
                    "velocity": 0.33858267716535434,
                    "duration": 0.11077474999999026
                },
                {
                    "name": "C4",
                    "midi": 60,
                    "time": 231.74077699999629,
                    "velocity": 0.3937007874015748,
                    "duration": 0.22154950000000895
                },
                {
                    "name": "C4",
                    "midi": 60,
                    "time": 231.9623264999963,
                    "velocity": 0.4015748031496063,
                    "duration": 0.11077474999999026
                },
                {
                    "name": "C#4",
                    "midi": 61,
                    "time": 232.07310124999628,
                    "velocity": 0.36220472440944884,
                    "duration": 0.11077474999999026
                },
                {
                    "name": "D#4",
                    "midi": 63,
                    "time": 232.18387599999627,
                    "velocity": 0.4015748031496063,
                    "duration": 0.08308106250001401
                },
                {
                    "name": "D#4",
                    "midi": 63,
                    "time": 232.40542549999628,
                    "velocity": 0.3937007874015748,
                    "duration": 0.08308106250001401
                },
                {
                    "name": "D#4",
                    "midi": 63,
                    "time": 232.6269749999963,
                    "velocity": 0.4251968503937008,
                    "duration": 0.08308106250001401
                },
                {
                    "name": "G#4",
                    "midi": 68,
                    "time": 232.8485244999963,
                    "velocity": 0.4409448818897638,
                    "duration": 0.08308106250001401
                },
                {
                    "name": "D#4",
                    "midi": 63,
                    "time": 233.0700739999963,
                    "velocity": 0.4015748031496063,
                    "duration": 0.6646484999999984
                },
                {
                    "name": "C#4",
                    "midi": 61,
                    "time": 233.7347224999963,
                    "velocity": 0.3779527559055118,
                    "duration": 0.11077474999999026
                },
                {
                    "name": "C4",
                    "midi": 60,
                    "time": 233.8454972499963,
                    "velocity": 0.3543307086614173,
                    "duration": 0.11077474999999026
                },
                {
                    "name": "A#3",
                    "midi": 58,
                    "time": 233.9562719999963,
                    "velocity": 0.4015748031496063,
                    "duration": 0.22154950000000895
                },
                {
                    "name": "C#4",
                    "midi": 61,
                    "time": 234.1778214999963,
                    "velocity": 0.33858267716535434,
                    "duration": 0.1661621249999996
                },
                {
                    "name": "G3",
                    "midi": 55,
                    "time": 234.3993709999963,
                    "velocity": 0.3937007874015748,
                    "duration": 0.22154950000000895
                },
                {
                    "name": "A#3",
                    "midi": 58,
                    "time": 234.62092049999632,
                    "velocity": 0.33070866141732286,
                    "duration": 0.1661621249999996
                },
                {
                    "name": "G#3",
                    "midi": 56,
                    "time": 234.84246999999633,
                    "velocity": 0.4015748031496063,
                    "duration": 0.4430989999999895
                },
                {
                    "name": "C5",
                    "midi": 72,
                    "time": 235.50711849999632,
                    "velocity": 0.49606299212598426,
                    "duration": 0.11077474999999026
                },
                {
                    "name": "C#5",
                    "midi": 73,
                    "time": 235.6178932499963,
                    "velocity": 0.44881889763779526,
                    "duration": 0.11077474999999026
                },
                {
                    "name": "D#5",
                    "midi": 75,
                    "time": 235.7286679999963,
                    "velocity": 0.49606299212598426,
                    "duration": 0.08308106250001401
                },
                {
                    "name": "D#5",
                    "midi": 75,
                    "time": 235.9502174999963,
                    "velocity": 0.5039370078740157,
                    "duration": 0.08308106250001401
                },
                {
                    "name": "D#5",
                    "midi": 75,
                    "time": 236.17176699999632,
                    "velocity": 0.5196850393700787,
                    "duration": 0.08308106250001401
                },
                {
                    "name": "D#6",
                    "midi": 87,
                    "time": 236.39331649999633,
                    "velocity": 0.6456692913385826,
                    "duration": 0.08308106250001401
                },
                {
                    "name": "D#5",
                    "midi": 75,
                    "time": 236.61486599999634,
                    "velocity": 0.5039370078740157,
                    "duration": 0.6646484999999984
                },
                {
                    "name": "C#5",
                    "midi": 73,
                    "time": 237.27951449999634,
                    "velocity": 0.4645669291338583,
                    "duration": 0.11077474999999026
                },
                {
                    "name": "C5",
                    "midi": 72,
                    "time": 237.39028924999633,
                    "velocity": 0.4409448818897638,
                    "duration": 0.11077474999999026
                },
                {
                    "name": "A#4",
                    "midi": 70,
                    "time": 237.50106399999632,
                    "velocity": 0.5354330708661418,
                    "duration": 0.22154950000000895
                },
                {
                    "name": "D#6",
                    "midi": 87,
                    "time": 237.72261349999633,
                    "velocity": 0.5826771653543307,
                    "duration": 0.22154950000000895
                },
                {
                    "name": "C5",
                    "midi": 72,
                    "time": 237.94416299999634,
                    "velocity": 0.5196850393700787,
                    "duration": 0.22154950000000895
                },
                {
                    "name": "D#6",
                    "midi": 87,
                    "time": 238.16571249999635,
                    "velocity": 0.5590551181102362,
                    "duration": 0.22154950000000895
                },
                {
                    "name": "D#5",
                    "midi": 75,
                    "time": 238.38726199999635,
                    "velocity": 0.48031496062992124,
                    "duration": 0.22154950000000895
                },
                {
                    "name": "C#5",
                    "midi": 73,
                    "time": 238.60881149999636,
                    "velocity": 0.41732283464566927,
                    "duration": 0.05538737500000934
                },
                {
                    "name": "D#5",
                    "midi": 75,
                    "time": 238.66419887499637,
                    "velocity": 0.3779527559055118,
                    "duration": 0.05538737500000934
                },
                {
                    "name": "C#5",
                    "midi": 73,
                    "time": 238.71958624999638,
                    "velocity": 0.41732283464566927,
                    "duration": 0.11077474999999026
                },
                {
                    "name": "C5",
                    "midi": 72,
                    "time": 238.83036099999637,
                    "velocity": 0.48031496062992124,
                    "duration": 0.22154950000000895
                },
                {
                    "name": "C5",
                    "midi": 72,
                    "time": 239.05191049999638,
                    "velocity": 0.49606299212598426,
                    "duration": 0.11077474999999026
                },
                {
                    "name": "C#5",
                    "midi": 73,
                    "time": 239.16268524999637,
                    "velocity": 0.44881889763779526,
                    "duration": 0.11077474999999026
                },
                {
                    "name": "D#5",
                    "midi": 75,
                    "time": 239.27345999999636,
                    "velocity": 0.49606299212598426,
                    "duration": 0.08308106250001401
                },
                {
                    "name": "D#5",
                    "midi": 75,
                    "time": 239.49500949999637,
                    "velocity": 0.48031496062992124,
                    "duration": 0.08308106250001401
                },
                {
                    "name": "D#5",
                    "midi": 75,
                    "time": 239.71655899999638,
                    "velocity": 0.5275590551181102,
                    "duration": 0.08308106250001401
                },
                {
                    "name": "D#6",
                    "midi": 87,
                    "time": 239.9381084999964,
                    "velocity": 0.6456692913385826,
                    "duration": 0.08308106250001401
                },
                {
                    "name": "D#5",
                    "midi": 75,
                    "time": 240.1596579999964,
                    "velocity": 0.5039370078740157,
                    "duration": 0.6646484999999984
                },
                {
                    "name": "C#5",
                    "midi": 73,
                    "time": 240.8243064999964,
                    "velocity": 0.4645669291338583,
                    "duration": 0.11077474999999026
                },
                {
                    "name": "C5",
                    "midi": 72,
                    "time": 240.9350812499964,
                    "velocity": 0.4409448818897638,
                    "duration": 0.11077474999999026
                },
                {
                    "name": "A#4",
                    "midi": 70,
                    "time": 241.04585599999638,
                    "velocity": 0.49606299212598426,
                    "duration": 0.22154950000000895
                },
                {
                    "name": "C#6",
                    "midi": 85,
                    "time": 241.26740549999639,
                    "velocity": 0.5433070866141733,
                    "duration": 0.1661621249999996
                },
                {
                    "name": "G4",
                    "midi": 67,
                    "time": 241.4889549999964,
                    "velocity": 0.48031496062992124,
                    "duration": 0.22154950000000895
                },
                {
                    "name": "A#4",
                    "midi": 70,
                    "time": 241.7105044999964,
                    "velocity": 0.4094488188976378,
                    "duration": 0.1661621249999996
                },
                {
                    "name": "G#4",
                    "midi": 68,
                    "time": 241.9320539999964,
                    "velocity": 0.49606299212598426,
                    "duration": 0.4430989999999895
                },
                {
                    "name": "D#5",
                    "midi": 75,
                    "time": 242.5967024999964,
                    "velocity": 0.41732283464566927,
                    "duration": 0.22154950000000895
                },
                {
                    "name": "F5",
                    "midi": 77,
                    "time": 242.81825199999642,
                    "velocity": 0.4645669291338583,
                    "duration": 0.22154950000000895
                },
                {
                    "name": "D#5",
                    "midi": 75,
                    "time": 243.03980149999643,
                    "velocity": 0.4409448818897638,
                    "duration": 0.22154950000000895
                },
                {
                    "name": "D5",
                    "midi": 74,
                    "time": 243.26135099999644,
                    "velocity": 0.4409448818897638,
                    "duration": 0.1661621249999996
                },
                {
                    "name": "B5",
                    "midi": 83,
                    "time": 243.48290049999645,
                    "velocity": 0.4881889763779528,
                    "duration": 0.4430989999999895
                },
                {
                    "name": "A5",
                    "midi": 81,
                    "time": 243.92599949999644,
                    "velocity": 0.41732283464566927,
                    "duration": 0.22154950000000895
                },
                {
                    "name": "A#5",
                    "midi": 82,
                    "time": 244.14754899999645,
                    "velocity": 0.41732283464566927,
                    "duration": 0.22154950000000895
                },
                {
                    "name": "C5",
                    "midi": 72,
                    "time": 244.36909849999645,
                    "velocity": 0.4645669291338583,
                    "duration": 0.22154950000000895
                },
                {
                    "name": "C#5",
                    "midi": 73,
                    "time": 244.59064799999646,
                    "velocity": 0.48031496062992124,
                    "duration": 0.22154950000000895
                },
                {
                    "name": "C5",
                    "midi": 72,
                    "time": 244.81219749999647,
                    "velocity": 0.4330708661417323,
                    "duration": 0.22154950000000895
                },
                {
                    "name": "B4",
                    "midi": 71,
                    "time": 245.03374699999648,
                    "velocity": 0.4330708661417323,
                    "duration": 0.1661621249999996
                },
                {
                    "name": "G#5",
                    "midi": 80,
                    "time": 245.2552964999965,
                    "velocity": 0.49606299212598426,
                    "duration": 0.4430989999999895
                },
                {
                    "name": "F#5",
                    "midi": 78,
                    "time": 245.69839549999648,
                    "velocity": 0.41732283464566927,
                    "duration": 0.22154950000000895
                },
                {
                    "name": "G5",
                    "midi": 79,
                    "time": 245.9199449999965,
                    "velocity": 0.41732283464566927,
                    "duration": 0.11077474999999026
                },
                {
                    "name": "G#4",
                    "midi": 68,
                    "time": 246.14149449999647,
                    "velocity": 0.4645669291338583,
                    "duration": 0.22154950000000895
                },
                {
                    "name": "A#4",
                    "midi": 70,
                    "time": 246.36304399999648,
                    "velocity": 0.48031496062992124,
                    "duration": 0.22154950000000895
                },
                {
                    "name": "G#4",
                    "midi": 68,
                    "time": 246.5845934999965,
                    "velocity": 0.41732283464566927,
                    "duration": 0.22154950000000895
                },
                {
                    "name": "G4",
                    "midi": 67,
                    "time": 246.8061429999965,
                    "velocity": 0.41732283464566927,
                    "duration": 0.1661621249999996
                },
                {
                    "name": "F5",
                    "midi": 77,
                    "time": 247.0276924999965,
                    "velocity": 0.49606299212598426,
                    "duration": 0.4430989999999895
                },
                {
                    "name": "D5",
                    "midi": 74,
                    "time": 247.4707914999965,
                    "velocity": 0.4409448818897638,
                    "duration": 0.22154950000000895
                },
                {
                    "name": "D#5",
                    "midi": 75,
                    "time": 247.6923409999965,
                    "velocity": 0.48031496062992124,
                    "duration": 0.11077474999999026
                },
                {
                    "name": "D#5",
                    "midi": 75,
                    "time": 247.91389049999648,
                    "velocity": 0.5039370078740157,
                    "duration": 0.4430989999999895
                },
                {
                    "name": "D5",
                    "midi": 74,
                    "time": 248.35698949999647,
                    "velocity": 0.44881889763779526,
                    "duration": 0.22154950000000895
                },
                {
                    "name": "G#5",
                    "midi": 80,
                    "time": 248.57853899999648,
                    "velocity": 0.48031496062992124,
                    "duration": 0.11077474999999026
                },
                {
                    "name": "G#5",
                    "midi": 80,
                    "time": 248.80008849999646,
                    "velocity": 0.44881889763779526,
                    "duration": 0.4430989999999895
                },
                {
                    "name": "G5",
                    "midi": 79,
                    "time": 249.24318749999645,
                    "velocity": 0.3858267716535433,
                    "duration": 0.22154950000000895
                },
                {
                    "name": "A#5",
                    "midi": 82,
                    "time": 249.46473699999646,
                    "velocity": 0.4645669291338583,
                    "duration": 0.22154950000000895
                },
                {
                    "name": "D#5",
                    "midi": 75,
                    "time": 249.68628649999647,
                    "velocity": 0.4409448818897638,
                    "duration": 0.4430989999999895
                },
                {
                    "name": "D5",
                    "midi": 74,
                    "time": 250.12938549999646,
                    "velocity": 0.3779527559055118,
                    "duration": 0.22154950000000895
                },
                {
                    "name": "G#5",
                    "midi": 80,
                    "time": 250.35093499999647,
                    "velocity": 0.4015748031496063,
                    "duration": 0.08308106250001401
                },
                {
                    "name": "G#5",
                    "midi": 80,
                    "time": 250.57248449999648,
                    "velocity": 0.33858267716535434,
                    "duration": 1.3292969999999968
                },
                {
                    "name": "F#5",
                    "midi": 78,
                    "time": 251.90178149999647,
                    "velocity": 0.36220472440944884,
                    "duration": 0.22154950000000895
                },
                {
                    "name": "G5",
                    "midi": 79,
                    "time": 252.12333099999648,
                    "velocity": 0.41732283464566927,
                    "duration": 0.22154950000000895
                },
                {
                    "name": "D5",
                    "midi": 74,
                    "time": 252.3448804999965,
                    "velocity": 0.3543307086614173,
                    "duration": 0.22154950000000895
                },
                {
                    "name": "F5",
                    "midi": 77,
                    "time": 252.5664299999965,
                    "velocity": 0.3937007874015748,
                    "duration": 0.22154950000000895
                },
                {
                    "name": "D#5",
                    "midi": 75,
                    "time": 252.7879794999965,
                    "velocity": 0.33858267716535434,
                    "duration": 0.20308704166666303
                },
                {
                    "name": "D#5",
                    "midi": 75,
                    "time": 253.00952899999652,
                    "velocity": 0.33858267716535434,
                    "duration": 0.20308704166666303
                },
                {
                    "name": "C5",
                    "midi": 72,
                    "time": 253.23107849999653,
                    "velocity": 0.49606299212598426,
                    "duration": 0.11077474999999026
                },
                {
                    "name": "C#5",
                    "midi": 73,
                    "time": 253.34185324999652,
                    "velocity": 0.44881889763779526,
                    "duration": 0.11077474999999026
                },
                {
                    "name": "D#5",
                    "midi": 75,
                    "time": 253.4526279999965,
                    "velocity": 0.49606299212598426,
                    "duration": 0.08308106250001401
                },
                {
                    "name": "D#5",
                    "midi": 75,
                    "time": 253.67417749999652,
                    "velocity": 0.5039370078740157,
                    "duration": 0.08308106250001401
                },
                {
                    "name": "D#5",
                    "midi": 75,
                    "time": 253.89572699999653,
                    "velocity": 0.5196850393700787,
                    "duration": 0.08308106250001401
                },
                {
                    "name": "D#6",
                    "midi": 87,
                    "time": 254.11727649999654,
                    "velocity": 0.6456692913385826,
                    "duration": 0.08308106250001401
                },
                {
                    "name": "D#5",
                    "midi": 75,
                    "time": 254.33882599999654,
                    "velocity": 0.5039370078740157,
                    "duration": 0.6646484999999984
                },
                {
                    "name": "C#5",
                    "midi": 73,
                    "time": 255.00347449999654,
                    "velocity": 0.4645669291338583,
                    "duration": 0.11077474999999026
                },
                {
                    "name": "C5",
                    "midi": 72,
                    "time": 255.11424924999653,
                    "velocity": 0.4409448818897638,
                    "duration": 0.11077474999999026
                },
                {
                    "name": "A#4",
                    "midi": 70,
                    "time": 255.22502399999652,
                    "velocity": 0.5354330708661418,
                    "duration": 0.22154950000000895
                },
                {
                    "name": "D#6",
                    "midi": 87,
                    "time": 255.44657349999653,
                    "velocity": 0.5826771653543307,
                    "duration": 0.22154950000000895
                },
                {
                    "name": "C5",
                    "midi": 72,
                    "time": 255.66812299999654,
                    "velocity": 0.5196850393700787,
                    "duration": 0.22154950000000895
                },
                {
                    "name": "D#6",
                    "midi": 87,
                    "time": 255.88967249999655,
                    "velocity": 0.5590551181102362,
                    "duration": 0.22154949999998053
                },
                {
                    "name": "D#5",
                    "midi": 75,
                    "time": 256.11122199999653,
                    "velocity": 0.48031496062992124,
                    "duration": 0.22154949999998053
                },
                {
                    "name": "C#5",
                    "midi": 73,
                    "time": 256.3327714999965,
                    "velocity": 0.41732283464566927,
                    "duration": 0.05538737500000934
                },
                {
                    "name": "D#5",
                    "midi": 75,
                    "time": 256.3881588749965,
                    "velocity": 0.3779527559055118,
                    "duration": 0.05538737500000934
                },
                {
                    "name": "C#5",
                    "midi": 73,
                    "time": 256.44354624999653,
                    "velocity": 0.41732283464566927,
                    "duration": 0.11077475000001868
                },
                {
                    "name": "C5",
                    "midi": 72,
                    "time": 256.55432099999655,
                    "velocity": 0.48031496062992124,
                    "duration": 0.22154949999998053
                },
                {
                    "name": "C5",
                    "midi": 72,
                    "time": 256.77587049999653,
                    "velocity": 0.49606299212598426,
                    "duration": 0.11077475000001868
                },
                {
                    "name": "C#5",
                    "midi": 73,
                    "time": 256.88664524999655,
                    "velocity": 0.44881889763779526,
                    "duration": 0.11077475000001868
                },
                {
                    "name": "D#5",
                    "midi": 75,
                    "time": 256.99741999999657,
                    "velocity": 0.49606299212598426,
                    "duration": 0.08308106250001401
                },
                {
                    "name": "D#5",
                    "midi": 75,
                    "time": 257.2189694999966,
                    "velocity": 0.48031496062992124,
                    "duration": 0.08308106250001401
                },
                {
                    "name": "D#5",
                    "midi": 75,
                    "time": 257.44051899999664,
                    "velocity": 0.5275590551181102,
                    "duration": 0.08308106250001401
                },
                {
                    "name": "D#6",
                    "midi": 87,
                    "time": 257.6620684999967,
                    "velocity": 0.6456692913385826,
                    "duration": 0.08308106250001401
                },
                {
                    "name": "D#5",
                    "midi": 75,
                    "time": 257.8836179999967,
                    "velocity": 0.5039370078740157,
                    "duration": 0.6646484999999984
                },
                {
                    "name": "C#5",
                    "midi": 73,
                    "time": 258.5482664999967,
                    "velocity": 0.4645669291338583,
                    "duration": 0.11077475000001868
                },
                {
                    "name": "C5",
                    "midi": 72,
                    "time": 258.65904124999673,
                    "velocity": 0.4409448818897638,
                    "duration": 0.11077475000001868
                },
                {
                    "name": "A#4",
                    "midi": 70,
                    "time": 258.76981599999675,
                    "velocity": 0.49606299212598426,
                    "duration": 0.22154949999998053
                },
                {
                    "name": "C#6",
                    "midi": 85,
                    "time": 258.99136549999673,
                    "velocity": 0.5433070866141733,
                    "duration": 0.16616212500002803
                },
                {
                    "name": "G4",
                    "midi": 67,
                    "time": 259.21291499999677,
                    "velocity": 0.48031496062992124,
                    "duration": 0.22154949999998053
                },
                {
                    "name": "A#4",
                    "midi": 70,
                    "time": 259.43446449999675,
                    "velocity": 0.4094488188976378,
                    "duration": 0.16616212500002803
                },
                {
                    "name": "G#4",
                    "midi": 68,
                    "time": 259.6560139999968,
                    "velocity": 0.49606299212598426,
                    "duration": 0.4430990000000179
                },
                {
                    "name": "D#5",
                    "midi": 75,
                    "time": 260.3206624999968,
                    "velocity": 0.41732283464566927,
                    "duration": 0.22154949999998053
                },
                {
                    "name": "F5",
                    "midi": 77,
                    "time": 260.54221199999677,
                    "velocity": 0.4645669291338583,
                    "duration": 0.22154949999998053
                },
                {
                    "name": "D#5",
                    "midi": 75,
                    "time": 260.76376149999675,
                    "velocity": 0.4409448818897638,
                    "duration": 0.22154949999998053
                },
                {
                    "name": "D5",
                    "midi": 74,
                    "time": 260.9853109999967,
                    "velocity": 0.4409448818897638,
                    "duration": 0.16616212500002803
                },
                {
                    "name": "B5",
                    "midi": 83,
                    "time": 261.20686049999676,
                    "velocity": 0.4881889763779528,
                    "duration": 0.4430990000000179
                },
                {
                    "name": "A5",
                    "midi": 81,
                    "time": 261.6499594999968,
                    "velocity": 0.41732283464566927,
                    "duration": 0.22154949999998053
                },
                {
                    "name": "A#5",
                    "midi": 82,
                    "time": 261.87150899999676,
                    "velocity": 0.41732283464566927,
                    "duration": 0.22154949999998053
                },
                {
                    "name": "C5",
                    "midi": 72,
                    "time": 262.09305849999674,
                    "velocity": 0.4645669291338583,
                    "duration": 0.22154949999998053
                },
                {
                    "name": "C#5",
                    "midi": 73,
                    "time": 262.3146079999967,
                    "velocity": 0.48031496062992124,
                    "duration": 0.22154949999998053
                },
                {
                    "name": "C5",
                    "midi": 72,
                    "time": 262.5361574999967,
                    "velocity": 0.4330708661417323,
                    "duration": 0.22154949999998053
                },
                {
                    "name": "B4",
                    "midi": 71,
                    "time": 262.7577069999967,
                    "velocity": 0.4330708661417323,
                    "duration": 0.16616212500002803
                },
                {
                    "name": "G#5",
                    "midi": 80,
                    "time": 262.9792564999967,
                    "velocity": 0.49606299212598426,
                    "duration": 0.4430990000000179
                },
                {
                    "name": "F#5",
                    "midi": 78,
                    "time": 263.42235549999674,
                    "velocity": 0.41732283464566927,
                    "duration": 0.22154949999998053
                },
                {
                    "name": "G5",
                    "midi": 79,
                    "time": 263.6439049999967,
                    "velocity": 0.41732283464566927,
                    "duration": 0.11077475000001868
                },
                {
                    "name": "G#4",
                    "midi": 68,
                    "time": 263.86545449999676,
                    "velocity": 0.4645669291338583,
                    "duration": 0.22154949999998053
                },
                {
                    "name": "A#4",
                    "midi": 70,
                    "time": 264.08700399999674,
                    "velocity": 0.48031496062992124,
                    "duration": 0.22154949999998053
                },
                {
                    "name": "G#4",
                    "midi": 68,
                    "time": 264.3085534999967,
                    "velocity": 0.41732283464566927,
                    "duration": 0.22154949999998053
                },
                {
                    "name": "G4",
                    "midi": 67,
                    "time": 264.5301029999967,
                    "velocity": 0.41732283464566927,
                    "duration": 0.16616212500002803
                },
                {
                    "name": "F5",
                    "midi": 77,
                    "time": 264.75165249999674,
                    "velocity": 0.49606299212598426,
                    "duration": 0.4430990000000179
                },
                {
                    "name": "D5",
                    "midi": 74,
                    "time": 265.19475149999676,
                    "velocity": 0.4409448818897638,
                    "duration": 0.22154949999998053
                },
                {
                    "name": "D#5",
                    "midi": 75,
                    "time": 265.41630099999674,
                    "velocity": 0.48031496062992124,
                    "duration": 0.11077475000001868
                },
                {
                    "name": "D#5",
                    "midi": 75,
                    "time": 265.6378504999968,
                    "velocity": 0.5039370078740157,
                    "duration": 0.4430990000000179
                },
                {
                    "name": "D5",
                    "midi": 74,
                    "time": 266.0809494999968,
                    "velocity": 0.44881889763779526,
                    "duration": 0.22154949999998053
                },
                {
                    "name": "G#5",
                    "midi": 80,
                    "time": 266.30249899999677,
                    "velocity": 0.48031496062992124,
                    "duration": 0.11077475000001868
                },
                {
                    "name": "G#5",
                    "midi": 80,
                    "time": 266.5240484999968,
                    "velocity": 0.44881889763779526,
                    "duration": 0.4430990000000179
                },
                {
                    "name": "G5",
                    "midi": 79,
                    "time": 266.9671474999968,
                    "velocity": 0.3858267716535433,
                    "duration": 0.22154949999998053
                },
                {
                    "name": "A#5",
                    "midi": 82,
                    "time": 267.1886969999968,
                    "velocity": 0.4645669291338583,
                    "duration": 0.22154949999998053
                },
                {
                    "name": "D#5",
                    "midi": 75,
                    "time": 267.4102464999968,
                    "velocity": 0.4409448818897638,
                    "duration": 0.4430990000000179
                },
                {
                    "name": "D5",
                    "midi": 74,
                    "time": 267.8533454999968,
                    "velocity": 0.3779527559055118,
                    "duration": 0.22154949999998053
                },
                {
                    "name": "G#5",
                    "midi": 80,
                    "time": 268.0748949999968,
                    "velocity": 0.4015748031496063,
                    "duration": 0.08308106250001401
                },
                {
                    "name": "G#5",
                    "midi": 80,
                    "time": 268.2964444999968,
                    "velocity": 0.33858267716535434,
                    "duration": 1.3292969999999968
                },
                {
                    "name": "F#5",
                    "midi": 78,
                    "time": 269.6257414999968,
                    "velocity": 0.36220472440944884,
                    "duration": 0.22154949999998053
                },
                {
                    "name": "G5",
                    "midi": 79,
                    "time": 269.8472909999968,
                    "velocity": 0.41732283464566927,
                    "duration": 0.22154949999998053
                },
                {
                    "name": "D5",
                    "midi": 74,
                    "time": 270.0688404999968,
                    "velocity": 0.3543307086614173,
                    "duration": 0.22154949999998053
                },
                {
                    "name": "F5",
                    "midi": 77,
                    "time": 270.29038999999676,
                    "velocity": 0.3937007874015748,
                    "duration": 0.22154949999998053
                },
                {
                    "name": "D#5",
                    "midi": 75,
                    "time": 270.51193949999674,
                    "velocity": 0.33858267716535434,
                    "duration": 0.20308704166666303
                },
                {
                    "name": "D#5",
                    "midi": 75,
                    "time": 270.7334889999967,
                    "velocity": 0.33858267716535434,
                    "duration": 0.20308704166666303
                },
                {
                    "name": "C5",
                    "midi": 72,
                    "time": 270.9550384999967,
                    "velocity": 0.49606299212598426,
                    "duration": 0.11077475000001868
                },
                {
                    "name": "C#5",
                    "midi": 73,
                    "time": 271.0658132499967,
                    "velocity": 0.44881889763779526,
                    "duration": 0.11077475000001868
                },
                {
                    "name": "D#5",
                    "midi": 75,
                    "time": 271.17658799999674,
                    "velocity": 0.49606299212598426,
                    "duration": 0.08308106250001401
                },
                {
                    "name": "D#5",
                    "midi": 75,
                    "time": 271.3981374999968,
                    "velocity": 0.5039370078740157,
                    "duration": 0.08308106250001401
                },
                {
                    "name": "D#5",
                    "midi": 75,
                    "time": 271.6196869999968,
                    "velocity": 0.5196850393700787,
                    "duration": 0.08308106250001401
                },
                {
                    "name": "D#6",
                    "midi": 87,
                    "time": 271.84123649999685,
                    "velocity": 0.6456692913385826,
                    "duration": 0.08308106250001401
                },
                {
                    "name": "D#5",
                    "midi": 75,
                    "time": 272.0627859999969,
                    "velocity": 0.5039370078740157,
                    "duration": 0.6646484999999984
                },
                {
                    "name": "C#5",
                    "midi": 73,
                    "time": 272.7274344999969,
                    "velocity": 0.4645669291338583,
                    "duration": 0.11077475000001868
                },
                {
                    "name": "C5",
                    "midi": 72,
                    "time": 272.8382092499969,
                    "velocity": 0.4409448818897638,
                    "duration": 0.11077475000001868
                },
                {
                    "name": "A#4",
                    "midi": 70,
                    "time": 272.9489839999969,
                    "velocity": 0.5354330708661418,
                    "duration": 0.22154949999998053
                },
                {
                    "name": "D#6",
                    "midi": 87,
                    "time": 273.1705334999969,
                    "velocity": 0.5826771653543307,
                    "duration": 0.22154949999998053
                },
                {
                    "name": "C5",
                    "midi": 72,
                    "time": 273.3920829999969,
                    "velocity": 0.5196850393700787,
                    "duration": 0.22154949999998053
                },
                {
                    "name": "D#6",
                    "midi": 87,
                    "time": 273.61363249999687,
                    "velocity": 0.5590551181102362,
                    "duration": 0.22154949999998053
                },
                {
                    "name": "D#5",
                    "midi": 75,
                    "time": 273.83518199999685,
                    "velocity": 0.48031496062992124,
                    "duration": 0.22154949999998053
                },
                {
                    "name": "C#5",
                    "midi": 73,
                    "time": 274.05673149999683,
                    "velocity": 0.41732283464566927,
                    "duration": 0.05538737500000934
                },
                {
                    "name": "D#5",
                    "midi": 75,
                    "time": 274.11211887499684,
                    "velocity": 0.3779527559055118,
                    "duration": 0.05538737500000934
                },
                {
                    "name": "C#5",
                    "midi": 73,
                    "time": 274.16750624999685,
                    "velocity": 0.41732283464566927,
                    "duration": 0.11077475000001868
                },
                {
                    "name": "C5",
                    "midi": 72,
                    "time": 274.27828099999687,
                    "velocity": 0.48031496062992124,
                    "duration": 0.22154949999998053
                },
                {
                    "name": "C5",
                    "midi": 72,
                    "time": 274.49983049999685,
                    "velocity": 0.49606299212598426,
                    "duration": 0.11077475000001868
                },
                {
                    "name": "C#5",
                    "midi": 73,
                    "time": 274.61060524999687,
                    "velocity": 0.44881889763779526,
                    "duration": 0.11077475000001868
                },
                {
                    "name": "D#5",
                    "midi": 75,
                    "time": 274.7213799999969,
                    "velocity": 0.49606299212598426,
                    "duration": 0.08308106250001401
                },
                {
                    "name": "D#5",
                    "midi": 75,
                    "time": 274.9429294999969,
                    "velocity": 0.48031496062992124,
                    "duration": 0.08308106250001401
                },
                {
                    "name": "D#5",
                    "midi": 75,
                    "time": 275.16447899999696,
                    "velocity": 0.5275590551181102,
                    "duration": 0.08308106250001401
                },
                {
                    "name": "D#6",
                    "midi": 87,
                    "time": 275.386028499997,
                    "velocity": 0.6456692913385826,
                    "duration": 0.08308106250001401
                },
                {
                    "name": "D#5",
                    "midi": 75,
                    "time": 275.60757799999703,
                    "velocity": 0.5039370078740157,
                    "duration": 0.6646484999999984
                },
                {
                    "name": "C#5",
                    "midi": 73,
                    "time": 276.27222649999703,
                    "velocity": 0.4645669291338583,
                    "duration": 0.11077475000001868
                },
                {
                    "name": "C5",
                    "midi": 72,
                    "time": 276.38300124999705,
                    "velocity": 0.4409448818897638,
                    "duration": 0.11077475000001868
                },
                {
                    "name": "A#4",
                    "midi": 70,
                    "time": 276.49377599999707,
                    "velocity": 0.49606299212598426,
                    "duration": 0.22154949999998053
                },
                {
                    "name": "C#6",
                    "midi": 85,
                    "time": 276.71532549999705,
                    "velocity": 0.5433070866141733,
                    "duration": 0.16616212500002803
                },
                {
                    "name": "G4",
                    "midi": 67,
                    "time": 276.9368749999971,
                    "velocity": 0.48031496062992124,
                    "duration": 0.22154949999998053
                },
                {
                    "name": "A#4",
                    "midi": 70,
                    "time": 277.15842449999707,
                    "velocity": 0.4094488188976378,
                    "duration": 0.16616212500002803
                },
                {
                    "name": "G#4",
                    "midi": 68,
                    "time": 277.3799739999971,
                    "velocity": 0.49606299212598426,
                    "duration": 0.4430990000000179
                },
                {
                    "name": "F5",
                    "midi": 77,
                    "time": 277.8230729999971,
                    "velocity": 0.5433070866141733,
                    "duration": 0.11077475000001868
                },
                {
                    "name": "G#5",
                    "midi": 80,
                    "time": 277.93384774999714,
                    "velocity": 0.4881889763779528,
                    "duration": 0.11077475000001868
                },
                {
                    "name": "F5",
                    "midi": 77,
                    "time": 278.04462249999716,
                    "velocity": 0.5433070866141733,
                    "duration": 0.11077475000001868
                },
                {
                    "name": "G#5",
                    "midi": 80,
                    "time": 278.1553972499972,
                    "velocity": 0.48031496062992124,
                    "duration": 0.11077475000001868
                },
                {
                    "name": "D#5",
                    "midi": 75,
                    "time": 278.2661719999972,
                    "velocity": 0.5433070866141733,
                    "duration": 0.22154949999998053
                },
                {
                    "name": "C#5",
                    "midi": 73,
                    "time": 278.70927099999716,
                    "velocity": 0.5433070866141733,
                    "duration": 0.11077475000001868
                },
                {
                    "name": "G#5",
                    "midi": 80,
                    "time": 278.8200457499972,
                    "velocity": 0.4881889763779528,
                    "duration": 0.11077475000001868
                },
                {
                    "name": "C#5",
                    "midi": 73,
                    "time": 278.9308204999972,
                    "velocity": 0.5433070866141733,
                    "duration": 0.11077475000001868
                },
                {
                    "name": "G#5",
                    "midi": 80,
                    "time": 279.0415952499972,
                    "velocity": 0.48031496062992124,
                    "duration": 0.11077475000001868
                },
                {
                    "name": "C5",
                    "midi": 72,
                    "time": 279.15236999999723,
                    "velocity": 0.5433070866141733,
                    "duration": 0.22154949999998053
                },
                {
                    "name": "F5",
                    "midi": 77,
                    "time": 279.5954689999972,
                    "velocity": 0.5433070866141733,
                    "duration": 0.11077475000001868
                },
                {
                    "name": "G#5",
                    "midi": 80,
                    "time": 279.7062437499972,
                    "velocity": 0.4881889763779528,
                    "duration": 0.11077475000001868
                },
                {
                    "name": "F5",
                    "midi": 77,
                    "time": 279.81701849999723,
                    "velocity": 0.5433070866141733,
                    "duration": 0.11077475000001868
                },
                {
                    "name": "G#5",
                    "midi": 80,
                    "time": 279.92779324999725,
                    "velocity": 0.48031496062992124,
                    "duration": 0.11077475000001868
                },
                {
                    "name": "D#5",
                    "midi": 75,
                    "time": 280.03856799999727,
                    "velocity": 0.5433070866141733,
                    "duration": 0.22154949999998053
                },
                {
                    "name": "C6",
                    "midi": 84,
                    "time": 280.62936666666394,
                    "velocity": 0.4409448818897638,
                    "duration": 0.14769966666665368
                },
                {
                    "name": "A#5",
                    "midi": 82,
                    "time": 280.7770663333306,
                    "velocity": 0.4409448818897638,
                    "duration": 0.14769966666665368
                },
                {
                    "name": "G#5",
                    "midi": 80,
                    "time": 280.92476599999725,
                    "velocity": 0.48031496062992124,
                    "duration": 0.14769966666665368
                },
                {
                    "name": "G5",
                    "midi": 79,
                    "time": 281.0724656666639,
                    "velocity": 0.4409448818897638,
                    "duration": 0.14769966666665368
                },
                {
                    "name": "F5",
                    "midi": 77,
                    "time": 281.22016533333056,
                    "velocity": 0.4409448818897638,
                    "duration": 0.14769966666665368
                },
                {
                    "name": "D#5",
                    "midi": 75,
                    "time": 281.3678649999972,
                    "velocity": 0.48031496062992124,
                    "duration": 0.14769966666665368
                },
                {
                    "name": "C#5",
                    "midi": 73,
                    "time": 281.51556466666386,
                    "velocity": 0.4330708661417323,
                    "duration": 0.14769966666665368
                },
                {
                    "name": "C5",
                    "midi": 72,
                    "time": 281.6632643333305,
                    "velocity": 0.4330708661417323,
                    "duration": 0.14769966666665368
                },
                {
                    "name": "A#4",
                    "midi": 70,
                    "time": 281.81096399999717,
                    "velocity": 0.48031496062992124,
                    "duration": 0.22154949999998053
                },
                {
                    "name": "A#4",
                    "midi": 70,
                    "time": 282.40176266666384,
                    "velocity": 0.3700787401574803,
                    "duration": 0.14769966666665368
                },
                {
                    "name": "G#4",
                    "midi": 68,
                    "time": 282.5494623333305,
                    "velocity": 0.3700787401574803,
                    "duration": 0.14769966666665368
                },
                {
                    "name": "G4",
                    "midi": 67,
                    "time": 282.69716199999715,
                    "velocity": 0.4015748031496063,
                    "duration": 0.14769966666665368
                },
                {
                    "name": "F4",
                    "midi": 65,
                    "time": 282.8448616666638,
                    "velocity": 0.3700787401574803,
                    "duration": 0.14769966666665368
                },
                {
                    "name": "D#4",
                    "midi": 63,
                    "time": 282.99256133333046,
                    "velocity": 0.3700787401574803,
                    "duration": 0.14769966666665368
                },
                {
                    "name": "C#4",
                    "midi": 61,
                    "time": 283.1402609999971,
                    "velocity": 0.4015748031496063,
                    "duration": 0.14769966666665368
                },
                {
                    "name": "C4",
                    "midi": 60,
                    "time": 283.28796066666376,
                    "velocity": 0.36220472440944884,
                    "duration": 0.14769966666665368
                },
                {
                    "name": "A#3",
                    "midi": 58,
                    "time": 283.4356603333304,
                    "velocity": 0.36220472440944884,
                    "duration": 0.14769966666665368
                },
                {
                    "name": "G#3",
                    "midi": 56,
                    "time": 283.58335999999707,
                    "velocity": 0.33858267716535434,
                    "duration": 0.08308106250001401
                },
                {
                    "name": "G#3",
                    "midi": 56,
                    "time": 283.8049094999971,
                    "velocity": 0.2992125984251969,
                    "duration": 0.08308106250001401
                },
                {
                    "name": "G#3",
                    "midi": 56,
                    "time": 284.02645899999715,
                    "velocity": 0.33858267716535434,
                    "duration": 0.11077475000001868
                },
                {
                    "name": "C4",
                    "midi": 60,
                    "time": 284.13723374999716,
                    "velocity": 0.30708661417322836,
                    "duration": 0.11077475000001868
                },
                {
                    "name": "D#4",
                    "midi": 63,
                    "time": 284.2480084999972,
                    "velocity": 0.33070866141732286,
                    "duration": 0.11077475000001868
                },
                {
                    "name": "C4",
                    "midi": 60,
                    "time": 284.3587832499972,
                    "velocity": 0.30708661417322836,
                    "duration": 0.11077475000001868
                },
                {
                    "name": "G#3",
                    "midi": 56,
                    "time": 284.4695579999972,
                    "velocity": 0.33858267716535434,
                    "duration": 0.08308106250001401
                },
                {
                    "name": "G#3",
                    "midi": 56,
                    "time": 284.69110749999726,
                    "velocity": 0.2992125984251969,
                    "duration": 0.08308106250001401
                },
                {
                    "name": "G#3",
                    "midi": 56,
                    "time": 284.9126569999973,
                    "velocity": 0.33858267716535434,
                    "duration": 0.11077475000001868
                },
                {
                    "name": "C4",
                    "midi": 60,
                    "time": 285.0234317499973,
                    "velocity": 0.30708661417322836,
                    "duration": 0.11077475000001868
                },
                {
                    "name": "D#4",
                    "midi": 63,
                    "time": 285.13420649999733,
                    "velocity": 0.33070866141732286,
                    "duration": 0.11077475000001868
                },
                {
                    "name": "C4",
                    "midi": 60,
                    "time": 285.24498124999735,
                    "velocity": 0.30708661417322836,
                    "duration": 0.11077475000001868
                },
                {
                    "name": "G#3",
                    "midi": 56,
                    "time": 285.35575599999737,
                    "velocity": 0.3858267716535433,
                    "duration": 0.11077475000001868
                },
                {
                    "name": "G#4",
                    "midi": 68,
                    "time": 285.7988549999974,
                    "velocity": 0.6377952755905512,
                    "duration": 0.4430990000000179
                },
                {
                    "name": "D#4",
                    "midi": 63,
                    "time": 285.7988549999974,
                    "velocity": 0.5275590551181102,
                    "duration": 0.4430990000000179
                },
                {
                    "name": "C4",
                    "midi": 60,
                    "time": 285.7988549999974,
                    "velocity": 0.5275590551181102,
                    "duration": 0.4430990000000179
                }
            ],
            "controlChanges": {},
            "id": 1,
            "name": "Piano right",
            "instrumentNumber": 0,
            "instrument": "acoustic grand piano",
            "instrumentFamily": "piano",
            "channelNumber": 0,
            "isPercussion": false
        },
        {
            "startTime": 1.9939455,
            "duration": 286.24195400000053,
            "length": 780,
            "notes": [
                {
                    "name": "C4",
                    "midi": 60,
                    "time": 1.9939455,
                    "velocity": 0.4015748031496063,
                    "duration": 0.22154949999999984
                },
                {
                    "name": "A#3",
                    "midi": 58,
                    "time": 2.2154949999999998,
                    "velocity": 0.4015748031496063,
                    "duration": 0.22154950000000007
                },
                {
                    "name": "G#3",
                    "midi": 56,
                    "time": 2.4370445,
                    "velocity": 0.3779527559055118,
                    "duration": 0.22154950000000007
                },
                {
                    "name": "G3",
                    "midi": 55,
                    "time": 2.658594,
                    "velocity": 0.41732283464566927,
                    "duration": 0.22154950000000007
                },
                {
                    "name": "D#3",
                    "midi": 51,
                    "time": 2.8801435,
                    "velocity": 0.3700787401574803,
                    "duration": 0.16616212500000005
                },
                {
                    "name": "G#3",
                    "midi": 56,
                    "time": 3.101693,
                    "velocity": 0.3858267716535433,
                    "duration": 0.22154950000000007
                },
                {
                    "name": "D#3",
                    "midi": 51,
                    "time": 3.3232425,
                    "velocity": 0.3543307086614173,
                    "duration": 0.16616212500000005
                },
                {
                    "name": "A#3",
                    "midi": 58,
                    "time": 3.544792,
                    "velocity": 0.3858267716535433,
                    "duration": 0.22154950000000007
                },
                {
                    "name": "D#3",
                    "midi": 51,
                    "time": 3.7663415000000002,
                    "velocity": 0.3543307086614173,
                    "duration": 0.16616212500000005
                },
                {
                    "name": "G#3",
                    "midi": 56,
                    "time": 3.9878910000000003,
                    "velocity": 0.3858267716535433,
                    "duration": 0.22154950000000007
                },
                {
                    "name": "C4",
                    "midi": 60,
                    "time": 5.5387375,
                    "velocity": 0.4015748031496063,
                    "duration": 0.22154950000000007
                },
                {
                    "name": "A#3",
                    "midi": 58,
                    "time": 5.760287,
                    "velocity": 0.4015748031496063,
                    "duration": 0.22154950000000007
                },
                {
                    "name": "G#3",
                    "midi": 56,
                    "time": 5.9818365,
                    "velocity": 0.3779527559055118,
                    "duration": 0.22154950000000007
                },
                {
                    "name": "C#4",
                    "midi": 61,
                    "time": 6.203386,
                    "velocity": 0.41732283464566927,
                    "duration": 0.22154950000000007
                },
                {
                    "name": "A#3",
                    "midi": 58,
                    "time": 6.4249355,
                    "velocity": 0.3700787401574803,
                    "duration": 0.1661621249999996
                },
                {
                    "name": "D#4",
                    "midi": 63,
                    "time": 6.646484999999999,
                    "velocity": 0.3858267716535433,
                    "duration": 0.22154950000000007
                },
                {
                    "name": "D#3",
                    "midi": 51,
                    "time": 6.868034499999999,
                    "velocity": 0.3543307086614173,
                    "duration": 0.1661621249999996
                },
                {
                    "name": "G#3",
                    "midi": 56,
                    "time": 7.0895839999999986,
                    "velocity": 0.3937007874015748,
                    "duration": 0.22154950000000007
                },
                {
                    "name": "D#3",
                    "midi": 51,
                    "time": 7.311133499999999,
                    "velocity": 0.33070866141732286,
                    "duration": 0.22154950000000007
                },
                {
                    "name": "G#2",
                    "midi": 44,
                    "time": 7.532682999999999,
                    "velocity": 0.3700787401574803,
                    "duration": 0.22154950000000007
                },
                {
                    "name": "C4",
                    "midi": 60,
                    "time": 9.0835295,
                    "velocity": 0.4015748031496063,
                    "duration": 0.22154950000000007
                },
                {
                    "name": "A#3",
                    "midi": 58,
                    "time": 9.305079,
                    "velocity": 0.4015748031496063,
                    "duration": 0.22154950000000007
                },
                {
                    "name": "G#3",
                    "midi": 56,
                    "time": 9.5266285,
                    "velocity": 0.3779527559055118,
                    "duration": 0.22154950000000007
                },
                {
                    "name": "G3",
                    "midi": 55,
                    "time": 9.748178,
                    "velocity": 0.41732283464566927,
                    "duration": 0.22154950000000007
                },
                {
                    "name": "D#3",
                    "midi": 51,
                    "time": 9.9697275,
                    "velocity": 0.3700787401574803,
                    "duration": 0.1661621249999996
                },
                {
                    "name": "G#3",
                    "midi": 56,
                    "time": 10.191277,
                    "velocity": 0.3858267716535433,
                    "duration": 0.22154950000000007
                },
                {
                    "name": "D#3",
                    "midi": 51,
                    "time": 10.4128265,
                    "velocity": 0.3543307086614173,
                    "duration": 0.1661621249999996
                },
                {
                    "name": "A#3",
                    "midi": 58,
                    "time": 10.634376,
                    "velocity": 0.3858267716535433,
                    "duration": 0.22154950000000007
                },
                {
                    "name": "D#3",
                    "midi": 51,
                    "time": 10.8559255,
                    "velocity": 0.3543307086614173,
                    "duration": 0.1661621249999996
                },
                {
                    "name": "G#3",
                    "midi": 56,
                    "time": 11.077475,
                    "velocity": 0.3858267716535433,
                    "duration": 0.22154950000000007
                },
                {
                    "name": "C4",
                    "midi": 60,
                    "time": 12.6283215,
                    "velocity": 0.4015748031496063,
                    "duration": 0.22154950000000007
                },
                {
                    "name": "A#3",
                    "midi": 58,
                    "time": 12.849871,
                    "velocity": 0.4015748031496063,
                    "duration": 0.22154950000000007
                },
                {
                    "name": "G#3",
                    "midi": 56,
                    "time": 13.0714205,
                    "velocity": 0.3779527559055118,
                    "duration": 0.22154950000000007
                },
                {
                    "name": "C#4",
                    "midi": 61,
                    "time": 13.29297,
                    "velocity": 0.41732283464566927,
                    "duration": 0.22154950000000007
                },
                {
                    "name": "A#3",
                    "midi": 58,
                    "time": 13.5145195,
                    "velocity": 0.3700787401574803,
                    "duration": 0.1661621249999996
                },
                {
                    "name": "D#4",
                    "midi": 63,
                    "time": 13.736069,
                    "velocity": 0.3858267716535433,
                    "duration": 0.22154950000000007
                },
                {
                    "name": "D#3",
                    "midi": 51,
                    "time": 13.9576185,
                    "velocity": 0.3543307086614173,
                    "duration": 0.1661621249999996
                },
                {
                    "name": "G#3",
                    "midi": 56,
                    "time": 14.179168,
                    "velocity": 0.3937007874015748,
                    "duration": 0.22154950000000007
                },
                {
                    "name": "D#3",
                    "midi": 51,
                    "time": 14.4007175,
                    "velocity": 0.33070866141732286,
                    "duration": 0.22154950000000007
                },
                {
                    "name": "G#2",
                    "midi": 44,
                    "time": 14.622267,
                    "velocity": 0.3700787401574803,
                    "duration": 0.22154950000000007
                },
                {
                    "name": "D5",
                    "midi": 74,
                    "time": 15.730014500000001,
                    "velocity": 0.3228346456692913,
                    "duration": 0.22154950000000007
                },
                {
                    "name": "G#4",
                    "midi": 68,
                    "time": 15.730014500000001,
                    "velocity": 0.2677165354330709,
                    "duration": 0.22154950000000007
                },
                {
                    "name": "G4",
                    "midi": 67,
                    "time": 15.951564000000001,
                    "velocity": 0.2992125984251969,
                    "duration": 0.4430989999999966
                },
                {
                    "name": "D#5",
                    "midi": 75,
                    "time": 15.951564000000001,
                    "velocity": 0.3543307086614173,
                    "duration": 0.44032963124999824
                },
                {
                    "name": "B4",
                    "midi": 71,
                    "time": 17.502410499999996,
                    "velocity": 0.3228346456692913,
                    "duration": 0.2215494999999983
                },
                {
                    "name": "F4",
                    "midi": 65,
                    "time": 17.502410499999996,
                    "velocity": 0.2677165354330709,
                    "duration": 0.2215494999999983
                },
                {
                    "name": "D#4",
                    "midi": 63,
                    "time": 17.723959999999995,
                    "velocity": 0.2992125984251969,
                    "duration": 0.4430989999999966
                },
                {
                    "name": "C5",
                    "midi": 72,
                    "time": 17.723959999999995,
                    "velocity": 0.3543307086614173,
                    "duration": 0.44032963124999824
                },
                {
                    "name": "G4",
                    "midi": 67,
                    "time": 19.27480649999999,
                    "velocity": 0.3228346456692913,
                    "duration": 0.2215494999999983
                },
                {
                    "name": "C#4",
                    "midi": 61,
                    "time": 19.27480649999999,
                    "velocity": 0.2677165354330709,
                    "duration": 0.2215494999999983
                },
                {
                    "name": "C4",
                    "midi": 60,
                    "time": 19.496355999999988,
                    "velocity": 0.2992125984251969,
                    "duration": 0.44309900000000013
                },
                {
                    "name": "G#4",
                    "midi": 68,
                    "time": 19.496355999999988,
                    "velocity": 0.3543307086614173,
                    "duration": 0.44125275416666554
                },
                {
                    "name": "A#3",
                    "midi": 58,
                    "time": 20.38255399999999,
                    "velocity": 0.2992125984251969,
                    "duration": 0.44309900000000013
                },
                {
                    "name": "G#4",
                    "midi": 68,
                    "time": 20.38255399999999,
                    "velocity": 0.3543307086614173,
                    "duration": 0.44309900000000013
                },
                {
                    "name": "D#4",
                    "midi": 63,
                    "time": 21.26875199999999,
                    "velocity": 0.2992125984251969,
                    "duration": 0.44309900000000013
                },
                {
                    "name": "G4",
                    "midi": 67,
                    "time": 21.26875199999999,
                    "velocity": 0.3543307086614173,
                    "duration": 0.44309900000000013
                },
                {
                    "name": "A#3",
                    "midi": 58,
                    "time": 22.15494999999999,
                    "velocity": 0.2992125984251969,
                    "duration": 0.44309900000000013
                },
                {
                    "name": "G#4",
                    "midi": 68,
                    "time": 22.15494999999999,
                    "velocity": 0.3543307086614173,
                    "duration": 0.44309900000000013
                },
                {
                    "name": "D#2",
                    "midi": 39,
                    "time": 23.262697499999987,
                    "velocity": 0.2047244094488189,
                    "duration": 0.2215494999999983
                },
                {
                    "name": "C4",
                    "midi": 60,
                    "time": 25.035093499999984,
                    "velocity": 0.4015748031496063,
                    "duration": 0.2215494999999983
                },
                {
                    "name": "A#3",
                    "midi": 58,
                    "time": 25.256642999999983,
                    "velocity": 0.4015748031496063,
                    "duration": 0.2215494999999983
                },
                {
                    "name": "G#3",
                    "midi": 56,
                    "time": 25.47819249999998,
                    "velocity": 0.3779527559055118,
                    "duration": 0.2215494999999983
                },
                {
                    "name": "G3",
                    "midi": 55,
                    "time": 25.69974199999998,
                    "velocity": 0.41732283464566927,
                    "duration": 0.2215494999999983
                },
                {
                    "name": "D#3",
                    "midi": 51,
                    "time": 25.921291499999978,
                    "velocity": 0.3700787401574803,
                    "duration": 0.1661621249999996
                },
                {
                    "name": "G#3",
                    "midi": 56,
                    "time": 26.142840999999976,
                    "velocity": 0.3858267716535433,
                    "duration": 0.2215494999999983
                },
                {
                    "name": "D#3",
                    "midi": 51,
                    "time": 26.364390499999974,
                    "velocity": 0.3543307086614173,
                    "duration": 0.1661621249999996
                },
                {
                    "name": "A#3",
                    "midi": 58,
                    "time": 26.585939999999972,
                    "velocity": 0.3858267716535433,
                    "duration": 0.2215494999999983
                },
                {
                    "name": "D#3",
                    "midi": 51,
                    "time": 26.80748949999997,
                    "velocity": 0.3543307086614173,
                    "duration": 0.1661621249999996
                },
                {
                    "name": "G#3",
                    "midi": 56,
                    "time": 27.02903899999997,
                    "velocity": 0.3858267716535433,
                    "duration": 0.2215494999999983
                },
                {
                    "name": "C4",
                    "midi": 60,
                    "time": 28.579885499999968,
                    "velocity": 0.4015748031496063,
                    "duration": 0.2215494999999983
                },
                {
                    "name": "A#3",
                    "midi": 58,
                    "time": 28.801434999999966,
                    "velocity": 0.4015748031496063,
                    "duration": 0.2215494999999983
                },
                {
                    "name": "G#3",
                    "midi": 56,
                    "time": 29.022984499999964,
                    "velocity": 0.3779527559055118,
                    "duration": 0.2215494999999983
                },
                {
                    "name": "C#4",
                    "midi": 61,
                    "time": 29.244533999999963,
                    "velocity": 0.41732283464566927,
                    "duration": 0.2215494999999983
                },
                {
                    "name": "A#3",
                    "midi": 58,
                    "time": 29.46608349999996,
                    "velocity": 0.3700787401574803,
                    "duration": 0.1661621249999996
                },
                {
                    "name": "D#4",
                    "midi": 63,
                    "time": 29.68763299999996,
                    "velocity": 0.3858267716535433,
                    "duration": 0.2215494999999983
                },
                {
                    "name": "D#3",
                    "midi": 51,
                    "time": 29.909182499999957,
                    "velocity": 0.3543307086614173,
                    "duration": 0.1661621249999996
                },
                {
                    "name": "G#3",
                    "midi": 56,
                    "time": 30.130731999999956,
                    "velocity": 0.3937007874015748,
                    "duration": 0.2215494999999983
                },
                {
                    "name": "D#3",
                    "midi": 51,
                    "time": 30.352281499999954,
                    "velocity": 0.33070866141732286,
                    "duration": 0.2215494999999983
                },
                {
                    "name": "G#2",
                    "midi": 44,
                    "time": 30.573830999999952,
                    "velocity": 0.3700787401574803,
                    "duration": 0.2215494999999983
                },
                {
                    "name": "D5",
                    "midi": 74,
                    "time": 31.68157849999995,
                    "velocity": 0.3228346456692913,
                    "duration": 0.2215494999999983
                },
                {
                    "name": "G#4",
                    "midi": 68,
                    "time": 31.68157849999995,
                    "velocity": 0.2677165354330709,
                    "duration": 0.2215494999999983
                },
                {
                    "name": "G4",
                    "midi": 67,
                    "time": 31.90312799999995,
                    "velocity": 0.2992125984251969,
                    "duration": 0.44309900000000013
                },
                {
                    "name": "D#5",
                    "midi": 75,
                    "time": 31.90312799999995,
                    "velocity": 0.3543307086614173,
                    "duration": 0.44032963124999824
                },
                {
                    "name": "B4",
                    "midi": 71,
                    "time": 33.45397449999995,
                    "velocity": 0.3228346456692913,
                    "duration": 0.22154950000000184
                },
                {
                    "name": "F4",
                    "midi": 65,
                    "time": 33.45397449999995,
                    "velocity": 0.2677165354330709,
                    "duration": 0.22154950000000184
                },
                {
                    "name": "D#4",
                    "midi": 63,
                    "time": 33.67552399999995,
                    "velocity": 0.2992125984251969,
                    "duration": 0.4430990000000037
                },
                {
                    "name": "C5",
                    "midi": 72,
                    "time": 33.67552399999995,
                    "velocity": 0.3543307086614173,
                    "duration": 0.4403296312500018
                },
                {
                    "name": "G4",
                    "midi": 67,
                    "time": 35.22637049999996,
                    "velocity": 0.3228346456692913,
                    "duration": 0.22154950000000184
                },
                {
                    "name": "C#4",
                    "midi": 61,
                    "time": 35.22637049999996,
                    "velocity": 0.2677165354330709,
                    "duration": 0.22154950000000184
                },
                {
                    "name": "C4",
                    "midi": 60,
                    "time": 35.44791999999996,
                    "velocity": 0.2992125984251969,
                    "duration": 0.4430990000000037
                },
                {
                    "name": "G#4",
                    "midi": 68,
                    "time": 35.44791999999996,
                    "velocity": 0.3543307086614173,
                    "duration": 0.4412527541666691
                },
                {
                    "name": "A#3",
                    "midi": 58,
                    "time": 36.33411799999996,
                    "velocity": 0.2992125984251969,
                    "duration": 0.4430989999999966
                },
                {
                    "name": "G#4",
                    "midi": 68,
                    "time": 36.33411799999996,
                    "velocity": 0.3543307086614173,
                    "duration": 0.4430989999999966
                },
                {
                    "name": "D#4",
                    "midi": 63,
                    "time": 37.220315999999954,
                    "velocity": 0.2992125984251969,
                    "duration": 0.4430989999999966
                },
                {
                    "name": "G4",
                    "midi": 67,
                    "time": 37.220315999999954,
                    "velocity": 0.3543307086614173,
                    "duration": 0.4430989999999966
                },
                {
                    "name": "A#3",
                    "midi": 58,
                    "time": 38.10651399999995,
                    "velocity": 0.2992125984251969,
                    "duration": 0.4430989999999966
                },
                {
                    "name": "G#4",
                    "midi": 68,
                    "time": 38.10651399999995,
                    "velocity": 0.3543307086614173,
                    "duration": 0.4430989999999966
                },
                {
                    "name": "D#2",
                    "midi": 39,
                    "time": 39.21426149999994,
                    "velocity": 0.2047244094488189,
                    "duration": 0.22154950000000184
                },
                {
                    "name": "C4",
                    "midi": 60,
                    "time": 40.98665749999994,
                    "velocity": 0.4015748031496063,
                    "duration": 0.22154950000000184
                },
                {
                    "name": "A#3",
                    "midi": 58,
                    "time": 41.208206999999945,
                    "velocity": 0.4015748031496063,
                    "duration": 0.22154950000000184
                },
                {
                    "name": "G#3",
                    "midi": 56,
                    "time": 41.42975649999995,
                    "velocity": 0.3779527559055118,
                    "duration": 0.22154950000000184
                },
                {
                    "name": "G3",
                    "midi": 55,
                    "time": 41.65130599999995,
                    "velocity": 0.41732283464566927,
                    "duration": 0.22154950000000184
                },
                {
                    "name": "D#3",
                    "midi": 51,
                    "time": 41.87285549999995,
                    "velocity": 0.3700787401574803,
                    "duration": 0.1661621249999996
                },
                {
                    "name": "G#3",
                    "midi": 56,
                    "time": 42.09440499999995,
                    "velocity": 0.3858267716535433,
                    "duration": 0.22154950000000184
                },
                {
                    "name": "D#3",
                    "midi": 51,
                    "time": 42.315954499999954,
                    "velocity": 0.3543307086614173,
                    "duration": 0.1661621249999996
                },
                {
                    "name": "A#3",
                    "midi": 58,
                    "time": 42.537503999999956,
                    "velocity": 0.3858267716535433,
                    "duration": 0.22154950000000184
                },
                {
                    "name": "D#3",
                    "midi": 51,
                    "time": 42.75905349999996,
                    "velocity": 0.3543307086614173,
                    "duration": 0.1661621249999996
                },
                {
                    "name": "G#3",
                    "midi": 56,
                    "time": 42.98060299999996,
                    "velocity": 0.3858267716535433,
                    "duration": 0.22154950000000184
                },
                {
                    "name": "C4",
                    "midi": 60,
                    "time": 44.53144949999996,
                    "velocity": 0.4015748031496063,
                    "duration": 0.22154950000000184
                },
                {
                    "name": "A#3",
                    "midi": 58,
                    "time": 44.75299899999996,
                    "velocity": 0.4015748031496063,
                    "duration": 0.22154950000000184
                },
                {
                    "name": "G#3",
                    "midi": 56,
                    "time": 44.97454849999996,
                    "velocity": 0.3779527559055118,
                    "duration": 0.22154950000000184
                },
                {
                    "name": "C#4",
                    "midi": 61,
                    "time": 45.196097999999964,
                    "velocity": 0.41732283464566927,
                    "duration": 0.22154950000000184
                },
                {
                    "name": "A#3",
                    "midi": 58,
                    "time": 45.417647499999966,
                    "velocity": 0.3700787401574803,
                    "duration": 0.1661621249999996
                },
                {
                    "name": "D#4",
                    "midi": 63,
                    "time": 45.63919699999997,
                    "velocity": 0.3858267716535433,
                    "duration": 0.22154950000000184
                },
                {
                    "name": "D#3",
                    "midi": 51,
                    "time": 45.86074649999997,
                    "velocity": 0.3543307086614173,
                    "duration": 0.1661621249999996
                },
                {
                    "name": "G#3",
                    "midi": 56,
                    "time": 46.08229599999997,
                    "velocity": 0.3937007874015748,
                    "duration": 0.22154950000000184
                },
                {
                    "name": "D#3",
                    "midi": 51,
                    "time": 46.30384549999997,
                    "velocity": 0.33070866141732286,
                    "duration": 0.22154950000000184
                },
                {
                    "name": "G#2",
                    "midi": 44,
                    "time": 46.525394999999975,
                    "velocity": 0.3700787401574803,
                    "duration": 0.22154950000000184
                },
                {
                    "name": "C4",
                    "midi": 60,
                    "time": 48.07624149999997,
                    "velocity": 0.4015748031496063,
                    "duration": 0.22154950000000184
                },
                {
                    "name": "A#3",
                    "midi": 58,
                    "time": 48.297790999999975,
                    "velocity": 0.4015748031496063,
                    "duration": 0.22154950000000184
                },
                {
                    "name": "G#3",
                    "midi": 56,
                    "time": 48.51934049999998,
                    "velocity": 0.3779527559055118,
                    "duration": 0.22154950000000184
                },
                {
                    "name": "G3",
                    "midi": 55,
                    "time": 48.74088999999998,
                    "velocity": 0.3543307086614173,
                    "duration": 0.4430989999999966
                },
                {
                    "name": "D#3",
                    "midi": 51,
                    "time": 49.40553849999998,
                    "velocity": 0.3779527559055118,
                    "duration": 0.22154950000000184
                },
                {
                    "name": "F3",
                    "midi": 53,
                    "time": 49.62708799999998,
                    "velocity": 0.3543307086614173,
                    "duration": 0.22154950000000184
                },
                {
                    "name": "G#3",
                    "midi": 56,
                    "time": 49.84863749999998,
                    "velocity": 0.4015748031496063,
                    "duration": 0.22154950000000184
                },
                {
                    "name": "D4",
                    "midi": 62,
                    "time": 50.07018699999998,
                    "velocity": 0.3779527559055118,
                    "duration": 0.22154950000000184
                },
                {
                    "name": "D3",
                    "midi": 50,
                    "time": 50.291736499999985,
                    "velocity": 0.3779527559055118,
                    "duration": 0.22154950000000184
                },
                {
                    "name": "D#3",
                    "midi": 51,
                    "time": 50.51328599999999,
                    "velocity": 0.3543307086614173,
                    "duration": 0.22154950000000184
                },
                {
                    "name": "G2",
                    "midi": 43,
                    "time": 50.73483549999999,
                    "velocity": 0.4015748031496063,
                    "duration": 0.22154950000000184
                },
                {
                    "name": "G#2",
                    "midi": 44,
                    "time": 50.95638499999999,
                    "velocity": 0.4015748031496063,
                    "duration": 0.22154950000000184
                },
                {
                    "name": "A2",
                    "midi": 45,
                    "time": 51.17793449999999,
                    "velocity": 0.3779527559055118,
                    "duration": 0.22154950000000184
                },
                {
                    "name": "A#2",
                    "midi": 46,
                    "time": 51.399483999999994,
                    "velocity": 0.3543307086614173,
                    "duration": 0.4430989999999966
                },
                {
                    "name": "G4",
                    "midi": 67,
                    "time": 52.06413249999999,
                    "velocity": 0.3779527559055118,
                    "duration": 0.22154950000000184
                },
                {
                    "name": "F4",
                    "midi": 65,
                    "time": 52.285681999999994,
                    "velocity": 0.3543307086614173,
                    "duration": 0.22154950000000184
                },
                {
                    "name": "D#4",
                    "midi": 63,
                    "time": 52.507231499999996,
                    "velocity": 0.4015748031496063,
                    "duration": 0.22154950000000184
                },
                {
                    "name": "D4",
                    "midi": 62,
                    "time": 52.728781,
                    "velocity": 0.4015748031496063,
                    "duration": 0.22154950000000184
                },
                {
                    "name": "G#3",
                    "midi": 56,
                    "time": 52.9503305,
                    "velocity": 0.4409448818897638,
                    "duration": 0.11077474999999737
                },
                {
                    "name": "A#3",
                    "midi": 58,
                    "time": 53.06110525,
                    "velocity": 0.3779527559055118,
                    "duration": 0.11077474999999737
                },
                {
                    "name": "G3",
                    "midi": 55,
                    "time": 53.171879999999994,
                    "velocity": 0.47244094488188976,
                    "duration": 0.11077474999999737
                },
                {
                    "name": "A#3",
                    "midi": 58,
                    "time": 53.28265474999999,
                    "velocity": 0.3779527559055118,
                    "duration": 0.11077474999999737
                },
                {
                    "name": "F3",
                    "midi": 53,
                    "time": 53.39342949999999,
                    "velocity": 0.4566929133858268,
                    "duration": 0.11077474999999737
                },
                {
                    "name": "A#3",
                    "midi": 58,
                    "time": 53.50420424999999,
                    "velocity": 0.41732283464566927,
                    "duration": 0.11077474999999737
                },
                {
                    "name": "D#3",
                    "midi": 51,
                    "time": 53.614978999999984,
                    "velocity": 0.4645669291338583,
                    "duration": 0.22154950000000184
                },
                {
                    "name": "G4",
                    "midi": 67,
                    "time": 53.836528499999986,
                    "velocity": 0.4330708661417323,
                    "duration": 0.22154950000000184
                },
                {
                    "name": "F4",
                    "midi": 65,
                    "time": 54.05807799999999,
                    "velocity": 0.3543307086614173,
                    "duration": 0.22154950000000184
                },
                {
                    "name": "D#4",
                    "midi": 63,
                    "time": 54.27962749999999,
                    "velocity": 0.4015748031496063,
                    "duration": 0.22154950000000184
                },
                {
                    "name": "D4",
                    "midi": 62,
                    "time": 54.50117699999999,
                    "velocity": 0.4015748031496063,
                    "duration": 0.22154950000000184
                },
                {
                    "name": "G#3",
                    "midi": 56,
                    "time": 54.72272649999999,
                    "velocity": 0.4409448818897638,
                    "duration": 0.11077474999999737
                },
                {
                    "name": "A#3",
                    "midi": 58,
                    "time": 54.83350124999999,
                    "velocity": 0.3779527559055118,
                    "duration": 0.11077474999999737
                },
                {
                    "name": "G3",
                    "midi": 55,
                    "time": 54.94427599999999,
                    "velocity": 0.47244094488188976,
                    "duration": 0.11077474999999737
                },
                {
                    "name": "A#3",
                    "midi": 58,
                    "time": 55.055050749999985,
                    "velocity": 0.3779527559055118,
                    "duration": 0.11077474999999737
                },
                {
                    "name": "F3",
                    "midi": 53,
                    "time": 55.16582549999998,
                    "velocity": 0.4566929133858268,
                    "duration": 0.11077474999999737
                },
                {
                    "name": "A#3",
                    "midi": 58,
                    "time": 55.27660024999998,
                    "velocity": 0.41732283464566927,
                    "duration": 0.11077474999999737
                },
                {
                    "name": "D#3",
                    "midi": 51,
                    "time": 55.38737499999998,
                    "velocity": 0.4645669291338583,
                    "duration": 0.22154950000000184
                },
                {
                    "name": "D#4",
                    "midi": 63,
                    "time": 55.60892449999998,
                    "velocity": 0.4015748031496063,
                    "duration": 0.11077474999999737
                },
                {
                    "name": "F4",
                    "midi": 65,
                    "time": 55.71969924999998,
                    "velocity": 0.3858267716535433,
                    "duration": 0.11077474999999737
                },
                {
                    "name": "G4",
                    "midi": 67,
                    "time": 55.830473999999974,
                    "velocity": 0.4251968503937008,
                    "duration": 0.11077474999999737
                },
                {
                    "name": "D#4",
                    "midi": 63,
                    "time": 56.05202349999997,
                    "velocity": 0.3779527559055118,
                    "duration": 0.11077474999999737
                },
                {
                    "name": "F4",
                    "midi": 65,
                    "time": 56.162798249999966,
                    "velocity": 0.36220472440944884,
                    "duration": 0.11077474999999737
                },
                {
                    "name": "G4",
                    "midi": 67,
                    "time": 56.27357299999996,
                    "velocity": 0.4251968503937008,
                    "duration": 0.11077474999999737
                },
                {
                    "name": "D#4",
                    "midi": 63,
                    "time": 56.49512249999996,
                    "velocity": 0.3858267716535433,
                    "duration": 0.11077474999999737
                },
                {
                    "name": "F4",
                    "midi": 65,
                    "time": 56.605897249999956,
                    "velocity": 0.36220472440944884,
                    "duration": 0.11077474999999737
                },
                {
                    "name": "G4",
                    "midi": 67,
                    "time": 56.71667199999995,
                    "velocity": 0.4094488188976378,
                    "duration": 0.4430989999999966
                },
                {
                    "name": "G4",
                    "midi": 67,
                    "time": 57.38132049999995,
                    "velocity": 0.31496062992125984,
                    "duration": 0.11077474999999737
                },
                {
                    "name": "G#4",
                    "midi": 68,
                    "time": 57.49209524999995,
                    "velocity": 0.30708661417322836,
                    "duration": 0.11077474999999737
                },
                {
                    "name": "A#4",
                    "midi": 70,
                    "time": 57.602869999999946,
                    "velocity": 0.33858267716535434,
                    "duration": 0.11077474999999737
                },
                {
                    "name": "G4",
                    "midi": 67,
                    "time": 57.82441949999994,
                    "velocity": 0.2992125984251969,
                    "duration": 0.11077474999999737
                },
                {
                    "name": "G#4",
                    "midi": 68,
                    "time": 57.93519424999994,
                    "velocity": 0.28346456692913385,
                    "duration": 0.11077474999999737
                },
                {
                    "name": "A#4",
                    "midi": 70,
                    "time": 58.045968999999936,
                    "velocity": 0.33858267716535434,
                    "duration": 0.11077474999999737
                },
                {
                    "name": "G4",
                    "midi": 67,
                    "time": 58.26751849999993,
                    "velocity": 0.30708661417322836,
                    "duration": 0.11077474999999737
                },
                {
                    "name": "G#4",
                    "midi": 68,
                    "time": 58.37829324999993,
                    "velocity": 0.28346456692913385,
                    "duration": 0.11077474999999737
                },
                {
                    "name": "A#4",
                    "midi": 70,
                    "time": 58.489067999999925,
                    "velocity": 0.3228346456692913,
                    "duration": 0.4430989999999966
                },
                {
                    "name": "D#4",
                    "midi": 63,
                    "time": 59.15371649999992,
                    "velocity": 0.4015748031496063,
                    "duration": 0.11077474999999737
                },
                {
                    "name": "F4",
                    "midi": 65,
                    "time": 59.26449124999992,
                    "velocity": 0.3858267716535433,
                    "duration": 0.11077474999999737
                },
                {
                    "name": "G4",
                    "midi": 67,
                    "time": 59.37526599999992,
                    "velocity": 0.4251968503937008,
                    "duration": 0.11077474999999737
                },
                {
                    "name": "D#4",
                    "midi": 63,
                    "time": 59.59681549999991,
                    "velocity": 0.3779527559055118,
                    "duration": 0.11077474999999737
                },
                {
                    "name": "F4",
                    "midi": 65,
                    "time": 59.70759024999991,
                    "velocity": 0.36220472440944884,
                    "duration": 0.11077474999999737
                },
                {
                    "name": "G4",
                    "midi": 67,
                    "time": 59.81836499999991,
                    "velocity": 0.4251968503937008,
                    "duration": 0.11077474999999737
                },
                {
                    "name": "D#4",
                    "midi": 63,
                    "time": 60.0399144999999,
                    "velocity": 0.3858267716535433,
                    "duration": 0.11077474999999737
                },
                {
                    "name": "F4",
                    "midi": 65,
                    "time": 60.1506892499999,
                    "velocity": 0.36220472440944884,
                    "duration": 0.11077474999999737
                },
                {
                    "name": "G4",
                    "midi": 67,
                    "time": 60.2614639999999,
                    "velocity": 0.4094488188976378,
                    "duration": 0.4430989999999966
                },
                {
                    "name": "G3",
                    "midi": 55,
                    "time": 60.926112499999896,
                    "velocity": 0.3858267716535433,
                    "duration": 0.22154950000000184
                },
                {
                    "name": "G#3",
                    "midi": 56,
                    "time": 61.1476619999999,
                    "velocity": 0.4094488188976378,
                    "duration": 0.4430989999999966
                },
                {
                    "name": "A#3",
                    "midi": 58,
                    "time": 61.812310499999896,
                    "velocity": 0.3858267716535433,
                    "duration": 0.22154950000000184
                },
                {
                    "name": "C4",
                    "midi": 60,
                    "time": 62.0338599999999,
                    "velocity": 0.4094488188976378,
                    "duration": 0.4430989999999966
                },
                {
                    "name": "G3",
                    "midi": 55,
                    "time": 62.698508499999896,
                    "velocity": 0.3858267716535433,
                    "duration": 0.22154950000000184
                },
                {
                    "name": "G#3",
                    "midi": 56,
                    "time": 62.9200579999999,
                    "velocity": 0.4094488188976378,
                    "duration": 0.4430989999999966
                },
                {
                    "name": "A#3",
                    "midi": 58,
                    "time": 63.584706499999896,
                    "velocity": 0.29133858267716534,
                    "duration": 0.22154950000000184
                },
                {
                    "name": "D#4",
                    "midi": 63,
                    "time": 63.8062559999999,
                    "velocity": 0.3464566929133858,
                    "duration": 0.22154950000000184
                },
                {
                    "name": "G4",
                    "midi": 67,
                    "time": 64.0278054999999,
                    "velocity": 0.30708661417322836,
                    "duration": 0.22154949999999474
                },
                {
                    "name": "A#4",
                    "midi": 70,
                    "time": 64.2493549999999,
                    "velocity": 0.33858267716535434,
                    "duration": 0.22154949999999474
                },
                {
                    "name": "G4",
                    "midi": 67,
                    "time": 64.47090449999989,
                    "velocity": 0.2992125984251969,
                    "duration": 0.22154949999999474
                },
                {
                    "name": "D#4",
                    "midi": 63,
                    "time": 64.69245399999988,
                    "velocity": 0.3464566929133858,
                    "duration": 2.6585939999999653
                },
                {
                    "name": "F4",
                    "midi": 65,
                    "time": 65.57865199999988,
                    "velocity": 0.3464566929133858,
                    "duration": 0.22154949999999474
                },
                {
                    "name": "G#4",
                    "midi": 68,
                    "time": 65.80020149999987,
                    "velocity": 0.30708661417322836,
                    "duration": 0.22154949999999474
                },
                {
                    "name": "A#4",
                    "midi": 70,
                    "time": 66.02175099999987,
                    "velocity": 0.33858267716535434,
                    "duration": 0.22154949999999474
                },
                {
                    "name": "G#4",
                    "midi": 68,
                    "time": 66.24330049999986,
                    "velocity": 0.2992125984251969,
                    "duration": 0.22154949999999474
                },
                {
                    "name": "F4",
                    "midi": 65,
                    "time": 66.46484999999986,
                    "velocity": 0.3464566929133858,
                    "duration": 0.8861979999999932
                },
                {
                    "name": "D#4",
                    "midi": 63,
                    "time": 67.35104799999985,
                    "velocity": 0.3464566929133858,
                    "duration": 0.22154949999999474
                },
                {
                    "name": "G4",
                    "midi": 67,
                    "time": 67.57259749999984,
                    "velocity": 0.30708661417322836,
                    "duration": 0.22154949999999474
                },
                {
                    "name": "A#4",
                    "midi": 70,
                    "time": 67.79414699999984,
                    "velocity": 0.33858267716535434,
                    "duration": 0.22154949999999474
                },
                {
                    "name": "G4",
                    "midi": 67,
                    "time": 68.01569649999983,
                    "velocity": 0.2992125984251969,
                    "duration": 0.22154949999999474
                },
                {
                    "name": "D#4",
                    "midi": 63,
                    "time": 68.23724599999983,
                    "velocity": 0.3464566929133858,
                    "duration": 2.6585939999999653
                },
                {
                    "name": "F4",
                    "midi": 65,
                    "time": 69.12344399999982,
                    "velocity": 0.3464566929133858,
                    "duration": 0.22154949999999474
                },
                {
                    "name": "G#4",
                    "midi": 68,
                    "time": 69.34499349999982,
                    "velocity": 0.30708661417322836,
                    "duration": 0.22154949999999474
                },
                {
                    "name": "A#4",
                    "midi": 70,
                    "time": 69.56654299999981,
                    "velocity": 0.33858267716535434,
                    "duration": 0.22154949999999474
                },
                {
                    "name": "G#4",
                    "midi": 68,
                    "time": 69.7880924999998,
                    "velocity": 0.2992125984251969,
                    "duration": 0.22154949999999474
                },
                {
                    "name": "F4",
                    "midi": 65,
                    "time": 70.0096419999998,
                    "velocity": 0.41732283464566927,
                    "duration": 0.8861979999999932
                },
                {
                    "name": "D#4",
                    "midi": 63,
                    "time": 70.8958399999998,
                    "velocity": 0.4251968503937008,
                    "duration": 0.8815823854166638
                },
                {
                    "name": "G4",
                    "midi": 67,
                    "time": 71.11738949999979,
                    "velocity": 0.36220472440944884,
                    "duration": 0.4338677708333307
                },
                {
                    "name": "A#4",
                    "midi": 70,
                    "time": 71.33893899999978,
                    "velocity": 0.4330708661417323,
                    "duration": 1.7723960000000005
                },
                {
                    "name": "G4",
                    "midi": 67,
                    "time": 71.56048849999979,
                    "velocity": 0.4015748031496063,
                    "duration": 1.5508464999999916
                },
                {
                    "name": "D#4",
                    "midi": 63,
                    "time": 71.78203799999979,
                    "velocity": 0.47244094488188976,
                    "duration": 1.3292969999999968
                },
                {
                    "name": "C4",
                    "midi": 60,
                    "time": 74.66218149999979,
                    "velocity": 0.4015748031496063,
                    "duration": 0.22154949999999474
                },
                {
                    "name": "A#3",
                    "midi": 58,
                    "time": 74.88373099999978,
                    "velocity": 0.4015748031496063,
                    "duration": 0.22154949999999474
                },
                {
                    "name": "G#3",
                    "midi": 56,
                    "time": 75.10528049999978,
                    "velocity": 0.3779527559055118,
                    "duration": 0.22154949999999474
                },
                {
                    "name": "G3",
                    "midi": 55,
                    "time": 75.32682999999977,
                    "velocity": 0.41732283464566927,
                    "duration": 0.22154949999999474
                },
                {
                    "name": "D#3",
                    "midi": 51,
                    "time": 75.54837949999977,
                    "velocity": 0.3700787401574803,
                    "duration": 0.1661621249999996
                },
                {
                    "name": "G#3",
                    "midi": 56,
                    "time": 75.76992899999976,
                    "velocity": 0.3858267716535433,
                    "duration": 0.22154949999999474
                },
                {
                    "name": "D#3",
                    "midi": 51,
                    "time": 75.99147849999976,
                    "velocity": 0.3543307086614173,
                    "duration": 0.1661621249999996
                },
                {
                    "name": "A#3",
                    "midi": 58,
                    "time": 76.21302799999975,
                    "velocity": 0.3858267716535433,
                    "duration": 0.22154949999999474
                },
                {
                    "name": "D#3",
                    "midi": 51,
                    "time": 76.43457749999975,
                    "velocity": 0.3543307086614173,
                    "duration": 0.1661621249999996
                },
                {
                    "name": "G#3",
                    "midi": 56,
                    "time": 76.65612699999974,
                    "velocity": 0.3858267716535433,
                    "duration": 0.22154949999999474
                },
                {
                    "name": "C4",
                    "midi": 60,
                    "time": 78.20697349999973,
                    "velocity": 0.4015748031496063,
                    "duration": 0.22154949999999474
                },
                {
                    "name": "A#3",
                    "midi": 58,
                    "time": 78.42852299999973,
                    "velocity": 0.4015748031496063,
                    "duration": 0.22154949999999474
                },
                {
                    "name": "G#3",
                    "midi": 56,
                    "time": 78.65007249999972,
                    "velocity": 0.3779527559055118,
                    "duration": 0.22154949999999474
                },
                {
                    "name": "C#4",
                    "midi": 61,
                    "time": 78.87162199999972,
                    "velocity": 0.41732283464566927,
                    "duration": 0.22154949999999474
                },
                {
                    "name": "A#3",
                    "midi": 58,
                    "time": 79.09317149999971,
                    "velocity": 0.3700787401574803,
                    "duration": 0.1661621249999996
                },
                {
                    "name": "D#4",
                    "midi": 63,
                    "time": 79.31472099999971,
                    "velocity": 0.3858267716535433,
                    "duration": 0.22154949999999474
                },
                {
                    "name": "D#3",
                    "midi": 51,
                    "time": 79.5362704999997,
                    "velocity": 0.3543307086614173,
                    "duration": 0.1661621249999996
                },
                {
                    "name": "G#3",
                    "midi": 56,
                    "time": 79.7578199999997,
                    "velocity": 0.3937007874015748,
                    "duration": 0.22154949999999474
                },
                {
                    "name": "D#3",
                    "midi": 51,
                    "time": 79.97936949999969,
                    "velocity": 0.33070866141732286,
                    "duration": 0.22154949999999474
                },
                {
                    "name": "G#2",
                    "midi": 44,
                    "time": 80.20091899999969,
                    "velocity": 0.3700787401574803,
                    "duration": 0.22154949999999474
                },
                {
                    "name": "C4",
                    "midi": 60,
                    "time": 81.75176549999968,
                    "velocity": 0.4015748031496063,
                    "duration": 0.22154949999999474
                },
                {
                    "name": "A#3",
                    "midi": 58,
                    "time": 81.97331499999967,
                    "velocity": 0.4015748031496063,
                    "duration": 0.22154949999999474
                },
                {
                    "name": "G#3",
                    "midi": 56,
                    "time": 82.19486449999967,
                    "velocity": 0.3779527559055118,
                    "duration": 0.22154949999999474
                },
                {
                    "name": "G3",
                    "midi": 55,
                    "time": 82.41641399999966,
                    "velocity": 0.41732283464566927,
                    "duration": 0.22154949999999474
                },
                {
                    "name": "D#3",
                    "midi": 51,
                    "time": 82.63796349999966,
                    "velocity": 0.3700787401574803,
                    "duration": 0.1661621249999996
                },
                {
                    "name": "G#3",
                    "midi": 56,
                    "time": 82.85951299999965,
                    "velocity": 0.3858267716535433,
                    "duration": 0.22154949999999474
                },
                {
                    "name": "D#3",
                    "midi": 51,
                    "time": 83.08106249999965,
                    "velocity": 0.3543307086614173,
                    "duration": 0.1661621249999996
                },
                {
                    "name": "A#3",
                    "midi": 58,
                    "time": 83.30261199999964,
                    "velocity": 0.3858267716535433,
                    "duration": 0.22154949999999474
                },
                {
                    "name": "D#3",
                    "midi": 51,
                    "time": 83.52416149999964,
                    "velocity": 0.3543307086614173,
                    "duration": 0.1661621249999996
                },
                {
                    "name": "G#3",
                    "midi": 56,
                    "time": 83.74571099999963,
                    "velocity": 0.3858267716535433,
                    "duration": 0.22154949999999474
                },
                {
                    "name": "C4",
                    "midi": 60,
                    "time": 85.29655749999962,
                    "velocity": 0.4015748031496063,
                    "duration": 0.22154949999999474
                },
                {
                    "name": "A#3",
                    "midi": 58,
                    "time": 85.51810699999962,
                    "velocity": 0.4015748031496063,
                    "duration": 0.22154949999999474
                },
                {
                    "name": "G#3",
                    "midi": 56,
                    "time": 85.73965649999961,
                    "velocity": 0.3779527559055118,
                    "duration": 0.22154949999999474
                },
                {
                    "name": "C#4",
                    "midi": 61,
                    "time": 85.9612059999996,
                    "velocity": 0.41732283464566927,
                    "duration": 0.22154949999999474
                },
                {
                    "name": "A#3",
                    "midi": 58,
                    "time": 86.1827554999996,
                    "velocity": 0.3700787401574803,
                    "duration": 0.1661621249999996
                },
                {
                    "name": "D#4",
                    "midi": 63,
                    "time": 86.4043049999996,
                    "velocity": 0.3858267716535433,
                    "duration": 0.22154949999999474
                },
                {
                    "name": "D#3",
                    "midi": 51,
                    "time": 86.62585449999959,
                    "velocity": 0.3543307086614173,
                    "duration": 0.1661621249999996
                },
                {
                    "name": "G#3",
                    "midi": 56,
                    "time": 86.84740399999959,
                    "velocity": 0.3937007874015748,
                    "duration": 0.22154949999999474
                },
                {
                    "name": "D#3",
                    "midi": 51,
                    "time": 87.06895349999958,
                    "velocity": 0.33070866141732286,
                    "duration": 0.22154949999999474
                },
                {
                    "name": "G#2",
                    "midi": 44,
                    "time": 87.29050299999957,
                    "velocity": 0.3700787401574803,
                    "duration": 0.22154949999999474
                },
                {
                    "name": "G#4",
                    "midi": 68,
                    "time": 88.39825049999956,
                    "velocity": 0.2677165354330709,
                    "duration": 0.22154949999999474
                },
                {
                    "name": "D5",
                    "midi": 74,
                    "time": 88.39825049999956,
                    "velocity": 0.3228346456692913,
                    "duration": 0.22154949999999474
                },
                {
                    "name": "D#5",
                    "midi": 75,
                    "time": 88.61979999999956,
                    "velocity": 0.3543307086614173,
                    "duration": 0.22062637708333455
                },
                {
                    "name": "G4",
                    "midi": 67,
                    "time": 88.61979999999956,
                    "velocity": 0.2992125984251969,
                    "duration": 0.22154949999999474
                },
                {
                    "name": "F4",
                    "midi": 65,
                    "time": 90.17064649999955,
                    "velocity": 0.2677165354330709,
                    "duration": 0.22154949999999474
                },
                {
                    "name": "B4",
                    "midi": 71,
                    "time": 90.17064649999955,
                    "velocity": 0.3228346456692913,
                    "duration": 0.22154949999999474
                },
                {
                    "name": "D#4",
                    "midi": 63,
                    "time": 90.39219599999954,
                    "velocity": 0.2992125984251969,
                    "duration": 0.22154949999999474
                },
                {
                    "name": "C5",
                    "midi": 72,
                    "time": 90.39219599999954,
                    "velocity": 0.3543307086614173,
                    "duration": 0.22062637708333455
                },
                {
                    "name": "G4",
                    "midi": 67,
                    "time": 91.94304249999954,
                    "velocity": 0.3228346456692913,
                    "duration": 0.22154949999999474
                },
                {
                    "name": "C#4",
                    "midi": 61,
                    "time": 91.94304249999954,
                    "velocity": 0.2677165354330709,
                    "duration": 0.22154949999999474
                },
                {
                    "name": "C4",
                    "midi": 60,
                    "time": 92.16459199999953,
                    "velocity": 0.2992125984251969,
                    "duration": 0.22154949999999474
                },
                {
                    "name": "G#4",
                    "midi": 68,
                    "time": 92.16459199999953,
                    "velocity": 0.3543307086614173,
                    "duration": 0.22154949999999474
                },
                {
                    "name": "A#3",
                    "midi": 58,
                    "time": 93.05078999999952,
                    "velocity": 0.2992125984251969,
                    "duration": 0.4430990000000037
                },
                {
                    "name": "G#4",
                    "midi": 68,
                    "time": 93.05078999999952,
                    "velocity": 0.3543307086614173,
                    "duration": 0.4430990000000037
                },
                {
                    "name": "G4",
                    "midi": 67,
                    "time": 93.93698799999953,
                    "velocity": 0.3543307086614173,
                    "duration": 0.4430990000000037
                },
                {
                    "name": "D#4",
                    "midi": 63,
                    "time": 93.93698799999953,
                    "velocity": 0.2992125984251969,
                    "duration": 0.4430990000000037
                },
                {
                    "name": "A#3",
                    "midi": 58,
                    "time": 94.82318599999954,
                    "velocity": 0.2992125984251969,
                    "duration": 0.4430990000000037
                },
                {
                    "name": "G#4",
                    "midi": 68,
                    "time": 94.82318599999954,
                    "velocity": 0.3543307086614173,
                    "duration": 0.4430990000000037
                },
                {
                    "name": "D#2",
                    "midi": 39,
                    "time": 95.93093349999954,
                    "velocity": 0.2047244094488189,
                    "duration": 0.22154949999999474
                },
                {
                    "name": "C4",
                    "midi": 60,
                    "time": 97.70332949999954,
                    "velocity": 0.4015748031496063,
                    "duration": 0.22154949999999474
                },
                {
                    "name": "A#3",
                    "midi": 58,
                    "time": 97.92487899999954,
                    "velocity": 0.4015748031496063,
                    "duration": 0.22154949999999474
                },
                {
                    "name": "G#3",
                    "midi": 56,
                    "time": 98.14642849999953,
                    "velocity": 0.3779527559055118,
                    "duration": 0.22154949999999474
                },
                {
                    "name": "G3",
                    "midi": 55,
                    "time": 98.36797799999952,
                    "velocity": 0.41732283464566927,
                    "duration": 0.22154949999999474
                },
                {
                    "name": "D#3",
                    "midi": 51,
                    "time": 98.58952749999952,
                    "velocity": 0.3700787401574803,
                    "duration": 0.1661621249999996
                },
                {
                    "name": "G#3",
                    "midi": 56,
                    "time": 98.81107699999951,
                    "velocity": 0.3858267716535433,
                    "duration": 0.22154949999999474
                },
                {
                    "name": "D#3",
                    "midi": 51,
                    "time": 99.03262649999951,
                    "velocity": 0.3543307086614173,
                    "duration": 0.1661621249999996
                },
                {
                    "name": "A#3",
                    "midi": 58,
                    "time": 99.2541759999995,
                    "velocity": 0.3858267716535433,
                    "duration": 0.22154949999999474
                },
                {
                    "name": "D#3",
                    "midi": 51,
                    "time": 99.4757254999995,
                    "velocity": 0.3543307086614173,
                    "duration": 0.1661621249999996
                },
                {
                    "name": "G#3",
                    "midi": 56,
                    "time": 99.6972749999995,
                    "velocity": 0.3858267716535433,
                    "duration": 0.22154949999999474
                },
                {
                    "name": "C4",
                    "midi": 60,
                    "time": 101.24812149999948,
                    "velocity": 0.4015748031496063,
                    "duration": 0.22154949999999474
                },
                {
                    "name": "A#3",
                    "midi": 58,
                    "time": 101.46967099999948,
                    "velocity": 0.4015748031496063,
                    "duration": 0.22154949999999474
                },
                {
                    "name": "G#3",
                    "midi": 56,
                    "time": 101.69122049999947,
                    "velocity": 0.3779527559055118,
                    "duration": 0.22154949999999474
                },
                {
                    "name": "C#4",
                    "midi": 61,
                    "time": 101.91276999999947,
                    "velocity": 0.41732283464566927,
                    "duration": 0.22154949999999474
                },
                {
                    "name": "A#3",
                    "midi": 58,
                    "time": 102.13431949999946,
                    "velocity": 0.3700787401574803,
                    "duration": 0.1661621249999996
                },
                {
                    "name": "D#4",
                    "midi": 63,
                    "time": 102.35586899999946,
                    "velocity": 0.3858267716535433,
                    "duration": 0.22154949999999474
                },
                {
                    "name": "D#3",
                    "midi": 51,
                    "time": 102.57741849999945,
                    "velocity": 0.3543307086614173,
                    "duration": 0.1661621249999996
                },
                {
                    "name": "G#3",
                    "midi": 56,
                    "time": 102.79896799999945,
                    "velocity": 0.3937007874015748,
                    "duration": 0.22154949999999474
                },
                {
                    "name": "D#3",
                    "midi": 51,
                    "time": 103.02051749999944,
                    "velocity": 0.33070866141732286,
                    "duration": 0.22154949999999474
                },
                {
                    "name": "G#2",
                    "midi": 44,
                    "time": 103.24206699999944,
                    "velocity": 0.3700787401574803,
                    "duration": 0.22154949999999474
                },
                {
                    "name": "D5",
                    "midi": 74,
                    "time": 104.34981449999943,
                    "velocity": 0.3228346456692913,
                    "duration": 0.22154949999999474
                },
                {
                    "name": "G#4",
                    "midi": 68,
                    "time": 104.34981449999943,
                    "velocity": 0.2677165354330709,
                    "duration": 0.22154949999999474
                },
                {
                    "name": "G4",
                    "midi": 67,
                    "time": 104.57136399999942,
                    "velocity": 0.2992125984251969,
                    "duration": 0.22154949999999474
                },
                {
                    "name": "D#5",
                    "midi": 75,
                    "time": 104.57136399999942,
                    "velocity": 0.3543307086614173,
                    "duration": 0.22062637708333455
                },
                {
                    "name": "B4",
                    "midi": 71,
                    "time": 106.12221049999941,
                    "velocity": 0.3228346456692913,
                    "duration": 0.22154949999999474
                },
                {
                    "name": "F4",
                    "midi": 65,
                    "time": 106.12221049999941,
                    "velocity": 0.2677165354330709,
                    "duration": 0.22154949999999474
                },
                {
                    "name": "D#4",
                    "midi": 63,
                    "time": 106.3437599999994,
                    "velocity": 0.2992125984251969,
                    "duration": 0.22154949999999474
                },
                {
                    "name": "C5",
                    "midi": 72,
                    "time": 106.3437599999994,
                    "velocity": 0.3543307086614173,
                    "duration": 0.22062637708333455
                },
                {
                    "name": "G4",
                    "midi": 67,
                    "time": 107.8946064999994,
                    "velocity": 0.3228346456692913,
                    "duration": 0.22154949999999474
                },
                {
                    "name": "C#4",
                    "midi": 61,
                    "time": 107.8946064999994,
                    "velocity": 0.2677165354330709,
                    "duration": 0.22154949999999474
                },
                {
                    "name": "C4",
                    "midi": 60,
                    "time": 108.11615599999939,
                    "velocity": 0.2992125984251969,
                    "duration": 0.22154949999999474
                },
                {
                    "name": "G#4",
                    "midi": 68,
                    "time": 108.11615599999939,
                    "velocity": 0.3543307086614173,
                    "duration": 0.22062637708333455
                },
                {
                    "name": "A#3",
                    "midi": 58,
                    "time": 109.00235399999939,
                    "velocity": 0.2992125984251969,
                    "duration": 0.4430990000000037
                },
                {
                    "name": "G#4",
                    "midi": 68,
                    "time": 109.00235399999939,
                    "velocity": 0.3543307086614173,
                    "duration": 0.4430990000000037
                },
                {
                    "name": "D#4",
                    "midi": 63,
                    "time": 109.8885519999994,
                    "velocity": 0.2992125984251969,
                    "duration": 0.4430990000000037
                },
                {
                    "name": "G4",
                    "midi": 67,
                    "time": 109.8885519999994,
                    "velocity": 0.3543307086614173,
                    "duration": 0.4430990000000037
                },
                {
                    "name": "A#3",
                    "midi": 58,
                    "time": 110.7747499999994,
                    "velocity": 0.2992125984251969,
                    "duration": 0.4430990000000037
                },
                {
                    "name": "G#4",
                    "midi": 68,
                    "time": 110.7747499999994,
                    "velocity": 0.3543307086614173,
                    "duration": 0.4430990000000037
                },
                {
                    "name": "D#2",
                    "midi": 39,
                    "time": 111.8824974999994,
                    "velocity": 0.2047244094488189,
                    "duration": 0.22154949999999474
                },
                {
                    "name": "C4",
                    "midi": 60,
                    "time": 113.6548934999994,
                    "velocity": 0.4015748031496063,
                    "duration": 0.22154949999999474
                },
                {
                    "name": "A#3",
                    "midi": 58,
                    "time": 113.8764429999994,
                    "velocity": 0.4015748031496063,
                    "duration": 0.22154949999999474
                },
                {
                    "name": "G#3",
                    "midi": 56,
                    "time": 114.09799249999939,
                    "velocity": 0.3779527559055118,
                    "duration": 0.22154949999999474
                },
                {
                    "name": "G3",
                    "midi": 55,
                    "time": 114.31954199999939,
                    "velocity": 0.41732283464566927,
                    "duration": 0.22154949999999474
                },
                {
                    "name": "D#3",
                    "midi": 51,
                    "time": 114.54109149999938,
                    "velocity": 0.3700787401574803,
                    "duration": 0.1661621249999996
                },
                {
                    "name": "G#3",
                    "midi": 56,
                    "time": 114.76264099999938,
                    "velocity": 0.3858267716535433,
                    "duration": 0.22154949999999474
                },
                {
                    "name": "D#3",
                    "midi": 51,
                    "time": 114.98419049999937,
                    "velocity": 0.3543307086614173,
                    "duration": 0.1661621249999996
                },
                {
                    "name": "A#3",
                    "midi": 58,
                    "time": 115.20573999999937,
                    "velocity": 0.3858267716535433,
                    "duration": 0.22154949999999474
                },
                {
                    "name": "D#3",
                    "midi": 51,
                    "time": 115.42728949999936,
                    "velocity": 0.3543307086614173,
                    "duration": 0.1661621249999996
                },
                {
                    "name": "G#3",
                    "midi": 56,
                    "time": 115.64883899999936,
                    "velocity": 0.3858267716535433,
                    "duration": 0.22154949999999474
                },
                {
                    "name": "C4",
                    "midi": 60,
                    "time": 117.19968549999935,
                    "velocity": 0.4015748031496063,
                    "duration": 0.22154949999999474
                },
                {
                    "name": "A#3",
                    "midi": 58,
                    "time": 117.42123499999934,
                    "velocity": 0.4015748031496063,
                    "duration": 0.22154949999999474
                },
                {
                    "name": "G#3",
                    "midi": 56,
                    "time": 117.64278449999934,
                    "velocity": 0.3779527559055118,
                    "duration": 0.22154949999999474
                },
                {
                    "name": "C#4",
                    "midi": 61,
                    "time": 117.86433399999933,
                    "velocity": 0.41732283464566927,
                    "duration": 0.22154949999999474
                },
                {
                    "name": "A#3",
                    "midi": 58,
                    "time": 118.08588349999933,
                    "velocity": 0.3700787401574803,
                    "duration": 0.1661621249999996
                },
                {
                    "name": "D#4",
                    "midi": 63,
                    "time": 118.30743299999932,
                    "velocity": 0.3858267716535433,
                    "duration": 0.22154949999999474
                },
                {
                    "name": "D#3",
                    "midi": 51,
                    "time": 118.52898249999932,
                    "velocity": 0.3543307086614173,
                    "duration": 0.1661621249999996
                },
                {
                    "name": "G#3",
                    "midi": 56,
                    "time": 118.75053199999931,
                    "velocity": 0.3937007874015748,
                    "duration": 0.22154949999999474
                },
                {
                    "name": "D#3",
                    "midi": 51,
                    "time": 118.9720814999993,
                    "velocity": 0.33070866141732286,
                    "duration": 0.22154949999999474
                },
                {
                    "name": "G#2",
                    "midi": 44,
                    "time": 119.1936309999993,
                    "velocity": 0.3700787401574803,
                    "duration": 0.22154949999999474
                },
                {
                    "name": "G#4",
                    "midi": 68,
                    "time": 119.63672999999929,
                    "velocity": 0.41732283464566927,
                    "duration": 0.22154949999999474
                },
                {
                    "name": "G4",
                    "midi": 67,
                    "time": 119.85827949999928,
                    "velocity": 0.3700787401574803,
                    "duration": 0.1661621249999996
                },
                {
                    "name": "G#4",
                    "midi": 68,
                    "time": 120.07982899999928,
                    "velocity": 0.3858267716535433,
                    "duration": 0.22154949999999474
                },
                {
                    "name": "F4",
                    "midi": 65,
                    "time": 120.30137849999927,
                    "velocity": 0.3543307086614173,
                    "duration": 0.1661621249999996
                },
                {
                    "name": "E4",
                    "midi": 64,
                    "time": 120.52292799999927,
                    "velocity": 0.41732283464566927,
                    "duration": 0.4430990000000037
                },
                {
                    "name": "F4",
                    "midi": 65,
                    "time": 121.40912599999928,
                    "velocity": 0.41732283464566927,
                    "duration": 0.22154949999999474
                },
                {
                    "name": "G4",
                    "midi": 67,
                    "time": 121.63067549999927,
                    "velocity": 0.3700787401574803,
                    "duration": 0.22154949999999474
                },
                {
                    "name": "G#4",
                    "midi": 68,
                    "time": 121.85222499999927,
                    "velocity": 0.3858267716535433,
                    "duration": 0.22154949999999474
                },
                {
                    "name": "C4",
                    "midi": 60,
                    "time": 122.29532399999925,
                    "velocity": 0.41732283464566927,
                    "duration": 0.22154949999999474
                },
                {
                    "name": "D4",
                    "midi": 62,
                    "time": 122.51687349999925,
                    "velocity": 0.3700787401574803,
                    "duration": 0.22154949999999474
                },
                {
                    "name": "E4",
                    "midi": 64,
                    "time": 122.73842299999924,
                    "velocity": 0.3858267716535433,
                    "duration": 0.22154949999999474
                },
                {
                    "name": "E3",
                    "midi": 52,
                    "time": 124.06771999999924,
                    "velocity": 0.33070866141732286,
                    "duration": 0.8861979999999932
                },
                {
                    "name": "G3",
                    "midi": 55,
                    "time": 124.06771999999924,
                    "velocity": 0.33070866141732286,
                    "duration": 0.8861979999999932
                },
                {
                    "name": "C4",
                    "midi": 60,
                    "time": 124.06771999999924,
                    "velocity": 0.41732283464566927,
                    "duration": 0.8861979999999932
                },
                {
                    "name": "F3",
                    "midi": 53,
                    "time": 124.95391799999923,
                    "velocity": 0.3543307086614173,
                    "duration": 0.4430990000000037
                },
                {
                    "name": "C4",
                    "midi": 60,
                    "time": 124.95391799999923,
                    "velocity": 0.41732283464566927,
                    "duration": 0.4430990000000037
                },
                {
                    "name": "C4",
                    "midi": 60,
                    "time": 125.39701699999924,
                    "velocity": 0.36220472440944884,
                    "duration": 0.4430990000000037
                },
                {
                    "name": "C3",
                    "midi": 48,
                    "time": 125.39701699999924,
                    "velocity": 0.30708661417322836,
                    "duration": 0.4430990000000037
                },
                {
                    "name": "F2",
                    "midi": 41,
                    "time": 125.84011599999924,
                    "velocity": 0.3543307086614173,
                    "duration": 0.4430990000000037
                },
                {
                    "name": "F3",
                    "midi": 53,
                    "time": 125.84011599999924,
                    "velocity": 0.41732283464566927,
                    "duration": 0.4430990000000037
                },
                {
                    "name": "G#4",
                    "midi": 68,
                    "time": 126.72631399999925,
                    "velocity": 0.41732283464566927,
                    "duration": 0.22154949999999474
                },
                {
                    "name": "G4",
                    "midi": 67,
                    "time": 126.94786349999924,
                    "velocity": 0.3700787401574803,
                    "duration": 0.1661621249999996
                },
                {
                    "name": "G#4",
                    "midi": 68,
                    "time": 127.16941299999924,
                    "velocity": 0.3858267716535433,
                    "duration": 0.22154949999999474
                },
                {
                    "name": "F4",
                    "midi": 65,
                    "time": 127.39096249999923,
                    "velocity": 0.3543307086614173,
                    "duration": 0.1661621249999996
                },
                {
                    "name": "E4",
                    "midi": 64,
                    "time": 127.61251199999923,
                    "velocity": 0.41732283464566927,
                    "duration": 0.4430990000000037
                },
                {
                    "name": "F4",
                    "midi": 65,
                    "time": 128.49870999999922,
                    "velocity": 0.41732283464566927,
                    "duration": 0.22154950000000895
                },
                {
                    "name": "G4",
                    "midi": 67,
                    "time": 128.72025949999923,
                    "velocity": 0.3700787401574803,
                    "duration": 0.22154950000000895
                },
                {
                    "name": "G#4",
                    "midi": 68,
                    "time": 128.94180899999924,
                    "velocity": 0.3858267716535433,
                    "duration": 0.22154950000000895
                },
                {
                    "name": "C4",
                    "midi": 60,
                    "time": 129.38490799999926,
                    "velocity": 0.41732283464566927,
                    "duration": 0.22154950000000895
                },
                {
                    "name": "D4",
                    "midi": 62,
                    "time": 129.60645749999927,
                    "velocity": 0.3700787401574803,
                    "duration": 0.22154950000000895
                },
                {
                    "name": "E4",
                    "midi": 64,
                    "time": 129.82800699999927,
                    "velocity": 0.3858267716535433,
                    "duration": 0.22154950000000895
                },
                {
                    "name": "E3",
                    "midi": 52,
                    "time": 131.15730399999927,
                    "velocity": 0.33070866141732286,
                    "duration": 0.8861980000000074
                },
                {
                    "name": "G3",
                    "midi": 55,
                    "time": 131.15730399999927,
                    "velocity": 0.33070866141732286,
                    "duration": 0.8861980000000074
                },
                {
                    "name": "C4",
                    "midi": 60,
                    "time": 131.15730399999927,
                    "velocity": 0.41732283464566927,
                    "duration": 0.8861980000000074
                },
                {
                    "name": "F3",
                    "midi": 53,
                    "time": 132.04350199999928,
                    "velocity": 0.3543307086614173,
                    "duration": 0.4430989999999895
                },
                {
                    "name": "C4",
                    "midi": 60,
                    "time": 132.04350199999928,
                    "velocity": 0.41732283464566927,
                    "duration": 0.4430989999999895
                },
                {
                    "name": "C4",
                    "midi": 60,
                    "time": 132.48660099999927,
                    "velocity": 0.36220472440944884,
                    "duration": 0.4430989999999895
                },
                {
                    "name": "C3",
                    "midi": 48,
                    "time": 132.48660099999927,
                    "velocity": 0.30708661417322836,
                    "duration": 0.4430989999999895
                },
                {
                    "name": "F2",
                    "midi": 41,
                    "time": 132.92969999999926,
                    "velocity": 0.3543307086614173,
                    "duration": 0.4430989999999895
                },
                {
                    "name": "F3",
                    "midi": 53,
                    "time": 132.92969999999926,
                    "velocity": 0.41732283464566927,
                    "duration": 0.4430989999999895
                },
                {
                    "name": "E4",
                    "midi": 64,
                    "time": 133.81589799999924,
                    "velocity": 0.3779527559055118,
                    "duration": 0.11077474999999026
                },
                {
                    "name": "C5",
                    "midi": 72,
                    "time": 133.92667274999923,
                    "velocity": 0.31496062992125984,
                    "duration": 0.11077474999999026
                },
                {
                    "name": "E4",
                    "midi": 64,
                    "time": 134.03744749999922,
                    "velocity": 0.3464566929133858,
                    "duration": 0.11077474999999026
                },
                {
                    "name": "C5",
                    "midi": 72,
                    "time": 134.1482222499992,
                    "velocity": 0.31496062992125984,
                    "duration": 0.11077474999999026
                },
                {
                    "name": "F4",
                    "midi": 65,
                    "time": 134.2589969999992,
                    "velocity": 0.3464566929133858,
                    "duration": 0.11077474999999026
                },
                {
                    "name": "C5",
                    "midi": 72,
                    "time": 134.3697717499992,
                    "velocity": 0.29133858267716534,
                    "duration": 0.11077474999999026
                },
                {
                    "name": "F4",
                    "midi": 65,
                    "time": 134.48054649999918,
                    "velocity": 0.33858267716535434,
                    "duration": 0.11077474999999026
                },
                {
                    "name": "C5",
                    "midi": 72,
                    "time": 134.59132124999917,
                    "velocity": 0.2992125984251969,
                    "duration": 0.08308106250001401
                },
                {
                    "name": "C4",
                    "midi": 60,
                    "time": 134.7020959999992,
                    "velocity": 0.3779527559055118,
                    "duration": 0.11077474999999026
                },
                {
                    "name": "C5",
                    "midi": 72,
                    "time": 134.81287074999918,
                    "velocity": 0.31496062992125984,
                    "duration": 0.11077474999999026
                },
                {
                    "name": "D4",
                    "midi": 62,
                    "time": 134.92364549999917,
                    "velocity": 0.3464566929133858,
                    "duration": 0.11077474999999026
                },
                {
                    "name": "C5",
                    "midi": 72,
                    "time": 135.03442024999916,
                    "velocity": 0.31496062992125984,
                    "duration": 0.11077474999999026
                },
                {
                    "name": "E4",
                    "midi": 64,
                    "time": 135.14519499999915,
                    "velocity": 0.3464566929133858,
                    "duration": 0.22154950000000895
                },
                {
                    "name": "E4",
                    "midi": 64,
                    "time": 135.58829399999917,
                    "velocity": 0.3779527559055118,
                    "duration": 0.11077474999999026
                },
                {
                    "name": "C5",
                    "midi": 72,
                    "time": 135.69906874999916,
                    "velocity": 0.31496062992125984,
                    "duration": 0.11077474999999026
                },
                {
                    "name": "E4",
                    "midi": 64,
                    "time": 135.80984349999915,
                    "velocity": 0.3464566929133858,
                    "duration": 0.11077474999999026
                },
                {
                    "name": "C5",
                    "midi": 72,
                    "time": 135.92061824999914,
                    "velocity": 0.31496062992125984,
                    "duration": 0.11077474999999026
                },
                {
                    "name": "F4",
                    "midi": 65,
                    "time": 136.03139299999913,
                    "velocity": 0.3464566929133858,
                    "duration": 0.11077474999999026
                },
                {
                    "name": "C5",
                    "midi": 72,
                    "time": 136.14216774999912,
                    "velocity": 0.29133858267716534,
                    "duration": 0.11077474999999026
                },
                {
                    "name": "F4",
                    "midi": 65,
                    "time": 136.2529424999991,
                    "velocity": 0.33858267716535434,
                    "duration": 0.11077474999999026
                },
                {
                    "name": "C5",
                    "midi": 72,
                    "time": 136.3637172499991,
                    "velocity": 0.2992125984251969,
                    "duration": 0.08308106250001401
                },
                {
                    "name": "C4",
                    "midi": 60,
                    "time": 136.47449199999912,
                    "velocity": 0.3779527559055118,
                    "duration": 0.11077474999999026
                },
                {
                    "name": "E4",
                    "midi": 64,
                    "time": 136.5852667499991,
                    "velocity": 0.31496062992125984,
                    "duration": 0.11077474999999026
                },
                {
                    "name": "G4",
                    "midi": 67,
                    "time": 136.6960414999991,
                    "velocity": 0.3464566929133858,
                    "duration": 0.11077474999999026
                },
                {
                    "name": "C5",
                    "midi": 72,
                    "time": 136.8068162499991,
                    "velocity": 0.31496062992125984,
                    "duration": 0.11077474999999026
                },
                {
                    "name": "C4",
                    "midi": 60,
                    "time": 136.91759099999908,
                    "velocity": 0.3464566929133858,
                    "duration": 0.22154950000000895
                },
                {
                    "name": "E4",
                    "midi": 64,
                    "time": 137.3606899999991,
                    "velocity": 0.3779527559055118,
                    "duration": 0.11077474999999026
                },
                {
                    "name": "C5",
                    "midi": 72,
                    "time": 137.4714647499991,
                    "velocity": 0.31496062992125984,
                    "duration": 0.11077474999999026
                },
                {
                    "name": "E4",
                    "midi": 64,
                    "time": 137.58223949999908,
                    "velocity": 0.3464566929133858,
                    "duration": 0.11077474999999026
                },
                {
                    "name": "C5",
                    "midi": 72,
                    "time": 137.69301424999907,
                    "velocity": 0.31496062992125984,
                    "duration": 0.11077474999999026
                },
                {
                    "name": "F4",
                    "midi": 65,
                    "time": 137.80378899999906,
                    "velocity": 0.3464566929133858,
                    "duration": 0.11077474999999026
                },
                {
                    "name": "C5",
                    "midi": 72,
                    "time": 137.91456374999905,
                    "velocity": 0.29133858267716534,
                    "duration": 0.11077474999999026
                },
                {
                    "name": "F4",
                    "midi": 65,
                    "time": 138.02533849999904,
                    "velocity": 0.33858267716535434,
                    "duration": 0.11077474999999026
                },
                {
                    "name": "C5",
                    "midi": 72,
                    "time": 138.13611324999903,
                    "velocity": 0.2992125984251969,
                    "duration": 0.08308106250001401
                },
                {
                    "name": "C4",
                    "midi": 60,
                    "time": 138.24688799999905,
                    "velocity": 0.3779527559055118,
                    "duration": 0.11077474999999026
                },
                {
                    "name": "C5",
                    "midi": 72,
                    "time": 138.35766274999904,
                    "velocity": 0.31496062992125984,
                    "duration": 0.11077474999999026
                },
                {
                    "name": "D4",
                    "midi": 62,
                    "time": 138.46843749999903,
                    "velocity": 0.3464566929133858,
                    "duration": 0.11077474999999026
                },
                {
                    "name": "C5",
                    "midi": 72,
                    "time": 138.57921224999902,
                    "velocity": 0.31496062992125984,
                    "duration": 0.11077474999999026
                },
                {
                    "name": "E4",
                    "midi": 64,
                    "time": 138.689986999999,
                    "velocity": 0.3464566929133858,
                    "duration": 0.22154950000000895
                },
                {
                    "name": "E4",
                    "midi": 64,
                    "time": 139.13308599999903,
                    "velocity": 0.3779527559055118,
                    "duration": 0.11077474999999026
                },
                {
                    "name": "C5",
                    "midi": 72,
                    "time": 139.24386074999902,
                    "velocity": 0.31496062992125984,
                    "duration": 0.11077474999999026
                },
                {
                    "name": "E4",
                    "midi": 64,
                    "time": 139.354635499999,
                    "velocity": 0.3464566929133858,
                    "duration": 0.11077474999999026
                },
                {
                    "name": "C5",
                    "midi": 72,
                    "time": 139.465410249999,
                    "velocity": 0.31496062992125984,
                    "duration": 0.11077474999999026
                },
                {
                    "name": "F4",
                    "midi": 65,
                    "time": 139.576184999999,
                    "velocity": 0.3464566929133858,
                    "duration": 0.11077474999999026
                },
                {
                    "name": "C5",
                    "midi": 72,
                    "time": 139.68695974999898,
                    "velocity": 0.29133858267716534,
                    "duration": 0.11077474999999026
                },
                {
                    "name": "F4",
                    "midi": 65,
                    "time": 139.79773449999897,
                    "velocity": 0.33858267716535434,
                    "duration": 0.11077474999999026
                },
                {
                    "name": "C5",
                    "midi": 72,
                    "time": 139.90850924999896,
                    "velocity": 0.2992125984251969,
                    "duration": 0.08308106250001401
                },
                {
                    "name": "C4",
                    "midi": 60,
                    "time": 140.01928399999898,
                    "velocity": 0.3779527559055118,
                    "duration": 0.4430989999999895
                },
                {
                    "name": "G#5",
                    "midi": 80,
                    "time": 140.68393249999897,
                    "velocity": 0.3700787401574803,
                    "duration": 0.22154950000000895
                },
                {
                    "name": "A#5",
                    "midi": 82,
                    "time": 140.90548199999898,
                    "velocity": 0.3779527559055118,
                    "duration": 0.22154950000000895
                },
                {
                    "name": "G#5",
                    "midi": 80,
                    "time": 141.127031499999,
                    "velocity": 0.3543307086614173,
                    "duration": 0.22154950000000895
                },
                {
                    "name": "G5",
                    "midi": 79,
                    "time": 141.348580999999,
                    "velocity": 0.3779527559055118,
                    "duration": 0.22154950000000895
                },
                {
                    "name": "F5",
                    "midi": 77,
                    "time": 141.570130499999,
                    "velocity": 0.3543307086614173,
                    "duration": 0.22154950000000895
                },
                {
                    "name": "E5",
                    "midi": 76,
                    "time": 141.79167999999902,
                    "velocity": 0.3858267716535433,
                    "duration": 0.22154950000000895
                },
                {
                    "name": "G#4",
                    "midi": 68,
                    "time": 142.45632849999902,
                    "velocity": 0.49606299212598426,
                    "duration": 0.11077474999999026
                },
                {
                    "name": "A#4",
                    "midi": 70,
                    "time": 142.677877999999,
                    "velocity": 0.5196850393700787,
                    "duration": 0.11077474999999026
                },
                {
                    "name": "G#4",
                    "midi": 68,
                    "time": 142.89942749999898,
                    "velocity": 0.47244094488188976,
                    "duration": 0.11077474999999026
                },
                {
                    "name": "G4",
                    "midi": 67,
                    "time": 143.12097699999896,
                    "velocity": 0.5196850393700787,
                    "duration": 0.11077474999999026
                },
                {
                    "name": "F4",
                    "midi": 65,
                    "time": 143.34252649999894,
                    "velocity": 0.4645669291338583,
                    "duration": 0.11077474999999026
                },
                {
                    "name": "C4",
                    "midi": 60,
                    "time": 143.56407599999892,
                    "velocity": 0.4566929133858268,
                    "duration": 0.4430989999999895
                },
                {
                    "name": "E4",
                    "midi": 64,
                    "time": 143.56407599999892,
                    "velocity": 0.5196850393700787,
                    "duration": 0.4430989999999895
                },
                {
                    "name": "C4",
                    "midi": 60,
                    "time": 144.4502739999989,
                    "velocity": 0.4566929133858268,
                    "duration": 0.4430989999999895
                },
                {
                    "name": "F4",
                    "midi": 65,
                    "time": 144.4502739999989,
                    "velocity": 0.5196850393700787,
                    "duration": 0.4430989999999895
                },
                {
                    "name": "E4",
                    "midi": 64,
                    "time": 145.33647199999888,
                    "velocity": 0.5196850393700787,
                    "duration": 0.4430989999999895
                },
                {
                    "name": "C4",
                    "midi": 60,
                    "time": 145.33647199999888,
                    "velocity": 0.4566929133858268,
                    "duration": 0.4430989999999895
                },
                {
                    "name": "F4",
                    "midi": 65,
                    "time": 146.22266999999886,
                    "velocity": 0.5196850393700787,
                    "duration": 0.4430989999999895
                },
                {
                    "name": "C4",
                    "midi": 60,
                    "time": 146.22266999999886,
                    "velocity": 0.4566929133858268,
                    "duration": 0.4430989999999895
                },
                {
                    "name": "E4",
                    "midi": 64,
                    "time": 147.10886799999884,
                    "velocity": 0.5196850393700787,
                    "duration": 0.4430989999999895
                },
                {
                    "name": "C4",
                    "midi": 60,
                    "time": 147.10886799999884,
                    "velocity": 0.4566929133858268,
                    "duration": 0.4430989999999895
                },
                {
                    "name": "D4",
                    "midi": 62,
                    "time": 147.99506599999881,
                    "velocity": 0.5196850393700787,
                    "duration": 0.4430989999999895
                },
                {
                    "name": "B3",
                    "midi": 59,
                    "time": 147.99506599999881,
                    "velocity": 0.4566929133858268,
                    "duration": 0.4430989999999895
                },
                {
                    "name": "A#1",
                    "midi": 34,
                    "time": 151.53985799999882,
                    "velocity": 0.33858267716535434,
                    "duration": 0.4430989999999895
                },
                {
                    "name": "A#2",
                    "midi": 46,
                    "time": 151.53985799999882,
                    "velocity": 0.3858267716535433,
                    "duration": 0.4430989999999895
                },
                {
                    "name": "G1",
                    "midi": 31,
                    "time": 153.3122539999988,
                    "velocity": 0.4330708661417323,
                    "duration": 0.4430989999999895
                },
                {
                    "name": "G2",
                    "midi": 43,
                    "time": 153.3122539999988,
                    "velocity": 0.49606299212598426,
                    "duration": 0.4430989999999895
                },
                {
                    "name": "C4",
                    "midi": 60,
                    "time": 157.9647934999988,
                    "velocity": 0.4015748031496063,
                    "duration": 0.22154950000000895
                },
                {
                    "name": "A#3",
                    "midi": 58,
                    "time": 158.1863429999988,
                    "velocity": 0.4015748031496063,
                    "duration": 0.22154950000000895
                },
                {
                    "name": "G#3",
                    "midi": 56,
                    "time": 158.4078924999988,
                    "velocity": 0.3779527559055118,
                    "duration": 0.22154950000000895
                },
                {
                    "name": "G3",
                    "midi": 55,
                    "time": 158.62944199999882,
                    "velocity": 0.41732283464566927,
                    "duration": 0.22154950000000895
                },
                {
                    "name": "D#3",
                    "midi": 51,
                    "time": 158.85099149999883,
                    "velocity": 0.3700787401574803,
                    "duration": 0.1661621249999996
                },
                {
                    "name": "G#3",
                    "midi": 56,
                    "time": 159.07254099999884,
                    "velocity": 0.3858267716535433,
                    "duration": 0.22154950000000895
                },
                {
                    "name": "D#3",
                    "midi": 51,
                    "time": 159.29409049999884,
                    "velocity": 0.3543307086614173,
                    "duration": 0.1661621249999996
                },
                {
                    "name": "A#3",
                    "midi": 58,
                    "time": 159.51563999999885,
                    "velocity": 0.3858267716535433,
                    "duration": 0.22154950000000895
                },
                {
                    "name": "D#3",
                    "midi": 51,
                    "time": 159.73718949999886,
                    "velocity": 0.3543307086614173,
                    "duration": 0.1661621249999996
                },
                {
                    "name": "G#3",
                    "midi": 56,
                    "time": 159.95873899999887,
                    "velocity": 0.3858267716535433,
                    "duration": 0.22154950000000895
                },
                {
                    "name": "C4",
                    "midi": 60,
                    "time": 161.50958549999888,
                    "velocity": 0.4015748031496063,
                    "duration": 0.22154950000000895
                },
                {
                    "name": "A#3",
                    "midi": 58,
                    "time": 161.7311349999989,
                    "velocity": 0.4015748031496063,
                    "duration": 0.22154950000000895
                },
                {
                    "name": "G#3",
                    "midi": 56,
                    "time": 161.9526844999989,
                    "velocity": 0.3779527559055118,
                    "duration": 0.22154950000000895
                },
                {
                    "name": "C#4",
                    "midi": 61,
                    "time": 162.1742339999989,
                    "velocity": 0.41732283464566927,
                    "duration": 0.22154950000000895
                },
                {
                    "name": "A#3",
                    "midi": 58,
                    "time": 162.3957834999989,
                    "velocity": 0.3700787401574803,
                    "duration": 0.1661621249999996
                },
                {
                    "name": "D#4",
                    "midi": 63,
                    "time": 162.61733299999892,
                    "velocity": 0.3858267716535433,
                    "duration": 0.22154950000000895
                },
                {
                    "name": "D#3",
                    "midi": 51,
                    "time": 162.83888249999893,
                    "velocity": 0.3543307086614173,
                    "duration": 0.1661621249999996
                },
                {
                    "name": "G#3",
                    "midi": 56,
                    "time": 163.06043199999894,
                    "velocity": 0.3937007874015748,
                    "duration": 0.22154950000000895
                },
                {
                    "name": "D#3",
                    "midi": 51,
                    "time": 163.28198149999895,
                    "velocity": 0.33070866141732286,
                    "duration": 0.22154950000000895
                },
                {
                    "name": "G#2",
                    "midi": 44,
                    "time": 163.50353099999896,
                    "velocity": 0.3700787401574803,
                    "duration": 0.22154950000000895
                },
                {
                    "name": "G#4",
                    "midi": 68,
                    "time": 164.61127849999897,
                    "velocity": 0.3228346456692913,
                    "duration": 0.22154950000000895
                },
                {
                    "name": "G4",
                    "midi": 67,
                    "time": 164.83282799999898,
                    "velocity": 0.3543307086614173,
                    "duration": 0.4403296312499947
                },
                {
                    "name": "F4",
                    "midi": 65,
                    "time": 166.383674499999,
                    "velocity": 0.3228346456692913,
                    "duration": 0.22154950000000895
                },
                {
                    "name": "D#4",
                    "midi": 63,
                    "time": 166.605223999999,
                    "velocity": 0.3543307086614173,
                    "duration": 0.4403296312499947
                },
                {
                    "name": "C#4",
                    "midi": 61,
                    "time": 168.156070499999,
                    "velocity": 0.3228346456692913,
                    "duration": 0.22154950000000895
                },
                {
                    "name": "C4",
                    "midi": 60,
                    "time": 168.377619999999,
                    "velocity": 0.3543307086614173,
                    "duration": 0.4403296312499947
                },
                {
                    "name": "A#3",
                    "midi": 58,
                    "time": 169.26381799999902,
                    "velocity": 0.2992125984251969,
                    "duration": 0.4430989999999895
                },
                {
                    "name": "G#4",
                    "midi": 68,
                    "time": 169.26381799999902,
                    "velocity": 0.3543307086614173,
                    "duration": 0.4430989999999895
                },
                {
                    "name": "D#4",
                    "midi": 63,
                    "time": 170.150015999999,
                    "velocity": 0.2992125984251969,
                    "duration": 0.4430989999999895
                },
                {
                    "name": "G4",
                    "midi": 67,
                    "time": 170.150015999999,
                    "velocity": 0.3543307086614173,
                    "duration": 0.4430989999999895
                },
                {
                    "name": "G#4",
                    "midi": 68,
                    "time": 171.03621399999898,
                    "velocity": 0.3543307086614173,
                    "duration": 0.4430989999999895
                },
                {
                    "name": "A#3",
                    "midi": 58,
                    "time": 171.03621399999898,
                    "velocity": 0.2992125984251969,
                    "duration": 0.4430989999999895
                },
                {
                    "name": "D#4",
                    "midi": 63,
                    "time": 171.92241199999896,
                    "velocity": 0.2992125984251969,
                    "duration": 0.4430989999999895
                },
                {
                    "name": "G4",
                    "midi": 67,
                    "time": 171.92241199999896,
                    "velocity": 0.3543307086614173,
                    "duration": 0.4430989999999895
                },
                {
                    "name": "A#3",
                    "midi": 58,
                    "time": 172.80860999999894,
                    "velocity": 0.2992125984251969,
                    "duration": 0.4430989999999895
                },
                {
                    "name": "G#4",
                    "midi": 68,
                    "time": 172.80860999999894,
                    "velocity": 0.3543307086614173,
                    "duration": 0.4430989999999895
                },
                {
                    "name": "D#4",
                    "midi": 63,
                    "time": 173.69480799999891,
                    "velocity": 0.2992125984251969,
                    "duration": 0.4430989999999895
                },
                {
                    "name": "G4",
                    "midi": 67,
                    "time": 173.69480799999891,
                    "velocity": 0.3543307086614173,
                    "duration": 0.4430989999999895
                },
                {
                    "name": "D#3",
                    "midi": 51,
                    "time": 174.8025554999989,
                    "velocity": 0.28346456692913385,
                    "duration": 0.22154950000000895
                },
                {
                    "name": "G3",
                    "midi": 55,
                    "time": 175.0241049999989,
                    "velocity": 0.2992125984251969,
                    "duration": 0.22154950000000895
                },
                {
                    "name": "A#3",
                    "midi": 58,
                    "time": 175.24565449999892,
                    "velocity": 0.2755905511811024,
                    "duration": 0.22154950000000895
                },
                {
                    "name": "D#4",
                    "midi": 63,
                    "time": 175.46720399999893,
                    "velocity": 0.28346456692913385,
                    "duration": 0.4430990000000179
                },
                {
                    "name": "C4",
                    "midi": 60,
                    "time": 178.34734749999896,
                    "velocity": 0.4015748031496063,
                    "duration": 0.22154950000000895
                },
                {
                    "name": "A#3",
                    "midi": 58,
                    "time": 178.56889699999897,
                    "velocity": 0.4015748031496063,
                    "duration": 0.22154950000000895
                },
                {
                    "name": "G#3",
                    "midi": 56,
                    "time": 178.79044649999898,
                    "velocity": 0.3779527559055118,
                    "duration": 0.22154950000000895
                },
                {
                    "name": "G3",
                    "midi": 55,
                    "time": 179.011995999999,
                    "velocity": 0.41732283464566927,
                    "duration": 0.22154950000000895
                },
                {
                    "name": "D#3",
                    "midi": 51,
                    "time": 179.233545499999,
                    "velocity": 0.3700787401574803,
                    "duration": 0.1661621249999996
                },
                {
                    "name": "G#3",
                    "midi": 56,
                    "time": 179.455094999999,
                    "velocity": 0.3858267716535433,
                    "duration": 0.22154950000000895
                },
                {
                    "name": "D#3",
                    "midi": 51,
                    "time": 179.67664449999901,
                    "velocity": 0.3543307086614173,
                    "duration": 0.1661621249999996
                },
                {
                    "name": "A#3",
                    "midi": 58,
                    "time": 179.89819399999902,
                    "velocity": 0.3858267716535433,
                    "duration": 0.22154950000000895
                },
                {
                    "name": "D#3",
                    "midi": 51,
                    "time": 180.11974349999903,
                    "velocity": 0.3543307086614173,
                    "duration": 0.1661621249999996
                },
                {
                    "name": "G#3",
                    "midi": 56,
                    "time": 180.34129299999904,
                    "velocity": 0.3858267716535433,
                    "duration": 0.22154950000000895
                },
                {
                    "name": "C4",
                    "midi": 60,
                    "time": 181.89213949999905,
                    "velocity": 0.4015748031496063,
                    "duration": 0.22154950000000895
                },
                {
                    "name": "A#3",
                    "midi": 58,
                    "time": 182.11368899999906,
                    "velocity": 0.4015748031496063,
                    "duration": 0.22154950000000895
                },
                {
                    "name": "G#3",
                    "midi": 56,
                    "time": 182.33523849999906,
                    "velocity": 0.3779527559055118,
                    "duration": 0.22154950000000895
                },
                {
                    "name": "C#4",
                    "midi": 61,
                    "time": 182.55678799999907,
                    "velocity": 0.41732283464566927,
                    "duration": 0.22154950000000895
                },
                {
                    "name": "A#3",
                    "midi": 58,
                    "time": 182.77833749999908,
                    "velocity": 0.3700787401574803,
                    "duration": 0.1661621249999996
                },
                {
                    "name": "D#4",
                    "midi": 63,
                    "time": 182.9998869999991,
                    "velocity": 0.3858267716535433,
                    "duration": 0.22154950000000895
                },
                {
                    "name": "D#3",
                    "midi": 51,
                    "time": 183.2214364999991,
                    "velocity": 0.3543307086614173,
                    "duration": 0.1661621249999996
                },
                {
                    "name": "G#3",
                    "midi": 56,
                    "time": 183.4429859999991,
                    "velocity": 0.3937007874015748,
                    "duration": 0.22154950000000895
                },
                {
                    "name": "D#3",
                    "midi": 51,
                    "time": 183.66453549999912,
                    "velocity": 0.33070866141732286,
                    "duration": 0.22154950000000895
                },
                {
                    "name": "G#2",
                    "midi": 44,
                    "time": 183.88608499999913,
                    "velocity": 0.3700787401574803,
                    "duration": 0.22154950000000895
                },
                {
                    "name": "G#4",
                    "midi": 68,
                    "time": 184.99383249999914,
                    "velocity": 0.3228346456692913,
                    "duration": 0.22154950000000895
                },
                {
                    "name": "G4",
                    "midi": 67,
                    "time": 185.21538199999915,
                    "velocity": 0.3543307086614173,
                    "duration": 0.4403296312499947
                },
                {
                    "name": "F4",
                    "midi": 65,
                    "time": 186.76622849999916,
                    "velocity": 0.3228346456692913,
                    "duration": 0.22154950000000895
                },
                {
                    "name": "D#4",
                    "midi": 63,
                    "time": 186.98777799999917,
                    "velocity": 0.3543307086614173,
                    "duration": 0.4403296312499947
                },
                {
                    "name": "C#4",
                    "midi": 61,
                    "time": 188.53862449999917,
                    "velocity": 0.3228346456692913,
                    "duration": 0.22154950000000895
                },
                {
                    "name": "C4",
                    "midi": 60,
                    "time": 188.76017399999918,
                    "velocity": 0.3543307086614173,
                    "duration": 0.4403296312499947
                },
                {
                    "name": "A#3",
                    "midi": 58,
                    "time": 189.6463719999992,
                    "velocity": 0.2992125984251969,
                    "duration": 0.4430989999999895
                },
                {
                    "name": "G#4",
                    "midi": 68,
                    "time": 189.6463719999992,
                    "velocity": 0.3543307086614173,
                    "duration": 0.4430989999999895
                },
                {
                    "name": "D#4",
                    "midi": 63,
                    "time": 190.53256999999917,
                    "velocity": 0.2992125984251969,
                    "duration": 0.4430989999999895
                },
                {
                    "name": "G4",
                    "midi": 67,
                    "time": 190.53256999999917,
                    "velocity": 0.3543307086614173,
                    "duration": 0.4430989999999895
                },
                {
                    "name": "G#4",
                    "midi": 68,
                    "time": 191.41876799999915,
                    "velocity": 0.3543307086614173,
                    "duration": 0.4430989999999895
                },
                {
                    "name": "A#3",
                    "midi": 58,
                    "time": 191.41876799999915,
                    "velocity": 0.2992125984251969,
                    "duration": 0.4430989999999895
                },
                {
                    "name": "D#4",
                    "midi": 63,
                    "time": 192.30496599999913,
                    "velocity": 0.2992125984251969,
                    "duration": 0.4430989999999895
                },
                {
                    "name": "G4",
                    "midi": 67,
                    "time": 192.30496599999913,
                    "velocity": 0.3543307086614173,
                    "duration": 0.4430989999999895
                },
                {
                    "name": "A#3",
                    "midi": 58,
                    "time": 193.1911639999991,
                    "velocity": 0.2992125984251969,
                    "duration": 0.4430989999999895
                },
                {
                    "name": "G#4",
                    "midi": 68,
                    "time": 193.1911639999991,
                    "velocity": 0.3543307086614173,
                    "duration": 0.4430989999999895
                },
                {
                    "name": "D#4",
                    "midi": 63,
                    "time": 194.07736199999908,
                    "velocity": 0.2992125984251969,
                    "duration": 0.4430989999999895
                },
                {
                    "name": "G4",
                    "midi": 67,
                    "time": 194.07736199999908,
                    "velocity": 0.3543307086614173,
                    "duration": 0.4430989999999895
                },
                {
                    "name": "D#3",
                    "midi": 51,
                    "time": 195.18510949999907,
                    "velocity": 0.28346456692913385,
                    "duration": 0.22154950000000895
                },
                {
                    "name": "G3",
                    "midi": 55,
                    "time": 195.40665899999908,
                    "velocity": 0.2992125984251969,
                    "duration": 0.22154950000000895
                },
                {
                    "name": "A#3",
                    "midi": 58,
                    "time": 195.6282084999991,
                    "velocity": 0.2755905511811024,
                    "duration": 0.22154950000000895
                },
                {
                    "name": "D#4",
                    "midi": 63,
                    "time": 195.8497579999991,
                    "velocity": 0.28346456692913385,
                    "duration": 0.4430989999999895
                },
                {
                    "name": "C4",
                    "midi": 60,
                    "time": 198.72990149999907,
                    "velocity": 0.4015748031496063,
                    "duration": 0.22154950000000895
                },
                {
                    "name": "A#3",
                    "midi": 58,
                    "time": 198.95145099999908,
                    "velocity": 0.4015748031496063,
                    "duration": 0.22154950000000895
                },
                {
                    "name": "G#3",
                    "midi": 56,
                    "time": 199.1730004999991,
                    "velocity": 0.3779527559055118,
                    "duration": 0.22154950000000895
                },
                {
                    "name": "G3",
                    "midi": 55,
                    "time": 199.3945499999991,
                    "velocity": 0.41732283464566927,
                    "duration": 0.22154950000000895
                },
                {
                    "name": "D#3",
                    "midi": 51,
                    "time": 199.6160994999991,
                    "velocity": 0.3700787401574803,
                    "duration": 0.1661621249999996
                },
                {
                    "name": "G#3",
                    "midi": 56,
                    "time": 199.83764899999912,
                    "velocity": 0.3858267716535433,
                    "duration": 0.22154950000000895
                },
                {
                    "name": "D#3",
                    "midi": 51,
                    "time": 200.05919849999913,
                    "velocity": 0.3543307086614173,
                    "duration": 0.1661621249999996
                },
                {
                    "name": "A#3",
                    "midi": 58,
                    "time": 200.28074799999914,
                    "velocity": 0.3858267716535433,
                    "duration": 0.22154950000000895
                },
                {
                    "name": "D#3",
                    "midi": 51,
                    "time": 200.50229749999914,
                    "velocity": 0.3543307086614173,
                    "duration": 0.1661621249999996
                },
                {
                    "name": "G#3",
                    "midi": 56,
                    "time": 200.72384699999915,
                    "velocity": 0.3858267716535433,
                    "duration": 0.22154950000000895
                },
                {
                    "name": "C4",
                    "midi": 60,
                    "time": 202.27469349999916,
                    "velocity": 0.4015748031496063,
                    "duration": 0.22154950000000895
                },
                {
                    "name": "A#3",
                    "midi": 58,
                    "time": 202.49624299999917,
                    "velocity": 0.4015748031496063,
                    "duration": 0.22154950000000895
                },
                {
                    "name": "G#3",
                    "midi": 56,
                    "time": 202.71779249999918,
                    "velocity": 0.3779527559055118,
                    "duration": 0.22154950000000895
                },
                {
                    "name": "C#4",
                    "midi": 61,
                    "time": 202.9393419999992,
                    "velocity": 0.41732283464566927,
                    "duration": 0.22154950000000895
                },
                {
                    "name": "A#3",
                    "midi": 58,
                    "time": 203.1608914999992,
                    "velocity": 0.3700787401574803,
                    "duration": 0.1661621249999996
                },
                {
                    "name": "D#4",
                    "midi": 63,
                    "time": 203.3824409999992,
                    "velocity": 0.3858267716535433,
                    "duration": 0.22154950000000895
                },
                {
                    "name": "D#3",
                    "midi": 51,
                    "time": 203.6039904999992,
                    "velocity": 0.3543307086614173,
                    "duration": 0.1661621249999996
                },
                {
                    "name": "G#3",
                    "midi": 56,
                    "time": 203.82553999999922,
                    "velocity": 0.3937007874015748,
                    "duration": 0.22154950000000895
                },
                {
                    "name": "G#2",
                    "midi": 44,
                    "time": 204.04708949999923,
                    "velocity": 0.33070866141732286,
                    "duration": 0.22154950000000895
                },
                {
                    "name": "C#4",
                    "midi": 61,
                    "time": 204.26863899999924,
                    "velocity": 0.4094488188976378,
                    "duration": 0.11077474999999026
                },
                {
                    "name": "G#3",
                    "midi": 56,
                    "time": 204.26863899999924,
                    "velocity": 0.3464566929133858,
                    "duration": 0.11077474999999026
                },
                {
                    "name": "C#4",
                    "midi": 61,
                    "time": 204.49018849999922,
                    "velocity": 0.3543307086614173,
                    "duration": 0.11077474999999026
                },
                {
                    "name": "G#3",
                    "midi": 56,
                    "time": 204.49018849999922,
                    "velocity": 0.29133858267716534,
                    "duration": 0.11077474999999026
                },
                {
                    "name": "G#3",
                    "midi": 56,
                    "time": 204.7117379999992,
                    "velocity": 0.33858267716535434,
                    "duration": 0.11077474999999026
                },
                {
                    "name": "C4",
                    "midi": 60,
                    "time": 204.7117379999992,
                    "velocity": 0.4015748031496063,
                    "duration": 0.11077474999999026
                },
                {
                    "name": "G#3",
                    "midi": 56,
                    "time": 204.93328749999918,
                    "velocity": 0.28346456692913385,
                    "duration": 0.11077474999999026
                },
                {
                    "name": "C4",
                    "midi": 60,
                    "time": 204.93328749999918,
                    "velocity": 0.3464566929133858,
                    "duration": 0.11077474999999026
                },
                {
                    "name": "F4",
                    "midi": 65,
                    "time": 205.15483699999916,
                    "velocity": 0.4094488188976378,
                    "duration": 0.11077474999999026
                },
                {
                    "name": "G#3",
                    "midi": 56,
                    "time": 205.15483699999916,
                    "velocity": 0.3464566929133858,
                    "duration": 0.11077474999999026
                },
                {
                    "name": "F4",
                    "midi": 65,
                    "time": 205.37638649999914,
                    "velocity": 0.3543307086614173,
                    "duration": 0.11077474999999026
                },
                {
                    "name": "G#3",
                    "midi": 56,
                    "time": 205.37638649999914,
                    "velocity": 0.29133858267716534,
                    "duration": 0.11077474999999026
                },
                {
                    "name": "G#3",
                    "midi": 56,
                    "time": 205.59793599999912,
                    "velocity": 0.33858267716535434,
                    "duration": 0.11077474999999026
                },
                {
                    "name": "D#4",
                    "midi": 63,
                    "time": 205.59793599999912,
                    "velocity": 0.4015748031496063,
                    "duration": 0.11077474999999026
                },
                {
                    "name": "G#3",
                    "midi": 56,
                    "time": 205.8194854999991,
                    "velocity": 0.28346456692913385,
                    "duration": 0.11077474999999026
                },
                {
                    "name": "D#4",
                    "midi": 63,
                    "time": 205.8194854999991,
                    "velocity": 0.3464566929133858,
                    "duration": 0.11077474999999026
                },
                {
                    "name": "C#4",
                    "midi": 61,
                    "time": 206.04103499999908,
                    "velocity": 0.4094488188976378,
                    "duration": 0.11077474999999026
                },
                {
                    "name": "G#3",
                    "midi": 56,
                    "time": 206.04103499999908,
                    "velocity": 0.3464566929133858,
                    "duration": 0.11077474999999026
                },
                {
                    "name": "C#4",
                    "midi": 61,
                    "time": 206.26258449999906,
                    "velocity": 0.3543307086614173,
                    "duration": 0.11077474999999026
                },
                {
                    "name": "G#3",
                    "midi": 56,
                    "time": 206.26258449999906,
                    "velocity": 0.29133858267716534,
                    "duration": 0.11077474999999026
                },
                {
                    "name": "G#3",
                    "midi": 56,
                    "time": 206.48413399999905,
                    "velocity": 0.33858267716535434,
                    "duration": 0.22154950000000895
                },
                {
                    "name": "C4",
                    "midi": 60,
                    "time": 206.48413399999905,
                    "velocity": 0.4015748031496063,
                    "duration": 0.22154950000000895
                },
                {
                    "name": "D3",
                    "midi": 50,
                    "time": 207.37033199999905,
                    "velocity": 0.3464566929133858,
                    "duration": 0.4430989999999895
                },
                {
                    "name": "A#3",
                    "midi": 58,
                    "time": 207.37033199999905,
                    "velocity": 0.4015748031496063,
                    "duration": 0.4430989999999895
                },
                {
                    "name": "D3",
                    "midi": 50,
                    "time": 208.25652999999903,
                    "velocity": 0.3464566929133858,
                    "duration": 0.4430989999999895
                },
                {
                    "name": "A#3",
                    "midi": 58,
                    "time": 208.25652999999903,
                    "velocity": 0.4015748031496063,
                    "duration": 0.4430989999999895
                },
                {
                    "name": "D#3",
                    "midi": 51,
                    "time": 209.142727999999,
                    "velocity": 0.3779527559055118,
                    "duration": 0.22154950000000895
                },
                {
                    "name": "F3",
                    "midi": 53,
                    "time": 209.36427749999902,
                    "velocity": 0.3779527559055118,
                    "duration": 0.22154950000000895
                },
                {
                    "name": "G3",
                    "midi": 55,
                    "time": 209.58582699999903,
                    "velocity": 0.3779527559055118,
                    "duration": 0.22154950000000895
                },
                {
                    "name": "G#3",
                    "midi": 56,
                    "time": 209.80737649999904,
                    "velocity": 0.4409448818897638,
                    "duration": 0.22154950000000895
                },
                {
                    "name": "A#3",
                    "midi": 58,
                    "time": 210.02892599999905,
                    "velocity": 0.48031496062992124,
                    "duration": 0.22154950000000895
                },
                {
                    "name": "G#3",
                    "midi": 56,
                    "time": 210.25047549999906,
                    "velocity": 0.4015748031496063,
                    "duration": 0.22154950000000895
                },
                {
                    "name": "A#3",
                    "midi": 58,
                    "time": 210.47202499999906,
                    "velocity": 0.4566929133858268,
                    "duration": 0.22154950000000895
                },
                {
                    "name": "G3",
                    "midi": 55,
                    "time": 210.69357449999907,
                    "velocity": 0.4015748031496063,
                    "duration": 0.22154950000000895
                },
                {
                    "name": "G#3",
                    "midi": 56,
                    "time": 210.91512399999908,
                    "velocity": 0.41732283464566927,
                    "duration": 0.22154950000000895
                },
                {
                    "name": "A#3",
                    "midi": 58,
                    "time": 211.1366734999991,
                    "velocity": 0.4566929133858268,
                    "duration": 0.22154950000000895
                },
                {
                    "name": "C4",
                    "midi": 60,
                    "time": 211.3582229999991,
                    "velocity": 0.4645669291338583,
                    "duration": 0.22154950000000895
                },
                {
                    "name": "C#4",
                    "midi": 61,
                    "time": 211.5797724999991,
                    "velocity": 0.4645669291338583,
                    "duration": 0.22154950000000895
                },
                {
                    "name": "D#4",
                    "midi": 63,
                    "time": 211.80132199999912,
                    "velocity": 0.5039370078740157,
                    "duration": 0.22154950000000895
                },
                {
                    "name": "C#4",
                    "midi": 61,
                    "time": 212.02287149999913,
                    "velocity": 0.4409448818897638,
                    "duration": 0.22154950000000895
                },
                {
                    "name": "D#4",
                    "midi": 63,
                    "time": 212.24442099999914,
                    "velocity": 0.5275590551181102,
                    "duration": 0.22154950000000895
                },
                {
                    "name": "C4",
                    "midi": 60,
                    "time": 212.46597049999914,
                    "velocity": 0.44881889763779526,
                    "duration": 0.22154950000000895
                },
                {
                    "name": "C#4",
                    "midi": 61,
                    "time": 212.68751999999915,
                    "velocity": 0.5590551181102362,
                    "duration": 0.4430989999999895
                },
                {
                    "name": "G#4",
                    "midi": 68,
                    "time": 213.57371799999913,
                    "velocity": 0.5590551181102362,
                    "duration": 0.22154950000000895
                },
                {
                    "name": "A4",
                    "midi": 69,
                    "time": 214.01681699999915,
                    "velocity": 0.5826771653543307,
                    "duration": 0.22154950000000895
                },
                {
                    "name": "A#4",
                    "midi": 70,
                    "time": 214.45991599999917,
                    "velocity": 0.6299212598425197,
                    "duration": 0.4430989999999895
                },
                {
                    "name": "F4",
                    "midi": 65,
                    "time": 215.34611399999915,
                    "velocity": 0.5590551181102362,
                    "duration": 0.22154950000000895
                },
                {
                    "name": "F4",
                    "midi": 65,
                    "time": 215.78921299999917,
                    "velocity": 0.5826771653543307,
                    "duration": 0.22154950000000895
                },
                {
                    "name": "F#4",
                    "midi": 66,
                    "time": 216.23231199999918,
                    "velocity": 0.5590551181102362,
                    "duration": 0.22154950000000895
                },
                {
                    "name": "D#4",
                    "midi": 63,
                    "time": 216.6754109999992,
                    "velocity": 0.5826771653543307,
                    "duration": 0.22154950000000895
                },
                {
                    "name": "C4",
                    "midi": 60,
                    "time": 217.11850999999922,
                    "velocity": 0.5590551181102362,
                    "duration": 0.22154950000000895
                },
                {
                    "name": "C#4",
                    "midi": 61,
                    "time": 217.56160899999924,
                    "velocity": 0.5826771653543307,
                    "duration": 0.22154950000000895
                },
                {
                    "name": "A#3",
                    "midi": 58,
                    "time": 218.00470799999925,
                    "velocity": 0.5590551181102362,
                    "duration": 0.22154950000000895
                },
                {
                    "name": "C4",
                    "midi": 60,
                    "time": 218.44780699999927,
                    "velocity": 0.5826771653543307,
                    "duration": 0.22154950000000895
                },
                {
                    "name": "A3",
                    "midi": 57,
                    "time": 218.8909059999993,
                    "velocity": 0.5590551181102362,
                    "duration": 0.22154950000000895
                },
                {
                    "name": "A#3",
                    "midi": 58,
                    "time": 219.3340049999993,
                    "velocity": 0.5669291338582677,
                    "duration": 0.22154950000000895
                },
                {
                    "name": "G3",
                    "midi": 55,
                    "time": 219.77710399999933,
                    "velocity": 0.5275590551181102,
                    "duration": 0.22154950000000895
                },
                {
                    "name": "G#3",
                    "midi": 56,
                    "time": 220.22020299999934,
                    "velocity": 0.5354330708661418,
                    "duration": 0.22154950000000895
                },
                {
                    "name": "F3",
                    "midi": 53,
                    "time": 220.66330199999936,
                    "velocity": 0.49606299212598426,
                    "duration": 0.22154950000000895
                },
                {
                    "name": "G#3",
                    "midi": 56,
                    "time": 221.10640099999938,
                    "velocity": 0.5118110236220472,
                    "duration": 0.22154950000000895
                },
                {
                    "name": "B3",
                    "midi": 59,
                    "time": 221.5494999999994,
                    "velocity": 0.4881889763779528,
                    "duration": 0.22154950000000895
                },
                {
                    "name": "G#3",
                    "midi": 56,
                    "time": 221.99259899999942,
                    "velocity": 0.5118110236220472,
                    "duration": 0.22154950000000895
                },
                {
                    "name": "F3",
                    "midi": 53,
                    "time": 222.43569799999943,
                    "velocity": 0.4881889763779528,
                    "duration": 0.22154950000000895
                },
                {
                    "name": "G#3",
                    "midi": 56,
                    "time": 222.87879699999945,
                    "velocity": 0.5039370078740157,
                    "duration": 0.22154950000000895
                },
                {
                    "name": "B3",
                    "midi": 59,
                    "time": 223.32189599999947,
                    "velocity": 0.48031496062992124,
                    "duration": 0.22154950000000895
                },
                {
                    "name": "G#3",
                    "midi": 56,
                    "time": 223.7649949999995,
                    "velocity": 0.5039370078740157,
                    "duration": 0.22154950000000895
                },
                {
                    "name": "D#2",
                    "midi": 39,
                    "time": 224.2080939999995,
                    "velocity": 0.3779527559055118,
                    "duration": 0.22154950000000895
                },
                {
                    "name": "D#3",
                    "midi": 51,
                    "time": 224.2080939999995,
                    "velocity": 0.4251968503937008,
                    "duration": 0.22154950000000895
                },
                {
                    "name": "G3",
                    "midi": 55,
                    "time": 224.65119299999952,
                    "velocity": 0.4409448818897638,
                    "duration": 0.22154950000000895
                },
                {
                    "name": "A#3",
                    "midi": 58,
                    "time": 225.09429199999954,
                    "velocity": 0.4251968503937008,
                    "duration": 0.22154950000000895
                },
                {
                    "name": "G3",
                    "midi": 55,
                    "time": 225.53739099999956,
                    "velocity": 0.4330708661417323,
                    "duration": 0.22154950000000895
                },
                {
                    "name": "D#2",
                    "midi": 39,
                    "time": 225.98048999999958,
                    "velocity": 0.3700787401574803,
                    "duration": 0.22154950000000895
                },
                {
                    "name": "D#3",
                    "midi": 51,
                    "time": 225.98048999999958,
                    "velocity": 0.41732283464566927,
                    "duration": 0.22154950000000895
                },
                {
                    "name": "G3",
                    "midi": 55,
                    "time": 226.4235889999996,
                    "velocity": 0.4094488188976378,
                    "duration": 0.22154950000000895
                },
                {
                    "name": "A#3",
                    "midi": 58,
                    "time": 226.8666879999996,
                    "velocity": 0.3700787401574803,
                    "duration": 0.22154950000000895
                },
                {
                    "name": "G3",
                    "midi": 55,
                    "time": 227.30978699999963,
                    "velocity": 0.3700787401574803,
                    "duration": 0.22154950000000895
                },
                {
                    "name": "D#2",
                    "midi": 39,
                    "time": 227.75288599999965,
                    "velocity": 0.2992125984251969,
                    "duration": 0.22154950000000895
                },
                {
                    "name": "D#3",
                    "midi": 51,
                    "time": 227.75288599999965,
                    "velocity": 0.33858267716535434,
                    "duration": 0.22154950000000895
                },
                {
                    "name": "C3",
                    "midi": 48,
                    "time": 229.74683149999964,
                    "velocity": 0.33858267716535434,
                    "duration": 0.22154950000000895
                },
                {
                    "name": "A#2",
                    "midi": 46,
                    "time": 229.96838099999965,
                    "velocity": 0.33858267716535434,
                    "duration": 0.22154950000000895
                },
                {
                    "name": "G#2",
                    "midi": 44,
                    "time": 230.18993049999966,
                    "velocity": 0.31496062992125984,
                    "duration": 0.22154950000000895
                },
                {
                    "name": "G2",
                    "midi": 43,
                    "time": 230.41147999999967,
                    "velocity": 0.3543307086614173,
                    "duration": 0.22154950000000895
                },
                {
                    "name": "D#2",
                    "midi": 39,
                    "time": 230.63302949999968,
                    "velocity": 0.30708661417322836,
                    "duration": 0.1661621249999996
                },
                {
                    "name": "G#2",
                    "midi": 44,
                    "time": 230.8545789999997,
                    "velocity": 0.3228346456692913,
                    "duration": 0.22154950000000895
                },
                {
                    "name": "D#2",
                    "midi": 39,
                    "time": 231.0761284999997,
                    "velocity": 0.2992125984251969,
                    "duration": 0.1661621249999996
                },
                {
                    "name": "A#2",
                    "midi": 46,
                    "time": 231.2976779999997,
                    "velocity": 0.3228346456692913,
                    "duration": 0.22154950000000895
                },
                {
                    "name": "D#2",
                    "midi": 39,
                    "time": 231.51922749999972,
                    "velocity": 0.2992125984251969,
                    "duration": 0.1661621249999996
                },
                {
                    "name": "G#2",
                    "midi": 44,
                    "time": 231.74077699999972,
                    "velocity": 0.3228346456692913,
                    "duration": 0.22154950000000895
                },
                {
                    "name": "C3",
                    "midi": 48,
                    "time": 233.29162349999973,
                    "velocity": 0.33858267716535434,
                    "duration": 0.22154950000000895
                },
                {
                    "name": "A#2",
                    "midi": 46,
                    "time": 233.51317299999974,
                    "velocity": 0.33858267716535434,
                    "duration": 0.22154950000000895
                },
                {
                    "name": "G#2",
                    "midi": 44,
                    "time": 233.73472249999975,
                    "velocity": 0.31496062992125984,
                    "duration": 0.22154950000000895
                },
                {
                    "name": "C#3",
                    "midi": 49,
                    "time": 233.95627199999976,
                    "velocity": 0.3543307086614173,
                    "duration": 0.22154950000000895
                },
                {
                    "name": "A#2",
                    "midi": 46,
                    "time": 234.17782149999977,
                    "velocity": 0.30708661417322836,
                    "duration": 0.1661621249999996
                },
                {
                    "name": "D#3",
                    "midi": 51,
                    "time": 234.39937099999977,
                    "velocity": 0.3228346456692913,
                    "duration": 0.22154950000000895
                },
                {
                    "name": "D#2",
                    "midi": 39,
                    "time": 234.62092049999978,
                    "velocity": 0.2992125984251969,
                    "duration": 0.1661621249999996
                },
                {
                    "name": "G#2",
                    "midi": 44,
                    "time": 234.8424699999998,
                    "velocity": 0.33070866141732286,
                    "duration": 0.22154950000000895
                },
                {
                    "name": "D#2",
                    "midi": 39,
                    "time": 235.0640194999998,
                    "velocity": 0.2755905511811024,
                    "duration": 0.22154950000000895
                },
                {
                    "name": "G#1",
                    "midi": 32,
                    "time": 235.2855689999998,
                    "velocity": 0.30708661417322836,
                    "duration": 0.22154950000000895
                },
                {
                    "name": "C4",
                    "midi": 60,
                    "time": 236.83641549999982,
                    "velocity": 0.41732283464566927,
                    "duration": 0.22154950000000895
                },
                {
                    "name": "A#3",
                    "midi": 58,
                    "time": 237.05796499999983,
                    "velocity": 0.41732283464566927,
                    "duration": 0.22154950000000895
                },
                {
                    "name": "G#3",
                    "midi": 56,
                    "time": 237.27951449999983,
                    "velocity": 0.3937007874015748,
                    "duration": 0.22154950000000895
                },
                {
                    "name": "G3",
                    "midi": 55,
                    "time": 237.50106399999984,
                    "velocity": 0.4330708661417323,
                    "duration": 0.22154950000000895
                },
                {
                    "name": "D#3",
                    "midi": 51,
                    "time": 237.72261349999985,
                    "velocity": 0.3858267716535433,
                    "duration": 0.1661621249999996
                },
                {
                    "name": "G#3",
                    "midi": 56,
                    "time": 237.94416299999986,
                    "velocity": 0.4015748031496063,
                    "duration": 0.22154950000000895
                },
                {
                    "name": "D#3",
                    "midi": 51,
                    "time": 238.16571249999987,
                    "velocity": 0.3700787401574803,
                    "duration": 0.1661621249999996
                },
                {
                    "name": "A#3",
                    "midi": 58,
                    "time": 238.38726199999988,
                    "velocity": 0.4015748031496063,
                    "duration": 0.22154950000000895
                },
                {
                    "name": "D#3",
                    "midi": 51,
                    "time": 238.6088114999999,
                    "velocity": 0.3700787401574803,
                    "duration": 0.1661621249999996
                },
                {
                    "name": "G#3",
                    "midi": 56,
                    "time": 238.8303609999999,
                    "velocity": 0.4015748031496063,
                    "duration": 0.22154950000000895
                },
                {
                    "name": "C4",
                    "midi": 60,
                    "time": 240.3812074999999,
                    "velocity": 0.41732283464566927,
                    "duration": 0.22154950000000895
                },
                {
                    "name": "A#3",
                    "midi": 58,
                    "time": 240.6027569999999,
                    "velocity": 0.41732283464566927,
                    "duration": 0.22154950000000895
                },
                {
                    "name": "G#3",
                    "midi": 56,
                    "time": 240.82430649999992,
                    "velocity": 0.3937007874015748,
                    "duration": 0.22154950000000895
                },
                {
                    "name": "C#4",
                    "midi": 61,
                    "time": 241.04585599999993,
                    "velocity": 0.4330708661417323,
                    "duration": 0.22154950000000895
                },
                {
                    "name": "A#3",
                    "midi": 58,
                    "time": 241.26740549999994,
                    "velocity": 0.3858267716535433,
                    "duration": 0.1661621249999996
                },
                {
                    "name": "D#4",
                    "midi": 63,
                    "time": 241.48895499999995,
                    "velocity": 0.4015748031496063,
                    "duration": 0.22154950000000895
                },
                {
                    "name": "D#3",
                    "midi": 51,
                    "time": 241.71050449999996,
                    "velocity": 0.3700787401574803,
                    "duration": 0.1661621249999996
                },
                {
                    "name": "G#3",
                    "midi": 56,
                    "time": 241.93205399999997,
                    "velocity": 0.4094488188976378,
                    "duration": 0.22154950000000895
                },
                {
                    "name": "D#3",
                    "midi": 51,
                    "time": 242.15360349999997,
                    "velocity": 0.3464566929133858,
                    "duration": 0.22154950000000895
                },
                {
                    "name": "G#2",
                    "midi": 44,
                    "time": 242.37515299999998,
                    "velocity": 0.3858267716535433,
                    "duration": 0.22154950000000895
                },
                {
                    "name": "G#4",
                    "midi": 68,
                    "time": 243.4829005,
                    "velocity": 0.2677165354330709,
                    "duration": 0.22154950000000895
                },
                {
                    "name": "D5",
                    "midi": 74,
                    "time": 243.4829005,
                    "velocity": 0.3228346456692913,
                    "duration": 0.22154950000000895
                },
                {
                    "name": "D#5",
                    "midi": 75,
                    "time": 243.70445,
                    "velocity": 0.3543307086614173,
                    "duration": 0.22062637708333455
                },
                {
                    "name": "G4",
                    "midi": 67,
                    "time": 243.70445,
                    "velocity": 0.2992125984251969,
                    "duration": 0.22154950000000895
                },
                {
                    "name": "F4",
                    "midi": 65,
                    "time": 245.25529650000001,
                    "velocity": 0.2677165354330709,
                    "duration": 0.22154950000000895
                },
                {
                    "name": "B4",
                    "midi": 71,
                    "time": 245.25529650000001,
                    "velocity": 0.3228346456692913,
                    "duration": 0.22154950000000895
                },
                {
                    "name": "C5",
                    "midi": 72,
                    "time": 245.47684600000002,
                    "velocity": 0.3543307086614173,
                    "duration": 0.4403296312499947
                },
                {
                    "name": "D#4",
                    "midi": 63,
                    "time": 245.47684600000002,
                    "velocity": 0.2992125984251969,
                    "duration": 0.4430989999999895
                },
                {
                    "name": "C#4",
                    "midi": 61,
                    "time": 247.0276925,
                    "velocity": 0.2677165354330709,
                    "duration": 0.22154950000000895
                },
                {
                    "name": "G4",
                    "midi": 67,
                    "time": 247.0276925,
                    "velocity": 0.3228346456692913,
                    "duration": 0.22154950000000895
                },
                {
                    "name": "G#4",
                    "midi": 68,
                    "time": 247.249242,
                    "velocity": 0.3543307086614173,
                    "duration": 0.4412527541666691
                },
                {
                    "name": "C4",
                    "midi": 60,
                    "time": 247.249242,
                    "velocity": 0.2992125984251969,
                    "duration": 0.4430989999999895
                },
                {
                    "name": "A#3",
                    "midi": 58,
                    "time": 248.13544,
                    "velocity": 0.2992125984251969,
                    "duration": 0.4430989999999895
                },
                {
                    "name": "F4",
                    "midi": 65,
                    "time": 248.13544,
                    "velocity": 0.3543307086614173,
                    "duration": 0.4430989999999895
                },
                {
                    "name": "D#4",
                    "midi": 63,
                    "time": 249.02163799999997,
                    "velocity": 0.2992125984251969,
                    "duration": 0.4430989999999895
                },
                {
                    "name": "G4",
                    "midi": 67,
                    "time": 249.02163799999997,
                    "velocity": 0.3543307086614173,
                    "duration": 0.4430989999999895
                },
                {
                    "name": "A#3",
                    "midi": 58,
                    "time": 249.90783599999995,
                    "velocity": 0.2992125984251969,
                    "duration": 0.4430989999999895
                },
                {
                    "name": "F4",
                    "midi": 65,
                    "time": 249.90783599999995,
                    "velocity": 0.3543307086614173,
                    "duration": 0.4430989999999895
                },
                {
                    "name": "D#4",
                    "midi": 63,
                    "time": 251.01558349999993,
                    "velocity": 0.2755905511811024,
                    "duration": 0.05538737500000934
                },
                {
                    "name": "D#3",
                    "midi": 51,
                    "time": 251.23713299999994,
                    "velocity": 0.25984251968503935,
                    "duration": 0.05538737500000934
                },
                {
                    "name": "D#2",
                    "midi": 39,
                    "time": 251.45868249999995,
                    "velocity": 0.25984251968503935,
                    "duration": 0.11077474999999026
                },
                {
                    "name": "C4",
                    "midi": 60,
                    "time": 254.56037549999994,
                    "velocity": 0.41732283464566927,
                    "duration": 0.22154950000000895
                },
                {
                    "name": "A#3",
                    "midi": 58,
                    "time": 254.78192499999994,
                    "velocity": 0.41732283464566927,
                    "duration": 0.22154950000000895
                },
                {
                    "name": "G#3",
                    "midi": 56,
                    "time": 255.00347449999995,
                    "velocity": 0.3937007874015748,
                    "duration": 0.22154950000000895
                },
                {
                    "name": "G3",
                    "midi": 55,
                    "time": 255.22502399999996,
                    "velocity": 0.4330708661417323,
                    "duration": 0.22154950000000895
                },
                {
                    "name": "D#3",
                    "midi": 51,
                    "time": 255.44657349999997,
                    "velocity": 0.3858267716535433,
                    "duration": 0.1661621249999996
                },
                {
                    "name": "G#3",
                    "midi": 56,
                    "time": 255.66812299999998,
                    "velocity": 0.4015748031496063,
                    "duration": 0.22154950000000895
                },
                {
                    "name": "D#3",
                    "midi": 51,
                    "time": 255.8896725,
                    "velocity": 0.3700787401574803,
                    "duration": 0.1661621249999996
                },
                {
                    "name": "A#3",
                    "midi": 58,
                    "time": 256.111222,
                    "velocity": 0.4015748031496063,
                    "duration": 0.22154949999998053
                },
                {
                    "name": "D#3",
                    "midi": 51,
                    "time": 256.3327715,
                    "velocity": 0.3700787401574803,
                    "duration": 0.16616212500002803
                },
                {
                    "name": "G#3",
                    "midi": 56,
                    "time": 256.554321,
                    "velocity": 0.4015748031496063,
                    "duration": 0.22154949999998053
                },
                {
                    "name": "C4",
                    "midi": 60,
                    "time": 258.1051675,
                    "velocity": 0.41732283464566927,
                    "duration": 0.22154949999998053
                },
                {
                    "name": "A#3",
                    "midi": 58,
                    "time": 258.326717,
                    "velocity": 0.41732283464566927,
                    "duration": 0.22154949999998053
                },
                {
                    "name": "G#3",
                    "midi": 56,
                    "time": 258.54826649999995,
                    "velocity": 0.3937007874015748,
                    "duration": 0.22154949999998053
                },
                {
                    "name": "C#4",
                    "midi": 61,
                    "time": 258.76981599999993,
                    "velocity": 0.4330708661417323,
                    "duration": 0.22154949999998053
                },
                {
                    "name": "A#3",
                    "midi": 58,
                    "time": 258.9913654999999,
                    "velocity": 0.3858267716535433,
                    "duration": 0.16616212500002803
                },
                {
                    "name": "D#4",
                    "midi": 63,
                    "time": 259.21291499999995,
                    "velocity": 0.4015748031496063,
                    "duration": 0.22154949999998053
                },
                {
                    "name": "D#3",
                    "midi": 51,
                    "time": 259.43446449999993,
                    "velocity": 0.3700787401574803,
                    "duration": 0.16616212500002803
                },
                {
                    "name": "G#3",
                    "midi": 56,
                    "time": 259.65601399999997,
                    "velocity": 0.4094488188976378,
                    "duration": 0.22154949999998053
                },
                {
                    "name": "D#3",
                    "midi": 51,
                    "time": 259.87756349999995,
                    "velocity": 0.3464566929133858,
                    "duration": 0.22154949999998053
                },
                {
                    "name": "G#2",
                    "midi": 44,
                    "time": 260.09911299999993,
                    "velocity": 0.3858267716535433,
                    "duration": 0.22154949999998053
                },
                {
                    "name": "D5",
                    "midi": 74,
                    "time": 261.2068604999999,
                    "velocity": 0.3228346456692913,
                    "duration": 0.22154949999998053
                },
                {
                    "name": "G#4",
                    "midi": 68,
                    "time": 261.2068604999999,
                    "velocity": 0.2677165354330709,
                    "duration": 0.22154949999998053
                },
                {
                    "name": "G4",
                    "midi": 67,
                    "time": 261.4284099999999,
                    "velocity": 0.2992125984251969,
                    "duration": 0.4430990000000179
                },
                {
                    "name": "D#5",
                    "midi": 75,
                    "time": 261.4284099999999,
                    "velocity": 0.3543307086614173,
                    "duration": 0.4403296312499947
                },
                {
                    "name": "F4",
                    "midi": 65,
                    "time": 262.9792564999999,
                    "velocity": 0.2677165354330709,
                    "duration": 0.22154949999998053
                },
                {
                    "name": "B4",
                    "midi": 71,
                    "time": 262.9792564999999,
                    "velocity": 0.3228346456692913,
                    "duration": 0.22154949999998053
                },
                {
                    "name": "C5",
                    "midi": 72,
                    "time": 263.2008059999999,
                    "velocity": 0.3543307086614173,
                    "duration": 0.4403296312499947
                },
                {
                    "name": "D#4",
                    "midi": 63,
                    "time": 263.2008059999999,
                    "velocity": 0.2992125984251969,
                    "duration": 0.4430990000000179
                },
                {
                    "name": "C#4",
                    "midi": 61,
                    "time": 264.7516524999999,
                    "velocity": 0.2677165354330709,
                    "duration": 0.22154949999998053
                },
                {
                    "name": "G4",
                    "midi": 67,
                    "time": 264.7516524999999,
                    "velocity": 0.3228346456692913,
                    "duration": 0.22154949999998053
                },
                {
                    "name": "C4",
                    "midi": 60,
                    "time": 264.9732019999999,
                    "velocity": 0.2992125984251969,
                    "duration": 0.4430990000000179
                },
                {
                    "name": "G#4",
                    "midi": 68,
                    "time": 264.9732019999999,
                    "velocity": 0.3543307086614173,
                    "duration": 0.4412527541666691
                },
                {
                    "name": "A#3",
                    "midi": 58,
                    "time": 265.85939999999994,
                    "velocity": 0.2992125984251969,
                    "duration": 0.4430990000000179
                },
                {
                    "name": "F4",
                    "midi": 65,
                    "time": 265.85939999999994,
                    "velocity": 0.3543307086614173,
                    "duration": 0.4430990000000179
                },
                {
                    "name": "D#4",
                    "midi": 63,
                    "time": 266.745598,
                    "velocity": 0.2992125984251969,
                    "duration": 0.4430990000000179
                },
                {
                    "name": "G4",
                    "midi": 67,
                    "time": 266.745598,
                    "velocity": 0.3543307086614173,
                    "duration": 0.4430990000000179
                },
                {
                    "name": "A#3",
                    "midi": 58,
                    "time": 267.631796,
                    "velocity": 0.2992125984251969,
                    "duration": 0.4430990000000179
                },
                {
                    "name": "F4",
                    "midi": 65,
                    "time": 267.631796,
                    "velocity": 0.3543307086614173,
                    "duration": 0.4430990000000179
                },
                {
                    "name": "D#4",
                    "midi": 63,
                    "time": 268.7395435,
                    "velocity": 0.2755905511811024,
                    "duration": 0.05538737500000934
                },
                {
                    "name": "D#3",
                    "midi": 51,
                    "time": 268.96109300000006,
                    "velocity": 0.25984251968503935,
                    "duration": 0.05538737500000934
                },
                {
                    "name": "D#2",
                    "midi": 39,
                    "time": 269.1826425000001,
                    "velocity": 0.25984251968503935,
                    "duration": 0.11077475000001868
                },
                {
                    "name": "C4",
                    "midi": 60,
                    "time": 272.2843355000001,
                    "velocity": 0.41732283464566927,
                    "duration": 0.22154949999998053
                },
                {
                    "name": "A#3",
                    "midi": 58,
                    "time": 272.5058850000001,
                    "velocity": 0.41732283464566927,
                    "duration": 0.22154949999998053
                },
                {
                    "name": "G#3",
                    "midi": 56,
                    "time": 272.7274345000001,
                    "velocity": 0.3937007874015748,
                    "duration": 0.22154949999998053
                },
                {
                    "name": "G3",
                    "midi": 55,
                    "time": 272.94898400000005,
                    "velocity": 0.4330708661417323,
                    "duration": 0.22154949999998053
                },
                {
                    "name": "D#3",
                    "midi": 51,
                    "time": 273.17053350000003,
                    "velocity": 0.3858267716535433,
                    "duration": 0.16616212500002803
                },
                {
                    "name": "G#3",
                    "midi": 56,
                    "time": 273.39208300000007,
                    "velocity": 0.4015748031496063,
                    "duration": 0.22154949999998053
                },
                {
                    "name": "D#3",
                    "midi": 51,
                    "time": 273.61363250000005,
                    "velocity": 0.3700787401574803,
                    "duration": 0.16616212500002803
                },
                {
                    "name": "A#3",
                    "midi": 58,
                    "time": 273.8351820000001,
                    "velocity": 0.4015748031496063,
                    "duration": 0.22154949999998053
                },
                {
                    "name": "D#3",
                    "midi": 51,
                    "time": 274.05673150000007,
                    "velocity": 0.3700787401574803,
                    "duration": 0.16616212500002803
                },
                {
                    "name": "G#3",
                    "midi": 56,
                    "time": 274.2782810000001,
                    "velocity": 0.4015748031496063,
                    "duration": 0.22154949999998053
                },
                {
                    "name": "C4",
                    "midi": 60,
                    "time": 275.8291275000001,
                    "velocity": 0.41732283464566927,
                    "duration": 0.22154949999998053
                },
                {
                    "name": "A#3",
                    "midi": 58,
                    "time": 276.05067700000006,
                    "velocity": 0.41732283464566927,
                    "duration": 0.22154949999998053
                },
                {
                    "name": "G#3",
                    "midi": 56,
                    "time": 276.27222650000004,
                    "velocity": 0.3937007874015748,
                    "duration": 0.22154949999998053
                },
                {
                    "name": "C#4",
                    "midi": 61,
                    "time": 276.493776,
                    "velocity": 0.4330708661417323,
                    "duration": 0.22154949999998053
                },
                {
                    "name": "A#3",
                    "midi": 58,
                    "time": 276.7153255,
                    "velocity": 0.3858267716535433,
                    "duration": 0.16616212500002803
                },
                {
                    "name": "D#4",
                    "midi": 63,
                    "time": 276.93687500000004,
                    "velocity": 0.4015748031496063,
                    "duration": 0.22154949999998053
                },
                {
                    "name": "D#3",
                    "midi": 51,
                    "time": 277.1584245,
                    "velocity": 0.3700787401574803,
                    "duration": 0.16616212500002803
                },
                {
                    "name": "G#3",
                    "midi": 56,
                    "time": 277.37997400000006,
                    "velocity": 0.4094488188976378,
                    "duration": 0.22154949999998053
                },
                {
                    "name": "G#2",
                    "midi": 44,
                    "time": 277.60152350000004,
                    "velocity": 0.3464566929133858,
                    "duration": 0.22154949999998053
                },
                {
                    "name": "G#3",
                    "midi": 56,
                    "time": 277.823073,
                    "velocity": 0.3779527559055118,
                    "duration": 0.11077475000001868
                },
                {
                    "name": "C#4",
                    "midi": 61,
                    "time": 277.823073,
                    "velocity": 0.44881889763779526,
                    "duration": 0.11077475000001868
                },
                {
                    "name": "C#4",
                    "midi": 61,
                    "time": 278.04462250000006,
                    "velocity": 0.3858267716535433,
                    "duration": 0.11077475000001868
                },
                {
                    "name": "G#3",
                    "midi": 56,
                    "time": 278.04462250000006,
                    "velocity": 0.31496062992125984,
                    "duration": 0.11077475000001868
                },
                {
                    "name": "G#3",
                    "midi": 56,
                    "time": 278.2661720000001,
                    "velocity": 0.3700787401574803,
                    "duration": 0.11077475000001868
                },
                {
                    "name": "C4",
                    "midi": 60,
                    "time": 278.2661720000001,
                    "velocity": 0.4409448818897638,
                    "duration": 0.11077475000001868
                },
                {
                    "name": "C4",
                    "midi": 60,
                    "time": 278.48772150000013,
                    "velocity": 0.3779527559055118,
                    "duration": 0.11077475000001868
                },
                {
                    "name": "G#3",
                    "midi": 56,
                    "time": 278.48772150000013,
                    "velocity": 0.30708661417322836,
                    "duration": 0.11077475000001868
                },
                {
                    "name": "F4",
                    "midi": 65,
                    "time": 278.7092710000002,
                    "velocity": 0.44881889763779526,
                    "duration": 0.11077475000001868
                },
                {
                    "name": "G#3",
                    "midi": 56,
                    "time": 278.7092710000002,
                    "velocity": 0.3779527559055118,
                    "duration": 0.11077475000001868
                },
                {
                    "name": "G#3",
                    "midi": 56,
                    "time": 278.9308205000002,
                    "velocity": 0.31496062992125984,
                    "duration": 0.11077475000001868
                },
                {
                    "name": "F4",
                    "midi": 65,
                    "time": 278.9308205000002,
                    "velocity": 0.3858267716535433,
                    "duration": 0.11077475000001868
                },
                {
                    "name": "G#3",
                    "midi": 56,
                    "time": 279.15237000000025,
                    "velocity": 0.3700787401574803,
                    "duration": 0.11077475000001868
                },
                {
                    "name": "D#4",
                    "midi": 63,
                    "time": 279.15237000000025,
                    "velocity": 0.4409448818897638,
                    "duration": 0.11077475000001868
                },
                {
                    "name": "G#3",
                    "midi": 56,
                    "time": 279.3739195000003,
                    "velocity": 0.30708661417322836,
                    "duration": 0.11077475000001868
                },
                {
                    "name": "D#4",
                    "midi": 63,
                    "time": 279.3739195000003,
                    "velocity": 0.3779527559055118,
                    "duration": 0.11077475000001868
                },
                {
                    "name": "G#3",
                    "midi": 56,
                    "time": 279.5954690000003,
                    "velocity": 0.3779527559055118,
                    "duration": 0.11077475000001868
                },
                {
                    "name": "C#4",
                    "midi": 61,
                    "time": 279.5954690000003,
                    "velocity": 0.44881889763779526,
                    "duration": 0.11077475000001868
                },
                {
                    "name": "G#3",
                    "midi": 56,
                    "time": 279.81701850000036,
                    "velocity": 0.31496062992125984,
                    "duration": 0.11077475000001868
                },
                {
                    "name": "C#4",
                    "midi": 61,
                    "time": 279.81701850000036,
                    "velocity": 0.3858267716535433,
                    "duration": 0.11077475000001868
                },
                {
                    "name": "G#3",
                    "midi": 56,
                    "time": 280.0385680000004,
                    "velocity": 0.3700787401574803,
                    "duration": 0.22154949999998053
                },
                {
                    "name": "C4",
                    "midi": 60,
                    "time": 280.0385680000004,
                    "velocity": 0.4409448818897638,
                    "duration": 0.22154949999998053
                },
                {
                    "name": "C2",
                    "midi": 36,
                    "time": 280.9247660000004,
                    "velocity": 0.1968503937007874,
                    "duration": 0.4430990000000179
                },
                {
                    "name": "C3",
                    "midi": 48,
                    "time": 280.9247660000004,
                    "velocity": 0.23622047244094488,
                    "duration": 0.4430990000000179
                },
                {
                    "name": "C#2",
                    "midi": 37,
                    "time": 281.8109640000004,
                    "velocity": 0.1968503937007874,
                    "duration": 0.4430990000000179
                },
                {
                    "name": "C#3",
                    "midi": 49,
                    "time": 281.8109640000004,
                    "velocity": 0.23622047244094488,
                    "duration": 0.4430990000000179
                },
                {
                    "name": "D#2",
                    "midi": 39,
                    "time": 282.69716200000045,
                    "velocity": 0.1968503937007874,
                    "duration": 0.4430990000000179
                },
                {
                    "name": "D#3",
                    "midi": 51,
                    "time": 282.69716200000045,
                    "velocity": 0.23622047244094488,
                    "duration": 0.4430990000000179
                },
                {
                    "name": "G#1",
                    "midi": 32,
                    "time": 283.5833600000005,
                    "velocity": 0.1968503937007874,
                    "duration": 0.4430990000000179
                },
                {
                    "name": "G#2",
                    "midi": 44,
                    "time": 283.5833600000005,
                    "velocity": 0.23622047244094488,
                    "duration": 0.4430990000000179
                },
                {
                    "name": "G#1",
                    "midi": 32,
                    "time": 285.7988550000005,
                    "velocity": 0.3937007874015748,
                    "duration": 0.4430990000000179
                },
                {
                    "name": "G#2",
                    "midi": 44,
                    "time": 285.7988550000005,
                    "velocity": 0.4645669291338583,
                    "duration": 0.4430990000000179
                }
            ],
            "controlChanges": {
                "64": [
                    {
                        "number": 64,
                        "time": 175.52259137499894,
                        "value": 1
                    },
                    {
                        "number": 64,
                        "time": 175.69706160624895,
                        "value": 0
                    },
                    {
                        "number": 64,
                        "time": 175.76075708749894,
                        "value": 1
                    },
                    {
                        "number": 64,
                        "time": 175.92599608958227,
                        "value": 0
                    },
                    {
                        "number": 64,
                        "time": 175.9887684479156,
                        "value": 1
                    },
                    {
                        "number": 64,
                        "time": 176.13923748333227,
                        "value": 0
                    },
                    {
                        "number": 64,
                        "time": 176.1909323666656,
                        "value": 1
                    },
                    {
                        "number": 64,
                        "time": 176.35524824583229,
                        "value": 0
                    },
                    {
                        "number": 64,
                        "time": 177.7870118895823,
                        "value": 1
                    },
                    {
                        "number": 64,
                        "time": 178.12579799999895,
                        "value": 0
                    },
                    {
                        "number": 64,
                        "time": 195.89591414583242,
                        "value": 1
                    },
                    {
                        "number": 64,
                        "time": 196.0796156062491,
                        "value": 0
                    },
                    {
                        "number": 64,
                        "time": 196.13038736666576,
                        "value": 1
                    },
                    {
                        "number": 64,
                        "time": 196.30578072083242,
                        "value": 0
                    },
                    {
                        "number": 64,
                        "time": 196.3842461687491,
                        "value": 1
                    },
                    {
                        "number": 64,
                        "time": 196.52917646666575,
                        "value": 0
                    },
                    {
                        "number": 64,
                        "time": 196.59287194791574,
                        "value": 1
                    },
                    {
                        "number": 64,
                        "time": 196.73595599999908,
                        "value": 0
                    },
                    {
                        "number": 64,
                        "time": 198.18895147083242,
                        "value": 1
                    },
                    {
                        "number": 64,
                        "time": 198.52035259791575,
                        "value": 0
                    }
                ]
            },
            "id": 2,
            "name": "Piano left",
            "instrumentNumber": 0,
            "instrument": "acoustic grand piano",
            "instrumentFamily": "piano",
            "channelNumber": 0,
            "isPercussion": false
        },
        {
            "startTime": 0,
            "duration": 0,
            "length": 0,
            "notes": [],
            "controlChanges": {
                "64": [
                    {
                        "number": 64,
                        "time": 29.297152006250002,
                        "value": 1
                    },
                    {
                        "number": 64,
                        "time": 29.476237852083337,
                        "value": 0
                    },
                    {
                        "number": 64,
                        "time": 29.50577778541667,
                        "value": 1
                    },
                    {
                        "number": 64,
                        "time": 29.693171737500002,
                        "value": 0
                    },
                    {
                        "number": 64,
                        "time": 45.24871600625,
                        "value": 1
                    },
                    {
                        "number": 64,
                        "time": 45.427801852083334,
                        "value": 0
                    },
                    {
                        "number": 64,
                        "time": 45.457341785416666,
                        "value": 1
                    },
                    {
                        "number": 64,
                        "time": 45.6447357375,
                        "value": 0
                    },
                    {
                        "number": 64,
                        "time": 71.02600033125,
                        "value": 1
                    },
                    {
                        "number": 64,
                        "time": 73.111335,
                        "value": 0
                    },
                    {
                        "number": 64,
                        "time": 119.692117375,
                        "value": 1
                    },
                    {
                        "number": 64,
                        "time": 119.86566448333333,
                        "value": 0
                    },
                    {
                        "number": 64,
                        "time": 119.913666875,
                        "value": 1
                    },
                    {
                        "number": 64,
                        "time": 119.97551611041668,
                        "value": 0
                    },
                    {
                        "number": 64,
                        "time": 120.13521637500001,
                        "value": 1
                    },
                    {
                        "number": 64,
                        "time": 120.42415384791668,
                        "value": 0
                    },
                    {
                        "number": 64,
                        "time": 120.57554600625002,
                        "value": 1
                    },
                    {
                        "number": 64,
                        "time": 120.75186248333335,
                        "value": 0
                    },
                    {
                        "number": 64,
                        "time": 121.46451337500002,
                        "value": 1
                    },
                    {
                        "number": 64,
                        "time": 121.63806048333336,
                        "value": 0
                    },
                    {
                        "number": 64,
                        "time": 121.68606287500003,
                        "value": 1
                    },
                    {
                        "number": 64,
                        "time": 121.86053310625003,
                        "value": 0
                    },
                    {
                        "number": 64,
                        "time": 121.94361416875003,
                        "value": 1
                    },
                    {
                        "number": 64,
                        "time": 122.0885444666667,
                        "value": 0
                    },
                    {
                        "number": 64,
                        "time": 122.16516366875004,
                        "value": 1
                    },
                    {
                        "number": 64,
                        "time": 122.3017858604167,
                        "value": 0
                    },
                    {
                        "number": 64,
                        "time": 122.35071137500003,
                        "value": 1
                    },
                    {
                        "number": 64,
                        "time": 122.52425848333337,
                        "value": 0
                    },
                    {
                        "number": 64,
                        "time": 122.57226087500004,
                        "value": 1
                    },
                    {
                        "number": 64,
                        "time": 122.74673110625004,
                        "value": 0
                    },
                    {
                        "number": 64,
                        "time": 122.82981216875004,
                        "value": 1
                    },
                    {
                        "number": 64,
                        "time": 122.97474246666671,
                        "value": 0
                    },
                    {
                        "number": 64,
                        "time": 123.02920671875005,
                        "value": 1
                    },
                    {
                        "number": 64,
                        "time": 123.18152200000004,
                        "value": 0
                    },
                    {
                        "number": 64,
                        "time": 123.29229675000005,
                        "value": 1
                    },
                    {
                        "number": 64,
                        "time": 123.40953336041672,
                        "value": 0
                    },
                    {
                        "number": 64,
                        "time": 123.50738438958338,
                        "value": 1
                    },
                    {
                        "number": 64,
                        "time": 123.64216033541672,
                        "value": 0
                    },
                    {
                        "number": 64,
                        "time": 123.72247202916672,
                        "value": 1
                    },
                    {
                        "number": 64,
                        "time": 123.85909422083338,
                        "value": 0
                    },
                    {
                        "number": 64,
                        "time": 123.94402152916672,
                        "value": 1
                    },
                    {
                        "number": 64,
                        "time": 124.07510498333339,
                        "value": 0
                    },
                    {
                        "number": 64,
                        "time": 124.16834039791672,
                        "value": 1
                    },
                    {
                        "number": 64,
                        "time": 124.30311634375006,
                        "value": 0
                    },
                    {
                        "number": 64,
                        "time": 124.38988989791673,
                        "value": 1
                    },
                    {
                        "number": 64,
                        "time": 124.52466584375007,
                        "value": 0
                    },
                    {
                        "number": 64,
                        "time": 124.5957463083334,
                        "value": 1
                    },
                    {
                        "number": 64,
                        "time": 124.7452922208334,
                        "value": 0
                    },
                    {
                        "number": 64,
                        "time": 124.81729580833341,
                        "value": 1
                    },
                    {
                        "number": 64,
                        "time": 124.96037986041675,
                        "value": 0
                    },
                    {
                        "number": 64,
                        "time": 124.99638165416675,
                        "value": 1
                    },
                    {
                        "number": 64,
                        "time": 125.40809447500008,
                        "value": 0
                    },
                    {
                        "number": 64,
                        "time": 125.44225002291675,
                        "value": 1
                    },
                    {
                        "number": 64,
                        "time": 125.79488297708342,
                        "value": 0
                    },
                    {
                        "number": 64,
                        "time": 126.01273998541676,
                        "value": 1
                    },
                    {
                        "number": 64,
                        "time": 126.43091466666675,
                        "value": 0
                    },
                    {
                        "number": 64,
                        "time": 126.78170137500008,
                        "value": 1
                    },
                    {
                        "number": 64,
                        "time": 126.95524848333342,
                        "value": 0
                    },
                    {
                        "number": 64,
                        "time": 127.00325087500009,
                        "value": 1
                    },
                    {
                        "number": 64,
                        "time": 127.06510011041676,
                        "value": 0
                    },
                    {
                        "number": 64,
                        "time": 127.2248003750001,
                        "value": 1
                    },
                    {
                        "number": 64,
                        "time": 127.51373784791677,
                        "value": 0
                    },
                    {
                        "number": 64,
                        "time": 127.66513000625011,
                        "value": 1
                    },
                    {
                        "number": 64,
                        "time": 127.84144648333344,
                        "value": 0
                    },
                    {
                        "number": 64,
                        "time": 128.5540973750001,
                        "value": 1
                    },
                    {
                        "number": 64,
                        "time": 128.72764448333345,
                        "value": 0
                    },
                    {
                        "number": 64,
                        "time": 128.77564687500012,
                        "value": 1
                    },
                    {
                        "number": 64,
                        "time": 128.95011710625013,
                        "value": 0
                    },
                    {
                        "number": 64,
                        "time": 129.03319816875015,
                        "value": 1
                    },
                    {
                        "number": 64,
                        "time": 129.1781284666668,
                        "value": 0
                    },
                    {
                        "number": 64,
                        "time": 129.2418239479168,
                        "value": 1
                    },
                    {
                        "number": 64,
                        "time": 129.3941392291668,
                        "value": 0
                    },
                    {
                        "number": 64,
                        "time": 129.44029537500012,
                        "value": 1
                    },
                    {
                        "number": 64,
                        "time": 129.61384248333346,
                        "value": 0
                    },
                    {
                        "number": 64,
                        "time": 129.66184487500013,
                        "value": 1
                    },
                    {
                        "number": 64,
                        "time": 129.83631510625014,
                        "value": 0
                    },
                    {
                        "number": 64,
                        "time": 129.91939616875015,
                        "value": 1
                    },
                    {
                        "number": 64,
                        "time": 130.0643264666668,
                        "value": 0
                    },
                    {
                        "number": 64,
                        "time": 130.11879071875015,
                        "value": 1
                    },
                    {
                        "number": 64,
                        "time": 130.27110600000015,
                        "value": 0
                    },
                    {
                        "number": 64,
                        "time": 130.38188075000014,
                        "value": 1
                    },
                    {
                        "number": 64,
                        "time": 130.4991173604168,
                        "value": 0
                    },
                    {
                        "number": 64,
                        "time": 130.59696838958345,
                        "value": 1
                    },
                    {
                        "number": 64,
                        "time": 130.73174433541678,
                        "value": 0
                    },
                    {
                        "number": 64,
                        "time": 130.81205602916677,
                        "value": 1
                    },
                    {
                        "number": 64,
                        "time": 130.94867822083344,
                        "value": 0
                    },
                    {
                        "number": 64,
                        "time": 131.03360552916678,
                        "value": 1
                    },
                    {
                        "number": 64,
                        "time": 131.16468898333343,
                        "value": 0
                    },
                    {
                        "number": 64,
                        "time": 131.25792439791678,
                        "value": 1
                    },
                    {
                        "number": 64,
                        "time": 131.3927003437501,
                        "value": 0
                    },
                    {
                        "number": 64,
                        "time": 131.47947389791676,
                        "value": 1
                    },
                    {
                        "number": 64,
                        "time": 131.6142498437501,
                        "value": 0
                    },
                    {
                        "number": 64,
                        "time": 131.68533030833342,
                        "value": 1
                    },
                    {
                        "number": 64,
                        "time": 131.83487622083342,
                        "value": 0
                    },
                    {
                        "number": 64,
                        "time": 131.90687980833343,
                        "value": 1
                    },
                    {
                        "number": 64,
                        "time": 132.04996386041677,
                        "value": 0
                    },
                    {
                        "number": 64,
                        "time": 132.08596565416676,
                        "value": 1
                    },
                    {
                        "number": 64,
                        "time": 132.4976784750001,
                        "value": 0
                    },
                    {
                        "number": 64,
                        "time": 132.53183402291677,
                        "value": 1
                    },
                    {
                        "number": 64,
                        "time": 132.88446697708343,
                        "value": 0
                    },
                    {
                        "number": 64,
                        "time": 133.10232398541677,
                        "value": 1
                    },
                    {
                        "number": 64,
                        "time": 133.52049866666678,
                        "value": 0
                    },
                    {
                        "number": 64,
                        "time": 148.06891583333345,
                        "value": 1
                    },
                    {
                        "number": 64,
                        "time": 150.23179282708344,
                        "value": 0
                    },
                    {
                        "number": 64,
                        "time": 151.58786039166677,
                        "value": 1
                    },
                    {
                        "number": 64,
                        "time": 153.3177927375001,
                        "value": 0
                    },
                    {
                        "number": 64,
                        "time": 153.37133386666676,
                        "value": 1
                    },
                    {
                        "number": 64,
                        "time": 155.47882348541677,
                        "value": 0
                    },
                    {
                        "number": 64,
                        "time": 204.38587561041675,
                        "value": 1
                    },
                    {
                        "number": 64,
                        "time": 204.73296982708342,
                        "value": 0
                    },
                    {
                        "number": 64,
                        "time": 205.22684058750008,
                        "value": 1
                    },
                    {
                        "number": 64,
                        "time": 205.6053209833334,
                        "value": 0
                    },
                    {
                        "number": 64,
                        "time": 206.15827161041673,
                        "value": 1
                    },
                    {
                        "number": 64,
                        "time": 206.4915189833334,
                        "value": 0
                    },
                    {
                        "number": 64,
                        "time": 210.96774200625006,
                        "value": 1
                    },
                    {
                        "number": 64,
                        "time": 211.14590472916672,
                        "value": 0
                    },
                    {
                        "number": 64,
                        "time": 211.2216008083334,
                        "value": 1
                    },
                    {
                        "number": 64,
                        "time": 211.3711467208334,
                        "value": 0
                    },
                    {
                        "number": 64,
                        "time": 211.42376472708338,
                        "value": 1
                    },
                    {
                        "number": 64,
                        "time": 211.5862343604167,
                        "value": 0
                    },
                    {
                        "number": 64,
                        "time": 211.63239050625003,
                        "value": 1
                    },
                    {
                        "number": 64,
                        "time": 211.81239947500003,
                        "value": 0
                    },
                    {
                        "number": 64,
                        "time": 211.85394000625004,
                        "value": 1
                    },
                    {
                        "number": 64,
                        "time": 212.03117960625005,
                        "value": 0
                    },
                    {
                        "number": 64,
                        "time": 212.08102824375004,
                        "value": 1
                    },
                    {
                        "number": 64,
                        "time": 212.26011408958337,
                        "value": 0
                    },
                    {
                        "number": 64,
                        "time": 212.30257774375002,
                        "value": 1
                    },
                    {
                        "number": 64,
                        "time": 212.47704797500003,
                        "value": 0
                    },
                    {
                        "number": 64,
                        "time": 212.5139728916667,
                        "value": 1
                    },
                    {
                        "number": 64,
                        "time": 212.6939818604167,
                        "value": 0
                    },
                    {
                        "number": 64,
                        "time": 212.7853710291667,
                        "value": 1
                    },
                    {
                        "number": 64,
                        "time": 213.58664172083337,
                        "value": 0
                    },
                    {
                        "number": 64,
                        "time": 213.70018583958338,
                        "value": 1
                    },
                    {
                        "number": 64,
                        "time": 214.03343321250006,
                        "value": 0
                    },
                    {
                        "number": 64,
                        "time": 214.12759175000005,
                        "value": 1
                    },
                    {
                        "number": 64,
                        "time": 214.4673009833334,
                        "value": 0
                    },
                    {
                        "number": 64,
                        "time": 214.53838144791672,
                        "value": 1
                    },
                    {
                        "number": 64,
                        "time": 215.35165273750005,
                        "value": 0
                    },
                    {
                        "number": 64,
                        "time": 215.41534821875004,
                        "value": 1
                    },
                    {
                        "number": 64,
                        "time": 215.80029047500005,
                        "value": 0
                    },
                    {
                        "number": 64,
                        "time": 215.8686015708334,
                        "value": 1
                    },
                    {
                        "number": 64,
                        "time": 216.2424663520834,
                        "value": 0
                    },
                    {
                        "number": 64,
                        "time": 216.29600748125006,
                        "value": 1
                    },
                    {
                        "number": 64,
                        "time": 216.6855653520834,
                        "value": 0
                    },
                    {
                        "number": 64,
                        "time": 216.74926083333338,
                        "value": 1
                    },
                    {
                        "number": 64,
                        "time": 217.13143372083337,
                        "value": 0
                    },
                    {
                        "number": 64,
                        "time": 217.17666674375005,
                        "value": 1
                    },
                    {
                        "number": 64,
                        "time": 217.58007145833338,
                        "value": 0
                    },
                    {
                        "number": 64,
                        "time": 217.64653630833337,
                        "value": 1
                    },
                    {
                        "number": 64,
                        "time": 218.00470800000002,
                        "value": 0
                    },
                    {
                        "number": 64,
                        "time": 218.06840348125002,
                        "value": 1
                    },
                    {
                        "number": 64,
                        "time": 218.45796135208334,
                        "value": 0
                    },
                    {
                        "number": 64,
                        "time": 218.53273430833335,
                        "value": 1
                    },
                    {
                        "number": 64,
                        "time": 218.8973678604167,
                        "value": 0
                    },
                    {
                        "number": 64,
                        "time": 218.96290958750004,
                        "value": 1
                    },
                    {
                        "number": 64,
                        "time": 219.3432362291667,
                        "value": 0
                    },
                    {
                        "number": 64,
                        "time": 219.42539416875005,
                        "value": 1
                    },
                    {
                        "number": 64,
                        "time": 219.78725835208337,
                        "value": 0
                    },
                    {
                        "number": 64,
                        "time": 219.86203130833337,
                        "value": 1
                    },
                    {
                        "number": 64,
                        "time": 220.23312672083338,
                        "value": 0
                    },
                    {
                        "number": 64,
                        "time": 220.3051303083334,
                        "value": 1
                    },
                    {
                        "number": 64,
                        "time": 220.67161010625006,
                        "value": 0
                    },
                    {
                        "number": 64,
                        "time": 220.74822930833338,
                        "value": 1
                    },
                    {
                        "number": 64,
                        "time": 224.21640210625006,
                        "value": 0
                    },
                    {
                        "number": 64,
                        "time": 224.28655944791672,
                        "value": 1
                    },
                    {
                        "number": 64,
                        "time": 228.11844267500004,
                        "value": 0
                    },
                    {
                        "number": 64,
                        "time": 277.9403096104167,
                        "value": 1
                    },
                    {
                        "number": 64,
                        "time": 278.2874038270834,
                        "value": 0
                    },
                    {
                        "number": 64,
                        "time": 278.78127458750004,
                        "value": 1
                    },
                    {
                        "number": 64,
                        "time": 279.15975498333336,
                        "value": 0
                    },
                    {
                        "number": 64,
                        "time": 279.71270561041666,
                        "value": 1
                    },
                    {
                        "number": 64,
                        "time": 280.04595298333334,
                        "value": 0
                    }
                ]
            },
            "id": 3,
            "name": "Pedale",
            "instrumentNumber": 0,
            "instrument": "acoustic grand piano",
            "instrumentFamily": "piano",
            "channelNumber": 0,
            "isPercussion": false
        },
        {
            "startTime": 0,
            "duration": 0,
            "length": 0,
            "notes": [],
            "controlChanges": {},
            "id": 4,
            "name": "Haydn: Sonata Hoboken XVI:43 3. movement"
        },
        {
            "startTime": 0,
            "duration": 0,
            "length": 0,
            "notes": [],
            "controlChanges": {},
            "id": 5,
            "name": "Copyright  2010 by Bernd Krueger"
        },
        {
            "startTime": 0,
            "duration": 0,
            "length": 0,
            "notes": [],
            "controlChanges": {},
            "id": 6,
            "name": "http://www.piano-midi.de/"
        },
        {
            "startTime": 0,
            "duration": 0,
            "length": 0,
            "notes": [],
            "controlChanges": {},
            "id": 7,
            "name": "Edition: 2012-01-25"
        },
        {
            "startTime": 0,
            "duration": 0,
            "length": 0,
            "notes": [],
            "controlChanges": {},
            "id": 8,
            "name": "Spur 8"
        },
        {
            "startTime": 0,
            "duration": 0,
            "length": 0,
            "notes": [],
            "controlChanges": {},
            "id": 9,
            "name": "Spur 9"
        },
        {
            "startTime": 0,
            "duration": 0,
            "length": 0,
            "notes": [],
            "controlChanges": {},
            "id": 10,
            "name": "Spur 10"
        },
        {
            "startTime": 0,
            "duration": 0,
            "length": 0,
            "notes": [],
            "controlChanges": {},
            "id": 11,
            "name": "Spur 11"
        },
        {
            "startTime": 0,
            "duration": 0,
            "length": 0,
            "notes": [],
            "controlChanges": {},
            "id": 12,
            "name": "Spur 12"
        },
        {
            "startTime": 0,
            "duration": 0,
            "length": 0,
            "notes": [],
            "controlChanges": {},
            "id": 13,
            "name": "Spur 13"
        },
        {
            "startTime": 0,
            "duration": 0,
            "length": 0,
            "notes": [],
            "controlChanges": {},
            "id": 14,
            "name": "Spur 14"
        },
        {
            "startTime": 0,
            "duration": 0,
            "length": 0,
            "notes": [],
            "controlChanges": {},
            "id": 15,
            "name": "Spur 15"
        },
        {
            "startTime": 0,
            "duration": 0,
            "length": 0,
            "notes": [],
            "controlChanges": {},
            "id": 16,
            "name": "Spur 16"
        },
        {
            "startTime": 0,
            "duration": 0,
            "length": 0,
            "notes": [],
            "controlChanges": {},
            "id": 17,
            "name": "Spur 17"
        }
    ]
}