{
    "header": {
        "PPQ": 480,
        "timeSignature": [
            3,
            4
        ],
        "bpm": 210.00021000021,
        "name": "Mondscheinsonate; der Gräfin Giulietta Guiccardi gewidmet"
    },
    "startTime": 0,
    "duration": 120.2855939999999,
    "tracks": [
        {
            "startTime": 0,
            "duration": 0,
            "length": 0,
            "notes": [],
            "controlChanges": {},
            "id": 0,
            "name": "Mondscheinsonate; der Gräfin Giulietta Guiccardi gewidmet"
        },
        {
            "startTime": 0.571428,
            "duration": 120.28559399999986,
            "length": 502,
            "notes": [
                {
                    "name": "G#4",
                    "midi": 68,
                    "time": 0.571428,
                    "velocity": 0.4881889763779528,
                    "duration": 0.285714
                },
                {
                    "name": "C#5",
                    "midi": 73,
                    "time": 0.571428,
                    "velocity": 0.4881889763779528,
                    "duration": 0.285714
                },
                {
                    "name": "C5",
                    "midi": 72,
                    "time": 0.8577372375000001,
                    "velocity": 0.5118110236220472,
                    "duration": 0.571428
                },
                {
                    "name": "G#4",
                    "midi": 68,
                    "time": 0.8577372375000001,
                    "velocity": 0.5118110236220472,
                    "duration": 0.571428
                },
                {
                    "name": "G4",
                    "midi": 67,
                    "time": 1.4285700000000001,
                    "velocity": 0.4566929133858268,
                    "duration": 0.285714
                },
                {
                    "name": "A#4",
                    "midi": 70,
                    "time": 1.4285700000000001,
                    "velocity": 0.4566929133858268,
                    "duration": 0.285714
                },
                {
                    "name": "G#4",
                    "midi": 68,
                    "time": 1.7142840000000001,
                    "velocity": 0.4251968503937008,
                    "duration": 0.05357137499999998
                },
                {
                    "name": "D#5",
                    "midi": 75,
                    "time": 1.7142840000000001,
                    "velocity": 0.4251968503937008,
                    "duration": 0.05357137499999998
                },
                {
                    "name": "F4",
                    "midi": 65,
                    "time": 2.285712,
                    "velocity": 0.41732283464566927,
                    "duration": 0.0535713750000002
                },
                {
                    "name": "C#5",
                    "midi": 73,
                    "time": 2.285712,
                    "velocity": 0.41732283464566927,
                    "duration": 0.0535713750000002
                },
                {
                    "name": "G#4",
                    "midi": 68,
                    "time": 2.571426,
                    "velocity": 0.41732283464566927,
                    "duration": 0.0535713750000002
                },
                {
                    "name": "C5",
                    "midi": 72,
                    "time": 2.571426,
                    "velocity": 0.41732283464566927,
                    "duration": 0.0535713750000002
                },
                {
                    "name": "G4",
                    "midi": 67,
                    "time": 3.1428540000000007,
                    "velocity": 0.4094488188976378,
                    "duration": 0.0535713750000002
                },
                {
                    "name": "A#4",
                    "midi": 70,
                    "time": 3.1428540000000007,
                    "velocity": 0.4094488188976378,
                    "duration": 0.0535713750000002
                },
                {
                    "name": "G#4",
                    "midi": 68,
                    "time": 3.4285680000000007,
                    "velocity": 0.4015748031496063,
                    "duration": 0.0535713750000002
                },
                {
                    "name": "C#5",
                    "midi": 73,
                    "time": 3.999996000000001,
                    "velocity": 0.5118110236220472,
                    "duration": 0.28571400000000047
                },
                {
                    "name": "F#5",
                    "midi": 78,
                    "time": 3.999996000000001,
                    "velocity": 0.5118110236220472,
                    "duration": 0.28571400000000047
                },
                {
                    "name": "C#5",
                    "midi": 73,
                    "time": 4.285710000000002,
                    "velocity": 0.5118110236220472,
                    "duration": 0.571428
                },
                {
                    "name": "F5",
                    "midi": 77,
                    "time": 4.285710000000002,
                    "velocity": 0.5118110236220472,
                    "duration": 0.571428
                },
                {
                    "name": "C5",
                    "midi": 72,
                    "time": 4.857138000000002,
                    "velocity": 0.48031496062992124,
                    "duration": 0.2857139999999996
                },
                {
                    "name": "D#5",
                    "midi": 75,
                    "time": 4.857138000000002,
                    "velocity": 0.48031496062992124,
                    "duration": 0.2857139999999996
                },
                {
                    "name": "C#5",
                    "midi": 73,
                    "time": 5.142852000000001,
                    "velocity": 0.4409448818897638,
                    "duration": 0.053571374999999755
                },
                {
                    "name": "G#5",
                    "midi": 80,
                    "time": 5.142852000000001,
                    "velocity": 0.4409448818897638,
                    "duration": 0.053571374999999755
                },
                {
                    "name": "A#4",
                    "midi": 70,
                    "time": 5.714280000000001,
                    "velocity": 0.4330708661417323,
                    "duration": 0.053571374999999755
                },
                {
                    "name": "F#5",
                    "midi": 78,
                    "time": 5.714280000000001,
                    "velocity": 0.4330708661417323,
                    "duration": 0.053571374999999755
                },
                {
                    "name": "C#5",
                    "midi": 73,
                    "time": 5.999994000000001,
                    "velocity": 0.4330708661417323,
                    "duration": 0.053571374999999755
                },
                {
                    "name": "F5",
                    "midi": 77,
                    "time": 5.999994000000001,
                    "velocity": 0.4330708661417323,
                    "duration": 0.053571374999999755
                },
                {
                    "name": "C5",
                    "midi": 72,
                    "time": 6.571422000000001,
                    "velocity": 0.41732283464566927,
                    "duration": 0.053571374999999755
                },
                {
                    "name": "D#5",
                    "midi": 75,
                    "time": 6.571422000000001,
                    "velocity": 0.41732283464566927,
                    "duration": 0.053571374999999755
                },
                {
                    "name": "C#5",
                    "midi": 73,
                    "time": 6.857136000000001,
                    "velocity": 0.3937007874015748,
                    "duration": 0.053571374999999755
                },
                {
                    "name": "C#4",
                    "midi": 61,
                    "time": 7.428564000000001,
                    "velocity": 0.5118110236220472,
                    "duration": 0.571428
                },
                {
                    "name": "C#5",
                    "midi": 73,
                    "time": 7.428564000000001,
                    "velocity": 0.5118110236220472,
                    "duration": 0.571428
                },
                {
                    "name": "C4",
                    "midi": 60,
                    "time": 7.999992000000001,
                    "velocity": 0.5118110236220472,
                    "duration": 0.28571400000000047
                },
                {
                    "name": "C5",
                    "midi": 72,
                    "time": 7.999992000000001,
                    "velocity": 0.5118110236220472,
                    "duration": 0.28571400000000047
                },
                {
                    "name": "A#3",
                    "midi": 58,
                    "time": 8.285706000000001,
                    "velocity": 0.5118110236220472,
                    "duration": 0.28571400000000047
                },
                {
                    "name": "A#4",
                    "midi": 70,
                    "time": 8.285706000000001,
                    "velocity": 0.5118110236220472,
                    "duration": 0.5714280000000009
                },
                {
                    "name": "D#4",
                    "midi": 63,
                    "time": 8.571420000000002,
                    "velocity": 0.5118110236220472,
                    "duration": 0.28571400000000047
                },
                {
                    "name": "D#5",
                    "midi": 75,
                    "time": 8.857134000000002,
                    "velocity": 0.5118110236220472,
                    "duration": 0.07142849999999967
                },
                {
                    "name": "C#5",
                    "midi": 73,
                    "time": 9.142848000000003,
                    "velocity": 0.4881889763779528,
                    "duration": 0.5714280000000009
                },
                {
                    "name": "F4",
                    "midi": 65,
                    "time": 9.142848000000003,
                    "velocity": 0.4881889763779528,
                    "duration": 0.28571400000000047
                },
                {
                    "name": "G#4",
                    "midi": 68,
                    "time": 9.428562000000003,
                    "velocity": 0.4881889763779528,
                    "duration": 0.28571400000000047
                },
                {
                    "name": "C5",
                    "midi": 72,
                    "time": 9.714276000000003,
                    "velocity": 0.4881889763779528,
                    "duration": 0.28571400000000047
                },
                {
                    "name": "G4",
                    "midi": 67,
                    "time": 9.999990000000004,
                    "velocity": 0.4566929133858268,
                    "duration": 0.28571400000000047
                },
                {
                    "name": "A#4",
                    "midi": 70,
                    "time": 9.999990000000004,
                    "velocity": 0.4566929133858268,
                    "duration": 0.5714280000000009
                },
                {
                    "name": "G#4",
                    "midi": 68,
                    "time": 10.571418000000005,
                    "velocity": 0.4409448818897638,
                    "duration": 0.14285699999999935
                },
                {
                    "name": "F#4",
                    "midi": 66,
                    "time": 10.857132000000004,
                    "velocity": 0.5196850393700787,
                    "duration": 0.5714280000000009
                },
                {
                    "name": "F#5",
                    "midi": 78,
                    "time": 10.857132000000004,
                    "velocity": 0.5196850393700787,
                    "duration": 0.5714280000000009
                },
                {
                    "name": "F4",
                    "midi": 65,
                    "time": 11.428560000000004,
                    "velocity": 0.5118110236220472,
                    "duration": 0.28571400000000047
                },
                {
                    "name": "F5",
                    "midi": 77,
                    "time": 11.428560000000004,
                    "velocity": 0.5118110236220472,
                    "duration": 0.28571400000000047
                },
                {
                    "name": "D#4",
                    "midi": 63,
                    "time": 11.714274000000005,
                    "velocity": 0.5118110236220472,
                    "duration": 0.28571400000000047
                },
                {
                    "name": "D#5",
                    "midi": 75,
                    "time": 11.714274000000005,
                    "velocity": 0.5118110236220472,
                    "duration": 0.5714280000000009
                },
                {
                    "name": "G#4",
                    "midi": 68,
                    "time": 11.999988000000005,
                    "velocity": 0.5748031496062992,
                    "duration": 0.28571400000000047
                },
                {
                    "name": "G#5",
                    "midi": 80,
                    "time": 12.285702000000006,
                    "velocity": 0.5748031496062992,
                    "duration": 0.07142849999999967
                },
                {
                    "name": "A#4",
                    "midi": 70,
                    "time": 12.571416000000006,
                    "velocity": 0.4881889763779528,
                    "duration": 0.28571400000000047
                },
                {
                    "name": "F#5",
                    "midi": 78,
                    "time": 12.571416000000006,
                    "velocity": 0.4881889763779528,
                    "duration": 0.5714280000000009
                },
                {
                    "name": "C#5",
                    "midi": 73,
                    "time": 12.857130000000007,
                    "velocity": 0.4881889763779528,
                    "duration": 0.28571400000000047
                },
                {
                    "name": "F5",
                    "midi": 77,
                    "time": 13.142844000000007,
                    "velocity": 0.4881889763779528,
                    "duration": 0.28571400000000047
                },
                {
                    "name": "D#5",
                    "midi": 75,
                    "time": 13.428558000000008,
                    "velocity": 0.4881889763779528,
                    "duration": 0.5714280000000009
                },
                {
                    "name": "C5",
                    "midi": 72,
                    "time": 13.428558000000008,
                    "velocity": 0.4881889763779528,
                    "duration": 0.28571400000000047
                },
                {
                    "name": "C#5",
                    "midi": 73,
                    "time": 13.999986000000009,
                    "velocity": 0.4645669291338583,
                    "duration": 0.14285699999999935
                },
                {
                    "name": "C#5",
                    "midi": 73,
                    "time": 14.285700000000007,
                    "velocity": 0.41732283464566927,
                    "duration": 0.28571400000000047
                },
                {
                    "name": "F4",
                    "midi": 65,
                    "time": 14.285700000000007,
                    "velocity": 0.41732283464566927,
                    "duration": 0.28571400000000047
                },
                {
                    "name": "C#5",
                    "midi": 73,
                    "time": 14.571414000000008,
                    "velocity": 0.4566929133858268,
                    "duration": 0.5714280000000009
                },
                {
                    "name": "F4",
                    "midi": 65,
                    "time": 14.571414000000008,
                    "velocity": 0.4566929133858268,
                    "duration": 0.5714280000000009
                },
                {
                    "name": "F4",
                    "midi": 65,
                    "time": 15.142842000000009,
                    "velocity": 0.44881889763779526,
                    "duration": 0.28571400000000047
                },
                {
                    "name": "C#5",
                    "midi": 73,
                    "time": 15.142842000000009,
                    "velocity": 0.44881889763779526,
                    "duration": 0.28571400000000047
                },
                {
                    "name": "D#4",
                    "midi": 63,
                    "time": 15.42855600000001,
                    "velocity": 0.44881889763779526,
                    "duration": 0.5714279999999992
                },
                {
                    "name": "C#5",
                    "midi": 73,
                    "time": 15.42855600000001,
                    "velocity": 0.44881889763779526,
                    "duration": 0.28571400000000047
                },
                {
                    "name": "C5",
                    "midi": 72,
                    "time": 15.71427000000001,
                    "velocity": 0.4566929133858268,
                    "duration": 0.14285699999999935
                },
                {
                    "name": "D#4",
                    "midi": 63,
                    "time": 15.999984000000008,
                    "velocity": 0.4566929133858268,
                    "duration": 0.2857139999999987
                },
                {
                    "name": "B4",
                    "midi": 71,
                    "time": 15.999984000000008,
                    "velocity": 0.4566929133858268,
                    "duration": 0.2857139999999987
                },
                {
                    "name": "D#4",
                    "midi": 63,
                    "time": 16.285698000000007,
                    "velocity": 0.4566929133858268,
                    "duration": 0.5714280000000009
                },
                {
                    "name": "B4",
                    "midi": 71,
                    "time": 16.285698000000007,
                    "velocity": 0.4566929133858268,
                    "duration": 0.5714280000000009
                },
                {
                    "name": "D#4",
                    "midi": 63,
                    "time": 16.857126000000008,
                    "velocity": 0.4409448818897638,
                    "duration": 0.2857139999999987
                },
                {
                    "name": "B4",
                    "midi": 71,
                    "time": 16.857126000000008,
                    "velocity": 0.4409448818897638,
                    "duration": 0.2857139999999987
                },
                {
                    "name": "D#4",
                    "midi": 63,
                    "time": 17.142840000000007,
                    "velocity": 0.4409448818897638,
                    "duration": 0.5714279999999974
                },
                {
                    "name": "B4",
                    "midi": 71,
                    "time": 17.142840000000007,
                    "velocity": 0.4409448818897638,
                    "duration": 0.2857139999999987
                },
                {
                    "name": "A#4",
                    "midi": 70,
                    "time": 17.428554000000005,
                    "velocity": 0.4409448818897638,
                    "duration": 0.14285699999999935
                },
                {
                    "name": "C#4",
                    "midi": 61,
                    "time": 17.714268000000004,
                    "velocity": 0.5118110236220472,
                    "duration": 0.2857139999999987
                },
                {
                    "name": "A#4",
                    "midi": 70,
                    "time": 17.714268000000004,
                    "velocity": 0.5118110236220472,
                    "duration": 0.2857139999999987
                },
                {
                    "name": "F#4",
                    "midi": 66,
                    "time": 17.999982000000003,
                    "velocity": 0.5905511811023622,
                    "duration": 0.5714280000000009
                },
                {
                    "name": "C5",
                    "midi": 72,
                    "time": 17.999982000000003,
                    "velocity": 0.5905511811023622,
                    "duration": 0.5714280000000009
                },
                {
                    "name": "F4",
                    "midi": 65,
                    "time": 18.571410000000004,
                    "velocity": 0.6141732283464567,
                    "duration": 0.2857139999999987
                },
                {
                    "name": "C#5",
                    "midi": 73,
                    "time": 18.571410000000004,
                    "velocity": 0.6141732283464567,
                    "duration": 0.2857139999999987
                },
                {
                    "name": "F#4",
                    "midi": 66,
                    "time": 18.857124000000002,
                    "velocity": 0.7086614173228346,
                    "duration": 0.5714280000000009
                },
                {
                    "name": "D#5",
                    "midi": 75,
                    "time": 18.857124000000002,
                    "velocity": 0.7086614173228346,
                    "duration": 0.5714280000000009
                },
                {
                    "name": "D#4",
                    "midi": 63,
                    "time": 19.428552000000003,
                    "velocity": 0.6062992125984252,
                    "duration": 0.5714280000000009
                },
                {
                    "name": "F#4",
                    "midi": 66,
                    "time": 19.428552000000003,
                    "velocity": 0.6062992125984252,
                    "duration": 0.5714280000000009
                },
                {
                    "name": "C#4",
                    "midi": 61,
                    "time": 19.999980000000004,
                    "velocity": 0.5118110236220472,
                    "duration": 0.2857139999999987
                },
                {
                    "name": "F4",
                    "midi": 65,
                    "time": 19.999980000000004,
                    "velocity": 0.5118110236220472,
                    "duration": 0.2857139999999987
                },
                {
                    "name": "A#4",
                    "midi": 70,
                    "time": 20.285694000000003,
                    "velocity": 0.5118110236220472,
                    "duration": 0.14285699999999935
                },
                {
                    "name": "A#3",
                    "midi": 58,
                    "time": 20.285694000000003,
                    "velocity": 0.5118110236220472,
                    "duration": 0.2857139999999987
                },
                {
                    "name": "F#4",
                    "midi": 66,
                    "time": 20.428551000000002,
                    "velocity": 0.5118110236220472,
                    "duration": 0.14285699999999935
                },
                {
                    "name": "C#4",
                    "midi": 61,
                    "time": 20.571408,
                    "velocity": 0.5590551181102362,
                    "duration": 0.2857139999999987
                },
                {
                    "name": "F4",
                    "midi": 65,
                    "time": 20.571408,
                    "velocity": 0.5590551181102362,
                    "duration": 0.2857139999999987
                },
                {
                    "name": "C4",
                    "midi": 60,
                    "time": 20.857122,
                    "velocity": 0.5118110236220472,
                    "duration": 0.14285699999999935
                },
                {
                    "name": "D#4",
                    "midi": 63,
                    "time": 20.857122,
                    "velocity": 0.5118110236220472,
                    "duration": 0.14285699999999935
                },
                {
                    "name": "C#4",
                    "midi": 61,
                    "time": 21.142836,
                    "velocity": 0.5118110236220472,
                    "duration": 0.2857139999999987
                },
                {
                    "name": "C#5",
                    "midi": 73,
                    "time": 21.142836,
                    "velocity": 0.5118110236220472,
                    "duration": 0.2857139999999987
                },
                {
                    "name": "C4",
                    "midi": 60,
                    "time": 21.428549999999998,
                    "velocity": 0.5196850393700787,
                    "duration": 0.5714280000000009
                },
                {
                    "name": "C5",
                    "midi": 72,
                    "time": 21.428549999999998,
                    "velocity": 0.5196850393700787,
                    "duration": 0.5714280000000009
                },
                {
                    "name": "A#4",
                    "midi": 70,
                    "time": 21.999978,
                    "velocity": 0.48031496062992124,
                    "duration": 0.2857139999999987
                },
                {
                    "name": "A#3",
                    "midi": 58,
                    "time": 21.999978,
                    "velocity": 0.48031496062992124,
                    "duration": 0.2857139999999987
                },
                {
                    "name": "D#4",
                    "midi": 63,
                    "time": 22.285691999999997,
                    "velocity": 0.4645669291338583,
                    "duration": 0.05357137500000064
                },
                {
                    "name": "D#5",
                    "midi": 75,
                    "time": 22.285691999999997,
                    "velocity": 0.4645669291338583,
                    "duration": 0.05357137500000064
                },
                {
                    "name": "F4",
                    "midi": 65,
                    "time": 22.85712,
                    "velocity": 0.5039370078740157,
                    "duration": 0.2857139999999987
                },
                {
                    "name": "C#5",
                    "midi": 73,
                    "time": 22.85712,
                    "velocity": 0.5039370078740157,
                    "duration": 0.5714279999999974
                },
                {
                    "name": "G#4",
                    "midi": 68,
                    "time": 23.142833999999997,
                    "velocity": 0.5039370078740157,
                    "duration": 0.2857139999999987
                },
                {
                    "name": "C5",
                    "midi": 72,
                    "time": 23.428547999999996,
                    "velocity": 0.5039370078740157,
                    "duration": 0.2857139999999987
                },
                {
                    "name": "G4",
                    "midi": 67,
                    "time": 23.714261999999994,
                    "velocity": 0.47244094488188976,
                    "duration": 0.2857139999999987
                },
                {
                    "name": "A#4",
                    "midi": 70,
                    "time": 23.714261999999994,
                    "velocity": 0.47244094488188976,
                    "duration": 0.5714279999999974
                },
                {
                    "name": "G#4",
                    "midi": 68,
                    "time": 24.285689999999992,
                    "velocity": 0.47244094488188976,
                    "duration": 0.14285699999999935
                },
                {
                    "name": "F#4",
                    "midi": 66,
                    "time": 24.57140399999999,
                    "velocity": 0.5039370078740157,
                    "duration": 0.2857139999999987
                },
                {
                    "name": "F#5",
                    "midi": 78,
                    "time": 24.57140399999999,
                    "velocity": 0.5039370078740157,
                    "duration": 0.2857139999999987
                },
                {
                    "name": "F4",
                    "midi": 65,
                    "time": 24.85711799999999,
                    "velocity": 0.5118110236220472,
                    "duration": 0.5714280000000009
                },
                {
                    "name": "F5",
                    "midi": 77,
                    "time": 24.85711799999999,
                    "velocity": 0.5118110236220472,
                    "duration": 0.5714280000000009
                },
                {
                    "name": "D#4",
                    "midi": 63,
                    "time": 25.42854599999999,
                    "velocity": 0.5039370078740157,
                    "duration": 0.2857139999999987
                },
                {
                    "name": "D#5",
                    "midi": 75,
                    "time": 25.42854599999999,
                    "velocity": 0.5039370078740157,
                    "duration": 0.2857139999999987
                },
                {
                    "name": "G#4",
                    "midi": 68,
                    "time": 25.71425999999999,
                    "velocity": 0.4881889763779528,
                    "duration": 0.05357137500000064
                },
                {
                    "name": "G#5",
                    "midi": 80,
                    "time": 25.71425999999999,
                    "velocity": 0.4881889763779528,
                    "duration": 0.05357137500000064
                },
                {
                    "name": "F#4",
                    "midi": 66,
                    "time": 26.28568799999999,
                    "velocity": 0.5039370078740157,
                    "duration": 0.5714280000000009
                },
                {
                    "name": "F#5",
                    "midi": 78,
                    "time": 26.28568799999999,
                    "velocity": 0.5039370078740157,
                    "duration": 0.5714280000000009
                },
                {
                    "name": "F4",
                    "midi": 65,
                    "time": 26.85711599999999,
                    "velocity": 0.5039370078740157,
                    "duration": 0.2857139999999987
                },
                {
                    "name": "F5",
                    "midi": 77,
                    "time": 26.85711599999999,
                    "velocity": 0.5039370078740157,
                    "duration": 0.2857139999999987
                },
                {
                    "name": "D#4",
                    "midi": 63,
                    "time": 27.14282999999999,
                    "velocity": 0.5039370078740157,
                    "duration": 0.14285699999999935
                },
                {
                    "name": "D#5",
                    "midi": 75,
                    "time": 27.14282999999999,
                    "velocity": 0.5039370078740157,
                    "duration": 0.14285699999999935
                },
                {
                    "name": "G#4",
                    "midi": 68,
                    "time": 27.428543999999988,
                    "velocity": 0.5118110236220472,
                    "duration": 0.05357137500000064
                },
                {
                    "name": "G#5",
                    "midi": 80,
                    "time": 27.428543999999988,
                    "velocity": 0.5118110236220472,
                    "duration": 0.05357137500000064
                },
                {
                    "name": "F#4",
                    "midi": 66,
                    "time": 27.99997199999999,
                    "velocity": 0.5826771653543307,
                    "duration": 0.5714280000000009
                },
                {
                    "name": "F#5",
                    "midi": 78,
                    "time": 27.99997199999999,
                    "velocity": 0.5826771653543307,
                    "duration": 0.5714280000000009
                },
                {
                    "name": "F4",
                    "midi": 65,
                    "time": 28.57139999999999,
                    "velocity": 0.6299212598425197,
                    "duration": 0.2857139999999987
                },
                {
                    "name": "F5",
                    "midi": 77,
                    "time": 28.57139999999999,
                    "velocity": 0.6299212598425197,
                    "duration": 0.2857139999999987
                },
                {
                    "name": "A#4",
                    "midi": 70,
                    "time": 28.85711399999999,
                    "velocity": 0.7637795275590551,
                    "duration": 0.5714280000000009
                },
                {
                    "name": "A#5",
                    "midi": 82,
                    "time": 28.85711399999999,
                    "velocity": 0.7637795275590551,
                    "duration": 0.5714280000000009
                },
                {
                    "name": "G#4",
                    "midi": 68,
                    "time": 29.42854199999999,
                    "velocity": 0.6062992125984252,
                    "duration": 0.2857139999999987
                },
                {
                    "name": "G#5",
                    "midi": 80,
                    "time": 29.42854199999999,
                    "velocity": 0.6062992125984252,
                    "duration": 0.2857139999999987
                },
                {
                    "name": "F#3",
                    "midi": 54,
                    "time": 29.999969999999987,
                    "velocity": 0.5039370078740157,
                    "duration": 0.8571419999999996
                },
                {
                    "name": "C4",
                    "midi": 60,
                    "time": 29.999969999999987,
                    "velocity": 0.5039370078740157,
                    "duration": 0.5714280000000009
                },
                {
                    "name": "D#4",
                    "midi": 63,
                    "time": 30.571397999999988,
                    "velocity": 0.48031496062992124,
                    "duration": 0.14285699999999935
                },
                {
                    "name": "C#4",
                    "midi": 61,
                    "time": 30.714254999999987,
                    "velocity": 0.48031496062992124,
                    "duration": 0.14285699999999935
                },
                {
                    "name": "F3",
                    "midi": 53,
                    "time": 30.857111999999987,
                    "velocity": 0.4251968503937008,
                    "duration": 0.2857139999999987
                },
                {
                    "name": "C#4",
                    "midi": 61,
                    "time": 30.857111999999987,
                    "velocity": 0.4566929133858268,
                    "duration": 0.2857139999999987
                },
                {
                    "name": "C#5",
                    "midi": 73,
                    "time": 31.428539999999984,
                    "velocity": 0.5039370078740157,
                    "duration": 0.2857139999999987
                },
                {
                    "name": "F4",
                    "midi": 65,
                    "time": 31.428539999999984,
                    "velocity": 0.5039370078740157,
                    "duration": 0.2857139999999987
                },
                {
                    "name": "C#5",
                    "midi": 73,
                    "time": 31.714253999999983,
                    "velocity": 0.5039370078740157,
                    "duration": 0.5714279999999974
                },
                {
                    "name": "F4",
                    "midi": 65,
                    "time": 31.714253999999983,
                    "velocity": 0.5039370078740157,
                    "duration": 0.5714279999999974
                },
                {
                    "name": "F4",
                    "midi": 65,
                    "time": 32.28568199999998,
                    "velocity": 0.5039370078740157,
                    "duration": 0.2857139999999987
                },
                {
                    "name": "C#5",
                    "midi": 73,
                    "time": 32.28568199999998,
                    "velocity": 0.5039370078740157,
                    "duration": 0.2857139999999987
                },
                {
                    "name": "D#4",
                    "midi": 63,
                    "time": 32.57139599999998,
                    "velocity": 0.5039370078740157,
                    "duration": 0.5714279999999974
                },
                {
                    "name": "C#5",
                    "midi": 73,
                    "time": 32.57139599999998,
                    "velocity": 0.5039370078740157,
                    "duration": 0.2857139999999987
                },
                {
                    "name": "C5",
                    "midi": 72,
                    "time": 32.85710999999998,
                    "velocity": 0.5039370078740157,
                    "duration": 0.14285699999999935
                },
                {
                    "name": "D#4",
                    "midi": 63,
                    "time": 33.142823999999976,
                    "velocity": 0.48031496062992124,
                    "duration": 0.2857139999999987
                },
                {
                    "name": "B4",
                    "midi": 71,
                    "time": 33.142823999999976,
                    "velocity": 0.48031496062992124,
                    "duration": 0.2857139999999987
                },
                {
                    "name": "D#4",
                    "midi": 63,
                    "time": 33.428537999999975,
                    "velocity": 0.48031496062992124,
                    "duration": 0.5714279999999974
                },
                {
                    "name": "B4",
                    "midi": 71,
                    "time": 33.428537999999975,
                    "velocity": 0.48031496062992124,
                    "duration": 0.5714279999999974
                },
                {
                    "name": "D#4",
                    "midi": 63,
                    "time": 33.99996599999997,
                    "velocity": 0.4566929133858268,
                    "duration": 0.2857139999999987
                },
                {
                    "name": "B4",
                    "midi": 71,
                    "time": 33.99996599999997,
                    "velocity": 0.4566929133858268,
                    "duration": 0.2857139999999987
                },
                {
                    "name": "D#4",
                    "midi": 63,
                    "time": 34.28567999999997,
                    "velocity": 0.4566929133858268,
                    "duration": 0.5714279999999974
                },
                {
                    "name": "B4",
                    "midi": 71,
                    "time": 34.28567999999997,
                    "velocity": 0.4566929133858268,
                    "duration": 0.2857139999999987
                },
                {
                    "name": "A#4",
                    "midi": 70,
                    "time": 34.57139399999997,
                    "velocity": 0.4566929133858268,
                    "duration": 0.14285699999999935
                },
                {
                    "name": "C#4",
                    "midi": 61,
                    "time": 34.85710799999997,
                    "velocity": 0.5039370078740157,
                    "duration": 0.2857139999999987
                },
                {
                    "name": "A#4",
                    "midi": 70,
                    "time": 34.85710799999997,
                    "velocity": 0.5039370078740157,
                    "duration": 0.2857139999999987
                },
                {
                    "name": "F#4",
                    "midi": 66,
                    "time": 35.14282199999997,
                    "velocity": 0.5826771653543307,
                    "duration": 0.5714279999999974
                },
                {
                    "name": "C5",
                    "midi": 72,
                    "time": 35.14282199999997,
                    "velocity": 0.5826771653543307,
                    "duration": 0.5714279999999974
                },
                {
                    "name": "F4",
                    "midi": 65,
                    "time": 35.714249999999964,
                    "velocity": 0.6062992125984252,
                    "duration": 0.2857139999999987
                },
                {
                    "name": "C#5",
                    "midi": 73,
                    "time": 35.714249999999964,
                    "velocity": 0.6062992125984252,
                    "duration": 0.2857139999999987
                },
                {
                    "name": "F#4",
                    "midi": 66,
                    "time": 35.99996399999996,
                    "velocity": 0.7007874015748031,
                    "duration": 0.5714279999999974
                },
                {
                    "name": "D#5",
                    "midi": 75,
                    "time": 35.99996399999996,
                    "velocity": 0.7007874015748031,
                    "duration": 0.5714279999999974
                },
                {
                    "name": "D#4",
                    "midi": 63,
                    "time": 36.57139199999996,
                    "velocity": 0.5984251968503937,
                    "duration": 0.5714279999999974
                },
                {
                    "name": "F#4",
                    "midi": 66,
                    "time": 36.57139199999996,
                    "velocity": 0.5984251968503937,
                    "duration": 0.5714279999999974
                },
                {
                    "name": "C#4",
                    "midi": 61,
                    "time": 37.14281999999996,
                    "velocity": 0.5039370078740157,
                    "duration": 0.2857139999999987
                },
                {
                    "name": "F4",
                    "midi": 65,
                    "time": 37.14281999999996,
                    "velocity": 0.5039370078740157,
                    "duration": 0.2857139999999987
                },
                {
                    "name": "A#4",
                    "midi": 70,
                    "time": 37.42853399999996,
                    "velocity": 0.5039370078740157,
                    "duration": 0.14285699999999935
                },
                {
                    "name": "A#3",
                    "midi": 58,
                    "time": 37.42853399999996,
                    "velocity": 0.5039370078740157,
                    "duration": 0.2857139999999987
                },
                {
                    "name": "F#4",
                    "midi": 66,
                    "time": 37.571390999999956,
                    "velocity": 0.5039370078740157,
                    "duration": 0.14285699999999935
                },
                {
                    "name": "C#4",
                    "midi": 61,
                    "time": 37.714247999999955,
                    "velocity": 0.5590551181102362,
                    "duration": 0.2857139999999987
                },
                {
                    "name": "F4",
                    "midi": 65,
                    "time": 37.714247999999955,
                    "velocity": 0.5590551181102362,
                    "duration": 0.2857139999999987
                },
                {
                    "name": "C4",
                    "midi": 60,
                    "time": 37.999961999999954,
                    "velocity": 0.5039370078740157,
                    "duration": 0.14285699999999935
                },
                {
                    "name": "D#4",
                    "midi": 63,
                    "time": 37.999961999999954,
                    "velocity": 0.5039370078740157,
                    "duration": 0.14285699999999935
                },
                {
                    "name": "C#4",
                    "midi": 61,
                    "time": 38.28567599999995,
                    "velocity": 0.5039370078740157,
                    "duration": 0.2857139999999987
                },
                {
                    "name": "C#5",
                    "midi": 73,
                    "time": 38.28567599999995,
                    "velocity": 0.5039370078740157,
                    "duration": 0.2857139999999987
                },
                {
                    "name": "C4",
                    "midi": 60,
                    "time": 38.57138999999995,
                    "velocity": 0.5118110236220472,
                    "duration": 0.5714279999999974
                },
                {
                    "name": "C5",
                    "midi": 72,
                    "time": 38.57138999999995,
                    "velocity": 0.5118110236220472,
                    "duration": 0.5714279999999974
                },
                {
                    "name": "A#4",
                    "midi": 70,
                    "time": 39.14281799999995,
                    "velocity": 0.4881889763779528,
                    "duration": 0.2857139999999987
                },
                {
                    "name": "A#3",
                    "midi": 58,
                    "time": 39.14281799999995,
                    "velocity": 0.4881889763779528,
                    "duration": 0.2857139999999987
                },
                {
                    "name": "D#4",
                    "midi": 63,
                    "time": 39.42853199999995,
                    "velocity": 0.47244094488188976,
                    "duration": 0.05357137499999709
                },
                {
                    "name": "D#5",
                    "midi": 75,
                    "time": 39.42853199999995,
                    "velocity": 0.47244094488188976,
                    "duration": 0.05357137499999709
                },
                {
                    "name": "F4",
                    "midi": 65,
                    "time": 39.999959999999945,
                    "velocity": 0.48031496062992124,
                    "duration": 0.2857139999999987
                },
                {
                    "name": "C#5",
                    "midi": 73,
                    "time": 39.999959999999945,
                    "velocity": 0.48031496062992124,
                    "duration": 0.5714279999999974
                },
                {
                    "name": "G#4",
                    "midi": 68,
                    "time": 40.28567399999994,
                    "velocity": 0.48031496062992124,
                    "duration": 0.2857139999999987
                },
                {
                    "name": "C5",
                    "midi": 72,
                    "time": 40.57138799999994,
                    "velocity": 0.48031496062992124,
                    "duration": 0.2857139999999987
                },
                {
                    "name": "G4",
                    "midi": 67,
                    "time": 40.85710199999994,
                    "velocity": 0.48031496062992124,
                    "duration": 0.2857139999999987
                },
                {
                    "name": "A#4",
                    "midi": 70,
                    "time": 40.85710199999994,
                    "velocity": 0.48031496062992124,
                    "duration": 0.5714279999999974
                },
                {
                    "name": "G#4",
                    "midi": 68,
                    "time": 41.42852999999994,
                    "velocity": 0.4645669291338583,
                    "duration": 0.14285699999999935
                },
                {
                    "name": "F#4",
                    "midi": 66,
                    "time": 41.71424399999994,
                    "velocity": 0.5039370078740157,
                    "duration": 0.2857139999999987
                },
                {
                    "name": "F#5",
                    "midi": 78,
                    "time": 41.71424399999994,
                    "velocity": 0.5039370078740157,
                    "duration": 0.2857139999999987
                },
                {
                    "name": "F4",
                    "midi": 65,
                    "time": 41.999957999999936,
                    "velocity": 0.5118110236220472,
                    "duration": 0.5714279999999974
                },
                {
                    "name": "F5",
                    "midi": 77,
                    "time": 41.999957999999936,
                    "velocity": 0.5118110236220472,
                    "duration": 0.5714279999999974
                },
                {
                    "name": "D#4",
                    "midi": 63,
                    "time": 42.57138599999993,
                    "velocity": 0.49606299212598426,
                    "duration": 0.2857139999999987
                },
                {
                    "name": "D#5",
                    "midi": 75,
                    "time": 42.57138599999993,
                    "velocity": 0.49606299212598426,
                    "duration": 0.2857139999999987
                },
                {
                    "name": "G#4",
                    "midi": 68,
                    "time": 42.85709999999993,
                    "velocity": 0.4645669291338583,
                    "duration": 0.05357137499999709
                },
                {
                    "name": "G#5",
                    "midi": 80,
                    "time": 42.85709999999993,
                    "velocity": 0.4645669291338583,
                    "duration": 0.05357137499999709
                },
                {
                    "name": "F#4",
                    "midi": 66,
                    "time": 43.42852799999993,
                    "velocity": 0.5039370078740157,
                    "duration": 0.5714279999999974
                },
                {
                    "name": "F#5",
                    "midi": 78,
                    "time": 43.42852799999993,
                    "velocity": 0.5039370078740157,
                    "duration": 0.5714279999999974
                },
                {
                    "name": "F4",
                    "midi": 65,
                    "time": 43.999955999999926,
                    "velocity": 0.5039370078740157,
                    "duration": 0.2857139999999987
                },
                {
                    "name": "F5",
                    "midi": 77,
                    "time": 43.999955999999926,
                    "velocity": 0.5039370078740157,
                    "duration": 0.2857139999999987
                },
                {
                    "name": "D#4",
                    "midi": 63,
                    "time": 44.285669999999925,
                    "velocity": 0.5039370078740157,
                    "duration": 0.14285699999999935
                },
                {
                    "name": "D#5",
                    "midi": 75,
                    "time": 44.285669999999925,
                    "velocity": 0.5039370078740157,
                    "duration": 0.14285699999999935
                },
                {
                    "name": "G#4",
                    "midi": 68,
                    "time": 44.571383999999924,
                    "velocity": 0.5433070866141733,
                    "duration": 0.05357137499999709
                },
                {
                    "name": "G#5",
                    "midi": 80,
                    "time": 44.571383999999924,
                    "velocity": 0.5433070866141733,
                    "duration": 0.05357137499999709
                },
                {
                    "name": "F#4",
                    "midi": 66,
                    "time": 45.14281199999992,
                    "velocity": 0.5826771653543307,
                    "duration": 0.5714279999999974
                },
                {
                    "name": "F#5",
                    "midi": 78,
                    "time": 45.14281199999992,
                    "velocity": 0.5826771653543307,
                    "duration": 0.5714279999999974
                },
                {
                    "name": "F4",
                    "midi": 65,
                    "time": 45.71423999999992,
                    "velocity": 0.6614173228346457,
                    "duration": 0.2857139999999987
                },
                {
                    "name": "F5",
                    "midi": 77,
                    "time": 45.71423999999992,
                    "velocity": 0.6614173228346457,
                    "duration": 0.2857139999999987
                },
                {
                    "name": "A#4",
                    "midi": 70,
                    "time": 45.99995399999992,
                    "velocity": 0.7795275590551181,
                    "duration": 0.5714279999999974
                },
                {
                    "name": "A#5",
                    "midi": 82,
                    "time": 45.99995399999992,
                    "velocity": 0.7795275590551181,
                    "duration": 0.5714279999999974
                },
                {
                    "name": "G#4",
                    "midi": 68,
                    "time": 46.571381999999915,
                    "velocity": 0.6062992125984252,
                    "duration": 0.2857139999999987
                },
                {
                    "name": "G#5",
                    "midi": 80,
                    "time": 46.571381999999915,
                    "velocity": 0.6062992125984252,
                    "duration": 0.2857139999999987
                },
                {
                    "name": "F#3",
                    "midi": 54,
                    "time": 47.14280999999991,
                    "velocity": 0.5039370078740157,
                    "duration": 0.8571419999999961
                },
                {
                    "name": "C4",
                    "midi": 60,
                    "time": 47.14280999999991,
                    "velocity": 0.5039370078740157,
                    "duration": 0.5714279999999974
                },
                {
                    "name": "D#4",
                    "midi": 63,
                    "time": 47.71423799999991,
                    "velocity": 0.48031496062992124,
                    "duration": 0.14285699999999935
                },
                {
                    "name": "C#4",
                    "midi": 61,
                    "time": 47.85709499999991,
                    "velocity": 0.48031496062992124,
                    "duration": 0.14285699999999935
                },
                {
                    "name": "F3",
                    "midi": 53,
                    "time": 47.99995199999991,
                    "velocity": 0.4251968503937008,
                    "duration": 0.2857139999999987
                },
                {
                    "name": "C#4",
                    "midi": 61,
                    "time": 47.99995199999991,
                    "velocity": 0.4566929133858268,
                    "duration": 0.2857139999999987
                },
                {
                    "name": "F3",
                    "midi": 53,
                    "time": 48.571379999999905,
                    "velocity": 0.6692913385826772,
                    "duration": 0.8571420000000032
                },
                {
                    "name": "F4",
                    "midi": 65,
                    "time": 48.571379999999905,
                    "velocity": 0.7874015748031497,
                    "duration": 0.8571420000000032
                },
                {
                    "name": "F#3",
                    "midi": 54,
                    "time": 49.42852199999991,
                    "velocity": 0.6535433070866141,
                    "duration": 0.8571420000000032
                },
                {
                    "name": "F#4",
                    "midi": 66,
                    "time": 49.42852199999991,
                    "velocity": 0.7716535433070866,
                    "duration": 0.8571420000000032
                },
                {
                    "name": "D#4",
                    "midi": 63,
                    "time": 50.28566399999991,
                    "velocity": 0.6771653543307087,
                    "duration": 0.5714279999999974
                },
                {
                    "name": "D#5",
                    "midi": 75,
                    "time": 50.28566399999991,
                    "velocity": 0.8031496062992126,
                    "duration": 0.5714279999999974
                },
                {
                    "name": "C4",
                    "midi": 60,
                    "time": 50.85709199999991,
                    "velocity": 0.5748031496062992,
                    "duration": 0.2857139999999987
                },
                {
                    "name": "C5",
                    "midi": 72,
                    "time": 50.85709199999991,
                    "velocity": 0.6850393700787402,
                    "duration": 0.2857139999999987
                },
                {
                    "name": "G#3",
                    "midi": 56,
                    "time": 51.14280599999991,
                    "velocity": 0.5826771653543307,
                    "duration": 0.07142850000000323
                },
                {
                    "name": "G#4",
                    "midi": 68,
                    "time": 51.14280599999991,
                    "velocity": 0.6929133858267716,
                    "duration": 0.07142850000000323
                },
                {
                    "name": "C#4",
                    "midi": 61,
                    "time": 51.428519999999914,
                    "velocity": 0.5905511811023622,
                    "duration": 0.2857139999999987
                },
                {
                    "name": "C#5",
                    "midi": 73,
                    "time": 51.428519999999914,
                    "velocity": 0.7007874015748031,
                    "duration": 0.2857139999999987
                },
                {
                    "name": "F4",
                    "midi": 65,
                    "time": 51.71423399999991,
                    "velocity": 0.5433070866141733,
                    "duration": 0.14285699999999935
                },
                {
                    "name": "F5",
                    "midi": 77,
                    "time": 51.71423399999991,
                    "velocity": 0.6456692913385826,
                    "duration": 0.14285699999999935
                },
                {
                    "name": "F3",
                    "midi": 53,
                    "time": 51.99994799999991,
                    "velocity": 0.6614173228346457,
                    "duration": 0.8571420000000032
                },
                {
                    "name": "F4",
                    "midi": 65,
                    "time": 51.99994799999991,
                    "velocity": 0.7795275590551181,
                    "duration": 0.8571420000000032
                },
                {
                    "name": "F#3",
                    "midi": 54,
                    "time": 52.857089999999914,
                    "velocity": 0.6614173228346457,
                    "duration": 0.8571420000000032
                },
                {
                    "name": "F#4",
                    "midi": 66,
                    "time": 52.857089999999914,
                    "velocity": 0.7795275590551181,
                    "duration": 0.8571420000000032
                },
                {
                    "name": "F#4",
                    "midi": 66,
                    "time": 53.71423199999992,
                    "velocity": 0.5748031496062992,
                    "duration": 0.5714279999999974
                },
                {
                    "name": "F#5",
                    "midi": 78,
                    "time": 53.71423199999992,
                    "velocity": 0.6850393700787402,
                    "duration": 0.5714279999999974
                },
                {
                    "name": "A#4",
                    "midi": 70,
                    "time": 54.285659999999915,
                    "velocity": 0.5511811023622047,
                    "duration": 0.14285699999999935
                },
                {
                    "name": "A#5",
                    "midi": 82,
                    "time": 54.285659999999915,
                    "velocity": 0.6535433070866141,
                    "duration": 0.14285699999999935
                },
                {
                    "name": "C4",
                    "midi": 60,
                    "time": 54.57137399999991,
                    "velocity": 0.5275590551181102,
                    "duration": 0.07142850000000323
                },
                {
                    "name": "C5",
                    "midi": 72,
                    "time": 54.57137399999991,
                    "velocity": 0.6220472440944882,
                    "duration": 0.07142850000000323
                },
                {
                    "name": "D#4",
                    "midi": 63,
                    "time": 54.85708799999992,
                    "velocity": 0.5590551181102362,
                    "duration": 0.2857139999999987
                },
                {
                    "name": "D#5",
                    "midi": 75,
                    "time": 54.85708799999992,
                    "velocity": 0.6614173228346457,
                    "duration": 0.2857139999999987
                },
                {
                    "name": "C#4",
                    "midi": 61,
                    "time": 55.14280199999992,
                    "velocity": 0.5196850393700787,
                    "duration": 0.2857139999999987
                },
                {
                    "name": "C#5",
                    "midi": 73,
                    "time": 55.14280199999992,
                    "velocity": 0.6141732283464567,
                    "duration": 0.2857139999999987
                },
                {
                    "name": "F3",
                    "midi": 53,
                    "time": 55.42851599999992,
                    "velocity": 0.6614173228346457,
                    "duration": 0.8571420000000032
                },
                {
                    "name": "F4",
                    "midi": 65,
                    "time": 55.42851599999992,
                    "velocity": 0.7795275590551181,
                    "duration": 0.8571420000000032
                },
                {
                    "name": "F#3",
                    "midi": 54,
                    "time": 56.28565799999992,
                    "velocity": 0.6692913385826772,
                    "duration": 0.8571420000000032
                },
                {
                    "name": "F#4",
                    "midi": 66,
                    "time": 56.28565799999992,
                    "velocity": 0.7874015748031497,
                    "duration": 0.8571420000000032
                },
                {
                    "name": "D#4",
                    "midi": 63,
                    "time": 57.14279999999992,
                    "velocity": 0.6614173228346457,
                    "duration": 0.5714279999999974
                },
                {
                    "name": "D#5",
                    "midi": 75,
                    "time": 57.14279999999992,
                    "velocity": 0.7795275590551181,
                    "duration": 0.5714279999999974
                },
                {
                    "name": "C4",
                    "midi": 60,
                    "time": 57.71422799999992,
                    "velocity": 0.5748031496062992,
                    "duration": 0.2857139999999987
                },
                {
                    "name": "C5",
                    "midi": 72,
                    "time": 57.71422799999992,
                    "velocity": 0.6850393700787402,
                    "duration": 0.2857139999999987
                },
                {
                    "name": "G#3",
                    "midi": 56,
                    "time": 57.99994199999992,
                    "velocity": 0.5826771653543307,
                    "duration": 0.07142850000000323
                },
                {
                    "name": "G#4",
                    "midi": 68,
                    "time": 57.99994199999992,
                    "velocity": 0.6929133858267716,
                    "duration": 0.07142850000000323
                },
                {
                    "name": "C#4",
                    "midi": 61,
                    "time": 58.285655999999925,
                    "velocity": 0.5905511811023622,
                    "duration": 0.2857139999999987
                },
                {
                    "name": "C#5",
                    "midi": 73,
                    "time": 58.285655999999925,
                    "velocity": 0.7007874015748031,
                    "duration": 0.2857139999999987
                },
                {
                    "name": "F4",
                    "midi": 65,
                    "time": 58.57136999999992,
                    "velocity": 0.5511811023622047,
                    "duration": 0.14285699999999935
                },
                {
                    "name": "F5",
                    "midi": 77,
                    "time": 58.57136999999992,
                    "velocity": 0.6535433070866141,
                    "duration": 0.14285699999999935
                },
                {
                    "name": "F3",
                    "midi": 53,
                    "time": 58.85708399999992,
                    "velocity": 0.6692913385826772,
                    "duration": 0.8571420000000032
                },
                {
                    "name": "F4",
                    "midi": 65,
                    "time": 58.85708399999992,
                    "velocity": 0.7874015748031497,
                    "duration": 0.8571420000000032
                },
                {
                    "name": "F#3",
                    "midi": 54,
                    "time": 59.714225999999925,
                    "velocity": 0.6771653543307087,
                    "duration": 0.8571420000000032
                },
                {
                    "name": "F#4",
                    "midi": 66,
                    "time": 59.714225999999925,
                    "velocity": 0.8031496062992126,
                    "duration": 0.8571420000000032
                },
                {
                    "name": "F#4",
                    "midi": 66,
                    "time": 60.57136799999993,
                    "velocity": 0.5748031496062992,
                    "duration": 0.5714279999999974
                },
                {
                    "name": "F#5",
                    "midi": 78,
                    "time": 60.57136799999993,
                    "velocity": 0.6850393700787402,
                    "duration": 0.5714279999999974
                },
                {
                    "name": "A#4",
                    "midi": 70,
                    "time": 61.142795999999926,
                    "velocity": 0.5748031496062992,
                    "duration": 0.14285699999999935
                },
                {
                    "name": "A#5",
                    "midi": 82,
                    "time": 61.142795999999926,
                    "velocity": 0.6850393700787402,
                    "duration": 0.14285699999999935
                },
                {
                    "name": "C4",
                    "midi": 60,
                    "time": 61.428509999999925,
                    "velocity": 0.5669291338582677,
                    "duration": 0.07142850000000323
                },
                {
                    "name": "C5",
                    "midi": 72,
                    "time": 61.428509999999925,
                    "velocity": 0.6692913385826772,
                    "duration": 0.07142850000000323
                },
                {
                    "name": "D#4",
                    "midi": 63,
                    "time": 61.71422399999993,
                    "velocity": 0.5275590551181102,
                    "duration": 0.2857139999999987
                },
                {
                    "name": "D#5",
                    "midi": 75,
                    "time": 61.71422399999993,
                    "velocity": 0.6220472440944882,
                    "duration": 0.2857139999999987
                },
                {
                    "name": "C#4",
                    "midi": 61,
                    "time": 61.99993799999993,
                    "velocity": 0.4881889763779528,
                    "duration": 0.2857139999999987
                },
                {
                    "name": "C#5",
                    "midi": 73,
                    "time": 61.99993799999993,
                    "velocity": 0.5826771653543307,
                    "duration": 0.2857139999999987
                },
                {
                    "name": "F4",
                    "midi": 65,
                    "time": 62.28565199999993,
                    "velocity": 0.36220472440944884,
                    "duration": 0.8571420000000032
                },
                {
                    "name": "F5",
                    "midi": 77,
                    "time": 62.28565199999993,
                    "velocity": 0.4330708661417323,
                    "duration": 0.8571420000000032
                },
                {
                    "name": "A#3",
                    "midi": 58,
                    "time": 63.14279399999993,
                    "velocity": 0.36220472440944884,
                    "duration": 0.8571420000000032
                },
                {
                    "name": "A#4",
                    "midi": 70,
                    "time": 63.14279399999993,
                    "velocity": 0.4330708661417323,
                    "duration": 0.8571420000000032
                },
                {
                    "name": "D#4",
                    "midi": 63,
                    "time": 63.999935999999934,
                    "velocity": 0.31496062992125984,
                    "duration": 0.8571419999999961
                },
                {
                    "name": "D#5",
                    "midi": 75,
                    "time": 63.999935999999934,
                    "velocity": 0.3779527559055118,
                    "duration": 0.8571419999999961
                },
                {
                    "name": "G#3",
                    "midi": 56,
                    "time": 64.85707799999993,
                    "velocity": 0.3228346456692913,
                    "duration": 0.8571419999999961
                },
                {
                    "name": "G#4",
                    "midi": 68,
                    "time": 64.85707799999993,
                    "velocity": 0.3858267716535433,
                    "duration": 0.8571419999999961
                },
                {
                    "name": "C#4",
                    "midi": 61,
                    "time": 65.71421999999993,
                    "velocity": 0.3228346456692913,
                    "duration": 0.8571419999999961
                },
                {
                    "name": "C#5",
                    "midi": 73,
                    "time": 65.71421999999993,
                    "velocity": 0.3858267716535433,
                    "duration": 0.8571419999999961
                },
                {
                    "name": "F#3",
                    "midi": 54,
                    "time": 66.57136199999992,
                    "velocity": 0.28346456692913385,
                    "duration": 0.8571419999999961
                },
                {
                    "name": "F#4",
                    "midi": 66,
                    "time": 66.57136199999992,
                    "velocity": 0.33858267716535434,
                    "duration": 0.8571419999999961
                },
                {
                    "name": "F3",
                    "midi": 53,
                    "time": 67.42850399999992,
                    "velocity": 0.29133858267716534,
                    "duration": 0.5714279999999974
                },
                {
                    "name": "F4",
                    "midi": 65,
                    "time": 67.42850399999992,
                    "velocity": 0.3464566929133858,
                    "duration": 0.5714279999999974
                },
                {
                    "name": "G#3",
                    "midi": 56,
                    "time": 67.99993199999992,
                    "velocity": 0.29133858267716534,
                    "duration": 0.2857139999999987
                },
                {
                    "name": "G#4",
                    "midi": 68,
                    "time": 67.99993199999992,
                    "velocity": 0.3464566929133858,
                    "duration": 0.2857139999999987
                },
                {
                    "name": "B3",
                    "midi": 59,
                    "time": 68.28564599999991,
                    "velocity": 0.29133858267716534,
                    "duration": 0.5714279999999974
                },
                {
                    "name": "B4",
                    "midi": 71,
                    "time": 68.28564599999991,
                    "velocity": 0.3464566929133858,
                    "duration": 0.5714279999999974
                },
                {
                    "name": "A#3",
                    "midi": 58,
                    "time": 68.85707399999991,
                    "velocity": 0.29133858267716534,
                    "duration": 0.14285700000000645
                },
                {
                    "name": "A#4",
                    "midi": 70,
                    "time": 68.85707399999991,
                    "velocity": 0.3464566929133858,
                    "duration": 0.14285700000000645
                },
                {
                    "name": "C#4",
                    "midi": 61,
                    "time": 69.14278799999992,
                    "velocity": 0.31496062992125984,
                    "duration": 0.8571419999999961
                },
                {
                    "name": "C#5",
                    "midi": 73,
                    "time": 69.14278799999992,
                    "velocity": 0.3779527559055118,
                    "duration": 0.8571419999999961
                },
                {
                    "name": "F#3",
                    "midi": 54,
                    "time": 69.99992999999992,
                    "velocity": 0.31496062992125984,
                    "duration": 0.8571419999999961
                },
                {
                    "name": "F#4",
                    "midi": 66,
                    "time": 69.99992999999992,
                    "velocity": 0.3779527559055118,
                    "duration": 0.8571419999999961
                },
                {
                    "name": "F3",
                    "midi": 53,
                    "time": 70.85707199999992,
                    "velocity": 0.30708661417322836,
                    "duration": 0.8571419999999961
                },
                {
                    "name": "F4",
                    "midi": 65,
                    "time": 70.85707199999992,
                    "velocity": 0.3700787401574803,
                    "duration": 0.8571419999999961
                },
                {
                    "name": "E3",
                    "midi": 52,
                    "time": 71.71421399999991,
                    "velocity": 0.33070866141732286,
                    "duration": 0.8571419999999961
                },
                {
                    "name": "E4",
                    "midi": 64,
                    "time": 71.71421399999991,
                    "velocity": 0.3937007874015748,
                    "duration": 0.8571419999999961
                },
                {
                    "name": "F3",
                    "midi": 53,
                    "time": 72.57135599999991,
                    "velocity": 0.4251968503937008,
                    "duration": 0.8571419999999961
                },
                {
                    "name": "F4",
                    "midi": 65,
                    "time": 72.57135599999991,
                    "velocity": 0.5039370078740157,
                    "duration": 0.8571419999999961
                },
                {
                    "name": "F#3",
                    "midi": 54,
                    "time": 73.4284979999999,
                    "velocity": 0.5826771653543307,
                    "duration": 0.8571419999999961
                },
                {
                    "name": "F#4",
                    "midi": 66,
                    "time": 73.4284979999999,
                    "velocity": 0.6692913385826772,
                    "duration": 0.8571419999999961
                },
                {
                    "name": "F3",
                    "midi": 53,
                    "time": 74.2856399999999,
                    "velocity": 0.4409448818897638,
                    "duration": 0.5714279999999974
                },
                {
                    "name": "F4",
                    "midi": 65,
                    "time": 74.2856399999999,
                    "velocity": 0.5196850393700787,
                    "duration": 0.5714279999999974
                },
                {
                    "name": "F#3",
                    "midi": 54,
                    "time": 74.8570679999999,
                    "velocity": 0.4251968503937008,
                    "duration": 0.14285700000000645
                },
                {
                    "name": "F#4",
                    "midi": 66,
                    "time": 74.8570679999999,
                    "velocity": 0.5039370078740157,
                    "duration": 0.14285700000000645
                },
                {
                    "name": "C3",
                    "midi": 48,
                    "time": 75.14278199999991,
                    "velocity": 0.3779527559055118,
                    "duration": 0.07142849999999612
                },
                {
                    "name": "C4",
                    "midi": 60,
                    "time": 75.14278199999991,
                    "velocity": 0.44881889763779526,
                    "duration": 0.07142849999999612
                },
                {
                    "name": "C#3",
                    "midi": 49,
                    "time": 75.42849599999991,
                    "velocity": 0.3779527559055118,
                    "duration": 0.07142849999999612
                },
                {
                    "name": "C#4",
                    "midi": 61,
                    "time": 75.42849599999991,
                    "velocity": 0.44881889763779526,
                    "duration": 0.07142849999999612
                },
                {
                    "name": "F4",
                    "midi": 65,
                    "time": 75.99992399999991,
                    "velocity": 0.3464566929133858,
                    "duration": 0.8571419999999961
                },
                {
                    "name": "F5",
                    "midi": 77,
                    "time": 75.99992399999991,
                    "velocity": 0.4094488188976378,
                    "duration": 0.8571419999999961
                },
                {
                    "name": "A#3",
                    "midi": 58,
                    "time": 76.8570659999999,
                    "velocity": 0.3228346456692913,
                    "duration": 0.8571419999999961
                },
                {
                    "name": "A#4",
                    "midi": 70,
                    "time": 76.8570659999999,
                    "velocity": 0.3858267716535433,
                    "duration": 0.8571419999999961
                },
                {
                    "name": "D#4",
                    "midi": 63,
                    "time": 77.7142079999999,
                    "velocity": 0.3228346456692913,
                    "duration": 0.8571419999999961
                },
                {
                    "name": "D#5",
                    "midi": 75,
                    "time": 77.7142079999999,
                    "velocity": 0.3858267716535433,
                    "duration": 0.8571419999999961
                },
                {
                    "name": "G#3",
                    "midi": 56,
                    "time": 78.5713499999999,
                    "velocity": 0.30708661417322836,
                    "duration": 0.8571419999999961
                },
                {
                    "name": "G#4",
                    "midi": 68,
                    "time": 78.5713499999999,
                    "velocity": 0.3700787401574803,
                    "duration": 0.8571419999999961
                },
                {
                    "name": "C#4",
                    "midi": 61,
                    "time": 79.42849199999989,
                    "velocity": 0.3228346456692913,
                    "duration": 0.8571419999999961
                },
                {
                    "name": "C#5",
                    "midi": 73,
                    "time": 79.42849199999989,
                    "velocity": 0.3858267716535433,
                    "duration": 0.8571419999999961
                },
                {
                    "name": "F#3",
                    "midi": 54,
                    "time": 80.28563399999989,
                    "velocity": 0.2755905511811024,
                    "duration": 0.8571419999999961
                },
                {
                    "name": "F#4",
                    "midi": 66,
                    "time": 80.28563399999989,
                    "velocity": 0.33070866141732286,
                    "duration": 0.8571419999999961
                },
                {
                    "name": "F3",
                    "midi": 53,
                    "time": 81.14277599999988,
                    "velocity": 0.28346456692913385,
                    "duration": 0.5714279999999974
                },
                {
                    "name": "F4",
                    "midi": 65,
                    "time": 81.14277599999988,
                    "velocity": 0.33858267716535434,
                    "duration": 0.5714279999999974
                },
                {
                    "name": "G#3",
                    "midi": 56,
                    "time": 81.71420399999988,
                    "velocity": 0.28346456692913385,
                    "duration": 0.2857139999999987
                },
                {
                    "name": "G#4",
                    "midi": 68,
                    "time": 81.71420399999988,
                    "velocity": 0.33858267716535434,
                    "duration": 0.2857139999999987
                },
                {
                    "name": "B3",
                    "midi": 59,
                    "time": 81.99991799999988,
                    "velocity": 0.33070866141732286,
                    "duration": 0.5714279999999974
                },
                {
                    "name": "B4",
                    "midi": 71,
                    "time": 81.99991799999988,
                    "velocity": 0.3937007874015748,
                    "duration": 0.5714279999999974
                },
                {
                    "name": "A#3",
                    "midi": 58,
                    "time": 82.57134599999988,
                    "velocity": 0.28346456692913385,
                    "duration": 0.14285700000000645
                },
                {
                    "name": "A#4",
                    "midi": 70,
                    "time": 82.57134599999988,
                    "velocity": 0.33858267716535434,
                    "duration": 0.14285700000000645
                },
                {
                    "name": "C#4",
                    "midi": 61,
                    "time": 82.85705999999989,
                    "velocity": 0.33858267716535434,
                    "duration": 0.8571419999999961
                },
                {
                    "name": "C#5",
                    "midi": 73,
                    "time": 82.85705999999989,
                    "velocity": 0.4015748031496063,
                    "duration": 0.8571419999999961
                },
                {
                    "name": "F#3",
                    "midi": 54,
                    "time": 83.71420199999989,
                    "velocity": 0.3228346456692913,
                    "duration": 0.8571419999999961
                },
                {
                    "name": "F#4",
                    "midi": 66,
                    "time": 83.71420199999989,
                    "velocity": 0.3858267716535433,
                    "duration": 0.8571419999999961
                },
                {
                    "name": "F3",
                    "midi": 53,
                    "time": 84.57134399999988,
                    "velocity": 0.30708661417322836,
                    "duration": 0.8571419999999961
                },
                {
                    "name": "F4",
                    "midi": 65,
                    "time": 84.57134399999988,
                    "velocity": 0.36220472440944884,
                    "duration": 0.8571419999999961
                },
                {
                    "name": "E3",
                    "midi": 52,
                    "time": 85.42848599999988,
                    "velocity": 0.30708661417322836,
                    "duration": 0.8571419999999961
                },
                {
                    "name": "E4",
                    "midi": 64,
                    "time": 85.42848599999988,
                    "velocity": 0.3700787401574803,
                    "duration": 0.8571419999999961
                },
                {
                    "name": "F3",
                    "midi": 53,
                    "time": 86.28562799999987,
                    "velocity": 0.4251968503937008,
                    "duration": 0.8571419999999961
                },
                {
                    "name": "F4",
                    "midi": 65,
                    "time": 86.28562799999987,
                    "velocity": 0.5039370078740157,
                    "duration": 0.8571419999999961
                },
                {
                    "name": "F#3",
                    "midi": 54,
                    "time": 87.14276999999987,
                    "velocity": 0.5669291338582677,
                    "duration": 0.8571419999999961
                },
                {
                    "name": "F#4",
                    "midi": 66,
                    "time": 87.14276999999987,
                    "velocity": 0.6692913385826772,
                    "duration": 0.8571419999999961
                },
                {
                    "name": "F3",
                    "midi": 53,
                    "time": 87.99991199999987,
                    "velocity": 0.4409448818897638,
                    "duration": 0.5714279999999974
                },
                {
                    "name": "F4",
                    "midi": 65,
                    "time": 87.99991199999987,
                    "velocity": 0.5196850393700787,
                    "duration": 0.5714279999999974
                },
                {
                    "name": "F#3",
                    "midi": 54,
                    "time": 88.57133999999986,
                    "velocity": 0.4251968503937008,
                    "duration": 0.14285700000000645
                },
                {
                    "name": "F#4",
                    "midi": 66,
                    "time": 88.57133999999986,
                    "velocity": 0.5039370078740157,
                    "duration": 0.14285700000000645
                },
                {
                    "name": "C3",
                    "midi": 48,
                    "time": 88.85705399999988,
                    "velocity": 0.3858267716535433,
                    "duration": 0.07142849999999612
                },
                {
                    "name": "C4",
                    "midi": 60,
                    "time": 88.85705399999988,
                    "velocity": 0.4566929133858268,
                    "duration": 0.07142849999999612
                },
                {
                    "name": "C#3",
                    "midi": 49,
                    "time": 89.14276799999988,
                    "velocity": 0.3858267716535433,
                    "duration": 0.07142849999999612
                },
                {
                    "name": "C#4",
                    "midi": 61,
                    "time": 89.14276799999988,
                    "velocity": 0.4566929133858268,
                    "duration": 0.07142849999999612
                },
                {
                    "name": "G#4",
                    "midi": 68,
                    "time": 89.71419599999987,
                    "velocity": 0.5039370078740157,
                    "duration": 0.2857139999999987
                },
                {
                    "name": "C#5",
                    "midi": 73,
                    "time": 89.71419599999987,
                    "velocity": 0.5039370078740157,
                    "duration": 0.2857139999999987
                },
                {
                    "name": "C5",
                    "midi": 72,
                    "time": 90.00050523749987,
                    "velocity": 0.5039370078740157,
                    "duration": 0.5714279999999974
                },
                {
                    "name": "G#4",
                    "midi": 68,
                    "time": 90.00050523749987,
                    "velocity": 0.5039370078740157,
                    "duration": 0.5714279999999974
                },
                {
                    "name": "G4",
                    "midi": 67,
                    "time": 90.57133799999987,
                    "velocity": 0.4645669291338583,
                    "duration": 0.2857139999999987
                },
                {
                    "name": "A#4",
                    "midi": 70,
                    "time": 90.57133799999987,
                    "velocity": 0.4645669291338583,
                    "duration": 0.2857139999999987
                },
                {
                    "name": "G#4",
                    "midi": 68,
                    "time": 90.85705199999987,
                    "velocity": 0.4330708661417323,
                    "duration": 0.053571375000004195
                },
                {
                    "name": "D#5",
                    "midi": 75,
                    "time": 90.85705199999987,
                    "velocity": 0.4330708661417323,
                    "duration": 0.053571375000004195
                },
                {
                    "name": "F4",
                    "midi": 65,
                    "time": 91.42847999999987,
                    "velocity": 0.4330708661417323,
                    "duration": 0.053571375000004195
                },
                {
                    "name": "C#5",
                    "midi": 73,
                    "time": 91.42847999999987,
                    "velocity": 0.4330708661417323,
                    "duration": 0.053571375000004195
                },
                {
                    "name": "G#4",
                    "midi": 68,
                    "time": 91.71419399999986,
                    "velocity": 0.4330708661417323,
                    "duration": 0.053571375000004195
                },
                {
                    "name": "C5",
                    "midi": 72,
                    "time": 91.71419399999986,
                    "velocity": 0.4330708661417323,
                    "duration": 0.053571375000004195
                },
                {
                    "name": "G4",
                    "midi": 67,
                    "time": 92.28562199999986,
                    "velocity": 0.3937007874015748,
                    "duration": 0.053571375000004195
                },
                {
                    "name": "A#4",
                    "midi": 70,
                    "time": 92.28562199999986,
                    "velocity": 0.3937007874015748,
                    "duration": 0.053571375000004195
                },
                {
                    "name": "G#4",
                    "midi": 68,
                    "time": 92.57133599999986,
                    "velocity": 0.3779527559055118,
                    "duration": 0.053571375000004195
                },
                {
                    "name": "C#5",
                    "midi": 73,
                    "time": 93.14276399999986,
                    "velocity": 0.5039370078740157,
                    "duration": 0.2857139999999987
                },
                {
                    "name": "F#5",
                    "midi": 78,
                    "time": 93.14276399999986,
                    "velocity": 0.5039370078740157,
                    "duration": 0.2857139999999987
                },
                {
                    "name": "C#5",
                    "midi": 73,
                    "time": 93.42847799999986,
                    "velocity": 0.5039370078740157,
                    "duration": 0.5714279999999974
                },
                {
                    "name": "F5",
                    "midi": 77,
                    "time": 93.42847799999986,
                    "velocity": 0.5039370078740157,
                    "duration": 0.5714279999999974
                },
                {
                    "name": "C5",
                    "midi": 72,
                    "time": 93.99990599999985,
                    "velocity": 0.47244094488188976,
                    "duration": 0.2857139999999987
                },
                {
                    "name": "D#5",
                    "midi": 75,
                    "time": 93.99990599999985,
                    "velocity": 0.47244094488188976,
                    "duration": 0.2857139999999987
                },
                {
                    "name": "C#5",
                    "midi": 73,
                    "time": 94.28561999999985,
                    "velocity": 0.4409448818897638,
                    "duration": 0.053571375000004195
                },
                {
                    "name": "G#5",
                    "midi": 80,
                    "time": 94.28561999999985,
                    "velocity": 0.4409448818897638,
                    "duration": 0.053571375000004195
                },
                {
                    "name": "A#4",
                    "midi": 70,
                    "time": 94.85704799999985,
                    "velocity": 0.4330708661417323,
                    "duration": 0.053571375000004195
                },
                {
                    "name": "F#5",
                    "midi": 78,
                    "time": 94.85704799999985,
                    "velocity": 0.4330708661417323,
                    "duration": 0.053571375000004195
                },
                {
                    "name": "C#5",
                    "midi": 73,
                    "time": 95.14276199999985,
                    "velocity": 0.4409448818897638,
                    "duration": 0.053571375000004195
                },
                {
                    "name": "F5",
                    "midi": 77,
                    "time": 95.14276199999985,
                    "velocity": 0.4409448818897638,
                    "duration": 0.053571375000004195
                },
                {
                    "name": "C5",
                    "midi": 72,
                    "time": 95.71418999999985,
                    "velocity": 0.4251968503937008,
                    "duration": 0.053571375000004195
                },
                {
                    "name": "D#5",
                    "midi": 75,
                    "time": 95.71418999999985,
                    "velocity": 0.4251968503937008,
                    "duration": 0.053571375000004195
                },
                {
                    "name": "C#5",
                    "midi": 73,
                    "time": 95.99990399999984,
                    "velocity": 0.4015748031496063,
                    "duration": 0.053571375000004195
                },
                {
                    "name": "C#4",
                    "midi": 61,
                    "time": 96.57133199999984,
                    "velocity": 0.5039370078740157,
                    "duration": 0.5714279999999974
                },
                {
                    "name": "C#5",
                    "midi": 73,
                    "time": 96.57133199999984,
                    "velocity": 0.5039370078740157,
                    "duration": 0.5714279999999974
                },
                {
                    "name": "C4",
                    "midi": 60,
                    "time": 97.14275999999984,
                    "velocity": 0.5039370078740157,
                    "duration": 0.2857139999999987
                },
                {
                    "name": "C5",
                    "midi": 72,
                    "time": 97.14275999999984,
                    "velocity": 0.5039370078740157,
                    "duration": 0.2857139999999987
                },
                {
                    "name": "A#3",
                    "midi": 58,
                    "time": 97.42847399999984,
                    "velocity": 0.5039370078740157,
                    "duration": 0.2857139999999987
                },
                {
                    "name": "A#4",
                    "midi": 70,
                    "time": 97.42847399999984,
                    "velocity": 0.5039370078740157,
                    "duration": 0.5714279999999974
                },
                {
                    "name": "D#4",
                    "midi": 63,
                    "time": 97.71418799999984,
                    "velocity": 0.5039370078740157,
                    "duration": 0.2857139999999987
                },
                {
                    "name": "D#5",
                    "midi": 75,
                    "time": 97.99990199999984,
                    "velocity": 0.5039370078740157,
                    "duration": 0.07142849999999612
                },
                {
                    "name": "C#5",
                    "midi": 73,
                    "time": 98.28561599999983,
                    "velocity": 0.4645669291338583,
                    "duration": 0.5714279999999974
                },
                {
                    "name": "F4",
                    "midi": 65,
                    "time": 98.28561599999983,
                    "velocity": 0.4645669291338583,
                    "duration": 0.2857139999999987
                },
                {
                    "name": "G#4",
                    "midi": 68,
                    "time": 98.57132999999983,
                    "velocity": 0.4645669291338583,
                    "duration": 0.2857139999999987
                },
                {
                    "name": "C5",
                    "midi": 72,
                    "time": 98.85704399999983,
                    "velocity": 0.4645669291338583,
                    "duration": 0.2857139999999987
                },
                {
                    "name": "G4",
                    "midi": 67,
                    "time": 99.14275799999983,
                    "velocity": 0.4645669291338583,
                    "duration": 0.2857139999999987
                },
                {
                    "name": "A#4",
                    "midi": 70,
                    "time": 99.14275799999983,
                    "velocity": 0.4645669291338583,
                    "duration": 0.5714279999999974
                },
                {
                    "name": "G#4",
                    "midi": 68,
                    "time": 99.71418599999983,
                    "velocity": 0.5039370078740157,
                    "duration": 0.14285700000000645
                },
                {
                    "name": "F#4",
                    "midi": 66,
                    "time": 99.99989999999984,
                    "velocity": 0.5039370078740157,
                    "duration": 0.5714279999999974
                },
                {
                    "name": "F#5",
                    "midi": 78,
                    "time": 99.99989999999984,
                    "velocity": 0.5039370078740157,
                    "duration": 0.5714279999999974
                },
                {
                    "name": "F4",
                    "midi": 65,
                    "time": 100.57132799999984,
                    "velocity": 0.5039370078740157,
                    "duration": 0.2857139999999987
                },
                {
                    "name": "F5",
                    "midi": 77,
                    "time": 100.57132799999984,
                    "velocity": 0.5039370078740157,
                    "duration": 0.2857139999999987
                },
                {
                    "name": "D#4",
                    "midi": 63,
                    "time": 100.85704199999984,
                    "velocity": 0.5039370078740157,
                    "duration": 0.2857139999999987
                },
                {
                    "name": "D#5",
                    "midi": 75,
                    "time": 100.85704199999984,
                    "velocity": 0.5039370078740157,
                    "duration": 0.5714279999999974
                },
                {
                    "name": "G#4",
                    "midi": 68,
                    "time": 101.14275599999984,
                    "velocity": 0.5433070866141733,
                    "duration": 0.2857139999999987
                },
                {
                    "name": "G#5",
                    "midi": 80,
                    "time": 101.42846999999983,
                    "velocity": 0.5433070866141733,
                    "duration": 0.07142849999999612
                },
                {
                    "name": "A#4",
                    "midi": 70,
                    "time": 101.71418399999983,
                    "velocity": 0.5039370078740157,
                    "duration": 0.2857139999999987
                },
                {
                    "name": "F#5",
                    "midi": 78,
                    "time": 101.71418399999983,
                    "velocity": 0.5039370078740157,
                    "duration": 0.5714279999999974
                },
                {
                    "name": "C#5",
                    "midi": 73,
                    "time": 101.99989799999983,
                    "velocity": 0.5039370078740157,
                    "duration": 0.2857139999999987
                },
                {
                    "name": "F5",
                    "midi": 77,
                    "time": 102.28561199999983,
                    "velocity": 0.4645669291338583,
                    "duration": 0.14285700000000645
                },
                {
                    "name": "D#5",
                    "midi": 75,
                    "time": 102.57132599999984,
                    "velocity": 0.4645669291338583,
                    "duration": 0.5714279999999974
                },
                {
                    "name": "C5",
                    "midi": 72,
                    "time": 102.57132599999984,
                    "velocity": 0.4645669291338583,
                    "duration": 0.2857139999999987
                },
                {
                    "name": "C#5",
                    "midi": 73,
                    "time": 103.14275399999984,
                    "velocity": 0.4409448818897638,
                    "duration": 0.14285700000000645
                },
                {
                    "name": "C#5",
                    "midi": 73,
                    "time": 103.42846799999985,
                    "velocity": 0.5039370078740157,
                    "duration": 0.2857139999999987
                },
                {
                    "name": "F4",
                    "midi": 65,
                    "time": 103.42846799999985,
                    "velocity": 0.5039370078740157,
                    "duration": 0.2857139999999987
                },
                {
                    "name": "C#5",
                    "midi": 73,
                    "time": 103.71418199999985,
                    "velocity": 0.5039370078740157,
                    "duration": 0.5714279999999974
                },
                {
                    "name": "F4",
                    "midi": 65,
                    "time": 103.71418199999985,
                    "velocity": 0.5039370078740157,
                    "duration": 0.5714279999999974
                },
                {
                    "name": "F4",
                    "midi": 65,
                    "time": 104.28560999999985,
                    "velocity": 0.5039370078740157,
                    "duration": 0.2857139999999987
                },
                {
                    "name": "C#5",
                    "midi": 73,
                    "time": 104.28560999999985,
                    "velocity": 0.5039370078740157,
                    "duration": 0.2857139999999987
                },
                {
                    "name": "D#4",
                    "midi": 63,
                    "time": 104.57132399999985,
                    "velocity": 0.5039370078740157,
                    "duration": 0.5714280000000116
                },
                {
                    "name": "C#5",
                    "midi": 73,
                    "time": 104.57132399999985,
                    "velocity": 0.5039370078740157,
                    "duration": 0.2857139999999987
                },
                {
                    "name": "C5",
                    "midi": 72,
                    "time": 104.85703799999985,
                    "velocity": 0.5039370078740157,
                    "duration": 0.14285700000000645
                },
                {
                    "name": "D#4",
                    "midi": 63,
                    "time": 105.14275199999986,
                    "velocity": 0.44881889763779526,
                    "duration": 0.2857139999999987
                },
                {
                    "name": "B4",
                    "midi": 71,
                    "time": 105.14275199999986,
                    "velocity": 0.44881889763779526,
                    "duration": 0.2857139999999987
                },
                {
                    "name": "D#4",
                    "midi": 63,
                    "time": 105.42846599999986,
                    "velocity": 0.4566929133858268,
                    "duration": 0.5714279999999974
                },
                {
                    "name": "B4",
                    "midi": 71,
                    "time": 105.42846599999986,
                    "velocity": 0.4566929133858268,
                    "duration": 0.5714279999999974
                },
                {
                    "name": "D#4",
                    "midi": 63,
                    "time": 105.99989399999986,
                    "velocity": 0.4566929133858268,
                    "duration": 0.2857139999999987
                },
                {
                    "name": "B4",
                    "midi": 71,
                    "time": 105.99989399999986,
                    "velocity": 0.4566929133858268,
                    "duration": 0.2857139999999987
                },
                {
                    "name": "D#4",
                    "midi": 63,
                    "time": 106.28560799999985,
                    "velocity": 0.4566929133858268,
                    "duration": 0.5714280000000116
                },
                {
                    "name": "B4",
                    "midi": 71,
                    "time": 106.28560799999985,
                    "velocity": 0.4566929133858268,
                    "duration": 0.2857139999999987
                },
                {
                    "name": "A#4",
                    "midi": 70,
                    "time": 106.57132199999985,
                    "velocity": 0.4566929133858268,
                    "duration": 0.14285700000000645
                },
                {
                    "name": "C#4",
                    "midi": 61,
                    "time": 106.85703599999987,
                    "velocity": 0.5039370078740157,
                    "duration": 0.2857139999999987
                },
                {
                    "name": "A#4",
                    "midi": 70,
                    "time": 106.85703599999987,
                    "velocity": 0.5039370078740157,
                    "duration": 0.2857139999999987
                },
                {
                    "name": "F#4",
                    "midi": 66,
                    "time": 107.14274999999986,
                    "velocity": 0.5748031496062992,
                    "duration": 0.5714279999999974
                },
                {
                    "name": "C5",
                    "midi": 72,
                    "time": 107.14274999999986,
                    "velocity": 0.5748031496062992,
                    "duration": 0.5714279999999974
                },
                {
                    "name": "F4",
                    "midi": 65,
                    "time": 107.71417799999986,
                    "velocity": 0.6062992125984252,
                    "duration": 0.2857139999999987
                },
                {
                    "name": "C#5",
                    "midi": 73,
                    "time": 107.71417799999986,
                    "velocity": 0.6062992125984252,
                    "duration": 0.2857139999999987
                },
                {
                    "name": "F#4",
                    "midi": 66,
                    "time": 107.99989199999986,
                    "velocity": 0.6929133858267716,
                    "duration": 0.5714279999999974
                },
                {
                    "name": "D#5",
                    "midi": 75,
                    "time": 107.99989199999986,
                    "velocity": 0.6929133858267716,
                    "duration": 0.5714279999999974
                },
                {
                    "name": "D#4",
                    "midi": 63,
                    "time": 108.57131999999986,
                    "velocity": 0.5905511811023622,
                    "duration": 0.5714279999999974
                },
                {
                    "name": "F#4",
                    "midi": 66,
                    "time": 108.57131999999986,
                    "velocity": 0.5905511811023622,
                    "duration": 0.5714279999999974
                },
                {
                    "name": "C#4",
                    "midi": 61,
                    "time": 109.14274799999986,
                    "velocity": 0.5039370078740157,
                    "duration": 0.2857139999999987
                },
                {
                    "name": "F4",
                    "midi": 65,
                    "time": 109.14274799999986,
                    "velocity": 0.5039370078740157,
                    "duration": 0.2857139999999987
                },
                {
                    "name": "A#4",
                    "midi": 70,
                    "time": 109.42846199999985,
                    "velocity": 0.5039370078740157,
                    "duration": 0.14285700000000645
                },
                {
                    "name": "A#3",
                    "midi": 58,
                    "time": 109.42846199999985,
                    "velocity": 0.5039370078740157,
                    "duration": 0.2857140000000129
                },
                {
                    "name": "F#4",
                    "midi": 66,
                    "time": 109.57131899999986,
                    "velocity": 0.5039370078740157,
                    "duration": 0.14285700000000645
                },
                {
                    "name": "C#4",
                    "midi": 61,
                    "time": 109.71417599999987,
                    "velocity": 0.5511811023622047,
                    "duration": 0.2857139999999987
                },
                {
                    "name": "F4",
                    "midi": 65,
                    "time": 109.71417599999987,
                    "velocity": 0.5511811023622047,
                    "duration": 0.2857139999999987
                },
                {
                    "name": "C4",
                    "midi": 60,
                    "time": 109.99988999999987,
                    "velocity": 0.5039370078740157,
                    "duration": 0.2857139999999987
                },
                {
                    "name": "D#4",
                    "midi": 63,
                    "time": 109.99988999999987,
                    "velocity": 0.5039370078740157,
                    "duration": 0.2857139999999987
                },
                {
                    "name": "C#4",
                    "midi": 61,
                    "time": 110.28560399999986,
                    "velocity": 0.5039370078740157,
                    "duration": 0.2857139999999987
                },
                {
                    "name": "C#5",
                    "midi": 73,
                    "time": 110.28560399999986,
                    "velocity": 0.5039370078740157,
                    "duration": 0.2857139999999987
                },
                {
                    "name": "C4",
                    "midi": 60,
                    "time": 110.57131799999986,
                    "velocity": 0.5118110236220472,
                    "duration": 0.5714279999999974
                },
                {
                    "name": "C5",
                    "midi": 72,
                    "time": 110.57131799999986,
                    "velocity": 0.5118110236220472,
                    "duration": 0.5714279999999974
                },
                {
                    "name": "A#4",
                    "midi": 70,
                    "time": 111.14274599999986,
                    "velocity": 0.5354330708661418,
                    "duration": 0.2857139999999987
                },
                {
                    "name": "A#3",
                    "midi": 58,
                    "time": 111.14274599999986,
                    "velocity": 0.5354330708661418,
                    "duration": 0.2857139999999987
                },
                {
                    "name": "D#4",
                    "midi": 63,
                    "time": 111.42845999999986,
                    "velocity": 0.5118110236220472,
                    "duration": 0.053571375000004195
                },
                {
                    "name": "D#5",
                    "midi": 75,
                    "time": 111.42845999999986,
                    "velocity": 0.5118110236220472,
                    "duration": 0.053571375000004195
                },
                {
                    "name": "F4",
                    "midi": 65,
                    "time": 111.99988799999986,
                    "velocity": 0.5039370078740157,
                    "duration": 0.2857139999999987
                },
                {
                    "name": "C#5",
                    "midi": 73,
                    "time": 111.99988799999986,
                    "velocity": 0.5039370078740157,
                    "duration": 0.5714279999999974
                },
                {
                    "name": "G#4",
                    "midi": 68,
                    "time": 112.28560199999986,
                    "velocity": 0.5039370078740157,
                    "duration": 0.2857139999999987
                },
                {
                    "name": "C5",
                    "midi": 72,
                    "time": 112.57131599999985,
                    "velocity": 0.5039370078740157,
                    "duration": 0.2857139999999987
                },
                {
                    "name": "G4",
                    "midi": 67,
                    "time": 112.85702999999985,
                    "velocity": 0.4645669291338583,
                    "duration": 0.2857139999999987
                },
                {
                    "name": "A#4",
                    "midi": 70,
                    "time": 112.85702999999985,
                    "velocity": 0.4645669291338583,
                    "duration": 0.5714279999999974
                },
                {
                    "name": "G#4",
                    "midi": 68,
                    "time": 113.42845799999985,
                    "velocity": 0.4566929133858268,
                    "duration": 0.14285700000000645
                },
                {
                    "name": "F#4",
                    "midi": 66,
                    "time": 113.71417199999986,
                    "velocity": 0.5039370078740157,
                    "duration": 0.2857139999999987
                },
                {
                    "name": "F#5",
                    "midi": 78,
                    "time": 113.71417199999986,
                    "velocity": 0.5039370078740157,
                    "duration": 0.2857139999999987
                },
                {
                    "name": "F4",
                    "midi": 65,
                    "time": 113.99988599999986,
                    "velocity": 0.5118110236220472,
                    "duration": 0.5714279999999974
                },
                {
                    "name": "F5",
                    "midi": 77,
                    "time": 113.99988599999986,
                    "velocity": 0.5118110236220472,
                    "duration": 0.5714279999999974
                },
                {
                    "name": "D#4",
                    "midi": 63,
                    "time": 114.57131399999986,
                    "velocity": 0.5354330708661418,
                    "duration": 0.2857139999999987
                },
                {
                    "name": "D#5",
                    "midi": 75,
                    "time": 114.57131399999986,
                    "velocity": 0.5354330708661418,
                    "duration": 0.2857139999999987
                },
                {
                    "name": "G#4",
                    "midi": 68,
                    "time": 114.85702799999986,
                    "velocity": 0.5118110236220472,
                    "duration": 0.053571375000004195
                },
                {
                    "name": "G#5",
                    "midi": 80,
                    "time": 114.85702799999986,
                    "velocity": 0.5118110236220472,
                    "duration": 0.053571375000004195
                },
                {
                    "name": "F#4",
                    "midi": 66,
                    "time": 115.42845599999985,
                    "velocity": 0.5039370078740157,
                    "duration": 0.5714279999999974
                },
                {
                    "name": "F#5",
                    "midi": 78,
                    "time": 115.42845599999985,
                    "velocity": 0.5039370078740157,
                    "duration": 0.5714279999999974
                },
                {
                    "name": "F4",
                    "midi": 65,
                    "time": 115.99988399999985,
                    "velocity": 0.5039370078740157,
                    "duration": 0.2857139999999987
                },
                {
                    "name": "F5",
                    "midi": 77,
                    "time": 115.99988399999985,
                    "velocity": 0.5039370078740157,
                    "duration": 0.2857139999999987
                },
                {
                    "name": "D#4",
                    "midi": 63,
                    "time": 116.28559799999985,
                    "velocity": 0.5039370078740157,
                    "duration": 0.14285700000000645
                },
                {
                    "name": "D#5",
                    "midi": 75,
                    "time": 116.28559799999985,
                    "velocity": 0.5039370078740157,
                    "duration": 0.14285700000000645
                },
                {
                    "name": "G#4",
                    "midi": 68,
                    "time": 116.57131199999986,
                    "velocity": 0.5039370078740157,
                    "duration": 0.053571375000004195
                },
                {
                    "name": "G#5",
                    "midi": 80,
                    "time": 116.57131199999986,
                    "velocity": 0.5039370078740157,
                    "duration": 0.053571375000004195
                },
                {
                    "name": "F#4",
                    "midi": 66,
                    "time": 117.14273999999986,
                    "velocity": 0.5748031496062992,
                    "duration": 0.5714279999999974
                },
                {
                    "name": "F#5",
                    "midi": 78,
                    "time": 117.14273999999986,
                    "velocity": 0.5748031496062992,
                    "duration": 0.5714279999999974
                },
                {
                    "name": "F4",
                    "midi": 65,
                    "time": 117.71416799999986,
                    "velocity": 0.6692913385826772,
                    "duration": 0.2857139999999987
                },
                {
                    "name": "F5",
                    "midi": 77,
                    "time": 117.71416799999986,
                    "velocity": 0.6692913385826772,
                    "duration": 0.2857139999999987
                },
                {
                    "name": "A#4",
                    "midi": 70,
                    "time": 117.99988199999986,
                    "velocity": 0.8110236220472441,
                    "duration": 0.5714279999999974
                },
                {
                    "name": "A#5",
                    "midi": 82,
                    "time": 117.99988199999986,
                    "velocity": 0.8110236220472441,
                    "duration": 0.5714279999999974
                },
                {
                    "name": "G#4",
                    "midi": 68,
                    "time": 118.57130999999985,
                    "velocity": 0.6062992125984252,
                    "duration": 0.2857139999999987
                },
                {
                    "name": "G#5",
                    "midi": 80,
                    "time": 118.57130999999985,
                    "velocity": 0.6062992125984252,
                    "duration": 0.2857139999999987
                },
                {
                    "name": "F#3",
                    "midi": 54,
                    "time": 119.14273799999985,
                    "velocity": 0.5039370078740157,
                    "duration": 0.8571420000000103
                },
                {
                    "name": "C4",
                    "midi": 60,
                    "time": 119.14273799999985,
                    "velocity": 0.5039370078740157,
                    "duration": 0.5714279999999974
                },
                {
                    "name": "D#4",
                    "midi": 63,
                    "time": 119.71416599999985,
                    "velocity": 0.47244094488188976,
                    "duration": 0.14285700000000645
                },
                {
                    "name": "C#4",
                    "midi": 61,
                    "time": 119.85702299999986,
                    "velocity": 0.47244094488188976,
                    "duration": 0.14285700000000645
                },
                {
                    "name": "F3",
                    "midi": 53,
                    "time": 119.99987999999986,
                    "velocity": 0.4251968503937008,
                    "duration": 0.2857139999999987
                },
                {
                    "name": "C#4",
                    "midi": 61,
                    "time": 119.99987999999986,
                    "velocity": 0.44881889763779526,
                    "duration": 0.2857139999999987
                }
            ],
            "controlChanges": {
                "7": [
                    {
                        "number": 7,
                        "time": 0,
                        "value": 0.7874015748031497
                    }
                ],
                "10": [
                    {
                        "number": 10,
                        "time": 0,
                        "value": 0.5039370078740157
                    }
                ],
                "91": [
                    {
                        "number": 91,
                        "time": 0,
                        "value": 1
                    },
                    {
                        "number": 91,
                        "time": 0.5708327625,
                        "value": 1
                    }
                ]
            },
            "id": 1,
            "name": "PIano right ",
            "instrumentNumber": 0,
            "instrument": "acoustic grand piano",
            "instrumentFamily": "piano",
            "channelNumber": 0,
            "isPercussion": false
        },
        {
            "startTime": 0.571428,
            "duration": 120.2855939999999,
            "length": 396,
            "notes": [
                {
                    "name": "F4",
                    "midi": 65,
                    "time": 0.571428,
                    "velocity": 0.4094488188976378,
                    "duration": 0.285714
                },
                {
                    "name": "D#4",
                    "midi": 63,
                    "time": 0.8577372375000001,
                    "velocity": 0.4330708661417323,
                    "duration": 0.571428
                },
                {
                    "name": "C#4",
                    "midi": 61,
                    "time": 1.4285700000000001,
                    "velocity": 0.3858267716535433,
                    "duration": 0.285714
                },
                {
                    "name": "C4",
                    "midi": 60,
                    "time": 1.7142840000000001,
                    "velocity": 0.36220472440944884,
                    "duration": 0.05357137499999998
                },
                {
                    "name": "C#3",
                    "midi": 49,
                    "time": 2.285712,
                    "velocity": 0.3464566929133858,
                    "duration": 0.0535713750000002
                },
                {
                    "name": "A#3",
                    "midi": 58,
                    "time": 2.285712,
                    "velocity": 0.3464566929133858,
                    "duration": 0.0535713750000002
                },
                {
                    "name": "D#4",
                    "midi": 63,
                    "time": 2.571426,
                    "velocity": 0.3543307086614173,
                    "duration": 0.0535713750000002
                },
                {
                    "name": "D#3",
                    "midi": 51,
                    "time": 2.571426,
                    "velocity": 0.3543307086614173,
                    "duration": 0.0535713750000002
                },
                {
                    "name": "D#3",
                    "midi": 51,
                    "time": 3.1428540000000007,
                    "velocity": 0.33070866141732286,
                    "duration": 0.0535713750000002
                },
                {
                    "name": "C#4",
                    "midi": 61,
                    "time": 3.1428540000000007,
                    "velocity": 0.33070866141732286,
                    "duration": 0.0535713750000002
                },
                {
                    "name": "G#3",
                    "midi": 56,
                    "time": 3.4285680000000007,
                    "velocity": 0.3228346456692913,
                    "duration": 0.0535713750000002
                },
                {
                    "name": "C4",
                    "midi": 60,
                    "time": 3.4285680000000007,
                    "velocity": 0.3228346456692913,
                    "duration": 0.0535713750000002
                },
                {
                    "name": "A#4",
                    "midi": 70,
                    "time": 3.999996000000001,
                    "velocity": 0.4330708661417323,
                    "duration": 0.28571400000000047
                },
                {
                    "name": "G#4",
                    "midi": 68,
                    "time": 4.285710000000002,
                    "velocity": 0.4330708661417323,
                    "duration": 0.571428
                },
                {
                    "name": "F#4",
                    "midi": 66,
                    "time": 4.857138000000002,
                    "velocity": 0.4094488188976378,
                    "duration": 0.2857139999999996
                },
                {
                    "name": "F4",
                    "midi": 65,
                    "time": 5.142852000000001,
                    "velocity": 0.3700787401574803,
                    "duration": 0.053571374999999755
                },
                {
                    "name": "F#3",
                    "midi": 54,
                    "time": 5.714280000000001,
                    "velocity": 0.3700787401574803,
                    "duration": 0.053571374999999755
                },
                {
                    "name": "D#4",
                    "midi": 63,
                    "time": 5.714280000000001,
                    "velocity": 0.3700787401574803,
                    "duration": 0.053571374999999755
                },
                {
                    "name": "G#3",
                    "midi": 56,
                    "time": 5.999994000000001,
                    "velocity": 0.3700787401574803,
                    "duration": 0.053571374999999755
                },
                {
                    "name": "G#4",
                    "midi": 68,
                    "time": 5.999994000000001,
                    "velocity": 0.3700787401574803,
                    "duration": 0.053571374999999755
                },
                {
                    "name": "G#3",
                    "midi": 56,
                    "time": 6.571422000000001,
                    "velocity": 0.3543307086614173,
                    "duration": 0.053571374999999755
                },
                {
                    "name": "F#4",
                    "midi": 66,
                    "time": 6.571422000000001,
                    "velocity": 0.3543307086614173,
                    "duration": 0.053571374999999755
                },
                {
                    "name": "C#4",
                    "midi": 61,
                    "time": 6.857136000000001,
                    "velocity": 0.3464566929133858,
                    "duration": 0.053571374999999755
                },
                {
                    "name": "F4",
                    "midi": 65,
                    "time": 6.857136000000001,
                    "velocity": 0.3464566929133858,
                    "duration": 0.053571374999999755
                },
                {
                    "name": "F3",
                    "midi": 53,
                    "time": 7.428564000000001,
                    "velocity": 0.3700787401574803,
                    "duration": 0.2857139999999996
                },
                {
                    "name": "G#3",
                    "midi": 56,
                    "time": 7.428564000000001,
                    "velocity": 0.3700787401574803,
                    "duration": 0.2857139999999996
                },
                {
                    "name": "D#3",
                    "midi": 51,
                    "time": 7.714278,
                    "velocity": 0.4330708661417323,
                    "duration": 0.5714280000000009
                },
                {
                    "name": "G#3",
                    "midi": 56,
                    "time": 7.714278,
                    "velocity": 0.4330708661417323,
                    "duration": 0.5714280000000009
                },
                {
                    "name": "G3",
                    "midi": 55,
                    "time": 8.285706000000001,
                    "velocity": 0.3858267716535433,
                    "duration": 0.28571400000000047
                },
                {
                    "name": "C#3",
                    "midi": 49,
                    "time": 8.285706000000001,
                    "velocity": 0.3858267716535433,
                    "duration": 0.28571400000000047
                },
                {
                    "name": "C3",
                    "midi": 48,
                    "time": 8.571420000000002,
                    "velocity": 0.4330708661417323,
                    "duration": 0.28571400000000047
                },
                {
                    "name": "C4",
                    "midi": 60,
                    "time": 8.571420000000002,
                    "velocity": 0.4330708661417323,
                    "duration": 0.28571400000000047
                },
                {
                    "name": "C#3",
                    "midi": 49,
                    "time": 9.142848000000003,
                    "velocity": 0.3779527559055118,
                    "duration": 0.14285699999999935
                },
                {
                    "name": "A#3",
                    "midi": 58,
                    "time": 9.142848000000003,
                    "velocity": 0.3779527559055118,
                    "duration": 0.14285699999999935
                },
                {
                    "name": "D#3",
                    "midi": 51,
                    "time": 9.428562000000001,
                    "velocity": 0.4094488188976378,
                    "duration": 0.14285699999999935
                },
                {
                    "name": "D#4",
                    "midi": 63,
                    "time": 9.428562000000001,
                    "velocity": 0.4094488188976378,
                    "duration": 0.14285699999999935
                },
                {
                    "name": "D#3",
                    "midi": 51,
                    "time": 9.99999,
                    "velocity": 0.3543307086614173,
                    "duration": 0.14285699999999935
                },
                {
                    "name": "C#4",
                    "midi": 61,
                    "time": 9.99999,
                    "velocity": 0.3543307086614173,
                    "duration": 0.14285699999999935
                },
                {
                    "name": "G#3",
                    "midi": 56,
                    "time": 10.285703999999999,
                    "velocity": 0.3779527559055118,
                    "duration": 0.14285699999999935
                },
                {
                    "name": "C4",
                    "midi": 60,
                    "time": 10.285703999999999,
                    "velocity": 0.3779527559055118,
                    "duration": 0.14285699999999935
                },
                {
                    "name": "A#3",
                    "midi": 58,
                    "time": 10.857131999999998,
                    "velocity": 0.3858267716535433,
                    "duration": 0.28571400000000047
                },
                {
                    "name": "C#4",
                    "midi": 61,
                    "time": 10.857131999999998,
                    "velocity": 0.3858267716535433,
                    "duration": 0.28571400000000047
                },
                {
                    "name": "G#3",
                    "midi": 56,
                    "time": 11.142845999999999,
                    "velocity": 0.4409448818897638,
                    "duration": 0.5714280000000009
                },
                {
                    "name": "C#4",
                    "midi": 61,
                    "time": 11.142845999999999,
                    "velocity": 0.4409448818897638,
                    "duration": 0.5714280000000009
                },
                {
                    "name": "F#3",
                    "midi": 54,
                    "time": 11.714274,
                    "velocity": 0.4330708661417323,
                    "duration": 0.28571400000000047
                },
                {
                    "name": "C4",
                    "midi": 60,
                    "time": 11.714274,
                    "velocity": 0.4330708661417323,
                    "duration": 0.28571400000000047
                },
                {
                    "name": "F3",
                    "midi": 53,
                    "time": 11.999988,
                    "velocity": 0.47244094488188976,
                    "duration": 0.28571400000000047
                },
                {
                    "name": "F4",
                    "midi": 65,
                    "time": 11.999988,
                    "velocity": 0.47244094488188976,
                    "duration": 0.28571400000000047
                },
                {
                    "name": "F#3",
                    "midi": 54,
                    "time": 12.571416000000001,
                    "velocity": 0.36220472440944884,
                    "duration": 0.14285699999999935
                },
                {
                    "name": "D#4",
                    "midi": 63,
                    "time": 12.571416000000001,
                    "velocity": 0.36220472440944884,
                    "duration": 0.14285699999999935
                },
                {
                    "name": "G#3",
                    "midi": 56,
                    "time": 12.85713,
                    "velocity": 0.4094488188976378,
                    "duration": 0.14285699999999935
                },
                {
                    "name": "G#4",
                    "midi": 68,
                    "time": 12.85713,
                    "velocity": 0.4094488188976378,
                    "duration": 0.14285699999999935
                },
                {
                    "name": "G#3",
                    "midi": 56,
                    "time": 13.428557999999999,
                    "velocity": 0.3543307086614173,
                    "duration": 0.14285699999999935
                },
                {
                    "name": "F#4",
                    "midi": 66,
                    "time": 13.428557999999999,
                    "velocity": 0.3543307086614173,
                    "duration": 0.14285699999999935
                },
                {
                    "name": "C#4",
                    "midi": 61,
                    "time": 13.714271999999998,
                    "velocity": 0.3700787401574803,
                    "duration": 0.14285699999999935
                },
                {
                    "name": "F4",
                    "midi": 65,
                    "time": 13.714271999999998,
                    "velocity": 0.3700787401574803,
                    "duration": 0.14285699999999935
                },
                {
                    "name": "C#4",
                    "midi": 61,
                    "time": 14.285699999999997,
                    "velocity": 0.36220472440944884,
                    "duration": 0.28571400000000047
                },
                {
                    "name": "A#3",
                    "midi": 58,
                    "time": 14.571413999999997,
                    "velocity": 0.3937007874015748,
                    "duration": 0.5714280000000009
                },
                {
                    "name": "G#3",
                    "midi": 56,
                    "time": 15.142841999999998,
                    "velocity": 0.3937007874015748,
                    "duration": 0.28571400000000047
                },
                {
                    "name": "G3",
                    "midi": 55,
                    "time": 15.428555999999999,
                    "velocity": 0.3937007874015748,
                    "duration": 0.28571400000000047
                },
                {
                    "name": "G#3",
                    "midi": 56,
                    "time": 15.714269999999999,
                    "velocity": 0.3700787401574803,
                    "duration": 0.14285699999999935
                },
                {
                    "name": "G#3",
                    "midi": 56,
                    "time": 15.999983999999998,
                    "velocity": 0.3700787401574803,
                    "duration": 0.2857139999999987
                },
                {
                    "name": "G#3",
                    "midi": 56,
                    "time": 16.285697999999996,
                    "velocity": 0.3700787401574803,
                    "duration": 0.5714280000000009
                },
                {
                    "name": "F#3",
                    "midi": 54,
                    "time": 16.857125999999997,
                    "velocity": 0.3700787401574803,
                    "duration": 0.2857139999999987
                },
                {
                    "name": "F3",
                    "midi": 53,
                    "time": 17.142839999999996,
                    "velocity": 0.3779527559055118,
                    "duration": 0.2857139999999987
                },
                {
                    "name": "F#3",
                    "midi": 54,
                    "time": 17.428553999999995,
                    "velocity": 0.3779527559055118,
                    "duration": 0.14285699999999935
                },
                {
                    "name": "F#3",
                    "midi": 54,
                    "time": 17.714267999999993,
                    "velocity": 0.4330708661417323,
                    "duration": 0.2857139999999987
                },
                {
                    "name": "D#3",
                    "midi": 51,
                    "time": 17.999981999999992,
                    "velocity": 0.4566929133858268,
                    "duration": 0.5714280000000009
                },
                {
                    "name": "G#3",
                    "midi": 56,
                    "time": 17.999981999999992,
                    "velocity": 0.4566929133858268,
                    "duration": 0.5714280000000009
                },
                {
                    "name": "C#3",
                    "midi": 49,
                    "time": 18.571409999999993,
                    "velocity": 0.5118110236220472,
                    "duration": 0.2857139999999987
                },
                {
                    "name": "G#3",
                    "midi": 56,
                    "time": 18.571409999999993,
                    "velocity": 0.5118110236220472,
                    "duration": 0.2857139999999987
                },
                {
                    "name": "C3",
                    "midi": 48,
                    "time": 18.857123999999992,
                    "velocity": 0.5748031496062992,
                    "duration": 0.8571419999999996
                },
                {
                    "name": "G#3",
                    "midi": 56,
                    "time": 18.857123999999992,
                    "velocity": 0.5748031496062992,
                    "duration": 0.8571419999999996
                },
                {
                    "name": "C#3",
                    "midi": 49,
                    "time": 19.71426599999999,
                    "velocity": 0.4409448818897638,
                    "duration": 0.5714280000000009
                },
                {
                    "name": "G#3",
                    "midi": 56,
                    "time": 19.71426599999999,
                    "velocity": 0.4409448818897638,
                    "duration": 0.5714280000000009
                },
                {
                    "name": "F#3",
                    "midi": 54,
                    "time": 20.285693999999992,
                    "velocity": 0.4330708661417323,
                    "duration": 0.14285699999999935
                },
                {
                    "name": "F#2",
                    "midi": 42,
                    "time": 20.285693999999992,
                    "velocity": 0.4330708661417323,
                    "duration": 0.2857139999999987
                },
                {
                    "name": "D#3",
                    "midi": 51,
                    "time": 20.42855099999999,
                    "velocity": 0.4330708661417323,
                    "duration": 0.14285699999999935
                },
                {
                    "name": "F#2",
                    "midi": 42,
                    "time": 20.57140799999999,
                    "velocity": 0.4330708661417323,
                    "duration": 0.4285710000000016
                },
                {
                    "name": "G#3",
                    "midi": 56,
                    "time": 20.57140799999999,
                    "velocity": 0.4330708661417323,
                    "duration": 0.4285710000000016
                },
                {
                    "name": "F3",
                    "midi": 53,
                    "time": 21.142835999999992,
                    "velocity": 0.4015748031496063,
                    "duration": 0.2857139999999987
                },
                {
                    "name": "G#3",
                    "midi": 56,
                    "time": 21.142835999999992,
                    "velocity": 0.4015748031496063,
                    "duration": 0.2857139999999987
                },
                {
                    "name": "D#3",
                    "midi": 51,
                    "time": 21.42854999999999,
                    "velocity": 0.4409448818897638,
                    "duration": 0.5714280000000009
                },
                {
                    "name": "G#3",
                    "midi": 56,
                    "time": 21.42854999999999,
                    "velocity": 0.4409448818897638,
                    "duration": 0.5714280000000009
                },
                {
                    "name": "C#3",
                    "midi": 49,
                    "time": 21.99997799999999,
                    "velocity": 0.3700787401574803,
                    "duration": 0.2857139999999987
                },
                {
                    "name": "G3",
                    "midi": 55,
                    "time": 21.99997799999999,
                    "velocity": 0.3700787401574803,
                    "duration": 0.2857139999999987
                },
                {
                    "name": "C3",
                    "midi": 48,
                    "time": 22.28569199999999,
                    "velocity": 0.3858267716535433,
                    "duration": 0.05357137500000064
                },
                {
                    "name": "C4",
                    "midi": 60,
                    "time": 22.28569199999999,
                    "velocity": 0.3858267716535433,
                    "duration": 0.05357137500000064
                },
                {
                    "name": "C#3",
                    "midi": 49,
                    "time": 22.85711999999999,
                    "velocity": 0.3779527559055118,
                    "duration": 0.14285699999999935
                },
                {
                    "name": "A#3",
                    "midi": 58,
                    "time": 22.85711999999999,
                    "velocity": 0.3779527559055118,
                    "duration": 0.14285699999999935
                },
                {
                    "name": "D#3",
                    "midi": 51,
                    "time": 23.14283399999999,
                    "velocity": 0.4251968503937008,
                    "duration": 0.14285699999999935
                },
                {
                    "name": "D#4",
                    "midi": 63,
                    "time": 23.14283399999999,
                    "velocity": 0.4251968503937008,
                    "duration": 0.14285699999999935
                },
                {
                    "name": "D#3",
                    "midi": 51,
                    "time": 23.71426199999999,
                    "velocity": 0.3700787401574803,
                    "duration": 0.14285699999999935
                },
                {
                    "name": "C#4",
                    "midi": 61,
                    "time": 23.71426199999999,
                    "velocity": 0.3700787401574803,
                    "duration": 0.14285699999999935
                },
                {
                    "name": "G#3",
                    "midi": 56,
                    "time": 23.99997599999999,
                    "velocity": 0.4015748031496063,
                    "duration": 0.14285699999999935
                },
                {
                    "name": "C4",
                    "midi": 60,
                    "time": 23.99997599999999,
                    "velocity": 0.4015748031496063,
                    "duration": 0.14285699999999935
                },
                {
                    "name": "A#3",
                    "midi": 58,
                    "time": 24.57140399999999,
                    "velocity": 0.3858267716535433,
                    "duration": 0.2857139999999987
                },
                {
                    "name": "C#4",
                    "midi": 61,
                    "time": 24.57140399999999,
                    "velocity": 0.3858267716535433,
                    "duration": 0.2857139999999987
                },
                {
                    "name": "G#3",
                    "midi": 56,
                    "time": 24.85711799999999,
                    "velocity": 0.4409448818897638,
                    "duration": 0.5714280000000009
                },
                {
                    "name": "C#4",
                    "midi": 61,
                    "time": 24.85711799999999,
                    "velocity": 0.4409448818897638,
                    "duration": 0.5714280000000009
                },
                {
                    "name": "F#3",
                    "midi": 54,
                    "time": 25.42854599999999,
                    "velocity": 0.3858267716535433,
                    "duration": 0.2857139999999987
                },
                {
                    "name": "C4",
                    "midi": 60,
                    "time": 25.42854599999999,
                    "velocity": 0.3858267716535433,
                    "duration": 0.2857139999999987
                },
                {
                    "name": "F3",
                    "midi": 53,
                    "time": 25.71425999999999,
                    "velocity": 0.41732283464566927,
                    "duration": 0.05357137500000064
                },
                {
                    "name": "C#4",
                    "midi": 61,
                    "time": 25.71425999999999,
                    "velocity": 0.41732283464566927,
                    "duration": 0.05357137500000064
                },
                {
                    "name": "A#3",
                    "midi": 58,
                    "time": 26.28568799999999,
                    "velocity": 0.3700787401574803,
                    "duration": 0.2857139999999987
                },
                {
                    "name": "C#4",
                    "midi": 61,
                    "time": 26.28568799999999,
                    "velocity": 0.3700787401574803,
                    "duration": 0.2857139999999987
                },
                {
                    "name": "G#3",
                    "midi": 56,
                    "time": 26.57140199999999,
                    "velocity": 0.4330708661417323,
                    "duration": 0.5714280000000009
                },
                {
                    "name": "C#4",
                    "midi": 61,
                    "time": 26.57140199999999,
                    "velocity": 0.4330708661417323,
                    "duration": 0.5714280000000009
                },
                {
                    "name": "F#3",
                    "midi": 54,
                    "time": 27.14282999999999,
                    "velocity": 0.3700787401574803,
                    "duration": 0.2857139999999987
                },
                {
                    "name": "C4",
                    "midi": 60,
                    "time": 27.14282999999999,
                    "velocity": 0.3700787401574803,
                    "duration": 0.2857139999999987
                },
                {
                    "name": "F3",
                    "midi": 53,
                    "time": 27.428543999999988,
                    "velocity": 0.4409448818897638,
                    "duration": 0.05357137500000064
                },
                {
                    "name": "C#4",
                    "midi": 61,
                    "time": 27.428543999999988,
                    "velocity": 0.4409448818897638,
                    "duration": 0.05357137500000064
                },
                {
                    "name": "A#3",
                    "midi": 58,
                    "time": 27.99997199999999,
                    "velocity": 0.4251968503937008,
                    "duration": 0.2857139999999987
                },
                {
                    "name": "C#4",
                    "midi": 61,
                    "time": 27.99997199999999,
                    "velocity": 0.4251968503937008,
                    "duration": 0.2857139999999987
                },
                {
                    "name": "G#3",
                    "midi": 56,
                    "time": 28.285685999999988,
                    "velocity": 0.48031496062992124,
                    "duration": 0.5714280000000009
                },
                {
                    "name": "C#4",
                    "midi": 61,
                    "time": 28.285685999999988,
                    "velocity": 0.48031496062992124,
                    "duration": 0.5714280000000009
                },
                {
                    "name": "G3",
                    "midi": 55,
                    "time": 28.85711399999999,
                    "velocity": 0.5590551181102362,
                    "duration": 0.2857139999999987
                },
                {
                    "name": "E4",
                    "midi": 64,
                    "time": 28.85711399999999,
                    "velocity": 0.5590551181102362,
                    "duration": 0.2857139999999987
                },
                {
                    "name": "C#4",
                    "midi": 61,
                    "time": 28.85711399999999,
                    "velocity": 0.5590551181102362,
                    "duration": 0.2857139999999987
                },
                {
                    "name": "G#3",
                    "midi": 56,
                    "time": 29.142827999999987,
                    "velocity": 0.5826771653543307,
                    "duration": 0.2857139999999987
                },
                {
                    "name": "C#4",
                    "midi": 61,
                    "time": 29.142827999999987,
                    "velocity": 0.5826771653543307,
                    "duration": 0.2857139999999987
                },
                {
                    "name": "F4",
                    "midi": 65,
                    "time": 29.142827999999987,
                    "velocity": 0.5826771653543307,
                    "duration": 0.2857139999999987
                },
                {
                    "name": "G#1",
                    "midi": 32,
                    "time": 29.999969999999987,
                    "velocity": 0.4251968503937008,
                    "duration": 0.8571419999999996
                },
                {
                    "name": "G#2",
                    "midi": 44,
                    "time": 29.999969999999987,
                    "velocity": 0.4251968503937008,
                    "duration": 0.8571419999999996
                },
                {
                    "name": "C#2",
                    "midi": 37,
                    "time": 30.857111999999987,
                    "velocity": 0.4015748031496063,
                    "duration": 0.2857139999999987
                },
                {
                    "name": "G#2",
                    "midi": 44,
                    "time": 30.857111999999987,
                    "velocity": 0.4015748031496063,
                    "duration": 0.2857139999999987
                },
                {
                    "name": "C#4",
                    "midi": 61,
                    "time": 31.428539999999984,
                    "velocity": 0.4251968503937008,
                    "duration": 0.2857139999999987
                },
                {
                    "name": "A#3",
                    "midi": 58,
                    "time": 31.714253999999983,
                    "velocity": 0.4251968503937008,
                    "duration": 0.5714279999999974
                },
                {
                    "name": "G#3",
                    "midi": 56,
                    "time": 32.28568199999998,
                    "velocity": 0.4251968503937008,
                    "duration": 0.2857139999999987
                },
                {
                    "name": "G3",
                    "midi": 55,
                    "time": 32.57139599999998,
                    "velocity": 0.4251968503937008,
                    "duration": 0.2857139999999987
                },
                {
                    "name": "G#3",
                    "midi": 56,
                    "time": 32.85710999999998,
                    "velocity": 0.4251968503937008,
                    "duration": 0.14285699999999935
                },
                {
                    "name": "G#3",
                    "midi": 56,
                    "time": 33.142823999999976,
                    "velocity": 0.4015748031496063,
                    "duration": 0.2857139999999987
                },
                {
                    "name": "G#3",
                    "midi": 56,
                    "time": 33.428537999999975,
                    "velocity": 0.4015748031496063,
                    "duration": 0.5714279999999974
                },
                {
                    "name": "F#3",
                    "midi": 54,
                    "time": 33.99996599999997,
                    "velocity": 0.4015748031496063,
                    "duration": 0.2857139999999987
                },
                {
                    "name": "F3",
                    "midi": 53,
                    "time": 34.28567999999997,
                    "velocity": 0.4015748031496063,
                    "duration": 0.2857139999999987
                },
                {
                    "name": "F#3",
                    "midi": 54,
                    "time": 34.57139399999997,
                    "velocity": 0.4015748031496063,
                    "duration": 0.14285699999999935
                },
                {
                    "name": "F#3",
                    "midi": 54,
                    "time": 34.85710799999997,
                    "velocity": 0.4251968503937008,
                    "duration": 0.2857139999999987
                },
                {
                    "name": "D#3",
                    "midi": 51,
                    "time": 35.14282199999997,
                    "velocity": 0.4566929133858268,
                    "duration": 0.5714279999999974
                },
                {
                    "name": "G#3",
                    "midi": 56,
                    "time": 35.14282199999997,
                    "velocity": 0.4566929133858268,
                    "duration": 0.5714279999999974
                },
                {
                    "name": "C#3",
                    "midi": 49,
                    "time": 35.714249999999964,
                    "velocity": 0.5039370078740157,
                    "duration": 0.2857139999999987
                },
                {
                    "name": "G#3",
                    "midi": 56,
                    "time": 35.714249999999964,
                    "velocity": 0.5039370078740157,
                    "duration": 0.2857139999999987
                },
                {
                    "name": "C3",
                    "midi": 48,
                    "time": 35.99996399999996,
                    "velocity": 0.5669291338582677,
                    "duration": 0.8571420000000032
                },
                {
                    "name": "G#3",
                    "midi": 56,
                    "time": 35.99996399999996,
                    "velocity": 0.5669291338582677,
                    "duration": 0.8571420000000032
                },
                {
                    "name": "C#3",
                    "midi": 49,
                    "time": 36.857105999999966,
                    "velocity": 0.4409448818897638,
                    "duration": 0.5714279999999974
                },
                {
                    "name": "G#3",
                    "midi": 56,
                    "time": 36.857105999999966,
                    "velocity": 0.4409448818897638,
                    "duration": 0.5714279999999974
                },
                {
                    "name": "F#3",
                    "midi": 54,
                    "time": 37.428533999999964,
                    "velocity": 0.4251968503937008,
                    "duration": 0.14285699999999935
                },
                {
                    "name": "F#2",
                    "midi": 42,
                    "time": 37.428533999999964,
                    "velocity": 0.4251968503937008,
                    "duration": 0.2857139999999987
                },
                {
                    "name": "D#3",
                    "midi": 51,
                    "time": 37.57139099999996,
                    "velocity": 0.4251968503937008,
                    "duration": 0.14285699999999935
                },
                {
                    "name": "F#2",
                    "midi": 42,
                    "time": 37.71424799999996,
                    "velocity": 0.4251968503937008,
                    "duration": 0.42857099999999804
                },
                {
                    "name": "G#3",
                    "midi": 56,
                    "time": 37.71424799999996,
                    "velocity": 0.4251968503937008,
                    "duration": 0.42857099999999804
                },
                {
                    "name": "F3",
                    "midi": 53,
                    "time": 38.28567599999996,
                    "velocity": 0.3937007874015748,
                    "duration": 0.2857139999999987
                },
                {
                    "name": "G#3",
                    "midi": 56,
                    "time": 38.28567599999996,
                    "velocity": 0.3937007874015748,
                    "duration": 0.2857139999999987
                },
                {
                    "name": "D#3",
                    "midi": 51,
                    "time": 38.57138999999996,
                    "velocity": 0.4409448818897638,
                    "duration": 0.5714279999999974
                },
                {
                    "name": "G#3",
                    "midi": 56,
                    "time": 38.57138999999996,
                    "velocity": 0.4409448818897638,
                    "duration": 0.5714279999999974
                },
                {
                    "name": "C#3",
                    "midi": 49,
                    "time": 39.142817999999956,
                    "velocity": 0.3779527559055118,
                    "duration": 0.2857139999999987
                },
                {
                    "name": "G3",
                    "midi": 55,
                    "time": 39.142817999999956,
                    "velocity": 0.3779527559055118,
                    "duration": 0.2857139999999987
                },
                {
                    "name": "C3",
                    "midi": 48,
                    "time": 39.428531999999954,
                    "velocity": 0.3937007874015748,
                    "duration": 0.05357137499999709
                },
                {
                    "name": "C4",
                    "midi": 60,
                    "time": 39.428531999999954,
                    "velocity": 0.3937007874015748,
                    "duration": 0.05357137499999709
                },
                {
                    "name": "C#3",
                    "midi": 49,
                    "time": 39.99995999999995,
                    "velocity": 0.36220472440944884,
                    "duration": 0.14285699999999935
                },
                {
                    "name": "A#3",
                    "midi": 58,
                    "time": 39.99995999999995,
                    "velocity": 0.36220472440944884,
                    "duration": 0.14285699999999935
                },
                {
                    "name": "D#3",
                    "midi": 51,
                    "time": 40.28567399999995,
                    "velocity": 0.4015748031496063,
                    "duration": 0.14285699999999935
                },
                {
                    "name": "D#4",
                    "midi": 63,
                    "time": 40.28567399999995,
                    "velocity": 0.4015748031496063,
                    "duration": 0.14285699999999935
                },
                {
                    "name": "D#3",
                    "midi": 51,
                    "time": 40.85710199999995,
                    "velocity": 0.3700787401574803,
                    "duration": 0.14285699999999935
                },
                {
                    "name": "C#4",
                    "midi": 61,
                    "time": 40.85710199999995,
                    "velocity": 0.3700787401574803,
                    "duration": 0.14285699999999935
                },
                {
                    "name": "G#3",
                    "midi": 56,
                    "time": 41.14281599999995,
                    "velocity": 0.4015748031496063,
                    "duration": 0.14285699999999935
                },
                {
                    "name": "C4",
                    "midi": 60,
                    "time": 41.14281599999995,
                    "velocity": 0.4015748031496063,
                    "duration": 0.14285699999999935
                },
                {
                    "name": "A#3",
                    "midi": 58,
                    "time": 41.714243999999944,
                    "velocity": 0.4251968503937008,
                    "duration": 0.2857139999999987
                },
                {
                    "name": "C#4",
                    "midi": 61,
                    "time": 41.714243999999944,
                    "velocity": 0.4251968503937008,
                    "duration": 0.2857139999999987
                },
                {
                    "name": "G#3",
                    "midi": 56,
                    "time": 41.99995799999994,
                    "velocity": 0.4409448818897638,
                    "duration": 0.5714279999999974
                },
                {
                    "name": "C#4",
                    "midi": 61,
                    "time": 41.99995799999994,
                    "velocity": 0.4409448818897638,
                    "duration": 0.5714279999999974
                },
                {
                    "name": "F#3",
                    "midi": 54,
                    "time": 42.57138599999994,
                    "velocity": 0.3700787401574803,
                    "duration": 0.2857139999999987
                },
                {
                    "name": "C4",
                    "midi": 60,
                    "time": 42.57138599999994,
                    "velocity": 0.3700787401574803,
                    "duration": 0.2857139999999987
                },
                {
                    "name": "F3",
                    "midi": 53,
                    "time": 42.85709999999994,
                    "velocity": 0.3858267716535433,
                    "duration": 0.05357137499999709
                },
                {
                    "name": "C#4",
                    "midi": 61,
                    "time": 42.85709999999994,
                    "velocity": 0.3858267716535433,
                    "duration": 0.05357137499999709
                },
                {
                    "name": "A#3",
                    "midi": 58,
                    "time": 43.428527999999936,
                    "velocity": 0.3858267716535433,
                    "duration": 0.2857139999999987
                },
                {
                    "name": "C#4",
                    "midi": 61,
                    "time": 43.428527999999936,
                    "velocity": 0.3858267716535433,
                    "duration": 0.2857139999999987
                },
                {
                    "name": "G#3",
                    "midi": 56,
                    "time": 43.714241999999935,
                    "velocity": 0.4330708661417323,
                    "duration": 0.5714279999999974
                },
                {
                    "name": "C#4",
                    "midi": 61,
                    "time": 43.714241999999935,
                    "velocity": 0.4330708661417323,
                    "duration": 0.5714279999999974
                },
                {
                    "name": "F#3",
                    "midi": 54,
                    "time": 44.28566999999993,
                    "velocity": 0.4251968503937008,
                    "duration": 0.2857139999999987
                },
                {
                    "name": "C4",
                    "midi": 60,
                    "time": 44.28566999999993,
                    "velocity": 0.4251968503937008,
                    "duration": 0.2857139999999987
                },
                {
                    "name": "F3",
                    "midi": 53,
                    "time": 44.57138399999993,
                    "velocity": 0.4566929133858268,
                    "duration": 0.05357137499999709
                },
                {
                    "name": "C#4",
                    "midi": 61,
                    "time": 44.57138399999993,
                    "velocity": 0.4566929133858268,
                    "duration": 0.05357137499999709
                },
                {
                    "name": "A#3",
                    "midi": 58,
                    "time": 45.14281199999993,
                    "velocity": 0.4251968503937008,
                    "duration": 0.2857139999999987
                },
                {
                    "name": "C#4",
                    "midi": 61,
                    "time": 45.14281199999993,
                    "velocity": 0.4251968503937008,
                    "duration": 0.2857139999999987
                },
                {
                    "name": "G#3",
                    "midi": 56,
                    "time": 45.42852599999993,
                    "velocity": 0.48031496062992124,
                    "duration": 0.5714279999999974
                },
                {
                    "name": "C#4",
                    "midi": 61,
                    "time": 45.42852599999993,
                    "velocity": 0.48031496062992124,
                    "duration": 0.5714279999999974
                },
                {
                    "name": "G3",
                    "midi": 55,
                    "time": 45.999953999999924,
                    "velocity": 0.5275590551181102,
                    "duration": 0.2857139999999987
                },
                {
                    "name": "E4",
                    "midi": 64,
                    "time": 45.999953999999924,
                    "velocity": 0.5275590551181102,
                    "duration": 0.2857139999999987
                },
                {
                    "name": "C#4",
                    "midi": 61,
                    "time": 45.999953999999924,
                    "velocity": 0.5275590551181102,
                    "duration": 0.2857139999999987
                },
                {
                    "name": "G#3",
                    "midi": 56,
                    "time": 46.28566799999992,
                    "velocity": 0.5826771653543307,
                    "duration": 0.2857139999999987
                },
                {
                    "name": "C#4",
                    "midi": 61,
                    "time": 46.28566799999992,
                    "velocity": 0.5826771653543307,
                    "duration": 0.2857139999999987
                },
                {
                    "name": "F4",
                    "midi": 65,
                    "time": 46.28566799999992,
                    "velocity": 0.5826771653543307,
                    "duration": 0.2857139999999987
                },
                {
                    "name": "G#1",
                    "midi": 32,
                    "time": 47.14280999999992,
                    "velocity": 0.4251968503937008,
                    "duration": 0.8571420000000032
                },
                {
                    "name": "G#2",
                    "midi": 44,
                    "time": 47.14280999999992,
                    "velocity": 0.4251968503937008,
                    "duration": 0.8571420000000032
                },
                {
                    "name": "C#2",
                    "midi": 37,
                    "time": 47.99995199999992,
                    "velocity": 0.4015748031496063,
                    "duration": 0.2857139999999987
                },
                {
                    "name": "G#2",
                    "midi": 44,
                    "time": 47.99995199999992,
                    "velocity": 0.4015748031496063,
                    "duration": 0.2857139999999987
                },
                {
                    "name": "C#2",
                    "midi": 37,
                    "time": 48.85709399999992,
                    "velocity": 0.5118110236220472,
                    "duration": 0.8571420000000032
                },
                {
                    "name": "G#2",
                    "midi": 44,
                    "time": 48.85709399999992,
                    "velocity": 0.6062992125984252,
                    "duration": 3.4285680000000127
                },
                {
                    "name": "D#2",
                    "midi": 39,
                    "time": 49.71423599999992,
                    "velocity": 0.4881889763779528,
                    "duration": 0.8571420000000032
                },
                {
                    "name": "F#2",
                    "midi": 42,
                    "time": 50.571377999999925,
                    "velocity": 0.5748031496062992,
                    "duration": 0.8571420000000032
                },
                {
                    "name": "F2",
                    "midi": 41,
                    "time": 51.42851999999993,
                    "velocity": 0.5748031496062992,
                    "duration": 0.8571420000000032
                },
                {
                    "name": "C#2",
                    "midi": 37,
                    "time": 52.28566199999993,
                    "velocity": 0.5275590551181102,
                    "duration": 0.8571420000000032
                },
                {
                    "name": "G#2",
                    "midi": 44,
                    "time": 52.28566199999993,
                    "velocity": 0.6220472440944882,
                    "duration": 2.2857120000000037
                },
                {
                    "name": "D#2",
                    "midi": 39,
                    "time": 53.142803999999934,
                    "velocity": 0.5826771653543307,
                    "duration": 0.8571420000000032
                },
                {
                    "name": "G#1",
                    "midi": 32,
                    "time": 53.99994599999994,
                    "velocity": 0.5748031496062992,
                    "duration": 0.8571419999999961
                },
                {
                    "name": "G#2",
                    "midi": 44,
                    "time": 54.571373999999935,
                    "velocity": 0.5669291338582677,
                    "duration": 0.8571419999999961
                },
                {
                    "name": "C#2",
                    "midi": 37,
                    "time": 54.85708799999993,
                    "velocity": 0.5748031496062992,
                    "duration": 0.5714279999999974
                },
                {
                    "name": "C#2",
                    "midi": 37,
                    "time": 55.71422999999993,
                    "velocity": 0.5275590551181102,
                    "duration": 0.8571420000000032
                },
                {
                    "name": "G#2",
                    "midi": 44,
                    "time": 55.71422999999993,
                    "velocity": 0.6220472440944882,
                    "duration": 3.4285680000000127
                },
                {
                    "name": "D#2",
                    "midi": 39,
                    "time": 56.57137199999993,
                    "velocity": 0.5748031496062992,
                    "duration": 0.8571420000000032
                },
                {
                    "name": "F#2",
                    "midi": 42,
                    "time": 57.428513999999936,
                    "velocity": 0.5748031496062992,
                    "duration": 0.8571420000000032
                },
                {
                    "name": "F2",
                    "midi": 41,
                    "time": 58.28565599999994,
                    "velocity": 0.5748031496062992,
                    "duration": 0.8571420000000032
                },
                {
                    "name": "C#2",
                    "midi": 37,
                    "time": 59.14279799999994,
                    "velocity": 0.5275590551181102,
                    "duration": 0.8571420000000032
                },
                {
                    "name": "G#2",
                    "midi": 44,
                    "time": 59.14279799999994,
                    "velocity": 0.6220472440944882,
                    "duration": 2.2857120000000037
                },
                {
                    "name": "D#2",
                    "midi": 39,
                    "time": 59.999939999999945,
                    "velocity": 0.5826771653543307,
                    "duration": 0.8571420000000032
                },
                {
                    "name": "G#1",
                    "midi": 32,
                    "time": 60.85708199999995,
                    "velocity": 0.5748031496062992,
                    "duration": 0.8571419999999961
                },
                {
                    "name": "G#2",
                    "midi": 44,
                    "time": 61.428509999999946,
                    "velocity": 0.5669291338582677,
                    "duration": 0.8571419999999961
                },
                {
                    "name": "C#2",
                    "midi": 37,
                    "time": 61.714223999999945,
                    "velocity": 0.5196850393700787,
                    "duration": 0.5714279999999974
                },
                {
                    "name": "D3",
                    "midi": 50,
                    "time": 62.57136599999994,
                    "velocity": 0.2755905511811024,
                    "duration": 0.8571420000000032
                },
                {
                    "name": "G#3",
                    "midi": 56,
                    "time": 62.57136599999994,
                    "velocity": 0.33070866141732286,
                    "duration": 0.8571420000000032
                },
                {
                    "name": "C#3",
                    "midi": 49,
                    "time": 63.428507999999944,
                    "velocity": 0.25984251968503935,
                    "duration": 0.8571420000000032
                },
                {
                    "name": "G3",
                    "midi": 55,
                    "time": 63.428507999999944,
                    "velocity": 0.30708661417322836,
                    "duration": 0.8571420000000032
                },
                {
                    "name": "C3",
                    "midi": 48,
                    "time": 64.28564999999995,
                    "velocity": 0.23622047244094488,
                    "duration": 0.8571419999999961
                },
                {
                    "name": "F#3",
                    "midi": 54,
                    "time": 64.28564999999995,
                    "velocity": 0.28346456692913385,
                    "duration": 0.8571419999999961
                },
                {
                    "name": "B2",
                    "midi": 47,
                    "time": 65.14279199999994,
                    "velocity": 0.2283464566929134,
                    "duration": 0.8571419999999961
                },
                {
                    "name": "F3",
                    "midi": 53,
                    "time": 65.14279199999994,
                    "velocity": 0.2755905511811024,
                    "duration": 0.8571419999999961
                },
                {
                    "name": "A#2",
                    "midi": 46,
                    "time": 65.99993399999994,
                    "velocity": 0.33070866141732286,
                    "duration": 0.8571419999999961
                },
                {
                    "name": "C#3",
                    "midi": 49,
                    "time": 65.99993399999994,
                    "velocity": 0.3937007874015748,
                    "duration": 3.4285679999999843
                },
                {
                    "name": "G#2",
                    "midi": 44,
                    "time": 66.85707599999994,
                    "velocity": 0.29133858267716534,
                    "duration": 0.8571419999999961
                },
                {
                    "name": "C#2",
                    "midi": 37,
                    "time": 67.71421799999993,
                    "velocity": 0.28346456692913385,
                    "duration": 0.2857139999999987
                },
                {
                    "name": "F2",
                    "midi": 41,
                    "time": 67.99993199999993,
                    "velocity": 0.28346456692913385,
                    "duration": 0.2857139999999987
                },
                {
                    "name": "G#2",
                    "midi": 44,
                    "time": 68.28564599999993,
                    "velocity": 0.3228346456692913,
                    "duration": 0.2857139999999987
                },
                {
                    "name": "F#2",
                    "midi": 42,
                    "time": 68.57135999999993,
                    "velocity": 0.28346456692913385,
                    "duration": 0.8571419999999961
                },
                {
                    "name": "A#2",
                    "midi": 46,
                    "time": 69.42850199999992,
                    "velocity": 0.3228346456692913,
                    "duration": 0.8571419999999961
                },
                {
                    "name": "C#3",
                    "midi": 49,
                    "time": 69.42850199999992,
                    "velocity": 0.3858267716535433,
                    "duration": 3.4285679999999843
                },
                {
                    "name": "G#2",
                    "midi": 44,
                    "time": 70.28564399999992,
                    "velocity": 0.29133858267716534,
                    "duration": 0.8571419999999961
                },
                {
                    "name": "G2",
                    "midi": 43,
                    "time": 71.14278599999992,
                    "velocity": 0.29133858267716534,
                    "duration": 0.8571419999999961
                },
                {
                    "name": "G#2",
                    "midi": 44,
                    "time": 71.99992799999991,
                    "velocity": 0.29133858267716534,
                    "duration": 0.8571419999999961
                },
                {
                    "name": "A#2",
                    "midi": 46,
                    "time": 72.85706999999991,
                    "velocity": 0.3543307086614173,
                    "duration": 0.8571419999999961
                },
                {
                    "name": "C#3",
                    "midi": 49,
                    "time": 72.85706999999991,
                    "velocity": 0.2992125984251969,
                    "duration": 1.7142839999999921
                },
                {
                    "name": "G#2",
                    "midi": 44,
                    "time": 73.7142119999999,
                    "velocity": 0.4251968503937008,
                    "duration": 1.4285699999999935
                },
                {
                    "name": "G#1",
                    "midi": 32,
                    "time": 74.5713539999999,
                    "velocity": 0.4251968503937008,
                    "duration": 0.5714279999999974
                },
                {
                    "name": "G#2",
                    "midi": 44,
                    "time": 75.1427819999999,
                    "velocity": 0.3779527559055118,
                    "duration": 0.07142849999999612
                },
                {
                    "name": "C#2",
                    "midi": 37,
                    "time": 75.4284959999999,
                    "velocity": 0.3779527559055118,
                    "duration": 0.07142849999999612
                },
                {
                    "name": "D3",
                    "midi": 50,
                    "time": 76.28563799999989,
                    "velocity": 0.25984251968503935,
                    "duration": 0.8571419999999961
                },
                {
                    "name": "G#3",
                    "midi": 56,
                    "time": 76.28563799999989,
                    "velocity": 0.30708661417322836,
                    "duration": 0.8571419999999961
                },
                {
                    "name": "C#3",
                    "midi": 49,
                    "time": 77.14277999999989,
                    "velocity": 0.2283464566929134,
                    "duration": 0.8571419999999961
                },
                {
                    "name": "G3",
                    "midi": 55,
                    "time": 77.14277999999989,
                    "velocity": 0.2755905511811024,
                    "duration": 0.8571419999999961
                },
                {
                    "name": "C3",
                    "midi": 48,
                    "time": 77.99992199999988,
                    "velocity": 0.2440944881889764,
                    "duration": 0.8571419999999961
                },
                {
                    "name": "F#3",
                    "midi": 54,
                    "time": 77.99992199999988,
                    "velocity": 0.29133858267716534,
                    "duration": 0.8571419999999961
                },
                {
                    "name": "B2",
                    "midi": 47,
                    "time": 78.85706399999988,
                    "velocity": 0.2204724409448819,
                    "duration": 0.8571419999999961
                },
                {
                    "name": "F3",
                    "midi": 53,
                    "time": 78.85706399999988,
                    "velocity": 0.2677165354330709,
                    "duration": 0.8571419999999961
                },
                {
                    "name": "A#2",
                    "midi": 46,
                    "time": 79.71420599999988,
                    "velocity": 0.33070866141732286,
                    "duration": 0.8571419999999961
                },
                {
                    "name": "C#3",
                    "midi": 49,
                    "time": 79.71420599999988,
                    "velocity": 0.3937007874015748,
                    "duration": 3.4285679999999843
                },
                {
                    "name": "G#2",
                    "midi": 44,
                    "time": 80.57134799999987,
                    "velocity": 0.28346456692913385,
                    "duration": 0.8571419999999961
                },
                {
                    "name": "C#2",
                    "midi": 37,
                    "time": 81.42848999999987,
                    "velocity": 0.2755905511811024,
                    "duration": 0.2857139999999987
                },
                {
                    "name": "F2",
                    "midi": 41,
                    "time": 81.71420399999987,
                    "velocity": 0.2755905511811024,
                    "duration": 0.2857139999999987
                },
                {
                    "name": "G#2",
                    "midi": 44,
                    "time": 81.99991799999987,
                    "velocity": 0.30708661417322836,
                    "duration": 0.2857139999999987
                },
                {
                    "name": "F#2",
                    "midi": 42,
                    "time": 82.28563199999986,
                    "velocity": 0.3228346456692913,
                    "duration": 0.8571419999999961
                },
                {
                    "name": "A#2",
                    "midi": 46,
                    "time": 83.14277399999986,
                    "velocity": 0.30708661417322836,
                    "duration": 0.8571419999999961
                },
                {
                    "name": "C#3",
                    "midi": 49,
                    "time": 83.14277399999986,
                    "velocity": 0.3700787401574803,
                    "duration": 3.4285679999999843
                },
                {
                    "name": "G#2",
                    "midi": 44,
                    "time": 83.99991599999986,
                    "velocity": 0.30708661417322836,
                    "duration": 0.8571419999999961
                },
                {
                    "name": "G2",
                    "midi": 43,
                    "time": 84.85705799999985,
                    "velocity": 0.30708661417322836,
                    "duration": 0.8571419999999961
                },
                {
                    "name": "G#2",
                    "midi": 44,
                    "time": 85.71419999999985,
                    "velocity": 0.30708661417322836,
                    "duration": 0.8571419999999961
                },
                {
                    "name": "A#2",
                    "midi": 46,
                    "time": 86.57134199999985,
                    "velocity": 0.2992125984251969,
                    "duration": 0.8571419999999961
                },
                {
                    "name": "C#3",
                    "midi": 49,
                    "time": 86.57134199999985,
                    "velocity": 0.3543307086614173,
                    "duration": 1.7142839999999921
                },
                {
                    "name": "G#2",
                    "midi": 44,
                    "time": 87.42848399999984,
                    "velocity": 0.4251968503937008,
                    "duration": 1.4285699999999935
                },
                {
                    "name": "G#1",
                    "midi": 32,
                    "time": 88.28562599999984,
                    "velocity": 0.4251968503937008,
                    "duration": 0.5714279999999974
                },
                {
                    "name": "G#2",
                    "midi": 44,
                    "time": 88.85705399999983,
                    "velocity": 0.4094488188976378,
                    "duration": 0.07142849999999612
                },
                {
                    "name": "C#2",
                    "midi": 37,
                    "time": 89.14276799999983,
                    "velocity": 0.4094488188976378,
                    "duration": 0.07142849999999612
                },
                {
                    "name": "F4",
                    "midi": 65,
                    "time": 89.71419599999983,
                    "velocity": 0.4251968503937008,
                    "duration": 0.2857139999999987
                },
                {
                    "name": "D#4",
                    "midi": 63,
                    "time": 90.00050523749982,
                    "velocity": 0.4251968503937008,
                    "duration": 0.5714279999999974
                },
                {
                    "name": "C#4",
                    "midi": 61,
                    "time": 90.57133799999983,
                    "velocity": 0.3937007874015748,
                    "duration": 0.2857139999999987
                },
                {
                    "name": "C4",
                    "midi": 60,
                    "time": 90.85705199999983,
                    "velocity": 0.36220472440944884,
                    "duration": 0.053571375000004195
                },
                {
                    "name": "C#3",
                    "midi": 49,
                    "time": 91.42847999999982,
                    "velocity": 0.3543307086614173,
                    "duration": 0.053571375000004195
                },
                {
                    "name": "A#3",
                    "midi": 58,
                    "time": 91.42847999999982,
                    "velocity": 0.3543307086614173,
                    "duration": 0.053571375000004195
                },
                {
                    "name": "D#4",
                    "midi": 63,
                    "time": 91.71419399999982,
                    "velocity": 0.3700787401574803,
                    "duration": 0.053571375000004195
                },
                {
                    "name": "D#3",
                    "midi": 51,
                    "time": 91.71419399999982,
                    "velocity": 0.3700787401574803,
                    "duration": 0.053571375000004195
                },
                {
                    "name": "D#3",
                    "midi": 51,
                    "time": 92.28562199999982,
                    "velocity": 0.31496062992125984,
                    "duration": 0.053571375000004195
                },
                {
                    "name": "C#4",
                    "midi": 61,
                    "time": 92.28562199999982,
                    "velocity": 0.31496062992125984,
                    "duration": 0.053571375000004195
                },
                {
                    "name": "G#3",
                    "midi": 56,
                    "time": 92.57133599999982,
                    "velocity": 0.33070866141732286,
                    "duration": 0.053571375000004195
                },
                {
                    "name": "C4",
                    "midi": 60,
                    "time": 92.57133599999982,
                    "velocity": 0.33070866141732286,
                    "duration": 0.053571375000004195
                },
                {
                    "name": "A#4",
                    "midi": 70,
                    "time": 93.14276399999981,
                    "velocity": 0.3858267716535433,
                    "duration": 0.2857139999999987
                },
                {
                    "name": "G#4",
                    "midi": 68,
                    "time": 93.42847799999981,
                    "velocity": 0.4251968503937008,
                    "duration": 0.5714279999999974
                },
                {
                    "name": "F#4",
                    "midi": 66,
                    "time": 93.99990599999981,
                    "velocity": 0.36220472440944884,
                    "duration": 0.2857139999999987
                },
                {
                    "name": "F4",
                    "midi": 65,
                    "time": 94.28561999999981,
                    "velocity": 0.3779527559055118,
                    "duration": 0.053571375000004195
                },
                {
                    "name": "F#3",
                    "midi": 54,
                    "time": 94.8570479999998,
                    "velocity": 0.3543307086614173,
                    "duration": 0.053571375000004195
                },
                {
                    "name": "D#4",
                    "midi": 63,
                    "time": 94.8570479999998,
                    "velocity": 0.3543307086614173,
                    "duration": 0.053571375000004195
                },
                {
                    "name": "G#3",
                    "midi": 56,
                    "time": 95.1427619999998,
                    "velocity": 0.3700787401574803,
                    "duration": 0.053571375000004195
                },
                {
                    "name": "G#4",
                    "midi": 68,
                    "time": 95.1427619999998,
                    "velocity": 0.3700787401574803,
                    "duration": 0.053571375000004195
                },
                {
                    "name": "G#3",
                    "midi": 56,
                    "time": 95.7141899999998,
                    "velocity": 0.31496062992125984,
                    "duration": 0.053571375000004195
                },
                {
                    "name": "F#4",
                    "midi": 66,
                    "time": 95.7141899999998,
                    "velocity": 0.31496062992125984,
                    "duration": 0.053571375000004195
                },
                {
                    "name": "C#4",
                    "midi": 61,
                    "time": 95.9999039999998,
                    "velocity": 0.33070866141732286,
                    "duration": 0.053571375000004195
                },
                {
                    "name": "F4",
                    "midi": 65,
                    "time": 95.9999039999998,
                    "velocity": 0.33070866141732286,
                    "duration": 0.053571375000004195
                },
                {
                    "name": "F3",
                    "midi": 53,
                    "time": 96.5713319999998,
                    "velocity": 0.3858267716535433,
                    "duration": 0.2857139999999987
                },
                {
                    "name": "G#3",
                    "midi": 56,
                    "time": 96.5713319999998,
                    "velocity": 0.3858267716535433,
                    "duration": 0.2857139999999987
                },
                {
                    "name": "D#3",
                    "midi": 51,
                    "time": 96.8570459999998,
                    "velocity": 0.4251968503937008,
                    "duration": 0.5714279999999974
                },
                {
                    "name": "G#3",
                    "midi": 56,
                    "time": 96.8570459999998,
                    "velocity": 0.4251968503937008,
                    "duration": 0.5714279999999974
                },
                {
                    "name": "G3",
                    "midi": 55,
                    "time": 97.4284739999998,
                    "velocity": 0.3858267716535433,
                    "duration": 0.2857139999999987
                },
                {
                    "name": "C#3",
                    "midi": 49,
                    "time": 97.4284739999998,
                    "velocity": 0.3858267716535433,
                    "duration": 0.2857139999999987
                },
                {
                    "name": "C3",
                    "midi": 48,
                    "time": 97.7141879999998,
                    "velocity": 0.4251968503937008,
                    "duration": 0.2857139999999987
                },
                {
                    "name": "C4",
                    "midi": 60,
                    "time": 97.7141879999998,
                    "velocity": 0.4251968503937008,
                    "duration": 0.2857139999999987
                },
                {
                    "name": "C#3",
                    "midi": 49,
                    "time": 98.28561599999979,
                    "velocity": 0.36220472440944884,
                    "duration": 0.14285700000000645
                },
                {
                    "name": "A#3",
                    "midi": 58,
                    "time": 98.28561599999979,
                    "velocity": 0.36220472440944884,
                    "duration": 0.14285700000000645
                },
                {
                    "name": "D#3",
                    "midi": 51,
                    "time": 98.5713299999998,
                    "velocity": 0.3858267716535433,
                    "duration": 0.14285700000000645
                },
                {
                    "name": "D#4",
                    "midi": 63,
                    "time": 98.5713299999998,
                    "velocity": 0.3858267716535433,
                    "duration": 0.14285700000000645
                },
                {
                    "name": "D#3",
                    "midi": 51,
                    "time": 99.14275799999982,
                    "velocity": 0.3543307086614173,
                    "duration": 0.14285700000000645
                },
                {
                    "name": "C#4",
                    "midi": 61,
                    "time": 99.14275799999982,
                    "velocity": 0.3543307086614173,
                    "duration": 0.14285700000000645
                },
                {
                    "name": "G#3",
                    "midi": 56,
                    "time": 99.42847199999983,
                    "velocity": 0.36220472440944884,
                    "duration": 0.14285700000000645
                },
                {
                    "name": "C4",
                    "midi": 60,
                    "time": 99.42847199999983,
                    "velocity": 0.36220472440944884,
                    "duration": 0.14285700000000645
                },
                {
                    "name": "A#3",
                    "midi": 58,
                    "time": 99.99989999999984,
                    "velocity": 0.3858267716535433,
                    "duration": 0.2857139999999987
                },
                {
                    "name": "C#4",
                    "midi": 61,
                    "time": 99.99989999999984,
                    "velocity": 0.3858267716535433,
                    "duration": 0.2857139999999987
                },
                {
                    "name": "G#3",
                    "midi": 56,
                    "time": 100.28561399999984,
                    "velocity": 0.4251968503937008,
                    "duration": 0.5714279999999974
                },
                {
                    "name": "C#4",
                    "midi": 61,
                    "time": 100.28561399999984,
                    "velocity": 0.4251968503937008,
                    "duration": 0.5714279999999974
                },
                {
                    "name": "F#3",
                    "midi": 54,
                    "time": 100.85704199999984,
                    "velocity": 0.4251968503937008,
                    "duration": 0.2857139999999987
                },
                {
                    "name": "C4",
                    "midi": 60,
                    "time": 100.85704199999984,
                    "velocity": 0.4251968503937008,
                    "duration": 0.2857139999999987
                },
                {
                    "name": "F3",
                    "midi": 53,
                    "time": 101.14275599999984,
                    "velocity": 0.44881889763779526,
                    "duration": 0.2857139999999987
                },
                {
                    "name": "F4",
                    "midi": 65,
                    "time": 101.14275599999984,
                    "velocity": 0.44881889763779526,
                    "duration": 0.2857139999999987
                },
                {
                    "name": "F#3",
                    "midi": 54,
                    "time": 101.71418399999983,
                    "velocity": 0.3937007874015748,
                    "duration": 0.14285700000000645
                },
                {
                    "name": "D#4",
                    "midi": 63,
                    "time": 101.71418399999983,
                    "velocity": 0.3937007874015748,
                    "duration": 0.14285700000000645
                },
                {
                    "name": "G#3",
                    "midi": 56,
                    "time": 101.99989799999985,
                    "velocity": 0.4251968503937008,
                    "duration": 0.14285700000000645
                },
                {
                    "name": "G#4",
                    "midi": 68,
                    "time": 101.99989799999985,
                    "velocity": 0.4251968503937008,
                    "duration": 0.14285700000000645
                },
                {
                    "name": "G#3",
                    "midi": 56,
                    "time": 102.57132599999986,
                    "velocity": 0.3543307086614173,
                    "duration": 0.14285700000000645
                },
                {
                    "name": "F#4",
                    "midi": 66,
                    "time": 102.57132599999986,
                    "velocity": 0.3543307086614173,
                    "duration": 0.14285700000000645
                },
                {
                    "name": "C#4",
                    "midi": 61,
                    "time": 102.85703999999987,
                    "velocity": 0.3779527559055118,
                    "duration": 0.14285700000000645
                },
                {
                    "name": "F4",
                    "midi": 65,
                    "time": 102.85703999999987,
                    "velocity": 0.3779527559055118,
                    "duration": 0.14285700000000645
                },
                {
                    "name": "C#4",
                    "midi": 61,
                    "time": 103.42846799999988,
                    "velocity": 0.4251968503937008,
                    "duration": 0.2857139999999987
                },
                {
                    "name": "A#3",
                    "midi": 58,
                    "time": 103.71418199999988,
                    "velocity": 0.4251968503937008,
                    "duration": 0.5714279999999974
                },
                {
                    "name": "G#3",
                    "midi": 56,
                    "time": 104.28560999999988,
                    "velocity": 0.4251968503937008,
                    "duration": 0.2857139999999987
                },
                {
                    "name": "G3",
                    "midi": 55,
                    "time": 104.57132399999988,
                    "velocity": 0.4251968503937008,
                    "duration": 0.2857139999999987
                },
                {
                    "name": "G#3",
                    "midi": 56,
                    "time": 104.85703799999987,
                    "velocity": 0.4251968503937008,
                    "duration": 0.14285700000000645
                },
                {
                    "name": "G#3",
                    "midi": 56,
                    "time": 105.14275199999989,
                    "velocity": 0.3937007874015748,
                    "duration": 0.2857139999999987
                },
                {
                    "name": "G#3",
                    "midi": 56,
                    "time": 105.42846599999989,
                    "velocity": 0.3937007874015748,
                    "duration": 0.5714279999999974
                },
                {
                    "name": "F#3",
                    "midi": 54,
                    "time": 105.99989399999988,
                    "velocity": 0.3779527559055118,
                    "duration": 0.2857139999999987
                },
                {
                    "name": "F3",
                    "midi": 53,
                    "time": 106.28560799999988,
                    "velocity": 0.3779527559055118,
                    "duration": 0.2857139999999987
                },
                {
                    "name": "F#3",
                    "midi": 54,
                    "time": 106.57132199999988,
                    "velocity": 0.3779527559055118,
                    "duration": 0.14285700000000645
                },
                {
                    "name": "F#3",
                    "midi": 54,
                    "time": 106.8570359999999,
                    "velocity": 0.4251968503937008,
                    "duration": 0.2857139999999987
                },
                {
                    "name": "D#3",
                    "midi": 51,
                    "time": 107.1427499999999,
                    "velocity": 0.4251968503937008,
                    "duration": 0.5714279999999974
                },
                {
                    "name": "G#3",
                    "midi": 56,
                    "time": 107.1427499999999,
                    "velocity": 0.4251968503937008,
                    "duration": 0.5714279999999974
                },
                {
                    "name": "C#3",
                    "midi": 49,
                    "time": 107.71417799999989,
                    "velocity": 0.4251968503937008,
                    "duration": 0.2857139999999987
                },
                {
                    "name": "G#3",
                    "midi": 56,
                    "time": 107.71417799999989,
                    "velocity": 0.4251968503937008,
                    "duration": 0.2857139999999987
                },
                {
                    "name": "C3",
                    "midi": 48,
                    "time": 107.99989199999989,
                    "velocity": 0.4251968503937008,
                    "duration": 0.8571419999999961
                },
                {
                    "name": "G#3",
                    "midi": 56,
                    "time": 107.99989199999989,
                    "velocity": 0.4251968503937008,
                    "duration": 0.8571419999999961
                },
                {
                    "name": "C#3",
                    "midi": 49,
                    "time": 108.85703399999989,
                    "velocity": 0.4251968503937008,
                    "duration": 0.5714279999999974
                },
                {
                    "name": "G#3",
                    "midi": 56,
                    "time": 108.85703399999989,
                    "velocity": 0.4251968503937008,
                    "duration": 0.5714279999999974
                },
                {
                    "name": "F#3",
                    "midi": 54,
                    "time": 109.42846199999988,
                    "velocity": 0.4251968503937008,
                    "duration": 0.14285700000000645
                },
                {
                    "name": "F#2",
                    "midi": 42,
                    "time": 109.42846199999988,
                    "velocity": 0.4251968503937008,
                    "duration": 0.2857140000000129
                },
                {
                    "name": "D#3",
                    "midi": 51,
                    "time": 109.57131899999989,
                    "velocity": 0.4251968503937008,
                    "duration": 0.14285700000000645
                },
                {
                    "name": "F#2",
                    "midi": 42,
                    "time": 109.7141759999999,
                    "velocity": 0.4251968503937008,
                    "duration": 0.5714279999999974
                },
                {
                    "name": "G#3",
                    "midi": 56,
                    "time": 109.7141759999999,
                    "velocity": 0.4251968503937008,
                    "duration": 0.5714279999999974
                },
                {
                    "name": "F3",
                    "midi": 53,
                    "time": 110.28560399999989,
                    "velocity": 0.3858267716535433,
                    "duration": 0.2857139999999987
                },
                {
                    "name": "G#3",
                    "midi": 56,
                    "time": 110.28560399999989,
                    "velocity": 0.3858267716535433,
                    "duration": 0.2857139999999987
                },
                {
                    "name": "D#3",
                    "midi": 51,
                    "time": 110.57131799999989,
                    "velocity": 0.4251968503937008,
                    "duration": 0.5714279999999974
                },
                {
                    "name": "G#3",
                    "midi": 56,
                    "time": 110.57131799999989,
                    "velocity": 0.4251968503937008,
                    "duration": 0.5714279999999974
                },
                {
                    "name": "C#3",
                    "midi": 49,
                    "time": 111.14274599999989,
                    "velocity": 0.3700787401574803,
                    "duration": 0.2857139999999987
                },
                {
                    "name": "G3",
                    "midi": 55,
                    "time": 111.14274599999989,
                    "velocity": 0.3700787401574803,
                    "duration": 0.2857139999999987
                },
                {
                    "name": "C3",
                    "midi": 48,
                    "time": 111.42845999999989,
                    "velocity": 0.4251968503937008,
                    "duration": 0.053571375000004195
                },
                {
                    "name": "C4",
                    "midi": 60,
                    "time": 111.42845999999989,
                    "velocity": 0.4251968503937008,
                    "duration": 0.053571375000004195
                },
                {
                    "name": "C#3",
                    "midi": 49,
                    "time": 111.99988799999988,
                    "velocity": 0.3858267716535433,
                    "duration": 0.14285700000000645
                },
                {
                    "name": "A#3",
                    "midi": 58,
                    "time": 111.99988799999988,
                    "velocity": 0.3858267716535433,
                    "duration": 0.14285700000000645
                },
                {
                    "name": "D#3",
                    "midi": 51,
                    "time": 112.2856019999999,
                    "velocity": 0.4251968503937008,
                    "duration": 0.14285700000000645
                },
                {
                    "name": "D#4",
                    "midi": 63,
                    "time": 112.2856019999999,
                    "velocity": 0.4251968503937008,
                    "duration": 0.14285700000000645
                },
                {
                    "name": "D#3",
                    "midi": 51,
                    "time": 112.85702999999991,
                    "velocity": 0.3543307086614173,
                    "duration": 0.14285700000000645
                },
                {
                    "name": "C#4",
                    "midi": 61,
                    "time": 112.85702999999991,
                    "velocity": 0.3543307086614173,
                    "duration": 0.14285700000000645
                },
                {
                    "name": "G#3",
                    "midi": 56,
                    "time": 113.14274399999992,
                    "velocity": 0.4015748031496063,
                    "duration": 0.14285700000000645
                },
                {
                    "name": "C4",
                    "midi": 60,
                    "time": 113.14274399999992,
                    "velocity": 0.4015748031496063,
                    "duration": 0.14285700000000645
                },
                {
                    "name": "A#3",
                    "midi": 58,
                    "time": 113.71417199999993,
                    "velocity": 0.3858267716535433,
                    "duration": 0.2857139999999987
                },
                {
                    "name": "C#4",
                    "midi": 61,
                    "time": 113.71417199999993,
                    "velocity": 0.3858267716535433,
                    "duration": 0.2857139999999987
                },
                {
                    "name": "G#3",
                    "midi": 56,
                    "time": 113.99988599999993,
                    "velocity": 0.4251968503937008,
                    "duration": 0.5714279999999974
                },
                {
                    "name": "C#4",
                    "midi": 61,
                    "time": 113.99988599999993,
                    "velocity": 0.4251968503937008,
                    "duration": 0.5714279999999974
                },
                {
                    "name": "F#3",
                    "midi": 54,
                    "time": 114.57131399999993,
                    "velocity": 0.3858267716535433,
                    "duration": 0.2857139999999987
                },
                {
                    "name": "C4",
                    "midi": 60,
                    "time": 114.57131399999993,
                    "velocity": 0.3858267716535433,
                    "duration": 0.2857139999999987
                },
                {
                    "name": "F3",
                    "midi": 53,
                    "time": 114.85702799999993,
                    "velocity": 0.4330708661417323,
                    "duration": 0.053571375000004195
                },
                {
                    "name": "C#4",
                    "midi": 61,
                    "time": 114.85702799999993,
                    "velocity": 0.4330708661417323,
                    "duration": 0.053571375000004195
                },
                {
                    "name": "A#3",
                    "midi": 58,
                    "time": 115.42845599999993,
                    "velocity": 0.3779527559055118,
                    "duration": 0.2857139999999987
                },
                {
                    "name": "C#4",
                    "midi": 61,
                    "time": 115.42845599999993,
                    "velocity": 0.3779527559055118,
                    "duration": 0.2857139999999987
                },
                {
                    "name": "G#3",
                    "midi": 56,
                    "time": 115.71416999999992,
                    "velocity": 0.4251968503937008,
                    "duration": 0.5714279999999974
                },
                {
                    "name": "C#4",
                    "midi": 61,
                    "time": 115.71416999999992,
                    "velocity": 0.4251968503937008,
                    "duration": 0.5714279999999974
                },
                {
                    "name": "F#3",
                    "midi": 54,
                    "time": 116.28559799999992,
                    "velocity": 0.3779527559055118,
                    "duration": 0.2857139999999987
                },
                {
                    "name": "C4",
                    "midi": 60,
                    "time": 116.28559799999992,
                    "velocity": 0.3779527559055118,
                    "duration": 0.2857139999999987
                },
                {
                    "name": "F3",
                    "midi": 53,
                    "time": 116.57131199999992,
                    "velocity": 0.4251968503937008,
                    "duration": 0.053571375000004195
                },
                {
                    "name": "C#4",
                    "midi": 61,
                    "time": 116.57131199999992,
                    "velocity": 0.4251968503937008,
                    "duration": 0.053571375000004195
                },
                {
                    "name": "A#3",
                    "midi": 58,
                    "time": 117.14273999999992,
                    "velocity": 0.3858267716535433,
                    "duration": 0.2857139999999987
                },
                {
                    "name": "C#4",
                    "midi": 61,
                    "time": 117.14273999999992,
                    "velocity": 0.3858267716535433,
                    "duration": 0.2857139999999987
                },
                {
                    "name": "G#3",
                    "midi": 56,
                    "time": 117.42845399999992,
                    "velocity": 0.4251968503937008,
                    "duration": 0.5714279999999974
                },
                {
                    "name": "C#4",
                    "midi": 61,
                    "time": 117.42845399999992,
                    "velocity": 0.4251968503937008,
                    "duration": 0.5714279999999974
                },
                {
                    "name": "G3",
                    "midi": 55,
                    "time": 117.99988199999991,
                    "velocity": 0.4881889763779528,
                    "duration": 0.2857139999999987
                },
                {
                    "name": "E4",
                    "midi": 64,
                    "time": 117.99988199999991,
                    "velocity": 0.4881889763779528,
                    "duration": 0.2857139999999987
                },
                {
                    "name": "C#4",
                    "midi": 61,
                    "time": 117.99988199999991,
                    "velocity": 0.4881889763779528,
                    "duration": 0.2857139999999987
                },
                {
                    "name": "G#3",
                    "midi": 56,
                    "time": 118.28559599999991,
                    "velocity": 0.5118110236220472,
                    "duration": 0.2857139999999987
                },
                {
                    "name": "C#4",
                    "midi": 61,
                    "time": 118.28559599999991,
                    "velocity": 0.5118110236220472,
                    "duration": 0.2857139999999987
                },
                {
                    "name": "F4",
                    "midi": 65,
                    "time": 118.28559599999991,
                    "velocity": 0.5118110236220472,
                    "duration": 0.2857139999999987
                },
                {
                    "name": "G#1",
                    "midi": 32,
                    "time": 119.14273799999991,
                    "velocity": 0.4251968503937008,
                    "duration": 0.8571419999999961
                },
                {
                    "name": "G#2",
                    "midi": 44,
                    "time": 119.14273799999991,
                    "velocity": 0.4251968503937008,
                    "duration": 0.8571419999999961
                },
                {
                    "name": "C#2",
                    "midi": 37,
                    "time": 119.9998799999999,
                    "velocity": 0.4251968503937008,
                    "duration": 0.2857139999999987
                },
                {
                    "name": "G#2",
                    "midi": 44,
                    "time": 119.9998799999999,
                    "velocity": 0.4251968503937008,
                    "duration": 0.2857139999999987
                }
            ],
            "controlChanges": {
                "7": [
                    {
                        "number": 7,
                        "time": 0,
                        "value": 0.7874015748031497
                    }
                ],
                "10": [
                    {
                        "number": 10,
                        "time": 0,
                        "value": 0.5039370078740157
                    }
                ],
                "91": [
                    {
                        "number": 91,
                        "time": 0.5708327625,
                        "value": 1
                    }
                ]
            },
            "id": 2,
            "name": "Piano left",
            "instrumentNumber": 0,
            "instrument": "acoustic grand piano",
            "instrumentFamily": "piano",
            "channelNumber": 0,
            "isPercussion": false
        },
        {
            "startTime": 0,
            "duration": 0,
            "length": 0,
            "notes": [],
            "controlChanges": {
                "64": [
                    {
                        "number": 64,
                        "time": 0,
                        "value": 0
                    },
                    {
                        "number": 64,
                        "time": 14.3529618375,
                        "value": 1
                    },
                    {
                        "number": 64,
                        "time": 15.4333179,
                        "value": 0
                    },
                    {
                        "number": 64,
                        "time": 16.095222,
                        "value": 1
                    },
                    {
                        "number": 64,
                        "time": 17.153554275,
                        "value": 0
                    },
                    {
                        "number": 64,
                        "time": 17.809506000000003,
                        "value": 1
                    },
                    {
                        "number": 64,
                        "time": 17.999982000000003,
                        "value": 0
                    },
                    {
                        "number": 64,
                        "time": 18.158910412500003,
                        "value": 1
                    },
                    {
                        "number": 64,
                        "time": 18.583314750000003,
                        "value": 0
                    },
                    {
                        "number": 64,
                        "time": 18.698790825000003,
                        "value": 1
                    },
                    {
                        "number": 64,
                        "time": 18.861290662500004,
                        "value": 0
                    },
                    {
                        "number": 64,
                        "time": 18.999981000000005,
                        "value": 1
                    },
                    {
                        "number": 64,
                        "time": 19.438671037500004,
                        "value": 0
                    },
                    {
                        "number": 64,
                        "time": 19.603551825000004,
                        "value": 1
                    },
                    {
                        "number": 64,
                        "time": 20.010694275000002,
                        "value": 0
                    },
                    {
                        "number": 64,
                        "time": 20.083908487500004,
                        "value": 1
                    },
                    {
                        "number": 64,
                        "time": 20.297003512500005,
                        "value": 0
                    },
                    {
                        "number": 64,
                        "time": 20.369622487500006,
                        "value": 1
                    },
                    {
                        "number": 64,
                        "time": 20.571408000000005,
                        "value": 0
                    },
                    {
                        "number": 64,
                        "time": 20.746407825000006,
                        "value": 1
                    },
                    {
                        "number": 64,
                        "time": 20.866050562500007,
                        "value": 0
                    },
                    {
                        "number": 64,
                        "time": 30.09282705000001,
                        "value": 1
                    },
                    {
                        "number": 64,
                        "time": 30.85711200000001,
                        "value": 0
                    },
                    {
                        "number": 64,
                        "time": 31.49580183750001,
                        "value": 1
                    },
                    {
                        "number": 64,
                        "time": 32.57615790000001,
                        "value": 0
                    },
                    {
                        "number": 64,
                        "time": 33.23806200000001,
                        "value": 1
                    },
                    {
                        "number": 64,
                        "time": 34.29639427500001,
                        "value": 0
                    },
                    {
                        "number": 64,
                        "time": 34.95234600000001,
                        "value": 1
                    },
                    {
                        "number": 64,
                        "time": 35.14282200000001,
                        "value": 0
                    },
                    {
                        "number": 64,
                        "time": 35.30175041250001,
                        "value": 1
                    },
                    {
                        "number": 64,
                        "time": 35.72615475000001,
                        "value": 0
                    },
                    {
                        "number": 64,
                        "time": 35.84163082500001,
                        "value": 1
                    },
                    {
                        "number": 64,
                        "time": 36.00413066250001,
                        "value": 0
                    },
                    {
                        "number": 64,
                        "time": 36.14282100000001,
                        "value": 1
                    },
                    {
                        "number": 64,
                        "time": 36.581511037500015,
                        "value": 0
                    },
                    {
                        "number": 64,
                        "time": 36.74639182500002,
                        "value": 1
                    },
                    {
                        "number": 64,
                        "time": 37.15353427500002,
                        "value": 0
                    },
                    {
                        "number": 64,
                        "time": 37.22674848750002,
                        "value": 1
                    },
                    {
                        "number": 64,
                        "time": 37.43984351250002,
                        "value": 0
                    },
                    {
                        "number": 64,
                        "time": 37.51246248750002,
                        "value": 1
                    },
                    {
                        "number": 64,
                        "time": 37.71424800000002,
                        "value": 0
                    },
                    {
                        "number": 64,
                        "time": 37.88924782500002,
                        "value": 1
                    },
                    {
                        "number": 64,
                        "time": 38.00889056250002,
                        "value": 0
                    },
                    {
                        "number": 64,
                        "time": 47.22673848750002,
                        "value": 1
                    },
                    {
                        "number": 64,
                        "time": 47.99995200000002,
                        "value": 0
                    },
                    {
                        "number": 64,
                        "time": 48.63507041250002,
                        "value": 1
                    },
                    {
                        "number": 64,
                        "time": 49.43864103750002,
                        "value": 0
                    },
                    {
                        "number": 64,
                        "time": 49.58745041250002,
                        "value": 1
                    },
                    {
                        "number": 64,
                        "time": 50.29697351250002,
                        "value": 0
                    },
                    {
                        "number": 64,
                        "time": 50.42852100000002,
                        "value": 1
                    },
                    {
                        "number": 64,
                        "time": 51.193401187500015,
                        "value": 0
                    },
                    {
                        "number": 64,
                        "time": 51.58744841250002,
                        "value": 1
                    },
                    {
                        "number": 64,
                        "time": 52.01185275000002,
                        "value": 0
                    },
                    {
                        "number": 64,
                        "time": 52.12732882500001,
                        "value": 1
                    },
                    {
                        "number": 64,
                        "time": 52.86780427500001,
                        "value": 0
                    },
                    {
                        "number": 64,
                        "time": 52.99994700000001,
                        "value": 1
                    },
                    {
                        "number": 64,
                        "time": 53.726136750000016,
                        "value": 0
                    },
                    {
                        "number": 64,
                        "time": 53.87316041250001,
                        "value": 1
                    },
                    {
                        "number": 64,
                        "time": 54.58387398750001,
                        "value": 0
                    },
                    {
                        "number": 64,
                        "time": 54.85708800000001,
                        "value": 1
                    },
                    {
                        "number": 64,
                        "time": 55.43744456250001,
                        "value": 0
                    },
                    {
                        "number": 64,
                        "time": 55.571373000000015,
                        "value": 1
                    },
                    {
                        "number": 64,
                        "time": 56.294586562500015,
                        "value": 0
                    },
                    {
                        "number": 64,
                        "time": 56.42851500000002,
                        "value": 1
                    },
                    {
                        "number": 64,
                        "time": 57.15291903750002,
                        "value": 0
                    },
                    {
                        "number": 64,
                        "time": 57.30172841250002,
                        "value": 1
                    },
                    {
                        "number": 64,
                        "time": 58.016608650000016,
                        "value": 0
                    },
                    {
                        "number": 64,
                        "time": 58.301727412500014,
                        "value": 1
                    },
                    {
                        "number": 64,
                        "time": 58.86779827500001,
                        "value": 0
                    },
                    {
                        "number": 64,
                        "time": 58.96839341250001,
                        "value": 1
                    },
                    {
                        "number": 64,
                        "time": 59.723749800000014,
                        "value": 0
                    },
                    {
                        "number": 64,
                        "time": 59.88922582500001,
                        "value": 1
                    },
                    {
                        "number": 64,
                        "time": 60.58029656250001,
                        "value": 0
                    },
                    {
                        "number": 64,
                        "time": 60.76184400000001,
                        "value": 1
                    },
                    {
                        "number": 64,
                        "time": 61.43684332500001,
                        "value": 0
                    },
                    {
                        "number": 64,
                        "time": 61.714224000000016,
                        "value": 1
                    },
                    {
                        "number": 64,
                        "time": 62.19041400000002,
                        "value": 0
                    },
                    {
                        "number": 64,
                        "time": 67.49219441250001,
                        "value": 1
                    },
                    {
                        "number": 64,
                        "time": 68.2981459875,
                        "value": 0
                    },
                    {
                        "number": 64,
                        "time": 69.238026,
                        "value": 1
                    },
                    {
                        "number": 64,
                        "time": 70.01123951250001,
                        "value": 0
                    },
                    {
                        "number": 64,
                        "time": 70.19040600000001,
                        "value": 1
                    },
                    {
                        "number": 64,
                        "time": 70.86778627500001,
                        "value": 0
                    },
                    {
                        "number": 64,
                        "time": 71.06361941250002,
                        "value": 1
                    },
                    {
                        "number": 64,
                        "time": 71.72135685000002,
                        "value": 0
                    },
                    {
                        "number": 64,
                        "time": 71.89099953750002,
                        "value": 1
                    },
                    {
                        "number": 64,
                        "time": 72.58266551250003,
                        "value": 0
                    },
                    {
                        "number": 64,
                        "time": 72.73504631250003,
                        "value": 1
                    },
                    {
                        "number": 64,
                        "time": 73.43683132500003,
                        "value": 0
                    },
                    {
                        "number": 64,
                        "time": 73.61897400000002,
                        "value": 1
                    },
                    {
                        "number": 64,
                        "time": 74.29456856250002,
                        "value": 0
                    },
                    {
                        "number": 64,
                        "time": 74.49218741250002,
                        "value": 1
                    },
                    {
                        "number": 64,
                        "time": 75.15944865000002,
                        "value": 0
                    },
                    {
                        "number": 64,
                        "time": 81.25408541250002,
                        "value": 1
                    },
                    {
                        "number": 64,
                        "time": 82.00765608750002,
                        "value": 0
                    },
                    {
                        "number": 64,
                        "time": 82.89813138750003,
                        "value": 1
                    },
                    {
                        "number": 64,
                        "time": 83.72432103750003,
                        "value": 0
                    },
                    {
                        "number": 64,
                        "time": 83.87313041250003,
                        "value": 1
                    },
                    {
                        "number": 64,
                        "time": 84.58146303750003,
                        "value": 0
                    },
                    {
                        "number": 64,
                        "time": 84.74634382500003,
                        "value": 1
                    },
                    {
                        "number": 64,
                        "time": 85.43800980000003,
                        "value": 0
                    },
                    {
                        "number": 64,
                        "time": 85.60527153750003,
                        "value": 1
                    },
                    {
                        "number": 64,
                        "time": 86.29634227500003,
                        "value": 0
                    },
                    {
                        "number": 64,
                        "time": 86.42193738750002,
                        "value": 1
                    },
                    {
                        "number": 64,
                        "time": 87.15407951250002,
                        "value": 0
                    },
                    {
                        "number": 64,
                        "time": 87.42848400000003,
                        "value": 1
                    },
                    {
                        "number": 64,
                        "time": 88.00824532500003,
                        "value": 0
                    },
                    {
                        "number": 64,
                        "time": 88.17491182500004,
                        "value": 1
                    },
                    {
                        "number": 64,
                        "time": 88.87372065000004,
                        "value": 0
                    },
                    {
                        "number": 64,
                        "time": 89.14276800000003,
                        "value": 0
                    },
                    {
                        "number": 64,
                        "time": 103.49572983750004,
                        "value": 1
                    },
                    {
                        "number": 64,
                        "time": 104.57608590000004,
                        "value": 0
                    },
                    {
                        "number": 64,
                        "time": 105.23799000000004,
                        "value": 1
                    },
                    {
                        "number": 64,
                        "time": 106.29632227500004,
                        "value": 0
                    },
                    {
                        "number": 64,
                        "time": 106.95227400000003,
                        "value": 1
                    },
                    {
                        "number": 64,
                        "time": 107.14275000000004,
                        "value": 0
                    },
                    {
                        "number": 64,
                        "time": 107.30167841250004,
                        "value": 1
                    },
                    {
                        "number": 64,
                        "time": 107.72608275000003,
                        "value": 0
                    },
                    {
                        "number": 64,
                        "time": 107.84155882500004,
                        "value": 1
                    },
                    {
                        "number": 64,
                        "time": 108.00405866250003,
                        "value": 0
                    },
                    {
                        "number": 64,
                        "time": 108.14274900000002,
                        "value": 1
                    },
                    {
                        "number": 64,
                        "time": 108.58143903750002,
                        "value": 0
                    },
                    {
                        "number": 64,
                        "time": 108.74631982500001,
                        "value": 1
                    },
                    {
                        "number": 64,
                        "time": 109.15346227500001,
                        "value": 0
                    },
                    {
                        "number": 64,
                        "time": 109.22667648750001,
                        "value": 1
                    },
                    {
                        "number": 64,
                        "time": 109.43977151250002,
                        "value": 0
                    },
                    {
                        "number": 64,
                        "time": 109.51239048750001,
                        "value": 1
                    },
                    {
                        "number": 64,
                        "time": 109.71417600000001,
                        "value": 0
                    },
                    {
                        "number": 64,
                        "time": 109.88917582500001,
                        "value": 1
                    },
                    {
                        "number": 64,
                        "time": 110.00881856250001,
                        "value": 0
                    },
                    {
                        "number": 64,
                        "time": 119.23559505000001,
                        "value": 1
                    },
                    {
                        "number": 64,
                        "time": 119.99988000000002,
                        "value": 0
                    }
                ]
            },
            "id": 3,
            "name": "Pedal"
        },
        {
            "startTime": 0,
            "duration": 0,
            "length": 0,
            "notes": [],
            "controlChanges": {},
            "id": 4,
            "name": "Copyright © 1998 by Bernd Krueger"
        },
        {
            "startTime": 0,
            "duration": 0,
            "length": 0,
            "notes": [],
            "controlChanges": {},
            "id": 5,
            "name": "http://www.piano-midi.de"
        },
        {
            "startTime": 0,
            "duration": 0,
            "length": 0,
            "notes": [],
            "controlChanges": {},
            "id": 6,
            "name": "Edition: 2012-06-05"
        }
    ]
}