{
    "header": {
        "PPQ": 480,
        "timeSignature": [
            4,
            4
        ],
        "bpm": 49.49000549339061,
        "name": "Mondscheinsonate; der Gräfin Giulietta Guiccardi gewidmet"
    },
    "startTime": 0,
    "duration": 334.61301600000024,
    "tracks": [
        {
            "startTime": 0,
            "duration": 0,
            "length": 0,
            "notes": [],
            "controlChanges": {},
            "id": 0,
            "name": "Mondscheinsonate; der Gräfin Giulietta Guiccardi gewidmet"
        },
        {
            "startTime": 23.034954000000003,
            "duration": 322.4767271874997,
            "length": 118,
            "notes": [
                {
                    "name": "G#4",
                    "midi": 68,
                    "time": 23.034954000000003,
                    "velocity": 0.4409448818897638,
                    "duration": 0.9092744999999987
                },
                {
                    "name": "G#4",
                    "midi": 68,
                    "time": 23.9442285,
                    "velocity": 0.3937007874015748,
                    "duration": 0.30309150000000074
                },
                {
                    "name": "G#4",
                    "midi": 68,
                    "time": 24.247320000000002,
                    "velocity": 0.3937007874015748,
                    "duration": 3.6370980000000017
                },
                {
                    "name": "G#4",
                    "midi": 68,
                    "time": 27.884418000000004,
                    "velocity": 0.4409448818897638,
                    "duration": 0.9092744999999987
                },
                {
                    "name": "G#4",
                    "midi": 68,
                    "time": 28.793692500000002,
                    "velocity": 0.41732283464566927,
                    "duration": 0.30309150000000074
                },
                {
                    "name": "G#4",
                    "midi": 68,
                    "time": 29.096784000000003,
                    "velocity": 0.41732283464566927,
                    "duration": 2.4247319999999988
                },
                {
                    "name": "A4",
                    "midi": 69,
                    "time": 31.521516000000002,
                    "velocity": 0.4409448818897638,
                    "duration": 2.4247320000000023
                },
                {
                    "name": "G#4",
                    "midi": 68,
                    "time": 33.946248000000004,
                    "velocity": 0.4409448818897638,
                    "duration": 2.4247319999999988
                },
                {
                    "name": "F#4",
                    "midi": 66,
                    "time": 36.37098,
                    "velocity": 0.41732283464566927,
                    "duration": 1.212366000000003
                },
                {
                    "name": "B4",
                    "midi": 71,
                    "time": 37.583346000000006,
                    "velocity": 0.3937007874015748,
                    "duration": 1.212366000000003
                },
                {
                    "name": "E4",
                    "midi": 64,
                    "time": 38.79571200000001,
                    "velocity": 0.3700787401574803,
                    "duration": 0.7829863750000001
                },
                {
                    "name": "G4",
                    "midi": 67,
                    "time": 47.28227400000001,
                    "velocity": 0.36220472440944884,
                    "duration": 0.9092745000000022
                },
                {
                    "name": "G4",
                    "midi": 67,
                    "time": 48.19154850000001,
                    "velocity": 0.3543307086614173,
                    "duration": 0.30309150000000074
                },
                {
                    "name": "G4",
                    "midi": 67,
                    "time": 48.49464000000001,
                    "velocity": 0.3543307086614173,
                    "duration": 3.6370980000000017
                },
                {
                    "name": "G4",
                    "midi": 67,
                    "time": 52.13173800000001,
                    "velocity": 0.3937007874015748,
                    "duration": 0.9092745000000022
                },
                {
                    "name": "G4",
                    "midi": 67,
                    "time": 53.041012500000015,
                    "velocity": 0.3937007874015748,
                    "duration": 0.30309150000000074
                },
                {
                    "name": "G4",
                    "midi": 67,
                    "time": 53.344104000000016,
                    "velocity": 0.44881889763779526,
                    "duration": 3.6370980000000017
                },
                {
                    "name": "F#4",
                    "midi": 66,
                    "time": 56.98120200000002,
                    "velocity": 0.4409448818897638,
                    "duration": 1.212366000000003
                },
                {
                    "name": "F#4",
                    "midi": 66,
                    "time": 58.19356800000002,
                    "velocity": 0.5118110236220472,
                    "duration": 2.4247319999999988
                },
                {
                    "name": "G4",
                    "midi": 67,
                    "time": 60.61830000000002,
                    "velocity": 0.4409448818897638,
                    "duration": 1.212366000000003
                },
                {
                    "name": "E4",
                    "midi": 64,
                    "time": 61.83066600000002,
                    "velocity": 0.3700787401574803,
                    "duration": 1.212366000000003
                },
                {
                    "name": "F#4",
                    "midi": 66,
                    "time": 63.043032000000025,
                    "velocity": 0.41732283464566927,
                    "duration": 2.424732000000006
                },
                {
                    "name": "F#4",
                    "midi": 66,
                    "time": 65.46776400000003,
                    "velocity": 0.3700787401574803,
                    "duration": 2.424732000000006
                },
                {
                    "name": "B4",
                    "midi": 71,
                    "time": 71.52959400000003,
                    "velocity": 0.4409448818897638,
                    "duration": 1.212366000000003
                },
                {
                    "name": "C5",
                    "midi": 72,
                    "time": 72.74196000000003,
                    "velocity": 0.49606299212598426,
                    "duration": 3.6370979999999946
                },
                {
                    "name": "A#4",
                    "midi": 70,
                    "time": 76.37905800000003,
                    "velocity": 0.4409448818897638,
                    "duration": 1.212366000000003
                },
                {
                    "name": "B4",
                    "midi": 71,
                    "time": 77.59142400000003,
                    "velocity": 0.4409448818897638,
                    "duration": 3.6370979999999946
                },
                {
                    "name": "B4",
                    "midi": 71,
                    "time": 81.22852200000003,
                    "velocity": 0.4409448818897638,
                    "duration": 1.212366000000003
                },
                {
                    "name": "C5",
                    "midi": 72,
                    "time": 82.44088800000003,
                    "velocity": 0.49606299212598426,
                    "duration": 3.6370979999999946
                },
                {
                    "name": "A#4",
                    "midi": 70,
                    "time": 86.07798600000002,
                    "velocity": 0.4409448818897638,
                    "duration": 1.212366000000003
                },
                {
                    "name": "B4",
                    "midi": 71,
                    "time": 87.29035200000003,
                    "velocity": 0.4409448818897638,
                    "duration": 2.424732000000006
                },
                {
                    "name": "B4",
                    "midi": 71,
                    "time": 89.71508400000003,
                    "velocity": 0.3700787401574803,
                    "duration": 2.424732000000006
                },
                {
                    "name": "B4",
                    "midi": 71,
                    "time": 92.13981600000004,
                    "velocity": 0.3700787401574803,
                    "duration": 2.424732000000006
                },
                {
                    "name": "A4",
                    "midi": 69,
                    "time": 94.56454800000004,
                    "velocity": 0.4094488188976378,
                    "duration": 2.424732000000006
                },
                {
                    "name": "G4",
                    "midi": 67,
                    "time": 96.98928000000005,
                    "velocity": 0.4409448818897638,
                    "duration": 2.424732000000006
                },
                {
                    "name": "F#4",
                    "midi": 66,
                    "time": 99.41401200000006,
                    "velocity": 0.4094488188976378,
                    "duration": 2.424732000000006
                },
                {
                    "name": "C#4",
                    "midi": 61,
                    "time": 101.83874400000006,
                    "velocity": 0.3700787401574803,
                    "duration": 2.424732000000006
                },
                {
                    "name": "C#4",
                    "midi": 61,
                    "time": 104.26347600000007,
                    "velocity": 0.3700787401574803,
                    "duration": 1.212366000000003
                },
                {
                    "name": "C#4",
                    "midi": 61,
                    "time": 105.47584200000007,
                    "velocity": 0.3228346456692913,
                    "duration": 1.212366000000003
                },
                {
                    "name": "C#5",
                    "midi": 73,
                    "time": 110.32530600000007,
                    "velocity": 0.4409448818897638,
                    "duration": 0.9092744999999951
                },
                {
                    "name": "C#5",
                    "midi": 73,
                    "time": 111.23458050000006,
                    "velocity": 0.4409448818897638,
                    "duration": 0.30309149999999363
                },
                {
                    "name": "C#5",
                    "midi": 73,
                    "time": 111.53767200000006,
                    "velocity": 0.48031496062992124,
                    "duration": 3.6370979999999946
                },
                {
                    "name": "C#5",
                    "midi": 73,
                    "time": 115.17477000000005,
                    "velocity": 0.4409448818897638,
                    "duration": 0.9092744999999951
                },
                {
                    "name": "C#5",
                    "midi": 73,
                    "time": 116.08404450000005,
                    "velocity": 0.4409448818897638,
                    "duration": 0.30309149999999363
                },
                {
                    "name": "C#5",
                    "midi": 73,
                    "time": 116.38713600000004,
                    "velocity": 0.5118110236220472,
                    "duration": 2.424732000000006
                },
                {
                    "name": "C5",
                    "midi": 72,
                    "time": 118.81186800000005,
                    "velocity": 0.48031496062992124,
                    "duration": 1.212366000000003
                },
                {
                    "name": "C#5",
                    "midi": 73,
                    "time": 120.02423400000005,
                    "velocity": 0.49606299212598426,
                    "duration": 1.212366000000003
                },
                {
                    "name": "D#5",
                    "midi": 75,
                    "time": 121.23660000000005,
                    "velocity": 0.5118110236220472,
                    "duration": 3.6370979999999946
                },
                {
                    "name": "D#5",
                    "midi": 75,
                    "time": 124.87369800000005,
                    "velocity": 0.5669291338582677,
                    "duration": 1.212366000000003
                },
                {
                    "name": "E5",
                    "midi": 76,
                    "time": 126.08606400000005,
                    "velocity": 0.6771653543307087,
                    "duration": 2.424732000000006
                },
                {
                    "name": "D#5",
                    "midi": 75,
                    "time": 128.51079600000006,
                    "velocity": 0.5118110236220472,
                    "duration": 1.212366000000003
                },
                {
                    "name": "C#5",
                    "midi": 73,
                    "time": 129.72316200000006,
                    "velocity": 0.4409448818897638,
                    "duration": 1.212366000000003
                },
                {
                    "name": "G#4",
                    "midi": 68,
                    "time": 202.46512200000006,
                    "velocity": 0.4409448818897638,
                    "duration": 0.9092745000000093
                },
                {
                    "name": "G#4",
                    "midi": 68,
                    "time": 203.37439650000007,
                    "velocity": 0.4409448818897638,
                    "duration": 0.30309149999999363
                },
                {
                    "name": "G#4",
                    "midi": 68,
                    "time": 203.67748800000007,
                    "velocity": 0.4409448818897638,
                    "duration": 3.637098000000009
                },
                {
                    "name": "G#4",
                    "midi": 68,
                    "time": 207.31458600000008,
                    "velocity": 0.4409448818897638,
                    "duration": 0.9092745000000093
                },
                {
                    "name": "G#4",
                    "midi": 68,
                    "time": 208.2238605000001,
                    "velocity": 0.4409448818897638,
                    "duration": 0.30309149999999363
                },
                {
                    "name": "G#4",
                    "midi": 68,
                    "time": 208.52695200000008,
                    "velocity": 0.4409448818897638,
                    "duration": 2.424732000000006
                },
                {
                    "name": "A4",
                    "midi": 69,
                    "time": 210.95168400000009,
                    "velocity": 0.4409448818897638,
                    "duration": 2.424732000000006
                },
                {
                    "name": "G#4",
                    "midi": 68,
                    "time": 213.3764160000001,
                    "velocity": 0.4409448818897638,
                    "duration": 2.424732000000006
                },
                {
                    "name": "F#4",
                    "midi": 66,
                    "time": 215.8011480000001,
                    "velocity": 0.4409448818897638,
                    "duration": 1.212366000000003
                },
                {
                    "name": "B4",
                    "midi": 71,
                    "time": 217.0135140000001,
                    "velocity": 0.4409448818897638,
                    "duration": 1.212366000000003
                },
                {
                    "name": "E4",
                    "midi": 64,
                    "time": 218.2258800000001,
                    "velocity": 0.4409448818897638,
                    "duration": 0.7829863750000072
                },
                {
                    "name": "B4",
                    "midi": 71,
                    "time": 221.8629780000001,
                    "velocity": 0.48031496062992124,
                    "duration": 0.9092745000000093
                },
                {
                    "name": "B4",
                    "midi": 71,
                    "time": 222.77225250000012,
                    "velocity": 0.4409448818897638,
                    "duration": 0.30309149999999363
                },
                {
                    "name": "B4",
                    "midi": 71,
                    "time": 223.07534400000011,
                    "velocity": 0.48031496062992124,
                    "duration": 3.637098000000009
                },
                {
                    "name": "B4",
                    "midi": 71,
                    "time": 226.71244200000012,
                    "velocity": 0.49606299212598426,
                    "duration": 0.9092745000000093
                },
                {
                    "name": "B4",
                    "midi": 71,
                    "time": 227.62171650000013,
                    "velocity": 0.4409448818897638,
                    "duration": 0.30309149999999363
                },
                {
                    "name": "B4",
                    "midi": 71,
                    "time": 227.92480800000013,
                    "velocity": 0.49606299212598426,
                    "duration": 2.424732000000006
                },
                {
                    "name": "C5",
                    "midi": 72,
                    "time": 230.34954000000013,
                    "velocity": 0.5118110236220472,
                    "duration": 1.212366000000003
                },
                {
                    "name": "C#5",
                    "midi": 73,
                    "time": 231.56190600000014,
                    "velocity": 0.5669291338582677,
                    "duration": 1.212366000000003
                },
                {
                    "name": "D#5",
                    "midi": 75,
                    "time": 232.77427200000014,
                    "velocity": 0.5905511811023622,
                    "duration": 2.424732000000006
                },
                {
                    "name": "E5",
                    "midi": 76,
                    "time": 235.19900400000014,
                    "velocity": 0.4409448818897638,
                    "duration": 2.424732000000006
                },
                {
                    "name": "D5",
                    "midi": 74,
                    "time": 237.62373600000015,
                    "velocity": 0.4409448818897638,
                    "duration": 2.424732000000006
                },
                {
                    "name": "C5",
                    "midi": 72,
                    "time": 240.04846800000016,
                    "velocity": 0.4409448818897638,
                    "duration": 2.424732000000006
                },
                {
                    "name": "C#5",
                    "midi": 73,
                    "time": 242.47320000000016,
                    "velocity": 0.4409448818897638,
                    "duration": 3.637098000000009
                },
                {
                    "name": "C#5",
                    "midi": 73,
                    "time": 246.11029800000017,
                    "velocity": 0.4409448818897638,
                    "duration": 1.212366000000003
                },
                {
                    "name": "D5",
                    "midi": 74,
                    "time": 247.32266400000017,
                    "velocity": 0.5590551181102362,
                    "duration": 3.637098000000009
                },
                {
                    "name": "C5",
                    "midi": 72,
                    "time": 250.95976200000018,
                    "velocity": 0.4409448818897638,
                    "duration": 1.212366000000003
                },
                {
                    "name": "C#5",
                    "midi": 73,
                    "time": 252.17212800000019,
                    "velocity": 0.4409448818897638,
                    "duration": 3.637098000000009
                },
                {
                    "name": "C#5",
                    "midi": 73,
                    "time": 255.8092260000002,
                    "velocity": 0.4409448818897638,
                    "duration": 1.2123659999999745
                },
                {
                    "name": "D5",
                    "midi": 74,
                    "time": 257.02159200000017,
                    "velocity": 0.5354330708661418,
                    "duration": 3.6370979999999804
                },
                {
                    "name": "C5",
                    "midi": 72,
                    "time": 260.65869000000015,
                    "velocity": 0.4409448818897638,
                    "duration": 1.2123659999999745
                },
                {
                    "name": "C#5",
                    "midi": 73,
                    "time": 261.8710560000001,
                    "velocity": 0.48031496062992124,
                    "duration": 2.424732000000006
                },
                {
                    "name": "C#5",
                    "midi": 73,
                    "time": 264.29578800000013,
                    "velocity": 0.4409448818897638,
                    "duration": 2.424732000000006
                },
                {
                    "name": "B4",
                    "midi": 71,
                    "time": 266.72052000000014,
                    "velocity": 0.4409448818897638,
                    "duration": 3.6370979999999804
                },
                {
                    "name": "B4",
                    "midi": 71,
                    "time": 270.3576180000001,
                    "velocity": 0.4409448818897638,
                    "duration": 1.2123659999999745
                },
                {
                    "name": "A4",
                    "midi": 69,
                    "time": 271.5699840000001,
                    "velocity": 0.4409448818897638,
                    "duration": 1.2123659999999745
                },
                {
                    "name": "A4",
                    "midi": 69,
                    "time": 272.78235000000006,
                    "velocity": 0.4409448818897638,
                    "duration": 1.2123659999999745
                },
                {
                    "name": "G#4",
                    "midi": 68,
                    "time": 273.99471600000004,
                    "velocity": 0.4409448818897638,
                    "duration": 1.2123659999999745
                },
                {
                    "name": "G#4",
                    "midi": 68,
                    "time": 275.207082,
                    "velocity": 0.4409448818897638,
                    "duration": 1.2123659999999745
                },
                {
                    "name": "F#4",
                    "midi": 66,
                    "time": 276.419448,
                    "velocity": 0.4409448818897638,
                    "duration": 2.424732000000006
                },
                {
                    "name": "G#4",
                    "midi": 68,
                    "time": 278.84418,
                    "velocity": 0.5275590551181102,
                    "duration": 1.2123659999999745
                },
                {
                    "name": "A4",
                    "midi": 69,
                    "time": 280.05654599999997,
                    "velocity": 0.6062992125984252,
                    "duration": 1.2123659999999745
                },
                {
                    "name": "G#4",
                    "midi": 68,
                    "time": 281.26891199999994,
                    "velocity": 0.4409448818897638,
                    "duration": 2.424732000000006
                },
                {
                    "name": "G#4",
                    "midi": 68,
                    "time": 283.69364399999995,
                    "velocity": 0.3700787401574803,
                    "duration": 2.424732000000006
                },
                {
                    "name": "G#2",
                    "midi": 44,
                    "time": 286.11837599999996,
                    "velocity": 0.41732283464566927,
                    "duration": 3.6370979999999804
                },
                {
                    "name": "C#4",
                    "midi": 61,
                    "time": 286.11837599999996,
                    "velocity": 0.3228346456692913,
                    "duration": 1.2123659999999745
                },
                {
                    "name": "G#2",
                    "midi": 44,
                    "time": 289.75547399999994,
                    "velocity": 0.41732283464566927,
                    "duration": 0.9092744999999809
                },
                {
                    "name": "G#2",
                    "midi": 44,
                    "time": 290.6647484999999,
                    "velocity": 0.41732283464566927,
                    "duration": 0.30309149999999363
                },
                {
                    "name": "G#2",
                    "midi": 44,
                    "time": 290.9678399999999,
                    "velocity": 0.41732283464566927,
                    "duration": 3.6370979999999804
                },
                {
                    "name": "G#2",
                    "midi": 44,
                    "time": 294.6049379999999,
                    "velocity": 0.41732283464566927,
                    "duration": 0.9092744999999809
                },
                {
                    "name": "G#2",
                    "midi": 44,
                    "time": 295.51421249999987,
                    "velocity": 0.41732283464566927,
                    "duration": 0.30309149999999363
                },
                {
                    "name": "G#2",
                    "midi": 44,
                    "time": 295.81730399999987,
                    "velocity": 0.41732283464566927,
                    "duration": 3.6370979999999804
                },
                {
                    "name": "G#2",
                    "midi": 44,
                    "time": 299.45440199999985,
                    "velocity": 0.41732283464566927,
                    "duration": 0.9092744999999809
                },
                {
                    "name": "G#2",
                    "midi": 44,
                    "time": 300.3636764999998,
                    "velocity": 0.47244094488188976,
                    "duration": 0.30309149999999363
                },
                {
                    "name": "G#2",
                    "midi": 44,
                    "time": 300.6667679999998,
                    "velocity": 0.49606299212598426,
                    "duration": 3.6370979999999804
                },
                {
                    "name": "G#2",
                    "midi": 44,
                    "time": 304.3038659999998,
                    "velocity": 0.4881889763779528,
                    "duration": 0.9092744999999809
                },
                {
                    "name": "G#2",
                    "midi": 44,
                    "time": 305.2131404999998,
                    "velocity": 0.47244094488188976,
                    "duration": 0.30309149999999363
                },
                {
                    "name": "G#2",
                    "midi": 44,
                    "time": 305.5162319999998,
                    "velocity": 0.41732283464566927,
                    "duration": 3.6370979999999804
                },
                {
                    "name": "G#2",
                    "midi": 44,
                    "time": 309.15332999999976,
                    "velocity": 0.41732283464566927,
                    "duration": 0.9092744999999809
                },
                {
                    "name": "G#2",
                    "midi": 44,
                    "time": 310.06260449999974,
                    "velocity": 0.4409448818897638,
                    "duration": 0.30309149999999363
                },
                {
                    "name": "G#2",
                    "midi": 44,
                    "time": 310.36569599999973,
                    "velocity": 0.49606299212598426,
                    "duration": 3.6370979999999804
                },
                {
                    "name": "G#2",
                    "midi": 44,
                    "time": 314.0027939999997,
                    "velocity": 0.48031496062992124,
                    "duration": 0.9092744999999809
                },
                {
                    "name": "G#2",
                    "midi": 44,
                    "time": 314.9120684999997,
                    "velocity": 0.41732283464566927,
                    "duration": 0.30309149999999363
                },
                {
                    "name": "G#2",
                    "midi": 44,
                    "time": 315.2151599999997,
                    "velocity": 0.41732283464566927,
                    "duration": 2.424732000000006
                },
                {
                    "name": "C#3",
                    "midi": 49,
                    "time": 317.6398919999997,
                    "velocity": 0.41732283464566927,
                    "duration": 2.424732000000006
                },
                {
                    "name": "G#2",
                    "midi": 44,
                    "time": 320.0646239999997,
                    "velocity": 0.3937007874015748,
                    "duration": 2.4121031875000085
                }
            ],
            "controlChanges": {
                "7": [
                    {
                        "number": 7,
                        "time": 0,
                        "value": 0.7874015748031497
                    }
                ],
                "10": [
                    {
                        "number": 10,
                        "time": 0,
                        "value": 0.5039370078740157
                    }
                ],
                "91": [
                    {
                        "number": 91,
                        "time": 23.034954000000003,
                        "value": 1
                    }
                ]
            },
            "id": 1,
            "name": "Piano right first",
            "instrumentNumber": 0,
            "instrument": "acoustic grand piano",
            "instrumentFamily": "piano",
            "channelNumber": 0,
            "isPercussion": false
        },
        {
            "startTime": 0,
            "duration": 334.6130159999959,
            "length": 809,
            "notes": [
                {
                    "name": "G#3",
                    "midi": 56,
                    "time": 0,
                    "velocity": 0.25984251968503935,
                    "duration": 0.404122
                },
                {
                    "name": "C#4",
                    "midi": 61,
                    "time": 0.404122,
                    "velocity": 0.2047244094488189,
                    "duration": 0.404122
                },
                {
                    "name": "E4",
                    "midi": 64,
                    "time": 0.808244,
                    "velocity": 0.2047244094488189,
                    "duration": 0.40412199999999987
                },
                {
                    "name": "G#3",
                    "midi": 56,
                    "time": 1.2123659999999998,
                    "velocity": 0.25984251968503935,
                    "duration": 0.4041220000000001
                },
                {
                    "name": "C#4",
                    "midi": 61,
                    "time": 1.616488,
                    "velocity": 0.2047244094488189,
                    "duration": 0.4041220000000001
                },
                {
                    "name": "E4",
                    "midi": 64,
                    "time": 2.02061,
                    "velocity": 0.2047244094488189,
                    "duration": 0.4041220000000001
                },
                {
                    "name": "G#3",
                    "midi": 56,
                    "time": 2.424732,
                    "velocity": 0.25196850393700787,
                    "duration": 0.4041220000000001
                },
                {
                    "name": "C#4",
                    "midi": 61,
                    "time": 2.828854,
                    "velocity": 0.2047244094488189,
                    "duration": 0.4041220000000001
                },
                {
                    "name": "E4",
                    "midi": 64,
                    "time": 3.2329760000000003,
                    "velocity": 0.2047244094488189,
                    "duration": 0.4041220000000001
                },
                {
                    "name": "G#3",
                    "midi": 56,
                    "time": 3.6370980000000004,
                    "velocity": 0.2755905511811024,
                    "duration": 0.40412199999999965
                },
                {
                    "name": "C#4",
                    "midi": 61,
                    "time": 4.04122,
                    "velocity": 0.2047244094488189,
                    "duration": 0.4041220000000001
                },
                {
                    "name": "E4",
                    "midi": 64,
                    "time": 4.445342,
                    "velocity": 0.2047244094488189,
                    "duration": 0.4041220000000001
                },
                {
                    "name": "G#3",
                    "midi": 56,
                    "time": 4.849464,
                    "velocity": 0.25984251968503935,
                    "duration": 0.4041220000000001
                },
                {
                    "name": "C#4",
                    "midi": 61,
                    "time": 5.253586,
                    "velocity": 0.2047244094488189,
                    "duration": 0.4041220000000001
                },
                {
                    "name": "E4",
                    "midi": 64,
                    "time": 5.657708,
                    "velocity": 0.18110236220472442,
                    "duration": 0.4041220000000001
                },
                {
                    "name": "G#3",
                    "midi": 56,
                    "time": 6.0618300000000005,
                    "velocity": 0.23622047244094488,
                    "duration": 0.4041220000000001
                },
                {
                    "name": "C#4",
                    "midi": 61,
                    "time": 6.465952000000001,
                    "velocity": 0.2047244094488189,
                    "duration": 0.4041220000000001
                },
                {
                    "name": "E4",
                    "midi": 64,
                    "time": 6.870074000000001,
                    "velocity": 0.18110236220472442,
                    "duration": 0.4041220000000001
                },
                {
                    "name": "G#3",
                    "midi": 56,
                    "time": 7.274196000000001,
                    "velocity": 0.25984251968503935,
                    "duration": 0.4041220000000001
                },
                {
                    "name": "C#4",
                    "midi": 61,
                    "time": 7.678318000000001,
                    "velocity": 0.2047244094488189,
                    "duration": 0.4041219999999992
                },
                {
                    "name": "E4",
                    "midi": 64,
                    "time": 8.08244,
                    "velocity": 0.18110236220472442,
                    "duration": 0.4041219999999992
                },
                {
                    "name": "G#3",
                    "midi": 56,
                    "time": 8.486562,
                    "velocity": 0.25196850393700787,
                    "duration": 0.4041219999999992
                },
                {
                    "name": "C#4",
                    "midi": 61,
                    "time": 8.890683999999998,
                    "velocity": 0.2047244094488189,
                    "duration": 0.4041219999999992
                },
                {
                    "name": "E4",
                    "midi": 64,
                    "time": 9.294805999999998,
                    "velocity": 0.18110236220472442,
                    "duration": 0.4041219999999992
                },
                {
                    "name": "A3",
                    "midi": 57,
                    "time": 9.698927999999997,
                    "velocity": 0.3543307086614173,
                    "duration": 0.4041219999999992
                },
                {
                    "name": "C#4",
                    "midi": 61,
                    "time": 10.103049999999996,
                    "velocity": 0.2992125984251969,
                    "duration": 0.4041219999999992
                },
                {
                    "name": "E4",
                    "midi": 64,
                    "time": 10.507171999999995,
                    "velocity": 0.2992125984251969,
                    "duration": 0.4041219999999992
                },
                {
                    "name": "A3",
                    "midi": 57,
                    "time": 10.911293999999994,
                    "velocity": 0.2755905511811024,
                    "duration": 0.4041219999999992
                },
                {
                    "name": "C#4",
                    "midi": 61,
                    "time": 11.315415999999994,
                    "velocity": 0.25196850393700787,
                    "duration": 0.4041219999999992
                },
                {
                    "name": "E4",
                    "midi": 64,
                    "time": 11.719537999999993,
                    "velocity": 0.25196850393700787,
                    "duration": 0.4041219999999992
                },
                {
                    "name": "A3",
                    "midi": 57,
                    "time": 12.123659999999992,
                    "velocity": 0.3228346456692913,
                    "duration": 0.4041219999999992
                },
                {
                    "name": "D4",
                    "midi": 62,
                    "time": 12.527781999999991,
                    "velocity": 0.25984251968503935,
                    "duration": 0.4041219999999992
                },
                {
                    "name": "F#4",
                    "midi": 66,
                    "time": 12.93190399999999,
                    "velocity": 0.2204724409448819,
                    "duration": 0.4041219999999992
                },
                {
                    "name": "A3",
                    "midi": 57,
                    "time": 13.33602599999999,
                    "velocity": 0.2992125984251969,
                    "duration": 0.4041219999999992
                },
                {
                    "name": "D4",
                    "midi": 62,
                    "time": 13.740147999999989,
                    "velocity": 0.25984251968503935,
                    "duration": 0.4041219999999992
                },
                {
                    "name": "F#4",
                    "midi": 66,
                    "time": 14.144269999999988,
                    "velocity": 0.23622047244094488,
                    "duration": 0.4041219999999992
                },
                {
                    "name": "G#3",
                    "midi": 56,
                    "time": 14.548391999999987,
                    "velocity": 0.2992125984251969,
                    "duration": 0.4041219999999992
                },
                {
                    "name": "C4",
                    "midi": 60,
                    "time": 14.952513999999987,
                    "velocity": 0.2440944881889764,
                    "duration": 0.4041219999999992
                },
                {
                    "name": "F#4",
                    "midi": 66,
                    "time": 15.356635999999986,
                    "velocity": 0.2440944881889764,
                    "duration": 0.4041219999999992
                },
                {
                    "name": "G#3",
                    "midi": 56,
                    "time": 15.760757999999985,
                    "velocity": 0.2755905511811024,
                    "duration": 0.404122000000001
                },
                {
                    "name": "C#4",
                    "midi": 61,
                    "time": 16.164879999999986,
                    "velocity": 0.23622047244094488,
                    "duration": 0.404122000000001
                },
                {
                    "name": "E4",
                    "midi": 64,
                    "time": 16.569001999999987,
                    "velocity": 0.23622047244094488,
                    "duration": 0.404122000000001
                },
                {
                    "name": "G#3",
                    "midi": 56,
                    "time": 16.973123999999988,
                    "velocity": 0.2755905511811024,
                    "duration": 0.404122000000001
                },
                {
                    "name": "C#4",
                    "midi": 61,
                    "time": 17.37724599999999,
                    "velocity": 0.2125984251968504,
                    "duration": 0.404122000000001
                },
                {
                    "name": "D#4",
                    "midi": 63,
                    "time": 17.78136799999999,
                    "velocity": 0.1968503937007874,
                    "duration": 0.404122000000001
                },
                {
                    "name": "F#3",
                    "midi": 54,
                    "time": 18.18548999999999,
                    "velocity": 0.2755905511811024,
                    "duration": 0.404122000000001
                },
                {
                    "name": "C4",
                    "midi": 60,
                    "time": 18.589611999999992,
                    "velocity": 0.23622047244094488,
                    "duration": 0.404122000000001
                },
                {
                    "name": "D#4",
                    "midi": 63,
                    "time": 18.993733999999993,
                    "velocity": 0.23622047244094488,
                    "duration": 0.404122000000001
                },
                {
                    "name": "E3",
                    "midi": 52,
                    "time": 19.397855999999994,
                    "velocity": 0.25196850393700787,
                    "duration": 0.404122000000001
                },
                {
                    "name": "G#3",
                    "midi": 56,
                    "time": 19.801977999999995,
                    "velocity": 0.2047244094488189,
                    "duration": 0.404122000000001
                },
                {
                    "name": "C#4",
                    "midi": 61,
                    "time": 20.206099999999996,
                    "velocity": 0.2047244094488189,
                    "duration": 0.404122000000001
                },
                {
                    "name": "G#3",
                    "midi": 56,
                    "time": 20.610221999999997,
                    "velocity": 0.25196850393700787,
                    "duration": 0.404122000000001
                },
                {
                    "name": "C#4",
                    "midi": 61,
                    "time": 21.014343999999998,
                    "velocity": 0.2047244094488189,
                    "duration": 0.404122000000001
                },
                {
                    "name": "E4",
                    "midi": 64,
                    "time": 21.418466,
                    "velocity": 0.2047244094488189,
                    "duration": 0.404122000000001
                },
                {
                    "name": "G#3",
                    "midi": 56,
                    "time": 21.822588,
                    "velocity": 0.2440944881889764,
                    "duration": 0.404122000000001
                },
                {
                    "name": "C#4",
                    "midi": 61,
                    "time": 22.22671,
                    "velocity": 0.1968503937007874,
                    "duration": 0.404122000000001
                },
                {
                    "name": "E4",
                    "midi": 64,
                    "time": 22.630832,
                    "velocity": 0.1968503937007874,
                    "duration": 0.404122000000001
                },
                {
                    "name": "G#3",
                    "midi": 56,
                    "time": 23.034954000000003,
                    "velocity": 0.2440944881889764,
                    "duration": 0.404122000000001
                },
                {
                    "name": "C#4",
                    "midi": 61,
                    "time": 23.439076000000004,
                    "velocity": 0.1968503937007874,
                    "duration": 0.404122000000001
                },
                {
                    "name": "E4",
                    "midi": 64,
                    "time": 23.843198000000005,
                    "velocity": 0.1732283464566929,
                    "duration": 0.404122000000001
                },
                {
                    "name": "G#3",
                    "midi": 56,
                    "time": 24.247320000000006,
                    "velocity": 0.2440944881889764,
                    "duration": 0.404122000000001
                },
                {
                    "name": "D#4",
                    "midi": 63,
                    "time": 24.651442000000007,
                    "velocity": 0.2047244094488189,
                    "duration": 0.404122000000001
                },
                {
                    "name": "F#4",
                    "midi": 66,
                    "time": 25.055564000000007,
                    "velocity": 0.18110236220472442,
                    "duration": 0.404122000000001
                },
                {
                    "name": "G#3",
                    "midi": 56,
                    "time": 25.45968600000001,
                    "velocity": 0.2440944881889764,
                    "duration": 0.404122000000001
                },
                {
                    "name": "D#4",
                    "midi": 63,
                    "time": 25.86380800000001,
                    "velocity": 0.2047244094488189,
                    "duration": 0.404122000000001
                },
                {
                    "name": "F#4",
                    "midi": 66,
                    "time": 26.26793000000001,
                    "velocity": 0.1968503937007874,
                    "duration": 0.404122000000001
                },
                {
                    "name": "G#3",
                    "midi": 56,
                    "time": 26.67205200000001,
                    "velocity": 0.2440944881889764,
                    "duration": 0.404122000000001
                },
                {
                    "name": "D#4",
                    "midi": 63,
                    "time": 27.076174000000012,
                    "velocity": 0.2047244094488189,
                    "duration": 0.404122000000001
                },
                {
                    "name": "F#4",
                    "midi": 66,
                    "time": 27.480296000000013,
                    "velocity": 0.1968503937007874,
                    "duration": 0.404122000000001
                },
                {
                    "name": "G#3",
                    "midi": 56,
                    "time": 27.884418000000014,
                    "velocity": 0.2440944881889764,
                    "duration": 0.404122000000001
                },
                {
                    "name": "D#4",
                    "midi": 63,
                    "time": 28.288540000000015,
                    "velocity": 0.1968503937007874,
                    "duration": 0.404122000000001
                },
                {
                    "name": "F#4",
                    "midi": 66,
                    "time": 28.692662000000016,
                    "velocity": 0.18110236220472442,
                    "duration": 0.404122000000001
                },
                {
                    "name": "G#3",
                    "midi": 56,
                    "time": 29.096784000000017,
                    "velocity": 0.2440944881889764,
                    "duration": 0.404122000000001
                },
                {
                    "name": "C#4",
                    "midi": 61,
                    "time": 29.50090600000002,
                    "velocity": 0.2047244094488189,
                    "duration": 0.404122000000001
                },
                {
                    "name": "E4",
                    "midi": 64,
                    "time": 29.90502800000002,
                    "velocity": 0.1968503937007874,
                    "duration": 0.404122000000001
                },
                {
                    "name": "G#3",
                    "midi": 56,
                    "time": 30.30915000000002,
                    "velocity": 0.2440944881889764,
                    "duration": 0.404122000000001
                },
                {
                    "name": "C#4",
                    "midi": 61,
                    "time": 30.71327200000002,
                    "velocity": 0.2047244094488189,
                    "duration": 0.404122000000001
                },
                {
                    "name": "E4",
                    "midi": 64,
                    "time": 31.117394000000022,
                    "velocity": 0.18110236220472442,
                    "duration": 0.404122000000001
                },
                {
                    "name": "A3",
                    "midi": 57,
                    "time": 31.521516000000023,
                    "velocity": 0.2440944881889764,
                    "duration": 0.404122000000001
                },
                {
                    "name": "C#4",
                    "midi": 61,
                    "time": 31.925638000000024,
                    "velocity": 0.1968503937007874,
                    "duration": 0.4041219999999974
                },
                {
                    "name": "F#4",
                    "midi": 66,
                    "time": 32.32976000000002,
                    "velocity": 0.1968503937007874,
                    "duration": 0.404122000000001
                },
                {
                    "name": "A3",
                    "midi": 57,
                    "time": 32.73388200000002,
                    "velocity": 0.2125984251968504,
                    "duration": 0.404122000000001
                },
                {
                    "name": "C#4",
                    "midi": 61,
                    "time": 33.13800400000002,
                    "velocity": 0.1968503937007874,
                    "duration": 0.404122000000001
                },
                {
                    "name": "F#4",
                    "midi": 66,
                    "time": 33.542126000000025,
                    "velocity": 0.1968503937007874,
                    "duration": 0.404122000000001
                },
                {
                    "name": "G#3",
                    "midi": 56,
                    "time": 33.946248000000026,
                    "velocity": 0.25984251968503935,
                    "duration": 0.404122000000001
                },
                {
                    "name": "B3",
                    "midi": 59,
                    "time": 34.35037000000003,
                    "velocity": 0.18110236220472442,
                    "duration": 0.404122000000001
                },
                {
                    "name": "E4",
                    "midi": 64,
                    "time": 34.75449200000003,
                    "velocity": 0.18110236220472442,
                    "duration": 0.404122000000001
                },
                {
                    "name": "G#3",
                    "midi": 56,
                    "time": 35.15861400000003,
                    "velocity": 0.25984251968503935,
                    "duration": 0.404122000000001
                },
                {
                    "name": "B3",
                    "midi": 59,
                    "time": 35.56273600000003,
                    "velocity": 0.2047244094488189,
                    "duration": 0.404122000000001
                },
                {
                    "name": "E4",
                    "midi": 64,
                    "time": 35.96685800000003,
                    "velocity": 0.2047244094488189,
                    "duration": 0.404122000000001
                },
                {
                    "name": "A3",
                    "midi": 57,
                    "time": 36.37098000000003,
                    "velocity": 0.25984251968503935,
                    "duration": 0.404122000000001
                },
                {
                    "name": "B3",
                    "midi": 59,
                    "time": 36.77510200000003,
                    "velocity": 0.2125984251968504,
                    "duration": 0.404122000000001
                },
                {
                    "name": "D#4",
                    "midi": 63,
                    "time": 37.17922400000003,
                    "velocity": 0.1968503937007874,
                    "duration": 0.404122000000001
                },
                {
                    "name": "A3",
                    "midi": 57,
                    "time": 37.583346000000034,
                    "velocity": 0.23622047244094488,
                    "duration": 0.404122000000001
                },
                {
                    "name": "B3",
                    "midi": 59,
                    "time": 37.987468000000035,
                    "velocity": 0.2047244094488189,
                    "duration": 0.404122000000001
                },
                {
                    "name": "D#4",
                    "midi": 63,
                    "time": 38.391590000000036,
                    "velocity": 0.2125984251968504,
                    "duration": 0.404122000000001
                },
                {
                    "name": "G#3",
                    "midi": 56,
                    "time": 38.79571200000004,
                    "velocity": 0.25984251968503935,
                    "duration": 0.404122000000001
                },
                {
                    "name": "B3",
                    "midi": 59,
                    "time": 39.19983400000004,
                    "velocity": 0.2047244094488189,
                    "duration": 0.404122000000001
                },
                {
                    "name": "E4",
                    "midi": 64,
                    "time": 39.60395600000004,
                    "velocity": 0.2047244094488189,
                    "duration": 0.404122000000001
                },
                {
                    "name": "G#3",
                    "midi": 56,
                    "time": 40.00807800000004,
                    "velocity": 0.2125984251968504,
                    "duration": 0.404122000000001
                },
                {
                    "name": "B3",
                    "midi": 59,
                    "time": 40.41220000000004,
                    "velocity": 0.2047244094488189,
                    "duration": 0.404122000000001
                },
                {
                    "name": "E4",
                    "midi": 64,
                    "time": 40.81632200000004,
                    "velocity": 0.2047244094488189,
                    "duration": 0.404122000000001
                },
                {
                    "name": "G#3",
                    "midi": 56,
                    "time": 41.22044400000004,
                    "velocity": 0.2125984251968504,
                    "duration": 0.404122000000001
                },
                {
                    "name": "B3",
                    "midi": 59,
                    "time": 41.624566000000044,
                    "velocity": 0.2047244094488189,
                    "duration": 0.404122000000001
                },
                {
                    "name": "E4",
                    "midi": 64,
                    "time": 42.028688000000045,
                    "velocity": 0.18110236220472442,
                    "duration": 0.404122000000001
                },
                {
                    "name": "G#3",
                    "midi": 56,
                    "time": 42.432810000000046,
                    "velocity": 0.2125984251968504,
                    "duration": 0.404122000000001
                },
                {
                    "name": "B3",
                    "midi": 59,
                    "time": 42.83693200000005,
                    "velocity": 0.2047244094488189,
                    "duration": 0.404122000000001
                },
                {
                    "name": "E4",
                    "midi": 64,
                    "time": 43.24105400000005,
                    "velocity": 0.18110236220472442,
                    "duration": 0.404122000000001
                },
                {
                    "name": "G3",
                    "midi": 55,
                    "time": 43.64517600000005,
                    "velocity": 0.25196850393700787,
                    "duration": 0.404122000000001
                },
                {
                    "name": "B3",
                    "midi": 59,
                    "time": 44.04929800000005,
                    "velocity": 0.1968503937007874,
                    "duration": 0.404122000000001
                },
                {
                    "name": "E4",
                    "midi": 64,
                    "time": 44.45342000000005,
                    "velocity": 0.18110236220472442,
                    "duration": 0.404122000000001
                },
                {
                    "name": "G3",
                    "midi": 55,
                    "time": 44.85754200000005,
                    "velocity": 0.2125984251968504,
                    "duration": 0.404122000000001
                },
                {
                    "name": "B3",
                    "midi": 59,
                    "time": 45.26166400000005,
                    "velocity": 0.2047244094488189,
                    "duration": 0.404122000000001
                },
                {
                    "name": "E4",
                    "midi": 64,
                    "time": 45.665786000000054,
                    "velocity": 0.18110236220472442,
                    "duration": 0.404122000000001
                },
                {
                    "name": "G3",
                    "midi": 55,
                    "time": 46.069908000000055,
                    "velocity": 0.2125984251968504,
                    "duration": 0.404122000000001
                },
                {
                    "name": "B3",
                    "midi": 59,
                    "time": 46.474030000000056,
                    "velocity": 0.2047244094488189,
                    "duration": 0.404122000000001
                },
                {
                    "name": "E4",
                    "midi": 64,
                    "time": 46.87815200000006,
                    "velocity": 0.1732283464566929,
                    "duration": 0.404122000000001
                },
                {
                    "name": "G3",
                    "midi": 55,
                    "time": 47.28227400000006,
                    "velocity": 0.2047244094488189,
                    "duration": 0.404122000000001
                },
                {
                    "name": "B3",
                    "midi": 59,
                    "time": 47.68639600000006,
                    "velocity": 0.1968503937007874,
                    "duration": 0.404122000000001
                },
                {
                    "name": "E4",
                    "midi": 64,
                    "time": 48.09051800000006,
                    "velocity": 0.16535433070866143,
                    "duration": 0.404122000000001
                },
                {
                    "name": "G3",
                    "midi": 55,
                    "time": 48.49464000000006,
                    "velocity": 0.25196850393700787,
                    "duration": 0.404122000000001
                },
                {
                    "name": "B3",
                    "midi": 59,
                    "time": 48.89876200000006,
                    "velocity": 0.2047244094488189,
                    "duration": 0.404122000000001
                },
                {
                    "name": "F4",
                    "midi": 65,
                    "time": 49.30288400000006,
                    "velocity": 0.2047244094488189,
                    "duration": 0.404122000000001
                },
                {
                    "name": "G3",
                    "midi": 55,
                    "time": 49.707006000000064,
                    "velocity": 0.25196850393700787,
                    "duration": 0.404122000000001
                },
                {
                    "name": "B3",
                    "midi": 59,
                    "time": 50.111128000000065,
                    "velocity": 0.2125984251968504,
                    "duration": 0.404122000000001
                },
                {
                    "name": "F4",
                    "midi": 65,
                    "time": 50.515250000000066,
                    "velocity": 0.1968503937007874,
                    "duration": 0.404122000000001
                },
                {
                    "name": "G3",
                    "midi": 55,
                    "time": 50.91937200000007,
                    "velocity": 0.2440944881889764,
                    "duration": 0.404122000000001
                },
                {
                    "name": "B3",
                    "midi": 59,
                    "time": 51.32349400000007,
                    "velocity": 0.2125984251968504,
                    "duration": 0.404122000000001
                },
                {
                    "name": "F4",
                    "midi": 65,
                    "time": 51.72761600000007,
                    "velocity": 0.1968503937007874,
                    "duration": 0.404122000000001
                },
                {
                    "name": "G3",
                    "midi": 55,
                    "time": 52.13173800000007,
                    "velocity": 0.23622047244094488,
                    "duration": 0.404122000000001
                },
                {
                    "name": "B3",
                    "midi": 59,
                    "time": 52.53586000000007,
                    "velocity": 0.1968503937007874,
                    "duration": 0.404122000000001
                },
                {
                    "name": "F4",
                    "midi": 65,
                    "time": 52.93998200000007,
                    "velocity": 0.1732283464566929,
                    "duration": 0.404122000000001
                },
                {
                    "name": "G3",
                    "midi": 55,
                    "time": 53.34410400000007,
                    "velocity": 0.25984251968503935,
                    "duration": 0.404122000000001
                },
                {
                    "name": "C4",
                    "midi": 60,
                    "time": 53.748226000000074,
                    "velocity": 0.2125984251968504,
                    "duration": 0.404122000000001
                },
                {
                    "name": "E4",
                    "midi": 64,
                    "time": 54.152348000000075,
                    "velocity": 0.2125984251968504,
                    "duration": 0.404122000000001
                },
                {
                    "name": "G3",
                    "midi": 55,
                    "time": 54.556470000000076,
                    "velocity": 0.31496062992125984,
                    "duration": 0.404122000000001
                },
                {
                    "name": "B3",
                    "midi": 59,
                    "time": 54.96059200000008,
                    "velocity": 0.25984251968503935,
                    "duration": 0.404122000000001
                },
                {
                    "name": "E4",
                    "midi": 64,
                    "time": 55.36471400000008,
                    "velocity": 0.25984251968503935,
                    "duration": 0.404122000000001
                },
                {
                    "name": "G3",
                    "midi": 55,
                    "time": 55.76883600000008,
                    "velocity": 0.2992125984251969,
                    "duration": 0.404122000000001
                },
                {
                    "name": "C#4",
                    "midi": 61,
                    "time": 56.17295800000008,
                    "velocity": 0.33070866141732286,
                    "duration": 0.404122000000001
                },
                {
                    "name": "E4",
                    "midi": 64,
                    "time": 56.57708000000008,
                    "velocity": 0.3700787401574803,
                    "duration": 0.404122000000001
                },
                {
                    "name": "F#3",
                    "midi": 54,
                    "time": 56.98120200000008,
                    "velocity": 0.3228346456692913,
                    "duration": 0.404122000000001
                },
                {
                    "name": "C#4",
                    "midi": 61,
                    "time": 57.38532400000008,
                    "velocity": 0.2755905511811024,
                    "duration": 0.404122000000001
                },
                {
                    "name": "E4",
                    "midi": 64,
                    "time": 57.78944600000008,
                    "velocity": 0.2125984251968504,
                    "duration": 0.404122000000001
                },
                {
                    "name": "F#3",
                    "midi": 54,
                    "time": 58.193568000000084,
                    "velocity": 0.2992125984251969,
                    "duration": 0.404122000000001
                },
                {
                    "name": "B3",
                    "midi": 59,
                    "time": 58.597690000000085,
                    "velocity": 0.25196850393700787,
                    "duration": 0.404122000000001
                },
                {
                    "name": "D4",
                    "midi": 62,
                    "time": 59.001812000000086,
                    "velocity": 0.2125984251968504,
                    "duration": 0.404122000000001
                },
                {
                    "name": "F#3",
                    "midi": 54,
                    "time": 59.40593400000009,
                    "velocity": 0.25984251968503935,
                    "duration": 0.404122000000001
                },
                {
                    "name": "B3",
                    "midi": 59,
                    "time": 59.81005600000009,
                    "velocity": 0.2125984251968504,
                    "duration": 0.404122000000001
                },
                {
                    "name": "D4",
                    "midi": 62,
                    "time": 60.21417800000009,
                    "velocity": 0.2125984251968504,
                    "duration": 0.404122000000001
                },
                {
                    "name": "G3",
                    "midi": 55,
                    "time": 60.61830000000009,
                    "velocity": 0.2755905511811024,
                    "duration": 0.404122000000001
                },
                {
                    "name": "B3",
                    "midi": 59,
                    "time": 61.02242200000009,
                    "velocity": 0.2125984251968504,
                    "duration": 0.404122000000001
                },
                {
                    "name": "C#4",
                    "midi": 61,
                    "time": 61.42654400000009,
                    "velocity": 0.2125984251968504,
                    "duration": 0.404122000000001
                },
                {
                    "name": "E3",
                    "midi": 52,
                    "time": 61.83066600000009,
                    "velocity": 0.2755905511811024,
                    "duration": 0.404122000000001
                },
                {
                    "name": "B3",
                    "midi": 59,
                    "time": 62.234788000000094,
                    "velocity": 0.2125984251968504,
                    "duration": 0.404122000000001
                },
                {
                    "name": "C#4",
                    "midi": 61,
                    "time": 62.638910000000095,
                    "velocity": 0.18110236220472442,
                    "duration": 0.404122000000001
                },
                {
                    "name": "F#3",
                    "midi": 54,
                    "time": 63.043032000000096,
                    "velocity": 0.3228346456692913,
                    "duration": 0.404122000000001
                },
                {
                    "name": "B3",
                    "midi": 59,
                    "time": 63.4471540000001,
                    "velocity": 0.2755905511811024,
                    "duration": 0.404122000000001
                },
                {
                    "name": "D4",
                    "midi": 62,
                    "time": 63.8512760000001,
                    "velocity": 0.25196850393700787,
                    "duration": 0.404122000000001
                },
                {
                    "name": "F#3",
                    "midi": 54,
                    "time": 64.2553980000001,
                    "velocity": 0.2992125984251969,
                    "duration": 0.404122000000001
                },
                {
                    "name": "B3",
                    "midi": 59,
                    "time": 64.6595200000001,
                    "velocity": 0.2440944881889764,
                    "duration": 0.404122000000001
                },
                {
                    "name": "D4",
                    "midi": 62,
                    "time": 65.0636420000001,
                    "velocity": 0.2204724409448819,
                    "duration": 0.404122000000001
                },
                {
                    "name": "F#3",
                    "midi": 54,
                    "time": 65.4677640000001,
                    "velocity": 0.2440944881889764,
                    "duration": 0.404122000000001
                },
                {
                    "name": "A#3",
                    "midi": 58,
                    "time": 65.8718860000001,
                    "velocity": 0.2047244094488189,
                    "duration": 0.404122000000001
                },
                {
                    "name": "C#4",
                    "midi": 61,
                    "time": 66.2760080000001,
                    "velocity": 0.18110236220472442,
                    "duration": 0.404122000000001
                },
                {
                    "name": "F#3",
                    "midi": 54,
                    "time": 66.6801300000001,
                    "velocity": 0.2440944881889764,
                    "duration": 0.404122000000001
                },
                {
                    "name": "A#3",
                    "midi": 58,
                    "time": 67.0842520000001,
                    "velocity": 0.2047244094488189,
                    "duration": 0.404122000000001
                },
                {
                    "name": "C#4",
                    "midi": 61,
                    "time": 67.4883740000001,
                    "velocity": 0.18110236220472442,
                    "duration": 0.404122000000001
                },
                {
                    "name": "B3",
                    "midi": 59,
                    "time": 67.89249600000011,
                    "velocity": 0.25196850393700787,
                    "duration": 0.404122000000001
                },
                {
                    "name": "D4",
                    "midi": 62,
                    "time": 68.29661800000011,
                    "velocity": 0.2125984251968504,
                    "duration": 0.404122000000001
                },
                {
                    "name": "F#4",
                    "midi": 66,
                    "time": 68.70074000000011,
                    "velocity": 0.1968503937007874,
                    "duration": 0.404122000000001
                },
                {
                    "name": "B3",
                    "midi": 59,
                    "time": 69.10486200000011,
                    "velocity": 0.2125984251968504,
                    "duration": 0.404122000000001
                },
                {
                    "name": "D4",
                    "midi": 62,
                    "time": 69.50898400000011,
                    "velocity": 0.2047244094488189,
                    "duration": 0.404122000000001
                },
                {
                    "name": "F#4",
                    "midi": 66,
                    "time": 69.91310600000011,
                    "velocity": 0.2047244094488189,
                    "duration": 0.404122000000001
                },
                {
                    "name": "B3",
                    "midi": 59,
                    "time": 70.31722800000011,
                    "velocity": 0.3228346456692913,
                    "duration": 0.404122000000001
                },
                {
                    "name": "D#4",
                    "midi": 63,
                    "time": 70.72135000000011,
                    "velocity": 0.2992125984251969,
                    "duration": 0.404122000000001
                },
                {
                    "name": "F#4",
                    "midi": 66,
                    "time": 71.12547200000012,
                    "velocity": 0.2992125984251969,
                    "duration": 0.404122000000001
                },
                {
                    "name": "B3",
                    "midi": 59,
                    "time": 71.52959400000012,
                    "velocity": 0.3228346456692913,
                    "duration": 0.404122000000001
                },
                {
                    "name": "D#4",
                    "midi": 63,
                    "time": 71.93371600000012,
                    "velocity": 0.2992125984251969,
                    "duration": 0.404122000000001
                },
                {
                    "name": "F#4",
                    "midi": 66,
                    "time": 72.33783800000012,
                    "velocity": 0.2755905511811024,
                    "duration": 0.404122000000001
                },
                {
                    "name": "B3",
                    "midi": 59,
                    "time": 72.74196000000012,
                    "velocity": 0.3228346456692913,
                    "duration": 0.404122000000001
                },
                {
                    "name": "E4",
                    "midi": 64,
                    "time": 73.14608200000012,
                    "velocity": 0.3228346456692913,
                    "duration": 0.404122000000001
                },
                {
                    "name": "G4",
                    "midi": 67,
                    "time": 73.55020400000012,
                    "velocity": 0.3543307086614173,
                    "duration": 0.404122000000001
                },
                {
                    "name": "B3",
                    "midi": 59,
                    "time": 73.95432600000012,
                    "velocity": 0.3700787401574803,
                    "duration": 0.404122000000001
                },
                {
                    "name": "E4",
                    "midi": 64,
                    "time": 74.35844800000012,
                    "velocity": 0.41732283464566927,
                    "duration": 0.404122000000001
                },
                {
                    "name": "G4",
                    "midi": 67,
                    "time": 74.76257000000012,
                    "velocity": 0.4409448818897638,
                    "duration": 0.404122000000001
                },
                {
                    "name": "B3",
                    "midi": 59,
                    "time": 75.16669200000013,
                    "velocity": 0.48031496062992124,
                    "duration": 0.404122000000001
                },
                {
                    "name": "E4",
                    "midi": 64,
                    "time": 75.57081400000013,
                    "velocity": 0.47244094488188976,
                    "duration": 0.404122000000001
                },
                {
                    "name": "G4",
                    "midi": 67,
                    "time": 75.97493600000013,
                    "velocity": 0.4409448818897638,
                    "duration": 0.404122000000001
                },
                {
                    "name": "B3",
                    "midi": 59,
                    "time": 76.37905800000013,
                    "velocity": 0.4094488188976378,
                    "duration": 0.404122000000001
                },
                {
                    "name": "E4",
                    "midi": 64,
                    "time": 76.78318000000013,
                    "velocity": 0.36220472440944884,
                    "duration": 0.404122000000001
                },
                {
                    "name": "G4",
                    "midi": 67,
                    "time": 77.18730200000013,
                    "velocity": 0.2440944881889764,
                    "duration": 0.404122000000001
                },
                {
                    "name": "B3",
                    "midi": 59,
                    "time": 77.59142400000013,
                    "velocity": 0.29133858267716534,
                    "duration": 0.404122000000001
                },
                {
                    "name": "D#4",
                    "midi": 63,
                    "time": 77.99554600000013,
                    "velocity": 0.2755905511811024,
                    "duration": 0.404122000000001
                },
                {
                    "name": "F#4",
                    "midi": 66,
                    "time": 78.39966800000013,
                    "velocity": 0.2755905511811024,
                    "duration": 0.404122000000001
                },
                {
                    "name": "B3",
                    "midi": 59,
                    "time": 78.80379000000013,
                    "velocity": 0.31496062992125984,
                    "duration": 0.404122000000001
                },
                {
                    "name": "D#4",
                    "midi": 63,
                    "time": 79.20791200000014,
                    "velocity": 0.2755905511811024,
                    "duration": 0.404122000000001
                },
                {
                    "name": "F#4",
                    "midi": 66,
                    "time": 79.61203400000014,
                    "velocity": 0.2755905511811024,
                    "duration": 0.404122000000001
                },
                {
                    "name": "B3",
                    "midi": 59,
                    "time": 80.01615600000014,
                    "velocity": 0.3228346456692913,
                    "duration": 0.404122000000001
                },
                {
                    "name": "D#4",
                    "midi": 63,
                    "time": 80.42027800000014,
                    "velocity": 0.29133858267716534,
                    "duration": 0.404122000000001
                },
                {
                    "name": "F#4",
                    "midi": 66,
                    "time": 80.82440000000014,
                    "velocity": 0.25984251968503935,
                    "duration": 0.404122000000001
                },
                {
                    "name": "B3",
                    "midi": 59,
                    "time": 81.22852200000014,
                    "velocity": 0.3228346456692913,
                    "duration": 0.404122000000001
                },
                {
                    "name": "D#4",
                    "midi": 63,
                    "time": 81.63264400000014,
                    "velocity": 0.29133858267716534,
                    "duration": 0.404122000000001
                },
                {
                    "name": "F#4",
                    "midi": 66,
                    "time": 82.03676600000014,
                    "velocity": 0.29133858267716534,
                    "duration": 0.404122000000001
                },
                {
                    "name": "B3",
                    "midi": 59,
                    "time": 82.44088800000014,
                    "velocity": 0.3228346456692913,
                    "duration": 0.404122000000001
                },
                {
                    "name": "E4",
                    "midi": 64,
                    "time": 82.84501000000014,
                    "velocity": 0.3543307086614173,
                    "duration": 0.404122000000001
                },
                {
                    "name": "G4",
                    "midi": 67,
                    "time": 83.24913200000015,
                    "velocity": 0.4094488188976378,
                    "duration": 0.404122000000001
                },
                {
                    "name": "B3",
                    "midi": 59,
                    "time": 83.65325400000015,
                    "velocity": 0.4330708661417323,
                    "duration": 0.404122000000001
                },
                {
                    "name": "E4",
                    "midi": 64,
                    "time": 84.05737600000015,
                    "velocity": 0.4409448818897638,
                    "duration": 0.404122000000001
                },
                {
                    "name": "G4",
                    "midi": 67,
                    "time": 84.46149800000015,
                    "velocity": 0.44881889763779526,
                    "duration": 0.404122000000001
                },
                {
                    "name": "B3",
                    "midi": 59,
                    "time": 84.86562000000015,
                    "velocity": 0.47244094488188976,
                    "duration": 0.404122000000001
                },
                {
                    "name": "E4",
                    "midi": 64,
                    "time": 85.26974200000015,
                    "velocity": 0.47244094488188976,
                    "duration": 0.404122000000001
                },
                {
                    "name": "G4",
                    "midi": 67,
                    "time": 85.67386400000015,
                    "velocity": 0.4409448818897638,
                    "duration": 0.404122000000001
                },
                {
                    "name": "B3",
                    "midi": 59,
                    "time": 86.07798600000015,
                    "velocity": 0.4094488188976378,
                    "duration": 0.404122000000001
                },
                {
                    "name": "E4",
                    "midi": 64,
                    "time": 86.48210800000015,
                    "velocity": 0.3228346456692913,
                    "duration": 0.404122000000001
                },
                {
                    "name": "G4",
                    "midi": 67,
                    "time": 86.88623000000015,
                    "velocity": 0.2755905511811024,
                    "duration": 0.404122000000001
                },
                {
                    "name": "B3",
                    "midi": 59,
                    "time": 87.29035200000015,
                    "velocity": 0.3228346456692913,
                    "duration": 0.404122000000001
                },
                {
                    "name": "D#4",
                    "midi": 63,
                    "time": 87.69447400000016,
                    "velocity": 0.2755905511811024,
                    "duration": 0.404122000000001
                },
                {
                    "name": "F#4",
                    "midi": 66,
                    "time": 88.09859600000016,
                    "velocity": 0.25984251968503935,
                    "duration": 0.404122000000001
                },
                {
                    "name": "B3",
                    "midi": 59,
                    "time": 88.50271800000016,
                    "velocity": 0.2755905511811024,
                    "duration": 0.404122000000001
                },
                {
                    "name": "D#4",
                    "midi": 63,
                    "time": 88.90684000000016,
                    "velocity": 0.23622047244094488,
                    "duration": 0.404122000000001
                },
                {
                    "name": "F#4",
                    "midi": 66,
                    "time": 89.31096200000016,
                    "velocity": 0.23622047244094488,
                    "duration": 0.404122000000001
                },
                {
                    "name": "B3",
                    "midi": 59,
                    "time": 89.71508400000016,
                    "velocity": 0.2755905511811024,
                    "duration": 0.404122000000001
                },
                {
                    "name": "D4",
                    "midi": 62,
                    "time": 90.11920600000016,
                    "velocity": 0.2125984251968504,
                    "duration": 0.404122000000001
                },
                {
                    "name": "F4",
                    "midi": 65,
                    "time": 90.52332800000016,
                    "velocity": 0.2125984251968504,
                    "duration": 0.404122000000001
                },
                {
                    "name": "B3",
                    "midi": 59,
                    "time": 90.92745000000016,
                    "velocity": 0.23622047244094488,
                    "duration": 0.404122000000001
                },
                {
                    "name": "D4",
                    "midi": 62,
                    "time": 91.33157200000016,
                    "velocity": 0.1968503937007874,
                    "duration": 0.404122000000001
                },
                {
                    "name": "F4",
                    "midi": 65,
                    "time": 91.73569400000017,
                    "velocity": 0.1968503937007874,
                    "duration": 0.404122000000001
                },
                {
                    "name": "B3",
                    "midi": 59,
                    "time": 92.13981600000017,
                    "velocity": 0.23622047244094488,
                    "duration": 0.404122000000001
                },
                {
                    "name": "C#4",
                    "midi": 61,
                    "time": 92.54393800000017,
                    "velocity": 0.2125984251968504,
                    "duration": 0.404122000000001
                },
                {
                    "name": "G#4",
                    "midi": 68,
                    "time": 92.94806000000017,
                    "velocity": 0.1968503937007874,
                    "duration": 0.404122000000001
                },
                {
                    "name": "B3",
                    "midi": 59,
                    "time": 93.35218200000017,
                    "velocity": 0.23622047244094488,
                    "duration": 0.404122000000001
                },
                {
                    "name": "C#4",
                    "midi": 61,
                    "time": 93.75630400000017,
                    "velocity": 0.2047244094488189,
                    "duration": 0.404122000000001
                },
                {
                    "name": "G#4",
                    "midi": 68,
                    "time": 94.16042600000017,
                    "velocity": 0.2047244094488189,
                    "duration": 0.404122000000001
                },
                {
                    "name": "A3",
                    "midi": 57,
                    "time": 94.56454800000017,
                    "velocity": 0.23622047244094488,
                    "duration": 0.404122000000001
                },
                {
                    "name": "C#4",
                    "midi": 61,
                    "time": 94.96867000000017,
                    "velocity": 0.2047244094488189,
                    "duration": 0.404122000000001
                },
                {
                    "name": "F#4",
                    "midi": 66,
                    "time": 95.37279200000017,
                    "velocity": 0.2047244094488189,
                    "duration": 0.404122000000001
                },
                {
                    "name": "A3",
                    "midi": 57,
                    "time": 95.77691400000018,
                    "velocity": 0.2755905511811024,
                    "duration": 0.404122000000001
                },
                {
                    "name": "C#4",
                    "midi": 61,
                    "time": 96.18103600000018,
                    "velocity": 0.2440944881889764,
                    "duration": 0.404122000000001
                },
                {
                    "name": "F#4",
                    "midi": 66,
                    "time": 96.58515800000018,
                    "velocity": 0.2440944881889764,
                    "duration": 0.404122000000001
                },
                {
                    "name": "G3",
                    "midi": 55,
                    "time": 96.98928000000018,
                    "velocity": 0.3228346456692913,
                    "duration": 0.404122000000001
                },
                {
                    "name": "B3",
                    "midi": 59,
                    "time": 97.39340200000018,
                    "velocity": 0.2992125984251969,
                    "duration": 0.404122000000001
                },
                {
                    "name": "D4",
                    "midi": 62,
                    "time": 97.79752400000018,
                    "velocity": 0.2992125984251969,
                    "duration": 0.404122000000001
                },
                {
                    "name": "G3",
                    "midi": 55,
                    "time": 98.20164600000018,
                    "velocity": 0.3228346456692913,
                    "duration": 0.404122000000001
                },
                {
                    "name": "B3",
                    "midi": 59,
                    "time": 98.60576800000018,
                    "velocity": 0.2992125984251969,
                    "duration": 0.404122000000001
                },
                {
                    "name": "D4",
                    "midi": 62,
                    "time": 99.00989000000018,
                    "velocity": 0.2992125984251969,
                    "duration": 0.404122000000001
                },
                {
                    "name": "F#3",
                    "midi": 54,
                    "time": 99.41401200000018,
                    "velocity": 0.3228346456692913,
                    "duration": 0.404122000000001
                },
                {
                    "name": "A3",
                    "midi": 57,
                    "time": 99.81813400000019,
                    "velocity": 0.2992125984251969,
                    "duration": 0.404122000000001
                },
                {
                    "name": "D#4",
                    "midi": 63,
                    "time": 100.22225600000019,
                    "velocity": 0.2992125984251969,
                    "duration": 0.404122000000001
                },
                {
                    "name": "F#3",
                    "midi": 54,
                    "time": 100.62637800000019,
                    "velocity": 0.2755905511811024,
                    "duration": 0.404122000000001
                },
                {
                    "name": "A3",
                    "midi": 57,
                    "time": 101.03050000000019,
                    "velocity": 0.2440944881889764,
                    "duration": 0.404122000000001
                },
                {
                    "name": "D#4",
                    "midi": 63,
                    "time": 101.43462200000019,
                    "velocity": 0.2047244094488189,
                    "duration": 0.404122000000001
                },
                {
                    "name": "C#3",
                    "midi": 49,
                    "time": 101.83874400000019,
                    "velocity": 0.23622047244094488,
                    "duration": 0.404122000000001
                },
                {
                    "name": "F#3",
                    "midi": 54,
                    "time": 102.24286600000019,
                    "velocity": 0.2125984251968504,
                    "duration": 0.404122000000001
                },
                {
                    "name": "A3",
                    "midi": 57,
                    "time": 102.64698800000019,
                    "velocity": 0.2125984251968504,
                    "duration": 0.404122000000001
                },
                {
                    "name": "C#3",
                    "midi": 49,
                    "time": 103.0511100000002,
                    "velocity": 0.23622047244094488,
                    "duration": 0.404122000000001
                },
                {
                    "name": "F#3",
                    "midi": 54,
                    "time": 103.4552320000002,
                    "velocity": 0.2125984251968504,
                    "duration": 0.404122000000001
                },
                {
                    "name": "A3",
                    "midi": 57,
                    "time": 103.8593540000002,
                    "velocity": 0.2125984251968504,
                    "duration": 0.404122000000001
                },
                {
                    "name": "C#3",
                    "midi": 49,
                    "time": 104.2634760000002,
                    "velocity": 0.23622047244094488,
                    "duration": 0.404122000000001
                },
                {
                    "name": "F#3",
                    "midi": 54,
                    "time": 104.6675980000002,
                    "velocity": 0.2047244094488189,
                    "duration": 0.404122000000001
                },
                {
                    "name": "G#3",
                    "midi": 56,
                    "time": 105.0717200000002,
                    "velocity": 0.2047244094488189,
                    "duration": 0.404122000000001
                },
                {
                    "name": "C#3",
                    "midi": 49,
                    "time": 105.4758420000002,
                    "velocity": 0.23622047244094488,
                    "duration": 0.404122000000001
                },
                {
                    "name": "F3",
                    "midi": 53,
                    "time": 105.8799640000002,
                    "velocity": 0.2047244094488189,
                    "duration": 0.404122000000001
                },
                {
                    "name": "G#3",
                    "midi": 56,
                    "time": 106.2840860000002,
                    "velocity": 0.1732283464566929,
                    "duration": 0.404122000000001
                },
                {
                    "name": "F#3",
                    "midi": 54,
                    "time": 106.6882080000002,
                    "velocity": 0.25196850393700787,
                    "duration": 0.404122000000001
                },
                {
                    "name": "A3",
                    "midi": 57,
                    "time": 107.0923300000002,
                    "velocity": 0.2047244094488189,
                    "duration": 0.404122000000001
                },
                {
                    "name": "C#4",
                    "midi": 61,
                    "time": 107.4964520000002,
                    "velocity": 0.2047244094488189,
                    "duration": 0.404122000000001
                },
                {
                    "name": "A3",
                    "midi": 57,
                    "time": 107.9005740000002,
                    "velocity": 0.23622047244094488,
                    "duration": 0.404122000000001
                },
                {
                    "name": "C#4",
                    "midi": 61,
                    "time": 108.3046960000002,
                    "velocity": 0.2047244094488189,
                    "duration": 0.404122000000001
                },
                {
                    "name": "F#4",
                    "midi": 66,
                    "time": 108.7088180000002,
                    "velocity": 0.2047244094488189,
                    "duration": 0.404122000000001
                },
                {
                    "name": "C#4",
                    "midi": 61,
                    "time": 109.11294000000021,
                    "velocity": 0.23622047244094488,
                    "duration": 0.404122000000001
                },
                {
                    "name": "F#4",
                    "midi": 66,
                    "time": 109.51706200000021,
                    "velocity": 0.2047244094488189,
                    "duration": 0.404122000000001
                },
                {
                    "name": "A4",
                    "midi": 69,
                    "time": 109.92118400000021,
                    "velocity": 0.2047244094488189,
                    "duration": 0.404122000000001
                },
                {
                    "name": "C#4",
                    "midi": 61,
                    "time": 110.32530600000021,
                    "velocity": 0.3228346456692913,
                    "duration": 0.404122000000001
                },
                {
                    "name": "F#4",
                    "midi": 66,
                    "time": 110.72942800000021,
                    "velocity": 0.25984251968503935,
                    "duration": 0.404122000000001
                },
                {
                    "name": "A4",
                    "midi": 69,
                    "time": 111.13355000000021,
                    "velocity": 0.2047244094488189,
                    "duration": 0.404122000000001
                },
                {
                    "name": "C#4",
                    "midi": 61,
                    "time": 111.53767200000021,
                    "velocity": 0.29133858267716534,
                    "duration": 0.404122000000001
                },
                {
                    "name": "G#4",
                    "midi": 68,
                    "time": 111.94179400000021,
                    "velocity": 0.25196850393700787,
                    "duration": 0.404122000000001
                },
                {
                    "name": "B4",
                    "midi": 71,
                    "time": 112.34591600000022,
                    "velocity": 0.25196850393700787,
                    "duration": 0.404122000000001
                },
                {
                    "name": "C#4",
                    "midi": 61,
                    "time": 112.75003800000022,
                    "velocity": 0.3228346456692913,
                    "duration": 0.404122000000001
                },
                {
                    "name": "G#4",
                    "midi": 68,
                    "time": 113.15416000000022,
                    "velocity": 0.2755905511811024,
                    "duration": 0.404122000000001
                },
                {
                    "name": "B4",
                    "midi": 71,
                    "time": 113.55828200000022,
                    "velocity": 0.2755905511811024,
                    "duration": 0.404122000000001
                },
                {
                    "name": "C#4",
                    "midi": 61,
                    "time": 113.96240400000022,
                    "velocity": 0.3228346456692913,
                    "duration": 0.404122000000001
                },
                {
                    "name": "G#4",
                    "midi": 68,
                    "time": 114.36652600000022,
                    "velocity": 0.2755905511811024,
                    "duration": 0.404122000000001
                },
                {
                    "name": "B4",
                    "midi": 71,
                    "time": 114.77064800000022,
                    "velocity": 0.2755905511811024,
                    "duration": 0.404122000000001
                },
                {
                    "name": "C#4",
                    "midi": 61,
                    "time": 115.17477000000022,
                    "velocity": 0.3228346456692913,
                    "duration": 0.404122000000001
                },
                {
                    "name": "G#4",
                    "midi": 68,
                    "time": 115.57889200000022,
                    "velocity": 0.2755905511811024,
                    "duration": 0.404122000000001
                },
                {
                    "name": "B4",
                    "midi": 71,
                    "time": 115.98301400000022,
                    "velocity": 0.2755905511811024,
                    "duration": 0.404122000000001
                },
                {
                    "name": "C#4",
                    "midi": 61,
                    "time": 116.38713600000023,
                    "velocity": 0.3228346456692913,
                    "duration": 0.404122000000001
                },
                {
                    "name": "F#4",
                    "midi": 66,
                    "time": 116.79125800000023,
                    "velocity": 0.2992125984251969,
                    "duration": 0.404122000000001
                },
                {
                    "name": "A4",
                    "midi": 69,
                    "time": 117.19538000000023,
                    "velocity": 0.2992125984251969,
                    "duration": 0.404122000000001
                },
                {
                    "name": "C#4",
                    "midi": 61,
                    "time": 117.59950200000023,
                    "velocity": 0.3228346456692913,
                    "duration": 0.404122000000001
                },
                {
                    "name": "F#4",
                    "midi": 66,
                    "time": 118.00362400000023,
                    "velocity": 0.33070866141732286,
                    "duration": 0.404122000000001
                },
                {
                    "name": "A4",
                    "midi": 69,
                    "time": 118.40774600000023,
                    "velocity": 0.3543307086614173,
                    "duration": 0.404122000000001
                },
                {
                    "name": "C4",
                    "midi": 60,
                    "time": 118.81186800000023,
                    "velocity": 0.36220472440944884,
                    "duration": 0.404122000000001
                },
                {
                    "name": "F#4",
                    "midi": 66,
                    "time": 119.21599000000023,
                    "velocity": 0.33070866141732286,
                    "duration": 0.404122000000001
                },
                {
                    "name": "A4",
                    "midi": 69,
                    "time": 119.62011200000023,
                    "velocity": 0.3228346456692913,
                    "duration": 0.404122000000001
                },
                {
                    "name": "C#4",
                    "midi": 61,
                    "time": 120.02423400000023,
                    "velocity": 0.3700787401574803,
                    "duration": 0.404122000000001
                },
                {
                    "name": "F#4",
                    "midi": 66,
                    "time": 120.42835600000024,
                    "velocity": 0.33070866141732286,
                    "duration": 0.404122000000001
                },
                {
                    "name": "A4",
                    "midi": 69,
                    "time": 120.83247800000024,
                    "velocity": 0.33070866141732286,
                    "duration": 0.404122000000001
                },
                {
                    "name": "D#4",
                    "midi": 63,
                    "time": 121.23660000000024,
                    "velocity": 0.4094488188976378,
                    "duration": 0.404122000000001
                },
                {
                    "name": "F#4",
                    "midi": 66,
                    "time": 121.64072200000024,
                    "velocity": 0.3937007874015748,
                    "duration": 0.404122000000001
                },
                {
                    "name": "G#4",
                    "midi": 68,
                    "time": 122.04484400000024,
                    "velocity": 0.3779527559055118,
                    "duration": 0.404122000000001
                },
                {
                    "name": "D#4",
                    "midi": 63,
                    "time": 122.44896600000024,
                    "velocity": 0.41732283464566927,
                    "duration": 0.404122000000001
                },
                {
                    "name": "F#4",
                    "midi": 66,
                    "time": 122.85308800000024,
                    "velocity": 0.3937007874015748,
                    "duration": 0.404122000000001
                },
                {
                    "name": "G#4",
                    "midi": 68,
                    "time": 123.25721000000024,
                    "velocity": 0.3937007874015748,
                    "duration": 0.404122000000001
                },
                {
                    "name": "D#4",
                    "midi": 63,
                    "time": 123.66133200000024,
                    "velocity": 0.4409448818897638,
                    "duration": 0.404122000000001
                },
                {
                    "name": "F#4",
                    "midi": 66,
                    "time": 124.06545400000024,
                    "velocity": 0.4094488188976378,
                    "duration": 0.404122000000001
                },
                {
                    "name": "G#4",
                    "midi": 68,
                    "time": 124.46957600000025,
                    "velocity": 0.4094488188976378,
                    "duration": 0.404122000000001
                },
                {
                    "name": "D#4",
                    "midi": 63,
                    "time": 124.87369800000025,
                    "velocity": 0.44881889763779526,
                    "duration": 0.404122000000001
                },
                {
                    "name": "F#4",
                    "midi": 66,
                    "time": 125.27782000000025,
                    "velocity": 0.4409448818897638,
                    "duration": 0.404122000000001
                },
                {
                    "name": "G#4",
                    "midi": 68,
                    "time": 125.68194200000025,
                    "velocity": 0.4409448818897638,
                    "duration": 0.404122000000001
                },
                {
                    "name": "E4",
                    "midi": 64,
                    "time": 126.08606400000025,
                    "velocity": 0.48031496062992124,
                    "duration": 0.404122000000001
                },
                {
                    "name": "G#4",
                    "midi": 68,
                    "time": 126.49018600000025,
                    "velocity": 0.44881889763779526,
                    "duration": 0.404122000000001
                },
                {
                    "name": "C#5",
                    "midi": 73,
                    "time": 126.89430800000025,
                    "velocity": 0.4330708661417323,
                    "duration": 0.404122000000001
                },
                {
                    "name": "E4",
                    "midi": 64,
                    "time": 127.29843000000025,
                    "velocity": 0.4094488188976378,
                    "duration": 0.404122000000001
                },
                {
                    "name": "G#4",
                    "midi": 68,
                    "time": 127.70255200000025,
                    "velocity": 0.3779527559055118,
                    "duration": 0.404122000000001
                },
                {
                    "name": "C#5",
                    "midi": 73,
                    "time": 128.10667400000025,
                    "velocity": 0.3779527559055118,
                    "duration": 0.404122000000001
                },
                {
                    "name": "D#4",
                    "midi": 63,
                    "time": 128.51079600000025,
                    "velocity": 0.3543307086614173,
                    "duration": 0.404122000000001
                },
                {
                    "name": "F#4",
                    "midi": 66,
                    "time": 128.91491800000026,
                    "velocity": 0.3228346456692913,
                    "duration": 0.404122000000001
                },
                {
                    "name": "A4",
                    "midi": 69,
                    "time": 129.31904000000026,
                    "velocity": 0.3228346456692913,
                    "duration": 0.404122000000001
                },
                {
                    "name": "C#4",
                    "midi": 61,
                    "time": 129.72316200000026,
                    "velocity": 0.31496062992125984,
                    "duration": 0.404122000000001
                },
                {
                    "name": "E4",
                    "midi": 64,
                    "time": 130.12728400000026,
                    "velocity": 0.2992125984251969,
                    "duration": 0.404122000000001
                },
                {
                    "name": "A#4",
                    "midi": 70,
                    "time": 130.53140600000026,
                    "velocity": 0.25984251968503935,
                    "duration": 0.404122000000001
                },
                {
                    "name": "C5",
                    "midi": 72,
                    "time": 130.93552800000026,
                    "velocity": 0.4094488188976378,
                    "duration": 0.404122000000001
                },
                {
                    "name": "C4",
                    "midi": 60,
                    "time": 131.33965000000026,
                    "velocity": 0.4094488188976378,
                    "duration": 0.404122000000001
                },
                {
                    "name": "D#4",
                    "midi": 63,
                    "time": 131.74377200000026,
                    "velocity": 0.4094488188976378,
                    "duration": 0.404122000000001
                },
                {
                    "name": "G#4",
                    "midi": 68,
                    "time": 132.14789400000026,
                    "velocity": 0.5118110236220472,
                    "duration": 1.212366000000003
                },
                {
                    "name": "C4",
                    "midi": 60,
                    "time": 132.55201600000026,
                    "velocity": 0.4094488188976378,
                    "duration": 0.404122000000001
                },
                {
                    "name": "D#4",
                    "midi": 63,
                    "time": 132.95613800000027,
                    "velocity": 0.41732283464566927,
                    "duration": 0.404122000000001
                },
                {
                    "name": "A4",
                    "midi": 69,
                    "time": 133.36026000000027,
                    "velocity": 0.6062992125984252,
                    "duration": 1.212366000000003
                },
                {
                    "name": "C4",
                    "midi": 60,
                    "time": 133.76438200000027,
                    "velocity": 0.4094488188976378,
                    "duration": 0.404122000000001
                },
                {
                    "name": "D#4",
                    "midi": 63,
                    "time": 134.16850400000027,
                    "velocity": 0.4094488188976378,
                    "duration": 0.404122000000001
                },
                {
                    "name": "F#4",
                    "midi": 66,
                    "time": 134.57262600000027,
                    "velocity": 0.5118110236220472,
                    "duration": 1.212366000000003
                },
                {
                    "name": "C4",
                    "midi": 60,
                    "time": 134.97674800000027,
                    "velocity": 0.4094488188976378,
                    "duration": 0.404122000000001
                },
                {
                    "name": "D#4",
                    "midi": 63,
                    "time": 135.38087000000027,
                    "velocity": 0.41732283464566927,
                    "duration": 0.404122000000001
                },
                {
                    "name": "C4",
                    "midi": 60,
                    "time": 136.18911400000027,
                    "velocity": 0.4094488188976378,
                    "duration": 0.404122000000001
                },
                {
                    "name": "D#4",
                    "midi": 63,
                    "time": 136.59323600000027,
                    "velocity": 0.4094488188976378,
                    "duration": 0.404122000000001
                },
                {
                    "name": "G#3",
                    "midi": 56,
                    "time": 136.99735800000028,
                    "velocity": 0.5118110236220472,
                    "duration": 1.212366000000003
                },
                {
                    "name": "C4",
                    "midi": 60,
                    "time": 137.40148000000028,
                    "velocity": 0.41732283464566927,
                    "duration": 0.404122000000001
                },
                {
                    "name": "D#4",
                    "midi": 63,
                    "time": 137.80560200000028,
                    "velocity": 0.41732283464566927,
                    "duration": 0.404122000000001
                },
                {
                    "name": "A3",
                    "midi": 57,
                    "time": 138.20972400000028,
                    "velocity": 0.5984251968503937,
                    "duration": 1.212366000000003
                },
                {
                    "name": "C4",
                    "midi": 60,
                    "time": 138.61384600000028,
                    "velocity": 0.41732283464566927,
                    "duration": 0.404122000000001
                },
                {
                    "name": "D#4",
                    "midi": 63,
                    "time": 139.01796800000028,
                    "velocity": 0.41732283464566927,
                    "duration": 0.404122000000001
                },
                {
                    "name": "F#3",
                    "midi": 54,
                    "time": 139.42209000000028,
                    "velocity": 0.47244094488188976,
                    "duration": 1.212366000000003
                },
                {
                    "name": "C4",
                    "midi": 60,
                    "time": 139.82621200000028,
                    "velocity": 0.4094488188976378,
                    "duration": 0.404122000000001
                },
                {
                    "name": "D#4",
                    "midi": 63,
                    "time": 140.23033400000028,
                    "velocity": 0.36220472440944884,
                    "duration": 0.404122000000001
                },
                {
                    "name": "E3",
                    "midi": 52,
                    "time": 140.63445600000028,
                    "velocity": 0.4094488188976378,
                    "duration": 0.404122000000001
                },
                {
                    "name": "E4",
                    "midi": 64,
                    "time": 141.03857800000029,
                    "velocity": 0.4094488188976378,
                    "duration": 0.404122000000001
                },
                {
                    "name": "G#4",
                    "midi": 68,
                    "time": 141.4427000000003,
                    "velocity": 0.4094488188976378,
                    "duration": 0.404122000000001
                },
                {
                    "name": "C#5",
                    "midi": 73,
                    "time": 141.8468220000003,
                    "velocity": 0.5118110236220472,
                    "duration": 1.212366000000003
                },
                {
                    "name": "E4",
                    "midi": 64,
                    "time": 142.2509440000003,
                    "velocity": 0.4094488188976378,
                    "duration": 0.404122000000001
                },
                {
                    "name": "G#4",
                    "midi": 68,
                    "time": 142.6550660000003,
                    "velocity": 0.3700787401574803,
                    "duration": 0.404122000000001
                },
                {
                    "name": "E5",
                    "midi": 76,
                    "time": 143.0591880000003,
                    "velocity": 0.5984251968503937,
                    "duration": 1.212366000000003
                },
                {
                    "name": "E4",
                    "midi": 64,
                    "time": 143.4633100000003,
                    "velocity": 0.5118110236220472,
                    "duration": 0.404122000000001
                },
                {
                    "name": "G#4",
                    "midi": 68,
                    "time": 143.8674320000003,
                    "velocity": 0.5118110236220472,
                    "duration": 0.404122000000001
                },
                {
                    "name": "C#5",
                    "midi": 73,
                    "time": 144.2715540000003,
                    "velocity": 0.5118110236220472,
                    "duration": 1.212366000000003
                },
                {
                    "name": "E4",
                    "midi": 64,
                    "time": 144.6756760000003,
                    "velocity": 0.41732283464566927,
                    "duration": 0.404122000000001
                },
                {
                    "name": "G#4",
                    "midi": 68,
                    "time": 145.0797980000003,
                    "velocity": 0.3937007874015748,
                    "duration": 0.404122000000001
                },
                {
                    "name": "E3",
                    "midi": 52,
                    "time": 145.8880420000003,
                    "velocity": 0.4094488188976378,
                    "duration": 0.404122000000001
                },
                {
                    "name": "G#3",
                    "midi": 56,
                    "time": 146.2921640000003,
                    "velocity": 0.4094488188976378,
                    "duration": 0.404122000000001
                },
                {
                    "name": "C#4",
                    "midi": 61,
                    "time": 146.6962860000003,
                    "velocity": 0.48031496062992124,
                    "duration": 1.212366000000003
                },
                {
                    "name": "E3",
                    "midi": 52,
                    "time": 147.1004080000003,
                    "velocity": 0.4094488188976378,
                    "duration": 0.404122000000001
                },
                {
                    "name": "G#3",
                    "midi": 56,
                    "time": 147.5045300000003,
                    "velocity": 0.4094488188976378,
                    "duration": 0.404122000000001
                },
                {
                    "name": "E4",
                    "midi": 64,
                    "time": 147.9086520000003,
                    "velocity": 0.5905511811023622,
                    "duration": 1.212366000000003
                },
                {
                    "name": "E3",
                    "midi": 52,
                    "time": 148.3127740000003,
                    "velocity": 0.3779527559055118,
                    "duration": 0.404122000000001
                },
                {
                    "name": "G#3",
                    "midi": 56,
                    "time": 148.7168960000003,
                    "velocity": 0.3779527559055118,
                    "duration": 0.404122000000001
                },
                {
                    "name": "C#4",
                    "midi": 61,
                    "time": 149.1210180000003,
                    "velocity": 0.5118110236220472,
                    "duration": 1.212366000000003
                },
                {
                    "name": "E3",
                    "midi": 52,
                    "time": 149.5251400000003,
                    "velocity": 0.41732283464566927,
                    "duration": 0.404122000000001
                },
                {
                    "name": "G#3",
                    "midi": 56,
                    "time": 149.9292620000003,
                    "velocity": 0.3937007874015748,
                    "duration": 0.404122000000001
                },
                {
                    "name": "D#3",
                    "midi": 51,
                    "time": 150.3333840000003,
                    "velocity": 0.5118110236220472,
                    "duration": 0.404122000000001
                },
                {
                    "name": "A3",
                    "midi": 57,
                    "time": 150.7375060000003,
                    "velocity": 0.4094488188976378,
                    "duration": 0.404122000000001
                },
                {
                    "name": "F#3",
                    "midi": 54,
                    "time": 151.1416280000003,
                    "velocity": 0.4094488188976378,
                    "duration": 0.404122000000001
                },
                {
                    "name": "C4",
                    "midi": 60,
                    "time": 151.5457500000003,
                    "velocity": 0.41732283464566927,
                    "duration": 0.404122000000001
                },
                {
                    "name": "A3",
                    "midi": 57,
                    "time": 151.9498720000003,
                    "velocity": 0.4094488188976378,
                    "duration": 0.404122000000001
                },
                {
                    "name": "D#4",
                    "midi": 63,
                    "time": 152.3539940000003,
                    "velocity": 0.4094488188976378,
                    "duration": 0.404122000000001
                },
                {
                    "name": "C4",
                    "midi": 60,
                    "time": 152.7581160000003,
                    "velocity": 0.4094488188976378,
                    "duration": 0.404122000000001
                },
                {
                    "name": "F#4",
                    "midi": 66,
                    "time": 153.16223800000031,
                    "velocity": 0.4094488188976378,
                    "duration": 0.404122000000001
                },
                {
                    "name": "D#4",
                    "midi": 63,
                    "time": 153.56636000000032,
                    "velocity": 0.4094488188976378,
                    "duration": 0.404122000000001
                },
                {
                    "name": "A4",
                    "midi": 69,
                    "time": 153.97048200000032,
                    "velocity": 0.4094488188976378,
                    "duration": 0.404122000000001
                },
                {
                    "name": "F#4",
                    "midi": 66,
                    "time": 154.37460400000032,
                    "velocity": 0.4094488188976378,
                    "duration": 0.404122000000001
                },
                {
                    "name": "C5",
                    "midi": 72,
                    "time": 154.77872600000032,
                    "velocity": 0.4094488188976378,
                    "duration": 0.404122000000001
                },
                {
                    "name": "E3",
                    "midi": 52,
                    "time": 155.18284800000032,
                    "velocity": 0.5118110236220472,
                    "duration": 0.404122000000001
                },
                {
                    "name": "C#4",
                    "midi": 61,
                    "time": 155.58697000000032,
                    "velocity": 0.4094488188976378,
                    "duration": 0.404122000000001
                },
                {
                    "name": "G#3",
                    "midi": 56,
                    "time": 155.99109200000032,
                    "velocity": 0.4094488188976378,
                    "duration": 0.404122000000001
                },
                {
                    "name": "E4",
                    "midi": 64,
                    "time": 156.39521400000032,
                    "velocity": 0.3779527559055118,
                    "duration": 0.404122000000001
                },
                {
                    "name": "C#4",
                    "midi": 61,
                    "time": 156.79933600000032,
                    "velocity": 0.4094488188976378,
                    "duration": 0.404122000000001
                },
                {
                    "name": "G#4",
                    "midi": 68,
                    "time": 157.20345800000032,
                    "velocity": 0.4094488188976378,
                    "duration": 0.404122000000001
                },
                {
                    "name": "E4",
                    "midi": 64,
                    "time": 157.60758000000033,
                    "velocity": 0.41732283464566927,
                    "duration": 0.404122000000001
                },
                {
                    "name": "C#5",
                    "midi": 73,
                    "time": 158.01170200000033,
                    "velocity": 0.4094488188976378,
                    "duration": 0.404122000000001
                },
                {
                    "name": "G#4",
                    "midi": 68,
                    "time": 158.41582400000033,
                    "velocity": 0.4094488188976378,
                    "duration": 0.404122000000001
                },
                {
                    "name": "E5",
                    "midi": 76,
                    "time": 158.81994600000033,
                    "velocity": 0.41732283464566927,
                    "duration": 0.404122000000001
                },
                {
                    "name": "C#5",
                    "midi": 73,
                    "time": 159.22406800000033,
                    "velocity": 0.4094488188976378,
                    "duration": 0.404122000000001
                },
                {
                    "name": "G#4",
                    "midi": 68,
                    "time": 159.62819000000033,
                    "velocity": 0.4094488188976378,
                    "duration": 0.404122000000001
                },
                {
                    "name": "C#4",
                    "midi": 61,
                    "time": 160.03231200000033,
                    "velocity": 0.5118110236220472,
                    "duration": 0.404122000000001
                },
                {
                    "name": "G4",
                    "midi": 67,
                    "time": 160.43643400000033,
                    "velocity": 0.4330708661417323,
                    "duration": 0.404122000000001
                },
                {
                    "name": "E4",
                    "midi": 64,
                    "time": 160.84055600000033,
                    "velocity": 0.4330708661417323,
                    "duration": 0.404122000000001
                },
                {
                    "name": "A#4",
                    "midi": 70,
                    "time": 161.24467800000033,
                    "velocity": 0.4409448818897638,
                    "duration": 0.404122000000001
                },
                {
                    "name": "G4",
                    "midi": 67,
                    "time": 161.64880000000034,
                    "velocity": 0.4409448818897638,
                    "duration": 0.404122000000001
                },
                {
                    "name": "C#5",
                    "midi": 73,
                    "time": 162.05292200000034,
                    "velocity": 0.4881889763779528,
                    "duration": 0.404122000000001
                },
                {
                    "name": "A#4",
                    "midi": 70,
                    "time": 162.45704400000034,
                    "velocity": 0.4881889763779528,
                    "duration": 0.404122000000001
                },
                {
                    "name": "E5",
                    "midi": 76,
                    "time": 162.86116600000034,
                    "velocity": 0.5354330708661418,
                    "duration": 0.404122000000001
                },
                {
                    "name": "C#5",
                    "midi": 73,
                    "time": 163.26528800000034,
                    "velocity": 0.5275590551181102,
                    "duration": 0.404122000000001
                },
                {
                    "name": "G5",
                    "midi": 79,
                    "time": 163.66941000000034,
                    "velocity": 0.5590551181102362,
                    "duration": 0.404122000000001
                },
                {
                    "name": "E5",
                    "midi": 76,
                    "time": 164.07353200000034,
                    "velocity": 0.5354330708661418,
                    "duration": 0.404122000000001
                },
                {
                    "name": "A#5",
                    "midi": 82,
                    "time": 164.47765400000034,
                    "velocity": 0.5354330708661418,
                    "duration": 0.404122000000001
                },
                {
                    "name": "F#4",
                    "midi": 66,
                    "time": 164.88177600000034,
                    "velocity": 0.5984251968503937,
                    "duration": 0.404122000000001
                },
                {
                    "name": "C5",
                    "midi": 72,
                    "time": 165.28589800000034,
                    "velocity": 0.5669291338582677,
                    "duration": 0.404122000000001
                },
                {
                    "name": "A4",
                    "midi": 69,
                    "time": 165.69002000000035,
                    "velocity": 0.5511811023622047,
                    "duration": 0.404122000000001
                },
                {
                    "name": "D#5",
                    "midi": 75,
                    "time": 166.09414200000035,
                    "velocity": 0.6141732283464567,
                    "duration": 0.404122000000001
                },
                {
                    "name": "C5",
                    "midi": 72,
                    "time": 166.49826400000035,
                    "velocity": 0.5984251968503937,
                    "duration": 0.404122000000001
                },
                {
                    "name": "F#5",
                    "midi": 78,
                    "time": 166.90238600000035,
                    "velocity": 0.6456692913385826,
                    "duration": 0.404122000000001
                },
                {
                    "name": "D#5",
                    "midi": 75,
                    "time": 167.30650800000035,
                    "velocity": 0.6299212598425197,
                    "duration": 0.404122000000001
                },
                {
                    "name": "A5",
                    "midi": 81,
                    "time": 167.71063000000035,
                    "velocity": 0.6535433070866141,
                    "duration": 0.404122000000001
                },
                {
                    "name": "F#5",
                    "midi": 78,
                    "time": 168.11475200000035,
                    "velocity": 0.6377952755905512,
                    "duration": 0.404122000000001
                },
                {
                    "name": "C6",
                    "midi": 84,
                    "time": 168.51887400000035,
                    "velocity": 0.6929133858267716,
                    "duration": 0.404122000000001
                },
                {
                    "name": "A5",
                    "midi": 81,
                    "time": 168.92299600000035,
                    "velocity": 0.6535433070866141,
                    "duration": 0.404122000000001
                },
                {
                    "name": "D#6",
                    "midi": 87,
                    "time": 169.32711800000035,
                    "velocity": 0.7244094488188977,
                    "duration": 0.404122000000001
                },
                {
                    "name": "C6",
                    "midi": 84,
                    "time": 169.73124000000035,
                    "velocity": 0.7637795275590551,
                    "duration": 0.404122000000001
                },
                {
                    "name": "F#5",
                    "midi": 78,
                    "time": 170.13536200000036,
                    "velocity": 0.7086614173228346,
                    "duration": 0.404122000000001
                },
                {
                    "name": "A5",
                    "midi": 81,
                    "time": 170.53948400000036,
                    "velocity": 0.6456692913385826,
                    "duration": 0.404122000000001
                },
                {
                    "name": "D#5",
                    "midi": 75,
                    "time": 170.94360600000036,
                    "velocity": 0.7086614173228346,
                    "duration": 0.404122000000001
                },
                {
                    "name": "F#5",
                    "midi": 78,
                    "time": 171.34772800000036,
                    "velocity": 0.6535433070866141,
                    "duration": 0.404122000000001
                },
                {
                    "name": "C5",
                    "midi": 72,
                    "time": 171.75185000000036,
                    "velocity": 0.7086614173228346,
                    "duration": 0.404122000000001
                },
                {
                    "name": "D#5",
                    "midi": 75,
                    "time": 172.15597200000036,
                    "velocity": 0.6456692913385826,
                    "duration": 0.404122000000001
                },
                {
                    "name": "A4",
                    "midi": 69,
                    "time": 172.56009400000036,
                    "velocity": 0.7086614173228346,
                    "duration": 0.404122000000001
                },
                {
                    "name": "C5",
                    "midi": 72,
                    "time": 172.96421600000036,
                    "velocity": 0.6456692913385826,
                    "duration": 0.404122000000001
                },
                {
                    "name": "F#4",
                    "midi": 66,
                    "time": 173.36833800000036,
                    "velocity": 0.7086614173228346,
                    "duration": 0.404122000000001
                },
                {
                    "name": "A4",
                    "midi": 69,
                    "time": 173.77246000000036,
                    "velocity": 0.6456692913385826,
                    "duration": 0.404122000000001
                },
                {
                    "name": "D#4",
                    "midi": 63,
                    "time": 174.17658200000037,
                    "velocity": 0.6929133858267716,
                    "duration": 0.404122000000001
                },
                {
                    "name": "F#4",
                    "midi": 66,
                    "time": 174.58070400000037,
                    "velocity": 0.6456692913385826,
                    "duration": 0.404122000000001
                },
                {
                    "name": "C4",
                    "midi": 60,
                    "time": 174.98482600000037,
                    "velocity": 0.6850393700787402,
                    "duration": 0.404122000000001
                },
                {
                    "name": "D#4",
                    "midi": 63,
                    "time": 175.38894800000037,
                    "velocity": 0.6377952755905512,
                    "duration": 0.404122000000001
                },
                {
                    "name": "A3",
                    "midi": 57,
                    "time": 175.79307000000037,
                    "velocity": 0.6692913385826772,
                    "duration": 0.404122000000001
                },
                {
                    "name": "C4",
                    "midi": 60,
                    "time": 176.19719200000037,
                    "velocity": 0.6062992125984252,
                    "duration": 0.404122000000001
                },
                {
                    "name": "F#3",
                    "midi": 54,
                    "time": 176.60131400000037,
                    "velocity": 0.6692913385826772,
                    "duration": 0.404122000000001
                },
                {
                    "name": "A3",
                    "midi": 57,
                    "time": 177.00543600000037,
                    "velocity": 0.6299212598425197,
                    "duration": 0.404122000000001
                },
                {
                    "name": "D#3",
                    "midi": 51,
                    "time": 177.40955800000037,
                    "velocity": 0.6456692913385826,
                    "duration": 0.808244000000002
                },
                {
                    "name": "F#3",
                    "midi": 54,
                    "time": 177.81368000000037,
                    "velocity": 0.5905511811023622,
                    "duration": 0.404122000000001
                },
                {
                    "name": "C#3",
                    "midi": 49,
                    "time": 178.21780200000038,
                    "velocity": 0.6535433070866141,
                    "duration": 1.212366000000003
                },
                {
                    "name": "F#3",
                    "midi": 54,
                    "time": 178.62192400000038,
                    "velocity": 0.5905511811023622,
                    "duration": 0.404122000000001
                },
                {
                    "name": "A3",
                    "midi": 57,
                    "time": 179.02604600000038,
                    "velocity": 0.5590551181102362,
                    "duration": 0.404122000000001
                },
                {
                    "name": "C3",
                    "midi": 48,
                    "time": 179.43016800000038,
                    "velocity": 0.6299212598425197,
                    "duration": 2.424732000000006
                },
                {
                    "name": "F#3",
                    "midi": 54,
                    "time": 179.83429000000038,
                    "velocity": 0.5511811023622047,
                    "duration": 0.404122000000001
                },
                {
                    "name": "G#3",
                    "midi": 56,
                    "time": 180.23841200000038,
                    "velocity": 0.5511811023622047,
                    "duration": 0.404122000000001
                },
                {
                    "name": "A3",
                    "midi": 57,
                    "time": 180.64253400000038,
                    "velocity": 0.5511811023622047,
                    "duration": 0.404122000000001
                },
                {
                    "name": "G#3",
                    "midi": 56,
                    "time": 181.04665600000038,
                    "velocity": 0.5275590551181102,
                    "duration": 0.404122000000001
                },
                {
                    "name": "F#3",
                    "midi": 54,
                    "time": 181.45077800000038,
                    "velocity": 0.5275590551181102,
                    "duration": 0.404122000000001
                },
                {
                    "name": "D#3",
                    "midi": 51,
                    "time": 181.85490000000038,
                    "velocity": 0.6141732283464567,
                    "duration": 1.212366000000003
                },
                {
                    "name": "F#3",
                    "midi": 54,
                    "time": 182.25902200000039,
                    "velocity": 0.5354330708661418,
                    "duration": 0.404122000000001
                },
                {
                    "name": "A3",
                    "midi": 57,
                    "time": 182.6631440000004,
                    "velocity": 0.5354330708661418,
                    "duration": 0.404122000000001
                },
                {
                    "name": "C#3",
                    "midi": 49,
                    "time": 183.0672660000004,
                    "velocity": 0.6141732283464567,
                    "duration": 1.212366000000003
                },
                {
                    "name": "F#3",
                    "midi": 54,
                    "time": 183.4713880000004,
                    "velocity": 0.5118110236220472,
                    "duration": 0.404122000000001
                },
                {
                    "name": "A3",
                    "midi": 57,
                    "time": 183.8755100000004,
                    "velocity": 0.5118110236220472,
                    "duration": 0.404122000000001
                },
                {
                    "name": "C3",
                    "midi": 48,
                    "time": 184.2796320000004,
                    "velocity": 0.6062992125984252,
                    "duration": 2.424732000000006
                },
                {
                    "name": "F#3",
                    "midi": 54,
                    "time": 184.6837540000004,
                    "velocity": 0.5118110236220472,
                    "duration": 0.404122000000001
                },
                {
                    "name": "G#3",
                    "midi": 56,
                    "time": 185.0878760000004,
                    "velocity": 0.5118110236220472,
                    "duration": 0.404122000000001
                },
                {
                    "name": "A3",
                    "midi": 57,
                    "time": 185.4919980000004,
                    "velocity": 0.49606299212598426,
                    "duration": 0.404122000000001
                },
                {
                    "name": "G#3",
                    "midi": 56,
                    "time": 185.8961200000004,
                    "velocity": 0.4881889763779528,
                    "duration": 0.404122000000001
                },
                {
                    "name": "F#3",
                    "midi": 54,
                    "time": 186.3002420000004,
                    "velocity": 0.4881889763779528,
                    "duration": 0.404122000000001
                },
                {
                    "name": "D3",
                    "midi": 50,
                    "time": 186.7043640000004,
                    "velocity": 0.6141732283464567,
                    "duration": 1.212366000000003
                },
                {
                    "name": "F#3",
                    "midi": 54,
                    "time": 187.1084860000004,
                    "velocity": 0.5511811023622047,
                    "duration": 0.404122000000001
                },
                {
                    "name": "A3",
                    "midi": 57,
                    "time": 187.5126080000004,
                    "velocity": 0.5590551181102362,
                    "duration": 0.404122000000001
                },
                {
                    "name": "C#3",
                    "midi": 49,
                    "time": 187.9167300000004,
                    "velocity": 0.5984251968503937,
                    "duration": 1.212366000000003
                },
                {
                    "name": "F#3",
                    "midi": 54,
                    "time": 188.3208520000004,
                    "velocity": 0.5118110236220472,
                    "duration": 0.404122000000001
                },
                {
                    "name": "A3",
                    "midi": 57,
                    "time": 188.7249740000004,
                    "velocity": 0.5118110236220472,
                    "duration": 0.404122000000001
                },
                {
                    "name": "C3",
                    "midi": 48,
                    "time": 189.1290960000004,
                    "velocity": 0.6141732283464567,
                    "duration": 2.424732000000006
                },
                {
                    "name": "F#3",
                    "midi": 54,
                    "time": 189.5332180000004,
                    "velocity": 0.5354330708661418,
                    "duration": 0.404122000000001
                },
                {
                    "name": "G#3",
                    "midi": 56,
                    "time": 189.9373400000004,
                    "velocity": 0.5354330708661418,
                    "duration": 0.404122000000001
                },
                {
                    "name": "A3",
                    "midi": 57,
                    "time": 190.3414620000004,
                    "velocity": 0.5196850393700787,
                    "duration": 0.404122000000001
                },
                {
                    "name": "G#3",
                    "midi": 56,
                    "time": 190.7455840000004,
                    "velocity": 0.5118110236220472,
                    "duration": 0.404122000000001
                },
                {
                    "name": "F#3",
                    "midi": 54,
                    "time": 191.1497060000004,
                    "velocity": 0.49606299212598426,
                    "duration": 0.404122000000001
                },
                {
                    "name": "C#3",
                    "midi": 49,
                    "time": 191.5538280000004,
                    "velocity": 0.5354330708661418,
                    "duration": 0.404122000000001
                },
                {
                    "name": "E3",
                    "midi": 52,
                    "time": 191.9579500000004,
                    "velocity": 0.49606299212598426,
                    "duration": 0.404122000000001
                },
                {
                    "name": "C#4",
                    "midi": 61,
                    "time": 192.3620720000004,
                    "velocity": 0.4881889763779528,
                    "duration": 0.404122000000001
                },
                {
                    "name": "C#3",
                    "midi": 49,
                    "time": 192.7661940000004,
                    "velocity": 0.5354330708661418,
                    "duration": 0.404122000000001
                },
                {
                    "name": "E3",
                    "midi": 52,
                    "time": 193.1703160000004,
                    "velocity": 0.4881889763779528,
                    "duration": 0.404122000000001
                },
                {
                    "name": "C#4",
                    "midi": 61,
                    "time": 193.5744380000004,
                    "velocity": 0.4881889763779528,
                    "duration": 0.404122000000001
                },
                {
                    "name": "D#3",
                    "midi": 51,
                    "time": 193.9785600000004,
                    "velocity": 0.5984251968503937,
                    "duration": 0.404122000000001
                },
                {
                    "name": "A3",
                    "midi": 57,
                    "time": 194.38268200000041,
                    "velocity": 0.5118110236220472,
                    "duration": 0.404122000000001
                },
                {
                    "name": "C#4",
                    "midi": 61,
                    "time": 194.78680400000042,
                    "velocity": 0.48031496062992124,
                    "duration": 0.404122000000001
                },
                {
                    "name": "D#3",
                    "midi": 51,
                    "time": 195.19092600000042,
                    "velocity": 0.5118110236220472,
                    "duration": 0.404122000000001
                },
                {
                    "name": "A3",
                    "midi": 57,
                    "time": 195.59504800000042,
                    "velocity": 0.44881889763779526,
                    "duration": 0.404122000000001
                },
                {
                    "name": "C#4",
                    "midi": 61,
                    "time": 195.99917000000042,
                    "velocity": 0.4409448818897638,
                    "duration": 0.404122000000001
                },
                {
                    "name": "D#3",
                    "midi": 51,
                    "time": 196.40329200000042,
                    "velocity": 0.47244094488188976,
                    "duration": 0.404122000000001
                },
                {
                    "name": "G#3",
                    "midi": 56,
                    "time": 196.80741400000042,
                    "velocity": 0.4094488188976378,
                    "duration": 0.404122000000001
                },
                {
                    "name": "C4",
                    "midi": 60,
                    "time": 197.21153600000042,
                    "velocity": 0.4094488188976378,
                    "duration": 0.404122000000001
                },
                {
                    "name": "D#3",
                    "midi": 51,
                    "time": 197.61565800000042,
                    "velocity": 0.3700787401574803,
                    "duration": 0.404122000000001
                },
                {
                    "name": "F#3",
                    "midi": 54,
                    "time": 198.01978000000042,
                    "velocity": 0.3543307086614173,
                    "duration": 0.404122000000001
                },
                {
                    "name": "C4",
                    "midi": 60,
                    "time": 198.42390200000042,
                    "velocity": 0.31496062992125984,
                    "duration": 0.404122000000001
                },
                {
                    "name": "E3",
                    "midi": 52,
                    "time": 198.82802400000043,
                    "velocity": 0.3228346456692913,
                    "duration": 0.404122000000001
                },
                {
                    "name": "G#3",
                    "midi": 56,
                    "time": 199.23214600000043,
                    "velocity": 0.2992125984251969,
                    "duration": 0.404122000000001
                },
                {
                    "name": "C#4",
                    "midi": 61,
                    "time": 199.63626800000043,
                    "velocity": 0.29133858267716534,
                    "duration": 0.404122000000001
                },
                {
                    "name": "G#3",
                    "midi": 56,
                    "time": 200.04039000000043,
                    "velocity": 0.3228346456692913,
                    "duration": 0.404122000000001
                },
                {
                    "name": "C#4",
                    "midi": 61,
                    "time": 200.44451200000043,
                    "velocity": 0.2992125984251969,
                    "duration": 0.404122000000001
                },
                {
                    "name": "E4",
                    "midi": 64,
                    "time": 200.84863400000043,
                    "velocity": 0.2992125984251969,
                    "duration": 0.404122000000001
                },
                {
                    "name": "G#3",
                    "midi": 56,
                    "time": 201.25275600000043,
                    "velocity": 0.3228346456692913,
                    "duration": 0.404122000000001
                },
                {
                    "name": "C#4",
                    "midi": 61,
                    "time": 201.65687800000043,
                    "velocity": 0.2992125984251969,
                    "duration": 0.404122000000001
                },
                {
                    "name": "E4",
                    "midi": 64,
                    "time": 202.06100000000043,
                    "velocity": 0.2992125984251969,
                    "duration": 0.404122000000001
                },
                {
                    "name": "G#3",
                    "midi": 56,
                    "time": 202.46512200000043,
                    "velocity": 0.3228346456692913,
                    "duration": 0.404122000000001
                },
                {
                    "name": "C#4",
                    "midi": 61,
                    "time": 202.86924400000044,
                    "velocity": 0.29133858267716534,
                    "duration": 0.404122000000001
                },
                {
                    "name": "E4",
                    "midi": 64,
                    "time": 203.27336600000044,
                    "velocity": 0.25984251968503935,
                    "duration": 0.404122000000001
                },
                {
                    "name": "G#3",
                    "midi": 56,
                    "time": 203.67748800000044,
                    "velocity": 0.3228346456692913,
                    "duration": 0.404122000000001
                },
                {
                    "name": "D#4",
                    "midi": 63,
                    "time": 204.08161000000044,
                    "velocity": 0.29133858267716534,
                    "duration": 0.404122000000001
                },
                {
                    "name": "F#4",
                    "midi": 66,
                    "time": 204.48573200000044,
                    "velocity": 0.29133858267716534,
                    "duration": 0.404122000000001
                },
                {
                    "name": "G#3",
                    "midi": 56,
                    "time": 204.88985400000044,
                    "velocity": 0.31496062992125984,
                    "duration": 0.404122000000001
                },
                {
                    "name": "D#4",
                    "midi": 63,
                    "time": 205.29397600000044,
                    "velocity": 0.2992125984251969,
                    "duration": 0.404122000000001
                },
                {
                    "name": "F#4",
                    "midi": 66,
                    "time": 205.69809800000044,
                    "velocity": 0.2992125984251969,
                    "duration": 0.404122000000001
                },
                {
                    "name": "G#3",
                    "midi": 56,
                    "time": 206.10222000000044,
                    "velocity": 0.3228346456692913,
                    "duration": 0.404122000000001
                },
                {
                    "name": "D#4",
                    "midi": 63,
                    "time": 206.50634200000044,
                    "velocity": 0.2992125984251969,
                    "duration": 0.404122000000001
                },
                {
                    "name": "F#4",
                    "midi": 66,
                    "time": 206.91046400000045,
                    "velocity": 0.29133858267716534,
                    "duration": 0.404122000000001
                },
                {
                    "name": "G#3",
                    "midi": 56,
                    "time": 207.31458600000045,
                    "velocity": 0.3228346456692913,
                    "duration": 0.404122000000001
                },
                {
                    "name": "D#4",
                    "midi": 63,
                    "time": 207.71870800000045,
                    "velocity": 0.2992125984251969,
                    "duration": 0.404122000000001
                },
                {
                    "name": "F#4",
                    "midi": 66,
                    "time": 208.12283000000045,
                    "velocity": 0.2755905511811024,
                    "duration": 0.404122000000001
                },
                {
                    "name": "G#3",
                    "midi": 56,
                    "time": 208.52695200000045,
                    "velocity": 0.3228346456692913,
                    "duration": 0.404122000000001
                },
                {
                    "name": "C#4",
                    "midi": 61,
                    "time": 208.93107400000045,
                    "velocity": 0.31496062992125984,
                    "duration": 0.404122000000001
                },
                {
                    "name": "E4",
                    "midi": 64,
                    "time": 209.33519600000045,
                    "velocity": 0.31496062992125984,
                    "duration": 0.404122000000001
                },
                {
                    "name": "G#3",
                    "midi": 56,
                    "time": 209.73931800000045,
                    "velocity": 0.3228346456692913,
                    "duration": 0.404122000000001
                },
                {
                    "name": "C#4",
                    "midi": 61,
                    "time": 210.14344000000045,
                    "velocity": 0.2992125984251969,
                    "duration": 0.404122000000001
                },
                {
                    "name": "E4",
                    "midi": 64,
                    "time": 210.54756200000045,
                    "velocity": 0.29133858267716534,
                    "duration": 0.404122000000001
                },
                {
                    "name": "A3",
                    "midi": 57,
                    "time": 210.95168400000045,
                    "velocity": 0.3228346456692913,
                    "duration": 0.404122000000001
                },
                {
                    "name": "C#4",
                    "midi": 61,
                    "time": 211.35580600000046,
                    "velocity": 0.31496062992125984,
                    "duration": 0.404122000000001
                },
                {
                    "name": "F#4",
                    "midi": 66,
                    "time": 211.75992800000046,
                    "velocity": 0.2992125984251969,
                    "duration": 0.404122000000001
                },
                {
                    "name": "A3",
                    "midi": 57,
                    "time": 212.16405000000046,
                    "velocity": 0.3228346456692913,
                    "duration": 0.404122000000001
                },
                {
                    "name": "C#4",
                    "midi": 61,
                    "time": 212.56817200000046,
                    "velocity": 0.2992125984251969,
                    "duration": 0.404122000000001
                },
                {
                    "name": "F#4",
                    "midi": 66,
                    "time": 212.97229400000046,
                    "velocity": 0.28346456692913385,
                    "duration": 0.404122000000001
                },
                {
                    "name": "G#3",
                    "midi": 56,
                    "time": 213.37641600000046,
                    "velocity": 0.3228346456692913,
                    "duration": 0.404122000000001
                },
                {
                    "name": "B3",
                    "midi": 59,
                    "time": 213.78053800000046,
                    "velocity": 0.29133858267716534,
                    "duration": 0.404122000000001
                },
                {
                    "name": "E4",
                    "midi": 64,
                    "time": 214.18466000000046,
                    "velocity": 0.29133858267716534,
                    "duration": 0.404122000000001
                },
                {
                    "name": "G#3",
                    "midi": 56,
                    "time": 214.58878200000046,
                    "velocity": 0.31496062992125984,
                    "duration": 0.404122000000001
                },
                {
                    "name": "B3",
                    "midi": 59,
                    "time": 214.99290400000046,
                    "velocity": 0.29133858267716534,
                    "duration": 0.404122000000001
                },
                {
                    "name": "E4",
                    "midi": 64,
                    "time": 215.39702600000047,
                    "velocity": 0.29133858267716534,
                    "duration": 0.404122000000001
                },
                {
                    "name": "A3",
                    "midi": 57,
                    "time": 215.80114800000047,
                    "velocity": 0.31496062992125984,
                    "duration": 0.404122000000001
                },
                {
                    "name": "B3",
                    "midi": 59,
                    "time": 216.20527000000047,
                    "velocity": 0.2755905511811024,
                    "duration": 0.404122000000001
                },
                {
                    "name": "D#4",
                    "midi": 63,
                    "time": 216.60939200000047,
                    "velocity": 0.2755905511811024,
                    "duration": 0.404122000000001
                },
                {
                    "name": "A3",
                    "midi": 57,
                    "time": 217.01351400000047,
                    "velocity": 0.31496062992125984,
                    "duration": 0.404122000000001
                },
                {
                    "name": "B3",
                    "midi": 59,
                    "time": 217.41763600000047,
                    "velocity": 0.2755905511811024,
                    "duration": 0.404122000000001
                },
                {
                    "name": "D#4",
                    "midi": 63,
                    "time": 217.82175800000047,
                    "velocity": 0.25196850393700787,
                    "duration": 0.404122000000001
                },
                {
                    "name": "G#3",
                    "midi": 56,
                    "time": 218.22588000000047,
                    "velocity": 0.31496062992125984,
                    "duration": 0.404122000000001
                },
                {
                    "name": "B3",
                    "midi": 59,
                    "time": 218.63000200000047,
                    "velocity": 0.29133858267716534,
                    "duration": 0.404122000000001
                },
                {
                    "name": "E4",
                    "midi": 64,
                    "time": 219.03412400000047,
                    "velocity": 0.29133858267716534,
                    "duration": 0.404122000000001
                },
                {
                    "name": "B3",
                    "midi": 59,
                    "time": 219.43824600000048,
                    "velocity": 0.31496062992125984,
                    "duration": 0.404122000000001
                },
                {
                    "name": "E4",
                    "midi": 64,
                    "time": 219.84236800000048,
                    "velocity": 0.29133858267716534,
                    "duration": 0.404122000000001
                },
                {
                    "name": "G#4",
                    "midi": 68,
                    "time": 220.24649000000048,
                    "velocity": 0.29133858267716534,
                    "duration": 0.404122000000001
                },
                {
                    "name": "B3",
                    "midi": 59,
                    "time": 220.65061200000048,
                    "velocity": 0.31496062992125984,
                    "duration": 0.404122000000001
                },
                {
                    "name": "E4",
                    "midi": 64,
                    "time": 221.05473400000048,
                    "velocity": 0.29133858267716534,
                    "duration": 0.404122000000001
                },
                {
                    "name": "G#4",
                    "midi": 68,
                    "time": 221.45885600000048,
                    "velocity": 0.29133858267716534,
                    "duration": 0.404122000000001
                },
                {
                    "name": "B3",
                    "midi": 59,
                    "time": 221.86297800000048,
                    "velocity": 0.31496062992125984,
                    "duration": 0.404122000000001
                },
                {
                    "name": "E4",
                    "midi": 64,
                    "time": 222.26710000000048,
                    "velocity": 0.29133858267716534,
                    "duration": 0.404122000000001
                },
                {
                    "name": "G#4",
                    "midi": 68,
                    "time": 222.67122200000048,
                    "velocity": 0.25196850393700787,
                    "duration": 0.404122000000001
                },
                {
                    "name": "B3",
                    "midi": 59,
                    "time": 223.07534400000048,
                    "velocity": 0.31496062992125984,
                    "duration": 0.404122000000001
                },
                {
                    "name": "F#4",
                    "midi": 66,
                    "time": 223.47946600000049,
                    "velocity": 0.25984251968503935,
                    "duration": 0.404122000000001
                },
                {
                    "name": "A4",
                    "midi": 69,
                    "time": 223.8835880000005,
                    "velocity": 0.2440944881889764,
                    "duration": 0.404122000000001
                },
                {
                    "name": "B3",
                    "midi": 59,
                    "time": 224.2877100000005,
                    "velocity": 0.31496062992125984,
                    "duration": 0.404122000000001
                },
                {
                    "name": "F#4",
                    "midi": 66,
                    "time": 224.6918320000005,
                    "velocity": 0.25196850393700787,
                    "duration": 0.404122000000001
                },
                {
                    "name": "A4",
                    "midi": 69,
                    "time": 225.0959540000005,
                    "velocity": 0.25196850393700787,
                    "duration": 0.404122000000001
                },
                {
                    "name": "B3",
                    "midi": 59,
                    "time": 225.5000760000005,
                    "velocity": 0.31496062992125984,
                    "duration": 0.404122000000001
                },
                {
                    "name": "F#4",
                    "midi": 66,
                    "time": 225.9041980000005,
                    "velocity": 0.25196850393700787,
                    "duration": 0.404122000000001
                },
                {
                    "name": "A4",
                    "midi": 69,
                    "time": 226.3083200000005,
                    "velocity": 0.25196850393700787,
                    "duration": 0.404122000000001
                },
                {
                    "name": "B3",
                    "midi": 59,
                    "time": 226.7124420000005,
                    "velocity": 0.31496062992125984,
                    "duration": 0.404122000000001
                },
                {
                    "name": "F#4",
                    "midi": 66,
                    "time": 227.1165640000005,
                    "velocity": 0.25984251968503935,
                    "duration": 0.404122000000001
                },
                {
                    "name": "A4",
                    "midi": 69,
                    "time": 227.5206860000005,
                    "velocity": 0.25984251968503935,
                    "duration": 0.404122000000001
                },
                {
                    "name": "B3",
                    "midi": 59,
                    "time": 227.9248080000005,
                    "velocity": 0.31496062992125984,
                    "duration": 0.404122000000001
                },
                {
                    "name": "E4",
                    "midi": 64,
                    "time": 228.3289300000005,
                    "velocity": 0.2755905511811024,
                    "duration": 0.404122000000001
                },
                {
                    "name": "G#4",
                    "midi": 68,
                    "time": 228.7330520000005,
                    "velocity": 0.2755905511811024,
                    "duration": 0.404122000000001
                },
                {
                    "name": "B3",
                    "midi": 59,
                    "time": 229.1371740000005,
                    "velocity": 0.31496062992125984,
                    "duration": 0.404122000000001
                },
                {
                    "name": "E4",
                    "midi": 64,
                    "time": 229.5412960000005,
                    "velocity": 0.2755905511811024,
                    "duration": 0.404122000000001
                },
                {
                    "name": "G#4",
                    "midi": 68,
                    "time": 229.9454180000005,
                    "velocity": 0.2755905511811024,
                    "duration": 0.404122000000001
                },
                {
                    "name": "C4",
                    "midi": 60,
                    "time": 230.3495400000005,
                    "velocity": 0.31496062992125984,
                    "duration": 0.404122000000001
                },
                {
                    "name": "F#4",
                    "midi": 66,
                    "time": 230.7536620000005,
                    "velocity": 0.36220472440944884,
                    "duration": 0.404122000000001
                },
                {
                    "name": "G#4",
                    "midi": 68,
                    "time": 231.1577840000005,
                    "velocity": 0.3937007874015748,
                    "duration": 0.404122000000001
                },
                {
                    "name": "C#4",
                    "midi": 61,
                    "time": 231.5619060000005,
                    "velocity": 0.4330708661417323,
                    "duration": 0.404122000000001
                },
                {
                    "name": "E4",
                    "midi": 64,
                    "time": 231.9660280000005,
                    "velocity": 0.47244094488188976,
                    "duration": 0.404122000000001
                },
                {
                    "name": "G#4",
                    "midi": 68,
                    "time": 232.3701500000005,
                    "velocity": 0.47244094488188976,
                    "duration": 0.404122000000001
                },
                {
                    "name": "D#4",
                    "midi": 63,
                    "time": 232.7742720000005,
                    "velocity": 0.47244094488188976,
                    "duration": 0.404122000000001
                },
                {
                    "name": "F#4",
                    "midi": 66,
                    "time": 233.1783940000005,
                    "velocity": 0.4094488188976378,
                    "duration": 0.404122000000001
                },
                {
                    "name": "G#4",
                    "midi": 68,
                    "time": 233.5825160000005,
                    "velocity": 0.4094488188976378,
                    "duration": 0.404122000000001
                },
                {
                    "name": "D#4",
                    "midi": 63,
                    "time": 233.9866380000005,
                    "velocity": 0.41732283464566927,
                    "duration": 0.404122000000001
                },
                {
                    "name": "F#4",
                    "midi": 66,
                    "time": 234.3907600000005,
                    "velocity": 0.3937007874015748,
                    "duration": 0.404122000000001
                },
                {
                    "name": "G#4",
                    "midi": 68,
                    "time": 234.7948820000005,
                    "velocity": 0.3937007874015748,
                    "duration": 0.404122000000001
                },
                {
                    "name": "E4",
                    "midi": 64,
                    "time": 235.1990040000005,
                    "velocity": 0.3779527559055118,
                    "duration": 0.404122000000001
                },
                {
                    "name": "G#4",
                    "midi": 68,
                    "time": 235.60312600000051,
                    "velocity": 0.31496062992125984,
                    "duration": 0.404122000000001
                },
                {
                    "name": "C#5",
                    "midi": 73,
                    "time": 236.00724800000052,
                    "velocity": 0.31496062992125984,
                    "duration": 0.404122000000001
                },
                {
                    "name": "E4",
                    "midi": 64,
                    "time": 236.41137000000052,
                    "velocity": 0.31496062992125984,
                    "duration": 0.404122000000001
                },
                {
                    "name": "G#4",
                    "midi": 68,
                    "time": 236.81549200000052,
                    "velocity": 0.25984251968503935,
                    "duration": 0.404122000000001
                },
                {
                    "name": "C#5",
                    "midi": 73,
                    "time": 237.21961400000052,
                    "velocity": 0.25984251968503935,
                    "duration": 0.404122000000001
                },
                {
                    "name": "D4",
                    "midi": 62,
                    "time": 237.62373600000052,
                    "velocity": 0.31496062992125984,
                    "duration": 0.404122000000001
                },
                {
                    "name": "F#4",
                    "midi": 66,
                    "time": 238.02785800000052,
                    "velocity": 0.29133858267716534,
                    "duration": 0.404122000000001
                },
                {
                    "name": "A4",
                    "midi": 69,
                    "time": 238.43198000000052,
                    "velocity": 0.29133858267716534,
                    "duration": 0.404122000000001
                },
                {
                    "name": "D4",
                    "midi": 62,
                    "time": 238.83610200000052,
                    "velocity": 0.31496062992125984,
                    "duration": 0.404122000000001
                },
                {
                    "name": "F#4",
                    "midi": 66,
                    "time": 239.24022400000052,
                    "velocity": 0.29133858267716534,
                    "duration": 0.404122000000001
                },
                {
                    "name": "A4",
                    "midi": 69,
                    "time": 239.64434600000052,
                    "velocity": 0.29133858267716534,
                    "duration": 0.404122000000001
                },
                {
                    "name": "C4",
                    "midi": 60,
                    "time": 240.04846800000053,
                    "velocity": 0.31496062992125984,
                    "duration": 0.404122000000001
                },
                {
                    "name": "F#4",
                    "midi": 66,
                    "time": 240.45259000000053,
                    "velocity": 0.29133858267716534,
                    "duration": 0.404122000000001
                },
                {
                    "name": "G#4",
                    "midi": 68,
                    "time": 240.85671200000053,
                    "velocity": 0.29133858267716534,
                    "duration": 0.404122000000001
                },
                {
                    "name": "C4",
                    "midi": 60,
                    "time": 241.26083400000053,
                    "velocity": 0.31496062992125984,
                    "duration": 0.404122000000001
                },
                {
                    "name": "F#4",
                    "midi": 66,
                    "time": 241.66495600000053,
                    "velocity": 0.29133858267716534,
                    "duration": 0.404122000000001
                },
                {
                    "name": "G#4",
                    "midi": 68,
                    "time": 242.06907800000053,
                    "velocity": 0.2755905511811024,
                    "duration": 0.404122000000001
                },
                {
                    "name": "C#4",
                    "midi": 61,
                    "time": 242.47320000000053,
                    "velocity": 0.31496062992125984,
                    "duration": 0.404122000000001
                },
                {
                    "name": "E4",
                    "midi": 64,
                    "time": 242.87732200000053,
                    "velocity": 0.25984251968503935,
                    "duration": 0.404122000000001
                },
                {
                    "name": "G#4",
                    "midi": 68,
                    "time": 243.28144400000053,
                    "velocity": 0.23622047244094488,
                    "duration": 0.404122000000001
                },
                {
                    "name": "C#4",
                    "midi": 61,
                    "time": 243.68556600000053,
                    "velocity": 0.31496062992125984,
                    "duration": 0.404122000000001
                },
                {
                    "name": "E4",
                    "midi": 64,
                    "time": 244.08968800000054,
                    "velocity": 0.25984251968503935,
                    "duration": 0.404122000000001
                },
                {
                    "name": "G#4",
                    "midi": 68,
                    "time": 244.49381000000054,
                    "velocity": 0.2440944881889764,
                    "duration": 0.404122000000001
                },
                {
                    "name": "C#4",
                    "midi": 61,
                    "time": 244.89793200000054,
                    "velocity": 0.31496062992125984,
                    "duration": 0.404122000000001
                },
                {
                    "name": "F4",
                    "midi": 65,
                    "time": 245.30205400000054,
                    "velocity": 0.25984251968503935,
                    "duration": 0.404122000000001
                },
                {
                    "name": "G#4",
                    "midi": 68,
                    "time": 245.70617600000054,
                    "velocity": 0.25984251968503935,
                    "duration": 0.404122000000001
                },
                {
                    "name": "C#4",
                    "midi": 61,
                    "time": 246.11029800000054,
                    "velocity": 0.31496062992125984,
                    "duration": 0.404122000000001
                },
                {
                    "name": "F4",
                    "midi": 65,
                    "time": 246.51442000000054,
                    "velocity": 0.2440944881889764,
                    "duration": 0.404122000000001
                },
                {
                    "name": "G#4",
                    "midi": 68,
                    "time": 246.91854200000054,
                    "velocity": 0.23622047244094488,
                    "duration": 0.404122000000001
                },
                {
                    "name": "C#4",
                    "midi": 61,
                    "time": 247.32266400000054,
                    "velocity": 0.31496062992125984,
                    "duration": 0.404122000000001
                },
                {
                    "name": "F#4",
                    "midi": 66,
                    "time": 247.72678600000054,
                    "velocity": 0.33070866141732286,
                    "duration": 0.404122000000001
                },
                {
                    "name": "A4",
                    "midi": 69,
                    "time": 248.13090800000055,
                    "velocity": 0.31496062992125984,
                    "duration": 0.404122000000001
                },
                {
                    "name": "C#4",
                    "midi": 61,
                    "time": 248.53503000000055,
                    "velocity": 0.36220472440944884,
                    "duration": 0.404122000000001
                },
                {
                    "name": "F#4",
                    "midi": 66,
                    "time": 248.93915200000055,
                    "velocity": 0.3700787401574803,
                    "duration": 0.404122000000001
                },
                {
                    "name": "A4",
                    "midi": 69,
                    "time": 249.34327400000055,
                    "velocity": 0.3700787401574803,
                    "duration": 0.404122000000001
                },
                {
                    "name": "C#4",
                    "midi": 61,
                    "time": 249.74739600000055,
                    "velocity": 0.41732283464566927,
                    "duration": 0.404122000000001
                },
                {
                    "name": "F#4",
                    "midi": 66,
                    "time": 250.15151800000055,
                    "velocity": 0.4330708661417323,
                    "duration": 0.404122000000001
                },
                {
                    "name": "A4",
                    "midi": 69,
                    "time": 250.55564000000055,
                    "velocity": 0.41732283464566927,
                    "duration": 0.404122000000001
                },
                {
                    "name": "C#4",
                    "midi": 61,
                    "time": 250.95976200000055,
                    "velocity": 0.48031496062992124,
                    "duration": 0.404122000000001
                },
                {
                    "name": "F#4",
                    "midi": 66,
                    "time": 251.36388400000055,
                    "velocity": 0.47244094488188976,
                    "duration": 0.404122000000001
                },
                {
                    "name": "A4",
                    "midi": 69,
                    "time": 251.76800600000055,
                    "velocity": 0.4094488188976378,
                    "duration": 0.404122000000001
                },
                {
                    "name": "C#4",
                    "midi": 61,
                    "time": 252.17212800000055,
                    "velocity": 0.3543307086614173,
                    "duration": 0.404122000000001
                },
                {
                    "name": "F4",
                    "midi": 65,
                    "time": 252.57625000000056,
                    "velocity": 0.29133858267716534,
                    "duration": 0.404122000000001
                },
                {
                    "name": "G#4",
                    "midi": 68,
                    "time": 252.98037200000056,
                    "velocity": 0.28346456692913385,
                    "duration": 0.404122000000001
                },
                {
                    "name": "C#4",
                    "midi": 61,
                    "time": 253.38449400000056,
                    "velocity": 0.31496062992125984,
                    "duration": 0.404122000000001
                },
                {
                    "name": "F4",
                    "midi": 65,
                    "time": 253.78861600000056,
                    "velocity": 0.2755905511811024,
                    "duration": 0.404122000000001
                },
                {
                    "name": "G#4",
                    "midi": 68,
                    "time": 254.19273800000056,
                    "velocity": 0.2755905511811024,
                    "duration": 0.404122000000001
                },
                {
                    "name": "C#4",
                    "midi": 61,
                    "time": 254.59686000000056,
                    "velocity": 0.31496062992125984,
                    "duration": 0.404122000000001
                },
                {
                    "name": "F4",
                    "midi": 65,
                    "time": 255.00098200000056,
                    "velocity": 0.25984251968503935,
                    "duration": 0.404122000000001
                },
                {
                    "name": "G#4",
                    "midi": 68,
                    "time": 255.40510400000056,
                    "velocity": 0.25984251968503935,
                    "duration": 0.404122000000001
                },
                {
                    "name": "C#4",
                    "midi": 61,
                    "time": 255.80922600000056,
                    "velocity": 0.31496062992125984,
                    "duration": 0.404122000000001
                },
                {
                    "name": "F4",
                    "midi": 65,
                    "time": 256.21334800000056,
                    "velocity": 0.25984251968503935,
                    "duration": 0.40412199999997256
                },
                {
                    "name": "G#4",
                    "midi": 68,
                    "time": 256.61747000000054,
                    "velocity": 0.2204724409448819,
                    "duration": 0.40412199999997256
                },
                {
                    "name": "C#4",
                    "midi": 61,
                    "time": 257.0215920000005,
                    "velocity": 0.31496062992125984,
                    "duration": 0.40412199999997256
                },
                {
                    "name": "F#4",
                    "midi": 66,
                    "time": 257.4257140000005,
                    "velocity": 0.33070866141732286,
                    "duration": 0.40412199999997256
                },
                {
                    "name": "A4",
                    "midi": 69,
                    "time": 257.82983600000045,
                    "velocity": 0.36220472440944884,
                    "duration": 0.40412199999997256
                },
                {
                    "name": "C#4",
                    "midi": 61,
                    "time": 258.2339580000004,
                    "velocity": 0.3700787401574803,
                    "duration": 0.40412199999997256
                },
                {
                    "name": "F#4",
                    "midi": 66,
                    "time": 258.6380800000004,
                    "velocity": 0.3779527559055118,
                    "duration": 0.40412199999997256
                },
                {
                    "name": "A4",
                    "midi": 69,
                    "time": 259.0422020000004,
                    "velocity": 0.4330708661417323,
                    "duration": 0.40412199999997256
                },
                {
                    "name": "C#4",
                    "midi": 61,
                    "time": 259.44632400000035,
                    "velocity": 0.44881889763779526,
                    "duration": 0.40412199999997256
                },
                {
                    "name": "F#4",
                    "midi": 66,
                    "time": 259.8504460000003,
                    "velocity": 0.4409448818897638,
                    "duration": 0.40412199999997256
                },
                {
                    "name": "A4",
                    "midi": 69,
                    "time": 260.2545680000003,
                    "velocity": 0.4330708661417323,
                    "duration": 0.40412199999997256
                },
                {
                    "name": "C#4",
                    "midi": 61,
                    "time": 260.65869000000026,
                    "velocity": 0.48031496062992124,
                    "duration": 0.40412199999997256
                },
                {
                    "name": "F#4",
                    "midi": 66,
                    "time": 261.06281200000024,
                    "velocity": 0.4330708661417323,
                    "duration": 0.40412199999997256
                },
                {
                    "name": "A4",
                    "midi": 69,
                    "time": 261.4669340000002,
                    "velocity": 0.29133858267716534,
                    "duration": 0.40412199999997256
                },
                {
                    "name": "C#4",
                    "midi": 61,
                    "time": 261.8710560000002,
                    "velocity": 0.36220472440944884,
                    "duration": 0.40412199999997256
                },
                {
                    "name": "F4",
                    "midi": 65,
                    "time": 262.27517800000015,
                    "velocity": 0.2992125984251969,
                    "duration": 0.40412199999997256
                },
                {
                    "name": "G#4",
                    "midi": 68,
                    "time": 262.6793000000001,
                    "velocity": 0.2992125984251969,
                    "duration": 0.40412199999997256
                },
                {
                    "name": "C#4",
                    "midi": 61,
                    "time": 263.0834220000001,
                    "velocity": 0.31496062992125984,
                    "duration": 0.40412199999997256
                },
                {
                    "name": "F4",
                    "midi": 65,
                    "time": 263.48754400000007,
                    "velocity": 0.29133858267716534,
                    "duration": 0.40412199999997256
                },
                {
                    "name": "G#4",
                    "midi": 68,
                    "time": 263.89166600000004,
                    "velocity": 0.29133858267716534,
                    "duration": 0.40412199999997256
                },
                {
                    "name": "C#4",
                    "midi": 61,
                    "time": 264.295788,
                    "velocity": 0.33070866141732286,
                    "duration": 0.40412199999997256
                },
                {
                    "name": "F#4",
                    "midi": 66,
                    "time": 264.69991,
                    "velocity": 0.29133858267716534,
                    "duration": 0.40412199999997256
                },
                {
                    "name": "A4",
                    "midi": 69,
                    "time": 265.10403199999996,
                    "velocity": 0.29133858267716534,
                    "duration": 0.40412199999997256
                },
                {
                    "name": "C#4",
                    "midi": 61,
                    "time": 265.50815399999993,
                    "velocity": 0.31496062992125984,
                    "duration": 0.40412199999997256
                },
                {
                    "name": "F#4",
                    "midi": 66,
                    "time": 265.9122759999999,
                    "velocity": 0.29133858267716534,
                    "duration": 0.40412199999997256
                },
                {
                    "name": "A4",
                    "midi": 69,
                    "time": 266.3163979999999,
                    "velocity": 0.29133858267716534,
                    "duration": 0.40412199999997256
                },
                {
                    "name": "B3",
                    "midi": 59,
                    "time": 266.72051999999985,
                    "velocity": 0.3700787401574803,
                    "duration": 0.40412199999997256
                },
                {
                    "name": "F#4",
                    "midi": 66,
                    "time": 267.1246419999998,
                    "velocity": 0.31496062992125984,
                    "duration": 0.40412199999997256
                },
                {
                    "name": "A4",
                    "midi": 69,
                    "time": 267.5287639999998,
                    "velocity": 0.31496062992125984,
                    "duration": 0.40412199999997256
                },
                {
                    "name": "B3",
                    "midi": 59,
                    "time": 267.93288599999977,
                    "velocity": 0.31496062992125984,
                    "duration": 0.40412199999997256
                },
                {
                    "name": "F#4",
                    "midi": 66,
                    "time": 268.33700799999974,
                    "velocity": 0.2992125984251969,
                    "duration": 0.40412199999997256
                },
                {
                    "name": "A4",
                    "midi": 69,
                    "time": 268.7411299999997,
                    "velocity": 0.29133858267716534,
                    "duration": 0.40412199999997256
                },
                {
                    "name": "B3",
                    "midi": 59,
                    "time": 269.1452519999997,
                    "velocity": 0.31496062992125984,
                    "duration": 0.40412199999997256
                },
                {
                    "name": "F#4",
                    "midi": 66,
                    "time": 269.54937399999966,
                    "velocity": 0.2992125984251969,
                    "duration": 0.40412199999997256
                },
                {
                    "name": "A4",
                    "midi": 69,
                    "time": 269.95349599999963,
                    "velocity": 0.29133858267716534,
                    "duration": 0.40412199999997256
                },
                {
                    "name": "B3",
                    "midi": 59,
                    "time": 270.3576179999996,
                    "velocity": 0.31496062992125984,
                    "duration": 0.40412199999997256
                },
                {
                    "name": "E4",
                    "midi": 64,
                    "time": 270.7617399999996,
                    "velocity": 0.2992125984251969,
                    "duration": 0.40412199999997256
                },
                {
                    "name": "G#4",
                    "midi": 68,
                    "time": 271.16586199999955,
                    "velocity": 0.25984251968503935,
                    "duration": 0.40412199999997256
                },
                {
                    "name": "A3",
                    "midi": 57,
                    "time": 271.5699839999995,
                    "velocity": 0.31496062992125984,
                    "duration": 0.40412199999997256
                },
                {
                    "name": "E4",
                    "midi": 64,
                    "time": 271.9741059999995,
                    "velocity": 0.29133858267716534,
                    "duration": 0.40412199999997256
                },
                {
                    "name": "G#4",
                    "midi": 68,
                    "time": 272.37822799999947,
                    "velocity": 0.29133858267716534,
                    "duration": 0.40412199999997256
                },
                {
                    "name": "A3",
                    "midi": 57,
                    "time": 272.78234999999944,
                    "velocity": 0.31496062992125984,
                    "duration": 0.40412199999997256
                },
                {
                    "name": "D#4",
                    "midi": 63,
                    "time": 273.1864719999994,
                    "velocity": 0.29133858267716534,
                    "duration": 0.40412199999997256
                },
                {
                    "name": "F#4",
                    "midi": 66,
                    "time": 273.5905939999994,
                    "velocity": 0.29133858267716534,
                    "duration": 0.40412199999997256
                },
                {
                    "name": "G#3",
                    "midi": 56,
                    "time": 273.99471599999936,
                    "velocity": 0.31496062992125984,
                    "duration": 0.40412199999997256
                },
                {
                    "name": "D#4",
                    "midi": 63,
                    "time": 274.39883799999933,
                    "velocity": 0.29133858267716534,
                    "duration": 0.40412199999997256
                },
                {
                    "name": "F#4",
                    "midi": 66,
                    "time": 274.8029599999993,
                    "velocity": 0.29133858267716534,
                    "duration": 0.40412199999997256
                },
                {
                    "name": "G#3",
                    "midi": 56,
                    "time": 275.2070819999993,
                    "velocity": 0.31496062992125984,
                    "duration": 0.40412199999997256
                },
                {
                    "name": "C#4",
                    "midi": 61,
                    "time": 275.61120399999925,
                    "velocity": 0.29133858267716534,
                    "duration": 0.40412199999997256
                },
                {
                    "name": "E4",
                    "midi": 64,
                    "time": 276.0153259999992,
                    "velocity": 0.29133858267716534,
                    "duration": 0.40412199999997256
                },
                {
                    "name": "F#3",
                    "midi": 54,
                    "time": 276.4194479999992,
                    "velocity": 0.31496062992125984,
                    "duration": 0.40412199999997256
                },
                {
                    "name": "C#4",
                    "midi": 61,
                    "time": 276.82356999999917,
                    "velocity": 0.33070866141732286,
                    "duration": 0.40412199999997256
                },
                {
                    "name": "D#4",
                    "midi": 63,
                    "time": 277.22769199999914,
                    "velocity": 0.36220472440944884,
                    "duration": 0.40412199999997256
                },
                {
                    "name": "F#3",
                    "midi": 54,
                    "time": 277.6318139999991,
                    "velocity": 0.36220472440944884,
                    "duration": 0.40412199999997256
                },
                {
                    "name": "C#4",
                    "midi": 61,
                    "time": 278.0359359999991,
                    "velocity": 0.3700787401574803,
                    "duration": 0.40412199999997256
                },
                {
                    "name": "D#4",
                    "midi": 63,
                    "time": 278.44005799999906,
                    "velocity": 0.3937007874015748,
                    "duration": 0.40412199999997256
                },
                {
                    "name": "G#3",
                    "midi": 56,
                    "time": 278.844179999999,
                    "velocity": 0.41732283464566927,
                    "duration": 0.40412199999997256
                },
                {
                    "name": "C#4",
                    "midi": 61,
                    "time": 279.248301999999,
                    "velocity": 0.41732283464566927,
                    "duration": 0.40412199999997256
                },
                {
                    "name": "D#4",
                    "midi": 63,
                    "time": 279.652423999999,
                    "velocity": 0.41732283464566927,
                    "duration": 0.40412199999997256
                },
                {
                    "name": "A3",
                    "midi": 57,
                    "time": 280.05654599999895,
                    "velocity": 0.47244094488188976,
                    "duration": 0.40412199999997256
                },
                {
                    "name": "C#4",
                    "midi": 61,
                    "time": 280.4606679999989,
                    "velocity": 0.44881889763779526,
                    "duration": 0.40412199999997256
                },
                {
                    "name": "D#4",
                    "midi": 63,
                    "time": 280.8647899999989,
                    "velocity": 0.4330708661417323,
                    "duration": 0.40412199999997256
                },
                {
                    "name": "G#3",
                    "midi": 56,
                    "time": 281.26891199999886,
                    "velocity": 0.31496062992125984,
                    "duration": 0.40412199999997256
                },
                {
                    "name": "C#4",
                    "midi": 61,
                    "time": 281.67303399999884,
                    "velocity": 0.29133858267716534,
                    "duration": 0.40412199999997256
                },
                {
                    "name": "E4",
                    "midi": 64,
                    "time": 282.0771559999988,
                    "velocity": 0.2755905511811024,
                    "duration": 0.40412199999997256
                },
                {
                    "name": "G#3",
                    "midi": 56,
                    "time": 282.4812779999988,
                    "velocity": 0.31496062992125984,
                    "duration": 0.40412199999997256
                },
                {
                    "name": "C#4",
                    "midi": 61,
                    "time": 282.88539999999875,
                    "velocity": 0.29133858267716534,
                    "duration": 0.40412199999997256
                },
                {
                    "name": "E4",
                    "midi": 64,
                    "time": 283.2895219999987,
                    "velocity": 0.29133858267716534,
                    "duration": 0.40412199999997256
                },
                {
                    "name": "F#3",
                    "midi": 54,
                    "time": 283.6936439999987,
                    "velocity": 0.31496062992125984,
                    "duration": 0.40412199999997256
                },
                {
                    "name": "C4",
                    "midi": 60,
                    "time": 284.09776599999867,
                    "velocity": 0.2755905511811024,
                    "duration": 0.40412199999997256
                },
                {
                    "name": "D#4",
                    "midi": 63,
                    "time": 284.50188799999864,
                    "velocity": 0.2440944881889764,
                    "duration": 0.40412199999997256
                },
                {
                    "name": "F#3",
                    "midi": 54,
                    "time": 284.9060099999986,
                    "velocity": 0.23622047244094488,
                    "duration": 0.40412199999997256
                },
                {
                    "name": "C4",
                    "midi": 60,
                    "time": 285.3101319999986,
                    "velocity": 0.2047244094488189,
                    "duration": 0.40412199999997256
                },
                {
                    "name": "D#4",
                    "midi": 63,
                    "time": 285.71425399999856,
                    "velocity": 0.2047244094488189,
                    "duration": 0.40412199999997256
                },
                {
                    "name": "E3",
                    "midi": 52,
                    "time": 286.11837599999853,
                    "velocity": 0.29133858267716534,
                    "duration": 0.40412199999997256
                },
                {
                    "name": "G#3",
                    "midi": 56,
                    "time": 286.5224979999985,
                    "velocity": 0.25196850393700787,
                    "duration": 0.40412199999997256
                },
                {
                    "name": "C#4",
                    "midi": 61,
                    "time": 286.9266199999985,
                    "velocity": 0.25196850393700787,
                    "duration": 0.40412199999997256
                },
                {
                    "name": "G#3",
                    "midi": 56,
                    "time": 287.33074199999845,
                    "velocity": 0.29133858267716534,
                    "duration": 0.40412199999997256
                },
                {
                    "name": "C#4",
                    "midi": 61,
                    "time": 287.7348639999984,
                    "velocity": 0.25196850393700787,
                    "duration": 0.40412199999997256
                },
                {
                    "name": "E4",
                    "midi": 64,
                    "time": 288.1389859999984,
                    "velocity": 0.25196850393700787,
                    "duration": 0.40412199999997256
                },
                {
                    "name": "G#3",
                    "midi": 56,
                    "time": 288.54310799999837,
                    "velocity": 0.29133858267716534,
                    "duration": 0.40412199999997256
                },
                {
                    "name": "C#4",
                    "midi": 61,
                    "time": 288.94722999999834,
                    "velocity": 0.2440944881889764,
                    "duration": 0.40412199999997256
                },
                {
                    "name": "E4",
                    "midi": 64,
                    "time": 289.3513519999983,
                    "velocity": 0.2440944881889764,
                    "duration": 0.40412199999997256
                },
                {
                    "name": "G#3",
                    "midi": 56,
                    "time": 289.7554739999983,
                    "velocity": 0.29133858267716534,
                    "duration": 0.40412199999997256
                },
                {
                    "name": "C#4",
                    "midi": 61,
                    "time": 290.15959599999826,
                    "velocity": 0.23622047244094488,
                    "duration": 0.40412199999997256
                },
                {
                    "name": "E4",
                    "midi": 64,
                    "time": 290.56371799999823,
                    "velocity": 0.23622047244094488,
                    "duration": 0.40412199999997256
                },
                {
                    "name": "G#3",
                    "midi": 56,
                    "time": 290.9678399999982,
                    "velocity": 0.29133858267716534,
                    "duration": 0.40412199999997256
                },
                {
                    "name": "D#4",
                    "midi": 63,
                    "time": 291.3719619999982,
                    "velocity": 0.25984251968503935,
                    "duration": 0.40412199999997256
                },
                {
                    "name": "F#4",
                    "midi": 66,
                    "time": 291.77608399999815,
                    "velocity": 0.25984251968503935,
                    "duration": 0.40412199999997256
                },
                {
                    "name": "G#3",
                    "midi": 56,
                    "time": 292.1802059999981,
                    "velocity": 0.29133858267716534,
                    "duration": 0.40412199999997256
                },
                {
                    "name": "D#4",
                    "midi": 63,
                    "time": 292.5843279999981,
                    "velocity": 0.23622047244094488,
                    "duration": 0.40412199999997256
                },
                {
                    "name": "F#4",
                    "midi": 66,
                    "time": 292.98844999999807,
                    "velocity": 0.23622047244094488,
                    "duration": 0.40412199999997256
                },
                {
                    "name": "G#3",
                    "midi": 56,
                    "time": 293.39257199999804,
                    "velocity": 0.29133858267716534,
                    "duration": 0.40412199999997256
                },
                {
                    "name": "D#4",
                    "midi": 63,
                    "time": 293.796693999998,
                    "velocity": 0.23622047244094488,
                    "duration": 0.40412199999997256
                },
                {
                    "name": "F#4",
                    "midi": 66,
                    "time": 294.200815999998,
                    "velocity": 0.23622047244094488,
                    "duration": 0.40412199999997256
                },
                {
                    "name": "G#3",
                    "midi": 56,
                    "time": 294.60493799999796,
                    "velocity": 0.29133858267716534,
                    "duration": 0.40412199999997256
                },
                {
                    "name": "D#4",
                    "midi": 63,
                    "time": 295.00905999999793,
                    "velocity": 0.23622047244094488,
                    "duration": 0.40412199999997256
                },
                {
                    "name": "F#4",
                    "midi": 66,
                    "time": 295.4131819999979,
                    "velocity": 0.23622047244094488,
                    "duration": 0.40412199999997256
                },
                {
                    "name": "G#3",
                    "midi": 56,
                    "time": 295.8173039999979,
                    "velocity": 0.29133858267716534,
                    "duration": 0.40412199999997256
                },
                {
                    "name": "E4",
                    "midi": 64,
                    "time": 296.22142599999785,
                    "velocity": 0.2755905511811024,
                    "duration": 0.40412199999997256
                },
                {
                    "name": "C#4",
                    "midi": 61,
                    "time": 296.6255479999978,
                    "velocity": 0.31496062992125984,
                    "duration": 0.40412199999997256
                },
                {
                    "name": "G#4",
                    "midi": 68,
                    "time": 297.0296699999978,
                    "velocity": 0.3543307086614173,
                    "duration": 0.40412199999997256
                },
                {
                    "name": "E4",
                    "midi": 64,
                    "time": 297.43379199999777,
                    "velocity": 0.3779527559055118,
                    "duration": 0.40412199999997256
                },
                {
                    "name": "C#5",
                    "midi": 73,
                    "time": 297.83791399999774,
                    "velocity": 0.3937007874015748,
                    "duration": 0.40412199999997256
                },
                {
                    "name": "G#4",
                    "midi": 68,
                    "time": 298.2420359999977,
                    "velocity": 0.3779527559055118,
                    "duration": 0.40412199999997256
                },
                {
                    "name": "E5",
                    "midi": 76,
                    "time": 298.6461579999977,
                    "velocity": 0.41732283464566927,
                    "duration": 0.40412199999997256
                },
                {
                    "name": "C#5",
                    "midi": 73,
                    "time": 299.05027999999766,
                    "velocity": 0.47244094488188976,
                    "duration": 0.40412199999997256
                },
                {
                    "name": "G#5",
                    "midi": 80,
                    "time": 299.45440199999763,
                    "velocity": 0.4881889763779528,
                    "duration": 0.40412199999997256
                },
                {
                    "name": "E5",
                    "midi": 76,
                    "time": 299.8585239999976,
                    "velocity": 0.5118110236220472,
                    "duration": 0.40412199999997256
                },
                {
                    "name": "C#5",
                    "midi": 73,
                    "time": 300.2626459999976,
                    "velocity": 0.5590551181102362,
                    "duration": 0.40412199999997256
                },
                {
                    "name": "C5",
                    "midi": 72,
                    "time": 300.66676799999755,
                    "velocity": 0.5905511811023622,
                    "duration": 0.40412199999997256
                },
                {
                    "name": "D#5",
                    "midi": 75,
                    "time": 301.0708899999975,
                    "velocity": 0.5905511811023622,
                    "duration": 0.40412199999997256
                },
                {
                    "name": "A4",
                    "midi": 69,
                    "time": 301.4750119999975,
                    "velocity": 0.5905511811023622,
                    "duration": 0.40412199999997256
                },
                {
                    "name": "C5",
                    "midi": 72,
                    "time": 301.87913399999746,
                    "velocity": 0.5511811023622047,
                    "duration": 0.40412199999997256
                },
                {
                    "name": "F#4",
                    "midi": 66,
                    "time": 302.28325599999744,
                    "velocity": 0.5118110236220472,
                    "duration": 0.40412199999997256
                },
                {
                    "name": "A4",
                    "midi": 69,
                    "time": 302.6873779999974,
                    "velocity": 0.49606299212598426,
                    "duration": 0.40412199999997256
                },
                {
                    "name": "D#4",
                    "midi": 63,
                    "time": 303.0914999999974,
                    "velocity": 0.48031496062992124,
                    "duration": 0.40412199999997256
                },
                {
                    "name": "F#4",
                    "midi": 66,
                    "time": 303.49562199999735,
                    "velocity": 0.44881889763779526,
                    "duration": 0.40412199999997256
                },
                {
                    "name": "A3",
                    "midi": 57,
                    "time": 303.8997439999973,
                    "velocity": 0.4094488188976378,
                    "duration": 0.8082439999999451
                },
                {
                    "name": "C4",
                    "midi": 60,
                    "time": 304.3038659999973,
                    "velocity": 0.3937007874015748,
                    "duration": 1.2123659999999177
                },
                {
                    "name": "G#3",
                    "midi": 56,
                    "time": 304.7079879999973,
                    "velocity": 0.3700787401574803,
                    "duration": 0.40412199999997256
                },
                {
                    "name": "F#3",
                    "midi": 54,
                    "time": 305.11210999999724,
                    "velocity": 0.3700787401574803,
                    "duration": 0.40412199999997256
                },
                {
                    "name": "E3",
                    "midi": 52,
                    "time": 305.5162319999972,
                    "velocity": 0.33070866141732286,
                    "duration": 0.40412199999997256
                },
                {
                    "name": "C#4",
                    "midi": 61,
                    "time": 305.5162319999972,
                    "velocity": 0.33070866141732286,
                    "duration": 0.40412199999997256
                },
                {
                    "name": "E4",
                    "midi": 64,
                    "time": 305.9203539999972,
                    "velocity": 0.31496062992125984,
                    "duration": 0.40412199999997256
                },
                {
                    "name": "C#4",
                    "midi": 61,
                    "time": 306.32447599999716,
                    "velocity": 0.3543307086614173,
                    "duration": 0.40412199999997256
                },
                {
                    "name": "G#4",
                    "midi": 68,
                    "time": 306.72859799999713,
                    "velocity": 0.3779527559055118,
                    "duration": 0.40412199999997256
                },
                {
                    "name": "E4",
                    "midi": 64,
                    "time": 307.1327199999971,
                    "velocity": 0.41732283464566927,
                    "duration": 0.40412199999997256
                },
                {
                    "name": "C#5",
                    "midi": 73,
                    "time": 307.5368419999971,
                    "velocity": 0.47244094488188976,
                    "duration": 0.40412199999997256
                },
                {
                    "name": "G#4",
                    "midi": 68,
                    "time": 307.94096399999705,
                    "velocity": 0.48031496062992124,
                    "duration": 0.40412199999997256
                },
                {
                    "name": "E5",
                    "midi": 76,
                    "time": 308.345085999997,
                    "velocity": 0.49606299212598426,
                    "duration": 0.40412199999997256
                },
                {
                    "name": "C#5",
                    "midi": 73,
                    "time": 308.749207999997,
                    "velocity": 0.5118110236220472,
                    "duration": 0.40412199999997256
                },
                {
                    "name": "G#5",
                    "midi": 80,
                    "time": 309.15332999999697,
                    "velocity": 0.5275590551181102,
                    "duration": 0.40412199999997256
                },
                {
                    "name": "E5",
                    "midi": 76,
                    "time": 309.55745199999694,
                    "velocity": 0.5354330708661418,
                    "duration": 0.40412199999997256
                },
                {
                    "name": "C#5",
                    "midi": 73,
                    "time": 309.9615739999969,
                    "velocity": 0.5511811023622047,
                    "duration": 0.40412199999997256
                },
                {
                    "name": "C5",
                    "midi": 72,
                    "time": 310.3656959999969,
                    "velocity": 0.5905511811023622,
                    "duration": 0.40412199999997256
                },
                {
                    "name": "D#5",
                    "midi": 75,
                    "time": 310.76981799999686,
                    "velocity": 0.5354330708661418,
                    "duration": 0.40412199999997256
                },
                {
                    "name": "A4",
                    "midi": 69,
                    "time": 311.17393999999683,
                    "velocity": 0.5118110236220472,
                    "duration": 0.40412199999997256
                },
                {
                    "name": "C5",
                    "midi": 72,
                    "time": 311.5780619999968,
                    "velocity": 0.48031496062992124,
                    "duration": 0.40412199999997256
                },
                {
                    "name": "F#4",
                    "midi": 66,
                    "time": 311.9821839999968,
                    "velocity": 0.47244094488188976,
                    "duration": 0.40412199999997256
                },
                {
                    "name": "A4",
                    "midi": 69,
                    "time": 312.38630599999675,
                    "velocity": 0.41732283464566927,
                    "duration": 0.40412199999997256
                },
                {
                    "name": "D#4",
                    "midi": 63,
                    "time": 312.7904279999967,
                    "velocity": 0.3937007874015748,
                    "duration": 0.40412199999997256
                },
                {
                    "name": "F#4",
                    "midi": 66,
                    "time": 313.1945499999967,
                    "velocity": 0.3779527559055118,
                    "duration": 0.40412199999997256
                },
                {
                    "name": "A3",
                    "midi": 57,
                    "time": 313.59867199999667,
                    "velocity": 0.36220472440944884,
                    "duration": 0.8082439999999451
                },
                {
                    "name": "C4",
                    "midi": 60,
                    "time": 314.00279399999664,
                    "velocity": 0.3228346456692913,
                    "duration": 1.2123659999999177
                },
                {
                    "name": "G#3",
                    "midi": 56,
                    "time": 314.4069159999966,
                    "velocity": 0.29133858267716534,
                    "duration": 0.40412199999997256
                },
                {
                    "name": "F#3",
                    "midi": 54,
                    "time": 314.8110379999966,
                    "velocity": 0.2755905511811024,
                    "duration": 0.40412199999997256
                },
                {
                    "name": "C#4",
                    "midi": 61,
                    "time": 315.21515999999656,
                    "velocity": 0.3937007874015748,
                    "duration": 0.40412199999997256
                },
                {
                    "name": "E3",
                    "midi": 52,
                    "time": 315.21515999999656,
                    "velocity": 0.3937007874015748,
                    "duration": 0.40412199999997256
                },
                {
                    "name": "G#3",
                    "midi": 56,
                    "time": 315.61928199999653,
                    "velocity": 0.3937007874015748,
                    "duration": 0.40412199999997256
                },
                {
                    "name": "C#4",
                    "midi": 61,
                    "time": 316.0234039999965,
                    "velocity": 0.3937007874015748,
                    "duration": 0.40412199999997256
                },
                {
                    "name": "E4",
                    "midi": 64,
                    "time": 316.4275259999965,
                    "velocity": 0.3779527559055118,
                    "duration": 0.40412199999997256
                },
                {
                    "name": "C#4",
                    "midi": 61,
                    "time": 316.83164799999645,
                    "velocity": 0.3779527559055118,
                    "duration": 0.40412199999997256
                },
                {
                    "name": "G#3",
                    "midi": 56,
                    "time": 317.2357699999964,
                    "velocity": 0.3700787401574803,
                    "duration": 0.40412199999997256
                },
                {
                    "name": "E3",
                    "midi": 52,
                    "time": 318.04401399999637,
                    "velocity": 0.3700787401574803,
                    "duration": 0.40412199999997256
                },
                {
                    "name": "G#3",
                    "midi": 56,
                    "time": 318.44813599999634,
                    "velocity": 0.3700787401574803,
                    "duration": 0.40412199999997256
                },
                {
                    "name": "C#4",
                    "midi": 61,
                    "time": 318.8522579999963,
                    "velocity": 0.3700787401574803,
                    "duration": 0.40412199999997256
                },
                {
                    "name": "G#3",
                    "midi": 56,
                    "time": 319.2563799999963,
                    "velocity": 0.36220472440944884,
                    "duration": 0.40412199999997256
                },
                {
                    "name": "E3",
                    "midi": 52,
                    "time": 319.66050199999626,
                    "velocity": 0.36220472440944884,
                    "duration": 0.40412199999997256
                },
                {
                    "name": "C#3",
                    "midi": 49,
                    "time": 320.4687459999962,
                    "velocity": 0.3543307086614173,
                    "duration": 0.40412199999997256
                },
                {
                    "name": "E3",
                    "midi": 52,
                    "time": 320.8223527499962,
                    "velocity": 0.3543307086614173,
                    "duration": 0.40412199999997256
                },
                {
                    "name": "G#3",
                    "midi": 56,
                    "time": 321.27698999999615,
                    "velocity": 0.33070866141732286,
                    "duration": 0.40412199999997256
                },
                {
                    "name": "E3",
                    "midi": 52,
                    "time": 321.6811119999961,
                    "velocity": 0.33070866141732286,
                    "duration": 0.40412199999997256
                },
                {
                    "name": "C#3",
                    "midi": 49,
                    "time": 322.0852339999961,
                    "velocity": 0.3228346456692913,
                    "duration": 0.40412199999997256
                },
                {
                    "name": "G#2",
                    "midi": 44,
                    "time": 322.48935599999606,
                    "velocity": 0.3228346456692913,
                    "duration": 0.40412199999997256
                },
                {
                    "name": "C#3",
                    "midi": 49,
                    "time": 322.89347799999604,
                    "velocity": 0.3228346456692913,
                    "duration": 0.40412199999997256
                },
                {
                    "name": "G#2",
                    "midi": 44,
                    "time": 323.297599999996,
                    "velocity": 0.31496062992125984,
                    "duration": 0.40412199999997256
                },
                {
                    "name": "E2",
                    "midi": 40,
                    "time": 323.701721999996,
                    "velocity": 0.31496062992125984,
                    "duration": 0.40412199999997256
                },
                {
                    "name": "G#2",
                    "midi": 44,
                    "time": 324.10584399999595,
                    "velocity": 0.2992125984251969,
                    "duration": 0.40412199999997256
                },
                {
                    "name": "E2",
                    "midi": 40,
                    "time": 324.5099659999959,
                    "velocity": 0.29133858267716534,
                    "duration": 0.40412199999997256
                },
                {
                    "name": "C#2",
                    "midi": 37,
                    "time": 324.9140879999959,
                    "velocity": 0.2992125984251969,
                    "duration": 2.424732000000006
                },
                {
                    "name": "C#4",
                    "midi": 61,
                    "time": 327.3388199999959,
                    "velocity": 0.29133858267716534,
                    "duration": 2.424732000000006
                },
                {
                    "name": "E3",
                    "midi": 52,
                    "time": 327.3388199999959,
                    "velocity": 0.2440944881889764,
                    "duration": 2.424732000000006
                },
                {
                    "name": "G#3",
                    "midi": 56,
                    "time": 327.3388199999959,
                    "velocity": 0.2440944881889764,
                    "duration": 2.424732000000006
                },
                {
                    "name": "C#4",
                    "midi": 61,
                    "time": 329.7635519999959,
                    "velocity": 0.29133858267716534,
                    "duration": 4.849464000000012
                },
                {
                    "name": "E3",
                    "midi": 52,
                    "time": 329.7635519999959,
                    "velocity": 0.2440944881889764,
                    "duration": 4.849464000000012
                },
                {
                    "name": "G#3",
                    "midi": 56,
                    "time": 329.7635519999959,
                    "velocity": 0.2440944881889764,
                    "duration": 4.849464000000012
                }
            ],
            "controlChanges": {
                "7": [
                    {
                        "number": 7,
                        "time": 0,
                        "value": 0.7874015748031497
                    }
                ],
                "10": [
                    {
                        "number": 10,
                        "time": 0,
                        "value": 0.5039370078740157
                    }
                ],
                "91": [
                    {
                        "number": 91,
                        "time": 0,
                        "value": 1
                    },
                    {
                        "number": 91,
                        "time": 0,
                        "value": 1
                    }
                ]
            },
            "id": 2,
            "name": "PIano right second",
            "instrumentNumber": 0,
            "instrument": "acoustic grand piano",
            "instrumentFamily": "piano",
            "channelNumber": 0,
            "isPercussion": false
        },
        {
            "startTime": 0,
            "duration": 334.61301600000024,
            "length": 217,
            "notes": [
                {
                    "name": "C#2",
                    "midi": 37,
                    "time": 0,
                    "velocity": 0.2755905511811024,
                    "duration": 4.849464
                },
                {
                    "name": "C#3",
                    "midi": 49,
                    "time": 0,
                    "velocity": 0.2755905511811024,
                    "duration": 4.849464
                },
                {
                    "name": "B1",
                    "midi": 35,
                    "time": 4.849464,
                    "velocity": 0.2755905511811024,
                    "duration": 4.849464
                },
                {
                    "name": "B2",
                    "midi": 47,
                    "time": 4.849464,
                    "velocity": 0.2755905511811024,
                    "duration": 4.849464
                },
                {
                    "name": "A2",
                    "midi": 45,
                    "time": 9.698928,
                    "velocity": 0.3228346456692913,
                    "duration": 2.4247320000000006
                },
                {
                    "name": "A1",
                    "midi": 33,
                    "time": 9.698928,
                    "velocity": 0.3228346456692913,
                    "duration": 2.4247320000000006
                },
                {
                    "name": "F#1",
                    "midi": 30,
                    "time": 12.123660000000001,
                    "velocity": 0.2992125984251969,
                    "duration": 2.4247320000000006
                },
                {
                    "name": "F#2",
                    "midi": 42,
                    "time": 12.123660000000001,
                    "velocity": 0.2992125984251969,
                    "duration": 2.4247320000000006
                },
                {
                    "name": "G#1",
                    "midi": 32,
                    "time": 14.548392000000002,
                    "velocity": 0.3228346456692913,
                    "duration": 2.4247320000000006
                },
                {
                    "name": "G#2",
                    "midi": 44,
                    "time": 14.548392000000002,
                    "velocity": 0.3228346456692913,
                    "duration": 2.4247320000000006
                },
                {
                    "name": "G#2",
                    "midi": 44,
                    "time": 16.973124000000002,
                    "velocity": 0.2755905511811024,
                    "duration": 2.4247319999999988
                },
                {
                    "name": "G#1",
                    "midi": 32,
                    "time": 16.973124000000002,
                    "velocity": 0.2755905511811024,
                    "duration": 2.4247319999999988
                },
                {
                    "name": "C#2",
                    "midi": 37,
                    "time": 19.397856,
                    "velocity": 0.2755905511811024,
                    "duration": 4.849464000000001
                },
                {
                    "name": "C#3",
                    "midi": 49,
                    "time": 19.397856,
                    "velocity": 0.2755905511811024,
                    "duration": 4.849464000000001
                },
                {
                    "name": "G#2",
                    "midi": 44,
                    "time": 19.397856,
                    "velocity": 0.2755905511811024,
                    "duration": 4.849464000000001
                },
                {
                    "name": "C2",
                    "midi": 36,
                    "time": 24.247320000000002,
                    "velocity": 0.2992125984251969,
                    "duration": 4.849464000000001
                },
                {
                    "name": "G#2",
                    "midi": 44,
                    "time": 24.247320000000002,
                    "velocity": 0.2992125984251969,
                    "duration": 4.849464000000001
                },
                {
                    "name": "C3",
                    "midi": 48,
                    "time": 24.247320000000002,
                    "velocity": 0.2992125984251969,
                    "duration": 4.849464000000001
                },
                {
                    "name": "C#2",
                    "midi": 37,
                    "time": 29.096784000000003,
                    "velocity": 0.2755905511811024,
                    "duration": 2.4247319999999988
                },
                {
                    "name": "C#3",
                    "midi": 49,
                    "time": 29.096784000000003,
                    "velocity": 0.2755905511811024,
                    "duration": 2.4247319999999988
                },
                {
                    "name": "F#2",
                    "midi": 42,
                    "time": 31.521516000000002,
                    "velocity": 0.25196850393700787,
                    "duration": 2.4247320000000023
                },
                {
                    "name": "F#1",
                    "midi": 30,
                    "time": 31.521516000000002,
                    "velocity": 0.25196850393700787,
                    "duration": 2.4247320000000023
                },
                {
                    "name": "B1",
                    "midi": 35,
                    "time": 33.946248000000004,
                    "velocity": 0.3228346456692913,
                    "duration": 2.4247319999999988
                },
                {
                    "name": "B2",
                    "midi": 47,
                    "time": 33.946248000000004,
                    "velocity": 0.3228346456692913,
                    "duration": 2.4247319999999988
                },
                {
                    "name": "B1",
                    "midi": 35,
                    "time": 36.37098,
                    "velocity": 0.3228346456692913,
                    "duration": 2.4247319999999988
                },
                {
                    "name": "B2",
                    "midi": 47,
                    "time": 36.37098,
                    "velocity": 0.3228346456692913,
                    "duration": 2.4247319999999988
                },
                {
                    "name": "E3",
                    "midi": 52,
                    "time": 38.795712,
                    "velocity": 0.2755905511811024,
                    "duration": 4.8494639999999976
                },
                {
                    "name": "E2",
                    "midi": 40,
                    "time": 38.795712,
                    "velocity": 0.2755905511811024,
                    "duration": 4.8494639999999976
                },
                {
                    "name": "E3",
                    "midi": 52,
                    "time": 43.645176,
                    "velocity": 0.2992125984251969,
                    "duration": 4.8494639999999976
                },
                {
                    "name": "E2",
                    "midi": 40,
                    "time": 43.645176,
                    "velocity": 0.2992125984251969,
                    "duration": 4.8494639999999976
                },
                {
                    "name": "D2",
                    "midi": 38,
                    "time": 48.49464,
                    "velocity": 0.2755905511811024,
                    "duration": 4.8494639999999976
                },
                {
                    "name": "D3",
                    "midi": 50,
                    "time": 48.49464,
                    "velocity": 0.2755905511811024,
                    "duration": 4.8494639999999976
                },
                {
                    "name": "C2",
                    "midi": 36,
                    "time": 53.344103999999994,
                    "velocity": 0.31496062992125984,
                    "duration": 1.212366000000003
                },
                {
                    "name": "C3",
                    "midi": 48,
                    "time": 53.344103999999994,
                    "velocity": 0.31496062992125984,
                    "duration": 1.212366000000003
                },
                {
                    "name": "B2",
                    "midi": 47,
                    "time": 54.55647,
                    "velocity": 0.36220472440944884,
                    "duration": 1.212366000000003
                },
                {
                    "name": "B1",
                    "midi": 35,
                    "time": 54.55647,
                    "velocity": 0.36220472440944884,
                    "duration": 1.212366000000003
                },
                {
                    "name": "A#1",
                    "midi": 34,
                    "time": 55.768836,
                    "velocity": 0.41732283464566927,
                    "duration": 2.4247319999999988
                },
                {
                    "name": "A#2",
                    "midi": 46,
                    "time": 55.768836,
                    "velocity": 0.41732283464566927,
                    "duration": 2.4247319999999988
                },
                {
                    "name": "B1",
                    "midi": 35,
                    "time": 58.193568,
                    "velocity": 0.33070866141732286,
                    "duration": 2.4247319999999988
                },
                {
                    "name": "B2",
                    "midi": 47,
                    "time": 58.193568,
                    "velocity": 0.33070866141732286,
                    "duration": 2.4247319999999988
                },
                {
                    "name": "E2",
                    "midi": 40,
                    "time": 60.6183,
                    "velocity": 0.3228346456692913,
                    "duration": 1.212366000000003
                },
                {
                    "name": "G2",
                    "midi": 43,
                    "time": 61.830666,
                    "velocity": 0.31496062992125984,
                    "duration": 1.212366000000003
                },
                {
                    "name": "F#2",
                    "midi": 42,
                    "time": 63.043032000000004,
                    "velocity": 0.36220472440944884,
                    "duration": 2.4247319999999988
                },
                {
                    "name": "F#1",
                    "midi": 30,
                    "time": 65.467764,
                    "velocity": 0.2755905511811024,
                    "duration": 2.424732000000006
                },
                {
                    "name": "F#2",
                    "midi": 42,
                    "time": 65.467764,
                    "velocity": 0.2755905511811024,
                    "duration": 2.424732000000006
                },
                {
                    "name": "B1",
                    "midi": 35,
                    "time": 67.89249600000001,
                    "velocity": 0.2755905511811024,
                    "duration": 6.0618300000000005
                },
                {
                    "name": "B2",
                    "midi": 47,
                    "time": 67.89249600000001,
                    "velocity": 0.2755905511811024,
                    "duration": 6.0618300000000005
                },
                {
                    "name": "E3",
                    "midi": 52,
                    "time": 73.95432600000001,
                    "velocity": 0.41732283464566927,
                    "duration": 1.212366000000003
                },
                {
                    "name": "E2",
                    "midi": 40,
                    "time": 73.95432600000001,
                    "velocity": 0.41732283464566927,
                    "duration": 1.212366000000003
                },
                {
                    "name": "G2",
                    "midi": 43,
                    "time": 75.16669200000001,
                    "velocity": 0.47244094488188976,
                    "duration": 1.212366000000003
                },
                {
                    "name": "G3",
                    "midi": 55,
                    "time": 75.16669200000001,
                    "velocity": 0.47244094488188976,
                    "duration": 1.212366000000003
                },
                {
                    "name": "E2",
                    "midi": 40,
                    "time": 76.37905800000001,
                    "velocity": 0.3779527559055118,
                    "duration": 1.212366000000003
                },
                {
                    "name": "E3",
                    "midi": 52,
                    "time": 76.37905800000001,
                    "velocity": 0.3779527559055118,
                    "duration": 1.212366000000003
                },
                {
                    "name": "B2",
                    "midi": 47,
                    "time": 77.59142400000002,
                    "velocity": 0.33070866141732286,
                    "duration": 6.0618300000000005
                },
                {
                    "name": "B1",
                    "midi": 35,
                    "time": 77.59142400000002,
                    "velocity": 0.33070866141732286,
                    "duration": 6.0618300000000005
                },
                {
                    "name": "E3",
                    "midi": 52,
                    "time": 83.65325400000002,
                    "velocity": 0.3937007874015748,
                    "duration": 1.212366000000003
                },
                {
                    "name": "E2",
                    "midi": 40,
                    "time": 83.65325400000002,
                    "velocity": 0.3937007874015748,
                    "duration": 1.212366000000003
                },
                {
                    "name": "G2",
                    "midi": 43,
                    "time": 84.86562000000002,
                    "velocity": 0.4330708661417323,
                    "duration": 1.212366000000003
                },
                {
                    "name": "G3",
                    "midi": 55,
                    "time": 84.86562000000002,
                    "velocity": 0.4330708661417323,
                    "duration": 1.212366000000003
                },
                {
                    "name": "E3",
                    "midi": 52,
                    "time": 86.07798600000002,
                    "velocity": 0.3228346456692913,
                    "duration": 1.212366000000003
                },
                {
                    "name": "E2",
                    "midi": 40,
                    "time": 86.07798600000002,
                    "velocity": 0.3228346456692913,
                    "duration": 1.212366000000003
                },
                {
                    "name": "B1",
                    "midi": 35,
                    "time": 87.29035200000003,
                    "velocity": 0.29133858267716534,
                    "duration": 2.424732000000006
                },
                {
                    "name": "B2",
                    "midi": 47,
                    "time": 87.29035200000003,
                    "velocity": 0.29133858267716534,
                    "duration": 2.424732000000006
                },
                {
                    "name": "G#1",
                    "midi": 32,
                    "time": 89.71508400000003,
                    "velocity": 0.2755905511811024,
                    "duration": 2.424732000000006
                },
                {
                    "name": "G#2",
                    "midi": 44,
                    "time": 89.71508400000003,
                    "velocity": 0.2755905511811024,
                    "duration": 2.424732000000006
                },
                {
                    "name": "F2",
                    "midi": 41,
                    "time": 92.13981600000004,
                    "velocity": 0.2755905511811024,
                    "duration": 2.424732000000006
                },
                {
                    "name": "F1",
                    "midi": 29,
                    "time": 92.13981600000004,
                    "velocity": 0.2755905511811024,
                    "duration": 2.424732000000006
                },
                {
                    "name": "F#1",
                    "midi": 30,
                    "time": 94.56454800000004,
                    "velocity": 0.3228346456692913,
                    "duration": 2.424732000000006
                },
                {
                    "name": "F#2",
                    "midi": 42,
                    "time": 94.56454800000004,
                    "velocity": 0.3228346456692913,
                    "duration": 2.424732000000006
                },
                {
                    "name": "B2",
                    "midi": 47,
                    "time": 96.98928000000005,
                    "velocity": 0.3228346456692913,
                    "duration": 2.424732000000006
                },
                {
                    "name": "B1",
                    "midi": 35,
                    "time": 96.98928000000005,
                    "velocity": 0.3228346456692913,
                    "duration": 2.424732000000006
                },
                {
                    "name": "C2",
                    "midi": 36,
                    "time": 99.41401200000006,
                    "velocity": 0.3543307086614173,
                    "duration": 2.424732000000006
                },
                {
                    "name": "C3",
                    "midi": 48,
                    "time": 99.41401200000006,
                    "velocity": 0.3543307086614173,
                    "duration": 2.424732000000006
                },
                {
                    "name": "C#2",
                    "midi": 37,
                    "time": 101.83874400000006,
                    "velocity": 0.2755905511811024,
                    "duration": 2.424732000000006
                },
                {
                    "name": "C#2",
                    "midi": 37,
                    "time": 104.26347600000007,
                    "velocity": 0.2755905511811024,
                    "duration": 2.424732000000006
                },
                {
                    "name": "C#2",
                    "midi": 37,
                    "time": 106.68820800000007,
                    "velocity": 0.2755905511811024,
                    "duration": 4.8494639999999976
                },
                {
                    "name": "F#2",
                    "midi": 42,
                    "time": 106.68820800000007,
                    "velocity": 0.2755905511811024,
                    "duration": 4.8494639999999976
                },
                {
                    "name": "F#1",
                    "midi": 30,
                    "time": 106.68820800000007,
                    "velocity": 0.2755905511811024,
                    "duration": 4.8494639999999976
                },
                {
                    "name": "C#3",
                    "midi": 49,
                    "time": 111.53767200000007,
                    "velocity": 0.25984251968503935,
                    "duration": 4.8494639999999976
                },
                {
                    "name": "F3",
                    "midi": 53,
                    "time": 111.53767200000007,
                    "velocity": 0.25984251968503935,
                    "duration": 4.8494639999999976
                },
                {
                    "name": "F2",
                    "midi": 41,
                    "time": 111.53767200000007,
                    "velocity": 0.25984251968503935,
                    "duration": 4.8494639999999976
                },
                {
                    "name": "F#3",
                    "midi": 54,
                    "time": 116.38713600000007,
                    "velocity": 0.31496062992125984,
                    "duration": 2.424732000000006
                },
                {
                    "name": "F#2",
                    "midi": 42,
                    "time": 116.38713600000007,
                    "velocity": 0.31496062992125984,
                    "duration": 2.424732000000006
                },
                {
                    "name": "D#3",
                    "midi": 51,
                    "time": 118.81186800000008,
                    "velocity": 0.36220472440944884,
                    "duration": 1.212366000000003
                },
                {
                    "name": "D#2",
                    "midi": 39,
                    "time": 118.81186800000008,
                    "velocity": 0.36220472440944884,
                    "duration": 1.212366000000003
                },
                {
                    "name": "C#2",
                    "midi": 37,
                    "time": 120.02423400000008,
                    "velocity": 0.36220472440944884,
                    "duration": 1.212366000000003
                },
                {
                    "name": "C#3",
                    "midi": 49,
                    "time": 120.02423400000008,
                    "velocity": 0.36220472440944884,
                    "duration": 1.212366000000003
                },
                {
                    "name": "C2",
                    "midi": 36,
                    "time": 121.23660000000008,
                    "velocity": 0.3937007874015748,
                    "duration": 3.6370979999999946
                },
                {
                    "name": "G#2",
                    "midi": 44,
                    "time": 121.23660000000008,
                    "velocity": 0.3937007874015748,
                    "duration": 3.6370979999999946
                },
                {
                    "name": "C3",
                    "midi": 48,
                    "time": 121.23660000000008,
                    "velocity": 0.3937007874015748,
                    "duration": 3.6370979999999946
                },
                {
                    "name": "C2",
                    "midi": 36,
                    "time": 124.87369800000008,
                    "velocity": 0.3779527559055118,
                    "duration": 1.212366000000003
                },
                {
                    "name": "G#2",
                    "midi": 44,
                    "time": 124.87369800000008,
                    "velocity": 0.3779527559055118,
                    "duration": 1.212366000000003
                },
                {
                    "name": "C3",
                    "midi": 48,
                    "time": 124.87369800000008,
                    "velocity": 0.3779527559055118,
                    "duration": 1.212366000000003
                },
                {
                    "name": "C#2",
                    "midi": 37,
                    "time": 126.08606400000008,
                    "velocity": 0.4330708661417323,
                    "duration": 2.424732000000006
                },
                {
                    "name": "G#2",
                    "midi": 44,
                    "time": 126.08606400000008,
                    "velocity": 0.4330708661417323,
                    "duration": 2.424732000000006
                },
                {
                    "name": "C#3",
                    "midi": 49,
                    "time": 126.08606400000008,
                    "velocity": 0.4330708661417323,
                    "duration": 2.424732000000006
                },
                {
                    "name": "F#2",
                    "midi": 42,
                    "time": 128.51079600000008,
                    "velocity": 0.36220472440944884,
                    "duration": 1.212366000000003
                },
                {
                    "name": "F#1",
                    "midi": 30,
                    "time": 128.51079600000008,
                    "velocity": 0.36220472440944884,
                    "duration": 1.212366000000003
                },
                {
                    "name": "G1",
                    "midi": 31,
                    "time": 129.7231620000001,
                    "velocity": 0.3543307086614173,
                    "duration": 1.212366000000003
                },
                {
                    "name": "G2",
                    "midi": 43,
                    "time": 129.7231620000001,
                    "velocity": 0.3543307086614173,
                    "duration": 1.212366000000003
                },
                {
                    "name": "G#1",
                    "midi": 32,
                    "time": 130.9355280000001,
                    "velocity": 0.3228346456692913,
                    "duration": 4.849464000000012
                },
                {
                    "name": "G#2",
                    "midi": 44,
                    "time": 130.9355280000001,
                    "velocity": 0.3228346456692913,
                    "duration": 4.849464000000012
                },
                {
                    "name": "G#2",
                    "midi": 44,
                    "time": 135.7849920000001,
                    "velocity": 0.41732283464566927,
                    "duration": 4.849464000000012
                },
                {
                    "name": "G#1",
                    "midi": 32,
                    "time": 135.7849920000001,
                    "velocity": 0.41732283464566927,
                    "duration": 4.849464000000012
                },
                {
                    "name": "G#1",
                    "midi": 32,
                    "time": 140.6344560000001,
                    "velocity": 0.36220472440944884,
                    "duration": 4.849464000000012
                },
                {
                    "name": "G#2",
                    "midi": 44,
                    "time": 140.6344560000001,
                    "velocity": 0.36220472440944884,
                    "duration": 4.849464000000012
                },
                {
                    "name": "G#1",
                    "midi": 32,
                    "time": 145.48392000000013,
                    "velocity": 0.4094488188976378,
                    "duration": 4.849464000000012
                },
                {
                    "name": "G#2",
                    "midi": 44,
                    "time": 145.48392000000013,
                    "velocity": 0.4094488188976378,
                    "duration": 4.849464000000012
                },
                {
                    "name": "G#2",
                    "midi": 44,
                    "time": 150.33338400000014,
                    "velocity": 0.36220472440944884,
                    "duration": 4.849464000000012
                },
                {
                    "name": "G#1",
                    "midi": 32,
                    "time": 150.33338400000014,
                    "velocity": 0.36220472440944884,
                    "duration": 4.849464000000012
                },
                {
                    "name": "G#2",
                    "midi": 44,
                    "time": 155.18284800000015,
                    "velocity": 0.36220472440944884,
                    "duration": 4.849464000000012
                },
                {
                    "name": "G#1",
                    "midi": 32,
                    "time": 155.18284800000015,
                    "velocity": 0.36220472440944884,
                    "duration": 4.849464000000012
                },
                {
                    "name": "G#1",
                    "midi": 32,
                    "time": 160.03231200000016,
                    "velocity": 0.3543307086614173,
                    "duration": 4.849464000000012
                },
                {
                    "name": "G#2",
                    "midi": 44,
                    "time": 160.03231200000016,
                    "velocity": 0.3543307086614173,
                    "duration": 4.849464000000012
                },
                {
                    "name": "G#1",
                    "midi": 32,
                    "time": 164.88177600000017,
                    "velocity": 0.36220472440944884,
                    "duration": 14.548392000000007
                },
                {
                    "name": "G#2",
                    "midi": 44,
                    "time": 164.88177600000017,
                    "velocity": 0.36220472440944884,
                    "duration": 14.548392000000007
                },
                {
                    "name": "G#1",
                    "midi": 32,
                    "time": 179.43016800000018,
                    "velocity": 0.4409448818897638,
                    "duration": 4.849464000000012
                },
                {
                    "name": "G#2",
                    "midi": 44,
                    "time": 179.43016800000018,
                    "velocity": 0.4409448818897638,
                    "duration": 4.849464000000012
                },
                {
                    "name": "G#1",
                    "midi": 32,
                    "time": 184.2796320000002,
                    "velocity": 0.3700787401574803,
                    "duration": 4.849464000000012
                },
                {
                    "name": "G#2",
                    "midi": 44,
                    "time": 184.2796320000002,
                    "velocity": 0.3700787401574803,
                    "duration": 4.849464000000012
                },
                {
                    "name": "G#1",
                    "midi": 32,
                    "time": 189.1290960000002,
                    "velocity": 0.33070866141732286,
                    "duration": 2.424732000000006
                },
                {
                    "name": "G#2",
                    "midi": 44,
                    "time": 189.1290960000002,
                    "velocity": 0.33070866141732286,
                    "duration": 2.424732000000006
                },
                {
                    "name": "A2",
                    "midi": 45,
                    "time": 191.5538280000002,
                    "velocity": 0.3228346456692913,
                    "duration": 2.424732000000006
                },
                {
                    "name": "A1",
                    "midi": 33,
                    "time": 191.5538280000002,
                    "velocity": 0.3228346456692913,
                    "duration": 2.424732000000006
                },
                {
                    "name": "F#1",
                    "midi": 30,
                    "time": 193.97856000000021,
                    "velocity": 0.2755905511811024,
                    "duration": 2.424732000000006
                },
                {
                    "name": "F#2",
                    "midi": 42,
                    "time": 193.97856000000021,
                    "velocity": 0.2755905511811024,
                    "duration": 2.424732000000006
                },
                {
                    "name": "G#2",
                    "midi": 44,
                    "time": 196.40329200000022,
                    "velocity": 0.36220472440944884,
                    "duration": 2.424732000000006
                },
                {
                    "name": "G#1",
                    "midi": 32,
                    "time": 196.40329200000022,
                    "velocity": 0.36220472440944884,
                    "duration": 2.424732000000006
                },
                {
                    "name": "C#2",
                    "midi": 37,
                    "time": 198.82802400000023,
                    "velocity": 0.3228346456692913,
                    "duration": 4.849464000000012
                },
                {
                    "name": "C#3",
                    "midi": 49,
                    "time": 198.82802400000023,
                    "velocity": 0.3228346456692913,
                    "duration": 4.849464000000012
                },
                {
                    "name": "G#2",
                    "midi": 44,
                    "time": 198.82802400000023,
                    "velocity": 0.3228346456692913,
                    "duration": 4.849464000000012
                },
                {
                    "name": "C2",
                    "midi": 36,
                    "time": 203.67748800000024,
                    "velocity": 0.36220472440944884,
                    "duration": 4.849464000000012
                },
                {
                    "name": "C3",
                    "midi": 48,
                    "time": 203.67748800000024,
                    "velocity": 0.36220472440944884,
                    "duration": 4.849464000000012
                },
                {
                    "name": "G#2",
                    "midi": 44,
                    "time": 203.67748800000024,
                    "velocity": 0.36220472440944884,
                    "duration": 4.849464000000012
                },
                {
                    "name": "C#2",
                    "midi": 37,
                    "time": 208.52695200000025,
                    "velocity": 0.36220472440944884,
                    "duration": 2.424732000000006
                },
                {
                    "name": "C#3",
                    "midi": 49,
                    "time": 208.52695200000025,
                    "velocity": 0.36220472440944884,
                    "duration": 2.424732000000006
                },
                {
                    "name": "F#2",
                    "midi": 42,
                    "time": 210.95168400000026,
                    "velocity": 0.36220472440944884,
                    "duration": 2.424732000000006
                },
                {
                    "name": "F#1",
                    "midi": 30,
                    "time": 210.95168400000026,
                    "velocity": 0.36220472440944884,
                    "duration": 2.424732000000006
                },
                {
                    "name": "B1",
                    "midi": 35,
                    "time": 213.37641600000026,
                    "velocity": 0.36220472440944884,
                    "duration": 2.424732000000006
                },
                {
                    "name": "B2",
                    "midi": 47,
                    "time": 213.37641600000026,
                    "velocity": 0.36220472440944884,
                    "duration": 2.424732000000006
                },
                {
                    "name": "B2",
                    "midi": 47,
                    "time": 215.80114800000027,
                    "velocity": 0.36220472440944884,
                    "duration": 2.424732000000006
                },
                {
                    "name": "B1",
                    "midi": 35,
                    "time": 215.80114800000027,
                    "velocity": 0.36220472440944884,
                    "duration": 2.424732000000006
                },
                {
                    "name": "E2",
                    "midi": 40,
                    "time": 218.22588000000027,
                    "velocity": 0.3543307086614173,
                    "duration": 4.849464000000012
                },
                {
                    "name": "E3",
                    "midi": 52,
                    "time": 218.22588000000027,
                    "velocity": 0.3543307086614173,
                    "duration": 4.849464000000012
                },
                {
                    "name": "D#2",
                    "midi": 39,
                    "time": 223.07534400000029,
                    "velocity": 0.2755905511811024,
                    "duration": 4.849464000000012
                },
                {
                    "name": "D#3",
                    "midi": 51,
                    "time": 223.07534400000029,
                    "velocity": 0.2755905511811024,
                    "duration": 4.849464000000012
                },
                {
                    "name": "E3",
                    "midi": 52,
                    "time": 227.9248080000003,
                    "velocity": 0.29133858267716534,
                    "duration": 2.424732000000006
                },
                {
                    "name": "E2",
                    "midi": 40,
                    "time": 227.9248080000003,
                    "velocity": 0.29133858267716534,
                    "duration": 2.424732000000006
                },
                {
                    "name": "D#2",
                    "midi": 39,
                    "time": 230.3495400000003,
                    "velocity": 0.29133858267716534,
                    "duration": 1.212366000000003
                },
                {
                    "name": "D#3",
                    "midi": 51,
                    "time": 230.3495400000003,
                    "velocity": 0.29133858267716534,
                    "duration": 1.212366000000003
                },
                {
                    "name": "C#3",
                    "midi": 49,
                    "time": 231.5619060000003,
                    "velocity": 0.31496062992125984,
                    "duration": 1.212366000000003
                },
                {
                    "name": "C#2",
                    "midi": 37,
                    "time": 231.5619060000003,
                    "velocity": 0.31496062992125984,
                    "duration": 1.212366000000003
                },
                {
                    "name": "C2",
                    "midi": 36,
                    "time": 232.7742720000003,
                    "velocity": 0.3543307086614173,
                    "duration": 2.424732000000006
                },
                {
                    "name": "C3",
                    "midi": 48,
                    "time": 232.7742720000003,
                    "velocity": 0.3543307086614173,
                    "duration": 2.424732000000006
                },
                {
                    "name": "G#2",
                    "midi": 44,
                    "time": 232.7742720000003,
                    "velocity": 0.3543307086614173,
                    "duration": 2.424732000000006
                },
                {
                    "name": "C#2",
                    "midi": 37,
                    "time": 235.19900400000031,
                    "velocity": 0.2992125984251969,
                    "duration": 2.424732000000006
                },
                {
                    "name": "C#3",
                    "midi": 49,
                    "time": 235.19900400000031,
                    "velocity": 0.2992125984251969,
                    "duration": 2.424732000000006
                },
                {
                    "name": "G#2",
                    "midi": 44,
                    "time": 235.19900400000031,
                    "velocity": 0.2992125984251969,
                    "duration": 2.424732000000006
                },
                {
                    "name": "F#1",
                    "midi": 30,
                    "time": 237.62373600000032,
                    "velocity": 0.3228346456692913,
                    "duration": 2.424732000000006
                },
                {
                    "name": "F#2",
                    "midi": 42,
                    "time": 237.62373600000032,
                    "velocity": 0.3228346456692913,
                    "duration": 2.424732000000006
                },
                {
                    "name": "G#1",
                    "midi": 32,
                    "time": 240.04846800000033,
                    "velocity": 0.3228346456692913,
                    "duration": 2.424732000000006
                },
                {
                    "name": "G#2",
                    "midi": 44,
                    "time": 240.04846800000033,
                    "velocity": 0.3228346456692913,
                    "duration": 2.424732000000006
                },
                {
                    "name": "C#3",
                    "midi": 49,
                    "time": 242.47320000000033,
                    "velocity": 0.2992125984251969,
                    "duration": 6.061830000000015
                },
                {
                    "name": "C#2",
                    "midi": 37,
                    "time": 242.47320000000033,
                    "velocity": 0.2992125984251969,
                    "duration": 6.061830000000015
                },
                {
                    "name": "F#3",
                    "midi": 54,
                    "time": 248.53503000000035,
                    "velocity": 0.3700787401574803,
                    "duration": 1.212366000000003
                },
                {
                    "name": "F#2",
                    "midi": 42,
                    "time": 248.53503000000035,
                    "velocity": 0.3700787401574803,
                    "duration": 1.212366000000003
                },
                {
                    "name": "A2",
                    "midi": 45,
                    "time": 249.74739600000035,
                    "velocity": 0.4409448818897638,
                    "duration": 1.212366000000003
                },
                {
                    "name": "A3",
                    "midi": 57,
                    "time": 249.74739600000035,
                    "velocity": 0.4409448818897638,
                    "duration": 1.212366000000003
                },
                {
                    "name": "F#3",
                    "midi": 54,
                    "time": 250.95976200000035,
                    "velocity": 0.3937007874015748,
                    "duration": 1.212366000000003
                },
                {
                    "name": "F#2",
                    "midi": 42,
                    "time": 250.95976200000035,
                    "velocity": 0.3937007874015748,
                    "duration": 1.212366000000003
                },
                {
                    "name": "C#2",
                    "midi": 37,
                    "time": 252.17212800000036,
                    "velocity": 0.3228346456692913,
                    "duration": 6.061830000000015
                },
                {
                    "name": "C#3",
                    "midi": 49,
                    "time": 252.17212800000036,
                    "velocity": 0.3228346456692913,
                    "duration": 6.061830000000015
                },
                {
                    "name": "F#2",
                    "midi": 42,
                    "time": 258.23395800000037,
                    "velocity": 0.3779527559055118,
                    "duration": 1.2123659999999745
                },
                {
                    "name": "F#3",
                    "midi": 54,
                    "time": 258.23395800000037,
                    "velocity": 0.3779527559055118,
                    "duration": 1.2123659999999745
                },
                {
                    "name": "A3",
                    "midi": 57,
                    "time": 259.44632400000035,
                    "velocity": 0.44881889763779526,
                    "duration": 1.2123659999999745
                },
                {
                    "name": "A2",
                    "midi": 45,
                    "time": 259.44632400000035,
                    "velocity": 0.44881889763779526,
                    "duration": 1.2123659999999745
                },
                {
                    "name": "F#2",
                    "midi": 42,
                    "time": 260.6586900000003,
                    "velocity": 0.3779527559055118,
                    "duration": 1.2123659999999745
                },
                {
                    "name": "F#3",
                    "midi": 54,
                    "time": 260.6586900000003,
                    "velocity": 0.3779527559055118,
                    "duration": 1.2123659999999745
                },
                {
                    "name": "C#3",
                    "midi": 49,
                    "time": 261.8710560000003,
                    "velocity": 0.31496062992125984,
                    "duration": 2.424732000000006
                },
                {
                    "name": "C#2",
                    "midi": 37,
                    "time": 261.8710560000003,
                    "velocity": 0.31496062992125984,
                    "duration": 2.424732000000006
                },
                {
                    "name": "F#1",
                    "midi": 30,
                    "time": 264.2957880000003,
                    "velocity": 0.33070866141732286,
                    "duration": 2.424732000000006
                },
                {
                    "name": "F#2",
                    "midi": 42,
                    "time": 264.2957880000003,
                    "velocity": 0.33070866141732286,
                    "duration": 2.424732000000006
                },
                {
                    "name": "D#2",
                    "midi": 39,
                    "time": 266.7205200000003,
                    "velocity": 0.3543307086614173,
                    "duration": 3.6370979999999804
                },
                {
                    "name": "D#3",
                    "midi": 51,
                    "time": 266.7205200000003,
                    "velocity": 0.3543307086614173,
                    "duration": 3.6370979999999804
                },
                {
                    "name": "E2",
                    "midi": 40,
                    "time": 270.3576180000003,
                    "velocity": 0.3228346456692913,
                    "duration": 1.2123659999999745
                },
                {
                    "name": "E3",
                    "midi": 52,
                    "time": 270.3576180000003,
                    "velocity": 0.3228346456692913,
                    "duration": 1.2123659999999745
                },
                {
                    "name": "C#2",
                    "midi": 37,
                    "time": 271.56998400000026,
                    "velocity": 0.36220472440944884,
                    "duration": 1.2123659999999745
                },
                {
                    "name": "C#3",
                    "midi": 49,
                    "time": 271.56998400000026,
                    "velocity": 0.36220472440944884,
                    "duration": 1.2123659999999745
                },
                {
                    "name": "D#2",
                    "midi": 39,
                    "time": 272.78235000000024,
                    "velocity": 0.31496062992125984,
                    "duration": 1.2123659999999745
                },
                {
                    "name": "D#3",
                    "midi": 51,
                    "time": 272.78235000000024,
                    "velocity": 0.31496062992125984,
                    "duration": 1.2123659999999745
                },
                {
                    "name": "C3",
                    "midi": 48,
                    "time": 273.9947160000002,
                    "velocity": 0.36220472440944884,
                    "duration": 1.2123659999999745
                },
                {
                    "name": "C2",
                    "midi": 36,
                    "time": 273.9947160000002,
                    "velocity": 0.36220472440944884,
                    "duration": 1.2123659999999745
                },
                {
                    "name": "C#3",
                    "midi": 49,
                    "time": 275.2070820000002,
                    "velocity": 0.31496062992125984,
                    "duration": 1.2123659999999745
                },
                {
                    "name": "C#2",
                    "midi": 37,
                    "time": 275.2070820000002,
                    "velocity": 0.31496062992125984,
                    "duration": 1.2123659999999745
                },
                {
                    "name": "A1",
                    "midi": 33,
                    "time": 276.41944800000016,
                    "velocity": 0.36220472440944884,
                    "duration": 2.424732000000006
                },
                {
                    "name": "A2",
                    "midi": 45,
                    "time": 276.41944800000016,
                    "velocity": 0.36220472440944884,
                    "duration": 2.424732000000006
                },
                {
                    "name": "G#1",
                    "midi": 32,
                    "time": 278.84418000000016,
                    "velocity": 0.3937007874015748,
                    "duration": 1.2123659999999745
                },
                {
                    "name": "G#2",
                    "midi": 44,
                    "time": 278.84418000000016,
                    "velocity": 0.3937007874015748,
                    "duration": 1.2123659999999745
                },
                {
                    "name": "F#2",
                    "midi": 42,
                    "time": 280.05654600000014,
                    "velocity": 0.44881889763779526,
                    "duration": 1.2123659999999745
                },
                {
                    "name": "F#1",
                    "midi": 30,
                    "time": 280.05654600000014,
                    "velocity": 0.44881889763779526,
                    "duration": 1.2123659999999745
                },
                {
                    "name": "G#1",
                    "midi": 32,
                    "time": 281.2689120000001,
                    "velocity": 0.36220472440944884,
                    "duration": 2.424732000000006
                },
                {
                    "name": "G#2",
                    "midi": 44,
                    "time": 281.2689120000001,
                    "velocity": 0.36220472440944884,
                    "duration": 2.424732000000006
                },
                {
                    "name": "G#1",
                    "midi": 32,
                    "time": 283.6936440000001,
                    "velocity": 0.36220472440944884,
                    "duration": 2.424732000000006
                },
                {
                    "name": "G#2",
                    "midi": 44,
                    "time": 283.6936440000001,
                    "velocity": 0.36220472440944884,
                    "duration": 2.424732000000006
                },
                {
                    "name": "C#2",
                    "midi": 37,
                    "time": 286.1183760000001,
                    "velocity": 0.29133858267716534,
                    "duration": 4.849464000000012
                },
                {
                    "name": "C2",
                    "midi": 36,
                    "time": 290.96784000000014,
                    "velocity": 0.29133858267716534,
                    "duration": 4.849464000000012
                },
                {
                    "name": "C#2",
                    "midi": 37,
                    "time": 295.81730400000015,
                    "velocity": 0.29133858267716534,
                    "duration": 4.849464000000012
                },
                {
                    "name": "G#1",
                    "midi": 32,
                    "time": 300.66676800000016,
                    "velocity": 0.29133858267716534,
                    "duration": 4.849464000000012
                },
                {
                    "name": "C#2",
                    "midi": 37,
                    "time": 305.5162320000002,
                    "velocity": 0.29133858267716534,
                    "duration": 4.849464000000012
                },
                {
                    "name": "G#1",
                    "midi": 32,
                    "time": 310.3656960000002,
                    "velocity": 0.29133858267716534,
                    "duration": 4.849464000000012
                },
                {
                    "name": "C#2",
                    "midi": 37,
                    "time": 315.2151600000002,
                    "velocity": 0.29133858267716534,
                    "duration": 7.274196000000018
                },
                {
                    "name": "G#2",
                    "midi": 44,
                    "time": 327.3388200000002,
                    "velocity": 0.2047244094488189,
                    "duration": 2.424732000000006
                },
                {
                    "name": "C#3",
                    "midi": 49,
                    "time": 327.3388200000002,
                    "velocity": 0.2440944881889764,
                    "duration": 2.424732000000006
                },
                {
                    "name": "C#2",
                    "midi": 37,
                    "time": 327.3388200000002,
                    "velocity": 0.2047244094488189,
                    "duration": 2.424732000000006
                },
                {
                    "name": "G#2",
                    "midi": 44,
                    "time": 329.76355200000023,
                    "velocity": 0.2047244094488189,
                    "duration": 4.849464000000012
                },
                {
                    "name": "C#3",
                    "midi": 49,
                    "time": 329.76355200000023,
                    "velocity": 0.2440944881889764,
                    "duration": 4.849464000000012
                },
                {
                    "name": "C#2",
                    "midi": 37,
                    "time": 329.76355200000023,
                    "velocity": 0.2047244094488189,
                    "duration": 4.849464000000012
                }
            ],
            "controlChanges": {
                "7": [
                    {
                        "number": 7,
                        "time": 0,
                        "value": 0.7874015748031497
                    }
                ],
                "10": [
                    {
                        "number": 10,
                        "time": 0,
                        "value": 0.5039370078740157
                    }
                ],
                "91": [
                    {
                        "number": 91,
                        "time": 0,
                        "value": 1
                    }
                ]
            },
            "id": 3,
            "name": "Piano left",
            "instrumentNumber": 0,
            "instrument": "acoustic grand piano",
            "instrumentFamily": "piano",
            "channelNumber": 0,
            "isPercussion": false
        },
        {
            "startTime": 0,
            "duration": 0,
            "length": 0,
            "notes": [],
            "controlChanges": {
                "64": [
                    {
                        "number": 64,
                        "time": 0.2854111625,
                        "value": 1
                    },
                    {
                        "number": 64,
                        "time": 4.874721625,
                        "value": 0
                    },
                    {
                        "number": 64,
                        "time": 5.1702358375,
                        "value": 1
                    },
                    {
                        "number": 64,
                        "time": 9.724185625,
                        "value": 0
                    },
                    {
                        "number": 64,
                        "time": 9.9439269625,
                        "value": 1
                    },
                    {
                        "number": 64,
                        "time": 12.169123725,
                        "value": 0
                    },
                    {
                        "number": 64,
                        "time": 12.3686589625,
                        "value": 1
                    },
                    {
                        "number": 64,
                        "time": 14.5913299625,
                        "value": 0
                    },
                    {
                        "number": 64,
                        "time": 14.7933909625,
                        "value": 1
                    },
                    {
                        "number": 64,
                        "time": 15.854211212500001,
                        "value": 0
                    },
                    {
                        "number": 64,
                        "time": 15.99312815,
                        "value": 1
                    },
                    {
                        "number": 64,
                        "time": 17.008484675000002,
                        "value": 0
                    },
                    {
                        "number": 64,
                        "time": 17.2332775375,
                        "value": 1
                    },
                    {
                        "number": 64,
                        "time": 18.215799150000002,
                        "value": 0
                    },
                    {
                        "number": 64,
                        "time": 18.417860150000003,
                        "value": 1
                    },
                    {
                        "number": 64,
                        "time": 19.440793962500003,
                        "value": 0
                    },
                    {
                        "number": 64,
                        "time": 19.7009475,
                        "value": 1
                    },
                    {
                        "number": 64,
                        "time": 24.275103387500003,
                        "value": 0
                    },
                    {
                        "number": 64,
                        "time": 24.568091837500003,
                        "value": 1
                    },
                    {
                        "number": 64,
                        "time": 29.1245673875,
                        "value": 0
                    },
                    {
                        "number": 64,
                        "time": 29.3114738125,
                        "value": 1
                    },
                    {
                        "number": 64,
                        "time": 31.566979725,
                        "value": 0
                    },
                    {
                        "number": 64,
                        "time": 31.859968175,
                        "value": 1
                    },
                    {
                        "number": 64,
                        "time": 33.9891859625,
                        "value": 0
                    },
                    {
                        "number": 64,
                        "time": 34.1962984875,
                        "value": 1
                    },
                    {
                        "number": 64,
                        "time": 36.4038149125,
                        "value": 0
                    },
                    {
                        "number": 64,
                        "time": 36.6563911625,
                        "value": 1
                    },
                    {
                        "number": 64,
                        "time": 38.8361242,
                        "value": 0
                    },
                    {
                        "number": 64,
                        "time": 39.0811231625,
                        "value": 1
                    },
                    {
                        "number": 64,
                        "time": 40.051015962499996,
                        "value": 0
                    },
                    {
                        "number": 64,
                        "time": 40.293489162499995,
                        "value": 1
                    },
                    {
                        "number": 64,
                        "time": 43.667907862499995,
                        "value": 0
                    },
                    {
                        "number": 64,
                        "time": 43.834608187499995,
                        "value": 1
                    },
                    {
                        "number": 64,
                        "time": 48.52494915,
                        "value": 0
                    },
                    {
                        "number": 64,
                        "time": 48.72701015,
                        "value": 1
                    },
                    {
                        "number": 64,
                        "time": 53.3845162,
                        "value": 0
                    },
                    {
                        "number": 64,
                        "time": 53.546165,
                        "value": 1
                    },
                    {
                        "number": 64,
                        "time": 54.594356437500004,
                        "value": 0
                    },
                    {
                        "number": 64,
                        "time": 54.758531000000005,
                        "value": 1
                    },
                    {
                        "number": 64,
                        "time": 55.819351250000004,
                        "value": 0
                    },
                    {
                        "number": 64,
                        "time": 56.04414411250001,
                        "value": 1
                    },
                    {
                        "number": 64,
                        "time": 57.0140369125,
                        "value": 0
                    },
                    {
                        "number": 64,
                        "time": 57.170634187500006,
                        "value": 1
                    },
                    {
                        "number": 64,
                        "time": 58.231454437500005,
                        "value": 0
                    },
                    {
                        "number": 64,
                        "time": 58.42593815000001,
                        "value": 1
                    },
                    {
                        "number": 64,
                        "time": 60.651134912500005,
                        "value": 0
                    },
                    {
                        "number": 64,
                        "time": 60.850670150000006,
                        "value": 1
                    },
                    {
                        "number": 64,
                        "time": 63.08344420000001,
                        "value": 0
                    },
                    {
                        "number": 64,
                        "time": 63.21730961250001,
                        "value": 1
                    },
                    {
                        "number": 64,
                        "time": 65.51070196250001,
                        "value": 0
                    },
                    {
                        "number": 64,
                        "time": 65.71276296250001,
                        "value": 1
                    },
                    {
                        "number": 64,
                        "time": 67.92280515,
                        "value": 0
                    },
                    {
                        "number": 64,
                        "time": 68.09455700000001,
                        "value": 1
                    },
                    {
                        "number": 64,
                        "time": 70.3576402,
                        "value": 0
                    },
                    {
                        "number": 64,
                        "time": 70.46119646250001,
                        "value": 1
                    },
                    {
                        "number": 64,
                        "time": 72.78489796250001,
                        "value": 0
                    },
                    {
                        "number": 64,
                        "time": 72.8859284625,
                        "value": 1
                    },
                    {
                        "number": 64,
                        "time": 76.4270474875,
                        "value": 0
                    },
                    {
                        "number": 64,
                        "time": 76.581119,
                        "value": 1
                    },
                    {
                        "number": 64,
                        "time": 77.63688772500001,
                        "value": 0
                    },
                    {
                        "number": 64,
                        "time": 77.91219583750001,
                        "value": 1
                    },
                    {
                        "number": 64,
                        "time": 82.4813002,
                        "value": 0
                    },
                    {
                        "number": 64,
                        "time": 82.58485646250001,
                        "value": 1
                    },
                    {
                        "number": 64,
                        "time": 86.12344972500001,
                        "value": 0
                    },
                    {
                        "number": 64,
                        "time": 86.28004700000001,
                        "value": 1
                    },
                    {
                        "number": 64,
                        "time": 87.3282384375,
                        "value": 0
                    },
                    {
                        "number": 64,
                        "time": 87.43432046250001,
                        "value": 1
                    },
                    {
                        "number": 64,
                        "time": 89.75549620000001,
                        "value": 0
                    },
                    {
                        "number": 64,
                        "time": 90.00554668750001,
                        "value": 1
                    },
                    {
                        "number": 64,
                        "time": 92.17517667500002,
                        "value": 0
                    },
                    {
                        "number": 64,
                        "time": 92.40754682500001,
                        "value": 1
                    },
                    {
                        "number": 64,
                        "time": 94.59738291250001,
                        "value": 0
                    },
                    {
                        "number": 64,
                        "time": 94.832278825,
                        "value": 1
                    },
                    {
                        "number": 64,
                        "time": 97.0120118625,
                        "value": 0
                    },
                    {
                        "number": 64,
                        "time": 97.2342789625,
                        "value": 1
                    },
                    {
                        "number": 64,
                        "time": 99.4518984375,
                        "value": 0
                    },
                    {
                        "number": 64,
                        "time": 99.6590109625,
                        "value": 1
                    },
                    {
                        "number": 64,
                        "time": 101.8715789125,
                        "value": 0
                    },
                    {
                        "number": 64,
                        "time": 102.07111415,
                        "value": 1
                    },
                    {
                        "number": 64,
                        "time": 104.3013624375,
                        "value": 0
                    },
                    {
                        "number": 64,
                        "time": 104.48069157500001,
                        "value": 1
                    },
                    {
                        "number": 64,
                        "time": 105.50867691250001,
                        "value": 0
                    },
                    {
                        "number": 64,
                        "time": 105.6501196125,
                        "value": 1
                    },
                    {
                        "number": 64,
                        "time": 106.72356867500001,
                        "value": 0
                    },
                    {
                        "number": 64,
                        "time": 106.97361916250001,
                        "value": 1
                    },
                    {
                        "number": 64,
                        "time": 111.58566148750002,
                        "value": 0
                    },
                    {
                        "number": 64,
                        "time": 111.77004215000002,
                        "value": 1
                    },
                    {
                        "number": 64,
                        "time": 116.41997091250002,
                        "value": 0
                    },
                    {
                        "number": 64,
                        "time": 116.58919700000001,
                        "value": 1
                    },
                    {
                        "number": 64,
                        "time": 118.85228020000001,
                        "value": 0
                    },
                    {
                        "number": 64,
                        "time": 119.02908357500002,
                        "value": 1
                    },
                    {
                        "number": 64,
                        "time": 120.06969772500001,
                        "value": 0
                    },
                    {
                        "number": 64,
                        "time": 120.2995421125,
                        "value": 1
                    },
                    {
                        "number": 64,
                        "time": 121.2770122,
                        "value": 0
                    },
                    {
                        "number": 64,
                        "time": 121.504330825,
                        "value": 1
                    },
                    {
                        "number": 64,
                        "time": 126.1264762,
                        "value": 0
                    },
                    {
                        "number": 64,
                        "time": 126.2451870375,
                        "value": 1
                    },
                    {
                        "number": 64,
                        "time": 128.56888853750002,
                        "value": 0
                    },
                    {
                        "number": 64,
                        "time": 128.82904207500002,
                        "value": 1
                    },
                    {
                        "number": 64,
                        "time": 129.76862572500002,
                        "value": 0
                    },
                    {
                        "number": 64,
                        "time": 129.95553215,
                        "value": 1
                    },
                    {
                        "number": 64,
                        "time": 130.98099172500002,
                        "value": 0
                    },
                    {
                        "number": 64,
                        "time": 131.15274357500002,
                        "value": 1
                    },
                    {
                        "number": 64,
                        "time": 132.18830620000003,
                        "value": 0
                    },
                    {
                        "number": 64,
                        "time": 132.36510957500002,
                        "value": 1
                    },
                    {
                        "number": 64,
                        "time": 133.39309491250003,
                        "value": 0
                    },
                    {
                        "number": 64,
                        "time": 133.57747557500002,
                        "value": 1
                    },
                    {
                        "number": 64,
                        "time": 134.60293515000004,
                        "value": 0
                    },
                    {
                        "number": 64,
                        "time": 134.76205818750003,
                        "value": 1
                    },
                    {
                        "number": 64,
                        "time": 135.82287843750004,
                        "value": 0
                    },
                    {
                        "number": 64,
                        "time": 136.01736215000003,
                        "value": 1
                    },
                    {
                        "number": 64,
                        "time": 137.04787325000004,
                        "value": 0
                    },
                    {
                        "number": 64,
                        "time": 137.22972815000003,
                        "value": 1
                    },
                    {
                        "number": 64,
                        "time": 138.25771348750004,
                        "value": 0
                    },
                    {
                        "number": 64,
                        "time": 138.41178500000004,
                        "value": 1
                    },
                    {
                        "number": 64,
                        "time": 139.45239915000005,
                        "value": 0
                    },
                    {
                        "number": 64,
                        "time": 139.63930557500004,
                        "value": 1
                    },
                    {
                        "number": 64,
                        "time": 140.66981667500005,
                        "value": 0
                    },
                    {
                        "number": 64,
                        "time": 140.97290817500004,
                        "value": 1
                    },
                    {
                        "number": 64,
                        "time": 141.89228572500005,
                        "value": 0
                    },
                    {
                        "number": 64,
                        "time": 142.09687248750006,
                        "value": 1
                    },
                    {
                        "number": 64,
                        "time": 143.10465172500005,
                        "value": 0
                    },
                    {
                        "number": 64,
                        "time": 143.32691882500006,
                        "value": 1
                    },
                    {
                        "number": 64,
                        "time": 144.31449196250006,
                        "value": 0
                    },
                    {
                        "number": 64,
                        "time": 144.59232583750006,
                        "value": 1
                    },
                    {
                        "number": 64,
                        "time": 145.51928067500006,
                        "value": 0
                    },
                    {
                        "number": 64,
                        "time": 145.69860981250005,
                        "value": 1
                    },
                    {
                        "number": 64,
                        "time": 146.73669820000006,
                        "value": 0
                    },
                    {
                        "number": 64,
                        "time": 146.94633648750008,
                        "value": 1
                    },
                    {
                        "number": 64,
                        "time": 147.95158996250007,
                        "value": 0
                    },
                    {
                        "number": 64,
                        "time": 148.08798113750007,
                        "value": 1
                    },
                    {
                        "number": 64,
                        "time": 149.17153325000007,
                        "value": 0
                    },
                    {
                        "number": 64,
                        "time": 149.35338815000006,
                        "value": 1
                    },
                    {
                        "number": 64,
                        "time": 150.38389925000007,
                        "value": 0
                    },
                    {
                        "number": 64,
                        "time": 150.53544500000007,
                        "value": 1
                    },
                    {
                        "number": 64,
                        "time": 151.58868796250007,
                        "value": 0
                    },
                    {
                        "number": 64,
                        "time": 151.73518218750007,
                        "value": 1
                    },
                    {
                        "number": 64,
                        "time": 152.39945772500008,
                        "value": 0
                    },
                    {
                        "number": 64,
                        "time": 152.57120957500007,
                        "value": 1
                    },
                    {
                        "number": 64,
                        "time": 153.21275325000008,
                        "value": 0
                    },
                    {
                        "number": 64,
                        "time": 153.37945357500007,
                        "value": 1
                    },
                    {
                        "number": 64,
                        "time": 154.01089420000008,
                        "value": 0
                    },
                    {
                        "number": 64,
                        "time": 154.14475961250008,
                        "value": 1
                    },
                    {
                        "number": 64,
                        "time": 154.82166396250008,
                        "value": 0
                    },
                    {
                        "number": 64,
                        "time": 154.95300361250008,
                        "value": 1
                    },
                    {
                        "number": 64,
                        "time": 155.1929510500001,
                        "value": 0
                    },
                    {
                        "number": 64,
                        "time": 155.4859395000001,
                        "value": 1
                    },
                    {
                        "number": 64,
                        "time": 160.03231200000008,
                        "value": 0
                    },
                    {
                        "number": 64,
                        "time": 160.20658961250007,
                        "value": 1
                    },
                    {
                        "number": 64,
                        "time": 160.47684620000007,
                        "value": 0
                    },
                    {
                        "number": 64,
                        "time": 160.62586618750007,
                        "value": 1
                    },
                    {
                        "number": 64,
                        "time": 161.28761596250007,
                        "value": 0
                    },
                    {
                        "number": 64,
                        "time": 161.40380103750007,
                        "value": 1
                    },
                    {
                        "number": 64,
                        "time": 162.08575691250007,
                        "value": 0
                    },
                    {
                        "number": 64,
                        "time": 162.25498300000007,
                        "value": 1
                    },
                    {
                        "number": 64,
                        "time": 162.90410396250007,
                        "value": 0
                    },
                    {
                        "number": 64,
                        "time": 163.10616496250006,
                        "value": 1
                    },
                    {
                        "number": 64,
                        "time": 163.70729643750005,
                        "value": 0
                    },
                    {
                        "number": 64,
                        "time": 163.82853303750005,
                        "value": 1
                    },
                    {
                        "number": 64,
                        "time": 164.50796315000005,
                        "value": 0
                    },
                    {
                        "number": 64,
                        "time": 164.63677703750005,
                        "value": 1
                    },
                    {
                        "number": 64,
                        "time": 164.91966243750005,
                        "value": 0
                    },
                    {
                        "number": 64,
                        "time": 165.08383700000005,
                        "value": 1
                    },
                    {
                        "number": 64,
                        "time": 165.34146477500005,
                        "value": 0
                    },
                    {
                        "number": 64,
                        "time": 165.47533018750005,
                        "value": 1
                    },
                    {
                        "number": 64,
                        "time": 166.13202843750005,
                        "value": 0
                    },
                    {
                        "number": 64,
                        "time": 166.26841961250005,
                        "value": 1
                    },
                    {
                        "number": 64,
                        "time": 166.94784972500005,
                        "value": 0
                    },
                    {
                        "number": 64,
                        "time": 167.04635446250006,
                        "value": 1
                    },
                    {
                        "number": 64,
                        "time": 167.74346491250006,
                        "value": 0
                    },
                    {
                        "number": 64,
                        "time": 167.86975303750006,
                        "value": 1
                    },
                    {
                        "number": 64,
                        "time": 168.55676043750006,
                        "value": 0
                    },
                    {
                        "number": 64,
                        "time": 168.70830618750006,
                        "value": 1
                    },
                    {
                        "number": 64,
                        "time": 169.36753020000006,
                        "value": 0
                    },
                    {
                        "number": 64,
                        "time": 169.51655018750006,
                        "value": 1
                    },
                    {
                        "number": 64,
                        "time": 169.75144610000007,
                        "value": 0
                    },
                    {
                        "number": 64,
                        "time": 169.94845557500005,
                        "value": 1
                    },
                    {
                        "number": 64,
                        "time": 171.77710762500004,
                        "value": 0
                    },
                    {
                        "number": 64,
                        "time": 171.96906557500003,
                        "value": 1
                    },
                    {
                        "number": 64,
                        "time": 174.22204572500004,
                        "value": 0
                    },
                    {
                        "number": 64,
                        "time": 174.43673553750006,
                        "value": 1
                    },
                    {
                        "number": 64,
                        "time": 176.64930348750005,
                        "value": 0
                    },
                    {
                        "number": 64,
                        "time": 176.74780822500006,
                        "value": 1
                    },
                    {
                        "number": 64,
                        "time": 177.45249596250005,
                        "value": 0
                    },
                    {
                        "number": 64,
                        "time": 177.56868103750006,
                        "value": 1
                    },
                    {
                        "number": 64,
                        "time": 178.25821420000005,
                        "value": 0
                    },
                    {
                        "number": 64,
                        "time": 178.36177046250006,
                        "value": 1
                    },
                    {
                        "number": 64,
                        "time": 179.53119850000007,
                        "value": 0
                    },
                    {
                        "number": 64,
                        "time": 179.67516696250007,
                        "value": 1
                    },
                    {
                        "number": 64,
                        "time": 180.68799772500006,
                        "value": 0
                    },
                    {
                        "number": 64,
                        "time": 180.83196618750006,
                        "value": 1
                    },
                    {
                        "number": 64,
                        "time": 181.89278643750006,
                        "value": 0
                    },
                    {
                        "number": 64,
                        "time": 182.04433218750006,
                        "value": 1
                    },
                    {
                        "number": 64,
                        "time": 183.09757515000007,
                        "value": 0
                    },
                    {
                        "number": 64,
                        "time": 183.24154361250007,
                        "value": 1
                    },
                    {
                        "number": 64,
                        "time": 184.32256996250007,
                        "value": 0
                    },
                    {
                        "number": 64,
                        "time": 184.48169300000006,
                        "value": 1
                    },
                    {
                        "number": 64,
                        "time": 185.53493596250007,
                        "value": 0
                    },
                    {
                        "number": 64,
                        "time": 185.78246068750008,
                        "value": 1
                    },
                    {
                        "number": 64,
                        "time": 186.74477620000008,
                        "value": 0
                    },
                    {
                        "number": 64,
                        "time": 186.92157957500007,
                        "value": 1
                    },
                    {
                        "number": 64,
                        "time": 187.96471948750008,
                        "value": 0
                    },
                    {
                        "number": 64,
                        "time": 188.10616218750008,
                        "value": 1
                    },
                    {
                        "number": 64,
                        "time": 189.17455972500008,
                        "value": 0
                    },
                    {
                        "number": 64,
                        "time": 189.30337361250008,
                        "value": 1
                    },
                    {
                        "number": 64,
                        "time": 190.3717711500001,
                        "value": 0
                    },
                    {
                        "number": 64,
                        "time": 190.57383215000007,
                        "value": 1
                    },
                    {
                        "number": 64,
                        "time": 191.58413715000006,
                        "value": 0
                    },
                    {
                        "number": 64,
                        "time": 191.75588900000005,
                        "value": 1
                    },
                    {
                        "number": 64,
                        "time": 194.02907525000006,
                        "value": 0
                    },
                    {
                        "number": 64,
                        "time": 194.23871353750008,
                        "value": 1
                    },
                    {
                        "number": 64,
                        "time": 196.45380725000007,
                        "value": 0
                    },
                    {
                        "number": 64,
                        "time": 196.67860011250008,
                        "value": 1
                    },
                    {
                        "number": 64,
                        "time": 197.65859596250007,
                        "value": 0
                    },
                    {
                        "number": 64,
                        "time": 197.81771900000007,
                        "value": 1
                    },
                    {
                        "number": 64,
                        "time": 198.86085891250008,
                        "value": 0
                    },
                    {
                        "number": 64,
                        "time": 199.06039415000006,
                        "value": 1
                    },
                    {
                        "number": 64,
                        "time": 203.71790020000006,
                        "value": 0
                    },
                    {
                        "number": 64,
                        "time": 203.87449747500006,
                        "value": 1
                    },
                    {
                        "number": 64,
                        "time": 208.55473538750005,
                        "value": 0
                    },
                    {
                        "number": 64,
                        "time": 208.81236316250005,
                        "value": 1
                    },
                    {
                        "number": 64,
                        "time": 210.99714772500005,
                        "value": 0
                    },
                    {
                        "number": 64,
                        "time": 211.18405415000004,
                        "value": 1
                    },
                    {
                        "number": 64,
                        "time": 213.40672515000003,
                        "value": 0
                    },
                    {
                        "number": 64,
                        "time": 213.57342547500002,
                        "value": 1
                    },
                    {
                        "number": 64,
                        "time": 215.84156020000003,
                        "value": 0
                    },
                    {
                        "number": 64,
                        "time": 216.03351815000002,
                        "value": 1
                    },
                    {
                        "number": 64,
                        "time": 218.271343725,
                        "value": 0
                    },
                    {
                        "number": 64,
                        "time": 218.4052091375,
                        "value": 1
                    },
                    {
                        "number": 64,
                        "time": 219.46602938750001,
                        "value": 0
                    },
                    {
                        "number": 64,
                        "time": 219.74133750000001,
                        "value": 1
                    },
                    {
                        "number": 64,
                        "time": 223.12838501250002,
                        "value": 0
                    },
                    {
                        "number": 64,
                        "time": 223.2900338125,
                        "value": 1
                    },
                    {
                        "number": 64,
                        "time": 227.950065625,
                        "value": 0
                    },
                    {
                        "number": 64,
                        "time": 228.142023575,
                        "value": 1
                    },
                    {
                        "number": 64,
                        "time": 230.3975294875,
                        "value": 0
                    },
                    {
                        "number": 64,
                        "time": 230.551601,
                        "value": 1
                    },
                    {
                        "number": 64,
                        "time": 231.5997924375,
                        "value": 0
                    },
                    {
                        "number": 64,
                        "time": 231.7361836125,
                        "value": 1
                    },
                    {
                        "number": 64,
                        "time": 232.79447810000002,
                        "value": 0
                    },
                    {
                        "number": 64,
                        "time": 233.05968316250002,
                        "value": 1
                    },
                    {
                        "number": 64,
                        "time": 235.24446772500002,
                        "value": 0
                    },
                    {
                        "number": 64,
                        "time": 235.48441516250003,
                        "value": 1
                    },
                    {
                        "number": 64,
                        "time": 237.67172548750003,
                        "value": 0
                    },
                    {
                        "number": 64,
                        "time": 237.81316818750003,
                        "value": 1
                    },
                    {
                        "number": 64,
                        "time": 240.09645748750003,
                        "value": 0
                    },
                    {
                        "number": 64,
                        "time": 240.33893068750004,
                        "value": 1
                    },
                    {
                        "number": 64,
                        "time": 242.51866372500004,
                        "value": 0
                    },
                    {
                        "number": 64,
                        "time": 242.64747761250004,
                        "value": 1
                    },
                    {
                        "number": 64,
                        "time": 244.94086996250005,
                        "value": 0
                    },
                    {
                        "number": 64,
                        "time": 245.14293096250003,
                        "value": 1
                    },
                    {
                        "number": 64,
                        "time": 247.34792162500003,
                        "value": 0
                    },
                    {
                        "number": 64,
                        "time": 247.51967347500002,
                        "value": 1
                    },
                    {
                        "number": 64,
                        "time": 252.22011748750003,
                        "value": 0
                    },
                    {
                        "number": 64,
                        "time": 252.41712696250002,
                        "value": 1
                    },
                    {
                        "number": 64,
                        "time": 257.04937538750005,
                        "value": 0
                    },
                    {
                        "number": 64,
                        "time": 257.30700316250005,
                        "value": 1
                    },
                    {
                        "number": 64,
                        "time": 261.91399396250006,
                        "value": 0
                    },
                    {
                        "number": 64,
                        "time": 262.0731170000001,
                        "value": 1
                    },
                    {
                        "number": 64,
                        "time": 264.33872596250006,
                        "value": 0
                    },
                    {
                        "number": 64,
                        "time": 264.5559415375001,
                        "value": 1
                    },
                    {
                        "number": 64,
                        "time": 266.75840643750007,
                        "value": 0
                    },
                    {
                        "number": 64,
                        "time": 266.8998491375001,
                        "value": 1
                    },
                    {
                        "number": 64,
                        "time": 270.4005559625001,
                        "value": 0
                    },
                    {
                        "number": 64,
                        "time": 270.5723078125001,
                        "value": 1
                    },
                    {
                        "number": 64,
                        "time": 271.59019010000014,
                        "value": 0
                    },
                    {
                        "number": 64,
                        "time": 271.74931313750017,
                        "value": 1
                    },
                    {
                        "number": 64,
                        "time": 272.82276220000017,
                        "value": 0
                    },
                    {
                        "number": 64,
                        "time": 273.0324004875002,
                        "value": 1
                    },
                    {
                        "number": 64,
                        "time": 274.0401797250002,
                        "value": 0
                    },
                    {
                        "number": 64,
                        "time": 274.2270861500002,
                        "value": 1
                    },
                    {
                        "number": 64,
                        "time": 275.23991691250023,
                        "value": 0
                    },
                    {
                        "number": 64,
                        "time": 275.42177181250025,
                        "value": 1
                    },
                    {
                        "number": 64,
                        "time": 276.44217986250027,
                        "value": 0
                    },
                    {
                        "number": 64,
                        "time": 276.5810968000003,
                        "value": 1
                    },
                    {
                        "number": 64,
                        "time": 278.88206643750027,
                        "value": 0
                    },
                    {
                        "number": 64,
                        "time": 279.0765501500003,
                        "value": 1
                    },
                    {
                        "number": 64,
                        "time": 280.1020097250003,
                        "value": 0
                    },
                    {
                        "number": 64,
                        "time": 280.2889161500003,
                        "value": 1
                    },
                    {
                        "number": 64,
                        "time": 281.31437572500033,
                        "value": 0
                    },
                    {
                        "number": 64,
                        "time": 281.4002516500003,
                        "value": 1
                    },
                    {
                        "number": 64,
                        "time": 283.73153043750034,
                        "value": 0
                    },
                    {
                        "number": 64,
                        "time": 283.92601415000036,
                        "value": 1
                    },
                    {
                        "number": 64,
                        "time": 284.9236903375004,
                        "value": 0
                    },
                    {
                        "number": 64,
                        "time": 285.1383801500004,
                        "value": 1
                    },
                    {
                        "number": 64,
                        "time": 286.1461593875004,
                        "value": 0
                    },
                    {
                        "number": 64,
                        "time": 286.4037871625004,
                        "value": 1
                    },
                    {
                        "number": 64,
                        "time": 287.37873148750043,
                        "value": 0
                    },
                    {
                        "number": 64,
                        "time": 287.56311215000045,
                        "value": 1
                    },
                    {
                        "number": 64,
                        "time": 290.9905718625005,
                        "value": 0
                    },
                    {
                        "number": 64,
                        "time": 291.1648494750005,
                        "value": 1
                    },
                    {
                        "number": 64,
                        "time": 295.8602419625005,
                        "value": 0
                    },
                    {
                        "number": 64,
                        "time": 295.9966331375005,
                        "value": 1
                    },
                    {
                        "number": 64,
                        "time": 300.6869741000005,
                        "value": 0
                    },
                    {
                        "number": 64,
                        "time": 300.81831375000047,
                        "value": 1
                    },
                    {
                        "number": 64,
                        "time": 305.56169572500045,
                        "value": 0
                    },
                    {
                        "number": 64,
                        "time": 305.74860215000047,
                        "value": 1
                    },
                    {
                        "number": 64,
                        "time": 310.38590210000046,
                        "value": 0
                    },
                    {
                        "number": 64,
                        "time": 310.5273448000005,
                        "value": 1
                    },
                    {
                        "number": 64,
                        "time": 315.2505206750005,
                        "value": 0
                    },
                    {
                        "number": 64,
                        "time": 315.4475301500005,
                        "value": 1
                    },
                    {
                        "number": 64,
                        "time": 317.6878814875005,
                        "value": 0
                    },
                    {
                        "number": 64,
                        "time": 317.8722621500005,
                        "value": 1
                    },
                    {
                        "number": 64,
                        "time": 320.1050362000005,
                        "value": 0
                    },
                    {
                        "number": 64,
                        "time": 320.2439531375005,
                        "value": 1
                    },
                    {
                        "number": 64,
                        "time": 322.5297682000005,
                        "value": 0
                    },
                    {
                        "number": 64,
                        "time": 322.7394064875005,
                        "value": 1
                    },
                    {
                        "number": 64,
                        "time": 337.7121265875005,
                        "value": 0
                    }
                ]
            },
            "id": 4,
            "name": "Pedal"
        },
        {
            "startTime": 0,
            "duration": 0,
            "length": 0,
            "notes": [],
            "controlChanges": {},
            "id": 5,
            "name": "Beethoven: Sonate Nr. 14 cis-moll, Op. 27/2 - 1. Satz"
        },
        {
            "startTime": 0,
            "duration": 0,
            "length": 0,
            "notes": [],
            "controlChanges": {},
            "id": 6,
            "name": "Copyright © 1998 by Bernd Krueger"
        },
        {
            "startTime": 0,
            "duration": 0,
            "length": 0,
            "notes": [],
            "controlChanges": {},
            "id": 7,
            "name": "http://www.piano-midi.de"
        },
        {
            "startTime": 0,
            "duration": 0,
            "length": 0,
            "notes": [],
            "controlChanges": {},
            "id": 8,
            "name": "Edition: 2012-06-03"
        }
    ]
}