{
    "header": {
        "PPQ": 480,
        "timeSignature": [
            4,
            4
        ],
        "bpm": 165.000165000165,
        "name": "3. Satz"
    },
    "startTime": 0,
    "duration": 331.4542140000085,
    "tracks": [
        {
            "startTime": 0,
            "duration": 0,
            "length": 0,
            "notes": [],
            "controlChanges": {},
            "id": 0,
            "name": "3. Satz"
        },
        {
            "startTime": 0.000757575,
            "duration": 331.4542140000085,
            "length": 1962,
            "notes": [
                {
                    "name": "F5",
                    "midi": 77,
                    "time": 0.000757575,
                    "velocity": 0.47244094488188976,
                    "duration": 0.545454
                },
                {
                    "name": "D5",
                    "midi": 74,
                    "time": 0.545454,
                    "velocity": 0.41732283464566927,
                    "duration": 0.18181799999999992
                },
                {
                    "name": "A#4",
                    "midi": 70,
                    "time": 0.7272719999999999,
                    "velocity": 0.4330708661417323,
                    "duration": 0.09090900000000002
                },
                {
                    "name": "A#4",
                    "midi": 70,
                    "time": 1.090908,
                    "velocity": 0.4330708661417323,
                    "duration": 0.0909089999999999
                },
                {
                    "name": "D#5",
                    "midi": 75,
                    "time": 1.4545439999999998,
                    "velocity": 0.47244094488188976,
                    "duration": 0.36363600000000007
                },
                {
                    "name": "G5",
                    "midi": 79,
                    "time": 1.81818,
                    "velocity": 0.4330708661417323,
                    "duration": 0.0909089999999999
                },
                {
                    "name": "A4",
                    "midi": 69,
                    "time": 2.181816,
                    "velocity": 0.4094488188976378,
                    "duration": 0.36363600000000007
                },
                {
                    "name": "C5",
                    "midi": 72,
                    "time": 2.909088,
                    "velocity": 0.4330708661417323,
                    "duration": 0.1818179999999998
                },
                {
                    "name": "A#4",
                    "midi": 70,
                    "time": 3.090906,
                    "velocity": 0.41732283464566927,
                    "duration": 0.0909089999999999
                },
                {
                    "name": "D5",
                    "midi": 74,
                    "time": 3.2727239999999997,
                    "velocity": 0.44881889763779526,
                    "duration": 0.1818179999999998
                },
                {
                    "name": "C5",
                    "midi": 72,
                    "time": 3.4545419999999996,
                    "velocity": 0.4251968503937008,
                    "duration": 0.0909089999999999
                },
                {
                    "name": "D#5",
                    "midi": 75,
                    "time": 3.6363599999999994,
                    "velocity": 0.4566929133858268,
                    "duration": 0.1818179999999998
                },
                {
                    "name": "D5",
                    "midi": 74,
                    "time": 3.818177999999999,
                    "velocity": 0.4409448818897638,
                    "duration": 0.0909089999999999
                },
                {
                    "name": "F5",
                    "midi": 77,
                    "time": 3.999995999999999,
                    "velocity": 0.47244094488188976,
                    "duration": 0.18181800000000026
                },
                {
                    "name": "D#5",
                    "midi": 75,
                    "time": 4.181813999999999,
                    "velocity": 0.44881889763779526,
                    "duration": 0.0909089999999999
                },
                {
                    "name": "D5",
                    "midi": 74,
                    "time": 4.363631999999999,
                    "velocity": 0.47244094488188976,
                    "duration": 0.5454540000000003
                },
                {
                    "name": "D#5",
                    "midi": 75,
                    "time": 4.909085999999999,
                    "velocity": 0.44881889763779526,
                    "duration": 0.0909089999999999
                },
                {
                    "name": "D5",
                    "midi": 74,
                    "time": 4.999994999999999,
                    "velocity": 0.41732283464566927,
                    "duration": 0.0909089999999999
                },
                {
                    "name": "C5",
                    "midi": 72,
                    "time": 5.090903999999999,
                    "velocity": 0.4094488188976378,
                    "duration": 0.1818179999999998
                },
                {
                    "name": "D5",
                    "midi": 74,
                    "time": 5.272721999999999,
                    "velocity": 0.4251968503937008,
                    "duration": 0.1818179999999998
                },
                {
                    "name": "D#5",
                    "midi": 75,
                    "time": 5.454539999999999,
                    "velocity": 0.4330708661417323,
                    "duration": 0.1818179999999998
                },
                {
                    "name": "E5",
                    "midi": 76,
                    "time": 5.636357999999999,
                    "velocity": 0.44881889763779526,
                    "duration": 0.1818179999999998
                },
                {
                    "name": "F5",
                    "midi": 77,
                    "time": 5.8181759999999985,
                    "velocity": 0.4645669291338583,
                    "duration": 0.5454540000000003
                },
                {
                    "name": "D#5",
                    "midi": 75,
                    "time": 6.363629999999999,
                    "velocity": 0.41732283464566927,
                    "duration": 0.06060599999999994
                },
                {
                    "name": "D5",
                    "midi": 74,
                    "time": 6.424235999999999,
                    "velocity": 0.41732283464566927,
                    "duration": 0.06060599999999994
                },
                {
                    "name": "C5",
                    "midi": 72,
                    "time": 6.484841999999999,
                    "velocity": 0.41732283464566927,
                    "duration": 0.06060599999999994
                },
                {
                    "name": "A#4",
                    "midi": 70,
                    "time": 6.545447999999999,
                    "velocity": 0.4409448818897638,
                    "duration": 0.0909089999999999
                },
                {
                    "name": "A#4",
                    "midi": 70,
                    "time": 6.909083999999998,
                    "velocity": 0.4409448818897638,
                    "duration": 0.0909089999999999
                },
                {
                    "name": "D#5",
                    "midi": 75,
                    "time": 7.272719999999998,
                    "velocity": 0.47244094488188976,
                    "duration": 0.3636359999999996
                },
                {
                    "name": "G5",
                    "midi": 79,
                    "time": 7.6363559999999975,
                    "velocity": 0.4330708661417323,
                    "duration": 0.0909089999999999
                },
                {
                    "name": "A4",
                    "midi": 69,
                    "time": 7.999991999999997,
                    "velocity": 0.4566929133858268,
                    "duration": 0.3636359999999996
                },
                {
                    "name": "A4",
                    "midi": 69,
                    "time": 8.545445999999997,
                    "velocity": 0.4094488188976378,
                    "duration": 0.1818179999999998
                },
                {
                    "name": "A#4",
                    "midi": 70,
                    "time": 8.727263999999996,
                    "velocity": 0.4566929133858268,
                    "duration": 0.1818179999999998
                },
                {
                    "name": "D5",
                    "midi": 74,
                    "time": 8.909081999999996,
                    "velocity": 0.4330708661417323,
                    "duration": 0.0909089999999999
                },
                {
                    "name": "G4",
                    "midi": 67,
                    "time": 9.090899999999996,
                    "velocity": 0.4566929133858268,
                    "duration": 0.1818179999999998
                },
                {
                    "name": "C5",
                    "midi": 72,
                    "time": 9.272717999999996,
                    "velocity": 0.4330708661417323,
                    "duration": 0.0909089999999999
                },
                {
                    "name": "A#4",
                    "midi": 70,
                    "time": 9.454535999999996,
                    "velocity": 0.4566929133858268,
                    "duration": 0.3636359999999996
                },
                {
                    "name": "A4",
                    "midi": 69,
                    "time": 9.818171999999995,
                    "velocity": 0.4330708661417323,
                    "duration": 0.3636359999999996
                },
                {
                    "name": "A#4",
                    "midi": 70,
                    "time": 10.181807999999995,
                    "velocity": 0.4566929133858268,
                    "duration": 0.1818179999999998
                },
                {
                    "name": "F4",
                    "midi": 65,
                    "time": 10.363625999999995,
                    "velocity": 0.4409448818897638,
                    "duration": 0.0909089999999999
                },
                {
                    "name": "G4",
                    "midi": 67,
                    "time": 10.545443999999994,
                    "velocity": 0.47244094488188976,
                    "duration": 0.0909089999999999
                },
                {
                    "name": "A4",
                    "midi": 69,
                    "time": 10.727261999999994,
                    "velocity": 0.49606299212598426,
                    "duration": 0.0909089999999999
                },
                {
                    "name": "A#4",
                    "midi": 70,
                    "time": 10.909079999999994,
                    "velocity": 0.5275590551181102,
                    "duration": 0.0909089999999999
                },
                {
                    "name": "C5",
                    "midi": 72,
                    "time": 11.090897999999994,
                    "velocity": 0.5511811023622047,
                    "duration": 0.0909089999999999
                },
                {
                    "name": "D5",
                    "midi": 74,
                    "time": 11.272715999999994,
                    "velocity": 0.5826771653543307,
                    "duration": 0.0909089999999999
                },
                {
                    "name": "D#5",
                    "midi": 75,
                    "time": 11.454533999999994,
                    "velocity": 0.6062992125984252,
                    "duration": 0.0909089999999999
                },
                {
                    "name": "F5",
                    "midi": 77,
                    "time": 11.637109574999993,
                    "velocity": 0.6692913385826772,
                    "duration": 0.5454539999999994
                },
                {
                    "name": "D5",
                    "midi": 74,
                    "time": 12.181805999999993,
                    "velocity": 0.5826771653543307,
                    "duration": 0.1818179999999998
                },
                {
                    "name": "A#4",
                    "midi": 70,
                    "time": 12.363623999999993,
                    "velocity": 0.6141732283464567,
                    "duration": 0.1818179999999998
                },
                {
                    "name": "A#4",
                    "midi": 70,
                    "time": 12.727259999999992,
                    "velocity": 0.6141732283464567,
                    "duration": 0.1818179999999998
                },
                {
                    "name": "D#5",
                    "midi": 75,
                    "time": 13.090895999999992,
                    "velocity": 0.6692913385826772,
                    "duration": 0.07272719999999921
                },
                {
                    "name": "F5",
                    "midi": 77,
                    "time": 13.163623199999991,
                    "velocity": 0.5669291338582677,
                    "duration": 0.07272719999999921
                },
                {
                    "name": "D#5",
                    "midi": 75,
                    "time": 13.23635039999999,
                    "velocity": 0.48031496062992124,
                    "duration": 0.07272719999999921
                },
                {
                    "name": "D5",
                    "midi": 74,
                    "time": 13.30907759999999,
                    "velocity": 0.5511811023622047,
                    "duration": 0.07272719999999921
                },
                {
                    "name": "D#5",
                    "midi": 75,
                    "time": 13.381804799999989,
                    "velocity": 0.5669291338582677,
                    "duration": 0.07272719999999921
                },
                {
                    "name": "G5",
                    "midi": 79,
                    "time": 13.454531999999988,
                    "velocity": 0.6141732283464567,
                    "duration": 0.3636359999999996
                },
                {
                    "name": "A4",
                    "midi": 69,
                    "time": 13.818167999999988,
                    "velocity": 0.6377952755905512,
                    "duration": 0.3636359999999996
                },
                {
                    "name": "C5",
                    "midi": 72,
                    "time": 14.545439999999987,
                    "velocity": 0.6141732283464567,
                    "duration": 0.1818179999999998
                },
                {
                    "name": "A#4",
                    "midi": 70,
                    "time": 14.727257999999987,
                    "velocity": 0.5826771653543307,
                    "duration": 0.0909089999999999
                },
                {
                    "name": "D5",
                    "midi": 74,
                    "time": 14.909075999999986,
                    "velocity": 0.6377952755905512,
                    "duration": 0.1818179999999998
                },
                {
                    "name": "C5",
                    "midi": 72,
                    "time": 15.090893999999986,
                    "velocity": 0.6062992125984252,
                    "duration": 0.0909089999999999
                },
                {
                    "name": "D#5",
                    "midi": 75,
                    "time": 15.272711999999986,
                    "velocity": 0.6456692913385826,
                    "duration": 0.1818179999999998
                },
                {
                    "name": "D5",
                    "midi": 74,
                    "time": 15.454529999999986,
                    "velocity": 0.6220472440944882,
                    "duration": 0.0909089999999999
                },
                {
                    "name": "F5",
                    "midi": 77,
                    "time": 15.636347999999986,
                    "velocity": 0.6692913385826772,
                    "duration": 0.1818179999999998
                },
                {
                    "name": "D#5",
                    "midi": 75,
                    "time": 15.818165999999986,
                    "velocity": 0.6377952755905512,
                    "duration": 0.0909089999999999
                },
                {
                    "name": "D5",
                    "midi": 74,
                    "time": 15.999983999999985,
                    "velocity": 0.6692913385826772,
                    "duration": 0.5454540000000012
                },
                {
                    "name": "D#5",
                    "midi": 75,
                    "time": 16.545437999999987,
                    "velocity": 0.6377952755905512,
                    "duration": 0.0909089999999999
                },
                {
                    "name": "D5",
                    "midi": 74,
                    "time": 16.636346999999986,
                    "velocity": 0.6377952755905512,
                    "duration": 0.0909089999999999
                },
                {
                    "name": "C5",
                    "midi": 72,
                    "time": 16.727255999999986,
                    "velocity": 0.5748031496062992,
                    "duration": 0.1818179999999998
                },
                {
                    "name": "D5",
                    "midi": 74,
                    "time": 16.909073999999986,
                    "velocity": 0.6062992125984252,
                    "duration": 0.1818179999999998
                },
                {
                    "name": "D#5",
                    "midi": 75,
                    "time": 17.090891999999986,
                    "velocity": 0.6141732283464567,
                    "duration": 0.1818179999999998
                },
                {
                    "name": "E5",
                    "midi": 76,
                    "time": 17.272709999999986,
                    "velocity": 0.6377952755905512,
                    "duration": 0.1818179999999998
                },
                {
                    "name": "F5",
                    "midi": 77,
                    "time": 17.454527999999986,
                    "velocity": 0.6535433070866141,
                    "duration": 0.5454539999999994
                },
                {
                    "name": "D#5",
                    "midi": 75,
                    "time": 17.999981999999985,
                    "velocity": 0.5826771653543307,
                    "duration": 0.06060599999999994
                },
                {
                    "name": "D5",
                    "midi": 74,
                    "time": 18.060587999999985,
                    "velocity": 0.5826771653543307,
                    "duration": 0.06060599999999994
                },
                {
                    "name": "C5",
                    "midi": 72,
                    "time": 18.121193999999985,
                    "velocity": 0.5826771653543307,
                    "duration": 0.06060599999999994
                },
                {
                    "name": "A#4",
                    "midi": 70,
                    "time": 18.181799999999985,
                    "velocity": 0.6220472440944882,
                    "duration": 0.0909089999999999
                },
                {
                    "name": "A#4",
                    "midi": 70,
                    "time": 18.363617999999985,
                    "velocity": 0.5984251968503937,
                    "duration": 0.0909089999999999
                },
                {
                    "name": "A#4",
                    "midi": 70,
                    "time": 18.545435999999984,
                    "velocity": 0.6220472440944882,
                    "duration": 0.0909089999999999
                },
                {
                    "name": "A#4",
                    "midi": 70,
                    "time": 18.727253999999984,
                    "velocity": 0.5984251968503937,
                    "duration": 0.0909089999999999
                },
                {
                    "name": "D#5",
                    "midi": 75,
                    "time": 18.909071999999984,
                    "velocity": 0.6692913385826772,
                    "duration": 0.07272719999999921
                },
                {
                    "name": "F5",
                    "midi": 77,
                    "time": 18.981799199999983,
                    "velocity": 0.5669291338582677,
                    "duration": 0.07272719999999921
                },
                {
                    "name": "D#5",
                    "midi": 75,
                    "time": 19.054526399999983,
                    "velocity": 0.48031496062992124,
                    "duration": 0.07272719999999921
                },
                {
                    "name": "D5",
                    "midi": 74,
                    "time": 19.12725359999998,
                    "velocity": 0.5511811023622047,
                    "duration": 0.07272719999999921
                },
                {
                    "name": "D#5",
                    "midi": 75,
                    "time": 19.19998079999998,
                    "velocity": 0.5669291338582677,
                    "duration": 0.07272719999999921
                },
                {
                    "name": "G5",
                    "midi": 79,
                    "time": 19.27270799999998,
                    "velocity": 0.6141732283464567,
                    "duration": 0.3636359999999996
                },
                {
                    "name": "A4",
                    "midi": 69,
                    "time": 19.63634399999998,
                    "velocity": 0.6456692913385826,
                    "duration": 0.3636359999999996
                },
                {
                    "name": "A5",
                    "midi": 81,
                    "time": 20.18179799999998,
                    "velocity": 0.6062992125984252,
                    "duration": 0.1818179999999998
                },
                {
                    "name": "A#5",
                    "midi": 82,
                    "time": 20.36361599999998,
                    "velocity": 0.6692913385826772,
                    "duration": 0.12121199999999988
                },
                {
                    "name": "F5",
                    "midi": 77,
                    "time": 20.48482799999998,
                    "velocity": 0.5826771653543307,
                    "duration": 0.12121199999999988
                },
                {
                    "name": "D5",
                    "midi": 74,
                    "time": 20.60603999999998,
                    "velocity": 0.5669291338582677,
                    "duration": 0.12121199999999988
                },
                {
                    "name": "G5",
                    "midi": 79,
                    "time": 20.72725199999998,
                    "velocity": 0.6614173228346457,
                    "duration": 0.12121199999999988
                },
                {
                    "name": "D#5",
                    "midi": 75,
                    "time": 20.84846399999998,
                    "velocity": 0.5748031496062992,
                    "duration": 0.12121199999999988
                },
                {
                    "name": "C5",
                    "midi": 72,
                    "time": 20.96967599999998,
                    "velocity": 0.5826771653543307,
                    "duration": 0.12121199999999988
                },
                {
                    "name": "F5",
                    "midi": 77,
                    "time": 21.09088799999998,
                    "velocity": 0.6614173228346457,
                    "duration": 0.12121199999999988
                },
                {
                    "name": "D5",
                    "midi": 74,
                    "time": 21.212099999999978,
                    "velocity": 0.5905511811023622,
                    "duration": 0.12121199999999988
                },
                {
                    "name": "A#4",
                    "midi": 70,
                    "time": 21.333311999999978,
                    "velocity": 0.5826771653543307,
                    "duration": 0.12121199999999988
                },
                {
                    "name": "D#5",
                    "midi": 75,
                    "time": 21.454523999999978,
                    "velocity": 0.6614173228346457,
                    "duration": 0.12121199999999988
                },
                {
                    "name": "C5",
                    "midi": 72,
                    "time": 21.575735999999978,
                    "velocity": 0.5826771653543307,
                    "duration": 0.12121199999999988
                },
                {
                    "name": "A4",
                    "midi": 69,
                    "time": 21.696947999999978,
                    "velocity": 0.5826771653543307,
                    "duration": 0.12121199999999988
                },
                {
                    "name": "A#4",
                    "midi": 70,
                    "time": 21.818159999999978,
                    "velocity": 0.6535433070866141,
                    "duration": 0.3636359999999996
                },
                {
                    "name": "F4",
                    "midi": 65,
                    "time": 22.363613999999977,
                    "velocity": 0.41732283464566927,
                    "duration": 0.1818179999999998
                },
                {
                    "name": "A#4",
                    "midi": 70,
                    "time": 22.545431999999977,
                    "velocity": 0.4566929133858268,
                    "duration": 0.0909089999999999
                },
                {
                    "name": "A4",
                    "midi": 69,
                    "time": 22.727249999999977,
                    "velocity": 0.41732283464566927,
                    "duration": 0.0909089999999999
                },
                {
                    "name": "A#4",
                    "midi": 70,
                    "time": 22.909067999999976,
                    "velocity": 0.4330708661417323,
                    "duration": 0.0909089999999999
                },
                {
                    "name": "C5",
                    "midi": 72,
                    "time": 23.090885999999976,
                    "velocity": 0.41732283464566927,
                    "duration": 0.0909089999999999
                },
                {
                    "name": "D5",
                    "midi": 74,
                    "time": 23.272703999999976,
                    "velocity": 0.4330708661417323,
                    "duration": 0.0909089999999999
                },
                {
                    "name": "D5",
                    "midi": 74,
                    "time": 23.636339999999976,
                    "velocity": 0.4409448818897638,
                    "duration": 0.13636350000000164
                },
                {
                    "name": "A#4",
                    "midi": 70,
                    "time": 23.636339999999976,
                    "velocity": 0.4409448818897638,
                    "duration": 0.13636350000000164
                },
                {
                    "name": "A#4",
                    "midi": 70,
                    "time": 23.99997599999998,
                    "velocity": 0.4645669291338583,
                    "duration": 0.3636359999999996
                },
                {
                    "name": "D5",
                    "midi": 74,
                    "time": 23.99997599999998,
                    "velocity": 0.4645669291338583,
                    "duration": 0.3636359999999996
                },
                {
                    "name": "D#5",
                    "midi": 75,
                    "time": 24.36361199999998,
                    "velocity": 0.4330708661417323,
                    "duration": 0.3636359999999996
                },
                {
                    "name": "C5",
                    "midi": 72,
                    "time": 24.36361199999998,
                    "velocity": 0.4330708661417323,
                    "duration": 0.3636359999999996
                },
                {
                    "name": "C5",
                    "midi": 72,
                    "time": 24.727247999999978,
                    "velocity": 0.4251968503937008,
                    "duration": 0.3636359999999996
                },
                {
                    "name": "A4",
                    "midi": 69,
                    "time": 24.727247999999978,
                    "velocity": 0.4251968503937008,
                    "duration": 0.3636359999999996
                },
                {
                    "name": "F4",
                    "midi": 65,
                    "time": 25.272701999999978,
                    "velocity": 0.4330708661417323,
                    "duration": 0.1818179999999998
                },
                {
                    "name": "C5",
                    "midi": 72,
                    "time": 25.454519999999977,
                    "velocity": 0.44881889763779526,
                    "duration": 0.0909089999999999
                },
                {
                    "name": "A#4",
                    "midi": 70,
                    "time": 25.636337999999977,
                    "velocity": 0.4330708661417323,
                    "duration": 0.0909089999999999
                },
                {
                    "name": "C5",
                    "midi": 72,
                    "time": 25.818155999999977,
                    "velocity": 0.4409448818897638,
                    "duration": 0.0909089999999999
                },
                {
                    "name": "D5",
                    "midi": 74,
                    "time": 25.999973999999977,
                    "velocity": 0.41732283464566927,
                    "duration": 0.0909089999999999
                },
                {
                    "name": "D#5",
                    "midi": 75,
                    "time": 26.181791999999977,
                    "velocity": 0.4409448818897638,
                    "duration": 0.0909089999999999
                },
                {
                    "name": "G4",
                    "midi": 67,
                    "time": 26.545427999999976,
                    "velocity": 0.4409448818897638,
                    "duration": 0.13636350000000164
                },
                {
                    "name": "D#5",
                    "midi": 75,
                    "time": 26.545427999999976,
                    "velocity": 0.4409448818897638,
                    "duration": 0.13636350000000164
                },
                {
                    "name": "C5",
                    "midi": 72,
                    "time": 26.90906399999998,
                    "velocity": 0.4566929133858268,
                    "duration": 0.3636359999999996
                },
                {
                    "name": "D#5",
                    "midi": 75,
                    "time": 26.90906399999998,
                    "velocity": 0.4566929133858268,
                    "duration": 0.3636359999999996
                },
                {
                    "name": "F5",
                    "midi": 77,
                    "time": 27.27269999999998,
                    "velocity": 0.4409448818897638,
                    "duration": 0.3636359999999996
                },
                {
                    "name": "A4",
                    "midi": 69,
                    "time": 27.27269999999998,
                    "velocity": 0.4409448818897638,
                    "duration": 0.3636359999999996
                },
                {
                    "name": "A#4",
                    "midi": 70,
                    "time": 27.63633599999998,
                    "velocity": 0.4251968503937008,
                    "duration": 0.3636359999999996
                },
                {
                    "name": "D5",
                    "midi": 74,
                    "time": 27.63633599999998,
                    "velocity": 0.4251968503937008,
                    "duration": 0.3636359999999996
                },
                {
                    "name": "A#4",
                    "midi": 70,
                    "time": 28.181789999999978,
                    "velocity": 0.5748031496062992,
                    "duration": 0.1818179999999998
                },
                {
                    "name": "D5",
                    "midi": 74,
                    "time": 28.363607999999978,
                    "velocity": 0.6220472440944882,
                    "duration": 0.0909089999999999
                },
                {
                    "name": "C5",
                    "midi": 72,
                    "time": 28.545425999999978,
                    "velocity": 0.5669291338582677,
                    "duration": 0.0909089999999999
                },
                {
                    "name": "D5",
                    "midi": 74,
                    "time": 28.727243999999978,
                    "velocity": 0.5905511811023622,
                    "duration": 0.0909089999999999
                },
                {
                    "name": "E5",
                    "midi": 76,
                    "time": 28.909061999999977,
                    "velocity": 0.5669291338582677,
                    "duration": 0.0909089999999999
                },
                {
                    "name": "F5",
                    "midi": 77,
                    "time": 29.090879999999977,
                    "velocity": 0.6220472440944882,
                    "duration": 0.3636359999999996
                },
                {
                    "name": "F5",
                    "midi": 77,
                    "time": 29.575727999999977,
                    "velocity": 0.6062992125984252,
                    "duration": 0.12121199999999988
                },
                {
                    "name": "G5",
                    "midi": 79,
                    "time": 29.696939999999977,
                    "velocity": 0.6220472440944882,
                    "duration": 0.12121199999999988
                },
                {
                    "name": "A5",
                    "midi": 81,
                    "time": 29.818151999999976,
                    "velocity": 0.6456692913385826,
                    "duration": 0.12121199999999988
                },
                {
                    "name": "G5",
                    "midi": 79,
                    "time": 29.939363999999976,
                    "velocity": 0.5984251968503937,
                    "duration": 0.12121199999999988
                },
                {
                    "name": "F5",
                    "midi": 77,
                    "time": 30.060575999999976,
                    "velocity": 0.5984251968503937,
                    "duration": 0.12121199999999988
                },
                {
                    "name": "E5",
                    "midi": 76,
                    "time": 30.181787999999976,
                    "velocity": 0.6220472440944882,
                    "duration": 0.12121199999999988
                },
                {
                    "name": "D5",
                    "midi": 74,
                    "time": 30.302999999999976,
                    "velocity": 0.6062992125984252,
                    "duration": 0.12121199999999988
                },
                {
                    "name": "C5",
                    "midi": 72,
                    "time": 30.424211999999976,
                    "velocity": 0.5984251968503937,
                    "duration": 0.12121199999999988
                },
                {
                    "name": "A#4",
                    "midi": 70,
                    "time": 30.545423999999976,
                    "velocity": 0.5905511811023622,
                    "duration": 0.3636359999999996
                },
                {
                    "name": "E5",
                    "midi": 76,
                    "time": 31.030271999999975,
                    "velocity": 0.5748031496062992,
                    "duration": 0.12121199999999988
                },
                {
                    "name": "F5",
                    "midi": 77,
                    "time": 31.151483999999975,
                    "velocity": 0.5984251968503937,
                    "duration": 0.12121199999999988
                },
                {
                    "name": "G5",
                    "midi": 79,
                    "time": 31.272695999999975,
                    "velocity": 0.6299212598425197,
                    "duration": 0.12121199999999988
                },
                {
                    "name": "F5",
                    "midi": 77,
                    "time": 31.393907999999975,
                    "velocity": 0.6220472440944882,
                    "duration": 0.12121199999999988
                },
                {
                    "name": "E5",
                    "midi": 76,
                    "time": 31.515119999999975,
                    "velocity": 0.6141732283464567,
                    "duration": 0.12121199999999988
                },
                {
                    "name": "D5",
                    "midi": 74,
                    "time": 31.636331999999975,
                    "velocity": 0.6062992125984252,
                    "duration": 0.12121199999999988
                },
                {
                    "name": "C5",
                    "midi": 72,
                    "time": 31.757543999999974,
                    "velocity": 0.5984251968503937,
                    "duration": 0.12121199999999988
                },
                {
                    "name": "A#4",
                    "midi": 70,
                    "time": 31.878755999999974,
                    "velocity": 0.5905511811023622,
                    "duration": 0.12121199999999988
                },
                {
                    "name": "A4",
                    "midi": 69,
                    "time": 31.999967999999974,
                    "velocity": 0.5748031496062992,
                    "duration": 0.09090900000000346
                },
                {
                    "name": "C5",
                    "midi": 72,
                    "time": 32.09087699999998,
                    "velocity": 0.5433070866141733,
                    "duration": 0.09090900000000346
                },
                {
                    "name": "A#4",
                    "midi": 70,
                    "time": 32.18178599999998,
                    "velocity": 0.5590551181102362,
                    "duration": 0.09090900000000346
                },
                {
                    "name": "A4",
                    "midi": 69,
                    "time": 32.272694999999985,
                    "velocity": 0.5669291338582677,
                    "duration": 0.09090900000000346
                },
                {
                    "name": "A#4",
                    "midi": 70,
                    "time": 32.36360399999999,
                    "velocity": 0.5826771653543307,
                    "duration": 0.09090900000000346
                },
                {
                    "name": "C5",
                    "midi": 72,
                    "time": 32.45451299999999,
                    "velocity": 0.5984251968503937,
                    "duration": 0.09090900000000346
                },
                {
                    "name": "D5",
                    "midi": 74,
                    "time": 32.545421999999995,
                    "velocity": 0.6062992125984252,
                    "duration": 0.09090900000000346
                },
                {
                    "name": "E5",
                    "midi": 76,
                    "time": 32.636331,
                    "velocity": 0.6220472440944882,
                    "duration": 0.09090900000000346
                },
                {
                    "name": "F5",
                    "midi": 77,
                    "time": 32.72724,
                    "velocity": 0.6377952755905512,
                    "duration": 0.09090900000000346
                },
                {
                    "name": "G5",
                    "midi": 79,
                    "time": 32.818149000000005,
                    "velocity": 0.6456692913385826,
                    "duration": 0.09090900000000346
                },
                {
                    "name": "A5",
                    "midi": 81,
                    "time": 32.90905800000001,
                    "velocity": 0.6614173228346457,
                    "duration": 0.09090900000000346
                },
                {
                    "name": "A#5",
                    "midi": 82,
                    "time": 32.99996700000001,
                    "velocity": 0.6771653543307087,
                    "duration": 0.09090900000000346
                },
                {
                    "name": "C6",
                    "midi": 84,
                    "time": 33.090876000000016,
                    "velocity": 0.6850393700787402,
                    "duration": 0.09090900000000346
                },
                {
                    "name": "A4",
                    "midi": 69,
                    "time": 33.27269400000002,
                    "velocity": 0.4645669291338583,
                    "duration": 0.08181809999999956
                },
                {
                    "name": "F4",
                    "midi": 65,
                    "time": 33.27269400000002,
                    "velocity": 0.4645669291338583,
                    "duration": 0.08181809999999956
                },
                {
                    "name": "A4",
                    "midi": 69,
                    "time": 33.45451200000002,
                    "velocity": 0.4409448818897638,
                    "duration": 0.3636359999999996
                },
                {
                    "name": "F4",
                    "midi": 65,
                    "time": 33.45451200000002,
                    "velocity": 0.4409448818897638,
                    "duration": 0.3636359999999996
                },
                {
                    "name": "G4",
                    "midi": 67,
                    "time": 33.81814800000002,
                    "velocity": 0.4094488188976378,
                    "duration": 0.1818179999999998
                },
                {
                    "name": "E4",
                    "midi": 64,
                    "time": 33.81814800000002,
                    "velocity": 0.4094488188976378,
                    "duration": 0.1818179999999998
                },
                {
                    "name": "G5",
                    "midi": 79,
                    "time": 34.18178400000002,
                    "velocity": 0.5984251968503937,
                    "duration": 0.5454539999999994
                },
                {
                    "name": "E5",
                    "midi": 76,
                    "time": 34.72723800000002,
                    "velocity": 0.47244094488188976,
                    "duration": 0.09090900000000346
                },
                {
                    "name": "C5",
                    "midi": 72,
                    "time": 34.818147000000025,
                    "velocity": 0.47244094488188976,
                    "duration": 0.09090900000000346
                },
                {
                    "name": "F5",
                    "midi": 77,
                    "time": 34.90905600000003,
                    "velocity": 0.5275590551181102,
                    "duration": 0.3636359999999996
                },
                {
                    "name": "F#5",
                    "midi": 78,
                    "time": 35.27269200000003,
                    "velocity": 0.5511811023622047,
                    "duration": 0.3636359999999996
                },
                {
                    "name": "G5",
                    "midi": 79,
                    "time": 35.63632800000003,
                    "velocity": 0.5826771653543307,
                    "duration": 0.5454539999999994
                },
                {
                    "name": "E5",
                    "midi": 76,
                    "time": 36.18178200000003,
                    "velocity": 0.48031496062992124,
                    "duration": 0.09090900000000346
                },
                {
                    "name": "C5",
                    "midi": 72,
                    "time": 36.27269100000003,
                    "velocity": 0.48031496062992124,
                    "duration": 0.09090900000000346
                },
                {
                    "name": "F5",
                    "midi": 77,
                    "time": 36.363600000000034,
                    "velocity": 0.5118110236220472,
                    "duration": 0.3636359999999996
                },
                {
                    "name": "G5",
                    "midi": 79,
                    "time": 37.09087200000003,
                    "velocity": 0.5905511811023622,
                    "duration": 0.09090900000000346
                },
                {
                    "name": "G5",
                    "midi": 79,
                    "time": 37.27269000000004,
                    "velocity": 0.5905511811023622,
                    "duration": 0.3636359999999996
                },
                {
                    "name": "E5",
                    "midi": 76,
                    "time": 37.63632600000004,
                    "velocity": 0.48031496062992124,
                    "duration": 0.09090900000000346
                },
                {
                    "name": "C5",
                    "midi": 72,
                    "time": 37.72723500000004,
                    "velocity": 0.48031496062992124,
                    "duration": 0.09090900000000346
                },
                {
                    "name": "F5",
                    "midi": 77,
                    "time": 37.818144000000046,
                    "velocity": 0.5039370078740157,
                    "duration": 0.09090900000000346
                },
                {
                    "name": "F5",
                    "midi": 77,
                    "time": 37.99996200000005,
                    "velocity": 0.5354330708661418,
                    "duration": 0.09090900000000346
                },
                {
                    "name": "F#5",
                    "midi": 78,
                    "time": 38.18178000000006,
                    "velocity": 0.5590551181102362,
                    "duration": 0.09090900000000346
                },
                {
                    "name": "F#5",
                    "midi": 78,
                    "time": 38.36359800000007,
                    "velocity": 0.5590551181102362,
                    "duration": 0.09090900000000346
                },
                {
                    "name": "G5",
                    "midi": 79,
                    "time": 38.545416000000074,
                    "velocity": 0.6062992125984252,
                    "duration": 0.09090900000000346
                },
                {
                    "name": "G5",
                    "midi": 79,
                    "time": 38.72723400000008,
                    "velocity": 0.6062992125984252,
                    "duration": 0.3636359999999996
                },
                {
                    "name": "E5",
                    "midi": 76,
                    "time": 39.09087000000008,
                    "velocity": 0.47244094488188976,
                    "duration": 0.09090900000000346
                },
                {
                    "name": "C5",
                    "midi": 72,
                    "time": 39.181779000000084,
                    "velocity": 0.4881889763779528,
                    "duration": 0.09090900000000346
                },
                {
                    "name": "F5",
                    "midi": 77,
                    "time": 39.27268800000009,
                    "velocity": 0.5196850393700787,
                    "duration": 0.3636359999999996
                },
                {
                    "name": "F#5",
                    "midi": 78,
                    "time": 39.99996000000009,
                    "velocity": 0.5433070866141733,
                    "duration": 0.10909080000000415
                },
                {
                    "name": "G5",
                    "midi": 79,
                    "time": 40.09086900000009,
                    "velocity": 0.5511811023622047,
                    "duration": 0.10909080000000415
                },
                {
                    "name": "A5",
                    "midi": 81,
                    "time": 40.181778000000094,
                    "velocity": 0.5590551181102362,
                    "duration": 0.10909080000000415
                },
                {
                    "name": "G5",
                    "midi": 79,
                    "time": 40.2726870000001,
                    "velocity": 0.5590551181102362,
                    "duration": 0.10909080000000415
                },
                {
                    "name": "F5",
                    "midi": 77,
                    "time": 40.3635960000001,
                    "velocity": 0.5669291338582677,
                    "duration": 0.10909080000000415
                },
                {
                    "name": "E5",
                    "midi": 76,
                    "time": 40.454505000000104,
                    "velocity": 0.5748031496062992,
                    "duration": 0.10909080000000415
                },
                {
                    "name": "D5",
                    "midi": 74,
                    "time": 40.54541400000011,
                    "velocity": 0.5826771653543307,
                    "duration": 0.10909080000000415
                },
                {
                    "name": "C5",
                    "midi": 72,
                    "time": 40.63632300000011,
                    "velocity": 0.5905511811023622,
                    "duration": 0.10909080000000415
                },
                {
                    "name": "F5",
                    "midi": 77,
                    "time": 40.727232000000114,
                    "velocity": 0.6299212598425197,
                    "duration": 0.09090900000000346
                },
                {
                    "name": "C5",
                    "midi": 72,
                    "time": 40.81814100000012,
                    "velocity": 0.5984251968503937,
                    "duration": 0.09090900000000346
                },
                {
                    "name": "A5",
                    "midi": 81,
                    "time": 40.90905000000012,
                    "velocity": 0.6299212598425197,
                    "duration": 0.09090900000000346
                },
                {
                    "name": "F5",
                    "midi": 77,
                    "time": 40.999959000000125,
                    "velocity": 0.5984251968503937,
                    "duration": 0.09090900000000346
                },
                {
                    "name": "C6",
                    "midi": 84,
                    "time": 41.09086800000013,
                    "velocity": 0.6299212598425197,
                    "duration": 0.09090900000000346
                },
                {
                    "name": "A5",
                    "midi": 81,
                    "time": 41.18177700000013,
                    "velocity": 0.5984251968503937,
                    "duration": 0.09090900000000346
                },
                {
                    "name": "C6",
                    "midi": 84,
                    "time": 41.272686000000135,
                    "velocity": 0.6299212598425197,
                    "duration": 0.09090900000000346
                },
                {
                    "name": "A5",
                    "midi": 81,
                    "time": 41.36359500000014,
                    "velocity": 0.5905511811023622,
                    "duration": 0.09090900000000346
                },
                {
                    "name": "C6",
                    "midi": 84,
                    "time": 41.45450400000014,
                    "velocity": 0.6141732283464567,
                    "duration": 0.10909080000000415
                },
                {
                    "name": "A#5",
                    "midi": 82,
                    "time": 41.545413000000146,
                    "velocity": 0.6141732283464567,
                    "duration": 0.10909080000000415
                },
                {
                    "name": "A5",
                    "midi": 81,
                    "time": 41.63632200000015,
                    "velocity": 0.6062992125984252,
                    "duration": 0.10909080000000415
                },
                {
                    "name": "G5",
                    "midi": 79,
                    "time": 41.72723100000015,
                    "velocity": 0.5984251968503937,
                    "duration": 0.10909080000000415
                },
                {
                    "name": "F5",
                    "midi": 77,
                    "time": 41.818140000000156,
                    "velocity": 0.5984251968503937,
                    "duration": 0.10909080000000415
                },
                {
                    "name": "D#5",
                    "midi": 75,
                    "time": 41.90904900000016,
                    "velocity": 0.5984251968503937,
                    "duration": 0.10909080000000415
                },
                {
                    "name": "D5",
                    "midi": 74,
                    "time": 41.99995800000016,
                    "velocity": 0.5905511811023622,
                    "duration": 0.10909080000000415
                },
                {
                    "name": "C5",
                    "midi": 72,
                    "time": 42.090867000000166,
                    "velocity": 0.5905511811023622,
                    "duration": 0.10909080000000415
                },
                {
                    "name": "D5",
                    "midi": 74,
                    "time": 42.18177600000017,
                    "velocity": 0.6220472440944882,
                    "duration": 0.09090900000000346
                },
                {
                    "name": "A#4",
                    "midi": 70,
                    "time": 42.27268500000017,
                    "velocity": 0.5826771653543307,
                    "duration": 0.09090900000000346
                },
                {
                    "name": "F5",
                    "midi": 77,
                    "time": 42.36359400000018,
                    "velocity": 0.6377952755905512,
                    "duration": 0.09090900000000346
                },
                {
                    "name": "D5",
                    "midi": 74,
                    "time": 42.45450300000018,
                    "velocity": 0.5905511811023622,
                    "duration": 0.09090900000000346
                },
                {
                    "name": "A#5",
                    "midi": 82,
                    "time": 42.545412000000184,
                    "velocity": 0.6614173228346457,
                    "duration": 0.09090900000000346
                },
                {
                    "name": "F5",
                    "midi": 77,
                    "time": 42.63632100000019,
                    "velocity": 0.6220472440944882,
                    "duration": 0.09090900000000346
                },
                {
                    "name": "D6",
                    "midi": 86,
                    "time": 42.72723000000019,
                    "velocity": 0.6456692913385826,
                    "duration": 0.09090900000000346
                },
                {
                    "name": "A#5",
                    "midi": 82,
                    "time": 42.818139000000194,
                    "velocity": 0.6299212598425197,
                    "duration": 0.09090900000000346
                },
                {
                    "name": "D6",
                    "midi": 86,
                    "time": 42.9090480000002,
                    "velocity": 0.6141732283464567,
                    "duration": 0.10909080000000415
                },
                {
                    "name": "C6",
                    "midi": 84,
                    "time": 42.9999570000002,
                    "velocity": 0.5984251968503937,
                    "duration": 0.10909080000000415
                },
                {
                    "name": "A#5",
                    "midi": 82,
                    "time": 43.090866000000204,
                    "velocity": 0.5905511811023622,
                    "duration": 0.10909080000000415
                },
                {
                    "name": "A5",
                    "midi": 81,
                    "time": 43.18177500000021,
                    "velocity": 0.5748031496062992,
                    "duration": 0.10909080000000415
                },
                {
                    "name": "G5",
                    "midi": 79,
                    "time": 43.27268400000021,
                    "velocity": 0.5669291338582677,
                    "duration": 0.10909080000000415
                },
                {
                    "name": "F5",
                    "midi": 77,
                    "time": 43.363593000000215,
                    "velocity": 0.5433070866141733,
                    "duration": 0.10909080000000415
                },
                {
                    "name": "E5",
                    "midi": 76,
                    "time": 43.45450200000022,
                    "velocity": 0.5275590551181102,
                    "duration": 0.10909080000000415
                },
                {
                    "name": "D5",
                    "midi": 74,
                    "time": 43.54541100000022,
                    "velocity": 0.5118110236220472,
                    "duration": 0.10909080000000415
                },
                {
                    "name": "C5",
                    "midi": 72,
                    "time": 43.636320000000225,
                    "velocity": 0.49606299212598426,
                    "duration": 0.7272719999999993
                },
                {
                    "name": "G5",
                    "midi": 79,
                    "time": 44.363592000000224,
                    "velocity": 0.5275590551181102,
                    "duration": 0.06060599999999994
                },
                {
                    "name": "A5",
                    "midi": 81,
                    "time": 44.424198000000224,
                    "velocity": 0.48031496062992124,
                    "duration": 0.06060599999999994
                },
                {
                    "name": "G5",
                    "midi": 79,
                    "time": 44.484804000000224,
                    "velocity": 0.4645669291338583,
                    "duration": 0.06060599999999994
                },
                {
                    "name": "A5",
                    "midi": 81,
                    "time": 44.545410000000224,
                    "velocity": 0.5275590551181102,
                    "duration": 0.06060599999999994
                },
                {
                    "name": "G5",
                    "midi": 79,
                    "time": 44.606016000000224,
                    "velocity": 0.4645669291338583,
                    "duration": 0.06060599999999994
                },
                {
                    "name": "A5",
                    "midi": 81,
                    "time": 44.666622000000224,
                    "velocity": 0.4645669291338583,
                    "duration": 0.06060599999999994
                },
                {
                    "name": "G5",
                    "midi": 79,
                    "time": 44.727228000000224,
                    "velocity": 0.48031496062992124,
                    "duration": 0.06060599999999994
                },
                {
                    "name": "A5",
                    "midi": 81,
                    "time": 44.787834000000224,
                    "velocity": 0.5275590551181102,
                    "duration": 0.06060599999999994
                },
                {
                    "name": "G5",
                    "midi": 79,
                    "time": 44.848440000000224,
                    "velocity": 0.5275590551181102,
                    "duration": 0.06060599999999994
                },
                {
                    "name": "F5",
                    "midi": 77,
                    "time": 44.909046000000224,
                    "velocity": 0.5433070866141733,
                    "duration": 0.09090900000000346
                },
                {
                    "name": "G5",
                    "midi": 79,
                    "time": 44.99995500000023,
                    "velocity": 0.5511811023622047,
                    "duration": 0.09090900000000346
                },
                {
                    "name": "A5",
                    "midi": 81,
                    "time": 45.09086400000023,
                    "velocity": 0.5669291338582677,
                    "duration": 0.09090900000000346
                },
                {
                    "name": "A#5",
                    "midi": 82,
                    "time": 45.181773000000234,
                    "velocity": 0.5826771653543307,
                    "duration": 0.09090900000000346
                },
                {
                    "name": "C6",
                    "midi": 84,
                    "time": 45.27268200000024,
                    "velocity": 0.5826771653543307,
                    "duration": 0.09090900000000346
                },
                {
                    "name": "A#5",
                    "midi": 82,
                    "time": 45.36359100000024,
                    "velocity": 0.5669291338582677,
                    "duration": 0.09090900000000346
                },
                {
                    "name": "A5",
                    "midi": 81,
                    "time": 45.454500000000245,
                    "velocity": 0.5590551181102362,
                    "duration": 0.09090900000000346
                },
                {
                    "name": "G5",
                    "midi": 79,
                    "time": 45.54540900000025,
                    "velocity": 0.5511811023622047,
                    "duration": 0.09090900000000346
                },
                {
                    "name": "F5",
                    "midi": 77,
                    "time": 45.63631800000025,
                    "velocity": 0.5354330708661418,
                    "duration": 0.09090900000000346
                },
                {
                    "name": "E5",
                    "midi": 76,
                    "time": 45.727227000000255,
                    "velocity": 0.5275590551181102,
                    "duration": 0.09090900000000346
                },
                {
                    "name": "F5",
                    "midi": 77,
                    "time": 45.81813600000026,
                    "velocity": 0.5433070866141733,
                    "duration": 0.09090900000000346
                },
                {
                    "name": "G5",
                    "midi": 79,
                    "time": 45.90904500000026,
                    "velocity": 0.5590551181102362,
                    "duration": 0.09090900000000346
                },
                {
                    "name": "A5",
                    "midi": 81,
                    "time": 45.999954000000265,
                    "velocity": 0.5669291338582677,
                    "duration": 0.09090900000000346
                },
                {
                    "name": "G5",
                    "midi": 79,
                    "time": 46.09086300000027,
                    "velocity": 0.5511811023622047,
                    "duration": 0.09090900000000346
                },
                {
                    "name": "F5",
                    "midi": 77,
                    "time": 46.18177200000027,
                    "velocity": 0.5433070866141733,
                    "duration": 0.09090900000000346
                },
                {
                    "name": "D#5",
                    "midi": 75,
                    "time": 46.272681000000276,
                    "velocity": 0.5433070866141733,
                    "duration": 0.09090900000000346
                },
                {
                    "name": "D5",
                    "midi": 74,
                    "time": 46.36359000000028,
                    "velocity": 0.5354330708661418,
                    "duration": 0.09090900000000346
                },
                {
                    "name": "C#5",
                    "midi": 73,
                    "time": 46.45449900000028,
                    "velocity": 0.5275590551181102,
                    "duration": 0.09090900000000346
                },
                {
                    "name": "D5",
                    "midi": 74,
                    "time": 46.545408000000286,
                    "velocity": 0.5275590551181102,
                    "duration": 0.09090900000000346
                },
                {
                    "name": "E5",
                    "midi": 76,
                    "time": 46.63631700000029,
                    "velocity": 0.5511811023622047,
                    "duration": 0.09090900000000346
                },
                {
                    "name": "F5",
                    "midi": 77,
                    "time": 46.72722600000029,
                    "velocity": 0.5669291338582677,
                    "duration": 0.09090900000000346
                },
                {
                    "name": "E5",
                    "midi": 76,
                    "time": 46.8181350000003,
                    "velocity": 0.5590551181102362,
                    "duration": 0.09090900000000346
                },
                {
                    "name": "D5",
                    "midi": 74,
                    "time": 46.9090440000003,
                    "velocity": 0.5511811023622047,
                    "duration": 0.09090900000000346
                },
                {
                    "name": "C5",
                    "midi": 72,
                    "time": 46.9999530000003,
                    "velocity": 0.5433070866141733,
                    "duration": 0.09090900000000346
                },
                {
                    "name": "A#4",
                    "midi": 70,
                    "time": 47.09086200000031,
                    "velocity": 0.5354330708661418,
                    "duration": 0.09090900000000346
                },
                {
                    "name": "A4",
                    "midi": 69,
                    "time": 47.18177100000031,
                    "velocity": 0.5354330708661418,
                    "duration": 0.09090900000000346
                },
                {
                    "name": "G4",
                    "midi": 67,
                    "time": 47.272680000000314,
                    "velocity": 0.5275590551181102,
                    "duration": 0.09090900000000346
                },
                {
                    "name": "A4",
                    "midi": 69,
                    "time": 47.36358900000032,
                    "velocity": 0.5354330708661418,
                    "duration": 0.09090900000000346
                },
                {
                    "name": "A#4",
                    "midi": 70,
                    "time": 47.45449800000032,
                    "velocity": 0.5433070866141733,
                    "duration": 0.09090900000000346
                },
                {
                    "name": "A4",
                    "midi": 69,
                    "time": 47.545407000000324,
                    "velocity": 0.5354330708661418,
                    "duration": 0.09090900000000346
                },
                {
                    "name": "G4",
                    "midi": 67,
                    "time": 47.63631600000033,
                    "velocity": 0.5196850393700787,
                    "duration": 0.09090900000000346
                },
                {
                    "name": "F4",
                    "midi": 65,
                    "time": 47.72722500000033,
                    "velocity": 0.5118110236220472,
                    "duration": 0.09090900000000346
                },
                {
                    "name": "E4",
                    "midi": 64,
                    "time": 47.818134000000335,
                    "velocity": 0.49606299212598426,
                    "duration": 0.09090900000000346
                },
                {
                    "name": "D4",
                    "midi": 62,
                    "time": 47.90904300000034,
                    "velocity": 0.48031496062992124,
                    "duration": 0.09090900000000346
                },
                {
                    "name": "C4",
                    "midi": 60,
                    "time": 47.99995200000034,
                    "velocity": 0.47244094488188976,
                    "duration": 0.1818179999999998
                },
                {
                    "name": "D4",
                    "midi": 62,
                    "time": 48.18177000000034,
                    "velocity": 0.47244094488188976,
                    "duration": 0.09090900000000346
                },
                {
                    "name": "E4",
                    "midi": 64,
                    "time": 48.272679000000345,
                    "velocity": 0.48031496062992124,
                    "duration": 0.09090900000000346
                },
                {
                    "name": "F4",
                    "midi": 65,
                    "time": 48.36358800000035,
                    "velocity": 0.4881889763779528,
                    "duration": 0.09090900000000346
                },
                {
                    "name": "G4",
                    "midi": 67,
                    "time": 48.45449700000035,
                    "velocity": 0.5039370078740157,
                    "duration": 0.09090900000000346
                },
                {
                    "name": "A4",
                    "midi": 69,
                    "time": 48.545406000000355,
                    "velocity": 0.5118110236220472,
                    "duration": 0.09090900000000346
                },
                {
                    "name": "A#4",
                    "midi": 70,
                    "time": 48.63631500000036,
                    "velocity": 0.5196850393700787,
                    "duration": 0.09090900000000346
                },
                {
                    "name": "C5",
                    "midi": 72,
                    "time": 48.72722400000036,
                    "velocity": 0.5275590551181102,
                    "duration": 0.09090900000000346
                },
                {
                    "name": "D5",
                    "midi": 74,
                    "time": 48.818133000000365,
                    "velocity": 0.5433070866141733,
                    "duration": 0.09090900000000346
                },
                {
                    "name": "E5",
                    "midi": 76,
                    "time": 48.90904200000037,
                    "velocity": 0.5511811023622047,
                    "duration": 0.09090900000000346
                },
                {
                    "name": "F5",
                    "midi": 77,
                    "time": 48.99995100000037,
                    "velocity": 0.5590551181102362,
                    "duration": 0.09090900000000346
                },
                {
                    "name": "G5",
                    "midi": 79,
                    "time": 49.090860000000376,
                    "velocity": 0.5748031496062992,
                    "duration": 0.09090900000000346
                },
                {
                    "name": "A5",
                    "midi": 81,
                    "time": 49.18176900000038,
                    "velocity": 0.5826771653543307,
                    "duration": 0.09090900000000346
                },
                {
                    "name": "A#5",
                    "midi": 82,
                    "time": 49.27267800000038,
                    "velocity": 0.5905511811023622,
                    "duration": 0.09090900000000346
                },
                {
                    "name": "C6",
                    "midi": 84,
                    "time": 49.363587000000386,
                    "velocity": 0.6062992125984252,
                    "duration": 0.09090900000000346
                },
                {
                    "name": "F5",
                    "midi": 77,
                    "time": 49.45449600000039,
                    "velocity": 0.5590551181102362,
                    "duration": 0.06060599999999994
                },
                {
                    "name": "G5",
                    "midi": 79,
                    "time": 49.51510200000039,
                    "velocity": 0.5039370078740157,
                    "duration": 0.06060599999999994
                },
                {
                    "name": "A5",
                    "midi": 81,
                    "time": 49.57570800000039,
                    "velocity": 0.4566929133858268,
                    "duration": 0.06060599999999994
                },
                {
                    "name": "G5",
                    "midi": 79,
                    "time": 49.63631400000039,
                    "velocity": 0.5039370078740157,
                    "duration": 0.06060599999999994
                },
                {
                    "name": "A5",
                    "midi": 81,
                    "time": 49.69692000000039,
                    "velocity": 0.4566929133858268,
                    "duration": 0.06060599999999994
                },
                {
                    "name": "G5",
                    "midi": 79,
                    "time": 49.75752600000039,
                    "velocity": 0.5118110236220472,
                    "duration": 0.06060599999999994
                },
                {
                    "name": "A5",
                    "midi": 81,
                    "time": 49.81813200000039,
                    "velocity": 0.4881889763779528,
                    "duration": 0.06060599999999994
                },
                {
                    "name": "G5",
                    "midi": 79,
                    "time": 49.87873800000039,
                    "velocity": 0.5275590551181102,
                    "duration": 0.06060599999999994
                },
                {
                    "name": "A5",
                    "midi": 81,
                    "time": 49.93934400000039,
                    "velocity": 0.48031496062992124,
                    "duration": 0.06060599999999994
                },
                {
                    "name": "G5",
                    "midi": 79,
                    "time": 49.99995000000039,
                    "velocity": 0.5354330708661418,
                    "duration": 0.06060599999999994
                },
                {
                    "name": "A5",
                    "midi": 81,
                    "time": 50.06055600000039,
                    "velocity": 0.48031496062992124,
                    "duration": 0.06060599999999994
                },
                {
                    "name": "G5",
                    "midi": 79,
                    "time": 50.12116200000039,
                    "velocity": 0.5433070866141733,
                    "duration": 0.06060599999999994
                },
                {
                    "name": "A5",
                    "midi": 81,
                    "time": 50.18176800000039,
                    "velocity": 0.5039370078740157,
                    "duration": 0.06060599999999994
                },
                {
                    "name": "G5",
                    "midi": 79,
                    "time": 50.24237400000039,
                    "velocity": 0.5511811023622047,
                    "duration": 0.06060599999999994
                },
                {
                    "name": "A5",
                    "midi": 81,
                    "time": 50.30298000000039,
                    "velocity": 0.5039370078740157,
                    "duration": 0.06060599999999994
                },
                {
                    "name": "G5",
                    "midi": 79,
                    "time": 50.36358600000039,
                    "velocity": 0.5511811023622047,
                    "duration": 0.06060599999999994
                },
                {
                    "name": "A5",
                    "midi": 81,
                    "time": 50.42419200000039,
                    "velocity": 0.5196850393700787,
                    "duration": 0.06060599999999994
                },
                {
                    "name": "G5",
                    "midi": 79,
                    "time": 50.48479800000039,
                    "velocity": 0.5433070866141733,
                    "duration": 0.06060599999999994
                },
                {
                    "name": "A5",
                    "midi": 81,
                    "time": 50.54540400000039,
                    "velocity": 0.5669291338582677,
                    "duration": 0.09090900000000346
                },
                {
                    "name": "G5",
                    "midi": 79,
                    "time": 50.63631300000039,
                    "velocity": 0.5669291338582677,
                    "duration": 0.09090900000000346
                },
                {
                    "name": "F5",
                    "midi": 77,
                    "time": 50.727222000000395,
                    "velocity": 0.5748031496062992,
                    "duration": 0.09090900000000346
                },
                {
                    "name": "G5",
                    "midi": 79,
                    "time": 50.8181310000004,
                    "velocity": 0.5511811023622047,
                    "duration": 0.09090900000000346
                },
                {
                    "name": "F5",
                    "midi": 77,
                    "time": 50.9090400000004,
                    "velocity": 0.5984251968503937,
                    "duration": 0.09090900000000346
                },
                {
                    "name": "F5",
                    "midi": 77,
                    "time": 51.09085800000041,
                    "velocity": 0.5669291338582677,
                    "duration": 0.09090900000000346
                },
                {
                    "name": "F5",
                    "midi": 77,
                    "time": 51.454494000000416,
                    "velocity": 0.4330708661417323,
                    "duration": 0.09090900000000346
                },
                {
                    "name": "F5",
                    "midi": 77,
                    "time": 51.63631200000042,
                    "velocity": 0.44881889763779526,
                    "duration": 0.09090900000000346
                },
                {
                    "name": "F5",
                    "midi": 77,
                    "time": 51.81813000000043,
                    "velocity": 0.4251968503937008,
                    "duration": 0.09090900000000346
                },
                {
                    "name": "F5",
                    "midi": 77,
                    "time": 52.18176600000044,
                    "velocity": 0.4330708661417323,
                    "duration": 0.09090900000000346
                },
                {
                    "name": "F5",
                    "midi": 77,
                    "time": 52.36358400000044,
                    "velocity": 0.44881889763779526,
                    "duration": 0.09090900000000346
                },
                {
                    "name": "F5",
                    "midi": 77,
                    "time": 52.54540200000045,
                    "velocity": 0.41732283464566927,
                    "duration": 0.09090900000000346
                },
                {
                    "name": "F5",
                    "midi": 77,
                    "time": 52.90903800000046,
                    "velocity": 0.47244094488188976,
                    "duration": 0.09090900000000346
                },
                {
                    "name": "F5",
                    "midi": 77,
                    "time": 53.090856000000464,
                    "velocity": 0.5039370078740157,
                    "duration": 0.09090900000000346
                },
                {
                    "name": "F5",
                    "midi": 77,
                    "time": 53.27267400000047,
                    "velocity": 0.47244094488188976,
                    "duration": 0.09090900000000346
                },
                {
                    "name": "F5",
                    "midi": 77,
                    "time": 53.63631000000048,
                    "velocity": 0.5433070866141733,
                    "duration": 0.09090900000000346
                },
                {
                    "name": "F5",
                    "midi": 77,
                    "time": 53.818128000000485,
                    "velocity": 0.5669291338582677,
                    "duration": 0.09090900000000346
                },
                {
                    "name": "F5",
                    "midi": 77,
                    "time": 53.99994600000049,
                    "velocity": 0.5433070866141733,
                    "duration": 0.09090900000000346
                },
                {
                    "name": "F5",
                    "midi": 77,
                    "time": 54.3635820000005,
                    "velocity": 0.6220472440944882,
                    "duration": 0.09090900000000346
                },
                {
                    "name": "F5",
                    "midi": 77,
                    "time": 54.545400000000505,
                    "velocity": 0.6456692913385826,
                    "duration": 0.09090900000000346
                },
                {
                    "name": "F5",
                    "midi": 77,
                    "time": 54.72721800000051,
                    "velocity": 0.6141732283464567,
                    "duration": 0.09090900000000346
                },
                {
                    "name": "F5",
                    "midi": 77,
                    "time": 55.09085400000052,
                    "velocity": 0.6299212598425197,
                    "duration": 0.09090900000000346
                },
                {
                    "name": "F5",
                    "midi": 77,
                    "time": 55.272672000000526,
                    "velocity": 0.6771653543307087,
                    "duration": 0.1818179999999998
                },
                {
                    "name": "A5",
                    "midi": 81,
                    "time": 55.454490000000526,
                    "velocity": 0.6377952755905512,
                    "duration": 0.09090900000000346
                },
                {
                    "name": "A5",
                    "midi": 81,
                    "time": 55.63630800000053,
                    "velocity": 0.6771653543307087,
                    "duration": 0.1818179999999998
                },
                {
                    "name": "C6",
                    "midi": 84,
                    "time": 55.81812600000053,
                    "velocity": 0.6377952755905512,
                    "duration": 0.09090900000000346
                },
                {
                    "name": "C6",
                    "midi": 84,
                    "time": 55.99994400000054,
                    "velocity": 0.6771653543307087,
                    "duration": 0.1818179999999998
                },
                {
                    "name": "D#6",
                    "midi": 87,
                    "time": 56.18176200000054,
                    "velocity": 0.6377952755905512,
                    "duration": 0.09090900000000346
                },
                {
                    "name": "D#6",
                    "midi": 87,
                    "time": 56.363580000000546,
                    "velocity": 0.6771653543307087,
                    "duration": 0.1818179999999998
                },
                {
                    "name": "C6",
                    "midi": 84,
                    "time": 56.545398000000546,
                    "velocity": 0.5905511811023622,
                    "duration": 0.09090900000000346
                },
                {
                    "name": "C6",
                    "midi": 84,
                    "time": 56.72721600000055,
                    "velocity": 0.6377952755905512,
                    "duration": 0.1818179999999998
                },
                {
                    "name": "A5",
                    "midi": 81,
                    "time": 56.90903400000055,
                    "velocity": 0.5748031496062992,
                    "duration": 0.09090900000000346
                },
                {
                    "name": "A5",
                    "midi": 81,
                    "time": 57.09085200000056,
                    "velocity": 0.6220472440944882,
                    "duration": 0.1818179999999998
                },
                {
                    "name": "F5",
                    "midi": 77,
                    "time": 57.27267000000056,
                    "velocity": 0.5590551181102362,
                    "duration": 0.09090900000000346
                },
                {
                    "name": "F5",
                    "midi": 77,
                    "time": 57.454488000000566,
                    "velocity": 0.5354330708661418,
                    "duration": 0.1818179999999998
                },
                {
                    "name": "E5",
                    "midi": 76,
                    "time": 57.636306000000566,
                    "velocity": 0.44881889763779526,
                    "duration": 0.09090900000000346
                },
                {
                    "name": "E5",
                    "midi": 76,
                    "time": 57.81812400000057,
                    "velocity": 0.44881889763779526,
                    "duration": 0.1818179999999998
                },
                {
                    "name": "F5",
                    "midi": 77,
                    "time": 57.99994200000057,
                    "velocity": 0.44881889763779526,
                    "duration": 0.09090900000000346
                },
                {
                    "name": "F5",
                    "midi": 77,
                    "time": 58.18251757500058,
                    "velocity": 0.5275590551181102,
                    "duration": 0.5454539999999994
                },
                {
                    "name": "D5",
                    "midi": 74,
                    "time": 58.72721400000058,
                    "velocity": 0.41732283464566927,
                    "duration": 0.1818179999999998
                },
                {
                    "name": "A#4",
                    "midi": 70,
                    "time": 58.90903200000058,
                    "velocity": 0.4330708661417323,
                    "duration": 0.09090900000000346
                },
                {
                    "name": "A#4",
                    "midi": 70,
                    "time": 59.272668000000586,
                    "velocity": 0.41732283464566927,
                    "duration": 0.09090900000000346
                },
                {
                    "name": "D#5",
                    "midi": 75,
                    "time": 59.63630400000059,
                    "velocity": 0.47244094488188976,
                    "duration": 0.3636359999999996
                },
                {
                    "name": "G5",
                    "midi": 79,
                    "time": 59.99994000000059,
                    "velocity": 0.4330708661417323,
                    "duration": 0.09090900000000346
                },
                {
                    "name": "A4",
                    "midi": 69,
                    "time": 60.3635760000006,
                    "velocity": 0.44881889763779526,
                    "duration": 0.3636359999999996
                },
                {
                    "name": "C5",
                    "midi": 72,
                    "time": 61.0908480000006,
                    "velocity": 0.4330708661417323,
                    "duration": 0.1818179999999998
                },
                {
                    "name": "A#4",
                    "midi": 70,
                    "time": 61.2726660000006,
                    "velocity": 0.41732283464566927,
                    "duration": 0.09090900000000346
                },
                {
                    "name": "D5",
                    "midi": 74,
                    "time": 61.454484000000605,
                    "velocity": 0.44881889763779526,
                    "duration": 0.1818179999999998
                },
                {
                    "name": "C5",
                    "midi": 72,
                    "time": 61.636302000000605,
                    "velocity": 0.4251968503937008,
                    "duration": 0.09090900000000346
                },
                {
                    "name": "D#5",
                    "midi": 75,
                    "time": 61.81812000000061,
                    "velocity": 0.4566929133858268,
                    "duration": 0.1818179999999998
                },
                {
                    "name": "D5",
                    "midi": 74,
                    "time": 61.99993800000061,
                    "velocity": 0.4409448818897638,
                    "duration": 0.09090900000000346
                },
                {
                    "name": "F5",
                    "midi": 77,
                    "time": 62.18175600000062,
                    "velocity": 0.47244094488188976,
                    "duration": 0.1818179999999998
                },
                {
                    "name": "D#5",
                    "midi": 75,
                    "time": 62.36357400000062,
                    "velocity": 0.44881889763779526,
                    "duration": 0.09090900000000346
                },
                {
                    "name": "D5",
                    "midi": 74,
                    "time": 62.545392000000625,
                    "velocity": 0.47244094488188976,
                    "duration": 0.5454539999999994
                },
                {
                    "name": "D#5",
                    "midi": 75,
                    "time": 63.090846000000624,
                    "velocity": 0.44881889763779526,
                    "duration": 0.09090900000000346
                },
                {
                    "name": "D5",
                    "midi": 74,
                    "time": 63.18175500000063,
                    "velocity": 0.44881889763779526,
                    "duration": 0.09090900000000346
                },
                {
                    "name": "C5",
                    "midi": 72,
                    "time": 63.27266400000063,
                    "velocity": 0.4094488188976378,
                    "duration": 0.1818179999999998
                },
                {
                    "name": "D5",
                    "midi": 74,
                    "time": 63.45448200000063,
                    "velocity": 0.4251968503937008,
                    "duration": 0.1818179999999998
                },
                {
                    "name": "D#5",
                    "midi": 75,
                    "time": 63.63630000000063,
                    "velocity": 0.4330708661417323,
                    "duration": 0.1818179999999998
                },
                {
                    "name": "E5",
                    "midi": 76,
                    "time": 63.81811800000063,
                    "velocity": 0.44881889763779526,
                    "duration": 0.1818179999999998
                },
                {
                    "name": "F5",
                    "midi": 77,
                    "time": 63.99993600000063,
                    "velocity": 0.4645669291338583,
                    "duration": 0.5454540000000065
                },
                {
                    "name": "D#5",
                    "midi": 75,
                    "time": 64.54539000000064,
                    "velocity": 0.41732283464566927,
                    "duration": 0.06060600000000704
                },
                {
                    "name": "D5",
                    "midi": 74,
                    "time": 64.60599600000064,
                    "velocity": 0.41732283464566927,
                    "duration": 0.06060600000000704
                },
                {
                    "name": "C5",
                    "midi": 72,
                    "time": 64.66660200000065,
                    "velocity": 0.41732283464566927,
                    "duration": 0.06060600000000704
                },
                {
                    "name": "A#4",
                    "midi": 70,
                    "time": 64.72720800000066,
                    "velocity": 0.4409448818897638,
                    "duration": 0.09090899999999635
                },
                {
                    "name": "A#4",
                    "midi": 70,
                    "time": 65.09084400000066,
                    "velocity": 0.4409448818897638,
                    "duration": 0.09090899999999635
                },
                {
                    "name": "D#5",
                    "midi": 75,
                    "time": 65.45448000000066,
                    "velocity": 0.47244094488188976,
                    "duration": 0.3636359999999996
                },
                {
                    "name": "G5",
                    "midi": 79,
                    "time": 65.81811600000066,
                    "velocity": 0.4330708661417323,
                    "duration": 0.09090899999999635
                },
                {
                    "name": "A4",
                    "midi": 69,
                    "time": 66.18175200000066,
                    "velocity": 0.4566929133858268,
                    "duration": 0.3636359999999996
                },
                {
                    "name": "A4",
                    "midi": 69,
                    "time": 66.72720600000066,
                    "velocity": 0.4251968503937008,
                    "duration": 0.18181800000000692
                },
                {
                    "name": "A#4",
                    "midi": 70,
                    "time": 66.90902400000067,
                    "velocity": 0.4566929133858268,
                    "duration": 0.18181800000000692
                },
                {
                    "name": "D5",
                    "midi": 74,
                    "time": 67.09084200000068,
                    "velocity": 0.4330708661417323,
                    "duration": 0.09090899999999635
                },
                {
                    "name": "G4",
                    "midi": 67,
                    "time": 67.27266000000067,
                    "velocity": 0.4566929133858268,
                    "duration": 0.18181800000000692
                },
                {
                    "name": "C5",
                    "midi": 72,
                    "time": 67.45447800000068,
                    "velocity": 0.4330708661417323,
                    "duration": 0.09090899999999635
                },
                {
                    "name": "A#4",
                    "midi": 70,
                    "time": 67.63629600000067,
                    "velocity": 0.4566929133858268,
                    "duration": 0.3636359999999996
                },
                {
                    "name": "A4",
                    "midi": 69,
                    "time": 67.99993200000067,
                    "velocity": 0.4330708661417323,
                    "duration": 0.3636359999999996
                },
                {
                    "name": "A#4",
                    "midi": 70,
                    "time": 68.36356800000067,
                    "velocity": 0.4566929133858268,
                    "duration": 0.18181800000000692
                },
                {
                    "name": "F4",
                    "midi": 65,
                    "time": 68.54538600000068,
                    "velocity": 0.4409448818897638,
                    "duration": 0.09090899999999635
                },
                {
                    "name": "G4",
                    "midi": 67,
                    "time": 68.72720400000067,
                    "velocity": 0.47244094488188976,
                    "duration": 0.09090899999999635
                },
                {
                    "name": "A4",
                    "midi": 69,
                    "time": 68.90902200000066,
                    "velocity": 0.49606299212598426,
                    "duration": 0.09090899999999635
                },
                {
                    "name": "A#4",
                    "midi": 70,
                    "time": 69.09084000000065,
                    "velocity": 0.5275590551181102,
                    "duration": 0.09090899999999635
                },
                {
                    "name": "C5",
                    "midi": 72,
                    "time": 69.27265800000065,
                    "velocity": 0.5511811023622047,
                    "duration": 0.09090899999999635
                },
                {
                    "name": "D5",
                    "midi": 74,
                    "time": 69.45447600000064,
                    "velocity": 0.5826771653543307,
                    "duration": 0.09090899999999635
                },
                {
                    "name": "D#5",
                    "midi": 75,
                    "time": 69.63629400000063,
                    "velocity": 0.6062992125984252,
                    "duration": 0.09090899999999635
                },
                {
                    "name": "F5",
                    "midi": 77,
                    "time": 69.81886957500062,
                    "velocity": 0.6692913385826772,
                    "duration": 0.5454539999999923
                },
                {
                    "name": "D5",
                    "midi": 74,
                    "time": 70.36356600000062,
                    "velocity": 0.5826771653543307,
                    "duration": 0.1818179999999927
                },
                {
                    "name": "A#4",
                    "midi": 70,
                    "time": 70.54538400000061,
                    "velocity": 0.6141732283464567,
                    "duration": 0.18181800000000692
                },
                {
                    "name": "A#4",
                    "midi": 70,
                    "time": 70.90902000000062,
                    "velocity": 0.6141732283464567,
                    "duration": 0.18181800000000692
                },
                {
                    "name": "D#5",
                    "midi": 75,
                    "time": 71.27265600000064,
                    "velocity": 0.6692913385826772,
                    "duration": 0.07272720000000277
                },
                {
                    "name": "F5",
                    "midi": 77,
                    "time": 71.34538320000064,
                    "velocity": 0.48031496062992124,
                    "duration": 0.07272720000000277
                },
                {
                    "name": "D#5",
                    "midi": 75,
                    "time": 71.41811040000064,
                    "velocity": 0.48031496062992124,
                    "duration": 0.07272720000000277
                },
                {
                    "name": "D5",
                    "midi": 74,
                    "time": 71.49083760000065,
                    "velocity": 0.48031496062992124,
                    "duration": 0.07272720000000277
                },
                {
                    "name": "D#5",
                    "midi": 75,
                    "time": 71.56356480000065,
                    "velocity": 0.48031496062992124,
                    "duration": 0.07272720000000277
                },
                {
                    "name": "G5",
                    "midi": 79,
                    "time": 71.63629200000065,
                    "velocity": 0.6141732283464567,
                    "duration": 0.3636359999999996
                },
                {
                    "name": "A4",
                    "midi": 69,
                    "time": 71.99992800000065,
                    "velocity": 0.6377952755905512,
                    "duration": 0.3636359999999996
                },
                {
                    "name": "C5",
                    "midi": 72,
                    "time": 72.72720000000065,
                    "velocity": 0.6141732283464567,
                    "duration": 0.18181800000000692
                },
                {
                    "name": "A#4",
                    "midi": 70,
                    "time": 72.90901800000066,
                    "velocity": 0.5590551181102362,
                    "duration": 0.09090899999999635
                },
                {
                    "name": "D5",
                    "midi": 74,
                    "time": 73.09083600000065,
                    "velocity": 0.6377952755905512,
                    "duration": 0.18181800000000692
                },
                {
                    "name": "C5",
                    "midi": 72,
                    "time": 73.27265400000066,
                    "velocity": 0.5905511811023622,
                    "duration": 0.09090899999999635
                },
                {
                    "name": "D#5",
                    "midi": 75,
                    "time": 73.45447200000065,
                    "velocity": 0.6456692913385826,
                    "duration": 0.18181800000000692
                },
                {
                    "name": "D5",
                    "midi": 74,
                    "time": 73.63629000000066,
                    "velocity": 0.6062992125984252,
                    "duration": 0.09090899999999635
                },
                {
                    "name": "F5",
                    "midi": 77,
                    "time": 73.81810800000065,
                    "velocity": 0.6692913385826772,
                    "duration": 0.18181800000000692
                },
                {
                    "name": "D#5",
                    "midi": 75,
                    "time": 73.99992600000066,
                    "velocity": 0.6377952755905512,
                    "duration": 0.09090899999999635
                },
                {
                    "name": "D5",
                    "midi": 74,
                    "time": 74.18174400000065,
                    "velocity": 0.6692913385826772,
                    "duration": 0.5454540000000065
                },
                {
                    "name": "D#5",
                    "midi": 75,
                    "time": 74.72719800000066,
                    "velocity": 0.6141732283464567,
                    "duration": 0.09090899999999635
                },
                {
                    "name": "D5",
                    "midi": 74,
                    "time": 74.81810700000065,
                    "velocity": 0.5984251968503937,
                    "duration": 0.09090899999999635
                },
                {
                    "name": "C5",
                    "midi": 72,
                    "time": 74.90901600000065,
                    "velocity": 0.5748031496062992,
                    "duration": 0.18181800000000692
                },
                {
                    "name": "D5",
                    "midi": 74,
                    "time": 75.09083400000065,
                    "velocity": 0.6062992125984252,
                    "duration": 0.18181800000000692
                },
                {
                    "name": "D#5",
                    "midi": 75,
                    "time": 75.27265200000066,
                    "velocity": 0.6141732283464567,
                    "duration": 0.18181800000000692
                },
                {
                    "name": "E5",
                    "midi": 76,
                    "time": 75.45447000000067,
                    "velocity": 0.6377952755905512,
                    "duration": 0.18181800000000692
                },
                {
                    "name": "F5",
                    "midi": 77,
                    "time": 75.63628800000068,
                    "velocity": 0.6535433070866141,
                    "duration": 0.5454540000000065
                },
                {
                    "name": "D#5",
                    "midi": 75,
                    "time": 76.18174200000068,
                    "velocity": 0.5826771653543307,
                    "duration": 0.06060600000000704
                },
                {
                    "name": "D5",
                    "midi": 74,
                    "time": 76.24234800000069,
                    "velocity": 0.5826771653543307,
                    "duration": 0.06060600000000704
                },
                {
                    "name": "C5",
                    "midi": 72,
                    "time": 76.3029540000007,
                    "velocity": 0.5826771653543307,
                    "duration": 0.06060600000000704
                },
                {
                    "name": "A#4",
                    "midi": 70,
                    "time": 76.3635600000007,
                    "velocity": 0.6220472440944882,
                    "duration": 0.09090899999999635
                },
                {
                    "name": "A#4",
                    "midi": 70,
                    "time": 76.5453780000007,
                    "velocity": 0.6220472440944882,
                    "duration": 0.09090899999999635
                },
                {
                    "name": "A#4",
                    "midi": 70,
                    "time": 76.72719600000069,
                    "velocity": 0.6220472440944882,
                    "duration": 0.09090899999999635
                },
                {
                    "name": "A#4",
                    "midi": 70,
                    "time": 76.90901400000068,
                    "velocity": 0.6220472440944882,
                    "duration": 0.09090899999999635
                },
                {
                    "name": "D#5",
                    "midi": 75,
                    "time": 77.09083200000067,
                    "velocity": 0.6692913385826772,
                    "duration": 0.07272720000000277
                },
                {
                    "name": "F5",
                    "midi": 77,
                    "time": 77.16355920000068,
                    "velocity": 0.48031496062992124,
                    "duration": 0.07272720000000277
                },
                {
                    "name": "D#5",
                    "midi": 75,
                    "time": 77.23628640000068,
                    "velocity": 0.48031496062992124,
                    "duration": 0.07272720000000277
                },
                {
                    "name": "D5",
                    "midi": 74,
                    "time": 77.30901360000068,
                    "velocity": 0.48031496062992124,
                    "duration": 0.07272720000000277
                },
                {
                    "name": "D#5",
                    "midi": 75,
                    "time": 77.38174080000068,
                    "velocity": 0.48031496062992124,
                    "duration": 0.07272720000000277
                },
                {
                    "name": "G5",
                    "midi": 79,
                    "time": 77.45446800000069,
                    "velocity": 0.6141732283464567,
                    "duration": 0.3636359999999996
                },
                {
                    "name": "A4",
                    "midi": 69,
                    "time": 77.81810400000069,
                    "velocity": 0.6456692913385826,
                    "duration": 0.3636359999999996
                },
                {
                    "name": "A5",
                    "midi": 81,
                    "time": 78.3635580000007,
                    "velocity": 0.6062992125984252,
                    "duration": 0.18181800000000692
                },
                {
                    "name": "A#5",
                    "midi": 82,
                    "time": 78.5453760000007,
                    "velocity": 0.6692913385826772,
                    "duration": 0.12121199999999988
                },
                {
                    "name": "F5",
                    "midi": 77,
                    "time": 78.6665880000007,
                    "velocity": 0.5905511811023622,
                    "duration": 0.12121199999999988
                },
                {
                    "name": "D5",
                    "midi": 74,
                    "time": 78.7878000000007,
                    "velocity": 0.5826771653543307,
                    "duration": 0.12121199999999988
                },
                {
                    "name": "G5",
                    "midi": 79,
                    "time": 78.9090120000007,
                    "velocity": 0.6614173228346457,
                    "duration": 0.12121199999999988
                },
                {
                    "name": "D#5",
                    "midi": 75,
                    "time": 79.0302240000007,
                    "velocity": 0.5905511811023622,
                    "duration": 0.12121199999999988
                },
                {
                    "name": "C5",
                    "midi": 72,
                    "time": 79.1514360000007,
                    "velocity": 0.5905511811023622,
                    "duration": 0.12121199999999988
                },
                {
                    "name": "F5",
                    "midi": 77,
                    "time": 79.2726480000007,
                    "velocity": 0.6614173228346457,
                    "duration": 0.12121199999999988
                },
                {
                    "name": "D5",
                    "midi": 74,
                    "time": 79.3938600000007,
                    "velocity": 0.5826771653543307,
                    "duration": 0.12121199999999988
                },
                {
                    "name": "A#4",
                    "midi": 70,
                    "time": 79.5150720000007,
                    "velocity": 0.5826771653543307,
                    "duration": 0.12121199999999988
                },
                {
                    "name": "D#5",
                    "midi": 75,
                    "time": 79.6362840000007,
                    "velocity": 0.6614173228346457,
                    "duration": 0.12121199999999988
                },
                {
                    "name": "C5",
                    "midi": 72,
                    "time": 79.7574960000007,
                    "velocity": 0.5826771653543307,
                    "duration": 0.12121199999999988
                },
                {
                    "name": "A4",
                    "midi": 69,
                    "time": 79.8787080000007,
                    "velocity": 0.5669291338582677,
                    "duration": 0.12121199999999988
                },
                {
                    "name": "A#4",
                    "midi": 70,
                    "time": 79.9999200000007,
                    "velocity": 0.6535433070866141,
                    "duration": 0.3636359999999996
                },
                {
                    "name": "F4",
                    "midi": 65,
                    "time": 80.5453740000007,
                    "velocity": 0.4330708661417323,
                    "duration": 0.18181800000000692
                },
                {
                    "name": "A#4",
                    "midi": 70,
                    "time": 80.72719200000071,
                    "velocity": 0.4566929133858268,
                    "duration": 0.09090899999999635
                },
                {
                    "name": "A4",
                    "midi": 69,
                    "time": 80.9090100000007,
                    "velocity": 0.4094488188976378,
                    "duration": 0.09090899999999635
                },
                {
                    "name": "A#4",
                    "midi": 70,
                    "time": 81.0908280000007,
                    "velocity": 0.4330708661417323,
                    "duration": 0.09090899999999635
                },
                {
                    "name": "C5",
                    "midi": 72,
                    "time": 81.27264600000069,
                    "velocity": 0.4015748031496063,
                    "duration": 0.09090899999999635
                },
                {
                    "name": "D5",
                    "midi": 74,
                    "time": 81.45446400000068,
                    "velocity": 0.4330708661417323,
                    "duration": 0.09090899999999635
                },
                {
                    "name": "A#4",
                    "midi": 70,
                    "time": 81.81810000000068,
                    "velocity": 0.4409448818897638,
                    "duration": 0.13636350000000164
                },
                {
                    "name": "D5",
                    "midi": 74,
                    "time": 81.81810000000068,
                    "velocity": 0.4409448818897638,
                    "duration": 0.13636350000000164
                },
                {
                    "name": "A#4",
                    "midi": 70,
                    "time": 82.18173600000068,
                    "velocity": 0.4645669291338583,
                    "duration": 0.3636359999999996
                },
                {
                    "name": "D5",
                    "midi": 74,
                    "time": 82.18173600000068,
                    "velocity": 0.4645669291338583,
                    "duration": 0.3636359999999996
                },
                {
                    "name": "C5",
                    "midi": 72,
                    "time": 82.54537200000068,
                    "velocity": 0.4330708661417323,
                    "duration": 0.3636359999999996
                },
                {
                    "name": "D#5",
                    "midi": 75,
                    "time": 82.54537200000068,
                    "velocity": 0.4330708661417323,
                    "duration": 0.3636359999999996
                },
                {
                    "name": "C5",
                    "midi": 72,
                    "time": 82.90900800000068,
                    "velocity": 0.4251968503937008,
                    "duration": 0.3636359999999996
                },
                {
                    "name": "A4",
                    "midi": 69,
                    "time": 82.90900800000068,
                    "velocity": 0.4251968503937008,
                    "duration": 0.3636359999999996
                },
                {
                    "name": "F4",
                    "midi": 65,
                    "time": 83.45446200000069,
                    "velocity": 0.4330708661417323,
                    "duration": 0.18181800000000692
                },
                {
                    "name": "C5",
                    "midi": 72,
                    "time": 83.6362800000007,
                    "velocity": 0.44881889763779526,
                    "duration": 0.09090899999999635
                },
                {
                    "name": "A#4",
                    "midi": 70,
                    "time": 83.81809800000069,
                    "velocity": 0.4251968503937008,
                    "duration": 0.09090899999999635
                },
                {
                    "name": "C5",
                    "midi": 72,
                    "time": 83.99991600000068,
                    "velocity": 0.4409448818897638,
                    "duration": 0.09090899999999635
                },
                {
                    "name": "D5",
                    "midi": 74,
                    "time": 84.18173400000067,
                    "velocity": 0.4251968503937008,
                    "duration": 0.09090899999999635
                },
                {
                    "name": "D#5",
                    "midi": 75,
                    "time": 84.36355200000067,
                    "velocity": 0.4409448818897638,
                    "duration": 0.09090899999999635
                },
                {
                    "name": "G4",
                    "midi": 67,
                    "time": 84.72718800000067,
                    "velocity": 0.4409448818897638,
                    "duration": 0.13636350000000164
                },
                {
                    "name": "D#5",
                    "midi": 75,
                    "time": 84.72718800000067,
                    "velocity": 0.4409448818897638,
                    "duration": 0.13636350000000164
                },
                {
                    "name": "D#5",
                    "midi": 75,
                    "time": 85.09082400000067,
                    "velocity": 0.4566929133858268,
                    "duration": 0.340908749999997
                },
                {
                    "name": "C5",
                    "midi": 72,
                    "time": 85.09082400000067,
                    "velocity": 0.4566929133858268,
                    "duration": 0.340908749999997
                },
                {
                    "name": "F5",
                    "midi": 77,
                    "time": 85.45446000000067,
                    "velocity": 0.4409448818897638,
                    "duration": 0.3636359999999996
                },
                {
                    "name": "A4",
                    "midi": 69,
                    "time": 85.45446000000067,
                    "velocity": 0.4409448818897638,
                    "duration": 0.3636359999999996
                },
                {
                    "name": "D5",
                    "midi": 74,
                    "time": 85.81809600000066,
                    "velocity": 0.4251968503937008,
                    "duration": 0.3636359999999996
                },
                {
                    "name": "A#4",
                    "midi": 70,
                    "time": 85.81809600000066,
                    "velocity": 0.4251968503937008,
                    "duration": 0.3636359999999996
                },
                {
                    "name": "A#4",
                    "midi": 70,
                    "time": 86.36355000000067,
                    "velocity": 0.4566929133858268,
                    "duration": 0.18181800000000692
                },
                {
                    "name": "D5",
                    "midi": 74,
                    "time": 86.54536800000068,
                    "velocity": 0.5039370078740157,
                    "duration": 0.09090899999999635
                },
                {
                    "name": "C5",
                    "midi": 72,
                    "time": 86.72718600000067,
                    "velocity": 0.4645669291338583,
                    "duration": 0.09090899999999635
                },
                {
                    "name": "D5",
                    "midi": 74,
                    "time": 86.90900400000066,
                    "velocity": 0.5039370078740157,
                    "duration": 0.09090899999999635
                },
                {
                    "name": "D#5",
                    "midi": 75,
                    "time": 87.09082200000066,
                    "velocity": 0.5275590551181102,
                    "duration": 0.09090899999999635
                },
                {
                    "name": "F5",
                    "midi": 77,
                    "time": 87.27264000000065,
                    "velocity": 0.5590551181102362,
                    "duration": 0.2727270000000033
                },
                {
                    "name": "F5",
                    "midi": 77,
                    "time": 87.63627600000065,
                    "velocity": 0.5984251968503937,
                    "duration": 0.2727270000000033
                },
                {
                    "name": "F5",
                    "midi": 77,
                    "time": 87.99991200000065,
                    "velocity": 0.6220472440944882,
                    "duration": 0.2727270000000033
                },
                {
                    "name": "F5",
                    "midi": 77,
                    "time": 88.36354800000065,
                    "velocity": 0.6456692913385826,
                    "duration": 0.2727270000000033
                },
                {
                    "name": "F#5",
                    "midi": 78,
                    "time": 88.72718400000065,
                    "velocity": 0.7165354330708661,
                    "duration": 1.4545440000000411
                },
                {
                    "name": "C5",
                    "midi": 72,
                    "time": 88.90900200000065,
                    "velocity": 0.4645669291338583,
                    "duration": 0.18181800000000692
                },
                {
                    "name": "D5",
                    "midi": 74,
                    "time": 89.09082000000066,
                    "velocity": 0.4645669291338583,
                    "duration": 0.18181800000000692
                },
                {
                    "name": "D#5",
                    "midi": 75,
                    "time": 89.27263800000067,
                    "velocity": 0.49606299212598426,
                    "duration": 0.13106047499999818
                },
                {
                    "name": "D#5",
                    "midi": 75,
                    "time": 89.45445600000066,
                    "velocity": 0.49606299212598426,
                    "duration": 0.18181800000000692
                },
                {
                    "name": "D5",
                    "midi": 74,
                    "time": 89.63627400000067,
                    "velocity": 0.4881889763779528,
                    "duration": 0.13636350000000164
                },
                {
                    "name": "D5",
                    "midi": 74,
                    "time": 89.81809200000068,
                    "velocity": 0.48031496062992124,
                    "duration": 0.18181800000000692
                },
                {
                    "name": "C5",
                    "midi": 72,
                    "time": 89.99991000000068,
                    "velocity": 0.44881889763779526,
                    "duration": 0.13636350000000164
                },
                {
                    "name": "A#4",
                    "midi": 70,
                    "time": 90.18172800000069,
                    "velocity": 0.5511811023622047,
                    "duration": 0.7272719999999993
                },
                {
                    "name": "G5",
                    "midi": 79,
                    "time": 90.18172800000069,
                    "velocity": 0.5511811023622047,
                    "duration": 0.7272719999999993
                },
                {
                    "name": "C#5",
                    "midi": 73,
                    "time": 90.90900000000069,
                    "velocity": 0.5039370078740157,
                    "duration": 0.7272719999999993
                },
                {
                    "name": "D5",
                    "midi": 74,
                    "time": 91.63627200000069,
                    "velocity": 0.5433070866141733,
                    "duration": 0.3636359999999996
                },
                {
                    "name": "D4",
                    "midi": 62,
                    "time": 92.27263500000069,
                    "velocity": 0.49606299212598426,
                    "duration": 0.09090899999999635
                },
                {
                    "name": "D5",
                    "midi": 74,
                    "time": 92.36354400000069,
                    "velocity": 0.6299212598425197,
                    "duration": 0.340908749999997
                },
                {
                    "name": "D5",
                    "midi": 74,
                    "time": 92.72718000000069,
                    "velocity": 0.5984251968503937,
                    "duration": 0.3636359999999996
                },
                {
                    "name": "A#5",
                    "midi": 82,
                    "time": 93.09081600000069,
                    "velocity": 0.6692913385826772,
                    "duration": 0.5454540000000065
                },
                {
                    "name": "A5",
                    "midi": 81,
                    "time": 93.63627000000069,
                    "velocity": 0.5905511811023622,
                    "duration": 0.06060600000000704
                },
                {
                    "name": "G5",
                    "midi": 79,
                    "time": 93.6968760000007,
                    "velocity": 0.5669291338582677,
                    "duration": 0.06060600000000704
                },
                {
                    "name": "F#5",
                    "midi": 78,
                    "time": 93.7574820000007,
                    "velocity": 0.5669291338582677,
                    "duration": 0.06060600000000704
                },
                {
                    "name": "G5",
                    "midi": 79,
                    "time": 93.81808800000071,
                    "velocity": 0.6220472440944882,
                    "duration": 0.3636359999999996
                },
                {
                    "name": "D5",
                    "midi": 74,
                    "time": 94.18172400000071,
                    "velocity": 0.5748031496062992,
                    "duration": 0.3636359999999996
                },
                {
                    "name": "D#5",
                    "midi": 75,
                    "time": 94.54536000000071,
                    "velocity": 0.6299212598425197,
                    "duration": 0.3636359999999996
                },
                {
                    "name": "G4",
                    "midi": 67,
                    "time": 95.18172300000072,
                    "velocity": 0.5590551181102362,
                    "duration": 0.09090899999999635
                },
                {
                    "name": "G5",
                    "midi": 79,
                    "time": 95.27263200000071,
                    "velocity": 0.6771653543307087,
                    "duration": 0.340908749999997
                },
                {
                    "name": "G5",
                    "midi": 79,
                    "time": 95.63626800000071,
                    "velocity": 0.6535433070866141,
                    "duration": 0.3636359999999996
                },
                {
                    "name": "D#6",
                    "midi": 87,
                    "time": 95.99990400000071,
                    "velocity": 0.7952755905511811,
                    "duration": 0.5454540000000065
                },
                {
                    "name": "D6",
                    "midi": 86,
                    "time": 96.54535800000072,
                    "velocity": 0.5905511811023622,
                    "duration": 0.06060600000000704
                },
                {
                    "name": "C6",
                    "midi": 84,
                    "time": 96.60596400000072,
                    "velocity": 0.5590551181102362,
                    "duration": 0.06060600000000704
                },
                {
                    "name": "B5",
                    "midi": 83,
                    "time": 96.66657000000073,
                    "velocity": 0.5590551181102362,
                    "duration": 0.06060600000000704
                },
                {
                    "name": "C6",
                    "midi": 84,
                    "time": 96.72717600000074,
                    "velocity": 0.6220472440944882,
                    "duration": 0.3636359999999996
                },
                {
                    "name": "D#5",
                    "midi": 75,
                    "time": 97.09081200000074,
                    "velocity": 0.6141732283464567,
                    "duration": 0.3636359999999996
                },
                {
                    "name": "D5",
                    "midi": 74,
                    "time": 97.45444800000074,
                    "velocity": 0.5826771653543307,
                    "duration": 0.3636359999999996
                },
                {
                    "name": "C#5",
                    "midi": 73,
                    "time": 97.99990200000074,
                    "velocity": 0.5433070866141733,
                    "duration": 0.18181800000000692
                },
                {
                    "name": "D5",
                    "midi": 74,
                    "time": 98.18172000000075,
                    "velocity": 0.5748031496062992,
                    "duration": 0.18181800000000692
                },
                {
                    "name": "A#5",
                    "midi": 82,
                    "time": 98.36353800000076,
                    "velocity": 0.5669291338582677,
                    "duration": 0.09090899999999635
                },
                {
                    "name": "A5",
                    "midi": 81,
                    "time": 98.54535600000075,
                    "velocity": 0.5590551181102362,
                    "duration": 0.09090899999999635
                },
                {
                    "name": "G5",
                    "midi": 79,
                    "time": 98.72717400000074,
                    "velocity": 0.5433070866141733,
                    "duration": 0.09090899999999635
                },
                {
                    "name": "F#5",
                    "midi": 78,
                    "time": 98.90899200000074,
                    "velocity": 0.5826771653543307,
                    "duration": 0.2727270000000033
                },
                {
                    "name": "G5",
                    "midi": 79,
                    "time": 99.18171900000074,
                    "velocity": 0.5039370078740157,
                    "duration": 0.04545450000000528
                },
                {
                    "name": "A5",
                    "midi": 81,
                    "time": 99.22717350000075,
                    "velocity": 0.5039370078740157,
                    "duration": 0.04545450000000528
                },
                {
                    "name": "G5",
                    "midi": 79,
                    "time": 99.27262800000075,
                    "velocity": 0.6141732283464567,
                    "duration": 0.09090899999999635
                },
                {
                    "name": "G5",
                    "midi": 79,
                    "time": 99.45444600000074,
                    "velocity": 0.5826771653543307,
                    "duration": 0.09090899999999635
                },
                {
                    "name": "C#6",
                    "midi": 85,
                    "time": 99.63626400000074,
                    "velocity": 0.6535433070866141,
                    "duration": 0.18181800000000692
                },
                {
                    "name": "D6",
                    "midi": 86,
                    "time": 99.81808200000074,
                    "velocity": 0.6141732283464567,
                    "duration": 0.18181800000000692
                },
                {
                    "name": "A#5",
                    "midi": 82,
                    "time": 99.99990000000075,
                    "velocity": 0.5826771653543307,
                    "duration": 0.09090899999999635
                },
                {
                    "name": "G5",
                    "midi": 79,
                    "time": 100.18171800000074,
                    "velocity": 0.5826771653543307,
                    "duration": 0.09090899999999635
                },
                {
                    "name": "F#5",
                    "midi": 78,
                    "time": 100.36353600000074,
                    "velocity": 0.6062992125984252,
                    "duration": 0.2727270000000033
                },
                {
                    "name": "G5",
                    "midi": 79,
                    "time": 100.63626300000074,
                    "velocity": 0.5196850393700787,
                    "duration": 0.04545450000000528
                },
                {
                    "name": "A5",
                    "midi": 81,
                    "time": 100.68171750000074,
                    "velocity": 0.5196850393700787,
                    "duration": 0.04545450000000528
                },
                {
                    "name": "G5",
                    "midi": 79,
                    "time": 100.72717200000075,
                    "velocity": 0.6062992125984252,
                    "duration": 0.09090899999999635
                },
                {
                    "name": "D5",
                    "midi": 74,
                    "time": 100.90899000000074,
                    "velocity": 0.5275590551181102,
                    "duration": 0.18181800000000692
                },
                {
                    "name": "G5",
                    "midi": 79,
                    "time": 101.09080800000075,
                    "velocity": 0.5590551181102362,
                    "duration": 0.09090899999999635
                },
                {
                    "name": "G5",
                    "midi": 79,
                    "time": 101.27262600000074,
                    "velocity": 0.5590551181102362,
                    "duration": 0.09090899999999635
                },
                {
                    "name": "G5",
                    "midi": 79,
                    "time": 101.45444400000073,
                    "velocity": 0.5590551181102362,
                    "duration": 0.09090899999999635
                },
                {
                    "name": "G5",
                    "midi": 79,
                    "time": 101.63626200000073,
                    "velocity": 0.5590551181102362,
                    "duration": 0.09090899999999635
                },
                {
                    "name": "G5",
                    "midi": 79,
                    "time": 101.81808000000072,
                    "velocity": 0.6141732283464567,
                    "duration": 0.2727270000000033
                },
                {
                    "name": "A5",
                    "midi": 81,
                    "time": 102.09080700000072,
                    "velocity": 0.49606299212598426,
                    "duration": 0.04545450000000528
                },
                {
                    "name": "A#5",
                    "midi": 82,
                    "time": 102.13626150000073,
                    "velocity": 0.49606299212598426,
                    "duration": 0.04545450000000528
                },
                {
                    "name": "A5",
                    "midi": 81,
                    "time": 102.18171600000073,
                    "velocity": 0.5905511811023622,
                    "duration": 0.09090899999999635
                },
                {
                    "name": "G5",
                    "midi": 79,
                    "time": 102.36353400000073,
                    "velocity": 0.5669291338582677,
                    "duration": 0.09090899999999635
                },
                {
                    "name": "F5",
                    "midi": 77,
                    "time": 102.54535200000072,
                    "velocity": 0.5669291338582677,
                    "duration": 0.09090899999999635
                },
                {
                    "name": "D#5",
                    "midi": 75,
                    "time": 102.72717000000071,
                    "velocity": 0.5511811023622047,
                    "duration": 0.09090899999999635
                },
                {
                    "name": "D5",
                    "midi": 74,
                    "time": 102.9089880000007,
                    "velocity": 0.5354330708661418,
                    "duration": 0.09090899999999635
                },
                {
                    "name": "C#5",
                    "midi": 73,
                    "time": 103.0908060000007,
                    "velocity": 0.5275590551181102,
                    "duration": 0.09090899999999635
                },
                {
                    "name": "C#5",
                    "midi": 73,
                    "time": 103.27262400000069,
                    "velocity": 0.5590551181102362,
                    "duration": 0.18181800000000692
                },
                {
                    "name": "D5",
                    "midi": 74,
                    "time": 103.4544420000007,
                    "velocity": 0.5354330708661418,
                    "duration": 0.18181800000000692
                },
                {
                    "name": "D5",
                    "midi": 74,
                    "time": 103.6362600000007,
                    "velocity": 0.4645669291338583,
                    "duration": 0.2727270000000033
                },
                {
                    "name": "D5",
                    "midi": 74,
                    "time": 103.9998960000007,
                    "velocity": 0.4566929133858268,
                    "duration": 0.2727270000000033
                },
                {
                    "name": "D5",
                    "midi": 74,
                    "time": 104.3635320000007,
                    "velocity": 0.4251968503937008,
                    "duration": 0.2727270000000033
                },
                {
                    "name": "C#5",
                    "midi": 73,
                    "time": 104.7271680000007,
                    "velocity": 0.31496062992125984,
                    "duration": 0.06060600000000704
                },
                {
                    "name": "D5",
                    "midi": 74,
                    "time": 104.78777400000071,
                    "velocity": 0.3464566929133858,
                    "duration": 0.06060600000000704
                },
                {
                    "name": "D#5",
                    "midi": 75,
                    "time": 104.84838000000072,
                    "velocity": 0.3858267716535433,
                    "duration": 0.06060600000000704
                },
                {
                    "name": "D5",
                    "midi": 74,
                    "time": 104.90898600000072,
                    "velocity": 0.4881889763779528,
                    "duration": 1.2727260000000058
                },
                {
                    "name": "F5",
                    "midi": 77,
                    "time": 106.18171200000073,
                    "velocity": 0.5669291338582677,
                    "duration": 1.4545439999999985
                },
                {
                    "name": "D4",
                    "midi": 62,
                    "time": 107.63625600000073,
                    "velocity": 0.5826771653543307,
                    "duration": 1.4545439999999985
                },
                {
                    "name": "G#3",
                    "midi": 56,
                    "time": 107.63625600000073,
                    "velocity": 0.5826771653543307,
                    "duration": 1.4545439999999985
                },
                {
                    "name": "G3",
                    "midi": 55,
                    "time": 109.09080000000073,
                    "velocity": 0.5826771653543307,
                    "duration": 0.3636359999999996
                },
                {
                    "name": "D#4",
                    "midi": 63,
                    "time": 109.09080000000073,
                    "velocity": 0.5826771653543307,
                    "duration": 0.9999990000000025
                },
                {
                    "name": "A#3",
                    "midi": 58,
                    "time": 110.09079900000073,
                    "velocity": 0.3543307086614173,
                    "duration": 0.09090899999999635
                },
                {
                    "name": "D4",
                    "midi": 62,
                    "time": 110.18170800000073,
                    "velocity": 0.3858267716535433,
                    "duration": 0.2727270000000033
                },
                {
                    "name": "A#3",
                    "midi": 58,
                    "time": 110.45443500000073,
                    "velocity": 0.36220472440944884,
                    "duration": 0.09090899999999635
                },
                {
                    "name": "D#4",
                    "midi": 63,
                    "time": 110.54534400000072,
                    "velocity": 0.4094488188976378,
                    "duration": 0.2727270000000033
                },
                {
                    "name": "A#3",
                    "midi": 58,
                    "time": 110.81807100000073,
                    "velocity": 0.3858267716535433,
                    "duration": 0.09090899999999635
                },
                {
                    "name": "F4",
                    "midi": 65,
                    "time": 110.90898000000072,
                    "velocity": 0.4015748031496063,
                    "duration": 0.2727270000000033
                },
                {
                    "name": "A#3",
                    "midi": 58,
                    "time": 111.18170700000073,
                    "velocity": 0.4015748031496063,
                    "duration": 0.09090899999999635
                },
                {
                    "name": "G4",
                    "midi": 67,
                    "time": 111.27261600000072,
                    "velocity": 0.41732283464566927,
                    "duration": 0.2727270000000033
                },
                {
                    "name": "A#3",
                    "midi": 58,
                    "time": 111.54534300000073,
                    "velocity": 0.4251968503937008,
                    "duration": 0.09090899999999635
                },
                {
                    "name": "G#4",
                    "midi": 68,
                    "time": 111.63625200000072,
                    "velocity": 0.4409448818897638,
                    "duration": 0.2727270000000033
                },
                {
                    "name": "A#3",
                    "midi": 58,
                    "time": 111.90897900000073,
                    "velocity": 0.4251968503937008,
                    "duration": 0.09090899999999635
                },
                {
                    "name": "F4",
                    "midi": 65,
                    "time": 111.99988800000072,
                    "velocity": 0.44881889763779526,
                    "duration": 0.9999990000000025
                },
                {
                    "name": "A#3",
                    "midi": 58,
                    "time": 112.99988700000073,
                    "velocity": 0.3937007874015748,
                    "duration": 0.09090899999999635
                },
                {
                    "name": "E4",
                    "midi": 64,
                    "time": 113.09079600000072,
                    "velocity": 0.4094488188976378,
                    "duration": 0.2727270000000033
                },
                {
                    "name": "A#3",
                    "midi": 58,
                    "time": 113.36352300000073,
                    "velocity": 0.41732283464566927,
                    "duration": 0.09090899999999635
                },
                {
                    "name": "F4",
                    "midi": 65,
                    "time": 113.45443200000072,
                    "velocity": 0.4330708661417323,
                    "duration": 0.2727270000000033
                },
                {
                    "name": "A#3",
                    "midi": 58,
                    "time": 113.72715900000073,
                    "velocity": 0.4015748031496063,
                    "duration": 0.09090899999999635
                },
                {
                    "name": "G4",
                    "midi": 67,
                    "time": 113.81806800000072,
                    "velocity": 0.4094488188976378,
                    "duration": 0.2727270000000033
                },
                {
                    "name": "A#3",
                    "midi": 58,
                    "time": 114.09079500000072,
                    "velocity": 0.4251968503937008,
                    "duration": 0.09090899999999635
                },
                {
                    "name": "G#4",
                    "midi": 68,
                    "time": 114.18170400000072,
                    "velocity": 0.4409448818897638,
                    "duration": 0.2727270000000033
                },
                {
                    "name": "A#3",
                    "midi": 58,
                    "time": 114.45443100000072,
                    "velocity": 0.4409448818897638,
                    "duration": 0.09090899999999635
                },
                {
                    "name": "A#4",
                    "midi": 70,
                    "time": 114.54534000000072,
                    "velocity": 0.44881889763779526,
                    "duration": 0.2727270000000033
                },
                {
                    "name": "A#3",
                    "midi": 58,
                    "time": 114.81806700000072,
                    "velocity": 0.4330708661417323,
                    "duration": 0.09090899999999635
                },
                {
                    "name": "G4",
                    "midi": 67,
                    "time": 114.90897600000072,
                    "velocity": 0.4566929133858268,
                    "duration": 0.3636359999999996
                },
                {
                    "name": "A#4",
                    "midi": 70,
                    "time": 115.45443000000073,
                    "velocity": 0.49606299212598426,
                    "duration": 0.09090899999999635
                },
                {
                    "name": "D#5",
                    "midi": 75,
                    "time": 115.63624800000072,
                    "velocity": 0.5275590551181102,
                    "duration": 0.2727270000000033
                },
                {
                    "name": "F5",
                    "midi": 77,
                    "time": 115.90897500000072,
                    "velocity": 0.5433070866141733,
                    "duration": 0.09090899999999635
                },
                {
                    "name": "G5",
                    "midi": 79,
                    "time": 115.99988400000072,
                    "velocity": 0.5669291338582677,
                    "duration": 0.2727270000000033
                },
                {
                    "name": "A#4",
                    "midi": 70,
                    "time": 116.27261100000072,
                    "velocity": 0.49606299212598426,
                    "duration": 0.04545450000000528
                },
                {
                    "name": "C5",
                    "midi": 72,
                    "time": 116.36352000000073,
                    "velocity": 0.5196850393700787,
                    "duration": 0.2727270000000033
                },
                {
                    "name": "D5",
                    "midi": 74,
                    "time": 116.63624700000074,
                    "velocity": 0.5354330708661418,
                    "duration": 0.09090899999999635
                },
                {
                    "name": "D#5",
                    "midi": 75,
                    "time": 116.72715600000073,
                    "velocity": 0.5590551181102362,
                    "duration": 0.2727270000000033
                },
                {
                    "name": "G4",
                    "midi": 67,
                    "time": 116.99988300000074,
                    "velocity": 0.49606299212598426,
                    "duration": 0.04545450000000528
                },
                {
                    "name": "G#4",
                    "midi": 68,
                    "time": 117.09079200000075,
                    "velocity": 0.5118110236220472,
                    "duration": 0.2727270000000033
                },
                {
                    "name": "A#4",
                    "midi": 70,
                    "time": 117.36351900000075,
                    "velocity": 0.5275590551181102,
                    "duration": 0.09090899999999635
                },
                {
                    "name": "C5",
                    "midi": 72,
                    "time": 117.45442800000075,
                    "velocity": 0.5511811023622047,
                    "duration": 0.2727270000000033
                },
                {
                    "name": "G#4",
                    "midi": 68,
                    "time": 117.72715500000075,
                    "velocity": 0.49606299212598426,
                    "duration": 0.04545450000000528
                },
                {
                    "name": "G4",
                    "midi": 67,
                    "time": 117.81806400000076,
                    "velocity": 0.48031496062992124,
                    "duration": 0.3636359999999996
                },
                {
                    "name": "A#4",
                    "midi": 70,
                    "time": 118.36351800000077,
                    "velocity": 0.49606299212598426,
                    "duration": 0.09090899999999635
                },
                {
                    "name": "D#5",
                    "midi": 75,
                    "time": 118.54533600000076,
                    "velocity": 0.5118110236220472,
                    "duration": 0.2727270000000033
                },
                {
                    "name": "F5",
                    "midi": 77,
                    "time": 118.81806300000076,
                    "velocity": 0.5275590551181102,
                    "duration": 0.09090899999999635
                },
                {
                    "name": "G5",
                    "midi": 79,
                    "time": 118.90897200000076,
                    "velocity": 0.5511811023622047,
                    "duration": 0.2727270000000033
                },
                {
                    "name": "B4",
                    "midi": 71,
                    "time": 119.18169900000076,
                    "velocity": 0.49606299212598426,
                    "duration": 0.04545450000000528
                },
                {
                    "name": "C5",
                    "midi": 72,
                    "time": 119.27260800000077,
                    "velocity": 0.5196850393700787,
                    "duration": 0.2727270000000033
                },
                {
                    "name": "D5",
                    "midi": 74,
                    "time": 119.54533500000078,
                    "velocity": 0.5275590551181102,
                    "duration": 0.09090899999999635
                },
                {
                    "name": "D#5",
                    "midi": 75,
                    "time": 119.63624400000077,
                    "velocity": 0.5590551181102362,
                    "duration": 0.2727270000000033
                },
                {
                    "name": "G4",
                    "midi": 67,
                    "time": 119.90897100000078,
                    "velocity": 0.48031496062992124,
                    "duration": 0.04545450000000528
                },
                {
                    "name": "G#4",
                    "midi": 68,
                    "time": 119.99988000000079,
                    "velocity": 0.49606299212598426,
                    "duration": 0.2727270000000033
                },
                {
                    "name": "A#4",
                    "midi": 70,
                    "time": 120.27260700000079,
                    "velocity": 0.5039370078740157,
                    "duration": 0.09090899999999635
                },
                {
                    "name": "C5",
                    "midi": 72,
                    "time": 120.36351600000079,
                    "velocity": 0.5354330708661418,
                    "duration": 0.2727270000000033
                },
                {
                    "name": "G#4",
                    "midi": 68,
                    "time": 120.63624300000079,
                    "velocity": 0.48031496062992124,
                    "duration": 0.04545450000000528
                },
                {
                    "name": "G4",
                    "midi": 67,
                    "time": 120.7271520000008,
                    "velocity": 0.44881889763779526,
                    "duration": 0.3636359999999996
                },
                {
                    "name": "G4",
                    "midi": 67,
                    "time": 121.2726060000008,
                    "velocity": 0.3858267716535433,
                    "duration": 0.18181800000000692
                },
                {
                    "name": "A#4",
                    "midi": 70,
                    "time": 121.45442400000081,
                    "velocity": 0.41732283464566927,
                    "duration": 0.18181800000000692
                },
                {
                    "name": "A4",
                    "midi": 69,
                    "time": 121.63624200000082,
                    "velocity": 0.3858267716535433,
                    "duration": 0.18181800000000692
                },
                {
                    "name": "A4",
                    "midi": 69,
                    "time": 121.99987800000083,
                    "velocity": 0.4251968503937008,
                    "duration": 0.18181800000000692
                },
                {
                    "name": "C5",
                    "midi": 72,
                    "time": 122.18169600000084,
                    "velocity": 0.4566929133858268,
                    "duration": 0.18181800000000692
                },
                {
                    "name": "A#4",
                    "midi": 70,
                    "time": 122.36351400000085,
                    "velocity": 0.4330708661417323,
                    "duration": 0.18181800000000692
                },
                {
                    "name": "B4",
                    "midi": 71,
                    "time": 122.72715000000086,
                    "velocity": 0.48031496062992124,
                    "duration": 0.18181800000000692
                },
                {
                    "name": "D5",
                    "midi": 74,
                    "time": 122.90896800000087,
                    "velocity": 0.5196850393700787,
                    "duration": 0.18181800000000692
                },
                {
                    "name": "C5",
                    "midi": 72,
                    "time": 123.09078600000088,
                    "velocity": 0.47244094488188976,
                    "duration": 0.09090899999999635
                },
                {
                    "name": "D#5",
                    "midi": 75,
                    "time": 123.27260400000087,
                    "velocity": 0.5590551181102362,
                    "duration": 0.18181800000000692
                },
                {
                    "name": "D5",
                    "midi": 74,
                    "time": 123.45442200000087,
                    "velocity": 0.4881889763779528,
                    "duration": 0.09090899999999635
                },
                {
                    "name": "F5",
                    "midi": 77,
                    "time": 123.63624000000087,
                    "velocity": 0.5826771653543307,
                    "duration": 0.18181800000000692
                },
                {
                    "name": "D#5",
                    "midi": 75,
                    "time": 123.81805800000087,
                    "velocity": 0.49606299212598426,
                    "duration": 0.09090899999999635
                },
                {
                    "name": "F5",
                    "midi": 77,
                    "time": 123.99987600000087,
                    "velocity": 0.6220472440944882,
                    "duration": 0.18181800000000692
                },
                {
                    "name": "E5",
                    "midi": 76,
                    "time": 124.18169400000087,
                    "velocity": 0.5433070866141733,
                    "duration": 0.09090899999999635
                },
                {
                    "name": "G5",
                    "midi": 79,
                    "time": 124.36351200000087,
                    "velocity": 0.6771653543307087,
                    "duration": 0.18181800000000692
                },
                {
                    "name": "F5",
                    "midi": 77,
                    "time": 124.54533000000087,
                    "velocity": 0.5826771653543307,
                    "duration": 0.09090899999999635
                },
                {
                    "name": "G#5",
                    "midi": 80,
                    "time": 124.72714800000087,
                    "velocity": 0.7165354330708661,
                    "duration": 0.18181800000000692
                },
                {
                    "name": "G5",
                    "midi": 79,
                    "time": 124.90896600000087,
                    "velocity": 0.6535433070866141,
                    "duration": 0.09090899999999635
                },
                {
                    "name": "A#5",
                    "midi": 82,
                    "time": 125.09078400000087,
                    "velocity": 0.7795275590551181,
                    "duration": 0.18181800000000692
                },
                {
                    "name": "G#5",
                    "midi": 80,
                    "time": 125.27260200000087,
                    "velocity": 0.6535433070866141,
                    "duration": 0.09090899999999635
                },
                {
                    "name": "F5",
                    "midi": 77,
                    "time": 126.36351000000087,
                    "velocity": 0.3858267716535433,
                    "duration": 0.18181800000000692
                },
                {
                    "name": "G5",
                    "midi": 79,
                    "time": 126.54532800000088,
                    "velocity": 0.4094488188976378,
                    "duration": 0.2727270000000033
                },
                {
                    "name": "D#5",
                    "midi": 75,
                    "time": 126.81805500000088,
                    "velocity": 0.3858267716535433,
                    "duration": 0.09090899999999635
                },
                {
                    "name": "C5",
                    "midi": 72,
                    "time": 126.90896400000088,
                    "velocity": 0.41732283464566927,
                    "duration": 0.2727270000000033
                },
                {
                    "name": "F5",
                    "midi": 77,
                    "time": 127.18169100000088,
                    "velocity": 0.3858267716535433,
                    "duration": 0.09090899999999635
                },
                {
                    "name": "D#5",
                    "midi": 75,
                    "time": 127.27260000000088,
                    "velocity": 0.41732283464566927,
                    "duration": 0.3636359999999996
                },
                {
                    "name": "D5",
                    "midi": 74,
                    "time": 127.63623600000088,
                    "velocity": 0.3858267716535433,
                    "duration": 0.3636359999999996
                },
                {
                    "name": "A#5",
                    "midi": 82,
                    "time": 127.99987200000088,
                    "velocity": 0.7637795275590551,
                    "duration": 0.18181800000000692
                },
                {
                    "name": "G#5",
                    "midi": 80,
                    "time": 128.18169000000088,
                    "velocity": 0.6850393700787402,
                    "duration": 0.1818179999999927
                },
                {
                    "name": "F5",
                    "midi": 77,
                    "time": 129.27259800000087,
                    "velocity": 0.3779527559055118,
                    "duration": 0.1818179999999927
                },
                {
                    "name": "G5",
                    "midi": 79,
                    "time": 129.45441600000086,
                    "velocity": 0.4015748031496063,
                    "duration": 0.2727270000000033
                },
                {
                    "name": "D#5",
                    "midi": 75,
                    "time": 129.72714300000086,
                    "velocity": 0.3779527559055118,
                    "duration": 0.09090900000001056
                },
                {
                    "name": "C5",
                    "midi": 72,
                    "time": 129.81805200000088,
                    "velocity": 0.4015748031496063,
                    "duration": 0.2727270000000033
                },
                {
                    "name": "F5",
                    "midi": 77,
                    "time": 130.09077900000088,
                    "velocity": 0.3779527559055118,
                    "duration": 0.09090900000001056
                },
                {
                    "name": "D#5",
                    "midi": 75,
                    "time": 130.1816880000009,
                    "velocity": 0.4015748031496063,
                    "duration": 0.36363600000001384
                },
                {
                    "name": "D5",
                    "midi": 74,
                    "time": 130.5453240000009,
                    "velocity": 0.3779527559055118,
                    "duration": 0.36363600000001384
                },
                {
                    "name": "G4",
                    "midi": 67,
                    "time": 130.90896000000092,
                    "velocity": 0.5433070866141733,
                    "duration": 0.09090900000001056
                },
                {
                    "name": "G5",
                    "midi": 79,
                    "time": 130.99986900000093,
                    "velocity": 0.5826771653543307,
                    "duration": 0.454544999999996
                },
                {
                    "name": "D#5",
                    "midi": 75,
                    "time": 131.45441400000092,
                    "velocity": 0.4409448818897638,
                    "duration": 0.1818179999999927
                },
                {
                    "name": "C5",
                    "midi": 72,
                    "time": 131.63623200000092,
                    "velocity": 0.4015748031496063,
                    "duration": 0.1818179999999927
                },
                {
                    "name": "C5",
                    "midi": 72,
                    "time": 131.9998680000009,
                    "velocity": 0.3700787401574803,
                    "duration": 0.1818179999999927
                },
                {
                    "name": "F5",
                    "midi": 77,
                    "time": 132.3635040000009,
                    "velocity": 0.4330708661417323,
                    "duration": 0.36363600000001384
                },
                {
                    "name": "G#5",
                    "midi": 80,
                    "time": 132.7271400000009,
                    "velocity": 0.4409448818897638,
                    "duration": 0.36363600000001384
                },
                {
                    "name": "B4",
                    "midi": 71,
                    "time": 133.09077600000091,
                    "velocity": 0.36220472440944884,
                    "duration": 0.1818179999999927
                },
                {
                    "name": "B4",
                    "midi": 71,
                    "time": 133.63623000000092,
                    "velocity": 0.36220472440944884,
                    "duration": 0.1818179999999927
                },
                {
                    "name": "D5",
                    "midi": 74,
                    "time": 133.8180480000009,
                    "velocity": 0.4094488188976378,
                    "duration": 0.1818179999999927
                },
                {
                    "name": "C5",
                    "midi": 72,
                    "time": 133.9998660000009,
                    "velocity": 0.3858267716535433,
                    "duration": 0.1818179999999927
                },
                {
                    "name": "D#5",
                    "midi": 75,
                    "time": 134.1816840000009,
                    "velocity": 0.4330708661417323,
                    "duration": 0.1818179999999927
                },
                {
                    "name": "D5",
                    "midi": 74,
                    "time": 134.3635020000009,
                    "velocity": 0.3937007874015748,
                    "duration": 0.1818179999999927
                },
                {
                    "name": "F5",
                    "midi": 77,
                    "time": 134.54532000000088,
                    "velocity": 0.4566929133858268,
                    "duration": 0.1818179999999927
                },
                {
                    "name": "D#5",
                    "midi": 75,
                    "time": 134.72713800000088,
                    "velocity": 0.41732283464566927,
                    "duration": 0.1818179999999927
                },
                {
                    "name": "B4",
                    "midi": 71,
                    "time": 135.09077400000086,
                    "velocity": 0.36220472440944884,
                    "duration": 0.1818179999999927
                },
                {
                    "name": "D5",
                    "midi": 74,
                    "time": 135.27259200000086,
                    "velocity": 0.3937007874015748,
                    "duration": 0.1818179999999927
                },
                {
                    "name": "C5",
                    "midi": 72,
                    "time": 135.45441000000085,
                    "velocity": 0.3779527559055118,
                    "duration": 0.1818179999999927
                },
                {
                    "name": "D#5",
                    "midi": 75,
                    "time": 135.63622800000084,
                    "velocity": 0.4330708661417323,
                    "duration": 0.1818179999999927
                },
                {
                    "name": "D5",
                    "midi": 74,
                    "time": 135.81804600000083,
                    "velocity": 0.4015748031496063,
                    "duration": 0.1818179999999927
                },
                {
                    "name": "F5",
                    "midi": 77,
                    "time": 135.99986400000083,
                    "velocity": 0.4566929133858268,
                    "duration": 0.1818179999999927
                },
                {
                    "name": "D#5",
                    "midi": 75,
                    "time": 136.18168200000082,
                    "velocity": 0.4015748031496063,
                    "duration": 0.1818179999999927
                },
                {
                    "name": "F5",
                    "midi": 77,
                    "time": 136.3635000000008,
                    "velocity": 0.4881889763779528,
                    "duration": 0.1818179999999927
                },
                {
                    "name": "E5",
                    "midi": 76,
                    "time": 136.5453180000008,
                    "velocity": 0.4409448818897638,
                    "duration": 0.1818179999999927
                },
                {
                    "name": "F5",
                    "midi": 77,
                    "time": 136.7271360000008,
                    "velocity": 0.5905511811023622,
                    "duration": 0.5454540000000065
                },
                {
                    "name": "D5",
                    "midi": 74,
                    "time": 137.2725900000008,
                    "velocity": 0.3464566929133858,
                    "duration": 0.1818179999999927
                },
                {
                    "name": "A#4",
                    "midi": 70,
                    "time": 137.4544080000008,
                    "velocity": 0.3779527559055118,
                    "duration": 0.1818179999999927
                },
                {
                    "name": "A#4",
                    "midi": 70,
                    "time": 137.81804400000078,
                    "velocity": 0.3779527559055118,
                    "duration": 0.1818179999999927
                },
                {
                    "name": "D#5",
                    "midi": 75,
                    "time": 138.18168000000077,
                    "velocity": 0.4094488188976378,
                    "duration": 0.36363600000001384
                },
                {
                    "name": "F#5",
                    "midi": 78,
                    "time": 138.54531600000078,
                    "velocity": 0.3858267716535433,
                    "duration": 0.36363600000001384
                },
                {
                    "name": "A4",
                    "midi": 69,
                    "time": 138.9089520000008,
                    "velocity": 0.4094488188976378,
                    "duration": 0.1818179999999927
                },
                {
                    "name": "A4",
                    "midi": 69,
                    "time": 139.4544060000008,
                    "velocity": 0.3464566929133858,
                    "duration": 0.1818179999999927
                },
                {
                    "name": "C5",
                    "midi": 72,
                    "time": 139.6362240000008,
                    "velocity": 0.3858267716535433,
                    "duration": 0.1818179999999927
                },
                {
                    "name": "A#4",
                    "midi": 70,
                    "time": 139.8180420000008,
                    "velocity": 0.3700787401574803,
                    "duration": 0.1818179999999927
                },
                {
                    "name": "C#5",
                    "midi": 73,
                    "time": 139.99986000000078,
                    "velocity": 0.4015748031496063,
                    "duration": 0.1818179999999927
                },
                {
                    "name": "C5",
                    "midi": 72,
                    "time": 140.18167800000077,
                    "velocity": 0.3700787401574803,
                    "duration": 0.1818179999999927
                },
                {
                    "name": "D#5",
                    "midi": 75,
                    "time": 140.36349600000077,
                    "velocity": 0.4251968503937008,
                    "duration": 0.1818179999999927
                },
                {
                    "name": "C#5",
                    "midi": 73,
                    "time": 140.54531400000076,
                    "velocity": 0.4015748031496063,
                    "duration": 0.1818179999999927
                },
                {
                    "name": "A4",
                    "midi": 69,
                    "time": 140.90895000000074,
                    "velocity": 0.3543307086614173,
                    "duration": 0.1818179999999927
                },
                {
                    "name": "C5",
                    "midi": 72,
                    "time": 141.09076800000074,
                    "velocity": 0.3937007874015748,
                    "duration": 0.1818179999999927
                },
                {
                    "name": "A#4",
                    "midi": 70,
                    "time": 141.27258600000073,
                    "velocity": 0.3543307086614173,
                    "duration": 0.1818179999999927
                },
                {
                    "name": "C#5",
                    "midi": 73,
                    "time": 141.45440400000072,
                    "velocity": 0.4094488188976378,
                    "duration": 0.1818179999999927
                },
                {
                    "name": "C5",
                    "midi": 72,
                    "time": 141.6362220000007,
                    "velocity": 0.3779527559055118,
                    "duration": 0.1818179999999927
                },
                {
                    "name": "D#5",
                    "midi": 75,
                    "time": 141.8180400000007,
                    "velocity": 0.4330708661417323,
                    "duration": 0.1818179999999927
                },
                {
                    "name": "C#5",
                    "midi": 73,
                    "time": 141.9998580000007,
                    "velocity": 0.3937007874015748,
                    "duration": 0.1818179999999927
                },
                {
                    "name": "C#5",
                    "midi": 73,
                    "time": 142.36349400000068,
                    "velocity": 0.4015748031496063,
                    "duration": 0.09090900000001056
                },
                {
                    "name": "C#5",
                    "midi": 73,
                    "time": 142.5453120000007,
                    "velocity": 0.4330708661417323,
                    "duration": 0.1818179999999927
                },
                {
                    "name": "B4",
                    "midi": 71,
                    "time": 142.7271300000007,
                    "velocity": 0.4094488188976378,
                    "duration": 0.1818179999999927
                },
                {
                    "name": "B4",
                    "midi": 71,
                    "time": 143.09076600000068,
                    "velocity": 0.3779527559055118,
                    "duration": 0.17272710000000302
                },
                {
                    "name": "B4",
                    "midi": 71,
                    "time": 143.27258400000068,
                    "velocity": 0.41732283464566927,
                    "duration": 0.1818179999999927
                },
                {
                    "name": "A#4",
                    "midi": 70,
                    "time": 143.45440200000067,
                    "velocity": 0.3858267716535433,
                    "duration": 0.1818179999999927
                },
                {
                    "name": "A#4",
                    "midi": 70,
                    "time": 143.81803800000066,
                    "velocity": 0.4094488188976378,
                    "duration": 0.17272710000000302
                },
                {
                    "name": "A#4",
                    "midi": 70,
                    "time": 143.99985600000065,
                    "velocity": 0.5590551181102362,
                    "duration": 0.1818179999999927
                },
                {
                    "name": "G#5",
                    "midi": 80,
                    "time": 144.18167400000064,
                    "velocity": 0.5748031496062992,
                    "duration": 0.1818179999999927
                },
                {
                    "name": "G#5",
                    "midi": 80,
                    "time": 144.54531000000063,
                    "velocity": 0.5826771653543307,
                    "duration": 0.17272710000000302
                },
                {
                    "name": "G#5",
                    "midi": 80,
                    "time": 144.72712800000062,
                    "velocity": 0.6141732283464567,
                    "duration": 0.1818179999999927
                },
                {
                    "name": "F#5",
                    "midi": 78,
                    "time": 144.9089460000006,
                    "velocity": 0.5905511811023622,
                    "duration": 0.1818179999999927
                },
                {
                    "name": "F#5",
                    "midi": 78,
                    "time": 145.2725820000006,
                    "velocity": 0.5984251968503937,
                    "duration": 0.17272710000000302
                },
                {
                    "name": "F#5",
                    "midi": 78,
                    "time": 145.4544000000006,
                    "velocity": 0.6377952755905512,
                    "duration": 0.1818179999999927
                },
                {
                    "name": "F5",
                    "midi": 77,
                    "time": 145.63621800000058,
                    "velocity": 0.6141732283464567,
                    "duration": 0.1818179999999927
                },
                {
                    "name": "F5",
                    "midi": 77,
                    "time": 145.99985400000057,
                    "velocity": 0.6614173228346457,
                    "duration": 0.17272710000000302
                },
                {
                    "name": "F5",
                    "midi": 77,
                    "time": 146.18167200000056,
                    "velocity": 0.7007874015748031,
                    "duration": 0.1818179999999927
                },
                {
                    "name": "E5",
                    "midi": 76,
                    "time": 146.36349000000055,
                    "velocity": 0.6614173228346457,
                    "duration": 0.1818179999999927
                },
                {
                    "name": "E5",
                    "midi": 76,
                    "time": 146.72712600000054,
                    "velocity": 0.7165354330708661,
                    "duration": 0.1818179999999927
                },
                {
                    "name": "A#5",
                    "midi": 82,
                    "time": 146.90894400000053,
                    "velocity": 0.7322834645669292,
                    "duration": 0.1818179999999927
                },
                {
                    "name": "C6",
                    "midi": 84,
                    "time": 147.09076200000052,
                    "velocity": 0.5984251968503937,
                    "duration": 0.06060600000000704
                },
                {
                    "name": "A#5",
                    "midi": 82,
                    "time": 147.15136800000053,
                    "velocity": 0.6141732283464567,
                    "duration": 0.06060600000000704
                },
                {
                    "name": "A5",
                    "midi": 81,
                    "time": 147.21197400000054,
                    "velocity": 0.6299212598425197,
                    "duration": 0.06060600000000704
                },
                {
                    "name": "A#5",
                    "midi": 82,
                    "time": 147.27258000000054,
                    "velocity": 0.6220472440944882,
                    "duration": 0.1818179999999927
                },
                {
                    "name": "C6",
                    "midi": 84,
                    "time": 147.45439800000054,
                    "velocity": 0.6771653543307087,
                    "duration": 0.1818179999999927
                },
                {
                    "name": "C#6",
                    "midi": 85,
                    "time": 147.63621600000053,
                    "velocity": 0.7244094488188977,
                    "duration": 0.36363600000001384
                },
                {
                    "name": "E5",
                    "midi": 76,
                    "time": 147.99985200000054,
                    "velocity": 0.7007874015748031,
                    "duration": 0.36363600000001384
                },
                {
                    "name": "F5",
                    "midi": 77,
                    "time": 148.36348800000056,
                    "velocity": 0.7165354330708661,
                    "duration": 0.1818179999999927
                },
                {
                    "name": "E5",
                    "midi": 76,
                    "time": 148.54530600000055,
                    "velocity": 0.6220472440944882,
                    "duration": 0.1818179999999927
                },
                {
                    "name": "F5",
                    "midi": 77,
                    "time": 148.72712400000054,
                    "velocity": 0.6692913385826772,
                    "duration": 0.1818179999999927
                },
                {
                    "name": "C5",
                    "midi": 72,
                    "time": 148.90894200000054,
                    "velocity": 0.5826771653543307,
                    "duration": 0.1818179999999927
                },
                {
                    "name": "D#5",
                    "midi": 75,
                    "time": 149.09076000000053,
                    "velocity": 0.6141732283464567,
                    "duration": 0.1818179999999927
                },
                {
                    "name": "C#5",
                    "midi": 73,
                    "time": 149.27257800000052,
                    "velocity": 0.5511811023622047,
                    "duration": 0.1818179999999927
                },
                {
                    "name": "C5",
                    "midi": 72,
                    "time": 149.45439600000051,
                    "velocity": 0.5354330708661418,
                    "duration": 0.1818179999999927
                },
                {
                    "name": "A#4",
                    "midi": 70,
                    "time": 149.6362140000005,
                    "velocity": 0.5039370078740157,
                    "duration": 0.1818179999999927
                },
                {
                    "name": "F#5",
                    "midi": 78,
                    "time": 149.8180320000005,
                    "velocity": 0.5984251968503937,
                    "duration": 0.1818179999999927
                },
                {
                    "name": "F5",
                    "midi": 77,
                    "time": 149.9998500000005,
                    "velocity": 0.5590551181102362,
                    "duration": 0.1818179999999927
                },
                {
                    "name": "E5",
                    "midi": 76,
                    "time": 150.18166800000049,
                    "velocity": 0.5590551181102362,
                    "duration": 0.1818179999999927
                },
                {
                    "name": "F5",
                    "midi": 77,
                    "time": 150.36348600000048,
                    "velocity": 0.48031496062992124,
                    "duration": 0.1818179999999927
                },
                {
                    "name": "D#5",
                    "midi": 75,
                    "time": 150.54530400000047,
                    "velocity": 0.5196850393700787,
                    "duration": 0.1818179999999927
                },
                {
                    "name": "C#5",
                    "midi": 73,
                    "time": 150.72712200000046,
                    "velocity": 0.47244094488188976,
                    "duration": 0.1818179999999927
                },
                {
                    "name": "C5",
                    "midi": 72,
                    "time": 150.90894000000046,
                    "velocity": 0.4409448818897638,
                    "duration": 0.1818179999999927
                },
                {
                    "name": "A#4",
                    "midi": 70,
                    "time": 151.09075800000045,
                    "velocity": 0.41732283464566927,
                    "duration": 0.1818179999999927
                },
                {
                    "name": "A4",
                    "midi": 69,
                    "time": 151.27257600000044,
                    "velocity": 0.3937007874015748,
                    "duration": 0.36363600000001384
                },
                {
                    "name": "C5",
                    "midi": 72,
                    "time": 151.27257600000044,
                    "velocity": 0.3937007874015748,
                    "duration": 0.36363600000001384
                },
                {
                    "name": "A#4",
                    "midi": 70,
                    "time": 151.63621200000046,
                    "velocity": 0.4881889763779528,
                    "duration": 0.36363600000001384
                },
                {
                    "name": "C#5",
                    "midi": 73,
                    "time": 151.63621200000046,
                    "velocity": 0.4881889763779528,
                    "duration": 0.36363600000001384
                },
                {
                    "name": "C5",
                    "midi": 72,
                    "time": 151.99984800000047,
                    "velocity": 0.44881889763779526,
                    "duration": 0.36363600000001384
                },
                {
                    "name": "A4",
                    "midi": 69,
                    "time": 151.99984800000047,
                    "velocity": 0.44881889763779526,
                    "duration": 0.36363600000001384
                },
                {
                    "name": "A#4",
                    "midi": 70,
                    "time": 152.36348400000048,
                    "velocity": 0.4881889763779528,
                    "duration": 0.36363600000001384
                },
                {
                    "name": "E5",
                    "midi": 76,
                    "time": 152.36348400000048,
                    "velocity": 0.4881889763779528,
                    "duration": 0.36363600000001384
                },
                {
                    "name": "F5",
                    "midi": 77,
                    "time": 152.7271200000005,
                    "velocity": 0.5118110236220472,
                    "duration": 0.36363600000001384
                },
                {
                    "name": "A4",
                    "midi": 69,
                    "time": 152.7271200000005,
                    "velocity": 0.5118110236220472,
                    "duration": 0.36363600000001384
                },
                {
                    "name": "C#5",
                    "midi": 73,
                    "time": 153.0907560000005,
                    "velocity": 0.4881889763779528,
                    "duration": 0.36363600000001384
                },
                {
                    "name": "A#4",
                    "midi": 70,
                    "time": 153.0907560000005,
                    "velocity": 0.4881889763779528,
                    "duration": 0.36363600000001384
                },
                {
                    "name": "C5",
                    "midi": 72,
                    "time": 153.45439200000052,
                    "velocity": 0.44881889763779526,
                    "duration": 0.36363600000001384
                },
                {
                    "name": "A4",
                    "midi": 69,
                    "time": 153.45439200000052,
                    "velocity": 0.44881889763779526,
                    "duration": 0.36363600000001384
                },
                {
                    "name": "A#4",
                    "midi": 70,
                    "time": 153.81802800000054,
                    "velocity": 0.4881889763779528,
                    "duration": 0.36363600000001384
                },
                {
                    "name": "E5",
                    "midi": 76,
                    "time": 153.81802800000054,
                    "velocity": 0.4881889763779528,
                    "duration": 0.36363600000001384
                },
                {
                    "name": "F5",
                    "midi": 77,
                    "time": 154.18166400000055,
                    "velocity": 0.5354330708661418,
                    "duration": 0.17272710000000302
                },
                {
                    "name": "A4",
                    "midi": 69,
                    "time": 154.18166400000055,
                    "velocity": 0.5354330708661418,
                    "duration": 0.17272710000000302
                },
                {
                    "name": "F5",
                    "midi": 77,
                    "time": 154.36348200000054,
                    "velocity": 0.5354330708661418,
                    "duration": 0.1818179999999927
                },
                {
                    "name": "F5",
                    "midi": 77,
                    "time": 154.72711800000053,
                    "velocity": 0.47244094488188976,
                    "duration": 0.17272710000000302
                },
                {
                    "name": "F5",
                    "midi": 77,
                    "time": 154.90893600000052,
                    "velocity": 0.5039370078740157,
                    "duration": 0.17272710000000302
                },
                {
                    "name": "F5",
                    "midi": 77,
                    "time": 155.09075400000052,
                    "velocity": 0.47244094488188976,
                    "duration": 0.1818179999999927
                },
                {
                    "name": "F5",
                    "midi": 77,
                    "time": 155.4543900000005,
                    "velocity": 0.47244094488188976,
                    "duration": 0.17272710000000302
                },
                {
                    "name": "F5",
                    "midi": 77,
                    "time": 155.6362080000005,
                    "velocity": 0.49606299212598426,
                    "duration": 0.17272710000000302
                },
                {
                    "name": "F5",
                    "midi": 77,
                    "time": 155.8180260000005,
                    "velocity": 0.47244094488188976,
                    "duration": 0.1818179999999927
                },
                {
                    "name": "F5",
                    "midi": 77,
                    "time": 156.18166200000047,
                    "velocity": 0.5039370078740157,
                    "duration": 0.17272710000000302
                },
                {
                    "name": "F5",
                    "midi": 77,
                    "time": 156.36348000000046,
                    "velocity": 0.5275590551181102,
                    "duration": 0.17272710000000302
                },
                {
                    "name": "F5",
                    "midi": 77,
                    "time": 156.54529800000046,
                    "velocity": 0.5039370078740157,
                    "duration": 0.1818179999999927
                },
                {
                    "name": "F5",
                    "midi": 77,
                    "time": 156.90893400000044,
                    "velocity": 0.5433070866141733,
                    "duration": 0.17272710000000302
                },
                {
                    "name": "F5",
                    "midi": 77,
                    "time": 157.09075200000044,
                    "velocity": 0.5669291338582677,
                    "duration": 0.17272710000000302
                },
                {
                    "name": "F5",
                    "midi": 77,
                    "time": 157.27257000000043,
                    "velocity": 0.5826771653543307,
                    "duration": 0.1818179999999927
                },
                {
                    "name": "F5",
                    "midi": 77,
                    "time": 157.6362060000004,
                    "velocity": 0.6220472440944882,
                    "duration": 0.17272710000000302
                },
                {
                    "name": "F5",
                    "midi": 77,
                    "time": 157.8180240000004,
                    "velocity": 0.6456692913385826,
                    "duration": 0.17272710000000302
                },
                {
                    "name": "F5",
                    "midi": 77,
                    "time": 157.9998420000004,
                    "velocity": 0.6614173228346457,
                    "duration": 0.1818179999999927
                },
                {
                    "name": "F5",
                    "midi": 77,
                    "time": 158.36347800000038,
                    "velocity": 0.6771653543307087,
                    "duration": 0.17272710000000302
                },
                {
                    "name": "F5",
                    "midi": 77,
                    "time": 158.54529600000038,
                    "velocity": 0.6771653543307087,
                    "duration": 0.09090900000001056
                },
                {
                    "name": "F4",
                    "midi": 65,
                    "time": 158.7271140000004,
                    "velocity": 0.5275590551181102,
                    "duration": 0.1818179999999927
                },
                {
                    "name": "E4",
                    "midi": 64,
                    "time": 158.9089320000004,
                    "velocity": 0.5196850393700787,
                    "duration": 0.1818179999999927
                },
                {
                    "name": "F4",
                    "midi": 65,
                    "time": 159.09075000000038,
                    "velocity": 0.5118110236220472,
                    "duration": 0.1818179999999927
                },
                {
                    "name": "F#4",
                    "midi": 66,
                    "time": 159.27256800000038,
                    "velocity": 0.5039370078740157,
                    "duration": 0.1818179999999927
                },
                {
                    "name": "G4",
                    "midi": 67,
                    "time": 159.45438600000037,
                    "velocity": 0.49606299212598426,
                    "duration": 0.1818179999999927
                },
                {
                    "name": "G#4",
                    "midi": 68,
                    "time": 159.63620400000036,
                    "velocity": 0.4881889763779528,
                    "duration": 0.1818179999999927
                },
                {
                    "name": "A4",
                    "midi": 69,
                    "time": 159.81802200000035,
                    "velocity": 0.48031496062992124,
                    "duration": 0.1818179999999927
                },
                {
                    "name": "A#4",
                    "midi": 70,
                    "time": 159.99984000000035,
                    "velocity": 0.47244094488188976,
                    "duration": 0.1818179999999927
                },
                {
                    "name": "B4",
                    "midi": 71,
                    "time": 160.18165800000034,
                    "velocity": 0.4645669291338583,
                    "duration": 0.1818179999999927
                },
                {
                    "name": "C5",
                    "midi": 72,
                    "time": 160.36347600000033,
                    "velocity": 0.4566929133858268,
                    "duration": 0.1818179999999927
                },
                {
                    "name": "C#5",
                    "midi": 73,
                    "time": 160.54529400000033,
                    "velocity": 0.44881889763779526,
                    "duration": 0.1818179999999927
                },
                {
                    "name": "D5",
                    "midi": 74,
                    "time": 160.72711200000032,
                    "velocity": 0.4409448818897638,
                    "duration": 0.1818179999999927
                },
                {
                    "name": "D#5",
                    "midi": 75,
                    "time": 160.9089300000003,
                    "velocity": 0.4330708661417323,
                    "duration": 0.1818179999999927
                },
                {
                    "name": "E5",
                    "midi": 76,
                    "time": 161.0907480000003,
                    "velocity": 0.4251968503937008,
                    "duration": 0.1818179999999927
                },
                {
                    "name": "F5",
                    "midi": 77,
                    "time": 161.2725660000003,
                    "velocity": 0.4094488188976378,
                    "duration": 0.17424224999999183
                },
                {
                    "name": "F5",
                    "midi": 77,
                    "time": 161.45514157500028,
                    "velocity": 0.5196850393700787,
                    "duration": 0.5454540000000065
                },
                {
                    "name": "D5",
                    "midi": 74,
                    "time": 161.9998380000003,
                    "velocity": 0.41732283464566927,
                    "duration": 0.1818179999999927
                },
                {
                    "name": "A#4",
                    "midi": 70,
                    "time": 162.1816560000003,
                    "velocity": 0.4330708661417323,
                    "duration": 0.09090900000001056
                },
                {
                    "name": "A#4",
                    "midi": 70,
                    "time": 162.5452920000003,
                    "velocity": 0.4330708661417323,
                    "duration": 0.09090900000001056
                },
                {
                    "name": "D#5",
                    "midi": 75,
                    "time": 162.90892800000032,
                    "velocity": 0.47244094488188976,
                    "duration": 0.36363600000001384
                },
                {
                    "name": "G5",
                    "midi": 79,
                    "time": 163.27256400000033,
                    "velocity": 0.4330708661417323,
                    "duration": 0.09090900000001056
                },
                {
                    "name": "A4",
                    "midi": 69,
                    "time": 163.63620000000034,
                    "velocity": 0.44881889763779526,
                    "duration": 0.36363600000001384
                },
                {
                    "name": "C5",
                    "midi": 72,
                    "time": 164.36347200000037,
                    "velocity": 0.4330708661417323,
                    "duration": 0.1818179999999927
                },
                {
                    "name": "A#4",
                    "midi": 70,
                    "time": 164.54529000000036,
                    "velocity": 0.41732283464566927,
                    "duration": 0.09090900000001056
                },
                {
                    "name": "D5",
                    "midi": 74,
                    "time": 164.72710800000038,
                    "velocity": 0.44881889763779526,
                    "duration": 0.1818179999999927
                },
                {
                    "name": "C5",
                    "midi": 72,
                    "time": 164.90892600000038,
                    "velocity": 0.4251968503937008,
                    "duration": 0.09090900000001056
                },
                {
                    "name": "D#5",
                    "midi": 75,
                    "time": 165.0907440000004,
                    "velocity": 0.4566929133858268,
                    "duration": 0.1818179999999927
                },
                {
                    "name": "D5",
                    "midi": 74,
                    "time": 165.2725620000004,
                    "velocity": 0.4409448818897638,
                    "duration": 0.09090900000001056
                },
                {
                    "name": "F5",
                    "midi": 77,
                    "time": 165.4543800000004,
                    "velocity": 0.47244094488188976,
                    "duration": 0.1818179999999927
                },
                {
                    "name": "D#5",
                    "midi": 75,
                    "time": 165.6361980000004,
                    "velocity": 0.44881889763779526,
                    "duration": 0.09090900000001056
                },
                {
                    "name": "D5",
                    "midi": 74,
                    "time": 165.81801600000043,
                    "velocity": 0.47244094488188976,
                    "duration": 0.5454540000000065
                },
                {
                    "name": "D#5",
                    "midi": 75,
                    "time": 166.36347000000043,
                    "velocity": 0.44881889763779526,
                    "duration": 0.09090900000001056
                },
                {
                    "name": "D5",
                    "midi": 74,
                    "time": 166.45437900000044,
                    "velocity": 0.4330708661417323,
                    "duration": 0.09090900000001056
                },
                {
                    "name": "C5",
                    "midi": 72,
                    "time": 166.54528800000045,
                    "velocity": 0.4094488188976378,
                    "duration": 0.1818179999999927
                },
                {
                    "name": "D5",
                    "midi": 74,
                    "time": 166.72710600000045,
                    "velocity": 0.4251968503937008,
                    "duration": 0.1818179999999927
                },
                {
                    "name": "D#5",
                    "midi": 75,
                    "time": 166.90892400000044,
                    "velocity": 0.4330708661417323,
                    "duration": 0.1818179999999927
                },
                {
                    "name": "E5",
                    "midi": 76,
                    "time": 167.09074200000043,
                    "velocity": 0.44881889763779526,
                    "duration": 0.1818179999999927
                },
                {
                    "name": "F5",
                    "midi": 77,
                    "time": 167.27256000000042,
                    "velocity": 0.4645669291338583,
                    "duration": 0.5454540000000065
                },
                {
                    "name": "D#5",
                    "midi": 75,
                    "time": 167.81801400000043,
                    "velocity": 0.41732283464566927,
                    "duration": 0.06060600000000704
                },
                {
                    "name": "D5",
                    "midi": 74,
                    "time": 167.87862000000044,
                    "velocity": 0.41732283464566927,
                    "duration": 0.06060600000000704
                },
                {
                    "name": "C5",
                    "midi": 72,
                    "time": 167.93922600000045,
                    "velocity": 0.41732283464566927,
                    "duration": 0.06060600000000704
                },
                {
                    "name": "A#4",
                    "midi": 70,
                    "time": 167.99983200000045,
                    "velocity": 0.4409448818897638,
                    "duration": 0.09090900000001056
                },
                {
                    "name": "A#4",
                    "midi": 70,
                    "time": 168.36346800000047,
                    "velocity": 0.4409448818897638,
                    "duration": 0.09090900000001056
                },
                {
                    "name": "D#5",
                    "midi": 75,
                    "time": 168.72710400000048,
                    "velocity": 0.47244094488188976,
                    "duration": 0.36363600000001384
                },
                {
                    "name": "G5",
                    "midi": 79,
                    "time": 169.0907400000005,
                    "velocity": 0.4330708661417323,
                    "duration": 0.09090900000001056
                },
                {
                    "name": "A4",
                    "midi": 69,
                    "time": 169.4543760000005,
                    "velocity": 0.4566929133858268,
                    "duration": 0.36363600000001384
                },
                {
                    "name": "A4",
                    "midi": 69,
                    "time": 169.99983000000051,
                    "velocity": 0.4251968503937008,
                    "duration": 0.1818179999999927
                },
                {
                    "name": "A#4",
                    "midi": 70,
                    "time": 170.1816480000005,
                    "velocity": 0.4566929133858268,
                    "duration": 0.1818179999999927
                },
                {
                    "name": "D5",
                    "midi": 74,
                    "time": 170.3634660000005,
                    "velocity": 0.4330708661417323,
                    "duration": 0.09090900000001056
                },
                {
                    "name": "G4",
                    "midi": 67,
                    "time": 170.54528400000052,
                    "velocity": 0.4566929133858268,
                    "duration": 0.1818179999999927
                },
                {
                    "name": "C5",
                    "midi": 72,
                    "time": 170.7271020000005,
                    "velocity": 0.4330708661417323,
                    "duration": 0.09090900000001056
                },
                {
                    "name": "A#4",
                    "midi": 70,
                    "time": 170.90892000000053,
                    "velocity": 0.4566929133858268,
                    "duration": 0.36363600000001384
                },
                {
                    "name": "A4",
                    "midi": 69,
                    "time": 171.27255600000055,
                    "velocity": 0.4330708661417323,
                    "duration": 0.36363600000001384
                },
                {
                    "name": "A#4",
                    "midi": 70,
                    "time": 171.63619200000056,
                    "velocity": 0.4566929133858268,
                    "duration": 0.1818179999999927
                },
                {
                    "name": "F4",
                    "midi": 65,
                    "time": 171.81801000000056,
                    "velocity": 0.4409448818897638,
                    "duration": 0.09090900000001056
                },
                {
                    "name": "G4",
                    "midi": 67,
                    "time": 171.99982800000058,
                    "velocity": 0.47244094488188976,
                    "duration": 0.09090900000001056
                },
                {
                    "name": "A4",
                    "midi": 69,
                    "time": 172.1816460000006,
                    "velocity": 0.49606299212598426,
                    "duration": 0.09090900000001056
                },
                {
                    "name": "A#4",
                    "midi": 70,
                    "time": 172.36346400000062,
                    "velocity": 0.5275590551181102,
                    "duration": 0.09090900000001056
                },
                {
                    "name": "C5",
                    "midi": 72,
                    "time": 172.54528200000064,
                    "velocity": 0.5511811023622047,
                    "duration": 0.09090900000001056
                },
                {
                    "name": "D5",
                    "midi": 74,
                    "time": 172.72710000000066,
                    "velocity": 0.5826771653543307,
                    "duration": 0.09090900000001056
                },
                {
                    "name": "D#5",
                    "midi": 75,
                    "time": 172.90891800000068,
                    "velocity": 0.6062992125984252,
                    "duration": 0.09090900000001056
                },
                {
                    "name": "F5",
                    "midi": 77,
                    "time": 173.0914935750007,
                    "velocity": 0.6692913385826772,
                    "duration": 0.5454540000000065
                },
                {
                    "name": "D5",
                    "midi": 74,
                    "time": 173.6361900000007,
                    "velocity": 0.5826771653543307,
                    "duration": 0.1818179999999927
                },
                {
                    "name": "A#4",
                    "midi": 70,
                    "time": 173.8180080000007,
                    "velocity": 0.6141732283464567,
                    "duration": 0.1818179999999927
                },
                {
                    "name": "A#4",
                    "midi": 70,
                    "time": 174.1816440000007,
                    "velocity": 0.6141732283464567,
                    "duration": 0.1818179999999927
                },
                {
                    "name": "D#5",
                    "midi": 75,
                    "time": 174.54528000000067,
                    "velocity": 0.6692913385826772,
                    "duration": 0.07272720000000277
                },
                {
                    "name": "F5",
                    "midi": 77,
                    "time": 174.61800720000068,
                    "velocity": 0.48031496062992124,
                    "duration": 0.07272720000000277
                },
                {
                    "name": "D#5",
                    "midi": 75,
                    "time": 174.69073440000068,
                    "velocity": 0.48031496062992124,
                    "duration": 0.07272720000000277
                },
                {
                    "name": "D5",
                    "midi": 74,
                    "time": 174.76346160000068,
                    "velocity": 0.48031496062992124,
                    "duration": 0.07272720000000277
                },
                {
                    "name": "D#5",
                    "midi": 75,
                    "time": 174.83618880000068,
                    "velocity": 0.48031496062992124,
                    "duration": 0.07272720000000277
                },
                {
                    "name": "G5",
                    "midi": 79,
                    "time": 174.9089160000007,
                    "velocity": 0.6141732283464567,
                    "duration": 0.36363600000001384
                },
                {
                    "name": "A4",
                    "midi": 69,
                    "time": 175.2725520000007,
                    "velocity": 0.6377952755905512,
                    "duration": 0.36363600000001384
                },
                {
                    "name": "C5",
                    "midi": 72,
                    "time": 175.99982400000073,
                    "velocity": 0.6141732283464567,
                    "duration": 0.1818179999999927
                },
                {
                    "name": "A#4",
                    "midi": 70,
                    "time": 176.18164200000072,
                    "velocity": 0.5748031496062992,
                    "duration": 0.09090900000001056
                },
                {
                    "name": "D5",
                    "midi": 74,
                    "time": 176.36346000000074,
                    "velocity": 0.6377952755905512,
                    "duration": 0.1818179999999927
                },
                {
                    "name": "C5",
                    "midi": 72,
                    "time": 176.54527800000074,
                    "velocity": 0.5905511811023622,
                    "duration": 0.09090900000001056
                },
                {
                    "name": "D#5",
                    "midi": 75,
                    "time": 176.72709600000076,
                    "velocity": 0.6456692913385826,
                    "duration": 0.1818179999999927
                },
                {
                    "name": "D5",
                    "midi": 74,
                    "time": 176.90891400000075,
                    "velocity": 0.6062992125984252,
                    "duration": 0.09090900000001056
                },
                {
                    "name": "F5",
                    "midi": 77,
                    "time": 177.09073200000077,
                    "velocity": 0.6692913385826772,
                    "duration": 0.1818179999999927
                },
                {
                    "name": "D#5",
                    "midi": 75,
                    "time": 177.27255000000076,
                    "velocity": 0.6377952755905512,
                    "duration": 0.09090900000001056
                },
                {
                    "name": "D5",
                    "midi": 74,
                    "time": 177.45436800000078,
                    "velocity": 0.6692913385826772,
                    "duration": 0.5454540000000065
                },
                {
                    "name": "D#5",
                    "midi": 75,
                    "time": 177.9998220000008,
                    "velocity": 0.6377952755905512,
                    "duration": 0.09090900000001056
                },
                {
                    "name": "D5",
                    "midi": 74,
                    "time": 178.0907310000008,
                    "velocity": 0.5984251968503937,
                    "duration": 0.09090900000001056
                },
                {
                    "name": "C5",
                    "midi": 72,
                    "time": 178.1816400000008,
                    "velocity": 0.5748031496062992,
                    "duration": 0.1818179999999927
                },
                {
                    "name": "D5",
                    "midi": 74,
                    "time": 178.3634580000008,
                    "velocity": 0.6062992125984252,
                    "duration": 0.1818179999999927
                },
                {
                    "name": "D#5",
                    "midi": 75,
                    "time": 178.5452760000008,
                    "velocity": 0.6141732283464567,
                    "duration": 0.1818179999999927
                },
                {
                    "name": "E5",
                    "midi": 76,
                    "time": 178.7270940000008,
                    "velocity": 0.6377952755905512,
                    "duration": 0.1818179999999927
                },
                {
                    "name": "F5",
                    "midi": 77,
                    "time": 178.90891200000078,
                    "velocity": 0.6535433070866141,
                    "duration": 0.5454540000000065
                },
                {
                    "name": "D#5",
                    "midi": 75,
                    "time": 179.4543660000008,
                    "velocity": 0.5826771653543307,
                    "duration": 0.06060600000000704
                },
                {
                    "name": "D5",
                    "midi": 74,
                    "time": 179.5149720000008,
                    "velocity": 0.5826771653543307,
                    "duration": 0.06060600000000704
                },
                {
                    "name": "C5",
                    "midi": 72,
                    "time": 179.5755780000008,
                    "velocity": 0.5826771653543307,
                    "duration": 0.06060600000000704
                },
                {
                    "name": "A#4",
                    "midi": 70,
                    "time": 179.6361840000008,
                    "velocity": 0.6220472440944882,
                    "duration": 0.09090900000001056
                },
                {
                    "name": "A#4",
                    "midi": 70,
                    "time": 179.81800200000083,
                    "velocity": 0.5984251968503937,
                    "duration": 0.09090900000001056
                },
                {
                    "name": "A#4",
                    "midi": 70,
                    "time": 179.99982000000085,
                    "velocity": 0.6220472440944882,
                    "duration": 0.09090900000001056
                },
                {
                    "name": "A#4",
                    "midi": 70,
                    "time": 180.18163800000087,
                    "velocity": 0.6062992125984252,
                    "duration": 0.09090900000001056
                },
                {
                    "name": "D#5",
                    "midi": 75,
                    "time": 180.3634560000009,
                    "velocity": 0.6692913385826772,
                    "duration": 0.07272720000000277
                },
                {
                    "name": "F5",
                    "midi": 77,
                    "time": 180.4361832000009,
                    "velocity": 0.48031496062992124,
                    "duration": 0.07272720000000277
                },
                {
                    "name": "D#5",
                    "midi": 75,
                    "time": 180.5089104000009,
                    "velocity": 0.48031496062992124,
                    "duration": 0.07272720000000277
                },
                {
                    "name": "D5",
                    "midi": 74,
                    "time": 180.5816376000009,
                    "velocity": 0.48031496062992124,
                    "duration": 0.07272720000000277
                },
                {
                    "name": "D#5",
                    "midi": 75,
                    "time": 180.6543648000009,
                    "velocity": 0.48031496062992124,
                    "duration": 0.07272720000000277
                },
                {
                    "name": "G5",
                    "midi": 79,
                    "time": 180.7270920000009,
                    "velocity": 0.6141732283464567,
                    "duration": 0.36363600000001384
                },
                {
                    "name": "A4",
                    "midi": 69,
                    "time": 181.09072800000092,
                    "velocity": 0.6456692913385826,
                    "duration": 0.36363600000001384
                },
                {
                    "name": "A5",
                    "midi": 81,
                    "time": 181.63618200000093,
                    "velocity": 0.6062992125984252,
                    "duration": 0.1818179999999927
                },
                {
                    "name": "A#5",
                    "midi": 82,
                    "time": 181.81800000000092,
                    "velocity": 0.6692913385826772,
                    "duration": 0.12121200000001409
                },
                {
                    "name": "F5",
                    "midi": 77,
                    "time": 181.93921200000094,
                    "velocity": 0.5905511811023622,
                    "duration": 0.12121200000001409
                },
                {
                    "name": "D5",
                    "midi": 74,
                    "time": 182.06042400000095,
                    "velocity": 0.5826771653543307,
                    "duration": 0.12121200000001409
                },
                {
                    "name": "G5",
                    "midi": 79,
                    "time": 182.18163600000096,
                    "velocity": 0.6614173228346457,
                    "duration": 0.12121200000001409
                },
                {
                    "name": "D#5",
                    "midi": 75,
                    "time": 182.30284800000098,
                    "velocity": 0.5984251968503937,
                    "duration": 0.12121200000001409
                },
                {
                    "name": "C5",
                    "midi": 72,
                    "time": 182.424060000001,
                    "velocity": 0.5905511811023622,
                    "duration": 0.12121200000001409
                },
                {
                    "name": "F5",
                    "midi": 77,
                    "time": 182.545272000001,
                    "velocity": 0.6614173228346457,
                    "duration": 0.12121200000001409
                },
                {
                    "name": "D5",
                    "midi": 74,
                    "time": 182.66648400000102,
                    "velocity": 0.5984251968503937,
                    "duration": 0.12121200000001409
                },
                {
                    "name": "A#4",
                    "midi": 70,
                    "time": 182.78769600000103,
                    "velocity": 0.6062992125984252,
                    "duration": 0.12121200000001409
                },
                {
                    "name": "D#5",
                    "midi": 75,
                    "time": 182.90890800000105,
                    "velocity": 0.6614173228346457,
                    "duration": 0.12121200000001409
                },
                {
                    "name": "C5",
                    "midi": 72,
                    "time": 183.03012000000106,
                    "velocity": 0.5984251968503937,
                    "duration": 0.12121200000001409
                },
                {
                    "name": "A4",
                    "midi": 69,
                    "time": 183.15133200000108,
                    "velocity": 0.5905511811023622,
                    "duration": 0.12121200000001409
                },
                {
                    "name": "A#4",
                    "midi": 70,
                    "time": 183.2725440000011,
                    "velocity": 0.6535433070866141,
                    "duration": 0.36363600000001384
                },
                {
                    "name": "F4",
                    "midi": 65,
                    "time": 183.8179980000011,
                    "velocity": 0.4330708661417323,
                    "duration": 0.1818179999999927
                },
                {
                    "name": "A#4",
                    "midi": 70,
                    "time": 183.9998160000011,
                    "velocity": 0.4566929133858268,
                    "duration": 0.09090900000001056
                },
                {
                    "name": "A4",
                    "midi": 69,
                    "time": 184.1816340000011,
                    "velocity": 0.41732283464566927,
                    "duration": 0.09090900000001056
                },
                {
                    "name": "A#4",
                    "midi": 70,
                    "time": 184.36345200000113,
                    "velocity": 0.4330708661417323,
                    "duration": 0.09090900000001056
                },
                {
                    "name": "C5",
                    "midi": 72,
                    "time": 184.54527000000115,
                    "velocity": 0.4094488188976378,
                    "duration": 0.09090900000001056
                },
                {
                    "name": "D5",
                    "midi": 74,
                    "time": 184.72708800000117,
                    "velocity": 0.4330708661417323,
                    "duration": 0.09090900000001056
                },
                {
                    "name": "A#4",
                    "midi": 70,
                    "time": 185.0907240000012,
                    "velocity": 0.4409448818897638,
                    "duration": 0.13636349999998743
                },
                {
                    "name": "D5",
                    "midi": 74,
                    "time": 185.0907240000012,
                    "velocity": 0.4409448818897638,
                    "duration": 0.13636349999998743
                },
                {
                    "name": "A#4",
                    "midi": 70,
                    "time": 185.45436000000117,
                    "velocity": 0.4645669291338583,
                    "duration": 0.36363600000001384
                },
                {
                    "name": "D5",
                    "midi": 74,
                    "time": 185.45436000000117,
                    "velocity": 0.4645669291338583,
                    "duration": 0.36363600000001384
                },
                {
                    "name": "C5",
                    "midi": 72,
                    "time": 185.8179960000012,
                    "velocity": 0.4330708661417323,
                    "duration": 0.36363600000001384
                },
                {
                    "name": "D#5",
                    "midi": 75,
                    "time": 185.8179960000012,
                    "velocity": 0.4330708661417323,
                    "duration": 0.36363600000001384
                },
                {
                    "name": "C5",
                    "midi": 72,
                    "time": 186.1816320000012,
                    "velocity": 0.4251968503937008,
                    "duration": 0.36363600000001384
                },
                {
                    "name": "A4",
                    "midi": 69,
                    "time": 186.1816320000012,
                    "velocity": 0.4251968503937008,
                    "duration": 0.36363600000001384
                },
                {
                    "name": "F4",
                    "midi": 65,
                    "time": 186.7270860000012,
                    "velocity": 0.4330708661417323,
                    "duration": 0.1818179999999927
                },
                {
                    "name": "C5",
                    "midi": 72,
                    "time": 186.9089040000012,
                    "velocity": 0.44881889763779526,
                    "duration": 0.09090900000001056
                },
                {
                    "name": "A#4",
                    "midi": 70,
                    "time": 187.09072200000122,
                    "velocity": 0.41732283464566927,
                    "duration": 0.09090900000001056
                },
                {
                    "name": "C5",
                    "midi": 72,
                    "time": 187.27254000000124,
                    "velocity": 0.4409448818897638,
                    "duration": 0.09090900000001056
                },
                {
                    "name": "D5",
                    "midi": 74,
                    "time": 187.45435800000126,
                    "velocity": 0.4094488188976378,
                    "duration": 0.09090900000001056
                },
                {
                    "name": "D#5",
                    "midi": 75,
                    "time": 187.63617600000129,
                    "velocity": 0.4409448818897638,
                    "duration": 0.09090900000001056
                },
                {
                    "name": "G4",
                    "midi": 67,
                    "time": 187.9998120000013,
                    "velocity": 0.4409448818897638,
                    "duration": 0.13636349999998743
                },
                {
                    "name": "D#5",
                    "midi": 75,
                    "time": 187.9998120000013,
                    "velocity": 0.4409448818897638,
                    "duration": 0.13636349999998743
                },
                {
                    "name": "D#5",
                    "midi": 75,
                    "time": 188.36344800000128,
                    "velocity": 0.4566929133858268,
                    "duration": 0.36363600000001384
                },
                {
                    "name": "C5",
                    "midi": 72,
                    "time": 188.36344800000128,
                    "velocity": 0.4566929133858268,
                    "duration": 0.36363600000001384
                },
                {
                    "name": "F5",
                    "midi": 77,
                    "time": 188.7270840000013,
                    "velocity": 0.4409448818897638,
                    "duration": 0.36363600000001384
                },
                {
                    "name": "A4",
                    "midi": 69,
                    "time": 188.7270840000013,
                    "velocity": 0.4409448818897638,
                    "duration": 0.36363600000001384
                },
                {
                    "name": "A#4",
                    "midi": 70,
                    "time": 189.0907200000013,
                    "velocity": 0.4251968503937008,
                    "duration": 0.36363600000001384
                },
                {
                    "name": "D5",
                    "midi": 74,
                    "time": 189.0907200000013,
                    "velocity": 0.4251968503937008,
                    "duration": 0.36363600000001384
                },
                {
                    "name": "A#4",
                    "midi": 70,
                    "time": 189.63617400000132,
                    "velocity": 0.4409448818897638,
                    "duration": 0.1818179999999927
                },
                {
                    "name": "D5",
                    "midi": 74,
                    "time": 189.8179920000013,
                    "velocity": 0.47244094488188976,
                    "duration": 0.09090900000001056
                },
                {
                    "name": "D#5",
                    "midi": 75,
                    "time": 189.99981000000133,
                    "velocity": 0.5039370078740157,
                    "duration": 0.09090900000001056
                },
                {
                    "name": "F5",
                    "midi": 77,
                    "time": 190.18162800000135,
                    "velocity": 0.5354330708661418,
                    "duration": 0.09090900000001056
                },
                {
                    "name": "G5",
                    "midi": 79,
                    "time": 190.36344600000137,
                    "velocity": 0.5669291338582677,
                    "duration": 0.09090900000001056
                },
                {
                    "name": "G#5",
                    "midi": 80,
                    "time": 190.5452640000014,
                    "velocity": 0.5984251968503937,
                    "duration": 0.1818179999999927
                },
                {
                    "name": "F4",
                    "midi": 65,
                    "time": 190.90890000000138,
                    "velocity": 0.5669291338582677,
                    "duration": 0.1818179999999927
                },
                {
                    "name": "G#4",
                    "midi": 68,
                    "time": 190.90890000000138,
                    "velocity": 0.5669291338582677,
                    "duration": 0.1818179999999927
                },
                {
                    "name": "A#3",
                    "midi": 58,
                    "time": 190.90890000000138,
                    "velocity": 0.5039370078740157,
                    "duration": 0.1818179999999927
                },
                {
                    "name": "G#4",
                    "midi": 68,
                    "time": 191.27253600000137,
                    "velocity": 0.5748031496062992,
                    "duration": 0.1818179999999927
                },
                {
                    "name": "A#3",
                    "midi": 58,
                    "time": 191.27253600000137,
                    "velocity": 0.5118110236220472,
                    "duration": 0.1818179999999927
                },
                {
                    "name": "F4",
                    "midi": 65,
                    "time": 191.27253600000137,
                    "velocity": 0.5748031496062992,
                    "duration": 0.1818179999999927
                },
                {
                    "name": "G#4",
                    "midi": 68,
                    "time": 191.63617200000135,
                    "velocity": 0.5590551181102362,
                    "duration": 0.1818179999999927
                },
                {
                    "name": "F4",
                    "midi": 65,
                    "time": 191.63617200000135,
                    "velocity": 0.5590551181102362,
                    "duration": 0.1818179999999927
                },
                {
                    "name": "C4",
                    "midi": 60,
                    "time": 191.63617200000135,
                    "velocity": 0.49606299212598426,
                    "duration": 0.1818179999999927
                },
                {
                    "name": "F4",
                    "midi": 65,
                    "time": 191.99980800000134,
                    "velocity": 0.5669291338582677,
                    "duration": 0.36363600000001384
                },
                {
                    "name": "D4",
                    "midi": 62,
                    "time": 191.99980800000134,
                    "velocity": 0.5039370078740157,
                    "duration": 0.36363600000001384
                },
                {
                    "name": "G4",
                    "midi": 67,
                    "time": 191.99980800000134,
                    "velocity": 0.5669291338582677,
                    "duration": 0.36363600000001384
                },
                {
                    "name": "D5",
                    "midi": 74,
                    "time": 192.54526200000134,
                    "velocity": 0.41732283464566927,
                    "duration": 0.1818179999999927
                },
                {
                    "name": "G5",
                    "midi": 79,
                    "time": 192.72708000000134,
                    "velocity": 0.4566929133858268,
                    "duration": 0.09090900000001056
                },
                {
                    "name": "F#5",
                    "midi": 78,
                    "time": 192.90889800000136,
                    "velocity": 0.41732283464566927,
                    "duration": 0.09090900000001056
                },
                {
                    "name": "G5",
                    "midi": 79,
                    "time": 193.09071600000138,
                    "velocity": 0.4409448818897638,
                    "duration": 0.09090900000001056
                },
                {
                    "name": "D5",
                    "midi": 74,
                    "time": 193.2725340000014,
                    "velocity": 0.41732283464566927,
                    "duration": 0.09090900000001056
                },
                {
                    "name": "F5",
                    "midi": 77,
                    "time": 193.45435200000142,
                    "velocity": 0.44881889763779526,
                    "duration": 0.1818179999999927
                },
                {
                    "name": "D#5",
                    "midi": 75,
                    "time": 193.6361700000014,
                    "velocity": 0.41732283464566927,
                    "duration": 0.1818179999999927
                },
                {
                    "name": "G4",
                    "midi": 67,
                    "time": 193.9998060000014,
                    "velocity": 0.41732283464566927,
                    "duration": 0.1818179999999927
                },
                {
                    "name": "C5",
                    "midi": 72,
                    "time": 194.1816240000014,
                    "velocity": 0.4251968503937008,
                    "duration": 0.09090900000001056
                },
                {
                    "name": "B4",
                    "midi": 71,
                    "time": 194.2725330000014,
                    "velocity": 0.4566929133858268,
                    "duration": 0.09090900000001056
                },
                {
                    "name": "D5",
                    "midi": 74,
                    "time": 194.3634420000014,
                    "velocity": 0.48031496062992124,
                    "duration": 0.09090900000001056
                },
                {
                    "name": "C5",
                    "midi": 72,
                    "time": 194.45435100000142,
                    "velocity": 0.5118110236220472,
                    "duration": 0.09090900000001056
                },
                {
                    "name": "D#5",
                    "midi": 75,
                    "time": 194.54526000000143,
                    "velocity": 0.5433070866141733,
                    "duration": 0.09090900000001056
                },
                {
                    "name": "D5",
                    "midi": 74,
                    "time": 194.63616900000144,
                    "velocity": 0.5748031496062992,
                    "duration": 0.09090900000001056
                },
                {
                    "name": "F5",
                    "midi": 77,
                    "time": 194.72707800000146,
                    "velocity": 0.5984251968503937,
                    "duration": 0.09090900000001056
                },
                {
                    "name": "D#5",
                    "midi": 75,
                    "time": 194.81798700000147,
                    "velocity": 0.6299212598425197,
                    "duration": 0.09090900000001056
                },
                {
                    "name": "G5",
                    "midi": 79,
                    "time": 194.90889600000148,
                    "velocity": 0.6614173228346457,
                    "duration": 0.1818179999999927
                },
                {
                    "name": "G4",
                    "midi": 67,
                    "time": 195.27253200000146,
                    "velocity": 0.5826771653543307,
                    "duration": 0.1818179999999927
                },
                {
                    "name": "C4",
                    "midi": 60,
                    "time": 195.27253200000146,
                    "velocity": 0.5196850393700787,
                    "duration": 0.1818179999999927
                },
                {
                    "name": "D#4",
                    "midi": 63,
                    "time": 195.27253200000146,
                    "velocity": 0.5826771653543307,
                    "duration": 0.1818179999999927
                },
                {
                    "name": "C4",
                    "midi": 60,
                    "time": 195.63616800000145,
                    "velocity": 0.5196850393700787,
                    "duration": 0.1818179999999927
                },
                {
                    "name": "D#4",
                    "midi": 63,
                    "time": 195.63616800000145,
                    "velocity": 0.5826771653543307,
                    "duration": 0.1818179999999927
                },
                {
                    "name": "G4",
                    "midi": 67,
                    "time": 195.63616800000145,
                    "velocity": 0.5826771653543307,
                    "duration": 0.1818179999999927
                },
                {
                    "name": "C4",
                    "midi": 60,
                    "time": 195.99980400000143,
                    "velocity": 0.5039370078740157,
                    "duration": 0.1818179999999927
                },
                {
                    "name": "F#4",
                    "midi": 66,
                    "time": 195.99980400000143,
                    "velocity": 0.5669291338582677,
                    "duration": 0.1818179999999927
                },
                {
                    "name": "D#4",
                    "midi": 63,
                    "time": 195.99980400000143,
                    "velocity": 0.5669291338582677,
                    "duration": 0.1818179999999927
                },
                {
                    "name": "D#4",
                    "midi": 63,
                    "time": 196.36344000000142,
                    "velocity": 0.5590551181102362,
                    "duration": 0.36363600000001384
                },
                {
                    "name": "F4",
                    "midi": 65,
                    "time": 196.36344000000142,
                    "velocity": 0.5590551181102362,
                    "duration": 0.36363600000001384
                },
                {
                    "name": "C4",
                    "midi": 60,
                    "time": 196.36344000000142,
                    "velocity": 0.49606299212598426,
                    "duration": 0.36363600000001384
                },
                {
                    "name": "C5",
                    "midi": 72,
                    "time": 196.90889400000142,
                    "velocity": 0.4094488188976378,
                    "duration": 0.1818179999999927
                },
                {
                    "name": "F5",
                    "midi": 77,
                    "time": 197.09071200000142,
                    "velocity": 0.4330708661417323,
                    "duration": 0.09090900000001056
                },
                {
                    "name": "E5",
                    "midi": 76,
                    "time": 197.27253000000144,
                    "velocity": 0.4094488188976378,
                    "duration": 0.09090900000001056
                },
                {
                    "name": "F5",
                    "midi": 77,
                    "time": 197.45434800000146,
                    "velocity": 0.4330708661417323,
                    "duration": 0.09090900000001056
                },
                {
                    "name": "C5",
                    "midi": 72,
                    "time": 197.63616600000148,
                    "velocity": 0.4094488188976378,
                    "duration": 0.09090900000001056
                },
                {
                    "name": "D#5",
                    "midi": 75,
                    "time": 197.8179840000015,
                    "velocity": 0.4330708661417323,
                    "duration": 0.1818179999999927
                },
                {
                    "name": "D5",
                    "midi": 74,
                    "time": 197.9998020000015,
                    "velocity": 0.4094488188976378,
                    "duration": 0.1818179999999927
                },
                {
                    "name": "A#5",
                    "midi": 82,
                    "time": 198.3028320000015,
                    "velocity": 0.5748031496062992,
                    "duration": 0.12121200000001409
                },
                {
                    "name": "A5",
                    "midi": 81,
                    "time": 198.42404400000152,
                    "velocity": 0.5433070866141733,
                    "duration": 0.12121200000001409
                },
                {
                    "name": "A#5",
                    "midi": 82,
                    "time": 198.54525600000153,
                    "velocity": 0.6062992125984252,
                    "duration": 0.12121200000001409
                },
                {
                    "name": "A5",
                    "midi": 81,
                    "time": 198.66646800000154,
                    "velocity": 0.5433070866141733,
                    "duration": 0.12121200000001409
                },
                {
                    "name": "G5",
                    "midi": 79,
                    "time": 198.78768000000156,
                    "velocity": 0.5511811023622047,
                    "duration": 0.12121200000001409
                },
                {
                    "name": "F5",
                    "midi": 77,
                    "time": 198.90889200000157,
                    "velocity": 0.5748031496062992,
                    "duration": 0.12121200000001409
                },
                {
                    "name": "D#5",
                    "midi": 75,
                    "time": 199.0301040000016,
                    "velocity": 0.5669291338582677,
                    "duration": 0.12121200000001409
                },
                {
                    "name": "D5",
                    "midi": 74,
                    "time": 199.1513160000016,
                    "velocity": 0.5590551181102362,
                    "duration": 0.12121200000001409
                },
                {
                    "name": "C5",
                    "midi": 72,
                    "time": 199.2725280000016,
                    "velocity": 0.5511811023622047,
                    "duration": 0.1818179999999927
                },
                {
                    "name": "C5",
                    "midi": 72,
                    "time": 199.7573760000016,
                    "velocity": 0.5511811023622047,
                    "duration": 0.12121200000001409
                },
                {
                    "name": "D5",
                    "midi": 74,
                    "time": 199.87858800000163,
                    "velocity": 0.5669291338582677,
                    "duration": 0.12121200000001409
                },
                {
                    "name": "D#5",
                    "midi": 75,
                    "time": 199.99980000000164,
                    "velocity": 0.5826771653543307,
                    "duration": 0.12121200000001409
                },
                {
                    "name": "D5",
                    "midi": 74,
                    "time": 200.12101200000166,
                    "velocity": 0.5748031496062992,
                    "duration": 0.12121200000001409
                },
                {
                    "name": "C5",
                    "midi": 72,
                    "time": 200.24222400000167,
                    "velocity": 0.5354330708661418,
                    "duration": 0.12121200000001409
                },
                {
                    "name": "G5",
                    "midi": 79,
                    "time": 200.36343600000168,
                    "velocity": 0.5748031496062992,
                    "duration": 0.12121200000001409
                },
                {
                    "name": "F5",
                    "midi": 77,
                    "time": 200.4846480000017,
                    "velocity": 0.5669291338582677,
                    "duration": 0.12121200000001409
                },
                {
                    "name": "D#5",
                    "midi": 75,
                    "time": 200.6058600000017,
                    "velocity": 0.5590551181102362,
                    "duration": 0.12121200000001409
                },
                {
                    "name": "D5",
                    "midi": 74,
                    "time": 200.72707200000173,
                    "velocity": 0.5433070866141733,
                    "duration": 0.36363600000001384
                },
                {
                    "name": "A#5",
                    "midi": 82,
                    "time": 201.21192000000175,
                    "velocity": 0.5826771653543307,
                    "duration": 0.12121200000001409
                },
                {
                    "name": "A5",
                    "midi": 81,
                    "time": 201.33313200000177,
                    "velocity": 0.5826771653543307,
                    "duration": 0.12121200000001409
                },
                {
                    "name": "A#5",
                    "midi": 82,
                    "time": 201.45434400000178,
                    "velocity": 0.5984251968503937,
                    "duration": 0.12121200000001409
                },
                {
                    "name": "G#5",
                    "midi": 80,
                    "time": 201.5755560000018,
                    "velocity": 0.5669291338582677,
                    "duration": 0.12121200000001409
                },
                {
                    "name": "G5",
                    "midi": 79,
                    "time": 201.6967680000018,
                    "velocity": 0.5590551181102362,
                    "duration": 0.12121200000001409
                },
                {
                    "name": "F5",
                    "midi": 77,
                    "time": 201.81798000000182,
                    "velocity": 0.5748031496062992,
                    "duration": 0.12121200000001409
                },
                {
                    "name": "D#5",
                    "midi": 75,
                    "time": 201.93919200000184,
                    "velocity": 0.5590551181102362,
                    "duration": 0.12121200000001409
                },
                {
                    "name": "D5",
                    "midi": 74,
                    "time": 202.06040400000185,
                    "velocity": 0.5511811023622047,
                    "duration": 0.12121200000001409
                },
                {
                    "name": "D#5",
                    "midi": 75,
                    "time": 202.18161600000187,
                    "velocity": 0.5826771653543307,
                    "duration": 0.36363600000001384
                },
                {
                    "name": "D#5",
                    "midi": 75,
                    "time": 202.6664640000019,
                    "velocity": 0.5590551181102362,
                    "duration": 0.12121200000001409
                },
                {
                    "name": "F5",
                    "midi": 77,
                    "time": 202.7876760000019,
                    "velocity": 0.5669291338582677,
                    "duration": 0.12121200000001409
                },
                {
                    "name": "G5",
                    "midi": 79,
                    "time": 202.90888800000192,
                    "velocity": 0.5826771653543307,
                    "duration": 0.12121200000001409
                },
                {
                    "name": "F5",
                    "midi": 77,
                    "time": 203.03010000000194,
                    "velocity": 0.5748031496062992,
                    "duration": 0.12121200000001409
                },
                {
                    "name": "D#5",
                    "midi": 75,
                    "time": 203.15131200000195,
                    "velocity": 0.5669291338582677,
                    "duration": 0.12121200000001409
                },
                {
                    "name": "A#5",
                    "midi": 82,
                    "time": 203.27252400000197,
                    "velocity": 0.6220472440944882,
                    "duration": 0.12121200000001409
                },
                {
                    "name": "G#5",
                    "midi": 80,
                    "time": 203.39373600000198,
                    "velocity": 0.5669291338582677,
                    "duration": 0.12121200000001409
                },
                {
                    "name": "G5",
                    "midi": 79,
                    "time": 203.514948000002,
                    "velocity": 0.5511811023622047,
                    "duration": 0.12121200000001409
                },
                {
                    "name": "F5",
                    "midi": 77,
                    "time": 203.636160000002,
                    "velocity": 0.5669291338582677,
                    "duration": 0.36363600000001384
                },
                {
                    "name": "A#5",
                    "midi": 82,
                    "time": 204.12100800000204,
                    "velocity": 0.5826771653543307,
                    "duration": 0.12121200000001409
                },
                {
                    "name": "A5",
                    "midi": 81,
                    "time": 204.24222000000205,
                    "velocity": 0.5590551181102362,
                    "duration": 0.12121200000001409
                },
                {
                    "name": "A#5",
                    "midi": 82,
                    "time": 204.36343200000206,
                    "velocity": 0.5984251968503937,
                    "duration": 0.12121200000001409
                },
                {
                    "name": "G#5",
                    "midi": 80,
                    "time": 204.48464400000208,
                    "velocity": 0.5669291338582677,
                    "duration": 0.12121200000001409
                },
                {
                    "name": "G5",
                    "midi": 79,
                    "time": 204.6058560000021,
                    "velocity": 0.5748031496062992,
                    "duration": 0.12121200000001409
                },
                {
                    "name": "F5",
                    "midi": 77,
                    "time": 204.7270680000021,
                    "velocity": 0.5590551181102362,
                    "duration": 0.12121200000001409
                },
                {
                    "name": "G5",
                    "midi": 79,
                    "time": 204.84828000000212,
                    "velocity": 0.5669291338582677,
                    "duration": 0.12121200000001409
                },
                {
                    "name": "G#5",
                    "midi": 80,
                    "time": 204.96949200000213,
                    "velocity": 0.5826771653543307,
                    "duration": 0.12121200000001409
                },
                {
                    "name": "G5",
                    "midi": 79,
                    "time": 205.09070400000215,
                    "velocity": 0.5669291338582677,
                    "duration": 0.12121200000001409
                },
                {
                    "name": "A#5",
                    "midi": 82,
                    "time": 205.21191600000216,
                    "velocity": 0.6141732283464567,
                    "duration": 0.12121200000001409
                },
                {
                    "name": "A5",
                    "midi": 81,
                    "time": 205.33312800000218,
                    "velocity": 0.5905511811023622,
                    "duration": 0.12121200000001409
                },
                {
                    "name": "G5",
                    "midi": 79,
                    "time": 205.4543400000022,
                    "velocity": 0.5590551181102362,
                    "duration": 0.12121200000001409
                },
                {
                    "name": "A5",
                    "midi": 81,
                    "time": 205.5755520000022,
                    "velocity": 0.5748031496062992,
                    "duration": 0.12121200000001409
                },
                {
                    "name": "A#5",
                    "midi": 82,
                    "time": 205.69676400000222,
                    "velocity": 0.5905511811023622,
                    "duration": 0.12121200000001409
                },
                {
                    "name": "D#5",
                    "midi": 75,
                    "time": 205.81797600000223,
                    "velocity": 0.5511811023622047,
                    "duration": 0.12121200000001409
                },
                {
                    "name": "G5",
                    "midi": 79,
                    "time": 205.93918800000225,
                    "velocity": 0.5826771653543307,
                    "duration": 0.12121200000001409
                },
                {
                    "name": "F5",
                    "midi": 77,
                    "time": 206.06040000000226,
                    "velocity": 0.5433070866141733,
                    "duration": 0.12121200000001409
                },
                {
                    "name": "D#5",
                    "midi": 75,
                    "time": 206.18161200000227,
                    "velocity": 0.5511811023622047,
                    "duration": 0.12121200000001409
                },
                {
                    "name": "F5",
                    "midi": 77,
                    "time": 206.3028240000023,
                    "velocity": 0.5669291338582677,
                    "duration": 0.12121200000001409
                },
                {
                    "name": "G5",
                    "midi": 79,
                    "time": 206.4240360000023,
                    "velocity": 0.5905511811023622,
                    "duration": 0.12121200000001409
                },
                {
                    "name": "C5",
                    "midi": 72,
                    "time": 206.54524800000232,
                    "velocity": 0.5748031496062992,
                    "duration": 0.12121200000001409
                },
                {
                    "name": "D#5",
                    "midi": 75,
                    "time": 206.66646000000233,
                    "velocity": 0.5984251968503937,
                    "duration": 0.12121200000001409
                },
                {
                    "name": "D5",
                    "midi": 74,
                    "time": 206.78767200000235,
                    "velocity": 0.5826771653543307,
                    "duration": 0.12121200000001409
                },
                {
                    "name": "C5",
                    "midi": 72,
                    "time": 206.90888400000236,
                    "velocity": 0.5748031496062992,
                    "duration": 0.12121200000001409
                },
                {
                    "name": "D5",
                    "midi": 74,
                    "time": 207.03009600000237,
                    "velocity": 0.5826771653543307,
                    "duration": 0.12121200000001409
                },
                {
                    "name": "D#5",
                    "midi": 75,
                    "time": 207.1513080000024,
                    "velocity": 0.5433070866141733,
                    "duration": 0.12121200000001409
                },
                {
                    "name": "G4",
                    "midi": 67,
                    "time": 207.2725200000024,
                    "velocity": 0.5669291338582677,
                    "duration": 0.12121200000001409
                },
                {
                    "name": "A#4",
                    "midi": 70,
                    "time": 207.39373200000242,
                    "velocity": 0.5826771653543307,
                    "duration": 0.12121200000001409
                },
                {
                    "name": "A4",
                    "midi": 69,
                    "time": 207.51494400000243,
                    "velocity": 0.5669291338582677,
                    "duration": 0.12121200000001409
                },
                {
                    "name": "G4",
                    "midi": 67,
                    "time": 207.63615600000244,
                    "velocity": 0.5354330708661418,
                    "duration": 0.12121200000001409
                },
                {
                    "name": "A4",
                    "midi": 69,
                    "time": 207.75736800000246,
                    "velocity": 0.5511811023622047,
                    "duration": 0.12121200000001409
                },
                {
                    "name": "A#4",
                    "midi": 70,
                    "time": 207.87858000000247,
                    "velocity": 0.5590551181102362,
                    "duration": 0.12121200000001409
                },
                {
                    "name": "A4",
                    "midi": 69,
                    "time": 207.9997920000025,
                    "velocity": 0.5590551181102362,
                    "duration": 0.09090900000001056
                },
                {
                    "name": "F4",
                    "midi": 65,
                    "time": 208.0907010000025,
                    "velocity": 0.5433070866141733,
                    "duration": 0.09090900000001056
                },
                {
                    "name": "G4",
                    "midi": 67,
                    "time": 208.1816100000025,
                    "velocity": 0.5511811023622047,
                    "duration": 0.09090900000001056
                },
                {
                    "name": "A4",
                    "midi": 69,
                    "time": 208.27251900000252,
                    "velocity": 0.5590551181102362,
                    "duration": 0.09090900000001056
                },
                {
                    "name": "A#4",
                    "midi": 70,
                    "time": 208.36342800000253,
                    "velocity": 0.5669291338582677,
                    "duration": 0.09090900000001056
                },
                {
                    "name": "C5",
                    "midi": 72,
                    "time": 208.45433700000254,
                    "velocity": 0.5748031496062992,
                    "duration": 0.09090900000001056
                },
                {
                    "name": "D5",
                    "midi": 74,
                    "time": 208.54524600000255,
                    "velocity": 0.5826771653543307,
                    "duration": 0.09090900000001056
                },
                {
                    "name": "E5",
                    "midi": 76,
                    "time": 208.63615500000256,
                    "velocity": 0.5984251968503937,
                    "duration": 0.09090900000001056
                },
                {
                    "name": "F5",
                    "midi": 77,
                    "time": 208.72706400000257,
                    "velocity": 0.6062992125984252,
                    "duration": 0.09090900000001056
                },
                {
                    "name": "G5",
                    "midi": 79,
                    "time": 208.81797300000258,
                    "velocity": 0.6141732283464567,
                    "duration": 0.09090900000001056
                },
                {
                    "name": "A5",
                    "midi": 81,
                    "time": 208.9088820000026,
                    "velocity": 0.6220472440944882,
                    "duration": 0.09090900000001056
                },
                {
                    "name": "A#5",
                    "midi": 82,
                    "time": 208.9997910000026,
                    "velocity": 0.6299212598425197,
                    "duration": 0.09090900000001056
                },
                {
                    "name": "C6",
                    "midi": 84,
                    "time": 209.0907000000026,
                    "velocity": 0.7322834645669292,
                    "duration": 0.09090900000001056
                },
                {
                    "name": "D#5",
                    "midi": 75,
                    "time": 209.27251800000263,
                    "velocity": 0.5984251968503937,
                    "duration": 0.09090900000001056
                },
                {
                    "name": "D5",
                    "midi": 74,
                    "time": 209.45433600000266,
                    "velocity": 0.5826771653543307,
                    "duration": 0.09090900000001056
                },
                {
                    "name": "A#4",
                    "midi": 70,
                    "time": 209.54524500000267,
                    "velocity": 0.5433070866141733,
                    "duration": 0.09090900000001056
                },
                {
                    "name": "C5",
                    "midi": 72,
                    "time": 209.63615400000268,
                    "velocity": 0.5590551181102362,
                    "duration": 0.09090900000001056
                },
                {
                    "name": "D5",
                    "midi": 74,
                    "time": 209.7270630000027,
                    "velocity": 0.5669291338582677,
                    "duration": 0.09090900000001056
                },
                {
                    "name": "D#5",
                    "midi": 75,
                    "time": 209.8179720000027,
                    "velocity": 0.5826771653543307,
                    "duration": 0.09090900000001056
                },
                {
                    "name": "F5",
                    "midi": 77,
                    "time": 209.9088810000027,
                    "velocity": 0.5905511811023622,
                    "duration": 0.09090900000001056
                },
                {
                    "name": "G5",
                    "midi": 79,
                    "time": 209.99979000000272,
                    "velocity": 0.6062992125984252,
                    "duration": 0.09090900000001056
                },
                {
                    "name": "A5",
                    "midi": 81,
                    "time": 210.09069900000273,
                    "velocity": 0.6141732283464567,
                    "duration": 0.09090900000001056
                },
                {
                    "name": "A#5",
                    "midi": 82,
                    "time": 210.18160800000274,
                    "velocity": 0.6299212598425197,
                    "duration": 0.09090900000001056
                },
                {
                    "name": "C6",
                    "midi": 84,
                    "time": 210.27251700000275,
                    "velocity": 0.6377952755905512,
                    "duration": 0.09090900000001056
                },
                {
                    "name": "D6",
                    "midi": 86,
                    "time": 210.36342600000276,
                    "velocity": 0.6535433070866141,
                    "duration": 0.09090900000001056
                },
                {
                    "name": "D#6",
                    "midi": 87,
                    "time": 210.45433500000277,
                    "velocity": 0.6614173228346457,
                    "duration": 0.09090900000001056
                },
                {
                    "name": "F6",
                    "midi": 89,
                    "time": 210.54524400000278,
                    "velocity": 0.7795275590551181,
                    "duration": 0.09090900000001056
                },
                {
                    "name": "A#5",
                    "midi": 82,
                    "time": 210.7270620000028,
                    "velocity": 0.6456692913385826,
                    "duration": 0.09090900000001056
                },
                {
                    "name": "A5",
                    "midi": 81,
                    "time": 210.90888000000282,
                    "velocity": 0.6141732283464567,
                    "duration": 0.09090900000001056
                },
                {
                    "name": "A#5",
                    "midi": 82,
                    "time": 210.99978900000283,
                    "velocity": 0.6377952755905512,
                    "duration": 0.09090900000001056
                },
                {
                    "name": "C6",
                    "midi": 84,
                    "time": 211.09069800000285,
                    "velocity": 0.6535433070866141,
                    "duration": 0.09090900000001056
                },
                {
                    "name": "A#5",
                    "midi": 82,
                    "time": 211.18160700000286,
                    "velocity": 0.6299212598425197,
                    "duration": 0.09090900000001056
                },
                {
                    "name": "A5",
                    "midi": 81,
                    "time": 211.27251600000287,
                    "velocity": 0.6220472440944882,
                    "duration": 0.09090900000001056
                },
                {
                    "name": "A#5",
                    "midi": 82,
                    "time": 211.36342500000288,
                    "velocity": 0.6456692913385826,
                    "duration": 0.09090900000001056
                },
                {
                    "name": "C6",
                    "midi": 84,
                    "time": 211.4543340000029,
                    "velocity": 0.6692913385826772,
                    "duration": 0.09090900000001056
                },
                {
                    "name": "D6",
                    "midi": 86,
                    "time": 211.5452430000029,
                    "velocity": 0.6929133858267716,
                    "duration": 0.09090900000001056
                },
                {
                    "name": "D#6",
                    "midi": 87,
                    "time": 211.6361520000029,
                    "velocity": 0.7007874015748031,
                    "duration": 0.09090900000001056
                },
                {
                    "name": "D6",
                    "midi": 86,
                    "time": 211.72706100000292,
                    "velocity": 0.6850393700787402,
                    "duration": 0.09090900000001056
                },
                {
                    "name": "C6",
                    "midi": 84,
                    "time": 211.81797000000293,
                    "velocity": 0.6771653543307087,
                    "duration": 0.09090900000001056
                },
                {
                    "name": "A#5",
                    "midi": 82,
                    "time": 211.90887900000294,
                    "velocity": 0.6614173228346457,
                    "duration": 0.09090900000001056
                },
                {
                    "name": "A5",
                    "midi": 81,
                    "time": 211.99978800000295,
                    "velocity": 0.6456692913385826,
                    "duration": 0.09090900000001056
                },
                {
                    "name": "G5",
                    "midi": 79,
                    "time": 212.09069700000296,
                    "velocity": 0.6299212598425197,
                    "duration": 0.09090900000001056
                },
                {
                    "name": "F5",
                    "midi": 77,
                    "time": 212.18160600000297,
                    "velocity": 0.6141732283464567,
                    "duration": 0.09090900000001056
                },
                {
                    "name": "D#5",
                    "midi": 75,
                    "time": 212.27251500000298,
                    "velocity": 0.6062992125984252,
                    "duration": 0.09090900000001056
                },
                {
                    "name": "D5",
                    "midi": 74,
                    "time": 212.363424000003,
                    "velocity": 0.5905511811023622,
                    "duration": 0.09090900000001056
                },
                {
                    "name": "F5",
                    "midi": 77,
                    "time": 212.454333000003,
                    "velocity": 0.5905511811023622,
                    "duration": 0.09090900000001056
                },
                {
                    "name": "D#5",
                    "midi": 75,
                    "time": 212.54524200000301,
                    "velocity": 0.5826771653543307,
                    "duration": 0.09090900000001056
                },
                {
                    "name": "D5",
                    "midi": 74,
                    "time": 212.63615100000303,
                    "velocity": 0.5748031496062992,
                    "duration": 0.09090900000001056
                },
                {
                    "name": "D#5",
                    "midi": 75,
                    "time": 212.72706000000304,
                    "velocity": 0.5590551181102362,
                    "duration": 0.09090900000001056
                },
                {
                    "name": "F5",
                    "midi": 77,
                    "time": 212.81796900000305,
                    "velocity": 0.5748031496062992,
                    "duration": 0.09090900000001056
                },
                {
                    "name": "G5",
                    "midi": 79,
                    "time": 212.90887800000306,
                    "velocity": 0.5984251968503937,
                    "duration": 0.09090900000001056
                },
                {
                    "name": "A5",
                    "midi": 81,
                    "time": 212.99978700000307,
                    "velocity": 0.6141732283464567,
                    "duration": 0.09090900000001056
                },
                {
                    "name": "A#5",
                    "midi": 82,
                    "time": 213.09069600000308,
                    "velocity": 0.6220472440944882,
                    "duration": 0.09090900000001056
                },
                {
                    "name": "A5",
                    "midi": 81,
                    "time": 213.1816050000031,
                    "velocity": 0.6141732283464567,
                    "duration": 0.09090900000001056
                },
                {
                    "name": "G5",
                    "midi": 79,
                    "time": 213.2725140000031,
                    "velocity": 0.6062992125984252,
                    "duration": 0.09090900000001056
                },
                {
                    "name": "F5",
                    "midi": 77,
                    "time": 213.3634230000031,
                    "velocity": 0.5984251968503937,
                    "duration": 0.09090900000001056
                },
                {
                    "name": "D#5",
                    "midi": 75,
                    "time": 213.45433200000312,
                    "velocity": 0.5905511811023622,
                    "duration": 0.09090900000001056
                },
                {
                    "name": "D5",
                    "midi": 74,
                    "time": 213.54524100000313,
                    "velocity": 0.5826771653543307,
                    "duration": 0.09090900000001056
                },
                {
                    "name": "C5",
                    "midi": 72,
                    "time": 213.63615000000314,
                    "velocity": 0.5669291338582677,
                    "duration": 0.09090900000001056
                },
                {
                    "name": "A#4",
                    "midi": 70,
                    "time": 213.72705900000315,
                    "velocity": 0.5590551181102362,
                    "duration": 0.09090900000001056
                },
                {
                    "name": "F5",
                    "midi": 77,
                    "time": 213.81796800000316,
                    "velocity": 0.5511811023622047,
                    "duration": 0.09090900000001056
                },
                {
                    "name": "A4",
                    "midi": 69,
                    "time": 213.81796800000316,
                    "velocity": 0.5511811023622047,
                    "duration": 0.09090900000001056
                },
                {
                    "name": "C5",
                    "midi": 72,
                    "time": 213.81796800000316,
                    "velocity": 0.5511811023622047,
                    "duration": 0.09090900000001056
                },
                {
                    "name": "F4",
                    "midi": 65,
                    "time": 214.18160400000318,
                    "velocity": 0.5590551181102362,
                    "duration": 0.1818179999999927
                },
                {
                    "name": "C5",
                    "midi": 72,
                    "time": 214.54524000000316,
                    "velocity": 0.5984251968503937,
                    "duration": 0.5454540000000065
                },
                {
                    "name": "A4",
                    "midi": 69,
                    "time": 215.09069400000317,
                    "velocity": 0.47244094488188976,
                    "duration": 0.09090900000001056
                },
                {
                    "name": "F4",
                    "midi": 65,
                    "time": 215.18160300000318,
                    "velocity": 0.47244094488188976,
                    "duration": 0.09090900000001056
                },
                {
                    "name": "A#4",
                    "midi": 70,
                    "time": 215.2725120000032,
                    "velocity": 0.5275590551181102,
                    "duration": 0.36363600000001384
                },
                {
                    "name": "B4",
                    "midi": 71,
                    "time": 215.6361480000032,
                    "velocity": 0.5511811023622047,
                    "duration": 0.36363600000001384
                },
                {
                    "name": "C5",
                    "midi": 72,
                    "time": 215.99978400000322,
                    "velocity": 0.5826771653543307,
                    "duration": 0.5454540000000065
                },
                {
                    "name": "A4",
                    "midi": 69,
                    "time": 216.54523800000322,
                    "velocity": 0.48031496062992124,
                    "duration": 0.09090900000001056
                },
                {
                    "name": "F4",
                    "midi": 65,
                    "time": 216.63614700000323,
                    "velocity": 0.48031496062992124,
                    "duration": 0.09090900000001056
                },
                {
                    "name": "A#4",
                    "midi": 70,
                    "time": 216.72705600000324,
                    "velocity": 0.5118110236220472,
                    "duration": 0.36363600000001384
                },
                {
                    "name": "C5",
                    "midi": 72,
                    "time": 217.45432800000327,
                    "velocity": 0.5905511811023622,
                    "duration": 0.09090900000001056
                },
                {
                    "name": "C5",
                    "midi": 72,
                    "time": 217.6361460000033,
                    "velocity": 0.5905511811023622,
                    "duration": 0.36363600000001384
                },
                {
                    "name": "A4",
                    "midi": 69,
                    "time": 217.9997820000033,
                    "velocity": 0.48031496062992124,
                    "duration": 0.09090900000001056
                },
                {
                    "name": "F4",
                    "midi": 65,
                    "time": 218.09069100000332,
                    "velocity": 0.48031496062992124,
                    "duration": 0.09090900000001056
                },
                {
                    "name": "A#4",
                    "midi": 70,
                    "time": 218.18160000000333,
                    "velocity": 0.5039370078740157,
                    "duration": 0.09090900000001056
                },
                {
                    "name": "A#4",
                    "midi": 70,
                    "time": 218.36341800000335,
                    "velocity": 0.5354330708661418,
                    "duration": 0.09090900000001056
                },
                {
                    "name": "B4",
                    "midi": 71,
                    "time": 218.54523600000337,
                    "velocity": 0.5590551181102362,
                    "duration": 0.09090900000001056
                },
                {
                    "name": "B4",
                    "midi": 71,
                    "time": 218.7270540000034,
                    "velocity": 0.5590551181102362,
                    "duration": 0.09090900000001056
                },
                {
                    "name": "C5",
                    "midi": 72,
                    "time": 218.9088720000034,
                    "velocity": 0.6062992125984252,
                    "duration": 0.09090900000001056
                },
                {
                    "name": "C5",
                    "midi": 72,
                    "time": 219.09069000000343,
                    "velocity": 0.6062992125984252,
                    "duration": 0.36363600000001384
                },
                {
                    "name": "A4",
                    "midi": 69,
                    "time": 219.45432600000345,
                    "velocity": 0.47244094488188976,
                    "duration": 0.09090900000001056
                },
                {
                    "name": "F4",
                    "midi": 65,
                    "time": 219.54523500000346,
                    "velocity": 0.4881889763779528,
                    "duration": 0.09090900000001056
                },
                {
                    "name": "A#4",
                    "midi": 70,
                    "time": 219.63614400000347,
                    "velocity": 0.5196850393700787,
                    "duration": 0.36363600000001384
                },
                {
                    "name": "B5",
                    "midi": 83,
                    "time": 220.3634160000035,
                    "velocity": 0.5118110236220472,
                    "duration": 0.10909080000001836
                },
                {
                    "name": "C6",
                    "midi": 84,
                    "time": 220.4543250000035,
                    "velocity": 0.5354330708661418,
                    "duration": 0.10909080000001836
                },
                {
                    "name": "D6",
                    "midi": 86,
                    "time": 220.54523400000352,
                    "velocity": 0.5511811023622047,
                    "duration": 0.10909080000001836
                },
                {
                    "name": "C6",
                    "midi": 84,
                    "time": 220.63614300000353,
                    "velocity": 0.5748031496062992,
                    "duration": 0.10909080000001836
                },
                {
                    "name": "A#5",
                    "midi": 82,
                    "time": 220.72705200000354,
                    "velocity": 0.5984251968503937,
                    "duration": 0.10909080000001836
                },
                {
                    "name": "A5",
                    "midi": 81,
                    "time": 220.81796100000355,
                    "velocity": 0.6062992125984252,
                    "duration": 0.10909080000001836
                },
                {
                    "name": "G5",
                    "midi": 79,
                    "time": 220.90887000000356,
                    "velocity": 0.6299212598425197,
                    "duration": 0.10909080000001836
                },
                {
                    "name": "F5",
                    "midi": 77,
                    "time": 220.99977900000357,
                    "velocity": 0.6220472440944882,
                    "duration": 0.10909080000001836
                },
                {
                    "name": "A#5",
                    "midi": 82,
                    "time": 221.09068800000358,
                    "velocity": 0.6692913385826772,
                    "duration": 0.09090900000001056
                },
                {
                    "name": "F5",
                    "midi": 77,
                    "time": 221.1815970000036,
                    "velocity": 0.5905511811023622,
                    "duration": 0.09090900000001056
                },
                {
                    "name": "D6",
                    "midi": 86,
                    "time": 221.2725060000036,
                    "velocity": 0.6692913385826772,
                    "duration": 0.09090900000001056
                },
                {
                    "name": "A#5",
                    "midi": 82,
                    "time": 221.3634150000036,
                    "velocity": 0.6220472440944882,
                    "duration": 0.09090900000001056
                },
                {
                    "name": "F6",
                    "midi": 89,
                    "time": 221.45432400000362,
                    "velocity": 0.6692913385826772,
                    "duration": 0.09090900000001056
                },
                {
                    "name": "D6",
                    "midi": 86,
                    "time": 221.54523300000363,
                    "velocity": 0.6141732283464567,
                    "duration": 0.09090900000001056
                },
                {
                    "name": "F6",
                    "midi": 89,
                    "time": 221.63614200000364,
                    "velocity": 0.6692913385826772,
                    "duration": 0.09090900000001056
                },
                {
                    "name": "D6",
                    "midi": 86,
                    "time": 221.72705100000366,
                    "velocity": 0.6062992125984252,
                    "duration": 0.09090900000001056
                },
                {
                    "name": "F6",
                    "midi": 89,
                    "time": 221.81796000000367,
                    "velocity": 0.6535433070866141,
                    "duration": 0.10909080000001836
                },
                {
                    "name": "D#6",
                    "midi": 87,
                    "time": 221.90886900000368,
                    "velocity": 0.6535433070866141,
                    "duration": 0.10909080000001836
                },
                {
                    "name": "D6",
                    "midi": 86,
                    "time": 221.9997780000037,
                    "velocity": 0.6456692913385826,
                    "duration": 0.10909080000001836
                },
                {
                    "name": "C6",
                    "midi": 84,
                    "time": 222.0906870000037,
                    "velocity": 0.6377952755905512,
                    "duration": 0.10909080000001836
                },
                {
                    "name": "A#5",
                    "midi": 82,
                    "time": 222.1815960000037,
                    "velocity": 0.6377952755905512,
                    "duration": 0.10909080000001836
                },
                {
                    "name": "A5",
                    "midi": 81,
                    "time": 222.27250500000372,
                    "velocity": 0.6299212598425197,
                    "duration": 0.10909080000001836
                },
                {
                    "name": "G5",
                    "midi": 79,
                    "time": 222.36341400000373,
                    "velocity": 0.6220472440944882,
                    "duration": 0.10909080000001836
                },
                {
                    "name": "F5",
                    "midi": 77,
                    "time": 222.45432300000374,
                    "velocity": 0.6220472440944882,
                    "duration": 0.10909080000001836
                },
                {
                    "name": "G5",
                    "midi": 79,
                    "time": 222.54523200000375,
                    "velocity": 0.6850393700787402,
                    "duration": 0.09090900000001056
                },
                {
                    "name": "D#5",
                    "midi": 75,
                    "time": 222.63614100000376,
                    "velocity": 0.6141732283464567,
                    "duration": 0.09090900000001056
                },
                {
                    "name": "A#5",
                    "midi": 82,
                    "time": 222.72705000000377,
                    "velocity": 0.6771653543307087,
                    "duration": 0.09090900000001056
                },
                {
                    "name": "G5",
                    "midi": 79,
                    "time": 222.81795900000378,
                    "velocity": 0.5984251968503937,
                    "duration": 0.09090900000001056
                },
                {
                    "name": "A#5",
                    "midi": 82,
                    "time": 222.9088680000038,
                    "velocity": 0.6771653543307087,
                    "duration": 0.09090900000001056
                },
                {
                    "name": "A5",
                    "midi": 81,
                    "time": 222.9997770000038,
                    "velocity": 0.6062992125984252,
                    "duration": 0.09090900000001056
                },
                {
                    "name": "A#5",
                    "midi": 82,
                    "time": 223.0906860000038,
                    "velocity": 0.6535433070866141,
                    "duration": 0.09090900000001056
                },
                {
                    "name": "A5",
                    "midi": 81,
                    "time": 223.18159500000382,
                    "velocity": 0.6062992125984252,
                    "duration": 0.09090900000001056
                },
                {
                    "name": "A#5",
                    "midi": 82,
                    "time": 223.27250400000383,
                    "velocity": 0.6220472440944882,
                    "duration": 0.09090900000001056
                },
                {
                    "name": "A5",
                    "midi": 81,
                    "time": 223.36341300000385,
                    "velocity": 0.5748031496062992,
                    "duration": 0.09090900000001056
                },
                {
                    "name": "G5",
                    "midi": 79,
                    "time": 223.45432200000386,
                    "velocity": 0.5984251968503937,
                    "duration": 0.09090900000001056
                },
                {
                    "name": "F5",
                    "midi": 77,
                    "time": 223.54523100000387,
                    "velocity": 0.5354330708661418,
                    "duration": 0.09090900000001056
                },
                {
                    "name": "D#5",
                    "midi": 75,
                    "time": 223.63614000000388,
                    "velocity": 0.5669291338582677,
                    "duration": 0.09090900000001056
                },
                {
                    "name": "D5",
                    "midi": 74,
                    "time": 223.7270490000039,
                    "velocity": 0.5275590551181102,
                    "duration": 0.09090900000001056
                },
                {
                    "name": "C5",
                    "midi": 72,
                    "time": 223.8179580000039,
                    "velocity": 0.5354330708661418,
                    "duration": 0.09090900000001056
                },
                {
                    "name": "A#4",
                    "midi": 70,
                    "time": 223.9088670000039,
                    "velocity": 0.49606299212598426,
                    "duration": 0.09090900000001056
                },
                {
                    "name": "F4",
                    "midi": 65,
                    "time": 223.99977600000392,
                    "velocity": 0.5275590551181102,
                    "duration": 0.04545450000000528
                },
                {
                    "name": "F5",
                    "midi": 77,
                    "time": 224.09068500000393,
                    "velocity": 0.5275590551181102,
                    "duration": 0.09090900000001056
                },
                {
                    "name": "G5",
                    "midi": 79,
                    "time": 224.18159400000394,
                    "velocity": 0.5433070866141733,
                    "duration": 0.09090900000001056
                },
                {
                    "name": "F5",
                    "midi": 77,
                    "time": 224.27250300000395,
                    "velocity": 0.5275590551181102,
                    "duration": 0.09090900000001056
                },
                {
                    "name": "D#5",
                    "midi": 75,
                    "time": 224.36341200000396,
                    "velocity": 0.5275590551181102,
                    "duration": 0.09090900000001056
                },
                {
                    "name": "D5",
                    "midi": 74,
                    "time": 224.45432100000397,
                    "velocity": 0.5039370078740157,
                    "duration": 0.09090900000001056
                },
                {
                    "name": "C5",
                    "midi": 72,
                    "time": 224.54523000000398,
                    "velocity": 0.5275590551181102,
                    "duration": 0.09090900000001056
                },
                {
                    "name": "A#4",
                    "midi": 70,
                    "time": 224.636139000004,
                    "velocity": 0.5039370078740157,
                    "duration": 0.09090900000001056
                },
                {
                    "name": "C5",
                    "midi": 72,
                    "time": 224.727048000004,
                    "velocity": 0.5275590551181102,
                    "duration": 0.06060600000000704
                },
                {
                    "name": "D5",
                    "midi": 74,
                    "time": 224.787654000004,
                    "velocity": 0.48031496062992124,
                    "duration": 0.06060600000000704
                },
                {
                    "name": "C5",
                    "midi": 72,
                    "time": 224.84826000000402,
                    "velocity": 0.4645669291338583,
                    "duration": 0.06060600000000704
                },
                {
                    "name": "D5",
                    "midi": 74,
                    "time": 224.90886600000402,
                    "velocity": 0.5275590551181102,
                    "duration": 0.06060600000000704
                },
                {
                    "name": "C5",
                    "midi": 72,
                    "time": 224.96947200000403,
                    "velocity": 0.4645669291338583,
                    "duration": 0.06060600000000704
                },
                {
                    "name": "D5",
                    "midi": 74,
                    "time": 225.03007800000404,
                    "velocity": 0.4645669291338583,
                    "duration": 0.06060600000000704
                },
                {
                    "name": "C5",
                    "midi": 72,
                    "time": 225.09068400000405,
                    "velocity": 0.48031496062992124,
                    "duration": 0.06060600000000704
                },
                {
                    "name": "D5",
                    "midi": 74,
                    "time": 225.15129000000405,
                    "velocity": 0.5275590551181102,
                    "duration": 0.06060600000000704
                },
                {
                    "name": "C5",
                    "midi": 72,
                    "time": 225.21189600000406,
                    "velocity": 0.5275590551181102,
                    "duration": 0.06060600000000704
                },
                {
                    "name": "A#4",
                    "midi": 70,
                    "time": 225.27250200000407,
                    "velocity": 0.5433070866141733,
                    "duration": 0.09090900000001056
                },
                {
                    "name": "C5",
                    "midi": 72,
                    "time": 225.36341100000408,
                    "velocity": 0.5511811023622047,
                    "duration": 0.09090900000001056
                },
                {
                    "name": "D5",
                    "midi": 74,
                    "time": 225.4543200000041,
                    "velocity": 0.5669291338582677,
                    "duration": 0.09090900000001056
                },
                {
                    "name": "D#5",
                    "midi": 75,
                    "time": 225.5452290000041,
                    "velocity": 0.5826771653543307,
                    "duration": 0.09090900000001056
                },
                {
                    "name": "F5",
                    "midi": 77,
                    "time": 225.6361380000041,
                    "velocity": 0.5826771653543307,
                    "duration": 0.09090900000001056
                },
                {
                    "name": "D#5",
                    "midi": 75,
                    "time": 225.72704700000412,
                    "velocity": 0.5669291338582677,
                    "duration": 0.09090900000001056
                },
                {
                    "name": "D5",
                    "midi": 74,
                    "time": 225.81795600000413,
                    "velocity": 0.5590551181102362,
                    "duration": 0.09090900000001056
                },
                {
                    "name": "C5",
                    "midi": 72,
                    "time": 225.90886500000414,
                    "velocity": 0.5511811023622047,
                    "duration": 0.09090900000001056
                },
                {
                    "name": "A#4",
                    "midi": 70,
                    "time": 225.99977400000415,
                    "velocity": 0.5354330708661418,
                    "duration": 0.09090900000001056
                },
                {
                    "name": "A4",
                    "midi": 69,
                    "time": 226.09068300000416,
                    "velocity": 0.5275590551181102,
                    "duration": 0.09090900000001056
                },
                {
                    "name": "A#4",
                    "midi": 70,
                    "time": 226.18159200000417,
                    "velocity": 0.5433070866141733,
                    "duration": 0.09090900000001056
                },
                {
                    "name": "C5",
                    "midi": 72,
                    "time": 226.27250100000418,
                    "velocity": 0.5590551181102362,
                    "duration": 0.09090900000001056
                },
                {
                    "name": "D5",
                    "midi": 74,
                    "time": 226.3634100000042,
                    "velocity": 0.5669291338582677,
                    "duration": 0.09090900000001056
                },
                {
                    "name": "C5",
                    "midi": 72,
                    "time": 226.4543190000042,
                    "velocity": 0.5511811023622047,
                    "duration": 0.09090900000001056
                },
                {
                    "name": "A#4",
                    "midi": 70,
                    "time": 226.54522800000422,
                    "velocity": 0.5433070866141733,
                    "duration": 0.09090900000001056
                },
                {
                    "name": "G#4",
                    "midi": 68,
                    "time": 226.63613700000423,
                    "velocity": 0.5433070866141733,
                    "duration": 0.09090900000001056
                },
                {
                    "name": "G4",
                    "midi": 67,
                    "time": 226.72704600000424,
                    "velocity": 0.5354330708661418,
                    "duration": 0.09090900000001056
                },
                {
                    "name": "F#4",
                    "midi": 66,
                    "time": 226.81795500000425,
                    "velocity": 0.5275590551181102,
                    "duration": 0.09090900000001056
                },
                {
                    "name": "G4",
                    "midi": 67,
                    "time": 226.90886400000426,
                    "velocity": 0.5275590551181102,
                    "duration": 0.09090900000001056
                },
                {
                    "name": "A4",
                    "midi": 69,
                    "time": 226.99977300000427,
                    "velocity": 0.5511811023622047,
                    "duration": 0.09090900000001056
                },
                {
                    "name": "A#4",
                    "midi": 70,
                    "time": 227.09068200000428,
                    "velocity": 0.5669291338582677,
                    "duration": 0.09090900000001056
                },
                {
                    "name": "A4",
                    "midi": 69,
                    "time": 227.1815910000043,
                    "velocity": 0.5590551181102362,
                    "duration": 0.09090900000001056
                },
                {
                    "name": "G4",
                    "midi": 67,
                    "time": 227.2725000000043,
                    "velocity": 0.5511811023622047,
                    "duration": 0.09090900000001056
                },
                {
                    "name": "F4",
                    "midi": 65,
                    "time": 227.3634090000043,
                    "velocity": 0.5433070866141733,
                    "duration": 0.09090900000001056
                },
                {
                    "name": "D#4",
                    "midi": 63,
                    "time": 227.45431800000432,
                    "velocity": 0.5354330708661418,
                    "duration": 0.09090900000001056
                },
                {
                    "name": "D4",
                    "midi": 62,
                    "time": 227.54522700000433,
                    "velocity": 0.5354330708661418,
                    "duration": 0.09090900000001056
                },
                {
                    "name": "C4",
                    "midi": 60,
                    "time": 227.63613600000434,
                    "velocity": 0.5275590551181102,
                    "duration": 0.09090900000001056
                },
                {
                    "name": "D4",
                    "midi": 62,
                    "time": 227.72704500000435,
                    "velocity": 0.5354330708661418,
                    "duration": 0.09090900000001056
                },
                {
                    "name": "D#4",
                    "midi": 63,
                    "time": 227.81795400000436,
                    "velocity": 0.5433070866141733,
                    "duration": 0.09090900000001056
                },
                {
                    "name": "D4",
                    "midi": 62,
                    "time": 227.90886300000437,
                    "velocity": 0.5354330708661418,
                    "duration": 0.09090900000001056
                },
                {
                    "name": "C4",
                    "midi": 60,
                    "time": 227.99977200000438,
                    "velocity": 0.5196850393700787,
                    "duration": 0.09090900000001056
                },
                {
                    "name": "A#3",
                    "midi": 58,
                    "time": 228.0906810000044,
                    "velocity": 0.5118110236220472,
                    "duration": 0.09090900000001056
                },
                {
                    "name": "A3",
                    "midi": 57,
                    "time": 228.1815900000044,
                    "velocity": 0.49606299212598426,
                    "duration": 0.09090900000001056
                },
                {
                    "name": "G3",
                    "midi": 55,
                    "time": 228.27249900000442,
                    "velocity": 0.48031496062992124,
                    "duration": 0.09090900000001056
                },
                {
                    "name": "F3",
                    "midi": 53,
                    "time": 228.36340800000443,
                    "velocity": 0.47244094488188976,
                    "duration": 0.1818179999999927
                },
                {
                    "name": "G3",
                    "midi": 55,
                    "time": 228.54522600000442,
                    "velocity": 0.4881889763779528,
                    "duration": 0.09090900000001056
                },
                {
                    "name": "A3",
                    "midi": 57,
                    "time": 228.63613500000443,
                    "velocity": 0.5039370078740157,
                    "duration": 0.09090900000001056
                },
                {
                    "name": "A#3",
                    "midi": 58,
                    "time": 228.72704400000444,
                    "velocity": 0.5196850393700787,
                    "duration": 0.09090900000001056
                },
                {
                    "name": "C4",
                    "midi": 60,
                    "time": 228.81795300000445,
                    "velocity": 0.5354330708661418,
                    "duration": 0.09090900000001056
                },
                {
                    "name": "D4",
                    "midi": 62,
                    "time": 228.90886200000446,
                    "velocity": 0.5511811023622047,
                    "duration": 0.09090900000001056
                },
                {
                    "name": "D#4",
                    "midi": 63,
                    "time": 228.99977100000447,
                    "velocity": 0.5433070866141733,
                    "duration": 0.09090900000001056
                },
                {
                    "name": "G4",
                    "midi": 67,
                    "time": 229.09068000000448,
                    "velocity": 0.5669291338582677,
                    "duration": 0.09090900000001056
                },
                {
                    "name": "F4",
                    "midi": 65,
                    "time": 229.1815890000045,
                    "velocity": 0.5590551181102362,
                    "duration": 0.09090900000001056
                },
                {
                    "name": "D#4",
                    "midi": 63,
                    "time": 229.2724980000045,
                    "velocity": 0.5511811023622047,
                    "duration": 0.09090900000001056
                },
                {
                    "name": "D4",
                    "midi": 62,
                    "time": 229.3634070000045,
                    "velocity": 0.5433070866141733,
                    "duration": 0.09090900000001056
                },
                {
                    "name": "D#4",
                    "midi": 63,
                    "time": 229.45431600000452,
                    "velocity": 0.5275590551181102,
                    "duration": 0.09090900000001056
                },
                {
                    "name": "F4",
                    "midi": 65,
                    "time": 229.54522500000454,
                    "velocity": 0.5275590551181102,
                    "duration": 0.09090900000001056
                },
                {
                    "name": "G4",
                    "midi": 67,
                    "time": 229.63613400000455,
                    "velocity": 0.5354330708661418,
                    "duration": 0.09090900000001056
                },
                {
                    "name": "A4",
                    "midi": 69,
                    "time": 229.72704300000456,
                    "velocity": 0.5433070866141733,
                    "duration": 0.09090900000001056
                },
                {
                    "name": "A#4",
                    "midi": 70,
                    "time": 229.81795200000457,
                    "velocity": 0.5590551181102362,
                    "duration": 0.09090900000001056
                },
                {
                    "name": "A4",
                    "midi": 69,
                    "time": 229.90886100000458,
                    "velocity": 0.5590551181102362,
                    "duration": 0.09090900000001056
                },
                {
                    "name": "G4",
                    "midi": 67,
                    "time": 229.9997700000046,
                    "velocity": 0.5511811023622047,
                    "duration": 0.09090900000001056
                },
                {
                    "name": "F4",
                    "midi": 65,
                    "time": 230.0906790000046,
                    "velocity": 0.5433070866141733,
                    "duration": 0.09090900000001056
                },
                {
                    "name": "G4",
                    "midi": 67,
                    "time": 230.1815880000046,
                    "velocity": 0.5354330708661418,
                    "duration": 0.09090900000001056
                },
                {
                    "name": "A4",
                    "midi": 69,
                    "time": 230.27249700000462,
                    "velocity": 0.5433070866141733,
                    "duration": 0.09090900000001056
                },
                {
                    "name": "A#4",
                    "midi": 70,
                    "time": 230.36340600000463,
                    "velocity": 0.5511811023622047,
                    "duration": 0.09090900000001056
                },
                {
                    "name": "C5",
                    "midi": 72,
                    "time": 230.45431500000464,
                    "velocity": 0.5590551181102362,
                    "duration": 0.09090900000001056
                },
                {
                    "name": "D5",
                    "midi": 74,
                    "time": 230.54522400000465,
                    "velocity": 0.5748031496062992,
                    "duration": 0.09090900000001056
                },
                {
                    "name": "C5",
                    "midi": 72,
                    "time": 230.63613300000466,
                    "velocity": 0.5748031496062992,
                    "duration": 0.09090900000001056
                },
                {
                    "name": "A#4",
                    "midi": 70,
                    "time": 230.72704200000467,
                    "velocity": 0.5669291338582677,
                    "duration": 0.09090900000001056
                },
                {
                    "name": "A4",
                    "midi": 69,
                    "time": 230.81795100000468,
                    "velocity": 0.5590551181102362,
                    "duration": 0.09090900000001056
                },
                {
                    "name": "A#4",
                    "midi": 70,
                    "time": 230.9088600000047,
                    "velocity": 0.5511811023622047,
                    "duration": 0.09090900000001056
                },
                {
                    "name": "C5",
                    "midi": 72,
                    "time": 230.9997690000047,
                    "velocity": 0.5590551181102362,
                    "duration": 0.09090900000001056
                },
                {
                    "name": "D5",
                    "midi": 74,
                    "time": 231.09067800000471,
                    "velocity": 0.5748031496062992,
                    "duration": 0.09090900000001056
                },
                {
                    "name": "D#5",
                    "midi": 75,
                    "time": 231.18158700000473,
                    "velocity": 0.5905511811023622,
                    "duration": 0.09090900000001056
                },
                {
                    "name": "F5",
                    "midi": 77,
                    "time": 231.27249600000474,
                    "velocity": 0.5984251968503937,
                    "duration": 0.09090900000001056
                },
                {
                    "name": "D5",
                    "midi": 74,
                    "time": 231.36340500000475,
                    "velocity": 0.5590551181102362,
                    "duration": 0.09090900000001056
                },
                {
                    "name": "F5",
                    "midi": 77,
                    "time": 231.45431400000476,
                    "velocity": 0.5984251968503937,
                    "duration": 0.09090900000001056
                },
                {
                    "name": "D5",
                    "midi": 74,
                    "time": 231.54522300000477,
                    "velocity": 0.5511811023622047,
                    "duration": 0.09090900000001056
                },
                {
                    "name": "A#5",
                    "midi": 82,
                    "time": 231.63613200000478,
                    "velocity": 0.6456692913385826,
                    "duration": 0.09090900000001056
                },
                {
                    "name": "F5",
                    "midi": 77,
                    "time": 231.7270410000048,
                    "velocity": 0.5984251968503937,
                    "duration": 0.09090900000001056
                },
                {
                    "name": "A#5",
                    "midi": 82,
                    "time": 231.8179500000048,
                    "velocity": 0.6456692913385826,
                    "duration": 0.09090900000001056
                },
                {
                    "name": "F5",
                    "midi": 77,
                    "time": 231.9088590000048,
                    "velocity": 0.5984251968503937,
                    "duration": 0.09090900000001056
                },
                {
                    "name": "D6",
                    "midi": 86,
                    "time": 231.99976800000482,
                    "velocity": 0.6929133858267716,
                    "duration": 0.09090900000001056
                },
                {
                    "name": "A#5",
                    "midi": 82,
                    "time": 232.09067700000483,
                    "velocity": 0.6535433070866141,
                    "duration": 0.09090900000001056
                },
                {
                    "name": "D6",
                    "midi": 86,
                    "time": 232.18158600000484,
                    "velocity": 0.6929133858267716,
                    "duration": 0.09090900000001056
                },
                {
                    "name": "A#5",
                    "midi": 82,
                    "time": 232.27249500000485,
                    "velocity": 0.6535433070866141,
                    "duration": 0.09090900000001056
                },
                {
                    "name": "F6",
                    "midi": 89,
                    "time": 232.36340400000486,
                    "velocity": 0.7480314960629921,
                    "duration": 0.09090900000001056
                },
                {
                    "name": "D6",
                    "midi": 86,
                    "time": 232.45431300000487,
                    "velocity": 0.6929133858267716,
                    "duration": 0.09090900000001056
                },
                {
                    "name": "F6",
                    "midi": 89,
                    "time": 232.54522200000488,
                    "velocity": 0.7480314960629921,
                    "duration": 0.09090900000001056
                },
                {
                    "name": "D6",
                    "midi": 86,
                    "time": 232.6361310000049,
                    "velocity": 0.6692913385826772,
                    "duration": 0.09090900000001056
                },
                {
                    "name": "A#5",
                    "midi": 82,
                    "time": 232.7270400000049,
                    "velocity": 0.7322834645669292,
                    "duration": 0.09090900000001056
                },
                {
                    "name": "D6",
                    "midi": 86,
                    "time": 232.81794900000492,
                    "velocity": 0.7007874015748031,
                    "duration": 0.09090900000001056
                },
                {
                    "name": "A#5",
                    "midi": 82,
                    "time": 232.90885800000493,
                    "velocity": 0.7322834645669292,
                    "duration": 0.09090900000001056
                },
                {
                    "name": "D6",
                    "midi": 86,
                    "time": 232.99976700000494,
                    "velocity": 0.6850393700787402,
                    "duration": 0.09090900000001056
                },
                {
                    "name": "F5",
                    "midi": 77,
                    "time": 233.09067600000495,
                    "velocity": 0.7007874015748031,
                    "duration": 0.09090900000001056
                },
                {
                    "name": "A#5",
                    "midi": 82,
                    "time": 233.18158500000496,
                    "velocity": 0.6614173228346457,
                    "duration": 0.09090900000001056
                },
                {
                    "name": "F5",
                    "midi": 77,
                    "time": 233.27249400000497,
                    "velocity": 0.7086614173228346,
                    "duration": 0.09090900000001056
                },
                {
                    "name": "A#5",
                    "midi": 82,
                    "time": 233.36340300000498,
                    "velocity": 0.6614173228346457,
                    "duration": 0.09090900000001056
                },
                {
                    "name": "D5",
                    "midi": 74,
                    "time": 233.454312000005,
                    "velocity": 0.6850393700787402,
                    "duration": 0.09090900000001056
                },
                {
                    "name": "F5",
                    "midi": 77,
                    "time": 233.545221000005,
                    "velocity": 0.6299212598425197,
                    "duration": 0.09090900000001056
                },
                {
                    "name": "D5",
                    "midi": 74,
                    "time": 233.636130000005,
                    "velocity": 0.6850393700787402,
                    "duration": 0.09090900000001056
                },
                {
                    "name": "F5",
                    "midi": 77,
                    "time": 233.72703900000502,
                    "velocity": 0.6299212598425197,
                    "duration": 0.09090900000001056
                },
                {
                    "name": "A#4",
                    "midi": 70,
                    "time": 233.81794800000503,
                    "velocity": 0.6377952755905512,
                    "duration": 0.09090900000001056
                },
                {
                    "name": "D5",
                    "midi": 74,
                    "time": 233.90885700000504,
                    "velocity": 0.5748031496062992,
                    "duration": 0.09090900000001056
                },
                {
                    "name": "A#4",
                    "midi": 70,
                    "time": 233.99976600000505,
                    "velocity": 0.6377952755905512,
                    "duration": 0.09090900000001056
                },
                {
                    "name": "D5",
                    "midi": 74,
                    "time": 234.09067500000506,
                    "velocity": 0.5748031496062992,
                    "duration": 0.09090900000001056
                },
                {
                    "name": "F4",
                    "midi": 65,
                    "time": 234.18158400000507,
                    "velocity": 0.6535433070866141,
                    "duration": 0.1818179999999927
                },
                {
                    "name": "F5",
                    "midi": 77,
                    "time": 234.54522000000506,
                    "velocity": 0.7165354330708661,
                    "duration": 0.5454540000000065
                },
                {
                    "name": "G5",
                    "midi": 79,
                    "time": 235.09067400000507,
                    "velocity": 0.6062992125984252,
                    "duration": 0.09090900000001056
                },
                {
                    "name": "F5",
                    "midi": 77,
                    "time": 235.18158300000508,
                    "velocity": 0.5984251968503937,
                    "duration": 0.09090900000001056
                },
                {
                    "name": "D#5",
                    "midi": 75,
                    "time": 235.2724920000051,
                    "velocity": 0.5984251968503937,
                    "duration": 0.09090900000001056
                },
                {
                    "name": "D5",
                    "midi": 74,
                    "time": 235.3634010000051,
                    "velocity": 0.5905511811023622,
                    "duration": 0.09090900000001056
                },
                {
                    "name": "C5",
                    "midi": 72,
                    "time": 235.4543100000051,
                    "velocity": 0.5826771653543307,
                    "duration": 0.09090900000001056
                },
                {
                    "name": "A#4",
                    "midi": 70,
                    "time": 235.54521900000512,
                    "velocity": 0.5748031496062992,
                    "duration": 0.09090900000001056
                },
                {
                    "name": "A#4",
                    "midi": 70,
                    "time": 235.63612800000513,
                    "velocity": 0.41732283464566927,
                    "duration": 0.06060600000000704
                },
                {
                    "name": "C5",
                    "midi": 72,
                    "time": 235.69673400000514,
                    "velocity": 0.3779527559055118,
                    "duration": 0.06060600000000704
                },
                {
                    "name": "D5",
                    "midi": 74,
                    "time": 235.75734000000514,
                    "velocity": 0.3858267716535433,
                    "duration": 0.06060600000000704
                },
                {
                    "name": "C5",
                    "midi": 72,
                    "time": 235.81794600000515,
                    "velocity": 0.41732283464566927,
                    "duration": 0.06060600000000704
                },
                {
                    "name": "D5",
                    "midi": 74,
                    "time": 235.87855200000516,
                    "velocity": 0.4015748031496063,
                    "duration": 0.06060600000000704
                },
                {
                    "name": "C5",
                    "midi": 72,
                    "time": 235.93915800000516,
                    "velocity": 0.4330708661417323,
                    "duration": 0.06060600000000704
                },
                {
                    "name": "D5",
                    "midi": 74,
                    "time": 235.99976400000517,
                    "velocity": 0.4094488188976378,
                    "duration": 0.06060600000000704
                },
                {
                    "name": "C5",
                    "midi": 72,
                    "time": 236.06037000000518,
                    "velocity": 0.4409448818897638,
                    "duration": 0.06060600000000704
                },
                {
                    "name": "D5",
                    "midi": 74,
                    "time": 236.1209760000052,
                    "velocity": 0.4094488188976378,
                    "duration": 0.06060600000000704
                },
                {
                    "name": "C5",
                    "midi": 72,
                    "time": 236.1815820000052,
                    "velocity": 0.4409448818897638,
                    "duration": 0.06060600000000704
                },
                {
                    "name": "D5",
                    "midi": 74,
                    "time": 236.2421880000052,
                    "velocity": 0.4251968503937008,
                    "duration": 0.06060600000000704
                },
                {
                    "name": "C5",
                    "midi": 72,
                    "time": 236.3027940000052,
                    "velocity": 0.4566929133858268,
                    "duration": 0.06060600000000704
                },
                {
                    "name": "D5",
                    "midi": 74,
                    "time": 236.3634000000052,
                    "velocity": 0.4330708661417323,
                    "duration": 0.06060600000000704
                },
                {
                    "name": "C5",
                    "midi": 72,
                    "time": 236.42400600000522,
                    "velocity": 0.4645669291338583,
                    "duration": 0.06060600000000704
                },
                {
                    "name": "D5",
                    "midi": 74,
                    "time": 236.48461200000523,
                    "velocity": 0.4251968503937008,
                    "duration": 0.06060600000000704
                },
                {
                    "name": "C5",
                    "midi": 72,
                    "time": 236.54521800000524,
                    "velocity": 0.47244094488188976,
                    "duration": 0.06060600000000704
                },
                {
                    "name": "D5",
                    "midi": 74,
                    "time": 236.60582400000524,
                    "velocity": 0.4409448818897638,
                    "duration": 0.06060600000000704
                },
                {
                    "name": "C5",
                    "midi": 72,
                    "time": 236.66643000000525,
                    "velocity": 0.44881889763779526,
                    "duration": 0.06060600000000704
                },
                {
                    "name": "D5",
                    "midi": 74,
                    "time": 236.72703600000526,
                    "velocity": 0.5118110236220472,
                    "duration": 0.09090900000001056
                },
                {
                    "name": "C5",
                    "midi": 72,
                    "time": 236.81794500000527,
                    "velocity": 0.48031496062992124,
                    "duration": 0.09090900000001056
                },
                {
                    "name": "A#4",
                    "midi": 70,
                    "time": 236.90885400000528,
                    "velocity": 0.5275590551181102,
                    "duration": 0.09090900000001056
                },
                {
                    "name": "C5",
                    "midi": 72,
                    "time": 236.9997630000053,
                    "velocity": 0.5039370078740157,
                    "duration": 0.09090900000001056
                },
                {
                    "name": "A#4",
                    "midi": 70,
                    "time": 237.0906720000053,
                    "velocity": 0.5511811023622047,
                    "duration": 0.1818179999999927
                },
                {
                    "name": "A#4",
                    "midi": 70,
                    "time": 237.2724900000053,
                    "velocity": 0.4645669291338583,
                    "duration": 0.1818179999999927
                },
                {
                    "name": "A#4",
                    "midi": 70,
                    "time": 237.63612600000528,
                    "velocity": 0.4409448818897638,
                    "duration": 0.1818179999999927
                },
                {
                    "name": "A#4",
                    "midi": 70,
                    "time": 237.81794400000527,
                    "velocity": 0.44881889763779526,
                    "duration": 0.1818179999999927
                },
                {
                    "name": "A#4",
                    "midi": 70,
                    "time": 237.99976200000526,
                    "velocity": 0.44881889763779526,
                    "duration": 0.1818179999999927
                },
                {
                    "name": "A#4",
                    "midi": 70,
                    "time": 238.36339800000525,
                    "velocity": 0.4409448818897638,
                    "duration": 0.1818179999999927
                },
                {
                    "name": "C5",
                    "midi": 72,
                    "time": 238.54521600000524,
                    "velocity": 0.47244094488188976,
                    "duration": 0.1818179999999927
                },
                {
                    "name": "C5",
                    "midi": 72,
                    "time": 238.72703400000523,
                    "velocity": 0.44881889763779526,
                    "duration": 0.09090900000001056
                },
                {
                    "name": "C5",
                    "midi": 72,
                    "time": 239.09067000000525,
                    "velocity": 0.44881889763779526,
                    "duration": 0.1818179999999927
                },
                {
                    "name": "C5",
                    "midi": 72,
                    "time": 239.27248800000524,
                    "velocity": 0.47244094488188976,
                    "duration": 0.1818179999999927
                },
                {
                    "name": "C5",
                    "midi": 72,
                    "time": 239.45430600000523,
                    "velocity": 0.44881889763779526,
                    "duration": 0.1818179999999927
                },
                {
                    "name": "C5",
                    "midi": 72,
                    "time": 239.81794200000522,
                    "velocity": 0.48031496062992124,
                    "duration": 0.1818179999999927
                },
                {
                    "name": "D5",
                    "midi": 74,
                    "time": 239.9997600000052,
                    "velocity": 0.5118110236220472,
                    "duration": 0.1818179999999927
                },
                {
                    "name": "D5",
                    "midi": 74,
                    "time": 240.1815780000052,
                    "velocity": 0.48031496062992124,
                    "duration": 0.09090900000001056
                },
                {
                    "name": "D5",
                    "midi": 74,
                    "time": 240.54521400000522,
                    "velocity": 0.5511811023622047,
                    "duration": 0.1818179999999927
                },
                {
                    "name": "D#5",
                    "midi": 75,
                    "time": 240.7270320000052,
                    "velocity": 0.5669291338582677,
                    "duration": 0.1818179999999927
                },
                {
                    "name": "D#5",
                    "midi": 75,
                    "time": 240.9088500000052,
                    "velocity": 0.5511811023622047,
                    "duration": 0.09090900000001056
                },
                {
                    "name": "E5",
                    "midi": 76,
                    "time": 241.27248600000522,
                    "velocity": 0.6062992125984252,
                    "duration": 0.1818179999999927
                },
                {
                    "name": "F5",
                    "midi": 77,
                    "time": 241.4543040000052,
                    "velocity": 0.6377952755905512,
                    "duration": 0.1818179999999927
                },
                {
                    "name": "F5",
                    "midi": 77,
                    "time": 241.6361220000052,
                    "velocity": 0.6141732283464567,
                    "duration": 0.09090900000001056
                },
                {
                    "name": "F#5",
                    "midi": 78,
                    "time": 241.99975800000522,
                    "velocity": 0.6692913385826772,
                    "duration": 0.1818179999999927
                },
                {
                    "name": "G5",
                    "midi": 79,
                    "time": 242.1815760000052,
                    "velocity": 0.7244094488188977,
                    "duration": 0.1818179999999927
                },
                {
                    "name": "G5",
                    "midi": 79,
                    "time": 242.3633940000052,
                    "velocity": 0.7244094488188977,
                    "duration": 0.09090900000001056
                },
                {
                    "name": "A5",
                    "midi": 81,
                    "time": 242.54521200000522,
                    "velocity": 0.7559055118110236,
                    "duration": 0.09090900000001056
                },
                {
                    "name": "A5",
                    "midi": 81,
                    "time": 242.72703000000524,
                    "velocity": 0.7559055118110236,
                    "duration": 0.09090900000001056
                },
                {
                    "name": "D5",
                    "midi": 74,
                    "time": 242.90884800000526,
                    "velocity": 0.8582677165354331,
                    "duration": 0.09090900000001056
                },
                {
                    "name": "A#5",
                    "midi": 82,
                    "time": 242.99975700000527,
                    "velocity": 0.7322834645669292,
                    "duration": 0.09090900000001056
                },
                {
                    "name": "D6",
                    "midi": 86,
                    "time": 243.09066600000529,
                    "velocity": 0.8267716535433071,
                    "duration": 0.09090900000001056
                },
                {
                    "name": "A#5",
                    "midi": 82,
                    "time": 243.1815750000053,
                    "velocity": 0.7559055118110236,
                    "duration": 0.09090900000001056
                },
                {
                    "name": "D6",
                    "midi": 86,
                    "time": 243.2724840000053,
                    "velocity": 0.8267716535433071,
                    "duration": 0.09090900000001056
                },
                {
                    "name": "A#5",
                    "midi": 82,
                    "time": 243.36339300000532,
                    "velocity": 0.7559055118110236,
                    "duration": 0.09090900000001056
                },
                {
                    "name": "D6",
                    "midi": 86,
                    "time": 243.45430200000533,
                    "velocity": 0.8110236220472441,
                    "duration": 0.09090900000001056
                },
                {
                    "name": "A#5",
                    "midi": 82,
                    "time": 243.54521100000534,
                    "velocity": 0.7401574803149606,
                    "duration": 0.09090900000001056
                },
                {
                    "name": "D5",
                    "midi": 74,
                    "time": 243.63612000000535,
                    "velocity": 0.8661417322834646,
                    "duration": 0.09090900000001056
                },
                {
                    "name": "A#5",
                    "midi": 82,
                    "time": 243.72702900000536,
                    "velocity": 0.7401574803149606,
                    "duration": 0.09090900000001056
                },
                {
                    "name": "D6",
                    "midi": 86,
                    "time": 243.81793800000537,
                    "velocity": 0.8110236220472441,
                    "duration": 0.09090900000001056
                },
                {
                    "name": "A#5",
                    "midi": 82,
                    "time": 243.90884700000538,
                    "velocity": 0.7874015748031497,
                    "duration": 0.09090900000001056
                },
                {
                    "name": "D6",
                    "midi": 86,
                    "time": 243.9997560000054,
                    "velocity": 0.8267716535433071,
                    "duration": 0.09090900000001056
                },
                {
                    "name": "A#5",
                    "midi": 82,
                    "time": 244.0906650000054,
                    "velocity": 0.7401574803149606,
                    "duration": 0.09090900000001056
                },
                {
                    "name": "D6",
                    "midi": 86,
                    "time": 244.1815740000054,
                    "velocity": 0.7874015748031497,
                    "duration": 0.09090900000001056
                },
                {
                    "name": "A#5",
                    "midi": 82,
                    "time": 244.27248300000542,
                    "velocity": 0.7480314960629921,
                    "duration": 0.09090900000001056
                },
                {
                    "name": "D5",
                    "midi": 74,
                    "time": 244.36339200000543,
                    "velocity": 0.8582677165354331,
                    "duration": 0.09090900000001056
                },
                {
                    "name": "A#5",
                    "midi": 82,
                    "time": 244.45430100000544,
                    "velocity": 0.7480314960629921,
                    "duration": 0.09090900000001056
                },
                {
                    "name": "D6",
                    "midi": 86,
                    "time": 244.54521000000545,
                    "velocity": 0.7874015748031497,
                    "duration": 0.09090900000001056
                },
                {
                    "name": "A#5",
                    "midi": 82,
                    "time": 244.63611900000546,
                    "velocity": 0.7322834645669292,
                    "duration": 0.09090900000001056
                },
                {
                    "name": "D6",
                    "midi": 86,
                    "time": 244.72702800000548,
                    "velocity": 0.8267716535433071,
                    "duration": 0.09090900000001056
                },
                {
                    "name": "A#5",
                    "midi": 82,
                    "time": 244.8179370000055,
                    "velocity": 0.7480314960629921,
                    "duration": 0.09090900000001056
                },
                {
                    "name": "D6",
                    "midi": 86,
                    "time": 244.9088460000055,
                    "velocity": 0.7874015748031497,
                    "duration": 0.09090900000001056
                },
                {
                    "name": "A#5",
                    "midi": 82,
                    "time": 244.9997550000055,
                    "velocity": 0.7322834645669292,
                    "duration": 0.09090900000001056
                },
                {
                    "name": "D5",
                    "midi": 74,
                    "time": 245.09066400000552,
                    "velocity": 0.8582677165354331,
                    "duration": 0.09090900000001056
                },
                {
                    "name": "A#5",
                    "midi": 82,
                    "time": 245.18157300000553,
                    "velocity": 0.7480314960629921,
                    "duration": 0.09090900000001056
                },
                {
                    "name": "D6",
                    "midi": 86,
                    "time": 245.27248200000554,
                    "velocity": 0.7952755905511811,
                    "duration": 0.09090900000001056
                },
                {
                    "name": "A#5",
                    "midi": 82,
                    "time": 245.36339100000555,
                    "velocity": 0.7401574803149606,
                    "duration": 0.09090900000001056
                },
                {
                    "name": "D6",
                    "midi": 86,
                    "time": 245.45430000000556,
                    "velocity": 0.8267716535433071,
                    "duration": 0.09090900000001056
                },
                {
                    "name": "A#5",
                    "midi": 82,
                    "time": 245.54520900000557,
                    "velocity": 0.7559055118110236,
                    "duration": 0.09090900000001056
                },
                {
                    "name": "D6",
                    "midi": 86,
                    "time": 245.63611800000558,
                    "velocity": 0.7874015748031497,
                    "duration": 0.09090900000001056
                },
                {
                    "name": "A#5",
                    "midi": 82,
                    "time": 245.7270270000056,
                    "velocity": 0.7322834645669292,
                    "duration": 0.09090900000001056
                },
                {
                    "name": "D5",
                    "midi": 74,
                    "time": 245.8179360000056,
                    "velocity": 0.8582677165354331,
                    "duration": 0.09090900000001056
                },
                {
                    "name": "A#5",
                    "midi": 82,
                    "time": 245.9088450000056,
                    "velocity": 0.7480314960629921,
                    "duration": 0.09090900000001056
                },
                {
                    "name": "D6",
                    "midi": 86,
                    "time": 245.99975400000562,
                    "velocity": 0.7874015748031497,
                    "duration": 0.09090900000001056
                },
                {
                    "name": "A#5",
                    "midi": 82,
                    "time": 246.09066300000563,
                    "velocity": 0.7480314960629921,
                    "duration": 0.09090900000001056
                },
                {
                    "name": "D6",
                    "midi": 86,
                    "time": 246.18157200000564,
                    "velocity": 0.8188976377952756,
                    "duration": 0.09090900000001056
                },
                {
                    "name": "A#5",
                    "midi": 82,
                    "time": 246.27248100000566,
                    "velocity": 0.7401574803149606,
                    "duration": 0.09090900000001056
                },
                {
                    "name": "D6",
                    "midi": 86,
                    "time": 246.36339000000567,
                    "velocity": 0.7952755905511811,
                    "duration": 0.09090900000001056
                },
                {
                    "name": "A#5",
                    "midi": 82,
                    "time": 246.45429900000568,
                    "velocity": 0.7322834645669292,
                    "duration": 0.09090900000001056
                },
                {
                    "name": "D5",
                    "midi": 74,
                    "time": 246.5452080000057,
                    "velocity": 0.8582677165354331,
                    "duration": 0.09090900000001056
                },
                {
                    "name": "A#5",
                    "midi": 82,
                    "time": 246.6361170000057,
                    "velocity": 0.7480314960629921,
                    "duration": 0.09090900000001056
                },
                {
                    "name": "D6",
                    "midi": 86,
                    "time": 246.7270260000057,
                    "velocity": 0.7874015748031497,
                    "duration": 0.09090900000001056
                },
                {
                    "name": "A#5",
                    "midi": 82,
                    "time": 246.81793500000572,
                    "velocity": 0.7480314960629921,
                    "duration": 0.09090900000001056
                },
                {
                    "name": "D6",
                    "midi": 86,
                    "time": 246.90884400000573,
                    "velocity": 0.8188976377952756,
                    "duration": 0.09090900000001056
                },
                {
                    "name": "A#5",
                    "midi": 82,
                    "time": 246.99975300000574,
                    "velocity": 0.7480314960629921,
                    "duration": 0.09090900000001056
                },
                {
                    "name": "D6",
                    "midi": 86,
                    "time": 247.09066200000575,
                    "velocity": 0.7874015748031497,
                    "duration": 0.09090900000001056
                },
                {
                    "name": "A#5",
                    "midi": 82,
                    "time": 247.18157100000576,
                    "velocity": 0.7480314960629921,
                    "duration": 0.09090900000001056
                },
                {
                    "name": "A#5",
                    "midi": 82,
                    "time": 247.27248000000577,
                    "velocity": 0.7795275590551181,
                    "duration": 0.36363600000001384
                },
                {
                    "name": "D6",
                    "midi": 86,
                    "time": 247.27248000000577,
                    "velocity": 0.7795275590551181,
                    "duration": 0.7272720000000277
                },
                {
                    "name": "D5",
                    "midi": 74,
                    "time": 247.27248000000577,
                    "velocity": 0.7795275590551181,
                    "duration": 0.36363600000001384
                },
                {
                    "name": "F5",
                    "midi": 77,
                    "time": 247.27248000000577,
                    "velocity": 0.7795275590551181,
                    "duration": 0.36363600000001384
                },
                {
                    "name": "F4",
                    "midi": 65,
                    "time": 248.1815700000058,
                    "velocity": 0.44881889763779526,
                    "duration": 0.09090900000001056
                },
                {
                    "name": "A4",
                    "midi": 69,
                    "time": 248.2724790000058,
                    "velocity": 0.4645669291338583,
                    "duration": 0.09090900000001056
                },
                {
                    "name": "G4",
                    "midi": 67,
                    "time": 248.3633880000058,
                    "velocity": 0.48031496062992124,
                    "duration": 0.09090900000001056
                },
                {
                    "name": "A#4",
                    "midi": 70,
                    "time": 248.45429700000582,
                    "velocity": 0.4881889763779528,
                    "duration": 0.09090900000001056
                },
                {
                    "name": "A4",
                    "midi": 69,
                    "time": 248.54520600000583,
                    "velocity": 0.5039370078740157,
                    "duration": 0.09090900000001056
                },
                {
                    "name": "C5",
                    "midi": 72,
                    "time": 248.63611500000584,
                    "velocity": 0.5196850393700787,
                    "duration": 0.09090900000001056
                },
                {
                    "name": "A#4",
                    "midi": 70,
                    "time": 248.72702400000585,
                    "velocity": 0.5354330708661418,
                    "duration": 0.09090900000001056
                },
                {
                    "name": "A4",
                    "midi": 69,
                    "time": 248.90884200000588,
                    "velocity": 0.4251968503937008,
                    "duration": 0.09090900000001056
                },
                {
                    "name": "C5",
                    "midi": 72,
                    "time": 248.9997510000059,
                    "velocity": 0.4409448818897638,
                    "duration": 0.09090900000001056
                },
                {
                    "name": "A#4",
                    "midi": 70,
                    "time": 249.0906600000059,
                    "velocity": 0.4566929133858268,
                    "duration": 0.09090900000001056
                },
                {
                    "name": "D5",
                    "midi": 74,
                    "time": 249.1815690000059,
                    "velocity": 0.47244094488188976,
                    "duration": 0.09090900000001056
                },
                {
                    "name": "C5",
                    "midi": 72,
                    "time": 249.27247800000592,
                    "velocity": 0.48031496062992124,
                    "duration": 0.09090900000001056
                },
                {
                    "name": "D#5",
                    "midi": 75,
                    "time": 249.36338700000593,
                    "velocity": 0.49606299212598426,
                    "duration": 0.09090900000001056
                },
                {
                    "name": "D5",
                    "midi": 74,
                    "time": 249.45429600000594,
                    "velocity": 0.5118110236220472,
                    "duration": 0.09090900000001056
                },
                {
                    "name": "C5",
                    "midi": 72,
                    "time": 249.63611400000596,
                    "velocity": 0.4409448818897638,
                    "duration": 0.09090900000001056
                },
                {
                    "name": "D#5",
                    "midi": 75,
                    "time": 249.72702300000597,
                    "velocity": 0.4566929133858268,
                    "duration": 0.09090900000001056
                },
                {
                    "name": "D5",
                    "midi": 74,
                    "time": 249.81793200000598,
                    "velocity": 0.4645669291338583,
                    "duration": 0.09090900000001056
                },
                {
                    "name": "F5",
                    "midi": 77,
                    "time": 249.908841000006,
                    "velocity": 0.47244094488188976,
                    "duration": 0.09090900000001056
                },
                {
                    "name": "D#5",
                    "midi": 75,
                    "time": 249.999750000006,
                    "velocity": 0.4881889763779528,
                    "duration": 0.09090900000001056
                },
                {
                    "name": "G5",
                    "midi": 79,
                    "time": 250.090659000006,
                    "velocity": 0.49606299212598426,
                    "duration": 0.09090900000001056
                },
                {
                    "name": "F5",
                    "midi": 77,
                    "time": 250.18232557500602,
                    "velocity": 0.5433070866141733,
                    "duration": 0.5454540000000065
                },
                {
                    "name": "D5",
                    "midi": 74,
                    "time": 250.72702200000603,
                    "velocity": 0.5196850393700787,
                    "duration": 0.1818179999999927
                },
                {
                    "name": "A#4",
                    "midi": 70,
                    "time": 250.90884000000602,
                    "velocity": 0.5511811023622047,
                    "duration": 0.1818179999999927
                },
                {
                    "name": "A#4",
                    "midi": 70,
                    "time": 251.272476000006,
                    "velocity": 0.5511811023622047,
                    "duration": 0.1818179999999927
                },
                {
                    "name": "D#5",
                    "midi": 75,
                    "time": 251.636112000006,
                    "velocity": 0.5984251968503937,
                    "duration": 0.07272720000000277
                },
                {
                    "name": "F5",
                    "midi": 77,
                    "time": 251.708839200006,
                    "velocity": 0.4251968503937008,
                    "duration": 0.07272720000000277
                },
                {
                    "name": "D#5",
                    "midi": 75,
                    "time": 251.781566400006,
                    "velocity": 0.4251968503937008,
                    "duration": 0.07272720000000277
                },
                {
                    "name": "D5",
                    "midi": 74,
                    "time": 251.854293600006,
                    "velocity": 0.4251968503937008,
                    "duration": 0.07272720000000277
                },
                {
                    "name": "D#5",
                    "midi": 75,
                    "time": 251.927020800006,
                    "velocity": 0.4251968503937008,
                    "duration": 0.07272720000000277
                },
                {
                    "name": "G5",
                    "midi": 79,
                    "time": 251.999748000006,
                    "velocity": 0.5511811023622047,
                    "duration": 0.36363600000001384
                },
                {
                    "name": "A4",
                    "midi": 69,
                    "time": 252.36338400000602,
                    "velocity": 0.5669291338582677,
                    "duration": 0.36363600000001384
                },
                {
                    "name": "F5",
                    "midi": 77,
                    "time": 253.09141357500604,
                    "velocity": 0.5354330708661418,
                    "duration": 0.5454540000000065
                },
                {
                    "name": "C#5",
                    "midi": 73,
                    "time": 253.63611000000606,
                    "velocity": 0.4645669291338583,
                    "duration": 0.1818179999999927
                },
                {
                    "name": "A#4",
                    "midi": 70,
                    "time": 253.81792800000605,
                    "velocity": 0.49606299212598426,
                    "duration": 0.1818179999999927
                },
                {
                    "name": "A#4",
                    "midi": 70,
                    "time": 254.18156400000603,
                    "velocity": 0.49606299212598426,
                    "duration": 0.1818179999999927
                },
                {
                    "name": "D#5",
                    "midi": 75,
                    "time": 254.54520000000602,
                    "velocity": 0.5354330708661418,
                    "duration": 0.07272720000000277
                },
                {
                    "name": "F5",
                    "midi": 77,
                    "time": 254.61792720000602,
                    "velocity": 0.3779527559055118,
                    "duration": 0.07272720000000277
                },
                {
                    "name": "D#5",
                    "midi": 75,
                    "time": 254.69065440000603,
                    "velocity": 0.3779527559055118,
                    "duration": 0.07272720000000277
                },
                {
                    "name": "D5",
                    "midi": 74,
                    "time": 254.76338160000603,
                    "velocity": 0.3779527559055118,
                    "duration": 0.07272720000000277
                },
                {
                    "name": "D#5",
                    "midi": 75,
                    "time": 254.83610880000603,
                    "velocity": 0.3779527559055118,
                    "duration": 0.07272720000000277
                },
                {
                    "name": "F#5",
                    "midi": 78,
                    "time": 254.90883600000603,
                    "velocity": 0.49606299212598426,
                    "duration": 0.36363600000001384
                },
                {
                    "name": "A4",
                    "midi": 69,
                    "time": 255.27247200000605,
                    "velocity": 0.5039370078740157,
                    "duration": 0.36363600000001384
                },
                {
                    "name": "A#4",
                    "midi": 70,
                    "time": 255.99974400000607,
                    "velocity": 0.5984251968503937,
                    "duration": 0.09090899999998214
                },
                {
                    "name": "A#5",
                    "midi": 82,
                    "time": 256.18156200000607,
                    "velocity": 0.6220472440944882,
                    "duration": 0.18181800000002113
                },
                {
                    "name": "C6",
                    "midi": 84,
                    "time": 256.3633800000061,
                    "velocity": 0.6377952755905512,
                    "duration": 0.18181800000002113
                },
                {
                    "name": "C#6",
                    "midi": 85,
                    "time": 256.5451980000061,
                    "velocity": 0.6062992125984252,
                    "duration": 0.18181800000002113
                },
                {
                    "name": "C6",
                    "midi": 84,
                    "time": 256.72701600000613,
                    "velocity": 0.6614173228346457,
                    "duration": 0.18181800000002113
                },
                {
                    "name": "A#5",
                    "midi": 82,
                    "time": 256.90883400000615,
                    "velocity": 0.6062992125984252,
                    "duration": 0.18181800000002113
                },
                {
                    "name": "G#5",
                    "midi": 80,
                    "time": 257.0906520000062,
                    "velocity": 0.6220472440944882,
                    "duration": 0.18181800000002113
                },
                {
                    "name": "F#5",
                    "midi": 78,
                    "time": 257.2724700000062,
                    "velocity": 0.6141732283464567,
                    "duration": 0.18181800000002113
                },
                {
                    "name": "F5",
                    "midi": 77,
                    "time": 257.4542880000062,
                    "velocity": 0.5984251968503937,
                    "duration": 0.7272720000000277
                },
                {
                    "name": "E5",
                    "midi": 76,
                    "time": 258.18156000000624,
                    "velocity": 0.5669291338582677,
                    "duration": 0.7272720000000277
                },
                {
                    "name": "F5",
                    "midi": 77,
                    "time": 258.90883200000627,
                    "velocity": 0.6771653543307087,
                    "duration": 0.09090900000001056
                },
                {
                    "name": "F5",
                    "midi": 77,
                    "time": 259.0906500000063,
                    "velocity": 0.6771653543307087,
                    "duration": 0.09090900000001056
                },
                {
                    "name": "F5",
                    "midi": 77,
                    "time": 259.4542860000063,
                    "velocity": 0.47244094488188976,
                    "duration": 0.09090900000001056
                },
                {
                    "name": "F5",
                    "midi": 77,
                    "time": 259.6361040000063,
                    "velocity": 0.5118110236220472,
                    "duration": 0.09090900000001056
                },
                {
                    "name": "F5",
                    "midi": 77,
                    "time": 259.8179220000063,
                    "velocity": 0.47244094488188976,
                    "duration": 0.09090900000001056
                },
                {
                    "name": "F5",
                    "midi": 77,
                    "time": 260.1815580000063,
                    "velocity": 0.47244094488188976,
                    "duration": 0.09090900000001056
                },
                {
                    "name": "F5",
                    "midi": 77,
                    "time": 260.3633760000063,
                    "velocity": 0.5118110236220472,
                    "duration": 0.09090900000001056
                },
                {
                    "name": "F5",
                    "midi": 77,
                    "time": 260.54519400000635,
                    "velocity": 0.47244094488188976,
                    "duration": 0.09090900000001056
                },
                {
                    "name": "F5",
                    "midi": 77,
                    "time": 260.90883000000633,
                    "velocity": 0.5039370078740157,
                    "duration": 0.09090900000001056
                },
                {
                    "name": "F5",
                    "midi": 77,
                    "time": 261.09064800000635,
                    "velocity": 0.5196850393700787,
                    "duration": 0.09090900000001056
                },
                {
                    "name": "F5",
                    "midi": 77,
                    "time": 261.2724660000064,
                    "velocity": 0.5039370078740157,
                    "duration": 0.09090900000001056
                },
                {
                    "name": "F5",
                    "midi": 77,
                    "time": 261.63610200000636,
                    "velocity": 0.5433070866141733,
                    "duration": 0.09090900000001056
                },
                {
                    "name": "F5",
                    "midi": 77,
                    "time": 261.8179200000064,
                    "velocity": 0.5669291338582677,
                    "duration": 0.09090900000001056
                },
                {
                    "name": "F5",
                    "midi": 77,
                    "time": 261.9997380000064,
                    "velocity": 0.5669291338582677,
                    "duration": 0.09090900000001056
                },
                {
                    "name": "F5",
                    "midi": 77,
                    "time": 262.3633740000064,
                    "velocity": 0.6220472440944882,
                    "duration": 0.09090900000001056
                },
                {
                    "name": "F5",
                    "midi": 77,
                    "time": 262.5451920000064,
                    "velocity": 0.6456692913385826,
                    "duration": 0.09090900000001056
                },
                {
                    "name": "F5",
                    "midi": 77,
                    "time": 262.72701000000643,
                    "velocity": 0.6614173228346457,
                    "duration": 0.09090900000001056
                },
                {
                    "name": "F5",
                    "midi": 77,
                    "time": 263.0906460000064,
                    "velocity": 0.6771653543307087,
                    "duration": 0.09090900000001056
                },
                {
                    "name": "F5",
                    "midi": 77,
                    "time": 263.27246400000644,
                    "velocity": 0.6771653543307087,
                    "duration": 0.18181800000002113
                },
                {
                    "name": "A5",
                    "midi": 81,
                    "time": 263.45428200000646,
                    "velocity": 0.6377952755905512,
                    "duration": 0.09090900000001056
                },
                {
                    "name": "A5",
                    "midi": 81,
                    "time": 263.6361000000065,
                    "velocity": 0.6771653543307087,
                    "duration": 0.18181800000002113
                },
                {
                    "name": "C6",
                    "midi": 84,
                    "time": 263.8179180000065,
                    "velocity": 0.6377952755905512,
                    "duration": 0.09090900000001056
                },
                {
                    "name": "C6",
                    "midi": 84,
                    "time": 263.9997360000065,
                    "velocity": 0.6771653543307087,
                    "duration": 0.18181800000002113
                },
                {
                    "name": "D#6",
                    "midi": 87,
                    "time": 264.18155400000654,
                    "velocity": 0.6377952755905512,
                    "duration": 0.09090900000001056
                },
                {
                    "name": "D#6",
                    "midi": 87,
                    "time": 264.36337200000656,
                    "velocity": 0.6771653543307087,
                    "duration": 0.18181800000002113
                },
                {
                    "name": "C6",
                    "midi": 84,
                    "time": 264.5451900000066,
                    "velocity": 0.5905511811023622,
                    "duration": 0.09090900000001056
                },
                {
                    "name": "C6",
                    "midi": 84,
                    "time": 264.7270080000066,
                    "velocity": 0.6377952755905512,
                    "duration": 0.18181800000002113
                },
                {
                    "name": "A5",
                    "midi": 81,
                    "time": 264.9088260000066,
                    "velocity": 0.5748031496062992,
                    "duration": 0.09090900000001056
                },
                {
                    "name": "A5",
                    "midi": 81,
                    "time": 265.09064400000665,
                    "velocity": 0.6220472440944882,
                    "duration": 0.18181800000002113
                },
                {
                    "name": "F5",
                    "midi": 77,
                    "time": 265.27246200000667,
                    "velocity": 0.5590551181102362,
                    "duration": 0.09090900000001056
                },
                {
                    "name": "F5",
                    "midi": 77,
                    "time": 265.4542800000067,
                    "velocity": 0.5354330708661418,
                    "duration": 0.18181800000002113
                },
                {
                    "name": "E5",
                    "midi": 76,
                    "time": 265.6360980000067,
                    "velocity": 0.44881889763779526,
                    "duration": 0.09090900000001056
                },
                {
                    "name": "E5",
                    "midi": 76,
                    "time": 265.81791600000673,
                    "velocity": 0.47244094488188976,
                    "duration": 0.18181800000002113
                },
                {
                    "name": "F5",
                    "midi": 77,
                    "time": 265.99973400000675,
                    "velocity": 0.44881889763779526,
                    "duration": 0.09090900000001056
                },
                {
                    "name": "F5",
                    "midi": 77,
                    "time": 266.1815520000068,
                    "velocity": 0.44881889763779526,
                    "duration": 0.18181800000002113
                },
                {
                    "name": "E5",
                    "midi": 76,
                    "time": 266.3633700000068,
                    "velocity": 0.4409448818897638,
                    "duration": 0.18181800000002113
                },
                {
                    "name": "D#5",
                    "midi": 75,
                    "time": 266.5451880000068,
                    "velocity": 0.4251968503937008,
                    "duration": 0.7272720000000277
                },
                {
                    "name": "D#5",
                    "midi": 75,
                    "time": 267.27246000000684,
                    "velocity": 0.5196850393700787,
                    "duration": 0.7272720000000277
                },
                {
                    "name": "D#5",
                    "midi": 75,
                    "time": 267.9997320000069,
                    "velocity": 0.5354330708661418,
                    "duration": 0.27272699999997485
                },
                {
                    "name": "D#5",
                    "midi": 75,
                    "time": 268.36336800000686,
                    "velocity": 0.5511811023622047,
                    "duration": 0.27272699999997485
                },
                {
                    "name": "D#5",
                    "midi": 75,
                    "time": 268.72700400000684,
                    "velocity": 0.5984251968503937,
                    "duration": 0.27272699999997485
                },
                {
                    "name": "D5",
                    "midi": 74,
                    "time": 269.09064000000683,
                    "velocity": 0.6614173228346457,
                    "duration": 0.3636359999999854
                },
                {
                    "name": "G#4",
                    "midi": 68,
                    "time": 269.4542760000068,
                    "velocity": 0.4566929133858268,
                    "duration": 0.3636359999999854
                },
                {
                    "name": "F5",
                    "midi": 77,
                    "time": 269.4542760000068,
                    "velocity": 0.4566929133858268,
                    "duration": 0.3636359999999854
                },
                {
                    "name": "D#5",
                    "midi": 75,
                    "time": 269.8179120000068,
                    "velocity": 0.4251968503937008,
                    "duration": 0.3636359999999854
                },
                {
                    "name": "G4",
                    "midi": 67,
                    "time": 269.8179120000068,
                    "velocity": 0.4251968503937008,
                    "duration": 0.3636359999999854
                },
                {
                    "name": "F#4",
                    "midi": 66,
                    "time": 270.1815480000068,
                    "velocity": 0.3779527559055118,
                    "duration": 0.3636359999999854
                },
                {
                    "name": "D5",
                    "midi": 74,
                    "time": 270.1815480000068,
                    "velocity": 0.3779527559055118,
                    "duration": 0.3636359999999854
                },
                {
                    "name": "G4",
                    "midi": 67,
                    "time": 270.54518400000677,
                    "velocity": 0.3779527559055118,
                    "duration": 0.3636359999999854
                },
                {
                    "name": "D#5",
                    "midi": 75,
                    "time": 270.54518400000677,
                    "velocity": 0.3779527559055118,
                    "duration": 0.3636359999999854
                },
                {
                    "name": "G5",
                    "midi": 79,
                    "time": 270.90882000000676,
                    "velocity": 0.4409448818897638,
                    "duration": 0.3636359999999854
                },
                {
                    "name": "A#4",
                    "midi": 70,
                    "time": 270.90882000000676,
                    "velocity": 0.4409448818897638,
                    "duration": 0.3636359999999854
                },
                {
                    "name": "F5",
                    "midi": 77,
                    "time": 271.27245600000674,
                    "velocity": 0.4251968503937008,
                    "duration": 0.3636359999999854
                },
                {
                    "name": "G#4",
                    "midi": 68,
                    "time": 271.27245600000674,
                    "velocity": 0.4251968503937008,
                    "duration": 0.3636359999999854
                },
                {
                    "name": "E5",
                    "midi": 76,
                    "time": 271.6360920000067,
                    "velocity": 0.4015748031496063,
                    "duration": 0.3636359999999854
                },
                {
                    "name": "G4",
                    "midi": 67,
                    "time": 271.6360920000067,
                    "velocity": 0.4015748031496063,
                    "duration": 0.3636359999999854
                },
                {
                    "name": "G#4",
                    "midi": 68,
                    "time": 271.9997280000067,
                    "velocity": 0.4409448818897638,
                    "duration": 0.3636359999999854
                },
                {
                    "name": "F5",
                    "midi": 77,
                    "time": 271.9997280000067,
                    "velocity": 0.4409448818897638,
                    "duration": 0.3636359999999854
                },
                {
                    "name": "G#5",
                    "midi": 80,
                    "time": 272.3633640000067,
                    "velocity": 0.49606299212598426,
                    "duration": 0.3636359999999854
                },
                {
                    "name": "F5",
                    "midi": 77,
                    "time": 272.3633640000067,
                    "velocity": 0.49606299212598426,
                    "duration": 0.3636359999999854
                },
                {
                    "name": "G5",
                    "midi": 79,
                    "time": 272.7270000000067,
                    "velocity": 0.5433070866141733,
                    "duration": 0.3636359999999854
                },
                {
                    "name": "D#5",
                    "midi": 75,
                    "time": 272.7270000000067,
                    "velocity": 0.5433070866141733,
                    "duration": 0.3636359999999854
                },
                {
                    "name": "F5",
                    "midi": 77,
                    "time": 273.09063600000667,
                    "velocity": 0.6141732283464567,
                    "duration": 0.3636359999999854
                },
                {
                    "name": "D5",
                    "midi": 74,
                    "time": 273.09063600000667,
                    "velocity": 0.6141732283464567,
                    "duration": 0.3636359999999854
                },
                {
                    "name": "G5",
                    "midi": 79,
                    "time": 273.45427200000665,
                    "velocity": 0.6141732283464567,
                    "duration": 0.09090900000001056
                },
                {
                    "name": "D5",
                    "midi": 74,
                    "time": 273.45427200000665,
                    "velocity": 0.5196850393700787,
                    "duration": 0.09090900000001056
                },
                {
                    "name": "F5",
                    "midi": 77,
                    "time": 273.45427200000665,
                    "velocity": 0.6141732283464567,
                    "duration": 0.09090900000001056
                },
                {
                    "name": "G5",
                    "midi": 79,
                    "time": 273.6360900000067,
                    "velocity": 0.6141732283464567,
                    "duration": 0.09090900000001056
                },
                {
                    "name": "D5",
                    "midi": 74,
                    "time": 273.6360900000067,
                    "velocity": 0.5196850393700787,
                    "duration": 0.09090900000001056
                },
                {
                    "name": "F5",
                    "midi": 77,
                    "time": 273.6360900000067,
                    "velocity": 0.6141732283464567,
                    "duration": 0.09090900000001056
                },
                {
                    "name": "D5",
                    "midi": 74,
                    "time": 273.99972600000666,
                    "velocity": 0.5196850393700787,
                    "duration": 0.18181800000002113
                },
                {
                    "name": "F5",
                    "midi": 77,
                    "time": 273.99972600000666,
                    "velocity": 0.6141732283464567,
                    "duration": 0.18181800000002113
                },
                {
                    "name": "G5",
                    "midi": 79,
                    "time": 273.99972600000666,
                    "velocity": 0.6141732283464567,
                    "duration": 0.18181800000002113
                },
                {
                    "name": "D#5",
                    "midi": 75,
                    "time": 274.1815440000067,
                    "velocity": 0.5433070866141733,
                    "duration": 0.09090900000001056
                },
                {
                    "name": "G5",
                    "midi": 79,
                    "time": 274.1815440000067,
                    "velocity": 0.5433070866141733,
                    "duration": 0.09090900000001056
                },
                {
                    "name": "D#6",
                    "midi": 87,
                    "time": 274.1815440000067,
                    "velocity": 0.6456692913385826,
                    "duration": 0.09090900000001056
                },
                {
                    "name": "G5",
                    "midi": 79,
                    "time": 274.3633620000067,
                    "velocity": 0.5196850393700787,
                    "duration": 0.09090900000001056
                },
                {
                    "name": "D#6",
                    "midi": 87,
                    "time": 274.3633620000067,
                    "velocity": 0.6141732283464567,
                    "duration": 0.09090900000001056
                },
                {
                    "name": "D#5",
                    "midi": 75,
                    "time": 274.3633620000067,
                    "velocity": 0.5196850393700787,
                    "duration": 0.09090900000001056
                },
                {
                    "name": "G5",
                    "midi": 79,
                    "time": 274.7269980000067,
                    "velocity": 0.5905511811023622,
                    "duration": 0.18181800000002113
                },
                {
                    "name": "C5",
                    "midi": 72,
                    "time": 274.7269980000067,
                    "velocity": 0.49606299212598426,
                    "duration": 0.18181800000002113
                },
                {
                    "name": "D#5",
                    "midi": 75,
                    "time": 274.7269980000067,
                    "velocity": 0.49606299212598426,
                    "duration": 0.18181800000002113
                },
                {
                    "name": "D#5",
                    "midi": 75,
                    "time": 274.9088160000067,
                    "velocity": 0.6141732283464567,
                    "duration": 0.09090900000001056
                },
                {
                    "name": "C5",
                    "midi": 72,
                    "time": 274.9088160000067,
                    "velocity": 0.5196850393700787,
                    "duration": 0.09090900000001056
                },
                {
                    "name": "F5",
                    "midi": 77,
                    "time": 274.9088160000067,
                    "velocity": 0.6141732283464567,
                    "duration": 0.09090900000001056
                },
                {
                    "name": "C5",
                    "midi": 72,
                    "time": 275.09063400000673,
                    "velocity": 0.49606299212598426,
                    "duration": 0.09090900000001056
                },
                {
                    "name": "D#5",
                    "midi": 75,
                    "time": 275.09063400000673,
                    "velocity": 0.5905511811023622,
                    "duration": 0.09090900000001056
                },
                {
                    "name": "F5",
                    "midi": 77,
                    "time": 275.09063400000673,
                    "velocity": 0.5905511811023622,
                    "duration": 0.09090900000001056
                },
                {
                    "name": "D#5",
                    "midi": 75,
                    "time": 275.4542700000067,
                    "velocity": 0.6456692913385826,
                    "duration": 0.18181800000002113
                },
                {
                    "name": "C5",
                    "midi": 72,
                    "time": 275.4542700000067,
                    "velocity": 0.5433070866141733,
                    "duration": 0.18181800000002113
                },
                {
                    "name": "F5",
                    "midi": 77,
                    "time": 275.4542700000067,
                    "velocity": 0.6456692913385826,
                    "duration": 0.18181800000002113
                },
                {
                    "name": "D5",
                    "midi": 74,
                    "time": 275.63608800000674,
                    "velocity": 0.5748031496062992,
                    "duration": 0.09090900000001056
                },
                {
                    "name": "F5",
                    "midi": 77,
                    "time": 275.63608800000674,
                    "velocity": 0.5748031496062992,
                    "duration": 0.09090900000001056
                },
                {
                    "name": "D6",
                    "midi": 86,
                    "time": 275.63608800000674,
                    "velocity": 0.6771653543307087,
                    "duration": 0.09090900000001056
                },
                {
                    "name": "D5",
                    "midi": 74,
                    "time": 275.81790600000676,
                    "velocity": 0.5354330708661418,
                    "duration": 0.09090900000001056
                },
                {
                    "name": "F5",
                    "midi": 77,
                    "time": 275.81790600000676,
                    "velocity": 0.5354330708661418,
                    "duration": 0.09090900000001056
                },
                {
                    "name": "D6",
                    "midi": 86,
                    "time": 275.81790600000676,
                    "velocity": 0.6377952755905512,
                    "duration": 0.09090900000001056
                },
                {
                    "name": "A#4",
                    "midi": 70,
                    "time": 276.18154200000674,
                    "velocity": 0.49606299212598426,
                    "duration": 0.18181800000002113
                },
                {
                    "name": "F5",
                    "midi": 77,
                    "time": 276.18154200000674,
                    "velocity": 0.5905511811023622,
                    "duration": 0.18181800000002113
                },
                {
                    "name": "D5",
                    "midi": 74,
                    "time": 276.18154200000674,
                    "velocity": 0.49606299212598426,
                    "duration": 0.18181800000002113
                },
                {
                    "name": "D5",
                    "midi": 74,
                    "time": 276.36336000000676,
                    "velocity": 0.6141732283464567,
                    "duration": 0.09090900000001056
                },
                {
                    "name": "A#4",
                    "midi": 70,
                    "time": 276.36336000000676,
                    "velocity": 0.5196850393700787,
                    "duration": 0.09090900000001056
                },
                {
                    "name": "D#5",
                    "midi": 75,
                    "time": 276.36336000000676,
                    "velocity": 0.6141732283464567,
                    "duration": 0.09090900000001056
                },
                {
                    "name": "A#4",
                    "midi": 70,
                    "time": 276.5451780000068,
                    "velocity": 0.4881889763779528,
                    "duration": 0.09090900000001056
                },
                {
                    "name": "D#5",
                    "midi": 75,
                    "time": 276.5451780000068,
                    "velocity": 0.5826771653543307,
                    "duration": 0.09090900000001056
                },
                {
                    "name": "D5",
                    "midi": 74,
                    "time": 276.5451780000068,
                    "velocity": 0.5826771653543307,
                    "duration": 0.09090900000001056
                },
                {
                    "name": "D#5",
                    "midi": 75,
                    "time": 276.90881400000677,
                    "velocity": 0.6220472440944882,
                    "duration": 0.18181800000002113
                },
                {
                    "name": "D5",
                    "midi": 74,
                    "time": 276.90881400000677,
                    "velocity": 0.6220472440944882,
                    "duration": 0.18181800000002113
                },
                {
                    "name": "A#4",
                    "midi": 70,
                    "time": 276.90881400000677,
                    "velocity": 0.5275590551181102,
                    "duration": 0.18181800000002113
                },
                {
                    "name": "C6",
                    "midi": 84,
                    "time": 277.0906320000068,
                    "velocity": 0.6614173228346457,
                    "duration": 0.09090900000001056
                },
                {
                    "name": "C5",
                    "midi": 72,
                    "time": 277.0906320000068,
                    "velocity": 0.5590551181102362,
                    "duration": 0.09090900000001056
                },
                {
                    "name": "D#5",
                    "midi": 75,
                    "time": 277.0906320000068,
                    "velocity": 0.5590551181102362,
                    "duration": 0.09090900000001056
                },
                {
                    "name": "C5",
                    "midi": 72,
                    "time": 277.2724500000068,
                    "velocity": 0.5118110236220472,
                    "duration": 0.09090900000001056
                },
                {
                    "name": "C6",
                    "midi": 84,
                    "time": 277.2724500000068,
                    "velocity": 0.6062992125984252,
                    "duration": 0.09090900000001056
                },
                {
                    "name": "D#5",
                    "midi": 75,
                    "time": 277.2724500000068,
                    "velocity": 0.5118110236220472,
                    "duration": 0.09090900000001056
                },
                {
                    "name": "D#5",
                    "midi": 75,
                    "time": 277.6360860000068,
                    "velocity": 0.5826771653543307,
                    "duration": 0.18181800000002113
                },
                {
                    "name": "A4",
                    "midi": 69,
                    "time": 277.6360860000068,
                    "velocity": 0.4881889763779528,
                    "duration": 0.18181800000002113
                },
                {
                    "name": "C5",
                    "midi": 72,
                    "time": 277.6360860000068,
                    "velocity": 0.4881889763779528,
                    "duration": 0.18181800000002113
                },
                {
                    "name": "A4",
                    "midi": 69,
                    "time": 277.8179040000068,
                    "velocity": 0.5196850393700787,
                    "duration": 0.09090900000001056
                },
                {
                    "name": "C5",
                    "midi": 72,
                    "time": 277.8179040000068,
                    "velocity": 0.6141732283464567,
                    "duration": 0.09090900000001056
                },
                {
                    "name": "D5",
                    "midi": 74,
                    "time": 277.8179040000068,
                    "velocity": 0.6141732283464567,
                    "duration": 0.09090900000001056
                },
                {
                    "name": "D5",
                    "midi": 74,
                    "time": 277.99972200000684,
                    "velocity": 0.5826771653543307,
                    "duration": 0.09090900000001056
                },
                {
                    "name": "C5",
                    "midi": 72,
                    "time": 277.99972200000684,
                    "velocity": 0.5826771653543307,
                    "duration": 0.09090900000001056
                },
                {
                    "name": "A4",
                    "midi": 69,
                    "time": 277.99972200000684,
                    "velocity": 0.4881889763779528,
                    "duration": 0.09090900000001056
                },
                {
                    "name": "A4",
                    "midi": 69,
                    "time": 278.3633580000068,
                    "velocity": 0.5039370078740157,
                    "duration": 0.18181800000002113
                },
                {
                    "name": "C5",
                    "midi": 72,
                    "time": 278.3633580000068,
                    "velocity": 0.5984251968503937,
                    "duration": 0.18181800000002113
                },
                {
                    "name": "D5",
                    "midi": 74,
                    "time": 278.3633580000068,
                    "velocity": 0.5984251968503937,
                    "duration": 0.18181800000002113
                },
                {
                    "name": "A#5",
                    "midi": 82,
                    "time": 278.54517600000685,
                    "velocity": 0.6535433070866141,
                    "duration": 0.09090900000001056
                },
                {
                    "name": "D5",
                    "midi": 74,
                    "time": 278.54517600000685,
                    "velocity": 0.5511811023622047,
                    "duration": 0.09090900000001056
                },
                {
                    "name": "A#4",
                    "midi": 70,
                    "time": 278.54517600000685,
                    "velocity": 0.5511811023622047,
                    "duration": 0.09090900000001056
                },
                {
                    "name": "A#4",
                    "midi": 70,
                    "time": 278.72699400000687,
                    "velocity": 0.5118110236220472,
                    "duration": 0.09090900000001056
                },
                {
                    "name": "A#5",
                    "midi": 82,
                    "time": 278.72699400000687,
                    "velocity": 0.6062992125984252,
                    "duration": 0.09090900000001056
                },
                {
                    "name": "D5",
                    "midi": 74,
                    "time": 278.72699400000687,
                    "velocity": 0.5118110236220472,
                    "duration": 0.09090900000001056
                },
                {
                    "name": "D5",
                    "midi": 74,
                    "time": 279.09063000000685,
                    "velocity": 0.5905511811023622,
                    "duration": 0.18181800000002113
                },
                {
                    "name": "A#4",
                    "midi": 70,
                    "time": 279.09063000000685,
                    "velocity": 0.49606299212598426,
                    "duration": 0.18181800000002113
                },
                {
                    "name": "G4",
                    "midi": 67,
                    "time": 279.09063000000685,
                    "velocity": 0.49606299212598426,
                    "duration": 0.18181800000002113
                },
                {
                    "name": "G4",
                    "midi": 67,
                    "time": 279.2724480000069,
                    "velocity": 0.5196850393700787,
                    "duration": 0.09090900000001056
                },
                {
                    "name": "C5",
                    "midi": 72,
                    "time": 279.2724480000069,
                    "velocity": 0.6141732283464567,
                    "duration": 0.09090900000001056
                },
                {
                    "name": "A#4",
                    "midi": 70,
                    "time": 279.2724480000069,
                    "velocity": 0.6141732283464567,
                    "duration": 0.09090900000001056
                },
                {
                    "name": "C5",
                    "midi": 72,
                    "time": 279.4542660000069,
                    "velocity": 0.5905511811023622,
                    "duration": 0.09090900000001056
                },
                {
                    "name": "G4",
                    "midi": 67,
                    "time": 279.4542660000069,
                    "velocity": 0.49606299212598426,
                    "duration": 0.09090900000001056
                },
                {
                    "name": "A#4",
                    "midi": 70,
                    "time": 279.4542660000069,
                    "velocity": 0.5905511811023622,
                    "duration": 0.09090900000001056
                },
                {
                    "name": "C5",
                    "midi": 72,
                    "time": 279.8179020000069,
                    "velocity": 0.6141732283464567,
                    "duration": 0.18181800000002113
                },
                {
                    "name": "A#5",
                    "midi": 82,
                    "time": 279.9997200000069,
                    "velocity": 0.6771653543307087,
                    "duration": 0.09090900000001056
                },
                {
                    "name": "A#5",
                    "midi": 82,
                    "time": 280.1815380000069,
                    "velocity": 0.6456692913385826,
                    "duration": 0.09090900000001056
                },
                {
                    "name": "A#5",
                    "midi": 82,
                    "time": 280.36335600000695,
                    "velocity": 0.6614173228346457,
                    "duration": 0.18181800000002113
                },
                {
                    "name": "C5",
                    "midi": 72,
                    "time": 280.54517400000697,
                    "velocity": 0.5984251968503937,
                    "duration": 0.18181800000002113
                },
                {
                    "name": "D5",
                    "midi": 74,
                    "time": 280.726992000007,
                    "velocity": 0.6220472440944882,
                    "duration": 0.09090900000001056
                },
                {
                    "name": "D5",
                    "midi": 74,
                    "time": 280.908810000007,
                    "velocity": 0.6220472440944882,
                    "duration": 0.09090900000001056
                },
                {
                    "name": "D5",
                    "midi": 74,
                    "time": 281.272446000007,
                    "velocity": 0.5826771653543307,
                    "duration": 0.18181800000002113
                },
                {
                    "name": "A#5",
                    "midi": 82,
                    "time": 281.454264000007,
                    "velocity": 0.6771653543307087,
                    "duration": 0.09090900000001056
                },
                {
                    "name": "A#5",
                    "midi": 82,
                    "time": 281.63608200000704,
                    "velocity": 0.6456692913385826,
                    "duration": 0.09090900000001056
                },
                {
                    "name": "A#5",
                    "midi": 82,
                    "time": 281.81790000000706,
                    "velocity": 0.6456692913385826,
                    "duration": 0.18181800000002113
                },
                {
                    "name": "D5",
                    "midi": 74,
                    "time": 281.9997180000071,
                    "velocity": 0.5984251968503937,
                    "duration": 0.18181800000002113
                },
                {
                    "name": "D#5",
                    "midi": 75,
                    "time": 282.1815360000071,
                    "velocity": 0.6299212598425197,
                    "duration": 0.09090900000001056
                },
                {
                    "name": "D#5",
                    "midi": 75,
                    "time": 282.3633540000071,
                    "velocity": 0.6299212598425197,
                    "duration": 0.09090900000001056
                },
                {
                    "name": "E5",
                    "midi": 76,
                    "time": 282.7269900000071,
                    "velocity": 0.6062992125984252,
                    "duration": 0.18181800000002113
                },
                {
                    "name": "F5",
                    "midi": 77,
                    "time": 282.9088080000071,
                    "velocity": 0.6456692913385826,
                    "duration": 0.09090900000001056
                },
                {
                    "name": "F5",
                    "midi": 77,
                    "time": 283.09062600000715,
                    "velocity": 0.6456692913385826,
                    "duration": 0.09090900000001056
                },
                {
                    "name": "F#5",
                    "midi": 78,
                    "time": 283.45426200000713,
                    "velocity": 0.6220472440944882,
                    "duration": 0.18181800000002113
                },
                {
                    "name": "G5",
                    "midi": 79,
                    "time": 283.63608000000715,
                    "velocity": 0.6299212598425197,
                    "duration": 0.09090900000001056
                },
                {
                    "name": "G5",
                    "midi": 79,
                    "time": 283.8178980000072,
                    "velocity": 0.6456692913385826,
                    "duration": 0.09090900000001056
                },
                {
                    "name": "A5",
                    "midi": 81,
                    "time": 283.9997160000072,
                    "velocity": 0.6535433070866141,
                    "duration": 0.09090900000001056
                },
                {
                    "name": "A5",
                    "midi": 81,
                    "time": 284.1815340000072,
                    "velocity": 0.6692913385826772,
                    "duration": 0.09090900000001056
                },
                {
                    "name": "A#5",
                    "midi": 82,
                    "time": 284.36335200000724,
                    "velocity": 0.6771653543307087,
                    "duration": 0.09090900000001056
                },
                {
                    "name": "A#5",
                    "midi": 82,
                    "time": 284.54517000000726,
                    "velocity": 0.6929133858267716,
                    "duration": 0.09090900000001056
                },
                {
                    "name": "C6",
                    "midi": 84,
                    "time": 284.7269880000073,
                    "velocity": 0.7007874015748031,
                    "duration": 0.09090900000001056
                },
                {
                    "name": "C6",
                    "midi": 84,
                    "time": 284.9088060000073,
                    "velocity": 0.7165354330708661,
                    "duration": 0.09090900000001056
                },
                {
                    "name": "C#6",
                    "midi": 85,
                    "time": 285.0906240000073,
                    "velocity": 0.7716535433070866,
                    "duration": 0.5454540000000065
                },
                {
                    "name": "C6",
                    "midi": 84,
                    "time": 285.63607800000733,
                    "velocity": 0.6614173228346457,
                    "duration": 0.04545450000000528
                },
                {
                    "name": "A#5",
                    "midi": 82,
                    "time": 285.68153250000734,
                    "velocity": 0.6850393700787402,
                    "duration": 0.04545450000000528
                },
                {
                    "name": "A5",
                    "midi": 81,
                    "time": 285.72698700000734,
                    "velocity": 0.7007874015748031,
                    "duration": 0.04545450000000528
                },
                {
                    "name": "A#5",
                    "midi": 82,
                    "time": 285.77244150000735,
                    "velocity": 0.7244094488188977,
                    "duration": 0.04545450000000528
                },
                {
                    "name": "C#6",
                    "midi": 85,
                    "time": 285.81789600000735,
                    "velocity": 0.7401574803149606,
                    "duration": 0.5454540000000065
                },
                {
                    "name": "C6",
                    "midi": 84,
                    "time": 286.36335000000736,
                    "velocity": 0.6850393700787402,
                    "duration": 0.04545450000000528
                },
                {
                    "name": "A#5",
                    "midi": 82,
                    "time": 286.40880450000736,
                    "velocity": 0.7007874015748031,
                    "duration": 0.04545450000000528
                },
                {
                    "name": "A5",
                    "midi": 81,
                    "time": 286.45425900000737,
                    "velocity": 0.7165354330708661,
                    "duration": 0.04545450000000528
                },
                {
                    "name": "A#5",
                    "midi": 82,
                    "time": 286.4997135000074,
                    "velocity": 0.7401574803149606,
                    "duration": 0.04545450000000528
                },
                {
                    "name": "C#6",
                    "midi": 85,
                    "time": 286.5451680000074,
                    "velocity": 0.7480314960629921,
                    "duration": 0.8181809999999814
                },
                {
                    "name": "A#5",
                    "midi": 82,
                    "time": 287.36334900000736,
                    "velocity": 0.6850393700787402,
                    "duration": 0.09090900000001056
                },
                {
                    "name": "G5",
                    "midi": 79,
                    "time": 287.45425800000737,
                    "velocity": 0.6771653543307087,
                    "duration": 0.09090900000001056
                },
                {
                    "name": "E5",
                    "midi": 76,
                    "time": 287.5451670000074,
                    "velocity": 0.6614173228346457,
                    "duration": 0.09090900000001056
                },
                {
                    "name": "C#5",
                    "midi": 73,
                    "time": 287.6360760000074,
                    "velocity": 0.6535433070866141,
                    "duration": 0.09090900000001056
                },
                {
                    "name": "A#4",
                    "midi": 70,
                    "time": 287.7269850000074,
                    "velocity": 0.6456692913385826,
                    "duration": 0.09090900000001056
                },
                {
                    "name": "G4",
                    "midi": 67,
                    "time": 287.8178940000074,
                    "velocity": 0.6377952755905512,
                    "duration": 0.09090900000001056
                },
                {
                    "name": "E4",
                    "midi": 64,
                    "time": 287.9088030000074,
                    "velocity": 0.6220472440944882,
                    "duration": 0.09090900000001056
                },
                {
                    "name": "D4",
                    "midi": 62,
                    "time": 289.56940740000744,
                    "velocity": 0.5826771653543307,
                    "duration": 0.021969674999979816
                },
                {
                    "name": "D#4",
                    "midi": 63,
                    "time": 289.5838013250074,
                    "velocity": 0.5984251968503937,
                    "duration": 0.021969674999979816
                },
                {
                    "name": "F4",
                    "midi": 65,
                    "time": 289.5981952500074,
                    "velocity": 0.6141732283464567,
                    "duration": 0.021969674999979816
                },
                {
                    "name": "G4",
                    "midi": 67,
                    "time": 289.6125891750074,
                    "velocity": 0.6220472440944882,
                    "duration": 0.021969674999979816
                },
                {
                    "name": "A4",
                    "midi": 69,
                    "time": 289.62698310000735,
                    "velocity": 0.6377952755905512,
                    "duration": 0.021969674999979816
                },
                {
                    "name": "A#4",
                    "midi": 70,
                    "time": 289.64137702500733,
                    "velocity": 0.6535433070866141,
                    "duration": 0.021969674999979816
                },
                {
                    "name": "C5",
                    "midi": 72,
                    "time": 289.6557709500073,
                    "velocity": 0.6614173228346457,
                    "duration": 0.021969674999979816
                },
                {
                    "name": "D5",
                    "midi": 74,
                    "time": 289.6701648750073,
                    "velocity": 0.6771653543307087,
                    "duration": 0.021969674999979816
                },
                {
                    "name": "D#5",
                    "midi": 75,
                    "time": 289.68455880000727,
                    "velocity": 0.6929133858267716,
                    "duration": 0.021969674999979816
                },
                {
                    "name": "F5",
                    "midi": 77,
                    "time": 289.69895272500725,
                    "velocity": 0.7007874015748031,
                    "duration": 0.021969674999979816
                },
                {
                    "name": "G5",
                    "midi": 79,
                    "time": 289.7133466500072,
                    "velocity": 0.7165354330708661,
                    "duration": 0.021969674999979816
                },
                {
                    "name": "A5",
                    "midi": 81,
                    "time": 289.7277405750072,
                    "velocity": 0.7322834645669292,
                    "duration": 0.021969674999979816
                },
                {
                    "name": "A#5",
                    "midi": 82,
                    "time": 289.7421345000072,
                    "velocity": 0.7401574803149606,
                    "duration": 0.021969674999979816
                },
                {
                    "name": "C6",
                    "midi": 84,
                    "time": 289.75652842500716,
                    "velocity": 0.7401574803149606,
                    "duration": 0.021969674999979816
                },
                {
                    "name": "D6",
                    "midi": 86,
                    "time": 289.77092235000714,
                    "velocity": 0.7559055118110236,
                    "duration": 0.021969674999979816
                },
                {
                    "name": "D#6",
                    "midi": 87,
                    "time": 289.7853162750071,
                    "velocity": 0.7716535433070866,
                    "duration": 0.021969674999979816
                },
                {
                    "name": "F6",
                    "midi": 89,
                    "time": 289.7997102000071,
                    "velocity": 0.7795275590551181,
                    "duration": 0.01515150000000176
                },
                {
                    "name": "A#4",
                    "midi": 70,
                    "time": 290.1815280000071,
                    "velocity": 0.49606299212598426,
                    "duration": 0.06818175000000792
                },
                {
                    "name": "A#4",
                    "midi": 70,
                    "time": 290.27243700000713,
                    "velocity": 0.5039370078740157,
                    "duration": 0.04545450000000528
                },
                {
                    "name": "C5",
                    "midi": 72,
                    "time": 290.31789150000714,
                    "velocity": 0.47244094488188976,
                    "duration": 0.04545450000000528
                },
                {
                    "name": "D5",
                    "midi": 74,
                    "time": 290.36334600000714,
                    "velocity": 0.5118110236220472,
                    "duration": 0.04545450000000528
                },
                {
                    "name": "C5",
                    "midi": 72,
                    "time": 290.40880050000715,
                    "velocity": 0.47244094488188976,
                    "duration": 0.04545450000000528
                },
                {
                    "name": "D5",
                    "midi": 74,
                    "time": 290.45425500000715,
                    "velocity": 0.5196850393700787,
                    "duration": 0.04545450000000528
                },
                {
                    "name": "C5",
                    "midi": 72,
                    "time": 290.49970950000716,
                    "velocity": 0.48031496062992124,
                    "duration": 0.04545450000000528
                },
                {
                    "name": "D5",
                    "midi": 74,
                    "time": 290.54516400000716,
                    "velocity": 0.5275590551181102,
                    "duration": 0.04545450000000528
                },
                {
                    "name": "C5",
                    "midi": 72,
                    "time": 290.59061850000717,
                    "velocity": 0.49606299212598426,
                    "duration": 0.04545450000000528
                },
                {
                    "name": "D5",
                    "midi": 74,
                    "time": 290.6360730000072,
                    "velocity": 0.5354330708661418,
                    "duration": 0.04545450000000528
                },
                {
                    "name": "C5",
                    "midi": 72,
                    "time": 290.6815275000072,
                    "velocity": 0.49606299212598426,
                    "duration": 0.04545450000000528
                },
                {
                    "name": "D5",
                    "midi": 74,
                    "time": 290.7269820000072,
                    "velocity": 0.5433070866141733,
                    "duration": 0.04545450000000528
                },
                {
                    "name": "C5",
                    "midi": 72,
                    "time": 290.7724365000072,
                    "velocity": 0.5118110236220472,
                    "duration": 0.04545450000000528
                },
                {
                    "name": "D5",
                    "midi": 74,
                    "time": 290.8178910000072,
                    "velocity": 0.5511811023622047,
                    "duration": 0.04545450000000528
                },
                {
                    "name": "C5",
                    "midi": 72,
                    "time": 290.8633455000072,
                    "velocity": 0.5118110236220472,
                    "duration": 0.04545450000000528
                },
                {
                    "name": "D5",
                    "midi": 74,
                    "time": 290.9088000000072,
                    "velocity": 0.5433070866141733,
                    "duration": 0.04545450000000528
                },
                {
                    "name": "C5",
                    "midi": 72,
                    "time": 290.9542545000072,
                    "velocity": 0.5039370078740157,
                    "duration": 0.04545450000000528
                },
                {
                    "name": "D5",
                    "midi": 74,
                    "time": 290.9997090000072,
                    "velocity": 0.5354330708661418,
                    "duration": 0.04545450000000528
                },
                {
                    "name": "C5",
                    "midi": 72,
                    "time": 291.0451635000072,
                    "velocity": 0.5275590551181102,
                    "duration": 0.04545450000000528
                },
                {
                    "name": "D5",
                    "midi": 74,
                    "time": 291.0906180000072,
                    "velocity": 0.5196850393700787,
                    "duration": 0.04545450000000528
                },
                {
                    "name": "C5",
                    "midi": 72,
                    "time": 291.13607250000723,
                    "velocity": 0.4881889763779528,
                    "duration": 0.04545450000000528
                },
                {
                    "name": "D5",
                    "midi": 74,
                    "time": 291.18152700000724,
                    "velocity": 0.5118110236220472,
                    "duration": 0.04545450000000528
                },
                {
                    "name": "C5",
                    "midi": 72,
                    "time": 291.22698150000724,
                    "velocity": 0.5039370078740157,
                    "duration": 0.04545450000000528
                },
                {
                    "name": "B4",
                    "midi": 71,
                    "time": 291.27243600000725,
                    "velocity": 0.49606299212598426,
                    "duration": 0.04545450000000528
                },
                {
                    "name": "C5",
                    "midi": 72,
                    "time": 291.30273900000725,
                    "velocity": 0.5118110236220472,
                    "duration": 0.04545450000000528
                },
                {
                    "name": "D5",
                    "midi": 74,
                    "time": 291.33304200000725,
                    "velocity": 0.5196850393700787,
                    "duration": 0.04545450000000528
                },
                {
                    "name": "D#5",
                    "midi": 75,
                    "time": 291.36334500000726,
                    "velocity": 0.5354330708661418,
                    "duration": 0.04545450000000528
                },
                {
                    "name": "F5",
                    "midi": 77,
                    "time": 291.39364800000726,
                    "velocity": 0.5433070866141733,
                    "duration": 0.04545450000000528
                },
                {
                    "name": "G5",
                    "midi": 79,
                    "time": 291.42395100000726,
                    "velocity": 0.5590551181102362,
                    "duration": 0.04545450000000528
                },
                {
                    "name": "A5",
                    "midi": 81,
                    "time": 291.45425400000727,
                    "velocity": 0.5669291338582677,
                    "duration": 0.04545450000000528
                },
                {
                    "name": "A#5",
                    "midi": 82,
                    "time": 291.48455700000727,
                    "velocity": 0.5826771653543307,
                    "duration": 0.04545450000000528
                },
                {
                    "name": "C6",
                    "midi": 84,
                    "time": 291.5148600000073,
                    "velocity": 0.5905511811023622,
                    "duration": 0.04545450000000528
                },
                {
                    "name": "D6",
                    "midi": 86,
                    "time": 291.5451630000073,
                    "velocity": 0.5984251968503937,
                    "duration": 0.04545450000000528
                },
                {
                    "name": "D#6",
                    "midi": 87,
                    "time": 291.5754660000073,
                    "velocity": 0.6141732283464567,
                    "duration": 0.04545450000000528
                },
                {
                    "name": "D6",
                    "midi": 86,
                    "time": 291.6057690000073,
                    "velocity": 0.6220472440944882,
                    "duration": 0.04545450000000528
                },
                {
                    "name": "F6",
                    "midi": 89,
                    "time": 291.6360720000073,
                    "velocity": 0.7559055118110236,
                    "duration": 0.06818175000000792
                },
                {
                    "name": "D#6",
                    "midi": 87,
                    "time": 291.6815265000073,
                    "velocity": 0.7401574803149606,
                    "duration": 0.06818175000000792
                },
                {
                    "name": "D6",
                    "midi": 86,
                    "time": 291.7269810000073,
                    "velocity": 0.7165354330708661,
                    "duration": 0.03409087500000396
                },
                {
                    "name": "C6",
                    "midi": 84,
                    "time": 291.7724355000073,
                    "velocity": 0.7007874015748031,
                    "duration": 0.02272725000000264
                },
                {
                    "name": "D#6",
                    "midi": 87,
                    "time": 291.8178900000073,
                    "velocity": 0.7244094488188977,
                    "duration": 0.06818175000000792
                },
                {
                    "name": "D6",
                    "midi": 86,
                    "time": 291.8633445000073,
                    "velocity": 0.7165354330708661,
                    "duration": 0.06818175000000792
                },
                {
                    "name": "C6",
                    "midi": 84,
                    "time": 291.9087990000073,
                    "velocity": 0.7007874015748031,
                    "duration": 0.03409087500000396
                },
                {
                    "name": "A#5",
                    "midi": 82,
                    "time": 291.9542535000073,
                    "velocity": 0.6850393700787402,
                    "duration": 0.02272725000000264
                },
                {
                    "name": "D6",
                    "midi": 86,
                    "time": 291.99970800000733,
                    "velocity": 0.7165354330708661,
                    "duration": 0.06818175000000792
                },
                {
                    "name": "C6",
                    "midi": 84,
                    "time": 292.04516250000734,
                    "velocity": 0.7007874015748031,
                    "duration": 0.06818175000000792
                },
                {
                    "name": "A#5",
                    "midi": 82,
                    "time": 292.09061700000734,
                    "velocity": 0.6850393700787402,
                    "duration": 0.03409087500000396
                },
                {
                    "name": "A5",
                    "midi": 81,
                    "time": 292.13607150000735,
                    "velocity": 0.6692913385826772,
                    "duration": 0.02272725000000264
                },
                {
                    "name": "C6",
                    "midi": 84,
                    "time": 292.18152600000735,
                    "velocity": 0.7007874015748031,
                    "duration": 0.06818175000000792
                },
                {
                    "name": "A#5",
                    "midi": 82,
                    "time": 292.22698050000736,
                    "velocity": 0.6929133858267716,
                    "duration": 0.06818175000000792
                },
                {
                    "name": "A5",
                    "midi": 81,
                    "time": 292.27243500000736,
                    "velocity": 0.6771653543307087,
                    "duration": 0.03409087500000396
                },
                {
                    "name": "G5",
                    "midi": 79,
                    "time": 292.31788950000737,
                    "velocity": 0.6929133858267716,
                    "duration": 0.02272725000000264
                },
                {
                    "name": "A#5",
                    "midi": 82,
                    "time": 292.3633440000074,
                    "velocity": 0.7086614173228346,
                    "duration": 0.13636350000001585
                },
                {
                    "name": "A5",
                    "midi": 81,
                    "time": 292.4542530000074,
                    "velocity": 0.6456692913385826,
                    "duration": 0.13636350000001585
                },
                {
                    "name": "G5",
                    "midi": 79,
                    "time": 292.5451620000074,
                    "velocity": 0.6299212598425197,
                    "duration": 0.04545450000000528
                },
                {
                    "name": "F5",
                    "midi": 77,
                    "time": 292.6360710000074,
                    "velocity": 0.5905511811023622,
                    "duration": 0.04545450000000528
                },
                {
                    "name": "A5",
                    "midi": 81,
                    "time": 292.7269800000074,
                    "velocity": 0.6377952755905512,
                    "duration": 0.13636350000001585
                },
                {
                    "name": "G5",
                    "midi": 79,
                    "time": 292.8178890000074,
                    "velocity": 0.5826771653543307,
                    "duration": 0.13636350000001585
                },
                {
                    "name": "F5",
                    "midi": 77,
                    "time": 292.90879800000744,
                    "velocity": 0.5590551181102362,
                    "duration": 0.04545450000000528
                },
                {
                    "name": "D#5",
                    "midi": 75,
                    "time": 292.99970700000745,
                    "velocity": 0.5275590551181102,
                    "duration": 0.04545450000000528
                },
                {
                    "name": "G5",
                    "midi": 79,
                    "time": 293.09061600000746,
                    "velocity": 0.5669291338582677,
                    "duration": 0.13636350000001585
                },
                {
                    "name": "F5",
                    "midi": 77,
                    "time": 293.18152500000747,
                    "velocity": 0.5354330708661418,
                    "duration": 0.13636350000001585
                },
                {
                    "name": "D#5",
                    "midi": 75,
                    "time": 293.2724340000075,
                    "velocity": 0.5118110236220472,
                    "duration": 0.04545450000000528
                },
                {
                    "name": "D5",
                    "midi": 74,
                    "time": 293.3633430000075,
                    "velocity": 0.4881889763779528,
                    "duration": 0.04545450000000528
                },
                {
                    "name": "F5",
                    "midi": 77,
                    "time": 293.4542520000075,
                    "velocity": 0.5039370078740157,
                    "duration": 0.21818160000003672
                },
                {
                    "name": "D#5",
                    "midi": 75,
                    "time": 293.6360700000075,
                    "velocity": 0.47244094488188976,
                    "duration": 0.18181800000002113
                },
                {
                    "name": "D5",
                    "midi": 74,
                    "time": 293.81788800000754,
                    "velocity": 0.4409448818897638,
                    "duration": 0.09090900000001056
                },
                {
                    "name": "C5",
                    "midi": 72,
                    "time": 293.99970600000756,
                    "velocity": 0.4094488188976378,
                    "duration": 0.09090900000001056
                },
                {
                    "name": "A#4",
                    "midi": 70,
                    "time": 294.1815240000076,
                    "velocity": 0.4015748031496063,
                    "duration": 0.04545450000000528
                },
                {
                    "name": "C5",
                    "midi": 72,
                    "time": 294.2724330000076,
                    "velocity": 0.3858267716535433,
                    "duration": 0.04545450000000528
                },
                {
                    "name": "C#5",
                    "midi": 73,
                    "time": 294.3633420000076,
                    "velocity": 0.3779527559055118,
                    "duration": 0.04545450000000528
                },
                {
                    "name": "D5",
                    "midi": 74,
                    "time": 294.4542510000076,
                    "velocity": 0.36220472440944884,
                    "duration": 0.04545450000000528
                },
                {
                    "name": "D#5",
                    "midi": 75,
                    "time": 294.5451600000076,
                    "velocity": 0.3700787401574803,
                    "duration": 0.18181800000002113
                },
                {
                    "name": "E5",
                    "midi": 76,
                    "time": 294.72697800000765,
                    "velocity": 0.31496062992125984,
                    "duration": 0.18181800000002113
                },
                {
                    "name": "F5",
                    "midi": 77,
                    "time": 294.9095535750077,
                    "velocity": 0.47244094488188976,
                    "duration": 0.5454540000000065
                },
                {
                    "name": "D5",
                    "midi": 74,
                    "time": 295.4542500000077,
                    "velocity": 0.41732283464566927,
                    "duration": 0.18181800000002113
                },
                {
                    "name": "A#4",
                    "midi": 70,
                    "time": 295.6360680000077,
                    "velocity": 0.4330708661417323,
                    "duration": 0.09090900000001056
                },
                {
                    "name": "A#4",
                    "midi": 70,
                    "time": 295.9997040000077,
                    "velocity": 0.4330708661417323,
                    "duration": 0.09090900000001056
                },
                {
                    "name": "D#5",
                    "midi": 75,
                    "time": 296.36334000000767,
                    "velocity": 0.47244094488188976,
                    "duration": 0.07272719999997435
                },
                {
                    "name": "F5",
                    "midi": 77,
                    "time": 296.43606720000764,
                    "velocity": 0.3700787401574803,
                    "duration": 0.07272719999997435
                },
                {
                    "name": "D#5",
                    "midi": 75,
                    "time": 296.5087944000076,
                    "velocity": 0.3700787401574803,
                    "duration": 0.07272719999997435
                },
                {
                    "name": "D5",
                    "midi": 74,
                    "time": 296.5815216000076,
                    "velocity": 0.3700787401574803,
                    "duration": 0.07272719999997435
                },
                {
                    "name": "D#5",
                    "midi": 75,
                    "time": 296.65424880000757,
                    "velocity": 0.3858267716535433,
                    "duration": 0.07272719999997435
                },
                {
                    "name": "G5",
                    "midi": 79,
                    "time": 296.72697600000754,
                    "velocity": 0.4330708661417323,
                    "duration": 0.3636359999999854
                },
                {
                    "name": "A4",
                    "midi": 69,
                    "time": 297.0906120000075,
                    "velocity": 0.44881889763779526,
                    "duration": 0.3636359999999854
                },
                {
                    "name": "A4",
                    "midi": 69,
                    "time": 297.63606600000753,
                    "velocity": 0.4094488188976378,
                    "duration": 0.18181800000002113
                },
                {
                    "name": "C5",
                    "midi": 72,
                    "time": 297.81788400000755,
                    "velocity": 0.4330708661417323,
                    "duration": 0.18181800000002113
                },
                {
                    "name": "A#4",
                    "midi": 70,
                    "time": 297.9997020000076,
                    "velocity": 0.41732283464566927,
                    "duration": 0.09090900000001056
                },
                {
                    "name": "D5",
                    "midi": 74,
                    "time": 298.1815200000076,
                    "velocity": 0.44881889763779526,
                    "duration": 0.18181800000002113
                },
                {
                    "name": "C5",
                    "midi": 72,
                    "time": 298.3633380000076,
                    "velocity": 0.4251968503937008,
                    "duration": 0.09090900000001056
                },
                {
                    "name": "D#5",
                    "midi": 75,
                    "time": 298.54515600000764,
                    "velocity": 0.4566929133858268,
                    "duration": 0.18181800000002113
                },
                {
                    "name": "D5",
                    "midi": 74,
                    "time": 298.72697400000766,
                    "velocity": 0.4409448818897638,
                    "duration": 0.09090900000001056
                },
                {
                    "name": "F5",
                    "midi": 77,
                    "time": 298.9087920000077,
                    "velocity": 0.47244094488188976,
                    "duration": 0.18181800000002113
                },
                {
                    "name": "D#5",
                    "midi": 75,
                    "time": 299.0906100000077,
                    "velocity": 0.44881889763779526,
                    "duration": 0.09090900000001056
                },
                {
                    "name": "D5",
                    "midi": 74,
                    "time": 299.2724280000077,
                    "velocity": 0.47244094488188976,
                    "duration": 0.5454540000000065
                },
                {
                    "name": "D#5",
                    "midi": 75,
                    "time": 299.8178820000077,
                    "velocity": 0.44881889763779526,
                    "duration": 0.09090900000001056
                },
                {
                    "name": "D5",
                    "midi": 74,
                    "time": 299.90879100000774,
                    "velocity": 0.4251968503937008,
                    "duration": 0.09090900000001056
                },
                {
                    "name": "C5",
                    "midi": 72,
                    "time": 299.99970000000775,
                    "velocity": 0.4094488188976378,
                    "duration": 0.18181800000002113
                },
                {
                    "name": "D5",
                    "midi": 74,
                    "time": 300.18151800000777,
                    "velocity": 0.4566929133858268,
                    "duration": 0.18181800000002113
                },
                {
                    "name": "D#5",
                    "midi": 75,
                    "time": 300.3633360000078,
                    "velocity": 0.5039370078740157,
                    "duration": 0.18181800000002113
                },
                {
                    "name": "E5",
                    "midi": 76,
                    "time": 300.5451540000078,
                    "velocity": 0.5433070866141733,
                    "duration": 0.18181800000002113
                },
                {
                    "name": "F5",
                    "midi": 77,
                    "time": 300.72697200000783,
                    "velocity": 0.5984251968503937,
                    "duration": 0.5454540000000065
                },
                {
                    "name": "D#5",
                    "midi": 75,
                    "time": 301.27242600000784,
                    "velocity": 0.5354330708661418,
                    "duration": 0.06060600000000704
                },
                {
                    "name": "D5",
                    "midi": 74,
                    "time": 301.33303200000785,
                    "velocity": 0.5354330708661418,
                    "duration": 0.06060600000000704
                },
                {
                    "name": "C5",
                    "midi": 72,
                    "time": 301.39363800000785,
                    "velocity": 0.5354330708661418,
                    "duration": 0.06060600000000704
                },
                {
                    "name": "A#4",
                    "midi": 70,
                    "time": 301.45424400000786,
                    "velocity": 0.5669291338582677,
                    "duration": 0.18181800000002113
                },
                {
                    "name": "A#4",
                    "midi": 70,
                    "time": 301.6360620000079,
                    "velocity": 0.5118110236220472,
                    "duration": 0.09090900000001056
                },
                {
                    "name": "A#4",
                    "midi": 70,
                    "time": 301.8178800000079,
                    "velocity": 0.5118110236220472,
                    "duration": 0.09090900000001056
                },
                {
                    "name": "A#4",
                    "midi": 70,
                    "time": 301.9996980000079,
                    "velocity": 0.5118110236220472,
                    "duration": 0.09090900000001056
                },
                {
                    "name": "D#5",
                    "midi": 75,
                    "time": 302.18151600000795,
                    "velocity": 0.6141732283464567,
                    "duration": 0.07272719999997435
                },
                {
                    "name": "F5",
                    "midi": 77,
                    "time": 302.2542432000079,
                    "velocity": 0.47244094488188976,
                    "duration": 0.07272719999997435
                },
                {
                    "name": "D#5",
                    "midi": 75,
                    "time": 302.3269704000079,
                    "velocity": 0.47244094488188976,
                    "duration": 0.07272719999997435
                },
                {
                    "name": "D5",
                    "midi": 74,
                    "time": 302.39969760000787,
                    "velocity": 0.47244094488188976,
                    "duration": 0.07272719999997435
                },
                {
                    "name": "D#5",
                    "midi": 75,
                    "time": 302.47242480000784,
                    "velocity": 0.47244094488188976,
                    "duration": 0.07272719999997435
                },
                {
                    "name": "G5",
                    "midi": 79,
                    "time": 302.5451520000078,
                    "velocity": 0.5590551181102362,
                    "duration": 0.3636359999999854
                },
                {
                    "name": "A4",
                    "midi": 69,
                    "time": 302.9087880000078,
                    "velocity": 0.5905511811023622,
                    "duration": 0.3636359999999854
                },
                {
                    "name": "F5",
                    "midi": 77,
                    "time": 303.4542420000078,
                    "velocity": 0.6062992125984252,
                    "duration": 0.18181800000002113
                },
                {
                    "name": "D5",
                    "midi": 74,
                    "time": 303.63606000000783,
                    "velocity": 0.6614173228346457,
                    "duration": 0.12121200000001409
                },
                {
                    "name": "F5",
                    "midi": 77,
                    "time": 303.75727200000784,
                    "velocity": 0.5826771653543307,
                    "duration": 0.12121200000001409
                },
                {
                    "name": "A#5",
                    "midi": 82,
                    "time": 303.87848400000786,
                    "velocity": 0.6141732283464567,
                    "duration": 0.12121200000001409
                },
                {
                    "name": "G5",
                    "midi": 79,
                    "time": 303.9996960000079,
                    "velocity": 0.7007874015748031,
                    "duration": 0.12121200000001409
                },
                {
                    "name": "D#5",
                    "midi": 75,
                    "time": 304.1209080000079,
                    "velocity": 0.5984251968503937,
                    "duration": 0.12121200000001409
                },
                {
                    "name": "C5",
                    "midi": 72,
                    "time": 304.2421200000079,
                    "velocity": 0.5984251968503937,
                    "duration": 0.12121200000001409
                },
                {
                    "name": "F5",
                    "midi": 77,
                    "time": 304.3633320000079,
                    "velocity": 0.6929133858267716,
                    "duration": 0.12121200000001409
                },
                {
                    "name": "D5",
                    "midi": 74,
                    "time": 304.48454400000793,
                    "velocity": 0.5984251968503937,
                    "duration": 0.12121200000001409
                },
                {
                    "name": "A#4",
                    "midi": 70,
                    "time": 304.60575600000794,
                    "velocity": 0.5984251968503937,
                    "duration": 0.12121200000001409
                },
                {
                    "name": "D#5",
                    "midi": 75,
                    "time": 304.72696800000796,
                    "velocity": 0.6692913385826772,
                    "duration": 0.12121200000001409
                },
                {
                    "name": "C5",
                    "midi": 72,
                    "time": 304.84818000000797,
                    "velocity": 0.5984251968503937,
                    "duration": 0.12121200000001409
                },
                {
                    "name": "A4",
                    "midi": 69,
                    "time": 304.969392000008,
                    "velocity": 0.5984251968503937,
                    "duration": 0.12121200000001409
                },
                {
                    "name": "A#4",
                    "midi": 70,
                    "time": 305.090604000008,
                    "velocity": 0.7086614173228346,
                    "duration": 0.12121200000001409
                },
                {
                    "name": "A#5",
                    "midi": 82,
                    "time": 305.211816000008,
                    "velocity": 0.6771653543307087,
                    "duration": 0.09090900000001056
                },
                {
                    "name": "A#5",
                    "midi": 82,
                    "time": 305.333028000008,
                    "velocity": 0.6456692913385826,
                    "duration": 0.09090900000001056
                },
                {
                    "name": "A#5",
                    "midi": 82,
                    "time": 305.45424000000804,
                    "velocity": 0.6850393700787402,
                    "duration": 0.09090900000001056
                },
                {
                    "name": "A#5",
                    "midi": 82,
                    "time": 305.57545200000806,
                    "velocity": 0.6220472440944882,
                    "duration": 0.09090900000001056
                },
                {
                    "name": "A#5",
                    "midi": 82,
                    "time": 305.69666400000807,
                    "velocity": 0.6299212598425197,
                    "duration": 0.09090900000001056
                },
                {
                    "name": "A#5",
                    "midi": 82,
                    "time": 305.8178760000081,
                    "velocity": 0.6771653543307087,
                    "duration": 0.12121200000001409
                },
                {
                    "name": "A5",
                    "midi": 81,
                    "time": 305.9390880000081,
                    "velocity": 0.6062992125984252,
                    "duration": 0.12121200000001409
                },
                {
                    "name": "G5",
                    "midi": 79,
                    "time": 306.0603000000081,
                    "velocity": 0.6062992125984252,
                    "duration": 0.12121200000001409
                },
                {
                    "name": "F5",
                    "midi": 77,
                    "time": 306.1815120000081,
                    "velocity": 0.6377952755905512,
                    "duration": 0.12121200000001409
                },
                {
                    "name": "D#5",
                    "midi": 75,
                    "time": 306.30272400000814,
                    "velocity": 0.6141732283464567,
                    "duration": 0.12121200000001409
                },
                {
                    "name": "D5",
                    "midi": 74,
                    "time": 306.42393600000815,
                    "velocity": 0.6062992125984252,
                    "duration": 0.12121200000001409
                },
                {
                    "name": "C5",
                    "midi": 72,
                    "time": 306.54514800000817,
                    "velocity": 0.6929133858267716,
                    "duration": 0.12121200000001409
                },
                {
                    "name": "G5",
                    "midi": 79,
                    "time": 306.6663600000082,
                    "velocity": 0.6062992125984252,
                    "duration": 0.09090900000001056
                },
                {
                    "name": "G5",
                    "midi": 79,
                    "time": 306.7875720000082,
                    "velocity": 0.6062992125984252,
                    "duration": 0.09090900000001056
                },
                {
                    "name": "G5",
                    "midi": 79,
                    "time": 306.9087840000082,
                    "velocity": 0.6535433070866141,
                    "duration": 0.09090900000001056
                },
                {
                    "name": "G5",
                    "midi": 79,
                    "time": 307.0299960000082,
                    "velocity": 0.5984251968503937,
                    "duration": 0.09090900000001056
                },
                {
                    "name": "G5",
                    "midi": 79,
                    "time": 307.15120800000824,
                    "velocity": 0.5984251968503937,
                    "duration": 0.12121200000001409
                },
                {
                    "name": "G5",
                    "midi": 79,
                    "time": 307.27242000000825,
                    "velocity": 0.6299212598425197,
                    "duration": 0.12121200000001409
                },
                {
                    "name": "F5",
                    "midi": 77,
                    "time": 307.39363200000827,
                    "velocity": 0.5984251968503937,
                    "duration": 0.12121200000001409
                },
                {
                    "name": "D#5",
                    "midi": 75,
                    "time": 307.5148440000083,
                    "velocity": 0.5905511811023622,
                    "duration": 0.12121200000001409
                },
                {
                    "name": "D5",
                    "midi": 74,
                    "time": 307.6360560000083,
                    "velocity": 0.6141732283464567,
                    "duration": 0.12121200000001409
                },
                {
                    "name": "D#5",
                    "midi": 75,
                    "time": 307.7572680000083,
                    "velocity": 0.5748031496062992,
                    "duration": 0.12121200000001409
                },
                {
                    "name": "C5",
                    "midi": 72,
                    "time": 307.8784800000083,
                    "velocity": 0.5748031496062992,
                    "duration": 0.12121200000001409
                },
                {
                    "name": "E5",
                    "midi": 76,
                    "time": 307.99969200000834,
                    "velocity": 0.6377952755905512,
                    "duration": 0.10909079999998994
                },
                {
                    "name": "F5",
                    "midi": 77,
                    "time": 308.09060100000835,
                    "velocity": 0.6535433070866141,
                    "duration": 0.1090907999999331
                },
                {
                    "name": "G5",
                    "midi": 79,
                    "time": 308.1815100000083,
                    "velocity": 0.6692913385826772,
                    "duration": 0.1090907999999331
                },
                {
                    "name": "F5",
                    "midi": 77,
                    "time": 308.27241900000826,
                    "velocity": 0.6535433070866141,
                    "duration": 0.1090907999999331
                },
                {
                    "name": "D#5",
                    "midi": 75,
                    "time": 308.3633280000082,
                    "velocity": 0.6299212598425197,
                    "duration": 0.1090907999999331
                },
                {
                    "name": "D5",
                    "midi": 74,
                    "time": 308.45423700000816,
                    "velocity": 0.6220472440944882,
                    "duration": 0.1090907999999331
                },
                {
                    "name": "C5",
                    "midi": 72,
                    "time": 308.5451460000081,
                    "velocity": 0.6062992125984252,
                    "duration": 0.1090907999999331
                },
                {
                    "name": "A#4",
                    "midi": 70,
                    "time": 308.63605500000807,
                    "velocity": 0.5984251968503937,
                    "duration": 0.09090899999995372
                },
                {
                    "name": "C5",
                    "midi": 72,
                    "time": 308.726964000008,
                    "velocity": 0.5826771653543307,
                    "duration": 0.06060600000000704
                },
                {
                    "name": "D5",
                    "midi": 74,
                    "time": 308.78757000000803,
                    "velocity": 0.5354330708661418,
                    "duration": 0.06060600000000704
                },
                {
                    "name": "C5",
                    "midi": 72,
                    "time": 308.84817600000804,
                    "velocity": 0.5354330708661418,
                    "duration": 0.06060600000000704
                },
                {
                    "name": "D5",
                    "midi": 74,
                    "time": 308.90878200000805,
                    "velocity": 0.5196850393700787,
                    "duration": 0.06060600000000704
                },
                {
                    "name": "C5",
                    "midi": 72,
                    "time": 308.96938800000805,
                    "velocity": 0.49606299212598426,
                    "duration": 0.06060600000000704
                },
                {
                    "name": "D5",
                    "midi": 74,
                    "time": 309.02999400000806,
                    "velocity": 0.5196850393700787,
                    "duration": 0.06060600000000704
                },
                {
                    "name": "C5",
                    "midi": 72,
                    "time": 309.09060000000807,
                    "velocity": 0.5196850393700787,
                    "duration": 0.06060600000000704
                },
                {
                    "name": "D5",
                    "midi": 74,
                    "time": 309.1512060000081,
                    "velocity": 0.5196850393700787,
                    "duration": 0.06060600000000704
                },
                {
                    "name": "C5",
                    "midi": 72,
                    "time": 309.2118120000081,
                    "velocity": 0.5196850393700787,
                    "duration": 0.06060600000000704
                },
                {
                    "name": "A#4",
                    "midi": 70,
                    "time": 309.2724180000081,
                    "velocity": 0.5433070866141733,
                    "duration": 0.09090900000001056
                },
                {
                    "name": "C5",
                    "midi": 72,
                    "time": 309.3633270000081,
                    "velocity": 0.5433070866141733,
                    "duration": 0.09090900000001056
                },
                {
                    "name": "A#4",
                    "midi": 70,
                    "time": 309.4542360000081,
                    "velocity": 0.5826771653543307,
                    "duration": 0.09090900000001056
                },
                {
                    "name": "A#5",
                    "midi": 82,
                    "time": 309.63605400000813,
                    "velocity": 0.5826771653543307,
                    "duration": 0.09090900000001056
                },
                {
                    "name": "A5",
                    "midi": 81,
                    "time": 309.72696300000814,
                    "velocity": 0.5669291338582677,
                    "duration": 0.09090900000001056
                },
                {
                    "name": "A#5",
                    "midi": 82,
                    "time": 309.81787200000815,
                    "velocity": 0.5826771653543307,
                    "duration": 0.09090900000001056
                },
                {
                    "name": "A5",
                    "midi": 81,
                    "time": 309.90878100000816,
                    "velocity": 0.5511811023622047,
                    "duration": 0.09090900000001056
                },
                {
                    "name": "A#5",
                    "midi": 82,
                    "time": 309.9996900000082,
                    "velocity": 0.5826771653543307,
                    "duration": 0.09090900000001056
                },
                {
                    "name": "A5",
                    "midi": 81,
                    "time": 310.0905990000082,
                    "velocity": 0.5590551181102362,
                    "duration": 0.09090900000001056
                },
                {
                    "name": "A#5",
                    "midi": 82,
                    "time": 310.1815080000082,
                    "velocity": 0.5826771653543307,
                    "duration": 0.09090900000001056
                },
                {
                    "name": "A5",
                    "midi": 81,
                    "time": 310.2724170000082,
                    "velocity": 0.5826771653543307,
                    "duration": 0.09090900000001056
                },
                {
                    "name": "G5",
                    "midi": 79,
                    "time": 310.3633260000082,
                    "velocity": 0.5748031496062992,
                    "duration": 0.09090900000001056
                },
                {
                    "name": "F5",
                    "midi": 77,
                    "time": 310.4542350000082,
                    "velocity": 0.5669291338582677,
                    "duration": 0.09090900000001056
                },
                {
                    "name": "D#5",
                    "midi": 75,
                    "time": 310.54514400000824,
                    "velocity": 0.5590551181102362,
                    "duration": 0.09090900000001056
                },
                {
                    "name": "D5",
                    "midi": 74,
                    "time": 310.63605300000825,
                    "velocity": 0.5511811023622047,
                    "duration": 0.09090900000001056
                },
                {
                    "name": "C5",
                    "midi": 72,
                    "time": 310.72696200000826,
                    "velocity": 0.5511811023622047,
                    "duration": 0.09090900000001056
                },
                {
                    "name": "A#4",
                    "midi": 70,
                    "time": 310.81787100000827,
                    "velocity": 0.5433070866141733,
                    "duration": 0.09090900000001056
                },
                {
                    "name": "G4",
                    "midi": 67,
                    "time": 310.9087800000083,
                    "velocity": 0.6062992125984252,
                    "duration": 0.09090900000001056
                },
                {
                    "name": "G5",
                    "midi": 79,
                    "time": 311.0905980000083,
                    "velocity": 0.5905511811023622,
                    "duration": 0.09090900000001056
                },
                {
                    "name": "F#5",
                    "midi": 78,
                    "time": 311.1815070000083,
                    "velocity": 0.5669291338582677,
                    "duration": 0.09090900000001056
                },
                {
                    "name": "G5",
                    "midi": 79,
                    "time": 311.2724160000083,
                    "velocity": 0.5905511811023622,
                    "duration": 0.09090900000001056
                },
                {
                    "name": "F#5",
                    "midi": 78,
                    "time": 311.36332500000833,
                    "velocity": 0.5590551181102362,
                    "duration": 0.09090900000001056
                },
                {
                    "name": "G5",
                    "midi": 79,
                    "time": 311.45423400000834,
                    "velocity": 0.5905511811023622,
                    "duration": 0.09090900000001056
                },
                {
                    "name": "F#5",
                    "midi": 78,
                    "time": 311.54514300000835,
                    "velocity": 0.5669291338582677,
                    "duration": 0.09090900000001056
                },
                {
                    "name": "G5",
                    "midi": 79,
                    "time": 311.63605200000836,
                    "velocity": 0.5826771653543307,
                    "duration": 0.09090900000001056
                },
                {
                    "name": "F5",
                    "midi": 77,
                    "time": 311.7269610000084,
                    "velocity": 0.5826771653543307,
                    "duration": 0.09090900000001056
                },
                {
                    "name": "D#5",
                    "midi": 75,
                    "time": 311.8178700000084,
                    "velocity": 0.5748031496062992,
                    "duration": 0.09090900000001056
                },
                {
                    "name": "D5",
                    "midi": 74,
                    "time": 311.9087790000084,
                    "velocity": 0.5669291338582677,
                    "duration": 0.09090900000001056
                },
                {
                    "name": "C5",
                    "midi": 72,
                    "time": 311.9996880000084,
                    "velocity": 0.5590551181102362,
                    "duration": 0.09090900000001056
                },
                {
                    "name": "A#4",
                    "midi": 70,
                    "time": 312.0905970000084,
                    "velocity": 0.5511811023622047,
                    "duration": 0.09090900000001056
                },
                {
                    "name": "A4",
                    "midi": 69,
                    "time": 312.1815060000084,
                    "velocity": 0.5511811023622047,
                    "duration": 0.09090900000001056
                },
                {
                    "name": "G4",
                    "midi": 67,
                    "time": 312.27241500000844,
                    "velocity": 0.5433070866141733,
                    "duration": 0.09090900000001056
                },
                {
                    "name": "F4",
                    "midi": 65,
                    "time": 312.36332400000845,
                    "velocity": 0.6062992125984252,
                    "duration": 0.18181800000002113
                },
                {
                    "name": "G4",
                    "midi": 67,
                    "time": 312.54514200000847,
                    "velocity": 0.5511811023622047,
                    "duration": 0.10909079999998994
                },
                {
                    "name": "A4",
                    "midi": 69,
                    "time": 312.6360510000085,
                    "velocity": 0.5669291338582677,
                    "duration": 0.1090907999999331
                },
                {
                    "name": "A#4",
                    "midi": 70,
                    "time": 312.72696000000843,
                    "velocity": 0.5748031496062992,
                    "duration": 0.1090907999999331
                },
                {
                    "name": "C5",
                    "midi": 72,
                    "time": 312.8178690000084,
                    "velocity": 0.5826771653543307,
                    "duration": 0.1090907999999331
                },
                {
                    "name": "D5",
                    "midi": 74,
                    "time": 312.90877800000834,
                    "velocity": 0.5984251968503937,
                    "duration": 0.1090907999999331
                },
                {
                    "name": "D#5",
                    "midi": 75,
                    "time": 312.9996870000083,
                    "velocity": 0.6062992125984252,
                    "duration": 0.1090907999999331
                },
                {
                    "name": "F5",
                    "midi": 77,
                    "time": 313.09059600000825,
                    "velocity": 0.6220472440944882,
                    "duration": 0.1090907999999331
                },
                {
                    "name": "G5",
                    "midi": 79,
                    "time": 313.1815050000082,
                    "velocity": 0.6299212598425197,
                    "duration": 0.1090907999999331
                },
                {
                    "name": "A5",
                    "midi": 81,
                    "time": 313.27241400000815,
                    "velocity": 0.6456692913385826,
                    "duration": 0.1090907999999331
                },
                {
                    "name": "A#5",
                    "midi": 82,
                    "time": 313.3633230000081,
                    "velocity": 0.6535433070866141,
                    "duration": 0.1090907999999331
                },
                {
                    "name": "C6",
                    "midi": 84,
                    "time": 313.45423200000806,
                    "velocity": 0.6614173228346457,
                    "duration": 0.1090907999999331
                },
                {
                    "name": "D6",
                    "midi": 86,
                    "time": 313.545141000008,
                    "velocity": 0.6771653543307087,
                    "duration": 0.1090907999999331
                },
                {
                    "name": "D#6",
                    "midi": 87,
                    "time": 313.63605000000797,
                    "velocity": 0.6850393700787402,
                    "duration": 0.1090907999999331
                },
                {
                    "name": "F6",
                    "midi": 89,
                    "time": 313.7269590000079,
                    "velocity": 0.7007874015748031,
                    "duration": 0.1090907999999331
                },
                {
                    "name": "A#5",
                    "midi": 82,
                    "time": 313.8178680000079,
                    "velocity": 0.5590551181102362,
                    "duration": 0.06060600000000704
                },
                {
                    "name": "C6",
                    "midi": 84,
                    "time": 313.8784740000079,
                    "velocity": 0.5196850393700787,
                    "duration": 0.06060600000000704
                },
                {
                    "name": "D6",
                    "midi": 86,
                    "time": 313.9390800000079,
                    "velocity": 0.5275590551181102,
                    "duration": 0.06060600000000704
                },
                {
                    "name": "C6",
                    "midi": 84,
                    "time": 313.9996860000079,
                    "velocity": 0.5669291338582677,
                    "duration": 0.06060600000000704
                },
                {
                    "name": "D6",
                    "midi": 86,
                    "time": 314.0602920000079,
                    "velocity": 0.5433070866141733,
                    "duration": 0.06060600000000704
                },
                {
                    "name": "C6",
                    "midi": 84,
                    "time": 314.1208980000079,
                    "velocity": 0.5748031496062992,
                    "duration": 0.06060600000000704
                },
                {
                    "name": "D6",
                    "midi": 86,
                    "time": 314.1815040000079,
                    "velocity": 0.5433070866141733,
                    "duration": 0.06060600000000704
                },
                {
                    "name": "C6",
                    "midi": 84,
                    "time": 314.2421100000079,
                    "velocity": 0.5826771653543307,
                    "duration": 0.06060600000000704
                },
                {
                    "name": "D6",
                    "midi": 86,
                    "time": 314.30271600000793,
                    "velocity": 0.5590551181102362,
                    "duration": 0.06060600000000704
                },
                {
                    "name": "C6",
                    "midi": 84,
                    "time": 314.36332200000794,
                    "velocity": 0.5905511811023622,
                    "duration": 0.06060600000000704
                },
                {
                    "name": "D6",
                    "midi": 86,
                    "time": 314.42392800000795,
                    "velocity": 0.5590551181102362,
                    "duration": 0.06060600000000704
                },
                {
                    "name": "C6",
                    "midi": 84,
                    "time": 314.48453400000795,
                    "velocity": 0.5905511811023622,
                    "duration": 0.06060600000000704
                },
                {
                    "name": "D6",
                    "midi": 86,
                    "time": 314.54514000000796,
                    "velocity": 0.5590551181102362,
                    "duration": 0.06060600000000704
                },
                {
                    "name": "C6",
                    "midi": 84,
                    "time": 314.60574600000797,
                    "velocity": 0.6062992125984252,
                    "duration": 0.06060600000000704
                },
                {
                    "name": "D6",
                    "midi": 86,
                    "time": 314.666352000008,
                    "velocity": 0.5748031496062992,
                    "duration": 0.06060600000000704
                },
                {
                    "name": "C6",
                    "midi": 84,
                    "time": 314.726958000008,
                    "velocity": 0.6220472440944882,
                    "duration": 0.06060600000000704
                },
                {
                    "name": "D6",
                    "midi": 86,
                    "time": 314.787564000008,
                    "velocity": 0.5826771653543307,
                    "duration": 0.06060600000000704
                },
                {
                    "name": "C6",
                    "midi": 84,
                    "time": 314.848170000008,
                    "velocity": 0.6220472440944882,
                    "duration": 0.06060600000000704
                },
                {
                    "name": "D6",
                    "midi": 86,
                    "time": 314.908776000008,
                    "velocity": 0.6456692913385826,
                    "duration": 0.09090900000001056
                },
                {
                    "name": "C6",
                    "midi": 84,
                    "time": 314.999685000008,
                    "velocity": 0.6220472440944882,
                    "duration": 0.09090900000001056
                },
                {
                    "name": "A#5",
                    "midi": 82,
                    "time": 315.090594000008,
                    "velocity": 0.6850393700787402,
                    "duration": 0.09090900000001056
                },
                {
                    "name": "C6",
                    "midi": 84,
                    "time": 315.18150300000804,
                    "velocity": 0.6692913385826772,
                    "duration": 0.09090900000001056
                },
                {
                    "name": "A#5",
                    "midi": 82,
                    "time": 315.27241200000805,
                    "velocity": 0.7322834645669292,
                    "duration": 0.3636359999999854
                },
                {
                    "name": "A#4",
                    "midi": 70,
                    "time": 316.545138000008,
                    "velocity": 0.4015748031496063,
                    "duration": 0.18181800000002113
                },
                {
                    "name": "G#5",
                    "midi": 80,
                    "time": 316.72695600000804,
                    "velocity": 0.4251968503937008,
                    "duration": 0.5454540000000065
                },
                {
                    "name": "F5",
                    "midi": 77,
                    "time": 317.27241000000805,
                    "velocity": 0.4094488188976378,
                    "duration": 0.18181800000002113
                },
                {
                    "name": "D5",
                    "midi": 74,
                    "time": 317.4542280000081,
                    "velocity": 0.3937007874015748,
                    "duration": 0.18181800000002113
                },
                {
                    "name": "D5",
                    "midi": 74,
                    "time": 317.8178640000081,
                    "velocity": 0.4015748031496063,
                    "duration": 0.18181800000002113
                },
                {
                    "name": "D#5",
                    "midi": 75,
                    "time": 318.18150000000816,
                    "velocity": 0.4409448818897638,
                    "duration": 0.18181800000002113
                },
                {
                    "name": "F5",
                    "midi": 77,
                    "time": 318.5451360000082,
                    "velocity": 0.44881889763779526,
                    "duration": 0.18181800000002113
                },
                {
                    "name": "G5",
                    "midi": 79,
                    "time": 318.90877200000824,
                    "velocity": 0.48031496062992124,
                    "duration": 0.18181800000002113
                },
                {
                    "name": "G5",
                    "midi": 79,
                    "time": 319.45422600000825,
                    "velocity": 0.41732283464566927,
                    "duration": 0.18181800000002113
                },
                {
                    "name": "F5",
                    "midi": 77,
                    "time": 319.63604400000827,
                    "velocity": 0.44881889763779526,
                    "duration": 0.1999998000000005
                },
                {
                    "name": "D#5",
                    "midi": 75,
                    "time": 319.8178620000083,
                    "velocity": 0.44881889763779526,
                    "duration": 0.19999979999994366
                },
                {
                    "name": "D5",
                    "midi": 74,
                    "time": 319.99968000000825,
                    "velocity": 0.4409448818897638,
                    "duration": 0.19999979999994366
                },
                {
                    "name": "C5",
                    "midi": 72,
                    "time": 320.1814980000082,
                    "velocity": 0.4409448818897638,
                    "duration": 0.19999979999994366
                },
                {
                    "name": "A#4",
                    "midi": 70,
                    "time": 320.3633160000082,
                    "velocity": 0.4330708661417323,
                    "duration": 0.19999979999994366
                },
                {
                    "name": "A4",
                    "midi": 69,
                    "time": 320.54513400000815,
                    "velocity": 0.4330708661417323,
                    "duration": 0.19999979999994366
                },
                {
                    "name": "D#5",
                    "midi": 75,
                    "time": 320.7269520000081,
                    "velocity": 0.4881889763779528,
                    "duration": 0.19999979999994366
                },
                {
                    "name": "A4",
                    "midi": 69,
                    "time": 320.9087700000081,
                    "velocity": 0.4566929133858268,
                    "duration": 0.18181799999996429
                },
                {
                    "name": "A#4",
                    "midi": 70,
                    "time": 321.09058800000804,
                    "velocity": 0.4566929133858268,
                    "duration": 0.09090900000001056
                },
                {
                    "name": "C5",
                    "midi": 72,
                    "time": 321.27240600000806,
                    "velocity": 0.47244094488188976,
                    "duration": 0.09090900000001056
                },
                {
                    "name": "D5",
                    "midi": 74,
                    "time": 321.4542240000081,
                    "velocity": 0.48031496062992124,
                    "duration": 0.09090900000001056
                },
                {
                    "name": "D#5",
                    "midi": 75,
                    "time": 321.6360420000081,
                    "velocity": 0.49606299212598426,
                    "duration": 0.09090900000001056
                },
                {
                    "name": "E5",
                    "midi": 76,
                    "time": 321.8178600000081,
                    "velocity": 0.5118110236220472,
                    "duration": 0.09090900000001056
                },
                {
                    "name": "F5",
                    "midi": 77,
                    "time": 321.99967800000815,
                    "velocity": 0.5275590551181102,
                    "duration": 0.09090900000001056
                },
                {
                    "name": "F#5",
                    "midi": 78,
                    "time": 322.18149600000817,
                    "velocity": 0.5433070866141733,
                    "duration": 0.09090900000001056
                },
                {
                    "name": "G5",
                    "midi": 79,
                    "time": 322.3633140000082,
                    "velocity": 0.5590551181102362,
                    "duration": 0.09090900000001056
                },
                {
                    "name": "G#5",
                    "midi": 80,
                    "time": 322.5451320000082,
                    "velocity": 0.5748031496062992,
                    "duration": 0.5454540000000065
                },
                {
                    "name": "G5",
                    "midi": 79,
                    "time": 323.0905860000082,
                    "velocity": 0.4566929133858268,
                    "duration": 0.06060600000000704
                },
                {
                    "name": "F5",
                    "midi": 77,
                    "time": 323.1511920000082,
                    "velocity": 0.4566929133858268,
                    "duration": 0.06060600000000704
                },
                {
                    "name": "D#5",
                    "midi": 75,
                    "time": 323.21179800000823,
                    "velocity": 0.4566929133858268,
                    "duration": 0.06060600000000704
                },
                {
                    "name": "D5",
                    "midi": 74,
                    "time": 323.27240400000824,
                    "velocity": 0.49606299212598426,
                    "duration": 0.09090900000001056
                },
                {
                    "name": "D5",
                    "midi": 74,
                    "time": 323.45422200000826,
                    "velocity": 0.47244094488188976,
                    "duration": 0.09090900000001056
                },
                {
                    "name": "D5",
                    "midi": 74,
                    "time": 323.6360400000083,
                    "velocity": 0.5039370078740157,
                    "duration": 0.09090900000001056
                },
                {
                    "name": "D5",
                    "midi": 74,
                    "time": 323.8178580000083,
                    "velocity": 0.47244094488188976,
                    "duration": 0.09090900000001056
                },
                {
                    "name": "D#5",
                    "midi": 75,
                    "time": 323.9996760000083,
                    "velocity": 0.5196850393700787,
                    "duration": 0.3636359999999854
                },
                {
                    "name": "F5",
                    "midi": 77,
                    "time": 324.3633120000083,
                    "velocity": 0.4645669291338583,
                    "duration": 0.06060600000000704
                },
                {
                    "name": "G5",
                    "midi": 79,
                    "time": 324.4239180000083,
                    "velocity": 0.4645669291338583,
                    "duration": 0.06060600000000704
                },
                {
                    "name": "F5",
                    "midi": 77,
                    "time": 324.4845240000083,
                    "velocity": 0.47244094488188976,
                    "duration": 0.06060600000000704
                },
                {
                    "name": "G5",
                    "midi": 79,
                    "time": 324.5451300000083,
                    "velocity": 0.47244094488188976,
                    "duration": 0.04545450000000528
                },
                {
                    "name": "F5",
                    "midi": 77,
                    "time": 324.60573600000833,
                    "velocity": 0.47244094488188976,
                    "duration": 0.04545450000000528
                },
                {
                    "name": "D#5",
                    "midi": 75,
                    "time": 324.63603900000834,
                    "velocity": 0.4645669291338583,
                    "duration": 0.04545450000000528
                },
                {
                    "name": "F5",
                    "midi": 77,
                    "time": 324.68149350000834,
                    "velocity": 0.49606299212598426,
                    "duration": 0.04545450000000528
                },
                {
                    "name": "G5",
                    "midi": 79,
                    "time": 324.72694800000835,
                    "velocity": 0.5196850393700787,
                    "duration": 0.3636359999999854
                },
                {
                    "name": "G5",
                    "midi": 79,
                    "time": 325.27240200000836,
                    "velocity": 0.4330708661417323,
                    "duration": 0.18181800000002113
                },
                {
                    "name": "F5",
                    "midi": 77,
                    "time": 325.4542200000084,
                    "velocity": 0.4645669291338583,
                    "duration": 0.1999998000000005
                },
                {
                    "name": "D#5",
                    "midi": 75,
                    "time": 325.6360380000084,
                    "velocity": 0.4566929133858268,
                    "duration": 0.19999979999994366
                },
                {
                    "name": "D5",
                    "midi": 74,
                    "time": 325.81785600000836,
                    "velocity": 0.44881889763779526,
                    "duration": 0.19999979999994366
                },
                {
                    "name": "C5",
                    "midi": 72,
                    "time": 325.9996740000083,
                    "velocity": 0.44881889763779526,
                    "duration": 0.19999979999994366
                },
                {
                    "name": "A#4",
                    "midi": 70,
                    "time": 326.1814920000083,
                    "velocity": 0.4409448818897638,
                    "duration": 0.19999979999994366
                },
                {
                    "name": "A4",
                    "midi": 69,
                    "time": 326.36331000000825,
                    "velocity": 0.4409448818897638,
                    "duration": 0.19999979999994366
                },
                {
                    "name": "D#5",
                    "midi": 75,
                    "time": 326.5451280000082,
                    "velocity": 0.47244094488188976,
                    "duration": 0.19999979999994366
                },
                {
                    "name": "A4",
                    "midi": 69,
                    "time": 326.7269460000082,
                    "velocity": 0.44881889763779526,
                    "duration": 0.19999979999994366
                },
                {
                    "name": "A#4",
                    "midi": 70,
                    "time": 326.90876400000815,
                    "velocity": 0.48031496062992124,
                    "duration": 0.3636359999999854
                },
                {
                    "name": "D5",
                    "midi": 74,
                    "time": 327.45421800000815,
                    "velocity": 0.41732283464566927,
                    "duration": 0.18181800000002113
                },
                {
                    "name": "F5",
                    "midi": 77,
                    "time": 327.6360360000082,
                    "velocity": 0.4409448818897638,
                    "duration": 0.18181800000002113
                },
                {
                    "name": "D#5",
                    "midi": 75,
                    "time": 327.8178540000082,
                    "velocity": 0.4251968503937008,
                    "duration": 0.18181800000002113
                },
                {
                    "name": "C5",
                    "midi": 72,
                    "time": 327.9996720000082,
                    "velocity": 0.4251968503937008,
                    "duration": 0.18181800000002113
                },
                {
                    "name": "A4",
                    "midi": 69,
                    "time": 328.18149000000824,
                    "velocity": 0.4251968503937008,
                    "duration": 0.18181800000002113
                },
                {
                    "name": "A#4",
                    "midi": 70,
                    "time": 328.36330800000826,
                    "velocity": 0.44881889763779526,
                    "duration": 0.3636359999999854
                },
                {
                    "name": "D5",
                    "midi": 74,
                    "time": 328.90876200000827,
                    "velocity": 0.3937007874015748,
                    "duration": 0.09090900000001056
                },
                {
                    "name": "A#4",
                    "midi": 70,
                    "time": 328.9996710000083,
                    "velocity": 0.3779527559055118,
                    "duration": 0.09090900000001056
                },
                {
                    "name": "F5",
                    "midi": 77,
                    "time": 329.0905800000083,
                    "velocity": 0.4251968503937008,
                    "duration": 0.18181800000002113
                },
                {
                    "name": "D#5",
                    "midi": 75,
                    "time": 329.2723980000083,
                    "velocity": 0.4015748031496063,
                    "duration": 0.18181800000002113
                },
                {
                    "name": "C5",
                    "midi": 72,
                    "time": 329.45421600000833,
                    "velocity": 0.4015748031496063,
                    "duration": 0.18181800000002113
                },
                {
                    "name": "A4",
                    "midi": 69,
                    "time": 329.63603400000835,
                    "velocity": 0.3858267716535433,
                    "duration": 0.18181800000002113
                },
                {
                    "name": "A#4",
                    "midi": 70,
                    "time": 329.8178520000084,
                    "velocity": 0.4330708661417323,
                    "duration": 0.3636359999999854
                },
                {
                    "name": "F5",
                    "midi": 77,
                    "time": 330.3633060000084,
                    "velocity": 0.7165354330708661,
                    "duration": 0.18181800000002113
                },
                {
                    "name": "A5",
                    "midi": 81,
                    "time": 330.5451240000084,
                    "velocity": 0.7559055118110236,
                    "duration": 0.18181800000002113
                },
                {
                    "name": "C5",
                    "midi": 72,
                    "time": 330.5451240000084,
                    "velocity": 0.6377952755905512,
                    "duration": 0.18181800000002113
                },
                {
                    "name": "D#5",
                    "midi": 75,
                    "time": 330.5451240000084,
                    "velocity": 0.6377952755905512,
                    "duration": 0.18181800000002113
                },
                {
                    "name": "F5",
                    "midi": 77,
                    "time": 330.5451240000084,
                    "velocity": 0.7559055118110236,
                    "duration": 0.18181800000002113
                },
                {
                    "name": "C5",
                    "midi": 72,
                    "time": 330.90876000000844,
                    "velocity": 0.6377952755905512,
                    "duration": 0.18181800000002113
                },
                {
                    "name": "D#5",
                    "midi": 75,
                    "time": 330.90876000000844,
                    "velocity": 0.6377952755905512,
                    "duration": 0.18181800000002113
                },
                {
                    "name": "F5",
                    "midi": 77,
                    "time": 330.90876000000844,
                    "velocity": 0.7559055118110236,
                    "duration": 0.18181800000002113
                },
                {
                    "name": "A5",
                    "midi": 81,
                    "time": 330.90876000000844,
                    "velocity": 0.7559055118110236,
                    "duration": 0.18181800000002113
                },
                {
                    "name": "D5",
                    "midi": 74,
                    "time": 331.2723960000085,
                    "velocity": 0.6614173228346457,
                    "duration": 0.18181800000002113
                },
                {
                    "name": "F5",
                    "midi": 77,
                    "time": 331.2723960000085,
                    "velocity": 0.7795275590551181,
                    "duration": 0.18181800000002113
                },
                {
                    "name": "A#4",
                    "midi": 70,
                    "time": 331.2723960000085,
                    "velocity": 0.6614173228346457,
                    "duration": 0.18181800000002113
                },
                {
                    "name": "A#5",
                    "midi": 82,
                    "time": 331.2723960000085,
                    "velocity": 0.7795275590551181,
                    "duration": 0.18181800000002113
                }
            ],
            "controlChanges": {
                "7": [
                    {
                        "number": 7,
                        "time": 0,
                        "value": 0.7874015748031497
                    }
                ],
                "10": [
                    {
                        "number": 10,
                        "time": 0,
                        "value": 0.5039370078740157
                    }
                ],
                "91": [
                    {
                        "number": 91,
                        "time": 0,
                        "value": 1
                    },
                    {
                        "number": 91,
                        "time": 11.636351999999993,
                        "value": 1
                    },
                    {
                        "number": 91,
                        "time": 58.18176000000058,
                        "value": 1
                    },
                    {
                        "number": 91,
                        "time": 69.81811200000062,
                        "value": 1
                    },
                    {
                        "number": 91,
                        "time": 161.4543840000003,
                        "value": 1
                    },
                    {
                        "number": 91,
                        "time": 173.0907360000007,
                        "value": 1
                    },
                    {
                        "number": 91,
                        "time": 250.18156800000602,
                        "value": 1
                    },
                    {
                        "number": 91,
                        "time": 253.09065600000605,
                        "value": 1
                    },
                    {
                        "number": 91,
                        "time": 294.90879600000767,
                        "value": 1
                    }
                ]
            },
            "id": 1,
            "name": "Piano right",
            "instrumentNumber": 0,
            "instrument": "acoustic grand piano",
            "instrumentFamily": "piano",
            "channelNumber": 0,
            "isPercussion": false
        },
        {
            "startTime": 0.363636,
            "duration": 331.4542140000039,
            "length": 1229,
            "notes": [
                {
                    "name": "A#3",
                    "midi": 58,
                    "time": 0.363636,
                    "velocity": 0.33070866141732286,
                    "duration": 0.363636
                },
                {
                    "name": "D4",
                    "midi": 62,
                    "time": 0.727272,
                    "velocity": 0.3779527559055118,
                    "duration": 0.09090900000000002
                },
                {
                    "name": "G4",
                    "midi": 67,
                    "time": 1.090908,
                    "velocity": 0.3700787401574803,
                    "duration": 0.0909089999999999
                },
                {
                    "name": "C4",
                    "midi": 60,
                    "time": 1.4545439999999998,
                    "velocity": 0.4094488188976378,
                    "duration": 0.36363600000000007
                },
                {
                    "name": "D#4",
                    "midi": 63,
                    "time": 1.81818,
                    "velocity": 0.3700787401574803,
                    "duration": 0.0909089999999999
                },
                {
                    "name": "F4",
                    "midi": 65,
                    "time": 2.181816,
                    "velocity": 0.3779527559055118,
                    "duration": 0.36363600000000007
                },
                {
                    "name": "D#4",
                    "midi": 63,
                    "time": 2.545452,
                    "velocity": 0.36220472440944884,
                    "duration": 0.36363600000000007
                },
                {
                    "name": "D4",
                    "midi": 62,
                    "time": 2.909088,
                    "velocity": 0.41732283464566927,
                    "duration": 0.36363600000000007
                },
                {
                    "name": "A3",
                    "midi": 57,
                    "time": 3.272724,
                    "velocity": 0.3700787401574803,
                    "duration": 0.36363600000000007
                },
                {
                    "name": "A#3",
                    "midi": 58,
                    "time": 3.6363600000000003,
                    "velocity": 0.4015748031496063,
                    "duration": 0.36363600000000007
                },
                {
                    "name": "D#3",
                    "midi": 51,
                    "time": 3.9999960000000003,
                    "velocity": 0.4015748031496063,
                    "duration": 0.3636359999999996
                },
                {
                    "name": "C4",
                    "midi": 60,
                    "time": 3.9999960000000003,
                    "velocity": 0.4015748031496063,
                    "duration": 0.3636359999999996
                },
                {
                    "name": "A#3",
                    "midi": 58,
                    "time": 4.363632,
                    "velocity": 0.4094488188976378,
                    "duration": 0.7272720000000001
                },
                {
                    "name": "F3",
                    "midi": 53,
                    "time": 4.363632,
                    "velocity": 0.4094488188976378,
                    "duration": 1.0909079999999998
                },
                {
                    "name": "A3",
                    "midi": 57,
                    "time": 5.090904,
                    "velocity": 0.3700787401574803,
                    "duration": 0.3636359999999996
                },
                {
                    "name": "A#3",
                    "midi": 58,
                    "time": 6.181812,
                    "velocity": 0.30708661417322836,
                    "duration": 0.3636359999999996
                },
                {
                    "name": "D4",
                    "midi": 62,
                    "time": 6.5454479999999995,
                    "velocity": 0.3700787401574803,
                    "duration": 0.0909089999999999
                },
                {
                    "name": "G4",
                    "midi": 67,
                    "time": 6.909083999999999,
                    "velocity": 0.36220472440944884,
                    "duration": 0.0909089999999999
                },
                {
                    "name": "C4",
                    "midi": 60,
                    "time": 7.272719999999999,
                    "velocity": 0.4015748031496063,
                    "duration": 0.3636359999999996
                },
                {
                    "name": "D#4",
                    "midi": 63,
                    "time": 7.636355999999998,
                    "velocity": 0.3543307086614173,
                    "duration": 0.0909089999999999
                },
                {
                    "name": "F4",
                    "midi": 65,
                    "time": 7.999991999999998,
                    "velocity": 0.3779527559055118,
                    "duration": 0.3636360000000005
                },
                {
                    "name": "D#4",
                    "midi": 63,
                    "time": 8.363627999999999,
                    "velocity": 0.33858267716535434,
                    "duration": 0.3636359999999996
                },
                {
                    "name": "D4",
                    "midi": 62,
                    "time": 8.727263999999998,
                    "velocity": 0.4015748031496063,
                    "duration": 0.3636359999999996
                },
                {
                    "name": "D#3",
                    "midi": 51,
                    "time": 9.090899999999998,
                    "velocity": 0.3700787401574803,
                    "duration": 0.3636359999999996
                },
                {
                    "name": "D#4",
                    "midi": 63,
                    "time": 9.090899999999998,
                    "velocity": 0.3700787401574803,
                    "duration": 0.3636359999999996
                },
                {
                    "name": "D4",
                    "midi": 62,
                    "time": 9.454535999999997,
                    "velocity": 0.3937007874015748,
                    "duration": 0.3636359999999996
                },
                {
                    "name": "F3",
                    "midi": 53,
                    "time": 9.454535999999997,
                    "velocity": 0.3937007874015748,
                    "duration": 0.7272719999999993
                },
                {
                    "name": "C4",
                    "midi": 60,
                    "time": 9.818171999999997,
                    "velocity": 0.3779527559055118,
                    "duration": 0.3636359999999996
                },
                {
                    "name": "A#3",
                    "midi": 58,
                    "time": 10.181807999999997,
                    "velocity": 0.4015748031496063,
                    "duration": 0.3636359999999996
                },
                {
                    "name": "A#3",
                    "midi": 58,
                    "time": 11.636351999999997,
                    "velocity": 0.5039370078740157,
                    "duration": 0.1818179999999998
                },
                {
                    "name": "F4",
                    "midi": 65,
                    "time": 11.818169999999997,
                    "velocity": 0.4251968503937008,
                    "duration": 0.1818179999999998
                },
                {
                    "name": "D4",
                    "midi": 62,
                    "time": 11.999987999999997,
                    "velocity": 0.4645669291338583,
                    "duration": 0.1818179999999998
                },
                {
                    "name": "F4",
                    "midi": 65,
                    "time": 12.181805999999996,
                    "velocity": 0.4251968503937008,
                    "duration": 0.1818179999999998
                },
                {
                    "name": "G3",
                    "midi": 55,
                    "time": 12.363623999999996,
                    "velocity": 0.49606299212598426,
                    "duration": 0.1818179999999998
                },
                {
                    "name": "D4",
                    "midi": 62,
                    "time": 12.545441999999996,
                    "velocity": 0.4409448818897638,
                    "duration": 0.1818179999999998
                },
                {
                    "name": "A#3",
                    "midi": 58,
                    "time": 12.727259999999996,
                    "velocity": 0.4645669291338583,
                    "duration": 0.1818179999999998
                },
                {
                    "name": "D4",
                    "midi": 62,
                    "time": 12.909077999999996,
                    "velocity": 0.4330708661417323,
                    "duration": 0.1818179999999998
                },
                {
                    "name": "D#3",
                    "midi": 51,
                    "time": 13.090895999999995,
                    "velocity": 0.5039370078740157,
                    "duration": 0.1818179999999998
                },
                {
                    "name": "C4",
                    "midi": 60,
                    "time": 13.272713999999995,
                    "velocity": 0.4251968503937008,
                    "duration": 0.1818179999999998
                },
                {
                    "name": "G3",
                    "midi": 55,
                    "time": 13.454531999999995,
                    "velocity": 0.4645669291338583,
                    "duration": 0.1818179999999998
                },
                {
                    "name": "C4",
                    "midi": 60,
                    "time": 13.636349999999995,
                    "velocity": 0.4330708661417323,
                    "duration": 0.1818179999999998
                },
                {
                    "name": "F3",
                    "midi": 53,
                    "time": 13.818167999999995,
                    "velocity": 0.5039370078740157,
                    "duration": 0.1818179999999998
                },
                {
                    "name": "D#4",
                    "midi": 63,
                    "time": 13.999985999999994,
                    "velocity": 0.4251968503937008,
                    "duration": 0.1818179999999998
                },
                {
                    "name": "C4",
                    "midi": 60,
                    "time": 14.181803999999994,
                    "velocity": 0.47244094488188976,
                    "duration": 0.1818179999999998
                },
                {
                    "name": "D#4",
                    "midi": 63,
                    "time": 14.363621999999994,
                    "velocity": 0.4409448818897638,
                    "duration": 0.1818179999999998
                },
                {
                    "name": "D4",
                    "midi": 62,
                    "time": 14.545439999999994,
                    "velocity": 0.5196850393700787,
                    "duration": 0.3636359999999996
                },
                {
                    "name": "D4",
                    "midi": 62,
                    "time": 14.909075999999994,
                    "velocity": 0.47244094488188976,
                    "duration": 0.7272719999999993
                },
                {
                    "name": "A3",
                    "midi": 57,
                    "time": 14.909075999999994,
                    "velocity": 0.47244094488188976,
                    "duration": 0.3636359999999996
                },
                {
                    "name": "A#3",
                    "midi": 58,
                    "time": 15.272711999999993,
                    "velocity": 0.5039370078740157,
                    "duration": 0.3636359999999996
                },
                {
                    "name": "D#3",
                    "midi": 51,
                    "time": 15.636347999999993,
                    "velocity": 0.5039370078740157,
                    "duration": 0.3636359999999996
                },
                {
                    "name": "C4",
                    "midi": 60,
                    "time": 15.636347999999993,
                    "velocity": 0.5039370078740157,
                    "duration": 0.3636359999999996
                },
                {
                    "name": "A#3",
                    "midi": 58,
                    "time": 15.999983999999992,
                    "velocity": 0.5118110236220472,
                    "duration": 0.727272000000001
                },
                {
                    "name": "F3",
                    "midi": 53,
                    "time": 15.999983999999992,
                    "velocity": 0.5118110236220472,
                    "duration": 1.0909080000000007
                },
                {
                    "name": "A3",
                    "midi": 57,
                    "time": 16.727255999999993,
                    "velocity": 0.47244094488188976,
                    "duration": 0.3636359999999996
                },
                {
                    "name": "A#3",
                    "midi": 58,
                    "time": 17.454527999999993,
                    "velocity": 0.5118110236220472,
                    "duration": 0.1818179999999998
                },
                {
                    "name": "F4",
                    "midi": 65,
                    "time": 17.636345999999993,
                    "velocity": 0.4330708661417323,
                    "duration": 0.1818179999999998
                },
                {
                    "name": "D4",
                    "midi": 62,
                    "time": 17.818163999999992,
                    "velocity": 0.47244094488188976,
                    "duration": 0.1818179999999998
                },
                {
                    "name": "F4",
                    "midi": 65,
                    "time": 17.999981999999992,
                    "velocity": 0.4330708661417323,
                    "duration": 0.1818179999999998
                },
                {
                    "name": "G3",
                    "midi": 55,
                    "time": 18.181799999999992,
                    "velocity": 0.5039370078740157,
                    "duration": 0.0909089999999999
                },
                {
                    "name": "D4",
                    "midi": 62,
                    "time": 18.363617999999992,
                    "velocity": 0.44881889763779526,
                    "duration": 0.0909089999999999
                },
                {
                    "name": "A#3",
                    "midi": 58,
                    "time": 18.54543599999999,
                    "velocity": 0.47244094488188976,
                    "duration": 0.0909089999999999
                },
                {
                    "name": "D4",
                    "midi": 62,
                    "time": 18.72725399999999,
                    "velocity": 0.44881889763779526,
                    "duration": 0.0909089999999999
                },
                {
                    "name": "D#3",
                    "midi": 51,
                    "time": 18.90907199999999,
                    "velocity": 0.5039370078740157,
                    "duration": 0.1818179999999998
                },
                {
                    "name": "C4",
                    "midi": 60,
                    "time": 19.09088999999999,
                    "velocity": 0.4330708661417323,
                    "duration": 0.1818179999999998
                },
                {
                    "name": "G3",
                    "midi": 55,
                    "time": 19.27270799999999,
                    "velocity": 0.4645669291338583,
                    "duration": 0.1818179999999998
                },
                {
                    "name": "C4",
                    "midi": 60,
                    "time": 19.45452599999999,
                    "velocity": 0.4330708661417323,
                    "duration": 0.1818179999999998
                },
                {
                    "name": "F3",
                    "midi": 53,
                    "time": 19.63634399999999,
                    "velocity": 0.5039370078740157,
                    "duration": 0.1818179999999998
                },
                {
                    "name": "D#4",
                    "midi": 63,
                    "time": 19.81816199999999,
                    "velocity": 0.4330708661417323,
                    "duration": 0.1818179999999998
                },
                {
                    "name": "C4",
                    "midi": 60,
                    "time": 19.99997999999999,
                    "velocity": 0.4645669291338583,
                    "duration": 0.1818179999999998
                },
                {
                    "name": "D#4",
                    "midi": 63,
                    "time": 20.18179799999999,
                    "velocity": 0.4330708661417323,
                    "duration": 0.1818179999999998
                },
                {
                    "name": "A#3",
                    "midi": 58,
                    "time": 20.36361599999999,
                    "velocity": 0.4645669291338583,
                    "duration": 0.7272719999999993
                },
                {
                    "name": "D3",
                    "midi": 50,
                    "time": 20.36361599999999,
                    "velocity": 0.4645669291338583,
                    "duration": 0.3636359999999996
                },
                {
                    "name": "D#3",
                    "midi": 51,
                    "time": 20.72725199999999,
                    "velocity": 0.4330708661417323,
                    "duration": 0.3636359999999996
                },
                {
                    "name": "D4",
                    "midi": 62,
                    "time": 21.09088799999999,
                    "velocity": 0.4645669291338583,
                    "duration": 0.3636359999999996
                },
                {
                    "name": "F3",
                    "midi": 53,
                    "time": 21.09088799999999,
                    "velocity": 0.4645669291338583,
                    "duration": 0.7272719999999993
                },
                {
                    "name": "D#4",
                    "midi": 63,
                    "time": 21.45452399999999,
                    "velocity": 0.4409448818897638,
                    "duration": 0.3636359999999996
                },
                {
                    "name": "A#3",
                    "midi": 58,
                    "time": 21.81815999999999,
                    "velocity": 0.4645669291338583,
                    "duration": 0.3636359999999996
                },
                {
                    "name": "D4",
                    "midi": 62,
                    "time": 21.81815999999999,
                    "velocity": 0.4645669291338583,
                    "duration": 0.3636359999999996
                },
                {
                    "name": "A#2",
                    "midi": 46,
                    "time": 22.181795999999988,
                    "velocity": 0.5039370078740157,
                    "duration": 0.3636359999999996
                },
                {
                    "name": "A#3",
                    "midi": 58,
                    "time": 23.636339999999986,
                    "velocity": 0.3779527559055118,
                    "duration": 0.13636350000000164
                },
                {
                    "name": "G3",
                    "midi": 55,
                    "time": 23.99997599999999,
                    "velocity": 0.3779527559055118,
                    "duration": 0.3636359999999996
                },
                {
                    "name": "D#3",
                    "midi": 51,
                    "time": 24.36361199999999,
                    "velocity": 0.3543307086614173,
                    "duration": 0.3636359999999996
                },
                {
                    "name": "F3",
                    "midi": 53,
                    "time": 24.72724799999999,
                    "velocity": 0.3700787401574803,
                    "duration": 0.3636359999999996
                },
                {
                    "name": "F2",
                    "midi": 41,
                    "time": 25.09088399999999,
                    "velocity": 0.4330708661417323,
                    "duration": 0.3636359999999996
                },
                {
                    "name": "C4",
                    "midi": 60,
                    "time": 26.545427999999987,
                    "velocity": 0.3543307086614173,
                    "duration": 0.13636350000000164
                },
                {
                    "name": "A3",
                    "midi": 57,
                    "time": 26.90906399999999,
                    "velocity": 0.3543307086614173,
                    "duration": 0.3636359999999996
                },
                {
                    "name": "F3",
                    "midi": 53,
                    "time": 27.27269999999999,
                    "velocity": 0.33070866141732286,
                    "duration": 0.3636359999999996
                },
                {
                    "name": "A#3",
                    "midi": 58,
                    "time": 27.63633599999999,
                    "velocity": 0.36220472440944884,
                    "duration": 0.3636359999999996
                },
                {
                    "name": "A#2",
                    "midi": 46,
                    "time": 27.99997199999999,
                    "velocity": 0.5118110236220472,
                    "duration": 0.3636359999999996
                },
                {
                    "name": "A3",
                    "midi": 57,
                    "time": 29.272697999999988,
                    "velocity": 0.41732283464566927,
                    "duration": 0.1818179999999998
                },
                {
                    "name": "C4",
                    "midi": 60,
                    "time": 29.454515999999987,
                    "velocity": 0.44881889763779526,
                    "duration": 0.1818179999999998
                },
                {
                    "name": "A3",
                    "midi": 57,
                    "time": 29.636333999999987,
                    "velocity": 0.41732283464566927,
                    "duration": 0.1818179999999998
                },
                {
                    "name": "F4",
                    "midi": 65,
                    "time": 29.818151999999987,
                    "velocity": 0.5275590551181102,
                    "duration": 0.3636359999999996
                },
                {
                    "name": "G3",
                    "midi": 55,
                    "time": 30.727241999999986,
                    "velocity": 0.41732283464566927,
                    "duration": 0.1818179999999998
                },
                {
                    "name": "A#3",
                    "midi": 58,
                    "time": 30.909059999999986,
                    "velocity": 0.4566929133858268,
                    "duration": 0.1818179999999998
                },
                {
                    "name": "G3",
                    "midi": 55,
                    "time": 31.090877999999986,
                    "velocity": 0.4251968503937008,
                    "duration": 0.1818179999999998
                },
                {
                    "name": "E4",
                    "midi": 64,
                    "time": 31.272695999999986,
                    "velocity": 0.5196850393700787,
                    "duration": 0.3636359999999996
                },
                {
                    "name": "F4",
                    "midi": 65,
                    "time": 31.999967999999985,
                    "velocity": 0.5433070866141733,
                    "duration": 0.3636360000000032
                },
                {
                    "name": "F3",
                    "midi": 53,
                    "time": 33.09087599999999,
                    "velocity": 0.41732283464566927,
                    "duration": 0.3636359999999996
                },
                {
                    "name": "C3",
                    "midi": 48,
                    "time": 33.45451199999999,
                    "velocity": 0.41732283464566927,
                    "duration": 0.1818179999999998
                },
                {
                    "name": "C4",
                    "midi": 60,
                    "time": 33.63632999999999,
                    "velocity": 0.3700787401574803,
                    "duration": 0.1818179999999998
                },
                {
                    "name": "B3",
                    "midi": 59,
                    "time": 33.81814799999999,
                    "velocity": 0.3858267716535433,
                    "duration": 0.1818179999999998
                },
                {
                    "name": "C4",
                    "midi": 60,
                    "time": 33.999965999999986,
                    "velocity": 0.3700787401574803,
                    "duration": 0.1818179999999998
                },
                {
                    "name": "A#3",
                    "midi": 58,
                    "time": 34.181783999999986,
                    "velocity": 0.4251968503937008,
                    "duration": 0.1818179999999998
                },
                {
                    "name": "C4",
                    "midi": 60,
                    "time": 34.363601999999986,
                    "velocity": 0.3937007874015748,
                    "duration": 0.1818179999999998
                },
                {
                    "name": "A#3",
                    "midi": 58,
                    "time": 34.545419999999986,
                    "velocity": 0.3543307086614173,
                    "duration": 0.1818179999999998
                },
                {
                    "name": "C4",
                    "midi": 60,
                    "time": 34.727237999999986,
                    "velocity": 0.3228346456692913,
                    "duration": 0.1818179999999998
                },
                {
                    "name": "A3",
                    "midi": 57,
                    "time": 34.909055999999985,
                    "velocity": 0.3779527559055118,
                    "duration": 0.1818179999999998
                },
                {
                    "name": "C4",
                    "midi": 60,
                    "time": 35.090873999999985,
                    "velocity": 0.3543307086614173,
                    "duration": 0.1818179999999998
                },
                {
                    "name": "A3",
                    "midi": 57,
                    "time": 35.272691999999985,
                    "velocity": 0.4015748031496063,
                    "duration": 0.1818179999999998
                },
                {
                    "name": "C4",
                    "midi": 60,
                    "time": 35.454509999999985,
                    "velocity": 0.3700787401574803,
                    "duration": 0.1818179999999998
                },
                {
                    "name": "A#3",
                    "midi": 58,
                    "time": 35.636327999999985,
                    "velocity": 0.41732283464566927,
                    "duration": 0.1818179999999998
                },
                {
                    "name": "C4",
                    "midi": 60,
                    "time": 35.818145999999984,
                    "velocity": 0.3937007874015748,
                    "duration": 0.1818179999999998
                },
                {
                    "name": "A#3",
                    "midi": 58,
                    "time": 35.999963999999984,
                    "velocity": 0.3700787401574803,
                    "duration": 0.1818179999999998
                },
                {
                    "name": "C4",
                    "midi": 60,
                    "time": 36.181781999999984,
                    "velocity": 0.33858267716535434,
                    "duration": 0.1818179999999998
                },
                {
                    "name": "A3",
                    "midi": 57,
                    "time": 36.363599999999984,
                    "velocity": 0.36220472440944884,
                    "duration": 0.1818179999999998
                },
                {
                    "name": "C4",
                    "midi": 60,
                    "time": 36.545417999999984,
                    "velocity": 0.28346456692913385,
                    "duration": 0.1818179999999998
                },
                {
                    "name": "A3",
                    "midi": 57,
                    "time": 36.727235999999984,
                    "velocity": 0.33858267716535434,
                    "duration": 0.1818179999999998
                },
                {
                    "name": "C4",
                    "midi": 60,
                    "time": 36.90905399999998,
                    "velocity": 0.28346456692913385,
                    "duration": 0.1818179999999998
                },
                {
                    "name": "A#3",
                    "midi": 58,
                    "time": 37.09087199999998,
                    "velocity": 0.4409448818897638,
                    "duration": 0.1818179999999998
                },
                {
                    "name": "C4",
                    "midi": 60,
                    "time": 37.27268999999998,
                    "velocity": 0.4330708661417323,
                    "duration": 0.1818179999999998
                },
                {
                    "name": "A#3",
                    "midi": 58,
                    "time": 37.45450799999998,
                    "velocity": 0.3858267716535433,
                    "duration": 0.1818179999999998
                },
                {
                    "name": "C4",
                    "midi": 60,
                    "time": 37.63632599999998,
                    "velocity": 0.36220472440944884,
                    "duration": 0.1818179999999998
                },
                {
                    "name": "A3",
                    "midi": 57,
                    "time": 37.81814399999998,
                    "velocity": 0.3779527559055118,
                    "duration": 0.1818179999999998
                },
                {
                    "name": "C4",
                    "midi": 60,
                    "time": 37.99996199999998,
                    "velocity": 0.3543307086614173,
                    "duration": 0.1818179999999998
                },
                {
                    "name": "A3",
                    "midi": 57,
                    "time": 38.18177999999998,
                    "velocity": 0.3937007874015748,
                    "duration": 0.1818179999999998
                },
                {
                    "name": "C4",
                    "midi": 60,
                    "time": 38.36359799999998,
                    "velocity": 0.3700787401574803,
                    "duration": 0.1818179999999998
                },
                {
                    "name": "A#3",
                    "midi": 58,
                    "time": 38.54541599999998,
                    "velocity": 0.41732283464566927,
                    "duration": 0.1818179999999998
                },
                {
                    "name": "C4",
                    "midi": 60,
                    "time": 38.72723399999998,
                    "velocity": 0.3937007874015748,
                    "duration": 0.1818179999999998
                },
                {
                    "name": "A#3",
                    "midi": 58,
                    "time": 38.90905199999998,
                    "velocity": 0.3779527559055118,
                    "duration": 0.1818179999999998
                },
                {
                    "name": "C4",
                    "midi": 60,
                    "time": 39.09086999999998,
                    "velocity": 0.3543307086614173,
                    "duration": 0.1818179999999998
                },
                {
                    "name": "A3",
                    "midi": 57,
                    "time": 39.27268799999998,
                    "velocity": 0.41732283464566927,
                    "duration": 0.1818179999999998
                },
                {
                    "name": "C4",
                    "midi": 60,
                    "time": 39.45450599999998,
                    "velocity": 0.3858267716535433,
                    "duration": 0.1818179999999998
                },
                {
                    "name": "A3",
                    "midi": 57,
                    "time": 39.63632399999998,
                    "velocity": 0.41732283464566927,
                    "duration": 0.1818179999999998
                },
                {
                    "name": "C4",
                    "midi": 60,
                    "time": 39.81814199999998,
                    "velocity": 0.3858267716535433,
                    "duration": 0.1818179999999998
                },
                {
                    "name": "A#3",
                    "midi": 58,
                    "time": 39.99995999999998,
                    "velocity": 0.4251968503937008,
                    "duration": 0.1818179999999998
                },
                {
                    "name": "C4",
                    "midi": 60,
                    "time": 40.18177799999998,
                    "velocity": 0.3779527559055118,
                    "duration": 0.1818179999999998
                },
                {
                    "name": "A#3",
                    "midi": 58,
                    "time": 40.36359599999998,
                    "velocity": 0.44881889763779526,
                    "duration": 0.1818179999999998
                },
                {
                    "name": "C4",
                    "midi": 60,
                    "time": 40.54541399999998,
                    "velocity": 0.4094488188976378,
                    "duration": 0.1818179999999998
                },
                {
                    "name": "A3",
                    "midi": 57,
                    "time": 40.72723199999998,
                    "velocity": 0.5039370078740157,
                    "duration": 0.3636359999999996
                },
                {
                    "name": "F4",
                    "midi": 65,
                    "time": 41.81813999999998,
                    "velocity": 0.5590551181102362,
                    "duration": 0.3636359999999996
                },
                {
                    "name": "A3",
                    "midi": 57,
                    "time": 41.81813999999998,
                    "velocity": 0.5590551181102362,
                    "duration": 0.3636359999999996
                },
                {
                    "name": "A#3",
                    "midi": 58,
                    "time": 42.18177599999998,
                    "velocity": 0.6377952755905512,
                    "duration": 0.3636359999999996
                },
                {
                    "name": "F4",
                    "midi": 65,
                    "time": 42.18177599999998,
                    "velocity": 0.6377952755905512,
                    "duration": 0.3636359999999996
                },
                {
                    "name": "F4",
                    "midi": 65,
                    "time": 43.27268399999998,
                    "velocity": 0.4015748031496063,
                    "duration": 0.3636359999999996
                },
                {
                    "name": "G4",
                    "midi": 67,
                    "time": 43.27268399999998,
                    "velocity": 0.4015748031496063,
                    "duration": 0.3636359999999996
                },
                {
                    "name": "A#3",
                    "midi": 58,
                    "time": 43.27268399999998,
                    "velocity": 0.4015748031496063,
                    "duration": 0.3636359999999996
                },
                {
                    "name": "C4",
                    "midi": 60,
                    "time": 43.63631999999998,
                    "velocity": 0.4330708661417323,
                    "duration": 0.1818179999999998
                },
                {
                    "name": "A4",
                    "midi": 69,
                    "time": 43.818137999999976,
                    "velocity": 0.4015748031496063,
                    "duration": 0.1818179999999998
                },
                {
                    "name": "F4",
                    "midi": 65,
                    "time": 43.999955999999976,
                    "velocity": 0.4409448818897638,
                    "duration": 0.1818179999999998
                },
                {
                    "name": "A4",
                    "midi": 69,
                    "time": 44.181773999999976,
                    "velocity": 0.4015748031496063,
                    "duration": 0.1818179999999998
                },
                {
                    "name": "C4",
                    "midi": 60,
                    "time": 44.363591999999976,
                    "velocity": 0.4330708661417323,
                    "duration": 0.1818179999999998
                },
                {
                    "name": "A#4",
                    "midi": 70,
                    "time": 44.545409999999976,
                    "velocity": 0.3858267716535433,
                    "duration": 0.1818179999999998
                },
                {
                    "name": "E4",
                    "midi": 64,
                    "time": 44.727227999999975,
                    "velocity": 0.4330708661417323,
                    "duration": 0.1818179999999998
                },
                {
                    "name": "A#4",
                    "midi": 70,
                    "time": 44.909045999999975,
                    "velocity": 0.3858267716535433,
                    "duration": 0.1818179999999998
                },
                {
                    "name": "F4",
                    "midi": 65,
                    "time": 45.090863999999975,
                    "velocity": 0.4330708661417323,
                    "duration": 0.3636359999999996
                },
                {
                    "name": "G4",
                    "midi": 67,
                    "time": 45.636317999999974,
                    "velocity": 0.48031496062992124,
                    "duration": 0.1818179999999998
                },
                {
                    "name": "A4",
                    "midi": 69,
                    "time": 45.818135999999974,
                    "velocity": 0.5196850393700787,
                    "duration": 0.3636359999999996
                },
                {
                    "name": "A3",
                    "midi": 57,
                    "time": 46.363589999999974,
                    "velocity": 0.47244094488188976,
                    "duration": 0.1818179999999998
                },
                {
                    "name": "A#3",
                    "midi": 58,
                    "time": 46.54540799999997,
                    "velocity": 0.5196850393700787,
                    "duration": 0.3636359999999996
                },
                {
                    "name": "A#1",
                    "midi": 34,
                    "time": 47.27267999999997,
                    "velocity": 0.5275590551181102,
                    "duration": 0.3636359999999996
                },
                {
                    "name": "A#2",
                    "midi": 46,
                    "time": 47.27267999999997,
                    "velocity": 0.5275590551181102,
                    "duration": 0.3636359999999996
                },
                {
                    "name": "C3",
                    "midi": 48,
                    "time": 47.99995199999997,
                    "velocity": 0.44881889763779526,
                    "duration": 0.1818179999999998
                },
                {
                    "name": "A3",
                    "midi": 57,
                    "time": 48.18176999999997,
                    "velocity": 0.4251968503937008,
                    "duration": 0.1818179999999998
                },
                {
                    "name": "F3",
                    "midi": 53,
                    "time": 48.36358799999997,
                    "velocity": 0.44881889763779526,
                    "duration": 0.1818179999999998
                },
                {
                    "name": "A3",
                    "midi": 57,
                    "time": 48.54540599999997,
                    "velocity": 0.4251968503937008,
                    "duration": 0.1818179999999998
                },
                {
                    "name": "C3",
                    "midi": 48,
                    "time": 48.72722399999997,
                    "velocity": 0.49606299212598426,
                    "duration": 0.1818179999999998
                },
                {
                    "name": "A3",
                    "midi": 57,
                    "time": 48.90904199999997,
                    "velocity": 0.44881889763779526,
                    "duration": 0.1818179999999998
                },
                {
                    "name": "F3",
                    "midi": 53,
                    "time": 49.09085999999997,
                    "velocity": 0.5275590551181102,
                    "duration": 0.1818179999999998
                },
                {
                    "name": "A3",
                    "midi": 57,
                    "time": 49.27267799999997,
                    "velocity": 0.48031496062992124,
                    "duration": 0.1818179999999998
                },
                {
                    "name": "C3",
                    "midi": 48,
                    "time": 49.45449599999997,
                    "velocity": 0.44881889763779526,
                    "duration": 0.1818179999999998
                },
                {
                    "name": "A#3",
                    "midi": 58,
                    "time": 49.63631399999997,
                    "velocity": 0.41732283464566927,
                    "duration": 0.1818179999999998
                },
                {
                    "name": "E3",
                    "midi": 52,
                    "time": 49.81813199999997,
                    "velocity": 0.44881889763779526,
                    "duration": 0.1818179999999998
                },
                {
                    "name": "A#3",
                    "midi": 58,
                    "time": 49.99994999999997,
                    "velocity": 0.41732283464566927,
                    "duration": 0.1818179999999998
                },
                {
                    "name": "C3",
                    "midi": 48,
                    "time": 50.18176799999997,
                    "velocity": 0.44881889763779526,
                    "duration": 0.1818179999999998
                },
                {
                    "name": "A#3",
                    "midi": 58,
                    "time": 50.36358599999997,
                    "velocity": 0.41732283464566927,
                    "duration": 0.1818179999999998
                },
                {
                    "name": "E3",
                    "midi": 52,
                    "time": 50.54540399999997,
                    "velocity": 0.44881889763779526,
                    "duration": 0.1818179999999998
                },
                {
                    "name": "A#3",
                    "midi": 58,
                    "time": 50.72722199999997,
                    "velocity": 0.4094488188976378,
                    "duration": 0.1818179999999998
                },
                {
                    "name": "F3",
                    "midi": 53,
                    "time": 50.90903999999997,
                    "velocity": 0.44881889763779526,
                    "duration": 0.09090900000000346
                },
                {
                    "name": "A3",
                    "midi": 57,
                    "time": 50.90903999999997,
                    "velocity": 0.44881889763779526,
                    "duration": 0.09090900000000346
                },
                {
                    "name": "A3",
                    "midi": 57,
                    "time": 51.272675999999976,
                    "velocity": 0.3700787401574803,
                    "duration": 0.3636359999999996
                },
                {
                    "name": "F3",
                    "midi": 53,
                    "time": 51.272675999999976,
                    "velocity": 0.3700787401574803,
                    "duration": 0.3636359999999996
                },
                {
                    "name": "A3",
                    "midi": 57,
                    "time": 51.999947999999975,
                    "velocity": 0.3700787401574803,
                    "duration": 0.3636359999999996
                },
                {
                    "name": "F3",
                    "midi": 53,
                    "time": 51.999947999999975,
                    "velocity": 0.3700787401574803,
                    "duration": 0.3636359999999996
                },
                {
                    "name": "G3",
                    "midi": 55,
                    "time": 52.363583999999975,
                    "velocity": 0.3937007874015748,
                    "duration": 0.09090900000000346
                },
                {
                    "name": "A#3",
                    "midi": 58,
                    "time": 52.363583999999975,
                    "velocity": 0.3937007874015748,
                    "duration": 0.09090900000000346
                },
                {
                    "name": "F3",
                    "midi": 53,
                    "time": 52.363583999999975,
                    "velocity": 0.3937007874015748,
                    "duration": 0.09090900000000346
                },
                {
                    "name": "F3",
                    "midi": 53,
                    "time": 52.72721999999998,
                    "velocity": 0.3937007874015748,
                    "duration": 0.3636359999999996
                },
                {
                    "name": "G3",
                    "midi": 55,
                    "time": 52.72721999999998,
                    "velocity": 0.3937007874015748,
                    "duration": 0.3636359999999996
                },
                {
                    "name": "A#3",
                    "midi": 58,
                    "time": 52.72721999999998,
                    "velocity": 0.3937007874015748,
                    "duration": 0.3636359999999996
                },
                {
                    "name": "F3",
                    "midi": 53,
                    "time": 53.45449199999998,
                    "velocity": 0.4251968503937008,
                    "duration": 0.3636359999999996
                },
                {
                    "name": "G#3",
                    "midi": 56,
                    "time": 53.45449199999998,
                    "velocity": 0.4251968503937008,
                    "duration": 0.3636359999999996
                },
                {
                    "name": "B3",
                    "midi": 59,
                    "time": 53.45449199999998,
                    "velocity": 0.4251968503937008,
                    "duration": 0.3636359999999996
                },
                {
                    "name": "F3",
                    "midi": 53,
                    "time": 53.81812799999998,
                    "velocity": 0.4330708661417323,
                    "duration": 0.7272719999999993
                },
                {
                    "name": "C4",
                    "midi": 60,
                    "time": 53.81812799999998,
                    "velocity": 0.4330708661417323,
                    "duration": 0.3636359999999996
                },
                {
                    "name": "A3",
                    "midi": 57,
                    "time": 53.81812799999998,
                    "velocity": 0.4330708661417323,
                    "duration": 0.3636359999999996
                },
                {
                    "name": "A3",
                    "midi": 57,
                    "time": 54.18176399999998,
                    "velocity": 0.48031496062992124,
                    "duration": 0.3636359999999996
                },
                {
                    "name": "C#4",
                    "midi": 61,
                    "time": 54.18176399999998,
                    "velocity": 0.48031496062992124,
                    "duration": 0.3636359999999996
                },
                {
                    "name": "A#3",
                    "midi": 58,
                    "time": 54.54539999999998,
                    "velocity": 0.5196850393700787,
                    "duration": 0.3636359999999996
                },
                {
                    "name": "D4",
                    "midi": 62,
                    "time": 54.54539999999998,
                    "velocity": 0.5196850393700787,
                    "duration": 0.3636359999999996
                },
                {
                    "name": "F3",
                    "midi": 53,
                    "time": 54.54539999999998,
                    "velocity": 0.5196850393700787,
                    "duration": 0.7272719999999993
                },
                {
                    "name": "B3",
                    "midi": 59,
                    "time": 54.90903599999998,
                    "velocity": 0.5590551181102362,
                    "duration": 0.3636359999999996
                },
                {
                    "name": "D4",
                    "midi": 62,
                    "time": 54.90903599999998,
                    "velocity": 0.5590551181102362,
                    "duration": 0.3636359999999996
                },
                {
                    "name": "C4",
                    "midi": 60,
                    "time": 55.27267199999998,
                    "velocity": 0.6062992125984252,
                    "duration": 1.4545439999999985
                },
                {
                    "name": "F3",
                    "midi": 53,
                    "time": 55.27267199999998,
                    "velocity": 0.6062992125984252,
                    "duration": 1.4545439999999985
                },
                {
                    "name": "D#4",
                    "midi": 63,
                    "time": 55.27267199999998,
                    "velocity": 0.6062992125984252,
                    "duration": 1.4545439999999985
                },
                {
                    "name": "A#3",
                    "midi": 58,
                    "time": 58.545395999999975,
                    "velocity": 0.3543307086614173,
                    "duration": 0.3636359999999996
                },
                {
                    "name": "D4",
                    "midi": 62,
                    "time": 58.909031999999975,
                    "velocity": 0.3779527559055118,
                    "duration": 0.09090900000000346
                },
                {
                    "name": "G4",
                    "midi": 67,
                    "time": 59.27266799999998,
                    "velocity": 0.36220472440944884,
                    "duration": 0.09090900000000346
                },
                {
                    "name": "C4",
                    "midi": 60,
                    "time": 59.63630399999999,
                    "velocity": 0.4094488188976378,
                    "duration": 0.3636359999999996
                },
                {
                    "name": "D#4",
                    "midi": 63,
                    "time": 59.99993999999999,
                    "velocity": 0.36220472440944884,
                    "duration": 0.09090900000000346
                },
                {
                    "name": "F4",
                    "midi": 65,
                    "time": 60.363575999999995,
                    "velocity": 0.3779527559055118,
                    "duration": 0.3636359999999996
                },
                {
                    "name": "D#4",
                    "midi": 63,
                    "time": 60.727211999999994,
                    "velocity": 0.36220472440944884,
                    "duration": 0.3636359999999996
                },
                {
                    "name": "D4",
                    "midi": 62,
                    "time": 61.090847999999994,
                    "velocity": 0.41732283464566927,
                    "duration": 0.3636359999999996
                },
                {
                    "name": "A3",
                    "midi": 57,
                    "time": 61.454483999999994,
                    "velocity": 0.3700787401574803,
                    "duration": 0.3636359999999996
                },
                {
                    "name": "A#3",
                    "midi": 58,
                    "time": 61.81811999999999,
                    "velocity": 0.4015748031496063,
                    "duration": 0.3636359999999996
                },
                {
                    "name": "C4",
                    "midi": 60,
                    "time": 62.18175599999999,
                    "velocity": 0.3858267716535433,
                    "duration": 0.3636359999999996
                },
                {
                    "name": "D#3",
                    "midi": 51,
                    "time": 62.18175599999999,
                    "velocity": 0.3858267716535433,
                    "duration": 0.3636359999999996
                },
                {
                    "name": "F3",
                    "midi": 53,
                    "time": 62.54539199999999,
                    "velocity": 0.4094488188976378,
                    "duration": 1.0909079999999989
                },
                {
                    "name": "A#3",
                    "midi": 58,
                    "time": 62.54539199999999,
                    "velocity": 0.4094488188976378,
                    "duration": 0.7272719999999993
                },
                {
                    "name": "A3",
                    "midi": 57,
                    "time": 63.27266399999999,
                    "velocity": 0.3700787401574803,
                    "duration": 0.3636359999999996
                },
                {
                    "name": "A#3",
                    "midi": 58,
                    "time": 64.36357199999999,
                    "velocity": 0.3228346456692913,
                    "duration": 0.3636359999999996
                },
                {
                    "name": "D4",
                    "midi": 62,
                    "time": 64.72720799999999,
                    "velocity": 0.3700787401574803,
                    "duration": 0.09090899999999635
                },
                {
                    "name": "G4",
                    "midi": 67,
                    "time": 65.09084399999999,
                    "velocity": 0.3543307086614173,
                    "duration": 0.09090899999999635
                },
                {
                    "name": "C4",
                    "midi": 60,
                    "time": 65.45447999999999,
                    "velocity": 0.4015748031496063,
                    "duration": 0.3636359999999996
                },
                {
                    "name": "D#4",
                    "midi": 63,
                    "time": 65.81811599999999,
                    "velocity": 0.3700787401574803,
                    "duration": 0.09090899999999635
                },
                {
                    "name": "F4",
                    "midi": 65,
                    "time": 66.18175199999999,
                    "velocity": 0.3779527559055118,
                    "duration": 0.3636359999999996
                },
                {
                    "name": "D#4",
                    "midi": 63,
                    "time": 66.54538799999999,
                    "velocity": 0.3543307086614173,
                    "duration": 0.3636359999999996
                },
                {
                    "name": "D4",
                    "midi": 62,
                    "time": 66.90902399999999,
                    "velocity": 0.4015748031496063,
                    "duration": 0.3636359999999996
                },
                {
                    "name": "D#4",
                    "midi": 63,
                    "time": 67.27265999999999,
                    "velocity": 0.3700787401574803,
                    "duration": 0.3636359999999996
                },
                {
                    "name": "D#3",
                    "midi": 51,
                    "time": 67.27265999999999,
                    "velocity": 0.3700787401574803,
                    "duration": 0.3636359999999996
                },
                {
                    "name": "F3",
                    "midi": 53,
                    "time": 67.63629599999999,
                    "velocity": 0.3937007874015748,
                    "duration": 0.7272719999999993
                },
                {
                    "name": "D4",
                    "midi": 62,
                    "time": 67.63629599999999,
                    "velocity": 0.3937007874015748,
                    "duration": 0.3636359999999996
                },
                {
                    "name": "C4",
                    "midi": 60,
                    "time": 67.99993199999999,
                    "velocity": 0.3779527559055118,
                    "duration": 0.3636359999999996
                },
                {
                    "name": "A#3",
                    "midi": 58,
                    "time": 68.36356799999999,
                    "velocity": 0.4015748031496063,
                    "duration": 0.3636359999999996
                },
                {
                    "name": "A#3",
                    "midi": 58,
                    "time": 69.81811199999999,
                    "velocity": 0.5039370078740157,
                    "duration": 0.18181800000000692
                },
                {
                    "name": "F4",
                    "midi": 65,
                    "time": 69.99992999999999,
                    "velocity": 0.4251968503937008,
                    "duration": 0.18181800000000692
                },
                {
                    "name": "D4",
                    "midi": 62,
                    "time": 70.181748,
                    "velocity": 0.4645669291338583,
                    "duration": 0.18181800000000692
                },
                {
                    "name": "F4",
                    "midi": 65,
                    "time": 70.363566,
                    "velocity": 0.4251968503937008,
                    "duration": 0.18181800000000692
                },
                {
                    "name": "G3",
                    "midi": 55,
                    "time": 70.54538400000001,
                    "velocity": 0.49606299212598426,
                    "duration": 0.18181800000000692
                },
                {
                    "name": "D4",
                    "midi": 62,
                    "time": 70.72720200000002,
                    "velocity": 0.4330708661417323,
                    "duration": 0.18181800000000692
                },
                {
                    "name": "A#3",
                    "midi": 58,
                    "time": 70.90902000000003,
                    "velocity": 0.4645669291338583,
                    "duration": 0.18181800000000692
                },
                {
                    "name": "D4",
                    "midi": 62,
                    "time": 71.09083800000003,
                    "velocity": 0.4330708661417323,
                    "duration": 0.18181800000000692
                },
                {
                    "name": "D#3",
                    "midi": 51,
                    "time": 71.27265600000004,
                    "velocity": 0.5039370078740157,
                    "duration": 0.18181800000000692
                },
                {
                    "name": "C4",
                    "midi": 60,
                    "time": 71.45447400000005,
                    "velocity": 0.4409448818897638,
                    "duration": 0.18181800000000692
                },
                {
                    "name": "G3",
                    "midi": 55,
                    "time": 71.63629200000005,
                    "velocity": 0.4645669291338583,
                    "duration": 0.18181800000000692
                },
                {
                    "name": "C4",
                    "midi": 60,
                    "time": 71.81811000000006,
                    "velocity": 0.4330708661417323,
                    "duration": 0.18181800000000692
                },
                {
                    "name": "F3",
                    "midi": 53,
                    "time": 71.99992800000007,
                    "velocity": 0.5039370078740157,
                    "duration": 0.18181800000000692
                },
                {
                    "name": "D#4",
                    "midi": 63,
                    "time": 72.18174600000008,
                    "velocity": 0.4409448818897638,
                    "duration": 0.18181800000000692
                },
                {
                    "name": "C4",
                    "midi": 60,
                    "time": 72.36356400000008,
                    "velocity": 0.47244094488188976,
                    "duration": 0.18181800000000692
                },
                {
                    "name": "D#4",
                    "midi": 63,
                    "time": 72.54538200000009,
                    "velocity": 0.4409448818897638,
                    "duration": 0.18181800000000692
                },
                {
                    "name": "D4",
                    "midi": 62,
                    "time": 72.7272000000001,
                    "velocity": 0.5196850393700787,
                    "duration": 0.3636359999999996
                },
                {
                    "name": "D4",
                    "midi": 62,
                    "time": 73.0908360000001,
                    "velocity": 0.44881889763779526,
                    "duration": 0.7272719999999993
                },
                {
                    "name": "A3",
                    "midi": 57,
                    "time": 73.0908360000001,
                    "velocity": 0.44881889763779526,
                    "duration": 0.3636359999999996
                },
                {
                    "name": "A#3",
                    "midi": 58,
                    "time": 73.4544720000001,
                    "velocity": 0.5039370078740157,
                    "duration": 0.3636359999999996
                },
                {
                    "name": "D#3",
                    "midi": 51,
                    "time": 73.8181080000001,
                    "velocity": 0.5039370078740157,
                    "duration": 0.3636359999999996
                },
                {
                    "name": "C4",
                    "midi": 60,
                    "time": 73.8181080000001,
                    "velocity": 0.5039370078740157,
                    "duration": 0.3636359999999996
                },
                {
                    "name": "A#3",
                    "midi": 58,
                    "time": 74.1817440000001,
                    "velocity": 0.5118110236220472,
                    "duration": 0.7272719999999993
                },
                {
                    "name": "F3",
                    "midi": 53,
                    "time": 74.1817440000001,
                    "velocity": 0.5118110236220472,
                    "duration": 1.0909079999999989
                },
                {
                    "name": "A3",
                    "midi": 57,
                    "time": 74.9090160000001,
                    "velocity": 0.47244094488188976,
                    "duration": 0.3636359999999996
                },
                {
                    "name": "A#3",
                    "midi": 58,
                    "time": 75.63628800000009,
                    "velocity": 0.5118110236220472,
                    "duration": 0.18181800000000692
                },
                {
                    "name": "F4",
                    "midi": 65,
                    "time": 75.8181060000001,
                    "velocity": 0.4330708661417323,
                    "duration": 0.18181800000000692
                },
                {
                    "name": "D4",
                    "midi": 62,
                    "time": 75.9999240000001,
                    "velocity": 0.47244094488188976,
                    "duration": 0.18181800000000692
                },
                {
                    "name": "F4",
                    "midi": 65,
                    "time": 76.18174200000011,
                    "velocity": 0.4330708661417323,
                    "duration": 0.18181800000000692
                },
                {
                    "name": "G3",
                    "midi": 55,
                    "time": 76.36356000000012,
                    "velocity": 0.5039370078740157,
                    "duration": 0.09090899999999635
                },
                {
                    "name": "D4",
                    "midi": 62,
                    "time": 76.54537800000011,
                    "velocity": 0.4409448818897638,
                    "duration": 0.09090899999999635
                },
                {
                    "name": "A#3",
                    "midi": 58,
                    "time": 76.7271960000001,
                    "velocity": 0.47244094488188976,
                    "duration": 0.09090899999999635
                },
                {
                    "name": "D4",
                    "midi": 62,
                    "time": 76.9090140000001,
                    "velocity": 0.4330708661417323,
                    "duration": 0.09090899999999635
                },
                {
                    "name": "D#3",
                    "midi": 51,
                    "time": 77.09083200000009,
                    "velocity": 0.5039370078740157,
                    "duration": 0.18181800000000692
                },
                {
                    "name": "C4",
                    "midi": 60,
                    "time": 77.2726500000001,
                    "velocity": 0.4330708661417323,
                    "duration": 0.18181800000000692
                },
                {
                    "name": "G3",
                    "midi": 55,
                    "time": 77.4544680000001,
                    "velocity": 0.4645669291338583,
                    "duration": 0.18181800000000692
                },
                {
                    "name": "C4",
                    "midi": 60,
                    "time": 77.63628600000011,
                    "velocity": 0.4330708661417323,
                    "duration": 0.18181800000000692
                },
                {
                    "name": "F3",
                    "midi": 53,
                    "time": 77.81810400000012,
                    "velocity": 0.5039370078740157,
                    "duration": 0.18181800000000692
                },
                {
                    "name": "D#4",
                    "midi": 63,
                    "time": 77.99992200000013,
                    "velocity": 0.4330708661417323,
                    "duration": 0.18181800000000692
                },
                {
                    "name": "C4",
                    "midi": 60,
                    "time": 78.18174000000013,
                    "velocity": 0.4645669291338583,
                    "duration": 0.18181800000000692
                },
                {
                    "name": "D#4",
                    "midi": 63,
                    "time": 78.36355800000014,
                    "velocity": 0.4251968503937008,
                    "duration": 0.18181800000000692
                },
                {
                    "name": "D3",
                    "midi": 50,
                    "time": 78.54537600000015,
                    "velocity": 0.4645669291338583,
                    "duration": 0.3636359999999996
                },
                {
                    "name": "A#3",
                    "midi": 58,
                    "time": 78.54537600000015,
                    "velocity": 0.4645669291338583,
                    "duration": 0.7272719999999993
                },
                {
                    "name": "D#3",
                    "midi": 51,
                    "time": 78.90901200000015,
                    "velocity": 0.4409448818897638,
                    "duration": 0.3636359999999996
                },
                {
                    "name": "F3",
                    "midi": 53,
                    "time": 79.27264800000015,
                    "velocity": 0.4645669291338583,
                    "duration": 0.7272719999999993
                },
                {
                    "name": "D4",
                    "midi": 62,
                    "time": 79.27264800000015,
                    "velocity": 0.4645669291338583,
                    "duration": 0.3636359999999996
                },
                {
                    "name": "D#4",
                    "midi": 63,
                    "time": 79.63628400000015,
                    "velocity": 0.4409448818897638,
                    "duration": 0.3636359999999996
                },
                {
                    "name": "D4",
                    "midi": 62,
                    "time": 79.99992000000015,
                    "velocity": 0.4645669291338583,
                    "duration": 0.3636359999999996
                },
                {
                    "name": "A#3",
                    "midi": 58,
                    "time": 79.99992000000015,
                    "velocity": 0.4645669291338583,
                    "duration": 0.3636359999999996
                },
                {
                    "name": "A#2",
                    "midi": 46,
                    "time": 80.36355600000014,
                    "velocity": 0.49606299212598426,
                    "duration": 0.3636359999999996
                },
                {
                    "name": "A#3",
                    "midi": 58,
                    "time": 81.81810000000014,
                    "velocity": 0.36220472440944884,
                    "duration": 0.13636350000000164
                },
                {
                    "name": "G3",
                    "midi": 55,
                    "time": 82.18173600000014,
                    "velocity": 0.3779527559055118,
                    "duration": 0.3636359999999996
                },
                {
                    "name": "D#3",
                    "midi": 51,
                    "time": 82.54537200000014,
                    "velocity": 0.36220472440944884,
                    "duration": 0.3636359999999996
                },
                {
                    "name": "F3",
                    "midi": 53,
                    "time": 82.90900800000014,
                    "velocity": 0.3700787401574803,
                    "duration": 0.3636359999999996
                },
                {
                    "name": "F2",
                    "midi": 41,
                    "time": 83.27264400000014,
                    "velocity": 0.44881889763779526,
                    "duration": 0.3636359999999996
                },
                {
                    "name": "C4",
                    "midi": 60,
                    "time": 84.72718800000014,
                    "velocity": 0.3543307086614173,
                    "duration": 0.13636350000000164
                },
                {
                    "name": "A3",
                    "midi": 57,
                    "time": 85.09082400000014,
                    "velocity": 0.3543307086614173,
                    "duration": 0.3636359999999996
                },
                {
                    "name": "F3",
                    "midi": 53,
                    "time": 85.45446000000014,
                    "velocity": 0.33070866141732286,
                    "duration": 0.3636359999999996
                },
                {
                    "name": "A#3",
                    "midi": 58,
                    "time": 85.81809600000014,
                    "velocity": 0.36220472440944884,
                    "duration": 0.3636359999999996
                },
                {
                    "name": "A#2",
                    "midi": 46,
                    "time": 86.18173200000014,
                    "velocity": 0.4566929133858268,
                    "duration": 0.3636359999999996
                },
                {
                    "name": "D4",
                    "midi": 62,
                    "time": 87.63627600000014,
                    "velocity": 0.41732283464566927,
                    "duration": 0.2727270000000033
                },
                {
                    "name": "A#3",
                    "midi": 58,
                    "time": 87.63627600000014,
                    "velocity": 0.41732283464566927,
                    "duration": 0.2727270000000033
                },
                {
                    "name": "A#3",
                    "midi": 58,
                    "time": 87.99991200000014,
                    "velocity": 0.4409448818897638,
                    "duration": 0.2727270000000033
                },
                {
                    "name": "D4",
                    "midi": 62,
                    "time": 87.99991200000014,
                    "velocity": 0.4409448818897638,
                    "duration": 0.2727270000000033
                },
                {
                    "name": "D4",
                    "midi": 62,
                    "time": 88.36354800000014,
                    "velocity": 0.47244094488188976,
                    "duration": 0.2727270000000033
                },
                {
                    "name": "A#3",
                    "midi": 58,
                    "time": 88.36354800000014,
                    "velocity": 0.47244094488188976,
                    "duration": 0.2727270000000033
                },
                {
                    "name": "A3",
                    "midi": 57,
                    "time": 88.72718400000014,
                    "velocity": 0.5354330708661418,
                    "duration": 0.7272719999999993
                },
                {
                    "name": "C4",
                    "midi": 60,
                    "time": 88.72718400000014,
                    "velocity": 0.5354330708661418,
                    "duration": 0.7272719999999993
                },
                {
                    "name": "A3",
                    "midi": 57,
                    "time": 89.45445600000014,
                    "velocity": 0.4251968503937008,
                    "duration": 0.7272719999999993
                },
                {
                    "name": "D3",
                    "midi": 50,
                    "time": 89.45445600000014,
                    "velocity": 0.4251968503937008,
                    "duration": 0.7272719999999993
                },
                {
                    "name": "D#3",
                    "midi": 51,
                    "time": 90.18172800000013,
                    "velocity": 0.41732283464566927,
                    "duration": 1.454544000000027
                },
                {
                    "name": "G3",
                    "midi": 55,
                    "time": 90.36354600000014,
                    "velocity": 0.4094488188976378,
                    "duration": 0.18181800000000692
                },
                {
                    "name": "A3",
                    "midi": 57,
                    "time": 90.54536400000015,
                    "velocity": 0.4251968503937008,
                    "duration": 0.18181800000000692
                },
                {
                    "name": "A#3",
                    "midi": 58,
                    "time": 90.72718200000016,
                    "velocity": 0.44881889763779526,
                    "duration": 0.13106047499999818
                },
                {
                    "name": "A#3",
                    "midi": 58,
                    "time": 90.90900000000015,
                    "velocity": 0.44881889763779526,
                    "duration": 0.18181800000000692
                },
                {
                    "name": "A3",
                    "midi": 57,
                    "time": 91.09081800000016,
                    "velocity": 0.4330708661417323,
                    "duration": 0.13106047499999818
                },
                {
                    "name": "A3",
                    "midi": 57,
                    "time": 91.27263600000015,
                    "velocity": 0.4330708661417323,
                    "duration": 0.18181800000000692
                },
                {
                    "name": "G3",
                    "midi": 55,
                    "time": 91.45445400000015,
                    "velocity": 0.4251968503937008,
                    "duration": 0.13636350000000164
                },
                {
                    "name": "D3",
                    "midi": 50,
                    "time": 91.63627200000016,
                    "velocity": 0.3700787401574803,
                    "duration": 0.3636359999999996
                },
                {
                    "name": "F#3",
                    "midi": 54,
                    "time": 91.63627200000016,
                    "velocity": 0.3700787401574803,
                    "duration": 0.3636359999999996
                },
                {
                    "name": "G3",
                    "midi": 55,
                    "time": 93.09081600000016,
                    "velocity": 0.4566929133858268,
                    "duration": 0.18181800000000692
                },
                {
                    "name": "A#3",
                    "midi": 58,
                    "time": 93.27263400000017,
                    "velocity": 0.3937007874015748,
                    "duration": 0.18181800000000692
                },
                {
                    "name": "D4",
                    "midi": 62,
                    "time": 93.45445200000017,
                    "velocity": 0.4251968503937008,
                    "duration": 0.18181800000000692
                },
                {
                    "name": "A#3",
                    "midi": 58,
                    "time": 93.63627000000018,
                    "velocity": 0.3937007874015748,
                    "duration": 0.18181800000000692
                },
                {
                    "name": "G3",
                    "midi": 55,
                    "time": 93.81808800000019,
                    "velocity": 0.4251968503937008,
                    "duration": 0.18181800000000692
                },
                {
                    "name": "A#3",
                    "midi": 58,
                    "time": 93.9999060000002,
                    "velocity": 0.3700787401574803,
                    "duration": 0.18181800000000692
                },
                {
                    "name": "D4",
                    "midi": 62,
                    "time": 94.1817240000002,
                    "velocity": 0.3937007874015748,
                    "duration": 0.18181800000000692
                },
                {
                    "name": "A#3",
                    "midi": 58,
                    "time": 94.36354200000021,
                    "velocity": 0.3700787401574803,
                    "duration": 0.18181800000000692
                },
                {
                    "name": "G3",
                    "midi": 55,
                    "time": 94.54536000000022,
                    "velocity": 0.4566929133858268,
                    "duration": 0.18181800000000692
                },
                {
                    "name": "C4",
                    "midi": 60,
                    "time": 94.72717800000022,
                    "velocity": 0.4015748031496063,
                    "duration": 0.18181800000000692
                },
                {
                    "name": "D#4",
                    "midi": 63,
                    "time": 94.90899600000023,
                    "velocity": 0.4251968503937008,
                    "duration": 0.18181800000000692
                },
                {
                    "name": "C4",
                    "midi": 60,
                    "time": 95.09081400000024,
                    "velocity": 0.4015748031496063,
                    "duration": 0.18181800000000692
                },
                {
                    "name": "G3",
                    "midi": 55,
                    "time": 95.27263200000024,
                    "velocity": 0.41732283464566927,
                    "duration": 0.18181800000000692
                },
                {
                    "name": "C4",
                    "midi": 60,
                    "time": 95.45445000000025,
                    "velocity": 0.3858267716535433,
                    "duration": 0.18181800000000692
                },
                {
                    "name": "D#4",
                    "midi": 63,
                    "time": 95.63626800000026,
                    "velocity": 0.4015748031496063,
                    "duration": 0.18181800000000692
                },
                {
                    "name": "C4",
                    "midi": 60,
                    "time": 95.81808600000026,
                    "velocity": 0.3779527559055118,
                    "duration": 0.18181800000000692
                },
                {
                    "name": "F3",
                    "midi": 53,
                    "time": 95.99990400000027,
                    "velocity": 0.4566929133858268,
                    "duration": 0.18181800000000692
                },
                {
                    "name": "C4",
                    "midi": 60,
                    "time": 96.18172200000028,
                    "velocity": 0.4015748031496063,
                    "duration": 0.18181800000000692
                },
                {
                    "name": "D#4",
                    "midi": 63,
                    "time": 96.36354000000028,
                    "velocity": 0.4251968503937008,
                    "duration": 0.18181800000000692
                },
                {
                    "name": "C4",
                    "midi": 60,
                    "time": 96.54535800000029,
                    "velocity": 0.4015748031496063,
                    "duration": 0.18181800000000692
                },
                {
                    "name": "G3",
                    "midi": 55,
                    "time": 96.7271760000003,
                    "velocity": 0.4409448818897638,
                    "duration": 0.18181800000000692
                },
                {
                    "name": "C4",
                    "midi": 60,
                    "time": 96.9089940000003,
                    "velocity": 0.3937007874015748,
                    "duration": 0.18181800000000692
                },
                {
                    "name": "D#4",
                    "midi": 63,
                    "time": 97.09081200000031,
                    "velocity": 0.4094488188976378,
                    "duration": 0.18181800000000692
                },
                {
                    "name": "C4",
                    "midi": 60,
                    "time": 97.27263000000032,
                    "velocity": 0.3858267716535433,
                    "duration": 0.18181800000000692
                },
                {
                    "name": "G3",
                    "midi": 55,
                    "time": 97.45444800000033,
                    "velocity": 0.41732283464566927,
                    "duration": 0.18181800000000692
                },
                {
                    "name": "A#3",
                    "midi": 58,
                    "time": 97.63626600000033,
                    "velocity": 0.3937007874015748,
                    "duration": 0.18181800000000692
                },
                {
                    "name": "D4",
                    "midi": 62,
                    "time": 97.81808400000034,
                    "velocity": 0.3937007874015748,
                    "duration": 0.18181800000000692
                },
                {
                    "name": "C4",
                    "midi": 60,
                    "time": 98.90899200000035,
                    "velocity": 0.3937007874015748,
                    "duration": 0.3636359999999996
                },
                {
                    "name": "A3",
                    "midi": 57,
                    "time": 98.90899200000035,
                    "velocity": 0.3937007874015748,
                    "duration": 0.3636359999999996
                },
                {
                    "name": "D#4",
                    "midi": 63,
                    "time": 98.90899200000035,
                    "velocity": 0.3937007874015748,
                    "duration": 0.3636359999999996
                },
                {
                    "name": "A#3",
                    "midi": 58,
                    "time": 99.27262800000035,
                    "velocity": 0.36220472440944884,
                    "duration": 0.18181800000000692
                },
                {
                    "name": "D4",
                    "midi": 62,
                    "time": 99.27262800000035,
                    "velocity": 0.36220472440944884,
                    "duration": 0.18181800000000692
                },
                {
                    "name": "D#4",
                    "midi": 63,
                    "time": 100.36353600000037,
                    "velocity": 0.3858267716535433,
                    "duration": 0.3636359999999996
                },
                {
                    "name": "A3",
                    "midi": 57,
                    "time": 100.36353600000037,
                    "velocity": 0.3858267716535433,
                    "duration": 0.3636359999999996
                },
                {
                    "name": "C4",
                    "midi": 60,
                    "time": 100.36353600000037,
                    "velocity": 0.3858267716535433,
                    "duration": 0.3636359999999996
                },
                {
                    "name": "A#3",
                    "midi": 58,
                    "time": 100.72717200000037,
                    "velocity": 0.3543307086614173,
                    "duration": 0.18181800000000692
                },
                {
                    "name": "D4",
                    "midi": 62,
                    "time": 100.72717200000037,
                    "velocity": 0.3543307086614173,
                    "duration": 0.18181800000000692
                },
                {
                    "name": "D#3",
                    "midi": 51,
                    "time": 101.81808000000038,
                    "velocity": 0.41732283464566927,
                    "duration": 1.4545439999999985
                },
                {
                    "name": "A#3",
                    "midi": 58,
                    "time": 101.81808000000038,
                    "velocity": 0.41732283464566927,
                    "duration": 0.7272719999999993
                },
                {
                    "name": "G3",
                    "midi": 55,
                    "time": 102.54535200000038,
                    "velocity": 0.3700787401574803,
                    "duration": 0.7272719999999993
                },
                {
                    "name": "F#3",
                    "midi": 54,
                    "time": 103.27262400000038,
                    "velocity": 0.31496062992125984,
                    "duration": 0.34848449999999787
                },
                {
                    "name": "A3",
                    "midi": 57,
                    "time": 103.27262400000038,
                    "velocity": 0.31496062992125984,
                    "duration": 0.35530267500000434
                },
                {
                    "name": "D3",
                    "midi": 50,
                    "time": 103.63626000000038,
                    "velocity": 0.2204724409448819,
                    "duration": 0.2727270000000033
                },
                {
                    "name": "F#3",
                    "midi": 54,
                    "time": 103.63626000000038,
                    "velocity": 0.2204724409448819,
                    "duration": 0.2727270000000033
                },
                {
                    "name": "A3",
                    "midi": 57,
                    "time": 103.63626000000038,
                    "velocity": 0.2677165354330709,
                    "duration": 0.2727270000000033
                },
                {
                    "name": "D3",
                    "midi": 50,
                    "time": 103.99989600000038,
                    "velocity": 0.2283464566929134,
                    "duration": 0.2727270000000033
                },
                {
                    "name": "F#3",
                    "midi": 54,
                    "time": 103.99989600000038,
                    "velocity": 0.2283464566929134,
                    "duration": 0.2727270000000033
                },
                {
                    "name": "A3",
                    "midi": 57,
                    "time": 103.99989600000038,
                    "velocity": 0.2755905511811024,
                    "duration": 0.2727270000000033
                },
                {
                    "name": "D3",
                    "midi": 50,
                    "time": 104.36353200000038,
                    "velocity": 0.2204724409448819,
                    "duration": 0.2727270000000033
                },
                {
                    "name": "F#3",
                    "midi": 54,
                    "time": 104.36353200000038,
                    "velocity": 0.2204724409448819,
                    "duration": 0.2727270000000033
                },
                {
                    "name": "A3",
                    "midi": 57,
                    "time": 104.36353200000038,
                    "velocity": 0.2677165354330709,
                    "duration": 0.2727270000000033
                },
                {
                    "name": "F3",
                    "midi": 53,
                    "time": 105.09080400000038,
                    "velocity": 0.2125984251968504,
                    "duration": 0.2727270000000033
                },
                {
                    "name": "A3",
                    "midi": 57,
                    "time": 105.09080400000038,
                    "velocity": 0.29133858267716534,
                    "duration": 0.2727270000000033
                },
                {
                    "name": "D3",
                    "midi": 50,
                    "time": 105.09080400000038,
                    "velocity": 0.2125984251968504,
                    "duration": 0.2727270000000033
                },
                {
                    "name": "F3",
                    "midi": 53,
                    "time": 105.45444000000037,
                    "velocity": 0.2125984251968504,
                    "duration": 0.2727270000000033
                },
                {
                    "name": "A3",
                    "midi": 57,
                    "time": 105.45444000000037,
                    "velocity": 0.29133858267716534,
                    "duration": 0.2727270000000033
                },
                {
                    "name": "D3",
                    "midi": 50,
                    "time": 105.45444000000037,
                    "velocity": 0.2125984251968504,
                    "duration": 0.2727270000000033
                },
                {
                    "name": "F3",
                    "midi": 53,
                    "time": 105.81807600000037,
                    "velocity": 0.2047244094488189,
                    "duration": 0.2727270000000033
                },
                {
                    "name": "A3",
                    "midi": 57,
                    "time": 105.81807600000037,
                    "velocity": 0.28346456692913385,
                    "duration": 0.2727270000000033
                },
                {
                    "name": "D3",
                    "midi": 50,
                    "time": 105.81807600000037,
                    "velocity": 0.2047244094488189,
                    "duration": 0.2727270000000033
                },
                {
                    "name": "D3",
                    "midi": 50,
                    "time": 106.54534800000037,
                    "velocity": 0.2992125984251969,
                    "duration": 0.2727270000000033
                },
                {
                    "name": "A#3",
                    "midi": 58,
                    "time": 106.54534800000037,
                    "velocity": 0.4015748031496063,
                    "duration": 0.2727270000000033
                },
                {
                    "name": "F3",
                    "midi": 53,
                    "time": 106.54534800000037,
                    "velocity": 0.2992125984251969,
                    "duration": 0.2727270000000033
                },
                {
                    "name": "D3",
                    "midi": 50,
                    "time": 106.90898400000037,
                    "velocity": 0.3228346456692913,
                    "duration": 0.2727270000000033
                },
                {
                    "name": "F3",
                    "midi": 53,
                    "time": 106.90898400000037,
                    "velocity": 0.3228346456692913,
                    "duration": 0.2727270000000033
                },
                {
                    "name": "A#3",
                    "midi": 58,
                    "time": 106.90898400000037,
                    "velocity": 0.4409448818897638,
                    "duration": 0.2727270000000033
                },
                {
                    "name": "D3",
                    "midi": 50,
                    "time": 107.27262000000037,
                    "velocity": 0.3543307086614173,
                    "duration": 0.2727270000000033
                },
                {
                    "name": "F3",
                    "midi": 53,
                    "time": 107.27262000000037,
                    "velocity": 0.3543307086614173,
                    "duration": 0.2727270000000033
                },
                {
                    "name": "A#3",
                    "midi": 58,
                    "time": 107.27262000000037,
                    "velocity": 0.47244094488188976,
                    "duration": 0.2727270000000033
                },
                {
                    "name": "F3",
                    "midi": 53,
                    "time": 107.99989200000037,
                    "velocity": 0.47244094488188976,
                    "duration": 0.2727270000000033
                },
                {
                    "name": "A#2",
                    "midi": 46,
                    "time": 107.99989200000037,
                    "velocity": 0.3543307086614173,
                    "duration": 0.2727270000000033
                },
                {
                    "name": "A#2",
                    "midi": 46,
                    "time": 108.36352800000037,
                    "velocity": 0.3779527559055118,
                    "duration": 0.2727270000000033
                },
                {
                    "name": "F3",
                    "midi": 53,
                    "time": 108.36352800000037,
                    "velocity": 0.49606299212598426,
                    "duration": 0.2727270000000033
                },
                {
                    "name": "F3",
                    "midi": 53,
                    "time": 108.72716400000037,
                    "velocity": 0.47244094488188976,
                    "duration": 0.2727270000000033
                },
                {
                    "name": "A#2",
                    "midi": 46,
                    "time": 108.72716400000037,
                    "velocity": 0.3543307086614173,
                    "duration": 0.2727270000000033
                },
                {
                    "name": "D#2",
                    "midi": 39,
                    "time": 109.09080000000037,
                    "velocity": 0.3779527559055118,
                    "duration": 0.3636359999999996
                },
                {
                    "name": "D#3",
                    "midi": 51,
                    "time": 109.09080000000037,
                    "velocity": 0.49606299212598426,
                    "duration": 0.3636359999999996
                },
                {
                    "name": "D#3",
                    "midi": 51,
                    "time": 109.45443600000037,
                    "velocity": 0.36220472440944884,
                    "duration": 0.3636359999999996
                },
                {
                    "name": "G3",
                    "midi": 55,
                    "time": 109.81807200000037,
                    "velocity": 0.3228346456692913,
                    "duration": 0.3636359999999996
                },
                {
                    "name": "G#3",
                    "midi": 56,
                    "time": 110.18170800000037,
                    "velocity": 0.2992125984251969,
                    "duration": 0.3636359999999996
                },
                {
                    "name": "G3",
                    "midi": 55,
                    "time": 110.54534400000037,
                    "velocity": 0.3464566929133858,
                    "duration": 0.3636359999999996
                },
                {
                    "name": "D3",
                    "midi": 50,
                    "time": 110.90898000000037,
                    "velocity": 0.2755905511811024,
                    "duration": 0.3636359999999996
                },
                {
                    "name": "D#3",
                    "midi": 51,
                    "time": 111.27261600000037,
                    "velocity": 0.3228346456692913,
                    "duration": 0.3636359999999996
                },
                {
                    "name": "F3",
                    "midi": 53,
                    "time": 111.63625200000037,
                    "velocity": 0.36220472440944884,
                    "duration": 0.3636359999999996
                },
                {
                    "name": "A#2",
                    "midi": 46,
                    "time": 112.36352400000037,
                    "velocity": 0.3228346456692913,
                    "duration": 0.3636359999999996
                },
                {
                    "name": "D3",
                    "midi": 50,
                    "time": 112.72716000000037,
                    "velocity": 0.3543307086614173,
                    "duration": 0.3636359999999996
                },
                {
                    "name": "C#3",
                    "midi": 49,
                    "time": 113.09079600000037,
                    "velocity": 0.3228346456692913,
                    "duration": 0.3636359999999996
                },
                {
                    "name": "D3",
                    "midi": 50,
                    "time": 113.45443200000037,
                    "velocity": 0.3700787401574803,
                    "duration": 0.3636359999999996
                },
                {
                    "name": "E3",
                    "midi": 52,
                    "time": 113.81806800000037,
                    "velocity": 0.2992125984251969,
                    "duration": 0.3636359999999996
                },
                {
                    "name": "F3",
                    "midi": 53,
                    "time": 114.18170400000037,
                    "velocity": 0.33070866141732286,
                    "duration": 0.3636359999999996
                },
                {
                    "name": "D3",
                    "midi": 50,
                    "time": 114.54534000000037,
                    "velocity": 0.3779527559055118,
                    "duration": 0.3636359999999996
                },
                {
                    "name": "D#3",
                    "midi": 51,
                    "time": 114.90897600000037,
                    "velocity": 0.3937007874015748,
                    "duration": 0.3636359999999996
                },
                {
                    "name": "D#2",
                    "midi": 39,
                    "time": 115.27261200000036,
                    "velocity": 0.3543307086614173,
                    "duration": 0.3636359999999996
                },
                {
                    "name": "G3",
                    "midi": 55,
                    "time": 115.99988400000036,
                    "velocity": 0.3858267716535433,
                    "duration": 0.3636359999999996
                },
                {
                    "name": "D#4",
                    "midi": 63,
                    "time": 115.99988400000036,
                    "velocity": 0.3858267716535433,
                    "duration": 0.3636359999999996
                },
                {
                    "name": "G#3",
                    "midi": 56,
                    "time": 116.72715600000036,
                    "velocity": 0.3700787401574803,
                    "duration": 0.3636359999999996
                },
                {
                    "name": "D#4",
                    "midi": 63,
                    "time": 116.72715600000036,
                    "velocity": 0.3700787401574803,
                    "duration": 0.3636359999999996
                },
                {
                    "name": "C4",
                    "midi": 60,
                    "time": 117.45442800000036,
                    "velocity": 0.36220472440944884,
                    "duration": 0.3636359999999996
                },
                {
                    "name": "D#4",
                    "midi": 63,
                    "time": 117.45442800000036,
                    "velocity": 0.36220472440944884,
                    "duration": 0.3636359999999996
                },
                {
                    "name": "A#3",
                    "midi": 58,
                    "time": 117.81806400000036,
                    "velocity": 0.36220472440944884,
                    "duration": 0.18181800000000692
                },
                {
                    "name": "D#4",
                    "midi": 63,
                    "time": 117.81806400000036,
                    "velocity": 0.36220472440944884,
                    "duration": 0.18181800000000692
                },
                {
                    "name": "A#2",
                    "midi": 46,
                    "time": 118.18170000000038,
                    "velocity": 0.4566929133858268,
                    "duration": 0.18181800000000692
                },
                {
                    "name": "G3",
                    "midi": 55,
                    "time": 118.90897200000039,
                    "velocity": 0.3700787401574803,
                    "duration": 0.3636359999999996
                },
                {
                    "name": "D#4",
                    "midi": 63,
                    "time": 118.90897200000039,
                    "velocity": 0.3700787401574803,
                    "duration": 0.3636359999999996
                },
                {
                    "name": "G#3",
                    "midi": 56,
                    "time": 119.63624400000039,
                    "velocity": 0.3700787401574803,
                    "duration": 0.3636359999999996
                },
                {
                    "name": "D#4",
                    "midi": 63,
                    "time": 119.63624400000039,
                    "velocity": 0.3700787401574803,
                    "duration": 0.3636359999999996
                },
                {
                    "name": "D#4",
                    "midi": 63,
                    "time": 120.36351600000039,
                    "velocity": 0.3700787401574803,
                    "duration": 0.3636359999999996
                },
                {
                    "name": "C4",
                    "midi": 60,
                    "time": 120.36351600000039,
                    "velocity": 0.3700787401574803,
                    "duration": 0.3636359999999996
                },
                {
                    "name": "D#4",
                    "midi": 63,
                    "time": 120.72715200000039,
                    "velocity": 0.4094488188976378,
                    "duration": 0.18181800000000692
                },
                {
                    "name": "A#3",
                    "midi": 58,
                    "time": 120.72715200000039,
                    "velocity": 0.4094488188976378,
                    "duration": 0.18181800000000692
                },
                {
                    "name": "A#2",
                    "midi": 46,
                    "time": 121.0907880000004,
                    "velocity": 0.4881889763779528,
                    "duration": 0.18181800000000692
                },
                {
                    "name": "C4",
                    "midi": 60,
                    "time": 121.81806000000041,
                    "velocity": 0.3700787401574803,
                    "duration": 0.3636359999999996
                },
                {
                    "name": "D#4",
                    "midi": 63,
                    "time": 121.81806000000041,
                    "velocity": 0.3700787401574803,
                    "duration": 0.3636359999999996
                },
                {
                    "name": "D#4",
                    "midi": 63,
                    "time": 122.54533200000041,
                    "velocity": 0.3858267716535433,
                    "duration": 0.3636359999999996
                },
                {
                    "name": "G3",
                    "midi": 55,
                    "time": 122.54533200000041,
                    "velocity": 0.3858267716535433,
                    "duration": 0.3636359999999996
                },
                {
                    "name": "G#3",
                    "midi": 56,
                    "time": 122.90896800000041,
                    "velocity": 0.4094488188976378,
                    "duration": 0.3636359999999996
                },
                {
                    "name": "D#4",
                    "midi": 63,
                    "time": 122.90896800000041,
                    "velocity": 0.4094488188976378,
                    "duration": 0.3636359999999996
                },
                {
                    "name": "G#3",
                    "midi": 56,
                    "time": 123.27260400000041,
                    "velocity": 0.4330708661417323,
                    "duration": 0.3636359999999996
                },
                {
                    "name": "F3",
                    "midi": 53,
                    "time": 123.27260400000041,
                    "velocity": 0.4330708661417323,
                    "duration": 0.3636359999999996
                },
                {
                    "name": "A#3",
                    "midi": 58,
                    "time": 123.63624000000041,
                    "velocity": 0.4409448818897638,
                    "duration": 0.3636359999999996
                },
                {
                    "name": "G3",
                    "midi": 55,
                    "time": 123.63624000000041,
                    "velocity": 0.4409448818897638,
                    "duration": 0.3636359999999996
                },
                {
                    "name": "G3",
                    "midi": 55,
                    "time": 123.99987600000041,
                    "velocity": 0.44881889763779526,
                    "duration": 0.3636359999999996
                },
                {
                    "name": "A#3",
                    "midi": 58,
                    "time": 123.99987600000041,
                    "velocity": 0.44881889763779526,
                    "duration": 0.3636359999999996
                },
                {
                    "name": "F3",
                    "midi": 53,
                    "time": 124.36351200000041,
                    "velocity": 0.44881889763779526,
                    "duration": 0.3636359999999996
                },
                {
                    "name": "G#3",
                    "midi": 56,
                    "time": 124.36351200000041,
                    "velocity": 0.44881889763779526,
                    "duration": 0.3636359999999996
                },
                {
                    "name": "A#3",
                    "midi": 58,
                    "time": 124.36351200000041,
                    "velocity": 0.44881889763779526,
                    "duration": 0.3636359999999996
                },
                {
                    "name": "D#3",
                    "midi": 51,
                    "time": 124.72714800000041,
                    "velocity": 0.4645669291338583,
                    "duration": 0.3636359999999996
                },
                {
                    "name": "G3",
                    "midi": 55,
                    "time": 124.72714800000041,
                    "velocity": 0.4645669291338583,
                    "duration": 0.3636359999999996
                },
                {
                    "name": "A#3",
                    "midi": 58,
                    "time": 124.72714800000041,
                    "velocity": 0.4645669291338583,
                    "duration": 0.3636359999999996
                },
                {
                    "name": "D3",
                    "midi": 50,
                    "time": 125.09078400000041,
                    "velocity": 0.5118110236220472,
                    "duration": 0.3636359999999996
                },
                {
                    "name": "F3",
                    "midi": 53,
                    "time": 125.09078400000041,
                    "velocity": 0.5118110236220472,
                    "duration": 0.3636359999999996
                },
                {
                    "name": "A#3",
                    "midi": 58,
                    "time": 125.09078400000041,
                    "velocity": 0.5118110236220472,
                    "duration": 0.3636359999999996
                },
                {
                    "name": "D#4",
                    "midi": 63,
                    "time": 126.54532800000041,
                    "velocity": 0.3779527559055118,
                    "duration": 0.3636359999999996
                },
                {
                    "name": "A#4",
                    "midi": 70,
                    "time": 126.54532800000041,
                    "velocity": 0.3779527559055118,
                    "duration": 0.3636359999999996
                },
                {
                    "name": "G#4",
                    "midi": 68,
                    "time": 126.90896400000041,
                    "velocity": 0.3700787401574803,
                    "duration": 0.3636359999999996
                },
                {
                    "name": "G#3",
                    "midi": 56,
                    "time": 126.90896400000041,
                    "velocity": 0.3700787401574803,
                    "duration": 0.3636359999999996
                },
                {
                    "name": "A#3",
                    "midi": 58,
                    "time": 127.27260000000041,
                    "velocity": 0.3779527559055118,
                    "duration": 0.7272719999999993
                },
                {
                    "name": "G4",
                    "midi": 67,
                    "time": 127.27260000000041,
                    "velocity": 0.3779527559055118,
                    "duration": 0.3636359999999996
                },
                {
                    "name": "F4",
                    "midi": 65,
                    "time": 127.63623600000041,
                    "velocity": 0.3543307086614173,
                    "duration": 0.3636359999999996
                },
                {
                    "name": "D3",
                    "midi": 50,
                    "time": 127.99987200000041,
                    "velocity": 0.5354330708661418,
                    "duration": 0.36363600000001384
                },
                {
                    "name": "F3",
                    "midi": 53,
                    "time": 127.99987200000041,
                    "velocity": 0.5354330708661418,
                    "duration": 0.36363600000001384
                },
                {
                    "name": "A#3",
                    "midi": 58,
                    "time": 127.99987200000041,
                    "velocity": 0.5354330708661418,
                    "duration": 0.36363600000001384
                },
                {
                    "name": "D#4",
                    "midi": 63,
                    "time": 129.45441600000044,
                    "velocity": 0.36220472440944884,
                    "duration": 0.36363600000001384
                },
                {
                    "name": "A#4",
                    "midi": 70,
                    "time": 129.45441600000044,
                    "velocity": 0.36220472440944884,
                    "duration": 0.36363600000001384
                },
                {
                    "name": "G#4",
                    "midi": 68,
                    "time": 129.81805200000045,
                    "velocity": 0.33858267716535434,
                    "duration": 0.36363600000001384
                },
                {
                    "name": "G#3",
                    "midi": 56,
                    "time": 129.81805200000045,
                    "velocity": 0.33858267716535434,
                    "duration": 0.36363600000001384
                },
                {
                    "name": "A#3",
                    "midi": 58,
                    "time": 130.18168800000046,
                    "velocity": 0.36220472440944884,
                    "duration": 0.7272720000000277
                },
                {
                    "name": "G4",
                    "midi": 67,
                    "time": 130.18168800000046,
                    "velocity": 0.36220472440944884,
                    "duration": 0.36363600000001384
                },
                {
                    "name": "F4",
                    "midi": 65,
                    "time": 130.54532400000048,
                    "velocity": 0.33858267716535434,
                    "duration": 0.36363600000001384
                },
                {
                    "name": "G4",
                    "midi": 67,
                    "time": 131.6362320000005,
                    "velocity": 0.3464566929133858,
                    "duration": 0.7272719999999993
                },
                {
                    "name": "D#4",
                    "midi": 63,
                    "time": 131.6362320000005,
                    "velocity": 0.3464566929133858,
                    "duration": 0.7272719999999993
                },
                {
                    "name": "B4",
                    "midi": 71,
                    "time": 132.3635040000005,
                    "velocity": 0.3858267716535433,
                    "duration": 0.7234841249999988
                },
                {
                    "name": "D4",
                    "midi": 62,
                    "time": 132.3635040000005,
                    "velocity": 0.3858267716535433,
                    "duration": 0.7272719999999993
                },
                {
                    "name": "F4",
                    "midi": 65,
                    "time": 133.0907760000005,
                    "velocity": 0.36220472440944884,
                    "duration": 0.36363600000001384
                },
                {
                    "name": "G#4",
                    "midi": 68,
                    "time": 133.0907760000005,
                    "velocity": 0.36220472440944884,
                    "duration": 0.36363600000001384
                },
                {
                    "name": "G4",
                    "midi": 67,
                    "time": 133.81804800000052,
                    "velocity": 0.31496062992125984,
                    "duration": 1.4545440000000553
                },
                {
                    "name": "D#4",
                    "midi": 63,
                    "time": 133.81804800000052,
                    "velocity": 0.31496062992125984,
                    "duration": 0.36363600000001384
                },
                {
                    "name": "B3",
                    "midi": 59,
                    "time": 134.18168400000053,
                    "velocity": 0.33070866141732286,
                    "duration": 0.36363600000001384
                },
                {
                    "name": "C4",
                    "midi": 60,
                    "time": 134.54532000000054,
                    "velocity": 0.3543307086614173,
                    "duration": 0.36363600000001384
                },
                {
                    "name": "D4",
                    "midi": 62,
                    "time": 134.90895600000056,
                    "velocity": 0.36220472440944884,
                    "duration": 0.36363600000001384
                },
                {
                    "name": "G4",
                    "midi": 67,
                    "time": 135.27259200000057,
                    "velocity": 0.33070866141732286,
                    "duration": 1.0909080000000415
                },
                {
                    "name": "D#4",
                    "midi": 63,
                    "time": 135.27259200000057,
                    "velocity": 0.33070866141732286,
                    "duration": 0.36363600000001384
                },
                {
                    "name": "B3",
                    "midi": 59,
                    "time": 135.63622800000059,
                    "velocity": 0.36220472440944884,
                    "duration": 0.36363600000001384
                },
                {
                    "name": "C4",
                    "midi": 60,
                    "time": 135.9998640000006,
                    "velocity": 0.3858267716535433,
                    "duration": 0.36363600000001384
                },
                {
                    "name": "F4",
                    "midi": 65,
                    "time": 137.45440800000063,
                    "velocity": 0.3228346456692913,
                    "duration": 0.7272719999999993
                },
                {
                    "name": "D4",
                    "midi": 62,
                    "time": 137.45440800000063,
                    "velocity": 0.3228346456692913,
                    "duration": 0.7272719999999993
                },
                {
                    "name": "A4",
                    "midi": 69,
                    "time": 138.18168000000063,
                    "velocity": 0.3858267716535433,
                    "duration": 0.7234841249999988
                },
                {
                    "name": "C4",
                    "midi": 60,
                    "time": 138.18168000000063,
                    "velocity": 0.3858267716535433,
                    "duration": 0.7272719999999993
                },
                {
                    "name": "F#4",
                    "midi": 66,
                    "time": 138.90895200000062,
                    "velocity": 0.31496062992125984,
                    "duration": 0.36363600000001384
                },
                {
                    "name": "D#4",
                    "midi": 63,
                    "time": 138.90895200000062,
                    "velocity": 0.31496062992125984,
                    "duration": 0.36363600000001384
                },
                {
                    "name": "C#4",
                    "midi": 61,
                    "time": 139.63622400000065,
                    "velocity": 0.33070866141732286,
                    "duration": 0.36363600000001384
                },
                {
                    "name": "F4",
                    "midi": 65,
                    "time": 139.63622400000065,
                    "velocity": 0.33070866141732286,
                    "duration": 1.4545440000000553
                },
                {
                    "name": "A3",
                    "midi": 57,
                    "time": 139.99986000000067,
                    "velocity": 0.3464566929133858,
                    "duration": 0.36363600000001384
                },
                {
                    "name": "A#3",
                    "midi": 58,
                    "time": 140.36349600000068,
                    "velocity": 0.3700787401574803,
                    "duration": 0.36363600000001384
                },
                {
                    "name": "C4",
                    "midi": 60,
                    "time": 140.7271320000007,
                    "velocity": 0.33070866141732286,
                    "duration": 0.36363600000001384
                },
                {
                    "name": "C#4",
                    "midi": 61,
                    "time": 141.0907680000007,
                    "velocity": 0.33858267716535434,
                    "duration": 0.36363600000001384
                },
                {
                    "name": "F4",
                    "midi": 65,
                    "time": 141.0907680000007,
                    "velocity": 0.33858267716535434,
                    "duration": 1.0909080000000415
                },
                {
                    "name": "A3",
                    "midi": 57,
                    "time": 141.45440400000072,
                    "velocity": 0.36220472440944884,
                    "duration": 0.36363600000001384
                },
                {
                    "name": "A#3",
                    "midi": 58,
                    "time": 141.81804000000074,
                    "velocity": 0.3779527559055118,
                    "duration": 0.36363600000001384
                },
                {
                    "name": "A#3",
                    "midi": 58,
                    "time": 142.18167600000075,
                    "velocity": 0.3464566929133858,
                    "duration": 0.36363600000001384
                },
                {
                    "name": "F4",
                    "midi": 65,
                    "time": 142.18167600000075,
                    "velocity": 0.3464566929133858,
                    "duration": 0.36363600000001384
                },
                {
                    "name": "F4",
                    "midi": 65,
                    "time": 142.90894800000078,
                    "velocity": 0.3858267716535433,
                    "duration": 0.36363600000001384
                },
                {
                    "name": "G#3",
                    "midi": 56,
                    "time": 142.90894800000078,
                    "velocity": 0.3858267716535433,
                    "duration": 0.36363600000001384
                },
                {
                    "name": "F#3",
                    "midi": 54,
                    "time": 143.6362200000008,
                    "velocity": 0.3858267716535433,
                    "duration": 0.36363600000001384
                },
                {
                    "name": "C#4",
                    "midi": 61,
                    "time": 143.6362200000008,
                    "velocity": 0.3858267716535433,
                    "duration": 0.36363600000001384
                },
                {
                    "name": "F3",
                    "midi": 53,
                    "time": 144.36349200000083,
                    "velocity": 0.3858267716535433,
                    "duration": 0.36363600000001384
                },
                {
                    "name": "D4",
                    "midi": 62,
                    "time": 144.36349200000083,
                    "velocity": 0.3858267716535433,
                    "duration": 0.36363600000001384
                },
                {
                    "name": "D#4",
                    "midi": 63,
                    "time": 145.09076400000086,
                    "velocity": 0.4566929133858268,
                    "duration": 0.36363600000001384
                },
                {
                    "name": "D#3",
                    "midi": 51,
                    "time": 145.09076400000086,
                    "velocity": 0.4566929133858268,
                    "duration": 0.36363600000001384
                },
                {
                    "name": "F3",
                    "midi": 53,
                    "time": 145.8180360000009,
                    "velocity": 0.5196850393700787,
                    "duration": 0.36363600000001384
                },
                {
                    "name": "C#4",
                    "midi": 61,
                    "time": 145.8180360000009,
                    "velocity": 0.5196850393700787,
                    "duration": 0.36363600000001384
                },
                {
                    "name": "C#4",
                    "midi": 61,
                    "time": 146.54530800000092,
                    "velocity": 0.5590551181102362,
                    "duration": 0.36363600000001384
                },
                {
                    "name": "F#3",
                    "midi": 54,
                    "time": 146.54530800000092,
                    "velocity": 0.5590551181102362,
                    "duration": 0.36363600000001384
                },
                {
                    "name": "E4",
                    "midi": 64,
                    "time": 146.90894400000093,
                    "velocity": 0.5590551181102362,
                    "duration": 0.7272719999999993
                },
                {
                    "name": "F#3",
                    "midi": 54,
                    "time": 146.90894400000093,
                    "velocity": 0.5590551181102362,
                    "duration": 1.4545439999999985
                },
                {
                    "name": "A#3",
                    "midi": 58,
                    "time": 147.63621600000093,
                    "velocity": 0.5984251968503937,
                    "duration": 0.7272719999999993
                },
                {
                    "name": "A3",
                    "midi": 57,
                    "time": 148.36348800000093,
                    "velocity": 0.5826771653543307,
                    "duration": 0.7272719999999993
                },
                {
                    "name": "F3",
                    "midi": 53,
                    "time": 148.36348800000093,
                    "velocity": 0.5826771653543307,
                    "duration": 1.4545439999999985
                },
                {
                    "name": "A#3",
                    "midi": 58,
                    "time": 149.09076000000093,
                    "velocity": 0.5118110236220472,
                    "duration": 0.7272719999999993
                },
                {
                    "name": "A3",
                    "midi": 57,
                    "time": 149.81803200000093,
                    "velocity": 0.4645669291338583,
                    "duration": 0.7272719999999993
                },
                {
                    "name": "F3",
                    "midi": 53,
                    "time": 149.81803200000093,
                    "velocity": 0.4645669291338583,
                    "duration": 1.4545439999999985
                },
                {
                    "name": "A#3",
                    "midi": 58,
                    "time": 150.54530400000093,
                    "velocity": 0.3700787401574803,
                    "duration": 0.7272719999999993
                },
                {
                    "name": "F4",
                    "midi": 65,
                    "time": 151.27257600000092,
                    "velocity": 0.3700787401574803,
                    "duration": 0.17272710000000302
                },
                {
                    "name": "F4",
                    "midi": 65,
                    "time": 151.45439400000092,
                    "velocity": 0.3700787401574803,
                    "duration": 0.1818179999999927
                },
                {
                    "name": "F4",
                    "midi": 65,
                    "time": 151.8180300000009,
                    "velocity": 0.3543307086614173,
                    "duration": 0.17272710000000302
                },
                {
                    "name": "F4",
                    "midi": 65,
                    "time": 151.9998480000009,
                    "velocity": 0.3700787401574803,
                    "duration": 0.17272710000000302
                },
                {
                    "name": "F4",
                    "midi": 65,
                    "time": 152.1816660000009,
                    "velocity": 0.3700787401574803,
                    "duration": 0.1818179999999927
                },
                {
                    "name": "F4",
                    "midi": 65,
                    "time": 152.54530200000087,
                    "velocity": 0.3464566929133858,
                    "duration": 0.17272710000000302
                },
                {
                    "name": "F4",
                    "midi": 65,
                    "time": 152.72712000000087,
                    "velocity": 0.3700787401574803,
                    "duration": 0.17272710000000302
                },
                {
                    "name": "F4",
                    "midi": 65,
                    "time": 152.90893800000086,
                    "velocity": 0.3700787401574803,
                    "duration": 0.1818179999999927
                },
                {
                    "name": "F4",
                    "midi": 65,
                    "time": 153.27257400000084,
                    "velocity": 0.3464566929133858,
                    "duration": 0.17272710000000302
                },
                {
                    "name": "F4",
                    "midi": 65,
                    "time": 153.45439200000084,
                    "velocity": 0.3700787401574803,
                    "duration": 0.17272710000000302
                },
                {
                    "name": "F4",
                    "midi": 65,
                    "time": 153.63621000000083,
                    "velocity": 0.3700787401574803,
                    "duration": 0.1818179999999927
                },
                {
                    "name": "F4",
                    "midi": 65,
                    "time": 153.99984600000082,
                    "velocity": 0.3700787401574803,
                    "duration": 0.17272710000000302
                },
                {
                    "name": "F3",
                    "midi": 53,
                    "time": 154.1816640000008,
                    "velocity": 0.41732283464566927,
                    "duration": 0.35681782500000736
                },
                {
                    "name": "F4",
                    "midi": 65,
                    "time": 154.1816640000008,
                    "velocity": 0.41732283464566927,
                    "duration": 0.35681782500000736
                },
                {
                    "name": "F3",
                    "midi": 53,
                    "time": 154.54530000000082,
                    "velocity": 0.3937007874015748,
                    "duration": 0.36363600000001384
                },
                {
                    "name": "A3",
                    "midi": 57,
                    "time": 154.54530000000082,
                    "velocity": 0.3937007874015748,
                    "duration": 0.36363600000001384
                },
                {
                    "name": "F3",
                    "midi": 53,
                    "time": 155.27257200000085,
                    "velocity": 0.3937007874015748,
                    "duration": 0.36363600000001384
                },
                {
                    "name": "A3",
                    "midi": 57,
                    "time": 155.27257200000085,
                    "velocity": 0.3937007874015748,
                    "duration": 0.36363600000001384
                },
                {
                    "name": "F3",
                    "midi": 53,
                    "time": 155.63620800000086,
                    "velocity": 0.41732283464566927,
                    "duration": 0.35681782500000736
                },
                {
                    "name": "G3",
                    "midi": 55,
                    "time": 155.63620800000086,
                    "velocity": 0.41732283464566927,
                    "duration": 0.35681782500000736
                },
                {
                    "name": "A#3",
                    "midi": 58,
                    "time": 155.63620800000086,
                    "velocity": 0.41732283464566927,
                    "duration": 0.35681782500000736
                },
                {
                    "name": "F3",
                    "midi": 53,
                    "time": 155.99984400000088,
                    "velocity": 0.3937007874015748,
                    "duration": 0.36363600000001384
                },
                {
                    "name": "A#3",
                    "midi": 58,
                    "time": 155.99984400000088,
                    "velocity": 0.3937007874015748,
                    "duration": 0.36363600000001384
                },
                {
                    "name": "G3",
                    "midi": 55,
                    "time": 155.99984400000088,
                    "velocity": 0.3937007874015748,
                    "duration": 0.36363600000001384
                },
                {
                    "name": "F3",
                    "midi": 53,
                    "time": 156.7271160000009,
                    "velocity": 0.4251968503937008,
                    "duration": 0.36363600000001384
                },
                {
                    "name": "B3",
                    "midi": 59,
                    "time": 156.7271160000009,
                    "velocity": 0.4251968503937008,
                    "duration": 0.36363600000001384
                },
                {
                    "name": "G#3",
                    "midi": 56,
                    "time": 156.7271160000009,
                    "velocity": 0.4251968503937008,
                    "duration": 0.36363600000001384
                },
                {
                    "name": "F3",
                    "midi": 53,
                    "time": 157.09075200000092,
                    "velocity": 0.4330708661417323,
                    "duration": 0.7272720000000277
                },
                {
                    "name": "C4",
                    "midi": 60,
                    "time": 157.09075200000092,
                    "velocity": 0.4330708661417323,
                    "duration": 0.36363600000001384
                },
                {
                    "name": "A3",
                    "midi": 57,
                    "time": 157.09075200000092,
                    "velocity": 0.4330708661417323,
                    "duration": 0.36363600000001384
                },
                {
                    "name": "A3",
                    "midi": 57,
                    "time": 157.45438800000093,
                    "velocity": 0.48031496062992124,
                    "duration": 0.36363600000001384
                },
                {
                    "name": "C#4",
                    "midi": 61,
                    "time": 157.45438800000093,
                    "velocity": 0.48031496062992124,
                    "duration": 0.36363600000001384
                },
                {
                    "name": "F3",
                    "midi": 53,
                    "time": 157.81802400000095,
                    "velocity": 0.5196850393700787,
                    "duration": 0.7272720000000277
                },
                {
                    "name": "D4",
                    "midi": 62,
                    "time": 157.81802400000095,
                    "velocity": 0.5196850393700787,
                    "duration": 0.36363600000001384
                },
                {
                    "name": "A#3",
                    "midi": 58,
                    "time": 157.81802400000095,
                    "velocity": 0.5196850393700787,
                    "duration": 0.36363600000001384
                },
                {
                    "name": "B3",
                    "midi": 59,
                    "time": 158.18166000000096,
                    "velocity": 0.5590551181102362,
                    "duration": 0.36363600000001384
                },
                {
                    "name": "D4",
                    "midi": 62,
                    "time": 158.18166000000096,
                    "velocity": 0.5590551181102362,
                    "duration": 0.36363600000001384
                },
                {
                    "name": "D#4",
                    "midi": 63,
                    "time": 158.54529600000097,
                    "velocity": 0.6062992125984252,
                    "duration": 1.4545439999999985
                },
                {
                    "name": "C4",
                    "midi": 60,
                    "time": 158.54529600000097,
                    "velocity": 0.6062992125984252,
                    "duration": 1.4545439999999985
                },
                {
                    "name": "F3",
                    "midi": 53,
                    "time": 158.54529600000097,
                    "velocity": 0.6062992125984252,
                    "duration": 1.4545439999999985
                },
                {
                    "name": "A#3",
                    "midi": 58,
                    "time": 161.81802000000098,
                    "velocity": 0.33070866141732286,
                    "duration": 0.36363600000001384
                },
                {
                    "name": "D4",
                    "midi": 62,
                    "time": 162.181656000001,
                    "velocity": 0.3779527559055118,
                    "duration": 0.09090900000001056
                },
                {
                    "name": "G4",
                    "midi": 67,
                    "time": 162.545292000001,
                    "velocity": 0.36220472440944884,
                    "duration": 0.09090900000001056
                },
                {
                    "name": "C4",
                    "midi": 60,
                    "time": 162.90892800000103,
                    "velocity": 0.4094488188976378,
                    "duration": 0.36363600000001384
                },
                {
                    "name": "D#4",
                    "midi": 63,
                    "time": 163.27256400000104,
                    "velocity": 0.36220472440944884,
                    "duration": 0.09090900000001056
                },
                {
                    "name": "F4",
                    "midi": 65,
                    "time": 163.63620000000105,
                    "velocity": 0.3779527559055118,
                    "duration": 0.36363600000001384
                },
                {
                    "name": "D#4",
                    "midi": 63,
                    "time": 163.99983600000107,
                    "velocity": 0.3700787401574803,
                    "duration": 0.36363600000001384
                },
                {
                    "name": "D4",
                    "midi": 62,
                    "time": 164.36347200000108,
                    "velocity": 0.41732283464566927,
                    "duration": 0.36363600000001384
                },
                {
                    "name": "A3",
                    "midi": 57,
                    "time": 164.7271080000011,
                    "velocity": 0.3700787401574803,
                    "duration": 0.36363600000001384
                },
                {
                    "name": "A#3",
                    "midi": 58,
                    "time": 165.0907440000011,
                    "velocity": 0.4015748031496063,
                    "duration": 0.36363600000001384
                },
                {
                    "name": "D#3",
                    "midi": 51,
                    "time": 165.45438000000112,
                    "velocity": 0.4015748031496063,
                    "duration": 0.36363600000001384
                },
                {
                    "name": "C4",
                    "midi": 60,
                    "time": 165.45438000000112,
                    "velocity": 0.4015748031496063,
                    "duration": 0.36363600000001384
                },
                {
                    "name": "A#3",
                    "midi": 58,
                    "time": 165.81801600000114,
                    "velocity": 0.4094488188976378,
                    "duration": 0.7272719999999993
                },
                {
                    "name": "F3",
                    "midi": 53,
                    "time": 165.81801600000114,
                    "velocity": 0.4094488188976378,
                    "duration": 1.090908000000013
                },
                {
                    "name": "A3",
                    "midi": 57,
                    "time": 166.54528800000114,
                    "velocity": 0.3700787401574803,
                    "duration": 0.36363600000001384
                },
                {
                    "name": "A#3",
                    "midi": 58,
                    "time": 167.63619600000115,
                    "velocity": 0.3543307086614173,
                    "duration": 0.36363600000001384
                },
                {
                    "name": "D4",
                    "midi": 62,
                    "time": 167.99983200000116,
                    "velocity": 0.3700787401574803,
                    "duration": 0.09090900000001056
                },
                {
                    "name": "G4",
                    "midi": 67,
                    "time": 168.36346800000118,
                    "velocity": 0.3700787401574803,
                    "duration": 0.09090900000001056
                },
                {
                    "name": "C4",
                    "midi": 60,
                    "time": 168.7271040000012,
                    "velocity": 0.4015748031496063,
                    "duration": 0.36363600000001384
                },
                {
                    "name": "D#4",
                    "midi": 63,
                    "time": 169.0907400000012,
                    "velocity": 0.36220472440944884,
                    "duration": 0.09090900000001056
                },
                {
                    "name": "F4",
                    "midi": 65,
                    "time": 169.45437600000122,
                    "velocity": 0.3779527559055118,
                    "duration": 0.36363600000001384
                },
                {
                    "name": "D#4",
                    "midi": 63,
                    "time": 169.81801200000123,
                    "velocity": 0.3779527559055118,
                    "duration": 0.36363600000001384
                },
                {
                    "name": "D4",
                    "midi": 62,
                    "time": 170.18164800000125,
                    "velocity": 0.4015748031496063,
                    "duration": 0.36363600000001384
                },
                {
                    "name": "D#3",
                    "midi": 51,
                    "time": 170.54528400000126,
                    "velocity": 0.3700787401574803,
                    "duration": 0.36363600000001384
                },
                {
                    "name": "D#4",
                    "midi": 63,
                    "time": 170.54528400000126,
                    "velocity": 0.3700787401574803,
                    "duration": 0.36363600000001384
                },
                {
                    "name": "D4",
                    "midi": 62,
                    "time": 170.90892000000127,
                    "velocity": 0.3937007874015748,
                    "duration": 0.36363600000001384
                },
                {
                    "name": "F3",
                    "midi": 53,
                    "time": 170.90892000000127,
                    "velocity": 0.3937007874015748,
                    "duration": 0.7272720000000277
                },
                {
                    "name": "C4",
                    "midi": 60,
                    "time": 171.2725560000013,
                    "velocity": 0.3779527559055118,
                    "duration": 0.36363600000001384
                },
                {
                    "name": "A#3",
                    "midi": 58,
                    "time": 171.6361920000013,
                    "velocity": 0.4015748031496063,
                    "duration": 0.36363600000001384
                },
                {
                    "name": "A#3",
                    "midi": 58,
                    "time": 173.09073600000133,
                    "velocity": 0.5039370078740157,
                    "duration": 0.1818179999999927
                },
                {
                    "name": "F4",
                    "midi": 65,
                    "time": 173.27255400000132,
                    "velocity": 0.4409448818897638,
                    "duration": 0.1818179999999927
                },
                {
                    "name": "D4",
                    "midi": 62,
                    "time": 173.4543720000013,
                    "velocity": 0.4645669291338583,
                    "duration": 0.1818179999999927
                },
                {
                    "name": "F4",
                    "midi": 65,
                    "time": 173.6361900000013,
                    "velocity": 0.4409448818897638,
                    "duration": 0.1818179999999927
                },
                {
                    "name": "G3",
                    "midi": 55,
                    "time": 173.8180080000013,
                    "velocity": 0.49606299212598426,
                    "duration": 0.1818179999999927
                },
                {
                    "name": "D4",
                    "midi": 62,
                    "time": 173.9998260000013,
                    "velocity": 0.44881889763779526,
                    "duration": 0.1818179999999927
                },
                {
                    "name": "A#3",
                    "midi": 58,
                    "time": 174.18164400000128,
                    "velocity": 0.4645669291338583,
                    "duration": 0.1818179999999927
                },
                {
                    "name": "D4",
                    "midi": 62,
                    "time": 174.36346200000128,
                    "velocity": 0.4409448818897638,
                    "duration": 0.1818179999999927
                },
                {
                    "name": "D#3",
                    "midi": 51,
                    "time": 174.54528000000127,
                    "velocity": 0.5039370078740157,
                    "duration": 0.1818179999999927
                },
                {
                    "name": "C4",
                    "midi": 60,
                    "time": 174.72709800000126,
                    "velocity": 0.4409448818897638,
                    "duration": 0.1818179999999927
                },
                {
                    "name": "G3",
                    "midi": 55,
                    "time": 174.90891600000126,
                    "velocity": 0.4645669291338583,
                    "duration": 0.1818179999999927
                },
                {
                    "name": "C4",
                    "midi": 60,
                    "time": 175.09073400000125,
                    "velocity": 0.4409448818897638,
                    "duration": 0.1818179999999927
                },
                {
                    "name": "F3",
                    "midi": 53,
                    "time": 175.27255200000124,
                    "velocity": 0.5039370078740157,
                    "duration": 0.1818179999999927
                },
                {
                    "name": "D#4",
                    "midi": 63,
                    "time": 175.45437000000123,
                    "velocity": 0.44881889763779526,
                    "duration": 0.1818179999999927
                },
                {
                    "name": "C4",
                    "midi": 60,
                    "time": 175.63618800000123,
                    "velocity": 0.47244094488188976,
                    "duration": 0.1818179999999927
                },
                {
                    "name": "D#4",
                    "midi": 63,
                    "time": 175.81800600000122,
                    "velocity": 0.44881889763779526,
                    "duration": 0.1818179999999927
                },
                {
                    "name": "D4",
                    "midi": 62,
                    "time": 175.9998240000012,
                    "velocity": 0.5196850393700787,
                    "duration": 0.36363600000001384
                },
                {
                    "name": "F4",
                    "midi": 65,
                    "time": 176.36346000000123,
                    "velocity": 0.47244094488188976,
                    "duration": 0.7272720000000277
                },
                {
                    "name": "A3",
                    "midi": 57,
                    "time": 176.36346000000123,
                    "velocity": 0.47244094488188976,
                    "duration": 0.36363600000001384
                },
                {
                    "name": "A#3",
                    "midi": 58,
                    "time": 176.72709600000124,
                    "velocity": 0.5039370078740157,
                    "duration": 0.36363600000001384
                },
                {
                    "name": "D#3",
                    "midi": 51,
                    "time": 177.09073200000125,
                    "velocity": 0.4566929133858268,
                    "duration": 0.36363600000001384
                },
                {
                    "name": "C4",
                    "midi": 60,
                    "time": 177.09073200000125,
                    "velocity": 0.4566929133858268,
                    "duration": 0.36363600000001384
                },
                {
                    "name": "A#3",
                    "midi": 58,
                    "time": 177.45436800000127,
                    "velocity": 0.5118110236220472,
                    "duration": 0.7272719999999993
                },
                {
                    "name": "F3",
                    "midi": 53,
                    "time": 177.45436800000127,
                    "velocity": 0.5118110236220472,
                    "duration": 1.090908000000013
                },
                {
                    "name": "A3",
                    "midi": 57,
                    "time": 178.18164000000127,
                    "velocity": 0.47244094488188976,
                    "duration": 0.36363600000001384
                },
                {
                    "name": "A#3",
                    "midi": 58,
                    "time": 178.9089120000013,
                    "velocity": 0.5118110236220472,
                    "duration": 0.1818179999999927
                },
                {
                    "name": "F4",
                    "midi": 65,
                    "time": 179.0907300000013,
                    "velocity": 0.44881889763779526,
                    "duration": 0.1818179999999927
                },
                {
                    "name": "D4",
                    "midi": 62,
                    "time": 179.27254800000128,
                    "velocity": 0.47244094488188976,
                    "duration": 0.1818179999999927
                },
                {
                    "name": "F4",
                    "midi": 65,
                    "time": 179.45436600000127,
                    "velocity": 0.4409448818897638,
                    "duration": 0.1818179999999927
                },
                {
                    "name": "G3",
                    "midi": 55,
                    "time": 179.63618400000126,
                    "velocity": 0.5039370078740157,
                    "duration": 0.09090900000001056
                },
                {
                    "name": "D4",
                    "midi": 62,
                    "time": 179.8180020000013,
                    "velocity": 0.44881889763779526,
                    "duration": 0.09090900000001056
                },
                {
                    "name": "A#3",
                    "midi": 58,
                    "time": 179.9998200000013,
                    "velocity": 0.47244094488188976,
                    "duration": 0.09090900000001056
                },
                {
                    "name": "D4",
                    "midi": 62,
                    "time": 180.18163800000133,
                    "velocity": 0.44881889763779526,
                    "duration": 0.09090900000001056
                },
                {
                    "name": "D#3",
                    "midi": 51,
                    "time": 180.36345600000135,
                    "velocity": 0.5039370078740157,
                    "duration": 0.1818179999999927
                },
                {
                    "name": "C4",
                    "midi": 60,
                    "time": 180.54527400000134,
                    "velocity": 0.4409448818897638,
                    "duration": 0.1818179999999927
                },
                {
                    "name": "G3",
                    "midi": 55,
                    "time": 180.72709200000133,
                    "velocity": 0.4645669291338583,
                    "duration": 0.1818179999999927
                },
                {
                    "name": "C4",
                    "midi": 60,
                    "time": 180.90891000000133,
                    "velocity": 0.4409448818897638,
                    "duration": 0.1818179999999927
                },
                {
                    "name": "F3",
                    "midi": 53,
                    "time": 181.09072800000132,
                    "velocity": 0.5039370078740157,
                    "duration": 0.1818179999999927
                },
                {
                    "name": "D#4",
                    "midi": 63,
                    "time": 181.2725460000013,
                    "velocity": 0.4409448818897638,
                    "duration": 0.1818179999999927
                },
                {
                    "name": "C4",
                    "midi": 60,
                    "time": 181.4543640000013,
                    "velocity": 0.4645669291338583,
                    "duration": 0.1818179999999927
                },
                {
                    "name": "D#4",
                    "midi": 63,
                    "time": 181.6361820000013,
                    "velocity": 0.4330708661417323,
                    "duration": 0.1818179999999927
                },
                {
                    "name": "A#3",
                    "midi": 58,
                    "time": 181.8180000000013,
                    "velocity": 0.4645669291338583,
                    "duration": 0.7272720000000277
                },
                {
                    "name": "D3",
                    "midi": 50,
                    "time": 181.8180000000013,
                    "velocity": 0.4645669291338583,
                    "duration": 0.36363600000001384
                },
                {
                    "name": "D#3",
                    "midi": 51,
                    "time": 182.1816360000013,
                    "velocity": 0.44881889763779526,
                    "duration": 0.36363600000001384
                },
                {
                    "name": "D4",
                    "midi": 62,
                    "time": 182.54527200000132,
                    "velocity": 0.4645669291338583,
                    "duration": 0.36363600000001384
                },
                {
                    "name": "F3",
                    "midi": 53,
                    "time": 182.54527200000132,
                    "velocity": 0.4645669291338583,
                    "duration": 0.7272720000000277
                },
                {
                    "name": "D#4",
                    "midi": 63,
                    "time": 182.90890800000133,
                    "velocity": 0.44881889763779526,
                    "duration": 0.36363600000001384
                },
                {
                    "name": "A#3",
                    "midi": 58,
                    "time": 183.27254400000135,
                    "velocity": 0.4645669291338583,
                    "duration": 0.36363600000001384
                },
                {
                    "name": "D4",
                    "midi": 62,
                    "time": 183.27254400000135,
                    "velocity": 0.4645669291338583,
                    "duration": 0.36363600000001384
                },
                {
                    "name": "A#2",
                    "midi": 46,
                    "time": 183.63618000000136,
                    "velocity": 0.49606299212598426,
                    "duration": 0.36363600000001384
                },
                {
                    "name": "A#3",
                    "midi": 58,
                    "time": 185.0907240000014,
                    "velocity": 0.3700787401574803,
                    "duration": 0.13636349999998743
                },
                {
                    "name": "G3",
                    "midi": 55,
                    "time": 185.45436000000137,
                    "velocity": 0.3779527559055118,
                    "duration": 0.36363600000001384
                },
                {
                    "name": "D#3",
                    "midi": 51,
                    "time": 185.8179960000014,
                    "velocity": 0.36220472440944884,
                    "duration": 0.36363600000001384
                },
                {
                    "name": "F3",
                    "midi": 53,
                    "time": 186.1816320000014,
                    "velocity": 0.3700787401574803,
                    "duration": 0.36363600000001384
                },
                {
                    "name": "F2",
                    "midi": 41,
                    "time": 186.5452680000014,
                    "velocity": 0.44881889763779526,
                    "duration": 0.36363600000001384
                },
                {
                    "name": "C4",
                    "midi": 60,
                    "time": 187.99981200000144,
                    "velocity": 0.3543307086614173,
                    "duration": 0.13636349999998743
                },
                {
                    "name": "A3",
                    "midi": 57,
                    "time": 188.36344800000143,
                    "velocity": 0.3543307086614173,
                    "duration": 0.36363600000001384
                },
                {
                    "name": "F3",
                    "midi": 53,
                    "time": 188.72708400000144,
                    "velocity": 0.3543307086614173,
                    "duration": 0.36363600000001384
                },
                {
                    "name": "A#3",
                    "midi": 58,
                    "time": 189.09072000000145,
                    "velocity": 0.36220472440944884,
                    "duration": 0.36363600000001384
                },
                {
                    "name": "A#2",
                    "midi": 46,
                    "time": 189.45435600000147,
                    "velocity": 0.5511811023622047,
                    "duration": 0.36363600000001384
                },
                {
                    "name": "D3",
                    "midi": 50,
                    "time": 190.9089000000015,
                    "velocity": 0.4645669291338583,
                    "duration": 0.1818179999999927
                },
                {
                    "name": "D2",
                    "midi": 38,
                    "time": 190.9089000000015,
                    "velocity": 0.41732283464566927,
                    "duration": 0.1818179999999927
                },
                {
                    "name": "D2",
                    "midi": 38,
                    "time": 191.27253600000148,
                    "velocity": 0.44881889763779526,
                    "duration": 0.1818179999999927
                },
                {
                    "name": "D3",
                    "midi": 50,
                    "time": 191.27253600000148,
                    "velocity": 0.5039370078740157,
                    "duration": 0.1818179999999927
                },
                {
                    "name": "C3",
                    "midi": 48,
                    "time": 191.63617200000147,
                    "velocity": 0.4566929133858268,
                    "duration": 0.1818179999999927
                },
                {
                    "name": "C2",
                    "midi": 36,
                    "time": 191.63617200000147,
                    "velocity": 0.4094488188976378,
                    "duration": 0.1818179999999927
                },
                {
                    "name": "B2",
                    "midi": 47,
                    "time": 191.99980800000145,
                    "velocity": 0.44881889763779526,
                    "duration": 0.36363600000001384
                },
                {
                    "name": "B1",
                    "midi": 35,
                    "time": 191.99980800000145,
                    "velocity": 0.4015748031496063,
                    "duration": 0.36363600000001384
                },
                {
                    "name": "B3",
                    "midi": 59,
                    "time": 192.36344400000146,
                    "velocity": 0.5196850393700787,
                    "duration": 0.36363600000001384
                },
                {
                    "name": "G4",
                    "midi": 67,
                    "time": 193.0907160000015,
                    "velocity": 0.3700787401574803,
                    "duration": 0.36363600000001384
                },
                {
                    "name": "A#3",
                    "midi": 58,
                    "time": 193.0907160000015,
                    "velocity": 0.3700787401574803,
                    "duration": 0.36363600000001384
                },
                {
                    "name": "C4",
                    "midi": 60,
                    "time": 193.4543520000015,
                    "velocity": 0.3779527559055118,
                    "duration": 0.36363600000001384
                },
                {
                    "name": "G4",
                    "midi": 67,
                    "time": 193.4543520000015,
                    "velocity": 0.3779527559055118,
                    "duration": 0.36363600000001384
                },
                {
                    "name": "C3",
                    "midi": 48,
                    "time": 193.81798800000152,
                    "velocity": 0.4330708661417323,
                    "duration": 0.36363600000001384
                },
                {
                    "name": "C2",
                    "midi": 36,
                    "time": 195.27253200000155,
                    "velocity": 0.4094488188976378,
                    "duration": 0.1818179999999927
                },
                {
                    "name": "C3",
                    "midi": 48,
                    "time": 195.27253200000155,
                    "velocity": 0.4566929133858268,
                    "duration": 0.1818179999999927
                },
                {
                    "name": "C3",
                    "midi": 48,
                    "time": 195.63616800000153,
                    "velocity": 0.4881889763779528,
                    "duration": 0.1818179999999927
                },
                {
                    "name": "C2",
                    "midi": 36,
                    "time": 195.63616800000153,
                    "velocity": 0.4330708661417323,
                    "duration": 0.1818179999999927
                },
                {
                    "name": "A#1",
                    "midi": 34,
                    "time": 195.99980400000152,
                    "velocity": 0.4094488188976378,
                    "duration": 0.1818179999999927
                },
                {
                    "name": "A#2",
                    "midi": 46,
                    "time": 195.99980400000152,
                    "velocity": 0.4566929133858268,
                    "duration": 0.1818179999999927
                },
                {
                    "name": "A2",
                    "midi": 45,
                    "time": 196.3634400000015,
                    "velocity": 0.44881889763779526,
                    "duration": 0.36363600000001384
                },
                {
                    "name": "A1",
                    "midi": 33,
                    "time": 196.3634400000015,
                    "velocity": 0.4015748031496063,
                    "duration": 0.36363600000001384
                },
                {
                    "name": "A3",
                    "midi": 57,
                    "time": 196.72707600000152,
                    "velocity": 0.47244094488188976,
                    "duration": 0.36363600000001384
                },
                {
                    "name": "A3",
                    "midi": 57,
                    "time": 197.45434800000154,
                    "velocity": 0.3464566929133858,
                    "duration": 0.36363600000001384
                },
                {
                    "name": "F4",
                    "midi": 65,
                    "time": 197.45434800000154,
                    "velocity": 0.3464566929133858,
                    "duration": 0.36363600000001384
                },
                {
                    "name": "A#3",
                    "midi": 58,
                    "time": 197.81798400000156,
                    "velocity": 0.3464566929133858,
                    "duration": 0.36363600000001384
                },
                {
                    "name": "F4",
                    "midi": 65,
                    "time": 197.81798400000156,
                    "velocity": 0.3464566929133858,
                    "duration": 0.36363600000001384
                },
                {
                    "name": "A#2",
                    "midi": 46,
                    "time": 198.18162000000157,
                    "velocity": 0.4015748031496063,
                    "duration": 0.36363600000001384
                },
                {
                    "name": "D#3",
                    "midi": 51,
                    "time": 199.45434600000158,
                    "velocity": 0.4094488188976378,
                    "duration": 0.1818179999999927
                },
                {
                    "name": "A#3",
                    "midi": 58,
                    "time": 199.63616400000157,
                    "velocity": 0.4330708661417323,
                    "duration": 0.1818179999999927
                },
                {
                    "name": "G3",
                    "midi": 55,
                    "time": 199.81798200000156,
                    "velocity": 0.4015748031496063,
                    "duration": 0.1818179999999927
                },
                {
                    "name": "C4",
                    "midi": 60,
                    "time": 199.99980000000156,
                    "velocity": 0.47244094488188976,
                    "duration": 0.36363600000001384
                },
                {
                    "name": "F3",
                    "midi": 53,
                    "time": 200.90889000000158,
                    "velocity": 0.44881889763779526,
                    "duration": 0.1818179999999927
                },
                {
                    "name": "A#3",
                    "midi": 58,
                    "time": 201.09070800000157,
                    "velocity": 0.47244094488188976,
                    "duration": 0.1818179999999927
                },
                {
                    "name": "G#3",
                    "midi": 56,
                    "time": 201.27252600000156,
                    "velocity": 0.4251968503937008,
                    "duration": 0.1818179999999927
                },
                {
                    "name": "D4",
                    "midi": 62,
                    "time": 201.45434400000156,
                    "velocity": 0.5354330708661418,
                    "duration": 0.36363600000001384
                },
                {
                    "name": "G3",
                    "midi": 55,
                    "time": 202.36343400000158,
                    "velocity": 0.4251968503937008,
                    "duration": 0.1818179999999927
                },
                {
                    "name": "D#4",
                    "midi": 63,
                    "time": 202.54525200000157,
                    "velocity": 0.4566929133858268,
                    "duration": 0.1818179999999927
                },
                {
                    "name": "A#3",
                    "midi": 58,
                    "time": 202.72707000000156,
                    "velocity": 0.4251968503937008,
                    "duration": 0.1818179999999927
                },
                {
                    "name": "G4",
                    "midi": 67,
                    "time": 202.90888800000155,
                    "velocity": 0.5118110236220472,
                    "duration": 0.36363600000001384
                },
                {
                    "name": "D3",
                    "midi": 50,
                    "time": 203.81797800000157,
                    "velocity": 0.4330708661417323,
                    "duration": 0.1818179999999927
                },
                {
                    "name": "A#3",
                    "midi": 58,
                    "time": 203.99979600000157,
                    "velocity": 0.4566929133858268,
                    "duration": 0.1818179999999927
                },
                {
                    "name": "F3",
                    "midi": 53,
                    "time": 204.18161400000156,
                    "velocity": 0.4330708661417323,
                    "duration": 0.1818179999999927
                },
                {
                    "name": "D4",
                    "midi": 62,
                    "time": 204.36343200000155,
                    "velocity": 0.5039370078740157,
                    "duration": 0.36363600000001384
                },
                {
                    "name": "D#3",
                    "midi": 51,
                    "time": 205.09070400000158,
                    "velocity": 0.5748031496062992,
                    "duration": 2.1818159999999978
                },
                {
                    "name": "G3",
                    "midi": 55,
                    "time": 205.81797600000158,
                    "velocity": 0.5511811023622047,
                    "duration": 0.7272719999999993
                },
                {
                    "name": "C4",
                    "midi": 60,
                    "time": 206.54524800000158,
                    "velocity": 0.5826771653543307,
                    "duration": 0.7272719999999993
                },
                {
                    "name": "C4",
                    "midi": 60,
                    "time": 207.27252000000158,
                    "velocity": 0.5511811023622047,
                    "duration": 0.7272719999999993
                },
                {
                    "name": "E3",
                    "midi": 52,
                    "time": 207.27252000000158,
                    "velocity": 0.5511811023622047,
                    "duration": 0.7272719999999993
                },
                {
                    "name": "F3",
                    "midi": 53,
                    "time": 207.99979200000158,
                    "velocity": 0.5118110236220472,
                    "duration": 0.1818179999999927
                },
                {
                    "name": "C4",
                    "midi": 60,
                    "time": 208.18161000000157,
                    "velocity": 0.47244094488188976,
                    "duration": 0.1818179999999927
                },
                {
                    "name": "A3",
                    "midi": 57,
                    "time": 208.36342800000156,
                    "velocity": 0.5354330708661418,
                    "duration": 0.1818179999999927
                },
                {
                    "name": "C4",
                    "midi": 60,
                    "time": 208.54524600000155,
                    "velocity": 0.5196850393700787,
                    "duration": 0.1818179999999927
                },
                {
                    "name": "F3",
                    "midi": 53,
                    "time": 208.72706400000155,
                    "velocity": 0.5433070866141733,
                    "duration": 0.1818179999999927
                },
                {
                    "name": "C4",
                    "midi": 60,
                    "time": 208.90888200000154,
                    "velocity": 0.5118110236220472,
                    "duration": 0.1818179999999927
                },
                {
                    "name": "A3",
                    "midi": 57,
                    "time": 209.09070000000153,
                    "velocity": 0.5590551181102362,
                    "duration": 0.09090900000001056
                },
                {
                    "name": "C4",
                    "midi": 60,
                    "time": 209.27251800000155,
                    "velocity": 0.5196850393700787,
                    "duration": 0.09090900000001056
                },
                {
                    "name": "F3",
                    "midi": 53,
                    "time": 209.45433600000158,
                    "velocity": 0.5118110236220472,
                    "duration": 0.1818179999999927
                },
                {
                    "name": "D4",
                    "midi": 62,
                    "time": 209.63615400000157,
                    "velocity": 0.4566929133858268,
                    "duration": 0.1818179999999927
                },
                {
                    "name": "A#3",
                    "midi": 58,
                    "time": 209.81797200000156,
                    "velocity": 0.5196850393700787,
                    "duration": 0.1818179999999927
                },
                {
                    "name": "D4",
                    "midi": 62,
                    "time": 209.99979000000155,
                    "velocity": 0.4881889763779528,
                    "duration": 0.1818179999999927
                },
                {
                    "name": "F3",
                    "midi": 53,
                    "time": 210.18160800000155,
                    "velocity": 0.5433070866141733,
                    "duration": 0.1818179999999927
                },
                {
                    "name": "D4",
                    "midi": 62,
                    "time": 210.36342600000154,
                    "velocity": 0.5039370078740157,
                    "duration": 0.1818179999999927
                },
                {
                    "name": "A#3",
                    "midi": 58,
                    "time": 210.54524400000153,
                    "velocity": 0.5590551181102362,
                    "duration": 0.09090900000001056
                },
                {
                    "name": "D4",
                    "midi": 62,
                    "time": 210.72706200000155,
                    "velocity": 0.5196850393700787,
                    "duration": 0.09090900000001056
                },
                {
                    "name": "F3",
                    "midi": 53,
                    "time": 210.90888000000157,
                    "velocity": 0.5590551181102362,
                    "duration": 0.1818179999999927
                },
                {
                    "name": "D#4",
                    "midi": 63,
                    "time": 211.09069800000157,
                    "velocity": 0.5275590551181102,
                    "duration": 0.1818179999999927
                },
                {
                    "name": "C4",
                    "midi": 60,
                    "time": 211.27251600000156,
                    "velocity": 0.5590551181102362,
                    "duration": 0.1818179999999927
                },
                {
                    "name": "D#4",
                    "midi": 63,
                    "time": 211.45433400000155,
                    "velocity": 0.5196850393700787,
                    "duration": 0.1818179999999927
                },
                {
                    "name": "F3",
                    "midi": 53,
                    "time": 211.63615200000154,
                    "velocity": 0.5905511811023622,
                    "duration": 0.1818179999999927
                },
                {
                    "name": "C4",
                    "midi": 60,
                    "time": 211.81797000000154,
                    "velocity": 0.5590551181102362,
                    "duration": 0.1818179999999927
                },
                {
                    "name": "A3",
                    "midi": 57,
                    "time": 211.99978800000153,
                    "velocity": 0.5748031496062992,
                    "duration": 0.1818179999999927
                },
                {
                    "name": "C4",
                    "midi": 60,
                    "time": 212.18160600000152,
                    "velocity": 0.5196850393700787,
                    "duration": 0.1818179999999927
                },
                {
                    "name": "F3",
                    "midi": 53,
                    "time": 212.36342400000152,
                    "velocity": 0.5433070866141733,
                    "duration": 0.1818179999999927
                },
                {
                    "name": "D4",
                    "midi": 62,
                    "time": 212.5452420000015,
                    "velocity": 0.5118110236220472,
                    "duration": 0.1818179999999927
                },
                {
                    "name": "A#3",
                    "midi": 58,
                    "time": 212.7270600000015,
                    "velocity": 0.5275590551181102,
                    "duration": 0.1818179999999927
                },
                {
                    "name": "D4",
                    "midi": 62,
                    "time": 212.9088780000015,
                    "velocity": 0.49606299212598426,
                    "duration": 0.1818179999999927
                },
                {
                    "name": "F3",
                    "midi": 53,
                    "time": 213.0906960000015,
                    "velocity": 0.5354330708661418,
                    "duration": 0.1818179999999927
                },
                {
                    "name": "D4",
                    "midi": 62,
                    "time": 213.27251400000148,
                    "velocity": 0.49606299212598426,
                    "duration": 0.1818179999999927
                },
                {
                    "name": "A#3",
                    "midi": 58,
                    "time": 213.45433200000147,
                    "velocity": 0.5118110236220472,
                    "duration": 0.1818179999999927
                },
                {
                    "name": "D4",
                    "midi": 62,
                    "time": 213.63615000000146,
                    "velocity": 0.4409448818897638,
                    "duration": 0.1818179999999927
                },
                {
                    "name": "A3",
                    "midi": 57,
                    "time": 213.81796800000146,
                    "velocity": 0.47244094488188976,
                    "duration": 0.09090900000001056
                },
                {
                    "name": "C4",
                    "midi": 60,
                    "time": 213.81796800000146,
                    "velocity": 0.47244094488188976,
                    "duration": 0.09090900000001056
                },
                {
                    "name": "F3",
                    "midi": 53,
                    "time": 213.81796800000146,
                    "velocity": 0.47244094488188976,
                    "duration": 0.09090900000001056
                },
                {
                    "name": "D#3",
                    "midi": 51,
                    "time": 214.54524000000146,
                    "velocity": 0.4251968503937008,
                    "duration": 0.1818179999999927
                },
                {
                    "name": "F3",
                    "midi": 53,
                    "time": 214.72705800000145,
                    "velocity": 0.3937007874015748,
                    "duration": 0.1818179999999927
                },
                {
                    "name": "D#3",
                    "midi": 51,
                    "time": 214.90887600000144,
                    "velocity": 0.3543307086614173,
                    "duration": 0.1818179999999927
                },
                {
                    "name": "F3",
                    "midi": 53,
                    "time": 215.09069400000143,
                    "velocity": 0.3228346456692913,
                    "duration": 0.1818179999999927
                },
                {
                    "name": "D3",
                    "midi": 50,
                    "time": 215.27251200000143,
                    "velocity": 0.3779527559055118,
                    "duration": 0.1818179999999927
                },
                {
                    "name": "F3",
                    "midi": 53,
                    "time": 215.45433000000142,
                    "velocity": 0.3543307086614173,
                    "duration": 0.1818179999999927
                },
                {
                    "name": "D3",
                    "midi": 50,
                    "time": 215.6361480000014,
                    "velocity": 0.4015748031496063,
                    "duration": 0.1818179999999927
                },
                {
                    "name": "F3",
                    "midi": 53,
                    "time": 215.8179660000014,
                    "velocity": 0.3700787401574803,
                    "duration": 0.1818179999999927
                },
                {
                    "name": "D#3",
                    "midi": 51,
                    "time": 215.9997840000014,
                    "velocity": 0.41732283464566927,
                    "duration": 0.1818179999999927
                },
                {
                    "name": "F3",
                    "midi": 53,
                    "time": 216.1816020000014,
                    "velocity": 0.3937007874015748,
                    "duration": 0.1818179999999927
                },
                {
                    "name": "D#3",
                    "midi": 51,
                    "time": 216.36342000000138,
                    "velocity": 0.3700787401574803,
                    "duration": 0.1818179999999927
                },
                {
                    "name": "F3",
                    "midi": 53,
                    "time": 216.54523800000138,
                    "velocity": 0.33858267716535434,
                    "duration": 0.1818179999999927
                },
                {
                    "name": "D3",
                    "midi": 50,
                    "time": 216.72705600000137,
                    "velocity": 0.36220472440944884,
                    "duration": 0.1818179999999927
                },
                {
                    "name": "F3",
                    "midi": 53,
                    "time": 216.90887400000136,
                    "velocity": 0.2992125984251969,
                    "duration": 0.1818179999999927
                },
                {
                    "name": "D3",
                    "midi": 50,
                    "time": 217.09069200000135,
                    "velocity": 0.3464566929133858,
                    "duration": 0.1818179999999927
                },
                {
                    "name": "F3",
                    "midi": 53,
                    "time": 217.27251000000135,
                    "velocity": 0.33070866141732286,
                    "duration": 0.1818179999999927
                },
                {
                    "name": "D#3",
                    "midi": 51,
                    "time": 217.45432800000134,
                    "velocity": 0.4409448818897638,
                    "duration": 0.1818179999999927
                },
                {
                    "name": "F3",
                    "midi": 53,
                    "time": 217.63614600000133,
                    "velocity": 0.4330708661417323,
                    "duration": 0.1818179999999927
                },
                {
                    "name": "D#3",
                    "midi": 51,
                    "time": 217.81796400000133,
                    "velocity": 0.3858267716535433,
                    "duration": 0.1818179999999927
                },
                {
                    "name": "F3",
                    "midi": 53,
                    "time": 217.99978200000132,
                    "velocity": 0.36220472440944884,
                    "duration": 0.1818179999999927
                },
                {
                    "name": "D3",
                    "midi": 50,
                    "time": 218.1816000000013,
                    "velocity": 0.3779527559055118,
                    "duration": 0.1818179999999927
                },
                {
                    "name": "F3",
                    "midi": 53,
                    "time": 218.3634180000013,
                    "velocity": 0.3543307086614173,
                    "duration": 0.1818179999999927
                },
                {
                    "name": "D3",
                    "midi": 50,
                    "time": 218.5452360000013,
                    "velocity": 0.3937007874015748,
                    "duration": 0.1818179999999927
                },
                {
                    "name": "F3",
                    "midi": 53,
                    "time": 218.7270540000013,
                    "velocity": 0.3700787401574803,
                    "duration": 0.1818179999999927
                },
                {
                    "name": "D#3",
                    "midi": 51,
                    "time": 218.90887200000128,
                    "velocity": 0.41732283464566927,
                    "duration": 0.1818179999999927
                },
                {
                    "name": "F3",
                    "midi": 53,
                    "time": 219.09069000000127,
                    "velocity": 0.3937007874015748,
                    "duration": 0.1818179999999927
                },
                {
                    "name": "D#3",
                    "midi": 51,
                    "time": 219.27250800000127,
                    "velocity": 0.3779527559055118,
                    "duration": 0.1818179999999927
                },
                {
                    "name": "F3",
                    "midi": 53,
                    "time": 219.45432600000126,
                    "velocity": 0.3543307086614173,
                    "duration": 0.1818179999999927
                },
                {
                    "name": "D3",
                    "midi": 50,
                    "time": 219.63614400000125,
                    "velocity": 0.41732283464566927,
                    "duration": 0.1818179999999927
                },
                {
                    "name": "F4",
                    "midi": 65,
                    "time": 219.81796200000124,
                    "velocity": 0.3858267716535433,
                    "duration": 0.1818179999999927
                },
                {
                    "name": "D4",
                    "midi": 62,
                    "time": 219.99978000000124,
                    "velocity": 0.41732283464566927,
                    "duration": 0.1818179999999927
                },
                {
                    "name": "F4",
                    "midi": 65,
                    "time": 220.18159800000123,
                    "velocity": 0.3858267716535433,
                    "duration": 0.1818179999999927
                },
                {
                    "name": "D#4",
                    "midi": 63,
                    "time": 220.36341600000122,
                    "velocity": 0.4251968503937008,
                    "duration": 0.1818179999999927
                },
                {
                    "name": "F4",
                    "midi": 65,
                    "time": 220.54523400000122,
                    "velocity": 0.3779527559055118,
                    "duration": 0.1818179999999927
                },
                {
                    "name": "D#4",
                    "midi": 63,
                    "time": 220.7270520000012,
                    "velocity": 0.44881889763779526,
                    "duration": 0.1818179999999927
                },
                {
                    "name": "F4",
                    "midi": 65,
                    "time": 220.9088700000012,
                    "velocity": 0.4094488188976378,
                    "duration": 0.1818179999999927
                },
                {
                    "name": "D4",
                    "midi": 62,
                    "time": 221.0906880000012,
                    "velocity": 0.5039370078740157,
                    "duration": 0.36363600000001384
                },
                {
                    "name": "A#3",
                    "midi": 58,
                    "time": 222.1815960000012,
                    "velocity": 0.5905511811023622,
                    "duration": 0.36363600000001384
                },
                {
                    "name": "D3",
                    "midi": 50,
                    "time": 222.1815960000012,
                    "velocity": 0.5905511811023622,
                    "duration": 0.36363600000001384
                },
                {
                    "name": "D#3",
                    "midi": 51,
                    "time": 222.54523200000122,
                    "velocity": 0.6692913385826772,
                    "duration": 0.36363600000001384
                },
                {
                    "name": "A#3",
                    "midi": 58,
                    "time": 222.54523200000122,
                    "velocity": 0.6692913385826772,
                    "duration": 0.36363600000001384
                },
                {
                    "name": "A#3",
                    "midi": 58,
                    "time": 223.63614000000123,
                    "velocity": 0.44881889763779526,
                    "duration": 0.36363600000001384
                },
                {
                    "name": "C4",
                    "midi": 60,
                    "time": 223.63614000000123,
                    "velocity": 0.44881889763779526,
                    "duration": 0.36363600000001384
                },
                {
                    "name": "D#3",
                    "midi": 51,
                    "time": 223.63614000000123,
                    "velocity": 0.44881889763779526,
                    "duration": 0.36363600000001384
                },
                {
                    "name": "F3",
                    "midi": 53,
                    "time": 223.99977600000125,
                    "velocity": 0.48031496062992124,
                    "duration": 0.1818179999999927
                },
                {
                    "name": "D4",
                    "midi": 62,
                    "time": 224.18159400000124,
                    "velocity": 0.44881889763779526,
                    "duration": 0.1818179999999927
                },
                {
                    "name": "A#3",
                    "midi": 58,
                    "time": 224.36341200000123,
                    "velocity": 0.4881889763779528,
                    "duration": 0.1818179999999927
                },
                {
                    "name": "D4",
                    "midi": 62,
                    "time": 224.54523000000123,
                    "velocity": 0.44881889763779526,
                    "duration": 0.1818179999999927
                },
                {
                    "name": "F3",
                    "midi": 53,
                    "time": 224.72704800000122,
                    "velocity": 0.48031496062992124,
                    "duration": 0.1818179999999927
                },
                {
                    "name": "D#4",
                    "midi": 63,
                    "time": 224.9088660000012,
                    "velocity": 0.4330708661417323,
                    "duration": 0.1818179999999927
                },
                {
                    "name": "A3",
                    "midi": 57,
                    "time": 225.0906840000012,
                    "velocity": 0.48031496062992124,
                    "duration": 0.1818179999999927
                },
                {
                    "name": "D#4",
                    "midi": 63,
                    "time": 225.2725020000012,
                    "velocity": 0.4330708661417323,
                    "duration": 0.1818179999999927
                },
                {
                    "name": "A#3",
                    "midi": 58,
                    "time": 225.4543200000012,
                    "velocity": 0.48031496062992124,
                    "duration": 0.36363600000001384
                },
                {
                    "name": "C4",
                    "midi": 60,
                    "time": 225.9997740000012,
                    "velocity": 0.5433070866141733,
                    "duration": 0.1818179999999927
                },
                {
                    "name": "D4",
                    "midi": 62,
                    "time": 226.1815920000012,
                    "velocity": 0.5826771653543307,
                    "duration": 0.36363600000001384
                },
                {
                    "name": "D2",
                    "midi": 38,
                    "time": 226.7270460000012,
                    "velocity": 0.5039370078740157,
                    "duration": 0.1818179999999927
                },
                {
                    "name": "D3",
                    "midi": 50,
                    "time": 226.7270460000012,
                    "velocity": 0.5039370078740157,
                    "duration": 0.1818179999999927
                },
                {
                    "name": "D#2",
                    "midi": 39,
                    "time": 226.9088640000012,
                    "velocity": 0.5433070866141733,
                    "duration": 0.36363600000001384
                },
                {
                    "name": "D#3",
                    "midi": 51,
                    "time": 226.9088640000012,
                    "velocity": 0.5433070866141733,
                    "duration": 0.36363600000001384
                },
                {
                    "name": "F2",
                    "midi": 41,
                    "time": 228.36340800000121,
                    "velocity": 0.6929133858267716,
                    "duration": 1.4545439999999985
                },
                {
                    "name": "F1",
                    "midi": 29,
                    "time": 228.36340800000121,
                    "velocity": 0.6929133858267716,
                    "duration": 1.4545439999999985
                },
                {
                    "name": "F2",
                    "midi": 41,
                    "time": 229.8179520000012,
                    "velocity": 0.5511811023622047,
                    "duration": 0.36363600000001384
                },
                {
                    "name": "D3",
                    "midi": 50,
                    "time": 229.8179520000012,
                    "velocity": 0.5511811023622047,
                    "duration": 0.36363600000001384
                },
                {
                    "name": "A#2",
                    "midi": 46,
                    "time": 229.8179520000012,
                    "velocity": 0.5511811023622047,
                    "duration": 0.36363600000001384
                },
                {
                    "name": "A#2",
                    "midi": 46,
                    "time": 230.54522400000124,
                    "velocity": 0.5590551181102362,
                    "duration": 0.36363600000001384
                },
                {
                    "name": "D3",
                    "midi": 50,
                    "time": 230.54522400000124,
                    "velocity": 0.5590551181102362,
                    "duration": 0.36363600000001384
                },
                {
                    "name": "F2",
                    "midi": 41,
                    "time": 230.54522400000124,
                    "velocity": 0.5590551181102362,
                    "duration": 0.36363600000001384
                },
                {
                    "name": "A#3",
                    "midi": 58,
                    "time": 231.27249600000127,
                    "velocity": 0.6377952755905512,
                    "duration": 0.36363600000001384
                },
                {
                    "name": "F3",
                    "midi": 53,
                    "time": 231.27249600000127,
                    "velocity": 0.6377952755905512,
                    "duration": 0.36363600000001384
                },
                {
                    "name": "D4",
                    "midi": 62,
                    "time": 231.27249600000127,
                    "velocity": 0.6377952755905512,
                    "duration": 0.36363600000001384
                },
                {
                    "name": "F3",
                    "midi": 53,
                    "time": 234.1815840000013,
                    "velocity": 0.44881889763779526,
                    "duration": 0.1818179999999927
                },
                {
                    "name": "D4",
                    "midi": 62,
                    "time": 234.3634020000013,
                    "velocity": 0.4251968503937008,
                    "duration": 0.1818179999999927
                },
                {
                    "name": "A#3",
                    "midi": 58,
                    "time": 234.54522000000128,
                    "velocity": 0.44881889763779526,
                    "duration": 0.1818179999999927
                },
                {
                    "name": "D4",
                    "midi": 62,
                    "time": 234.72703800000127,
                    "velocity": 0.41732283464566927,
                    "duration": 0.1818179999999927
                },
                {
                    "name": "F3",
                    "midi": 53,
                    "time": 234.90885600000126,
                    "velocity": 0.44881889763779526,
                    "duration": 0.1818179999999927
                },
                {
                    "name": "D4",
                    "midi": 62,
                    "time": 235.09067400000126,
                    "velocity": 0.4094488188976378,
                    "duration": 0.1818179999999927
                },
                {
                    "name": "A#3",
                    "midi": 58,
                    "time": 235.27249200000125,
                    "velocity": 0.44881889763779526,
                    "duration": 0.1818179999999927
                },
                {
                    "name": "D4",
                    "midi": 62,
                    "time": 235.45431000000124,
                    "velocity": 0.41732283464566927,
                    "duration": 0.1818179999999927
                },
                {
                    "name": "F3",
                    "midi": 53,
                    "time": 235.63612800000124,
                    "velocity": 0.5196850393700787,
                    "duration": 0.1818179999999927
                },
                {
                    "name": "D#4",
                    "midi": 63,
                    "time": 235.81794600000123,
                    "velocity": 0.4645669291338583,
                    "duration": 0.1818179999999927
                },
                {
                    "name": "A3",
                    "midi": 57,
                    "time": 235.99976400000122,
                    "velocity": 0.5118110236220472,
                    "duration": 0.1818179999999927
                },
                {
                    "name": "D#4",
                    "midi": 63,
                    "time": 236.1815820000012,
                    "velocity": 0.48031496062992124,
                    "duration": 0.1818179999999927
                },
                {
                    "name": "F3",
                    "midi": 53,
                    "time": 236.3634000000012,
                    "velocity": 0.5118110236220472,
                    "duration": 0.1818179999999927
                },
                {
                    "name": "D#4",
                    "midi": 63,
                    "time": 236.5452180000012,
                    "velocity": 0.48031496062992124,
                    "duration": 0.1818179999999927
                },
                {
                    "name": "A3",
                    "midi": 57,
                    "time": 236.7270360000012,
                    "velocity": 0.5118110236220472,
                    "duration": 0.1818179999999927
                },
                {
                    "name": "D#4",
                    "midi": 63,
                    "time": 236.90885400000118,
                    "velocity": 0.48031496062992124,
                    "duration": 0.1818179999999927
                },
                {
                    "name": "A#3",
                    "midi": 58,
                    "time": 237.09067200000118,
                    "velocity": 0.4094488188976378,
                    "duration": 0.36363600000001384
                },
                {
                    "name": "D4",
                    "midi": 62,
                    "time": 237.09067200000118,
                    "velocity": 0.4094488188976378,
                    "duration": 0.36363600000001384
                },
                {
                    "name": "D4",
                    "midi": 62,
                    "time": 237.4543080000012,
                    "velocity": 0.4094488188976378,
                    "duration": 0.36363600000001384
                },
                {
                    "name": "A#3",
                    "midi": 58,
                    "time": 237.4543080000012,
                    "velocity": 0.4094488188976378,
                    "duration": 0.36363600000001384
                },
                {
                    "name": "D4",
                    "midi": 62,
                    "time": 238.18158000000122,
                    "velocity": 0.4409448818897638,
                    "duration": 0.36363600000001384
                },
                {
                    "name": "A#3",
                    "midi": 58,
                    "time": 238.18158000000122,
                    "velocity": 0.4409448818897638,
                    "duration": 0.36363600000001384
                },
                {
                    "name": "A#3",
                    "midi": 58,
                    "time": 238.54521600000123,
                    "velocity": 0.4566929133858268,
                    "duration": 0.36363600000001384
                },
                {
                    "name": "A4",
                    "midi": 69,
                    "time": 238.54521600000123,
                    "velocity": 0.4566929133858268,
                    "duration": 0.36363600000001384
                },
                {
                    "name": "A#3",
                    "midi": 58,
                    "time": 238.90885200000125,
                    "velocity": 0.4251968503937008,
                    "duration": 0.36363600000001384
                },
                {
                    "name": "A4",
                    "midi": 69,
                    "time": 238.90885200000125,
                    "velocity": 0.4251968503937008,
                    "duration": 0.36363600000001384
                },
                {
                    "name": "A#3",
                    "midi": 58,
                    "time": 239.63612400000127,
                    "velocity": 0.48031496062992124,
                    "duration": 0.36363600000001384
                },
                {
                    "name": "A4",
                    "midi": 69,
                    "time": 239.63612400000127,
                    "velocity": 0.48031496062992124,
                    "duration": 0.36363600000001384
                },
                {
                    "name": "A#3",
                    "midi": 58,
                    "time": 239.9997600000013,
                    "velocity": 0.5275590551181102,
                    "duration": 0.36363600000001384
                },
                {
                    "name": "G#4",
                    "midi": 68,
                    "time": 239.9997600000013,
                    "velocity": 0.5275590551181102,
                    "duration": 0.36363600000001384
                },
                {
                    "name": "G#4",
                    "midi": 68,
                    "time": 240.3633960000013,
                    "velocity": 0.4881889763779528,
                    "duration": 0.36363600000001384
                },
                {
                    "name": "A#3",
                    "midi": 58,
                    "time": 240.3633960000013,
                    "velocity": 0.4881889763779528,
                    "duration": 0.36363600000001384
                },
                {
                    "name": "G4",
                    "midi": 67,
                    "time": 240.72703200000132,
                    "velocity": 0.5590551181102362,
                    "duration": 0.36363600000001384
                },
                {
                    "name": "A#3",
                    "midi": 58,
                    "time": 240.72703200000132,
                    "velocity": 0.5590551181102362,
                    "duration": 0.36363600000001384
                },
                {
                    "name": "G4",
                    "midi": 67,
                    "time": 241.09066800000133,
                    "velocity": 0.5354330708661418,
                    "duration": 0.36363600000001384
                },
                {
                    "name": "A#3",
                    "midi": 58,
                    "time": 241.09066800000133,
                    "velocity": 0.5354330708661418,
                    "duration": 0.36363600000001384
                },
                {
                    "name": "D4",
                    "midi": 62,
                    "time": 241.45430400000134,
                    "velocity": 0.6456692913385826,
                    "duration": 0.36363600000001384
                },
                {
                    "name": "A#3",
                    "midi": 58,
                    "time": 241.45430400000134,
                    "velocity": 0.6456692913385826,
                    "duration": 0.36363600000001384
                },
                {
                    "name": "A#3",
                    "midi": 58,
                    "time": 241.81794000000136,
                    "velocity": 0.5984251968503937,
                    "duration": 0.36363600000001384
                },
                {
                    "name": "D4",
                    "midi": 62,
                    "time": 241.81794000000136,
                    "velocity": 0.5984251968503937,
                    "duration": 0.36363600000001384
                },
                {
                    "name": "A#3",
                    "midi": 58,
                    "time": 242.18157600000137,
                    "velocity": 0.6692913385826772,
                    "duration": 0.36363600000001384
                },
                {
                    "name": "D#4",
                    "midi": 63,
                    "time": 242.18157600000137,
                    "velocity": 0.6692913385826772,
                    "duration": 0.36363600000001384
                },
                {
                    "name": "A#3",
                    "midi": 58,
                    "time": 242.54521200000138,
                    "velocity": 0.7165354330708661,
                    "duration": 0.36363600000001384
                },
                {
                    "name": "C4",
                    "midi": 60,
                    "time": 242.54521200000138,
                    "velocity": 0.7165354330708661,
                    "duration": 0.36363600000001384
                },
                {
                    "name": "A#3",
                    "midi": 58,
                    "time": 242.9088480000014,
                    "velocity": 0.7086614173228346,
                    "duration": 0.09090900000001056
                },
                {
                    "name": "A#2",
                    "midi": 46,
                    "time": 242.9088480000014,
                    "velocity": 0.5984251968503937,
                    "duration": 0.09090900000001056
                },
                {
                    "name": "A#3",
                    "midi": 58,
                    "time": 243.09066600000142,
                    "velocity": 0.6850393700787402,
                    "duration": 0.09090900000001056
                },
                {
                    "name": "A#2",
                    "midi": 46,
                    "time": 243.09066600000142,
                    "velocity": 0.5748031496062992,
                    "duration": 0.09090900000001056
                },
                {
                    "name": "A#2",
                    "midi": 46,
                    "time": 243.45430200000143,
                    "velocity": 0.5590551181102362,
                    "duration": 0.1818179999999927
                },
                {
                    "name": "A#3",
                    "midi": 58,
                    "time": 243.45430200000143,
                    "velocity": 0.6614173228346457,
                    "duration": 0.1818179999999927
                },
                {
                    "name": "D4",
                    "midi": 62,
                    "time": 243.63612000000143,
                    "velocity": 0.7086614173228346,
                    "duration": 0.09090900000001056
                },
                {
                    "name": "D3",
                    "midi": 50,
                    "time": 243.63612000000143,
                    "velocity": 0.5984251968503937,
                    "duration": 0.09090900000001056
                },
                {
                    "name": "D3",
                    "midi": 50,
                    "time": 243.81793800000145,
                    "velocity": 0.5826771653543307,
                    "duration": 0.09090900000001056
                },
                {
                    "name": "D4",
                    "midi": 62,
                    "time": 243.81793800000145,
                    "velocity": 0.6929133858267716,
                    "duration": 0.09090900000001056
                },
                {
                    "name": "A#2",
                    "midi": 46,
                    "time": 244.18157400000146,
                    "velocity": 0.5669291338582677,
                    "duration": 0.1818179999999927
                },
                {
                    "name": "A#3",
                    "midi": 58,
                    "time": 244.18157400000146,
                    "velocity": 0.6692913385826772,
                    "duration": 0.1818179999999927
                },
                {
                    "name": "G2",
                    "midi": 43,
                    "time": 244.36339200000145,
                    "velocity": 0.5984251968503937,
                    "duration": 0.09090900000001056
                },
                {
                    "name": "G3",
                    "midi": 55,
                    "time": 244.36339200000145,
                    "velocity": 0.7086614173228346,
                    "duration": 0.09090900000001056
                },
                {
                    "name": "G2",
                    "midi": 43,
                    "time": 244.54521000000148,
                    "velocity": 0.5826771653543307,
                    "duration": 0.09090900000001056
                },
                {
                    "name": "G3",
                    "midi": 55,
                    "time": 244.54521000000148,
                    "velocity": 0.6929133858267716,
                    "duration": 0.09090900000001056
                },
                {
                    "name": "G2",
                    "midi": 43,
                    "time": 244.9088460000015,
                    "velocity": 0.5590551181102362,
                    "duration": 0.1818179999999927
                },
                {
                    "name": "G3",
                    "midi": 55,
                    "time": 244.9088460000015,
                    "velocity": 0.6614173228346457,
                    "duration": 0.1818179999999927
                },
                {
                    "name": "A#3",
                    "midi": 58,
                    "time": 245.09066400000148,
                    "velocity": 0.7086614173228346,
                    "duration": 0.09090900000001056
                },
                {
                    "name": "A#2",
                    "midi": 46,
                    "time": 245.09066400000148,
                    "velocity": 0.5984251968503937,
                    "duration": 0.09090900000001056
                },
                {
                    "name": "A#3",
                    "midi": 58,
                    "time": 245.2724820000015,
                    "velocity": 0.6850393700787402,
                    "duration": 0.09090900000001056
                },
                {
                    "name": "A#2",
                    "midi": 46,
                    "time": 245.2724820000015,
                    "velocity": 0.5748031496062992,
                    "duration": 0.09090900000001056
                },
                {
                    "name": "G2",
                    "midi": 43,
                    "time": 245.63611800000152,
                    "velocity": 0.5590551181102362,
                    "duration": 0.1818179999999927
                },
                {
                    "name": "G3",
                    "midi": 55,
                    "time": 245.63611800000152,
                    "velocity": 0.6614173228346457,
                    "duration": 0.1818179999999927
                },
                {
                    "name": "D2",
                    "midi": 38,
                    "time": 245.8179360000015,
                    "velocity": 0.5984251968503937,
                    "duration": 0.09090900000001056
                },
                {
                    "name": "D3",
                    "midi": 50,
                    "time": 245.8179360000015,
                    "velocity": 0.7086614173228346,
                    "duration": 0.09090900000001056
                },
                {
                    "name": "D3",
                    "midi": 50,
                    "time": 245.99975400000153,
                    "velocity": 0.7007874015748031,
                    "duration": 0.09090900000001056
                },
                {
                    "name": "D2",
                    "midi": 38,
                    "time": 245.99975400000153,
                    "velocity": 0.5905511811023622,
                    "duration": 0.09090900000001056
                },
                {
                    "name": "D2",
                    "midi": 38,
                    "time": 246.36339000000154,
                    "velocity": 0.5826771653543307,
                    "duration": 0.1818179999999927
                },
                {
                    "name": "D3",
                    "midi": 50,
                    "time": 246.36339000000154,
                    "velocity": 0.6929133858267716,
                    "duration": 0.1818179999999927
                },
                {
                    "name": "D#3",
                    "midi": 51,
                    "time": 246.54520800000154,
                    "velocity": 0.7165354330708661,
                    "duration": 0.09090900000001056
                },
                {
                    "name": "D#2",
                    "midi": 39,
                    "time": 246.54520800000154,
                    "velocity": 0.6062992125984252,
                    "duration": 0.09090900000001056
                },
                {
                    "name": "D#2",
                    "midi": 39,
                    "time": 246.72702600000156,
                    "velocity": 0.6062992125984252,
                    "duration": 0.09090900000001056
                },
                {
                    "name": "D#3",
                    "midi": 51,
                    "time": 246.72702600000156,
                    "velocity": 0.7165354330708661,
                    "duration": 0.09090900000001056
                },
                {
                    "name": "E3",
                    "midi": 52,
                    "time": 246.90884400000158,
                    "velocity": 0.7559055118110236,
                    "duration": 0.09090900000001056
                },
                {
                    "name": "E2",
                    "midi": 40,
                    "time": 246.90884400000158,
                    "velocity": 0.6377952755905512,
                    "duration": 0.09090900000001056
                },
                {
                    "name": "E2",
                    "midi": 40,
                    "time": 247.0906620000016,
                    "velocity": 0.6141732283464567,
                    "duration": 0.09090900000001056
                },
                {
                    "name": "E3",
                    "midi": 52,
                    "time": 247.0906620000016,
                    "velocity": 0.7244094488188977,
                    "duration": 0.09090900000001056
                },
                {
                    "name": "F2",
                    "midi": 41,
                    "time": 247.27248000000162,
                    "velocity": 0.6220472440944882,
                    "duration": 0.7272719999999993
                },
                {
                    "name": "F3",
                    "midi": 53,
                    "time": 247.27248000000162,
                    "velocity": 0.7322834645669292,
                    "duration": 0.7272719999999993
                },
                {
                    "name": "F3",
                    "midi": 53,
                    "time": 250.18156800000162,
                    "velocity": 0.4015748031496063,
                    "duration": 0.1818179999999927
                },
                {
                    "name": "D4",
                    "midi": 62,
                    "time": 250.3633860000016,
                    "velocity": 0.3543307086614173,
                    "duration": 0.1818179999999927
                },
                {
                    "name": "A#3",
                    "midi": 58,
                    "time": 250.5452040000016,
                    "velocity": 0.3700787401574803,
                    "duration": 0.1818179999999927
                },
                {
                    "name": "D4",
                    "midi": 62,
                    "time": 250.7270220000016,
                    "velocity": 0.3464566929133858,
                    "duration": 0.1818179999999927
                },
                {
                    "name": "F3",
                    "midi": 53,
                    "time": 250.9088400000016,
                    "velocity": 0.3937007874015748,
                    "duration": 0.1818179999999927
                },
                {
                    "name": "D4",
                    "midi": 62,
                    "time": 251.09065800000158,
                    "velocity": 0.3464566929133858,
                    "duration": 0.1818179999999927
                },
                {
                    "name": "A#3",
                    "midi": 58,
                    "time": 251.27247600000157,
                    "velocity": 0.3700787401574803,
                    "duration": 0.1818179999999927
                },
                {
                    "name": "D4",
                    "midi": 62,
                    "time": 251.45429400000157,
                    "velocity": 0.3464566929133858,
                    "duration": 0.1818179999999927
                },
                {
                    "name": "F3",
                    "midi": 53,
                    "time": 251.63611200000156,
                    "velocity": 0.4015748031496063,
                    "duration": 0.1818179999999927
                },
                {
                    "name": "D#4",
                    "midi": 63,
                    "time": 251.81793000000155,
                    "velocity": 0.3464566929133858,
                    "duration": 0.1818179999999927
                },
                {
                    "name": "C4",
                    "midi": 60,
                    "time": 251.99974800000155,
                    "velocity": 0.3700787401574803,
                    "duration": 0.1818179999999927
                },
                {
                    "name": "D#4",
                    "midi": 63,
                    "time": 252.18156600000154,
                    "velocity": 0.3543307086614173,
                    "duration": 0.1818179999999927
                },
                {
                    "name": "F3",
                    "midi": 53,
                    "time": 252.36338400000153,
                    "velocity": 0.3937007874015748,
                    "duration": 0.1818179999999927
                },
                {
                    "name": "D#4",
                    "midi": 63,
                    "time": 252.54520200000152,
                    "velocity": 0.30708661417322836,
                    "duration": 0.1818179999999927
                },
                {
                    "name": "C4",
                    "midi": 60,
                    "time": 252.72702000000152,
                    "velocity": 0.3464566929133858,
                    "duration": 0.1818179999999927
                },
                {
                    "name": "D#4",
                    "midi": 63,
                    "time": 252.9088380000015,
                    "velocity": 0.2992125984251969,
                    "duration": 0.1818179999999927
                },
                {
                    "name": "F3",
                    "midi": 53,
                    "time": 253.0906560000015,
                    "velocity": 0.4015748031496063,
                    "duration": 0.1818179999999927
                },
                {
                    "name": "C#4",
                    "midi": 61,
                    "time": 253.2724740000015,
                    "velocity": 0.3228346456692913,
                    "duration": 0.1818179999999927
                },
                {
                    "name": "A#3",
                    "midi": 58,
                    "time": 253.4542920000015,
                    "velocity": 0.3543307086614173,
                    "duration": 0.1818179999999927
                },
                {
                    "name": "C#4",
                    "midi": 61,
                    "time": 253.63611000000148,
                    "velocity": 0.3228346456692913,
                    "duration": 0.1818179999999927
                },
                {
                    "name": "F3",
                    "midi": 53,
                    "time": 253.81792800000147,
                    "velocity": 0.3700787401574803,
                    "duration": 0.1818179999999927
                },
                {
                    "name": "C#4",
                    "midi": 61,
                    "time": 253.99974600000147,
                    "velocity": 0.31496062992125984,
                    "duration": 0.1818179999999927
                },
                {
                    "name": "A#3",
                    "midi": 58,
                    "time": 254.18156400000146,
                    "velocity": 0.3543307086614173,
                    "duration": 0.1818179999999927
                },
                {
                    "name": "C#4",
                    "midi": 61,
                    "time": 254.36338200000145,
                    "velocity": 0.31496062992125984,
                    "duration": 0.1818179999999927
                },
                {
                    "name": "F3",
                    "midi": 53,
                    "time": 254.54520000000144,
                    "velocity": 0.3779527559055118,
                    "duration": 0.1818179999999927
                },
                {
                    "name": "D#4",
                    "midi": 63,
                    "time": 254.72701800000144,
                    "velocity": 0.31496062992125984,
                    "duration": 0.1818179999999927
                },
                {
                    "name": "C4",
                    "midi": 60,
                    "time": 254.90883600000143,
                    "velocity": 0.3543307086614173,
                    "duration": 0.1818179999999927
                },
                {
                    "name": "D#4",
                    "midi": 63,
                    "time": 255.09065400000142,
                    "velocity": 0.31496062992125984,
                    "duration": 0.1818179999999927
                },
                {
                    "name": "F3",
                    "midi": 53,
                    "time": 255.27247200000141,
                    "velocity": 0.3779527559055118,
                    "duration": 0.1818179999999927
                },
                {
                    "name": "D#4",
                    "midi": 63,
                    "time": 255.4542900000014,
                    "velocity": 0.28346456692913385,
                    "duration": 0.1818179999999927
                },
                {
                    "name": "C4",
                    "midi": 60,
                    "time": 255.6361080000014,
                    "velocity": 0.3228346456692913,
                    "duration": 0.1818179999999927
                },
                {
                    "name": "D#4",
                    "midi": 63,
                    "time": 255.8179260000014,
                    "velocity": 0.2755905511811024,
                    "duration": 0.1818179999999927
                },
                {
                    "name": "F#3",
                    "midi": 54,
                    "time": 255.99974400000139,
                    "velocity": 0.5905511811023622,
                    "duration": 0.3636359999999854
                },
                {
                    "name": "C#4",
                    "midi": 61,
                    "time": 255.99974400000139,
                    "velocity": 0.5905511811023622,
                    "duration": 0.3636359999999854
                },
                {
                    "name": "F#3",
                    "midi": 54,
                    "time": 257.4542880000014,
                    "velocity": 0.5196850393700787,
                    "duration": 1.454544000000169
                },
                {
                    "name": "A#3",
                    "midi": 58,
                    "time": 257.6361060000014,
                    "velocity": 0.49606299212598426,
                    "duration": 0.18181800000002113
                },
                {
                    "name": "C4",
                    "midi": 60,
                    "time": 257.8179240000014,
                    "velocity": 0.5196850393700787,
                    "duration": 0.18181800000002113
                },
                {
                    "name": "C#4",
                    "midi": 61,
                    "time": 257.99974200000145,
                    "velocity": 0.5511811023622047,
                    "duration": 0.07954537500000924
                },
                {
                    "name": "C#4",
                    "midi": 61,
                    "time": 258.18156000000147,
                    "velocity": 0.5511811023622047,
                    "duration": 0.18181800000002113
                },
                {
                    "name": "C4",
                    "midi": 60,
                    "time": 258.3633780000015,
                    "velocity": 0.5118110236220472,
                    "duration": 0.07954537500000924
                },
                {
                    "name": "C4",
                    "midi": 60,
                    "time": 258.5451960000015,
                    "velocity": 0.5433070866141733,
                    "duration": 0.18181800000002113
                },
                {
                    "name": "A#3",
                    "midi": 58,
                    "time": 258.72701400000153,
                    "velocity": 0.5196850393700787,
                    "duration": 0.09090900000001056
                },
                {
                    "name": "A3",
                    "midi": 57,
                    "time": 258.90883200000155,
                    "velocity": 0.5275590551181102,
                    "duration": 0.09090900000001056
                },
                {
                    "name": "F3",
                    "midi": 53,
                    "time": 258.90883200000155,
                    "velocity": 0.3700787401574803,
                    "duration": 0.09090900000001056
                },
                {
                    "name": "A3",
                    "midi": 57,
                    "time": 259.27246800000154,
                    "velocity": 0.3937007874015748,
                    "duration": 0.3636359999999854
                },
                {
                    "name": "F3",
                    "midi": 53,
                    "time": 259.27246800000154,
                    "velocity": 0.2755905511811024,
                    "duration": 0.3636359999999854
                },
                {
                    "name": "F3",
                    "midi": 53,
                    "time": 259.9997400000015,
                    "velocity": 0.2755905511811024,
                    "duration": 0.3636359999999854
                },
                {
                    "name": "A3",
                    "midi": 57,
                    "time": 259.9997400000015,
                    "velocity": 0.3937007874015748,
                    "duration": 0.3636359999999854
                },
                {
                    "name": "F3",
                    "midi": 53,
                    "time": 260.3633760000015,
                    "velocity": 0.2992125984251969,
                    "duration": 0.09090900000001056
                },
                {
                    "name": "A#3",
                    "midi": 58,
                    "time": 260.3633760000015,
                    "velocity": 0.41732283464566927,
                    "duration": 0.09090900000001056
                },
                {
                    "name": "G3",
                    "midi": 55,
                    "time": 260.3633760000015,
                    "velocity": 0.2992125984251969,
                    "duration": 0.09090900000001056
                },
                {
                    "name": "G3",
                    "midi": 55,
                    "time": 260.7270120000015,
                    "velocity": 0.2755905511811024,
                    "duration": 0.3636359999999854
                },
                {
                    "name": "A#3",
                    "midi": 58,
                    "time": 260.7270120000015,
                    "velocity": 0.3937007874015748,
                    "duration": 0.3636359999999854
                },
                {
                    "name": "F3",
                    "midi": 53,
                    "time": 260.7270120000015,
                    "velocity": 0.2755905511811024,
                    "duration": 0.3636359999999854
                },
                {
                    "name": "G#3",
                    "midi": 56,
                    "time": 261.45428400000145,
                    "velocity": 0.4251968503937008,
                    "duration": 0.3636359999999854
                },
                {
                    "name": "B3",
                    "midi": 59,
                    "time": 261.45428400000145,
                    "velocity": 0.4251968503937008,
                    "duration": 0.3636359999999854
                },
                {
                    "name": "F3",
                    "midi": 53,
                    "time": 261.45428400000145,
                    "velocity": 0.2992125984251969,
                    "duration": 0.3636359999999854
                },
                {
                    "name": "A3",
                    "midi": 57,
                    "time": 261.81792000000144,
                    "velocity": 0.30708661417322836,
                    "duration": 0.3636359999999854
                },
                {
                    "name": "C4",
                    "midi": 60,
                    "time": 261.81792000000144,
                    "velocity": 0.4330708661417323,
                    "duration": 0.3636359999999854
                },
                {
                    "name": "F3",
                    "midi": 53,
                    "time": 261.81792000000144,
                    "velocity": 0.30708661417322836,
                    "duration": 0.7272719999999708
                },
                {
                    "name": "A3",
                    "midi": 57,
                    "time": 262.1815560000014,
                    "velocity": 0.33858267716535434,
                    "duration": 0.3636359999999854
                },
                {
                    "name": "C#4",
                    "midi": 61,
                    "time": 262.1815560000014,
                    "velocity": 0.48031496062992124,
                    "duration": 0.3636359999999854
                },
                {
                    "name": "A#3",
                    "midi": 58,
                    "time": 262.5451920000014,
                    "velocity": 0.3700787401574803,
                    "duration": 0.3636359999999854
                },
                {
                    "name": "D4",
                    "midi": 62,
                    "time": 262.5451920000014,
                    "velocity": 0.5196850393700787,
                    "duration": 0.3636359999999854
                },
                {
                    "name": "F3",
                    "midi": 53,
                    "time": 262.5451920000014,
                    "velocity": 0.3700787401574803,
                    "duration": 0.7272719999999708
                },
                {
                    "name": "B3",
                    "midi": 59,
                    "time": 262.9088280000014,
                    "velocity": 0.4015748031496063,
                    "duration": 0.3636359999999854
                },
                {
                    "name": "D4",
                    "midi": 62,
                    "time": 262.9088280000014,
                    "velocity": 0.5590551181102362,
                    "duration": 0.3636359999999854
                },
                {
                    "name": "D#4",
                    "midi": 63,
                    "time": 263.2724640000014,
                    "velocity": 0.6062992125984252,
                    "duration": 1.4545439999999985
                },
                {
                    "name": "F3",
                    "midi": 53,
                    "time": 263.2724640000014,
                    "velocity": 0.4330708661417323,
                    "duration": 1.4545439999999985
                },
                {
                    "name": "C4",
                    "midi": 60,
                    "time": 263.2724640000014,
                    "velocity": 0.4330708661417323,
                    "duration": 1.4545439999999985
                },
                {
                    "name": "F3",
                    "midi": 53,
                    "time": 266.1815520000014,
                    "velocity": 0.28346456692913385,
                    "duration": 0.18181800000002113
                },
                {
                    "name": "A3",
                    "midi": 57,
                    "time": 266.3633700000014,
                    "velocity": 0.28346456692913385,
                    "duration": 0.08181810000002088
                },
                {
                    "name": "A3",
                    "midi": 57,
                    "time": 266.5451880000014,
                    "velocity": 0.33070866141732286,
                    "duration": 0.18181800000002113
                },
                {
                    "name": "C4",
                    "midi": 60,
                    "time": 266.72700600000144,
                    "velocity": 0.33070866141732286,
                    "duration": 0.08181810000002088
                },
                {
                    "name": "C4",
                    "midi": 60,
                    "time": 266.90882400000146,
                    "velocity": 0.3937007874015748,
                    "duration": 0.18181800000002113
                },
                {
                    "name": "D#4",
                    "midi": 63,
                    "time": 267.0906420000015,
                    "velocity": 0.3779527559055118,
                    "duration": 0.08181810000002088
                },
                {
                    "name": "D#4",
                    "midi": 63,
                    "time": 267.2724600000015,
                    "velocity": 0.4409448818897638,
                    "duration": 0.18181800000002113
                },
                {
                    "name": "C4",
                    "midi": 60,
                    "time": 267.4542780000015,
                    "velocity": 0.4015748031496063,
                    "duration": 0.09090900000001056
                },
                {
                    "name": "C4",
                    "midi": 60,
                    "time": 267.63609600000154,
                    "velocity": 0.4330708661417323,
                    "duration": 0.18181800000002113
                },
                {
                    "name": "A3",
                    "midi": 57,
                    "time": 267.81791400000157,
                    "velocity": 0.41732283464566927,
                    "duration": 0.08181810000002088
                },
                {
                    "name": "A3",
                    "midi": 57,
                    "time": 267.9997320000016,
                    "velocity": 0.4330708661417323,
                    "duration": 0.18181800000002113
                },
                {
                    "name": "F3",
                    "midi": 53,
                    "time": 268.1815500000016,
                    "velocity": 0.4015748031496063,
                    "duration": 0.18181800000002113
                },
                {
                    "name": "F#3",
                    "midi": 54,
                    "time": 268.3633680000016,
                    "velocity": 0.4409448818897638,
                    "duration": 0.18181800000002113
                },
                {
                    "name": "G3",
                    "midi": 55,
                    "time": 268.54518600000165,
                    "velocity": 0.4645669291338583,
                    "duration": 0.18181800000002113
                },
                {
                    "name": "G#3",
                    "midi": 56,
                    "time": 268.72700400000167,
                    "velocity": 0.4881889763779528,
                    "duration": 0.18181800000002113
                },
                {
                    "name": "A3",
                    "midi": 57,
                    "time": 268.9088220000017,
                    "velocity": 0.5118110236220472,
                    "duration": 0.18181800000002113
                },
                {
                    "name": "A#3",
                    "midi": 58,
                    "time": 269.0906400000017,
                    "velocity": 0.5433070866141733,
                    "duration": 0.09090900000001056
                },
                {
                    "name": "A#3",
                    "midi": 58,
                    "time": 269.27245800000173,
                    "velocity": 0.36220472440944884,
                    "duration": 0.09090900000001056
                },
                {
                    "name": "A#3",
                    "midi": 58,
                    "time": 269.6360940000017,
                    "velocity": 0.36220472440944884,
                    "duration": 0.09090900000001056
                },
                {
                    "name": "A#3",
                    "midi": 58,
                    "time": 269.81791200000174,
                    "velocity": 0.3779527559055118,
                    "duration": 0.09090900000001056
                },
                {
                    "name": "A#3",
                    "midi": 58,
                    "time": 269.99973000000176,
                    "velocity": 0.36220472440944884,
                    "duration": 0.09090900000001056
                },
                {
                    "name": "A#3",
                    "midi": 58,
                    "time": 270.36336600000175,
                    "velocity": 0.36220472440944884,
                    "duration": 0.09090900000001056
                },
                {
                    "name": "A#3",
                    "midi": 58,
                    "time": 270.54518400000177,
                    "velocity": 0.3858267716535433,
                    "duration": 0.09090900000001056
                },
                {
                    "name": "A#3",
                    "midi": 58,
                    "time": 270.7270020000018,
                    "velocity": 0.36220472440944884,
                    "duration": 0.09090900000001056
                },
                {
                    "name": "A#3",
                    "midi": 58,
                    "time": 271.0906380000018,
                    "velocity": 0.36220472440944884,
                    "duration": 0.09090900000001056
                },
                {
                    "name": "A#3",
                    "midi": 58,
                    "time": 271.2724560000018,
                    "velocity": 0.3858267716535433,
                    "duration": 0.09090900000001056
                },
                {
                    "name": "A#3",
                    "midi": 58,
                    "time": 271.4542740000018,
                    "velocity": 0.36220472440944884,
                    "duration": 0.09090900000001056
                },
                {
                    "name": "A#3",
                    "midi": 58,
                    "time": 271.8179100000018,
                    "velocity": 0.3543307086614173,
                    "duration": 0.09090900000001056
                },
                {
                    "name": "A#3",
                    "midi": 58,
                    "time": 271.9997280000018,
                    "velocity": 0.3779527559055118,
                    "duration": 0.09090900000001056
                },
                {
                    "name": "A#3",
                    "midi": 58,
                    "time": 272.18154600000184,
                    "velocity": 0.4015748031496063,
                    "duration": 0.09090900000001056
                },
                {
                    "name": "A#3",
                    "midi": 58,
                    "time": 272.54518200000183,
                    "velocity": 0.44881889763779526,
                    "duration": 0.09090900000001056
                },
                {
                    "name": "A#3",
                    "midi": 58,
                    "time": 272.72700000000185,
                    "velocity": 0.47244094488188976,
                    "duration": 0.09090900000001056
                },
                {
                    "name": "A#3",
                    "midi": 58,
                    "time": 272.9088180000019,
                    "velocity": 0.5039370078740157,
                    "duration": 0.09090900000001056
                },
                {
                    "name": "A#3",
                    "midi": 58,
                    "time": 273.27245400000186,
                    "velocity": 0.5511811023622047,
                    "duration": 0.09090900000001056
                },
                {
                    "name": "B3",
                    "midi": 59,
                    "time": 273.4542720000019,
                    "velocity": 0.5196850393700787,
                    "duration": 0.3636359999999854
                },
                {
                    "name": "B2",
                    "midi": 47,
                    "time": 273.81790800000186,
                    "velocity": 0.4409448818897638,
                    "duration": 0.3636359999999854
                },
                {
                    "name": "B3",
                    "midi": 59,
                    "time": 273.81790800000186,
                    "velocity": 0.5196850393700787,
                    "duration": 0.3636359999999854
                },
                {
                    "name": "C4",
                    "midi": 60,
                    "time": 274.18154400000185,
                    "velocity": 0.5590551181102362,
                    "duration": 0.3636359999999854
                },
                {
                    "name": "C3",
                    "midi": 48,
                    "time": 274.18154400000185,
                    "velocity": 0.47244094488188976,
                    "duration": 0.3636359999999854
                },
                {
                    "name": "A#3",
                    "midi": 58,
                    "time": 274.54518000000184,
                    "velocity": 0.5196850393700787,
                    "duration": 0.3636359999999854
                },
                {
                    "name": "A#2",
                    "midi": 46,
                    "time": 274.54518000000184,
                    "velocity": 0.4409448818897638,
                    "duration": 0.3636359999999854
                },
                {
                    "name": "A2",
                    "midi": 45,
                    "time": 274.9088160000018,
                    "velocity": 0.48031496062992124,
                    "duration": 0.3636359999999854
                },
                {
                    "name": "A3",
                    "midi": 57,
                    "time": 274.9088160000018,
                    "velocity": 0.5669291338582677,
                    "duration": 0.3636359999999854
                },
                {
                    "name": "A3",
                    "midi": 57,
                    "time": 275.2724520000018,
                    "velocity": 0.5196850393700787,
                    "duration": 0.3636359999999854
                },
                {
                    "name": "A2",
                    "midi": 45,
                    "time": 275.2724520000018,
                    "velocity": 0.4409448818897638,
                    "duration": 0.3636359999999854
                },
                {
                    "name": "A#2",
                    "midi": 46,
                    "time": 275.6360880000018,
                    "velocity": 0.4566929133858268,
                    "duration": 0.3636359999999854
                },
                {
                    "name": "A#3",
                    "midi": 58,
                    "time": 275.6360880000018,
                    "velocity": 0.5433070866141733,
                    "duration": 0.3636359999999854
                },
                {
                    "name": "A3",
                    "midi": 57,
                    "time": 275.9997240000018,
                    "velocity": 0.5196850393700787,
                    "duration": 0.3636359999999854
                },
                {
                    "name": "A2",
                    "midi": 45,
                    "time": 275.9997240000018,
                    "velocity": 0.4409448818897638,
                    "duration": 0.3636359999999854
                },
                {
                    "name": "G3",
                    "midi": 55,
                    "time": 276.36336000000176,
                    "velocity": 0.5511811023622047,
                    "duration": 0.3636359999999854
                },
                {
                    "name": "G2",
                    "midi": 43,
                    "time": 276.36336000000176,
                    "velocity": 0.4645669291338583,
                    "duration": 0.3636359999999854
                },
                {
                    "name": "G2",
                    "midi": 43,
                    "time": 276.72699600000175,
                    "velocity": 0.4409448818897638,
                    "duration": 0.3636359999999854
                },
                {
                    "name": "G3",
                    "midi": 55,
                    "time": 276.72699600000175,
                    "velocity": 0.5196850393700787,
                    "duration": 0.3636359999999854
                },
                {
                    "name": "A3",
                    "midi": 57,
                    "time": 277.09063200000173,
                    "velocity": 0.5433070866141733,
                    "duration": 0.3636359999999854
                },
                {
                    "name": "A2",
                    "midi": 45,
                    "time": 277.09063200000173,
                    "velocity": 0.4566929133858268,
                    "duration": 0.3636359999999854
                },
                {
                    "name": "G2",
                    "midi": 43,
                    "time": 277.4542680000017,
                    "velocity": 0.4409448818897638,
                    "duration": 0.3636359999999854
                },
                {
                    "name": "G3",
                    "midi": 55,
                    "time": 277.4542680000017,
                    "velocity": 0.5196850393700787,
                    "duration": 0.3636359999999854
                },
                {
                    "name": "F#3",
                    "midi": 54,
                    "time": 277.8179040000017,
                    "velocity": 0.5354330708661418,
                    "duration": 0.3636359999999854
                },
                {
                    "name": "F#2",
                    "midi": 42,
                    "time": 277.8179040000017,
                    "velocity": 0.44881889763779526,
                    "duration": 0.3636359999999854
                },
                {
                    "name": "F#3",
                    "midi": 54,
                    "time": 278.1815400000017,
                    "velocity": 0.5196850393700787,
                    "duration": 0.3636359999999854
                },
                {
                    "name": "F#2",
                    "midi": 42,
                    "time": 278.1815400000017,
                    "velocity": 0.4409448818897638,
                    "duration": 0.3636359999999854
                },
                {
                    "name": "G2",
                    "midi": 43,
                    "time": 278.5451760000017,
                    "velocity": 0.4645669291338583,
                    "duration": 0.3636359999999854
                },
                {
                    "name": "G3",
                    "midi": 55,
                    "time": 278.5451760000017,
                    "velocity": 0.5511811023622047,
                    "duration": 0.3636359999999854
                },
                {
                    "name": "F3",
                    "midi": 53,
                    "time": 278.90881200000166,
                    "velocity": 0.5196850393700787,
                    "duration": 0.3636359999999854
                },
                {
                    "name": "F2",
                    "midi": 41,
                    "time": 278.90881200000166,
                    "velocity": 0.4409448818897638,
                    "duration": 0.3636359999999854
                },
                {
                    "name": "D#2",
                    "midi": 39,
                    "time": 279.27244800000165,
                    "velocity": 0.4881889763779528,
                    "duration": 0.18181800000002113
                },
                {
                    "name": "D#3",
                    "midi": 51,
                    "time": 279.27244800000165,
                    "velocity": 0.5748031496062992,
                    "duration": 0.18181800000002113
                },
                {
                    "name": "G3",
                    "midi": 55,
                    "time": 279.45426600000167,
                    "velocity": 0.5118110236220472,
                    "duration": 0.18181800000002113
                },
                {
                    "name": "A#3",
                    "midi": 58,
                    "time": 279.6360840000017,
                    "velocity": 0.5118110236220472,
                    "duration": 0.18181800000002113
                },
                {
                    "name": "G3",
                    "midi": 55,
                    "time": 279.8179020000017,
                    "velocity": 0.5118110236220472,
                    "duration": 0.18181800000002113
                },
                {
                    "name": "D#3",
                    "midi": 51,
                    "time": 279.99972000000173,
                    "velocity": 0.5590551181102362,
                    "duration": 0.18181800000002113
                },
                {
                    "name": "G3",
                    "midi": 55,
                    "time": 280.18153800000175,
                    "velocity": 0.5118110236220472,
                    "duration": 0.18181800000002113
                },
                {
                    "name": "A#3",
                    "midi": 58,
                    "time": 280.3633560000018,
                    "velocity": 0.5118110236220472,
                    "duration": 0.18181800000002113
                },
                {
                    "name": "G3",
                    "midi": 55,
                    "time": 280.5451740000018,
                    "velocity": 0.47244094488188976,
                    "duration": 0.18181800000002113
                },
                {
                    "name": "F3",
                    "midi": 53,
                    "time": 280.7269920000018,
                    "velocity": 0.5433070866141733,
                    "duration": 0.18181800000002113
                },
                {
                    "name": "G#3",
                    "midi": 56,
                    "time": 280.90881000000184,
                    "velocity": 0.47244094488188976,
                    "duration": 0.18181800000002113
                },
                {
                    "name": "A#3",
                    "midi": 58,
                    "time": 281.09062800000186,
                    "velocity": 0.5118110236220472,
                    "duration": 0.18181800000002113
                },
                {
                    "name": "G#3",
                    "midi": 56,
                    "time": 281.2724460000019,
                    "velocity": 0.47244094488188976,
                    "duration": 0.18181800000002113
                },
                {
                    "name": "F3",
                    "midi": 53,
                    "time": 281.4542640000019,
                    "velocity": 0.5433070866141733,
                    "duration": 0.18181800000002113
                },
                {
                    "name": "G#3",
                    "midi": 56,
                    "time": 281.6360820000019,
                    "velocity": 0.48031496062992124,
                    "duration": 0.18181800000002113
                },
                {
                    "name": "A#3",
                    "midi": 58,
                    "time": 281.81790000000194,
                    "velocity": 0.5118110236220472,
                    "duration": 0.18181800000002113
                },
                {
                    "name": "G#3",
                    "midi": 56,
                    "time": 281.99971800000196,
                    "velocity": 0.48031496062992124,
                    "duration": 0.18181800000002113
                },
                {
                    "name": "G3",
                    "midi": 55,
                    "time": 282.181536000002,
                    "velocity": 0.5590551181102362,
                    "duration": 0.18181800000002113
                },
                {
                    "name": "A#3",
                    "midi": 58,
                    "time": 282.363354000002,
                    "velocity": 0.5039370078740157,
                    "duration": 0.18181800000002113
                },
                {
                    "name": "D#4",
                    "midi": 63,
                    "time": 282.545172000002,
                    "velocity": 0.5354330708661418,
                    "duration": 0.18181800000002113
                },
                {
                    "name": "A#3",
                    "midi": 58,
                    "time": 282.72699000000205,
                    "velocity": 0.5118110236220472,
                    "duration": 0.18181800000002113
                },
                {
                    "name": "D3",
                    "midi": 50,
                    "time": 282.90880800000207,
                    "velocity": 0.6141732283464567,
                    "duration": 0.18181800000002113
                },
                {
                    "name": "G#3",
                    "midi": 56,
                    "time": 283.0906260000021,
                    "velocity": 0.5196850393700787,
                    "duration": 0.18181800000002113
                },
                {
                    "name": "A#3",
                    "midi": 58,
                    "time": 283.2724440000021,
                    "velocity": 0.5590551181102362,
                    "duration": 0.18181800000002113
                },
                {
                    "name": "G#3",
                    "midi": 56,
                    "time": 283.45426200000213,
                    "velocity": 0.5433070866141733,
                    "duration": 0.18181800000002113
                },
                {
                    "name": "D#3",
                    "midi": 51,
                    "time": 283.63608000000215,
                    "velocity": 0.6220472440944882,
                    "duration": 0.18181800000002113
                },
                {
                    "name": "D#4",
                    "midi": 63,
                    "time": 283.8178980000022,
                    "velocity": 0.5669291338582677,
                    "duration": 0.18181800000002113
                },
                {
                    "name": "C3",
                    "midi": 48,
                    "time": 283.9997160000022,
                    "velocity": 0.6456692913385826,
                    "duration": 0.18181800000002113
                },
                {
                    "name": "C4",
                    "midi": 60,
                    "time": 284.1815340000022,
                    "velocity": 0.5748031496062992,
                    "duration": 0.18181800000002113
                },
                {
                    "name": "D3",
                    "midi": 50,
                    "time": 284.36335200000224,
                    "velocity": 0.6535433070866141,
                    "duration": 0.18181800000002113
                },
                {
                    "name": "D4",
                    "midi": 62,
                    "time": 284.54517000000226,
                    "velocity": 0.5984251968503937,
                    "duration": 0.18181800000002113
                },
                {
                    "name": "A2",
                    "midi": 45,
                    "time": 284.7269880000023,
                    "velocity": 0.6614173228346457,
                    "duration": 0.18181800000002113
                },
                {
                    "name": "A3",
                    "midi": 57,
                    "time": 284.9088060000023,
                    "velocity": 0.6141732283464567,
                    "duration": 0.18181800000002113
                },
                {
                    "name": "A#2",
                    "midi": 46,
                    "time": 285.0906240000023,
                    "velocity": 0.7086614173228346,
                    "duration": 0.7272720000000277
                },
                {
                    "name": "A#3",
                    "midi": 58,
                    "time": 285.0906240000023,
                    "velocity": 0.7086614173228346,
                    "duration": 0.7272720000000277
                },
                {
                    "name": "F#2",
                    "midi": 42,
                    "time": 285.81789600000235,
                    "velocity": 0.7007874015748031,
                    "duration": 0.7272720000000277
                },
                {
                    "name": "F#3",
                    "midi": 54,
                    "time": 285.81789600000235,
                    "velocity": 0.7007874015748031,
                    "duration": 0.7272720000000277
                },
                {
                    "name": "E2",
                    "midi": 40,
                    "time": 286.5451680000024,
                    "velocity": 0.7007874015748031,
                    "duration": 0.7272720000000277
                },
                {
                    "name": "E3",
                    "midi": 52,
                    "time": 286.5451680000024,
                    "velocity": 0.7007874015748031,
                    "duration": 0.7272720000000277
                },
                {
                    "name": "C#4",
                    "midi": 61,
                    "time": 287.99971200000243,
                    "velocity": 0.5433070866141733,
                    "duration": 0.09090900000001056
                },
                {
                    "name": "A#3",
                    "midi": 58,
                    "time": 288.09062100000244,
                    "velocity": 0.5590551181102362,
                    "duration": 0.09090900000001056
                },
                {
                    "name": "G3",
                    "midi": 55,
                    "time": 288.18153000000245,
                    "velocity": 0.5826771653543307,
                    "duration": 0.09090900000001056
                },
                {
                    "name": "E3",
                    "midi": 52,
                    "time": 288.27243900000246,
                    "velocity": 0.6062992125984252,
                    "duration": 0.09090900000001056
                },
                {
                    "name": "C#3",
                    "midi": 49,
                    "time": 288.3633480000025,
                    "velocity": 0.6299212598425197,
                    "duration": 0.09090900000001056
                },
                {
                    "name": "A#2",
                    "midi": 46,
                    "time": 288.4542570000025,
                    "velocity": 0.6456692913385826,
                    "duration": 0.09090900000001056
                },
                {
                    "name": "G2",
                    "midi": 43,
                    "time": 288.5451660000025,
                    "velocity": 0.6692913385826772,
                    "duration": 0.09090900000001056
                },
                {
                    "name": "E2",
                    "midi": 40,
                    "time": 288.6360750000025,
                    "velocity": 0.6929133858267716,
                    "duration": 0.09090900000001056
                },
                {
                    "name": "F2",
                    "midi": 41,
                    "time": 288.7269840000025,
                    "velocity": 0.8503937007874016,
                    "duration": 0.7272720000000277
                },
                {
                    "name": "F3",
                    "midi": 53,
                    "time": 288.7269840000025,
                    "velocity": 0.8503937007874016,
                    "duration": 0.7416659250000066
                },
                {
                    "name": "A3",
                    "midi": 57,
                    "time": 289.4686499250025,
                    "velocity": 0.5196850393700787,
                    "duration": 0.021969674999979816
                },
                {
                    "name": "G3",
                    "midi": 55,
                    "time": 289.4830438500025,
                    "velocity": 0.5275590551181102,
                    "duration": 0.021969674999979816
                },
                {
                    "name": "F3",
                    "midi": 53,
                    "time": 289.4974377750025,
                    "velocity": 0.5433070866141733,
                    "duration": 0.021969674999979816
                },
                {
                    "name": "G3",
                    "midi": 55,
                    "time": 289.51183170000246,
                    "velocity": 0.5511811023622047,
                    "duration": 0.021969674999979816
                },
                {
                    "name": "A3",
                    "midi": 57,
                    "time": 289.52622562500244,
                    "velocity": 0.5590551181102362,
                    "duration": 0.021969674999979816
                },
                {
                    "name": "A#3",
                    "midi": 58,
                    "time": 289.5406195500024,
                    "velocity": 0.5669291338582677,
                    "duration": 0.021969674999979816
                },
                {
                    "name": "C4",
                    "midi": 60,
                    "time": 289.5550134750024,
                    "velocity": 0.5826771653543307,
                    "duration": 0.021969674999979816
                },
                {
                    "name": "C4",
                    "midi": 60,
                    "time": 290.9088000000024,
                    "velocity": 0.4251968503937008,
                    "duration": 1.090908000000013
                },
                {
                    "name": "D#4",
                    "midi": 63,
                    "time": 290.9088000000024,
                    "velocity": 0.4251968503937008,
                    "duration": 1.090908000000013
                },
                {
                    "name": "F3",
                    "midi": 53,
                    "time": 290.9088000000024,
                    "velocity": 0.4251968503937008,
                    "duration": 1.090908000000013
                },
                {
                    "name": "A3",
                    "midi": 57,
                    "time": 290.9088000000024,
                    "velocity": 0.4251968503937008,
                    "duration": 1.090908000000013
                },
                {
                    "name": "A#3",
                    "midi": 58,
                    "time": 295.27243200000237,
                    "velocity": 0.33070866141732286,
                    "duration": 0.3636359999999854
                },
                {
                    "name": "D4",
                    "midi": 62,
                    "time": 295.63606800000235,
                    "velocity": 0.3779527559055118,
                    "duration": 0.09090900000001056
                },
                {
                    "name": "G4",
                    "midi": 67,
                    "time": 295.99970400000234,
                    "velocity": 0.36220472440944884,
                    "duration": 0.09090900000001056
                },
                {
                    "name": "C4",
                    "midi": 60,
                    "time": 296.3633400000023,
                    "velocity": 0.4094488188976378,
                    "duration": 0.3636359999999854
                },
                {
                    "name": "D#4",
                    "midi": 63,
                    "time": 296.7269760000023,
                    "velocity": 0.3700787401574803,
                    "duration": 0.3636359999999854
                },
                {
                    "name": "F4",
                    "midi": 65,
                    "time": 297.0906120000023,
                    "velocity": 0.3779527559055118,
                    "duration": 0.3636359999999854
                },
                {
                    "name": "D#4",
                    "midi": 63,
                    "time": 297.4542480000023,
                    "velocity": 0.3543307086614173,
                    "duration": 0.3636359999999854
                },
                {
                    "name": "D4",
                    "midi": 62,
                    "time": 297.81788400000227,
                    "velocity": 0.41732283464566927,
                    "duration": 0.3636359999999854
                },
                {
                    "name": "F4",
                    "midi": 65,
                    "time": 298.18152000000225,
                    "velocity": 0.3700787401574803,
                    "duration": 0.7272719999999708
                },
                {
                    "name": "A3",
                    "midi": 57,
                    "time": 298.18152000000225,
                    "velocity": 0.3700787401574803,
                    "duration": 0.3636359999999854
                },
                {
                    "name": "A#3",
                    "midi": 58,
                    "time": 298.54515600000224,
                    "velocity": 0.4015748031496063,
                    "duration": 0.3636359999999854
                },
                {
                    "name": "D#3",
                    "midi": 51,
                    "time": 298.9087920000022,
                    "velocity": 0.3779527559055118,
                    "duration": 0.3636359999999854
                },
                {
                    "name": "C4",
                    "midi": 60,
                    "time": 298.9087920000022,
                    "velocity": 0.3779527559055118,
                    "duration": 0.3636359999999854
                },
                {
                    "name": "A#3",
                    "midi": 58,
                    "time": 299.2724280000022,
                    "velocity": 0.4094488188976378,
                    "duration": 0.7272720000000277
                },
                {
                    "name": "F3",
                    "midi": 53,
                    "time": 299.2724280000022,
                    "velocity": 0.4094488188976378,
                    "duration": 1.090908000000013
                },
                {
                    "name": "A3",
                    "midi": 57,
                    "time": 299.99970000000224,
                    "velocity": 0.3700787401574803,
                    "duration": 0.3636359999999854
                },
                {
                    "name": "A#2",
                    "midi": 46,
                    "time": 300.7269720000022,
                    "velocity": 0.4881889763779528,
                    "duration": 0.09090900000001056
                },
                {
                    "name": "A#3",
                    "midi": 58,
                    "time": 300.9087900000022,
                    "velocity": 0.3937007874015748,
                    "duration": 0.18181800000002113
                },
                {
                    "name": "D4",
                    "midi": 62,
                    "time": 301.09060800000225,
                    "velocity": 0.41732283464566927,
                    "duration": 0.18181800000002113
                },
                {
                    "name": "A#3",
                    "midi": 58,
                    "time": 301.27242600000227,
                    "velocity": 0.3937007874015748,
                    "duration": 0.18181800000002113
                },
                {
                    "name": "G2",
                    "midi": 43,
                    "time": 301.4542440000023,
                    "velocity": 0.4881889763779528,
                    "duration": 0.09090900000001056
                },
                {
                    "name": "G3",
                    "midi": 55,
                    "time": 301.6360620000023,
                    "velocity": 0.4094488188976378,
                    "duration": 0.09090900000001056
                },
                {
                    "name": "A#3",
                    "midi": 58,
                    "time": 301.81788000000233,
                    "velocity": 0.4251968503937008,
                    "duration": 0.09090900000001056
                },
                {
                    "name": "G3",
                    "midi": 55,
                    "time": 301.99969800000235,
                    "velocity": 0.4094488188976378,
                    "duration": 0.09090900000001056
                },
                {
                    "name": "C2",
                    "midi": 36,
                    "time": 302.1815160000024,
                    "velocity": 0.5039370078740157,
                    "duration": 0.09090900000001056
                },
                {
                    "name": "C3",
                    "midi": 48,
                    "time": 302.3633340000024,
                    "velocity": 0.4015748031496063,
                    "duration": 0.18181800000002113
                },
                {
                    "name": "D#3",
                    "midi": 51,
                    "time": 302.5451520000024,
                    "velocity": 0.4251968503937008,
                    "duration": 0.18181800000002113
                },
                {
                    "name": "C3",
                    "midi": 48,
                    "time": 302.72697000000244,
                    "velocity": 0.4094488188976378,
                    "duration": 0.18181800000002113
                },
                {
                    "name": "F2",
                    "midi": 41,
                    "time": 302.90878800000246,
                    "velocity": 0.5039370078740157,
                    "duration": 0.09090900000001056
                },
                {
                    "name": "F3",
                    "midi": 53,
                    "time": 303.0906060000025,
                    "velocity": 0.41732283464566927,
                    "duration": 0.18181800000002113
                },
                {
                    "name": "A3",
                    "midi": 57,
                    "time": 303.2724240000025,
                    "velocity": 0.4251968503937008,
                    "duration": 0.18181800000002113
                },
                {
                    "name": "F3",
                    "midi": 53,
                    "time": 303.4542420000025,
                    "velocity": 0.4251968503937008,
                    "duration": 0.18181800000002113
                },
                {
                    "name": "A#3",
                    "midi": 58,
                    "time": 303.63606000000254,
                    "velocity": 0.49606299212598426,
                    "duration": 0.3636359999999854
                },
                {
                    "name": "D#3",
                    "midi": 51,
                    "time": 303.99969600000253,
                    "velocity": 0.4251968503937008,
                    "duration": 0.3636359999999854
                },
                {
                    "name": "F3",
                    "midi": 53,
                    "time": 304.3633320000025,
                    "velocity": 0.44881889763779526,
                    "duration": 0.3636359999999854
                },
                {
                    "name": "F2",
                    "midi": 41,
                    "time": 304.7269680000025,
                    "velocity": 0.4251968503937008,
                    "duration": 0.3636359999999854
                },
                {
                    "name": "D3",
                    "midi": 50,
                    "time": 305.0906040000025,
                    "velocity": 0.5433070866141733,
                    "duration": 0.3636359999999854
                },
                {
                    "name": "A#3",
                    "midi": 58,
                    "time": 305.0906040000025,
                    "velocity": 0.5433070866141733,
                    "duration": 0.3636359999999854
                },
                {
                    "name": "D3",
                    "midi": 50,
                    "time": 306.1815120000025,
                    "velocity": 0.49606299212598426,
                    "duration": 0.3636359999999854
                },
                {
                    "name": "A#3",
                    "midi": 58,
                    "time": 306.1815120000025,
                    "velocity": 0.49606299212598426,
                    "duration": 0.3636359999999854
                },
                {
                    "name": "A#3",
                    "midi": 58,
                    "time": 306.5451480000025,
                    "velocity": 0.5354330708661418,
                    "duration": 0.3636359999999854
                },
                {
                    "name": "D#3",
                    "midi": 51,
                    "time": 306.5451480000025,
                    "velocity": 0.5354330708661418,
                    "duration": 0.3636359999999854
                },
                {
                    "name": "D#3",
                    "midi": 51,
                    "time": 307.6360560000025,
                    "velocity": 0.5039370078740157,
                    "duration": 0.3636359999999854
                },
                {
                    "name": "A3",
                    "midi": 57,
                    "time": 307.6360560000025,
                    "velocity": 0.5039370078740157,
                    "duration": 0.3636359999999854
                },
                {
                    "name": "D3",
                    "midi": 50,
                    "time": 307.9996920000025,
                    "velocity": 0.5433070866141733,
                    "duration": 0.3636359999999854
                },
                {
                    "name": "A#3",
                    "midi": 58,
                    "time": 307.9996920000025,
                    "velocity": 0.5433070866141733,
                    "duration": 1.0909079999999562
                },
                {
                    "name": "G3",
                    "midi": 55,
                    "time": 308.36332800000247,
                    "velocity": 0.4645669291338583,
                    "duration": 0.3636359999999854
                },
                {
                    "name": "D#3",
                    "midi": 51,
                    "time": 308.72696400000245,
                    "velocity": 0.5196850393700787,
                    "duration": 0.3636359999999854
                },
                {
                    "name": "A3",
                    "midi": 57,
                    "time": 309.09060000000244,
                    "velocity": 0.4645669291338583,
                    "duration": 0.3636359999999854
                },
                {
                    "name": "F3",
                    "midi": 53,
                    "time": 309.09060000000244,
                    "velocity": 0.4645669291338583,
                    "duration": 0.3636359999999854
                },
                {
                    "name": "D3",
                    "midi": 50,
                    "time": 309.4542360000024,
                    "velocity": 0.5039370078740157,
                    "duration": 0.3636359999999854
                },
                {
                    "name": "A#3",
                    "midi": 58,
                    "time": 309.4542360000024,
                    "velocity": 0.5039370078740157,
                    "duration": 0.3636359999999854
                },
                {
                    "name": "A#3",
                    "midi": 58,
                    "time": 310.54514400000244,
                    "velocity": 0.4251968503937008,
                    "duration": 0.3636359999999854
                },
                {
                    "name": "D3",
                    "midi": 50,
                    "time": 310.54514400000244,
                    "velocity": 0.4251968503937008,
                    "duration": 0.3636359999999854
                },
                {
                    "name": "A#3",
                    "midi": 58,
                    "time": 310.9087800000024,
                    "velocity": 0.4566929133858268,
                    "duration": 0.3636359999999854
                },
                {
                    "name": "D#3",
                    "midi": 51,
                    "time": 310.9087800000024,
                    "velocity": 0.4566929133858268,
                    "duration": 0.3636359999999854
                },
                {
                    "name": "D#3",
                    "midi": 51,
                    "time": 311.99968800000244,
                    "velocity": 0.4330708661417323,
                    "duration": 0.3636359999999854
                },
                {
                    "name": "C4",
                    "midi": 60,
                    "time": 311.99968800000244,
                    "velocity": 0.4330708661417323,
                    "duration": 0.3636359999999854
                },
                {
                    "name": "F3",
                    "midi": 53,
                    "time": 312.3633240000024,
                    "velocity": 0.5039370078740157,
                    "duration": 0.18181800000002113
                },
                {
                    "name": "D4",
                    "midi": 62,
                    "time": 312.54514200000244,
                    "velocity": 0.44881889763779526,
                    "duration": 0.18181800000002113
                },
                {
                    "name": "A#3",
                    "midi": 58,
                    "time": 312.72696000000246,
                    "velocity": 0.5039370078740157,
                    "duration": 0.18181800000002113
                },
                {
                    "name": "D4",
                    "midi": 62,
                    "time": 312.9087780000025,
                    "velocity": 0.4566929133858268,
                    "duration": 0.18181800000002113
                },
                {
                    "name": "F3",
                    "midi": 53,
                    "time": 313.0905960000025,
                    "velocity": 0.5039370078740157,
                    "duration": 0.18181800000002113
                },
                {
                    "name": "D4",
                    "midi": 62,
                    "time": 313.2724140000025,
                    "velocity": 0.4566929133858268,
                    "duration": 0.18181800000002113
                },
                {
                    "name": "A#3",
                    "midi": 58,
                    "time": 313.45423200000255,
                    "velocity": 0.5039370078740157,
                    "duration": 0.18181800000002113
                },
                {
                    "name": "D4",
                    "midi": 62,
                    "time": 313.63605000000257,
                    "velocity": 0.4566929133858268,
                    "duration": 0.18181800000002113
                },
                {
                    "name": "F3",
                    "midi": 53,
                    "time": 313.8178680000026,
                    "velocity": 0.5039370078740157,
                    "duration": 0.18181800000002113
                },
                {
                    "name": "D#4",
                    "midi": 63,
                    "time": 313.9996860000026,
                    "velocity": 0.5039370078740157,
                    "duration": 0.18181800000002113
                },
                {
                    "name": "A3",
                    "midi": 57,
                    "time": 314.18150400000263,
                    "velocity": 0.5275590551181102,
                    "duration": 0.18181800000002113
                },
                {
                    "name": "D#4",
                    "midi": 63,
                    "time": 314.36332200000265,
                    "velocity": 0.5039370078740157,
                    "duration": 0.18181800000002113
                },
                {
                    "name": "F3",
                    "midi": 53,
                    "time": 314.5451400000027,
                    "velocity": 0.5511811023622047,
                    "duration": 0.18181800000002113
                },
                {
                    "name": "D#4",
                    "midi": 63,
                    "time": 314.7269580000027,
                    "velocity": 0.5039370078740157,
                    "duration": 0.18181800000002113
                },
                {
                    "name": "A3",
                    "midi": 57,
                    "time": 314.9087760000027,
                    "velocity": 0.5590551181102362,
                    "duration": 0.18181800000002113
                },
                {
                    "name": "D#4",
                    "midi": 63,
                    "time": 315.09059400000274,
                    "velocity": 0.5196850393700787,
                    "duration": 0.18181800000002113
                },
                {
                    "name": "D4",
                    "midi": 62,
                    "time": 315.27241200000276,
                    "velocity": 0.5196850393700787,
                    "duration": 0.18181800000002113
                },
                {
                    "name": "A#3",
                    "midi": 58,
                    "time": 315.4542300000028,
                    "velocity": 0.3858267716535433,
                    "duration": 0.18181800000002113
                },
                {
                    "name": "D4",
                    "midi": 62,
                    "time": 315.6360480000028,
                    "velocity": 0.3228346456692913,
                    "duration": 0.18181800000002113
                },
                {
                    "name": "A#3",
                    "midi": 58,
                    "time": 315.8178660000028,
                    "velocity": 0.2677165354330709,
                    "duration": 0.18181800000002113
                },
                {
                    "name": "D4",
                    "midi": 62,
                    "time": 315.99968400000284,
                    "velocity": 0.31496062992125984,
                    "duration": 0.18181800000002113
                },
                {
                    "name": "A#3",
                    "midi": 58,
                    "time": 316.18150200000287,
                    "velocity": 0.2755905511811024,
                    "duration": 0.18181800000002113
                },
                {
                    "name": "D4",
                    "midi": 62,
                    "time": 316.3633200000029,
                    "velocity": 0.31496062992125984,
                    "duration": 0.18181800000002113
                },
                {
                    "name": "A#3",
                    "midi": 58,
                    "time": 316.5451380000029,
                    "velocity": 0.2755905511811024,
                    "duration": 0.18181800000002113
                },
                {
                    "name": "F4",
                    "midi": 65,
                    "time": 316.72695600000293,
                    "velocity": 0.33858267716535434,
                    "duration": 0.18181800000002113
                },
                {
                    "name": "A#3",
                    "midi": 58,
                    "time": 316.90877400000295,
                    "velocity": 0.30708661417322836,
                    "duration": 0.18181800000002113
                },
                {
                    "name": "F4",
                    "midi": 65,
                    "time": 317.09059200000297,
                    "velocity": 0.3464566929133858,
                    "duration": 0.18181800000002113
                },
                {
                    "name": "A#3",
                    "midi": 58,
                    "time": 317.272410000003,
                    "velocity": 0.2992125984251969,
                    "duration": 0.18181800000002113
                },
                {
                    "name": "G#4",
                    "midi": 68,
                    "time": 317.454228000003,
                    "velocity": 0.3464566929133858,
                    "duration": 0.18181800000002113
                },
                {
                    "name": "A#3",
                    "midi": 58,
                    "time": 317.63604600000303,
                    "velocity": 0.2992125984251969,
                    "duration": 0.18181800000002113
                },
                {
                    "name": "G#4",
                    "midi": 68,
                    "time": 317.81786400000306,
                    "velocity": 0.3464566929133858,
                    "duration": 0.18181800000002113
                },
                {
                    "name": "A#3",
                    "midi": 58,
                    "time": 317.9996820000031,
                    "velocity": 0.2992125984251969,
                    "duration": 0.18181800000002113
                },
                {
                    "name": "G4",
                    "midi": 67,
                    "time": 318.1815000000031,
                    "velocity": 0.3464566929133858,
                    "duration": 0.18181800000002113
                },
                {
                    "name": "A#3",
                    "midi": 58,
                    "time": 318.3633180000031,
                    "velocity": 0.33070866141732286,
                    "duration": 0.18181800000002113
                },
                {
                    "name": "D4",
                    "midi": 62,
                    "time": 318.54513600000314,
                    "velocity": 0.3700787401574803,
                    "duration": 0.18181800000002113
                },
                {
                    "name": "A#3",
                    "midi": 58,
                    "time": 318.72695400000316,
                    "velocity": 0.3464566929133858,
                    "duration": 0.18181800000002113
                },
                {
                    "name": "D#4",
                    "midi": 63,
                    "time": 318.9087720000032,
                    "velocity": 0.3937007874015748,
                    "duration": 0.18181800000002113
                },
                {
                    "name": "A#3",
                    "midi": 58,
                    "time": 319.0905900000032,
                    "velocity": 0.36220472440944884,
                    "duration": 0.18181800000002113
                },
                {
                    "name": "D#4",
                    "midi": 63,
                    "time": 319.2724080000032,
                    "velocity": 0.3464566929133858,
                    "duration": 0.18181800000002113
                },
                {
                    "name": "A#3",
                    "midi": 58,
                    "time": 319.45422600000325,
                    "velocity": 0.3464566929133858,
                    "duration": 0.18181800000002113
                },
                {
                    "name": "C4",
                    "midi": 60,
                    "time": 319.63604400000327,
                    "velocity": 0.33858267716535434,
                    "duration": 0.18181800000002113
                },
                {
                    "name": "A#3",
                    "midi": 58,
                    "time": 319.8178620000033,
                    "velocity": 0.2992125984251969,
                    "duration": 0.18181800000002113
                },
                {
                    "name": "C4",
                    "midi": 60,
                    "time": 319.9996800000033,
                    "velocity": 0.3228346456692913,
                    "duration": 0.18181800000002113
                },
                {
                    "name": "A#3",
                    "midi": 58,
                    "time": 320.18149800000333,
                    "velocity": 0.31496062992125984,
                    "duration": 0.18181800000002113
                },
                {
                    "name": "C4",
                    "midi": 60,
                    "time": 320.36331600000335,
                    "velocity": 0.3779527559055118,
                    "duration": 0.18181800000002113
                },
                {
                    "name": "A#3",
                    "midi": 58,
                    "time": 320.5451340000034,
                    "velocity": 0.33858267716535434,
                    "duration": 0.18181800000002113
                },
                {
                    "name": "C4",
                    "midi": 60,
                    "time": 320.7269520000034,
                    "velocity": 0.33858267716535434,
                    "duration": 0.18181800000002113
                },
                {
                    "name": "A#3",
                    "midi": 58,
                    "time": 320.9087700000034,
                    "velocity": 0.30708661417322836,
                    "duration": 0.18181800000002113
                },
                {
                    "name": "A#3",
                    "midi": 58,
                    "time": 321.09058800000344,
                    "velocity": 0.3543307086614173,
                    "duration": 0.3636359999999854
                },
                {
                    "name": "D4",
                    "midi": 62,
                    "time": 321.09058800000344,
                    "velocity": 0.3543307086614173,
                    "duration": 0.3636359999999854
                },
                {
                    "name": "F4",
                    "midi": 65,
                    "time": 322.54513200000343,
                    "velocity": 0.33070866141732286,
                    "duration": 0.18181800000002113
                },
                {
                    "name": "A#3",
                    "midi": 58,
                    "time": 322.72695000000346,
                    "velocity": 0.2992125984251969,
                    "duration": 0.18181800000002113
                },
                {
                    "name": "F4",
                    "midi": 65,
                    "time": 322.9087680000035,
                    "velocity": 0.33070866141732286,
                    "duration": 0.18181800000002113
                },
                {
                    "name": "A#3",
                    "midi": 58,
                    "time": 323.0905860000035,
                    "velocity": 0.30708661417322836,
                    "duration": 0.18181800000002113
                },
                {
                    "name": "G#4",
                    "midi": 68,
                    "time": 323.2724040000035,
                    "velocity": 0.33070866141732286,
                    "duration": 0.09090900000001056
                },
                {
                    "name": "A#3",
                    "midi": 58,
                    "time": 323.45422200000354,
                    "velocity": 0.30708661417322836,
                    "duration": 0.09090900000001056
                },
                {
                    "name": "G#4",
                    "midi": 68,
                    "time": 323.63604000000356,
                    "velocity": 0.33070866141732286,
                    "duration": 0.09090900000001056
                },
                {
                    "name": "A#3",
                    "midi": 58,
                    "time": 323.8178580000036,
                    "velocity": 0.2992125984251969,
                    "duration": 0.09090900000001056
                },
                {
                    "name": "G4",
                    "midi": 67,
                    "time": 323.9996760000036,
                    "velocity": 0.33070866141732286,
                    "duration": 0.18181800000002113
                },
                {
                    "name": "A#3",
                    "midi": 58,
                    "time": 324.1814940000036,
                    "velocity": 0.33070866141732286,
                    "duration": 0.18181800000002113
                },
                {
                    "name": "D4",
                    "midi": 62,
                    "time": 324.36331200000365,
                    "velocity": 0.36220472440944884,
                    "duration": 0.18181800000002113
                },
                {
                    "name": "A#3",
                    "midi": 58,
                    "time": 324.54513000000367,
                    "velocity": 0.33070866141732286,
                    "duration": 0.18181800000002113
                },
                {
                    "name": "D#4",
                    "midi": 63,
                    "time": 324.7269480000037,
                    "velocity": 0.3543307086614173,
                    "duration": 0.18181800000002113
                },
                {
                    "name": "A#3",
                    "midi": 58,
                    "time": 324.9087660000037,
                    "velocity": 0.2677165354330709,
                    "duration": 0.18181800000002113
                },
                {
                    "name": "D#4",
                    "midi": 63,
                    "time": 325.09058400000373,
                    "velocity": 0.30708661417322836,
                    "duration": 0.18181800000002113
                },
                {
                    "name": "A#3",
                    "midi": 58,
                    "time": 325.27240200000375,
                    "velocity": 0.2755905511811024,
                    "duration": 0.18181800000002113
                },
                {
                    "name": "C4",
                    "midi": 60,
                    "time": 325.4542200000038,
                    "velocity": 0.3543307086614173,
                    "duration": 0.18181800000002113
                },
                {
                    "name": "A#3",
                    "midi": 58,
                    "time": 325.6360380000038,
                    "velocity": 0.33070866141732286,
                    "duration": 0.18181800000002113
                },
                {
                    "name": "C4",
                    "midi": 60,
                    "time": 325.8178560000038,
                    "velocity": 0.3543307086614173,
                    "duration": 0.18181800000002113
                },
                {
                    "name": "A#3",
                    "midi": 58,
                    "time": 325.99967400000384,
                    "velocity": 0.33070866141732286,
                    "duration": 0.18181800000002113
                },
                {
                    "name": "C4",
                    "midi": 60,
                    "time": 326.18149200000386,
                    "velocity": 0.36220472440944884,
                    "duration": 0.18181800000002113
                },
                {
                    "name": "A#3",
                    "midi": 58,
                    "time": 326.3633100000039,
                    "velocity": 0.33070866141732286,
                    "duration": 0.18181800000002113
                },
                {
                    "name": "C4",
                    "midi": 60,
                    "time": 326.5451280000039,
                    "velocity": 0.36220472440944884,
                    "duration": 0.18181800000002113
                },
                {
                    "name": "A#3",
                    "midi": 58,
                    "time": 326.7269460000039,
                    "velocity": 0.3464566929133858,
                    "duration": 0.18181800000002113
                },
                {
                    "name": "D4",
                    "midi": 62,
                    "time": 326.90876400000394,
                    "velocity": 0.3858267716535433,
                    "duration": 0.3636359999999854
                },
                {
                    "name": "A#3",
                    "midi": 58,
                    "time": 326.90876400000394,
                    "velocity": 0.3858267716535433,
                    "duration": 0.3636359999999854
                },
                {
                    "name": "C4",
                    "midi": 60,
                    "time": 327.6360360000039,
                    "velocity": 0.30708661417322836,
                    "duration": 0.3636359999999854
                },
                {
                    "name": "F3",
                    "midi": 53,
                    "time": 327.6360360000039,
                    "velocity": 0.30708661417322836,
                    "duration": 0.7272719999999708
                },
                {
                    "name": "D#4",
                    "midi": 63,
                    "time": 327.9996720000039,
                    "velocity": 0.30708661417322836,
                    "duration": 0.3636359999999854
                },
                {
                    "name": "D4",
                    "midi": 62,
                    "time": 328.3633080000039,
                    "velocity": 0.36220472440944884,
                    "duration": 0.3636359999999854
                },
                {
                    "name": "A#3",
                    "midi": 58,
                    "time": 328.3633080000039,
                    "velocity": 0.36220472440944884,
                    "duration": 0.3636359999999854
                },
                {
                    "name": "C4",
                    "midi": 60,
                    "time": 329.09058000000385,
                    "velocity": 0.29133858267716534,
                    "duration": 0.3636359999999854
                },
                {
                    "name": "F3",
                    "midi": 53,
                    "time": 329.09058000000385,
                    "velocity": 0.29133858267716534,
                    "duration": 0.7272719999999708
                },
                {
                    "name": "D#4",
                    "midi": 63,
                    "time": 329.45421600000384,
                    "velocity": 0.29133858267716534,
                    "duration": 0.3636359999999854
                },
                {
                    "name": "A#3",
                    "midi": 58,
                    "time": 329.8178520000038,
                    "velocity": 0.33858267716535434,
                    "duration": 0.3636359999999854
                },
                {
                    "name": "D4",
                    "midi": 62,
                    "time": 329.8178520000038,
                    "velocity": 0.33858267716535434,
                    "duration": 0.3636359999999854
                },
                {
                    "name": "F3",
                    "midi": 53,
                    "time": 330.5451240000038,
                    "velocity": 0.6614173228346457,
                    "duration": 0.18181800000002113
                },
                {
                    "name": "F2",
                    "midi": 41,
                    "time": 330.5451240000038,
                    "velocity": 0.5590551181102362,
                    "duration": 0.18181800000002113
                },
                {
                    "name": "F2",
                    "midi": 41,
                    "time": 330.90876000000384,
                    "velocity": 0.5590551181102362,
                    "duration": 0.18181800000002113
                },
                {
                    "name": "F3",
                    "midi": 53,
                    "time": 330.90876000000384,
                    "velocity": 0.6614173228346457,
                    "duration": 0.18181800000002113
                },
                {
                    "name": "A#1",
                    "midi": 34,
                    "time": 331.2723960000039,
                    "velocity": 0.5905511811023622,
                    "duration": 0.18181800000002113
                },
                {
                    "name": "A#2",
                    "midi": 46,
                    "time": 331.2723960000039,
                    "velocity": 0.7007874015748031,
                    "duration": 0.18181800000002113
                }
            ],
            "controlChanges": {
                "7": [
                    {
                        "number": 7,
                        "time": 0,
                        "value": 0.7874015748031497
                    }
                ],
                "10": [
                    {
                        "number": 10,
                        "time": 0,
                        "value": 0.5039370078740157
                    }
                ],
                "91": [
                    {
                        "number": 91,
                        "time": 0,
                        "value": 1
                    },
                    {
                        "number": 91,
                        "time": 11.636351999999997,
                        "value": 1
                    },
                    {
                        "number": 91,
                        "time": 58.181759999999976,
                        "value": 1
                    },
                    {
                        "number": 91,
                        "time": 69.81811199999999,
                        "value": 1
                    },
                    {
                        "number": 91,
                        "time": 161.45438400000097,
                        "value": 1
                    },
                    {
                        "number": 91,
                        "time": 173.09073600000133,
                        "value": 1
                    },
                    {
                        "number": 91,
                        "time": 250.18156800000162,
                        "value": 1
                    },
                    {
                        "number": 91,
                        "time": 253.0906560000015,
                        "value": 1
                    },
                    {
                        "number": 91,
                        "time": 294.9087960000024,
                        "value": 1
                    }
                ]
            },
            "id": 2,
            "name": "Piano left",
            "instrumentNumber": 0,
            "instrument": "acoustic grand piano",
            "instrumentFamily": "piano",
            "channelNumber": 0,
            "isPercussion": false
        },
        {
            "startTime": 0,
            "duration": 0,
            "length": 0,
            "notes": [],
            "controlChanges": {
                "64": [
                    {
                        "number": 64,
                        "time": 0,
                        "value": 0
                    },
                    {
                        "number": 64,
                        "time": 11.6575641,
                        "value": 1
                    },
                    {
                        "number": 64,
                        "time": 12.37423005,
                        "value": 0
                    },
                    {
                        "number": 64,
                        "time": 13.134077775,
                        "value": 1
                    },
                    {
                        "number": 64,
                        "time": 13.46210775,
                        "value": 0
                    },
                    {
                        "number": 64,
                        "time": 17.4787704,
                        "value": 1
                    },
                    {
                        "number": 64,
                        "time": 18.19240605,
                        "value": 0
                    },
                    {
                        "number": 64,
                        "time": 18.92270835,
                        "value": 1
                    },
                    {
                        "number": 64,
                        "time": 19.287101925,
                        "value": 0
                    },
                    {
                        "number": 64,
                        "time": 20.42270685,
                        "value": 1
                    },
                    {
                        "number": 64,
                        "time": 20.73785805,
                        "value": 0
                    },
                    {
                        "number": 64,
                        "time": 20.80755495,
                        "value": 1
                    },
                    {
                        "number": 64,
                        "time": 21.097706175,
                        "value": 0
                    },
                    {
                        "number": 64,
                        "time": 21.155281875,
                        "value": 1
                    },
                    {
                        "number": 64,
                        "time": 21.467402775,
                        "value": 0
                    },
                    {
                        "number": 64,
                        "time": 21.53482695,
                        "value": 1
                    },
                    {
                        "number": 64,
                        "time": 21.826493324999998,
                        "value": 0
                    },
                    {
                        "number": 64,
                        "time": 21.903765975,
                        "value": 1
                    },
                    {
                        "number": 64,
                        "time": 22.315886775,
                        "value": 0
                    },
                    {
                        "number": 64,
                        "time": 34.264359675,
                        "value": 1
                    },
                    {
                        "number": 64,
                        "time": 34.91966205,
                        "value": 0
                    },
                    {
                        "number": 64,
                        "time": 35.684055225,
                        "value": 1
                    },
                    {
                        "number": 64,
                        "time": 36.371933325,
                        "value": 0
                    },
                    {
                        "number": 64,
                        "time": 37.302993,
                        "value": 1
                    },
                    {
                        "number": 64,
                        "time": 37.8272349,
                        "value": 0
                    },
                    {
                        "number": 64,
                        "time": 38.753749125,
                        "value": 1
                    },
                    {
                        "number": 64,
                        "time": 39.284051625,
                        "value": 0
                    },
                    {
                        "number": 64,
                        "time": 39.3423849,
                        "value": 1
                    },
                    {
                        "number": 64,
                        "time": 40.006778175,
                        "value": 0
                    },
                    {
                        "number": 64,
                        "time": 40.7757168,
                        "value": 1
                    },
                    {
                        "number": 64,
                        "time": 41.4605646,
                        "value": 0
                    },
                    {
                        "number": 64,
                        "time": 42.229503224999995,
                        "value": 1
                    },
                    {
                        "number": 64,
                        "time": 42.914351024999995,
                        "value": 0
                    },
                    {
                        "number": 64,
                        "time": 43.71965324999999,
                        "value": 1
                    },
                    {
                        "number": 64,
                        "time": 44.36889502499999,
                        "value": 0
                    },
                    {
                        "number": 64,
                        "time": 44.422682849999994,
                        "value": 1
                    },
                    {
                        "number": 64,
                        "time": 45.09995489999999,
                        "value": 0
                    },
                    {
                        "number": 64,
                        "time": 49.47570809999999,
                        "value": 1
                    },
                    {
                        "number": 64,
                        "time": 50.90903999999999,
                        "value": 0
                    },
                    {
                        "number": 64,
                        "time": 51.00525202499999,
                        "value": 1
                    },
                    {
                        "number": 64,
                        "time": 51.23025179999999,
                        "value": 0
                    },
                    {
                        "number": 64,
                        "time": 51.50828182499999,
                        "value": 1
                    },
                    {
                        "number": 64,
                        "time": 51.91434202499999,
                        "value": 0
                    },
                    {
                        "number": 64,
                        "time": 52.03176614999999,
                        "value": 1
                    },
                    {
                        "number": 64,
                        "time": 52.36358399999999,
                        "value": 0
                    },
                    {
                        "number": 64,
                        "time": 52.44918997499999,
                        "value": 1
                    },
                    {
                        "number": 64,
                        "time": 52.82343202499999,
                        "value": 0
                    },
                    {
                        "number": 64,
                        "time": 52.96282582499999,
                        "value": 1
                    },
                    {
                        "number": 64,
                        "time": 53.34767392499999,
                        "value": 0
                    },
                    {
                        "number": 64,
                        "time": 53.44388594999999,
                        "value": 1
                    },
                    {
                        "number": 64,
                        "time": 53.81812799999999,
                        "value": 0
                    },
                    {
                        "number": 64,
                        "time": 53.93555212499999,
                        "value": 1
                    },
                    {
                        "number": 64,
                        "time": 54.18176399999999,
                        "value": 0
                    },
                    {
                        "number": 64,
                        "time": 54.25676392499999,
                        "value": 1
                    },
                    {
                        "number": 64,
                        "time": 54.491612174999986,
                        "value": 0
                    },
                    {
                        "number": 64,
                        "time": 54.566612099999986,
                        "value": 1
                    },
                    {
                        "number": 64,
                        "time": 54.844642124999986,
                        "value": 0
                    },
                    {
                        "number": 64,
                        "time": 54.919642049999986,
                        "value": 1
                    },
                    {
                        "number": 64,
                        "time": 55.28024774999999,
                        "value": 0
                    },
                    {
                        "number": 64,
                        "time": 55.433277899999986,
                        "value": 1
                    },
                    {
                        "number": 64,
                        "time": 57.45979102499999,
                        "value": 0
                    },
                    {
                        "number": 64,
                        "time": 69.90371797499999,
                        "value": 1
                    },
                    {
                        "number": 64,
                        "time": 70.55826277499999,
                        "value": 0
                    },
                    {
                        "number": 64,
                        "time": 71.2999287,
                        "value": 1
                    },
                    {
                        "number": 64,
                        "time": 71.64311017499999,
                        "value": 0
                    },
                    {
                        "number": 64,
                        "time": 75.64992434999999,
                        "value": 1
                    },
                    {
                        "number": 64,
                        "time": 76.376438775,
                        "value": 0
                    },
                    {
                        "number": 64,
                        "time": 77.155225875,
                        "value": 1
                    },
                    {
                        "number": 64,
                        "time": 77.46204374999999,
                        "value": 0
                    },
                    {
                        "number": 64,
                        "time": 78.630981975,
                        "value": 1
                    },
                    {
                        "number": 64,
                        "time": 78.92037562499999,
                        "value": 0
                    },
                    {
                        "number": 64,
                        "time": 78.98931495,
                        "value": 1
                    },
                    {
                        "number": 64,
                        "time": 79.279466175,
                        "value": 0
                    },
                    {
                        "number": 64,
                        "time": 79.358253975,
                        "value": 1
                    },
                    {
                        "number": 64,
                        "time": 79.64764762499999,
                        "value": 0
                    },
                    {
                        "number": 64,
                        "time": 79.700677875,
                        "value": 1
                    },
                    {
                        "number": 64,
                        "time": 80.0059806,
                        "value": 0
                    },
                    {
                        "number": 64,
                        "time": 80.08022295,
                        "value": 1
                    },
                    {
                        "number": 64,
                        "time": 80.497646775,
                        "value": 0
                    },
                    {
                        "number": 64,
                        "time": 93.138543225,
                        "value": 1
                    },
                    {
                        "number": 64,
                        "time": 93.829451625,
                        "value": 0
                    },
                    {
                        "number": 64,
                        "time": 93.85975462500001,
                        "value": 1
                    },
                    {
                        "number": 64,
                        "time": 94.55596605000001,
                        "value": 0
                    },
                    {
                        "number": 64,
                        "time": 94.599147825,
                        "value": 1
                    },
                    {
                        "number": 64,
                        "time": 95.282480475,
                        "value": 0
                    },
                    {
                        "number": 64,
                        "time": 95.337025875,
                        "value": 1
                    },
                    {
                        "number": 64,
                        "time": 96.00520702499999,
                        "value": 0
                    },
                    {
                        "number": 64,
                        "time": 96.06505544999999,
                        "value": 1
                    },
                    {
                        "number": 64,
                        "time": 96.73702447499998,
                        "value": 0
                    },
                    {
                        "number": 64,
                        "time": 96.81429712499998,
                        "value": 1
                    },
                    {
                        "number": 64,
                        "time": 97.46581162499999,
                        "value": 0
                    },
                    {
                        "number": 64,
                        "time": 97.51353884999999,
                        "value": 1
                    },
                    {
                        "number": 64,
                        "time": 97.90368997499999,
                        "value": 0
                    },
                    {
                        "number": 64,
                        "time": 98.97338587499999,
                        "value": 1
                    },
                    {
                        "number": 64,
                        "time": 99.2847492,
                        "value": 0
                    },
                    {
                        "number": 64,
                        "time": 100.40899049999999,
                        "value": 1
                    },
                    {
                        "number": 64,
                        "time": 100.737020475,
                        "value": 0
                    },
                    {
                        "number": 64,
                        "time": 105.04989495,
                        "value": 1
                    },
                    {
                        "number": 64,
                        "time": 106.188530175,
                        "value": 0
                    },
                    {
                        "number": 64,
                        "time": 106.40443905,
                        "value": 1
                    },
                    {
                        "number": 64,
                        "time": 107.64534689999999,
                        "value": 0
                    },
                    {
                        "number": 64,
                        "time": 107.83852852499999,
                        "value": 1
                    },
                    {
                        "number": 64,
                        "time": 109.09610302499999,
                        "value": 0
                    },
                    {
                        "number": 64,
                        "time": 110.609737875,
                        "value": 1
                    },
                    {
                        "number": 64,
                        "time": 110.91579817499999,
                        "value": 0
                    },
                    {
                        "number": 64,
                        "time": 111.01579807499999,
                        "value": 1
                    },
                    {
                        "number": 64,
                        "time": 111.280949325,
                        "value": 0
                    },
                    {
                        "number": 64,
                        "time": 111.42261585,
                        "value": 1
                    },
                    {
                        "number": 64,
                        "time": 111.64685805,
                        "value": 0
                    },
                    {
                        "number": 64,
                        "time": 111.78094882500001,
                        "value": 1
                    },
                    {
                        "number": 64,
                        "time": 112.006706175,
                        "value": 0
                    },
                    {
                        "number": 64,
                        "time": 112.770341775,
                        "value": 1
                    },
                    {
                        "number": 64,
                        "time": 113.10291720000001,
                        "value": 0
                    },
                    {
                        "number": 64,
                        "time": 113.21958375000001,
                        "value": 1
                    },
                    {
                        "number": 64,
                        "time": 113.46200775000001,
                        "value": 0
                    },
                    {
                        "number": 64,
                        "time": 113.54003797500002,
                        "value": 1
                    },
                    {
                        "number": 64,
                        "time": 113.83018920000002,
                        "value": 0
                    },
                    {
                        "number": 64,
                        "time": 113.91958305000001,
                        "value": 1
                    },
                    {
                        "number": 64,
                        "time": 114.19382520000002,
                        "value": 0
                    },
                    {
                        "number": 64,
                        "time": 114.26730997500002,
                        "value": 1
                    },
                    {
                        "number": 64,
                        "time": 114.55670362500001,
                        "value": 0
                    },
                    {
                        "number": 64,
                        "time": 114.64685505000001,
                        "value": 1
                    },
                    {
                        "number": 64,
                        "time": 114.91882447500001,
                        "value": 0
                    },
                    {
                        "number": 64,
                        "time": 116.090793,
                        "value": 1
                    },
                    {
                        "number": 64,
                        "time": 116.291550375,
                        "value": 0
                    },
                    {
                        "number": 64,
                        "time": 116.80745895,
                        "value": 1
                    },
                    {
                        "number": 64,
                        "time": 117.03776175,
                        "value": 0
                    },
                    {
                        "number": 64,
                        "time": 117.545337,
                        "value": 1
                    },
                    {
                        "number": 64,
                        "time": 117.756700425,
                        "value": 0
                    },
                    {
                        "number": 64,
                        "time": 118.999881,
                        "value": 1
                    },
                    {
                        "number": 64,
                        "time": 119.21654745000001,
                        "value": 0
                    },
                    {
                        "number": 64,
                        "time": 119.727153,
                        "value": 1
                    },
                    {
                        "number": 64,
                        "time": 119.9120013,
                        "value": 0
                    },
                    {
                        "number": 64,
                        "time": 120.459728025,
                        "value": 1
                    },
                    {
                        "number": 64,
                        "time": 120.687000525,
                        "value": 0
                    },
                    {
                        "number": 64,
                        "time": 146.9816712,
                        "value": 1
                    },
                    {
                        "number": 64,
                        "time": 147.6483372,
                        "value": 0
                    },
                    {
                        "number": 64,
                        "time": 151.32257595,
                        "value": 1
                    },
                    {
                        "number": 64,
                        "time": 151.644545325,
                        "value": 0
                    },
                    {
                        "number": 64,
                        "time": 151.7756058,
                        "value": 1
                    },
                    {
                        "number": 64,
                        "time": 152.00818132499998,
                        "value": 0
                    },
                    {
                        "number": 64,
                        "time": 152.13924179999998,
                        "value": 1
                    },
                    {
                        "number": 64,
                        "time": 152.37484762499997,
                        "value": 0
                    },
                    {
                        "number": 64,
                        "time": 152.52408989999998,
                        "value": 1
                    },
                    {
                        "number": 64,
                        "time": 152.72711999999999,
                        "value": 0
                    },
                    {
                        "number": 64,
                        "time": 152.833938075,
                        "value": 1
                    },
                    {
                        "number": 64,
                        "time": 153.102119625,
                        "value": 0
                    },
                    {
                        "number": 64,
                        "time": 153.2513619,
                        "value": 1
                    },
                    {
                        "number": 64,
                        "time": 153.465755625,
                        "value": 0
                    },
                    {
                        "number": 64,
                        "time": 153.61499790000002,
                        "value": 1
                    },
                    {
                        "number": 64,
                        "time": 153.8240886,
                        "value": 0
                    },
                    {
                        "number": 64,
                        "time": 153.871815825,
                        "value": 1
                    },
                    {
                        "number": 64,
                        "time": 154.181664,
                        "value": 0
                    },
                    {
                        "number": 64,
                        "time": 154.28848207500002,
                        "value": 1
                    },
                    {
                        "number": 64,
                        "time": 154.59908782500003,
                        "value": 0
                    },
                    {
                        "number": 64,
                        "time": 154.88772390000003,
                        "value": 1
                    },
                    {
                        "number": 64,
                        "time": 155.19757207500004,
                        "value": 0
                    },
                    {
                        "number": 64,
                        "time": 155.33696587500003,
                        "value": 1
                    },
                    {
                        "number": 64,
                        "time": 155.63620800000004,
                        "value": 0
                    },
                    {
                        "number": 64,
                        "time": 155.68999582500004,
                        "value": 1
                    },
                    {
                        "number": 64,
                        "time": 156.13923780000005,
                        "value": 0
                    },
                    {
                        "number": 64,
                        "time": 156.24605587500005,
                        "value": 1
                    },
                    {
                        "number": 64,
                        "time": 156.59908582500006,
                        "value": 0
                    },
                    {
                        "number": 64,
                        "time": 156.76954020000005,
                        "value": 1
                    },
                    {
                        "number": 64,
                        "time": 157.09075200000004,
                        "value": 0
                    },
                    {
                        "number": 64,
                        "time": 157.17635797500003,
                        "value": 1
                    },
                    {
                        "number": 64,
                        "time": 157.40060017500002,
                        "value": 0
                    },
                    {
                        "number": 64,
                        "time": 157.48620615000002,
                        "value": 1
                    },
                    {
                        "number": 64,
                        "time": 157.7755998,
                        "value": 0
                    },
                    {
                        "number": 64,
                        "time": 157.871811825,
                        "value": 1
                    },
                    {
                        "number": 64,
                        "time": 158.106660075,
                        "value": 0
                    },
                    {
                        "number": 64,
                        "time": 158.18166,
                        "value": 1
                    },
                    {
                        "number": 64,
                        "time": 158.3846901,
                        "value": 0
                    },
                    {
                        "number": 64,
                        "time": 173.13391777500001,
                        "value": 1
                    },
                    {
                        "number": 64,
                        "time": 173.82558375000002,
                        "value": 0
                    },
                    {
                        "number": 64,
                        "time": 174.588461775,
                        "value": 1
                    },
                    {
                        "number": 64,
                        "time": 174.917249325,
                        "value": 0
                    },
                    {
                        "number": 64,
                        "time": 178.94376045,
                        "value": 1
                    },
                    {
                        "number": 64,
                        "time": 179.64754762500002,
                        "value": 0
                    },
                    {
                        "number": 64,
                        "time": 180.41951655000003,
                        "value": 1
                    },
                    {
                        "number": 64,
                        "time": 180.73542532500002,
                        "value": 0
                    },
                    {
                        "number": 64,
                        "time": 181.85587875000002,
                        "value": 1
                    },
                    {
                        "number": 64,
                        "time": 182.19375720000002,
                        "value": 0
                    },
                    {
                        "number": 64,
                        "time": 182.24602987500003,
                        "value": 1
                    },
                    {
                        "number": 64,
                        "time": 182.55890835000002,
                        "value": 0
                    },
                    {
                        "number": 64,
                        "time": 182.63087797500003,
                        "value": 1
                    },
                    {
                        "number": 64,
                        "time": 182.92178677500004,
                        "value": 0
                    },
                    {
                        "number": 64,
                        "time": 182.99451397500005,
                        "value": 1
                    },
                    {
                        "number": 64,
                        "time": 183.27860460000005,
                        "value": 0
                    },
                    {
                        "number": 64,
                        "time": 208.02630712500005,
                        "value": 1
                    },
                    {
                        "number": 64,
                        "time": 209.18160900000004,
                        "value": 0
                    },
                    {
                        "number": 64,
                        "time": 209.47024507500004,
                        "value": 1
                    },
                    {
                        "number": 64,
                        "time": 210.64675905000004,
                        "value": 0
                    },
                    {
                        "number": 64,
                        "time": 210.91948605000005,
                        "value": 1
                    },
                    {
                        "number": 64,
                        "time": 211.28615235000004,
                        "value": 0
                    },
                    {
                        "number": 64,
                        "time": 211.34221290000005,
                        "value": 1
                    },
                    {
                        "number": 64,
                        "time": 211.64903077500006,
                        "value": 0
                    },
                    {
                        "number": 64,
                        "time": 211.68993982500007,
                        "value": 1
                    },
                    {
                        "number": 64,
                        "time": 212.01342435000007,
                        "value": 0
                    },
                    {
                        "number": 64,
                        "time": 212.06418187500006,
                        "value": 1
                    },
                    {
                        "number": 64,
                        "time": 212.37024217500007,
                        "value": 0
                    },
                    {
                        "number": 64,
                        "time": 212.42781787500007,
                        "value": 1
                    },
                    {
                        "number": 64,
                        "time": 212.74069635000006,
                        "value": 0
                    },
                    {
                        "number": 64,
                        "time": 212.78615085000007,
                        "value": 1
                    },
                    {
                        "number": 64,
                        "time": 213.10508992500007,
                        "value": 0
                    },
                    {
                        "number": 64,
                        "time": 213.16569592500008,
                        "value": 1
                    },
                    {
                        "number": 64,
                        "time": 213.46190775000008,
                        "value": 0
                    },
                    {
                        "number": 64,
                        "time": 213.49751377500007,
                        "value": 1
                    },
                    {
                        "number": 64,
                        "time": 213.83008920000006,
                        "value": 0
                    },
                    {
                        "number": 64,
                        "time": 221.09674860000007,
                        "value": 0
                    },
                    {
                        "number": 64,
                        "time": 221.16038490000008,
                        "value": 1
                    },
                    {
                        "number": 64,
                        "time": 221.83386907500008,
                        "value": 0
                    },
                    {
                        "number": 64,
                        "time": 222.61492890000008,
                        "value": 1
                    },
                    {
                        "number": 64,
                        "time": 222.91568617500008,
                        "value": 0
                    },
                    {
                        "number": 64,
                        "time": 224.74068435000007,
                        "value": 1
                    },
                    {
                        "number": 64,
                        "time": 225.46795635000007,
                        "value": 0
                    },
                    {
                        "number": 64,
                        "time": 231.34219290000007,
                        "value": 1
                    },
                    {
                        "number": 64,
                        "time": 234.18158400000007,
                        "value": 0
                    },
                    {
                        "number": 64,
                        "time": 235.64673405000008,
                        "value": 1
                    },
                    {
                        "number": 64,
                        "time": 237.09067200000007,
                        "value": 0
                    },
                    {
                        "number": 64,
                        "time": 237.21870217500006,
                        "value": 1
                    },
                    {
                        "number": 64,
                        "time": 237.46870192500006,
                        "value": 0
                    },
                    {
                        "number": 64,
                        "time": 237.62551995000007,
                        "value": 1
                    },
                    {
                        "number": 64,
                        "time": 238.19824665000007,
                        "value": 0
                    },
                    {
                        "number": 64,
                        "time": 238.29976170000006,
                        "value": 1
                    },
                    {
                        "number": 64,
                        "time": 238.54900387500007,
                        "value": 0
                    },
                    {
                        "number": 64,
                        "time": 238.62021592500008,
                        "value": 1
                    },
                    {
                        "number": 64,
                        "time": 238.9194580500001,
                        "value": 0
                    },
                    {
                        "number": 64,
                        "time": 239.12854875000008,
                        "value": 1
                    },
                    {
                        "number": 64,
                        "time": 239.64824520000008,
                        "value": 0
                    },
                    {
                        "number": 64,
                        "time": 239.77021477500008,
                        "value": 1
                    },
                    {
                        "number": 64,
                        "time": 239.9997600000001,
                        "value": 0
                    },
                    {
                        "number": 64,
                        "time": 240.0421842000001,
                        "value": 1
                    },
                    {
                        "number": 64,
                        "time": 240.7315774500001,
                        "value": 0
                    },
                    {
                        "number": 64,
                        "time": 240.81794100000008,
                        "value": 1
                    },
                    {
                        "number": 64,
                        "time": 241.14975885000007,
                        "value": 0
                    },
                    {
                        "number": 64,
                        "time": 241.48612215000006,
                        "value": 1
                    },
                    {
                        "number": 64,
                        "time": 241.94066715000005,
                        "value": 0
                    },
                    {
                        "number": 64,
                        "time": 242.21869717500005,
                        "value": 1
                    },
                    {
                        "number": 64,
                        "time": 242.56112107500005,
                        "value": 0
                    },
                    {
                        "number": 64,
                        "time": 242.94142372500005,
                        "value": 1
                    },
                    {
                        "number": 64,
                        "time": 244.37021017500004,
                        "value": 0
                    },
                    {
                        "number": 64,
                        "time": 244.41717982500003,
                        "value": 1
                    },
                    {
                        "number": 64,
                        "time": 245.82399660000004,
                        "value": 0
                    },
                    {
                        "number": 64,
                        "time": 245.88232987500004,
                        "value": 1
                    },
                    {
                        "number": 64,
                        "time": 246.56035950000003,
                        "value": 0
                    },
                    {
                        "number": 64,
                        "time": 246.62551095000003,
                        "value": 1
                    },
                    {
                        "number": 64,
                        "time": 246.91490460000003,
                        "value": 0
                    },
                    {
                        "number": 64,
                        "time": 246.99444997500004,
                        "value": 1
                    },
                    {
                        "number": 64,
                        "time": 247.27778302500005,
                        "value": 0
                    },
                    {
                        "number": 64,
                        "time": 247.41717682500004,
                        "value": 1
                    },
                    {
                        "number": 64,
                        "time": 248.05353982500003,
                        "value": 0
                    },
                    {
                        "number": 64,
                        "time": 251.64974835000004,
                        "value": 1
                    },
                    {
                        "number": 64,
                        "time": 252.01035405000005,
                        "value": 0
                    },
                    {
                        "number": 64,
                        "time": 253.16035290000005,
                        "value": 1
                    },
                    {
                        "number": 64,
                        "time": 253.83459465000004,
                        "value": 0
                    },
                    {
                        "number": 64,
                        "time": 254.56641210000004,
                        "value": 1
                    },
                    {
                        "number": 64,
                        "time": 254.92247235000005,
                        "value": 0
                    },
                    {
                        "number": 64,
                        "time": 258.95125620000005,
                        "value": 1
                    },
                    {
                        "number": 64,
                        "time": 259.47549810000004,
                        "value": 0
                    },
                    {
                        "number": 64,
                        "time": 259.550498025,
                        "value": 1
                    },
                    {
                        "number": 64,
                        "time": 259.92474007500005,
                        "value": 0
                    },
                    {
                        "number": 64,
                        "time": 260.01034605000007,
                        "value": 1
                    },
                    {
                        "number": 64,
                        "time": 260.3633760000001,
                        "value": 0
                    },
                    {
                        "number": 64,
                        "time": 260.4595880250001,
                        "value": 1
                    },
                    {
                        "number": 64,
                        "time": 260.86640580000005,
                        "value": 0
                    },
                    {
                        "number": 64,
                        "time": 261.0368601750001,
                        "value": 1
                    },
                    {
                        "number": 64,
                        "time": 261.3148902000001,
                        "value": 0
                    },
                    {
                        "number": 64,
                        "time": 261.5717081250001,
                        "value": 1
                    },
                    {
                        "number": 64,
                        "time": 261.8179200000001,
                        "value": 0
                    },
                    {
                        "number": 64,
                        "time": 261.9353441250001,
                        "value": 1
                    },
                    {
                        "number": 64,
                        "time": 262.1845863000001,
                        "value": 0
                    },
                    {
                        "number": 64,
                        "time": 262.34216190000006,
                        "value": 1
                    },
                    {
                        "number": 64,
                        "time": 262.55504047500006,
                        "value": 0
                    },
                    {
                        "number": 64,
                        "time": 262.64140402500004,
                        "value": 1
                    },
                    {
                        "number": 64,
                        "time": 262.91867647500004,
                        "value": 0
                    },
                    {
                        "number": 64,
                        "time": 263.0482218,
                        "value": 1
                    },
                    {
                        "number": 64,
                        "time": 263.272464,
                        "value": 0
                    },
                    {
                        "number": 64,
                        "time": 263.379282075,
                        "value": 1
                    },
                    {
                        "number": 64,
                        "time": 265.462613325,
                        "value": 0
                    },
                    {
                        "number": 64,
                        "time": 269.165639925,
                        "value": 1
                    },
                    {
                        "number": 64,
                        "time": 269.474730525,
                        "value": 0
                    },
                    {
                        "number": 64,
                        "time": 269.571700125,
                        "value": 1
                    },
                    {
                        "number": 64,
                        "time": 269.82851805,
                        "value": 0
                    },
                    {
                        "number": 64,
                        "time": 269.91412402500004,
                        "value": 1
                    },
                    {
                        "number": 64,
                        "time": 270.192911625,
                        "value": 0
                    },
                    {
                        "number": 64,
                        "time": 270.33154785000005,
                        "value": 1
                    },
                    {
                        "number": 64,
                        "time": 270.55048702500005,
                        "value": 0
                    },
                    {
                        "number": 64,
                        "time": 270.66336570000004,
                        "value": 1
                    },
                    {
                        "number": 64,
                        "time": 270.923213925,
                        "value": 0
                    },
                    {
                        "number": 64,
                        "time": 271.015638075,
                        "value": 1
                    },
                    {
                        "number": 64,
                        "time": 271.28381962500004,
                        "value": 0
                    },
                    {
                        "number": 64,
                        "time": 271.4118498,
                        "value": 1
                    },
                    {
                        "number": 64,
                        "time": 271.64442532500004,
                        "value": 0
                    },
                    {
                        "number": 64,
                        "time": 271.700485875,
                        "value": 1
                    },
                    {
                        "number": 64,
                        "time": 272.00503102500005,
                        "value": 0
                    },
                    {
                        "number": 64,
                        "time": 272.13912180000005,
                        "value": 1
                    },
                    {
                        "number": 64,
                        "time": 272.37548520000007,
                        "value": 0
                    },
                    {
                        "number": 64,
                        "time": 272.54518200000007,
                        "value": 1
                    },
                    {
                        "number": 64,
                        "time": 272.73912120000006,
                        "value": 0
                    },
                    {
                        "number": 64,
                        "time": 272.84442412500005,
                        "value": 1
                    },
                    {
                        "number": 64,
                        "time": 273.09972690000006,
                        "value": 0
                    },
                    {
                        "number": 64,
                        "time": 273.1868480250001,
                        "value": 1
                    },
                    {
                        "number": 64,
                        "time": 273.45427200000006,
                        "value": 0
                    },
                    {
                        "number": 64,
                        "time": 273.51639315000006,
                        "value": 1
                    },
                    {
                        "number": 64,
                        "time": 273.72699900000003,
                        "value": 0
                    },
                    {
                        "number": 64,
                        "time": 274.28230147500005,
                        "value": 1
                    },
                    {
                        "number": 64,
                        "time": 274.4830588500001,
                        "value": 0
                    },
                    {
                        "number": 64,
                        "time": 274.96184625000006,
                        "value": 1
                    },
                    {
                        "number": 64,
                        "time": 275.16714907500005,
                        "value": 0
                    },
                    {
                        "number": 64,
                        "time": 275.6982091500001,
                        "value": 1
                    },
                    {
                        "number": 64,
                        "time": 275.9232089250001,
                        "value": 0
                    },
                    {
                        "number": 64,
                        "time": 276.4110872250001,
                        "value": 1
                    },
                    {
                        "number": 64,
                        "time": 276.65578395000006,
                        "value": 0
                    },
                    {
                        "number": 64,
                        "time": 277.16714707500006,
                        "value": 1
                    },
                    {
                        "number": 64,
                        "time": 277.37775292500004,
                        "value": 0
                    },
                    {
                        "number": 64,
                        "time": 277.88002515000005,
                        "value": 1
                    },
                    {
                        "number": 64,
                        "time": 278.0959340250001,
                        "value": 0
                    },
                    {
                        "number": 64,
                        "time": 278.61260017500007,
                        "value": 1
                    },
                    {
                        "number": 64,
                        "time": 278.84214540000005,
                        "value": 0
                    },
                    {
                        "number": 64,
                        "time": 279.33987217500004,
                        "value": 1
                    },
                    {
                        "number": 64,
                        "time": 279.64441732500006,
                        "value": 0
                    },
                    {
                        "number": 64,
                        "time": 285.2027451000001,
                        "value": 1
                    },
                    {
                        "number": 64,
                        "time": 285.82850205000005,
                        "value": 0
                    },
                    {
                        "number": 64,
                        "time": 285.87168382500005,
                        "value": 1
                    },
                    {
                        "number": 64,
                        "time": 286.55425890000004,
                        "value": 0
                    },
                    {
                        "number": 64,
                        "time": 286.6633497,
                        "value": 1
                    },
                    {
                        "number": 64,
                        "time": 288.73152945000004,
                        "value": 0
                    },
                    {
                        "number": 64,
                        "time": 288.92016562500004,
                        "value": 1
                    },
                    {
                        "number": 64,
                        "time": 289.47092265000003,
                        "value": 0
                    },
                    {
                        "number": 64,
                        "time": 290.92243635000005,
                        "value": 1
                    },
                    {
                        "number": 64,
                        "time": 291.27546630000006,
                        "value": 0
                    },
                    {
                        "number": 64,
                        "time": 302.22697050000005,
                        "value": 1
                    },
                    {
                        "number": 64,
                        "time": 302.55575805000007,
                        "value": 0
                    },
                    {
                        "number": 64,
                        "time": 303.67393875000005,
                        "value": 1
                    },
                    {
                        "number": 64,
                        "time": 304.00575660000004,
                        "value": 0
                    },
                    {
                        "number": 64,
                        "time": 304.05348382500006,
                        "value": 1
                    },
                    {
                        "number": 64,
                        "time": 304.37166532500004,
                        "value": 0
                    },
                    {
                        "number": 64,
                        "time": 304.427725875,
                        "value": 1
                    },
                    {
                        "number": 64,
                        "time": 304.7390892,
                        "value": 0
                    },
                    {
                        "number": 64,
                        "time": 304.791361875,
                        "value": 1
                    },
                    {
                        "number": 64,
                        "time": 305.098937325,
                        "value": 0
                    },
                    {
                        "number": 64,
                        "time": 308.78302455,
                        "value": 1
                    },
                    {
                        "number": 64,
                        "time": 309.45953902499997,
                        "value": 0
                    },
                    {
                        "number": 64,
                        "time": 313.858019475,
                        "value": 1
                    },
                    {
                        "number": 64,
                        "time": 315.272412,
                        "value": 0
                    },
                    {
                        "number": 64,
                        "time": 315.5724117,
                        "value": 1
                    },
                    {
                        "number": 64,
                        "time": 316.726956,
                        "value": 0
                    },
                    {
                        "number": 64,
                        "time": 316.830743775,
                        "value": 1
                    },
                    {
                        "number": 64,
                        "time": 317.46028859999996,
                        "value": 0
                    },
                    {
                        "number": 64,
                        "time": 322.60649557499994,
                        "value": 1
                    },
                    {
                        "number": 64,
                        "time": 323.28073732499996,
                        "value": 0
                    },
                    {
                        "number": 64,
                        "time": 324.02922142499995,
                        "value": 1
                    },
                    {
                        "number": 64,
                        "time": 324.74588737499994,
                        "value": 0
                    },
                    {
                        "number": 64,
                        "time": 327.72164197499995,
                        "value": 1
                    },
                    {
                        "number": 64,
                        "time": 328.37391404999994,
                        "value": 0
                    },
                    {
                        "number": 64,
                        "time": 329.17088294999996,
                        "value": 1
                    },
                    {
                        "number": 64,
                        "time": 329.82467017499994,
                        "value": 0
                    }
                ]
            },
            "id": 3,
            "name": "Pedal"
        },
        {
            "startTime": 0,
            "duration": 0,
            "length": 0,
            "notes": [],
            "controlChanges": {},
            "id": 4,
            "name": "Mozart: Klaviersonate B-Dur KV 333 3. Satz"
        },
        {
            "startTime": 0,
            "duration": 0,
            "length": 0,
            "notes": [],
            "controlChanges": {},
            "id": 5,
            "name": "Copyright  1997 by Bernd Krger"
        },
        {
            "startTime": 0,
            "duration": 0,
            "length": 0,
            "notes": [],
            "controlChanges": {},
            "id": 6,
            "name": "http://www.piano-midi.de"
        },
        {
            "startTime": 0,
            "duration": 0,
            "length": 0,
            "notes": [],
            "controlChanges": {},
            "id": 7,
            "name": "Edition: 2013-09-13"
        },
        {
            "startTime": 0,
            "duration": 0,
            "length": 0,
            "notes": [],
            "controlChanges": {},
            "id": 8,
            "name": "Spur 8"
        }
    ]
}