{
    "header": {
        "PPQ": 480,
        "timeSignature": [
            3,
            4
        ],
        "bpm": 113.00009605008164,
        "name": "Klaviersonate Nr. 11 KV 331 2. Satz"
    },
    "startTime": 0,
    "duration": 396.1058580000026,
    "tracks": [
        {
            "startTime": 0,
            "duration": 0,
            "length": 0,
            "notes": [],
            "controlChanges": {},
            "id": 0,
            "name": "Klaviersonate Nr. 11 KV 331 2. Satz"
        },
        {
            "startTime": 0,
            "duration": 395.57488500000244,
            "length": 1630,
            "notes": [
                {
                    "name": "C#4",
                    "midi": 61,
                    "time": 0,
                    "velocity": 0.5039370078740157,
                    "duration": 0.066371625
                },
                {
                    "name": "E4",
                    "midi": 64,
                    "time": 0.066371625,
                    "velocity": 0.5039370078740157,
                    "duration": 0.066371625
                },
                {
                    "name": "A4",
                    "midi": 69,
                    "time": 0.13274325,
                    "velocity": 0.5984251968503937,
                    "duration": 0.9292027500000001
                },
                {
                    "name": "E4",
                    "midi": 64,
                    "time": 1.061946,
                    "velocity": 0.5511811023622047,
                    "duration": 0.5309730000000001
                },
                {
                    "name": "C#5",
                    "midi": 73,
                    "time": 1.5929190000000002,
                    "velocity": 0.5669291338582677,
                    "duration": 0.26548649999999996
                },
                {
                    "name": "D5",
                    "midi": 74,
                    "time": 1.8584055000000002,
                    "velocity": 0.5826771653543307,
                    "duration": 0.1327432500000001
                },
                {
                    "name": "B4",
                    "midi": 71,
                    "time": 1.9911487500000002,
                    "velocity": 0.5511811023622047,
                    "duration": 0.13274324999999987
                },
                {
                    "name": "A4",
                    "midi": 69,
                    "time": 2.123892,
                    "velocity": 0.5511811023622047,
                    "duration": 0.2654865000000002
                },
                {
                    "name": "C#5",
                    "midi": 73,
                    "time": 3.1858380000000004,
                    "velocity": 0.3937007874015748,
                    "duration": 0.2654865000000002
                },
                {
                    "name": "D5",
                    "midi": 74,
                    "time": 3.4513245000000006,
                    "velocity": 0.4094488188976378,
                    "duration": 0.13274324999999987
                },
                {
                    "name": "B4",
                    "midi": 71,
                    "time": 3.5840677500000004,
                    "velocity": 0.36220472440944884,
                    "duration": 0.13274324999999987
                },
                {
                    "name": "A4",
                    "midi": 69,
                    "time": 3.7168110000000003,
                    "velocity": 0.3858267716535433,
                    "duration": 0.5309729999999999
                },
                {
                    "name": "C#6",
                    "midi": 85,
                    "time": 4.247784,
                    "velocity": 0.44881889763779526,
                    "duration": 0.26548649999999974
                },
                {
                    "name": "D#5",
                    "midi": 75,
                    "time": 4.778757,
                    "velocity": 0.3937007874015748,
                    "duration": 0.5309730000000004
                },
                {
                    "name": "E5",
                    "midi": 76,
                    "time": 5.30973,
                    "velocity": 0.4094488188976378,
                    "duration": 0.7964595000000001
                },
                {
                    "name": "F5",
                    "midi": 77,
                    "time": 6.1061895,
                    "velocity": 0.4015748031496063,
                    "duration": 0.2433626249999996
                },
                {
                    "name": "G#5",
                    "midi": 80,
                    "time": 6.371676,
                    "velocity": 0.44881889763779526,
                    "duration": 0.26548649999999974
                },
                {
                    "name": "F#5",
                    "midi": 78,
                    "time": 6.6371625,
                    "velocity": 0.4409448818897638,
                    "duration": 0.26548649999999974
                },
                {
                    "name": "E5",
                    "midi": 76,
                    "time": 6.902648999999999,
                    "velocity": 0.4251968503937008,
                    "duration": 0.26548649999999974
                },
                {
                    "name": "D5",
                    "midi": 74,
                    "time": 7.168135499999999,
                    "velocity": 0.41732283464566927,
                    "duration": 0.26548649999999974
                },
                {
                    "name": "C#5",
                    "midi": 73,
                    "time": 7.433621999999999,
                    "velocity": 0.4094488188976378,
                    "duration": 0.26548649999999974
                },
                {
                    "name": "B4",
                    "midi": 71,
                    "time": 7.699108499999999,
                    "velocity": 0.4015748031496063,
                    "duration": 0.26548649999999974
                },
                {
                    "name": "A4",
                    "midi": 69,
                    "time": 7.964594999999998,
                    "velocity": 0.4015748031496063,
                    "duration": 0.2654865000000006
                },
                {
                    "name": "G#4",
                    "midi": 68,
                    "time": 8.230081499999999,
                    "velocity": 0.36220472440944884,
                    "duration": 0.26548649999999974
                },
                {
                    "name": "E5",
                    "midi": 76,
                    "time": 8.495567999999999,
                    "velocity": 0.41732283464566927,
                    "duration": 0.26548649999999974
                },
                {
                    "name": "D5",
                    "midi": 74,
                    "time": 8.761054499999998,
                    "velocity": 0.4015748031496063,
                    "duration": 0.26548649999999974
                },
                {
                    "name": "B4",
                    "midi": 71,
                    "time": 9.557513999999998,
                    "velocity": 0.44881889763779526,
                    "duration": 0.26548649999999974
                },
                {
                    "name": "A4",
                    "midi": 69,
                    "time": 9.823000499999997,
                    "velocity": 0.41732283464566927,
                    "duration": 0.26548649999999974
                },
                {
                    "name": "F#5",
                    "midi": 78,
                    "time": 10.088486999999997,
                    "velocity": 0.44881889763779526,
                    "duration": 0.26548649999999974
                },
                {
                    "name": "E5",
                    "midi": 76,
                    "time": 10.353973499999997,
                    "velocity": 0.4409448818897638,
                    "duration": 0.26548649999999974
                },
                {
                    "name": "C#5",
                    "midi": 73,
                    "time": 11.150432999999996,
                    "velocity": 0.49606299212598426,
                    "duration": 0.26548649999999974
                },
                {
                    "name": "B4",
                    "midi": 71,
                    "time": 11.415919499999996,
                    "velocity": 0.4645669291338583,
                    "duration": 0.26548649999999974
                },
                {
                    "name": "G5",
                    "midi": 79,
                    "time": 11.681405999999996,
                    "velocity": 0.4881889763779528,
                    "duration": 0.26548649999999974
                },
                {
                    "name": "F#5",
                    "midi": 78,
                    "time": 11.946892499999995,
                    "velocity": 0.4645669291338583,
                    "duration": 0.26548649999999974
                },
                {
                    "name": "F#4",
                    "midi": 66,
                    "time": 12.743351999999994,
                    "velocity": 0.4015748031496063,
                    "duration": 0.5309729999999995
                },
                {
                    "name": "E5",
                    "midi": 76,
                    "time": 13.274324999999994,
                    "velocity": 0.41732283464566927,
                    "duration": 0.26548649999999974
                },
                {
                    "name": "D5",
                    "midi": 74,
                    "time": 13.539811499999994,
                    "velocity": 0.4015748031496063,
                    "duration": 0.26548649999999974
                },
                {
                    "name": "C#5",
                    "midi": 73,
                    "time": 13.805297999999993,
                    "velocity": 0.4015748031496063,
                    "duration": 0.26548649999999974
                },
                {
                    "name": "B4",
                    "midi": 71,
                    "time": 14.070784499999993,
                    "velocity": 0.3858267716535433,
                    "duration": 0.26548649999999974
                },
                {
                    "name": "A4",
                    "midi": 69,
                    "time": 14.336270999999993,
                    "velocity": 0.4015748031496063,
                    "duration": 0.26548649999999974
                },
                {
                    "name": "G#4",
                    "midi": 68,
                    "time": 14.601757499999993,
                    "velocity": 0.3779527559055118,
                    "duration": 0.26548649999999974
                },
                {
                    "name": "A4",
                    "midi": 69,
                    "time": 14.867243999999992,
                    "velocity": 0.4015748031496063,
                    "duration": 0.5309729999999995
                },
                {
                    "name": "B4",
                    "midi": 71,
                    "time": 15.730075124999992,
                    "velocity": 0.5354330708661418,
                    "duration": 0.06637162500000038
                },
                {
                    "name": "E5",
                    "midi": 76,
                    "time": 15.796446749999992,
                    "velocity": 0.5590551181102362,
                    "duration": 0.06637162500000038
                },
                {
                    "name": "G#5",
                    "midi": 80,
                    "time": 15.862818374999993,
                    "velocity": 0.5826771653543307,
                    "duration": 0.06637162500000038
                },
                {
                    "name": "B5",
                    "midi": 83,
                    "time": 15.929189999999993,
                    "velocity": 0.6062992125984252,
                    "duration": 1.5929190000000002
                },
                {
                    "name": "B5",
                    "midi": 83,
                    "time": 17.522108999999993,
                    "velocity": 0.5748031496062992,
                    "duration": 0.13274325000000076
                },
                {
                    "name": "A5",
                    "midi": 81,
                    "time": 17.654852249999994,
                    "velocity": 0.5669291338582677,
                    "duration": 0.13274325000000076
                },
                {
                    "name": "G#5",
                    "midi": 80,
                    "time": 17.787595499999995,
                    "velocity": 0.5590551181102362,
                    "duration": 0.13274325000000076
                },
                {
                    "name": "F#5",
                    "midi": 78,
                    "time": 17.920338749999996,
                    "velocity": 0.5511811023622047,
                    "duration": 0.1238937
                },
                {
                    "name": "F#5",
                    "midi": 78,
                    "time": 18.053081999999996,
                    "velocity": 0.5669291338582677,
                    "duration": 0.13274325000000076
                },
                {
                    "name": "E5",
                    "midi": 76,
                    "time": 18.185825249999997,
                    "velocity": 0.5590551181102362,
                    "duration": 0.13274325000000076
                },
                {
                    "name": "D#5",
                    "midi": 75,
                    "time": 18.318568499999998,
                    "velocity": 0.5433070866141733,
                    "duration": 0.13274325000000076
                },
                {
                    "name": "C#5",
                    "midi": 73,
                    "time": 18.45131175,
                    "velocity": 0.5354330708661418,
                    "duration": 0.13274325000000076
                },
                {
                    "name": "B4",
                    "midi": 71,
                    "time": 18.584055,
                    "velocity": 0.5511811023622047,
                    "duration": 0.13274325000000076
                },
                {
                    "name": "A4",
                    "midi": 69,
                    "time": 18.71679825,
                    "velocity": 0.5275590551181102,
                    "duration": 0.13274325000000076
                },
                {
                    "name": "G#4",
                    "midi": 68,
                    "time": 18.8495415,
                    "velocity": 0.5275590551181102,
                    "duration": 0.13274325000000076
                },
                {
                    "name": "A4",
                    "midi": 69,
                    "time": 18.98228475,
                    "velocity": 0.5275590551181102,
                    "duration": 0.13274325000000076
                },
                {
                    "name": "G#4",
                    "midi": 68,
                    "time": 19.115028000000002,
                    "velocity": 0.5275590551181102,
                    "duration": 0.13274325000000076
                },
                {
                    "name": "B4",
                    "midi": 71,
                    "time": 19.247771250000003,
                    "velocity": 0.5433070866141733,
                    "duration": 0.13274325000000076
                },
                {
                    "name": "E5",
                    "midi": 76,
                    "time": 19.380514500000004,
                    "velocity": 0.5511811023622047,
                    "duration": 0.13274325000000076
                },
                {
                    "name": "G#5",
                    "midi": 80,
                    "time": 19.513257750000005,
                    "velocity": 0.5669291338582677,
                    "duration": 0.13274325000000076
                },
                {
                    "name": "B5",
                    "midi": 83,
                    "time": 19.646001000000005,
                    "velocity": 0.5748031496062992,
                    "duration": 1.061945999999999
                },
                {
                    "name": "B5",
                    "midi": 83,
                    "time": 20.707947000000004,
                    "velocity": 0.5748031496062992,
                    "duration": 0.13274325000000076
                },
                {
                    "name": "A5",
                    "midi": 81,
                    "time": 20.840690250000005,
                    "velocity": 0.5669291338582677,
                    "duration": 0.13274325000000076
                },
                {
                    "name": "G#5",
                    "midi": 80,
                    "time": 20.973433500000006,
                    "velocity": 0.5590551181102362,
                    "duration": 0.13274325000000076
                },
                {
                    "name": "F#5",
                    "midi": 78,
                    "time": 21.106176750000007,
                    "velocity": 0.5511811023622047,
                    "duration": 0.1272122812499994
                },
                {
                    "name": "F#5",
                    "midi": 78,
                    "time": 21.238920000000007,
                    "velocity": 0.5669291338582677,
                    "duration": 0.13274325000000076
                },
                {
                    "name": "E5",
                    "midi": 76,
                    "time": 21.371663250000008,
                    "velocity": 0.5590551181102362,
                    "duration": 0.13274325000000076
                },
                {
                    "name": "D#5",
                    "midi": 75,
                    "time": 21.50440650000001,
                    "velocity": 0.5433070866141733,
                    "duration": 0.13274325000000076
                },
                {
                    "name": "C#5",
                    "midi": 73,
                    "time": 21.63714975000001,
                    "velocity": 0.5354330708661418,
                    "duration": 0.13274325000000076
                },
                {
                    "name": "B4",
                    "midi": 71,
                    "time": 21.76989300000001,
                    "velocity": 0.5511811023622047,
                    "duration": 0.13274325000000076
                },
                {
                    "name": "A4",
                    "midi": 69,
                    "time": 21.90263625000001,
                    "velocity": 0.5275590551181102,
                    "duration": 0.13274325000000076
                },
                {
                    "name": "G#4",
                    "midi": 68,
                    "time": 22.035379500000012,
                    "velocity": 0.5275590551181102,
                    "duration": 0.13274325000000076
                },
                {
                    "name": "A4",
                    "midi": 69,
                    "time": 22.168122750000013,
                    "velocity": 0.5275590551181102,
                    "duration": 0.13274325000000076
                },
                {
                    "name": "G#4",
                    "midi": 68,
                    "time": 22.300866000000013,
                    "velocity": 0.5275590551181102,
                    "duration": 0.13274325000000076
                },
                {
                    "name": "B4",
                    "midi": 71,
                    "time": 22.433609250000014,
                    "velocity": 0.5039370078740157,
                    "duration": 0.13274325000000076
                },
                {
                    "name": "A4",
                    "midi": 69,
                    "time": 22.566352500000015,
                    "velocity": 0.5511811023622047,
                    "duration": 0.13274325000000076
                },
                {
                    "name": "G#4",
                    "midi": 68,
                    "time": 22.699095750000016,
                    "velocity": 0.5039370078740157,
                    "duration": 0.13274325000000076
                },
                {
                    "name": "A4",
                    "midi": 69,
                    "time": 22.824095643750017,
                    "velocity": 0.5354330708661418,
                    "duration": 0.13274325000000076
                },
                {
                    "name": "B4",
                    "midi": 71,
                    "time": 22.964582250000017,
                    "velocity": 0.5354330708661418,
                    "duration": 0.13274325000000076
                },
                {
                    "name": "C#5",
                    "midi": 73,
                    "time": 23.097325500000018,
                    "velocity": 0.5433070866141733,
                    "duration": 0.13274325000000076
                },
                {
                    "name": "D#5",
                    "midi": 75,
                    "time": 23.23006875000002,
                    "velocity": 0.5511811023622047,
                    "duration": 0.13274325000000076
                },
                {
                    "name": "E5",
                    "midi": 76,
                    "time": 23.36281200000002,
                    "velocity": 0.5511811023622047,
                    "duration": 0.13274325000000076
                },
                {
                    "name": "F#5",
                    "midi": 78,
                    "time": 23.49555525000002,
                    "velocity": 0.5590551181102362,
                    "duration": 0.13274325000000076
                },
                {
                    "name": "G#5",
                    "midi": 80,
                    "time": 23.62829850000002,
                    "velocity": 0.5669291338582677,
                    "duration": 0.13274325000000076
                },
                {
                    "name": "A5",
                    "midi": 81,
                    "time": 23.76104175000002,
                    "velocity": 0.5669291338582677,
                    "duration": 0.13274325000000076
                },
                {
                    "name": "B5",
                    "midi": 83,
                    "time": 23.893785000000022,
                    "velocity": 0.5748031496062992,
                    "duration": 0.13274325000000076
                },
                {
                    "name": "C#6",
                    "midi": 85,
                    "time": 24.026528250000023,
                    "velocity": 0.5826771653543307,
                    "duration": 0.13274325000000076
                },
                {
                    "name": "D#6",
                    "midi": 87,
                    "time": 24.159271500000024,
                    "velocity": 0.5826771653543307,
                    "duration": 0.13274325000000076
                },
                {
                    "name": "E6",
                    "midi": 88,
                    "time": 24.292014750000025,
                    "velocity": 0.5905511811023622,
                    "duration": 0.13274325000000076
                },
                {
                    "name": "D#6",
                    "midi": 87,
                    "time": 24.424758000000026,
                    "velocity": 0.5669291338582677,
                    "duration": 0.13274325000000076
                },
                {
                    "name": "C#6",
                    "midi": 85,
                    "time": 24.557501250000026,
                    "velocity": 0.5511811023622047,
                    "duration": 0.13274325000000076
                },
                {
                    "name": "B5",
                    "midi": 83,
                    "time": 24.690244500000027,
                    "velocity": 0.5354330708661418,
                    "duration": 0.13274325000000076
                },
                {
                    "name": "A5",
                    "midi": 81,
                    "time": 24.822987750000028,
                    "velocity": 0.5118110236220472,
                    "duration": 0.13274325000000076
                },
                {
                    "name": "G#5",
                    "midi": 80,
                    "time": 24.95573100000003,
                    "velocity": 0.49606299212598426,
                    "duration": 0.13274325000000076
                },
                {
                    "name": "F#5",
                    "midi": 78,
                    "time": 25.08847425000003,
                    "velocity": 0.48031496062992124,
                    "duration": 0.13274325000000076
                },
                {
                    "name": "E5",
                    "midi": 76,
                    "time": 25.22121750000003,
                    "velocity": 0.4645669291338583,
                    "duration": 0.13274325000000076
                },
                {
                    "name": "D#5",
                    "midi": 75,
                    "time": 25.35396075000003,
                    "velocity": 0.44881889763779526,
                    "duration": 0.13274325000000076
                },
                {
                    "name": "C#5",
                    "midi": 73,
                    "time": 25.48670400000003,
                    "velocity": 0.3937007874015748,
                    "duration": 0.2654865000000015
                },
                {
                    "name": "C#6",
                    "midi": 85,
                    "time": 25.884933750000034,
                    "velocity": 0.3937007874015748,
                    "duration": 0.13274325000000076
                },
                {
                    "name": "E5",
                    "midi": 76,
                    "time": 26.017677000000035,
                    "velocity": 0.4251968503937008,
                    "duration": 0.46460137500000087
                },
                {
                    "name": "G#5",
                    "midi": 80,
                    "time": 26.482278375000035,
                    "velocity": 0.3937007874015748,
                    "duration": 0.0663716249999986
                },
                {
                    "name": "D#5",
                    "midi": 75,
                    "time": 26.548650000000034,
                    "velocity": 0.41732283464566927,
                    "duration": 0.5309729999999995
                },
                {
                    "name": "F#5",
                    "midi": 78,
                    "time": 26.548650000000034,
                    "velocity": 0.41732283464566927,
                    "duration": 0.5309729999999995
                },
                {
                    "name": "E5",
                    "midi": 76,
                    "time": 27.079623000000034,
                    "velocity": 0.4015748031496063,
                    "duration": 0.5309729999999995
                },
                {
                    "name": "C#4",
                    "midi": 61,
                    "time": 28.672542000000032,
                    "velocity": 0.5039370078740157,
                    "duration": 0.0663716249999986
                },
                {
                    "name": "E4",
                    "midi": 64,
                    "time": 28.73891362500003,
                    "velocity": 0.5039370078740157,
                    "duration": 0.0663716249999986
                },
                {
                    "name": "A4",
                    "midi": 69,
                    "time": 28.80528525000003,
                    "velocity": 0.5984251968503937,
                    "duration": 0.9292027500000017
                },
                {
                    "name": "E4",
                    "midi": 64,
                    "time": 29.73448800000003,
                    "velocity": 0.5511811023622047,
                    "duration": 0.5309729999999995
                },
                {
                    "name": "C#5",
                    "midi": 73,
                    "time": 30.26546100000003,
                    "velocity": 0.5669291338582677,
                    "duration": 0.2654865000000015
                },
                {
                    "name": "D5",
                    "midi": 74,
                    "time": 30.530947500000032,
                    "velocity": 0.5826771653543307,
                    "duration": 0.13274325000000076
                },
                {
                    "name": "B4",
                    "midi": 71,
                    "time": 30.663690750000033,
                    "velocity": 0.5511811023622047,
                    "duration": 0.13274325000000076
                },
                {
                    "name": "A4",
                    "midi": 69,
                    "time": 30.796434000000033,
                    "velocity": 0.5511811023622047,
                    "duration": 0.2654865000000015
                },
                {
                    "name": "C#5",
                    "midi": 73,
                    "time": 31.858380000000036,
                    "velocity": 0.3937007874015748,
                    "duration": 0.26548649999999796
                },
                {
                    "name": "D5",
                    "midi": 74,
                    "time": 32.123866500000034,
                    "velocity": 0.4094488188976378,
                    "duration": 0.1327432499999972
                },
                {
                    "name": "B4",
                    "midi": 71,
                    "time": 32.25660975000003,
                    "velocity": 0.36220472440944884,
                    "duration": 0.1327432499999972
                },
                {
                    "name": "A4",
                    "midi": 69,
                    "time": 32.38935300000003,
                    "velocity": 0.3858267716535433,
                    "duration": 0.530973000000003
                },
                {
                    "name": "C#6",
                    "midi": 85,
                    "time": 32.92032600000003,
                    "velocity": 0.44881889763779526,
                    "duration": 0.2654865000000015
                },
                {
                    "name": "D#5",
                    "midi": 75,
                    "time": 33.451299000000034,
                    "velocity": 0.3937007874015748,
                    "duration": 0.530973000000003
                },
                {
                    "name": "E5",
                    "midi": 76,
                    "time": 33.98227200000004,
                    "velocity": 0.4094488188976378,
                    "duration": 0.7964594999999974
                },
                {
                    "name": "F5",
                    "midi": 77,
                    "time": 34.778731500000035,
                    "velocity": 0.4015748031496063,
                    "duration": 0.24336262500000316
                },
                {
                    "name": "G#5",
                    "midi": 80,
                    "time": 35.044218000000036,
                    "velocity": 0.44881889763779526,
                    "duration": 0.2654865000000015
                },
                {
                    "name": "F#5",
                    "midi": 78,
                    "time": 35.30970450000004,
                    "velocity": 0.4409448818897638,
                    "duration": 0.2654865000000015
                },
                {
                    "name": "E5",
                    "midi": 76,
                    "time": 35.57519100000004,
                    "velocity": 0.4251968503937008,
                    "duration": 0.2654865000000015
                },
                {
                    "name": "D5",
                    "midi": 74,
                    "time": 35.84067750000004,
                    "velocity": 0.41732283464566927,
                    "duration": 0.2654865000000015
                },
                {
                    "name": "C#5",
                    "midi": 73,
                    "time": 36.10616400000004,
                    "velocity": 0.4094488188976378,
                    "duration": 0.2654865000000015
                },
                {
                    "name": "B4",
                    "midi": 71,
                    "time": 36.371650500000044,
                    "velocity": 0.4015748031496063,
                    "duration": 0.2654865000000015
                },
                {
                    "name": "A4",
                    "midi": 69,
                    "time": 36.637137000000045,
                    "velocity": 0.4015748031496063,
                    "duration": 0.2654865000000015
                },
                {
                    "name": "G#4",
                    "midi": 68,
                    "time": 36.90262350000005,
                    "velocity": 0.36220472440944884,
                    "duration": 0.2654865000000015
                },
                {
                    "name": "E5",
                    "midi": 76,
                    "time": 37.16811000000005,
                    "velocity": 0.41732283464566927,
                    "duration": 0.2654865000000015
                },
                {
                    "name": "D5",
                    "midi": 74,
                    "time": 37.43359650000005,
                    "velocity": 0.4015748031496063,
                    "duration": 0.2654865000000015
                },
                {
                    "name": "B4",
                    "midi": 71,
                    "time": 38.230056000000054,
                    "velocity": 0.44881889763779526,
                    "duration": 0.2654865000000015
                },
                {
                    "name": "A4",
                    "midi": 69,
                    "time": 38.495542500000056,
                    "velocity": 0.41732283464566927,
                    "duration": 0.2654865000000015
                },
                {
                    "name": "F#5",
                    "midi": 78,
                    "time": 38.76102900000006,
                    "velocity": 0.44881889763779526,
                    "duration": 0.2654865000000015
                },
                {
                    "name": "E5",
                    "midi": 76,
                    "time": 39.02651550000006,
                    "velocity": 0.4409448818897638,
                    "duration": 0.2654865000000015
                },
                {
                    "name": "C#5",
                    "midi": 73,
                    "time": 39.82297500000006,
                    "velocity": 0.49606299212598426,
                    "duration": 0.2654865000000015
                },
                {
                    "name": "B4",
                    "midi": 71,
                    "time": 40.088461500000065,
                    "velocity": 0.4645669291338583,
                    "duration": 0.2654865000000015
                },
                {
                    "name": "G5",
                    "midi": 79,
                    "time": 40.35394800000007,
                    "velocity": 0.4881889763779528,
                    "duration": 0.2654865000000015
                },
                {
                    "name": "F#5",
                    "midi": 78,
                    "time": 40.61943450000007,
                    "velocity": 0.4645669291338583,
                    "duration": 0.2654865000000015
                },
                {
                    "name": "F#4",
                    "midi": 66,
                    "time": 41.41589400000007,
                    "velocity": 0.4015748031496063,
                    "duration": 0.530973000000003
                },
                {
                    "name": "E5",
                    "midi": 76,
                    "time": 41.946867000000076,
                    "velocity": 0.41732283464566927,
                    "duration": 0.2654865000000015
                },
                {
                    "name": "D5",
                    "midi": 74,
                    "time": 42.21235350000008,
                    "velocity": 0.4015748031496063,
                    "duration": 0.2654865000000015
                },
                {
                    "name": "C#5",
                    "midi": 73,
                    "time": 42.47784000000008,
                    "velocity": 0.4015748031496063,
                    "duration": 0.2654865000000015
                },
                {
                    "name": "B4",
                    "midi": 71,
                    "time": 42.74332650000008,
                    "velocity": 0.3858267716535433,
                    "duration": 0.2654865000000015
                },
                {
                    "name": "A4",
                    "midi": 69,
                    "time": 43.00881300000008,
                    "velocity": 0.4015748031496063,
                    "duration": 0.2654865000000015
                },
                {
                    "name": "G#4",
                    "midi": 68,
                    "time": 43.27429950000008,
                    "velocity": 0.3779527559055118,
                    "duration": 0.2654865000000015
                },
                {
                    "name": "A4",
                    "midi": 69,
                    "time": 43.539786000000085,
                    "velocity": 0.4015748031496063,
                    "duration": 0.530973000000003
                },
                {
                    "name": "B4",
                    "midi": 71,
                    "time": 44.402617125000084,
                    "velocity": 0.5354330708661418,
                    "duration": 0.06637162500000215
                },
                {
                    "name": "E5",
                    "midi": 76,
                    "time": 44.468988750000086,
                    "velocity": 0.5590551181102362,
                    "duration": 0.06637162500000215
                },
                {
                    "name": "G#5",
                    "midi": 80,
                    "time": 44.53536037500009,
                    "velocity": 0.5826771653543307,
                    "duration": 0.06637162500000215
                },
                {
                    "name": "B5",
                    "midi": 83,
                    "time": 44.60173200000009,
                    "velocity": 0.6062992125984252,
                    "duration": 1.592919000000002
                },
                {
                    "name": "B5",
                    "midi": 83,
                    "time": 46.19465100000009,
                    "velocity": 0.5748031496062992,
                    "duration": 0.1327432499999972
                },
                {
                    "name": "A5",
                    "midi": 81,
                    "time": 46.32739425000009,
                    "velocity": 0.5669291338582677,
                    "duration": 0.1327432499999972
                },
                {
                    "name": "G#5",
                    "midi": 80,
                    "time": 46.46013750000009,
                    "velocity": 0.5590551181102362,
                    "duration": 0.1327432499999972
                },
                {
                    "name": "F#5",
                    "midi": 78,
                    "time": 46.592880750000084,
                    "velocity": 0.5511811023622047,
                    "duration": 0.1327432499999972
                },
                {
                    "name": "F#5",
                    "midi": 78,
                    "time": 46.72562400000008,
                    "velocity": 0.5669291338582677,
                    "duration": 0.12831847500000038
                },
                {
                    "name": "E5",
                    "midi": 76,
                    "time": 46.85836725000008,
                    "velocity": 0.5590551181102362,
                    "duration": 0.1327432499999972
                },
                {
                    "name": "D#5",
                    "midi": 75,
                    "time": 46.991110500000076,
                    "velocity": 0.5433070866141733,
                    "duration": 0.1327432499999972
                },
                {
                    "name": "C#5",
                    "midi": 73,
                    "time": 47.12385375000007,
                    "velocity": 0.5354330708661418,
                    "duration": 0.1327432499999972
                },
                {
                    "name": "B4",
                    "midi": 71,
                    "time": 47.25659700000007,
                    "velocity": 0.5511811023622047,
                    "duration": 0.1327432499999972
                },
                {
                    "name": "A4",
                    "midi": 69,
                    "time": 47.38934025000007,
                    "velocity": 0.5275590551181102,
                    "duration": 0.1327432499999972
                },
                {
                    "name": "G#4",
                    "midi": 68,
                    "time": 47.522083500000065,
                    "velocity": 0.5275590551181102,
                    "duration": 0.1327432499999972
                },
                {
                    "name": "A4",
                    "midi": 69,
                    "time": 47.65482675000006,
                    "velocity": 0.5275590551181102,
                    "duration": 0.1327432499999972
                },
                {
                    "name": "G#4",
                    "midi": 68,
                    "time": 47.78757000000006,
                    "velocity": 0.5275590551181102,
                    "duration": 0.1327432499999972
                },
                {
                    "name": "B4",
                    "midi": 71,
                    "time": 47.920313250000056,
                    "velocity": 0.5433070866141733,
                    "duration": 0.1327432499999972
                },
                {
                    "name": "E5",
                    "midi": 76,
                    "time": 48.053056500000054,
                    "velocity": 0.5511811023622047,
                    "duration": 0.1327432499999972
                },
                {
                    "name": "G#5",
                    "midi": 80,
                    "time": 48.18579975000005,
                    "velocity": 0.5669291338582677,
                    "duration": 0.1327432499999972
                },
                {
                    "name": "B5",
                    "midi": 83,
                    "time": 48.31854300000005,
                    "velocity": 0.5748031496062992,
                    "duration": 1.061945999999999
                },
                {
                    "name": "B5",
                    "midi": 83,
                    "time": 49.38048900000005,
                    "velocity": 0.5748031496062992,
                    "duration": 0.1327432499999972
                },
                {
                    "name": "A5",
                    "midi": 81,
                    "time": 49.513232250000044,
                    "velocity": 0.5669291338582677,
                    "duration": 0.1327432499999972
                },
                {
                    "name": "G#5",
                    "midi": 80,
                    "time": 49.64597550000004,
                    "velocity": 0.5590551181102362,
                    "duration": 0.1327432499999972
                },
                {
                    "name": "F#5",
                    "midi": 78,
                    "time": 49.77871875000004,
                    "velocity": 0.5511811023622047,
                    "duration": 0.12831847500000038
                },
                {
                    "name": "F#5",
                    "midi": 78,
                    "time": 49.911462000000036,
                    "velocity": 0.5669291338582677,
                    "duration": 0.1327432499999972
                },
                {
                    "name": "E5",
                    "midi": 76,
                    "time": 50.04420525000003,
                    "velocity": 0.5590551181102362,
                    "duration": 0.1327432499999972
                },
                {
                    "name": "D#5",
                    "midi": 75,
                    "time": 50.17694850000003,
                    "velocity": 0.5433070866141733,
                    "duration": 0.1327432499999972
                },
                {
                    "name": "C#5",
                    "midi": 73,
                    "time": 50.30969175000003,
                    "velocity": 0.5354330708661418,
                    "duration": 0.1327432499999972
                },
                {
                    "name": "B4",
                    "midi": 71,
                    "time": 50.442435000000025,
                    "velocity": 0.5511811023622047,
                    "duration": 0.1327432499999972
                },
                {
                    "name": "A4",
                    "midi": 69,
                    "time": 50.57517825000002,
                    "velocity": 0.5275590551181102,
                    "duration": 0.1327432499999972
                },
                {
                    "name": "G#4",
                    "midi": 68,
                    "time": 50.70792150000002,
                    "velocity": 0.5275590551181102,
                    "duration": 0.1327432499999972
                },
                {
                    "name": "A4",
                    "midi": 69,
                    "time": 50.840664750000016,
                    "velocity": 0.5275590551181102,
                    "duration": 0.1327432499999972
                },
                {
                    "name": "G#4",
                    "midi": 68,
                    "time": 50.97340800000001,
                    "velocity": 0.5275590551181102,
                    "duration": 0.1327432499999972
                },
                {
                    "name": "B4",
                    "midi": 71,
                    "time": 51.10615125000001,
                    "velocity": 0.5039370078740157,
                    "duration": 0.1327432499999972
                },
                {
                    "name": "A4",
                    "midi": 69,
                    "time": 51.23889450000001,
                    "velocity": 0.5511811023622047,
                    "duration": 0.1327432499999972
                },
                {
                    "name": "G#4",
                    "midi": 68,
                    "time": 51.371637750000005,
                    "velocity": 0.5039370078740157,
                    "duration": 0.1327432500000043
                },
                {
                    "name": "A4",
                    "midi": 69,
                    "time": 51.496637643750006,
                    "velocity": 0.5354330708661418,
                    "duration": 0.1327432500000043
                },
                {
                    "name": "B4",
                    "midi": 71,
                    "time": 51.637124250000014,
                    "velocity": 0.5354330708661418,
                    "duration": 0.1327432499999972
                },
                {
                    "name": "C#5",
                    "midi": 73,
                    "time": 51.76986750000001,
                    "velocity": 0.5433070866141733,
                    "duration": 0.1327432499999972
                },
                {
                    "name": "D#5",
                    "midi": 75,
                    "time": 51.90261075000001,
                    "velocity": 0.5511811023622047,
                    "duration": 0.1327432499999972
                },
                {
                    "name": "E5",
                    "midi": 76,
                    "time": 52.035354000000005,
                    "velocity": 0.5511811023622047,
                    "duration": 0.1327432499999972
                },
                {
                    "name": "F#5",
                    "midi": 78,
                    "time": 52.16809725,
                    "velocity": 0.5590551181102362,
                    "duration": 0.1327432499999972
                },
                {
                    "name": "G#5",
                    "midi": 80,
                    "time": 52.3008405,
                    "velocity": 0.5669291338582677,
                    "duration": 0.1327432499999972
                },
                {
                    "name": "A5",
                    "midi": 81,
                    "time": 52.43358375,
                    "velocity": 0.5669291338582677,
                    "duration": 0.1327432499999972
                },
                {
                    "name": "B5",
                    "midi": 83,
                    "time": 52.566326999999994,
                    "velocity": 0.5748031496062992,
                    "duration": 0.1327432499999972
                },
                {
                    "name": "C#6",
                    "midi": 85,
                    "time": 52.69907024999999,
                    "velocity": 0.5826771653543307,
                    "duration": 0.1327432499999972
                },
                {
                    "name": "D#6",
                    "midi": 87,
                    "time": 52.83181349999999,
                    "velocity": 0.5826771653543307,
                    "duration": 0.1327432499999972
                },
                {
                    "name": "E6",
                    "midi": 88,
                    "time": 52.964556749999986,
                    "velocity": 0.5905511811023622,
                    "duration": 0.1327432499999972
                },
                {
                    "name": "D#6",
                    "midi": 87,
                    "time": 53.09729999999998,
                    "velocity": 0.5669291338582677,
                    "duration": 0.1327432499999972
                },
                {
                    "name": "C#6",
                    "midi": 85,
                    "time": 53.23004324999998,
                    "velocity": 0.5511811023622047,
                    "duration": 0.1327432499999972
                },
                {
                    "name": "B5",
                    "midi": 83,
                    "time": 53.36278649999998,
                    "velocity": 0.5354330708661418,
                    "duration": 0.1327432499999972
                },
                {
                    "name": "A5",
                    "midi": 81,
                    "time": 53.495529749999974,
                    "velocity": 0.5118110236220472,
                    "duration": 0.1327432499999972
                },
                {
                    "name": "G#5",
                    "midi": 80,
                    "time": 53.62827299999997,
                    "velocity": 0.49606299212598426,
                    "duration": 0.1327432499999972
                },
                {
                    "name": "F#5",
                    "midi": 78,
                    "time": 53.76101624999997,
                    "velocity": 0.48031496062992124,
                    "duration": 0.1327432499999972
                },
                {
                    "name": "E5",
                    "midi": 76,
                    "time": 53.893759499999966,
                    "velocity": 0.4645669291338583,
                    "duration": 0.1327432499999972
                },
                {
                    "name": "D#5",
                    "midi": 75,
                    "time": 54.02650274999996,
                    "velocity": 0.44881889763779526,
                    "duration": 0.1327432499999972
                },
                {
                    "name": "C#5",
                    "midi": 73,
                    "time": 54.15924599999996,
                    "velocity": 0.3937007874015748,
                    "duration": 0.2654865000000015
                },
                {
                    "name": "C#6",
                    "midi": 85,
                    "time": 54.55747574999996,
                    "velocity": 0.3937007874015748,
                    "duration": 0.1327432499999972
                },
                {
                    "name": "E5",
                    "midi": 76,
                    "time": 54.690218999999956,
                    "velocity": 0.4251968503937008,
                    "duration": 0.46460137500000087
                },
                {
                    "name": "G#5",
                    "midi": 80,
                    "time": 55.15482037499996,
                    "velocity": 0.3937007874015748,
                    "duration": 0.06637162500000215
                },
                {
                    "name": "D#5",
                    "midi": 75,
                    "time": 55.22119199999996,
                    "velocity": 0.41732283464566927,
                    "duration": 0.530973000000003
                },
                {
                    "name": "F#5",
                    "midi": 78,
                    "time": 55.22119199999996,
                    "velocity": 0.41732283464566927,
                    "duration": 0.530973000000003
                },
                {
                    "name": "E5",
                    "midi": 76,
                    "time": 55.75216499999996,
                    "velocity": 0.4015748031496063,
                    "duration": 0.530973000000003
                },
                {
                    "name": "E4",
                    "midi": 64,
                    "time": 57.27871237499996,
                    "velocity": 0.48031496062992124,
                    "duration": 0.1327432500000043
                },
                {
                    "name": "E5",
                    "midi": 76,
                    "time": 57.345083999999964,
                    "velocity": 0.5826771653543307,
                    "duration": 0.46460137500000087
                },
                {
                    "name": "F#4",
                    "midi": 66,
                    "time": 57.809685374999965,
                    "velocity": 0.48031496062992124,
                    "duration": 0.1327432500000043
                },
                {
                    "name": "F#5",
                    "midi": 78,
                    "time": 57.87605699999997,
                    "velocity": 0.5511811023622047,
                    "duration": 0.46460137500000087
                },
                {
                    "name": "G4",
                    "midi": 67,
                    "time": 58.34065837499997,
                    "velocity": 0.48031496062992124,
                    "duration": 0.1327432500000043
                },
                {
                    "name": "G5",
                    "midi": 79,
                    "time": 58.40702999999997,
                    "velocity": 0.5511811023622047,
                    "duration": 0.530973000000003
                },
                {
                    "name": "B4",
                    "midi": 71,
                    "time": 58.93800299999997,
                    "velocity": 0.4409448818897638,
                    "duration": 0.530973000000003
                },
                {
                    "name": "A#4",
                    "midi": 70,
                    "time": 59.46897599999998,
                    "velocity": 0.4094488188976378,
                    "duration": 0.530973000000003
                },
                {
                    "name": "A#4",
                    "midi": 70,
                    "time": 60.39817874999998,
                    "velocity": 0.4015748031496063,
                    "duration": 0.1327432499999972
                },
                {
                    "name": "C#5",
                    "midi": 73,
                    "time": 60.530921999999975,
                    "velocity": 0.44881889763779526,
                    "duration": 0.530973000000003
                },
                {
                    "name": "B4",
                    "midi": 71,
                    "time": 61.06189499999998,
                    "velocity": 0.4409448818897638,
                    "duration": 0.530973000000003
                },
                {
                    "name": "B4",
                    "midi": 71,
                    "time": 61.99109774999998,
                    "velocity": 0.49606299212598426,
                    "duration": 0.1327432499999972
                },
                {
                    "name": "D5",
                    "midi": 74,
                    "time": 62.12384099999998,
                    "velocity": 0.5196850393700787,
                    "duration": 0.530973000000003
                },
                {
                    "name": "C#5",
                    "midi": 73,
                    "time": 62.65481399999998,
                    "velocity": 0.47244094488188976,
                    "duration": 0.530973000000003
                },
                {
                    "name": "C#5",
                    "midi": 73,
                    "time": 63.58401674999998,
                    "velocity": 0.5354330708661418,
                    "duration": 0.1327432499999972
                },
                {
                    "name": "E5",
                    "midi": 76,
                    "time": 63.71675999999998,
                    "velocity": 0.5669291338582677,
                    "duration": 0.2654865000000015
                },
                {
                    "name": "D5",
                    "midi": 74,
                    "time": 63.98224649999998,
                    "velocity": 0.5354330708661418,
                    "duration": 0.2654865000000015
                },
                {
                    "name": "F5",
                    "midi": 77,
                    "time": 64.24773299999998,
                    "velocity": 0.5669291338582677,
                    "duration": 0.2654864999999944
                },
                {
                    "name": "E5",
                    "midi": 76,
                    "time": 64.51321949999998,
                    "velocity": 0.5275590551181102,
                    "duration": 0.2654864999999944
                },
                {
                    "name": "G5",
                    "midi": 79,
                    "time": 64.77870599999997,
                    "velocity": 0.5511811023622047,
                    "duration": 0.2654864999999944
                },
                {
                    "name": "F5",
                    "midi": 77,
                    "time": 65.04419249999997,
                    "velocity": 0.5196850393700787,
                    "duration": 0.2654864999999944
                },
                {
                    "name": "A4",
                    "midi": 69,
                    "time": 65.30967899999996,
                    "velocity": 0.4409448818897638,
                    "duration": 0.530973000000003
                },
                {
                    "name": "G#4",
                    "midi": 68,
                    "time": 65.84065199999996,
                    "velocity": 0.4094488188976378,
                    "duration": 0.530973000000003
                },
                {
                    "name": "G#4",
                    "midi": 68,
                    "time": 66.76985474999996,
                    "velocity": 0.4015748031496063,
                    "duration": 0.1327432500000043
                },
                {
                    "name": "B4",
                    "midi": 71,
                    "time": 66.90259799999997,
                    "velocity": 0.44881889763779526,
                    "duration": 0.530973000000003
                },
                {
                    "name": "A4",
                    "midi": 69,
                    "time": 67.43357099999997,
                    "velocity": 0.4409448818897638,
                    "duration": 0.530973000000003
                },
                {
                    "name": "A4",
                    "midi": 69,
                    "time": 68.36277374999997,
                    "velocity": 0.49606299212598426,
                    "duration": 0.1327432500000043
                },
                {
                    "name": "C5",
                    "midi": 72,
                    "time": 68.49551699999998,
                    "velocity": 0.5196850393700787,
                    "duration": 0.530973000000003
                },
                {
                    "name": "B4",
                    "midi": 71,
                    "time": 69.02648999999998,
                    "velocity": 0.47244094488188976,
                    "duration": 0.530973000000003
                },
                {
                    "name": "B4",
                    "midi": 71,
                    "time": 69.95569274999998,
                    "velocity": 0.5354330708661418,
                    "duration": 0.1327432500000043
                },
                {
                    "name": "D5",
                    "midi": 74,
                    "time": 70.08843599999999,
                    "velocity": 0.5669291338582677,
                    "duration": 0.2654864999999944
                },
                {
                    "name": "C5",
                    "midi": 72,
                    "time": 70.35392249999998,
                    "velocity": 0.5354330708661418,
                    "duration": 0.2654864999999944
                },
                {
                    "name": "B4",
                    "midi": 71,
                    "time": 70.61940899999998,
                    "velocity": 0.5669291338582677,
                    "duration": 0.2654864999999944
                },
                {
                    "name": "A4",
                    "midi": 69,
                    "time": 70.88489549999997,
                    "velocity": 0.5275590551181102,
                    "duration": 0.2654864999999944
                },
                {
                    "name": "A5",
                    "midi": 81,
                    "time": 71.15038199999996,
                    "velocity": 0.5748031496062992,
                    "duration": 0.19911487500000646
                },
                {
                    "name": "A5",
                    "midi": 81,
                    "time": 71.41586849999997,
                    "velocity": 0.5511811023622047,
                    "duration": 0.19911487500000646
                },
                {
                    "name": "B5",
                    "midi": 83,
                    "time": 71.68135499999998,
                    "velocity": 0.6141732283464567,
                    "duration": 0.2654864999999944
                },
                {
                    "name": "A5",
                    "midi": 81,
                    "time": 71.94684149999998,
                    "velocity": 0.6141732283464567,
                    "duration": 0.2654864999999944
                },
                {
                    "name": "G5",
                    "midi": 79,
                    "time": 72.21232799999997,
                    "velocity": 0.6062992125984252,
                    "duration": 0.2654864999999944
                },
                {
                    "name": "F5",
                    "midi": 77,
                    "time": 72.47781449999997,
                    "velocity": 0.5905511811023622,
                    "duration": 0.2654864999999944
                },
                {
                    "name": "E5",
                    "midi": 76,
                    "time": 72.74330099999996,
                    "velocity": 0.6220472440944882,
                    "duration": 0.2654864999999944
                },
                {
                    "name": "D#5",
                    "midi": 75,
                    "time": 73.00878749999995,
                    "velocity": 0.5905511811023622,
                    "duration": 0.2654864999999944
                },
                {
                    "name": "C6",
                    "midi": 84,
                    "time": 73.27427399999995,
                    "velocity": 0.6377952755905512,
                    "duration": 1.061946000000006
                },
                {
                    "name": "D#5",
                    "midi": 75,
                    "time": 74.33621999999995,
                    "velocity": 0.4330708661417323,
                    "duration": 0.530973000000003
                },
                {
                    "name": "E5",
                    "midi": 76,
                    "time": 74.86719299999996,
                    "velocity": 0.4330708661417323,
                    "duration": 0.7964594999999974
                },
                {
                    "name": "F#5",
                    "midi": 78,
                    "time": 75.66365249999996,
                    "velocity": 0.44881889763779526,
                    "duration": 0.1327432500000043
                },
                {
                    "name": "E5",
                    "midi": 76,
                    "time": 75.79639574999996,
                    "velocity": 0.36220472440944884,
                    "duration": 0.09955743749999613
                },
                {
                    "name": "E5",
                    "midi": 76,
                    "time": 75.92913899999995,
                    "velocity": 0.4330708661417323,
                    "duration": 0.1327432500000043
                },
                {
                    "name": "D5",
                    "midi": 74,
                    "time": 76.06188224999995,
                    "velocity": 0.41732283464566927,
                    "duration": 0.1327432500000043
                },
                {
                    "name": "C#5",
                    "midi": 73,
                    "time": 76.19462549999996,
                    "velocity": 0.4094488188976378,
                    "duration": 0.1327432500000043
                },
                {
                    "name": "B4",
                    "midi": 71,
                    "time": 76.32736874999996,
                    "velocity": 0.4015748031496063,
                    "duration": 0.1327432500000043
                },
                {
                    "name": "C#4",
                    "midi": 61,
                    "time": 76.46011199999997,
                    "velocity": 0.5039370078740157,
                    "duration": 0.06637162500000215
                },
                {
                    "name": "E4",
                    "midi": 64,
                    "time": 76.52648362499997,
                    "velocity": 0.5039370078740157,
                    "duration": 0.06637162500000215
                },
                {
                    "name": "A4",
                    "midi": 69,
                    "time": 76.59285524999997,
                    "velocity": 0.5984251968503937,
                    "duration": 0.9292027500000017
                },
                {
                    "name": "E4",
                    "midi": 64,
                    "time": 77.52205799999997,
                    "velocity": 0.5511811023622047,
                    "duration": 0.530973000000003
                },
                {
                    "name": "C#5",
                    "midi": 73,
                    "time": 78.05303099999998,
                    "velocity": 0.5669291338582677,
                    "duration": 0.2654864999999944
                },
                {
                    "name": "D5",
                    "midi": 74,
                    "time": 78.31851749999997,
                    "velocity": 0.5826771653543307,
                    "duration": 0.1327432500000043
                },
                {
                    "name": "B4",
                    "midi": 71,
                    "time": 78.45126074999997,
                    "velocity": 0.5511811023622047,
                    "duration": 0.1327432500000043
                },
                {
                    "name": "A4",
                    "midi": 69,
                    "time": 78.58400399999998,
                    "velocity": 0.5511811023622047,
                    "duration": 0.2654864999999944
                },
                {
                    "name": "C#5",
                    "midi": 73,
                    "time": 79.64594999999997,
                    "velocity": 0.3937007874015748,
                    "duration": 0.2654864999999944
                },
                {
                    "name": "D5",
                    "midi": 74,
                    "time": 79.91143649999997,
                    "velocity": 0.4094488188976378,
                    "duration": 0.1327432500000043
                },
                {
                    "name": "B4",
                    "midi": 71,
                    "time": 80.04417974999997,
                    "velocity": 0.36220472440944884,
                    "duration": 0.1327432500000043
                },
                {
                    "name": "A4",
                    "midi": 69,
                    "time": 80.17692299999997,
                    "velocity": 0.3858267716535433,
                    "duration": 0.530973000000003
                },
                {
                    "name": "C#6",
                    "midi": 85,
                    "time": 80.70789599999998,
                    "velocity": 0.44881889763779526,
                    "duration": 0.2654864999999944
                },
                {
                    "name": "D#5",
                    "midi": 75,
                    "time": 81.23886899999997,
                    "velocity": 0.3937007874015748,
                    "duration": 0.530973000000003
                },
                {
                    "name": "E5",
                    "midi": 76,
                    "time": 81.76984199999997,
                    "velocity": 0.4094488188976378,
                    "duration": 0.7964594999999974
                },
                {
                    "name": "F5",
                    "midi": 77,
                    "time": 82.56630149999997,
                    "velocity": 0.4015748031496063,
                    "duration": 0.24336262500000316
                },
                {
                    "name": "G#5",
                    "midi": 80,
                    "time": 82.83178799999997,
                    "velocity": 0.44881889763779526,
                    "duration": 0.2654864999999944
                },
                {
                    "name": "F#5",
                    "midi": 78,
                    "time": 83.09727449999997,
                    "velocity": 0.4409448818897638,
                    "duration": 0.2654864999999944
                },
                {
                    "name": "E5",
                    "midi": 76,
                    "time": 83.36276099999996,
                    "velocity": 0.4251968503937008,
                    "duration": 0.2654864999999944
                },
                {
                    "name": "D5",
                    "midi": 74,
                    "time": 83.62824749999996,
                    "velocity": 0.41732283464566927,
                    "duration": 0.2654864999999944
                },
                {
                    "name": "C#5",
                    "midi": 73,
                    "time": 83.89373399999995,
                    "velocity": 0.4094488188976378,
                    "duration": 0.2654864999999944
                },
                {
                    "name": "B4",
                    "midi": 71,
                    "time": 84.15922049999995,
                    "velocity": 0.4015748031496063,
                    "duration": 0.2654864999999944
                },
                {
                    "name": "A4",
                    "midi": 69,
                    "time": 84.42470699999994,
                    "velocity": 0.4015748031496063,
                    "duration": 0.2654864999999944
                },
                {
                    "name": "G#4",
                    "midi": 68,
                    "time": 84.69019349999994,
                    "velocity": 0.36220472440944884,
                    "duration": 0.2654864999999944
                },
                {
                    "name": "E5",
                    "midi": 76,
                    "time": 84.95567999999993,
                    "velocity": 0.41732283464566927,
                    "duration": 0.2654864999999944
                },
                {
                    "name": "D5",
                    "midi": 74,
                    "time": 85.22116649999992,
                    "velocity": 0.4015748031496063,
                    "duration": 0.2654864999999944
                },
                {
                    "name": "B4",
                    "midi": 71,
                    "time": 86.01762599999992,
                    "velocity": 0.44881889763779526,
                    "duration": 0.2654864999999944
                },
                {
                    "name": "A4",
                    "midi": 69,
                    "time": 86.28311249999992,
                    "velocity": 0.41732283464566927,
                    "duration": 0.2654864999999944
                },
                {
                    "name": "F#5",
                    "midi": 78,
                    "time": 86.54859899999991,
                    "velocity": 0.44881889763779526,
                    "duration": 0.2654864999999944
                },
                {
                    "name": "E5",
                    "midi": 76,
                    "time": 86.8140854999999,
                    "velocity": 0.4409448818897638,
                    "duration": 0.2654864999999944
                },
                {
                    "name": "B4",
                    "midi": 71,
                    "time": 87.6105449999999,
                    "velocity": 0.49606299212598426,
                    "duration": 0.2654864999999944
                },
                {
                    "name": "A4",
                    "midi": 69,
                    "time": 87.8760314999999,
                    "velocity": 0.4645669291338583,
                    "duration": 0.2654864999999944
                },
                {
                    "name": "A5",
                    "midi": 81,
                    "time": 88.14151799999989,
                    "velocity": 0.4881889763779528,
                    "duration": 0.2654864999999944
                },
                {
                    "name": "G5",
                    "midi": 79,
                    "time": 88.40700449999989,
                    "velocity": 0.4645669291338583,
                    "duration": 0.2654864999999944
                },
                {
                    "name": "G5",
                    "midi": 79,
                    "time": 89.20346399999988,
                    "velocity": 0.4330708661417323,
                    "duration": 0.2654864999999944
                },
                {
                    "name": "F#5",
                    "midi": 78,
                    "time": 89.46895049999988,
                    "velocity": 0.4094488188976378,
                    "duration": 0.2654864999999944
                },
                {
                    "name": "E5",
                    "midi": 76,
                    "time": 89.73443699999987,
                    "velocity": 0.4015748031496063,
                    "duration": 0.2654864999999944
                },
                {
                    "name": "D5",
                    "midi": 74,
                    "time": 89.99992349999987,
                    "velocity": 0.3937007874015748,
                    "duration": 0.2654864999999944
                },
                {
                    "name": "C#5",
                    "midi": 73,
                    "time": 90.26540999999986,
                    "velocity": 0.3858267716535433,
                    "duration": 0.2654864999999944
                },
                {
                    "name": "B4",
                    "midi": 71,
                    "time": 90.53089649999986,
                    "velocity": 0.3700787401574803,
                    "duration": 0.2654864999999944
                },
                {
                    "name": "E5",
                    "midi": 76,
                    "time": 90.79638299999985,
                    "velocity": 0.3858267716535433,
                    "duration": 0.1327432500000043
                },
                {
                    "name": "F#5",
                    "midi": 78,
                    "time": 90.92912624999985,
                    "velocity": 0.3543307086614173,
                    "duration": 0.0442477499999967
                },
                {
                    "name": "E5",
                    "midi": 76,
                    "time": 90.97337399999985,
                    "velocity": 0.3543307086614173,
                    "duration": 0.0442477499999967
                },
                {
                    "name": "D5",
                    "midi": 74,
                    "time": 91.01762174999985,
                    "velocity": 0.3543307086614173,
                    "duration": 0.0442477499999967
                },
                {
                    "name": "E5",
                    "midi": 76,
                    "time": 91.06186949999984,
                    "velocity": 0.4015748031496063,
                    "duration": 0.1327432500000043
                },
                {
                    "name": "F#5",
                    "midi": 78,
                    "time": 91.19461274999985,
                    "velocity": 0.4094488188976378,
                    "duration": 0.1327432500000043
                },
                {
                    "name": "A4",
                    "midi": 69,
                    "time": 91.32735599999985,
                    "velocity": 0.4015748031496063,
                    "duration": 0.530973000000003
                },
                {
                    "name": "G#4",
                    "midi": 68,
                    "time": 91.85832899999986,
                    "velocity": 0.3779527559055118,
                    "duration": 0.530973000000003
                },
                {
                    "name": "A4",
                    "midi": 69,
                    "time": 92.25655874999985,
                    "velocity": 0.5196850393700787,
                    "duration": 0.06637162500000215
                },
                {
                    "name": "C#5",
                    "midi": 73,
                    "time": 92.32293037499986,
                    "velocity": 0.5275590551181102,
                    "duration": 0.06637162500000215
                },
                {
                    "name": "E5",
                    "midi": 76,
                    "time": 92.38930199999986,
                    "velocity": 0.5275590551181102,
                    "duration": 0.530973000000003
                },
                {
                    "name": "E5",
                    "midi": 76,
                    "time": 92.92027499999986,
                    "velocity": 0.5433070866141733,
                    "duration": 1.061946000000006
                },
                {
                    "name": "E5",
                    "midi": 76,
                    "time": 93.98222099999987,
                    "velocity": 0.5118110236220472,
                    "duration": 0.1327432500000043
                },
                {
                    "name": "D5",
                    "midi": 74,
                    "time": 94.11496424999987,
                    "velocity": 0.5039370078740157,
                    "duration": 0.1327432500000043
                },
                {
                    "name": "C#5",
                    "midi": 73,
                    "time": 94.24770749999988,
                    "velocity": 0.49606299212598426,
                    "duration": 0.1327432500000043
                },
                {
                    "name": "B4",
                    "midi": 71,
                    "time": 94.38045074999988,
                    "velocity": 0.49606299212598426,
                    "duration": 0.12057511874999705
                },
                {
                    "name": "B4",
                    "midi": 71,
                    "time": 94.51319399999987,
                    "velocity": 0.5039370078740157,
                    "duration": 0.1327432500000043
                },
                {
                    "name": "A4",
                    "midi": 69,
                    "time": 94.64593724999988,
                    "velocity": 0.49606299212598426,
                    "duration": 0.1327432500000043
                },
                {
                    "name": "G#4",
                    "midi": 68,
                    "time": 94.77868049999988,
                    "velocity": 0.4881889763779528,
                    "duration": 0.1327432500000043
                },
                {
                    "name": "F#4",
                    "midi": 66,
                    "time": 94.91142374999988,
                    "velocity": 0.48031496062992124,
                    "duration": 0.1327432500000043
                },
                {
                    "name": "E4",
                    "midi": 64,
                    "time": 95.04416699999989,
                    "velocity": 0.49606299212598426,
                    "duration": 0.1327432500000043
                },
                {
                    "name": "D4",
                    "midi": 62,
                    "time": 95.17691024999989,
                    "velocity": 0.47244094488188976,
                    "duration": 0.1327432500000043
                },
                {
                    "name": "C#4",
                    "midi": 61,
                    "time": 95.3096534999999,
                    "velocity": 0.47244094488188976,
                    "duration": 0.1327432500000043
                },
                {
                    "name": "D4",
                    "midi": 62,
                    "time": 95.4423967499999,
                    "velocity": 0.47244094488188976,
                    "duration": 0.1327432500000043
                },
                {
                    "name": "C#4",
                    "midi": 61,
                    "time": 95.5751399999999,
                    "velocity": 0.47244094488188976,
                    "duration": 0.1327432500000043
                },
                {
                    "name": "E4",
                    "midi": 64,
                    "time": 95.70788324999991,
                    "velocity": 0.4881889763779528,
                    "duration": 0.1327432500000043
                },
                {
                    "name": "A4",
                    "midi": 69,
                    "time": 95.84062649999991,
                    "velocity": 0.49606299212598426,
                    "duration": 0.1327432500000043
                },
                {
                    "name": "C#5",
                    "midi": 73,
                    "time": 95.97336974999992,
                    "velocity": 0.5039370078740157,
                    "duration": 0.1327432500000043
                },
                {
                    "name": "E5",
                    "midi": 76,
                    "time": 96.10611299999992,
                    "velocity": 0.5118110236220472,
                    "duration": 0.7964594999999974
                },
                {
                    "name": "E6",
                    "midi": 88,
                    "time": 96.90257249999992,
                    "velocity": 0.5118110236220472,
                    "duration": 0.2610617250000047
                },
                {
                    "name": "E6",
                    "midi": 88,
                    "time": 97.16805899999993,
                    "velocity": 0.5511811023622047,
                    "duration": 0.1327432500000043
                },
                {
                    "name": "D6",
                    "midi": 86,
                    "time": 97.30080224999993,
                    "velocity": 0.5511811023622047,
                    "duration": 0.1327432500000043
                },
                {
                    "name": "C#6",
                    "midi": 85,
                    "time": 97.43354549999994,
                    "velocity": 0.5433070866141733,
                    "duration": 0.1327432500000043
                },
                {
                    "name": "B5",
                    "midi": 83,
                    "time": 97.56628874999994,
                    "velocity": 0.5433070866141733,
                    "duration": 0.12721228124999584
                },
                {
                    "name": "B5",
                    "midi": 83,
                    "time": 97.69903199999993,
                    "velocity": 0.5354330708661418,
                    "duration": 0.1327432500000043
                },
                {
                    "name": "A5",
                    "midi": 81,
                    "time": 97.83177524999994,
                    "velocity": 0.5275590551181102,
                    "duration": 0.1327432500000043
                },
                {
                    "name": "G#5",
                    "midi": 80,
                    "time": 97.96451849999994,
                    "velocity": 0.5275590551181102,
                    "duration": 0.1327432500000043
                },
                {
                    "name": "F#5",
                    "midi": 78,
                    "time": 98.09726174999994,
                    "velocity": 0.5196850393700787,
                    "duration": 0.1327432500000043
                },
                {
                    "name": "E5",
                    "midi": 76,
                    "time": 98.23000499999995,
                    "velocity": 0.5196850393700787,
                    "duration": 0.1327432500000043
                },
                {
                    "name": "D5",
                    "midi": 74,
                    "time": 98.36274824999995,
                    "velocity": 0.5118110236220472,
                    "duration": 0.1327432500000043
                },
                {
                    "name": "C#5",
                    "midi": 73,
                    "time": 98.49549149999996,
                    "velocity": 0.5118110236220472,
                    "duration": 0.1327432500000043
                },
                {
                    "name": "D5",
                    "midi": 74,
                    "time": 98.62823474999996,
                    "velocity": 0.5039370078740157,
                    "duration": 0.1327432500000043
                },
                {
                    "name": "C#5",
                    "midi": 73,
                    "time": 98.76097799999997,
                    "velocity": 0.49606299212598426,
                    "duration": 0.1327432500000043
                },
                {
                    "name": "E5",
                    "midi": 76,
                    "time": 98.89372124999997,
                    "velocity": 0.5039370078740157,
                    "duration": 0.1327432500000043
                },
                {
                    "name": "D5",
                    "midi": 74,
                    "time": 99.02646449999997,
                    "velocity": 0.47244094488188976,
                    "duration": 0.1327432500000043
                },
                {
                    "name": "C#5",
                    "midi": 73,
                    "time": 99.15920774999998,
                    "velocity": 0.48031496062992124,
                    "duration": 0.1327432500000043
                },
                {
                    "name": "D5",
                    "midi": 74,
                    "time": 99.29195099999998,
                    "velocity": 0.4881889763779528,
                    "duration": 0.1327432500000043
                },
                {
                    "name": "E5",
                    "midi": 76,
                    "time": 99.42469424999999,
                    "velocity": 0.49606299212598426,
                    "duration": 0.1327432500000043
                },
                {
                    "name": "F#5",
                    "midi": 78,
                    "time": 99.55743749999999,
                    "velocity": 0.5039370078740157,
                    "duration": 0.1327432500000043
                },
                {
                    "name": "G#5",
                    "midi": 80,
                    "time": 99.69018075,
                    "velocity": 0.5196850393700787,
                    "duration": 0.1327432500000043
                },
                {
                    "name": "A5",
                    "midi": 81,
                    "time": 99.822924,
                    "velocity": 0.5275590551181102,
                    "duration": 0.1327432500000043
                },
                {
                    "name": "B5",
                    "midi": 83,
                    "time": 99.95566725,
                    "velocity": 0.5354330708661418,
                    "duration": 0.1327432500000043
                },
                {
                    "name": "C#6",
                    "midi": 85,
                    "time": 100.08841050000001,
                    "velocity": 0.5511811023622047,
                    "duration": 0.1327432500000043
                },
                {
                    "name": "D6",
                    "midi": 86,
                    "time": 100.22115375000001,
                    "velocity": 0.5590551181102362,
                    "duration": 0.1327432500000043
                },
                {
                    "name": "E6",
                    "midi": 88,
                    "time": 100.35389700000002,
                    "velocity": 0.5669291338582677,
                    "duration": 0.1327432500000043
                },
                {
                    "name": "D6",
                    "midi": 86,
                    "time": 100.48664025000002,
                    "velocity": 0.5590551181102362,
                    "duration": 0.1327432500000043
                },
                {
                    "name": "C#6",
                    "midi": 85,
                    "time": 100.61938350000003,
                    "velocity": 0.5433070866141733,
                    "duration": 0.1327432500000043
                },
                {
                    "name": "B5",
                    "midi": 83,
                    "time": 100.75212675000003,
                    "velocity": 0.5354330708661418,
                    "duration": 0.1327432500000043
                },
                {
                    "name": "A5",
                    "midi": 81,
                    "time": 100.88487000000003,
                    "velocity": 0.5196850393700787,
                    "duration": 0.1327432500000043
                },
                {
                    "name": "G#5",
                    "midi": 80,
                    "time": 101.01761325000004,
                    "velocity": 0.5118110236220472,
                    "duration": 0.1327432500000043
                },
                {
                    "name": "F#5",
                    "midi": 78,
                    "time": 101.15035650000004,
                    "velocity": 0.49606299212598426,
                    "duration": 0.1327432500000043
                },
                {
                    "name": "E5",
                    "midi": 76,
                    "time": 101.28309975000005,
                    "velocity": 0.4881889763779528,
                    "duration": 0.1327432500000043
                },
                {
                    "name": "D5",
                    "midi": 74,
                    "time": 101.41584300000005,
                    "velocity": 0.47244094488188976,
                    "duration": 0.1327432500000043
                },
                {
                    "name": "C#5",
                    "midi": 73,
                    "time": 101.54858625000006,
                    "velocity": 0.4645669291338583,
                    "duration": 0.1327432500000043
                },
                {
                    "name": "B4",
                    "midi": 71,
                    "time": 101.68132950000006,
                    "velocity": 0.44881889763779526,
                    "duration": 0.1327432500000043
                },
                {
                    "name": "A4",
                    "midi": 69,
                    "time": 101.81407275000007,
                    "velocity": 0.4409448818897638,
                    "duration": 0.1327432500000043
                },
                {
                    "name": "F#5",
                    "midi": 78,
                    "time": 101.94681600000007,
                    "velocity": 0.4645669291338583,
                    "duration": 0.0884954999999934
                },
                {
                    "name": "G#5",
                    "midi": 80,
                    "time": 102.03531150000006,
                    "velocity": 0.4330708661417323,
                    "duration": 0.0884954999999934
                },
                {
                    "name": "F#5",
                    "midi": 78,
                    "time": 102.12380700000006,
                    "velocity": 0.4645669291338583,
                    "duration": 0.0884954999999934
                },
                {
                    "name": "F5",
                    "midi": 77,
                    "time": 102.21230250000005,
                    "velocity": 0.4645669291338583,
                    "duration": 0.06637162500000215
                },
                {
                    "name": "F#5",
                    "midi": 78,
                    "time": 102.27867412500005,
                    "velocity": 0.4330708661417323,
                    "duration": 0.06637162500000215
                },
                {
                    "name": "G#5",
                    "midi": 80,
                    "time": 102.34504575000005,
                    "velocity": 0.4330708661417323,
                    "duration": 0.06637162500000215
                },
                {
                    "name": "A5",
                    "midi": 81,
                    "time": 102.41141737500006,
                    "velocity": 0.4330708661417323,
                    "duration": 0.06637162500000215
                },
                {
                    "name": "A4",
                    "midi": 69,
                    "time": 102.47778900000006,
                    "velocity": 0.4645669291338583,
                    "duration": 0.46460137500000087
                },
                {
                    "name": "C#5",
                    "midi": 73,
                    "time": 102.94239037500006,
                    "velocity": 0.3937007874015748,
                    "duration": 0.06637162500000215
                },
                {
                    "name": "G#4",
                    "midi": 68,
                    "time": 103.00876200000006,
                    "velocity": 0.41732283464566927,
                    "duration": 0.530973000000003
                },
                {
                    "name": "B4",
                    "midi": 71,
                    "time": 103.00876200000006,
                    "velocity": 0.41732283464566927,
                    "duration": 0.530973000000003
                },
                {
                    "name": "A4",
                    "midi": 69,
                    "time": 103.53973500000006,
                    "velocity": 0.4015748031496063,
                    "duration": 0.530973000000003
                },
                {
                    "name": "E4",
                    "midi": 64,
                    "time": 105.06628237500007,
                    "velocity": 0.48031496062992124,
                    "duration": 0.1327432500000043
                },
                {
                    "name": "E5",
                    "midi": 76,
                    "time": 105.13265400000007,
                    "velocity": 0.5826771653543307,
                    "duration": 0.46460137500000087
                },
                {
                    "name": "F#4",
                    "midi": 66,
                    "time": 105.59725537500007,
                    "velocity": 0.48031496062992124,
                    "duration": 0.1327432500000043
                },
                {
                    "name": "F#5",
                    "midi": 78,
                    "time": 105.66362700000008,
                    "velocity": 0.5511811023622047,
                    "duration": 0.46460137500000087
                },
                {
                    "name": "G4",
                    "midi": 67,
                    "time": 106.12822837500008,
                    "velocity": 0.48031496062992124,
                    "duration": 0.1327432500000043
                },
                {
                    "name": "G5",
                    "midi": 79,
                    "time": 106.19460000000008,
                    "velocity": 0.5511811023622047,
                    "duration": 0.530973000000003
                },
                {
                    "name": "B4",
                    "midi": 71,
                    "time": 106.72557300000008,
                    "velocity": 0.4409448818897638,
                    "duration": 0.530973000000003
                },
                {
                    "name": "A#4",
                    "midi": 70,
                    "time": 107.25654600000009,
                    "velocity": 0.4094488188976378,
                    "duration": 0.530973000000003
                },
                {
                    "name": "A#4",
                    "midi": 70,
                    "time": 108.18574875000009,
                    "velocity": 0.4015748031496063,
                    "duration": 0.1327432500000043
                },
                {
                    "name": "C#5",
                    "midi": 73,
                    "time": 108.31849200000009,
                    "velocity": 0.44881889763779526,
                    "duration": 0.530973000000003
                },
                {
                    "name": "B4",
                    "midi": 71,
                    "time": 108.8494650000001,
                    "velocity": 0.4409448818897638,
                    "duration": 0.530973000000003
                },
                {
                    "name": "B4",
                    "midi": 71,
                    "time": 109.7786677500001,
                    "velocity": 0.49606299212598426,
                    "duration": 0.1327432500000043
                },
                {
                    "name": "D5",
                    "midi": 74,
                    "time": 109.9114110000001,
                    "velocity": 0.5196850393700787,
                    "duration": 0.530973000000003
                },
                {
                    "name": "C#5",
                    "midi": 73,
                    "time": 110.4423840000001,
                    "velocity": 0.47244094488188976,
                    "duration": 0.530973000000003
                },
                {
                    "name": "C#5",
                    "midi": 73,
                    "time": 111.3715867500001,
                    "velocity": 0.5354330708661418,
                    "duration": 0.1327432500000043
                },
                {
                    "name": "E5",
                    "midi": 76,
                    "time": 111.50433000000011,
                    "velocity": 0.5669291338582677,
                    "duration": 0.2654864999999944
                },
                {
                    "name": "D5",
                    "midi": 74,
                    "time": 111.7698165000001,
                    "velocity": 0.5354330708661418,
                    "duration": 0.2654864999999944
                },
                {
                    "name": "F5",
                    "midi": 77,
                    "time": 112.0353030000001,
                    "velocity": 0.5669291338582677,
                    "duration": 0.2654864999999944
                },
                {
                    "name": "E5",
                    "midi": 76,
                    "time": 112.30078950000009,
                    "velocity": 0.5275590551181102,
                    "duration": 0.2654864999999944
                },
                {
                    "name": "G5",
                    "midi": 79,
                    "time": 112.56627600000009,
                    "velocity": 0.5511811023622047,
                    "duration": 0.2654864999999944
                },
                {
                    "name": "F5",
                    "midi": 77,
                    "time": 112.83176250000008,
                    "velocity": 0.5196850393700787,
                    "duration": 0.2654864999999944
                },
                {
                    "name": "A4",
                    "midi": 69,
                    "time": 113.09724900000008,
                    "velocity": 0.4409448818897638,
                    "duration": 0.530973000000003
                },
                {
                    "name": "G#4",
                    "midi": 68,
                    "time": 113.62822200000008,
                    "velocity": 0.4094488188976378,
                    "duration": 0.530973000000003
                },
                {
                    "name": "G#4",
                    "midi": 68,
                    "time": 114.55742475000008,
                    "velocity": 0.4015748031496063,
                    "duration": 0.1327432500000043
                },
                {
                    "name": "B4",
                    "midi": 71,
                    "time": 114.69016800000009,
                    "velocity": 0.44881889763779526,
                    "duration": 0.530973000000003
                },
                {
                    "name": "A4",
                    "midi": 69,
                    "time": 115.22114100000009,
                    "velocity": 0.4409448818897638,
                    "duration": 0.530973000000003
                },
                {
                    "name": "A4",
                    "midi": 69,
                    "time": 116.15034375000009,
                    "velocity": 0.49606299212598426,
                    "duration": 0.1327432500000043
                },
                {
                    "name": "C5",
                    "midi": 72,
                    "time": 116.2830870000001,
                    "velocity": 0.5196850393700787,
                    "duration": 0.530973000000003
                },
                {
                    "name": "B4",
                    "midi": 71,
                    "time": 116.8140600000001,
                    "velocity": 0.47244094488188976,
                    "duration": 0.530973000000003
                },
                {
                    "name": "B4",
                    "midi": 71,
                    "time": 117.7432627500001,
                    "velocity": 0.5354330708661418,
                    "duration": 0.1327432500000043
                },
                {
                    "name": "D5",
                    "midi": 74,
                    "time": 117.8760060000001,
                    "velocity": 0.5669291338582677,
                    "duration": 0.2654864999999944
                },
                {
                    "name": "C5",
                    "midi": 72,
                    "time": 118.1414925000001,
                    "velocity": 0.5354330708661418,
                    "duration": 0.2654864999999944
                },
                {
                    "name": "B4",
                    "midi": 71,
                    "time": 118.40697900000009,
                    "velocity": 0.5669291338582677,
                    "duration": 0.2654864999999944
                },
                {
                    "name": "A4",
                    "midi": 69,
                    "time": 118.67246550000009,
                    "velocity": 0.5275590551181102,
                    "duration": 0.2654864999999944
                },
                {
                    "name": "A5",
                    "midi": 81,
                    "time": 118.93795200000008,
                    "velocity": 0.5748031496062992,
                    "duration": 0.19911487500000646
                },
                {
                    "name": "A5",
                    "midi": 81,
                    "time": 119.20343850000009,
                    "velocity": 0.5511811023622047,
                    "duration": 0.19911487500000646
                },
                {
                    "name": "B5",
                    "midi": 83,
                    "time": 119.4689250000001,
                    "velocity": 0.6141732283464567,
                    "duration": 0.2654864999999944
                },
                {
                    "name": "A5",
                    "midi": 81,
                    "time": 119.73441150000009,
                    "velocity": 0.6141732283464567,
                    "duration": 0.2654864999999944
                },
                {
                    "name": "G5",
                    "midi": 79,
                    "time": 119.99989800000009,
                    "velocity": 0.6062992125984252,
                    "duration": 0.2654864999999944
                },
                {
                    "name": "F5",
                    "midi": 77,
                    "time": 120.26538450000008,
                    "velocity": 0.5905511811023622,
                    "duration": 0.2654864999999944
                },
                {
                    "name": "E5",
                    "midi": 76,
                    "time": 120.53087100000008,
                    "velocity": 0.6220472440944882,
                    "duration": 0.2654864999999944
                },
                {
                    "name": "D#5",
                    "midi": 75,
                    "time": 120.79635750000007,
                    "velocity": 0.5905511811023622,
                    "duration": 0.2654864999999944
                },
                {
                    "name": "C6",
                    "midi": 84,
                    "time": 121.06184400000006,
                    "velocity": 0.6377952755905512,
                    "duration": 1.061946000000006
                },
                {
                    "name": "D#5",
                    "midi": 75,
                    "time": 122.12379000000007,
                    "velocity": 0.4330708661417323,
                    "duration": 0.530973000000003
                },
                {
                    "name": "E5",
                    "midi": 76,
                    "time": 122.65476300000007,
                    "velocity": 0.4330708661417323,
                    "duration": 0.7964594999999974
                },
                {
                    "name": "F#5",
                    "midi": 78,
                    "time": 123.45122250000007,
                    "velocity": 0.44881889763779526,
                    "duration": 0.1327432500000043
                },
                {
                    "name": "E5",
                    "midi": 76,
                    "time": 123.58396575000008,
                    "velocity": 0.36220472440944884,
                    "duration": 0.12610608750000551
                },
                {
                    "name": "E5",
                    "midi": 76,
                    "time": 123.71670900000008,
                    "velocity": 0.4330708661417323,
                    "duration": 0.1327432500000043
                },
                {
                    "name": "D5",
                    "midi": 74,
                    "time": 123.84945225000008,
                    "velocity": 0.41732283464566927,
                    "duration": 0.1327432500000043
                },
                {
                    "name": "C#5",
                    "midi": 73,
                    "time": 123.98219550000009,
                    "velocity": 0.4094488188976378,
                    "duration": 0.1327432500000043
                },
                {
                    "name": "B4",
                    "midi": 71,
                    "time": 124.11493875000009,
                    "velocity": 0.4015748031496063,
                    "duration": 0.1327432500000043
                },
                {
                    "name": "C#4",
                    "midi": 61,
                    "time": 124.2476820000001,
                    "velocity": 0.5039370078740157,
                    "duration": 0.06637162500000215
                },
                {
                    "name": "E4",
                    "midi": 64,
                    "time": 124.3140536250001,
                    "velocity": 0.5039370078740157,
                    "duration": 0.06637162500000215
                },
                {
                    "name": "A4",
                    "midi": 69,
                    "time": 124.3804252500001,
                    "velocity": 0.5984251968503937,
                    "duration": 0.9292027500000017
                },
                {
                    "name": "E4",
                    "midi": 64,
                    "time": 125.3096280000001,
                    "velocity": 0.5511811023622047,
                    "duration": 0.530973000000003
                },
                {
                    "name": "C#5",
                    "midi": 73,
                    "time": 125.8406010000001,
                    "velocity": 0.5669291338582677,
                    "duration": 0.2654864999999944
                },
                {
                    "name": "D5",
                    "midi": 74,
                    "time": 126.1060875000001,
                    "velocity": 0.5826771653543307,
                    "duration": 0.1327432500000043
                },
                {
                    "name": "B4",
                    "midi": 71,
                    "time": 126.2388307500001,
                    "velocity": 0.5511811023622047,
                    "duration": 0.1327432500000043
                },
                {
                    "name": "A4",
                    "midi": 69,
                    "time": 126.37157400000011,
                    "velocity": 0.5511811023622047,
                    "duration": 0.2654864999999944
                },
                {
                    "name": "C#5",
                    "midi": 73,
                    "time": 127.4335200000001,
                    "velocity": 0.3937007874015748,
                    "duration": 0.2654864999999944
                },
                {
                    "name": "D5",
                    "midi": 74,
                    "time": 127.6990065000001,
                    "velocity": 0.4094488188976378,
                    "duration": 0.1327432500000043
                },
                {
                    "name": "B4",
                    "midi": 71,
                    "time": 127.8317497500001,
                    "velocity": 0.36220472440944884,
                    "duration": 0.1327432500000043
                },
                {
                    "name": "A4",
                    "midi": 69,
                    "time": 127.9644930000001,
                    "velocity": 0.3858267716535433,
                    "duration": 0.530973000000003
                },
                {
                    "name": "C#6",
                    "midi": 85,
                    "time": 128.4954660000001,
                    "velocity": 0.44881889763779526,
                    "duration": 0.2654865000000086
                },
                {
                    "name": "D#5",
                    "midi": 75,
                    "time": 129.02643900000012,
                    "velocity": 0.3937007874015748,
                    "duration": 0.5309729999999888
                },
                {
                    "name": "E5",
                    "midi": 76,
                    "time": 129.5574120000001,
                    "velocity": 0.4094488188976378,
                    "duration": 0.7964594999999974
                },
                {
                    "name": "F5",
                    "midi": 77,
                    "time": 130.3538715000001,
                    "velocity": 0.4015748031496063,
                    "duration": 0.24336262500000316
                },
                {
                    "name": "G#5",
                    "midi": 80,
                    "time": 130.61935800000012,
                    "velocity": 0.44881889763779526,
                    "duration": 0.2654865000000086
                },
                {
                    "name": "F#5",
                    "midi": 78,
                    "time": 130.88484450000013,
                    "velocity": 0.4409448818897638,
                    "duration": 0.2654865000000086
                },
                {
                    "name": "E5",
                    "midi": 76,
                    "time": 131.15033100000014,
                    "velocity": 0.4251968503937008,
                    "duration": 0.2654865000000086
                },
                {
                    "name": "D5",
                    "midi": 74,
                    "time": 131.41581750000014,
                    "velocity": 0.41732283464566927,
                    "duration": 0.2654865000000086
                },
                {
                    "name": "C#5",
                    "midi": 73,
                    "time": 131.68130400000015,
                    "velocity": 0.4094488188976378,
                    "duration": 0.2654865000000086
                },
                {
                    "name": "B4",
                    "midi": 71,
                    "time": 131.94679050000016,
                    "velocity": 0.4015748031496063,
                    "duration": 0.2654865000000086
                },
                {
                    "name": "A4",
                    "midi": 69,
                    "time": 132.21227700000017,
                    "velocity": 0.4015748031496063,
                    "duration": 0.2654865000000086
                },
                {
                    "name": "G#4",
                    "midi": 68,
                    "time": 132.47776350000018,
                    "velocity": 0.36220472440944884,
                    "duration": 0.2654865000000086
                },
                {
                    "name": "E5",
                    "midi": 76,
                    "time": 132.7432500000002,
                    "velocity": 0.41732283464566927,
                    "duration": 0.2654865000000086
                },
                {
                    "name": "D5",
                    "midi": 74,
                    "time": 133.0087365000002,
                    "velocity": 0.4015748031496063,
                    "duration": 0.2654865000000086
                },
                {
                    "name": "B4",
                    "midi": 71,
                    "time": 133.8051960000002,
                    "velocity": 0.44881889763779526,
                    "duration": 0.2654865000000086
                },
                {
                    "name": "A4",
                    "midi": 69,
                    "time": 134.0706825000002,
                    "velocity": 0.41732283464566927,
                    "duration": 0.2654865000000086
                },
                {
                    "name": "F#5",
                    "midi": 78,
                    "time": 134.3361690000002,
                    "velocity": 0.44881889763779526,
                    "duration": 0.2654865000000086
                },
                {
                    "name": "E5",
                    "midi": 76,
                    "time": 134.60165550000022,
                    "velocity": 0.4409448818897638,
                    "duration": 0.2654865000000086
                },
                {
                    "name": "B4",
                    "midi": 71,
                    "time": 135.39811500000022,
                    "velocity": 0.49606299212598426,
                    "duration": 0.2654865000000086
                },
                {
                    "name": "A4",
                    "midi": 69,
                    "time": 135.66360150000023,
                    "velocity": 0.4645669291338583,
                    "duration": 0.2654865000000086
                },
                {
                    "name": "A5",
                    "midi": 81,
                    "time": 135.92908800000023,
                    "velocity": 0.4881889763779528,
                    "duration": 0.2654865000000086
                },
                {
                    "name": "G5",
                    "midi": 79,
                    "time": 136.19457450000024,
                    "velocity": 0.4645669291338583,
                    "duration": 0.2654865000000086
                },
                {
                    "name": "G5",
                    "midi": 79,
                    "time": 136.99103400000024,
                    "velocity": 0.4330708661417323,
                    "duration": 0.2654865000000086
                },
                {
                    "name": "F#5",
                    "midi": 78,
                    "time": 137.25652050000025,
                    "velocity": 0.4094488188976378,
                    "duration": 0.2654865000000086
                },
                {
                    "name": "E5",
                    "midi": 76,
                    "time": 137.52200700000026,
                    "velocity": 0.4015748031496063,
                    "duration": 0.2654865000000086
                },
                {
                    "name": "D5",
                    "midi": 74,
                    "time": 137.78749350000027,
                    "velocity": 0.3937007874015748,
                    "duration": 0.2654865000000086
                },
                {
                    "name": "C#5",
                    "midi": 73,
                    "time": 138.05298000000028,
                    "velocity": 0.3858267716535433,
                    "duration": 0.2654865000000086
                },
                {
                    "name": "B4",
                    "midi": 71,
                    "time": 138.31846650000028,
                    "velocity": 0.3700787401574803,
                    "duration": 0.2654865000000086
                },
                {
                    "name": "E5",
                    "midi": 76,
                    "time": 138.5839530000003,
                    "velocity": 0.3858267716535433,
                    "duration": 0.1327432500000043
                },
                {
                    "name": "F#5",
                    "midi": 78,
                    "time": 138.7166962500003,
                    "velocity": 0.3543307086614173,
                    "duration": 0.04424775000001091
                },
                {
                    "name": "E5",
                    "midi": 76,
                    "time": 138.7609440000003,
                    "velocity": 0.3543307086614173,
                    "duration": 0.04424775000001091
                },
                {
                    "name": "D5",
                    "midi": 74,
                    "time": 138.80519175000032,
                    "velocity": 0.3543307086614173,
                    "duration": 0.04424775000001091
                },
                {
                    "name": "E5",
                    "midi": 76,
                    "time": 138.84943950000033,
                    "velocity": 0.4015748031496063,
                    "duration": 0.1327432500000043
                },
                {
                    "name": "F#5",
                    "midi": 78,
                    "time": 138.98218275000033,
                    "velocity": 0.4094488188976378,
                    "duration": 0.1327432500000043
                },
                {
                    "name": "A4",
                    "midi": 69,
                    "time": 139.11492600000034,
                    "velocity": 0.4015748031496063,
                    "duration": 0.5309729999999888
                },
                {
                    "name": "G#4",
                    "midi": 68,
                    "time": 139.64589900000033,
                    "velocity": 0.3779527559055118,
                    "duration": 0.5309729999999888
                },
                {
                    "name": "A4",
                    "midi": 69,
                    "time": 140.04412875000034,
                    "velocity": 0.5196850393700787,
                    "duration": 0.06637162499998794
                },
                {
                    "name": "C#5",
                    "midi": 73,
                    "time": 140.11050037500033,
                    "velocity": 0.5275590551181102,
                    "duration": 0.06637162499998794
                },
                {
                    "name": "E5",
                    "midi": 76,
                    "time": 140.17687200000032,
                    "velocity": 0.5275590551181102,
                    "duration": 0.5309729999999888
                },
                {
                    "name": "E5",
                    "midi": 76,
                    "time": 140.7078450000003,
                    "velocity": 0.5433070866141733,
                    "duration": 1.061946000000006
                },
                {
                    "name": "E5",
                    "midi": 76,
                    "time": 141.7697910000003,
                    "velocity": 0.5118110236220472,
                    "duration": 0.1327432500000043
                },
                {
                    "name": "D5",
                    "midi": 74,
                    "time": 141.90253425000031,
                    "velocity": 0.5039370078740157,
                    "duration": 0.1327432500000043
                },
                {
                    "name": "C#5",
                    "midi": 73,
                    "time": 142.03527750000032,
                    "velocity": 0.49606299212598426,
                    "duration": 0.1327432500000043
                },
                {
                    "name": "B4",
                    "midi": 71,
                    "time": 142.16802075000032,
                    "velocity": 0.49606299212598426,
                    "duration": 0.12057511874999705
                },
                {
                    "name": "B4",
                    "midi": 71,
                    "time": 142.30076400000033,
                    "velocity": 0.5039370078740157,
                    "duration": 0.1327432500000043
                },
                {
                    "name": "A4",
                    "midi": 69,
                    "time": 142.43350725000033,
                    "velocity": 0.49606299212598426,
                    "duration": 0.1327432500000043
                },
                {
                    "name": "G#4",
                    "midi": 68,
                    "time": 142.56625050000034,
                    "velocity": 0.4881889763779528,
                    "duration": 0.1327432500000043
                },
                {
                    "name": "F#4",
                    "midi": 66,
                    "time": 142.69899375000034,
                    "velocity": 0.48031496062992124,
                    "duration": 0.1327432500000043
                },
                {
                    "name": "E4",
                    "midi": 64,
                    "time": 142.83173700000035,
                    "velocity": 0.49606299212598426,
                    "duration": 0.1327432500000043
                },
                {
                    "name": "D4",
                    "midi": 62,
                    "time": 142.96448025000035,
                    "velocity": 0.47244094488188976,
                    "duration": 0.1327432500000043
                },
                {
                    "name": "C#4",
                    "midi": 61,
                    "time": 143.09722350000035,
                    "velocity": 0.47244094488188976,
                    "duration": 0.1327432500000043
                },
                {
                    "name": "D4",
                    "midi": 62,
                    "time": 143.22996675000036,
                    "velocity": 0.47244094488188976,
                    "duration": 0.1327432500000043
                },
                {
                    "name": "C#4",
                    "midi": 61,
                    "time": 143.36271000000036,
                    "velocity": 0.47244094488188976,
                    "duration": 0.1327432500000043
                },
                {
                    "name": "E4",
                    "midi": 64,
                    "time": 143.49545325000037,
                    "velocity": 0.4881889763779528,
                    "duration": 0.1327432500000043
                },
                {
                    "name": "A4",
                    "midi": 69,
                    "time": 143.62819650000037,
                    "velocity": 0.49606299212598426,
                    "duration": 0.1327432500000043
                },
                {
                    "name": "C#5",
                    "midi": 73,
                    "time": 143.76093975000038,
                    "velocity": 0.5039370078740157,
                    "duration": 0.1327432500000043
                },
                {
                    "name": "E5",
                    "midi": 76,
                    "time": 143.89368300000038,
                    "velocity": 0.5118110236220472,
                    "duration": 0.7964594999999974
                },
                {
                    "name": "E6",
                    "midi": 88,
                    "time": 144.69014250000038,
                    "velocity": 0.5118110236220472,
                    "duration": 0.25995553125000015
                },
                {
                    "name": "E6",
                    "midi": 88,
                    "time": 144.95562900000039,
                    "velocity": 0.5511811023622047,
                    "duration": 0.1327432500000043
                },
                {
                    "name": "D6",
                    "midi": 86,
                    "time": 145.0883722500004,
                    "velocity": 0.5511811023622047,
                    "duration": 0.1327432500000043
                },
                {
                    "name": "C#6",
                    "midi": 85,
                    "time": 145.2211155000004,
                    "velocity": 0.5433070866141733,
                    "duration": 0.1327432500000043
                },
                {
                    "name": "B5",
                    "midi": 83,
                    "time": 145.3538587500004,
                    "velocity": 0.5433070866141733,
                    "duration": 0.12168131249998737
                },
                {
                    "name": "B5",
                    "midi": 83,
                    "time": 145.48660200000037,
                    "velocity": 0.5354330708661418,
                    "duration": 0.1327432500000043
                },
                {
                    "name": "A5",
                    "midi": 81,
                    "time": 145.61934525000038,
                    "velocity": 0.5275590551181102,
                    "duration": 0.1327432500000043
                },
                {
                    "name": "G#5",
                    "midi": 80,
                    "time": 145.75208850000038,
                    "velocity": 0.5275590551181102,
                    "duration": 0.1327432500000043
                },
                {
                    "name": "F#5",
                    "midi": 78,
                    "time": 145.8848317500004,
                    "velocity": 0.5196850393700787,
                    "duration": 0.1327432500000043
                },
                {
                    "name": "E5",
                    "midi": 76,
                    "time": 146.0175750000004,
                    "velocity": 0.5196850393700787,
                    "duration": 0.1327432500000043
                },
                {
                    "name": "D5",
                    "midi": 74,
                    "time": 146.1503182500004,
                    "velocity": 0.5118110236220472,
                    "duration": 0.1327432500000043
                },
                {
                    "name": "C#5",
                    "midi": 73,
                    "time": 146.2830615000004,
                    "velocity": 0.5118110236220472,
                    "duration": 0.1327432500000043
                },
                {
                    "name": "D5",
                    "midi": 74,
                    "time": 146.4158047500004,
                    "velocity": 0.5039370078740157,
                    "duration": 0.1327432500000043
                },
                {
                    "name": "C#5",
                    "midi": 73,
                    "time": 146.5485480000004,
                    "velocity": 0.49606299212598426,
                    "duration": 0.1327432500000043
                },
                {
                    "name": "E5",
                    "midi": 76,
                    "time": 146.6812912500004,
                    "velocity": 0.5039370078740157,
                    "duration": 0.1327432500000043
                },
                {
                    "name": "D5",
                    "midi": 74,
                    "time": 146.81403450000042,
                    "velocity": 0.47244094488188976,
                    "duration": 0.1327432500000043
                },
                {
                    "name": "C#5",
                    "midi": 73,
                    "time": 146.94677775000042,
                    "velocity": 0.48031496062992124,
                    "duration": 0.1327432500000043
                },
                {
                    "name": "D5",
                    "midi": 74,
                    "time": 147.07952100000043,
                    "velocity": 0.4881889763779528,
                    "duration": 0.1327432500000043
                },
                {
                    "name": "E5",
                    "midi": 76,
                    "time": 147.21226425000043,
                    "velocity": 0.49606299212598426,
                    "duration": 0.1327432500000043
                },
                {
                    "name": "F#5",
                    "midi": 78,
                    "time": 147.34500750000043,
                    "velocity": 0.5039370078740157,
                    "duration": 0.1327432500000043
                },
                {
                    "name": "G#5",
                    "midi": 80,
                    "time": 147.47775075000044,
                    "velocity": 0.5196850393700787,
                    "duration": 0.1327432500000043
                },
                {
                    "name": "A5",
                    "midi": 81,
                    "time": 147.61049400000044,
                    "velocity": 0.5275590551181102,
                    "duration": 0.1327432500000043
                },
                {
                    "name": "B5",
                    "midi": 83,
                    "time": 147.74323725000045,
                    "velocity": 0.5354330708661418,
                    "duration": 0.1327432500000043
                },
                {
                    "name": "C#6",
                    "midi": 85,
                    "time": 147.87598050000045,
                    "velocity": 0.5511811023622047,
                    "duration": 0.1327432500000043
                },
                {
                    "name": "D6",
                    "midi": 86,
                    "time": 148.00872375000046,
                    "velocity": 0.5590551181102362,
                    "duration": 0.1327432500000043
                },
                {
                    "name": "E6",
                    "midi": 88,
                    "time": 148.14146700000046,
                    "velocity": 0.5669291338582677,
                    "duration": 0.1327432500000043
                },
                {
                    "name": "D6",
                    "midi": 86,
                    "time": 148.27421025000046,
                    "velocity": 0.5590551181102362,
                    "duration": 0.1327432500000043
                },
                {
                    "name": "C#6",
                    "midi": 85,
                    "time": 148.40695350000047,
                    "velocity": 0.5433070866141733,
                    "duration": 0.1327432500000043
                },
                {
                    "name": "B5",
                    "midi": 83,
                    "time": 148.53969675000047,
                    "velocity": 0.5354330708661418,
                    "duration": 0.1327432500000043
                },
                {
                    "name": "A5",
                    "midi": 81,
                    "time": 148.67244000000048,
                    "velocity": 0.5196850393700787,
                    "duration": 0.1327432500000043
                },
                {
                    "name": "G#5",
                    "midi": 80,
                    "time": 148.80518325000048,
                    "velocity": 0.5118110236220472,
                    "duration": 0.1327432500000043
                },
                {
                    "name": "F#5",
                    "midi": 78,
                    "time": 148.9379265000005,
                    "velocity": 0.49606299212598426,
                    "duration": 0.1327432500000043
                },
                {
                    "name": "E5",
                    "midi": 76,
                    "time": 149.0706697500005,
                    "velocity": 0.4881889763779528,
                    "duration": 0.1327432500000043
                },
                {
                    "name": "D5",
                    "midi": 74,
                    "time": 149.2034130000005,
                    "velocity": 0.47244094488188976,
                    "duration": 0.1327432500000043
                },
                {
                    "name": "C#5",
                    "midi": 73,
                    "time": 149.3361562500005,
                    "velocity": 0.4645669291338583,
                    "duration": 0.1327432500000043
                },
                {
                    "name": "B4",
                    "midi": 71,
                    "time": 149.4688995000005,
                    "velocity": 0.44881889763779526,
                    "duration": 0.1327432500000043
                },
                {
                    "name": "A4",
                    "midi": 69,
                    "time": 149.6016427500005,
                    "velocity": 0.4409448818897638,
                    "duration": 0.1327432500000043
                },
                {
                    "name": "F#5",
                    "midi": 78,
                    "time": 149.7343860000005,
                    "velocity": 0.4645669291338583,
                    "duration": 0.0884954999999934
                },
                {
                    "name": "G#5",
                    "midi": 80,
                    "time": 149.8228815000005,
                    "velocity": 0.4330708661417323,
                    "duration": 0.0884954999999934
                },
                {
                    "name": "F#5",
                    "midi": 78,
                    "time": 149.9113770000005,
                    "velocity": 0.4645669291338583,
                    "duration": 0.0884954999999934
                },
                {
                    "name": "F5",
                    "midi": 77,
                    "time": 149.9998725000005,
                    "velocity": 0.4645669291338583,
                    "duration": 0.06637162499998794
                },
                {
                    "name": "F#5",
                    "midi": 78,
                    "time": 150.06624412500048,
                    "velocity": 0.4330708661417323,
                    "duration": 0.06637162499998794
                },
                {
                    "name": "G#5",
                    "midi": 80,
                    "time": 150.13261575000047,
                    "velocity": 0.4330708661417323,
                    "duration": 0.06637162499998794
                },
                {
                    "name": "A5",
                    "midi": 81,
                    "time": 150.19898737500046,
                    "velocity": 0.4330708661417323,
                    "duration": 0.06637162499998794
                },
                {
                    "name": "A4",
                    "midi": 69,
                    "time": 150.26535900000044,
                    "velocity": 0.4645669291338583,
                    "duration": 0.46460137500000087
                },
                {
                    "name": "C#5",
                    "midi": 73,
                    "time": 150.72996037500045,
                    "velocity": 0.3937007874015748,
                    "duration": 0.06637162499998794
                },
                {
                    "name": "B4",
                    "midi": 71,
                    "time": 150.79633200000043,
                    "velocity": 0.41732283464566927,
                    "duration": 0.5309729999999888
                },
                {
                    "name": "G#4",
                    "midi": 68,
                    "time": 150.79633200000043,
                    "velocity": 0.41732283464566927,
                    "duration": 0.5309729999999888
                },
                {
                    "name": "A4",
                    "midi": 69,
                    "time": 151.32730500000042,
                    "velocity": 0.4015748031496063,
                    "duration": 0.5309729999999888
                },
                {
                    "name": "F#4",
                    "midi": 66,
                    "time": 154.5131430000004,
                    "velocity": 0.33070866141732286,
                    "duration": 0.2654865000000086
                },
                {
                    "name": "A4",
                    "midi": 69,
                    "time": 154.5131430000004,
                    "velocity": 0.3937007874015748,
                    "duration": 0.2654865000000086
                },
                {
                    "name": "A3",
                    "midi": 57,
                    "time": 154.77862950000042,
                    "velocity": 0.3543307086614173,
                    "duration": 0.2654865000000086
                },
                {
                    "name": "D4",
                    "midi": 62,
                    "time": 155.04411600000043,
                    "velocity": 0.33070866141732286,
                    "duration": 0.2654865000000086
                },
                {
                    "name": "F#4",
                    "midi": 66,
                    "time": 155.04411600000043,
                    "velocity": 0.3937007874015748,
                    "duration": 0.2654865000000086
                },
                {
                    "name": "A3",
                    "midi": 57,
                    "time": 155.30960250000044,
                    "velocity": 0.3700787401574803,
                    "duration": 0.2654865000000086
                },
                {
                    "name": "E4",
                    "midi": 64,
                    "time": 155.57508900000045,
                    "velocity": 0.3464566929133858,
                    "duration": 0.2654865000000086
                },
                {
                    "name": "G4",
                    "midi": 67,
                    "time": 155.57508900000045,
                    "velocity": 0.4094488188976378,
                    "duration": 0.2654865000000086
                },
                {
                    "name": "A3",
                    "midi": 57,
                    "time": 155.84057550000045,
                    "velocity": 0.3858267716535433,
                    "duration": 0.2654865000000086
                },
                {
                    "name": "A4",
                    "midi": 69,
                    "time": 156.10606200000046,
                    "velocity": 0.4251968503937008,
                    "duration": 0.2654865000000086
                },
                {
                    "name": "F#4",
                    "midi": 66,
                    "time": 156.10606200000046,
                    "velocity": 0.3543307086614173,
                    "duration": 0.2654865000000086
                },
                {
                    "name": "A3",
                    "midi": 57,
                    "time": 156.37154850000047,
                    "velocity": 0.3779527559055118,
                    "duration": 0.2654865000000086
                },
                {
                    "name": "D4",
                    "midi": 62,
                    "time": 156.63703500000048,
                    "velocity": 0.33070866141732286,
                    "duration": 0.2654865000000086
                },
                {
                    "name": "F#4",
                    "midi": 66,
                    "time": 156.63703500000048,
                    "velocity": 0.3937007874015748,
                    "duration": 0.2654865000000086
                },
                {
                    "name": "C#4",
                    "midi": 61,
                    "time": 156.9025215000005,
                    "velocity": 0.30708661417322836,
                    "duration": 0.2654865000000086
                },
                {
                    "name": "E4",
                    "midi": 64,
                    "time": 156.9025215000005,
                    "velocity": 0.3700787401574803,
                    "duration": 0.2654865000000086
                },
                {
                    "name": "D4",
                    "midi": 62,
                    "time": 157.1680080000005,
                    "velocity": 0.33070866141732286,
                    "duration": 0.2654865000000086
                },
                {
                    "name": "F#4",
                    "midi": 66,
                    "time": 157.1680080000005,
                    "velocity": 0.3937007874015748,
                    "duration": 0.2654865000000086
                },
                {
                    "name": "E4",
                    "midi": 64,
                    "time": 157.4334945000005,
                    "velocity": 0.30708661417322836,
                    "duration": 0.2654865000000086
                },
                {
                    "name": "G4",
                    "midi": 67,
                    "time": 157.4334945000005,
                    "velocity": 0.3700787401574803,
                    "duration": 0.2654865000000086
                },
                {
                    "name": "F#4",
                    "midi": 66,
                    "time": 157.69898100000051,
                    "velocity": 0.33070866141732286,
                    "duration": 0.2654865000000086
                },
                {
                    "name": "A4",
                    "midi": 69,
                    "time": 157.69898100000051,
                    "velocity": 0.3937007874015748,
                    "duration": 0.2654865000000086
                },
                {
                    "name": "D4",
                    "midi": 62,
                    "time": 157.96446750000052,
                    "velocity": 0.3543307086614173,
                    "duration": 0.2654865000000086
                },
                {
                    "name": "G4",
                    "midi": 67,
                    "time": 158.22995400000053,
                    "velocity": 0.3543307086614173,
                    "duration": 0.2654865000000086
                },
                {
                    "name": "B4",
                    "midi": 71,
                    "time": 158.22995400000053,
                    "velocity": 0.41732283464566927,
                    "duration": 0.2654865000000086
                },
                {
                    "name": "D4",
                    "midi": 62,
                    "time": 158.49544050000054,
                    "velocity": 0.3700787401574803,
                    "duration": 0.2654865000000086
                },
                {
                    "name": "G4",
                    "midi": 67,
                    "time": 158.76092700000055,
                    "velocity": 0.3543307086614173,
                    "duration": 0.2654865000000086
                },
                {
                    "name": "C#5",
                    "midi": 73,
                    "time": 158.76092700000055,
                    "velocity": 0.4251968503937008,
                    "duration": 0.2654865000000086
                },
                {
                    "name": "E4",
                    "midi": 64,
                    "time": 159.02641350000056,
                    "velocity": 0.3700787401574803,
                    "duration": 0.2654865000000086
                },
                {
                    "name": "F#4",
                    "midi": 66,
                    "time": 159.29190000000057,
                    "velocity": 0.3543307086614173,
                    "duration": 0.2654865000000086
                },
                {
                    "name": "D5",
                    "midi": 74,
                    "time": 159.29190000000057,
                    "velocity": 0.4251968503937008,
                    "duration": 0.2654865000000086
                },
                {
                    "name": "A4",
                    "midi": 69,
                    "time": 159.55738650000058,
                    "velocity": 0.3858267716535433,
                    "duration": 0.2654865000000086
                },
                {
                    "name": "D4",
                    "midi": 62,
                    "time": 159.82287300000058,
                    "velocity": 0.33070866141732286,
                    "duration": 0.2654865000000086
                },
                {
                    "name": "F#4",
                    "midi": 66,
                    "time": 159.82287300000058,
                    "velocity": 0.3937007874015748,
                    "duration": 0.2654865000000086
                },
                {
                    "name": "C#4",
                    "midi": 61,
                    "time": 160.0883595000006,
                    "velocity": 0.30708661417322836,
                    "duration": 0.2654865000000086
                },
                {
                    "name": "E4",
                    "midi": 64,
                    "time": 160.0883595000006,
                    "velocity": 0.3700787401574803,
                    "duration": 0.2654865000000086
                },
                {
                    "name": "D4",
                    "midi": 62,
                    "time": 160.3538460000006,
                    "velocity": 0.33070866141732286,
                    "duration": 0.2654865000000086
                },
                {
                    "name": "F#4",
                    "midi": 66,
                    "time": 160.3538460000006,
                    "velocity": 0.3937007874015748,
                    "duration": 0.2654865000000086
                },
                {
                    "name": "E4",
                    "midi": 64,
                    "time": 160.6193325000006,
                    "velocity": 0.30708661417322836,
                    "duration": 0.2654865000000086
                },
                {
                    "name": "G4",
                    "midi": 67,
                    "time": 160.6193325000006,
                    "velocity": 0.3700787401574803,
                    "duration": 0.2654865000000086
                },
                {
                    "name": "F#4",
                    "midi": 66,
                    "time": 160.88481900000062,
                    "velocity": 0.33070866141732286,
                    "duration": 0.2654865000000086
                },
                {
                    "name": "A4",
                    "midi": 69,
                    "time": 160.88481900000062,
                    "velocity": 0.3937007874015748,
                    "duration": 0.2654865000000086
                },
                {
                    "name": "D4",
                    "midi": 62,
                    "time": 161.15030550000063,
                    "velocity": 0.3543307086614173,
                    "duration": 0.2654865000000086
                },
                {
                    "name": "G4",
                    "midi": 67,
                    "time": 161.41579200000064,
                    "velocity": 0.3543307086614173,
                    "duration": 0.2654865000000086
                },
                {
                    "name": "B4",
                    "midi": 71,
                    "time": 161.41579200000064,
                    "velocity": 0.41732283464566927,
                    "duration": 0.2654865000000086
                },
                {
                    "name": "D4",
                    "midi": 62,
                    "time": 161.68127850000064,
                    "velocity": 0.3700787401574803,
                    "duration": 0.2654865000000086
                },
                {
                    "name": "G4",
                    "midi": 67,
                    "time": 161.94676500000065,
                    "velocity": 0.3543307086614173,
                    "duration": 0.2654865000000086
                },
                {
                    "name": "C#5",
                    "midi": 73,
                    "time": 161.94676500000065,
                    "velocity": 0.4251968503937008,
                    "duration": 0.2654865000000086
                },
                {
                    "name": "E4",
                    "midi": 64,
                    "time": 162.21225150000066,
                    "velocity": 0.3700787401574803,
                    "duration": 0.2654865000000086
                },
                {
                    "name": "F#4",
                    "midi": 66,
                    "time": 162.47773800000067,
                    "velocity": 0.3543307086614173,
                    "duration": 0.2654865000000086
                },
                {
                    "name": "D5",
                    "midi": 74,
                    "time": 162.47773800000067,
                    "velocity": 0.4251968503937008,
                    "duration": 0.2654865000000086
                },
                {
                    "name": "A4",
                    "midi": 69,
                    "time": 162.74322450000068,
                    "velocity": 0.3858267716535433,
                    "duration": 0.2654865000000086
                },
                {
                    "name": "F#4",
                    "midi": 66,
                    "time": 163.0087110000007,
                    "velocity": 0.3543307086614173,
                    "duration": 0.2654865000000086
                },
                {
                    "name": "D5",
                    "midi": 74,
                    "time": 163.0087110000007,
                    "velocity": 0.4251968503937008,
                    "duration": 0.2654865000000086
                },
                {
                    "name": "E4",
                    "midi": 64,
                    "time": 163.2741975000007,
                    "velocity": 0.3228346456692913,
                    "duration": 0.2654865000000086
                },
                {
                    "name": "C#5",
                    "midi": 73,
                    "time": 163.2741975000007,
                    "velocity": 0.3858267716535433,
                    "duration": 0.2654865000000086
                },
                {
                    "name": "D4",
                    "midi": 62,
                    "time": 163.5396840000007,
                    "velocity": 0.3228346456692913,
                    "duration": 0.2654865000000086
                },
                {
                    "name": "B4",
                    "midi": 71,
                    "time": 163.5396840000007,
                    "velocity": 0.3858267716535433,
                    "duration": 0.2654865000000086
                },
                {
                    "name": "C#4",
                    "midi": 61,
                    "time": 163.8051705000007,
                    "velocity": 0.3228346456692913,
                    "duration": 0.2654865000000086
                },
                {
                    "name": "A4",
                    "midi": 69,
                    "time": 163.8051705000007,
                    "velocity": 0.3858267716535433,
                    "duration": 0.2654865000000086
                },
                {
                    "name": "B3",
                    "midi": 59,
                    "time": 164.07065700000072,
                    "velocity": 0.3543307086614173,
                    "duration": 0.2654865000000086
                },
                {
                    "name": "G#4",
                    "midi": 68,
                    "time": 164.07065700000072,
                    "velocity": 0.4251968503937008,
                    "duration": 0.2654865000000086
                },
                {
                    "name": "E4",
                    "midi": 64,
                    "time": 164.33614350000073,
                    "velocity": 0.3700787401574803,
                    "duration": 0.2654865000000086
                },
                {
                    "name": "C#4",
                    "midi": 61,
                    "time": 164.60163000000074,
                    "velocity": 0.33858267716535434,
                    "duration": 0.2654865000000086
                },
                {
                    "name": "A4",
                    "midi": 69,
                    "time": 164.60163000000074,
                    "velocity": 0.4015748031496063,
                    "duration": 0.2654865000000086
                },
                {
                    "name": "E4",
                    "midi": 64,
                    "time": 164.86711650000075,
                    "velocity": 0.33070866141732286,
                    "duration": 0.2654865000000086
                },
                {
                    "name": "A4",
                    "midi": 69,
                    "time": 165.13260300000076,
                    "velocity": 0.3464566929133858,
                    "duration": 0.2654865000000086
                },
                {
                    "name": "C#5",
                    "midi": 73,
                    "time": 165.13260300000076,
                    "velocity": 0.4094488188976378,
                    "duration": 0.2654865000000086
                },
                {
                    "name": "E4",
                    "midi": 64,
                    "time": 165.39808950000076,
                    "velocity": 0.33070866141732286,
                    "duration": 0.2654865000000086
                },
                {
                    "name": "G#4",
                    "midi": 68,
                    "time": 165.66357600000077,
                    "velocity": 0.33858267716535434,
                    "duration": 0.2654865000000086
                },
                {
                    "name": "B4",
                    "midi": 71,
                    "time": 165.66357600000077,
                    "velocity": 0.4015748031496063,
                    "duration": 0.2654865000000086
                },
                {
                    "name": "E4",
                    "midi": 64,
                    "time": 165.92906250000078,
                    "velocity": 0.3464566929133858,
                    "duration": 0.2654865000000086
                },
                {
                    "name": "F#4",
                    "midi": 66,
                    "time": 166.1945490000008,
                    "velocity": 0.3543307086614173,
                    "duration": 0.2654865000000086
                },
                {
                    "name": "D5",
                    "midi": 74,
                    "time": 166.1945490000008,
                    "velocity": 0.4251968503937008,
                    "duration": 0.2654865000000086
                },
                {
                    "name": "E4",
                    "midi": 64,
                    "time": 166.4600355000008,
                    "velocity": 0.3228346456692913,
                    "duration": 0.2654865000000086
                },
                {
                    "name": "C#5",
                    "midi": 73,
                    "time": 166.4600355000008,
                    "velocity": 0.3858267716535433,
                    "duration": 0.2654865000000086
                },
                {
                    "name": "D4",
                    "midi": 62,
                    "time": 166.7255220000008,
                    "velocity": 0.3228346456692913,
                    "duration": 0.2654865000000086
                },
                {
                    "name": "B4",
                    "midi": 71,
                    "time": 166.7255220000008,
                    "velocity": 0.3858267716535433,
                    "duration": 0.2654865000000086
                },
                {
                    "name": "C#4",
                    "midi": 61,
                    "time": 166.99100850000082,
                    "velocity": 0.3228346456692913,
                    "duration": 0.2654865000000086
                },
                {
                    "name": "A4",
                    "midi": 69,
                    "time": 166.99100850000082,
                    "velocity": 0.3858267716535433,
                    "duration": 0.2654865000000086
                },
                {
                    "name": "B3",
                    "midi": 59,
                    "time": 167.25649500000083,
                    "velocity": 0.3543307086614173,
                    "duration": 0.2654865000000086
                },
                {
                    "name": "G#4",
                    "midi": 68,
                    "time": 167.25649500000083,
                    "velocity": 0.4251968503937008,
                    "duration": 0.2654865000000086
                },
                {
                    "name": "E4",
                    "midi": 64,
                    "time": 167.52198150000083,
                    "velocity": 0.3700787401574803,
                    "duration": 0.2654865000000086
                },
                {
                    "name": "C#4",
                    "midi": 61,
                    "time": 167.78746800000084,
                    "velocity": 0.33858267716535434,
                    "duration": 0.2654865000000086
                },
                {
                    "name": "A4",
                    "midi": 69,
                    "time": 167.78746800000084,
                    "velocity": 0.4015748031496063,
                    "duration": 0.2654865000000086
                },
                {
                    "name": "E4",
                    "midi": 64,
                    "time": 168.05295450000085,
                    "velocity": 0.33070866141732286,
                    "duration": 0.2654865000000086
                },
                {
                    "name": "A4",
                    "midi": 69,
                    "time": 168.31844100000086,
                    "velocity": 0.3464566929133858,
                    "duration": 0.2654865000000086
                },
                {
                    "name": "C#5",
                    "midi": 73,
                    "time": 168.31844100000086,
                    "velocity": 0.4094488188976378,
                    "duration": 0.2654865000000086
                },
                {
                    "name": "E4",
                    "midi": 64,
                    "time": 168.58392750000087,
                    "velocity": 0.33070866141732286,
                    "duration": 0.2654865000000086
                },
                {
                    "name": "G#4",
                    "midi": 68,
                    "time": 168.84941400000088,
                    "velocity": 0.33858267716535434,
                    "duration": 0.2654865000000086
                },
                {
                    "name": "B4",
                    "midi": 71,
                    "time": 168.84941400000088,
                    "velocity": 0.4015748031496063,
                    "duration": 0.2654865000000086
                },
                {
                    "name": "E4",
                    "midi": 64,
                    "time": 169.11490050000089,
                    "velocity": 0.3464566929133858,
                    "duration": 0.2654865000000086
                },
                {
                    "name": "E4",
                    "midi": 64,
                    "time": 169.3803870000009,
                    "velocity": 0.5039370078740157,
                    "duration": 1.5929190000000517
                },
                {
                    "name": "C#5",
                    "midi": 73,
                    "time": 169.3803870000009,
                    "velocity": 0.5039370078740157,
                    "duration": 0.2654865000000086
                },
                {
                    "name": "B4",
                    "midi": 71,
                    "time": 169.6458735000009,
                    "velocity": 0.4645669291338583,
                    "duration": 0.2654865000000086
                },
                {
                    "name": "C#5",
                    "midi": 73,
                    "time": 169.9113600000009,
                    "velocity": 0.48031496062992124,
                    "duration": 0.2654865000000086
                },
                {
                    "name": "D5",
                    "midi": 74,
                    "time": 170.17684650000092,
                    "velocity": 0.4251968503937008,
                    "duration": 0.2654865000000086
                },
                {
                    "name": "E5",
                    "midi": 76,
                    "time": 170.44233300000093,
                    "velocity": 0.5196850393700787,
                    "duration": 0.2654865000000086
                },
                {
                    "name": "A4",
                    "midi": 69,
                    "time": 170.70781950000094,
                    "velocity": 0.4645669291338583,
                    "duration": 0.2654865000000086
                },
                {
                    "name": "A4",
                    "midi": 69,
                    "time": 170.97330600000095,
                    "velocity": 0.5039370078740157,
                    "duration": 0.5309730000000172
                },
                {
                    "name": "C#5",
                    "midi": 73,
                    "time": 170.97330600000095,
                    "velocity": 0.5039370078740157,
                    "duration": 0.2654865000000086
                },
                {
                    "name": "E4",
                    "midi": 64,
                    "time": 171.23879250000095,
                    "velocity": 0.4566929133858268,
                    "duration": 0.2654865000000086
                },
                {
                    "name": "G#4",
                    "midi": 68,
                    "time": 171.50427900000096,
                    "velocity": 0.5039370078740157,
                    "duration": 0.5309730000000172
                },
                {
                    "name": "B4",
                    "midi": 71,
                    "time": 171.50427900000096,
                    "velocity": 0.5039370078740157,
                    "duration": 0.2654865000000086
                },
                {
                    "name": "E4",
                    "midi": 64,
                    "time": 171.76976550000097,
                    "velocity": 0.4566929133858268,
                    "duration": 0.2654865000000086
                },
                {
                    "name": "A4",
                    "midi": 69,
                    "time": 172.03525200000098,
                    "velocity": 0.5039370078740157,
                    "duration": 0.2654865000000086
                },
                {
                    "name": "E4",
                    "midi": 64,
                    "time": 172.300738500001,
                    "velocity": 0.4566929133858268,
                    "duration": 0.2654865000000086
                },
                {
                    "name": "A4",
                    "midi": 69,
                    "time": 172.566225000001,
                    "velocity": 0.5039370078740157,
                    "duration": 0.2654865000000086
                },
                {
                    "name": "C#5",
                    "midi": 73,
                    "time": 172.566225000001,
                    "velocity": 0.5039370078740157,
                    "duration": 0.2654865000000086
                },
                {
                    "name": "G#4",
                    "midi": 68,
                    "time": 172.831711500001,
                    "velocity": 0.4645669291338583,
                    "duration": 0.2654865000000086
                },
                {
                    "name": "B4",
                    "midi": 71,
                    "time": 172.831711500001,
                    "velocity": 0.4645669291338583,
                    "duration": 0.2654865000000086
                },
                {
                    "name": "A4",
                    "midi": 69,
                    "time": 173.09719800000101,
                    "velocity": 0.48031496062992124,
                    "duration": 0.2654865000000086
                },
                {
                    "name": "C#5",
                    "midi": 73,
                    "time": 173.09719800000101,
                    "velocity": 0.48031496062992124,
                    "duration": 0.2654865000000086
                },
                {
                    "name": "B4",
                    "midi": 71,
                    "time": 173.36268450000102,
                    "velocity": 0.4251968503937008,
                    "duration": 0.2654865000000086
                },
                {
                    "name": "D5",
                    "midi": 74,
                    "time": 173.36268450000102,
                    "velocity": 0.4251968503937008,
                    "duration": 0.2654865000000086
                },
                {
                    "name": "C#5",
                    "midi": 73,
                    "time": 173.62817100000103,
                    "velocity": 0.5196850393700787,
                    "duration": 0.2654865000000086
                },
                {
                    "name": "E5",
                    "midi": 76,
                    "time": 173.62817100000103,
                    "velocity": 0.5196850393700787,
                    "duration": 0.2654865000000086
                },
                {
                    "name": "E4",
                    "midi": 64,
                    "time": 173.89365750000104,
                    "velocity": 0.4645669291338583,
                    "duration": 0.2654865000000086
                },
                {
                    "name": "A4",
                    "midi": 69,
                    "time": 174.15914400000105,
                    "velocity": 0.5039370078740157,
                    "duration": 0.2654865000000086
                },
                {
                    "name": "C#5",
                    "midi": 73,
                    "time": 174.15914400000105,
                    "velocity": 0.5039370078740157,
                    "duration": 0.2654865000000086
                },
                {
                    "name": "E4",
                    "midi": 64,
                    "time": 174.42463050000106,
                    "velocity": 0.4566929133858268,
                    "duration": 0.2654865000000086
                },
                {
                    "name": "G#4",
                    "midi": 68,
                    "time": 174.69011700000107,
                    "velocity": 0.5039370078740157,
                    "duration": 0.2654865000000086
                },
                {
                    "name": "B4",
                    "midi": 71,
                    "time": 174.69011700000107,
                    "velocity": 0.5039370078740157,
                    "duration": 0.2654865000000086
                },
                {
                    "name": "E4",
                    "midi": 64,
                    "time": 174.95560350000108,
                    "velocity": 0.4566929133858268,
                    "duration": 0.2654865000000086
                },
                {
                    "name": "A4",
                    "midi": 69,
                    "time": 175.22109000000108,
                    "velocity": 0.5039370078740157,
                    "duration": 0.2654865000000086
                },
                {
                    "name": "E4",
                    "midi": 64,
                    "time": 175.4865765000011,
                    "velocity": 0.4566929133858268,
                    "duration": 0.2654865000000086
                },
                {
                    "name": "F#4",
                    "midi": 66,
                    "time": 175.7520630000011,
                    "velocity": 0.48031496062992124,
                    "duration": 0.2654865000000086
                },
                {
                    "name": "D5",
                    "midi": 74,
                    "time": 176.0175495000011,
                    "velocity": 0.41732283464566927,
                    "duration": 0.2654865000000086
                },
                {
                    "name": "B4",
                    "midi": 71,
                    "time": 176.28303600000112,
                    "velocity": 0.48031496062992124,
                    "duration": 0.2654865000000086
                },
                {
                    "name": "G#4",
                    "midi": 68,
                    "time": 176.54852250000113,
                    "velocity": 0.4330708661417323,
                    "duration": 0.2654865000000086
                },
                {
                    "name": "A4",
                    "midi": 69,
                    "time": 176.81400900000114,
                    "velocity": 0.4645669291338583,
                    "duration": 0.2654865000000086
                },
                {
                    "name": "E4",
                    "midi": 64,
                    "time": 177.07949550000114,
                    "velocity": 0.3937007874015748,
                    "duration": 0.2654865000000086
                },
                {
                    "name": "F#4",
                    "midi": 66,
                    "time": 177.34498200000115,
                    "velocity": 0.4409448818897638,
                    "duration": 0.2654865000000086
                },
                {
                    "name": "D5",
                    "midi": 74,
                    "time": 177.61046850000116,
                    "velocity": 0.3937007874015748,
                    "duration": 0.2654865000000086
                },
                {
                    "name": "B4",
                    "midi": 71,
                    "time": 177.87595500000117,
                    "velocity": 0.44881889763779526,
                    "duration": 0.2654865000000086
                },
                {
                    "name": "G#4",
                    "midi": 68,
                    "time": 178.14144150000118,
                    "velocity": 0.3779527559055118,
                    "duration": 0.2654865000000086
                },
                {
                    "name": "A4",
                    "midi": 69,
                    "time": 178.4069280000012,
                    "velocity": 0.4094488188976378,
                    "duration": 0.2654865000000086
                },
                {
                    "name": "G#4",
                    "midi": 68,
                    "time": 178.6724145000012,
                    "velocity": 0.36220472440944884,
                    "duration": 0.2654865000000086
                },
                {
                    "name": "A4",
                    "midi": 69,
                    "time": 178.9379010000012,
                    "velocity": 0.4094488188976378,
                    "duration": 0.2654865000000086
                },
                {
                    "name": "B4",
                    "midi": 71,
                    "time": 179.2033875000012,
                    "velocity": 0.3543307086614173,
                    "duration": 0.2654865000000086
                },
                {
                    "name": "G4",
                    "midi": 67,
                    "time": 179.46887400000122,
                    "velocity": 0.3779527559055118,
                    "duration": 0.2654865000000086
                },
                {
                    "name": "E4",
                    "midi": 64,
                    "time": 179.73436050000123,
                    "velocity": 0.3779527559055118,
                    "duration": 0.2654865000000086
                },
                {
                    "name": "F#4",
                    "midi": 66,
                    "time": 179.99984700000124,
                    "velocity": 0.33070866141732286,
                    "duration": 0.2654865000000086
                },
                {
                    "name": "A4",
                    "midi": 69,
                    "time": 179.99984700000124,
                    "velocity": 0.3937007874015748,
                    "duration": 0.2654865000000086
                },
                {
                    "name": "A3",
                    "midi": 57,
                    "time": 180.26533350000125,
                    "velocity": 0.3543307086614173,
                    "duration": 0.2654865000000086
                },
                {
                    "name": "D4",
                    "midi": 62,
                    "time": 180.53082000000126,
                    "velocity": 0.33070866141732286,
                    "duration": 0.2654865000000086
                },
                {
                    "name": "F#4",
                    "midi": 66,
                    "time": 180.53082000000126,
                    "velocity": 0.3937007874015748,
                    "duration": 0.2654865000000086
                },
                {
                    "name": "A3",
                    "midi": 57,
                    "time": 180.79630650000126,
                    "velocity": 0.3700787401574803,
                    "duration": 0.2654865000000086
                },
                {
                    "name": "E4",
                    "midi": 64,
                    "time": 181.06179300000127,
                    "velocity": 0.3464566929133858,
                    "duration": 0.2654865000000086
                },
                {
                    "name": "G4",
                    "midi": 67,
                    "time": 181.06179300000127,
                    "velocity": 0.4094488188976378,
                    "duration": 0.2654865000000086
                },
                {
                    "name": "A3",
                    "midi": 57,
                    "time": 181.32727950000128,
                    "velocity": 0.3858267716535433,
                    "duration": 0.2654865000000086
                },
                {
                    "name": "A4",
                    "midi": 69,
                    "time": 181.5927660000013,
                    "velocity": 0.4251968503937008,
                    "duration": 0.2654865000000086
                },
                {
                    "name": "F#4",
                    "midi": 66,
                    "time": 181.5927660000013,
                    "velocity": 0.3543307086614173,
                    "duration": 0.2654865000000086
                },
                {
                    "name": "A3",
                    "midi": 57,
                    "time": 181.8582525000013,
                    "velocity": 0.3779527559055118,
                    "duration": 0.2654865000000086
                },
                {
                    "name": "D4",
                    "midi": 62,
                    "time": 182.1237390000013,
                    "velocity": 0.33070866141732286,
                    "duration": 0.2654865000000086
                },
                {
                    "name": "F#4",
                    "midi": 66,
                    "time": 182.1237390000013,
                    "velocity": 0.3937007874015748,
                    "duration": 0.2654865000000086
                },
                {
                    "name": "C#4",
                    "midi": 61,
                    "time": 182.38922550000132,
                    "velocity": 0.30708661417322836,
                    "duration": 0.2654865000000086
                },
                {
                    "name": "E4",
                    "midi": 64,
                    "time": 182.38922550000132,
                    "velocity": 0.3700787401574803,
                    "duration": 0.2654865000000086
                },
                {
                    "name": "D4",
                    "midi": 62,
                    "time": 182.65471200000133,
                    "velocity": 0.33070866141732286,
                    "duration": 0.2654865000000086
                },
                {
                    "name": "F#4",
                    "midi": 66,
                    "time": 182.65471200000133,
                    "velocity": 0.3937007874015748,
                    "duration": 0.2654865000000086
                },
                {
                    "name": "E4",
                    "midi": 64,
                    "time": 182.92019850000133,
                    "velocity": 0.30708661417322836,
                    "duration": 0.2654865000000086
                },
                {
                    "name": "G4",
                    "midi": 67,
                    "time": 182.92019850000133,
                    "velocity": 0.3700787401574803,
                    "duration": 0.2654865000000086
                },
                {
                    "name": "F#4",
                    "midi": 66,
                    "time": 183.18568500000134,
                    "velocity": 0.33070866141732286,
                    "duration": 0.2654865000000086
                },
                {
                    "name": "A4",
                    "midi": 69,
                    "time": 183.18568500000134,
                    "velocity": 0.3937007874015748,
                    "duration": 0.2654865000000086
                },
                {
                    "name": "D4",
                    "midi": 62,
                    "time": 183.45117150000135,
                    "velocity": 0.3543307086614173,
                    "duration": 0.2654865000000086
                },
                {
                    "name": "G4",
                    "midi": 67,
                    "time": 183.71665800000136,
                    "velocity": 0.3543307086614173,
                    "duration": 0.2654865000000086
                },
                {
                    "name": "B4",
                    "midi": 71,
                    "time": 183.71665800000136,
                    "velocity": 0.41732283464566927,
                    "duration": 0.2654865000000086
                },
                {
                    "name": "D4",
                    "midi": 62,
                    "time": 183.98214450000137,
                    "velocity": 0.3700787401574803,
                    "duration": 0.2654865000000086
                },
                {
                    "name": "G4",
                    "midi": 67,
                    "time": 184.24763100000138,
                    "velocity": 0.3543307086614173,
                    "duration": 0.2654865000000086
                },
                {
                    "name": "C#5",
                    "midi": 73,
                    "time": 184.24763100000138,
                    "velocity": 0.4251968503937008,
                    "duration": 0.2654865000000086
                },
                {
                    "name": "E4",
                    "midi": 64,
                    "time": 184.51311750000139,
                    "velocity": 0.3700787401574803,
                    "duration": 0.2654865000000086
                },
                {
                    "name": "F#4",
                    "midi": 66,
                    "time": 184.7786040000014,
                    "velocity": 0.3543307086614173,
                    "duration": 0.2654865000000086
                },
                {
                    "name": "D5",
                    "midi": 74,
                    "time": 184.7786040000014,
                    "velocity": 0.4251968503937008,
                    "duration": 0.2654865000000086
                },
                {
                    "name": "A4",
                    "midi": 69,
                    "time": 185.0440905000014,
                    "velocity": 0.3858267716535433,
                    "duration": 0.2654865000000086
                },
                {
                    "name": "D4",
                    "midi": 62,
                    "time": 185.3095770000014,
                    "velocity": 0.33070866141732286,
                    "duration": 0.2654865000000086
                },
                {
                    "name": "F#4",
                    "midi": 66,
                    "time": 185.3095770000014,
                    "velocity": 0.3937007874015748,
                    "duration": 0.2654865000000086
                },
                {
                    "name": "C#4",
                    "midi": 61,
                    "time": 185.57506350000142,
                    "velocity": 0.30708661417322836,
                    "duration": 0.2654865000000086
                },
                {
                    "name": "E4",
                    "midi": 64,
                    "time": 185.57506350000142,
                    "velocity": 0.3700787401574803,
                    "duration": 0.2654865000000086
                },
                {
                    "name": "D4",
                    "midi": 62,
                    "time": 185.84055000000143,
                    "velocity": 0.33070866141732286,
                    "duration": 0.2654865000000086
                },
                {
                    "name": "F#4",
                    "midi": 66,
                    "time": 185.84055000000143,
                    "velocity": 0.3937007874015748,
                    "duration": 0.2654865000000086
                },
                {
                    "name": "E4",
                    "midi": 64,
                    "time": 186.10603650000144,
                    "velocity": 0.30708661417322836,
                    "duration": 0.2654865000000086
                },
                {
                    "name": "G4",
                    "midi": 67,
                    "time": 186.10603650000144,
                    "velocity": 0.3700787401574803,
                    "duration": 0.2654865000000086
                },
                {
                    "name": "F#4",
                    "midi": 66,
                    "time": 186.37152300000145,
                    "velocity": 0.33070866141732286,
                    "duration": 0.2654865000000086
                },
                {
                    "name": "A4",
                    "midi": 69,
                    "time": 186.37152300000145,
                    "velocity": 0.3937007874015748,
                    "duration": 0.2654865000000086
                },
                {
                    "name": "D4",
                    "midi": 62,
                    "time": 186.63700950000145,
                    "velocity": 0.3543307086614173,
                    "duration": 0.2654865000000086
                },
                {
                    "name": "G4",
                    "midi": 67,
                    "time": 186.90249600000146,
                    "velocity": 0.3543307086614173,
                    "duration": 0.2654865000000086
                },
                {
                    "name": "B4",
                    "midi": 71,
                    "time": 186.90249600000146,
                    "velocity": 0.41732283464566927,
                    "duration": 0.2654865000000086
                },
                {
                    "name": "D4",
                    "midi": 62,
                    "time": 187.16798250000147,
                    "velocity": 0.3700787401574803,
                    "duration": 0.2654865000000086
                },
                {
                    "name": "G4",
                    "midi": 67,
                    "time": 187.43346900000148,
                    "velocity": 0.3543307086614173,
                    "duration": 0.2654865000000086
                },
                {
                    "name": "C#5",
                    "midi": 73,
                    "time": 187.43346900000148,
                    "velocity": 0.4251968503937008,
                    "duration": 0.2654865000000086
                },
                {
                    "name": "E4",
                    "midi": 64,
                    "time": 187.6989555000015,
                    "velocity": 0.3700787401574803,
                    "duration": 0.2654865000000086
                },
                {
                    "name": "F#4",
                    "midi": 66,
                    "time": 187.9644420000015,
                    "velocity": 0.3543307086614173,
                    "duration": 0.2654865000000086
                },
                {
                    "name": "D5",
                    "midi": 74,
                    "time": 187.9644420000015,
                    "velocity": 0.4251968503937008,
                    "duration": 0.2654865000000086
                },
                {
                    "name": "A4",
                    "midi": 69,
                    "time": 188.2299285000015,
                    "velocity": 0.3858267716535433,
                    "duration": 0.2654865000000086
                },
                {
                    "name": "F#4",
                    "midi": 66,
                    "time": 188.49541500000151,
                    "velocity": 0.3543307086614173,
                    "duration": 0.2654865000000086
                },
                {
                    "name": "D5",
                    "midi": 74,
                    "time": 188.49541500000151,
                    "velocity": 0.4251968503937008,
                    "duration": 0.2654865000000086
                },
                {
                    "name": "E4",
                    "midi": 64,
                    "time": 188.76090150000152,
                    "velocity": 0.3228346456692913,
                    "duration": 0.2654865000000086
                },
                {
                    "name": "C#5",
                    "midi": 73,
                    "time": 188.76090150000152,
                    "velocity": 0.3858267716535433,
                    "duration": 0.2654865000000086
                },
                {
                    "name": "D4",
                    "midi": 62,
                    "time": 189.02638800000153,
                    "velocity": 0.3228346456692913,
                    "duration": 0.2654865000000086
                },
                {
                    "name": "B4",
                    "midi": 71,
                    "time": 189.02638800000153,
                    "velocity": 0.3858267716535433,
                    "duration": 0.2654865000000086
                },
                {
                    "name": "C#4",
                    "midi": 61,
                    "time": 189.29187450000154,
                    "velocity": 0.3228346456692913,
                    "duration": 0.2654865000000086
                },
                {
                    "name": "A4",
                    "midi": 69,
                    "time": 189.29187450000154,
                    "velocity": 0.3858267716535433,
                    "duration": 0.2654865000000086
                },
                {
                    "name": "B3",
                    "midi": 59,
                    "time": 189.55736100000155,
                    "velocity": 0.3543307086614173,
                    "duration": 0.2654865000000086
                },
                {
                    "name": "G#4",
                    "midi": 68,
                    "time": 189.55736100000155,
                    "velocity": 0.4251968503937008,
                    "duration": 0.2654865000000086
                },
                {
                    "name": "E4",
                    "midi": 64,
                    "time": 189.82284750000156,
                    "velocity": 0.3700787401574803,
                    "duration": 0.2654865000000086
                },
                {
                    "name": "C#4",
                    "midi": 61,
                    "time": 190.08833400000157,
                    "velocity": 0.33858267716535434,
                    "duration": 0.2654865000000086
                },
                {
                    "name": "A4",
                    "midi": 69,
                    "time": 190.08833400000157,
                    "velocity": 0.4015748031496063,
                    "duration": 0.2654865000000086
                },
                {
                    "name": "E4",
                    "midi": 64,
                    "time": 190.35382050000158,
                    "velocity": 0.33070866141732286,
                    "duration": 0.2654865000000086
                },
                {
                    "name": "A4",
                    "midi": 69,
                    "time": 190.61930700000158,
                    "velocity": 0.3464566929133858,
                    "duration": 0.2654865000000086
                },
                {
                    "name": "C#5",
                    "midi": 73,
                    "time": 190.61930700000158,
                    "velocity": 0.4094488188976378,
                    "duration": 0.2654865000000086
                },
                {
                    "name": "E4",
                    "midi": 64,
                    "time": 190.8847935000016,
                    "velocity": 0.33070866141732286,
                    "duration": 0.2654865000000086
                },
                {
                    "name": "G#4",
                    "midi": 68,
                    "time": 191.1502800000016,
                    "velocity": 0.33858267716535434,
                    "duration": 0.2654865000000086
                },
                {
                    "name": "B4",
                    "midi": 71,
                    "time": 191.1502800000016,
                    "velocity": 0.4015748031496063,
                    "duration": 0.2654865000000086
                },
                {
                    "name": "E4",
                    "midi": 64,
                    "time": 191.4157665000016,
                    "velocity": 0.3464566929133858,
                    "duration": 0.2654865000000086
                },
                {
                    "name": "F#4",
                    "midi": 66,
                    "time": 191.68125300000162,
                    "velocity": 0.3543307086614173,
                    "duration": 0.2654865000000086
                },
                {
                    "name": "D5",
                    "midi": 74,
                    "time": 191.68125300000162,
                    "velocity": 0.4251968503937008,
                    "duration": 0.2654865000000086
                },
                {
                    "name": "E4",
                    "midi": 64,
                    "time": 191.94673950000163,
                    "velocity": 0.3228346456692913,
                    "duration": 0.2654865000000086
                },
                {
                    "name": "C#5",
                    "midi": 73,
                    "time": 191.94673950000163,
                    "velocity": 0.3858267716535433,
                    "duration": 0.2654865000000086
                },
                {
                    "name": "D4",
                    "midi": 62,
                    "time": 192.21222600000164,
                    "velocity": 0.3228346456692913,
                    "duration": 0.2654865000000086
                },
                {
                    "name": "B4",
                    "midi": 71,
                    "time": 192.21222600000164,
                    "velocity": 0.3858267716535433,
                    "duration": 0.2654865000000086
                },
                {
                    "name": "C#4",
                    "midi": 61,
                    "time": 192.47771250000164,
                    "velocity": 0.3228346456692913,
                    "duration": 0.2654865000000086
                },
                {
                    "name": "A4",
                    "midi": 69,
                    "time": 192.47771250000164,
                    "velocity": 0.3858267716535433,
                    "duration": 0.2654865000000086
                },
                {
                    "name": "B3",
                    "midi": 59,
                    "time": 192.74319900000165,
                    "velocity": 0.3543307086614173,
                    "duration": 0.2654865000000086
                },
                {
                    "name": "G#4",
                    "midi": 68,
                    "time": 192.74319900000165,
                    "velocity": 0.4251968503937008,
                    "duration": 0.2654865000000086
                },
                {
                    "name": "E4",
                    "midi": 64,
                    "time": 193.00868550000166,
                    "velocity": 0.3700787401574803,
                    "duration": 0.2654865000000086
                },
                {
                    "name": "C#4",
                    "midi": 61,
                    "time": 193.27417200000167,
                    "velocity": 0.33858267716535434,
                    "duration": 0.2654865000000086
                },
                {
                    "name": "A4",
                    "midi": 69,
                    "time": 193.27417200000167,
                    "velocity": 0.4015748031496063,
                    "duration": 0.2654865000000086
                },
                {
                    "name": "E4",
                    "midi": 64,
                    "time": 193.53965850000168,
                    "velocity": 0.33070866141732286,
                    "duration": 0.2654865000000086
                },
                {
                    "name": "A4",
                    "midi": 69,
                    "time": 193.8051450000017,
                    "velocity": 0.3464566929133858,
                    "duration": 0.2654865000000086
                },
                {
                    "name": "C#5",
                    "midi": 73,
                    "time": 193.8051450000017,
                    "velocity": 0.4094488188976378,
                    "duration": 0.2654865000000086
                },
                {
                    "name": "E4",
                    "midi": 64,
                    "time": 194.0706315000017,
                    "velocity": 0.33070866141732286,
                    "duration": 0.2654865000000086
                },
                {
                    "name": "G#4",
                    "midi": 68,
                    "time": 194.3361180000017,
                    "velocity": 0.33858267716535434,
                    "duration": 0.2654865000000086
                },
                {
                    "name": "B4",
                    "midi": 71,
                    "time": 194.3361180000017,
                    "velocity": 0.4015748031496063,
                    "duration": 0.2654865000000086
                },
                {
                    "name": "E4",
                    "midi": 64,
                    "time": 194.6016045000017,
                    "velocity": 0.3464566929133858,
                    "duration": 0.2654865000000086
                },
                {
                    "name": "E4",
                    "midi": 64,
                    "time": 194.86709100000172,
                    "velocity": 0.5039370078740157,
                    "duration": 1.5929190000000517
                },
                {
                    "name": "C#5",
                    "midi": 73,
                    "time": 194.86709100000172,
                    "velocity": 0.5039370078740157,
                    "duration": 0.2654865000000086
                },
                {
                    "name": "B4",
                    "midi": 71,
                    "time": 195.13257750000173,
                    "velocity": 0.4645669291338583,
                    "duration": 0.2654865000000086
                },
                {
                    "name": "C#5",
                    "midi": 73,
                    "time": 195.39806400000174,
                    "velocity": 0.48031496062992124,
                    "duration": 0.2654865000000086
                },
                {
                    "name": "D5",
                    "midi": 74,
                    "time": 195.66355050000175,
                    "velocity": 0.4251968503937008,
                    "duration": 0.2654865000000086
                },
                {
                    "name": "E5",
                    "midi": 76,
                    "time": 195.92903700000176,
                    "velocity": 0.5196850393700787,
                    "duration": 0.2654865000000086
                },
                {
                    "name": "A4",
                    "midi": 69,
                    "time": 196.19452350000176,
                    "velocity": 0.4645669291338583,
                    "duration": 0.2654865000000086
                },
                {
                    "name": "A4",
                    "midi": 69,
                    "time": 196.46001000000177,
                    "velocity": 0.5039370078740157,
                    "duration": 0.5309730000000172
                },
                {
                    "name": "C#5",
                    "midi": 73,
                    "time": 196.46001000000177,
                    "velocity": 0.5039370078740157,
                    "duration": 0.2654865000000086
                },
                {
                    "name": "E4",
                    "midi": 64,
                    "time": 196.72549650000178,
                    "velocity": 0.4566929133858268,
                    "duration": 0.2654865000000086
                },
                {
                    "name": "G#4",
                    "midi": 68,
                    "time": 196.9909830000018,
                    "velocity": 0.5039370078740157,
                    "duration": 0.5309730000000172
                },
                {
                    "name": "B4",
                    "midi": 71,
                    "time": 196.9909830000018,
                    "velocity": 0.5039370078740157,
                    "duration": 0.2654865000000086
                },
                {
                    "name": "E4",
                    "midi": 64,
                    "time": 197.2564695000018,
                    "velocity": 0.4566929133858268,
                    "duration": 0.2654865000000086
                },
                {
                    "name": "A4",
                    "midi": 69,
                    "time": 197.5219560000018,
                    "velocity": 0.5039370078740157,
                    "duration": 0.2654865000000086
                },
                {
                    "name": "E4",
                    "midi": 64,
                    "time": 197.78744250000182,
                    "velocity": 0.4566929133858268,
                    "duration": 0.2654865000000086
                },
                {
                    "name": "A4",
                    "midi": 69,
                    "time": 198.05292900000182,
                    "velocity": 0.5039370078740157,
                    "duration": 0.2654865000000086
                },
                {
                    "name": "C#5",
                    "midi": 73,
                    "time": 198.05292900000182,
                    "velocity": 0.5039370078740157,
                    "duration": 0.2654865000000086
                },
                {
                    "name": "G#4",
                    "midi": 68,
                    "time": 198.31841550000183,
                    "velocity": 0.4645669291338583,
                    "duration": 0.2654865000000086
                },
                {
                    "name": "B4",
                    "midi": 71,
                    "time": 198.31841550000183,
                    "velocity": 0.4645669291338583,
                    "duration": 0.2654865000000086
                },
                {
                    "name": "A4",
                    "midi": 69,
                    "time": 198.58390200000184,
                    "velocity": 0.48031496062992124,
                    "duration": 0.2654865000000086
                },
                {
                    "name": "C#5",
                    "midi": 73,
                    "time": 198.58390200000184,
                    "velocity": 0.48031496062992124,
                    "duration": 0.2654865000000086
                },
                {
                    "name": "B4",
                    "midi": 71,
                    "time": 198.84938850000185,
                    "velocity": 0.4251968503937008,
                    "duration": 0.2654865000000086
                },
                {
                    "name": "D5",
                    "midi": 74,
                    "time": 198.84938850000185,
                    "velocity": 0.4251968503937008,
                    "duration": 0.2654865000000086
                },
                {
                    "name": "C#5",
                    "midi": 73,
                    "time": 199.11487500000186,
                    "velocity": 0.5196850393700787,
                    "duration": 0.2654865000000086
                },
                {
                    "name": "E5",
                    "midi": 76,
                    "time": 199.11487500000186,
                    "velocity": 0.5196850393700787,
                    "duration": 0.2654865000000086
                },
                {
                    "name": "E4",
                    "midi": 64,
                    "time": 199.38036150000187,
                    "velocity": 0.4645669291338583,
                    "duration": 0.2654865000000086
                },
                {
                    "name": "A4",
                    "midi": 69,
                    "time": 199.64584800000188,
                    "velocity": 0.5039370078740157,
                    "duration": 0.2654865000000086
                },
                {
                    "name": "C#5",
                    "midi": 73,
                    "time": 199.64584800000188,
                    "velocity": 0.5039370078740157,
                    "duration": 0.2654865000000086
                },
                {
                    "name": "E4",
                    "midi": 64,
                    "time": 199.91133450000189,
                    "velocity": 0.4566929133858268,
                    "duration": 0.2654865000000086
                },
                {
                    "name": "G#4",
                    "midi": 68,
                    "time": 200.1768210000019,
                    "velocity": 0.5039370078740157,
                    "duration": 0.2654865000000086
                },
                {
                    "name": "B4",
                    "midi": 71,
                    "time": 200.1768210000019,
                    "velocity": 0.5039370078740157,
                    "duration": 0.2654865000000086
                },
                {
                    "name": "E4",
                    "midi": 64,
                    "time": 200.4423075000019,
                    "velocity": 0.4566929133858268,
                    "duration": 0.2654865000000086
                },
                {
                    "name": "A4",
                    "midi": 69,
                    "time": 200.7077940000019,
                    "velocity": 0.5039370078740157,
                    "duration": 0.2654865000000086
                },
                {
                    "name": "E4",
                    "midi": 64,
                    "time": 200.97328050000192,
                    "velocity": 0.4566929133858268,
                    "duration": 0.2654865000000086
                },
                {
                    "name": "F#4",
                    "midi": 66,
                    "time": 201.23876700000193,
                    "velocity": 0.48031496062992124,
                    "duration": 0.2654865000000086
                },
                {
                    "name": "D5",
                    "midi": 74,
                    "time": 201.50425350000194,
                    "velocity": 0.41732283464566927,
                    "duration": 0.2654865000000086
                },
                {
                    "name": "B4",
                    "midi": 71,
                    "time": 201.76974000000195,
                    "velocity": 0.48031496062992124,
                    "duration": 0.2654865000000086
                },
                {
                    "name": "G#4",
                    "midi": 68,
                    "time": 202.03522650000195,
                    "velocity": 0.4330708661417323,
                    "duration": 0.2654865000000086
                },
                {
                    "name": "A4",
                    "midi": 69,
                    "time": 202.30071300000196,
                    "velocity": 0.4645669291338583,
                    "duration": 0.2654865000000086
                },
                {
                    "name": "E4",
                    "midi": 64,
                    "time": 202.56619950000197,
                    "velocity": 0.3937007874015748,
                    "duration": 0.2654865000000086
                },
                {
                    "name": "F#4",
                    "midi": 66,
                    "time": 202.83168600000198,
                    "velocity": 0.4409448818897638,
                    "duration": 0.2654865000000086
                },
                {
                    "name": "D5",
                    "midi": 74,
                    "time": 203.097172500002,
                    "velocity": 0.3937007874015748,
                    "duration": 0.2654865000000086
                },
                {
                    "name": "B4",
                    "midi": 71,
                    "time": 203.362659000002,
                    "velocity": 0.44881889763779526,
                    "duration": 0.2654865000000086
                },
                {
                    "name": "G#4",
                    "midi": 68,
                    "time": 203.628145500002,
                    "velocity": 0.3779527559055118,
                    "duration": 0.2654865000000086
                },
                {
                    "name": "A4",
                    "midi": 69,
                    "time": 203.89363200000201,
                    "velocity": 0.4094488188976378,
                    "duration": 0.2654865000000086
                },
                {
                    "name": "G#4",
                    "midi": 68,
                    "time": 204.15911850000202,
                    "velocity": 0.36220472440944884,
                    "duration": 0.2654865000000086
                },
                {
                    "name": "A4",
                    "midi": 69,
                    "time": 204.42460500000203,
                    "velocity": 0.4094488188976378,
                    "duration": 0.2654865000000086
                },
                {
                    "name": "B4",
                    "midi": 71,
                    "time": 204.69009150000204,
                    "velocity": 0.3543307086614173,
                    "duration": 0.2654865000000086
                },
                {
                    "name": "G4",
                    "midi": 67,
                    "time": 204.95557800000205,
                    "velocity": 0.3779527559055118,
                    "duration": 0.2654865000000086
                },
                {
                    "name": "E4",
                    "midi": 64,
                    "time": 205.22106450000206,
                    "velocity": 0.3779527559055118,
                    "duration": 0.2654865000000086
                },
                {
                    "name": "F#4",
                    "midi": 66,
                    "time": 205.48655100000207,
                    "velocity": 0.33070866141732286,
                    "duration": 0.2654865000000086
                },
                {
                    "name": "A4",
                    "midi": 69,
                    "time": 205.48655100000207,
                    "velocity": 0.3937007874015748,
                    "duration": 0.2654865000000086
                },
                {
                    "name": "B3",
                    "midi": 59,
                    "time": 205.75203750000207,
                    "velocity": 0.3543307086614173,
                    "duration": 0.2654865000000086
                },
                {
                    "name": "D#4",
                    "midi": 63,
                    "time": 206.01752400000208,
                    "velocity": 0.33070866141732286,
                    "duration": 0.2654865000000086
                },
                {
                    "name": "F#4",
                    "midi": 66,
                    "time": 206.01752400000208,
                    "velocity": 0.3937007874015748,
                    "duration": 0.2654865000000086
                },
                {
                    "name": "B3",
                    "midi": 59,
                    "time": 206.2830105000021,
                    "velocity": 0.3700787401574803,
                    "duration": 0.2654865000000086
                },
                {
                    "name": "E4",
                    "midi": 64,
                    "time": 206.5484970000021,
                    "velocity": 0.3464566929133858,
                    "duration": 0.2654865000000086
                },
                {
                    "name": "G4",
                    "midi": 67,
                    "time": 206.5484970000021,
                    "velocity": 0.4094488188976378,
                    "duration": 0.2654865000000086
                },
                {
                    "name": "B3",
                    "midi": 59,
                    "time": 206.8139835000021,
                    "velocity": 0.3858267716535433,
                    "duration": 0.2654865000000086
                },
                {
                    "name": "A4",
                    "midi": 69,
                    "time": 207.07947000000212,
                    "velocity": 0.4251968503937008,
                    "duration": 0.2654865000000086
                },
                {
                    "name": "F#4",
                    "midi": 66,
                    "time": 207.07947000000212,
                    "velocity": 0.3543307086614173,
                    "duration": 0.2654865000000086
                },
                {
                    "name": "B3",
                    "midi": 59,
                    "time": 207.34495650000213,
                    "velocity": 0.3779527559055118,
                    "duration": 0.2654865000000086
                },
                {
                    "name": "D#4",
                    "midi": 63,
                    "time": 207.61044300000214,
                    "velocity": 0.29133858267716534,
                    "duration": 0.2654865000000086
                },
                {
                    "name": "F#4",
                    "midi": 66,
                    "time": 207.61044300000214,
                    "velocity": 0.3543307086614173,
                    "duration": 0.2654865000000086
                },
                {
                    "name": "B3",
                    "midi": 59,
                    "time": 207.87592950000214,
                    "velocity": 0.33070866141732286,
                    "duration": 0.2654865000000086
                },
                {
                    "name": "E4",
                    "midi": 64,
                    "time": 208.14141600000215,
                    "velocity": 0.30708661417322836,
                    "duration": 0.2654865000000086
                },
                {
                    "name": "G4",
                    "midi": 67,
                    "time": 208.14141600000215,
                    "velocity": 0.36220472440944884,
                    "duration": 0.2654865000000086
                },
                {
                    "name": "B3",
                    "midi": 59,
                    "time": 208.40690250000216,
                    "velocity": 0.3464566929133858,
                    "duration": 0.2654865000000086
                },
                {
                    "name": "A4",
                    "midi": 69,
                    "time": 208.67238900000217,
                    "velocity": 0.3779527559055118,
                    "duration": 0.2654865000000086
                },
                {
                    "name": "F#4",
                    "midi": 66,
                    "time": 208.67238900000217,
                    "velocity": 0.31496062992125984,
                    "duration": 0.2654865000000086
                },
                {
                    "name": "B3",
                    "midi": 59,
                    "time": 208.93787550000218,
                    "velocity": 0.33858267716535434,
                    "duration": 0.2654865000000086
                },
                {
                    "name": "D#4",
                    "midi": 63,
                    "time": 209.2033620000022,
                    "velocity": 0.29133858267716534,
                    "duration": 0.2654865000000086
                },
                {
                    "name": "F#4",
                    "midi": 66,
                    "time": 209.2033620000022,
                    "velocity": 0.3543307086614173,
                    "duration": 0.2654865000000086
                },
                {
                    "name": "B3",
                    "midi": 59,
                    "time": 209.4688485000022,
                    "velocity": 0.33070866141732286,
                    "duration": 0.2654865000000086
                },
                {
                    "name": "E4",
                    "midi": 64,
                    "time": 209.7343350000022,
                    "velocity": 0.30708661417322836,
                    "duration": 0.2654865000000086
                },
                {
                    "name": "G4",
                    "midi": 67,
                    "time": 209.7343350000022,
                    "velocity": 0.36220472440944884,
                    "duration": 0.2654865000000086
                },
                {
                    "name": "B3",
                    "midi": 59,
                    "time": 209.9998215000022,
                    "velocity": 0.3464566929133858,
                    "duration": 0.2654865000000086
                },
                {
                    "name": "A4",
                    "midi": 69,
                    "time": 210.26530800000222,
                    "velocity": 0.3779527559055118,
                    "duration": 0.5309729999999888
                },
                {
                    "name": "F#4",
                    "midi": 66,
                    "time": 210.26530800000222,
                    "velocity": 0.31496062992125984,
                    "duration": 0.5309729999999888
                },
                {
                    "name": "B4",
                    "midi": 71,
                    "time": 210.7962810000022,
                    "velocity": 0.47244094488188976,
                    "duration": 0.23893785000001344
                },
                {
                    "name": "B5",
                    "midi": 83,
                    "time": 210.7962810000022,
                    "velocity": 0.5590551181102362,
                    "duration": 0.23893785000001344
                },
                {
                    "name": "A4",
                    "midi": 69,
                    "time": 211.06176750000222,
                    "velocity": 0.4409448818897638,
                    "duration": 0.23893785000001344
                },
                {
                    "name": "A5",
                    "midi": 81,
                    "time": 211.06176750000222,
                    "velocity": 0.5196850393700787,
                    "duration": 0.23893785000001344
                },
                {
                    "name": "G4",
                    "midi": 67,
                    "time": 211.32725400000223,
                    "velocity": 0.47244094488188976,
                    "duration": 0.23893785000001344
                },
                {
                    "name": "G5",
                    "midi": 79,
                    "time": 211.32725400000223,
                    "velocity": 0.5590551181102362,
                    "duration": 0.23893785000001344
                },
                {
                    "name": "F#4",
                    "midi": 66,
                    "time": 211.59274050000224,
                    "velocity": 0.4409448818897638,
                    "duration": 0.23893785000001344
                },
                {
                    "name": "F#5",
                    "midi": 78,
                    "time": 211.59274050000224,
                    "velocity": 0.5275590551181102,
                    "duration": 0.23893785000001344
                },
                {
                    "name": "E4",
                    "midi": 64,
                    "time": 211.85822700000224,
                    "velocity": 0.4881889763779528,
                    "duration": 0.47787569999999846
                },
                {
                    "name": "E5",
                    "midi": 76,
                    "time": 211.85822700000224,
                    "velocity": 0.5826771653543307,
                    "duration": 0.47787569999999846
                },
                {
                    "name": "E4",
                    "midi": 64,
                    "time": 212.38920000000223,
                    "velocity": 0.47244094488188976,
                    "duration": 0.47787569999999846
                },
                {
                    "name": "E5",
                    "midi": 76,
                    "time": 212.38920000000223,
                    "velocity": 0.5590551181102362,
                    "duration": 0.47787569999999846
                },
                {
                    "name": "B4",
                    "midi": 71,
                    "time": 212.92017300000222,
                    "velocity": 0.48031496062992124,
                    "duration": 0.47787569999999846
                },
                {
                    "name": "B5",
                    "midi": 83,
                    "time": 212.92017300000222,
                    "velocity": 0.5748031496062992,
                    "duration": 0.47787569999999846
                },
                {
                    "name": "E4",
                    "midi": 64,
                    "time": 213.4511460000022,
                    "velocity": 0.47244094488188976,
                    "duration": 0.47787569999999846
                },
                {
                    "name": "E5",
                    "midi": 76,
                    "time": 213.4511460000022,
                    "velocity": 0.5590551181102362,
                    "duration": 0.47787569999999846
                },
                {
                    "name": "B4",
                    "midi": 71,
                    "time": 213.9821190000022,
                    "velocity": 0.47244094488188976,
                    "duration": 0.23893785000001344
                },
                {
                    "name": "B5",
                    "midi": 83,
                    "time": 213.9821190000022,
                    "velocity": 0.5590551181102362,
                    "duration": 0.23893785000001344
                },
                {
                    "name": "A4",
                    "midi": 69,
                    "time": 214.2476055000022,
                    "velocity": 0.4409448818897638,
                    "duration": 0.23893785000001344
                },
                {
                    "name": "A5",
                    "midi": 81,
                    "time": 214.2476055000022,
                    "velocity": 0.5196850393700787,
                    "duration": 0.23893785000001344
                },
                {
                    "name": "G4",
                    "midi": 67,
                    "time": 214.51309200000222,
                    "velocity": 0.47244094488188976,
                    "duration": 0.23893785000001344
                },
                {
                    "name": "G5",
                    "midi": 79,
                    "time": 214.51309200000222,
                    "velocity": 0.5590551181102362,
                    "duration": 0.23893785000001344
                },
                {
                    "name": "F#4",
                    "midi": 66,
                    "time": 214.77857850000223,
                    "velocity": 0.4409448818897638,
                    "duration": 0.23893785000001344
                },
                {
                    "name": "F#5",
                    "midi": 78,
                    "time": 214.77857850000223,
                    "velocity": 0.5275590551181102,
                    "duration": 0.23893785000001344
                },
                {
                    "name": "E4",
                    "midi": 64,
                    "time": 215.04406500000223,
                    "velocity": 0.4881889763779528,
                    "duration": 0.47787569999999846
                },
                {
                    "name": "E5",
                    "midi": 76,
                    "time": 215.04406500000223,
                    "velocity": 0.5826771653543307,
                    "duration": 0.47787569999999846
                },
                {
                    "name": "E4",
                    "midi": 64,
                    "time": 215.57503800000222,
                    "velocity": 0.47244094488188976,
                    "duration": 0.47787569999999846
                },
                {
                    "name": "E5",
                    "midi": 76,
                    "time": 215.57503800000222,
                    "velocity": 0.5590551181102362,
                    "duration": 0.47787569999999846
                },
                {
                    "name": "B4",
                    "midi": 71,
                    "time": 216.1060110000022,
                    "velocity": 0.48031496062992124,
                    "duration": 0.47787569999999846
                },
                {
                    "name": "B5",
                    "midi": 83,
                    "time": 216.1060110000022,
                    "velocity": 0.5748031496062992,
                    "duration": 0.47787569999999846
                },
                {
                    "name": "E4",
                    "midi": 64,
                    "time": 216.6369840000022,
                    "velocity": 0.47244094488188976,
                    "duration": 0.47787569999999846
                },
                {
                    "name": "E5",
                    "midi": 76,
                    "time": 216.6369840000022,
                    "velocity": 0.5590551181102362,
                    "duration": 0.47787569999999846
                },
                {
                    "name": "E5",
                    "midi": 76,
                    "time": 217.1679570000022,
                    "velocity": 0.3937007874015748,
                    "duration": 0.19911487499999225
                },
                {
                    "name": "D5",
                    "midi": 74,
                    "time": 217.43344350000217,
                    "velocity": 0.36220472440944884,
                    "duration": 0.19911487499999225
                },
                {
                    "name": "E5",
                    "midi": 76,
                    "time": 217.69893000000215,
                    "velocity": 0.3937007874015748,
                    "duration": 0.19911487499999225
                },
                {
                    "name": "F5",
                    "midi": 77,
                    "time": 217.96441650000213,
                    "velocity": 0.3700787401574803,
                    "duration": 0.19911487499999225
                },
                {
                    "name": "G5",
                    "midi": 79,
                    "time": 218.2299030000021,
                    "velocity": 0.4015748031496063,
                    "duration": 0.5309729999999888
                },
                {
                    "name": "G5",
                    "midi": 79,
                    "time": 218.7608760000021,
                    "velocity": 0.41732283464566927,
                    "duration": 0.7964594999999974
                },
                {
                    "name": "G5",
                    "midi": 79,
                    "time": 219.5573355000021,
                    "velocity": 0.3937007874015748,
                    "duration": 0.2654865000000086
                },
                {
                    "name": "C6",
                    "midi": 84,
                    "time": 219.8228220000021,
                    "velocity": 0.4330708661417323,
                    "duration": 0.5309729999999888
                },
                {
                    "name": "G5",
                    "midi": 79,
                    "time": 220.3537950000021,
                    "velocity": 0.3937007874015748,
                    "duration": 0.5309729999999888
                },
                {
                    "name": "G5",
                    "midi": 79,
                    "time": 221.41574100000207,
                    "velocity": 0.4409448818897638,
                    "duration": 0.5309729999999888
                },
                {
                    "name": "G5",
                    "midi": 79,
                    "time": 221.94671400000206,
                    "velocity": 0.4566929133858268,
                    "duration": 0.7964594999999974
                },
                {
                    "name": "G5",
                    "midi": 79,
                    "time": 222.74317350000206,
                    "velocity": 0.4330708661417323,
                    "duration": 0.2654865000000086
                },
                {
                    "name": "C6",
                    "midi": 84,
                    "time": 223.00866000000207,
                    "velocity": 0.47244094488188976,
                    "duration": 0.5309729999999888
                },
                {
                    "name": "G5",
                    "midi": 79,
                    "time": 223.53963300000206,
                    "velocity": 0.4330708661417323,
                    "duration": 0.5309729999999888
                },
                {
                    "name": "G5",
                    "midi": 79,
                    "time": 224.46883575000206,
                    "velocity": 0.48031496062992124,
                    "duration": 0.1327432500000043
                },
                {
                    "name": "E6",
                    "midi": 88,
                    "time": 224.60157900000206,
                    "velocity": 0.5511811023622047,
                    "duration": 0.5309729999999888
                },
                {
                    "name": "G5",
                    "midi": 79,
                    "time": 225.13255200000205,
                    "velocity": 0.4330708661417323,
                    "duration": 0.5309729999999888
                },
                {
                    "name": "G5",
                    "midi": 79,
                    "time": 226.06175475000205,
                    "velocity": 0.5118110236220472,
                    "duration": 0.1327432500000043
                },
                {
                    "name": "E6",
                    "midi": 88,
                    "time": 226.19449800000206,
                    "velocity": 0.5826771653543307,
                    "duration": 0.5309729999999888
                },
                {
                    "name": "G5",
                    "midi": 79,
                    "time": 226.72547100000205,
                    "velocity": 0.48031496062992124,
                    "duration": 0.5309729999999888
                },
                {
                    "name": "G5",
                    "midi": 79,
                    "time": 227.65467375000205,
                    "velocity": 0.4330708661417323,
                    "duration": 0.1327432500000043
                },
                {
                    "name": "G5",
                    "midi": 79,
                    "time": 227.78741700000205,
                    "velocity": 0.47244094488188976,
                    "duration": 0.2654865000000086
                },
                {
                    "name": "F5",
                    "midi": 77,
                    "time": 228.05290350000206,
                    "velocity": 0.4566929133858268,
                    "duration": 0.2654865000000086
                },
                {
                    "name": "E5",
                    "midi": 76,
                    "time": 228.31839000000207,
                    "velocity": 0.4566929133858268,
                    "duration": 0.2654865000000086
                },
                {
                    "name": "F5",
                    "midi": 77,
                    "time": 228.58387650000208,
                    "velocity": 0.4251968503937008,
                    "duration": 0.2654865000000086
                },
                {
                    "name": "E5",
                    "midi": 76,
                    "time": 228.84936300000209,
                    "velocity": 0.4566929133858268,
                    "duration": 0.2654865000000086
                },
                {
                    "name": "D5",
                    "midi": 74,
                    "time": 229.1148495000021,
                    "velocity": 0.4330708661417323,
                    "duration": 0.2654865000000086
                },
                {
                    "name": "C#5",
                    "midi": 73,
                    "time": 229.3803360000021,
                    "velocity": 0.4566929133858268,
                    "duration": 0.2654865000000086
                },
                {
                    "name": "G#5",
                    "midi": 80,
                    "time": 229.6458225000021,
                    "velocity": 0.4330708661417323,
                    "duration": 0.2654865000000086
                },
                {
                    "name": "A5",
                    "midi": 81,
                    "time": 229.91130900000212,
                    "velocity": 0.4566929133858268,
                    "duration": 0.2654865000000086
                },
                {
                    "name": "G#5",
                    "midi": 80,
                    "time": 230.17679550000213,
                    "velocity": 0.4330708661417323,
                    "duration": 0.2654865000000086
                },
                {
                    "name": "A5",
                    "midi": 81,
                    "time": 230.44228200000214,
                    "velocity": 0.4566929133858268,
                    "duration": 0.2654865000000086
                },
                {
                    "name": "E5",
                    "midi": 76,
                    "time": 230.70776850000215,
                    "velocity": 0.4330708661417323,
                    "duration": 0.2654865000000086
                },
                {
                    "name": "G5",
                    "midi": 79,
                    "time": 230.97325500000215,
                    "velocity": 0.47244094488188976,
                    "duration": 0.2654865000000086
                },
                {
                    "name": "F5",
                    "midi": 77,
                    "time": 231.23874150000216,
                    "velocity": 0.4566929133858268,
                    "duration": 0.2654865000000086
                },
                {
                    "name": "E5",
                    "midi": 76,
                    "time": 231.50422800000217,
                    "velocity": 0.4566929133858268,
                    "duration": 0.2654865000000086
                },
                {
                    "name": "F5",
                    "midi": 77,
                    "time": 231.76971450000218,
                    "velocity": 0.4251968503937008,
                    "duration": 0.2654865000000086
                },
                {
                    "name": "E5",
                    "midi": 76,
                    "time": 232.0352010000022,
                    "velocity": 0.4566929133858268,
                    "duration": 0.2654865000000086
                },
                {
                    "name": "D5",
                    "midi": 74,
                    "time": 232.3006875000022,
                    "velocity": 0.4330708661417323,
                    "duration": 0.2654865000000086
                },
                {
                    "name": "A5",
                    "midi": 81,
                    "time": 232.5661740000022,
                    "velocity": 0.4566929133858268,
                    "duration": 0.2654865000000086
                },
                {
                    "name": "G#5",
                    "midi": 80,
                    "time": 232.83166050000222,
                    "velocity": 0.4330708661417323,
                    "duration": 0.2654865000000086
                },
                {
                    "name": "A5",
                    "midi": 81,
                    "time": 233.09714700000222,
                    "velocity": 0.4566929133858268,
                    "duration": 0.2654865000000086
                },
                {
                    "name": "E5",
                    "midi": 76,
                    "time": 233.36263350000223,
                    "velocity": 0.4330708661417323,
                    "duration": 0.2654865000000086
                },
                {
                    "name": "F5",
                    "midi": 77,
                    "time": 233.62812000000224,
                    "velocity": 0.4566929133858268,
                    "duration": 0.2654865000000086
                },
                {
                    "name": "D5",
                    "midi": 74,
                    "time": 233.89360650000225,
                    "velocity": 0.4330708661417323,
                    "duration": 0.2654865000000086
                },
                {
                    "name": "A5",
                    "midi": 81,
                    "time": 234.15909300000226,
                    "velocity": 0.4566929133858268,
                    "duration": 0.2654865000000086
                },
                {
                    "name": "G#5",
                    "midi": 80,
                    "time": 234.42457950000227,
                    "velocity": 0.4330708661417323,
                    "duration": 0.2654865000000086
                },
                {
                    "name": "A5",
                    "midi": 81,
                    "time": 234.69006600000228,
                    "velocity": 0.4566929133858268,
                    "duration": 0.2654865000000086
                },
                {
                    "name": "E5",
                    "midi": 76,
                    "time": 234.95555250000228,
                    "velocity": 0.4330708661417323,
                    "duration": 0.2654865000000086
                },
                {
                    "name": "F5",
                    "midi": 77,
                    "time": 235.2210390000023,
                    "velocity": 0.4566929133858268,
                    "duration": 0.2654865000000086
                },
                {
                    "name": "D5",
                    "midi": 74,
                    "time": 235.4865255000023,
                    "velocity": 0.3858267716535433,
                    "duration": 0.2654865000000086
                },
                {
                    "name": "A4",
                    "midi": 69,
                    "time": 235.7520120000023,
                    "velocity": 0.4015748031496063,
                    "duration": 0.2654865000000086
                },
                {
                    "name": "G#4",
                    "midi": 68,
                    "time": 236.01749850000232,
                    "velocity": 0.3543307086614173,
                    "duration": 0.2654865000000086
                },
                {
                    "name": "A4",
                    "midi": 69,
                    "time": 236.28298500000233,
                    "velocity": 0.4015748031496063,
                    "duration": 0.2654865000000086
                },
                {
                    "name": "G#4",
                    "midi": 68,
                    "time": 236.54847150000234,
                    "velocity": 0.3700787401574803,
                    "duration": 0.2654865000000086
                },
                {
                    "name": "A4",
                    "midi": 69,
                    "time": 236.81395800000234,
                    "velocity": 0.4015748031496063,
                    "duration": 0.2654865000000086
                },
                {
                    "name": "G#4",
                    "midi": 68,
                    "time": 237.07944450000235,
                    "velocity": 0.3464566929133858,
                    "duration": 0.2654865000000086
                },
                {
                    "name": "F#4",
                    "midi": 66,
                    "time": 237.34493100000236,
                    "velocity": 0.33070866141732286,
                    "duration": 0.2654865000000086
                },
                {
                    "name": "A4",
                    "midi": 69,
                    "time": 237.34493100000236,
                    "velocity": 0.3937007874015748,
                    "duration": 0.2654865000000086
                },
                {
                    "name": "A3",
                    "midi": 57,
                    "time": 237.61041750000237,
                    "velocity": 0.3543307086614173,
                    "duration": 0.2654865000000086
                },
                {
                    "name": "D4",
                    "midi": 62,
                    "time": 237.87590400000238,
                    "velocity": 0.33070866141732286,
                    "duration": 0.2654865000000086
                },
                {
                    "name": "F#4",
                    "midi": 66,
                    "time": 237.87590400000238,
                    "velocity": 0.3937007874015748,
                    "duration": 0.2654865000000086
                },
                {
                    "name": "A3",
                    "midi": 57,
                    "time": 238.1413905000024,
                    "velocity": 0.3700787401574803,
                    "duration": 0.2654865000000086
                },
                {
                    "name": "E4",
                    "midi": 64,
                    "time": 238.4068770000024,
                    "velocity": 0.3464566929133858,
                    "duration": 0.2654865000000086
                },
                {
                    "name": "G4",
                    "midi": 67,
                    "time": 238.4068770000024,
                    "velocity": 0.4094488188976378,
                    "duration": 0.2654865000000086
                },
                {
                    "name": "A3",
                    "midi": 57,
                    "time": 238.6723635000024,
                    "velocity": 0.3858267716535433,
                    "duration": 0.2654865000000086
                },
                {
                    "name": "A4",
                    "midi": 69,
                    "time": 238.9378500000024,
                    "velocity": 0.4251968503937008,
                    "duration": 0.2654865000000086
                },
                {
                    "name": "F#4",
                    "midi": 66,
                    "time": 238.9378500000024,
                    "velocity": 0.3543307086614173,
                    "duration": 0.2654865000000086
                },
                {
                    "name": "D4",
                    "midi": 62,
                    "time": 239.20333650000242,
                    "velocity": 0.3779527559055118,
                    "duration": 0.2654865000000086
                },
                {
                    "name": "B4",
                    "midi": 71,
                    "time": 239.46882300000243,
                    "velocity": 0.33070866141732286,
                    "duration": 0.2654865000000086
                },
                {
                    "name": "D5",
                    "midi": 74,
                    "time": 239.46882300000243,
                    "velocity": 0.3937007874015748,
                    "duration": 0.2654865000000086
                },
                {
                    "name": "A4",
                    "midi": 69,
                    "time": 239.73430950000244,
                    "velocity": 0.30708661417322836,
                    "duration": 0.2654865000000086
                },
                {
                    "name": "C#5",
                    "midi": 73,
                    "time": 239.73430950000244,
                    "velocity": 0.3700787401574803,
                    "duration": 0.2654865000000086
                },
                {
                    "name": "G4",
                    "midi": 67,
                    "time": 239.99979600000245,
                    "velocity": 0.33070866141732286,
                    "duration": 0.2654865000000086
                },
                {
                    "name": "B4",
                    "midi": 71,
                    "time": 239.99979600000245,
                    "velocity": 0.3937007874015748,
                    "duration": 0.2654865000000086
                },
                {
                    "name": "F#4",
                    "midi": 66,
                    "time": 240.26528250000246,
                    "velocity": 0.30708661417322836,
                    "duration": 0.2654865000000086
                },
                {
                    "name": "A4",
                    "midi": 69,
                    "time": 240.26528250000246,
                    "velocity": 0.3700787401574803,
                    "duration": 0.2654865000000086
                },
                {
                    "name": "G4",
                    "midi": 67,
                    "time": 240.53076900000246,
                    "velocity": 0.3937007874015748,
                    "duration": 0.2654865000000086
                },
                {
                    "name": "D4",
                    "midi": 62,
                    "time": 240.79625550000247,
                    "velocity": 0.3543307086614173,
                    "duration": 0.2654865000000086
                },
                {
                    "name": "F#4",
                    "midi": 66,
                    "time": 241.06174200000248,
                    "velocity": 0.3543307086614173,
                    "duration": 0.2654865000000086
                },
                {
                    "name": "A4",
                    "midi": 69,
                    "time": 241.06174200000248,
                    "velocity": 0.41732283464566927,
                    "duration": 0.2654865000000086
                },
                {
                    "name": "D4",
                    "midi": 62,
                    "time": 241.3272285000025,
                    "velocity": 0.3700787401574803,
                    "duration": 0.2654865000000086
                },
                {
                    "name": "G4",
                    "midi": 67,
                    "time": 241.5927150000025,
                    "velocity": 0.3543307086614173,
                    "duration": 0.2654865000000086
                },
                {
                    "name": "B4",
                    "midi": 71,
                    "time": 241.5927150000025,
                    "velocity": 0.4251968503937008,
                    "duration": 0.2654865000000086
                },
                {
                    "name": "D4",
                    "midi": 62,
                    "time": 241.8582015000025,
                    "velocity": 0.3700787401574803,
                    "duration": 0.2654865000000086
                },
                {
                    "name": "A4",
                    "midi": 69,
                    "time": 242.12368800000252,
                    "velocity": 0.4251968503937008,
                    "duration": 0.2654865000000086
                },
                {
                    "name": "F#4",
                    "midi": 66,
                    "time": 242.12368800000252,
                    "velocity": 0.3543307086614173,
                    "duration": 0.2654865000000086
                },
                {
                    "name": "D4",
                    "midi": 62,
                    "time": 242.38917450000253,
                    "velocity": 0.3779527559055118,
                    "duration": 0.2654865000000086
                },
                {
                    "name": "B4",
                    "midi": 71,
                    "time": 242.65466100000253,
                    "velocity": 0.30708661417322836,
                    "duration": 0.2654865000000086
                },
                {
                    "name": "D5",
                    "midi": 74,
                    "time": 242.65466100000253,
                    "velocity": 0.3700787401574803,
                    "duration": 0.2654865000000086
                },
                {
                    "name": "A4",
                    "midi": 69,
                    "time": 242.92014750000254,
                    "velocity": 0.29133858267716534,
                    "duration": 0.2654865000000086
                },
                {
                    "name": "C#5",
                    "midi": 73,
                    "time": 242.92014750000254,
                    "velocity": 0.3464566929133858,
                    "duration": 0.2654865000000086
                },
                {
                    "name": "G4",
                    "midi": 67,
                    "time": 243.18563400000255,
                    "velocity": 0.30708661417322836,
                    "duration": 0.2654865000000086
                },
                {
                    "name": "B4",
                    "midi": 71,
                    "time": 243.18563400000255,
                    "velocity": 0.3700787401574803,
                    "duration": 0.2654865000000086
                },
                {
                    "name": "F#4",
                    "midi": 66,
                    "time": 243.45112050000256,
                    "velocity": 0.29133858267716534,
                    "duration": 0.2654865000000086
                },
                {
                    "name": "A4",
                    "midi": 69,
                    "time": 243.45112050000256,
                    "velocity": 0.3464566929133858,
                    "duration": 0.2654865000000086
                },
                {
                    "name": "E4",
                    "midi": 64,
                    "time": 243.71660700000257,
                    "velocity": 0.33070866141732286,
                    "duration": 0.2654865000000086
                },
                {
                    "name": "G4",
                    "midi": 67,
                    "time": 243.71660700000257,
                    "velocity": 0.3700787401574803,
                    "duration": 0.2654865000000086
                },
                {
                    "name": "D4",
                    "midi": 62,
                    "time": 243.98209350000258,
                    "velocity": 0.33070866141732286,
                    "duration": 0.2654865000000086
                },
                {
                    "name": "F#4",
                    "midi": 66,
                    "time": 244.24758000000259,
                    "velocity": 0.33070866141732286,
                    "duration": 0.2654865000000086
                },
                {
                    "name": "A4",
                    "midi": 69,
                    "time": 244.24758000000259,
                    "velocity": 0.3937007874015748,
                    "duration": 0.2654865000000086
                },
                {
                    "name": "D4",
                    "midi": 62,
                    "time": 244.5130665000026,
                    "velocity": 0.3464566929133858,
                    "duration": 0.2654865000000086
                },
                {
                    "name": "G4",
                    "midi": 67,
                    "time": 244.7785530000026,
                    "velocity": 0.33070866141732286,
                    "duration": 0.2654865000000086
                },
                {
                    "name": "B4",
                    "midi": 71,
                    "time": 244.7785530000026,
                    "velocity": 0.4015748031496063,
                    "duration": 0.2654865000000086
                },
                {
                    "name": "D4",
                    "midi": 62,
                    "time": 245.0440395000026,
                    "velocity": 0.3464566929133858,
                    "duration": 0.2654865000000086
                },
                {
                    "name": "A4",
                    "midi": 69,
                    "time": 245.30952600000262,
                    "velocity": 0.4015748031496063,
                    "duration": 0.2654865000000086
                },
                {
                    "name": "F#4",
                    "midi": 66,
                    "time": 245.30952600000262,
                    "velocity": 0.33070866141732286,
                    "duration": 0.2654865000000086
                },
                {
                    "name": "D4",
                    "midi": 62,
                    "time": 245.57501250000263,
                    "velocity": 0.3543307086614173,
                    "duration": 0.2654865000000086
                },
                {
                    "name": "G4",
                    "midi": 67,
                    "time": 245.84049900000264,
                    "velocity": 0.33070866141732286,
                    "duration": 0.2654865000000086
                },
                {
                    "name": "B4",
                    "midi": 71,
                    "time": 245.84049900000264,
                    "velocity": 0.3937007874015748,
                    "duration": 0.2654865000000086
                },
                {
                    "name": "F#4",
                    "midi": 66,
                    "time": 246.10598550000265,
                    "velocity": 0.30708661417322836,
                    "duration": 0.2654865000000086
                },
                {
                    "name": "A4",
                    "midi": 69,
                    "time": 246.10598550000265,
                    "velocity": 0.3700787401574803,
                    "duration": 0.2654865000000086
                },
                {
                    "name": "E4",
                    "midi": 64,
                    "time": 246.37147200000265,
                    "velocity": 0.33070866141732286,
                    "duration": 0.2654865000000086
                },
                {
                    "name": "G4",
                    "midi": 67,
                    "time": 246.37147200000265,
                    "velocity": 0.3937007874015748,
                    "duration": 0.2654865000000086
                },
                {
                    "name": "D4",
                    "midi": 62,
                    "time": 246.63695850000266,
                    "velocity": 0.30708661417322836,
                    "duration": 0.2654865000000086
                },
                {
                    "name": "F#4",
                    "midi": 66,
                    "time": 246.63695850000266,
                    "velocity": 0.3700787401574803,
                    "duration": 0.2654865000000086
                },
                {
                    "name": "C#4",
                    "midi": 61,
                    "time": 246.90244500000267,
                    "velocity": 0.3543307086614173,
                    "duration": 0.2654865000000086
                },
                {
                    "name": "E4",
                    "midi": 64,
                    "time": 246.90244500000267,
                    "velocity": 0.3937007874015748,
                    "duration": 0.2654865000000086
                },
                {
                    "name": "A3",
                    "midi": 57,
                    "time": 247.16793150000268,
                    "velocity": 0.3543307086614173,
                    "duration": 0.2654865000000086
                },
                {
                    "name": "D4",
                    "midi": 62,
                    "time": 247.4334180000027,
                    "velocity": 0.3543307086614173,
                    "duration": 0.2654865000000086
                },
                {
                    "name": "A4",
                    "midi": 69,
                    "time": 247.4334180000027,
                    "velocity": 0.41732283464566927,
                    "duration": 0.2654865000000086
                },
                {
                    "name": "A3",
                    "midi": 57,
                    "time": 247.6989045000027,
                    "velocity": 0.3700787401574803,
                    "duration": 0.2654865000000086
                },
                {
                    "name": "D4",
                    "midi": 62,
                    "time": 247.9643910000027,
                    "velocity": 0.3543307086614173,
                    "duration": 0.2654865000000086
                },
                {
                    "name": "F#4",
                    "midi": 66,
                    "time": 247.9643910000027,
                    "velocity": 0.4251968503937008,
                    "duration": 0.2654865000000086
                },
                {
                    "name": "A3",
                    "midi": 57,
                    "time": 248.22987750000271,
                    "velocity": 0.3700787401574803,
                    "duration": 0.2654865000000086
                },
                {
                    "name": "E4",
                    "midi": 64,
                    "time": 248.49536400000272,
                    "velocity": 0.4251968503937008,
                    "duration": 0.2654865000000086
                },
                {
                    "name": "C#4",
                    "midi": 61,
                    "time": 248.49536400000272,
                    "velocity": 0.3543307086614173,
                    "duration": 0.2654865000000086
                },
                {
                    "name": "A3",
                    "midi": 57,
                    "time": 248.76085050000273,
                    "velocity": 0.3779527559055118,
                    "duration": 0.2654865000000086
                },
                {
                    "name": "G4",
                    "midi": 67,
                    "time": 249.02633700000274,
                    "velocity": 0.30708661417322836,
                    "duration": 0.2654865000000086
                },
                {
                    "name": "B4",
                    "midi": 71,
                    "time": 249.02633700000274,
                    "velocity": 0.3700787401574803,
                    "duration": 0.2654865000000086
                },
                {
                    "name": "F#4",
                    "midi": 66,
                    "time": 249.29182350000275,
                    "velocity": 0.29133858267716534,
                    "duration": 0.2654865000000086
                },
                {
                    "name": "A4",
                    "midi": 69,
                    "time": 249.29182350000275,
                    "velocity": 0.3464566929133858,
                    "duration": 0.2654865000000086
                },
                {
                    "name": "E4",
                    "midi": 64,
                    "time": 249.55731000000276,
                    "velocity": 0.30708661417322836,
                    "duration": 0.2654865000000086
                },
                {
                    "name": "G4",
                    "midi": 67,
                    "time": 249.55731000000276,
                    "velocity": 0.3700787401574803,
                    "duration": 0.2654865000000086
                },
                {
                    "name": "D4",
                    "midi": 62,
                    "time": 249.82279650000277,
                    "velocity": 0.29133858267716534,
                    "duration": 0.2654865000000086
                },
                {
                    "name": "F#4",
                    "midi": 66,
                    "time": 249.82279650000277,
                    "velocity": 0.3464566929133858,
                    "duration": 0.2654865000000086
                },
                {
                    "name": "C#4",
                    "midi": 61,
                    "time": 250.08828300000278,
                    "velocity": 0.33070866141732286,
                    "duration": 0.2654865000000086
                },
                {
                    "name": "E4",
                    "midi": 64,
                    "time": 250.08828300000278,
                    "velocity": 0.3700787401574803,
                    "duration": 0.2654865000000086
                },
                {
                    "name": "A3",
                    "midi": 57,
                    "time": 250.35376950000278,
                    "velocity": 0.33070866141732286,
                    "duration": 0.2654865000000086
                },
                {
                    "name": "F#4",
                    "midi": 66,
                    "time": 250.6192560000028,
                    "velocity": 0.33070866141732286,
                    "duration": 0.2654865000000086
                },
                {
                    "name": "A4",
                    "midi": 69,
                    "time": 250.6192560000028,
                    "velocity": 0.3937007874015748,
                    "duration": 0.2654865000000086
                },
                {
                    "name": "A3",
                    "midi": 57,
                    "time": 250.8847425000028,
                    "velocity": 0.3464566929133858,
                    "duration": 0.2654865000000086
                },
                {
                    "name": "D4",
                    "midi": 62,
                    "time": 251.1502290000028,
                    "velocity": 0.33070866141732286,
                    "duration": 0.2654865000000086
                },
                {
                    "name": "F#4",
                    "midi": 66,
                    "time": 251.1502290000028,
                    "velocity": 0.4015748031496063,
                    "duration": 0.2654865000000086
                },
                {
                    "name": "A3",
                    "midi": 57,
                    "time": 251.41571550000282,
                    "velocity": 0.3464566929133858,
                    "duration": 0.2654865000000086
                },
                {
                    "name": "E4",
                    "midi": 64,
                    "time": 251.68120200000283,
                    "velocity": 0.4015748031496063,
                    "duration": 0.2654865000000086
                },
                {
                    "name": "C#4",
                    "midi": 61,
                    "time": 251.68120200000283,
                    "velocity": 0.33070866141732286,
                    "duration": 0.2654865000000086
                },
                {
                    "name": "A4",
                    "midi": 69,
                    "time": 251.94668850000284,
                    "velocity": 0.3543307086614173,
                    "duration": 0.2654865000000086
                },
                {
                    "name": "D4",
                    "midi": 62,
                    "time": 252.21217500000284,
                    "velocity": 0.3937007874015748,
                    "duration": 1.327432500000043
                },
                {
                    "name": "D5",
                    "midi": 74,
                    "time": 252.21217500000284,
                    "velocity": 0.5039370078740157,
                    "duration": 0.2654865000000086
                },
                {
                    "name": "C#5",
                    "midi": 73,
                    "time": 252.47766150000285,
                    "velocity": 0.4645669291338583,
                    "duration": 0.2654865000000086
                },
                {
                    "name": "D5",
                    "midi": 74,
                    "time": 252.74314800000286,
                    "velocity": 0.48031496062992124,
                    "duration": 0.2654865000000086
                },
                {
                    "name": "B4",
                    "midi": 71,
                    "time": 253.00863450000287,
                    "velocity": 0.4251968503937008,
                    "duration": 0.2654865000000086
                },
                {
                    "name": "A4",
                    "midi": 69,
                    "time": 253.27412100000288,
                    "velocity": 0.49606299212598426,
                    "duration": 0.2654865000000086
                },
                {
                    "name": "A3",
                    "midi": 57,
                    "time": 253.5396075000029,
                    "velocity": 0.4330708661417323,
                    "duration": 0.2654865000000086
                },
                {
                    "name": "G4",
                    "midi": 67,
                    "time": 253.8050940000029,
                    "velocity": 0.48031496062992124,
                    "duration": 0.5309730000000172
                },
                {
                    "name": "E4",
                    "midi": 64,
                    "time": 253.8050940000029,
                    "velocity": 0.4251968503937008,
                    "duration": 0.2654865000000086
                },
                {
                    "name": "B3",
                    "midi": 59,
                    "time": 254.0705805000029,
                    "velocity": 0.4251968503937008,
                    "duration": 0.2654865000000086
                },
                {
                    "name": "E4",
                    "midi": 64,
                    "time": 254.3360670000029,
                    "velocity": 0.48031496062992124,
                    "duration": 0.5309730000000172
                },
                {
                    "name": "C#4",
                    "midi": 61,
                    "time": 254.3360670000029,
                    "velocity": 0.4251968503937008,
                    "duration": 0.2654865000000086
                },
                {
                    "name": "A3",
                    "midi": 57,
                    "time": 254.60155350000292,
                    "velocity": 0.4015748031496063,
                    "duration": 0.2654865000000086
                },
                {
                    "name": "D4",
                    "midi": 62,
                    "time": 254.86704000000293,
                    "velocity": 0.4094488188976378,
                    "duration": 0.387167812499996
                },
                {
                    "name": "F#4",
                    "midi": 66,
                    "time": 254.86704000000293,
                    "velocity": 0.5039370078740157,
                    "duration": 0.2654865000000086
                },
                {
                    "name": "A4",
                    "midi": 69,
                    "time": 255.13252650000294,
                    "velocity": 0.4330708661417323,
                    "duration": 0.2654864999999802
                },
                {
                    "name": "B4",
                    "midi": 71,
                    "time": 255.39801300000292,
                    "velocity": 0.5039370078740157,
                    "duration": 0.2654865000000086
                },
                {
                    "name": "D5",
                    "midi": 74,
                    "time": 255.39801300000292,
                    "velocity": 0.5039370078740157,
                    "duration": 0.2654865000000086
                },
                {
                    "name": "A#4",
                    "midi": 70,
                    "time": 255.66349950000293,
                    "velocity": 0.4409448818897638,
                    "duration": 0.2654865000000086
                },
                {
                    "name": "C#5",
                    "midi": 73,
                    "time": 255.66349950000293,
                    "velocity": 0.4409448818897638,
                    "duration": 0.2654865000000086
                },
                {
                    "name": "B4",
                    "midi": 71,
                    "time": 255.92898600000294,
                    "velocity": 0.48031496062992124,
                    "duration": 0.2654864999999802
                },
                {
                    "name": "D5",
                    "midi": 74,
                    "time": 255.92898600000294,
                    "velocity": 0.48031496062992124,
                    "duration": 0.2654864999999802
                },
                {
                    "name": "G4",
                    "midi": 67,
                    "time": 256.1944725000029,
                    "velocity": 0.4251968503937008,
                    "duration": 0.2654865000000086
                },
                {
                    "name": "B4",
                    "midi": 71,
                    "time": 256.1944725000029,
                    "velocity": 0.4251968503937008,
                    "duration": 0.2654865000000086
                },
                {
                    "name": "F#4",
                    "midi": 66,
                    "time": 256.4599590000029,
                    "velocity": 0.4409448818897638,
                    "duration": 0.2654865000000086
                },
                {
                    "name": "A4",
                    "midi": 69,
                    "time": 256.4599590000029,
                    "velocity": 0.5196850393700787,
                    "duration": 0.2654865000000086
                },
                {
                    "name": "D4",
                    "midi": 62,
                    "time": 256.72544550000293,
                    "velocity": 0.4015748031496063,
                    "duration": 0.2654865000000086
                },
                {
                    "name": "E4",
                    "midi": 64,
                    "time": 256.99093200000294,
                    "velocity": 0.4251968503937008,
                    "duration": 0.2654865000000086
                },
                {
                    "name": "G4",
                    "midi": 67,
                    "time": 256.99093200000294,
                    "velocity": 0.5039370078740157,
                    "duration": 0.2654865000000086
                },
                {
                    "name": "B3",
                    "midi": 59,
                    "time": 257.25641850000295,
                    "velocity": 0.4015748031496063,
                    "duration": 0.2654865000000086
                },
                {
                    "name": "C#4",
                    "midi": 61,
                    "time": 257.52190500000296,
                    "velocity": 0.4251968503937008,
                    "duration": 0.2654865000000086
                },
                {
                    "name": "E4",
                    "midi": 64,
                    "time": 257.52190500000296,
                    "velocity": 0.5039370078740157,
                    "duration": 0.2654865000000086
                },
                {
                    "name": "A3",
                    "midi": 57,
                    "time": 257.78739150000297,
                    "velocity": 0.4094488188976378,
                    "duration": 0.2654865000000086
                },
                {
                    "name": "D4",
                    "midi": 62,
                    "time": 258.052878000003,
                    "velocity": 0.4251968503937008,
                    "duration": 0.2654865000000086
                },
                {
                    "name": "F#4",
                    "midi": 66,
                    "time": 258.052878000003,
                    "velocity": 0.5039370078740157,
                    "duration": 0.2654865000000086
                },
                {
                    "name": "A4",
                    "midi": 69,
                    "time": 258.318364500003,
                    "velocity": 0.4251968503937008,
                    "duration": 0.2654865000000086
                },
                {
                    "name": "B3",
                    "midi": 59,
                    "time": 258.583851000003,
                    "velocity": 0.3937007874015748,
                    "duration": 0.3982297499999845
                },
                {
                    "name": "A4",
                    "midi": 69,
                    "time": 258.583851000003,
                    "velocity": 0.48031496062992124,
                    "duration": 0.2654865000000086
                },
                {
                    "name": "G4",
                    "midi": 67,
                    "time": 258.849337500003,
                    "velocity": 0.4015748031496063,
                    "duration": 0.2654864999999518
                },
                {
                    "name": "E4",
                    "midi": 64,
                    "time": 259.11482400000295,
                    "velocity": 0.48031496062992124,
                    "duration": 0.2654865000000086
                },
                {
                    "name": "C#4",
                    "midi": 61,
                    "time": 259.38031050000296,
                    "velocity": 0.4094488188976378,
                    "duration": 0.2654865000000086
                },
                {
                    "name": "D4",
                    "midi": 62,
                    "time": 259.645797000003,
                    "velocity": 0.4645669291338583,
                    "duration": 0.2654865000000086
                },
                {
                    "name": "F#4",
                    "midi": 66,
                    "time": 259.911283500003,
                    "velocity": 0.3937007874015748,
                    "duration": 0.2654865000000086
                },
                {
                    "name": "B3",
                    "midi": 59,
                    "time": 260.176770000003,
                    "velocity": 0.3937007874015748,
                    "duration": 0.3982297499999845
                },
                {
                    "name": "A4",
                    "midi": 69,
                    "time": 260.176770000003,
                    "velocity": 0.4409448818897638,
                    "duration": 0.2654865000000086
                },
                {
                    "name": "G4",
                    "midi": 67,
                    "time": 260.442256500003,
                    "velocity": 0.3937007874015748,
                    "duration": 0.2654864999999518
                },
                {
                    "name": "E4",
                    "midi": 64,
                    "time": 260.70774300000295,
                    "velocity": 0.44881889763779526,
                    "duration": 0.2654865000000086
                },
                {
                    "name": "C#4",
                    "midi": 61,
                    "time": 260.97322950000296,
                    "velocity": 0.3779527559055118,
                    "duration": 0.2654865000000086
                },
                {
                    "name": "D4",
                    "midi": 62,
                    "time": 261.23871600000297,
                    "velocity": 0.4094488188976378,
                    "duration": 0.2654865000000086
                },
                {
                    "name": "C#4",
                    "midi": 61,
                    "time": 261.504202500003,
                    "velocity": 0.36220472440944884,
                    "duration": 0.2654865000000086
                },
                {
                    "name": "D4",
                    "midi": 62,
                    "time": 261.769689000003,
                    "velocity": 0.4094488188976378,
                    "duration": 0.2654865000000086
                },
                {
                    "name": "E4",
                    "midi": 64,
                    "time": 262.035175500003,
                    "velocity": 0.3543307086614173,
                    "duration": 0.2654865000000086
                },
                {
                    "name": "F#4",
                    "midi": 66,
                    "time": 262.300662000003,
                    "velocity": 0.3779527559055118,
                    "duration": 0.2654865000000086
                },
                {
                    "name": "G4",
                    "midi": 67,
                    "time": 262.566148500003,
                    "velocity": 0.3779527559055118,
                    "duration": 0.2654865000000086
                },
                {
                    "name": "F#4",
                    "midi": 66,
                    "time": 262.831635000003,
                    "velocity": 0.33070866141732286,
                    "duration": 0.2654865000000086
                },
                {
                    "name": "A4",
                    "midi": 69,
                    "time": 262.831635000003,
                    "velocity": 0.3937007874015748,
                    "duration": 0.2654865000000086
                },
                {
                    "name": "B3",
                    "midi": 59,
                    "time": 263.097121500003,
                    "velocity": 0.3543307086614173,
                    "duration": 0.2654865000000086
                },
                {
                    "name": "D#4",
                    "midi": 63,
                    "time": 263.36260800000304,
                    "velocity": 0.33070866141732286,
                    "duration": 0.2654865000000086
                },
                {
                    "name": "F#4",
                    "midi": 66,
                    "time": 263.36260800000304,
                    "velocity": 0.3937007874015748,
                    "duration": 0.2654865000000086
                },
                {
                    "name": "B3",
                    "midi": 59,
                    "time": 263.62809450000304,
                    "velocity": 0.3700787401574803,
                    "duration": 0.2654865000000086
                },
                {
                    "name": "E4",
                    "midi": 64,
                    "time": 263.89358100000305,
                    "velocity": 0.3464566929133858,
                    "duration": 0.2654865000000086
                },
                {
                    "name": "G4",
                    "midi": 67,
                    "time": 263.89358100000305,
                    "velocity": 0.4094488188976378,
                    "duration": 0.2654865000000086
                },
                {
                    "name": "B3",
                    "midi": 59,
                    "time": 264.15906750000306,
                    "velocity": 0.3858267716535433,
                    "duration": 0.2654865000000086
                },
                {
                    "name": "A4",
                    "midi": 69,
                    "time": 264.42455400000307,
                    "velocity": 0.4251968503937008,
                    "duration": 0.2654865000000086
                },
                {
                    "name": "F#4",
                    "midi": 66,
                    "time": 264.42455400000307,
                    "velocity": 0.3543307086614173,
                    "duration": 0.2654865000000086
                },
                {
                    "name": "B3",
                    "midi": 59,
                    "time": 264.6900405000031,
                    "velocity": 0.3779527559055118,
                    "duration": 0.2654865000000086
                },
                {
                    "name": "D#4",
                    "midi": 63,
                    "time": 264.9555270000031,
                    "velocity": 0.29133858267716534,
                    "duration": 0.2654865000000086
                },
                {
                    "name": "F#4",
                    "midi": 66,
                    "time": 264.9555270000031,
                    "velocity": 0.3543307086614173,
                    "duration": 0.2654865000000086
                },
                {
                    "name": "B3",
                    "midi": 59,
                    "time": 265.2210135000031,
                    "velocity": 0.33070866141732286,
                    "duration": 0.2654865000000086
                },
                {
                    "name": "E4",
                    "midi": 64,
                    "time": 265.4865000000031,
                    "velocity": 0.30708661417322836,
                    "duration": 0.2654865000000086
                },
                {
                    "name": "G4",
                    "midi": 67,
                    "time": 265.4865000000031,
                    "velocity": 0.36220472440944884,
                    "duration": 0.2654865000000086
                },
                {
                    "name": "B3",
                    "midi": 59,
                    "time": 265.7519865000031,
                    "velocity": 0.3464566929133858,
                    "duration": 0.2654865000000086
                },
                {
                    "name": "A4",
                    "midi": 69,
                    "time": 266.0174730000031,
                    "velocity": 0.3779527559055118,
                    "duration": 0.2654865000000086
                },
                {
                    "name": "F#4",
                    "midi": 66,
                    "time": 266.0174730000031,
                    "velocity": 0.31496062992125984,
                    "duration": 0.2654865000000086
                },
                {
                    "name": "B3",
                    "midi": 59,
                    "time": 266.28295950000313,
                    "velocity": 0.33858267716535434,
                    "duration": 0.2654865000000086
                },
                {
                    "name": "D#4",
                    "midi": 63,
                    "time": 266.54844600000314,
                    "velocity": 0.29133858267716534,
                    "duration": 0.2654865000000086
                },
                {
                    "name": "F#4",
                    "midi": 66,
                    "time": 266.54844600000314,
                    "velocity": 0.3543307086614173,
                    "duration": 0.2654865000000086
                },
                {
                    "name": "B3",
                    "midi": 59,
                    "time": 266.81393250000315,
                    "velocity": 0.33070866141732286,
                    "duration": 0.2654865000000086
                },
                {
                    "name": "E4",
                    "midi": 64,
                    "time": 267.07941900000316,
                    "velocity": 0.30708661417322836,
                    "duration": 0.2654865000000086
                },
                {
                    "name": "G4",
                    "midi": 67,
                    "time": 267.07941900000316,
                    "velocity": 0.36220472440944884,
                    "duration": 0.2654865000000086
                },
                {
                    "name": "B3",
                    "midi": 59,
                    "time": 267.34490550000316,
                    "velocity": 0.3464566929133858,
                    "duration": 0.2654865000000086
                },
                {
                    "name": "A4",
                    "midi": 69,
                    "time": 267.6103920000032,
                    "velocity": 0.3779527559055118,
                    "duration": 0.5309730000000172
                },
                {
                    "name": "F#4",
                    "midi": 66,
                    "time": 267.6103920000032,
                    "velocity": 0.31496062992125984,
                    "duration": 0.5309730000000172
                },
                {
                    "name": "B4",
                    "midi": 71,
                    "time": 268.1413650000032,
                    "velocity": 0.47244094488188976,
                    "duration": 0.23893785000001344
                },
                {
                    "name": "B5",
                    "midi": 83,
                    "time": 268.1413650000032,
                    "velocity": 0.5590551181102362,
                    "duration": 0.23893785000001344
                },
                {
                    "name": "A4",
                    "midi": 69,
                    "time": 268.4068515000032,
                    "velocity": 0.4409448818897638,
                    "duration": 0.23893785000001344
                },
                {
                    "name": "A5",
                    "midi": 81,
                    "time": 268.4068515000032,
                    "velocity": 0.5196850393700787,
                    "duration": 0.23893785000001344
                },
                {
                    "name": "G4",
                    "midi": 67,
                    "time": 268.6723380000032,
                    "velocity": 0.47244094488188976,
                    "duration": 0.23893785000001344
                },
                {
                    "name": "G5",
                    "midi": 79,
                    "time": 268.6723380000032,
                    "velocity": 0.5590551181102362,
                    "duration": 0.23893785000001344
                },
                {
                    "name": "F#4",
                    "midi": 66,
                    "time": 268.9378245000032,
                    "velocity": 0.4409448818897638,
                    "duration": 0.23893785000001344
                },
                {
                    "name": "F#5",
                    "midi": 78,
                    "time": 268.9378245000032,
                    "velocity": 0.5275590551181102,
                    "duration": 0.23893785000001344
                },
                {
                    "name": "E4",
                    "midi": 64,
                    "time": 269.2033110000032,
                    "velocity": 0.4881889763779528,
                    "duration": 0.4778757000000269
                },
                {
                    "name": "E5",
                    "midi": 76,
                    "time": 269.2033110000032,
                    "velocity": 0.5826771653543307,
                    "duration": 0.4778757000000269
                },
                {
                    "name": "E4",
                    "midi": 64,
                    "time": 269.73428400000324,
                    "velocity": 0.47244094488188976,
                    "duration": 0.4778757000000269
                },
                {
                    "name": "E5",
                    "midi": 76,
                    "time": 269.73428400000324,
                    "velocity": 0.5590551181102362,
                    "duration": 0.4778757000000269
                },
                {
                    "name": "B4",
                    "midi": 71,
                    "time": 270.26525700000326,
                    "velocity": 0.48031496062992124,
                    "duration": 0.4778757000000269
                },
                {
                    "name": "B5",
                    "midi": 83,
                    "time": 270.26525700000326,
                    "velocity": 0.5748031496062992,
                    "duration": 0.4778757000000269
                },
                {
                    "name": "E4",
                    "midi": 64,
                    "time": 270.7962300000033,
                    "velocity": 0.47244094488188976,
                    "duration": 0.4778757000000269
                },
                {
                    "name": "E5",
                    "midi": 76,
                    "time": 270.7962300000033,
                    "velocity": 0.5590551181102362,
                    "duration": 0.4778757000000269
                },
                {
                    "name": "B4",
                    "midi": 71,
                    "time": 271.3272030000033,
                    "velocity": 0.47244094488188976,
                    "duration": 0.23893785000001344
                },
                {
                    "name": "B5",
                    "midi": 83,
                    "time": 271.3272030000033,
                    "velocity": 0.5590551181102362,
                    "duration": 0.23893785000001344
                },
                {
                    "name": "A4",
                    "midi": 69,
                    "time": 271.5926895000033,
                    "velocity": 0.4409448818897638,
                    "duration": 0.23893785000001344
                },
                {
                    "name": "A5",
                    "midi": 81,
                    "time": 271.5926895000033,
                    "velocity": 0.5196850393700787,
                    "duration": 0.23893785000001344
                },
                {
                    "name": "G4",
                    "midi": 67,
                    "time": 271.8581760000033,
                    "velocity": 0.47244094488188976,
                    "duration": 0.23893785000001344
                },
                {
                    "name": "G5",
                    "midi": 79,
                    "time": 271.8581760000033,
                    "velocity": 0.5590551181102362,
                    "duration": 0.23893785000001344
                },
                {
                    "name": "F#4",
                    "midi": 66,
                    "time": 272.1236625000033,
                    "velocity": 0.4409448818897638,
                    "duration": 0.23893785000001344
                },
                {
                    "name": "F#5",
                    "midi": 78,
                    "time": 272.1236625000033,
                    "velocity": 0.5275590551181102,
                    "duration": 0.23893785000001344
                },
                {
                    "name": "E4",
                    "midi": 64,
                    "time": 272.38914900000333,
                    "velocity": 0.4881889763779528,
                    "duration": 0.4778757000000269
                },
                {
                    "name": "E5",
                    "midi": 76,
                    "time": 272.38914900000333,
                    "velocity": 0.5826771653543307,
                    "duration": 0.4778757000000269
                },
                {
                    "name": "E4",
                    "midi": 64,
                    "time": 272.92012200000335,
                    "velocity": 0.47244094488188976,
                    "duration": 0.4778757000000269
                },
                {
                    "name": "E5",
                    "midi": 76,
                    "time": 272.92012200000335,
                    "velocity": 0.5590551181102362,
                    "duration": 0.4778757000000269
                },
                {
                    "name": "B4",
                    "midi": 71,
                    "time": 273.45109500000336,
                    "velocity": 0.48031496062992124,
                    "duration": 0.4778757000000269
                },
                {
                    "name": "B5",
                    "midi": 83,
                    "time": 273.45109500000336,
                    "velocity": 0.5748031496062992,
                    "duration": 0.4778757000000269
                },
                {
                    "name": "E4",
                    "midi": 64,
                    "time": 273.9820680000034,
                    "velocity": 0.47244094488188976,
                    "duration": 0.4778757000000269
                },
                {
                    "name": "E5",
                    "midi": 76,
                    "time": 273.9820680000034,
                    "velocity": 0.5590551181102362,
                    "duration": 0.4778757000000269
                },
                {
                    "name": "E5",
                    "midi": 76,
                    "time": 274.5130410000034,
                    "velocity": 0.3937007874015748,
                    "duration": 0.19911487500002067
                },
                {
                    "name": "D5",
                    "midi": 74,
                    "time": 274.7785275000034,
                    "velocity": 0.36220472440944884,
                    "duration": 0.19911487500002067
                },
                {
                    "name": "E5",
                    "midi": 76,
                    "time": 275.0440140000034,
                    "velocity": 0.3937007874015748,
                    "duration": 0.19911487500002067
                },
                {
                    "name": "F5",
                    "midi": 77,
                    "time": 275.3095005000034,
                    "velocity": 0.3700787401574803,
                    "duration": 0.19911487500002067
                },
                {
                    "name": "G5",
                    "midi": 79,
                    "time": 275.57498700000343,
                    "velocity": 0.4015748031496063,
                    "duration": 0.5309730000000172
                },
                {
                    "name": "G5",
                    "midi": 79,
                    "time": 276.10596000000345,
                    "velocity": 0.41732283464566927,
                    "duration": 0.7964595000000259
                },
                {
                    "name": "G5",
                    "midi": 79,
                    "time": 276.9024195000035,
                    "velocity": 0.3937007874015748,
                    "duration": 0.2654865000000086
                },
                {
                    "name": "C6",
                    "midi": 84,
                    "time": 277.1679060000035,
                    "velocity": 0.4330708661417323,
                    "duration": 0.5309730000000172
                },
                {
                    "name": "G5",
                    "midi": 79,
                    "time": 277.6988790000035,
                    "velocity": 0.3937007874015748,
                    "duration": 0.5309730000000172
                },
                {
                    "name": "G5",
                    "midi": 79,
                    "time": 278.76082500000354,
                    "velocity": 0.4409448818897638,
                    "duration": 0.5309730000000172
                },
                {
                    "name": "G5",
                    "midi": 79,
                    "time": 279.29179800000355,
                    "velocity": 0.4566929133858268,
                    "duration": 0.7964595000000259
                },
                {
                    "name": "G5",
                    "midi": 79,
                    "time": 280.0882575000036,
                    "velocity": 0.4330708661417323,
                    "duration": 0.2654865000000086
                },
                {
                    "name": "C6",
                    "midi": 84,
                    "time": 280.3537440000036,
                    "velocity": 0.47244094488188976,
                    "duration": 0.5309730000000172
                },
                {
                    "name": "G5",
                    "midi": 79,
                    "time": 280.8847170000036,
                    "velocity": 0.4330708661417323,
                    "duration": 0.5309730000000172
                },
                {
                    "name": "G5",
                    "midi": 79,
                    "time": 281.8139197500036,
                    "velocity": 0.48031496062992124,
                    "duration": 0.1327432499999759
                },
                {
                    "name": "E6",
                    "midi": 88,
                    "time": 281.9466630000036,
                    "velocity": 0.5511811023622047,
                    "duration": 0.5309730000000172
                },
                {
                    "name": "G5",
                    "midi": 79,
                    "time": 282.4776360000036,
                    "velocity": 0.4330708661417323,
                    "duration": 0.5309730000000172
                },
                {
                    "name": "G5",
                    "midi": 79,
                    "time": 283.4068387500036,
                    "velocity": 0.5118110236220472,
                    "duration": 0.1327432499999759
                },
                {
                    "name": "E6",
                    "midi": 88,
                    "time": 283.5395820000036,
                    "velocity": 0.5826771653543307,
                    "duration": 0.5309730000000172
                },
                {
                    "name": "G5",
                    "midi": 79,
                    "time": 284.0705550000036,
                    "velocity": 0.48031496062992124,
                    "duration": 0.5309730000000172
                },
                {
                    "name": "G5",
                    "midi": 79,
                    "time": 284.9997577500036,
                    "velocity": 0.4330708661417323,
                    "duration": 0.1327432499999759
                },
                {
                    "name": "G5",
                    "midi": 79,
                    "time": 285.1325010000036,
                    "velocity": 0.47244094488188976,
                    "duration": 0.2654865000000086
                },
                {
                    "name": "F5",
                    "midi": 77,
                    "time": 285.3979875000036,
                    "velocity": 0.4566929133858268,
                    "duration": 0.2654865000000086
                },
                {
                    "name": "E5",
                    "midi": 76,
                    "time": 285.6634740000036,
                    "velocity": 0.4566929133858268,
                    "duration": 0.2654865000000086
                },
                {
                    "name": "F5",
                    "midi": 77,
                    "time": 285.9289605000036,
                    "velocity": 0.4251968503937008,
                    "duration": 0.2654865000000086
                },
                {
                    "name": "E5",
                    "midi": 76,
                    "time": 286.1944470000036,
                    "velocity": 0.4566929133858268,
                    "duration": 0.2654865000000086
                },
                {
                    "name": "D5",
                    "midi": 74,
                    "time": 286.4599335000036,
                    "velocity": 0.4330708661417323,
                    "duration": 0.2654865000000086
                },
                {
                    "name": "C#5",
                    "midi": 73,
                    "time": 286.7254200000036,
                    "velocity": 0.4566929133858268,
                    "duration": 0.2654865000000086
                },
                {
                    "name": "G#5",
                    "midi": 80,
                    "time": 286.99090650000363,
                    "velocity": 0.4330708661417323,
                    "duration": 0.2654865000000086
                },
                {
                    "name": "A5",
                    "midi": 81,
                    "time": 287.25639300000364,
                    "velocity": 0.4566929133858268,
                    "duration": 0.2654865000000086
                },
                {
                    "name": "G#5",
                    "midi": 80,
                    "time": 287.52187950000365,
                    "velocity": 0.4330708661417323,
                    "duration": 0.2654865000000086
                },
                {
                    "name": "A5",
                    "midi": 81,
                    "time": 287.78736600000366,
                    "velocity": 0.4566929133858268,
                    "duration": 0.2654865000000086
                },
                {
                    "name": "E5",
                    "midi": 76,
                    "time": 288.05285250000367,
                    "velocity": 0.4330708661417323,
                    "duration": 0.2654865000000086
                },
                {
                    "name": "G5",
                    "midi": 79,
                    "time": 288.3183390000037,
                    "velocity": 0.47244094488188976,
                    "duration": 0.2654865000000086
                },
                {
                    "name": "F5",
                    "midi": 77,
                    "time": 288.5838255000037,
                    "velocity": 0.4566929133858268,
                    "duration": 0.2654865000000086
                },
                {
                    "name": "E5",
                    "midi": 76,
                    "time": 288.8493120000037,
                    "velocity": 0.4566929133858268,
                    "duration": 0.2654865000000086
                },
                {
                    "name": "F5",
                    "midi": 77,
                    "time": 289.1147985000037,
                    "velocity": 0.4251968503937008,
                    "duration": 0.2654865000000086
                },
                {
                    "name": "E5",
                    "midi": 76,
                    "time": 289.3802850000037,
                    "velocity": 0.4566929133858268,
                    "duration": 0.2654865000000086
                },
                {
                    "name": "D5",
                    "midi": 74,
                    "time": 289.6457715000037,
                    "velocity": 0.4330708661417323,
                    "duration": 0.2654865000000086
                },
                {
                    "name": "A5",
                    "midi": 81,
                    "time": 289.9112580000037,
                    "velocity": 0.4566929133858268,
                    "duration": 0.2654865000000086
                },
                {
                    "name": "G#5",
                    "midi": 80,
                    "time": 290.17674450000374,
                    "velocity": 0.4330708661417323,
                    "duration": 0.2654865000000086
                },
                {
                    "name": "A5",
                    "midi": 81,
                    "time": 290.44223100000374,
                    "velocity": 0.4566929133858268,
                    "duration": 0.2654865000000086
                },
                {
                    "name": "E5",
                    "midi": 76,
                    "time": 290.70771750000375,
                    "velocity": 0.4330708661417323,
                    "duration": 0.2654865000000086
                },
                {
                    "name": "F5",
                    "midi": 77,
                    "time": 290.97320400000376,
                    "velocity": 0.4566929133858268,
                    "duration": 0.2654865000000086
                },
                {
                    "name": "D5",
                    "midi": 74,
                    "time": 291.23869050000377,
                    "velocity": 0.4330708661417323,
                    "duration": 0.2654865000000086
                },
                {
                    "name": "A5",
                    "midi": 81,
                    "time": 291.5041770000038,
                    "velocity": 0.4566929133858268,
                    "duration": 0.2654865000000086
                },
                {
                    "name": "G#5",
                    "midi": 80,
                    "time": 291.7696635000038,
                    "velocity": 0.4330708661417323,
                    "duration": 0.2654865000000086
                },
                {
                    "name": "A5",
                    "midi": 81,
                    "time": 292.0351500000038,
                    "velocity": 0.4566929133858268,
                    "duration": 0.2654865000000086
                },
                {
                    "name": "E5",
                    "midi": 76,
                    "time": 292.3006365000038,
                    "velocity": 0.4330708661417323,
                    "duration": 0.2654865000000086
                },
                {
                    "name": "F5",
                    "midi": 77,
                    "time": 292.5661230000038,
                    "velocity": 0.4566929133858268,
                    "duration": 0.2654865000000086
                },
                {
                    "name": "D5",
                    "midi": 74,
                    "time": 292.8316095000038,
                    "velocity": 0.3858267716535433,
                    "duration": 0.2654865000000086
                },
                {
                    "name": "A4",
                    "midi": 69,
                    "time": 293.09709600000383,
                    "velocity": 0.4015748031496063,
                    "duration": 0.2654865000000086
                },
                {
                    "name": "G#4",
                    "midi": 68,
                    "time": 293.36258250000384,
                    "velocity": 0.3543307086614173,
                    "duration": 0.2654865000000086
                },
                {
                    "name": "A4",
                    "midi": 69,
                    "time": 293.62806900000385,
                    "velocity": 0.4015748031496063,
                    "duration": 0.2654865000000086
                },
                {
                    "name": "G#4",
                    "midi": 68,
                    "time": 293.89355550000386,
                    "velocity": 0.3700787401574803,
                    "duration": 0.2654865000000086
                },
                {
                    "name": "A4",
                    "midi": 69,
                    "time": 294.15904200000386,
                    "velocity": 0.4015748031496063,
                    "duration": 0.2654865000000086
                },
                {
                    "name": "G#4",
                    "midi": 68,
                    "time": 294.4245285000039,
                    "velocity": 0.3464566929133858,
                    "duration": 0.2654865000000086
                },
                {
                    "name": "F#4",
                    "midi": 66,
                    "time": 294.6900150000039,
                    "velocity": 0.33070866141732286,
                    "duration": 0.2654865000000086
                },
                {
                    "name": "A4",
                    "midi": 69,
                    "time": 294.6900150000039,
                    "velocity": 0.3937007874015748,
                    "duration": 0.2654865000000086
                },
                {
                    "name": "A3",
                    "midi": 57,
                    "time": 294.9555015000039,
                    "velocity": 0.3543307086614173,
                    "duration": 0.2654865000000086
                },
                {
                    "name": "D4",
                    "midi": 62,
                    "time": 295.2209880000039,
                    "velocity": 0.33070866141732286,
                    "duration": 0.2654865000000086
                },
                {
                    "name": "F#4",
                    "midi": 66,
                    "time": 295.2209880000039,
                    "velocity": 0.3937007874015748,
                    "duration": 0.2654865000000086
                },
                {
                    "name": "A3",
                    "midi": 57,
                    "time": 295.4864745000039,
                    "velocity": 0.3700787401574803,
                    "duration": 0.2654865000000086
                },
                {
                    "name": "E4",
                    "midi": 64,
                    "time": 295.7519610000039,
                    "velocity": 0.3464566929133858,
                    "duration": 0.2654865000000086
                },
                {
                    "name": "G4",
                    "midi": 67,
                    "time": 295.7519610000039,
                    "velocity": 0.4094488188976378,
                    "duration": 0.2654865000000086
                },
                {
                    "name": "A3",
                    "midi": 57,
                    "time": 296.0174475000039,
                    "velocity": 0.3858267716535433,
                    "duration": 0.2654865000000086
                },
                {
                    "name": "A4",
                    "midi": 69,
                    "time": 296.28293400000393,
                    "velocity": 0.4251968503937008,
                    "duration": 0.2654865000000086
                },
                {
                    "name": "F#4",
                    "midi": 66,
                    "time": 296.28293400000393,
                    "velocity": 0.3543307086614173,
                    "duration": 0.2654865000000086
                },
                {
                    "name": "D4",
                    "midi": 62,
                    "time": 296.54842050000394,
                    "velocity": 0.3779527559055118,
                    "duration": 0.2654865000000086
                },
                {
                    "name": "B4",
                    "midi": 71,
                    "time": 296.81390700000395,
                    "velocity": 0.33070866141732286,
                    "duration": 0.2654865000000086
                },
                {
                    "name": "D5",
                    "midi": 74,
                    "time": 296.81390700000395,
                    "velocity": 0.3937007874015748,
                    "duration": 0.2654865000000086
                },
                {
                    "name": "A4",
                    "midi": 69,
                    "time": 297.07939350000396,
                    "velocity": 0.30708661417322836,
                    "duration": 0.2654865000000086
                },
                {
                    "name": "C#5",
                    "midi": 73,
                    "time": 297.07939350000396,
                    "velocity": 0.3700787401574803,
                    "duration": 0.2654865000000086
                },
                {
                    "name": "G4",
                    "midi": 67,
                    "time": 297.34488000000397,
                    "velocity": 0.33070866141732286,
                    "duration": 0.2654865000000086
                },
                {
                    "name": "B4",
                    "midi": 71,
                    "time": 297.34488000000397,
                    "velocity": 0.3937007874015748,
                    "duration": 0.2654865000000086
                },
                {
                    "name": "F#4",
                    "midi": 66,
                    "time": 297.610366500004,
                    "velocity": 0.30708661417322836,
                    "duration": 0.2654865000000086
                },
                {
                    "name": "A4",
                    "midi": 69,
                    "time": 297.610366500004,
                    "velocity": 0.3700787401574803,
                    "duration": 0.2654865000000086
                },
                {
                    "name": "G4",
                    "midi": 67,
                    "time": 297.875853000004,
                    "velocity": 0.3937007874015748,
                    "duration": 0.2654865000000086
                },
                {
                    "name": "D4",
                    "midi": 62,
                    "time": 298.141339500004,
                    "velocity": 0.3543307086614173,
                    "duration": 0.2654865000000086
                },
                {
                    "name": "F#4",
                    "midi": 66,
                    "time": 298.406826000004,
                    "velocity": 0.3543307086614173,
                    "duration": 0.2654865000000086
                },
                {
                    "name": "A4",
                    "midi": 69,
                    "time": 298.406826000004,
                    "velocity": 0.41732283464566927,
                    "duration": 0.2654865000000086
                },
                {
                    "name": "D4",
                    "midi": 62,
                    "time": 298.672312500004,
                    "velocity": 0.3700787401574803,
                    "duration": 0.2654865000000086
                },
                {
                    "name": "G4",
                    "midi": 67,
                    "time": 298.937799000004,
                    "velocity": 0.3543307086614173,
                    "duration": 0.2654865000000086
                },
                {
                    "name": "B4",
                    "midi": 71,
                    "time": 298.937799000004,
                    "velocity": 0.4251968503937008,
                    "duration": 0.2654865000000086
                },
                {
                    "name": "D4",
                    "midi": 62,
                    "time": 299.20328550000403,
                    "velocity": 0.3700787401574803,
                    "duration": 0.2654865000000086
                },
                {
                    "name": "A4",
                    "midi": 69,
                    "time": 299.46877200000404,
                    "velocity": 0.4251968503937008,
                    "duration": 0.2654865000000086
                },
                {
                    "name": "F#4",
                    "midi": 66,
                    "time": 299.46877200000404,
                    "velocity": 0.3543307086614173,
                    "duration": 0.2654865000000086
                },
                {
                    "name": "D4",
                    "midi": 62,
                    "time": 299.73425850000405,
                    "velocity": 0.3779527559055118,
                    "duration": 0.2654865000000086
                },
                {
                    "name": "B4",
                    "midi": 71,
                    "time": 299.99974500000405,
                    "velocity": 0.30708661417322836,
                    "duration": 0.2654865000000086
                },
                {
                    "name": "D5",
                    "midi": 74,
                    "time": 299.99974500000405,
                    "velocity": 0.3700787401574803,
                    "duration": 0.2654865000000086
                },
                {
                    "name": "A4",
                    "midi": 69,
                    "time": 300.26523150000406,
                    "velocity": 0.29133858267716534,
                    "duration": 0.2654865000000086
                },
                {
                    "name": "C#5",
                    "midi": 73,
                    "time": 300.26523150000406,
                    "velocity": 0.3464566929133858,
                    "duration": 0.2654865000000086
                },
                {
                    "name": "G4",
                    "midi": 67,
                    "time": 300.5307180000041,
                    "velocity": 0.30708661417322836,
                    "duration": 0.2654865000000086
                },
                {
                    "name": "B4",
                    "midi": 71,
                    "time": 300.5307180000041,
                    "velocity": 0.3700787401574803,
                    "duration": 0.2654865000000086
                },
                {
                    "name": "F#4",
                    "midi": 66,
                    "time": 300.7962045000041,
                    "velocity": 0.29133858267716534,
                    "duration": 0.2654865000000086
                },
                {
                    "name": "A4",
                    "midi": 69,
                    "time": 300.7962045000041,
                    "velocity": 0.3464566929133858,
                    "duration": 0.2654865000000086
                },
                {
                    "name": "E4",
                    "midi": 64,
                    "time": 301.0616910000041,
                    "velocity": 0.33070866141732286,
                    "duration": 0.2654865000000086
                },
                {
                    "name": "G4",
                    "midi": 67,
                    "time": 301.0616910000041,
                    "velocity": 0.3700787401574803,
                    "duration": 0.2654865000000086
                },
                {
                    "name": "D4",
                    "midi": 62,
                    "time": 301.3271775000041,
                    "velocity": 0.33070866141732286,
                    "duration": 0.2654865000000086
                },
                {
                    "name": "F#4",
                    "midi": 66,
                    "time": 301.5926640000041,
                    "velocity": 0.33070866141732286,
                    "duration": 0.2654865000000086
                },
                {
                    "name": "A4",
                    "midi": 69,
                    "time": 301.5926640000041,
                    "velocity": 0.3937007874015748,
                    "duration": 0.2654865000000086
                },
                {
                    "name": "D4",
                    "midi": 62,
                    "time": 301.8581505000041,
                    "velocity": 0.3464566929133858,
                    "duration": 0.2654865000000086
                },
                {
                    "name": "G4",
                    "midi": 67,
                    "time": 302.1236370000041,
                    "velocity": 0.33070866141732286,
                    "duration": 0.2654865000000086
                },
                {
                    "name": "B4",
                    "midi": 71,
                    "time": 302.1236370000041,
                    "velocity": 0.4015748031496063,
                    "duration": 0.2654865000000086
                },
                {
                    "name": "D4",
                    "midi": 62,
                    "time": 302.38912350000413,
                    "velocity": 0.3464566929133858,
                    "duration": 0.2654865000000086
                },
                {
                    "name": "A4",
                    "midi": 69,
                    "time": 302.65461000000414,
                    "velocity": 0.4015748031496063,
                    "duration": 0.2654865000000086
                },
                {
                    "name": "F#4",
                    "midi": 66,
                    "time": 302.65461000000414,
                    "velocity": 0.33070866141732286,
                    "duration": 0.2654865000000086
                },
                {
                    "name": "D4",
                    "midi": 62,
                    "time": 302.92009650000415,
                    "velocity": 0.3543307086614173,
                    "duration": 0.2654865000000086
                },
                {
                    "name": "G4",
                    "midi": 67,
                    "time": 303.18558300000416,
                    "velocity": 0.33070866141732286,
                    "duration": 0.2654865000000086
                },
                {
                    "name": "B4",
                    "midi": 71,
                    "time": 303.18558300000416,
                    "velocity": 0.3937007874015748,
                    "duration": 0.2654865000000086
                },
                {
                    "name": "F#4",
                    "midi": 66,
                    "time": 303.45106950000417,
                    "velocity": 0.30708661417322836,
                    "duration": 0.2654865000000086
                },
                {
                    "name": "A4",
                    "midi": 69,
                    "time": 303.45106950000417,
                    "velocity": 0.3700787401574803,
                    "duration": 0.2654865000000086
                },
                {
                    "name": "E4",
                    "midi": 64,
                    "time": 303.7165560000042,
                    "velocity": 0.33070866141732286,
                    "duration": 0.2654865000000086
                },
                {
                    "name": "G4",
                    "midi": 67,
                    "time": 303.7165560000042,
                    "velocity": 0.3937007874015748,
                    "duration": 0.2654865000000086
                },
                {
                    "name": "D4",
                    "midi": 62,
                    "time": 303.9820425000042,
                    "velocity": 0.30708661417322836,
                    "duration": 0.2654865000000086
                },
                {
                    "name": "F#4",
                    "midi": 66,
                    "time": 303.9820425000042,
                    "velocity": 0.3700787401574803,
                    "duration": 0.2654865000000086
                },
                {
                    "name": "C#4",
                    "midi": 61,
                    "time": 304.2475290000042,
                    "velocity": 0.3543307086614173,
                    "duration": 0.2654865000000086
                },
                {
                    "name": "E4",
                    "midi": 64,
                    "time": 304.2475290000042,
                    "velocity": 0.3937007874015748,
                    "duration": 0.2654865000000086
                },
                {
                    "name": "A3",
                    "midi": 57,
                    "time": 304.5130155000042,
                    "velocity": 0.3543307086614173,
                    "duration": 0.2654865000000086
                },
                {
                    "name": "D4",
                    "midi": 62,
                    "time": 304.7785020000042,
                    "velocity": 0.3543307086614173,
                    "duration": 0.2654865000000086
                },
                {
                    "name": "A4",
                    "midi": 69,
                    "time": 304.7785020000042,
                    "velocity": 0.41732283464566927,
                    "duration": 0.2654865000000086
                },
                {
                    "name": "A3",
                    "midi": 57,
                    "time": 305.0439885000042,
                    "velocity": 0.3700787401574803,
                    "duration": 0.2654865000000086
                },
                {
                    "name": "D4",
                    "midi": 62,
                    "time": 305.3094750000042,
                    "velocity": 0.3543307086614173,
                    "duration": 0.2654865000000086
                },
                {
                    "name": "F#4",
                    "midi": 66,
                    "time": 305.3094750000042,
                    "velocity": 0.4251968503937008,
                    "duration": 0.2654865000000086
                },
                {
                    "name": "A3",
                    "midi": 57,
                    "time": 305.57496150000424,
                    "velocity": 0.3700787401574803,
                    "duration": 0.2654865000000086
                },
                {
                    "name": "E4",
                    "midi": 64,
                    "time": 305.84044800000424,
                    "velocity": 0.4251968503937008,
                    "duration": 0.2654865000000086
                },
                {
                    "name": "C#4",
                    "midi": 61,
                    "time": 305.84044800000424,
                    "velocity": 0.3543307086614173,
                    "duration": 0.2654865000000086
                },
                {
                    "name": "A3",
                    "midi": 57,
                    "time": 306.10593450000425,
                    "velocity": 0.3779527559055118,
                    "duration": 0.2654865000000086
                },
                {
                    "name": "G4",
                    "midi": 67,
                    "time": 306.37142100000426,
                    "velocity": 0.30708661417322836,
                    "duration": 0.2654865000000086
                },
                {
                    "name": "B4",
                    "midi": 71,
                    "time": 306.37142100000426,
                    "velocity": 0.3700787401574803,
                    "duration": 0.2654865000000086
                },
                {
                    "name": "F#4",
                    "midi": 66,
                    "time": 306.63690750000427,
                    "velocity": 0.29133858267716534,
                    "duration": 0.2654865000000086
                },
                {
                    "name": "A4",
                    "midi": 69,
                    "time": 306.63690750000427,
                    "velocity": 0.3464566929133858,
                    "duration": 0.2654865000000086
                },
                {
                    "name": "E4",
                    "midi": 64,
                    "time": 306.9023940000043,
                    "velocity": 0.30708661417322836,
                    "duration": 0.2654865000000086
                },
                {
                    "name": "G4",
                    "midi": 67,
                    "time": 306.9023940000043,
                    "velocity": 0.3700787401574803,
                    "duration": 0.2654865000000086
                },
                {
                    "name": "D4",
                    "midi": 62,
                    "time": 307.1678805000043,
                    "velocity": 0.29133858267716534,
                    "duration": 0.2654865000000086
                },
                {
                    "name": "F#4",
                    "midi": 66,
                    "time": 307.1678805000043,
                    "velocity": 0.3464566929133858,
                    "duration": 0.2654865000000086
                },
                {
                    "name": "C#4",
                    "midi": 61,
                    "time": 307.4333670000043,
                    "velocity": 0.33070866141732286,
                    "duration": 0.2654865000000086
                },
                {
                    "name": "E4",
                    "midi": 64,
                    "time": 307.4333670000043,
                    "velocity": 0.3700787401574803,
                    "duration": 0.2654865000000086
                },
                {
                    "name": "A3",
                    "midi": 57,
                    "time": 307.6988535000043,
                    "velocity": 0.33070866141732286,
                    "duration": 0.2654865000000086
                },
                {
                    "name": "F#4",
                    "midi": 66,
                    "time": 307.9643400000043,
                    "velocity": 0.33070866141732286,
                    "duration": 0.2654865000000086
                },
                {
                    "name": "A4",
                    "midi": 69,
                    "time": 307.9643400000043,
                    "velocity": 0.3937007874015748,
                    "duration": 0.2654865000000086
                },
                {
                    "name": "A3",
                    "midi": 57,
                    "time": 308.2298265000043,
                    "velocity": 0.3464566929133858,
                    "duration": 0.2654865000000086
                },
                {
                    "name": "D4",
                    "midi": 62,
                    "time": 308.49531300000433,
                    "velocity": 0.33070866141732286,
                    "duration": 0.2654865000000086
                },
                {
                    "name": "F#4",
                    "midi": 66,
                    "time": 308.49531300000433,
                    "velocity": 0.4015748031496063,
                    "duration": 0.2654865000000086
                },
                {
                    "name": "A3",
                    "midi": 57,
                    "time": 308.76079950000434,
                    "velocity": 0.3464566929133858,
                    "duration": 0.2654865000000086
                },
                {
                    "name": "E4",
                    "midi": 64,
                    "time": 309.02628600000435,
                    "velocity": 0.4015748031496063,
                    "duration": 0.2654865000000086
                },
                {
                    "name": "C#4",
                    "midi": 61,
                    "time": 309.02628600000435,
                    "velocity": 0.33070866141732286,
                    "duration": 0.2654865000000086
                },
                {
                    "name": "A4",
                    "midi": 69,
                    "time": 309.29177250000436,
                    "velocity": 0.3543307086614173,
                    "duration": 0.2654865000000086
                },
                {
                    "name": "D4",
                    "midi": 62,
                    "time": 309.55725900000436,
                    "velocity": 0.3937007874015748,
                    "duration": 1.327432500000043
                },
                {
                    "name": "D5",
                    "midi": 74,
                    "time": 309.55725900000436,
                    "velocity": 0.5039370078740157,
                    "duration": 0.2654865000000086
                },
                {
                    "name": "C#5",
                    "midi": 73,
                    "time": 309.8227455000044,
                    "velocity": 0.4645669291338583,
                    "duration": 0.2654865000000086
                },
                {
                    "name": "D5",
                    "midi": 74,
                    "time": 310.0882320000044,
                    "velocity": 0.48031496062992124,
                    "duration": 0.2654865000000086
                },
                {
                    "name": "B4",
                    "midi": 71,
                    "time": 310.3537185000044,
                    "velocity": 0.4251968503937008,
                    "duration": 0.2654865000000086
                },
                {
                    "name": "A4",
                    "midi": 69,
                    "time": 310.6192050000044,
                    "velocity": 0.49606299212598426,
                    "duration": 0.2654865000000086
                },
                {
                    "name": "A3",
                    "midi": 57,
                    "time": 310.8846915000044,
                    "velocity": 0.4330708661417323,
                    "duration": 0.2654865000000086
                },
                {
                    "name": "G4",
                    "midi": 67,
                    "time": 311.1501780000044,
                    "velocity": 0.48031496062992124,
                    "duration": 0.5309730000000172
                },
                {
                    "name": "E4",
                    "midi": 64,
                    "time": 311.1501780000044,
                    "velocity": 0.4251968503937008,
                    "duration": 0.2654865000000086
                },
                {
                    "name": "B3",
                    "midi": 59,
                    "time": 311.4156645000044,
                    "velocity": 0.4251968503937008,
                    "duration": 0.2654865000000086
                },
                {
                    "name": "E4",
                    "midi": 64,
                    "time": 311.68115100000443,
                    "velocity": 0.48031496062992124,
                    "duration": 0.5309730000000172
                },
                {
                    "name": "C#4",
                    "midi": 61,
                    "time": 311.68115100000443,
                    "velocity": 0.4251968503937008,
                    "duration": 0.2654865000000086
                },
                {
                    "name": "A3",
                    "midi": 57,
                    "time": 311.94663750000444,
                    "velocity": 0.4015748031496063,
                    "duration": 0.2654865000000086
                },
                {
                    "name": "D4",
                    "midi": 62,
                    "time": 312.21212400000445,
                    "velocity": 0.4094488188976378,
                    "duration": 0.3871678125000244
                },
                {
                    "name": "F#4",
                    "midi": 66,
                    "time": 312.21212400000445,
                    "velocity": 0.5039370078740157,
                    "duration": 0.2654865000000086
                },
                {
                    "name": "A4",
                    "midi": 69,
                    "time": 312.47761050000446,
                    "velocity": 0.4330708661417323,
                    "duration": 0.2654865000000086
                },
                {
                    "name": "B4",
                    "midi": 71,
                    "time": 312.74309700000447,
                    "velocity": 0.5039370078740157,
                    "duration": 0.2654865000000086
                },
                {
                    "name": "D5",
                    "midi": 74,
                    "time": 312.74309700000447,
                    "velocity": 0.5039370078740157,
                    "duration": 0.2654865000000086
                },
                {
                    "name": "A#4",
                    "midi": 70,
                    "time": 313.0085835000045,
                    "velocity": 0.4409448818897638,
                    "duration": 0.2654865000000086
                },
                {
                    "name": "C#5",
                    "midi": 73,
                    "time": 313.0085835000045,
                    "velocity": 0.4409448818897638,
                    "duration": 0.2654865000000086
                },
                {
                    "name": "B4",
                    "midi": 71,
                    "time": 313.2740700000045,
                    "velocity": 0.48031496062992124,
                    "duration": 0.2654865000000086
                },
                {
                    "name": "D5",
                    "midi": 74,
                    "time": 313.2740700000045,
                    "velocity": 0.48031496062992124,
                    "duration": 0.2654865000000086
                },
                {
                    "name": "G4",
                    "midi": 67,
                    "time": 313.5395565000045,
                    "velocity": 0.4251968503937008,
                    "duration": 0.2654865000000086
                },
                {
                    "name": "B4",
                    "midi": 71,
                    "time": 313.5395565000045,
                    "velocity": 0.4251968503937008,
                    "duration": 0.2654865000000086
                },
                {
                    "name": "F#4",
                    "midi": 66,
                    "time": 313.8050430000045,
                    "velocity": 0.4409448818897638,
                    "duration": 0.2654865000000086
                },
                {
                    "name": "A4",
                    "midi": 69,
                    "time": 313.8050430000045,
                    "velocity": 0.5196850393700787,
                    "duration": 0.2654865000000086
                },
                {
                    "name": "D4",
                    "midi": 62,
                    "time": 314.0705295000045,
                    "velocity": 0.4015748031496063,
                    "duration": 0.2654865000000086
                },
                {
                    "name": "E4",
                    "midi": 64,
                    "time": 314.3360160000045,
                    "velocity": 0.4251968503937008,
                    "duration": 0.2654865000000086
                },
                {
                    "name": "G4",
                    "midi": 67,
                    "time": 314.3360160000045,
                    "velocity": 0.5039370078740157,
                    "duration": 0.2654865000000086
                },
                {
                    "name": "B3",
                    "midi": 59,
                    "time": 314.60150250000453,
                    "velocity": 0.4015748031496063,
                    "duration": 0.2654865000000086
                },
                {
                    "name": "C#4",
                    "midi": 61,
                    "time": 314.86698900000454,
                    "velocity": 0.4251968503937008,
                    "duration": 0.2654865000000086
                },
                {
                    "name": "E4",
                    "midi": 64,
                    "time": 314.86698900000454,
                    "velocity": 0.5039370078740157,
                    "duration": 0.2654865000000086
                },
                {
                    "name": "A3",
                    "midi": 57,
                    "time": 315.13247550000455,
                    "velocity": 0.4094488188976378,
                    "duration": 0.2654865000000086
                },
                {
                    "name": "D4",
                    "midi": 62,
                    "time": 315.39796200000455,
                    "velocity": 0.4251968503937008,
                    "duration": 0.2654865000000086
                },
                {
                    "name": "F#4",
                    "midi": 66,
                    "time": 315.39796200000455,
                    "velocity": 0.5039370078740157,
                    "duration": 0.2654865000000086
                },
                {
                    "name": "A4",
                    "midi": 69,
                    "time": 315.66344850000456,
                    "velocity": 0.4251968503937008,
                    "duration": 0.2654865000000086
                },
                {
                    "name": "B3",
                    "midi": 59,
                    "time": 315.92893500000457,
                    "velocity": 0.3937007874015748,
                    "duration": 0.3982297499999845
                },
                {
                    "name": "A4",
                    "midi": 69,
                    "time": 315.92893500000457,
                    "velocity": 0.48031496062992124,
                    "duration": 0.2654865000000086
                },
                {
                    "name": "G4",
                    "midi": 67,
                    "time": 316.1944215000046,
                    "velocity": 0.4015748031496063,
                    "duration": 0.2654864999999518
                },
                {
                    "name": "E4",
                    "midi": 64,
                    "time": 316.45990800000453,
                    "velocity": 0.48031496062992124,
                    "duration": 0.2654865000000086
                },
                {
                    "name": "C#4",
                    "midi": 61,
                    "time": 316.72539450000454,
                    "velocity": 0.4094488188976378,
                    "duration": 0.2654865000000086
                },
                {
                    "name": "D4",
                    "midi": 62,
                    "time": 316.99088100000455,
                    "velocity": 0.4645669291338583,
                    "duration": 0.2654865000000086
                },
                {
                    "name": "F#4",
                    "midi": 66,
                    "time": 317.25636750000456,
                    "velocity": 0.3937007874015748,
                    "duration": 0.2654865000000086
                },
                {
                    "name": "B3",
                    "midi": 59,
                    "time": 317.52185400000457,
                    "velocity": 0.3937007874015748,
                    "duration": 0.3982297499999845
                },
                {
                    "name": "A4",
                    "midi": 69,
                    "time": 317.52185400000457,
                    "velocity": 0.4409448818897638,
                    "duration": 0.2654865000000086
                },
                {
                    "name": "G4",
                    "midi": 67,
                    "time": 317.7873405000046,
                    "velocity": 0.3937007874015748,
                    "duration": 0.2654864999999518
                },
                {
                    "name": "E4",
                    "midi": 64,
                    "time": 318.0528270000045,
                    "velocity": 0.44881889763779526,
                    "duration": 0.2654865000000086
                },
                {
                    "name": "C#4",
                    "midi": 61,
                    "time": 318.31831350000454,
                    "velocity": 0.3779527559055118,
                    "duration": 0.2654865000000086
                },
                {
                    "name": "D4",
                    "midi": 62,
                    "time": 318.58380000000454,
                    "velocity": 0.4094488188976378,
                    "duration": 0.5309730000000172
                },
                {
                    "name": "C#4",
                    "midi": 61,
                    "time": 320.17671900000454,
                    "velocity": 0.5039370078740157,
                    "duration": 0.06637162499998794
                },
                {
                    "name": "E4",
                    "midi": 64,
                    "time": 320.2430906250045,
                    "velocity": 0.5039370078740157,
                    "duration": 0.06637162499998794
                },
                {
                    "name": "A4",
                    "midi": 69,
                    "time": 320.3094622500045,
                    "velocity": 0.5984251968503937,
                    "duration": 0.9292027500000017
                },
                {
                    "name": "E4",
                    "midi": 64,
                    "time": 321.2386650000045,
                    "velocity": 0.5511811023622047,
                    "duration": 0.5309730000000172
                },
                {
                    "name": "C#5",
                    "midi": 73,
                    "time": 321.76963800000453,
                    "velocity": 0.5669291338582677,
                    "duration": 0.2654865000000086
                },
                {
                    "name": "D5",
                    "midi": 74,
                    "time": 322.03512450000454,
                    "velocity": 0.5826771653543307,
                    "duration": 0.1327432499999759
                },
                {
                    "name": "B4",
                    "midi": 71,
                    "time": 322.1678677500045,
                    "velocity": 0.5511811023622047,
                    "duration": 0.1327432499999759
                },
                {
                    "name": "A4",
                    "midi": 69,
                    "time": 322.3006110000045,
                    "velocity": 0.5511811023622047,
                    "duration": 0.2654865000000086
                },
                {
                    "name": "C#5",
                    "midi": 73,
                    "time": 323.36255700000453,
                    "velocity": 0.3937007874015748,
                    "duration": 0.2654865000000086
                },
                {
                    "name": "D5",
                    "midi": 74,
                    "time": 323.62804350000454,
                    "velocity": 0.4094488188976378,
                    "duration": 0.1327432499999759
                },
                {
                    "name": "B4",
                    "midi": 71,
                    "time": 323.7607867500045,
                    "velocity": 0.36220472440944884,
                    "duration": 0.1327432499999759
                },
                {
                    "name": "A4",
                    "midi": 69,
                    "time": 323.8935300000045,
                    "velocity": 0.3858267716535433,
                    "duration": 0.5309730000000172
                },
                {
                    "name": "C#6",
                    "midi": 85,
                    "time": 324.4245030000045,
                    "velocity": 0.44881889763779526,
                    "duration": 0.2654865000000086
                },
                {
                    "name": "D#5",
                    "midi": 75,
                    "time": 324.9554760000045,
                    "velocity": 0.3937007874015748,
                    "duration": 0.5309730000000172
                },
                {
                    "name": "E5",
                    "midi": 76,
                    "time": 325.48644900000454,
                    "velocity": 0.4094488188976378,
                    "duration": 0.7964595000000259
                },
                {
                    "name": "F5",
                    "midi": 77,
                    "time": 326.28290850000457,
                    "velocity": 0.4015748031496063,
                    "duration": 0.24336262499997474
                },
                {
                    "name": "G#5",
                    "midi": 80,
                    "time": 326.5483950000045,
                    "velocity": 0.44881889763779526,
                    "duration": 0.2654865000000086
                },
                {
                    "name": "F#5",
                    "midi": 78,
                    "time": 326.8138815000045,
                    "velocity": 0.4409448818897638,
                    "duration": 0.2654865000000086
                },
                {
                    "name": "E5",
                    "midi": 76,
                    "time": 327.07936800000454,
                    "velocity": 0.4251968503937008,
                    "duration": 0.2654865000000086
                },
                {
                    "name": "D5",
                    "midi": 74,
                    "time": 327.34485450000454,
                    "velocity": 0.41732283464566927,
                    "duration": 0.2654865000000086
                },
                {
                    "name": "C#5",
                    "midi": 73,
                    "time": 327.61034100000455,
                    "velocity": 0.4094488188976378,
                    "duration": 0.2654865000000086
                },
                {
                    "name": "B4",
                    "midi": 71,
                    "time": 327.87582750000456,
                    "velocity": 0.4015748031496063,
                    "duration": 0.2654865000000086
                },
                {
                    "name": "A4",
                    "midi": 69,
                    "time": 328.14131400000457,
                    "velocity": 0.4015748031496063,
                    "duration": 0.2654865000000086
                },
                {
                    "name": "G#4",
                    "midi": 68,
                    "time": 328.4068005000046,
                    "velocity": 0.36220472440944884,
                    "duration": 0.2654865000000086
                },
                {
                    "name": "E5",
                    "midi": 76,
                    "time": 328.6722870000046,
                    "velocity": 0.41732283464566927,
                    "duration": 0.2654865000000086
                },
                {
                    "name": "D5",
                    "midi": 74,
                    "time": 328.9377735000046,
                    "velocity": 0.4015748031496063,
                    "duration": 0.2654865000000086
                },
                {
                    "name": "B4",
                    "midi": 71,
                    "time": 329.7342330000046,
                    "velocity": 0.44881889763779526,
                    "duration": 0.2654865000000086
                },
                {
                    "name": "A4",
                    "midi": 69,
                    "time": 329.99971950000463,
                    "velocity": 0.41732283464566927,
                    "duration": 0.2654865000000086
                },
                {
                    "name": "F#5",
                    "midi": 78,
                    "time": 330.26520600000464,
                    "velocity": 0.44881889763779526,
                    "duration": 0.2654865000000086
                },
                {
                    "name": "E5",
                    "midi": 76,
                    "time": 330.53069250000465,
                    "velocity": 0.4409448818897638,
                    "duration": 0.2654865000000086
                },
                {
                    "name": "C#5",
                    "midi": 73,
                    "time": 331.3271520000047,
                    "velocity": 0.49606299212598426,
                    "duration": 0.2654865000000086
                },
                {
                    "name": "B4",
                    "midi": 71,
                    "time": 331.5926385000047,
                    "velocity": 0.4645669291338583,
                    "duration": 0.2654865000000086
                },
                {
                    "name": "G5",
                    "midi": 79,
                    "time": 331.8581250000047,
                    "velocity": 0.4881889763779528,
                    "duration": 0.2654865000000086
                },
                {
                    "name": "F#5",
                    "midi": 78,
                    "time": 332.1236115000047,
                    "velocity": 0.4645669291338583,
                    "duration": 0.2654865000000086
                },
                {
                    "name": "F#4",
                    "midi": 66,
                    "time": 332.9200710000047,
                    "velocity": 0.4015748031496063,
                    "duration": 0.5309730000000172
                },
                {
                    "name": "E5",
                    "midi": 76,
                    "time": 333.45104400000474,
                    "velocity": 0.41732283464566927,
                    "duration": 0.2654865000000086
                },
                {
                    "name": "D5",
                    "midi": 74,
                    "time": 333.71653050000475,
                    "velocity": 0.4015748031496063,
                    "duration": 0.2654865000000086
                },
                {
                    "name": "C#5",
                    "midi": 73,
                    "time": 333.98201700000476,
                    "velocity": 0.4015748031496063,
                    "duration": 0.2654865000000086
                },
                {
                    "name": "B4",
                    "midi": 71,
                    "time": 334.24750350000477,
                    "velocity": 0.3858267716535433,
                    "duration": 0.2654865000000086
                },
                {
                    "name": "A4",
                    "midi": 69,
                    "time": 334.5129900000048,
                    "velocity": 0.4015748031496063,
                    "duration": 0.2654865000000086
                },
                {
                    "name": "G#4",
                    "midi": 68,
                    "time": 334.7784765000048,
                    "velocity": 0.3779527559055118,
                    "duration": 0.2654865000000086
                },
                {
                    "name": "A4",
                    "midi": 69,
                    "time": 335.0439630000048,
                    "velocity": 0.4015748031496063,
                    "duration": 0.5309730000000172
                },
                {
                    "name": "B4",
                    "midi": 71,
                    "time": 335.9067941250048,
                    "velocity": 0.5354330708661418,
                    "duration": 0.06637162499998794
                },
                {
                    "name": "E5",
                    "midi": 76,
                    "time": 335.9731657500048,
                    "velocity": 0.5590551181102362,
                    "duration": 0.06637162499998794
                },
                {
                    "name": "G#5",
                    "midi": 80,
                    "time": 336.0395373750048,
                    "velocity": 0.5826771653543307,
                    "duration": 0.06637162499998794
                },
                {
                    "name": "B5",
                    "midi": 83,
                    "time": 336.1059090000048,
                    "velocity": 0.6062992125984252,
                    "duration": 1.5929189999999949
                },
                {
                    "name": "B5",
                    "midi": 83,
                    "time": 337.69882800000477,
                    "velocity": 0.5748031496062992,
                    "duration": 0.1327432499999759
                },
                {
                    "name": "A5",
                    "midi": 81,
                    "time": 337.83157125000474,
                    "velocity": 0.5669291338582677,
                    "duration": 0.1327432499999759
                },
                {
                    "name": "G#5",
                    "midi": 80,
                    "time": 337.9643145000047,
                    "velocity": 0.5590551181102362,
                    "duration": 0.1327432499999759
                },
                {
                    "name": "F#5",
                    "midi": 78,
                    "time": 338.0970577500047,
                    "velocity": 0.5511811023622047,
                    "duration": 0.1194689249999783
                },
                {
                    "name": "F#5",
                    "midi": 78,
                    "time": 338.22980100000467,
                    "velocity": 0.5669291338582677,
                    "duration": 0.1327432499999759
                },
                {
                    "name": "E5",
                    "midi": 76,
                    "time": 338.36254425000465,
                    "velocity": 0.5590551181102362,
                    "duration": 0.1327432499999759
                },
                {
                    "name": "D#5",
                    "midi": 75,
                    "time": 338.4952875000046,
                    "velocity": 0.5433070866141733,
                    "duration": 0.1327432499999759
                },
                {
                    "name": "C#5",
                    "midi": 73,
                    "time": 338.6280307500046,
                    "velocity": 0.5354330708661418,
                    "duration": 0.1327432499999759
                },
                {
                    "name": "B4",
                    "midi": 71,
                    "time": 338.7607740000046,
                    "velocity": 0.5511811023622047,
                    "duration": 0.1327432499999759
                },
                {
                    "name": "A4",
                    "midi": 69,
                    "time": 338.89351725000455,
                    "velocity": 0.5275590551181102,
                    "duration": 0.1327432499999759
                },
                {
                    "name": "G#4",
                    "midi": 68,
                    "time": 339.0262605000045,
                    "velocity": 0.5275590551181102,
                    "duration": 0.1327432499999759
                },
                {
                    "name": "A4",
                    "midi": 69,
                    "time": 339.1590037500045,
                    "velocity": 0.5275590551181102,
                    "duration": 0.1327432499999759
                },
                {
                    "name": "G#4",
                    "midi": 68,
                    "time": 339.2917470000045,
                    "velocity": 0.5275590551181102,
                    "duration": 0.1327432499999759
                },
                {
                    "name": "B4",
                    "midi": 71,
                    "time": 339.42449025000445,
                    "velocity": 0.5433070866141733,
                    "duration": 0.1327432499999759
                },
                {
                    "name": "E5",
                    "midi": 76,
                    "time": 339.55723350000443,
                    "velocity": 0.5511811023622047,
                    "duration": 0.1327432499999759
                },
                {
                    "name": "G#5",
                    "midi": 80,
                    "time": 339.6899767500044,
                    "velocity": 0.5669291338582677,
                    "duration": 0.1327432499999759
                },
                {
                    "name": "B5",
                    "midi": 83,
                    "time": 339.8227200000044,
                    "velocity": 0.5748031496062992,
                    "duration": 1.0619459999999776
                },
                {
                    "name": "B5",
                    "midi": 83,
                    "time": 340.88466600000436,
                    "velocity": 0.5748031496062992,
                    "duration": 0.1327432499999759
                },
                {
                    "name": "A5",
                    "midi": 81,
                    "time": 341.01740925000433,
                    "velocity": 0.5669291338582677,
                    "duration": 0.1327432499999759
                },
                {
                    "name": "G#5",
                    "midi": 80,
                    "time": 341.1501525000043,
                    "velocity": 0.5590551181102362,
                    "duration": 0.1327432499999759
                },
                {
                    "name": "F#5",
                    "midi": 78,
                    "time": 341.2828957500043,
                    "velocity": 0.5511811023622047,
                    "duration": 0.12168131250001579
                },
                {
                    "name": "F#5",
                    "midi": 78,
                    "time": 341.4156390000043,
                    "velocity": 0.5669291338582677,
                    "duration": 0.1327432499999759
                },
                {
                    "name": "E5",
                    "midi": 76,
                    "time": 341.5483822500043,
                    "velocity": 0.5590551181102362,
                    "duration": 0.1327432499999759
                },
                {
                    "name": "D#5",
                    "midi": 75,
                    "time": 341.68112550000427,
                    "velocity": 0.5433070866141733,
                    "duration": 0.1327432499999759
                },
                {
                    "name": "C#5",
                    "midi": 73,
                    "time": 341.81386875000425,
                    "velocity": 0.5354330708661418,
                    "duration": 0.1327432499999759
                },
                {
                    "name": "B4",
                    "midi": 71,
                    "time": 341.9466120000042,
                    "velocity": 0.5511811023622047,
                    "duration": 0.1327432499999759
                },
                {
                    "name": "A4",
                    "midi": 69,
                    "time": 342.0793552500042,
                    "velocity": 0.5275590551181102,
                    "duration": 0.1327432499999759
                },
                {
                    "name": "G#4",
                    "midi": 68,
                    "time": 342.2120985000042,
                    "velocity": 0.5275590551181102,
                    "duration": 0.1327432499999759
                },
                {
                    "name": "A4",
                    "midi": 69,
                    "time": 342.34484175000415,
                    "velocity": 0.5275590551181102,
                    "duration": 0.1327432499999759
                },
                {
                    "name": "G#4",
                    "midi": 68,
                    "time": 342.4775850000041,
                    "velocity": 0.5275590551181102,
                    "duration": 0.1327432499999759
                },
                {
                    "name": "B4",
                    "midi": 71,
                    "time": 342.6103282500041,
                    "velocity": 0.5039370078740157,
                    "duration": 0.1327432499999759
                },
                {
                    "name": "A4",
                    "midi": 69,
                    "time": 342.7430715000041,
                    "velocity": 0.5511811023622047,
                    "duration": 0.1327432499999759
                },
                {
                    "name": "G#4",
                    "midi": 68,
                    "time": 342.87581475000405,
                    "velocity": 0.5039370078740157,
                    "duration": 0.1327432499999759
                },
                {
                    "name": "A4",
                    "midi": 69,
                    "time": 343.00081464375404,
                    "velocity": 0.5354330708661418,
                    "duration": 0.1327432499999759
                },
                {
                    "name": "B4",
                    "midi": 71,
                    "time": 343.141301250004,
                    "velocity": 0.5354330708661418,
                    "duration": 0.1327432499999759
                },
                {
                    "name": "C#5",
                    "midi": 73,
                    "time": 343.274044500004,
                    "velocity": 0.5433070866141733,
                    "duration": 0.1327432499999759
                },
                {
                    "name": "D#5",
                    "midi": 75,
                    "time": 343.40678775000396,
                    "velocity": 0.5511811023622047,
                    "duration": 0.1327432499999759
                },
                {
                    "name": "E5",
                    "midi": 76,
                    "time": 343.53953100000393,
                    "velocity": 0.5511811023622047,
                    "duration": 0.1327432499999759
                },
                {
                    "name": "F#5",
                    "midi": 78,
                    "time": 343.6722742500039,
                    "velocity": 0.5590551181102362,
                    "duration": 0.1327432499999759
                },
                {
                    "name": "G#5",
                    "midi": 80,
                    "time": 343.8050175000039,
                    "velocity": 0.5669291338582677,
                    "duration": 0.1327432499999759
                },
                {
                    "name": "A5",
                    "midi": 81,
                    "time": 343.93776075000386,
                    "velocity": 0.5669291338582677,
                    "duration": 0.1327432499999759
                },
                {
                    "name": "B5",
                    "midi": 83,
                    "time": 344.07050400000384,
                    "velocity": 0.5748031496062992,
                    "duration": 0.1327432499999759
                },
                {
                    "name": "C#6",
                    "midi": 85,
                    "time": 344.2032472500038,
                    "velocity": 0.5826771653543307,
                    "duration": 0.1327432499999759
                },
                {
                    "name": "D#6",
                    "midi": 87,
                    "time": 344.3359905000038,
                    "velocity": 0.5826771653543307,
                    "duration": 0.1327432499999759
                },
                {
                    "name": "E6",
                    "midi": 88,
                    "time": 344.46873375000376,
                    "velocity": 0.5905511811023622,
                    "duration": 0.1327432499999759
                },
                {
                    "name": "D#6",
                    "midi": 87,
                    "time": 344.60147700000374,
                    "velocity": 0.5669291338582677,
                    "duration": 0.1327432499999759
                },
                {
                    "name": "C#6",
                    "midi": 85,
                    "time": 344.7342202500037,
                    "velocity": 0.5511811023622047,
                    "duration": 0.1327432499999759
                },
                {
                    "name": "B5",
                    "midi": 83,
                    "time": 344.8669635000037,
                    "velocity": 0.5354330708661418,
                    "duration": 0.1327432499999759
                },
                {
                    "name": "A5",
                    "midi": 81,
                    "time": 344.99970675000367,
                    "velocity": 0.5118110236220472,
                    "duration": 0.1327432499999759
                },
                {
                    "name": "G#5",
                    "midi": 80,
                    "time": 345.13245000000364,
                    "velocity": 0.49606299212598426,
                    "duration": 0.1327432499999759
                },
                {
                    "name": "F#5",
                    "midi": 78,
                    "time": 345.2651932500036,
                    "velocity": 0.48031496062992124,
                    "duration": 0.1327432499999759
                },
                {
                    "name": "E5",
                    "midi": 76,
                    "time": 345.3979365000036,
                    "velocity": 0.4645669291338583,
                    "duration": 0.1327432499999759
                },
                {
                    "name": "D#5",
                    "midi": 75,
                    "time": 345.53067975000357,
                    "velocity": 0.44881889763779526,
                    "duration": 0.1327432499999759
                },
                {
                    "name": "C#5",
                    "midi": 73,
                    "time": 345.66342300000355,
                    "velocity": 0.3937007874015748,
                    "duration": 0.2654865000000086
                },
                {
                    "name": "C#6",
                    "midi": 85,
                    "time": 346.06165275000353,
                    "velocity": 0.3937007874015748,
                    "duration": 0.1327432499999759
                },
                {
                    "name": "E5",
                    "midi": 76,
                    "time": 346.1943960000035,
                    "velocity": 0.4251968503937008,
                    "duration": 0.46460137499997245
                },
                {
                    "name": "G#5",
                    "midi": 80,
                    "time": 346.6589973750035,
                    "velocity": 0.3937007874015748,
                    "duration": 0.06637162499998794
                },
                {
                    "name": "D#5",
                    "midi": 75,
                    "time": 346.72536900000347,
                    "velocity": 0.41732283464566927,
                    "duration": 0.5309730000000172
                },
                {
                    "name": "F#5",
                    "midi": 78,
                    "time": 346.72536900000347,
                    "velocity": 0.41732283464566927,
                    "duration": 0.5309730000000172
                },
                {
                    "name": "E5",
                    "midi": 76,
                    "time": 347.2563420000035,
                    "velocity": 0.4015748031496063,
                    "duration": 0.5309730000000172
                },
                {
                    "name": "E4",
                    "midi": 64,
                    "time": 348.7828893750035,
                    "velocity": 0.48031496062992124,
                    "duration": 0.1327432499999759
                },
                {
                    "name": "E5",
                    "midi": 76,
                    "time": 348.8492610000035,
                    "velocity": 0.5826771653543307,
                    "duration": 0.46460137499997245
                },
                {
                    "name": "F#4",
                    "midi": 66,
                    "time": 349.31386237500345,
                    "velocity": 0.48031496062992124,
                    "duration": 0.1327432499999759
                },
                {
                    "name": "F#5",
                    "midi": 78,
                    "time": 349.38023400000344,
                    "velocity": 0.5511811023622047,
                    "duration": 0.46460137499997245
                },
                {
                    "name": "G4",
                    "midi": 67,
                    "time": 349.8448353750034,
                    "velocity": 0.48031496062992124,
                    "duration": 0.1327432499999759
                },
                {
                    "name": "G5",
                    "midi": 79,
                    "time": 349.9112070000034,
                    "velocity": 0.5511811023622047,
                    "duration": 0.5309729999999604
                },
                {
                    "name": "B4",
                    "midi": 71,
                    "time": 350.44218000000336,
                    "velocity": 0.4409448818897638,
                    "duration": 0.5309730000000172
                },
                {
                    "name": "A#4",
                    "midi": 70,
                    "time": 350.9731530000034,
                    "velocity": 0.4094488188976378,
                    "duration": 0.5309730000000172
                },
                {
                    "name": "A#4",
                    "midi": 70,
                    "time": 351.9023557500034,
                    "velocity": 0.4015748031496063,
                    "duration": 0.1327432499999759
                },
                {
                    "name": "C#5",
                    "midi": 73,
                    "time": 352.03509900000336,
                    "velocity": 0.44881889763779526,
                    "duration": 0.5309730000000172
                },
                {
                    "name": "B4",
                    "midi": 71,
                    "time": 352.5660720000034,
                    "velocity": 0.4409448818897638,
                    "duration": 0.5309730000000172
                },
                {
                    "name": "B4",
                    "midi": 71,
                    "time": 353.4952747500034,
                    "velocity": 0.49606299212598426,
                    "duration": 0.1327432499999759
                },
                {
                    "name": "D5",
                    "midi": 74,
                    "time": 353.62801800000335,
                    "velocity": 0.5196850393700787,
                    "duration": 0.5309730000000172
                },
                {
                    "name": "C#5",
                    "midi": 73,
                    "time": 354.15899100000337,
                    "velocity": 0.47244094488188976,
                    "duration": 0.5309730000000172
                },
                {
                    "name": "C#5",
                    "midi": 73,
                    "time": 355.08819375000337,
                    "velocity": 0.5354330708661418,
                    "duration": 0.1327432499999759
                },
                {
                    "name": "E5",
                    "midi": 76,
                    "time": 355.22093700000335,
                    "velocity": 0.5669291338582677,
                    "duration": 0.2654865000000086
                },
                {
                    "name": "D5",
                    "midi": 74,
                    "time": 355.48642350000335,
                    "velocity": 0.5354330708661418,
                    "duration": 0.2654865000000086
                },
                {
                    "name": "F5",
                    "midi": 77,
                    "time": 355.75191000000336,
                    "velocity": 0.5669291338582677,
                    "duration": 0.2654865000000086
                },
                {
                    "name": "E5",
                    "midi": 76,
                    "time": 356.0173965000034,
                    "velocity": 0.5275590551181102,
                    "duration": 0.2654865000000086
                },
                {
                    "name": "G5",
                    "midi": 79,
                    "time": 356.2828830000034,
                    "velocity": 0.5511811023622047,
                    "duration": 0.2654865000000086
                },
                {
                    "name": "F5",
                    "midi": 77,
                    "time": 356.5483695000034,
                    "velocity": 0.5196850393700787,
                    "duration": 0.2654865000000086
                },
                {
                    "name": "A4",
                    "midi": 69,
                    "time": 356.8138560000034,
                    "velocity": 0.4409448818897638,
                    "duration": 0.5309730000000172
                },
                {
                    "name": "G#4",
                    "midi": 68,
                    "time": 357.3448290000034,
                    "velocity": 0.4094488188976378,
                    "duration": 0.5309730000000172
                },
                {
                    "name": "G#4",
                    "midi": 68,
                    "time": 358.2740317500034,
                    "velocity": 0.4015748031496063,
                    "duration": 0.1327432499999759
                },
                {
                    "name": "B4",
                    "midi": 71,
                    "time": 358.4067750000034,
                    "velocity": 0.44881889763779526,
                    "duration": 0.5309730000000172
                },
                {
                    "name": "A4",
                    "midi": 69,
                    "time": 358.9377480000034,
                    "velocity": 0.4409448818897638,
                    "duration": 0.5309730000000172
                },
                {
                    "name": "A4",
                    "midi": 69,
                    "time": 359.8669507500034,
                    "velocity": 0.49606299212598426,
                    "duration": 0.1327432499999759
                },
                {
                    "name": "C5",
                    "midi": 72,
                    "time": 359.9996940000034,
                    "velocity": 0.5196850393700787,
                    "duration": 0.5309730000000172
                },
                {
                    "name": "B4",
                    "midi": 71,
                    "time": 360.5306670000034,
                    "velocity": 0.47244094488188976,
                    "duration": 0.5309730000000172
                },
                {
                    "name": "B4",
                    "midi": 71,
                    "time": 361.4598697500034,
                    "velocity": 0.5354330708661418,
                    "duration": 0.1327432499999759
                },
                {
                    "name": "D5",
                    "midi": 74,
                    "time": 361.5926130000034,
                    "velocity": 0.5669291338582677,
                    "duration": 0.2654865000000086
                },
                {
                    "name": "C5",
                    "midi": 72,
                    "time": 361.8580995000034,
                    "velocity": 0.5354330708661418,
                    "duration": 0.2654865000000086
                },
                {
                    "name": "B4",
                    "midi": 71,
                    "time": 362.1235860000034,
                    "velocity": 0.5669291338582677,
                    "duration": 0.2654865000000086
                },
                {
                    "name": "A4",
                    "midi": 69,
                    "time": 362.3890725000034,
                    "velocity": 0.5275590551181102,
                    "duration": 0.2654865000000086
                },
                {
                    "name": "A5",
                    "midi": 81,
                    "time": 362.6545590000034,
                    "velocity": 0.5748031496062992,
                    "duration": 0.19911487500002067
                },
                {
                    "name": "A5",
                    "midi": 81,
                    "time": 362.9200455000034,
                    "velocity": 0.5511811023622047,
                    "duration": 0.19911487500002067
                },
                {
                    "name": "B5",
                    "midi": 83,
                    "time": 363.18553200000343,
                    "velocity": 0.6141732283464567,
                    "duration": 0.2654865000000086
                },
                {
                    "name": "A5",
                    "midi": 81,
                    "time": 363.45101850000344,
                    "velocity": 0.6141732283464567,
                    "duration": 0.2654865000000086
                },
                {
                    "name": "G5",
                    "midi": 79,
                    "time": 363.71650500000345,
                    "velocity": 0.6062992125984252,
                    "duration": 0.2654865000000086
                },
                {
                    "name": "F5",
                    "midi": 77,
                    "time": 363.98199150000346,
                    "velocity": 0.5905511811023622,
                    "duration": 0.2654865000000086
                },
                {
                    "name": "E5",
                    "midi": 76,
                    "time": 364.24747800000347,
                    "velocity": 0.6220472440944882,
                    "duration": 0.2654865000000086
                },
                {
                    "name": "D#5",
                    "midi": 75,
                    "time": 364.5129645000035,
                    "velocity": 0.5905511811023622,
                    "duration": 0.2654865000000086
                },
                {
                    "name": "C6",
                    "midi": 84,
                    "time": 364.7784510000035,
                    "velocity": 0.6377952755905512,
                    "duration": 1.0619459999999776
                },
                {
                    "name": "D#5",
                    "midi": 75,
                    "time": 365.84039700000346,
                    "velocity": 0.4330708661417323,
                    "duration": 0.5309730000000172
                },
                {
                    "name": "E5",
                    "midi": 76,
                    "time": 366.3713700000035,
                    "velocity": 0.4330708661417323,
                    "duration": 0.7964595000000259
                },
                {
                    "name": "F#5",
                    "midi": 78,
                    "time": 367.1678295000035,
                    "velocity": 0.44881889763779526,
                    "duration": 0.1327432499999759
                },
                {
                    "name": "E5",
                    "midi": 76,
                    "time": 367.3005727500035,
                    "velocity": 0.36220472440944884,
                    "duration": 0.09955743749998192
                },
                {
                    "name": "E5",
                    "midi": 76,
                    "time": 367.43331600000346,
                    "velocity": 0.4330708661417323,
                    "duration": 0.1327432499999759
                },
                {
                    "name": "D5",
                    "midi": 74,
                    "time": 367.56605925000343,
                    "velocity": 0.41732283464566927,
                    "duration": 0.1327432499999759
                },
                {
                    "name": "C#5",
                    "midi": 73,
                    "time": 367.6988025000034,
                    "velocity": 0.4094488188976378,
                    "duration": 0.1327432499999759
                },
                {
                    "name": "B4",
                    "midi": 71,
                    "time": 367.8315457500034,
                    "velocity": 0.4015748031496063,
                    "duration": 0.1327432499999759
                },
                {
                    "name": "C#4",
                    "midi": 61,
                    "time": 367.96428900000336,
                    "velocity": 0.5039370078740157,
                    "duration": 0.06637162499998794
                },
                {
                    "name": "E4",
                    "midi": 64,
                    "time": 368.03066062500335,
                    "velocity": 0.5039370078740157,
                    "duration": 0.06637162499998794
                },
                {
                    "name": "A4",
                    "midi": 69,
                    "time": 368.09703225000334,
                    "velocity": 0.5984251968503937,
                    "duration": 0.9292027500000017
                },
                {
                    "name": "E4",
                    "midi": 64,
                    "time": 369.02623500000334,
                    "velocity": 0.5511811023622047,
                    "duration": 0.5309730000000172
                },
                {
                    "name": "C#5",
                    "midi": 73,
                    "time": 369.55720800000336,
                    "velocity": 0.5669291338582677,
                    "duration": 0.2654865000000086
                },
                {
                    "name": "D5",
                    "midi": 74,
                    "time": 369.82269450000337,
                    "velocity": 0.5826771653543307,
                    "duration": 0.1327432499999759
                },
                {
                    "name": "B4",
                    "midi": 71,
                    "time": 369.95543775000334,
                    "velocity": 0.5511811023622047,
                    "duration": 0.1327432499999759
                },
                {
                    "name": "A4",
                    "midi": 69,
                    "time": 370.0881810000033,
                    "velocity": 0.5511811023622047,
                    "duration": 0.2654865000000086
                },
                {
                    "name": "C#5",
                    "midi": 73,
                    "time": 371.15012700000335,
                    "velocity": 0.3937007874015748,
                    "duration": 0.2654865000000086
                },
                {
                    "name": "D5",
                    "midi": 74,
                    "time": 371.41561350000336,
                    "velocity": 0.4094488188976378,
                    "duration": 0.1327432499999759
                },
                {
                    "name": "B4",
                    "midi": 71,
                    "time": 371.54835675000334,
                    "velocity": 0.36220472440944884,
                    "duration": 0.1327432499999759
                },
                {
                    "name": "A4",
                    "midi": 69,
                    "time": 371.6811000000033,
                    "velocity": 0.3858267716535433,
                    "duration": 0.5309730000000172
                },
                {
                    "name": "C#6",
                    "midi": 85,
                    "time": 372.21207300000333,
                    "velocity": 0.44881889763779526,
                    "duration": 0.2654865000000086
                },
                {
                    "name": "D#5",
                    "midi": 75,
                    "time": 372.74304600000335,
                    "velocity": 0.3937007874015748,
                    "duration": 0.5309730000000172
                },
                {
                    "name": "E5",
                    "midi": 76,
                    "time": 373.27401900000336,
                    "velocity": 0.4094488188976378,
                    "duration": 0.7964595000000259
                },
                {
                    "name": "F5",
                    "midi": 77,
                    "time": 374.0704785000034,
                    "velocity": 0.4015748031496063,
                    "duration": 0.24336262499997474
                },
                {
                    "name": "G#5",
                    "midi": 80,
                    "time": 374.33596500000334,
                    "velocity": 0.44881889763779526,
                    "duration": 0.2654865000000086
                },
                {
                    "name": "F#5",
                    "midi": 78,
                    "time": 374.60145150000335,
                    "velocity": 0.4409448818897638,
                    "duration": 0.2654865000000086
                },
                {
                    "name": "E5",
                    "midi": 76,
                    "time": 374.86693800000336,
                    "velocity": 0.4251968503937008,
                    "duration": 0.2654865000000086
                },
                {
                    "name": "D5",
                    "midi": 74,
                    "time": 375.13242450000337,
                    "velocity": 0.41732283464566927,
                    "duration": 0.2654865000000086
                },
                {
                    "name": "C#5",
                    "midi": 73,
                    "time": 375.3979110000034,
                    "velocity": 0.4094488188976378,
                    "duration": 0.2654865000000086
                },
                {
                    "name": "B4",
                    "midi": 71,
                    "time": 375.6633975000034,
                    "velocity": 0.4015748031496063,
                    "duration": 0.2654865000000086
                },
                {
                    "name": "A4",
                    "midi": 69,
                    "time": 375.9288840000034,
                    "velocity": 0.4015748031496063,
                    "duration": 0.2654865000000086
                },
                {
                    "name": "G#4",
                    "midi": 68,
                    "time": 376.1943705000034,
                    "velocity": 0.36220472440944884,
                    "duration": 0.2654865000000086
                },
                {
                    "name": "E5",
                    "midi": 76,
                    "time": 376.4598570000034,
                    "velocity": 0.41732283464566927,
                    "duration": 0.2654865000000086
                },
                {
                    "name": "D5",
                    "midi": 74,
                    "time": 376.7253435000034,
                    "velocity": 0.4015748031496063,
                    "duration": 0.2654865000000086
                },
                {
                    "name": "B4",
                    "midi": 71,
                    "time": 377.52180300000344,
                    "velocity": 0.44881889763779526,
                    "duration": 0.2654865000000086
                },
                {
                    "name": "A4",
                    "midi": 69,
                    "time": 377.78728950000345,
                    "velocity": 0.41732283464566927,
                    "duration": 0.2654865000000086
                },
                {
                    "name": "F#5",
                    "midi": 78,
                    "time": 378.05277600000346,
                    "velocity": 0.44881889763779526,
                    "duration": 0.2654865000000086
                },
                {
                    "name": "E5",
                    "midi": 76,
                    "time": 378.31826250000347,
                    "velocity": 0.4409448818897638,
                    "duration": 0.2654865000000086
                },
                {
                    "name": "B4",
                    "midi": 71,
                    "time": 379.1147220000035,
                    "velocity": 0.49606299212598426,
                    "duration": 0.2654865000000086
                },
                {
                    "name": "A4",
                    "midi": 69,
                    "time": 379.3802085000035,
                    "velocity": 0.4645669291338583,
                    "duration": 0.2654865000000086
                },
                {
                    "name": "A5",
                    "midi": 81,
                    "time": 379.6456950000035,
                    "velocity": 0.4881889763779528,
                    "duration": 0.2654865000000086
                },
                {
                    "name": "G5",
                    "midi": 79,
                    "time": 379.9111815000035,
                    "velocity": 0.4645669291338583,
                    "duration": 0.2654865000000086
                },
                {
                    "name": "G5",
                    "midi": 79,
                    "time": 380.70764100000355,
                    "velocity": 0.4330708661417323,
                    "duration": 0.2654865000000086
                },
                {
                    "name": "F#5",
                    "midi": 78,
                    "time": 380.97312750000356,
                    "velocity": 0.4094488188976378,
                    "duration": 0.2654865000000086
                },
                {
                    "name": "E5",
                    "midi": 76,
                    "time": 381.23861400000357,
                    "velocity": 0.4015748031496063,
                    "duration": 0.2654865000000086
                },
                {
                    "name": "D5",
                    "midi": 74,
                    "time": 381.5041005000036,
                    "velocity": 0.3937007874015748,
                    "duration": 0.2654865000000086
                },
                {
                    "name": "C#5",
                    "midi": 73,
                    "time": 381.7695870000036,
                    "velocity": 0.3858267716535433,
                    "duration": 0.2654865000000086
                },
                {
                    "name": "B4",
                    "midi": 71,
                    "time": 382.0350735000036,
                    "velocity": 0.3700787401574803,
                    "duration": 0.2654865000000086
                },
                {
                    "name": "E5",
                    "midi": 76,
                    "time": 382.3005600000036,
                    "velocity": 0.3858267716535433,
                    "duration": 0.1327432499999759
                },
                {
                    "name": "F#5",
                    "midi": 78,
                    "time": 382.4333032500036,
                    "velocity": 0.3543307086614173,
                    "duration": 0.04424775000001091
                },
                {
                    "name": "E5",
                    "midi": 76,
                    "time": 382.4775510000036,
                    "velocity": 0.3543307086614173,
                    "duration": 0.04424775000001091
                },
                {
                    "name": "D5",
                    "midi": 74,
                    "time": 382.5217987500036,
                    "velocity": 0.3543307086614173,
                    "duration": 0.04424775000001091
                },
                {
                    "name": "E5",
                    "midi": 76,
                    "time": 382.5660465000036,
                    "velocity": 0.4015748031496063,
                    "duration": 0.1327432499999759
                },
                {
                    "name": "F#5",
                    "midi": 78,
                    "time": 382.6987897500036,
                    "velocity": 0.4094488188976378,
                    "duration": 0.1327432499999759
                },
                {
                    "name": "A4",
                    "midi": 69,
                    "time": 382.83153300000356,
                    "velocity": 0.4015748031496063,
                    "duration": 0.5309730000000172
                },
                {
                    "name": "G#4",
                    "midi": 68,
                    "time": 383.3625060000036,
                    "velocity": 0.3779527559055118,
                    "duration": 0.5309729999999604
                },
                {
                    "name": "A4",
                    "midi": 69,
                    "time": 383.76073575000356,
                    "velocity": 0.5196850393700787,
                    "duration": 0.06637162499998794
                },
                {
                    "name": "C#5",
                    "midi": 73,
                    "time": 383.82710737500355,
                    "velocity": 0.5275590551181102,
                    "duration": 0.06637162499998794
                },
                {
                    "name": "E5",
                    "midi": 76,
                    "time": 383.89347900000354,
                    "velocity": 0.5275590551181102,
                    "duration": 0.5309730000000172
                },
                {
                    "name": "E5",
                    "midi": 76,
                    "time": 384.42445200000355,
                    "velocity": 0.5433070866141733,
                    "duration": 1.0619459999999776
                },
                {
                    "name": "E5",
                    "midi": 76,
                    "time": 385.48639800000353,
                    "velocity": 0.5118110236220472,
                    "duration": 0.1327432499999759
                },
                {
                    "name": "D5",
                    "midi": 74,
                    "time": 385.6191412500035,
                    "velocity": 0.5039370078740157,
                    "duration": 0.1327432499999759
                },
                {
                    "name": "C#5",
                    "midi": 73,
                    "time": 385.7518845000035,
                    "velocity": 0.49606299212598426,
                    "duration": 0.1327432499999759
                },
                {
                    "name": "B4",
                    "midi": 71,
                    "time": 385.88462775000346,
                    "velocity": 0.49606299212598426,
                    "duration": 0.12278750625000612
                },
                {
                    "name": "B4",
                    "midi": 71,
                    "time": 386.0173710000035,
                    "velocity": 0.5039370078740157,
                    "duration": 0.1327432499999759
                },
                {
                    "name": "A4",
                    "midi": 69,
                    "time": 386.15011425000347,
                    "velocity": 0.49606299212598426,
                    "duration": 0.1327432499999759
                },
                {
                    "name": "G#4",
                    "midi": 68,
                    "time": 386.28285750000344,
                    "velocity": 0.4881889763779528,
                    "duration": 0.1327432499999759
                },
                {
                    "name": "F#4",
                    "midi": 66,
                    "time": 386.4156007500034,
                    "velocity": 0.48031496062992124,
                    "duration": 0.1327432499999759
                },
                {
                    "name": "E4",
                    "midi": 64,
                    "time": 386.5483440000034,
                    "velocity": 0.49606299212598426,
                    "duration": 0.1327432499999759
                },
                {
                    "name": "D4",
                    "midi": 62,
                    "time": 386.6810872500034,
                    "velocity": 0.47244094488188976,
                    "duration": 0.1327432499999759
                },
                {
                    "name": "C#4",
                    "midi": 61,
                    "time": 386.81383050000335,
                    "velocity": 0.47244094488188976,
                    "duration": 0.1327432499999759
                },
                {
                    "name": "D4",
                    "midi": 62,
                    "time": 386.9465737500033,
                    "velocity": 0.47244094488188976,
                    "duration": 0.1327432499999759
                },
                {
                    "name": "C#4",
                    "midi": 61,
                    "time": 387.0793170000033,
                    "velocity": 0.47244094488188976,
                    "duration": 0.1327432499999759
                },
                {
                    "name": "E4",
                    "midi": 64,
                    "time": 387.2120602500033,
                    "velocity": 0.4881889763779528,
                    "duration": 0.1327432499999759
                },
                {
                    "name": "A4",
                    "midi": 69,
                    "time": 387.34480350000325,
                    "velocity": 0.49606299212598426,
                    "duration": 0.1327432499999759
                },
                {
                    "name": "C#5",
                    "midi": 73,
                    "time": 387.4775467500032,
                    "velocity": 0.5039370078740157,
                    "duration": 0.1327432499999759
                },
                {
                    "name": "E5",
                    "midi": 76,
                    "time": 387.6102900000032,
                    "velocity": 0.5118110236220472,
                    "duration": 0.7964595000000259
                },
                {
                    "name": "E6",
                    "midi": 88,
                    "time": 388.40674950000323,
                    "velocity": 0.5118110236220472,
                    "duration": 0.25331836875000135
                },
                {
                    "name": "E6",
                    "midi": 88,
                    "time": 388.67223600000324,
                    "velocity": 0.5511811023622047,
                    "duration": 0.1327432499999759
                },
                {
                    "name": "D6",
                    "midi": 86,
                    "time": 388.8049792500032,
                    "velocity": 0.5511811023622047,
                    "duration": 0.1327432499999759
                },
                {
                    "name": "C#6",
                    "midi": 85,
                    "time": 388.9377225000032,
                    "velocity": 0.5433070866141733,
                    "duration": 0.1327432499999759
                },
                {
                    "name": "B5",
                    "midi": 83,
                    "time": 389.07046575000317,
                    "velocity": 0.5433070866141733,
                    "duration": 0.12278750625000612
                },
                {
                    "name": "B5",
                    "midi": 83,
                    "time": 389.2032090000032,
                    "velocity": 0.5354330708661418,
                    "duration": 0.1327432499999759
                },
                {
                    "name": "A5",
                    "midi": 81,
                    "time": 389.3359522500032,
                    "velocity": 0.5275590551181102,
                    "duration": 0.1327432499999759
                },
                {
                    "name": "G#5",
                    "midi": 80,
                    "time": 389.46869550000315,
                    "velocity": 0.5275590551181102,
                    "duration": 0.1327432499999759
                },
                {
                    "name": "F#5",
                    "midi": 78,
                    "time": 389.6014387500031,
                    "velocity": 0.5196850393700787,
                    "duration": 0.1327432499999759
                },
                {
                    "name": "E5",
                    "midi": 76,
                    "time": 389.7341820000031,
                    "velocity": 0.5196850393700787,
                    "duration": 0.1327432499999759
                },
                {
                    "name": "D5",
                    "midi": 74,
                    "time": 389.8669252500031,
                    "velocity": 0.5118110236220472,
                    "duration": 0.1327432499999759
                },
                {
                    "name": "C#5",
                    "midi": 73,
                    "time": 389.99966850000305,
                    "velocity": 0.5118110236220472,
                    "duration": 0.1327432499999759
                },
                {
                    "name": "D5",
                    "midi": 74,
                    "time": 390.13241175000303,
                    "velocity": 0.5039370078740157,
                    "duration": 0.1327432499999759
                },
                {
                    "name": "C#5",
                    "midi": 73,
                    "time": 390.265155000003,
                    "velocity": 0.49606299212598426,
                    "duration": 0.1327432499999759
                },
                {
                    "name": "E5",
                    "midi": 76,
                    "time": 390.397898250003,
                    "velocity": 0.5039370078740157,
                    "duration": 0.1327432499999759
                },
                {
                    "name": "D5",
                    "midi": 74,
                    "time": 390.53064150000296,
                    "velocity": 0.47244094488188976,
                    "duration": 0.1327432499999759
                },
                {
                    "name": "C#5",
                    "midi": 73,
                    "time": 390.66338475000293,
                    "velocity": 0.48031496062992124,
                    "duration": 0.1327432499999759
                },
                {
                    "name": "D5",
                    "midi": 74,
                    "time": 390.7961280000029,
                    "velocity": 0.4881889763779528,
                    "duration": 0.1327432499999759
                },
                {
                    "name": "E5",
                    "midi": 76,
                    "time": 390.9288712500029,
                    "velocity": 0.49606299212598426,
                    "duration": 0.1327432499999759
                },
                {
                    "name": "F#5",
                    "midi": 78,
                    "time": 391.06161450000286,
                    "velocity": 0.5039370078740157,
                    "duration": 0.1327432499999759
                },
                {
                    "name": "G#5",
                    "midi": 80,
                    "time": 391.19435775000284,
                    "velocity": 0.5196850393700787,
                    "duration": 0.1327432499999759
                },
                {
                    "name": "A5",
                    "midi": 81,
                    "time": 391.3271010000028,
                    "velocity": 0.5275590551181102,
                    "duration": 0.1327432499999759
                },
                {
                    "name": "B5",
                    "midi": 83,
                    "time": 391.4598442500028,
                    "velocity": 0.5354330708661418,
                    "duration": 0.1327432499999759
                },
                {
                    "name": "C#6",
                    "midi": 85,
                    "time": 391.59258750000276,
                    "velocity": 0.5511811023622047,
                    "duration": 0.1327432499999759
                },
                {
                    "name": "D6",
                    "midi": 86,
                    "time": 391.72533075000274,
                    "velocity": 0.5590551181102362,
                    "duration": 0.1327432499999759
                },
                {
                    "name": "E6",
                    "midi": 88,
                    "time": 391.8580740000027,
                    "velocity": 0.5669291338582677,
                    "duration": 0.1327432499999759
                },
                {
                    "name": "D6",
                    "midi": 86,
                    "time": 391.9908172500027,
                    "velocity": 0.5590551181102362,
                    "duration": 0.1327432499999759
                },
                {
                    "name": "C#6",
                    "midi": 85,
                    "time": 392.12356050000267,
                    "velocity": 0.5433070866141733,
                    "duration": 0.1327432499999759
                },
                {
                    "name": "B5",
                    "midi": 83,
                    "time": 392.25630375000264,
                    "velocity": 0.5354330708661418,
                    "duration": 0.1327432499999759
                },
                {
                    "name": "A5",
                    "midi": 81,
                    "time": 392.3890470000026,
                    "velocity": 0.5196850393700787,
                    "duration": 0.1327432499999759
                },
                {
                    "name": "G#5",
                    "midi": 80,
                    "time": 392.5217902500026,
                    "velocity": 0.5118110236220472,
                    "duration": 0.1327432499999759
                },
                {
                    "name": "F#5",
                    "midi": 78,
                    "time": 392.6545335000026,
                    "velocity": 0.49606299212598426,
                    "duration": 0.1327432499999759
                },
                {
                    "name": "E5",
                    "midi": 76,
                    "time": 392.78727675000255,
                    "velocity": 0.4881889763779528,
                    "duration": 0.1327432499999759
                },
                {
                    "name": "D5",
                    "midi": 74,
                    "time": 392.9200200000025,
                    "velocity": 0.47244094488188976,
                    "duration": 0.1327432499999759
                },
                {
                    "name": "C#5",
                    "midi": 73,
                    "time": 393.0527632500025,
                    "velocity": 0.4645669291338583,
                    "duration": 0.1327432499999759
                },
                {
                    "name": "B4",
                    "midi": 71,
                    "time": 393.1855065000025,
                    "velocity": 0.44881889763779526,
                    "duration": 0.1327432499999759
                },
                {
                    "name": "A4",
                    "midi": 69,
                    "time": 393.31824975000245,
                    "velocity": 0.4409448818897638,
                    "duration": 0.1327432499999759
                },
                {
                    "name": "F#5",
                    "midi": 78,
                    "time": 393.4509930000024,
                    "velocity": 0.4645669291338583,
                    "duration": 0.08849550000002182
                },
                {
                    "name": "G#5",
                    "midi": 80,
                    "time": 393.53948850000245,
                    "velocity": 0.4330708661417323,
                    "duration": 0.08849550000002182
                },
                {
                    "name": "F#5",
                    "midi": 78,
                    "time": 393.62798400000247,
                    "velocity": 0.4645669291338583,
                    "duration": 0.08849550000002182
                },
                {
                    "name": "F5",
                    "midi": 77,
                    "time": 393.7164795000025,
                    "velocity": 0.4645669291338583,
                    "duration": 0.06637162499998794
                },
                {
                    "name": "F#5",
                    "midi": 78,
                    "time": 393.7828511250025,
                    "velocity": 0.4330708661417323,
                    "duration": 0.06637162499998794
                },
                {
                    "name": "G#5",
                    "midi": 80,
                    "time": 393.84922275000247,
                    "velocity": 0.4330708661417323,
                    "duration": 0.06637162499998794
                },
                {
                    "name": "A5",
                    "midi": 81,
                    "time": 393.91559437500246,
                    "velocity": 0.4330708661417323,
                    "duration": 0.06637162499998794
                },
                {
                    "name": "A4",
                    "midi": 69,
                    "time": 393.98196600000244,
                    "velocity": 0.4645669291338583,
                    "duration": 0.46460137499997245
                },
                {
                    "name": "C#5",
                    "midi": 73,
                    "time": 394.4465673750024,
                    "velocity": 0.3937007874015748,
                    "duration": 0.06637162499998794
                },
                {
                    "name": "B4",
                    "midi": 71,
                    "time": 394.5129390000024,
                    "velocity": 0.41732283464566927,
                    "duration": 0.5309730000000172
                },
                {
                    "name": "G#4",
                    "midi": 68,
                    "time": 394.5129390000024,
                    "velocity": 0.41732283464566927,
                    "duration": 0.5309730000000172
                },
                {
                    "name": "A4",
                    "midi": 69,
                    "time": 395.0439120000024,
                    "velocity": 0.4015748031496063,
                    "duration": 0.5309730000000172
                }
            ],
            "controlChanges": {
                "7": [
                    {
                        "number": 7,
                        "time": 0,
                        "value": 0.7874015748031497
                    }
                ],
                "10": [
                    {
                        "number": 10,
                        "time": 0,
                        "value": 0.5039370078740157
                    }
                ],
                "91": [
                    {
                        "number": 91,
                        "time": 0,
                        "value": 1
                    },
                    {
                        "number": 91,
                        "time": 28.672542000000032,
                        "value": 1
                    },
                    {
                        "number": 91,
                        "time": 76.46011199999997,
                        "value": 1
                    },
                    {
                        "number": 91,
                        "time": 124.2476820000001,
                        "value": 1
                    },
                    {
                        "number": 91,
                        "time": 320.17671900000454,
                        "value": 1
                    },
                    {
                        "number": 91,
                        "time": 367.96428900000336,
                        "value": 1
                    }
                ]
            },
            "id": 1,
            "name": "Piano right",
            "instrumentNumber": 0,
            "instrument": "acoustic grand piano",
            "instrumentFamily": "piano",
            "channelNumber": 0,
            "isPercussion": false
        },
        {
            "startTime": 0.13274325,
            "duration": 396.1058580000026,
            "length": 1051,
            "notes": [
                {
                    "name": "A2",
                    "midi": 45,
                    "time": 0.13274325,
                    "velocity": 0.4645669291338583,
                    "duration": 0.9292027500000001
                },
                {
                    "name": "A3",
                    "midi": 57,
                    "time": 0.13274325,
                    "velocity": 0.5511811023622047,
                    "duration": 0.9292027500000001
                },
                {
                    "name": "E2",
                    "midi": 40,
                    "time": 1.061946,
                    "velocity": 0.41732283464566927,
                    "duration": 0.5309730000000001
                },
                {
                    "name": "E3",
                    "midi": 52,
                    "time": 1.061946,
                    "velocity": 0.49606299212598426,
                    "duration": 0.5309730000000001
                },
                {
                    "name": "C#3",
                    "midi": 49,
                    "time": 1.5929190000000002,
                    "velocity": 0.3779527559055118,
                    "duration": 0.5309729999999999
                },
                {
                    "name": "C#4",
                    "midi": 61,
                    "time": 1.5929190000000002,
                    "velocity": 0.44881889763779526,
                    "duration": 0.5309729999999999
                },
                {
                    "name": "A2",
                    "midi": 45,
                    "time": 2.123892,
                    "velocity": 0.3543307086614173,
                    "duration": 0.2654865000000002
                },
                {
                    "name": "A3",
                    "midi": 57,
                    "time": 2.123892,
                    "velocity": 0.41732283464566927,
                    "duration": 0.2654865000000002
                },
                {
                    "name": "A3",
                    "midi": 57,
                    "time": 4.247784,
                    "velocity": 0.31496062992125984,
                    "duration": 0.26548649999999974
                },
                {
                    "name": "F#4",
                    "midi": 66,
                    "time": 4.247784,
                    "velocity": 0.31496062992125984,
                    "duration": 0.26548649999999974
                },
                {
                    "name": "B3",
                    "midi": 59,
                    "time": 4.778757,
                    "velocity": 0.31496062992125984,
                    "duration": 0.5309730000000004
                },
                {
                    "name": "A4",
                    "midi": 69,
                    "time": 4.778757,
                    "velocity": 0.31496062992125984,
                    "duration": 0.5309730000000004
                },
                {
                    "name": "E4",
                    "midi": 64,
                    "time": 5.30973,
                    "velocity": 0.31496062992125984,
                    "duration": 0.5309730000000004
                },
                {
                    "name": "G#4",
                    "midi": 68,
                    "time": 5.30973,
                    "velocity": 0.31496062992125984,
                    "duration": 0.5309730000000004
                },
                {
                    "name": "E3",
                    "midi": 52,
                    "time": 7.964595000000001,
                    "velocity": 0.30708661417322836,
                    "duration": 0.26548649999999974
                },
                {
                    "name": "D4",
                    "midi": 62,
                    "time": 8.2300815,
                    "velocity": 0.25984251968503935,
                    "duration": 0.26548649999999974
                },
                {
                    "name": "B3",
                    "midi": 59,
                    "time": 8.495568,
                    "velocity": 0.25984251968503935,
                    "duration": 0.26548649999999974
                },
                {
                    "name": "D4",
                    "midi": 62,
                    "time": 8.7610545,
                    "velocity": 0.2204724409448819,
                    "duration": 0.26548649999999974
                },
                {
                    "name": "B3",
                    "midi": 59,
                    "time": 9.026541,
                    "velocity": 0.2440944881889764,
                    "duration": 0.26548649999999974
                },
                {
                    "name": "D4",
                    "midi": 62,
                    "time": 9.2920275,
                    "velocity": 0.2283464566929134,
                    "duration": 0.26548649999999974
                },
                {
                    "name": "E3",
                    "midi": 52,
                    "time": 9.557514,
                    "velocity": 0.31496062992125984,
                    "duration": 0.26548649999999974
                },
                {
                    "name": "C#4",
                    "midi": 61,
                    "time": 9.8230005,
                    "velocity": 0.2677165354330709,
                    "duration": 0.26548649999999974
                },
                {
                    "name": "A3",
                    "midi": 57,
                    "time": 10.088486999999999,
                    "velocity": 0.2677165354330709,
                    "duration": 0.26548649999999974
                },
                {
                    "name": "C#4",
                    "midi": 61,
                    "time": 10.353973499999999,
                    "velocity": 0.23622047244094488,
                    "duration": 0.26548649999999974
                },
                {
                    "name": "A3",
                    "midi": 57,
                    "time": 10.619459999999998,
                    "velocity": 0.25196850393700787,
                    "duration": 0.26548649999999974
                },
                {
                    "name": "C#4",
                    "midi": 61,
                    "time": 10.884946499999998,
                    "velocity": 0.2204724409448819,
                    "duration": 0.26548649999999974
                },
                {
                    "name": "D3",
                    "midi": 50,
                    "time": 11.150432999999998,
                    "velocity": 0.33070866141732286,
                    "duration": 0.26548649999999974
                },
                {
                    "name": "B3",
                    "midi": 59,
                    "time": 11.415919499999998,
                    "velocity": 0.28346456692913385,
                    "duration": 0.26548649999999974
                },
                {
                    "name": "F#3",
                    "midi": 54,
                    "time": 11.681405999999997,
                    "velocity": 0.28346456692913385,
                    "duration": 0.26548649999999974
                },
                {
                    "name": "B3",
                    "midi": 59,
                    "time": 11.946892499999997,
                    "velocity": 0.2677165354330709,
                    "duration": 0.26548649999999974
                },
                {
                    "name": "F#3",
                    "midi": 54,
                    "time": 12.212378999999997,
                    "velocity": 0.28346456692913385,
                    "duration": 0.26548649999999974
                },
                {
                    "name": "B3",
                    "midi": 59,
                    "time": 12.477865499999997,
                    "velocity": 0.2677165354330709,
                    "duration": 0.26548649999999974
                },
                {
                    "name": "D3",
                    "midi": 50,
                    "time": 12.743351999999996,
                    "velocity": 0.30708661417322836,
                    "duration": 0.5309729999999995
                },
                {
                    "name": "E3",
                    "midi": 52,
                    "time": 14.336270999999996,
                    "velocity": 0.25984251968503935,
                    "duration": 0.5309729999999995
                },
                {
                    "name": "D4",
                    "midi": 62,
                    "time": 14.336270999999996,
                    "velocity": 0.30708661417322836,
                    "duration": 0.5309729999999995
                },
                {
                    "name": "A3",
                    "midi": 57,
                    "time": 14.867243999999996,
                    "velocity": 0.25984251968503935,
                    "duration": 0.5309729999999995
                },
                {
                    "name": "C#4",
                    "midi": 61,
                    "time": 14.867243999999996,
                    "velocity": 0.30708661417322836,
                    "duration": 0.5309729999999995
                },
                {
                    "name": "E3",
                    "midi": 52,
                    "time": 15.929189999999995,
                    "velocity": 0.47244094488188976,
                    "duration": 0.2654865000000015
                },
                {
                    "name": "G#3",
                    "midi": 56,
                    "time": 16.194676499999996,
                    "velocity": 0.4094488188976378,
                    "duration": 0.2654865000000015
                },
                {
                    "name": "B3",
                    "midi": 59,
                    "time": 16.460162999999998,
                    "velocity": 0.4409448818897638,
                    "duration": 0.2654865000000015
                },
                {
                    "name": "G#3",
                    "midi": 56,
                    "time": 16.7256495,
                    "velocity": 0.4094488188976378,
                    "duration": 0.2654865000000015
                },
                {
                    "name": "F#3",
                    "midi": 54,
                    "time": 16.991136,
                    "velocity": 0.4409448818897638,
                    "duration": 0.2654865000000015
                },
                {
                    "name": "E3",
                    "midi": 52,
                    "time": 17.256622500000002,
                    "velocity": 0.4015748031496063,
                    "duration": 0.2654865000000015
                },
                {
                    "name": "D#3",
                    "midi": 51,
                    "time": 17.522109000000004,
                    "velocity": 0.47244094488188976,
                    "duration": 0.2654865000000015
                },
                {
                    "name": "E3",
                    "midi": 52,
                    "time": 17.787595500000005,
                    "velocity": 0.3937007874015748,
                    "duration": 0.2654865000000015
                },
                {
                    "name": "F#3",
                    "midi": 54,
                    "time": 18.053082000000007,
                    "velocity": 0.3937007874015748,
                    "duration": 0.2654865000000015
                },
                {
                    "name": "B2",
                    "midi": 47,
                    "time": 18.31856850000001,
                    "velocity": 0.4015748031496063,
                    "duration": 0.2654865000000015
                },
                {
                    "name": "C#3",
                    "midi": 49,
                    "time": 18.58405500000001,
                    "velocity": 0.4251968503937008,
                    "duration": 0.2654865000000015
                },
                {
                    "name": "D#3",
                    "midi": 51,
                    "time": 18.84954150000001,
                    "velocity": 0.4015748031496063,
                    "duration": 0.2654865000000015
                },
                {
                    "name": "E3",
                    "midi": 52,
                    "time": 19.115028000000013,
                    "velocity": 0.47244094488188976,
                    "duration": 0.2654865000000015
                },
                {
                    "name": "G#3",
                    "midi": 56,
                    "time": 19.380514500000015,
                    "velocity": 0.4094488188976378,
                    "duration": 0.2654865000000015
                },
                {
                    "name": "B3",
                    "midi": 59,
                    "time": 19.646001000000016,
                    "velocity": 0.4094488188976378,
                    "duration": 0.2654865000000015
                },
                {
                    "name": "G#3",
                    "midi": 56,
                    "time": 19.911487500000018,
                    "velocity": 0.4094488188976378,
                    "duration": 0.2654865000000015
                },
                {
                    "name": "F#3",
                    "midi": 54,
                    "time": 20.17697400000002,
                    "velocity": 0.4330708661417323,
                    "duration": 0.2654865000000015
                },
                {
                    "name": "E3",
                    "midi": 52,
                    "time": 20.44246050000002,
                    "velocity": 0.4094488188976378,
                    "duration": 0.2654865000000015
                },
                {
                    "name": "D#3",
                    "midi": 51,
                    "time": 20.707947000000022,
                    "velocity": 0.47244094488188976,
                    "duration": 0.2654865000000015
                },
                {
                    "name": "E3",
                    "midi": 52,
                    "time": 20.973433500000024,
                    "velocity": 0.3937007874015748,
                    "duration": 0.2654865000000015
                },
                {
                    "name": "F#3",
                    "midi": 54,
                    "time": 21.238920000000025,
                    "velocity": 0.3937007874015748,
                    "duration": 0.2654865000000015
                },
                {
                    "name": "B2",
                    "midi": 47,
                    "time": 21.504406500000027,
                    "velocity": 0.4015748031496063,
                    "duration": 0.2654865000000015
                },
                {
                    "name": "C#3",
                    "midi": 49,
                    "time": 21.769893000000028,
                    "velocity": 0.4251968503937008,
                    "duration": 0.2654865000000015
                },
                {
                    "name": "D#3",
                    "midi": 51,
                    "time": 22.03537950000003,
                    "velocity": 0.4015748031496063,
                    "duration": 0.2654865000000015
                },
                {
                    "name": "E3",
                    "midi": 52,
                    "time": 22.30086600000003,
                    "velocity": 0.47244094488188976,
                    "duration": 0.5309729999999995
                },
                {
                    "name": "A3",
                    "midi": 57,
                    "time": 25.48670400000003,
                    "velocity": 0.2992125984251969,
                    "duration": 0.5309729999999995
                },
                {
                    "name": "F#4",
                    "midi": 66,
                    "time": 25.48670400000003,
                    "velocity": 0.3543307086614173,
                    "duration": 0.5309729999999995
                },
                {
                    "name": "B3",
                    "midi": 59,
                    "time": 26.01767700000003,
                    "velocity": 0.25984251968503935,
                    "duration": 1.061945999999999
                },
                {
                    "name": "G#4",
                    "midi": 68,
                    "time": 26.01767700000003,
                    "velocity": 0.30708661417322836,
                    "duration": 0.5309729999999995
                },
                {
                    "name": "A4",
                    "midi": 69,
                    "time": 26.54865000000003,
                    "velocity": 0.30708661417322836,
                    "duration": 0.5309729999999995
                },
                {
                    "name": "E4",
                    "midi": 64,
                    "time": 27.07962300000003,
                    "velocity": 0.2755905511811024,
                    "duration": 0.5309729999999995
                },
                {
                    "name": "G#4",
                    "midi": 68,
                    "time": 27.07962300000003,
                    "velocity": 0.33070866141732286,
                    "duration": 0.5309729999999995
                },
                {
                    "name": "E3",
                    "midi": 52,
                    "time": 27.58183496250003,
                    "velocity": 0.2755905511811024,
                    "duration": 0.5309729999999995
                },
                {
                    "name": "A2",
                    "midi": 45,
                    "time": 28.80528525000003,
                    "velocity": 0.4645669291338583,
                    "duration": 0.9292027500000017
                },
                {
                    "name": "A3",
                    "midi": 57,
                    "time": 28.80528525000003,
                    "velocity": 0.5511811023622047,
                    "duration": 0.9292027500000017
                },
                {
                    "name": "E2",
                    "midi": 40,
                    "time": 29.73448800000003,
                    "velocity": 0.41732283464566927,
                    "duration": 0.5309729999999995
                },
                {
                    "name": "E3",
                    "midi": 52,
                    "time": 29.73448800000003,
                    "velocity": 0.49606299212598426,
                    "duration": 0.5309729999999995
                },
                {
                    "name": "C#3",
                    "midi": 49,
                    "time": 30.26546100000003,
                    "velocity": 0.3779527559055118,
                    "duration": 0.5309729999999995
                },
                {
                    "name": "C#4",
                    "midi": 61,
                    "time": 30.26546100000003,
                    "velocity": 0.44881889763779526,
                    "duration": 0.5309729999999995
                },
                {
                    "name": "A2",
                    "midi": 45,
                    "time": 30.79643400000003,
                    "velocity": 0.3543307086614173,
                    "duration": 0.2654865000000015
                },
                {
                    "name": "A3",
                    "midi": 57,
                    "time": 30.79643400000003,
                    "velocity": 0.41732283464566927,
                    "duration": 0.2654865000000015
                },
                {
                    "name": "A3",
                    "midi": 57,
                    "time": 32.92032600000003,
                    "velocity": 0.31496062992125984,
                    "duration": 0.2654865000000015
                },
                {
                    "name": "F#4",
                    "midi": 66,
                    "time": 32.92032600000003,
                    "velocity": 0.31496062992125984,
                    "duration": 0.2654865000000015
                },
                {
                    "name": "B3",
                    "midi": 59,
                    "time": 33.451299000000034,
                    "velocity": 0.31496062992125984,
                    "duration": 0.530973000000003
                },
                {
                    "name": "A4",
                    "midi": 69,
                    "time": 33.451299000000034,
                    "velocity": 0.31496062992125984,
                    "duration": 0.530973000000003
                },
                {
                    "name": "E4",
                    "midi": 64,
                    "time": 33.98227200000004,
                    "velocity": 0.31496062992125984,
                    "duration": 0.530973000000003
                },
                {
                    "name": "G#4",
                    "midi": 68,
                    "time": 33.98227200000004,
                    "velocity": 0.31496062992125984,
                    "duration": 0.530973000000003
                },
                {
                    "name": "E3",
                    "midi": 52,
                    "time": 36.63713700000004,
                    "velocity": 0.30708661417322836,
                    "duration": 0.2654865000000015
                },
                {
                    "name": "D4",
                    "midi": 62,
                    "time": 36.90262350000004,
                    "velocity": 0.25984251968503935,
                    "duration": 0.2654865000000015
                },
                {
                    "name": "B3",
                    "midi": 59,
                    "time": 37.16811000000004,
                    "velocity": 0.25984251968503935,
                    "duration": 0.2654865000000015
                },
                {
                    "name": "D4",
                    "midi": 62,
                    "time": 37.43359650000004,
                    "velocity": 0.2204724409448819,
                    "duration": 0.2654865000000015
                },
                {
                    "name": "B3",
                    "midi": 59,
                    "time": 37.699083000000044,
                    "velocity": 0.2440944881889764,
                    "duration": 0.2654865000000015
                },
                {
                    "name": "D4",
                    "midi": 62,
                    "time": 37.964569500000046,
                    "velocity": 0.2283464566929134,
                    "duration": 0.2654865000000015
                },
                {
                    "name": "E3",
                    "midi": 52,
                    "time": 38.23005600000005,
                    "velocity": 0.31496062992125984,
                    "duration": 0.2654865000000015
                },
                {
                    "name": "C#4",
                    "midi": 61,
                    "time": 38.49554250000005,
                    "velocity": 0.2677165354330709,
                    "duration": 0.2654865000000015
                },
                {
                    "name": "A3",
                    "midi": 57,
                    "time": 38.76102900000005,
                    "velocity": 0.2677165354330709,
                    "duration": 0.2654865000000015
                },
                {
                    "name": "C#4",
                    "midi": 61,
                    "time": 39.02651550000005,
                    "velocity": 0.23622047244094488,
                    "duration": 0.2654865000000015
                },
                {
                    "name": "A3",
                    "midi": 57,
                    "time": 39.29200200000005,
                    "velocity": 0.25196850393700787,
                    "duration": 0.2654865000000015
                },
                {
                    "name": "C#4",
                    "midi": 61,
                    "time": 39.557488500000055,
                    "velocity": 0.2204724409448819,
                    "duration": 0.2654865000000015
                },
                {
                    "name": "D3",
                    "midi": 50,
                    "time": 39.822975000000056,
                    "velocity": 0.33070866141732286,
                    "duration": 0.2654865000000015
                },
                {
                    "name": "B3",
                    "midi": 59,
                    "time": 40.08846150000006,
                    "velocity": 0.28346456692913385,
                    "duration": 0.2654865000000015
                },
                {
                    "name": "F#3",
                    "midi": 54,
                    "time": 40.35394800000006,
                    "velocity": 0.28346456692913385,
                    "duration": 0.2654865000000015
                },
                {
                    "name": "B3",
                    "midi": 59,
                    "time": 40.61943450000006,
                    "velocity": 0.2677165354330709,
                    "duration": 0.2654865000000015
                },
                {
                    "name": "F#3",
                    "midi": 54,
                    "time": 40.88492100000006,
                    "velocity": 0.28346456692913385,
                    "duration": 0.2654865000000015
                },
                {
                    "name": "B3",
                    "midi": 59,
                    "time": 41.150407500000064,
                    "velocity": 0.2677165354330709,
                    "duration": 0.2654865000000015
                },
                {
                    "name": "D3",
                    "midi": 50,
                    "time": 41.415894000000065,
                    "velocity": 0.30708661417322836,
                    "duration": 0.530973000000003
                },
                {
                    "name": "E3",
                    "midi": 52,
                    "time": 43.00881300000007,
                    "velocity": 0.25984251968503935,
                    "duration": 0.530973000000003
                },
                {
                    "name": "D4",
                    "midi": 62,
                    "time": 43.00881300000007,
                    "velocity": 0.30708661417322836,
                    "duration": 0.530973000000003
                },
                {
                    "name": "A3",
                    "midi": 57,
                    "time": 43.53978600000007,
                    "velocity": 0.25984251968503935,
                    "duration": 0.530973000000003
                },
                {
                    "name": "C#4",
                    "midi": 61,
                    "time": 43.53978600000007,
                    "velocity": 0.30708661417322836,
                    "duration": 0.530973000000003
                },
                {
                    "name": "E3",
                    "midi": 52,
                    "time": 44.60173200000008,
                    "velocity": 0.47244094488188976,
                    "duration": 0.2654865000000015
                },
                {
                    "name": "G#3",
                    "midi": 56,
                    "time": 44.86721850000008,
                    "velocity": 0.4094488188976378,
                    "duration": 0.2654865000000015
                },
                {
                    "name": "B3",
                    "midi": 59,
                    "time": 45.13270500000008,
                    "velocity": 0.4409448818897638,
                    "duration": 0.2654865000000015
                },
                {
                    "name": "G#3",
                    "midi": 56,
                    "time": 45.39819150000008,
                    "velocity": 0.4094488188976378,
                    "duration": 0.2654865000000015
                },
                {
                    "name": "F#3",
                    "midi": 54,
                    "time": 45.66367800000008,
                    "velocity": 0.4409448818897638,
                    "duration": 0.2654865000000015
                },
                {
                    "name": "E3",
                    "midi": 52,
                    "time": 45.929164500000084,
                    "velocity": 0.4015748031496063,
                    "duration": 0.2654865000000015
                },
                {
                    "name": "D#3",
                    "midi": 51,
                    "time": 46.194651000000086,
                    "velocity": 0.47244094488188976,
                    "duration": 0.2654865000000015
                },
                {
                    "name": "E3",
                    "midi": 52,
                    "time": 46.46013750000009,
                    "velocity": 0.3937007874015748,
                    "duration": 0.2654865000000015
                },
                {
                    "name": "F#3",
                    "midi": 54,
                    "time": 46.72562400000009,
                    "velocity": 0.3937007874015748,
                    "duration": 0.2654865000000015
                },
                {
                    "name": "B2",
                    "midi": 47,
                    "time": 46.99111050000009,
                    "velocity": 0.4015748031496063,
                    "duration": 0.2654865000000015
                },
                {
                    "name": "C#3",
                    "midi": 49,
                    "time": 47.25659700000009,
                    "velocity": 0.4251968503937008,
                    "duration": 0.2654865000000015
                },
                {
                    "name": "D#3",
                    "midi": 51,
                    "time": 47.52208350000009,
                    "velocity": 0.4015748031496063,
                    "duration": 0.2654865000000015
                },
                {
                    "name": "E3",
                    "midi": 52,
                    "time": 47.787570000000095,
                    "velocity": 0.47244094488188976,
                    "duration": 0.2654865000000015
                },
                {
                    "name": "G#3",
                    "midi": 56,
                    "time": 48.053056500000096,
                    "velocity": 0.4094488188976378,
                    "duration": 0.2654865000000015
                },
                {
                    "name": "B3",
                    "midi": 59,
                    "time": 48.3185430000001,
                    "velocity": 0.4094488188976378,
                    "duration": 0.2654865000000015
                },
                {
                    "name": "G#3",
                    "midi": 56,
                    "time": 48.5840295000001,
                    "velocity": 0.4094488188976378,
                    "duration": 0.2654865000000015
                },
                {
                    "name": "F#3",
                    "midi": 54,
                    "time": 48.8495160000001,
                    "velocity": 0.4330708661417323,
                    "duration": 0.2654865000000015
                },
                {
                    "name": "E3",
                    "midi": 52,
                    "time": 49.1150025000001,
                    "velocity": 0.4094488188976378,
                    "duration": 0.2654865000000015
                },
                {
                    "name": "D#3",
                    "midi": 51,
                    "time": 49.380489000000104,
                    "velocity": 0.47244094488188976,
                    "duration": 0.2654865000000015
                },
                {
                    "name": "E3",
                    "midi": 52,
                    "time": 49.645975500000105,
                    "velocity": 0.3937007874015748,
                    "duration": 0.2654865000000015
                },
                {
                    "name": "F#3",
                    "midi": 54,
                    "time": 49.91146200000011,
                    "velocity": 0.3937007874015748,
                    "duration": 0.2654865000000015
                },
                {
                    "name": "B2",
                    "midi": 47,
                    "time": 50.17694850000011,
                    "velocity": 0.4015748031496063,
                    "duration": 0.2654865000000015
                },
                {
                    "name": "C#3",
                    "midi": 49,
                    "time": 50.44243500000011,
                    "velocity": 0.4251968503937008,
                    "duration": 0.2654865000000015
                },
                {
                    "name": "D#3",
                    "midi": 51,
                    "time": 50.70792150000011,
                    "velocity": 0.4015748031496063,
                    "duration": 0.2654865000000015
                },
                {
                    "name": "E3",
                    "midi": 52,
                    "time": 50.97340800000011,
                    "velocity": 0.47244094488188976,
                    "duration": 0.530973000000003
                },
                {
                    "name": "A3",
                    "midi": 57,
                    "time": 54.15924600000012,
                    "velocity": 0.2992125984251969,
                    "duration": 0.530973000000003
                },
                {
                    "name": "F#4",
                    "midi": 66,
                    "time": 54.15924600000012,
                    "velocity": 0.3543307086614173,
                    "duration": 0.530973000000003
                },
                {
                    "name": "B3",
                    "midi": 59,
                    "time": 54.69021900000012,
                    "velocity": 0.25984251968503935,
                    "duration": 1.061946000000006
                },
                {
                    "name": "G#4",
                    "midi": 68,
                    "time": 54.69021900000012,
                    "velocity": 0.30708661417322836,
                    "duration": 0.530973000000003
                },
                {
                    "name": "A4",
                    "midi": 69,
                    "time": 55.22119200000012,
                    "velocity": 0.30708661417322836,
                    "duration": 0.530973000000003
                },
                {
                    "name": "E4",
                    "midi": 64,
                    "time": 55.752165000000126,
                    "velocity": 0.2755905511811024,
                    "duration": 0.5309729999999959
                },
                {
                    "name": "G#4",
                    "midi": 68,
                    "time": 55.752165000000126,
                    "velocity": 0.33070866141732286,
                    "duration": 0.5309729999999959
                },
                {
                    "name": "E3",
                    "midi": 52,
                    "time": 56.254376962500125,
                    "velocity": 0.2755905511811024,
                    "duration": 0.5309729999999959
                },
                {
                    "name": "F#3",
                    "midi": 54,
                    "time": 58.93800300000012,
                    "velocity": 0.3700787401574803,
                    "duration": 0.2654865000000015
                },
                {
                    "name": "C#4",
                    "midi": 61,
                    "time": 59.203489500000124,
                    "velocity": 0.30708661417322836,
                    "duration": 0.2654865000000015
                },
                {
                    "name": "F#4",
                    "midi": 66,
                    "time": 59.468976000000126,
                    "velocity": 0.30708661417322836,
                    "duration": 0.2654865000000015
                },
                {
                    "name": "E4",
                    "midi": 64,
                    "time": 59.73446250000013,
                    "velocity": 0.30708661417322836,
                    "duration": 0.2654865000000015
                },
                {
                    "name": "D4",
                    "midi": 62,
                    "time": 59.99994900000013,
                    "velocity": 0.30708661417322836,
                    "duration": 0.2654865000000015
                },
                {
                    "name": "C#4",
                    "midi": 61,
                    "time": 60.26543550000013,
                    "velocity": 0.30708661417322836,
                    "duration": 0.2654865000000015
                },
                {
                    "name": "F#3",
                    "midi": 54,
                    "time": 60.53092200000013,
                    "velocity": 0.3700787401574803,
                    "duration": 0.2654865000000015
                },
                {
                    "name": "D4",
                    "midi": 62,
                    "time": 60.79640850000013,
                    "velocity": 0.33070866141732286,
                    "duration": 0.2654865000000015
                },
                {
                    "name": "F#4",
                    "midi": 66,
                    "time": 61.061895000000135,
                    "velocity": 0.33070866141732286,
                    "duration": 0.2654865000000015
                },
                {
                    "name": "D4",
                    "midi": 62,
                    "time": 61.327381500000136,
                    "velocity": 0.33070866141732286,
                    "duration": 0.2654865000000015
                },
                {
                    "name": "C#4",
                    "midi": 61,
                    "time": 61.59286800000014,
                    "velocity": 0.33070866141732286,
                    "duration": 0.2654865000000015
                },
                {
                    "name": "B3",
                    "midi": 59,
                    "time": 61.85835450000014,
                    "velocity": 0.33070866141732286,
                    "duration": 0.2654865000000015
                },
                {
                    "name": "F#3",
                    "midi": 54,
                    "time": 62.12384100000014,
                    "velocity": 0.4409448818897638,
                    "duration": 0.2654865000000015
                },
                {
                    "name": "A#3",
                    "midi": 58,
                    "time": 62.38932750000014,
                    "velocity": 0.3700787401574803,
                    "duration": 0.2654865000000015
                },
                {
                    "name": "E4",
                    "midi": 64,
                    "time": 62.654814000000144,
                    "velocity": 0.3700787401574803,
                    "duration": 0.2654865000000015
                },
                {
                    "name": "C#4",
                    "midi": 61,
                    "time": 62.920300500000145,
                    "velocity": 0.3700787401574803,
                    "duration": 0.2654865000000015
                },
                {
                    "name": "B3",
                    "midi": 59,
                    "time": 63.18578700000015,
                    "velocity": 0.3700787401574803,
                    "duration": 0.2654865000000015
                },
                {
                    "name": "A#3",
                    "midi": 58,
                    "time": 63.45127350000015,
                    "velocity": 0.3700787401574803,
                    "duration": 0.2654865000000015
                },
                {
                    "name": "B3",
                    "midi": 59,
                    "time": 63.71676000000015,
                    "velocity": 0.44881889763779526,
                    "duration": 0.530973000000003
                },
                {
                    "name": "E3",
                    "midi": 52,
                    "time": 65.30967900000016,
                    "velocity": 0.3700787401574803,
                    "duration": 0.2654864999999944
                },
                {
                    "name": "B3",
                    "midi": 59,
                    "time": 65.57516550000015,
                    "velocity": 0.30708661417322836,
                    "duration": 0.2654864999999944
                },
                {
                    "name": "E4",
                    "midi": 64,
                    "time": 65.84065200000015,
                    "velocity": 0.30708661417322836,
                    "duration": 0.2654864999999944
                },
                {
                    "name": "D4",
                    "midi": 62,
                    "time": 66.10613850000014,
                    "velocity": 0.30708661417322836,
                    "duration": 0.2654864999999944
                },
                {
                    "name": "C4",
                    "midi": 60,
                    "time": 66.37162500000014,
                    "velocity": 0.30708661417322836,
                    "duration": 0.2654864999999944
                },
                {
                    "name": "B3",
                    "midi": 59,
                    "time": 66.63711150000013,
                    "velocity": 0.30708661417322836,
                    "duration": 0.2654864999999944
                },
                {
                    "name": "E3",
                    "midi": 52,
                    "time": 66.90259800000013,
                    "velocity": 0.3700787401574803,
                    "duration": 0.2654864999999944
                },
                {
                    "name": "C4",
                    "midi": 60,
                    "time": 67.16808450000012,
                    "velocity": 0.33070866141732286,
                    "duration": 0.2654864999999944
                },
                {
                    "name": "E4",
                    "midi": 64,
                    "time": 67.43357100000011,
                    "velocity": 0.33070866141732286,
                    "duration": 0.2654864999999944
                },
                {
                    "name": "C4",
                    "midi": 60,
                    "time": 67.69905750000011,
                    "velocity": 0.33070866141732286,
                    "duration": 0.2654864999999944
                },
                {
                    "name": "B3",
                    "midi": 59,
                    "time": 67.9645440000001,
                    "velocity": 0.33070866141732286,
                    "duration": 0.2654864999999944
                },
                {
                    "name": "A3",
                    "midi": 57,
                    "time": 68.2300305000001,
                    "velocity": 0.33070866141732286,
                    "duration": 0.2654864999999944
                },
                {
                    "name": "E3",
                    "midi": 52,
                    "time": 68.49551700000009,
                    "velocity": 0.4409448818897638,
                    "duration": 0.2654864999999944
                },
                {
                    "name": "G#3",
                    "midi": 56,
                    "time": 68.76100350000009,
                    "velocity": 0.3700787401574803,
                    "duration": 0.2654864999999944
                },
                {
                    "name": "D4",
                    "midi": 62,
                    "time": 69.02649000000008,
                    "velocity": 0.3700787401574803,
                    "duration": 0.2654864999999944
                },
                {
                    "name": "B3",
                    "midi": 59,
                    "time": 69.29197650000008,
                    "velocity": 0.3700787401574803,
                    "duration": 0.2654864999999944
                },
                {
                    "name": "A3",
                    "midi": 57,
                    "time": 69.55746300000007,
                    "velocity": 0.3700787401574803,
                    "duration": 0.2654864999999944
                },
                {
                    "name": "G#3",
                    "midi": 56,
                    "time": 69.82294950000006,
                    "velocity": 0.3700787401574803,
                    "duration": 0.2654864999999944
                },
                {
                    "name": "A3",
                    "midi": 57,
                    "time": 70.08843600000006,
                    "velocity": 0.44881889763779526,
                    "duration": 1.061946000000006
                },
                {
                    "name": "G2",
                    "midi": 43,
                    "time": 71.15038200000006,
                    "velocity": 0.5433070866141733,
                    "duration": 0.530973000000003
                },
                {
                    "name": "G3",
                    "midi": 55,
                    "time": 71.15038200000006,
                    "velocity": 0.5433070866141733,
                    "duration": 0.530973000000003
                },
                {
                    "name": "F2",
                    "midi": 41,
                    "time": 71.68135500000007,
                    "velocity": 0.5669291338582677,
                    "duration": 1.061946000000006
                },
                {
                    "name": "F3",
                    "midi": 53,
                    "time": 71.68135500000007,
                    "velocity": 0.5669291338582677,
                    "duration": 1.061946000000006
                },
                {
                    "name": "A3",
                    "midi": 57,
                    "time": 73.27427400000008,
                    "velocity": 0.48031496062992124,
                    "duration": 0.2654864999999944
                },
                {
                    "name": "F3",
                    "midi": 53,
                    "time": 73.27427400000008,
                    "velocity": 0.48031496062992124,
                    "duration": 1.5929189999999664
                },
                {
                    "name": "G#3",
                    "midi": 56,
                    "time": 73.53976050000007,
                    "velocity": 0.33070866141732286,
                    "duration": 0.2654864999999944
                },
                {
                    "name": "A3",
                    "midi": 57,
                    "time": 73.80524700000007,
                    "velocity": 0.36220472440944884,
                    "duration": 0.2654864999999944
                },
                {
                    "name": "C4",
                    "midi": 60,
                    "time": 74.07073350000006,
                    "velocity": 0.3228346456692913,
                    "duration": 0.2654864999999944
                },
                {
                    "name": "B3",
                    "midi": 59,
                    "time": 74.33622000000005,
                    "velocity": 0.36220472440944884,
                    "duration": 0.2654864999999944
                },
                {
                    "name": "A3",
                    "midi": 57,
                    "time": 74.60170650000005,
                    "velocity": 0.3228346456692913,
                    "duration": 0.2654864999999944
                },
                {
                    "name": "E3",
                    "midi": 52,
                    "time": 74.86719300000004,
                    "velocity": 0.44881889763779526,
                    "duration": 0.530973000000003
                },
                {
                    "name": "G#3",
                    "midi": 56,
                    "time": 74.86719300000004,
                    "velocity": 0.44881889763779526,
                    "duration": 0.530973000000003
                },
                {
                    "name": "A2",
                    "midi": 45,
                    "time": 76.59285525000004,
                    "velocity": 0.4645669291338583,
                    "duration": 0.9292027500000017
                },
                {
                    "name": "A3",
                    "midi": 57,
                    "time": 76.59285525000004,
                    "velocity": 0.5511811023622047,
                    "duration": 0.9292027500000017
                },
                {
                    "name": "E2",
                    "midi": 40,
                    "time": 77.52205800000004,
                    "velocity": 0.41732283464566927,
                    "duration": 0.530973000000003
                },
                {
                    "name": "E3",
                    "midi": 52,
                    "time": 77.52205800000004,
                    "velocity": 0.49606299212598426,
                    "duration": 0.530973000000003
                },
                {
                    "name": "C#3",
                    "midi": 49,
                    "time": 78.05303100000005,
                    "velocity": 0.3779527559055118,
                    "duration": 0.530973000000003
                },
                {
                    "name": "C#4",
                    "midi": 61,
                    "time": 78.05303100000005,
                    "velocity": 0.44881889763779526,
                    "duration": 0.530973000000003
                },
                {
                    "name": "A2",
                    "midi": 45,
                    "time": 78.58400400000005,
                    "velocity": 0.3543307086614173,
                    "duration": 0.2654864999999944
                },
                {
                    "name": "A3",
                    "midi": 57,
                    "time": 78.58400400000005,
                    "velocity": 0.41732283464566927,
                    "duration": 0.2654864999999944
                },
                {
                    "name": "A3",
                    "midi": 57,
                    "time": 80.70789600000005,
                    "velocity": 0.31496062992125984,
                    "duration": 0.2654864999999944
                },
                {
                    "name": "F#4",
                    "midi": 66,
                    "time": 80.70789600000005,
                    "velocity": 0.31496062992125984,
                    "duration": 0.2654864999999944
                },
                {
                    "name": "B3",
                    "midi": 59,
                    "time": 81.23886900000004,
                    "velocity": 0.31496062992125984,
                    "duration": 0.530973000000003
                },
                {
                    "name": "A4",
                    "midi": 69,
                    "time": 81.23886900000004,
                    "velocity": 0.31496062992125984,
                    "duration": 0.530973000000003
                },
                {
                    "name": "E4",
                    "midi": 64,
                    "time": 81.76984200000004,
                    "velocity": 0.31496062992125984,
                    "duration": 0.530973000000003
                },
                {
                    "name": "G#4",
                    "midi": 68,
                    "time": 81.76984200000004,
                    "velocity": 0.31496062992125984,
                    "duration": 0.530973000000003
                },
                {
                    "name": "E3",
                    "midi": 52,
                    "time": 84.42470700000004,
                    "velocity": 0.30708661417322836,
                    "duration": 0.2654864999999944
                },
                {
                    "name": "D4",
                    "midi": 62,
                    "time": 84.69019350000003,
                    "velocity": 0.25984251968503935,
                    "duration": 0.2654864999999944
                },
                {
                    "name": "B3",
                    "midi": 59,
                    "time": 84.95568000000003,
                    "velocity": 0.25984251968503935,
                    "duration": 0.2654864999999944
                },
                {
                    "name": "D4",
                    "midi": 62,
                    "time": 85.22116650000002,
                    "velocity": 0.2204724409448819,
                    "duration": 0.2654864999999944
                },
                {
                    "name": "B3",
                    "midi": 59,
                    "time": 85.48665300000002,
                    "velocity": 0.2440944881889764,
                    "duration": 0.2654864999999944
                },
                {
                    "name": "D4",
                    "midi": 62,
                    "time": 85.75213950000001,
                    "velocity": 0.2283464566929134,
                    "duration": 0.2654864999999944
                },
                {
                    "name": "E3",
                    "midi": 52,
                    "time": 86.017626,
                    "velocity": 0.31496062992125984,
                    "duration": 0.2654864999999944
                },
                {
                    "name": "C#4",
                    "midi": 61,
                    "time": 86.2831125,
                    "velocity": 0.2677165354330709,
                    "duration": 0.2654864999999944
                },
                {
                    "name": "A3",
                    "midi": 57,
                    "time": 86.548599,
                    "velocity": 0.2677165354330709,
                    "duration": 0.2654864999999944
                },
                {
                    "name": "C#4",
                    "midi": 61,
                    "time": 86.81408549999999,
                    "velocity": 0.23622047244094488,
                    "duration": 0.2654864999999944
                },
                {
                    "name": "A3",
                    "midi": 57,
                    "time": 87.07957199999998,
                    "velocity": 0.25196850393700787,
                    "duration": 0.2654864999999944
                },
                {
                    "name": "C#4",
                    "midi": 61,
                    "time": 87.34505849999998,
                    "velocity": 0.2204724409448819,
                    "duration": 0.2654864999999944
                },
                {
                    "name": "E3",
                    "midi": 52,
                    "time": 87.61054499999997,
                    "velocity": 0.33070866141732286,
                    "duration": 0.2654864999999944
                },
                {
                    "name": "C#4",
                    "midi": 61,
                    "time": 87.87603149999997,
                    "velocity": 0.28346456692913385,
                    "duration": 0.2654864999999944
                },
                {
                    "name": "A3",
                    "midi": 57,
                    "time": 88.14151799999996,
                    "velocity": 0.28346456692913385,
                    "duration": 0.2654864999999944
                },
                {
                    "name": "C#4",
                    "midi": 61,
                    "time": 88.40700449999996,
                    "velocity": 0.2677165354330709,
                    "duration": 0.2654864999999944
                },
                {
                    "name": "A3",
                    "midi": 57,
                    "time": 88.67249099999995,
                    "velocity": 0.28346456692913385,
                    "duration": 0.2654864999999944
                },
                {
                    "name": "C#4",
                    "midi": 61,
                    "time": 88.93797749999995,
                    "velocity": 0.2677165354330709,
                    "duration": 0.2654864999999944
                },
                {
                    "name": "D3",
                    "midi": 50,
                    "time": 89.20346399999994,
                    "velocity": 0.2204724409448819,
                    "duration": 0.530973000000003
                },
                {
                    "name": "A3",
                    "midi": 57,
                    "time": 89.20346399999994,
                    "velocity": 0.2204724409448819,
                    "duration": 0.530973000000003
                },
                {
                    "name": "D4",
                    "midi": 62,
                    "time": 89.20346399999994,
                    "velocity": 0.2677165354330709,
                    "duration": 0.530973000000003
                },
                {
                    "name": "C#3",
                    "midi": 49,
                    "time": 90.79638299999995,
                    "velocity": 0.31496062992125984,
                    "duration": 0.3982297499999987
                },
                {
                    "name": "D3",
                    "midi": 50,
                    "time": 91.19461274999995,
                    "velocity": 0.25984251968503935,
                    "duration": 0.1327432500000043
                },
                {
                    "name": "E3",
                    "midi": 52,
                    "time": 91.32735599999995,
                    "velocity": 0.2992125984251969,
                    "duration": 1.061946000000006
                },
                {
                    "name": "C#4",
                    "midi": 61,
                    "time": 91.32735599999995,
                    "velocity": 0.2992125984251969,
                    "duration": 0.530973000000003
                },
                {
                    "name": "B3",
                    "midi": 59,
                    "time": 91.85832899999996,
                    "velocity": 0.25196850393700787,
                    "duration": 0.530973000000003
                },
                {
                    "name": "A3",
                    "midi": 57,
                    "time": 92.38930199999996,
                    "velocity": 0.4251968503937008,
                    "duration": 0.2654864999999944
                },
                {
                    "name": "C#4",
                    "midi": 61,
                    "time": 92.65478849999995,
                    "velocity": 0.36220472440944884,
                    "duration": 0.2654864999999944
                },
                {
                    "name": "E4",
                    "midi": 64,
                    "time": 92.92027499999995,
                    "velocity": 0.3937007874015748,
                    "duration": 0.2654864999999944
                },
                {
                    "name": "C#4",
                    "midi": 61,
                    "time": 93.18576149999994,
                    "velocity": 0.36220472440944884,
                    "duration": 0.2654864999999944
                },
                {
                    "name": "B3",
                    "midi": 59,
                    "time": 93.45124799999994,
                    "velocity": 0.3937007874015748,
                    "duration": 0.2654864999999944
                },
                {
                    "name": "A3",
                    "midi": 57,
                    "time": 93.71673449999993,
                    "velocity": 0.3543307086614173,
                    "duration": 0.2654864999999944
                },
                {
                    "name": "G#3",
                    "midi": 56,
                    "time": 93.98222099999992,
                    "velocity": 0.4251968503937008,
                    "duration": 0.2654864999999944
                },
                {
                    "name": "A3",
                    "midi": 57,
                    "time": 94.24770749999992,
                    "velocity": 0.3543307086614173,
                    "duration": 0.2654864999999944
                },
                {
                    "name": "B3",
                    "midi": 59,
                    "time": 94.51319399999991,
                    "velocity": 0.3543307086614173,
                    "duration": 0.2654864999999944
                },
                {
                    "name": "E3",
                    "midi": 52,
                    "time": 94.77868049999991,
                    "velocity": 0.3543307086614173,
                    "duration": 0.2654864999999944
                },
                {
                    "name": "F#3",
                    "midi": 54,
                    "time": 95.0441669999999,
                    "velocity": 0.3779527559055118,
                    "duration": 0.2654864999999944
                },
                {
                    "name": "G#3",
                    "midi": 56,
                    "time": 95.3096534999999,
                    "velocity": 0.3543307086614173,
                    "duration": 0.2654864999999944
                },
                {
                    "name": "A3",
                    "midi": 57,
                    "time": 95.57513999999989,
                    "velocity": 0.4251968503937008,
                    "duration": 0.2654864999999944
                },
                {
                    "name": "C#4",
                    "midi": 61,
                    "time": 95.84062649999989,
                    "velocity": 0.36220472440944884,
                    "duration": 0.2654864999999944
                },
                {
                    "name": "E4",
                    "midi": 64,
                    "time": 96.10611299999988,
                    "velocity": 0.36220472440944884,
                    "duration": 0.2654864999999944
                },
                {
                    "name": "C#4",
                    "midi": 61,
                    "time": 96.37159949999987,
                    "velocity": 0.36220472440944884,
                    "duration": 0.2654864999999944
                },
                {
                    "name": "B3",
                    "midi": 59,
                    "time": 96.63708599999987,
                    "velocity": 0.3858267716535433,
                    "duration": 0.2654864999999944
                },
                {
                    "name": "A3",
                    "midi": 57,
                    "time": 96.90257249999986,
                    "velocity": 0.36220472440944884,
                    "duration": 0.2654864999999944
                },
                {
                    "name": "G#3",
                    "midi": 56,
                    "time": 97.16805899999986,
                    "velocity": 0.4094488188976378,
                    "duration": 0.2654864999999944
                },
                {
                    "name": "A3",
                    "midi": 57,
                    "time": 97.43354549999985,
                    "velocity": 0.3464566929133858,
                    "duration": 0.2654864999999944
                },
                {
                    "name": "B3",
                    "midi": 59,
                    "time": 97.69903199999985,
                    "velocity": 0.4015748031496063,
                    "duration": 0.2654864999999944
                },
                {
                    "name": "E3",
                    "midi": 52,
                    "time": 97.96451849999984,
                    "velocity": 0.3464566929133858,
                    "duration": 0.2654864999999944
                },
                {
                    "name": "F#3",
                    "midi": 54,
                    "time": 98.23000499999984,
                    "velocity": 0.3937007874015748,
                    "duration": 0.2654864999999944
                },
                {
                    "name": "G#3",
                    "midi": 56,
                    "time": 98.49549149999983,
                    "velocity": 0.36220472440944884,
                    "duration": 0.2654864999999944
                },
                {
                    "name": "A3",
                    "midi": 57,
                    "time": 98.76097799999982,
                    "velocity": 0.4015748031496063,
                    "duration": 0.530973000000003
                },
                {
                    "name": "F#3",
                    "midi": 54,
                    "time": 99.29195099999983,
                    "velocity": 0.31496062992125984,
                    "duration": 0.530973000000003
                },
                {
                    "name": "A3",
                    "midi": 57,
                    "time": 99.29195099999983,
                    "velocity": 0.3779527559055118,
                    "duration": 0.530973000000003
                },
                {
                    "name": "D3",
                    "midi": 50,
                    "time": 99.82292399999983,
                    "velocity": 0.3464566929133858,
                    "duration": 0.530973000000003
                },
                {
                    "name": "F#3",
                    "midi": 54,
                    "time": 99.82292399999983,
                    "velocity": 0.3464566929133858,
                    "duration": 0.530973000000003
                },
                {
                    "name": "A3",
                    "midi": 57,
                    "time": 99.82292399999983,
                    "velocity": 0.4094488188976378,
                    "duration": 0.530973000000003
                },
                {
                    "name": "C#3",
                    "midi": 49,
                    "time": 100.35389699999983,
                    "velocity": 0.3700787401574803,
                    "duration": 0.530973000000003
                },
                {
                    "name": "E3",
                    "midi": 52,
                    "time": 100.35389699999983,
                    "velocity": 0.3700787401574803,
                    "duration": 0.530973000000003
                },
                {
                    "name": "A3",
                    "midi": 57,
                    "time": 100.35389699999983,
                    "velocity": 0.4409448818897638,
                    "duration": 0.530973000000003
                },
                {
                    "name": "D3",
                    "midi": 50,
                    "time": 101.94681599999984,
                    "velocity": 0.2992125984251969,
                    "duration": 0.530973000000003
                },
                {
                    "name": "B3",
                    "midi": 59,
                    "time": 101.94681599999984,
                    "velocity": 0.3543307086614173,
                    "duration": 0.530973000000003
                },
                {
                    "name": "E3",
                    "midi": 52,
                    "time": 102.47778899999985,
                    "velocity": 0.25984251968503935,
                    "duration": 1.061946000000006
                },
                {
                    "name": "C#4",
                    "midi": 61,
                    "time": 102.47778899999985,
                    "velocity": 0.30708661417322836,
                    "duration": 0.530973000000003
                },
                {
                    "name": "D4",
                    "midi": 62,
                    "time": 103.00876199999985,
                    "velocity": 0.30708661417322836,
                    "duration": 0.530973000000003
                },
                {
                    "name": "A3",
                    "midi": 57,
                    "time": 103.53973499999985,
                    "velocity": 0.2755905511811024,
                    "duration": 0.530973000000003
                },
                {
                    "name": "C#4",
                    "midi": 61,
                    "time": 103.53973499999985,
                    "velocity": 0.33070866141732286,
                    "duration": 0.530973000000003
                },
                {
                    "name": "A2",
                    "midi": 45,
                    "time": 104.07070799999985,
                    "velocity": 0.2755905511811024,
                    "duration": 0.530973000000003
                },
                {
                    "name": "F#3",
                    "midi": 54,
                    "time": 106.72557299999986,
                    "velocity": 0.3700787401574803,
                    "duration": 0.2654864999999944
                },
                {
                    "name": "C#4",
                    "midi": 61,
                    "time": 106.99105949999985,
                    "velocity": 0.30708661417322836,
                    "duration": 0.2654864999999944
                },
                {
                    "name": "F#4",
                    "midi": 66,
                    "time": 107.25654599999984,
                    "velocity": 0.30708661417322836,
                    "duration": 0.2654864999999944
                },
                {
                    "name": "E4",
                    "midi": 64,
                    "time": 107.52203249999984,
                    "velocity": 0.30708661417322836,
                    "duration": 0.2654864999999944
                },
                {
                    "name": "D4",
                    "midi": 62,
                    "time": 107.78751899999983,
                    "velocity": 0.30708661417322836,
                    "duration": 0.2654864999999944
                },
                {
                    "name": "C#4",
                    "midi": 61,
                    "time": 108.05300549999983,
                    "velocity": 0.30708661417322836,
                    "duration": 0.2654864999999944
                },
                {
                    "name": "F#3",
                    "midi": 54,
                    "time": 108.31849199999982,
                    "velocity": 0.3700787401574803,
                    "duration": 0.2654864999999944
                },
                {
                    "name": "D4",
                    "midi": 62,
                    "time": 108.58397849999982,
                    "velocity": 0.33070866141732286,
                    "duration": 0.2654864999999944
                },
                {
                    "name": "F#4",
                    "midi": 66,
                    "time": 108.84946499999981,
                    "velocity": 0.33070866141732286,
                    "duration": 0.2654864999999944
                },
                {
                    "name": "D4",
                    "midi": 62,
                    "time": 109.1149514999998,
                    "velocity": 0.33070866141732286,
                    "duration": 0.2654864999999944
                },
                {
                    "name": "C#4",
                    "midi": 61,
                    "time": 109.3804379999998,
                    "velocity": 0.33070866141732286,
                    "duration": 0.2654864999999944
                },
                {
                    "name": "B3",
                    "midi": 59,
                    "time": 109.6459244999998,
                    "velocity": 0.33070866141732286,
                    "duration": 0.2654864999999944
                },
                {
                    "name": "F#3",
                    "midi": 54,
                    "time": 109.91141099999979,
                    "velocity": 0.4409448818897638,
                    "duration": 0.2654864999999944
                },
                {
                    "name": "A#3",
                    "midi": 58,
                    "time": 110.17689749999978,
                    "velocity": 0.3700787401574803,
                    "duration": 0.2654864999999944
                },
                {
                    "name": "E4",
                    "midi": 64,
                    "time": 110.44238399999978,
                    "velocity": 0.3700787401574803,
                    "duration": 0.2654864999999944
                },
                {
                    "name": "C#4",
                    "midi": 61,
                    "time": 110.70787049999977,
                    "velocity": 0.3700787401574803,
                    "duration": 0.2654864999999944
                },
                {
                    "name": "B3",
                    "midi": 59,
                    "time": 110.97335699999977,
                    "velocity": 0.3700787401574803,
                    "duration": 0.2654864999999944
                },
                {
                    "name": "A#3",
                    "midi": 58,
                    "time": 111.23884349999976,
                    "velocity": 0.3700787401574803,
                    "duration": 0.2654864999999944
                },
                {
                    "name": "B3",
                    "midi": 59,
                    "time": 111.50432999999975,
                    "velocity": 0.44881889763779526,
                    "duration": 0.530973000000003
                },
                {
                    "name": "E3",
                    "midi": 52,
                    "time": 113.09724899999976,
                    "velocity": 0.3700787401574803,
                    "duration": 0.2654864999999944
                },
                {
                    "name": "B3",
                    "midi": 59,
                    "time": 113.36273549999976,
                    "velocity": 0.30708661417322836,
                    "duration": 0.2654864999999944
                },
                {
                    "name": "E4",
                    "midi": 64,
                    "time": 113.62822199999975,
                    "velocity": 0.30708661417322836,
                    "duration": 0.2654864999999944
                },
                {
                    "name": "D4",
                    "midi": 62,
                    "time": 113.89370849999975,
                    "velocity": 0.30708661417322836,
                    "duration": 0.2654864999999944
                },
                {
                    "name": "C4",
                    "midi": 60,
                    "time": 114.15919499999974,
                    "velocity": 0.30708661417322836,
                    "duration": 0.2654864999999944
                },
                {
                    "name": "B3",
                    "midi": 59,
                    "time": 114.42468149999974,
                    "velocity": 0.30708661417322836,
                    "duration": 0.2654864999999944
                },
                {
                    "name": "E3",
                    "midi": 52,
                    "time": 114.69016799999973,
                    "velocity": 0.3700787401574803,
                    "duration": 0.2654864999999944
                },
                {
                    "name": "C4",
                    "midi": 60,
                    "time": 114.95565449999972,
                    "velocity": 0.33070866141732286,
                    "duration": 0.2654864999999944
                },
                {
                    "name": "E4",
                    "midi": 64,
                    "time": 115.22114099999972,
                    "velocity": 0.33070866141732286,
                    "duration": 0.2654864999999944
                },
                {
                    "name": "C4",
                    "midi": 60,
                    "time": 115.48662749999971,
                    "velocity": 0.33070866141732286,
                    "duration": 0.2654864999999944
                },
                {
                    "name": "B3",
                    "midi": 59,
                    "time": 115.75211399999971,
                    "velocity": 0.33070866141732286,
                    "duration": 0.2654864999999944
                },
                {
                    "name": "A3",
                    "midi": 57,
                    "time": 116.0176004999997,
                    "velocity": 0.33070866141732286,
                    "duration": 0.2654864999999944
                },
                {
                    "name": "E3",
                    "midi": 52,
                    "time": 116.2830869999997,
                    "velocity": 0.4409448818897638,
                    "duration": 0.2654864999999944
                },
                {
                    "name": "G#3",
                    "midi": 56,
                    "time": 116.54857349999969,
                    "velocity": 0.3700787401574803,
                    "duration": 0.2654864999999944
                },
                {
                    "name": "D4",
                    "midi": 62,
                    "time": 116.81405999999969,
                    "velocity": 0.3700787401574803,
                    "duration": 0.2654864999999944
                },
                {
                    "name": "B3",
                    "midi": 59,
                    "time": 117.07954649999968,
                    "velocity": 0.3700787401574803,
                    "duration": 0.2654864999999944
                },
                {
                    "name": "A3",
                    "midi": 57,
                    "time": 117.34503299999967,
                    "velocity": 0.3700787401574803,
                    "duration": 0.2654864999999944
                },
                {
                    "name": "G#3",
                    "midi": 56,
                    "time": 117.61051949999967,
                    "velocity": 0.3700787401574803,
                    "duration": 0.2654864999999944
                },
                {
                    "name": "A3",
                    "midi": 57,
                    "time": 117.87600599999966,
                    "velocity": 0.44881889763779526,
                    "duration": 1.061946000000006
                },
                {
                    "name": "G2",
                    "midi": 43,
                    "time": 118.93795199999967,
                    "velocity": 0.5433070866141733,
                    "duration": 0.530973000000003
                },
                {
                    "name": "G3",
                    "midi": 55,
                    "time": 118.93795199999967,
                    "velocity": 0.5433070866141733,
                    "duration": 0.530973000000003
                },
                {
                    "name": "F2",
                    "midi": 41,
                    "time": 119.46892499999967,
                    "velocity": 0.5669291338582677,
                    "duration": 1.061946000000006
                },
                {
                    "name": "F3",
                    "midi": 53,
                    "time": 119.46892499999967,
                    "velocity": 0.5669291338582677,
                    "duration": 1.061946000000006
                },
                {
                    "name": "A3",
                    "midi": 57,
                    "time": 121.06184399999968,
                    "velocity": 0.48031496062992124,
                    "duration": 0.2654864999999944
                },
                {
                    "name": "F3",
                    "midi": 53,
                    "time": 121.06184399999968,
                    "velocity": 0.48031496062992124,
                    "duration": 1.5929189999999664
                },
                {
                    "name": "G#3",
                    "midi": 56,
                    "time": 121.32733049999968,
                    "velocity": 0.33070866141732286,
                    "duration": 0.2654864999999944
                },
                {
                    "name": "A3",
                    "midi": 57,
                    "time": 121.59281699999967,
                    "velocity": 0.36220472440944884,
                    "duration": 0.2654864999999944
                },
                {
                    "name": "C4",
                    "midi": 60,
                    "time": 121.85830349999966,
                    "velocity": 0.3228346456692913,
                    "duration": 0.2654864999999944
                },
                {
                    "name": "B3",
                    "midi": 59,
                    "time": 122.12378999999966,
                    "velocity": 0.36220472440944884,
                    "duration": 0.2654864999999944
                },
                {
                    "name": "A3",
                    "midi": 57,
                    "time": 122.38927649999965,
                    "velocity": 0.3228346456692913,
                    "duration": 0.2654864999999944
                },
                {
                    "name": "E3",
                    "midi": 52,
                    "time": 122.65476299999965,
                    "velocity": 0.44881889763779526,
                    "duration": 0.530973000000003
                },
                {
                    "name": "G#3",
                    "midi": 56,
                    "time": 122.65476299999965,
                    "velocity": 0.44881889763779526,
                    "duration": 0.530973000000003
                },
                {
                    "name": "A2",
                    "midi": 45,
                    "time": 124.38042524999965,
                    "velocity": 0.4645669291338583,
                    "duration": 0.9292027500000017
                },
                {
                    "name": "A3",
                    "midi": 57,
                    "time": 124.38042524999965,
                    "velocity": 0.5511811023622047,
                    "duration": 0.9292027500000017
                },
                {
                    "name": "E2",
                    "midi": 40,
                    "time": 125.30962799999965,
                    "velocity": 0.41732283464566927,
                    "duration": 0.530973000000003
                },
                {
                    "name": "E3",
                    "midi": 52,
                    "time": 125.30962799999965,
                    "velocity": 0.49606299212598426,
                    "duration": 0.530973000000003
                },
                {
                    "name": "C#3",
                    "midi": 49,
                    "time": 125.84060099999965,
                    "velocity": 0.3779527559055118,
                    "duration": 0.530973000000003
                },
                {
                    "name": "C#4",
                    "midi": 61,
                    "time": 125.84060099999965,
                    "velocity": 0.44881889763779526,
                    "duration": 0.530973000000003
                },
                {
                    "name": "A2",
                    "midi": 45,
                    "time": 126.37157399999965,
                    "velocity": 0.3543307086614173,
                    "duration": 0.2654864999999944
                },
                {
                    "name": "A3",
                    "midi": 57,
                    "time": 126.37157399999965,
                    "velocity": 0.41732283464566927,
                    "duration": 0.2654864999999944
                },
                {
                    "name": "A3",
                    "midi": 57,
                    "time": 128.49546599999965,
                    "velocity": 0.31496062992125984,
                    "duration": 0.2654865000000086
                },
                {
                    "name": "F#4",
                    "midi": 66,
                    "time": 128.49546599999965,
                    "velocity": 0.31496062992125984,
                    "duration": 0.2654865000000086
                },
                {
                    "name": "B3",
                    "midi": 59,
                    "time": 129.02643899999967,
                    "velocity": 0.31496062992125984,
                    "duration": 0.5309729999999888
                },
                {
                    "name": "A4",
                    "midi": 69,
                    "time": 129.02643899999967,
                    "velocity": 0.31496062992125984,
                    "duration": 0.5309729999999888
                },
                {
                    "name": "E4",
                    "midi": 64,
                    "time": 129.55741199999966,
                    "velocity": 0.31496062992125984,
                    "duration": 0.5309729999999888
                },
                {
                    "name": "G#4",
                    "midi": 68,
                    "time": 129.55741199999966,
                    "velocity": 0.31496062992125984,
                    "duration": 0.5309729999999888
                },
                {
                    "name": "E3",
                    "midi": 52,
                    "time": 132.21227699999966,
                    "velocity": 0.30708661417322836,
                    "duration": 0.2654865000000086
                },
                {
                    "name": "D4",
                    "midi": 62,
                    "time": 132.47776349999967,
                    "velocity": 0.25984251968503935,
                    "duration": 0.2654865000000086
                },
                {
                    "name": "B3",
                    "midi": 59,
                    "time": 132.74324999999968,
                    "velocity": 0.25984251968503935,
                    "duration": 0.2654865000000086
                },
                {
                    "name": "D4",
                    "midi": 62,
                    "time": 133.00873649999969,
                    "velocity": 0.2204724409448819,
                    "duration": 0.2654865000000086
                },
                {
                    "name": "B3",
                    "midi": 59,
                    "time": 133.2742229999997,
                    "velocity": 0.2440944881889764,
                    "duration": 0.2654865000000086
                },
                {
                    "name": "D4",
                    "midi": 62,
                    "time": 133.5397094999997,
                    "velocity": 0.2283464566929134,
                    "duration": 0.2654865000000086
                },
                {
                    "name": "E3",
                    "midi": 52,
                    "time": 133.8051959999997,
                    "velocity": 0.31496062992125984,
                    "duration": 0.2654865000000086
                },
                {
                    "name": "C#4",
                    "midi": 61,
                    "time": 134.07068249999972,
                    "velocity": 0.2677165354330709,
                    "duration": 0.2654865000000086
                },
                {
                    "name": "A3",
                    "midi": 57,
                    "time": 134.33616899999973,
                    "velocity": 0.2677165354330709,
                    "duration": 0.2654865000000086
                },
                {
                    "name": "C#4",
                    "midi": 61,
                    "time": 134.60165549999974,
                    "velocity": 0.23622047244094488,
                    "duration": 0.2654865000000086
                },
                {
                    "name": "A3",
                    "midi": 57,
                    "time": 134.86714199999975,
                    "velocity": 0.25196850393700787,
                    "duration": 0.2654865000000086
                },
                {
                    "name": "C#4",
                    "midi": 61,
                    "time": 135.13262849999975,
                    "velocity": 0.2204724409448819,
                    "duration": 0.2654865000000086
                },
                {
                    "name": "E3",
                    "midi": 52,
                    "time": 135.39811499999976,
                    "velocity": 0.33070866141732286,
                    "duration": 0.2654865000000086
                },
                {
                    "name": "C#4",
                    "midi": 61,
                    "time": 135.66360149999977,
                    "velocity": 0.28346456692913385,
                    "duration": 0.2654865000000086
                },
                {
                    "name": "A3",
                    "midi": 57,
                    "time": 135.92908799999978,
                    "velocity": 0.28346456692913385,
                    "duration": 0.2654865000000086
                },
                {
                    "name": "C#4",
                    "midi": 61,
                    "time": 136.1945744999998,
                    "velocity": 0.2677165354330709,
                    "duration": 0.2654865000000086
                },
                {
                    "name": "A3",
                    "midi": 57,
                    "time": 136.4600609999998,
                    "velocity": 0.28346456692913385,
                    "duration": 0.2654865000000086
                },
                {
                    "name": "C#4",
                    "midi": 61,
                    "time": 136.7255474999998,
                    "velocity": 0.2677165354330709,
                    "duration": 0.2654865000000086
                },
                {
                    "name": "D3",
                    "midi": 50,
                    "time": 136.99103399999981,
                    "velocity": 0.2204724409448819,
                    "duration": 0.5309729999999888
                },
                {
                    "name": "A3",
                    "midi": 57,
                    "time": 136.99103399999981,
                    "velocity": 0.2204724409448819,
                    "duration": 0.5309729999999888
                },
                {
                    "name": "D4",
                    "midi": 62,
                    "time": 136.99103399999981,
                    "velocity": 0.2677165354330709,
                    "duration": 0.5309729999999888
                },
                {
                    "name": "C#3",
                    "midi": 49,
                    "time": 138.5839529999998,
                    "velocity": 0.31496062992125984,
                    "duration": 0.3982297500000129
                },
                {
                    "name": "D3",
                    "midi": 50,
                    "time": 138.98218274999982,
                    "velocity": 0.25984251968503935,
                    "duration": 0.1327432500000043
                },
                {
                    "name": "E3",
                    "midi": 52,
                    "time": 139.11492599999983,
                    "velocity": 0.2992125984251969,
                    "duration": 1.0619459999999776
                },
                {
                    "name": "C#4",
                    "midi": 61,
                    "time": 139.11492599999983,
                    "velocity": 0.2992125984251969,
                    "duration": 0.5309729999999888
                },
                {
                    "name": "B3",
                    "midi": 59,
                    "time": 139.64589899999982,
                    "velocity": 0.25196850393700787,
                    "duration": 0.5309729999999888
                },
                {
                    "name": "A3",
                    "midi": 57,
                    "time": 140.1768719999998,
                    "velocity": 0.4251968503937008,
                    "duration": 0.2654865000000086
                },
                {
                    "name": "C#4",
                    "midi": 61,
                    "time": 140.4423584999998,
                    "velocity": 0.36220472440944884,
                    "duration": 0.2654865000000086
                },
                {
                    "name": "E4",
                    "midi": 64,
                    "time": 140.70784499999982,
                    "velocity": 0.3937007874015748,
                    "duration": 0.2654865000000086
                },
                {
                    "name": "C#4",
                    "midi": 61,
                    "time": 140.97333149999983,
                    "velocity": 0.36220472440944884,
                    "duration": 0.2654865000000086
                },
                {
                    "name": "B3",
                    "midi": 59,
                    "time": 141.23881799999984,
                    "velocity": 0.3937007874015748,
                    "duration": 0.2654865000000086
                },
                {
                    "name": "A3",
                    "midi": 57,
                    "time": 141.50430449999985,
                    "velocity": 0.3543307086614173,
                    "duration": 0.2654865000000086
                },
                {
                    "name": "G#3",
                    "midi": 56,
                    "time": 141.76979099999986,
                    "velocity": 0.4251968503937008,
                    "duration": 0.2654865000000086
                },
                {
                    "name": "A3",
                    "midi": 57,
                    "time": 142.03527749999986,
                    "velocity": 0.3543307086614173,
                    "duration": 0.2654865000000086
                },
                {
                    "name": "B3",
                    "midi": 59,
                    "time": 142.30076399999987,
                    "velocity": 0.3543307086614173,
                    "duration": 0.2654865000000086
                },
                {
                    "name": "E3",
                    "midi": 52,
                    "time": 142.56625049999988,
                    "velocity": 0.3543307086614173,
                    "duration": 0.2654865000000086
                },
                {
                    "name": "F#3",
                    "midi": 54,
                    "time": 142.8317369999999,
                    "velocity": 0.3779527559055118,
                    "duration": 0.2654865000000086
                },
                {
                    "name": "G#3",
                    "midi": 56,
                    "time": 143.0972234999999,
                    "velocity": 0.3543307086614173,
                    "duration": 0.2654865000000086
                },
                {
                    "name": "A3",
                    "midi": 57,
                    "time": 143.3627099999999,
                    "velocity": 0.4251968503937008,
                    "duration": 0.2654865000000086
                },
                {
                    "name": "C#4",
                    "midi": 61,
                    "time": 143.62819649999992,
                    "velocity": 0.36220472440944884,
                    "duration": 0.2654865000000086
                },
                {
                    "name": "E4",
                    "midi": 64,
                    "time": 143.89368299999992,
                    "velocity": 0.36220472440944884,
                    "duration": 0.2654865000000086
                },
                {
                    "name": "C#4",
                    "midi": 61,
                    "time": 144.15916949999993,
                    "velocity": 0.36220472440944884,
                    "duration": 0.2654865000000086
                },
                {
                    "name": "B3",
                    "midi": 59,
                    "time": 144.42465599999994,
                    "velocity": 0.3858267716535433,
                    "duration": 0.2654865000000086
                },
                {
                    "name": "A3",
                    "midi": 57,
                    "time": 144.69014249999995,
                    "velocity": 0.36220472440944884,
                    "duration": 0.2654865000000086
                },
                {
                    "name": "G#3",
                    "midi": 56,
                    "time": 144.95562899999996,
                    "velocity": 0.4094488188976378,
                    "duration": 0.2654865000000086
                },
                {
                    "name": "A3",
                    "midi": 57,
                    "time": 145.22111549999997,
                    "velocity": 0.3464566929133858,
                    "duration": 0.2654865000000086
                },
                {
                    "name": "B3",
                    "midi": 59,
                    "time": 145.48660199999998,
                    "velocity": 0.4015748031496063,
                    "duration": 0.2654865000000086
                },
                {
                    "name": "E3",
                    "midi": 52,
                    "time": 145.75208849999999,
                    "velocity": 0.3464566929133858,
                    "duration": 0.2654865000000086
                },
                {
                    "name": "F#3",
                    "midi": 54,
                    "time": 146.017575,
                    "velocity": 0.3937007874015748,
                    "duration": 0.2654865000000086
                },
                {
                    "name": "G#3",
                    "midi": 56,
                    "time": 146.2830615,
                    "velocity": 0.36220472440944884,
                    "duration": 0.2654865000000086
                },
                {
                    "name": "A3",
                    "midi": 57,
                    "time": 146.548548,
                    "velocity": 0.4015748031496063,
                    "duration": 0.5309729999999888
                },
                {
                    "name": "F#3",
                    "midi": 54,
                    "time": 147.079521,
                    "velocity": 0.31496062992125984,
                    "duration": 0.5309729999999888
                },
                {
                    "name": "A3",
                    "midi": 57,
                    "time": 147.079521,
                    "velocity": 0.3779527559055118,
                    "duration": 0.5309729999999888
                },
                {
                    "name": "D3",
                    "midi": 50,
                    "time": 147.610494,
                    "velocity": 0.3464566929133858,
                    "duration": 0.5309729999999888
                },
                {
                    "name": "F#3",
                    "midi": 54,
                    "time": 147.610494,
                    "velocity": 0.3464566929133858,
                    "duration": 0.5309729999999888
                },
                {
                    "name": "A3",
                    "midi": 57,
                    "time": 147.610494,
                    "velocity": 0.4094488188976378,
                    "duration": 0.5309729999999888
                },
                {
                    "name": "C#3",
                    "midi": 49,
                    "time": 148.14146699999998,
                    "velocity": 0.3700787401574803,
                    "duration": 0.5309729999999888
                },
                {
                    "name": "E3",
                    "midi": 52,
                    "time": 148.14146699999998,
                    "velocity": 0.3700787401574803,
                    "duration": 0.5309729999999888
                },
                {
                    "name": "A3",
                    "midi": 57,
                    "time": 148.14146699999998,
                    "velocity": 0.4409448818897638,
                    "duration": 0.5309729999999888
                },
                {
                    "name": "D3",
                    "midi": 50,
                    "time": 149.73438599999997,
                    "velocity": 0.2992125984251969,
                    "duration": 0.5309729999999888
                },
                {
                    "name": "B3",
                    "midi": 59,
                    "time": 149.73438599999997,
                    "velocity": 0.3543307086614173,
                    "duration": 0.5309729999999888
                },
                {
                    "name": "E3",
                    "midi": 52,
                    "time": 150.26535899999996,
                    "velocity": 0.25984251968503935,
                    "duration": 1.0619459999999776
                },
                {
                    "name": "C#4",
                    "midi": 61,
                    "time": 150.26535899999996,
                    "velocity": 0.30708661417322836,
                    "duration": 0.5309729999999888
                },
                {
                    "name": "D4",
                    "midi": 62,
                    "time": 150.79633199999995,
                    "velocity": 0.30708661417322836,
                    "duration": 0.5309729999999888
                },
                {
                    "name": "A3",
                    "midi": 57,
                    "time": 151.32730499999994,
                    "velocity": 0.2755905511811024,
                    "duration": 0.5309729999999888
                },
                {
                    "name": "C#4",
                    "midi": 61,
                    "time": 151.32730499999994,
                    "velocity": 0.33070866141732286,
                    "duration": 0.5309729999999888
                },
                {
                    "name": "A2",
                    "midi": 45,
                    "time": 151.85827799999993,
                    "velocity": 0.2755905511811024,
                    "duration": 0.5309729999999888
                },
                {
                    "name": "D2",
                    "midi": 38,
                    "time": 154.51314299999993,
                    "velocity": 0.29133858267716534,
                    "duration": 2.123892000000012
                },
                {
                    "name": "D3",
                    "midi": 50,
                    "time": 154.51314299999993,
                    "velocity": 0.3464566929133858,
                    "duration": 2.123892000000012
                },
                {
                    "name": "A2",
                    "midi": 45,
                    "time": 158.76092699999995,
                    "velocity": 0.2677165354330709,
                    "duration": 0.5309729999999888
                },
                {
                    "name": "A3",
                    "midi": 57,
                    "time": 158.76092699999995,
                    "velocity": 0.3228346456692913,
                    "duration": 0.5309729999999888
                },
                {
                    "name": "D2",
                    "midi": 38,
                    "time": 159.29189999999994,
                    "velocity": 0.2677165354330709,
                    "duration": 0.5309729999999888
                },
                {
                    "name": "D3",
                    "midi": 50,
                    "time": 159.29189999999994,
                    "velocity": 0.3228346456692913,
                    "duration": 0.5309729999999888
                },
                {
                    "name": "F#5",
                    "midi": 78,
                    "time": 159.82287299999993,
                    "velocity": 0.4330708661417323,
                    "duration": 0.2654865000000086
                },
                {
                    "name": "E5",
                    "midi": 76,
                    "time": 160.08835949999994,
                    "velocity": 0.36220472440944884,
                    "duration": 0.2654865000000086
                },
                {
                    "name": "F#5",
                    "midi": 78,
                    "time": 160.35384599999995,
                    "velocity": 0.4251968503937008,
                    "duration": 0.2654865000000086
                },
                {
                    "name": "G5",
                    "midi": 79,
                    "time": 160.61933249999996,
                    "velocity": 0.3700787401574803,
                    "duration": 0.2654865000000086
                },
                {
                    "name": "A5",
                    "midi": 81,
                    "time": 160.88481899999996,
                    "velocity": 0.41732283464566927,
                    "duration": 0.5309729999999888
                },
                {
                    "name": "B5",
                    "midi": 83,
                    "time": 161.41579199999995,
                    "velocity": 0.41732283464566927,
                    "duration": 0.5309729999999888
                },
                {
                    "name": "C#6",
                    "midi": 85,
                    "time": 161.94676499999994,
                    "velocity": 0.41732283464566927,
                    "duration": 0.5309729999999888
                },
                {
                    "name": "D6",
                    "midi": 86,
                    "time": 162.47773799999993,
                    "velocity": 0.4251968503937008,
                    "duration": 0.5309729999999888
                },
                {
                    "name": "E3",
                    "midi": 52,
                    "time": 164.07065699999993,
                    "velocity": 0.3228346456692913,
                    "duration": 0.5309729999999888
                },
                {
                    "name": "C#3",
                    "midi": 49,
                    "time": 164.60162999999991,
                    "velocity": 0.2755905511811024,
                    "duration": 0.5309729999999888
                },
                {
                    "name": "A2",
                    "midi": 45,
                    "time": 165.1326029999999,
                    "velocity": 0.2755905511811024,
                    "duration": 0.5309729999999888
                },
                {
                    "name": "E3",
                    "midi": 52,
                    "time": 165.6635759999999,
                    "velocity": 0.31496062992125984,
                    "duration": 0.5309729999999888
                },
                {
                    "name": "D6",
                    "midi": 86,
                    "time": 166.19454899999988,
                    "velocity": 0.47244094488188976,
                    "duration": 0.2654865000000086
                },
                {
                    "name": "C#6",
                    "midi": 85,
                    "time": 166.4600354999999,
                    "velocity": 0.4566929133858268,
                    "duration": 0.2654865000000086
                },
                {
                    "name": "B5",
                    "midi": 83,
                    "time": 166.7255219999999,
                    "velocity": 0.4409448818897638,
                    "duration": 0.2654865000000086
                },
                {
                    "name": "A5",
                    "midi": 81,
                    "time": 166.9910084999999,
                    "velocity": 0.4409448818897638,
                    "duration": 0.19911487499999225
                },
                {
                    "name": "D#6",
                    "midi": 87,
                    "time": 167.1901233749999,
                    "velocity": 0.4251968503937008,
                    "duration": 0.06637162499998794
                },
                {
                    "name": "E6",
                    "midi": 88,
                    "time": 167.2564949999999,
                    "velocity": 0.5118110236220472,
                    "duration": 0.46460137500000087
                },
                {
                    "name": "D#6",
                    "midi": 87,
                    "time": 167.7210963749999,
                    "velocity": 0.4251968503937008,
                    "duration": 0.06637162499998794
                },
                {
                    "name": "E6",
                    "midi": 88,
                    "time": 167.78746799999988,
                    "velocity": 0.5118110236220472,
                    "duration": 0.46460137500000087
                },
                {
                    "name": "D#6",
                    "midi": 87,
                    "time": 168.25206937499988,
                    "velocity": 0.4251968503937008,
                    "duration": 0.06637162499998794
                },
                {
                    "name": "E6",
                    "midi": 88,
                    "time": 168.31844099999986,
                    "velocity": 0.5196850393700787,
                    "duration": 0.46460137500000087
                },
                {
                    "name": "D#6",
                    "midi": 87,
                    "time": 168.78304237499987,
                    "velocity": 0.4251968503937008,
                    "duration": 0.06637162499998794
                },
                {
                    "name": "E6",
                    "midi": 88,
                    "time": 168.84941399999985,
                    "velocity": 0.5118110236220472,
                    "duration": 0.5309729999999888
                },
                {
                    "name": "A2",
                    "midi": 45,
                    "time": 169.38038699999984,
                    "velocity": 0.4015748031496063,
                    "duration": 0.2654865000000086
                },
                {
                    "name": "G#2",
                    "midi": 44,
                    "time": 169.64587349999985,
                    "velocity": 0.3700787401574803,
                    "duration": 0.2654865000000086
                },
                {
                    "name": "A2",
                    "midi": 45,
                    "time": 169.91135999999986,
                    "velocity": 0.4015748031496063,
                    "duration": 0.2654865000000086
                },
                {
                    "name": "B2",
                    "midi": 47,
                    "time": 170.17684649999987,
                    "velocity": 0.3700787401574803,
                    "duration": 0.2654865000000086
                },
                {
                    "name": "C#3",
                    "midi": 49,
                    "time": 170.44233299999988,
                    "velocity": 0.4015748031496063,
                    "duration": 0.5309729999999888
                },
                {
                    "name": "E3",
                    "midi": 52,
                    "time": 170.97330599999987,
                    "velocity": 0.36220472440944884,
                    "duration": 0.5309729999999888
                },
                {
                    "name": "E2",
                    "midi": 40,
                    "time": 171.50427899999985,
                    "velocity": 0.3858267716535433,
                    "duration": 0.5309729999999888
                },
                {
                    "name": "A2",
                    "midi": 45,
                    "time": 172.03525199999984,
                    "velocity": 0.3858267716535433,
                    "duration": 0.5309729999999888
                },
                {
                    "name": "C#6",
                    "midi": 85,
                    "time": 172.56622499999983,
                    "velocity": 0.4566929133858268,
                    "duration": 0.2654865000000086
                },
                {
                    "name": "B5",
                    "midi": 83,
                    "time": 172.83171149999984,
                    "velocity": 0.41732283464566927,
                    "duration": 0.2654865000000086
                },
                {
                    "name": "C#6",
                    "midi": 85,
                    "time": 173.09719799999985,
                    "velocity": 0.4645669291338583,
                    "duration": 0.2654865000000086
                },
                {
                    "name": "D6",
                    "midi": 86,
                    "time": 173.36268449999986,
                    "velocity": 0.4094488188976378,
                    "duration": 0.2654865000000086
                },
                {
                    "name": "E6",
                    "midi": 88,
                    "time": 173.62817099999987,
                    "velocity": 0.4566929133858268,
                    "duration": 0.5309729999999888
                },
                {
                    "name": "C#6",
                    "midi": 85,
                    "time": 174.15914399999986,
                    "velocity": 0.4881889763779528,
                    "duration": 0.5309729999999888
                },
                {
                    "name": "B5",
                    "midi": 83,
                    "time": 174.69011699999984,
                    "velocity": 0.4645669291338583,
                    "duration": 0.5309729999999888
                },
                {
                    "name": "A5",
                    "midi": 81,
                    "time": 175.22108999999983,
                    "velocity": 0.4409448818897638,
                    "duration": 0.5309729999999888
                },
                {
                    "name": "D3",
                    "midi": 50,
                    "time": 175.75206299999982,
                    "velocity": 0.28346456692913385,
                    "duration": 0.5309729999999888
                },
                {
                    "name": "B3",
                    "midi": 59,
                    "time": 175.75206299999982,
                    "velocity": 0.33858267716535434,
                    "duration": 0.5309729999999888
                },
                {
                    "name": "D4",
                    "midi": 62,
                    "time": 176.2830359999998,
                    "velocity": 0.2992125984251969,
                    "duration": 0.5309729999999888
                },
                {
                    "name": "E3",
                    "midi": 52,
                    "time": 176.2830359999998,
                    "velocity": 0.25196850393700787,
                    "duration": 0.5309729999999888
                },
                {
                    "name": "C#4",
                    "midi": 61,
                    "time": 176.8140089999998,
                    "velocity": 0.33858267716535434,
                    "duration": 0.5309729999999888
                },
                {
                    "name": "A3",
                    "midi": 57,
                    "time": 176.8140089999998,
                    "velocity": 0.28346456692913385,
                    "duration": 0.5309729999999888
                },
                {
                    "name": "D3",
                    "midi": 50,
                    "time": 177.3449819999998,
                    "velocity": 0.25196850393700787,
                    "duration": 0.5309729999999888
                },
                {
                    "name": "B3",
                    "midi": 59,
                    "time": 177.3449819999998,
                    "velocity": 0.2992125984251969,
                    "duration": 0.5309729999999888
                },
                {
                    "name": "D4",
                    "midi": 62,
                    "time": 177.87595499999978,
                    "velocity": 0.33858267716535434,
                    "duration": 0.5309729999999888
                },
                {
                    "name": "E3",
                    "midi": 52,
                    "time": 177.87595499999978,
                    "velocity": 0.28346456692913385,
                    "duration": 0.5309729999999888
                },
                {
                    "name": "A3",
                    "midi": 57,
                    "time": 178.40692799999977,
                    "velocity": 0.2677165354330709,
                    "duration": 0.5309729999999888
                },
                {
                    "name": "C#4",
                    "midi": 61,
                    "time": 178.40692799999977,
                    "velocity": 0.31496062992125984,
                    "duration": 0.5309729999999888
                },
                {
                    "name": "D2",
                    "midi": 38,
                    "time": 179.99984699999976,
                    "velocity": 0.29133858267716534,
                    "duration": 2.123892000000012
                },
                {
                    "name": "D3",
                    "midi": 50,
                    "time": 179.99984699999976,
                    "velocity": 0.3464566929133858,
                    "duration": 2.123892000000012
                },
                {
                    "name": "A2",
                    "midi": 45,
                    "time": 184.24763099999979,
                    "velocity": 0.2677165354330709,
                    "duration": 0.5309729999999888
                },
                {
                    "name": "A3",
                    "midi": 57,
                    "time": 184.24763099999979,
                    "velocity": 0.3228346456692913,
                    "duration": 0.5309729999999888
                },
                {
                    "name": "D2",
                    "midi": 38,
                    "time": 184.77860399999977,
                    "velocity": 0.2677165354330709,
                    "duration": 0.5309729999999888
                },
                {
                    "name": "D3",
                    "midi": 50,
                    "time": 184.77860399999977,
                    "velocity": 0.3228346456692913,
                    "duration": 0.5309729999999888
                },
                {
                    "name": "F#5",
                    "midi": 78,
                    "time": 185.30957699999976,
                    "velocity": 0.4330708661417323,
                    "duration": 0.2654865000000086
                },
                {
                    "name": "E5",
                    "midi": 76,
                    "time": 185.57506349999977,
                    "velocity": 0.36220472440944884,
                    "duration": 0.2654865000000086
                },
                {
                    "name": "F#5",
                    "midi": 78,
                    "time": 185.84054999999978,
                    "velocity": 0.4251968503937008,
                    "duration": 0.2654865000000086
                },
                {
                    "name": "G5",
                    "midi": 79,
                    "time": 186.1060364999998,
                    "velocity": 0.3700787401574803,
                    "duration": 0.2654865000000086
                },
                {
                    "name": "A5",
                    "midi": 81,
                    "time": 186.3715229999998,
                    "velocity": 0.41732283464566927,
                    "duration": 0.5309729999999888
                },
                {
                    "name": "B5",
                    "midi": 83,
                    "time": 186.9024959999998,
                    "velocity": 0.41732283464566927,
                    "duration": 0.5309729999999888
                },
                {
                    "name": "C#6",
                    "midi": 85,
                    "time": 187.43346899999977,
                    "velocity": 0.41732283464566927,
                    "duration": 0.5309729999999888
                },
                {
                    "name": "D6",
                    "midi": 86,
                    "time": 187.96444199999976,
                    "velocity": 0.4251968503937008,
                    "duration": 0.5309729999999888
                },
                {
                    "name": "E3",
                    "midi": 52,
                    "time": 189.55736099999976,
                    "velocity": 0.3228346456692913,
                    "duration": 0.5309729999999888
                },
                {
                    "name": "C#3",
                    "midi": 49,
                    "time": 190.08833399999975,
                    "velocity": 0.2755905511811024,
                    "duration": 0.5309729999999888
                },
                {
                    "name": "A2",
                    "midi": 45,
                    "time": 190.61930699999974,
                    "velocity": 0.2755905511811024,
                    "duration": 0.5309729999999888
                },
                {
                    "name": "E3",
                    "midi": 52,
                    "time": 191.15027999999973,
                    "velocity": 0.31496062992125984,
                    "duration": 0.5309729999999888
                },
                {
                    "name": "D6",
                    "midi": 86,
                    "time": 191.6812529999997,
                    "velocity": 0.47244094488188976,
                    "duration": 0.2654865000000086
                },
                {
                    "name": "C#6",
                    "midi": 85,
                    "time": 191.94673949999972,
                    "velocity": 0.4566929133858268,
                    "duration": 0.2654865000000086
                },
                {
                    "name": "B5",
                    "midi": 83,
                    "time": 192.21222599999973,
                    "velocity": 0.4409448818897638,
                    "duration": 0.2654865000000086
                },
                {
                    "name": "A5",
                    "midi": 81,
                    "time": 192.47771249999974,
                    "velocity": 0.4409448818897638,
                    "duration": 0.19911487499999225
                },
                {
                    "name": "D#6",
                    "midi": 87,
                    "time": 192.67682737499973,
                    "velocity": 0.4251968503937008,
                    "duration": 0.06637162499998794
                },
                {
                    "name": "E6",
                    "midi": 88,
                    "time": 192.74319899999972,
                    "velocity": 0.5118110236220472,
                    "duration": 0.46460137500000087
                },
                {
                    "name": "D#6",
                    "midi": 87,
                    "time": 193.20780037499972,
                    "velocity": 0.4251968503937008,
                    "duration": 0.06637162499998794
                },
                {
                    "name": "E6",
                    "midi": 88,
                    "time": 193.2741719999997,
                    "velocity": 0.5118110236220472,
                    "duration": 0.46460137500000087
                },
                {
                    "name": "D#6",
                    "midi": 87,
                    "time": 193.7387733749997,
                    "velocity": 0.4251968503937008,
                    "duration": 0.06637162499998794
                },
                {
                    "name": "E6",
                    "midi": 88,
                    "time": 193.8051449999997,
                    "velocity": 0.5196850393700787,
                    "duration": 0.46460137500000087
                },
                {
                    "name": "D#6",
                    "midi": 87,
                    "time": 194.2697463749997,
                    "velocity": 0.4251968503937008,
                    "duration": 0.06637162499998794
                },
                {
                    "name": "E6",
                    "midi": 88,
                    "time": 194.3361179999997,
                    "velocity": 0.5118110236220472,
                    "duration": 0.5309729999999888
                },
                {
                    "name": "A2",
                    "midi": 45,
                    "time": 194.86709099999968,
                    "velocity": 0.4015748031496063,
                    "duration": 0.2654865000000086
                },
                {
                    "name": "G#2",
                    "midi": 44,
                    "time": 195.13257749999968,
                    "velocity": 0.3700787401574803,
                    "duration": 0.2654865000000086
                },
                {
                    "name": "A2",
                    "midi": 45,
                    "time": 195.3980639999997,
                    "velocity": 0.4015748031496063,
                    "duration": 0.2654865000000086
                },
                {
                    "name": "B2",
                    "midi": 47,
                    "time": 195.6635504999997,
                    "velocity": 0.3700787401574803,
                    "duration": 0.2654865000000086
                },
                {
                    "name": "C#3",
                    "midi": 49,
                    "time": 195.9290369999997,
                    "velocity": 0.4015748031496063,
                    "duration": 0.5309729999999888
                },
                {
                    "name": "E3",
                    "midi": 52,
                    "time": 196.4600099999997,
                    "velocity": 0.36220472440944884,
                    "duration": 0.5309729999999888
                },
                {
                    "name": "E2",
                    "midi": 40,
                    "time": 196.9909829999997,
                    "velocity": 0.3858267716535433,
                    "duration": 0.5309729999999888
                },
                {
                    "name": "A2",
                    "midi": 45,
                    "time": 197.52195599999968,
                    "velocity": 0.3858267716535433,
                    "duration": 0.5309729999999888
                },
                {
                    "name": "C#6",
                    "midi": 85,
                    "time": 198.05292899999966,
                    "velocity": 0.4566929133858268,
                    "duration": 0.2654865000000086
                },
                {
                    "name": "B5",
                    "midi": 83,
                    "time": 198.31841549999967,
                    "velocity": 0.41732283464566927,
                    "duration": 0.2654865000000086
                },
                {
                    "name": "C#6",
                    "midi": 85,
                    "time": 198.58390199999968,
                    "velocity": 0.4645669291338583,
                    "duration": 0.2654865000000086
                },
                {
                    "name": "D6",
                    "midi": 86,
                    "time": 198.8493884999997,
                    "velocity": 0.4094488188976378,
                    "duration": 0.2654865000000086
                },
                {
                    "name": "E6",
                    "midi": 88,
                    "time": 199.1148749999997,
                    "velocity": 0.4566929133858268,
                    "duration": 0.5309729999999888
                },
                {
                    "name": "C#6",
                    "midi": 85,
                    "time": 199.6458479999997,
                    "velocity": 0.4881889763779528,
                    "duration": 0.5309729999999888
                },
                {
                    "name": "B5",
                    "midi": 83,
                    "time": 200.17682099999968,
                    "velocity": 0.4645669291338583,
                    "duration": 0.5309729999999888
                },
                {
                    "name": "A5",
                    "midi": 81,
                    "time": 200.70779399999967,
                    "velocity": 0.4409448818897638,
                    "duration": 0.5309729999999888
                },
                {
                    "name": "D3",
                    "midi": 50,
                    "time": 201.23876699999965,
                    "velocity": 0.28346456692913385,
                    "duration": 0.5309729999999888
                },
                {
                    "name": "B3",
                    "midi": 59,
                    "time": 201.23876699999965,
                    "velocity": 0.33858267716535434,
                    "duration": 0.5309729999999888
                },
                {
                    "name": "D4",
                    "midi": 62,
                    "time": 201.76973999999964,
                    "velocity": 0.2992125984251969,
                    "duration": 0.5309729999999888
                },
                {
                    "name": "E3",
                    "midi": 52,
                    "time": 201.76973999999964,
                    "velocity": 0.25196850393700787,
                    "duration": 0.5309729999999888
                },
                {
                    "name": "C#4",
                    "midi": 61,
                    "time": 202.30071299999963,
                    "velocity": 0.33858267716535434,
                    "duration": 0.5309729999999888
                },
                {
                    "name": "A3",
                    "midi": 57,
                    "time": 202.30071299999963,
                    "velocity": 0.28346456692913385,
                    "duration": 0.5309729999999888
                },
                {
                    "name": "D3",
                    "midi": 50,
                    "time": 202.83168599999962,
                    "velocity": 0.25196850393700787,
                    "duration": 0.5309729999999888
                },
                {
                    "name": "B3",
                    "midi": 59,
                    "time": 202.83168599999962,
                    "velocity": 0.2992125984251969,
                    "duration": 0.5309729999999888
                },
                {
                    "name": "D4",
                    "midi": 62,
                    "time": 203.3626589999996,
                    "velocity": 0.33858267716535434,
                    "duration": 0.5309729999999888
                },
                {
                    "name": "E3",
                    "midi": 52,
                    "time": 203.3626589999996,
                    "velocity": 0.28346456692913385,
                    "duration": 0.5309729999999888
                },
                {
                    "name": "A3",
                    "midi": 57,
                    "time": 203.8936319999996,
                    "velocity": 0.2677165354330709,
                    "duration": 0.5309729999999888
                },
                {
                    "name": "C#4",
                    "midi": 61,
                    "time": 203.8936319999996,
                    "velocity": 0.31496062992125984,
                    "duration": 0.5309729999999888
                },
                {
                    "name": "B1",
                    "midi": 35,
                    "time": 205.4865509999996,
                    "velocity": 0.29133858267716534,
                    "duration": 2.123892000000012
                },
                {
                    "name": "B2",
                    "midi": 47,
                    "time": 205.4865509999996,
                    "velocity": 0.3464566929133858,
                    "duration": 2.123892000000012
                },
                {
                    "name": "C6",
                    "midi": 84,
                    "time": 207.6104429999996,
                    "velocity": 0.4251968503937008,
                    "duration": 0.2654865000000086
                },
                {
                    "name": "B5",
                    "midi": 83,
                    "time": 207.87592949999961,
                    "velocity": 0.3937007874015748,
                    "duration": 0.2654865000000086
                },
                {
                    "name": "A5",
                    "midi": 81,
                    "time": 208.14141599999962,
                    "velocity": 0.4251968503937008,
                    "duration": 0.2654865000000086
                },
                {
                    "name": "G5",
                    "midi": 79,
                    "time": 208.40690249999963,
                    "velocity": 0.3937007874015748,
                    "duration": 0.2654865000000086
                },
                {
                    "name": "F#5",
                    "midi": 78,
                    "time": 208.67238899999964,
                    "velocity": 0.4251968503937008,
                    "duration": 0.5309729999999888
                },
                {
                    "name": "A5",
                    "midi": 81,
                    "time": 209.20336199999963,
                    "velocity": 0.4251968503937008,
                    "duration": 0.2654865000000086
                },
                {
                    "name": "G5",
                    "midi": 79,
                    "time": 209.46884849999964,
                    "velocity": 0.3937007874015748,
                    "duration": 0.2654865000000086
                },
                {
                    "name": "F#5",
                    "midi": 78,
                    "time": 209.73433499999965,
                    "velocity": 0.4330708661417323,
                    "duration": 0.2654865000000086
                },
                {
                    "name": "E5",
                    "midi": 76,
                    "time": 209.99982149999965,
                    "velocity": 0.3937007874015748,
                    "duration": 0.2654865000000086
                },
                {
                    "name": "D#5",
                    "midi": 75,
                    "time": 210.26530799999966,
                    "velocity": 0.4251968503937008,
                    "duration": 0.5309729999999888
                },
                {
                    "name": "B2",
                    "midi": 47,
                    "time": 210.79628099999965,
                    "velocity": 0.3858267716535433,
                    "duration": 0.23893785000001344
                },
                {
                    "name": "B3",
                    "midi": 59,
                    "time": 210.79628099999965,
                    "velocity": 0.4645669291338583,
                    "duration": 0.23893785000001344
                },
                {
                    "name": "A2",
                    "midi": 45,
                    "time": 211.06176749999966,
                    "velocity": 0.36220472440944884,
                    "duration": 0.23893785000001344
                },
                {
                    "name": "A3",
                    "midi": 57,
                    "time": 211.06176749999966,
                    "velocity": 0.4330708661417323,
                    "duration": 0.23893785000001344
                },
                {
                    "name": "G2",
                    "midi": 43,
                    "time": 211.32725399999967,
                    "velocity": 0.3858267716535433,
                    "duration": 0.23893785000001344
                },
                {
                    "name": "G3",
                    "midi": 55,
                    "time": 211.32725399999967,
                    "velocity": 0.4645669291338583,
                    "duration": 0.23893785000001344
                },
                {
                    "name": "F#2",
                    "midi": 42,
                    "time": 211.59274049999968,
                    "velocity": 0.36220472440944884,
                    "duration": 0.23893785000001344
                },
                {
                    "name": "F#3",
                    "midi": 54,
                    "time": 211.59274049999968,
                    "velocity": 0.4330708661417323,
                    "duration": 0.23893785000001344
                },
                {
                    "name": "E2",
                    "midi": 40,
                    "time": 211.8582269999997,
                    "velocity": 0.3937007874015748,
                    "duration": 0.47787569999999846
                },
                {
                    "name": "E3",
                    "midi": 52,
                    "time": 211.8582269999997,
                    "velocity": 0.47244094488188976,
                    "duration": 0.47787569999999846
                },
                {
                    "name": "E2",
                    "midi": 40,
                    "time": 212.38919999999968,
                    "velocity": 0.36220472440944884,
                    "duration": 0.47787569999999846
                },
                {
                    "name": "E3",
                    "midi": 52,
                    "time": 212.38919999999968,
                    "velocity": 0.4330708661417323,
                    "duration": 0.47787569999999846
                },
                {
                    "name": "B2",
                    "midi": 47,
                    "time": 212.92017299999966,
                    "velocity": 0.3937007874015748,
                    "duration": 0.47787569999999846
                },
                {
                    "name": "B3",
                    "midi": 59,
                    "time": 212.92017299999966,
                    "velocity": 0.47244094488188976,
                    "duration": 0.47787569999999846
                },
                {
                    "name": "E2",
                    "midi": 40,
                    "time": 213.45114599999965,
                    "velocity": 0.36220472440944884,
                    "duration": 0.47787569999999846
                },
                {
                    "name": "E3",
                    "midi": 52,
                    "time": 213.45114599999965,
                    "velocity": 0.4330708661417323,
                    "duration": 0.47787569999999846
                },
                {
                    "name": "B2",
                    "midi": 47,
                    "time": 213.98211899999964,
                    "velocity": 0.3858267716535433,
                    "duration": 0.23893785000001344
                },
                {
                    "name": "B3",
                    "midi": 59,
                    "time": 213.98211899999964,
                    "velocity": 0.4645669291338583,
                    "duration": 0.23893785000001344
                },
                {
                    "name": "A2",
                    "midi": 45,
                    "time": 214.24760549999965,
                    "velocity": 0.36220472440944884,
                    "duration": 0.23893785000001344
                },
                {
                    "name": "A3",
                    "midi": 57,
                    "time": 214.24760549999965,
                    "velocity": 0.4330708661417323,
                    "duration": 0.23893785000001344
                },
                {
                    "name": "G2",
                    "midi": 43,
                    "time": 214.51309199999966,
                    "velocity": 0.3858267716535433,
                    "duration": 0.23893785000001344
                },
                {
                    "name": "G3",
                    "midi": 55,
                    "time": 214.51309199999966,
                    "velocity": 0.4645669291338583,
                    "duration": 0.23893785000001344
                },
                {
                    "name": "F#2",
                    "midi": 42,
                    "time": 214.77857849999967,
                    "velocity": 0.36220472440944884,
                    "duration": 0.23893785000001344
                },
                {
                    "name": "F#3",
                    "midi": 54,
                    "time": 214.77857849999967,
                    "velocity": 0.4330708661417323,
                    "duration": 0.23893785000001344
                },
                {
                    "name": "E2",
                    "midi": 40,
                    "time": 215.04406499999968,
                    "velocity": 0.3937007874015748,
                    "duration": 0.47787569999999846
                },
                {
                    "name": "E3",
                    "midi": 52,
                    "time": 215.04406499999968,
                    "velocity": 0.47244094488188976,
                    "duration": 0.47787569999999846
                },
                {
                    "name": "E2",
                    "midi": 40,
                    "time": 215.57503799999967,
                    "velocity": 0.36220472440944884,
                    "duration": 0.47787569999999846
                },
                {
                    "name": "E3",
                    "midi": 52,
                    "time": 215.57503799999967,
                    "velocity": 0.4330708661417323,
                    "duration": 0.47787569999999846
                },
                {
                    "name": "B2",
                    "midi": 47,
                    "time": 216.10601099999965,
                    "velocity": 0.3937007874015748,
                    "duration": 0.47787569999999846
                },
                {
                    "name": "B3",
                    "midi": 59,
                    "time": 216.10601099999965,
                    "velocity": 0.47244094488188976,
                    "duration": 0.47787569999999846
                },
                {
                    "name": "E2",
                    "midi": 40,
                    "time": 216.63698399999964,
                    "velocity": 0.36220472440944884,
                    "duration": 0.47787569999999846
                },
                {
                    "name": "E3",
                    "midi": 52,
                    "time": 216.63698399999964,
                    "velocity": 0.4330708661417323,
                    "duration": 0.47787569999999846
                },
                {
                    "name": "C4",
                    "midi": 60,
                    "time": 218.22990299999964,
                    "velocity": 0.33070866141732286,
                    "duration": 1.0619460000000345
                },
                {
                    "name": "E4",
                    "midi": 64,
                    "time": 218.49538949999965,
                    "velocity": 0.30708661417322836,
                    "duration": 0.2654865000000086
                },
                {
                    "name": "G4",
                    "midi": 67,
                    "time": 218.76087599999966,
                    "velocity": 0.33070866141732286,
                    "duration": 0.2654865000000086
                },
                {
                    "name": "E4",
                    "midi": 64,
                    "time": 219.02636249999966,
                    "velocity": 0.30708661417322836,
                    "duration": 0.2654865000000086
                },
                {
                    "name": "B3",
                    "midi": 59,
                    "time": 219.29184899999967,
                    "velocity": 0.2755905511811024,
                    "duration": 0.5309730000000172
                },
                {
                    "name": "F4",
                    "midi": 65,
                    "time": 219.29184899999967,
                    "velocity": 0.33070866141732286,
                    "duration": 0.2654865000000086
                },
                {
                    "name": "D4",
                    "midi": 62,
                    "time": 219.55733549999968,
                    "velocity": 0.29133858267716534,
                    "duration": 0.2654865000000086
                },
                {
                    "name": "C4",
                    "midi": 60,
                    "time": 219.8228219999997,
                    "velocity": 0.33070866141732286,
                    "duration": 1.0619460000000345
                },
                {
                    "name": "E4",
                    "midi": 64,
                    "time": 220.0883084999997,
                    "velocity": 0.29133858267716534,
                    "duration": 0.2654865000000086
                },
                {
                    "name": "G4",
                    "midi": 67,
                    "time": 220.3537949999997,
                    "velocity": 0.33070866141732286,
                    "duration": 0.2654865000000086
                },
                {
                    "name": "E4",
                    "midi": 64,
                    "time": 220.61928149999972,
                    "velocity": 0.29133858267716534,
                    "duration": 0.2654865000000086
                },
                {
                    "name": "B3",
                    "midi": 59,
                    "time": 220.88476799999972,
                    "velocity": 0.2755905511811024,
                    "duration": 0.5309730000000172
                },
                {
                    "name": "F4",
                    "midi": 65,
                    "time": 220.88476799999972,
                    "velocity": 0.33070866141732286,
                    "duration": 0.2654865000000086
                },
                {
                    "name": "D4",
                    "midi": 62,
                    "time": 221.15025449999973,
                    "velocity": 0.2992125984251969,
                    "duration": 0.2654865000000086
                },
                {
                    "name": "C4",
                    "midi": 60,
                    "time": 221.41574099999974,
                    "velocity": 0.36220472440944884,
                    "duration": 1.0619460000000345
                },
                {
                    "name": "E4",
                    "midi": 64,
                    "time": 221.68122749999975,
                    "velocity": 0.33070866141732286,
                    "duration": 0.2654865000000086
                },
                {
                    "name": "G4",
                    "midi": 67,
                    "time": 221.94671399999976,
                    "velocity": 0.36220472440944884,
                    "duration": 0.2654865000000086
                },
                {
                    "name": "E4",
                    "midi": 64,
                    "time": 222.21220049999977,
                    "velocity": 0.33070866141732286,
                    "duration": 0.2654865000000086
                },
                {
                    "name": "B3",
                    "midi": 59,
                    "time": 222.47768699999978,
                    "velocity": 0.2992125984251969,
                    "duration": 0.5309730000000172
                },
                {
                    "name": "F4",
                    "midi": 65,
                    "time": 222.47768699999978,
                    "velocity": 0.36220472440944884,
                    "duration": 0.2654865000000086
                },
                {
                    "name": "D4",
                    "midi": 62,
                    "time": 222.74317349999978,
                    "velocity": 0.31496062992125984,
                    "duration": 0.2654865000000086
                },
                {
                    "name": "C4",
                    "midi": 60,
                    "time": 223.0086599999998,
                    "velocity": 0.36220472440944884,
                    "duration": 1.0619460000000345
                },
                {
                    "name": "E4",
                    "midi": 64,
                    "time": 223.2741464999998,
                    "velocity": 0.31496062992125984,
                    "duration": 0.2654865000000086
                },
                {
                    "name": "G4",
                    "midi": 67,
                    "time": 223.5396329999998,
                    "velocity": 0.36220472440944884,
                    "duration": 0.2654865000000086
                },
                {
                    "name": "E4",
                    "midi": 64,
                    "time": 223.80511949999982,
                    "velocity": 0.31496062992125984,
                    "duration": 0.2654865000000086
                },
                {
                    "name": "C4",
                    "midi": 60,
                    "time": 224.07060599999983,
                    "velocity": 0.36220472440944884,
                    "duration": 0.2654865000000086
                },
                {
                    "name": "E4",
                    "midi": 64,
                    "time": 224.33609249999984,
                    "velocity": 0.3228346456692913,
                    "duration": 0.2654865000000086
                },
                {
                    "name": "A#3",
                    "midi": 58,
                    "time": 224.60157899999984,
                    "velocity": 0.41732283464566927,
                    "duration": 1.0619460000000345
                },
                {
                    "name": "C4",
                    "midi": 60,
                    "time": 224.86706549999985,
                    "velocity": 0.3543307086614173,
                    "duration": 0.2654865000000086
                },
                {
                    "name": "E4",
                    "midi": 64,
                    "time": 225.13255199999986,
                    "velocity": 0.4015748031496063,
                    "duration": 0.2654865000000086
                },
                {
                    "name": "G4",
                    "midi": 67,
                    "time": 225.39803849999987,
                    "velocity": 0.33858267716535434,
                    "duration": 0.2654865000000086
                },
                {
                    "name": "E4",
                    "midi": 64,
                    "time": 225.66352499999988,
                    "velocity": 0.4094488188976378,
                    "duration": 0.2654865000000086
                },
                {
                    "name": "C4",
                    "midi": 60,
                    "time": 225.9290114999999,
                    "velocity": 0.36220472440944884,
                    "duration": 0.2654865000000086
                },
                {
                    "name": "A3",
                    "midi": 57,
                    "time": 226.1944979999999,
                    "velocity": 0.4566929133858268,
                    "duration": 1.0619460000000345
                },
                {
                    "name": "C#4",
                    "midi": 61,
                    "time": 226.4599844999999,
                    "velocity": 0.4015748031496063,
                    "duration": 0.2654865000000086
                },
                {
                    "name": "E4",
                    "midi": 64,
                    "time": 226.7254709999999,
                    "velocity": 0.4566929133858268,
                    "duration": 0.2654865000000086
                },
                {
                    "name": "G4",
                    "midi": 67,
                    "time": 226.99095749999992,
                    "velocity": 0.3937007874015748,
                    "duration": 0.2654865000000086
                },
                {
                    "name": "E4",
                    "midi": 64,
                    "time": 227.25644399999993,
                    "velocity": 0.4566929133858268,
                    "duration": 0.2654865000000086
                },
                {
                    "name": "C#4",
                    "midi": 61,
                    "time": 227.52193049999994,
                    "velocity": 0.4015748031496063,
                    "duration": 0.2654865000000086
                },
                {
                    "name": "A3",
                    "midi": 57,
                    "time": 227.78741699999995,
                    "velocity": 0.3779527559055118,
                    "duration": 1.061946000000006
                },
                {
                    "name": "D4",
                    "midi": 62,
                    "time": 227.78741699999995,
                    "velocity": 0.44881889763779526,
                    "duration": 1.061946000000006
                },
                {
                    "name": "G#3",
                    "midi": 56,
                    "time": 228.84936299999995,
                    "velocity": 0.3228346456692913,
                    "duration": 0.5309730000000172
                },
                {
                    "name": "E4",
                    "midi": 64,
                    "time": 228.84936299999995,
                    "velocity": 0.3858267716535433,
                    "duration": 0.2654865000000086
                },
                {
                    "name": "F4",
                    "midi": 65,
                    "time": 229.11484949999996,
                    "velocity": 0.33858267716535434,
                    "duration": 0.2654865000000086
                },
                {
                    "name": "A3",
                    "midi": 57,
                    "time": 229.38033599999997,
                    "velocity": 0.3464566929133858,
                    "duration": 0.5309729999999888
                },
                {
                    "name": "E4",
                    "midi": 64,
                    "time": 229.38033599999997,
                    "velocity": 0.4094488188976378,
                    "duration": 0.5309729999999888
                },
                {
                    "name": "D4",
                    "midi": 62,
                    "time": 230.97325499999997,
                    "velocity": 0.33858267716535434,
                    "duration": 1.5929189999999949
                },
                {
                    "name": "A#3",
                    "midi": 58,
                    "time": 230.97325499999997,
                    "velocity": 0.33858267716535434,
                    "duration": 1.5929189999999949
                },
                {
                    "name": "G#4",
                    "midi": 68,
                    "time": 230.97325499999997,
                    "velocity": 0.4015748031496063,
                    "duration": 1.5929189999999949
                },
                {
                    "name": "C#4",
                    "midi": 61,
                    "time": 232.56617399999996,
                    "velocity": 0.3464566929133858,
                    "duration": 0.5309729999999888
                },
                {
                    "name": "A3",
                    "midi": 57,
                    "time": 232.56617399999996,
                    "velocity": 0.3464566929133858,
                    "duration": 0.5309729999999888
                },
                {
                    "name": "A4",
                    "midi": 69,
                    "time": 232.56617399999996,
                    "velocity": 0.4094488188976378,
                    "duration": 0.5309729999999888
                },
                {
                    "name": "A3",
                    "midi": 57,
                    "time": 233.62811999999994,
                    "velocity": 0.29133858267716534,
                    "duration": 0.5309729999999888
                },
                {
                    "name": "D4",
                    "midi": 62,
                    "time": 233.62811999999994,
                    "velocity": 0.29133858267716534,
                    "duration": 0.5309729999999888
                },
                {
                    "name": "F4",
                    "midi": 65,
                    "time": 233.62811999999994,
                    "velocity": 0.3464566929133858,
                    "duration": 0.5309729999999888
                },
                {
                    "name": "C#4",
                    "midi": 61,
                    "time": 234.15909299999993,
                    "velocity": 0.3464566929133858,
                    "duration": 0.5309729999999888
                },
                {
                    "name": "A3",
                    "midi": 57,
                    "time": 234.15909299999993,
                    "velocity": 0.3464566929133858,
                    "duration": 0.5309729999999888
                },
                {
                    "name": "E4",
                    "midi": 64,
                    "time": 234.15909299999993,
                    "velocity": 0.4094488188976378,
                    "duration": 0.5309729999999888
                },
                {
                    "name": "A3",
                    "midi": 57,
                    "time": 235.2210389999999,
                    "velocity": 0.29133858267716534,
                    "duration": 0.5309729999999888
                },
                {
                    "name": "D4",
                    "midi": 62,
                    "time": 235.2210389999999,
                    "velocity": 0.29133858267716534,
                    "duration": 0.5309729999999888
                },
                {
                    "name": "F4",
                    "midi": 65,
                    "time": 235.2210389999999,
                    "velocity": 0.3464566929133858,
                    "duration": 0.5309729999999888
                },
                {
                    "name": "A3",
                    "midi": 57,
                    "time": 235.7520119999999,
                    "velocity": 0.3464566929133858,
                    "duration": 0.5309729999999888
                },
                {
                    "name": "C#4",
                    "midi": 61,
                    "time": 235.7520119999999,
                    "velocity": 0.3464566929133858,
                    "duration": 0.5309729999999888
                },
                {
                    "name": "E4",
                    "midi": 64,
                    "time": 235.7520119999999,
                    "velocity": 0.4094488188976378,
                    "duration": 0.5309729999999888
                },
                {
                    "name": "D2",
                    "midi": 38,
                    "time": 237.3449309999999,
                    "velocity": 0.29133858267716534,
                    "duration": 2.123892000000012
                },
                {
                    "name": "D3",
                    "midi": 50,
                    "time": 237.3449309999999,
                    "velocity": 0.3464566929133858,
                    "duration": 2.123892000000012
                },
                {
                    "name": "B2",
                    "midi": 47,
                    "time": 240.5307689999999,
                    "velocity": 0.41732283464566927,
                    "duration": 0.5309729999999888
                },
                {
                    "name": "A2",
                    "midi": 45,
                    "time": 241.0617419999999,
                    "velocity": 0.3858267716535433,
                    "duration": 0.5309729999999888
                },
                {
                    "name": "G2",
                    "midi": 43,
                    "time": 241.59271499999988,
                    "velocity": 0.3700787401574803,
                    "duration": 0.5309729999999888
                },
                {
                    "name": "D3",
                    "midi": 50,
                    "time": 242.12368799999987,
                    "velocity": 0.41732283464566927,
                    "duration": 0.5309729999999888
                },
                {
                    "name": "D6",
                    "midi": 86,
                    "time": 242.65466099999986,
                    "velocity": 0.4330708661417323,
                    "duration": 0.2654865000000086
                },
                {
                    "name": "C#6",
                    "midi": 85,
                    "time": 242.92014749999987,
                    "velocity": 0.4015748031496063,
                    "duration": 0.2654865000000086
                },
                {
                    "name": "B5",
                    "midi": 83,
                    "time": 243.18563399999988,
                    "velocity": 0.4330708661417323,
                    "duration": 0.2654865000000086
                },
                {
                    "name": "A5",
                    "midi": 81,
                    "time": 243.4511204999999,
                    "velocity": 0.4015748031496063,
                    "duration": 0.2654865000000086
                },
                {
                    "name": "G5",
                    "midi": 79,
                    "time": 243.7166069999999,
                    "velocity": 0.4330708661417323,
                    "duration": 0.5309729999999888
                },
                {
                    "name": "A5",
                    "midi": 81,
                    "time": 244.24757999999989,
                    "velocity": 0.4566929133858268,
                    "duration": 0.5309729999999888
                },
                {
                    "name": "B5",
                    "midi": 83,
                    "time": 244.77855299999987,
                    "velocity": 0.4645669291338583,
                    "duration": 0.5309729999999888
                },
                {
                    "name": "A5",
                    "midi": 81,
                    "time": 245.30952599999986,
                    "velocity": 0.4645669291338583,
                    "duration": 0.5309729999999888
                },
                {
                    "name": "A2",
                    "midi": 45,
                    "time": 246.90244499999986,
                    "velocity": 0.41732283464566927,
                    "duration": 0.5309729999999888
                },
                {
                    "name": "F#2",
                    "midi": 42,
                    "time": 247.43341799999985,
                    "velocity": 0.3858267716535433,
                    "duration": 0.5309729999999888
                },
                {
                    "name": "D2",
                    "midi": 38,
                    "time": 247.96439099999984,
                    "velocity": 0.3700787401574803,
                    "duration": 0.5309729999999888
                },
                {
                    "name": "A2",
                    "midi": 45,
                    "time": 248.49536399999982,
                    "velocity": 0.41732283464566927,
                    "duration": 0.5309729999999888
                },
                {
                    "name": "B5",
                    "midi": 83,
                    "time": 249.0263369999998,
                    "velocity": 0.4330708661417323,
                    "duration": 0.2654865000000086
                },
                {
                    "name": "A5",
                    "midi": 81,
                    "time": 249.29182349999982,
                    "velocity": 0.4015748031496063,
                    "duration": 0.2654865000000086
                },
                {
                    "name": "G5",
                    "midi": 79,
                    "time": 249.55730999999983,
                    "velocity": 0.4330708661417323,
                    "duration": 0.2654865000000086
                },
                {
                    "name": "F#5",
                    "midi": 78,
                    "time": 249.82279649999984,
                    "velocity": 0.4015748031496063,
                    "duration": 0.19911487499999225
                },
                {
                    "name": "G#5",
                    "midi": 80,
                    "time": 250.02191137499983,
                    "velocity": 0.3779527559055118,
                    "duration": 0.06637162499998794
                },
                {
                    "name": "A5",
                    "midi": 81,
                    "time": 250.08828299999982,
                    "velocity": 0.49606299212598426,
                    "duration": 0.3982297500000129
                },
                {
                    "name": "G#5",
                    "midi": 80,
                    "time": 250.55288437499982,
                    "velocity": 0.3779527559055118,
                    "duration": 0.06637162499998794
                },
                {
                    "name": "A5",
                    "midi": 81,
                    "time": 250.6192559999998,
                    "velocity": 0.49606299212598426,
                    "duration": 0.3982297500000129
                },
                {
                    "name": "G#5",
                    "midi": 80,
                    "time": 251.0838573749998,
                    "velocity": 0.3779527559055118,
                    "duration": 0.06637162499998794
                },
                {
                    "name": "A5",
                    "midi": 81,
                    "time": 251.1502289999998,
                    "velocity": 0.5039370078740157,
                    "duration": 0.3982297500000129
                },
                {
                    "name": "G#5",
                    "midi": 80,
                    "time": 251.6148303749998,
                    "velocity": 0.3779527559055118,
                    "duration": 0.06637162499998794
                },
                {
                    "name": "A5",
                    "midi": 81,
                    "time": 251.6812019999998,
                    "velocity": 0.5039370078740157,
                    "duration": 0.5309729999999888
                },
                {
                    "name": "B3",
                    "midi": 59,
                    "time": 252.21217499999977,
                    "velocity": 0.36220472440944884,
                    "duration": 0.2654865000000086
                },
                {
                    "name": "A#3",
                    "midi": 58,
                    "time": 252.47766149999978,
                    "velocity": 0.3228346456692913,
                    "duration": 0.2654865000000086
                },
                {
                    "name": "B3",
                    "midi": 59,
                    "time": 252.7431479999998,
                    "velocity": 0.3700787401574803,
                    "duration": 0.2654865000000086
                },
                {
                    "name": "G3",
                    "midi": 55,
                    "time": 253.0086344999998,
                    "velocity": 0.3228346456692913,
                    "duration": 0.2654865000000086
                },
                {
                    "name": "F#3",
                    "midi": 54,
                    "time": 253.2741209999998,
                    "velocity": 0.3779527559055118,
                    "duration": 0.5309729999999888
                },
                {
                    "name": "E3",
                    "midi": 52,
                    "time": 253.8050939999998,
                    "velocity": 0.3464566929133858,
                    "duration": 0.5309729999999888
                },
                {
                    "name": "A2",
                    "midi": 45,
                    "time": 254.3360669999998,
                    "velocity": 0.3464566929133858,
                    "duration": 0.5309729999999888
                },
                {
                    "name": "D3",
                    "midi": 50,
                    "time": 254.86703999999978,
                    "velocity": 0.3858267716535433,
                    "duration": 0.5309729999999888
                },
                {
                    "name": "D6",
                    "midi": 86,
                    "time": 255.39801299999976,
                    "velocity": 0.4566929133858268,
                    "duration": 0.2654865000000086
                },
                {
                    "name": "C#6",
                    "midi": 85,
                    "time": 255.66349949999977,
                    "velocity": 0.41732283464566927,
                    "duration": 0.2654865000000086
                },
                {
                    "name": "D6",
                    "midi": 86,
                    "time": 255.92898599999978,
                    "velocity": 0.4645669291338583,
                    "duration": 0.2654865000000086
                },
                {
                    "name": "B5",
                    "midi": 83,
                    "time": 256.1944724999998,
                    "velocity": 0.4094488188976378,
                    "duration": 0.2654865000000086
                },
                {
                    "name": "A5",
                    "midi": 81,
                    "time": 256.4599589999998,
                    "velocity": 0.4566929133858268,
                    "duration": 0.5309730000000172
                },
                {
                    "name": "G5",
                    "midi": 79,
                    "time": 256.9909319999998,
                    "velocity": 0.4881889763779528,
                    "duration": 0.5309730000000172
                },
                {
                    "name": "E5",
                    "midi": 76,
                    "time": 257.52190499999983,
                    "velocity": 0.4645669291338583,
                    "duration": 0.5309730000000172
                },
                {
                    "name": "D5",
                    "midi": 74,
                    "time": 258.05287799999985,
                    "velocity": 0.4409448818897638,
                    "duration": 0.5309730000000172
                },
                {
                    "name": "G2",
                    "midi": 43,
                    "time": 258.58385099999987,
                    "velocity": 0.33858267716535434,
                    "duration": 0.5309730000000172
                },
                {
                    "name": "G3",
                    "midi": 55,
                    "time": 259.1148239999999,
                    "velocity": 0.2992125984251969,
                    "duration": 0.5309730000000172
                },
                {
                    "name": "A2",
                    "midi": 45,
                    "time": 259.1148239999999,
                    "velocity": 0.25196850393700787,
                    "duration": 0.5309730000000172
                },
                {
                    "name": "F#3",
                    "midi": 54,
                    "time": 259.6457969999999,
                    "velocity": 0.33858267716535434,
                    "duration": 0.5309730000000172
                },
                {
                    "name": "D3",
                    "midi": 50,
                    "time": 259.6457969999999,
                    "velocity": 0.28346456692913385,
                    "duration": 0.5309730000000172
                },
                {
                    "name": "G2",
                    "midi": 43,
                    "time": 260.1767699999999,
                    "velocity": 0.2992125984251969,
                    "duration": 0.5309730000000172
                },
                {
                    "name": "G3",
                    "midi": 55,
                    "time": 260.70774299999994,
                    "velocity": 0.33858267716535434,
                    "duration": 0.5309730000000172
                },
                {
                    "name": "A2",
                    "midi": 45,
                    "time": 260.70774299999994,
                    "velocity": 0.28346456692913385,
                    "duration": 0.5309730000000172
                },
                {
                    "name": "D3",
                    "midi": 50,
                    "time": 261.23871599999995,
                    "velocity": 0.2677165354330709,
                    "duration": 0.5309730000000172
                },
                {
                    "name": "F#3",
                    "midi": 54,
                    "time": 261.23871599999995,
                    "velocity": 0.31496062992125984,
                    "duration": 0.5309730000000172
                },
                {
                    "name": "B1",
                    "midi": 35,
                    "time": 262.83163499999995,
                    "velocity": 0.29133858267716534,
                    "duration": 2.123892000000012
                },
                {
                    "name": "B2",
                    "midi": 47,
                    "time": 262.83163499999995,
                    "velocity": 0.3464566929133858,
                    "duration": 2.123892000000012
                },
                {
                    "name": "C6",
                    "midi": 84,
                    "time": 264.95552699999996,
                    "velocity": 0.4251968503937008,
                    "duration": 0.2654865000000086
                },
                {
                    "name": "B5",
                    "midi": 83,
                    "time": 265.22101349999997,
                    "velocity": 0.3937007874015748,
                    "duration": 0.2654865000000086
                },
                {
                    "name": "A5",
                    "midi": 81,
                    "time": 265.4865,
                    "velocity": 0.4251968503937008,
                    "duration": 0.2654865000000086
                },
                {
                    "name": "G5",
                    "midi": 79,
                    "time": 265.7519865,
                    "velocity": 0.3937007874015748,
                    "duration": 0.2654865000000086
                },
                {
                    "name": "F#5",
                    "midi": 78,
                    "time": 266.017473,
                    "velocity": 0.4251968503937008,
                    "duration": 0.5309730000000172
                },
                {
                    "name": "A5",
                    "midi": 81,
                    "time": 266.548446,
                    "velocity": 0.4251968503937008,
                    "duration": 0.2654865000000086
                },
                {
                    "name": "G5",
                    "midi": 79,
                    "time": 266.8139325,
                    "velocity": 0.3937007874015748,
                    "duration": 0.2654865000000086
                },
                {
                    "name": "F#5",
                    "midi": 78,
                    "time": 267.07941900000003,
                    "velocity": 0.4330708661417323,
                    "duration": 0.2654865000000086
                },
                {
                    "name": "E5",
                    "midi": 76,
                    "time": 267.34490550000004,
                    "velocity": 0.3937007874015748,
                    "duration": 0.2654865000000086
                },
                {
                    "name": "D#5",
                    "midi": 75,
                    "time": 267.61039200000005,
                    "velocity": 0.4251968503937008,
                    "duration": 0.5309730000000172
                },
                {
                    "name": "B2",
                    "midi": 47,
                    "time": 268.14136500000006,
                    "velocity": 0.3858267716535433,
                    "duration": 0.23893785000001344
                },
                {
                    "name": "B3",
                    "midi": 59,
                    "time": 268.14136500000006,
                    "velocity": 0.4645669291338583,
                    "duration": 0.23893785000001344
                },
                {
                    "name": "A2",
                    "midi": 45,
                    "time": 268.4068515000001,
                    "velocity": 0.36220472440944884,
                    "duration": 0.23893785000001344
                },
                {
                    "name": "A3",
                    "midi": 57,
                    "time": 268.4068515000001,
                    "velocity": 0.4330708661417323,
                    "duration": 0.23893785000001344
                },
                {
                    "name": "G2",
                    "midi": 43,
                    "time": 268.6723380000001,
                    "velocity": 0.3858267716535433,
                    "duration": 0.23893785000001344
                },
                {
                    "name": "G3",
                    "midi": 55,
                    "time": 268.6723380000001,
                    "velocity": 0.4645669291338583,
                    "duration": 0.23893785000001344
                },
                {
                    "name": "F#2",
                    "midi": 42,
                    "time": 268.9378245000001,
                    "velocity": 0.36220472440944884,
                    "duration": 0.23893785000001344
                },
                {
                    "name": "F#3",
                    "midi": 54,
                    "time": 268.9378245000001,
                    "velocity": 0.4330708661417323,
                    "duration": 0.23893785000001344
                },
                {
                    "name": "E2",
                    "midi": 40,
                    "time": 269.2033110000001,
                    "velocity": 0.3937007874015748,
                    "duration": 0.4778757000000269
                },
                {
                    "name": "E3",
                    "midi": 52,
                    "time": 269.2033110000001,
                    "velocity": 0.47244094488188976,
                    "duration": 0.4778757000000269
                },
                {
                    "name": "E2",
                    "midi": 40,
                    "time": 269.7342840000001,
                    "velocity": 0.36220472440944884,
                    "duration": 0.4778757000000269
                },
                {
                    "name": "E3",
                    "midi": 52,
                    "time": 269.7342840000001,
                    "velocity": 0.4330708661417323,
                    "duration": 0.4778757000000269
                },
                {
                    "name": "B2",
                    "midi": 47,
                    "time": 270.26525700000013,
                    "velocity": 0.3937007874015748,
                    "duration": 0.4778757000000269
                },
                {
                    "name": "B3",
                    "midi": 59,
                    "time": 270.26525700000013,
                    "velocity": 0.47244094488188976,
                    "duration": 0.4778757000000269
                },
                {
                    "name": "E2",
                    "midi": 40,
                    "time": 270.79623000000015,
                    "velocity": 0.36220472440944884,
                    "duration": 0.4778757000000269
                },
                {
                    "name": "E3",
                    "midi": 52,
                    "time": 270.79623000000015,
                    "velocity": 0.4330708661417323,
                    "duration": 0.4778757000000269
                },
                {
                    "name": "B2",
                    "midi": 47,
                    "time": 271.32720300000017,
                    "velocity": 0.3858267716535433,
                    "duration": 0.23893785000001344
                },
                {
                    "name": "B3",
                    "midi": 59,
                    "time": 271.32720300000017,
                    "velocity": 0.4645669291338583,
                    "duration": 0.23893785000001344
                },
                {
                    "name": "A2",
                    "midi": 45,
                    "time": 271.5926895000002,
                    "velocity": 0.36220472440944884,
                    "duration": 0.23893785000001344
                },
                {
                    "name": "A3",
                    "midi": 57,
                    "time": 271.5926895000002,
                    "velocity": 0.4330708661417323,
                    "duration": 0.23893785000001344
                },
                {
                    "name": "G2",
                    "midi": 43,
                    "time": 271.8581760000002,
                    "velocity": 0.3858267716535433,
                    "duration": 0.23893785000001344
                },
                {
                    "name": "G3",
                    "midi": 55,
                    "time": 271.8581760000002,
                    "velocity": 0.4645669291338583,
                    "duration": 0.23893785000001344
                },
                {
                    "name": "F#2",
                    "midi": 42,
                    "time": 272.1236625000002,
                    "velocity": 0.36220472440944884,
                    "duration": 0.23893785000001344
                },
                {
                    "name": "F#3",
                    "midi": 54,
                    "time": 272.1236625000002,
                    "velocity": 0.4330708661417323,
                    "duration": 0.23893785000001344
                },
                {
                    "name": "E2",
                    "midi": 40,
                    "time": 272.3891490000002,
                    "velocity": 0.3937007874015748,
                    "duration": 0.4778757000000269
                },
                {
                    "name": "E3",
                    "midi": 52,
                    "time": 272.3891490000002,
                    "velocity": 0.47244094488188976,
                    "duration": 0.4778757000000269
                },
                {
                    "name": "E2",
                    "midi": 40,
                    "time": 272.9201220000002,
                    "velocity": 0.36220472440944884,
                    "duration": 0.4778757000000269
                },
                {
                    "name": "E3",
                    "midi": 52,
                    "time": 272.9201220000002,
                    "velocity": 0.4330708661417323,
                    "duration": 0.4778757000000269
                },
                {
                    "name": "B2",
                    "midi": 47,
                    "time": 273.45109500000024,
                    "velocity": 0.3937007874015748,
                    "duration": 0.4778757000000269
                },
                {
                    "name": "B3",
                    "midi": 59,
                    "time": 273.45109500000024,
                    "velocity": 0.47244094488188976,
                    "duration": 0.4778757000000269
                },
                {
                    "name": "E2",
                    "midi": 40,
                    "time": 273.98206800000025,
                    "velocity": 0.36220472440944884,
                    "duration": 0.4778757000000269
                },
                {
                    "name": "E3",
                    "midi": 52,
                    "time": 273.98206800000025,
                    "velocity": 0.4330708661417323,
                    "duration": 0.4778757000000269
                },
                {
                    "name": "C4",
                    "midi": 60,
                    "time": 275.5749870000003,
                    "velocity": 0.33070866141732286,
                    "duration": 1.0619460000000345
                },
                {
                    "name": "E4",
                    "midi": 64,
                    "time": 275.8404735000003,
                    "velocity": 0.30708661417322836,
                    "duration": 0.2654865000000086
                },
                {
                    "name": "G4",
                    "midi": 67,
                    "time": 276.1059600000003,
                    "velocity": 0.33070866141732286,
                    "duration": 0.2654865000000086
                },
                {
                    "name": "E4",
                    "midi": 64,
                    "time": 276.37144650000033,
                    "velocity": 0.30708661417322836,
                    "duration": 0.2654865000000086
                },
                {
                    "name": "B3",
                    "midi": 59,
                    "time": 276.63693300000034,
                    "velocity": 0.2755905511811024,
                    "duration": 0.5309730000000172
                },
                {
                    "name": "F4",
                    "midi": 65,
                    "time": 276.63693300000034,
                    "velocity": 0.33070866141732286,
                    "duration": 0.2654865000000086
                },
                {
                    "name": "D4",
                    "midi": 62,
                    "time": 276.90241950000035,
                    "velocity": 0.29133858267716534,
                    "duration": 0.2654865000000086
                },
                {
                    "name": "C4",
                    "midi": 60,
                    "time": 277.16790600000036,
                    "velocity": 0.33070866141732286,
                    "duration": 1.0619460000000345
                },
                {
                    "name": "E4",
                    "midi": 64,
                    "time": 277.43339250000037,
                    "velocity": 0.29133858267716534,
                    "duration": 0.2654865000000086
                },
                {
                    "name": "G4",
                    "midi": 67,
                    "time": 277.6988790000004,
                    "velocity": 0.33070866141732286,
                    "duration": 0.2654865000000086
                },
                {
                    "name": "E4",
                    "midi": 64,
                    "time": 277.9643655000004,
                    "velocity": 0.29133858267716534,
                    "duration": 0.2654865000000086
                },
                {
                    "name": "B3",
                    "midi": 59,
                    "time": 278.2298520000004,
                    "velocity": 0.2755905511811024,
                    "duration": 0.5309730000000172
                },
                {
                    "name": "F4",
                    "midi": 65,
                    "time": 278.2298520000004,
                    "velocity": 0.33070866141732286,
                    "duration": 0.2654865000000086
                },
                {
                    "name": "D4",
                    "midi": 62,
                    "time": 278.4953385000004,
                    "velocity": 0.2992125984251969,
                    "duration": 0.2654865000000086
                },
                {
                    "name": "C4",
                    "midi": 60,
                    "time": 278.7608250000004,
                    "velocity": 0.36220472440944884,
                    "duration": 1.0619460000000345
                },
                {
                    "name": "E4",
                    "midi": 64,
                    "time": 279.0263115000004,
                    "velocity": 0.33070866141732286,
                    "duration": 0.2654865000000086
                },
                {
                    "name": "G4",
                    "midi": 67,
                    "time": 279.2917980000004,
                    "velocity": 0.36220472440944884,
                    "duration": 0.2654865000000086
                },
                {
                    "name": "E4",
                    "midi": 64,
                    "time": 279.55728450000043,
                    "velocity": 0.33070866141732286,
                    "duration": 0.2654865000000086
                },
                {
                    "name": "B3",
                    "midi": 59,
                    "time": 279.82277100000044,
                    "velocity": 0.2992125984251969,
                    "duration": 0.5309730000000172
                },
                {
                    "name": "F4",
                    "midi": 65,
                    "time": 279.82277100000044,
                    "velocity": 0.36220472440944884,
                    "duration": 0.2654865000000086
                },
                {
                    "name": "D4",
                    "midi": 62,
                    "time": 280.08825750000045,
                    "velocity": 0.31496062992125984,
                    "duration": 0.2654865000000086
                },
                {
                    "name": "C4",
                    "midi": 60,
                    "time": 280.35374400000046,
                    "velocity": 0.36220472440944884,
                    "duration": 1.0619460000000345
                },
                {
                    "name": "E4",
                    "midi": 64,
                    "time": 280.61923050000047,
                    "velocity": 0.31496062992125984,
                    "duration": 0.2654865000000086
                },
                {
                    "name": "G4",
                    "midi": 67,
                    "time": 280.8847170000005,
                    "velocity": 0.36220472440944884,
                    "duration": 0.2654865000000086
                },
                {
                    "name": "E4",
                    "midi": 64,
                    "time": 281.1502035000005,
                    "velocity": 0.31496062992125984,
                    "duration": 0.2654865000000086
                },
                {
                    "name": "C4",
                    "midi": 60,
                    "time": 281.4156900000005,
                    "velocity": 0.36220472440944884,
                    "duration": 0.2654865000000086
                },
                {
                    "name": "E4",
                    "midi": 64,
                    "time": 281.6811765000005,
                    "velocity": 0.3228346456692913,
                    "duration": 0.2654865000000086
                },
                {
                    "name": "A#3",
                    "midi": 58,
                    "time": 281.9466630000005,
                    "velocity": 0.41732283464566927,
                    "duration": 1.0619460000000345
                },
                {
                    "name": "C4",
                    "midi": 60,
                    "time": 282.2121495000005,
                    "velocity": 0.3543307086614173,
                    "duration": 0.2654865000000086
                },
                {
                    "name": "E4",
                    "midi": 64,
                    "time": 282.47763600000053,
                    "velocity": 0.4015748031496063,
                    "duration": 0.2654865000000086
                },
                {
                    "name": "G4",
                    "midi": 67,
                    "time": 282.74312250000054,
                    "velocity": 0.33858267716535434,
                    "duration": 0.2654865000000086
                },
                {
                    "name": "E4",
                    "midi": 64,
                    "time": 283.00860900000055,
                    "velocity": 0.4094488188976378,
                    "duration": 0.2654865000000086
                },
                {
                    "name": "C4",
                    "midi": 60,
                    "time": 283.27409550000056,
                    "velocity": 0.36220472440944884,
                    "duration": 0.2654865000000086
                },
                {
                    "name": "A3",
                    "midi": 57,
                    "time": 283.53958200000056,
                    "velocity": 0.4566929133858268,
                    "duration": 1.0619460000000345
                },
                {
                    "name": "C#4",
                    "midi": 61,
                    "time": 283.8050685000006,
                    "velocity": 0.4015748031496063,
                    "duration": 0.2654865000000086
                },
                {
                    "name": "E4",
                    "midi": 64,
                    "time": 284.0705550000006,
                    "velocity": 0.4566929133858268,
                    "duration": 0.2654865000000086
                },
                {
                    "name": "G4",
                    "midi": 67,
                    "time": 284.3360415000006,
                    "velocity": 0.3937007874015748,
                    "duration": 0.2654865000000086
                },
                {
                    "name": "E4",
                    "midi": 64,
                    "time": 284.6015280000006,
                    "velocity": 0.4566929133858268,
                    "duration": 0.2654865000000086
                },
                {
                    "name": "C#4",
                    "midi": 61,
                    "time": 284.8670145000006,
                    "velocity": 0.4015748031496063,
                    "duration": 0.2654865000000086
                },
                {
                    "name": "A3",
                    "midi": 57,
                    "time": 285.1325010000006,
                    "velocity": 0.3779527559055118,
                    "duration": 1.0619459999999776
                },
                {
                    "name": "D4",
                    "midi": 62,
                    "time": 285.1325010000006,
                    "velocity": 0.44881889763779526,
                    "duration": 1.0619459999999776
                },
                {
                    "name": "G#3",
                    "midi": 56,
                    "time": 286.1944470000006,
                    "velocity": 0.3228346456692913,
                    "duration": 0.5309730000000172
                },
                {
                    "name": "E4",
                    "midi": 64,
                    "time": 286.1944470000006,
                    "velocity": 0.3858267716535433,
                    "duration": 0.2654865000000086
                },
                {
                    "name": "F4",
                    "midi": 65,
                    "time": 286.4599335000006,
                    "velocity": 0.33858267716535434,
                    "duration": 0.2654865000000086
                },
                {
                    "name": "A3",
                    "midi": 57,
                    "time": 286.7254200000006,
                    "velocity": 0.3464566929133858,
                    "duration": 0.5309730000000172
                },
                {
                    "name": "E4",
                    "midi": 64,
                    "time": 286.7254200000006,
                    "velocity": 0.4094488188976378,
                    "duration": 0.5309730000000172
                },
                {
                    "name": "D4",
                    "midi": 62,
                    "time": 288.3183390000006,
                    "velocity": 0.33858267716535434,
                    "duration": 1.5929189999999949
                },
                {
                    "name": "A#3",
                    "midi": 58,
                    "time": 288.3183390000006,
                    "velocity": 0.33858267716535434,
                    "duration": 1.5929189999999949
                },
                {
                    "name": "G#4",
                    "midi": 68,
                    "time": 288.3183390000006,
                    "velocity": 0.4015748031496063,
                    "duration": 1.5929189999999949
                },
                {
                    "name": "C#4",
                    "midi": 61,
                    "time": 289.9112580000006,
                    "velocity": 0.3464566929133858,
                    "duration": 0.5309730000000172
                },
                {
                    "name": "A3",
                    "midi": 57,
                    "time": 289.9112580000006,
                    "velocity": 0.3464566929133858,
                    "duration": 0.5309730000000172
                },
                {
                    "name": "A4",
                    "midi": 69,
                    "time": 289.9112580000006,
                    "velocity": 0.4094488188976378,
                    "duration": 0.5309730000000172
                },
                {
                    "name": "A3",
                    "midi": 57,
                    "time": 290.97320400000064,
                    "velocity": 0.29133858267716534,
                    "duration": 0.5309730000000172
                },
                {
                    "name": "D4",
                    "midi": 62,
                    "time": 290.97320400000064,
                    "velocity": 0.29133858267716534,
                    "duration": 0.5309730000000172
                },
                {
                    "name": "F4",
                    "midi": 65,
                    "time": 290.97320400000064,
                    "velocity": 0.3464566929133858,
                    "duration": 0.5309730000000172
                },
                {
                    "name": "C#4",
                    "midi": 61,
                    "time": 291.50417700000065,
                    "velocity": 0.3464566929133858,
                    "duration": 0.5309730000000172
                },
                {
                    "name": "A3",
                    "midi": 57,
                    "time": 291.50417700000065,
                    "velocity": 0.3464566929133858,
                    "duration": 0.5309730000000172
                },
                {
                    "name": "E4",
                    "midi": 64,
                    "time": 291.50417700000065,
                    "velocity": 0.4094488188976378,
                    "duration": 0.5309730000000172
                },
                {
                    "name": "A3",
                    "midi": 57,
                    "time": 292.5661230000007,
                    "velocity": 0.29133858267716534,
                    "duration": 0.5309730000000172
                },
                {
                    "name": "D4",
                    "midi": 62,
                    "time": 292.5661230000007,
                    "velocity": 0.29133858267716534,
                    "duration": 0.5309730000000172
                },
                {
                    "name": "F4",
                    "midi": 65,
                    "time": 292.5661230000007,
                    "velocity": 0.3464566929133858,
                    "duration": 0.5309730000000172
                },
                {
                    "name": "A3",
                    "midi": 57,
                    "time": 293.0970960000007,
                    "velocity": 0.3464566929133858,
                    "duration": 0.5309730000000172
                },
                {
                    "name": "C#4",
                    "midi": 61,
                    "time": 293.0970960000007,
                    "velocity": 0.3464566929133858,
                    "duration": 0.5309730000000172
                },
                {
                    "name": "E4",
                    "midi": 64,
                    "time": 293.0970960000007,
                    "velocity": 0.4094488188976378,
                    "duration": 0.5309730000000172
                },
                {
                    "name": "D2",
                    "midi": 38,
                    "time": 294.6900150000007,
                    "velocity": 0.29133858267716534,
                    "duration": 2.123892000000012
                },
                {
                    "name": "D3",
                    "midi": 50,
                    "time": 294.6900150000007,
                    "velocity": 0.3464566929133858,
                    "duration": 2.123892000000012
                },
                {
                    "name": "B2",
                    "midi": 47,
                    "time": 297.8758530000007,
                    "velocity": 0.41732283464566927,
                    "duration": 0.5309730000000172
                },
                {
                    "name": "A2",
                    "midi": 45,
                    "time": 298.4068260000007,
                    "velocity": 0.3858267716535433,
                    "duration": 0.5309730000000172
                },
                {
                    "name": "G2",
                    "midi": 43,
                    "time": 298.9377990000007,
                    "velocity": 0.3700787401574803,
                    "duration": 0.5309730000000172
                },
                {
                    "name": "D3",
                    "midi": 50,
                    "time": 299.46877200000074,
                    "velocity": 0.41732283464566927,
                    "duration": 0.5309730000000172
                },
                {
                    "name": "D6",
                    "midi": 86,
                    "time": 299.99974500000076,
                    "velocity": 0.4330708661417323,
                    "duration": 0.2654865000000086
                },
                {
                    "name": "C#6",
                    "midi": 85,
                    "time": 300.26523150000077,
                    "velocity": 0.4015748031496063,
                    "duration": 0.2654865000000086
                },
                {
                    "name": "B5",
                    "midi": 83,
                    "time": 300.5307180000008,
                    "velocity": 0.4330708661417323,
                    "duration": 0.2654865000000086
                },
                {
                    "name": "A5",
                    "midi": 81,
                    "time": 300.7962045000008,
                    "velocity": 0.4015748031496063,
                    "duration": 0.2654865000000086
                },
                {
                    "name": "G5",
                    "midi": 79,
                    "time": 301.0616910000008,
                    "velocity": 0.4330708661417323,
                    "duration": 0.5309730000000172
                },
                {
                    "name": "A5",
                    "midi": 81,
                    "time": 301.5926640000008,
                    "velocity": 0.4566929133858268,
                    "duration": 0.5309730000000172
                },
                {
                    "name": "B5",
                    "midi": 83,
                    "time": 302.1236370000008,
                    "velocity": 0.4645669291338583,
                    "duration": 0.5309730000000172
                },
                {
                    "name": "A5",
                    "midi": 81,
                    "time": 302.65461000000084,
                    "velocity": 0.4645669291338583,
                    "duration": 0.5309730000000172
                },
                {
                    "name": "A2",
                    "midi": 45,
                    "time": 304.24752900000084,
                    "velocity": 0.41732283464566927,
                    "duration": 0.5309730000000172
                },
                {
                    "name": "F#2",
                    "midi": 42,
                    "time": 304.77850200000086,
                    "velocity": 0.3858267716535433,
                    "duration": 0.5309730000000172
                },
                {
                    "name": "D2",
                    "midi": 38,
                    "time": 305.3094750000009,
                    "velocity": 0.3700787401574803,
                    "duration": 0.5309730000000172
                },
                {
                    "name": "A2",
                    "midi": 45,
                    "time": 305.8404480000009,
                    "velocity": 0.41732283464566927,
                    "duration": 0.5309730000000172
                },
                {
                    "name": "B5",
                    "midi": 83,
                    "time": 306.3714210000009,
                    "velocity": 0.4330708661417323,
                    "duration": 0.2654865000000086
                },
                {
                    "name": "A5",
                    "midi": 81,
                    "time": 306.6369075000009,
                    "velocity": 0.4015748031496063,
                    "duration": 0.2654865000000086
                },
                {
                    "name": "G5",
                    "midi": 79,
                    "time": 306.9023940000009,
                    "velocity": 0.4330708661417323,
                    "duration": 0.2654865000000086
                },
                {
                    "name": "F#5",
                    "midi": 78,
                    "time": 307.16788050000093,
                    "velocity": 0.4015748031496063,
                    "duration": 0.19911487500002067
                },
                {
                    "name": "G#5",
                    "midi": 80,
                    "time": 307.36699537500095,
                    "velocity": 0.3779527559055118,
                    "duration": 0.06637162499998794
                },
                {
                    "name": "A5",
                    "midi": 81,
                    "time": 307.43336700000094,
                    "velocity": 0.49606299212598426,
                    "duration": 0.3982297499999845
                },
                {
                    "name": "G#5",
                    "midi": 80,
                    "time": 307.8979683750009,
                    "velocity": 0.3779527559055118,
                    "duration": 0.06637162499998794
                },
                {
                    "name": "A5",
                    "midi": 81,
                    "time": 307.9643400000009,
                    "velocity": 0.49606299212598426,
                    "duration": 0.3982297499999845
                },
                {
                    "name": "G#5",
                    "midi": 80,
                    "time": 308.4289413750009,
                    "velocity": 0.3779527559055118,
                    "duration": 0.06637162499998794
                },
                {
                    "name": "A5",
                    "midi": 81,
                    "time": 308.49531300000086,
                    "velocity": 0.5039370078740157,
                    "duration": 0.3982297499999845
                },
                {
                    "name": "G#5",
                    "midi": 80,
                    "time": 308.95991437500084,
                    "velocity": 0.3779527559055118,
                    "duration": 0.06637162499998794
                },
                {
                    "name": "A5",
                    "midi": 81,
                    "time": 309.0262860000008,
                    "velocity": 0.5039370078740157,
                    "duration": 0.5309730000000172
                },
                {
                    "name": "B3",
                    "midi": 59,
                    "time": 309.55725900000084,
                    "velocity": 0.36220472440944884,
                    "duration": 0.2654865000000086
                },
                {
                    "name": "A#3",
                    "midi": 58,
                    "time": 309.82274550000085,
                    "velocity": 0.3228346456692913,
                    "duration": 0.2654865000000086
                },
                {
                    "name": "B3",
                    "midi": 59,
                    "time": 310.08823200000086,
                    "velocity": 0.3700787401574803,
                    "duration": 0.2654865000000086
                },
                {
                    "name": "G3",
                    "midi": 55,
                    "time": 310.35371850000087,
                    "velocity": 0.3228346456692913,
                    "duration": 0.2654865000000086
                },
                {
                    "name": "F#3",
                    "midi": 54,
                    "time": 310.6192050000009,
                    "velocity": 0.3779527559055118,
                    "duration": 0.5309730000000172
                },
                {
                    "name": "E3",
                    "midi": 52,
                    "time": 311.1501780000009,
                    "velocity": 0.3464566929133858,
                    "duration": 0.5309730000000172
                },
                {
                    "name": "A2",
                    "midi": 45,
                    "time": 311.6811510000009,
                    "velocity": 0.3464566929133858,
                    "duration": 0.5309730000000172
                },
                {
                    "name": "D3",
                    "midi": 50,
                    "time": 312.2121240000009,
                    "velocity": 0.3858267716535433,
                    "duration": 0.5309730000000172
                },
                {
                    "name": "D6",
                    "midi": 86,
                    "time": 312.74309700000094,
                    "velocity": 0.4566929133858268,
                    "duration": 0.2654865000000086
                },
                {
                    "name": "C#6",
                    "midi": 85,
                    "time": 313.00858350000095,
                    "velocity": 0.41732283464566927,
                    "duration": 0.2654865000000086
                },
                {
                    "name": "D6",
                    "midi": 86,
                    "time": 313.27407000000096,
                    "velocity": 0.4645669291338583,
                    "duration": 0.2654865000000086
                },
                {
                    "name": "B5",
                    "midi": 83,
                    "time": 313.53955650000097,
                    "velocity": 0.4094488188976378,
                    "duration": 0.2654865000000086
                },
                {
                    "name": "A5",
                    "midi": 81,
                    "time": 313.805043000001,
                    "velocity": 0.4566929133858268,
                    "duration": 0.5309730000000172
                },
                {
                    "name": "G5",
                    "midi": 79,
                    "time": 314.336016000001,
                    "velocity": 0.4881889763779528,
                    "duration": 0.5309730000000172
                },
                {
                    "name": "E5",
                    "midi": 76,
                    "time": 314.866989000001,
                    "velocity": 0.4645669291338583,
                    "duration": 0.5309730000000172
                },
                {
                    "name": "D5",
                    "midi": 74,
                    "time": 315.39796200000103,
                    "velocity": 0.4409448818897638,
                    "duration": 0.5309730000000172
                },
                {
                    "name": "G2",
                    "midi": 43,
                    "time": 315.92893500000105,
                    "velocity": 0.33858267716535434,
                    "duration": 0.5309730000000172
                },
                {
                    "name": "G3",
                    "midi": 55,
                    "time": 316.45990800000106,
                    "velocity": 0.2992125984251969,
                    "duration": 0.5309730000000172
                },
                {
                    "name": "A2",
                    "midi": 45,
                    "time": 316.45990800000106,
                    "velocity": 0.25196850393700787,
                    "duration": 0.5309730000000172
                },
                {
                    "name": "F#3",
                    "midi": 54,
                    "time": 316.9908810000011,
                    "velocity": 0.33858267716535434,
                    "duration": 0.5309730000000172
                },
                {
                    "name": "D3",
                    "midi": 50,
                    "time": 316.9908810000011,
                    "velocity": 0.28346456692913385,
                    "duration": 0.5309730000000172
                },
                {
                    "name": "G2",
                    "midi": 43,
                    "time": 317.5218540000011,
                    "velocity": 0.2992125984251969,
                    "duration": 0.5309730000000172
                },
                {
                    "name": "G3",
                    "midi": 55,
                    "time": 318.0528270000011,
                    "velocity": 0.33858267716535434,
                    "duration": 0.5309730000000172
                },
                {
                    "name": "A2",
                    "midi": 45,
                    "time": 318.0528270000011,
                    "velocity": 0.28346456692913385,
                    "duration": 0.5309730000000172
                },
                {
                    "name": "D3",
                    "midi": 50,
                    "time": 318.58380000000113,
                    "velocity": 0.2677165354330709,
                    "duration": 0.5309730000000172
                },
                {
                    "name": "F#3",
                    "midi": 54,
                    "time": 318.58380000000113,
                    "velocity": 0.31496062992125984,
                    "duration": 0.5309730000000172
                },
                {
                    "name": "D2",
                    "midi": 38,
                    "time": 319.11477300000115,
                    "velocity": 0.31496062992125984,
                    "duration": 0.2654865000000086
                },
                {
                    "name": "A2",
                    "midi": 45,
                    "time": 320.30946225000116,
                    "velocity": 0.4645669291338583,
                    "duration": 0.9292027500000017
                },
                {
                    "name": "A3",
                    "midi": 57,
                    "time": 320.30946225000116,
                    "velocity": 0.5511811023622047,
                    "duration": 0.9292027500000017
                },
                {
                    "name": "E2",
                    "midi": 40,
                    "time": 321.23866500000116,
                    "velocity": 0.41732283464566927,
                    "duration": 0.5309730000000172
                },
                {
                    "name": "E3",
                    "midi": 52,
                    "time": 321.23866500000116,
                    "velocity": 0.49606299212598426,
                    "duration": 0.5309730000000172
                },
                {
                    "name": "C#3",
                    "midi": 49,
                    "time": 321.7696380000012,
                    "velocity": 0.3779527559055118,
                    "duration": 0.5309730000000172
                },
                {
                    "name": "C#4",
                    "midi": 61,
                    "time": 321.7696380000012,
                    "velocity": 0.44881889763779526,
                    "duration": 0.5309730000000172
                },
                {
                    "name": "A2",
                    "midi": 45,
                    "time": 322.3006110000012,
                    "velocity": 0.3543307086614173,
                    "duration": 0.2654865000000086
                },
                {
                    "name": "A3",
                    "midi": 57,
                    "time": 322.3006110000012,
                    "velocity": 0.41732283464566927,
                    "duration": 0.2654865000000086
                },
                {
                    "name": "A3",
                    "midi": 57,
                    "time": 324.4245030000012,
                    "velocity": 0.31496062992125984,
                    "duration": 0.2654865000000086
                },
                {
                    "name": "F#4",
                    "midi": 66,
                    "time": 324.4245030000012,
                    "velocity": 0.31496062992125984,
                    "duration": 0.2654865000000086
                },
                {
                    "name": "B3",
                    "midi": 59,
                    "time": 324.9554760000012,
                    "velocity": 0.31496062992125984,
                    "duration": 0.5309730000000172
                },
                {
                    "name": "A4",
                    "midi": 69,
                    "time": 324.9554760000012,
                    "velocity": 0.31496062992125984,
                    "duration": 0.5309730000000172
                },
                {
                    "name": "E4",
                    "midi": 64,
                    "time": 325.48644900000124,
                    "velocity": 0.31496062992125984,
                    "duration": 0.5309730000000172
                },
                {
                    "name": "G#4",
                    "midi": 68,
                    "time": 325.48644900000124,
                    "velocity": 0.31496062992125984,
                    "duration": 0.5309730000000172
                },
                {
                    "name": "E3",
                    "midi": 52,
                    "time": 328.1413140000013,
                    "velocity": 0.30708661417322836,
                    "duration": 0.2654865000000086
                },
                {
                    "name": "D4",
                    "midi": 62,
                    "time": 328.4068005000013,
                    "velocity": 0.25984251968503935,
                    "duration": 0.2654865000000086
                },
                {
                    "name": "B3",
                    "midi": 59,
                    "time": 328.6722870000013,
                    "velocity": 0.25984251968503935,
                    "duration": 0.2654865000000086
                },
                {
                    "name": "D4",
                    "midi": 62,
                    "time": 328.9377735000013,
                    "velocity": 0.2204724409448819,
                    "duration": 0.2654865000000086
                },
                {
                    "name": "B3",
                    "midi": 59,
                    "time": 329.2032600000013,
                    "velocity": 0.2440944881889764,
                    "duration": 0.2654865000000086
                },
                {
                    "name": "D4",
                    "midi": 62,
                    "time": 329.4687465000013,
                    "velocity": 0.2283464566929134,
                    "duration": 0.2654865000000086
                },
                {
                    "name": "E3",
                    "midi": 52,
                    "time": 329.7342330000013,
                    "velocity": 0.31496062992125984,
                    "duration": 0.2654865000000086
                },
                {
                    "name": "C#4",
                    "midi": 61,
                    "time": 329.99971950000133,
                    "velocity": 0.2677165354330709,
                    "duration": 0.2654865000000086
                },
                {
                    "name": "A3",
                    "midi": 57,
                    "time": 330.26520600000134,
                    "velocity": 0.2677165354330709,
                    "duration": 0.2654865000000086
                },
                {
                    "name": "C#4",
                    "midi": 61,
                    "time": 330.53069250000135,
                    "velocity": 0.23622047244094488,
                    "duration": 0.2654865000000086
                },
                {
                    "name": "A3",
                    "midi": 57,
                    "time": 330.79617900000136,
                    "velocity": 0.25196850393700787,
                    "duration": 0.2654865000000086
                },
                {
                    "name": "C#4",
                    "midi": 61,
                    "time": 331.06166550000137,
                    "velocity": 0.2204724409448819,
                    "duration": 0.2654865000000086
                },
                {
                    "name": "D3",
                    "midi": 50,
                    "time": 331.3271520000014,
                    "velocity": 0.33070866141732286,
                    "duration": 0.2654865000000086
                },
                {
                    "name": "B3",
                    "midi": 59,
                    "time": 331.5926385000014,
                    "velocity": 0.28346456692913385,
                    "duration": 0.2654865000000086
                },
                {
                    "name": "F#3",
                    "midi": 54,
                    "time": 331.8581250000014,
                    "velocity": 0.28346456692913385,
                    "duration": 0.2654865000000086
                },
                {
                    "name": "B3",
                    "midi": 59,
                    "time": 332.1236115000014,
                    "velocity": 0.2677165354330709,
                    "duration": 0.2654865000000086
                },
                {
                    "name": "F#3",
                    "midi": 54,
                    "time": 332.3890980000014,
                    "velocity": 0.28346456692913385,
                    "duration": 0.2654865000000086
                },
                {
                    "name": "B3",
                    "midi": 59,
                    "time": 332.6545845000014,
                    "velocity": 0.2677165354330709,
                    "duration": 0.2654865000000086
                },
                {
                    "name": "D3",
                    "midi": 50,
                    "time": 332.9200710000014,
                    "velocity": 0.30708661417322836,
                    "duration": 0.5309730000000172
                },
                {
                    "name": "E3",
                    "midi": 52,
                    "time": 334.5129900000014,
                    "velocity": 0.25984251968503935,
                    "duration": 0.5309730000000172
                },
                {
                    "name": "D4",
                    "midi": 62,
                    "time": 334.5129900000014,
                    "velocity": 0.30708661417322836,
                    "duration": 0.5309730000000172
                },
                {
                    "name": "A3",
                    "midi": 57,
                    "time": 335.04396300000144,
                    "velocity": 0.25984251968503935,
                    "duration": 0.5309730000000172
                },
                {
                    "name": "C#4",
                    "midi": 61,
                    "time": 335.04396300000144,
                    "velocity": 0.30708661417322836,
                    "duration": 0.5309730000000172
                },
                {
                    "name": "E3",
                    "midi": 52,
                    "time": 336.1059090000015,
                    "velocity": 0.47244094488188976,
                    "duration": 0.2654865000000086
                },
                {
                    "name": "G#3",
                    "midi": 56,
                    "time": 336.3713955000015,
                    "velocity": 0.4094488188976378,
                    "duration": 0.2654865000000086
                },
                {
                    "name": "B3",
                    "midi": 59,
                    "time": 336.6368820000015,
                    "velocity": 0.4409448818897638,
                    "duration": 0.2654865000000086
                },
                {
                    "name": "G#3",
                    "midi": 56,
                    "time": 336.9023685000015,
                    "velocity": 0.4094488188976378,
                    "duration": 0.2654865000000086
                },
                {
                    "name": "F#3",
                    "midi": 54,
                    "time": 337.1678550000015,
                    "velocity": 0.4409448818897638,
                    "duration": 0.2654865000000086
                },
                {
                    "name": "E3",
                    "midi": 52,
                    "time": 337.4333415000015,
                    "velocity": 0.4015748031496063,
                    "duration": 0.2654865000000086
                },
                {
                    "name": "D#3",
                    "midi": 51,
                    "time": 337.6988280000015,
                    "velocity": 0.47244094488188976,
                    "duration": 0.2654865000000086
                },
                {
                    "name": "E3",
                    "midi": 52,
                    "time": 337.96431450000154,
                    "velocity": 0.3937007874015748,
                    "duration": 0.2654865000000086
                },
                {
                    "name": "F#3",
                    "midi": 54,
                    "time": 338.22980100000154,
                    "velocity": 0.3937007874015748,
                    "duration": 0.2654865000000086
                },
                {
                    "name": "B2",
                    "midi": 47,
                    "time": 338.49528750000155,
                    "velocity": 0.4015748031496063,
                    "duration": 0.2654865000000086
                },
                {
                    "name": "C#3",
                    "midi": 49,
                    "time": 338.76077400000156,
                    "velocity": 0.4251968503937008,
                    "duration": 0.2654865000000086
                },
                {
                    "name": "D#3",
                    "midi": 51,
                    "time": 339.02626050000157,
                    "velocity": 0.4015748031496063,
                    "duration": 0.2654865000000086
                },
                {
                    "name": "E3",
                    "midi": 52,
                    "time": 339.2917470000016,
                    "velocity": 0.47244094488188976,
                    "duration": 0.2654865000000086
                },
                {
                    "name": "G#3",
                    "midi": 56,
                    "time": 339.5572335000016,
                    "velocity": 0.4094488188976378,
                    "duration": 0.2654865000000086
                },
                {
                    "name": "B3",
                    "midi": 59,
                    "time": 339.8227200000016,
                    "velocity": 0.4094488188976378,
                    "duration": 0.2654865000000086
                },
                {
                    "name": "G#3",
                    "midi": 56,
                    "time": 340.0882065000016,
                    "velocity": 0.4094488188976378,
                    "duration": 0.2654865000000086
                },
                {
                    "name": "F#3",
                    "midi": 54,
                    "time": 340.3536930000016,
                    "velocity": 0.4330708661417323,
                    "duration": 0.2654865000000086
                },
                {
                    "name": "E3",
                    "midi": 52,
                    "time": 340.6191795000016,
                    "velocity": 0.4094488188976378,
                    "duration": 0.2654865000000086
                },
                {
                    "name": "D#3",
                    "midi": 51,
                    "time": 340.88466600000163,
                    "velocity": 0.47244094488188976,
                    "duration": 0.2654865000000086
                },
                {
                    "name": "E3",
                    "midi": 52,
                    "time": 341.15015250000164,
                    "velocity": 0.3937007874015748,
                    "duration": 0.2654865000000086
                },
                {
                    "name": "F#3",
                    "midi": 54,
                    "time": 341.41563900000165,
                    "velocity": 0.3937007874015748,
                    "duration": 0.2654865000000086
                },
                {
                    "name": "B2",
                    "midi": 47,
                    "time": 341.68112550000166,
                    "velocity": 0.4015748031496063,
                    "duration": 0.2654865000000086
                },
                {
                    "name": "C#3",
                    "midi": 49,
                    "time": 341.94661200000166,
                    "velocity": 0.4251968503937008,
                    "duration": 0.2654865000000086
                },
                {
                    "name": "D#3",
                    "midi": 51,
                    "time": 342.2120985000017,
                    "velocity": 0.4015748031496063,
                    "duration": 0.2654865000000086
                },
                {
                    "name": "E3",
                    "midi": 52,
                    "time": 342.4775850000017,
                    "velocity": 0.47244094488188976,
                    "duration": 0.5309730000000172
                },
                {
                    "name": "A3",
                    "midi": 57,
                    "time": 345.66342300000167,
                    "velocity": 0.2992125984251969,
                    "duration": 0.5309730000000172
                },
                {
                    "name": "F#4",
                    "midi": 66,
                    "time": 345.66342300000167,
                    "velocity": 0.3543307086614173,
                    "duration": 0.5309730000000172
                },
                {
                    "name": "B3",
                    "midi": 59,
                    "time": 346.1943960000017,
                    "velocity": 0.25984251968503935,
                    "duration": 1.0619460000000345
                },
                {
                    "name": "G#4",
                    "midi": 68,
                    "time": 346.1943960000017,
                    "velocity": 0.30708661417322836,
                    "duration": 0.5309730000000172
                },
                {
                    "name": "A4",
                    "midi": 69,
                    "time": 346.7253690000017,
                    "velocity": 0.30708661417322836,
                    "duration": 0.5309730000000172
                },
                {
                    "name": "E4",
                    "midi": 64,
                    "time": 347.2563420000017,
                    "velocity": 0.2755905511811024,
                    "duration": 0.5309729999999604
                },
                {
                    "name": "G#4",
                    "midi": 68,
                    "time": 347.2563420000017,
                    "velocity": 0.33070866141732286,
                    "duration": 0.5309729999999604
                },
                {
                    "name": "E3",
                    "midi": 52,
                    "time": 347.7585539625017,
                    "velocity": 0.2755905511811024,
                    "duration": 0.5309729999999604
                },
                {
                    "name": "F#3",
                    "midi": 54,
                    "time": 350.44218000000166,
                    "velocity": 0.3700787401574803,
                    "duration": 0.2654865000000086
                },
                {
                    "name": "C#4",
                    "midi": 61,
                    "time": 350.70766650000166,
                    "velocity": 0.30708661417322836,
                    "duration": 0.2654865000000086
                },
                {
                    "name": "F#4",
                    "midi": 66,
                    "time": 350.9731530000017,
                    "velocity": 0.30708661417322836,
                    "duration": 0.2654865000000086
                },
                {
                    "name": "E4",
                    "midi": 64,
                    "time": 351.2386395000017,
                    "velocity": 0.30708661417322836,
                    "duration": 0.2654865000000086
                },
                {
                    "name": "D4",
                    "midi": 62,
                    "time": 351.5041260000017,
                    "velocity": 0.30708661417322836,
                    "duration": 0.2654865000000086
                },
                {
                    "name": "C#4",
                    "midi": 61,
                    "time": 351.7696125000017,
                    "velocity": 0.30708661417322836,
                    "duration": 0.2654865000000086
                },
                {
                    "name": "F#3",
                    "midi": 54,
                    "time": 352.0350990000017,
                    "velocity": 0.3700787401574803,
                    "duration": 0.2654865000000086
                },
                {
                    "name": "D4",
                    "midi": 62,
                    "time": 352.3005855000017,
                    "velocity": 0.33070866141732286,
                    "duration": 0.2654865000000086
                },
                {
                    "name": "F#4",
                    "midi": 66,
                    "time": 352.5660720000017,
                    "velocity": 0.33070866141732286,
                    "duration": 0.2654865000000086
                },
                {
                    "name": "D4",
                    "midi": 62,
                    "time": 352.83155850000173,
                    "velocity": 0.33070866141732286,
                    "duration": 0.2654865000000086
                },
                {
                    "name": "C#4",
                    "midi": 61,
                    "time": 353.09704500000174,
                    "velocity": 0.33070866141732286,
                    "duration": 0.2654865000000086
                },
                {
                    "name": "B3",
                    "midi": 59,
                    "time": 353.36253150000175,
                    "velocity": 0.33070866141732286,
                    "duration": 0.2654865000000086
                },
                {
                    "name": "F#3",
                    "midi": 54,
                    "time": 353.62801800000176,
                    "velocity": 0.4409448818897638,
                    "duration": 0.2654865000000086
                },
                {
                    "name": "A#3",
                    "midi": 58,
                    "time": 353.89350450000177,
                    "velocity": 0.3700787401574803,
                    "duration": 0.2654865000000086
                },
                {
                    "name": "E4",
                    "midi": 64,
                    "time": 354.1589910000018,
                    "velocity": 0.3700787401574803,
                    "duration": 0.2654865000000086
                },
                {
                    "name": "C#4",
                    "midi": 61,
                    "time": 354.4244775000018,
                    "velocity": 0.3700787401574803,
                    "duration": 0.2654865000000086
                },
                {
                    "name": "B3",
                    "midi": 59,
                    "time": 354.6899640000018,
                    "velocity": 0.3700787401574803,
                    "duration": 0.2654865000000086
                },
                {
                    "name": "A#3",
                    "midi": 58,
                    "time": 354.9554505000018,
                    "velocity": 0.3700787401574803,
                    "duration": 0.2654865000000086
                },
                {
                    "name": "B3",
                    "midi": 59,
                    "time": 355.2209370000018,
                    "velocity": 0.44881889763779526,
                    "duration": 0.5309730000000172
                },
                {
                    "name": "E3",
                    "midi": 52,
                    "time": 356.8138560000018,
                    "velocity": 0.3700787401574803,
                    "duration": 0.2654865000000086
                },
                {
                    "name": "B3",
                    "midi": 59,
                    "time": 357.0793425000018,
                    "velocity": 0.30708661417322836,
                    "duration": 0.2654865000000086
                },
                {
                    "name": "E4",
                    "midi": 64,
                    "time": 357.3448290000018,
                    "velocity": 0.30708661417322836,
                    "duration": 0.2654865000000086
                },
                {
                    "name": "D4",
                    "midi": 62,
                    "time": 357.61031550000183,
                    "velocity": 0.30708661417322836,
                    "duration": 0.2654865000000086
                },
                {
                    "name": "C4",
                    "midi": 60,
                    "time": 357.87580200000184,
                    "velocity": 0.30708661417322836,
                    "duration": 0.2654865000000086
                },
                {
                    "name": "B3",
                    "midi": 59,
                    "time": 358.14128850000185,
                    "velocity": 0.30708661417322836,
                    "duration": 0.2654865000000086
                },
                {
                    "name": "E3",
                    "midi": 52,
                    "time": 358.40677500000186,
                    "velocity": 0.3700787401574803,
                    "duration": 0.2654865000000086
                },
                {
                    "name": "C4",
                    "midi": 60,
                    "time": 358.67226150000187,
                    "velocity": 0.33070866141732286,
                    "duration": 0.2654865000000086
                },
                {
                    "name": "E4",
                    "midi": 64,
                    "time": 358.9377480000019,
                    "velocity": 0.33070866141732286,
                    "duration": 0.2654865000000086
                },
                {
                    "name": "C4",
                    "midi": 60,
                    "time": 359.2032345000019,
                    "velocity": 0.33070866141732286,
                    "duration": 0.2654865000000086
                },
                {
                    "name": "B3",
                    "midi": 59,
                    "time": 359.4687210000019,
                    "velocity": 0.33070866141732286,
                    "duration": 0.2654865000000086
                },
                {
                    "name": "A3",
                    "midi": 57,
                    "time": 359.7342075000019,
                    "velocity": 0.33070866141732286,
                    "duration": 0.2654865000000086
                },
                {
                    "name": "E3",
                    "midi": 52,
                    "time": 359.9996940000019,
                    "velocity": 0.4409448818897638,
                    "duration": 0.2654865000000086
                },
                {
                    "name": "G#3",
                    "midi": 56,
                    "time": 360.2651805000019,
                    "velocity": 0.3700787401574803,
                    "duration": 0.2654865000000086
                },
                {
                    "name": "D4",
                    "midi": 62,
                    "time": 360.5306670000019,
                    "velocity": 0.3700787401574803,
                    "duration": 0.2654865000000086
                },
                {
                    "name": "B3",
                    "midi": 59,
                    "time": 360.79615350000194,
                    "velocity": 0.3700787401574803,
                    "duration": 0.2654865000000086
                },
                {
                    "name": "A3",
                    "midi": 57,
                    "time": 361.06164000000194,
                    "velocity": 0.3700787401574803,
                    "duration": 0.2654865000000086
                },
                {
                    "name": "G#3",
                    "midi": 56,
                    "time": 361.32712650000195,
                    "velocity": 0.3700787401574803,
                    "duration": 0.2654865000000086
                },
                {
                    "name": "A3",
                    "midi": 57,
                    "time": 361.59261300000196,
                    "velocity": 0.44881889763779526,
                    "duration": 1.0619459999999776
                },
                {
                    "name": "G2",
                    "midi": 43,
                    "time": 362.65455900000194,
                    "velocity": 0.5433070866141733,
                    "duration": 0.5309730000000172
                },
                {
                    "name": "G3",
                    "midi": 55,
                    "time": 362.65455900000194,
                    "velocity": 0.5433070866141733,
                    "duration": 0.5309730000000172
                },
                {
                    "name": "F2",
                    "midi": 41,
                    "time": 363.18553200000196,
                    "velocity": 0.5669291338582677,
                    "duration": 1.0619459999999776
                },
                {
                    "name": "F3",
                    "midi": 53,
                    "time": 363.18553200000196,
                    "velocity": 0.5669291338582677,
                    "duration": 1.0619459999999776
                },
                {
                    "name": "A3",
                    "midi": 57,
                    "time": 364.77845100000195,
                    "velocity": 0.48031496062992124,
                    "duration": 0.2654865000000086
                },
                {
                    "name": "F3",
                    "midi": 53,
                    "time": 364.77845100000195,
                    "velocity": 0.48031496062992124,
                    "duration": 1.5929190000000517
                },
                {
                    "name": "G#3",
                    "midi": 56,
                    "time": 365.04393750000196,
                    "velocity": 0.33070866141732286,
                    "duration": 0.2654865000000086
                },
                {
                    "name": "A3",
                    "midi": 57,
                    "time": 365.30942400000197,
                    "velocity": 0.36220472440944884,
                    "duration": 0.2654865000000086
                },
                {
                    "name": "C4",
                    "midi": 60,
                    "time": 365.574910500002,
                    "velocity": 0.3228346456692913,
                    "duration": 0.2654865000000086
                },
                {
                    "name": "B3",
                    "midi": 59,
                    "time": 365.840397000002,
                    "velocity": 0.36220472440944884,
                    "duration": 0.2654865000000086
                },
                {
                    "name": "A3",
                    "midi": 57,
                    "time": 366.105883500002,
                    "velocity": 0.3228346456692913,
                    "duration": 0.2654865000000086
                },
                {
                    "name": "E3",
                    "midi": 52,
                    "time": 366.371370000002,
                    "velocity": 0.44881889763779526,
                    "duration": 0.5309730000000172
                },
                {
                    "name": "G#3",
                    "midi": 56,
                    "time": 366.371370000002,
                    "velocity": 0.44881889763779526,
                    "duration": 0.5309730000000172
                },
                {
                    "name": "A2",
                    "midi": 45,
                    "time": 368.09703225000203,
                    "velocity": 0.4645669291338583,
                    "duration": 0.9292027500000017
                },
                {
                    "name": "A3",
                    "midi": 57,
                    "time": 368.09703225000203,
                    "velocity": 0.5511811023622047,
                    "duration": 0.9292027500000017
                },
                {
                    "name": "E2",
                    "midi": 40,
                    "time": 369.02623500000203,
                    "velocity": 0.41732283464566927,
                    "duration": 0.5309730000000172
                },
                {
                    "name": "E3",
                    "midi": 52,
                    "time": 369.02623500000203,
                    "velocity": 0.49606299212598426,
                    "duration": 0.5309730000000172
                },
                {
                    "name": "C#3",
                    "midi": 49,
                    "time": 369.55720800000205,
                    "velocity": 0.3779527559055118,
                    "duration": 0.5309730000000172
                },
                {
                    "name": "C#4",
                    "midi": 61,
                    "time": 369.55720800000205,
                    "velocity": 0.44881889763779526,
                    "duration": 0.5309730000000172
                },
                {
                    "name": "A2",
                    "midi": 45,
                    "time": 370.08818100000207,
                    "velocity": 0.3543307086614173,
                    "duration": 0.2654865000000086
                },
                {
                    "name": "A3",
                    "midi": 57,
                    "time": 370.08818100000207,
                    "velocity": 0.41732283464566927,
                    "duration": 0.2654865000000086
                },
                {
                    "name": "A3",
                    "midi": 57,
                    "time": 372.2120730000021,
                    "velocity": 0.31496062992125984,
                    "duration": 0.2654865000000086
                },
                {
                    "name": "F#4",
                    "midi": 66,
                    "time": 372.2120730000021,
                    "velocity": 0.31496062992125984,
                    "duration": 0.2654865000000086
                },
                {
                    "name": "B3",
                    "midi": 59,
                    "time": 372.7430460000021,
                    "velocity": 0.31496062992125984,
                    "duration": 0.5309730000000172
                },
                {
                    "name": "A4",
                    "midi": 69,
                    "time": 372.7430460000021,
                    "velocity": 0.31496062992125984,
                    "duration": 0.5309730000000172
                },
                {
                    "name": "E4",
                    "midi": 64,
                    "time": 373.2740190000021,
                    "velocity": 0.31496062992125984,
                    "duration": 0.5309730000000172
                },
                {
                    "name": "G#4",
                    "midi": 68,
                    "time": 373.2740190000021,
                    "velocity": 0.31496062992125984,
                    "duration": 0.5309730000000172
                },
                {
                    "name": "E3",
                    "midi": 52,
                    "time": 375.92888400000214,
                    "velocity": 0.30708661417322836,
                    "duration": 0.2654865000000086
                },
                {
                    "name": "D4",
                    "midi": 62,
                    "time": 376.19437050000215,
                    "velocity": 0.25984251968503935,
                    "duration": 0.2654865000000086
                },
                {
                    "name": "B3",
                    "midi": 59,
                    "time": 376.45985700000216,
                    "velocity": 0.25984251968503935,
                    "duration": 0.2654865000000086
                },
                {
                    "name": "D4",
                    "midi": 62,
                    "time": 376.72534350000217,
                    "velocity": 0.2204724409448819,
                    "duration": 0.2654865000000086
                },
                {
                    "name": "B3",
                    "midi": 59,
                    "time": 376.9908300000022,
                    "velocity": 0.2440944881889764,
                    "duration": 0.2654865000000086
                },
                {
                    "name": "D4",
                    "midi": 62,
                    "time": 377.2563165000022,
                    "velocity": 0.2283464566929134,
                    "duration": 0.2654865000000086
                },
                {
                    "name": "E3",
                    "midi": 52,
                    "time": 377.5218030000022,
                    "velocity": 0.31496062992125984,
                    "duration": 0.2654865000000086
                },
                {
                    "name": "C#4",
                    "midi": 61,
                    "time": 377.7872895000022,
                    "velocity": 0.2677165354330709,
                    "duration": 0.2654865000000086
                },
                {
                    "name": "A3",
                    "midi": 57,
                    "time": 378.0527760000022,
                    "velocity": 0.2677165354330709,
                    "duration": 0.2654865000000086
                },
                {
                    "name": "C#4",
                    "midi": 61,
                    "time": 378.3182625000022,
                    "velocity": 0.23622047244094488,
                    "duration": 0.2654865000000086
                },
                {
                    "name": "A3",
                    "midi": 57,
                    "time": 378.58374900000223,
                    "velocity": 0.25196850393700787,
                    "duration": 0.2654865000000086
                },
                {
                    "name": "C#4",
                    "midi": 61,
                    "time": 378.84923550000224,
                    "velocity": 0.2204724409448819,
                    "duration": 0.2654865000000086
                },
                {
                    "name": "E3",
                    "midi": 52,
                    "time": 379.11472200000225,
                    "velocity": 0.33070866141732286,
                    "duration": 0.2654865000000086
                },
                {
                    "name": "C#4",
                    "midi": 61,
                    "time": 379.38020850000225,
                    "velocity": 0.28346456692913385,
                    "duration": 0.2654865000000086
                },
                {
                    "name": "A3",
                    "midi": 57,
                    "time": 379.64569500000226,
                    "velocity": 0.28346456692913385,
                    "duration": 0.2654865000000086
                },
                {
                    "name": "C#4",
                    "midi": 61,
                    "time": 379.9111815000023,
                    "velocity": 0.2677165354330709,
                    "duration": 0.2654865000000086
                },
                {
                    "name": "A3",
                    "midi": 57,
                    "time": 380.1766680000023,
                    "velocity": 0.28346456692913385,
                    "duration": 0.2654865000000086
                },
                {
                    "name": "C#4",
                    "midi": 61,
                    "time": 380.4421545000023,
                    "velocity": 0.2677165354330709,
                    "duration": 0.2654865000000086
                },
                {
                    "name": "D3",
                    "midi": 50,
                    "time": 380.7076410000023,
                    "velocity": 0.2204724409448819,
                    "duration": 0.5309730000000172
                },
                {
                    "name": "A3",
                    "midi": 57,
                    "time": 380.7076410000023,
                    "velocity": 0.2204724409448819,
                    "duration": 0.5309730000000172
                },
                {
                    "name": "D4",
                    "midi": 62,
                    "time": 380.7076410000023,
                    "velocity": 0.2677165354330709,
                    "duration": 0.5309730000000172
                },
                {
                    "name": "C#3",
                    "midi": 49,
                    "time": 382.3005600000023,
                    "velocity": 0.31496062992125984,
                    "duration": 0.3982297499999845
                },
                {
                    "name": "D3",
                    "midi": 50,
                    "time": 382.6987897500023,
                    "velocity": 0.25984251968503935,
                    "duration": 0.1327432499999759
                },
                {
                    "name": "E3",
                    "midi": 52,
                    "time": 382.83153300000225,
                    "velocity": 0.2992125984251969,
                    "duration": 1.0619460000000345
                },
                {
                    "name": "C#4",
                    "midi": 61,
                    "time": 382.83153300000225,
                    "velocity": 0.2992125984251969,
                    "duration": 0.5309730000000172
                },
                {
                    "name": "B3",
                    "midi": 59,
                    "time": 383.36250600000227,
                    "velocity": 0.25196850393700787,
                    "duration": 0.5309730000000172
                },
                {
                    "name": "A3",
                    "midi": 57,
                    "time": 383.8934790000023,
                    "velocity": 0.4251968503937008,
                    "duration": 0.2654865000000086
                },
                {
                    "name": "C#4",
                    "midi": 61,
                    "time": 384.1589655000023,
                    "velocity": 0.36220472440944884,
                    "duration": 0.2654865000000086
                },
                {
                    "name": "E4",
                    "midi": 64,
                    "time": 384.4244520000023,
                    "velocity": 0.3937007874015748,
                    "duration": 0.2654865000000086
                },
                {
                    "name": "C#4",
                    "midi": 61,
                    "time": 384.6899385000023,
                    "velocity": 0.36220472440944884,
                    "duration": 0.2654865000000086
                },
                {
                    "name": "B3",
                    "midi": 59,
                    "time": 384.9554250000023,
                    "velocity": 0.3937007874015748,
                    "duration": 0.2654865000000086
                },
                {
                    "name": "A3",
                    "midi": 57,
                    "time": 385.22091150000233,
                    "velocity": 0.3543307086614173,
                    "duration": 0.2654865000000086
                },
                {
                    "name": "G#3",
                    "midi": 56,
                    "time": 385.48639800000234,
                    "velocity": 0.4251968503937008,
                    "duration": 0.2654865000000086
                },
                {
                    "name": "A3",
                    "midi": 57,
                    "time": 385.75188450000235,
                    "velocity": 0.3543307086614173,
                    "duration": 0.2654865000000086
                },
                {
                    "name": "B3",
                    "midi": 59,
                    "time": 386.01737100000236,
                    "velocity": 0.3543307086614173,
                    "duration": 0.2654865000000086
                },
                {
                    "name": "E3",
                    "midi": 52,
                    "time": 386.28285750000236,
                    "velocity": 0.3543307086614173,
                    "duration": 0.2654865000000086
                },
                {
                    "name": "F#3",
                    "midi": 54,
                    "time": 386.5483440000024,
                    "velocity": 0.3779527559055118,
                    "duration": 0.2654865000000086
                },
                {
                    "name": "G#3",
                    "midi": 56,
                    "time": 386.8138305000024,
                    "velocity": 0.3543307086614173,
                    "duration": 0.2654865000000086
                },
                {
                    "name": "A3",
                    "midi": 57,
                    "time": 387.0793170000024,
                    "velocity": 0.4251968503937008,
                    "duration": 0.2654865000000086
                },
                {
                    "name": "C#4",
                    "midi": 61,
                    "time": 387.3448035000024,
                    "velocity": 0.36220472440944884,
                    "duration": 0.2654865000000086
                },
                {
                    "name": "E4",
                    "midi": 64,
                    "time": 387.6102900000024,
                    "velocity": 0.36220472440944884,
                    "duration": 0.2654865000000086
                },
                {
                    "name": "C#4",
                    "midi": 61,
                    "time": 387.8757765000024,
                    "velocity": 0.36220472440944884,
                    "duration": 0.2654865000000086
                },
                {
                    "name": "B3",
                    "midi": 59,
                    "time": 388.1412630000024,
                    "velocity": 0.3858267716535433,
                    "duration": 0.2654865000000086
                },
                {
                    "name": "A3",
                    "midi": 57,
                    "time": 388.40674950000243,
                    "velocity": 0.36220472440944884,
                    "duration": 0.2654865000000086
                },
                {
                    "name": "G#3",
                    "midi": 56,
                    "time": 388.67223600000244,
                    "velocity": 0.4094488188976378,
                    "duration": 0.2654865000000086
                },
                {
                    "name": "A3",
                    "midi": 57,
                    "time": 388.93772250000245,
                    "velocity": 0.3464566929133858,
                    "duration": 0.2654865000000086
                },
                {
                    "name": "B3",
                    "midi": 59,
                    "time": 389.20320900000246,
                    "velocity": 0.4015748031496063,
                    "duration": 0.2654865000000086
                },
                {
                    "name": "E3",
                    "midi": 52,
                    "time": 389.46869550000247,
                    "velocity": 0.3464566929133858,
                    "duration": 0.2654865000000086
                },
                {
                    "name": "F#3",
                    "midi": 54,
                    "time": 389.7341820000025,
                    "velocity": 0.3937007874015748,
                    "duration": 0.2654865000000086
                },
                {
                    "name": "G#3",
                    "midi": 56,
                    "time": 389.9996685000025,
                    "velocity": 0.36220472440944884,
                    "duration": 0.2654865000000086
                },
                {
                    "name": "A3",
                    "midi": 57,
                    "time": 390.2651550000025,
                    "velocity": 0.4015748031496063,
                    "duration": 0.5309730000000172
                },
                {
                    "name": "F#3",
                    "midi": 54,
                    "time": 390.7961280000025,
                    "velocity": 0.31496062992125984,
                    "duration": 0.5309730000000172
                },
                {
                    "name": "A3",
                    "midi": 57,
                    "time": 390.7961280000025,
                    "velocity": 0.3779527559055118,
                    "duration": 0.5309730000000172
                },
                {
                    "name": "D3",
                    "midi": 50,
                    "time": 391.32710100000253,
                    "velocity": 0.3464566929133858,
                    "duration": 0.5309730000000172
                },
                {
                    "name": "F#3",
                    "midi": 54,
                    "time": 391.32710100000253,
                    "velocity": 0.3464566929133858,
                    "duration": 0.5309730000000172
                },
                {
                    "name": "A3",
                    "midi": 57,
                    "time": 391.32710100000253,
                    "velocity": 0.4094488188976378,
                    "duration": 0.5309730000000172
                },
                {
                    "name": "C#3",
                    "midi": 49,
                    "time": 391.85807400000255,
                    "velocity": 0.3700787401574803,
                    "duration": 0.5309730000000172
                },
                {
                    "name": "E3",
                    "midi": 52,
                    "time": 391.85807400000255,
                    "velocity": 0.3700787401574803,
                    "duration": 0.5309730000000172
                },
                {
                    "name": "A3",
                    "midi": 57,
                    "time": 391.85807400000255,
                    "velocity": 0.4409448818897638,
                    "duration": 0.5309730000000172
                },
                {
                    "name": "D3",
                    "midi": 50,
                    "time": 393.45099300000254,
                    "velocity": 0.2992125984251969,
                    "duration": 0.5309730000000172
                },
                {
                    "name": "B3",
                    "midi": 59,
                    "time": 393.45099300000254,
                    "velocity": 0.3543307086614173,
                    "duration": 0.5309730000000172
                },
                {
                    "name": "E3",
                    "midi": 52,
                    "time": 393.98196600000256,
                    "velocity": 0.25984251968503935,
                    "duration": 1.0619460000000345
                },
                {
                    "name": "C#4",
                    "midi": 61,
                    "time": 393.98196600000256,
                    "velocity": 0.30708661417322836,
                    "duration": 0.5309730000000172
                },
                {
                    "name": "D4",
                    "midi": 62,
                    "time": 394.5129390000026,
                    "velocity": 0.30708661417322836,
                    "duration": 0.5309730000000172
                },
                {
                    "name": "A3",
                    "midi": 57,
                    "time": 395.0439120000026,
                    "velocity": 0.2755905511811024,
                    "duration": 0.5309730000000172
                },
                {
                    "name": "C#4",
                    "midi": 61,
                    "time": 395.0439120000026,
                    "velocity": 0.33070866141732286,
                    "duration": 0.5309730000000172
                },
                {
                    "name": "A2",
                    "midi": 45,
                    "time": 395.5748850000026,
                    "velocity": 0.2755905511811024,
                    "duration": 0.5309730000000172
                }
            ],
            "controlChanges": {
                "7": [
                    {
                        "number": 7,
                        "time": 0,
                        "value": 0.7874015748031497
                    }
                ],
                "10": [
                    {
                        "number": 10,
                        "time": 0,
                        "value": 0.5039370078740157
                    }
                ]
            },
            "id": 2,
            "name": "Piano left",
            "instrumentNumber": 0,
            "instrument": "acoustic grand piano",
            "instrumentFamily": "piano",
            "channelNumber": 0,
            "isPercussion": false
        },
        {
            "startTime": 0,
            "duration": 0,
            "length": 0,
            "notes": [],
            "controlChanges": {
                "64": [
                    {
                        "number": 64,
                        "time": 0.007743356250000001,
                        "value": 1
                    },
                    {
                        "number": 64,
                        "time": 1.07079555,
                        "value": 0
                    },
                    {
                        "number": 64,
                        "time": 1.1438043375,
                        "value": 1
                    },
                    {
                        "number": 64,
                        "time": 1.6039809375,
                        "value": 0
                    },
                    {
                        "number": 64,
                        "time": 1.70243218125,
                        "value": 1
                    },
                    {
                        "number": 64,
                        "time": 2.13274155,
                        "value": 0
                    },
                    {
                        "number": 64,
                        "time": 2.20243175625,
                        "value": 1
                    },
                    {
                        "number": 64,
                        "time": 2.4048652125000003,
                        "value": 0
                    },
                    {
                        "number": 64,
                        "time": 3.2411476875000003,
                        "value": 1
                    },
                    {
                        "number": 64,
                        "time": 3.730085325,
                        "value": 0
                    },
                    {
                        "number": 64,
                        "time": 3.81083746875,
                        "value": 1
                    },
                    {
                        "number": 64,
                        "time": 4.66924381875,
                        "value": 0
                    },
                    {
                        "number": 64,
                        "time": 5.51216345625,
                        "value": 1
                    },
                    {
                        "number": 64,
                        "time": 6.371676,
                        "value": 0
                    },
                    {
                        "number": 64,
                        "time": 8.02764804375,
                        "value": 1
                    },
                    {
                        "number": 64,
                        "time": 8.502205162500001,
                        "value": 0
                    },
                    {
                        "number": 64,
                        "time": 8.596231631250001,
                        "value": 1
                    },
                    {
                        "number": 64,
                        "time": 9.0376029375,
                        "value": 0
                    },
                    {
                        "number": 64,
                        "time": 9.151540893750001,
                        "value": 1
                    },
                    {
                        "number": 64,
                        "time": 9.567469743750001,
                        "value": 0
                    },
                    {
                        "number": 64,
                        "time": 9.730080225000002,
                        "value": 1
                    },
                    {
                        "number": 64,
                        "time": 10.096230356250002,
                        "value": 0
                    },
                    {
                        "number": 64,
                        "time": 10.228973606250003,
                        "value": 1
                    },
                    {
                        "number": 64,
                        "time": 10.629415743750004,
                        "value": 0
                    },
                    {
                        "number": 64,
                        "time": 10.744459893750003,
                        "value": 1
                    },
                    {
                        "number": 64,
                        "time": 11.157070162500004,
                        "value": 0
                    },
                    {
                        "number": 64,
                        "time": 11.315255868750004,
                        "value": 1
                    },
                    {
                        "number": 64,
                        "time": 11.689149356250004,
                        "value": 0
                    },
                    {
                        "number": 64,
                        "time": 11.783175825000004,
                        "value": 1
                    },
                    {
                        "number": 64,
                        "time": 12.219016162500004,
                        "value": 0
                    },
                    {
                        "number": 64,
                        "time": 12.339591281250005,
                        "value": 1
                    },
                    {
                        "number": 64,
                        "time": 12.748882968750005,
                        "value": 0
                    },
                    {
                        "number": 64,
                        "time": 12.883838606250004,
                        "value": 1
                    },
                    {
                        "number": 64,
                        "time": 13.321891331250004,
                        "value": 0
                    },
                    {
                        "number": 64,
                        "time": 14.430297468750004,
                        "value": 1
                    },
                    {
                        "number": 64,
                        "time": 14.877199743750003,
                        "value": 0
                    },
                    {
                        "number": 64,
                        "time": 15.070783650000003,
                        "value": 1
                    },
                    {
                        "number": 64,
                        "time": 15.413703712500002,
                        "value": 0
                    },
                    {
                        "number": 64,
                        "time": 16.069676606250002,
                        "value": 1
                    },
                    {
                        "number": 64,
                        "time": 16.998879356250004,
                        "value": 0
                    },
                    {
                        "number": 64,
                        "time": 17.585162043750003,
                        "value": 1
                    },
                    {
                        "number": 64,
                        "time": 18.064143937500003,
                        "value": 0
                    },
                    {
                        "number": 64,
                        "time": 18.136046531250003,
                        "value": 1
                    },
                    {
                        "number": 64,
                        "time": 18.595116937500002,
                        "value": 0
                    },
                    {
                        "number": 64,
                        "time": 18.69799295625,
                        "value": 1
                    },
                    {
                        "number": 64,
                        "time": 19.17808104375,
                        "value": 0
                    },
                    {
                        "number": 64,
                        "time": 19.278744675000002,
                        "value": 1
                    },
                    {
                        "number": 64,
                        "time": 19.6570629375,
                        "value": 0
                    },
                    {
                        "number": 64,
                        "time": 20.77100004375,
                        "value": 1
                    },
                    {
                        "number": 64,
                        "time": 21.2499819375,
                        "value": 0
                    },
                    {
                        "number": 64,
                        "time": 21.32188453125,
                        "value": 1
                    },
                    {
                        "number": 64,
                        "time": 21.7809549375,
                        "value": 0
                    },
                    {
                        "number": 64,
                        "time": 21.883830956249998,
                        "value": 1
                    },
                    {
                        "number": 64,
                        "time": 22.36391904375,
                        "value": 0
                    },
                    {
                        "number": 64,
                        "time": 22.464582675,
                        "value": 1
                    },
                    {
                        "number": 64,
                        "time": 22.842900937499998,
                        "value": 0
                    },
                    {
                        "number": 64,
                        "time": 22.9203345,
                        "value": 1
                    },
                    {
                        "number": 64,
                        "time": 23.37166155,
                        "value": 0
                    },
                    {
                        "number": 64,
                        "time": 23.40705975,
                        "value": 1
                    },
                    {
                        "number": 64,
                        "time": 23.90374074375,
                        "value": 0
                    },
                    {
                        "number": 64,
                        "time": 23.96347520625,
                        "value": 1
                    },
                    {
                        "number": 64,
                        "time": 24.4358199375,
                        "value": 0
                    },
                    {
                        "number": 64,
                        "time": 24.55750125,
                        "value": 1
                    },
                    {
                        "number": 64,
                        "time": 24.966792937500003,
                        "value": 0
                    },
                    {
                        "number": 64,
                        "time": 25.044226500000004,
                        "value": 1
                    },
                    {
                        "number": 64,
                        "time": 25.496659743750005,
                        "value": 0
                    },
                    {
                        "number": 64,
                        "time": 26.096216756250005,
                        "value": 1
                    },
                    {
                        "number": 64,
                        "time": 26.559711937500005,
                        "value": 0
                    },
                    {
                        "number": 64,
                        "time": 26.704623318750006,
                        "value": 1
                    },
                    {
                        "number": 64,
                        "time": 27.079623000000005,
                        "value": 0
                    },
                    {
                        "number": 64,
                        "time": 28.680285356250007,
                        "value": 1
                    },
                    {
                        "number": 64,
                        "time": 29.743337550000007,
                        "value": 0
                    },
                    {
                        "number": 64,
                        "time": 29.816346337500008,
                        "value": 1
                    },
                    {
                        "number": 64,
                        "time": 30.27652293750001,
                        "value": 0
                    },
                    {
                        "number": 64,
                        "time": 30.374974181250007,
                        "value": 1
                    },
                    {
                        "number": 64,
                        "time": 30.805283550000006,
                        "value": 0
                    },
                    {
                        "number": 64,
                        "time": 30.874973756250007,
                        "value": 1
                    },
                    {
                        "number": 64,
                        "time": 31.077407212500006,
                        "value": 0
                    },
                    {
                        "number": 64,
                        "time": 31.913689687500007,
                        "value": 1
                    },
                    {
                        "number": 64,
                        "time": 32.402627325000005,
                        "value": 0
                    },
                    {
                        "number": 64,
                        "time": 32.48337946875,
                        "value": 1
                    },
                    {
                        "number": 64,
                        "time": 33.341785818750004,
                        "value": 0
                    },
                    {
                        "number": 64,
                        "time": 34.18470545625001,
                        "value": 1
                    },
                    {
                        "number": 64,
                        "time": 35.04421800000001,
                        "value": 0
                    },
                    {
                        "number": 64,
                        "time": 36.700190043750005,
                        "value": 1
                    },
                    {
                        "number": 64,
                        "time": 37.174747162500005,
                        "value": 0
                    },
                    {
                        "number": 64,
                        "time": 37.268773631250006,
                        "value": 1
                    },
                    {
                        "number": 64,
                        "time": 37.710144937500004,
                        "value": 0
                    },
                    {
                        "number": 64,
                        "time": 37.82408289375,
                        "value": 1
                    },
                    {
                        "number": 64,
                        "time": 38.24001174375,
                        "value": 0
                    },
                    {
                        "number": 64,
                        "time": 38.402622225,
                        "value": 1
                    },
                    {
                        "number": 64,
                        "time": 38.768772356250004,
                        "value": 0
                    },
                    {
                        "number": 64,
                        "time": 38.90151560625,
                        "value": 1
                    },
                    {
                        "number": 64,
                        "time": 39.30195774375,
                        "value": 0
                    },
                    {
                        "number": 64,
                        "time": 39.417001893750005,
                        "value": 1
                    },
                    {
                        "number": 64,
                        "time": 39.829612162500005,
                        "value": 0
                    },
                    {
                        "number": 64,
                        "time": 39.98779786875001,
                        "value": 1
                    },
                    {
                        "number": 64,
                        "time": 40.361691356250006,
                        "value": 0
                    },
                    {
                        "number": 64,
                        "time": 40.45571782500001,
                        "value": 1
                    },
                    {
                        "number": 64,
                        "time": 40.891558162500004,
                        "value": 0
                    },
                    {
                        "number": 64,
                        "time": 41.01213328125,
                        "value": 1
                    },
                    {
                        "number": 64,
                        "time": 41.42142496875,
                        "value": 0
                    },
                    {
                        "number": 64,
                        "time": 41.55638060625,
                        "value": 1
                    },
                    {
                        "number": 64,
                        "time": 41.99443333125,
                        "value": 0
                    },
                    {
                        "number": 64,
                        "time": 43.10283946875,
                        "value": 1
                    },
                    {
                        "number": 64,
                        "time": 43.54974174375,
                        "value": 0
                    },
                    {
                        "number": 64,
                        "time": 43.715670806249996,
                        "value": 1
                    },
                    {
                        "number": 64,
                        "time": 44.086245712499995,
                        "value": 0
                    },
                    {
                        "number": 64,
                        "time": 44.74221860624999,
                        "value": 1
                    },
                    {
                        "number": 64,
                        "time": 45.67142135624999,
                        "value": 0
                    },
                    {
                        "number": 64,
                        "time": 46.257704043749996,
                        "value": 1
                    },
                    {
                        "number": 64,
                        "time": 46.7366859375,
                        "value": 0
                    },
                    {
                        "number": 64,
                        "time": 46.80858853125,
                        "value": 1
                    },
                    {
                        "number": 64,
                        "time": 47.2676589375,
                        "value": 0
                    },
                    {
                        "number": 64,
                        "time": 47.370534956250005,
                        "value": 1
                    },
                    {
                        "number": 64,
                        "time": 47.850623043750005,
                        "value": 0
                    },
                    {
                        "number": 64,
                        "time": 47.951286675000006,
                        "value": 1
                    },
                    {
                        "number": 64,
                        "time": 48.32960493750001,
                        "value": 0
                    },
                    {
                        "number": 64,
                        "time": 49.44354204375001,
                        "value": 1
                    },
                    {
                        "number": 64,
                        "time": 49.92252393750001,
                        "value": 0
                    },
                    {
                        "number": 64,
                        "time": 49.994426531250014,
                        "value": 1
                    },
                    {
                        "number": 64,
                        "time": 50.45349693750001,
                        "value": 0
                    },
                    {
                        "number": 64,
                        "time": 50.556372956250016,
                        "value": 1
                    },
                    {
                        "number": 64,
                        "time": 51.036461043750016,
                        "value": 0
                    },
                    {
                        "number": 64,
                        "time": 51.13712467500002,
                        "value": 1
                    },
                    {
                        "number": 64,
                        "time": 51.51544293750002,
                        "value": 0
                    },
                    {
                        "number": 64,
                        "time": 51.59287650000002,
                        "value": 1
                    },
                    {
                        "number": 64,
                        "time": 52.04420355000002,
                        "value": 0
                    },
                    {
                        "number": 64,
                        "time": 52.07960175000002,
                        "value": 1
                    },
                    {
                        "number": 64,
                        "time": 52.57628274375002,
                        "value": 0
                    },
                    {
                        "number": 64,
                        "time": 52.636017206250024,
                        "value": 1
                    },
                    {
                        "number": 64,
                        "time": 53.10836193750002,
                        "value": 0
                    },
                    {
                        "number": 64,
                        "time": 53.23004325000002,
                        "value": 1
                    },
                    {
                        "number": 64,
                        "time": 53.639334937500024,
                        "value": 0
                    },
                    {
                        "number": 64,
                        "time": 53.71676850000002,
                        "value": 1
                    },
                    {
                        "number": 64,
                        "time": 54.16920174375002,
                        "value": 0
                    },
                    {
                        "number": 64,
                        "time": 54.76875875625002,
                        "value": 1
                    },
                    {
                        "number": 64,
                        "time": 55.232253937500026,
                        "value": 0
                    },
                    {
                        "number": 64,
                        "time": 55.315218468750025,
                        "value": 1
                    },
                    {
                        "number": 64,
                        "time": 55.752165000000026,
                        "value": 0
                    },
                    {
                        "number": 64,
                        "time": 57.290880506250026,
                        "value": 1
                    },
                    {
                        "number": 64,
                        "time": 57.81632253750003,
                        "value": 0
                    },
                    {
                        "number": 64,
                        "time": 57.89818087500003,
                        "value": 1
                    },
                    {
                        "number": 64,
                        "time": 58.34618934375003,
                        "value": 0
                    },
                    {
                        "number": 64,
                        "time": 58.39154328750003,
                        "value": 1
                    },
                    {
                        "number": 64,
                        "time": 58.93800300000003,
                        "value": 0
                    },
                    {
                        "number": 64,
                        "time": 59.03977282500003,
                        "value": 1
                    },
                    {
                        "number": 64,
                        "time": 59.47893174375003,
                        "value": 0
                    },
                    {
                        "number": 64,
                        "time": 59.56300246875003,
                        "value": 1
                    },
                    {
                        "number": 64,
                        "time": 60.007692356250026,
                        "value": 0
                    },
                    {
                        "number": 64,
                        "time": 60.14043560625002,
                        "value": 1
                    },
                    {
                        "number": 64,
                        "time": 60.54198393750002,
                        "value": 0
                    },
                    {
                        "number": 64,
                        "time": 60.601718400000024,
                        "value": 1
                    },
                    {
                        "number": 64,
                        "time": 61.069638356250024,
                        "value": 0
                    },
                    {
                        "number": 64,
                        "time": 61.13269140000003,
                        "value": 1
                    },
                    {
                        "number": 64,
                        "time": 61.60282374375003,
                        "value": 0
                    },
                    {
                        "number": 64,
                        "time": 61.73335460625003,
                        "value": 1
                    },
                    {
                        "number": 64,
                        "time": 62.136009131250034,
                        "value": 0
                    },
                    {
                        "number": 64,
                        "time": 62.20791172500004,
                        "value": 1
                    },
                    {
                        "number": 64,
                        "time": 62.66587593750004,
                        "value": 0
                    },
                    {
                        "number": 64,
                        "time": 62.74884046875004,
                        "value": 1
                    },
                    {
                        "number": 64,
                        "time": 63.196848937500036,
                        "value": 0
                    },
                    {
                        "number": 64,
                        "time": 63.25658340000004,
                        "value": 1
                    },
                    {
                        "number": 64,
                        "time": 63.716760000000036,
                        "value": 0
                    },
                    {
                        "number": 64,
                        "time": 63.830697956250035,
                        "value": 1
                    },
                    {
                        "number": 64,
                        "time": 64.25658255000003,
                        "value": 0
                    },
                    {
                        "number": 64,
                        "time": 64.36167095625004,
                        "value": 1
                    },
                    {
                        "number": 64,
                        "time": 64.78313077500003,
                        "value": 0
                    },
                    {
                        "number": 64,
                        "time": 64.88379440625003,
                        "value": 1
                    },
                    {
                        "number": 64,
                        "time": 65.30967900000003,
                        "value": 0
                    },
                    {
                        "number": 64,
                        "time": 65.41144882500004,
                        "value": 1
                    },
                    {
                        "number": 64,
                        "time": 65.85060774375003,
                        "value": 0
                    },
                    {
                        "number": 64,
                        "time": 65.93467846875004,
                        "value": 1
                    },
                    {
                        "number": 64,
                        "time": 66.37936835625004,
                        "value": 0
                    },
                    {
                        "number": 64,
                        "time": 66.51211160625004,
                        "value": 1
                    },
                    {
                        "number": 64,
                        "time": 66.91365993750004,
                        "value": 0
                    },
                    {
                        "number": 64,
                        "time": 66.97339440000005,
                        "value": 1
                    },
                    {
                        "number": 64,
                        "time": 67.44131435625005,
                        "value": 0
                    },
                    {
                        "number": 64,
                        "time": 67.50436740000005,
                        "value": 1
                    },
                    {
                        "number": 64,
                        "time": 67.97449974375004,
                        "value": 0
                    },
                    {
                        "number": 64,
                        "time": 68.10503060625004,
                        "value": 1
                    },
                    {
                        "number": 64,
                        "time": 68.50768513125004,
                        "value": 0
                    },
                    {
                        "number": 64,
                        "time": 68.57958772500004,
                        "value": 1
                    },
                    {
                        "number": 64,
                        "time": 69.03755193750004,
                        "value": 0
                    },
                    {
                        "number": 64,
                        "time": 69.12051646875004,
                        "value": 1
                    },
                    {
                        "number": 64,
                        "time": 69.56852493750004,
                        "value": 0
                    },
                    {
                        "number": 64,
                        "time": 69.62825940000005,
                        "value": 1
                    },
                    {
                        "number": 64,
                        "time": 70.08843600000004,
                        "value": 0
                    },
                    {
                        "number": 64,
                        "time": 70.20237395625004,
                        "value": 1
                    },
                    {
                        "number": 64,
                        "time": 70.62825855000004,
                        "value": 0
                    },
                    {
                        "number": 64,
                        "time": 70.73334695625005,
                        "value": 1
                    },
                    {
                        "number": 64,
                        "time": 71.15480677500004,
                        "value": 0
                    },
                    {
                        "number": 64,
                        "time": 71.25547040625004,
                        "value": 1
                    },
                    {
                        "number": 64,
                        "time": 71.61830195625004,
                        "value": 0
                    },
                    {
                        "number": 64,
                        "time": 71.72007178125004,
                        "value": 1
                    },
                    {
                        "number": 64,
                        "time": 72.74883196875004,
                        "value": 0
                    },
                    {
                        "number": 64,
                        "time": 74.34617574375004,
                        "value": 0
                    },
                    {
                        "number": 64,
                        "time": 74.50104286875003,
                        "value": 1
                    },
                    {
                        "number": 64,
                        "time": 74.86719300000003,
                        "value": 0
                    },
                    {
                        "number": 64,
                        "time": 76.50325355625003,
                        "value": 1
                    },
                    {
                        "number": 64,
                        "time": 77.53090755000002,
                        "value": 0
                    },
                    {
                        "number": 64,
                        "time": 77.60391633750002,
                        "value": 1
                    },
                    {
                        "number": 64,
                        "time": 78.06409293750002,
                        "value": 0
                    },
                    {
                        "number": 64,
                        "time": 78.16254418125003,
                        "value": 1
                    },
                    {
                        "number": 64,
                        "time": 78.59285355000003,
                        "value": 0
                    },
                    {
                        "number": 64,
                        "time": 78.66254375625003,
                        "value": 1
                    },
                    {
                        "number": 64,
                        "time": 78.86497721250004,
                        "value": 0
                    },
                    {
                        "number": 64,
                        "time": 79.70125968750004,
                        "value": 1
                    },
                    {
                        "number": 64,
                        "time": 80.19019732500004,
                        "value": 0
                    },
                    {
                        "number": 64,
                        "time": 80.27094946875005,
                        "value": 1
                    },
                    {
                        "number": 64,
                        "time": 81.12935581875004,
                        "value": 0
                    },
                    {
                        "number": 64,
                        "time": 81.97227545625005,
                        "value": 1
                    },
                    {
                        "number": 64,
                        "time": 82.83178800000005,
                        "value": 0
                    },
                    {
                        "number": 64,
                        "time": 84.48776004375004,
                        "value": 1
                    },
                    {
                        "number": 64,
                        "time": 84.96231716250004,
                        "value": 0
                    },
                    {
                        "number": 64,
                        "time": 85.05634363125004,
                        "value": 1
                    },
                    {
                        "number": 64,
                        "time": 85.49771493750005,
                        "value": 0
                    },
                    {
                        "number": 64,
                        "time": 85.61165289375005,
                        "value": 1
                    },
                    {
                        "number": 64,
                        "time": 86.02758174375005,
                        "value": 0
                    },
                    {
                        "number": 64,
                        "time": 86.19019222500005,
                        "value": 1
                    },
                    {
                        "number": 64,
                        "time": 86.55634235625004,
                        "value": 0
                    },
                    {
                        "number": 64,
                        "time": 86.68908560625005,
                        "value": 1
                    },
                    {
                        "number": 64,
                        "time": 87.08952774375004,
                        "value": 0
                    },
                    {
                        "number": 64,
                        "time": 87.20457189375004,
                        "value": 1
                    },
                    {
                        "number": 64,
                        "time": 87.61718216250004,
                        "value": 0
                    },
                    {
                        "number": 64,
                        "time": 87.77536786875004,
                        "value": 1
                    },
                    {
                        "number": 64,
                        "time": 88.14926135625004,
                        "value": 0
                    },
                    {
                        "number": 64,
                        "time": 88.24328782500004,
                        "value": 1
                    },
                    {
                        "number": 64,
                        "time": 88.67912816250004,
                        "value": 0
                    },
                    {
                        "number": 64,
                        "time": 88.79970328125003,
                        "value": 1
                    },
                    {
                        "number": 64,
                        "time": 89.20346400000003,
                        "value": 0
                    },
                    {
                        "number": 64,
                        "time": 90.84173694375002,
                        "value": 1
                    },
                    {
                        "number": 64,
                        "time": 91.19793133125002,
                        "value": 0
                    },
                    {
                        "number": 64,
                        "time": 92.52978860625002,
                        "value": 1
                    },
                    {
                        "number": 64,
                        "time": 93.45899135625002,
                        "value": 0
                    },
                    {
                        "number": 64,
                        "time": 94.04527404375003,
                        "value": 1
                    },
                    {
                        "number": 64,
                        "time": 94.52425593750003,
                        "value": 0
                    },
                    {
                        "number": 64,
                        "time": 94.59615853125003,
                        "value": 1
                    },
                    {
                        "number": 64,
                        "time": 95.05522893750003,
                        "value": 0
                    },
                    {
                        "number": 64,
                        "time": 95.15810495625003,
                        "value": 1
                    },
                    {
                        "number": 64,
                        "time": 95.63819304375002,
                        "value": 0
                    },
                    {
                        "number": 64,
                        "time": 95.73885667500002,
                        "value": 1
                    },
                    {
                        "number": 64,
                        "time": 96.11717493750002,
                        "value": 0
                    },
                    {
                        "number": 64,
                        "time": 97.23111204375003,
                        "value": 1
                    },
                    {
                        "number": 64,
                        "time": 97.71009393750003,
                        "value": 0
                    },
                    {
                        "number": 64,
                        "time": 97.78199653125003,
                        "value": 1
                    },
                    {
                        "number": 64,
                        "time": 98.24106693750004,
                        "value": 0
                    },
                    {
                        "number": 64,
                        "time": 98.34394295625003,
                        "value": 1
                    },
                    {
                        "number": 64,
                        "time": 98.82403104375003,
                        "value": 0
                    },
                    {
                        "number": 64,
                        "time": 98.92469467500003,
                        "value": 1
                    },
                    {
                        "number": 64,
                        "time": 99.30301293750003,
                        "value": 0
                    },
                    {
                        "number": 64,
                        "time": 99.38044650000003,
                        "value": 1
                    },
                    {
                        "number": 64,
                        "time": 99.83177355000004,
                        "value": 0
                    },
                    {
                        "number": 64,
                        "time": 99.86717175000004,
                        "value": 1
                    },
                    {
                        "number": 64,
                        "time": 100.36385274375004,
                        "value": 0
                    },
                    {
                        "number": 64,
                        "time": 100.42358720625005,
                        "value": 1
                    },
                    {
                        "number": 64,
                        "time": 100.89593193750005,
                        "value": 0
                    },
                    {
                        "number": 64,
                        "time": 101.01761325000005,
                        "value": 1
                    },
                    {
                        "number": 64,
                        "time": 101.42690493750005,
                        "value": 0
                    },
                    {
                        "number": 64,
                        "time": 101.50433850000006,
                        "value": 1
                    },
                    {
                        "number": 64,
                        "time": 101.95677174375005,
                        "value": 0
                    },
                    {
                        "number": 64,
                        "time": 101.98663897500005,
                        "value": 1
                    },
                    {
                        "number": 64,
                        "time": 102.48885093750005,
                        "value": 0
                    },
                    {
                        "number": 64,
                        "time": 102.55632875625005,
                        "value": 1
                    },
                    {
                        "number": 64,
                        "time": 103.01982393750005,
                        "value": 0
                    },
                    {
                        "number": 64,
                        "time": 103.10278846875005,
                        "value": 1
                    },
                    {
                        "number": 64,
                        "time": 103.53973500000005,
                        "value": 0
                    },
                    {
                        "number": 64,
                        "time": 105.07845050625005,
                        "value": 1
                    },
                    {
                        "number": 64,
                        "time": 105.60389253750004,
                        "value": 0
                    },
                    {
                        "number": 64,
                        "time": 105.68575087500004,
                        "value": 1
                    },
                    {
                        "number": 64,
                        "time": 106.13375934375004,
                        "value": 0
                    },
                    {
                        "number": 64,
                        "time": 106.17911328750004,
                        "value": 1
                    },
                    {
                        "number": 64,
                        "time": 106.72557300000004,
                        "value": 0
                    },
                    {
                        "number": 64,
                        "time": 106.82734282500004,
                        "value": 1
                    },
                    {
                        "number": 64,
                        "time": 107.26650174375004,
                        "value": 0
                    },
                    {
                        "number": 64,
                        "time": 107.35057246875004,
                        "value": 1
                    },
                    {
                        "number": 64,
                        "time": 107.79526235625005,
                        "value": 0
                    },
                    {
                        "number": 64,
                        "time": 107.92800560625005,
                        "value": 1
                    },
                    {
                        "number": 64,
                        "time": 108.32955393750005,
                        "value": 0
                    },
                    {
                        "number": 64,
                        "time": 108.38928840000005,
                        "value": 1
                    },
                    {
                        "number": 64,
                        "time": 108.85720835625006,
                        "value": 0
                    },
                    {
                        "number": 64,
                        "time": 108.92026140000006,
                        "value": 1
                    },
                    {
                        "number": 64,
                        "time": 109.39039374375005,
                        "value": 0
                    },
                    {
                        "number": 64,
                        "time": 109.52092460625005,
                        "value": 1
                    },
                    {
                        "number": 64,
                        "time": 109.92357913125005,
                        "value": 0
                    },
                    {
                        "number": 64,
                        "time": 109.99548172500005,
                        "value": 1
                    },
                    {
                        "number": 64,
                        "time": 110.45344593750005,
                        "value": 0
                    },
                    {
                        "number": 64,
                        "time": 110.53641046875005,
                        "value": 1
                    },
                    {
                        "number": 64,
                        "time": 110.98441893750005,
                        "value": 0
                    },
                    {
                        "number": 64,
                        "time": 111.04415340000006,
                        "value": 1
                    },
                    {
                        "number": 64,
                        "time": 111.50433000000005,
                        "value": 0
                    },
                    {
                        "number": 64,
                        "time": 111.61826795625005,
                        "value": 1
                    },
                    {
                        "number": 64,
                        "time": 112.04415255000005,
                        "value": 0
                    },
                    {
                        "number": 64,
                        "time": 112.14924095625005,
                        "value": 1
                    },
                    {
                        "number": 64,
                        "time": 112.57070077500005,
                        "value": 0
                    },
                    {
                        "number": 64,
                        "time": 112.67136440625005,
                        "value": 1
                    },
                    {
                        "number": 64,
                        "time": 113.09724900000005,
                        "value": 0
                    },
                    {
                        "number": 64,
                        "time": 113.19901882500005,
                        "value": 1
                    },
                    {
                        "number": 64,
                        "time": 113.63817774375005,
                        "value": 0
                    },
                    {
                        "number": 64,
                        "time": 113.72224846875005,
                        "value": 1
                    },
                    {
                        "number": 64,
                        "time": 114.16693835625006,
                        "value": 0
                    },
                    {
                        "number": 64,
                        "time": 114.29968160625006,
                        "value": 1
                    },
                    {
                        "number": 64,
                        "time": 114.70122993750006,
                        "value": 0
                    },
                    {
                        "number": 64,
                        "time": 114.76096440000006,
                        "value": 1
                    },
                    {
                        "number": 64,
                        "time": 115.22888435625006,
                        "value": 0
                    },
                    {
                        "number": 64,
                        "time": 115.29193740000007,
                        "value": 1
                    },
                    {
                        "number": 64,
                        "time": 115.76206974375006,
                        "value": 0
                    },
                    {
                        "number": 64,
                        "time": 115.89260060625006,
                        "value": 1
                    },
                    {
                        "number": 64,
                        "time": 116.29525513125006,
                        "value": 0
                    },
                    {
                        "number": 64,
                        "time": 116.36715772500006,
                        "value": 1
                    },
                    {
                        "number": 64,
                        "time": 116.82512193750006,
                        "value": 0
                    },
                    {
                        "number": 64,
                        "time": 116.90808646875006,
                        "value": 1
                    },
                    {
                        "number": 64,
                        "time": 117.35609493750006,
                        "value": 0
                    },
                    {
                        "number": 64,
                        "time": 117.41582940000006,
                        "value": 1
                    },
                    {
                        "number": 64,
                        "time": 117.87600600000006,
                        "value": 0
                    },
                    {
                        "number": 64,
                        "time": 117.98994395625006,
                        "value": 1
                    },
                    {
                        "number": 64,
                        "time": 118.41582855000006,
                        "value": 0
                    },
                    {
                        "number": 64,
                        "time": 118.52091695625006,
                        "value": 1
                    },
                    {
                        "number": 64,
                        "time": 118.94237677500006,
                        "value": 0
                    },
                    {
                        "number": 64,
                        "time": 119.04304040625006,
                        "value": 1
                    },
                    {
                        "number": 64,
                        "time": 119.40587195625005,
                        "value": 0
                    },
                    {
                        "number": 64,
                        "time": 119.50764178125006,
                        "value": 1
                    },
                    {
                        "number": 64,
                        "time": 120.53640196875006,
                        "value": 0
                    },
                    {
                        "number": 64,
                        "time": 122.13374574375005,
                        "value": 0
                    },
                    {
                        "number": 64,
                        "time": 122.28861286875005,
                        "value": 1
                    },
                    {
                        "number": 64,
                        "time": 122.65476300000005,
                        "value": 0
                    },
                    {
                        "number": 64,
                        "time": 124.29082355625005,
                        "value": 1
                    },
                    {
                        "number": 64,
                        "time": 125.31847755000004,
                        "value": 0
                    },
                    {
                        "number": 64,
                        "time": 125.39148633750004,
                        "value": 1
                    },
                    {
                        "number": 64,
                        "time": 125.85166293750004,
                        "value": 0
                    },
                    {
                        "number": 64,
                        "time": 125.95011418125004,
                        "value": 1
                    },
                    {
                        "number": 64,
                        "time": 126.38042355000005,
                        "value": 0
                    },
                    {
                        "number": 64,
                        "time": 126.45011375625005,
                        "value": 1
                    },
                    {
                        "number": 64,
                        "time": 126.65254721250005,
                        "value": 0
                    },
                    {
                        "number": 64,
                        "time": 127.48882968750006,
                        "value": 1
                    },
                    {
                        "number": 64,
                        "time": 127.97776732500006,
                        "value": 0
                    },
                    {
                        "number": 64,
                        "time": 128.05851946875006,
                        "value": 1
                    },
                    {
                        "number": 64,
                        "time": 128.91692581875006,
                        "value": 0
                    },
                    {
                        "number": 64,
                        "time": 129.75984545625005,
                        "value": 1
                    },
                    {
                        "number": 64,
                        "time": 130.61935800000003,
                        "value": 0
                    },
                    {
                        "number": 64,
                        "time": 132.27533004375005,
                        "value": 1
                    },
                    {
                        "number": 64,
                        "time": 132.74988716250004,
                        "value": 0
                    },
                    {
                        "number": 64,
                        "time": 132.84391363125005,
                        "value": 1
                    },
                    {
                        "number": 64,
                        "time": 133.28528493750005,
                        "value": 0
                    },
                    {
                        "number": 64,
                        "time": 133.39922289375005,
                        "value": 1
                    },
                    {
                        "number": 64,
                        "time": 133.81515174375005,
                        "value": 0
                    },
                    {
                        "number": 64,
                        "time": 133.97776222500005,
                        "value": 1
                    },
                    {
                        "number": 64,
                        "time": 134.34391235625006,
                        "value": 0
                    },
                    {
                        "number": 64,
                        "time": 134.47665560625006,
                        "value": 1
                    },
                    {
                        "number": 64,
                        "time": 134.87709774375006,
                        "value": 0
                    },
                    {
                        "number": 64,
                        "time": 134.99214189375004,
                        "value": 1
                    },
                    {
                        "number": 64,
                        "time": 135.40475216250005,
                        "value": 0
                    },
                    {
                        "number": 64,
                        "time": 135.56293786875005,
                        "value": 1
                    },
                    {
                        "number": 64,
                        "time": 135.93683135625005,
                        "value": 0
                    },
                    {
                        "number": 64,
                        "time": 136.03085782500006,
                        "value": 1
                    },
                    {
                        "number": 64,
                        "time": 136.46669816250005,
                        "value": 0
                    },
                    {
                        "number": 64,
                        "time": 136.58727328125005,
                        "value": 1
                    },
                    {
                        "number": 64,
                        "time": 136.99103400000004,
                        "value": 0
                    },
                    {
                        "number": 64,
                        "time": 138.63262552500004,
                        "value": 1
                    },
                    {
                        "number": 64,
                        "time": 138.99545707500005,
                        "value": 0
                    },
                    {
                        "number": 64,
                        "time": 140.31735860625005,
                        "value": 1
                    },
                    {
                        "number": 64,
                        "time": 141.24656135625006,
                        "value": 0
                    },
                    {
                        "number": 64,
                        "time": 141.83284404375004,
                        "value": 1
                    },
                    {
                        "number": 64,
                        "time": 142.31182593750003,
                        "value": 0
                    },
                    {
                        "number": 64,
                        "time": 142.38372853125003,
                        "value": 1
                    },
                    {
                        "number": 64,
                        "time": 142.84279893750002,
                        "value": 0
                    },
                    {
                        "number": 64,
                        "time": 142.94567495625003,
                        "value": 1
                    },
                    {
                        "number": 64,
                        "time": 143.42576304375004,
                        "value": 0
                    },
                    {
                        "number": 64,
                        "time": 143.52642667500004,
                        "value": 1
                    },
                    {
                        "number": 64,
                        "time": 143.90474493750003,
                        "value": 0
                    },
                    {
                        "number": 64,
                        "time": 145.01868204375003,
                        "value": 1
                    },
                    {
                        "number": 64,
                        "time": 145.49766393750002,
                        "value": 0
                    },
                    {
                        "number": 64,
                        "time": 145.56956653125002,
                        "value": 1
                    },
                    {
                        "number": 64,
                        "time": 146.0286369375,
                        "value": 0
                    },
                    {
                        "number": 64,
                        "time": 146.13151295625002,
                        "value": 1
                    },
                    {
                        "number": 64,
                        "time": 146.61160104375003,
                        "value": 0
                    },
                    {
                        "number": 64,
                        "time": 146.71226467500003,
                        "value": 1
                    },
                    {
                        "number": 64,
                        "time": 147.09058293750002,
                        "value": 0
                    },
                    {
                        "number": 64,
                        "time": 147.16801650000002,
                        "value": 1
                    },
                    {
                        "number": 64,
                        "time": 147.61934355000002,
                        "value": 0
                    },
                    {
                        "number": 64,
                        "time": 147.65474175000003,
                        "value": 1
                    },
                    {
                        "number": 64,
                        "time": 148.15142274375003,
                        "value": 0
                    },
                    {
                        "number": 64,
                        "time": 148.21115720625002,
                        "value": 1
                    },
                    {
                        "number": 64,
                        "time": 148.6835019375,
                        "value": 0
                    },
                    {
                        "number": 64,
                        "time": 148.80518325,
                        "value": 1
                    },
                    {
                        "number": 64,
                        "time": 149.2144749375,
                        "value": 0
                    },
                    {
                        "number": 64,
                        "time": 149.2919085,
                        "value": 1
                    },
                    {
                        "number": 64,
                        "time": 149.74434174375,
                        "value": 0
                    },
                    {
                        "number": 64,
                        "time": 149.774208975,
                        "value": 1
                    },
                    {
                        "number": 64,
                        "time": 150.2764209375,
                        "value": 0
                    },
                    {
                        "number": 64,
                        "time": 150.34389875625,
                        "value": 1
                    },
                    {
                        "number": 64,
                        "time": 150.80739393750002,
                        "value": 0
                    },
                    {
                        "number": 64,
                        "time": 150.89035846875004,
                        "value": 1
                    },
                    {
                        "number": 64,
                        "time": 151.32730500000002,
                        "value": 0
                    },
                    {
                        "number": 64,
                        "time": 154.513143,
                        "value": 1
                    },
                    {
                        "number": 64,
                        "time": 156.106062,
                        "value": 0
                    },
                    {
                        "number": 64,
                        "time": 156.24654860625,
                        "value": 1
                    },
                    {
                        "number": 64,
                        "time": 156.64809693750001,
                        "value": 0
                    },
                    {
                        "number": 64,
                        "time": 156.8250879375,
                        "value": 1
                    },
                    {
                        "number": 64,
                        "time": 157.1790699375,
                        "value": 0
                    },
                    {
                        "number": 64,
                        "time": 157.340574225,
                        "value": 1
                    },
                    {
                        "number": 64,
                        "time": 157.698981,
                        "value": 0
                    },
                    {
                        "number": 64,
                        "time": 157.85495431875,
                        "value": 1
                    },
                    {
                        "number": 64,
                        "time": 158.2410159375,
                        "value": 0
                    },
                    {
                        "number": 64,
                        "time": 158.37044060625,
                        "value": 1
                    },
                    {
                        "number": 64,
                        "time": 158.77198893750003,
                        "value": 0
                    },
                    {
                        "number": 64,
                        "time": 158.97995336250003,
                        "value": 1
                    },
                    {
                        "number": 64,
                        "time": 159.29190000000003,
                        "value": 0
                    },
                    {
                        "number": 64,
                        "time": 159.46446622500002,
                        "value": 1
                    },
                    {
                        "number": 64,
                        "time": 159.83393493750003,
                        "value": 0
                    },
                    {
                        "number": 64,
                        "time": 160.01092593750002,
                        "value": 1
                    },
                    {
                        "number": 64,
                        "time": 160.36490793750002,
                        "value": 0
                    },
                    {
                        "number": 64,
                        "time": 160.52641222500003,
                        "value": 1
                    },
                    {
                        "number": 64,
                        "time": 160.88481900000002,
                        "value": 0
                    },
                    {
                        "number": 64,
                        "time": 161.04079231875002,
                        "value": 1
                    },
                    {
                        "number": 64,
                        "time": 161.42685393750003,
                        "value": 0
                    },
                    {
                        "number": 64,
                        "time": 161.55627860625003,
                        "value": 1
                    },
                    {
                        "number": 64,
                        "time": 161.95782693750004,
                        "value": 0
                    },
                    {
                        "number": 64,
                        "time": 162.16579136250004,
                        "value": 1
                    },
                    {
                        "number": 64,
                        "time": 162.47773800000004,
                        "value": 0
                    },
                    {
                        "number": 64,
                        "time": 162.65030422500004,
                        "value": 1
                    },
                    {
                        "number": 64,
                        "time": 163.02198532500003,
                        "value": 0
                    },
                    {
                        "number": 64,
                        "time": 164.17242682500003,
                        "value": 1
                    },
                    {
                        "number": 64,
                        "time": 164.61158574375003,
                        "value": 0
                    },
                    {
                        "number": 64,
                        "time": 164.69012550000002,
                        "value": 1
                    },
                    {
                        "number": 64,
                        "time": 165.14366493750003,
                        "value": 0
                    },
                    {
                        "number": 64,
                        "time": 165.28415154375003,
                        "value": 1
                    },
                    {
                        "number": 64,
                        "time": 165.66910696875001,
                        "value": 0
                    },
                    {
                        "number": 64,
                        "time": 165.71114233125002,
                        "value": 1
                    },
                    {
                        "number": 64,
                        "time": 166.2056109375,
                        "value": 0
                    },
                    {
                        "number": 64,
                        "time": 166.260920625,
                        "value": 1
                    },
                    {
                        "number": 64,
                        "time": 166.7365839375,
                        "value": 0
                    },
                    {
                        "number": 64,
                        "time": 166.78857504375,
                        "value": 1
                    },
                    {
                        "number": 64,
                        "time": 167.2675569375,
                        "value": 0
                    },
                    {
                        "number": 64,
                        "time": 167.29742416874998,
                        "value": 1
                    },
                    {
                        "number": 64,
                        "time": 167.79852993749998,
                        "value": 0
                    },
                    {
                        "number": 64,
                        "time": 167.84499007499997,
                        "value": 1
                    },
                    {
                        "number": 64,
                        "time": 168.32950293749997,
                        "value": 0
                    },
                    {
                        "number": 64,
                        "time": 168.37596307499996,
                        "value": 1
                    },
                    {
                        "number": 64,
                        "time": 168.86047593749996,
                        "value": 0
                    },
                    {
                        "number": 64,
                        "time": 168.97662628124996,
                        "value": 1
                    },
                    {
                        "number": 64,
                        "time": 169.38370558124996,
                        "value": 0
                    },
                    {
                        "number": 64,
                        "time": 170.55184618124994,
                        "value": 1
                    },
                    {
                        "number": 64,
                        "time": 170.98436793749994,
                        "value": 0
                    },
                    {
                        "number": 64,
                        "time": 171.16135893749993,
                        "value": 1
                    },
                    {
                        "number": 64,
                        "time": 171.51534093749993,
                        "value": 0
                    },
                    {
                        "number": 64,
                        "time": 171.66025231874994,
                        "value": 1
                    },
                    {
                        "number": 64,
                        "time": 172.03525199999993,
                        "value": 0
                    },
                    {
                        "number": 64,
                        "time": 172.19122531874993,
                        "value": 1
                    },
                    {
                        "number": 64,
                        "time": 172.56954358124992,
                        "value": 0
                    },
                    {
                        "number": 64,
                        "time": 173.7376841812499,
                        "value": 1
                    },
                    {
                        "number": 64,
                        "time": 174.1702059374999,
                        "value": 0
                    },
                    {
                        "number": 64,
                        "time": 174.3471969374999,
                        "value": 1
                    },
                    {
                        "number": 64,
                        "time": 174.7011789374999,
                        "value": 0
                    },
                    {
                        "number": 64,
                        "time": 174.8460903187499,
                        "value": 1
                    },
                    {
                        "number": 64,
                        "time": 175.2210899999999,
                        "value": 0
                    },
                    {
                        "number": 64,
                        "time": 175.3770633187499,
                        "value": 1
                    },
                    {
                        "number": 64,
                        "time": 175.7631249374999,
                        "value": 0
                    },
                    {
                        "number": 64,
                        "time": 175.88480624999988,
                        "value": 1
                    },
                    {
                        "number": 64,
                        "time": 176.29409793749988,
                        "value": 0
                    },
                    {
                        "number": 64,
                        "time": 176.41577924999987,
                        "value": 1
                    },
                    {
                        "number": 64,
                        "time": 176.82507093749987,
                        "value": 0
                    },
                    {
                        "number": 64,
                        "time": 176.94675224999986,
                        "value": 1
                    },
                    {
                        "number": 64,
                        "time": 177.35604393749986,
                        "value": 0
                    },
                    {
                        "number": 64,
                        "time": 177.47219428124987,
                        "value": 1
                    },
                    {
                        "number": 64,
                        "time": 177.88701693749988,
                        "value": 0
                    },
                    {
                        "number": 64,
                        "time": 178.02750354374987,
                        "value": 1
                    },
                    {
                        "number": 64,
                        "time": 178.41798993749987,
                        "value": 0
                    },
                    {
                        "number": 64,
                        "time": 178.54630841249985,
                        "value": 1
                    },
                    {
                        "number": 64,
                        "time": 178.95117532499987,
                        "value": 0
                    },
                    {
                        "number": 64,
                        "time": 180.14033360624987,
                        "value": 1
                    },
                    {
                        "number": 64,
                        "time": 181.59276599999987,
                        "value": 0
                    },
                    {
                        "number": 64,
                        "time": 181.73325260624986,
                        "value": 1
                    },
                    {
                        "number": 64,
                        "time": 182.13480093749988,
                        "value": 0
                    },
                    {
                        "number": 64,
                        "time": 182.31179193749986,
                        "value": 1
                    },
                    {
                        "number": 64,
                        "time": 182.66577393749986,
                        "value": 0
                    },
                    {
                        "number": 64,
                        "time": 182.82727822499987,
                        "value": 1
                    },
                    {
                        "number": 64,
                        "time": 183.18568499999986,
                        "value": 0
                    },
                    {
                        "number": 64,
                        "time": 183.34165831874986,
                        "value": 1
                    },
                    {
                        "number": 64,
                        "time": 183.72771993749987,
                        "value": 0
                    },
                    {
                        "number": 64,
                        "time": 183.85714460624988,
                        "value": 1
                    },
                    {
                        "number": 64,
                        "time": 184.2586929374999,
                        "value": 0
                    },
                    {
                        "number": 64,
                        "time": 184.4666573624999,
                        "value": 1
                    },
                    {
                        "number": 64,
                        "time": 184.7786039999999,
                        "value": 0
                    },
                    {
                        "number": 64,
                        "time": 184.95117022499988,
                        "value": 1
                    },
                    {
                        "number": 64,
                        "time": 185.3206389374999,
                        "value": 0
                    },
                    {
                        "number": 64,
                        "time": 185.49762993749988,
                        "value": 1
                    },
                    {
                        "number": 64,
                        "time": 185.85161193749988,
                        "value": 0
                    },
                    {
                        "number": 64,
                        "time": 186.0131162249999,
                        "value": 1
                    },
                    {
                        "number": 64,
                        "time": 186.37152299999988,
                        "value": 0
                    },
                    {
                        "number": 64,
                        "time": 186.52749631874988,
                        "value": 1
                    },
                    {
                        "number": 64,
                        "time": 186.9135579374999,
                        "value": 0
                    },
                    {
                        "number": 64,
                        "time": 187.0429826062499,
                        "value": 1
                    },
                    {
                        "number": 64,
                        "time": 187.4445309374999,
                        "value": 0
                    },
                    {
                        "number": 64,
                        "time": 187.6524953624999,
                        "value": 1
                    },
                    {
                        "number": 64,
                        "time": 187.9644419999999,
                        "value": 0
                    },
                    {
                        "number": 64,
                        "time": 188.1370082249999,
                        "value": 1
                    },
                    {
                        "number": 64,
                        "time": 188.5086893249999,
                        "value": 0
                    },
                    {
                        "number": 64,
                        "time": 189.6591308249999,
                        "value": 1
                    },
                    {
                        "number": 64,
                        "time": 190.0982897437499,
                        "value": 0
                    },
                    {
                        "number": 64,
                        "time": 190.17682949999988,
                        "value": 1
                    },
                    {
                        "number": 64,
                        "time": 190.6303689374999,
                        "value": 0
                    },
                    {
                        "number": 64,
                        "time": 190.7708555437499,
                        "value": 1
                    },
                    {
                        "number": 64,
                        "time": 191.15581096874988,
                        "value": 0
                    },
                    {
                        "number": 64,
                        "time": 191.19784633124988,
                        "value": 1
                    },
                    {
                        "number": 64,
                        "time": 191.69231493749987,
                        "value": 0
                    },
                    {
                        "number": 64,
                        "time": 191.74762462499987,
                        "value": 1
                    },
                    {
                        "number": 64,
                        "time": 192.22328793749986,
                        "value": 0
                    },
                    {
                        "number": 64,
                        "time": 192.27527904374986,
                        "value": 1
                    },
                    {
                        "number": 64,
                        "time": 192.75426093749985,
                        "value": 0
                    },
                    {
                        "number": 64,
                        "time": 192.78412816874985,
                        "value": 1
                    },
                    {
                        "number": 64,
                        "time": 193.28523393749984,
                        "value": 0
                    },
                    {
                        "number": 64,
                        "time": 193.33169407499983,
                        "value": 1
                    },
                    {
                        "number": 64,
                        "time": 193.81620693749983,
                        "value": 0
                    },
                    {
                        "number": 64,
                        "time": 193.86266707499982,
                        "value": 1
                    },
                    {
                        "number": 64,
                        "time": 194.34717993749982,
                        "value": 0
                    },
                    {
                        "number": 64,
                        "time": 194.46333028124982,
                        "value": 1
                    },
                    {
                        "number": 64,
                        "time": 194.87262196874983,
                        "value": 0
                    },
                    {
                        "number": 64,
                        "time": 196.03855018124983,
                        "value": 1
                    },
                    {
                        "number": 64,
                        "time": 196.47107193749983,
                        "value": 0
                    },
                    {
                        "number": 64,
                        "time": 196.64806293749982,
                        "value": 1
                    },
                    {
                        "number": 64,
                        "time": 197.00204493749982,
                        "value": 0
                    },
                    {
                        "number": 64,
                        "time": 197.14695631874983,
                        "value": 1
                    },
                    {
                        "number": 64,
                        "time": 197.52195599999982,
                        "value": 0
                    },
                    {
                        "number": 64,
                        "time": 197.67792931874982,
                        "value": 1
                    },
                    {
                        "number": 64,
                        "time": 198.0562475812498,
                        "value": 0
                    },
                    {
                        "number": 64,
                        "time": 199.2243881812498,
                        "value": 1
                    },
                    {
                        "number": 64,
                        "time": 199.6569099374998,
                        "value": 0
                    },
                    {
                        "number": 64,
                        "time": 199.83390093749978,
                        "value": 1
                    },
                    {
                        "number": 64,
                        "time": 200.18788293749978,
                        "value": 0
                    },
                    {
                        "number": 64,
                        "time": 200.3327943187498,
                        "value": 1
                    },
                    {
                        "number": 64,
                        "time": 200.70779399999978,
                        "value": 0
                    },
                    {
                        "number": 64,
                        "time": 200.86376731874978,
                        "value": 1
                    },
                    {
                        "number": 64,
                        "time": 201.24982893749979,
                        "value": 0
                    },
                    {
                        "number": 64,
                        "time": 201.37151024999977,
                        "value": 1
                    },
                    {
                        "number": 64,
                        "time": 201.78080193749977,
                        "value": 0
                    },
                    {
                        "number": 64,
                        "time": 201.90248324999976,
                        "value": 1
                    },
                    {
                        "number": 64,
                        "time": 202.31177493749976,
                        "value": 0
                    },
                    {
                        "number": 64,
                        "time": 202.43345624999975,
                        "value": 1
                    },
                    {
                        "number": 64,
                        "time": 202.84274793749975,
                        "value": 0
                    },
                    {
                        "number": 64,
                        "time": 202.95889828124976,
                        "value": 1
                    },
                    {
                        "number": 64,
                        "time": 203.37372093749977,
                        "value": 0
                    },
                    {
                        "number": 64,
                        "time": 203.51420754374976,
                        "value": 1
                    },
                    {
                        "number": 64,
                        "time": 203.90469393749976,
                        "value": 0
                    },
                    {
                        "number": 64,
                        "time": 204.03301241249974,
                        "value": 1
                    },
                    {
                        "number": 64,
                        "time": 204.43787932499976,
                        "value": 0
                    },
                    {
                        "number": 64,
                        "time": 205.61929424999977,
                        "value": 1
                    },
                    {
                        "number": 64,
                        "time": 207.07946999999976,
                        "value": 0
                    },
                    {
                        "number": 64,
                        "time": 207.21995660624975,
                        "value": 1
                    },
                    {
                        "number": 64,
                        "time": 207.62150493749976,
                        "value": 0
                    },
                    {
                        "number": 64,
                        "time": 207.73765528124977,
                        "value": 1
                    },
                    {
                        "number": 64,
                        "time": 208.15247793749978,
                        "value": 0
                    },
                    {
                        "number": 64,
                        "time": 208.28079641249977,
                        "value": 1
                    },
                    {
                        "number": 64,
                        "time": 208.68345093749977,
                        "value": 0
                    },
                    {
                        "number": 64,
                        "time": 208.78632695624978,
                        "value": 1
                    },
                    {
                        "number": 64,
                        "time": 209.2144239374998,
                        "value": 0
                    },
                    {
                        "number": 64,
                        "time": 209.35491054374978,
                        "value": 1
                    },
                    {
                        "number": 64,
                        "time": 209.74539693749978,
                        "value": 0
                    },
                    {
                        "number": 64,
                        "time": 209.86154728124978,
                        "value": 1
                    },
                    {
                        "number": 64,
                        "time": 210.26862658124978,
                        "value": 0
                    },
                    {
                        "number": 64,
                        "time": 210.46774145624977,
                        "value": 1
                    },
                    {
                        "number": 64,
                        "time": 210.84716591249978,
                        "value": 0
                    },
                    {
                        "number": 64,
                        "time": 212.4478282687498,
                        "value": 1
                    },
                    {
                        "number": 64,
                        "time": 213.8648624624998,
                        "value": 0
                    },
                    {
                        "number": 64,
                        "time": 215.6026928437498,
                        "value": 1
                    },
                    {
                        "number": 64,
                        "time": 216.9765854812498,
                        "value": 0
                    },
                    {
                        "number": 64,
                        "time": 218.2299029999998,
                        "value": 1
                    },
                    {
                        "number": 64,
                        "time": 219.3018047437498,
                        "value": 0
                    },
                    {
                        "number": 64,
                        "time": 219.39472501874982,
                        "value": 1
                    },
                    {
                        "number": 64,
                        "time": 219.83277774374983,
                        "value": 0
                    },
                    {
                        "number": 64,
                        "time": 219.97437054374984,
                        "value": 1
                    },
                    {
                        "number": 64,
                        "time": 220.89582993749985,
                        "value": 0
                    },
                    {
                        "number": 64,
                        "time": 220.97326349999986,
                        "value": 1
                    },
                    {
                        "number": 64,
                        "time": 221.42790913124986,
                        "value": 0
                    },
                    {
                        "number": 64,
                        "time": 221.56728954374987,
                        "value": 1
                    },
                    {
                        "number": 64,
                        "time": 222.48432416249986,
                        "value": 0
                    },
                    {
                        "number": 64,
                        "time": 222.60489928124986,
                        "value": 1
                    },
                    {
                        "number": 64,
                        "time": 223.01972193749987,
                        "value": 0
                    },
                    {
                        "number": 64,
                        "time": 223.11042982499987,
                        "value": 1
                    },
                    {
                        "number": 64,
                        "time": 224.61264093749986,
                        "value": 0
                    },
                    {
                        "number": 64,
                        "time": 224.68011875624987,
                        "value": 1
                    },
                    {
                        "number": 64,
                        "time": 226.20555993749986,
                        "value": 0
                    },
                    {
                        "number": 64,
                        "time": 226.31949789374985,
                        "value": 1
                    },
                    {
                        "number": 64,
                        "time": 227.78741699999986,
                        "value": 0
                    },
                    {
                        "number": 64,
                        "time": 230.97325499999985,
                        "value": 0
                    },
                    {
                        "number": 64,
                        "time": 237.34493099999986,
                        "value": 1
                    },
                    {
                        "number": 64,
                        "time": 238.93784999999986,
                        "value": 0
                    },
                    {
                        "number": 64,
                        "time": 239.07833660624985,
                        "value": 1
                    },
                    {
                        "number": 64,
                        "time": 239.47988493749986,
                        "value": 0
                    },
                    {
                        "number": 64,
                        "time": 239.65687593749985,
                        "value": 1
                    },
                    {
                        "number": 64,
                        "time": 240.01085793749985,
                        "value": 0
                    },
                    {
                        "number": 64,
                        "time": 240.17236222499986,
                        "value": 1
                    },
                    {
                        "number": 64,
                        "time": 240.53076899999985,
                        "value": 0
                    },
                    {
                        "number": 64,
                        "time": 240.68674231874985,
                        "value": 1
                    },
                    {
                        "number": 64,
                        "time": 241.07280393749986,
                        "value": 0
                    },
                    {
                        "number": 64,
                        "time": 241.20222860624986,
                        "value": 1
                    },
                    {
                        "number": 64,
                        "time": 241.60377693749987,
                        "value": 0
                    },
                    {
                        "number": 64,
                        "time": 241.81174136249987,
                        "value": 1
                    },
                    {
                        "number": 64,
                        "time": 242.12368799999987,
                        "value": 0
                    },
                    {
                        "number": 64,
                        "time": 242.26417460624987,
                        "value": 1
                    },
                    {
                        "number": 64,
                        "time": 242.66572293749988,
                        "value": 0
                    },
                    {
                        "number": 64,
                        "time": 242.84271393749987,
                        "value": 1
                    },
                    {
                        "number": 64,
                        "time": 243.19669593749987,
                        "value": 0
                    },
                    {
                        "number": 64,
                        "time": 243.35820022499988,
                        "value": 1
                    },
                    {
                        "number": 64,
                        "time": 243.71660699999987,
                        "value": 0
                    },
                    {
                        "number": 64,
                        "time": 243.87258031874987,
                        "value": 1
                    },
                    {
                        "number": 64,
                        "time": 244.25864193749987,
                        "value": 0
                    },
                    {
                        "number": 64,
                        "time": 244.38806660624988,
                        "value": 1
                    },
                    {
                        "number": 64,
                        "time": 244.7896149374999,
                        "value": 0
                    },
                    {
                        "number": 64,
                        "time": 244.9975793624999,
                        "value": 1
                    },
                    {
                        "number": 64,
                        "time": 245.3095259999999,
                        "value": 0
                    },
                    {
                        "number": 64,
                        "time": 245.45001260624989,
                        "value": 1
                    },
                    {
                        "number": 64,
                        "time": 245.8515609374999,
                        "value": 0
                    },
                    {
                        "number": 64,
                        "time": 246.02855193749988,
                        "value": 1
                    },
                    {
                        "number": 64,
                        "time": 246.3825339374999,
                        "value": 0
                    },
                    {
                        "number": 64,
                        "time": 246.5440382249999,
                        "value": 1
                    },
                    {
                        "number": 64,
                        "time": 246.9024449999999,
                        "value": 0
                    },
                    {
                        "number": 64,
                        "time": 247.0584183187499,
                        "value": 1
                    },
                    {
                        "number": 64,
                        "time": 247.4444799374999,
                        "value": 0
                    },
                    {
                        "number": 64,
                        "time": 247.5739046062499,
                        "value": 1
                    },
                    {
                        "number": 64,
                        "time": 247.9754529374999,
                        "value": 0
                    },
                    {
                        "number": 64,
                        "time": 248.1834173624999,
                        "value": 1
                    },
                    {
                        "number": 64,
                        "time": 248.4953639999999,
                        "value": 0
                    },
                    {
                        "number": 64,
                        "time": 248.6358506062499,
                        "value": 1
                    },
                    {
                        "number": 64,
                        "time": 249.03739893749992,
                        "value": 0
                    },
                    {
                        "number": 64,
                        "time": 249.2143899374999,
                        "value": 1
                    },
                    {
                        "number": 64,
                        "time": 249.5683719374999,
                        "value": 0
                    },
                    {
                        "number": 64,
                        "time": 249.7298762249999,
                        "value": 1
                    },
                    {
                        "number": 64,
                        "time": 250.0882829999999,
                        "value": 0
                    },
                    {
                        "number": 64,
                        "time": 250.2442563187499,
                        "value": 1
                    },
                    {
                        "number": 64,
                        "time": 250.6303179374999,
                        "value": 0
                    },
                    {
                        "number": 64,
                        "time": 250.75974260624992,
                        "value": 1
                    },
                    {
                        "number": 64,
                        "time": 251.16129093749993,
                        "value": 0
                    },
                    {
                        "number": 64,
                        "time": 251.36925536249993,
                        "value": 1
                    },
                    {
                        "number": 64,
                        "time": 251.68120199999993,
                        "value": 0
                    },
                    {
                        "number": 64,
                        "time": 251.82168860624992,
                        "value": 1
                    },
                    {
                        "number": 64,
                        "time": 252.21549358124992,
                        "value": 0
                    },
                    {
                        "number": 64,
                        "time": 253.3836341812499,
                        "value": 1
                    },
                    {
                        "number": 64,
                        "time": 253.8161559374999,
                        "value": 0
                    },
                    {
                        "number": 64,
                        "time": 253.9931469374999,
                        "value": 1
                    },
                    {
                        "number": 64,
                        "time": 254.3471289374999,
                        "value": 0
                    },
                    {
                        "number": 64,
                        "time": 254.4920403187499,
                        "value": 1
                    },
                    {
                        "number": 64,
                        "time": 254.8670399999999,
                        "value": 0
                    },
                    {
                        "number": 64,
                        "time": 255.0230133187499,
                        "value": 1
                    },
                    {
                        "number": 64,
                        "time": 255.4090749374999,
                        "value": 0
                    },
                    {
                        "number": 64,
                        "time": 256.5694721812499,
                        "value": 1
                    },
                    {
                        "number": 64,
                        "time": 257.00199393749995,
                        "value": 0
                    },
                    {
                        "number": 64,
                        "time": 257.17898493749993,
                        "value": 1
                    },
                    {
                        "number": 64,
                        "time": 257.5329669374999,
                        "value": 0
                    },
                    {
                        "number": 64,
                        "time": 257.6778783187499,
                        "value": 1
                    },
                    {
                        "number": 64,
                        "time": 258.0528779999999,
                        "value": 0
                    },
                    {
                        "number": 64,
                        "time": 258.2088513187499,
                        "value": 1
                    },
                    {
                        "number": 64,
                        "time": 258.5949129374999,
                        "value": 0
                    },
                    {
                        "number": 64,
                        "time": 258.7165942499999,
                        "value": 1
                    },
                    {
                        "number": 64,
                        "time": 259.1258859374999,
                        "value": 0
                    },
                    {
                        "number": 64,
                        "time": 259.2475672499999,
                        "value": 1
                    },
                    {
                        "number": 64,
                        "time": 259.6568589374999,
                        "value": 0
                    },
                    {
                        "number": 64,
                        "time": 259.77854024999993,
                        "value": 1
                    },
                    {
                        "number": 64,
                        "time": 260.18783193749994,
                        "value": 0
                    },
                    {
                        "number": 64,
                        "time": 260.30398228124994,
                        "value": 1
                    },
                    {
                        "number": 64,
                        "time": 260.71880493749995,
                        "value": 0
                    },
                    {
                        "number": 64,
                        "time": 260.85929154375,
                        "value": 1
                    },
                    {
                        "number": 64,
                        "time": 261.24977793749997,
                        "value": 0
                    },
                    {
                        "number": 64,
                        "time": 261.3780964125,
                        "value": 1
                    },
                    {
                        "number": 64,
                        "time": 261.78296332499997,
                        "value": 0
                    },
                    {
                        "number": 64,
                        "time": 262.96437825,
                        "value": 1
                    },
                    {
                        "number": 64,
                        "time": 264.424554,
                        "value": 0
                    },
                    {
                        "number": 64,
                        "time": 264.56504060625,
                        "value": 1
                    },
                    {
                        "number": 64,
                        "time": 264.96658893750003,
                        "value": 0
                    },
                    {
                        "number": 64,
                        "time": 265.08273928125004,
                        "value": 1
                    },
                    {
                        "number": 64,
                        "time": 265.49756193750005,
                        "value": 0
                    },
                    {
                        "number": 64,
                        "time": 265.62588041250007,
                        "value": 1
                    },
                    {
                        "number": 64,
                        "time": 266.02853493750007,
                        "value": 0
                    },
                    {
                        "number": 64,
                        "time": 266.1314109562501,
                        "value": 1
                    },
                    {
                        "number": 64,
                        "time": 266.5595079375001,
                        "value": 0
                    },
                    {
                        "number": 64,
                        "time": 266.6999945437501,
                        "value": 1
                    },
                    {
                        "number": 64,
                        "time": 267.0904809375001,
                        "value": 0
                    },
                    {
                        "number": 64,
                        "time": 267.2066312812501,
                        "value": 1
                    },
                    {
                        "number": 64,
                        "time": 267.61371058125013,
                        "value": 0
                    },
                    {
                        "number": 64,
                        "time": 267.81282545625015,
                        "value": 1
                    },
                    {
                        "number": 64,
                        "time": 268.19224991250013,
                        "value": 0
                    },
                    {
                        "number": 64,
                        "time": 269.7929122687501,
                        "value": 1
                    },
                    {
                        "number": 64,
                        "time": 271.2099464625001,
                        "value": 0
                    },
                    {
                        "number": 64,
                        "time": 272.9477768437501,
                        "value": 1
                    },
                    {
                        "number": 64,
                        "time": 274.32166948125007,
                        "value": 0
                    },
                    {
                        "number": 64,
                        "time": 275.5749870000001,
                        "value": 1
                    },
                    {
                        "number": 64,
                        "time": 276.6468887437501,
                        "value": 0
                    },
                    {
                        "number": 64,
                        "time": 276.73980901875007,
                        "value": 1
                    },
                    {
                        "number": 64,
                        "time": 277.17786174375004,
                        "value": 0
                    },
                    {
                        "number": 64,
                        "time": 277.31945454375006,
                        "value": 1
                    },
                    {
                        "number": 64,
                        "time": 278.24091393750007,
                        "value": 0
                    },
                    {
                        "number": 64,
                        "time": 278.3183475000001,
                        "value": 1
                    },
                    {
                        "number": 64,
                        "time": 278.7729931312501,
                        "value": 0
                    },
                    {
                        "number": 64,
                        "time": 278.91237354375005,
                        "value": 1
                    },
                    {
                        "number": 64,
                        "time": 279.82940816250004,
                        "value": 0
                    },
                    {
                        "number": 64,
                        "time": 279.94998328125007,
                        "value": 1
                    },
                    {
                        "number": 64,
                        "time": 280.3648059375001,
                        "value": 0
                    },
                    {
                        "number": 64,
                        "time": 280.4555138250001,
                        "value": 1
                    },
                    {
                        "number": 64,
                        "time": 281.9577249375001,
                        "value": 0
                    },
                    {
                        "number": 64,
                        "time": 282.02520275625005,
                        "value": 1
                    },
                    {
                        "number": 64,
                        "time": 283.55064393750007,
                        "value": 0
                    },
                    {
                        "number": 64,
                        "time": 283.6645818937501,
                        "value": 1
                    },
                    {
                        "number": 64,
                        "time": 285.1325010000001,
                        "value": 0
                    },
                    {
                        "number": 64,
                        "time": 288.3183390000001,
                        "value": 0
                    },
                    {
                        "number": 64,
                        "time": 294.6900150000001,
                        "value": 1
                    },
                    {
                        "number": 64,
                        "time": 296.28293400000007,
                        "value": 0
                    },
                    {
                        "number": 64,
                        "time": 296.4234206062501,
                        "value": 1
                    },
                    {
                        "number": 64,
                        "time": 296.8249689375001,
                        "value": 0
                    },
                    {
                        "number": 64,
                        "time": 297.0019599375001,
                        "value": 1
                    },
                    {
                        "number": 64,
                        "time": 297.35594193750006,
                        "value": 0
                    },
                    {
                        "number": 64,
                        "time": 297.51744622500007,
                        "value": 1
                    },
                    {
                        "number": 64,
                        "time": 297.87585300000006,
                        "value": 0
                    },
                    {
                        "number": 64,
                        "time": 298.03182631875006,
                        "value": 1
                    },
                    {
                        "number": 64,
                        "time": 298.41788793750004,
                        "value": 0
                    },
                    {
                        "number": 64,
                        "time": 298.54731260625005,
                        "value": 1
                    },
                    {
                        "number": 64,
                        "time": 298.94886093750006,
                        "value": 0
                    },
                    {
                        "number": 64,
                        "time": 299.15682536250006,
                        "value": 1
                    },
                    {
                        "number": 64,
                        "time": 299.46877200000006,
                        "value": 0
                    },
                    {
                        "number": 64,
                        "time": 299.6092586062501,
                        "value": 1
                    },
                    {
                        "number": 64,
                        "time": 300.0108069375001,
                        "value": 0
                    },
                    {
                        "number": 64,
                        "time": 300.1877979375001,
                        "value": 1
                    },
                    {
                        "number": 64,
                        "time": 300.54177993750005,
                        "value": 0
                    },
                    {
                        "number": 64,
                        "time": 300.70328422500006,
                        "value": 1
                    },
                    {
                        "number": 64,
                        "time": 301.06169100000005,
                        "value": 0
                    },
                    {
                        "number": 64,
                        "time": 301.21766431875005,
                        "value": 1
                    },
                    {
                        "number": 64,
                        "time": 301.60372593750003,
                        "value": 0
                    },
                    {
                        "number": 64,
                        "time": 301.73315060625004,
                        "value": 1
                    },
                    {
                        "number": 64,
                        "time": 302.13469893750005,
                        "value": 0
                    },
                    {
                        "number": 64,
                        "time": 302.34266336250005,
                        "value": 1
                    },
                    {
                        "number": 64,
                        "time": 302.65461000000005,
                        "value": 0
                    },
                    {
                        "number": 64,
                        "time": 302.79509660625007,
                        "value": 1
                    },
                    {
                        "number": 64,
                        "time": 303.1966449375001,
                        "value": 0
                    },
                    {
                        "number": 64,
                        "time": 303.37363593750007,
                        "value": 1
                    },
                    {
                        "number": 64,
                        "time": 303.72761793750004,
                        "value": 0
                    },
                    {
                        "number": 64,
                        "time": 303.88912222500005,
                        "value": 1
                    },
                    {
                        "number": 64,
                        "time": 304.24752900000004,
                        "value": 0
                    },
                    {
                        "number": 64,
                        "time": 304.40350231875004,
                        "value": 1
                    },
                    {
                        "number": 64,
                        "time": 304.7895639375,
                        "value": 0
                    },
                    {
                        "number": 64,
                        "time": 304.91898860625,
                        "value": 1
                    },
                    {
                        "number": 64,
                        "time": 305.32053693750004,
                        "value": 0
                    },
                    {
                        "number": 64,
                        "time": 305.52850136250004,
                        "value": 1
                    },
                    {
                        "number": 64,
                        "time": 305.84044800000004,
                        "value": 0
                    },
                    {
                        "number": 64,
                        "time": 305.98093460625006,
                        "value": 1
                    },
                    {
                        "number": 64,
                        "time": 306.3824829375001,
                        "value": 0
                    },
                    {
                        "number": 64,
                        "time": 306.55947393750006,
                        "value": 1
                    },
                    {
                        "number": 64,
                        "time": 306.91345593750003,
                        "value": 0
                    },
                    {
                        "number": 64,
                        "time": 307.07496022500004,
                        "value": 1
                    },
                    {
                        "number": 64,
                        "time": 307.43336700000003,
                        "value": 0
                    },
                    {
                        "number": 64,
                        "time": 307.58934031875003,
                        "value": 1
                    },
                    {
                        "number": 64,
                        "time": 307.9754019375,
                        "value": 0
                    },
                    {
                        "number": 64,
                        "time": 308.10482660625,
                        "value": 1
                    },
                    {
                        "number": 64,
                        "time": 308.5063749375,
                        "value": 0
                    },
                    {
                        "number": 64,
                        "time": 308.7143393625,
                        "value": 1
                    },
                    {
                        "number": 64,
                        "time": 309.026286,
                        "value": 0
                    },
                    {
                        "number": 64,
                        "time": 309.16677260625005,
                        "value": 1
                    },
                    {
                        "number": 64,
                        "time": 309.5605775812501,
                        "value": 0
                    },
                    {
                        "number": 64,
                        "time": 310.7287181812501,
                        "value": 1
                    },
                    {
                        "number": 64,
                        "time": 311.1612399375001,
                        "value": 0
                    },
                    {
                        "number": 64,
                        "time": 311.3382309375001,
                        "value": 1
                    },
                    {
                        "number": 64,
                        "time": 311.6922129375001,
                        "value": 0
                    },
                    {
                        "number": 64,
                        "time": 311.83712431875006,
                        "value": 1
                    },
                    {
                        "number": 64,
                        "time": 312.2121240000001,
                        "value": 0
                    },
                    {
                        "number": 64,
                        "time": 312.3680973187501,
                        "value": 1
                    },
                    {
                        "number": 64,
                        "time": 312.75415893750005,
                        "value": 0
                    },
                    {
                        "number": 64,
                        "time": 313.9145561812501,
                        "value": 1
                    },
                    {
                        "number": 64,
                        "time": 314.3470779375001,
                        "value": 0
                    },
                    {
                        "number": 64,
                        "time": 314.5240689375001,
                        "value": 1
                    },
                    {
                        "number": 64,
                        "time": 314.87805093750006,
                        "value": 0
                    },
                    {
                        "number": 64,
                        "time": 315.02296231875005,
                        "value": 1
                    },
                    {
                        "number": 64,
                        "time": 315.39796200000006,
                        "value": 0
                    },
                    {
                        "number": 64,
                        "time": 315.55393531875006,
                        "value": 1
                    },
                    {
                        "number": 64,
                        "time": 315.93999693750004,
                        "value": 0
                    },
                    {
                        "number": 64,
                        "time": 316.06167825000006,
                        "value": 1
                    },
                    {
                        "number": 64,
                        "time": 316.47096993750006,
                        "value": 0
                    },
                    {
                        "number": 64,
                        "time": 316.5926512500001,
                        "value": 1
                    },
                    {
                        "number": 64,
                        "time": 317.0019429375001,
                        "value": 0
                    },
                    {
                        "number": 64,
                        "time": 317.1236242500001,
                        "value": 1
                    },
                    {
                        "number": 64,
                        "time": 317.5329159375001,
                        "value": 0
                    },
                    {
                        "number": 64,
                        "time": 317.6490662812501,
                        "value": 1
                    },
                    {
                        "number": 64,
                        "time": 318.0638889375001,
                        "value": 0
                    },
                    {
                        "number": 64,
                        "time": 318.20437554375013,
                        "value": 1
                    },
                    {
                        "number": 64,
                        "time": 318.5948619375001,
                        "value": 0
                    },
                    {
                        "number": 64,
                        "time": 318.72318041250014,
                        "value": 1
                    },
                    {
                        "number": 64,
                        "time": 319.3492860750001,
                        "value": 0
                    },
                    {
                        "number": 64,
                        "time": 320.18446235625015,
                        "value": 1
                    },
                    {
                        "number": 64,
                        "time": 321.2475145500002,
                        "value": 0
                    },
                    {
                        "number": 64,
                        "time": 321.32052333750016,
                        "value": 1
                    },
                    {
                        "number": 64,
                        "time": 321.7806999375002,
                        "value": 0
                    },
                    {
                        "number": 64,
                        "time": 321.87915118125017,
                        "value": 1
                    },
                    {
                        "number": 64,
                        "time": 322.30946055000015,
                        "value": 0
                    },
                    {
                        "number": 64,
                        "time": 322.37915075625017,
                        "value": 1
                    },
                    {
                        "number": 64,
                        "time": 322.58158421250016,
                        "value": 0
                    },
                    {
                        "number": 64,
                        "time": 323.4178666875002,
                        "value": 1
                    },
                    {
                        "number": 64,
                        "time": 323.90680432500017,
                        "value": 0
                    },
                    {
                        "number": 64,
                        "time": 323.98755646875014,
                        "value": 1
                    },
                    {
                        "number": 64,
                        "time": 324.84596281875014,
                        "value": 0
                    },
                    {
                        "number": 64,
                        "time": 325.68888245625016,
                        "value": 1
                    },
                    {
                        "number": 64,
                        "time": 326.54839500000014,
                        "value": 0
                    },
                    {
                        "number": 64,
                        "time": 328.20436704375015,
                        "value": 1
                    },
                    {
                        "number": 64,
                        "time": 328.67892416250015,
                        "value": 0
                    },
                    {
                        "number": 64,
                        "time": 328.7729506312501,
                        "value": 1
                    },
                    {
                        "number": 64,
                        "time": 329.21432193750013,
                        "value": 0
                    },
                    {
                        "number": 64,
                        "time": 329.32825989375016,
                        "value": 1
                    },
                    {
                        "number": 64,
                        "time": 329.74418874375016,
                        "value": 0
                    },
                    {
                        "number": 64,
                        "time": 329.90679922500016,
                        "value": 1
                    },
                    {
                        "number": 64,
                        "time": 330.27294935625014,
                        "value": 0
                    },
                    {
                        "number": 64,
                        "time": 330.4056926062501,
                        "value": 1
                    },
                    {
                        "number": 64,
                        "time": 330.80613474375014,
                        "value": 0
                    },
                    {
                        "number": 64,
                        "time": 330.92117889375015,
                        "value": 1
                    },
                    {
                        "number": 64,
                        "time": 331.3337891625001,
                        "value": 0
                    },
                    {
                        "number": 64,
                        "time": 331.4919748687501,
                        "value": 1
                    },
                    {
                        "number": 64,
                        "time": 331.86586835625013,
                        "value": 0
                    },
                    {
                        "number": 64,
                        "time": 331.9598948250001,
                        "value": 1
                    },
                    {
                        "number": 64,
                        "time": 332.3957351625001,
                        "value": 0
                    },
                    {
                        "number": 64,
                        "time": 332.5163102812501,
                        "value": 1
                    },
                    {
                        "number": 64,
                        "time": 332.92560196875013,
                        "value": 0
                    },
                    {
                        "number": 64,
                        "time": 333.06055760625014,
                        "value": 1
                    },
                    {
                        "number": 64,
                        "time": 333.4986103312501,
                        "value": 0
                    },
                    {
                        "number": 64,
                        "time": 334.60701646875015,
                        "value": 1
                    },
                    {
                        "number": 64,
                        "time": 335.05391874375016,
                        "value": 0
                    },
                    {
                        "number": 64,
                        "time": 335.2475026500002,
                        "value": 1
                    },
                    {
                        "number": 64,
                        "time": 335.5904227125002,
                        "value": 0
                    },
                    {
                        "number": 64,
                        "time": 336.2463956062502,
                        "value": 1
                    },
                    {
                        "number": 64,
                        "time": 337.1755983562502,
                        "value": 0
                    },
                    {
                        "number": 64,
                        "time": 337.7618810437502,
                        "value": 1
                    },
                    {
                        "number": 64,
                        "time": 338.2408629375002,
                        "value": 0
                    },
                    {
                        "number": 64,
                        "time": 338.3127655312502,
                        "value": 1
                    },
                    {
                        "number": 64,
                        "time": 338.7718359375002,
                        "value": 0
                    },
                    {
                        "number": 64,
                        "time": 338.8747119562502,
                        "value": 1
                    },
                    {
                        "number": 64,
                        "time": 339.35480004375023,
                        "value": 0
                    },
                    {
                        "number": 64,
                        "time": 339.4554636750002,
                        "value": 1
                    },
                    {
                        "number": 64,
                        "time": 339.8337819375002,
                        "value": 0
                    },
                    {
                        "number": 64,
                        "time": 340.94771904375017,
                        "value": 1
                    },
                    {
                        "number": 64,
                        "time": 341.4267009375002,
                        "value": 0
                    },
                    {
                        "number": 64,
                        "time": 341.4986035312502,
                        "value": 1
                    },
                    {
                        "number": 64,
                        "time": 341.9576739375002,
                        "value": 0
                    },
                    {
                        "number": 64,
                        "time": 342.0605499562502,
                        "value": 1
                    },
                    {
                        "number": 64,
                        "time": 342.5406380437502,
                        "value": 0
                    },
                    {
                        "number": 64,
                        "time": 342.6413016750002,
                        "value": 1
                    },
                    {
                        "number": 64,
                        "time": 343.0196199375002,
                        "value": 0
                    },
                    {
                        "number": 64,
                        "time": 343.0970535000002,
                        "value": 1
                    },
                    {
                        "number": 64,
                        "time": 343.54838055000016,
                        "value": 0
                    },
                    {
                        "number": 64,
                        "time": 343.58377875000014,
                        "value": 1
                    },
                    {
                        "number": 64,
                        "time": 344.0804597437501,
                        "value": 0
                    },
                    {
                        "number": 64,
                        "time": 344.1401942062501,
                        "value": 1
                    },
                    {
                        "number": 64,
                        "time": 344.6125389375001,
                        "value": 0
                    },
                    {
                        "number": 64,
                        "time": 344.73422025000013,
                        "value": 1
                    },
                    {
                        "number": 64,
                        "time": 345.14351193750014,
                        "value": 0
                    },
                    {
                        "number": 64,
                        "time": 345.22094550000014,
                        "value": 1
                    },
                    {
                        "number": 64,
                        "time": 345.67337874375016,
                        "value": 0
                    },
                    {
                        "number": 64,
                        "time": 346.27293575625015,
                        "value": 1
                    },
                    {
                        "number": 64,
                        "time": 346.73643093750013,
                        "value": 0
                    },
                    {
                        "number": 64,
                        "time": 346.81939546875014,
                        "value": 1
                    },
                    {
                        "number": 64,
                        "time": 347.25634200000013,
                        "value": 0
                    },
                    {
                        "number": 64,
                        "time": 348.79505750625015,
                        "value": 1
                    },
                    {
                        "number": 64,
                        "time": 349.32049953750015,
                        "value": 0
                    },
                    {
                        "number": 64,
                        "time": 349.4023578750002,
                        "value": 1
                    },
                    {
                        "number": 64,
                        "time": 349.8503663437502,
                        "value": 0
                    },
                    {
                        "number": 64,
                        "time": 349.8957202875002,
                        "value": 1
                    },
                    {
                        "number": 64,
                        "time": 350.4421800000002,
                        "value": 0
                    },
                    {
                        "number": 64,
                        "time": 350.5439498250002,
                        "value": 1
                    },
                    {
                        "number": 64,
                        "time": 350.9831087437502,
                        "value": 0
                    },
                    {
                        "number": 64,
                        "time": 351.0671794687502,
                        "value": 1
                    },
                    {
                        "number": 64,
                        "time": 351.5118693562502,
                        "value": 0
                    },
                    {
                        "number": 64,
                        "time": 351.6446126062502,
                        "value": 1
                    },
                    {
                        "number": 64,
                        "time": 352.0461609375002,
                        "value": 0
                    },
                    {
                        "number": 64,
                        "time": 352.1058954000002,
                        "value": 1
                    },
                    {
                        "number": 64,
                        "time": 352.5738153562502,
                        "value": 0
                    },
                    {
                        "number": 64,
                        "time": 352.6368684000002,
                        "value": 1
                    },
                    {
                        "number": 64,
                        "time": 353.1070007437502,
                        "value": 0
                    },
                    {
                        "number": 64,
                        "time": 353.2375316062502,
                        "value": 1
                    },
                    {
                        "number": 64,
                        "time": 353.6401861312502,
                        "value": 0
                    },
                    {
                        "number": 64,
                        "time": 353.71208872500017,
                        "value": 1
                    },
                    {
                        "number": 64,
                        "time": 354.17005293750015,
                        "value": 0
                    },
                    {
                        "number": 64,
                        "time": 354.25301746875016,
                        "value": 1
                    },
                    {
                        "number": 64,
                        "time": 354.70102593750016,
                        "value": 0
                    },
                    {
                        "number": 64,
                        "time": 354.76076040000015,
                        "value": 1
                    },
                    {
                        "number": 64,
                        "time": 355.22093700000016,
                        "value": 0
                    },
                    {
                        "number": 64,
                        "time": 355.3348749562502,
                        "value": 1
                    },
                    {
                        "number": 64,
                        "time": 355.7607595500002,
                        "value": 0
                    },
                    {
                        "number": 64,
                        "time": 355.8658479562502,
                        "value": 1
                    },
                    {
                        "number": 64,
                        "time": 356.2873077750002,
                        "value": 0
                    },
                    {
                        "number": 64,
                        "time": 356.3879714062502,
                        "value": 1
                    },
                    {
                        "number": 64,
                        "time": 356.8138560000002,
                        "value": 0
                    },
                    {
                        "number": 64,
                        "time": 356.91562582500023,
                        "value": 1
                    },
                    {
                        "number": 64,
                        "time": 357.35478474375026,
                        "value": 0
                    },
                    {
                        "number": 64,
                        "time": 357.43885546875026,
                        "value": 1
                    },
                    {
                        "number": 64,
                        "time": 357.88354535625024,
                        "value": 0
                    },
                    {
                        "number": 64,
                        "time": 358.0162886062502,
                        "value": 1
                    },
                    {
                        "number": 64,
                        "time": 358.4178369375002,
                        "value": 0
                    },
                    {
                        "number": 64,
                        "time": 358.4775714000002,
                        "value": 1
                    },
                    {
                        "number": 64,
                        "time": 358.9454913562502,
                        "value": 0
                    },
                    {
                        "number": 64,
                        "time": 359.00854440000023,
                        "value": 1
                    },
                    {
                        "number": 64,
                        "time": 359.4786767437502,
                        "value": 0
                    },
                    {
                        "number": 64,
                        "time": 359.6092076062502,
                        "value": 1
                    },
                    {
                        "number": 64,
                        "time": 360.0118621312502,
                        "value": 0
                    },
                    {
                        "number": 64,
                        "time": 360.0837647250002,
                        "value": 1
                    },
                    {
                        "number": 64,
                        "time": 360.5417289375002,
                        "value": 0
                    },
                    {
                        "number": 64,
                        "time": 360.6246934687502,
                        "value": 1
                    },
                    {
                        "number": 64,
                        "time": 361.0727019375002,
                        "value": 0
                    },
                    {
                        "number": 64,
                        "time": 361.1324364000002,
                        "value": 1
                    },
                    {
                        "number": 64,
                        "time": 361.5926130000002,
                        "value": 0
                    },
                    {
                        "number": 64,
                        "time": 361.7065509562502,
                        "value": 1
                    },
                    {
                        "number": 64,
                        "time": 362.13243555000025,
                        "value": 0
                    },
                    {
                        "number": 64,
                        "time": 362.23752395625024,
                        "value": 1
                    },
                    {
                        "number": 64,
                        "time": 362.65898377500025,
                        "value": 0
                    },
                    {
                        "number": 64,
                        "time": 362.7596474062502,
                        "value": 1
                    },
                    {
                        "number": 64,
                        "time": 363.12247895625023,
                        "value": 0
                    },
                    {
                        "number": 64,
                        "time": 363.22424878125025,
                        "value": 1
                    },
                    {
                        "number": 64,
                        "time": 364.25300896875024,
                        "value": 0
                    },
                    {
                        "number": 64,
                        "time": 366.00521986875026,
                        "value": 1
                    },
                    {
                        "number": 64,
                        "time": 366.37137000000024,
                        "value": 0
                    },
                    {
                        "number": 64,
                        "time": 368.00743055625026,
                        "value": 1
                    },
                    {
                        "number": 64,
                        "time": 369.03508455000025,
                        "value": 0
                    },
                    {
                        "number": 64,
                        "time": 369.10809333750024,
                        "value": 1
                    },
                    {
                        "number": 64,
                        "time": 369.56826993750025,
                        "value": 0
                    },
                    {
                        "number": 64,
                        "time": 369.66672118125024,
                        "value": 1
                    },
                    {
                        "number": 64,
                        "time": 370.0970305500002,
                        "value": 0
                    },
                    {
                        "number": 64,
                        "time": 370.16672075625024,
                        "value": 1
                    },
                    {
                        "number": 64,
                        "time": 370.36915421250023,
                        "value": 0
                    },
                    {
                        "number": 64,
                        "time": 371.20543668750025,
                        "value": 1
                    },
                    {
                        "number": 64,
                        "time": 371.69437432500024,
                        "value": 0
                    },
                    {
                        "number": 64,
                        "time": 371.7751264687502,
                        "value": 1
                    },
                    {
                        "number": 64,
                        "time": 372.6335328187502,
                        "value": 0
                    },
                    {
                        "number": 64,
                        "time": 373.47645245625023,
                        "value": 1
                    },
                    {
                        "number": 64,
                        "time": 374.3359650000002,
                        "value": 0
                    },
                    {
                        "number": 64,
                        "time": 375.9919370437502,
                        "value": 1
                    },
                    {
                        "number": 64,
                        "time": 376.4664941625002,
                        "value": 0
                    },
                    {
                        "number": 64,
                        "time": 376.5605206312502,
                        "value": 1
                    },
                    {
                        "number": 64,
                        "time": 377.0018919375002,
                        "value": 0
                    },
                    {
                        "number": 64,
                        "time": 377.11582989375023,
                        "value": 1
                    },
                    {
                        "number": 64,
                        "time": 377.53175874375023,
                        "value": 0
                    },
                    {
                        "number": 64,
                        "time": 377.69436922500023,
                        "value": 1
                    },
                    {
                        "number": 64,
                        "time": 378.0605193562502,
                        "value": 0
                    },
                    {
                        "number": 64,
                        "time": 378.1932626062502,
                        "value": 1
                    },
                    {
                        "number": 64,
                        "time": 378.5937047437502,
                        "value": 0
                    },
                    {
                        "number": 64,
                        "time": 378.7087488937502,
                        "value": 1
                    },
                    {
                        "number": 64,
                        "time": 379.1213591625002,
                        "value": 0
                    },
                    {
                        "number": 64,
                        "time": 379.2795448687502,
                        "value": 1
                    },
                    {
                        "number": 64,
                        "time": 379.6534383562502,
                        "value": 0
                    },
                    {
                        "number": 64,
                        "time": 379.7474648250002,
                        "value": 1
                    },
                    {
                        "number": 64,
                        "time": 380.1833051625002,
                        "value": 0
                    },
                    {
                        "number": 64,
                        "time": 380.3038802812502,
                        "value": 1
                    },
                    {
                        "number": 64,
                        "time": 380.7076410000002,
                        "value": 0
                    },
                    {
                        "number": 64,
                        "time": 382.3392767812502,
                        "value": 1
                    },
                    {
                        "number": 64,
                        "time": 382.7109578812502,
                        "value": 0
                    },
                    {
                        "number": 64,
                        "time": 384.0339656062502,
                        "value": 1
                    },
                    {
                        "number": 64,
                        "time": 384.9631683562502,
                        "value": 0
                    },
                    {
                        "number": 64,
                        "time": 385.5494510437502,
                        "value": 1
                    },
                    {
                        "number": 64,
                        "time": 386.0284329375002,
                        "value": 0
                    },
                    {
                        "number": 64,
                        "time": 386.1003355312502,
                        "value": 1
                    },
                    {
                        "number": 64,
                        "time": 386.55940593750023,
                        "value": 0
                    },
                    {
                        "number": 64,
                        "time": 386.66228195625024,
                        "value": 1
                    },
                    {
                        "number": 64,
                        "time": 387.14237004375025,
                        "value": 0
                    },
                    {
                        "number": 64,
                        "time": 387.2430336750002,
                        "value": 1
                    },
                    {
                        "number": 64,
                        "time": 387.6213519375002,
                        "value": 0
                    },
                    {
                        "number": 64,
                        "time": 388.7352890437502,
                        "value": 1
                    },
                    {
                        "number": 64,
                        "time": 389.2142709375002,
                        "value": 0
                    },
                    {
                        "number": 64,
                        "time": 389.2861735312502,
                        "value": 1
                    },
                    {
                        "number": 64,
                        "time": 389.7452439375002,
                        "value": 0
                    },
                    {
                        "number": 64,
                        "time": 389.84811995625023,
                        "value": 1
                    },
                    {
                        "number": 64,
                        "time": 390.32820804375024,
                        "value": 0
                    },
                    {
                        "number": 64,
                        "time": 390.4288716750002,
                        "value": 1
                    },
                    {
                        "number": 64,
                        "time": 390.8071899375002,
                        "value": 0
                    },
                    {
                        "number": 64,
                        "time": 390.8846235000002,
                        "value": 1
                    },
                    {
                        "number": 64,
                        "time": 391.3359505500002,
                        "value": 0
                    },
                    {
                        "number": 64,
                        "time": 391.37134875000015,
                        "value": 1
                    },
                    {
                        "number": 64,
                        "time": 391.8680297437501,
                        "value": 0
                    },
                    {
                        "number": 64,
                        "time": 391.9277642062501,
                        "value": 1
                    },
                    {
                        "number": 64,
                        "time": 392.40010893750014,
                        "value": 0
                    },
                    {
                        "number": 64,
                        "time": 392.52179025000015,
                        "value": 1
                    },
                    {
                        "number": 64,
                        "time": 392.93108193750015,
                        "value": 0
                    },
                    {
                        "number": 64,
                        "time": 393.00851550000016,
                        "value": 1
                    },
                    {
                        "number": 64,
                        "time": 393.4609487437502,
                        "value": 0
                    },
                    {
                        "number": 64,
                        "time": 393.4908159750002,
                        "value": 1
                    },
                    {
                        "number": 64,
                        "time": 393.9930279375002,
                        "value": 0
                    },
                    {
                        "number": 64,
                        "time": 394.06050575625017,
                        "value": 1
                    },
                    {
                        "number": 64,
                        "time": 394.52400093750015,
                        "value": 0
                    },
                    {
                        "number": 64,
                        "time": 394.60696546875016,
                        "value": 1
                    },
                    {
                        "number": 64,
                        "time": 395.04391200000015,
                        "value": 0
                    }
                ]
            },
            "id": 3,
            "name": "Pedal",
            "instrumentNumber": 0,
            "instrument": "acoustic grand piano",
            "instrumentFamily": "piano",
            "channelNumber": 0,
            "isPercussion": false
        },
        {
            "startTime": 0,
            "duration": 0,
            "length": 0,
            "notes": [],
            "controlChanges": {},
            "id": 4,
            "name": "Mozart: Sonate KV 331"
        },
        {
            "startTime": 0,
            "duration": 0,
            "length": 0,
            "notes": [],
            "controlChanges": {},
            "id": 5,
            "name": "Copyright  2005 by Bernd Krger"
        },
        {
            "startTime": 0,
            "duration": 0,
            "length": 0,
            "notes": [],
            "controlChanges": {},
            "id": 6,
            "name": "http://www.piano-midi.de"
        },
        {
            "startTime": 0,
            "duration": 0,
            "length": 0,
            "notes": [],
            "controlChanges": {},
            "id": 7,
            "name": "Edition: 2013-07-13"
        },
        {
            "startTime": 0,
            "duration": 0,
            "length": 0,
            "notes": [],
            "controlChanges": {},
            "id": 8,
            "name": "Spur 8"
        },
        {
            "startTime": 0,
            "duration": 0,
            "length": 0,
            "notes": [],
            "controlChanges": {},
            "id": 9,
            "name": "Spur 9"
        }
    ]
}